ply
format ascii 1.0
element vertex 1024
property float x
property float y
property float z
property float intensity
end_header
0.396636992692947388 0.0150129999965429306 0.0107485000044107437 100
0.394677013158798218 0.00673037022352218628 0.0111809996888041496 100
0.39864000678062439 0.0172172002494335175 0.0082483198493719101 100
0.404655009508132935 0.0155319999903440475 0.00698015978559851646 100
0.416676998138427734 0.0140768997371196747 0.00443626986816525459 100
0.407691001892089844 0.00926356017589569092 0.00636315019801259041 100
0.390684008598327637 0.00661017000675201416 0.00998205039650201797 100
0.387690991163253784 0.00454625999554991722 0.0106245996430516243 100
0.384638994932174683 0.0161824002861976624 0.00926430989056825638 100
0.381646007299423218 0.0140365995466709137 0.00993639044463634491 100
0.419692009687423706 0.0142438001930713654 0.00152390997391194105 100
0.380674988031387329 0.00822799000889062881 0.0101768001914024353 100
0.382687002420425415 0.00637263990938663483 0.00973927043378353119 100
0.384698987007141113 0.00448185019195079803 0.00930131971836090088 100
0.376632988452911377 0.0174716003239154816 0.00913858041167259216 100
0.361629009246826172 0.0144827999174594879 0.0126050002872943878 100
0.365642011165618896 0.0129963001236319542 0.0116894999518990517 100
0.364668011665344238 0.00761384982615709305 0.0119377002120018005 100
0.363676011562347412 0.00581244006752967834 0.0121732000261545181 100
0.365687012672424316 0.0040903300978243351 0.0117170000448822975 100
0.352620989084243774 0.0154846999794244766 0.0129961995407938957 100
0.353630989789962769 0.0138916997238993645 0.0127635002136230469 100
0.354640007019042969 0.0122811002656817436 0.0125305000692605972 100
0.353664994239807129 0.0071913301944732666 0.0127870002761483192 100
0.351671010255813599 0.00545811979100108147 0.0132707003504037857 100
0.353682011365890503 0.00384240993298590183 0.0127961998805403709 100
0.394555985927581787 0.041468501091003418 0.000747019017580896616 100
0.383590012788772583 0.0316749997437000275 0.00354005000554025173 100
0.385641992092132568 0.0221427008509635925 0.00309666991233825684 100
0.390657007694244385 0.0206387005746364594 0.00186294002924114466 100
0.350627988576889038 0.0153197003528475761 0.0118147004395723343 100
0.351637989282608032 0.0137440003454685211 0.0115731004625558853 100
0.348643004894256592 0.011890999972820282 0.0123252002522349358 100
0.348668009042739868 0.00699851009994745255 0.0123420003801584244 100
0.34667399525642395 0.00530944019556045532 0.0128434998914599419 100
0.347683995962142944 0.00371739990077912807 0.0125994002446532249 100
0.38781699538230896 -0.0112880999222397804 0.00268820999190211296 100
0.375835001468658447 -0.0181671995669603348 0.00566626992076635361 100
0.368544012308120728 0.0385854989290237427 0.00538450013846158981 100
0.368553996086120605 0.036766398698091507 0.00539827998727560043 100
0.369581997394561768 0.031469300389289856 0.0051786499097943306 100
0.372593998908996582 0.0300808995962142944 0.00441680010408163071 100
0.377606987953186035 0.0289124995470046997 0.00313912006095051765 100
0.377635985612869263 0.0232315994799137115 0.00317130004987120628 100
0.377645999193191528 0.0213392991572618484 0.0031809699721634388 100
0.378655999898910522 0.0195393003523349762 0.00293254991993308067 100
0.348636001348495483 0.015154699794948101 0.0106677999719977379 100
0.348643988370895386 0.0135225998237729073 0.0106747997924685478 100
0.3516559898853302 0.0120857004076242447 0.00990897975862026215 100
0.389708012342453003 0.0125577999278903008 0.000132268993183970451 100
0.349678993225097656 0.00703524984419345856 0.010441100224852562 100
0.347683995962142944 0.00533684017136693001 0.0109606003388762474 100
0.353700995445251465 0.00383751001209020615 0.00942089036107063293 100
0.375768989324569702 -0.00319819990545511246 0.00377436005510389805 100
0.374796003103256226 -0.00877073965966701508 0.00403736019507050514 100
0.367794007062911987 -0.0102776000276207924 0.00583887984976172447 100
0.365799009799957275 -0.0119588999077677727 0.00635374011471867561 100
0.366829007863998413 -0.0173969995230436325 0.00609470019116997719 100
0.365835994482040405 -0.0190951991826295853 0.0063503701239824295 100
0.365543991327285767 0.0398157984018325806 0.00434347009286284447 100
0.365552991628646851 0.0380221009254455566 0.00435790000483393669 100
0.366562992334365845 0.036410599946975708 0.00410467991605401039 100
0.366571992635726929 0.0346099995076656342 0.00411815987899899483 100
0.366580992937088013 0.0328103005886077881 0.00413110991939902306 100
0.366589993238449097 0.0310114007443189621 0.00414355006068944931 100
0.367599993944168091 0.0293588005006313324 0.00388859002850949764 100
0.366609007120132446 0.0274161994457244873 0.00416690018028020859 100
0.36761900782585144 0.0257470998913049698 0.00391103001311421394 100
0.366627007722854614 0.0238237995654344559 0.00418819999322295189 100
0.368638008832931519 0.0222478006035089493 0.0036647298838943243 100
0.367646008729934692 0.0203347001224756241 0.00394080998376011848 100
0.341628998517990112 0.0161463990807533264 0.0108810001984238625 100
0.339635014533996582 0.0144101995974779129 0.0114214001223444939 100
0.344648003578186035 0.0132274003699421883 0.010095600038766861 100
0.341652989387512207 0.0114358998835086823 0.0109016001224517822 100
0.379716992378234863 0.0100884996354579926 0.000789785990491509438 100
0.339675009250640869 0.00665153004229068756 0.0114508997648954391 100
0.340683996677398682 0.00512976991012692451 0.0111891999840736389 100
0.344698011875152588 0.00365150999277830124 0.0101281004026532173 100
0.379756003618240356 0.0024580999743193388 0.000811358971986919641 100
0.37077099084854126 -0.00312669994309544563 0.00321814999915659428 100
0.366773992776870728 -0.00485731987282633781 0.00428545987233519554 100
0.366782993078231812 -0.00664908997714519501 0.00428724987432360649 100
0.366793006658554077 -0.00844107009470462799 0.004288520198315382 100
0.365799993276596069 -0.0101824002340435982 0.00455552991479635239 100
0.365808993577957153 -0.0119660003110766411 0.00455579021945595741 100
0.364816993474960327 -0.0136810997501015663 0.00482178013771772385 100
0.363824009895324707 -0.015378899872303009 0.00508726993575692177 100
0.363833010196685791 -0.0171457007527351379 0.00508604990318417549 100
0.364843994379043579 -0.0190085992217063904 0.00481807999312877655 100
0.363851010799407959 -0.0206809993833303452 0.00508208991959691048 100
0.365543991327285767 0.0416188016533851624 0.00252503994852304459 100
0.364553004503250122 0.0396244004368782043 0.00281666009686887264 100
0.364562004804611206 0.037839200347661972 0.00283138011582195759 100
0.3655720055103302 0.0362362004816532135 0.00256941001862287521 100
0.365581005811691284 0.0344440005719661713 0.00258315005339682102 100
0.365590006113052368 0.0326526984572410583 0.00259634992107748985 100
0.365599006414413452 0.0308622997254133224 0.00260903011076152325 100
0.365608006715774536 0.0290727000683546066 0.00262116990052163601 100
0.365617990493774414 0.0272838994860649109 0.00263278000056743622 100
0.367628008127212524 0.0257507991045713425 0.00209232000634074211 100
0.365635991096496582 0.0237083993852138519 0.00265445001423358917 100
0.364643990993499756 0.0218119993805885315 0.0029401599895209074 100
0.369657993316650391 0.0205380991101264954 0.00157147995196282864 100
0.346643000841140747 0.0166065003722906113 0.00791911967098712921 100
0.344648987054824829 0.014825199730694294 0.00847787037491798401 100
0.345658004283905029 0.0133017003536224365 0.00820947997272014618 100
0.347669005393981934 0.0118257002905011177 0.00766522996127605438 100
0.367702007293701172 0.0113233998417854309 0.0021629000548273325 100
0.36871299147605896 0.00956887006759643555 0.00189395004417747259 100
0.332673996686935425 0.00638268003240227699 0.0118132000789046288 100
0.331679999828338623 0.00486428011208772659 0.0120930001139640808 100
0.336694985628128052 0.00348614994436502457 0.0107204001396894455 100
0.368750005960464478 0.00232866010628640652 0.00191462005022913218 100
0.371782988309860229 -0.00314667006023228168 0.00109885004349052906 100
0.364780992269515991 -0.00481405016034841537 0.00302778999321162701 100
0.363788008689880371 -0.00655539985746145248 0.00330473994836211205 100
0.365801006555557251 -0.0084051797166466713 0.00275547010824084282 100
0.363806009292602539 -0.0100870998576283455 0.00330660003237426281 100
0.363815009593963623 -0.0118533996865153313 0.00330676999874413013 100
0.364825993776321411 -0.0136887002736330032 0.00303118000738322735 100
0.363833993673324585 -0.015386899933218956 0.00330553995445370674 100
0.363842993974685669 -0.0171543005853891373 0.00330415996722877026 100
0.364854007959365845 -0.0190178006887435913 0.00302701001055538654 100
0.364863008260726929 -0.0207950994372367859 0.00302457995712757111 100
0.363869994878768921 -0.0224596001207828522 0.00329690007492899895 100
0.367554992437362671 0.0420438013970851898 0.000149162005982361734 100
0.317620009183883667 0.0139471003785729408 0.0145420003682374954 100
0.319629013538360596 0.0127555998042225838 0.0139793995767831802 100
0.317633986473083496 0.0112330997362732887 0.0145546998828649521 100
0.332659006118774414 0.0108511997386813164 0.0102933002635836601 100
0.358700990676879883 0.0108185000717639923 0.00290386006236076355 100
0.358709990978240967 0.00909661967307329178 0.00291012995876371861 100
0.31866300106048584 0.00584649015218019485 0.0142908003181219101 100
0.317667990922927856 0.00445252982899546623 0.0145792998373508453 100
0.318677008152008057 0.00311727006919682026 0.0142986997961997986 100
0.367796003818511963 -0.00489181000739336014 0.000383370002964511514 100
0.366802990436553955 -0.00666041998192667961 0.000669280998408794403 100
0.365810990333557129 -0.00841138046234846115 0.000954632007051259279 100
0.366822004318237305 -0.0102466996759176254 0.000670998007990419865 100
0.366831004619598389 -0.0120401997119188309 0.000671065005008131266 100
0.365837991237640381 -0.0137652996927499771 0.00095479300944134593 100
0.365846991539001465 -0.0155507000163197517 0.000953776005189865828 100
0.366858989000320435 -0.0174231007695198059 0.000667980988509953022 100
0.36787000298500061 -0.0193140003830194473 0.000381630990887060761 100
0.367879003286361694 -0.02111859992146492 0.000378978002117946744 100
0.367888987064361572 -0.0229238998144865036 0.000375781994080170989 100
0.316626012325286865 0.0138566996902227402 0.0134651996195316315 100
0.317633986473083496 0.0125909000635147095 0.0131783001124858856 100
0.316639989614486694 0.0111597999930381775 0.0134781002998352051 100
0.316646993160247803 0.00981173012405633926 0.0134838996455073357 100
0.316653996706008911 0.00846396014094352722 0.0134891998022794724 100
0.316659986972808838 0.00711640017107129097 0.0134942000731825829 100
0.316666990518569946 0.00576901994645595551 0.0134987002238631248 100
0.316673994064331055 0.00442177988588809967 0.013502899557352066 100
0.315679997205734253 0.00305429007858037949 0.0137999001890420914 100
0.316688001155853271 0.00172757997643202543 0.0135099003091454506 100
0.315625011920928955 0.0151070002466440201 0.012398100458085537 100
0.315631985664367676 0.0137665001675486565 0.0124051999300718307 100
0.316639989614486694 0.0125091997906565666 0.0121093001216650009 100
0.315645992755889893 0.0110865999013185501 0.0124182002618908882 100
0.314651012420654297 0.00968204997479915619 0.012726600281894207 100
0.315659999847412109 0.00840775016695261002 0.0124294999986886978 100
0.315667003393173218 0.0070687001571059227 0.0124345002695918083 100
0.315672993659973145 0.00572982011362910271 0.0124391000717878342 100
0.315679997205734253 0.00439107976853847504 0.0124431997537612915 100
0.315687000751495361 0.00305245001800358295 0.0124468998983502388 100
0.316695988178253174 0.00172532000578939915 0.012147899717092514 100
0.316702991724014282 0.000377871008822694421 0.0121507998555898666 100
0.333647012710571289 0.0184244997799396515 0.00542357983067631721 100
0.315632998943328857 0.015109100379049778 0.0110430000349879265 100
0.315640002489089966 0.0137681998312473297 0.0110502997413277626 100
0.317649006843566895 0.0125933000817894936 0.0104339001700282097 100
0.314651995897293091 0.0110133998095989227 0.01137510035187006 100
0.314658999443054199 0.00968240015208721161 0.011381000280380249 100
0.314666002988815308 0.00835162028670310974 0.0113864997401833534 100
0.314671993255615234 0.00702106999233365059 0.0113915000110864639 100
0.315681010484695435 0.00572887016460299492 0.0110847000032663345 100
0.315688014030456543 0.00438970979303121567 0.0110889002680778503 100
0.31469300389289856 0.00303029990755021572 0.0114040002226829529 100
0.315701007843017578 0.00171165005303919315 0.0110959997400641441 100
0.316709995269775391 0.000375172006897628307 0.0107875000685453415 100
0.343650996685028076 0.0227103997021913528 0.000675903982482850552 100
0.338660985231399536 0.0189759004861116409 0.00230024009943008423 100
0.315640002489089966 0.0151113001629710197 0.00968667957931756973 100
0.315647006034851074 0.0137699004262685776 0.00969410035759210587 100
0.315654009580612183 0.0124289002269506454 0.00970104988664388657 100
0.314658999443054199 0.0110143003985285759 0.0100282002240419388 100
0.314666002988815308 0.00968283973634243011 0.0100341998040676117 100
0.313672006130218506 0.00829556025564670563 0.0103602996096014977 100
0.313677996397018433 0.00697349011898040771 0.0103652998805046082 100
0.313684999942779541 0.0056516001932322979 0.0103700002655386925 100
0.313692003488540649 0.00432984018698334694 0.0103740999475121498 100
0.313699007034301758 0.00300819007679820061 0.010377899743616581 100
0.314707010984420776 0.00169801001902669668 0.0100606996566057205 100
0.315715998411178589 0.000370002991985529661 0.0097432304173707962 100
0.339781999588012695 -0.00423210021108388901 0.00206101010553538799 100
0.34182700514793396 -0.0121421003714203835 0.00142132001928985119 100
0.330841004848480225 -0.0187612008303403854 0.00493344990536570549 100
0.329845994710922241 -0.0201156008988618851 0.00525008002296090126 100
0.331555008888244629 0.0390762984752655029 0.00286410003900527954 100
0.333564013242721558 0.0380331017076969147 0.00221863994374871254 100
0.336573004722595215 0.0371723994612693787 0.00124228000640869141 100
0.335595995187759399 0.032368101179599762 0.00161796994507312775 100
0.332601010799407959 0.0302967000752687454 0.00262307003140449524 100
0.334610998630523682 0.0291421990841627121 0.00197556009516119957 100
0.332639008760452271 0.0228071007877588272 0.00268339994363486767 100
0.331645995378494263 0.0211835000663995743 0.00302386004477739334 100
0.331652998924255371 0.0196970999240875244 0.00303378002718091011 100
0.329658985137939453 0.0179917998611927032 0.00370288011617958546 100
0.317649990320205688 0.0153152002021670341 0.00766933010891079903 100
0.314653009176254272 0.0136799998581409454 0.00866623036563396454 100
0.315661013126373291 0.0124303996562957764 0.00834355037659406662 100
0.313665002584457397 0.0109414001926779747 0.00900948978960514069 100
0.313672006130218506 0.00961835961788892746 0.0090155499055981636 100
0.313679009675979614 0.00829563010483980179 0.00902113970369100571 100
0.313686013221740723 0.00697309989482164383 0.0090262899175286293 100
0.313692003488540649 0.00565076014026999474 0.00903096981346607208 100
0.314700990915298462 0.00435779988765716553 0.00870571006089448929 100
0.313706010580062866 0.00300644990056753159 0.00903895962983369827 100
0.315715998411178589 0.00170718005392700434 0.00838337000459432602 100
0.316724985837936401 0.00036976500996388495 0.00805683992803096771 100
0.323751986026763916 -0.00243576988577842712 0.00575547013431787491 100
0.325764000415802002 -0.00389592000283300877 0.00509826978668570518 100
0.329778999090194702 -0.00545848021283745766 0.00378184998407959938 100
0.331806004047393799 -0.00997528992593288422 0.00312342005781829357 100
0.32880699634552002 -0.0112520996481180191 0.00411063991487026215 100
0.326810002326965332 -0.0125535996630787849 0.00476801022887229919 100
0.329847007989883423 -0.0186570007354021072 0.00376905989833176136 100
0.329854995012283325 -0.0201255995780229568 0.00376508990302681923 100
0.331867009401321411 -0.0218579992651939392 0.00310160010121762753 100
0.330554991960525513 0.0403399989008903503 0.00167897995561361313 100
0.332563012838363647 0.0393223986029624939 0.00101597001776099205 100
0.329598993062973022 0.0312336999922990799 0.00211259000934660435 100
0.331607997417449951 0.0301227997988462448 0.00144734000787138939 100
0.335619986057281494 0.0293218009173870087 0.000103079997643362731 100
0.329643994569778442 0.022402200847864151 0.00218677008524537086 100
0.32764899730682373 0.0206773001700639725 0.00287534995004534721 100
0.329658985137939453 0.0194636005908250809 0.00220724008977413177 100
0.326662987470626831 0.0176659002900123596 0.00323347002267837524 100
0.315654993057250977 0.0151161998510360718 0.00696976995095610619 100
0.314660996198654175 0.0136820003390312195 0.00731626013293862343 100
0.314666986465454102 0.0123490002006292343 0.00732340011745691299 100
0.312671005725860596 0.0108684999868273735 0.00800753012299537659 100
0.312678009271621704 0.00955396983772516251 0.00801363959908485413 100
0.312685012817382812 0.00823972001671791077 0.00801928993314504623 100
0.312691003084182739 0.00692566018551588058 0.00802445970475673676 100
0.313699990510940552 0.0056499699130654335 0.00769058987498283386 100
0.31370699405670166 0.00432729022577404976 0.00769485998898744583 100
0.313713014125823975 0.00300472998060286045 0.00769865000620484352 100
0.314722001552581787 0.00169359997380524874 0.00736348005011677742 100
0.316733002662658691 0.000367067987099289894 0.00668937992304563522 100
0.32175600528717041 -0.00240872008726000786 0.00500151002779603004 100
0.321763008832931519 -0.00380278006196022034 0.00500304019078612328 100
0.331791013479232788 -0.00553009985014796257 0.00161968998145312071 100
0.329809993505477905 -0.00986163970082998276 0.00229665008373558521 100
0.321799010038375854 -0.0107755996286869049 0.0050031798891723156 100
0.320803999900817871 -0.012092900462448597 0.00534015987068414688 100
0.326824992895126343 -0.0140014998614788055 0.00330744008533656597 100
0.32383999228477478 -0.0179836992174386978 0.00431384006515145302 100
0.319837987422943115 -0.0189079008996486664 0.00566401984542608261 100
0.317840009927749634 -0.0200245007872581482 0.00633677979931235313 100
0.317546993494033813 0.0385450981557369232 0.00470128981396555901 100
0.317553997039794922 0.0371723994612693787 0.00471785012632608414 100
0.31656000018119812 0.0355651006102561951 0.00508301984518766403 100
0.327576011419296265 0.0366949997842311859 0.00125925999600440264 100
0.315587013959884644 0.0299242008477449417 0.0054903901182115078 100
0.314592987298965454 0.0283844005316495895 0.00585233001038432121 100
0.315600991249084473 0.0272263996303081512 0.00551648018881678581 100
0.327619999647140503 0.0279489997774362564 0.0013470799895003438 100
0.319633007049560547 0.0224219001829624176 0.00416962988674640656 100
0.319640010595321655 0.0210408996790647507 0.00418019993230700493 100
0.318646013736724854 0.0195327997207641602 0.00453838985413312912 100
0.319660991430282593 0.0169009994715452194 0.00420883996412158012 100
0.313659995794296265 0.014917200431227684 0.00630499981343746185 100
0.312664985656738281 0.013500499539077282 0.00666060019284486771 100
0.3136729896068573 0.01226780004799366 0.00631994009017944336 100
0.311677008867263794 0.0107957003638148308 0.00702226022258400917 100
0.311684012413024902 0.00948966015130281448 0.00702842976897954941 100
0.311690002679824829 0.00818387046456336975 0.00703410990536212921 100
0.312698990106582642 0.00692539988085627556 0.00669165002182126045 100
0.312705010175704956 0.00561104016378521919 0.00669641001150012016 100
0.313713997602462769 0.00432607019320130348 0.00635307002812623978 100
0.312718987464904785 0.00298274005763232708 0.00670449994504451752 100
0.313728004693984985 0.00168006005696952343 0.00636025005951523781 100
0.314736008644104004 0.000359530997229740024 0.00601556012406945229 100
0.315751999616622925 -0.00231973989866673946 0.00567233981564640999 100
0.315759003162384033 -0.00366067001596093178 0.00567376986145973206 100
0.316767990589141846 -0.00503505999222397804 0.00532720983028411865 100
0.315793007612228394 -0.0103676998987793922 0.00567355984821915627 100
0.313796013593673706 -0.0115537000820040703 0.00636709015816450119 100
0.31580701470375061 -0.0130524002015590668 0.00567003991454839706 100
0.324851006269454956 -0.0181070994585752487 0.00253273011185228825 100
0.317840009927749634 -0.0186720006167888641 0.00496185990050435066 100
0.315842002630233765 -0.0197710003703832626 0.00565261999145150185 100
0.319860011339187622 -0.0216793008148670197 0.00425693020224571228 100
0.325545012950897217 0.0434805005788803101 0.000411693996284157038 100
0.315546005964279175 0.0394055992364883423 0.00401624012738466263 100
0.314552009105682373 0.0377957001328468323 0.0043919198215007782 100
0.316561013460159302 0.0369388014078140259 0.00369187002070248127 100
0.314565986394882202 0.0351044014096260071 0.00442461017519235611 100
0.314572989940643311 0.0337602011859416962 0.00444016000255942345 100
0.314579993486404419 0.0324168987572193146 0.00445519993081688881 100
0.313585996627807617 0.0308659002184867859 0.00482764001935720444 100
0.314592987298965454 0.0297328997403383255 0.00448373006656765938 100
0.314599990844726562 0.0283921994268894196 0.00449721002951264381 100
0.314606994390487671 0.0270521994680166245 0.00451018009334802628 100
0.315614998340606689 0.0258855000138282776 0.00416507991030812263 100
0.315622001886367798 0.0245379991829395294 0.00417710002511739731 100
0.315629005432128906 0.0231910999864339828 0.00418862001970410347 100
0.316637009382247925 0.0219905003905296326 0.00384230003692209721 100
0.316644012928009033 0.0206358004361391068 0.00385286007076501846 100
0.31464800238609314 0.0190264005213975906 0.0045773000456392765 100
0.314655005931854248 0.0176906995475292206 0.0045867101289331913 100
0.314662009477615356 0.0163554996252059937 0.00459562009200453758 100
0.313666999340057373 0.0149199999868869781 0.00496103009209036827 100
0.31267198920249939 0.0135027002543210983 0.00532585009932518005 100
0.312678992748260498 0.0121866995468735695 0.00533314980566501617 100
0.311684012413024902 0.0107969995588064194 0.00569680985063314438 100
0.311690986156463623 0.00949043035507202148 0.00570307997986674309 100
0.311697989702224731 0.00818413961678743362 0.00570884020999073982 100
0.31270599365234375 0.00692518986761569977 0.00535736978054046631 100
0.312712997198104858 0.00561035005375742912 0.00536218984052538872 100
0.312718987464904785 0.00429566018283367157 0.00536652002483606339 100
0.312725991010665894 0.00298106996342539787 0.00537035008892416954 100
0.313735008239746094 0.00167788995895534754 0.00501705007627606392 100
0.313742011785507202 0.000354459014488384128 0.00501991994678974152 100
0.313748985528945923 -0.000968972977716475725 0.00502227991819381714 100
0.313755005598068237 -0.00229245005175471306 0.00502415979281067848 100
0.313762009143829346 -0.00361599004827439785 0.00502554001286625862 100
0.313769012689590454 -0.00493963994085788727 0.00502642011269927025 100
0.314778000116348267 -0.00630575977265834808 0.0046702302061021328 100
0.313782989978790283 -0.00758741982281208038 0.0050266999751329422 100
0.314792007207870483 -0.00897184014320373535 0.00466950004920363426 100
0.314799010753631592 -0.0103051997721195221 0.00466840015724301338 100
0.313802987337112427 -0.0115607995539903641 0.00502339005470275879 100
0.313809990882873535 -0.0128859002143144608 0.00502128014340996742 100
0.313816994428634644 -0.014211299829185009 0.00501869991421699524 100
0.313823997974395752 -0.0155371995642781258 0.00501559022814035416 100
0.313829988241195679 -0.0168634001165628433 0.00501199997961521149 100
0.314839988946914673 -0.0183131005614995956 0.00465118978172540665 100
0.314846992492675781 -0.0196493007242679596 0.00464656995609402657 100
0.31485399603843689 -0.0209861006587743759 0.00464144023135304451 100
0.317869007587432861 -0.0227729007601737976 0.00356538989581167698 100
0.318549007177352905 0.0415913015604019165 0.00152625003829598427 100
0.313551992177963257 0.0388922989368438721 0.00338317989371716976 100
0.311558008193969727 0.0370462015271186829 0.00413569994270801544 100
0.313565999269485474 0.0362159982323646545 0.00341740995645523071 100
0.312572002410888672 0.0346436984837055206 0.00380107993260025978 100
0.31157800555229187 0.0330903008580207825 0.00418398994952440262 100
0.311583995819091797 0.0317736007273197174 0.00419904012233018875 100
0.312591999769210815 0.0306662991642951965 0.00384653010405600071 100
0.311598002910614014 0.0291427001357078552 0.00422756979241967201 100
0.312604993581771851 0.028018999844789505 0.00387421995401382446 100
0.311610996723175049 0.0265149008482694626 0.00425403006374835968 100
0.312619000673294067 0.0253746993839740753 0.00389983993954956532 100
0.312626004219055176 0.0240535996854305267 0.00391185004264116287 100
0.312631994485855103 0.022733200341463089 0.00392337003722786903 100
0.313639998435974121 0.0215590000152587891 0.0035679300781339407 100
0.312646001577377319 0.0200941003859043121 0.00394483981654047966 100
0.312653005123138428 0.0187752991914749146 0.00395481009036302567 100
0.311657994985580444 0.0173384007066488266 0.00433050002902746201 100
0.311664998531341553 0.01602960005402565 0.00433938996866345406 100
0.311670988798141479 0.0147211998701095581 0.00434776023030281067 100
0.311677992343902588 0.0134132001549005508 0.00435562990605831146 100
0.311684995889663696 0.0121055999770760536 0.00436299014836549759 100
0.311690986156463623 0.0107982996851205826 0.00436986004933714867 100
0.311697989702224731 0.00949127040803432465 0.004376209806650877 100
0.31170499324798584 0.00818450003862380981 0.0043820701539516449 100
0.311711996793746948 0.00687792990356683731 0.00438740989193320274 100
0.311717987060546875 0.00557155022397637367 0.00439226021990180016 100
0.311724990606307983 0.00426529999822378159 0.00439660018309950829 100
0.311731994152069092 0.00295914988964796066 0.0044004400260746479 100
0.311738014221191406 0.0016530799912288785 0.00440378021448850632 100
0.311744987964630127 0.000347043009242042899 0.00440661981701850891 100
0.311751991510391235 -0.0009590000263415277 0.00440894998610019684 100
0.31175801157951355 -0.00226508011110126972 0.00441078003495931625 100
0.311764985322952271 -0.00357123999856412411 0.00441210996359586716 100
0.311771988868713379 -0.004877499770373106 0.00441293977200984955 100
0.311778992414474487 -0.00618391018360853195 0.00441326014697551727 100
0.311785012483596802 -0.00749049009755253792 0.00441309018060564995 100
0.311791986227035522 -0.00879728980362415314 0.00441240007057785988 100
0.311798989772796631 -0.0101043004542589188 0.00441122008487582207 100
0.311805993318557739 -0.0114117003977298737 0.00440951995551586151 100
0.311812013387680054 -0.0127194002270698547 0.00440734997391700745 100
0.311818987131118774 -0.014027399942278862 0.0044046398252248764 100
0.311825990676879883 -0.0153358001261949539 0.00440145004540681839 100
0.312835007905960083 -0.0167586002498865128 0.00403197016566991806 100
0.312842011451721191 -0.0180769003927707672 0.00402774009853601456 100
0.312848985195159912 -0.0193956997245550156 0.00402298988774418831 100
0.312855988740921021 -0.020715000107884407 0.00401772977784276009 100
0.313865005970001221 -0.0221848003566265106 0.00364605989307165146 100
0.317883998155593872 -0.0241499003022909164 0.00217593996785581112 100
0.316554993391036987 0.0410608984529972076 0.000882307009305804968 100
0.313560009002685547 0.0389049015939235687 0.00203142990358173847 100
0.312566012144088745 0.0373117998242378235 0.0024258799385279417 100
0.313573002815246582 0.0362274013459682465 0.00206639990210533142 100
0.31157800555229187 0.0344187989830970764 0.00283599994145333767 100
0.311585009098052979 0.0331006012856960297 0.00285189994610846043 100
0.311592012643814087 0.0317833013832569122 0.00286726001650094986 100
0.311598002910614014 0.0304668992757797241 0.00288209994323551655 100
0.311605006456375122 0.0291512999683618546 0.00289639993570744991 100
0.31161201000213623 0.0278364997357130051 0.00291017000563442707 100
0.311618000268936157 0.0265225004404783249 0.00292339990846812725 100
0.311625003814697266 0.0252091996371746063 0.00293610990047454834 100
0.311632007360458374 0.0238965991884469986 0.00294828996993601322 100
0.311637997627258301 0.0225846003741025925 0.00295994989573955536 100
0.311645001173019409 0.0212731994688510895 0.00297107989899814129 100
0.311652004718780518 0.0199624001979827881 0.00298168999142944813 100
0.311659008264541626 0.0186521001160144806 0.00299176992848515511 100
0.310663998126983643 0.017223600298166275 0.00337667996063828468 100
0.311672002077102661 0.016033099964261055 0.00301038008183240891 100
0.310676991939544678 0.0146233001723885536 0.00339411990717053413 100
0.310683995485305786 0.0133237997069954872 0.00340206990949809551 100
0.310689985752105713 0.0120246000587940216 0.00340951001271605492 100
0.309695005416870117 0.010651799850165844 0.00379148009233176708 100
0.309702008962631226 0.00936217978596687317 0.0037978501059114933 100
0.309709012508392334 0.00807280000299215317 0.00380370998755097389 100
0.309715002775192261 0.00678362976759672165 0.00380903994664549828 100
0.310723990201950073 0.00553280021995306015 0.00343898008577525616 100
0.310730010271072388 0.00423499010503292084 0.00344334007240831852 100
0.310737013816833496 0.00293728988617658615 0.00344717991538345814 100
0.310743987560272217 0.00163964997045695782 0.00345051009207963943 100
0.310750007629394531 0.000342054001521319151 0.00345333991572260857 100
0.31075701117515564 -0.000955543015152215958 0.00345564004965126514 100
0.310764014720916748 -0.00225318991579115391 0.00345745007507503033 100
0.309767991304397583 -0.00352641008794307709 0.00383350998163223267 100
0.309774994850158691 -0.00481529021635651588 0.00383427995257079601 100
0.309780985116958618 -0.00610429979860782623 0.00383454002439975739 100
0.309787988662719727 -0.00739349005743861198 0.00383429997600615025 100
0.309794992208480835 -0.00868288986384868622 0.00383355002850294113 100
0.310804009437561035 -0.0100418003275990486 0.00345750991255044937 100
0.310809999704360962 -0.011340700089931488 0.00345572992227971554 100
0.309814989566802979 -0.0125527000054717064 0.00382824009284377098 100
0.310824006795883179 -0.0139394998550415039 0.00345062999986112118 100
0.310831010341644287 -0.0152395004406571388 0.00344731006771326065 100
0.310837000608444214 -0.0165398009121417999 0.00344346999190747738 100
0.311847001314163208 -0.017963699996471405 0.00306422007270157337 100
0.311852991580963135 -0.019274100661277771 0.00305930990725755692 100
0.311859995126724243 -0.0205848999321460724 0.00305390008725225925 100
0.312869995832443237 -0.0220464002341032028 0.00267293001525104046 100
0.396636992692947388 0.0150129999965429306 0.0107485000044107437 100
0.396636992692947388 0.0150129999965429306 0.0107485000044107437 100
0.396636992692947388 0.0150129999965429306 0.0107485000044107437 100
0.396636992692947388 0.0150129999965429306 0.0107485000044107437 100
0.396636992692947388 0.0150129999965429306 0.0107485000044107437 100
0.396636992692947388 0.0150129999965429306 0.0107485000044107437 100
0.396636992692947388 0.0150129999965429306 0.0107485000044107437 100
0.396636992692947388 0.0150129999965429306 0.0107485000044107437 100
0.396636992692947388 0.0150129999965429306 0.0107485000044107437 100
0.396636992692947388 0.0150129999965429306 0.0107485000044107437 100
0.396636992692947388 0.0150129999965429306 0.0107485000044107437 100
0.396636992692947388 0.0150129999965429306 0.0107485000044107437 100
0.396636992692947388 0.0150129999965429306 0.0107485000044107437 100
0.396636992692947388 0.0150129999965429306 0.0107485000044107437 100
0.396636992692947388 0.0150129999965429306 0.0107485000044107437 100
0.396636992692947388 0.0150129999965429306 0.0107485000044107437 100
0.396636992692947388 0.0150129999965429306 0.0107485000044107437 100
0.396636992692947388 0.0150129999965429306 0.0107485000044107437 100
0.396636992692947388 0.0150129999965429306 0.0107485000044107437 100
0.396636992692947388 0.0150129999965429306 0.0107485000044107437 100
0.396636992692947388 0.0150129999965429306 0.0107485000044107437 100
0.396636992692947388 0.0150129999965429306 0.0107485000044107437 100
0.396636992692947388 0.0150129999965429306 0.0107485000044107437 100
0.396636992692947388 0.0150129999965429306 0.0107485000044107437 100
0.396636992692947388 0.0150129999965429306 0.0107485000044107437 100
0.396636992692947388 0.0150129999965429306 0.0107485000044107437 100
0.396636992692947388 0.0150129999965429306 0.0107485000044107437 100
0.396636992692947388 0.0150129999965429306 0.0107485000044107437 100
0.396636992692947388 0.0150129999965429306 0.0107485000044107437 100
0.396636992692947388 0.0150129999965429306 0.0107485000044107437 100
0.396636992692947388 0.0150129999965429306 0.0107485000044107437 100
0.396636992692947388 0.0150129999965429306 0.0107485000044107437 100
0.396636992692947388 0.0150129999965429306 0.0107485000044107437 100
0.396636992692947388 0.0150129999965429306 0.0107485000044107437 100
0.396636992692947388 0.0150129999965429306 0.0107485000044107437 100
0.396636992692947388 0.0150129999965429306 0.0107485000044107437 100
0.396636992692947388 0.0150129999965429306 0.0107485000044107437 100
0.396636992692947388 0.0150129999965429306 0.0107485000044107437 100
0.396636992692947388 0.0150129999965429306 0.0107485000044107437 100
0.396636992692947388 0.0150129999965429306 0.0107485000044107437 100
0.396636992692947388 0.0150129999965429306 0.0107485000044107437 100
0.396636992692947388 0.0150129999965429306 0.0107485000044107437 100
0.396636992692947388 0.0150129999965429306 0.0107485000044107437 100
0.396636992692947388 0.0150129999965429306 0.0107485000044107437 100
0.396636992692947388 0.0150129999965429306 0.0107485000044107437 100
0.396636992692947388 0.0150129999965429306 0.0107485000044107437 100
0.396636992692947388 0.0150129999965429306 0.0107485000044107437 100
0.396636992692947388 0.0150129999965429306 0.0107485000044107437 100
0.396636992692947388 0.0150129999965429306 0.0107485000044107437 100
0.396636992692947388 0.0150129999965429306 0.0107485000044107437 100
0.396636992692947388 0.0150129999965429306 0.0107485000044107437 100
0.396636992692947388 0.0150129999965429306 0.0107485000044107437 100
0.396636992692947388 0.0150129999965429306 0.0107485000044107437 100
0.396636992692947388 0.0150129999965429306 0.0107485000044107437 100
0.396636992692947388 0.0150129999965429306 0.0107485000044107437 100
0.396636992692947388 0.0150129999965429306 0.0107485000044107437 100
0.396636992692947388 0.0150129999965429306 0.0107485000044107437 100
0.396636992692947388 0.0150129999965429306 0.0107485000044107437 100
0.396636992692947388 0.0150129999965429306 0.0107485000044107437 100
0.396636992692947388 0.0150129999965429306 0.0107485000044107437 100
0.396636992692947388 0.0150129999965429306 0.0107485000044107437 100
0.396636992692947388 0.0150129999965429306 0.0107485000044107437 100
0.396636992692947388 0.0150129999965429306 0.0107485000044107437 100
0.396636992692947388 0.0150129999965429306 0.0107485000044107437 100
0.396636992692947388 0.0150129999965429306 0.0107485000044107437 100
0.396636992692947388 0.0150129999965429306 0.0107485000044107437 100
0.396636992692947388 0.0150129999965429306 0.0107485000044107437 100
0.396636992692947388 0.0150129999965429306 0.0107485000044107437 100
0.396636992692947388 0.0150129999965429306 0.0107485000044107437 100
0.396636992692947388 0.0150129999965429306 0.0107485000044107437 100
0.396636992692947388 0.0150129999965429306 0.0107485000044107437 100
0.396636992692947388 0.0150129999965429306 0.0107485000044107437 100
0.396636992692947388 0.0150129999965429306 0.0107485000044107437 100
0.396636992692947388 0.0150129999965429306 0.0107485000044107437 100
0.396636992692947388 0.0150129999965429306 0.0107485000044107437 100
0.396636992692947388 0.0150129999965429306 0.0107485000044107437 100
0.396636992692947388 0.0150129999965429306 0.0107485000044107437 100
0.396636992692947388 0.0150129999965429306 0.0107485000044107437 100
0.396636992692947388 0.0150129999965429306 0.0107485000044107437 100
0.396636992692947388 0.0150129999965429306 0.0107485000044107437 100
0.396636992692947388 0.0150129999965429306 0.0107485000044107437 100
0.396636992692947388 0.0150129999965429306 0.0107485000044107437 100
0.396636992692947388 0.0150129999965429306 0.0107485000044107437 100
0.396636992692947388 0.0150129999965429306 0.0107485000044107437 100
0.396636992692947388 0.0150129999965429306 0.0107485000044107437 100
0.396636992692947388 0.0150129999965429306 0.0107485000044107437 100
0.396636992692947388 0.0150129999965429306 0.0107485000044107437 100
0.396636992692947388 0.0150129999965429306 0.0107485000044107437 100
0.396636992692947388 0.0150129999965429306 0.0107485000044107437 100
0.396636992692947388 0.0150129999965429306 0.0107485000044107437 100
0.396636992692947388 0.0150129999965429306 0.0107485000044107437 100
0.396636992692947388 0.0150129999965429306 0.0107485000044107437 100
0.396636992692947388 0.0150129999965429306 0.0107485000044107437 100
0.396636992692947388 0.0150129999965429306 0.0107485000044107437 100
0.396636992692947388 0.0150129999965429306 0.0107485000044107437 100
0.396636992692947388 0.0150129999965429306 0.0107485000044107437 100
0.396636992692947388 0.0150129999965429306 0.0107485000044107437 100
0.396636992692947388 0.0150129999965429306 0.0107485000044107437 100
0.396636992692947388 0.0150129999965429306 0.0107485000044107437 100
0.396636992692947388 0.0150129999965429306 0.0107485000044107437 100
0.396636992692947388 0.0150129999965429306 0.0107485000044107437 100
0.396636992692947388 0.0150129999965429306 0.0107485000044107437 100
0.396636992692947388 0.0150129999965429306 0.0107485000044107437 100
0.396636992692947388 0.0150129999965429306 0.0107485000044107437 100
0.396636992692947388 0.0150129999965429306 0.0107485000044107437 100
0.396636992692947388 0.0150129999965429306 0.0107485000044107437 100
0.396636992692947388 0.0150129999965429306 0.0107485000044107437 100
0.396636992692947388 0.0150129999965429306 0.0107485000044107437 100
0.396636992692947388 0.0150129999965429306 0.0107485000044107437 100
0.396636992692947388 0.0150129999965429306 0.0107485000044107437 100
0.396636992692947388 0.0150129999965429306 0.0107485000044107437 100
0.396636992692947388 0.0150129999965429306 0.0107485000044107437 100
0.396636992692947388 0.0150129999965429306 0.0107485000044107437 100
0.396636992692947388 0.0150129999965429306 0.0107485000044107437 100
0.396636992692947388 0.0150129999965429306 0.0107485000044107437 100
0.396636992692947388 0.0150129999965429306 0.0107485000044107437 100
0.396636992692947388 0.0150129999965429306 0.0107485000044107437 100
0.396636992692947388 0.0150129999965429306 0.0107485000044107437 100
0.396636992692947388 0.0150129999965429306 0.0107485000044107437 100
0.396636992692947388 0.0150129999965429306 0.0107485000044107437 100
0.396636992692947388 0.0150129999965429306 0.0107485000044107437 100
0.396636992692947388 0.0150129999965429306 0.0107485000044107437 100
0.396636992692947388 0.0150129999965429306 0.0107485000044107437 100
0.396636992692947388 0.0150129999965429306 0.0107485000044107437 100
0.396636992692947388 0.0150129999965429306 0.0107485000044107437 100
0.396636992692947388 0.0150129999965429306 0.0107485000044107437 100
0.396636992692947388 0.0150129999965429306 0.0107485000044107437 100
0.396636992692947388 0.0150129999965429306 0.0107485000044107437 100
0.396636992692947388 0.0150129999965429306 0.0107485000044107437 100
0.396636992692947388 0.0150129999965429306 0.0107485000044107437 100
0.396636992692947388 0.0150129999965429306 0.0107485000044107437 100
0.396636992692947388 0.0150129999965429306 0.0107485000044107437 100
0.396636992692947388 0.0150129999965429306 0.0107485000044107437 100
0.396636992692947388 0.0150129999965429306 0.0107485000044107437 100
0.396636992692947388 0.0150129999965429306 0.0107485000044107437 100
0.396636992692947388 0.0150129999965429306 0.0107485000044107437 100
0.396636992692947388 0.0150129999965429306 0.0107485000044107437 100
0.396636992692947388 0.0150129999965429306 0.0107485000044107437 100
0.396636992692947388 0.0150129999965429306 0.0107485000044107437 100
0.396636992692947388 0.0150129999965429306 0.0107485000044107437 100
0.396636992692947388 0.0150129999965429306 0.0107485000044107437 100
0.396636992692947388 0.0150129999965429306 0.0107485000044107437 100
0.396636992692947388 0.0150129999965429306 0.0107485000044107437 100
0.396636992692947388 0.0150129999965429306 0.0107485000044107437 100
0.396636992692947388 0.0150129999965429306 0.0107485000044107437 100
0.396636992692947388 0.0150129999965429306 0.0107485000044107437 100
0.396636992692947388 0.0150129999965429306 0.0107485000044107437 100
0.396636992692947388 0.0150129999965429306 0.0107485000044107437 100
0.396636992692947388 0.0150129999965429306 0.0107485000044107437 100
0.396636992692947388 0.0150129999965429306 0.0107485000044107437 100
0.396636992692947388 0.0150129999965429306 0.0107485000044107437 100
0.396636992692947388 0.0150129999965429306 0.0107485000044107437 100
0.396636992692947388 0.0150129999965429306 0.0107485000044107437 100
0.396636992692947388 0.0150129999965429306 0.0107485000044107437 100
0.396636992692947388 0.0150129999965429306 0.0107485000044107437 100
0.396636992692947388 0.0150129999965429306 0.0107485000044107437 100
0.396636992692947388 0.0150129999965429306 0.0107485000044107437 100
0.396636992692947388 0.0150129999965429306 0.0107485000044107437 100
0.396636992692947388 0.0150129999965429306 0.0107485000044107437 100
0.396636992692947388 0.0150129999965429306 0.0107485000044107437 100
0.396636992692947388 0.0150129999965429306 0.0107485000044107437 100
0.396636992692947388 0.0150129999965429306 0.0107485000044107437 100
0.396636992692947388 0.0150129999965429306 0.0107485000044107437 100
0.396636992692947388 0.0150129999965429306 0.0107485000044107437 100
0.396636992692947388 0.0150129999965429306 0.0107485000044107437 100
0.396636992692947388 0.0150129999965429306 0.0107485000044107437 100
0.396636992692947388 0.0150129999965429306 0.0107485000044107437 100
0.396636992692947388 0.0150129999965429306 0.0107485000044107437 100
0.396636992692947388 0.0150129999965429306 0.0107485000044107437 100
0.396636992692947388 0.0150129999965429306 0.0107485000044107437 100
0.396636992692947388 0.0150129999965429306 0.0107485000044107437 100
0.396636992692947388 0.0150129999965429306 0.0107485000044107437 100
0.396636992692947388 0.0150129999965429306 0.0107485000044107437 100
0.396636992692947388 0.0150129999965429306 0.0107485000044107437 100
0.396636992692947388 0.0150129999965429306 0.0107485000044107437 100
0.396636992692947388 0.0150129999965429306 0.0107485000044107437 100
0.396636992692947388 0.0150129999965429306 0.0107485000044107437 100
0.396636992692947388 0.0150129999965429306 0.0107485000044107437 100
0.396636992692947388 0.0150129999965429306 0.0107485000044107437 100
0.396636992692947388 0.0150129999965429306 0.0107485000044107437 100
0.396636992692947388 0.0150129999965429306 0.0107485000044107437 100
0.396636992692947388 0.0150129999965429306 0.0107485000044107437 100
0.396636992692947388 0.0150129999965429306 0.0107485000044107437 100
0.396636992692947388 0.0150129999965429306 0.0107485000044107437 100
0.396636992692947388 0.0150129999965429306 0.0107485000044107437 100
0.396636992692947388 0.0150129999965429306 0.0107485000044107437 100
0.396636992692947388 0.0150129999965429306 0.0107485000044107437 100
0.396636992692947388 0.0150129999965429306 0.0107485000044107437 100
0.396636992692947388 0.0150129999965429306 0.0107485000044107437 100
0.396636992692947388 0.0150129999965429306 0.0107485000044107437 100
0.396636992692947388 0.0150129999965429306 0.0107485000044107437 100
0.396636992692947388 0.0150129999965429306 0.0107485000044107437 100
0.396636992692947388 0.0150129999965429306 0.0107485000044107437 100
0.396636992692947388 0.0150129999965429306 0.0107485000044107437 100
0.396636992692947388 0.0150129999965429306 0.0107485000044107437 100
0.396636992692947388 0.0150129999965429306 0.0107485000044107437 100
0.396636992692947388 0.0150129999965429306 0.0107485000044107437 100
0.396636992692947388 0.0150129999965429306 0.0107485000044107437 100
0.396636992692947388 0.0150129999965429306 0.0107485000044107437 100
0.396636992692947388 0.0150129999965429306 0.0107485000044107437 100
0.396636992692947388 0.0150129999965429306 0.0107485000044107437 100
0.396636992692947388 0.0150129999965429306 0.0107485000044107437 100
0.396636992692947388 0.0150129999965429306 0.0107485000044107437 100
0.396636992692947388 0.0150129999965429306 0.0107485000044107437 100
0.396636992692947388 0.0150129999965429306 0.0107485000044107437 100
0.396636992692947388 0.0150129999965429306 0.0107485000044107437 100
0.396636992692947388 0.0150129999965429306 0.0107485000044107437 100
0.396636992692947388 0.0150129999965429306 0.0107485000044107437 100
0.396636992692947388 0.0150129999965429306 0.0107485000044107437 100
0.396636992692947388 0.0150129999965429306 0.0107485000044107437 100
0.396636992692947388 0.0150129999965429306 0.0107485000044107437 100
0.396636992692947388 0.0150129999965429306 0.0107485000044107437 100
0.396636992692947388 0.0150129999965429306 0.0107485000044107437 100
0.396636992692947388 0.0150129999965429306 0.0107485000044107437 100
0.396636992692947388 0.0150129999965429306 0.0107485000044107437 100
0.396636992692947388 0.0150129999965429306 0.0107485000044107437 100
0.396636992692947388 0.0150129999965429306 0.0107485000044107437 100
0.396636992692947388 0.0150129999965429306 0.0107485000044107437 100
0.396636992692947388 0.0150129999965429306 0.0107485000044107437 100
0.396636992692947388 0.0150129999965429306 0.0107485000044107437 100
0.396636992692947388 0.0150129999965429306 0.0107485000044107437 100
0.396636992692947388 0.0150129999965429306 0.0107485000044107437 100
0.396636992692947388 0.0150129999965429306 0.0107485000044107437 100
0.396636992692947388 0.0150129999965429306 0.0107485000044107437 100
0.396636992692947388 0.0150129999965429306 0.0107485000044107437 100
0.396636992692947388 0.0150129999965429306 0.0107485000044107437 100
0.396636992692947388 0.0150129999965429306 0.0107485000044107437 100
0.396636992692947388 0.0150129999965429306 0.0107485000044107437 100
0.396636992692947388 0.0150129999965429306 0.0107485000044107437 100
0.396636992692947388 0.0150129999965429306 0.0107485000044107437 100
0.396636992692947388 0.0150129999965429306 0.0107485000044107437 100
0.396636992692947388 0.0150129999965429306 0.0107485000044107437 100
0.396636992692947388 0.0150129999965429306 0.0107485000044107437 100
0.396636992692947388 0.0150129999965429306 0.0107485000044107437 100
0.396636992692947388 0.0150129999965429306 0.0107485000044107437 100
0.396636992692947388 0.0150129999965429306 0.0107485000044107437 100
0.396636992692947388 0.0150129999965429306 0.0107485000044107437 100
0.396636992692947388 0.0150129999965429306 0.0107485000044107437 100
0.396636992692947388 0.0150129999965429306 0.0107485000044107437 100
0.396636992692947388 0.0150129999965429306 0.0107485000044107437 100
0.396636992692947388 0.0150129999965429306 0.0107485000044107437 100
0.396636992692947388 0.0150129999965429306 0.0107485000044107437 100
0.396636992692947388 0.0150129999965429306 0.0107485000044107437 100
0.396636992692947388 0.0150129999965429306 0.0107485000044107437 100
0.396636992692947388 0.0150129999965429306 0.0107485000044107437 100
0.396636992692947388 0.0150129999965429306 0.0107485000044107437 100
0.396636992692947388 0.0150129999965429306 0.0107485000044107437 100
0.396636992692947388 0.0150129999965429306 0.0107485000044107437 100
0.396636992692947388 0.0150129999965429306 0.0107485000044107437 100
0.396636992692947388 0.0150129999965429306 0.0107485000044107437 100
0.396636992692947388 0.0150129999965429306 0.0107485000044107437 100
0.396636992692947388 0.0150129999965429306 0.0107485000044107437 100
0.396636992692947388 0.0150129999965429306 0.0107485000044107437 100
0.396636992692947388 0.0150129999965429306 0.0107485000044107437 100
0.396636992692947388 0.0150129999965429306 0.0107485000044107437 100
0.396636992692947388 0.0150129999965429306 0.0107485000044107437 100
0.396636992692947388 0.0150129999965429306 0.0107485000044107437 100
0.396636992692947388 0.0150129999965429306 0.0107485000044107437 100
0.396636992692947388 0.0150129999965429306 0.0107485000044107437 100
0.396636992692947388 0.0150129999965429306 0.0107485000044107437 100
0.396636992692947388 0.0150129999965429306 0.0107485000044107437 100
0.396636992692947388 0.0150129999965429306 0.0107485000044107437 100
0.396636992692947388 0.0150129999965429306 0.0107485000044107437 100
0.396636992692947388 0.0150129999965429306 0.0107485000044107437 100
0.396636992692947388 0.0150129999965429306 0.0107485000044107437 100
0.396636992692947388 0.0150129999965429306 0.0107485000044107437 100
0.396636992692947388 0.0150129999965429306 0.0107485000044107437 100
0.396636992692947388 0.0150129999965429306 0.0107485000044107437 100
0.396636992692947388 0.0150129999965429306 0.0107485000044107437 100
0.396636992692947388 0.0150129999965429306 0.0107485000044107437 100
0.396636992692947388 0.0150129999965429306 0.0107485000044107437 100
0.396636992692947388 0.0150129999965429306 0.0107485000044107437 100
0.396636992692947388 0.0150129999965429306 0.0107485000044107437 100
0.396636992692947388 0.0150129999965429306 0.0107485000044107437 100
0.396636992692947388 0.0150129999965429306 0.0107485000044107437 100
0.396636992692947388 0.0150129999965429306 0.0107485000044107437 100
0.396636992692947388 0.0150129999965429306 0.0107485000044107437 100
0.396636992692947388 0.0150129999965429306 0.0107485000044107437 100
0.396636992692947388 0.0150129999965429306 0.0107485000044107437 100
0.396636992692947388 0.0150129999965429306 0.0107485000044107437 100
0.396636992692947388 0.0150129999965429306 0.0107485000044107437 100
0.396636992692947388 0.0150129999965429306 0.0107485000044107437 100
0.396636992692947388 0.0150129999965429306 0.0107485000044107437 100
0.396636992692947388 0.0150129999965429306 0.0107485000044107437 100
0.396636992692947388 0.0150129999965429306 0.0107485000044107437 100
0.396636992692947388 0.0150129999965429306 0.0107485000044107437 100
0.396636992692947388 0.0150129999965429306 0.0107485000044107437 100
0.396636992692947388 0.0150129999965429306 0.0107485000044107437 100
0.396636992692947388 0.0150129999965429306 0.0107485000044107437 100
0.396636992692947388 0.0150129999965429306 0.0107485000044107437 100
0.396636992692947388 0.0150129999965429306 0.0107485000044107437 100
0.396636992692947388 0.0150129999965429306 0.0107485000044107437 100
0.396636992692947388 0.0150129999965429306 0.0107485000044107437 100
0.396636992692947388 0.0150129999965429306 0.0107485000044107437 100
0.396636992692947388 0.0150129999965429306 0.0107485000044107437 100
0.396636992692947388 0.0150129999965429306 0.0107485000044107437 100
0.396636992692947388 0.0150129999965429306 0.0107485000044107437 100
0.396636992692947388 0.0150129999965429306 0.0107485000044107437 100
0.396636992692947388 0.0150129999965429306 0.0107485000044107437 100
0.396636992692947388 0.0150129999965429306 0.0107485000044107437 100
0.396636992692947388 0.0150129999965429306 0.0107485000044107437 100
0.396636992692947388 0.0150129999965429306 0.0107485000044107437 100
0.396636992692947388 0.0150129999965429306 0.0107485000044107437 100
0.396636992692947388 0.0150129999965429306 0.0107485000044107437 100
0.396636992692947388 0.0150129999965429306 0.0107485000044107437 100
0.396636992692947388 0.0150129999965429306 0.0107485000044107437 100
0.396636992692947388 0.0150129999965429306 0.0107485000044107437 100
0.396636992692947388 0.0150129999965429306 0.0107485000044107437 100
0.396636992692947388 0.0150129999965429306 0.0107485000044107437 100
0.396636992692947388 0.0150129999965429306 0.0107485000044107437 100
0.396636992692947388 0.0150129999965429306 0.0107485000044107437 100
0.396636992692947388 0.0150129999965429306 0.0107485000044107437 100
0.396636992692947388 0.0150129999965429306 0.0107485000044107437 100
0.396636992692947388 0.0150129999965429306 0.0107485000044107437 100
0.396636992692947388 0.0150129999965429306 0.0107485000044107437 100
0.396636992692947388 0.0150129999965429306 0.0107485000044107437 100
0.396636992692947388 0.0150129999965429306 0.0107485000044107437 100
0.396636992692947388 0.0150129999965429306 0.0107485000044107437 100
0.396636992692947388 0.0150129999965429306 0.0107485000044107437 100
0.396636992692947388 0.0150129999965429306 0.0107485000044107437 100
0.396636992692947388 0.0150129999965429306 0.0107485000044107437 100
0.396636992692947388 0.0150129999965429306 0.0107485000044107437 100
0.396636992692947388 0.0150129999965429306 0.0107485000044107437 100
0.396636992692947388 0.0150129999965429306 0.0107485000044107437 100
0.396636992692947388 0.0150129999965429306 0.0107485000044107437 100
0.396636992692947388 0.0150129999965429306 0.0107485000044107437 100
0.396636992692947388 0.0150129999965429306 0.0107485000044107437 100
0.396636992692947388 0.0150129999965429306 0.0107485000044107437 100
0.396636992692947388 0.0150129999965429306 0.0107485000044107437 100
0.396636992692947388 0.0150129999965429306 0.0107485000044107437 100
0.396636992692947388 0.0150129999965429306 0.0107485000044107437 100
0.396636992692947388 0.0150129999965429306 0.0107485000044107437 100
0.396636992692947388 0.0150129999965429306 0.0107485000044107437 100
0.396636992692947388 0.0150129999965429306 0.0107485000044107437 100
0.396636992692947388 0.0150129999965429306 0.0107485000044107437 100
0.396636992692947388 0.0150129999965429306 0.0107485000044107437 100
0.396636992692947388 0.0150129999965429306 0.0107485000044107437 100
0.396636992692947388 0.0150129999965429306 0.0107485000044107437 100
0.396636992692947388 0.0150129999965429306 0.0107485000044107437 100
0.396636992692947388 0.0150129999965429306 0.0107485000044107437 100
0.396636992692947388 0.0150129999965429306 0.0107485000044107437 100
0.396636992692947388 0.0150129999965429306 0.0107485000044107437 100
0.396636992692947388 0.0150129999965429306 0.0107485000044107437 100
0.396636992692947388 0.0150129999965429306 0.0107485000044107437 100
0.396636992692947388 0.0150129999965429306 0.0107485000044107437 100
0.396636992692947388 0.0150129999965429306 0.0107485000044107437 100
0.396636992692947388 0.0150129999965429306 0.0107485000044107437 100
0.396636992692947388 0.0150129999965429306 0.0107485000044107437 100
0.396636992692947388 0.0150129999965429306 0.0107485000044107437 100
0.396636992692947388 0.0150129999965429306 0.0107485000044107437 100
0.396636992692947388 0.0150129999965429306 0.0107485000044107437 100
0.396636992692947388 0.0150129999965429306 0.0107485000044107437 100
0.396636992692947388 0.0150129999965429306 0.0107485000044107437 100
0.396636992692947388 0.0150129999965429306 0.0107485000044107437 100
0.396636992692947388 0.0150129999965429306 0.0107485000044107437 100
0.396636992692947388 0.0150129999965429306 0.0107485000044107437 100
0.396636992692947388 0.0150129999965429306 0.0107485000044107437 100
0.396636992692947388 0.0150129999965429306 0.0107485000044107437 100
0.396636992692947388 0.0150129999965429306 0.0107485000044107437 100
0.396636992692947388 0.0150129999965429306 0.0107485000044107437 100
0.396636992692947388 0.0150129999965429306 0.0107485000044107437 100
0.396636992692947388 0.0150129999965429306 0.0107485000044107437 100
0.396636992692947388 0.0150129999965429306 0.0107485000044107437 100
0.396636992692947388 0.0150129999965429306 0.0107485000044107437 100
0.396636992692947388 0.0150129999965429306 0.0107485000044107437 100
0.396636992692947388 0.0150129999965429306 0.0107485000044107437 100
0.396636992692947388 0.0150129999965429306 0.0107485000044107437 100
0.396636992692947388 0.0150129999965429306 0.0107485000044107437 100
0.396636992692947388 0.0150129999965429306 0.0107485000044107437 100
0.396636992692947388 0.0150129999965429306 0.0107485000044107437 100
0.396636992692947388 0.0150129999965429306 0.0107485000044107437 100
0.396636992692947388 0.0150129999965429306 0.0107485000044107437 100
0.396636992692947388 0.0150129999965429306 0.0107485000044107437 100
0.396636992692947388 0.0150129999965429306 0.0107485000044107437 100
0.396636992692947388 0.0150129999965429306 0.0107485000044107437 100
0.396636992692947388 0.0150129999965429306 0.0107485000044107437 100
0.396636992692947388 0.0150129999965429306 0.0107485000044107437 100
0.396636992692947388 0.0150129999965429306 0.0107485000044107437 100
0.396636992692947388 0.0150129999965429306 0.0107485000044107437 100
0.396636992692947388 0.0150129999965429306 0.0107485000044107437 100
0.396636992692947388 0.0150129999965429306 0.0107485000044107437 100
0.396636992692947388 0.0150129999965429306 0.0107485000044107437 100
0.396636992692947388 0.0150129999965429306 0.0107485000044107437 100
0.396636992692947388 0.0150129999965429306 0.0107485000044107437 100
0.396636992692947388 0.0150129999965429306 0.0107485000044107437 100
0.396636992692947388 0.0150129999965429306 0.0107485000044107437 100
0.396636992692947388 0.0150129999965429306 0.0107485000044107437 100
0.396636992692947388 0.0150129999965429306 0.0107485000044107437 100
0.396636992692947388 0.0150129999965429306 0.0107485000044107437 100
0.396636992692947388 0.0150129999965429306 0.0107485000044107437 100
0.396636992692947388 0.0150129999965429306 0.0107485000044107437 100
0.396636992692947388 0.0150129999965429306 0.0107485000044107437 100
0.396636992692947388 0.0150129999965429306 0.0107485000044107437 100
0.396636992692947388 0.0150129999965429306 0.0107485000044107437 100
0.396636992692947388 0.0150129999965429306 0.0107485000044107437 100
0.396636992692947388 0.0150129999965429306 0.0107485000044107437 100
0.396636992692947388 0.0150129999965429306 0.0107485000044107437 100
0.396636992692947388 0.0150129999965429306 0.0107485000044107437 100
0.396636992692947388 0.0150129999965429306 0.0107485000044107437 100
0.396636992692947388 0.0150129999965429306 0.0107485000044107437 100
0.396636992692947388 0.0150129999965429306 0.0107485000044107437 100
0.396636992692947388 0.0150129999965429306 0.0107485000044107437 100
0.396636992692947388 0.0150129999965429306 0.0107485000044107437 100
0.396636992692947388 0.0150129999965429306 0.0107485000044107437 100
0.396636992692947388 0.0150129999965429306 0.0107485000044107437 100
0.396636992692947388 0.0150129999965429306 0.0107485000044107437 100
0.396636992692947388 0.0150129999965429306 0.0107485000044107437 100
0.396636992692947388 0.0150129999965429306 0.0107485000044107437 100
0.396636992692947388 0.0150129999965429306 0.0107485000044107437 100
0.396636992692947388 0.0150129999965429306 0.0107485000044107437 100
0.396636992692947388 0.0150129999965429306 0.0107485000044107437 100
0.396636992692947388 0.0150129999965429306 0.0107485000044107437 100
0.396636992692947388 0.0150129999965429306 0.0107485000044107437 100
0.396636992692947388 0.0150129999965429306 0.0107485000044107437 100
0.396636992692947388 0.0150129999965429306 0.0107485000044107437 100
0.396636992692947388 0.0150129999965429306 0.0107485000044107437 100
0.396636992692947388 0.0150129999965429306 0.0107485000044107437 100
0.396636992692947388 0.0150129999965429306 0.0107485000044107437 100
0.396636992692947388 0.0150129999965429306 0.0107485000044107437 100
0.396636992692947388 0.0150129999965429306 0.0107485000044107437 100
0.396636992692947388 0.0150129999965429306 0.0107485000044107437 100
0.396636992692947388 0.0150129999965429306 0.0107485000044107437 100
0.396636992692947388 0.0150129999965429306 0.0107485000044107437 100
0.396636992692947388 0.0150129999965429306 0.0107485000044107437 100
0.396636992692947388 0.0150129999965429306 0.0107485000044107437 100
0.396636992692947388 0.0150129999965429306 0.0107485000044107437 100
0.396636992692947388 0.0150129999965429306 0.0107485000044107437 100
0.396636992692947388 0.0150129999965429306 0.0107485000044107437 100
0.396636992692947388 0.0150129999965429306 0.0107485000044107437 100
0.396636992692947388 0.0150129999965429306 0.0107485000044107437 100
0.396636992692947388 0.0150129999965429306 0.0107485000044107437 100
0.396636992692947388 0.0150129999965429306 0.0107485000044107437 100
0.396636992692947388 0.0150129999965429306 0.0107485000044107437 100
0.396636992692947388 0.0150129999965429306 0.0107485000044107437 100
0.396636992692947388 0.0150129999965429306 0.0107485000044107437 100
0.396636992692947388 0.0150129999965429306 0.0107485000044107437 100
0.396636992692947388 0.0150129999965429306 0.0107485000044107437 100
0.396636992692947388 0.0150129999965429306 0.0107485000044107437 100
0.396636992692947388 0.0150129999965429306 0.0107485000044107437 100
0.396636992692947388 0.0150129999965429306 0.0107485000044107437 100
0.396636992692947388 0.0150129999965429306 0.0107485000044107437 100
0.396636992692947388 0.0150129999965429306 0.0107485000044107437 100
0.396636992692947388 0.0150129999965429306 0.0107485000044107437 100
0.396636992692947388 0.0150129999965429306 0.0107485000044107437 100
0.396636992692947388 0.0150129999965429306 0.0107485000044107437 100
0.396636992692947388 0.0150129999965429306 0.0107485000044107437 100
0.396636992692947388 0.0150129999965429306 0.0107485000044107437 100
0.396636992692947388 0.0150129999965429306 0.0107485000044107437 100
0.396636992692947388 0.0150129999965429306 0.0107485000044107437 100
0.396636992692947388 0.0150129999965429306 0.0107485000044107437 100
0.396636992692947388 0.0150129999965429306 0.0107485000044107437 100
0.396636992692947388 0.0150129999965429306 0.0107485000044107437 100
0.396636992692947388 0.0150129999965429306 0.0107485000044107437 100
0.396636992692947388 0.0150129999965429306 0.0107485000044107437 100
0.396636992692947388 0.0150129999965429306 0.0107485000044107437 100
0.396636992692947388 0.0150129999965429306 0.0107485000044107437 100
0.396636992692947388 0.0150129999965429306 0.0107485000044107437 100
0.396636992692947388 0.0150129999965429306 0.0107485000044107437 100
0.396636992692947388 0.0150129999965429306 0.0107485000044107437 100
0.396636992692947388 0.0150129999965429306 0.0107485000044107437 100
0.396636992692947388 0.0150129999965429306 0.0107485000044107437 100
0.396636992692947388 0.0150129999965429306 0.0107485000044107437 100
0.396636992692947388 0.0150129999965429306 0.0107485000044107437 100
0.396636992692947388 0.0150129999965429306 0.0107485000044107437 100
0.396636992692947388 0.0150129999965429306 0.0107485000044107437 100
0.396636992692947388 0.0150129999965429306 0.0107485000044107437 100
0.396636992692947388 0.0150129999965429306 0.0107485000044107437 100
0.396636992692947388 0.0150129999965429306 0.0107485000044107437 100
0.396636992692947388 0.0150129999965429306 0.0107485000044107437 100
0.396636992692947388 0.0150129999965429306 0.0107485000044107437 100
0.396636992692947388 0.0150129999965429306 0.0107485000044107437 100
0.396636992692947388 0.0150129999965429306 0.0107485000044107437 100
0.396636992692947388 0.0150129999965429306 0.0107485000044107437 100
0.396636992692947388 0.0150129999965429306 0.0107485000044107437 100
0.396636992692947388 0.0150129999965429306 0.0107485000044107437 100
0.396636992692947388 0.0150129999965429306 0.0107485000044107437 100
0.396636992692947388 0.0150129999965429306 0.0107485000044107437 100
0.396636992692947388 0.0150129999965429306 0.0107485000044107437 100
0.396636992692947388 0.0150129999965429306 0.0107485000044107437 100
0.396636992692947388 0.0150129999965429306 0.0107485000044107437 100
0.396636992692947388 0.0150129999965429306 0.0107485000044107437 100
0.396636992692947388 0.0150129999965429306 0.0107485000044107437 100
0.396636992692947388 0.0150129999965429306 0.0107485000044107437 100
0.396636992692947388 0.0150129999965429306 0.0107485000044107437 100
0.396636992692947388 0.0150129999965429306 0.0107485000044107437 100
0.396636992692947388 0.0150129999965429306 0.0107485000044107437 100
0.396636992692947388 0.0150129999965429306 0.0107485000044107437 100
0.396636992692947388 0.0150129999965429306 0.0107485000044107437 100
0.396636992692947388 0.0150129999965429306 0.0107485000044107437 100
0.396636992692947388 0.0150129999965429306 0.0107485000044107437 100
0.396636992692947388 0.0150129999965429306 0.0107485000044107437 100
0.396636992692947388 0.0150129999965429306 0.0107485000044107437 100
0.396636992692947388 0.0150129999965429306 0.0107485000044107437 100
0.396636992692947388 0.0150129999965429306 0.0107485000044107437 100
0.396636992692947388 0.0150129999965429306 0.0107485000044107437 100
0.396636992692947388 0.0150129999965429306 0.0107485000044107437 100
0.396636992692947388 0.0150129999965429306 0.0107485000044107437 100
0.396636992692947388 0.0150129999965429306 0.0107485000044107437 100
0.396636992692947388 0.0150129999965429306 0.0107485000044107437 100
0.396636992692947388 0.0150129999965429306 0.0107485000044107437 100
0.396636992692947388 0.0150129999965429306 0.0107485000044107437 100
0.396636992692947388 0.0150129999965429306 0.0107485000044107437 100
0.396636992692947388 0.0150129999965429306 0.0107485000044107437 100
0.396636992692947388 0.0150129999965429306 0.0107485000044107437 100
0.396636992692947388 0.0150129999965429306 0.0107485000044107437 100
0.396636992692947388 0.0150129999965429306 0.0107485000044107437 100
0.396636992692947388 0.0150129999965429306 0.0107485000044107437 100
0.396636992692947388 0.0150129999965429306 0.0107485000044107437 100
0.396636992692947388 0.0150129999965429306 0.0107485000044107437 100
0.396636992692947388 0.0150129999965429306 0.0107485000044107437 100
0.396636992692947388 0.0150129999965429306 0.0107485000044107437 100
0.396636992692947388 0.0150129999965429306 0.0107485000044107437 100
0.396636992692947388 0.0150129999965429306 0.0107485000044107437 100
0.396636992692947388 0.0150129999965429306 0.0107485000044107437 100
0.396636992692947388 0.0150129999965429306 0.0107485000044107437 100
0.396636992692947388 0.0150129999965429306 0.0107485000044107437 100
0.396636992692947388 0.0150129999965429306 0.0107485000044107437 100
0.396636992692947388 0.0150129999965429306 0.0107485000044107437 100
0.396636992692947388 0.0150129999965429306 0.0107485000044107437 100
0.396636992692947388 0.0150129999965429306 0.0107485000044107437 100
0.396636992692947388 0.0150129999965429306 0.0107485000044107437 100
0.396636992692947388 0.0150129999965429306 0.0107485000044107437 100
0.396636992692947388 0.0150129999965429306 0.0107485000044107437 100
0.396636992692947388 0.0150129999965429306 0.0107485000044107437 100
0.396636992692947388 0.0150129999965429306 0.0107485000044107437 100
0.396636992692947388 0.0150129999965429306 0.0107485000044107437 100
0.396636992692947388 0.0150129999965429306 0.0107485000044107437 100
0.396636992692947388 0.0150129999965429306 0.0107485000044107437 100
0.396636992692947388 0.0150129999965429306 0.0107485000044107437 100
0.396636992692947388 0.0150129999965429306 0.0107485000044107437 100
0.396636992692947388 0.0150129999965429306 0.0107485000044107437 100
0.396636992692947388 0.0150129999965429306 0.0107485000044107437 100
0.396636992692947388 0.0150129999965429306 0.0107485000044107437 100
0.396636992692947388 0.0150129999965429306 0.0107485000044107437 100
0.396636992692947388 0.0150129999965429306 0.0107485000044107437 100
0.396636992692947388 0.0150129999965429306 0.0107485000044107437 100
0.396636992692947388 0.0150129999965429306 0.0107485000044107437 100
0.396636992692947388 0.0150129999965429306 0.0107485000044107437 100
0.396636992692947388 0.0150129999965429306 0.0107485000044107437 100
0.396636992692947388 0.0150129999965429306 0.0107485000044107437 100
0.396636992692947388 0.0150129999965429306 0.0107485000044107437 100
0.396636992692947388 0.0150129999965429306 0.0107485000044107437 100
0.396636992692947388 0.0150129999965429306 0.0107485000044107437 100
0.396636992692947388 0.0150129999965429306 0.0107485000044107437 100
0.396636992692947388 0.0150129999965429306 0.0107485000044107437 100
0.396636992692947388 0.0150129999965429306 0.0107485000044107437 100
0.396636992692947388 0.0150129999965429306 0.0107485000044107437 100
0.396636992692947388 0.0150129999965429306 0.0107485000044107437 100
0.396636992692947388 0.0150129999965429306 0.0107485000044107437 100
0.396636992692947388 0.0150129999965429306 0.0107485000044107437 100
0.396636992692947388 0.0150129999965429306 0.0107485000044107437 100
0.396636992692947388 0.0150129999965429306 0.0107485000044107437 100
0.396636992692947388 0.0150129999965429306 0.0107485000044107437 100
0.396636992692947388 0.0150129999965429306 0.0107485000044107437 100
0.396636992692947388 0.0150129999965429306 0.0107485000044107437 100
0.396636992692947388 0.0150129999965429306 0.0107485000044107437 100
0.396636992692947388 0.0150129999965429306 0.0107485000044107437 100
0.396636992692947388 0.0150129999965429306 0.0107485000044107437 100
0.396636992692947388 0.0150129999965429306 0.0107485000044107437 100
0.396636992692947388 0.0150129999965429306 0.0107485000044107437 100
0.396636992692947388 0.0150129999965429306 0.0107485000044107437 100
0.396636992692947388 0.0150129999965429306 0.0107485000044107437 100
0.396636992692947388 0.0150129999965429306 0.0107485000044107437 100
0.396636992692947388 0.0150129999965429306 0.0107485000044107437 100
0.396636992692947388 0.0150129999965429306 0.0107485000044107437 100
0.396636992692947388 0.0150129999965429306 0.0107485000044107437 100
0.396636992692947388 0.0150129999965429306 0.0107485000044107437 100
0.396636992692947388 0.0150129999965429306 0.0107485000044107437 100
0.396636992692947388 0.0150129999965429306 0.0107485000044107437 100
0.396636992692947388 0.0150129999965429306 0.0107485000044107437 100
0.396636992692947388 0.0150129999965429306 0.0107485000044107437 100
0.396636992692947388 0.0150129999965429306 0.0107485000044107437 100
0.396636992692947388 0.0150129999965429306 0.0107485000044107437 100
0.396636992692947388 0.0150129999965429306 0.0107485000044107437 100
0.396636992692947388 0.0150129999965429306 0.0107485000044107437 100
0.396636992692947388 0.0150129999965429306 0.0107485000044107437 100
0.396636992692947388 0.0150129999965429306 0.0107485000044107437 100
0.396636992692947388 0.0150129999965429306 0.0107485000044107437 100
0.396636992692947388 0.0150129999965429306 0.0107485000044107437 100
0.396636992692947388 0.0150129999965429306 0.0107485000044107437 100
0.396636992692947388 0.0150129999965429306 0.0107485000044107437 100
0.396636992692947388 0.0150129999965429306 0.0107485000044107437 100
0.396636992692947388 0.0150129999965429306 0.0107485000044107437 100
