# .PCD v0.7 - Point Cloud Data file
FIELDS x y z intensity
SIZE 4 4 4 4
TYPE F F F F
COUNT 1 1 1 1
WIDTH 2411
HEIGHT 1
VIEWPOINT 0 0 0 1 0 0 0
POINTS 2411
DATA ascii
0.504 -0.05 0.052 0 
0.494 -0.042 0.029 0 
0.498 -0.016 -0.003 0 
0.389 -0.047 0.002 0 
0.271 0.025 0.092 0 
0.255 0.014 0.086 0 
0.281 -0.009 0.094 0 
0.383 0.062 0.003 0 
0.265 -0.008 0.093 0 
0.384 0.087 0 0 
0.295 -0.011 0.097 0 
0.388 0.076 0 0 
0.255 -0.007 0.094 0 
0.255 -0.004 0.089 0 
0.258 0.022 0.097 0 
0.266 0.023 0.092 0 
0.353 0.03 0.007 0 
0.252 0.02 0.094 0 
0.247 0.014 0.092 0 
0.247 0.004 0.092 0 
0.248 -0.005 0.092 0 
0.392 0.049 0 0 
0.381 -0.03 0.006 0 
0.371 0.063 0.008 0 
0.367 -0.05 0.009 0 
0.381 0.066 0.003 0 
0.386 0.065 0.002 0 
0.373 0.067 0.005 0 
0.385 -0.036 0.005 0 
0.398 0.065 0 0 
0.383 -0.036 0.007 0 
0.396 -0.04 0.004 0 
0.357 -0.011 0.008 0 
0.377 -0.046 0.003 0 
0.255 0.021 0.091 0 
0.371 -0.047 0.004 0 
0.351 -0.009 0.009 0 
0.391 0.044 0 0 
0.374 0.079 0.003 0 
0.375 0.081 0.003 0 
0.361 -0.046 0.009 0 
0.384 -0.04 0.003 0 
0.388 -0.035 0.002 0 
0.371 -0.24 -0.025 1 
0.37 -0.236 -0.024 1 
0.369 -0.225 -0.023 1 
0.362 -0.146 -0.017 1 
0.362 -0.136 -0.017 1 
0.359 -0.125 -0.016 1 
0.356 -0.115 -0.014 1 
0.357 -0.107 -0.014 1 
0.354 -0.086 -0.013 1 
0.353 -0.055 -0.012 1 
0.35 -0.045 -0.011 1 
0.349 -0.035 -0.01 1 
0.333 -0.019 -0.005 1 
0.333 0.018 -0.005 1 
0.351 0.064 -0.012 1 
0.35 0.073 -0.012 1 
0.351 0.084 -0.012 1 
0.352 0.093 -0.013 1 
0.351 0.152 -0.015 1 
0.343 0.198 -0.015 1 
0.377 -0.247 -0.025 1 
0.372 -0.197 -0.021 1 
0.364 -0.159 -0.017 1 
0.364 -0.105 -0.015 1 
0.363 -0.097 -0.015 1 
0.362 -0.095 -0.014 1 
0.334 -0.016 -0.004 1 
0.332 -0.005 -0.003 1 
0.352 0.044 -0.01 1 
0.354 0.103 -0.012 1 
0.354 0.114 -0.013 1 
0.353 0.124 -0.012 1 
0.353 0.133 -0.013 1 
0.354 0.136 -0.013 1 
0.349 0.174 -0.013 1 
0.346 0.208 -0.014 1 
0.382 -0.242 -0.024 1 
0.386 -0.231 -0.025 1 
0.384 -0.227 -0.024 1 
0.371 -0.186 -0.018 1 
0.373 -0.146 -0.017 1 
0.372 -0.125 -0.017 1 
0.364 -0.085 -0.013 1 
0.362 -0.055 -0.012 1 
0.342 -0.02 -0.005 1 
0.353 0.025 -0.009 1 
0.36 0.044 -0.012 1 
0.364 0.073 -0.013 1 
0.362 0.084 -0.013 1 
0.362 0.093 -0.013 1 
0.361 0.124 -0.013 1 
0.359 0.134 -0.013 1 
0.361 0.154 -0.015 1 
0.358 0.164 -0.014 1 
0.357 0.174 -0.014 1 
0.382 -0.245 -0.024 1 
0.355 0.182 -0.014 1 
0.354 0.183 -0.014 1 
0.355 0.194 -0.015 1 
0.353 0.203 -0.014 1 
0.352 0.212 -0.015 1 
0.352 0.215 -0.015 1 
0.379 -0.195 -0.019 1 
0.374 -0.175 -0.017 1 
0.374 -0.136 -0.016 1 
0.374 -0.116 -0.015 1 
0.374 -0.099 -0.015 1 
0.371 -0.086 -0.014 1 
0.374 -0.076 -0.014 1 
0.342 -0.001 -0.003 1 
0.354 0.022 -0.007 1 
0.371 0.103 -0.015 1 
0.37 0.114 -0.014 1 
0.368 0.14 -0.015 1 
0.359 0.202 -0.014 1 
0.393 -0.265 -0.025 1 
0.394 -0.258 -0.025 1 
0.395 -0.256 -0.025 1 
0.394 -0.247 -0.024 1 
0.391 -0.236 -0.022 1 
0.39 -0.228 -0.022 1 
0.383 -0.155 -0.017 1 
0.382 -0.107 -0.016 1 
0.38 -0.098 -0.015 1 
0.38 -0.078 -0.015 1 
0.374 -0.055 -0.012 1 
0.374 -0.046 -0.012 1 
0.369 -0.035 -0.01 1 
0.359 -0.025 -0.007 1 
0.351 -0.021 -0.005 1 
0.324 0.004 0.003 1 
0.324 0.01 0.003 1 
0.362 0.023 -0.008 1 
0.371 0.044 -0.012 1 
0.373 0.084 -0.013 1 
0.376 0.119 -0.015 1 
0.374 0.124 -0.014 1 
0.37 0.143 -0.013 1 
0.374 0.164 -0.015 1 
0.37 0.183 -0.015 1 
0.364 0.223 -0.015 1 
0.363 0.227 -0.015 1 
0.394 -0.217 -0.02 1 
0.391 -0.206 -0.019 1 
0.384 -0.126 -0.015 1 
0.383 -0.121 -0.014 1 
0.384 -0.118 -0.015 1 
0.383 -0.095 -0.014 1 
0.384 -0.089 -0.014 1 
0.386 -0.078 -0.015 1 
0.381 -0.065 -0.013 1 
0.382 -0.055 -0.013 1 
0.379 -0.045 -0.012 1 
0.376 -0.035 -0.011 1 
0.373 -0.027 -0.01 1 
0.355 -0.019 -0.004 1 
0.354 -0.018 -0.004 1 
0.356 -0.016 -0.005 1 
0.353 -0.006 -0.004 1 
0.326 0 0.004 1 
0.326 0.014 0.004 1 
0.38 0.073 -0.013 1 
0.38 0.083 -0.013 1 
0.381 0.096 -0.014 1 
0.383 0.099 -0.015 1 
0.382 0.112 -0.015 1 
0.381 0.114 -0.014 1 
0.379 0.133 -0.014 1 
0.379 0.164 -0.015 1 
0.374 0.184 -0.014 1 
0.374 0.191 -0.015 1 
0.372 0.223 -0.016 1 
0.37 0.235 -0.016 1 
0.401 -0.266 -0.022 1 
0.404 -0.245 -0.022 1 
0.394 -0.185 -0.017 1 
0.391 -0.156 -0.016 1 
0.39 -0.125 -0.015 1 
0.391 -0.115 -0.015 1 
0.392 -0.076 -0.014 1 
0.379 -0.026 -0.01 1 
0.358 -0.006 -0.004 1 
0.371 0.024 -0.008 1 
0.389 0.103 -0.015 1 
0.389 0.11 -0.015 1 
0.383 0.163 -0.014 1 
0.382 0.169 -0.014 1 
0.382 0.174 -0.015 1 
0.37 0.153 -0.016 1 
0.379 0.232 -0.016 1 
0.409 -0.255 -0.022 1 
0.384 -0.216 -0.02 1 
0.403 -0.226 -0.019 1 
0.402 -0.206 -0.018 1 
0.397 -0.107 -0.014 1 
0.398 -0.106 -0.015 1 
0.398 -0.104 -0.015 1 
0.394 -0.066 -0.013 1 
0.394 -0.062 -0.013 1 
0.393 -0.046 -0.012 1 
0.39 -0.035 -0.011 1 
0.4 -0.005 -0.015 1 
0.383 -0.001 -0.01 1 
0.359 0.023 -0.002 1 
0.384 0.035 -0.01 1 
0.392 0.063 -0.013 1 
0.392 0.073 -0.013 1 
0.393 0.082 -0.013 1 
0.393 0.092 -0.014 1 
0.392 0.103 -0.013 1 
0.392 0.113 -0.014 1 
0.391 0.134 -0.014 1 
0.392 0.143 -0.014 1 
0.39 0.153 -0.014 1 
0.384 0.184 -0.013 1 
0.383 0.242 -0.016 1 
0.384 0.25 -0.016 1 
0.413 -0.288 -0.022 1 
0.414 -0.271 -0.022 1 
0.41 -0.237 -0.019 1 
0.409 -0.226 -0.018 1 
0.362 -0.01 -0.005 1 
0.408 -0.216 -0.018 1 
0.403 -0.187 -0.016 1 
0.404 -0.176 -0.016 1 
0.405 -0.168 -0.016 1 
0.404 -0.165 -0.015 1 
0.403 -0.155 -0.015 1 
0.403 -0.153 -0.015 1 
0.402 -0.141 -0.014 1 
0.404 -0.137 -0.015 1 
0.404 -0.117 -0.014 1 
0.405 -0.105 -0.015 1 
0.403 -0.095 -0.014 1 
0.403 -0.086 -0.014 1 
0.401 -0.066 -0.013 1 
0.4 -0.045 -0.013 1 
0.389 -0.025 -0.009 1 
0.381 -0.016 -0.007 1 
0.381 -0.014 -0.007 1 
0.385 -0.005 -0.008 1 
0.358 -0.002 0 1 
0.339 0.02 0.005 1 
0.344 0.022 0.003 1 
0.353 0.025 0 1 
0.394 0.164 -0.013 1 
0.394 0.174 -0.014 1 
0.388 0.194 -0.013 1 
0.39 0.203 -0.014 1 
0.392 0.221 -0.015 1 
0.389 0.243 -0.015 1 
0.428 -0.305 -0.025 1 
0.423 -0.296 -0.023 1 
0.411 -0.206 -0.016 1 
0.409 -0.195 -0.015 1 
0.407 -0.186 -0.015 1 
0.407 -0.176 -0.014 1 
0.406 -0.166 -0.014 1 
0.408 -0.163 -0.014 1 
0.41 -0.155 -0.015 1 
0.41 -0.145 -0.015 1 
0.413 -0.126 -0.015 1 
0.41 -0.116 -0.014 1 
0.41 -0.107 -0.014 1 
0.41 -0.087 -0.014 1 
0.404 -0.035 -0.012 1 
0.387 -0.017 -0.007 1 
0.338 -0.002 0.007 1 
0.369 -0.008 -0.005 1 
0.326 0.023 0.01 1 
0.386 0.036 -0.007 1 
0.404 0.047 -0.012 1 
0.404 0.071 -0.012 1 
0.37 -0.105 -0.015 1 
0.404 0.119 -0.013 1 
0.403 0.134 -0.013 1 
0.403 0.143 -0.013 1 
0.402 0.154 -0.013 1 
0.401 0.162 -0.013 1 
0.4 0.224 -0.015 1 
0.4 0.234 -0.016 1 
0.393 0.26 -0.015 1 
0.423 -0.287 -0.02 1 
0.424 -0.265 -0.019 1 
0.422 -0.235 -0.018 1 
0.417 -0.196 -0.015 1 
0.419 -0.175 -0.015 1 
0.417 -0.164 -0.015 1 
0.413 -0.076 -0.012 1 
0.413 -0.065 -0.012 1 
0.321 0.024 0.013 1 
0.413 0.123 -0.013 1 
0.41 0.133 -0.013 1 
0.401 0.193 -0.012 1 
0.403 0.214 -0.013 1 
0.402 0.221 -0.013 1 
0.407 0.233 -0.015 1 
0.404 0.243 -0.015 1 
0.402 0.244 -0.014 1 
0.4 0.252 -0.014 1 
0.4 0.26 -0.015 1 
0.398 0.263 -0.014 1 
0.398 0.266 -0.014 1 
0.427 -0.288 -0.018 1 
0.433 -0.28 -0.02 1 
0.424 -0.226 -0.015 1 
0.424 -0.219 -0.015 1 
0.427 -0.196 -0.016 1 
0.426 -0.187 -0.015 1 
0.425 -0.184 -0.015 1 
0.423 -0.175 -0.014 1 
0.422 -0.165 -0.014 1 
0.419 -0.156 -0.013 1 
0.422 -0.145 -0.013 1 
0.423 -0.136 -0.013 1 
0.421 -0.116 -0.013 1 
0.373 0.214 -0.016 1 
0.421 -0.107 -0.012 1 
0.418 -0.076 -0.011 1 
0.414 -0.05 -0.01 1 
0.404 -0.02 -0.007 1 
0.404 0.064 -0.012 1 
0.504 -0.023 -0.035 1 
0.414 0.083 -0.011 1 
0.412 0.144 -0.011 1 
0.414 0.15 -0.012 1 
0.413 0.164 -0.012 1 
0.407 0.193 -0.012 1 
0.411 0.214 -0.013 1 
0.415 0.233 -0.015 1 
0.415 0.238 -0.015 1 
0.412 0.243 -0.015 1 
0.408 0.252 -0.014 1 
0.407 0.273 -0.015 1 
0.38 0.123 -0.014 1 
0.406 0.275 -0.014 1 
0.434 -0.308 -0.018 1 
0.433 -0.245 -0.016 1 
0.43 -0.229 -0.015 1 
0.432 -0.205 -0.015 1 
0.429 -0.187 -0.014 1 
0.447 -0.079 -0.017 1 
0.421 -0.067 -0.01 1 
0.416 -0.059 -0.008 1 
0.417 -0.046 -0.009 1 
0.41 -0.025 -0.007 1 
0.439 -0.023 -0.015 1 
0.508 -0.023 -0.033 1 
0.517 -0.021 -0.035 1 
0.414 0.049 -0.008 1 
0.415 0.054 -0.009 1 
0.416 0.088 -0.009 1 
0.407 0.089 -0.007 1 
0.422 0.123 -0.011 1 
0.419 0.163 -0.012 1 
0.417 0.273 -0.015 1 
0.415 0.282 -0.015 1 
0.441 -0.32 -0.018 1 
0.438 -0.276 -0.015 1 
0.434 -0.266 -0.014 1 
0.434 -0.217 -0.013 1 
0.434 -0.198 -0.013 1 
0.37 0.104 -0.014 1 
0.433 -0.177 -0.012 1 
0.433 -0.157 -0.012 1 
0.434 -0.147 -0.012 1 
0.434 -0.144 -0.012 1 
0.434 -0.125 -0.011 1 
0.433 -0.107 -0.011 1 
0.433 -0.097 -0.011 1 
0.43 -0.086 -0.01 1 
0.429 -0.084 -0.01 1 
0.405 -0.046 -0.003 1 
0.381 -0.186 -0.017 1 
0.393 -0.146 -0.016 1 
0.404 0.104 -0.013 1 
0.415 -0.035 -0.006 1 
0.422 -0.026 -0.008 1 
0.396 -0.236 -0.022 1 
0.361 -0.165 -0.018 1 
0.344 -0.025 -0.007 1 
0.339 0.029 0.012 1 
0.409 0.055 -0.005 1 
0.416 0.058 -0.007 1 
0.449 0.074 -0.015 1 
0.443 0.077 -0.014 1 
0.434 0.077 -0.011 1 
0.416 0.074 -0.007 1 
0.409 0.074 -0.005 1 
0.405 0.075 -0.004 1 
0.398 0.094 -0.002 1 
0.431 0.123 -0.011 1 
0.426 0.144 -0.01 1 
0.424 0.174 -0.011 1 
0.424 0.181 -0.011 1 
0.424 0.194 -0.011 1 
0.42 0.203 -0.01 1 
0.421 0.212 -0.011 1 
0.423 0.224 -0.012 1 
0.424 0.233 -0.012 1 
0.424 0.244 -0.013 1 
0.421 0.252 -0.012 1 
0.423 0.273 -0.014 1 
0.419 0.284 -0.013 1 
0.419 -0.208 -0.016 1 
0.445 -0.305 -0.015 1 
0.442 -0.298 -0.015 1 
0.441 -0.285 -0.014 1 
0.441 -0.227 -0.012 1 
0.439 -0.215 -0.012 1 
0.441 -0.195 -0.012 1 
0.441 -0.187 -0.012 1 
0.441 -0.177 -0.011 1 
0.439 -0.165 -0.011 1 
0.437 -0.156 -0.01 1 
0.439 -0.145 -0.01 1 
0.44 -0.137 -0.011 1 
0.439 -0.127 -0.01 1 
0.44 -0.115 -0.01 1 
0.439 -0.107 -0.01 1 
0.414 -0.099 -0.013 1 
0.44 -0.095 -0.01 1 
0.442 -0.088 -0.01 1 
0.472 -0.095 -0.018 1 
0.361 0.053 -0.012 1 
0.392 -0.258 -0.024 1 
0.406 -0.029 -0.002 1 
0.353 0.144 -0.015 1 
0.364 -0.065 -0.013 1 
0.359 0.068 0.009 1 
0.351 0.067 0.011 1 
0.336 0.066 0.014 1 
0.439 0.114 -0.011 1 
0.433 0.153 -0.01 1 
0.434 0.162 -0.011 1 
0.429 0.174 -0.01 1 
0.428 0.223 -0.011 1 
0.423 0.291 -0.012 1 
0.424 0.295 -0.012 1 
0.45 -0.33 -0.015 1 
0.447 -0.32 -0.014 1 
0.452 -0.315 -0.015 1 
0.446 -0.284 -0.012 1 
0.444 -0.267 -0.011 1 
0.442 -0.256 -0.011 1 
0.444 -0.247 -0.011 1 
0.406 0.1 -0.007 1 
0.444 -0.244 -0.011 1 
0.44 -0.205 -0.012 1 
0.452 -0.094 -0.01 1 
0.476 -0.096 -0.016 1 
0.473 -0.092 -0.015 1 
0.479 -0.088 -0.017 1 
0.373 0.054 -0.012 1 
0.401 -0.255 -0.022 1 
0.377 0.032 -0.006 1 
0.42 0.153 -0.011 1 
0.43 0.093 -0.006 1 
0.442 0.122 -0.009 1 
0.441 0.132 -0.009 1 
0.439 0.144 -0.009 1 
0.434 0.183 -0.008 1 
0.434 0.191 -0.009 1 
0.433 0.203 -0.009 1 
0.434 0.206 -0.009 1 
0.433 0.233 -0.009 1 
0.432 0.24 -0.009 1 
0.344 0.171 -0.013 1 
0.434 0.245 -0.01 1 
0.434 0.261 -0.011 1 
0.432 0.274 -0.011 1 
0.432 0.283 -0.011 1 
0.428 0.293 -0.01 1 
0.426 0.297 -0.01 1 
0.384 -0.206 -0.019 1 
0.453 -0.326 -0.013 1 
0.453 -0.297 -0.012 1 
0.42 0.134 -0.011 1 
0.453 -0.266 -0.011 1 
0.451 -0.256 -0.01 1 
0.451 -0.247 -0.01 1 
0.452 -0.236 -0.01 1 
0.454 -0.226 -0.01 1 
0.453 -0.215 -0.01 1 
0.451 -0.205 -0.009 1 
0.453 -0.196 -0.009 1 
0.454 -0.185 -0.009 1 
0.453 -0.155 -0.009 1 
0.453 -0.147 -0.009 1 
0.4 -0.047 -0.002 1 
0.453 -0.136 -0.008 1 
0.453 -0.115 -0.008 1 
0.409 -0.042 -0.004 1 
0.452 -0.107 -0.008 1 
0.452 -0.099 -0.008 1 
0.475 -0.09 -0.013 1 
0.384 -0.237 -0.025 1 
0.459 -0.061 -0.009 1 
0.445 -0.056 -0.006 1 
0.371 0.028 -0.006 1 
0.39 0.123 -0.013 1 
0.455 0.094 -0.009 1 
0.443 0.162 -0.008 1 
0.442 0.172 -0.008 1 
0.44 0.192 -0.008 1 
0.439 0.202 -0.008 1 
0.44 0.214 -0.008 1 
0.442 0.243 -0.009 1 
0.375 0.179 -0.015 1 
0.464 -0.315 -0.012 1 
0.464 -0.079 -0.008 1 
0.475 -0.059 -0.01 1 
0.363 0.025 -0.009 1 
0.373 -0.066 -0.012 1 
0.441 0.082 -0.003 1 
0.45 0.092 -0.005 1 
0.453 0.104 -0.006 1 
0.452 0.114 -0.006 1 
0.453 0.133 -0.007 1 
0.45 0.152 -0.006 1 
0.444 0.274 -0.008 1 
0.444 0.283 -0.008 1 
0.439 0.293 -0.008 1 
0.441 0.301 -0.008 1 
0.44 0.313 -0.009 1 
0.462 -0.336 -0.009 1 
0.462 -0.256 -0.007 1 
0.359 0.029 0 1 
0.462 -0.236 -0.006 1 
0.462 -0.216 -0.006 1 
0.461 -0.195 -0.006 1 
0.461 -0.176 -0.005 1 
0.462 -0.157 -0.005 1 
0.462 -0.135 -0.005 1 
0.462 -0.116 -0.005 1 
0.463 -0.102 -0.005 1 
0.466 -0.085 -0.006 1 
0.465 -0.076 -0.005 1 
0.468 -0.066 -0.006 1 
0.472 -0.056 -0.007 1 
0.471 -0.045 -0.006 1 
0.451 -0.04 -0.002 1 
0.45 0.084 -0.003 1 
0.457 0.113 -0.005 1 
0.457 0.124 -0.005 1 
0.456 0.142 -0.005 1 
0.454 0.088 -0.004 1 
0.455 0.147 -0.005 1 
0.454 0.154 -0.004 1 
0.452 0.157 -0.004 1 
0.453 0.163 -0.005 1 
0.455 0.172 -0.005 1 
0.454 0.174 -0.005 1 
0.39 -0.003 -0.012 1 
0.394 0.233 -0.016 1 
0.452 0.184 -0.005 1 
0.454 0.193 -0.005 1 
0.453 0.204 -0.005 1 
0.452 0.212 -0.005 1 
0.453 0.224 -0.006 1 
0.452 0.234 -0.006 1 
0.45 0.244 -0.006 1 
0.449 0.252 -0.006 1 
0.449 0.264 -0.006 1 
0.39 0.205 -0.014 1 
0.464 -0.345 -0.007 1 
0.457 0.134 -0.005 1 
0.466 -0.288 -0.006 1 
0.465 -0.277 -0.005 1 
0.466 -0.257 -0.005 1 
0.467 -0.245 -0.005 1 
0.468 -0.237 -0.005 1 
0.467 -0.231 -0.005 1 
0.464 -0.197 -0.004 1 
0.464 -0.186 -0.003 1 
0.464 -0.177 -0.003 1 
0.401 -0.195 -0.018 1 
0.464 -0.155 -0.003 1 
0.464 -0.147 -0.003 1 
0.464 -0.122 -0.003 1 
0.464 -0.106 -0.003 1 
0.464 -0.103 -0.003 1 
0.451 0.064 0 1 
0.452 0.072 0 1 
0.454 0.253 -0.004 1 
0.454 0.262 -0.004 1 
0.455 0.272 -0.005 1 
0.453 0.283 -0.005 1 
0.452 0.304 -0.005 1 
0.45 0.314 -0.005 1 
0.449 0.323 -0.005 1 
0.468 -0.346 -0.005 1 
0.473 -0.335 -0.005 1 
0.429 0.134 -0.011 1 
0.443 0.261 -0.007 1 
0.473 -0.328 -0.005 1 
0.472 -0.316 -0.005 1 
0.481 -0.286 -0.005 1 
0.507 -0.035 -0.008 1 
0.52 -0.033 -0.011 1 
0.514 -0.017 -0.01 1 
0.462 0.104 0 1 
0.454 0.322 -0.003 1 
0.454 0.325 -0.003 1 
0.474 -0.329 -0.002 1 
0.383 0.154 -0.014 1 
0.474 -0.315 -0.002 1 
0.453 0.049 0.004 1 
0.459 0.063 0.002 1 
0.464 0.113 0.001 1 
0.464 0.183 0 1 
0.474 -0.339 0 1 
0.475 -0.29 0 1 
0.475 -0.24 0.001 1 
0.384 -0.075 -0.014 1 
0.471 -0.225 0.002 1 
0.47 -0.216 0.002 1 
0.469 -0.206 0.003 1 
0.469 -0.197 0.003 1 
0.469 -0.186 0.003 1 
0.468 -0.177 0.003 1 
0.468 -0.165 0.003 1 
0.468 -0.157 0.003 1 
0.468 -0.146 0.003 1 
0.372 -0.206 -0.021 1 
0.423 0.114 -0.011 1 
0.362 0.201 -0.015 1 
0.464 0.094 0.004 1 
0.464 0.124 0.004 1 
0.463 0.154 0.003 1 
0.463 0.162 0.003 1 
0.464 0.174 0.003 1 
0.466 0.184 0.002 1 
0.465 0.192 0.002 1 
0.464 0.194 0.003 1 
0.464 0.203 0.002 1 
0.465 0.209 0.002 1 
0.464 0.214 0.002 1 
0.465 0.218 0.002 1 
0.464 0.223 0.002 1 
0.463 0.234 0.002 1 
0.462 0.242 0.002 1 
0.474 -0.353 0.002 1 
0.476 -0.345 0.002 1 
0.362 0.104 -0.013 1 
0.476 -0.337 0.002 1 
0.42 -0.085 -0.012 1 
0.477 -0.325 0.002 1 
0.476 -0.31 0.003 1 
0.474 -0.305 0.003 1 
0.473 -0.288 0.004 1 
0.472 -0.277 0.004 1 
0.472 -0.268 0.004 1 
0.381 -0.175 -0.017 1 
0.463 0.264 0.004 1 
0.463 0.273 0.004 1 
0.462 0.294 0.004 1 
0.462 0.304 0.003 1 
0.463 0.311 0.003 1 
0.464 0.322 0.003 1 
0.464 0.329 0.002 1 
0.372 0.153 -0.014 1 
0.467 0.344 0.001 1 
0.54 -0.045 0.001 1 
0.467 -0.305 -0.006 1 
0.464 -0.047 -0.005 1 
0.463 -0.065 -0.01 1 
0.407 0.2 -0.012 1 
0.381 -0.147 -0.016 1 
0.463 -0.094 -0.008 1 
0.452 -0.165 -0.009 1 
0.463 -0.105 -0.005 1 
0.462 -0.126 -0.005 1 
0.383 0.194 -0.014 1 
0.461 -0.145 -0.005 1 
0.465 0.102 0.004 1 
0.408 0.261 -0.014 1 
0.462 -0.165 -0.005 1 
0.462 -0.185 -0.006 1 
0.462 -0.225 -0.006 1 
0.448 -0.305 -0.013 1 
0.463 -0.248 -0.007 1 
0.443 0.253 -0.007 1 
0.463 -0.285 -0.008 1 
0.436 0.1 -0.007 1 
0.462 -0.326 -0.012 1 
0.443 -0.275 -0.011 1 
0.413 0.112 -0.013 1 
0.43 -0.226 -0.014 1 
0.543 -0.045 0.014 1 
0.55 -0.043 0.013 1 
0.559 -0.04 0.012 1 
0.344 0.024 -0.009 1 
0.343 -0.005 -0.004 1 
0.436 -0.271 -0.015 1 
0.452 0.143 -0.006 1 
0.364 -0.175 -0.019 1 
0.438 -0.247 -0.015 1 
0.473 -0.247 0.004 1 
0.36 0.114 -0.013 1 
0.368 -0.015 -0.007 1 
0.421 -0.022 -0.008 1 
0.452 0.124 -0.006 1 
0.467 -0.298 -0.006 1 
0.444 0.152 -0.007 1 
0.352 0.162 -0.014 1 
0.452 0.291 -0.005 1 
0.424 -0.262 -0.019 1 
0.464 0.143 0.003 1 
0.326 0.017 0.004 1 
0.414 -0.041 -0.006 1 
0.344 0.163 -0.013 1 
0.331 0.027 0.011 1 
0.464 -0.166 -0.003 1 
0.328 0.014 0.006 1 
0.461 0.336 -0.002 1 
0.354 0.049 -0.011 1 
0.394 -0.197 -0.018 1 
0.372 -0.217 -0.022 1 
0.35 -0.026 -0.008 1 
0.441 -0.053 -0.005 1 
0.343 -0.015 -0.004 1 
0.424 -0.282 -0.017 1 
0.429 0.112 -0.011 1 
0.354 0.202 -0.015 1 
0.464 -0.206 -0.004 1 
0.413 -0.246 -0.02 1 
0.472 -0.238 0.004 1 
0.373 0.064 -0.013 1 
0.403 0.112 -0.013 1 
0.414 0.222 -0.014 1 
0.464 -0.136 -0.003 1 
0.386 -0.1 -0.015 1 
0.431 -0.238 -0.015 1 
0.434 -0.269 -0.017 1 
0.35 0.193 -0.015 1 
0.413 -0.136 -0.015 1 
0.344 0.026 -0.009 1 
0.414 -0.057 -0.008 1 
0.379 0.063 -0.013 1 
0.402 -0.075 -0.013 1 
0.464 -0.295 -0.008 1 
0.453 -0.125 -0.008 1 
0.423 -0.247 -0.021 1 
0.354 -0.077 -0.013 1 
0.464 0.132 0.004 1 
0.381 0.204 -0.015 1 
0.418 -0.167 -0.015 1 
0.393 0.184 -0.014 1 
0.431 -0.215 -0.015 1 
0.414 0.174 -0.013 1 
0.394 0.248 -0.015 1 
0.436 0.085 -0.014 1 
0.464 -0.27 -0.005 1 
0.382 0.143 -0.013 1 
0.399 0.182 -0.013 1 
0.401 -0.145 -0.014 1 
0.422 -0.095 -0.013 1 
0.361 0.152 -0.014 1 
0.34 0.201 -0.014 1 
0.465 0.113 0.004 1 
0.473 -0.297 0.003 1 
0.391 -0.244 -0.025 1 
0.358 0.172 -0.015 1 
0.414 0.184 -0.013 1 
0.454 0.274 -0.005 1 
0.413 0.044 -0.008 1 
0.423 0.262 -0.013 1 
0.465 0.121 0.004 1 
0.43 -0.301 -0.02 1 
0.402 -0.216 -0.019 1 
0.418 0.142 -0.011 1 
0.439 -0.286 -0.016 1 
0.462 0.254 0.002 1 
0.453 -0.291 -0.011 1 
0.545 -0.046 0.007 1 
0.394 -0.18 -0.017 1 
0.408 -0.182 -0.015 1 
0.402 -0.056 -0.013 1 
0.389 -0.25 -0.025 1 
0.412 -0.124 -0.015 1 
0.464 -0.127 -0.003 1 
0.397 -0.125 -0.015 1 
0.375 0.128 -0.015 1 
0.399 0.173 -0.013 1 
0.352 0.183 -0.015 1 
0.362 -0.045 -0.012 1 
0.35 -0.001 0.001 1 
0.364 -0.079 -0.013 1 
0.394 0.053 -0.013 1 
0.454 -0.177 -0.009 1 
0.428 0.095 -0.005 1 
0.512 -0.017 -0.037 1 
0.37 0.232 -0.016 1 
0.416 -0.185 -0.015 1 
0.364 0.18 -0.015 1 
0.448 0.076 -0.015 1 
0.439 -0.308 -0.017 1 
0.39 -0.117 -0.014 1 
0.384 0.045 -0.012 1 
0.434 -0.255 -0.016 1 
0.437 0.083 -0.015 1 
0.349 0.154 -0.014 1 
0.373 -0.096 -0.014 1 
0.378 0.224 -0.015 1 
0.392 0.212 -0.015 1 
0.374 -0.161 -0.016 1 
0.371 0.173 -0.015 1 
0.444 0.085 -0.004 1 
0.444 -0.076 -0.016 1 
0.392 -0.105 -0.015 1 
0.373 0.09 -0.013 1 
0.364 0.064 -0.013 1 
0.403 0.083 -0.012 1 
0.383 -0.165 -0.017 1 
0.433 -0.117 -0.011 1 
0.465 -0.265 -0.005 1 
0.395 0.252 -0.015 1 
0.463 0.283 0.004 1 
0.396 -0.03 0 1 
0.463 0.083 0.004 1 
0.36 0.144 -0.014 1 
0.38 0.192 -0.015 1 
0.382 0.214 -0.016 1 
0.4 -0.026 -0.009 1 
0.472 -0.255 0.004 1 
0.404 0.043 -0.012 1 
0.363 -0.116 -0.015 1 
0.402 0.204 -0.013 1 
0.388 -0.095 -0.013 1 
0.441 0.223 -0.008 1 
0.374 0.134 -0.014 1 
0.415 0.285 -0.015 1 
0.388 -0.165 -0.017 1 
0.46 0.074 0.002 1 
0.405 0.229 -0.014 1 
0.434 -0.165 -0.012 1 
0.412 -0.284 -0.022 1 
0.459 0.053 0.003 1 
0.478 -0.316 0.002 1 
0.461 -0.207 -0.006 1 
0.379 0.093 -0.013 1 
0.421 -0.126 -0.013 1 
0.461 -0.277 -0.007 1 
0.442 0.232 -0.009 1 
0.466 -0.095 -0.006 1 
0.41 -0.023 -0.007 1 
0.397 -0.118 -0.015 1 
0.36 -0.036 -0.011 1 
0.38 -0.136 -0.016 1 
0.371 0.203 -0.016 1 
0.44 0.184 -0.007 1 
0.391 -0.086 -0.014 1 
0.463 -0.307 -0.008 1 
0.391 -0.136 -0.015 1 
0.361 0.213 -0.016 1 
0.374 -0.165 -0.016 1 
0.373 0.073 -0.013 1 
0.401 0.091 -0.005 1 
0.272 0.02 0.064 2 
0.358 0.054 0.026 2 
0.277 0.022 0.064 2 
0.314 0.004 0.007 2 
0.341 0.033 0.032 2 
0.266 -0.007 0.081 2 
0.265 -0.005 0.073 2 
0.283 0.025 0.076 2 
0.28 -0.007 0.066 2 
0.285 0.014 0.042 2 
0.297 0.021 0.041 2 
0.311 0.035 0.039 2 
0.355 -0.041 0.023 2 
0.284 0.017 0.044 2 
0.308 -0.01 0.085 2 
0.264 -0.005 0.074 2 
0.265 0.019 0.074 2 
0.341 -0.013 0.029 2 
0.291 -0.008 0.064 2 
0.279 0.024 0.075 2 
0.275 0.004 0.054 2 
0.333 0.043 0.033 2 
0.306 -0.014 0.031 2 
0.275 0.014 0.053 2 
0.265 0.012 0.07 2 
0.323 0.027 0.036 2 
0.268 0.014 0.064 2 
0.274 0.013 0.054 2 
0.274 0.016 0.054 2 
0.278 0.018 0.054 2 
0.27 -0.005 0.064 2 
0.286 0.02 0.054 2 
0.269 0.004 0.064 2 
0.256 0.004 0.084 2 
0.261 0.014 0.074 2 
0.349 -0.045 0.025 2 
0.261 0.016 0.074 2 
0.291 -0.005 0.047 2 
0.302 0.017 0.01 2 
0.254 0.009 0.084 2 
0.257 -0.005 0.084 2 
0.261 0.004 0.074 2 
0.256 0.014 0.084 2 
0.303 -0.005 0.04 2 
0.256 0.019 0.084 2 
0.275 0.014 0.056 2 
0.265 -0.004 0.076 2 
0.275 -0.004 0.056 2 
0.299 -0.009 0.029 2 
0.352 -0.026 0.028 2 
0.276 -0.007 0.08 2 
0.311 0.013 0.007 2 
0.314 0.032 0.034 2 
0.281 0.004 0.044 2 
0.283 0.013 0.044 2 
0.285 -0.003 0.039 2 
0.314 -0.015 0.034 2 
0.342 0.047 0.031 2 
0.285 -0.004 0.049 2 
0.315 0.031 0.039 2 
0.317 0.024 0.033 2 
0.286 0.019 0.044 2 
0.295 -0.003 0.033 2 
0.309 0.023 0.013 2 
0.33 0.032 0.035 2 
0.3 0.031 0.028 2 
0.354 -0.023 0.024 2 
0.333 -0.015 0.033 2 
0.326 -0.013 0.034 2 
0.289 0.004 0.034 2 
0.29 0.014 0.034 2 
0.335 -0.022 0.032 2 
0.298 0.014 0.024 2 
0.321 -0.017 0.034 2 
0.326 -0.008 0.029 2 
0.316 -0.004 0.039 2 
0.307 0.033 0.026 2 
0.322 0.039 0.035 2 
0.308 -0.002 0.02 2 
0.295 0.006 0.027 2 
0.323 -0.008 0.031 2 
0.348 -0.023 0.027 2 
0.317 -0.005 0.04 2 
0.305 -0.003 0.023 2 
0.367 -0.028 0.023 2 
0.307 0.014 0.005 2 
0.304 0.001 0.019 2 
0.363 -0.029 0.025 2 
0.333 -0.007 0.028 2 
0.296 0.023 0.061 2 
0.319 0.014 0.007 2 
0.356 0.056 0.026 2 
0.339 0.04 0.028 2 
0.279 0.024 0.073 2 
0.321 0 0.024 2 
0.326 -0.001 0.022 2 
0.31 0.022 0.01 2 
0.343 -0.007 0.027 2 
0.293 0.01 0.024 2 
0.345 0.047 0.029 2 
0.297 0.021 0.034 2 
0.294 0.017 0.034 2 
0.266 0.022 0.084 2 
0.296 0.028 0.076 2 
0.265 -0.004 0.072 2 
0.31 -0.012 0.025 2 
0.426 0.044 0.029 2 
0.424 0.044 0.032 2 
0.42 0.043 0.034 2 
0.551 -0.039 0.045 2 
0.543 -0.052 0.043 2 
0.529 -0.047 0.02 2 
0.541 -0.045 0.023 2 
0.554 -0.04 0.034 2 
0.55 -0.046 0.042 2 
0.558 -0.03 0.114 2 
0.543 -0.045 0.033 2 
0.544 -0.052 0.046 2 
0.553 -0.043 0.055 2 
0.481 -0.355 0.134 3 
0.47 -0.175 0.094 3 
0.47 -0.166 0.094 3 
0.47 -0.157 0.094 3 
0.471 -0.177 0.164 3 
0.472 -0.196 0.094 3 
0.472 -0.205 0.094 3 
0.471 -0.216 0.094 3 
0.472 -0.225 0.094 3 
0.47 -0.167 0.163 3 
0.471 -0.207 0.102 3 
0.473 -0.275 0.084 3 
0.47 -0.156 0.163 3 
0.476 -0.297 0.102 3 
0.475 -0.235 0.163 3 
0.472 -0.225 0.103 3 
0.474 -0.225 0.163 3 
0.472 -0.238 0.103 3 
0.472 -0.247 0.103 3 
0.472 -0.256 0.103 3 
0.473 -0.266 0.104 3 
0.474 -0.276 0.104 3 
0.468 -0.135 0.093 3 
0.475 -0.28 0.104 3 
0.475 -0.232 0.163 3 
0.475 -0.287 0.104 3 
0.471 -0.216 0.103 3 
0.476 -0.245 0.164 3 
0.475 -0.257 0.164 3 
0.476 -0.267 0.162 3 
0.474 -0.237 0.16 3 
0.478 -0.346 0.022 3 
0.478 -0.357 0.103 3 
0.474 -0.286 0.101 3 
0.479 -0.345 0.103 3 
0.478 -0.337 0.103 3 
0.478 -0.326 0.102 3 
0.477 -0.305 0.102 3 
0.471 -0.197 0.164 3 
0.468 -0.115 0.093 3 
0.467 -0.107 0.093 3 
0.467 -0.096 0.093 3 
0.467 -0.085 0.093 3 
0.466 -0.076 0.093 3 
0.465 -0.065 0.092 3 
0.467 -0.058 0.093 3 
0.472 -0.186 0.164 3 
0.468 -0.107 0.104 3 
0.472 -0.256 0.052 3 
0.466 -0.044 0.044 3 
0.467 -0.126 0.093 3 
0.472 -0.256 0.083 3 
0.48 -0.327 0.172 3 
0.469 -0.166 0.022 3 
0.48 -0.338 0.172 3 
0.481 -0.346 0.173 3 
0.482 -0.355 0.174 3 
0.471 -0.206 0.162 3 
0.469 -0.166 0.033 3 
0.471 -0.215 0.162 3 
0.472 -0.265 0.072 3 
0.483 -0.338 0.182 3 
0.48 -0.297 0.182 3 
0.479 -0.306 0.182 3 
0.48 -0.317 0.183 3 
0.471 -0.187 0.094 3 
0.481 -0.325 0.184 3 
0.479 -0.306 0.173 3 
0.472 -0.256 0.072 3 
0.471 -0.157 0.172 3 
0.472 -0.177 0.173 3 
0.473 -0.187 0.173 3 
0.473 -0.195 0.173 3 
0.473 -0.216 0.174 3 
0.479 -0.286 0.181 3 
0.483 -0.345 0.183 3 
0.473 -0.225 0.171 3 
0.475 -0.229 0.172 3 
0.476 -0.236 0.172 3 
0.477 -0.246 0.173 3 
0.474 -0.285 0.044 3 
0.471 -0.207 0.083 3 
0.477 -0.355 0.082 3 
0.479 -0.347 0.082 3 
0.479 -0.336 0.082 3 
0.479 -0.326 0.082 3 
0.476 -0.255 0.173 3 
0.47 -0.146 0.074 3 
0.479 -0.308 0.144 3 
0.472 -0.246 0.072 3 
0.473 -0.235 0.072 3 
0.472 -0.225 0.072 3 
0.471 -0.216 0.072 3 
0.471 -0.207 0.072 3 
0.471 -0.195 0.072 3 
0.471 -0.095 0.173 3 
0.471 -0.106 0.174 3 
0.47 -0.186 0.074 3 
0.47 -0.166 0.074 3 
0.47 -0.155 0.074 3 
0.477 -0.268 0.174 3 
0.469 -0.135 0.074 3 
0.469 -0.126 0.074 3 
0.468 -0.115 0.074 3 
0.468 -0.107 0.074 3 
0.468 -0.096 0.074 3 
0.467 -0.085 0.074 3 
0.466 -0.055 0.074 3 
0.471 -0.117 0.174 3 
0.472 -0.137 0.174 3 
0.471 -0.145 0.174 3 
0.474 -0.226 0.178 3 
0.471 -0.137 0.163 3 
0.469 -0.086 0.164 3 
0.469 -0.108 0.164 3 
0.465 -0.065 0.084 3 
0.477 -0.278 0.171 3 
0.477 -0.287 0.172 3 
0.479 -0.296 0.173 3 
0.48 -0.317 0.174 3 
0.482 -0.355 0.177 3 
0.472 -0.226 0.033 3 
0.469 -0.097 0.162 3 
0.47 -0.116 0.162 3 
0.471 -0.125 0.163 3 
0.469 -0.077 0.164 3 
0.477 -0.355 0.094 3 
0.48 -0.348 0.094 3 
0.478 -0.336 0.094 3 
0.478 -0.326 0.093 3 
0.477 -0.315 0.093 3 
0.477 -0.305 0.093 3 
0.475 -0.296 0.093 3 
0.473 -0.275 0.092 3 
0.472 -0.265 0.092 3 
0.48 -0.355 0.155 3 
0.472 -0.256 0.092 3 
0.472 -0.237 0.092 3 
0.47 -0.166 0.083 3 
0.477 -0.315 0.084 3 
0.475 -0.296 0.084 3 
0.475 -0.293 0.084 3 
0.474 -0.286 0.084 3 
0.468 -0.115 0.123 3 
0.472 -0.265 0.084 3 
0.472 -0.237 0.083 3 
0.472 -0.225 0.083 3 
0.471 -0.216 0.083 3 
0.471 -0.195 0.083 3 
0.47 -0.186 0.083 3 
0.47 -0.177 0.083 3 
0.47 -0.145 0.163 3 
0.47 -0.155 0.083 3 
0.47 -0.146 0.083 3 
0.468 -0.126 0.082 3 
0.468 -0.115 0.082 3 
0.468 -0.107 0.082 3 
0.467 -0.096 0.082 3 
0.467 -0.085 0.082 3 
0.466 -0.076 0.082 3 
0.466 -0.057 0.082 3 
0.476 -0.317 0.014 3 
0.47 -0.069 0.164 3 
0.479 -0.347 0.064 3 
0.479 -0.325 0.153 3 
0.479 -0.336 0.154 3 
0.481 -0.348 0.133 3 
0.481 -0.337 0.133 3 
0.473 -0.278 0.044 3 
0.479 -0.328 0.132 3 
0.48 -0.315 0.132 3 
0.479 -0.308 0.132 3 
0.477 -0.296 0.134 3 
0.476 -0.285 0.133 3 
0.475 -0.275 0.133 3 
0.47 -0.166 0.044 3 
0.479 -0.315 0.153 3 
0.475 -0.265 0.133 3 
0.474 -0.258 0.132 3 
0.467 -0.063 0.128 3 
0.47 -0.155 0.044 3 
0.467 -0.107 0.004 3 
0.474 -0.267 0.135 3 
0.473 -0.245 0.134 3 
0.473 -0.236 0.134 3 
0.473 -0.227 0.134 3 
0.472 -0.217 0.134 3 
0.472 -0.208 0.133 3 
0.469 -0.146 0.124 3 
0.471 -0.207 0.122 3 
0.471 -0.196 0.122 3 
0.475 -0.266 0.153 3 
0.476 -0.276 0.153 3 
0.476 -0.286 0.154 3 
0.477 -0.296 0.154 3 
0.474 -0.277 0.127 3 
0.474 -0.267 0.127 3 
0.471 -0.187 0.124 3 
0.47 -0.175 0.124 3 
0.469 -0.166 0.124 3 
0.473 -0.257 0.123 3 
0.471 -0.196 0.133 3 
0.469 -0.135 0.124 3 
0.468 -0.126 0.123 3 
0.468 -0.107 0.123 3 
0.467 -0.096 0.123 3 
0.467 -0.085 0.123 3 
0.467 -0.077 0.122 3 
0.468 -0.066 0.123 3 
0.467 -0.063 0.122 3 
0.465 -0.065 0.023 3 
0.468 -0.066 0.144 3 
0.479 -0.308 0.152 3 
0.473 -0.227 0.143 3 
0.48 -0.347 0.142 3 
0.48 -0.336 0.142 3 
0.476 -0.316 0.032 3 
0.469 -0.127 0.134 3 
0.468 -0.115 0.134 3 
0.468 -0.096 0.134 3 
0.468 -0.085 0.134 3 
0.467 -0.077 0.133 3 
0.467 -0.066 0.133 3 
0.466 -0.095 0.012 3 
0.471 -0.205 0.142 3 
0.472 -0.217 0.142 3 
0.48 -0.358 0.143 3 
0.473 -0.236 0.143 3 
0.473 -0.245 0.143 3 
0.474 -0.255 0.144 3 
0.475 -0.262 0.144 3 
0.474 -0.267 0.124 3 
0.476 -0.276 0.142 3 
0.478 -0.287 0.143 3 
0.47 -0.207 0.014 3 
0.478 -0.297 0.143 3 
0.48 -0.326 0.144 3 
0.48 -0.316 0.144 3 
0.469 -0.116 0.142 3 
0.471 -0.187 0.133 3 
0.47 -0.175 0.133 3 
0.469 -0.166 0.132 3 
0.469 -0.146 0.132 3 
0.469 -0.135 0.132 3 
0.476 -0.065 0.133 3 
0.469 -0.155 0.124 3 
0.477 -0.305 0.084 3 
0.468 -0.077 0.142 3 
0.469 -0.085 0.142 3 
0.469 -0.108 0.142 3 
0.472 -0.217 0.122 3 
0.469 -0.127 0.143 3 
0.469 -0.147 0.143 3 
0.469 -0.155 0.143 3 
0.469 -0.166 0.143 3 
0.469 -0.175 0.143 3 
0.47 -0.187 0.144 3 
0.47 -0.196 0.144 3 
0.481 -0.349 0.152 3 
0.48 -0.358 0.152 3 
0.474 -0.286 0.092 3 
0.478 -0.337 0.114 3 
0.472 -0.246 0.083 3 
0.469 -0.097 0.153 3 
0.472 -0.247 0.092 3 
0.469 -0.105 0.153 3 
0.469 -0.116 0.154 3 
0.469 -0.127 0.154 3 
0.47 -0.136 0.154 3 
0.469 -0.147 0.154 3 
0.469 -0.155 0.154 3 
0.478 -0.357 0.112 3 
0.471 -0.246 0.024 3 
0.478 -0.347 0.112 3 
0.474 -0.276 0.11 3 
0.468 -0.085 0.153 3 
0.477 -0.325 0.114 3 
0.478 -0.316 0.114 3 
0.478 -0.306 0.114 3 
0.477 -0.295 0.113 3 
0.475 -0.287 0.113 3 
0.475 -0.277 0.113 3 
0.473 -0.266 0.112 3 
0.472 -0.256 0.112 3 
0.474 -0.246 0.158 3 
0.474 -0.256 0.158 3 
0.477 -0.327 0.064 3 
0.468 -0.126 0.104 3 
0.471 -0.187 0.102 3 
0.471 -0.175 0.102 3 
0.471 -0.167 0.102 3 
0.475 -0.275 0.162 3 
0.476 -0.286 0.163 3 
0.477 -0.297 0.163 3 
0.478 -0.308 0.164 3 
0.469 -0.135 0.082 3 
0.474 -0.286 0.107 3 
0.469 -0.146 0.104 3 
0.471 -0.237 0.024 3 
0.469 -0.135 0.104 3 
0.479 -0.315 0.162 3 
0.468 -0.115 0.104 3 
0.468 -0.096 0.104 3 
0.468 -0.085 0.104 3 
0.467 -0.077 0.104 3 
0.466 -0.066 0.103 3 
0.467 -0.06 0.103 3 
0.467 -0.096 0.004 3 
0.475 -0.265 0.144 3 
0.477 -0.327 0.073 3 
0.469 -0.069 0.153 3 
0.471 -0.075 0.154 3 
0.479 -0.345 0.124 3 
0.471 -0.197 0.153 3 
0.471 -0.206 0.153 3 
0.472 -0.217 0.153 3 
0.466 -0.066 0.034 3 
0.467 -0.085 0.114 3 
0.467 -0.077 0.114 3 
0.467 -0.066 0.114 3 
0.467 -0.063 0.114 3 
0.474 -0.228 0.154 3 
0.474 -0.237 0.152 3 
0.474 -0.246 0.152 3 
0.478 -0.355 0.124 3 
0.47 -0.187 0.152 3 
0.479 -0.335 0.124 3 
0.479 -0.328 0.123 3 
0.479 -0.317 0.123 3 
0.478 -0.306 0.123 3 
0.474 -0.255 0.152 3 
0.475 -0.262 0.153 3 
0.475 -0.287 0.124 3 
0.475 -0.271 0.124 3 
0.473 -0.245 0.123 3 
0.472 -0.235 0.123 3 
0.472 -0.226 0.123 3 
0.471 -0.167 0.113 3 
0.479 -0.326 0.162 3 
0.479 -0.336 0.163 3 
0.481 -0.349 0.164 3 
0.474 -0.276 0.115 3 
0.472 -0.247 0.114 3 
0.472 -0.235 0.114 3 
0.472 -0.226 0.114 3 
0.472 -0.217 0.114 3 
0.471 -0.207 0.114 3 
0.47 -0.195 0.113 3 
0.471 -0.175 0.113 3 
0.471 -0.195 0.102 3 
0.469 -0.155 0.113 3 
0.469 -0.146 0.113 3 
0.471 -0.187 0.113 3 
0.468 -0.135 0.112 3 
0.469 -0.127 0.112 3 
0.468 -0.115 0.112 3 
0.467 -0.107 0.112 3 
0.468 -0.096 0.112 3 
0.471 -0.207 0.033 3 
0.469 -0.167 0.152 3 
0.47 -0.176 0.152 3 
0.467 -0.036 0.004 3 
0.465 -0.055 0.044 3 
0.469 -0.146 0.093 3 
0.466 -0.041 0.023 3 
0.465 -0.047 0.023 3 
0.465 -0.055 0.023 3 
0.466 -0.076 0.023 3 
0.475 -0.278 0.124 3 
0.467 -0.085 0.023 3 
0.468 -0.107 0.134 3 
0.467 -0.095 0.023 3 
0.466 -0.076 0.044 3 
0.467 -0.106 0.023 3 
0.474 -0.073 0.185 3 
0.467 -0.115 0.023 3 
0.474 -0.158 0.187 3 
0.474 -0.167 0.187 3 
0.474 -0.185 0.188 3 
0.474 -0.197 0.188 3 
0.478 -0.257 0.192 3 
0.466 -0.076 0.074 3 
0.478 -0.266 0.192 3 
0.471 -0.207 0.044 3 
0.478 -0.328 0.043 3 
0.475 -0.315 0.044 3 
0.475 -0.305 0.044 3 
0.475 -0.299 0.044 3 
0.471 -0.267 0.044 3 
0.473 -0.287 0.012 3 
0.472 -0.256 0.044 3 
0.472 -0.247 0.044 3 
0.472 -0.237 0.044 3 
0.471 -0.225 0.044 3 
0.465 -0.055 0.034 3 
0.471 -0.195 0.044 3 
0.47 -0.186 0.044 3 
0.47 -0.177 0.044 3 
0.469 -0.146 0.044 3 
0.469 -0.137 0.044 3 
0.469 -0.126 0.044 3 
0.468 -0.115 0.044 3 
0.469 -0.107 0.044 3 
0.469 -0.096 0.044 3 
0.466 -0.087 0.044 3 
0.471 -0.207 0.052 3 
0.474 -0.295 0.015 3 
0.476 -0.327 0.014 3 
0.477 -0.338 0.014 3 
0.475 -0.298 0.052 3 
0.473 -0.288 0.052 3 
0.472 -0.277 0.052 3 
0.472 -0.265 0.052 3 
0.473 -0.247 0.052 3 
0.472 -0.237 0.052 3 
0.471 -0.216 0.052 3 
0.464 -0.055 0.018 3 
0.47 -0.195 0.052 3 
0.47 -0.186 0.052 3 
0.469 -0.177 0.052 3 
0.469 -0.165 0.052 3 
0.47 -0.155 0.052 3 
0.469 -0.146 0.052 3 
0.469 -0.135 0.052 3 
0.468 -0.126 0.052 3 
0.468 -0.115 0.052 3 
0.469 -0.107 0.052 3 
0.474 -0.352 0.02 3 
0.466 -0.125 0.023 3 
0.48 -0.278 0.193 3 
0.481 -0.285 0.194 3 
0.467 -0.137 0.023 3 
0.465 -0.065 0.044 3 
0.468 -0.145 0.023 3 
0.469 -0.157 0.022 3 
0.469 -0.177 0.022 3 
0.468 -0.185 0.022 3 
0.47 -0.195 0.022 3 
0.479 -0.336 0.043 3 
0.474 -0.298 0.049 3 
0.467 -0.044 0.05 3 
0.469 -0.177 0.033 3 
0.479 -0.336 0.052 3 
0.478 -0.328 0.052 3 
0.475 -0.315 0.052 3 
0.475 -0.305 0.052 3 
0.475 -0.296 0.023 3 
0.463 -0.046 0.018 3 
0.471 -0.255 0.024 3 
0.472 -0.247 0.033 3 
0.472 -0.235 0.033 3 
0.471 -0.216 0.033 3 
0.471 -0.195 0.033 3 
0.47 -0.186 0.033 3 
0.47 -0.155 0.033 3 
0.469 -0.146 0.033 3 
0.472 -0.208 0.024 3 
0.471 -0.222 0.024 3 
0.471 -0.225 0.024 3 
0.472 -0.256 0.033 3 
0.473 -0.268 0.024 3 
0.469 -0.135 0.033 3 
0.473 -0.275 0.024 3 
0.474 -0.285 0.024 3 
0.475 -0.292 0.023 3 
0.468 -0.126 0.033 3 
0.474 -0.147 0.19 3 
0.468 -0.115 0.034 3 
0.467 -0.126 0.004 3 
0.468 -0.107 0.034 3 
0.472 -0.087 0.188 3 
0.474 -0.133 0.189 3 
0.475 -0.127 0.19 3 
0.475 -0.136 0.19 3 
0.475 -0.292 0.029 3 
0.474 -0.121 0.189 3 
0.477 -0.355 0.052 3 
0.475 -0.116 0.189 3 
0.474 -0.11 0.189 3 
0.475 -0.107 0.189 3 
0.474 -0.096 0.189 3 
0.468 -0.096 0.034 3 
0.473 -0.076 0.188 3 
0.478 -0.316 0.102 3 
0.474 -0.138 0.189 3 
0.477 -0.327 0.032 3 
0.475 -0.305 0.032 3 
0.475 -0.302 0.032 3 
0.474 -0.298 0.032 3 
0.474 -0.285 0.032 3 
0.474 -0.279 0.032 3 
0.472 -0.268 0.032 3 
0.473 -0.355 0.023 3 
0.478 -0.257 0.195 3 
0.478 -0.267 0.195 3 
0.48 -0.278 0.196 3 
0.478 -0.336 0.023 3 
0.48 -0.285 0.197 3 
0.474 -0.356 0.034 3 
0.479 -0.347 0.034 3 
0.478 -0.335 0.034 3 
0.482 -0.296 0.198 3 
0.482 -0.307 0.199 3 
0.477 -0.328 0.023 3 
0.482 -0.317 0.199 3 
0.471 -0.216 0.044 3 
0.482 -0.327 0.2 3 
0.473 -0.207 0.174 3 
0.475 -0.283 0.038 3 
0.483 -0.336 0.201 3 
0.485 -0.349 0.203 3 
0.474 -0.304 0.041 3 
0.477 -0.355 0.043 3 
0.479 -0.347 0.043 3 
0.475 -0.182 0.191 3 
0.467 -0.085 0.034 3 
0.466 -0.076 0.034 3 
0.466 -0.047 0.034 3 
0.466 -0.044 0.034 3 
0.475 -0.153 0.19 3 
0.475 -0.156 0.19 3 
0.475 -0.305 0.023 3 
0.475 -0.165 0.191 3 
0.465 -0.065 0.074 3 
0.474 -0.176 0.19 3 
0.476 -0.31 0.014 3 
0.475 -0.185 0.191 3 
0.476 -0.195 0.192 3 
0.477 -0.208 0.193 3 
0.471 -0.125 0.174 3 
0.478 -0.217 0.193 3 
0.478 -0.227 0.194 3 
0.478 -0.236 0.194 3 
0.477 -0.248 0.194 3 
0.476 -0.316 0.023 3 
0.479 -0.347 0.052 3 
0.471 -0.195 0.063 3 
0.471 -0.187 0.063 3 
0.474 -0.295 0.012 3 
0.475 -0.227 0.184 3 
0.47 -0.177 0.063 3 
0.47 -0.166 0.063 3 
0.469 -0.157 0.063 3 
0.474 -0.305 0.012 3 
0.469 -0.146 0.063 3 
0.469 -0.135 0.063 3 
0.468 -0.126 0.063 3 
0.475 -0.286 0.038 3 
0.468 -0.115 0.063 3 
0.468 -0.107 0.063 3 
0.468 -0.096 0.063 3 
0.467 -0.085 0.063 3 
0.466 -0.076 0.063 3 
0.484 -0.34 0.192 3 
0.466 -0.066 0.063 3 
0.466 -0.055 0.063 3 
0.466 -0.049 0.063 3 
0.485 -0.344 0.193 3 
0.473 -0.285 0.064 3 
0.47 -0.227 0.013 3 
0.475 -0.215 0.183 3 
0.47 -0.236 0.013 3 
0.47 -0.245 0.013 3 
0.472 -0.255 0.013 3 
0.472 -0.265 0.013 3 
0.477 -0.307 0.064 3 
0.47 -0.177 0.074 3 
0.475 -0.299 0.064 3 
0.464 -0.055 0.012 3 
0.474 -0.295 0.064 3 
0.485 -0.352 0.193 3 
0.472 -0.277 0.064 3 
0.472 -0.277 0.013 3 
0.474 -0.22 0.183 3 
0.472 -0.265 0.064 3 
0.472 -0.256 0.064 3 
0.472 -0.246 0.064 3 
0.472 -0.237 0.064 3 
0.472 -0.225 0.064 3 
0.471 -0.216 0.064 3 
0.471 -0.207 0.064 3 
0.468 -0.137 0.004 3 
0.467 -0.055 0.004 3 
0.467 -0.066 0.004 3 
0.467 -0.077 0.004 3 
0.468 -0.096 0.142 3 
0.474 -0.295 0.067 3 
0.468 -0.052 0.066 3 
0.467 -0.087 0.004 3 
0.467 -0.115 0.004 3 
0.477 -0.054 0.069 3 
0.469 -0.155 0.132 3 
0.471 -0.072 0.173 3 
0.465 -0.049 0.004 3 
0.473 -0.275 0.072 3 
0.471 -0.075 0.173 3 
0.471 -0.086 0.173 3 
0.478 -0.356 0.073 3 
0.48 -0.348 0.073 3 
0.478 -0.335 0.073 3 
0.477 -0.317 0.073 3 
0.476 -0.307 0.073 3 
0.475 -0.296 0.072 3 
0.473 -0.285 0.072 3 
0.466 -0.087 0.012 3 
0.483 -0.353 0.193 3 
0.479 -0.36 0.192 3 
0.469 -0.155 0.104 3 
0.477 -0.295 0.122 3 
0.462 -0.046 0.013 3 
0.465 -0.057 0.012 3 
0.465 -0.065 0.012 3 
0.462 -0.038 0.013 3 
0.478 -0.238 0.182 3 
0.465 -0.076 0.012 3 
0.478 -0.247 0.182 3 
0.467 -0.085 0.052 3 
0.466 -0.106 0.012 3 
0.466 -0.117 0.012 3 
0.477 -0.256 0.182 3 
0.466 -0.125 0.012 3 
0.466 -0.136 0.012 3 
0.478 -0.266 0.183 3 
0.478 -0.276 0.184 3 
0.465 -0.052 0.007 3 
0.464 -0.039 0.004 3 
0.464 -0.047 0.004 3 
0.473 -0.167 0.184 3 
0.472 -0.126 0.183 3 
0.468 -0.165 0.014 3 
0.473 -0.135 0.183 3 
0.473 -0.146 0.184 3 
0.474 -0.205 0.183 3 
0.474 -0.196 0.182 3 
0.474 -0.185 0.182 3 
0.471 -0.225 0.052 3 
0.468 -0.157 0.014 3 
0.467 -0.151 0.014 3 
0.473 -0.155 0.184 3 
0.463 -0.038 0.015 3 
0.473 -0.175 0.184 3 
0.474 -0.353 0.014 3 
0.474 -0.205 0.186 3 
0.466 -0.047 0.044 3 
0.481 -0.295 0.192 3 
0.474 -0.352 0.026 3 
0.481 -0.305 0.192 3 
0.481 -0.316 0.193 3 
0.477 -0.317 0.064 3 
0.485 -0.337 0.195 3 
0.482 -0.327 0.194 3 
0.477 -0.355 0.064 3 
0.467 -0.096 0.052 3 
0.466 -0.076 0.052 3 
0.466 -0.066 0.052 3 
0.465 -0.055 0.052 3 
0.469 -0.215 0.014 3 
0.466 -0.047 0.052 3 
0.469 -0.197 0.014 3 
0.468 -0.185 0.014 3 
0.471 -0.165 0.172 3 
0.469 -0.135 0.143 3 
0.477 -0.345 0.014 3 
0.472 -0.115 0.182 3 
0.472 -0.095 0.182 3 
0.471 -0.086 0.182 3 
0.472 -0.076 0.182 3 
0.467 -0.176 0.014 3 
0.478 -0.335 0.064 3 
0.472 -0.073 0.182 3 
0.473 -0.107 0.183 3 
0.465 0.303 0.142 3 
0.465 0.202 0.14 3 
0.464 0.193 0.142 3 
0.465 0.312 0.143 3 
0.465 0.322 0.143 3 
0.468 0.214 0.189 3 
0.464 0.092 0.138 3 
0.463 0.182 0.033 3 
0.465 0.217 0.143 3 
0.468 0.173 0.188 3 
0.468 0.182 0.188 3 
0.452 0.067 0.135 3 
0.465 0.073 0.052 3 
0.465 0.214 0.143 3 
0.468 0.226 0.19 3 
0.465 0.19 0.142 3 
0.468 0.194 0.188 3 
0.469 0.203 0.189 3 
0.466 0.134 0.164 3 
0.466 0.344 0.141 3 
0.464 0.252 0.054 3 
0.464 0.308 0.139 3 
0.464 0.261 0.138 3 
0.465 0.184 0.142 3 
0.464 0.213 0.137 3 
0.46 0.069 0.134 3 
0.465 0.173 0.142 3 
0.475 0.359 0.199 3 
0.464 0.081 0.16 3 
0.464 0.136 0.141 3 
0.465 0.161 0.144 3 
0.464 0.133 0.141 3 
0.465 0.153 0.144 3 
0.465 0.142 0.144 3 
0.464 0.078 0.143 3 
0.464 0.163 0.063 3 
0.465 0.084 0.144 3 
0.465 0.092 0.144 3 
0.465 0.098 0.144 3 
0.464 0.103 0.144 3 
0.468 0.083 0.186 3 
0.469 0.094 0.186 3 
0.47 0.314 0.194 3 
0.469 0.102 0.187 3 
0.468 0.284 0.174 3 
0.47 0.114 0.187 3 
0.47 0.122 0.187 3 
0.464 0.114 0.144 3 
0.464 0.122 0.144 3 
0.465 0.133 0.144 3 
0.47 0.134 0.188 3 
0.468 0.162 0.188 3 
0.469 0.154 0.188 3 
0.47 0.142 0.188 3 
0.464 0.284 0.093 3 
0.466 0.262 0.144 3 
0.464 0.143 0.084 3 
0.472 0.341 0.197 3 
0.471 0.333 0.196 3 
0.471 0.322 0.195 3 
0.467 0.222 0.189 3 
0.465 0.333 0.143 3 
0.47 0.317 0.194 3 
0.464 0.232 0.074 3 
0.464 0.222 0.143 3 
0.48 0.241 0.195 3 
0.463 0.233 0.143 3 
0.464 0.243 0.143 3 
0.465 0.252 0.144 3 
0.473 0.353 0.198 3 
0.465 0.147 0.063 3 
0.465 0.274 0.144 3 
0.465 0.28 0.144 3 
0.468 0.244 0.19 3 
0.468 0.254 0.191 3 
0.469 0.264 0.191 3 
0.468 0.272 0.191 3 
0.468 0.282 0.192 3 
0.47 0.294 0.193 3 
0.465 0.343 0.15 3 
0.464 0.183 0.114 3 
0.47 0.304 0.194 3 
0.465 0.082 0.163 3 
0.465 0.262 0.164 3 
0.466 0.269 0.164 3 
0.464 0.294 0.094 3 
0.469 0.302 0.184 3 
0.467 0.29 0.183 3 
0.467 0.284 0.183 3 
0.467 0.274 0.182 3 
0.464 0.283 0.023 3 
0.464 0.294 0.113 3 
0.465 0.073 0.163 3 
0.465 0.274 0.153 3 
0.466 0.093 0.163 3 
0.466 0.104 0.163 3 
0.466 0.112 0.163 3 
0.466 0.123 0.163 3 
0.466 0.143 0.164 3 
0.466 0.154 0.164 3 
0.467 0.163 0.164 3 
0.465 0.174 0.164 3 
0.465 0.179 0.164 3 
0.465 0.105 0.036 3 
0.466 0.321 0.164 3 
0.462 0.332 0.122 3 
0.467 0.333 0.164 3 
0.466 0.335 0.164 3 
0.464 0.343 0.164 3 
0.467 0.172 0.182 3 
0.467 0.152 0.181 3 
0.464 0.204 0.142 3 
0.464 0.203 0.033 3 
0.464 0.244 0.093 3 
0.464 0.102 0.084 3 
0.469 0.305 0.184 3 
0.464 0.073 0.16 3 
0.465 0.194 0.162 3 
0.465 0.202 0.162 3 
0.466 0.212 0.163 3 
0.465 0.223 0.163 3 
0.465 0.232 0.163 3 
0.465 0.244 0.163 3 
0.465 0.253 0.164 3 
0.466 0.172 0.173 3 
0.465 0.263 0.172 3 
0.464 0.342 0.143 3 
0.467 0.274 0.174 3 
0.464 0.344 0.176 3 
0.466 0.203 0.174 3 
0.464 0.246 0.143 3 
0.465 0.194 0.173 3 
0.466 0.294 0.142 3 
0.464 0.274 0.032 3 
0.465 0.183 0.173 3 
0.465 0.253 0.172 3 
0.466 0.163 0.173 3 
0.468 0.144 0.173 3 
0.468 0.133 0.173 3 
0.468 0.124 0.173 3 
0.464 0.242 0.104 3 
0.468 0.113 0.172 3 
0.467 0.104 0.172 3 
0.465 0.102 0.044 3 
0.463 0.214 0.013 3 
0.463 0.343 0.173 3 
0.464 0.111 0.114 3 
0.464 0.094 0.052 3 
0.447 0.069 0.159 3 
0.464 0.19 0.167 3 
0.468 0.294 0.172 3 
0.467 0.303 0.172 3 
0.467 0.313 0.172 3 
0.467 0.323 0.173 3 
0.467 0.333 0.173 3 
0.465 0.338 0.173 3 
0.466 0.314 0.163 3 
0.469 0.348 0.184 3 
0.469 0.332 0.183 3 
0.469 0.322 0.182 3 
0.467 0.088 0.174 3 
0.467 0.082 0.174 3 
0.466 0.224 0.172 3 
0.466 0.233 0.172 3 
0.466 0.242 0.172 3 
0.464 0.214 0.112 3 
0.465 0.123 0.152 3 
0.464 0.262 0.063 3 
0.463 0.322 0.054 3 
0.462 0.313 0.014 3 
0.464 0.282 0.133 3 
0.472 0.348 0.194 3 
0.471 0.34 0.194 3 
0.462 0.337 0.062 3 
0.465 0.092 0.152 3 
0.465 0.103 0.152 3 
0.465 0.114 0.152 3 
0.463 0.243 0.043 3 
0.465 0.134 0.152 3 
0.465 0.124 0.063 3 
0.465 0.142 0.152 3 
0.465 0.153 0.153 3 
0.465 0.164 0.153 3 
0.471 0.333 0.193 3 
0.467 0.164 0.184 3 
0.469 0.144 0.184 3 
0.469 0.133 0.184 3 
0.464 0.141 0.149 3 
0.464 0.094 0.103 3 
0.464 0.128 0.146 3 
0.464 0.222 0.148 3 
0.463 0.073 0.143 3 
0.464 0.276 0.15 3 
0.464 0.286 0.15 3 
0.466 0.324 0.152 3 
0.466 0.334 0.152 3 
0.464 0.342 0.152 3 
0.461 0.244 0.013 3 
0.465 0.173 0.153 3 
0.464 0.193 0.151 3 
0.465 0.226 0.152 3 
0.466 0.254 0.153 3 
0.466 0.263 0.153 3 
0.465 0.284 0.153 3 
0.465 0.293 0.153 3 
0.466 0.304 0.154 3 
0.466 0.311 0.154 3 
0.468 0.343 0.184 3 
0.464 0.089 0.154 3 
0.473 0.357 0.192 3 
0.468 0.152 0.173 3 
0.466 0.255 0.184 3 
0.466 0.252 0.184 3 
0.466 0.243 0.184 3 
0.467 0.234 0.184 3 
0.468 0.223 0.184 3 
0.464 0.083 0.074 3 
0.468 0.214 0.183 3 
0.464 0.081 0.154 3 
0.465 0.079 0.154 3 
0.464 0.234 0.157 3 
0.464 0.212 0.123 3 
0.468 0.202 0.183 3 
0.467 0.193 0.182 3 
0.466 0.183 0.182 3 
0.464 0.243 0.16 3 
0.466 0.282 0.162 3 
0.466 0.291 0.162 3 
0.466 0.301 0.163 3 
0.47 0.114 0.184 3 
0.465 0.182 0.153 3 
0.465 0.194 0.154 3 
0.465 0.199 0.154 3 
0.464 0.202 0.153 3 
0.465 0.211 0.154 3 
0.465 0.223 0.154 3 
0.464 0.234 0.154 3 
0.464 0.237 0.154 3 
0.469 0.122 0.184 3 
0.464 0.183 0.093 3 
0.464 0.298 0.136 3 
0.469 0.102 0.184 3 
0.468 0.094 0.183 3 
0.468 0.083 0.183 3 
0.467 0.207 0.174 3 
0.465 0.341 0.025 3 
0.465 0.273 0.093 3 
0.462 0.337 0.054 3 
0.464 0.073 0.154 3 
0.464 0.174 0.063 3 
0.463 0.243 0.054 3 
0.464 0.214 0.024 3 
0.463 0.162 0.033 3 
0.46 0.063 0.063 3 
0.464 0.072 0.063 3 
0.465 0.084 0.063 3 
0.464 0.091 0.063 3 
0.465 0.094 0.063 3 
0.464 0.1 0.063 3 
0.465 0.103 0.063 3 
0.465 0.114 0.063 3 
0.465 0.133 0.063 3 
0.465 0.141 0.063 3 
0.464 0.143 0.063 3 
0.464 0.154 0.052 3 
0.464 0.182 0.063 3 
0.464 0.194 0.063 3 
0.464 0.2 0.063 3 
0.465 0.203 0.063 3 
0.464 0.214 0.063 3 
0.464 0.223 0.063 3 
0.464 0.232 0.063 3 
0.464 0.243 0.063 3 
0.464 0.252 0.063 3 
0.464 0.271 0.063 3 
0.465 0.275 0.063 3 
0.464 0.284 0.063 3 
0.463 0.293 0.062 3 
0.463 0.322 0.062 3 
0.464 0.2 0.054 3 
0.464 0.067 0.052 3 
0.465 0.083 0.052 3 
0.465 0.091 0.052 3 
0.463 0.102 0.052 3 
0.464 0.113 0.052 3 
0.464 0.124 0.052 3 
0.464 0.132 0.052 3 
0.464 0.143 0.052 3 
0.464 0.163 0.052 3 
0.463 0.173 0.052 3 
0.465 0.287 0.051 3 
0.464 0.124 0.055 3 
0.464 0.132 0.055 3 
0.464 0.194 0.054 3 
0.461 0.333 0.062 3 
0.465 0.203 0.054 3 
0.464 0.214 0.054 3 
0.464 0.223 0.054 3 
0.464 0.232 0.054 3 
0.464 0.262 0.054 3 
0.464 0.274 0.054 3 
0.464 0.28 0.054 3 
0.465 0.284 0.054 3 
0.463 0.293 0.054 3 
0.463 0.302 0.054 3 
0.465 0.073 0.057 3 
0.464 0.11 0.06 3 
0.465 0.209 0.06 3 
0.463 0.302 0.062 3 
0.464 0.272 0.074 3 
0.464 0.284 0.074 3 
0.464 0.294 0.074 3 
0.464 0.303 0.074 3 
0.464 0.313 0.074 3 
0.464 0.323 0.074 3 
0.463 0.332 0.074 3 
0.464 0.34 0.074 3 
0.462 0.311 0.062 3 
0.464 0.203 0.093 3 
0.461 0.064 0.079 3 
0.464 0.336 0.08 3 
0.461 0.142 0.012 3 
0.464 0.154 0.063 3 
0.464 0.262 0.074 3 
0.463 0.222 0.082 3 
0.464 0.244 0.082 3 
0.464 0.253 0.082 3 
0.463 0.262 0.082 3 
0.464 0.272 0.082 3 
0.464 0.284 0.082 3 
0.464 0.303 0.082 3 
0.464 0.313 0.082 3 
0.467 0.343 0.083 3 
0.463 0.072 0.084 3 
0.463 0.083 0.084 3 
0.464 0.094 0.084 3 
0.464 0.108 0.084 3 
0.465 0.125 0.074 3 
0.465 0.203 0.065 3 
0.465 0.084 0.068 3 
0.465 0.092 0.068 3 
0.465 0.136 0.068 3 
0.465 0.269 0.068 3 
0.461 0.064 0.071 3 
0.465 0.103 0.071 3 
0.439 0.059 0.072 3 
0.464 0.073 0.074 3 
0.464 0.094 0.073 3 
0.464 0.102 0.073 3 
0.464 0.108 0.073 3 
0.465 0.114 0.074 3 
0.465 0.122 0.074 3 
0.465 0.097 0.049 3 
0.464 0.132 0.073 3 
0.464 0.143 0.073 3 
0.464 0.154 0.073 3 
0.464 0.163 0.073 3 
0.464 0.174 0.074 3 
0.464 0.183 0.074 3 
0.464 0.194 0.074 3 
0.464 0.203 0.074 3 
0.463 0.213 0.073 3 
0.464 0.223 0.074 3 
0.464 0.238 0.074 3 
0.465 0.244 0.074 3 
0.464 0.252 0.074 3 
0.463 0.243 0.024 3 
0.463 0.064 0.023 3 
0.464 0.072 0.023 3 
0.463 0.083 0.023 3 
0.464 0.094 0.023 3 
0.463 0.102 0.023 3 
0.464 0.113 0.023 3 
0.464 0.124 0.023 3 
0.462 0.142 0.022 3 
0.463 0.154 0.022 3 
0.463 0.162 0.022 3 
0.463 0.174 0.022 3 
0.462 0.184 0.022 3 
0.463 0.202 0.024 3 
0.463 0.234 0.024 3 
0.462 0.053 0.023 3 
0.463 0.252 0.024 3 
0.463 0.264 0.024 3 
0.463 0.273 0.024 3 
0.463 0.292 0.023 3 
0.464 0.302 0.023 3 
0.463 0.314 0.023 3 
0.462 0.321 0.023 3 
0.464 0.333 0.022 3 
0.463 0.339 0.022 3 
0.465 0.073 0.031 3 
0.465 0.1 0.031 3 
0.465 0.116 0.031 3 
0.463 0.123 0.012 3 
0.46 0.053 0.034 3 
0.461 0.192 0.014 3 
0.45 0.048 0.014 3 
0.459 0.053 0.013 3 
0.461 0.064 0.013 3 
0.462 0.074 0.012 3 
0.462 0.083 0.012 3 
0.462 0.093 0.012 3 
0.462 0.104 0.012 3 
0.462 0.112 0.012 3 
0.462 0.134 0.012 3 
0.462 0.154 0.014 3 
0.462 0.162 0.014 3 
0.462 0.173 0.014 3 
0.461 0.184 0.014 3 
0.464 0.064 0.034 3 
0.462 0.204 0.014 3 
0.462 0.224 0.013 3 
0.462 0.233 0.013 3 
0.461 0.253 0.013 3 
0.462 0.263 0.013 3 
0.462 0.282 0.012 3 
0.462 0.294 0.012 3 
0.461 0.303 0.012 3 
0.463 0.324 0.014 3 
0.461 0.333 0.014 3 
0.462 0.338 0.014 3 
0.464 0.214 0.043 3 
0.465 0.083 0.044 3 
0.465 0.091 0.044 3 
0.464 0.094 0.044 3 
0.464 0.096 0.044 3 
0.464 0.113 0.044 3 
0.464 0.124 0.044 3 
0.464 0.132 0.044 3 
0.464 0.143 0.044 3 
0.463 0.154 0.044 3 
0.464 0.163 0.044 3 
0.464 0.174 0.044 3 
0.463 0.182 0.044 3 
0.464 0.194 0.044 3 
0.464 0.202 0.043 3 
0.464 0.075 0.044 3 
0.464 0.223 0.043 3 
0.464 0.252 0.043 3 
0.463 0.222 0.024 3 
0.463 0.264 0.043 3 
0.463 0.273 0.043 3 
0.464 0.283 0.043 3 
0.464 0.293 0.043 3 
0.463 0.302 0.043 3 
0.463 0.312 0.043 3 
0.462 0.334 0.042 3 
0.462 0.338 0.042 3 
0.456 0.052 0.047 3 
0.464 0.075 0.047 3 
0.463 0.243 0.032 3 
0.464 0.072 0.034 3 
0.463 0.083 0.034 3 
0.464 0.091 0.033 3 
0.464 0.102 0.033 3 
0.464 0.113 0.033 3 
0.464 0.124 0.033 3 
0.464 0.132 0.033 3 
0.463 0.143 0.033 3 
0.463 0.154 0.033 3 
0.463 0.173 0.033 3 
0.463 0.193 0.033 3 
0.464 0.214 0.032 3 
0.463 0.222 0.032 3 
0.463 0.234 0.032 3 
0.465 0.089 0.076 3 
0.463 0.252 0.032 3 
0.463 0.264 0.032 3 
0.464 0.283 0.034 3 
0.464 0.293 0.034 3 
0.464 0.302 0.034 3 
0.463 0.312 0.034 3 
0.463 0.322 0.034 3 
0.462 0.331 0.034 3 
0.464 0.34 0.034 3 
0.458 0.052 0.042 3 
0.464 0.064 0.044 3 
0.464 0.07 0.044 3 
0.465 0.073 0.044 3 
0.464 0.144 0.114 3 
0.465 0.128 0.117 3 
0.464 0.317 0.117 3 
0.464 0.304 0.116 3 
0.465 0.279 0.116 3 
0.464 0.194 0.114 3 
0.464 0.174 0.114 3 
0.464 0.163 0.114 3 
0.464 0.152 0.114 3 
0.465 0.218 0.118 3 
0.464 0.133 0.114 3 
0.464 0.124 0.114 3 
0.465 0.117 0.114 3 
0.464 0.294 0.082 3 
0.465 0.114 0.114 3 
0.464 0.103 0.114 3 
0.464 0.094 0.114 3 
0.463 0.083 0.114 3 
0.464 0.103 0.119 3 
0.464 0.288 0.122 3 
0.465 0.292 0.122 3 
0.465 0.302 0.122 3 
0.465 0.312 0.122 3 
0.465 0.322 0.123 3 
0.465 0.332 0.123 3 
0.463 0.336 0.123 3 
0.467 0.344 0.094 3 
0.465 0.103 0.122 3 
0.464 0.111 0.122 3 
0.465 0.114 0.122 3 
0.464 0.124 0.122 3 
0.464 0.133 0.122 3 
0.464 0.144 0.122 3 
0.465 0.175 0.106 3 
0.462 0.321 0.043 3 
0.464 0.203 0.112 3 
0.465 0.342 0.112 3 
0.464 0.314 0.111 3 
0.465 0.227 0.11 3 
0.465 0.204 0.109 3 
0.465 0.166 0.109 3 
0.465 0.127 0.109 3 
0.465 0.221 0.112 3 
0.465 0.292 0.105 3 
0.465 0.276 0.105 3 
0.464 0.269 0.104 3 
0.464 0.263 0.104 3 
0.463 0.253 0.104 3 
0.464 0.323 0.082 3 
0.465 0.233 0.104 3 
0.464 0.182 0.054 3 
0.464 0.223 0.112 3 
0.464 0.233 0.112 3 
0.463 0.244 0.112 3 
0.463 0.253 0.112 3 
0.464 0.263 0.113 3 
0.464 0.272 0.113 3 
0.464 0.282 0.113 3 
0.465 0.302 0.114 3 
0.465 0.311 0.114 3 
0.465 0.315 0.114 3 
0.464 0.32 0.114 3 
0.465 0.331 0.114 3 
0.464 0.334 0.114 3 
0.464 0.341 0.114 3 
0.462 0.072 0.113 3 
0.463 0.34 0.134 3 
0.464 0.144 0.133 3 
0.464 0.133 0.133 3 
0.464 0.122 0.133 3 
0.464 0.114 0.133 3 
0.464 0.103 0.133 3 
0.464 0.092 0.133 3 
0.465 0.087 0.133 3 
0.464 0.084 0.133 3 
0.464 0.147 0.133 3 
0.463 0.333 0.134 3 
0.465 0.329 0.134 3 
0.465 0.322 0.134 3 
0.465 0.342 0.123 3 
0.464 0.311 0.134 3 
0.464 0.304 0.133 3 
0.465 0.299 0.134 3 
0.465 0.293 0.133 3 
0.465 0.153 0.133 3 
0.465 0.164 0.134 3 
0.465 0.172 0.134 3 
0.465 0.184 0.134 3 
0.465 0.192 0.134 3 
0.465 0.202 0.134 3 
0.464 0.204 0.134 3 
0.465 0.208 0.134 3 
0.464 0.213 0.134 3 
0.463 0.224 0.134 3 
0.463 0.233 0.134 3 
0.463 0.253 0.124 3 
0.463 0.239 0.134 3 
0.464 0.27 0.135 3 
0.463 0.334 0.137 3 
0.465 0.21 0.123 3 
0.462 0.072 0.124 3 
0.465 0.342 0.126 3 
0.464 0.279 0.124 3 
0.464 0.272 0.124 3 
0.464 0.263 0.124 3 
0.463 0.244 0.123 3 
0.463 0.232 0.123 3 
0.464 0.224 0.123 3 
0.463 0.083 0.124 3 
0.464 0.203 0.123 3 
0.464 0.194 0.123 3 
0.465 0.189 0.123 3 
0.464 0.183 0.123 3 
0.464 0.172 0.122 3 
0.464 0.163 0.122 3 
0.464 0.152 0.122 3 
0.465 0.119 0.084 3 
0.464 0.092 0.124 3 
0.465 0.103 0.127 3 
0.464 0.183 0.128 3 
0.465 0.305 0.131 3 
0.464 0.324 0.131 3 
0.465 0.106 0.13 3 
0.464 0.161 0.13 3 
0.464 0.172 0.131 3 
0.463 0.253 0.132 3 
0.465 0.094 0.033 3 
0.464 0.26 0.132 3 
0.463 0.132 0.022 3 
0.465 0.264 0.133 3 
0.464 0.273 0.133 3 
0.465 0.277 0.133 3 
0.464 0.211 0.093 3 
0.464 0.152 0.092 3 
0.464 0.163 0.092 3 
0.463 0.064 0.052 3 
0.464 0.174 0.093 3 
0.464 0.194 0.093 3 
0.465 0.218 0.093 3 
0.464 0.223 0.093 3 
0.464 0.232 0.093 3 
0.464 0.254 0.093 3 
0.464 0.263 0.093 3 
0.464 0.269 0.093 3 
0.465 0.279 0.093 3 
0.465 0.288 0.094 3 
0.464 0.143 0.092 3 
0.464 0.297 0.094 3 
0.465 0.304 0.094 3 
0.465 0.311 0.094 3 
0.464 0.313 0.094 3 
0.464 0.32 0.094 3 
0.465 0.324 0.094 3 
0.465 0.331 0.094 3 
0.462 0.331 0.094 3 
0.465 0.114 0.095 3 
0.464 0.294 0.096 3 
0.464 0.34 0.097 3 
0.465 0.169 0.098 3 
0.462 0.272 0.013 3 
0.463 0.231 0.084 3 
0.465 0.114 0.084 3 
0.464 0.124 0.084 3 
0.464 0.13 0.084 3 
0.465 0.133 0.084 3 
0.465 0.141 0.084 3 
0.463 0.154 0.084 3 
0.463 0.162 0.084 3 
0.461 0.333 0.054 3 
0.463 0.174 0.084 3 
0.464 0.183 0.084 3 
0.464 0.194 0.084 3 
0.463 0.202 0.084 3 
0.464 0.211 0.084 3 
0.464 0.214 0.104 3 
0.463 0.335 0.088 3 
0.468 0.345 0.089 3 
0.462 0.314 0.054 3 
0.465 0.114 0.09 3 
0.465 0.178 0.09 3 
0.462 0.193 0.022 3 
0.463 0.072 0.092 3 
0.464 0.083 0.092 3 
0.464 0.094 0.092 3 
0.464 0.102 0.092 3 
0.464 0.113 0.092 3 
0.464 0.124 0.092 3 
0.464 0.132 0.092 3 
0.464 0.124 0.103 3 
0.464 0.32 0.102 3 
0.466 0.332 0.103 3 
0.464 0.333 0.103 3 
0.465 0.338 0.103 3 
0.468 0.345 0.103 3 
0.465 0.269 0.063 3 
0.464 0.232 0.043 3 
0.462 0.072 0.103 3 
0.464 0.083 0.103 3 
0.464 0.102 0.103 3 
0.464 0.113 0.103 3 
0.465 0.273 0.099 3 
0.464 0.133 0.103 3 
0.464 0.144 0.103 3 
0.464 0.152 0.103 3 
0.464 0.163 0.103 3 
0.464 0.174 0.103 3 
0.464 0.183 0.103 3 
0.464 0.191 0.104 3 
0.465 0.195 0.104 3 
0.464 0.203 0.104 3 
0.464 0.223 0.104 3 
0.464 0.232 0.098 3 
0.465 0.279 0.102 3 
0.465 0.236 0.101 3 
0.463 0.332 0.082 3 
0.464 0.284 0.102 3 
0.465 0.292 0.102 3 
0.465 0.301 0.102 3 
0.465 0.308 0.102 3 
0.464 0.313 0.102 3 
0.465 0.224 0.101 3 
0.465 0.183 0.101 3 
0.465 0.324 0.1 3 
0.587 -0.051 0.084 3 
0.552 -0.053 0.058 3 
0.594 -0.063 0.1 3 
0.597 -0.048 0.1 3 
0.595 -0.036 0.1 3 
0.582 -0.072 0.099 3 
0.574 -0.071 0.087 3 
0.561 -0.055 0.061 3 
0.566 -0.034 0.083 3 
0.588 -0.039 0.084 3 
0.582 -0.043 0.084 3 
0.564 -0.041 0.054 3 
0.581 -0.046 0.084 3 
0.563 -0.048 0.061 3 
0.569 -0.038 0.061 3 
0.582 -0.065 0.091 3 
0.584 -0.061 0.091 3 
0.591 -0.055 0.092 3 
0.59 -0.051 0.092 3 
0.596 -0.044 0.092 3 
0.594 -0.04 0.092 3 
0.578 -0.024 0.058 3 
0.564 -0.055 0.069 3 
0.583 -0.035 0.091 3 
0.576 -0.027 0.058 3 
0.559 -0.037 0.033 3 
0.552 -0.053 0.054 3 
0.558 -0.047 0.054 3 
0.57 -0.031 0.054 3 
0.564 -0.051 0.068 3 
0.567 -0.038 0.019 3 
0.562 -0.037 0.023 3 
0.568 -0.034 0.044 3 
0.562 -0.037 0.044 3 
0.564 -0.03 0.044 3 
0.565 -0.037 0.026 3 
0.578 -0.031 0.025 3 
0.568 -0.038 0.054 3 
0.572 -0.031 0.072 3 
0.571 -0.045 0.072 3 
0.572 -0.038 0.072 3 
0.574 -0.06 0.08 3 
0.574 -0.042 0.08 3 
0.592 -0.078 0.107 3 
0.575 -0.067 0.083 3 
0.573 -0.071 0.083 3 
0.564 -0.044 0.061 3 
0.589 -0.077 0.103 3 
0.594 -0.071 0.104 3 
0.573 -0.027 0.061 3 
0.582 -0.057 0.084 3 
0.585 -0.028 0.024 3 
0.563 -0.065 0.072 3 
0.554 -0.043 0.047 3 
0.565 -0.034 0.033 3 
0.568 -0.056 0.072 3 
