# .PCD v0.7 - Point Cloud Data file
FIELDS x y z intensity
SIZE 4 4 4 4
TYPE F F F F
COUNT 1 1 1 1
WIDTH 2475
HEIGHT 1
VIEWPOINT 0 0 0 1 0 0 0
POINTS 2475
DATA ascii
0.344 0.014 0.003 0 
0.372 0.004 0 0 
0.345 0.008 0.003 0 
0.344 0.019 0.008 0 
0.356 0.024 0.003 0 
0.354 0.024 0.002 0 
0.364 0.004 0 0 
0.371 -0.237 -0.025 1 
0.373 -0.227 -0.025 1 
0.373 -0.225 -0.024 1 
0.363 -0.156 -0.018 1 
0.363 -0.146 -0.018 1 
0.361 -0.135 -0.017 1 
0.359 -0.125 -0.016 1 
0.36 -0.062 -0.015 1 
0.36 -0.037 -0.015 1 
0.36 -0.036 -0.014 1 
0.36 -0.032 -0.014 1 
0.354 0.029 -0.013 1 
0.354 0.039 -0.013 1 
0.353 0.104 -0.014 1 
0.352 0.138 -0.014 1 
0.351 0.154 -0.015 1 
0.342 0.203 -0.015 1 
0.375 -0.239 -0.024 1 
0.378 -0.225 -0.024 1 
0.374 -0.197 -0.022 1 
0.371 -0.146 -0.019 1 
0.362 -0.095 -0.014 1 
0.362 -0.086 -0.014 1 
0.362 -0.055 -0.014 1 
0.364 -0.026 -0.015 1 
0.361 0.044 -0.014 1 
0.361 0.074 -0.014 1 
0.361 0.094 -0.015 1 
0.361 0.098 -0.015 1 
0.354 0.11 -0.012 1 
0.354 0.123 -0.013 1 
0.354 0.134 -0.013 1 
0.352 0.173 -0.014 1 
0.353 0.182 -0.015 1 
0.352 0.204 -0.016 1 
0.348 0.208 -0.015 1 
0.346 0.208 -0.014 1 
0.384 -0.255 -0.026 1 
0.383 -0.246 -0.025 1 
0.385 -0.233 -0.025 1 
0.374 -0.184 -0.019 1 
0.373 -0.136 -0.017 1 
0.374 -0.126 -0.017 1 
0.372 -0.115 -0.016 1 
0.369 -0.095 -0.015 1 
0.368 -0.085 -0.014 1 
0.368 -0.083 -0.014 1 
0.372 -0.075 -0.016 1 
0.37 -0.045 -0.015 1 
0.372 -0.036 -0.015 1 
0.353 0.003 -0.009 1 
0.341 0.011 -0.005 1 
0.344 0.019 -0.006 1 
0.364 0.084 -0.014 1 
0.364 0.09 -0.014 1 
0.364 0.122 -0.014 1 
0.364 0.124 -0.015 1 
0.364 0.127 -0.015 1 
0.364 0.153 -0.015 1 
0.381 -0.246 -0.024 1 
0.356 0.177 -0.014 1 
0.359 0.194 -0.016 1 
0.394 -0.266 -0.027 1 
0.393 -0.26 -0.027 1 
0.389 -0.245 -0.024 1 
0.38 -0.205 -0.02 1 
0.383 -0.155 -0.019 1 
0.374 -0.091 -0.015 1 
0.373 -0.066 -0.014 1 
0.374 -0.055 -0.014 1 
0.374 -0.036 -0.014 1 
0.373 -0.025 -0.014 1 
0.372 -0.016 -0.014 1 
0.371 -0.005 -0.013 1 
0.347 0.005 -0.005 1 
0.344 0.016 -0.004 1 
0.364 0.027 -0.011 1 
0.373 0.079 -0.015 1 
0.371 0.084 -0.014 1 
0.373 0.104 -0.015 1 
0.372 0.123 -0.015 1 
0.37 0.133 -0.015 1 
0.366 0.164 -0.015 1 
0.36 0.203 -0.015 1 
0.361 0.222 -0.016 1 
0.361 0.225 -0.016 1 
0.391 -0.226 -0.022 1 
0.384 -0.173 -0.018 1 
0.384 -0.126 -0.017 1 
0.384 -0.116 -0.017 1 
0.384 -0.114 -0.016 1 
0.381 -0.096 -0.015 1 
0.384 -0.087 -0.016 1 
0.383 -0.075 -0.016 1 
0.379 -0.066 -0.014 1 
0.38 -0.059 -0.014 1 
0.382 -0.055 -0.015 1 
0.381 -0.049 -0.015 1 
0.378 -0.045 -0.014 1 
0.38 -0.035 -0.014 1 
0.381 -0.03 -0.015 1 
0.38 -0.026 -0.014 1 
0.354 0.024 -0.006 1 
0.374 0.041 -0.013 1 
0.378 0.073 -0.014 1 
0.374 0.138 -0.015 1 
0.373 0.143 -0.014 1 
0.373 0.145 -0.014 1 
0.37 0.183 -0.015 1 
0.372 0.191 -0.016 1 
0.367 0.224 -0.016 1 
0.393 -0.216 -0.02 1 
0.392 -0.207 -0.02 1 
0.391 -0.196 -0.019 1 
0.39 -0.186 -0.018 1 
0.389 -0.155 -0.017 1 
0.374 -0.221 -0.025 1 
0.391 -0.107 -0.017 1 
0.388 -0.075 -0.015 1 
0.386 -0.064 -0.014 1 
0.386 -0.046 -0.014 1 
0.383 -0.015 -0.014 1 
0.37 0.002 -0.009 1 
0.356 0.024 -0.005 1 
0.382 0.053 -0.014 1 
0.385 0.063 -0.015 1 
0.384 0.081 -0.015 1 
0.383 0.084 -0.014 1 
0.384 0.099 -0.015 1 
0.384 0.113 -0.015 1 
0.383 0.123 -0.015 1 
0.38 0.142 -0.015 1 
0.379 0.143 -0.014 1 
0.379 0.154 -0.015 1 
0.382 0.164 -0.016 1 
0.402 -0.267 -0.023 1 
0.371 0.054 -0.014 1 
0.402 -0.256 -0.022 1 
0.393 -0.125 -0.015 1 
0.394 -0.115 -0.016 1 
0.394 -0.091 -0.015 1 
0.392 -0.068 -0.014 1 
0.393 -0.066 -0.015 1 
0.393 -0.058 -0.015 1 
0.395 -0.056 -0.015 1 
0.393 -0.046 -0.015 1 
0.393 -0.042 -0.014 1 
0.394 -0.03 -0.015 1 
0.388 -0.015 -0.013 1 
0.386 -0.005 -0.012 1 
0.361 0.003 -0.005 1 
0.371 0.028 -0.008 1 
0.39 0.063 -0.014 1 
0.399 -0.242 -0.025 1 
0.39 0.065 -0.014 1 
0.392 0.073 -0.015 1 
0.391 0.083 -0.015 1 
0.39 0.089 -0.015 1 
0.389 0.093 -0.014 1 
0.388 0.099 -0.014 1 
0.39 0.102 -0.015 1 
0.387 0.134 -0.015 1 
0.386 0.144 -0.015 1 
0.383 0.213 -0.016 1 
0.384 0.223 -0.017 1 
0.413 -0.259 -0.023 1 
0.384 -0.216 -0.02 1 
0.403 -0.226 -0.019 1 
0.402 -0.105 -0.016 1 
0.399 -0.076 -0.015 1 
0.399 -0.074 -0.015 1 
0.399 -0.043 -0.014 1 
0.401 -0.035 -0.015 1 
0.383 0.002 -0.01 1 
0.382 0.033 -0.009 1 
0.383 0.035 -0.01 1 
0.391 0.043 -0.012 1 
0.394 0.045 -0.013 1 
0.396 0.104 -0.015 1 
0.395 0.112 -0.015 1 
0.395 0.115 -0.015 1 
0.393 0.124 -0.014 1 
0.392 0.143 -0.014 1 
0.392 0.15 -0.014 1 
0.392 0.154 -0.015 1 
0.391 0.155 -0.014 1 
0.391 0.162 -0.015 1 
0.388 0.183 -0.015 1 
0.382 0.243 -0.016 1 
0.384 0.25 -0.016 1 
0.414 -0.271 -0.022 1 
0.414 -0.247 -0.021 1 
0.409 -0.236 -0.019 1 
0.407 -0.227 -0.018 1 
0.404 -0.212 -0.017 1 
0.404 -0.2 -0.016 1 
0.404 -0.186 -0.016 1 
0.404 -0.146 -0.015 1 
0.404 -0.144 -0.015 1 
0.407 -0.077 -0.015 1 
0.403 -0.065 -0.014 1 
0.404 -0.05 -0.014 1 
0.402 -0.016 -0.013 1 
0.397 0.033 -0.012 1 
0.402 0.053 -0.014 1 
0.403 0.073 -0.014 1 
0.403 0.094 -0.015 1 
0.401 0.113 -0.014 1 
0.373 -0.106 -0.016 1 
0.399 0.123 -0.014 1 
0.394 0.172 -0.014 1 
0.392 0.193 -0.014 1 
0.39 0.203 -0.014 1 
0.39 0.205 -0.014 1 
0.393 0.22 -0.015 1 
0.392 0.241 -0.016 1 
0.422 -0.298 -0.023 1 
0.423 -0.27 -0.022 1 
0.422 -0.257 -0.021 1 
0.42 -0.239 -0.02 1 
0.361 -0.006 -0.013 1 
0.412 -0.217 -0.017 1 
0.409 -0.195 -0.015 1 
0.409 -0.185 -0.015 1 
0.413 -0.166 -0.016 1 
0.411 -0.16 -0.015 1 
0.409 -0.15 -0.014 1 
0.353 0.194 -0.016 1 
0.414 -0.136 -0.015 1 
0.416 -0.112 -0.016 1 
0.413 -0.106 -0.015 1 
0.413 -0.097 -0.015 1 
0.413 -0.088 -0.015 1 
0.412 -0.085 -0.014 1 
0.413 -0.076 -0.014 1 
0.414 -0.074 -0.015 1 
0.411 -0.065 -0.014 1 
0.411 -0.045 -0.014 1 
0.404 0 -0.014 1 
0.407 -0.005 -0.013 1 
0.41 0.002 -0.014 1 
0.407 0.054 -0.013 1 
0.408 0.063 -0.013 1 
0.41 0.093 -0.014 1 
0.403 0.134 -0.013 1 
0.404 0.144 -0.014 1 
0.402 0.154 -0.013 1 
0.399 0.163 -0.013 1 
0.403 0.174 -0.014 1 
0.403 0.183 -0.015 1 
0.403 0.185 -0.015 1 
0.399 0.211 -0.014 1 
0.403 0.224 -0.016 1 
0.399 0.233 -0.015 1 
0.421 -0.285 -0.019 1 
0.419 -0.225 -0.016 1 
0.419 -0.215 -0.016 1 
0.42 -0.196 -0.016 1 
0.419 -0.165 -0.015 1 
0.42 -0.076 -0.014 1 
0.422 -0.075 -0.015 1 
0.419 -0.065 -0.014 1 
0.418 -0.055 -0.013 1 
0.384 -0.186 -0.018 1 
0.394 -0.145 -0.016 1 
0.401 0.104 -0.014 1 
0.421 -0.035 -0.014 1 
0.421 0.034 -0.015 1 
0.419 -0.175 -0.015 1 
0.418 0.043 -0.014 1 
0.414 0.074 -0.013 1 
0.413 0.133 -0.014 1 
0.411 0.143 -0.013 1 
0.414 0.154 -0.014 1 
0.41 0.164 -0.014 1 
0.401 0.193 -0.012 1 
0.404 -0.239 -0.022 1 
0.408 0.224 -0.015 1 
0.404 0.241 -0.015 1 
0.402 0.246 -0.014 1 
0.401 0.264 -0.015 1 
0.4 0.268 -0.015 1 
0.431 -0.278 -0.019 1 
0.427 -0.196 -0.016 1 
0.427 -0.188 -0.015 1 
0.425 -0.182 -0.015 1 
0.423 -0.175 -0.014 1 
0.422 -0.165 -0.014 1 
0.422 -0.155 -0.013 1 
0.424 -0.146 -0.014 1 
0.424 -0.142 -0.014 1 
0.428 -0.129 -0.015 1 
0.424 -0.115 -0.013 1 
0.367 0.213 -0.016 1 
0.424 -0.106 -0.013 1 
0.424 -0.047 -0.013 1 
0.424 -0.027 -0.013 1 
0.429 0.036 -0.015 1 
0.42 0.064 -0.012 1 
0.418 0.073 -0.012 1 
0.424 0.093 -0.014 1 
0.421 0.104 -0.013 1 
0.421 0.123 -0.013 1 
0.413 0.193 -0.013 1 
0.412 0.212 -0.013 1 
0.414 0.232 -0.015 1 
0.412 0.243 -0.015 1 
0.412 0.246 -0.015 1 
0.409 0.253 -0.014 1 
0.407 0.273 -0.015 1 
0.432 -0.306 -0.018 1 
0.434 -0.29 -0.018 1 
0.434 -0.246 -0.016 1 
0.432 -0.225 -0.015 1 
0.434 -0.217 -0.015 1 
0.432 -0.205 -0.015 1 
0.381 -0.071 -0.015 1 
0.43 -0.195 -0.014 1 
0.365 0.103 -0.014 1 
0.432 -0.176 -0.014 1 
0.43 -0.157 -0.013 1 
0.43 -0.145 -0.013 1 
0.432 -0.136 -0.013 1 
0.431 -0.126 -0.013 1 
0.431 -0.116 -0.013 1 
0.431 -0.106 -0.013 1 
0.43 -0.096 -0.012 1 
0.431 -0.087 -0.013 1 
0.432 -0.075 -0.013 1 
0.433 -0.066 -0.013 1 
0.432 -0.056 -0.013 1 
0.352 0.175 -0.014 1 
0.432 -0.046 -0.013 1 
0.432 -0.037 -0.013 1 
0.432 -0.015 -0.013 1 
0.431 -0.006 -0.013 1 
0.431 0 -0.013 1 
0.432 0.043 -0.013 1 
0.422 0.154 -0.012 1 
0.42 0.164 -0.012 1 
0.42 0.183 -0.012 1 
0.418 0.194 -0.012 1 
0.418 0.274 -0.015 1 
0.416 0.283 -0.015 1 
0.443 -0.319 -0.018 1 
0.437 -0.296 -0.016 1 
0.44 -0.275 -0.016 1 
0.437 -0.255 -0.015 1 
0.44 -0.235 -0.015 1 
0.44 -0.227 -0.014 1 
0.434 -0.185 -0.012 1 
0.473 0.003 -0.021 1 
0.383 0.004 0.001 1 
0.434 0.053 -0.011 1 
0.434 0.063 -0.011 1 
0.434 0.072 -0.011 1 
0.433 0.084 -0.011 1 
0.434 0.094 -0.012 1 
0.431 0.123 -0.011 1 
0.431 0.142 -0.012 1 
0.429 0.154 -0.011 1 
0.427 0.163 -0.011 1 
0.424 0.204 -0.011 1 
0.423 0.214 -0.012 1 
0.423 0.224 -0.012 1 
0.423 0.232 -0.012 1 
0.423 0.243 -0.012 1 
0.422 0.253 -0.013 1 
0.424 0.272 -0.014 1 
0.422 0.281 -0.014 1 
0.424 0.286 -0.014 1 
0.425 0.29 -0.015 1 
0.433 -0.307 -0.013 1 
0.445 -0.295 -0.015 1 
0.446 -0.29 -0.015 1 
0.443 -0.216 -0.013 1 
0.441 -0.195 -0.012 1 
0.442 -0.185 -0.012 1 
0.444 -0.176 -0.012 1 
0.444 -0.166 -0.012 1 
0.44 -0.155 -0.011 1 
0.441 -0.146 -0.011 1 
0.442 -0.116 -0.011 1 
0.442 -0.105 -0.011 1 
0.444 -0.096 -0.011 1 
0.418 0.084 -0.012 1 
0.444 -0.086 -0.011 1 
0.443 -0.076 -0.011 1 
0.374 0.182 -0.014 1 
0.443 -0.066 -0.011 1 
0.443 -0.056 -0.011 1 
0.402 0.064 -0.014 1 
0.444 -0.036 -0.011 1 
0.415 0.054 -0.013 1 
0.443 -0.026 -0.011 1 
0.463 0.003 -0.016 1 
0.385 0.004 0.003 1 
0.442 0.042 -0.011 1 
0.441 0.054 -0.01 1 
0.441 0.064 -0.011 1 
0.441 0.074 -0.011 1 
0.439 0.084 -0.01 1 
0.432 0.174 -0.01 1 
0.431 0.183 -0.01 1 
0.431 0.194 -0.01 1 
0.429 0.224 -0.011 1 
0.453 -0.33 -0.016 1 
0.407 0.271 -0.014 1 
0.448 -0.321 -0.014 1 
0.454 -0.318 -0.015 1 
0.444 -0.285 -0.012 1 
0.442 -0.265 -0.011 1 
0.443 -0.257 -0.011 1 
0.414 0.103 -0.013 1 
0.444 -0.241 -0.011 1 
0.451 -0.227 -0.012 1 
0.45 -0.196 -0.011 1 
0.451 -0.146 -0.011 1 
0.45 -0.137 -0.01 1 
0.452 -0.096 -0.01 1 
0.44 -0.205 -0.012 1 
0.45 -0.085 -0.01 1 
0.448 -0.077 -0.009 1 
0.448 -0.067 -0.009 1 
0.449 -0.057 -0.009 1 
0.449 -0.037 -0.009 1 
0.39 -0.025 -0.014 1 
0.45 -0.001 -0.01 1 
0.444 0.113 -0.009 1 
0.443 0.123 -0.009 1 
0.442 0.133 -0.009 1 
0.439 0.163 -0.009 1 
0.439 0.173 -0.009 1 
0.434 0.204 -0.009 1 
0.434 0.228 -0.01 1 
0.434 0.253 -0.01 1 
0.434 0.259 -0.011 1 
0.434 0.267 -0.011 1 
0.433 0.284 -0.011 1 
0.451 -0.298 -0.011 1 
0.451 -0.286 -0.011 1 
0.452 -0.275 -0.011 1 
0.418 0.133 -0.013 1 
0.453 -0.266 -0.011 1 
0.452 -0.263 -0.01 1 
0.45 -0.246 -0.009 1 
0.454 -0.235 -0.01 1 
0.453 -0.215 -0.01 1 
0.454 -0.207 -0.01 1 
0.454 -0.185 -0.009 1 
0.454 -0.158 -0.009 1 
0.453 -0.125 -0.008 1 
0.453 -0.115 -0.008 1 
0.454 -0.107 -0.008 1 
0.442 0.143 -0.009 1 
0.452 0.044 -0.008 1 
0.453 0.054 -0.008 1 
0.452 0.064 -0.008 1 
0.452 0.072 -0.008 1 
0.451 0.092 -0.008 1 
0.451 0.103 -0.008 1 
0.412 0.19 -0.015 1 
0.443 0.183 -0.008 1 
0.438 0.204 -0.007 1 
0.439 0.243 -0.009 1 
0.439 0.284 -0.01 1 
0.434 0.303 -0.01 1 
0.381 0.184 -0.015 1 
0.462 -0.316 -0.011 1 
0.464 -0.004 -0.008 1 
0.454 0.133 -0.007 1 
0.452 0.153 -0.007 1 
0.444 0.271 -0.008 1 
0.443 0.291 -0.008 1 
0.443 0.3 -0.009 1 
0.407 -0.036 -0.015 1 
0.439 0.312 -0.008 1 
0.464 -0.339 -0.01 1 
0.463 -0.257 -0.007 1 
0.461 -0.215 -0.006 1 
0.463 -0.197 -0.006 1 
0.463 -0.157 -0.006 1 
0.465 -0.147 -0.006 1 
0.464 -0.136 -0.006 1 
0.462 -0.116 -0.005 1 
0.464 -0.076 -0.005 1 
0.384 -0.237 -0.025 1 
0.463 -0.057 -0.005 1 
0.463 -0.036 -0.005 1 
0.461 0.042 -0.005 1 
0.461 0.064 -0.005 1 
0.46 0.074 -0.005 1 
0.46 0.093 -0.005 1 
0.459 0.114 -0.005 1 
0.459 0.124 -0.005 1 
0.454 0.163 -0.005 1 
0.39 0 -0.012 1 
0.394 0.233 -0.016 1 
0.453 0.184 -0.005 1 
0.453 0.193 -0.005 1 
0.453 0.204 -0.005 1 
0.453 0.212 -0.006 1 
0.453 0.224 -0.006 1 
0.451 0.234 -0.006 1 
0.45 0.241 -0.006 1 
0.45 0.253 -0.006 1 
0.448 0.26 -0.006 1 
0.451 0.281 -0.007 1 
0.364 -0.079 -0.015 1 
0.468 -0.316 -0.007 1 
0.451 -0.045 -0.01 1 
0.468 -0.306 -0.006 1 
0.457 0.134 -0.005 1 
0.469 -0.287 -0.006 1 
0.468 -0.277 -0.006 1 
0.468 -0.255 -0.005 1 
0.468 -0.246 -0.005 1 
0.469 -0.235 -0.005 1 
0.467 -0.231 -0.005 1 
0.464 -0.223 -0.004 1 
0.464 -0.036 -0.003 1 
0.474 0.003 -0.005 1 
0.463 -0.177 -0.006 1 
0.454 0.253 -0.004 1 
0.452 0.264 -0.004 1 
0.453 0.27 -0.004 1 
0.443 -0.246 -0.011 1 
0.455 0.291 -0.005 1 
0.453 0.292 -0.005 1 
0.453 0.301 -0.005 1 
0.453 0.314 -0.006 1 
0.449 0.323 -0.005 1 
0.473 -0.345 -0.006 1 
0.472 -0.337 -0.005 1 
0.432 0.133 -0.012 1 
0.438 0.262 -0.009 1 
0.471 -0.325 -0.005 1 
0.404 0.004 0.011 1 
0.38 0.006 0.015 1 
0.353 0.142 -0.015 1 
0.36 -0.02 -0.015 1 
0.464 0.064 0 1 
0.464 0.113 -0.001 1 
0.463 0.123 -0.001 1 
0.453 0.324 -0.003 1 
0.453 0.327 -0.003 1 
0.472 -0.355 -0.003 1 
0.473 -0.328 -0.002 1 
0.382 -0.005 -0.013 1 
0.477 0.003 0 1 
0.403 -0.005 -0.014 1 
0.404 0.013 0.013 1 
0.402 0.244 -0.014 1 
0.41 0.024 0.012 1 
0.411 -0.025 -0.014 1 
0.411 0.026 0.012 1 
0.466 0.043 0.001 1 
0.463 0.194 0 1 
0.463 0.202 0 1 
0.475 -0.296 0 1 
0.476 -0.287 0 1 
0.475 -0.28 0.001 1 
0.475 -0.24 0.001 1 
0.472 -0.217 0.002 1 
0.471 -0.205 0.002 1 
0.47 -0.195 0.003 1 
0.47 -0.186 0.003 1 
0.47 -0.166 0.003 1 
0.47 -0.155 0.003 1 
0.469 -0.146 0.003 1 
0.374 -0.206 -0.022 1 
0.421 0.113 -0.013 1 
0.468 -0.137 0.004 1 
0.469 -0.107 0.004 1 
0.469 -0.096 0.004 1 
0.468 -0.085 0.004 1 
0.468 -0.077 0.004 1 
0.407 -0.126 -0.015 1 
0.449 -0.006 -0.01 1 
0.449 0.013 0.007 1 
0.448 0.023 0.007 1 
0.465 0.073 0.004 1 
0.465 0.083 0.004 1 
0.465 0.089 0.004 1 
0.464 0.094 0.004 1 
0.463 0.154 0.003 1 
0.463 0.162 0.003 1 
0.464 0.174 0.003 1 
0.464 0.183 0.003 1 
0.465 0.192 0.002 1 
0.465 0.203 0.002 1 
0.465 0.212 0.002 1 
0.465 0.221 0.002 1 
0.464 0.223 0.002 1 
0.463 0.234 0.002 1 
0.474 -0.353 0.002 1 
0.478 -0.347 0.002 1 
0.358 0.103 -0.014 1 
0.476 -0.337 0.002 1 
0.42 -0.085 -0.014 1 
0.475 -0.326 0.003 1 
0.378 0.151 -0.014 1 
0.474 -0.318 0.003 1 
0.475 -0.309 0.003 1 
0.474 -0.285 0.004 1 
0.472 -0.277 0.004 1 
0.471 -0.267 0.004 1 
0.473 -0.233 0.004 1 
0.433 0.293 -0.012 1 
0.465 0.073 0.007 1 
0.463 0.252 0.004 1 
0.463 0.273 0.004 1 
0.464 0.293 0.003 1 
0.463 0.302 0.003 1 
0.463 0.311 0.003 1 
0.463 0.321 0.003 1 
0.463 0.332 0.002 1 
0.463 0.003 0.01 1 
0.371 -0.028 -0.015 1 
0.462 0.053 -0.005 1 
0.401 -0.156 -0.016 1 
0.465 0.003 0.012 1 
0.463 -0.012 -0.005 1 
0.464 0.014 0.012 1 
0.463 0.024 0.013 1 
0.463 -0.025 -0.005 1 
0.463 0.032 0.013 1 
0.463 0.043 0.012 1 
0.463 -0.046 -0.005 1 
0.464 -0.065 -0.005 1 
0.411 0.201 -0.013 1 
0.384 -0.145 -0.017 1 
0.464 -0.087 -0.005 1 
0.463 -0.105 -0.005 1 
0.38 0.187 -0.014 1 
0.414 0.122 -0.014 1 
0.463 -0.127 -0.005 1 
0.464 -0.149 -0.006 1 
0.465 0.102 0.004 1 
0.407 0.262 -0.014 1 
0.463 -0.165 -0.006 1 
0.463 -0.185 -0.006 1 
0.461 -0.227 -0.006 1 
0.451 -0.305 -0.014 1 
0.463 -0.245 -0.007 1 
0.438 0.254 -0.009 1 
0.461 -0.286 -0.01 1 
0.439 0.104 -0.011 1 
0.464 -0.325 -0.009 1 
0.371 0.236 -0.016 1 
0.444 -0.282 -0.012 1 
0.408 0.114 -0.014 1 
0.371 0.114 -0.015 1 
0.39 0.173 -0.015 1 
0.437 -0.266 -0.015 1 
0.417 0.002 -0.013 1 
0.401 -0.086 -0.015 1 
0.453 0.143 -0.007 1 
0.455 -0.336 -0.016 1 
0.439 -0.245 -0.015 1 
0.467 -0.126 0.004 1 
0.457 0.142 -0.005 1 
0.454 -0.18 -0.009 1 
0.393 0.26 -0.015 1 
0.474 -0.245 0.004 1 
0.361 0.112 -0.013 1 
0.449 -0.016 -0.01 1 
0.424 -0.022 -0.013 1 
0.449 0.123 -0.008 1 
0.469 -0.297 -0.006 1 
0.464 0.244 0.002 1 
0.444 -0.009 -0.011 1 
0.373 0.073 -0.015 1 
0.361 -0.066 -0.015 1 
0.441 0.153 -0.009 1 
0.441 -0.225 -0.015 1 
0.353 0.163 -0.014 1 
0.413 -0.036 -0.014 1 
0.363 0.142 -0.015 1 
0.463 0.338 0.002 1 
0.455 0.282 -0.005 1 
0.419 -0.205 -0.016 1 
0.454 -0.311 -0.015 1 
0.44 0.214 -0.008 1 
0.361 0.133 -0.014 1 
0.464 0.08 0.004 1 
0.374 -0.215 -0.021 1 
0.444 -0.051 -0.011 1 
0.374 -0.186 -0.019 1 
0.371 -0.069 -0.015 1 
0.424 -0.279 -0.02 1 
0.431 0.113 -0.011 1 
0.457 -0.328 -0.016 1 
0.407 0.276 -0.015 1 
0.456 0.153 -0.005 1 
0.387 0.202 -0.015 1 
0.401 0.208 -0.015 1 
0.371 0.063 -0.014 1 
0.464 0.043 0.004 1 
0.374 0.154 -0.015 1 
0.378 0.234 -0.016 1 
0.399 -0.245 -0.025 1 
0.397 -0.256 -0.025 1 
0.388 0.124 -0.015 1 
0.39 -0.236 -0.024 1 
0.473 -0.236 0.004 1 
0.413 0.223 -0.014 1 
0.418 0.174 -0.012 1 
0.462 -0.297 -0.011 1 
0.393 -0.095 -0.015 1 
0.433 -0.237 -0.016 1 
0.467 -0.007 -0.006 1 
0.434 -0.269 -0.017 1 
0.395 -0.265 -0.025 1 
0.41 -0.056 -0.013 1 
0.384 0.061 -0.014 1 
0.411 -0.146 -0.015 1 
0.414 -0.155 -0.014 1 
0.401 -0.165 -0.017 1 
0.443 -0.001 -0.011 1 
0.423 -0.25 -0.021 1 
0.394 0.183 -0.014 1 
0.464 0.129 0.004 1 
0.382 0.203 -0.016 1 
0.369 -0.048 -0.014 1 
0.36 0.163 -0.015 1 
0.414 0.174 -0.013 1 
0.385 -0.235 -0.025 1 
0.364 0.174 -0.015 1 
0.394 0.254 -0.015 1 
0.463 -0.015 -0.005 1 
0.395 0.175 -0.014 1 
0.424 -0.103 -0.013 1 
0.464 0.102 0 1 
0.474 -0.295 0.003 1 
0.359 -0.094 -0.015 1 
0.465 0.113 0.004 1 
0.391 0.113 -0.015 1 
0.464 0.143 0.003 1 
0.361 -0.106 -0.016 1 
0.42 -0.135 -0.015 1 
0.44 0.094 -0.011 1 
0.451 0.113 -0.008 1 
0.464 -0.267 -0.007 1 
0.46 0.082 -0.005 1 
0.414 0.177 -0.013 1 
0.394 -0.036 -0.015 1 
0.449 -0.027 -0.01 1 
0.454 0.031 0.006 1 
0.406 0.043 -0.013 1 
0.424 0.263 -0.013 1 
0.424 0.143 -0.012 1 
0.434 -0.296 -0.018 1 
0.426 0.298 -0.015 1 
0.404 -0.217 -0.017 1 
0.444 -0.285 -0.015 1 
0.402 -0.175 -0.017 1 
0.454 0.274 -0.005 1 
0.39 -0.177 -0.018 1 
0.41 -0.176 -0.015 1 
0.444 -0.019 -0.011 1 
0.404 -0.056 -0.014 1 
0.363 -0.097 -0.015 1 
0.384 -0.175 -0.018 1 
0.463 0.264 0.004 1 
0.465 -0.155 -0.006 1 
0.399 -0.096 -0.015 1 
0.442 -0.136 -0.011 1 
0.399 -0.126 -0.015 1 
0.392 -0.251 -0.026 1 
0.409 -0.115 -0.016 1 
0.379 -0.229 -0.025 1 
0.382 0.133 -0.015 1 
0.442 -0.126 -0.011 1 
0.364 -0.047 -0.014 1 
0.474 -0.339 -0.003 1 
0.431 0.103 -0.011 1 
0.371 0.234 -0.016 1 
0.43 -0.025 -0.012 1 
0.421 -0.186 -0.016 1 
0.362 -0.015 -0.014 1 
0.41 -0.208 -0.016 1 
0.391 0.134 -0.014 1 
0.363 -0.083 -0.014 1 
0.363 0.183 -0.015 1 
0.436 -0.307 -0.016 1 
0.451 0.082 -0.008 1 
0.434 -0.258 -0.016 1 
0.379 -0.197 -0.019 1 
0.393 0.213 -0.015 1 
0.422 -0.126 -0.015 1 
0.374 -0.157 -0.018 1 
0.371 0.173 -0.015 1 
0.362 0.053 -0.014 1 
0.37 0.093 -0.014 1 
0.418 -0.006 -0.014 1 
0.465 -0.144 -0.006 1 
0.361 0.063 -0.014 1 
0.382 0.193 -0.015 1 
0.402 0.083 -0.014 1 
0.439 0.194 -0.007 1 
0.414 0.083 -0.013 1 
0.355 0.159 -0.014 1 
0.466 -0.266 -0.005 1 
0.402 0.254 -0.015 1 
0.464 0.284 0.004 1 
0.4 0.044 -0.013 1 
0.362 0.143 -0.014 1 
0.412 0.033 -0.014 1 
0.404 -0.025 -0.014 1 
0.473 -0.256 0.004 1 
0.364 -0.118 -0.015 1 
0.404 0.203 -0.013 1 
0.421 -0.123 -0.015 1 
0.464 -0.095 -0.005 1 
0.434 0.212 -0.009 1 
0.385 -0.096 -0.014 1 
0.441 0.223 -0.008 1 
0.417 0.287 -0.015 1 
0.391 -0.165 -0.018 1 
0.407 -0.029 -0.015 1 
0.464 0.072 0 1 
0.414 0.227 -0.014 1 
0.43 -0.165 -0.013 1 
0.412 -0.275 -0.021 1 
0.464 0.046 0.004 1 
0.465 0.003 0.004 1 
0.475 -0.316 0.003 1 
0.463 -0.205 -0.006 1 
0.453 -0.165 -0.009 1 
0.454 0.174 -0.005 1 
0.399 -0.026 -0.015 1 
0.383 0.17 -0.015 1 
0.383 0.094 -0.014 1 
0.455 0.161 -0.005 1 
0.461 -0.277 -0.01 1 
0.44 0.233 -0.009 1 
0.463 0.214 0 1 
0.434 0.242 -0.01 1 
0.408 -0.016 -0.013 1 
0.411 0.184 -0.015 1 
0.402 -0.116 -0.016 1 
0.362 0.025 -0.001 1 
0.464 -0.237 -0.007 1 
0.404 -0.247 -0.022 1 
0.383 -0.136 -0.017 1 
0.388 0.185 -0.015 1 
0.371 0.203 -0.016 1 
0.46 0.103 -0.005 1 
0.462 -0.306 -0.011 1 
0.394 -0.136 -0.016 1 
0.36 0.212 -0.015 1 
0.374 -0.165 -0.018 1 
0.372 0.069 -0.014 1 
0.465 0.124 0.003 1 
0.403 0.092 -0.014 1 
0.47 -0.175 0.003 1 
0.346 0.014 0.025 2 
0.357 0.021 0.026 2 
0.361 0.014 0.024 2 
0.368 0.007 0.023 2 
0.347 0.021 0.026 2 
0.344 0.006 0.025 2 
0.346 0.014 0.019 2 
0.344 0.01 0.02 2 
0.351 0.023 0.019 2 
0.47 -0.155 0.124 3 
0.464 0.243 0.143 3 
0.466 0.173 0.142 3 
0.466 0.182 0.142 3 
0.465 0.193 0.142 3 
0.466 0.203 0.143 3 
0.466 0.214 0.143 3 
0.464 0.183 0.033 3 
0.466 0.223 0.143 3 
0.465 0.234 0.143 3 
0.465 0.237 0.143 3 
0.471 -0.188 0.144 3 
0.466 0.162 0.142 3 
0.467 0.154 0.142 3 
0.469 -0.047 0.142 3 
0.469 -0.077 0.142 3 
0.475 -0.246 0.112 3 
0.47 -0.086 0.142 3 
0.469 -0.105 0.142 3 
0.469 -0.116 0.142 3 
0.47 -0.125 0.143 3 
0.471 -0.145 0.143 3 
0.471 -0.156 0.144 3 
0.471 -0.165 0.144 3 
0.471 -0.176 0.144 3 
0.468 -0.015 0.144 3 
0.466 -0.007 0.084 3 
0.467 0.104 0.144 3 
0.467 0.093 0.144 3 
0.466 0.084 0.144 3 
0.464 0.163 0.063 3 
0.465 0.073 0.144 3 
0.467 0.052 0.144 3 
0.467 0.044 0.144 3 
0.466 0.033 0.144 3 
0.471 -0.147 0.074 3 
0.465 0.022 0.143 3 
0.465 0.003 0.143 3 
0.466 0.262 0.144 3 
0.469 -0.025 0.144 3 
0.468 -0.061 0.144 3 
0.468 -0.066 0.144 3 
0.466 0.022 0.103 3 
0.478 -0.297 0.152 3 
0.479 -0.305 0.152 3 
0.481 -0.317 0.153 3 
0.481 -0.327 0.154 3 
0.48 -0.337 0.154 3 
0.466 0.272 0.144 3 
0.465 0.147 0.063 3 
0.466 0.193 0.134 3 
0.475 -0.228 0.14 3 
0.477 -0.277 0.142 3 
0.477 -0.286 0.142 3 
0.47 -0.207 0.014 3 
0.479 -0.298 0.143 3 
0.464 0.2 0.09 3 
0.479 -0.305 0.143 3 
0.48 -0.316 0.144 3 
0.464 0.308 0.136 3 
0.465 0.249 0.135 3 
0.465 0.21 0.134 3 
0.465 0.202 0.134 3 
0.468 -0.185 0.014 3 
0.466 0.184 0.134 3 
0.466 0.173 0.134 3 
0.466 0.162 0.134 3 
0.466 0.153 0.134 3 
0.465 0.133 0.133 3 
0.465 0.122 0.133 3 
0.465 0.114 0.133 3 
0.466 0.103 0.133 3 
0.466 0.092 0.133 3 
0.466 0.084 0.133 3 
0.476 -0.245 0.164 3 
0.473 -0.206 0.142 3 
0.48 -0.347 0.151 3 
0.48 -0.358 0.152 3 
0.479 -0.338 0.112 3 
0.467 0.345 0.144 3 
0.472 -0.185 0.122 3 
0.467 0.342 0.144 3 
0.468 0.333 0.144 3 
0.468 0.322 0.144 3 
0.467 0.314 0.143 3 
0.465 0.303 0.142 3 
0.466 0.284 0.142 3 
0.467 -0.015 0.084 3 
0.471 -0.197 0.144 3 
0.473 -0.215 0.142 3 
0.474 -0.225 0.143 3 
0.465 0.141 0.114 3 
0.474 -0.237 0.143 3 
0.475 -0.244 0.144 3 
0.475 -0.247 0.144 3 
0.474 -0.252 0.144 3 
0.474 -0.255 0.144 3 
0.475 -0.259 0.144 3 
0.464 0.019 0.135 3 
0.464 0.014 0.135 3 
0.467 0.033 0.152 3 
0.467 0.134 0.153 3 
0.466 0.123 0.152 3 
0.467 0.033 0.063 3 
0.467 0.112 0.153 3 
0.467 0.104 0.153 3 
0.467 0.093 0.153 3 
0.476 -0.266 0.144 3 
0.466 0.082 0.152 3 
0.466 0.074 0.152 3 
0.467 0.063 0.152 3 
0.467 0.052 0.152 3 
0.467 0.044 0.152 3 
0.465 0.124 0.063 3 
0.466 0.022 0.152 3 
0.466 0.014 0.152 3 
0.466 -0.006 0.152 3 
0.468 -0.015 0.152 3 
0.469 -0.025 0.153 3 
0.469 -0.055 0.153 3 
0.462 0.331 0.062 3 
0.469 -0.066 0.153 3 
0.47 -0.075 0.153 3 
0.47 -0.086 0.153 3 
0.471 -0.097 0.154 3 
0.464 0.252 0.155 3 
0.465 0.321 0.114 3 
0.464 0.343 0.161 3 
0.464 0.255 0.158 3 
0.476 -0.257 0.162 3 
0.477 -0.268 0.162 3 
0.477 -0.277 0.163 3 
0.464 0.301 0.136 3 
0.477 -0.287 0.163 3 
0.479 -0.299 0.164 3 
0.479 -0.309 0.164 3 
0.481 -0.357 0.167 3 
0.468 0.347 0.159 3 
0.473 -0.247 0.092 3 
0.465 0.232 0.154 3 
0.465 0.223 0.154 3 
0.47 -0.135 0.082 3 
0.465 0.211 0.154 3 
0.466 0.203 0.154 3 
0.466 0.194 0.154 3 
0.465 0.182 0.153 3 
0.466 0.173 0.153 3 
0.467 0.163 0.153 3 
0.467 0.154 0.153 3 
0.466 0.142 0.153 3 
0.464 0.154 0.033 3 
0.472 -0.197 0.153 3 
0.465 0.232 0.057 3 
0.472 -0.206 0.153 3 
0.473 -0.215 0.154 3 
0.474 -0.225 0.154 3 
0.462 0.242 0.013 3 
0.468 0.347 0.154 3 
0.467 0.342 0.153 3 
0.469 0.334 0.153 3 
0.469 0.324 0.153 3 
0.467 0.312 0.152 3 
0.464 0.255 0.149 3 
0.471 -0.185 0.153 3 
0.475 -0.226 0.152 3 
0.475 -0.235 0.152 3 
0.472 -0.265 0.013 3 
0.476 -0.257 0.153 3 
0.477 -0.267 0.153 3 
0.477 -0.277 0.154 3 
0.477 -0.287 0.154 3 
0.466 0.142 0.144 3 
0.474 -0.258 0.124 3 
0.465 0.133 0.144 3 
0.465 0.122 0.144 3 
0.465 0.262 0.152 3 
0.471 -0.106 0.154 3 
0.471 -0.117 0.154 3 
0.471 -0.125 0.154 3 
0.474 -0.225 0.157 3 
0.469 -0.135 0.093 3 
0.48 -0.316 0.162 3 
0.481 -0.328 0.163 3 
0.481 -0.335 0.163 3 
0.481 -0.346 0.164 3 
0.466 0.304 0.154 3 
0.466 0.291 0.154 3 
0.466 0.282 0.153 3 
0.465 0.114 0.144 3 
0.464 0.252 0.152 3 
0.464 0.243 0.152 3 
0.465 0.178 0.084 3 
0.465 0.241 0.152 3 
0.468 -0.14 0.014 3 
0.471 -0.136 0.152 3 
0.463 0.339 0.062 3 
0.471 -0.145 0.152 3 
0.471 -0.156 0.152 3 
0.471 -0.165 0.152 3 
0.471 -0.176 0.152 3 
0.465 0.302 0.122 3 
0.47 -0.097 0.123 3 
0.475 -0.287 0.093 3 
0.469 -0.105 0.123 3 
0.469 -0.127 0.123 3 
0.47 -0.136 0.124 3 
0.47 -0.147 0.124 3 
0.471 -0.167 0.124 3 
0.471 -0.176 0.124 3 
0.464 0.341 0.123 3 
0.465 0.332 0.123 3 
0.465 0.322 0.123 3 
0.465 0.312 0.122 3 
0.47 -0.086 0.123 3 
0.466 0.293 0.122 3 
0.464 0.236 0.121 3 
0.472 -0.196 0.122 3 
0.473 -0.206 0.122 3 
0.473 -0.215 0.123 3 
0.474 -0.227 0.123 3 
0.475 -0.231 0.123 3 
0.474 -0.236 0.123 3 
0.475 -0.243 0.123 3 
0.475 -0.246 0.124 3 
0.474 -0.249 0.123 3 
0.465 0.062 0.122 3 
0.464 0.152 0.09 3 
0.466 0.193 0.123 3 
0.466 0.184 0.123 3 
0.465 0.172 0.123 3 
0.465 0.164 0.123 3 
0.464 0.16 0.122 3 
0.465 0.153 0.122 3 
0.465 0.133 0.122 3 
0.465 0.114 0.122 3 
0.465 0.103 0.122 3 
0.465 0.092 0.122 3 
0.465 0.073 0.122 3 
0.475 -0.256 0.124 3 
0.465 0.054 0.122 3 
0.465 0.043 0.122 3 
0.465 0.033 0.122 3 
0.466 -0.006 0.122 3 
0.466 -0.015 0.122 3 
0.467 -0.025 0.122 3 
0.467 -0.036 0.122 3 
0.467 -0.047 0.122 3 
0.467 -0.055 0.122 3 
0.468 -0.066 0.123 3 
0.469 -0.077 0.123 3 
0.464 0.271 0.054 3 
0.465 0.092 0.114 3 
0.465 0.084 0.114 3 
0.476 -0.316 0.043 3 
0.465 0.073 0.114 3 
0.465 0.062 0.114 3 
0.464 0.238 0.082 3 
0.465 0.054 0.114 3 
0.465 0.043 0.114 3 
0.465 0.033 0.114 3 
0.466 0.022 0.114 3 
0.465 0.014 0.114 3 
0.465 0.003 0.114 3 
0.465 0.103 0.114 3 
0.466 -0.006 0.114 3 
0.467 -0.015 0.114 3 
0.467 -0.025 0.114 3 
0.467 -0.036 0.114 3 
0.467 -0.047 0.114 3 
0.468 -0.055 0.114 3 
0.468 -0.066 0.114 3 
0.463 0.34 0.114 3 
0.464 0.334 0.114 3 
0.466 0.333 0.114 3 
0.474 0.358 0.199 3 
0.465 0.178 0.114 3 
0.474 -0.267 0.124 3 
0.475 -0.271 0.124 3 
0.475 -0.287 0.124 3 
0.477 -0.295 0.122 3 
0.478 -0.306 0.123 3 
0.479 -0.328 0.123 3 
0.48 -0.336 0.124 3 
0.48 -0.346 0.124 3 
0.481 -0.355 0.124 3 
0.464 0.301 0.116 3 
0.465 0.147 0.082 3 
0.464 0.288 0.116 3 
0.465 0.204 0.123 3 
0.465 0.172 0.114 3 
0.479 -0.326 0.064 3 
0.464 0.166 0.114 3 
0.465 0.164 0.114 3 
0.464 0.158 0.114 3 
0.465 0.153 0.114 3 
0.465 0.204 0.112 3 
0.466 0.134 0.114 3 
0.465 0.122 0.114 3 
0.464 0.294 0.082 3 
0.465 0.114 0.114 3 
0.464 0.239 0.132 3 
0.463 0.34 0.134 3 
0.466 0.323 0.134 3 
0.464 0.308 0.134 3 
0.464 0.304 0.133 3 
0.465 0.302 0.134 3 
0.465 0.293 0.133 3 
0.466 0.284 0.133 3 
0.466 0.271 0.133 3 
0.465 0.264 0.133 3 
0.464 0.132 0.022 3 
0.465 0.252 0.132 3 
0.465 0.243 0.132 3 
0.481 -0.345 0.142 3 
0.464 0.254 0.121 3 
0.467 0.014 0.063 3 
0.464 0.233 0.132 3 
0.465 0.231 0.132 3 
0.465 0.222 0.132 3 
0.47 -0.127 0.132 3 
0.476 -0.316 0.032 3 
0.47 -0.136 0.132 3 
0.471 -0.145 0.132 3 
0.471 -0.156 0.133 3 
0.472 -0.165 0.133 3 
0.468 -0.025 0.133 3 
0.466 0.063 0.133 3 
0.465 0.054 0.133 3 
0.466 0.044 0.133 3 
0.465 0.033 0.133 3 
0.465 0.022 0.133 3 
0.464 0.017 0.132 3 
0.464 0.014 0.132 3 
0.465 0.009 0.132 3 
0.466 0.003 0.133 3 
0.467 -0.006 0.133 3 
0.472 -0.216 0.064 3 
0.467 -0.015 0.133 3 
0.471 -0.176 0.133 3 
0.465 0.264 0.11 3 
0.468 -0.036 0.133 3 
0.467 -0.047 0.133 3 
0.467 -0.055 0.133 3 
0.468 -0.066 0.133 3 
0.469 -0.077 0.134 3 
0.47 -0.086 0.134 3 
0.469 -0.096 0.134 3 
0.469 -0.116 0.134 3 
0.481 -0.327 0.142 3 
0.481 -0.337 0.142 3 
0.473 -0.275 0.044 3 
0.464 0.049 0.124 3 
0.464 0.043 0.124 3 
0.464 0.025 0.124 3 
0.465 0.017 0.124 3 
0.468 -0.157 0.014 3 
0.465 0.011 0.124 3 
0.465 0.003 0.124 3 
0.466 -0.076 0.012 3 
0.474 -0.267 0.13 3 
0.479 -0.308 0.132 3 
0.48 -0.319 0.132 3 
0.481 -0.327 0.133 3 
0.477 -0.296 0.134 3 
0.481 -0.337 0.133 3 
0.481 -0.348 0.133 3 
0.465 0.277 0.124 3 
0.465 0.273 0.124 3 
0.464 0.263 0.124 3 
0.465 0.258 0.124 3 
0.465 0.243 0.124 3 
0.464 0.233 0.123 3 
0.465 0.231 0.124 3 
0.464 0.224 0.123 3 
0.465 0.213 0.123 3 
0.464 0.243 0.063 3 
0.471 -0.185 0.133 3 
0.472 -0.196 0.133 3 
0.473 -0.206 0.134 3 
0.473 -0.215 0.134 3 
0.465 0.2 0.082 3 
0.474 -0.227 0.134 3 
0.48 -0.358 0.14 3 
0.463 0.333 0.131 3 
0.465 0.332 0.132 3 
0.464 0.224 0.129 3 
0.464 0.046 0.127 3 
0.464 0.041 0.127 3 
0.465 0.073 0.133 3 
0.474 -0.236 0.132 3 
0.475 -0.246 0.132 3 
0.465 0.253 0.082 3 
0.474 -0.249 0.132 3 
0.474 -0.255 0.132 3 
0.475 -0.259 0.132 3 
0.475 -0.265 0.133 3 
0.48 -0.348 0.064 3 
0.47 -0.166 0.044 3 
0.475 -0.275 0.133 3 
0.476 -0.285 0.133 3 
0.469 0.224 0.184 3 
0.479 -0.267 0.193 3 
0.465 0.341 0.025 3 
0.48 -0.278 0.193 3 
0.481 -0.289 0.194 3 
0.465 0.267 0.088 3 
0.484 -0.336 0.198 3 
0.467 -0.006 0.144 3 
0.472 0.355 0.192 3 
0.468 0.152 0.173 3 
0.469 0.236 0.184 3 
0.469 0.233 0.184 3 
0.465 0.155 0.082 3 
0.468 -0.077 0.074 3 
0.469 0.212 0.184 3 
0.469 0.203 0.183 3 
0.465 0.043 0.103 3 
0.469 0.194 0.183 3 
0.468 0.182 0.182 3 
0.468 0.173 0.182 3 
0.472 -0.166 0.172 3 
0.471 -0.136 0.143 3 
0.468 0.164 0.182 3 
0.468 0.153 0.182 3 
0.47 0.134 0.182 3 
0.471 0.053 0.184 3 
0.471 0.351 0.194 3 
0.471 0.344 0.194 3 
0.471 0.333 0.193 3 
0.471 -0.147 0.094 3 
0.472 0.322 0.192 3 
0.469 0.142 0.184 3 
0.47 0.094 0.184 3 
0.466 -0.036 0.004 3 
0.471 0.083 0.184 3 
0.467 0.043 0.074 3 
0.471 0.072 0.184 3 
0.471 0.064 0.184 3 
0.475 -0.278 0.124 3 
0.471 0.042 0.184 3 
0.467 0.112 0.164 3 
0.475 -0.316 0.014 3 
0.471 0.034 0.184 3 
0.472 -0.004 0.184 3 
0.465 0.253 0.074 3 
0.474 -0.087 0.186 3 
0.474 -0.096 0.186 3 
0.474 -0.107 0.186 3 
0.474 -0.127 0.186 3 
0.479 -0.255 0.192 3 
0.467 0.252 0.181 3 
0.475 -0.147 0.184 3 
0.482 -0.296 0.192 3 
0.465 0.144 0.133 3 
0.484 -0.308 0.193 3 
0.482 -0.317 0.193 3 
0.483 -0.325 0.194 3 
0.469 0.302 0.184 3 
0.469 0.292 0.184 3 
0.469 0.282 0.183 3 
0.469 0.273 0.183 3 
0.473 -0.226 0.052 3 
0.468 0.263 0.182 3 
0.464 0.266 0.127 3 
0.474 -0.147 0.181 3 
0.464 0.203 0.033 3 
0.474 -0.155 0.181 3 
0.474 -0.167 0.182 3 
0.474 -0.176 0.182 3 
0.464 0.241 0.09 3 
0.475 -0.179 0.182 3 
0.475 -0.185 0.182 3 
0.466 0.054 0.074 3 
0.476 -0.195 0.183 3 
0.465 0.014 0.143 3 
0.468 -0.055 0.063 3 
0.471 0.123 0.182 3 
0.468 -0.107 0.134 3 
0.471 0.114 0.182 3 
0.47 0.103 0.181 3 
0.469 0.023 0.18 3 
0.472 -0.007 0.182 3 
0.479 -0.317 0.123 3 
0.472 -0.015 0.182 3 
0.472 -0.026 0.182 3 
0.471 -0.037 0.173 3 
0.472 -0.037 0.182 3 
0.473 -0.045 0.182 3 
0.486 -0.346 0.203 3 
0.472 -0.056 0.182 3 
0.472 -0.067 0.182 3 
0.473 -0.076 0.182 3 
0.464 0.301 0.113 3 
0.473 -0.087 0.182 3 
0.473 -0.095 0.183 3 
0.473 -0.107 0.183 3 
0.474 -0.115 0.183 3 
0.474 -0.127 0.184 3 
0.474 -0.135 0.184 3 
0.475 -0.139 0.184 3 
0.472 0.053 0.187 3 
0.465 0.084 0.122 3 
0.464 0.284 0.093 3 
0.471 0.143 0.188 3 
0.472 0.132 0.188 3 
0.472 0.123 0.188 3 
0.473 0.073 0.188 3 
0.472 0.112 0.188 3 
0.468 0.284 0.174 3 
0.471 0.103 0.187 3 
0.471 0.092 0.187 3 
0.472 0.084 0.188 3 
0.472 0.062 0.187 3 
0.469 0.154 0.188 3 
0.473 0.042 0.188 3 
0.471 0.034 0.187 3 
0.466 0.022 0.185 3 
0.472 -0.007 0.187 3 
0.474 -0.015 0.188 3 
0.475 -0.021 0.189 3 
0.474 -0.026 0.188 3 
0.474 -0.037 0.188 3 
0.473 -0.045 0.188 3 
0.474 -0.057 0.188 3 
0.474 -0.065 0.188 3 
0.472 0.254 0.192 3 
0.473 0.353 0.198 3 
0.472 0.341 0.197 3 
0.472 0.334 0.197 3 
0.473 0.324 0.196 3 
0.471 -0.155 0.102 3 
0.472 0.312 0.195 3 
0.471 0.305 0.194 3 
0.472 0.302 0.194 3 
0.471 0.291 0.193 3 
0.471 0.282 0.193 3 
0.47 0.274 0.192 3 
0.471 0.262 0.192 3 
0.467 0.207 0.174 3 
0.47 0.243 0.191 3 
0.47 0.234 0.191 3 
0.471 0.222 0.191 3 
0.468 -0.036 0.144 3 
0.469 0.212 0.189 3 
0.476 -0.297 0.023 3 
0.469 0.203 0.189 3 
0.47 0.192 0.189 3 
0.469 0.182 0.189 3 
0.468 0.173 0.188 3 
0.469 0.162 0.188 3 
0.479 -0.267 0.196 3 
0.477 -0.196 0.192 3 
0.477 -0.205 0.193 3 
0.473 -0.126 0.172 3 
0.478 -0.217 0.193 3 
0.478 -0.227 0.194 3 
0.478 -0.236 0.194 3 
0.465 0.252 0.124 3 
0.478 -0.245 0.195 3 
0.478 -0.254 0.194 3 
0.464 0.255 0.063 3 
0.479 -0.258 0.195 3 
0.465 0.083 0.023 3 
0.477 -0.187 0.192 3 
0.478 -0.276 0.196 3 
0.463 0.322 0.054 3 
0.48 -0.285 0.197 3 
0.482 -0.296 0.198 3 
0.483 -0.308 0.199 3 
0.462 0.313 0.014 3 
0.482 -0.317 0.199 3 
0.472 -0.216 0.044 3 
0.484 -0.326 0.201 3 
0.474 -0.211 0.168 3 
0.485 -0.338 0.202 3 
0.479 -0.358 0.052 3 
0.475 -0.074 0.189 3 
0.468 -0.134 0.014 3 
0.475 -0.076 0.189 3 
0.469 -0.045 0.153 3 
0.465 0.312 0.134 3 
0.474 -0.079 0.188 3 
0.467 0.132 0.164 3 
0.475 -0.085 0.189 3 
0.475 -0.096 0.189 3 
0.475 -0.107 0.189 3 
0.474 -0.115 0.189 3 
0.475 -0.119 0.189 3 
0.476 -0.207 0.184 3 
0.475 -0.127 0.19 3 
0.469 -0.036 0.153 3 
0.476 -0.136 0.19 3 
0.464 0.092 0.103 3 
0.479 -0.317 0.102 3 
0.477 -0.145 0.191 3 
0.478 -0.155 0.192 3 
0.467 0.341 0.183 3 
0.477 -0.166 0.191 3 
0.468 -0.066 0.074 3 
0.477 -0.175 0.192 3 
0.474 -0.196 0.168 3 
0.479 -0.326 0.082 3 
0.468 0.022 0.163 3 
0.468 0.014 0.163 3 
0.468 0.003 0.163 3 
0.468 -0.006 0.164 3 
0.468 -0.015 0.164 3 
0.469 -0.026 0.164 3 
0.47 -0.037 0.164 3 
0.47 -0.045 0.164 3 
0.47 -0.056 0.164 3 
0.47 -0.067 0.164 3 
0.464 0.294 0.113 3 
0.468 0.033 0.164 3 
0.466 0.063 0.144 3 
0.474 -0.217 0.169 3 
0.479 -0.276 0.172 3 
0.478 -0.285 0.172 3 
0.479 -0.296 0.173 3 
0.479 -0.316 0.174 3 
0.466 0.26 0.164 3 
0.466 0.272 0.153 3 
0.466 0.254 0.164 3 
0.466 0.242 0.164 3 
0.466 0.233 0.163 3 
0.467 0.163 0.164 3 
0.475 -0.182 0.171 3 
0.474 -0.193 0.171 3 
0.475 -0.206 0.172 3 
0.465 0.114 0.063 3 
0.475 -0.215 0.172 3 
0.473 -0.166 0.164 3 
0.475 -0.227 0.172 3 
0.477 -0.237 0.173 3 
0.478 -0.247 0.174 3 
0.472 -0.205 0.083 3 
0.478 -0.256 0.174 3 
0.478 -0.266 0.174 3 
0.466 0.224 0.163 3 
0.467 -0.036 0.103 3 
0.467 0.154 0.164 3 
0.467 0.143 0.164 3 
0.467 0.124 0.164 3 
0.468 0.104 0.164 3 
0.468 0.093 0.164 3 
0.468 0.082 0.164 3 
0.468 0.074 0.164 3 
0.468 0.063 0.164 3 
0.465 0.222 0.124 3 
0.468 0.044 0.164 3 
0.473 -0.186 0.162 3 
0.465 0.341 0.164 3 
0.467 0.333 0.164 3 
0.463 0.333 0.123 3 
0.467 0.322 0.164 3 
0.467 0.312 0.163 3 
0.467 0.302 0.163 3 
0.467 0.292 0.163 3 
0.465 0.262 0.063 3 
0.467 0.283 0.162 3 
0.467 0.273 0.162 3 
0.473 -0.175 0.162 3 
0.465 0.122 0.122 3 
0.466 0.345 0.165 3 
0.469 -0.105 0.104 3 
0.473 -0.256 0.052 3 
0.467 -0.036 0.044 3 
0.473 -0.195 0.162 3 
0.473 -0.207 0.162 3 
0.471 -0.167 0.033 3 
0.473 -0.216 0.163 3 
0.475 -0.22 0.163 3 
0.473 -0.257 0.044 3 
0.474 -0.285 0.012 3 
0.475 -0.226 0.163 3 
0.472 -0.117 0.163 3 
0.466 0.212 0.163 3 
0.466 0.203 0.163 3 
0.466 0.194 0.162 3 
0.466 0.183 0.162 3 
0.469 -0.116 0.123 3 
0.466 0.174 0.162 3 
0.47 -0.075 0.162 3 
0.472 -0.086 0.162 3 
0.472 -0.095 0.163 3 
0.465 0.113 0.044 3 
0.471 -0.106 0.162 3 
0.464 0.283 0.023 3 
0.468 0.304 0.172 3 
0.472 -0.126 0.163 3 
0.473 -0.135 0.163 3 
0.481 -0.356 0.161 3 
0.472 -0.145 0.163 3 
0.481 -0.355 0.131 3 
0.472 -0.157 0.164 3 
0.473 -0.275 0.084 3 
0.481 -0.325 0.172 3 
0.47 -0.166 0.022 3 
0.482 -0.336 0.173 3 
0.483 -0.345 0.173 3 
0.465 0.144 0.122 3 
0.467 0.192 0.174 3 
0.464 0.274 0.032 3 
0.468 0.184 0.174 3 
0.467 0.172 0.173 3 
0.467 0.164 0.173 3 
0.467 0.143 0.172 3 
0.468 0.133 0.173 3 
0.475 -0.247 0.152 3 
0.469 0.122 0.173 3 
0.47 -0.097 0.143 3 
0.469 0.113 0.173 3 
0.469 0.102 0.173 3 
0.464 0.252 0.143 3 
0.469 0.094 0.173 3 
0.468 0.083 0.172 3 
0.469 0.072 0.172 3 
0.469 0.064 0.172 3 
0.469 0.053 0.172 3 
0.465 0.221 0.054 3 
0.469 0.044 0.172 3 
0.464 0.31 0.094 3 
0.468 0.033 0.172 3 
0.468 0.052 0.164 3 
0.469 0.022 0.172 3 
0.464 0.294 0.091 3 
0.476 -0.216 0.184 3 
0.471 -0.175 0.074 3 
0.465 0.054 0.004 3 
0.476 -0.225 0.184 3 
0.484 -0.336 0.192 3 
0.485 -0.348 0.193 3 
0.467 -0.007 0.044 3 
0.469 0.351 0.184 3 
0.467 -0.007 0.063 3 
0.468 0.331 0.183 3 
0.469 0.322 0.182 3 
0.469 0.312 0.182 3 
0.469 0.009 0.172 3 
0.474 -0.187 0.179 3 
0.477 -0.235 0.182 3 
0.479 -0.245 0.183 3 
0.478 -0.257 0.183 3 
0.478 -0.269 0.183 3 
0.479 -0.28 0.184 3 
0.479 -0.286 0.184 3 
0.466 0.294 0.142 3 
0.484 -0.35 0.19 3 
0.464 0.105 0.106 3 
0.467 0.201 0.174 3 
0.474 -0.176 0.173 3 
0.467 0.271 0.173 3 
0.48 -0.307 0.174 3 
0.464 0.338 0.135 3 
0.467 0.264 0.173 3 
0.466 0.251 0.172 3 
0.467 0.243 0.172 3 
0.474 -0.257 0.072 3 
0.468 0.232 0.172 3 
0.467 0.222 0.172 3 
0.473 -0.135 0.172 3 
0.473 -0.146 0.172 3 
0.472 -0.157 0.172 3 
0.468 0.288 0.174 3 
0.475 -0.188 0.174 3 
0.466 -0.087 0.012 3 
0.475 -0.197 0.174 3 
0.483 -0.338 0.182 3 
0.483 -0.345 0.183 3 
0.464 -0.349 0.177 3 
0.463 0.343 0.173 3 
0.465 0.341 0.173 3 
0.467 0.333 0.173 3 
0.468 0.324 0.173 3 
0.468 0.314 0.173 3 
0.472 -0.087 0.174 3 
0.47 0.003 0.173 3 
0.47 -0.007 0.173 3 
0.47 -0.015 0.173 3 
0.47 -0.026 0.173 3 
0.463 0.104 0.012 3 
0.471 -0.045 0.173 3 
0.47 -0.056 0.172 3 
0.466 0.003 0.103 3 
0.47 -0.067 0.173 3 
0.466 0.103 0.044 3 
0.462 0.213 0.014 3 
0.471 -0.075 0.173 3 
0.475 -0.235 0.163 3 
0.472 -0.095 0.174 3 
0.473 -0.106 0.174 3 
0.464 0.242 0.104 3 
0.472 -0.115 0.174 3 
0.481 -0.298 0.183 3 
0.482 -0.306 0.183 3 
0.481 -0.315 0.184 3 
0.472 -0.187 0.094 3 
0.482 -0.326 0.184 3 
0.464 0.337 0.176 3 
0.465 0.003 0.154 3 
0.464 0.194 0.044 3 
0.464 0.283 0.043 3 
0.464 0.274 0.043 3 
0.463 0.264 0.043 3 
0.467 -0.055 0.034 3 
0.463 0.222 0.024 3 
0.463 0.252 0.043 3 
0.463 0.243 0.043 3 
0.464 0.223 0.043 3 
0.464 0.214 0.043 3 
0.465 0.209 0.043 3 
0.464 0.202 0.043 3 
0.465 0.2 0.043 3 
0.464 0.293 0.043 3 
0.463 0.182 0.044 3 
0.464 0.174 0.044 3 
0.464 0.163 0.044 3 
0.464 0.154 0.044 3 
0.465 0.149 0.044 3 
0.464 0.143 0.044 3 
0.465 0.141 0.044 3 
0.465 0.133 0.044 3 
0.474 -0.295 0.012 3 
0.465 0.124 0.044 3 
0.466 0.094 0.044 3 
0.466 0.084 0.044 3 
0.476 -0.306 0.052 3 
0.47 -0.166 0.052 3 
0.47 -0.177 0.052 3 
0.47 -0.186 0.052 3 
0.471 -0.195 0.052 3 
0.471 -0.207 0.052 3 
0.471 -0.216 0.052 3 
0.474 -0.236 0.052 3 
0.473 -0.247 0.052 3 
0.473 -0.266 0.052 3 
0.473 -0.275 0.052 3 
0.473 -0.285 0.052 3 
0.475 -0.295 0.052 3 
0.466 0.073 0.044 3 
0.477 -0.317 0.052 3 
0.478 -0.325 0.052 3 
0.479 -0.336 0.052 3 
0.465 0.161 0.049 3 
0.475 -0.292 0.049 3 
0.465 0.226 0.046 3 
0.462 0.338 0.042 3 
0.462 0.334 0.042 3 
0.463 0.312 0.043 3 
0.462 0.301 0.043 3 
0.468 -0.066 0.044 3 
0.461 0.333 0.034 3 
0.472 -0.265 0.044 3 
0.476 -0.296 0.044 3 
0.477 -0.307 0.043 3 
0.478 -0.328 0.043 3 
0.479 -0.347 0.043 3 
0.478 -0.356 0.043 3 
0.465 0.158 0.041 3 
0.464 0.132 0.041 3 
0.475 -0.282 0.041 3 
0.464 0.124 0.039 3 
0.464 0.113 0.039 3 
0.463 0.339 0.034 3 
0.473 -0.247 0.044 3 
0.463 0.322 0.034 3 
0.463 0.312 0.034 3 
0.464 0.302 0.034 3 
0.464 0.293 0.034 3 
0.464 0.283 0.034 3 
0.477 -0.338 0.034 3 
0.479 -0.347 0.034 3 
0.477 -0.355 0.034 3 
0.465 0.303 0.031 3 
0.464 0.262 0.032 3 
0.464 0.253 0.032 3 
0.47 -0.105 0.044 3 
0.466 0.054 0.044 3 
0.466 0.032 0.044 3 
0.466 0.024 0.044 3 
0.466 0.014 0.044 3 
0.467 0.003 0.044 3 
0.467 -0.015 0.044 3 
0.466 -0.025 0.044 3 
0.468 -0.047 0.044 3 
0.468 -0.055 0.044 3 
0.467 -0.077 0.044 3 
0.469 -0.085 0.044 3 
0.47 -0.096 0.044 3 
0.47 -0.155 0.052 3 
0.469 -0.115 0.044 3 
0.47 -0.127 0.044 3 
0.47 -0.135 0.044 3 
0.47 -0.146 0.044 3 
0.471 -0.155 0.044 3 
0.47 -0.175 0.044 3 
0.471 -0.187 0.044 3 
0.471 -0.195 0.044 3 
0.471 -0.207 0.044 3 
0.472 -0.225 0.044 3 
0.473 -0.235 0.044 3 
0.473 -0.266 0.064 3 
0.462 -0.342 0.013 3 
0.47 -0.166 0.063 3 
0.471 -0.175 0.063 3 
0.463 0.213 0.024 3 
0.471 -0.187 0.063 3 
0.472 -0.196 0.064 3 
0.475 -0.286 0.044 3 
0.472 -0.205 0.064 3 
0.473 -0.226 0.064 3 
0.473 -0.235 0.064 3 
0.473 -0.247 0.064 3 
0.473 -0.256 0.064 3 
0.47 -0.155 0.063 3 
0.473 -0.278 0.064 3 
0.474 -0.286 0.064 3 
0.475 -0.296 0.064 3 
0.464 0.243 0.054 3 
0.477 -0.307 0.064 3 
0.478 -0.315 0.064 3 
0.48 -0.337 0.064 3 
0.478 -0.356 0.064 3 
0.464 0.154 0.052 3 
0.465 0.158 0.06 3 
0.474 -0.295 0.061 3 
0.468 -0.047 0.063 3 
0.465 0.144 0.063 3 
0.465 0.133 0.063 3 
0.465 0.103 0.063 3 
0.465 0.094 0.063 3 
0.465 0.084 0.063 3 
0.466 0.073 0.063 3 
0.466 0.054 0.063 3 
0.467 0.022 0.063 3 
0.467 0.003 0.063 3 
0.467 -0.015 0.063 3 
0.468 -0.025 0.063 3 
0.467 -0.036 0.063 3 
0.464 -0.055 0.012 3 
0.469 -0.066 0.063 3 
0.464 0.163 0.033 3 
0.469 -0.077 0.063 3 
0.469 -0.085 0.063 3 
0.469 -0.096 0.063 3 
0.469 -0.107 0.063 3 
0.469 -0.115 0.063 3 
0.48 -0.348 0.052 3 
0.47 -0.127 0.063 3 
0.47 -0.135 0.063 3 
0.47 -0.146 0.063 3 
0.467 -0.036 0.052 3 
0.466 0.084 0.052 3 
0.467 0.073 0.052 3 
0.466 0.062 0.052 3 
0.466 0.054 0.052 3 
0.466 0.043 0.052 3 
0.467 0.033 0.052 3 
0.467 0.022 0.052 3 
0.467 0.014 0.052 3 
0.467 -0.007 0.052 3 
0.466 -0.015 0.052 3 
0.467 -0.025 0.052 3 
0.463 0.283 0.012 3 
0.465 0.094 0.052 3 
0.468 -0.047 0.052 3 
0.468 -0.055 0.052 3 
0.468 -0.066 0.052 3 
0.468 -0.077 0.052 3 
0.468 -0.085 0.052 3 
0.469 -0.096 0.052 3 
0.47 -0.105 0.052 3 
0.469 -0.115 0.052 3 
0.469 -0.126 0.052 3 
0.47 -0.135 0.052 3 
0.47 -0.146 0.052 3 
0.465 0.203 0.054 3 
0.464 0.223 0.057 3 
0.465 0.341 0.054 3 
0.463 0.302 0.054 3 
0.463 0.293 0.054 3 
0.464 0.283 0.054 3 
0.465 0.275 0.054 3 
0.465 0.269 0.054 3 
0.464 0.262 0.054 3 
0.464 0.252 0.054 3 
0.464 0.232 0.054 3 
0.464 0.223 0.054 3 
0.465 0.212 0.054 3 
0.464 0.244 0.032 3 
0.464 0.2 0.054 3 
0.464 0.194 0.054 3 
0.464 0.182 0.054 3 
0.462 0.337 0.051 3 
0.464 0.174 0.052 3 
0.464 0.163 0.052 3 
0.465 0.152 0.052 3 
0.465 0.144 0.052 3 
0.466 0.133 0.052 3 
0.466 0.114 0.052 3 
0.466 0.103 0.052 3 
0.476 -0.337 0.014 3 
0.465 0.127 0.02 3 
0.465 0.124 0.02 3 
0.464 0.102 0.02 3 
0.464 0.064 0.02 3 
0.464 0.024 0.02 3 
0.474 -0.285 0.018 3 
0.46 0.332 0.014 3 
0.462 0.323 0.014 3 
0.464 -0.036 0.018 3 
0.474 -0.295 0.015 3 
0.475 -0.312 0.014 3 
0.475 -0.326 0.014 3 
0.474 -0.356 0.02 3 
0.477 -0.345 0.014 3 
0.462 0.304 0.012 3 
0.462 0.294 0.012 3 
0.462 0.263 0.013 3 
0.461 0.253 0.013 3 
0.462 0.233 0.013 3 
0.462 0.224 0.013 3 
0.462 0.204 0.014 3 
0.461 0.192 0.014 3 
0.462 0.184 0.014 3 
0.463 0.174 0.014 3 
0.467 -0.095 0.023 3 
0.465 0.027 0.023 3 
0.465 0.024 0.023 3 
0.465 0.014 0.023 3 
0.467 0.003 0.023 3 
0.467 -0.007 0.023 3 
0.466 -0.015 0.023 3 
0.465 -0.025 0.023 3 
0.465 -0.036 0.023 3 
0.465 -0.047 0.023 3 
0.466 -0.055 0.023 3 
0.466 -0.066 0.023 3 
0.468 -0.077 0.023 3 
0.462 0.162 0.014 3 
0.468 -0.107 0.023 3 
0.469 -0.115 0.023 3 
0.469 -0.126 0.023 3 
0.469 -0.135 0.022 3 
0.469 -0.146 0.022 3 
0.47 -0.158 0.022 3 
0.469 -0.177 0.022 3 
0.469 -0.186 0.022 3 
0.47 -0.195 0.022 3 
0.471 -0.207 0.022 3 
0.476 -0.355 0.019 3 
0.466 -0.036 0.007 3 
0.464 -0.025 0.012 3 
0.464 -0.047 0.012 3 
0.465 -0.057 0.012 3 
0.466 -0.065 0.012 3 
0.466 -0.095 0.012 3 
0.467 -0.106 0.012 3 
0.467 -0.115 0.012 3 
0.474 -0.305 0.009 3 
0.465 -0.023 0.01 3 
0.465 -0.028 0.01 3 
0.465 0.062 0.007 3 
0.465 0.054 0.007 3 
0.464 -0.012 0.012 3 
0.465 -0.047 0.007 3 
0.474 -0.305 0.003 3 
0.465 0.132 0.003 3 
0.467 -0.007 0.004 3 
0.466 -0.015 0.004 3 
0.466 -0.025 0.004 3 
0.464 -0.047 0.004 3 
0.466 -0.049 0.004 3 
0.466 -0.055 0.004 3 
0.467 -0.066 0.004 3 
0.468 -0.115 0.004 3 
0.472 -0.247 0.013 3 
0.462 0.154 0.014 3 
0.462 0.134 0.014 3 
0.464 -0.025 0.015 3 
0.464 -0.047 0.015 3 
0.464 -0.055 0.015 3 
0.468 -0.148 0.014 3 
0.468 -0.165 0.014 3 
0.468 -0.176 0.014 3 
0.469 -0.197 0.014 3 
0.47 -0.215 0.014 3 
0.47 -0.227 0.013 3 
0.472 -0.238 0.013 3 
0.464 0.032 0.023 3 
0.472 -0.255 0.013 3 
0.473 -0.278 0.012 3 
0.474 -0.315 0.012 3 
0.474 -0.353 0.011 3 
0.463 0.112 0.012 3 
0.463 0.094 0.012 3 
0.463 0.083 0.012 3 
0.463 0.072 0.012 3 
0.463 0.064 0.012 3 
0.463 0.053 0.012 3 
0.465 -0.007 0.012 3 
0.471 -0.155 0.033 3 
0.466 -0.025 0.034 3 
0.467 -0.036 0.034 3 
0.467 -0.047 0.034 3 
0.468 -0.077 0.033 3 
0.468 -0.085 0.034 3 
0.468 -0.096 0.034 3 
0.469 -0.107 0.033 3 
0.469 -0.115 0.033 3 
0.464 0.121 0.014 3 
0.469 -0.126 0.033 3 
0.469 -0.135 0.033 3 
0.47 -0.146 0.033 3 
0.466 -0.015 0.034 3 
0.47 -0.175 0.033 3 
0.47 -0.186 0.033 3 
0.471 -0.195 0.033 3 
0.471 -0.207 0.033 3 
0.471 -0.216 0.033 3 
0.472 -0.226 0.033 3 
0.473 -0.235 0.033 3 
0.473 -0.247 0.033 3 
0.472 -0.256 0.033 3 
0.472 -0.265 0.033 3 
0.474 -0.275 0.032 3 
0.465 0.102 0.033 3 
0.463 0.231 0.032 3 
0.465 0.062 0.004 3 
0.464 0.223 0.032 3 
0.464 0.214 0.032 3 
0.464 0.194 0.033 3 
0.464 0.174 0.033 3 
0.464 0.143 0.033 3 
0.465 0.141 0.033 3 
0.465 0.133 0.033 3 
0.464 0.13 0.033 3 
0.463 0.124 0.033 3 
0.465 0.113 0.033 3 
0.476 -0.284 0.032 3 
0.465 0.094 0.033 3 
0.465 0.073 0.033 3 
0.466 0.062 0.033 3 
0.466 0.054 0.033 3 
0.465 0.043 0.034 3 
0.465 0.032 0.034 3 
0.467 -0.085 0.023 3 
0.465 0.024 0.034 3 
0.466 0.014 0.034 3 
0.467 0.003 0.034 3 
0.467 -0.007 0.034 3 
0.463 0.143 0.022 3 
0.473 -0.265 0.024 3 
0.473 -0.275 0.024 3 
0.475 -0.286 0.024 3 
0.476 -0.306 0.023 3 
0.476 -0.316 0.023 3 
0.476 -0.327 0.023 3 
0.477 -0.338 0.023 3 
0.472 -0.354 0.023 3 
0.463 0.182 0.022 3 
0.463 0.174 0.022 3 
0.463 0.162 0.022 3 
0.463 0.154 0.022 3 
0.472 -0.256 0.024 3 
0.464 0.113 0.023 3 
0.465 0.102 0.023 3 
0.464 0.094 0.023 3 
0.465 0.091 0.023 3 
0.464 0.08 0.023 3 
0.464 0.072 0.023 3 
0.465 0.067 0.023 3 
0.465 0.064 0.023 3 
0.465 0.054 0.023 3 
0.464 0.051 0.023 3 
0.464 0.043 0.023 3 
0.474 -0.356 0.014 3 
0.476 -0.287 0.032 3 
0.476 -0.296 0.032 3 
0.476 -0.306 0.032 3 
0.477 -0.327 0.032 3 
0.465 0.206 0.03 3 
0.465 0.116 0.031 3 
0.464 0.038 0.031 3 
0.474 -0.356 0.029 3 
0.464 0.083 0.028 3 
0.462 0.338 0.022 3 
0.461 0.333 0.023 3 
0.462 0.324 0.023 3 
0.464 -0.036 0.012 3 
0.463 0.314 0.023 3 
0.463 0.301 0.023 3 
0.463 0.264 0.024 3 
0.463 0.252 0.024 3 
0.463 0.243 0.024 3 
0.463 0.234 0.024 3 
0.464 0.203 0.024 3 
0.464 0.102 0.025 3 
0.464 0.072 0.026 3 
0.471 -0.222 0.024 3 
0.471 -0.225 0.024 3 
0.481 -0.357 0.103 3 
0.474 -0.245 0.103 3 
0.474 -0.257 0.104 3 
0.473 -0.266 0.104 3 
0.475 -0.277 0.104 3 
0.476 -0.288 0.104 3 
0.465 0.292 0.099 3 
0.474 -0.276 0.101 3 
0.476 -0.297 0.102 3 
0.478 -0.306 0.102 3 
0.479 -0.327 0.102 3 
0.48 -0.335 0.103 3 
0.481 -0.347 0.103 3 
0.474 -0.236 0.103 3 
0.466 0.062 0.044 3 
0.464 0.214 0.095 3 
0.464 0.183 0.095 3 
0.475 -0.234 0.098 3 
0.479 -0.336 0.043 3 
0.464 0.34 0.094 3 
0.462 0.331 0.094 3 
0.465 0.328 0.094 3 
0.465 0.324 0.094 3 
0.464 0.316 0.094 3 
0.464 -0.015 0.012 3 
0.465 0.314 0.094 3 
0.465 0.245 0.102 3 
0.465 0.272 0.063 3 
0.47 -0.127 0.104 3 
0.47 -0.135 0.104 3 
0.472 -0.235 0.024 3 
0.474 -0.242 0.106 3 
0.463 0.339 0.103 3 
0.463 0.332 0.102 3 
0.465 0.331 0.103 3 
0.465 0.324 0.103 3 
0.465 0.314 0.102 3 
0.465 0.301 0.102 3 
0.464 0.291 0.102 3 
0.465 0.304 0.094 3 
0.465 0.236 0.101 3 
0.464 0.144 0.1 3 
0.465 0.076 0.1 3 
0.47 -0.147 0.102 3 
0.471 -0.167 0.102 3 
0.471 -0.175 0.102 3 
0.472 -0.187 0.102 3 
0.473 -0.197 0.103 3 
0.472 -0.205 0.103 3 
0.473 -0.217 0.103 3 
0.474 -0.227 0.103 3 
0.466 -0.015 0.092 3 
0.464 0.083 0.092 3 
0.465 0.081 0.092 3 
0.465 0.073 0.092 3 
0.465 0.062 0.092 3 
0.464 0.124 0.023 3 
0.465 0.054 0.092 3 
0.466 0.043 0.092 3 
0.466 0.033 0.092 3 
0.466 0.022 0.092 3 
0.466 0.014 0.092 3 
0.466 0.003 0.092 3 
0.466 -0.007 0.092 3 
0.464 0.092 0.092 3 
0.467 -0.025 0.093 3 
0.467 -0.036 0.093 3 
0.468 -0.047 0.093 3 
0.468 -0.055 0.093 3 
0.468 -0.066 0.093 3 
0.468 -0.077 0.093 3 
0.469 -0.085 0.093 3 
0.469 -0.096 0.093 3 
0.469 -0.107 0.093 3 
0.469 -0.116 0.093 3 
0.469 -0.127 0.093 3 
0.464 0.188 0.093 3 
0.465 0.292 0.094 3 
0.464 0.272 0.093 3 
0.464 0.263 0.093 3 
0.464 0.254 0.093 3 
0.465 0.244 0.093 3 
0.464 0.232 0.093 3 
0.464 0.223 0.093 3 
0.464 0.214 0.093 3 
0.464 0.303 0.088 3 
0.465 0.209 0.093 3 
0.465 0.203 0.093 3 
0.465 0.192 0.093 3 
0.469 -0.116 0.104 3 
0.465 0.183 0.093 3 
0.464 0.174 0.093 3 
0.465 0.172 0.093 3 
0.465 0.163 0.093 3 
0.465 0.152 0.093 3 
0.465 0.144 0.092 3 
0.464 0.138 0.092 3 
0.465 0.133 0.092 3 
0.465 0.122 0.092 3 
0.465 0.114 0.092 3 
0.465 0.103 0.092 3 
0.473 -0.266 0.112 3 
0.472 -0.196 0.114 3 
0.472 -0.205 0.114 3 
0.473 -0.217 0.114 3 
0.474 -0.227 0.114 3 
0.474 -0.276 0.115 3 
0.464 0.269 0.11 3 
0.465 0.246 0.11 3 
0.465 0.227 0.11 3 
0.475 -0.234 0.112 3 
0.475 -0.237 0.112 3 
0.474 -0.251 0.112 3 
0.474 -0.255 0.112 3 
0.471 -0.175 0.113 3 
0.474 -0.276 0.112 3 
0.475 -0.28 0.113 3 
0.476 -0.288 0.113 3 
0.477 -0.299 0.113 3 
0.477 -0.305 0.114 3 
0.478 -0.316 0.114 3 
0.479 -0.327 0.114 3 
0.473 -0.247 0.083 3 
0.464 0.31 0.108 3 
0.464 0.223 0.107 3 
0.464 0.102 0.106 3 
0.469 -0.077 0.112 3 
0.465 0.298 0.114 3 
0.464 0.282 0.113 3 
0.465 0.276 0.113 3 
0.465 0.273 0.113 3 
0.464 0.263 0.113 3 
0.464 0.254 0.113 3 
0.464 0.242 0.112 3 
0.464 0.233 0.112 3 
0.465 0.224 0.112 3 
0.463 0.322 0.043 3 
0.465 0.212 0.112 3 
0.465 0.192 0.112 3 
0.464 0.089 0.106 3 
0.469 -0.085 0.112 3 
0.468 -0.066 0.033 3 
0.469 -0.096 0.112 3 
0.47 -0.105 0.112 3 
0.47 -0.116 0.113 3 
0.47 -0.127 0.113 3 
0.47 -0.136 0.113 3 
0.472 -0.187 0.114 3 
0.469 -0.146 0.113 3 
0.47 -0.155 0.113 3 
0.471 -0.167 0.113 3 
0.466 0.014 0.103 3 
0.465 0.043 0.044 3 
0.464 0.111 0.103 3 
0.464 0.102 0.103 3 
0.465 0.095 0.103 3 
0.465 0.089 0.103 3 
0.464 0.083 0.103 3 
0.464 0.073 0.103 3 
0.465 0.07 0.103 3 
0.465 0.062 0.103 3 
0.469 -0.096 0.082 3 
0.465 0.054 0.103 3 
0.467 0.033 0.103 3 
0.465 0.114 0.103 3 
0.466 -0.006 0.103 3 
0.464 0.194 0.084 3 
0.466 -0.015 0.103 3 
0.467 -0.025 0.103 3 
0.468 -0.047 0.104 3 
0.468 -0.055 0.104 3 
0.468 -0.066 0.104 3 
0.468 -0.077 0.104 3 
0.469 -0.085 0.104 3 
0.464 0.232 0.043 3 
0.469 -0.096 0.104 3 
0.465 0.218 0.104 3 
0.479 -0.345 0.112 3 
0.472 -0.247 0.024 3 
0.479 -0.356 0.112 3 
0.463 0.28 0.104 3 
0.462 0.334 0.082 3 
0.464 0.269 0.104 3 
0.464 0.263 0.104 3 
0.464 0.254 0.104 3 
0.463 0.322 0.082 3 
0.464 0.232 0.104 3 
0.462 0.272 0.013 3 
0.464 0.223 0.104 3 
0.463 0.193 0.022 3 
0.465 0.212 0.104 3 
0.465 0.203 0.104 3 
0.465 0.192 0.104 3 
0.465 0.183 0.104 3 
0.465 0.172 0.104 3 
0.477 -0.345 0.023 3 
0.465 0.164 0.103 3 
0.465 0.152 0.103 3 
0.465 0.144 0.103 3 
0.465 0.133 0.103 3 
0.465 0.122 0.103 3 
0.467 0.033 0.074 3 
0.464 0.163 0.073 3 
0.464 0.154 0.073 3 
0.465 0.152 0.074 3 
0.465 0.144 0.074 3 
0.466 0.133 0.074 3 
0.465 0.122 0.074 3 
0.465 0.114 0.074 3 
0.465 0.103 0.074 3 
0.466 0.092 0.074 3 
0.465 0.084 0.074 3 
0.465 0.073 0.074 3 
0.466 0.062 0.074 3 
0.464 0.174 0.074 3 
0.466 0.022 0.074 3 
0.466 0.014 0.074 3 
0.467 0.003 0.074 3 
0.467 -0.007 0.074 3 
0.467 -0.015 0.074 3 
0.467 -0.025 0.074 3 
0.466 -0.036 0.074 3 
0.468 -0.055 0.074 3 
0.469 -0.085 0.074 3 
0.469 -0.096 0.074 3 
0.469 -0.107 0.074 3 
0.464 0.272 0.074 3 
0.464 0.274 0.023 3 
0.465 0.189 0.079 3 
0.48 -0.337 0.082 3 
0.48 -0.348 0.082 3 
0.478 -0.356 0.082 3 
0.462 0.338 0.074 3 
0.462 0.334 0.074 3 
0.464 0.323 0.074 3 
0.464 0.313 0.074 3 
0.464 0.303 0.074 3 
0.464 0.294 0.074 3 
0.464 0.284 0.074 3 
0.469 -0.116 0.074 3 
0.465 0.262 0.074 3 
0.465 0.244 0.074 3 
0.465 0.232 0.074 3 
0.465 0.224 0.074 3 
0.464 0.217 0.074 3 
0.465 0.212 0.074 3 
0.464 0.208 0.074 3 
0.465 0.203 0.074 3 
0.464 0.194 0.074 3 
0.465 0.192 0.074 3 
0.464 0.183 0.074 3 
0.465 0.253 0.063 3 
0.48 -0.348 0.073 3 
0.478 -0.356 0.073 3 
0.464 0.252 0.068 3 
0.464 0.243 0.065 3 
0.465 0.177 0.065 3 
0.474 -0.295 0.067 3 
0.463 0.322 0.062 3 
0.463 0.312 0.062 3 
0.464 0.303 0.062 3 
0.463 0.293 0.062 3 
0.464 0.284 0.063 3 
0.465 0.275 0.063 3 
0.479 -0.336 0.073 3 
0.467 0.003 0.052 3 
0.464 0.249 0.063 3 
0.464 0.232 0.063 3 
0.465 0.224 0.063 3 
0.464 0.211 0.063 3 
0.465 0.209 0.063 3 
0.465 0.203 0.063 3 
0.464 0.2 0.063 3 
0.464 0.194 0.063 3 
0.464 0.182 0.063 3 
0.464 0.174 0.063 3 
0.472 -0.216 0.072 3 
0.47 -0.127 0.074 3 
0.471 -0.135 0.074 3 
0.471 -0.155 0.074 3 
0.471 -0.166 0.074 3 
0.465 0.341 0.071 3 
0.473 -0.235 0.072 3 
0.465 0.265 0.071 3 
0.464 0.202 0.071 3 
0.472 -0.187 0.072 3 
0.472 -0.196 0.072 3 
0.472 -0.205 0.072 3 
0.465 0.083 0.033 3 
0.465 0.224 0.079 3 
0.466 0.122 0.052 3 
0.473 -0.226 0.072 3 
0.472 -0.246 0.072 3 
0.473 -0.266 0.072 3 
0.473 -0.275 0.072 3 
0.474 -0.286 0.072 3 
0.475 -0.293 0.072 3 
0.475 -0.296 0.072 3 
0.477 -0.308 0.073 3 
0.477 -0.315 0.073 3 
0.479 -0.326 0.073 3 
0.465 0.133 0.084 3 
0.479 -0.337 0.094 3 
0.481 -0.346 0.094 3 
0.478 -0.357 0.094 3 
0.465 0.233 0.087 3 
0.464 0.211 0.084 3 
0.464 0.203 0.084 3 
0.464 0.183 0.084 3 
0.464 0.174 0.084 3 
0.462 0.334 0.054 3 
0.464 0.163 0.084 3 
0.464 0.152 0.084 3 
0.465 0.144 0.084 3 
0.48 -0.328 0.094 3 
0.465 0.122 0.084 3 
0.466 0.114 0.084 3 
0.465 0.103 0.084 3 
0.465 0.092 0.084 3 
0.465 0.084 0.084 3 
0.46 0.336 0.014 3 
0.465 0.073 0.084 3 
0.467 -0.047 0.074 3 
0.464 0.07 0.084 3 
0.465 0.062 0.084 3 
0.466 0.054 0.084 3 
0.464 0.113 0.028 3 
0.471 -0.155 0.094 3 
0.471 -0.167 0.094 3 
0.471 -0.175 0.094 3 
0.472 -0.196 0.094 3 
0.473 -0.205 0.094 3 
0.473 -0.217 0.094 3 
0.465 0.247 0.09 3 
0.466 0.043 0.063 3 
0.464 0.183 0.09 3 
0.464 0.16 0.09 3 
0.464 0.132 0.09 3 
0.465 0.092 0.09 3 
0.466 0.043 0.084 3 
0.473 -0.226 0.092 3 
0.473 -0.235 0.092 3 
0.473 -0.257 0.092 3 
0.462 0.311 0.054 3 
0.473 -0.266 0.092 3 
0.474 -0.276 0.092 3 
0.475 -0.28 0.093 3 
0.464 0.293 0.023 3 
0.475 -0.296 0.093 3 
0.477 -0.305 0.093 3 
0.478 -0.316 0.093 3 
0.473 -0.266 0.084 3 
0.468 -0.126 0.082 3 
0.464 0.154 0.063 3 
0.471 -0.147 0.083 3 
0.471 -0.155 0.083 3 
0.47 -0.166 0.083 3 
0.471 -0.175 0.083 3 
0.471 -0.187 0.083 3 
0.471 -0.195 0.083 3 
0.472 -0.216 0.083 3 
0.473 -0.226 0.083 3 
0.473 -0.235 0.083 3 
0.473 -0.256 0.084 3 
0.468 -0.115 0.082 3 
0.462 0.142 0.014 3 
0.474 -0.286 0.084 3 
0.475 -0.293 0.084 3 
0.476 -0.297 0.084 3 
0.476 -0.307 0.084 3 
0.465 0.291 0.071 3 
0.477 -0.318 0.084 3 
0.467 0.343 0.08 3 
0.465 0.295 0.079 3 
0.465 0.288 0.079 3 
0.465 0.256 0.079 3 
0.465 0.244 0.082 3 
0.466 0.033 0.084 3 
0.466 0.022 0.084 3 
0.466 0.014 0.084 3 
0.466 0.003 0.084 3 
0.466 -0.025 0.084 3 
0.466 -0.036 0.084 3 
0.462 0.338 0.082 3 
0.464 0.313 0.082 3 
0.464 0.303 0.082 3 
0.464 0.284 0.082 3 
0.464 0.272 0.082 3 
0.464 0.263 0.082 3 
0.465 0.311 0.114 3 
0.466 0.062 0.063 3 
0.464 0.232 0.082 3 
0.465 0.23 0.082 3 
0.464 0.223 0.082 3 
0.467 -0.047 0.082 3 
0.468 -0.055 0.082 3 
0.467 -0.066 0.082 3 
0.468 -0.077 0.082 3 
0.469 -0.085 0.082 3 
0.469 -0.107 0.082 3 
0.464 -0.017 0.015 3 
