# .PCD v0.7 - Point Cloud Data file
FIELDS x y z intensity
SIZE 4 4 4 4
TYPE F F F F
COUNT 1 1 1 1
WIDTH 1974
HEIGHT 1
VIEWPOINT 0 0 0 1 0 0 0
POINTS 1974
DATA ascii
0.379 0.093 0.075 0 
0.364 0.088 0.075 0 
0.357 0.069 0.007 0 
0.376 -0.208 -0.025 1 
0.364 -0.126 -0.017 1 
0.364 -0.113 -0.017 1 
0.359 -0.085 -0.015 1 
0.362 -0.066 -0.016 1 
0.36 -0.057 -0.015 1 
0.36 -0.037 -0.015 1 
0.359 -0.035 -0.014 1 
0.334 0.044 -0.005 1 
0.332 0.054 -0.005 1 
0.331 0.061 -0.005 1 
0.324 0.073 -0.002 1 
0.319 0.084 -0.001 1 
0.302 0.1 0.004 1 
0.274 0.096 0.014 1 
0.383 -0.249 -0.027 1 
0.381 -0.217 -0.025 1 
0.374 -0.195 -0.022 1 
0.373 -0.185 -0.021 1 
0.371 -0.175 -0.02 1 
0.373 -0.148 -0.019 1 
0.37 -0.116 -0.018 1 
0.363 -0.085 -0.014 1 
0.362 -0.055 -0.014 1 
0.364 -0.047 -0.014 1 
0.364 -0.026 -0.015 1 
0.316 0.024 0.002 1 
0.33 0.032 -0.002 1 
0.273 0.095 0.016 1 
0.386 -0.224 -0.025 1 
0.382 -0.205 -0.023 1 
0.373 -0.136 -0.017 1 
0.374 -0.128 -0.017 1 
0.374 -0.105 -0.017 1 
0.37 -0.095 -0.015 1 
0.368 -0.087 -0.014 1 
0.373 -0.075 -0.016 1 
0.37 -0.069 -0.015 1 
0.368 -0.066 -0.014 1 
0.37 -0.056 -0.015 1 
0.371 -0.045 -0.015 1 
0.374 -0.036 -0.016 1 
0.373 -0.029 -0.016 1 
0.37 -0.008 -0.015 1 
0.315 0.005 0.004 1 
0.314 0.007 0.004 1 
0.313 0.024 0.004 1 
0.32 0.029 0.002 1 
0.335 0.033 -0.003 1 
0.343 0.043 -0.005 1 
0.341 0.062 -0.005 1 
0.332 0.072 -0.002 1 
0.394 -0.261 -0.027 1 
0.393 -0.226 -0.025 1 
0.382 -0.195 -0.02 1 
0.382 -0.165 -0.019 1 
0.383 -0.155 -0.019 1 
0.384 -0.116 -0.019 1 
0.383 -0.105 -0.018 1 
0.374 -0.093 -0.015 1 
0.373 -0.018 -0.014 1 
0.35 -0.002 -0.006 1 
0.342 0.064 -0.004 1 
0.314 0.1 0.004 1 
0.403 -0.257 -0.027 1 
0.4 -0.236 -0.025 1 
0.399 -0.23 -0.025 1 
0.393 -0.216 -0.022 1 
0.39 -0.207 -0.021 1 
0.389 -0.195 -0.02 1 
0.342 0.054 -0.005 1 
0.39 -0.186 -0.02 1 
0.383 -0.095 -0.016 1 
0.383 -0.091 -0.016 1 
0.384 -0.077 -0.016 1 
0.382 -0.065 -0.015 1 
0.384 -0.056 -0.016 1 
0.381 -0.045 -0.015 1 
0.379 -0.026 -0.014 1 
0.368 -0.004 -0.01 1 
0.323 0.001 0.004 1 
0.343 0.043 -0.002 1 
0.351 0.053 -0.005 1 
0.35 0.063 -0.005 1 
0.348 0.064 -0.004 1 
0.343 0.074 -0.003 1 
0.343 0.084 -0.003 1 
0.319 0.097 0.004 1 
0.284 0.095 0.015 1 
0.41 -0.265 -0.027 1 
0.404 -0.242 -0.024 1 
0.405 -0.238 -0.025 1 
0.384 -0.217 -0.024 1 
0.402 -0.227 -0.023 1 
0.393 -0.175 -0.019 1 
0.391 -0.165 -0.018 1 
0.393 -0.136 -0.018 1 
0.394 -0.121 -0.018 1 
0.391 -0.107 -0.017 1 
0.391 -0.086 -0.016 1 
0.389 -0.075 -0.016 1 
0.389 -0.055 -0.015 1 
0.384 -0.024 -0.014 1 
0.338 0.094 0 1 
0.323 0.093 0.004 1 
0.316 0.095 0.006 1 
0.287 0.095 0.015 1 
0.41 -0.279 -0.026 1 
0.414 -0.255 -0.026 1 
0.413 -0.246 -0.025 1 
0.401 -0.215 -0.02 1 
0.404 -0.205 -0.021 1 
0.403 -0.197 -0.02 1 
0.394 -0.1 -0.015 1 
0.394 -0.066 -0.015 1 
0.394 -0.046 -0.015 1 
0.394 -0.026 -0.015 1 
0.392 -0.015 -0.014 1 
0.393 -0.009 -0.015 1 
0.426 -0.008 -0.025 1 
0.331 -0.001 0.004 1 
0.342 0.046 0 1 
0.354 0.051 -0.003 1 
0.36 0.054 -0.005 1 
0.363 0.064 -0.006 1 
0.36 0.067 -0.005 1 
0.353 0.074 -0.003 1 
0.354 0.084 -0.003 1 
0.418 -0.265 -0.025 1 
0.419 -0.26 -0.025 1 
0.412 -0.237 -0.022 1 
0.404 -0.186 -0.018 1 
0.404 -0.17 -0.018 1 
0.402 -0.145 -0.017 1 
0.402 -0.136 -0.016 1 
0.401 -0.105 -0.016 1 
0.404 -0.095 -0.016 1 
0.401 -0.075 -0.015 1 
0.402 -0.065 -0.015 1 
0.399 -0.049 -0.014 1 
0.4 -0.045 -0.015 1 
0.399 -0.043 -0.014 1 
0.402 -0.035 -0.015 1 
0.403 -0.01 -0.016 1 
0.304 0.023 0.014 1 
0.304 0.031 0.014 1 
0.312 0.038 0.011 1 
0.363 0.073 -0.004 1 
0.358 0.084 -0.003 1 
0.331 0.095 0.004 1 
0.304 0.095 0.013 1 
0.298 0.094 0.014 1 
0.423 -0.296 -0.025 1 
0.422 -0.292 -0.025 1 
0.426 -0.267 -0.025 1 
0.426 -0.264 -0.025 1 
0.424 -0.257 -0.024 1 
0.413 -0.225 -0.019 1 
0.358 -0.006 -0.012 1 
0.413 -0.215 -0.019 1 
0.412 -0.195 -0.019 1 
0.41 -0.186 -0.018 1 
0.41 -0.155 -0.017 1 
0.394 -0.253 -0.026 1 
0.41 -0.116 -0.016 1 
0.41 -0.087 -0.016 1 
0.409 -0.075 -0.015 1 
0.41 -0.067 -0.016 1 
0.407 -0.025 -0.015 1 
0.415 -0.014 -0.017 1 
0.359 -0.002 0 1 
0.373 0.063 -0.005 1 
0.372 0.076 -0.005 1 
0.332 0.036 0 1 
0.305 0.095 0.014 1 
0.43 -0.307 -0.025 1 
0.431 -0.299 -0.025 1 
0.432 -0.291 -0.025 1 
0.432 -0.282 -0.025 1 
0.422 -0.246 -0.02 1 
0.422 -0.235 -0.02 1 
0.423 -0.226 -0.02 1 
0.422 -0.217 -0.019 1 
0.414 -0.174 -0.016 1 
0.414 -0.146 -0.016 1 
0.413 -0.106 -0.015 1 
0.414 -0.104 -0.015 1 
0.414 -0.057 -0.015 1 
0.414 -0.052 -0.015 1 
0.411 -0.045 -0.014 1 
0.413 -0.025 -0.014 1 
0.408 -0.012 -0.013 1 
0.335 0 0.007 1 
0.324 0.014 0.011 1 
0.312 0.02 0.014 1 
0.378 0.067 -0.005 1 
0.37 0.083 -0.003 1 
0.433 -0.308 -0.023 1 
0.433 -0.295 -0.023 1 
0.433 -0.286 -0.022 1 
0.433 -0.277 -0.022 1 
0.421 -0.196 -0.016 1 
0.421 -0.176 -0.016 1 
0.42 -0.156 -0.015 1 
0.419 -0.146 -0.015 1 
0.423 -0.127 -0.016 1 
0.422 -0.105 -0.015 1 
0.423 -0.096 -0.015 1 
0.422 -0.086 -0.015 1 
0.422 -0.075 -0.015 1 
0.422 -0.072 -0.015 1 
0.419 -0.065 -0.014 1 
0.419 -0.055 -0.014 1 
0.42 -0.047 -0.014 1 
0.383 -0.187 -0.02 1 
0.391 -0.145 -0.017 1 
0.419 -0.035 -0.014 1 
0.421 -0.026 -0.014 1 
0.383 -0.03 -0.015 1 
0.424 -0.015 -0.015 1 
0.429 -0.011 -0.017 1 
0.434 -0.255 -0.019 1 
0.432 -0.245 -0.018 1 
0.434 -0.227 -0.018 1 
0.432 -0.218 -0.018 1 
0.428 -0.146 -0.015 1 
0.428 -0.127 -0.015 1 
0.429 -0.098 -0.015 1 
0.43 -0.077 -0.015 1 
0.43 -0.07 -0.015 1 
0.429 -0.067 -0.014 1 
0.362 -0.045 -0.015 1 
0.431 -0.034 -0.015 1 
0.442 -0.009 -0.018 1 
0.322 -0.002 0.014 1 
0.326 0.004 0.013 1 
0.383 0.074 -0.002 1 
0.364 0.093 0.002 1 
0.367 0.099 0.001 1 
0.355 0.1 0.004 1 
0.353 0.1 0.004 1 
0.348 0.099 0.006 1 
0.442 -0.295 -0.02 1 
0.441 -0.276 -0.019 1 
0.434 -0.212 -0.015 1 
0.435 -0.207 -0.016 1 
0.436 -0.189 -0.015 1 
0.434 -0.185 -0.015 1 
0.434 -0.18 -0.015 1 
0.433 -0.177 -0.014 1 
0.431 -0.155 -0.013 1 
0.434 -0.145 -0.014 1 
0.434 -0.135 -0.014 1 
0.434 -0.127 -0.014 1 
0.433 -0.117 -0.013 1 
0.434 -0.105 -0.014 1 
0.432 -0.097 -0.013 1 
0.433 -0.085 -0.013 1 
0.434 -0.083 -0.013 1 
0.434 -0.047 -0.013 1 
0.291 0.095 0.014 1 
0.44 -0.016 -0.015 1 
0.336 0.014 0.012 1 
0.38 0.083 0 1 
0.369 0.088 0.002 1 
0.441 -0.256 -0.016 1 
0.444 -0.244 -0.016 1 
0.441 -0.217 -0.015 1 
0.441 -0.201 -0.014 1 
0.441 -0.187 -0.014 1 
0.439 -0.145 -0.013 1 
0.439 -0.137 -0.013 1 
0.439 -0.117 -0.012 1 
0.314 0.027 0.004 1 
0.441 -0.075 -0.013 1 
0.44 -0.065 -0.012 1 
0.443 -0.046 -0.013 1 
0.438 -0.035 -0.012 1 
0.452 -0.009 -0.016 1 
0.334 0.018 0.014 1 
0.453 -0.317 -0.018 1 
0.451 -0.295 -0.016 1 
0.45 -0.285 -0.016 1 
0.448 -0.277 -0.015 1 
0.451 -0.247 -0.015 1 
0.451 -0.238 -0.015 1 
0.443 -0.175 -0.012 1 
0.443 -0.165 -0.012 1 
0.444 -0.158 -0.012 1 
0.443 -0.106 -0.011 1 
0.442 -0.095 -0.011 1 
0.443 -0.091 -0.011 1 
0.444 -0.058 -0.011 1 
0.444 -0.026 -0.011 1 
0.451 -0.014 -0.013 1 
0.457 -0.305 -0.015 1 
0.455 -0.296 -0.015 1 
0.453 -0.276 -0.014 1 
0.453 -0.255 -0.013 1 
0.454 -0.247 -0.013 1 
0.454 -0.238 -0.013 1 
0.452 -0.225 -0.012 1 
0.452 -0.206 -0.012 1 
0.452 -0.195 -0.012 1 
0.449 -0.185 -0.011 1 
0.451 -0.175 -0.011 1 
0.453 -0.155 -0.011 1 
0.453 -0.147 -0.011 1 
0.453 -0.125 -0.011 1 
0.451 -0.117 -0.01 1 
0.449 -0.105 -0.01 1 
0.451 -0.096 -0.01 1 
0.441 -0.206 -0.014 1 
0.451 -0.085 -0.01 1 
0.453 -0.055 -0.01 1 
0.465 -0.323 -0.015 1 
0.464 -0.315 -0.014 1 
0.464 -0.305 -0.014 1 
0.46 -0.298 -0.013 1 
0.454 -0.219 -0.01 1 
0.353 0.02 0.014 1 
0.374 -0.025 -0.014 1 
0.366 0.025 0.011 1 
0.464 -0.286 -0.011 1 
0.462 -0.269 -0.01 1 
0.461 -0.256 -0.009 1 
0.464 -0.246 -0.01 1 
0.459 -0.225 -0.008 1 
0.459 -0.217 -0.008 1 
0.462 -0.165 -0.008 1 
0.464 -0.158 -0.008 1 
0.463 -0.146 -0.008 1 
0.357 -0.025 -0.014 1 
0.362 0.025 0.014 1 
0.472 -0.355 -0.012 1 
0.473 -0.349 -0.012 1 
0.473 -0.335 -0.011 1 
0.474 -0.326 -0.011 1 
0.364 -0.083 -0.015 1 
0.474 -0.315 -0.011 1 
0.451 -0.047 -0.01 1 
0.472 -0.307 -0.01 1 
0.465 -0.201 -0.007 1 
0.464 -0.197 -0.006 1 
0.464 -0.186 -0.006 1 
0.354 0.022 0.015 1 
0.464 -0.183 -0.006 1 
0.466 -0.176 -0.006 1 
0.467 -0.165 -0.006 1 
0.467 -0.145 -0.006 1 
0.466 -0.136 -0.006 1 
0.465 -0.128 -0.006 1 
0.464 -0.125 -0.005 1 
0.466 -0.106 -0.006 1 
0.466 -0.101 -0.006 1 
0.381 -0.145 -0.018 1 
0.464 -0.087 -0.005 1 
0.462 -0.081 -0.005 1 
0.465 -0.073 -0.005 1 
0.464 -0.065 -0.005 1 
0.383 -0.241 -0.027 1 
0.463 -0.057 -0.005 1 
0.464 -0.049 -0.005 1 
0.465 -0.039 -0.005 1 
0.463 -0.036 -0.005 1 
0.463 -0.028 -0.005 1 
0.465 -0.025 -0.005 1 
0.428 -0.122 -0.015 1 
0.469 -0.015 -0.006 1 
0.377 0.004 0.012 1 
0.373 -0.006 -0.014 1 
0.311 0.014 0.009 1 
0.367 0.014 0.014 1 
0.473 -0.285 -0.007 1 
0.472 -0.278 -0.006 1 
0.472 -0.265 -0.006 1 
0.473 -0.247 -0.006 1 
0.472 -0.237 -0.006 1 
0.47 -0.228 -0.005 1 
0.468 -0.22 -0.005 1 
0.464 -0.084 -0.002 1 
0.399 -0.001 0.01 1 
0.388 0.004 0.012 1 
0.39 -0.011 -0.014 1 
0.431 -0.041 -0.015 1 
0.387 0.006 0.012 1 
0.378 -0.007 -0.014 1 
0.379 0.012 0.014 1 
0.479 -0.355 -0.007 1 
0.48 -0.346 -0.007 1 
0.478 -0.336 -0.006 1 
0.481 -0.326 -0.006 1 
0.481 -0.316 -0.006 1 
0.477 -0.295 -0.005 1 
0.478 -0.289 -0.005 1 
0.474 -0.27 -0.004 1 
0.474 -0.264 -0.004 1 
0.398 0.01 0.012 1 
0.374 0.013 0.017 1 
0.393 0.01 0.015 1 
0.414 -0.141 -0.016 1 
0.471 -0.216 0.002 1 
0.472 -0.205 0.002 1 
0.473 -0.197 0.002 1 
0.472 -0.188 0.002 1 
0.472 -0.165 0.003 1 
0.471 -0.156 0.003 1 
0.47 -0.147 0.003 1 
0.47 -0.135 0.003 1 
0.47 -0.105 0.003 1 
0.467 -0.085 0.004 1 
0.468 -0.077 0.004 1 
0.413 -0.126 -0.017 1 
0.465 -0.007 0.004 1 
0.464 -0.004 0.004 1 
0.466 0.006 0.004 1 
0.464 0.008 0.004 1 
0.482 -0.306 0.002 1 
0.478 -0.286 0.003 1 
0.475 -0.277 0.004 1 
0.474 -0.227 0.004 1 
0.407 -0.016 -0.015 1 
0.412 0.016 0.016 1 
0.482 -0.355 0.004 1 
0.482 -0.337 0.004 1 
0.482 -0.326 0.004 1 
0.464 -0.009 0.01 1 
0.464 -0.001 0.01 1 
0.483 0.015 0.007 1 
0.375 -0.016 -0.015 1 
0.399 -0.157 -0.018 1 
0.462 -0.012 -0.01 1 
0.464 0.008 0.012 1 
0.463 0.016 0.013 1 
0.451 0.018 0.014 1 
0.402 -0.016 -0.015 1 
0.452 -0.065 -0.01 1 
0.484 -0.346 0.01 1 
0.402 -0.245 -0.026 1 
0.427 -0.156 -0.015 1 
0.486 -0.348 0.012 1 
0.485 -0.343 0.013 1 
0.484 -0.335 0.013 1 
0.482 -0.326 0.013 1 
0.482 -0.348 0.004 1 
0.429 -0.137 -0.015 1 
0.442 -0.265 -0.016 1 
0.444 -0.316 -0.018 1 
0.337 0.018 0.011 1 
0.404 -0.087 -0.016 1 
0.453 -0.136 -0.011 1 
0.376 0.064 -0.004 1 
0.443 -0.246 -0.016 1 
0.467 -0.126 0.004 1 
0.42 -0.019 -0.014 1 
0.389 -0.235 -0.026 1 
0.331 0.063 -0.003 1 
0.428 -0.013 -0.014 1 
0.423 -0.206 -0.017 1 
0.453 -0.307 -0.017 1 
0.412 -0.036 -0.014 1 
0.413 -0.017 -0.014 1 
0.384 -0.036 -0.016 1 
0.454 -0.024 -0.008 1 
0.464 -0.325 -0.015 1 
0.442 -0.196 -0.015 1 
0.349 -0.006 -0.011 1 
0.316 0.019 0.014 1 
0.463 -0.116 -0.005 1 
0.383 -0.126 -0.018 1 
0.462 -0.135 -0.008 1 
0.394 -0.125 -0.018 1 
0.427 -0.165 -0.015 1 
0.433 -0.237 -0.018 1 
0.471 -0.007 -0.007 1 
0.467 0.014 0.012 1 
0.431 -0.266 -0.021 1 
0.402 -0.056 -0.015 1 
0.434 -0.035 -0.013 1 
0.474 -0.295 -0.007 1 
0.338 0.096 0.009 1 
0.369 -0.054 -0.014 1 
0.453 -0.267 -0.013 1 
0.347 0.094 -0.001 1 
0.301 0.095 0.015 1 
0.42 -0.166 -0.015 1 
0.464 -0.023 -0.008 1 
0.479 -0.307 -0.006 1 
0.329 0.012 0.014 1 
0.462 -0.337 -0.015 1 
0.422 -0.136 -0.015 1 
0.469 -0.096 0.004 1 
0.48 -0.298 0.002 1 
0.465 -0.206 -0.007 1 
0.454 -0.027 -0.008 1 
0.403 -0.176 -0.018 1 
0.414 -0.177 -0.016 1 
0.441 -0.285 -0.019 1 
0.45 -0.037 -0.01 1 
0.391 -0.035 -0.016 1 
0.453 -0.285 -0.014 1 
0.403 -0.126 -0.016 1 
0.393 -0.155 -0.018 1 
0.444 -0.024 -0.011 1 
0.464 -0.114 -0.005 1 
0.464 -0.012 -0.003 1 
0.364 -0.096 -0.017 1 
0.382 -0.175 -0.019 1 
0.471 -0.161 -0.005 1 
0.433 -0.016 -0.015 1 
0.384 -0.227 -0.026 1 
0.464 -0.318 -0.015 1 
0.453 -0.076 -0.011 1 
0.374 -0.063 -0.014 1 
0.346 -0.001 0.003 1 
0.433 -0.025 -0.013 1 
0.421 -0.186 -0.016 1 
0.364 -0.015 -0.013 1 
0.441 -0.014 -0.013 1 
0.437 0.005 0.007 1 
0.414 -0.206 -0.019 1 
0.439 -0.127 -0.013 1 
0.402 -0.267 -0.027 1 
0.442 -0.305 -0.02 1 
0.434 -0.056 -0.013 1 
0.329 0.094 0.004 1 
0.374 -0.155 -0.02 1 
0.447 -0.27 -0.015 1 
0.457 -0.087 -0.004 1 
0.332 0.083 -0.002 1 
0.446 -0.232 -0.016 1 
0.42 -0.012 -0.014 1 
0.48 -0.307 0.014 1 
0.432 -0.166 -0.014 1 
0.354 -0.016 -0.013 1 
0.421 -0.081 -0.014 1 
0.473 -0.257 -0.006 1 
0.421 -0.116 -0.015 1 
0.364 -0.115 -0.017 1 
0.375 0.089 0.001 1 
0.393 -0.021 -0.015 1 
0.284 0.096 0.014 1 
0.464 -0.095 -0.005 1 
0.424 -0.282 -0.025 1 
0.429 -0.195 -0.016 1 
0.462 -0.275 -0.01 1 
0.469 0.003 0.001 1 
0.482 -0.323 0.004 1 
0.305 0.034 0.013 1 
0.464 -0.057 -0.002 1 
0.304 0.023 0.016 1 
0.447 -0.264 -0.015 1 
0.459 -0.205 -0.008 1 
0.453 -0.165 -0.011 1 
0.444 -0.227 -0.015 1 
0.371 0.059 -0.004 1 
0.415 -0.059 -0.015 1 
0.403 -0.115 -0.016 1 
0.4 -0.026 -0.015 1 
0.482 -0.355 0.007 1 
0.335 -0.002 0.003 1 
0.434 -0.02 -0.013 1 
0.465 -0.076 -0.005 1 
0.451 -0.331 -0.018 1 
0.463 -0.236 -0.009 1 
0.465 -0.337 -0.015 1 
0.373 -0.166 -0.02 1 
0.372 0.074 -0.005 1 
0.481 -0.315 0.014 1 
0.305 0.039 0.016 1 
0.381 -0.135 -0.018 1 
0.465 -0.047 -0.005 1 
0.408 -0.01 -0.015 1 
0.339 0.096 0.004 1 
0.341 0.031 0.028 2 
0.394 0.018 0.008 2 
0.361 0.024 0.013 2 
0.378 0.038 0.036 2 
0.352 0.033 0.03 2 
0.375 0.034 0.033 2 
0.325 0.041 0.052 2 
0.498 0.072 0.037 2 
0.334 0.042 0.05 2 
0.495 0.071 0.04 2 
0.521 0.083 0.042 2 
0.509 0.074 0.042 2 
0.5 0.075 0.04 2 
0.397 0.044 0.04 2 
0.395 0.045 0.04 2 
0.452 -0.251 0.053 2 
0.32 0.037 0.048 2 
0.403 0.047 0.037 2 
0.392 0.041 0.038 2 
0.403 0.04 0.037 2 
0.523 0.087 0.046 2 
0.367 0.034 0.025 2 
0.366 0.018 0.011 2 
0.377 0.013 0.009 2 
0.354 0.03 0.02 2 
0.329 0.026 0.021 2 
0.365 0.021 0.012 2 
0.398 0.023 0.011 2 
0.352 0.035 0.03 2 
0.38 0.019 0.012 2 
0.361 0.035 0.027 2 
0.361 0.03 0.022 2 
0.312 0.059 0.022 2 
0.333 0.093 0.013 2 
0.321 0.083 0.016 2 
0.335 0.08 0.015 2 
0.318 0.089 0.01 2 
0.337 0.024 0.017 2 
0.32 0.033 0.034 2 
0.416 0.054 0.032 2 
0.389 0.042 0.035 2 
0.337 0.04 0.039 2 
0.384 0.033 0.032 2 
0.386 0.032 0.031 2 
0.427 0.035 0.015 2 
0.361 0.024 0.018 2 
0.394 0.049 0.029 2 
0.361 0.042 0.032 2 
0.397 0.029 0.015 2 
0.318 0.075 0.078 2 
0.318 0.072 0.078 2 
0.372 0.041 0.033 2 
0.374 0.035 0.038 2 
0.314 0.057 0.068 2 
0.326 0.06 0.069 2 
0.331 0.064 0.07 2 
0.343 0.025 0.017 2 
0.321 0.042 0.054 2 
0.413 0.049 0.038 2 
0.474 -0.266 0.012 3 
0.488 -0.328 0.162 3 
0.489 -0.336 0.162 3 
0.465 -0.02 0.103 3 
0.462 0.053 0.052 3 
0.265 0.083 0.088 3 
0.473 -0.175 0.15 3 
0.478 -0.195 0.152 3 
0.478 -0.207 0.152 3 
0.48 -0.235 0.153 3 
0.477 -0.186 0.154 3 
0.48 -0.257 0.154 3 
0.459 0.189 0.143 3 
0.459 0.183 0.143 3 
0.458 0.174 0.143 3 
0.461 0.162 0.143 3 
0.461 0.154 0.143 3 
0.462 0.143 0.143 3 
0.463 0.133 0.144 3 
0.463 0.124 0.143 3 
0.462 0.113 0.143 3 
0.467 -0.047 0.034 3 
0.472 -0.075 0.154 3 
0.473 -0.087 0.154 3 
0.473 -0.095 0.154 3 
0.474 -0.245 0.089 3 
0.471 -0.134 0.154 3 
0.474 -0.175 0.156 3 
0.485 -0.298 0.163 3 
0.486 -0.305 0.163 3 
0.486 -0.316 0.164 3 
0.464 0.062 0.149 3 
0.485 -0.294 0.16 3 
0.474 -0.107 0.152 3 
0.474 -0.115 0.152 3 
0.475 -0.121 0.153 3 
0.472 -0.137 0.152 3 
0.473 -0.146 0.152 3 
0.473 -0.157 0.153 3 
0.474 -0.166 0.153 3 
0.477 -0.266 0.104 3 
0.475 -0.176 0.154 3 
0.462 0.102 0.143 3 
0.475 -0.118 0.144 3 
0.24 0.074 0.079 3 
0.471 -0.056 0.142 3 
0.469 -0.066 0.142 3 
0.468 -0.077 0.142 3 
0.471 -0.086 0.143 3 
0.475 -0.098 0.144 3 
0.48 -0.295 0.093 3 
0.474 -0.106 0.144 3 
0.475 -0.112 0.144 3 
0.474 -0.115 0.144 3 
0.266 0.074 0.035 3 
0.474 -0.126 0.144 3 
0.472 -0.145 0.144 3 
0.473 -0.16 0.144 3 
0.473 -0.166 0.144 3 
0.488 -0.307 0.152 3 
0.488 -0.317 0.152 3 
0.488 -0.327 0.153 3 
0.489 -0.336 0.153 3 
0.283 0.088 0.09 3 
0.465 0.001 0.138 3 
0.463 0.003 0.143 3 
0.463 0.094 0.143 3 
0.464 0.084 0.143 3 
0.463 0.073 0.143 3 
0.464 -0.006 0.092 3 
0.463 0.062 0.143 3 
0.464 0.054 0.143 3 
0.463 0.033 0.143 3 
0.463 0.022 0.143 3 
0.464 0.014 0.143 3 
0.47 -0.186 0.014 3 
0.471 -0.067 0.154 3 
0.484 -0.306 0.133 3 
0.463 -0.006 0.143 3 
0.465 -0.014 0.143 3 
0.467 -0.017 0.144 3 
0.468 -0.025 0.144 3 
0.48 -0.267 0.151 3 
0.481 -0.277 0.152 3 
0.482 -0.285 0.152 3 
0.485 -0.294 0.154 3 
0.485 -0.297 0.154 3 
0.48 -0.197 0.164 3 
0.486 -0.326 0.173 3 
0.485 -0.32 0.103 3 
0.49 -0.345 0.176 3 
0.465 0.065 0.157 3 
0.464 0.041 0.157 3 
0.474 -0.129 0.161 3 
0.475 -0.158 0.162 3 
0.476 -0.165 0.162 3 
0.477 -0.177 0.163 3 
0.478 -0.186 0.163 3 
0.485 -0.315 0.173 3 
0.479 -0.205 0.164 3 
0.484 -0.31 0.169 3 
0.477 -0.235 0.104 3 
0.489 -0.34 0.172 3 
0.267 0.087 0.092 3 
0.461 0.165 0.154 3 
0.461 0.162 0.154 3 
0.461 0.154 0.154 3 
0.461 0.143 0.154 3 
0.474 -0.107 0.163 3 
0.486 -0.318 0.124 3 
0.473 -0.045 0.162 3 
0.472 -0.056 0.162 3 
0.472 -0.067 0.162 3 
0.472 -0.075 0.162 3 
0.475 -0.087 0.163 3 
0.474 -0.09 0.163 3 
0.475 -0.096 0.164 3 
0.474 -0.098 0.163 3 
0.463 0.133 0.154 3 
0.474 -0.115 0.164 3 
0.475 -0.124 0.164 3 
0.475 -0.135 0.164 3 
0.472 -0.147 0.083 3 
0.474 -0.144 0.164 3 
0.475 -0.147 0.164 3 
0.474 -0.149 0.164 3 
0.474 -0.155 0.164 3 
0.484 -0.297 0.172 3 
0.485 -0.305 0.172 3 
0.461 0.182 0.152 3 
0.479 -0.247 0.162 3 
0.246 0.074 0.084 3 
0.48 -0.257 0.163 3 
0.295 0.049 0.061 3 
0.482 -0.265 0.164 3 
0.482 -0.275 0.164 3 
0.482 -0.285 0.164 3 
0.485 -0.304 0.166 3 
0.245 0.075 0.084 3 
0.461 0.194 0.152 3 
0.481 -0.236 0.162 3 
0.465 0.092 0.152 3 
0.48 -0.266 0.143 3 
0.465 0.068 0.152 3 
0.464 0.052 0.151 3 
0.463 0.043 0.151 3 
0.464 0.014 0.151 3 
0.467 -0.017 0.152 3 
0.308 0.071 0.075 3 
0.469 -0.025 0.153 3 
0.47 -0.056 0.153 3 
0.464 0.022 0.154 3 
0.463 0.116 0.154 3 
0.478 -0.225 0.153 3 
0.463 0.114 0.154 3 
0.463 0.094 0.154 3 
0.464 0.084 0.154 3 
0.464 0.073 0.154 3 
0.465 0.063 0.154 3 
0.461 0.064 0.073 3 
0.465 0.054 0.154 3 
0.465 0.044 0.154 3 
0.474 -0.178 0.142 3 
0.474 -0.251 0.032 3 
0.465 0.019 0.154 3 
0.465 0.014 0.154 3 
0.464 0.003 0.154 3 
0.465 -0.001 0.154 3 
0.464 -0.006 0.154 3 
0.465 -0.009 0.154 3 
0.479 -0.216 0.161 3 
0.48 -0.226 0.162 3 
0.469 -0.077 0.123 3 
0.486 -0.318 0.133 3 
0.486 -0.325 0.134 3 
0.487 -0.336 0.134 3 
0.296 0.088 0.086 3 
0.466 -0.015 0.122 3 
0.467 -0.025 0.122 3 
0.466 -0.036 0.122 3 
0.467 -0.047 0.122 3 
0.468 -0.055 0.123 3 
0.469 -0.066 0.123 3 
0.485 -0.31 0.133 3 
0.47 -0.086 0.123 3 
0.471 -0.097 0.124 3 
0.479 -0.287 0.093 3 
0.472 -0.106 0.124 3 
0.472 -0.117 0.124 3 
0.473 -0.126 0.124 3 
0.473 -0.137 0.124 3 
0.473 -0.145 0.124 3 
0.485 -0.303 0.13 3 
0.487 -0.347 0.131 3 
0.461 0.053 0.124 3 
0.459 0.152 0.124 3 
0.459 0.144 0.124 3 
0.465 -0.065 0.023 3 
0.459 0.133 0.124 3 
0.46 0.123 0.124 3 
0.459 0.114 0.124 3 
0.459 0.104 0.123 3 
0.46 0.093 0.124 3 
0.461 0.083 0.124 3 
0.461 0.064 0.124 3 
0.292 0.081 0.084 3 
0.461 0.043 0.124 3 
0.462 0.032 0.124 3 
0.462 0.024 0.124 3 
0.465 0.011 0.124 3 
0.464 0.003 0.124 3 
0.464 -0.006 0.124 3 
0.465 -0.012 0.124 3 
0.474 -0.186 0.128 3 
0.482 -0.297 0.132 3 
0.46 0.144 0.113 3 
0.474 -0.206 0.12 3 
0.474 -0.215 0.12 3 
0.478 -0.267 0.122 3 
0.476 -0.256 0.044 3 
0.481 -0.286 0.123 3 
0.482 -0.297 0.123 3 
0.485 -0.306 0.124 3 
0.484 -0.34 0.125 3 
0.483 -0.346 0.125 3 
0.285 0.073 0.08 3 
0.476 -0.207 0.103 3 
0.46 0.134 0.113 3 
0.459 0.122 0.113 3 
0.459 0.114 0.113 3 
0.46 0.104 0.113 3 
0.46 0.093 0.113 3 
0.459 0.082 0.113 3 
0.459 0.074 0.113 3 
0.46 0.053 0.113 3 
0.461 0.043 0.113 3 
0.471 -0.175 0.063 3 
0.476 -0.205 0.123 3 
0.485 -0.343 0.025 3 
0.465 -0.004 0.119 3 
0.486 -0.335 0.122 3 
0.465 -0.076 0.012 3 
0.473 -0.157 0.122 3 
0.472 -0.165 0.122 3 
0.474 -0.18 0.122 3 
0.474 -0.186 0.122 3 
0.475 -0.189 0.123 3 
0.476 -0.196 0.123 3 
0.476 -0.217 0.123 3 
0.476 -0.226 0.123 3 
0.478 -0.236 0.124 3 
0.477 -0.245 0.124 3 
0.478 -0.255 0.124 3 
0.484 -0.316 0.127 3 
0.245 0.07 0.074 3 
0.275 0.072 0.079 3 
0.475 -0.183 0.12 3 
0.462 0.054 0.132 3 
0.483 -0.288 0.144 3 
0.471 -0.207 0.013 3 
0.266 0.075 0.083 3 
0.46 0.153 0.132 3 
0.46 0.142 0.132 3 
0.46 0.134 0.132 3 
0.461 0.123 0.132 3 
0.466 -0.095 0.012 3 
0.46 0.104 0.132 3 
0.461 0.094 0.132 3 
0.48 -0.276 0.143 3 
0.463 0.043 0.132 3 
0.462 0.032 0.132 3 
0.463 0.022 0.132 3 
0.464 0.014 0.132 3 
0.465 0.011 0.133 3 
0.465 0.003 0.132 3 
0.464 0.001 0.132 3 
0.464 -0.006 0.132 3 
0.465 -0.009 0.132 3 
0.474 -0.215 0.064 3 
0.458 0.163 0.134 3 
0.475 -0.187 0.143 3 
0.473 -0.189 0.142 3 
0.476 -0.196 0.143 3 
0.474 -0.165 0.094 3 
0.477 -0.206 0.143 3 
0.477 -0.215 0.143 3 
0.479 -0.228 0.144 3 
0.255 0.074 0.082 3 
0.455 0.175 0.134 3 
0.456 0.173 0.134 3 
0.466 -0.017 0.133 3 
0.46 0.107 0.134 3 
0.461 0.083 0.134 3 
0.454 0.123 0.102 3 
0.461 0.072 0.134 3 
0.461 0.064 0.134 3 
0.475 -0.149 0.139 3 
0.475 -0.158 0.139 3 
0.479 -0.237 0.142 3 
0.48 -0.247 0.142 3 
0.479 -0.256 0.142 3 
0.478 -0.246 0.133 3 
0.472 -0.177 0.133 3 
0.475 -0.187 0.134 3 
0.476 -0.196 0.134 3 
0.483 -0.295 0.138 3 
0.233 0.078 0.074 3 
0.477 -0.205 0.132 3 
0.475 -0.207 0.047 3 
0.478 -0.218 0.132 3 
0.478 -0.227 0.132 3 
0.479 -0.237 0.133 3 
0.472 -0.165 0.133 3 
0.48 -0.266 0.134 3 
0.472 -0.167 0.044 3 
0.48 -0.276 0.134 3 
0.481 -0.286 0.134 3 
0.489 -0.346 0.138 3 
0.235 0.076 0.074 3 
0.237 0.074 0.074 3 
0.275 0.076 0.083 3 
0.467 0.165 0.126 3 
0.458 0.157 0.124 3 
0.487 -0.316 0.143 3 
0.467 -0.025 0.133 3 
0.468 -0.036 0.133 3 
0.47 -0.047 0.134 3 
0.47 -0.056 0.134 3 
0.469 -0.066 0.134 3 
0.469 -0.077 0.134 3 
0.47 -0.086 0.134 3 
0.485 -0.297 0.142 3 
0.487 -0.309 0.142 3 
0.472 -0.037 0.162 3 
0.488 -0.327 0.143 3 
0.266 0.074 0.082 3 
0.471 -0.097 0.132 3 
0.473 -0.117 0.132 3 
0.474 -0.126 0.133 3 
0.481 -0.318 0.034 3 
0.473 -0.137 0.133 3 
0.473 -0.146 0.133 3 
0.474 -0.155 0.133 3 
0.458 0.084 0.073 3 
0.481 -0.186 0.191 3 
0.482 -0.199 0.191 3 
0.482 -0.205 0.192 3 
0.483 -0.218 0.193 3 
0.481 -0.226 0.192 3 
0.484 -0.237 0.194 3 
0.495 -0.326 0.202 3 
0.464 0.232 0.182 3 
0.465 0.23 0.183 3 
0.466 0.224 0.183 3 
0.471 0.014 0.184 3 
0.463 0.216 0.181 3 
0.464 0.103 0.154 3 
0.465 0.197 0.182 3 
0.467 0.193 0.182 3 
0.469 0.182 0.183 3 
0.464 0.139 0.18 3 
0.47 0.053 0.181 3 
0.472 0.003 0.182 3 
0.464 0.043 0.052 3 
0.475 -0.007 0.183 3 
0.468 0.113 0.184 3 
0.462 0.204 0.184 3 
0.466 0.166 0.184 3 
0.472 -0.137 0.144 3 
0.466 0.163 0.184 3 
0.466 0.152 0.184 3 
0.466 0.143 0.183 3 
0.468 0.133 0.184 3 
0.479 -0.275 0.122 3 
0.468 0.124 0.184 3 
0.472 -0.106 0.132 3 
0.476 -0.015 0.183 3 
0.467 0.104 0.183 3 
0.467 0.093 0.183 3 
0.468 -0.036 0.001 3 
0.468 0.083 0.183 3 
0.465 0.038 0.066 3 
0.468 0.074 0.183 3 
0.47 0.064 0.184 3 
0.471 0.042 0.184 3 
0.471 0.034 0.184 3 
0.472 0.02 0.184 3 
0.473 -0.023 0.179 3 
0.487 -0.297 0.194 3 
0.474 -0.209 0.044 3 
0.494 -0.325 0.198 3 
0.234 0.08 0.087 3 
0.252 0.086 0.094 3 
0.464 0.131 0.177 3 
0.464 0.123 0.177 3 
0.464 0.106 0.176 3 
0.464 0.103 0.176 3 
0.474 -0.007 0.18 3 
0.474 -0.236 0.013 3 
0.473 -0.026 0.179 3 
0.473 -0.037 0.173 3 
0.478 -0.097 0.182 3 
0.478 -0.125 0.182 3 
0.282 0.048 0.034 3 
0.478 -0.137 0.182 3 
0.478 -0.146 0.183 3 
0.477 -0.157 0.183 3 
0.478 -0.166 0.183 3 
0.48 -0.176 0.184 3 
0.477 -0.114 0.184 3 
0.475 -0.026 0.183 3 
0.475 -0.035 0.183 3 
0.474 -0.04 0.183 3 
0.476 -0.046 0.183 3 
0.477 -0.057 0.184 3 
0.477 -0.065 0.184 3 
0.464 0.03 0.047 3 
0.477 -0.077 0.184 3 
0.465 -0.004 0.087 3 
0.478 -0.086 0.184 3 
0.465 -0.009 0.092 3 
0.474 -0.168 0.102 3 
0.476 -0.119 0.184 3 
0.255 0.066 0.043 3 
0.485 -0.241 0.191 3 
0.486 -0.247 0.191 3 
0.487 -0.258 0.192 3 
0.487 -0.267 0.193 3 
0.485 -0.339 0.073 3 
0.488 -0.275 0.193 3 
0.488 -0.285 0.194 3 
0.473 0.034 0.188 3 
0.471 0.114 0.188 3 
0.467 0.102 0.186 3 
0.463 0.084 0.162 3 
0.467 0.093 0.186 3 
0.469 0.083 0.186 3 
0.471 0.064 0.187 3 
0.474 0.054 0.188 3 
0.475 0.051 0.189 3 
0.47 -0.045 0.142 3 
0.474 0.042 0.188 3 
0.47 0.072 0.187 3 
0.474 0.023 0.188 3 
0.473 0.012 0.188 3 
0.473 0.003 0.188 3 
0.475 -0.001 0.189 3 
0.476 -0.007 0.189 3 
0.485 -0.346 0.052 3 
0.477 -0.015 0.189 3 
0.475 -0.207 0.061 3 
0.477 -0.026 0.19 3 
0.478 -0.255 0.133 3 
0.464 0.211 0.187 3 
0.236 0.082 0.09 3 
0.246 0.083 0.094 3 
0.25 0.086 0.096 3 
0.475 -0.277 0.012 3 
0.257 0.092 0.099 3 
0.265 0.098 0.102 3 
0.469 0.242 0.19 3 
0.468 0.232 0.19 3 
0.467 0.222 0.189 3 
0.468 -0.036 0.144 3 
0.477 -0.035 0.19 3 
0.465 0.203 0.188 3 
0.469 0.194 0.189 3 
0.47 0.183 0.189 3 
0.468 0.173 0.188 3 
0.466 0.163 0.187 3 
0.467 0.153 0.187 3 
0.468 0.144 0.187 3 
0.468 0.133 0.187 3 
0.459 0.064 0.113 3 
0.469 0.122 0.187 3 
0.486 -0.245 0.198 3 
0.467 -0.066 0.074 3 
0.482 -0.178 0.194 3 
0.484 -0.185 0.195 3 
0.485 -0.191 0.195 3 
0.484 -0.197 0.195 3 
0.483 -0.205 0.195 3 
0.483 -0.215 0.195 3 
0.483 -0.227 0.196 3 
0.256 0.076 0.084 3 
0.485 -0.238 0.197 3 
0.48 -0.167 0.193 3 
0.488 -0.265 0.199 3 
0.487 -0.278 0.199 3 
0.487 -0.288 0.2 3 
0.488 -0.295 0.2 3 
0.473 -0.176 0.052 3 
0.491 -0.308 0.202 3 
0.494 -0.318 0.204 3 
0.495 -0.323 0.205 3 
0.496 -0.327 0.205 3 
0.462 0.207 0.184 3 
0.481 -0.115 0.192 3 
0.488 -0.256 0.199 3 
0.478 -0.046 0.19 3 
0.479 -0.055 0.19 3 
0.479 -0.066 0.19 3 
0.468 -0.126 0.014 3 
0.48 -0.075 0.191 3 
0.47 -0.045 0.153 3 
0.479 -0.086 0.191 3 
0.481 -0.095 0.192 3 
0.479 -0.106 0.191 3 
0.488 -0.305 0.192 3 
0.483 -0.355 0.049 3 
0.48 -0.126 0.192 3 
0.469 -0.036 0.153 3 
0.48 -0.135 0.192 3 
0.464 0.033 0.154 3 
0.46 0.093 0.102 3 
0.484 -0.315 0.103 3 
0.48 -0.147 0.192 3 
0.479 -0.155 0.192 3 
0.481 -0.207 0.174 3 
0.489 -0.326 0.184 3 
0.477 -0.295 0.064 3 
0.249 0.074 0.089 3 
0.474 -0.087 0.169 3 
0.474 -0.095 0.169 3 
0.474 -0.118 0.169 3 
0.478 -0.178 0.172 3 
0.478 -0.187 0.172 3 
0.465 -0.087 0.012 3 
0.479 -0.196 0.173 3 
0.487 -0.317 0.183 3 
0.481 -0.216 0.174 3 
0.474 -0.166 0.156 3 
0.477 -0.215 0.152 3 
0.48 -0.227 0.174 3 
0.459 0.064 0.094 3 
0.475 -0.24 0.013 3 
0.481 -0.243 0.174 3 
0.464 0.014 0.124 3 
0.48 -0.248 0.174 3 
0.474 -0.206 0.083 3 
0.475 -0.113 0.172 3 
0.473 -0.188 0.044 3 
0.465 0.211 0.171 3 
0.464 0.182 0.17 3 
0.463 0.164 0.169 3 
0.464 0.15 0.169 3 
0.464 0.073 0.168 3 
0.475 -0.082 0.172 3 
0.475 -0.085 0.172 3 
0.475 -0.096 0.172 3 
0.474 -0.107 0.172 3 
0.484 -0.277 0.177 3 
0.475 -0.116 0.172 3 
0.49 -0.336 0.144 3 
0.476 -0.125 0.173 3 
0.476 -0.136 0.173 3 
0.476 -0.148 0.173 3 
0.476 -0.156 0.174 3 
0.478 -0.166 0.174 3 
0.469 -0.096 0.052 3 
0.486 -0.306 0.182 3 
0.469 -0.026 0.164 3 
0.465 0.063 0.163 3 
0.467 0.044 0.163 3 
0.465 0.033 0.162 3 
0.484 -0.328 0.082 3 
0.466 0.022 0.163 3 
0.475 -0.127 0.164 3 
0.468 0.014 0.163 3 
0.469 0.003 0.164 3 
0.469 -0.007 0.164 3 
0.468 -0.015 0.164 3 
0.474 -0.227 0.033 3 
0.48 -0.255 0.172 3 
0.482 -0.266 0.173 3 
0.458 0.1 0.084 3 
0.483 -0.276 0.173 3 
0.484 -0.287 0.174 3 
0.234 0.079 0.083 3 
0.465 0.2 0.162 3 
0.464 0.062 0.16 3 
0.464 0.022 0.159 3 
0.299 0.035 0.044 3 
0.463 0.184 0.164 3 
0.484 -0.297 0.178 3 
0.484 -0.307 0.178 3 
0.49 -0.338 0.182 3 
0.235 0.081 0.084 3 
0.46 0.205 0.163 3 
0.48 -0.317 0.043 3 
0.461 0.203 0.164 3 
0.465 -0.049 0.004 3 
0.465 0.203 0.165 3 
0.463 0.193 0.164 3 
0.266 0.089 0.096 3 
0.461 0.171 0.163 3 
0.462 0.163 0.163 3 
0.462 0.152 0.163 3 
0.462 0.144 0.162 3 
0.464 0.133 0.163 3 
0.464 0.122 0.163 3 
0.464 0.114 0.163 3 
0.464 0.103 0.163 3 
0.464 0.092 0.162 3 
0.463 0.073 0.162 3 
0.463 0.043 0.143 3 
0.466 0.074 0.174 3 
0.466 0.063 0.174 3 
0.46 0.199 0.152 3 
0.467 0.052 0.174 3 
0.467 0.044 0.174 3 
0.324 0.013 0.021 3 
0.472 -0.045 0.176 3 
0.468 -0.055 0.063 3 
0.474 -0.065 0.177 3 
0.474 -0.104 0.177 3 
0.465 0.084 0.174 3 
0.473 -0.106 0.177 3 
0.474 -0.115 0.178 3 
0.48 -0.188 0.182 3 
0.481 -0.195 0.182 3 
0.465 0.014 0.138 3 
0.482 -0.207 0.183 3 
0.46 0.072 0.124 3 
0.482 -0.217 0.183 3 
0.471 -0.175 0.074 3 
0.481 -0.225 0.183 3 
0.465 0.134 0.174 3 
0.475 -0.192 0.072 3 
0.491 -0.318 0.193 3 
0.255 0.086 0.094 3 
0.255 0.084 0.094 3 
0.466 0.212 0.177 3 
0.319 0.026 0.024 3 
0.464 0.194 0.176 3 
0.464 0.159 0.175 3 
0.464 0.142 0.174 3 
0.465 0.137 0.174 3 
0.483 -0.236 0.184 3 
0.48 -0.245 0.154 3 
0.464 0.131 0.174 3 
0.465 0.12 0.174 3 
0.473 -0.095 0.143 3 
0.464 0.117 0.174 3 
0.465 0.112 0.174 3 
0.464 0.109 0.174 3 
0.285 0.043 0.044 3 
0.464 0.103 0.174 3 
0.465 0.093 0.174 3 
0.465 -0.004 0.1 3 
0.466 0.052 0.163 3 
0.47 0.023 0.173 3 
0.472 0.014 0.173 3 
0.47 0.003 0.173 3 
0.472 -0.007 0.173 3 
0.472 -0.015 0.173 3 
0.471 -0.026 0.173 3 
0.473 -0.045 0.174 3 
0.475 -0.054 0.174 3 
0.474 -0.056 0.174 3 
0.468 0.033 0.172 3 
0.474 -0.065 0.174 3 
0.473 -0.076 0.174 3 
0.483 -0.245 0.181 3 
0.482 -0.257 0.181 3 
0.484 -0.265 0.182 3 
0.485 -0.269 0.183 3 
0.485 -0.275 0.183 3 
0.485 -0.285 0.184 3 
0.485 -0.295 0.184 3 
0.494 -0.339 0.189 3 
0.463 0.193 0.172 3 
0.484 -0.246 0.185 3 
0.484 -0.255 0.185 3 
0.467 -0.077 0.074 3 
0.494 -0.328 0.192 3 
0.474 -0.197 0.052 3 
0.495 -0.336 0.193 3 
0.461 0.218 0.172 3 
0.464 0.214 0.173 3 
0.319 0.023 0.02 3 
0.463 0.204 0.173 3 
0.461 0.032 0.113 3 
0.466 0.186 0.173 3 
0.466 0.183 0.173 3 
0.467 0.172 0.173 3 
0.464 0.168 0.172 3 
0.465 0.163 0.172 3 
0.466 0.154 0.172 3 
0.465 0.104 0.171 3 
0.464 0.092 0.171 3 
0.464 0.084 0.171 3 
0.463 0.037 0.034 3 
0.451 0.059 0.037 3 
0.481 -0.325 0.034 3 
0.483 -0.337 0.034 3 
0.484 -0.349 0.034 3 
0.314 0.038 0.045 3 
0.484 0.049 0.032 3 
0.466 0.041 0.033 3 
0.465 0.032 0.034 3 
0.467 -0.085 0.023 3 
0.464 0.03 0.034 3 
0.464 0.024 0.034 3 
0.465 0.016 0.034 3 
0.464 0.014 0.034 3 
0.465 0.008 0.034 3 
0.465 0.003 0.034 3 
0.465 -0.007 0.034 3 
0.465 -0.015 0.034 3 
0.476 -0.247 0.044 3 
0.295 0.092 0.025 3 
0.472 -0.156 0.044 3 
0.471 -0.175 0.044 3 
0.475 -0.198 0.044 3 
0.474 -0.2 0.044 3 
0.475 -0.207 0.044 3 
0.474 -0.215 0.044 3 
0.474 -0.227 0.044 3 
0.476 -0.234 0.044 3 
0.476 -0.237 0.044 3 
0.465 -0.025 0.034 3 
0.476 -0.265 0.044 3 
0.476 -0.275 0.044 3 
0.478 -0.295 0.044 3 
0.48 -0.307 0.043 3 
0.48 -0.327 0.043 3 
0.48 -0.355 0.043 3 
0.466 0.043 0.042 3 
0.478 -0.276 0.032 3 
0.479 -0.286 0.032 3 
0.48 -0.297 0.032 3 
0.48 -0.307 0.032 3 
0.485 -0.35 0.031 3 
0.294 0.034 0.046 3 
0.298 0.034 0.046 3 
0.456 0.063 0.032 3 
0.474 0.064 0.03 3 
0.452 0.046 0.032 3 
0.464 -0.012 0.031 3 
0.464 -0.015 0.031 3 
0.463 -0.025 0.031 3 
0.464 -0.044 0.031 3 
0.309 0.036 0.043 3 
0.472 -0.156 0.033 3 
0.465 -0.036 0.034 3 
0.467 -0.055 0.034 3 
0.466 -0.076 0.034 3 
0.469 -0.096 0.033 3 
0.47 -0.105 0.033 3 
0.47 -0.116 0.033 3 
0.469 -0.126 0.033 3 
0.471 -0.136 0.033 3 
0.485 -0.333 0.022 3 
0.471 -0.147 0.033 3 
0.471 -0.147 0.044 3 
0.471 -0.167 0.033 3 
0.471 -0.175 0.033 3 
0.472 -0.187 0.033 3 
0.474 -0.197 0.033 3 
0.474 -0.206 0.033 3 
0.473 -0.217 0.033 3 
0.476 -0.235 0.032 3 
0.476 -0.247 0.032 3 
0.476 -0.256 0.032 3 
0.477 -0.266 0.032 3 
0.472 -0.156 0.052 3 
0.466 -0.047 0.052 3 
0.468 -0.055 0.052 3 
0.468 -0.066 0.052 3 
0.468 -0.077 0.052 3 
0.468 -0.085 0.052 3 
0.47 -0.105 0.052 3 
0.469 -0.115 0.052 3 
0.469 -0.126 0.052 3 
0.47 -0.135 0.052 3 
0.472 -0.147 0.052 3 
0.466 -0.036 0.052 3 
0.251 0.095 0.027 3 
0.472 -0.167 0.052 3 
0.473 -0.185 0.052 3 
0.473 -0.217 0.052 3 
0.474 -0.227 0.052 3 
0.476 -0.231 0.052 3 
0.477 -0.238 0.052 3 
0.478 -0.248 0.052 3 
0.477 -0.257 0.052 3 
0.476 -0.265 0.052 3 
0.465 0.032 0.052 3 
0.465 0.003 0.023 3 
0.464 0.027 0.06 3 
0.481 -0.346 0.043 3 
0.474 -0.227 0.061 3 
0.289 0.044 0.057 3 
0.48 0.076 0.057 3 
0.491 0.076 0.052 3 
0.46 0.066 0.052 3 
0.46 0.063 0.052 3 
0.476 -0.268 0.004 3 
0.476 -0.275 0.052 3 
0.465 0.024 0.052 3 
0.464 0.022 0.052 3 
0.464 0.014 0.052 3 
0.439 0.056 0.036 3 
0.465 0.006 0.052 3 
0.465 0.003 0.052 3 
0.478 -0.245 0.004 3 
0.466 -0.007 0.052 3 
0.466 -0.015 0.052 3 
0.467 -0.025 0.052 3 
0.465 -0.015 0.044 3 
0.462 0.051 0.044 3 
0.463 0.043 0.044 3 
0.464 0.032 0.044 3 
0.464 0.024 0.044 3 
0.465 0.019 0.044 3 
0.464 0.014 0.044 3 
0.465 0.011 0.044 3 
0.464 0.003 0.044 3 
0.465 0 0.044 3 
0.465 -0.007 0.044 3 
0.465 0.054 0.044 3 
0.466 -0.025 0.044 3 
0.467 -0.047 0.044 3 
0.468 -0.055 0.044 3 
0.468 -0.066 0.044 3 
0.467 -0.077 0.044 3 
0.467 -0.085 0.044 3 
0.469 -0.096 0.044 3 
0.47 -0.105 0.044 3 
0.47 -0.116 0.044 3 
0.471 -0.135 0.044 3 
0.465 0.04 0.05 3 
0.475 -0.287 0.052 3 
0.478 -0.298 0.052 3 
0.479 -0.306 0.052 3 
0.48 -0.317 0.052 3 
0.482 -0.329 0.052 3 
0.485 -0.336 0.052 3 
0.484 -0.342 0.052 3 
0.283 0.044 0.054 3 
0.285 0.044 0.054 3 
0.483 0.071 0.049 3 
0.294 0.034 0.044 3 
0.237 0.081 0.054 3 
0.245 0.071 0.054 3 
0.255 0.058 0.054 3 
0.295 0.039 0.053 3 
0.333 0.013 0.02 3 
0.475 -0.198 0.047 3 
0.461 0.058 0.044 3 
0.465 -0.057 0.004 3 
0.255 0.076 0.041 3 
0.294 0.034 0.034 3 
0.295 0.034 0.034 3 
0.466 -0.015 0.004 3 
0.465 -0.025 0.004 3 
0.464 -0.044 0.004 3 
0.464 -0.047 0.004 3 
0.476 -0.238 0.004 3 
0.466 -0.066 0.004 3 
0.469 -0.115 0.004 3 
0.471 -0.176 0.003 3 
0.287 0.045 0.034 3 
0.289 0.044 0.034 3 
0.295 0.035 0.032 3 
0.252 0.084 0.034 3 
0.265 0.079 0.035 3 
0.466 -0.065 0.012 3 
0.465 0.003 0.012 3 
0.465 -0.007 0.012 3 
0.464 -0.015 0.012 3 
0.465 -0.017 0.012 3 
0.463 -0.025 0.013 3 
0.462 -0.036 0.013 3 
0.461 -0.046 0.013 3 
0.465 -0.057 0.012 3 
0.464 -0.081 0.013 3 
0.467 -0.106 0.012 3 
0.467 -0.115 0.012 3 
0.475 -0.234 0.01 3 
0.265 0.055 0.041 3 
0.31 0.031 0.034 3 
0.284 0.09 0.024 3 
0.247 0.09 0.034 3 
0.288 0.09 0.024 3 
0.306 0.093 0.02 3 
0.298 0.073 0.022 3 
0.292 0.069 0.024 3 
0.291 0.064 0.024 3 
0.297 0.056 0.023 3 
0.244 0.089 0.034 3 
0.307 0.082 0.02 3 
0.316 0.088 0.016 3 
0.314 0.074 0.017 3 
0.263 0.085 0.029 3 
0.312 0.091 0.014 3 
0.273 0.088 0.024 3 
0.262 0.088 0.024 3 
0.295 0.048 0.027 3 
0.264 0.08 0.034 3 
0.265 0.08 0.034 3 
0.269 0.074 0.033 3 
0.275 0.056 0.032 3 
0.331 0.015 0.02 3 
0.332 0.004 0.02 3 
0.255 0.095 0.023 3 
0.276 0.085 0.031 3 
0.277 0.084 0.03 3 
0.308 0.025 0.024 3 
0.324 0.004 0.021 3 
0.286 0.087 0.027 3 
0.29 0.083 0.026 3 
0.285 0.056 0.028 3 
0.31 0.024 0.022 3 
0.295 0.093 0.024 3 
0.299 0.083 0.023 3 
0.297 0.052 0.024 3 
0.297 0.044 0.024 3 
0.464 0.024 0.023 3 
0.483 -0.327 0.022 3 
0.484 -0.335 0.022 3 
0.486 -0.348 0.022 3 
0.283 0.044 0.044 3 
0.366 0.034 0.034 3 
0.468 0.03 0.023 3 
0.463 0.027 0.023 3 
0.486 -0.323 0.022 3 
0.465 0.016 0.023 3 
0.464 0.014 0.023 3 
0.466 -0.007 0.023 3 
0.464 -0.012 0.023 3 
0.464 -0.025 0.023 3 
0.464 -0.036 0.023 3 
0.464 -0.047 0.023 3 
0.465 -0.055 0.023 3 
0.466 -0.076 0.023 3 
0.469 -0.096 0.023 3 
0.478 -0.236 0.024 3 
0.296 0.034 0.043 3 
0.464 -0.047 0.026 3 
0.473 -0.197 0.024 3 
0.473 -0.206 0.024 3 
0.473 -0.217 0.024 3 
0.474 -0.227 0.024 3 
0.469 -0.107 0.023 3 
0.479 -0.246 0.023 3 
0.474 -0.251 0.024 3 
0.475 -0.255 0.024 3 
0.474 -0.258 0.024 3 
0.476 -0.265 0.024 3 
0.479 -0.277 0.023 3 
0.479 -0.286 0.023 3 
0.48 -0.297 0.023 3 
0.481 -0.305 0.023 3 
0.483 -0.317 0.022 3 
0.47 -0.166 0.014 3 
0.241 0.086 0.046 3 
0.245 0.085 0.045 3 
0.25 0.079 0.044 3 
0.251 0.074 0.044 3 
0.254 0.064 0.044 3 
0.305 0.032 0.037 3 
0.469 -0.138 0.014 3 
0.469 -0.146 0.014 3 
0.47 -0.155 0.014 3 
0.479 -0.296 0.014 3 
0.469 -0.177 0.014 3 
0.472 -0.196 0.013 3 
0.471 -0.216 0.013 3 
0.471 -0.225 0.013 3 
0.476 -0.247 0.012 3 
0.476 -0.256 0.012 3 
0.474 -0.263 0.013 3 
0.476 -0.274 0.012 3 
0.245 0.086 0.044 3 
0.285 0.045 0.039 3 
0.464 0.003 0.02 3 
0.469 -0.115 0.023 3 
0.469 -0.126 0.023 3 
0.469 -0.135 0.022 3 
0.471 -0.147 0.022 3 
0.471 -0.155 0.022 3 
0.471 -0.167 0.022 3 
0.47 -0.175 0.022 3 
0.471 -0.187 0.022 3 
0.487 -0.345 0.064 3 
0.465 -0.015 0.02 3 
0.465 -0.025 0.02 3 
0.259 0.058 0.044 3 
0.364 0.034 0.031 3 
0.464 -0.055 0.018 3 
0.479 -0.29 0.014 3 
0.458 0.103 0.094 3 
0.475 -0.157 0.1 3 
0.474 -0.188 0.1 3 
0.479 -0.287 0.102 3 
0.48 -0.295 0.102 3 
0.482 -0.306 0.102 3 
0.485 -0.326 0.103 3 
0.485 -0.337 0.103 3 
0.484 -0.339 0.103 3 
0.485 -0.348 0.104 3 
0.456 0.113 0.094 3 
0.478 -0.277 0.104 3 
0.459 0.093 0.094 3 
0.459 0.082 0.094 3 
0.474 -0.177 0.097 3 
0.484 -0.325 0.1 3 
0.306 0.067 0.074 3 
0.459 0.053 0.092 3 
0.462 0.043 0.092 3 
0.249 0.064 0.054 3 
0.465 0.011 0.023 3 
0.472 -0.136 0.102 3 
0.468 -0.055 0.104 3 
0.469 -0.066 0.104 3 
0.47 -0.077 0.104 3 
0.472 -0.086 0.104 3 
0.476 -0.232 0.024 3 
0.472 -0.097 0.104 3 
0.469 -0.105 0.104 3 
0.466 -0.036 0.044 3 
0.469 -0.116 0.104 3 
0.47 -0.127 0.104 3 
0.462 0.032 0.092 3 
0.472 -0.145 0.102 3 
0.473 -0.156 0.102 3 
0.475 -0.175 0.103 3 
0.475 -0.186 0.103 3 
0.475 -0.195 0.103 3 
0.476 -0.216 0.103 3 
0.478 -0.227 0.104 3 
0.482 -0.336 0.043 3 
0.476 -0.247 0.104 3 
0.476 -0.256 0.104 3 
0.47 -0.127 0.044 3 
0.476 -0.207 0.092 3 
0.476 -0.216 0.092 3 
0.477 -0.226 0.092 3 
0.477 -0.235 0.092 3 
0.477 -0.247 0.092 3 
0.474 -0.197 0.064 3 
0.477 -0.288 0.044 3 
0.476 -0.256 0.092 3 
0.477 -0.266 0.093 3 
0.287 0.059 0.07 3 
0.477 -0.276 0.093 3 
0.481 -0.305 0.093 3 
0.303 0.027 0.024 3 
0.481 -0.315 0.094 3 
0.484 -0.325 0.094 3 
0.485 -0.333 0.094 3 
0.486 -0.338 0.094 3 
0.299 0.063 0.071 3 
0.476 -0.193 0.089 3 
0.488 -0.346 0.092 3 
0.471 -0.086 0.093 3 
0.462 0.024 0.092 3 
0.463 0.014 0.092 3 
0.463 0.003 0.092 3 
0.466 -0.015 0.092 3 
0.466 -0.025 0.092 3 
0.466 -0.036 0.092 3 
0.467 -0.047 0.093 3 
0.467 -0.055 0.093 3 
0.468 -0.066 0.093 3 
0.469 -0.077 0.093 3 
0.468 -0.047 0.104 3 
0.471 -0.097 0.093 3 
0.471 -0.105 0.093 3 
0.47 -0.116 0.093 3 
0.47 -0.127 0.093 3 
0.47 -0.135 0.093 3 
0.473 -0.145 0.094 3 
0.474 -0.157 0.094 3 
0.473 -0.176 0.094 3 
0.473 -0.185 0.094 3 
0.475 -0.198 0.094 3 
0.471 -0.136 0.113 3 
0.255 0.067 0.074 3 
0.465 0.011 0.111 3 
0.464 -0.012 0.111 3 
0.47 -0.075 0.112 3 
0.47 -0.086 0.112 3 
0.466 -0.066 0.034 3 
0.471 -0.097 0.113 3 
0.47 -0.105 0.112 3 
0.472 -0.117 0.113 3 
0.471 -0.125 0.113 3 
0.484 -0.347 0.122 3 
0.472 -0.145 0.113 3 
0.315 0.033 0.036 3 
0.473 -0.157 0.113 3 
0.475 -0.166 0.114 3 
0.475 -0.175 0.114 3 
0.475 -0.186 0.114 3 
0.475 -0.195 0.114 3 
0.475 -0.207 0.114 3 
0.485 -0.348 0.119 3 
0.466 -0.036 0.114 3 
0.463 0.024 0.113 3 
0.464 -0.057 0.01 3 
0.463 0.014 0.113 3 
0.464 0.003 0.113 3 
0.465 0.001 0.114 3 
0.463 0.053 0.063 3 
0.485 -0.332 0.028 3 
0.465 -0.006 0.114 3 
0.466 -0.015 0.114 3 
0.467 -0.025 0.114 3 
0.258 0.064 0.073 3 
0.482 0.062 0.041 3 
0.466 -0.047 0.114 3 
0.468 -0.055 0.114 3 
0.468 -0.066 0.114 3 
0.475 -0.169 0.117 3 
0.484 -0.309 0.121 3 
0.243 0.074 0.054 3 
0.487 -0.325 0.122 3 
0.484 -0.343 0.122 3 
0.462 0.043 0.103 3 
0.485 -0.348 0.113 3 
0.254 0.064 0.071 3 
0.276 0.064 0.074 3 
0.459 0.122 0.102 3 
0.458 0.114 0.102 3 
0.459 0.103 0.102 3 
0.458 0.082 0.102 3 
0.458 0.074 0.102 3 
0.459 0.064 0.102 3 
0.461 0.053 0.102 3 
0.486 -0.335 0.113 3 
0.474 -0.206 0.052 3 
0.462 0.032 0.102 3 
0.462 0.024 0.102 3 
0.463 0.014 0.103 3 
0.464 0.003 0.103 3 
0.464 -0.006 0.103 3 
0.465 -0.012 0.103 3 
0.464 -0.017 0.103 3 
0.465 -0.025 0.103 3 
0.466 -0.036 0.103 3 
0.48 -0.288 0.114 3 
0.474 -0.206 0.111 3 
0.476 -0.216 0.112 3 
0.477 -0.226 0.112 3 
0.477 -0.235 0.112 3 
0.477 -0.248 0.112 3 
0.477 -0.257 0.113 3 
0.477 -0.266 0.113 3 
0.459 0.074 0.094 3 
0.479 -0.278 0.113 3 
0.485 -0.34 0.022 3 
0.482 -0.297 0.114 3 
0.265 0.064 0.074 3 
0.27 0.065 0.074 3 
0.455 0.126 0.104 3 
0.474 -0.165 0.108 3 
0.484 -0.309 0.112 3 
0.485 -0.313 0.112 3 
0.486 -0.317 0.112 3 
0.486 -0.328 0.112 3 
0.475 -0.231 0.033 3 
0.477 -0.285 0.073 3 
0.478 -0.296 0.073 3 
0.481 -0.309 0.073 3 
0.482 -0.315 0.073 3 
0.253 0.095 0.024 3 
0.484 -0.328 0.073 3 
0.484 -0.335 0.073 3 
0.487 -0.345 0.073 3 
0.476 -0.275 0.072 3 
0.465 0.03 0.068 3 
0.465 0.024 0.068 3 
0.464 -0.007 0.068 3 
0.474 -0.227 0.069 3 
0.312 0.054 0.061 3 
0.461 0.077 0.063 3 
0.46 0.074 0.063 3 
0.463 0.064 0.063 3 
0.464 0.043 0.063 3 
0.465 0.038 0.063 3 
0.475 -0.195 0.072 3 
0.47 -0.127 0.074 3 
0.278 0.073 0.029 3 
0.471 -0.135 0.074 3 
0.471 -0.147 0.074 3 
0.471 -0.155 0.074 3 
0.475 -0.231 0.004 3 
0.471 -0.166 0.074 3 
0.464 0.003 0.071 3 
0.473 -0.185 0.072 3 
0.465 0.032 0.063 3 
0.474 -0.2 0.072 3 
0.474 -0.206 0.072 3 
0.474 -0.218 0.072 3 
0.475 -0.222 0.072 3 
0.475 -0.228 0.072 3 
0.477 -0.235 0.072 3 
0.469 -0.085 0.033 3 
0.478 -0.245 0.072 3 
0.477 -0.257 0.072 3 
0.477 -0.266 0.072 3 
0.477 -0.238 0.064 3 
0.471 -0.135 0.063 3 
0.472 -0.147 0.063 3 
0.472 -0.156 0.063 3 
0.477 -0.257 0.004 3 
0.471 -0.166 0.063 3 
0.473 -0.188 0.064 3 
0.474 -0.206 0.064 3 
0.475 -0.222 0.064 3 
0.475 -0.225 0.064 3 
0.47 -0.127 0.063 3 
0.478 -0.245 0.064 3 
0.477 -0.257 0.064 3 
0.476 -0.265 0.064 3 
0.476 -0.275 0.064 3 
0.477 -0.285 0.064 3 
0.48 -0.307 0.064 3 
0.482 -0.319 0.064 3 
0.484 -0.328 0.064 3 
0.245 0.077 0.052 3 
0.485 -0.336 0.064 3 
0.467 -0.047 0.063 3 
0.465 0.024 0.063 3 
0.464 0.019 0.063 3 
0.464 0.014 0.063 3 
0.465 0.006 0.063 3 
0.464 0.003 0.063 3 
0.465 -0.001 0.063 3 
0.465 -0.007 0.063 3 
0.466 -0.015 0.063 3 
0.468 -0.025 0.063 3 
0.465 -0.036 0.063 3 
0.468 -0.115 0.074 3 
0.468 -0.066 0.063 3 
0.467 -0.077 0.063 3 
0.274 0.085 0.03 3 
0.468 -0.085 0.063 3 
0.468 -0.096 0.063 3 
0.469 -0.107 0.063 3 
0.469 -0.115 0.063 3 
0.484 -0.352 0.052 3 
0.464 -0.015 0.023 3 
0.249 0.064 0.064 3 
0.275 0.054 0.066 3 
0.466 -0.055 0.082 3 
0.467 -0.066 0.082 3 
0.468 -0.077 0.082 3 
0.468 -0.085 0.082 3 
0.468 -0.096 0.082 3 
0.488 0.067 0.037 3 
0.469 -0.107 0.082 3 
0.246 0.069 0.064 3 
0.469 -0.116 0.082 3 
0.469 -0.127 0.082 3 
0.471 -0.135 0.083 3 
0.473 -0.156 0.083 3 
0.472 -0.167 0.083 3 
0.471 -0.175 0.083 3 
0.474 -0.188 0.083 3 
0.474 -0.197 0.083 3 
0.474 -0.215 0.083 3 
0.475 -0.219 0.083 3 
0.463 0.024 0.084 3 
0.236 0.08 0.064 3 
0.238 0.074 0.064 3 
0.46 0.093 0.084 3 
0.459 0.082 0.084 3 
0.459 0.074 0.084 3 
0.46 0.064 0.084 3 
0.46 0.053 0.084 3 
0.46 0.042 0.084 3 
0.461 0.032 0.084 3 
0.464 -0.028 0.004 3 
0.476 -0.225 0.084 3 
0.464 0.014 0.084 3 
0.464 0.003 0.084 3 
0.465 0 0.084 3 
0.465 -0.007 0.084 3 
0.466 -0.017 0.084 3 
0.466 -0.025 0.084 3 
0.466 -0.036 0.084 3 
0.466 -0.047 0.084 3 
0.474 -0.197 0.086 3 
0.474 -0.206 0.086 3 
0.465 -0.007 0.074 3 
0.285 0.052 0.064 3 
0.457 0.089 0.073 3 
0.458 0.074 0.073 3 
0.462 0.053 0.073 3 
0.462 0.043 0.073 3 
0.463 0.032 0.073 3 
0.463 0.024 0.073 3 
0.464 0.014 0.074 3 
0.465 0.011 0.074 3 
0.465 0.003 0.074 3 
0.485 -0.325 0.079 3 
0.465 -0.015 0.074 3 
0.466 -0.025 0.074 3 
0.465 -0.036 0.074 3 
0.485 -0.332 0.064 3 
0.466 -0.047 0.074 3 
0.467 -0.055 0.074 3 
0.243 0.086 0.044 3 
0.468 -0.085 0.074 3 
0.468 -0.107 0.074 3 
0.475 -0.192 0.08 3 
0.477 -0.235 0.084 3 
0.468 -0.096 0.074 3 
0.336 -0.001 0.019 3 
0.477 -0.247 0.084 3 
0.477 -0.257 0.084 3 
0.477 -0.266 0.084 3 
0.477 -0.276 0.084 3 
0.477 -0.285 0.084 3 
0.478 -0.296 0.084 3 
0.255 0.06 0.064 3 
0.254 0.094 0.024 3 
0.475 -0.195 0.08 3 
0.48 -0.308 0.082 3 
0.481 -0.315 0.082 3 
0.485 -0.336 0.082 3 
0.487 -0.345 0.082 3 
0.275 0.052 0.064 3 
0.294 0.054 0.065 3 
0.26 0.054 0.054 7 
0.27 0.059 0.034 7 
0.275 0.047 0.044 7 
0.267 0.051 0.044 7 
0.264 0.054 0.044 7 
0.27 0.049 0.054 7 
0.275 0.047 0.054 7 
0.271 0.054 0.066 7 
0.264 0.054 0.064 7 
0.265 0.054 0.064 7 
