# .PCD v0.7 - Point Cloud Data file
FIELDS x y z intensity
SIZE 4 4 4 4
TYPE F F F F
COUNT 1 1 1 1
WIDTH 2494
HEIGHT 1
VIEWPOINT 0 0 0 1 0 0 0
POINTS 2494
DATA ascii
0.425 0.045 0.137 0 
0.554 -0.078 0.075 0 
0.563 -0.065 0.083 0 
0.433 0.044 0.115 0 
0.528 -0.018 0.084 0 
0.546 -0.019 0.088 0 
0.527 -0.014 0.087 0 
0.536 -0.015 0.091 0 
0.372 0.041 0.138 0 
0.563 -0.076 0.079 0 
0.433 0.044 0.11 0 
0.342 0.003 0.004 0 
0.34 0.014 0.004 0 
0.347 0.018 0 0 
0.351 -0.001 0.004 0 
0.341 0.017 0.004 0 
0.376 -0.206 -0.025 1 
0.369 -0.145 -0.02 1 
0.364 -0.126 -0.017 1 
0.362 -0.086 -0.016 1 
0.36 -0.06 -0.015 1 
0.351 -0.016 -0.011 1 
0.353 0.034 -0.012 1 
0.353 0.044 -0.012 1 
0.352 0.114 -0.014 1 
0.35 0.124 -0.013 1 
0.352 0.136 -0.014 1 
0.353 0.154 -0.015 1 
0.351 0.158 -0.015 1 
0.384 -0.25 -0.028 1 
0.376 -0.238 -0.024 1 
0.383 -0.226 -0.026 1 
0.373 -0.185 -0.021 1 
0.374 -0.175 -0.021 1 
0.371 -0.136 -0.018 1 
0.372 -0.125 -0.018 1 
0.37 -0.116 -0.018 1 
0.365 -0.063 -0.015 1 
0.362 -0.055 -0.014 1 
0.364 -0.045 -0.014 1 
0.364 -0.035 -0.014 1 
0.36 -0.025 -0.013 1 
0.351 -0.006 -0.01 1 
0.362 0.064 -0.014 1 
0.361 0.074 -0.014 1 
0.36 0.083 -0.014 1 
0.361 0.09 -0.014 1 
0.362 0.093 -0.015 1 
0.361 0.103 -0.015 1 
0.354 0.13 -0.013 1 
0.354 0.173 -0.015 1 
0.352 0.173 -0.014 1 
0.353 0.184 -0.015 1 
0.35 0.213 -0.016 1 
0.386 -0.227 -0.025 1 
0.38 -0.205 -0.022 1 
0.373 -0.096 -0.016 1 
0.372 -0.085 -0.016 1 
0.374 -0.076 -0.016 1 
0.37 -0.043 -0.015 1 
0.342 0.014 -0.005 1 
0.344 0.016 -0.006 1 
0.364 0.043 -0.013 1 
0.364 0.052 -0.013 1 
0.365 0.109 -0.014 1 
0.363 0.119 -0.014 1 
0.364 0.124 -0.015 1 
0.364 0.129 -0.015 1 
0.362 0.134 -0.014 1 
0.364 0.151 -0.015 1 
0.357 0.184 -0.015 1 
0.361 0.194 -0.017 1 
0.354 0.217 -0.016 1 
0.394 -0.261 -0.027 1 
0.383 -0.196 -0.021 1 
0.384 -0.162 -0.02 1 
0.382 -0.115 -0.018 1 
0.38 -0.076 -0.016 1 
0.374 -0.066 -0.014 1 
0.375 -0.051 -0.015 1 
0.374 -0.046 -0.014 1 
0.373 -0.036 -0.014 1 
0.37 -0.027 -0.013 1 
0.364 -0.015 -0.011 1 
0.348 0.018 -0.005 1 
0.364 0.025 -0.011 1 
0.373 0.084 -0.015 1 
0.372 0.094 -0.015 1 
0.372 0.103 -0.015 1 
0.373 0.123 -0.016 1 
0.371 0.134 -0.015 1 
0.37 0.163 -0.016 1 
0.356 0.219 -0.015 1 
0.389 -0.206 -0.021 1 
0.383 -0.095 -0.016 1 
0.384 -0.091 -0.016 1 
0.381 -0.065 -0.015 1 
0.381 -0.057 -0.015 1 
0.38 -0.055 -0.014 1 
0.381 -0.03 -0.015 1 
0.36 -0.003 -0.008 1 
0.373 0.043 -0.012 1 
0.374 0.049 -0.013 1 
0.378 0.114 -0.015 1 
0.374 0.142 -0.015 1 
0.373 0.143 -0.014 1 
0.373 0.145 -0.014 1 
0.372 0.183 -0.016 1 
0.372 0.214 -0.017 1 
0.368 0.223 -0.017 1 
0.367 0.232 -0.017 1 
0.404 -0.258 -0.025 1 
0.393 -0.215 -0.02 1 
0.394 -0.178 -0.019 1 
0.394 -0.167 -0.019 1 
0.393 -0.155 -0.018 1 
0.393 -0.125 -0.018 1 
0.394 -0.115 -0.018 1 
0.392 -0.105 -0.017 1 
0.393 -0.077 -0.017 1 
0.383 -0.046 -0.013 1 
0.384 -0.038 -0.014 1 
0.381 -0.026 -0.013 1 
0.374 -0.016 -0.011 1 
0.368 -0.006 -0.009 1 
0.364 0.021 -0.007 1 
0.381 0.054 -0.013 1 
0.384 0.073 -0.014 1 
0.384 0.083 -0.015 1 
0.383 0.084 -0.014 1 
0.383 0.097 -0.015 1 
0.383 0.123 -0.015 1 
0.38 0.142 -0.015 1 
0.379 0.143 -0.014 1 
0.379 0.154 -0.015 1 
0.382 0.164 -0.016 1 
0.413 -0.285 -0.027 1 
0.406 -0.274 -0.024 1 
0.412 -0.258 -0.025 1 
0.411 -0.249 -0.025 1 
0.411 -0.246 -0.024 1 
0.384 -0.22 -0.024 1 
0.403 -0.226 -0.021 1 
0.403 -0.216 -0.021 1 
0.402 -0.196 -0.02 1 
0.399 -0.177 -0.019 1 
0.399 -0.166 -0.018 1 
0.398 -0.117 -0.017 1 
0.396 -0.105 -0.016 1 
0.4 -0.085 -0.017 1 
0.393 -0.066 -0.015 1 
0.394 -0.056 -0.015 1 
0.393 -0.054 -0.015 1 
0.388 -0.045 -0.013 1 
0.393 -0.035 -0.014 1 
0.394 -0.03 -0.015 1 
0.389 -0.025 -0.013 1 
0.383 -0.016 -0.012 1 
0.372 -0.003 -0.008 1 
0.374 0.026 -0.009 1 
0.381 0.033 -0.011 1 
0.384 0.043 -0.012 1 
0.39 0.077 -0.014 1 
0.39 0.083 -0.015 1 
0.387 0.092 -0.014 1 
0.392 0.103 -0.016 1 
0.39 0.114 -0.015 1 
0.388 0.134 -0.015 1 
0.383 0.154 -0.014 1 
0.383 0.156 -0.014 1 
0.384 0.184 -0.016 1 
0.374 0.15 -0.015 1 
0.382 0.233 -0.017 1 
0.417 -0.293 -0.026 1 
0.413 -0.279 -0.024 1 
0.422 -0.257 -0.026 1 
0.409 -0.236 -0.021 1 
0.404 -0.21 -0.019 1 
0.404 -0.186 -0.018 1 
0.403 -0.146 -0.017 1 
0.403 -0.137 -0.017 1 
0.404 -0.126 -0.017 1 
0.404 -0.095 -0.016 1 
0.402 -0.075 -0.015 1 
0.401 -0.066 -0.015 1 
0.402 -0.056 -0.015 1 
0.399 -0.045 -0.014 1 
0.399 -0.039 -0.014 1 
0.401 -0.035 -0.015 1 
0.4 -0.028 -0.015 1 
0.391 -0.015 -0.012 1 
0.393 0.063 -0.013 1 
0.398 -0.241 -0.025 1 
0.394 0.072 -0.014 1 
0.397 0.081 -0.015 1 
0.396 0.094 -0.015 1 
0.394 0.123 -0.014 1 
0.392 0.132 -0.014 1 
0.393 0.144 -0.015 1 
0.393 0.148 -0.015 1 
0.39 0.153 -0.014 1 
0.39 0.159 -0.014 1 
0.391 0.164 -0.015 1 
0.39 0.184 -0.015 1 
0.387 0.189 -0.015 1 
0.388 0.203 -0.015 1 
0.39 0.224 -0.017 1 
0.384 0.24 -0.016 1 
0.384 0.25 -0.016 1 
0.422 -0.283 -0.024 1 
0.426 -0.276 -0.025 1 
0.427 -0.265 -0.025 1 
0.41 -0.227 -0.019 1 
0.363 -0.006 -0.009 1 
0.409 -0.217 -0.018 1 
0.413 -0.205 -0.019 1 
0.411 -0.196 -0.018 1 
0.414 -0.165 -0.018 1 
0.389 -0.247 -0.027 1 
0.414 -0.122 -0.018 1 
0.412 -0.105 -0.017 1 
0.411 -0.096 -0.016 1 
0.412 -0.085 -0.016 1 
0.41 -0.076 -0.016 1 
0.409 -0.066 -0.015 1 
0.407 -0.046 -0.015 1 
0.402 -0.016 -0.013 1 
0.402 -0.005 -0.013 1 
0.4 0.034 -0.013 1 
0.399 0.052 -0.013 1 
0.401 0.074 -0.014 1 
0.403 0.103 -0.015 1 
0.402 0.114 -0.015 1 
0.371 -0.105 -0.018 1 
0.4 0.124 -0.014 1 
0.397 0.153 -0.014 1 
0.389 0.193 -0.013 1 
0.39 0.2 -0.014 1 
0.391 0.243 -0.016 1 
0.43 -0.307 -0.025 1 
0.422 -0.295 -0.023 1 
0.424 -0.291 -0.023 1 
0.423 -0.236 -0.02 1 
0.423 -0.226 -0.02 1 
0.414 -0.146 -0.016 1 
0.354 0.189 -0.016 1 
0.414 -0.143 -0.016 1 
0.414 -0.045 -0.014 1 
0.413 -0.025 -0.014 1 
0.413 -0.003 -0.014 1 
0.407 0.054 -0.013 1 
0.407 0.063 -0.013 1 
0.409 0.103 -0.014 1 
0.409 0.124 -0.015 1 
0.404 0.144 -0.014 1 
0.403 0.164 -0.014 1 
0.404 0.17 -0.015 1 
0.403 0.181 -0.015 1 
0.402 0.192 -0.015 1 
0.401 0.193 -0.014 1 
0.403 0.224 -0.016 1 
0.402 0.233 -0.016 1 
0.397 0.244 -0.015 1 
0.394 0.262 -0.015 1 
0.433 -0.26 -0.021 1 
0.424 -0.217 -0.018 1 
0.424 -0.196 -0.017 1 
0.422 -0.155 -0.016 1 
0.393 0.205 -0.015 1 
0.424 -0.134 -0.016 1 
0.422 -0.105 -0.015 1 
0.424 -0.096 -0.015 1 
0.422 -0.086 -0.015 1 
0.423 -0.066 -0.015 1 
0.38 -0.185 -0.019 1 
0.392 -0.146 -0.018 1 
0.402 0.096 -0.014 1 
0.42 -0.035 -0.014 1 
0.419 -0.026 -0.014 1 
0.418 -0.015 -0.014 1 
0.414 0.04 -0.013 1 
0.413 0.073 -0.013 1 
0.413 0.082 -0.013 1 
0.414 0.09 -0.013 1 
0.414 0.124 -0.014 1 
0.413 0.133 -0.014 1 
0.411 0.164 -0.014 1 
0.412 0.183 -0.015 1 
0.4 0.207 -0.012 1 
0.403 -0.236 -0.024 1 
0.407 0.223 -0.015 1 
0.408 0.234 -0.015 1 
0.401 0.264 -0.015 1 
0.401 0.269 -0.015 1 
0.434 -0.309 -0.021 1 
0.434 -0.287 -0.02 1 
0.434 -0.284 -0.02 1 
0.434 -0.246 -0.019 1 
0.434 -0.235 -0.018 1 
0.432 -0.225 -0.017 1 
0.433 -0.216 -0.018 1 
0.432 -0.205 -0.017 1 
0.43 -0.196 -0.016 1 
0.428 -0.186 -0.016 1 
0.403 -0.252 -0.027 1 
0.429 -0.157 -0.015 1 
0.428 -0.146 -0.015 1 
0.431 -0.126 -0.015 1 
0.429 -0.086 -0.014 1 
0.431 -0.075 -0.015 1 
0.43 -0.065 -0.015 1 
0.423 0.062 -0.013 1 
0.42 0.073 -0.012 1 
0.421 0.094 -0.013 1 
0.421 0.104 -0.013 1 
0.418 0.124 -0.013 1 
0.414 0.143 -0.012 1 
0.414 0.147 -0.012 1 
0.414 0.177 -0.013 1 
0.414 0.194 -0.013 1 
0.411 0.214 -0.013 1 
0.412 0.24 -0.014 1 
0.412 0.243 -0.015 1 
0.412 0.254 -0.015 1 
0.413 0.263 -0.016 1 
0.408 0.274 -0.015 1 
0.408 0.277 -0.015 1 
0.436 -0.205 -0.016 1 
0.434 -0.175 -0.015 1 
0.433 -0.157 -0.014 1 
0.433 -0.146 -0.014 1 
0.437 -0.136 -0.015 1 
0.434 -0.107 -0.014 1 
0.352 0.175 -0.014 1 
0.433 -0.046 -0.013 1 
0.43 0.052 -0.013 1 
0.422 0.154 -0.012 1 
0.423 0.162 -0.012 1 
0.419 0.183 -0.012 1 
0.42 0.193 -0.013 1 
0.414 0.272 -0.014 1 
0.411 0.281 -0.014 1 
0.443 -0.275 -0.017 1 
0.441 -0.256 -0.016 1 
0.443 -0.235 -0.015 1 
0.441 -0.217 -0.015 1 
0.441 -0.201 -0.014 1 
0.443 -0.192 -0.015 1 
0.441 -0.185 -0.014 1 
0.441 -0.177 -0.014 1 
0.439 -0.165 -0.013 1 
0.439 -0.155 -0.013 1 
0.44 -0.145 -0.013 1 
0.441 -0.135 -0.013 1 
0.441 -0.115 -0.013 1 
0.44 -0.105 -0.013 1 
0.44 -0.095 -0.013 1 
0.421 0.083 -0.013 1 
0.442 -0.085 -0.013 1 
0.444 -0.076 -0.013 1 
0.44 -0.065 -0.012 1 
0.441 -0.055 -0.013 1 
0.4 0.063 -0.013 1 
0.441 -0.036 -0.012 1 
0.422 0.053 -0.013 1 
0.439 -0.026 -0.012 1 
0.442 -0.009 -0.013 1 
0.45 -0.006 -0.015 1 
0.434 0.036 -0.011 1 
0.434 0.063 -0.011 1 
0.433 0.072 -0.011 1 
0.434 0.077 -0.011 1 
0.409 -0.055 -0.015 1 
0.434 0.094 -0.012 1 
0.429 0.144 -0.011 1 
0.427 0.152 -0.011 1 
0.423 0.203 -0.011 1 
0.421 0.212 -0.011 1 
0.423 0.224 -0.012 1 
0.423 0.232 -0.012 1 
0.423 0.243 -0.012 1 
0.422 0.253 -0.013 1 
0.422 0.27 -0.013 1 
0.419 0.284 -0.013 1 
0.454 -0.318 -0.018 1 
0.423 -0.206 -0.017 1 
0.453 -0.31 -0.017 1 
0.443 -0.296 -0.015 1 
0.447 -0.285 -0.015 1 
0.444 -0.27 -0.014 1 
0.442 -0.256 -0.013 1 
0.444 -0.247 -0.013 1 
0.45 -0.229 -0.014 1 
0.449 -0.147 -0.013 1 
0.442 -0.207 -0.012 1 
0.448 -0.087 -0.012 1 
0.47 -0.007 -0.017 1 
0.441 0.074 -0.011 1 
0.44 0.084 -0.011 1 
0.441 0.104 -0.011 1 
0.439 0.114 -0.011 1 
0.432 0.174 -0.01 1 
0.433 0.182 -0.011 1 
0.432 0.194 -0.011 1 
0.429 0.224 -0.011 1 
0.423 0.285 -0.012 1 
0.424 0.295 -0.012 1 
0.376 -0.201 -0.025 1 
0.458 -0.319 -0.016 1 
0.458 -0.309 -0.016 1 
0.454 -0.301 -0.015 1 
0.447 -0.255 -0.012 1 
0.45 -0.246 -0.012 1 
0.453 -0.237 -0.013 1 
0.449 -0.215 -0.011 1 
0.452 -0.206 -0.012 1 
0.452 -0.195 -0.012 1 
0.453 -0.185 -0.012 1 
0.454 -0.155 -0.012 1 
0.451 -0.117 -0.01 1 
0.452 -0.107 -0.011 1 
0.454 -0.097 -0.011 1 
0.454 -0.066 -0.011 1 
0.453 -0.009 -0.011 1 
0.474 -0.004 -0.016 1 
0.444 0.035 -0.009 1 
0.444 0.123 -0.009 1 
0.442 0.133 -0.009 1 
0.44 0.163 -0.009 1 
0.439 0.173 -0.009 1 
0.43 0.211 -0.008 1 
0.434 0.231 -0.01 1 
0.434 0.253 -0.01 1 
0.433 0.272 -0.011 1 
0.432 0.283 -0.011 1 
0.454 -0.276 -0.011 1 
0.423 0.133 -0.012 1 
0.454 -0.267 -0.011 1 
0.46 -0.217 -0.011 1 
0.472 -0.004 -0.012 1 
0.404 -0.278 -0.024 1 
0.356 -0.001 0.013 1 
0.44 0.03 -0.005 1 
0.44 0.144 -0.009 1 
0.453 0.044 -0.008 1 
0.452 0.054 -0.008 1 
0.452 0.064 -0.008 1 
0.452 0.072 -0.008 1 
0.451 0.082 -0.008 1 
0.451 0.092 -0.008 1 
0.451 0.103 -0.008 1 
0.41 0.191 -0.015 1 
0.444 0.184 -0.008 1 
0.444 0.192 -0.008 1 
0.444 0.203 -0.009 1 
0.444 0.214 -0.009 1 
0.434 0.303 -0.01 1 
0.433 0.305 -0.009 1 
0.464 -0.346 -0.013 1 
0.464 -0.339 -0.012 1 
0.463 -0.257 -0.01 1 
0.464 -0.237 -0.01 1 
0.464 -0.197 -0.009 1 
0.464 -0.175 -0.009 1 
0.464 -0.155 -0.008 1 
0.463 -0.135 -0.008 1 
0.464 -0.119 -0.008 1 
0.463 -0.076 -0.008 1 
0.382 -0.237 -0.026 1 
0.463 -0.057 -0.007 1 
0.463 -0.036 -0.007 1 
0.358 -0.001 0.015 1 
0.453 0.034 -0.006 1 
0.454 0.112 -0.006 1 
0.454 0.133 -0.007 1 
0.454 0.154 -0.007 1 
0.444 0.283 -0.008 1 
0.442 0.293 -0.008 1 
0.471 -0.336 -0.011 1 
0.432 0.133 -0.012 1 
0.443 0.264 -0.007 1 
0.473 -0.328 -0.011 1 
0.468 -0.146 -0.006 1 
0.468 -0.115 -0.006 1 
0.468 -0.107 -0.006 1 
0.468 -0.085 -0.006 1 
0.467 -0.066 -0.006 1 
0.466 -0.055 -0.005 1 
0.465 -0.036 -0.005 1 
0.466 -0.025 -0.006 1 
0.487 -0.004 -0.01 1 
0.378 -0.001 0.012 1 
0.41 0.106 -0.015 1 
0.442 0.03 -0.001 1 
0.461 0.042 -0.005 1 
0.46 0.053 -0.005 1 
0.461 0.064 -0.005 1 
0.372 0.024 -0.008 1 
0.46 0.074 -0.005 1 
0.46 0.093 -0.005 1 
0.419 -0.146 -0.015 1 
0.458 0.113 -0.005 1 
0.459 0.124 -0.005 1 
0.457 0.153 -0.005 1 
0.455 0.169 -0.005 1 
0.454 0.174 -0.005 1 
0.387 -0.003 -0.011 1 
0.393 0.232 -0.016 1 
0.453 0.184 -0.005 1 
0.453 0.193 -0.005 1 
0.455 0.2 -0.006 1 
0.453 0.204 -0.005 1 
0.452 0.214 -0.005 1 
0.451 0.222 -0.005 1 
0.45 0.233 -0.005 1 
0.45 0.244 -0.006 1 
0.448 0.254 -0.006 1 
0.449 0.273 -0.006 1 
0.407 -0.036 -0.015 1 
0.443 0.313 -0.006 1 
0.443 0.316 -0.007 1 
0.472 -0.355 -0.009 1 
0.474 -0.346 -0.009 1 
0.363 -0.075 -0.016 1 
0.472 -0.317 -0.007 1 
0.453 -0.045 -0.01 1 
0.474 -0.309 -0.008 1 
0.459 0.133 -0.005 1 
0.473 -0.285 -0.007 1 
0.473 -0.275 -0.007 1 
0.474 -0.245 -0.006 1 
0.474 -0.242 -0.006 1 
0.475 -0.237 -0.006 1 
0.475 -0.234 -0.006 1 
0.473 -0.227 -0.006 1 
0.472 -0.217 -0.005 1 
0.47 -0.195 -0.005 1 
0.47 -0.178 -0.005 1 
0.471 -0.167 -0.005 1 
0.471 -0.161 -0.005 1 
0.41 -0.186 -0.018 1 
0.475 -0.007 -0.005 1 
0.453 0.244 -0.004 1 
0.452 0.252 -0.004 1 
0.452 0.264 -0.004 1 
0.452 0.273 -0.004 1 
0.453 0.28 -0.005 1 
0.452 0.282 -0.004 1 
0.452 0.294 -0.005 1 
0.45 0.301 -0.005 1 
0.446 0.319 -0.005 1 
0.476 -0.356 -0.006 1 
0.479 -0.345 -0.007 1 
0.479 -0.338 -0.006 1 
0.479 -0.327 -0.006 1 
0.393 0.043 -0.013 1 
0.476 -0.317 -0.005 1 
0.477 -0.308 -0.005 1 
0.475 -0.296 -0.005 1 
0.474 -0.289 -0.004 1 
0.474 -0.225 -0.003 1 
0.474 -0.216 -0.003 1 
0.473 -0.157 -0.002 1 
0.378 -0.005 -0.01 1 
0.478 -0.004 -0.003 1 
0.394 -0.232 -0.023 1 
0.394 0.004 0.013 1 
0.387 -0.005 -0.011 1 
0.387 0.014 0.014 1 
0.453 0.304 -0.003 1 
0.453 0.314 -0.003 1 
0.474 -0.207 0 1 
0.488 -0.004 -0.002 1 
0.404 -0.003 -0.014 1 
0.41 -0.005 -0.014 1 
0.408 0.013 0.012 1 
0.408 0.02 0.012 1 
0.409 0.126 -0.015 1 
0.465 0.03 0.002 1 
0.464 0.032 0.002 1 
0.465 0.073 0.001 1 
0.465 0.083 0.001 1 
0.465 0.092 0.001 1 
0.465 0.13 0.001 1 
0.454 0.322 0 1 
0.454 0.328 -0.001 1 
0.357 -0.001 0 1 
0.475 -0.204 0.002 1 
0.473 -0.197 0.002 1 
0.472 -0.185 0.002 1 
0.42 0.113 -0.013 1 
0.47 -0.086 0.003 1 
0.47 -0.075 0.004 1 
0.469 -0.066 0.004 1 
0.413 -0.126 -0.017 1 
0.467 -0.007 0.004 1 
0.466 -0.001 0.004 1 
0.464 0.04 0.004 1 
0.465 0.043 0.004 1 
0.463 0.083 0.004 1 
0.463 0.094 0.004 1 
0.463 0.112 0.004 1 
0.464 0.124 0.004 1 
0.461 0.153 0.004 1 
0.462 0.173 0.003 1 
0.461 0.184 0.003 1 
0.461 0.192 0.003 1 
0.461 0.224 0.003 1 
0.381 -0.175 -0.019 1 
0.463 0.264 0.001 1 
0.479 -0.317 0.002 1 
0.48 -0.308 0.002 1 
0.479 -0.007 -0.017 1 
0.479 -0.297 0.003 1 
0.353 -0.001 0.011 1 
0.478 -0.286 0.003 1 
0.477 -0.275 0.003 1 
0.475 -0.216 0.004 1 
0.464 0.003 0.007 1 
0.46 0.274 0.004 1 
0.46 0.283 0.004 1 
0.459 0.291 0.004 1 
0.458 0.303 0.004 1 
0.459 0.324 0.003 1 
0.355 0.104 -0.014 1 
0.481 -0.332 0.004 1 
0.432 0.292 -0.011 1 
0.401 -0.156 -0.019 1 
0.465 0.003 0.012 1 
0.464 -0.009 -0.011 1 
0.464 0.014 0.012 1 
0.463 0.024 0.013 1 
0.463 -0.025 -0.008 1 
0.463 0.032 0.013 1 
0.462 -0.046 -0.007 1 
0.463 -0.065 -0.008 1 
0.414 0.204 -0.011 1 
0.383 -0.146 -0.019 1 
0.461 -0.086 -0.01 1 
0.445 -0.166 -0.012 1 
0.464 -0.127 -0.008 1 
0.388 -0.095 -0.015 1 
0.464 -0.147 -0.008 1 
0.465 0.1 0.001 1 
0.463 -0.166 -0.008 1 
0.464 -0.186 -0.009 1 
0.463 -0.225 -0.012 1 
0.463 -0.245 -0.01 1 
0.459 -0.291 -0.013 1 
0.443 0.253 -0.007 1 
0.372 0.237 -0.016 1 
0.409 0.112 -0.014 1 
0.43 -0.135 -0.015 1 
0.372 0.113 -0.015 1 
0.392 0.172 -0.015 1 
0.433 0.104 -0.011 1 
0.442 -0.268 -0.016 1 
0.441 0.094 -0.011 1 
0.444 -0.316 -0.018 1 
0.397 0.133 -0.013 1 
0.453 0.143 -0.007 1 
0.4 0.204 -0.012 1 
0.456 -0.297 -0.015 1 
0.413 0.002 0.011 1 
0.45 -0.135 -0.013 1 
0.442 -0.245 -0.015 1 
0.457 0.142 -0.005 1 
0.46 0.244 0.002 1 
0.445 -0.222 -0.016 1 
0.453 -0.017 -0.011 1 
0.36 0.114 -0.013 1 
0.385 0.018 0.014 1 
0.464 -0.206 -0.009 1 
0.373 0.073 -0.015 1 
0.363 -0.065 -0.016 1 
0.467 -0.305 -0.015 1 
0.44 0.152 -0.009 1 
0.435 -0.178 -0.015 1 
0.347 0.164 -0.014 1 
0.381 -0.036 -0.015 1 
0.437 -0.134 -0.015 1 
0.448 0.312 -0.005 1 
0.411 -0.266 -0.025 1 
0.362 -0.115 -0.016 1 
0.413 -0.036 -0.014 1 
0.363 0.144 -0.015 1 
0.462 0.337 0.002 1 
0.392 0.033 -0.013 1 
0.354 0.053 -0.013 1 
0.392 -0.195 -0.019 1 
0.441 -0.045 -0.012 1 
0.393 -0.136 -0.018 1 
0.451 -0.227 -0.015 1 
0.434 0.204 -0.009 1 
0.371 -0.069 -0.015 1 
0.36 0.204 -0.017 1 
0.441 0.054 -0.01 1 
0.446 -0.281 -0.015 1 
0.433 0.114 -0.012 1 
0.464 -0.325 -0.015 1 
0.423 -0.042 -0.015 1 
0.442 -0.196 -0.015 1 
0.424 -0.075 -0.015 1 
0.352 0.204 -0.016 1 
0.354 -0.001 -0.006 1 
0.4 0.212 -0.015 1 
0.426 -0.006 -0.014 1 
0.448 0.263 -0.006 1 
0.358 0.064 -0.015 1 
0.423 -0.175 -0.016 1 
0.423 0.044 -0.013 1 
0.444 0.274 -0.008 1 
0.46 0.232 0.003 1 
0.439 0.243 -0.009 1 
0.382 -0.125 -0.018 1 
0.482 -0.007 -0.001 1 
0.393 0.137 -0.014 1 
0.458 0.329 0.003 1 
0.476 -0.226 0.004 1 
0.44 0.064 -0.01 1 
0.431 -0.092 -0.015 1 
0.383 -0.105 -0.018 1 
0.432 0.123 -0.012 1 
0.4 -0.051 -0.015 1 
0.383 0.019 0.015 1 
0.388 0.124 -0.015 1 
0.464 0 0.004 1 
0.37 0.063 -0.013 1 
0.412 0.222 -0.014 1 
0.434 -0.172 -0.015 1 
0.42 -0.253 -0.025 1 
0.472 -0.012 -0.007 1 
0.465 0.011 0.012 1 
0.434 -0.269 -0.022 1 
0.421 -0.245 -0.022 1 
0.383 -0.165 -0.019 1 
0.427 -0.257 -0.025 1 
0.452 -0.128 -0.011 1 
0.402 0.118 -0.015 1 
0.474 -0.295 -0.007 1 
0.353 0.142 -0.015 1 
0.381 0.204 -0.015 1 
0.381 0.193 -0.015 1 
0.423 -0.045 -0.015 1 
0.423 -0.165 -0.016 1 
0.468 -0.126 -0.006 1 
0.391 0.253 -0.016 1 
0.464 -0.017 -0.008 1 
0.371 0.089 -0.014 1 
0.427 0.163 -0.011 1 
0.42 0.173 -0.012 1 
0.358 0.162 -0.016 1 
0.414 0.174 -0.013 1 
0.463 0.104 0.004 1 
0.344 0 -0.006 1 
0.421 -0.265 -0.026 1 
0.457 -0.338 -0.017 1 
0.364 -0.105 -0.017 1 
0.423 -0.136 -0.016 1 
0.471 -0.205 -0.005 1 
0.393 -0.244 -0.026 1 
0.36 0.174 -0.015 1 
0.459 -0.269 -0.012 1 
0.453 -0.027 -0.011 1 
0.389 0.097 -0.014 1 
0.423 0.262 -0.013 1 
0.422 0.142 -0.012 1 
0.443 -0.287 -0.017 1 
0.433 -0.304 -0.021 1 
0.412 -0.175 -0.018 1 
0.453 -0.037 -0.01 1 
0.461 0.253 0.002 1 
0.387 -0.035 -0.015 1 
0.45 -0.285 -0.011 1 
0.441 -0.016 -0.013 1 
0.461 -0.105 -0.01 1 
0.41 -0.155 -0.017 1 
0.362 -0.095 -0.016 1 
0.444 0.301 -0.006 1 
0.417 -0.006 -0.013 1 
0.414 0.033 -0.013 1 
0.448 -0.077 -0.012 1 
0.383 0.133 -0.015 1 
0.374 -0.059 -0.014 1 
0.461 0.164 0.004 1 
0.433 0.263 -0.01 1 
0.454 -0.055 -0.011 1 
0.459 0.314 0.004 1 
0.443 -0.126 -0.014 1 
0.454 -0.18 -0.012 1 
0.423 -0.185 -0.017 1 
0.434 0.029 -0.009 1 
0.404 -0.266 -0.026 1 
0.393 0.053 -0.013 1 
0.403 0.167 -0.014 1 
0.405 0.173 -0.015 1 
0.442 -0.305 -0.017 1 
0.433 -0.056 -0.013 1 
0.463 0.134 0.004 1 
0.382 -0.215 -0.025 1 
0.434 -0.025 -0.013 1 
0.374 -0.157 -0.02 1 
0.383 0.222 -0.017 1 
0.47 -0.187 -0.005 1 
0.401 0.083 -0.014 1 
0.372 0.174 -0.015 1 
0.463 0.143 0.004 1 
0.475 -0.004 -0.005 1 
0.39 0.085 -0.015 1 
0.472 -0.265 -0.006 1 
0.404 0.254 -0.015 1 
0.468 -0.135 -0.006 1 
0.362 0.14 -0.014 1 
0.462 0.204 0.003 1 
0.394 -0.185 -0.019 1 
0.474 -0.257 -0.006 1 
0.394 -0.085 -0.017 1 
0.459 0.084 -0.005 1 
0.399 0.044 -0.013 1 
0.381 0.064 -0.013 1 
0.424 -0.115 -0.016 1 
0.46 -0.096 -0.01 1 
0.382 0.214 -0.016 1 
0.421 0.034 -0.012 1 
0.397 -0.026 -0.014 1 
0.424 -0.279 -0.025 1 
0.466 -0.317 -0.015 1 
0.443 0.224 -0.009 1 
0.444 -0.227 -0.015 1 
0.463 0.072 0.004 1 
0.412 0.233 -0.014 1 
0.454 -0.328 -0.016 1 
0.379 0.173 -0.016 1 
0.383 0.094 -0.014 1 
0.455 0.164 -0.005 1 
0.457 -0.276 -0.012 1 
0.373 0.194 -0.017 1 
0.406 -0.027 -0.015 1 
0.434 -0.035 -0.013 1 
0.423 -0.056 -0.015 1 
0.462 0.213 0.003 1 
0.434 0.242 -0.01 1 
0.441 0.234 -0.009 1 
0.468 -0.096 -0.006 1 
0.434 -0.165 -0.014 1 
0.434 -0.023 -0.013 1 
0.409 -0.016 -0.013 1 
0.454 0.117 -0.007 1 
0.373 0.203 -0.017 1 
0.467 -0.077 -0.006 1 
0.384 -0.136 -0.019 1 
0.429 -0.115 -0.015 1 
0.47 -0.015 -0.006 1 
0.431 -0.096 -0.015 1 
0.458 0.103 -0.005 1 
0.362 0.214 -0.016 1 
0.371 -0.165 -0.019 1 
0.372 0.071 -0.014 1 
0.46 -0.334 -0.014 1 
0.466 -0.047 -0.005 1 
0.451 0.164 -0.007 1 
0.475 -0.207 0.004 1 
0.401 0.094 -0.014 1 
0.342 0.003 0.02 2 
0.342 0.003 0.027 2 
0.341 0.017 0.025 2 
0.341 0.014 0.02 2 
0.341 0.014 0.028 2 
0.341 0.016 0.028 2 
0.498 -0.013 0.064 2 
0.382 0.008 0.039 2 
0.501 -0.034 0.078 2 
0.383 -0.03 0.083 2 
0.386 -0.001 0.06 2 
0.44 -0.035 0.08 2 
0.402 0.007 0.039 2 
0.402 0.004 0.057 2 
0.424 -0.001 0.046 2 
0.431 0.017 0.035 2 
0.513 -0.008 0.063 2 
0.518 -0.011 0.056 2 
0.412 0 0.057 2 
0.433 0.029 0.06 2 
0.379 -0.043 0.077 2 
0.391 -0.047 0.077 2 
0.376 0.023 0.065 2 
0.391 0.006 0.041 2 
0.384 0.004 0.06 2 
0.376 -0.051 0.077 2 
0.372 0.033 0.076 2 
0.387 0.072 0.079 2 
0.362 -0.048 0.079 2 
0.401 0.07 0.078 2 
0.384 0.067 0.079 2 
0.388 0.066 0.079 2 
0.377 0.053 0.079 2 
0.384 0.061 0.081 2 
0.391 0.061 0.081 2 
0.373 0.052 0.08 2 
0.442 0.102 0.076 2 
0.408 0.081 0.076 2 
0.513 0.084 0.062 2 
0.435 0.046 0.076 2 
0.389 -0.007 0.076 2 
0.417 0.068 0.078 2 
0.361 -0.027 0.08 2 
0.376 -0.036 0.08 2 
0.506 -0.093 0.066 2 
0.372 0.069 0.078 2 
0.381 0.068 0.078 2 
0.392 0.063 0.077 2 
0.439 -0.033 0.08 2 
0.426 -0.036 0.079 2 
0.409 -0.036 0.08 2 
0.389 -0.037 0.079 2 
0.359 -0.035 0.078 2 
0.485 0 0.042 2 
0.374 -0.027 0.084 2 
0.388 -0.03 0.085 2 
0.413 -0.036 0.086 2 
0.561 -0.026 0.065 2 
0.551 -0.022 0.062 2 
0.561 -0.016 0.065 2 
0.565 -0.02 0.068 2 
0.559 -0.026 0.072 2 
0.559 -0.023 0.072 2 
0.559 -0.012 0.058 2 
0.462 0.223 0.142 3 
0.462 0.244 0.143 3 
0.463 0.212 0.142 3 
0.464 0.192 0.142 3 
0.465 0.19 0.142 3 
0.476 -0.225 0.084 3 
0.465 0.173 0.142 3 
0.474 -0.155 0.122 3 
0.293 -0.005 0.093 3 
0.472 -0.045 0.143 3 
0.472 -0.056 0.143 3 
0.472 -0.067 0.143 3 
0.473 -0.075 0.143 3 
0.474 -0.087 0.144 3 
0.473 -0.106 0.143 3 
0.474 -0.115 0.144 3 
0.475 -0.118 0.144 3 
0.475 -0.127 0.144 3 
0.475 -0.135 0.144 3 
0.485 -0.294 0.151 3 
0.487 -0.316 0.152 3 
0.474 -0.115 0.147 3 
0.465 0.133 0.144 3 
0.465 0.122 0.144 3 
0.466 0.104 0.144 3 
0.466 0.093 0.144 3 
0.466 0.084 0.144 3 
0.463 0.162 0.063 3 
0.467 0.074 0.144 3 
0.466 0.063 0.144 3 
0.465 0.054 0.144 3 
0.464 0.051 0.143 3 
0.31 0.023 0.099 3 
0.474 -0.092 0.146 3 
0.461 0.234 0.142 3 
0.482 -0.275 0.152 3 
0.316 -0.011 0.062 3 
0.483 -0.285 0.153 3 
0.484 -0.296 0.153 3 
0.485 -0.304 0.154 3 
0.485 -0.307 0.154 3 
0.463 0.294 0.144 3 
0.462 0.284 0.144 3 
0.461 0.273 0.143 3 
0.463 0.263 0.143 3 
0.338 0.005 0.059 3 
0.488 -0.335 0.153 3 
0.462 0.252 0.123 3 
0.479 -0.237 0.144 3 
0.464 0.136 0.136 3 
0.479 -0.247 0.142 3 
0.479 -0.256 0.142 3 
0.48 -0.276 0.143 3 
0.482 -0.288 0.144 3 
0.474 -0.206 0.013 3 
0.484 -0.296 0.144 3 
0.462 0.201 0.092 3 
0.462 0.25 0.134 3 
0.48 -0.308 0.082 3 
0.462 0.244 0.134 3 
0.479 -0.225 0.144 3 
0.461 0.234 0.134 3 
0.462 0.214 0.134 3 
0.466 0.349 0.195 3 
0.475 -0.163 0.111 3 
0.462 0.203 0.134 3 
0.464 0.192 0.134 3 
0.473 -0.145 0.052 3 
0.464 0.183 0.134 3 
0.463 0.174 0.133 3 
0.464 0.163 0.133 3 
0.465 0.153 0.133 3 
0.297 -0.005 0.093 3 
0.465 0.142 0.144 3 
0.487 -0.348 0.153 3 
0.473 -0.087 0.132 3 
0.459 0.333 0.142 3 
0.461 0.322 0.142 3 
0.462 0.313 0.142 3 
0.479 -0.296 0.014 3 
0.464 0.13 0.138 3 
0.464 0.119 0.138 3 
0.464 0.114 0.138 3 
0.488 -0.327 0.153 3 
0.474 -0.126 0.141 3 
0.475 -0.147 0.142 3 
0.462 0.223 0.134 3 
0.475 -0.155 0.142 3 
0.475 -0.167 0.142 3 
0.475 -0.176 0.142 3 
0.476 -0.185 0.143 3 
0.478 -0.197 0.143 3 
0.474 -0.165 0.094 3 
0.478 -0.206 0.143 3 
0.479 -0.216 0.144 3 
0.467 0.104 0.153 3 
0.345 -0.001 0.059 3 
0.465 0.211 0.154 3 
0.464 0.193 0.153 3 
0.464 0.184 0.153 3 
0.465 0.173 0.153 3 
0.465 0.164 0.153 3 
0.464 0.158 0.152 3 
0.465 0.153 0.153 3 
0.465 0.142 0.152 3 
0.466 0.134 0.153 3 
0.466 0.123 0.152 3 
0.466 0.112 0.152 3 
0.461 0.271 0.062 3 
0.467 0.093 0.153 3 
0.48 -0.266 0.143 3 
0.467 0.082 0.152 3 
0.467 0.074 0.152 3 
0.467 0.063 0.152 3 
0.473 -0.056 0.154 3 
0.455 0.33 0.062 3 
0.473 -0.067 0.154 3 
0.474 -0.076 0.155 3 
0.483 -0.286 0.162 3 
0.483 -0.296 0.162 3 
0.481 -0.255 0.163 3 
0.488 -0.346 0.172 3 
0.465 0.344 0.161 3 
0.465 0.32 0.16 3 
0.464 0.161 0.155 3 
0.464 0.057 0.154 3 
0.467 -0.047 0.034 3 
0.464 0.054 0.154 3 
0.279 0.004 0.094 3 
0.479 -0.216 0.161 3 
0.48 -0.226 0.162 3 
0.481 -0.236 0.162 3 
0.48 -0.245 0.162 3 
0.484 -0.307 0.163 3 
0.481 -0.265 0.163 3 
0.483 -0.276 0.164 3 
0.462 0.303 0.144 3 
0.461 0.262 0.154 3 
0.462 0.153 0.033 3 
0.462 0.253 0.154 3 
0.462 0.244 0.154 3 
0.462 0.232 0.154 3 
0.463 0.224 0.154 3 
0.464 0.213 0.154 3 
0.475 -0.167 0.134 3 
0.477 -0.195 0.152 3 
0.476 -0.127 0.153 3 
0.476 -0.136 0.153 3 
0.477 -0.148 0.154 3 
0.477 -0.156 0.154 3 
0.477 -0.165 0.154 3 
0.477 -0.177 0.154 3 
0.477 -0.186 0.154 3 
0.487 -0.327 0.161 3 
0.488 -0.335 0.162 3 
0.462 0.053 0.052 3 
0.488 -0.346 0.163 3 
0.285 -0.004 0.093 3 
0.475 -0.11 0.152 3 
0.463 0.174 0.114 3 
0.479 -0.207 0.152 3 
0.479 -0.225 0.153 3 
0.48 -0.235 0.153 3 
0.481 -0.255 0.154 3 
0.48 -0.267 0.154 3 
0.464 0.181 0.144 3 
0.464 0.172 0.144 3 
0.464 0.164 0.144 3 
0.465 0.161 0.144 3 
0.465 0.15 0.144 3 
0.462 0.281 0.152 3 
0.485 -0.315 0.163 3 
0.459 0.337 0.154 3 
0.477 -0.185 0.123 3 
0.461 0.332 0.154 3 
0.295 -0.004 0.081 3 
0.461 0.232 0.063 3 
0.463 0.324 0.154 3 
0.463 0.314 0.154 3 
0.463 0.304 0.153 3 
0.464 0.149 0.133 3 
0.475 -0.166 0.038 3 
0.462 0.29 0.153 3 
0.465 0.144 0.133 3 
0.462 0.272 0.152 3 
0.464 0.167 0.15 3 
0.465 0.054 0.149 3 
0.477 -0.205 0.112 3 
0.286 0.019 0.094 3 
0.474 -0.076 0.152 3 
0.475 -0.079 0.152 3 
0.475 -0.087 0.152 3 
0.475 -0.096 0.152 3 
0.474 -0.104 0.152 3 
0.474 -0.107 0.152 3 
0.476 -0.196 0.114 3 
0.476 -0.175 0.122 3 
0.477 -0.205 0.103 3 
0.478 -0.197 0.123 3 
0.478 -0.206 0.123 3 
0.477 -0.217 0.123 3 
0.462 0.112 0.012 3 
0.478 -0.227 0.124 3 
0.479 -0.237 0.124 3 
0.479 -0.246 0.124 3 
0.465 0.128 0.117 3 
0.464 0.111 0.117 3 
0.464 0.089 0.116 3 
0.475 -0.167 0.122 3 
0.474 -0.166 0.119 3 
0.479 -0.256 0.122 3 
0.479 -0.265 0.122 3 
0.477 -0.257 0.044 3 
0.481 -0.286 0.123 3 
0.481 -0.296 0.123 3 
0.483 -0.305 0.123 3 
0.484 -0.316 0.124 3 
0.485 -0.32 0.124 3 
0.461 0.225 0.114 3 
0.462 0.222 0.114 3 
0.463 0.202 0.114 3 
0.487 -0.347 0.131 3 
0.465 0.073 0.122 3 
0.462 0.222 0.103 3 
0.296 0.02 0.085 3 
0.291 0.018 0.084 3 
0.471 -0.039 0.123 3 
0.472 -0.045 0.123 3 
0.471 -0.056 0.123 3 
0.471 -0.067 0.123 3 
0.472 -0.075 0.124 3 
0.472 -0.086 0.124 3 
0.473 -0.106 0.124 3 
0.474 -0.126 0.124 3 
0.463 0.194 0.114 3 
0.459 0.335 0.122 3 
0.46 0.333 0.122 3 
0.462 0.322 0.122 3 
0.462 0.312 0.122 3 
0.463 0.303 0.122 3 
0.464 0.103 0.119 3 
0.465 0.062 0.119 3 
0.297 0.02 0.084 3 
0.474 -0.135 0.122 3 
0.474 -0.146 0.122 3 
0.475 -0.158 0.122 3 
0.471 -0.075 0.112 3 
0.461 0.32 0.113 3 
0.463 0.313 0.114 3 
0.463 0.303 0.113 3 
0.461 0.282 0.113 3 
0.477 -0.257 0.052 3 
0.462 0.264 0.112 3 
0.462 0.252 0.112 3 
0.461 0.242 0.112 3 
0.469 -0.039 0.112 3 
0.47 -0.047 0.112 3 
0.47 -0.055 0.112 3 
0.471 -0.067 0.112 3 
0.458 0.334 0.113 3 
0.472 -0.086 0.113 3 
0.469 -0.066 0.033 3 
0.472 -0.097 0.113 3 
0.473 -0.106 0.113 3 
0.473 -0.117 0.113 3 
0.473 -0.126 0.113 3 
0.473 -0.137 0.113 3 
0.473 -0.145 0.113 3 
0.474 -0.157 0.114 3 
0.476 -0.166 0.114 3 
0.476 -0.175 0.114 3 
0.48 -0.317 0.043 3 
0.463 0.163 0.114 3 
0.463 0.154 0.114 3 
0.463 0.143 0.114 3 
0.464 0.133 0.114 3 
0.464 0.124 0.114 3 
0.465 0.114 0.114 3 
0.464 0.111 0.114 3 
0.464 0.094 0.052 3 
0.464 0.103 0.114 3 
0.464 0.094 0.114 3 
0.465 0.087 0.114 3 
0.465 0.084 0.114 3 
0.465 0.092 0.122 3 
0.464 0.081 0.114 3 
0.465 0.073 0.114 3 
0.464 0.065 0.114 3 
0.465 0.062 0.114 3 
0.461 0.244 0.084 3 
0.463 0.054 0.113 3 
0.485 -0.327 0.121 3 
0.485 -0.337 0.122 3 
0.468 -0.077 0.012 3 
0.484 -0.343 0.122 3 
0.484 -0.347 0.122 3 
0.462 0.262 0.132 3 
0.485 -0.317 0.142 3 
0.486 -0.325 0.143 3 
0.488 -0.345 0.144 3 
0.458 0.335 0.133 3 
0.459 0.332 0.133 3 
0.484 -0.326 0.118 3 
0.461 0.321 0.133 3 
0.471 -0.105 0.003 3 
0.461 0.314 0.133 3 
0.462 0.302 0.133 3 
0.461 0.292 0.132 3 
0.461 0.282 0.132 3 
0.485 -0.31 0.142 3 
0.465 0.094 0.033 3 
0.464 0.054 0.13 3 
0.285 0.014 0.086 3 
0.321 -0.006 0.095 3 
0.472 -0.075 0.132 3 
0.473 -0.095 0.132 3 
0.473 -0.117 0.132 3 
0.474 -0.126 0.133 3 
0.481 -0.318 0.034 3 
0.474 -0.135 0.133 3 
0.475 -0.144 0.133 3 
0.475 -0.146 0.133 3 
0.466 0.084 0.133 3 
0.464 0.136 0.133 3 
0.465 0.133 0.133 3 
0.464 0.127 0.133 3 
0.465 0.127 0.109 3 
0.465 0.122 0.133 3 
0.464 0.119 0.133 3 
0.469 -0.096 0.014 3 
0.464 0.143 0.063 3 
0.464 0.114 0.133 3 
0.465 0.109 0.133 3 
0.465 0.103 0.133 3 
0.465 0.092 0.133 3 
0.475 -0.155 0.133 3 
0.466 0.073 0.133 3 
0.466 0.063 0.133 3 
0.485 -0.348 0.119 3 
0.465 0.054 0.133 3 
0.326 -0.006 0.098 3 
0.462 0.153 0.084 3 
0.472 -0.042 0.134 3 
0.471 -0.048 0.134 3 
0.471 -0.056 0.134 3 
0.471 -0.067 0.134 3 
0.484 -0.306 0.142 3 
0.463 0.182 0.122 3 
0.485 -0.317 0.133 3 
0.486 -0.325 0.134 3 
0.486 -0.335 0.134 3 
0.462 0.293 0.124 3 
0.461 0.282 0.124 3 
0.461 0.273 0.124 3 
0.461 0.264 0.123 3 
0.461 0.243 0.123 3 
0.461 0.234 0.123 3 
0.461 0.222 0.123 3 
0.463 0.202 0.123 3 
0.463 0.194 0.122 3 
0.483 -0.305 0.132 3 
0.463 0.174 0.122 3 
0.463 0.163 0.122 3 
0.463 0.154 0.122 3 
0.462 0.184 0.054 3 
0.463 0.143 0.122 3 
0.468 -0.066 0.023 3 
0.464 0.133 0.122 3 
0.464 0.124 0.122 3 
0.465 0.122 0.122 3 
0.465 0.114 0.122 3 
0.465 0.103 0.122 3 
0.479 -0.265 0.133 3 
0.475 -0.175 0.134 3 
0.476 -0.185 0.134 3 
0.474 -0.146 0.13 3 
0.478 -0.197 0.132 3 
0.478 -0.206 0.132 3 
0.475 -0.21 0.052 3 
0.479 -0.216 0.132 3 
0.466 0.078 0.06 3 
0.479 -0.225 0.133 3 
0.479 -0.237 0.133 3 
0.479 -0.247 0.133 3 
0.479 -0.256 0.133 3 
0.476 -0.187 0.114 3 
0.484 -0.345 0.064 3 
0.474 -0.165 0.044 3 
0.48 -0.276 0.134 3 
0.481 -0.286 0.134 3 
0.464 0.062 0.124 3 
0.464 0.054 0.124 3 
0.284 0.011 0.084 3 
0.286 0.004 0.084 3 
0.474 -0.155 0.128 3 
0.482 -0.297 0.132 3 
0.472 0.123 0.182 3 
0.467 0.201 0.183 3 
0.468 0.193 0.183 3 
0.468 0.182 0.182 3 
0.469 0.174 0.183 3 
0.474 -0.137 0.136 3 
0.468 0.164 0.182 3 
0.468 0.153 0.182 3 
0.463 0.203 0.142 3 
0.469 0.144 0.182 3 
0.475 -0.207 0.024 3 
0.47 0.134 0.182 3 
0.48 -0.276 0.122 3 
0.462 0.214 0.123 3 
0.472 -0.106 0.132 3 
0.472 0.112 0.182 3 
0.472 0.103 0.182 3 
0.473 0.092 0.182 3 
0.467 -0.036 0.004 3 
0.473 0.084 0.182 3 
0.479 -0.057 0.184 3 
0.478 -0.066 0.184 3 
0.458 0.034 0.047 3 
0.478 -0.077 0.184 3 
0.477 -0.205 0.072 3 
0.483 -0.248 0.19 3 
0.485 -0.247 0.194 3 
0.484 -0.155 0.191 3 
0.465 0.335 0.182 3 
0.484 -0.176 0.192 3 
0.483 -0.187 0.192 3 
0.484 -0.197 0.192 3 
0.483 -0.205 0.192 3 
0.483 -0.215 0.192 3 
0.485 -0.225 0.194 3 
0.307 0.018 0.079 3 
0.484 -0.231 0.193 3 
0.484 -0.237 0.194 3 
0.485 -0.241 0.194 3 
0.462 0.263 0.062 3 
0.491 -0.337 0.201 3 
0.463 0.345 0.188 3 
0.464 0.343 0.188 3 
0.472 -0.095 0.124 3 
0.479 -0.287 0.093 3 
0.466 0.255 0.184 3 
0.466 0.252 0.184 3 
0.465 0.242 0.183 3 
0.485 -0.314 0.16 3 
0.467 0.234 0.184 3 
0.466 0.224 0.183 3 
0.467 0.213 0.183 3 
0.466 0.322 0.181 3 
0.481 -0.156 0.184 3 
0.48 -0.356 0.013 3 
0.48 -0.167 0.184 3 
0.485 -0.256 0.188 3 
0.488 -0.305 0.192 3 
0.475 -0.189 0.072 3 
0.489 -0.316 0.193 3 
0.49 -0.328 0.194 3 
0.474 -0.197 0.052 3 
0.491 -0.336 0.194 3 
0.463 0.343 0.182 3 
0.466 0.333 0.182 3 
0.482 -0.145 0.184 3 
0.481 -0.177 0.182 3 
0.482 -0.186 0.182 3 
0.482 -0.195 0.183 3 
0.482 -0.207 0.183 3 
0.464 0.065 0.124 3 
0.482 -0.217 0.183 3 
0.474 -0.177 0.072 3 
0.465 0.054 0.001 3 
0.482 -0.226 0.183 3 
0.482 -0.235 0.184 3 
0.484 -0.265 0.185 3 
0.464 0.33 0.178 3 
0.468 0.291 0.183 3 
0.484 -0.255 0.191 3 
0.473 -0.075 0.074 3 
0.485 -0.266 0.192 3 
0.485 -0.276 0.192 3 
0.44 0.037 0.053 3 
0.486 -0.286 0.193 3 
0.488 -0.298 0.194 3 
0.474 -0.209 0.044 3 
0.468 0.308 0.184 3 
0.46 0.293 0.093 3 
0.479 0.088 0.063 3 
0.468 0.304 0.184 3 
0.484 -0.146 0.191 3 
0.467 0.284 0.183 3 
0.468 0.272 0.183 3 
0.478 -0.085 0.182 3 
0.48 -0.097 0.182 3 
0.462 0.204 0.103 3 
0.48 -0.106 0.183 3 
0.474 -0.171 0.097 3 
0.48 -0.115 0.183 3 
0.48 -0.126 0.183 3 
0.481 -0.135 0.184 3 
0.461 0.273 0.132 3 
0.472 0.064 0.187 3 
0.465 0.084 0.122 3 
0.461 0.281 0.093 3 
0.47 0.142 0.188 3 
0.471 0.134 0.188 3 
0.464 0.059 0.114 3 
0.472 0.123 0.188 3 
0.473 0.073 0.188 3 
0.472 0.112 0.188 3 
0.465 0.282 0.173 3 
0.472 0.103 0.188 3 
0.474 0.093 0.189 3 
0.474 0.084 0.188 3 
0.468 0.153 0.187 3 
0.266 0.019 0.1 3 
0.263 0.017 0.099 3 
0.263 0.014 0.099 3 
0.265 0.013 0.1 3 
0.466 -0.015 0.023 3 
0.268 0.004 0.101 3 
0.276 -0.004 0.104 3 
0.275 -0.005 0.104 3 
0.28 -0.006 0.106 3 
0.481 -0.058 0.191 3 
0.48 -0.066 0.191 3 
0.47 -0.127 0.014 3 
0.467 0.253 0.19 3 
0.463 0.143 0.084 3 
0.468 0.34 0.195 3 
0.469 0.334 0.195 3 
0.47 0.324 0.195 3 
0.47 0.317 0.194 3 
0.469 0.313 0.194 3 
0.468 0.302 0.193 3 
0.463 0.182 0.114 3 
0.47 0.294 0.193 3 
0.469 0.283 0.192 3 
0.469 0.273 0.192 3 
0.469 0.264 0.191 3 
0.48 -0.075 0.191 3 
0.466 0.243 0.189 3 
0.467 0.234 0.189 3 
0.467 0.222 0.189 3 
0.473 -0.042 0.14 3 
0.467 0.213 0.189 3 
0.48 -0.297 0.023 3 
0.469 0.203 0.189 3 
0.471 0.192 0.19 3 
0.47 0.183 0.189 3 
0.47 0.174 0.189 3 
0.469 0.162 0.188 3 
0.488 -0.285 0.2 3 
0.485 -0.216 0.196 3 
0.484 -0.222 0.196 3 
0.464 0.143 0.073 3 
0.484 -0.225 0.196 3 
0.484 -0.237 0.197 3 
0.475 -0.115 0.153 3 
0.485 -0.241 0.197 3 
0.486 -0.245 0.198 3 
0.455 0.329 0.012 3 
0.487 -0.255 0.198 3 
0.486 -0.267 0.198 3 
0.487 -0.278 0.199 3 
0.484 -0.212 0.196 3 
0.488 -0.295 0.2 3 
0.473 -0.176 0.052 3 
0.488 -0.306 0.201 3 
0.49 -0.318 0.202 3 
0.493 -0.328 0.204 3 
0.493 -0.335 0.205 3 
0.465 0.348 0.192 3 
0.466 0.342 0.192 3 
0.469 0.333 0.192 3 
0.474 -0.145 0.094 3 
0.471 0.067 0.184 3 
0.471 0.064 0.184 3 
0.485 -0.149 0.194 3 
0.473 -0.045 0.154 3 
0.48 -0.086 0.191 3 
0.482 -0.095 0.192 3 
0.484 -0.105 0.193 3 
0.484 -0.116 0.193 3 
0.483 -0.355 0.049 3 
0.483 -0.125 0.193 3 
0.484 -0.137 0.194 3 
0.464 0.094 0.103 3 
0.482 -0.317 0.103 3 
0.485 -0.143 0.194 3 
0.486 -0.147 0.195 3 
0.462 0.292 0.175 3 
0.486 -0.156 0.195 3 
0.475 -0.195 0.033 3 
0.485 -0.167 0.195 3 
0.484 -0.17 0.194 3 
0.47 -0.066 0.074 3 
0.484 -0.176 0.195 3 
0.485 -0.179 0.195 3 
0.485 -0.185 0.195 3 
0.486 -0.195 0.196 3 
0.467 -0.077 0.052 3 
0.485 -0.207 0.196 3 
0.465 0.278 0.164 3 
0.331 -0.009 0.068 3 
0.482 -0.237 0.172 3 
0.482 -0.247 0.172 3 
0.481 -0.255 0.172 3 
0.482 -0.266 0.173 3 
0.464 0.102 0.084 3 
0.484 -0.277 0.174 3 
0.484 -0.287 0.174 3 
0.464 0.296 0.165 3 
0.464 0.287 0.164 3 
0.464 0.28 0.164 3 
0.474 -0.054 0.166 3 
0.465 0.272 0.164 3 
0.305 -0.003 0.07 3 
0.464 0.265 0.164 3 
0.463 0.261 0.163 3 
0.463 0.254 0.163 3 
0.464 0.243 0.163 3 
0.463 0.233 0.162 3 
0.464 0.222 0.162 3 
0.465 0.217 0.163 3 
0.465 0.214 0.162 3 
0.465 0.2 0.162 3 
0.464 0.193 0.162 3 
0.485 -0.31 0.133 3 
0.464 0.202 0.165 3 
0.461 0.283 0.043 3 
0.464 0.196 0.164 3 
0.475 -0.16 0.033 3 
0.468 -0.045 0.004 3 
0.465 0.179 0.164 3 
0.474 -0.118 0.124 3 
0.465 0.174 0.164 3 
0.466 0.162 0.164 3 
0.469 -0.036 0.104 3 
0.466 0.154 0.164 3 
0.465 0.188 0.162 3 
0.467 0.143 0.164 3 
0.467 0.132 0.164 3 
0.467 0.124 0.164 3 
0.467 0.112 0.164 3 
0.479 -0.316 0.014 3 
0.468 0.104 0.164 3 
0.468 0.093 0.164 3 
0.47 0.083 0.164 3 
0.469 0.074 0.164 3 
0.466 0.063 0.163 3 
0.456 0.058 0.159 3 
0.277 0.014 0.094 3 
0.488 -0.346 0.175 3 
0.46 0.339 0.163 3 
0.461 0.333 0.163 3 
0.461 0.272 0.104 3 
0.475 -0.198 0.047 3 
0.464 0.322 0.163 3 
0.464 0.312 0.163 3 
0.464 0.132 0.073 3 
0.465 0.31 0.163 3 
0.465 0.303 0.163 3 
0.464 0.296 0.162 3 
0.277 0.018 0.094 3 
0.488 -0.325 0.174 3 
0.474 -0.065 0.16 3 
0.462 0.292 0.113 3 
0.477 -0.125 0.162 3 
0.478 -0.137 0.162 3 
0.473 -0.145 0.083 3 
0.478 -0.145 0.163 3 
0.478 -0.157 0.163 3 
0.478 -0.166 0.163 3 
0.478 -0.175 0.163 3 
0.478 -0.186 0.163 3 
0.479 -0.196 0.164 3 
0.479 -0.205 0.164 3 
0.476 -0.085 0.164 3 
0.464 0.184 0.161 3 
0.302 0.022 0.104 3 
0.274 0.015 0.094 3 
0.274 0.012 0.094 3 
0.465 0.111 0.074 3 
0.474 -0.054 0.163 3 
0.474 -0.056 0.163 3 
0.475 -0.065 0.163 3 
0.475 -0.076 0.163 3 
0.472 -0.086 0.104 3 
0.461 0.232 0.043 3 
0.475 -0.225 0.024 3 
0.464 0.214 0.165 3 
0.477 -0.096 0.164 3 
0.463 0.162 0.092 3 
0.477 -0.105 0.164 3 
0.465 0.114 0.144 3 
0.479 -0.246 0.113 3 
0.476 -0.116 0.164 3 
0.484 -0.297 0.172 3 
0.485 -0.301 0.172 3 
0.485 -0.305 0.172 3 
0.46 0.274 0.082 3 
0.487 -0.317 0.173 3 
0.464 0.323 0.175 3 
0.47 0.072 0.173 3 
0.469 0.064 0.172 3 
0.464 0.204 0.154 3 
0.275 0.018 0.099 3 
0.477 -0.054 0.175 3 
0.483 -0.245 0.181 3 
0.483 -0.257 0.182 3 
0.485 -0.269 0.183 3 
0.485 -0.275 0.183 3 
0.485 -0.285 0.184 3 
0.485 -0.295 0.184 3 
0.461 0.334 0.174 3 
0.471 0.083 0.173 3 
0.476 -0.235 0.024 3 
0.465 0.307 0.174 3 
0.465 0.298 0.174 3 
0.465 0.294 0.174 3 
0.466 0.273 0.173 3 
0.484 -0.307 0.169 3 
0.458 0.335 0.142 3 
0.478 -0.236 0.104 3 
0.465 0.263 0.172 3 
0.466 0.254 0.173 3 
0.462 0.213 0.114 3 
0.478 -0.054 0.173 3 
0.466 0.183 0.173 3 
0.476 -0.187 0.094 3 
0.465 0.238 0.174 3 
0.464 0.235 0.174 3 
0.465 0.179 0.153 3 
0.465 0.232 0.174 3 
0.464 0.229 0.174 3 
0.465 0.223 0.174 3 
0.466 0.212 0.174 3 
0.466 0.203 0.174 3 
0.462 0.253 0.143 3 
0.466 0.192 0.173 3 
0.461 0.274 0.032 3 
0.478 -0.057 0.173 3 
0.467 0.172 0.173 3 
0.467 0.164 0.173 3 
0.468 0.152 0.173 3 
0.468 0.144 0.173 3 
0.469 0.133 0.173 3 
0.48 -0.245 0.154 3 
0.469 0.122 0.173 3 
0.474 -0.095 0.144 3 
0.469 0.113 0.173 3 
0.469 0.102 0.173 3 
0.47 0.094 0.173 3 
0.469 -0.093 0.014 3 
0.464 0.323 0.172 3 
0.465 0.317 0.172 3 
0.463 0.258 0.169 3 
0.459 0.304 0.032 3 
0.464 0.249 0.169 3 
0.464 0.222 0.168 3 
0.275 0.005 0.097 3 
0.286 -0.007 0.101 3 
0.463 0.173 0.033 3 
0.478 -0.175 0.172 3 
0.48 -0.185 0.173 3 
0.463 0.343 0.173 3 
0.48 -0.197 0.173 3 
0.48 -0.206 0.173 3 
0.481 -0.216 0.174 3 
0.479 -0.216 0.153 3 
0.481 -0.225 0.174 3 
0.464 0.062 0.092 3 
0.476 -0.238 0.012 3 
0.491 -0.335 0.182 3 
0.464 0.293 0.168 3 
0.464 0.283 0.167 3 
0.475 -0.216 0.033 3 
0.464 0.265 0.166 3 
0.478 -0.166 0.174 3 
0.477 -0.065 0.172 3 
0.476 -0.076 0.172 3 
0.477 -0.085 0.173 3 
0.478 -0.097 0.173 3 
0.478 -0.105 0.173 3 
0.478 -0.117 0.173 3 
0.488 -0.338 0.144 3 
0.478 -0.125 0.174 3 
0.479 -0.137 0.174 3 
0.461 0.273 0.112 3 
0.479 -0.149 0.174 3 
0.478 -0.157 0.174 3 
0.488 -0.335 0.171 3 
0.471 -0.097 0.052 3 
0.484 -0.268 0.179 3 
0.484 -0.281 0.18 3 
0.286 0.013 0.084 3 
0.484 -0.291 0.18 3 
0.487 -0.307 0.182 3 
0.488 -0.318 0.183 3 
0.489 -0.326 0.184 3 
0.479 -0.297 0.064 3 
0.46 0.243 0.054 3 
0.465 0.003 0.047 3 
0.474 -0.215 0.05 3 
0.465 0.1 0.047 3 
0.457 0.024 0.047 3 
0.448 0.02 0.048 3 
0.475 -0.213 0.013 3 
0.443 0.015 0.048 3 
0.447 0.013 0.048 3 
0.457 0.011 0.047 3 
0.347 0.011 0.053 3 
0.478 -0.245 0.004 3 
0.483 -0.015 0.046 3 
0.468 -0.017 0.047 3 
0.457 0.332 0.043 3 
0.459 0.324 0.043 3 
0.459 0.314 0.043 3 
0.458 0.303 0.043 3 
0.47 -0.066 0.044 3 
0.46 0.292 0.043 3 
0.461 0.274 0.043 3 
0.476 -0.265 0.052 3 
0.472 -0.116 0.052 3 
0.472 -0.125 0.052 3 
0.473 -0.136 0.052 3 
0.474 -0.157 0.052 3 
0.474 -0.165 0.052 3 
0.474 -0.185 0.052 3 
0.474 -0.206 0.052 3 
0.475 -0.216 0.052 3 
0.475 -0.225 0.052 3 
0.477 -0.235 0.052 3 
0.476 -0.247 0.052 3 
0.46 0.264 0.043 3 
0.477 -0.276 0.052 3 
0.478 -0.286 0.052 3 
0.48 -0.297 0.052 3 
0.48 -0.307 0.052 3 
0.48 -0.317 0.052 3 
0.481 -0.325 0.052 3 
0.483 -0.337 0.052 3 
0.465 0.064 0.05 3 
0.447 0.035 0.05 3 
0.443 0.032 0.05 3 
0.47 -0.086 0.044 3 
0.464 0.051 0.044 3 
0.463 0.043 0.044 3 
0.461 0.032 0.044 3 
0.461 0.024 0.044 3 
0.463 0.014 0.044 3 
0.465 0.003 0.044 3 
0.466 -0.007 0.044 3 
0.468 -0.015 0.044 3 
0.469 -0.026 0.044 3 
0.468 -0.047 0.044 3 
0.468 -0.055 0.044 3 
0.47 -0.075 0.044 3 
0.465 0.054 0.044 3 
0.472 -0.097 0.044 3 
0.472 -0.105 0.044 3 
0.473 -0.117 0.044 3 
0.474 -0.137 0.044 3 
0.474 -0.145 0.044 3 
0.474 -0.157 0.044 3 
0.473 -0.176 0.044 3 
0.474 -0.186 0.044 3 
0.475 -0.198 0.044 3 
0.474 -0.203 0.044 3 
0.475 -0.216 0.044 3 
0.463 0.154 0.044 3 
0.468 -0.055 0.033 3 
0.461 0.224 0.024 3 
0.46 0.252 0.043 3 
0.475 -0.246 0.012 3 
0.461 0.244 0.043 3 
0.462 0.224 0.043 3 
0.463 0.213 0.043 3 
0.462 0.204 0.044 3 
0.462 0.193 0.044 3 
0.462 0.184 0.044 3 
0.462 0.173 0.044 3 
0.463 0.162 0.044 3 
0.473 -0.106 0.052 3 
0.464 0.143 0.044 3 
0.464 0.132 0.044 3 
0.463 0.124 0.044 3 
0.463 0.113 0.044 3 
0.465 0.102 0.044 3 
0.459 0.214 0.014 3 
0.464 0.096 0.044 3 
0.465 0.094 0.044 3 
0.466 0.084 0.044 3 
0.465 0.073 0.044 3 
0.465 0.064 0.044 3 
0.462 0.104 0.06 3 
0.477 -0.235 0.064 3 
0.477 -0.247 0.064 3 
0.477 -0.257 0.064 3 
0.476 -0.265 0.064 3 
0.477 -0.276 0.064 3 
0.478 -0.286 0.064 3 
0.48 -0.307 0.064 3 
0.481 -0.318 0.064 3 
0.483 -0.327 0.064 3 
0.484 -0.335 0.064 3 
0.485 -0.35 0.064 3 
0.467 0.003 0.023 3 
0.477 -0.226 0.064 3 
0.465 0.103 0.06 3 
0.476 0.084 0.06 3 
0.46 0.252 0.024 3 
0.464 0.075 0.06 3 
0.464 0.072 0.06 3 
0.458 0.053 0.06 3 
0.461 0.274 0.054 3 
0.326 0.014 0.059 3 
0.352 0.007 0.059 3 
0.467 -0.031 0.06 3 
0.462 -0.057 0.06 3 
0.462 -0.065 0.06 3 
0.473 -0.145 0.063 3 
0.463 -0.041 0.063 3 
0.463 -0.046 0.063 3 
0.473 -0.145 0.003 3 
0.477 -0.217 0.112 3 
0.471 -0.097 0.063 3 
0.471 -0.105 0.063 3 
0.471 -0.116 0.063 3 
0.483 -0.348 0.052 3 
0.472 -0.125 0.063 3 
0.473 -0.136 0.063 3 
0.466 -0.071 0.06 3 
0.473 -0.156 0.063 3 
0.477 -0.257 0.004 3 
0.473 -0.165 0.063 3 
0.473 -0.176 0.063 3 
0.461 0.212 0.022 3 
0.474 -0.185 0.064 3 
0.475 -0.192 0.064 3 
0.467 -0.015 0.034 3 
0.475 -0.195 0.064 3 
0.476 -0.207 0.064 3 
0.476 -0.216 0.064 3 
0.369 0.02 0.054 3 
0.474 -0.206 0.055 3 
0.462 0.173 0.052 3 
0.463 0.162 0.052 3 
0.463 0.154 0.052 3 
0.463 0.143 0.052 3 
0.463 0.132 0.052 3 
0.463 0.124 0.052 3 
0.462 0.112 0.052 3 
0.462 0.104 0.052 3 
0.465 0.089 0.052 3 
0.458 0.042 0.052 3 
0.368 -0.001 0.056 3 
0.348 0.016 0.054 3 
0.342 0.014 0.054 3 
0.468 -0.028 0.052 3 
0.459 0.282 0.013 3 
0.468 -0.036 0.052 3 
0.467 -0.047 0.052 3 
0.467 -0.055 0.052 3 
0.467 -0.066 0.052 3 
0.469 -0.085 0.052 3 
0.459 0.304 0.054 3 
0.462 0.162 0.033 3 
0.461 0.093 0.057 3 
0.465 0.07 0.057 3 
0.448 0.043 0.058 3 
0.36 -0.004 0.058 3 
0.379 -0.006 0.058 3 
0.466 -0.047 0.058 3 
0.465 -0.055 0.058 3 
0.468 -0.077 0.058 3 
0.47 -0.086 0.058 3 
0.46 0.322 0.054 3 
0.459 0.311 0.054 3 
0.476 -0.225 0.044 3 
0.46 0.293 0.054 3 
0.461 0.283 0.054 3 
0.461 0.262 0.054 3 
0.461 0.253 0.054 3 
0.46 0.234 0.054 3 
0.461 0.223 0.054 3 
0.463 0.213 0.054 3 
0.463 0.202 0.054 3 
0.462 0.193 0.054 3 
0.345 0.018 0.056 3 
0.357 0.005 0.056 3 
0.464 0.024 0.02 3 
0.467 -0.047 0.023 3 
0.468 -0.055 0.023 3 
0.469 -0.077 0.023 3 
0.47 -0.096 0.023 3 
0.471 -0.105 0.022 3 
0.471 -0.116 0.022 3 
0.472 -0.128 0.022 3 
0.471 -0.136 0.022 3 
0.472 -0.145 0.022 3 
0.473 -0.156 0.022 3 
0.473 -0.165 0.022 3 
0.472 -0.176 0.022 3 
0.467 -0.036 0.023 3 
0.474 -0.221 0.016 3 
0.478 -0.289 0.014 3 
0.481 -0.346 0.004 3 
0.48 -0.307 0.014 3 
0.48 -0.328 0.014 3 
0.48 -0.338 0.013 3 
0.481 -0.346 0.013 3 
0.457 0.311 0.012 3 
0.459 0.304 0.012 3 
0.459 0.294 0.012 3 
0.459 0.263 0.013 3 
0.459 0.254 0.013 3 
0.464 0.094 0.023 3 
0.482 -0.347 0.022 3 
0.481 -0.357 0.022 3 
0.462 0.204 0.022 3 
0.461 0.184 0.022 3 
0.462 0.173 0.022 3 
0.462 0.162 0.022 3 
0.462 0.153 0.022 3 
0.462 0.142 0.022 3 
0.462 0.134 0.023 3 
0.463 0.123 0.023 3 
0.463 0.112 0.023 3 
0.463 0.104 0.023 3 
0.459 0.243 0.013 3 
0.464 0.083 0.023 3 
0.464 0.072 0.023 3 
0.464 0.064 0.023 3 
0.464 0.054 0.023 3 
0.464 0.043 0.023 3 
0.465 0.032 0.023 3 
0.464 0.03 0.023 3 
0.465 0.024 0.023 3 
0.466 0.014 0.023 3 
0.467 -0.007 0.023 3 
0.466 -0.025 0.023 3 
0.481 -0.336 0.004 3 
0.462 0.083 0.012 3 
0.462 0.072 0.012 3 
0.462 0.064 0.013 3 
0.462 0.053 0.013 3 
0.463 0.043 0.012 3 
0.466 -0.007 0.012 3 
0.466 -0.015 0.012 3 
0.465 -0.025 0.012 3 
0.465 -0.036 0.012 3 
0.465 -0.047 0.012 3 
0.466 -0.055 0.012 3 
0.467 -0.066 0.012 3 
0.462 0.093 0.012 3 
0.48 -0.356 0.004 3 
0.478 -0.236 0.004 3 
0.463 0.064 0.004 3 
0.463 0.053 0.004 3 
0.468 -0.015 0.004 3 
0.467 -0.026 0.004 3 
0.468 -0.055 0.004 3 
0.471 -0.116 0.003 3 
0.472 -0.136 0.003 3 
0.474 -0.169 0.002 3 
0.473 -0.177 0.002 3 
0.472 -0.156 0.014 3 
0.459 0.234 0.014 3 
0.459 0.222 0.014 3 
0.46 0.203 0.014 3 
0.46 0.194 0.014 3 
0.46 0.183 0.014 3 
0.461 0.172 0.014 3 
0.461 0.164 0.014 3 
0.461 0.153 0.014 3 
0.47 -0.105 0.014 3 
0.47 -0.116 0.014 3 
0.47 -0.135 0.014 3 
0.472 -0.147 0.014 3 
0.481 -0.335 0.022 3 
0.472 -0.167 0.014 3 
0.471 -0.175 0.014 3 
0.471 -0.187 0.014 3 
0.473 -0.197 0.013 3 
0.474 -0.215 0.013 3 
0.475 -0.225 0.013 3 
0.476 -0.256 0.012 3 
0.477 -0.275 0.012 3 
0.461 0.142 0.012 3 
0.462 0.134 0.012 3 
0.462 0.104 0.012 3 
0.465 0.081 0.033 3 
0.465 0.056 0.001 3 
0.462 0.224 0.033 3 
0.462 0.213 0.033 3 
0.462 0.204 0.033 3 
0.462 0.193 0.033 3 
0.463 0.143 0.033 3 
0.463 0.132 0.033 3 
0.463 0.124 0.033 3 
0.464 0.102 0.033 3 
0.465 0.097 0.033 3 
0.464 0.091 0.033 3 
0.464 0.083 0.033 3 
0.46 0.234 0.033 3 
0.465 0.073 0.033 3 
0.464 0.07 0.034 3 
0.465 0.064 0.033 3 
0.465 0.054 0.034 3 
0.465 0.043 0.034 3 
0.465 0.032 0.034 3 
0.47 -0.085 0.023 3 
0.465 0.024 0.034 3 
0.466 0.014 0.034 3 
0.467 0.003 0.034 3 
0.467 -0.007 0.034 3 
0.456 0.331 0.034 3 
0.477 -0.235 0.044 3 
0.477 -0.247 0.044 3 
0.476 -0.265 0.044 3 
0.477 -0.276 0.044 3 
0.479 -0.296 0.043 3 
0.48 -0.307 0.043 3 
0.483 -0.348 0.043 3 
0.483 -0.355 0.043 3 
0.465 0.022 0.042 3 
0.465 0.008 0.042 3 
0.475 -0.163 0.038 3 
0.475 -0.192 0.038 3 
0.468 -0.026 0.033 3 
0.459 0.324 0.034 3 
0.458 0.313 0.034 3 
0.465 0.027 0.036 3 
0.48 -0.327 0.034 3 
0.481 -0.335 0.034 3 
0.483 -0.348 0.034 3 
0.46 0.292 0.032 3 
0.46 0.283 0.032 3 
0.46 0.264 0.032 3 
0.46 0.252 0.032 3 
0.46 0.243 0.032 3 
0.464 0.054 0.026 3 
0.464 0.064 0.031 3 
0.481 -0.357 0.028 3 
0.474 -0.197 0.027 3 
0.456 0.331 0.023 3 
0.456 0.324 0.023 3 
0.459 0.313 0.023 3 
0.46 0.302 0.023 3 
0.46 0.283 0.024 3 
0.46 0.273 0.024 3 
0.46 0.264 0.024 3 
0.46 0.243 0.024 3 
0.46 0.234 0.024 3 
0.48 -0.307 0.032 3 
0.474 -0.194 0.024 3 
0.474 -0.197 0.024 3 
0.475 -0.216 0.024 3 
0.476 -0.247 0.024 3 
0.476 -0.256 0.024 3 
0.477 -0.266 0.024 3 
0.477 -0.275 0.023 3 
0.478 -0.285 0.023 3 
0.481 -0.308 0.023 3 
0.48 -0.317 0.023 3 
0.481 -0.325 0.022 3 
0.474 -0.168 0.033 3 
0.468 -0.036 0.033 3 
0.47 -0.077 0.033 3 
0.471 -0.097 0.033 3 
0.471 -0.105 0.033 3 
0.471 -0.125 0.003 3 
0.471 -0.116 0.033 3 
0.462 0.123 0.012 3 
0.472 -0.125 0.033 3 
0.473 -0.136 0.033 3 
0.474 -0.145 0.033 3 
0.474 -0.157 0.033 3 
0.475 -0.166 0.033 3 
0.474 -0.177 0.033 3 
0.473 -0.185 0.033 3 
0.475 -0.207 0.033 3 
0.476 -0.225 0.032 3 
0.476 -0.235 0.032 3 
0.477 -0.248 0.032 3 
0.476 -0.256 0.032 3 
0.476 -0.265 0.032 3 
0.477 -0.275 0.032 3 
0.479 -0.286 0.032 3 
0.479 -0.296 0.032 3 
0.472 -0.125 0.094 3 
0.464 0.054 0.092 3 
0.465 0.083 0.052 3 
0.465 0.051 0.092 3 
0.469 -0.036 0.093 3 
0.469 -0.047 0.093 3 
0.47 -0.055 0.093 3 
0.47 -0.066 0.093 3 
0.47 -0.075 0.093 3 
0.471 -0.086 0.093 3 
0.472 -0.097 0.093 3 
0.472 -0.106 0.094 3 
0.471 -0.116 0.093 3 
0.475 -0.219 0.01 3 
0.461 0.192 0.022 3 
0.473 -0.137 0.094 3 
0.474 -0.157 0.094 3 
0.475 -0.174 0.094 3 
0.475 -0.177 0.094 3 
0.485 -0.343 0.097 3 
0.465 0.114 0.09 3 
0.465 0.089 0.09 3 
0.464 0.113 0.033 3 
0.324 0.023 0.074 3 
0.476 -0.207 0.083 3 
0.305 0.017 0.072 3 
0.477 -0.266 0.003 3 
0.461 0.304 0.093 3 
0.462 0.213 0.092 3 
0.46 0.274 0.093 3 
0.46 0.262 0.093 3 
0.46 0.253 0.093 3 
0.462 0.242 0.093 3 
0.462 0.233 0.093 3 
0.462 0.224 0.093 3 
0.463 0.193 0.092 3 
0.463 0.182 0.092 3 
0.462 0.173 0.092 3 
0.464 0.064 0.052 3 
0.468 -0.033 0.09 3 
0.463 0.154 0.092 3 
0.463 0.143 0.092 3 
0.464 0.132 0.092 3 
0.35 -0.005 0.067 3 
0.464 0.124 0.092 3 
0.464 0.113 0.092 3 
0.464 0.102 0.092 3 
0.464 0.094 0.092 3 
0.464 0.083 0.092 3 
0.465 0.081 0.092 3 
0.465 0.07 0.092 3 
0.464 0.113 0.084 3 
0.462 0.224 0.084 3 
0.462 0.213 0.084 3 
0.462 0.204 0.084 3 
0.462 0.193 0.084 3 
0.463 0.182 0.084 3 
0.463 0.174 0.084 3 
0.456 0.331 0.054 3 
0.462 0.162 0.084 3 
0.464 0.132 0.084 3 
0.464 0.124 0.084 3 
0.476 -0.265 0.012 3 
0.462 0.233 0.084 3 
0.464 0.094 0.084 3 
0.463 0.083 0.084 3 
0.462 0.072 0.084 3 
0.461 0.064 0.084 3 
0.462 0.053 0.084 3 
0.33 0.025 0.072 3 
0.307 0.014 0.07 3 
0.466 -0.033 0.084 3 
0.467 -0.036 0.063 3 
0.461 0.313 0.082 3 
0.461 0.303 0.082 3 
0.461 0.294 0.082 3 
0.46 0.292 0.024 3 
0.476 -0.196 0.092 3 
0.477 -0.205 0.092 3 
0.476 -0.216 0.092 3 
0.476 -0.225 0.092 3 
0.477 -0.235 0.092 3 
0.478 -0.248 0.092 3 
0.474 -0.197 0.055 3 
0.478 -0.285 0.044 3 
0.477 -0.257 0.092 3 
0.478 -0.267 0.093 3 
0.473 -0.125 0.044 3 
0.478 -0.277 0.093 3 
0.461 0.313 0.093 3 
0.478 -0.296 0.093 3 
0.481 -0.309 0.094 3 
0.483 -0.317 0.094 3 
0.483 -0.328 0.094 3 
0.484 -0.336 0.094 3 
0.484 -0.345 0.094 3 
0.485 -0.35 0.094 3 
0.474 -0.177 0.089 3 
0.485 -0.336 0.091 3 
0.46 0.256 0.084 3 
0.461 0.253 0.084 3 
0.464 0.119 0.103 3 
0.462 0.213 0.103 3 
0.463 0.194 0.103 3 
0.482 -0.326 0.073 3 
0.463 0.182 0.103 3 
0.475 -0.207 0.044 3 
0.462 0.173 0.103 3 
0.462 0.162 0.103 3 
0.463 0.154 0.103 3 
0.463 0.143 0.103 3 
0.464 0.133 0.103 3 
0.465 0.127 0.103 3 
0.465 0.122 0.103 3 
0.459 0.273 0.013 3 
0.47 -0.097 0.003 3 
0.464 0.113 0.103 3 
0.464 0.102 0.103 3 
0.464 0.083 0.103 3 
0.464 0.073 0.103 3 
0.465 0.07 0.103 3 
0.464 0.062 0.103 3 
0.464 0.054 0.103 3 
0.335 0.026 0.083 3 
0.469 -0.047 0.104 3 
0.47 -0.055 0.104 3 
0.484 -0.326 0.112 3 
0.477 -0.226 0.112 3 
0.479 -0.237 0.113 3 
0.478 -0.255 0.113 3 
0.479 -0.265 0.113 3 
0.464 0.073 0.092 3 
0.48 -0.275 0.113 3 
0.48 -0.285 0.114 3 
0.481 -0.296 0.114 3 
0.482 -0.307 0.114 3 
0.295 0.006 0.078 3 
0.481 -0.328 0.043 3 
0.483 -0.318 0.112 3 
0.471 -0.067 0.104 3 
0.484 -0.336 0.112 3 
0.484 -0.347 0.113 3 
0.462 0.289 0.104 3 
0.461 0.282 0.104 3 
0.457 0.332 0.082 3 
0.461 0.263 0.104 3 
0.461 0.254 0.104 3 
0.461 0.323 0.082 3 
0.461 0.242 0.104 3 
0.462 0.233 0.104 3 
0.484 -0.325 0.103 3 
0.478 -0.245 0.104 3 
0.478 -0.255 0.104 3 
0.478 -0.267 0.104 3 
0.465 0.097 0.098 3 
0.465 0.089 0.098 3 
0.475 -0.158 0.002 3 
0.465 0.062 0.098 3 
0.472 -0.097 0.082 3 
0.479 -0.278 0.102 3 
0.48 -0.285 0.102 3 
0.48 -0.298 0.102 3 
0.481 -0.306 0.102 3 
0.482 -0.336 0.043 3 
0.483 -0.335 0.103 3 
0.484 -0.347 0.103 3 
0.485 -0.35 0.104 3 
0.465 0.114 0.095 3 
0.465 0.043 0.036 3 
0.3 0.018 0.074 3 
0.487 -0.044 0.081 3 
0.299 0.014 0.074 3 
0.297 0.003 0.074 3 
0.458 0.333 0.093 3 
0.461 0.323 0.094 3 
0.472 -0.125 0.102 3 
0.471 -0.075 0.104 3 
0.485 -0.344 0.11 3 
0.485 -0.348 0.11 3 
0.458 0.334 0.102 3 
0.461 0.323 0.102 3 
0.462 0.311 0.102 3 
0.461 0.304 0.102 3 
0.465 0.081 0.1 3 
0.473 -0.095 0.102 3 
0.473 -0.106 0.102 3 
0.469 -0.036 0.044 3 
0.472 -0.117 0.102 3 
0.466 -0.036 0.084 3 
0.473 -0.137 0.102 3 
0.472 -0.145 0.102 3 
0.475 -0.154 0.102 3 
0.475 -0.157 0.102 3 
0.475 -0.166 0.103 3 
0.475 -0.175 0.103 3 
0.476 -0.187 0.103 3 
0.477 -0.196 0.103 3 
0.477 -0.217 0.103 3 
0.477 -0.226 0.104 3 
0.351 0.035 0.064 3 
0.481 -0.309 0.073 3 
0.482 -0.319 0.073 3 
0.483 -0.337 0.073 3 
0.485 -0.346 0.073 3 
0.465 0.116 0.068 3 
0.358 0.047 0.064 3 
0.338 0.04 0.064 3 
0.333 0.037 0.063 3 
0.332 0.033 0.063 3 
0.479 -0.297 0.073 3 
0.353 0.034 0.064 3 
0.361 0.031 0.064 3 
0.327 0.023 0.063 3 
0.33 0 0.063 3 
0.337 -0.004 0.064 3 
0.355 -0.006 0.064 3 
0.338 -0.01 0.064 3 
0.34 -0.016 0.064 3 
0.462 0.184 0.033 3 
0.355 -0.021 0.064 3 
0.466 0.073 0.052 3 
0.474 -0.165 0.072 3 
0.356 0.032 0.066 3 
0.326 0.023 0.065 3 
0.315 0.02 0.064 3 
0.461 0.284 0.082 3 
0.304 0.01 0.064 3 
0.316 0.004 0.064 3 
0.344 -0.008 0.065 3 
0.474 -0.145 0.072 3 
0.474 -0.157 0.072 3 
0.369 -0.024 0.065 3 
0.474 -0.185 0.072 3 
0.476 -0.195 0.072 3 
0.476 -0.216 0.072 3 
0.476 -0.225 0.072 3 
0.477 -0.235 0.072 3 
0.47 -0.085 0.033 3 
0.477 -0.247 0.072 3 
0.477 -0.257 0.072 3 
0.477 -0.266 0.072 3 
0.477 -0.276 0.072 3 
0.478 -0.286 0.073 3 
0.464 0.132 0.063 3 
0.46 0.312 0.062 3 
0.46 0.302 0.062 3 
0.461 0.294 0.062 3 
0.46 0.283 0.062 3 
0.461 0.253 0.062 3 
0.461 0.244 0.062 3 
0.461 0.223 0.063 3 
0.462 0.213 0.063 3 
0.462 0.204 0.063 3 
0.462 0.193 0.063 3 
0.462 0.184 0.063 3 
0.462 0.173 0.063 3 
0.459 0.324 0.062 3 
0.462 0.123 0.063 3 
0.456 0.113 0.063 3 
0.493 0.088 0.063 3 
0.374 0.008 0.054 3 
0.46 0.063 0.063 3 
0.452 0.051 0.063 3 
0.488 -0.073 0.069 3 
0.456 0.323 0.012 3 
0.494 -0.078 0.07 3 
0.498 -0.081 0.07 3 
0.495 -0.087 0.07 3 
0.312 0.014 0.064 3 
0.363 0.039 0.063 3 
0.316 0.013 0.061 3 
0.35 -0.009 0.062 3 
0.327 -0.01 0.062 3 
0.327 -0.015 0.062 3 
0.353 -0.032 0.063 3 
0.367 -0.046 0.063 3 
0.482 -0.326 0.082 3 
0.478 -0.258 0.084 3 
0.478 -0.267 0.084 3 
0.479 -0.277 0.084 3 
0.478 -0.286 0.084 3 
0.478 -0.296 0.084 3 
0.342 0.017 0.057 3 
0.453 0.065 0.078 3 
0.316 -0.003 0.068 3 
0.499 -0.049 0.082 3 
0.475 -0.157 0.08 3 
0.481 -0.319 0.082 3 
0.477 -0.247 0.084 3 
0.484 -0.335 0.082 3 
0.484 -0.345 0.082 3 
0.336 0.04 0.068 3 
0.312 0.033 0.067 3 
0.319 0.032 0.067 3 
0.353 0.032 0.069 3 
0.328 -0.003 0.068 3 
0.356 -0.006 0.069 3 
0.319 -0.01 0.067 3 
0.312 -0.011 0.067 3 
0.313 -0.015 0.067 3 
0.471 -0.125 0.083 3 
0.465 0.125 0.082 3 
0.465 0.122 0.082 3 
0.337 0.026 0.071 3 
0.469 -0.047 0.082 3 
0.47 -0.055 0.082 3 
0.47 -0.066 0.082 3 
0.47 -0.075 0.082 3 
0.471 -0.086 0.082 3 
0.472 -0.105 0.083 3 
0.471 -0.116 0.083 3 
0.473 -0.136 0.074 3 
0.463 0.154 0.063 3 
0.473 -0.136 0.083 3 
0.474 -0.157 0.083 3 
0.474 -0.165 0.083 3 
0.474 -0.177 0.083 3 
0.475 -0.186 0.083 3 
0.476 -0.195 0.083 3 
0.476 -0.216 0.083 3 
0.477 -0.235 0.084 3 
0.472 -0.097 0.074 3 
0.332 0.036 0.066 3 
0.462 0.184 0.073 3 
0.462 0.173 0.073 3 
0.462 0.162 0.073 3 
0.456 0.331 0.074 3 
0.464 0.124 0.073 3 
0.341 -0.019 0.067 3 
0.464 0.113 0.073 3 
0.465 0.103 0.074 3 
0.463 0.097 0.073 3 
0.464 0.094 0.073 3 
0.351 0.046 0.067 3 
0.346 0.044 0.067 3 
0.463 0.154 0.073 3 
0.336 -0.002 0.067 3 
0.322 -0.016 0.066 3 
0.354 -0.022 0.068 3 
0.473 -0.086 0.074 3 
0.471 -0.105 0.074 3 
0.471 -0.116 0.074 3 
0.473 -0.125 0.074 3 
0.475 -0.154 0.075 3 
0.461 0.294 0.074 3 
0.462 0.242 0.073 3 
0.461 0.253 0.073 3 
0.462 0.263 0.074 3 
0.475 -0.166 0.002 3 
0.462 0.233 0.073 3 
0.46 0.274 0.074 3 
0.461 0.284 0.074 3 
0.462 0.224 0.073 3 
0.461 0.303 0.074 3 
0.462 0.213 0.073 3 
0.46 0.312 0.074 3 
0.462 0.204 0.073 3 
0.46 0.322 0.074 3 
0.462 0.193 0.073 3 
0.593 -0.028 0.1 3 
0.581 -0.017 0.11 3 
0.585 -0.039 0.091 3 
0.584 -0.035 0.091 3 
0.589 -0.024 0.095 3 
0.585 -0.024 0.091 3 
0.592 -0.036 0.1 3 
0.597 -0.017 0.115 3 
0.596 -0.025 0.1 3 
0.582 -0.028 0.091 3 
0.531 -0.106 0.071 7 
0.552 -0.115 0.061 7 
0.554 -0.119 0.065 7 
0.565 -0.109 0.069 7 
0.524 -0.101 0.071 7 
0.554 -0.109 0.061 7 
0.563 -0.112 0.069 7 
0.56 -0.118 0.069 7 
