# .PCD v0.7 - Point Cloud Data file
FIELDS x y z intensity
SIZE 4 4 4 4
TYPE F F F F
COUNT 1 1 1 1
WIDTH 2371
HEIGHT 1
VIEWPOINT 0 0 0 1 0 0 0
POINTS 2371
DATA ascii
0.37 -0.236 -0.024 1 
0.371 -0.225 -0.024 1 
0.364 -0.155 -0.018 1 
0.364 -0.137 -0.018 1 
0.361 -0.126 -0.016 1 
0.36 -0.105 -0.015 1 
0.36 -0.096 -0.015 1 
0.358 -0.082 -0.014 1 
0.36 -0.062 -0.015 1 
0.361 -0.045 -0.015 1 
0.364 -0.033 -0.016 1 
0.361 0.014 -0.015 1 
0.363 0.023 -0.016 1 
0.362 0.034 -0.016 1 
0.359 0.043 -0.015 1 
0.359 0.063 -0.015 1 
0.356 0.074 -0.014 1 
0.353 0.113 -0.014 1 
0.352 0.123 -0.014 1 
0.351 0.134 -0.014 1 
0.352 0.136 -0.014 1 
0.353 0.154 -0.015 1 
0.351 0.158 -0.015 1 
0.344 0.206 -0.015 1 
0.374 -0.197 -0.022 1 
0.368 -0.146 -0.018 1 
0.364 -0.085 -0.015 1 
0.365 -0.063 -0.015 1 
0.362 -0.055 -0.014 1 
0.361 0.081 -0.014 1 
0.362 0.091 -0.015 1 
0.361 0.092 -0.014 1 
0.362 0.102 -0.015 1 
0.36 0.103 -0.014 1 
0.359 0.121 -0.015 1 
0.357 0.136 -0.014 1 
0.353 0.17 -0.015 1 
0.352 0.171 -0.014 1 
0.352 0.213 -0.017 1 
0.352 0.215 -0.017 1 
0.382 -0.252 -0.025 1 
0.38 -0.245 -0.024 1 
0.383 -0.238 -0.024 1 
0.385 -0.233 -0.025 1 
0.382 -0.225 -0.023 1 
0.374 -0.186 -0.019 1 
0.373 -0.175 -0.018 1 
0.374 -0.136 -0.018 1 
0.374 -0.128 -0.017 1 
0.371 -0.115 -0.016 1 
0.371 -0.096 -0.016 1 
0.372 -0.085 -0.016 1 
0.374 -0.076 -0.016 1 
0.369 -0.054 -0.014 1 
0.373 -0.045 -0.016 1 
0.374 -0.038 -0.016 1 
0.373 0.013 -0.016 1 
0.373 0.024 -0.016 1 
0.372 0.054 -0.016 1 
0.372 0.063 -0.016 1 
0.366 0.083 -0.014 1 
0.365 0.107 -0.014 1 
0.363 0.114 -0.014 1 
0.363 0.115 -0.014 1 
0.363 0.133 -0.014 1 
0.363 0.134 -0.015 1 
0.363 0.144 -0.015 1 
0.364 0.153 -0.015 1 
0.357 0.172 -0.014 1 
0.36 0.184 -0.016 1 
0.357 0.194 -0.015 1 
0.355 0.203 -0.015 1 
0.392 -0.256 -0.026 1 
0.39 -0.238 -0.024 1 
0.382 -0.195 -0.02 1 
0.379 -0.125 -0.017 1 
0.38 -0.116 -0.017 1 
0.374 -0.066 -0.014 1 
0.374 -0.061 -0.014 1 
0.381 -0.032 -0.016 1 
0.374 0.006 -0.014 1 
0.373 0.084 -0.015 1 
0.374 0.104 -0.016 1 
0.373 0.123 -0.016 1 
0.37 0.133 -0.015 1 
0.37 0.163 -0.016 1 
0.359 0.223 -0.016 1 
0.396 -0.255 -0.025 1 
0.394 -0.25 -0.024 1 
0.396 -0.247 -0.025 1 
0.398 -0.241 -0.025 1 
0.389 -0.227 -0.021 1 
0.382 -0.165 -0.017 1 
0.384 -0.16 -0.018 1 
0.383 -0.105 -0.016 1 
0.382 -0.095 -0.015 1 
0.384 -0.087 -0.016 1 
0.382 -0.075 -0.015 1 
0.379 -0.066 -0.014 1 
0.38 -0.062 -0.014 1 
0.383 -0.057 -0.015 1 
0.383 0.014 -0.016 1 
0.384 0.024 -0.016 1 
0.382 0.043 -0.015 1 
0.381 0.054 -0.015 1 
0.38 0.074 -0.015 1 
0.38 0.083 -0.015 1 
0.38 0.113 -0.016 1 
0.374 0.138 -0.015 1 
0.372 0.144 -0.014 1 
0.372 0.153 -0.014 1 
0.372 0.155 -0.014 1 
0.369 0.184 -0.015 1 
0.363 0.227 -0.015 1 
0.393 -0.216 -0.02 1 
0.388 -0.185 -0.018 1 
0.39 -0.155 -0.017 1 
0.391 -0.107 -0.017 1 
0.386 -0.072 -0.015 1 
0.388 -0.045 -0.015 1 
0.39 -0.033 -0.016 1 
0.297 -0.015 0.014 1 
0.298 -0.005 0.013 1 
0.298 0.002 0.013 1 
0.383 0.006 -0.014 1 
0.384 0.099 -0.015 1 
0.383 0.123 -0.015 1 
0.382 0.133 -0.015 1 
0.381 0.14 -0.015 1 
0.377 0.144 -0.014 1 
0.38 0.163 -0.015 1 
0.372 0.223 -0.016 1 
0.373 0.233 -0.017 1 
0.403 -0.268 -0.023 1 
0.404 -0.255 -0.023 1 
0.394 -0.206 -0.018 1 
0.394 -0.125 -0.016 1 
0.394 -0.121 -0.016 1 
0.394 -0.075 -0.015 1 
0.392 -0.066 -0.014 1 
0.394 -0.062 -0.015 1 
0.393 0.033 -0.015 1 
0.393 0.053 -0.015 1 
0.394 0.064 -0.016 1 
0.392 0.073 -0.015 1 
0.392 0.084 -0.015 1 
0.39 0.091 -0.015 1 
0.389 0.093 -0.014 1 
0.389 0.097 -0.014 1 
0.391 0.102 -0.015 1 
0.39 0.114 -0.015 1 
0.387 0.129 -0.015 1 
0.384 0.157 -0.014 1 
0.38 0.183 -0.014 1 
0.369 0.154 -0.015 1 
0.377 0.233 -0.016 1 
0.404 -0.215 -0.019 1 
0.401 -0.156 -0.016 1 
0.402 -0.105 -0.016 1 
0.4 -0.096 -0.015 1 
0.399 -0.076 -0.015 1 
0.398 -0.066 -0.014 1 
0.401 -0.056 -0.015 1 
0.4 -0.045 -0.015 1 
0.401 -0.037 -0.015 1 
0.398 0.017 -0.014 1 
0.363 0.073 -0.015 1 
0.399 0.023 -0.015 1 
0.396 0.094 -0.015 1 
0.395 0.119 -0.015 1 
0.394 0.123 -0.014 1 
0.391 0.134 -0.014 1 
0.392 0.137 -0.014 1 
0.394 0.144 -0.015 1 
0.392 0.152 -0.015 1 
0.391 0.153 -0.014 1 
0.393 0.163 -0.015 1 
0.388 0.183 -0.015 1 
0.383 0.244 -0.016 1 
0.384 0.25 -0.016 1 
0.412 -0.287 -0.022 1 
0.413 -0.265 -0.021 1 
0.414 -0.255 -0.021 1 
0.384 -0.216 -0.02 1 
0.396 -0.231 -0.015 1 
0.41 -0.215 -0.019 1 
0.403 -0.187 -0.016 1 
0.403 -0.176 -0.015 1 
0.404 -0.172 -0.016 1 
0.403 -0.146 -0.015 1 
0.404 -0.142 -0.015 1 
0.405 -0.065 -0.014 1 
0.404 -0.041 -0.014 1 
0.476 -0.046 -0.035 1 
0.473 -0.04 -0.035 1 
0.404 0.034 -0.014 1 
0.403 0.073 -0.014 1 
0.403 0.103 -0.015 1 
0.402 0.111 -0.015 1 
0.374 -0.105 -0.017 1 
0.399 0.123 -0.014 1 
0.399 0.152 -0.015 1 
0.397 0.153 -0.014 1 
0.394 0.157 -0.013 1 
0.393 0.191 -0.014 1 
0.393 0.198 -0.014 1 
0.394 0.223 -0.016 1 
0.389 0.243 -0.015 1 
0.414 -0.239 -0.018 1 
0.412 -0.207 -0.017 1 
0.413 -0.195 -0.017 1 
0.413 -0.185 -0.016 1 
0.413 -0.166 -0.016 1 
0.411 -0.146 -0.015 1 
0.353 0.194 -0.016 1 
0.411 -0.135 -0.015 1 
0.414 -0.125 -0.015 1 
0.415 -0.111 -0.015 1 
0.414 -0.106 -0.015 1 
0.413 -0.097 -0.015 1 
0.413 -0.088 -0.015 1 
0.413 -0.085 -0.014 1 
0.413 -0.081 -0.014 1 
0.414 -0.077 -0.015 1 
0.415 -0.07 -0.015 1 
0.414 -0.066 -0.015 1 
0.412 -0.045 -0.014 1 
0.412 0.024 -0.014 1 
0.411 0.053 -0.014 1 
0.411 0.057 -0.014 1 
0.412 0.069 -0.015 1 
0.41 0.073 -0.014 1 
0.409 0.083 -0.014 1 
0.403 0.134 -0.013 1 
0.404 0.144 -0.014 1 
0.404 0.164 -0.014 1 
0.403 0.183 -0.015 1 
0.403 0.185 -0.015 1 
0.403 0.224 -0.016 1 
0.397 0.231 -0.015 1 
0.393 0.26 -0.015 1 
0.423 -0.287 -0.02 1 
0.423 -0.267 -0.019 1 
0.422 -0.257 -0.018 1 
0.424 -0.245 -0.018 1 
0.424 -0.235 -0.018 1 
0.422 -0.227 -0.017 1 
0.417 -0.216 -0.016 1 
0.42 -0.206 -0.016 1 
0.421 -0.196 -0.016 1 
0.419 -0.065 -0.014 1 
0.418 -0.046 -0.013 1 
0.383 -0.187 -0.018 1 
0.394 -0.147 -0.016 1 
0.402 0.096 -0.014 1 
0.421 -0.044 -0.014 1 
0.364 -0.035 -0.016 1 
0.397 0.006 -0.008 1 
0.373 0.034 -0.016 1 
0.414 0.013 -0.013 1 
0.407 0.134 -0.012 1 
0.409 0.144 -0.013 1 
0.41 0.154 -0.013 1 
0.402 0.194 -0.012 1 
0.404 0.213 -0.014 1 
0.405 0.239 -0.015 1 
0.404 0.241 -0.015 1 
0.403 0.242 -0.014 1 
0.402 0.252 -0.015 1 
0.401 0.253 -0.014 1 
0.4 0.26 -0.015 1 
0.398 0.263 -0.014 1 
0.4 0.268 -0.015 1 
0.425 -0.187 -0.015 1 
0.425 -0.184 -0.015 1 
0.424 -0.176 -0.014 1 
0.422 -0.155 -0.013 1 
0.422 -0.145 -0.013 1 
0.422 -0.136 -0.013 1 
0.424 -0.125 -0.013 1 
0.423 -0.115 -0.013 1 
0.374 0.213 -0.016 1 
0.424 -0.106 -0.013 1 
0.424 -0.101 -0.013 1 
0.424 -0.087 -0.013 1 
0.424 -0.08 -0.013 1 
0.424 -0.057 -0.013 1 
0.473 -0.048 -0.026 1 
0.477 -0.046 -0.027 1 
0.422 0.023 -0.013 1 
0.419 -0.175 -0.015 1 
0.423 0.044 -0.013 1 
0.423 0.053 -0.013 1 
0.423 0.062 -0.013 1 
0.421 0.074 -0.013 1 
0.42 0.094 -0.013 1 
0.412 0.163 -0.012 1 
0.364 0.163 -0.016 1 
0.413 0.174 -0.013 1 
0.384 0.033 -0.016 1 
0.414 0.184 -0.013 1 
0.411 0.194 -0.013 1 
0.415 0.225 -0.015 1 
0.414 0.232 -0.015 1 
0.41 0.244 -0.014 1 
0.408 0.272 -0.015 1 
0.413 0.283 -0.017 1 
0.434 -0.312 -0.019 1 
0.433 -0.286 -0.017 1 
0.434 -0.275 -0.017 1 
0.43 -0.256 -0.015 1 
0.431 -0.246 -0.015 1 
0.432 -0.225 -0.015 1 
0.43 -0.216 -0.014 1 
0.432 -0.215 -0.015 1 
0.432 -0.205 -0.015 1 
0.381 -0.072 -0.015 1 
0.431 -0.196 -0.014 1 
0.43 -0.185 -0.014 1 
0.428 -0.176 -0.013 1 
0.43 -0.125 -0.013 1 
0.431 -0.075 -0.012 1 
0.429 -0.065 -0.012 1 
0.43 -0.055 -0.012 1 
0.395 0.195 -0.015 1 
0.432 -0.046 -0.013 1 
0.434 -0.044 -0.013 1 
0.477 -0.043 -0.025 1 
0.354 0.143 -0.015 1 
0.43 0.033 -0.012 1 
0.43 0.043 -0.012 1 
0.428 0.054 -0.012 1 
0.429 0.064 -0.012 1 
0.424 0.103 -0.012 1 
0.424 0.124 -0.012 1 
0.421 0.154 -0.012 1 
0.419 0.163 -0.012 1 
0.418 0.174 -0.012 1 
0.419 0.183 -0.012 1 
0.415 0.197 -0.011 1 
0.398 0.063 -0.015 1 
0.414 0.214 -0.012 1 
0.416 0.283 -0.015 1 
0.414 0.284 -0.014 1 
0.437 -0.275 -0.015 1 
0.433 -0.265 -0.014 1 
0.394 0.243 -0.014 1 
0.432 -0.255 -0.013 1 
0.434 -0.246 -0.014 1 
0.434 -0.243 -0.013 1 
0.434 -0.155 -0.012 1 
0.434 -0.152 -0.012 1 
0.434 -0.115 -0.011 1 
0.434 -0.11 -0.011 1 
0.433 -0.095 -0.011 1 
0.434 -0.088 -0.011 1 
0.403 0.064 -0.014 1 
0.443 -0.043 -0.013 1 
0.323 -0.016 0.017 1 
0.324 -0.012 0.016 1 
0.331 -0.002 0.015 1 
0.332 0.001 0.014 1 
0.434 0.072 -0.011 1 
0.433 0.084 -0.011 1 
0.414 -0.057 -0.015 1 
0.432 0.094 -0.011 1 
0.432 0.123 -0.012 1 
0.424 0.194 -0.011 1 
0.422 0.223 -0.012 1 
0.421 0.233 -0.012 1 
0.421 0.244 -0.012 1 
0.422 0.25 -0.012 1 
0.423 0.273 -0.014 1 
0.422 0.284 -0.014 1 
0.426 0.298 -0.015 1 
0.443 -0.315 -0.015 1 
0.443 -0.299 -0.015 1 
0.442 -0.295 -0.014 1 
0.441 -0.285 -0.014 1 
0.44 -0.226 -0.012 1 
0.442 -0.196 -0.012 1 
0.443 -0.186 -0.012 1 
0.442 -0.175 -0.012 1 
0.442 -0.146 -0.011 1 
0.443 -0.136 -0.011 1 
0.44 -0.115 -0.01 1 
0.439 -0.107 -0.01 1 
0.412 -0.101 -0.014 1 
0.438 -0.096 -0.01 1 
0.42 0.082 -0.012 1 
0.441 -0.085 -0.01 1 
0.442 -0.075 -0.01 1 
0.374 0.184 -0.014 1 
0.442 -0.065 -0.01 1 
0.444 -0.056 -0.011 1 
0.463 -0.044 -0.015 1 
0.325 -0.015 0.018 1 
0.334 -0.01 0.015 1 
0.342 -0.005 0.013 1 
0.406 0.024 -0.015 1 
0.344 0 0.013 1 
0.346 0.003 0.012 1 
0.442 0.032 -0.011 1 
0.441 0.042 -0.01 1 
0.441 0.054 -0.01 1 
0.44 0.064 -0.01 1 
0.439 0.074 -0.01 1 
0.438 0.083 -0.01 1 
0.434 0.144 -0.01 1 
0.434 0.154 -0.01 1 
0.434 0.162 -0.011 1 
0.43 0.183 -0.01 1 
0.422 0.293 -0.012 1 
0.443 -0.266 -0.011 1 
0.443 -0.246 -0.011 1 
0.414 0.103 -0.013 1 
0.444 -0.235 -0.01 1 
0.444 -0.217 -0.01 1 
0.444 -0.166 -0.009 1 
0.451 -0.096 -0.01 1 
0.45 -0.055 -0.01 1 
0.451 -0.052 -0.01 1 
0.478 -0.038 -0.016 1 
0.34 -0.015 0.015 1 
0.364 0.007 -0.014 1 
0.399 -0.237 -0.023 1 
0.408 0.224 -0.015 1 
0.356 -0.006 0.012 1 
0.404 -0.278 -0.024 1 
0.358 0.002 0.011 1 
0.444 0.123 -0.009 1 
0.442 0.133 -0.009 1 
0.439 0.163 -0.009 1 
0.433 0.192 -0.008 1 
0.433 0.222 -0.009 1 
0.432 0.234 -0.009 1 
0.43 0.241 -0.009 1 
0.433 0.252 -0.01 1 
0.432 0.262 -0.01 1 
0.433 0.284 -0.011 1 
0.428 0.296 -0.011 1 
0.444 -0.323 -0.011 1 
0.406 0.267 -0.014 1 
0.453 -0.316 -0.012 1 
0.453 -0.275 -0.011 1 
0.45 -0.255 -0.01 1 
0.45 -0.235 -0.009 1 
0.449 -0.226 -0.009 1 
0.45 -0.216 -0.009 1 
0.452 -0.206 -0.009 1 
0.452 -0.195 -0.009 1 
0.452 -0.187 -0.009 1 
0.452 -0.157 -0.008 1 
0.451 -0.146 -0.008 1 
0.452 -0.135 -0.008 1 
0.453 -0.115 -0.008 1 
0.454 -0.107 -0.008 1 
0.44 -0.205 -0.012 1 
0.454 -0.089 -0.008 1 
0.454 -0.066 -0.008 1 
0.449 -0.027 -0.007 1 
0.443 -0.016 -0.006 1 
0.446 -0.006 -0.006 1 
0.449 0.003 -0.007 1 
0.452 0.034 -0.008 1 
0.44 0.144 -0.009 1 
0.452 0.044 -0.008 1 
0.452 0.054 -0.008 1 
0.451 0.064 -0.008 1 
0.45 0.074 -0.008 1 
0.442 0.172 -0.008 1 
0.441 0.204 -0.008 1 
0.441 0.214 -0.008 1 
0.433 0.269 -0.008 1 
0.458 -0.056 -0.006 1 
0.465 -0.041 -0.008 1 
0.458 0.003 -0.007 1 
0.457 0.024 -0.006 1 
0.456 0.044 -0.006 1 
0.456 0.063 -0.006 1 
0.454 0.083 -0.006 1 
0.454 0.093 -0.006 1 
0.453 0.114 -0.006 1 
0.451 0.134 -0.006 1 
0.451 0.153 -0.006 1 
0.441 0.242 -0.006 1 
0.44 0.273 -0.007 1 
0.442 0.284 -0.008 1 
0.44 0.291 -0.008 1 
0.44 0.303 -0.008 1 
0.384 -0.213 -0.02 1 
0.449 -0.325 -0.006 1 
0.382 0.182 -0.015 1 
0.461 -0.315 -0.008 1 
0.46 -0.255 -0.006 1 
0.46 -0.175 -0.005 1 
0.461 -0.156 -0.005 1 
0.461 -0.08 -0.005 1 
0.461 -0.036 -0.005 1 
0.458 0.1 -0.005 1 
0.457 0.116 -0.005 1 
0.454 0.154 -0.004 1 
0.453 0.157 -0.004 1 
0.453 0.163 -0.005 1 
0.451 0.172 -0.004 1 
0.451 0.18 -0.004 1 
0.392 0.234 -0.016 1 
0.451 0.183 -0.005 1 
0.451 0.191 -0.005 1 
0.453 0.201 -0.005 1 
0.453 0.212 -0.006 1 
0.45 0.224 -0.005 1 
0.45 0.233 -0.005 1 
0.448 0.243 -0.005 1 
0.448 0.254 -0.006 1 
0.447 0.262 -0.006 1 
0.447 0.274 -0.006 1 
0.443 0.313 -0.006 1 
0.442 0.315 -0.006 1 
0.463 -0.337 -0.006 1 
0.364 -0.083 -0.015 1 
0.465 -0.316 -0.006 1 
0.464 -0.295 -0.005 1 
0.462 -0.265 -0.004 1 
0.464 -0.255 -0.004 1 
0.466 -0.245 -0.005 1 
0.468 -0.237 -0.005 1 
0.468 -0.234 -0.005 1 
0.464 -0.217 -0.004 1 
0.464 -0.186 -0.003 1 
0.401 -0.195 -0.018 1 
0.463 -0.157 -0.003 1 
0.463 -0.146 -0.003 1 
0.453 0.232 -0.003 1 
0.453 0.244 -0.004 1 
0.451 0.263 -0.004 1 
0.452 0.276 -0.004 1 
0.453 0.283 -0.005 1 
0.451 0.293 -0.005 1 
0.452 0.304 -0.005 1 
0.446 0.319 -0.005 1 
0.467 -0.345 -0.005 1 
0.469 -0.337 -0.005 1 
0.43 0.134 -0.011 1 
0.443 0.264 -0.007 1 
0.47 -0.331 -0.005 1 
0.464 -0.177 -0.001 1 
0.464 -0.116 0 1 
0.454 0.248 -0.001 1 
0.454 0.302 -0.003 1 
0.452 0.313 -0.003 1 
0.465 -0.092 0.002 1 
0.451 -0.298 -0.011 1 
0.464 -0.02 0.002 1 
0.465 -0.015 0.002 1 
0.463 0.014 0.002 1 
0.461 0.093 0.002 1 
0.461 0.104 0.002 1 
0.453 0.321 0 1 
0.469 -0.256 0.002 1 
0.469 -0.227 0.002 1 
0.467 -0.216 0.003 1 
0.467 -0.205 0.003 1 
0.467 -0.196 0.003 1 
0.467 -0.185 0.003 1 
0.467 -0.176 0.003 1 
0.466 -0.167 0.004 1 
0.466 -0.156 0.004 1 
0.466 -0.145 0.004 1 
0.374 -0.206 -0.022 1 
0.424 0.112 -0.012 1 
0.465 -0.117 0.004 1 
0.464 -0.105 0.004 1 
0.464 -0.1 0.004 1 
0.461 0.114 0.004 1 
0.46 0.122 0.004 1 
0.458 0.154 0.004 1 
0.46 0.164 0.004 1 
0.46 0.183 0.003 1 
0.46 0.194 0.003 1 
0.461 0.204 0.003 1 
0.46 0.214 0.003 1 
0.46 0.223 0.003 1 
0.46 0.232 0.003 1 
0.46 0.244 0.002 1 
0.383 -0.176 -0.018 1 
0.461 0.262 0.002 1 
0.469 0.345 -0.001 1 
0.474 -0.346 0.002 1 
0.473 -0.338 0.003 1 
0.473 -0.327 0.003 1 
0.382 0.153 -0.014 1 
0.471 -0.315 0.003 1 
0.47 -0.307 0.004 1 
0.47 -0.285 0.004 1 
0.469 -0.278 0.004 1 
0.46 0.274 0.004 1 
0.46 0.283 0.004 1 
0.46 0.292 0.004 1 
0.46 0.302 0.004 1 
0.459 0.314 0.004 1 
0.459 0.324 0.003 1 
0.393 0.014 -0.015 1 
0.461 0.333 0.003 1 
0.474 -0.045 -0.021 1 
0.393 0.043 -0.015 1 
0.456 0.131 -0.005 1 
0.465 -0.29 -0.005 1 
0.457 0.113 -0.005 1 
0.462 -0.196 -0.006 1 
0.455 0.073 -0.006 1 
0.456 0.052 -0.006 1 
0.458 -0.007 -0.007 1 
0.461 -0.03 -0.005 1 
0.463 -0.046 -0.005 1 
0.458 -0.067 -0.006 1 
0.414 0.204 -0.011 1 
0.378 -0.145 -0.017 1 
0.461 -0.086 -0.005 1 
0.461 -0.107 -0.005 1 
0.461 -0.126 -0.005 1 
0.462 -0.146 -0.005 1 
0.372 -0.029 -0.017 1 
0.38 0.185 -0.014 1 
0.461 -0.167 -0.005 1 
0.462 -0.187 -0.006 1 
0.464 -0.226 -0.007 1 
0.453 -0.31 -0.009 1 
0.461 -0.247 -0.006 1 
0.443 0.25 -0.007 1 
0.464 -0.286 -0.005 1 
0.461 -0.325 -0.008 1 
0.397 0.172 -0.015 1 
0.371 0.114 -0.015 1 
0.402 -0.086 -0.016 1 
0.441 -0.276 -0.011 1 
0.412 0.114 -0.013 1 
0.374 0.174 -0.016 1 
0.413 0.123 -0.013 1 
0.373 0.238 -0.017 1 
0.39 0.173 -0.015 1 
0.431 0.103 -0.011 1 
0.437 -0.272 -0.015 1 
0.444 0.093 -0.009 1 
0.444 0.103 -0.009 1 
0.451 0.142 -0.006 1 
0.47 -0.245 0.002 1 
0.462 -0.135 -0.002 1 
0.452 0.124 -0.006 1 
0.441 0.013 -0.01 1 
0.467 -0.295 -0.006 1 
0.444 -0.258 -0.011 1 
0.454 0.325 -0.001 1 
0.462 -0.038 -0.042 1 
0.45 0.185 -0.004 1 
0.374 0.07 -0.015 1 
0.362 -0.066 -0.016 1 
0.44 0.152 -0.009 1 
0.353 0.163 -0.014 1 
0.414 -0.041 -0.014 1 
0.464 -0.169 0 1 
0.464 0.339 0.002 1 
0.461 -0.215 -0.006 1 
0.383 -0.036 -0.015 1 
0.449 0.31 -0.005 1 
0.46 0.144 0.004 1 
0.394 -0.204 -0.018 1 
0.413 0.062 -0.015 1 
0.409 0.094 -0.014 1 
0.456 0.209 -0.006 1 
0.369 -0.216 -0.023 1 
0.44 -0.045 -0.012 1 
0.432 0.292 -0.011 1 
0.434 0.01 -0.011 1 
0.424 -0.276 -0.02 1 
0.431 0.113 -0.011 1 
0.424 -0.043 -0.015 1 
0.454 0.224 -0.003 1 
0.384 0.089 -0.015 1 
0.432 0.202 -0.008 1 
0.353 -0.011 0.012 1 
0.461 -0.115 -0.005 1 
0.352 0.202 -0.016 1 
0.395 0.143 -0.015 1 
0.402 0.213 -0.015 1 
0.454 0.144 -0.004 1 
0.463 -0.205 -0.004 1 
0.461 -0.137 -0.005 1 
0.414 -0.247 -0.021 1 
0.388 0.124 -0.015 1 
0.463 0.003 0.002 1 
0.47 -0.236 0.002 1 
0.413 0.221 -0.014 1 
0.412 -0.231 -0.017 1 
0.423 -0.165 -0.014 1 
0.394 -0.096 -0.015 1 
0.432 -0.236 -0.015 1 
0.372 0.094 -0.015 1 
0.433 -0.268 -0.017 1 
0.393 0.203 -0.015 1 
0.463 -0.025 0.002 1 
0.394 0.023 -0.015 1 
0.453 -0.125 -0.008 1 
0.406 -0.057 -0.014 1 
0.469 -0.265 0.002 1 
0.461 0.133 0.004 1 
0.381 0.202 -0.015 1 
0.423 0.133 -0.012 1 
0.451 -0.265 -0.01 1 
0.424 0.292 -0.015 1 
0.417 -0.166 -0.015 1 
0.464 -0.249 -0.004 1 
0.394 0.254 -0.015 1 
0.458 -0.017 -0.007 1 
0.403 0.178 -0.014 1 
0.423 0.007 -0.01 1 
0.46 0.172 0.004 1 
0.408 0.252 -0.014 1 
0.392 0.006 -0.008 1 
0.465 -0.095 0.002 1 
0.471 -0.299 0.004 1 
0.391 -0.237 -0.025 1 
0.358 0.174 -0.015 1 
0.34 -0.013 0.015 1 
0.463 -0.272 -0.005 1 
0.398 0.054 -0.015 1 
0.409 0.044 -0.013 1 
0.398 0.073 -0.015 1 
0.443 -0.293 -0.015 1 
0.434 -0.299 -0.018 1 
0.423 0.262 -0.013 1 
0.421 0.144 -0.011 1 
0.362 0.084 -0.015 1 
0.408 0.263 -0.014 1 
0.401 0.113 -0.014 1 
0.449 -0.044 -0.012 1 
0.443 0.023 -0.011 1 
0.461 0.253 0.002 1 
0.391 -0.035 -0.016 1 
0.448 -0.286 -0.01 1 
0.399 0.044 -0.015 1 
0.394 -0.18 -0.017 1 
0.412 -0.175 -0.016 1 
0.41 -0.155 -0.015 1 
0.399 -0.062 -0.014 1 
0.404 0.075 -0.015 1 
0.434 0.015 -0.011 1 
0.464 -0.007 0.002 1 
0.399 -0.126 -0.015 1 
0.464 -0.125 0 1 
0.454 -0.076 -0.008 1 
0.405 0.054 -0.015 1 
0.389 -0.247 -0.025 1 
0.414 -0.122 -0.015 1 
0.364 -0.047 -0.014 1 
0.465 -0.106 0.002 1 
0.442 -0.308 -0.015 1 
0.419 -0.187 -0.016 1 
0.444 -0.011 -0.006 1 
0.44 -0.125 -0.01 1 
0.444 0.113 -0.009 1 
0.399 -0.272 -0.025 1 
0.403 0.174 -0.014 1 
0.453 -0.176 -0.009 1 
0.354 0.181 -0.015 1 
0.38 0.224 -0.016 1 
0.464 -0.276 -0.005 1 
0.461 0.011 -0.005 1 
0.417 0.273 -0.015 1 
0.358 0.05 -0.014 1 
0.393 -0.259 -0.024 1 
0.394 0.214 -0.015 1 
0.374 -0.155 -0.018 1 
0.464 -0.087 0.002 1 
0.451 0.272 -0.004 1 
0.371 0.089 -0.014 1 
0.403 0.083 -0.014 1 
0.431 -0.135 -0.013 1 
0.438 0.193 -0.007 1 
0.462 0.083 0.002 1 
0.414 -0.048 -0.015 1 
0.381 0.193 -0.015 1 
0.394 -0.094 -0.015 1 
0.404 0.043 -0.014 1 
0.438 -0.04 -0.026 1 
0.409 0.033 -0.013 1 
0.36 -0.116 -0.016 1 
0.426 -0.198 -0.015 1 
0.364 0.05 -0.015 1 
0.382 0.214 -0.016 1 
0.422 0.032 -0.013 1 
0.413 0.234 -0.014 1 
0.415 -0.116 -0.015 1 
0.402 0.204 -0.013 1 
0.461 -0.096 -0.005 1 
0.431 0.212 -0.008 1 
0.385 -0.096 -0.014 1 
0.44 0.222 -0.008 1 
0.474 -0.034 -0.015 1 
0.381 0.064 -0.015 1 
0.464 -0.197 -0.004 1 
0.456 0.034 -0.006 1 
0.39 -0.166 -0.018 1 
0.431 0.173 -0.01 1 
0.37 0.044 -0.015 1 
0.414 -0.28 -0.022 1 
0.452 -0.165 -0.009 1 
0.403 -0.207 -0.019 1 
0.383 0.094 -0.014 1 
0.371 0.192 -0.016 1 
0.449 -0.245 -0.009 1 
0.434 -0.165 -0.012 1 
0.453 0.023 -0.008 1 
0.46 -0.206 -0.006 1 
0.399 0.029 -0.015 1 
0.452 0.17 -0.005 1 
0.384 0.171 -0.015 1 
0.371 -0.067 -0.015 1 
0.454 0.099 -0.006 1 
0.422 0.213 -0.011 1 
0.453 0.013 -0.008 1 
0.444 0.233 -0.007 1 
0.44 -0.155 -0.011 1 
0.474 -0.04 -0.026 1 
0.388 0.185 -0.015 1 
0.439 0.183 -0.007 1 
0.403 -0.115 -0.016 1 
0.463 -0.236 -0.007 1 
0.404 -0.253 -0.023 1 
0.384 -0.136 -0.017 1 
0.464 -0.308 -0.006 1 
0.39 -0.136 -0.017 1 
0.372 0.204 -0.017 1 
0.362 0.214 -0.016 1 
0.37 -0.166 -0.017 1 
0.472 -0.037 -0.018 1 
0.383 -0.046 -0.015 1 
0.402 0.094 -0.014 1 
0.478 -0.325 0.162 3 
0.466 -0.107 0.152 3 
0.467 -0.115 0.153 3 
0.467 -0.126 0.153 3 
0.468 -0.135 0.154 3 
0.461 0.336 0.062 3 
0.467 -0.146 0.153 3 
0.468 -0.158 0.154 3 
0.462 0.283 0.132 3 
0.468 -0.166 0.154 3 
0.468 -0.175 0.154 3 
0.478 -0.318 0.162 3 
0.466 -0.096 0.152 3 
0.478 -0.335 0.162 3 
0.478 -0.346 0.163 3 
0.462 0.337 0.154 3 
0.462 0.333 0.154 3 
0.46 0.234 0.062 3 
0.464 0.312 0.154 3 
0.464 0.302 0.153 3 
0.462 0.154 0.133 3 
0.462 0.294 0.153 3 
0.474 -0.297 0.162 3 
0.463 0.172 0.152 3 
0.475 -0.301 0.163 3 
0.474 -0.352 0.055 3 
0.476 -0.309 0.164 3 
0.462 0.253 0.154 3 
0.462 0.244 0.154 3 
0.461 0.232 0.153 3 
0.461 0.223 0.153 3 
0.463 0.212 0.153 3 
0.461 0.274 0.062 3 
0.463 0.192 0.153 3 
0.463 0.184 0.153 3 
0.47 -0.245 0.094 3 
0.463 0.163 0.152 3 
0.464 0.153 0.152 3 
0.465 0.081 0.152 3 
0.466 -0.047 0.152 3 
0.466 -0.055 0.152 3 
0.459 0.331 0.062 3 
0.466 -0.066 0.152 3 
0.467 -0.077 0.152 3 
0.467 -0.085 0.152 3 
0.476 -0.305 0.134 3 
0.462 0.113 0.143 3 
0.475 -0.295 0.154 3 
0.46 0.222 0.144 3 
0.461 0.211 0.144 3 
0.462 0.194 0.144 3 
0.463 0.183 0.144 3 
0.462 0.174 0.144 3 
0.462 0.163 0.144 3 
0.462 0.154 0.144 3 
0.462 0.143 0.143 3 
0.462 0.132 0.143 3 
0.462 0.124 0.143 3 
0.474 -0.287 0.153 3 
0.462 0.102 0.143 3 
0.463 0.094 0.143 3 
0.464 0.084 0.143 3 
0.463 0.062 0.143 3 
0.463 0.054 0.143 3 
0.463 0.033 0.143 3 
0.463 0.022 0.143 3 
0.463 0.014 0.143 3 
0.465 -0.186 0.014 3 
0.463 0.003 0.143 3 
0.468 -0.085 0.164 3 
0.47 -0.225 0.153 3 
0.463 0.073 0.143 3 
0.462 -0.006 0.092 3 
0.463 0.273 0.152 3 
0.463 0.263 0.152 3 
0.461 0.153 0.033 3 
0.464 -0.025 0.148 3 
0.466 -0.195 0.014 3 
0.468 -0.186 0.152 3 
0.468 -0.195 0.152 3 
0.47 -0.207 0.153 3 
0.47 -0.216 0.153 3 
0.462 0.284 0.152 3 
0.458 0.242 0.014 3 
0.471 -0.235 0.154 3 
0.472 -0.248 0.154 3 
0.475 -0.291 0.157 3 
0.474 -0.359 0.159 3 
0.465 0.344 0.153 3 
0.464 -0.017 0.146 3 
0.472 -0.257 0.152 3 
0.472 -0.266 0.152 3 
0.473 -0.277 0.153 3 
0.461 0.203 0.063 3 
0.468 -0.155 0.162 3 
0.464 0.103 0.16 3 
0.465 0.001 0.16 3 
0.474 -0.357 0.12 3 
0.464 -0.006 0.159 3 
0.465 -0.106 0.02 3 
0.464 -0.017 0.159 3 
0.469 -0.127 0.162 3 
0.469 -0.136 0.162 3 
0.476 -0.355 0.163 3 
0.468 -0.146 0.162 3 
0.477 -0.358 0.133 3 
0.464 0.144 0.16 3 
0.469 -0.275 0.083 3 
0.468 -0.166 0.162 3 
0.468 -0.175 0.163 3 
0.469 -0.187 0.163 3 
0.466 -0.106 0.104 3 
0.469 -0.256 0.052 3 
0.47 -0.196 0.164 3 
0.471 -0.206 0.164 3 
0.466 -0.167 0.034 3 
0.47 -0.217 0.164 3 
0.474 -0.288 0.168 3 
0.478 -0.315 0.173 3 
0.467 -0.145 0.123 3 
0.467 -0.096 0.164 3 
0.467 -0.107 0.164 3 
0.46 0.283 0.024 3 
0.468 -0.116 0.164 3 
0.474 -0.278 0.17 3 
0.46 0.183 0.033 3 
0.476 -0.286 0.171 3 
0.475 -0.295 0.172 3 
0.477 -0.307 0.173 3 
0.463 0.341 0.143 3 
0.455 -0.301 0.163 3 
0.479 -0.326 0.174 3 
0.466 -0.167 0.023 3 
0.464 0.287 0.164 3 
0.464 0.283 0.164 3 
0.464 -0.025 0.14 3 
0.468 -0.205 0.113 3 
0.464 0.274 0.164 3 
0.462 0.263 0.163 3 
0.463 0.254 0.163 3 
0.462 0.242 0.162 3 
0.462 0.233 0.162 3 
0.463 0.043 0.154 3 
0.465 0.334 0.161 3 
0.458 0.331 0.124 3 
0.463 0.136 0.154 3 
0.463 0.133 0.154 3 
0.462 0.121 0.154 3 
0.463 0.114 0.154 3 
0.464 0.092 0.154 3 
0.464 0.079 0.154 3 
0.464 0.073 0.154 3 
0.463 0.062 0.154 3 
0.464 0.054 0.154 3 
0.474 -0.297 0.165 3 
0.464 0.022 0.154 3 
0.47 -0.245 0.033 3 
0.464 0.014 0.154 3 
0.464 0.003 0.154 3 
0.464 -0.006 0.154 3 
0.465 -0.014 0.154 3 
0.465 -0.017 0.154 3 
0.465 -0.025 0.154 3 
0.466 -0.036 0.154 3 
0.474 -0.287 0.162 3 
0.459 0.224 0.133 3 
0.464 0.087 0.157 3 
0.479 -0.337 0.172 3 
0.479 -0.347 0.172 3 
0.479 -0.355 0.173 3 
0.463 0.342 0.164 3 
0.462 0.334 0.163 3 
0.461 0.272 0.104 3 
0.464 0.322 0.163 3 
0.465 0.32 0.163 3 
0.464 0.312 0.163 3 
0.461 0.134 0.073 3 
0.464 0.302 0.162 3 
0.464 -0.116 0.023 3 
0.461 0.242 0.112 3 
0.464 0.019 0.157 3 
0.471 -0.226 0.162 3 
0.465 -0.136 0.093 3 
0.472 -0.236 0.163 3 
0.472 -0.245 0.163 3 
0.472 -0.257 0.163 3 
0.461 0.244 0.043 3 
0.473 -0.267 0.164 3 
0.473 -0.28 0.164 3 
0.462 0.204 0.114 3 
0.464 -0.06 0.127 3 
0.467 -0.177 0.132 3 
0.469 -0.186 0.132 3 
0.47 -0.198 0.133 3 
0.47 -0.207 0.133 3 
0.469 -0.215 0.133 3 
0.469 -0.227 0.133 3 
0.47 -0.236 0.134 3 
0.463 -0.007 0.052 3 
0.471 -0.246 0.134 3 
0.471 -0.256 0.134 3 
0.464 -0.13 0.023 3 
0.468 -0.157 0.132 3 
0.471 -0.265 0.132 3 
0.472 -0.275 0.132 3 
0.473 -0.285 0.133 3 
0.473 -0.307 0.072 3 
0.475 -0.297 0.133 3 
0.476 -0.315 0.134 3 
0.461 0.17 0.124 3 
0.461 0.164 0.124 3 
0.462 0.148 0.124 3 
0.46 0.183 0.052 3 
0.462 0.143 0.124 3 
0.466 -0.207 0.014 3 
0.465 -0.065 0.133 3 
0.466 -0.076 0.133 3 
0.466 -0.085 0.133 3 
0.465 -0.095 0.133 3 
0.466 -0.117 0.134 3 
0.466 -0.126 0.134 3 
0.462 -0.017 0.113 3 
0.466 -0.137 0.134 3 
0.468 -0.146 0.134 3 
0.467 -0.165 0.134 3 
0.475 -0.294 0.139 3 
0.462 0.132 0.124 3 
0.478 -0.348 0.142 3 
0.477 -0.358 0.142 3 
0.458 0.335 0.133 3 
0.474 -0.296 0.11 3 
0.459 0.332 0.133 3 
0.471 -0.286 0.092 3 
0.461 0.324 0.133 3 
0.461 0.314 0.133 3 
0.461 0.301 0.133 3 
0.461 0.292 0.132 3 
0.462 0.274 0.132 3 
0.462 0.193 0.122 3 
0.479 -0.349 0.133 3 
0.462 0.299 0.124 3 
0.463 0.294 0.124 3 
0.462 0.283 0.124 3 
0.462 0.274 0.124 3 
0.462 0.261 0.124 3 
0.461 0.243 0.123 3 
0.461 0.234 0.123 3 
0.464 -0.046 0.114 3 
0.46 0.224 0.123 3 
0.461 0.204 0.122 3 
0.478 -0.337 0.132 3 
0.462 0.182 0.122 3 
0.465 -0.063 0.122 3 
0.463 -0.017 0.052 3 
0.465 -0.076 0.122 3 
0.466 -0.085 0.122 3 
0.465 -0.095 0.122 3 
0.466 -0.106 0.123 3 
0.466 -0.115 0.123 3 
0.466 -0.126 0.123 3 
0.466 -0.137 0.123 3 
0.473 0.357 0.199 3 
0.462 0.014 0.124 3 
0.474 -0.352 0.043 3 
0.462 0.124 0.124 3 
0.462 0.113 0.124 3 
0.462 0.102 0.124 3 
0.461 0.094 0.124 3 
0.461 0.083 0.124 3 
0.462 0.064 0.124 3 
0.462 0.054 0.124 3 
0.461 0.043 0.124 3 
0.462 0.032 0.124 3 
0.462 0.024 0.124 3 
0.465 -0.055 0.133 3 
0.463 0.003 0.124 3 
0.463 -0.006 0.124 3 
0.462 -0.017 0.124 3 
0.463 -0.025 0.124 3 
0.464 -0.036 0.124 3 
0.464 -0.046 0.124 3 
0.464 -0.057 0.124 3 
0.464 -0.065 0.124 3 
0.475 -0.294 0.13 3 
0.477 -0.326 0.132 3 
0.469 -0.275 0.044 3 
0.468 -0.195 0.144 3 
0.462 0.274 0.144 3 
0.462 0.262 0.143 3 
0.462 0.253 0.143 3 
0.461 0.243 0.142 3 
0.46 0.233 0.142 3 
0.466 -0.126 0.142 3 
0.468 -0.146 0.143 3 
0.468 -0.155 0.143 3 
0.468 -0.166 0.143 3 
0.468 -0.177 0.143 3 
0.467 -0.185 0.143 3 
0.46 -0.007 0.013 3 
0.47 -0.207 0.144 3 
0.47 -0.216 0.144 3 
0.461 0.332 0.142 3 
0.463 0.324 0.143 3 
0.462 0.313 0.142 3 
0.464 -0.036 0.138 3 
0.47 -0.225 0.142 3 
0.471 -0.247 0.143 3 
0.471 -0.256 0.143 3 
0.472 -0.266 0.143 3 
0.473 -0.276 0.144 3 
0.476 -0.305 0.152 3 
0.464 -0.017 0.143 3 
0.465 -0.02 0.143 3 
0.465 -0.025 0.143 3 
0.466 -0.047 0.144 3 
0.466 -0.055 0.144 3 
0.465 -0.065 0.144 3 
0.466 -0.076 0.144 3 
0.466 -0.085 0.144 3 
0.466 -0.106 0.144 3 
0.466 -0.115 0.144 3 
0.475 -0.291 0.151 3 
0.469 0.347 0.142 3 
0.463 0.003 0.132 3 
0.476 -0.315 0.152 3 
0.478 -0.328 0.153 3 
0.479 -0.336 0.154 3 
0.478 -0.345 0.154 3 
0.478 -0.356 0.154 3 
0.476 -0.335 0.114 3 
0.473 0.352 0.149 3 
0.462 0.303 0.144 3 
0.462 0.293 0.144 3 
0.462 0.284 0.144 3 
0.462 0.043 0.132 3 
0.462 0.143 0.133 3 
0.462 0.132 0.132 3 
0.462 0.124 0.132 3 
0.462 0.113 0.132 3 
0.462 0.102 0.132 3 
0.464 -0.036 0.092 3 
0.462 0.094 0.132 3 
0.462 0.083 0.132 3 
0.463 0.073 0.132 3 
0.462 0.064 0.132 3 
0.462 0.054 0.132 3 
0.462 0.162 0.133 3 
0.46 0.243 0.062 3 
0.462 0.032 0.132 3 
0.461 0.014 0.132 3 
0.463 -0.006 0.132 3 
0.47 -0.297 0.012 3 
0.463 -0.017 0.132 3 
0.464 -0.025 0.132 3 
0.465 -0.03 0.133 3 
0.464 -0.036 0.132 3 
0.465 -0.039 0.133 3 
0.465 -0.047 0.133 3 
0.461 0.252 0.134 3 
0.469 -0.186 0.124 3 
0.461 0.019 0.134 3 
0.473 -0.286 0.141 3 
0.46 0.063 0.023 3 
0.476 -0.295 0.142 3 
0.461 0.203 0.092 3 
0.476 -0.305 0.143 3 
0.477 -0.316 0.143 3 
0.478 -0.327 0.144 3 
0.478 -0.338 0.144 3 
0.461 0.258 0.134 3 
0.464 -0.006 0.143 3 
0.46 0.242 0.134 3 
0.462 0.252 0.123 3 
0.46 0.233 0.134 3 
0.461 0.213 0.134 3 
0.471 -0.265 0.123 3 
0.461 0.202 0.133 3 
0.462 0.193 0.133 3 
0.468 -0.145 0.052 3 
0.462 0.182 0.133 3 
0.462 0.174 0.133 3 
0.476 -0.318 0.122 3 
0.468 0.063 0.183 3 
0.469 0.053 0.183 3 
0.475 -0.363 0.194 3 
0.468 0.044 0.183 3 
0.468 0.033 0.183 3 
0.469 0.023 0.183 3 
0.469 0.014 0.183 3 
0.46 0.302 0.082 3 
0.466 0.003 0.182 3 
0.463 0.043 0.052 3 
0.467 -0.006 0.182 3 
0.467 0.074 0.183 3 
0.468 -0.015 0.183 3 
0.469 -0.026 0.183 3 
0.468 -0.036 0.172 3 
0.469 -0.037 0.183 3 
0.47 -0.045 0.183 3 
0.465 -0.063 0.063 3 
0.469 -0.056 0.183 3 
0.47 -0.067 0.184 3 
0.471 -0.075 0.184 3 
0.463 0.303 0.113 3 
0.474 -0.352 0.102 3 
0.467 -0.137 0.142 3 
0.481 -0.337 0.2 3 
0.481 -0.348 0.201 3 
0.47 0.346 0.194 3 
0.468 0.34 0.192 3 
0.468 0.332 0.192 3 
0.467 -0.145 0.093 3 
0.464 0.25 0.186 3 
0.471 -0.237 0.142 3 
0.466 0.181 0.184 3 
0.466 0.172 0.184 3 
0.469 -0.167 0.174 3 
0.471 -0.086 0.184 3 
0.466 0.163 0.184 3 
0.466 0.152 0.184 3 
0.462 0.197 0.144 3 
0.467 0.144 0.184 3 
0.468 0.133 0.184 3 
0.467 0.124 0.183 3 
0.465 -0.106 0.133 3 
0.468 0.113 0.184 3 
0.468 0.102 0.183 3 
0.469 0.094 0.184 3 
0.468 0.083 0.183 3 
0.473 -0.255 0.172 3 
0.461 0.213 0.122 3 
0.465 0.203 0.182 3 
0.464 0.199 0.181 3 
0.465 0.194 0.182 3 
0.47 -0.125 0.182 3 
0.471 -0.137 0.183 3 
0.472 -0.146 0.183 3 
0.461 0.203 0.033 3 
0.472 -0.157 0.183 3 
0.472 -0.166 0.184 3 
0.472 -0.178 0.184 3 
0.465 0.209 0.182 3 
0.461 0.244 0.093 3 
0.474 -0.205 0.186 3 
0.473 -0.235 0.186 3 
0.481 -0.305 0.192 3 
0.481 -0.316 0.193 3 
0.481 -0.326 0.193 3 
0.481 -0.337 0.194 3 
0.48 -0.346 0.194 3 
0.462 0.113 0.113 3 
0.462 0.093 0.052 3 
0.481 -0.355 0.195 3 
0.48 -0.298 0.194 3 
0.47 -0.103 0.184 3 
0.462 0.043 0.143 3 
0.47 -0.108 0.184 3 
0.469 -0.116 0.184 3 
0.474 -0.147 0.187 3 
0.474 -0.185 0.188 3 
0.474 -0.199 0.188 3 
0.474 -0.224 0.189 3 
0.474 -0.227 0.189 3 
0.477 -0.275 0.192 3 
0.478 -0.286 0.193 3 
0.472 -0.207 0.173 3 
0.473 -0.347 0.032 3 
0.465 0.263 0.184 3 
0.464 0.253 0.183 3 
0.465 -0.071 0.122 3 
0.465 0.248 0.183 3 
0.465 0.242 0.183 3 
0.466 0.233 0.183 3 
0.464 -0.135 0.012 3 
0.465 0.224 0.183 3 
0.462 0.083 0.073 3 
0.464 0.211 0.182 3 
0.469 0.102 0.187 3 
0.466 0.172 0.187 3 
0.467 0.164 0.187 3 
0.467 0.153 0.187 3 
0.461 0.281 0.093 3 
0.468 0.144 0.187 3 
0.468 0.133 0.187 3 
0.462 0.064 0.113 3 
0.468 0.124 0.187 3 
0.468 0.074 0.186 3 
0.469 0.114 0.187 3 
0.465 0.282 0.173 3 
0.466 0.184 0.187 3 
0.464 0.076 0.16 3 
0.469 0.094 0.186 3 
0.468 0.083 0.186 3 
0.468 0.063 0.186 3 
0.469 0.053 0.186 3 
0.47 0.042 0.186 3 
0.47 0.034 0.186 3 
0.47 0.023 0.186 3 
0.47 0.014 0.186 3 
0.468 0.003 0.186 3 
0.468 -0.006 0.186 3 
0.467 0.294 0.192 3 
0.472 0.352 0.198 3 
0.464 0.153 0.166 3 
0.462 0.142 0.084 3 
0.47 0.343 0.196 3 
0.469 0.334 0.195 3 
0.462 0.024 0.102 3 
0.463 -0.025 0.063 3 
0.468 0.322 0.194 3 
0.468 0.312 0.193 3 
0.467 0.304 0.193 3 
0.462 0.182 0.114 3 
0.469 -0.015 0.186 3 
0.468 0.282 0.192 3 
0.469 0.273 0.192 3 
0.467 0.262 0.19 3 
0.466 0.252 0.19 3 
0.466 0.243 0.189 3 
0.467 0.234 0.189 3 
0.466 0.222 0.189 3 
0.465 -0.036 0.143 3 
0.465 0.212 0.188 3 
0.466 0.201 0.188 3 
0.467 0.193 0.188 3 
0.476 -0.265 0.194 3 
0.475 -0.185 0.191 3 
0.476 -0.198 0.192 3 
0.477 -0.208 0.193 3 
0.469 -0.125 0.173 3 
0.476 -0.216 0.193 3 
0.475 -0.227 0.193 3 
0.475 -0.237 0.193 3 
0.475 -0.246 0.193 3 
0.461 0.262 0.062 3 
0.477 -0.256 0.194 3 
0.465 -0.079 0.074 3 
0.475 -0.179 0.191 3 
0.477 -0.272 0.195 3 
0.477 -0.275 0.195 3 
0.46 0.322 0.054 3 
0.478 -0.286 0.196 3 
0.463 -0.075 0.023 3 
0.48 -0.295 0.197 3 
0.482 -0.307 0.199 3 
0.459 0.314 0.012 3 
0.483 -0.318 0.2 3 
0.469 -0.217 0.044 3 
0.482 -0.327 0.2 3 
0.474 -0.135 0.189 3 
0.471 -0.026 0.187 3 
0.469 -0.037 0.186 3 
0.468 -0.045 0.186 3 
0.47 -0.056 0.186 3 
0.471 -0.067 0.187 3 
0.471 -0.075 0.187 3 
0.471 -0.086 0.187 3 
0.471 -0.095 0.187 3 
0.471 -0.106 0.188 3 
0.47 -0.117 0.187 3 
0.471 -0.126 0.188 3 
0.464 0.331 0.184 3 
0.475 -0.144 0.19 3 
0.464 0.033 0.154 3 
0.462 0.094 0.103 3 
0.475 -0.316 0.102 3 
0.475 -0.147 0.19 3 
0.475 -0.156 0.19 3 
0.468 0.342 0.183 3 
0.474 -0.161 0.19 3 
0.474 -0.167 0.19 3 
0.474 -0.176 0.19 3 
0.465 0.345 0.173 3 
0.464 0.12 0.168 3 
0.468 -0.175 0.171 3 
0.47 -0.185 0.172 3 
0.472 -0.195 0.173 3 
0.471 -0.215 0.173 3 
0.472 -0.228 0.174 3 
0.474 -0.266 0.176 3 
0.464 -0.036 0.034 3 
0.48 -0.338 0.181 3 
0.481 -0.347 0.182 3 
0.479 -0.359 0.182 3 
0.464 0.271 0.172 3 
0.463 0.339 0.172 3 
0.465 0.334 0.173 3 
0.465 0.324 0.172 3 
0.465 0.314 0.172 3 
0.464 0.29 0.17 3 
0.463 0.283 0.17 3 
0.46 -0.025 0.013 3 
0.464 0.159 0.166 3 
0.464 0.131 0.166 3 
0.464 0.068 0.165 3 
0.472 -0.236 0.171 3 
0.479 -0.306 0.182 3 
0.469 -0.097 0.173 3 
0.464 -0.057 0.002 3 
0.468 -0.105 0.172 3 
0.46 0.244 0.104 3 
0.469 -0.116 0.173 3 
0.469 -0.136 0.173 3 
0.464 0.322 0.154 3 
0.469 -0.147 0.174 3 
0.469 -0.156 0.174 3 
0.474 -0.256 0.178 3 
0.478 -0.295 0.181 3 
0.462 0.043 0.034 3 
0.462 0.053 0.002 3 
0.48 -0.317 0.183 3 
0.469 -0.185 0.094 3 
0.481 -0.325 0.184 3 
0.464 0.32 0.175 3 
0.464 0.316 0.174 3 
0.464 0.31 0.174 3 
0.467 -0.176 0.033 3 
0.464 0.303 0.174 3 
0.465 0.301 0.174 3 
0.465 0.294 0.174 3 
0.465 0.014 0.162 3 
0.464 0.073 0.162 3 
0.468 -0.226 0.033 3 
0.464 0.062 0.162 3 
0.464 0.054 0.162 3 
0.464 0.044 0.162 3 
0.464 0.033 0.162 3 
0.466 -0.136 0.104 3 
0.47 -0.242 0.024 3 
0.465 0.03 0.162 3 
0.476 -0.33 0.084 3 
0.465 0.022 0.162 3 
0.465 0.082 0.163 3 
0.464 0.011 0.162 3 
0.461 0.203 0.084 3 
0.464 0.003 0.162 3 
0.465 -0.006 0.162 3 
0.466 -0.015 0.163 3 
0.466 -0.025 0.163 3 
0.466 -0.036 0.163 3 
0.468 -0.047 0.163 3 
0.468 -0.055 0.163 3 
0.466 -0.066 0.163 3 
0.463 0.293 0.113 3 
0.464 0.173 0.164 3 
0.473 -0.246 0.172 3 
0.474 -0.265 0.173 3 
0.475 -0.273 0.174 3 
0.462 0.104 0.084 3 
0.476 -0.277 0.174 3 
0.464 0.333 0.169 3 
0.462 0.221 0.164 3 
0.463 0.21 0.164 3 
0.463 0.204 0.164 3 
0.463 0.193 0.164 3 
0.463 0.184 0.164 3 
0.469 -0.086 0.172 3 
0.465 0.167 0.164 3 
0.464 0.164 0.163 3 
0.464 0.153 0.163 3 
0.465 0.151 0.164 3 
0.465 0.142 0.163 3 
0.464 0.133 0.163 3 
0.464 0.122 0.163 3 
0.464 0.114 0.163 3 
0.462 0.321 0.114 3 
0.465 0.103 0.163 3 
0.466 0.093 0.163 3 
0.465 0.142 0.174 3 
0.474 -0.202 0.183 3 
0.475 -0.206 0.183 3 
0.462 0.072 0.124 3 
0.474 -0.211 0.183 3 
0.473 -0.217 0.183 3 
0.473 -0.226 0.183 3 
0.474 -0.236 0.184 3 
0.475 -0.245 0.184 3 
0.474 -0.25 0.184 3 
0.475 -0.335 0.064 3 
0.467 0.349 0.184 3 
0.475 -0.197 0.183 3 
0.465 0.123 0.174 3 
0.467 -0.096 0.144 3 
0.465 0.112 0.174 3 
0.466 0.104 0.174 3 
0.467 0.088 0.174 3 
0.467 0.08 0.174 3 
0.466 0.074 0.174 3 
0.466 0.063 0.174 3 
0.462 0.203 0.153 3 
0.466 0.052 0.174 3 
0.466 0.044 0.174 3 
0.464 0.244 0.18 3 
0.465 0.328 0.184 3 
0.465 0.321 0.184 3 
0.466 0.312 0.184 3 
0.461 0.294 0.093 3 
0.466 0.302 0.183 3 
0.467 0.294 0.183 3 
0.467 0.281 0.183 3 
0.466 0.27 0.182 3 
0.469 -0.226 0.052 3 
0.463 0.261 0.18 3 
0.471 -0.286 0.064 3 
0.461 0.313 0.093 3 
0.464 0.229 0.179 3 
0.464 0.22 0.179 3 
0.463 0.103 0.154 3 
0.464 0.194 0.178 3 
0.46 0.312 0.062 3 
0.464 0.182 0.178 3 
0.46 0.234 0.033 3 
0.464 0.171 0.178 3 
0.464 0.159 0.178 3 
0.464 0.003 0.176 3 
0.474 -0.187 0.182 3 
0.464 0.182 0.173 3 
0.461 0.302 0.034 3 
0.463 0.252 0.174 3 
0.463 0.243 0.174 3 
0.462 0.233 0.173 3 
0.473 -0.316 0.052 3 
0.463 0.222 0.173 3 
0.463 0.213 0.173 3 
0.469 -0.235 0.122 3 
0.464 0.202 0.173 3 
0.461 0.283 0.043 3 
0.464 0.193 0.173 3 
0.463 0.258 0.174 3 
0.464 0.173 0.172 3 
0.47 -0.285 0.052 3 
0.465 0.171 0.173 3 
0.465 0.163 0.172 3 
0.466 0.154 0.172 3 
0.466 0.134 0.172 3 
0.464 0.011 0.17 3 
0.464 0.003 0.17 3 
0.468 -0.026 0.172 3 
0.46 0.103 0.013 3 
0.468 -0.077 0.172 3 
0.475 -0.239 0.181 3 
0.467 0.033 0.174 3 
0.465 0.049 0.163 3 
0.467 0.022 0.174 3 
0.465 0.014 0.173 3 
0.465 0.003 0.173 3 
0.466 -0.006 0.174 3 
0.467 -0.015 0.174 3 
0.468 -0.053 0.174 3 
0.468 -0.055 0.174 3 
0.467 -0.069 0.174 3 
0.458 0.213 0.014 3 
0.467 -0.077 0.163 3 
0.475 -0.257 0.182 3 
0.476 -0.268 0.182 3 
0.476 -0.277 0.183 3 
0.474 -0.327 0.046 3 
0.478 -0.285 0.184 3 
0.464 0.344 0.179 3 
0.464 0.307 0.177 3 
0.464 0.303 0.177 3 
0.464 0.284 0.176 3 
0.464 0.274 0.175 3 
0.46 0.264 0.043 3 
0.472 -0.296 0.052 3 
0.472 -0.305 0.052 3 
0.475 -0.328 0.052 3 
0.475 -0.335 0.052 3 
0.474 -0.348 0.052 3 
0.459 0.334 0.043 3 
0.459 0.321 0.043 3 
0.459 0.314 0.043 3 
0.459 0.304 0.043 3 
0.461 0.293 0.043 3 
0.461 0.274 0.043 3 
0.469 -0.275 0.052 3 
0.459 0.222 0.022 3 
0.46 0.252 0.043 3 
0.46 0.223 0.044 3 
0.46 0.214 0.044 3 
0.46 0.203 0.044 3 
0.46 0.194 0.044 3 
0.46 0.183 0.044 3 
0.459 0.174 0.044 3 
0.46 0.163 0.044 3 
0.461 0.153 0.044 3 
0.461 0.142 0.044 3 
0.465 -0.116 0.052 3 
0.462 0.014 0.052 3 
0.463 0.003 0.052 3 
0.463 -0.025 0.052 3 
0.464 -0.036 0.052 3 
0.463 -0.057 0.052 3 
0.464 -0.065 0.052 3 
0.464 -0.076 0.052 3 
0.464 -0.087 0.052 3 
0.464 -0.095 0.052 3 
0.465 -0.1 0.052 3 
0.465 -0.105 0.052 3 
0.461 0.134 0.044 3 
0.466 -0.125 0.052 3 
0.467 -0.136 0.052 3 
0.467 -0.156 0.052 3 
0.466 -0.167 0.052 3 
0.467 -0.176 0.052 3 
0.467 -0.187 0.052 3 
0.468 -0.196 0.052 3 
0.468 -0.217 0.052 3 
0.469 -0.235 0.052 3 
0.469 -0.247 0.052 3 
0.469 -0.268 0.052 3 
0.469 -0.247 0.044 3 
0.465 -0.116 0.044 3 
0.465 -0.125 0.044 3 
0.466 -0.136 0.044 3 
0.467 -0.145 0.044 3 
0.468 -0.156 0.044 3 
0.467 -0.176 0.044 3 
0.467 -0.187 0.044 3 
0.468 -0.196 0.044 3 
0.468 -0.205 0.044 3 
0.469 -0.226 0.044 3 
0.469 -0.235 0.044 3 
0.466 -0.106 0.044 3 
0.469 -0.256 0.044 3 
0.47 -0.285 0.013 3 
0.469 -0.265 0.044 3 
0.472 -0.286 0.044 3 
0.472 -0.296 0.044 3 
0.472 -0.305 0.044 3 
0.46 0.223 0.033 3 
0.472 -0.315 0.044 3 
0.474 -0.327 0.043 3 
0.475 -0.332 0.043 3 
0.476 -0.337 0.043 3 
0.463 0.014 0.044 3 
0.462 0.123 0.044 3 
0.461 0.112 0.044 3 
0.461 0.104 0.044 3 
0.463 0.093 0.044 3 
0.462 0.082 0.044 3 
0.462 0.074 0.044 3 
0.463 0.064 0.044 3 
0.463 0.053 0.044 3 
0.463 0.043 0.044 3 
0.463 0.032 0.044 3 
0.462 0.024 0.044 3 
0.463 0.024 0.052 3 
0.463 0.003 0.044 3 
0.463 -0.007 0.044 3 
0.463 -0.025 0.044 3 
0.464 -0.036 0.044 3 
0.464 -0.046 0.044 3 
0.464 -0.057 0.044 3 
0.464 -0.065 0.044 3 
0.464 -0.076 0.044 3 
0.464 -0.087 0.044 3 
0.465 -0.092 0.044 3 
0.466 -0.095 0.044 3 
0.464 -0.046 0.063 3 
0.462 0.053 0.063 3 
0.46 0.273 0.054 3 
0.463 0.043 0.063 3 
0.463 0.032 0.063 3 
0.476 -0.347 0.043 3 
0.463 0.024 0.063 3 
0.462 0.014 0.063 3 
0.463 0.003 0.063 3 
0.463 -0.006 0.063 3 
0.463 -0.017 0.063 3 
0.464 -0.036 0.063 3 
0.463 0.064 0.063 3 
0.464 -0.057 0.063 3 
0.464 -0.065 0.063 3 
0.465 -0.071 0.063 3 
0.461 0.164 0.033 3 
0.465 -0.076 0.063 3 
0.465 -0.087 0.063 3 
0.466 -0.095 0.063 3 
0.465 -0.106 0.063 3 
0.467 -0.117 0.063 3 
0.476 -0.347 0.052 3 
0.467 -0.125 0.063 3 
0.464 -0.057 0.034 3 
0.473 -0.347 0.073 3 
0.465 -0.071 0.066 3 
0.474 -0.355 0.067 3 
0.46 0.322 0.062 3 
0.46 0.302 0.062 3 
0.46 0.293 0.062 3 
0.46 0.283 0.062 3 
0.461 0.253 0.062 3 
0.461 0.223 0.063 3 
0.462 0.193 0.063 3 
0.462 0.184 0.063 3 
0.467 -0.136 0.063 3 
0.461 0.172 0.063 3 
0.46 -0.035 0.013 3 
0.461 0.164 0.063 3 
0.461 0.142 0.063 3 
0.461 0.134 0.063 3 
0.462 0.123 0.063 3 
0.462 0.112 0.063 3 
0.461 0.104 0.063 3 
0.462 0.093 0.063 3 
0.462 0.083 0.063 3 
0.462 0.074 0.063 3 
0.464 -0.087 0.055 3 
0.458 0.303 0.054 3 
0.46 0.293 0.054 3 
0.461 0.283 0.054 3 
0.46 0.264 0.054 3 
0.461 0.253 0.054 3 
0.46 0.243 0.054 3 
0.46 0.234 0.054 3 
0.46 0.223 0.054 3 
0.461 0.212 0.054 3 
0.461 0.203 0.054 3 
0.461 0.192 0.054 3 
0.461 0.153 0.052 3 
0.464 -0.095 0.055 3 
0.46 0.174 0.052 3 
0.461 0.164 0.052 3 
0.461 0.142 0.052 3 
0.462 0.134 0.052 3 
0.462 0.123 0.052 3 
0.462 0.112 0.052 3 
0.462 0.082 0.052 3 
0.462 0.074 0.052 3 
0.463 0.053 0.052 3 
0.463 0.032 0.052 3 
0.469 -0.265 0.064 3 
0.468 -0.145 0.063 3 
0.467 -0.156 0.063 3 
0.467 -0.167 0.063 3 
0.468 -0.185 0.063 3 
0.469 -0.197 0.063 3 
0.468 -0.205 0.063 3 
0.468 -0.217 0.063 3 
0.469 -0.226 0.064 3 
0.47 -0.236 0.064 3 
0.47 -0.245 0.064 3 
0.469 -0.256 0.064 3 
0.465 -0.076 0.042 3 
0.469 -0.275 0.064 3 
0.474 -0.307 0.064 3 
0.474 -0.317 0.064 3 
0.475 -0.328 0.064 3 
0.476 -0.347 0.064 3 
0.467 -0.167 0.044 3 
0.474 -0.355 0.064 3 
0.464 -0.076 0.06 3 
0.474 -0.331 0.061 3 
0.475 -0.357 0.061 3 
0.459 0.294 0.012 3 
0.467 -0.216 0.022 3 
0.468 -0.226 0.022 3 
0.475 -0.332 0.02 3 
0.465 -0.103 0.02 3 
0.459 0.335 0.014 3 
0.473 -0.334 0.014 3 
0.474 -0.338 0.014 3 
0.474 -0.345 0.014 3 
0.458 0.329 0.012 3 
0.459 0.323 0.012 3 
0.459 0.304 0.012 3 
0.468 -0.205 0.022 3 
0.459 0.282 0.013 3 
0.459 0.263 0.013 3 
0.459 0.254 0.013 3 
0.458 0.233 0.014 3 
0.458 0.224 0.014 3 
0.458 0.201 0.014 3 
0.459 0.194 0.014 3 
0.458 0.182 0.014 3 
0.459 0.174 0.014 3 
0.464 -0.18 0.015 3 
0.464 -0.146 0.01 3 
0.463 -0.057 0.023 3 
0.461 0.082 0.023 3 
0.46 0.074 0.023 3 
0.461 0.053 0.023 3 
0.462 0.043 0.023 3 
0.461 0.032 0.023 3 
0.461 0.024 0.023 3 
0.462 0.003 0.023 3 
0.462 -0.007 0.023 3 
0.462 -0.025 0.023 3 
0.463 -0.036 0.023 3 
0.463 -0.046 0.023 3 
0.466 -0.215 0.014 3 
0.463 -0.065 0.023 3 
0.464 -0.086 0.023 3 
0.464 -0.097 0.023 3 
0.465 -0.119 0.023 3 
0.465 -0.127 0.023 3 
0.465 -0.136 0.023 3 
0.466 -0.147 0.023 3 
0.466 -0.156 0.023 3 
0.466 -0.175 0.023 3 
0.466 -0.187 0.023 3 
0.467 -0.196 0.022 3 
0.464 -0.177 0.012 3 
0.463 -0.086 0.013 3 
0.463 -0.097 0.013 3 
0.464 -0.105 0.012 3 
0.464 -0.116 0.012 3 
0.464 -0.127 0.012 3 
0.465 -0.144 0.012 3 
0.465 -0.147 0.012 3 
0.465 -0.155 0.012 3 
0.465 -0.166 0.012 3 
0.464 -0.171 0.012 3 
0.465 -0.175 0.012 3 
0.462 -0.075 0.013 3 
0.465 -0.117 0.007 3 
0.465 -0.125 0.007 3 
0.465 -0.136 0.004 3 
0.462 0.072 0.002 3 
0.462 0.064 0.002 3 
0.463 0.043 0.002 3 
0.463 0.024 0.002 3 
0.463 -0.036 0.002 3 
0.464 -0.046 0.002 3 
0.463 -0.065 0.002 3 
0.464 -0.076 0.002 3 
0.46 0.093 0.013 3 
0.468 -0.226 0.014 3 
0.468 -0.235 0.014 3 
0.468 -0.247 0.013 3 
0.468 -0.255 0.013 3 
0.469 -0.265 0.013 3 
0.47 -0.275 0.013 3 
0.471 -0.305 0.012 3 
0.471 -0.315 0.012 3 
0.459 0.152 0.012 3 
0.46 0.133 0.012 3 
0.46 0.114 0.012 3 
0.461 0.093 0.023 3 
0.46 0.082 0.013 3 
0.459 0.074 0.013 3 
0.459 0.063 0.013 3 
0.459 0.053 0.013 3 
0.46 0.042 0.013 3 
0.46 0.034 0.013 3 
0.46 0.024 0.013 3 
0.46 0.013 0.013 3 
0.46 0.003 0.013 3 
0.461 -0.046 0.013 3 
0.462 -0.065 0.013 3 
0.466 -0.082 0.034 3 
0.462 0.064 0.034 3 
0.462 0.053 0.034 3 
0.462 0.032 0.034 3 
0.462 0.024 0.034 3 
0.462 0.014 0.034 3 
0.463 0.003 0.034 3 
0.463 -0.007 0.034 3 
0.462 -0.017 0.034 3 
0.463 -0.025 0.034 3 
0.464 -0.065 0.034 3 
0.464 -0.076 0.034 3 
0.462 0.074 0.034 3 
0.465 -0.087 0.034 3 
0.465 -0.095 0.034 3 
0.465 -0.106 0.034 3 
0.465 -0.125 0.004 3 
0.465 -0.116 0.034 3 
0.46 0.122 0.012 3 
0.465 -0.125 0.034 3 
0.466 -0.136 0.034 3 
0.467 -0.145 0.034 3 
0.467 -0.156 0.033 3 
0.467 -0.187 0.033 3 
0.46 0.252 0.032 3 
0.46 0.335 0.037 3 
0.46 0.335 0.034 3 
0.459 0.331 0.034 3 
0.46 0.322 0.034 3 
0.459 0.314 0.034 3 
0.476 -0.347 0.034 3 
0.472 -0.316 0.023 3 
0.461 0.293 0.032 3 
0.461 0.283 0.032 3 
0.461 0.274 0.032 3 
0.46 0.264 0.032 3 
0.468 -0.196 0.033 3 
0.46 0.243 0.032 3 
0.46 0.214 0.033 3 
0.46 0.191 0.033 3 
0.461 0.172 0.033 3 
0.461 0.142 0.033 3 
0.461 0.134 0.033 3 
0.46 0.122 0.033 3 
0.461 0.112 0.034 3 
0.462 0.104 0.034 3 
0.462 0.093 0.034 3 
0.462 0.082 0.034 3 
0.473 -0.348 0.023 3 
0.459 0.234 0.024 3 
0.469 -0.256 0.024 3 
0.47 -0.266 0.024 3 
0.471 -0.276 0.024 3 
0.471 -0.285 0.024 3 
0.471 -0.295 0.024 3 
0.472 -0.306 0.024 3 
0.473 -0.327 0.023 3 
0.475 -0.336 0.023 3 
0.474 -0.338 0.023 3 
0.475 -0.346 0.023 3 
0.459 0.242 0.024 3 
0.46 0.203 0.022 3 
0.46 0.183 0.022 3 
0.46 0.172 0.022 3 
0.46 0.163 0.022 3 
0.462 0.014 0.023 3 
0.46 0.152 0.023 3 
0.46 0.144 0.023 3 
0.46 0.133 0.023 3 
0.461 0.122 0.023 3 
0.461 0.114 0.023 3 
0.461 0.104 0.023 3 
0.474 -0.335 0.029 3 
0.468 -0.205 0.033 3 
0.468 -0.217 0.033 3 
0.469 -0.238 0.033 3 
0.47 -0.257 0.033 3 
0.47 -0.266 0.033 3 
0.471 -0.276 0.033 3 
0.471 -0.285 0.032 3 
0.471 -0.295 0.032 3 
0.473 -0.316 0.032 3 
0.474 -0.328 0.032 3 
0.475 -0.336 0.032 3 
0.475 -0.346 0.073 3 
0.464 -0.086 0.029 3 
0.464 -0.124 0.028 3 
0.459 0.334 0.023 3 
0.459 0.324 0.023 3 
0.46 0.314 0.023 3 
0.459 0.304 0.023 3 
0.46 0.292 0.024 3 
0.46 0.273 0.024 3 
0.46 0.264 0.024 3 
0.459 0.251 0.024 3 
0.465 -0.052 0.103 3 
0.461 0.053 0.102 3 
0.462 0.043 0.103 3 
0.468 -0.205 0.052 3 
0.462 0.032 0.102 3 
0.462 0.014 0.102 3 
0.462 0.003 0.102 3 
0.463 -0.006 0.103 3 
0.463 -0.017 0.103 3 
0.463 -0.025 0.103 3 
0.464 -0.036 0.103 3 
0.464 -0.046 0.103 3 
0.459 0.335 0.017 3 
0.465 -0.055 0.103 3 
0.465 -0.065 0.103 3 
0.464 -0.068 0.103 3 
0.465 -0.076 0.103 3 
0.465 -0.087 0.103 3 
0.46 0.234 0.043 3 
0.466 -0.095 0.104 3 
0.466 -0.117 0.104 3 
0.466 -0.125 0.104 3 
0.466 -0.145 0.104 3 
0.467 -0.156 0.104 3 
0.462 0.184 0.103 3 
0.461 0.282 0.104 3 
0.46 0.332 0.082 3 
0.461 0.263 0.104 3 
0.461 0.254 0.104 3 
0.46 0.322 0.082 3 
0.461 0.233 0.103 3 
0.459 0.273 0.013 3 
0.461 0.224 0.103 3 
0.462 0.213 0.103 3 
0.462 0.204 0.103 3 
0.461 0.192 0.103 3 
0.468 -0.165 0.104 3 
0.461 0.173 0.103 3 
0.461 0.164 0.103 3 
0.461 0.153 0.103 3 
0.462 0.143 0.103 3 
0.462 0.134 0.103 3 
0.462 0.123 0.103 3 
0.462 0.113 0.103 3 
0.462 0.104 0.103 3 
0.462 0.083 0.103 3 
0.462 0.072 0.103 3 
0.462 0.064 0.103 3 
0.461 0.224 0.092 3 
0.474 -0.356 0.099 3 
0.464 0.34 0.094 3 
0.461 0.333 0.094 3 
0.461 0.323 0.094 3 
0.46 -0.017 0.013 3 
0.46 0.303 0.093 3 
0.462 0.213 0.092 3 
0.461 0.272 0.093 3 
0.46 0.262 0.093 3 
0.46 0.253 0.093 3 
0.461 0.232 0.093 3 
0.476 -0.345 0.102 3 
0.461 0.192 0.092 3 
0.462 0.184 0.092 3 
0.462 0.173 0.092 3 
0.462 0.064 0.052 3 
0.461 0.161 0.092 3 
0.462 0.154 0.092 3 
0.462 0.143 0.092 3 
0.461 0.134 0.092 3 
0.462 0.123 0.092 3 
0.47 -0.257 0.083 3 
0.462 0.113 0.092 3 
0.469 -0.226 0.102 3 
0.464 0.34 0.103 3 
0.461 0.33 0.102 3 
0.461 0.32 0.102 3 
0.461 0.31 0.102 3 
0.462 0.302 0.102 3 
0.464 -0.078 0.1 3 
0.469 -0.177 0.102 3 
0.469 -0.185 0.102 3 
0.469 -0.197 0.102 3 
0.469 -0.206 0.102 3 
0.469 -0.217 0.102 3 
0.461 0.288 0.104 3 
0.469 -0.235 0.103 3 
0.469 -0.247 0.103 3 
0.469 -0.256 0.103 3 
0.469 -0.266 0.103 3 
0.471 -0.277 0.103 3 
0.472 -0.287 0.104 3 
0.473 -0.295 0.104 3 
0.474 -0.305 0.104 3 
0.464 -0.057 0.098 3 
0.475 -0.326 0.102 3 
0.476 -0.338 0.102 3 
0.461 0.053 0.113 3 
0.461 0.173 0.114 3 
0.461 0.164 0.114 3 
0.461 0.153 0.114 3 
0.461 0.142 0.113 3 
0.462 0.134 0.114 3 
0.462 0.124 0.114 3 
0.463 0.102 0.114 3 
0.462 0.094 0.113 3 
0.464 -0.111 0.028 3 
0.461 0.083 0.113 3 
0.462 0.072 0.113 3 
0.462 0.193 0.114 3 
0.462 0.043 0.113 3 
0.467 -0.176 0.063 3 
0.46 0.214 0.022 3 
0.462 0.032 0.113 3 
0.462 0.024 0.113 3 
0.472 -0.297 0.064 3 
0.46 -0.056 0.013 3 
0.463 0.014 0.113 3 
0.46 0.261 0.073 3 
0.463 0.003 0.113 3 
0.46 0.164 0.014 3 
0.473 -0.285 0.124 3 
0.467 -0.165 0.123 3 
0.469 -0.177 0.124 3 
0.47 -0.195 0.124 3 
0.469 -0.206 0.124 3 
0.461 0.324 0.122 3 
0.462 0.312 0.122 3 
0.469 -0.215 0.122 3 
0.468 -0.226 0.122 3 
0.471 -0.246 0.123 3 
0.471 -0.255 0.123 3 
0.472 -0.275 0.124 3 
0.463 -0.006 0.113 3 
0.475 -0.294 0.122 3 
0.475 -0.297 0.122 3 
0.476 -0.308 0.122 3 
0.476 -0.325 0.123 3 
0.476 -0.335 0.123 3 
0.478 -0.348 0.124 3 
0.475 -0.355 0.123 3 
0.46 0.336 0.116 3 
0.461 0.225 0.114 3 
0.461 0.221 0.114 3 
0.462 0.213 0.114 3 
0.474 -0.354 0.117 3 
0.466 -0.145 0.112 3 
0.467 -0.157 0.112 3 
0.468 -0.165 0.113 3 
0.469 -0.177 0.113 3 
0.469 -0.197 0.113 3 
0.469 -0.215 0.113 3 
0.47 -0.227 0.114 3 
0.47 -0.236 0.114 3 
0.47 -0.248 0.114 3 
0.464 -0.046 0.052 3 
0.47 -0.257 0.114 3 
0.469 -0.186 0.113 3 
0.47 -0.267 0.112 3 
0.471 -0.277 0.112 3 
0.473 -0.288 0.113 3 
0.475 -0.297 0.113 3 
0.475 -0.306 0.113 3 
0.476 -0.318 0.114 3 
0.476 -0.328 0.114 3 
0.47 -0.245 0.083 3 
0.476 -0.345 0.114 3 
0.47 -0.245 0.024 3 
0.474 -0.35 0.114 3 
0.461 0.334 0.114 3 
0.463 -0.025 0.113 3 
0.463 -0.036 0.113 3 
0.465 -0.049 0.114 3 
0.464 -0.057 0.114 3 
0.464 -0.065 0.114 3 
0.465 -0.073 0.114 3 
0.465 -0.076 0.114 3 
0.466 -0.087 0.114 3 
0.465 -0.095 0.114 3 
0.466 -0.106 0.114 3 
0.461 0.337 0.114 3 
0.462 0.104 0.092 3 
0.462 0.312 0.113 3 
0.462 0.283 0.113 3 
0.462 0.273 0.113 3 
0.461 0.263 0.112 3 
0.461 0.254 0.112 3 
0.465 -0.055 0.111 3 
0.464 -0.076 0.111 3 
0.466 -0.117 0.112 3 
0.466 -0.125 0.112 3 
0.466 -0.137 0.112 3 
0.46 0.252 0.073 3 
0.475 -0.335 0.084 3 
0.473 -0.351 0.084 3 
0.475 -0.346 0.082 3 
0.461 0.336 0.074 3 
0.459 0.331 0.074 3 
0.46 0.322 0.074 3 
0.461 0.313 0.074 3 
0.461 0.303 0.074 3 
0.461 0.294 0.074 3 
0.46 0.283 0.074 3 
0.46 0.274 0.074 3 
0.473 -0.317 0.084 3 
0.461 0.244 0.073 3 
0.462 0.233 0.073 3 
0.461 0.223 0.073 3 
0.46 0.214 0.073 3 
0.461 0.203 0.073 3 
0.461 0.192 0.073 3 
0.461 0.184 0.073 3 
0.461 0.172 0.073 3 
0.461 0.164 0.073 3 
0.462 0.153 0.073 3 
0.462 0.142 0.073 3 
0.468 -0.176 0.083 3 
0.466 -0.106 0.082 3 
0.461 -0.017 0.023 3 
0.464 -0.116 0.082 3 
0.465 -0.119 0.082 3 
0.465 -0.125 0.082 3 
0.462 0.153 0.063 3 
0.467 -0.136 0.082 3 
0.467 -0.145 0.082 3 
0.467 -0.156 0.082 3 
0.463 -0.017 0.044 3 
0.467 -0.167 0.082 3 
0.462 0.123 0.073 3 
0.468 -0.185 0.083 3 
0.468 -0.196 0.083 3 
0.469 -0.206 0.083 3 
0.468 -0.217 0.083 3 
0.469 -0.226 0.083 3 
0.47 -0.236 0.083 3 
0.468 -0.265 0.083 3 
0.459 0.144 0.012 3 
0.471 -0.286 0.084 3 
0.473 -0.298 0.084 3 
0.473 -0.307 0.084 3 
0.468 -0.225 0.072 3 
0.466 -0.125 0.074 3 
0.467 -0.136 0.074 3 
0.467 -0.145 0.074 3 
0.467 -0.156 0.074 3 
0.467 -0.167 0.074 3 
0.467 -0.176 0.074 3 
0.468 -0.185 0.074 3 
0.469 -0.197 0.074 3 
0.468 -0.208 0.074 3 
0.465 -0.057 0.071 3 
0.468 -0.217 0.072 3 
0.465 -0.117 0.074 3 
0.469 -0.235 0.072 3 
0.47 -0.245 0.072 3 
0.464 -0.105 0.023 3 
0.471 -0.255 0.072 3 
0.469 -0.265 0.072 3 
0.47 -0.276 0.072 3 
0.471 -0.286 0.072 3 
0.472 -0.297 0.072 3 
0.474 -0.317 0.073 3 
0.473 -0.326 0.073 3 
0.475 -0.335 0.073 3 
0.463 0.014 0.073 3 
0.462 0.112 0.073 3 
0.461 0.104 0.073 3 
0.462 0.094 0.073 3 
0.462 0.072 0.073 3 
0.463 0.064 0.073 3 
0.463 -0.017 0.074 3 
0.463 0.053 0.073 3 
0.463 0.043 0.073 3 
0.463 0.032 0.073 3 
0.463 0.024 0.073 3 
0.464 -0.057 0.074 3 
0.466 -0.095 0.082 3 
0.463 0.003 0.074 3 
0.472 -0.306 0.032 3 
0.463 -0.006 0.074 3 
0.463 -0.025 0.074 3 
0.463 -0.036 0.074 3 
0.464 -0.046 0.074 3 
0.465 -0.052 0.074 3 
0.464 -0.076 0.074 3 
0.466 -0.087 0.074 3 
0.466 -0.095 0.074 3 
0.466 -0.106 0.074 3 
0.474 -0.315 0.096 3 
0.46 0.191 0.022 3 
0.467 -0.156 0.093 3 
0.467 -0.167 0.093 3 
0.468 -0.176 0.093 3 
0.469 -0.197 0.094 3 
0.469 -0.206 0.094 3 
0.47 -0.215 0.094 3 
0.469 -0.226 0.094 3 
0.47 -0.236 0.094 3 
0.469 -0.256 0.094 3 
0.459 0.314 0.054 3 
0.465 -0.125 0.093 3 
0.464 -0.065 0.074 3 
0.469 -0.265 0.092 3 
0.47 -0.276 0.092 3 
0.473 -0.298 0.093 3 
0.473 -0.307 0.093 3 
0.474 -0.318 0.093 3 
0.475 -0.323 0.093 3 
0.475 -0.326 0.093 3 
0.475 -0.337 0.093 3 
0.477 -0.345 0.094 3 
0.474 -0.356 0.093 3 
0.464 -0.017 0.092 3 
0.461 0.093 0.092 3 
0.461 0.083 0.092 3 
0.462 0.072 0.092 3 
0.462 0.064 0.092 3 
0.462 0.054 0.092 3 
0.463 0.043 0.092 3 
0.463 0.032 0.092 3 
0.461 0.104 0.052 3 
0.462 0.024 0.092 3 
0.463 0.014 0.092 3 
0.462 0.003 0.092 3 
0.465 -0.073 0.087 3 
0.464 -0.025 0.092 3 
0.464 -0.046 0.092 3 
0.464 -0.057 0.092 3 
0.464 -0.065 0.092 3 
0.464 -0.076 0.092 3 
0.464 -0.046 0.034 3 
0.465 -0.081 0.093 3 
0.465 -0.087 0.093 3 
0.466 -0.095 0.093 3 
0.465 -0.106 0.093 3 
0.465 -0.117 0.093 3 
0.464 -0.065 0.084 3 
0.462 0.024 0.084 3 
0.462 0.014 0.084 3 
0.463 0.003 0.084 3 
0.463 -0.006 0.084 3 
0.463 -0.017 0.084 3 
0.464 -0.025 0.084 3 
0.463 0.032 0.002 3 
0.463 -0.036 0.084 3 
0.463 -0.046 0.084 3 
0.461 0.212 0.063 3 
0.464 -0.057 0.084 3 
0.462 0.032 0.084 3 
0.474 -0.325 0.087 3 
0.46 0.335 0.082 3 
0.461 0.313 0.082 3 
0.46 0.293 0.082 3 
0.461 0.284 0.082 3 
0.474 -0.325 0.084 3 
0.46 0.274 0.082 3 
0.465 -0.073 0.082 3 
0.464 -0.076 0.082 3 
0.465 -0.079 0.082 3 
0.466 -0.087 0.082 3 
0.461 0.164 0.084 3 
0.474 -0.352 0.09 3 
0.459 0.264 0.084 3 
0.46 0.252 0.084 3 
0.461 0.244 0.084 3 
0.46 0.234 0.084 3 
0.46 0.223 0.084 3 
0.46 0.214 0.084 3 
0.462 0.193 0.084 3 
0.462 0.184 0.084 3 
0.461 0.172 0.084 3 
0.459 0.334 0.054 3 
0.467 -0.157 0.123 3 
0.462 0.153 0.084 3 
0.462 0.134 0.084 3 
0.462 0.123 0.084 3 
0.462 0.112 0.084 3 
0.462 0.094 0.084 3 
0.462 0.083 0.084 3 
0.462 0.072 0.084 3 
0.462 0.064 0.084 3 
0.463 0.053 0.084 3 
0.463 0.043 0.084 3 
0.306 -0.005 0.02 7 
0.299 0.002 0.02 7 
0.299 -0.005 0.02 7 
0.299 -0.015 0.02 7 
0.31 0.002 0.019 7 
0.311 -0.015 0.018 7 
