# .PCD v0.7 - Point Cloud Data file
FIELDS x y z intensity
SIZE 4 4 4 4
TYPE F F F F
COUNT 1 1 1 1
WIDTH 2437
HEIGHT 1
VIEWPOINT 0 0 0 1 0 0 0
POINTS 2437
DATA ascii
0.538 -0.068 0.078 0 
0.505 -0.008 0.049 0 
0.501 -0.046 0.154 0 
0.542 -0.062 0.081 0 
0.516 -0.099 0.07 0 
0.513 -0.101 0.07 0 
0.497 0.001 0.046 0 
0.528 -0.069 0.074 0 
0.426 0.045 0.139 0 
0.423 0.042 0.111 0 
0.519 -0.093 0.067 0 
0.34 0.017 0.004 0 
0.34 0.012 0.004 0 
0.341 0.003 0.004 0 
0.373 -0.235 -0.025 1 
0.373 -0.225 -0.024 1 
0.376 -0.214 -0.025 1 
0.364 -0.155 -0.018 1 
0.362 -0.146 -0.017 1 
0.36 -0.125 -0.016 1 
0.357 -0.107 -0.014 1 
0.354 -0.055 -0.012 1 
0.352 -0.046 -0.012 1 
0.354 -0.036 -0.012 1 
0.351 -0.026 -0.011 1 
0.333 0.004 -0.005 1 
0.332 0.007 -0.004 1 
0.333 0.012 -0.005 1 
0.351 0.043 -0.012 1 
0.353 0.064 -0.013 1 
0.354 0.084 -0.014 1 
0.354 0.085 -0.014 1 
0.351 0.103 -0.013 1 
0.35 0.124 -0.013 1 
0.352 0.136 -0.014 1 
0.354 0.143 -0.015 1 
0.352 0.153 -0.015 1 
0.352 0.155 -0.015 1 
0.383 -0.246 -0.027 1 
0.377 -0.237 -0.024 1 
0.379 -0.227 -0.025 1 
0.364 -0.105 -0.015 1 
0.363 -0.094 -0.015 1 
0.361 -0.085 -0.014 1 
0.363 -0.075 -0.014 1 
0.362 -0.066 -0.014 1 
0.352 -0.016 -0.01 1 
0.337 0.014 -0.005 1 
0.354 0.11 -0.012 1 
0.354 0.134 -0.013 1 
0.353 0.166 -0.014 1 
0.353 0.174 -0.015 1 
0.352 0.181 -0.015 1 
0.353 0.214 -0.017 1 
0.352 0.215 -0.017 1 
0.381 -0.226 -0.023 1 
0.374 -0.195 -0.02 1 
0.373 -0.187 -0.019 1 
0.373 -0.175 -0.018 1 
0.374 -0.146 -0.018 1 
0.373 -0.136 -0.017 1 
0.374 -0.132 -0.017 1 
0.368 -0.096 -0.015 1 
0.368 -0.083 -0.014 1 
0.372 -0.075 -0.016 1 
0.364 -0.056 -0.013 1 
0.364 -0.04 -0.012 1 
0.36 -0.025 -0.011 1 
0.352 -0.006 -0.008 1 
0.344 0.018 -0.006 1 
0.353 0.022 -0.009 1 
0.362 0.044 -0.012 1 
0.36 0.054 -0.012 1 
0.363 0.064 -0.013 1 
0.364 0.068 -0.013 1 
0.367 0.078 -0.015 1 
0.364 0.084 -0.014 1 
0.364 0.094 -0.014 1 
0.364 0.127 -0.015 1 
0.36 0.134 -0.013 1 
0.364 0.153 -0.015 1 
0.358 0.183 -0.015 1 
0.361 0.194 -0.017 1 
0.355 0.203 -0.015 1 
0.394 -0.266 -0.027 1 
0.392 -0.256 -0.026 1 
0.389 -0.245 -0.024 1 
0.374 -0.118 -0.015 1 
0.373 -0.089 -0.014 1 
0.374 -0.087 -0.015 1 
0.371 -0.065 -0.013 1 
0.368 -0.046 -0.012 1 
0.362 0.026 -0.01 1 
0.371 0.084 -0.014 1 
0.372 0.103 -0.015 1 
0.37 0.112 -0.014 1 
0.371 0.122 -0.015 1 
0.369 0.131 -0.015 1 
0.359 0.223 -0.016 1 
0.396 -0.255 -0.025 1 
0.384 -0.206 -0.019 1 
0.384 -0.204 -0.019 1 
0.383 -0.165 -0.017 1 
0.384 -0.155 -0.017 1 
0.384 -0.126 -0.017 1 
0.384 -0.116 -0.017 1 
0.379 -0.099 -0.015 1 
0.379 -0.091 -0.014 1 
0.383 -0.085 -0.016 1 
0.381 -0.076 -0.015 1 
0.376 -0.056 -0.013 1 
0.374 -0.038 -0.012 1 
0.372 -0.025 -0.012 1 
0.364 -0.015 -0.009 1 
0.372 0.043 -0.012 1 
0.376 0.115 -0.015 1 
0.374 0.124 -0.014 1 
0.374 0.142 -0.015 1 
0.372 0.144 -0.014 1 
0.371 0.15 -0.014 1 
0.374 0.156 -0.015 1 
0.371 0.184 -0.016 1 
0.364 0.228 -0.016 1 
0.373 0.054 -0.012 1 
0.4 -0.256 -0.024 1 
0.398 -0.246 -0.023 1 
0.394 -0.217 -0.02 1 
0.393 -0.208 -0.02 1 
0.389 -0.155 -0.017 1 
0.391 -0.115 -0.017 1 
0.384 -0.095 -0.014 1 
0.386 -0.072 -0.015 1 
0.384 -0.066 -0.014 1 
0.387 -0.056 -0.015 1 
0.382 -0.036 -0.013 1 
0.38 -0.026 -0.013 1 
0.37 -0.015 -0.009 1 
0.361 -0.003 -0.006 1 
0.345 0.018 -0.001 1 
0.382 0.074 -0.014 1 
0.383 0.084 -0.014 1 
0.383 0.103 -0.015 1 
0.382 0.114 -0.015 1 
0.38 0.142 -0.015 1 
0.379 0.143 -0.014 1 
0.379 0.164 -0.015 1 
0.372 0.223 -0.016 1 
0.369 0.234 -0.015 1 
0.404 -0.266 -0.023 1 
0.407 -0.256 -0.024 1 
0.394 -0.176 -0.017 1 
0.394 -0.127 -0.016 1 
0.374 -0.221 -0.025 1 
0.394 -0.106 -0.015 1 
0.394 -0.077 -0.015 1 
0.391 -0.066 -0.014 1 
0.391 -0.055 -0.014 1 
0.387 -0.046 -0.013 1 
0.379 -0.016 -0.01 1 
0.373 -0.005 -0.008 1 
0.367 -0.003 -0.006 1 
0.363 0.021 -0.005 1 
0.37 0.024 -0.007 1 
0.373 0.026 -0.008 1 
0.381 0.033 -0.011 1 
0.383 0.043 -0.012 1 
0.39 0.083 -0.015 1 
0.39 0.085 -0.015 1 
0.389 0.103 -0.015 1 
0.389 0.114 -0.015 1 
0.388 0.134 -0.015 1 
0.38 0.154 -0.013 1 
0.382 0.162 -0.014 1 
0.381 0.173 -0.014 1 
0.381 0.179 -0.014 1 
0.373 0.153 -0.015 1 
0.377 0.233 -0.016 1 
0.413 -0.288 -0.025 1 
0.413 -0.27 -0.024 1 
0.417 -0.263 -0.025 1 
0.409 -0.247 -0.022 1 
0.41 -0.237 -0.021 1 
0.384 -0.217 -0.021 1 
0.404 -0.227 -0.019 1 
0.404 -0.222 -0.019 1 
0.404 -0.165 -0.018 1 
0.4 -0.146 -0.016 1 
0.398 -0.136 -0.015 1 
0.402 -0.108 -0.016 1 
0.399 -0.104 -0.015 1 
0.395 -0.096 -0.014 1 
0.398 -0.089 -0.014 1 
0.399 -0.076 -0.015 1 
0.403 -0.073 -0.016 1 
0.394 -0.042 -0.013 1 
0.394 -0.026 -0.013 1 
0.389 -0.015 -0.011 1 
0.384 -0.005 -0.01 1 
0.392 0.063 -0.013 1 
0.394 0.074 -0.014 1 
0.394 0.076 -0.014 1 
0.392 0.092 -0.013 1 
0.394 0.103 -0.014 1 
0.394 0.108 -0.014 1 
0.394 0.123 -0.014 1 
0.393 0.133 -0.014 1 
0.394 0.144 -0.015 1 
0.393 0.146 -0.015 1 
0.388 0.153 -0.013 1 
0.386 0.174 -0.014 1 
0.388 0.203 -0.015 1 
0.384 0.24 -0.016 1 
0.422 -0.298 -0.025 1 
0.408 -0.228 -0.018 1 
0.403 -0.195 -0.016 1 
0.403 -0.185 -0.016 1 
0.404 -0.181 -0.016 1 
0.401 -0.045 -0.013 1 
0.401 -0.035 -0.013 1 
0.355 -0.001 0 1 
0.394 0.035 -0.011 1 
0.4 0.053 -0.013 1 
0.401 0.074 -0.014 1 
0.402 0.114 -0.015 1 
0.402 0.118 -0.015 1 
0.373 -0.106 -0.016 1 
0.4 0.124 -0.014 1 
0.394 0.164 -0.013 1 
0.398 0.172 -0.015 1 
0.401 0.184 -0.016 1 
0.39 0.193 -0.013 1 
0.391 0.201 -0.014 1 
0.392 0.205 -0.014 1 
0.392 0.224 -0.015 1 
0.389 0.243 -0.015 1 
0.422 -0.286 -0.022 1 
0.42 -0.255 -0.02 1 
0.417 -0.236 -0.019 1 
0.364 -0.006 -0.007 1 
0.411 -0.216 -0.017 1 
0.412 -0.207 -0.017 1 
0.411 -0.196 -0.016 1 
0.412 -0.185 -0.016 1 
0.413 -0.166 -0.016 1 
0.413 -0.147 -0.015 1 
0.41 -0.141 -0.014 1 
0.352 0.193 -0.015 1 
0.412 -0.135 -0.015 1 
0.389 -0.247 -0.025 1 
0.414 -0.115 -0.015 1 
0.413 -0.108 -0.015 1 
0.412 -0.105 -0.014 1 
0.413 -0.103 -0.015 1 
0.41 -0.087 -0.014 1 
0.412 -0.076 -0.014 1 
0.41 -0.045 -0.013 1 
0.404 -0.016 -0.012 1 
0.405 -0.003 -0.012 1 
0.404 0.034 -0.012 1 
0.392 0.024 -0.012 1 
0.404 0.144 -0.014 1 
0.404 0.153 -0.014 1 
0.402 0.163 -0.013 1 
0.403 0.19 -0.015 1 
0.396 0.194 -0.013 1 
0.404 0.223 -0.016 1 
0.416 0.247 -0.021 1 
0.397 0.231 -0.015 1 
0.393 0.26 -0.015 1 
0.424 -0.297 -0.021 1 
0.424 -0.273 -0.02 1 
0.423 -0.226 -0.018 1 
0.42 -0.216 -0.017 1 
0.42 -0.196 -0.016 1 
0.418 -0.155 -0.015 1 
0.42 -0.095 -0.014 1 
0.421 -0.088 -0.015 1 
0.413 -0.025 -0.012 1 
0.4 -0.003 -0.013 1 
0.414 -0.008 -0.012 1 
0.421 -0.003 -0.014 1 
0.414 0.054 -0.013 1 
0.414 0.063 -0.013 1 
0.412 0.073 -0.012 1 
0.412 0.082 -0.013 1 
0.414 0.094 -0.013 1 
0.41 0.133 -0.013 1 
0.41 0.154 -0.013 1 
0.403 0.212 -0.013 1 
0.402 -0.235 -0.024 1 
0.408 0.224 -0.015 1 
0.407 0.233 -0.015 1 
0.404 0.243 -0.015 1 
0.403 0.245 -0.015 1 
0.4 0.263 -0.015 1 
0.399 0.264 -0.014 1 
0.397 0.265 -0.014 1 
0.431 -0.305 -0.02 1 
0.433 -0.245 -0.018 1 
0.424 -0.178 -0.014 1 
0.425 -0.177 -0.015 1 
0.424 -0.166 -0.014 1 
0.424 -0.156 -0.014 1 
0.422 -0.145 -0.013 1 
0.423 -0.136 -0.013 1 
0.424 -0.125 -0.013 1 
0.423 -0.115 -0.013 1 
0.374 0.213 -0.016 1 
0.424 -0.106 -0.013 1 
0.423 -0.075 -0.013 1 
0.423 -0.066 -0.013 1 
0.423 -0.056 -0.013 1 
0.421 -0.047 -0.012 1 
0.38 -0.187 -0.019 1 
0.389 -0.146 -0.017 1 
0.401 0.104 -0.014 1 
0.422 -0.035 -0.012 1 
0.419 -0.026 -0.012 1 
0.419 0.064 -0.012 1 
0.419 0.094 -0.012 1 
0.414 0.143 -0.012 1 
0.412 0.163 -0.012 1 
0.364 0.163 -0.016 1 
0.412 0.173 -0.012 1 
0.414 0.194 -0.013 1 
0.413 0.213 -0.014 1 
0.414 0.237 -0.015 1 
0.412 0.24 -0.014 1 
0.412 0.246 -0.015 1 
0.412 0.262 -0.015 1 
0.408 0.272 -0.015 1 
0.409 0.276 -0.015 1 
0.379 0.123 -0.014 1 
0.406 0.275 -0.014 1 
0.434 -0.287 -0.017 1 
0.433 -0.277 -0.017 1 
0.434 -0.263 -0.017 1 
0.433 -0.226 -0.015 1 
0.434 -0.22 -0.016 1 
0.435 -0.215 -0.016 1 
0.436 -0.213 -0.016 1 
0.432 -0.192 -0.014 1 
0.433 -0.187 -0.015 1 
0.371 0.097 -0.014 1 
0.432 -0.176 -0.014 1 
0.43 -0.155 -0.013 1 
0.43 -0.145 -0.013 1 
0.43 -0.135 -0.013 1 
0.43 -0.125 -0.013 1 
0.43 -0.115 -0.013 1 
0.429 -0.105 -0.012 1 
0.432 -0.097 -0.013 1 
0.431 -0.087 -0.013 1 
0.429 -0.077 -0.012 1 
0.427 -0.045 -0.011 1 
0.424 0.074 -0.011 1 
0.422 0.104 -0.011 1 
0.424 0.124 -0.012 1 
0.42 0.153 -0.011 1 
0.419 0.162 -0.011 1 
0.416 0.173 -0.011 1 
0.417 0.194 -0.012 1 
0.414 0.253 -0.013 1 
0.416 0.283 -0.015 1 
0.442 -0.295 -0.017 1 
0.438 -0.276 -0.015 1 
0.437 -0.255 -0.015 1 
0.439 -0.242 -0.015 1 
0.442 -0.18 -0.014 1 
0.438 -0.136 -0.012 1 
0.459 -0.004 -0.017 1 
0.433 0.043 -0.011 1 
0.432 0.053 -0.011 1 
0.431 0.064 -0.011 1 
0.431 0.074 -0.011 1 
0.433 0.084 -0.011 1 
0.433 0.094 -0.011 1 
0.424 0.181 -0.011 1 
0.421 0.204 -0.011 1 
0.422 0.223 -0.012 1 
0.421 0.241 -0.012 1 
0.419 0.253 -0.012 1 
0.422 0.272 -0.013 1 
0.419 0.284 -0.013 1 
0.451 -0.318 -0.017 1 
0.447 -0.297 -0.016 1 
0.445 -0.286 -0.015 1 
0.38 0.131 -0.014 1 
0.446 -0.281 -0.015 1 
0.413 0.103 -0.013 1 
0.443 -0.235 -0.013 1 
0.444 -0.227 -0.013 1 
0.442 -0.215 -0.012 1 
0.443 -0.197 -0.012 1 
0.444 -0.187 -0.012 1 
0.441 -0.166 -0.011 1 
0.443 -0.155 -0.011 1 
0.444 -0.147 -0.012 1 
0.44 -0.115 -0.01 1 
0.441 -0.105 -0.01 1 
0.412 -0.096 -0.014 1 
0.441 -0.095 -0.01 1 
0.424 0.079 -0.011 1 
0.441 -0.085 -0.01 1 
0.443 -0.076 -0.011 1 
0.441 -0.065 -0.01 1 
0.441 -0.055 -0.01 1 
0.401 0.064 -0.013 1 
0.442 -0.036 -0.01 1 
0.42 0.053 -0.012 1 
0.442 -0.026 -0.01 1 
0.443 -0.009 -0.011 1 
0.468 -0.007 -0.017 1 
0.468 -0.004 -0.017 1 
0.342 -0.005 -0.008 1 
0.432 0.029 -0.008 1 
0.44 0.054 -0.01 1 
0.433 0.143 -0.01 1 
0.433 0.153 -0.01 1 
0.432 0.164 -0.01 1 
0.43 0.183 -0.01 1 
0.431 0.194 -0.01 1 
0.422 0.293 -0.012 1 
0.453 -0.326 -0.015 1 
0.455 -0.315 -0.015 1 
0.422 -0.205 -0.017 1 
0.453 -0.307 -0.015 1 
0.443 -0.266 -0.011 1 
0.443 -0.257 -0.011 1 
0.444 -0.247 -0.011 1 
0.449 -0.225 -0.011 1 
0.449 -0.196 -0.011 1 
0.45 -0.185 -0.011 1 
0.449 -0.155 -0.01 1 
0.45 -0.145 -0.01 1 
0.45 -0.135 -0.01 1 
0.449 -0.116 -0.01 1 
0.45 -0.106 -0.01 1 
0.452 -0.096 -0.01 1 
0.441 -0.206 -0.012 1 
0.45 -0.085 -0.01 1 
0.45 -0.009 -0.01 1 
0.441 0.035 -0.008 1 
0.443 0.072 -0.009 1 
0.442 0.082 -0.009 1 
0.444 0.103 -0.009 1 
0.441 0.122 -0.009 1 
0.44 0.134 -0.009 1 
0.427 0.209 -0.007 1 
0.434 0.231 -0.01 1 
0.433 0.252 -0.01 1 
0.433 0.263 -0.01 1 
0.433 0.272 -0.011 1 
0.432 0.283 -0.011 1 
0.428 0.293 -0.01 1 
0.422 0.133 -0.011 1 
0.453 -0.266 -0.011 1 
0.453 -0.255 -0.01 1 
0.453 -0.243 -0.01 1 
0.454 -0.216 -0.01 1 
0.454 -0.21 -0.01 1 
0.454 -0.066 -0.008 1 
0.454 -0.058 -0.008 1 
0.438 0.029 -0.005 1 
0.452 0.054 -0.008 1 
0.443 0.162 -0.008 1 
0.443 0.173 -0.008 1 
0.41 0.193 -0.015 1 
0.439 0.183 -0.007 1 
0.44 0.192 -0.008 1 
0.44 0.203 -0.008 1 
0.44 0.214 -0.008 1 
0.43 0.302 -0.009 1 
0.46 -0.255 -0.009 1 
0.462 -0.236 -0.009 1 
0.353 -0.001 0.016 1 
0.43 0.029 0 1 
0.453 0.034 -0.006 1 
0.439 0.144 -0.009 1 
0.454 0.036 -0.006 1 
0.456 0.044 -0.006 1 
0.455 0.06 -0.006 1 
0.454 0.062 -0.006 1 
0.453 0.072 -0.006 1 
0.452 0.082 -0.006 1 
0.453 0.093 -0.006 1 
0.452 0.114 -0.006 1 
0.451 0.134 -0.006 1 
0.451 0.153 -0.006 1 
0.441 0.283 -0.008 1 
0.464 -0.342 -0.01 1 
0.381 0.184 -0.015 1 
0.464 -0.318 -0.009 1 
0.464 -0.302 -0.008 1 
0.464 -0.217 -0.007 1 
0.464 -0.197 -0.006 1 
0.463 -0.177 -0.006 1 
0.464 -0.136 -0.006 1 
0.464 -0.116 -0.005 1 
0.463 -0.076 -0.005 1 
0.381 -0.236 -0.026 1 
0.462 -0.057 -0.005 1 
0.462 -0.041 -0.005 1 
0.471 -0.004 -0.007 1 
0.356 -0.001 0.017 1 
0.442 0.03 -0.001 1 
0.418 -0.148 -0.015 1 
0.457 0.113 -0.005 1 
0.457 0.124 -0.005 1 
0.454 0.149 -0.004 1 
0.455 0.152 -0.005 1 
0.453 0.163 -0.005 1 
0.451 0.18 -0.004 1 
0.451 0.191 -0.005 1 
0.452 0.203 -0.005 1 
0.451 0.214 -0.005 1 
0.45 0.224 -0.005 1 
0.45 0.233 -0.005 1 
0.45 0.244 -0.006 1 
0.448 0.254 -0.006 1 
0.448 0.272 -0.006 1 
0.446 0.291 -0.006 1 
0.444 0.292 -0.006 1 
0.445 0.296 -0.006 1 
0.44 0.313 -0.006 1 
0.473 -0.338 -0.008 1 
0.456 0.134 -0.005 1 
0.471 -0.286 -0.006 1 
0.469 -0.278 -0.006 1 
0.468 -0.265 -0.005 1 
0.468 -0.255 -0.005 1 
0.47 -0.245 -0.005 1 
0.471 -0.237 -0.005 1 
0.469 -0.227 -0.005 1 
0.468 -0.217 -0.005 1 
0.464 -0.076 -0.002 1 
0.451 -0.298 -0.014 1 
0.464 -0.065 -0.002 1 
0.453 0.232 -0.003 1 
0.453 0.244 -0.004 1 
0.453 0.253 -0.004 1 
0.451 0.263 -0.004 1 
0.453 0.28 -0.005 1 
0.452 0.282 -0.004 1 
0.444 0.314 -0.004 1 
0.473 -0.349 -0.006 1 
0.476 -0.345 -0.006 1 
0.477 -0.339 -0.006 1 
0.476 -0.334 -0.006 1 
0.429 0.134 -0.011 1 
0.443 0.264 -0.007 1 
0.474 -0.325 -0.005 1 
0.474 -0.315 -0.005 1 
0.454 -0.045 -0.008 1 
0.474 -0.312 -0.005 1 
0.473 -0.307 -0.004 1 
0.474 -0.286 -0.004 1 
0.464 -0.036 0 1 
0.449 -0.004 0.002 1 
0.389 -0.227 -0.021 1 
0.391 0.004 0.013 1 
0.385 -0.007 -0.01 1 
0.385 0.014 0.014 1 
0.45 0.314 -0.002 1 
0.474 -0.353 -0.003 1 
0.404 0.004 0.013 1 
0.404 -0.012 -0.012 1 
0.404 0.013 0.013 1 
0.395 0.239 -0.014 1 
0.405 0.017 0.013 1 
0.462 0.093 0.002 1 
0.454 0.299 0 1 
0.452 0.323 0 1 
0.453 0.327 0 1 
0.473 -0.218 0.002 1 
0.471 -0.205 0.002 1 
0.471 -0.196 0.002 1 
0.471 -0.187 0.003 1 
0.47 -0.175 0.003 1 
0.471 -0.167 0.003 1 
0.471 -0.156 0.003 1 
0.374 -0.208 -0.024 1 
0.423 0.112 -0.011 1 
0.469 -0.135 0.003 1 
0.467 -0.085 0.004 1 
0.467 -0.077 0.004 1 
0.414 -0.125 -0.015 1 
0.466 -0.007 0.004 1 
0.463 0.043 0.004 1 
0.444 0.317 -0.004 1 
0.461 0.104 0.004 1 
0.461 0.112 0.004 1 
0.462 0.123 0.004 1 
0.46 0.153 0.004 1 
0.461 0.173 0.003 1 
0.461 0.184 0.003 1 
0.46 0.194 0.003 1 
0.459 0.222 0.003 1 
0.46 0.244 0.002 1 
0.378 -0.177 -0.018 1 
0.459 0.264 0.002 1 
0.459 0.273 0.002 1 
0.419 -0.085 -0.014 1 
0.479 -0.327 0.002 1 
0.477 -0.305 0.003 1 
0.477 -0.295 0.003 1 
0.476 -0.287 0.003 1 
0.476 -0.284 0.003 1 
0.473 -0.275 0.004 1 
0.474 -0.266 0.004 1 
0.474 -0.257 0.004 1 
0.475 -0.246 0.004 1 
0.475 -0.243 0.004 1 
0.473 -0.23 0.004 1 
0.403 -0.155 -0.017 1 
0.46 0.283 0.004 1 
0.459 0.291 0.004 1 
0.458 0.303 0.004 1 
0.459 0.324 0.003 1 
0.461 0.333 0.003 1 
0.356 0.104 -0.013 1 
0.479 -0.344 0.004 1 
0.456 0.052 -0.006 1 
0.463 0.003 0.013 1 
0.462 -0.012 -0.007 1 
0.462 0.014 0.013 1 
0.461 0.024 0.013 1 
0.461 -0.025 -0.005 1 
0.461 0.032 0.013 1 
0.462 -0.046 -0.005 1 
0.462 -0.065 -0.005 1 
0.411 0.204 -0.013 1 
0.384 -0.147 -0.017 1 
0.462 -0.086 -0.005 1 
0.454 -0.174 -0.009 1 
0.463 -0.105 -0.005 1 
0.464 -0.125 -0.005 1 
0.463 -0.146 -0.005 1 
0.48 -0.349 0.004 1 
0.414 0.256 -0.013 1 
0.463 -0.165 -0.006 1 
0.463 -0.185 -0.006 1 
0.464 -0.229 -0.007 1 
0.459 -0.245 -0.009 1 
0.46 -0.285 -0.01 1 
0.444 0.253 -0.007 1 
0.463 -0.307 -0.008 1 
0.462 -0.326 -0.012 1 
0.413 0.114 -0.013 1 
0.371 0.114 -0.015 1 
0.413 0.123 -0.013 1 
0.43 0.103 -0.011 1 
0.437 -0.266 -0.015 1 
0.443 0.092 -0.009 1 
0.442 -0.317 -0.018 1 
0.403 0.134 -0.013 1 
0.399 -0.085 -0.015 1 
0.431 0.173 -0.01 1 
0.45 0.144 -0.006 1 
0.439 -0.245 -0.015 1 
0.468 -0.126 0.004 1 
0.474 -0.251 0.004 1 
0.453 -0.019 -0.008 1 
0.36 0.114 -0.013 1 
0.385 0.018 0.014 1 
0.422 -0.015 -0.012 1 
0.452 0.124 -0.006 1 
0.45 0.188 -0.004 1 
0.443 0.154 -0.007 1 
0.404 0.019 0.013 1 
0.348 0.163 -0.014 1 
0.354 0.027 -0.011 1 
0.452 0.173 -0.005 1 
0.408 -0.036 -0.013 1 
0.358 0.144 -0.015 1 
0.382 0.096 -0.014 1 
0.462 0.337 0.002 1 
0.434 -0.206 -0.015 1 
0.394 0.029 -0.011 1 
0.354 0.049 -0.011 1 
0.389 -0.195 -0.018 1 
0.374 -0.217 -0.024 1 
0.442 -0.046 -0.01 1 
0.422 0.234 -0.012 1 
0.43 0.203 -0.008 1 
0.374 -0.231 -0.025 1 
0.372 -0.073 -0.016 1 
0.402 0.246 -0.014 1 
0.424 -0.276 -0.022 1 
0.43 0.112 -0.011 1 
0.456 -0.327 -0.016 1 
0.453 0.224 -0.003 1 
0.47 -0.147 0.003 1 
0.352 0.204 -0.016 1 
0.463 -0.157 -0.006 1 
0.4 0.214 -0.015 1 
0.419 -0.246 -0.02 1 
0.39 0.234 -0.015 1 
0.451 0.183 -0.005 1 
0.404 -0.205 -0.019 1 
0.419 -0.175 -0.015 1 
0.421 0.044 -0.012 1 
0.431 -0.006 -0.013 1 
0.448 0.263 -0.006 1 
0.454 0.104 -0.006 1 
0.443 0.273 -0.008 1 
0.459 0.231 0.003 1 
0.44 0.244 -0.009 1 
0.454 0.144 -0.004 1 
0.438 0.064 -0.01 1 
0.382 -0.105 -0.016 1 
0.431 0.123 -0.011 1 
0.475 -0.234 0.001 1 
0.431 0.223 -0.009 1 
0.362 -0.136 -0.017 1 
0.434 -0.066 -0.011 1 
0.403 -0.067 -0.014 1 
0.383 0.019 0.015 1 
0.389 0.116 -0.015 1 
0.474 -0.236 0.004 1 
0.373 0.064 -0.013 1 
0.402 0.109 -0.014 1 
0.413 0.223 -0.014 1 
0.411 -0.065 -0.014 1 
0.425 -0.172 -0.015 1 
0.431 -0.238 -0.018 1 
0.473 -0.007 -0.007 1 
0.433 -0.265 -0.016 1 
0.384 0.063 -0.012 1 
0.463 0.032 0.002 1 
0.475 -0.274 0.006 1 
0.411 -0.056 -0.014 1 
0.449 -0.126 -0.01 1 
0.47 -0.295 -0.006 1 
0.475 -0.258 0.001 1 
0.462 0.134 0.004 1 
0.381 0.202 -0.015 1 
0.383 0.194 -0.016 1 
0.418 -0.167 -0.015 1 
0.386 0.183 -0.014 1 
0.475 -0.267 0.001 1 
0.465 -0.128 -0.006 1 
0.38 -0.045 -0.012 1 
0.389 0.253 -0.016 1 
0.463 -0.017 -0.005 1 
0.39 -0.235 -0.022 1 
0.344 -0.001 -0.006 1 
0.452 -0.275 -0.011 1 
0.467 -0.096 0.004 1 
0.468 -0.208 -0.005 1 
0.474 -0.295 -0.004 1 
0.39 -0.243 -0.025 1 
0.359 0.173 -0.015 1 
0.461 -0.265 -0.01 1 
0.413 0.183 -0.013 1 
0.384 -0.003 -0.01 1 
0.452 -0.027 -0.008 1 
0.414 0.042 -0.013 1 
0.422 0.261 -0.013 1 
0.42 0.144 -0.011 1 
0.432 -0.297 -0.02 1 
0.441 -0.288 -0.017 1 
0.453 -0.035 -0.008 1 
0.46 0.253 0.002 1 
0.451 -0.289 -0.014 1 
0.413 -0.176 -0.016 1 
0.442 -0.016 -0.01 1 
0.403 -0.056 -0.013 1 
0.373 -0.096 -0.014 1 
0.464 -0.012 0.004 1 
0.364 -0.096 -0.015 1 
0.413 -0.157 -0.016 1 
0.399 -0.126 -0.015 1 
0.441 0.304 -0.006 1 
0.454 -0.076 -0.008 1 
0.381 0.134 -0.015 1 
0.37 -0.056 -0.013 1 
0.461 0.164 0.004 1 
0.362 -0.045 -0.012 1 
0.349 -0.001 0.003 1 
0.458 0.313 0.004 1 
0.467 -0.107 0.004 1 
0.433 -0.027 -0.011 1 
0.419 -0.185 -0.016 1 
0.441 0.114 -0.009 1 
0.401 -0.274 -0.025 1 
0.394 0.053 -0.013 1 
0.403 0.169 -0.014 1 
0.454 -0.177 -0.009 1 
0.405 0.173 -0.015 1 
0.442 -0.305 -0.017 1 
0.443 -0.126 -0.011 1 
0.434 -0.056 -0.011 1 
0.38 0.224 -0.016 1 
0.464 -0.277 -0.01 1 
0.418 0.274 -0.015 1 
0.375 -0.22 -0.025 1 
0.394 0.214 -0.015 1 
0.374 -0.155 -0.018 1 
0.383 0.051 -0.012 1 
0.464 -0.087 -0.002 1 
0.351 0.15 -0.014 1 
0.452 0.273 -0.004 1 
0.454 0.293 -0.002 1 
0.372 0.174 -0.015 1 
0.373 0.092 -0.013 1 
0.423 -0.006 -0.013 1 
0.461 0.144 0.004 1 
0.4 0.082 -0.013 1 
0.46 0.203 0.003 1 
0.462 0.083 0.002 1 
0.394 -0.187 -0.017 1 
0.362 0.143 -0.014 1 
0.404 0.039 -0.012 1 
0.412 0.233 -0.014 1 
0.414 0.031 -0.013 1 
0.364 -0.115 -0.015 1 
0.4 0.204 -0.012 1 
0.434 -0.196 -0.015 1 
0.381 0.213 -0.016 1 
0.424 0.028 -0.011 1 
0.394 -0.087 -0.015 1 
0.394 -0.174 -0.017 1 
0.374 0.134 -0.014 1 
0.463 -0.097 -0.005 1 
0.391 -0.096 -0.014 1 
0.439 0.224 -0.008 1 
0.416 0.286 -0.015 1 
0.402 -0.026 -0.013 1 
0.354 0.073 -0.013 1 
0.41 -0.276 -0.023 1 
0.363 0.117 -0.014 1 
0.465 -0.001 0.002 1 
0.478 -0.316 0.002 1 
0.463 -0.057 -0.002 1 
0.464 -0.206 -0.006 1 
0.381 0.094 -0.014 1 
0.435 -0.225 -0.016 1 
0.371 0.192 -0.016 1 
0.43 -0.037 -0.012 1 
0.404 -0.115 -0.017 1 
0.377 0.174 -0.015 1 
0.455 0.155 -0.005 1 
0.42 0.211 -0.011 1 
0.46 0.214 0.003 1 
0.43 0.244 -0.012 1 
0.454 -0.247 -0.01 1 
0.441 0.234 -0.009 1 
0.434 -0.172 -0.012 1 
0.406 0.183 -0.015 1 
0.43 -0.015 -0.012 1 
0.465 -0.015 -0.005 1 
0.414 -0.017 -0.012 1 
0.372 0.204 -0.017 1 
0.363 0.213 -0.016 1 
0.391 -0.094 -0.014 1 
0.383 -0.136 -0.017 1 
0.394 -0.138 -0.016 1 
0.374 -0.167 -0.016 1 
0.374 0.068 -0.013 1 
0.347 -0.001 -0.005 1 
0.4 0.093 -0.014 1 
0.341 0.003 0.028 2 
0.342 0.003 0.019 2 
0.352 -0.001 0.02 2 
0.34 0.016 0.027 2 
0.34 0.014 0.027 2 
0.341 0.014 0.019 2 
0.34 0.017 0.027 2 
0.406 0.06 0.078 2 
0.431 -0.036 0.077 2 
0.423 0.095 0.076 2 
0.393 0.004 0.058 2 
0.376 -0.029 0.08 2 
0.44 0.077 0.085 2 
0.394 0.006 0.057 2 
0.391 -0.007 0.073 2 
0.375 -0.012 0.074 2 
0.391 -0.045 0.075 2 
0.377 -0.046 0.075 2 
0.428 0.035 0.064 2 
0.386 0.028 0.067 2 
0.385 0.071 0.078 2 
0.379 0.054 0.079 2 
0.39 0.07 0.08 2 
0.364 -0.029 0.078 2 
0.391 -0.035 0.079 2 
0.408 -0.044 0.08 2 
0.439 0.106 0.079 2 
0.366 0.067 0.077 2 
0.4 0.072 0.077 2 
0.499 -0.061 0.085 2 
0.407 0.065 0.077 2 
0.428 0.085 0.08 2 
0.407 0.08 0.075 2 
0.416 0.079 0.075 2 
0.425 0.079 0.075 2 
0.438 0.081 0.075 2 
0.492 0.088 0.077 2 
0.499 0.087 0.077 2 
0.418 0.066 0.078 2 
0.38 0.035 0.076 2 
0.378 0.025 0.067 2 
0.388 -0.034 0.077 2 
0.388 -0.036 0.077 2 
0.369 -0.046 0.078 2 
0.386 -0.028 0.083 2 
0.385 0.061 0.081 2 
0.378 0.057 0.081 2 
0.372 0.052 0.081 2 
0.422 0.069 0.085 2 
0.554 -0.109 0.057 2 
0.557 -0.113 0.057 2 
0.543 -0.11 0.064 2 
0.549 -0.108 0.064 2 
0.548 -0.104 0.064 2 
0.461 0.283 0.143 3 
0.467 -0.066 0.144 3 
0.467 -0.077 0.144 3 
0.479 -0.295 0.152 3 
0.48 -0.306 0.153 3 
0.481 -0.317 0.153 3 
0.482 -0.325 0.154 3 
0.458 0.332 0.144 3 
0.461 0.312 0.144 3 
0.477 -0.301 0.014 3 
0.461 0.292 0.144 3 
0.467 -0.055 0.144 3 
0.463 -0.007 0.013 3 
0.461 0.273 0.143 3 
0.461 0.264 0.143 3 
0.337 0.005 0.059 3 
0.461 0.252 0.143 3 
0.461 0.243 0.142 3 
0.46 0.233 0.142 3 
0.474 -0.217 0.163 3 
0.463 0.124 0.143 3 
0.478 -0.288 0.154 3 
0.485 -0.35 0.159 3 
0.46 0.222 0.144 3 
0.461 0.211 0.144 3 
0.462 0.194 0.144 3 
0.462 0.182 0.144 3 
0.462 0.174 0.144 3 
0.462 0.163 0.144 3 
0.464 0.152 0.144 3 
0.464 0.144 0.144 3 
0.463 0.133 0.144 3 
0.463 0.143 0.133 3 
0.463 0.113 0.143 3 
0.464 0.103 0.144 3 
0.464 0.092 0.143 3 
0.464 0.084 0.143 3 
0.462 0.132 0.132 3 
0.465 0.081 0.144 3 
0.461 0.164 0.063 3 
0.463 0.062 0.143 3 
0.462 0.054 0.143 3 
0.468 -0.047 0.144 3 
0.471 -0.207 0.013 3 
0.462 0.193 0.133 3 
0.476 -0.226 0.143 3 
0.477 -0.236 0.144 3 
0.477 -0.245 0.144 3 
0.477 -0.258 0.144 3 
0.47 0.349 0.142 3 
0.461 0.202 0.133 3 
0.472 -0.185 0.122 3 
0.461 0.051 0.134 3 
0.479 -0.278 0.143 3 
0.479 -0.285 0.143 3 
0.479 -0.295 0.143 3 
0.462 0.204 0.092 3 
0.481 -0.307 0.144 3 
0.481 -0.317 0.144 3 
0.461 0.258 0.134 3 
0.461 0.252 0.134 3 
0.479 -0.307 0.084 3 
0.461 0.243 0.134 3 
0.46 0.251 0.123 3 
0.46 0.233 0.134 3 
0.46 0.224 0.133 3 
0.471 -0.176 0.144 3 
0.287 -0.004 0.091 3 
0.469 -0.085 0.142 3 
0.462 0.162 0.133 3 
0.462 0.174 0.133 3 
0.468 -0.107 0.142 3 
0.469 -0.116 0.142 3 
0.47 -0.125 0.143 3 
0.462 0.182 0.133 3 
0.471 -0.145 0.143 3 
0.471 -0.156 0.144 3 
0.471 -0.165 0.144 3 
0.461 0.213 0.134 3 
0.471 -0.185 0.144 3 
0.483 -0.336 0.152 3 
0.482 -0.346 0.152 3 
0.462 0.323 0.142 3 
0.289 -0.005 0.091 3 
0.473 -0.197 0.142 3 
0.473 -0.206 0.142 3 
0.47 -0.146 0.052 3 
0.474 -0.216 0.143 3 
0.475 -0.222 0.143 3 
0.462 0.212 0.153 3 
0.478 -0.285 0.163 3 
0.479 -0.295 0.164 3 
0.485 -0.332 0.167 3 
0.46 0.279 0.154 3 
0.464 0.073 0.143 3 
0.461 0.274 0.154 3 
0.461 0.262 0.154 3 
0.462 0.153 0.033 3 
0.462 0.253 0.154 3 
0.462 0.244 0.154 3 
0.461 0.232 0.153 3 
0.461 0.223 0.153 3 
0.461 0.302 0.144 3 
0.461 0.274 0.062 3 
0.349 -0.004 0.059 3 
0.463 0.192 0.153 3 
0.463 0.184 0.153 3 
0.462 0.174 0.152 3 
0.463 0.163 0.152 3 
0.464 0.153 0.152 3 
0.464 0.144 0.152 3 
0.464 0.133 0.152 3 
0.465 0.128 0.152 3 
0.464 0.122 0.152 3 
0.465 0.079 0.154 3 
0.461 0.263 0.104 3 
0.475 -0.22 0.163 3 
0.474 -0.257 0.044 3 
0.475 -0.226 0.163 3 
0.477 -0.236 0.164 3 
0.477 -0.246 0.164 3 
0.485 -0.343 0.171 3 
0.486 -0.348 0.171 3 
0.464 0.133 0.155 3 
0.464 0.111 0.154 3 
0.464 0.092 0.154 3 
0.475 -0.226 0.152 3 
0.464 0.073 0.154 3 
0.465 0.071 0.154 3 
0.464 0.062 0.154 3 
0.466 -0.047 0.034 3 
0.462 0.054 0.153 3 
0.279 0.017 0.094 3 
0.278 0.014 0.094 3 
0.279 0.004 0.094 3 
0.477 -0.255 0.162 3 
0.478 -0.268 0.163 3 
0.479 -0.276 0.163 3 
0.471 -0.176 0.152 3 
0.462 0.303 0.153 3 
0.462 0.154 0.133 3 
0.461 0.293 0.152 3 
0.465 0.087 0.149 3 
0.477 -0.267 0.142 3 
0.287 0.02 0.094 3 
0.471 -0.145 0.152 3 
0.298 0.02 0.086 3 
0.472 -0.157 0.152 3 
0.461 0.282 0.132 3 
0.472 -0.165 0.153 3 
0.475 -0.265 0.104 3 
0.462 0.313 0.153 3 
0.472 -0.186 0.153 3 
0.473 -0.195 0.153 3 
0.474 -0.205 0.154 3 
0.475 -0.211 0.154 3 
0.474 -0.216 0.154 3 
0.484 -0.345 0.161 3 
0.464 0.081 0.146 3 
0.476 -0.235 0.152 3 
0.474 -0.266 0.012 3 
0.477 -0.255 0.153 3 
0.478 -0.268 0.154 3 
0.471 -0.125 0.154 3 
0.465 0.12 0.152 3 
0.469 -0.047 0.153 3 
0.469 -0.055 0.153 3 
0.457 0.332 0.062 3 
0.469 -0.066 0.153 3 
0.469 -0.075 0.153 3 
0.471 -0.086 0.154 3 
0.471 -0.097 0.154 3 
0.474 -0.245 0.092 3 
0.469 -0.105 0.153 3 
0.471 -0.117 0.154 3 
0.478 -0.275 0.154 3 
0.47 -0.136 0.154 3 
0.479 -0.305 0.161 3 
0.482 -0.318 0.163 3 
0.483 -0.326 0.163 3 
0.485 -0.335 0.164 3 
0.46 0.053 0.052 3 
0.484 -0.342 0.164 3 
0.459 0.337 0.154 3 
0.461 0.332 0.154 3 
0.295 -0.004 0.081 3 
0.46 0.234 0.062 3 
0.463 0.093 0.052 3 
0.46 0.233 0.114 3 
0.46 0.224 0.114 3 
0.461 0.212 0.114 3 
0.462 0.204 0.114 3 
0.462 0.193 0.114 3 
0.462 0.173 0.114 3 
0.462 0.162 0.114 3 
0.462 0.154 0.114 3 
0.463 0.143 0.114 3 
0.462 0.134 0.114 3 
0.463 0.124 0.114 3 
0.463 0.113 0.114 3 
0.482 -0.349 0.124 3 
0.463 0.102 0.114 3 
0.463 0.094 0.114 3 
0.463 0.083 0.114 3 
0.463 0.073 0.113 3 
0.461 0.053 0.113 3 
0.306 0.021 0.084 3 
0.473 -0.176 0.102 3 
0.467 -0.039 0.114 3 
0.467 -0.047 0.114 3 
0.467 -0.055 0.114 3 
0.467 -0.066 0.114 3 
0.475 -0.237 0.123 3 
0.47 -0.167 0.124 3 
0.471 -0.176 0.124 3 
0.361 0.002 0.054 3 
0.474 -0.246 0.126 3 
0.46 0.323 0.122 3 
0.296 0.02 0.084 3 
0.474 -0.195 0.122 3 
0.474 -0.206 0.123 3 
0.474 -0.215 0.123 3 
0.474 -0.227 0.123 3 
0.458 0.334 0.113 3 
0.475 -0.246 0.124 3 
0.475 -0.256 0.124 3 
0.476 -0.266 0.124 3 
0.453 0.047 0.114 3 
0.475 -0.231 0.12 3 
0.477 -0.286 0.122 3 
0.478 -0.296 0.122 3 
0.479 -0.307 0.123 3 
0.48 -0.315 0.123 3 
0.482 -0.327 0.124 3 
0.482 -0.338 0.124 3 
0.474 -0.245 0.084 3 
0.475 -0.234 0.112 3 
0.475 -0.237 0.112 3 
0.476 -0.247 0.112 3 
0.476 -0.256 0.112 3 
0.476 -0.266 0.113 3 
0.462 0.072 0.092 3 
0.476 -0.275 0.113 3 
0.476 -0.285 0.113 3 
0.478 -0.296 0.114 3 
0.479 -0.307 0.114 3 
0.48 -0.315 0.114 3 
0.48 -0.325 0.114 3 
0.324 0.024 0.084 3 
0.457 0.047 0.104 3 
0.33 0.025 0.084 3 
0.481 -0.336 0.112 3 
0.482 -0.345 0.112 3 
0.473 -0.248 0.024 3 
0.482 -0.355 0.113 3 
0.46 0.3 0.104 3 
0.46 0.293 0.104 3 
0.46 0.284 0.104 3 
0.456 0.331 0.082 3 
0.465 0.348 0.195 3 
0.469 -0.105 0.112 3 
0.462 0.312 0.113 3 
0.46 0.284 0.112 3 
0.342 0.019 0.054 3 
0.475 -0.255 0.052 3 
0.46 0.272 0.112 3 
0.461 0.263 0.112 3 
0.461 0.254 0.112 3 
0.468 -0.077 0.112 3 
0.469 -0.085 0.112 3 
0.467 -0.066 0.034 3 
0.469 -0.096 0.112 3 
0.471 -0.156 0.124 3 
0.47 -0.116 0.113 3 
0.47 -0.127 0.113 3 
0.47 -0.136 0.113 3 
0.472 -0.187 0.114 3 
0.47 -0.147 0.113 3 
0.47 -0.155 0.113 3 
0.471 -0.167 0.113 3 
0.472 -0.176 0.113 3 
0.473 -0.197 0.114 3 
0.473 -0.217 0.114 3 
0.474 -0.227 0.114 3 
0.474 -0.215 0.134 3 
0.46 0.291 0.132 3 
0.285 0.014 0.086 3 
0.471 -0.128 0.132 3 
0.478 -0.318 0.032 3 
0.471 -0.136 0.132 3 
0.471 -0.145 0.132 3 
0.471 -0.156 0.133 3 
0.471 -0.165 0.133 3 
0.471 -0.176 0.133 3 
0.472 -0.185 0.133 3 
0.473 -0.197 0.133 3 
0.473 -0.206 0.134 3 
0.46 0.304 0.133 3 
0.458 0.335 0.13 3 
0.475 -0.219 0.132 3 
0.474 0.08 0.06 3 
0.475 -0.228 0.132 3 
0.476 -0.235 0.132 3 
0.476 -0.247 0.132 3 
0.476 -0.257 0.133 3 
0.476 -0.266 0.133 3 
0.481 -0.345 0.064 3 
0.471 -0.167 0.044 3 
0.477 -0.276 0.133 3 
0.467 -0.055 0.133 3 
0.466 -0.095 0.012 3 
0.463 0.113 0.132 3 
0.463 0.102 0.132 3 
0.464 -0.041 0.087 3 
0.463 0.094 0.132 3 
0.464 0.084 0.133 3 
0.463 0.073 0.132 3 
0.462 0.064 0.132 3 
0.305 -0.005 0.092 3 
0.469 -0.042 0.134 3 
0.466 -0.047 0.133 3 
0.479 -0.285 0.134 3 
0.467 -0.066 0.133 3 
0.467 -0.077 0.133 3 
0.468 -0.085 0.134 3 
0.467 -0.096 0.134 3 
0.469 -0.116 0.134 3 
0.484 -0.327 0.142 3 
0.483 -0.336 0.142 3 
0.482 -0.346 0.143 3 
0.457 0.334 0.133 3 
0.46 0.323 0.133 3 
0.46 0.313 0.133 3 
0.462 0.173 0.122 3 
0.461 0.304 0.124 3 
0.461 0.292 0.124 3 
0.46 0.284 0.124 3 
0.46 0.272 0.123 3 
0.461 0.264 0.123 3 
0.461 0.243 0.123 3 
0.461 0.234 0.123 3 
0.46 0.224 0.123 3 
0.463 0.202 0.123 3 
0.462 0.193 0.122 3 
0.462 0.182 0.122 3 
0.461 0.311 0.124 3 
0.462 0.162 0.122 3 
0.468 -0.039 0.122 3 
0.467 -0.047 0.122 3 
0.467 -0.055 0.122 3 
0.469 -0.077 0.123 3 
0.469 -0.085 0.123 3 
0.469 -0.105 0.123 3 
0.47 -0.116 0.123 3 
0.47 -0.127 0.124 3 
0.47 -0.136 0.124 3 
0.471 -0.147 0.124 3 
0.462 0.064 0.124 3 
0.479 -0.298 0.134 3 
0.462 0.148 0.124 3 
0.461 0.183 0.052 3 
0.462 0.143 0.124 3 
0.465 -0.065 0.023 3 
0.462 0.132 0.124 3 
0.462 0.124 0.124 3 
0.463 0.113 0.124 3 
0.463 0.102 0.124 3 
0.463 0.094 0.124 3 
0.463 0.083 0.124 3 
0.462 0.124 0.132 3 
0.462 0.054 0.124 3 
0.376 0.006 0.054 3 
0.286 0.016 0.084 3 
0.285 0.004 0.084 3 
0.479 -0.308 0.132 3 
0.481 -0.316 0.132 3 
0.483 -0.325 0.133 3 
0.474 -0.276 0.041 3 
0.483 -0.336 0.133 3 
0.482 -0.345 0.133 3 
0.458 0.331 0.124 3 
0.466 0.233 0.183 3 
0.479 -0.255 0.192 3 
0.47 -0.075 0.074 3 
0.48 -0.265 0.193 3 
0.482 -0.276 0.194 3 
0.464 0.297 0.185 3 
0.465 0.276 0.184 3 
0.465 0.273 0.184 3 
0.472 -0.225 0.052 3 
0.464 0.269 0.184 3 
0.465 0.263 0.184 3 
0.465 0.254 0.184 3 
0.465 0.242 0.183 3 
0.46 0.264 0.062 3 
0.466 0.224 0.183 3 
0.466 0.213 0.183 3 
0.461 0.213 0.123 3 
0.465 0.203 0.182 3 
0.464 0.191 0.181 3 
0.459 0.314 0.062 3 
0.473 -0.056 0.182 3 
0.305 0.02 0.072 3 
0.472 -0.067 0.182 3 
0.472 -0.076 0.182 3 
0.461 0.304 0.113 3 
0.465 -0.036 0.004 3 
0.47 -0.136 0.143 3 
0.466 0.163 0.184 3 
0.466 0.152 0.184 3 
0.462 0.197 0.144 3 
0.466 0.143 0.183 3 
0.467 0.132 0.183 3 
0.477 -0.276 0.122 3 
0.468 0.124 0.184 3 
0.468 -0.107 0.134 3 
0.468 0.113 0.184 3 
0.468 0.102 0.183 3 
0.468 0.094 0.183 3 
0.473 -0.087 0.182 3 
0.467 0.082 0.183 3 
0.466 0.074 0.182 3 
0.466 0.063 0.182 3 
0.292 0.025 0.11 3 
0.474 -0.127 0.186 3 
0.474 -0.135 0.187 3 
0.474 -0.164 0.187 3 
0.479 -0.227 0.191 3 
0.48 -0.237 0.192 3 
0.479 -0.246 0.192 3 
0.281 0.022 0.103 3 
0.465 0.301 0.183 3 
0.464 0.297 0.182 3 
0.465 0.292 0.182 3 
0.464 0.262 0.181 3 
0.464 0.253 0.18 3 
0.468 -0.066 0.123 3 
0.311 -0.011 0.061 3 
0.464 0.244 0.18 3 
0.464 0.199 0.179 3 
0.464 0.182 0.178 3 
0.46 0.234 0.033 3 
0.464 0.159 0.178 3 
0.46 0.293 0.093 3 
0.474 -0.27 0.052 3 
0.474 -0.147 0.181 3 
0.461 0.203 0.033 3 
0.476 -0.174 0.183 3 
0.476 -0.177 0.183 3 
0.478 -0.187 0.184 3 
0.478 -0.196 0.184 3 
0.478 -0.205 0.184 3 
0.462 0.072 0.124 3 
0.484 -0.315 0.191 3 
0.485 -0.319 0.191 3 
0.475 -0.147 0.184 3 
0.474 -0.096 0.183 3 
0.475 -0.099 0.183 3 
0.462 0.204 0.103 3 
0.476 -0.105 0.184 3 
0.472 -0.167 0.102 3 
0.475 -0.116 0.184 3 
0.474 -0.121 0.183 3 
0.474 -0.127 0.184 3 
0.474 -0.135 0.184 3 
0.475 -0.144 0.184 3 
0.461 0.273 0.132 3 
0.472 -0.166 0.172 3 
0.474 -0.158 0.184 3 
0.473 -0.167 0.184 3 
0.482 -0.286 0.192 3 
0.483 -0.297 0.192 3 
0.484 -0.305 0.193 3 
0.485 -0.309 0.194 3 
0.461 0.341 0.184 3 
0.464 0.334 0.184 3 
0.465 0.332 0.184 3 
0.466 0.322 0.184 3 
0.466 0.312 0.184 3 
0.464 0.076 0.162 3 
0.467 0.173 0.188 3 
0.467 0.164 0.187 3 
0.357 0.046 0.066 3 
0.466 0.152 0.187 3 
0.46 0.281 0.093 3 
0.467 0.144 0.186 3 
0.468 0.133 0.187 3 
0.462 0.064 0.113 3 
0.468 0.122 0.186 3 
0.468 0.074 0.186 3 
0.468 0.113 0.186 3 
0.468 0.102 0.186 3 
0.466 0.184 0.187 3 
0.468 0.094 0.186 3 
0.468 0.083 0.186 3 
0.468 0.063 0.186 3 
0.287 0.024 0.109 3 
0.278 0.021 0.105 3 
0.462 0.112 0.06 3 
0.271 0.019 0.102 3 
0.267 0.014 0.1 3 
0.267 0.004 0.1 3 
0.272 -0.005 0.102 3 
0.276 -0.006 0.104 3 
0.467 0.284 0.191 3 
0.464 0.153 0.174 3 
0.462 0.142 0.084 3 
0.465 0.341 0.194 3 
0.466 0.338 0.195 3 
0.467 0.332 0.195 3 
0.468 0.329 0.194 3 
0.471 -0.147 0.094 3 
0.469 0.323 0.194 3 
0.468 0.312 0.193 3 
0.467 0.304 0.193 3 
0.462 0.182 0.114 3 
0.466 0.293 0.192 3 
0.473 -0.056 0.188 3 
0.466 0.274 0.191 3 
0.467 0.262 0.19 3 
0.467 0.253 0.19 3 
0.466 0.243 0.189 3 
0.467 0.234 0.189 3 
0.468 0.223 0.189 3 
0.468 -0.044 0.144 3 
0.467 0.213 0.189 3 
0.478 -0.298 0.023 3 
0.468 0.202 0.189 3 
0.467 0.193 0.188 3 
0.487 -0.318 0.201 3 
0.48 -0.228 0.195 3 
0.481 -0.235 0.195 3 
0.48 -0.247 0.195 3 
0.48 -0.255 0.195 3 
0.48 -0.265 0.196 3 
0.482 -0.277 0.197 3 
0.459 0.324 0.054 3 
0.483 -0.287 0.198 3 
0.484 -0.295 0.199 3 
0.485 -0.299 0.199 3 
0.471 -0.178 0.052 3 
0.486 -0.307 0.2 3 
0.479 -0.215 0.194 3 
0.487 -0.325 0.202 3 
0.487 -0.336 0.202 3 
0.488 -0.345 0.203 3 
0.464 0.346 0.191 3 
0.464 0.343 0.191 3 
0.469 -0.096 0.123 3 
0.476 -0.288 0.093 3 
0.464 0.272 0.187 3 
0.465 0.192 0.184 3 
0.465 0.18 0.184 3 
0.466 0.172 0.184 3 
0.475 -0.136 0.19 3 
0.473 -0.065 0.188 3 
0.473 -0.076 0.188 3 
0.465 0.134 0.163 3 
0.473 -0.087 0.188 3 
0.475 -0.09 0.189 3 
0.475 -0.096 0.189 3 
0.477 -0.105 0.19 3 
0.476 -0.116 0.19 3 
0.48 -0.355 0.052 3 
0.476 -0.125 0.19 3 
0.468 -0.044 0.152 3 
0.486 -0.327 0.192 3 
0.463 0.094 0.103 3 
0.48 -0.315 0.102 3 
0.476 -0.145 0.19 3 
0.477 -0.157 0.191 3 
0.477 -0.166 0.191 3 
0.471 -0.067 0.074 3 
0.477 -0.175 0.192 3 
0.479 -0.185 0.193 3 
0.481 -0.195 0.194 3 
0.479 -0.206 0.193 3 
0.472 -0.126 0.174 3 
0.473 -0.226 0.033 3 
0.463 0.173 0.164 3 
0.464 0.164 0.163 3 
0.464 0.153 0.163 3 
0.464 0.144 0.163 3 
0.465 0.137 0.163 3 
0.465 0.123 0.163 3 
0.465 0.114 0.163 3 
0.478 -0.315 0.014 3 
0.465 0.103 0.163 3 
0.465 0.093 0.163 3 
0.465 0.084 0.163 3 
0.464 0.073 0.162 3 
0.463 0.184 0.164 3 
0.462 0.062 0.162 3 
0.47 -0.053 0.164 3 
0.47 -0.056 0.164 3 
0.47 -0.067 0.164 3 
0.461 0.294 0.113 3 
0.47 -0.075 0.164 3 
0.474 -0.193 0.168 3 
0.474 -0.205 0.168 3 
0.479 -0.266 0.172 3 
0.463 0.102 0.084 3 
0.479 -0.276 0.172 3 
0.472 -0.166 0.164 3 
0.476 -0.297 0.064 3 
0.46 0.243 0.054 3 
0.485 -0.337 0.183 3 
0.486 -0.345 0.184 3 
0.461 0.34 0.172 3 
0.464 0.333 0.172 3 
0.464 0.068 0.165 3 
0.464 0.062 0.165 3 
0.477 -0.305 0.064 3 
0.474 -0.175 0.17 3 
0.474 -0.196 0.171 3 
0.476 -0.215 0.172 3 
0.479 -0.286 0.172 3 
0.475 -0.22 0.154 3 
0.478 -0.228 0.173 3 
0.462 0.064 0.092 3 
0.478 -0.237 0.173 3 
0.478 -0.247 0.174 3 
0.473 -0.205 0.083 3 
0.478 -0.256 0.174 3 
0.462 0.218 0.164 3 
0.462 0.212 0.164 3 
0.478 -0.315 0.043 3 
0.463 0.193 0.164 3 
0.462 0.314 0.162 3 
0.481 -0.308 0.171 3 
0.458 0.335 0.142 3 
0.475 -0.237 0.103 3 
0.483 -0.316 0.172 3 
0.483 -0.327 0.173 3 
0.47 -0.166 0.022 3 
0.484 -0.335 0.173 3 
0.484 -0.346 0.174 3 
0.459 0.338 0.162 3 
0.46 0.332 0.162 3 
0.46 0.271 0.104 3 
0.462 0.324 0.162 3 
0.473 -0.175 0.164 3 
0.463 0.132 0.073 3 
0.464 0.106 0.157 3 
0.461 0.324 0.113 3 
0.334 0.012 0.054 3 
0.465 0.073 0.157 3 
0.473 -0.186 0.162 3 
0.469 -0.105 0.104 3 
0.474 -0.257 0.052 3 
0.466 -0.036 0.044 3 
0.473 -0.195 0.162 3 
0.474 -0.205 0.163 3 
0.464 0.098 0.16 3 
0.48 -0.297 0.173 3 
0.484 -0.335 0.176 3 
0.462 0.304 0.164 3 
0.462 0.294 0.164 3 
0.461 0.284 0.163 3 
0.473 -0.206 0.114 3 
0.462 0.272 0.163 3 
0.463 0.264 0.163 3 
0.463 0.254 0.163 3 
0.463 0.242 0.163 3 
0.462 0.233 0.162 3 
0.485 -0.329 0.183 3 
0.464 0.092 0.16 3 
0.46 0.239 0.114 3 
0.471 -0.086 0.162 3 
0.472 -0.095 0.163 3 
0.471 -0.106 0.162 3 
0.46 0.283 0.024 3 
0.472 -0.117 0.163 3 
0.472 -0.126 0.163 3 
0.472 -0.137 0.163 3 
0.472 -0.145 0.163 3 
0.472 -0.157 0.164 3 
0.463 0.243 0.174 3 
0.478 -0.226 0.182 3 
0.478 -0.235 0.182 3 
0.479 -0.245 0.183 3 
0.479 -0.257 0.183 3 
0.48 -0.265 0.184 3 
0.48 -0.277 0.184 3 
0.286 0.013 0.084 3 
0.464 0.294 0.176 3 
0.463 0.258 0.174 3 
0.46 0.301 0.032 3 
0.463 0.252 0.174 3 
0.471 -0.178 0.074 3 
0.463 0.234 0.174 3 
0.464 0.223 0.174 3 
0.463 0.213 0.173 3 
0.474 -0.242 0.123 3 
0.463 0.204 0.173 3 
0.46 0.282 0.043 3 
0.463 0.193 0.172 3 
0.463 0.184 0.172 3 
0.465 0.174 0.173 3 
0.464 0.165 0.172 3 
0.465 0.148 0.172 3 
0.464 0.165 0.175 3 
0.472 -0.196 0.052 3 
0.486 -0.338 0.193 3 
0.488 -0.348 0.194 3 
0.465 -0.009 0.044 3 
0.464 0.324 0.181 3 
0.464 0.307 0.18 3 
0.464 0.281 0.179 3 
0.464 0.232 0.177 3 
0.464 0.223 0.176 3 
0.464 0.103 0.154 3 
0.464 0.214 0.176 3 
0.466 0.134 0.172 3 
0.463 0.159 0.174 3 
0.465 0.142 0.174 3 
0.466 0.104 0.174 3 
0.466 0.087 0.174 3 
0.466 0.082 0.174 3 
0.466 0.074 0.174 3 
0.466 0.063 0.174 3 
0.463 0.204 0.153 3 
0.275 -0.002 0.1 3 
0.474 -0.107 0.177 3 
0.478 -0.217 0.182 3 
0.462 0.323 0.154 3 
0.463 0.051 0.004 3 
0.463 0.322 0.174 3 
0.463 0.312 0.174 3 
0.471 -0.175 0.033 3 
0.464 0.303 0.174 3 
0.463 0.292 0.173 3 
0.463 0.283 0.173 3 
0.462 -0.025 0.013 3 
0.464 0.274 0.173 3 
0.465 0.156 0.169 3 
0.289 0.023 0.103 3 
0.473 -0.135 0.172 3 
0.483 -0.307 0.184 3 
0.473 -0.146 0.172 3 
0.473 -0.155 0.172 3 
0.475 -0.176 0.174 3 
0.476 -0.191 0.174 3 
0.465 -0.087 0.012 3 
0.475 -0.197 0.174 3 
0.475 -0.206 0.174 3 
0.464 -0.023 0.004 3 
0.483 -0.317 0.181 3 
0.473 -0.185 0.094 3 
0.484 -0.325 0.182 3 
0.472 -0.056 0.173 3 
0.476 -0.245 0.152 3 
0.467 0.124 0.172 3 
0.469 -0.096 0.142 3 
0.467 0.113 0.172 3 
0.275 0.009 0.099 3 
0.297 -0.008 0.107 3 
0.462 0.203 0.164 3 
0.466 -0.049 0.004 3 
0.471 -0.053 0.173 3 
0.328 -0.009 0.068 3 
0.47 -0.166 0.033 3 
0.47 -0.067 0.173 3 
0.459 0.214 0.014 3 
0.47 -0.075 0.173 3 
0.471 -0.086 0.173 3 
0.472 -0.095 0.174 3 
0.473 -0.106 0.174 3 
0.46 0.241 0.104 3 
0.473 -0.115 0.174 3 
0.48 -0.287 0.182 3 
0.482 -0.296 0.183 3 
0.459 0.324 0.043 3 
0.346 0.013 0.053 3 
0.369 0.007 0.052 3 
0.474 -0.276 0.049 3 
0.457 0.034 0.047 3 
0.45 0.026 0.047 3 
0.433 0.022 0.048 3 
0.442 0.013 0.048 3 
0.458 0.011 0.047 3 
0.459 0.003 0.047 3 
0.468 -0.015 0.047 3 
0.456 0.331 0.043 3 
0.439 0.032 0.05 3 
0.458 0.313 0.043 3 
0.458 0.303 0.043 3 
0.466 -0.066 0.044 3 
0.46 0.292 0.043 3 
0.46 0.273 0.043 3 
0.459 0.263 0.043 3 
0.466 -0.055 0.034 3 
0.461 0.218 0.024 3 
0.459 0.254 0.043 3 
0.459 0.242 0.043 3 
0.46 0.223 0.044 3 
0.474 -0.236 0.052 3 
0.467 -0.085 0.052 3 
0.468 -0.096 0.052 3 
0.468 -0.107 0.052 3 
0.468 -0.115 0.052 3 
0.469 -0.126 0.052 3 
0.47 -0.135 0.052 3 
0.47 -0.155 0.052 3 
0.471 -0.166 0.052 3 
0.471 -0.187 0.052 3 
0.472 -0.205 0.052 3 
0.472 -0.216 0.052 3 
0.46 0.214 0.044 3 
0.475 -0.246 0.052 3 
0.474 -0.248 0.052 3 
0.475 -0.268 0.052 3 
0.475 -0.277 0.052 3 
0.476 -0.287 0.052 3 
0.477 -0.297 0.052 3 
0.478 -0.305 0.052 3 
0.478 -0.315 0.052 3 
0.48 -0.327 0.052 3 
0.481 -0.335 0.052 3 
0.458 0.042 0.05 3 
0.471 -0.187 0.044 3 
0.465 -0.015 0.044 3 
0.466 -0.025 0.044 3 
0.466 -0.047 0.044 3 
0.467 -0.077 0.044 3 
0.467 -0.085 0.044 3 
0.469 -0.096 0.044 3 
0.469 -0.107 0.044 3 
0.469 -0.115 0.044 3 
0.469 -0.135 0.044 3 
0.47 -0.146 0.044 3 
0.47 -0.155 0.044 3 
0.471 -0.175 0.044 3 
0.464 -0.007 0.044 3 
0.472 -0.196 0.044 3 
0.473 -0.205 0.044 3 
0.472 -0.216 0.044 3 
0.473 -0.226 0.044 3 
0.473 -0.235 0.044 3 
0.474 -0.245 0.044 3 
0.475 -0.249 0.044 3 
0.474 -0.267 0.044 3 
0.475 -0.277 0.044 3 
0.477 -0.297 0.044 3 
0.478 -0.308 0.043 3 
0.463 0.093 0.044 3 
0.461 0.203 0.044 3 
0.46 0.194 0.044 3 
0.461 0.183 0.044 3 
0.461 0.172 0.044 3 
0.461 0.164 0.044 3 
0.461 0.153 0.044 3 
0.462 0.142 0.044 3 
0.462 0.134 0.044 3 
0.462 0.123 0.044 3 
0.462 0.112 0.044 3 
0.462 0.104 0.044 3 
0.466 -0.076 0.052 3 
0.463 0.083 0.044 3 
0.463 0.072 0.044 3 
0.466 -0.055 0.044 3 
0.464 0.064 0.044 3 
0.463 0.053 0.044 3 
0.461 0.042 0.044 3 
0.46 0.034 0.044 3 
0.459 0.024 0.045 3 
0.461 0.016 0.044 3 
0.461 0.014 0.044 3 
0.461 0.003 0.044 3 
0.481 -0.335 0.064 3 
0.473 -0.226 0.064 3 
0.474 -0.236 0.064 3 
0.474 -0.245 0.064 3 
0.475 -0.252 0.064 3 
0.475 -0.255 0.064 3 
0.474 -0.257 0.064 3 
0.473 -0.266 0.064 3 
0.474 -0.276 0.064 3 
0.475 -0.28 0.064 3 
0.475 -0.286 0.064 3 
0.478 -0.315 0.064 3 
0.48 -0.327 0.064 3 
0.472 -0.216 0.064 3 
0.48 -0.355 0.064 3 
0.461 0.153 0.052 3 
0.465 0.103 0.06 3 
0.487 0.098 0.06 3 
0.46 0.074 0.06 3 
0.458 0.053 0.06 3 
0.46 0.273 0.054 3 
0.458 -0.056 0.06 3 
0.451 -0.06 0.06 3 
0.453 -0.065 0.06 3 
0.469 -0.115 0.063 3 
0.37 -0.006 0.061 3 
0.478 -0.032 0.063 3 
0.474 -0.034 0.063 3 
0.466 -0.036 0.063 3 
0.461 0.254 0.104 3 
0.462 -0.046 0.063 3 
0.469 -0.096 0.063 3 
0.468 -0.107 0.063 3 
0.471 -0.078 0.061 3 
0.481 -0.345 0.052 3 
0.47 -0.127 0.063 3 
0.47 -0.135 0.063 3 
0.471 -0.147 0.063 3 
0.471 -0.166 0.063 3 
0.471 -0.175 0.063 3 
0.46 0.214 0.022 3 
0.472 -0.187 0.063 3 
0.473 -0.196 0.064 3 
0.477 -0.288 0.044 3 
0.473 -0.205 0.064 3 
0.355 0.005 0.056 3 
0.461 0.172 0.052 3 
0.461 0.164 0.052 3 
0.462 0.142 0.052 3 
0.462 0.134 0.052 3 
0.462 0.123 0.052 3 
0.461 0.112 0.052 3 
0.461 0.104 0.052 3 
0.463 0.083 0.052 3 
0.462 0.074 0.052 3 
0.452 0.041 0.052 3 
0.459 0.222 0.014 3 
0.364 0.02 0.054 3 
0.356 0.007 0.054 3 
0.373 0.004 0.054 3 
0.465 -0.028 0.052 3 
0.459 0.282 0.013 3 
0.465 -0.036 0.052 3 
0.465 -0.047 0.052 3 
0.464 -0.054 0.052 3 
0.465 -0.057 0.052 3 
0.465 -0.065 0.052 3 
0.468 -0.085 0.058 3 
0.488 -0.085 0.061 3 
0.459 0.103 0.057 3 
0.461 0.093 0.057 3 
0.461 0.082 0.057 3 
0.451 0.044 0.058 3 
0.346 0.018 0.057 3 
0.358 -0.002 0.058 3 
0.371 -0.004 0.058 3 
0.463 -0.065 0.058 3 
0.465 -0.073 0.058 3 
0.461 0.164 0.033 3 
0.481 -0.346 0.043 3 
0.459 0.304 0.054 3 
0.458 0.291 0.054 3 
0.459 0.281 0.054 3 
0.46 0.264 0.054 3 
0.46 0.252 0.054 3 
0.46 0.234 0.054 3 
0.46 0.223 0.054 3 
0.461 0.212 0.054 3 
0.461 0.203 0.054 3 
0.461 0.192 0.054 3 
0.436 0.039 0.055 3 
0.458 0.313 0.012 3 
0.47 -0.186 0.022 3 
0.471 -0.195 0.022 3 
0.474 -0.272 0.021 3 
0.464 -0.065 0.02 3 
0.474 -0.276 0.015 3 
0.478 -0.309 0.014 3 
0.478 -0.325 0.014 3 
0.478 -0.336 0.014 3 
0.48 -0.349 0.013 3 
0.477 -0.356 0.013 3 
0.455 0.329 0.012 3 
0.456 0.323 0.012 3 
0.47 -0.175 0.022 3 
0.458 0.303 0.012 3 
0.458 0.293 0.013 3 
0.458 0.263 0.013 3 
0.458 0.254 0.013 3 
0.458 0.242 0.014 3 
0.458 0.233 0.014 3 
0.459 0.202 0.014 3 
0.459 0.194 0.014 3 
0.459 0.182 0.014 3 
0.459 0.174 0.014 3 
0.46 0.161 0.014 3 
0.464 -0.049 0.023 3 
0.462 0.074 0.023 3 
0.462 0.064 0.023 3 
0.463 0.053 0.023 3 
0.463 0.043 0.023 3 
0.463 0.032 0.023 3 
0.463 0.024 0.023 3 
0.464 0.003 0.023 3 
0.464 -0.007 0.023 3 
0.464 -0.025 0.023 3 
0.464 -0.036 0.023 3 
0.465 -0.047 0.023 3 
0.468 -0.132 0.014 3 
0.465 -0.055 0.023 3 
0.464 -0.057 0.023 3 
0.466 -0.076 0.023 3 
0.466 -0.087 0.023 3 
0.467 -0.095 0.023 3 
0.468 -0.107 0.023 3 
0.468 -0.115 0.023 3 
0.469 -0.126 0.023 3 
0.469 -0.138 0.022 3 
0.47 -0.146 0.022 3 
0.47 -0.155 0.022 3 
0.465 -0.015 0.007 3 
0.462 0.053 0.013 3 
0.462 0.043 0.013 3 
0.463 -0.046 0.013 3 
0.464 -0.055 0.012 3 
0.465 -0.057 0.012 3 
0.465 -0.065 0.012 3 
0.465 -0.076 0.012 3 
0.467 -0.106 0.012 3 
0.467 -0.115 0.012 3 
0.477 -0.356 0.004 3 
0.465 -0.012 0.007 3 
0.46 0.063 0.013 3 
0.465 -0.047 0.007 3 
0.474 -0.357 0.002 3 
0.466 -0.015 0.004 3 
0.464 -0.025 0.004 3 
0.465 -0.033 0.004 3 
0.464 -0.047 0.004 3 
0.466 -0.055 0.004 3 
0.466 -0.066 0.004 3 
0.468 -0.115 0.004 3 
0.462 0.072 0.002 3 
0.462 0.064 0.002 3 
0.474 -0.257 0.013 3 
0.468 -0.137 0.014 3 
0.469 -0.146 0.014 3 
0.469 -0.157 0.014 3 
0.469 -0.166 0.014 3 
0.469 -0.177 0.014 3 
0.469 -0.186 0.014 3 
0.47 -0.195 0.014 3 
0.471 -0.216 0.013 3 
0.471 -0.225 0.013 3 
0.472 -0.235 0.013 3 
0.472 -0.247 0.013 3 
0.462 0.082 0.023 3 
0.474 -0.276 0.012 3 
0.475 -0.28 0.012 3 
0.475 -0.286 0.012 3 
0.459 0.152 0.012 3 
0.459 0.144 0.012 3 
0.46 0.133 0.012 3 
0.461 0.114 0.012 3 
0.46 0.103 0.013 3 
0.46 0.093 0.013 3 
0.46 0.082 0.013 3 
0.46 0.074 0.013 3 
0.467 -0.077 0.034 3 
0.463 0.064 0.034 3 
0.464 0.054 0.034 3 
0.464 0.043 0.034 3 
0.463 0.032 0.034 3 
0.463 0.024 0.034 3 
0.464 0.014 0.034 3 
0.464 0.003 0.034 3 
0.464 -0.007 0.034 3 
0.465 -0.012 0.034 3 
0.465 -0.015 0.034 3 
0.466 -0.025 0.034 3 
0.465 -0.036 0.034 3 
0.463 0.072 0.034 3 
0.468 -0.085 0.034 3 
0.468 -0.096 0.034 3 
0.469 -0.107 0.033 3 
0.469 -0.115 0.033 3 
0.46 0.122 0.012 3 
0.469 -0.126 0.033 3 
0.47 -0.135 0.033 3 
0.47 -0.146 0.033 3 
0.47 -0.155 0.033 3 
0.471 -0.187 0.033 3 
0.472 -0.196 0.033 3 
0.46 0.264 0.032 3 
0.481 -0.356 0.043 3 
0.456 0.331 0.034 3 
0.459 0.324 0.034 3 
0.458 0.313 0.034 3 
0.479 -0.329 0.034 3 
0.48 -0.338 0.034 3 
0.48 -0.345 0.034 3 
0.48 -0.355 0.034 3 
0.46 0.292 0.032 3 
0.461 0.283 0.032 3 
0.461 0.274 0.032 3 
0.472 -0.205 0.033 3 
0.459 0.251 0.032 3 
0.46 0.223 0.033 3 
0.461 0.212 0.033 3 
0.461 0.172 0.033 3 
0.461 0.142 0.033 3 
0.462 0.134 0.033 3 
0.461 0.123 0.033 3 
0.462 0.112 0.033 3 
0.463 0.104 0.033 3 
0.463 0.093 0.033 3 
0.462 0.082 0.034 3 
0.46 0.203 0.022 3 
0.474 -0.258 0.024 3 
0.475 -0.264 0.024 3 
0.475 -0.267 0.024 3 
0.475 -0.276 0.024 3 
0.476 -0.287 0.023 3 
0.478 -0.305 0.023 3 
0.477 -0.317 0.023 3 
0.478 -0.325 0.023 3 
0.48 -0.338 0.022 3 
0.48 -0.345 0.022 3 
0.478 -0.357 0.022 3 
0.473 -0.226 0.024 3 
0.459 0.182 0.022 3 
0.46 0.172 0.022 3 
0.46 0.163 0.022 3 
0.464 0.014 0.023 3 
0.461 0.153 0.022 3 
0.461 0.142 0.023 3 
0.461 0.134 0.023 3 
0.462 0.123 0.023 3 
0.462 0.112 0.023 3 
0.462 0.104 0.023 3 
0.462 0.093 0.023 3 
0.456 0.324 0.023 3 
0.473 -0.217 0.033 3 
0.473 -0.235 0.033 3 
0.474 -0.248 0.032 3 
0.473 -0.266 0.032 3 
0.475 -0.273 0.032 3 
0.475 -0.276 0.032 3 
0.477 -0.288 0.032 3 
0.478 -0.295 0.032 3 
0.478 -0.305 0.032 3 
0.464 -0.015 0.031 3 
0.455 0.33 0.023 3 
0.464 -0.038 0.063 3 
0.458 0.312 0.023 3 
0.459 0.304 0.023 3 
0.459 0.263 0.024 3 
0.459 0.254 0.024 3 
0.459 0.242 0.024 3 
0.46 0.234 0.024 3 
0.464 -0.031 0.026 3 
0.464 -0.039 0.026 3 
0.464 -0.049 0.026 3 
0.472 -0.208 0.024 3 
0.472 -0.217 0.024 3 
0.477 -0.298 0.093 3 
0.465 -0.033 0.09 3 
0.474 -0.215 0.092 3 
0.474 -0.227 0.092 3 
0.474 -0.236 0.092 3 
0.474 -0.257 0.092 3 
0.459 0.314 0.054 3 
0.475 -0.261 0.092 3 
0.475 -0.268 0.092 3 
0.469 -0.126 0.044 3 
0.475 -0.277 0.092 3 
0.459 0.294 0.024 3 
0.471 -0.155 0.063 3 
0.479 -0.307 0.093 3 
0.48 -0.318 0.094 3 
0.48 -0.325 0.094 3 
0.481 -0.336 0.094 3 
0.482 -0.347 0.094 3 
0.48 -0.355 0.094 3 
0.464 0.34 0.088 3 
0.344 0.027 0.075 3 
0.501 -0.013 0.091 3 
0.462 0.134 0.084 3 
0.464 -0.033 0.087 3 
0.468 -0.115 0.093 3 
0.462 0.083 0.092 3 
0.495 -0.037 0.096 3 
0.335 0.014 0.054 3 
0.466 -0.036 0.092 3 
0.466 -0.047 0.093 3 
0.467 -0.055 0.093 3 
0.467 -0.066 0.093 3 
0.468 -0.077 0.093 3 
0.468 -0.085 0.093 3 
0.469 -0.096 0.093 3 
0.468 -0.107 0.093 3 
0.46 0.262 0.084 3 
0.468 -0.126 0.093 3 
0.459 0.194 0.022 3 
0.469 -0.135 0.093 3 
0.471 -0.155 0.094 3 
0.472 -0.167 0.094 3 
0.472 -0.176 0.094 3 
0.473 -0.197 0.094 3 
0.473 -0.205 0.094 3 
0.474 -0.236 0.095 3 
0.474 -0.245 0.095 3 
0.337 0 0.061 3 
0.459 0.311 0.082 3 
0.459 0.301 0.082 3 
0.459 0.292 0.082 3 
0.46 0.283 0.082 3 
0.46 0.274 0.082 3 
0.326 0.024 0.07 3 
0.305 0.014 0.069 3 
0.305 0 0.069 3 
0.465 -0.033 0.082 3 
0.467 -0.047 0.082 3 
0.466 -0.055 0.082 3 
0.466 -0.036 0.084 3 
0.467 -0.077 0.082 3 
0.468 -0.085 0.082 3 
0.468 -0.096 0.082 3 
0.469 -0.107 0.082 3 
0.463 -0.015 0.023 3 
0.468 -0.115 0.082 3 
0.468 -0.126 0.082 3 
0.462 0.153 0.063 3 
0.47 -0.135 0.082 3 
0.47 -0.146 0.083 3 
0.471 -0.155 0.083 3 
0.463 0.124 0.084 3 
0.461 0.253 0.084 3 
0.461 0.244 0.084 3 
0.461 0.232 0.084 3 
0.461 0.224 0.084 3 
0.461 0.212 0.084 3 
0.461 0.203 0.084 3 
0.461 0.192 0.084 3 
0.461 0.172 0.084 3 
0.456 0.331 0.054 3 
0.461 0.164 0.084 3 
0.461 0.153 0.084 3 
0.462 0.094 0.092 3 
0.463 0.113 0.084 3 
0.463 0.094 0.084 3 
0.462 0.083 0.084 3 
0.461 0.072 0.084 3 
0.459 0.063 0.084 3 
0.459 0.053 0.084 3 
0.322 0.024 0.071 3 
0.514 -0.014 0.089 3 
0.499 -0.016 0.087 3 
0.464 -0.033 0.084 3 
0.473 -0.235 0.024 3 
0.467 -0.036 0.103 3 
0.467 -0.047 0.103 3 
0.467 -0.055 0.103 3 
0.467 -0.066 0.104 3 
0.468 -0.077 0.104 3 
0.468 -0.085 0.104 3 
0.46 0.234 0.043 3 
0.468 -0.096 0.104 3 
0.469 -0.116 0.104 3 
0.469 -0.127 0.104 3 
0.469 -0.135 0.104 3 
0.462 0.162 0.073 3 
0.457 0.332 0.102 3 
0.46 0.322 0.102 3 
0.461 0.314 0.102 3 
0.306 -0.004 0.078 3 
0.47 -0.147 0.102 3 
0.471 -0.155 0.102 3 
0.473 -0.185 0.102 3 
0.473 -0.197 0.103 3 
0.472 -0.205 0.103 3 
0.473 -0.217 0.103 3 
0.474 -0.227 0.103 3 
0.462 0.143 0.103 3 
0.459 0.324 0.082 3 
0.461 0.233 0.103 3 
0.458 0.272 0.013 3 
0.461 0.221 0.103 3 
0.462 0.213 0.103 3 
0.461 0.192 0.103 3 
0.481 -0.328 0.073 3 
0.462 0.184 0.103 3 
0.462 0.173 0.103 3 
0.461 0.164 0.103 3 
0.462 0.154 0.103 3 
0.475 -0.234 0.103 3 
0.462 0.134 0.103 3 
0.462 0.123 0.103 3 
0.463 0.113 0.103 3 
0.463 0.102 0.103 3 
0.463 0.083 0.103 3 
0.462 0.072 0.103 3 
0.462 0.064 0.103 3 
0.295 0.014 0.077 3 
0.479 -0.326 0.043 3 
0.461 0.184 0.092 3 
0.46 0.312 0.093 3 
0.46 0.303 0.093 3 
0.462 0.213 0.092 3 
0.46 0.274 0.093 3 
0.46 0.262 0.093 3 
0.46 0.253 0.093 3 
0.461 0.244 0.093 3 
0.489 -0.085 0.069 3 
0.462 0.233 0.093 3 
0.462 0.224 0.093 3 
0.461 0.192 0.092 3 
0.463 -0.015 0.013 3 
0.461 0.172 0.092 3 
0.462 0.064 0.052 3 
0.461 0.164 0.092 3 
0.461 0.153 0.092 3 
0.462 0.143 0.092 3 
0.462 0.132 0.092 3 
0.346 -0.009 0.069 3 
0.463 0.124 0.092 3 
0.474 -0.257 0.078 3 
0.464 0.113 0.092 3 
0.463 0.102 0.092 3 
0.483 -0.348 0.103 3 
0.48 -0.337 0.043 3 
0.475 -0.246 0.104 3 
0.475 -0.255 0.104 3 
0.476 -0.278 0.104 3 
0.477 -0.289 0.104 3 
0.293 0.01 0.074 3 
0.461 0.184 0.084 3 
0.477 -0.295 0.102 3 
0.479 -0.307 0.102 3 
0.481 -0.326 0.103 3 
0.482 -0.337 0.103 3 
0.467 -0.066 0.082 3 
0.48 -0.355 0.103 3 
0.461 0.048 0.094 3 
0.301 0.019 0.074 3 
0.49 -0.042 0.078 3 
0.298 0.014 0.074 3 
0.296 0.003 0.074 3 
0.474 -0.257 0.032 3 
0.474 -0.257 0.098 3 
0.458 0.333 0.093 3 
0.46 0.322 0.093 3 
0.325 -0.012 0.063 3 
0.357 0.046 0.064 3 
0.346 0.042 0.064 3 
0.342 0.039 0.064 3 
0.343 0.033 0.064 3 
0.347 0.029 0.064 3 
0.327 0.023 0.063 3 
0.33 -0.003 0.063 3 
0.349 -0.005 0.064 3 
0.355 -0.007 0.064 3 
0.336 -0.011 0.064 3 
0.337 -0.016 0.064 3 
0.461 0.184 0.033 3 
0.33 -0.017 0.063 3 
0.486 -0.076 0.069 3 
0.474 -0.279 0.069 3 
0.475 -0.274 0.072 3 
0.46 0.194 0.033 3 
0.472 -0.187 0.072 3 
0.473 -0.196 0.072 3 
0.473 -0.205 0.072 3 
0.472 -0.216 0.072 3 
0.473 -0.226 0.072 3 
0.474 -0.236 0.072 3 
0.474 -0.245 0.072 3 
0.474 -0.257 0.072 3 
0.471 -0.166 0.083 3 
0.475 -0.277 0.072 3 
0.475 -0.286 0.072 3 
0.477 -0.298 0.073 3 
0.478 -0.306 0.073 3 
0.479 -0.316 0.073 3 
0.48 -0.337 0.073 3 
0.481 -0.345 0.073 3 
0.481 -0.356 0.073 3 
0.465 0.108 0.068 3 
0.451 0.108 0.063 3 
0.46 0.243 0.062 3 
0.461 0.223 0.063 3 
0.461 0.212 0.063 3 
0.461 0.203 0.063 3 
0.461 0.192 0.063 3 
0.461 0.183 0.063 3 
0.461 0.172 0.063 3 
0.463 -0.036 0.013 3 
0.462 0.142 0.063 3 
0.463 0.132 0.063 3 
0.463 0.124 0.063 3 
0.461 0.253 0.062 3 
0.459 0.063 0.063 3 
0.454 0.057 0.063 3 
0.451 0.054 0.063 3 
0.33 0.006 0.06 3 
0.367 -0.035 0.063 3 
0.356 0.037 0.063 3 
0.355 0.034 0.063 3 
0.317 0.013 0.061 3 
0.352 -0.017 0.063 3 
0.447 -0.034 0.065 3 
0.448 -0.036 0.065 3 
0.474 -0.267 0.072 3 
0.364 -0.043 0.063 3 
0.459 0.272 0.024 3 
0.46 0.243 0.032 3 
0.475 -0.249 0.067 3 
0.475 -0.255 0.067 3 
0.46 0.322 0.062 3 
0.459 0.304 0.062 3 
0.459 0.292 0.062 3 
0.459 0.282 0.062 3 
0.461 0.253 0.073 3 
0.314 -0.01 0.067 3 
0.315 -0.011 0.067 3 
0.32 -0.016 0.067 3 
0.456 0.331 0.074 3 
0.459 0.324 0.074 3 
0.459 0.314 0.074 3 
0.458 0.303 0.073 3 
0.459 0.292 0.074 3 
0.46 0.283 0.074 3 
0.46 0.274 0.074 3 
0.461 0.262 0.073 3 
0.356 -0.006 0.069 3 
0.461 0.244 0.073 3 
0.461 0.232 0.073 3 
0.365 -0.026 0.066 3 
0.46 0.214 0.073 3 
0.461 0.203 0.073 3 
0.461 0.192 0.073 3 
0.461 0.184 0.073 3 
0.462 0.173 0.073 3 
0.462 0.153 0.073 3 
0.462 0.142 0.073 3 
0.462 0.123 0.073 3 
0.335 0.024 0.059 3 
0.471 -0.175 0.083 3 
0.472 -0.187 0.083 3 
0.473 -0.197 0.083 3 
0.474 -0.218 0.083 3 
0.474 -0.227 0.083 3 
0.474 -0.236 0.083 3 
0.475 -0.258 0.084 3 
0.476 -0.268 0.084 3 
0.475 -0.277 0.084 3 
0.476 -0.287 0.084 3 
0.477 -0.295 0.084 3 
0.461 0.223 0.073 3 
0.479 -0.317 0.082 3 
0.48 -0.325 0.082 3 
0.48 -0.337 0.082 3 
0.481 -0.345 0.082 3 
0.48 -0.355 0.082 3 
0.339 0.04 0.068 3 
0.309 0.032 0.066 3 
0.343 0.032 0.069 3 
0.349 0.03 0.069 3 
0.336 -0.004 0.068 3 
0.471 -0.166 0.074 3 
0.332 -0.018 0.066 3 
0.352 -0.022 0.068 3 
0.468 -0.085 0.074 3 
0.468 -0.096 0.074 3 
0.469 -0.107 0.074 3 
0.468 -0.115 0.074 3 
0.469 -0.126 0.074 3 
0.47 -0.135 0.074 3 
0.47 -0.146 0.074 3 
0.471 -0.155 0.074 3 
0.462 0.112 0.073 3 
0.316 0.02 0.064 3 
0.314 0.016 0.064 3 
0.311 0.014 0.064 3 
0.301 0.01 0.063 3 
0.312 0.004 0.064 3 
0.317 0.001 0.064 3 
0.327 -0.003 0.065 3 
0.339 -0.008 0.065 3 
0.315 0.001 0.065 3 
0.337 -0.016 0.065 3 
0.315 0.028 0.065 3 
0.332 0.034 0.066 3 
0.333 0.037 0.066 3 
0.345 0.043 0.067 3 
0.462 0.104 0.073 3 
0.462 0.094 0.073 3 
0.534 -0.034 0.061 3 
0.536 -0.028 0.061 3 
0.532 -0.024 0.061 3 
0.536 -0.025 0.054 3 
0.535 -0.018 0.054 3 
0.529 -0.018 0.087 3 
0.524 -0.014 0.051 3 
0.536 -0.018 0.061 3 
0.532 -0.018 0.051 3 
0.588 -0.036 0.114 3 
0.592 -0.036 0.119 3 
0.573 -0.042 0.098 3 
0.567 -0.016 0.108 3 
0.582 -0.02 0.11 3 
0.59 -0.021 0.126 3 
0.596 -0.025 0.111 3 
0.597 -0.048 0.127 3 
0.572 -0.023 0.094 3 
0.595 -0.021 0.119 3 
0.598 -0.044 0.127 3 
0.597 -0.029 0.127 3 
0.582 -0.043 0.106 3 
0.597 -0.036 0.123 3 
0.587 -0.028 0.114 3 
0.572 -0.031 0.098 3 
0.581 -0.028 0.102 3 
0.578 -0.035 0.102 3 
0.588 -0.021 0.114 3 
0.571 -0.027 0.094 3 
0.575 -0.031 0.094 3 
0.574 -0.038 0.094 3 
0.576 -0.042 0.094 3 
0.592 -0.021 0.122 3 
0.598 -0.025 0.123 3 
0.591 -0.028 0.122 3 
