# .PCD v0.7 - Point Cloud Data file
FIELDS x y z intensity
SIZE 4 4 4 4
TYPE F F F F
COUNT 1 1 1 1
WIDTH 2480
HEIGHT 1
VIEWPOINT 0 0 0 1 0 0 0
POINTS 2480
DATA ascii
0.356 0.014 0.001 0 
0.353 0.003 0.004 0 
0.355 0.002 0.002 0 
0.354 0.013 0.004 0 
0.374 -0.238 -0.026 1 
0.364 -0.149 -0.018 1 
0.36 -0.064 -0.015 1 
0.361 -0.036 -0.015 1 
0.36 -0.025 -0.015 1 
0.36 -0.015 -0.015 1 
0.353 0.017 -0.012 1 
0.358 0.071 -0.015 1 
0.357 0.074 -0.014 1 
0.352 0.114 -0.014 1 
0.35 0.124 -0.013 1 
0.353 0.154 -0.015 1 
0.351 0.156 -0.015 1 
0.381 -0.224 -0.025 1 
0.373 -0.198 -0.021 1 
0.364 -0.161 -0.017 1 
0.374 -0.146 -0.02 1 
0.363 -0.085 -0.014 1 
0.362 -0.055 -0.014 1 
0.364 0.03 -0.015 1 
0.363 0.034 -0.014 1 
0.363 0.044 -0.014 1 
0.364 0.054 -0.015 1 
0.362 0.078 -0.015 1 
0.36 0.083 -0.014 1 
0.361 0.092 -0.014 1 
0.361 0.094 -0.015 1 
0.361 0.1 -0.015 1 
0.354 0.13 -0.013 1 
0.353 0.168 -0.014 1 
0.353 0.172 -0.015 1 
0.354 0.175 -0.015 1 
0.384 -0.255 -0.026 1 
0.383 -0.248 -0.025 1 
0.385 -0.235 -0.025 1 
0.385 -0.23 -0.025 1 
0.374 -0.175 -0.019 1 
0.373 -0.136 -0.017 1 
0.374 -0.132 -0.017 1 
0.374 -0.116 -0.017 1 
0.374 -0.114 -0.017 1 
0.371 -0.096 -0.016 1 
0.367 -0.086 -0.014 1 
0.369 -0.085 -0.015 1 
0.374 -0.076 -0.016 1 
0.371 -0.045 -0.015 1 
0.373 -0.036 -0.016 1 
0.37 0.074 -0.016 1 
0.363 0.119 -0.014 1 
0.364 0.129 -0.015 1 
0.363 0.154 -0.015 1 
0.358 0.166 -0.014 1 
0.354 0.212 -0.015 1 
0.354 0.217 -0.016 1 
0.382 -0.205 -0.021 1 
0.378 -0.166 -0.018 1 
0.382 -0.156 -0.019 1 
0.373 -0.066 -0.014 1 
0.374 -0.059 -0.014 1 
0.373 -0.025 -0.014 1 
0.373 -0.016 -0.014 1 
0.363 0.016 -0.011 1 
0.374 0.026 -0.014 1 
0.372 0.043 -0.014 1 
0.374 0.054 -0.015 1 
0.372 0.082 -0.014 1 
0.374 0.1 -0.016 1 
0.37 0.114 -0.014 1 
0.37 0.121 -0.015 1 
0.373 0.133 -0.016 1 
0.368 0.164 -0.015 1 
0.364 0.174 -0.015 1 
0.364 0.192 -0.016 1 
0.362 0.203 -0.015 1 
0.394 -0.266 -0.025 1 
0.394 -0.258 -0.025 1 
0.391 -0.226 -0.022 1 
0.386 -0.215 -0.02 1 
0.39 -0.205 -0.021 1 
0.384 -0.128 -0.017 1 
0.384 -0.124 -0.017 1 
0.384 -0.106 -0.016 1 
0.382 -0.095 -0.015 1 
0.384 -0.089 -0.016 1 
0.382 -0.075 -0.015 1 
0.378 -0.066 -0.014 1 
0.38 -0.06 -0.014 1 
0.382 -0.055 -0.015 1 
0.381 -0.049 -0.015 1 
0.379 -0.045 -0.014 1 
0.381 -0.036 -0.015 1 
0.381 -0.03 -0.015 1 
0.379 -0.026 -0.014 1 
0.379 -0.016 -0.014 1 
0.368 -0.004 -0.01 1 
0.353 0.003 -0.005 1 
0.354 0.008 -0.006 1 
0.38 0.035 -0.015 1 
0.379 0.054 -0.015 1 
0.38 0.074 -0.015 1 
0.379 0.083 -0.015 1 
0.379 0.113 -0.016 1 
0.374 0.144 -0.015 1 
0.375 0.153 -0.015 1 
0.371 0.182 -0.015 1 
0.372 0.193 -0.016 1 
0.368 0.214 -0.016 1 
0.364 0.223 -0.015 1 
0.394 -0.247 -0.022 1 
0.405 -0.256 -0.025 1 
0.392 -0.157 -0.018 1 
0.39 -0.125 -0.017 1 
0.391 -0.115 -0.017 1 
0.389 -0.106 -0.016 1 
0.393 -0.085 -0.017 1 
0.386 -0.062 -0.014 1 
0.388 -0.055 -0.015 1 
0.384 -0.042 -0.014 1 
0.388 -0.029 -0.015 1 
0.374 -0.005 -0.011 1 
0.357 -0.001 -0.005 1 
0.384 0.033 -0.014 1 
0.383 0.043 -0.014 1 
0.383 0.051 -0.014 1 
0.385 0.053 -0.015 1 
0.384 0.097 -0.015 1 
0.383 0.123 -0.015 1 
0.38 0.144 -0.015 1 
0.383 0.163 -0.016 1 
0.374 0.222 -0.016 1 
0.373 0.05 -0.014 1 
0.404 -0.258 -0.023 1 
0.384 -0.215 -0.021 1 
0.401 -0.229 -0.021 1 
0.393 -0.076 -0.015 1 
0.392 -0.072 -0.014 1 
0.394 -0.066 -0.015 1 
0.395 -0.054 -0.015 1 
0.393 -0.048 -0.015 1 
0.392 -0.045 -0.014 1 
0.393 -0.04 -0.014 1 
0.394 -0.038 -0.015 1 
0.392 -0.025 -0.014 1 
0.391 -0.015 -0.014 1 
0.378 -0.005 -0.01 1 
0.391 0.053 -0.014 1 
0.391 0.057 -0.014 1 
0.392 0.063 -0.015 1 
0.392 0.073 -0.015 1 
0.392 0.084 -0.015 1 
0.39 0.091 -0.015 1 
0.388 0.093 -0.014 1 
0.389 0.097 -0.014 1 
0.391 0.104 -0.015 1 
0.388 0.124 -0.015 1 
0.388 0.134 -0.015 1 
0.384 0.157 -0.014 1 
0.412 -0.269 -0.023 1 
0.412 -0.255 -0.023 1 
0.411 -0.246 -0.022 1 
0.403 -0.207 -0.019 1 
0.401 -0.145 -0.016 1 
0.401 -0.136 -0.016 1 
0.401 -0.105 -0.016 1 
0.399 -0.076 -0.015 1 
0.4 -0.066 -0.015 1 
0.401 -0.056 -0.015 1 
0.399 -0.041 -0.014 1 
0.402 -0.035 -0.015 1 
0.4 -0.024 -0.015 1 
0.394 0.039 -0.013 1 
0.396 0.094 -0.015 1 
0.396 0.104 -0.015 1 
0.352 0.204 -0.016 1 
0.395 0.143 -0.015 1 
0.394 0.144 -0.015 1 
0.395 0.149 -0.015 1 
0.394 0.153 -0.015 1 
0.393 0.163 -0.015 1 
0.388 0.181 -0.015 1 
0.387 0.184 -0.014 1 
0.39 0.224 -0.017 1 
0.382 0.243 -0.016 1 
0.383 0.249 -0.016 1 
0.413 -0.285 -0.022 1 
0.411 -0.236 -0.019 1 
0.411 -0.225 -0.019 1 
0.403 -0.195 -0.016 1 
0.404 -0.186 -0.016 1 
0.391 -0.252 -0.026 1 
0.409 -0.115 -0.016 1 
0.41 -0.107 -0.016 1 
0.405 -0.067 -0.014 1 
0.403 -0.046 -0.013 1 
0.399 -0.016 -0.012 1 
0.391 -0.005 -0.01 1 
0.352 0.138 -0.014 1 
0.378 0.017 -0.006 1 
0.393 0.027 -0.011 1 
0.401 0.044 -0.013 1 
0.404 0.054 -0.014 1 
0.394 -0.197 -0.018 1 
0.405 0.062 -0.015 1 
0.405 0.071 -0.015 1 
0.404 0.073 -0.014 1 
0.402 0.114 -0.015 1 
0.403 0.123 -0.015 1 
0.401 0.129 -0.015 1 
0.397 0.153 -0.014 1 
0.397 0.174 -0.015 1 
0.395 0.184 -0.015 1 
0.395 0.186 -0.015 1 
0.392 0.193 -0.014 1 
0.392 0.198 -0.014 1 
0.392 0.244 -0.016 1 
0.424 -0.268 -0.022 1 
0.422 -0.257 -0.021 1 
0.419 -0.238 -0.019 1 
0.417 -0.226 -0.018 1 
0.41 -0.195 -0.016 1 
0.414 -0.169 -0.016 1 
0.412 -0.156 -0.015 1 
0.409 -0.15 -0.014 1 
0.353 0.194 -0.016 1 
0.414 -0.136 -0.015 1 
0.415 -0.104 -0.015 1 
0.413 -0.097 -0.015 1 
0.412 -0.094 -0.014 1 
0.414 -0.086 -0.015 1 
0.414 -0.077 -0.015 1 
0.414 -0.066 -0.015 1 
0.411 -0.045 -0.014 1 
0.413 -0.025 -0.014 1 
0.397 -0.005 -0.01 1 
0.404 0.032 -0.012 1 
0.41 0.073 -0.014 1 
0.403 0.134 -0.013 1 
0.391 0.024 -0.01 1 
0.404 0.141 -0.014 1 
0.402 0.163 -0.013 1 
0.402 0.182 -0.014 1 
0.399 0.194 -0.014 1 
0.404 0.218 -0.016 1 
0.404 0.23 -0.017 1 
0.423 -0.296 -0.02 1 
0.424 -0.291 -0.02 1 
0.421 -0.217 -0.017 1 
0.419 -0.195 -0.016 1 
0.422 -0.167 -0.016 1 
0.421 -0.135 -0.015 1 
0.421 -0.107 -0.015 1 
0.422 -0.079 -0.015 1 
0.42 -0.076 -0.014 1 
0.42 -0.065 -0.014 1 
0.42 -0.056 -0.014 1 
0.42 -0.047 -0.014 1 
0.384 -0.186 -0.018 1 
0.39 -0.147 -0.017 1 
0.401 0.104 -0.014 1 
0.42 -0.035 -0.014 1 
0.418 -0.026 -0.014 1 
0.401 0.019 -0.009 1 
0.414 0.054 -0.013 1 
0.411 0.134 -0.013 1 
0.412 0.144 -0.014 1 
0.412 0.153 -0.014 1 
0.408 0.162 -0.013 1 
0.408 0.214 -0.015 1 
0.399 -0.237 -0.023 1 
0.36 0.014 -0.006 1 
0.411 0.224 -0.016 1 
0.404 0.243 -0.015 1 
0.401 0.264 -0.015 1 
0.401 0.269 -0.015 1 
0.429 -0.205 -0.016 1 
0.427 -0.198 -0.016 1 
0.425 -0.192 -0.015 1 
0.427 -0.176 -0.015 1 
0.424 -0.156 -0.014 1 
0.424 -0.149 -0.014 1 
0.428 -0.036 -0.014 1 
0.427 -0.011 -0.014 1 
0.383 0.213 -0.016 1 
0.422 0.032 -0.013 1 
0.42 -0.176 -0.016 1 
0.421 0.044 -0.012 1 
0.421 0.064 -0.013 1 
0.42 0.073 -0.012 1 
0.423 0.093 -0.013 1 
0.42 0.103 -0.013 1 
0.421 0.123 -0.013 1 
0.414 0.194 -0.013 1 
0.4 0.063 -0.015 1 
0.412 0.212 -0.013 1 
0.415 0.228 -0.015 1 
0.414 0.232 -0.015 1 
0.415 0.241 -0.015 1 
0.414 0.242 -0.015 1 
0.412 0.254 -0.015 1 
0.41 0.254 -0.014 1 
0.411 0.258 -0.015 1 
0.41 0.271 -0.015 1 
0.432 -0.306 -0.018 1 
0.434 -0.275 -0.017 1 
0.434 -0.246 -0.016 1 
0.432 -0.225 -0.015 1 
0.429 -0.216 -0.014 1 
0.43 -0.206 -0.014 1 
0.375 -0.07 -0.015 1 
0.432 -0.197 -0.014 1 
0.431 -0.186 -0.014 1 
0.432 -0.176 -0.014 1 
0.433 -0.137 -0.014 1 
0.431 -0.126 -0.013 1 
0.431 -0.116 -0.013 1 
0.433 -0.107 -0.013 1 
0.432 -0.097 -0.013 1 
0.432 -0.085 -0.013 1 
0.433 -0.075 -0.013 1 
0.433 -0.066 -0.013 1 
0.432 -0.056 -0.013 1 
0.405 -0.005 -0.006 1 
0.431 0.043 -0.013 1 
0.428 0.054 -0.012 1 
0.424 0.153 -0.012 1 
0.423 0.162 -0.012 1 
0.42 0.183 -0.012 1 
0.421 0.194 -0.013 1 
0.421 0.283 -0.016 1 
0.44 -0.296 -0.017 1 
0.441 -0.279 -0.016 1 
0.438 -0.256 -0.015 1 
0.439 -0.24 -0.015 1 
0.439 -0.226 -0.014 1 
0.434 -0.16 -0.012 1 
0.434 -0.152 -0.012 1 
0.439 -0.075 -0.012 1 
0.404 0.056 -0.014 1 
0.44 -0.035 -0.012 1 
0.421 0.053 -0.012 1 
0.44 -0.026 -0.012 1 
0.409 -0.005 -0.004 1 
0.434 0.063 -0.011 1 
0.434 0.072 -0.011 1 
0.434 0.082 -0.011 1 
0.414 -0.063 -0.015 1 
0.434 0.094 -0.012 1 
0.434 0.124 -0.012 1 
0.431 0.142 -0.012 1 
0.429 0.154 -0.011 1 
0.424 0.204 -0.011 1 
0.424 0.212 -0.012 1 
0.424 0.222 -0.012 1 
0.424 0.233 -0.012 1 
0.423 0.243 -0.012 1 
0.421 0.252 -0.012 1 
0.424 0.272 -0.014 1 
0.424 0.283 -0.014 1 
0.426 0.291 -0.015 1 
0.423 0.294 -0.014 1 
0.445 -0.298 -0.015 1 
0.439 -0.256 -0.012 1 
0.441 -0.247 -0.013 1 
0.414 0.103 -0.013 1 
0.443 -0.237 -0.013 1 
0.442 -0.218 -0.012 1 
0.444 -0.195 -0.012 1 
0.443 -0.186 -0.012 1 
0.442 -0.175 -0.012 1 
0.442 -0.167 -0.011 1 
0.439 -0.157 -0.011 1 
0.443 -0.147 -0.011 1 
0.444 -0.129 -0.011 1 
0.443 -0.116 -0.011 1 
0.443 -0.106 -0.011 1 
0.405 -0.096 -0.014 1 
0.443 -0.096 -0.011 1 
0.424 0.079 -0.011 1 
0.443 -0.093 -0.011 1 
0.442 -0.065 -0.01 1 
0.444 -0.056 -0.011 1 
0.406 0.019 -0.002 1 
0.443 0.032 -0.011 1 
0.442 0.042 -0.011 1 
0.443 0.052 -0.011 1 
0.441 0.064 -0.011 1 
0.441 0.074 -0.011 1 
0.44 0.084 -0.011 1 
0.438 0.113 -0.01 1 
0.434 0.162 -0.011 1 
0.433 0.174 -0.011 1 
0.433 0.18 -0.011 1 
0.432 0.194 -0.011 1 
0.453 -0.32 -0.015 1 
0.451 -0.298 -0.014 1 
0.443 -0.272 -0.011 1 
0.447 -0.216 -0.011 1 
0.452 -0.195 -0.012 1 
0.451 -0.156 -0.011 1 
0.451 -0.146 -0.011 1 
0.451 -0.135 -0.011 1 
0.448 -0.126 -0.01 1 
0.448 -0.115 -0.01 1 
0.45 -0.106 -0.01 1 
0.451 -0.096 -0.01 1 
0.44 -0.205 -0.012 1 
0.454 -0.086 -0.011 1 
0.452 -0.075 -0.01 1 
0.45 -0.065 -0.01 1 
0.451 -0.055 -0.01 1 
0.452 -0.037 -0.01 1 
0.454 -0.014 -0.011 1 
0.444 0.123 -0.009 1 
0.443 0.133 -0.009 1 
0.439 0.163 -0.009 1 
0.436 0.171 -0.009 1 
0.41 0.191 -0.015 1 
0.437 0.182 -0.009 1 
0.434 0.204 -0.009 1 
0.433 0.224 -0.009 1 
0.434 0.231 -0.01 1 
0.344 0.168 -0.013 1 
0.434 0.25 -0.01 1 
0.434 0.259 -0.011 1 
0.434 0.273 -0.011 1 
0.433 0.284 -0.011 1 
0.429 0.301 -0.011 1 
0.453 -0.285 -0.011 1 
0.453 -0.275 -0.011 1 
0.418 0.133 -0.013 1 
0.454 -0.267 -0.011 1 
0.453 -0.255 -0.01 1 
0.451 -0.247 -0.01 1 
0.452 -0.236 -0.01 1 
0.454 -0.232 -0.01 1 
0.454 -0.21 -0.01 1 
0.454 -0.188 -0.009 1 
0.404 -0.275 -0.024 1 
0.361 -0.006 -0.013 1 
0.407 -0.215 -0.018 1 
0.354 -0.006 -0.013 1 
0.454 0.031 -0.008 1 
0.442 0.143 -0.009 1 
0.454 0.044 -0.008 1 
0.454 0.052 -0.009 1 
0.454 0.06 -0.009 1 
0.453 0.072 -0.008 1 
0.452 0.093 -0.008 1 
0.451 0.103 -0.008 1 
0.449 0.133 -0.008 1 
0.438 0.204 -0.007 1 
0.44 0.244 -0.009 1 
0.441 0.274 -0.01 1 
0.439 0.281 -0.01 1 
0.458 -0.256 -0.009 1 
0.461 -0.115 -0.007 1 
0.453 0.154 -0.007 1 
0.451 0.164 -0.007 1 
0.387 0.231 -0.016 1 
0.45 0.183 -0.007 1 
0.45 0.194 -0.007 1 
0.446 0.204 -0.007 1 
0.445 0.212 -0.006 1 
0.444 0.292 -0.009 1 
0.443 0.304 -0.009 1 
0.407 -0.036 -0.015 1 
0.44 0.313 -0.009 1 
0.463 -0.337 -0.009 1 
0.383 0.183 -0.015 1 
0.461 -0.315 -0.008 1 
0.462 -0.216 -0.006 1 
0.462 -0.196 -0.006 1 
0.463 -0.177 -0.006 1 
0.465 -0.172 -0.006 1 
0.463 -0.157 -0.006 1 
0.464 -0.136 -0.006 1 
0.403 -0.265 -0.023 1 
0.465 -0.117 -0.006 1 
0.465 -0.106 -0.006 1 
0.464 -0.076 -0.005 1 
0.384 -0.237 -0.025 1 
0.464 -0.055 -0.005 1 
0.463 -0.036 -0.005 1 
0.41 -0.186 -0.015 1 
0.478 -0.013 -0.008 1 
0.463 0.043 -0.005 1 
0.463 0.064 -0.005 1 
0.373 0.017 -0.007 1 
0.461 0.074 -0.005 1 
0.46 0.093 -0.005 1 
0.419 -0.146 -0.015 1 
0.459 0.114 -0.005 1 
0.459 0.124 -0.005 1 
0.456 0.173 -0.005 1 
0.455 0.183 -0.005 1 
0.456 0.203 -0.006 1 
0.409 0.092 -0.014 1 
0.455 0.214 -0.006 1 
0.454 0.224 -0.006 1 
0.452 0.234 -0.006 1 
0.45 0.244 -0.006 1 
0.449 0.252 -0.006 1 
0.449 0.264 -0.006 1 
0.444 0.317 -0.007 1 
0.452 -0.045 -0.01 1 
0.469 -0.307 -0.007 1 
0.459 0.133 -0.005 1 
0.468 -0.286 -0.006 1 
0.469 -0.275 -0.006 1 
0.47 -0.257 -0.006 1 
0.47 -0.248 -0.005 1 
0.467 -0.225 -0.005 1 
0.464 -0.036 -0.003 1 
0.464 -0.028 -0.003 1 
0.463 0.094 -0.003 1 
0.454 0.248 -0.004 1 
0.457 0.253 -0.005 1 
0.454 0.262 -0.004 1 
0.454 0.271 -0.004 1 
0.454 0.284 -0.005 1 
0.453 0.292 -0.005 1 
0.452 0.304 -0.005 1 
0.453 0.311 -0.005 1 
0.453 0.324 -0.006 1 
0.453 0.327 -0.006 1 
0.47 -0.349 -0.005 1 
0.471 -0.336 -0.005 1 
0.432 0.133 -0.012 1 
0.444 0.262 -0.008 1 
0.471 -0.329 -0.005 1 
0.383 0.152 -0.014 1 
0.47 -0.321 -0.004 1 
0.364 -0.079 -0.015 1 
0.473 -0.317 -0.005 1 
0.464 0.027 0 1 
0.464 0.113 -0.001 1 
0.464 0.124 -0.001 1 
0.454 0.302 -0.003 1 
0.459 0.334 -0.005 1 
0.474 -0.325 -0.002 1 
0.473 -0.307 -0.002 1 
0.353 0.144 -0.015 1 
0.475 -0.296 0 1 
0.475 -0.286 0 1 
0.475 -0.28 0.001 1 
0.476 -0.235 0.001 1 
0.473 -0.215 0.002 1 
0.471 -0.205 0.002 1 
0.47 -0.195 0.003 1 
0.47 -0.186 0.003 1 
0.47 -0.166 0.003 1 
0.47 -0.155 0.003 1 
0.47 -0.147 0.003 1 
0.374 -0.206 -0.022 1 
0.421 0.113 -0.013 1 
0.471 -0.136 0.003 1 
0.414 -0.134 -0.015 1 
0.467 -0.015 0.004 1 
0.497 -0.013 0 1 
0.469 -0.235 -0.005 1 
0.486 -0.01 0.001 1 
0.471 -0.007 0.003 1 
0.424 0.003 0.012 1 
0.464 0.024 0.004 1 
0.409 0.126 -0.015 1 
0.465 0.073 0.004 1 
0.466 0.084 0.004 1 
0.466 0.092 0.004 1 
0.463 0.151 0.003 1 
0.464 0.171 0.003 1 
0.465 0.178 0.003 1 
0.464 0.183 0.003 1 
0.465 0.189 0.002 1 
0.464 0.194 0.003 1 
0.464 0.203 0.002 1 
0.465 0.221 0.002 1 
0.464 0.223 0.002 1 
0.464 0.232 0.002 1 
0.471 -0.353 0.002 1 
0.359 0.104 -0.014 1 
0.477 -0.335 0.002 1 
0.42 -0.085 -0.014 1 
0.477 -0.325 0.002 1 
0.474 -0.295 0.003 1 
0.474 -0.285 0.004 1 
0.473 -0.275 0.004 1 
0.473 -0.266 0.004 1 
0.473 -0.233 0.004 1 
0.433 0.293 -0.012 1 
0.464 -0.007 0.007 1 
0.466 -0.085 -0.006 1 
0.465 0.094 0.006 1 
0.465 0.102 0.006 1 
0.465 -0.125 -0.006 1 
0.465 0.127 0.006 1 
0.463 0.252 0.004 1 
0.463 0.273 0.004 1 
0.464 0.293 0.003 1 
0.464 0.3 0.003 1 
0.465 0.304 0.003 1 
0.464 0.313 0.003 1 
0.463 0.321 0.003 1 
0.466 0.331 0.002 1 
0.464 0.333 0.002 1 
0.373 0.145 -0.014 1 
0.467 0.344 0.001 1 
0.479 -0.348 0.004 1 
0.37 -0.027 -0.015 1 
0.464 0.054 -0.005 1 
0.462 0.032 -0.005 1 
0.404 -0.156 -0.017 1 
0.465 -0.007 0.012 1 
0.465 -0.004 0.012 1 
0.463 0.003 0.013 1 
0.464 -0.012 -0.008 1 
0.463 0.014 0.013 1 
0.463 0.024 0.013 1 
0.464 -0.047 -0.005 1 
0.464 -0.065 -0.005 1 
0.41 0.203 -0.013 1 
0.381 -0.147 -0.018 1 
0.463 -0.086 -0.008 1 
0.464 -0.111 -0.005 1 
0.414 0.115 -0.014 1 
0.372 0.237 -0.016 1 
0.464 0.024 0.015 1 
0.464 -0.13 -0.005 1 
0.463 -0.146 -0.005 1 
0.466 0.103 0.004 1 
0.408 0.263 -0.014 1 
0.463 -0.165 -0.006 1 
0.462 -0.185 -0.006 1 
0.464 -0.229 -0.007 1 
0.45 -0.307 -0.014 1 
0.457 -0.246 -0.008 1 
0.459 -0.266 -0.009 1 
0.461 -0.286 -0.01 1 
0.444 0.253 -0.007 1 
0.464 -0.328 -0.009 1 
0.439 0.104 -0.011 1 
0.443 -0.275 -0.011 1 
0.412 0.112 -0.013 1 
0.427 -0.141 -0.015 1 
0.371 0.112 -0.015 1 
0.389 0.172 -0.015 1 
0.437 -0.269 -0.015 1 
0.464 0.014 0.015 1 
0.444 -0.323 -0.019 1 
0.402 -0.086 -0.016 1 
0.401 0.203 -0.015 1 
0.434 -0.047 -0.013 1 
0.454 0.144 -0.007 1 
0.431 -0.287 -0.019 1 
0.42 -0.156 -0.015 1 
0.438 -0.247 -0.015 1 
0.47 -0.127 0.003 1 
0.458 0.143 -0.005 1 
0.454 -0.18 -0.009 1 
0.394 0.259 -0.015 1 
0.364 0.063 -0.015 1 
0.474 -0.245 0.004 1 
0.361 0.114 -0.013 1 
0.453 -0.019 -0.011 1 
0.416 -0.015 -0.013 1 
0.469 -0.297 -0.006 1 
0.464 0.244 0.004 1 
0.444 -0.011 -0.013 1 
0.361 -0.066 -0.015 1 
0.441 0.153 -0.009 1 
0.416 0.023 -0.011 1 
0.401 0.251 -0.014 1 
0.353 0.163 -0.014 1 
0.409 0.02 -0.005 1 
0.413 -0.036 -0.014 1 
0.357 0.144 -0.015 1 
0.462 0.337 0 1 
0.423 -0.206 -0.017 1 
0.445 -0.305 -0.015 1 
0.444 0.214 -0.006 1 
0.362 0.134 -0.014 1 
0.464 0.083 -0.003 1 
0.41 0.064 -0.014 1 
0.402 0.173 -0.014 1 
0.372 -0.215 -0.024 1 
0.441 -0.045 -0.012 1 
0.374 -0.186 -0.019 1 
0.37 -0.067 -0.015 1 
0.424 -0.276 -0.022 1 
0.433 0.114 -0.012 1 
0.384 0.089 -0.015 1 
0.41 0.28 -0.016 1 
0.457 0.153 -0.005 1 
0.393 0.203 -0.015 1 
0.403 0.212 -0.016 1 
0.475 -0.246 0.001 1 
0.373 0.056 -0.014 1 
0.479 -0.01 0 1 
0.476 -0.232 0.001 1 
0.464 0.035 -0.003 1 
0.373 0.149 -0.015 1 
0.38 0.234 -0.017 1 
0.426 -0.162 -0.015 1 
0.466 0.321 0.002 1 
0.353 0.104 -0.014 1 
0.392 -0.235 -0.023 1 
0.473 -0.236 0.004 1 
0.4 0.108 -0.014 1 
0.372 0.084 -0.015 1 
0.414 0.222 -0.014 1 
0.427 -0.165 -0.015 1 
0.394 -0.1 -0.015 1 
0.434 -0.235 -0.016 1 
0.373 0.094 -0.015 1 
0.469 -0.01 -0.006 1 
0.434 -0.266 -0.017 1 
0.411 -0.056 -0.014 1 
0.421 0.174 -0.012 1 
0.464 -0.295 -0.008 1 
0.412 -0.147 -0.015 1 
0.404 -0.174 -0.018 1 
0.424 -0.245 -0.018 1 
0.409 0.122 -0.015 1 
0.464 0.132 -0.001 1 
0.381 0.202 -0.015 1 
0.382 0.193 -0.015 1 
0.369 -0.052 -0.014 1 
0.374 0.06 -0.015 1 
0.431 -0.222 -0.015 1 
0.408 -0.268 -0.025 1 
0.36 0.163 -0.015 1 
0.413 0.174 -0.013 1 
0.387 0.251 -0.015 1 
0.464 -0.023 -0.005 1 
0.419 -0.097 -0.014 1 
0.364 -0.092 -0.015 1 
0.466 0.114 0.003 1 
0.39 0.112 -0.015 1 
0.464 0.143 0.003 1 
0.363 -0.105 -0.017 1 
0.463 0.104 -0.003 1 
0.44 0.094 -0.011 1 
0.45 0.113 -0.008 1 
0.398 0.054 -0.015 1 
0.46 0.082 -0.005 1 
0.38 0.033 -0.015 1 
0.414 0.179 -0.013 1 
0.451 -0.027 -0.01 1 
0.413 0.042 -0.012 1 
0.398 0.073 -0.015 1 
0.423 0.262 -0.013 1 
0.416 0.144 -0.012 1 
0.444 -0.288 -0.015 1 
0.434 -0.296 -0.018 1 
0.464 -0.025 -0.005 1 
0.403 -0.217 -0.019 1 
0.402 -0.175 -0.017 1 
0.454 0.274 -0.005 1 
0.393 -0.175 -0.019 1 
0.413 -0.176 -0.016 1 
0.443 -0.016 -0.013 1 
0.371 0.033 -0.015 1 
0.463 0.162 0.003 1 
0.404 0.075 -0.015 1 
0.43 0.024 -0.012 1 
0.455 0.219 -0.006 1 
0.361 -0.096 -0.016 1 
0.384 -0.184 -0.018 1 
0.463 0.264 0.004 1 
0.381 -0.226 -0.025 1 
0.401 -0.096 -0.015 1 
0.444 -0.137 -0.011 1 
0.465 0.124 0.006 1 
0.403 -0.126 -0.016 1 
0.421 0.263 -0.015 1 
0.474 -0.336 -0.002 1 
0.384 0.134 -0.016 1 
0.364 -0.047 -0.014 1 
0.433 0.104 -0.011 1 
0.374 0.234 -0.017 1 
0.431 -0.025 -0.013 1 
0.424 -0.186 -0.015 1 
0.364 -0.015 -0.014 1 
0.408 -0.206 -0.018 1 
0.393 0.133 -0.014 1 
0.432 0.034 -0.013 1 
0.363 -0.081 -0.014 1 
0.364 0.184 -0.015 1 
0.418 0.274 -0.015 1 
0.44 -0.309 -0.017 1 
0.382 0.224 -0.017 1 
0.433 -0.257 -0.016 1 
0.374 -0.155 -0.018 1 
0.384 -0.195 -0.019 1 
0.453 0.083 -0.009 1 
0.394 0.206 -0.015 1 
0.422 -0.126 -0.015 1 
0.374 0.037 -0.015 1 
0.372 0.174 -0.015 1 
0.362 0.048 -0.014 1 
0.394 -0.258 -0.022 1 
0.371 0.087 -0.014 1 
0.422 -0.008 -0.012 1 
0.42 0.012 0.012 1 
0.402 0.083 -0.014 1 
0.442 0.194 -0.008 1 
0.409 0.083 -0.014 1 
0.359 0.164 -0.014 1 
0.468 -0.265 -0.005 1 
0.425 -0.001 0.011 1 
0.402 0.254 -0.015 1 
0.463 0.283 0.004 1 
0.362 0.143 -0.014 1 
0.413 0.033 -0.012 1 
0.404 -0.025 -0.014 1 
0.473 -0.256 0.004 1 
0.394 -0.194 -0.018 1 
0.364 -0.115 -0.015 1 
0.403 0.197 -0.013 1 
0.38 0.064 -0.015 1 
0.42 -0.116 -0.015 1 
0.464 -0.095 -0.008 1 
0.433 0.214 -0.009 1 
0.441 0.223 -0.008 1 
0.421 0.292 -0.016 1 
0.392 -0.165 -0.018 1 
0.414 -0.283 -0.022 1 
0.407 -0.027 -0.015 1 
0.464 0.072 -0.003 1 
0.464 0.046 -0.003 1 
0.411 0.182 -0.015 1 
0.477 -0.315 0.002 1 
0.462 -0.207 -0.006 1 
0.454 -0.169 -0.009 1 
0.451 0.172 -0.007 1 
0.403 -0.026 -0.015 1 
0.384 0.173 -0.015 1 
0.383 0.094 -0.014 1 
0.456 0.164 -0.005 1 
0.464 -0.28 -0.008 1 
0.43 -0.165 -0.013 1 
0.404 -0.115 -0.017 1 
0.443 0.233 -0.009 1 
0.467 -0.096 -0.006 1 
0.449 0.123 -0.008 1 
0.455 0.191 -0.006 1 
0.464 0.214 0.002 1 
0.434 0.236 -0.01 1 
0.466 -0.015 -0.006 1 
0.406 -0.016 -0.012 1 
0.434 -0.018 -0.013 1 
0.465 -0.079 -0.005 1 
0.452 -0.329 -0.015 1 
0.464 -0.237 -0.007 1 
0.404 -0.247 -0.022 1 
0.382 -0.135 -0.016 1 
0.365 -0.021 -0.015 1 
0.418 0.016 0.013 1 
0.372 0.202 -0.017 1 
0.359 0.213 -0.015 1 
0.465 0.124 0.003 1 
0.46 0.103 -0.005 1 
0.462 -0.306 -0.008 1 
0.388 -0.135 -0.016 1 
0.371 -0.165 -0.017 1 
0.401 0.094 -0.014 1 
0.47 -0.175 0.003 1 
0.354 0.013 0.028 2 
0.354 -0.002 0.028 2 
0.358 0.012 0.034 2 
0.359 0.003 0.027 2 
0.354 -0.002 0.033 2 
0.354 0.013 0.026 2 
0.355 0.012 0.026 2 
0.355 0.003 0.019 2 
0.479 -0.295 0.152 3 
0.466 0.253 0.144 3 
0.466 0.262 0.144 3 
0.465 0.243 0.144 3 
0.465 0.152 0.063 3 
0.466 0.272 0.144 3 
0.466 -0.015 0.084 3 
0.465 0.28 0.144 3 
0.483 -0.326 0.154 3 
0.482 -0.315 0.154 3 
0.479 -0.305 0.152 3 
0.466 0.162 0.142 3 
0.465 0.234 0.143 3 
0.464 0.222 0.143 3 
0.465 0.219 0.143 3 
0.464 0.183 0.033 3 
0.464 0.213 0.143 3 
0.465 0.211 0.143 3 
0.465 0.202 0.143 3 
0.465 0.193 0.142 3 
0.466 0.182 0.142 3 
0.466 0.173 0.142 3 
0.472 -0.156 0.124 3 
0.473 -0.265 0.013 3 
0.467 0.063 0.144 3 
0.466 0.193 0.134 3 
0.477 -0.255 0.153 3 
0.478 -0.268 0.154 3 
0.478 -0.275 0.154 3 
0.465 0.183 0.044 3 
0.467 0.118 0.144 3 
0.467 0.112 0.144 3 
0.475 -0.246 0.112 3 
0.467 0.085 0.144 3 
0.467 0.082 0.144 3 
0.464 0.163 0.063 3 
0.467 0.074 0.144 3 
0.479 -0.285 0.152 3 
0.467 0.052 0.144 3 
0.467 0.044 0.144 3 
0.467 0.033 0.144 3 
0.471 -0.147 0.074 3 
0.467 0.022 0.144 3 
0.467 0.003 0.144 3 
0.467 -0.006 0.144 3 
0.468 -0.015 0.144 3 
0.468 -0.025 0.144 3 
0.468 -0.047 0.144 3 
0.474 -0.225 0.149 3 
0.462 0.242 0.013 3 
0.477 -0.277 0.142 3 
0.474 -0.207 0.142 3 
0.474 -0.216 0.143 3 
0.474 -0.225 0.143 3 
0.465 0.141 0.114 3 
0.475 -0.237 0.143 3 
0.475 -0.247 0.144 3 
0.476 -0.257 0.144 3 
0.464 0.305 0.139 3 
0.475 -0.302 0.012 3 
0.464 0.225 0.137 3 
0.474 -0.237 0.14 3 
0.474 -0.246 0.14 3 
0.465 0.303 0.142 3 
0.478 -0.287 0.143 3 
0.471 -0.207 0.013 3 
0.479 -0.295 0.143 3 
0.479 -0.305 0.143 3 
0.464 0.292 0.136 3 
0.464 0.222 0.134 3 
0.464 0.213 0.134 3 
0.474 -0.267 0.121 3 
0.464 0.204 0.134 3 
0.465 0.198 0.134 3 
0.465 0.262 0.063 3 
0.471 -0.125 0.143 3 
0.467 0.143 0.142 3 
0.474 -0.258 0.124 3 
0.467 0.134 0.142 3 
0.468 0.104 0.142 3 
0.469 -0.055 0.142 3 
0.47 -0.067 0.142 3 
0.467 0.022 0.103 3 
0.465 0.166 0.052 3 
0.47 -0.077 0.142 3 
0.47 -0.086 0.142 3 
0.471 -0.105 0.143 3 
0.472 -0.117 0.143 3 
0.466 0.153 0.142 3 
0.472 -0.145 0.144 3 
0.472 -0.157 0.144 3 
0.472 -0.165 0.144 3 
0.472 -0.177 0.144 3 
0.472 -0.185 0.144 3 
0.483 -0.336 0.152 3 
0.482 -0.346 0.152 3 
0.465 0.343 0.144 3 
0.467 0.331 0.144 3 
0.467 0.321 0.143 3 
0.466 0.313 0.143 3 
0.467 0.154 0.153 3 
0.464 0.301 0.136 3 
0.479 -0.286 0.164 3 
0.479 -0.295 0.164 3 
0.465 0.232 0.154 3 
0.465 0.223 0.154 3 
0.471 -0.135 0.083 3 
0.467 0.206 0.154 3 
0.467 0.204 0.154 3 
0.466 0.194 0.154 3 
0.465 0.182 0.153 3 
0.466 0.173 0.153 3 
0.467 0.163 0.153 3 
0.479 -0.276 0.163 3 
0.468 0.143 0.153 3 
0.466 0.122 0.063 3 
0.468 0.132 0.153 3 
0.468 0.124 0.153 3 
0.467 0.033 0.063 3 
0.468 0.113 0.153 3 
0.467 0.104 0.153 3 
0.468 0.093 0.153 3 
0.476 -0.266 0.144 3 
0.467 0.082 0.152 3 
0.467 0.074 0.152 3 
0.476 -0.217 0.163 3 
0.466 0.333 0.114 3 
0.467 0.283 0.162 3 
0.466 0.272 0.162 3 
0.473 -0.175 0.162 3 
0.466 0.123 0.122 3 
0.473 -0.186 0.162 3 
0.47 -0.105 0.104 3 
0.473 -0.256 0.052 3 
0.468 -0.036 0.044 3 
0.475 -0.196 0.163 3 
0.466 0.114 0.052 3 
0.475 -0.205 0.163 3 
0.467 0.063 0.152 3 
0.474 -0.257 0.044 3 
0.474 -0.285 0.012 3 
0.476 -0.227 0.164 3 
0.476 -0.236 0.164 3 
0.484 -0.353 0.171 3 
0.468 0.348 0.162 3 
0.467 0.343 0.162 3 
0.474 -0.196 0.159 3 
0.477 -0.246 0.162 3 
0.477 -0.255 0.162 3 
0.478 -0.268 0.163 3 
0.473 -0.175 0.153 3 
0.466 0.282 0.153 3 
0.466 0.263 0.153 3 
0.466 0.254 0.153 3 
0.465 0.244 0.152 3 
0.468 -0.14 0.014 3 
0.473 -0.126 0.152 3 
0.473 -0.137 0.152 3 
0.462 0.337 0.062 3 
0.473 -0.146 0.152 3 
0.472 -0.157 0.152 3 
0.473 -0.166 0.153 3 
0.475 -0.274 0.098 3 
0.466 0.294 0.154 3 
0.472 -0.186 0.153 3 
0.473 -0.195 0.153 3 
0.465 0.232 0.063 3 
0.476 -0.208 0.154 3 
0.468 0.347 0.154 3 
0.466 0.341 0.153 3 
0.468 0.333 0.153 3 
0.468 0.323 0.152 3 
0.467 0.312 0.152 3 
0.474 -0.219 0.151 3 
0.475 -0.226 0.152 3 
0.471 -0.086 0.154 3 
0.468 0.052 0.153 3 
0.468 0.044 0.153 3 
0.468 0.033 0.153 3 
0.468 0.022 0.153 3 
0.468 0.014 0.153 3 
0.468 -0.007 0.153 3 
0.469 -0.015 0.153 3 
0.469 -0.025 0.153 3 
0.47 -0.056 0.153 3 
0.461 0.333 0.062 3 
0.47 -0.067 0.153 3 
0.47 -0.075 0.153 3 
0.475 -0.235 0.152 3 
0.471 -0.097 0.154 3 
0.474 -0.248 0.092 3 
0.471 -0.106 0.154 3 
0.472 -0.117 0.154 3 
0.48 -0.306 0.162 3 
0.482 -0.315 0.163 3 
0.483 -0.326 0.163 3 
0.465 0.264 0.096 3 
0.482 -0.336 0.164 3 
0.483 -0.348 0.164 3 
0.467 0.302 0.154 3 
0.475 -0.225 0.126 3 
0.469 -0.066 0.123 3 
0.47 -0.077 0.123 3 
0.47 -0.086 0.123 3 
0.47 -0.097 0.123 3 
0.475 -0.287 0.093 3 
0.47 -0.105 0.123 3 
0.47 -0.127 0.124 3 
0.471 -0.136 0.124 3 
0.472 -0.145 0.124 3 
0.466 0.342 0.091 3 
0.471 -0.167 0.124 3 
0.471 -0.176 0.124 3 
0.469 -0.055 0.123 3 
0.464 0.338 0.123 3 
0.467 0.334 0.123 3 
0.466 0.323 0.123 3 
0.465 0.312 0.122 3 
0.466 0.303 0.122 3 
0.466 0.293 0.122 3 
0.466 0.284 0.122 3 
0.466 0.274 0.122 3 
0.473 -0.185 0.122 3 
0.474 -0.195 0.122 3 
0.475 -0.198 0.123 3 
0.466 0.044 0.122 3 
0.466 0.193 0.123 3 
0.466 0.184 0.123 3 
0.465 0.172 0.123 3 
0.465 0.164 0.123 3 
0.466 0.153 0.123 3 
0.465 0.133 0.122 3 
0.466 0.114 0.122 3 
0.466 0.103 0.122 3 
0.466 0.092 0.122 3 
0.466 0.073 0.122 3 
0.466 0.062 0.122 3 
0.465 0.054 0.122 3 
0.474 -0.206 0.123 3 
0.466 0.033 0.122 3 
0.466 0.022 0.122 3 
0.468 -0.157 0.014 3 
0.467 0.014 0.122 3 
0.467 0.003 0.122 3 
0.466 -0.076 0.012 3 
0.466 -0.006 0.122 3 
0.467 -0.015 0.122 3 
0.467 -0.025 0.122 3 
0.468 -0.036 0.122 3 
0.468 -0.047 0.123 3 
0.466 0.014 0.114 3 
0.464 0.29 0.082 3 
0.465 0.114 0.114 3 
0.465 0.103 0.114 3 
0.466 0.092 0.114 3 
0.466 0.084 0.114 3 
0.476 -0.316 0.043 3 
0.465 0.073 0.114 3 
0.465 0.062 0.114 3 
0.466 0.054 0.114 3 
0.465 0.043 0.114 3 
0.465 0.033 0.114 3 
0.467 0.022 0.114 3 
0.465 0.122 0.114 3 
0.467 0.003 0.114 3 
0.464 0.271 0.054 3 
0.467 -0.007 0.114 3 
0.468 -0.015 0.114 3 
0.468 -0.025 0.114 3 
0.468 -0.036 0.114 3 
0.468 -0.047 0.114 3 
0.474 -0.252 0.118 3 
0.463 0.34 0.114 3 
0.464 0.334 0.114 3 
0.476 0.357 0.2 3 
0.481 -0.337 0.124 3 
0.475 -0.21 0.123 3 
0.474 -0.215 0.123 3 
0.474 -0.227 0.123 3 
0.475 -0.234 0.123 3 
0.474 -0.236 0.123 3 
0.475 -0.243 0.123 3 
0.475 -0.246 0.124 3 
0.475 -0.256 0.124 3 
0.475 -0.268 0.124 3 
0.477 -0.286 0.122 3 
0.48 -0.308 0.123 3 
0.481 -0.326 0.124 3 
0.466 0.204 0.123 3 
0.482 -0.345 0.124 3 
0.481 -0.355 0.124 3 
0.464 0.254 0.115 3 
0.467 0.014 0.063 3 
0.465 0.178 0.114 3 
0.465 0.172 0.114 3 
0.479 -0.326 0.064 3 
0.465 0.164 0.114 3 
0.466 0.153 0.114 3 
0.465 0.204 0.112 3 
0.465 0.133 0.114 3 
0.466 0.343 0.123 3 
0.468 -0.055 0.133 3 
0.469 -0.066 0.134 3 
0.469 -0.077 0.134 3 
0.469 -0.085 0.134 3 
0.47 -0.097 0.134 3 
0.475 -0.213 0.137 3 
0.481 -0.317 0.141 3 
0.483 -0.329 0.142 3 
0.483 -0.336 0.142 3 
0.483 -0.347 0.143 3 
0.462 0.339 0.134 3 
0.466 0.32 0.134 3 
0.468 -0.047 0.133 3 
0.464 0.308 0.134 3 
0.464 0.304 0.133 3 
0.465 0.302 0.134 3 
0.465 0.293 0.133 3 
0.465 0.311 0.074 3 
0.465 0.283 0.133 3 
0.465 0.274 0.133 3 
0.466 0.262 0.133 3 
0.464 0.132 0.022 3 
0.466 0.253 0.133 3 
0.465 0.243 0.132 3 
0.467 0.052 0.133 3 
0.466 0.173 0.134 3 
0.466 0.162 0.134 3 
0.466 0.153 0.134 3 
0.467 0.134 0.134 3 
0.466 0.123 0.133 3 
0.467 0.112 0.133 3 
0.467 0.104 0.133 3 
0.467 0.093 0.133 3 
0.466 0.084 0.133 3 
0.466 -0.007 0.084 3 
0.466 0.073 0.133 3 
0.467 0.063 0.133 3 
0.465 0.234 0.132 3 
0.466 0.044 0.133 3 
0.466 0.033 0.133 3 
0.466 0.022 0.133 3 
0.466 0.014 0.133 3 
0.467 0.003 0.133 3 
0.467 -0.006 0.133 3 
0.473 -0.217 0.064 3 
0.467 -0.015 0.133 3 
0.468 -0.025 0.133 3 
0.465 0.264 0.113 3 
0.468 -0.036 0.133 3 
0.481 -0.316 0.132 3 
0.465 0.253 0.082 3 
0.474 -0.255 0.132 3 
0.475 -0.268 0.133 3 
0.48 -0.348 0.064 3 
0.47 -0.166 0.044 3 
0.476 -0.275 0.133 3 
0.478 -0.287 0.134 3 
0.478 -0.297 0.134 3 
0.464 0.334 0.129 3 
0.465 0.219 0.126 3 
0.475 -0.198 0.128 3 
0.479 -0.308 0.132 3 
0.475 -0.253 0.132 3 
0.482 -0.328 0.133 3 
0.473 -0.275 0.044 3 
0.483 -0.336 0.133 3 
0.483 -0.346 0.134 3 
0.467 0.345 0.127 3 
0.465 0.264 0.124 3 
0.465 0.243 0.124 3 
0.464 0.239 0.124 3 
0.464 0.233 0.123 3 
0.464 0.224 0.123 3 
0.465 0.213 0.123 3 
0.474 -0.215 0.134 3 
0.465 0.213 0.132 3 
0.47 -0.116 0.132 3 
0.47 -0.127 0.132 3 
0.477 -0.317 0.032 3 
0.472 -0.137 0.132 3 
0.472 -0.145 0.133 3 
0.472 -0.156 0.133 3 
0.472 -0.165 0.133 3 
0.471 -0.176 0.133 3 
0.472 -0.185 0.133 3 
0.474 -0.195 0.134 3 
0.474 -0.206 0.134 3 
0.466 0.184 0.134 3 
0.465 0.203 0.082 3 
0.474 -0.227 0.134 3 
0.465 0.336 0.132 3 
0.467 0.334 0.132 3 
0.464 0.23 0.129 3 
0.475 -0.207 0.131 3 
0.467 0.014 0.092 3 
0.475 -0.216 0.131 3 
0.466 0.084 0.063 3 
0.474 -0.236 0.132 3 
0.474 -0.246 0.132 3 
0.472 0.123 0.182 3 
0.465 0.043 0.103 3 
0.469 0.194 0.183 3 
0.47 0.183 0.183 3 
0.47 0.171 0.183 3 
0.474 -0.167 0.173 3 
0.471 -0.136 0.143 3 
0.469 0.162 0.182 3 
0.468 0.153 0.182 3 
0.464 0.204 0.142 3 
0.471 0.143 0.182 3 
0.472 0.134 0.183 3 
0.476 -0.275 0.124 3 
0.47 0.203 0.184 3 
0.47 -0.108 0.134 3 
0.473 0.112 0.183 3 
0.472 0.103 0.182 3 
0.472 0.092 0.182 3 
0.466 -0.036 0.004 3 
0.472 0.084 0.182 3 
0.467 0.043 0.074 3 
0.471 0.072 0.181 3 
0.472 0.064 0.182 3 
0.472 0.053 0.182 3 
0.472 0.042 0.182 3 
0.465 0.252 0.124 3 
0.471 -0.147 0.094 3 
0.473 0.323 0.193 3 
0.473 0.313 0.192 3 
0.472 0.302 0.191 3 
0.472 0.026 0.184 3 
0.472 0.023 0.184 3 
0.472 0.014 0.184 3 
0.464 0.303 0.082 3 
0.474 -0.012 0.185 3 
0.474 -0.018 0.185 3 
0.474 -0.026 0.185 3 
0.479 -0.237 0.192 3 
0.468 0.113 0.164 3 
0.465 0.192 0.063 3 
0.48 -0.247 0.192 3 
0.464 0.255 0.063 3 
0.48 -0.255 0.192 3 
0.469 -0.077 0.074 3 
0.482 -0.267 0.194 3 
0.485 -0.282 0.196 3 
0.473 -0.197 0.142 3 
0.485 -0.292 0.196 3 
0.473 0.353 0.192 3 
0.47 0.209 0.184 3 
0.47 0.243 0.182 3 
0.484 -0.285 0.192 3 
0.484 -0.295 0.193 3 
0.466 0.142 0.134 3 
0.485 -0.306 0.194 3 
0.47 0.296 0.184 3 
0.471 0.291 0.184 3 
0.465 0.177 0.033 3 
0.471 0.284 0.184 3 
0.47 0.274 0.183 3 
0.472 -0.225 0.052 3 
0.47 0.264 0.183 3 
0.47 0.252 0.183 3 
0.482 -0.276 0.191 3 
0.47 0.233 0.182 3 
0.465 0.163 0.084 3 
0.47 0.221 0.182 3 
0.475 -0.043 0.18 3 
0.474 -0.065 0.18 3 
0.474 -0.076 0.18 3 
0.474 -0.087 0.18 3 
0.476 -0.125 0.181 3 
0.476 -0.136 0.182 3 
0.476 -0.145 0.182 3 
0.476 -0.156 0.182 3 
0.475 -0.057 0.183 3 
0.477 -0.318 0.014 3 
0.472 0.003 0.182 3 
0.465 0.247 0.068 3 
0.473 -0.007 0.182 3 
0.48 -0.315 0.123 3 
0.474 -0.015 0.183 3 
0.474 -0.026 0.183 3 
0.473 -0.037 0.173 3 
0.474 -0.037 0.183 3 
0.475 -0.046 0.183 3 
0.474 -0.051 0.182 3 
0.468 -0.055 0.063 3 
0.473 0.33 0.193 3 
0.474 -0.059 0.182 3 
0.475 -0.065 0.183 3 
0.475 -0.076 0.183 3 
0.466 0.003 0.092 3 
0.475 -0.085 0.183 3 
0.466 0.233 0.163 3 
0.476 -0.096 0.184 3 
0.464 0.197 0.095 3 
0.476 -0.105 0.184 3 
0.471 -0.167 0.102 3 
0.476 -0.116 0.184 3 
0.473 0.084 0.188 3 
0.471 0.163 0.189 3 
0.47 0.154 0.188 3 
0.466 0.084 0.122 3 
0.464 0.275 0.093 3 
0.471 0.143 0.189 3 
0.474 0.133 0.189 3 
0.474 0.124 0.189 3 
0.473 0.073 0.188 3 
0.474 0.113 0.189 3 
0.467 0.283 0.174 3 
0.474 0.104 0.189 3 
0.474 0.093 0.189 3 
0.471 0.172 0.189 3 
0.474 0.062 0.188 3 
0.474 0.054 0.188 3 
0.474 0.042 0.188 3 
0.473 0.034 0.188 3 
0.473 0.023 0.188 3 
0.473 0.012 0.188 3 
0.473 0.003 0.188 3 
0.475 -0.007 0.189 3 
0.475 -0.015 0.189 3 
0.475 -0.026 0.189 3 
0.475 -0.256 0.129 3 
0.472 0.273 0.193 3 
0.479 -0.297 0.123 3 
0.475 0.352 0.199 3 
0.473 0.342 0.198 3 
0.471 0.333 0.196 3 
0.473 0.324 0.196 3 
0.472 -0.156 0.102 3 
0.472 0.312 0.195 3 
0.473 0.303 0.195 3 
0.474 0.294 0.195 3 
0.474 -0.286 0.072 3 
0.474 0.288 0.194 3 
0.472 0.282 0.193 3 
0.475 -0.035 0.189 3 
0.473 0.264 0.193 3 
0.471 0.25 0.192 3 
0.471 0.244 0.191 3 
0.471 0.234 0.191 3 
0.471 0.222 0.191 3 
0.468 -0.036 0.144 3 
0.471 0.213 0.19 3 
0.476 -0.297 0.023 3 
0.471 0.204 0.19 3 
0.471 0.192 0.19 3 
0.472 0.184 0.19 3 
0.484 -0.285 0.198 3 
0.48 -0.207 0.194 3 
0.474 -0.127 0.172 3 
0.48 -0.216 0.194 3 
0.479 -0.227 0.194 3 
0.48 -0.231 0.195 3 
0.481 -0.235 0.195 3 
0.48 -0.247 0.195 3 
0.481 -0.256 0.196 3 
0.465 0.083 0.023 3 
0.484 -0.268 0.198 3 
0.484 -0.278 0.198 3 
0.463 0.322 0.054 3 
0.479 -0.197 0.193 3 
0.484 -0.295 0.199 3 
0.484 -0.305 0.199 3 
0.463 0.314 0.014 3 
0.486 -0.31 0.201 3 
0.465 0.172 0.033 3 
0.486 -0.317 0.201 3 
0.487 -0.325 0.202 3 
0.488 -0.337 0.203 3 
0.489 -0.346 0.204 3 
0.474 0.351 0.195 3 
0.473 0.342 0.194 3 
0.48 -0.355 0.052 3 
0.475 -0.046 0.189 3 
0.476 -0.057 0.189 3 
0.474 -0.205 0.154 3 
0.477 -0.066 0.189 3 
0.468 -0.134 0.014 3 
0.477 -0.077 0.19 3 
0.47 -0.045 0.153 3 
0.466 0.313 0.134 3 
0.476 -0.085 0.189 3 
0.477 -0.097 0.19 3 
0.478 -0.106 0.19 3 
0.478 -0.117 0.191 3 
0.476 -0.355 0.014 3 
0.479 -0.126 0.191 3 
0.47 -0.036 0.153 3 
0.479 -0.135 0.191 3 
0.48 -0.315 0.102 3 
0.479 -0.146 0.192 3 
0.478 -0.155 0.192 3 
0.466 0.344 0.183 3 
0.478 -0.166 0.192 3 
0.468 -0.066 0.074 3 
0.478 -0.175 0.192 3 
0.478 -0.187 0.192 3 
0.467 0.152 0.164 3 
0.466 0.114 0.063 3 
0.475 -0.215 0.172 3 
0.473 -0.166 0.164 3 
0.475 -0.217 0.154 3 
0.475 -0.227 0.172 3 
0.476 -0.236 0.172 3 
0.478 -0.247 0.174 3 
0.472 -0.205 0.083 3 
0.478 -0.256 0.174 3 
0.465 0.291 0.063 3 
0.467 0.16 0.164 3 
0.468 -0.036 0.104 3 
0.476 -0.206 0.172 3 
0.467 0.143 0.164 3 
0.468 0.132 0.164 3 
0.468 0.124 0.164 3 
0.469 0.102 0.164 3 
0.469 0.094 0.164 3 
0.469 0.083 0.164 3 
0.469 0.074 0.164 3 
0.469 0.063 0.164 3 
0.465 0.222 0.124 3 
0.47 0.044 0.164 3 
0.47 0.025 0.164 3 
0.484 -0.325 0.182 3 
0.467 0.222 0.172 3 
0.467 0.213 0.172 3 
0.475 -0.13 0.173 3 
0.474 -0.135 0.172 3 
0.475 -0.147 0.173 3 
0.474 -0.149 0.173 3 
0.474 -0.155 0.173 3 
0.475 -0.17 0.173 3 
0.469 -0.096 0.052 3 
0.475 -0.176 0.174 3 
0.484 -0.318 0.182 3 
0.473 -0.188 0.094 3 
0.478 -0.325 0.082 3 
0.484 -0.335 0.183 3 
0.485 -0.34 0.183 3 
0.486 -0.345 0.184 3 
0.465 0.345 0.173 3 
0.465 0.341 0.173 3 
0.468 0.334 0.174 3 
0.47 0.323 0.174 3 
0.469 0.311 0.173 3 
0.476 -0.185 0.171 3 
0.467 -0.085 0.012 3 
0.476 -0.197 0.172 3 
0.474 -0.276 0.084 3 
0.471 -0.075 0.162 3 
0.471 -0.086 0.162 3 
0.471 -0.097 0.162 3 
0.465 0.113 0.044 3 
0.472 -0.106 0.163 3 
0.464 0.283 0.023 3 
0.473 -0.115 0.163 3 
0.473 -0.126 0.163 3 
0.474 -0.135 0.164 3 
0.474 -0.146 0.164 3 
0.481 -0.355 0.128 3 
0.473 -0.155 0.164 3 
0.471 -0.067 0.162 3 
0.474 -0.175 0.165 3 
0.483 -0.316 0.172 3 
0.482 -0.326 0.172 3 
0.47 -0.166 0.022 3 
0.484 -0.338 0.173 3 
0.485 -0.347 0.174 3 
0.468 0.327 0.164 3 
0.464 0.334 0.123 3 
0.468 0.323 0.164 3 
0.468 0.313 0.164 3 
0.468 0.303 0.163 3 
0.467 0.261 0.164 3 
0.47 0.023 0.164 3 
0.469 0.014 0.164 3 
0.469 0.003 0.164 3 
0.47 -0.007 0.164 3 
0.469 -0.015 0.164 3 
0.471 -0.026 0.164 3 
0.471 -0.037 0.164 3 
0.471 -0.045 0.164 3 
0.479 -0.266 0.172 3 
0.479 -0.276 0.172 3 
0.478 -0.285 0.172 3 
0.481 -0.298 0.174 3 
0.467 0.231 0.172 3 
0.466 0.272 0.153 3 
0.467 0.252 0.164 3 
0.467 0.243 0.164 3 
0.466 0.224 0.163 3 
0.467 0.213 0.163 3 
0.467 0.204 0.163 3 
0.467 0.192 0.163 3 
0.467 0.183 0.162 3 
0.47 -0.116 0.123 3 
0.466 0.174 0.162 3 
0.471 -0.056 0.162 3 
0.468 0.003 0.153 3 
0.472 0.322 0.183 3 
0.471 0.314 0.183 3 
0.464 0.294 0.085 3 
0.474 -0.096 0.177 3 
0.474 -0.11 0.178 3 
0.474 -0.115 0.178 3 
0.478 -0.235 0.182 3 
0.479 -0.245 0.183 3 
0.479 -0.257 0.183 3 
0.48 -0.265 0.184 3 
0.484 -0.315 0.188 3 
0.464 0.337 0.179 3 
0.471 0.331 0.184 3 
0.467 0.201 0.174 3 
0.467 0.192 0.174 3 
0.464 0.271 0.032 3 
0.468 0.184 0.174 3 
0.469 0.173 0.174 3 
0.468 0.164 0.174 3 
0.469 0.153 0.173 3 
0.469 0.144 0.173 3 
0.47 0.133 0.173 3 
0.476 -0.245 0.152 3 
0.47 0.122 0.173 3 
0.472 -0.235 0.013 3 
0.476 -0.165 0.182 3 
0.476 -0.177 0.183 3 
0.477 -0.186 0.183 3 
0.467 0.054 0.074 3 
0.478 -0.196 0.184 3 
0.467 0.014 0.144 3 
0.478 -0.205 0.184 3 
0.477 -0.219 0.184 3 
0.471 -0.175 0.074 3 
0.466 0.054 0.004 3 
0.476 -0.225 0.184 3 
0.49 -0.286 0.192 3 
0.471 -0.097 0.143 3 
0.485 -0.295 0.19 3 
0.472 -0.205 0.044 3 
0.484 -0.305 0.19 3 
0.485 -0.316 0.191 3 
0.486 -0.327 0.192 3 
0.472 -0.196 0.052 3 
0.486 -0.335 0.193 3 
0.487 -0.347 0.194 3 
0.467 -0.007 0.044 3 
0.47 0.345 0.184 3 
0.467 -0.007 0.063 3 
0.484 -0.308 0.184 3 
0.473 -0.076 0.174 3 
0.472 -0.087 0.174 3 
0.473 -0.095 0.174 3 
0.473 -0.106 0.174 3 
0.464 0.242 0.104 3 
0.473 -0.115 0.174 3 
0.474 -0.132 0.175 3 
0.474 -0.135 0.175 3 
0.481 -0.275 0.182 3 
0.481 -0.285 0.182 3 
0.465 0.293 0.142 3 
0.482 -0.296 0.183 3 
0.463 0.214 0.013 3 
0.484 -0.325 0.185 3 
0.467 0.296 0.174 3 
0.467 0.293 0.174 3 
0.468 0.272 0.174 3 
0.482 -0.305 0.171 3 
0.463 0.341 0.14 3 
0.469 0.263 0.174 3 
0.469 0.254 0.174 3 
0.464 0.209 0.106 3 
0.469 0.244 0.173 3 
0.474 -0.257 0.072 3 
0.471 0.023 0.173 3 
0.47 0.114 0.173 3 
0.47 0.103 0.173 3 
0.465 0.141 0.122 3 
0.47 0.094 0.173 3 
0.47 0.083 0.173 3 
0.469 0.072 0.172 3 
0.47 0.064 0.173 3 
0.47 0.053 0.173 3 
0.465 0.215 0.046 3 
0.471 0.042 0.173 3 
0.472 0.034 0.173 3 
0.469 0.052 0.164 3 
0.467 0.292 0.163 3 
0.47 0.014 0.172 3 
0.47 0.003 0.173 3 
0.471 -0.007 0.173 3 
0.472 -0.015 0.173 3 
0.472 -0.026 0.173 3 
0.463 0.104 0.012 3 
0.473 -0.045 0.174 3 
0.473 -0.056 0.174 3 
0.466 0.003 0.103 3 
0.473 -0.065 0.174 3 
0.466 0.103 0.044 3 
0.465 0.144 0.044 3 
0.465 0.232 0.043 3 
0.464 0.223 0.043 3 
0.465 0.215 0.043 3 
0.465 0.212 0.043 3 
0.464 0.205 0.043 3 
0.464 0.202 0.043 3 
0.464 0.194 0.044 3 
0.464 0.177 0.044 3 
0.464 0.171 0.044 3 
0.465 0.163 0.044 3 
0.464 0.16 0.044 3 
0.465 0.152 0.044 3 
0.465 0.238 0.043 3 
0.465 0.133 0.044 3 
0.474 -0.295 0.012 3 
0.466 0.122 0.044 3 
0.467 0.092 0.044 3 
0.466 0.084 0.044 3 
0.466 0.073 0.044 3 
0.467 0.054 0.044 3 
0.467 0.033 0.044 3 
0.467 0.022 0.044 3 
0.467 0.014 0.044 3 
0.467 0.003 0.044 3 
0.468 -0.015 0.044 3 
0.462 0.304 0.043 3 
0.476 -0.306 0.052 3 
0.477 -0.317 0.052 3 
0.478 -0.328 0.052 3 
0.479 -0.336 0.052 3 
0.464 0.197 0.049 3 
0.464 0.191 0.049 3 
0.475 -0.292 0.049 3 
0.465 0.235 0.046 3 
0.465 0.232 0.046 3 
0.461 0.336 0.042 3 
0.461 0.333 0.042 3 
0.462 0.311 0.043 3 
0.468 -0.025 0.044 3 
0.468 -0.066 0.044 3 
0.464 0.293 0.043 3 
0.464 0.283 0.043 3 
0.465 0.275 0.043 3 
0.465 0.272 0.043 3 
0.464 0.268 0.043 3 
0.464 0.262 0.043 3 
0.468 -0.055 0.033 3 
0.463 0.222 0.024 3 
0.464 0.252 0.043 3 
0.464 0.243 0.043 3 
0.478 -0.346 0.034 3 
0.48 -0.355 0.043 3 
0.465 0.172 0.041 3 
0.475 -0.279 0.038 3 
0.463 0.339 0.034 3 
0.461 0.333 0.034 3 
0.462 0.324 0.034 3 
0.462 0.314 0.034 3 
0.463 0.304 0.034 3 
0.464 0.293 0.034 3 
0.464 0.283 0.034 3 
0.465 0.281 0.034 3 
0.478 -0.339 0.034 3 
0.479 -0.347 0.043 3 
0.478 -0.357 0.034 3 
0.465 0.269 0.032 3 
0.464 0.262 0.032 3 
0.464 0.253 0.032 3 
0.463 0.243 0.032 3 
0.464 0.232 0.032 3 
0.466 0.062 0.004 3 
0.464 0.223 0.032 3 
0.464 0.214 0.032 3 
0.465 0.203 0.032 3 
0.464 0.2 0.033 3 
0.471 -0.187 0.044 3 
0.468 -0.047 0.044 3 
0.468 -0.055 0.044 3 
0.467 -0.077 0.044 3 
0.468 -0.085 0.044 3 
0.47 -0.096 0.044 3 
0.47 -0.105 0.044 3 
0.47 -0.116 0.044 3 
0.471 -0.127 0.044 3 
0.471 -0.135 0.044 3 
0.471 -0.147 0.044 3 
0.471 -0.155 0.044 3 
0.471 -0.175 0.044 3 
0.475 -0.295 0.052 3 
0.472 -0.196 0.044 3 
0.472 -0.216 0.044 3 
0.473 -0.226 0.044 3 
0.473 -0.235 0.044 3 
0.474 -0.245 0.044 3 
0.473 -0.266 0.044 3 
0.474 -0.285 0.044 3 
0.475 -0.295 0.044 3 
0.476 -0.306 0.044 3 
0.477 -0.327 0.043 3 
0.479 -0.336 0.043 3 
0.474 -0.295 0.058 3 
0.475 -0.296 0.064 3 
0.464 0.243 0.054 3 
0.478 -0.308 0.064 3 
0.478 -0.315 0.064 3 
0.48 -0.337 0.064 3 
0.479 -0.357 0.064 3 
0.464 0.154 0.052 3 
0.464 0.232 0.06 3 
0.464 0.223 0.06 3 
0.464 0.271 0.057 3 
0.464 0.166 0.057 3 
0.464 -0.036 0.012 3 
0.475 -0.293 0.064 3 
0.465 0.341 0.054 3 
0.464 0.303 0.054 3 
0.464 0.294 0.054 3 
0.465 0.284 0.054 3 
0.464 0.28 0.054 3 
0.465 0.269 0.054 3 
0.464 0.262 0.054 3 
0.465 0.259 0.054 3 
0.465 0.253 0.054 3 
0.464 0.246 0.054 3 
0.464 0.232 0.054 3 
0.471 -0.166 0.063 3 
0.469 -0.066 0.063 3 
0.464 0.157 0.033 3 
0.469 -0.077 0.063 3 
0.469 -0.085 0.063 3 
0.47 -0.097 0.063 3 
0.47 -0.105 0.063 3 
0.47 -0.116 0.063 3 
0.48 -0.348 0.052 3 
0.47 -0.127 0.063 3 
0.471 -0.135 0.063 3 
0.471 -0.147 0.063 3 
0.471 -0.155 0.063 3 
0.464 0.223 0.054 3 
0.471 -0.175 0.063 3 
0.463 0.213 0.024 3 
0.472 -0.187 0.063 3 
0.473 -0.205 0.064 3 
0.472 -0.225 0.064 3 
0.473 -0.235 0.064 3 
0.474 -0.248 0.064 3 
0.474 -0.257 0.064 3 
0.473 -0.266 0.064 3 
0.473 -0.275 0.064 3 
0.473 -0.285 0.064 3 
0.471 -0.147 0.052 3 
0.467 -0.025 0.052 3 
0.463 0.283 0.012 3 
0.468 -0.036 0.052 3 
0.468 -0.047 0.052 3 
0.468 -0.055 0.052 3 
0.468 -0.066 0.052 3 
0.469 -0.077 0.052 3 
0.468 -0.085 0.052 3 
0.47 -0.105 0.052 3 
0.47 -0.116 0.052 3 
0.47 -0.127 0.052 3 
0.471 -0.135 0.052 3 
0.467 -0.015 0.052 3 
0.471 -0.155 0.052 3 
0.47 -0.166 0.052 3 
0.471 -0.178 0.052 3 
0.472 -0.187 0.052 3 
0.472 -0.205 0.052 3 
0.472 -0.216 0.052 3 
0.473 -0.235 0.052 3 
0.474 -0.245 0.052 3 
0.473 -0.266 0.052 3 
0.473 -0.275 0.052 3 
0.473 -0.285 0.052 3 
0.466 0.133 0.052 3 
0.464 0.214 0.054 3 
0.465 0.209 0.054 3 
0.465 0.203 0.054 3 
0.465 0.192 0.054 3 
0.465 0.183 0.054 3 
0.461 0.336 0.051 3 
0.465 0.287 0.051 3 
0.464 0.171 0.052 3 
0.464 0.163 0.052 3 
0.465 0.161 0.052 3 
0.465 0.152 0.052 3 
0.465 0.144 0.052 3 
0.464 0.194 0.033 3 
0.466 0.103 0.052 3 
0.467 0.092 0.052 3 
0.467 0.084 0.052 3 
0.467 0.073 0.052 3 
0.467 0.062 0.052 3 
0.467 0.054 0.052 3 
0.467 0.043 0.052 3 
0.467 0.033 0.052 3 
0.467 0.022 0.052 3 
0.467 0.014 0.052 3 
0.467 -0.007 0.052 3 
0.463 0.302 0.012 3 
0.464 0.113 0.02 3 
0.464 0.102 0.02 3 
0.464 0.094 0.02 3 
0.474 -0.288 0.018 3 
0.474 -0.295 0.018 3 
0.46 0.332 0.014 3 
0.463 0.324 0.014 3 
0.464 0.072 0.018 3 
0.476 -0.307 0.014 3 
0.477 -0.328 0.014 3 
0.477 -0.335 0.014 3 
0.478 -0.346 0.013 3 
0.465 0.127 0.02 3 
0.463 0.292 0.012 3 
0.462 0.272 0.013 3 
0.462 0.263 0.013 3 
0.462 0.254 0.013 3 
0.462 0.233 0.013 3 
0.462 0.224 0.013 3 
0.463 0.202 0.014 3 
0.463 0.193 0.014 3 
0.462 0.184 0.014 3 
0.462 0.173 0.014 3 
0.463 0.162 0.014 3 
0.468 -0.077 0.023 3 
0.464 0.04 0.023 3 
0.465 0.032 0.023 3 
0.466 0.024 0.023 3 
0.466 0.014 0.023 3 
0.467 0.003 0.023 3 
0.467 -0.007 0.023 3 
0.467 -0.015 0.023 3 
0.466 -0.025 0.023 3 
0.466 -0.036 0.023 3 
0.466 -0.047 0.023 3 
0.467 -0.055 0.023 3 
0.467 -0.066 0.023 3 
0.463 0.154 0.014 3 
0.469 -0.096 0.023 3 
0.469 -0.107 0.023 3 
0.469 -0.115 0.023 3 
0.469 -0.126 0.023 3 
0.469 -0.135 0.022 3 
0.469 -0.146 0.022 3 
0.47 -0.155 0.022 3 
0.47 -0.175 0.022 3 
0.47 -0.186 0.022 3 
0.471 -0.195 0.022 3 
0.474 -0.276 0.021 3 
0.465 0.132 0.003 3 
0.467 -0.096 0.012 3 
0.467 -0.106 0.012 3 
0.467 -0.117 0.012 3 
0.465 -0.049 0.01 3 
0.474 -0.305 0.006 3 
0.465 0.07 0.007 3 
0.465 0.054 0.007 3 
0.465 0.043 0.007 3 
0.466 -0.025 0.007 3 
0.466 -0.036 0.007 3 
0.475 -0.306 0.003 3 
0.465 0.141 0.003 3 
0.466 -0.065 0.012 3 
0.466 0.043 0.004 3 
0.465 0.032 0.004 3 
0.466 -0.025 0.004 3 
0.466 -0.047 0.004 3 
0.467 -0.055 0.004 3 
0.467 -0.066 0.004 3 
0.467 -0.077 0.004 3 
0.468 -0.085 0.004 3 
0.468 -0.096 0.004 3 
0.468 -0.107 0.004 3 
0.469 -0.115 0.004 3 
0.472 -0.255 0.013 3 
0.464 0.132 0.014 3 
0.464 0.032 0.015 3 
0.464 -0.025 0.015 3 
0.464 -0.036 0.015 3 
0.468 -0.148 0.014 3 
0.469 -0.166 0.014 3 
0.469 -0.177 0.014 3 
0.469 -0.186 0.014 3 
0.469 -0.197 0.014 3 
0.471 -0.216 0.013 3 
0.471 -0.225 0.013 3 
0.472 -0.247 0.013 3 
0.464 0.054 0.023 3 
0.473 -0.275 0.012 3 
0.464 0.113 0.012 3 
0.463 0.094 0.012 3 
0.463 0.083 0.012 3 
0.463 0.072 0.012 3 
0.464 0.054 0.012 3 
0.464 0.043 0.012 3 
0.466 -0.015 0.012 3 
0.464 -0.025 0.012 3 
0.464 -0.047 0.012 3 
0.465 -0.055 0.012 3 
0.472 -0.217 0.033 3 
0.47 -0.105 0.033 3 
0.47 -0.116 0.033 3 
0.464 0.124 0.014 3 
0.47 -0.127 0.033 3 
0.47 -0.135 0.033 3 
0.471 -0.147 0.033 3 
0.471 -0.155 0.033 3 
0.471 -0.167 0.033 3 
0.471 -0.175 0.033 3 
0.471 -0.187 0.033 3 
0.472 -0.196 0.033 3 
0.472 -0.205 0.033 3 
0.469 -0.096 0.033 3 
0.472 -0.226 0.033 3 
0.473 -0.235 0.033 3 
0.473 -0.247 0.033 3 
0.473 -0.257 0.032 3 
0.473 -0.266 0.032 3 
0.475 -0.273 0.032 3 
0.475 -0.276 0.032 3 
0.475 -0.286 0.032 3 
0.476 -0.296 0.032 3 
0.476 -0.306 0.032 3 
0.477 -0.327 0.032 3 
0.466 0.032 0.034 3 
0.465 0.163 0.033 3 
0.465 0.152 0.033 3 
0.465 0.144 0.033 3 
0.465 0.133 0.033 3 
0.465 0.124 0.033 3 
0.466 0.114 0.033 3 
0.467 0.103 0.033 3 
0.466 0.092 0.033 3 
0.467 0.073 0.033 3 
0.466 0.062 0.033 3 
0.465 0.054 0.034 3 
0.466 0.043 0.033 3 
0.464 0.174 0.03 3 
0.468 -0.085 0.023 3 
0.466 0.024 0.034 3 
0.467 0.014 0.033 3 
0.467 0.003 0.034 3 
0.467 -0.007 0.034 3 
0.467 -0.015 0.034 3 
0.467 -0.025 0.034 3 
0.467 -0.036 0.034 3 
0.467 -0.047 0.034 3 
0.468 -0.077 0.033 3 
0.468 -0.085 0.034 3 
0.464 0.174 0.022 3 
0.472 -0.217 0.024 3 
0.473 -0.226 0.024 3 
0.472 -0.256 0.024 3 
0.474 -0.266 0.024 3 
0.475 -0.276 0.024 3 
0.476 -0.287 0.023 3 
0.476 -0.306 0.023 3 
0.478 -0.318 0.023 3 
0.478 -0.325 0.023 3 
0.478 -0.336 0.023 3 
0.477 -0.356 0.022 3 
0.464 0.183 0.022 3 
0.472 -0.208 0.024 3 
0.464 0.163 0.022 3 
0.464 0.154 0.022 3 
0.464 0.143 0.022 3 
0.465 0.124 0.022 3 
0.465 0.113 0.022 3 
0.465 0.102 0.023 3 
0.465 0.094 0.023 3 
0.464 0.08 0.023 3 
0.465 0.073 0.023 3 
0.465 0.064 0.023 3 
0.464 0.056 0.023 3 
0.465 0.281 0.023 3 
0.464 0.152 0.03 3 
0.465 0.287 0.026 3 
0.465 0.263 0.026 3 
0.464 0.143 0.028 3 
0.464 0.132 0.028 3 
0.474 -0.275 0.027 3 
0.463 0.339 0.022 3 
0.462 0.331 0.023 3 
0.463 0.322 0.023 3 
0.474 -0.356 0.011 3 
0.463 0.314 0.023 3 
0.463 0.301 0.023 3 
0.468 -0.047 0.063 3 
0.465 0.272 0.023 3 
0.464 0.262 0.024 3 
0.464 0.253 0.024 3 
0.463 0.243 0.024 3 
0.463 0.234 0.024 3 
0.464 0.203 0.024 3 
0.465 0.2 0.024 3 
0.465 0.192 0.024 3 
0.465 0.183 0.024 3 
0.464 0.124 0.025 3 
0.464 0.043 0.026 3 
0.464 0.333 0.094 3 
0.475 -0.277 0.104 3 
0.477 -0.289 0.104 3 
0.477 -0.295 0.102 3 
0.479 -0.307 0.102 3 
0.48 -0.325 0.103 3 
0.48 -0.335 0.103 3 
0.481 -0.347 0.103 3 
0.48 -0.355 0.103 3 
0.466 0.062 0.044 3 
0.464 0.191 0.095 3 
0.478 -0.325 0.073 3 
0.464 0.34 0.094 3 
0.473 -0.266 0.104 3 
0.465 0.331 0.094 3 
0.466 0.322 0.094 3 
0.466 0.312 0.094 3 
0.465 0.304 0.094 3 
0.466 0.293 0.094 3 
0.465 0.282 0.094 3 
0.465 0.043 0.023 3 
0.464 0.272 0.093 3 
0.465 0.264 0.093 3 
0.466 0.103 0.074 3 
0.464 0.257 0.093 3 
0.464 0.254 0.093 3 
0.465 0.236 0.101 3 
0.47 -0.135 0.104 3 
0.473 -0.235 0.024 3 
0.463 0.339 0.103 3 
0.463 0.332 0.102 3 
0.465 0.331 0.103 3 
0.466 0.322 0.103 3 
0.465 0.314 0.102 3 
0.465 0.301 0.102 3 
0.466 0.293 0.102 3 
0.465 0.282 0.102 3 
0.464 0.275 0.102 3 
0.462 0.331 0.082 3 
0.465 0.245 0.093 3 
0.471 -0.147 0.102 3 
0.472 -0.176 0.102 3 
0.473 -0.185 0.102 3 
0.473 -0.197 0.103 3 
0.472 -0.205 0.103 3 
0.472 -0.217 0.103 3 
0.473 -0.226 0.103 3 
0.474 -0.236 0.103 3 
0.474 -0.245 0.103 3 
0.475 -0.249 0.104 3 
0.474 -0.257 0.104 3 
0.47 -0.116 0.093 3 
0.466 0.022 0.092 3 
0.466 -0.007 0.092 3 
0.467 -0.015 0.093 3 
0.468 -0.025 0.093 3 
0.468 -0.036 0.093 3 
0.469 -0.047 0.093 3 
0.468 -0.055 0.093 3 
0.468 -0.066 0.093 3 
0.469 -0.077 0.093 3 
0.469 -0.085 0.093 3 
0.47 -0.097 0.093 3 
0.47 -0.105 0.093 3 
0.466 0.033 0.092 3 
0.469 -0.127 0.093 3 
0.464 0.194 0.024 3 
0.469 -0.135 0.093 3 
0.472 -0.156 0.094 3 
0.472 -0.167 0.094 3 
0.471 -0.175 0.094 3 
0.473 -0.197 0.094 3 
0.472 -0.205 0.094 3 
0.473 -0.217 0.094 3 
0.464 0.194 0.09 3 
0.473 -0.226 0.092 3 
0.464 0.062 0.026 3 
0.467 0.043 0.063 3 
0.466 0.242 0.093 3 
0.466 0.233 0.093 3 
0.466 0.224 0.093 3 
0.466 0.213 0.093 3 
0.465 0.203 0.093 3 
0.465 0.192 0.093 3 
0.465 0.183 0.093 3 
0.466 0.173 0.093 3 
0.465 0.163 0.093 3 
0.465 0.152 0.093 3 
0.465 0.144 0.092 3 
0.47 -0.127 0.104 3 
0.465 0.133 0.092 3 
0.466 0.122 0.093 3 
0.466 0.114 0.093 3 
0.466 0.103 0.093 3 
0.465 0.092 0.092 3 
0.466 0.084 0.092 3 
0.465 0.073 0.092 3 
0.465 0.062 0.092 3 
0.464 0.118 0.02 3 
0.465 0.054 0.092 3 
0.467 0.043 0.092 3 
0.474 -0.251 0.112 3 
0.473 -0.185 0.114 3 
0.471 -0.147 0.113 3 
0.471 -0.156 0.113 3 
0.472 -0.167 0.113 3 
0.472 -0.176 0.113 3 
0.474 -0.197 0.114 3 
0.474 -0.206 0.114 3 
0.473 -0.217 0.114 3 
0.474 -0.227 0.114 3 
0.465 0.243 0.11 3 
0.465 0.227 0.11 3 
0.475 -0.237 0.112 3 
0.47 -0.136 0.113 3 
0.474 -0.255 0.112 3 
0.473 -0.266 0.112 3 
0.475 -0.274 0.113 3 
0.475 -0.277 0.113 3 
0.477 -0.286 0.113 3 
0.478 -0.296 0.114 3 
0.479 -0.307 0.114 3 
0.48 -0.315 0.114 3 
0.48 -0.325 0.114 3 
0.474 -0.245 0.084 3 
0.464 0.266 0.107 3 
0.463 0.322 0.043 3 
0.465 0.311 0.114 3 
0.466 0.303 0.114 3 
0.466 0.293 0.114 3 
0.464 0.032 0.012 3 
0.465 0.283 0.113 3 
0.466 0.274 0.113 3 
0.464 0.26 0.113 3 
0.464 0.251 0.113 3 
0.465 0.249 0.113 3 
0.464 0.242 0.112 3 
0.464 0.233 0.112 3 
0.465 0.224 0.112 3 
0.464 0.163 0.106 3 
0.465 0.212 0.112 3 
0.466 0.193 0.112 3 
0.469 -0.055 0.112 3 
0.469 -0.066 0.112 3 
0.47 -0.075 0.112 3 
0.47 -0.086 0.112 3 
0.468 -0.066 0.033 3 
0.47 -0.097 0.112 3 
0.47 -0.105 0.112 3 
0.47 -0.116 0.113 3 
0.47 -0.127 0.113 3 
0.464 0.191 0.084 3 
0.466 0.114 0.103 3 
0.467 0.043 0.044 3 
0.465 0.103 0.103 3 
0.465 0.092 0.103 3 
0.465 0.084 0.103 3 
0.465 0.073 0.103 3 
0.466 0.062 0.103 3 
0.47 -0.097 0.082 3 
0.465 0.054 0.103 3 
0.466 0.033 0.103 3 
0.466 0.014 0.103 3 
0.467 -0.007 0.103 3 
0.466 0.122 0.103 3 
0.467 -0.015 0.103 3 
0.468 -0.025 0.103 3 
0.469 -0.047 0.104 3 
0.468 -0.055 0.104 3 
0.469 -0.066 0.104 3 
0.469 -0.077 0.104 3 
0.47 -0.086 0.104 3 
0.464 0.226 0.043 3 
0.47 -0.097 0.104 3 
0.47 -0.116 0.104 3 
0.465 0.272 0.063 3 
0.465 0.224 0.104 3 
0.474 -0.236 0.109 3 
0.481 -0.336 0.112 3 
0.481 -0.347 0.112 3 
0.472 -0.247 0.024 3 
0.479 -0.356 0.112 3 
0.464 0.275 0.105 3 
0.464 0.269 0.104 3 
0.464 0.263 0.104 3 
0.464 0.254 0.104 3 
0.464 0.323 0.082 3 
0.465 0.248 0.104 3 
0.465 0.233 0.104 3 
0.473 -0.235 0.092 3 
0.464 0.22 0.104 3 
0.465 0.212 0.104 3 
0.465 0.203 0.104 3 
0.465 0.192 0.104 3 
0.466 0.184 0.104 3 
0.465 0.172 0.104 3 
0.478 -0.346 0.022 3 
0.465 0.164 0.103 3 
0.465 0.152 0.103 3 
0.465 0.144 0.103 3 
0.466 0.133 0.103 3 
0.47 -0.086 0.074 3 
0.466 0.084 0.074 3 
0.466 0.073 0.074 3 
0.467 0.062 0.074 3 
0.467 0.033 0.074 3 
0.467 0.022 0.074 3 
0.467 0.014 0.074 3 
0.467 0.003 0.074 3 
0.466 -0.007 0.074 3 
0.467 -0.015 0.074 3 
0.467 -0.025 0.074 3 
0.468 -0.036 0.074 3 
0.469 -0.055 0.074 3 
0.466 0.092 0.074 3 
0.47 -0.097 0.074 3 
0.47 -0.105 0.074 3 
0.47 -0.116 0.074 3 
0.47 -0.127 0.074 3 
0.471 -0.135 0.074 3 
0.471 -0.155 0.074 3 
0.471 -0.166 0.074 3 
0.465 0.265 0.071 3 
0.464 0.16 0.071 3 
0.472 -0.187 0.072 3 
0.472 -0.196 0.072 3 
0.464 0.205 0.074 3 
0.465 0.295 0.074 3 
0.464 0.287 0.074 3 
0.464 0.284 0.074 3 
0.464 0.272 0.074 3 
0.465 0.262 0.074 3 
0.464 0.259 0.074 3 
0.464 0.252 0.074 3 
0.465 0.244 0.074 3 
0.465 0.232 0.074 3 
0.465 0.224 0.074 3 
0.464 0.22 0.074 3 
0.465 0.212 0.074 3 
0.473 -0.205 0.072 3 
0.465 0.203 0.074 3 
0.465 0.192 0.074 3 
0.465 0.183 0.074 3 
0.465 0.172 0.074 3 
0.464 0.166 0.073 3 
0.465 0.163 0.074 3 
0.465 0.152 0.074 3 
0.466 0.144 0.074 3 
0.466 0.133 0.074 3 
0.466 0.122 0.074 3 
0.466 0.114 0.074 3 
0.465 0.161 0.063 3 
0.465 0.253 0.063 3 
0.467 0.003 0.052 3 
0.464 0.246 0.063 3 
0.464 0.243 0.063 3 
0.465 0.235 0.063 3 
0.466 0.062 0.007 3 
0.465 0.224 0.063 3 
0.464 0.214 0.063 3 
0.465 0.209 0.063 3 
0.465 0.203 0.063 3 
0.465 0.183 0.063 3 
0.465 0.172 0.063 3 
0.465 0.275 0.063 3 
0.465 0.144 0.063 3 
0.466 0.133 0.063 3 
0.467 0.103 0.063 3 
0.466 0.092 0.063 3 
0.468 0.073 0.063 3 
0.467 0.054 0.063 3 
0.467 0.022 0.063 3 
0.467 0.003 0.063 3 
0.467 -0.015 0.063 3 
0.468 -0.025 0.063 3 
0.467 -0.036 0.063 3 
0.48 -0.337 0.073 3 
0.466 0.084 0.033 3 
0.472 -0.216 0.072 3 
0.465 0.122 0.052 3 
0.473 -0.226 0.072 3 
0.474 -0.236 0.072 3 
0.474 -0.245 0.072 3 
0.473 -0.266 0.072 3 
0.473 -0.275 0.072 3 
0.475 -0.29 0.072 3 
0.476 -0.297 0.073 3 
0.477 -0.305 0.073 3 
0.477 -0.315 0.073 3 
0.464 0.303 0.074 3 
0.48 -0.348 0.073 3 
0.479 -0.358 0.073 3 
0.465 0.317 0.068 3 
0.464 0.243 0.065 3 
0.464 0.323 0.062 3 
0.464 0.313 0.062 3 
0.464 0.303 0.062 3 
0.465 0.298 0.063 3 
0.463 0.064 0.012 3 
0.464 0.294 0.062 3 
0.464 0.284 0.063 3 
0.466 0.033 0.084 3 
0.466 0.133 0.084 3 
0.466 0.122 0.084 3 
0.466 0.114 0.084 3 
0.466 0.103 0.084 3 
0.466 0.092 0.084 3 
0.466 0.084 0.084 3 
0.46 0.336 0.014 3 
0.466 0.073 0.084 3 
0.468 -0.047 0.074 3 
0.465 0.062 0.084 3 
0.466 0.054 0.084 3 
0.467 0.043 0.084 3 
0.466 0.144 0.084 3 
0.466 0.022 0.084 3 
0.467 0.014 0.084 3 
0.466 0.003 0.084 3 
0.467 0.343 0.083 3 
0.465 0.317 0.082 3 
0.465 0.314 0.082 3 
0.465 0.295 0.082 3 
0.465 0.288 0.082 3 
0.464 0.284 0.082 3 
0.464 0.272 0.082 3 
0.464 0.263 0.082 3 
0.479 -0.327 0.094 3 
0.475 -0.246 0.092 3 
0.472 -0.196 0.064 3 
0.475 -0.289 0.044 3 
0.474 -0.257 0.092 3 
0.462 0.311 0.054 3 
0.474 -0.267 0.092 3 
0.474 -0.276 0.092 3 
0.475 -0.28 0.093 3 
0.464 0.293 0.023 3 
0.476 -0.297 0.093 3 
0.477 -0.305 0.093 3 
0.479 -0.317 0.093 3 
0.465 0.244 0.082 3 
0.479 -0.337 0.094 3 
0.481 -0.349 0.094 3 
0.478 -0.357 0.094 3 
0.464 0.323 0.085 3 
0.464 -0.02 0.012 3 
0.464 0.303 0.085 3 
0.465 0.189 0.084 3 
0.465 0.183 0.084 3 
0.465 0.172 0.084 3 
0.471 -0.187 0.083 3 
0.465 0.152 0.084 3 
0.464 0.214 0.079 3 
0.474 -0.257 0.084 3 
0.474 -0.267 0.084 3 
0.463 0.143 0.014 3 
0.475 -0.287 0.084 3 
0.476 -0.297 0.084 3 
0.477 -0.308 0.084 3 
0.465 0.291 0.074 3 
0.477 -0.315 0.084 3 
0.464 0.336 0.08 3 
0.464 0.306 0.079 3 
0.465 0.256 0.079 3 
0.464 0.22 0.079 3 
0.474 -0.236 0.083 3 
0.464 0.16 0.079 3 
0.48 -0.337 0.082 3 
0.48 -0.348 0.082 3 
0.478 -0.356 0.082 3 
0.464 0.166 0.076 3 
0.461 0.333 0.054 3 
0.474 -0.286 0.078 3 
0.464 0.34 0.074 3 
0.462 0.331 0.074 3 
0.464 0.323 0.074 3 
0.464 0.313 0.074 3 
0.47 -0.086 0.082 3 
0.467 0.062 0.063 3 
0.465 0.232 0.082 3 
0.465 0.224 0.082 3 
0.464 0.268 0.024 3 
0.465 0.212 0.082 3 
0.464 0.197 0.082 3 
0.467 -0.025 0.082 3 
0.468 -0.036 0.082 3 
0.469 -0.047 0.082 3 
0.468 -0.055 0.082 3 
0.468 -0.066 0.082 3 
0.469 -0.077 0.082 3 
0.466 0.322 0.114 3 
0.47 -0.105 0.082 3 
0.469 -0.116 0.082 3 
0.469 -0.127 0.082 3 
0.464 0.154 0.063 3 
0.471 -0.147 0.083 3 
0.471 -0.155 0.083 3 
0.471 -0.166 0.083 3 
0.471 -0.175 0.083 3 
0.471 -0.195 0.083 3 
0.472 -0.216 0.083 3 
0.473 -0.226 0.083 3 
