# .PCD v0.7 - Point Cloud Data file
FIELDS x y z intensity
SIZE 4 4 4 4
TYPE F F F F
COUNT 1 1 1 1
WIDTH 2242
HEIGHT 1
VIEWPOINT 0 0 0 1 0 0 0
POINTS 2242
DATA ascii
0.353 0.03 0.012 0 
0.4 0.034 -0.017 0 
0.593 -0.04 0.103 0 
0.528 -0.024 -0.016 0 
0.542 -0.022 0.001 0 
0.539 -0.025 -0.008 0 
0.524 -0.021 -0.002 0 
0.53 -0.021 0 0 
0.54 -0.025 0.004 0 
0.584 -0.08 0.091 0 
0.526 -0.021 -0.005 0 
0.414 -0.267 -0.041 1 
0.413 -0.255 -0.04 1 
0.407 -0.177 -0.035 1 
0.403 -0.106 -0.031 1 
0.404 -0.102 -0.032 1 
0.404 -0.065 -0.031 1 
0.404 -0.057 -0.031 1 
0.382 -0.001 -0.023 1 
0.37 0.004 -0.019 1 
0.403 0.043 -0.031 1 
0.401 0.053 -0.031 1 
0.401 0.074 -0.031 1 
0.401 0.103 -0.031 1 
0.4 0.113 -0.031 1 
0.394 0.156 -0.03 1 
0.394 0.202 -0.032 1 
0.393 0.213 -0.033 1 
0.392 0.22 -0.033 1 
0.395 0.24 -0.035 1 
0.393 0.241 -0.034 1 
0.395 0.245 -0.035 1 
0.394 0.252 -0.035 1 
0.412 -0.288 -0.039 1 
0.412 -0.282 -0.039 1 
0.413 -0.186 -0.035 1 
0.411 -0.175 -0.034 1 
0.412 -0.157 -0.034 1 
0.412 -0.136 -0.033 1 
0.413 -0.127 -0.033 1 
0.409 -0.107 -0.031 1 
0.404 -0.035 -0.029 1 
0.394 -0.005 -0.025 1 
0.395 -0.003 -0.026 1 
0.425 0 -0.037 1 
0.394 0.002 -0.025 1 
0.401 0.133 -0.03 1 
0.404 0.142 -0.031 1 
0.402 0.154 -0.031 1 
0.402 0.163 -0.031 1 
0.403 0.173 -0.032 1 
0.401 0.194 -0.032 1 
0.397 0.264 -0.035 1 
0.421 -0.277 -0.039 1 
0.418 -0.209 -0.035 1 
0.414 -0.123 -0.031 1 
0.413 -0.086 -0.03 1 
0.413 -0.077 -0.03 1 
0.413 -0.065 -0.03 1 
0.414 -0.059 -0.03 1 
0.41 -0.036 -0.029 1 
0.403 -0.027 -0.026 1 
0.4 -0.016 -0.025 1 
0.373 0.013 -0.016 1 
0.414 0.045 -0.031 1 
0.414 0.063 -0.031 1 
0.412 0.073 -0.03 1 
0.41 0.084 -0.03 1 
0.411 0.093 -0.03 1 
0.41 0.104 -0.03 1 
0.412 0.114 -0.031 1 
0.411 0.123 -0.031 1 
0.404 0.204 -0.031 1 
0.404 0.213 -0.032 1 
0.401 0.252 -0.033 1 
0.402 0.263 -0.034 1 
0.424 -0.286 -0.038 1 
0.424 -0.269 -0.037 1 
0.423 -0.256 -0.036 1 
0.422 -0.247 -0.035 1 
0.422 -0.239 -0.035 1 
0.421 -0.235 -0.034 1 
0.422 -0.215 -0.034 1 
0.422 -0.175 -0.033 1 
0.423 -0.137 -0.032 1 
0.422 -0.115 -0.032 1 
0.424 -0.106 -0.032 1 
0.422 -0.096 -0.031 1 
0.378 0.013 -0.016 1 
0.353 0.018 -0.007 1 
0.411 0.182 -0.03 1 
0.402 0.272 -0.032 1 
0.428 -0.261 -0.035 1 
0.429 -0.243 -0.035 1 
0.423 -0.234 -0.032 1 
0.424 -0.085 -0.029 1 
0.424 -0.059 -0.029 1 
0.42 -0.035 -0.028 1 
0.413 -0.025 -0.025 1 
0.412 -0.012 -0.025 1 
0.364 0.004 -0.009 1 
0.411 0.035 -0.025 1 
0.423 0.044 -0.029 1 
0.424 0.049 -0.03 1 
0.424 0.063 -0.03 1 
0.423 0.074 -0.03 1 
0.421 0.083 -0.029 1 
0.421 -0.195 -0.033 1 
0.419 0.103 -0.029 1 
0.414 0.164 -0.028 1 
0.411 0.243 -0.031 1 
0.433 -0.305 -0.036 1 
0.436 -0.275 -0.036 1 
0.435 -0.265 -0.035 1 
0.433 -0.227 -0.033 1 
0.432 -0.205 -0.032 1 
0.432 -0.146 -0.031 1 
0.433 -0.105 -0.03 1 
0.434 -0.095 -0.03 1 
0.432 -0.075 -0.03 1 
0.43 -0.056 -0.029 1 
0.523 -0.011 -0.059 1 
0.357 0.015 -0.005 1 
0.423 0.11 -0.028 1 
0.424 0.144 -0.029 1 
0.424 0.154 -0.029 1 
0.42 0.173 -0.028 1 
0.413 0.253 -0.03 1 
0.414 0.273 -0.031 1 
0.414 0.282 -0.031 1 
0.414 0.285 -0.032 1 
0.442 -0.296 -0.036 1 
0.44 -0.285 -0.035 1 
0.431 -0.255 -0.031 1 
0.434 -0.25 -0.031 1 
0.434 -0.196 -0.03 1 
0.434 -0.191 -0.03 1 
0.434 -0.165 -0.029 1 
0.434 -0.115 -0.028 1 
0.433 -0.035 -0.027 1 
0.355 0.002 -0.003 1 
0.362 0.005 -0.005 1 
0.357 0.007 -0.003 1 
0.331 0.01 0.004 1 
0.357 0.015 -0.003 1 
0.346 0.021 0 1 
0.434 0.06 -0.028 1 
0.434 0.073 -0.028 1 
0.421 0.092 -0.029 1 
0.433 0.082 -0.028 1 
0.433 0.094 -0.028 1 
0.43 0.103 -0.028 1 
0.431 0.113 -0.028 1 
0.429 0.134 -0.028 1 
0.429 0.144 -0.028 1 
0.423 0.193 -0.028 1 
0.422 0.203 -0.028 1 
0.423 0.222 -0.029 1 
0.444 -0.298 -0.034 1 
0.442 -0.205 -0.03 1 
0.44 -0.195 -0.029 1 
0.442 -0.186 -0.03 1 
0.441 -0.175 -0.029 1 
0.439 -0.166 -0.028 1 
0.44 -0.156 -0.028 1 
0.442 -0.147 -0.029 1 
0.442 -0.136 -0.029 1 
0.441 -0.126 -0.028 1 
0.442 -0.106 -0.028 1 
0.441 -0.065 -0.027 1 
0.441 -0.055 -0.027 1 
0.434 -0.025 -0.025 1 
0.432 -0.02 -0.025 1 
0.4 0.083 -0.031 1 
0.346 0.008 0.001 1 
0.42 0.037 -0.021 1 
0.434 0.154 -0.027 1 
0.432 0.173 -0.027 1 
0.423 0.289 -0.029 1 
0.441 -0.32 -0.031 1 
0.444 -0.286 -0.031 1 
0.444 -0.277 -0.03 1 
0.444 -0.268 -0.03 1 
0.442 -0.257 -0.029 1 
0.444 -0.036 -0.026 1 
0.44 -0.028 -0.025 1 
0.44 -0.023 -0.025 1 
0.523 -0.021 -0.05 1 
0.532 -0.018 -0.052 1 
0.344 0.003 0.003 1 
0.336 0.006 0.006 1 
0.441 0.042 -0.025 1 
0.444 0.063 -0.026 1 
0.443 0.072 -0.026 1 
0.443 0.133 -0.027 1 
0.44 0.142 -0.026 1 
0.414 0.174 -0.029 1 
0.434 0.183 -0.026 1 
0.433 0.193 -0.026 1 
0.432 0.203 -0.026 1 
0.433 0.211 -0.026 1 
0.431 0.234 -0.027 1 
0.423 0.263 -0.031 1 
0.432 0.243 -0.027 1 
0.432 0.252 -0.028 1 
0.433 0.264 -0.028 1 
0.431 0.274 -0.028 1 
0.429 0.283 -0.028 1 
0.454 -0.325 -0.032 1 
0.454 -0.315 -0.032 1 
0.451 -0.256 -0.029 1 
0.451 -0.245 -0.028 1 
0.451 -0.236 -0.028 1 
0.451 -0.225 -0.028 1 
0.453 -0.215 -0.028 1 
0.45 -0.197 -0.027 1 
0.45 -0.186 -0.027 1 
0.45 -0.175 -0.027 1 
0.451 -0.165 -0.027 1 
0.45 -0.145 -0.026 1 
0.452 -0.136 -0.026 1 
0.451 -0.125 -0.026 1 
0.451 -0.106 -0.026 1 
0.452 -0.096 -0.026 1 
0.454 -0.087 -0.026 1 
0.453 -0.076 -0.026 1 
0.423 0.124 -0.03 1 
0.451 -0.065 -0.025 1 
0.452 -0.055 -0.026 1 
0.452 -0.045 -0.026 1 
0.449 -0.027 -0.025 1 
0.359 0.026 0 1 
0.445 0.043 -0.024 1 
0.449 0.054 -0.025 1 
0.448 0.064 -0.025 1 
0.448 0.074 -0.025 1 
0.401 -0.005 -0.026 1 
0.449 0.084 -0.026 1 
0.445 0.145 -0.025 1 
0.444 0.163 -0.025 1 
0.442 0.172 -0.025 1 
0.439 0.184 -0.025 1 
0.44 0.192 -0.025 1 
0.439 0.203 -0.025 1 
0.44 0.214 -0.026 1 
0.437 0.234 -0.026 1 
0.436 0.241 -0.026 1 
0.43 0.3 -0.027 1 
0.454 -0.283 -0.028 1 
0.455 -0.209 -0.026 1 
0.454 -0.205 -0.026 1 
0.456 -0.187 -0.026 1 
0.455 -0.159 -0.025 1 
0.456 -0.146 -0.025 1 
0.456 -0.135 -0.025 1 
0.457 -0.125 -0.025 1 
0.457 -0.117 -0.025 1 
0.456 -0.098 -0.025 1 
0.458 -0.085 -0.025 1 
0.458 -0.075 -0.025 1 
0.457 -0.066 -0.025 1 
0.453 -0.035 -0.023 1 
0.542 -0.022 -0.049 1 
0.352 -0.006 0.004 1 
0.319 0.014 0.013 1 
0.443 -0.227 -0.031 1 
0.352 0.025 0.004 1 
0.431 0.041 -0.018 1 
0.452 0.064 -0.024 1 
0.452 0.072 -0.024 1 
0.454 0.094 -0.025 1 
0.454 0.099 -0.025 1 
0.453 0.104 -0.024 1 
0.4 0.093 -0.031 1 
0.411 -0.187 -0.034 1 
0.453 0.109 -0.024 1 
0.453 0.114 -0.025 1 
0.453 0.12 -0.025 1 
0.451 0.132 -0.024 1 
0.454 -0.155 -0.025 1 
0.449 0.144 -0.024 1 
0.444 0.182 -0.024 1 
0.444 0.203 -0.024 1 
0.444 0.209 -0.024 1 
0.445 0.212 -0.025 1 
0.445 0.224 -0.025 1 
0.446 0.233 -0.026 1 
0.414 0.262 -0.03 1 
0.445 0.243 -0.026 1 
0.442 0.264 -0.026 1 
0.441 0.272 -0.026 1 
0.44 0.283 -0.026 1 
0.439 0.294 -0.026 1 
0.463 -0.315 -0.028 1 
0.46 -0.277 -0.026 1 
0.414 -0.237 -0.037 1 
0.461 -0.256 -0.026 1 
0.461 -0.235 -0.025 1 
0.337 -0.001 0.01 1 
0.323 0.003 0.014 1 
0.317 0.013 0.015 1 
0.33 0.021 0.012 1 
0.45 0.046 -0.02 1 
0.453 0.154 -0.023 1 
0.453 0.162 -0.023 1 
0.449 0.204 -0.023 1 
0.424 0.284 -0.029 1 
0.448 0.263 -0.025 1 
0.447 0.271 -0.025 1 
0.445 0.291 -0.025 1 
0.445 0.303 -0.025 1 
0.442 0.313 -0.025 1 
0.442 0.316 -0.025 1 
0.463 -0.345 -0.027 1 
0.464 -0.34 -0.027 1 
0.464 -0.296 -0.025 1 
0.465 -0.278 -0.025 1 
0.464 -0.265 -0.024 1 
0.464 -0.235 -0.023 1 
0.464 -0.226 -0.023 1 
0.463 -0.205 -0.023 1 
0.462 -0.196 -0.022 1 
0.464 -0.166 -0.022 1 
0.464 -0.117 -0.022 1 
0.463 -0.095 -0.021 1 
0.464 -0.076 -0.021 1 
0.463 -0.046 -0.021 1 
0.464 -0.036 -0.021 1 
0.545 -0.026 -0.043 1 
0.332 -0.002 0.013 1 
0.454 0.213 -0.022 1 
0.454 0.228 -0.022 1 
0.454 0.242 -0.023 1 
0.452 0.252 -0.022 1 
0.452 0.264 -0.023 1 
0.45 0.302 -0.024 1 
0.47 -0.319 -0.025 1 
0.464 -0.189 -0.02 1 
0.464 -0.178 -0.02 1 
0.464 -0.161 -0.019 1 
0.506 -0.041 -0.029 1 
0.539 -0.038 -0.038 1 
0.334 0.014 -0.005 1 
0.332 -0.005 0.014 1 
0.327 0.023 0.016 1 
0.356 0.029 0.008 1 
0.454 0.29 -0.022 1 
0.454 0.313 -0.022 1 
0.457 -0.056 -0.025 1 
0.45 0.321 -0.022 1 
0.467 -0.085 -0.017 1 
0.467 -0.077 -0.017 1 
0.467 -0.066 -0.017 1 
0.502 -0.041 -0.025 1 
0.342 -0.008 0.013 1 
0.394 0.263 -0.036 1 
0.326 -0.005 0.017 1 
0.407 0 -0.028 1 
0.344 0.029 0.013 1 
0.462 0.053 -0.016 1 
0.463 0.064 -0.016 1 
0.463 0.083 -0.016 1 
0.463 0.094 -0.016 1 
0.463 0.113 -0.017 1 
0.424 0.272 -0.029 1 
0.463 0.124 -0.017 1 
0.462 0.131 -0.017 1 
0.454 0.329 -0.02 1 
0.474 -0.336 -0.02 1 
0.472 -0.307 -0.019 1 
0.473 -0.235 -0.017 1 
0.472 -0.226 -0.017 1 
0.47 -0.207 -0.016 1 
0.469 -0.195 -0.016 1 
0.47 -0.155 -0.015 1 
0.47 -0.147 -0.015 1 
0.469 -0.127 -0.015 1 
0.469 -0.116 -0.015 1 
0.479 -0.041 -0.017 1 
0.349 0.01 -0.007 1 
0.422 0.162 -0.029 1 
0.346 -0.009 0.014 1 
0.333 0.025 0.017 1 
0.464 0.143 -0.015 1 
0.464 0.154 -0.015 1 
0.463 0.162 -0.015 1 
0.461 0.204 -0.015 1 
0.461 0.224 -0.016 1 
0.461 0.233 -0.016 1 
0.459 0.273 -0.017 1 
0.458 0.282 -0.017 1 
0.477 -0.319 -0.017 1 
0.473 -0.285 -0.015 1 
0.413 -0.203 -0.035 1 
0.472 -0.275 -0.015 1 
0.472 -0.265 -0.015 1 
0.474 -0.255 -0.015 1 
0.341 -0.008 0.017 1 
0.462 0.314 -0.016 1 
0.461 0.323 -0.016 1 
0.46 0.332 -0.016 1 
0.474 -0.354 -0.015 1 
0.476 -0.331 -0.015 1 
0.492 -0.042 -0.014 1 
0.499 -0.04 -0.015 1 
0.465 0.341 -0.015 1 
0.474 -0.354 -0.012 1 
0.474 -0.245 -0.015 1 
0.423 0.133 -0.028 1 
0.514 -0.039 -0.016 1 
0.37 0.015 -0.007 1 
0.469 -0.105 -0.015 1 
0.471 -0.048 -0.015 1 
0.444 -0.029 -0.023 1 
0.473 -0.275 -0.007 1 
0.472 -0.247 -0.006 1 
0.46 0.293 -0.015 1 
0.528 -0.037 -0.015 1 
0.411 0.202 -0.029 1 
0.533 -0.031 -0.016 1 
0.462 0.291 -0.007 1 
0.463 0.302 -0.007 1 
0.437 0.304 -0.026 1 
0.411 -0.216 -0.035 1 
0.474 -0.295 -0.004 1 
0.504 -0.044 -0.007 1 
0.411 -0.165 -0.033 1 
0.431 -0.176 -0.031 1 
0.463 0.312 -0.005 1 
0.463 0.322 -0.005 1 
0.46 0.332 -0.005 1 
0.461 0.336 -0.005 1 
0.512 -0.042 -0.006 1 
0.463 -0.004 -0.045 1 
0.453 0.283 -0.021 1 
0.422 0.213 -0.028 1 
0.509 -0.044 -0.002 1 
0.522 -0.04 -0.005 1 
0.533 -0.035 -0.007 1 
0.529 -0.031 -0.006 1 
0.422 -0.205 -0.033 1 
0.418 -0.015 -0.025 1 
0.414 0.217 -0.031 1 
0.446 0.28 -0.025 1 
0.434 -0.303 -0.037 1 
0.464 0.293 0.003 1 
0.464 0.303 0.003 1 
0.464 0.313 0.003 1 
0.464 0.322 0.003 1 
0.461 0.333 0.003 1 
0.514 -0.045 0.002 1 
0.423 -0.127 -0.032 1 
0.526 -0.05 0.003 1 
0.521 -0.046 0.004 1 
0.522 -0.043 0.004 1 
0.534 -0.038 0.002 1 
0.536 -0.035 0.002 1 
0.464 -0.065 -0.018 1 
0.431 -0.046 -0.029 1 
0.429 -0.265 -0.036 1 
0.393 -0.015 -0.027 1 
0.524 -0.05 0.007 1 
0.401 0.233 -0.034 1 
0.444 0.254 -0.026 1 
0.534 -0.048 0.009 1 
0.463 -0.135 -0.022 1 
0.404 0.223 -0.032 1 
0.464 -0.055 -0.018 1 
0.463 0.339 -0.017 1 
0.465 0.135 -0.015 1 
0.463 0.174 -0.015 1 
0.518 -0.014 -0.054 1 
0.44 0.222 -0.026 1 
0.337 0.023 -0.005 1 
0.466 -0.055 -0.016 1 
0.469 -0.102 -0.015 1 
0.468 -0.135 -0.015 1 
0.469 -0.186 -0.016 1 
0.441 -0.006 -0.037 1 
0.336 0.023 0.01 1 
0.429 0.052 -0.029 1 
0.47 -0.175 -0.016 1 
0.47 -0.216 -0.016 1 
0.464 -0.256 -0.024 1 
0.473 -0.295 -0.016 1 
0.447 -0.295 -0.032 1 
0.461 -0.287 -0.027 1 
0.442 -0.116 -0.028 1 
0.434 0.223 -0.027 1 
0.43 -0.275 -0.036 1 
0.455 -0.197 -0.026 1 
0.432 -0.215 -0.032 1 
0.461 -0.247 -0.026 1 
0.432 -0.126 -0.03 1 
0.464 -0.306 -0.026 1 
0.466 -0.288 -0.025 1 
0.466 -0.311 -0.026 1 
0.401 -0.045 -0.03 1 
0.463 -0.325 -0.029 1 
0.464 -0.217 -0.023 1 
0.421 -0.145 -0.032 1 
0.454 0.272 -0.021 1 
0.423 -0.297 -0.038 1 
0.428 -0.287 -0.036 1 
0.469 -0.328 -0.025 1 
0.454 0.088 -0.024 1 
0.443 -0.001 -0.038 1 
0.432 -0.066 -0.03 1 
0.327 0.006 0.01 1 
0.462 0.337 0.002 1 
0.454 0.174 -0.023 1 
0.413 0.214 -0.03 1 
0.452 0.184 -0.023 1 
0.476 -0.335 -0.015 1 
0.339 0.022 0.003 1 
0.42 -0.047 -0.03 1 
0.431 0.123 -0.028 1 
0.461 0.213 -0.015 1 
0.433 -0.235 -0.033 1 
0.463 0.072 -0.016 1 
0.461 -0.215 -0.025 1 
0.417 -0.216 -0.035 1 
0.463 0.102 -0.016 1 
0.455 -0.175 -0.025 1 
0.412 -0.246 -0.039 1 
0.532 -0.031 0 1 
0.432 0.305 -0.028 1 
0.451 0.192 -0.023 1 
0.449 -0.285 -0.029 1 
0.413 -0.145 -0.034 1 
0.443 0.093 -0.026 1 
0.409 -0.047 -0.031 1 
0.467 -0.255 -0.025 1 
0.47 -0.167 -0.015 1 
0.341 0.008 0.004 1 
0.459 0.264 -0.016 1 
0.474 -0.295 -0.007 1 
0.421 0.253 -0.029 1 
0.475 -0.307 -0.016 1 
0.444 0.05 -0.026 1 
0.443 0.154 -0.025 1 
0.456 -0.106 -0.025 1 
0.445 0.306 -0.026 1 
0.443 0.113 -0.027 1 
0.321 0.015 0.014 1 
0.325 -0.003 0.016 1 
0.518 -0.039 -0.032 1 
0.444 0.083 -0.027 1 
0.441 -0.305 -0.036 1 
0.442 0.123 -0.027 1 
0.463 -0.105 -0.021 1 
0.431 -0.085 -0.029 1 
0.453 -0.032 -0.023 1 
0.413 -0.017 -0.025 1 
0.417 -0.226 -0.035 1 
0.544 -0.026 -0.046 1 
0.461 0.242 -0.016 1 
0.431 -0.156 -0.031 1 
0.404 0.184 -0.033 1 
0.451 -0.268 -0.029 1 
0.423 -0.166 -0.033 1 
0.421 0.244 -0.029 1 
0.413 0.154 -0.03 1 
0.41 -0.196 -0.034 1 
0.392 -0.025 -0.026 1 
0.41 -0.096 -0.032 1 
0.414 0.233 -0.031 1 
0.452 0.13 -0.025 1 
0.346 -0.001 0.003 1 
0.422 0.234 -0.029 1 
0.466 -0.345 -0.025 1 
0.441 -0.075 -0.028 1 
0.372 0.007 -0.012 1 
0.533 -0.041 0.005 1 
0.413 -0.205 -0.035 1 
0.43 0.043 -0.029 1 
0.434 -0.137 -0.031 1 
0.454 0.083 -0.024 1 
0.462 0.301 -0.015 1 
0.464 -0.147 -0.022 1 
0.424 -0.082 -0.029 1 
0.444 0.19 -0.024 1 
0.442 -0.306 -0.034 1 
0.451 -0.117 -0.026 1 
0.404 0.064 -0.032 1 
0.472 -0.265 -0.006 1 
0.402 0.034 -0.029 1 
0.472 -0.256 -0.006 1 
0.442 -0.046 -0.028 1 
0.452 0.124 -0.024 1 
0.444 -0.216 -0.031 1 
0.414 0.194 -0.03 1 
0.445 0.142 -0.025 1 
0.473 -0.315 -0.019 1 
0.442 -0.086 -0.028 1 
0.463 0.182 -0.015 1 
0.397 0.232 -0.035 1 
0.455 -0.167 -0.025 1 
0.444 -0.244 -0.029 1 
0.433 0.294 -0.027 1 
0.46 -0.267 -0.026 1 
0.418 -0.026 -0.025 1 
0.434 0.157 -0.027 1 
0.459 0.252 -0.016 1 
0.403 0.243 -0.033 1 
0.478 -0.348 -0.015 1 
0.414 0.134 -0.03 1 
0.474 -0.326 -0.02 1 
0.454 0.222 -0.022 1 
0.398 0.123 -0.031 1 
0.469 -0.338 -0.025 1 
0.413 -0.225 -0.036 1 
0.464 -0.125 -0.022 1 
0.42 -0.157 -0.032 1 
0.42 0.184 -0.029 1 
0.419 -0.065 -0.03 1 
0.541 -0.029 -0.042 1 
0.442 -0.096 -0.028 1 
0.414 0.138 -0.03 1 
0.464 -0.09 -0.021 1 
0.422 -0.185 -0.033 1 
0.473 -0.285 -0.007 1 
0.443 -0.246 -0.029 1 
0.47 -0.042 -0.017 1 
0.442 0.102 -0.026 1 
0.461 -0.227 -0.025 1 
0.454 -0.309 -0.032 1 
0.449 -0.037 -0.025 1 
0.462 0.193 -0.015 1 
0.477 -0.36 0.02 2 
0.584 -0.047 0.085 2 
0.546 -0.036 0.052 2 
0.572 -0.038 0.074 2 
0.543 -0.022 0.074 2 
0.578 -0.028 0.096 2 
0.585 -0.036 0.081 2 
0.534 -0.021 0.078 2 
0.553 -0.05 0.021 2 
0.554 -0.026 0.076 2 
0.575 -0.057 0.041 2 
0.559 -0.03 0.076 2 
0.573 -0.053 0.037 2 
0.551 -0.036 0.058 2 
0.556 -0.037 0.061 2 
0.573 -0.064 0.038 2 
0.569 -0.059 0.041 2 
0.555 -0.047 0.021 2 
0.583 -0.058 0.052 2 
0.593 -0.032 0.107 2 
0.595 -0.04 0.1 2 
0.543 -0.045 0.012 2 
0.543 -0.042 0.052 2 
0.548 -0.026 0.066 2 
0.562 -0.055 0.031 2 
0.564 -0.027 0.082 2 
0.544 -0.022 0.067 2 
0.56 -0.058 0.034 2 
0.573 -0.027 0.089 2 
0.582 -0.028 0.111 2 
0.596 -0.033 0.111 2 
0.592 -0.04 0.096 2 
0.593 -0.055 0.056 2 
0.587 -0.066 0.049 2 
0.548 -0.022 0.07 2 
0.596 -0.036 0.092 2 
0.59 -0.04 0.092 2 
0.576 -0.027 0.103 2 
0.552 -0.022 0.08 2 
0.582 -0.046 0.081 2 
0.544 -0.049 0.015 2 
0.548 -0.056 0.021 2 
0.592 -0.047 0.092 2 
0.551 -0.057 0.025 2 
0.544 -0.025 0.063 2 
0.548 -0.022 0.063 2 
0.551 -0.06 0.032 2 
0.581 -0.039 0.081 2 
0.595 -0.071 0.064 2 
0.584 -0.039 0.085 2 
0.569 -0.027 0.086 2 
0.563 -0.037 0.068 2 
0.561 -0.051 0.031 2 
0.566 -0.045 0.071 2 
0.568 -0.038 0.071 2 
0.285 -0.006 0.046 3 
0.281 -0.012 0.104 3 
0.285 -0.002 0.044 3 
0.289 -0.006 0.044 3 
0.289 0.019 0.044 3 
0.265 0.019 0.068 3 
0.293 -0.01 0.071 3 
0.265 0.014 0.067 3 
0.265 0.004 0.067 3 
0.291 0.018 0.034 3 
0.284 0.025 0.085 3 
0.253 0.017 0.084 3 
0.249 0.019 0.093 3 
0.286 0.018 0.046 3 
0.253 0.014 0.084 3 
0.253 0.004 0.084 3 
0.254 -0.006 0.084 3 
0.292 0.027 0.088 3 
0.295 -0.005 0.031 3 
0.255 0.018 0.084 3 
0.267 -0.009 0.1 3 
0.255 -0.007 0.095 3 
0.249 -0.005 0.093 3 
0.245 0.004 0.091 3 
0.247 0.014 0.092 3 
0.302 0.011 0.023 3 
0.26 -0.005 0.074 3 
0.275 0.022 0.076 3 
0.273 0.016 0.054 3 
0.275 0.014 0.053 3 
0.274 0.013 0.054 3 
0.272 0.004 0.054 3 
0.266 -0.008 0.074 3 
0.265 0.02 0.079 3 
0.291 -0.013 0.104 3 
0.262 -0.009 0.093 3 
0.275 -0.004 0.054 3 
0.275 -0.005 0.054 3 
0.285 0.014 0.042 3 
0.295 0.02 0.038 3 
0.259 0.004 0.074 3 
0.259 0.014 0.074 3 
0.261 0.019 0.074 3 
0.288 0.025 0.079 3 
0.255 0.02 0.092 3 
0.28 0.004 0.044 3 
0.284 0.014 0.044 3 
0.284 0.016 0.044 3 
0.304 -0.003 0.024 3 
0.28 -0.009 0.072 3 
0.275 0.015 0.053 3 
0.267 0.023 0.091 3 
0.296 0.02 0.033 3 
0.266 -0.009 0.085 3 
0.278 0.024 0.086 3 
0.296 0.014 0.029 3 
0.305 0.021 0.029 3 
0.295 -0.003 0.03 3 
0.266 -0.008 0.084 3 
0.259 -0.008 0.084 3 
0.255 0.001 0.083 3 
0.255 0.01 0.083 3 
0.269 -0.005 0.064 3 
0.266 0.004 0.064 3 
0.267 0.013 0.064 3 
0.286 0.002 0.034 3 
0.284 0.004 0.034 3 
0.288 0.014 0.034 3 
0.308 0.014 0.022 3 
0.288 -0.005 0.034 3 
0.268 0.016 0.064 3 
0.309 -0.004 0.024 3 
0.283 0.008 0.034 3 
0.306 -0.002 0.025 3 
0.258 0.022 0.097 3 
0.468 0.223 0.113 3 
0.468 0.132 0.134 3 
0.469 0.163 0.134 3 
0.47 0.263 0.142 3 
0.469 0.152 0.134 3 
0.469 0.144 0.134 3 
0.467 0.232 0.113 3 
0.467 0.244 0.113 3 
0.464 0.323 0.042 3 
0.466 0.291 0.043 3 
0.468 0.254 0.113 3 
0.467 0.162 0.112 3 
0.468 0.263 0.113 3 
0.468 0.123 0.134 3 
0.469 0.274 0.114 3 
0.469 0.113 0.134 3 
0.469 0.283 0.114 3 
0.469 0.293 0.114 3 
0.47 0.3 0.114 3 
0.466 0.073 0.114 3 
0.468 0.082 0.114 3 
0.465 0.124 0.003 3 
0.466 0.122 0.052 3 
0.469 0.253 0.142 3 
0.432 0.058 0.103 3 
0.469 0.312 0.112 3 
0.469 0.322 0.112 3 
0.469 0.332 0.112 3 
0.464 0.132 0.004 3 
0.466 0.343 0.112 3 
0.472 0.351 0.143 3 
0.469 0.34 0.142 3 
0.469 0.203 0.113 3 
0.471 0.332 0.142 3 
0.468 0.104 0.112 3 
0.469 0.113 0.112 3 
0.469 0.124 0.112 3 
0.468 0.134 0.112 3 
0.468 0.143 0.112 3 
0.468 0.174 0.112 3 
0.468 0.182 0.112 3 
0.469 0.192 0.113 3 
0.468 0.154 0.112 3 
0.467 0.344 0.124 3 
0.469 0.284 0.134 3 
0.469 0.274 0.134 3 
0.468 0.174 0.123 3 
0.468 0.183 0.123 3 
0.47 0.262 0.134 3 
0.468 0.191 0.124 3 
0.469 0.204 0.124 3 
0.468 0.212 0.124 3 
0.467 0.223 0.124 3 
0.468 0.242 0.124 3 
0.468 0.253 0.082 3 
0.463 0.162 0.003 3 
0.467 0.084 0.063 3 
0.468 0.163 0.123 3 
0.47 0.324 0.132 3 
0.47 0.331 0.133 3 
0.468 0.342 0.133 3 
0.468 0.346 0.133 3 
0.468 0.174 0.132 3 
0.469 0.183 0.132 3 
0.469 0.192 0.132 3 
0.469 0.204 0.133 3 
0.469 0.213 0.133 3 
0.468 0.224 0.133 3 
0.469 0.252 0.133 3 
0.469 0.243 0.133 3 
0.468 0.233 0.133 3 
0.467 0.074 0.122 3 
0.468 0.093 0.114 3 
0.464 0.107 0.007 3 
0.469 0.264 0.122 3 
0.469 0.093 0.134 3 
0.469 0.274 0.122 3 
0.469 0.283 0.123 3 
0.47 0.294 0.123 3 
0.469 0.082 0.134 3 
0.47 0.304 0.123 3 
0.469 0.323 0.123 3 
0.47 0.334 0.124 3 
0.467 0.34 0.094 3 
0.462 0.222 -0.005 3 
0.469 0.104 0.134 3 
0.468 0.074 0.133 3 
0.468 0.082 0.123 3 
0.468 0.093 0.123 3 
0.468 0.104 0.123 3 
0.469 0.113 0.123 3 
0.469 0.312 0.123 3 
0.469 0.296 0.134 3 
0.469 0.293 0.134 3 
0.469 0.124 0.123 3 
0.469 0.132 0.123 3 
0.468 0.154 0.123 3 
0.467 0.313 0.074 3 
0.467 0.202 0.082 3 
0.466 0.274 0.082 3 
0.466 0.264 0.082 3 
0.467 0.243 0.082 3 
0.466 0.062 0.063 3 
0.467 0.234 0.082 3 
0.467 0.222 0.082 3 
0.464 0.268 0.024 3 
0.467 0.213 0.082 3 
0.467 0.293 0.082 3 
0.467 0.193 0.082 3 
0.467 0.184 0.082 3 
0.467 0.173 0.082 3 
0.467 0.153 0.082 3 
0.467 0.142 0.082 3 
0.467 0.134 0.082 3 
0.467 0.123 0.082 3 
0.466 0.084 0.084 3 
0.465 0.073 0.092 3 
0.469 0.346 0.092 3 
0.464 0.293 0.017 3 
0.464 0.333 0.085 3 
0.467 0.112 0.084 3 
0.467 0.103 0.084 3 
0.465 0.144 0.014 3 
0.466 0.092 0.084 3 
0.46 0.274 -0.006 3 
0.46 0.336 0.014 3 
0.465 0.073 0.084 3 
0.462 0.064 0.084 3 
0.466 0.342 0.083 3 
0.465 0.334 0.083 3 
0.466 0.322 0.083 3 
0.466 0.302 0.082 3 
0.467 0.114 0.074 3 
0.467 0.193 0.074 3 
0.467 0.184 0.074 3 
0.467 0.173 0.074 3 
0.466 0.164 0.074 3 
0.466 0.153 0.074 3 
0.467 0.142 0.074 3 
0.467 0.134 0.074 3 
0.467 0.123 0.074 3 
0.466 0.204 0.074 3 
0.467 0.092 0.074 3 
0.466 0.084 0.074 3 
0.466 0.073 0.074 3 
0.463 0.061 0.073 3 
0.459 0.053 0.071 3 
0.465 0.083 0.033 3 
0.478 0.355 0.2 3 
0.467 0.084 0.093 3 
0.467 0.213 0.074 3 
0.466 0.224 0.074 3 
0.466 0.233 0.074 3 
0.467 0.243 0.074 3 
0.467 0.252 0.074 3 
0.467 0.264 0.074 3 
0.466 0.273 0.074 3 
0.466 0.283 0.074 3 
0.466 0.302 0.074 3 
0.467 0.323 0.074 3 
0.465 0.334 0.074 3 
0.465 0.341 0.074 3 
0.464 0.333 0.077 3 
0.464 0.336 0.08 3 
0.466 0.292 0.074 3 
0.463 0.339 0.022 3 
0.468 0.112 0.104 3 
0.467 0.103 0.103 3 
0.468 0.093 0.104 3 
0.468 0.082 0.104 3 
0.464 0.102 0.004 3 
0.466 0.073 0.103 3 
0.464 0.067 0.103 3 
0.457 0.063 0.102 3 
0.468 0.123 0.104 3 
0.468 0.345 0.103 3 
0.467 0.34 0.103 3 
0.468 0.334 0.103 3 
0.468 0.324 0.103 3 
0.468 0.311 0.103 3 
0.468 0.304 0.103 3 
0.467 0.29 0.102 3 
0.468 0.203 0.104 3 
0.465 0.294 0.023 3 
0.464 0.067 0.092 3 
0.464 0.067 0.106 3 
0.459 0.064 0.105 3 
0.469 0.346 0.106 3 
0.468 0.232 0.104 3 
0.468 0.223 0.104 3 
0.468 0.214 0.104 3 
0.468 0.282 0.102 3 
0.468 0.194 0.104 3 
0.468 0.182 0.104 3 
0.468 0.174 0.104 3 
0.468 0.162 0.104 3 
0.468 0.154 0.104 3 
0.468 0.143 0.104 3 
0.468 0.134 0.104 3 
0.468 0.162 0.093 3 
0.468 0.244 0.093 3 
0.468 0.232 0.093 3 
0.468 0.223 0.093 3 
0.468 0.214 0.093 3 
0.467 0.202 0.093 3 
0.467 0.193 0.093 3 
0.467 0.182 0.093 3 
0.467 0.173 0.093 3 
0.467 0.253 0.093 3 
0.468 0.154 0.093 3 
0.467 0.142 0.093 3 
0.467 0.134 0.093 3 
0.467 0.123 0.093 3 
0.467 0.114 0.093 3 
0.467 0.103 0.093 3 
0.466 0.092 0.092 3 
0.462 0.234 -0.005 3 
0.466 0.103 0.074 3 
0.467 0.262 0.094 3 
0.467 0.271 0.094 3 
0.467 0.284 0.094 3 
0.468 0.294 0.094 3 
0.468 0.304 0.094 3 
0.468 0.314 0.094 3 
0.467 0.323 0.094 3 
0.468 0.334 0.094 3 
0.466 0.062 0.044 3 
0.467 0.273 0.063 3 
0.467 0.244 0.102 3 
0.468 0.254 0.102 3 
0.468 0.263 0.102 3 
0.468 0.272 0.102 3 
0.466 0.161 0.082 3 
0.474 0.297 0.186 3 
0.471 0.284 0.184 3 
0.473 0.273 0.184 3 
0.474 0.258 0.184 3 
0.475 0.253 0.184 3 
0.474 0.249 0.184 3 
0.474 0.243 0.184 3 
0.474 0.233 0.183 3 
0.453 0.068 0.169 3 
0.475 0.231 0.184 3 
0.474 0.224 0.183 3 
0.475 0.222 0.183 3 
0.474 0.212 0.183 3 
0.473 0.202 0.182 3 
0.474 0.194 0.182 3 
0.474 0.153 0.181 3 
0.476 0.113 0.184 3 
0.474 0.173 0.185 3 
0.474 0.165 0.184 3 
0.474 0.162 0.184 3 
0.476 0.145 0.184 3 
0.476 0.142 0.184 3 
0.475 0.133 0.184 3 
0.475 0.124 0.184 3 
0.473 0.084 0.174 3 
0.474 0.141 0.181 3 
0.475 0.102 0.183 3 
0.475 0.093 0.183 3 
0.474 0.09 0.183 3 
0.474 0.084 0.183 3 
0.475 0.082 0.183 3 
0.466 0.153 0.044 3 
0.475 0.351 0.19 3 
0.473 0.129 0.174 3 
0.465 0.183 0.033 3 
0.475 0.256 0.182 3 
0.464 0.067 0.122 3 
0.471 0.353 0.182 3 
0.474 0.334 0.182 3 
0.475 0.328 0.182 3 
0.474 0.317 0.181 3 
0.474 0.303 0.18 3 
0.474 0.293 0.183 3 
0.473 0.123 0.174 3 
0.473 0.112 0.174 3 
0.473 0.104 0.174 3 
0.468 0.143 0.123 3 
0.474 0.093 0.174 3 
0.443 0.066 0.163 3 
0.465 0.078 0.004 3 
0.474 0.176 0.185 3 
0.476 0.302 0.184 3 
0.476 0.312 0.184 3 
0.474 0.314 0.184 3 
0.475 0.321 0.184 3 
0.474 0.343 0.186 3 
0.472 0.154 0.172 3 
0.473 0.356 0.186 3 
0.465 0.341 0.034 3 
0.463 0.194 -0.007 3 
0.463 0.214 0.002 3 
0.47 0.227 0.164 3 
0.474 0.104 0.18 3 
0.474 0.112 0.18 3 
0.474 0.124 0.18 3 
0.474 0.132 0.181 3 
0.464 0.336 0.054 3 
0.477 0.224 0.193 3 
0.476 0.214 0.192 3 
0.467 0.313 0.083 3 
0.476 0.202 0.192 3 
0.476 0.193 0.192 3 
0.475 0.183 0.191 3 
0.475 0.174 0.191 3 
0.476 0.163 0.191 3 
0.476 0.232 0.193 3 
0.464 0.083 0.004 3 
0.476 0.154 0.191 3 
0.475 0.142 0.19 3 
0.476 0.133 0.19 3 
0.474 0.182 0.182 3 
0.477 0.122 0.19 3 
0.477 0.114 0.19 3 
0.476 0.102 0.19 3 
0.475 0.244 0.193 3 
0.474 0.246 0.193 3 
0.475 0.253 0.193 3 
0.476 0.263 0.194 3 
0.476 0.27 0.194 3 
0.476 0.273 0.195 3 
0.476 0.283 0.195 3 
0.477 0.294 0.196 3 
0.477 0.304 0.196 3 
0.478 0.311 0.197 3 
0.478 0.322 0.198 3 
0.472 0.213 0.173 3 
0.478 0.333 0.199 3 
0.477 0.343 0.199 3 
0.479 0.353 0.2 3 
0.476 0.356 0.193 3 
0.475 0.282 0.192 3 
0.474 0.278 0.191 3 
0.473 0.27 0.19 3 
0.474 0.262 0.19 3 
0.474 0.24 0.189 3 
0.469 0.252 0.122 3 
0.466 0.192 0.063 3 
0.462 0.104 -0.005 3 
0.462 0.134 -0.006 3 
0.474 0.35 0.192 3 
0.475 0.344 0.192 3 
0.476 0.334 0.192 3 
0.464 0.312 0.011 3 
0.474 0.287 0.188 3 
0.474 0.197 0.185 3 
0.474 0.188 0.185 3 
0.472 0.244 0.174 3 
0.465 0.294 0.012 3 
0.476 0.293 0.192 3 
0.467 0.232 0.124 3 
0.477 0.304 0.193 3 
0.477 0.314 0.194 3 
0.477 0.321 0.194 3 
0.465 0.172 0.033 3 
0.466 0.254 0.063 3 
0.472 0.343 0.182 3 
0.47 0.314 0.132 3 
0.469 0.212 0.113 3 
0.474 0.079 0.188 3 
0.475 0.082 0.189 3 
0.477 0.094 0.19 3 
0.464 0.203 0.011 3 
0.471 0.203 0.153 3 
0.469 0.072 0.153 3 
0.47 0.263 0.154 3 
0.47 0.254 0.154 3 
0.469 0.241 0.153 3 
0.469 0.232 0.153 3 
0.462 0.242 -0.005 3 
0.47 0.223 0.153 3 
0.471 0.212 0.153 3 
0.471 0.083 0.154 3 
0.47 0.194 0.152 3 
0.464 0.284 0.004 3 
0.469 0.184 0.152 3 
0.464 0.054 0.052 3 
0.464 0.143 0.003 3 
0.47 0.349 0.154 3 
0.47 0.342 0.154 3 
0.473 0.331 0.154 3 
0.471 0.094 0.154 3 
0.471 0.103 0.154 3 
0.471 0.114 0.154 3 
0.471 0.122 0.154 3 
0.471 0.133 0.154 3 
0.467 0.123 0.063 3 
0.471 0.142 0.154 3 
0.471 0.153 0.154 3 
0.47 0.164 0.154 3 
0.47 0.173 0.154 3 
0.464 0.283 0.018 3 
0.466 0.114 0.044 3 
0.474 0.323 0.163 3 
0.474 0.33 0.163 3 
0.473 0.342 0.164 3 
0.469 0.082 0.142 3 
0.47 0.173 0.143 3 
0.47 0.164 0.143 3 
0.47 0.153 0.143 3 
0.47 0.144 0.143 3 
0.47 0.133 0.143 3 
0.47 0.124 0.143 3 
0.47 0.102 0.142 3 
0.47 0.094 0.142 3 
0.47 0.184 0.143 3 
0.466 0.172 0.052 3 
0.465 0.212 0.032 3 
0.471 0.315 0.144 3 
0.471 0.312 0.144 3 
0.47 0.304 0.144 3 
0.47 0.282 0.143 3 
0.471 0.273 0.143 3 
0.471 0.351 0.164 3 
0.469 0.193 0.144 3 
0.47 0.202 0.144 3 
0.47 0.214 0.144 3 
0.469 0.222 0.144 3 
0.469 0.234 0.144 3 
0.469 0.237 0.144 3 
0.466 0.184 0.044 3 
0.468 0.071 0.144 3 
0.466 0.314 0.023 3 
0.464 0.34 0.062 3 
0.471 0.283 0.152 3 
0.47 0.292 0.152 3 
0.47 0.301 0.152 3 
0.47 0.311 0.153 3 
0.472 0.323 0.154 3 
0.475 0.335 0.173 3 
0.473 0.263 0.172 3 
0.464 0.07 0.004 3 
0.473 0.254 0.172 3 
0.467 0.114 0.063 3 
0.461 0.064 0.092 3 
0.47 0.294 0.143 3 
0.47 0.35 0.172 3 
0.471 0.344 0.172 3 
0.473 0.273 0.173 3 
0.462 0.153 -0.006 3 
0.474 0.33 0.172 3 
0.473 0.322 0.172 3 
0.454 0.068 0.159 3 
0.475 0.334 0.164 3 
0.465 0.294 0.063 3 
0.461 0.053 0.002 3 
0.474 0.355 0.171 3 
0.472 0.281 0.173 3 
0.472 0.294 0.173 3 
0.472 0.304 0.174 3 
0.473 0.312 0.174 3 
0.468 0.072 0.169 3 
0.461 0.164 -0.006 3 
0.472 0.143 0.172 3 
0.472 0.163 0.172 3 
0.472 0.172 0.172 3 
0.472 0.184 0.173 3 
0.464 0.268 0.029 3 
0.472 0.193 0.173 3 
0.472 0.204 0.173 3 
0.472 0.222 0.174 3 
0.471 0.234 0.174 3 
0.467 0.264 0.063 3 
0.472 0.083 0.162 3 
0.467 0.071 0.161 3 
0.469 0.113 0.142 3 
0.475 0.334 0.167 3 
0.465 0.172 0.022 3 
0.471 0.306 0.164 3 
0.47 0.302 0.164 3 
0.471 0.293 0.164 3 
0.472 0.092 0.162 3 
0.472 0.284 0.164 3 
0.472 0.271 0.164 3 
0.471 0.264 0.163 3 
0.471 0.27 0.154 3 
0.471 0.252 0.163 3 
0.466 0.233 0.054 3 
0.466 0.114 0.052 3 
0.466 0.153 0.063 3 
0.472 0.103 0.163 3 
0.472 0.114 0.163 3 
0.472 0.123 0.163 3 
0.473 0.134 0.163 3 
0.472 0.143 0.163 3 
0.471 0.154 0.163 3 
0.467 0.284 0.082 3 
0.471 0.162 0.163 3 
0.471 0.174 0.164 3 
0.471 0.183 0.164 3 
0.471 0.192 0.164 3 
0.471 0.204 0.164 3 
0.471 0.212 0.164 3 
0.47 0.224 0.164 3 
0.469 0.235 0.164 3 
0.464 0.232 0.013 3 
0.465 0.321 0.042 3 
0.465 0.331 0.042 3 
0.464 0.333 0.042 3 
0.465 0.337 0.042 3 
0.464 0.34 0.042 3 
0.464 0.303 0.012 3 
0.465 0.284 0.012 3 
0.463 0.261 0.013 3 
0.464 0.253 0.013 3 
0.464 0.244 0.013 3 
0.466 0.332 0.034 3 
0.464 0.223 0.013 3 
0.465 0.215 0.013 3 
0.465 0.212 0.013 3 
0.465 0.203 0.013 3 
0.465 0.192 0.013 3 
0.464 0.271 0.012 3 
0.465 0.183 0.014 3 
0.464 0.303 0.046 3 
0.464 0.174 0.014 3 
0.465 0.169 0.014 3 
0.465 0.224 0.043 3 
0.464 0.208 0.011 3 
0.466 0.103 0.044 3 
0.466 0.122 0.044 3 
0.466 0.133 0.044 3 
0.466 0.144 0.044 3 
0.466 0.164 0.044 3 
0.465 0.172 0.044 3 
0.465 0.192 0.044 3 
0.465 0.203 0.043 3 
0.465 0.212 0.043 3 
0.464 0.163 0.014 3 
0.465 0.232 0.043 3 
0.465 0.241 0.043 3 
0.465 0.253 0.043 3 
0.465 0.262 0.043 3 
0.466 0.282 0.043 3 
0.464 0.3 0.043 3 
0.465 0.304 0.043 3 
0.464 0.306 0.043 3 
0.465 0.314 0.043 3 
0.465 0.224 0.054 3 
0.466 0.084 0.012 3 
0.465 0.073 0.012 3 
0.464 0.067 0.012 3 
0.462 0.053 0.013 3 
0.464 0.313 0.051 3 
0.464 0.284 0.006 3 
0.466 0.184 0.054 3 
0.466 0.192 0.054 3 
0.466 0.204 0.054 3 
0.466 0.213 0.054 3 
0.465 0.094 0.012 3 
0.466 0.242 0.054 3 
0.466 0.254 0.054 3 
0.466 0.263 0.054 3 
0.466 0.272 0.054 3 
0.466 0.282 0.054 3 
0.464 0.287 0.054 3 
0.465 0.294 0.054 3 
0.466 0.302 0.054 3 
0.465 0.314 0.054 3 
0.467 0.092 0.052 3 
0.464 0.152 0.014 3 
0.464 0.141 0.014 3 
0.466 0.133 0.014 3 
0.466 0.122 0.014 3 
0.465 0.113 0.014 3 
0.465 0.102 0.014 3 
0.43 0.043 0.02 3 
0.466 0.062 0.052 3 
0.467 0.073 0.052 3 
0.467 0.084 0.052 3 
0.467 0.092 0.044 3 
0.467 0.103 0.052 3 
0.466 0.133 0.052 3 
0.466 0.144 0.052 3 
0.466 0.153 0.052 3 
0.465 0.163 0.052 3 
0.464 0.293 0.009 3 
0.464 0.191 0.011 3 
0.464 0.18 0.011 3 
0.465 0.152 0.011 3 
0.465 0.163 0.033 3 
0.466 0.094 0.033 3 
0.466 0.103 0.033 3 
0.467 0.114 0.033 3 
0.466 0.122 0.033 3 
0.466 0.204 0.024 3 
0.466 0.133 0.033 3 
0.465 0.192 0.024 3 
0.465 0.183 0.024 3 
0.466 0.144 0.033 3 
0.466 0.153 0.033 3 
0.466 0.073 0.033 3 
0.465 0.192 0.033 3 
0.465 0.203 0.032 3 
0.465 0.224 0.032 3 
0.465 0.232 0.032 3 
0.465 0.244 0.032 3 
0.465 0.25 0.032 3 
0.464 0.253 0.032 3 
0.465 0.262 0.032 3 
0.465 0.272 0.032 3 
0.465 0.272 0.023 3 
0.465 0.317 0.028 3 
0.464 0.262 0.029 3 
0.464 0.293 0.026 3 
0.464 0.244 0.027 3 
0.462 0.334 0.022 3 
0.465 0.324 0.022 3 
0.464 0.32 0.023 3 
0.465 0.303 0.023 3 
0.464 0.299 0.023 3 
0.465 0.284 0.023 3 
0.464 0.313 0.031 3 
0.464 0.262 0.024 3 
0.464 0.253 0.024 3 
0.464 0.244 0.024 3 
0.464 0.051 0.034 3 
0.465 0.235 0.024 3 
0.465 0.224 0.024 3 
0.466 0.213 0.024 3 
0.465 0.054 0.034 3 
0.466 0.062 0.033 3 
0.465 0.313 0.014 3 
0.465 0.054 0.042 3 
0.466 0.073 0.023 3 
0.465 0.064 0.023 3 
0.464 0.054 0.023 3 
0.464 0.312 0.017 3 
0.464 0.059 0.02 3 
0.461 0.333 0.014 3 
0.465 0.327 0.014 3 
0.464 0.322 0.014 3 
0.465 0.32 0.014 3 
0.465 0.083 0.023 3 
0.454 0.047 0.011 3 
0.464 0.232 0.018 3 
0.465 0.304 0.014 3 
0.464 0.169 0.017 3 
0.464 0.152 0.017 3 
0.464 0.143 0.017 3 
0.423 0.042 0.023 3 
0.467 0.073 0.044 3 
0.466 0.084 0.044 3 
0.465 0.163 0.022 3 
0.465 0.232 0.024 3 
0.465 0.284 0.034 3 
0.465 0.294 0.034 3 
0.466 0.304 0.034 3 
0.465 0.314 0.034 3 
0.464 0.323 0.034 3 
0.464 0.333 0.034 3 
0.464 0.336 0.034 3 
0.464 0.252 0.038 3 
0.464 0.223 0.016 3 
0.453 0.049 -0.006 3 
0.465 0.152 0.022 3 
0.465 0.144 0.022 3 
0.465 0.133 0.022 3 
0.466 0.122 0.022 3 
0.466 0.114 0.022 3 
0.466 0.103 0.022 3 
0.466 0.094 0.022 3 
0.464 0.262 0.038 3 
0.464 0.274 0.037 3 
0.461 0.053 -0.005 3 
0.465 0.337 0.062 3 
0.464 0.094 0.004 3 
0.463 0.154 0.003 3 
0.463 0.083 -0.005 3 
0.463 0.174 0.003 3 
0.463 0.072 -0.005 3 
0.462 0.064 -0.005 3 
0.464 0.333 0.062 3 
0.463 0.182 0.003 3 
0.467 0.134 0.063 3 
0.462 0.254 -0.006 3 
0.439 0.044 0.006 3 
0.466 0.332 0.062 3 
0.465 0.054 0.058 3 
0.464 0.194 0.003 3 
0.464 0.203 0.002 3 
0.463 0.222 0.002 3 
0.463 0.234 0.002 3 
0.461 0.173 -0.006 3 
0.467 0.092 0.063 3 
0.465 0.062 0.068 3 
0.464 0.333 0.068 3 
0.467 0.103 0.063 3 
0.462 0.213 -0.005 3 
0.464 0.054 0.063 3 
0.462 0.204 -0.007 3 
0.462 0.182 -0.007 3 
0.466 0.233 0.063 3 
0.462 0.142 -0.006 3 
0.462 0.123 -0.006 3 
0.465 0.13 0.003 3 
0.468 0.073 0.063 3 
0.462 0.112 -0.006 3 
0.434 0.043 0.005 3 
0.462 0.093 -0.005 3 
0.465 0.141 0.003 3 
0.463 0.252 0.004 3 
0.465 0.324 0.054 3 
0.466 0.242 0.063 3 
0.464 0.124 0.001 3 
0.462 0.264 -0.006 3 
0.463 0.273 0.004 3 
0.466 0.172 0.063 3 
0.463 0.264 0.004 3 
0.466 0.184 0.063 3 
0.465 0.282 0.063 3 
0.464 0.102 0.007 3 
0.464 0.094 0.007 3 
0.467 0.202 0.063 3 
0.465 0.272 0.043 3 
0.461 0.284 -0.006 3 
0.467 0.213 0.063 3 
0.466 0.224 0.063 3 
0.463 0.243 0.002 3 
0.463 0.064 0.004 3 
0.465 0.073 0.004 3 
0.467 0.303 0.063 3 
0.466 0.312 0.063 3 
0.464 0.113 0.004 3 
0.464 0.054 0.044 3 
0.464 0.064 0.012 3 
0.465 0.341 0.054 3 
0.463 0.332 0.054 3 
0.466 0.332 0.054 3 
0.466 0.322 0.062 3 
0.466 0.144 0.063 3 
0.466 0.164 0.063 3 
0.476 -0.327 -0.006 3 
0.474 -0.087 0.16 3 
0.476 -0.105 0.164 3 
0.478 -0.347 -0.006 3 
0.487 -0.335 0.174 3 
0.472 -0.106 0.094 3 
0.475 -0.355 -0.006 3 
0.479 -0.247 0.142 3 
0.474 -0.257 0.004 3 
0.473 -0.356 -0.006 3 
0.478 -0.137 0.162 3 
0.478 -0.125 0.162 3 
0.48 -0.356 0.022 3 
0.48 -0.338 0.022 3 
0.48 -0.327 0.023 3 
0.476 -0.116 0.161 3 
0.478 -0.315 0.023 3 
0.471 -0.187 0.022 3 
0.47 -0.116 0.022 3 
0.47 -0.127 0.022 3 
0.47 -0.135 0.022 3 
0.471 -0.147 0.022 3 
0.471 -0.155 0.022 3 
0.471 -0.167 0.022 3 
0.471 -0.175 0.022 3 
0.484 -0.307 0.175 3 
0.483 -0.286 0.174 3 
0.483 -0.276 0.173 3 
0.483 -0.267 0.173 3 
0.469 -0.107 0.023 3 
0.482 -0.256 0.172 3 
0.474 -0.206 0.083 3 
0.482 -0.247 0.172 3 
0.483 -0.235 0.172 3 
0.474 -0.276 0.001 3 
0.471 -0.225 0.002 3 
0.471 -0.216 0.002 3 
0.471 -0.205 0.002 3 
0.47 -0.195 0.003 3 
0.488 -0.347 0.181 3 
0.484 -0.304 0.178 3 
0.474 -0.084 0.163 3 
0.476 -0.317 -0.005 3 
0.475 -0.306 -0.005 3 
0.486 -0.316 0.173 3 
0.485 -0.308 0.172 3 
0.484 -0.297 0.172 3 
0.485 -0.295 0.172 3 
0.477 -0.245 0.112 3 
0.476 -0.287 0.023 3 
0.476 -0.096 0.164 3 
0.474 -0.357 -0.003 3 
0.475 -0.087 0.163 3 
0.487 -0.327 0.174 3 
0.471 -0.086 0.104 3 
0.475 -0.076 0.163 3 
0.474 -0.289 -0.001 3 
0.477 -0.318 0.014 3 
0.467 -0.047 0.023 3 
0.467 -0.055 0.023 3 
0.467 -0.066 0.023 3 
0.468 -0.085 0.023 3 
0.469 -0.096 0.023 3 
0.473 -0.117 0.124 3 
0.465 -0.063 -0.005 3 
0.475 -0.096 0.152 3 
0.475 -0.079 0.152 3 
0.475 -0.073 0.152 3 
0.474 -0.251 0.03 3 
0.467 -0.176 -0.007 3 
0.467 -0.156 -0.006 3 
0.465 -0.076 -0.005 3 
0.477 -0.298 0.014 3 
0.467 -0.137 -0.006 3 
0.465 -0.117 -0.006 3 
0.474 -0.098 0.152 3 
0.472 -0.136 0.083 3 
0.464 -0.055 -0.005 3 
0.465 -0.041 -0.005 3 
0.469 -0.135 0.014 3 
0.486 -0.326 0.164 3 
0.485 -0.315 0.163 3 
0.482 -0.305 0.162 3 
0.482 -0.295 0.162 3 
0.482 -0.285 0.161 3 
0.486 -0.336 0.162 3 
0.476 -0.197 0.152 3 
0.475 -0.276 0.032 3 
0.474 -0.135 0.15 3 
0.474 -0.073 0.149 3 
0.476 -0.287 0.032 3 
0.477 -0.297 0.032 3 
0.478 -0.305 0.032 3 
0.486 -0.336 0.152 3 
0.48 -0.295 0.123 3 
0.485 -0.346 0.162 3 
0.473 -0.087 0.154 3 
0.477 -0.186 0.154 3 
0.477 -0.177 0.154 3 
0.476 -0.165 0.154 3 
0.476 -0.156 0.154 3 
0.476 -0.147 0.153 3 
0.475 -0.135 0.153 3 
0.476 -0.127 0.153 3 
0.475 -0.113 0.153 3 
0.474 -0.107 0.152 3 
0.478 -0.217 0.164 3 
0.475 -0.246 0.024 3 
0.474 -0.107 0.158 3 
0.474 -0.255 0.024 3 
0.474 -0.095 0.158 3 
0.475 -0.264 0.024 3 
0.475 -0.267 0.024 3 
0.475 -0.276 0.024 3 
0.478 -0.175 0.172 3 
0.486 -0.348 0.171 3 
0.474 -0.26 0.041 3 
0.479 -0.226 0.162 3 
0.478 -0.207 0.164 3 
0.477 -0.298 0.023 3 
0.478 -0.195 0.164 3 
0.478 -0.186 0.163 3 
0.478 -0.175 0.163 3 
0.477 -0.165 0.163 3 
0.476 -0.156 0.162 3 
0.478 -0.305 0.023 3 
0.478 -0.145 0.163 3 
0.473 -0.203 0.024 3 
0.473 -0.081 0.154 3 
0.474 -0.073 0.155 3 
0.486 -0.335 0.134 3 
0.479 -0.266 0.142 3 
0.472 -0.237 -0.006 3 
0.47 -0.225 -0.005 3 
0.47 -0.216 -0.005 3 
0.469 -0.195 -0.005 3 
0.464 -0.057 -0.002 3 
0.473 -0.145 0.083 3 
0.473 -0.206 0.024 3 
0.473 -0.217 0.024 3 
0.473 -0.226 0.024 3 
0.475 -0.243 0.024 3 
0.481 -0.278 0.164 3 
0.481 -0.265 0.163 3 
0.481 -0.255 0.163 3 
0.481 -0.246 0.163 3 
0.481 -0.236 0.162 3 
0.484 -0.268 0.188 3 
0.469 -0.115 0.014 3 
0.469 -0.126 0.014 3 
0.47 -0.146 0.014 3 
0.471 -0.155 0.014 3 
0.471 -0.167 0.014 3 
0.47 -0.175 0.014 3 
0.474 -0.197 0.052 3 
0.491 -0.329 0.194 3 
0.49 -0.317 0.193 3 
0.489 -0.306 0.192 3 
0.471 -0.187 0.014 3 
0.464 -0.046 -0.002 3 
0.472 -0.196 0.013 3 
0.472 -0.217 0.013 3 
0.48 -0.185 0.184 3 
0.48 -0.176 0.184 3 
0.479 -0.167 0.184 3 
0.478 -0.357 0.013 3 
0.479 -0.155 0.183 3 
0.48 -0.147 0.183 3 
0.479 -0.135 0.183 3 
0.479 -0.126 0.183 3 
0.48 -0.115 0.183 3 
0.481 -0.225 0.183 3 
0.479 -0.247 0.153 3 
0.483 -0.187 0.192 3 
0.483 -0.196 0.192 3 
0.483 -0.205 0.192 3 
0.465 -0.125 -0.006 3 
0.466 -0.095 -0.006 3 
0.484 -0.215 0.193 3 
0.483 -0.227 0.193 3 
0.491 -0.336 0.191 3 
0.483 -0.245 0.184 3 
0.482 -0.235 0.184 3 
0.474 -0.165 0.102 3 
0.473 -0.176 0.072 3 
0.481 -0.216 0.183 3 
0.466 -0.106 -0.006 3 
0.481 -0.207 0.182 3 
0.481 -0.195 0.182 3 
0.474 -0.155 0.128 3 
0.483 -0.236 0.193 3 
0.471 -0.136 0.094 3 
0.469 -0.096 0.014 3 
0.469 -0.107 0.014 3 
0.476 -0.297 0.003 3 
0.476 -0.307 0.003 3 
0.474 -0.227 0.052 3 
0.464 -0.052 -0.005 3 
0.466 -0.044 0.012 3 
0.465 -0.055 0.012 3 
0.467 -0.066 0.012 3 
0.467 -0.077 0.012 3 
0.474 -0.206 0.044 3 
0.488 -0.295 0.194 3 
0.473 -0.236 0.013 3 
0.488 -0.288 0.194 3 
0.464 -0.065 -0.005 3 
0.486 -0.276 0.193 3 
0.485 -0.266 0.192 3 
0.486 -0.26 0.192 3 
0.475 -0.273 0.009 3 
0.474 -0.135 0.144 3 
0.476 -0.287 0.003 3 
0.475 -0.277 0.004 3 
0.473 -0.266 0.004 3 
0.472 -0.238 0.004 3 
0.466 -0.042 0.004 3 
0.473 -0.106 0.132 3 
0.479 -0.106 0.182 3 
0.478 -0.097 0.182 3 
0.482 -0.245 0.193 3 
0.484 -0.255 0.194 3 
0.469 -0.077 0.074 3 
0.492 -0.338 0.201 3 
0.473 -0.227 0.013 3 
0.48 -0.086 0.182 3 
0.479 -0.08 0.182 3 
0.473 -0.245 0.013 3 
0.474 -0.257 0.013 3 
0.473 -0.095 0.143 3 
0.475 -0.277 0.012 3 
0.479 -0.275 0.122 3 
0.482 -0.072 0.137 3 
0.477 -0.288 0.012 3 
0.478 -0.35 0.004 3 
0.467 -0.145 -0.006 3 
0.465 -0.087 -0.005 3 
0.477 -0.325 0.002 3 
0.465 -0.068 -0.005 3 
0.477 -0.315 0.002 3 
0.478 -0.137 0.174 3 
0.489 -0.337 0.184 3 
0.477 -0.298 0.064 3 
0.488 -0.325 0.183 3 
0.487 -0.317 0.183 3 
0.486 -0.306 0.182 3 
0.487 -0.297 0.182 3 
0.469 -0.096 0.052 3 
0.478 -0.166 0.174 3 
0.477 -0.157 0.174 3 
0.478 -0.325 0.014 3 
0.478 -0.146 0.174 3 
0.478 -0.305 0.014 3 
0.478 -0.125 0.174 3 
0.486 -0.336 0.143 3 
0.481 -0.127 0.192 3 
0.478 -0.117 0.173 3 
0.481 -0.136 0.192 3 
0.478 -0.105 0.173 3 
0.481 -0.316 0.103 3 
0.482 -0.145 0.193 3 
0.483 -0.157 0.194 3 
0.469 -0.155 0.003 3 
0.482 -0.166 0.193 3 
0.479 -0.187 0.172 3 
0.484 -0.287 0.177 3 
0.484 -0.277 0.177 3 
0.484 -0.268 0.176 3 
0.483 -0.081 0.192 3 
0.481 -0.228 0.174 3 
0.478 -0.216 0.152 3 
0.48 -0.215 0.174 3 
0.474 -0.305 -0.007 3 
0.479 -0.205 0.173 3 
0.479 -0.196 0.173 3 
0.468 -0.085 0.012 3 
0.469 -0.066 0.074 3 
0.468 -0.177 0.003 3 
0.482 -0.087 0.192 3 
0.48 -0.095 0.191 3 
0.483 -0.107 0.193 3 
0.476 -0.235 0.104 3 
0.484 -0.307 0.169 3 
0.483 -0.116 0.193 3 
0.48 -0.355 0.052 3 
0.467 -0.044 0.017 3 
0.474 -0.266 0.015 3 
0.467 -0.077 0.004 3 
0.48 -0.349 0.013 3 
0.49 -0.307 0.202 3 
0.469 -0.135 0.003 3 
0.491 -0.319 0.203 3 
0.492 -0.327 0.204 3 
0.493 -0.335 0.205 3 
0.467 -0.115 0.004 3 
0.467 -0.107 0.004 3 
0.468 -0.096 0.004 3 
0.47 -0.207 -0.005 3 
0.467 -0.085 0.004 3 
0.471 -0.178 0.052 3 
0.486 -0.286 0.184 3 
0.486 -0.276 0.183 3 
0.485 -0.265 0.183 3 
0.485 -0.262 0.183 3 
0.483 -0.257 0.182 3 
0.466 -0.066 0.004 3 
0.468 -0.185 -0.007 3 
0.466 -0.055 0.004 3 
0.465 -0.047 0.004 3 
0.477 -0.335 0.002 3 
0.468 -0.165 -0.007 3 
0.477 -0.079 0.173 3 
0.483 -0.175 0.194 3 
0.477 -0.096 0.173 3 
0.484 -0.185 0.195 3 
0.484 -0.197 0.195 3 
0.484 -0.206 0.196 3 
0.465 -0.047 -0.005 3 
0.485 -0.213 0.196 3 
0.485 -0.216 0.196 3 
0.484 -0.225 0.196 3 
0.477 -0.085 0.173 3 
0.485 -0.232 0.197 3 
0.469 -0.186 0.003 3 
0.469 -0.146 0.003 3 
0.483 -0.236 0.196 3 
0.475 -0.115 0.153 3 
0.483 -0.246 0.197 3 
0.486 -0.257 0.198 3 
0.486 -0.267 0.198 3 
0.479 -0.337 0.014 3 
0.487 -0.278 0.199 3 
0.488 -0.285 0.2 3 
0.488 -0.295 0.2 3 
0.472 -0.145 0.102 3 
0.478 -0.065 0.1 3 
0.483 -0.355 0.106 3 
0.477 -0.276 0.104 3 
0.476 -0.265 0.104 3 
0.477 -0.257 0.104 3 
0.476 -0.247 0.104 3 
0.48 -0.337 0.043 3 
0.475 -0.225 0.103 3 
0.475 -0.216 0.103 3 
0.475 -0.195 0.103 3 
0.475 -0.186 0.103 3 
0.475 -0.177 0.103 3 
0.474 -0.157 0.102 3 
0.474 -0.177 0.1 3 
0.474 -0.236 0.024 3 
0.472 -0.136 0.102 3 
0.471 -0.125 0.102 3 
0.471 -0.116 0.102 3 
0.474 -0.257 0.052 3 
0.472 -0.106 0.102 3 
0.506 -0.071 0.106 3 
0.468 -0.077 0.023 3 
0.468 -0.052 0.052 3 
0.468 -0.055 0.052 3 
0.469 -0.066 0.052 3 
0.469 -0.077 0.052 3 
0.472 -0.097 0.104 3 
0.469 -0.066 0.093 3 
0.48 -0.355 0.064 3 
0.474 -0.209 0.094 3 
0.474 -0.203 0.094 3 
0.475 -0.195 0.094 3 
0.474 -0.186 0.094 3 
0.473 -0.176 0.094 3 
0.473 -0.156 0.094 3 
0.473 -0.145 0.094 3 
0.471 -0.125 0.094 3 
0.471 -0.116 0.093 3 
0.472 -0.097 0.093 3 
0.471 -0.086 0.093 3 
0.47 -0.077 0.093 3 
0.47 -0.075 0.104 3 
0.47 -0.064 0.093 3 
0.466 -0.047 0.012 3 
0.47 -0.064 0.096 3 
0.481 -0.357 0.103 3 
0.483 -0.345 0.103 3 
0.483 -0.335 0.103 3 
0.481 -0.326 0.103 3 
0.48 -0.308 0.102 3 
0.479 -0.297 0.102 3 
0.479 -0.287 0.102 3 
0.474 -0.215 0.1 3 
0.474 -0.206 0.1 3 
0.474 -0.186 0.1 3 
0.476 -0.235 0.112 3 
0.482 -0.327 0.112 3 
0.482 -0.317 0.112 3 
0.48 -0.337 0.052 3 
0.482 -0.355 0.116 3 
0.482 -0.307 0.114 3 
0.48 -0.295 0.114 3 
0.479 -0.287 0.113 3 
0.479 -0.278 0.113 3 
0.474 -0.236 0.05 3 
0.477 -0.266 0.113 3 
0.474 -0.254 0.049 3 
0.478 -0.255 0.113 3 
0.474 -0.267 0.049 3 
0.483 -0.335 0.112 3 
0.476 -0.226 0.112 3 
0.476 -0.216 0.112 3 
0.478 -0.207 0.152 3 
0.474 -0.165 0.111 3 
0.476 -0.205 0.114 3 
0.476 -0.196 0.114 3 
0.475 -0.186 0.114 3 
0.475 -0.175 0.114 3 
0.475 -0.166 0.114 3 
0.473 -0.157 0.113 3 
0.473 -0.145 0.113 3 
0.473 -0.137 0.113 3 
0.472 -0.125 0.113 3 
0.475 -0.237 0.052 3 
0.47 -0.066 0.104 3 
0.469 -0.085 0.052 3 
0.471 -0.105 0.052 3 
0.471 -0.116 0.052 3 
0.471 -0.127 0.052 3 
0.471 -0.135 0.052 3 
0.472 -0.147 0.052 3 
0.472 -0.156 0.052 3 
0.471 -0.166 0.052 3 
0.472 -0.187 0.052 3 
0.474 -0.206 0.052 3 
0.473 -0.217 0.052 3 
0.475 -0.234 0.052 3 
0.481 -0.335 0.064 3 
0.476 -0.247 0.052 3 
0.481 -0.346 0.022 3 
0.475 -0.255 0.052 3 
0.475 -0.268 0.052 3 
0.475 -0.277 0.052 3 
0.475 -0.287 0.052 3 
0.476 -0.296 0.052 3 
0.478 -0.305 0.052 3 
0.479 -0.316 0.052 3 
0.48 -0.327 0.052 3 
0.474 -0.251 0.024 3 
0.483 -0.346 0.112 3 
0.476 -0.256 0.084 3 
0.474 -0.203 0.066 3 
0.474 -0.236 0.072 3 
0.475 -0.201 0.078 3 
0.483 -0.355 0.082 3 
0.482 -0.347 0.082 3 
0.481 -0.335 0.082 3 
0.481 -0.328 0.082 3 
0.479 -0.317 0.082 3 
0.479 -0.307 0.084 3 
0.479 -0.297 0.084 3 
0.477 -0.285 0.084 3 
0.477 -0.276 0.084 3 
0.476 -0.265 0.084 3 
0.48 -0.355 0.073 3 
0.475 -0.246 0.084 3 
0.47 -0.097 0.074 3 
0.475 -0.243 0.084 3 
0.474 -0.236 0.083 3 
0.474 -0.227 0.083 3 
0.474 -0.218 0.083 3 
0.474 -0.197 0.083 3 
0.472 -0.176 0.083 3 
0.473 -0.165 0.083 3 
0.474 -0.157 0.083 3 
0.47 -0.127 0.082 3 
0.47 -0.116 0.082 3 
0.471 -0.105 0.082 3 
0.471 -0.135 0.074 3 
0.469 -0.085 0.033 3 
0.475 -0.24 0.072 3 
0.474 -0.227 0.072 3 
0.476 -0.256 0.072 3 
0.474 -0.215 0.072 3 
0.476 -0.268 0.072 3 
0.474 -0.206 0.072 3 
0.475 -0.198 0.072 3 
0.474 -0.185 0.072 3 
0.473 -0.165 0.072 3 
0.473 -0.156 0.072 3 
0.476 -0.275 0.072 3 
0.472 -0.147 0.074 3 
0.471 -0.097 0.082 3 
0.471 -0.127 0.074 3 
0.47 -0.116 0.074 3 
0.47 -0.105 0.074 3 
0.47 -0.086 0.074 3 
0.47 -0.055 0.074 3 
0.477 -0.285 0.073 3 
0.478 -0.296 0.073 3 
0.479 -0.307 0.073 3 
0.48 -0.317 0.073 3 
0.481 -0.328 0.073 3 
0.481 -0.335 0.073 3 
0.482 -0.346 0.073 3 
0.479 -0.317 0.093 3 
0.471 -0.053 0.071 3 
0.475 -0.24 0.064 3 
0.475 -0.246 0.064 3 
0.475 -0.255 0.064 3 
0.476 -0.265 0.064 3 
0.475 -0.277 0.064 3 
0.476 -0.287 0.064 3 
0.474 -0.227 0.089 3 
0.478 -0.306 0.064 3 
0.481 -0.356 0.094 3 
0.483 -0.348 0.094 3 
0.482 -0.337 0.094 3 
0.481 -0.326 0.094 3 
0.474 -0.236 0.064 3 
0.479 -0.307 0.093 3 
0.479 -0.297 0.093 3 
0.48 -0.317 0.064 3 
0.477 -0.276 0.093 3 
0.472 -0.127 0.044 3 
0.477 -0.266 0.093 3 
0.476 -0.256 0.092 3 
0.477 -0.288 0.044 3 
0.474 -0.203 0.064 3 
0.476 -0.247 0.092 3 
0.475 -0.228 0.092 3 
0.474 -0.215 0.092 3 
0.475 -0.192 0.092 3 
0.48 -0.348 0.052 3 
0.47 -0.086 0.082 3 
0.469 -0.077 0.082 3 
0.47 -0.066 0.082 3 
0.47 -0.061 0.082 3 
0.469 -0.053 0.063 3 
0.469 -0.055 0.063 3 
0.469 -0.066 0.063 3 
0.473 -0.185 0.083 3 
0.469 -0.077 0.063 3 
0.469 -0.085 0.063 3 
0.469 -0.096 0.063 3 
0.47 -0.105 0.063 3 
0.471 -0.116 0.063 3 
0.474 -0.177 0.111 3 
0.471 -0.127 0.063 3 
0.471 -0.135 0.063 3 
0.472 -0.147 0.063 3 
0.472 -0.156 0.063 3 
0.473 -0.168 0.063 3 
0.472 -0.176 0.063 3 
0.473 -0.185 0.064 3 
0.475 -0.195 0.064 3 
0.474 -0.206 0.064 3 
0.473 -0.217 0.064 3 
0.473 -0.226 0.064 3 
0.474 -0.236 0.086 3 
0.484 -0.316 0.148 3 
0.48 -0.345 0.034 3 
0.486 -0.322 0.143 3 
0.484 -0.316 0.142 3 
0.48 -0.355 0.034 3 
0.474 -0.248 0.004 3 
0.469 -0.166 0.003 3 
0.482 -0.307 0.144 3 
0.482 -0.297 0.144 3 
0.472 -0.205 0.013 3 
0.48 -0.286 0.143 3 
0.479 -0.275 0.143 3 
0.48 -0.257 0.142 3 
0.472 -0.156 0.044 3 
0.486 -0.325 0.143 3 
0.479 -0.237 0.144 3 
0.479 -0.228 0.144 3 
0.478 -0.215 0.144 3 
0.477 -0.206 0.143 3 
0.474 -0.165 0.094 3 
0.476 -0.196 0.143 3 
0.476 -0.185 0.143 3 
0.475 -0.176 0.142 3 
0.475 -0.167 0.142 3 
0.475 -0.155 0.142 3 
0.475 -0.147 0.142 3 
0.475 -0.138 0.142 3 
0.475 -0.155 0.133 3 
0.479 -0.247 0.133 3 
0.479 -0.237 0.133 3 
0.478 -0.227 0.132 3 
0.477 -0.217 0.132 3 
0.477 -0.205 0.132 3 
0.474 -0.146 0.13 3 
0.472 -0.117 0.113 3 
0.468 -0.055 0.033 3 
0.477 -0.197 0.134 3 
0.476 -0.185 0.134 3 
0.475 -0.175 0.134 3 
0.475 -0.167 0.134 3 
0.474 -0.115 0.141 3 
0.475 -0.146 0.133 3 
0.475 -0.144 0.133 3 
0.474 -0.135 0.133 3 
0.478 -0.315 0.032 3 
0.473 -0.126 0.133 3 
0.473 -0.117 0.132 3 
0.472 -0.095 0.132 3 
0.472 -0.075 0.132 3 
0.472 -0.07 0.132 3 
0.479 -0.326 0.034 3 
0.48 -0.338 0.034 3 
0.485 -0.345 0.143 3 
0.474 -0.132 0.147 3 
0.472 -0.156 0.033 3 
0.472 -0.167 0.033 3 
0.471 -0.175 0.033 3 
0.472 -0.187 0.033 3 
0.473 -0.197 0.033 3 
0.473 -0.217 0.033 3 
0.474 -0.227 0.033 3 
0.475 -0.234 0.032 3 
0.482 -0.308 0.153 3 
0.482 -0.298 0.153 3 
0.482 -0.288 0.153 3 
0.475 -0.237 0.032 3 
0.48 -0.276 0.152 3 
0.473 -0.157 0.122 3 
0.475 -0.246 0.032 3 
0.475 -0.255 0.032 3 
0.474 -0.257 0.032 3 
0.474 -0.267 0.032 3 
0.484 -0.345 0.158 3 
0.484 -0.317 0.157 3 
0.48 -0.267 0.154 3 
0.48 -0.257 0.154 3 
0.474 -0.266 0.012 3 
0.479 -0.235 0.153 3 
0.478 -0.225 0.153 3 
0.475 -0.273 0.032 3 
0.477 -0.335 -0.006 3 
0.475 -0.237 0.092 3 
0.471 -0.086 0.134 3 
0.485 -0.346 0.153 3 
0.484 -0.341 0.152 3 
0.475 -0.246 0.072 3 
0.486 -0.325 0.152 3 
0.485 -0.317 0.151 3 
0.474 -0.129 0.144 3 
0.475 -0.127 0.144 3 
0.475 -0.115 0.144 3 
0.473 -0.106 0.143 3 
0.473 -0.087 0.143 3 
0.474 -0.248 0.041 3 
0.475 -0.079 0.144 3 
0.474 -0.076 0.143 3 
0.474 -0.073 0.143 3 
0.47 -0.047 0.033 3 
0.468 -0.077 0.033 3 
0.47 -0.096 0.033 3 
0.47 -0.105 0.033 3 
0.468 -0.126 0.004 3 
0.471 -0.116 0.033 3 
0.471 -0.127 0.033 3 
0.472 -0.136 0.033 3 
0.472 -0.147 0.033 3 
0.471 -0.175 0.044 3 
0.471 -0.135 0.044 3 
0.478 -0.258 0.124 3 
0.478 -0.286 0.093 3 
0.484 -0.34 0.128 3 
0.472 -0.095 0.124 3 
0.472 -0.086 0.124 3 
0.473 -0.075 0.124 3 
0.471 -0.069 0.123 3 
0.472 -0.147 0.044 3 
0.501 -0.073 0.124 3 
0.479 -0.265 0.122 3 
0.472 -0.106 0.124 3 
0.472 -0.187 0.044 3 
0.474 -0.197 0.044 3 
0.475 -0.255 0.044 3 
0.48 -0.285 0.122 3 
0.474 -0.218 0.044 3 
0.474 -0.227 0.044 3 
0.475 -0.234 0.044 3 
0.482 -0.307 0.123 3 
0.474 -0.236 0.044 3 
0.475 -0.246 0.044 3 
0.474 -0.267 0.044 3 
0.47 -0.05 0.044 3 
0.477 -0.226 0.124 3 
0.477 -0.217 0.123 3 
0.477 -0.205 0.123 3 
0.478 -0.197 0.123 3 
0.478 -0.236 0.124 3 
0.476 -0.187 0.123 3 
0.475 -0.207 0.103 3 
0.475 -0.175 0.122 3 
0.479 -0.246 0.124 3 
0.475 -0.169 0.122 3 
0.474 -0.166 0.122 3 
0.475 -0.24 0.044 3 
0.47 -0.056 0.044 3 
0.469 -0.077 0.044 3 
0.469 -0.085 0.044 3 
0.47 -0.096 0.044 3 
0.471 -0.105 0.044 3 
0.484 -0.347 0.131 3 
0.484 -0.326 0.13 3 
0.471 -0.116 0.044 3 
0.473 -0.145 0.124 3 
0.473 -0.137 0.124 3 
0.473 -0.126 0.124 3 
0.48 -0.327 0.064 3 
0.481 -0.296 0.132 3 
0.483 -0.346 0.122 3 
0.474 -0.178 0.128 3 
0.48 -0.285 0.134 3 
0.479 -0.275 0.134 3 
0.472 -0.167 0.044 3 
0.481 -0.345 0.064 3 
0.479 -0.265 0.133 3 
0.479 -0.256 0.133 3 
0.475 -0.271 0.044 3 
0.469 -0.066 0.044 3 
0.473 -0.205 0.033 3 
0.47 -0.066 0.112 3 
0.47 -0.075 0.112 3 
0.472 -0.086 0.113 3 
0.468 -0.066 0.033 3 
0.472 -0.097 0.113 3 
0.48 -0.355 0.043 3 
0.472 -0.106 0.113 3 
0.483 -0.315 0.133 3 
0.475 -0.277 0.044 3 
0.483 -0.315 0.124 3 
0.477 -0.297 0.044 3 
0.478 -0.305 0.043 3 
0.479 -0.326 0.043 3 
0.484 -0.326 0.124 3 
0.485 -0.33 0.124 3 
0.484 -0.336 0.124 3 
0.481 -0.349 0.043 3 
0.485 -0.345 0.134 3 
0.482 -0.307 0.132 3 
0.478 -0.315 0.043 3 
0.486 -0.328 0.134 3 
0.485 -0.324 0.133 3 
0.319 -0.006 0.02 7 
0.317 -0.002 0.02 7 
0.314 -0.006 0.023 7 
0.312 0.021 0.023 7 
0.317 0.023 0.024 7 
