# .PCD v0.7 - Point Cloud Data file
FIELDS x y z intensity
SIZE 4 4 4 4
TYPE F F F F
COUNT 1 1 1 1
WIDTH 2344
HEIGHT 1
VIEWPOINT 0 0 0 1 0 0 0
POINTS 2344
DATA ascii
0.332 -0.018 0.008 0 
0.373 -0.237 -0.025 1 
0.364 -0.155 -0.018 1 
0.363 -0.135 -0.017 1 
0.362 -0.125 -0.017 1 
0.364 -0.109 -0.017 1 
0.36 -0.085 -0.015 1 
0.361 -0.055 -0.015 1 
0.363 -0.045 -0.016 1 
0.362 -0.026 -0.016 1 
0.36 0.014 -0.015 1 
0.362 0.023 -0.016 1 
0.36 0.033 -0.015 1 
0.359 0.036 -0.015 1 
0.357 0.043 -0.014 1 
0.353 0.113 -0.014 1 
0.352 0.123 -0.014 1 
0.351 0.132 -0.014 1 
0.35 0.163 -0.015 1 
0.347 0.17 -0.014 1 
0.379 -0.227 -0.025 1 
0.37 -0.146 -0.018 1 
0.371 -0.136 -0.018 1 
0.364 0.063 -0.015 1 
0.36 0.083 -0.014 1 
0.361 0.09 -0.014 1 
0.361 0.094 -0.015 1 
0.362 0.104 -0.015 1 
0.361 0.105 -0.015 1 
0.359 0.122 -0.015 1 
0.353 0.174 -0.015 1 
0.351 0.214 -0.016 1 
0.384 -0.255 -0.026 1 
0.384 -0.247 -0.025 1 
0.382 -0.237 -0.024 1 
0.385 -0.233 -0.025 1 
0.38 -0.225 -0.023 1 
0.374 -0.195 -0.02 1 
0.373 -0.185 -0.019 1 
0.373 -0.175 -0.018 1 
0.374 -0.126 -0.017 1 
0.372 -0.115 -0.016 1 
0.371 -0.096 -0.016 1 
0.372 -0.085 -0.016 1 
0.374 -0.082 -0.016 1 
0.37 -0.056 -0.015 1 
0.374 -0.046 -0.016 1 
0.374 -0.044 -0.016 1 
0.373 0.013 -0.016 1 
0.372 0.024 -0.016 1 
0.369 0.053 -0.015 1 
0.366 0.083 -0.014 1 
0.367 0.103 -0.015 1 
0.365 0.109 -0.014 1 
0.363 0.114 -0.014 1 
0.364 0.116 -0.014 1 
0.364 0.127 -0.015 1 
0.361 0.133 -0.014 1 
0.362 0.138 -0.014 1 
0.363 0.144 -0.015 1 
0.364 0.149 -0.015 1 
0.357 0.178 -0.014 1 
0.357 0.182 -0.015 1 
0.359 0.194 -0.016 1 
0.393 -0.265 -0.027 1 
0.392 -0.256 -0.026 1 
0.38 -0.205 -0.02 1 
0.378 -0.166 -0.018 1 
0.38 -0.155 -0.018 1 
0.378 -0.125 -0.017 1 
0.379 -0.115 -0.017 1 
0.381 -0.106 -0.017 1 
0.381 -0.076 -0.017 1 
0.374 -0.066 -0.014 1 
0.374 -0.057 -0.014 1 
0.383 -0.03 -0.017 1 
0.373 0.064 -0.015 1 
0.373 0.084 -0.015 1 
0.372 0.123 -0.015 1 
0.371 0.132 -0.015 1 
0.37 0.163 -0.016 1 
0.364 0.203 -0.016 1 
0.358 0.05 -0.014 1 
0.392 -0.256 -0.024 1 
0.393 -0.246 -0.024 1 
0.392 -0.235 -0.023 1 
0.392 -0.228 -0.022 1 
0.388 -0.216 -0.021 1 
0.384 -0.197 -0.019 1 
0.38 -0.098 -0.015 1 
0.379 -0.095 -0.014 1 
0.384 -0.087 -0.016 1 
0.38 -0.066 -0.014 1 
0.38 -0.064 -0.014 1 
0.384 -0.058 -0.016 1 
0.384 -0.046 -0.016 1 
0.384 0.014 -0.016 1 
0.384 0.024 -0.016 1 
0.381 0.043 -0.015 1 
0.38 0.054 -0.015 1 
0.379 0.071 -0.015 1 
0.381 0.114 -0.016 1 
0.374 0.144 -0.015 1 
0.371 0.184 -0.016 1 
0.366 0.223 -0.016 1 
0.364 0.223 -0.015 1 
0.391 -0.206 -0.019 1 
0.391 -0.185 -0.019 1 
0.391 -0.156 -0.018 1 
0.393 -0.125 -0.018 1 
0.392 -0.116 -0.017 1 
0.392 -0.107 -0.017 1 
0.39 -0.075 -0.016 1 
0.394 -0.034 -0.017 1 
0.384 0.069 -0.014 1 
0.384 0.083 -0.015 1 
0.383 0.084 -0.014 1 
0.384 0.097 -0.015 1 
0.382 0.124 -0.015 1 
0.381 0.142 -0.015 1 
0.379 0.143 -0.014 1 
0.38 0.154 -0.015 1 
0.384 0.164 -0.017 1 
0.372 0.232 -0.016 1 
0.406 -0.28 -0.025 1 
0.403 -0.265 -0.023 1 
0.403 -0.257 -0.023 1 
0.384 -0.215 -0.021 1 
0.404 -0.227 -0.022 1 
0.393 -0.066 -0.015 1 
0.394 -0.056 -0.015 1 
0.394 -0.046 -0.015 1 
0.333 -0.019 0.003 1 
0.299 -0.005 0.014 1 
0.3 0.003 0.014 1 
0.364 -0.147 -0.018 1 
0.394 0.033 -0.015 1 
0.393 0.053 -0.015 1 
0.391 0.057 -0.014 1 
0.391 0.063 -0.015 1 
0.392 0.073 -0.015 1 
0.392 0.084 -0.015 1 
0.39 0.089 -0.015 1 
0.389 0.095 -0.014 1 
0.391 0.104 -0.015 1 
0.371 0.154 -0.016 1 
0.379 0.232 -0.016 1 
0.379 0.242 -0.017 1 
0.413 -0.288 -0.025 1 
0.409 -0.266 -0.022 1 
0.409 -0.255 -0.022 1 
0.403 -0.217 -0.019 1 
0.404 -0.208 -0.019 1 
0.4 -0.185 -0.017 1 
0.402 -0.175 -0.017 1 
0.404 -0.167 -0.018 1 
0.404 -0.156 -0.017 1 
0.402 -0.148 -0.017 1 
0.401 -0.136 -0.016 1 
0.4 -0.105 -0.015 1 
0.4 -0.096 -0.015 1 
0.402 -0.075 -0.015 1 
0.4 -0.07 -0.015 1 
0.399 -0.066 -0.014 1 
0.401 -0.056 -0.015 1 
0.4 -0.045 -0.015 1 
0.402 -0.035 -0.015 1 
0.467 -0.036 -0.035 1 
0.359 0.073 -0.015 1 
0.401 0.023 -0.015 1 
0.394 0.093 -0.014 1 
0.394 0.123 -0.014 1 
0.394 0.127 -0.015 1 
0.392 0.132 -0.014 1 
0.393 0.135 -0.014 1 
0.394 0.144 -0.015 1 
0.392 0.152 -0.015 1 
0.39 0.153 -0.014 1 
0.389 0.158 -0.014 1 
0.391 0.162 -0.015 1 
0.389 0.177 -0.015 1 
0.384 0.25 -0.016 1 
0.413 -0.235 -0.02 1 
0.408 -0.225 -0.018 1 
0.408 -0.086 -0.015 1 
0.407 -0.075 -0.015 1 
0.407 -0.072 -0.015 1 
0.406 -0.066 -0.014 1 
0.475 -0.037 -0.035 1 
0.364 -0.035 -0.016 1 
0.401 0.013 -0.013 1 
0.404 0.017 -0.014 1 
0.402 0.072 -0.014 1 
0.403 0.101 -0.015 1 
0.402 0.114 -0.015 1 
0.402 0.12 -0.015 1 
0.374 -0.105 -0.017 1 
0.401 0.124 -0.014 1 
0.399 0.152 -0.015 1 
0.398 0.162 -0.015 1 
0.392 0.193 -0.014 1 
0.391 0.204 -0.014 1 
0.392 0.221 -0.015 1 
0.392 0.244 -0.016 1 
0.413 -0.215 -0.017 1 
0.414 -0.196 -0.017 1 
0.412 -0.185 -0.016 1 
0.413 -0.166 -0.016 1 
0.409 -0.147 -0.014 1 
0.41 -0.145 -0.015 1 
0.353 0.194 -0.016 1 
0.414 -0.136 -0.015 1 
0.414 -0.106 -0.015 1 
0.414 -0.099 -0.015 1 
0.416 -0.096 -0.015 1 
0.415 -0.075 -0.015 1 
0.416 -0.066 -0.015 1 
0.413 -0.045 -0.014 1 
0.412 0.024 -0.014 1 
0.41 0.073 -0.014 1 
0.403 0.134 -0.013 1 
0.404 0.144 -0.014 1 
0.404 0.153 -0.014 1 
0.401 0.162 -0.013 1 
0.404 0.172 -0.015 1 
0.403 0.181 -0.015 1 
0.402 0.189 -0.015 1 
0.4 0.192 -0.014 1 
0.403 0.222 -0.016 1 
0.402 0.233 -0.016 1 
0.4 0.242 -0.016 1 
0.397 0.254 -0.016 1 
0.393 0.258 -0.015 1 
0.424 -0.297 -0.021 1 
0.422 -0.292 -0.02 1 
0.424 -0.265 -0.019 1 
0.423 -0.258 -0.019 1 
0.424 -0.245 -0.018 1 
0.424 -0.243 -0.018 1 
0.423 -0.226 -0.018 1 
0.421 -0.196 -0.016 1 
0.419 -0.158 -0.015 1 
0.42 -0.113 -0.015 1 
0.42 -0.095 -0.014 1 
0.421 -0.088 -0.015 1 
0.42 -0.076 -0.014 1 
0.42 -0.065 -0.014 1 
0.42 -0.047 -0.014 1 
0.384 -0.193 -0.019 1 
0.391 -0.145 -0.017 1 
0.402 0.103 -0.014 1 
0.421 -0.042 -0.014 1 
0.373 0.034 -0.016 1 
0.413 0.013 -0.012 1 
0.414 0.054 -0.013 1 
0.414 0.06 -0.013 1 
0.414 0.094 -0.013 1 
0.41 0.133 -0.013 1 
0.408 0.144 -0.012 1 
0.411 0.153 -0.014 1 
0.409 0.163 -0.013 1 
0.404 0.213 -0.014 1 
0.401 0.264 -0.015 1 
0.399 0.267 -0.015 1 
0.432 -0.285 -0.019 1 
0.431 -0.275 -0.019 1 
0.424 -0.217 -0.015 1 
0.426 -0.185 -0.015 1 
0.427 -0.176 -0.015 1 
0.426 -0.162 -0.015 1 
0.424 -0.156 -0.014 1 
0.423 -0.146 -0.014 1 
0.424 -0.139 -0.014 1 
0.424 -0.115 -0.013 1 
0.372 0.214 -0.017 1 
0.424 -0.106 -0.013 1 
0.424 -0.057 -0.013 1 
0.423 0.023 -0.013 1 
0.42 -0.176 -0.016 1 
0.423 0.044 -0.013 1 
0.423 0.053 -0.013 1 
0.42 0.064 -0.012 1 
0.42 0.073 -0.012 1 
0.42 0.094 -0.013 1 
0.419 0.103 -0.013 1 
0.419 0.122 -0.013 1 
0.358 0.164 -0.016 1 
0.413 0.174 -0.013 1 
0.414 0.194 -0.013 1 
0.398 0.059 -0.015 1 
0.41 0.213 -0.013 1 
0.414 0.232 -0.015 1 
0.412 0.243 -0.015 1 
0.412 0.251 -0.015 1 
0.409 0.273 -0.015 1 
0.433 -0.257 -0.016 1 
0.433 -0.245 -0.016 1 
0.431 -0.23 -0.015 1 
0.43 -0.226 -0.014 1 
0.429 -0.221 -0.014 1 
0.431 -0.215 -0.015 1 
0.431 -0.209 -0.015 1 
0.431 -0.207 -0.014 1 
0.381 -0.071 -0.015 1 
0.432 -0.197 -0.014 1 
0.431 -0.186 -0.014 1 
0.431 -0.176 -0.014 1 
0.43 -0.157 -0.013 1 
0.43 -0.145 -0.013 1 
0.431 -0.135 -0.013 1 
0.43 -0.125 -0.013 1 
0.431 -0.116 -0.013 1 
0.43 -0.106 -0.012 1 
0.431 -0.096 -0.013 1 
0.43 -0.086 -0.012 1 
0.432 -0.075 -0.013 1 
0.431 -0.065 -0.012 1 
0.431 -0.056 -0.012 1 
0.432 -0.046 -0.013 1 
0.479 -0.046 -0.025 1 
0.478 -0.038 -0.025 1 
0.353 0.137 -0.015 1 
0.429 0.014 -0.012 1 
0.428 0.033 -0.012 1 
0.431 0.043 -0.013 1 
0.429 0.054 -0.012 1 
0.423 0.153 -0.012 1 
0.42 0.164 -0.012 1 
0.419 0.173 -0.012 1 
0.421 0.184 -0.013 1 
0.414 0.281 -0.014 1 
0.431 -0.305 -0.015 1 
0.439 -0.295 -0.016 1 
0.44 -0.278 -0.016 1 
0.433 -0.265 -0.014 1 
0.431 -0.255 -0.013 1 
0.434 -0.249 -0.014 1 
0.439 -0.075 -0.012 1 
0.403 0.064 -0.014 1 
0.442 -0.043 -0.013 1 
0.324 -0.005 0.016 1 
0.33 0.001 0.015 1 
0.333 0.003 0.014 1 
0.434 0.063 -0.011 1 
0.433 0.072 -0.011 1 
0.433 0.084 -0.011 1 
0.408 -0.055 -0.015 1 
0.432 0.094 -0.011 1 
0.432 0.123 -0.012 1 
0.424 0.194 -0.011 1 
0.421 0.204 -0.011 1 
0.421 0.212 -0.011 1 
0.421 0.222 -0.011 1 
0.422 0.234 -0.012 1 
0.421 0.244 -0.012 1 
0.418 0.254 -0.012 1 
0.42 0.273 -0.013 1 
0.425 0.296 -0.015 1 
0.438 -0.313 -0.014 1 
0.422 -0.205 -0.017 1 
0.446 -0.306 -0.016 1 
0.448 -0.295 -0.016 1 
0.447 -0.291 -0.015 1 
0.442 -0.225 -0.012 1 
0.441 -0.217 -0.012 1 
0.443 -0.197 -0.012 1 
0.442 -0.185 -0.012 1 
0.444 -0.176 -0.012 1 
0.442 -0.167 -0.011 1 
0.442 -0.157 -0.011 1 
0.443 -0.147 -0.011 1 
0.442 -0.136 -0.011 1 
0.442 -0.116 -0.011 1 
0.44 -0.105 -0.01 1 
0.442 -0.095 -0.011 1 
0.42 0.082 -0.012 1 
0.444 -0.086 -0.011 1 
0.374 0.182 -0.014 1 
0.444 -0.068 -0.011 1 
0.443 -0.056 -0.011 1 
0.334 -0.008 0.015 1 
0.341 -0.005 0.014 1 
0.347 0 0.012 1 
0.406 0.024 -0.015 1 
0.344 0.003 0.013 1 
0.44 0.032 -0.01 1 
0.441 0.042 -0.01 1 
0.442 0.052 -0.011 1 
0.44 0.064 -0.01 1 
0.44 0.074 -0.01 1 
0.439 0.124 -0.011 1 
0.433 0.143 -0.01 1 
0.432 0.153 -0.01 1 
0.433 0.164 -0.01 1 
0.43 0.233 -0.011 1 
0.425 0.273 -0.012 1 
0.423 0.282 -0.011 1 
0.424 0.292 -0.012 1 
0.453 -0.326 -0.015 1 
0.453 -0.32 -0.015 1 
0.444 -0.267 -0.011 1 
0.442 -0.256 -0.011 1 
0.444 -0.249 -0.011 1 
0.414 0.103 -0.013 1 
0.444 -0.241 -0.011 1 
0.45 -0.067 -0.01 1 
0.45 -0.055 -0.01 1 
0.479 -0.035 -0.017 1 
0.359 0.01 -0.014 1 
0.404 -0.237 -0.022 1 
0.408 0.224 -0.015 1 
0.363 -0.006 0.01 1 
0.357 0.002 0.011 1 
0.387 -0.027 -0.025 1 
0.444 0.083 -0.009 1 
0.444 0.134 -0.01 1 
0.438 0.162 -0.009 1 
0.434 0.183 -0.008 1 
0.433 0.192 -0.008 1 
0.431 0.204 -0.008 1 
0.432 0.218 -0.009 1 
0.433 0.252 -0.01 1 
0.434 0.264 -0.011 1 
0.433 0.284 -0.011 1 
0.433 0.293 -0.012 1 
0.414 0.272 -0.014 1 
0.454 -0.317 -0.012 1 
0.452 -0.278 -0.011 1 
0.453 -0.258 -0.01 1 
0.452 -0.236 -0.01 1 
0.452 -0.226 -0.01 1 
0.453 -0.215 -0.01 1 
0.454 -0.205 -0.01 1 
0.454 -0.196 -0.01 1 
0.454 -0.185 -0.009 1 
0.452 -0.157 -0.008 1 
0.452 -0.146 -0.008 1 
0.452 -0.135 -0.008 1 
0.454 -0.115 -0.008 1 
0.454 -0.105 -0.008 1 
0.454 -0.097 -0.008 1 
0.444 -0.211 -0.01 1 
0.454 -0.089 -0.008 1 
0.444 -0.016 -0.006 1 
0.449 0.003 -0.007 1 
0.452 0.034 -0.008 1 
0.441 0.142 -0.009 1 
0.452 0.044 -0.008 1 
0.452 0.054 -0.008 1 
0.451 0.064 -0.008 1 
0.45 0.084 -0.008 1 
0.451 0.092 -0.008 1 
0.45 0.102 -0.008 1 
0.443 0.173 -0.008 1 
0.41 0.191 -0.015 1 
0.443 0.183 -0.008 1 
0.442 0.204 -0.008 1 
0.44 0.214 -0.008 1 
0.434 0.303 -0.01 1 
0.433 0.305 -0.009 1 
0.457 0.042 -0.007 1 
0.455 0.062 -0.006 1 
0.453 0.114 -0.006 1 
0.453 0.133 -0.007 1 
0.451 0.153 -0.006 1 
0.443 0.244 -0.007 1 
0.443 0.273 -0.008 1 
0.444 0.283 -0.008 1 
0.442 0.293 -0.008 1 
0.464 -0.335 -0.009 1 
0.381 0.184 -0.015 1 
0.463 -0.317 -0.009 1 
0.464 -0.299 -0.008 1 
0.461 -0.255 -0.007 1 
0.461 -0.215 -0.006 1 
0.461 -0.176 -0.005 1 
0.461 -0.156 -0.005 1 
0.462 -0.075 -0.005 1 
0.378 -0.24 -0.025 1 
0.462 -0.057 -0.005 1 
0.462 -0.038 -0.005 1 
0.461 0.003 -0.005 1 
0.461 0.016 -0.005 1 
0.457 0.124 -0.005 1 
0.456 0.142 -0.005 1 
0.456 0.153 -0.005 1 
0.454 0.163 -0.005 1 
0.386 0.232 -0.016 1 
0.452 0.184 -0.005 1 
0.453 0.193 -0.005 1 
0.453 0.204 -0.005 1 
0.452 0.214 -0.005 1 
0.451 0.222 -0.005 1 
0.45 0.233 -0.005 1 
0.448 0.243 -0.005 1 
0.448 0.254 -0.006 1 
0.448 0.263 -0.006 1 
0.448 0.272 -0.006 1 
0.448 0.284 -0.006 1 
0.445 0.296 -0.006 1 
0.443 0.303 -0.006 1 
0.407 -0.036 -0.015 1 
0.442 0.312 -0.006 1 
0.442 0.315 -0.006 1 
0.362 -0.075 -0.016 1 
0.466 -0.317 -0.006 1 
0.454 -0.045 -0.011 1 
0.467 -0.305 -0.006 1 
0.457 0.134 -0.005 1 
0.467 -0.286 -0.006 1 
0.466 -0.275 -0.005 1 
0.465 -0.265 -0.005 1 
0.465 -0.256 -0.005 1 
0.467 -0.245 -0.005 1 
0.467 -0.236 -0.005 1 
0.466 -0.231 -0.005 1 
0.464 -0.186 -0.003 1 
0.463 -0.177 -0.003 1 
0.464 -0.147 -0.003 1 
0.463 -0.105 -0.002 1 
0.463 -0.097 -0.002 1 
0.453 -0.3 -0.012 1 
0.463 -0.065 -0.002 1 
0.453 0.232 -0.003 1 
0.452 0.243 -0.003 1 
0.451 0.254 -0.003 1 
0.451 0.263 -0.004 1 
0.452 0.282 -0.004 1 
0.452 0.288 -0.005 1 
0.469 -0.348 -0.005 1 
0.471 -0.336 -0.005 1 
0.43 0.134 -0.011 1 
0.443 0.264 -0.007 1 
0.47 -0.331 -0.005 1 
0.404 -0.2 -0.019 1 
0.464 -0.163 0 1 
0.464 -0.116 0 1 
0.464 -0.079 0 1 
0.464 -0.046 0 1 
0.454 0.325 -0.003 1 
0.473 -0.338 -0.002 1 
0.473 -0.328 -0.002 1 
0.382 0.153 -0.014 1 
0.474 -0.315 -0.002 1 
0.407 -0.126 -0.015 1 
0.465 -0.028 0.002 1 
0.464 -0.015 0.002 1 
0.465 -0.007 0.002 1 
0.465 0.011 0.002 1 
0.464 0.014 0.002 1 
0.454 0.302 0 1 
0.454 0.305 0 1 
0.454 0.322 0 1 
0.471 -0.228 0.002 1 
0.469 -0.218 0.002 1 
0.468 -0.205 0.003 1 
0.468 -0.197 0.003 1 
0.467 -0.185 0.003 1 
0.467 -0.176 0.003 1 
0.466 -0.167 0.004 1 
0.467 -0.156 0.004 1 
0.467 -0.145 0.004 1 
0.374 -0.206 -0.022 1 
0.419 0.112 -0.013 1 
0.465 -0.09 0.004 1 
0.465 -0.079 0.004 1 
0.462 0.093 0.004 1 
0.461 0.104 0.004 1 
0.46 0.114 0.004 1 
0.459 0.152 0.004 1 
0.46 0.164 0.004 1 
0.46 0.183 0.003 1 
0.46 0.194 0.003 1 
0.46 0.203 0.003 1 
0.46 0.223 0.003 1 
0.46 0.232 0.003 1 
0.46 0.244 0.002 1 
0.46 0.274 0.002 1 
0.371 0.146 -0.014 1 
0.465 0.341 0 1 
0.474 -0.346 0.002 1 
0.355 0.104 -0.014 1 
0.475 -0.336 0.002 1 
0.42 -0.085 -0.014 1 
0.475 -0.326 0.003 1 
0.474 -0.305 0.003 1 
0.472 -0.287 0.004 1 
0.472 -0.277 0.004 1 
0.472 -0.265 0.004 1 
0.471 -0.261 0.004 1 
0.459 0.282 0.004 1 
0.458 0.294 0.004 1 
0.458 0.303 0.004 1 
0.459 0.314 0.004 1 
0.46 0.321 0.003 1 
0.394 0.014 -0.015 1 
0.46 0.332 0.003 1 
0.46 0.335 0.006 1 
0.458 0.113 -0.005 1 
0.462 -0.196 -0.006 1 
0.459 0.092 -0.005 1 
0.455 0.073 -0.006 1 
0.456 0.052 -0.006 1 
0.458 -0.007 -0.007 1 
0.461 -0.03 -0.005 1 
0.462 -0.051 -0.005 1 
0.462 -0.067 -0.005 1 
0.411 0.204 -0.013 1 
0.384 -0.147 -0.017 1 
0.461 -0.086 -0.005 1 
0.462 -0.105 -0.005 1 
0.461 -0.126 -0.005 1 
0.461 -0.145 -0.005 1 
0.37 -0.026 -0.016 1 
0.383 0.188 -0.013 1 
0.394 0.043 -0.015 1 
0.461 -0.167 -0.005 1 
0.461 -0.187 -0.006 1 
0.462 -0.225 -0.006 1 
0.45 -0.307 -0.014 1 
0.463 -0.245 -0.007 1 
0.443 0.253 -0.007 1 
0.462 -0.287 -0.008 1 
0.464 -0.328 -0.009 1 
0.442 -0.277 -0.014 1 
0.414 0.112 -0.014 1 
0.372 0.113 -0.015 1 
0.414 0.124 -0.014 1 
0.371 0.236 -0.016 1 
0.391 0.174 -0.015 1 
0.431 0.103 -0.011 1 
0.438 -0.273 -0.015 1 
0.444 0.093 -0.009 1 
0.444 0.103 -0.009 1 
0.403 -0.086 -0.016 1 
0.452 0.143 -0.006 1 
0.431 0.173 -0.01 1 
0.472 -0.249 0.004 1 
0.45 0.074 -0.008 1 
0.463 -0.135 -0.003 1 
0.453 0.122 -0.006 1 
0.444 0.008 -0.008 1 
0.469 -0.297 -0.006 1 
0.459 -0.035 -0.036 1 
0.374 0.073 -0.015 1 
0.362 -0.066 -0.016 1 
0.391 0.258 -0.014 1 
0.44 0.152 -0.009 1 
0.349 0.164 -0.014 1 
0.414 -0.039 -0.014 1 
0.464 -0.169 0 1 
0.464 0.339 0.002 1 
0.384 -0.04 -0.016 1 
0.447 0.314 -0.005 1 
0.389 -0.195 -0.018 1 
0.405 0.058 -0.015 1 
0.372 -0.215 -0.024 1 
0.444 -0.051 -0.011 1 
0.37 -0.065 -0.015 1 
0.335 -0.019 -0.004 1 
0.42 -0.278 -0.021 1 
0.432 0.113 -0.011 1 
0.457 -0.334 -0.017 1 
0.423 -0.04 -0.015 1 
0.454 0.224 -0.003 1 
0.378 0.094 -0.015 1 
0.409 0.278 -0.015 1 
0.446 -0.021 -0.006 1 
0.462 -0.116 -0.005 1 
0.354 0.204 -0.017 1 
0.374 -0.231 -0.025 1 
0.401 0.213 -0.015 1 
0.464 -0.206 -0.004 1 
0.461 -0.137 -0.005 1 
0.388 0.124 -0.015 1 
0.464 0.003 0 1 
0.472 -0.238 0.002 1 
0.373 0.062 -0.014 1 
0.413 0.223 -0.014 1 
0.427 -0.165 -0.015 1 
0.394 -0.096 -0.015 1 
0.434 -0.238 -0.016 1 
0.373 0.094 -0.015 1 
0.434 -0.269 -0.017 1 
0.378 0.063 -0.014 1 
0.386 0.204 -0.015 1 
0.464 -0.025 0.002 1 
0.389 0.024 -0.016 1 
0.453 -0.125 -0.008 1 
0.409 0.124 -0.015 1 
0.381 0.202 -0.015 1 
0.423 0.133 -0.012 1 
0.454 -0.267 -0.011 1 
0.42 -0.166 -0.015 1 
0.385 0.183 -0.014 1 
0.387 0.254 -0.015 1 
0.458 -0.017 -0.007 1 
0.402 0.182 -0.014 1 
0.46 0.172 0.004 1 
0.423 0.014 -0.013 1 
0.391 0.113 -0.015 1 
0.461 0.144 0.004 1 
0.46 -0.341 -0.017 1 
0.42 -0.135 -0.015 1 
0.406 0.028 -0.015 1 
0.465 -0.095 0.004 1 
0.472 -0.296 0.004 1 
0.39 -0.243 -0.025 1 
0.358 0.174 -0.015 1 
0.343 -0.012 0.015 1 
0.462 -0.265 -0.007 1 
0.4 0.053 -0.015 1 
0.384 0.029 -0.016 1 
0.414 0.184 -0.013 1 
0.451 -0.027 -0.008 1 
0.41 0.044 -0.014 1 
0.419 0.261 -0.012 1 
0.433 -0.304 -0.015 1 
0.421 0.144 -0.011 1 
0.444 -0.285 -0.015 1 
0.362 0.08 -0.015 1 
0.402 0.109 -0.014 1 
0.454 -0.042 -0.011 1 
0.44 0.022 -0.01 1 
0.46 0.253 0.002 1 
0.393 -0.035 -0.017 1 
0.452 -0.287 -0.011 1 
0.4 0.044 -0.015 1 
0.394 -0.183 -0.017 1 
0.413 -0.176 -0.016 1 
0.384 -0.179 -0.018 1 
0.458 0.263 0.002 1 
0.399 -0.064 -0.014 1 
0.43 0.024 -0.012 1 
0.464 -0.007 0 1 
0.362 -0.095 -0.016 1 
0.412 -0.156 -0.015 1 
0.4 -0.126 -0.016 1 
0.464 -0.13 0 1 
0.451 -0.075 -0.01 1 
0.406 0.054 -0.015 1 
0.381 0.132 -0.015 1 
0.39 -0.246 -0.025 1 
0.409 -0.115 -0.016 1 
0.413 -0.205 -0.017 1 
0.465 -0.106 0.004 1 
0.419 -0.185 -0.016 1 
0.444 -0.006 -0.006 1 
0.442 -0.126 -0.011 1 
0.444 0.111 -0.009 1 
0.465 -0.1 0.007 1 
0.4 -0.273 -0.025 1 
0.403 0.174 -0.014 1 
0.453 -0.176 -0.009 1 
0.443 -0.306 -0.015 1 
0.352 0.183 -0.015 1 
0.381 0.223 -0.016 1 
0.461 0.013 -0.005 1 
0.392 0.214 -0.015 1 
0.422 -0.126 -0.015 1 
0.374 -0.159 -0.018 1 
0.464 -0.087 0 1 
0.452 0.273 -0.004 1 
0.454 0.293 -0.002 1 
0.372 0.174 -0.015 1 
0.371 0.089 -0.014 1 
0.4 0.082 -0.013 1 
0.428 -0.304 -0.014 1 
0.462 0.083 0.004 1 
0.414 -0.252 -0.021 1 
0.443 0.194 -0.008 1 
0.414 0.083 -0.013 1 
0.414 -0.048 -0.015 1 
0.38 0.194 -0.015 1 
0.432 -0.2 -0.015 1 
0.379 0.061 -0.015 1 
0.393 -0.085 -0.017 1 
0.455 0.083 -0.006 1 
0.411 0.033 -0.014 1 
0.361 -0.115 -0.016 1 
0.364 0.054 -0.015 1 
0.383 0.213 -0.016 1 
0.423 0.032 -0.013 1 
0.414 0.227 -0.014 1 
0.42 -0.116 -0.015 1 
0.402 0.204 -0.013 1 
0.462 -0.097 -0.005 1 
0.43 0.209 -0.008 1 
0.441 0.223 -0.008 1 
0.416 0.286 -0.015 1 
0.392 -0.165 -0.018 1 
0.371 0.044 -0.015 1 
0.453 -0.035 -0.039 1 
0.456 0.034 -0.006 1 
0.412 -0.281 -0.022 1 
0.465 0.003 0.002 1 
0.475 -0.316 0.003 1 
0.463 -0.057 -0.002 1 
0.461 -0.207 -0.006 1 
0.399 0.034 -0.015 1 
0.452 -0.165 -0.009 1 
0.398 -0.034 -0.016 1 
0.383 0.094 -0.014 1 
0.455 0.155 -0.005 1 
0.464 -0.197 -0.004 1 
0.462 -0.275 -0.007 1 
0.373 0.192 -0.016 1 
0.429 -0.041 -0.014 1 
0.411 0.264 -0.015 1 
0.453 0.173 -0.005 1 
0.383 0.174 -0.015 1 
0.45 -0.246 -0.009 1 
0.425 0.293 -0.015 1 
0.43 -0.165 -0.013 1 
0.452 0.023 -0.008 1 
0.415 -0.055 -0.015 1 
0.46 0.214 0.003 1 
0.432 0.243 -0.01 1 
0.452 0.013 -0.008 1 
0.44 0.233 -0.009 1 
0.411 0.184 -0.015 1 
0.402 -0.116 -0.016 1 
0.47 -0.037 -0.031 1 
0.372 0.204 -0.017 1 
0.464 -0.237 -0.007 1 
0.404 -0.245 -0.022 1 
0.384 -0.136 -0.017 1 
0.459 0.103 -0.005 1 
0.463 -0.307 -0.008 1 
0.39 -0.136 -0.017 1 
0.362 0.214 -0.016 1 
0.371 -0.165 -0.017 1 
0.4 0.091 -0.014 1 
0.472 -0.248 0.151 3 
0.463 0.304 0.153 3 
0.462 0.154 0.133 3 
0.463 0.291 0.153 3 
0.463 0.282 0.153 3 
0.463 0.073 0.143 3 
0.464 -0.006 0.092 3 
0.462 0.272 0.152 3 
0.464 0.014 0.149 3 
0.47 -0.156 0.152 3 
0.463 0.314 0.154 3 
0.461 0.282 0.132 3 
0.469 -0.167 0.152 3 
0.47 -0.176 0.152 3 
0.471 -0.188 0.153 3 
0.472 -0.197 0.153 3 
0.472 -0.206 0.153 3 
0.472 -0.217 0.153 3 
0.472 -0.226 0.154 3 
0.458 0.242 0.014 3 
0.473 -0.236 0.154 3 
0.464 -0.004 0.146 3 
0.464 0.07 0.151 3 
0.472 -0.247 0.092 3 
0.46 0.233 0.142 3 
0.464 0.057 0.151 3 
0.465 -0.047 0.034 3 
0.464 0.052 0.151 3 
0.464 0.038 0.151 3 
0.467 -0.055 0.152 3 
0.458 0.333 0.062 3 
0.467 -0.066 0.152 3 
0.468 -0.077 0.153 3 
0.468 -0.085 0.153 3 
0.468 -0.096 0.153 3 
0.461 0.232 0.063 3 
0.468 -0.107 0.153 3 
0.47 -0.116 0.154 3 
0.47 -0.125 0.154 3 
0.47 -0.136 0.154 3 
0.47 -0.147 0.154 3 
0.478 -0.325 0.162 3 
0.479 -0.336 0.163 3 
0.482 -0.35 0.164 3 
0.46 0.338 0.154 3 
0.462 0.333 0.154 3 
0.479 -0.308 0.152 3 
0.464 0.003 0.143 3 
0.478 -0.307 0.131 3 
0.465 -0.004 0.143 3 
0.466 -0.017 0.144 3 
0.465 -0.025 0.143 3 
0.466 -0.047 0.144 3 
0.467 -0.055 0.144 3 
0.466 -0.066 0.144 3 
0.466 -0.076 0.144 3 
0.467 -0.085 0.144 3 
0.479 -0.298 0.152 3 
0.467 -0.187 0.014 3 
0.464 0.003 0.132 3 
0.479 -0.315 0.153 3 
0.479 -0.325 0.153 3 
0.479 -0.336 0.154 3 
0.462 0.293 0.144 3 
0.463 0.282 0.144 3 
0.461 -0.007 0.013 3 
0.462 0.274 0.144 3 
0.462 0.262 0.143 3 
0.461 0.243 0.142 3 
0.463 0.264 0.163 3 
0.463 0.133 0.144 3 
0.475 -0.259 0.153 3 
0.464 -0.086 0.021 3 
0.475 -0.266 0.153 3 
0.475 -0.275 0.153 3 
0.477 -0.287 0.154 3 
0.462 0.194 0.144 3 
0.463 0.183 0.144 3 
0.462 0.174 0.144 3 
0.462 0.163 0.144 3 
0.463 0.152 0.144 3 
0.463 0.144 0.144 3 
0.474 -0.255 0.152 3 
0.463 0.124 0.143 3 
0.462 0.113 0.143 3 
0.462 0.102 0.143 3 
0.462 0.094 0.143 3 
0.463 0.084 0.143 3 
0.463 0.062 0.143 3 
0.464 0.054 0.143 3 
0.464 0.033 0.143 3 
0.463 0.022 0.143 3 
0.464 0.014 0.143 3 
0.464 0.103 0.157 3 
0.464 0.333 0.164 3 
0.459 0.271 0.104 3 
0.465 0.33 0.164 3 
0.46 0.333 0.122 3 
0.464 0.322 0.163 3 
0.463 0.311 0.162 3 
0.462 0.134 0.073 3 
0.464 0.302 0.162 3 
0.465 0.173 0.158 3 
0.464 0.108 0.157 3 
0.461 0.324 0.113 3 
0.461 0.34 0.163 3 
0.464 0.019 0.157 3 
0.472 -0.195 0.162 3 
0.472 -0.206 0.162 3 
0.469 -0.166 0.033 3 
0.472 -0.215 0.162 3 
0.474 -0.225 0.163 3 
0.467 -0.137 0.093 3 
0.474 -0.237 0.163 3 
0.474 -0.246 0.163 3 
0.474 -0.256 0.164 3 
0.461 0.244 0.043 3 
0.48 -0.358 0.134 3 
0.478 -0.355 0.124 3 
0.463 0.254 0.163 3 
0.462 0.242 0.162 3 
0.462 0.233 0.162 3 
0.463 0.224 0.162 3 
0.464 0.144 0.16 3 
0.47 -0.116 0.162 3 
0.471 -0.125 0.163 3 
0.469 -0.136 0.162 3 
0.481 -0.356 0.161 3 
0.469 -0.147 0.162 3 
0.464 0.133 0.155 3 
0.47 -0.156 0.163 3 
0.472 -0.277 0.084 3 
0.471 -0.165 0.163 3 
0.471 -0.177 0.164 3 
0.472 -0.186 0.164 3 
0.467 -0.107 0.104 3 
0.471 -0.255 0.052 3 
0.465 -0.036 0.044 3 
0.479 -0.337 0.172 3 
0.483 -0.348 0.174 3 
0.462 0.232 0.154 3 
0.477 -0.287 0.163 3 
0.477 -0.297 0.163 3 
0.478 -0.308 0.164 3 
0.478 -0.315 0.164 3 
0.464 -0.337 0.161 3 
0.463 0.072 0.073 3 
0.479 -0.358 0.167 3 
0.462 0.262 0.154 3 
0.461 0.153 0.033 3 
0.463 0.254 0.154 3 
0.462 0.244 0.154 3 
0.462 0.3 0.144 3 
0.462 0.223 0.153 3 
0.462 0.212 0.153 3 
0.461 0.274 0.062 3 
0.461 0.194 0.152 3 
0.462 0.183 0.152 3 
0.463 0.172 0.152 3 
0.463 0.163 0.152 3 
0.464 0.153 0.152 3 
0.464 0.144 0.152 3 
0.464 0.133 0.152 3 
0.464 0.122 0.152 3 
0.465 0.022 0.154 3 
0.464 0.111 0.154 3 
0.463 0.103 0.154 3 
0.464 0.092 0.154 3 
0.465 0.079 0.154 3 
0.465 0.073 0.154 3 
0.465 0.063 0.154 3 
0.464 0.064 0.073 3 
0.464 -0.017 0.074 3 
0.465 0.054 0.154 3 
0.465 0.044 0.154 3 
0.465 0.033 0.154 3 
0.464 0.084 0.151 3 
0.464 0.019 0.154 3 
0.471 -0.246 0.033 3 
0.465 0.014 0.154 3 
0.465 -0.006 0.154 3 
0.466 -0.017 0.154 3 
0.466 -0.025 0.154 3 
0.466 -0.036 0.154 3 
0.475 -0.26 0.161 3 
0.476 -0.267 0.162 3 
0.477 -0.277 0.163 3 
0.462 0.032 0.124 3 
0.465 -0.071 0.023 3 
0.462 0.132 0.124 3 
0.473 -0.354 0.043 3 
0.462 0.124 0.124 3 
0.463 0.113 0.124 3 
0.463 0.102 0.124 3 
0.463 0.094 0.124 3 
0.463 0.083 0.124 3 
0.462 0.064 0.124 3 
0.463 0.054 0.124 3 
0.462 0.043 0.124 3 
0.462 0.143 0.124 3 
0.463 0.022 0.124 3 
0.464 0.003 0.124 3 
0.464 -0.006 0.124 3 
0.464 -0.017 0.124 3 
0.464 -0.025 0.124 3 
0.464 -0.036 0.124 3 
0.474 -0.277 0.13 3 
0.479 -0.318 0.132 3 
0.479 -0.328 0.132 3 
0.472 -0.277 0.044 3 
0.48 -0.336 0.133 3 
0.473 -0.245 0.134 3 
0.469 -0.146 0.132 3 
0.469 -0.155 0.132 3 
0.469 -0.166 0.132 3 
0.469 -0.175 0.132 3 
0.47 -0.186 0.133 3 
0.471 -0.196 0.133 3 
0.472 -0.205 0.133 3 
0.472 -0.217 0.134 3 
0.473 -0.227 0.134 3 
0.473 -0.236 0.134 3 
0.464 -0.007 0.052 3 
0.482 -0.349 0.134 3 
0.464 -0.036 0.127 3 
0.473 -0.257 0.132 3 
0.474 -0.267 0.132 3 
0.475 -0.278 0.133 3 
0.475 -0.287 0.133 3 
0.476 -0.295 0.134 3 
0.461 0.17 0.124 3 
0.461 0.164 0.124 3 
0.462 0.148 0.124 3 
0.461 0.183 0.052 3 
0.472 -0.226 0.123 3 
0.468 -0.146 0.123 3 
0.469 -0.158 0.124 3 
0.469 -0.166 0.124 3 
0.469 -0.175 0.124 3 
0.47 -0.186 0.124 3 
0.459 0.335 0.122 3 
0.462 0.322 0.122 3 
0.465 -0.02 0.119 3 
0.471 -0.196 0.122 3 
0.472 -0.205 0.122 3 
0.471 -0.216 0.122 3 
0.468 -0.138 0.123 3 
0.473 -0.245 0.123 3 
0.472 -0.256 0.123 3 
0.474 -0.277 0.124 3 
0.475 -0.287 0.124 3 
0.465 -0.025 0.116 3 
0.476 -0.298 0.122 3 
0.477 -0.305 0.122 3 
0.477 -0.326 0.123 3 
0.478 -0.337 0.123 3 
0.479 -0.345 0.124 3 
0.474 0.358 0.199 3 
0.461 0.184 0.122 3 
0.461 0.311 0.124 3 
0.461 0.304 0.124 3 
0.46 0.291 0.124 3 
0.461 0.282 0.124 3 
0.462 0.274 0.124 3 
0.461 0.264 0.123 3 
0.46 0.242 0.123 3 
0.461 0.234 0.123 3 
0.461 0.222 0.123 3 
0.462 0.202 0.122 3 
0.461 0.193 0.122 3 
0.47 -0.215 0.064 3 
0.465 -0.014 0.122 3 
0.465 -0.039 0.122 3 
0.466 -0.047 0.122 3 
0.466 -0.055 0.122 3 
0.464 -0.017 0.052 3 
0.466 -0.076 0.122 3 
0.467 -0.085 0.123 3 
0.468 -0.107 0.123 3 
0.468 -0.115 0.123 3 
0.468 -0.126 0.123 3 
0.461 0.252 0.134 3 
0.474 -0.265 0.144 3 
0.475 -0.272 0.144 3 
0.475 -0.275 0.144 3 
0.476 -0.285 0.142 3 
0.468 -0.205 0.014 3 
0.477 -0.296 0.143 3 
0.462 0.204 0.092 3 
0.479 -0.305 0.143 3 
0.479 -0.315 0.144 3 
0.48 -0.326 0.144 3 
0.461 0.258 0.134 3 
0.474 -0.258 0.144 3 
0.475 -0.306 0.084 3 
0.46 0.242 0.134 3 
0.46 0.254 0.123 3 
0.46 0.233 0.134 3 
0.46 0.224 0.133 3 
0.464 -0.122 0.015 3 
0.461 0.213 0.134 3 
0.473 -0.266 0.124 3 
0.461 0.202 0.133 3 
0.462 0.193 0.133 3 
0.469 -0.146 0.052 3 
0.481 -0.356 0.152 3 
0.462 0.214 0.142 3 
0.468 -0.107 0.142 3 
0.469 -0.116 0.142 3 
0.469 -0.127 0.143 3 
0.469 -0.147 0.143 3 
0.47 -0.156 0.143 3 
0.469 -0.166 0.143 3 
0.469 -0.175 0.143 3 
0.469 -0.187 0.144 3 
0.47 -0.196 0.144 3 
0.481 -0.349 0.152 3 
0.462 0.182 0.133 3 
0.477 -0.336 0.114 3 
0.461 0.332 0.142 3 
0.463 0.324 0.143 3 
0.462 0.313 0.142 3 
0.464 -0.014 0.138 3 
0.472 -0.205 0.142 3 
0.472 -0.217 0.142 3 
0.471 -0.225 0.142 3 
0.473 -0.236 0.143 3 
0.473 -0.245 0.143 3 
0.481 -0.345 0.142 3 
0.466 -0.047 0.133 3 
0.467 -0.055 0.133 3 
0.466 -0.066 0.133 3 
0.466 -0.076 0.133 3 
0.466 -0.085 0.133 3 
0.466 -0.095 0.133 3 
0.468 -0.115 0.134 3 
0.468 -0.126 0.134 3 
0.475 -0.315 0.032 3 
0.468 -0.135 0.134 3 
0.48 -0.336 0.142 3 
0.465 -0.036 0.133 3 
0.459 0.336 0.133 3 
0.46 0.334 0.134 3 
0.473 -0.288 0.092 3 
0.462 0.322 0.134 3 
0.461 0.314 0.133 3 
0.461 0.301 0.133 3 
0.46 0.291 0.132 3 
0.461 0.273 0.132 3 
0.465 0.006 0.13 3 
0.465 0.003 0.13 3 
0.465 -0.014 0.13 3 
0.463 0.062 0.132 3 
0.461 0.173 0.133 3 
0.462 0.162 0.133 3 
0.462 0.143 0.133 3 
0.462 0.132 0.132 3 
0.462 0.124 0.132 3 
0.463 0.113 0.132 3 
0.463 0.102 0.132 3 
0.464 -0.036 0.09 3 
0.463 0.094 0.132 3 
0.463 0.083 0.132 3 
0.463 0.073 0.132 3 
0.461 0.222 0.142 3 
0.463 0.054 0.132 3 
0.463 0.043 0.132 3 
0.461 0.244 0.062 3 
0.463 0.033 0.132 3 
0.463 0.022 0.132 3 
0.463 0.014 0.132 3 
0.464 -0.006 0.132 3 
0.472 -0.296 0.012 3 
0.464 -0.017 0.132 3 
0.465 -0.028 0.133 3 
0.469 0.003 0.183 3 
0.469 0.083 0.184 3 
0.47 0.072 0.184 3 
0.469 0.064 0.183 3 
0.471 0.053 0.184 3 
0.47 0.042 0.184 3 
0.465 0.112 0.163 3 
0.475 -0.322 0.011 3 
0.469 0.033 0.183 3 
0.469 0.023 0.183 3 
0.469 0.014 0.183 3 
0.46 0.302 0.082 3 
0.465 -0.036 0.002 3 
0.463 0.043 0.052 3 
0.469 -0.007 0.183 3 
0.478 -0.316 0.123 3 
0.47 -0.015 0.184 3 
0.47 -0.026 0.184 3 
0.469 -0.036 0.172 3 
0.471 -0.037 0.184 3 
0.471 -0.045 0.184 3 
0.466 -0.055 0.063 3 
0.472 -0.056 0.184 3 
0.474 -0.147 0.187 3 
0.466 0.181 0.184 3 
0.458 0.313 0.012 3 
0.484 -0.319 0.2 3 
0.47 -0.218 0.044 3 
0.485 -0.323 0.201 3 
0.486 -0.328 0.202 3 
0.486 -0.335 0.202 3 
0.484 -0.344 0.202 3 
0.465 -0.006 0.143 3 
0.484 -0.348 0.202 3 
0.469 0.349 0.193 3 
0.467 0.339 0.192 3 
0.478 -0.257 0.192 3 
0.467 0.164 0.184 3 
0.466 0.152 0.184 3 
0.461 0.196 0.144 3 
0.467 0.144 0.184 3 
0.468 0.133 0.184 3 
0.469 0.122 0.184 3 
0.468 -0.107 0.134 3 
0.468 0.113 0.184 3 
0.468 0.102 0.183 3 
0.469 0.094 0.184 3 
0.48 -0.298 0.191 3 
0.472 -0.087 0.182 3 
0.473 -0.095 0.183 3 
0.463 0.043 0.143 3 
0.473 -0.107 0.183 3 
0.473 -0.115 0.183 3 
0.472 -0.126 0.183 3 
0.472 -0.137 0.183 3 
0.473 -0.146 0.184 3 
0.461 0.203 0.033 3 
0.473 -0.155 0.184 3 
0.474 -0.167 0.184 3 
0.46 0.303 0.113 3 
0.48 -0.308 0.192 3 
0.482 -0.317 0.193 3 
0.464 0.346 0.185 3 
0.464 0.342 0.185 3 
0.467 -0.096 0.123 3 
0.466 0.326 0.184 3 
0.465 0.321 0.184 3 
0.465 0.311 0.183 3 
0.46 0.293 0.093 3 
0.465 0.301 0.183 3 
0.466 0.293 0.183 3 
0.467 0.222 0.183 3 
0.466 -0.076 0.074 3 
0.481 -0.266 0.193 3 
0.48 -0.278 0.193 3 
0.48 -0.288 0.194 3 
0.472 0.355 0.192 3 
0.465 0.154 0.172 3 
0.465 0.276 0.184 3 
0.466 0.264 0.184 3 
0.466 0.252 0.184 3 
0.466 0.243 0.184 3 
0.467 0.234 0.184 3 
0.481 -0.306 0.198 3 
0.463 0.083 0.073 3 
0.467 0.213 0.183 3 
0.461 0.213 0.123 3 
0.466 0.204 0.182 3 
0.467 0.193 0.182 3 
0.467 0.172 0.182 3 
0.471 -0.165 0.172 3 
0.469 -0.135 0.143 3 
0.472 -0.067 0.182 3 
0.473 -0.076 0.182 3 
0.47 0.072 0.187 3 
0.467 0.202 0.188 3 
0.469 0.194 0.189 3 
0.468 0.182 0.188 3 
0.467 0.173 0.188 3 
0.467 0.164 0.187 3 
0.467 0.153 0.187 3 
0.46 0.284 0.093 3 
0.468 0.144 0.187 3 
0.469 0.133 0.187 3 
0.462 0.064 0.113 3 
0.47 0.122 0.187 3 
0.467 0.213 0.189 3 
0.47 0.114 0.187 3 
0.465 0.278 0.173 3 
0.469 0.102 0.187 3 
0.47 0.094 0.187 3 
0.47 0.083 0.187 3 
0.471 0.064 0.187 3 
0.472 0.053 0.187 3 
0.472 0.042 0.187 3 
0.471 0.034 0.187 3 
0.47 0.023 0.186 3 
0.47 0.014 0.186 3 
0.466 0.303 0.192 3 
0.469 0.349 0.196 3 
0.464 0.153 0.169 3 
0.461 0.142 0.084 3 
0.469 0.342 0.196 3 
0.468 0.333 0.195 3 
0.464 0.024 0.103 3 
0.464 -0.025 0.063 3 
0.468 0.329 0.194 3 
0.469 -0.146 0.093 3 
0.467 0.324 0.194 3 
0.466 0.313 0.193 3 
0.469 0.003 0.186 3 
0.462 0.182 0.114 3 
0.467 0.294 0.192 3 
0.467 0.281 0.191 3 
0.467 0.272 0.191 3 
0.468 0.263 0.191 3 
0.468 0.254 0.191 3 
0.468 0.244 0.19 3 
0.468 0.232 0.19 3 
0.468 0.223 0.189 3 
0.465 -0.036 0.143 3 
0.476 -0.225 0.193 3 
0.475 -0.156 0.19 3 
0.466 0.34 0.182 3 
0.474 -0.164 0.19 3 
0.475 -0.168 0.191 3 
0.465 -0.065 0.074 3 
0.476 -0.177 0.191 3 
0.476 -0.186 0.192 3 
0.476 -0.195 0.192 3 
0.477 -0.205 0.193 3 
0.471 -0.125 0.174 3 
0.477 -0.217 0.193 3 
0.475 -0.147 0.19 3 
0.477 -0.235 0.194 3 
0.478 -0.245 0.195 3 
0.478 -0.251 0.194 3 
0.461 0.262 0.062 3 
0.479 -0.258 0.195 3 
0.48 -0.265 0.196 3 
0.48 -0.278 0.196 3 
0.46 0.322 0.054 3 
0.48 -0.285 0.197 3 
0.464 -0.076 0.018 3 
0.481 -0.295 0.198 3 
0.467 -0.047 0.152 3 
0.469 -0.006 0.186 3 
0.47 -0.015 0.186 3 
0.471 -0.026 0.187 3 
0.471 -0.037 0.187 3 
0.471 -0.045 0.187 3 
0.473 -0.056 0.188 3 
0.472 -0.067 0.187 3 
0.465 0.206 0.173 3 
0.474 -0.076 0.188 3 
0.465 0.134 0.163 3 
0.475 -0.082 0.189 3 
0.464 0.275 0.181 3 
0.474 -0.087 0.188 3 
0.474 -0.096 0.189 3 
0.474 -0.107 0.189 3 
0.474 -0.115 0.189 3 
0.473 -0.126 0.189 3 
0.474 -0.135 0.189 3 
0.475 -0.142 0.19 3 
0.464 0.03 0.154 3 
0.462 0.094 0.103 3 
0.478 -0.316 0.102 3 
0.475 -0.235 0.172 3 
0.473 -0.207 0.174 3 
0.474 -0.217 0.174 3 
0.483 -0.338 0.182 3 
0.483 -0.345 0.183 3 
0.462 0.342 0.172 3 
0.465 0.334 0.173 3 
0.463 0.193 0.167 3 
0.465 0.174 0.167 3 
0.474 -0.226 0.172 3 
0.475 -0.229 0.172 3 
0.462 0.064 0.092 3 
0.472 -0.195 0.173 3 
0.464 0.014 0.124 3 
0.476 -0.248 0.173 3 
0.471 -0.207 0.083 3 
0.476 -0.258 0.173 3 
0.477 -0.268 0.174 3 
0.462 0.102 0.084 3 
0.477 -0.278 0.174 3 
0.465 0.317 0.169 3 
0.462 0.209 0.164 3 
0.475 -0.318 0.044 3 
0.462 0.203 0.164 3 
0.463 0.292 0.173 3 
0.48 -0.287 0.182 3 
0.479 -0.296 0.182 3 
0.479 -0.306 0.182 3 
0.463 0.053 0.002 3 
0.481 -0.318 0.184 3 
0.469 -0.185 0.094 3 
0.482 -0.326 0.184 3 
0.463 0.319 0.174 3 
0.462 0.314 0.174 3 
0.468 -0.176 0.033 3 
0.463 0.302 0.173 3 
0.465 -0.047 0.002 3 
0.464 0.284 0.173 3 
0.461 -0.025 0.013 3 
0.464 0.274 0.173 3 
0.463 0.261 0.172 3 
0.46 0.301 0.032 3 
0.464 0.202 0.17 3 
0.46 0.282 0.043 3 
0.471 -0.157 0.172 3 
0.472 -0.177 0.173 3 
0.473 -0.187 0.173 3 
0.474 -0.247 0.169 3 
0.469 -0.047 0.164 3 
0.468 -0.055 0.163 3 
0.468 -0.066 0.164 3 
0.46 0.293 0.113 3 
0.469 -0.075 0.164 3 
0.469 -0.086 0.164 3 
0.469 -0.097 0.164 3 
0.469 -0.105 0.164 3 
0.459 0.282 0.024 3 
0.474 -0.24 0.169 3 
0.462 0.043 0.034 3 
0.468 -0.036 0.163 3 
0.479 -0.289 0.173 3 
0.478 -0.295 0.173 3 
0.478 -0.305 0.173 3 
0.461 0.339 0.143 3 
0.479 -0.316 0.174 3 
0.479 -0.326 0.174 3 
0.467 -0.165 0.023 3 
0.464 0.333 0.166 3 
0.463 0.292 0.164 3 
0.463 0.282 0.164 3 
0.471 -0.207 0.114 3 
0.466 0.074 0.163 3 
0.463 0.193 0.164 3 
0.464 0.182 0.164 3 
0.464 0.173 0.164 3 
0.464 0.164 0.163 3 
0.464 0.153 0.163 3 
0.465 0.145 0.163 3 
0.465 0.142 0.163 3 
0.466 0.123 0.163 3 
0.465 0.103 0.163 3 
0.465 0.093 0.163 3 
0.465 0.082 0.163 3 
0.47 -0.145 0.174 3 
0.465 0.063 0.163 3 
0.465 0.044 0.162 3 
0.466 0.033 0.163 3 
0.476 -0.327 0.084 3 
0.466 0.022 0.163 3 
0.466 0.014 0.163 3 
0.465 0.003 0.162 3 
0.466 -0.006 0.163 3 
0.466 -0.015 0.163 3 
0.467 -0.025 0.163 3 
0.467 0.074 0.174 3 
0.464 0.341 0.182 3 
0.465 0.003 0.154 3 
0.464 0.317 0.18 3 
0.464 0.313 0.18 3 
0.464 0.303 0.18 3 
0.463 0.252 0.177 3 
0.466 -0.066 0.122 3 
0.464 0.232 0.177 3 
0.466 0.104 0.174 3 
0.466 0.09 0.174 3 
0.466 0.082 0.174 3 
0.463 0.093 0.052 3 
0.467 0.063 0.174 3 
0.462 0.203 0.153 3 
0.467 0.044 0.174 3 
0.461 0.313 0.093 3 
0.467 0.033 0.174 3 
0.465 0.054 0.163 3 
0.467 0.022 0.174 3 
0.467 0.014 0.174 3 
0.467 0.003 0.174 3 
0.467 -0.006 0.174 3 
0.467 -0.015 0.174 3 
0.474 -0.196 0.182 3 
0.464 0.272 0.181 3 
0.465 0.266 0.181 3 
0.469 -0.226 0.052 3 
0.464 0.262 0.181 3 
0.472 -0.287 0.064 3 
0.464 0.244 0.18 3 
0.475 -0.176 0.182 3 
0.474 -0.179 0.182 3 
0.462 0.242 0.093 3 
0.475 -0.185 0.182 3 
0.474 -0.187 0.182 3 
0.474 -0.223 0.18 3 
0.475 -0.206 0.183 3 
0.463 0.073 0.124 3 
0.474 -0.208 0.183 3 
0.475 -0.215 0.183 3 
0.468 -0.176 0.074 3 
0.475 -0.227 0.184 3 
0.484 -0.325 0.191 3 
0.484 -0.336 0.192 3 
0.484 -0.347 0.193 3 
0.462 0.113 0.113 3 
0.469 -0.045 0.172 3 
0.473 -0.288 0.052 3 
0.463 0.161 0.172 3 
0.465 0.156 0.172 3 
0.466 0.143 0.172 3 
0.466 0.134 0.172 3 
0.467 0.124 0.172 3 
0.468 -0.096 0.142 3 
0.467 0.113 0.172 3 
0.466 0.052 0.171 3 
0.467 -0.025 0.171 3 
0.46 0.103 0.013 3 
0.464 0.173 0.172 3 
0.469 -0.056 0.172 3 
0.469 -0.066 0.172 3 
0.458 0.213 0.014 3 
0.469 -0.075 0.172 3 
0.47 -0.086 0.173 3 
0.47 -0.097 0.173 3 
0.471 -0.106 0.174 3 
0.46 0.241 0.104 3 
0.471 -0.117 0.174 3 
0.47 -0.136 0.174 3 
0.463 0.321 0.154 3 
0.465 0.223 0.174 3 
0.474 -0.229 0.181 3 
0.477 -0.237 0.182 3 
0.478 -0.247 0.182 3 
0.477 -0.256 0.182 3 
0.479 -0.267 0.184 3 
0.478 -0.276 0.184 3 
0.464 0.294 0.176 3 
0.462 0.251 0.174 3 
0.462 0.242 0.173 3 
0.464 0.232 0.174 3 
0.474 -0.317 0.049 3 
0.463 0.273 0.164 3 
0.464 -0.025 0.132 3 
0.464 0.22 0.174 3 
0.464 0.211 0.173 3 
0.472 -0.235 0.123 3 
0.465 0.203 0.173 3 
0.462 0.253 0.143 3 
0.465 0.194 0.173 3 
0.46 0.273 0.032 3 
0.465 0.183 0.173 3 
0.464 0.176 0.172 3 
0.461 0.172 0.044 3 
0.46 0.292 0.043 3 
0.46 0.273 0.043 3 
0.461 0.262 0.043 3 
0.465 -0.055 0.034 3 
0.459 0.222 0.022 3 
0.46 0.252 0.043 3 
0.46 0.223 0.044 3 
0.46 0.214 0.044 3 
0.461 0.203 0.044 3 
0.461 0.192 0.044 3 
0.461 0.183 0.044 3 
0.465 -0.065 0.044 3 
0.461 0.164 0.044 3 
0.461 0.153 0.044 3 
0.461 0.142 0.044 3 
0.462 0.134 0.044 3 
0.462 0.123 0.044 3 
0.462 0.112 0.044 3 
0.462 0.104 0.044 3 
0.463 0.093 0.044 3 
0.463 0.083 0.044 3 
0.463 0.072 0.044 3 
0.465 -0.055 0.044 3 
0.47 -0.266 0.052 3 
0.467 -0.117 0.052 3 
0.467 -0.125 0.052 3 
0.468 -0.137 0.052 3 
0.468 -0.156 0.052 3 
0.468 -0.165 0.052 3 
0.468 -0.176 0.052 3 
0.468 -0.185 0.052 3 
0.469 -0.197 0.052 3 
0.469 -0.217 0.052 3 
0.47 -0.236 0.052 3 
0.471 -0.246 0.052 3 
0.464 0.064 0.044 3 
0.471 -0.277 0.052 3 
0.474 -0.298 0.052 3 
0.474 -0.307 0.052 3 
0.475 -0.315 0.052 3 
0.476 -0.326 0.052 3 
0.477 -0.338 0.052 3 
0.476 -0.358 0.052 3 
0.457 0.332 0.043 3 
0.46 0.322 0.043 3 
0.46 0.312 0.043 3 
0.459 0.301 0.043 3 
0.474 -0.311 0.044 3 
0.469 -0.197 0.044 3 
0.47 -0.206 0.044 3 
0.47 -0.227 0.044 3 
0.47 -0.236 0.044 3 
0.471 -0.246 0.044 3 
0.471 -0.255 0.044 3 
0.472 -0.287 0.012 3 
0.471 -0.267 0.044 3 
0.474 -0.285 0.044 3 
0.474 -0.298 0.044 3 
0.475 -0.308 0.044 3 
0.469 -0.185 0.044 3 
0.46 0.223 0.033 3 
0.476 -0.326 0.043 3 
0.477 -0.338 0.043 3 
0.464 -0.025 0.042 3 
0.475 -0.357 0.04 3 
0.474 -0.356 0.037 3 
0.459 0.334 0.034 3 
0.46 0.322 0.034 3 
0.459 0.314 0.034 3 
0.477 -0.338 0.034 3 
0.477 -0.345 0.034 3 
0.465 -0.047 0.044 3 
0.463 0.053 0.044 3 
0.463 0.043 0.044 3 
0.463 0.032 0.044 3 
0.463 0.024 0.044 3 
0.464 0.014 0.044 3 
0.464 0.003 0.044 3 
0.465 -0.001 0.044 3 
0.465 -0.007 0.044 3 
0.464 -0.012 0.044 3 
0.465 -0.017 0.044 3 
0.465 -0.025 0.044 3 
0.468 -0.107 0.052 3 
0.465 -0.076 0.044 3 
0.466 -0.087 0.044 3 
0.467 -0.095 0.044 3 
0.468 -0.107 0.044 3 
0.467 -0.117 0.044 3 
0.467 -0.125 0.044 3 
0.468 -0.137 0.044 3 
0.468 -0.145 0.044 3 
0.468 -0.156 0.044 3 
0.469 -0.177 0.044 3 
0.469 -0.185 0.063 3 
0.466 -0.076 0.063 3 
0.467 -0.085 0.063 3 
0.467 -0.096 0.063 3 
0.466 -0.106 0.063 3 
0.467 -0.117 0.063 3 
0.477 -0.345 0.052 3 
0.467 -0.125 0.063 3 
0.468 -0.137 0.063 3 
0.469 -0.146 0.063 3 
0.468 -0.156 0.063 3 
0.469 -0.165 0.063 3 
0.461 0.164 0.033 3 
0.47 -0.195 0.063 3 
0.47 -0.206 0.064 3 
0.47 -0.227 0.064 3 
0.471 -0.237 0.064 3 
0.471 -0.246 0.064 3 
0.471 -0.255 0.064 3 
0.471 -0.267 0.064 3 
0.471 -0.276 0.064 3 
0.475 -0.308 0.064 3 
0.475 -0.315 0.064 3 
0.476 -0.326 0.064 3 
0.463 0.024 0.063 3 
0.462 0.112 0.063 3 
0.463 0.102 0.063 3 
0.463 0.094 0.063 3 
0.463 0.083 0.063 3 
0.463 0.072 0.063 3 
0.463 0.064 0.063 3 
0.464 0.054 0.063 3 
0.46 0.273 0.054 3 
0.464 0.043 0.063 3 
0.463 0.032 0.063 3 
0.477 -0.345 0.043 3 
0.478 -0.339 0.064 3 
0.464 0.014 0.063 3 
0.464 0.003 0.063 3 
0.465 -0.007 0.063 3 
0.464 -0.009 0.063 3 
0.465 -0.015 0.063 3 
0.464 -0.017 0.063 3 
0.464 -0.036 0.063 3 
0.464 -0.046 0.063 3 
0.465 -0.052 0.063 3 
0.466 -0.066 0.063 3 
0.465 -0.025 0.052 3 
0.462 0.123 0.052 3 
0.463 0.113 0.052 3 
0.463 0.083 0.052 3 
0.463 0.072 0.052 3 
0.463 0.032 0.052 3 
0.463 0.024 0.052 3 
0.463 0.014 0.052 3 
0.465 0.003 0.052 3 
0.464 0 0.052 3 
0.465 -0.012 0.052 3 
0.465 -0.015 0.052 3 
0.462 0.134 0.052 3 
0.458 0.281 0.013 3 
0.464 -0.028 0.052 3 
0.465 -0.076 0.007 3 
0.464 -0.036 0.052 3 
0.465 -0.039 0.052 3 
0.465 -0.047 0.052 3 
0.465 -0.055 0.052 3 
0.465 -0.065 0.052 3 
0.465 -0.076 0.052 3 
0.465 -0.087 0.052 3 
0.466 -0.095 0.052 3 
0.461 0.244 0.054 3 
0.478 -0.346 0.064 3 
0.468 -0.165 0.044 3 
0.477 -0.355 0.064 3 
0.461 0.153 0.052 3 
0.474 -0.307 0.061 3 
0.465 -0.028 0.058 3 
0.459 0.304 0.054 3 
0.459 0.292 0.054 3 
0.46 0.282 0.054 3 
0.461 0.262 0.054 3 
0.461 0.253 0.054 3 
0.474 -0.318 0.023 3 
0.46 0.234 0.054 3 
0.46 0.223 0.054 3 
0.461 0.212 0.054 3 
0.462 0.204 0.054 3 
0.462 0.193 0.054 3 
0.465 -0.001 0.055 3 
0.465 -0.036 0.055 3 
0.461 0.172 0.052 3 
0.461 0.164 0.052 3 
0.461 0.142 0.052 3 
0.476 -0.348 0.014 3 
0.467 -0.176 0.022 3 
0.468 -0.185 0.022 3 
0.469 -0.197 0.022 3 
0.468 -0.205 0.022 3 
0.469 -0.215 0.022 3 
0.474 -0.352 0.017 3 
0.457 0.332 0.014 3 
0.464 -0.095 0.018 3 
0.474 -0.321 0.014 3 
0.475 -0.326 0.014 3 
0.476 -0.337 0.014 3 
0.467 -0.156 0.023 3 
0.474 -0.349 0.014 3 
0.459 0.323 0.012 3 
0.458 0.303 0.012 3 
0.458 0.293 0.013 3 
0.458 0.263 0.013 3 
0.459 0.254 0.013 3 
0.458 0.233 0.014 3 
0.458 0.224 0.014 3 
0.459 0.202 0.014 3 
0.459 0.194 0.014 3 
0.459 0.182 0.014 3 
0.463 -0.046 0.023 3 
0.462 0.082 0.023 3 
0.462 0.074 0.023 3 
0.461 0.064 0.023 3 
0.461 0.053 0.023 3 
0.462 0.043 0.023 3 
0.462 0.032 0.023 3 
0.462 0.024 0.023 3 
0.462 0.003 0.023 3 
0.463 -0.007 0.023 3 
0.464 -0.025 0.023 3 
0.463 -0.036 0.023 3 
0.459 0.174 0.014 3 
0.464 -0.057 0.023 3 
0.464 -0.065 0.023 3 
0.465 -0.076 0.023 3 
0.465 -0.087 0.023 3 
0.465 -0.095 0.023 3 
0.466 -0.106 0.023 3 
0.466 -0.117 0.023 3 
0.466 -0.125 0.023 3 
0.466 -0.136 0.023 3 
0.467 -0.145 0.023 3 
0.466 -0.156 0.012 3 
0.461 0.013 0.013 3 
0.461 0.003 0.013 3 
0.461 -0.046 0.013 3 
0.462 -0.065 0.013 3 
0.464 -0.076 0.013 3 
0.463 -0.086 0.013 3 
0.463 -0.097 0.013 3 
0.464 -0.105 0.012 3 
0.464 -0.116 0.012 3 
0.465 -0.128 0.012 3 
0.465 -0.136 0.012 3 
0.461 0.024 0.013 3 
0.465 -0.119 0.01 3 
0.46 0.122 0.004 3 
0.463 0.043 0.004 3 
0.465 -0.068 0.004 3 
0.465 -0.117 0.004 3 
0.466 -0.136 0.004 3 
0.464 0.072 0.001 3 
0.464 0.064 0.002 3 
0.463 0.024 0.002 3 
0.464 -0.039 0.002 3 
0.465 -0.055 0.002 3 
0.472 -0.306 0.012 3 
0.467 -0.151 0.014 3 
0.466 -0.17 0.014 3 
0.466 -0.175 0.014 3 
0.468 -0.197 0.014 3 
0.468 -0.217 0.014 3 
0.469 -0.227 0.014 3 
0.47 -0.236 0.013 3 
0.471 -0.246 0.013 3 
0.472 -0.255 0.013 3 
0.471 -0.267 0.013 3 
0.472 -0.277 0.013 3 
0.462 0.093 0.023 3 
0.459 0.152 0.012 3 
0.46 0.133 0.012 3 
0.459 0.114 0.013 3 
0.46 0.093 0.013 3 
0.461 0.082 0.013 3 
0.46 0.074 0.013 3 
0.46 0.063 0.013 3 
0.461 0.053 0.013 3 
0.461 0.042 0.013 3 
0.461 0.032 0.013 3 
0.467 -0.095 0.034 3 
0.463 0.024 0.034 3 
0.463 0.014 0.034 3 
0.463 0.003 0.034 3 
0.464 -0.007 0.034 3 
0.465 -0.012 0.034 3 
0.465 -0.015 0.034 3 
0.464 -0.017 0.034 3 
0.465 -0.025 0.034 3 
0.465 -0.036 0.034 3 
0.465 -0.076 0.034 3 
0.466 -0.087 0.034 3 
0.462 0.032 0.034 3 
0.468 -0.107 0.034 3 
0.466 -0.125 0.004 3 
0.467 -0.117 0.034 3 
0.46 0.122 0.012 3 
0.467 -0.125 0.034 3 
0.468 -0.137 0.033 3 
0.468 -0.145 0.033 3 
0.468 -0.157 0.033 3 
0.468 -0.185 0.033 3 
0.468 -0.196 0.033 3 
0.469 -0.206 0.033 3 
0.461 0.172 0.033 3 
0.474 -0.356 0.034 3 
0.46 0.335 0.031 3 
0.46 0.292 0.032 3 
0.461 0.283 0.032 3 
0.46 0.264 0.032 3 
0.46 0.252 0.032 3 
0.46 0.243 0.032 3 
0.46 0.234 0.033 3 
0.461 0.212 0.033 3 
0.46 0.194 0.033 3 
0.461 0.184 0.033 3 
0.47 -0.215 0.033 3 
0.461 0.142 0.033 3 
0.461 0.134 0.033 3 
0.462 0.123 0.033 3 
0.463 0.112 0.033 3 
0.463 0.104 0.033 3 
0.463 0.093 0.033 3 
0.463 0.083 0.034 3 
0.463 0.072 0.034 3 
0.462 0.064 0.034 3 
0.463 0.053 0.034 3 
0.474 -0.356 0.023 3 
0.471 -0.231 0.024 3 
0.471 -0.255 0.024 3 
0.471 -0.267 0.024 3 
0.472 -0.277 0.024 3 
0.473 -0.287 0.024 3 
0.473 -0.297 0.024 3 
0.473 -0.307 0.023 3 
0.475 -0.322 0.023 3 
0.475 -0.325 0.023 3 
0.475 -0.336 0.023 3 
0.476 -0.347 0.023 3 
0.464 -0.065 0.026 3 
0.46 0.203 0.022 3 
0.459 0.182 0.022 3 
0.46 0.172 0.022 3 
0.46 0.163 0.022 3 
0.462 0.014 0.023 3 
0.46 0.152 0.023 3 
0.46 0.144 0.023 3 
0.461 0.134 0.023 3 
0.462 0.123 0.023 3 
0.461 0.112 0.023 3 
0.462 0.104 0.023 3 
0.464 -0.046 0.031 3 
0.471 -0.225 0.033 3 
0.471 -0.237 0.033 3 
0.471 -0.255 0.033 3 
0.471 -0.267 0.033 3 
0.473 -0.278 0.032 3 
0.473 -0.287 0.032 3 
0.473 -0.297 0.032 3 
0.475 -0.312 0.032 3 
0.475 -0.325 0.032 3 
0.464 -0.025 0.031 3 
0.464 -0.041 0.031 3 
0.462 0.123 0.063 3 
0.459 0.334 0.023 3 
0.459 0.324 0.023 3 
0.46 0.314 0.023 3 
0.459 0.304 0.023 3 
0.459 0.294 0.024 3 
0.459 0.272 0.024 3 
0.459 0.263 0.024 3 
0.459 0.254 0.024 3 
0.459 0.242 0.024 3 
0.459 0.234 0.024 3 
0.469 -0.165 0.104 3 
0.466 -0.066 0.103 3 
0.466 -0.076 0.103 3 
0.466 -0.087 0.103 3 
0.46 0.234 0.043 3 
0.467 -0.096 0.104 3 
0.467 -0.115 0.104 3 
0.467 -0.126 0.104 3 
0.468 -0.137 0.104 3 
0.471 -0.237 0.024 3 
0.468 -0.146 0.104 3 
0.469 -0.157 0.104 3 
0.465 -0.055 0.103 3 
0.46 0.336 0.102 3 
0.459 0.331 0.102 3 
0.461 0.323 0.102 3 
0.461 0.31 0.102 3 
0.464 -0.017 0.1 3 
0.47 -0.175 0.102 3 
0.469 -0.185 0.102 3 
0.47 -0.195 0.102 3 
0.47 -0.206 0.102 3 
0.471 -0.216 0.103 3 
0.471 -0.225 0.103 3 
0.47 -0.206 0.052 3 
0.462 0.154 0.103 3 
0.462 0.143 0.103 3 
0.462 0.134 0.103 3 
0.462 0.123 0.103 3 
0.462 0.113 0.103 3 
0.463 0.102 0.103 3 
0.463 0.083 0.103 3 
0.463 0.072 0.103 3 
0.462 0.064 0.103 3 
0.462 0.054 0.103 3 
0.462 0.043 0.103 3 
0.472 -0.238 0.103 3 
0.463 0.032 0.103 3 
0.463 0.014 0.103 3 
0.464 0.003 0.103 3 
0.464 -0.006 0.103 3 
0.465 -0.014 0.103 3 
0.462 0.193 0.084 3 
0.465 -0.017 0.103 3 
0.464 0.054 0.052 3 
0.465 -0.025 0.103 3 
0.465 -0.036 0.103 3 
0.465 -0.047 0.103 3 
0.462 0.094 0.092 3 
0.462 0.184 0.092 3 
0.462 0.173 0.092 3 
0.464 0.064 0.052 3 
0.461 0.161 0.092 3 
0.462 0.154 0.092 3 
0.462 0.143 0.092 3 
0.461 0.134 0.092 3 
0.461 0.123 0.092 3 
0.472 -0.256 0.083 3 
0.463 0.113 0.092 3 
0.462 0.102 0.092 3 
0.462 0.193 0.092 3 
0.462 0.083 0.092 3 
0.463 0.072 0.092 3 
0.462 0.054 0.092 3 
0.464 0.043 0.092 3 
0.463 0.032 0.092 3 
0.463 0.102 0.052 3 
0.463 0.024 0.092 3 
0.464 0.014 0.092 3 
0.464 0.003 0.092 3 
0.464 -0.017 0.092 3 
0.465 -0.022 0.092 3 
0.478 -0.357 0.103 3 
0.472 -0.247 0.103 3 
0.472 -0.256 0.103 3 
0.472 -0.265 0.103 3 
0.473 -0.279 0.104 3 
0.474 -0.286 0.104 3 
0.475 -0.29 0.104 3 
0.475 -0.296 0.104 3 
0.476 -0.307 0.102 3 
0.478 -0.326 0.102 3 
0.478 -0.337 0.103 3 
0.479 -0.345 0.103 3 
0.462 0.162 0.103 3 
0.458 0.333 0.093 3 
0.46 0.322 0.093 3 
0.461 -0.017 0.013 3 
0.46 0.303 0.093 3 
0.462 0.213 0.092 3 
0.46 0.274 0.093 3 
0.46 0.262 0.093 3 
0.461 0.254 0.093 3 
0.462 0.233 0.093 3 
0.462 0.224 0.093 3 
0.466 -0.066 0.114 3 
0.463 0.014 0.113 3 
0.461 0.262 0.073 3 
0.463 0.003 0.113 3 
0.46 0.164 0.014 3 
0.464 -0.006 0.113 3 
0.465 -0.017 0.114 3 
0.465 -0.025 0.114 3 
0.464 -0.036 0.114 3 
0.465 -0.039 0.114 3 
0.465 -0.047 0.114 3 
0.465 -0.055 0.114 3 
0.461 -0.057 0.013 3 
0.466 -0.076 0.114 3 
0.467 -0.085 0.114 3 
0.465 -0.065 0.034 3 
0.459 0.335 0.113 3 
0.46 0.333 0.113 3 
0.461 0.314 0.113 3 
0.46 0.284 0.112 3 
0.461 0.273 0.112 3 
0.461 0.263 0.112 3 
0.461 0.254 0.112 3 
0.467 -0.096 0.112 3 
0.463 0.102 0.114 3 
0.46 0.233 0.114 3 
0.46 0.224 0.114 3 
0.462 0.213 0.114 3 
0.462 0.202 0.114 3 
0.462 0.193 0.114 3 
0.463 0.174 0.114 3 
0.462 0.162 0.114 3 
0.462 0.154 0.114 3 
0.463 0.143 0.114 3 
0.463 0.132 0.114 3 
0.463 0.124 0.114 3 
0.467 -0.107 0.112 3 
0.463 0.094 0.114 3 
0.462 0.083 0.113 3 
0.462 0.072 0.113 3 
0.462 0.054 0.113 3 
0.462 0.043 0.113 3 
0.468 -0.176 0.063 3 
0.459 0.213 0.022 3 
0.462 0.032 0.113 3 
0.463 0.024 0.113 3 
0.473 -0.297 0.064 3 
0.461 0.263 0.104 3 
0.472 -0.246 0.083 3 
0.465 -0.014 0.106 3 
0.475 -0.284 0.11 3 
0.476 -0.288 0.11 3 
0.479 -0.345 0.112 3 
0.471 -0.246 0.024 3 
0.478 -0.355 0.112 3 
0.46 0.3 0.104 3 
0.461 0.294 0.104 3 
0.46 0.284 0.104 3 
0.459 0.334 0.082 3 
0.477 -0.325 0.114 3 
0.461 0.254 0.104 3 
0.46 0.322 0.082 3 
0.461 0.233 0.103 3 
0.457 0.271 0.013 3 
0.462 0.222 0.103 3 
0.462 0.213 0.103 3 
0.462 0.204 0.103 3 
0.461 0.192 0.103 3 
0.478 -0.325 0.073 3 
0.461 0.184 0.103 3 
0.462 0.173 0.103 3 
0.472 -0.235 0.114 3 
0.467 -0.115 0.112 3 
0.468 -0.126 0.112 3 
0.468 -0.135 0.112 3 
0.47 -0.186 0.113 3 
0.468 -0.146 0.112 3 
0.468 -0.157 0.113 3 
0.469 -0.166 0.113 3 
0.47 -0.175 0.113 3 
0.47 -0.195 0.113 3 
0.471 -0.216 0.114 3 
0.472 -0.226 0.114 3 
0.465 -0.025 0.092 3 
0.472 -0.247 0.114 3 
0.474 -0.286 0.116 3 
0.464 -0.033 0.108 3 
0.472 -0.256 0.112 3 
0.472 -0.265 0.112 3 
0.473 -0.276 0.112 3 
0.474 -0.286 0.113 3 
0.475 -0.297 0.113 3 
0.477 -0.308 0.114 3 
0.478 -0.316 0.114 3 
0.463 0.053 0.073 3 
0.461 0.203 0.073 3 
0.461 0.192 0.073 3 
0.461 0.184 0.073 3 
0.462 0.173 0.073 3 
0.461 0.161 0.073 3 
0.462 0.153 0.073 3 
0.462 0.142 0.073 3 
0.462 0.123 0.073 3 
0.462 0.112 0.073 3 
0.462 0.104 0.073 3 
0.463 0.094 0.073 3 
0.461 0.212 0.073 3 
0.463 0.043 0.073 3 
0.463 0.032 0.073 3 
0.463 0.024 0.073 3 
0.464 0.014 0.074 3 
0.464 0.003 0.074 3 
0.474 -0.308 0.032 3 
0.465 -0.004 0.074 3 
0.465 -0.007 0.074 3 
0.464 -0.009 0.074 3 
0.464 -0.025 0.074 3 
0.463 -0.036 0.074 3 
0.459 0.334 0.074 3 
0.471 -0.237 0.083 3 
0.472 -0.268 0.084 3 
0.458 0.143 0.012 3 
0.473 -0.285 0.084 3 
0.474 -0.295 0.084 3 
0.475 -0.303 0.084 3 
0.476 -0.317 0.084 3 
0.477 -0.338 0.082 3 
0.478 -0.346 0.082 3 
0.477 -0.355 0.082 3 
0.465 0.006 0.076 3 
0.464 -0.046 0.074 3 
0.46 0.322 0.074 3 
0.46 0.312 0.074 3 
0.46 0.302 0.074 3 
0.46 0.293 0.074 3 
0.461 0.284 0.074 3 
0.461 0.272 0.074 3 
0.461 0.253 0.073 3 
0.461 0.244 0.073 3 
0.461 0.232 0.073 3 
0.461 0.223 0.073 3 
0.46 0.283 0.062 3 
0.473 -0.297 0.072 3 
0.474 -0.305 0.073 3 
0.475 -0.309 0.073 3 
0.478 -0.335 0.073 3 
0.478 -0.346 0.073 3 
0.477 -0.355 0.073 3 
0.465 -0.015 0.066 3 
0.461 0.323 0.062 3 
0.459 0.314 0.062 3 
0.46 0.302 0.062 3 
0.46 0.293 0.062 3 
0.472 -0.287 0.072 3 
0.461 0.253 0.062 3 
0.461 0.223 0.063 3 
0.461 0.203 0.063 3 
0.46 0.191 0.063 3 
0.461 0.183 0.063 3 
0.464 -0.057 0.031 3 
0.461 0.172 0.063 3 
0.461 -0.036 0.013 3 
0.461 0.164 0.063 3 
0.462 0.142 0.063 3 
0.462 0.131 0.063 3 
0.469 -0.185 0.074 3 
0.465 -0.049 0.074 3 
0.465 -0.055 0.074 3 
0.466 -0.087 0.074 3 
0.466 -0.095 0.074 3 
0.466 -0.106 0.074 3 
0.465 -0.117 0.074 3 
0.467 -0.125 0.074 3 
0.468 -0.137 0.074 3 
0.468 -0.145 0.074 3 
0.469 -0.157 0.074 3 
0.468 -0.165 0.074 3 
0.471 -0.225 0.083 3 
0.47 -0.195 0.072 3 
0.47 -0.206 0.072 3 
0.47 -0.215 0.072 3 
0.47 -0.227 0.072 3 
0.471 -0.237 0.072 3 
0.472 -0.246 0.072 3 
0.464 -0.105 0.015 3 
0.471 -0.255 0.072 3 
0.472 -0.265 0.072 3 
0.472 -0.277 0.072 3 
0.46 0.262 0.084 3 
0.472 -0.265 0.092 3 
0.471 -0.277 0.092 3 
0.474 -0.295 0.093 3 
0.475 -0.3 0.093 3 
0.475 -0.306 0.093 3 
0.477 -0.318 0.093 3 
0.477 -0.325 0.093 3 
0.478 -0.336 0.094 3 
0.479 -0.347 0.094 3 
0.477 -0.355 0.094 3 
0.465 0.011 0.087 3 
0.459 0.314 0.054 3 
0.461 0.253 0.084 3 
0.461 0.244 0.084 3 
0.461 0.232 0.084 3 
0.461 0.224 0.084 3 
0.461 0.212 0.084 3 
0.462 0.204 0.084 3 
0.462 0.184 0.084 3 
0.462 0.173 0.084 3 
0.458 0.333 0.054 3 
0.461 0.164 0.084 3 
0.461 0.153 0.084 3 
0.469 -0.157 0.093 3 
0.465 -0.036 0.092 3 
0.465 -0.047 0.092 3 
0.466 -0.055 0.093 3 
0.466 -0.066 0.093 3 
0.466 -0.076 0.093 3 
0.466 -0.087 0.093 3 
0.467 -0.096 0.093 3 
0.467 -0.107 0.093 3 
0.467 -0.118 0.093 3 
0.467 -0.126 0.093 3 
0.459 0.194 0.022 3 
0.462 0.134 0.084 3 
0.468 -0.165 0.093 3 
0.461 0.133 0.004 3 
0.469 -0.177 0.094 3 
0.47 -0.195 0.094 3 
0.47 -0.206 0.094 3 
0.47 -0.215 0.094 3 
0.471 -0.225 0.094 3 
0.471 -0.237 0.094 3 
0.464 -0.025 0.09 3 
0.472 -0.256 0.092 3 
0.466 -0.117 0.082 3 
0.46 0.312 0.082 3 
0.46 0.293 0.082 3 
0.46 0.283 0.082 3 
0.461 0.272 0.082 3 
0.464 -0.046 0.082 3 
0.461 0.212 0.063 3 
0.465 -0.076 0.082 3 
0.466 -0.087 0.082 3 
0.466 -0.095 0.082 3 
0.466 -0.106 0.082 3 
0.463 -0.015 0.023 3 
0.465 -0.065 0.084 3 
0.466 -0.125 0.082 3 
0.462 0.153 0.063 3 
0.467 -0.136 0.082 3 
0.468 -0.145 0.082 3 
0.468 -0.156 0.082 3 
0.464 -0.015 0.044 3 
0.468 -0.165 0.082 3 
0.468 -0.176 0.083 3 
0.469 -0.185 0.083 3 
0.47 -0.195 0.083 3 
0.47 -0.215 0.083 3 
0.464 0.003 0.084 3 
0.462 0.123 0.084 3 
0.462 0.112 0.084 3 
0.462 0.094 0.084 3 
0.462 0.083 0.084 3 
0.463 0.072 0.084 3 
0.462 0.064 0.084 3 
0.463 0.053 0.084 3 
0.463 0.043 0.084 3 
0.462 0.032 0.084 3 
0.463 0.024 0.084 3 
0.464 0.014 0.084 3 
0.46 0.239 0.114 3 
0.465 0 0.084 3 
0.464 -0.006 0.084 3 
0.476 -0.316 0.073 3 
0.464 -0.017 0.084 3 
0.464 -0.025 0.084 3 
0.464 0.032 0.002 3 
0.464 -0.036 0.084 3 
0.465 -0.041 0.084 3 
0.465 -0.047 0.084 3 
0.465 -0.06 0.084 3 
0.305 0.002 0.02 7 
0.299 0.002 0.02 7 
0.304 -0.012 0.02 7 
0.305 -0.005 0.02 7 
0.344 -0.015 0.014 7 
0.33 -0.015 0.016 7 
