# .PCD v0.7 - Point Cloud Data file
FIELDS x y z intensity
SIZE 4 4 4 4
TYPE F F F F
COUNT 1 1 1 1
WIDTH 2446
HEIGHT 1
VIEWPOINT 0 0 0 1 0 0 0
POINTS 2446
DATA ascii
0.513 -0.005 0.045 0 
0.53 -0.015 0.09 0 
0.52 -0.008 0.048 0 
0.424 0.045 0.143 0 
0.426 0.045 0.142 0 
0.428 -0.036 0.065 0 
0.433 -0.034 0.065 0 
0.341 0.017 0.004 0 
0.34 0.012 0.004 0 
0.341 0.003 0.004 0 
0.374 -0.238 -0.026 1 
0.375 -0.209 -0.025 1 
0.373 -0.196 -0.023 1 
0.364 -0.115 -0.017 1 
0.364 -0.109 -0.017 1 
0.361 -0.086 -0.015 1 
0.36 -0.057 -0.015 1 
0.351 -0.016 -0.011 1 
0.353 0.034 -0.012 1 
0.353 0.044 -0.012 1 
0.356 0.083 -0.014 1 
0.351 0.114 -0.013 1 
0.35 0.124 -0.013 1 
0.351 0.132 -0.014 1 
0.35 0.163 -0.015 1 
0.343 0.205 -0.015 1 
0.375 -0.244 -0.024 1 
0.382 -0.247 -0.027 1 
0.381 -0.226 -0.025 1 
0.374 -0.186 -0.021 1 
0.374 -0.178 -0.021 1 
0.372 -0.145 -0.019 1 
0.371 -0.136 -0.018 1 
0.37 -0.126 -0.018 1 
0.369 -0.116 -0.017 1 
0.362 -0.055 -0.014 1 
0.364 -0.036 -0.014 1 
0.36 -0.025 -0.013 1 
0.358 0.043 -0.013 1 
0.36 0.054 -0.013 1 
0.362 0.064 -0.014 1 
0.362 0.069 -0.014 1 
0.363 0.073 -0.015 1 
0.362 0.084 -0.015 1 
0.361 0.085 -0.014 1 
0.362 0.093 -0.015 1 
0.359 0.122 -0.015 1 
0.356 0.133 -0.014 1 
0.352 0.169 -0.014 1 
0.353 0.174 -0.015 1 
0.353 0.184 -0.015 1 
0.393 -0.265 -0.029 1 
0.393 -0.257 -0.029 1 
0.387 -0.232 -0.025 1 
0.382 -0.156 -0.021 1 
0.373 -0.096 -0.016 1 
0.373 -0.085 -0.016 1 
0.374 -0.082 -0.016 1 
0.37 -0.063 -0.015 1 
0.354 -0.006 -0.009 1 
0.342 0.014 -0.005 1 
0.343 0.016 -0.005 1 
0.352 0.02 -0.008 1 
0.364 0.03 -0.013 1 
0.363 0.134 -0.015 1 
0.364 0.151 -0.015 1 
0.357 0.184 -0.015 1 
0.358 0.193 -0.016 1 
0.354 0.212 -0.015 1 
0.353 0.216 -0.015 1 
0.383 -0.205 -0.021 1 
0.384 -0.195 -0.021 1 
0.381 -0.126 -0.018 1 
0.382 -0.115 -0.018 1 
0.373 -0.045 -0.014 1 
0.373 -0.036 -0.014 1 
0.369 -0.025 -0.013 1 
0.364 -0.015 -0.011 1 
0.373 0.084 -0.015 1 
0.372 0.094 -0.015 1 
0.373 0.104 -0.015 1 
0.371 0.124 -0.015 1 
0.369 0.133 -0.015 1 
0.402 -0.256 -0.027 1 
0.394 -0.237 -0.023 1 
0.394 -0.225 -0.023 1 
0.394 -0.222 -0.023 1 
0.393 -0.208 -0.022 1 
0.383 -0.095 -0.016 1 
0.384 -0.091 -0.016 1 
0.384 -0.075 -0.016 1 
0.381 -0.069 -0.015 1 
0.38 -0.066 -0.014 1 
0.38 -0.064 -0.014 1 
0.383 -0.055 -0.015 1 
0.381 -0.049 -0.015 1 
0.378 -0.045 -0.014 1 
0.379 -0.035 -0.014 1 
0.381 -0.03 -0.015 1 
0.375 -0.025 -0.013 1 
0.345 0.018 -0.003 1 
0.359 0.021 -0.007 1 
0.373 0.043 -0.012 1 
0.374 0.049 -0.013 1 
0.38 0.113 -0.016 1 
0.361 0.101 -0.015 1 
0.374 0.122 -0.014 1 
0.374 0.138 -0.015 1 
0.373 0.143 -0.014 1 
0.373 0.145 -0.014 1 
0.375 0.153 -0.015 1 
0.372 0.183 -0.016 1 
0.366 0.214 -0.015 1 
0.365 0.218 -0.015 1 
0.364 0.221 -0.015 1 
0.366 0.23 -0.016 1 
0.402 -0.275 -0.026 1 
0.393 -0.175 -0.019 1 
0.394 -0.167 -0.019 1 
0.393 -0.155 -0.018 1 
0.394 -0.125 -0.018 1 
0.394 -0.121 -0.018 1 
0.393 -0.106 -0.017 1 
0.391 -0.076 -0.016 1 
0.374 -0.016 -0.011 1 
0.369 -0.006 -0.009 1 
0.356 -0.001 -0.005 1 
0.346 0 -0.001 1 
0.374 0.03 -0.011 1 
0.381 0.054 -0.013 1 
0.382 0.072 -0.014 1 
0.383 0.075 -0.014 1 
0.385 0.079 -0.015 1 
0.384 0.083 -0.015 1 
0.383 0.099 -0.015 1 
0.382 0.122 -0.015 1 
0.38 0.14 -0.015 1 
0.377 0.144 -0.014 1 
0.381 0.161 -0.016 1 
0.375 0.174 -0.014 1 
0.408 -0.276 -0.025 1 
0.41 -0.267 -0.025 1 
0.413 -0.257 -0.025 1 
0.412 -0.245 -0.025 1 
0.382 -0.215 -0.023 1 
0.403 -0.226 -0.021 1 
0.401 -0.215 -0.02 1 
0.403 -0.207 -0.021 1 
0.403 -0.195 -0.02 1 
0.401 -0.145 -0.018 1 
0.399 -0.135 -0.018 1 
0.401 -0.116 -0.018 1 
0.397 -0.105 -0.016 1 
0.393 -0.066 -0.015 1 
0.394 -0.056 -0.015 1 
0.393 -0.05 -0.015 1 
0.392 -0.045 -0.014 1 
0.393 -0.038 -0.014 1 
0.394 -0.027 -0.015 1 
0.39 -0.025 -0.014 1 
0.387 -0.023 -0.013 1 
0.381 -0.016 -0.011 1 
0.373 -0.003 -0.008 1 
0.381 0.033 -0.011 1 
0.384 0.039 -0.012 1 
0.388 0.093 -0.014 1 
0.389 0.103 -0.015 1 
0.391 0.113 -0.015 1 
0.381 0.153 -0.013 1 
0.384 0.159 -0.014 1 
0.381 0.179 -0.014 1 
0.374 0.15 -0.015 1 
0.383 0.234 -0.017 1 
0.377 0.243 -0.016 1 
0.413 -0.288 -0.025 1 
0.413 -0.276 -0.024 1 
0.413 -0.235 -0.022 1 
0.412 -0.226 -0.022 1 
0.404 -0.186 -0.018 1 
0.404 -0.184 -0.018 1 
0.404 -0.167 -0.018 1 
0.402 -0.095 -0.016 1 
0.403 -0.076 -0.016 1 
0.4 -0.068 -0.015 1 
0.399 -0.066 -0.014 1 
0.399 -0.064 -0.014 1 
0.402 -0.056 -0.015 1 
0.399 -0.043 -0.014 1 
0.401 -0.035 -0.015 1 
0.4 -0.026 -0.015 1 
0.394 0.064 -0.013 1 
0.396 -0.242 -0.027 1 
0.394 0.074 -0.014 1 
0.394 0.08 -0.014 1 
0.395 0.112 -0.015 1 
0.394 0.123 -0.014 1 
0.394 0.125 -0.014 1 
0.395 0.13 -0.015 1 
0.394 0.133 -0.015 1 
0.394 0.14 -0.015 1 
0.389 0.154 -0.014 1 
0.389 0.161 -0.014 1 
0.391 0.164 -0.015 1 
0.388 0.183 -0.015 1 
0.387 0.202 -0.015 1 
0.384 0.25 -0.016 1 
0.425 -0.302 -0.026 1 
0.423 -0.29 -0.025 1 
0.422 -0.277 -0.024 1 
0.423 -0.267 -0.024 1 
0.422 -0.257 -0.023 1 
0.363 -0.006 -0.009 1 
0.411 -0.216 -0.019 1 
0.411 -0.206 -0.019 1 
0.411 -0.165 -0.017 1 
0.411 -0.146 -0.017 1 
0.354 0.189 -0.016 1 
0.412 -0.135 -0.017 1 
0.394 -0.245 -0.028 1 
0.414 -0.115 -0.017 1 
0.41 -0.105 -0.016 1 
0.41 -0.096 -0.016 1 
0.411 -0.085 -0.016 1 
0.409 -0.075 -0.015 1 
0.404 -0.025 -0.014 1 
0.403 -0.018 -0.014 1 
0.404 -0.005 -0.014 1 
0.366 -0.001 -0.002 1 
0.4 0.053 -0.013 1 
0.402 0.072 -0.014 1 
0.369 -0.106 -0.017 1 
0.401 0.124 -0.014 1 
0.399 0.154 -0.015 1 
0.398 0.162 -0.015 1 
0.394 0.192 -0.015 1 
0.392 0.193 -0.014 1 
0.391 0.204 -0.014 1 
0.393 0.222 -0.015 1 
0.392 0.244 -0.016 1 
0.389 0.253 -0.016 1 
0.424 -0.237 -0.021 1 
0.418 -0.227 -0.019 1 
0.414 -0.196 -0.017 1 
0.414 -0.052 -0.015 1 
0.413 -0.045 -0.014 1 
0.415 -0.03 -0.015 1 
0.413 -0.025 -0.014 1 
0.412 -0.003 -0.014 1 
0.404 0.032 -0.012 1 
0.407 0.054 -0.013 1 
0.409 0.063 -0.014 1 
0.409 0.122 -0.015 1 
0.404 0.144 -0.014 1 
0.404 0.153 -0.014 1 
0.403 0.164 -0.014 1 
0.404 0.17 -0.015 1 
0.402 0.18 -0.014 1 
0.403 0.183 -0.015 1 
0.402 0.194 -0.015 1 
0.402 0.223 -0.016 1 
0.402 0.233 -0.016 1 
0.401 0.24 -0.016 1 
0.393 0.258 -0.015 1 
0.431 -0.305 -0.023 1 
0.431 -0.287 -0.022 1 
0.43 -0.277 -0.021 1 
0.43 -0.257 -0.02 1 
0.424 -0.224 -0.018 1 
0.422 -0.155 -0.016 1 
0.394 0.214 -0.015 1 
0.424 -0.125 -0.016 1 
0.423 -0.108 -0.015 1 
0.424 -0.101 -0.016 1 
0.424 -0.085 -0.015 1 
0.424 -0.082 -0.015 1 
0.423 -0.066 -0.015 1 
0.421 -0.056 -0.014 1 
0.42 -0.047 -0.014 1 
0.384 -0.186 -0.02 1 
0.394 -0.145 -0.018 1 
0.401 0.104 -0.014 1 
0.42 -0.035 -0.014 1 
0.418 -0.026 -0.014 1 
0.42 -0.015 -0.014 1 
0.414 0.042 -0.013 1 
0.414 0.078 -0.013 1 
0.414 0.085 -0.013 1 
0.414 0.115 -0.014 1 
0.407 0.134 -0.012 1 
0.408 0.144 -0.012 1 
0.41 0.154 -0.013 1 
0.413 0.183 -0.015 1 
0.402 0.211 -0.013 1 
0.404 0.215 -0.014 1 
0.402 -0.235 -0.024 1 
0.408 0.224 -0.015 1 
0.4 0.263 -0.015 1 
0.399 0.264 -0.014 1 
0.399 0.267 -0.015 1 
0.433 -0.245 -0.018 1 
0.434 -0.238 -0.018 1 
0.433 -0.226 -0.018 1 
0.434 -0.217 -0.018 1 
0.433 -0.206 -0.017 1 
0.433 -0.198 -0.017 1 
0.431 -0.186 -0.016 1 
0.431 -0.176 -0.016 1 
0.402 -0.251 -0.027 1 
0.429 -0.157 -0.015 1 
0.429 -0.147 -0.015 1 
0.43 -0.106 -0.015 1 
0.43 -0.079 -0.015 1 
0.43 -0.07 -0.015 1 
0.452 -0.004 -0.021 1 
0.413 0.027 -0.01 1 
0.423 0.062 -0.013 1 
0.422 0.074 -0.013 1 
0.421 0.123 -0.013 1 
0.412 0.163 -0.012 1 
0.414 0.184 -0.013 1 
0.415 0.241 -0.015 1 
0.414 0.242 -0.015 1 
0.412 0.254 -0.015 1 
0.41 0.263 -0.015 1 
0.409 0.273 -0.015 1 
0.408 0.277 -0.015 1 
0.435 -0.165 -0.015 1 
0.435 -0.158 -0.015 1 
0.434 -0.147 -0.014 1 
0.434 -0.14 -0.014 1 
0.434 -0.125 -0.014 1 
0.434 -0.105 -0.014 1 
0.434 -0.095 -0.013 1 
0.434 -0.085 -0.013 1 
0.434 -0.083 -0.013 1 
0.433 -0.054 -0.013 1 
0.424 0.091 -0.011 1 
0.424 0.098 -0.011 1 
0.422 0.154 -0.012 1 
0.42 0.164 -0.012 1 
0.419 0.183 -0.012 1 
0.421 0.194 -0.013 1 
0.414 0.214 -0.012 1 
0.414 0.272 -0.014 1 
0.38 0.123 -0.014 1 
0.413 0.283 -0.014 1 
0.444 -0.297 -0.018 1 
0.442 -0.277 -0.016 1 
0.443 -0.235 -0.015 1 
0.441 -0.217 -0.015 1 
0.441 -0.209 -0.015 1 
0.443 -0.192 -0.015 1 
0.442 -0.186 -0.014 1 
0.44 -0.176 -0.014 1 
0.438 -0.165 -0.013 1 
0.44 -0.155 -0.013 1 
0.44 -0.145 -0.013 1 
0.441 -0.135 -0.013 1 
0.438 -0.116 -0.012 1 
0.439 -0.107 -0.012 1 
0.437 -0.096 -0.012 1 
0.419 0.084 -0.012 1 
0.436 -0.086 -0.011 1 
0.44 -0.075 -0.012 1 
0.439 -0.065 -0.012 1 
0.44 -0.055 -0.012 1 
0.402 0.064 -0.014 1 
0.442 -0.036 -0.013 1 
0.421 0.053 -0.012 1 
0.44 -0.026 -0.012 1 
0.442 -0.009 -0.013 1 
0.431 0.036 -0.01 1 
0.434 0.053 -0.011 1 
0.434 0.063 -0.011 1 
0.434 0.072 -0.011 1 
0.433 0.084 -0.011 1 
0.414 -0.057 -0.015 1 
0.432 0.094 -0.011 1 
0.427 0.143 -0.011 1 
0.421 0.204 -0.011 1 
0.42 0.211 -0.011 1 
0.422 0.223 -0.012 1 
0.424 0.233 -0.012 1 
0.424 0.244 -0.013 1 
0.423 0.254 -0.013 1 
0.42 0.273 -0.013 1 
0.451 -0.318 -0.017 1 
0.418 -0.207 -0.018 1 
0.449 -0.306 -0.016 1 
0.449 -0.296 -0.016 1 
0.446 -0.287 -0.015 1 
0.443 -0.266 -0.014 1 
0.442 -0.256 -0.013 1 
0.444 -0.247 -0.013 1 
0.414 0.103 -0.013 1 
0.444 -0.244 -0.013 1 
0.449 -0.009 -0.012 1 
0.472 -0.007 -0.018 1 
0.473 -0.004 -0.018 1 
0.363 -0.001 0.008 1 
0.441 0.074 -0.011 1 
0.441 0.084 -0.011 1 
0.437 0.103 -0.01 1 
0.434 0.154 -0.01 1 
0.431 0.173 -0.01 1 
0.432 0.181 -0.01 1 
0.431 0.194 -0.01 1 
0.422 0.281 -0.011 1 
0.42 0.291 -0.011 1 
0.454 -0.328 -0.016 1 
0.456 -0.317 -0.016 1 
0.458 -0.306 -0.016 1 
0.451 -0.277 -0.013 1 
0.45 -0.255 -0.012 1 
0.453 -0.246 -0.013 1 
0.454 -0.235 -0.013 1 
0.454 -0.229 -0.013 1 
0.453 -0.218 -0.012 1 
0.453 -0.207 -0.012 1 
0.453 -0.196 -0.012 1 
0.454 -0.185 -0.012 1 
0.454 -0.155 -0.012 1 
0.454 -0.153 -0.011 1 
0.452 -0.117 -0.011 1 
0.452 -0.107 -0.011 1 
0.454 -0.097 -0.011 1 
0.441 -0.206 -0.014 1 
0.453 -0.086 -0.011 1 
0.453 -0.065 -0.01 1 
0.477 -0.004 -0.016 1 
0.437 0.032 -0.007 1 
0.444 0.035 -0.009 1 
0.444 0.123 -0.009 1 
0.444 0.134 -0.01 1 
0.441 0.164 -0.01 1 
0.436 0.174 -0.009 1 
0.429 0.21 -0.008 1 
0.432 0.221 -0.009 1 
0.434 0.233 -0.01 1 
0.432 0.254 -0.01 1 
0.433 0.272 -0.011 1 
0.432 0.283 -0.011 1 
0.43 0.302 -0.011 1 
0.381 0.184 -0.015 1 
0.464 -0.315 -0.014 1 
0.463 -0.295 -0.014 1 
0.424 0.134 -0.012 1 
0.453 -0.266 -0.011 1 
0.46 -0.255 -0.012 1 
0.458 -0.196 -0.01 1 
0.409 0.072 -0.014 1 
0.421 0.028 -0.001 1 
0.452 0.034 -0.008 1 
0.442 0.143 -0.009 1 
0.454 0.044 -0.008 1 
0.454 0.054 -0.009 1 
0.454 0.062 -0.009 1 
0.454 0.073 -0.009 1 
0.453 0.083 -0.009 1 
0.452 0.093 -0.008 1 
0.451 0.113 -0.008 1 
0.411 0.194 -0.015 1 
0.443 0.183 -0.008 1 
0.443 0.192 -0.008 1 
0.443 0.202 -0.008 1 
0.442 0.213 -0.008 1 
0.433 0.305 -0.009 1 
0.463 -0.345 -0.012 1 
0.463 -0.338 -0.012 1 
0.464 -0.243 -0.01 1 
0.463 -0.217 -0.009 1 
0.461 -0.176 -0.008 1 
0.464 -0.136 -0.008 1 
0.464 -0.116 -0.008 1 
0.463 -0.076 -0.008 1 
0.382 -0.235 -0.026 1 
0.464 -0.055 -0.008 1 
0.371 -0.001 0.012 1 
0.454 0.133 -0.007 1 
0.449 0.204 -0.007 1 
0.443 0.282 -0.008 1 
0.442 0.293 -0.008 1 
0.471 -0.336 -0.011 1 
0.454 -0.045 -0.011 1 
0.471 -0.306 -0.01 1 
0.472 -0.237 -0.008 1 
0.467 -0.176 -0.007 1 
0.466 -0.167 -0.006 1 
0.469 -0.155 -0.007 1 
0.469 -0.146 -0.007 1 
0.468 -0.115 -0.006 1 
0.468 -0.107 -0.006 1 
0.467 -0.085 -0.006 1 
0.466 -0.066 -0.005 1 
0.467 -0.055 -0.006 1 
0.467 -0.047 -0.006 1 
0.466 -0.039 -0.005 1 
0.464 -0.036 -0.005 1 
0.465 -0.025 -0.005 1 
0.381 -0.001 0.011 1 
0.439 0.03 0 1 
0.461 0.042 -0.005 1 
0.462 0.064 -0.005 1 
0.374 0.024 -0.009 1 
0.461 0.074 -0.005 1 
0.46 0.093 -0.005 1 
0.42 -0.147 -0.015 1 
0.459 0.114 -0.005 1 
0.459 0.124 -0.005 1 
0.455 0.152 -0.005 1 
0.455 0.172 -0.005 1 
0.455 0.177 -0.005 1 
0.453 0.19 -0.005 1 
0.455 0.202 -0.006 1 
0.453 0.212 -0.006 1 
0.452 0.223 -0.006 1 
0.452 0.234 -0.006 1 
0.45 0.244 -0.006 1 
0.448 0.254 -0.006 1 
0.447 0.274 -0.006 1 
0.448 0.284 -0.006 1 
0.447 0.292 -0.006 1 
0.441 0.314 -0.006 1 
0.473 -0.356 -0.009 1 
0.473 -0.349 -0.009 1 
0.43 0.134 -0.011 1 
0.442 0.263 -0.007 1 
0.474 -0.325 -0.008 1 
0.364 -0.076 -0.016 1 
0.474 -0.315 -0.008 1 
0.457 0.134 -0.005 1 
0.473 -0.285 -0.007 1 
0.473 -0.275 -0.007 1 
0.474 -0.245 -0.006 1 
0.476 -0.237 -0.006 1 
0.476 -0.234 -0.006 1 
0.472 -0.226 -0.006 1 
0.471 -0.216 -0.005 1 
0.47 -0.195 -0.005 1 
0.414 -0.194 -0.017 1 
0.477 -0.007 -0.005 1 
0.454 0.253 -0.004 1 
0.452 0.264 -0.004 1 
0.452 0.282 -0.004 1 
0.45 0.298 -0.005 1 
0.476 -0.356 -0.006 1 
0.479 -0.345 -0.007 1 
0.479 -0.338 -0.006 1 
0.479 -0.327 -0.006 1 
0.392 0.043 -0.013 1 
0.477 -0.315 -0.005 1 
0.476 -0.307 -0.005 1 
0.475 -0.296 -0.005 1 
0.474 -0.289 -0.004 1 
0.474 -0.282 -0.004 1 
0.474 -0.267 -0.004 1 
0.474 -0.257 -0.004 1 
0.395 0.004 0.013 1 
0.389 0.014 0.014 1 
0.452 0.303 -0.002 1 
0.45 0.311 -0.002 1 
0.378 -0.005 -0.01 1 
0.48 -0.004 0 1 
0.412 -0.005 -0.014 1 
0.41 0.013 0.012 1 
0.403 0.242 -0.014 1 
0.41 0.02 0.012 1 
0.464 0.032 0.002 1 
0.465 0.083 0.001 1 
0.465 0.094 0.001 1 
0.453 0.324 0 1 
0.453 0.327 0 1 
0.474 -0.207 0.002 1 
0.358 -0.001 0.004 1 
0.475 -0.204 0.002 1 
0.474 -0.195 0.002 1 
0.473 -0.185 0.002 1 
0.473 -0.177 0.002 1 
0.374 -0.206 -0.024 1 
0.424 0.11 -0.012 1 
0.47 -0.086 0.003 1 
0.47 -0.077 0.004 1 
0.469 -0.066 0.004 1 
0.414 -0.125 -0.018 1 
0.467 -0.007 0.004 1 
0.466 -0.001 0.004 1 
0.463 0.083 0.004 1 
0.463 0.094 0.004 1 
0.443 0.316 -0.004 1 
0.463 0.104 0.004 1 
0.463 0.112 0.004 1 
0.463 0.123 0.004 1 
0.462 0.154 0.003 1 
0.462 0.173 0.003 1 
0.462 0.184 0.003 1 
0.461 0.192 0.003 1 
0.461 0.224 0.003 1 
0.382 -0.175 -0.019 1 
0.459 0.264 0.002 1 
0.459 0.273 0.002 1 
0.481 -0.319 0.002 1 
0.48 -0.308 0.002 1 
0.476 -0.007 -0.016 1 
0.478 -0.296 0.003 1 
0.477 -0.285 0.003 1 
0.477 -0.275 0.003 1 
0.459 0.282 0.004 1 
0.46 0.292 0.004 1 
0.459 0.304 0.004 1 
0.458 0.323 0.003 1 
0.36 0.103 -0.014 1 
0.483 -0.331 0.004 1 
0.464 0.003 0.01 1 
0.462 0.053 -0.005 1 
0.434 0.294 -0.012 1 
0.402 -0.157 -0.019 1 
0.465 -0.007 0.012 1 
0.465 0.003 0.012 1 
0.463 0.024 0.013 1 
0.464 -0.033 -0.005 1 
0.463 0.032 0.013 1 
0.464 -0.047 -0.008 1 
0.463 -0.065 -0.008 1 
0.408 0.204 -0.012 1 
0.381 -0.145 -0.018 1 
0.464 -0.087 -0.008 1 
0.453 -0.165 -0.011 1 
0.464 -0.127 -0.008 1 
0.39 -0.096 -0.016 1 
0.464 -0.152 -0.008 1 
0.384 0.191 -0.014 1 
0.461 -0.167 -0.008 1 
0.462 -0.185 -0.008 1 
0.464 -0.226 -0.01 1 
0.463 -0.245 -0.01 1 
0.46 -0.288 -0.013 1 
0.443 0.25 -0.007 1 
0.463 -0.308 -0.014 1 
0.404 -0.085 -0.016 1 
0.372 0.237 -0.016 1 
0.414 0.11 -0.014 1 
0.43 -0.135 -0.015 1 
0.372 0.113 -0.015 1 
0.39 0.173 -0.015 1 
0.431 0.103 -0.011 1 
0.44 -0.266 -0.016 1 
0.439 0.094 -0.01 1 
0.44 -0.319 -0.02 1 
0.403 0.134 -0.013 1 
0.453 0.143 -0.007 1 
0.401 0.203 -0.012 1 
0.455 -0.296 -0.015 1 
0.413 0.002 0.011 1 
0.454 -0.136 -0.011 1 
0.441 -0.247 -0.015 1 
0.456 0.142 -0.005 1 
0.462 0.242 0.002 1 
0.454 -0.017 -0.011 1 
0.362 0.113 -0.014 1 
0.388 0.018 0.014 1 
0.429 -0.125 -0.015 1 
0.374 0.073 -0.015 1 
0.364 -0.065 -0.016 1 
0.441 0.153 -0.009 1 
0.436 -0.176 -0.015 1 
0.354 0.164 -0.014 1 
0.45 0.174 -0.007 1 
0.414 -0.037 -0.014 1 
0.363 0.144 -0.015 1 
0.391 0.034 -0.012 1 
0.354 0.051 -0.013 1 
0.394 -0.197 -0.02 1 
0.372 -0.222 -0.024 1 
0.444 -0.046 -0.013 1 
0.394 -0.136 -0.018 1 
0.431 0.204 -0.008 1 
0.407 -0.07 -0.015 1 
0.371 -0.065 -0.015 1 
0.361 0.204 -0.015 1 
0.443 0.052 -0.011 1 
0.38 0.129 -0.014 1 
0.445 -0.28 -0.015 1 
0.431 0.113 -0.011 1 
0.462 -0.333 -0.015 1 
0.415 -0.041 -0.015 1 
0.442 -0.196 -0.015 1 
0.384 0.089 -0.015 1 
0.451 0.153 -0.006 1 
0.394 -0.003 -0.013 1 
0.394 0.226 -0.016 1 
0.453 0.184 -0.005 1 
0.353 0.203 -0.016 1 
0.4 0.144 -0.015 1 
0.393 0.152 -0.015 1 
0.463 -0.012 -0.01 1 
0.464 0.014 0.012 1 
0.464 -0.155 -0.008 1 
0.354 -0.001 -0.006 1 
0.424 -0.248 -0.021 1 
0.49 -0.328 -0.002 1 
0.44 -0.255 -0.015 1 
0.372 0.163 -0.017 1 
0.427 -0.006 -0.014 1 
0.447 0.262 -0.006 1 
0.451 0.103 -0.008 1 
0.419 -0.178 -0.018 1 
0.421 0.044 -0.012 1 
0.443 0.273 -0.008 1 
0.461 0.233 0.002 1 
0.439 0.243 -0.009 1 
0.478 -0.007 0 1 
0.457 0.332 0.003 1 
0.43 -0.091 -0.015 1 
0.382 -0.107 -0.018 1 
0.43 0.124 -0.011 1 
0.372 0.204 -0.017 1 
0.414 0.232 -0.015 1 
0.44 0.064 -0.01 1 
0.4 -0.045 -0.015 1 
0.388 0.124 -0.015 1 
0.464 0 0.004 1 
0.374 0.064 -0.013 1 
0.4 0.113 -0.014 1 
0.414 0.216 -0.012 1 
0.363 -0.045 -0.014 1 
0.433 -0.066 -0.013 1 
0.405 -0.065 -0.014 1 
0.43 -0.167 -0.016 1 
0.474 -0.012 -0.007 1 
0.465 0.011 0.012 1 
0.436 -0.004 -0.019 1 
0.431 -0.266 -0.021 1 
0.384 -0.166 -0.02 1 
0.452 -0.125 -0.011 1 
0.406 -0.063 -0.014 1 
0.395 0.121 -0.015 1 
0.474 -0.295 -0.007 1 
0.354 0.138 -0.015 1 
0.428 -0.036 -0.014 1 
0.383 0.203 -0.016 1 
0.383 0.194 -0.016 1 
0.419 -0.165 -0.017 1 
0.468 -0.126 -0.006 1 
0.463 -0.02 -0.008 1 
0.366 0.091 -0.014 1 
0.434 0.162 -0.011 1 
0.424 0.174 -0.011 1 
0.356 0.164 -0.015 1 
0.412 0.173 -0.012 1 
0.342 0.003 -0.005 1 
0.418 -0.265 -0.025 1 
0.462 -0.344 -0.015 1 
0.423 -0.136 -0.016 1 
0.471 -0.205 -0.005 1 
0.393 -0.236 -0.025 1 
0.358 0.174 -0.015 1 
0.458 -0.265 -0.012 1 
0.452 -0.027 -0.01 1 
0.388 0.099 -0.014 1 
0.422 0.264 -0.013 1 
0.422 0.142 -0.012 1 
0.441 -0.285 -0.016 1 
0.433 -0.295 -0.023 1 
0.411 -0.177 -0.018 1 
0.453 -0.035 -0.01 1 
0.461 0.253 0.002 1 
0.394 -0.036 -0.015 1 
0.452 -0.29 -0.014 1 
0.398 -0.125 -0.017 1 
0.441 -0.016 -0.013 1 
0.464 -0.106 -0.008 1 
0.363 -0.096 -0.016 1 
0.438 0.304 -0.008 1 
0.419 -0.006 -0.014 1 
0.453 -0.078 -0.011 1 
0.407 -0.243 -0.025 1 
0.411 -0.155 -0.017 1 
0.381 0.132 -0.015 1 
0.374 -0.055 -0.014 1 
0.462 0.162 0.003 1 
0.433 0.263 -0.01 1 
0.454 -0.055 -0.011 1 
0.458 0.313 0.004 1 
0.453 -0.176 -0.012 1 
0.421 -0.186 -0.019 1 
0.44 -0.127 -0.013 1 
0.443 0.113 -0.009 1 
0.43 0.029 -0.005 1 
0.404 -0.269 -0.026 1 
0.392 0.053 -0.013 1 
0.403 0.174 -0.014 1 
0.406 0.173 -0.015 1 
0.443 -0.306 -0.02 1 
0.434 -0.028 -0.013 1 
0.432 -0.056 -0.013 1 
0.381 -0.224 -0.025 1 
0.414 0.227 -0.014 1 
0.374 -0.155 -0.02 1 
0.453 0.274 -0.004 1 
0.45 0.292 -0.004 1 
0.38 0.222 -0.016 1 
0.47 -0.189 -0.005 1 
0.372 0.174 -0.015 1 
0.463 0.143 0.004 1 
0.477 -0.004 -0.005 1 
0.439 -0.011 -0.015 1 
0.4 0.082 -0.013 1 
0.433 -0.117 -0.013 1 
0.472 -0.265 -0.006 1 
0.403 0.253 -0.015 1 
0.468 -0.135 -0.006 1 
0.362 0.141 -0.014 1 
0.461 0.204 0.003 1 
0.394 -0.194 -0.02 1 
0.421 -0.116 -0.015 1 
0.473 -0.257 -0.006 1 
0.384 -0.227 -0.024 1 
0.461 0.082 -0.005 1 
0.401 0.044 -0.013 1 
0.379 0.063 -0.013 1 
0.387 0.184 -0.014 1 
0.46 -0.096 -0.01 1 
0.382 0.214 -0.016 1 
0.424 0.028 -0.008 1 
0.393 -0.085 -0.017 1 
0.424 -0.277 -0.025 1 
0.441 0.223 -0.008 1 
0.464 -0.209 -0.009 1 
0.363 0.115 -0.014 1 
0.442 -0.225 -0.015 1 
0.458 0.034 -0.007 1 
0.376 0.173 -0.015 1 
0.383 0.094 -0.014 1 
0.456 0.164 -0.005 1 
0.456 -0.275 -0.012 1 
0.373 0.192 -0.016 1 
0.422 -0.063 -0.015 1 
0.455 0.194 -0.006 1 
0.461 0.212 0.003 1 
0.434 0.242 -0.01 1 
0.426 -0.015 -0.014 1 
0.411 -0.016 -0.014 1 
0.44 0.233 -0.009 1 
0.468 -0.096 -0.006 1 
0.45 0.123 -0.008 1 
0.374 -0.169 -0.019 1 
0.466 -0.076 -0.006 1 
0.383 -0.136 -0.019 1 
0.429 -0.122 -0.015 1 
0.471 -0.015 -0.007 1 
0.43 -0.096 -0.015 1 
0.459 0.103 -0.005 1 
0.359 0.213 -0.015 1 
0.372 0.067 -0.014 1 
0.461 -0.329 -0.014 1 
0.451 0.161 -0.007 1 
0.476 -0.211 0.001 1 
0.401 0.094 -0.014 1 
0.341 0.003 0.02 2 
0.341 0.003 0.028 2 
0.34 0.017 0.024 2 
0.341 0.014 0.019 2 
0.341 0.014 0.027 2 
0.341 0.016 0.027 2 
0.552 -0.116 0.075 2 
0.383 -0.03 0.083 2 
0.385 0.002 0.058 2 
0.365 0.011 0.04 2 
0.386 0.008 0.039 2 
0.501 0.1 0.056 2 
0.55 -0.105 0.057 2 
0.356 -0.004 0.072 2 
0.378 -0.046 0.077 2 
0.555 -0.103 0.061 2 
0.358 0.005 0.044 2 
0.365 -0.001 0.062 2 
0.504 -0.035 0.078 2 
0.391 0.073 0.079 2 
0.357 -0.047 0.079 2 
0.398 0.071 0.078 2 
0.362 -0.023 0.08 2 
0.355 -0.007 0.079 2 
0.352 -0.02 0.08 2 
0.363 -0.027 0.08 2 
0.388 -0.036 0.081 2 
0.38 -0.037 0.081 2 
0.509 -0.093 0.066 2 
0.524 -0.101 0.067 2 
0.531 -0.106 0.067 2 
0.406 0.071 0.078 2 
0.419 0.07 0.079 2 
0.391 0.071 0.081 2 
0.394 0.063 0.08 2 
0.381 0.056 0.079 2 
0.428 0.097 0.074 2 
0.416 0.081 0.076 2 
0.436 0.083 0.077 2 
0.496 0.086 0.078 2 
0.553 -0.112 0.064 2 
0.377 0.034 0.076 2 
0.385 0.033 0.077 2 
0.388 -0.032 0.079 2 
0.376 -0.033 0.079 2 
0.381 -0.035 0.079 2 
0.364 -0.036 0.078 2 
0.354 -0.041 0.078 2 
0.561 -0.108 0.065 2 
0.367 0.056 0.081 2 
0.366 0.054 0.081 2 
0.375 0.054 0.081 2 
0.363 -0.034 0.078 2 
0.552 -0.033 0.067 2 
0.562 -0.026 0.06 2 
0.557 -0.026 0.067 2 
0.559 -0.023 0.067 2 
0.563 -0.019 0.06 2 
0.561 -0.062 0.088 2 
0.549 -0.063 0.084 2 
0.544 -0.076 0.071 2 
0.55 -0.07 0.084 2 
0.562 -0.065 0.088 2 
0.471 -0.075 0.143 3 
0.464 0.152 0.141 3 
0.479 -0.237 0.104 3 
0.464 0.144 0.141 3 
0.288 -0.005 0.091 3 
0.476 -0.043 0.144 3 
0.472 -0.045 0.143 3 
0.471 -0.056 0.142 3 
0.471 -0.067 0.143 3 
0.475 -0.135 0.144 3 
0.466 0.074 0.144 3 
0.473 -0.087 0.143 3 
0.459 0.336 0.142 3 
0.474 -0.106 0.144 3 
0.488 -0.335 0.153 3 
0.488 -0.327 0.153 3 
0.474 -0.115 0.144 3 
0.486 -0.315 0.152 3 
0.475 -0.124 0.144 3 
0.475 -0.127 0.144 3 
0.474 -0.129 0.144 3 
0.485 -0.301 0.154 3 
0.464 0.103 0.133 3 
0.465 0.062 0.144 3 
0.464 0.06 0.143 3 
0.464 0.054 0.143 3 
0.31 0.023 0.099 3 
0.474 -0.115 0.147 3 
0.481 -0.267 0.152 3 
0.481 -0.277 0.152 3 
0.324 -0.012 0.063 3 
0.484 -0.286 0.153 3 
0.484 -0.296 0.153 3 
0.462 0.214 0.142 3 
0.486 -0.312 0.154 3 
0.461 0.312 0.144 3 
0.48 -0.297 0.014 3 
0.462 0.293 0.144 3 
0.462 0.284 0.144 3 
0.462 0.274 0.144 3 
0.463 0.263 0.143 3 
0.337 0.005 0.059 3 
0.461 0.243 0.142 3 
0.46 0.233 0.142 3 
0.462 0.223 0.142 3 
0.463 0.194 0.133 3 
0.482 -0.288 0.144 3 
0.473 -0.206 0.013 3 
0.483 -0.295 0.144 3 
0.462 0.204 0.092 3 
0.461 0.249 0.134 3 
0.481 -0.309 0.082 3 
0.461 0.243 0.134 3 
0.462 0.252 0.123 3 
0.46 0.233 0.134 3 
0.461 0.213 0.134 3 
0.462 0.203 0.134 3 
0.481 -0.277 0.143 3 
0.473 -0.145 0.052 3 
0.463 0.183 0.133 3 
0.463 0.174 0.133 3 
0.463 0.163 0.133 3 
0.464 0.144 0.133 3 
0.464 0.133 0.133 3 
0.464 0.122 0.133 3 
0.469 -0.096 0.014 3 
0.465 0.114 0.133 3 
0.464 0.108 0.133 3 
0.464 0.17 0.155 3 
0.463 0.134 0.004 3 
0.461 0.322 0.142 3 
0.464 0.13 0.138 3 
0.285 -0.002 0.09 3 
0.475 -0.147 0.142 3 
0.46 0.221 0.133 3 
0.475 -0.155 0.142 3 
0.476 -0.167 0.142 3 
0.476 -0.176 0.143 3 
0.476 -0.185 0.143 3 
0.477 -0.197 0.143 3 
0.474 -0.168 0.094 3 
0.459 0.333 0.142 3 
0.478 -0.206 0.143 3 
0.478 -0.215 0.144 3 
0.479 -0.225 0.144 3 
0.479 -0.237 0.144 3 
0.487 -0.348 0.15 3 
0.472 -0.086 0.132 3 
0.464 0.122 0.136 3 
0.296 -0.005 0.091 3 
0.474 -0.146 0.139 3 
0.479 -0.247 0.142 3 
0.479 -0.256 0.142 3 
0.468 0.074 0.153 3 
0.464 0.172 0.153 3 
0.464 0.164 0.152 3 
0.465 0.159 0.153 3 
0.465 0.153 0.153 3 
0.465 0.142 0.152 3 
0.466 0.134 0.153 3 
0.466 0.123 0.152 3 
0.466 0.112 0.152 3 
0.466 0.104 0.152 3 
0.467 0.093 0.153 3 
0.48 -0.266 0.143 3 
0.468 0.082 0.153 3 
0.464 0.184 0.153 3 
0.464 0.057 0.151 3 
0.467 -0.047 0.034 3 
0.26 0.014 0.087 3 
0.472 -0.056 0.154 3 
0.457 0.332 0.062 3 
0.472 -0.067 0.154 3 
0.473 -0.076 0.154 3 
0.484 -0.297 0.162 3 
0.484 -0.307 0.163 3 
0.486 -0.316 0.164 3 
0.459 0.337 0.154 3 
0.482 -0.285 0.164 3 
0.481 -0.306 0.114 3 
0.465 0.063 0.154 3 
0.464 0.054 0.154 3 
0.277 0.017 0.093 3 
0.278 0.004 0.094 3 
0.479 -0.226 0.162 3 
0.481 -0.236 0.162 3 
0.482 -0.246 0.163 3 
0.482 -0.256 0.163 3 
0.483 -0.266 0.164 3 
0.483 -0.276 0.164 3 
0.461 0.302 0.144 3 
0.476 -0.187 0.123 3 
0.462 0.262 0.154 3 
0.461 0.153 0.033 3 
0.462 0.253 0.154 3 
0.462 0.244 0.154 3 
0.462 0.232 0.154 3 
0.462 0.223 0.153 3 
0.463 0.212 0.153 3 
0.475 -0.167 0.134 3 
0.46 0.273 0.062 3 
0.345 -0.001 0.059 3 
0.463 0.192 0.153 3 
0.488 -0.346 0.159 3 
0.48 -0.307 0.014 3 
0.487 -0.327 0.161 3 
0.486 -0.336 0.162 3 
0.462 0.053 0.052 3 
0.474 -0.095 0.149 3 
0.474 -0.107 0.149 3 
0.477 -0.195 0.152 3 
0.463 0.174 0.114 3 
0.479 -0.207 0.152 3 
0.479 -0.225 0.153 3 
0.48 -0.235 0.153 3 
0.481 -0.255 0.154 3 
0.485 -0.304 0.16 3 
0.462 0.194 0.144 3 
0.464 0.181 0.144 3 
0.464 0.172 0.144 3 
0.463 0.163 0.144 3 
0.465 0.153 0.144 3 
0.465 0.142 0.144 3 
0.465 0.133 0.144 3 
0.465 0.122 0.144 3 
0.465 0.103 0.144 3 
0.466 0.093 0.144 3 
0.466 0.084 0.144 3 
0.474 -0.087 0.152 3 
0.461 0.332 0.154 3 
0.295 -0.001 0.082 3 
0.46 0.234 0.062 3 
0.464 0.322 0.154 3 
0.462 0.313 0.153 3 
0.462 0.303 0.153 3 
0.464 0.152 0.133 3 
0.462 0.29 0.153 3 
0.462 0.284 0.152 3 
0.464 0.065 0.135 3 
0.463 0.273 0.152 3 
0.463 0.162 0.063 3 
0.475 -0.09 0.152 3 
0.475 -0.096 0.152 3 
0.475 -0.107 0.152 3 
0.475 -0.115 0.153 3 
0.476 -0.127 0.153 3 
0.475 -0.135 0.153 3 
0.475 -0.147 0.153 3 
0.476 -0.156 0.154 3 
0.477 -0.165 0.154 3 
0.477 -0.177 0.154 3 
0.477 -0.186 0.154 3 
0.461 0.212 0.114 3 
0.479 -0.265 0.122 3 
0.477 -0.257 0.044 3 
0.48 -0.285 0.122 3 
0.482 -0.297 0.123 3 
0.482 -0.307 0.123 3 
0.483 -0.315 0.124 3 
0.485 -0.32 0.124 3 
0.484 -0.344 0.125 3 
0.484 -0.347 0.125 3 
0.46 0.236 0.114 3 
0.46 0.233 0.114 3 
0.46 0.224 0.114 3 
0.476 -0.172 0.12 3 
0.462 0.204 0.114 3 
0.462 0.193 0.114 3 
0.463 0.163 0.114 3 
0.463 0.154 0.114 3 
0.463 0.143 0.114 3 
0.463 0.132 0.114 3 
0.464 0.124 0.114 3 
0.464 0.113 0.114 3 
0.464 0.094 0.052 3 
0.464 0.103 0.114 3 
0.464 0.094 0.114 3 
0.476 -0.175 0.122 3 
0.473 -0.086 0.124 3 
0.473 -0.106 0.124 3 
0.473 -0.126 0.124 3 
0.473 -0.14 0.124 3 
0.487 -0.347 0.131 3 
0.459 0.335 0.122 3 
0.459 0.332 0.122 3 
0.462 0.322 0.122 3 
0.295 0.018 0.084 3 
0.473 -0.145 0.122 3 
0.473 -0.157 0.122 3 
0.474 -0.166 0.122 3 
0.464 0.084 0.114 3 
0.477 -0.205 0.103 3 
0.478 -0.197 0.123 3 
0.478 -0.206 0.123 3 
0.478 -0.215 0.124 3 
0.462 0.112 0.012 3 
0.478 -0.227 0.124 3 
0.479 -0.237 0.124 3 
0.479 -0.246 0.124 3 
0.478 -0.258 0.124 3 
0.465 0.057 0.117 3 
0.437 0.044 0.111 3 
0.461 0.224 0.103 3 
0.473 -0.106 0.113 3 
0.473 -0.117 0.113 3 
0.472 -0.125 0.113 3 
0.472 -0.136 0.113 3 
0.473 -0.145 0.113 3 
0.473 -0.157 0.113 3 
0.475 -0.166 0.114 3 
0.476 -0.175 0.114 3 
0.476 -0.187 0.114 3 
0.326 0.024 0.085 3 
0.475 -0.163 0.111 3 
0.477 -0.196 0.112 3 
0.472 -0.097 0.113 3 
0.477 -0.205 0.112 3 
0.477 -0.217 0.112 3 
0.477 -0.226 0.112 3 
0.479 -0.237 0.113 3 
0.478 -0.255 0.113 3 
0.479 -0.265 0.113 3 
0.463 0.072 0.092 3 
0.479 -0.278 0.113 3 
0.479 -0.287 0.113 3 
0.48 -0.295 0.114 3 
0.467 0.35 0.196 3 
0.461 0.301 0.113 3 
0.464 0.073 0.114 3 
0.463 0.054 0.113 3 
0.45 0.046 0.111 3 
0.485 -0.327 0.121 3 
0.484 -0.333 0.121 3 
0.484 -0.336 0.121 3 
0.485 -0.348 0.122 3 
0.463 0.143 0.063 3 
0.484 -0.351 0.122 3 
0.458 0.334 0.113 3 
0.461 0.324 0.113 3 
0.461 0.311 0.113 3 
0.472 -0.075 0.124 3 
0.461 0.282 0.113 3 
0.477 -0.257 0.052 3 
0.46 0.263 0.112 3 
0.46 0.253 0.112 3 
0.469 -0.039 0.112 3 
0.47 -0.045 0.112 3 
0.47 -0.055 0.112 3 
0.47 -0.066 0.112 3 
0.471 -0.075 0.112 3 
0.472 -0.086 0.113 3 
0.468 -0.066 0.033 3 
0.474 -0.163 0.133 3 
0.464 0.068 0.13 3 
0.465 0.057 0.13 3 
0.286 0.014 0.087 3 
0.473 -0.095 0.132 3 
0.473 -0.117 0.132 3 
0.474 -0.126 0.133 3 
0.481 -0.315 0.034 3 
0.474 -0.135 0.133 3 
0.475 -0.144 0.133 3 
0.475 -0.146 0.133 3 
0.474 -0.149 0.133 3 
0.475 -0.155 0.133 3 
0.465 0.119 0.13 3 
0.475 -0.175 0.134 3 
0.477 -0.188 0.134 3 
0.477 -0.197 0.134 3 
0.465 0.054 0.127 3 
0.474 -0.166 0.131 3 
0.478 -0.206 0.132 3 
0.475 -0.207 0.052 3 
0.478 -0.215 0.132 3 
0.47 0.082 0.06 3 
0.479 -0.228 0.133 3 
0.479 -0.237 0.133 3 
0.485 -0.317 0.142 3 
0.465 0.092 0.133 3 
0.465 0.084 0.133 3 
0.465 0.073 0.133 3 
0.464 0.062 0.132 3 
0.463 0.054 0.132 3 
0.285 0.018 0.087 3 
0.471 -0.042 0.134 3 
0.472 -0.045 0.134 3 
0.471 -0.056 0.134 3 
0.471 -0.067 0.134 3 
0.471 -0.075 0.134 3 
0.484 -0.306 0.142 3 
0.479 -0.247 0.133 3 
0.487 -0.326 0.143 3 
0.488 -0.345 0.144 3 
0.458 0.335 0.133 3 
0.459 0.332 0.133 3 
0.461 0.321 0.133 3 
0.471 -0.105 0.003 3 
0.461 0.314 0.133 3 
0.46 0.304 0.133 3 
0.46 0.294 0.132 3 
0.461 0.282 0.132 3 
0.462 0.262 0.132 3 
0.462 0.184 0.054 3 
0.46 0.284 0.124 3 
0.461 0.273 0.124 3 
0.461 0.264 0.123 3 
0.462 0.243 0.123 3 
0.461 0.234 0.123 3 
0.46 0.224 0.123 3 
0.463 0.202 0.123 3 
0.463 0.194 0.122 3 
0.463 0.182 0.122 3 
0.463 0.174 0.122 3 
0.463 0.163 0.122 3 
0.463 0.154 0.122 3 
0.461 0.292 0.124 3 
0.463 0.143 0.122 3 
0.468 -0.066 0.023 3 
0.464 0.133 0.122 3 
0.464 0.114 0.122 3 
0.464 0.103 0.122 3 
0.465 0.07 0.122 3 
0.298 0.02 0.086 3 
0.29 0.018 0.084 3 
0.47 -0.039 0.123 3 
0.471 -0.045 0.123 3 
0.471 -0.056 0.123 3 
0.464 0.054 0.124 3 
0.478 -0.255 0.133 3 
0.48 -0.266 0.134 3 
0.484 -0.345 0.064 3 
0.473 -0.165 0.044 3 
0.481 -0.277 0.134 3 
0.481 -0.286 0.134 3 
0.463 0.124 0.124 3 
0.464 0.094 0.125 3 
0.464 0.092 0.124 3 
0.464 0.084 0.124 3 
0.464 0.062 0.124 3 
0.465 0.1 0.133 3 
0.376 0.008 0.054 3 
0.286 0.012 0.084 3 
0.285 0.004 0.084 3 
0.482 -0.297 0.132 3 
0.483 -0.305 0.132 3 
0.484 -0.316 0.133 3 
0.487 -0.322 0.134 3 
0.488 -0.327 0.134 3 
0.487 -0.336 0.134 3 
0.461 0.311 0.124 3 
0.461 0.301 0.124 3 
0.466 -0.036 0.004 3 
0.474 -0.135 0.141 3 
0.467 0.164 0.182 3 
0.468 0.153 0.182 3 
0.463 0.203 0.142 3 
0.469 0.144 0.182 3 
0.469 0.133 0.181 3 
0.479 -0.275 0.122 3 
0.47 0.122 0.182 3 
0.473 -0.106 0.132 3 
0.471 0.111 0.182 3 
0.471 0.103 0.182 3 
0.473 0.092 0.182 3 
0.467 0.172 0.182 3 
0.473 0.084 0.182 3 
0.472 0.073 0.182 3 
0.47 0.064 0.181 3 
0.275 0.021 0.102 3 
0.478 -0.057 0.184 3 
0.478 -0.066 0.184 3 
0.46 0.034 0.047 3 
0.484 -0.218 0.19 3 
0.486 -0.247 0.191 3 
0.487 -0.258 0.192 3 
0.487 -0.267 0.193 3 
0.464 0.241 0.183 3 
0.485 -0.207 0.193 3 
0.485 -0.216 0.193 3 
0.442 0.03 0.05 3 
0.485 -0.225 0.194 3 
0.306 0.021 0.084 3 
0.474 -0.177 0.1 3 
0.484 -0.228 0.193 3 
0.485 -0.235 0.194 3 
0.484 -0.237 0.194 3 
0.493 -0.339 0.202 3 
0.466 0.264 0.184 3 
0.466 0.252 0.184 3 
0.488 -0.275 0.193 3 
0.319 -0.004 0.078 3 
0.465 0.239 0.183 3 
0.485 -0.311 0.163 3 
0.464 0.232 0.182 3 
0.465 0.23 0.183 3 
0.465 0.224 0.183 3 
0.466 0.213 0.183 3 
0.461 0.213 0.123 3 
0.467 0.204 0.183 3 
0.467 0.193 0.182 3 
0.466 0.183 0.182 3 
0.484 -0.206 0.187 3 
0.462 0.204 0.103 3 
0.481 -0.106 0.183 3 
0.474 -0.168 0.102 3 
0.48 -0.115 0.183 3 
0.481 -0.127 0.183 3 
0.481 -0.135 0.184 3 
0.461 0.273 0.132 3 
0.481 -0.147 0.184 3 
0.481 -0.156 0.184 3 
0.479 -0.355 0.013 3 
0.48 -0.167 0.184 3 
0.48 -0.176 0.184 3 
0.481 -0.095 0.183 3 
0.487 -0.307 0.191 3 
0.475 -0.186 0.072 3 
0.489 -0.316 0.193 3 
0.49 -0.328 0.194 3 
0.491 -0.336 0.194 3 
0.463 0.343 0.182 3 
0.464 0.324 0.181 3 
0.476 -0.235 0.024 3 
0.464 0.271 0.178 3 
0.464 0.262 0.178 3 
0.477 0.087 0.06 3 
0.488 -0.285 0.194 3 
0.488 -0.298 0.194 3 
0.474 -0.209 0.036 3 
0.464 0.346 0.185 3 
0.464 0.342 0.185 3 
0.473 -0.095 0.124 3 
0.479 -0.287 0.093 3 
0.464 0.331 0.184 3 
0.465 0.328 0.184 3 
0.465 0.321 0.184 3 
0.466 0.312 0.184 3 
0.461 0.294 0.093 3 
0.485 -0.2 0.193 3 
0.466 0.302 0.183 3 
0.467 0.294 0.183 3 
0.467 0.284 0.183 3 
0.465 0.272 0.181 3 
0.464 0.25 0.18 3 
0.471 -0.067 0.123 3 
0.314 -0.011 0.061 3 
0.464 0.223 0.179 3 
0.478 -0.077 0.181 3 
0.475 -0.207 0.072 3 
0.48 -0.086 0.182 3 
0.475 0.093 0.189 3 
0.359 0.048 0.068 3 
0.47 0.154 0.188 3 
0.465 0.076 0.122 3 
0.46 0.284 0.093 3 
0.471 0.143 0.188 3 
0.471 0.134 0.188 3 
0.464 0.062 0.114 3 
0.471 0.123 0.188 3 
0.473 0.07 0.188 3 
0.473 0.112 0.188 3 
0.465 0.282 0.173 3 
0.473 0.104 0.188 3 
0.47 0.163 0.189 3 
0.475 0.082 0.189 3 
0.474 0.076 0.188 3 
0.475 0.073 0.189 3 
0.272 0.02 0.103 3 
0.267 0.014 0.1 3 
0.466 -0.015 0.023 3 
0.269 0.004 0.101 3 
0.274 -0.005 0.103 3 
0.28 -0.006 0.106 3 
0.48 -0.058 0.191 3 
0.48 -0.066 0.191 3 
0.467 0.262 0.19 3 
0.463 0.143 0.084 3 
0.467 0.343 0.195 3 
0.467 0.332 0.195 3 
0.468 0.329 0.194 3 
0.474 -0.145 0.094 3 
0.467 0.321 0.193 3 
0.466 0.31 0.192 3 
0.467 0.301 0.192 3 
0.463 0.182 0.114 3 
0.467 0.294 0.192 3 
0.468 0.282 0.192 3 
0.468 0.272 0.191 3 
0.47 -0.127 0.014 3 
0.466 0.252 0.19 3 
0.466 0.243 0.189 3 
0.466 0.234 0.189 3 
0.466 0.222 0.189 3 
0.472 -0.042 0.14 3 
0.466 0.213 0.188 3 
0.48 -0.297 0.023 3 
0.468 0.202 0.189 3 
0.469 0.194 0.189 3 
0.47 0.183 0.189 3 
0.47 0.174 0.189 3 
0.49 -0.325 0.203 3 
0.478 -0.245 0.004 3 
0.485 -0.235 0.197 3 
0.486 -0.245 0.198 3 
0.456 0.33 0.012 3 
0.488 -0.256 0.199 3 
0.488 -0.265 0.199 3 
0.488 -0.275 0.199 3 
0.489 -0.286 0.2 3 
0.489 -0.296 0.201 3 
0.473 -0.176 0.052 3 
0.488 -0.306 0.201 3 
0.488 -0.316 0.202 3 
0.465 0.003 0.047 3 
0.494 -0.336 0.205 3 
0.466 0.349 0.192 3 
0.465 0.34 0.191 3 
0.464 0.22 0.185 3 
0.474 0.093 0.186 3 
0.472 0.064 0.185 3 
0.279 -0.006 0.104 3 
0.481 -0.177 0.19 3 
0.484 -0.188 0.192 3 
0.485 -0.194 0.193 3 
0.484 -0.197 0.192 3 
0.484 -0.155 0.194 3 
0.481 -0.075 0.191 3 
0.474 -0.045 0.154 3 
0.483 -0.087 0.192 3 
0.483 -0.096 0.192 3 
0.483 -0.107 0.193 3 
0.484 -0.116 0.193 3 
0.484 -0.125 0.193 3 
0.483 -0.136 0.193 3 
0.464 0.094 0.103 3 
0.481 -0.316 0.103 3 
0.483 -0.145 0.193 3 
0.477 -0.116 0.162 3 
0.466 0.344 0.183 3 
0.483 -0.166 0.194 3 
0.469 -0.066 0.074 3 
0.484 -0.176 0.195 3 
0.484 -0.185 0.195 3 
0.485 -0.188 0.195 3 
0.486 -0.195 0.196 3 
0.469 -0.077 0.052 3 
0.486 -0.207 0.196 3 
0.485 -0.216 0.196 3 
0.485 -0.225 0.197 3 
0.484 -0.267 0.173 3 
0.48 -0.317 0.014 3 
0.467 0.104 0.164 3 
0.468 0.093 0.164 3 
0.469 0.083 0.164 3 
0.469 0.074 0.164 3 
0.465 0.063 0.163 3 
0.316 0.027 0.11 3 
0.473 -0.053 0.165 3 
0.33 -0.008 0.066 3 
0.483 -0.235 0.172 3 
0.483 -0.248 0.172 3 
0.483 -0.257 0.173 3 
0.468 0.113 0.164 3 
0.464 0.102 0.084 3 
0.485 -0.275 0.174 3 
0.484 -0.281 0.174 3 
0.484 -0.29 0.174 3 
0.463 0.295 0.164 3 
0.463 0.286 0.164 3 
0.464 0.283 0.164 3 
0.463 0.273 0.164 3 
0.462 0.263 0.163 3 
0.462 0.254 0.163 3 
0.462 0.242 0.162 3 
0.467 -0.047 0.004 3 
0.465 0.105 0.06 3 
0.481 -0.216 0.174 3 
0.479 -0.216 0.153 3 
0.481 -0.228 0.174 3 
0.463 0.062 0.092 3 
0.476 -0.238 0.012 3 
0.484 -0.268 0.176 3 
0.465 0.307 0.168 3 
0.463 0.21 0.164 3 
0.48 -0.317 0.043 3 
0.463 0.204 0.164 3 
0.462 0.233 0.162 3 
0.464 0.193 0.164 3 
0.464 0.182 0.164 3 
0.465 0.177 0.164 3 
0.473 -0.117 0.124 3 
0.465 0.174 0.164 3 
0.465 0.162 0.164 3 
0.47 -0.036 0.104 3 
0.466 0.154 0.164 3 
0.466 0.143 0.164 3 
0.467 0.132 0.164 3 
0.467 0.124 0.164 3 
0.478 -0.125 0.162 3 
0.475 -0.195 0.052 3 
0.464 0.322 0.163 3 
0.465 0.32 0.163 3 
0.464 0.312 0.163 3 
0.463 0.132 0.073 3 
0.464 0.158 0.158 3 
0.463 0.054 0.156 3 
0.274 0.016 0.093 3 
0.273 0.013 0.093 3 
0.465 0.108 0.068 3 
0.277 0.013 0.094 3 
0.474 -0.076 0.16 3 
0.46 0.271 0.104 3 
0.477 -0.136 0.162 3 
0.473 -0.145 0.083 3 
0.478 -0.145 0.163 3 
0.477 -0.157 0.162 3 
0.478 -0.166 0.163 3 
0.478 -0.175 0.163 3 
0.478 -0.186 0.163 3 
0.48 -0.197 0.164 3 
0.479 -0.208 0.164 3 
0.478 -0.217 0.164 3 
0.484 -0.297 0.168 3 
0.477 -0.105 0.164 3 
0.462 0.224 0.162 3 
0.473 -0.053 0.162 3 
0.473 -0.056 0.162 3 
0.473 -0.065 0.163 3 
0.461 0.294 0.113 3 
0.475 -0.076 0.163 3 
0.471 -0.086 0.104 3 
0.46 0.234 0.043 3 
0.475 -0.228 0.024 3 
0.476 -0.085 0.164 3 
0.477 -0.096 0.164 3 
0.461 0.161 0.092 3 
0.481 -0.207 0.174 3 
0.465 0.114 0.144 3 
0.479 -0.246 0.113 3 
0.485 -0.298 0.172 3 
0.485 -0.305 0.172 3 
0.46 0.274 0.082 3 
0.486 -0.316 0.173 3 
0.487 -0.327 0.174 3 
0.487 -0.335 0.174 3 
0.488 -0.346 0.175 3 
0.46 0.339 0.163 3 
0.461 0.333 0.163 3 
0.469 0.072 0.172 3 
0.465 0.174 0.173 3 
0.466 0.163 0.173 3 
0.466 0.154 0.172 3 
0.467 0.143 0.172 3 
0.468 0.133 0.173 3 
0.481 -0.245 0.154 3 
0.47 0.122 0.173 3 
0.474 -0.095 0.144 3 
0.47 0.114 0.173 3 
0.469 0.102 0.173 3 
0.469 0.094 0.173 3 
0.471 0.083 0.173 3 
0.465 0.183 0.173 3 
0.276 -0.003 0.099 3 
0.475 -0.062 0.174 3 
0.475 -0.065 0.174 3 
0.482 -0.235 0.181 3 
0.483 -0.245 0.181 3 
0.484 -0.255 0.182 3 
0.485 -0.262 0.183 3 
0.485 -0.265 0.183 3 
0.487 -0.277 0.184 3 
0.487 -0.287 0.184 3 
0.461 0.334 0.174 3 
0.463 0.258 0.174 3 
0.464 0.214 0.176 3 
0.465 0.063 0.174 3 
0.464 0.204 0.154 3 
0.481 -0.186 0.182 3 
0.483 -0.196 0.183 3 
0.484 -0.206 0.184 3 
0.464 0.073 0.124 3 
0.484 -0.215 0.184 3 
0.474 -0.177 0.072 3 
0.466 0.054 0.001 3 
0.483 -0.227 0.184 3 
0.463 0.312 0.177 3 
0.463 0.319 0.174 3 
0.459 0.304 0.032 3 
0.464 0.25 0.174 3 
0.464 0.244 0.174 3 
0.464 0.232 0.174 3 
0.463 0.222 0.173 3 
0.464 0.214 0.173 3 
0.465 0.203 0.173 3 
0.462 0.253 0.143 3 
0.465 0.194 0.173 3 
0.461 0.274 0.032 3 
0.464 0.29 0.17 3 
0.479 -0.146 0.174 3 
0.478 -0.163 0.174 3 
0.478 -0.166 0.174 3 
0.471 -0.097 0.052 3 
0.487 -0.297 0.182 3 
0.487 -0.307 0.182 3 
0.488 -0.318 0.183 3 
0.489 -0.326 0.184 3 
0.478 -0.296 0.064 3 
0.46 0.243 0.054 3 
0.489 -0.337 0.184 3 
0.461 0.34 0.172 3 
0.461 0.273 0.112 3 
0.464 0.193 0.167 3 
0.46 0.059 0.163 3 
0.299 0.025 0.105 3 
0.301 0.024 0.106 3 
0.474 -0.062 0.168 3 
0.474 -0.065 0.168 3 
0.459 0.214 0.014 3 
0.479 -0.175 0.172 3 
0.48 -0.185 0.173 3 
0.468 -0.085 0.012 3 
0.481 -0.197 0.173 3 
0.287 0.023 0.102 3 
0.463 0.312 0.174 3 
0.474 -0.177 0.033 3 
0.464 0.303 0.174 3 
0.465 0.301 0.174 3 
0.465 0.294 0.174 3 
0.464 0.277 0.173 3 
0.475 -0.222 0.033 3 
0.464 -0.033 0.01 3 
0.464 0.274 0.173 3 
0.464 0.199 0.17 3 
0.461 0.283 0.043 3 
0.488 -0.346 0.172 3 
0.275 0.014 0.098 3 
0.475 -0.054 0.172 3 
0.476 -0.076 0.172 3 
0.477 -0.085 0.173 3 
0.479 -0.097 0.173 3 
0.486 0.098 0.06 3 
0.478 -0.105 0.173 3 
0.478 -0.117 0.173 3 
0.487 -0.337 0.143 3 
0.479 -0.126 0.174 3 
0.479 -0.137 0.174 3 
0.475 -0.246 0.012 3 
0.475 -0.192 0.047 3 
0.462 0.043 0.013 3 
0.456 0.331 0.043 3 
0.459 0.324 0.043 3 
0.458 0.313 0.043 3 
0.458 0.303 0.043 3 
0.469 -0.066 0.044 3 
0.461 0.274 0.043 3 
0.46 0.264 0.043 3 
0.468 -0.055 0.033 3 
0.461 0.221 0.024 3 
0.46 0.252 0.043 3 
0.467 -0.017 0.047 3 
0.46 0.243 0.043 3 
0.46 0.223 0.044 3 
0.461 0.212 0.044 3 
0.461 0.203 0.044 3 
0.461 0.192 0.044 3 
0.461 0.183 0.044 3 
0.462 0.173 0.044 3 
0.462 0.164 0.044 3 
0.462 0.153 0.044 3 
0.462 0.142 0.044 3 
0.463 0.132 0.044 3 
0.48 -0.317 0.052 3 
0.473 -0.156 0.052 3 
0.473 -0.165 0.052 3 
0.474 -0.185 0.052 3 
0.475 -0.216 0.052 3 
0.475 -0.225 0.052 3 
0.476 -0.237 0.052 3 
0.477 -0.247 0.052 3 
0.477 -0.266 0.052 3 
0.477 -0.276 0.052 3 
0.478 -0.286 0.052 3 
0.479 -0.296 0.052 3 
0.48 -0.307 0.052 3 
0.463 0.124 0.044 3 
0.481 -0.325 0.052 3 
0.482 -0.336 0.052 3 
0.452 0.034 0.05 3 
0.355 0.015 0.052 3 
0.356 0.014 0.052 3 
0.474 -0.221 0.05 3 
0.457 0.024 0.047 3 
0.435 0.017 0.048 3 
0.457 0.013 0.047 3 
0.476 -0.247 0.044 3 
0.472 -0.116 0.044 3 
0.472 -0.136 0.044 3 
0.473 -0.145 0.044 3 
0.473 -0.156 0.044 3 
0.473 -0.176 0.044 3 
0.474 -0.186 0.044 3 
0.475 -0.189 0.044 3 
0.475 -0.195 0.044 3 
0.475 -0.216 0.044 3 
0.474 -0.221 0.044 3 
0.475 -0.228 0.044 3 
0.476 -0.237 0.044 3 
0.472 -0.105 0.044 3 
0.476 -0.265 0.044 3 
0.477 -0.276 0.044 3 
0.48 -0.297 0.043 3 
0.48 -0.307 0.043 3 
0.482 -0.347 0.043 3 
0.464 0.083 0.041 3 
0.465 0.054 0.042 3 
0.465 0.008 0.042 3 
0.465 0.04 0.039 3 
0.465 0.016 0.039 3 
0.456 0.331 0.034 3 
0.46 0.024 0.044 3 
0.463 0.113 0.044 3 
0.464 0.102 0.044 3 
0.464 0.094 0.044 3 
0.465 0.089 0.044 3 
0.465 0.083 0.044 3 
0.465 0.073 0.044 3 
0.465 0.064 0.044 3 
0.464 0.056 0.044 3 
0.464 0.054 0.044 3 
0.464 0.043 0.044 3 
0.461 0.032 0.044 3 
0.472 -0.136 0.052 3 
0.463 0.014 0.044 3 
0.464 0.003 0.044 3 
0.465 0 0.044 3 
0.466 -0.007 0.044 3 
0.467 -0.015 0.044 3 
0.468 -0.025 0.044 3 
0.469 -0.055 0.044 3 
0.464 0.07 0.039 3 
0.469 -0.077 0.044 3 
0.47 -0.086 0.044 3 
0.471 -0.097 0.044 3 
0.46 0.053 0.06 3 
0.477 -0.247 0.064 3 
0.477 -0.257 0.064 3 
0.477 -0.266 0.064 3 
0.477 -0.276 0.064 3 
0.477 -0.285 0.064 3 
0.48 -0.307 0.064 3 
0.481 -0.318 0.064 3 
0.482 -0.326 0.064 3 
0.482 -0.336 0.064 3 
0.467 0.103 0.06 3 
0.475 0.098 0.06 3 
0.476 -0.237 0.064 3 
0.46 0.273 0.054 3 
0.467 -0.031 0.06 3 
0.465 -0.047 0.06 3 
0.462 -0.057 0.06 3 
0.463 -0.068 0.06 3 
0.46 0.104 0.057 3 
0.463 0.094 0.057 3 
0.452 0.044 0.058 3 
0.345 0.018 0.057 3 
0.472 -0.125 0.063 3 
0.467 -0.036 0.063 3 
0.464 -0.038 0.063 3 
0.341 0.027 0.086 3 
0.368 -0.039 0.061 3 
0.366 -0.047 0.061 3 
0.472 -0.097 0.063 3 
0.472 -0.106 0.063 3 
0.472 -0.116 0.063 3 
0.484 -0.345 0.052 3 
0.465 -0.055 0.058 3 
0.473 -0.136 0.063 3 
0.474 -0.145 0.063 3 
0.473 -0.165 0.063 3 
0.474 -0.177 0.064 3 
0.461 0.212 0.022 3 
0.474 -0.185 0.064 3 
0.475 -0.189 0.064 3 
0.466 -0.015 0.034 3 
0.475 -0.195 0.064 3 
0.475 -0.207 0.064 3 
0.475 -0.216 0.064 3 
0.376 0.004 0.054 3 
0.463 0.132 0.052 3 
0.463 0.124 0.052 3 
0.463 0.113 0.052 3 
0.463 0.102 0.052 3 
0.465 0.091 0.052 3 
0.466 0.073 0.052 3 
0.465 0.064 0.052 3 
0.459 0.042 0.052 3 
0.366 0.023 0.054 3 
0.353 0.017 0.054 3 
0.345 0.014 0.054 3 
0.338 0.012 0.054 3 
0.463 0.143 0.052 3 
0.372 0.002 0.054 3 
0.468 -0.028 0.052 3 
0.458 0.284 0.013 3 
0.468 -0.036 0.052 3 
0.467 -0.047 0.052 3 
0.467 -0.055 0.052 3 
0.468 -0.066 0.052 3 
0.47 -0.086 0.052 3 
0.472 -0.105 0.052 3 
0.471 -0.116 0.052 3 
0.471 -0.127 0.052 3 
0.46 0.234 0.054 3 
0.466 -0.066 0.058 3 
0.461 0.164 0.033 3 
0.469 -0.077 0.058 3 
0.471 -0.086 0.058 3 
0.459 0.324 0.054 3 
0.459 0.314 0.054 3 
0.459 0.304 0.054 3 
0.459 0.292 0.054 3 
0.46 0.282 0.054 3 
0.46 0.264 0.054 3 
0.461 0.253 0.054 3 
0.459 0.324 0.034 3 
0.46 0.223 0.054 3 
0.461 0.212 0.054 3 
0.462 0.204 0.054 3 
0.462 0.193 0.054 3 
0.464 0.083 0.055 3 
0.467 0.046 0.055 3 
0.461 0.172 0.052 3 
0.462 0.164 0.052 3 
0.463 0.154 0.052 3 
0.459 0.294 0.012 3 
0.473 -0.156 0.022 3 
0.473 -0.165 0.022 3 
0.473 -0.176 0.022 3 
0.464 0.024 0.02 3 
0.474 -0.227 0.018 3 
0.478 -0.289 0.014 3 
0.481 -0.346 0.004 3 
0.48 -0.328 0.014 3 
0.48 -0.338 0.013 3 
0.481 -0.346 0.013 3 
0.458 0.313 0.012 3 
0.458 0.303 0.012 3 
0.472 -0.147 0.022 3 
0.458 0.263 0.013 3 
0.458 0.254 0.013 3 
0.458 0.242 0.014 3 
0.458 0.233 0.014 3 
0.458 0.224 0.014 3 
0.46 0.203 0.014 3 
0.46 0.194 0.014 3 
0.46 0.183 0.014 3 
0.46 0.172 0.014 3 
0.46 0.164 0.014 3 
0.469 -0.107 0.014 3 
0.467 0.003 0.023 3 
0.463 0.112 0.023 3 
0.463 0.104 0.023 3 
0.463 0.094 0.023 3 
0.463 0.083 0.023 3 
0.463 0.072 0.023 3 
0.464 0.064 0.023 3 
0.463 0.053 0.023 3 
0.464 0.043 0.023 3 
0.464 0.032 0.023 3 
0.465 0.027 0.023 3 
0.465 0.024 0.023 3 
0.465 0.014 0.023 3 
0.469 -0.115 0.014 3 
0.467 -0.007 0.023 3 
0.466 -0.025 0.023 3 
0.466 -0.036 0.023 3 
0.467 -0.047 0.023 3 
0.468 -0.055 0.023 3 
0.469 -0.077 0.023 3 
0.47 -0.096 0.023 3 
0.47 -0.105 0.022 3 
0.47 -0.116 0.022 3 
0.471 -0.127 0.022 3 
0.471 -0.136 0.022 3 
0.463 0.053 0.004 3 
0.464 -0.047 0.012 3 
0.465 -0.052 0.012 3 
0.465 -0.055 0.012 3 
0.467 -0.066 0.012 3 
0.468 -0.077 0.012 3 
0.482 -0.337 0.004 3 
0.48 -0.356 0.004 3 
0.474 -0.215 0.004 3 
0.475 -0.219 0.004 3 
0.477 -0.236 0.004 3 
0.464 0.072 0.004 3 
0.464 0.064 0.004 3 
0.465 -0.036 0.012 3 
0.464 0.043 0.004 3 
0.467 -0.015 0.004 3 
0.467 -0.026 0.004 3 
0.469 -0.055 0.004 3 
0.473 -0.117 0.003 3 
0.473 -0.137 0.003 3 
0.473 -0.145 0.003 3 
0.473 -0.157 0.002 3 
0.473 -0.165 0.002 3 
0.466 0.073 0.001 3 
0.465 0.043 0.001 3 
0.476 -0.277 0.012 3 
0.47 -0.135 0.014 3 
0.472 -0.147 0.014 3 
0.472 -0.156 0.014 3 
0.471 -0.167 0.014 3 
0.471 -0.175 0.014 3 
0.472 -0.185 0.014 3 
0.473 -0.197 0.013 3 
0.473 -0.215 0.013 3 
0.473 -0.227 0.013 3 
0.475 -0.234 0.013 3 
0.476 -0.256 0.012 3 
0.463 0.123 0.023 3 
0.461 0.153 0.012 3 
0.46 0.142 0.012 3 
0.462 0.134 0.012 3 
0.462 0.104 0.012 3 
0.461 0.093 0.012 3 
0.462 0.083 0.012 3 
0.462 0.074 0.012 3 
0.462 0.064 0.013 3 
0.462 0.053 0.013 3 
0.465 -0.015 0.012 3 
0.465 -0.025 0.012 3 
0.466 -0.025 0.034 3 
0.464 0.072 0.034 3 
0.465 0.067 0.033 3 
0.464 0.064 0.034 3 
0.464 0.054 0.034 3 
0.465 0.048 0.034 3 
0.465 0.043 0.034 3 
0.465 0.032 0.034 3 
0.47 -0.085 0.023 3 
0.465 0.024 0.034 3 
0.466 0.014 0.034 3 
0.466 0.003 0.034 3 
0.467 -0.007 0.034 3 
0.464 0.083 0.033 3 
0.467 -0.036 0.034 3 
0.469 -0.077 0.033 3 
0.471 -0.097 0.033 3 
0.472 -0.105 0.033 3 
0.473 -0.125 0.003 3 
0.471 -0.116 0.033 3 
0.461 0.122 0.012 3 
0.471 -0.127 0.033 3 
0.472 -0.136 0.033 3 
0.473 -0.145 0.033 3 
0.474 -0.157 0.033 3 
0.465 0.062 0.001 3 
0.458 0.313 0.034 3 
0.474 -0.197 0.036 3 
0.481 -0.311 0.034 3 
0.48 -0.327 0.034 3 
0.481 -0.339 0.034 3 
0.482 -0.347 0.034 3 
0.46 0.292 0.032 3 
0.46 0.283 0.032 3 
0.46 0.264 0.032 3 
0.459 0.251 0.032 3 
0.46 0.234 0.033 3 
0.474 -0.165 0.033 3 
0.46 0.223 0.033 3 
0.461 0.212 0.033 3 
0.461 0.203 0.033 3 
0.461 0.192 0.033 3 
0.462 0.173 0.033 3 
0.462 0.142 0.033 3 
0.462 0.134 0.033 3 
0.463 0.124 0.033 3 
0.463 0.112 0.033 3 
0.463 0.104 0.033 3 
0.464 0.094 0.033 3 
0.48 -0.317 0.023 3 
0.464 0.043 0.026 3 
0.464 0.032 0.026 3 
0.473 -0.194 0.024 3 
0.473 -0.197 0.024 3 
0.474 -0.206 0.024 3 
0.474 -0.215 0.024 3 
0.476 -0.247 0.024 3 
0.476 -0.256 0.024 3 
0.477 -0.266 0.024 3 
0.477 -0.275 0.023 3 
0.477 -0.285 0.023 3 
0.48 -0.307 0.023 3 
0.46 0.234 0.024 3 
0.48 -0.327 0.023 3 
0.481 -0.335 0.022 3 
0.483 -0.345 0.022 3 
0.481 -0.357 0.022 3 
0.461 0.203 0.022 3 
0.461 0.184 0.022 3 
0.461 0.172 0.022 3 
0.461 0.164 0.022 3 
0.461 0.153 0.022 3 
0.461 0.142 0.023 3 
0.462 0.134 0.023 3 
0.478 -0.285 0.032 3 
0.473 -0.185 0.033 3 
0.474 -0.197 0.033 3 
0.475 -0.204 0.033 3 
0.475 -0.21 0.033 3 
0.474 -0.215 0.033 3 
0.475 -0.225 0.033 3 
0.476 -0.238 0.032 3 
0.476 -0.247 0.032 3 
0.476 -0.256 0.032 3 
0.477 -0.266 0.032 3 
0.478 -0.276 0.032 3 
0.463 -0.046 0.063 3 
0.479 -0.296 0.032 3 
0.481 -0.356 0.031 3 
0.455 0.33 0.023 3 
0.456 0.324 0.023 3 
0.459 0.313 0.023 3 
0.459 0.304 0.023 3 
0.459 0.282 0.024 3 
0.459 0.272 0.024 3 
0.459 0.263 0.024 3 
0.459 0.251 0.024 3 
0.46 0.243 0.024 3 
0.479 -0.286 0.044 3 
0.474 -0.162 0.094 3 
0.475 -0.166 0.094 3 
0.474 -0.177 0.094 3 
0.475 -0.186 0.094 3 
0.485 -0.343 0.097 3 
0.468 -0.033 0.09 3 
0.476 -0.196 0.092 3 
0.476 -0.207 0.092 3 
0.476 -0.216 0.092 3 
0.476 -0.225 0.092 3 
0.477 -0.235 0.092 3 
0.477 -0.247 0.092 3 
0.475 -0.157 0.094 3 
0.477 -0.257 0.092 3 
0.478 -0.267 0.093 3 
0.472 -0.125 0.044 3 
0.478 -0.277 0.093 3 
0.459 0.294 0.024 3 
0.479 -0.297 0.093 3 
0.481 -0.309 0.094 3 
0.481 -0.315 0.094 3 
0.482 -0.327 0.094 3 
0.483 -0.335 0.094 3 
0.485 -0.343 0.094 3 
0.468 -0.047 0.093 3 
0.351 -0.006 0.071 3 
0.463 0.124 0.092 3 
0.464 0.113 0.092 3 
0.464 0.102 0.092 3 
0.464 0.094 0.092 3 
0.464 0.083 0.092 3 
0.463 0.054 0.092 3 
0.466 0.084 0.052 3 
0.305 0.02 0.074 3 
0.481 -0.035 0.094 3 
0.468 -0.036 0.093 3 
0.485 -0.346 0.094 3 
0.469 -0.055 0.093 3 
0.469 -0.066 0.093 3 
0.47 -0.075 0.093 3 
0.471 -0.086 0.093 3 
0.472 -0.097 0.093 3 
0.472 -0.106 0.094 3 
0.472 -0.117 0.094 3 
0.472 -0.125 0.094 3 
0.461 0.192 0.022 3 
0.472 -0.136 0.094 3 
0.475 -0.151 0.094 3 
0.47 -0.066 0.082 3 
0.476 -0.256 0.004 3 
0.484 -0.345 0.088 3 
0.459 0.314 0.082 3 
0.459 0.301 0.082 3 
0.459 0.292 0.082 3 
0.46 0.283 0.082 3 
0.305 0.007 0.069 3 
0.306 0.004 0.069 3 
0.468 -0.034 0.082 3 
0.471 -0.037 0.082 3 
0.47 -0.045 0.082 3 
0.469 -0.055 0.082 3 
0.473 -0.156 0.063 3 
0.47 -0.077 0.082 3 
0.471 -0.086 0.082 3 
0.472 -0.097 0.082 3 
0.472 -0.105 0.083 3 
0.471 -0.116 0.083 3 
0.471 -0.127 0.083 3 
0.472 -0.136 0.083 3 
0.474 -0.157 0.083 3 
0.474 -0.165 0.083 3 
0.474 -0.177 0.083 3 
0.457 0.332 0.054 3 
0.474 -0.185 0.089 3 
0.46 0.262 0.084 3 
0.461 0.253 0.084 3 
0.461 0.244 0.084 3 
0.461 0.232 0.084 3 
0.461 0.224 0.084 3 
0.461 0.212 0.084 3 
0.462 0.204 0.084 3 
0.462 0.193 0.084 3 
0.462 0.184 0.084 3 
0.462 0.173 0.084 3 
0.463 0.132 0.092 3 
0.462 0.162 0.084 3 
0.462 0.153 0.084 3 
0.463 0.132 0.084 3 
0.463 0.124 0.084 3 
0.476 -0.268 0.012 3 
0.464 0.113 0.084 3 
0.464 0.094 0.084 3 
0.463 0.083 0.084 3 
0.462 0.072 0.084 3 
0.461 0.064 0.084 3 
0.459 0.053 0.084 3 
0.464 0.062 0.103 3 
0.462 0.173 0.103 3 
0.462 0.162 0.103 3 
0.463 0.154 0.103 3 
0.462 0.143 0.103 3 
0.463 0.132 0.103 3 
0.464 0.124 0.103 3 
0.47 -0.097 0.003 3 
0.464 0.113 0.103 3 
0.464 0.102 0.103 3 
0.464 0.083 0.103 3 
0.464 0.073 0.103 3 
0.475 -0.207 0.044 3 
0.463 0.054 0.103 3 
0.469 -0.047 0.104 3 
0.47 -0.055 0.104 3 
0.47 -0.066 0.104 3 
0.47 -0.075 0.104 3 
0.472 -0.097 0.104 3 
0.484 -0.347 0.11 3 
0.457 0.332 0.102 3 
0.46 0.322 0.102 3 
0.309 -0.004 0.078 3 
0.472 -0.106 0.102 3 
0.457 0.332 0.082 3 
0.295 0.014 0.078 3 
0.48 -0.327 0.043 3 
0.474 -0.168 0.108 3 
0.483 -0.318 0.112 3 
0.483 -0.325 0.112 3 
0.483 -0.335 0.112 3 
0.485 -0.348 0.113 3 
0.46 0.306 0.104 3 
0.461 0.297 0.104 3 
0.46 0.293 0.104 3 
0.461 0.282 0.104 3 
0.468 -0.036 0.044 3 
0.46 0.262 0.104 3 
0.46 0.253 0.104 3 
0.459 0.324 0.082 3 
0.461 0.242 0.104 3 
0.461 0.233 0.103 3 
0.458 0.272 0.013 3 
0.462 0.213 0.103 3 
0.462 0.193 0.103 3 
0.482 -0.326 0.073 3 
0.462 0.184 0.103 3 
0.46 0.262 0.093 3 
0.301 0.018 0.074 3 
0.493 -0.042 0.078 3 
0.299 0.014 0.074 3 
0.295 0.003 0.074 3 
0.331 -0.005 0.078 3 
0.457 0.332 0.093 3 
0.46 0.322 0.093 3 
0.46 0.312 0.093 3 
0.46 0.303 0.093 3 
0.462 0.213 0.092 3 
0.46 0.274 0.093 3 
0.485 -0.348 0.104 3 
0.459 0.252 0.093 3 
0.461 0.244 0.093 3 
0.461 0.232 0.093 3 
0.462 0.224 0.093 3 
0.463 0.193 0.092 3 
0.462 0.184 0.092 3 
0.462 0.173 0.092 3 
0.464 0.062 0.052 3 
0.476 -0.265 0.004 3 
0.462 0.154 0.092 3 
0.462 0.143 0.092 3 
0.476 -0.216 0.103 3 
0.473 -0.117 0.102 3 
0.473 -0.126 0.102 3 
0.473 -0.137 0.102 3 
0.473 -0.145 0.102 3 
0.475 -0.154 0.102 3 
0.475 -0.157 0.102 3 
0.475 -0.166 0.103 3 
0.475 -0.175 0.103 3 
0.476 -0.187 0.103 3 
0.476 -0.196 0.103 3 
0.463 0.154 0.063 3 
0.477 -0.226 0.104 3 
0.481 -0.338 0.043 3 
0.478 -0.245 0.104 3 
0.478 -0.255 0.104 3 
0.479 -0.265 0.104 3 
0.479 -0.278 0.102 3 
0.479 -0.287 0.102 3 
0.479 -0.297 0.102 3 
0.48 -0.305 0.102 3 
0.483 -0.328 0.103 3 
0.483 -0.335 0.103 3 
0.345 0.032 0.064 3 
0.355 0.03 0.064 3 
0.329 0.023 0.063 3 
0.319 0.005 0.063 3 
0.327 0 0.063 3 
0.351 -0.006 0.064 3 
0.333 -0.011 0.063 3 
0.34 -0.014 0.064 3 
0.336 -0.016 0.064 3 
0.462 0.184 0.033 3 
0.338 0.034 0.064 3 
0.489 -0.073 0.069 3 
0.456 0.323 0.012 3 
0.489 -0.076 0.069 3 
0.478 -0.286 0.073 3 
0.474 -0.157 0.072 3 
0.475 -0.225 0.004 3 
0.474 -0.185 0.083 3 
0.476 -0.195 0.072 3 
0.475 -0.216 0.072 3 
0.476 -0.225 0.072 3 
0.476 -0.237 0.072 3 
0.471 -0.086 0.033 3 
0.476 -0.247 0.072 3 
0.477 -0.257 0.072 3 
0.477 -0.266 0.072 3 
0.477 -0.276 0.072 3 
0.361 0.042 0.063 3 
0.479 -0.297 0.073 3 
0.48 -0.308 0.073 3 
0.482 -0.319 0.073 3 
0.482 -0.336 0.073 3 
0.484 -0.345 0.073 3 
0.467 0.103 0.068 3 
0.35 0.043 0.064 3 
0.337 0.038 0.064 3 
0.473 0.086 0.063 3 
0.462 0.193 0.063 3 
0.462 0.184 0.063 3 
0.462 0.173 0.063 3 
0.464 -0.039 0.012 3 
0.463 0.132 0.063 3 
0.462 0.123 0.063 3 
0.459 0.114 0.063 3 
0.452 0.109 0.063 3 
0.445 0.083 0.062 3 
0.462 0.204 0.063 3 
0.488 0.087 0.063 3 
0.468 0.071 0.063 3 
0.463 0.067 0.063 3 
0.461 0.064 0.063 3 
0.425 0.047 0.062 3 
0.468 -0.047 0.044 3 
0.427 0.042 0.062 3 
0.328 0.014 0.06 3 
0.369 -0.006 0.061 3 
0.379 -0.008 0.061 3 
0.335 -0.003 0.062 3 
0.46 0.292 0.043 3 
0.474 -0.206 0.033 3 
0.474 -0.165 0.072 3 
0.46 0.243 0.032 3 
0.459 0.324 0.062 3 
0.459 0.314 0.062 3 
0.459 0.304 0.062 3 
0.459 0.292 0.062 3 
0.459 0.282 0.062 3 
0.461 0.262 0.062 3 
0.461 0.253 0.062 3 
0.46 0.243 0.062 3 
0.461 0.223 0.063 3 
0.461 0.212 0.063 3 
0.458 0.313 0.074 3 
0.484 -0.345 0.082 3 
0.342 0.041 0.068 3 
0.308 0.032 0.066 3 
0.348 0.033 0.069 3 
0.342 0.028 0.068 3 
0.315 0.001 0.067 3 
0.37 -0.008 0.07 3 
0.319 -0.01 0.067 3 
0.329 -0.016 0.068 3 
0.457 0.332 0.074 3 
0.459 0.321 0.074 3 
0.483 -0.337 0.082 3 
0.459 0.301 0.074 3 
0.459 0.292 0.074 3 
0.46 0.283 0.074 3 
0.46 0.274 0.074 3 
0.461 0.262 0.073 3 
0.461 0.253 0.073 3 
0.461 0.232 0.073 3 
0.461 0.223 0.073 3 
0.461 0.212 0.073 3 
0.424 0.044 0.062 3 
0.477 -0.276 0.084 3 
0.475 -0.189 0.083 3 
0.475 -0.195 0.083 3 
0.475 -0.207 0.083 3 
0.322 0.022 0.067 3 
0.476 -0.216 0.083 3 
0.476 -0.225 0.084 3 
0.477 -0.235 0.084 3 
0.472 -0.097 0.074 3 
0.477 -0.247 0.084 3 
0.477 -0.257 0.084 3 
0.477 -0.266 0.084 3 
0.461 0.244 0.073 3 
0.479 -0.287 0.084 3 
0.479 -0.297 0.084 3 
0.339 0.02 0.057 3 
0.448 0.066 0.078 3 
0.447 0.063 0.078 3 
0.329 0.025 0.069 3 
0.476 -0.04 0.08 3 
0.48 -0.046 0.08 3 
0.481 -0.315 0.082 3 
0.482 -0.326 0.082 3 
0.349 0.036 0.066 3 
0.341 -0.005 0.067 3 
0.311 -0.008 0.065 3 
0.472 -0.075 0.074 3 
0.472 -0.086 0.074 3 
0.471 -0.105 0.074 3 
0.471 -0.116 0.074 3 
0.472 -0.125 0.074 3 
0.473 -0.136 0.074 3 
0.473 -0.145 0.074 3 
0.462 0.193 0.073 3 
0.358 0.031 0.066 3 
0.326 0.023 0.065 3 
0.313 0.02 0.064 3 
0.475 -0.225 0.064 3 
0.315 0.017 0.064 3 
0.311 0.014 0.064 3 
0.303 0.01 0.064 3 
0.313 0.004 0.064 3 
0.317 0.003 0.064 3 
0.345 -0.02 0.066 3 
0.368 -0.026 0.067 3 
0.352 0.045 0.067 3 
0.461 0.203 0.073 3 
0.462 0.184 0.073 3 
0.462 0.173 0.073 3 
0.462 0.162 0.073 3 
0.462 0.153 0.073 3 
0.463 0.143 0.073 3 
0.463 0.124 0.073 3 
0.344 -0.02 0.067 3 
0.464 0.113 0.073 3 
0.464 0.102 0.073 3 
0.463 0.094 0.073 3 
0.327 -0.002 0.066 3 
0.584 -0.035 0.095 3 
0.584 -0.028 0.095 3 
0.587 -0.024 0.095 3 
0.587 -0.032 0.095 3 
0.594 -0.044 0.104 3 
0.592 -0.036 0.092 3 
0.583 -0.017 0.11 3 
0.592 -0.025 0.092 3 
0.595 -0.036 0.1 3 
0.598 -0.025 0.1 3 
