# .PCD v0.7 - Point Cloud Data file
FIELDS x y z intensity
SIZE 4 4 4 4
TYPE F F F F
COUNT 1 1 1 1
WIDTH 2336
HEIGHT 1
VIEWPOINT 0 0 0 1 0 0 0
POINTS 2336
DATA ascii
0.373 -0.237 -0.025 1 
0.375 -0.234 -0.026 1 
0.373 -0.225 -0.024 1 
0.364 -0.155 -0.018 1 
0.364 -0.136 -0.018 1 
0.362 -0.127 -0.017 1 
0.361 -0.106 -0.016 1 
0.362 -0.097 -0.016 1 
0.358 -0.079 -0.014 1 
0.36 -0.062 -0.015 1 
0.363 -0.033 -0.016 1 
0.358 0.022 -0.014 1 
0.359 0.024 -0.015 1 
0.36 0.033 -0.015 1 
0.359 0.038 -0.015 1 
0.358 0.043 -0.014 1 
0.36 0.063 -0.015 1 
0.356 0.074 -0.014 1 
0.354 0.082 -0.013 1 
0.353 0.104 -0.014 1 
0.352 0.113 -0.014 1 
0.353 0.124 -0.014 1 
0.352 0.134 -0.014 1 
0.352 0.136 -0.014 1 
0.351 0.158 -0.015 1 
0.367 -0.126 -0.017 1 
0.364 -0.085 -0.015 1 
0.365 -0.063 -0.015 1 
0.362 -0.055 -0.014 1 
0.36 0.083 -0.014 1 
0.36 0.086 -0.014 1 
0.362 0.093 -0.015 1 
0.361 0.101 -0.015 1 
0.358 0.103 -0.014 1 
0.358 0.116 -0.014 1 
0.359 0.124 -0.015 1 
0.353 0.17 -0.015 1 
0.352 0.173 -0.014 1 
0.353 0.214 -0.017 1 
0.352 0.215 -0.017 1 
0.381 -0.251 -0.025 1 
0.38 -0.247 -0.024 1 
0.38 -0.235 -0.023 1 
0.38 -0.225 -0.023 1 
0.374 -0.195 -0.02 1 
0.374 -0.186 -0.019 1 
0.373 -0.175 -0.018 1 
0.374 -0.136 -0.018 1 
0.372 -0.115 -0.016 1 
0.369 -0.095 -0.015 1 
0.37 -0.086 -0.015 1 
0.373 -0.075 -0.016 1 
0.369 -0.052 -0.014 1 
0.373 -0.045 -0.016 1 
0.374 -0.036 -0.016 1 
0.373 0.013 -0.016 1 
0.371 0.024 -0.015 1 
0.37 0.053 -0.015 1 
0.365 0.109 -0.014 1 
0.363 0.114 -0.014 1 
0.364 0.131 -0.015 1 
0.362 0.134 -0.014 1 
0.362 0.141 -0.014 1 
0.363 0.144 -0.015 1 
0.364 0.149 -0.015 1 
0.358 0.17 -0.014 1 
0.358 0.183 -0.015 1 
0.36 0.193 -0.016 1 
0.358 0.201 -0.016 1 
0.38 -0.196 -0.02 1 
0.374 -0.066 -0.014 1 
0.374 -0.059 -0.014 1 
0.374 0.006 -0.014 1 
0.373 0.064 -0.015 1 
0.374 0.083 -0.015 1 
0.374 0.1 -0.016 1 
0.372 0.123 -0.015 1 
0.373 0.133 -0.016 1 
0.368 0.142 -0.015 1 
0.358 0.047 -0.014 1 
0.392 -0.258 -0.024 1 
0.394 -0.258 -0.025 1 
0.396 -0.255 -0.025 1 
0.392 -0.245 -0.023 1 
0.391 -0.236 -0.022 1 
0.389 -0.229 -0.022 1 
0.383 -0.165 -0.017 1 
0.383 -0.163 -0.017 1 
0.383 -0.128 -0.016 1 
0.383 -0.115 -0.016 1 
0.383 -0.105 -0.016 1 
0.381 -0.096 -0.015 1 
0.384 -0.085 -0.016 1 
0.382 -0.075 -0.015 1 
0.379 -0.066 -0.014 1 
0.38 -0.06 -0.014 1 
0.382 -0.055 -0.015 1 
0.38 -0.039 -0.014 1 
0.383 -0.032 -0.015 1 
0.382 0.014 -0.015 1 
0.381 0.023 -0.015 1 
0.381 0.043 -0.015 1 
0.382 0.053 -0.016 1 
0.379 0.061 -0.015 1 
0.379 0.073 -0.015 1 
0.38 0.083 -0.015 1 
0.378 0.114 -0.015 1 
0.373 0.143 -0.014 1 
0.372 0.149 -0.014 1 
0.374 0.162 -0.015 1 
0.372 0.183 -0.016 1 
0.397 -0.256 -0.023 1 
0.392 -0.218 -0.02 1 
0.39 -0.115 -0.016 1 
0.374 -0.224 -0.025 1 
0.391 -0.107 -0.017 1 
0.386 -0.046 -0.014 1 
0.386 -0.04 -0.014 1 
0.389 -0.033 -0.015 1 
0.298 -0.005 0.013 1 
0.298 0.002 0.013 1 
0.384 0.067 -0.014 1 
0.384 0.099 -0.015 1 
0.382 0.122 -0.015 1 
0.381 0.124 -0.014 1 
0.382 0.133 -0.015 1 
0.38 0.142 -0.015 1 
0.377 0.144 -0.014 1 
0.381 0.163 -0.016 1 
0.372 0.223 -0.016 1 
0.369 0.234 -0.015 1 
0.404 -0.266 -0.023 1 
0.393 -0.205 -0.018 1 
0.394 -0.187 -0.017 1 
0.394 -0.158 -0.017 1 
0.394 -0.132 -0.016 1 
0.394 -0.075 -0.015 1 
0.393 -0.066 -0.015 1 
0.395 -0.058 -0.015 1 
0.394 -0.056 -0.015 1 
0.393 -0.046 -0.015 1 
0.383 0.006 -0.012 1 
0.362 -0.146 -0.017 1 
0.393 0.033 -0.015 1 
0.392 0.043 -0.015 1 
0.392 0.053 -0.015 1 
0.391 0.063 -0.015 1 
0.392 0.073 -0.015 1 
0.392 0.084 -0.015 1 
0.39 0.089 -0.015 1 
0.389 0.093 -0.014 1 
0.389 0.099 -0.014 1 
0.39 0.104 -0.015 1 
0.39 0.114 -0.015 1 
0.384 0.159 -0.014 1 
0.374 0.152 -0.015 1 
0.377 0.233 -0.016 1 
0.378 0.244 -0.017 1 
0.382 -0.215 -0.021 1 
0.404 -0.232 -0.019 1 
0.404 -0.215 -0.019 1 
0.4 -0.167 -0.016 1 
0.401 -0.156 -0.016 1 
0.401 -0.147 -0.016 1 
0.4 -0.135 -0.016 1 
0.402 -0.105 -0.016 1 
0.402 -0.095 -0.016 1 
0.399 -0.076 -0.015 1 
0.399 -0.045 -0.014 1 
0.402 -0.037 -0.015 1 
0.473 -0.04 -0.037 1 
0.363 0.073 -0.015 1 
0.399 0.023 -0.015 1 
0.396 0.113 -0.015 1 
0.395 0.121 -0.015 1 
0.394 0.123 -0.014 1 
0.394 0.129 -0.015 1 
0.393 0.133 -0.014 1 
0.393 0.137 -0.014 1 
0.393 0.144 -0.015 1 
0.392 0.152 -0.015 1 
0.391 0.153 -0.014 1 
0.39 0.161 -0.014 1 
0.391 0.164 -0.015 1 
0.389 0.177 -0.015 1 
0.384 0.2 -0.014 1 
0.384 0.25 -0.016 1 
0.412 -0.266 -0.021 1 
0.413 -0.256 -0.021 1 
0.414 -0.236 -0.02 1 
0.403 -0.185 -0.016 1 
0.404 -0.179 -0.016 1 
0.406 -0.085 -0.015 1 
0.406 -0.083 -0.015 1 
0.404 -0.065 -0.014 1 
0.404 -0.041 -0.014 1 
0.478 -0.046 -0.036 1 
0.475 -0.04 -0.035 1 
0.404 0.024 -0.014 1 
0.404 0.034 -0.014 1 
0.403 0.053 -0.014 1 
0.403 0.073 -0.014 1 
0.374 -0.105 -0.017 1 
0.4 0.124 -0.014 1 
0.394 0.167 -0.014 1 
0.392 0.193 -0.014 1 
0.392 0.205 -0.014 1 
0.389 0.204 -0.014 1 
0.394 0.223 -0.016 1 
0.392 0.244 -0.016 1 
0.414 -0.286 -0.02 1 
0.413 -0.218 -0.017 1 
0.41 -0.205 -0.016 1 
0.409 -0.195 -0.015 1 
0.411 -0.186 -0.016 1 
0.413 -0.166 -0.016 1 
0.412 -0.147 -0.015 1 
0.35 0.193 -0.017 1 
0.412 -0.135 -0.015 1 
0.413 -0.126 -0.015 1 
0.415 -0.114 -0.015 1 
0.414 -0.106 -0.015 1 
0.413 -0.103 -0.015 1 
0.411 -0.087 -0.014 1 
0.413 -0.074 -0.014 1 
0.414 -0.066 -0.015 1 
0.413 -0.045 -0.014 1 
0.409 0.024 -0.013 1 
0.411 0.053 -0.014 1 
0.41 0.064 -0.014 1 
0.409 0.083 -0.014 1 
0.409 0.122 -0.015 1 
0.403 0.134 -0.013 1 
0.402 0.142 -0.013 1 
0.402 0.154 -0.013 1 
0.401 0.162 -0.013 1 
0.403 0.183 -0.015 1 
0.402 0.189 -0.015 1 
0.401 0.193 -0.014 1 
0.399 0.223 -0.015 1 
0.399 0.233 -0.015 1 
0.394 0.259 -0.015 1 
0.424 -0.288 -0.02 1 
0.424 -0.265 -0.019 1 
0.422 -0.257 -0.018 1 
0.421 -0.245 -0.018 1 
0.423 -0.236 -0.018 1 
0.42 -0.226 -0.017 1 
0.418 -0.157 -0.015 1 
0.384 -0.19 -0.019 1 
0.389 -0.146 -0.017 1 
0.401 0.104 -0.014 1 
0.421 -0.044 -0.014 1 
0.363 -0.036 -0.016 1 
0.397 0.006 -0.008 1 
0.372 0.033 -0.016 1 
0.414 0.013 -0.013 1 
0.414 0.065 -0.013 1 
0.411 0.134 -0.013 1 
0.41 0.154 -0.013 1 
0.4 0.207 -0.012 1 
0.406 0.232 -0.015 1 
0.404 0.243 -0.015 1 
0.402 0.246 -0.014 1 
0.402 0.252 -0.015 1 
0.4 0.263 -0.015 1 
0.403 0.272 -0.016 1 
0.423 -0.216 -0.015 1 
0.425 -0.205 -0.015 1 
0.424 -0.199 -0.015 1 
0.427 -0.186 -0.015 1 
0.425 -0.177 -0.015 1 
0.427 -0.165 -0.015 1 
0.426 -0.162 -0.015 1 
0.423 -0.158 -0.014 1 
0.421 -0.147 -0.013 1 
0.421 -0.135 -0.013 1 
0.424 -0.13 -0.014 1 
0.423 -0.115 -0.013 1 
0.366 0.214 -0.015 1 
0.424 -0.106 -0.013 1 
0.424 -0.096 -0.013 1 
0.424 -0.087 -0.013 1 
0.424 -0.075 -0.013 1 
0.424 -0.066 -0.013 1 
0.424 -0.057 -0.013 1 
0.424 -0.047 -0.013 1 
0.429 -0.043 -0.014 1 
0.422 0.023 -0.013 1 
0.418 -0.177 -0.015 1 
0.421 0.044 -0.012 1 
0.421 0.053 -0.012 1 
0.421 0.064 -0.013 1 
0.42 0.073 -0.012 1 
0.418 0.124 -0.013 1 
0.414 0.143 -0.012 1 
0.412 0.163 -0.012 1 
0.362 0.163 -0.015 1 
0.413 0.174 -0.013 1 
0.414 0.194 -0.013 1 
0.398 0.056 -0.015 1 
0.41 0.21 -0.013 1 
0.412 0.238 -0.014 1 
0.412 0.243 -0.015 1 
0.409 0.273 -0.015 1 
0.411 0.281 -0.016 1 
0.43 -0.307 -0.017 1 
0.432 -0.285 -0.017 1 
0.432 -0.276 -0.017 1 
0.431 -0.255 -0.016 1 
0.432 -0.247 -0.016 1 
0.432 -0.228 -0.015 1 
0.43 -0.219 -0.015 1 
0.428 -0.207 -0.014 1 
0.431 -0.176 -0.014 1 
0.431 -0.126 -0.013 1 
0.429 -0.115 -0.012 1 
0.429 -0.105 -0.012 1 
0.432 -0.046 -0.013 1 
0.478 -0.046 -0.025 1 
0.48 -0.041 -0.025 1 
0.353 0.139 -0.015 1 
0.429 0.033 -0.012 1 
0.427 0.042 -0.012 1 
0.426 0.054 -0.011 1 
0.424 0.093 -0.011 1 
0.42 0.153 -0.011 1 
0.419 0.162 -0.011 1 
0.417 0.284 -0.015 1 
0.437 -0.296 -0.016 1 
0.436 -0.286 -0.015 1 
0.435 -0.276 -0.015 1 
0.434 -0.241 -0.013 1 
0.434 -0.222 -0.013 1 
0.382 -0.073 -0.015 1 
0.434 -0.196 -0.013 1 
0.434 -0.193 -0.012 1 
0.432 -0.156 -0.011 1 
0.432 -0.146 -0.011 1 
0.434 -0.095 -0.011 1 
0.434 -0.088 -0.011 1 
0.434 -0.08 -0.011 1 
0.434 -0.066 -0.011 1 
0.434 -0.063 -0.011 1 
0.402 0.064 -0.014 1 
0.443 -0.043 -0.013 1 
0.476 -0.04 -0.021 1 
0.324 -0.008 0.016 1 
0.331 0 0.015 1 
0.333 0.001 0.014 1 
0.434 0.06 -0.011 1 
0.433 0.072 -0.011 1 
0.432 0.094 -0.011 1 
0.431 0.123 -0.011 1 
0.423 0.173 -0.01 1 
0.424 0.184 -0.011 1 
0.424 0.194 -0.011 1 
0.421 0.204 -0.011 1 
0.421 0.233 -0.012 1 
0.421 0.241 -0.012 1 
0.421 0.274 -0.013 1 
0.418 0.283 -0.013 1 
0.441 -0.316 -0.015 1 
0.439 -0.311 -0.014 1 
0.44 -0.296 -0.014 1 
0.439 -0.286 -0.013 1 
0.434 -0.266 -0.012 1 
0.433 -0.256 -0.011 1 
0.434 -0.252 -0.011 1 
0.44 -0.226 -0.012 1 
0.441 -0.217 -0.012 1 
0.44 -0.195 -0.011 1 
0.44 -0.187 -0.011 1 
0.442 -0.175 -0.012 1 
0.442 -0.167 -0.011 1 
0.439 -0.155 -0.011 1 
0.442 -0.146 -0.011 1 
0.443 -0.136 -0.011 1 
0.441 -0.115 -0.01 1 
0.44 -0.105 -0.01 1 
0.412 -0.096 -0.014 1 
0.44 -0.095 -0.01 1 
0.424 0.084 -0.011 1 
0.441 -0.085 -0.01 1 
0.441 -0.075 -0.01 1 
0.439 -0.065 -0.01 1 
0.442 -0.055 -0.01 1 
0.333 -0.01 0.016 1 
0.342 -0.005 0.013 1 
0.344 0 0.013 1 
0.348 0.003 0.012 1 
0.442 0.032 -0.011 1 
0.441 0.042 -0.01 1 
0.44 0.054 -0.01 1 
0.434 0.141 -0.01 1 
0.434 0.154 -0.01 1 
0.432 0.164 -0.01 1 
0.423 0.224 -0.009 1 
0.423 0.254 -0.01 1 
0.42 0.291 -0.011 1 
0.444 -0.323 -0.013 1 
0.423 -0.213 -0.015 1 
0.454 -0.311 -0.015 1 
0.461 -0.309 -0.016 1 
0.443 -0.266 -0.011 1 
0.441 -0.247 -0.01 1 
0.414 0.103 -0.013 1 
0.444 -0.238 -0.011 1 
0.474 -0.037 -0.015 1 
0.342 -0.015 0.015 1 
0.359 0.014 -0.014 1 
0.404 -0.237 -0.022 1 
0.407 0.223 -0.015 1 
0.357 -0.006 0.011 1 
0.402 -0.275 -0.023 1 
0.362 0.002 0.01 1 
0.444 0.063 -0.009 1 
0.444 0.073 -0.009 1 
0.444 0.083 -0.009 1 
0.443 0.09 -0.009 1 
0.443 0.123 -0.009 1 
0.443 0.133 -0.009 1 
0.433 0.182 -0.008 1 
0.431 0.194 -0.008 1 
0.433 0.224 -0.009 1 
0.434 0.231 -0.01 1 
0.433 0.244 -0.01 1 
0.432 0.251 -0.01 1 
0.434 0.264 -0.011 1 
0.433 0.272 -0.011 1 
0.433 0.284 -0.011 1 
0.452 -0.278 -0.011 1 
0.449 -0.257 -0.01 1 
0.449 -0.245 -0.009 1 
0.452 -0.226 -0.01 1 
0.453 -0.215 -0.01 1 
0.453 -0.207 -0.009 1 
0.452 -0.195 -0.009 1 
0.452 -0.187 -0.009 1 
0.453 -0.155 -0.009 1 
0.453 -0.147 -0.009 1 
0.453 -0.136 -0.008 1 
0.453 -0.115 -0.008 1 
0.453 -0.107 -0.008 1 
0.453 -0.096 -0.008 1 
0.441 -0.206 -0.012 1 
0.453 -0.086 -0.008 1 
0.452 -0.065 -0.008 1 
0.454 -0.055 -0.008 1 
0.45 -0.027 -0.007 1 
0.442 -0.016 -0.005 1 
0.448 0.003 -0.007 1 
0.452 0.034 -0.008 1 
0.441 0.142 -0.009 1 
0.452 0.044 -0.008 1 
0.45 0.054 -0.008 1 
0.443 0.162 -0.008 1 
0.44 0.174 -0.007 1 
0.438 0.204 -0.007 1 
0.437 0.214 -0.007 1 
0.432 0.304 -0.009 1 
0.381 -0.206 -0.02 1 
0.453 -0.326 -0.01 1 
0.454 -0.324 -0.01 1 
0.454 -0.238 -0.007 1 
0.377 -0.239 -0.025 1 
0.458 -0.056 -0.006 1 
0.463 -0.036 -0.007 1 
0.456 0.003 -0.006 1 
0.455 0.024 -0.006 1 
0.455 0.057 -0.006 1 
0.454 0.062 -0.006 1 
0.453 0.083 -0.006 1 
0.454 0.093 -0.006 1 
0.453 0.114 -0.006 1 
0.452 0.132 -0.006 1 
0.451 0.153 -0.006 1 
0.448 0.162 -0.006 1 
0.444 0.222 -0.007 1 
0.442 0.243 -0.007 1 
0.442 0.272 -0.007 1 
0.441 0.283 -0.008 1 
0.46 -0.255 -0.006 1 
0.459 -0.177 -0.005 1 
0.46 -0.156 -0.005 1 
0.461 -0.083 -0.005 1 
0.46 0.037 -0.005 1 
0.455 0.144 -0.005 1 
0.454 0.154 -0.004 1 
0.452 0.162 -0.004 1 
0.451 0.17 -0.004 1 
0.451 0.18 -0.004 1 
0.393 0.232 -0.016 1 
0.451 0.183 -0.005 1 
0.45 0.193 -0.005 1 
0.451 0.202 -0.005 1 
0.45 0.213 -0.005 1 
0.451 0.222 -0.005 1 
0.45 0.233 -0.005 1 
0.448 0.243 -0.005 1 
0.447 0.253 -0.005 1 
0.447 0.262 -0.006 1 
0.448 0.272 -0.006 1 
0.446 0.282 -0.006 1 
0.446 0.288 -0.006 1 
0.444 0.292 -0.006 1 
0.443 0.303 -0.006 1 
0.439 0.312 -0.006 1 
0.465 -0.347 -0.007 1 
0.463 -0.337 -0.006 1 
0.465 -0.336 -0.007 1 
0.431 0.132 -0.011 1 
0.443 0.264 -0.007 1 
0.465 -0.326 -0.006 1 
0.381 0.184 -0.015 1 
0.464 -0.318 -0.006 1 
0.364 -0.083 -0.015 1 
0.465 -0.316 -0.006 1 
0.454 -0.048 -0.011 1 
0.465 -0.306 -0.006 1 
0.464 -0.295 -0.005 1 
0.462 -0.265 -0.004 1 
0.464 -0.255 -0.004 1 
0.466 -0.245 -0.005 1 
0.467 -0.239 -0.005 1 
0.463 -0.225 -0.004 1 
0.453 0.232 -0.003 1 
0.453 0.244 -0.004 1 
0.453 0.253 -0.004 1 
0.45 0.262 -0.003 1 
0.447 0.317 -0.005 1 
0.464 -0.342 -0.004 1 
0.464 -0.286 -0.002 1 
0.413 -0.076 -0.014 1 
0.464 -0.283 -0.002 1 
0.464 -0.217 -0.001 1 
0.464 -0.186 -0.001 1 
0.464 -0.177 -0.001 1 
0.404 -0.195 -0.016 1 
0.464 -0.155 0 1 
0.453 0.283 -0.002 1 
0.452 0.313 -0.003 1 
0.373 -0.205 -0.022 1 
0.424 0.107 -0.012 1 
0.465 -0.136 0.001 1 
0.465 -0.117 0.002 1 
0.465 -0.087 0.002 1 
0.465 -0.079 0.002 1 
0.464 -0.076 0.002 1 
0.451 -0.301 -0.014 1 
0.464 -0.07 0.002 1 
0.465 -0.065 0.002 1 
0.465 -0.055 0.002 1 
0.464 -0.046 0.002 1 
0.464 -0.015 0.002 1 
0.464 0.014 0.002 1 
0.463 0.024 0.002 1 
0.46 0.093 0.002 1 
0.46 0.103 0.002 1 
0.46 0.114 0.002 1 
0.454 0.299 0 1 
0.454 0.322 0 1 
0.469 -0.265 0.002 1 
0.468 -0.255 0.002 1 
0.468 -0.226 0.003 1 
0.467 -0.216 0.003 1 
0.467 -0.205 0.003 1 
0.466 -0.195 0.003 1 
0.466 -0.187 0.003 1 
0.465 -0.175 0.004 1 
0.465 -0.166 0.004 1 
0.465 -0.155 0.004 1 
0.465 -0.15 0.004 1 
0.464 -0.146 0.004 1 
0.464 -0.116 0.004 1 
0.464 -0.105 0.004 1 
0.464 -0.1 0.004 1 
0.46 0.122 0.004 1 
0.459 0.152 0.004 1 
0.46 0.164 0.004 1 
0.459 0.183 0.004 1 
0.459 0.194 0.003 1 
0.461 0.204 0.003 1 
0.46 0.223 0.003 1 
0.46 0.232 0.003 1 
0.46 0.244 0.002 1 
0.376 -0.175 -0.017 1 
0.461 0.262 0.002 1 
0.472 -0.337 0.003 1 
0.471 -0.325 0.003 1 
0.383 0.154 -0.014 1 
0.471 -0.315 0.003 1 
0.471 -0.305 0.004 1 
0.469 -0.287 0.004 1 
0.469 -0.278 0.004 1 
0.465 -0.158 0.007 1 
0.46 0.274 0.004 1 
0.459 0.282 0.004 1 
0.458 0.294 0.004 1 
0.458 0.303 0.004 1 
0.459 0.314 0.004 1 
0.459 0.32 0.003 1 
0.394 0.014 -0.015 1 
0.461 0.333 0.003 1 
0.46 0.214 0.003 1 
0.474 -0.045 -0.021 1 
0.456 0.134 -0.005 1 
0.462 -0.196 -0.006 1 
0.455 0.052 -0.006 1 
0.457 -0.007 -0.006 1 
0.458 -0.025 -0.007 1 
0.461 -0.046 -0.007 1 
0.458 -0.067 -0.006 1 
0.414 0.204 -0.011 1 
0.379 -0.146 -0.018 1 
0.461 -0.086 -0.005 1 
0.457 -0.106 -0.006 1 
0.457 -0.127 -0.007 1 
0.46 -0.145 -0.005 1 
0.46 -0.167 -0.005 1 
0.374 -0.033 -0.016 1 
0.382 0.193 -0.013 1 
0.442 -0.308 -0.015 1 
0.455 0.152 -0.005 1 
0.462 -0.187 -0.006 1 
0.461 -0.227 -0.006 1 
0.454 -0.314 -0.012 1 
0.46 -0.246 -0.006 1 
0.443 0.253 -0.007 1 
0.463 -0.285 -0.005 1 
0.434 -0.142 -0.012 1 
0.461 -0.325 -0.008 1 
0.402 -0.086 -0.016 1 
0.437 -0.275 -0.01 1 
0.413 0.112 -0.013 1 
0.373 0.173 -0.016 1 
0.413 0.123 -0.013 1 
0.389 0.172 -0.015 1 
0.431 0.103 -0.011 1 
0.438 0.103 -0.01 1 
0.452 0.143 -0.006 1 
0.465 -0.128 0.004 1 
0.47 -0.245 0.002 1 
0.454 0.073 -0.006 1 
0.464 -0.135 0.004 1 
0.452 0.124 -0.006 1 
0.439 0.012 -0.01 1 
0.465 -0.3 -0.006 1 
0.441 -0.255 -0.01 1 
0.454 0.325 -0.001 1 
0.454 0.193 -0.003 1 
0.373 0.073 -0.015 1 
0.361 -0.066 -0.015 1 
0.44 0.152 -0.009 1 
0.353 0.163 -0.014 1 
0.414 -0.039 -0.014 1 
0.464 -0.169 0.004 1 
0.464 0.339 0.002 1 
0.459 -0.217 -0.006 1 
0.381 -0.036 -0.015 1 
0.448 0.312 -0.005 1 
0.46 0.144 0.004 1 
0.394 -0.197 -0.018 1 
0.431 0.294 -0.011 1 
0.372 -0.215 -0.024 1 
0.442 -0.053 -0.01 1 
0.433 0.012 -0.011 1 
0.424 -0.276 -0.02 1 
0.431 0.113 -0.011 1 
0.423 -0.042 -0.015 1 
0.454 0.224 -0.003 1 
0.384 0.093 -0.015 1 
0.414 0.094 -0.013 1 
0.43 0.203 -0.008 1 
0.352 -0.011 0.013 1 
0.445 -0.021 -0.006 1 
0.457 -0.116 -0.007 1 
0.353 0.203 -0.016 1 
0.373 -0.227 -0.025 1 
0.395 0.214 -0.016 1 
0.464 -0.209 -0.001 1 
0.46 -0.139 -0.005 1 
0.41 -0.248 -0.022 1 
0.388 0.122 -0.015 1 
0.463 0.003 0.002 1 
0.47 -0.236 0.002 1 
0.373 0.062 -0.014 1 
0.413 0.223 -0.014 1 
0.411 -0.225 -0.019 1 
0.392 -0.095 -0.015 1 
0.432 -0.236 -0.015 1 
0.373 0.094 -0.015 1 
0.432 -0.267 -0.016 1 
0.384 0.061 -0.014 1 
0.434 0.082 -0.011 1 
0.393 -0.265 -0.027 1 
0.463 -0.025 0.002 1 
0.394 0.023 -0.015 1 
0.452 -0.125 -0.008 1 
0.413 -0.056 -0.014 1 
0.46 0.133 0.004 1 
0.38 0.203 -0.015 1 
0.423 0.133 -0.012 1 
0.448 -0.265 -0.01 1 
0.416 0.286 -0.015 1 
0.418 -0.165 -0.015 1 
0.464 -0.252 -0.004 1 
0.394 0.176 -0.014 1 
0.394 0.254 -0.015 1 
0.457 -0.017 -0.006 1 
0.401 0.177 -0.014 1 
0.423 0.014 -0.013 1 
0.46 0.172 0.004 1 
0.413 0.252 -0.013 1 
0.391 0.006 -0.008 1 
0.404 0.233 -0.014 1 
0.465 -0.095 0.002 1 
0.47 -0.298 0.004 1 
0.463 -0.269 -0.005 1 
0.398 0.054 -0.015 1 
0.381 0.033 -0.015 1 
0.413 0.183 -0.013 1 
0.371 0.114 -0.015 1 
0.359 0.223 -0.016 1 
0.411 0.044 -0.014 1 
0.398 0.071 -0.015 1 
0.432 -0.297 -0.017 1 
0.421 0.257 -0.01 1 
0.421 0.144 -0.011 1 
0.362 0.078 -0.015 1 
0.413 0.263 -0.013 1 
0.401 0.113 -0.014 1 
0.44 0.022 -0.01 1 
0.46 0.253 0.002 1 
0.394 -0.042 -0.015 1 
0.451 -0.286 -0.011 1 
0.394 -0.18 -0.017 1 
0.412 -0.175 -0.016 1 
0.379 0.154 -0.015 1 
0.423 0.1 -0.011 1 
0.399 -0.055 -0.014 1 
0.398 0.082 -0.015 1 
0.43 0.024 -0.012 1 
0.464 -0.007 0.002 1 
0.358 0.174 -0.015 1 
0.343 -0.013 0.015 1 
0.412 -0.156 -0.015 1 
0.401 -0.125 -0.016 1 
0.464 -0.133 0.004 1 
0.452 -0.075 -0.008 1 
0.39 -0.248 -0.025 1 
0.414 -0.12 -0.015 1 
0.364 -0.047 -0.014 1 
0.424 -0.194 -0.015 1 
0.451 -0.178 -0.009 1 
0.443 -0.006 -0.006 1 
0.443 0.113 -0.009 1 
0.385 0.049 -0.014 1 
0.4 0.174 -0.014 1 
0.374 -0.157 -0.018 1 
0.441 -0.125 -0.011 1 
0.353 0.182 -0.015 1 
0.375 0.216 -0.016 1 
0.464 -0.276 -0.005 1 
0.455 0.013 -0.006 1 
0.418 0.274 -0.015 1 
0.39 0.212 -0.016 1 
0.415 -0.125 -0.016 1 
0.464 -0.089 0 1 
0.451 0.272 -0.004 1 
0.452 0.294 -0.002 1 
0.366 0.087 -0.014 1 
0.403 0.083 -0.014 1 
0.443 0.191 -0.006 1 
0.462 0.083 0.002 1 
0.38 0.192 -0.015 1 
0.394 -0.091 -0.015 1 
0.404 0.043 -0.014 1 
0.411 0.033 -0.014 1 
0.359 -0.115 -0.015 1 
0.383 0.213 -0.016 1 
0.421 0.032 -0.012 1 
0.411 0.232 -0.014 1 
0.415 -0.116 -0.015 1 
0.403 0.204 -0.013 1 
0.461 -0.096 -0.005 1 
0.431 0.212 -0.008 1 
0.391 -0.098 -0.014 1 
0.425 -0.197 -0.015 1 
0.474 -0.034 -0.015 1 
0.364 0.046 -0.015 1 
0.401 -0.205 -0.018 1 
0.37 0.044 -0.015 1 
0.368 -0.146 -0.018 1 
0.456 0.034 -0.006 1 
0.434 -0.165 -0.012 1 
0.451 0.023 -0.008 1 
0.389 -0.165 -0.017 1 
0.411 -0.277 -0.021 1 
0.464 -0.057 0 1 
0.46 -0.206 -0.006 1 
0.463 -0.196 -0.003 1 
0.374 0.193 -0.015 1 
0.434 0.172 -0.008 1 
0.399 0.029 -0.015 1 
0.45 -0.166 -0.008 1 
0.452 0.173 -0.005 1 
0.384 0.173 -0.015 1 
0.42 0.214 -0.011 1 
0.37 -0.067 -0.015 1 
0.453 0.104 -0.006 1 
0.409 0.264 -0.015 1 
0.45 0.013 -0.007 1 
0.443 0.233 -0.007 1 
0.402 -0.116 -0.016 1 
0.461 -0.235 -0.006 1 
0.401 -0.247 -0.022 1 
0.382 -0.135 -0.018 1 
0.464 -0.311 -0.006 1 
0.394 -0.136 -0.016 1 
0.372 0.204 -0.017 1 
0.363 0.213 -0.016 1 
0.372 -0.165 -0.018 1 
0.372 0.067 -0.014 1 
0.41 0.191 -0.015 1 
0.438 0.183 -0.007 1 
0.381 -0.045 -0.015 1 
0.4 0.093 -0.014 1 
0.467 -0.115 0.153 3 
0.467 -0.107 0.153 3 
0.466 -0.126 0.153 3 
0.467 -0.135 0.153 3 
0.467 -0.146 0.153 3 
0.467 -0.157 0.154 3 
0.462 0.283 0.132 3 
0.467 -0.166 0.154 3 
0.468 -0.175 0.154 3 
0.477 -0.327 0.162 3 
0.478 -0.339 0.163 3 
0.479 -0.347 0.163 3 
0.461 0.339 0.154 3 
0.461 0.332 0.154 3 
0.46 0.234 0.062 3 
0.461 0.312 0.153 3 
0.462 0.303 0.153 3 
0.461 0.154 0.132 3 
0.463 0.291 0.153 3 
0.463 0.282 0.153 3 
0.463 0.073 0.143 3 
0.461 -0.006 0.094 3 
0.462 0.272 0.152 3 
0.462 0.212 0.153 3 
0.475 -0.279 0.162 3 
0.461 0.302 0.144 3 
0.476 -0.286 0.163 3 
0.476 -0.296 0.163 3 
0.474 -0.348 0.064 3 
0.476 -0.306 0.163 3 
0.476 -0.316 0.164 3 
0.463 0.254 0.154 3 
0.462 0.244 0.154 3 
0.46 0.234 0.153 3 
0.462 0.223 0.153 3 
0.46 0.152 0.033 3 
0.461 0.274 0.062 3 
0.461 0.194 0.152 3 
0.462 0.174 0.152 3 
0.463 0.133 0.152 3 
0.464 -0.033 0.151 3 
0.466 -0.195 0.014 3 
0.466 -0.077 0.152 3 
0.466 -0.085 0.152 3 
0.466 -0.096 0.152 3 
0.469 -0.247 0.094 3 
0.463 0.084 0.143 3 
0.461 0.194 0.144 3 
0.462 0.182 0.144 3 
0.461 0.173 0.144 3 
0.461 0.162 0.143 3 
0.461 0.154 0.143 3 
0.462 0.143 0.143 3 
0.462 0.132 0.143 3 
0.463 0.124 0.143 3 
0.462 0.113 0.143 3 
0.462 0.102 0.143 3 
0.462 0.094 0.143 3 
0.461 0.211 0.144 3 
0.462 0.064 0.143 3 
0.463 0.054 0.143 3 
0.462 0.032 0.143 3 
0.463 0.022 0.143 3 
0.462 0.014 0.143 3 
0.465 -0.186 0.014 3 
0.466 -0.066 0.163 3 
0.462 0.003 0.143 3 
0.477 -0.306 0.134 3 
0.463 -0.006 0.143 3 
0.464 -0.017 0.143 3 
0.47 -0.237 0.153 3 
0.465 -0.065 0.154 3 
0.464 -0.046 0.148 3 
0.462 0.082 0.052 3 
0.464 -0.063 0.149 3 
0.464 -0.065 0.149 3 
0.468 -0.186 0.152 3 
0.468 -0.195 0.152 3 
0.469 -0.206 0.152 3 
0.47 -0.216 0.153 3 
0.471 -0.226 0.153 3 
0.458 0.242 0.014 3 
0.462 0.262 0.152 3 
0.471 -0.247 0.154 3 
0.471 -0.256 0.154 3 
0.464 -0.076 0.146 3 
0.46 0.303 0.104 3 
0.473 -0.267 0.152 3 
0.473 -0.277 0.153 3 
0.46 0.203 0.063 3 
0.475 -0.288 0.154 3 
0.475 -0.295 0.154 3 
0.46 0.222 0.144 3 
0.47 -0.205 0.164 3 
0.462 0.242 0.162 3 
0.468 -0.135 0.162 3 
0.476 -0.355 0.163 3 
0.468 -0.155 0.162 3 
0.47 -0.276 0.083 3 
0.468 -0.166 0.162 3 
0.468 -0.175 0.163 3 
0.47 -0.188 0.164 3 
0.466 -0.106 0.104 3 
0.469 -0.256 0.052 3 
0.47 -0.196 0.164 3 
0.464 0.252 0.163 3 
0.466 -0.167 0.034 3 
0.47 -0.217 0.164 3 
0.478 -0.336 0.171 3 
0.479 -0.347 0.172 3 
0.477 -0.356 0.172 3 
0.474 -0.36 0.172 3 
0.463 0.342 0.164 3 
0.462 0.334 0.163 3 
0.461 0.272 0.104 3 
0.462 0.324 0.162 3 
0.462 0.314 0.162 3 
0.478 -0.308 0.173 3 
0.467 -0.077 0.163 3 
0.467 -0.085 0.163 3 
0.467 -0.096 0.164 3 
0.467 -0.107 0.164 3 
0.459 0.282 0.024 3 
0.467 -0.115 0.164 3 
0.468 -0.127 0.164 3 
0.467 -0.146 0.164 3 
0.475 -0.355 0.132 3 
0.477 -0.287 0.172 3 
0.476 -0.296 0.172 3 
0.461 0.134 0.073 3 
0.461 0.339 0.143 3 
0.477 -0.317 0.173 3 
0.477 -0.328 0.174 3 
0.465 -0.166 0.023 3 
0.463 0.292 0.164 3 
0.463 0.282 0.164 3 
0.464 -0.025 0.143 3 
0.469 -0.206 0.113 3 
0.464 0.274 0.164 3 
0.464 0.261 0.164 3 
0.464 0.003 0.154 3 
0.463 0.062 0.154 3 
0.464 0.054 0.154 3 
0.463 0.043 0.154 3 
0.464 -0.079 0.122 3 
0.463 0.033 0.154 3 
0.461 0.093 0.103 3 
0.475 -0.316 0.102 3 
0.464 -0.111 0.082 3 
0.464 0.022 0.154 3 
0.469 -0.247 0.033 3 
0.464 0.014 0.154 3 
0.463 0.073 0.154 3 
0.463 -0.006 0.154 3 
0.465 -0.014 0.154 3 
0.464 -0.017 0.154 3 
0.465 -0.02 0.154 3 
0.465 -0.025 0.154 3 
0.465 -0.036 0.154 3 
0.464 -0.038 0.154 3 
0.465 -0.047 0.154 3 
0.465 -0.055 0.154 3 
0.458 0.333 0.062 3 
0.461 0.204 0.114 3 
0.463 0.301 0.162 3 
0.464 -0.03 0.156 3 
0.464 -0.038 0.157 3 
0.472 -0.227 0.162 3 
0.466 -0.136 0.093 3 
0.472 -0.236 0.163 3 
0.472 -0.245 0.163 3 
0.473 -0.258 0.164 3 
0.459 0.242 0.043 3 
0.473 -0.267 0.164 3 
0.474 -0.275 0.164 3 
0.461 0.294 0.113 3 
0.474 -0.278 0.165 3 
0.46 0.183 0.033 3 
0.461 0.176 0.154 3 
0.462 0.157 0.154 3 
0.462 0.154 0.154 3 
0.463 0.138 0.154 3 
0.463 0.119 0.154 3 
0.463 0.114 0.154 3 
0.463 0.094 0.154 3 
0.464 0.084 0.154 3 
0.47 -0.227 0.133 3 
0.46 0.304 0.133 3 
0.46 0.291 0.132 3 
0.463 0.272 0.132 3 
0.462 0.262 0.132 3 
0.465 -0.073 0.13 3 
0.464 -0.122 0.13 3 
0.463 -0.017 0.034 3 
0.468 -0.185 0.132 3 
0.468 -0.197 0.132 3 
0.468 -0.205 0.132 3 
0.469 -0.218 0.133 3 
0.461 0.314 0.133 3 
0.47 -0.236 0.134 3 
0.463 -0.007 0.052 3 
0.47 -0.246 0.134 3 
0.471 -0.255 0.131 3 
0.464 -0.127 0.02 3 
0.472 -0.266 0.132 3 
0.472 -0.275 0.132 3 
0.472 -0.285 0.132 3 
0.472 -0.306 0.072 3 
0.476 -0.298 0.134 3 
0.477 -0.316 0.134 3 
0.466 -0.145 0.134 3 
0.463 -0.046 0.132 3 
0.468 -0.247 0.013 3 
0.463 -0.057 0.132 3 
0.464 -0.065 0.132 3 
0.465 -0.076 0.133 3 
0.465 -0.087 0.133 3 
0.465 -0.095 0.133 3 
0.465 -0.117 0.133 3 
0.465 -0.125 0.133 3 
0.462 -0.017 0.113 3 
0.466 -0.137 0.134 3 
0.461 0.17 0.124 3 
0.467 -0.157 0.134 3 
0.466 -0.165 0.134 3 
0.466 -0.176 0.134 3 
0.478 -0.345 0.142 3 
0.477 -0.355 0.142 3 
0.46 0.337 0.134 3 
0.474 -0.296 0.113 3 
0.46 0.334 0.134 3 
0.471 -0.286 0.092 3 
0.461 0.324 0.133 3 
0.462 0.283 0.124 3 
0.463 -0.046 0.124 3 
0.463 -0.057 0.124 3 
0.464 -0.065 0.124 3 
0.476 -0.325 0.132 3 
0.469 -0.275 0.044 3 
0.477 -0.336 0.132 3 
0.478 -0.348 0.133 3 
0.474 -0.358 0.132 3 
0.461 0.311 0.124 3 
0.461 0.304 0.124 3 
0.462 0.293 0.124 3 
0.463 -0.036 0.124 3 
0.462 0.274 0.124 3 
0.461 0.264 0.123 3 
0.461 0.243 0.123 3 
0.46 0.233 0.123 3 
0.464 -0.046 0.114 3 
0.46 0.224 0.123 3 
0.461 0.201 0.122 3 
0.461 0.193 0.122 3 
0.462 0.182 0.122 3 
0.465 -0.076 0.122 3 
0.474 0.358 0.199 3 
0.462 0.072 0.124 3 
0.46 0.164 0.124 3 
0.461 0.153 0.124 3 
0.46 0.183 0.052 3 
0.461 0.142 0.124 3 
0.461 0.134 0.124 3 
0.473 -0.354 0.043 3 
0.462 0.124 0.124 3 
0.462 0.113 0.124 3 
0.462 0.102 0.124 3 
0.461 0.094 0.124 3 
0.461 0.083 0.124 3 
0.463 -0.036 0.132 3 
0.462 0.064 0.124 3 
0.462 0.054 0.124 3 
0.461 0.043 0.124 3 
0.461 0.032 0.124 3 
0.462 0.024 0.124 3 
0.462 0.014 0.124 3 
0.463 0.003 0.124 3 
0.463 -0.006 0.124 3 
0.463 -0.017 0.124 3 
0.464 -0.025 0.124 3 
0.466 -0.145 0.142 3 
0.461 0.312 0.144 3 
0.461 0.292 0.144 3 
0.462 0.284 0.144 3 
0.46 -0.007 0.013 3 
0.462 0.271 0.143 3 
0.462 0.262 0.143 3 
0.462 0.253 0.143 3 
0.46 0.242 0.142 3 
0.46 0.233 0.142 3 
0.464 -0.076 0.141 3 
0.466 -0.126 0.142 3 
0.476 -0.335 0.114 3 
0.466 -0.156 0.142 3 
0.467 -0.165 0.143 3 
0.467 -0.177 0.143 3 
0.467 -0.185 0.143 3 
0.468 -0.197 0.143 3 
0.468 -0.206 0.144 3 
0.47 -0.216 0.144 3 
0.461 0.332 0.142 3 
0.463 0.324 0.143 3 
0.47 -0.225 0.142 3 
0.47 -0.237 0.142 3 
0.473 -0.286 0.15 3 
0.464 -0.036 0.143 3 
0.464 -0.046 0.143 3 
0.462 0.112 0.073 3 
0.465 -0.052 0.143 3 
0.465 -0.055 0.143 3 
0.464 -0.057 0.143 3 
0.464 -0.065 0.143 3 
0.465 -0.076 0.144 3 
0.465 -0.087 0.144 3 
0.466 -0.106 0.144 3 
0.466 -0.115 0.144 3 
0.471 -0.247 0.143 3 
0.474 -0.297 0.151 3 
0.477 -0.306 0.152 3 
0.463 0.003 0.132 3 
0.476 -0.315 0.152 3 
0.475 -0.325 0.152 3 
0.465 -0.324 0.149 3 
0.463 -0.065 0.092 3 
0.477 -0.341 0.153 3 
0.479 -0.35 0.154 3 
0.477 -0.359 0.154 3 
0.462 0.102 0.132 3 
0.471 -0.265 0.123 3 
0.461 0.202 0.133 3 
0.462 0.193 0.133 3 
0.466 -0.147 0.052 3 
0.461 0.181 0.133 3 
0.461 0.173 0.133 3 
0.461 0.162 0.133 3 
0.461 0.142 0.132 3 
0.461 0.134 0.132 3 
0.462 0.124 0.132 3 
0.462 0.113 0.132 3 
0.461 0.213 0.134 3 
0.463 -0.036 0.092 3 
0.462 0.094 0.132 3 
0.462 0.083 0.132 3 
0.463 0.073 0.132 3 
0.462 0.064 0.132 3 
0.461 0.032 0.132 3 
0.461 0.014 0.132 3 
0.463 -0.006 0.132 3 
0.469 -0.296 0.013 3 
0.464 -0.017 0.132 3 
0.463 -0.025 0.132 3 
0.461 0.203 0.092 3 
0.472 -0.257 0.143 3 
0.472 -0.266 0.143 3 
0.473 -0.276 0.144 3 
0.473 -0.286 0.144 3 
0.46 0.063 0.023 3 
0.461 0.048 0.134 3 
0.461 0.043 0.134 3 
0.46 0.243 0.062 3 
0.461 0.019 0.134 3 
0.465 -0.073 0.136 3 
0.475 -0.297 0.142 3 
0.465 -0.02 0.143 3 
0.477 -0.306 0.143 3 
0.477 -0.316 0.143 3 
0.477 -0.326 0.144 3 
0.476 -0.336 0.144 3 
0.461 0.252 0.134 3 
0.46 0.242 0.134 3 
0.461 0.252 0.123 3 
0.46 0.233 0.134 3 
0.46 0.224 0.133 3 
0.464 -0.116 0.02 3 
0.468 -0.036 0.174 3 
0.467 0.044 0.182 3 
0.467 0.033 0.182 3 
0.467 0.022 0.182 3 
0.468 0.014 0.183 3 
0.46 0.302 0.082 3 
0.468 0.003 0.183 3 
0.462 0.043 0.052 3 
0.468 -0.006 0.183 3 
0.475 -0.317 0.122 3 
0.468 -0.015 0.183 3 
0.468 -0.026 0.183 3 
0.479 -0.359 0.186 3 
0.468 -0.036 0.183 3 
0.47 -0.045 0.183 3 
0.47 -0.056 0.184 3 
0.471 -0.067 0.184 3 
0.471 -0.075 0.184 3 
0.461 0.304 0.113 3 
0.471 -0.086 0.184 3 
0.47 -0.097 0.184 3 
0.462 0.043 0.143 3 
0.47 -0.106 0.184 3 
0.475 -0.203 0.189 3 
0.468 0.144 0.184 3 
0.469 0.349 0.193 3 
0.466 0.338 0.192 3 
0.465 0.194 0.184 3 
0.465 0.18 0.184 3 
0.465 0.174 0.184 3 
0.469 -0.167 0.174 3 
0.467 -0.137 0.142 3 
0.464 0.162 0.183 3 
0.465 0.16 0.184 3 
0.466 0.152 0.184 3 
0.461 0.202 0.144 3 
0.474 -0.247 0.19 3 
0.468 0.133 0.184 3 
0.468 0.124 0.184 3 
0.465 -0.106 0.133 3 
0.468 0.113 0.184 3 
0.468 0.102 0.183 3 
0.468 0.094 0.183 3 
0.468 0.083 0.183 3 
0.468 0.074 0.183 3 
0.468 0.063 0.183 3 
0.468 0.052 0.183 3 
0.472 -0.186 0.184 3 
0.464 0.199 0.181 3 
0.47 -0.117 0.182 3 
0.471 -0.126 0.182 3 
0.471 -0.137 0.183 3 
0.472 -0.146 0.183 3 
0.46 0.203 0.033 3 
0.471 -0.157 0.183 3 
0.471 -0.165 0.183 3 
0.472 -0.178 0.184 3 
0.474 -0.256 0.173 3 
0.461 0.244 0.093 3 
0.465 0.203 0.182 3 
0.472 -0.195 0.184 3 
0.478 -0.306 0.191 3 
0.481 -0.316 0.193 3 
0.482 -0.327 0.194 3 
0.481 -0.337 0.194 3 
0.465 0.332 0.184 3 
0.465 0.321 0.184 3 
0.465 0.311 0.183 3 
0.46 0.293 0.093 3 
0.466 0.302 0.183 3 
0.467 0.294 0.183 3 
0.469 -0.226 0.052 3 
0.474 -0.257 0.19 3 
0.474 -0.273 0.191 3 
0.474 -0.276 0.191 3 
0.475 -0.28 0.192 3 
0.477 -0.285 0.193 3 
0.464 0.103 0.168 3 
0.479 -0.297 0.194 3 
0.474 -0.352 0.034 3 
0.465 0.276 0.184 3 
0.464 0.272 0.184 3 
0.465 0.266 0.184 3 
0.483 -0.347 0.202 3 
0.465 0.263 0.184 3 
0.465 0.254 0.184 3 
0.465 0.242 0.183 3 
0.466 0.233 0.183 3 
0.463 -0.135 0.012 3 
0.466 0.224 0.183 3 
0.461 0.083 0.073 3 
0.464 0.211 0.182 3 
0.465 0.206 0.182 3 
0.461 0.213 0.123 3 
0.47 0.103 0.187 3 
0.466 0.172 0.187 3 
0.466 0.163 0.187 3 
0.467 0.153 0.187 3 
0.46 0.284 0.093 3 
0.469 0.142 0.187 3 
0.469 0.133 0.187 3 
0.461 0.064 0.113 3 
0.468 0.124 0.187 3 
0.468 0.074 0.186 3 
0.469 0.114 0.187 3 
0.465 0.282 0.173 3 
0.467 0.184 0.188 3 
0.464 0.084 0.162 3 
0.469 0.094 0.186 3 
0.468 0.083 0.186 3 
0.468 0.063 0.186 3 
0.469 0.053 0.186 3 
0.468 0.044 0.186 3 
0.467 0.033 0.185 3 
0.468 0.022 0.186 3 
0.469 0.014 0.186 3 
0.469 0.003 0.186 3 
0.469 -0.006 0.186 3 
0.468 0.292 0.192 3 
0.472 0.352 0.198 3 
0.464 0.153 0.169 3 
0.461 0.142 0.084 3 
0.475 0.352 0.199 3 
0.469 0.342 0.196 3 
0.468 0.329 0.194 3 
0.467 -0.145 0.093 3 
0.466 0.32 0.193 3 
0.468 0.312 0.193 3 
0.468 0.302 0.193 3 
0.462 0.182 0.114 3 
0.469 -0.015 0.186 3 
0.467 0.284 0.191 3 
0.466 0.274 0.191 3 
0.466 0.261 0.19 3 
0.466 0.252 0.19 3 
0.465 0.242 0.189 3 
0.466 0.234 0.189 3 
0.467 0.222 0.189 3 
0.466 0.213 0.188 3 
0.466 0.204 0.188 3 
0.467 0.193 0.188 3 
0.459 0.324 0.054 3 
0.475 -0.218 0.192 3 
0.474 -0.227 0.192 3 
0.475 -0.231 0.193 3 
0.475 -0.237 0.193 3 
0.474 -0.242 0.193 3 
0.475 -0.246 0.193 3 
0.46 0.264 0.062 3 
0.476 -0.255 0.194 3 
0.477 -0.266 0.195 3 
0.476 -0.271 0.194 3 
0.476 -0.278 0.195 3 
0.474 -0.215 0.192 3 
0.477 -0.285 0.196 3 
0.464 -0.087 0.079 3 
0.464 -0.076 0.023 3 
0.479 -0.297 0.197 3 
0.479 -0.307 0.198 3 
0.457 0.311 0.012 3 
0.481 -0.316 0.199 3 
0.468 -0.217 0.044 3 
0.483 -0.328 0.2 3 
0.471 -0.206 0.173 3 
0.482 -0.335 0.2 3 
0.472 -0.135 0.189 3 
0.468 -0.026 0.186 3 
0.468 -0.036 0.186 3 
0.468 -0.045 0.186 3 
0.47 -0.056 0.186 3 
0.472 -0.067 0.187 3 
0.472 -0.076 0.187 3 
0.471 -0.086 0.187 3 
0.471 -0.095 0.187 3 
0.471 -0.106 0.188 3 
0.472 -0.118 0.188 3 
0.473 -0.126 0.189 3 
0.464 0.275 0.181 3 
0.473 -0.146 0.189 3 
0.473 -0.155 0.189 3 
0.472 -0.166 0.189 3 
0.472 -0.175 0.19 3 
0.474 -0.185 0.191 3 
0.475 -0.188 0.191 3 
0.474 -0.197 0.191 3 
0.474 -0.206 0.191 3 
0.475 -0.209 0.192 3 
0.469 -0.125 0.173 3 
0.464 0.084 0.165 3 
0.471 -0.215 0.173 3 
0.472 -0.225 0.174 3 
0.473 -0.237 0.174 3 
0.461 0.042 0.034 3 
0.475 -0.266 0.176 3 
0.481 -0.347 0.182 3 
0.479 -0.355 0.182 3 
0.464 0.344 0.173 3 
0.466 0.343 0.174 3 
0.464 0.333 0.172 3 
0.467 0.333 0.173 3 
0.472 -0.198 0.173 3 
0.461 0.212 0.084 3 
0.464 0.073 0.165 3 
0.464 0.022 0.165 3 
0.464 0.014 0.165 3 
0.464 0.003 0.165 3 
0.464 -0.006 0.165 3 
0.473 -0.246 0.172 3 
0.474 -0.265 0.173 3 
0.475 -0.269 0.173 3 
0.462 0.104 0.084 3 
0.476 -0.277 0.174 3 
0.46 -0.025 0.013 3 
0.467 -0.187 0.093 3 
0.479 -0.327 0.183 3 
0.48 -0.335 0.184 3 
0.464 0.341 0.176 3 
0.463 0.322 0.174 3 
0.463 0.312 0.174 3 
0.466 -0.175 0.033 3 
0.464 0.303 0.174 3 
0.465 0.301 0.174 3 
0.465 0.294 0.174 3 
0.464 0.277 0.173 3 
0.474 -0.361 0.178 3 
0.464 0.274 0.173 3 
0.463 0.261 0.172 3 
0.46 0.301 0.032 3 
0.464 0.133 0.168 3 
0.464 0.122 0.168 3 
0.464 0.114 0.168 3 
0.464 0.036 0.168 3 
0.464 0.033 0.168 3 
0.47 -0.176 0.172 3 
0.471 -0.185 0.172 3 
0.464 0.022 0.162 3 
0.469 -0.226 0.033 3 
0.464 0.062 0.162 3 
0.465 0.057 0.163 3 
0.464 0.054 0.162 3 
0.465 0.044 0.162 3 
0.464 0.041 0.162 3 
0.464 0.033 0.162 3 
0.466 -0.136 0.104 3 
0.469 -0.244 0.024 3 
0.465 0.03 0.162 3 
0.476 -0.33 0.084 3 
0.464 0.073 0.162 3 
0.465 0.019 0.162 3 
0.465 0.014 0.162 3 
0.464 0.011 0.162 3 
0.461 0.203 0.084 3 
0.464 0.003 0.162 3 
0.464 -0.006 0.162 3 
0.464 -0.017 0.162 3 
0.466 -0.023 0.163 3 
0.466 -0.025 0.163 3 
0.466 -0.036 0.163 3 
0.466 -0.047 0.163 3 
0.463 0.152 0.163 3 
0.464 0.293 0.168 3 
0.465 0.262 0.167 3 
0.462 0.072 0.002 3 
0.461 0.226 0.164 3 
0.461 0.22 0.164 3 
0.462 0.212 0.164 3 
0.463 0.204 0.164 3 
0.462 0.192 0.164 3 
0.461 0.183 0.163 3 
0.462 0.172 0.163 3 
0.464 0.164 0.163 3 
0.479 -0.316 0.183 3 
0.463 0.144 0.163 3 
0.464 0.133 0.163 3 
0.464 0.122 0.163 3 
0.464 0.114 0.163 3 
0.461 0.324 0.113 3 
0.464 0.103 0.163 3 
0.464 0.092 0.162 3 
0.46 0.236 0.114 3 
0.465 0.087 0.163 3 
0.465 0.082 0.163 3 
0.466 0.082 0.174 3 
0.462 0.102 0.154 3 
0.464 0.182 0.175 3 
0.46 0.234 0.033 3 
0.464 0.165 0.175 3 
0.465 0.142 0.174 3 
0.465 0.134 0.174 3 
0.465 0.12 0.174 3 
0.466 -0.096 0.144 3 
0.465 0.112 0.174 3 
0.465 0.104 0.174 3 
0.466 0.093 0.174 3 
0.462 0.221 0.176 3 
0.465 0.074 0.174 3 
0.466 0.063 0.174 3 
0.461 0.202 0.153 3 
0.467 0.052 0.174 3 
0.466 0.044 0.174 3 
0.46 0.312 0.093 3 
0.466 0.033 0.174 3 
0.465 0.046 0.162 3 
0.465 0.022 0.173 3 
0.465 0.014 0.173 3 
0.465 0.003 0.173 3 
0.461 0.112 0.113 3 
0.464 0.244 0.18 3 
0.464 0.194 0.178 3 
0.459 0.314 0.062 3 
0.472 -0.207 0.182 3 
0.473 -0.217 0.183 3 
0.472 -0.225 0.183 3 
0.473 -0.235 0.183 3 
0.473 -0.246 0.183 3 
0.475 -0.335 0.064 3 
0.474 -0.256 0.184 3 
0.482 -0.345 0.192 3 
0.466 -0.006 0.174 3 
0.462 0.093 0.052 3 
0.469 0.351 0.184 3 
0.466 0.344 0.183 3 
0.464 0.327 0.181 3 
0.464 0.324 0.181 3 
0.464 0.262 0.178 3 
0.47 -0.285 0.064 3 
0.464 0.253 0.177 3 
0.465 -0.073 0.119 3 
0.464 0.232 0.177 3 
0.469 -0.086 0.172 3 
0.463 0.181 0.172 3 
0.464 0.173 0.172 3 
0.47 -0.285 0.052 3 
0.464 0.162 0.172 3 
0.466 0.16 0.172 3 
0.465 0.154 0.172 3 
0.464 0.139 0.171 3 
0.459 0.324 0.023 3 
0.467 -0.066 0.171 3 
0.458 0.213 0.014 3 
0.468 -0.077 0.172 3 
0.463 0.193 0.172 3 
0.469 -0.097 0.173 3 
0.468 -0.105 0.172 3 
0.46 0.244 0.104 3 
0.468 -0.116 0.173 3 
0.468 -0.135 0.173 3 
0.463 0.324 0.154 3 
0.469 -0.147 0.174 3 
0.469 -0.156 0.174 3 
0.477 -0.308 0.182 3 
0.461 0.053 0.002 3 
0.477 -0.298 0.184 3 
0.466 -0.015 0.174 3 
0.466 -0.025 0.174 3 
0.459 0.103 0.013 3 
0.468 -0.047 0.174 3 
0.468 -0.055 0.174 3 
0.474 -0.266 0.182 3 
0.463 -0.036 0.034 3 
0.474 -0.275 0.182 3 
0.476 -0.284 0.183 3 
0.474 -0.327 0.052 3 
0.477 -0.288 0.184 3 
0.466 -0.055 0.163 3 
0.464 0.313 0.177 3 
0.463 0.252 0.174 3 
0.464 0.244 0.174 3 
0.464 0.232 0.174 3 
0.472 -0.315 0.052 3 
0.462 0.224 0.173 3 
0.462 0.212 0.173 3 
0.47 -0.236 0.122 3 
0.463 0.204 0.173 3 
0.46 0.282 0.043 3 
0.47 -0.236 0.052 3 
0.465 -0.1 0.052 3 
0.465 -0.105 0.052 3 
0.465 -0.116 0.052 3 
0.465 -0.125 0.052 3 
0.466 -0.136 0.052 3 
0.466 -0.155 0.052 3 
0.466 -0.167 0.052 3 
0.466 -0.175 0.052 3 
0.467 -0.187 0.052 3 
0.467 -0.196 0.052 3 
0.468 -0.217 0.052 3 
0.464 -0.095 0.052 3 
0.47 -0.245 0.052 3 
0.469 -0.265 0.052 3 
0.47 -0.276 0.052 3 
0.472 -0.305 0.052 3 
0.475 -0.335 0.052 3 
0.474 -0.355 0.052 3 
0.474 -0.352 0.046 3 
0.456 0.331 0.043 3 
0.456 0.324 0.043 3 
0.459 0.314 0.043 3 
0.459 0.304 0.043 3 
0.462 0.032 0.052 3 
0.474 -0.327 0.055 3 
0.474 -0.355 0.055 3 
0.46 0.174 0.052 3 
0.46 0.163 0.052 3 
0.461 0.153 0.052 3 
0.461 0.142 0.052 3 
0.461 0.134 0.052 3 
0.462 0.123 0.052 3 
0.462 0.112 0.052 3 
0.462 0.074 0.052 3 
0.462 0.053 0.052 3 
0.46 0.292 0.043 3 
0.462 0.024 0.052 3 
0.462 0.014 0.052 3 
0.462 0.003 0.052 3 
0.463 -0.017 0.052 3 
0.463 -0.025 0.052 3 
0.463 -0.036 0.052 3 
0.464 -0.057 0.052 3 
0.464 -0.065 0.052 3 
0.464 -0.076 0.052 3 
0.464 -0.087 0.052 3 
0.464 -0.087 0.044 3 
0.462 0.032 0.044 3 
0.462 0.024 0.044 3 
0.462 0.014 0.044 3 
0.463 0.003 0.044 3 
0.463 -0.007 0.044 3 
0.463 -0.025 0.044 3 
0.463 -0.036 0.044 3 
0.464 -0.046 0.044 3 
0.464 -0.057 0.044 3 
0.464 -0.065 0.044 3 
0.464 -0.076 0.044 3 
0.462 0.043 0.044 3 
0.465 -0.092 0.044 3 
0.465 -0.095 0.044 3 
0.466 -0.106 0.044 3 
0.465 -0.116 0.044 3 
0.465 -0.125 0.044 3 
0.465 -0.136 0.044 3 
0.466 -0.147 0.044 3 
0.466 -0.155 0.044 3 
0.467 -0.176 0.044 3 
0.467 -0.187 0.044 3 
0.468 -0.196 0.044 3 
0.461 0.153 0.044 3 
0.46 0.273 0.043 3 
0.46 0.264 0.043 3 
0.459 0.222 0.022 3 
0.46 0.252 0.043 3 
0.46 0.223 0.044 3 
0.46 0.214 0.044 3 
0.46 0.203 0.044 3 
0.46 0.194 0.044 3 
0.46 0.183 0.044 3 
0.46 0.174 0.044 3 
0.46 0.163 0.044 3 
0.46 0.194 0.054 3 
0.461 0.142 0.044 3 
0.461 0.134 0.044 3 
0.461 0.123 0.044 3 
0.461 0.112 0.044 3 
0.461 0.104 0.044 3 
0.463 0.093 0.044 3 
0.462 0.082 0.044 3 
0.462 0.074 0.044 3 
0.462 0.064 0.044 3 
0.462 0.053 0.044 3 
0.461 0.104 0.063 3 
0.46 0.223 0.063 3 
0.461 0.192 0.063 3 
0.461 0.183 0.063 3 
0.464 -0.057 0.034 3 
0.46 0.172 0.063 3 
0.46 -0.035 0.013 3 
0.46 0.163 0.063 3 
0.46 0.144 0.063 3 
0.462 0.134 0.063 3 
0.462 0.123 0.063 3 
0.461 0.112 0.063 3 
0.46 0.252 0.062 3 
0.461 0.093 0.063 3 
0.462 0.083 0.063 3 
0.462 0.074 0.063 3 
0.462 0.064 0.063 3 
0.462 0.053 0.063 3 
0.46 0.273 0.054 3 
0.462 0.043 0.063 3 
0.462 0.032 0.063 3 
0.476 -0.347 0.043 3 
0.461 0.024 0.063 3 
0.462 0.014 0.063 3 
0.475 -0.335 0.073 3 
0.469 -0.226 0.072 3 
0.469 -0.235 0.072 3 
0.469 -0.247 0.072 3 
0.464 -0.105 0.023 3 
0.469 -0.256 0.072 3 
0.469 -0.265 0.072 3 
0.469 -0.275 0.072 3 
0.47 -0.285 0.072 3 
0.471 -0.296 0.072 3 
0.474 -0.317 0.073 3 
0.474 -0.327 0.073 3 
0.463 0.003 0.063 3 
0.475 -0.346 0.073 3 
0.473 -0.347 0.073 3 
0.465 -0.057 0.068 3 
0.464 -0.1 0.069 3 
0.471 -0.295 0.052 3 
0.465 -0.052 0.066 3 
0.46 0.322 0.062 3 
0.459 0.304 0.062 3 
0.46 0.293 0.062 3 
0.46 0.283 0.062 3 
0.475 -0.346 0.064 3 
0.468 -0.205 0.063 3 
0.468 -0.217 0.063 3 
0.468 -0.225 0.064 3 
0.469 -0.235 0.064 3 
0.47 -0.245 0.064 3 
0.469 -0.256 0.064 3 
0.469 -0.265 0.064 3 
0.469 -0.275 0.064 3 
0.473 -0.306 0.064 3 
0.473 -0.316 0.064 3 
0.475 -0.325 0.064 3 
0.468 -0.196 0.063 3 
0.466 -0.167 0.044 3 
0.458 0.303 0.054 3 
0.459 0.292 0.054 3 
0.459 0.281 0.054 3 
0.46 0.264 0.054 3 
0.46 0.252 0.054 3 
0.46 0.243 0.054 3 
0.46 0.234 0.054 3 
0.46 0.223 0.054 3 
0.461 0.212 0.054 3 
0.46 0.203 0.054 3 
0.465 -0.1 0.063 3 
0.463 -0.006 0.063 3 
0.463 -0.017 0.063 3 
0.464 -0.036 0.063 3 
0.464 -0.046 0.063 3 
0.465 -0.052 0.063 3 
0.464 -0.057 0.063 3 
0.464 -0.065 0.063 3 
0.464 -0.076 0.063 3 
0.465 -0.081 0.063 3 
0.464 -0.087 0.063 3 
0.464 -0.095 0.063 3 
0.467 -0.207 0.044 3 
0.465 -0.106 0.063 3 
0.464 -0.111 0.063 3 
0.465 -0.116 0.063 3 
0.476 -0.347 0.052 3 
0.466 -0.125 0.063 3 
0.467 -0.136 0.063 3 
0.467 -0.145 0.063 3 
0.466 -0.155 0.063 3 
0.467 -0.167 0.063 3 
0.467 -0.187 0.063 3 
0.468 -0.226 0.022 3 
0.463 -0.097 0.023 3 
0.465 -0.117 0.023 3 
0.465 -0.125 0.023 3 
0.465 -0.136 0.023 3 
0.466 -0.147 0.023 3 
0.466 -0.156 0.023 3 
0.465 -0.175 0.023 3 
0.466 -0.187 0.023 3 
0.467 -0.196 0.022 3 
0.467 -0.207 0.022 3 
0.467 -0.216 0.022 3 
0.463 -0.086 0.023 3 
0.457 0.332 0.014 3 
0.464 -0.135 0.018 3 
0.472 -0.336 0.014 3 
0.471 -0.346 0.014 3 
0.456 0.323 0.012 3 
0.458 0.303 0.012 3 
0.458 0.293 0.013 3 
0.459 0.282 0.013 3 
0.458 0.263 0.013 3 
0.459 0.254 0.013 3 
0.457 0.232 0.014 3 
0.461 0.053 0.023 3 
0.46 0.163 0.022 3 
0.461 0.013 0.023 3 
0.46 0.152 0.023 3 
0.46 0.144 0.023 3 
0.46 0.133 0.023 3 
0.461 0.122 0.023 3 
0.46 0.114 0.023 3 
0.46 0.103 0.023 3 
0.461 0.093 0.023 3 
0.461 0.082 0.023 3 
0.46 0.074 0.023 3 
0.457 0.224 0.014 3 
0.46 0.042 0.023 3 
0.46 0.032 0.023 3 
0.46 0.024 0.024 3 
0.461 0.003 0.023 3 
0.462 -0.007 0.023 3 
0.463 -0.025 0.023 3 
0.462 -0.036 0.023 3 
0.462 -0.046 0.023 3 
0.463 -0.057 0.023 3 
0.463 -0.065 0.023 3 
0.462 -0.105 0.013 3 
0.46 0.053 0.013 3 
0.459 0.042 0.013 3 
0.459 0.034 0.013 3 
0.459 0.024 0.013 3 
0.459 0.013 0.013 3 
0.46 0.003 0.013 3 
0.46 -0.046 0.013 3 
0.462 -0.065 0.013 3 
0.462 -0.075 0.013 3 
0.462 -0.086 0.013 3 
0.463 -0.097 0.013 3 
0.459 0.063 0.013 3 
0.463 -0.116 0.013 3 
0.463 -0.127 0.013 3 
0.464 -0.155 0.012 3 
0.464 -0.166 0.012 3 
0.464 -0.177 0.012 3 
0.464 -0.185 0.012 3 
0.465 -0.183 0.009 3 
0.47 -0.345 0.003 3 
0.461 0.064 0.002 3 
0.463 0.043 0.002 3 
0.463 -0.036 0.002 3 
0.468 -0.267 0.013 3 
0.459 0.202 0.014 3 
0.459 0.194 0.014 3 
0.458 0.182 0.014 3 
0.464 -0.146 0.015 3 
0.464 -0.177 0.015 3 
0.463 -0.146 0.012 3 
0.467 -0.205 0.014 3 
0.466 -0.215 0.014 3 
0.467 -0.225 0.014 3 
0.468 -0.235 0.014 3 
0.469 -0.256 0.013 3 
0.46 0.172 0.022 3 
0.469 -0.277 0.013 3 
0.471 -0.305 0.012 3 
0.471 -0.315 0.012 3 
0.458 0.173 0.012 3 
0.459 0.152 0.012 3 
0.46 0.133 0.012 3 
0.459 0.114 0.013 3 
0.46 0.093 0.013 3 
0.459 0.084 0.013 3 
0.459 0.074 0.013 3 
0.462 0.093 0.034 3 
0.459 0.263 0.032 3 
0.459 0.254 0.032 3 
0.459 0.242 0.033 3 
0.46 0.214 0.033 3 
0.46 0.194 0.033 3 
0.46 0.172 0.033 3 
0.46 0.163 0.033 3 
0.46 0.144 0.033 3 
0.46 0.133 0.033 3 
0.46 0.122 0.033 3 
0.461 0.104 0.034 3 
0.459 0.272 0.032 3 
0.461 0.082 0.034 3 
0.461 0.074 0.034 3 
0.462 0.064 0.034 3 
0.462 0.053 0.034 3 
0.461 0.032 0.034 3 
0.462 0.024 0.034 3 
0.462 0.014 0.034 3 
0.463 0.003 0.034 3 
0.463 -0.007 0.034 3 
0.463 -0.025 0.034 3 
0.463 -0.065 0.034 3 
0.473 -0.326 0.044 3 
0.468 -0.225 0.044 3 
0.469 -0.235 0.044 3 
0.469 -0.247 0.044 3 
0.469 -0.256 0.044 3 
0.469 -0.287 0.013 3 
0.469 -0.265 0.044 3 
0.471 -0.285 0.044 3 
0.471 -0.295 0.044 3 
0.472 -0.305 0.044 3 
0.46 0.223 0.033 3 
0.472 -0.315 0.044 3 
0.464 -0.076 0.034 3 
0.475 -0.335 0.043 3 
0.474 -0.356 0.04 3 
0.458 0.333 0.034 3 
0.459 0.324 0.034 3 
0.459 0.314 0.034 3 
0.465 -0.084 0.036 3 
0.475 -0.346 0.034 3 
0.472 -0.316 0.023 3 
0.46 0.292 0.032 3 
0.46 0.283 0.032 3 
0.468 -0.256 0.024 3 
0.475 -0.339 0.032 3 
0.474 -0.356 0.029 3 
0.457 0.332 0.023 3 
0.459 0.313 0.023 3 
0.459 0.304 0.023 3 
0.46 0.292 0.024 3 
0.459 0.272 0.024 3 
0.459 0.263 0.024 3 
0.459 0.251 0.024 3 
0.459 0.242 0.024 3 
0.459 0.234 0.024 3 
0.474 -0.335 0.032 3 
0.469 -0.265 0.024 3 
0.47 -0.275 0.024 3 
0.471 -0.285 0.024 3 
0.472 -0.296 0.024 3 
0.472 -0.306 0.024 3 
0.472 -0.326 0.023 3 
0.474 -0.335 0.023 3 
0.474 -0.345 0.023 3 
0.473 -0.355 0.023 3 
0.46 0.203 0.022 3 
0.459 0.182 0.022 3 
0.467 -0.196 0.033 3 
0.464 -0.086 0.034 3 
0.464 -0.097 0.034 3 
0.465 -0.1 0.034 3 
0.465 -0.106 0.034 3 
0.465 -0.116 0.034 3 
0.46 0.122 0.012 3 
0.465 -0.125 0.034 3 
0.466 -0.136 0.034 3 
0.467 -0.148 0.034 3 
0.466 -0.155 0.034 3 
0.467 -0.187 0.033 3 
0.468 -0.217 0.072 3 
0.467 -0.207 0.033 3 
0.467 -0.216 0.033 3 
0.469 -0.235 0.033 3 
0.469 -0.256 0.033 3 
0.468 -0.265 0.033 3 
0.47 -0.275 0.033 3 
0.471 -0.285 0.032 3 
0.471 -0.298 0.032 3 
0.473 -0.316 0.032 3 
0.474 -0.328 0.032 3 
0.461 0.072 0.102 3 
0.475 -0.325 0.073 3 
0.461 0.184 0.103 3 
0.461 0.173 0.103 3 
0.461 0.164 0.103 3 
0.462 0.154 0.103 3 
0.462 0.143 0.103 3 
0.461 0.134 0.103 3 
0.462 0.123 0.103 3 
0.461 0.112 0.103 3 
0.461 0.104 0.103 3 
0.46 0.082 0.102 3 
0.461 0.192 0.103 3 
0.461 0.064 0.102 3 
0.461 0.053 0.102 3 
0.461 0.043 0.102 3 
0.468 -0.205 0.052 3 
0.462 0.032 0.102 3 
0.462 0.024 0.102 3 
0.463 -0.025 0.063 3 
0.462 0.014 0.102 3 
0.462 0.003 0.102 3 
0.462 -0.006 0.103 3 
0.462 -0.017 0.103 3 
0.46 0.306 0.104 3 
0.471 -0.277 0.112 3 
0.473 -0.288 0.113 3 
0.475 -0.303 0.113 3 
0.475 -0.306 0.113 3 
0.474 -0.312 0.113 3 
0.475 -0.316 0.113 3 
0.476 -0.328 0.114 3 
0.468 -0.246 0.083 3 
0.476 -0.345 0.111 3 
0.469 -0.253 0.024 3 
0.475 -0.355 0.111 3 
0.462 -0.025 0.103 3 
0.46 0.293 0.104 3 
0.46 0.284 0.104 3 
0.458 0.333 0.082 3 
0.461 0.263 0.104 3 
0.461 0.254 0.104 3 
0.46 0.322 0.082 3 
0.46 0.232 0.103 3 
0.458 0.272 0.013 3 
0.461 0.224 0.103 3 
0.461 0.204 0.103 3 
0.474 -0.356 0.102 3 
0.47 -0.236 0.103 3 
0.47 -0.245 0.103 3 
0.469 -0.256 0.103 3 
0.469 -0.266 0.103 3 
0.469 -0.275 0.103 3 
0.472 -0.287 0.104 3 
0.473 -0.295 0.104 3 
0.475 -0.306 0.102 3 
0.475 -0.326 0.102 3 
0.476 -0.338 0.102 3 
0.476 -0.345 0.102 3 
0.469 -0.226 0.102 3 
0.46 0.088 0.094 3 
0.46 0.082 0.094 3 
0.461 -0.004 0.094 3 
0.474 -0.305 0.099 3 
0.474 -0.319 0.099 3 
0.464 -0.065 0.074 3 
0.475 -0.357 0.1 3 
0.472 -0.333 0.014 3 
0.458 0.333 0.093 3 
0.46 0.322 0.093 3 
0.46 -0.017 0.013 3 
0.467 -0.156 0.104 3 
0.463 -0.036 0.103 3 
0.463 -0.046 0.103 3 
0.463 -0.057 0.103 3 
0.464 -0.065 0.103 3 
0.465 -0.076 0.103 3 
0.465 -0.087 0.103 3 
0.459 0.234 0.043 3 
0.465 -0.095 0.103 3 
0.465 -0.117 0.104 3 
0.465 -0.125 0.104 3 
0.466 -0.145 0.104 3 
0.474 -0.35 0.117 3 
0.467 -0.167 0.104 3 
0.467 -0.176 0.104 3 
0.462 0.338 0.102 3 
0.461 0.334 0.102 3 
0.461 0.323 0.102 3 
0.464 -0.076 0.1 3 
0.467 -0.187 0.102 3 
0.468 -0.196 0.102 3 
0.468 -0.205 0.102 3 
0.468 -0.217 0.102 3 
0.462 0.193 0.114 3 
0.474 -0.296 0.124 3 
0.475 -0.3 0.122 3 
0.476 -0.308 0.122 3 
0.476 -0.325 0.123 3 
0.476 -0.335 0.123 3 
0.477 -0.347 0.124 3 
0.475 -0.355 0.123 3 
0.474 -0.358 0.123 3 
0.46 0.233 0.114 3 
0.46 0.224 0.114 3 
0.461 0.212 0.114 3 
0.473 -0.285 0.124 3 
0.461 0.173 0.114 3 
0.461 0.164 0.114 3 
0.461 0.153 0.114 3 
0.461 0.142 0.113 3 
0.461 0.134 0.113 3 
0.462 0.124 0.114 3 
0.461 0.102 0.113 3 
0.461 0.093 0.113 3 
0.464 -0.111 0.028 3 
0.461 0.083 0.113 3 
0.461 0.072 0.113 3 
0.469 -0.197 0.124 3 
0.465 -0.087 0.122 3 
0.465 -0.095 0.122 3 
0.466 -0.106 0.123 3 
0.465 -0.117 0.122 3 
0.465 -0.125 0.123 3 
0.465 -0.136 0.123 3 
0.465 -0.147 0.123 3 
0.466 -0.156 0.123 3 
0.466 -0.165 0.123 3 
0.468 -0.176 0.124 3 
0.469 -0.186 0.124 3 
0.461 0.053 0.113 3 
0.468 -0.205 0.124 3 
0.474 -0.296 0.127 3 
0.462 0.339 0.123 3 
0.46 0.333 0.122 3 
0.461 0.324 0.122 3 
0.469 -0.215 0.122 3 
0.469 -0.226 0.122 3 
0.47 -0.248 0.123 3 
0.47 -0.258 0.123 3 
0.473 -0.276 0.124 3 
0.467 -0.167 0.112 3 
0.461 0.334 0.114 3 
0.461 0.314 0.113 3 
0.461 0.282 0.113 3 
0.461 0.273 0.112 3 
0.461 0.263 0.112 3 
0.46 0.253 0.112 3 
0.466 -0.117 0.112 3 
0.465 -0.136 0.112 3 
0.468 -0.185 0.113 3 
0.465 -0.147 0.112 3 
0.466 -0.156 0.112 3 
0.462 0.338 0.114 3 
0.468 -0.176 0.113 3 
0.469 -0.197 0.113 3 
0.469 -0.215 0.113 3 
0.469 -0.226 0.114 3 
0.47 -0.236 0.114 3 
0.469 -0.247 0.114 3 
0.464 -0.046 0.052 3 
0.469 -0.257 0.114 3 
0.47 -0.267 0.114 3 
0.475 -0.293 0.116 3 
0.474 -0.312 0.116 3 
0.462 -0.006 0.113 3 
0.46 0.043 0.113 3 
0.466 -0.175 0.063 3 
0.46 0.214 0.022 3 
0.461 0.032 0.113 3 
0.462 0.024 0.113 3 
0.472 -0.297 0.064 3 
0.46 -0.056 0.013 3 
0.462 0.014 0.113 3 
0.46 0.261 0.073 3 
0.462 0.003 0.113 3 
0.458 0.162 0.012 3 
0.46 0.303 0.093 3 
0.463 -0.025 0.113 3 
0.463 -0.036 0.113 3 
0.464 -0.057 0.114 3 
0.464 -0.065 0.114 3 
0.464 -0.076 0.114 3 
0.465 -0.079 0.114 3 
0.466 -0.087 0.114 3 
0.466 -0.095 0.114 3 
0.466 -0.106 0.114 3 
0.465 -0.128 0.114 3 
0.475 -0.335 0.081 3 
0.468 -0.217 0.083 3 
0.468 -0.225 0.083 3 
0.469 -0.235 0.083 3 
0.47 -0.266 0.083 3 
0.458 0.143 0.012 3 
0.471 -0.286 0.084 3 
0.472 -0.297 0.084 3 
0.473 -0.307 0.084 3 
0.474 -0.318 0.084 3 
0.473 -0.351 0.084 3 
0.461 0.336 0.079 3 
0.468 -0.205 0.083 3 
0.476 -0.347 0.082 3 
0.46 0.335 0.074 3 
0.459 0.331 0.074 3 
0.46 0.322 0.074 3 
0.459 0.311 0.074 3 
0.46 0.302 0.074 3 
0.46 0.293 0.074 3 
0.461 0.284 0.074 3 
0.461 0.272 0.074 3 
0.46 0.252 0.073 3 
0.461 0.244 0.073 3 
0.464 -0.125 0.082 3 
0.464 -0.116 0.085 3 
0.46 0.312 0.082 3 
0.46 0.293 0.082 3 
0.461 0.284 0.082 3 
0.474 -0.325 0.084 3 
0.46 0.271 0.082 3 
0.465 -0.087 0.082 3 
0.465 -0.095 0.082 3 
0.465 -0.106 0.082 3 
0.463 -0.017 0.023 3 
0.464 -0.116 0.082 3 
0.461 0.232 0.073 3 
0.465 -0.13 0.082 3 
0.46 0.152 0.063 3 
0.466 -0.136 0.082 3 
0.467 -0.145 0.082 3 
0.467 -0.156 0.082 3 
0.462 -0.017 0.044 3 
0.466 -0.167 0.082 3 
0.467 -0.176 0.082 3 
0.468 -0.185 0.083 3 
0.468 -0.196 0.083 3 
0.465 -0.125 0.074 3 
0.462 -0.006 0.073 3 
0.463 -0.025 0.074 3 
0.463 -0.036 0.074 3 
0.464 -0.046 0.074 3 
0.464 -0.076 0.074 3 
0.464 -0.087 0.074 3 
0.46 0.114 0.034 3 
0.465 -0.095 0.074 3 
0.465 -0.106 0.074 3 
0.464 -0.114 0.074 3 
0.464 -0.116 0.074 3 
0.472 -0.306 0.032 3 
0.466 -0.136 0.074 3 
0.467 -0.145 0.074 3 
0.466 -0.155 0.074 3 
0.466 -0.167 0.074 3 
0.467 -0.176 0.074 3 
0.468 -0.185 0.074 3 
0.464 -0.169 0.015 3 
0.468 -0.196 0.074 3 
0.468 -0.205 0.074 3 
0.465 -0.092 0.071 3 
0.465 -0.122 0.071 3 
0.462 0.094 0.073 3 
0.461 0.223 0.073 3 
0.46 0.214 0.073 3 
0.461 0.203 0.073 3 
0.461 0.192 0.073 3 
0.461 0.184 0.073 3 
0.46 0.172 0.073 3 
0.46 0.163 0.073 3 
0.461 0.153 0.073 3 
0.461 0.142 0.073 3 
0.462 0.123 0.073 3 
0.462 0.104 0.073 3 
0.464 -0.105 0.085 3 
0.461 0.072 0.073 3 
0.462 0.064 0.073 3 
0.462 -0.017 0.073 3 
0.463 0.053 0.073 3 
0.462 0.043 0.073 3 
0.462 0.032 0.073 3 
0.462 0.024 0.073 3 
0.464 -0.057 0.074 3 
0.462 0.014 0.073 3 
0.462 0.003 0.073 3 
0.465 -0.106 0.093 3 
0.461 0.104 0.052 3 
0.462 0.024 0.092 3 
0.462 0.014 0.092 3 
0.462 -0.017 0.092 3 
0.463 -0.025 0.092 3 
0.463 -0.046 0.092 3 
0.464 -0.057 0.092 3 
0.464 -0.076 0.092 3 
0.464 -0.046 0.034 3 
0.465 -0.087 0.093 3 
0.465 -0.095 0.093 3 
0.462 0.032 0.092 3 
0.465 -0.117 0.093 3 
0.466 -0.125 0.093 3 
0.459 0.194 0.022 3 
0.467 -0.156 0.093 3 
0.467 -0.167 0.093 3 
0.467 -0.176 0.093 3 
0.467 -0.196 0.094 3 
0.468 -0.205 0.094 3 
0.468 -0.217 0.094 3 
0.469 -0.226 0.094 3 
0.469 -0.235 0.094 3 
0.46 0.153 0.092 3 
0.461 0.212 0.092 3 
0.46 0.274 0.093 3 
0.459 0.264 0.093 3 
0.46 0.253 0.093 3 
0.461 0.232 0.093 3 
0.46 0.223 0.092 3 
0.461 0.192 0.092 3 
0.461 0.184 0.092 3 
0.46 0.172 0.092 3 
0.462 0.064 0.052 3 
0.46 0.164 0.092 3 
0.469 -0.256 0.094 3 
0.462 0.143 0.092 3 
0.462 0.134 0.092 3 
0.462 0.123 0.092 3 
0.469 -0.256 0.083 3 
0.462 0.113 0.092 3 
0.462 0.104 0.092 3 
0.461 0.072 0.092 3 
0.462 0.064 0.092 3 
0.461 0.053 0.092 3 
0.462 0.043 0.092 3 
0.462 0.014 0.084 3 
0.462 0.134 0.084 3 
0.462 0.123 0.084 3 
0.462 0.112 0.084 3 
0.461 0.093 0.084 3 
0.461 0.083 0.084 3 
0.461 0.072 0.084 3 
0.461 0.064 0.084 3 
0.463 0.053 0.084 3 
0.462 0.043 0.084 3 
0.462 0.032 0.084 3 
0.462 0.024 0.084 3 
0.461 0.153 0.084 3 
0.462 0.003 0.084 3 
0.462 -0.006 0.084 3 
0.462 -0.017 0.084 3 
0.463 -0.025 0.084 3 
0.464 0.032 0.002 3 
0.463 -0.036 0.084 3 
0.463 -0.046 0.084 3 
0.46 0.214 0.063 3 
0.464 -0.057 0.084 3 
0.463 -0.065 0.084 3 
0.463 -0.076 0.084 3 
0.475 -0.323 0.09 3 
0.459 0.314 0.054 3 
0.464 -0.087 0.09 3 
0.469 -0.265 0.092 3 
0.47 -0.276 0.092 3 
0.472 -0.297 0.092 3 
0.473 -0.307 0.093 3 
0.474 -0.315 0.093 3 
0.475 -0.326 0.093 3 
0.475 -0.337 0.093 3 
0.477 -0.345 0.094 3 
0.474 -0.352 0.093 3 
0.461 0.212 0.103 3 
0.459 0.264 0.084 3 
0.46 0.252 0.084 3 
0.46 0.243 0.084 3 
0.46 0.234 0.084 3 
0.46 0.223 0.084 3 
0.461 0.192 0.084 3 
0.461 0.184 0.084 3 
0.461 0.172 0.084 3 
0.457 0.332 0.054 3 
0.461 0.164 0.084 3 
0.306 -0.005 0.02 7 
0.298 -0.015 0.021 7 
0.298 0.002 0.021 7 
0.299 -0.005 0.02 7 
0.311 0.002 0.018 7 
0.312 -0.015 0.018 7 
0.326 -0.015 0.017 7 
