# .PCD v0.7 - Point Cloud Data file
FIELDS x y z intensity
SIZE 4 4 4 4
TYPE F F F F
COUNT 1 1 1 1
WIDTH 2663
HEIGHT 1
VIEWPOINT 0 0 0 1 0 0 0
POINTS 2663
DATA ascii
0.334 -0.016 0.003 0 
0.333 -0.016 0.008 0 
0.335 -0.016 0 0 
0.384 -0.227 -0.028 1 
0.362 -0.125 -0.017 1 
0.363 -0.107 -0.017 1 
0.362 -0.095 -0.016 1 
0.362 -0.066 -0.016 1 
0.36 -0.062 -0.015 1 
0.354 0.019 -0.013 1 
0.353 0.124 -0.014 1 
0.353 0.137 -0.015 1 
0.349 0.174 -0.015 1 
0.382 -0.215 -0.025 1 
0.373 -0.146 -0.019 1 
0.364 -0.085 -0.015 1 
0.364 -0.083 -0.015 1 
0.363 -0.081 -0.014 1 
0.364 -0.065 -0.014 1 
0.361 -0.036 -0.013 1 
0.344 -0.018 -0.007 1 
0.324 -0.005 0 1 
0.324 -0.003 0 1 
0.363 0.032 -0.014 1 
0.364 0.034 -0.015 1 
0.362 0.044 -0.014 1 
0.363 0.052 -0.015 1 
0.362 0.053 -0.014 1 
0.363 0.064 -0.015 1 
0.362 0.082 -0.015 1 
0.36 0.083 -0.014 1 
0.361 0.092 -0.014 1 
0.361 0.094 -0.015 1 
0.36 0.108 -0.015 1 
0.359 0.143 -0.015 1 
0.352 0.213 -0.017 1 
0.353 0.216 -0.017 1 
0.374 -0.136 -0.018 1 
0.374 -0.134 -0.017 1 
0.373 -0.116 -0.017 1 
0.373 -0.106 -0.016 1 
0.37 -0.071 -0.015 1 
0.364 -0.056 -0.013 1 
0.364 -0.054 -0.013 1 
0.349 -0.019 -0.007 1 
0.369 0.053 -0.015 1 
0.363 0.121 -0.014 1 
0.361 0.133 -0.014 1 
0.364 0.153 -0.015 1 
0.36 0.166 -0.015 1 
0.394 -0.237 -0.026 1 
0.392 -0.228 -0.025 1 
0.383 -0.196 -0.021 1 
0.383 -0.157 -0.019 1 
0.379 -0.148 -0.018 1 
0.381 -0.135 -0.018 1 
0.382 -0.125 -0.018 1 
0.374 -0.095 -0.015 1 
0.373 -0.085 -0.014 1 
0.374 -0.083 -0.015 1 
0.373 -0.057 -0.014 1 
0.371 -0.045 -0.013 1 
0.373 0.054 -0.014 1 
0.373 0.062 -0.014 1 
0.373 0.064 -0.015 1 
0.372 0.071 -0.014 1 
0.373 0.075 -0.015 1 
0.373 0.104 -0.015 1 
0.37 0.133 -0.015 1 
0.367 0.145 -0.014 1 
0.362 0.174 -0.014 1 
0.363 0.179 -0.015 1 
0.364 0.192 -0.016 1 
0.364 0.195 -0.016 1 
0.394 -0.217 -0.023 1 
0.382 -0.105 -0.016 1 
0.38 -0.096 -0.015 1 
0.384 -0.085 -0.016 1 
0.382 -0.075 -0.015 1 
0.38 -0.059 -0.014 1 
0.381 -0.055 -0.015 1 
0.382 -0.051 -0.015 1 
0.374 -0.036 -0.012 1 
0.377 -0.029 -0.013 1 
0.373 -0.025 -0.012 1 
0.37 -0.021 -0.011 1 
0.374 0.026 -0.013 1 
0.373 0.084 -0.013 1 
0.373 0.113 -0.014 1 
0.361 0.103 -0.015 1 
0.374 0.124 -0.014 1 
0.374 0.142 -0.015 1 
0.372 0.144 -0.014 1 
0.375 0.153 -0.015 1 
0.373 0.164 -0.015 1 
0.372 0.204 -0.017 1 
0.367 0.232 -0.017 1 
0.408 -0.236 -0.025 1 
0.394 -0.19 -0.02 1 
0.393 -0.175 -0.019 1 
0.391 -0.165 -0.018 1 
0.391 -0.115 -0.017 1 
0.39 -0.086 -0.016 1 
0.391 -0.076 -0.016 1 
0.384 -0.066 -0.014 1 
0.379 -0.045 -0.012 1 
0.383 -0.036 -0.013 1 
0.388 -0.035 -0.015 1 
0.385 -0.023 -0.014 1 
0.326 -0.005 0.004 1 
0.328 0.003 0.004 1 
0.379 0.023 -0.012 1 
0.381 0.033 -0.013 1 
0.381 0.043 -0.013 1 
0.38 0.064 -0.013 1 
0.379 0.073 -0.013 1 
0.381 0.084 -0.014 1 
0.38 0.093 -0.013 1 
0.384 0.103 -0.015 1 
0.378 0.124 -0.014 1 
0.373 0.214 -0.016 1 
0.373 0.238 -0.017 1 
0.411 -0.286 -0.026 1 
0.412 -0.275 -0.026 1 
0.413 -0.265 -0.026 1 
0.414 -0.26 -0.026 1 
0.412 -0.237 -0.024 1 
0.403 -0.216 -0.021 1 
0.402 -0.175 -0.019 1 
0.401 -0.165 -0.019 1 
0.4 -0.146 -0.018 1 
0.4 -0.137 -0.018 1 
0.396 -0.116 -0.016 1 
0.395 -0.107 -0.016 1 
0.391 -0.101 -0.014 1 
0.392 -0.095 -0.015 1 
0.399 -0.085 -0.017 1 
0.393 -0.072 -0.015 1 
0.391 -0.066 -0.014 1 
0.393 -0.056 -0.015 1 
0.393 -0.05 -0.015 1 
0.393 -0.04 -0.014 1 
0.394 -0.026 -0.015 1 
0.393 -0.023 -0.015 1 
0.388 0.034 -0.013 1 
0.389 0.044 -0.014 1 
0.389 0.114 -0.015 1 
0.385 0.145 -0.014 1 
0.383 0.154 -0.014 1 
0.384 0.161 -0.014 1 
0.383 0.172 -0.015 1 
0.381 0.184 -0.015 1 
0.379 0.184 -0.014 1 
0.38 0.187 -0.014 1 
0.381 0.193 -0.015 1 
0.381 0.204 -0.015 1 
0.382 0.214 -0.016 1 
0.38 0.224 -0.016 1 
0.374 0.154 -0.015 1 
0.378 0.234 -0.016 1 
0.42 -0.296 -0.027 1 
0.423 -0.29 -0.028 1 
0.42 -0.247 -0.025 1 
0.412 -0.226 -0.022 1 
0.413 -0.217 -0.022 1 
0.404 -0.205 -0.019 1 
0.404 -0.188 -0.018 1 
0.403 -0.099 -0.016 1 
0.404 -0.056 -0.016 1 
0.403 -0.046 -0.016 1 
0.403 -0.041 -0.016 1 
0.398 0.019 -0.014 1 
0.363 0.073 -0.015 1 
0.399 0.023 -0.015 1 
0.395 0.043 -0.014 1 
0.398 0.059 -0.015 1 
0.395 0.068 -0.014 1 
0.395 0.081 -0.014 1 
0.394 0.082 -0.014 1 
0.394 0.093 -0.014 1 
0.394 0.123 -0.014 1 
0.391 0.134 -0.014 1 
0.352 0.204 -0.016 1 
0.396 0.143 -0.016 1 
0.392 0.154 -0.015 1 
0.391 0.162 -0.015 1 
0.391 0.174 -0.015 1 
0.39 0.184 -0.015 1 
0.387 0.189 -0.015 1 
0.39 0.222 -0.017 1 
0.386 0.242 -0.017 1 
0.383 0.249 -0.016 1 
0.431 -0.296 -0.027 1 
0.421 -0.279 -0.024 1 
0.354 0.123 -0.015 1 
0.429 -0.285 -0.026 1 
0.374 0.132 -0.014 1 
0.424 -0.277 -0.025 1 
0.431 -0.266 -0.026 1 
0.394 -0.213 -0.02 1 
0.428 -0.249 -0.025 1 
0.422 -0.236 -0.022 1 
0.413 -0.208 -0.019 1 
0.41 -0.195 -0.018 1 
0.411 -0.155 -0.017 1 
0.391 -0.245 -0.029 1 
0.413 -0.124 -0.017 1 
0.414 -0.106 -0.017 1 
0.412 -0.085 -0.016 1 
0.412 -0.076 -0.016 1 
0.412 -0.065 -0.016 1 
0.41 -0.045 -0.016 1 
0.412 -0.036 -0.016 1 
0.413 -0.028 -0.016 1 
0.401 0.011 -0.013 1 
0.406 0.032 -0.015 1 
0.405 0.041 -0.014 1 
0.408 0.054 -0.015 1 
0.408 0.074 -0.016 1 
0.403 0.092 -0.014 1 
0.403 0.094 -0.015 1 
0.38 -0.185 -0.019 1 
0.39 -0.147 -0.017 1 
0.402 0.1 -0.014 1 
0.402 0.107 -0.014 1 
0.402 0.114 -0.015 1 
0.404 0.123 -0.015 1 
0.401 0.131 -0.015 1 
0.398 0.134 -0.014 1 
0.389 0.024 -0.014 1 
0.399 0.143 -0.014 1 
0.398 0.184 -0.015 1 
0.395 0.193 -0.015 1 
0.394 0.195 -0.015 1 
0.391 0.201 -0.014 1 
0.398 0.232 -0.017 1 
0.394 0.254 -0.017 1 
0.442 -0.315 -0.029 1 
0.442 -0.305 -0.028 1 
0.438 -0.285 -0.026 1 
0.432 -0.256 -0.023 1 
0.433 -0.246 -0.023 1 
0.422 -0.217 -0.019 1 
0.417 -0.196 -0.018 1 
0.393 0.205 -0.015 1 
0.421 -0.126 -0.017 1 
0.422 -0.117 -0.017 1 
0.418 -0.096 -0.016 1 
0.418 -0.085 -0.016 1 
0.422 -0.035 -0.017 1 
0.461 -0.03 -0.028 1 
0.414 0.009 -0.015 1 
0.417 0.023 -0.016 1 
0.416 0.034 -0.015 1 
0.414 0.094 -0.016 1 
0.413 0.103 -0.015 1 
0.413 0.112 -0.016 1 
0.412 0.118 -0.015 1 
0.41 0.133 -0.015 1 
0.405 0.173 -0.015 1 
0.405 0.182 -0.015 1 
0.405 0.201 -0.016 1 
0.404 0.213 -0.016 1 
0.404 0.215 -0.016 1 
0.404 0.243 -0.017 1 
0.4 0.252 -0.016 1 
0.398 0.266 -0.017 1 
0.447 -0.307 -0.027 1 
0.445 -0.302 -0.026 1 
0.443 -0.297 -0.025 1 
0.441 -0.285 -0.024 1 
0.443 -0.281 -0.025 1 
0.438 -0.256 -0.023 1 
0.43 -0.235 -0.02 1 
0.428 -0.225 -0.019 1 
0.429 -0.205 -0.019 1 
0.429 -0.197 -0.019 1 
0.427 -0.126 -0.017 1 
0.423 -0.066 -0.015 1 
0.421 -0.058 -0.014 1 
0.422 -0.056 -0.015 1 
0.433 -0.037 -0.018 1 
0.432 -0.032 -0.017 1 
0.422 0.012 -0.015 1 
0.423 0.053 -0.015 1 
0.422 0.062 -0.015 1 
0.422 0.083 -0.015 1 
0.423 0.093 -0.016 1 
0.422 0.104 -0.016 1 
0.423 0.124 -0.016 1 
0.42 0.134 -0.016 1 
0.415 0.138 -0.014 1 
0.414 0.147 -0.014 1 
0.414 0.162 -0.015 1 
0.413 0.163 -0.014 1 
0.39 0.054 -0.014 1 
0.417 0.214 -0.017 1 
0.364 0.012 -0.011 1 
0.396 -0.237 -0.024 1 
0.412 0.222 -0.016 1 
0.413 0.234 -0.017 1 
0.414 0.243 -0.017 1 
0.408 0.253 -0.016 1 
0.406 0.261 -0.016 1 
0.406 0.27 -0.017 1 
0.41 0.28 -0.018 1 
0.448 -0.325 -0.025 1 
0.452 -0.316 -0.026 1 
0.443 -0.297 -0.023 1 
0.443 -0.246 -0.021 1 
0.433 -0.177 -0.017 1 
0.403 -0.254 -0.027 1 
0.432 -0.159 -0.016 1 
0.434 -0.142 -0.016 1 
0.431 -0.116 -0.015 1 
0.434 -0.085 -0.016 1 
0.433 -0.075 -0.015 1 
0.433 -0.066 -0.015 1 
0.433 -0.056 -0.015 1 
0.362 0.143 -0.014 1 
0.439 -0.035 -0.017 1 
0.372 0.191 -0.016 1 
0.43 0.007 -0.015 1 
0.429 0.012 -0.014 1 
0.434 0.024 -0.016 1 
0.431 0.043 -0.015 1 
0.431 0.064 -0.015 1 
0.43 0.074 -0.015 1 
0.429 0.083 -0.015 1 
0.431 0.103 -0.016 1 
0.424 0.148 -0.015 1 
0.424 0.184 -0.016 1 
0.423 0.193 -0.016 1 
0.421 0.222 -0.016 1 
0.421 0.225 -0.016 1 
0.422 0.253 -0.017 1 
0.42 0.291 -0.019 1 
0.417 -0.206 -0.018 1 
0.454 -0.305 -0.023 1 
0.453 -0.288 -0.022 1 
0.384 0.13 -0.014 1 
0.454 -0.277 -0.022 1 
0.443 -0.226 -0.018 1 
0.444 -0.224 -0.018 1 
0.444 -0.211 -0.018 1 
0.443 -0.176 -0.017 1 
0.44 -0.166 -0.016 1 
0.44 -0.156 -0.016 1 
0.442 -0.146 -0.016 1 
0.444 -0.142 -0.017 1 
0.44 -0.117 -0.015 1 
0.44 -0.105 -0.015 1 
0.439 -0.097 -0.015 1 
0.442 -0.085 -0.015 1 
0.442 -0.065 -0.015 1 
0.441 -0.055 -0.015 1 
0.444 -0.051 -0.016 1 
0.45 -0.037 -0.017 1 
0.436 0.012 -0.014 1 
0.438 0.015 -0.014 1 
0.44 0.022 -0.015 1 
0.441 0.032 -0.015 1 
0.439 0.044 -0.015 1 
0.439 0.047 -0.015 1 
0.437 0.056 -0.014 1 
0.39 0.159 -0.014 1 
0.439 0.064 -0.015 1 
0.439 0.074 -0.015 1 
0.438 0.083 -0.015 1 
0.435 0.09 -0.014 1 
0.437 0.103 -0.015 1 
0.436 0.112 -0.015 1 
0.434 0.124 -0.014 1 
0.434 0.146 -0.015 1 
0.43 0.154 -0.014 1 
0.432 0.16 -0.015 1 
0.43 0.193 -0.015 1 
0.431 0.202 -0.016 1 
0.408 0.144 -0.015 1 
0.427 0.222 -0.015 1 
0.428 0.234 -0.016 1 
0.427 0.293 -0.018 1 
0.424 0.295 -0.017 1 
0.453 -0.334 -0.021 1 
0.362 0.18 -0.014 1 
0.453 -0.255 -0.018 1 
0.454 -0.247 -0.018 1 
0.454 -0.238 -0.018 1 
0.453 -0.226 -0.018 1 
0.45 -0.216 -0.017 1 
0.444 -0.195 -0.015 1 
0.443 -0.192 -0.015 1 
0.451 -0.186 -0.017 1 
0.451 -0.175 -0.016 1 
0.452 -0.165 -0.016 1 
0.383 0.244 -0.016 1 
0.451 -0.156 -0.016 1 
0.453 -0.136 -0.016 1 
0.448 -0.11 -0.015 1 
0.447 -0.105 -0.014 1 
0.445 -0.099 -0.014 1 
0.444 -0.096 -0.014 1 
0.444 -0.094 -0.014 1 
0.447 -0.089 -0.014 1 
0.437 0.054 -0.014 1 
0.45 -0.085 -0.015 1 
0.45 -0.075 -0.015 1 
0.448 -0.059 -0.014 1 
0.352 0.183 -0.015 1 
0.454 -0.045 -0.016 1 
0.449 0.013 -0.015 1 
0.433 -0.187 -0.017 1 
0.449 0.023 -0.015 1 
0.449 0.033 -0.015 1 
0.448 0.043 -0.015 1 
0.447 0.063 -0.015 1 
0.447 0.068 -0.015 1 
0.38 0.054 -0.013 1 
0.447 0.104 -0.015 1 
0.445 0.111 -0.015 1 
0.444 0.113 -0.014 1 
0.443 0.12 -0.014 1 
0.447 0.133 -0.015 1 
0.446 0.142 -0.015 1 
0.444 0.144 -0.015 1 
0.442 0.151 -0.015 1 
0.441 0.161 -0.014 1 
0.438 0.172 -0.014 1 
0.439 0.178 -0.015 1 
0.438 0.188 -0.015 1 
0.438 0.204 -0.015 1 
0.439 0.213 -0.015 1 
0.435 0.223 -0.015 1 
0.434 0.259 -0.016 1 
0.434 0.265 -0.016 1 
0.433 0.299 -0.017 1 
0.462 -0.327 -0.02 1 
0.377 -0.2 -0.025 1 
0.464 -0.319 -0.02 1 
0.459 -0.297 -0.018 1 
0.459 -0.285 -0.018 1 
0.46 -0.276 -0.018 1 
0.457 -0.267 -0.017 1 
0.38 0.144 -0.015 1 
0.461 -0.235 -0.017 1 
0.462 -0.205 -0.017 1 
0.458 -0.185 -0.016 1 
0.458 -0.166 -0.015 1 
0.458 -0.136 -0.015 1 
0.458 -0.125 -0.015 1 
0.457 -0.106 -0.014 1 
0.458 -0.101 -0.015 1 
0.458 -0.096 -0.014 1 
0.372 -0.165 -0.02 1 
0.461 -0.086 -0.015 1 
0.459 -0.075 -0.015 1 
0.459 -0.072 -0.015 1 
0.46 -0.056 -0.015 1 
0.46 -0.046 -0.015 1 
0.461 -0.038 -0.015 1 
0.5 -0.04 -0.025 1 
0.454 0.073 -0.014 1 
0.45 0.092 -0.013 1 
0.454 0.104 -0.014 1 
0.446 -0.034 -0.016 1 
0.452 0.114 -0.014 1 
0.449 0.123 -0.013 1 
0.405 0.194 -0.016 1 
0.444 0.184 -0.013 1 
0.441 0.193 -0.013 1 
0.441 0.204 -0.013 1 
0.443 0.213 -0.014 1 
0.443 0.222 -0.014 1 
0.444 0.237 -0.015 1 
0.446 0.244 -0.015 1 
0.445 0.246 -0.015 1 
0.443 0.264 -0.015 1 
0.441 0.274 -0.015 1 
0.442 0.29 -0.016 1 
0.439 0.303 -0.016 1 
0.473 -0.357 -0.021 1 
0.472 -0.338 -0.02 1 
0.468 -0.306 -0.018 1 
0.463 -0.251 -0.015 1 
0.464 -0.223 -0.015 1 
0.466 -0.216 -0.015 1 
0.467 -0.208 -0.015 1 
0.464 -0.2 -0.015 1 
0.466 -0.187 -0.015 1 
0.465 -0.184 -0.015 1 
0.464 -0.175 -0.014 1 
0.468 -0.157 -0.015 1 
0.467 -0.148 -0.015 1 
0.464 -0.065 -0.013 1 
0.464 -0.057 -0.013 1 
0.47 -0.039 -0.014 1 
0.477 -0.032 -0.016 1 
0.45 0.008 -0.01 1 
0.463 0.043 -0.013 1 
0.46 0.053 -0.013 1 
0.373 0.024 -0.012 1 
0.469 -0.105 -0.015 1 
0.46 0.074 -0.013 1 
0.459 0.084 -0.013 1 
0.458 0.092 -0.012 1 
0.427 -0.095 -0.016 1 
0.46 0.103 -0.013 1 
0.454 0.149 -0.012 1 
0.452 0.173 -0.012 1 
0.39 0.234 -0.017 1 
0.451 0.183 -0.012 1 
0.439 0.278 -0.015 1 
0.452 0.223 -0.014 1 
0.45 0.244 -0.014 1 
0.45 0.283 -0.015 1 
0.445 0.309 -0.015 1 
0.442 0.315 -0.014 1 
0.387 0.064 -0.013 1 
0.474 -0.354 -0.018 1 
0.476 -0.281 -0.016 1 
0.474 -0.276 -0.015 1 
0.472 -0.272 -0.015 1 
0.464 -0.258 -0.013 1 
0.471 -0.217 -0.014 1 
0.423 0.274 -0.019 1 
0.471 -0.187 -0.013 1 
0.469 -0.175 -0.013 1 
0.472 -0.136 -0.013 1 
0.47 -0.116 -0.012 1 
0.472 -0.106 -0.012 1 
0.473 -0.095 -0.013 1 
0.474 -0.087 -0.013 1 
0.472 -0.075 -0.012 1 
0.472 -0.067 -0.012 1 
0.474 -0.048 -0.013 1 
0.478 -0.043 -0.014 1 
0.423 0.153 -0.014 1 
0.464 0.008 -0.011 1 
0.47 0.022 -0.012 1 
0.47 0.033 -0.012 1 
0.453 0.054 -0.013 1 
0.469 0.044 -0.012 1 
0.421 -0.145 -0.015 1 
0.464 0.113 -0.011 1 
0.464 0.124 -0.012 1 
0.463 0.134 -0.011 1 
0.461 0.144 -0.011 1 
0.457 0.162 -0.011 1 
0.437 -0.033 -0.016 1 
0.457 0.184 -0.011 1 
0.454 0.193 -0.011 1 
0.451 0.2 -0.01 1 
0.453 0.259 -0.012 1 
0.449 0.313 -0.013 1 
0.48 -0.357 -0.016 1 
0.484 -0.347 -0.017 1 
0.487 -0.347 -0.017 1 
0.481 -0.326 -0.015 1 
0.483 -0.318 -0.016 1 
0.483 -0.308 -0.015 1 
0.484 -0.295 -0.015 1 
0.483 -0.291 -0.015 1 
0.474 -0.245 -0.012 1 
0.473 -0.232 -0.011 1 
0.474 -0.169 -0.011 1 
0.478 -0.096 -0.011 1 
0.478 -0.065 -0.011 1 
0.482 -0.049 -0.012 1 
0.505 -0.038 -0.017 1 
0.401 -0.156 -0.019 1 
0.474 0.009 -0.01 1 
0.473 0.064 -0.01 1 
0.472 0.074 -0.01 1 
0.472 0.094 -0.01 1 
0.471 0.104 -0.01 1 
0.462 0.193 -0.01 1 
0.462 0.234 -0.011 1 
0.461 0.242 -0.011 1 
0.461 0.254 -0.011 1 
0.46 0.274 -0.011 1 
0.461 0.303 -0.012 1 
0.483 -0.288 -0.012 1 
0.483 -0.275 -0.011 1 
0.484 -0.266 -0.011 1 
0.414 -0.177 -0.019 1 
0.482 -0.255 -0.011 1 
0.428 0.124 -0.015 1 
0.482 -0.236 -0.01 1 
0.483 -0.225 -0.011 1 
0.483 -0.216 -0.011 1 
0.483 -0.186 -0.01 1 
0.481 -0.176 -0.01 1 
0.483 -0.165 -0.01 1 
0.484 -0.145 -0.01 1 
0.484 -0.136 -0.01 1 
0.482 -0.126 -0.009 1 
0.484 -0.107 -0.01 1 
0.464 0.032 -0.013 1 
0.484 -0.078 -0.009 1 
0.491 -0.042 -0.011 1 
0.364 -0.008 0.015 1 
0.391 -0.156 -0.018 1 
0.366 -0.003 0.015 1 
0.367 0.002 0.014 1 
0.482 0.014 -0.009 1 
0.482 0.034 -0.009 1 
0.482 0.043 -0.009 1 
0.482 0.054 -0.009 1 
0.473 0.153 -0.008 1 
0.471 0.184 -0.009 1 
0.466 0.193 -0.008 1 
0.464 0.203 -0.008 1 
0.461 0.313 -0.01 1 
0.46 0.332 -0.01 1 
0.46 0.336 -0.011 1 
0.466 -0.196 -0.015 1 
0.493 -0.335 -0.012 1 
0.491 -0.298 -0.011 1 
0.489 -0.28 -0.01 1 
0.494 -0.235 -0.01 1 
0.49 -0.156 -0.008 1 
0.492 -0.095 -0.008 1 
0.381 0.163 -0.016 1 
0.492 -0.077 -0.008 1 
0.505 -0.035 -0.011 1 
0.394 0.01 -0.013 1 
0.424 -0.139 -0.016 1 
0.391 -0.005 0.011 1 
0.392 0.002 0.011 1 
0.484 0.063 -0.007 1 
0.484 0.074 -0.007 1 
0.484 0.083 -0.007 1 
0.484 0.092 -0.007 1 
0.483 0.114 -0.007 1 
0.482 0.134 -0.007 1 
0.481 0.143 -0.007 1 
0.474 0.171 -0.006 1 
0.472 0.202 -0.006 1 
0.473 0.212 -0.007 1 
0.472 0.241 -0.007 1 
0.473 0.251 -0.008 1 
0.471 0.262 -0.007 1 
0.472 0.272 -0.008 1 
0.474 0.284 -0.009 1 
0.474 0.293 -0.009 1 
0.495 -0.196 -0.007 1 
0.384 0.008 -0.012 1 
0.494 -0.18 -0.006 1 
0.495 -0.177 -0.006 1 
0.496 -0.156 -0.006 1 
0.496 -0.147 -0.006 1 
0.495 -0.144 -0.006 1 
0.494 -0.137 -0.006 1 
0.495 -0.117 -0.006 1 
0.496 -0.105 -0.006 1 
0.496 -0.096 -0.006 1 
0.495 -0.087 -0.006 1 
0.399 0.163 -0.015 1 
0.495 -0.075 -0.006 1 
0.496 -0.066 -0.006 1 
0.496 -0.057 -0.006 1 
0.498 -0.046 -0.006 1 
0.502 -0.035 -0.007 1 
0.384 -0.207 -0.023 1 
0.492 0.024 -0.005 1 
0.492 0.044 -0.005 1 
0.489 0.064 -0.005 1 
0.489 0.102 -0.005 1 
0.489 0.114 -0.005 1 
0.487 0.133 -0.005 1 
0.486 0.142 -0.005 1 
0.485 0.153 -0.005 1 
0.483 0.162 -0.005 1 
0.483 0.173 -0.005 1 
0.482 0.194 -0.005 1 
0.441 -0.125 -0.016 1 
0.48 0.214 -0.005 1 
0.481 0.224 -0.006 1 
0.479 0.234 -0.006 1 
0.479 0.253 -0.006 1 
0.478 0.262 -0.006 1 
0.477 0.27 -0.006 1 
0.479 0.282 -0.007 1 
0.473 0.312 -0.006 1 
0.474 0.323 -0.007 1 
0.474 0.33 -0.007 1 
0.421 0.169 -0.015 1 
0.472 0.342 -0.007 1 
0.502 -0.326 -0.007 1 
0.5 -0.296 -0.006 1 
0.5 -0.286 -0.006 1 
0.501 -0.277 -0.006 1 
0.503 -0.265 -0.006 1 
0.364 0.214 -0.017 1 
0.5 -0.227 -0.005 1 
0.499 -0.217 -0.005 1 
0.502 -0.257 -0.006 1 
0.499 -0.207 -0.005 1 
0.494 -0.025 -0.003 1 
0.492 -0.016 -0.002 1 
0.493 0.012 -0.003 1 
0.432 -0.166 -0.016 1 
0.494 0.024 -0.003 1 
0.493 0.033 -0.003 1 
0.493 0.053 -0.003 1 
0.484 0.21 -0.003 1 
0.372 0.174 -0.015 1 
0.484 0.303 -0.005 1 
0.481 0.313 -0.005 1 
0.44 -0.266 -0.023 1 
0.477 0.316 -0.004 1 
0.48 0.323 -0.005 1 
0.48 0.343 -0.006 1 
0.476 0.354 -0.005 1 
0.502 -0.326 -0.004 1 
0.502 -0.305 -0.003 1 
0.471 0.164 -0.008 1 
0.504 -0.269 -0.003 1 
0.504 -0.256 -0.003 1 
0.503 -0.235 -0.002 1 
0.474 -0.236 -0.012 1 
0.493 -0.007 0 1 
0.494 -0.002 0 1 
0.494 0.062 0 1 
0.494 0.074 0 1 
0.494 0.083 0 1 
0.481 0.353 -0.003 1 
0.481 0.356 -0.003 1 
0.484 0.293 -0.005 1 
0.505 -0.234 0 1 
0.499 -0.085 0.001 1 
0.499 -0.076 0.001 1 
0.5 -0.067 0.001 1 
0.461 -0.145 -0.016 1 
0.499 -0.046 0.001 1 
0.498 -0.025 0.001 1 
0.496 -0.016 0.002 1 
0.496 0.003 0.002 1 
0.498 0.012 0.001 1 
0.495 0.062 0.002 1 
0.496 0.074 0.001 1 
0.496 0.083 0.001 1 
0.495 0.092 0.001 1 
0.494 0.094 0.002 1 
0.494 0.103 0.002 1 
0.494 0.112 0.001 1 
0.495 0.119 0.001 1 
0.361 0.225 -0.016 1 
0.494 0.124 0.001 1 
0.492 0.163 0.001 1 
0.353 0.194 -0.016 1 
0.413 -0.136 -0.017 1 
0.507 -0.285 0.001 1 
0.508 -0.275 0.001 1 
0.508 -0.265 0.002 1 
0.505 -0.256 0.002 1 
0.506 -0.247 0.002 1 
0.463 0.024 -0.013 1 
0.505 -0.237 0.002 1 
0.504 -0.227 0.003 1 
0.502 -0.216 0.003 1 
0.501 -0.205 0.003 1 
0.453 0.018 -0.013 1 
0.5 -0.195 0.004 1 
0.5 -0.177 0.004 1 
0.451 0.272 -0.012 1 
0.495 -0.037 0.005 1 
0.493 0.182 0.004 1 
0.493 0.194 0.004 1 
0.491 0.202 0.004 1 
0.389 -0.125 -0.016 1 
0.49 0.233 0.003 1 
0.491 0.243 0.003 1 
0.491 0.253 0.003 1 
0.491 0.272 0.003 1 
0.493 0.284 0.002 1 
0.492 0.303 0.002 1 
0.492 0.314 0.002 1 
0.492 0.32 0.001 1 
0.492 0.331 0.001 1 
0.363 0.164 -0.016 1 
0.41 0.171 -0.014 1 
0.489 0.338 0.004 1 
0.488 0.346 0.004 1 
0.413 0.144 -0.014 1 
0.451 0.082 -0.013 1 
0.488 0.122 -0.005 1 
0.5 -0.167 0.004 1 
0.489 0.073 -0.005 1 
0.502 -0.238 -0.005 1 
0.491 0.053 -0.005 1 
0.492 0.032 -0.005 1 
0.492 0.012 -0.005 1 
0.418 0.172 -0.014 1 
0.467 -0.165 -0.015 1 
0.4 -0.195 -0.019 1 
0.5 -0.306 -0.006 1 
0.471 0.082 -0.01 1 
0.492 -0.065 -0.008 1 
0.492 -0.086 -0.008 1 
0.49 -0.106 -0.008 1 
0.409 -0.145 -0.016 1 
0.494 -0.125 -0.006 1 
0.444 0.228 -0.014 1 
0.49 -0.147 -0.008 1 
0.449 -0.126 -0.015 1 
0.481 0.271 -0.004 1 
0.434 -0.105 -0.016 1 
0.49 -0.165 -0.008 1 
0.492 -0.206 -0.009 1 
0.494 -0.229 -0.01 1 
0.492 -0.247 -0.01 1 
0.352 0.175 -0.014 1 
0.489 -0.267 -0.009 1 
0.499 -0.031 -0.007 1 
0.488 -0.285 -0.01 1 
0.363 0.114 -0.014 1 
0.492 -0.306 -0.011 1 
0.493 -0.328 -0.012 1 
0.491 -0.255 -0.01 1 
0.452 -0.297 -0.022 1 
0.404 -0.027 -0.016 1 
0.462 0.292 -0.012 1 
0.502 -0.247 -0.005 1 
0.403 -0.076 -0.016 1 
0.482 0.203 -0.005 1 
0.431 0.093 -0.016 1 
0.372 0.109 -0.015 1 
0.42 -0.166 -0.018 1 
0.394 0.103 -0.014 1 
0.411 -0.249 -0.027 1 
0.448 0.254 -0.014 1 
0.47 0.112 -0.01 1 
0.413 -0.056 -0.016 1 
0.434 0.092 -0.014 1 
0.486 -0.342 -0.017 1 
0.464 0.32 -0.008 1 
0.394 -0.197 -0.02 1 
0.414 0.056 -0.015 1 
0.441 0.153 -0.014 1 
0.484 0.241 -0.004 1 
0.472 -0.156 -0.013 1 
0.362 0.224 -0.017 1 
0.453 -0.147 -0.016 1 
0.403 -0.268 -0.03 1 
0.459 -0.155 -0.015 1 
0.404 -0.258 -0.028 1 
0.491 -0.033 -0.022 1 
0.493 0.044 -0.003 1 
0.405 0.013 -0.014 1 
0.431 -0.278 -0.027 1 
0.433 -0.268 -0.024 1 
0.434 0.17 -0.016 1 
0.482 -0.245 -0.011 1 
0.382 -0.213 -0.025 1 
0.468 0.142 -0.01 1 
0.501 -0.287 -0.003 1 
0.484 -0.207 -0.011 1 
0.363 -0.026 -0.011 1 
0.462 -0.343 -0.012 1 
0.392 0.137 -0.014 1 
0.469 0.345 -0.007 1 
0.454 0.303 -0.014 1 
0.4 0.263 -0.017 1 
0.42 0.073 -0.015 1 
0.4 -0.066 -0.015 1 
0.483 0.289 -0.004 1 
0.402 0.154 -0.015 1 
0.483 0.263 -0.004 1 
0.42 0.243 -0.017 1 
0.453 -0.317 -0.023 1 
0.466 0.054 -0.011 1 
0.462 0.282 -0.012 1 
0.385 -0.025 -0.014 1 
0.424 0.143 -0.015 1 
0.381 0.134 -0.015 1 
0.384 -0.177 -0.018 1 
0.364 0.124 -0.015 1 
0.507 -0.295 0.001 1 
0.472 -0.294 -0.015 1 
0.48 -0.055 -0.011 1 
0.374 -0.012 0.015 1 
0.499 -0.037 0.001 1 
0.469 0.134 -0.01 1 
0.449 0.304 -0.015 1 
0.447 0.094 -0.015 1 
0.467 -0.255 -0.011 1 
0.421 -0.077 -0.017 1 
0.453 -0.204 -0.017 1 
0.481 0.334 -0.005 1 
0.371 0.044 -0.014 1 
0.445 0.319 -0.012 1 
0.364 0.02 -0.013 1 
0.405 0.017 -0.014 1 
0.451 -0.205 -0.017 1 
0.452 0.143 -0.014 1 
0.444 0.254 -0.015 1 
0.405 0.211 -0.016 1 
0.391 -0.107 -0.017 1 
0.384 0.107 -0.015 1 
0.454 0.16 -0.012 1 
0.418 0.202 -0.017 1 
0.46 0.29 -0.015 1 
0.444 0.123 -0.015 1 
0.489 -0.195 -0.009 1 
0.43 0.052 -0.015 1 
0.431 0.162 -0.014 1 
0.421 -0.107 -0.017 1 
0.429 -0.216 -0.019 1 
0.407 0.152 -0.015 1 
0.436 0.132 -0.015 1 
0.387 -0.223 -0.025 1 
0.434 0.242 -0.015 1 
0.466 -0.245 -0.016 1 
0.473 -0.056 -0.012 1 
0.398 0.172 -0.015 1 
0.364 0.126 -0.015 1 
0.414 -0.167 -0.018 1 
0.491 0.224 0.003 1 
0.427 0.133 -0.015 1 
0.433 0.034 -0.016 1 
0.444 0.234 -0.015 1 
0.371 -0.065 -0.013 1 
0.461 -0.336 -0.023 1 
0.424 -0.227 -0.02 1 
0.364 -0.145 -0.018 1 
0.454 0.205 -0.011 1 
0.373 0.219 -0.016 1 
0.385 0.194 -0.014 1 
0.494 -0.119 -0.006 1 
0.374 0.093 -0.013 1 
0.429 0.114 -0.015 1 
0.423 -0.052 -0.015 1 
0.393 0.139 -0.015 1 
0.442 -0.075 -0.015 1 
0.484 0.254 -0.004 1 
0.37 0.013 -0.011 1 
0.391 0.258 -0.017 1 
0.407 0.024 -0.015 1 
0.373 0.073 -0.015 1 
0.503 -0.316 -0.007 1 
0.484 0.15 -0.005 1 
0.396 0.033 -0.014 1 
0.384 -0.173 -0.018 1 
0.491 0.212 0.004 1 
0.464 -0.226 -0.015 1 
0.424 -0.184 -0.017 1 
0.447 -0.067 -0.014 1 
0.417 0.262 -0.017 1 
0.493 0.133 0.004 1 
0.375 -0.072 -0.015 1 
0.432 0.182 -0.015 1 
0.427 0.252 -0.016 1 
0.434 -0.049 -0.016 1 
0.474 0.234 -0.007 1 
0.412 -0.185 -0.018 1 
0.449 0.232 -0.013 1 
0.422 -0.266 -0.026 1 
0.432 0.213 -0.016 1 
0.396 0.064 -0.014 1 
0.47 0.303 -0.008 1 
0.497 -0.007 0.002 1 
0.451 -0.055 -0.015 1 
0.47 0.124 -0.01 1 
0.492 -0.057 -0.008 1 
0.424 -0.029 -0.017 1 
0.417 -0.157 -0.017 1 
0.451 -0.07 -0.015 1 
0.496 -0.165 -0.007 1 
0.489 0.084 -0.005 1 
0.483 0.282 -0.004 1 
0.421 0.113 -0.016 1 
0.484 -0.041 -0.015 1 
0.405 0.082 -0.015 1 
0.453 0.133 -0.014 1 
0.459 0.063 -0.012 1 
0.494 -0.186 -0.006 1 
0.355 -0.019 -0.008 1 
0.504 -0.282 0 1 
0.416 0.043 -0.016 1 
0.411 -0.096 -0.016 1 
0.439 -0.06 -0.014 1 
0.422 -0.255 -0.026 1 
0.45 -0.116 -0.015 1 
0.503 -0.316 -0.004 1 
0.408 0.044 -0.015 1 
0.504 -0.246 -0.003 1 
0.403 0.103 -0.015 1 
0.404 0.164 -0.014 1 
0.374 -0.186 -0.021 1 
0.484 0.103 -0.007 1 
0.374 -0.195 -0.024 1 
0.484 -0.195 -0.01 1 
0.489 0.093 -0.005 1 
0.491 0.172 0.004 1 
0.495 0.018 0.005 1 
0.493 -0.216 -0.01 1 
0.493 0.294 0.002 1 
0.419 -0.185 -0.018 1 
0.372 -0.155 -0.019 1 
0.495 -0.031 0.005 1 
0.479 0.244 -0.006 1 
0.463 0.214 -0.01 1 
0.459 0.152 -0.011 1 
0.482 0.123 -0.007 1 
0.442 -0.237 -0.018 1 
0.374 -0.087 -0.015 1 
0.494 -0.318 -0.012 1 
0.504 -0.035 -0.017 1 
0.502 -0.298 -0.003 1 
0.4 -0.243 -0.026 1 
0.394 0.074 -0.014 1 
0.403 0.169 -0.014 1 
0.359 -0.115 -0.015 1 
0.463 -0.314 -0.02 1 
0.445 0.22 -0.015 1 
0.479 -0.085 -0.011 1 
0.351 0.134 -0.014 1 
0.484 -0.156 -0.01 1 
0.428 -0.255 -0.025 1 
0.424 0.163 -0.015 1 
0.384 -0.116 -0.017 1 
0.483 -0.115 -0.009 1 
0.463 -0.257 -0.015 1 
0.354 0.164 -0.014 1 
0.413 -0.126 -0.017 1 
0.352 0.173 -0.014 1 
0.437 0.088 -0.015 1 
0.473 -0.197 -0.014 1 
0.49 0.262 0.003 1 
0.394 -0.256 -0.029 1 
0.392 -0.06 -0.014 1 
0.499 -0.185 0.004 1 
0.469 0.224 -0.009 1 
0.394 0.112 -0.014 1 
0.492 0.144 0.004 1 
0.423 0.282 -0.019 1 
0.404 -0.229 -0.024 1 
0.468 -0.296 -0.018 1 
0.441 -0.276 -0.024 1 
0.47 -0.325 -0.016 1 
0.456 -0.03 -0.019 1 
0.432 -0.146 -0.016 1 
0.495 0.009 0.005 1 
0.459 0.174 -0.011 1 
0.459 0.264 -0.011 1 
0.391 -0.136 -0.017 1 
0.396 -0.126 -0.016 1 
0.483 -0.342 -0.019 1 
0.373 -0.175 -0.02 1 
0.397 0.054 -0.014 1 
0.441 0.166 -0.015 1 
0.491 0.15 0.004 1 
0.35 0.163 -0.015 1 
0.471 -0.316 -0.019 1 
0.39 -0.045 -0.014 1 
0.353 -0.026 -0.012 1 
0.378 0.114 -0.013 1 
0.453 0.062 -0.014 1 
0.354 0.005 -0.009 1 
0.499 -0.055 0.001 1 
0.425 0.142 -0.015 1 
0.462 0.222 -0.01 1 
0.333 -0.016 -0.005 1 
0.482 0.023 -0.009 1 
0.37 0.183 -0.015 1 
0.495 -0.193 -0.007 1 
0.458 -0.117 -0.015 1 
0.46 -0.175 -0.016 1 
0.421 0.009 -0.014 1 
0.43 0.284 -0.018 1 
0.441 0.163 -0.015 1 
0.375 -0.016 0.015 1 
0.482 0.182 -0.005 1 
0.471 -0.128 -0.012 1 
0.469 -0.235 -0.016 1 
0.454 -0.265 -0.019 1 
0.443 0.313 -0.015 1 
0.472 -0.206 -0.014 1 
0.45 0.292 -0.015 1 
0.472 -0.145 -0.013 1 
0.492 -0.051 -0.008 1 
0.327 -0.005 0.015 2 
0.327 -0.005 0.022 2 
0.361 -0.015 0.001 2 
0.326 0.001 0.018 2 
0.351 -0.017 0.031 2 
0.341 -0.016 0.03 2 
0.327 0.003 0.01 2 
0.494 0.134 0.152 3 
0.509 -0.295 0.163 3 
0.503 -0.226 0.104 3 
0.508 -0.305 0.163 3 
0.491 0.251 0.154 3 
0.492 0.242 0.154 3 
0.492 0.223 0.132 3 
0.508 -0.287 0.163 3 
0.493 0.234 0.154 3 
0.494 0.221 0.154 3 
0.493 0.211 0.153 3 
0.492 0.204 0.153 3 
0.49 0.244 0.132 3 
0.491 0.194 0.153 3 
0.494 -0.086 0.014 3 
0.492 0.183 0.153 3 
0.496 -0.037 0.114 3 
0.49 0.302 0.063 3 
0.493 0.173 0.153 3 
0.492 0.314 0.103 3 
0.494 0.162 0.153 3 
0.494 0.152 0.153 3 
0.494 0.143 0.152 3 
0.503 -0.166 0.162 3 
0.491 0.184 0.063 3 
0.5 -0.155 0.152 3 
0.503 -0.176 0.162 3 
0.493 -0.036 0.014 3 
0.502 -0.185 0.162 3 
0.503 -0.198 0.162 3 
0.503 -0.208 0.163 3 
0.504 -0.217 0.163 3 
0.505 -0.221 0.163 3 
0.504 -0.227 0.163 3 
0.492 0.253 0.072 3 
0.504 -0.237 0.163 3 
0.509 -0.278 0.163 3 
0.497 -0.037 0.052 3 
0.505 -0.241 0.164 3 
0.506 -0.248 0.164 3 
0.499 -0.105 0.052 3 
0.494 0.336 0.16 3 
0.494 0.325 0.16 3 
0.495 0.291 0.159 3 
0.494 0.092 0.155 3 
0.507 -0.315 0.064 3 
0.507 -0.256 0.162 3 
0.508 -0.267 0.162 3 
0.494 0.332 0.154 3 
0.499 -0.055 0.153 3 
0.499 -0.136 0.103 3 
0.499 -0.067 0.153 3 
0.499 -0.076 0.153 3 
0.499 -0.085 0.153 3 
0.495 -0.016 0.102 3 
0.494 0.074 0.072 3 
0.5 -0.097 0.154 3 
0.5 -0.106 0.154 3 
0.501 -0.116 0.154 3 
0.503 -0.245 0.033 3 
0.494 0.339 0.154 3 
0.497 -0.066 0.052 3 
0.494 0.311 0.153 3 
0.494 0.304 0.153 3 
0.495 0.294 0.153 3 
0.494 0.287 0.152 3 
0.494 0.283 0.152 3 
0.495 0.129 0.15 3 
0.494 0.08 0.149 3 
0.494 0.024 0.149 3 
0.502 -0.196 0.113 3 
0.5 -0.146 0.151 3 
0.499 -0.146 0.142 3 
0.495 0.024 0.152 3 
0.494 0.122 0.152 3 
0.494 0.113 0.152 3 
0.493 0.104 0.152 3 
0.494 0.092 0.152 3 
0.495 0.084 0.152 3 
0.495 0.072 0.152 3 
0.491 0.123 0.043 3 
0.496 0.063 0.152 3 
0.495 0.054 0.152 3 
0.495 0.042 0.152 3 
0.496 0.033 0.152 3 
0.496 -0.025 0.084 3 
0.493 0.164 0.123 3 
0.495 0.013 0.152 3 
0.495 0.004 0.152 3 
0.496 -0.007 0.152 3 
0.497 -0.016 0.152 3 
0.495 0.006 0.043 3 
0.497 -0.025 0.152 3 
0.504 -0.266 0.092 3 
0.497 -0.037 0.152 3 
0.49 0.272 0.093 3 
0.498 -0.046 0.153 3 
0.495 0.322 0.154 3 
0.494 0.147 0.164 3 
0.494 0.144 0.164 3 
0.494 0.122 0.164 3 
0.494 0.113 0.164 3 
0.494 0.104 0.164 3 
0.493 0.273 0.152 3 
0.505 -0.296 0.042 3 
0.495 0.102 0.164 3 
0.496 0.084 0.164 3 
0.496 0.072 0.164 3 
0.497 -0.055 0.123 3 
0.495 0.063 0.164 3 
0.494 0.231 0.166 3 
0.495 0.054 0.164 3 
0.495 0.042 0.164 3 
0.505 -0.297 0.008 3 
0.496 0.033 0.164 3 
0.496 0.016 0.164 3 
0.502 -0.215 0.043 3 
0.496 0.013 0.164 3 
0.491 0.264 0.154 3 
0.496 -0.057 0.008 3 
0.496 0.004 0.164 3 
0.504 -0.167 0.168 3 
0.494 0.074 0.034 3 
0.494 0.104 0.122 3 
0.495 0.312 0.172 3 
0.496 0.303 0.172 3 
0.495 0.285 0.171 3 
0.494 0.244 0.17 3 
0.494 0.193 0.169 3 
0.494 0.147 0.167 3 
0.505 -0.164 0.172 3 
0.505 -0.167 0.172 3 
0.505 -0.177 0.172 3 
0.494 0.009 0.107 3 
0.505 -0.187 0.172 3 
0.492 0.184 0.072 3 
0.504 -0.189 0.172 3 
0.49 0.192 0.042 3 
0.504 -0.196 0.172 3 
0.505 -0.199 0.172 3 
0.506 -0.206 0.173 3 
0.506 -0.216 0.173 3 
0.505 -0.225 0.173 3 
0.506 -0.235 0.173 3 
0.507 -0.246 0.174 3 
0.507 -0.256 0.174 3 
0.494 0.311 0.169 3 
0.502 -0.116 0.164 3 
0.497 -0.016 0.162 3 
0.498 -0.025 0.162 3 
0.498 -0.037 0.162 3 
0.501 -0.055 0.163 3 
0.502 -0.175 0.143 3 
0.5 -0.067 0.163 3 
0.492 0.314 0.072 3 
0.5 -0.076 0.163 3 
0.501 -0.085 0.163 3 
0.495 0.063 0.143 3 
0.502 -0.095 0.164 3 
0.502 -0.107 0.164 3 
0.494 0.06 0.161 3 
0.502 -0.125 0.164 3 
0.503 -0.135 0.164 3 
0.491 0.233 0.072 3 
0.504 -0.205 0.166 3 
0.504 -0.215 0.166 3 
0.495 0.337 0.164 3 
0.495 0.333 0.163 3 
0.495 0.323 0.163 3 
0.495 0.312 0.163 3 
0.494 0.297 0.162 3 
0.502 -0.147 0.161 3 
0.493 0.234 0.163 3 
0.504 -0.18 0.169 3 
0.509 -0.268 0.172 3 
0.51 -0.275 0.173 3 
0.509 -0.295 0.173 3 
0.5 -0.137 0.154 3 
0.507 -0.308 0.173 3 
0.494 0.277 0.164 3 
0.494 0.274 0.164 3 
0.492 0.262 0.163 3 
0.491 0.252 0.163 3 
0.492 0.243 0.163 3 
0.502 -0.156 0.161 3 
0.495 0.229 0.164 3 
0.494 0.212 0.163 3 
0.493 0.202 0.162 3 
0.493 0.193 0.162 3 
0.493 0.174 0.162 3 
0.494 0.162 0.162 3 
0.494 0.131 0.161 3 
0.495 0.129 0.162 3 
0.496 0.093 0.162 3 
0.498 -0.055 0.144 3 
0.502 -0.238 0.064 3 
0.49 0.253 0.132 3 
0.496 -0.007 0.134 3 
0.495 -0.016 0.134 3 
0.495 -0.025 0.134 3 
0.505 -0.198 0.138 3 
0.495 0.329 0.135 3 
0.493 0.32 0.134 3 
0.492 0.312 0.134 3 
0.492 0.301 0.134 3 
0.492 0.291 0.133 3 
0.492 0.281 0.133 3 
0.491 0.274 0.133 3 
0.49 0.263 0.132 3 
0.496 0.004 0.134 3 
0.492 0.232 0.132 3 
0.492 0.194 0.132 3 
0.493 0.182 0.132 3 
0.493 0.173 0.132 3 
0.497 -0.037 0.132 3 
0.497 -0.046 0.132 3 
0.497 -0.055 0.132 3 
0.498 -0.067 0.132 3 
0.497 -0.075 0.132 3 
0.498 -0.085 0.132 3 
0.498 -0.097 0.132 3 
0.494 0.122 0.134 3 
0.507 -0.296 0.144 3 
0.502 -0.238 0.052 3 
0.508 -0.308 0.144 3 
0.49 0.206 0.134 3 
0.494 0.062 0.063 3 
0.499 -0.217 0.022 3 
0.49 0.203 0.134 3 
0.493 0.164 0.134 3 
0.493 0.152 0.134 3 
0.488 0.244 0.012 3 
0.493 0.143 0.134 3 
0.493 0.134 0.134 3 
0.499 -0.106 0.133 3 
0.494 0.113 0.134 3 
0.493 0.104 0.134 3 
0.493 0.092 0.134 3 
0.494 0.083 0.134 3 
0.494 0.074 0.134 3 
0.494 0.062 0.134 3 
0.493 0.053 0.134 3 
0.494 0.042 0.134 3 
0.494 0.033 0.134 3 
0.494 0.012 0.134 3 
0.495 0.007 0.134 3 
0.504 -0.236 0.123 3 
0.495 0.015 0.125 3 
0.507 -0.306 0.131 3 
0.492 0.308 0.124 3 
0.492 0.301 0.124 3 
0.492 0.281 0.124 3 
0.49 0.263 0.123 3 
0.49 0.253 0.123 3 
0.491 0.244 0.123 3 
0.495 0.042 0.084 3 
0.493 0.233 0.123 3 
0.493 0.024 0.023 3 
0.492 0.223 0.123 3 
0.507 -0.296 0.134 3 
0.492 0.213 0.123 3 
0.493 0.204 0.123 3 
0.493 0.194 0.123 3 
0.493 0.182 0.123 3 
0.493 0.173 0.123 3 
0.493 0.152 0.122 3 
0.493 0.143 0.122 3 
0.492 0.133 0.122 3 
0.493 0.124 0.122 3 
0.493 0.113 0.122 3 
0.501 0.328 0.207 3 
0.494 0.331 0.132 3 
0.499 -0.115 0.133 3 
0.5 -0.128 0.133 3 
0.5 -0.137 0.133 3 
0.499 -0.146 0.133 3 
0.499 -0.155 0.133 3 
0.501 -0.165 0.134 3 
0.502 -0.175 0.134 3 
0.503 -0.187 0.134 3 
0.504 -0.22 0.135 3 
0.503 -0.255 0.043 3 
0.493 0.337 0.132 3 
0.508 -0.287 0.144 3 
0.503 -0.197 0.131 3 
0.505 -0.208 0.132 3 
0.493 0.194 0.114 3 
0.505 -0.217 0.132 3 
0.504 -0.227 0.132 3 
0.504 -0.236 0.132 3 
0.505 -0.244 0.133 3 
0.506 -0.258 0.133 3 
0.507 -0.265 0.133 3 
0.503 -0.255 0.052 3 
0.507 -0.275 0.134 3 
0.493 0.113 0.143 3 
0.492 0.223 0.144 3 
0.492 0.214 0.144 3 
0.491 0.204 0.144 3 
0.491 0.194 0.144 3 
0.5 -0.186 0.022 3 
0.493 0.182 0.144 3 
0.493 0.173 0.144 3 
0.493 0.164 0.143 3 
0.499 -0.115 0.073 3 
0.494 0.152 0.144 3 
0.494 0.143 0.143 3 
0.494 0.122 0.143 3 
0.492 0.229 0.144 3 
0.493 0.104 0.143 3 
0.493 0.092 0.143 3 
0.494 0.083 0.143 3 
0.495 0.078 0.143 3 
0.494 0.074 0.143 3 
0.495 0.072 0.143 3 
0.495 0.054 0.143 3 
0.494 0.045 0.143 3 
0.495 -0.007 0.102 3 
0.494 0.042 0.143 3 
0.495 0.039 0.143 3 
0.493 0.324 0.15 3 
0.502 -0.175 0.152 3 
0.502 -0.185 0.153 3 
0.502 -0.197 0.153 3 
0.503 -0.207 0.153 3 
0.504 -0.217 0.154 3 
0.505 -0.267 0.114 3 
0.504 -0.227 0.154 3 
0.506 -0.305 0.064 3 
0.504 -0.237 0.154 3 
0.505 -0.286 0.024 3 
0.505 -0.241 0.154 3 
0.494 0.033 0.143 3 
0.494 0.033 0.146 3 
0.494 0.012 0.146 3 
0.489 0.283 0.033 3 
0.506 -0.248 0.152 3 
0.508 -0.256 0.152 3 
0.508 -0.266 0.153 3 
0.508 -0.276 0.153 3 
0.508 -0.287 0.153 3 
0.509 -0.298 0.154 3 
0.5 -0.208 0.034 3 
0.509 -0.305 0.154 3 
0.5 -0.155 0.142 3 
0.493 0.282 0.143 3 
0.492 0.271 0.142 3 
0.491 0.264 0.142 3 
0.491 0.254 0.142 3 
0.492 0.242 0.142 3 
0.498 -0.097 0.141 3 
0.498 -0.106 0.141 3 
0.492 0.184 0.102 3 
0.5 -0.115 0.142 3 
0.502 -0.225 0.092 3 
0.5 -0.125 0.142 3 
0.5 -0.137 0.142 3 
0.494 0.293 0.143 3 
0.503 -0.195 0.144 3 
0.504 -0.211 0.144 3 
0.509 -0.316 0.148 3 
0.494 0.062 0.137 3 
0.505 -0.218 0.141 3 
0.503 -0.235 0.083 3 
0.505 -0.237 0.142 3 
0.505 -0.247 0.142 3 
0.507 -0.259 0.143 3 
0.507 -0.265 0.143 3 
0.508 -0.276 0.143 3 
0.498 -0.076 0.052 3 
0.494 0.024 0.143 3 
0.494 0.012 0.143 3 
0.495 0.007 0.143 3 
0.495 0.004 0.143 3 
0.496 -0.007 0.143 3 
0.496 -0.016 0.143 3 
0.503 -0.255 0.083 3 
0.49 0.192 0.013 3 
0.497 -0.025 0.143 3 
0.497 -0.037 0.144 3 
0.497 -0.046 0.144 3 
0.502 -0.166 0.152 3 
0.498 -0.067 0.144 3 
0.498 -0.076 0.144 3 
0.498 -0.085 0.144 3 
0.505 -0.221 0.148 3 
0.502 -0.215 0.064 3 
0.505 -0.234 0.148 3 
0.493 0.338 0.144 3 
0.493 0.334 0.144 3 
0.493 0.323 0.144 3 
0.492 0.312 0.143 3 
0.492 0.302 0.143 3 
0.501 0.064 0.194 3 
0.499 -0.145 0.082 3 
0.499 0.15 0.194 3 
0.5 0.144 0.194 3 
0.506 -0.315 0.033 3 
0.5 0.134 0.194 3 
0.499 0.122 0.193 3 
0.499 0.112 0.193 3 
0.498 -0.105 0.064 3 
0.5 0.104 0.193 3 
0.501 0.092 0.194 3 
0.5 0.082 0.193 3 
0.5 0.073 0.193 3 
0.498 0.174 0.194 3 
0.501 0.052 0.193 3 
0.501 0.043 0.193 3 
0.502 0.034 0.194 3 
0.503 0.016 0.194 3 
0.503 0.013 0.194 3 
0.494 0.053 0.063 3 
0.503 0.004 0.194 3 
0.503 -0.01 0.194 3 
0.493 0.183 0.162 3 
0.494 0.104 0.093 3 
0.504 -0.026 0.195 3 
0.51 -0.196 0.203 3 
0.501 0.302 0.203 3 
0.504 0.016 0.198 3 
0.492 0.274 0.124 3 
0.504 0.013 0.198 3 
0.504 -0.007 0.198 3 
0.51 -0.126 0.201 3 
0.508 -0.147 0.201 3 
0.509 -0.157 0.201 3 
0.51 -0.167 0.202 3 
0.509 -0.176 0.202 3 
0.501 -0.007 0.184 3 
0.51 -0.187 0.202 3 
0.504 -0.035 0.195 3 
0.511 -0.207 0.203 3 
0.495 0.05 0.093 3 
0.51 -0.216 0.203 3 
0.515 -0.295 0.208 3 
0.495 0.227 0.194 3 
0.495 0.223 0.194 3 
0.495 0.214 0.194 3 
0.497 0.199 0.194 3 
0.498 -0.096 0.052 3 
0.496 0.189 0.194 3 
0.496 0.183 0.194 3 
0.507 -0.147 0.194 3 
0.503 -0.047 0.191 3 
0.505 -0.056 0.192 3 
0.505 -0.065 0.192 3 
0.504 -0.068 0.192 3 
0.504 -0.077 0.192 3 
0.505 -0.081 0.192 3 
0.505 -0.087 0.192 3 
0.506 -0.096 0.193 3 
0.506 -0.106 0.193 3 
0.508 -0.116 0.194 3 
0.508 -0.125 0.194 3 
0.508 -0.138 0.194 3 
0.502 -0.035 0.191 3 
0.497 0.024 0.002 3 
0.507 -0.156 0.194 3 
0.507 -0.169 0.194 3 
0.501 -0.125 0.154 3 
0.506 -0.181 0.194 3 
0.515 -0.305 0.202 3 
0.514 -0.308 0.201 3 
0.499 0.331 0.193 3 
0.495 0.053 0.002 3 
0.499 0.324 0.193 3 
0.498 0.313 0.192 3 
0.493 0.124 0.084 3 
0.511 -0.227 0.201 3 
0.495 -0.007 0.093 3 
0.513 -0.235 0.202 3 
0.496 -0.007 0.161 3 
0.513 -0.248 0.202 3 
0.494 0.311 0.156 3 
0.513 -0.265 0.203 3 
0.513 -0.275 0.203 3 
0.512 -0.285 0.203 3 
0.505 -0.208 0.144 3 
0.513 -0.296 0.204 3 
0.493 0.024 0.134 3 
0.515 -0.305 0.205 3 
0.492 0.222 0.102 3 
0.492 0.194 0.102 3 
0.497 0.294 0.194 3 
0.497 0.284 0.194 3 
0.497 0.274 0.194 3 
0.496 0.26 0.193 3 
0.497 0.254 0.193 3 
0.498 0.162 0.191 3 
0.503 -0.016 0.191 3 
0.502 -0.025 0.191 3 
0.503 0.053 0.2 3 
0.5 0.141 0.201 3 
0.5 0.132 0.2 3 
0.501 0.122 0.2 3 
0.495 0.066 0.134 3 
0.501 0.113 0.2 3 
0.504 -0.227 0.144 3 
0.502 0.104 0.2 3 
0.504 0.093 0.201 3 
0.503 0.083 0.201 3 
0.502 0.074 0.2 3 
0.512 -0.258 0.202 3 
0.503 0.062 0.2 3 
0.489 0.346 0.063 3 
0.504 0.044 0.201 3 
0.494 0.024 0.069 3 
0.505 0.038 0.201 3 
0.495 0.213 0.172 3 
0.505 0.034 0.201 3 
0.506 0.022 0.202 3 
0.501 -0.195 0.094 3 
0.505 0.013 0.201 3 
0.491 0.262 0.054 3 
0.504 0.004 0.201 3 
0.503 0.034 0.197 3 
0.499 0.253 0.203 3 
0.501 0.324 0.207 3 
0.494 0.062 0.052 3 
0.501 0.313 0.206 3 
0.5 0.301 0.205 3 
0.492 0.294 0.124 3 
0.498 0.292 0.204 3 
0.499 0.283 0.204 3 
0.501 0.274 0.205 3 
0.499 0.266 0.204 3 
0.49 0.253 0.102 3 
0.498 0.262 0.203 3 
0.505 -0.001 0.201 3 
0.5 0.243 0.203 3 
0.497 0.231 0.202 3 
0.497 0.222 0.201 3 
0.498 0.213 0.201 3 
0.499 0.204 0.202 3 
0.499 0.194 0.201 3 
0.499 0.184 0.201 3 
0.49 0.052 0.014 3 
0.5 0.172 0.201 3 
0.502 0.164 0.202 3 
0.502 0.154 0.202 3 
0.499 -0.046 0.162 3 
0.51 -0.286 0.173 3 
0.513 -0.195 0.207 3 
0.513 -0.205 0.207 3 
0.515 -0.213 0.209 3 
0.514 -0.215 0.208 3 
0.514 -0.225 0.209 3 
0.505 -0.297 0.074 3 
0.513 -0.235 0.208 3 
0.513 -0.245 0.209 3 
0.5 0.013 0.184 3 
0.512 -0.258 0.209 3 
0.498 0.242 0.193 3 
0.495 0.337 0.17 3 
0.512 -0.265 0.209 3 
0.515 -0.27 0.21 3 
0.491 0.293 0.084 3 
0.513 -0.275 0.21 3 
0.513 -0.286 0.21 3 
0.514 -0.297 0.211 3 
0.514 -0.305 0.211 3 
0.495 0.036 0.102 3 
0.499 0.329 0.204 3 
0.5 0.323 0.204 3 
0.501 0.312 0.203 3 
0.508 -0.106 0.203 3 
0.505 -0.007 0.201 3 
0.506 -0.017 0.202 3 
0.506 -0.026 0.202 3 
0.506 -0.035 0.202 3 
0.507 -0.047 0.202 3 
0.496 0.263 0.183 3 
0.508 -0.057 0.203 3 
0.509 -0.066 0.203 3 
0.509 -0.075 0.203 3 
0.509 -0.085 0.203 3 
0.508 -0.097 0.203 3 
0.498 0.302 0.192 3 
0.511 -0.117 0.204 3 
0.511 -0.12 0.205 3 
0.512 -0.127 0.205 3 
0.511 -0.136 0.205 3 
0.494 0.222 0.163 3 
0.509 -0.144 0.204 3 
0.51 -0.148 0.205 3 
0.51 -0.158 0.205 3 
0.511 -0.168 0.206 3 
0.511 -0.177 0.206 3 
0.513 -0.185 0.207 3 
0.498 -0.007 0.174 3 
0.497 0.093 0.174 3 
0.497 0.084 0.174 3 
0.494 0.322 0.169 3 
0.497 0.072 0.174 3 
0.497 0.063 0.174 3 
0.497 0.054 0.174 3 
0.497 0.042 0.174 3 
0.492 0.142 0.072 3 
0.497 0.033 0.174 3 
0.498 0.022 0.174 3 
0.498 0.013 0.174 3 
0.498 0.004 0.174 3 
0.497 0.102 0.174 3 
0.499 -0.034 0.174 3 
0.5 -0.037 0.174 3 
0.504 -0.148 0.177 3 
0.504 -0.158 0.177 3 
0.504 -0.186 0.178 3 
0.509 -0.258 0.181 3 
0.51 -0.265 0.182 3 
0.51 -0.276 0.182 3 
0.511 -0.287 0.183 3 
0.512 -0.295 0.184 3 
0.512 -0.309 0.184 3 
0.494 0.274 0.177 3 
0.504 -0.133 0.18 3 
0.505 -0.187 0.182 3 
0.506 -0.197 0.182 3 
0.508 -0.208 0.183 3 
0.509 -0.215 0.184 3 
0.507 -0.227 0.183 3 
0.497 -0.105 0.022 3 
0.506 -0.236 0.183 3 
0.509 -0.248 0.184 3 
0.495 0.302 0.162 3 
0.494 0.044 0.063 3 
0.494 0.288 0.174 3 
0.493 0.263 0.176 3 
0.494 0.254 0.176 3 
0.494 0.181 0.174 3 
0.494 0.172 0.174 3 
0.495 0.163 0.174 3 
0.496 0.154 0.174 3 
0.495 0.144 0.174 3 
0.496 0.132 0.174 3 
0.496 0.123 0.174 3 
0.494 0.134 0.143 3 
0.496 0.114 0.174 3 
0.503 -0.126 0.173 3 
0.494 0.162 0.171 3 
0.498 -0.016 0.171 3 
0.5 -0.046 0.172 3 
0.493 0.112 0.034 3 
0.501 -0.055 0.172 3 
0.502 -0.065 0.172 3 
0.502 -0.077 0.172 3 
0.503 -0.086 0.173 3 
0.503 -0.095 0.173 3 
0.504 -0.105 0.173 3 
0.503 -0.117 0.173 3 
0.501 -0.165 0.143 3 
0.495 0.194 0.172 3 
0.504 -0.136 0.174 3 
0.495 0.135 0.162 3 
0.492 0.163 0.072 3 
0.505 -0.142 0.174 3 
0.492 0.234 0.063 3 
0.504 -0.145 0.174 3 
0.507 -0.286 0.134 3 
0.504 -0.158 0.174 3 
0.49 0.253 0.093 3 
0.494 0.333 0.173 3 
0.495 0.33 0.173 3 
0.507 -0.319 0.052 3 
0.494 0.284 0.174 3 
0.495 0.077 0.066 3 
0.495 0.282 0.174 3 
0.503 -0.188 0.144 3 
0.494 0.274 0.174 3 
0.495 0.272 0.174 3 
0.494 0.053 0.034 3 
0.494 0.264 0.173 3 
0.493 0.074 0.113 3 
0.494 0.254 0.173 3 
0.495 0.252 0.173 3 
0.504 -0.12 0.18 3 
0.495 0.242 0.173 3 
0.492 0.124 0.054 3 
0.491 0.193 0.022 3 
0.495 0.232 0.173 3 
0.495 0.223 0.173 3 
0.494 0.216 0.172 3 
0.494 0.209 0.172 3 
0.505 -0.234 0.142 3 
0.504 -0.256 0.092 3 
0.494 0.203 0.172 3 
0.494 0.29 0.162 3 
0.499 0.082 0.184 3 
0.495 0.176 0.184 3 
0.496 0.173 0.184 3 
0.496 0.164 0.184 3 
0.496 0.154 0.184 3 
0.498 0.143 0.184 3 
0.498 0.133 0.184 3 
0.499 -0.106 0.094 3 
0.494 0.038 0.049 3 
0.498 0.124 0.184 3 
0.498 0.112 0.184 3 
0.498 0.103 0.183 3 
0.499 0.094 0.184 3 
0.499 -0.136 0.082 3 
0.498 0.073 0.183 3 
0.498 0.064 0.183 3 
0.499 0.052 0.183 3 
0.492 0.172 0.102 3 
0.499 -0.136 0.043 3 
0.498 0.043 0.183 3 
0.499 0.034 0.183 3 
0.492 0.044 0.104 3 
0.5 0.022 0.184 3 
0.5 0.004 0.184 3 
0.501 -0.025 0.184 3 
0.509 -0.245 0.194 3 
0.494 0.226 0.188 3 
0.494 0.222 0.188 3 
0.494 0.194 0.187 3 
0.504 -0.056 0.188 3 
0.504 -0.086 0.189 3 
0.508 -0.189 0.192 3 
0.508 -0.195 0.192 3 
0.508 -0.205 0.193 3 
0.508 -0.215 0.193 3 
0.509 -0.225 0.194 3 
0.51 -0.236 0.194 3 
0.501 -0.037 0.184 3 
0.494 0.054 0.161 3 
0.515 -0.301 0.198 3 
0.493 0.287 0.186 3 
0.494 0.278 0.186 3 
0.494 0.216 0.184 3 
0.494 0.213 0.184 3 
0.495 0.204 0.184 3 
0.494 0.197 0.184 3 
0.494 0.194 0.184 3 
0.505 -0.247 0.133 3 
0.494 0.184 0.184 3 
0.505 -0.177 0.184 3 
0.503 -0.077 0.182 3 
0.504 -0.086 0.183 3 
0.505 -0.09 0.183 3 
0.505 -0.096 0.183 3 
0.505 -0.105 0.183 3 
0.49 0.282 0.063 3 
0.505 -0.118 0.183 3 
0.505 -0.127 0.183 3 
0.506 -0.137 0.184 3 
0.506 -0.146 0.184 3 
0.506 -0.155 0.184 3 
0.505 -0.168 0.184 3 
0.503 -0.065 0.182 3 
0.515 -0.305 0.192 3 
0.514 -0.307 0.192 3 
0.496 0.335 0.183 3 
0.496 0.332 0.183 3 
0.496 0.324 0.182 3 
0.498 0.312 0.183 3 
0.498 0.302 0.182 3 
0.493 0.287 0.18 3 
0.494 0.278 0.18 3 
0.504 -0.096 0.18 3 
0.504 -0.105 0.18 3 
0.496 0.283 0.184 3 
0.502 -0.046 0.184 3 
0.511 -0.256 0.192 3 
0.512 -0.267 0.193 3 
0.512 -0.277 0.193 3 
0.492 0.124 0.072 3 
0.512 -0.288 0.193 3 
0.514 -0.297 0.194 3 
0.496 0.335 0.186 3 
0.495 0.289 0.184 3 
0.509 -0.316 0.158 3 
0.499 -0.115 0.103 3 
0.495 0.323 0.173 3 
0.496 0.273 0.184 3 
0.495 0.252 0.183 3 
0.496 0.243 0.183 3 
0.505 -0.227 0.129 3 
0.496 0.233 0.182 3 
0.495 0.223 0.182 3 
0.495 0.213 0.182 3 
0.498 -0.067 0.093 3 
0.495 0.194 0.181 3 
0.5 -0.016 0.181 3 
0.503 -0.056 0.182 3 
0.495 0.062 0.046 3 
0.502 -0.225 0.052 3 
0.503 -0.245 0.052 3 
0.504 -0.266 0.052 3 
0.504 -0.276 0.052 3 
0.504 -0.286 0.052 3 
0.505 -0.296 0.052 3 
0.506 -0.307 0.052 3 
0.494 0.03 0.049 3 
0.494 0.009 0.049 3 
0.489 0.346 0.044 3 
0.489 0.342 0.044 3 
0.489 0.332 0.044 3 
0.502 -0.218 0.052 3 
0.49 0.322 0.041 3 
0.49 0.304 0.033 3 
0.49 0.312 0.042 3 
0.489 0.304 0.042 3 
0.489 0.293 0.042 3 
0.489 0.283 0.042 3 
0.49 0.274 0.042 3 
0.5 -0.155 0.043 3 
0.49 0.261 0.042 3 
0.489 0.254 0.042 3 
0.49 0.242 0.042 3 
0.498 -0.087 0.052 3 
0.495 0.044 0.052 3 
0.495 0.024 0.052 3 
0.494 0.018 0.052 3 
0.495 0.012 0.052 3 
0.495 0.003 0.052 3 
0.495 -0.007 0.052 3 
0.495 -0.016 0.052 3 
0.496 -0.025 0.052 3 
0.497 -0.046 0.052 3 
0.493 0.044 0.034 3 
0.506 -0.319 0.004 3 
0.497 -0.055 0.052 3 
0.491 0.233 0.042 3 
0.499 -0.115 0.052 3 
0.498 -0.126 0.052 3 
0.496 -0.075 0.023 3 
0.499 -0.136 0.052 3 
0.501 -0.158 0.052 3 
0.499 -0.207 0.022 3 
0.501 -0.167 0.052 3 
0.5 -0.185 0.052 3 
0.504 -0.265 0.012 3 
0.5 -0.195 0.052 3 
0.501 -0.208 0.052 3 
0.5 -0.167 0.043 3 
0.496 -0.025 0.043 3 
0.497 -0.037 0.043 3 
0.497 -0.046 0.043 3 
0.497 -0.055 0.043 3 
0.498 -0.067 0.043 3 
0.498 -0.076 0.043 3 
0.497 -0.087 0.043 3 
0.498 -0.096 0.043 3 
0.499 -0.106 0.043 3 
0.499 -0.115 0.043 3 
0.499 -0.127 0.043 3 
0.5 -0.145 0.043 3 
0.495 -0.016 0.043 3 
0.499 -0.176 0.043 3 
0.499 -0.185 0.043 3 
0.5 -0.195 0.043 3 
0.501 -0.205 0.043 3 
0.503 -0.225 0.043 3 
0.503 -0.235 0.043 3 
0.503 -0.245 0.043 3 
0.504 -0.266 0.043 3 
0.504 -0.276 0.043 3 
0.505 -0.286 0.042 3 
0.506 -0.307 0.042 3 
0.493 0.094 0.043 3 
0.491 0.224 0.042 3 
0.491 0.214 0.042 3 
0.49 0.201 0.042 3 
0.49 0.183 0.043 3 
0.491 0.174 0.043 3 
0.491 0.162 0.043 3 
0.491 0.153 0.043 3 
0.492 0.142 0.043 3 
0.492 0.133 0.043 3 
0.491 0.114 0.043 3 
0.493 0.103 0.043 3 
0.494 0.053 0.052 3 
0.494 0.083 0.043 3 
0.495 0.077 0.043 3 
0.494 0.074 0.043 3 
0.494 0.062 0.043 3 
0.495 0.059 0.043 3 
0.494 0.053 0.043 3 
0.494 0.044 0.043 3 
0.494 0.033 0.043 3 
0.494 0.024 0.043 3 
0.495 0.003 0.043 3 
0.495 -0.007 0.043 3 
0.496 -0.025 0.064 3 
0.493 0.094 0.063 3 
0.494 0.083 0.063 3 
0.495 0.08 0.063 3 
0.495 0.074 0.063 3 
0.494 0.071 0.063 3 
0.495 0.042 0.063 3 
0.505 -0.26 0.064 3 
0.495 0.024 0.063 3 
0.495 0.012 0.064 3 
0.495 0.003 0.064 3 
0.495 -0.007 0.064 3 
0.495 -0.016 0.064 3 
0.493 0.103 0.063 3 
0.501 -0.158 0.064 3 
0.497 -0.037 0.064 3 
0.497 -0.046 0.064 3 
0.497 -0.055 0.064 3 
0.498 -0.067 0.064 3 
0.498 -0.076 0.064 3 
0.497 -0.087 0.064 3 
0.498 -0.096 0.064 3 
0.5 -0.118 0.064 3 
0.499 -0.127 0.064 3 
0.499 -0.136 0.064 3 
0.492 0.221 0.063 3 
0.489 0.346 0.066 3 
0.494 0.044 0.066 3 
0.49 0.333 0.063 3 
0.49 0.322 0.063 3 
0.491 0.313 0.063 3 
0.491 0.174 0.034 3 
0.49 0.292 0.063 3 
0.491 0.272 0.063 3 
0.491 0.262 0.063 3 
0.492 0.253 0.063 3 
0.492 0.244 0.063 3 
0.502 -0.168 0.064 3 
0.492 0.212 0.063 3 
0.491 0.202 0.063 3 
0.492 0.124 0.063 3 
0.491 0.193 0.063 3 
0.491 0.174 0.063 3 
0.491 0.162 0.063 3 
0.492 0.154 0.063 3 
0.492 0.142 0.063 3 
0.492 0.133 0.063 3 
0.493 0.112 0.063 3 
0.495 0.033 0.063 3 
0.492 0.154 0.054 3 
0.489 0.294 0.054 3 
0.489 0.283 0.054 3 
0.49 0.274 0.054 3 
0.491 0.252 0.054 3 
0.491 0.243 0.054 3 
0.491 0.233 0.054 3 
0.492 0.221 0.054 3 
0.492 0.212 0.054 3 
0.491 0.202 0.054 3 
0.491 0.193 0.054 3 
0.491 0.174 0.054 3 
0.491 0.162 0.054 3 
0.49 0.302 0.054 3 
0.493 0.142 0.054 3 
0.493 0.133 0.054 3 
0.491 0.114 0.052 3 
0.499 -0.115 0.034 3 
0.492 0.103 0.052 3 
0.494 0.094 0.052 3 
0.495 0.092 0.052 3 
0.494 0.083 0.052 3 
0.495 0.08 0.052 3 
0.495 0.074 0.052 3 
0.494 0.065 0.052 3 
0.504 -0.286 0.064 3 
0.501 -0.177 0.064 3 
0.501 -0.186 0.064 3 
0.505 -0.266 0.064 3 
0.501 -0.195 0.064 3 
0.505 -0.293 0.049 3 
0.502 -0.206 0.064 3 
0.502 -0.225 0.064 3 
0.503 -0.245 0.064 3 
0.504 -0.256 0.064 3 
0.505 -0.276 0.064 3 
0.504 -0.279 0.064 3 
0.507 -0.315 0.042 3 
0.504 -0.296 0.064 3 
0.505 -0.3 0.064 3 
0.495 0.053 0.061 3 
0.494 0.009 0.061 3 
0.504 -0.272 0.061 3 
0.495 0.086 0.057 3 
0.488 0.345 0.054 3 
0.488 0.341 0.054 3 
0.489 0.332 0.054 3 
0.49 0.322 0.054 3 
0.49 0.312 0.054 3 
0.488 0.222 0.013 3 
0.494 -0.045 0.017 3 
0.494 -0.057 0.017 3 
0.505 -0.273 0.014 3 
0.505 -0.276 0.014 3 
0.504 -0.285 0.014 3 
0.504 -0.306 0.014 3 
0.505 -0.317 0.014 3 
0.489 0.284 0.012 3 
0.488 0.273 0.012 3 
0.488 0.263 0.012 3 
0.489 0.254 0.012 3 
0.489 0.232 0.013 3 
0.494 -0.025 0.017 3 
0.489 0.213 0.013 3 
0.489 0.204 0.013 3 
0.491 0.184 0.013 3 
0.49 0.174 0.013 3 
0.488 0.164 0.013 3 
0.488 0.152 0.014 3 
0.488 0.143 0.014 3 
0.489 0.134 0.014 3 
0.489 0.122 0.014 3 
0.49 0.114 0.014 3 
0.49 0.102 0.014 3 
0.5 -0.176 0.022 3 
0.495 -0.025 0.023 3 
0.495 -0.037 0.023 3 
0.495 -0.045 0.023 3 
0.495 -0.057 0.023 3 
0.496 -0.066 0.022 3 
0.497 -0.087 0.022 3 
0.497 -0.096 0.022 3 
0.498 -0.117 0.022 3 
0.498 -0.126 0.022 3 
0.498 -0.135 0.022 3 
0.498 -0.145 0.022 3 
0.499 -0.157 0.022 3 
0.49 0.093 0.014 3 
0.5 -0.195 0.022 3 
0.504 -0.265 0.021 3 
0.488 0.345 0.017 3 
0.493 -0.016 0.02 3 
0.488 0.345 0.014 3 
0.488 0.342 0.014 3 
0.487 0.33 0.014 3 
0.488 0.323 0.014 3 
0.489 0.314 0.014 3 
0.489 0.304 0.014 3 
0.49 0.294 0.014 3 
0.505 -0.307 0.008 3 
0.499 -0.167 0.013 3 
0.499 -0.176 0.013 3 
0.499 -0.185 0.013 3 
0.499 -0.195 0.013 3 
0.499 -0.217 0.013 3 
0.501 -0.228 0.012 3 
0.502 -0.235 0.012 3 
0.501 -0.247 0.012 3 
0.504 -0.259 0.012 3 
0.505 -0.263 0.011 3 
0.504 -0.275 0.011 3 
0.505 -0.286 0.008 3 
0.498 -0.157 0.013 3 
0.496 -0.054 0.008 3 
0.505 -0.314 0.004 3 
0.498 -0.099 0.004 3 
0.498 -0.105 0.004 3 
0.499 -0.115 0.004 3 
0.499 -0.127 0.004 3 
0.498 -0.136 0.004 3 
0.499 -0.145 0.004 3 
0.5 -0.158 0.004 3 
0.496 0.042 0.002 3 
0.496 0.033 0.002 3 
0.493 -0.045 0.014 3 
0.49 0.084 0.014 3 
0.489 0.073 0.014 3 
0.49 0.064 0.014 3 
0.491 0.044 0.014 3 
0.491 0.032 0.014 3 
0.491 0.024 0.014 3 
0.492 0.012 0.014 3 
0.492 0.003 0.014 3 
0.492 -0.007 0.014 3 
0.493 -0.016 0.014 3 
0.493 -0.025 0.014 3 
0.495 -0.016 0.023 3 
0.493 -0.057 0.014 3 
0.495 -0.066 0.014 3 
0.494 -0.072 0.014 3 
0.495 -0.075 0.014 3 
0.494 -0.08 0.014 3 
0.494 -0.095 0.014 3 
0.495 -0.098 0.014 3 
0.496 -0.117 0.014 3 
0.496 -0.126 0.014 3 
0.497 -0.135 0.013 3 
0.497 -0.147 0.013 3 
0.497 -0.075 0.034 3 
0.491 0.123 0.034 3 
0.493 0.103 0.034 3 
0.492 0.094 0.034 3 
0.494 0.083 0.034 3 
0.494 0.062 0.034 3 
0.493 0.033 0.034 3 
0.493 0.024 0.034 3 
0.494 0.012 0.034 3 
0.494 0.003 0.034 3 
0.496 -0.025 0.034 3 
0.497 -0.046 0.034 3 
0.497 -0.066 0.034 3 
0.491 0.132 0.034 3 
0.498 -0.087 0.034 3 
0.497 -0.096 0.034 3 
0.498 -0.105 0.034 3 
0.499 -0.127 0.034 3 
0.499 -0.136 0.034 3 
0.499 -0.145 0.034 3 
0.5 -0.158 0.034 3 
0.5 -0.167 0.034 3 
0.5 -0.176 0.034 3 
0.5 -0.186 0.034 3 
0.5 -0.195 0.034 3 
0.49 0.274 0.033 3 
0.495 0.068 0.04 3 
0.494 0.003 0.04 3 
0.489 0.343 0.032 3 
0.493 0.012 0.023 3 
0.504 -0.285 0.039 3 
0.504 -0.295 0.039 3 
0.505 -0.279 0.036 3 
0.49 0.333 0.032 3 
0.489 0.321 0.032 3 
0.49 0.312 0.032 3 
0.49 0.294 0.033 3 
0.501 -0.218 0.034 3 
0.489 0.264 0.033 3 
0.489 0.254 0.033 3 
0.49 0.242 0.033 3 
0.49 0.233 0.033 3 
0.491 0.224 0.033 3 
0.49 0.214 0.033 3 
0.491 0.202 0.033 3 
0.492 0.184 0.034 3 
0.491 0.162 0.034 3 
0.492 0.154 0.034 3 
0.492 0.142 0.034 3 
0.49 0.153 0.022 3 
0.502 -0.248 0.024 3 
0.503 -0.255 0.024 3 
0.505 -0.266 0.024 3 
0.506 -0.277 0.024 3 
0.505 -0.296 0.024 3 
0.505 -0.307 0.024 3 
0.506 -0.315 0.023 3 
0.489 0.204 0.022 3 
0.491 0.123 0.022 3 
0.491 0.184 0.022 3 
0.49 0.174 0.022 3 
0.489 0.164 0.022 3 
0.501 -0.237 0.024 3 
0.49 0.144 0.022 3 
0.489 0.132 0.022 3 
0.492 0.114 0.022 3 
0.492 0.103 0.022 3 
0.491 0.094 0.023 3 
0.492 0.082 0.023 3 
0.492 0.064 0.023 3 
0.492 0.053 0.023 3 
0.493 0.044 0.023 3 
0.493 0.003 0.023 3 
0.494 -0.007 0.023 3 
0.488 0.324 0.023 3 
0.501 -0.227 0.034 3 
0.502 -0.235 0.034 3 
0.503 -0.255 0.033 3 
0.504 -0.266 0.033 3 
0.505 -0.276 0.033 3 
0.505 -0.286 0.033 3 
0.505 -0.307 0.033 3 
0.505 -0.272 0.03 3 
0.494 -0.007 0.028 3 
0.489 0.343 0.023 3 
0.499 -0.207 0.013 3 
0.504 -0.296 0.071 3 
0.49 0.311 0.023 3 
0.491 0.302 0.023 3 
0.49 0.294 0.024 3 
0.49 0.284 0.024 3 
0.49 0.274 0.024 3 
0.489 0.264 0.024 3 
0.489 0.254 0.024 3 
0.49 0.242 0.024 3 
0.49 0.233 0.024 3 
0.491 0.224 0.024 3 
0.501 -0.234 0.024 3 
0.505 -0.257 0.114 3 
0.5 -0.155 0.112 3 
0.501 -0.167 0.112 3 
0.502 -0.177 0.113 3 
0.502 -0.187 0.113 3 
0.491 0.193 0.034 3 
0.502 -0.206 0.113 3 
0.503 -0.216 0.113 3 
0.504 -0.226 0.113 3 
0.504 -0.236 0.114 3 
0.504 -0.246 0.114 3 
0.489 0.213 0.022 3 
0.505 -0.25 0.114 3 
0.489 0.342 0.063 3 
0.505 -0.277 0.114 3 
0.504 -0.279 0.111 3 
0.505 -0.287 0.111 3 
0.506 -0.295 0.112 3 
0.506 -0.305 0.112 3 
0.493 0.115 0.104 3 
0.492 0.112 0.104 3 
0.501 -0.186 0.103 3 
0.493 0.103 0.104 3 
0.493 0.086 0.104 3 
0.493 0.08 0.104 3 
0.492 0.339 0.113 3 
0.495 0.004 0.113 3 
0.495 0.033 0.052 3 
0.495 -0.01 0.113 3 
0.495 -0.016 0.113 3 
0.496 -0.025 0.114 3 
0.496 -0.045 0.114 3 
0.497 -0.057 0.114 3 
0.498 -0.067 0.114 3 
0.498 -0.076 0.114 3 
0.498 -0.087 0.114 3 
0.498 -0.096 0.114 3 
0.498 -0.106 0.114 3 
0.493 0.074 0.104 3 
0.499 -0.136 0.073 3 
0.492 0.332 0.113 3 
0.492 0.321 0.112 3 
0.492 0.311 0.112 3 
0.492 0.304 0.112 3 
0.49 0.292 0.112 3 
0.491 0.283 0.112 3 
0.499 -0.115 0.112 3 
0.5 -0.127 0.112 3 
0.5 -0.137 0.112 3 
0.5 -0.146 0.112 3 
0.501 -0.155 0.103 3 
0.496 -0.037 0.102 3 
0.497 -0.046 0.102 3 
0.497 -0.057 0.102 3 
0.498 -0.067 0.102 3 
0.497 -0.075 0.102 3 
0.497 -0.087 0.102 3 
0.498 -0.096 0.102 3 
0.499 -0.106 0.103 3 
0.501 -0.195 0.073 3 
0.488 0.331 0.023 3 
0.5 -0.127 0.103 3 
0.5 -0.146 0.103 3 
0.494 -0.013 0.102 3 
0.501 -0.167 0.103 3 
0.501 -0.177 0.103 3 
0.501 -0.196 0.103 3 
0.495 -0.007 0.084 3 
0.503 -0.206 0.104 3 
0.503 -0.216 0.104 3 
0.503 -0.235 0.104 3 
0.504 -0.246 0.104 3 
0.504 -0.272 0.105 3 
0.505 -0.25 0.102 3 
0.506 -0.257 0.102 3 
0.49 0.243 0.102 3 
0.493 0.062 0.104 3 
0.493 0.053 0.104 3 
0.494 0.033 0.104 3 
0.493 0.34 0.103 3 
0.492 0.332 0.103 3 
0.491 0.324 0.103 3 
0.491 0.303 0.103 3 
0.49 0.292 0.102 3 
0.491 0.283 0.102 3 
0.491 0.273 0.102 3 
0.491 0.263 0.102 3 
0.493 0.133 0.084 3 
0.492 0.212 0.102 3 
0.492 0.203 0.102 3 
0.492 0.073 0.023 3 
0.493 0.164 0.102 3 
0.493 0.154 0.102 3 
0.493 0.142 0.102 3 
0.493 0.133 0.102 3 
0.495 0.033 0.102 3 
0.495 0.024 0.102 3 
0.495 0.012 0.102 3 
0.495 0.004 0.102 3 
0.493 0.323 0.122 3 
0.499 -0.136 0.094 3 
0.499 -0.145 0.064 3 
0.498 -0.106 0.123 3 
0.499 -0.115 0.124 3 
0.5 -0.127 0.124 3 
0.5 -0.137 0.124 3 
0.5 -0.146 0.124 3 
0.494 -0.037 0.02 3 
0.5 -0.155 0.124 3 
0.504 -0.207 0.126 3 
0.493 0.34 0.122 3 
0.493 0.333 0.122 3 
0.498 -0.097 0.123 3 
0.501 -0.165 0.122 3 
0.502 -0.177 0.122 3 
0.502 -0.187 0.122 3 
0.503 -0.197 0.122 3 
0.492 0.294 0.072 3 
0.504 -0.207 0.122 3 
0.505 -0.214 0.123 3 
0.494 -0.007 0.113 3 
0.505 -0.217 0.123 3 
0.504 -0.226 0.123 3 
0.495 0.065 0.078 3 
0.495 0.012 0.122 3 
0.494 0.092 0.122 3 
0.494 0.083 0.122 3 
0.494 0.074 0.122 3 
0.493 0.062 0.122 3 
0.492 0.053 0.122 3 
0.492 0.044 0.122 3 
0.493 0.033 0.122 3 
0.493 0.024 0.122 3 
0.506 -0.295 0.102 3 
0.495 -0.087 0.008 3 
0.495 0.015 0.122 3 
0.504 -0.246 0.123 3 
0.496 0.004 0.122 3 
0.496 -0.007 0.122 3 
0.496 -0.016 0.122 3 
0.504 -0.286 0.074 3 
0.496 -0.025 0.122 3 
0.496 -0.037 0.123 3 
0.498 -0.085 0.123 3 
0.507 -0.317 0.119 3 
0.497 -0.046 0.123 3 
0.498 -0.067 0.123 3 
0.498 -0.076 0.123 3 
0.504 -0.286 0.083 3 
0.493 0.151 0.114 3 
0.492 0.234 0.102 3 
0.493 0.142 0.113 3 
0.499 -0.115 0.094 3 
0.493 0.133 0.113 3 
0.493 0.124 0.113 3 
0.497 -0.075 0.073 3 
0.492 0.112 0.113 3 
0.494 0.104 0.113 3 
0.495 0.095 0.114 3 
0.505 -0.296 0.033 3 
0.495 0.092 0.114 3 
0.495 -0.025 0.102 3 
0.494 0.086 0.113 3 
0.494 0.083 0.113 3 
0.493 0.062 0.113 3 
0.492 0.053 0.113 3 
0.492 0.044 0.113 3 
0.5 -0.176 0.052 3 
0.496 -0.105 0.014 3 
0.493 0.033 0.113 3 
0.495 0.027 0.113 3 
0.495 0.024 0.113 3 
0.495 0.012 0.113 3 
0.506 -0.305 0.121 3 
0.505 -0.25 0.123 3 
0.506 -0.257 0.124 3 
0.506 -0.268 0.124 3 
0.495 0.05 0.081 3 
0.506 -0.278 0.124 3 
0.506 -0.285 0.124 3 
0.507 -0.317 0.125 3 
0.495 0.095 0.117 3 
0.495 0.092 0.117 3 
0.504 -0.217 0.12 3 
0.506 -0.295 0.121 3 
0.505 -0.266 0.102 3 
0.491 0.27 0.114 3 
0.491 0.263 0.114 3 
0.491 0.254 0.114 3 
0.491 0.244 0.114 3 
0.493 0.233 0.114 3 
0.492 0.223 0.114 3 
0.493 0.213 0.114 3 
0.493 0.204 0.114 3 
0.492 0.181 0.114 3 
0.493 0.173 0.114 3 
0.493 0.164 0.114 3 
0.49 0.344 0.072 3 
0.502 -0.225 0.082 3 
0.493 0.033 0.023 3 
0.504 -0.246 0.083 3 
0.503 -0.265 0.083 3 
0.504 -0.276 0.083 3 
0.505 -0.297 0.083 3 
0.498 -0.037 0.034 3 
0.506 -0.305 0.083 3 
0.506 -0.315 0.083 3 
0.489 0.346 0.078 3 
0.499 -0.145 0.052 3 
0.504 -0.296 0.077 3 
0.502 -0.215 0.082 3 
0.49 0.333 0.072 3 
0.491 0.323 0.072 3 
0.492 0.304 0.072 3 
0.49 0.282 0.072 3 
0.49 0.272 0.072 3 
0.491 0.262 0.072 3 
0.492 0.244 0.072 3 
0.493 0.222 0.072 3 
0.492 0.212 0.072 3 
0.492 0.203 0.072 3 
0.491 0.193 0.072 3 
0.498 -0.087 0.082 3 
0.495 0.033 0.084 3 
0.495 0.024 0.084 3 
0.496 0.012 0.084 3 
0.495 0.004 0.084 3 
0.495 -0.016 0.084 3 
0.496 -0.037 0.084 3 
0.497 -0.055 0.034 3 
0.496 -0.045 0.084 3 
0.496 -0.057 0.084 3 
0.498 -0.067 0.084 3 
0.497 -0.075 0.084 3 
0.495 0.062 0.081 3 
0.492 0.172 0.072 3 
0.498 -0.096 0.082 3 
0.498 -0.105 0.082 3 
0.499 -0.115 0.082 3 
0.498 -0.127 0.082 3 
0.501 -0.158 0.082 3 
0.502 -0.165 0.082 3 
0.501 -0.177 0.082 3 
0.503 -0.295 0.014 3 
0.5 -0.185 0.082 3 
0.5 -0.195 0.082 3 
0.501 -0.205 0.082 3 
0.504 -0.246 0.074 3 
0.498 -0.096 0.073 3 
0.498 -0.105 0.073 3 
0.499 -0.127 0.073 3 
0.5 -0.145 0.073 3 
0.5 -0.158 0.073 3 
0.501 -0.167 0.073 3 
0.501 -0.177 0.073 3 
0.501 -0.186 0.073 3 
0.502 -0.206 0.073 3 
0.503 -0.216 0.073 3 
0.503 -0.225 0.073 3 
0.503 -0.235 0.073 3 
0.497 -0.087 0.073 3 
0.494 -0.004 0.064 3 
0.504 -0.256 0.074 3 
0.504 -0.266 0.074 3 
0.504 -0.276 0.074 3 
0.506 -0.308 0.074 3 
0.506 -0.315 0.074 3 
0.495 0.074 0.069 3 
0.494 0.056 0.069 3 
0.505 -0.26 0.071 3 
0.505 -0.266 0.071 3 
0.505 -0.276 0.071 3 
0.495 0.024 0.072 3 
0.492 0.154 0.072 3 
0.492 0.133 0.072 3 
0.492 0.112 0.072 3 
0.492 0.103 0.072 3 
0.492 0.094 0.072 3 
0.493 0.083 0.072 3 
0.495 0.062 0.072 3 
0.494 0.053 0.072 3 
0.495 0.047 0.072 3 
0.495 0.042 0.072 3 
0.495 0.033 0.072 3 
0.494 0.044 0.084 3 
0.495 0.012 0.072 3 
0.496 0.003 0.072 3 
0.495 0.047 0.052 3 
0.496 -0.016 0.034 3 
0.495 -0.007 0.072 3 
0.495 -0.016 0.072 3 
0.496 -0.025 0.072 3 
0.497 -0.037 0.072 3 
0.497 -0.046 0.073 3 
0.497 -0.055 0.073 3 
0.498 -0.067 0.073 3 
0.495 0.033 0.093 3 
0.492 0.154 0.093 3 
0.492 0.142 0.093 3 
0.493 0.133 0.093 3 
0.493 0.124 0.093 3 
0.494 0.113 0.093 3 
0.493 0.094 0.093 3 
0.493 0.083 0.093 3 
0.493 0.074 0.093 3 
0.493 0.062 0.093 3 
0.494 0.053 0.093 3 
0.494 0.044 0.093 3 
0.495 0.036 0.093 3 
0.492 0.163 0.093 3 
0.495 0.024 0.093 3 
0.496 0.012 0.093 3 
0.495 0.004 0.093 3 
0.495 -0.016 0.093 3 
0.495 -0.025 0.093 3 
0.496 -0.037 0.093 3 
0.496 -0.045 0.093 3 
0.497 -0.057 0.093 3 
0.498 -0.075 0.093 3 
0.497 -0.087 0.093 3 
0.498 -0.096 0.094 3 
0.49 0.302 0.093 3 
0.504 -0.272 0.102 3 
0.504 -0.276 0.102 3 
0.505 -0.287 0.102 3 
0.506 -0.305 0.102 3 
0.508 -0.317 0.103 3 
0.495 0.048 0.096 3 
0.504 -0.286 0.099 3 
0.491 0.338 0.094 3 
0.491 0.334 0.094 3 
0.491 0.324 0.094 3 
0.491 0.313 0.094 3 
0.499 -0.127 0.094 3 
0.49 0.292 0.093 3 
0.49 0.282 0.093 3 
0.491 0.263 0.093 3 
0.492 0.244 0.093 3 
0.493 0.232 0.093 3 
0.492 0.222 0.093 3 
0.491 0.212 0.093 3 
0.492 0.203 0.093 3 
0.492 0.194 0.093 3 
0.492 0.184 0.093 3 
0.492 0.172 0.093 3 
0.492 0.184 0.084 3 
0.492 0.311 0.084 3 
0.491 0.303 0.084 3 
0.491 0.283 0.084 3 
0.49 0.262 0.084 3 
0.491 0.253 0.084 3 
0.491 0.243 0.084 3 
0.495 -0.007 0.034 3 
0.492 0.234 0.084 3 
0.492 0.222 0.084 3 
0.491 0.211 0.084 3 
0.492 0.203 0.084 3 
0.492 0.193 0.084 3 
0.49 0.323 0.084 3 
0.492 0.172 0.084 3 
0.491 0.162 0.084 3 
0.492 0.154 0.084 3 
0.493 0.142 0.084 3 
0.493 0.112 0.084 3 
0.493 0.103 0.084 3 
0.493 0.094 0.084 3 
0.494 0.083 0.084 3 
0.493 0.062 0.084 3 
0.491 0.184 0.054 3 
0.494 0.053 0.084 3 
0.504 -0.276 0.092 3 
0.493 0.074 0.084 3 
0.501 -0.146 0.094 3 
0.501 -0.155 0.094 3 
0.501 -0.167 0.094 3 
0.501 -0.177 0.094 3 
0.501 -0.186 0.094 3 
0.504 -0.256 0.095 3 
0.502 -0.206 0.092 3 
0.502 -0.215 0.092 3 
0.503 -0.238 0.092 3 
0.503 -0.245 0.092 3 
0.499 -0.167 0.022 3 
0.504 -0.286 0.092 3 
0.494 0.012 0.043 3 
0.505 -0.29 0.093 3 
0.491 0.273 0.084 3 
0.507 -0.299 0.093 3 
0.507 -0.306 0.093 3 
0.506 -0.315 0.093 3 
0.495 0.056 0.087 3 
0.494 -0.01 0.064 3 
0.49 0.337 0.084 3 
0.49 0.333 0.084 3 
