# .PCD v0.7 - Point Cloud Data file
FIELDS x y z intensity
SIZE 4 4 4 4
TYPE F F F F
COUNT 1 1 1 1
WIDTH 2351
HEIGHT 1
VIEWPOINT 0 0 0 1 0 0 0
POINTS 2351
DATA ascii
0.369 -0.235 -0.024 1 
0.373 -0.237 -0.025 1 
0.371 -0.225 -0.024 1 
0.364 -0.167 -0.019 1 
0.364 -0.163 -0.019 1 
0.361 -0.135 -0.017 1 
0.362 -0.127 -0.017 1 
0.361 -0.106 -0.016 1 
0.361 -0.075 -0.015 1 
0.36 -0.06 -0.015 1 
0.359 -0.055 -0.014 1 
0.363 -0.045 -0.016 1 
0.362 -0.027 -0.015 1 
0.359 0.016 -0.014 1 
0.361 0.023 -0.015 1 
0.358 0.055 -0.014 1 
0.356 0.074 -0.014 1 
0.354 0.08 -0.013 1 
0.352 0.114 -0.014 1 
0.351 0.123 -0.013 1 
0.352 0.142 -0.014 1 
0.354 0.149 -0.015 1 
0.351 0.158 -0.015 1 
0.344 0.204 -0.015 1 
0.343 0.205 -0.015 1 
0.376 -0.235 -0.024 1 
0.379 -0.234 -0.025 1 
0.369 -0.135 -0.018 1 
0.368 -0.127 -0.017 1 
0.364 -0.085 -0.015 1 
0.364 0.009 -0.015 1 
0.364 0.034 -0.015 1 
0.364 0.041 -0.015 1 
0.363 0.043 -0.014 1 
0.364 0.064 -0.015 1 
0.36 0.083 -0.014 1 
0.361 0.087 -0.014 1 
0.363 0.093 -0.015 1 
0.361 0.101 -0.015 1 
0.354 0.13 -0.013 1 
0.355 0.159 -0.014 1 
0.352 0.165 -0.014 1 
0.353 0.172 -0.015 1 
0.349 0.211 -0.016 1 
0.384 -0.255 -0.026 1 
0.383 -0.248 -0.025 1 
0.38 -0.225 -0.023 1 
0.374 -0.195 -0.02 1 
0.374 -0.186 -0.019 1 
0.374 -0.178 -0.019 1 
0.373 -0.166 -0.018 1 
0.373 -0.116 -0.017 1 
0.369 -0.095 -0.015 1 
0.372 -0.085 -0.016 1 
0.374 -0.076 -0.016 1 
0.37 -0.061 -0.015 1 
0.373 -0.045 -0.016 1 
0.374 -0.036 -0.016 1 
0.373 0.013 -0.016 1 
0.372 0.024 -0.016 1 
0.365 0.083 -0.014 1 
0.365 0.107 -0.014 1 
0.363 0.114 -0.014 1 
0.364 0.118 -0.014 1 
0.364 0.127 -0.015 1 
0.361 0.133 -0.014 1 
0.362 0.138 -0.014 1 
0.363 0.142 -0.015 1 
0.364 0.149 -0.015 1 
0.358 0.183 -0.015 1 
0.356 0.204 -0.015 1 
0.388 -0.257 -0.025 1 
0.379 -0.125 -0.017 1 
0.38 -0.106 -0.017 1 
0.374 -0.066 -0.014 1 
0.374 -0.061 -0.014 1 
0.381 -0.032 -0.016 1 
0.374 0.051 -0.015 1 
0.373 0.064 -0.015 1 
0.373 0.084 -0.015 1 
0.374 0.104 -0.016 1 
0.373 0.123 -0.016 1 
0.371 0.134 -0.015 1 
0.364 0.188 -0.015 1 
0.394 -0.247 -0.024 1 
0.393 -0.239 -0.023 1 
0.388 -0.226 -0.021 1 
0.384 -0.195 -0.019 1 
0.383 -0.165 -0.017 1 
0.384 -0.162 -0.018 1 
0.384 -0.118 -0.017 1 
0.382 -0.095 -0.015 1 
0.384 -0.085 -0.016 1 
0.382 -0.075 -0.015 1 
0.379 -0.066 -0.014 1 
0.379 -0.064 -0.014 1 
0.384 -0.056 -0.016 1 
0.383 0.014 -0.016 1 
0.381 0.023 -0.015 1 
0.38 0.044 -0.015 1 
0.381 0.054 -0.015 1 
0.38 0.064 -0.015 1 
0.381 0.072 -0.015 1 
0.38 0.083 -0.015 1 
0.381 0.104 -0.016 1 
0.374 0.14 -0.015 1 
0.373 0.143 -0.014 1 
0.372 0.149 -0.014 1 
0.374 0.156 -0.015 1 
0.371 0.184 -0.016 1 
0.368 0.223 -0.017 1 
0.358 0.05 -0.014 1 
0.393 -0.259 -0.022 1 
0.393 -0.216 -0.02 1 
0.39 -0.207 -0.019 1 
0.39 -0.157 -0.017 1 
0.391 -0.115 -0.017 1 
0.391 -0.107 -0.017 1 
0.387 -0.072 -0.015 1 
0.389 -0.033 -0.015 1 
0.297 -0.015 0.014 1 
0.298 -0.005 0.013 1 
0.298 0.002 0.013 1 
0.384 0.006 -0.014 1 
0.384 0.113 -0.015 1 
0.382 0.124 -0.015 1 
0.381 0.134 -0.015 1 
0.38 0.14 -0.015 1 
0.378 0.142 -0.014 1 
0.381 0.163 -0.016 1 
0.372 0.232 -0.016 1 
0.4 -0.267 -0.022 1 
0.401 -0.255 -0.022 1 
0.394 -0.187 -0.017 1 
0.394 -0.127 -0.016 1 
0.394 -0.075 -0.015 1 
0.391 -0.066 -0.014 1 
0.392 -0.064 -0.014 1 
0.394 -0.056 -0.015 1 
0.393 -0.046 -0.015 1 
0.393 -0.042 -0.014 1 
0.362 -0.146 -0.017 1 
0.392 0.026 -0.015 1 
0.391 0.038 -0.014 1 
0.393 0.053 -0.015 1 
0.391 0.063 -0.015 1 
0.392 0.073 -0.015 1 
0.391 0.083 -0.015 1 
0.39 0.093 -0.015 1 
0.389 0.097 -0.014 1 
0.39 0.104 -0.015 1 
0.389 0.114 -0.015 1 
0.386 0.144 -0.015 1 
0.382 0.156 -0.014 1 
0.386 0.163 -0.015 1 
0.373 0.153 -0.015 1 
0.38 0.234 -0.017 1 
0.379 0.242 -0.017 1 
0.412 -0.255 -0.023 1 
0.383 -0.219 -0.021 1 
0.404 -0.227 -0.019 1 
0.402 -0.206 -0.018 1 
0.402 -0.175 -0.017 1 
0.401 -0.165 -0.017 1 
0.399 -0.135 -0.015 1 
0.4 -0.105 -0.015 1 
0.402 -0.095 -0.016 1 
0.4 -0.077 -0.015 1 
0.399 -0.072 -0.015 1 
0.398 -0.066 -0.014 1 
0.4 -0.056 -0.015 1 
0.4 -0.051 -0.015 1 
0.474 -0.04 -0.038 1 
0.363 0.073 -0.015 1 
0.4 0.023 -0.015 1 
0.394 0.123 -0.014 1 
0.394 0.127 -0.015 1 
0.392 0.134 -0.014 1 
0.393 0.137 -0.014 1 
0.395 0.147 -0.015 1 
0.392 0.152 -0.015 1 
0.389 0.154 -0.014 1 
0.389 0.161 -0.014 1 
0.39 0.184 -0.015 1 
0.384 0.25 -0.016 1 
0.414 -0.289 -0.023 1 
0.414 -0.271 -0.022 1 
0.41 -0.235 -0.019 1 
0.403 -0.219 -0.017 1 
0.404 -0.186 -0.016 1 
0.404 -0.162 -0.015 1 
0.404 -0.146 -0.015 1 
0.405 -0.065 -0.014 1 
0.404 -0.046 -0.014 1 
0.404 -0.037 -0.014 1 
0.481 -0.047 -0.037 1 
0.477 -0.04 -0.036 1 
0.403 0.017 -0.014 1 
0.404 0.034 -0.014 1 
0.404 0.054 -0.014 1 
0.402 0.064 -0.014 1 
0.403 0.073 -0.014 1 
0.402 0.114 -0.015 1 
0.402 0.116 -0.015 1 
0.374 -0.105 -0.017 1 
0.401 0.124 -0.014 1 
0.398 0.134 -0.014 1 
0.393 0.194 -0.014 1 
0.393 0.198 -0.014 1 
0.39 0.224 -0.015 1 
0.391 0.243 -0.016 1 
0.42 -0.296 -0.022 1 
0.413 -0.215 -0.017 1 
0.413 -0.205 -0.017 1 
0.412 -0.197 -0.016 1 
0.412 -0.185 -0.016 1 
0.411 -0.165 -0.015 1 
0.409 -0.156 -0.014 1 
0.409 -0.147 -0.014 1 
0.41 -0.145 -0.015 1 
0.41 -0.141 -0.014 1 
0.352 0.193 -0.015 1 
0.411 -0.135 -0.015 1 
0.412 -0.128 -0.015 1 
0.411 -0.125 -0.014 1 
0.413 -0.106 -0.015 1 
0.414 -0.097 -0.015 1 
0.415 -0.093 -0.015 1 
0.414 -0.088 -0.015 1 
0.413 -0.085 -0.014 1 
0.413 -0.079 -0.014 1 
0.414 -0.077 -0.015 1 
0.414 -0.074 -0.015 1 
0.415 -0.066 -0.015 1 
0.411 -0.045 -0.014 1 
0.411 0.024 -0.014 1 
0.411 0.053 -0.014 1 
0.41 0.064 -0.014 1 
0.404 0.144 -0.014 1 
0.403 0.154 -0.014 1 
0.402 0.163 -0.013 1 
0.403 0.183 -0.015 1 
0.402 0.189 -0.015 1 
0.4 0.224 -0.015 1 
0.397 0.234 -0.015 1 
0.393 0.258 -0.015 1 
0.424 -0.288 -0.02 1 
0.424 -0.273 -0.02 1 
0.422 -0.257 -0.018 1 
0.421 -0.245 -0.018 1 
0.423 -0.239 -0.018 1 
0.418 -0.207 -0.016 1 
0.419 -0.125 -0.014 1 
0.384 -0.186 -0.018 1 
0.389 -0.146 -0.017 1 
0.401 0.102 -0.014 1 
0.421 -0.042 -0.014 1 
0.448 -0.044 -0.022 1 
0.364 -0.036 -0.016 1 
0.396 0.006 -0.007 1 
0.371 0.033 -0.015 1 
0.414 0.013 -0.013 1 
0.414 0.074 -0.013 1 
0.414 0.083 -0.013 1 
0.411 0.134 -0.013 1 
0.408 0.144 -0.012 1 
0.411 0.153 -0.014 1 
0.402 0.194 -0.012 1 
0.404 0.213 -0.014 1 
0.404 0.243 -0.015 1 
0.402 0.244 -0.014 1 
0.4 0.247 -0.014 1 
0.402 0.254 -0.015 1 
0.4 0.26 -0.015 1 
0.397 0.262 -0.014 1 
0.398 0.266 -0.014 1 
0.428 -0.289 -0.019 1 
0.424 -0.226 -0.015 1 
0.424 -0.217 -0.015 1 
0.425 -0.215 -0.016 1 
0.425 -0.205 -0.015 1 
0.423 -0.195 -0.015 1 
0.423 -0.188 -0.014 1 
0.423 -0.178 -0.014 1 
0.426 -0.175 -0.015 1 
0.427 -0.171 -0.015 1 
0.422 -0.155 -0.013 1 
0.422 -0.145 -0.013 1 
0.424 -0.137 -0.014 1 
0.423 -0.115 -0.013 1 
0.374 0.213 -0.016 1 
0.421 -0.107 -0.012 1 
0.423 -0.096 -0.013 1 
0.424 -0.087 -0.013 1 
0.424 -0.075 -0.013 1 
0.424 -0.073 -0.013 1 
0.424 -0.057 -0.013 1 
0.423 -0.047 -0.012 1 
0.429 -0.043 -0.014 1 
0.423 0.023 -0.013 1 
0.418 -0.177 -0.015 1 
0.422 0.044 -0.013 1 
0.424 0.053 -0.013 1 
0.42 0.064 -0.012 1 
0.42 0.073 -0.012 1 
0.419 0.094 -0.012 1 
0.417 0.123 -0.012 1 
0.413 0.164 -0.012 1 
0.362 0.163 -0.015 1 
0.413 0.174 -0.013 1 
0.412 0.192 -0.013 1 
0.398 0.059 -0.015 1 
0.414 0.214 -0.014 1 
0.414 0.232 -0.015 1 
0.412 0.243 -0.015 1 
0.41 0.274 -0.015 1 
0.409 0.278 -0.015 1 
0.431 -0.305 -0.018 1 
0.434 -0.275 -0.017 1 
0.432 -0.256 -0.016 1 
0.433 -0.245 -0.016 1 
0.43 -0.229 -0.015 1 
0.429 -0.225 -0.014 1 
0.43 -0.185 -0.014 1 
0.431 -0.176 -0.014 1 
0.431 -0.126 -0.013 1 
0.429 -0.086 -0.012 1 
0.431 -0.075 -0.012 1 
0.431 -0.065 -0.012 1 
0.43 -0.055 -0.012 1 
0.432 -0.046 -0.013 1 
0.479 -0.046 -0.025 1 
0.483 -0.041 -0.026 1 
0.312 -0.015 0.018 1 
0.353 0.144 -0.015 1 
0.43 0.043 -0.012 1 
0.429 0.054 -0.012 1 
0.422 0.154 -0.012 1 
0.419 0.163 -0.012 1 
0.416 0.283 -0.015 1 
0.438 -0.276 -0.015 1 
0.432 -0.255 -0.013 1 
0.434 -0.246 -0.014 1 
0.434 -0.222 -0.013 1 
0.434 -0.206 -0.013 1 
0.381 -0.072 -0.015 1 
0.434 -0.204 -0.013 1 
0.433 -0.157 -0.012 1 
0.433 -0.146 -0.011 1 
0.433 -0.117 -0.011 1 
0.432 -0.106 -0.011 1 
0.434 -0.097 -0.011 1 
0.322 -0.016 0.017 1 
0.324 -0.012 0.016 1 
0.331 -0.004 0.015 1 
0.332 0.001 0.014 1 
0.434 0.031 -0.011 1 
0.434 0.063 -0.011 1 
0.434 0.072 -0.011 1 
0.414 -0.061 -0.015 1 
0.432 0.094 -0.011 1 
0.431 0.123 -0.011 1 
0.423 0.173 -0.01 1 
0.423 0.183 -0.011 1 
0.424 0.194 -0.011 1 
0.422 0.202 -0.011 1 
0.422 0.223 -0.012 1 
0.422 0.231 -0.012 1 
0.423 0.243 -0.012 1 
0.42 0.251 -0.012 1 
0.422 0.272 -0.013 1 
0.44 -0.315 -0.015 1 
0.439 -0.311 -0.014 1 
0.444 -0.297 -0.015 1 
0.443 -0.293 -0.015 1 
0.44 -0.216 -0.012 1 
0.441 -0.195 -0.012 1 
0.441 -0.185 -0.011 1 
0.442 -0.175 -0.012 1 
0.442 -0.167 -0.011 1 
0.442 -0.146 -0.011 1 
0.443 -0.136 -0.011 1 
0.441 -0.115 -0.01 1 
0.439 -0.107 -0.01 1 
0.412 -0.103 -0.014 1 
0.441 -0.095 -0.01 1 
0.418 0.084 -0.012 1 
0.443 -0.086 -0.011 1 
0.444 -0.076 -0.011 1 
0.441 -0.065 -0.01 1 
0.441 -0.055 -0.01 1 
0.484 -0.041 -0.021 1 
0.473 -0.037 -0.018 1 
0.326 -0.015 0.017 1 
0.334 -0.01 0.015 1 
0.342 -0.005 0.013 1 
0.343 -0.004 0.013 1 
0.349 0.003 0.012 1 
0.44 0.032 -0.01 1 
0.441 0.042 -0.01 1 
0.439 0.054 -0.01 1 
0.434 0.141 -0.01 1 
0.434 0.154 -0.01 1 
0.432 0.164 -0.01 1 
0.424 0.283 -0.012 1 
0.423 0.291 -0.012 1 
0.424 0.295 -0.012 1 
0.444 -0.323 -0.013 1 
0.442 -0.286 -0.011 1 
0.442 -0.265 -0.011 1 
0.442 -0.248 -0.01 1 
0.414 0.103 -0.013 1 
0.443 -0.237 -0.01 1 
0.444 -0.23 -0.01 1 
0.466 -0.036 -0.013 1 
0.335 -0.016 0.017 1 
0.364 0.007 -0.014 1 
0.401 -0.236 -0.021 1 
0.408 0.224 -0.015 1 
0.361 -0.006 0.01 1 
0.403 -0.276 -0.024 1 
0.36 0.002 0.011 1 
0.443 0.062 -0.009 1 
0.443 0.072 -0.009 1 
0.444 0.08 -0.009 1 
0.444 0.093 -0.009 1 
0.441 0.122 -0.009 1 
0.44 0.134 -0.009 1 
0.433 0.182 -0.008 1 
0.431 0.194 -0.008 1 
0.429 0.21 -0.008 1 
0.433 0.224 -0.009 1 
0.434 0.233 -0.01 1 
0.434 0.242 -0.01 1 
0.433 0.252 -0.01 1 
0.43 0.263 -0.01 1 
0.431 0.273 -0.01 1 
0.432 0.283 -0.011 1 
0.429 0.292 -0.011 1 
0.454 -0.317 -0.012 1 
0.452 -0.278 -0.011 1 
0.45 -0.255 -0.01 1 
0.45 -0.235 -0.009 1 
0.452 -0.217 -0.009 1 
0.452 -0.206 -0.009 1 
0.452 -0.198 -0.009 1 
0.452 -0.187 -0.009 1 
0.452 -0.157 -0.008 1 
0.453 -0.147 -0.009 1 
0.454 -0.136 -0.009 1 
0.452 -0.117 -0.008 1 
0.452 -0.107 -0.008 1 
0.454 -0.097 -0.008 1 
0.44 -0.205 -0.012 1 
0.454 -0.086 -0.008 1 
0.454 -0.066 -0.008 1 
0.454 -0.055 -0.008 1 
0.451 -0.027 -0.008 1 
0.446 -0.006 -0.006 1 
0.448 0.003 -0.007 1 
0.451 0.033 -0.008 1 
0.439 0.144 -0.009 1 
0.451 0.044 -0.008 1 
0.442 0.164 -0.007 1 
0.442 0.172 -0.008 1 
0.44 0.203 -0.008 1 
0.441 0.214 -0.008 1 
0.434 0.3 -0.009 1 
0.433 0.305 -0.009 1 
0.384 -0.206 -0.019 1 
0.452 -0.328 -0.01 1 
0.454 -0.227 -0.007 1 
0.384 -0.237 -0.025 1 
0.458 -0.056 -0.006 1 
0.455 0.003 -0.006 1 
0.455 0.024 -0.006 1 
0.455 0.044 -0.006 1 
0.454 0.054 -0.006 1 
0.454 0.062 -0.006 1 
0.454 0.073 -0.006 1 
0.453 0.083 -0.006 1 
0.453 0.093 -0.006 1 
0.452 0.114 -0.006 1 
0.452 0.132 -0.006 1 
0.449 0.154 -0.006 1 
0.447 0.162 -0.006 1 
0.392 0.234 -0.016 1 
0.447 0.183 -0.006 1 
0.442 0.243 -0.007 1 
0.443 0.273 -0.008 1 
0.442 0.284 -0.008 1 
0.438 0.292 -0.007 1 
0.44 0.303 -0.008 1 
0.461 -0.335 -0.009 1 
0.462 -0.297 -0.008 1 
0.459 -0.177 -0.005 1 
0.459 -0.155 -0.005 1 
0.461 -0.08 -0.005 1 
0.461 -0.036 -0.005 1 
0.455 0.144 -0.005 1 
0.453 0.154 -0.004 1 
0.451 0.164 -0.004 1 
0.45 0.174 -0.004 1 
0.45 0.183 -0.004 1 
0.452 0.192 -0.005 1 
0.452 0.203 -0.005 1 
0.451 0.214 -0.005 1 
0.449 0.223 -0.005 1 
0.448 0.234 -0.005 1 
0.448 0.243 -0.005 1 
0.448 0.254 -0.006 1 
0.447 0.262 -0.006 1 
0.447 0.274 -0.006 1 
0.448 0.281 -0.006 1 
0.445 0.302 -0.006 1 
0.443 0.313 -0.006 1 
0.443 0.316 -0.007 1 
0.384 0.184 -0.016 1 
0.464 -0.315 -0.006 1 
0.454 -0.05 -0.011 1 
0.466 -0.307 -0.006 1 
0.465 -0.268 -0.005 1 
0.464 -0.264 -0.005 1 
0.464 -0.255 -0.004 1 
0.466 -0.245 -0.005 1 
0.466 -0.242 -0.005 1 
0.462 -0.225 -0.004 1 
0.463 -0.217 -0.004 1 
0.452 0.234 -0.003 1 
0.452 0.243 -0.003 1 
0.451 0.254 -0.003 1 
0.45 0.262 -0.003 1 
0.452 0.282 -0.004 1 
0.452 0.288 -0.005 1 
0.469 -0.348 -0.005 1 
0.47 -0.335 -0.005 1 
0.434 0.134 -0.01 1 
0.442 0.263 -0.007 1 
0.471 -0.332 -0.005 1 
0.463 -0.185 0 1 
0.463 -0.177 0 1 
0.399 -0.196 -0.017 1 
0.464 -0.155 0 1 
0.464 -0.149 0 1 
0.453 0.304 -0.003 1 
0.452 0.313 -0.003 1 
0.465 -0.117 0.002 1 
0.465 -0.087 0.002 1 
0.465 -0.079 0.002 1 
0.454 -0.301 -0.012 1 
0.464 -0.015 0.002 1 
0.463 0.014 0.002 1 
0.462 0.093 0.002 1 
0.461 0.114 0.002 1 
0.452 0.323 0 1 
0.474 -0.335 0 1 
0.468 -0.255 0.002 1 
0.468 -0.226 0.003 1 
0.467 -0.216 0.003 1 
0.466 -0.207 0.003 1 
0.466 -0.195 0.003 1 
0.466 -0.187 0.003 1 
0.465 -0.175 0.004 1 
0.465 -0.166 0.004 1 
0.466 -0.156 0.004 1 
0.466 -0.145 0.004 1 
0.373 -0.205 -0.022 1 
0.416 0.113 -0.012 1 
0.465 -0.136 0.004 1 
0.464 -0.116 0.004 1 
0.464 -0.105 0.004 1 
0.464 -0.1 0.004 1 
0.444 0.317 -0.004 1 
0.461 0.096 0.004 1 
0.46 0.122 0.004 1 
0.459 0.152 0.004 1 
0.46 0.164 0.004 1 
0.46 0.183 0.003 1 
0.459 0.191 0.003 1 
0.46 0.203 0.003 1 
0.46 0.223 0.003 1 
0.46 0.232 0.003 1 
0.463 0.243 0.002 1 
0.384 -0.177 -0.018 1 
0.459 0.261 0.002 1 
0.461 0.272 0.002 1 
0.474 -0.346 0.002 1 
0.36 0.103 -0.014 1 
0.475 -0.34 0.002 1 
0.472 -0.326 0.003 1 
0.381 0.153 -0.013 1 
0.473 -0.317 0.003 1 
0.472 -0.306 0.003 1 
0.47 -0.285 0.004 1 
0.469 -0.278 0.004 1 
0.46 0.283 0.004 1 
0.46 0.292 0.004 1 
0.459 0.304 0.004 1 
0.458 0.313 0.004 1 
0.458 0.323 0.003 1 
0.394 0.014 -0.015 1 
0.458 0.329 0.003 1 
0.392 0.043 -0.015 1 
0.46 0.214 0.003 1 
0.473 -0.045 -0.021 1 
0.456 0.134 -0.005 1 
0.465 -0.29 -0.005 1 
0.46 -0.195 -0.005 1 
0.455 0.049 -0.006 1 
0.455 -0.006 -0.006 1 
0.457 -0.025 -0.006 1 
0.463 -0.046 -0.005 1 
0.457 -0.066 -0.006 1 
0.411 0.201 -0.013 1 
0.384 -0.147 -0.017 1 
0.461 -0.086 -0.005 1 
0.457 -0.106 -0.006 1 
0.46 -0.126 -0.005 1 
0.461 -0.145 -0.005 1 
0.459 -0.166 -0.005 1 
0.374 -0.034 -0.016 1 
0.38 0.187 -0.014 1 
0.444 -0.307 -0.015 1 
0.46 -0.186 -0.005 1 
0.458 -0.227 -0.006 1 
0.454 -0.305 -0.012 1 
0.461 -0.247 -0.006 1 
0.443 0.253 -0.007 1 
0.464 -0.286 -0.005 1 
0.397 0.174 -0.015 1 
0.455 0.147 -0.005 1 
0.464 -0.325 -0.006 1 
0.402 -0.086 -0.016 1 
0.443 -0.275 -0.011 1 
0.413 0.112 -0.013 1 
0.374 0.174 -0.016 1 
0.413 0.123 -0.013 1 
0.371 0.236 -0.016 1 
0.39 0.173 -0.015 1 
0.431 0.103 -0.011 1 
0.435 -0.27 -0.015 1 
0.444 0.098 -0.009 1 
0.45 0.144 -0.006 1 
0.465 -0.128 0.001 1 
0.428 0.174 -0.009 1 
0.47 -0.245 0.002 1 
0.464 -0.135 0 1 
0.451 0.124 -0.006 1 
0.441 0.013 -0.01 1 
0.466 -0.297 -0.006 1 
0.442 -0.256 -0.011 1 
0.452 0.326 0 1 
0.46 -0.038 -0.041 1 
0.45 0.185 -0.004 1 
0.369 0.073 -0.015 1 
0.362 -0.066 -0.016 1 
0.391 0.258 -0.014 1 
0.444 0.154 -0.007 1 
0.353 0.163 -0.014 1 
0.414 -0.039 -0.014 1 
0.462 -0.165 0 1 
0.462 0.337 0.002 1 
0.459 -0.217 -0.006 1 
0.384 -0.036 -0.016 1 
0.445 0.312 -0.007 1 
0.46 0.144 0.004 1 
0.394 -0.201 -0.018 1 
0.428 0.204 -0.008 1 
0.372 -0.217 -0.024 1 
0.444 -0.053 -0.011 1 
0.414 0.094 -0.013 1 
0.429 0.014 -0.012 1 
0.423 -0.275 -0.019 1 
0.431 0.113 -0.011 1 
0.454 0.224 -0.003 1 
0.379 0.093 -0.015 1 
0.345 -0.012 0.014 1 
0.445 -0.016 -0.006 1 
0.46 -0.12 -0.005 1 
0.351 0.201 -0.016 1 
0.395 0.143 -0.015 1 
0.4 0.214 -0.015 1 
0.464 -0.206 -0.001 1 
0.461 -0.137 -0.005 1 
0.413 -0.246 -0.02 1 
0.388 0.117 -0.015 1 
0.464 0.003 0.002 1 
0.47 -0.236 0.002 1 
0.413 0.223 -0.014 1 
0.414 -0.225 -0.017 1 
0.393 -0.095 -0.015 1 
0.432 -0.236 -0.015 1 
0.373 0.094 -0.015 1 
0.431 -0.266 -0.016 1 
0.433 0.084 -0.011 1 
0.393 0.203 -0.015 1 
0.464 -0.025 0.002 1 
0.393 0.022 -0.015 1 
0.452 -0.125 -0.008 1 
0.413 -0.056 -0.014 1 
0.469 -0.265 0.002 1 
0.46 0.133 0.004 1 
0.381 0.202 -0.015 1 
0.394 -0.266 -0.023 1 
0.423 0.133 -0.012 1 
0.452 -0.265 -0.01 1 
0.391 0.034 -0.014 1 
0.415 0.285 -0.015 1 
0.417 -0.166 -0.015 1 
0.464 -0.249 -0.004 1 
0.394 0.254 -0.015 1 
0.457 -0.017 -0.006 1 
0.401 0.179 -0.014 1 
0.454 0.213 -0.003 1 
0.422 0.007 -0.01 1 
0.46 0.172 0.004 1 
0.414 0.25 -0.013 1 
0.393 0.006 -0.009 1 
0.406 0.026 -0.015 1 
0.465 -0.095 0.002 1 
0.471 -0.295 0.004 1 
0.392 -0.24 -0.025 1 
0.462 -0.265 -0.007 1 
0.398 0.054 -0.015 1 
0.382 0.033 -0.015 1 
0.414 0.184 -0.013 1 
0.372 0.113 -0.015 1 
0.41 0.044 -0.014 1 
0.434 -0.296 -0.018 1 
0.398 0.071 -0.015 1 
0.424 0.263 -0.011 1 
0.421 0.144 -0.011 1 
0.362 0.076 -0.015 1 
0.409 0.259 -0.014 1 
0.402 0.109 -0.014 1 
0.446 -0.044 -0.014 1 
0.442 0.022 -0.011 1 
0.461 0.253 0.002 1 
0.394 -0.036 -0.015 1 
0.45 -0.288 -0.011 1 
0.399 0.04 -0.015 1 
0.394 -0.18 -0.017 1 
0.412 -0.177 -0.016 1 
0.399 -0.057 -0.014 1 
0.397 0.081 -0.015 1 
0.429 0.024 -0.012 1 
0.464 -0.007 0.002 1 
0.359 0.173 -0.015 1 
0.336 -0.013 0.016 1 
0.361 -0.095 -0.016 1 
0.41 -0.159 -0.015 1 
0.4 -0.126 -0.016 1 
0.464 -0.127 0.004 1 
0.453 -0.076 -0.008 1 
0.405 0.049 -0.015 1 
0.419 0.103 -0.013 1 
0.39 -0.246 -0.025 1 
0.413 -0.115 -0.015 1 
0.359 -0.051 -0.014 1 
0.453 -0.176 -0.009 1 
0.424 -0.191 -0.015 1 
0.441 -0.125 -0.011 1 
0.443 0.113 -0.009 1 
0.402 0.173 -0.014 1 
0.444 -0.011 -0.006 1 
0.354 0.179 -0.015 1 
0.38 0.224 -0.016 1 
0.464 -0.276 -0.005 1 
0.457 0.013 -0.006 1 
0.419 0.267 -0.017 1 
0.359 0.223 -0.016 1 
0.394 0.209 -0.015 1 
0.372 -0.155 -0.017 1 
0.464 -0.087 0 1 
0.452 0.273 -0.004 1 
0.45 0.292 -0.004 1 
0.434 -0.144 -0.012 1 
0.366 0.089 -0.014 1 
0.402 0.083 -0.014 1 
0.438 0.191 -0.007 1 
0.382 0.193 -0.015 1 
0.394 -0.089 -0.015 1 
0.404 0.043 -0.014 1 
0.411 0.033 -0.014 1 
0.36 -0.116 -0.016 1 
0.384 0.214 -0.017 1 
0.422 0.032 -0.013 1 
0.42 -0.123 -0.015 1 
0.399 0.203 -0.012 1 
0.461 -0.096 -0.005 1 
0.439 0.224 -0.008 1 
0.364 0.054 -0.015 1 
0.373 -0.152 -0.018 1 
0.456 0.034 -0.006 1 
0.39 -0.166 -0.018 1 
0.374 0.043 -0.015 1 
0.412 0.227 -0.014 1 
0.434 -0.165 -0.012 1 
0.452 0.023 -0.008 1 
0.412 -0.275 -0.021 1 
0.464 -0.197 -0.001 1 
0.373 0.194 -0.017 1 
0.459 -0.205 -0.005 1 
0.399 0.034 -0.015 1 
0.452 -0.165 -0.009 1 
0.447 0.173 -0.006 1 
0.384 0.173 -0.015 1 
0.421 0.212 -0.011 1 
0.449 -0.248 -0.009 1 
0.37 -0.065 -0.015 1 
0.453 0.104 -0.006 1 
0.407 0.257 -0.016 1 
0.452 0.013 -0.008 1 
0.443 0.233 -0.007 1 
0.439 -0.155 -0.011 1 
0.4 -0.115 -0.015 1 
0.387 0.191 -0.015 1 
0.459 -0.236 -0.006 1 
0.4 -0.248 -0.021 1 
0.485 -0.044 -0.021 1 
0.381 -0.135 -0.018 1 
0.464 -0.311 -0.006 1 
0.394 -0.136 -0.016 1 
0.372 0.204 -0.017 1 
0.363 0.213 -0.016 1 
0.439 0.183 -0.007 1 
0.381 -0.045 -0.015 1 
0.402 0.094 -0.014 1 
0.468 -0.166 0.154 3 
0.468 -0.175 0.154 3 
0.468 -0.186 0.152 3 
0.462 0.283 0.132 3 
0.474 -0.297 0.16 3 
0.464 -0.135 0.015 3 
0.477 -0.327 0.162 3 
0.477 -0.338 0.162 3 
0.478 -0.346 0.163 3 
0.46 0.338 0.154 3 
0.46 0.331 0.154 3 
0.46 0.231 0.062 3 
0.462 0.313 0.153 3 
0.462 0.303 0.153 3 
0.461 0.154 0.132 3 
0.461 0.293 0.152 3 
0.462 0.284 0.152 3 
0.463 0.073 0.143 3 
0.462 -0.006 0.092 3 
0.462 0.272 0.152 3 
0.463 0.263 0.152 3 
0.459 0.152 0.033 3 
0.462 0.244 0.154 3 
0.466 -0.066 0.152 3 
0.466 -0.085 0.144 3 
0.461 0.232 0.153 3 
0.461 0.223 0.153 3 
0.461 0.214 0.153 3 
0.461 0.274 0.062 3 
0.461 0.194 0.152 3 
0.461 0.182 0.152 3 
0.462 0.174 0.152 3 
0.466 -0.047 0.152 3 
0.465 -0.055 0.152 3 
0.459 0.331 0.062 3 
0.468 -0.155 0.154 3 
0.467 -0.077 0.152 3 
0.467 -0.085 0.152 3 
0.467 -0.096 0.153 3 
0.469 -0.247 0.094 3 
0.466 -0.107 0.152 3 
0.467 -0.115 0.153 3 
0.467 -0.126 0.153 3 
0.467 -0.135 0.153 3 
0.461 0.336 0.062 3 
0.467 -0.146 0.153 3 
0.465 -0.189 0.014 3 
0.463 0.133 0.144 3 
0.463 0.124 0.143 3 
0.462 0.113 0.143 3 
0.462 0.102 0.143 3 
0.462 0.094 0.143 3 
0.462 0.083 0.143 3 
0.462 0.064 0.143 3 
0.462 0.054 0.143 3 
0.463 0.033 0.143 3 
0.462 0.022 0.143 3 
0.462 0.014 0.143 3 
0.462 0.143 0.143 3 
0.462 0.003 0.143 3 
0.476 -0.308 0.134 3 
0.463 -0.006 0.143 3 
0.464 -0.017 0.143 3 
0.465 -0.031 0.143 3 
0.464 -0.036 0.143 3 
0.465 -0.047 0.143 3 
0.465 -0.055 0.143 3 
0.465 -0.065 0.144 3 
0.466 -0.076 0.144 3 
0.461 0.294 0.113 3 
0.473 -0.277 0.153 3 
0.47 -0.207 0.153 3 
0.47 -0.216 0.153 3 
0.47 -0.225 0.153 3 
0.458 0.242 0.014 3 
0.471 -0.235 0.154 3 
0.471 -0.247 0.154 3 
0.471 -0.256 0.154 3 
0.464 -0.017 0.146 3 
0.464 -0.025 0.146 3 
0.465 -0.195 0.014 3 
0.472 -0.266 0.152 3 
0.469 -0.195 0.152 3 
0.461 0.203 0.063 3 
0.475 -0.288 0.154 3 
0.475 -0.295 0.154 3 
0.474 -0.297 0.154 3 
0.46 0.222 0.144 3 
0.461 0.211 0.144 3 
0.462 0.194 0.144 3 
0.462 0.182 0.144 3 
0.462 0.174 0.144 3 
0.462 0.163 0.144 3 
0.462 0.154 0.144 3 
0.469 -0.256 0.052 3 
0.465 -0.114 0.023 3 
0.468 -0.135 0.162 3 
0.476 -0.355 0.163 3 
0.468 -0.146 0.162 3 
0.476 -0.357 0.133 3 
0.468 -0.155 0.162 3 
0.469 -0.275 0.083 3 
0.468 -0.166 0.162 3 
0.469 -0.175 0.163 3 
0.469 -0.187 0.163 3 
0.466 -0.106 0.104 3 
0.464 -0.006 0.159 3 
0.469 -0.196 0.164 3 
0.47 -0.205 0.164 3 
0.466 -0.167 0.034 3 
0.479 -0.337 0.172 3 
0.479 -0.347 0.172 3 
0.479 -0.355 0.173 3 
0.463 0.342 0.164 3 
0.46 0.332 0.162 3 
0.461 0.272 0.104 3 
0.462 0.324 0.162 3 
0.463 0.311 0.162 3 
0.477 -0.317 0.173 3 
0.468 -0.185 0.124 3 
0.467 -0.077 0.163 3 
0.467 -0.085 0.163 3 
0.468 -0.096 0.164 3 
0.468 -0.105 0.164 3 
0.459 0.282 0.024 3 
0.467 -0.115 0.164 3 
0.468 -0.127 0.164 3 
0.475 -0.273 0.171 3 
0.461 0.104 0.084 3 
0.475 -0.295 0.172 3 
0.461 0.134 0.073 3 
0.479 -0.326 0.174 3 
0.465 -0.166 0.023 3 
0.464 0.287 0.164 3 
0.463 0.282 0.164 3 
0.464 -0.025 0.143 3 
0.469 -0.206 0.113 3 
0.464 0.274 0.164 3 
0.464 0.261 0.164 3 
0.463 0.254 0.163 3 
0.462 0.242 0.162 3 
0.462 0.233 0.162 3 
0.465 -0.014 0.154 3 
0.464 0.062 0.154 3 
0.463 0.054 0.154 3 
0.464 0.043 0.154 3 
0.464 0.033 0.154 3 
0.462 0.094 0.103 3 
0.475 -0.316 0.099 3 
0.463 0.022 0.154 3 
0.469 -0.247 0.033 3 
0.463 0.014 0.154 3 
0.463 0.003 0.154 3 
0.463 -0.006 0.154 3 
0.462 0.083 0.002 3 
0.466 -0.017 0.154 3 
0.466 -0.025 0.154 3 
0.465 -0.036 0.154 3 
0.475 -0.288 0.162 3 
0.474 -0.291 0.162 3 
0.46 0.224 0.133 3 
0.464 -0.116 0.02 3 
0.475 -0.295 0.163 3 
0.474 -0.348 0.064 3 
0.476 -0.306 0.163 3 
0.478 -0.315 0.164 3 
0.474 -0.288 0.165 3 
0.464 0.302 0.162 3 
0.471 -0.217 0.162 3 
0.471 -0.226 0.162 3 
0.465 -0.136 0.093 3 
0.472 -0.236 0.163 3 
0.472 -0.245 0.163 3 
0.472 -0.257 0.163 3 
0.459 0.242 0.043 3 
0.473 -0.267 0.164 3 
0.473 -0.28 0.164 3 
0.461 0.204 0.114 3 
0.463 0.254 0.154 3 
0.462 0.157 0.154 3 
0.462 0.154 0.154 3 
0.462 0.143 0.154 3 
0.463 0.133 0.154 3 
0.463 0.119 0.154 3 
0.463 0.114 0.154 3 
0.463 0.094 0.154 3 
0.463 0.084 0.154 3 
0.463 0.073 0.154 3 
0.46 0.335 0.054 3 
0.461 0.164 0.124 3 
0.47 -0.246 0.134 3 
0.471 -0.256 0.134 3 
0.464 -0.127 0.018 3 
0.471 -0.265 0.132 3 
0.472 -0.275 0.132 3 
0.472 -0.285 0.132 3 
0.472 -0.306 0.072 3 
0.474 -0.296 0.133 3 
0.475 -0.304 0.134 3 
0.477 -0.316 0.134 3 
0.461 0.17 0.124 3 
0.464 -0.007 0.052 3 
0.461 0.153 0.124 3 
0.461 0.183 0.052 3 
0.462 0.143 0.124 3 
0.462 0.132 0.124 3 
0.473 -0.347 0.043 3 
0.462 0.124 0.124 3 
0.462 0.113 0.124 3 
0.462 0.102 0.124 3 
0.461 0.094 0.124 3 
0.462 0.083 0.124 3 
0.461 0.072 0.124 3 
0.462 0.293 0.133 3 
0.467 -0.157 0.134 3 
0.467 -0.165 0.134 3 
0.479 -0.346 0.142 3 
0.478 -0.356 0.142 3 
0.46 0.337 0.134 3 
0.474 -0.296 0.113 3 
0.458 0.331 0.133 3 
0.47 -0.285 0.092 3 
0.461 0.324 0.133 3 
0.461 0.314 0.133 3 
0.461 0.301 0.133 3 
0.461 0.064 0.124 3 
0.461 0.273 0.132 3 
0.461 0.264 0.132 3 
0.464 -0.054 0.13 3 
0.467 -0.246 0.014 3 
0.467 -0.177 0.132 3 
0.469 -0.186 0.132 3 
0.47 -0.195 0.133 3 
0.469 -0.206 0.133 3 
0.469 -0.215 0.133 3 
0.47 -0.227 0.133 3 
0.47 -0.236 0.134 3 
0.461 0.212 0.103 3 
0.464 -0.046 0.114 3 
0.46 0.224 0.123 3 
0.461 0.204 0.122 3 
0.461 0.193 0.122 3 
0.462 0.182 0.122 3 
0.465 -0.052 0.122 3 
0.465 -0.057 0.122 3 
0.464 -0.015 0.052 3 
0.464 -0.065 0.122 3 
0.465 -0.076 0.122 3 
0.464 -0.079 0.122 3 
0.46 0.233 0.123 3 
0.465 -0.087 0.122 3 
0.465 -0.095 0.122 3 
0.466 -0.106 0.123 3 
0.465 -0.117 0.122 3 
0.466 -0.126 0.123 3 
0.466 -0.137 0.123 3 
0.466 -0.145 0.123 3 
0.466 -0.156 0.123 3 
0.466 -0.165 0.123 3 
0.468 -0.176 0.124 3 
0.473 0.357 0.199 3 
0.478 -0.327 0.132 3 
0.462 0.054 0.124 3 
0.461 0.043 0.124 3 
0.462 0.032 0.124 3 
0.462 0.024 0.124 3 
0.462 0.014 0.124 3 
0.463 0.003 0.124 3 
0.463 -0.006 0.124 3 
0.462 -0.017 0.124 3 
0.463 -0.025 0.124 3 
0.463 -0.036 0.124 3 
0.464 -0.046 0.124 3 
0.466 -0.145 0.134 3 
0.469 -0.275 0.044 3 
0.478 -0.337 0.132 3 
0.478 -0.348 0.133 3 
0.46 0.31 0.124 3 
0.461 0.304 0.124 3 
0.462 0.293 0.124 3 
0.461 0.282 0.124 3 
0.461 0.273 0.124 3 
0.461 0.264 0.123 3 
0.461 0.243 0.123 3 
0.471 -0.237 0.142 3 
0.467 -0.165 0.143 3 
0.467 -0.177 0.143 3 
0.467 -0.185 0.143 3 
0.469 -0.195 0.144 3 
0.47 -0.207 0.144 3 
0.47 -0.216 0.144 3 
0.459 0.333 0.142 3 
0.462 0.323 0.142 3 
0.462 0.313 0.142 3 
0.464 -0.065 0.138 3 
0.471 -0.225 0.142 3 
0.467 -0.157 0.143 3 
0.471 -0.247 0.143 3 
0.471 -0.256 0.143 3 
0.472 -0.266 0.143 3 
0.473 -0.276 0.144 3 
0.461 0.072 0.134 3 
0.462 -0.006 0.134 3 
0.471 -0.298 0.012 3 
0.474 -0.287 0.142 3 
0.462 0.064 0.023 3 
0.474 -0.296 0.142 3 
0.475 -0.304 0.142 3 
0.462 0.303 0.144 3 
0.466 -0.115 0.144 3 
0.474 -0.293 0.151 3 
0.475 -0.308 0.151 3 
0.462 -0.001 0.134 3 
0.476 -0.319 0.152 3 
0.478 -0.328 0.153 3 
0.478 -0.335 0.153 3 
0.478 -0.345 0.154 3 
0.477 -0.355 0.154 3 
0.476 -0.335 0.114 3 
0.474 -0.359 0.153 3 
0.461 0.203 0.092 3 
0.461 0.292 0.144 3 
0.461 0.283 0.143 3 
0.46 -0.007 0.013 3 
0.461 0.273 0.143 3 
0.462 0.262 0.143 3 
0.462 0.253 0.143 3 
0.462 0.244 0.143 3 
0.461 0.234 0.142 3 
0.464 -0.06 0.141 3 
0.467 -0.126 0.142 3 
0.466 -0.145 0.142 3 
0.465 -0.041 0.133 3 
0.462 0.083 0.132 3 
0.462 0.064 0.132 3 
0.462 0.054 0.132 3 
0.462 0.043 0.132 3 
0.461 0.244 0.062 3 
0.462 0.032 0.132 3 
0.462 0.024 0.132 3 
0.462 0.014 0.132 3 
0.463 -0.017 0.132 3 
0.463 -0.025 0.132 3 
0.464 -0.036 0.132 3 
0.462 0.094 0.132 3 
0.465 -0.047 0.133 3 
0.465 -0.055 0.133 3 
0.465 -0.065 0.133 3 
0.464 -0.073 0.133 3 
0.465 -0.076 0.133 3 
0.465 -0.087 0.133 3 
0.466 -0.095 0.133 3 
0.465 -0.117 0.133 3 
0.466 -0.126 0.134 3 
0.463 -0.017 0.113 3 
0.466 -0.137 0.134 3 
0.462 0.193 0.133 3 
0.475 -0.307 0.143 3 
0.476 -0.315 0.143 3 
0.478 -0.327 0.144 3 
0.478 -0.338 0.144 3 
0.461 0.249 0.134 3 
0.461 0.243 0.134 3 
0.462 0.252 0.123 3 
0.46 0.233 0.134 3 
0.461 0.213 0.134 3 
0.471 -0.265 0.123 3 
0.46 0.204 0.133 3 
0.466 -0.106 0.144 3 
0.466 -0.147 0.052 3 
0.462 0.182 0.133 3 
0.461 0.173 0.133 3 
0.462 0.162 0.133 3 
0.462 0.143 0.133 3 
0.462 0.132 0.132 3 
0.462 0.124 0.132 3 
0.462 0.113 0.132 3 
0.462 0.102 0.132 3 
0.464 -0.036 0.092 3 
0.469 -0.007 0.183 3 
0.468 0.063 0.183 3 
0.467 0.052 0.183 3 
0.475 -0.363 0.194 3 
0.467 0.044 0.182 3 
0.465 0.114 0.163 3 
0.468 0.033 0.183 3 
0.468 0.022 0.183 3 
0.469 0.014 0.183 3 
0.461 0.303 0.082 3 
0.469 0.003 0.183 3 
0.463 0.043 0.052 3 
0.468 0.074 0.183 3 
0.477 -0.315 0.123 3 
0.468 -0.015 0.183 3 
0.468 -0.026 0.183 3 
0.468 -0.036 0.174 3 
0.469 -0.037 0.183 3 
0.469 -0.045 0.183 3 
0.465 -0.057 0.063 3 
0.469 -0.056 0.183 3 
0.47 -0.067 0.184 3 
0.47 -0.075 0.184 3 
0.461 0.301 0.113 3 
0.466 -0.137 0.142 3 
0.483 -0.347 0.202 3 
0.469 0.349 0.193 3 
0.468 0.344 0.193 3 
0.468 0.332 0.192 3 
0.467 -0.145 0.093 3 
0.461 0.263 0.185 3 
0.474 -0.325 0.099 3 
0.465 0.194 0.184 3 
0.465 0.18 0.184 3 
0.466 0.172 0.184 3 
0.469 -0.167 0.174 3 
0.469 -0.086 0.184 3 
0.466 0.163 0.184 3 
0.466 0.152 0.184 3 
0.461 0.199 0.144 3 
0.467 0.144 0.184 3 
0.468 0.133 0.184 3 
0.467 0.124 0.183 3 
0.466 -0.106 0.133 3 
0.467 0.113 0.183 3 
0.467 0.104 0.183 3 
0.468 0.094 0.183 3 
0.467 0.082 0.183 3 
0.474 -0.236 0.187 3 
0.47 -0.106 0.182 3 
0.472 -0.115 0.182 3 
0.471 -0.126 0.182 3 
0.472 -0.137 0.183 3 
0.472 -0.146 0.183 3 
0.46 0.203 0.033 3 
0.471 -0.157 0.183 3 
0.471 -0.165 0.183 3 
0.472 -0.178 0.184 3 
0.473 -0.258 0.172 3 
0.461 0.244 0.093 3 
0.459 0.314 0.062 3 
0.474 -0.247 0.187 3 
0.479 -0.307 0.191 3 
0.479 -0.317 0.192 3 
0.481 -0.326 0.193 3 
0.481 -0.337 0.194 3 
0.481 -0.355 0.195 3 
0.466 0.326 0.184 3 
0.466 0.322 0.184 3 
0.466 0.312 0.184 3 
0.46 0.293 0.093 3 
0.466 0.302 0.183 3 
0.465 0.254 0.184 3 
0.47 -0.097 0.184 3 
0.462 0.043 0.143 3 
0.478 -0.276 0.193 3 
0.478 -0.286 0.193 3 
0.479 -0.297 0.194 3 
0.474 -0.352 0.034 3 
0.473 0.357 0.192 3 
0.465 0.154 0.172 3 
0.46 0.262 0.182 3 
0.47 -0.285 0.064 3 
0.465 0.263 0.184 3 
0.482 -0.335 0.2 3 
0.465 0.242 0.183 3 
0.465 0.233 0.183 3 
0.464 -0.135 0.012 3 
0.465 0.224 0.183 3 
0.462 0.083 0.073 3 
0.466 0.213 0.183 3 
0.461 0.213 0.123 3 
0.465 0.203 0.182 3 
0.464 0.199 0.181 3 
0.464 0.194 0.181 3 
0.468 0.102 0.186 3 
0.467 0.173 0.188 3 
0.467 0.164 0.187 3 
0.468 0.153 0.187 3 
0.46 0.284 0.093 3 
0.469 0.142 0.187 3 
0.468 0.133 0.187 3 
0.461 0.064 0.113 3 
0.467 0.124 0.186 3 
0.469 0.072 0.186 3 
0.467 0.113 0.186 3 
0.466 0.282 0.174 3 
0.467 0.181 0.188 3 
0.463 0.084 0.162 3 
0.468 0.094 0.186 3 
0.468 0.083 0.186 3 
0.468 0.063 0.186 3 
0.468 0.053 0.186 3 
0.468 0.044 0.186 3 
0.467 0.033 0.185 3 
0.469 0.023 0.186 3 
0.47 0.014 0.186 3 
0.469 0.003 0.186 3 
0.469 -0.006 0.186 3 
0.467 0.294 0.192 3 
0.471 0.351 0.197 3 
0.464 0.153 0.169 3 
0.461 0.142 0.084 3 
0.469 0.342 0.196 3 
0.468 0.333 0.195 3 
0.462 0.024 0.102 3 
0.464 -0.025 0.063 3 
0.468 0.322 0.194 3 
0.467 0.311 0.193 3 
0.467 0.304 0.193 3 
0.462 0.182 0.114 3 
0.469 -0.015 0.186 3 
0.467 0.281 0.191 3 
0.467 0.272 0.191 3 
0.467 0.262 0.19 3 
0.466 0.252 0.19 3 
0.466 0.243 0.189 3 
0.467 0.234 0.189 3 
0.467 0.222 0.189 3 
0.465 -0.039 0.143 3 
0.467 0.213 0.189 3 
0.466 0.204 0.188 3 
0.467 0.193 0.188 3 
0.479 -0.277 0.196 3 
0.474 -0.218 0.192 3 
0.474 -0.227 0.192 3 
0.475 -0.231 0.193 3 
0.476 -0.237 0.193 3 
0.475 -0.246 0.193 3 
0.461 0.262 0.062 3 
0.476 -0.255 0.194 3 
0.474 -0.257 0.193 3 
0.476 -0.265 0.194 3 
0.472 -0.265 0.193 3 
0.478 -0.273 0.195 3 
0.465 -0.047 0.044 3 
0.459 0.324 0.054 3 
0.479 -0.287 0.196 3 
0.464 -0.087 0.076 3 
0.463 -0.075 0.023 3 
0.48 -0.298 0.197 3 
0.481 -0.306 0.198 3 
0.458 0.313 0.012 3 
0.481 -0.316 0.199 3 
0.468 -0.217 0.044 3 
0.482 -0.327 0.2 3 
0.471 -0.206 0.173 3 
0.473 -0.126 0.189 3 
0.469 -0.026 0.186 3 
0.469 -0.037 0.186 3 
0.468 -0.045 0.186 3 
0.47 -0.056 0.186 3 
0.471 -0.067 0.187 3 
0.471 -0.075 0.187 3 
0.465 0.134 0.163 3 
0.47 -0.086 0.187 3 
0.471 -0.095 0.187 3 
0.472 -0.106 0.188 3 
0.473 -0.115 0.189 3 
0.468 0.294 0.184 3 
0.473 -0.135 0.189 3 
0.474 -0.147 0.19 3 
0.474 -0.156 0.19 3 
0.472 -0.166 0.189 3 
0.472 -0.178 0.19 3 
0.473 -0.187 0.19 3 
0.475 -0.194 0.191 3 
0.474 -0.197 0.191 3 
0.475 -0.203 0.192 3 
0.474 -0.206 0.191 3 
0.465 0.317 0.172 3 
0.474 -0.319 0.108 3 
0.47 -0.226 0.173 3 
0.471 -0.238 0.174 3 
0.462 0.043 0.034 3 
0.472 -0.245 0.174 3 
0.481 -0.336 0.182 3 
0.467 -0.351 0.148 3 
0.481 -0.347 0.182 3 
0.474 -0.361 0.181 3 
0.464 0.344 0.173 3 
0.463 0.332 0.172 3 
0.471 -0.215 0.173 3 
0.465 0.307 0.171 3 
0.464 0.28 0.17 3 
0.461 -0.025 0.013 3 
0.464 0.087 0.165 3 
0.464 0.073 0.165 3 
0.464 0.062 0.165 3 
0.464 0.054 0.165 3 
0.464 0.044 0.165 3 
0.464 0.033 0.165 3 
0.474 -0.265 0.173 3 
0.474 -0.275 0.173 3 
0.466 0.292 0.174 3 
0.479 -0.32 0.183 3 
0.468 -0.185 0.094 3 
0.48 -0.328 0.184 3 
0.475 -0.362 0.184 3 
0.464 0.341 0.176 3 
0.464 0.316 0.174 3 
0.449 0.297 0.168 3 
0.464 0.31 0.174 3 
0.466 -0.175 0.033 3 
0.463 0.302 0.173 3 
0.465 0.301 0.174 3 
0.46 0.183 0.033 3 
0.464 0.271 0.172 3 
0.465 0.266 0.173 3 
0.476 -0.306 0.172 3 
0.459 0.336 0.142 3 
0.463 0.261 0.172 3 
0.461 0.302 0.034 3 
0.464 0.084 0.168 3 
0.461 0.212 0.084 3 
0.47 -0.176 0.172 3 
0.471 -0.185 0.172 3 
0.471 -0.197 0.173 3 
0.465 0.019 0.162 3 
0.469 -0.226 0.033 3 
0.464 0.062 0.162 3 
0.464 0.054 0.162 3 
0.465 0.044 0.162 3 
0.464 0.041 0.162 3 
0.464 0.033 0.162 3 
0.466 -0.136 0.104 3 
0.468 -0.235 0.022 3 
0.465 0.03 0.162 3 
0.475 -0.329 0.084 3 
0.464 0.022 0.162 3 
0.463 0.073 0.162 3 
0.464 0.014 0.162 3 
0.46 0.203 0.084 3 
0.464 0.003 0.162 3 
0.465 -0.001 0.162 3 
0.474 -0.358 0.123 3 
0.465 -0.006 0.162 3 
0.466 -0.015 0.163 3 
0.466 -0.025 0.163 3 
0.466 -0.036 0.163 3 
0.467 -0.047 0.163 3 
0.467 -0.055 0.163 3 
0.464 0.144 0.163 3 
0.475 -0.282 0.174 3 
0.475 -0.286 0.174 3 
0.464 0.287 0.167 3 
0.462 0.218 0.164 3 
0.462 0.209 0.164 3 
0.463 0.204 0.164 3 
0.462 0.192 0.164 3 
0.462 0.183 0.164 3 
0.462 0.172 0.163 3 
0.463 0.164 0.163 3 
0.463 0.152 0.163 3 
0.462 0.053 0.002 3 
0.465 0.137 0.163 3 
0.464 0.131 0.163 3 
0.465 0.123 0.163 3 
0.464 0.12 0.163 3 
0.464 0.106 0.163 3 
0.461 0.32 0.113 3 
0.464 0.103 0.163 3 
0.465 0.101 0.163 3 
0.464 0.092 0.162 3 
0.46 0.239 0.114 3 
0.466 0.104 0.174 3 
0.463 0.093 0.052 3 
0.468 0.347 0.184 3 
0.466 0.34 0.182 3 
0.464 0.303 0.18 3 
0.464 0.223 0.176 3 
0.463 0.103 0.154 3 
0.464 0.173 0.175 3 
0.464 0.162 0.175 3 
0.466 0.118 0.174 3 
0.466 -0.096 0.144 3 
0.466 0.112 0.174 3 
0.461 0.112 0.113 3 
0.466 0.093 0.174 3 
0.465 0.084 0.174 3 
0.465 0.074 0.174 3 
0.466 0.063 0.174 3 
0.462 0.203 0.153 3 
0.466 0.052 0.174 3 
0.467 0.044 0.174 3 
0.461 0.313 0.093 3 
0.466 0.033 0.174 3 
0.467 0.022 0.174 3 
0.466 0.014 0.174 3 
0.472 -0.195 0.182 3 
0.468 0.282 0.183 3 
0.466 0.273 0.182 3 
0.468 -0.225 0.052 3 
0.464 0.253 0.18 3 
0.465 -0.068 0.122 3 
0.464 0.244 0.18 3 
0.464 0.226 0.179 3 
0.464 0.205 0.179 3 
0.464 0.182 0.178 3 
0.459 0.234 0.033 3 
0.472 -0.186 0.181 3 
0.467 0.003 0.174 3 
0.473 -0.205 0.182 3 
0.472 -0.216 0.182 3 
0.473 -0.226 0.183 3 
0.474 -0.236 0.184 3 
0.475 -0.242 0.184 3 
0.475 -0.245 0.184 3 
0.474 -0.247 0.184 3 
0.475 -0.335 0.064 3 
0.474 -0.256 0.184 3 
0.48 -0.346 0.191 3 
0.469 -0.097 0.173 3 
0.463 0.204 0.173 3 
0.46 0.282 0.043 3 
0.463 0.193 0.172 3 
0.463 0.181 0.172 3 
0.463 0.173 0.172 3 
0.47 -0.285 0.052 3 
0.463 0.164 0.172 3 
0.465 0.156 0.172 3 
0.465 0.142 0.172 3 
0.466 0.134 0.172 3 
0.468 -0.085 0.172 3 
0.47 -0.236 0.122 3 
0.463 -0.057 0.002 3 
0.468 -0.105 0.172 3 
0.46 0.244 0.104 3 
0.468 -0.116 0.173 3 
0.469 -0.125 0.173 3 
0.469 -0.136 0.173 3 
0.463 0.324 0.154 3 
0.469 -0.147 0.174 3 
0.469 -0.156 0.174 3 
0.477 -0.298 0.181 3 
0.477 -0.308 0.182 3 
0.477 -0.278 0.183 3 
0.467 -0.006 0.174 3 
0.466 -0.015 0.174 3 
0.466 -0.025 0.174 3 
0.459 0.103 0.013 3 
0.468 -0.047 0.174 3 
0.468 -0.055 0.174 3 
0.467 -0.066 0.174 3 
0.458 0.213 0.014 3 
0.467 -0.077 0.174 3 
0.475 -0.264 0.182 3 
0.475 -0.267 0.182 3 
0.467 -0.066 0.163 3 
0.474 -0.327 0.052 3 
0.477 -0.285 0.184 3 
0.464 0.33 0.178 3 
0.464 0.271 0.175 3 
0.463 0.252 0.174 3 
0.463 0.243 0.174 3 
0.463 0.234 0.174 3 
0.473 -0.316 0.052 3 
0.464 0.223 0.174 3 
0.464 0.214 0.173 3 
0.459 0.304 0.043 3 
0.473 -0.297 0.052 3 
0.473 -0.306 0.052 3 
0.474 -0.338 0.052 3 
0.475 -0.342 0.052 3 
0.473 -0.347 0.052 3 
0.465 -0.041 0.05 3 
0.465 -0.09 0.05 3 
0.465 -0.047 0.047 3 
0.456 0.331 0.043 3 
0.456 0.324 0.043 3 
0.458 0.313 0.043 3 
0.469 -0.275 0.052 3 
0.465 -0.065 0.044 3 
0.46 0.292 0.043 3 
0.46 0.273 0.043 3 
0.46 0.264 0.043 3 
0.459 0.222 0.022 3 
0.46 0.252 0.043 3 
0.46 0.223 0.044 3 
0.46 0.214 0.044 3 
0.46 0.203 0.044 3 
0.46 0.194 0.044 3 
0.46 0.183 0.044 3 
0.465 -0.116 0.052 3 
0.463 0.003 0.052 3 
0.463 -0.025 0.052 3 
0.464 -0.036 0.052 3 
0.464 -0.057 0.052 3 
0.465 -0.063 0.052 3 
0.464 -0.065 0.052 3 
0.464 -0.076 0.052 3 
0.464 -0.087 0.052 3 
0.464 -0.095 0.052 3 
0.465 -0.1 0.052 3 
0.465 -0.105 0.052 3 
0.46 0.174 0.044 3 
0.465 -0.125 0.052 3 
0.465 -0.136 0.053 3 
0.466 -0.155 0.052 3 
0.466 -0.167 0.052 3 
0.466 -0.175 0.052 3 
0.468 -0.188 0.052 3 
0.468 -0.196 0.052 3 
0.468 -0.217 0.052 3 
0.469 -0.235 0.052 3 
0.469 -0.247 0.052 3 
0.469 -0.265 0.052 3 
0.467 -0.176 0.044 3 
0.464 -0.068 0.044 3 
0.464 -0.084 0.044 3 
0.464 -0.087 0.044 3 
0.466 -0.092 0.044 3 
0.466 -0.095 0.044 3 
0.466 -0.106 0.044 3 
0.465 -0.116 0.044 3 
0.466 -0.125 0.044 3 
0.466 -0.136 0.044 3 
0.465 -0.147 0.044 3 
0.465 -0.155 0.044 3 
0.464 -0.057 0.044 3 
0.468 -0.188 0.044 3 
0.468 -0.196 0.044 3 
0.468 -0.205 0.044 3 
0.468 -0.225 0.044 3 
0.469 -0.235 0.044 3 
0.468 -0.246 0.044 3 
0.468 -0.255 0.044 3 
0.47 -0.285 0.013 3 
0.468 -0.265 0.044 3 
0.471 -0.288 0.044 3 
0.471 -0.295 0.044 3 
0.462 0.064 0.044 3 
0.46 0.163 0.044 3 
0.46 0.152 0.044 3 
0.461 0.142 0.044 3 
0.461 0.134 0.044 3 
0.462 0.123 0.044 3 
0.461 0.112 0.044 3 
0.461 0.104 0.044 3 
0.463 0.093 0.044 3 
0.462 0.082 0.044 3 
0.462 0.074 0.044 3 
0.465 -0.06 0.044 3 
0.462 0.014 0.052 3 
0.462 0.053 0.044 3 
0.463 0.043 0.044 3 
0.462 0.032 0.044 3 
0.462 0.024 0.044 3 
0.462 0.014 0.044 3 
0.463 0.003 0.044 3 
0.464 -0.007 0.044 3 
0.463 -0.025 0.044 3 
0.464 -0.036 0.044 3 
0.464 -0.049 0.044 3 
0.464 -0.017 0.063 3 
0.463 0.072 0.063 3 
0.463 0.064 0.063 3 
0.462 0.053 0.063 3 
0.46 0.273 0.054 3 
0.462 0.043 0.063 3 
0.463 0.032 0.063 3 
0.475 -0.346 0.043 3 
0.462 0.024 0.063 3 
0.462 0.014 0.063 3 
0.462 0.003 0.063 3 
0.463 -0.006 0.063 3 
0.462 0.083 0.063 3 
0.464 -0.036 0.063 3 
0.464 -0.046 0.063 3 
0.465 -0.065 0.063 3 
0.46 0.163 0.033 3 
0.464 -0.073 0.063 3 
0.464 -0.076 0.063 3 
0.464 -0.087 0.063 3 
0.465 -0.09 0.063 3 
0.465 -0.095 0.063 3 
0.465 -0.106 0.063 3 
0.466 -0.117 0.063 3 
0.461 0.192 0.063 3 
0.46 0.335 0.068 3 
0.464 -0.087 0.068 3 
0.462 0.112 0.033 3 
0.465 -0.071 0.066 3 
0.474 -0.327 0.067 3 
0.46 0.322 0.062 3 
0.46 0.302 0.062 3 
0.461 0.294 0.062 3 
0.46 0.283 0.062 3 
0.461 0.253 0.062 3 
0.461 0.223 0.063 3 
0.475 -0.346 0.052 3 
0.461 0.183 0.063 3 
0.463 -0.057 0.034 3 
0.461 0.172 0.063 3 
0.46 -0.035 0.013 3 
0.461 0.164 0.063 3 
0.461 0.142 0.063 3 
0.462 0.134 0.063 3 
0.462 0.123 0.063 3 
0.462 0.112 0.063 3 
0.461 0.104 0.063 3 
0.462 0.093 0.063 3 
0.461 0.172 0.052 3 
0.46 0.293 0.054 3 
0.461 0.283 0.054 3 
0.46 0.264 0.054 3 
0.46 0.252 0.054 3 
0.46 0.243 0.054 3 
0.46 0.234 0.054 3 
0.46 0.223 0.054 3 
0.461 0.212 0.054 3 
0.461 0.203 0.054 3 
0.461 0.192 0.054 3 
0.464 -0.057 0.055 3 
0.459 0.304 0.054 3 
0.461 0.164 0.052 3 
0.461 0.153 0.052 3 
0.461 0.142 0.052 3 
0.461 0.134 0.052 3 
0.462 0.123 0.052 3 
0.462 0.112 0.052 3 
0.462 0.082 0.052 3 
0.462 0.074 0.052 3 
0.462 0.053 0.052 3 
0.463 0.032 0.052 3 
0.463 0.024 0.052 3 
0.47 -0.248 0.064 3 
0.465 -0.125 0.063 3 
0.466 -0.136 0.063 3 
0.467 -0.145 0.063 3 
0.467 -0.156 0.063 3 
0.467 -0.167 0.063 3 
0.467 -0.187 0.063 3 
0.468 -0.196 0.063 3 
0.468 -0.205 0.063 3 
0.468 -0.217 0.063 3 
0.469 -0.226 0.064 3 
0.469 -0.235 0.064 3 
0.472 -0.309 0.044 3 
0.469 -0.256 0.064 3 
0.469 -0.265 0.064 3 
0.469 -0.275 0.064 3 
0.473 -0.306 0.064 3 
0.473 -0.316 0.064 3 
0.474 -0.327 0.064 3 
0.475 -0.346 0.064 3 
0.465 -0.166 0.044 3 
0.464 -0.095 0.058 3 
0.474 -0.338 0.058 3 
0.459 0.323 0.012 3 
0.465 -0.175 0.023 3 
0.466 -0.187 0.023 3 
0.466 -0.195 0.022 3 
0.467 -0.207 0.022 3 
0.467 -0.216 0.022 3 
0.468 -0.226 0.022 3 
0.457 0.332 0.014 3 
0.464 -0.177 0.017 3 
0.464 -0.146 0.01 3 
0.473 -0.337 0.014 3 
0.474 -0.345 0.014 3 
0.466 -0.156 0.023 3 
0.459 0.304 0.012 3 
0.459 0.294 0.012 3 
0.459 0.282 0.013 3 
0.458 0.263 0.013 3 
0.458 0.254 0.013 3 
0.458 0.233 0.014 3 
0.458 0.224 0.014 3 
0.459 0.202 0.014 3 
0.458 0.193 0.014 3 
0.458 0.182 0.014 3 
0.466 -0.207 0.014 3 
0.463 -0.025 0.023 3 
0.46 0.114 0.023 3 
0.461 0.104 0.023 3 
0.46 0.093 0.023 3 
0.46 0.082 0.023 3 
0.461 0.074 0.023 3 
0.461 0.053 0.023 3 
0.461 0.042 0.023 3 
0.461 0.032 0.023 3 
0.461 0.024 0.023 3 
0.462 0.003 0.023 3 
0.462 -0.007 0.023 3 
0.466 -0.215 0.014 3 
0.462 -0.036 0.023 3 
0.462 -0.046 0.023 3 
0.463 -0.057 0.023 3 
0.463 -0.065 0.023 3 
0.463 -0.086 0.023 3 
0.464 -0.185 0.015 3 
0.464 -0.097 0.023 3 
0.465 -0.117 0.023 3 
0.465 -0.125 0.023 3 
0.466 -0.136 0.023 3 
0.466 -0.147 0.023 3 
0.465 -0.175 0.012 3 
0.461 -0.075 0.013 3 
0.462 -0.086 0.013 3 
0.463 -0.097 0.013 3 
0.463 -0.105 0.013 3 
0.463 -0.116 0.013 3 
0.463 -0.127 0.013 3 
0.465 -0.144 0.012 3 
0.465 -0.147 0.012 3 
0.465 -0.155 0.012 3 
0.464 -0.16 0.012 3 
0.464 -0.166 0.012 3 
0.462 -0.065 0.013 3 
0.464 -0.177 0.012 3 
0.464 -0.185 0.012 3 
0.465 -0.172 0.009 3 
0.461 0.072 0.002 3 
0.461 0.064 0.002 3 
0.463 0.043 0.002 3 
0.462 0.024 0.002 3 
0.464 -0.036 0.002 3 
0.464 -0.046 0.002 3 
0.463 -0.065 0.002 3 
0.464 -0.076 0.002 3 
0.459 0.092 0.013 3 
0.467 -0.225 0.014 3 
0.468 -0.235 0.014 3 
0.468 -0.255 0.013 3 
0.468 -0.267 0.013 3 
0.469 -0.277 0.013 3 
0.471 -0.305 0.012 3 
0.472 -0.316 0.012 3 
0.458 0.173 0.012 3 
0.458 0.154 0.012 3 
0.46 0.133 0.012 3 
0.459 0.114 0.013 3 
0.461 0.122 0.023 3 
0.459 0.084 0.013 3 
0.459 0.074 0.013 3 
0.46 0.063 0.013 3 
0.46 0.053 0.013 3 
0.459 0.042 0.013 3 
0.459 0.034 0.013 3 
0.46 0.024 0.013 3 
0.46 0.013 0.013 3 
0.46 0.003 0.013 3 
0.46 -0.046 0.013 3 
0.463 -0.025 0.034 3 
0.462 0.093 0.034 3 
0.461 0.082 0.034 3 
0.461 0.074 0.034 3 
0.462 0.064 0.034 3 
0.462 0.053 0.034 3 
0.462 0.032 0.034 3 
0.462 0.024 0.034 3 
0.462 0.014 0.034 3 
0.462 0.003 0.034 3 
0.463 -0.007 0.034 3 
0.464 -0.015 0.034 3 
0.462 0.104 0.034 3 
0.463 -0.036 0.034 3 
0.464 -0.065 0.034 3 
0.464 -0.076 0.034 3 
0.465 -0.081 0.034 3 
0.465 -0.087 0.034 3 
0.465 -0.095 0.034 3 
0.466 -0.106 0.034 3 
0.466 -0.117 0.034 3 
0.46 0.122 0.012 3 
0.466 -0.125 0.034 3 
0.467 -0.137 0.034 3 
0.46 0.292 0.032 3 
0.46 0.223 0.033 3 
0.473 -0.316 0.044 3 
0.474 -0.327 0.043 3 
0.474 -0.338 0.043 3 
0.475 -0.339 0.04 3 
0.455 0.33 0.034 3 
0.456 0.324 0.034 3 
0.459 0.314 0.034 3 
0.465 -0.084 0.036 3 
0.475 -0.346 0.034 3 
0.472 -0.316 0.023 3 
0.467 -0.145 0.034 3 
0.46 0.283 0.032 3 
0.46 0.273 0.032 3 
0.46 0.264 0.032 3 
0.459 0.254 0.032 3 
0.459 0.242 0.033 3 
0.46 0.214 0.033 3 
0.459 0.193 0.033 3 
0.46 0.172 0.033 3 
0.46 0.144 0.033 3 
0.461 0.134 0.033 3 
0.461 0.123 0.033 3 
0.472 -0.326 0.023 3 
0.459 0.272 0.024 3 
0.458 0.262 0.024 3 
0.459 0.254 0.024 3 
0.459 0.242 0.024 3 
0.459 0.234 0.024 3 
0.469 -0.256 0.024 3 
0.469 -0.265 0.024 3 
0.47 -0.278 0.024 3 
0.471 -0.289 0.024 3 
0.472 -0.296 0.024 3 
0.472 -0.306 0.024 3 
0.46 0.292 0.024 3 
0.474 -0.335 0.023 3 
0.475 -0.343 0.023 3 
0.474 -0.345 0.023 3 
0.46 0.203 0.022 3 
0.459 0.182 0.022 3 
0.46 0.172 0.022 3 
0.459 0.163 0.023 3 
0.461 0.013 0.023 3 
0.459 0.152 0.023 3 
0.46 0.144 0.023 3 
0.46 0.133 0.023 3 
0.472 -0.315 0.032 3 
0.466 -0.155 0.034 3 
0.466 -0.186 0.033 3 
0.467 -0.196 0.033 3 
0.467 -0.207 0.033 3 
0.467 -0.216 0.033 3 
0.47 -0.236 0.033 3 
0.469 -0.256 0.033 3 
0.468 -0.265 0.033 3 
0.47 -0.275 0.033 3 
0.47 -0.287 0.033 3 
0.471 -0.295 0.032 3 
0.474 -0.355 0.073 3 
0.474 -0.328 0.032 3 
0.474 -0.335 0.032 3 
0.475 -0.339 0.032 3 
0.464 -0.089 0.031 3 
0.464 -0.097 0.029 3 
0.473 -0.355 0.026 3 
0.456 0.331 0.023 3 
0.456 0.324 0.023 3 
0.459 0.313 0.023 3 
0.46 0.302 0.023 3 
0.464 -0.076 0.103 3 
0.463 0.032 0.103 3 
0.462 0.014 0.102 3 
0.463 0.003 0.103 3 
0.463 -0.006 0.103 3 
0.463 -0.017 0.103 3 
0.463 -0.025 0.103 3 
0.463 -0.036 0.103 3 
0.463 -0.046 0.103 3 
0.464 -0.057 0.103 3 
0.465 -0.065 0.103 3 
0.464 -0.068 0.103 3 
0.468 -0.205 0.052 3 
0.465 -0.079 0.103 3 
0.465 -0.087 0.103 3 
0.459 0.234 0.043 3 
0.466 -0.095 0.104 3 
0.466 -0.117 0.104 3 
0.466 -0.125 0.104 3 
0.466 -0.145 0.104 3 
0.468 -0.156 0.104 3 
0.468 -0.165 0.104 3 
0.468 -0.176 0.104 3 
0.46 0.336 0.102 3 
0.461 0.164 0.103 3 
0.461 0.263 0.104 3 
0.461 0.254 0.104 3 
0.459 0.324 0.082 3 
0.46 0.232 0.103 3 
0.458 0.272 0.013 3 
0.461 0.224 0.103 3 
0.461 0.204 0.103 3 
0.461 0.192 0.103 3 
0.475 -0.325 0.073 3 
0.461 0.184 0.103 3 
0.461 0.173 0.103 3 
0.458 0.33 0.102 3 
0.461 0.153 0.103 3 
0.462 0.143 0.103 3 
0.461 0.134 0.103 3 
0.461 0.123 0.103 3 
0.461 0.112 0.103 3 
0.461 0.104 0.103 3 
0.462 0.083 0.103 3 
0.461 0.072 0.102 3 
0.461 0.064 0.102 3 
0.461 0.053 0.102 3 
0.462 0.043 0.103 3 
0.461 0.192 0.092 3 
0.465 -0.052 0.095 3 
0.458 0.333 0.093 3 
0.46 0.322 0.093 3 
0.461 -0.017 0.013 3 
0.461 0.304 0.093 3 
0.461 0.212 0.092 3 
0.461 0.272 0.093 3 
0.46 0.262 0.093 3 
0.46 0.253 0.093 3 
0.461 0.232 0.093 3 
0.461 0.224 0.092 3 
0.473 -0.33 0.014 3 
0.461 0.184 0.092 3 
0.461 0.172 0.092 3 
0.462 0.064 0.052 3 
0.461 0.164 0.092 3 
0.462 0.154 0.092 3 
0.462 0.143 0.092 3 
0.461 0.134 0.092 3 
0.461 0.123 0.092 3 
0.468 -0.255 0.083 3 
0.461 0.112 0.092 3 
0.461 0.104 0.092 3 
0.469 -0.266 0.103 3 
0.46 0.322 0.102 3 
0.461 0.314 0.102 3 
0.465 -0.063 0.101 3 
0.469 -0.185 0.102 3 
0.469 -0.197 0.102 3 
0.469 -0.206 0.102 3 
0.469 -0.217 0.102 3 
0.47 -0.227 0.103 3 
0.47 -0.236 0.103 3 
0.47 -0.245 0.103 3 
0.47 -0.257 0.103 3 
0.458 0.333 0.082 3 
0.47 -0.276 0.103 3 
0.471 -0.286 0.104 3 
0.472 -0.297 0.104 3 
0.474 -0.305 0.104 3 
0.474 -0.315 0.102 3 
0.464 -0.065 0.074 3 
0.475 -0.326 0.102 3 
0.475 -0.337 0.102 3 
0.477 -0.346 0.103 3 
0.475 -0.357 0.102 3 
0.46 0.214 0.022 3 
0.461 0.153 0.114 3 
0.462 0.143 0.114 3 
0.462 0.134 0.114 3 
0.461 0.123 0.113 3 
0.461 0.102 0.113 3 
0.462 0.094 0.113 3 
0.461 0.083 0.113 3 
0.461 0.072 0.113 3 
0.461 0.053 0.113 3 
0.462 0.043 0.113 3 
0.467 -0.176 0.063 3 
0.461 0.164 0.114 3 
0.461 0.032 0.113 3 
0.462 0.024 0.113 3 
0.472 -0.297 0.064 3 
0.461 -0.057 0.013 3 
0.463 0.014 0.113 3 
0.461 0.262 0.073 3 
0.463 0.003 0.113 3 
0.458 0.162 0.012 3 
0.462 -0.006 0.113 3 
0.463 -0.025 0.113 3 
0.463 -0.036 0.113 3 
0.474 -0.296 0.124 3 
0.469 -0.209 0.124 3 
0.46 0.336 0.122 3 
0.46 0.333 0.122 3 
0.461 0.324 0.122 3 
0.464 -0.057 0.119 3 
0.47 -0.215 0.122 3 
0.469 -0.226 0.122 3 
0.47 -0.248 0.123 3 
0.47 -0.258 0.123 3 
0.472 -0.278 0.124 3 
0.473 -0.285 0.124 3 
0.464 -0.057 0.114 3 
0.475 -0.303 0.122 3 
0.476 -0.308 0.122 3 
0.477 -0.326 0.123 3 
0.477 -0.336 0.123 3 
0.477 -0.347 0.124 3 
0.475 -0.355 0.123 3 
0.46 0.233 0.114 3 
0.46 0.224 0.114 3 
0.462 0.213 0.114 3 
0.461 0.192 0.114 3 
0.461 0.173 0.114 3 
0.475 -0.316 0.113 3 
0.469 -0.215 0.113 3 
0.469 -0.226 0.114 3 
0.47 -0.236 0.114 3 
0.47 -0.245 0.114 3 
0.464 -0.046 0.052 3 
0.47 -0.257 0.114 3 
0.47 -0.267 0.114 3 
0.47 -0.276 0.112 3 
0.473 -0.288 0.113 3 
0.475 -0.303 0.113 3 
0.475 -0.306 0.113 3 
0.469 -0.197 0.113 3 
0.475 -0.327 0.114 3 
0.468 -0.246 0.083 3 
0.475 -0.351 0.114 3 
0.469 -0.247 0.024 3 
0.474 -0.354 0.114 3 
0.474 -0.357 0.114 3 
0.474 -0.305 0.11 3 
0.475 -0.355 0.111 3 
0.461 0.297 0.104 3 
0.461 0.294 0.104 3 
0.461 0.282 0.104 3 
0.461 0.282 0.113 3 
0.464 -0.065 0.114 3 
0.465 -0.076 0.114 3 
0.466 -0.087 0.114 3 
0.465 -0.095 0.114 3 
0.465 -0.106 0.114 3 
0.465 -0.117 0.114 3 
0.465 -0.128 0.114 3 
0.474 -0.354 0.12 3 
0.46 0.336 0.114 3 
0.461 0.334 0.114 3 
0.461 0.314 0.113 3 
0.461 0.093 0.092 3 
0.461 0.273 0.112 3 
0.461 0.263 0.112 3 
0.461 0.254 0.112 3 
0.464 -0.076 0.111 3 
0.466 -0.137 0.112 3 
0.469 -0.186 0.113 3 
0.466 -0.145 0.112 3 
0.467 -0.157 0.112 3 
0.468 -0.165 0.113 3 
0.469 -0.177 0.113 3 
0.461 0.223 0.073 3 
0.474 -0.352 0.079 3 
0.459 0.334 0.074 3 
0.459 0.321 0.074 3 
0.459 0.314 0.074 3 
0.46 0.302 0.074 3 
0.461 0.294 0.074 3 
0.46 0.283 0.074 3 
0.46 0.274 0.074 3 
0.461 0.253 0.073 3 
0.461 0.244 0.073 3 
0.461 0.232 0.073 3 
0.474 -0.355 0.082 3 
0.46 0.214 0.073 3 
0.461 0.203 0.073 3 
0.461 0.192 0.073 3 
0.461 0.184 0.073 3 
0.461 0.172 0.073 3 
0.461 0.164 0.073 3 
0.461 0.153 0.073 3 
0.462 0.142 0.073 3 
0.462 0.123 0.073 3 
0.462 0.112 0.073 3 
0.462 0.104 0.073 3 
0.469 -0.226 0.083 3 
0.461 0.153 0.063 3 
0.466 -0.136 0.082 3 
0.467 -0.145 0.082 3 
0.467 -0.156 0.082 3 
0.464 -0.015 0.044 3 
0.467 -0.167 0.082 3 
0.467 -0.176 0.082 3 
0.468 -0.185 0.083 3 
0.468 -0.196 0.083 3 
0.469 -0.206 0.083 3 
0.469 -0.217 0.083 3 
0.462 0.094 0.073 3 
0.469 -0.235 0.083 3 
0.469 -0.265 0.083 3 
0.458 0.143 0.012 3 
0.471 -0.286 0.084 3 
0.472 -0.297 0.084 3 
0.473 -0.307 0.084 3 
0.473 -0.317 0.084 3 
0.475 -0.335 0.084 3 
0.465 -0.055 0.079 3 
0.465 -0.117 0.079 3 
0.477 -0.348 0.082 3 
0.469 -0.235 0.072 3 
0.467 -0.145 0.074 3 
0.467 -0.156 0.074 3 
0.466 -0.167 0.074 3 
0.467 -0.176 0.074 3 
0.468 -0.185 0.074 3 
0.464 -0.169 0.015 3 
0.468 -0.196 0.074 3 
0.468 -0.205 0.074 3 
0.465 -0.055 0.071 3 
0.468 -0.217 0.072 3 
0.469 -0.226 0.072 3 
0.466 -0.136 0.074 3 
0.469 -0.247 0.072 3 
0.464 -0.105 0.023 3 
0.469 -0.256 0.072 3 
0.469 -0.265 0.072 3 
0.469 -0.275 0.072 3 
0.47 -0.285 0.072 3 
0.472 -0.297 0.072 3 
0.473 -0.316 0.072 3 
0.476 -0.336 0.073 3 
0.477 -0.348 0.073 3 
0.474 -0.352 0.073 3 
0.463 -0.006 0.074 3 
0.462 0.072 0.073 3 
0.462 0.064 0.073 3 
0.463 -0.017 0.074 3 
0.462 0.053 0.073 3 
0.462 0.043 0.073 3 
0.462 0.032 0.073 3 
0.462 0.024 0.073 3 
0.464 -0.057 0.074 3 
0.462 0.014 0.073 3 
0.463 0.003 0.074 3 
0.471 -0.305 0.032 3 
0.465 -0.125 0.082 3 
0.463 -0.025 0.074 3 
0.464 -0.036 0.074 3 
0.464 -0.046 0.074 3 
0.465 -0.052 0.074 3 
0.464 -0.076 0.074 3 
0.465 -0.087 0.074 3 
0.465 -0.095 0.074 3 
0.465 -0.106 0.074 3 
0.465 -0.117 0.074 3 
0.466 -0.125 0.074 3 
0.47 -0.276 0.092 3 
0.467 -0.156 0.093 3 
0.467 -0.167 0.093 3 
0.467 -0.176 0.093 3 
0.469 -0.197 0.094 3 
0.469 -0.206 0.094 3 
0.469 -0.217 0.094 3 
0.47 -0.227 0.094 3 
0.47 -0.236 0.094 3 
0.469 -0.256 0.094 3 
0.459 0.314 0.054 3 
0.469 -0.265 0.092 3 
0.459 0.194 0.022 3 
0.471 -0.296 0.092 3 
0.473 -0.307 0.093 3 
0.475 -0.319 0.093 3 
0.475 -0.326 0.093 3 
0.474 -0.336 0.093 3 
0.476 -0.34 0.093 3 
0.478 -0.349 0.094 3 
0.475 -0.357 0.094 3 
0.474 -0.318 0.09 3 
0.474 -0.332 0.09 3 
0.474 -0.352 0.09 3 
0.463 -0.025 0.092 3 
0.461 0.083 0.092 3 
0.461 0.072 0.092 3 
0.461 0.064 0.092 3 
0.462 0.054 0.092 3 
0.463 0.043 0.092 3 
0.463 0.032 0.092 3 
0.461 0.104 0.052 3 
0.463 0.024 0.092 3 
0.463 0.014 0.092 3 
0.462 0.003 0.092 3 
0.463 -0.017 0.092 3 
0.474 -0.356 0.091 3 
0.464 -0.046 0.092 3 
0.464 -0.057 0.092 3 
0.464 -0.065 0.092 3 
0.464 -0.076 0.092 3 
0.463 -0.046 0.034 3 
0.465 -0.081 0.093 3 
0.465 -0.087 0.093 3 
0.466 -0.095 0.093 3 
0.465 -0.106 0.093 3 
0.465 -0.117 0.093 3 
0.465 -0.125 0.093 3 
0.464 -0.111 0.085 3 
0.463 0.003 0.084 3 
0.463 -0.006 0.084 3 
0.462 -0.017 0.084 3 
0.463 -0.025 0.084 3 
0.463 0.032 0.002 3 
0.463 -0.036 0.084 3 
0.464 -0.046 0.084 3 
0.461 0.212 0.063 3 
0.464 -0.057 0.084 3 
0.464 -0.065 0.084 3 
0.464 -0.076 0.084 3 
0.462 0.014 0.084 3 
0.464 -0.116 0.085 3 
0.46 0.312 0.082 3 
0.461 0.294 0.082 3 
0.46 0.283 0.082 3 
0.474 -0.325 0.084 3 
0.46 0.274 0.082 3 
0.465 -0.087 0.082 3 
0.465 -0.095 0.082 3 
0.465 -0.106 0.082 3 
0.462 -0.017 0.023 3 
0.464 -0.116 0.082 3 
0.462 0.134 0.084 3 
0.46 0.262 0.084 3 
0.46 0.252 0.084 3 
0.461 0.244 0.084 3 
0.461 0.232 0.084 3 
0.461 0.224 0.084 3 
0.461 0.192 0.084 3 
0.461 0.184 0.084 3 
0.461 0.172 0.084 3 
0.459 0.331 0.054 3 
0.461 0.164 0.084 3 
0.461 0.153 0.084 3 
0.469 -0.197 0.124 3 
0.462 0.123 0.084 3 
0.462 0.112 0.084 3 
0.461 0.093 0.084 3 
0.462 0.083 0.084 3 
0.461 0.072 0.084 3 
0.461 0.064 0.084 3 
0.462 0.053 0.084 3 
0.463 0.043 0.084 3 
0.463 0.032 0.084 3 
0.463 0.024 0.084 3 
0.31 0.002 0.019 7 
0.299 0.002 0.02 7 
0.299 -0.015 0.02 7 
0.299 -0.005 0.02 7 
0.306 -0.005 0.02 7 
