# .PCD v0.7 - Point Cloud Data file
FIELDS x y z intensity
SIZE 4 4 4 4
TYPE F F F F
COUNT 1 1 1 1
WIDTH 2166
HEIGHT 1
VIEWPOINT 0 0 0 1 0 0 0
POINTS 2166
DATA ascii
0.283 -0.006 0.021 0 
0.283 0.002 0.021 0 
0.283 -0.015 0.021 0 
0.364 -0.184 -0.02 1 
0.363 -0.156 -0.018 1 
0.363 -0.135 -0.017 1 
0.361 -0.095 -0.016 1 
0.363 -0.065 -0.016 1 
0.36 -0.058 -0.015 1 
0.444 -0.044 -0.046 1 
0.424 -0.038 -0.038 1 
0.28 -0.015 0.014 1 
0.362 0.023 -0.016 1 
0.361 0.033 -0.015 1 
0.359 0.043 -0.015 1 
0.352 0.133 -0.014 1 
0.351 0.164 -0.015 1 
0.352 0.193 -0.017 1 
0.373 -0.215 -0.022 1 
0.364 -0.111 -0.015 1 
0.364 -0.087 -0.015 1 
0.364 -0.083 -0.015 1 
0.365 -0.062 -0.015 1 
0.363 -0.056 -0.014 1 
0.364 -0.047 -0.014 1 
0.364 0.054 -0.015 1 
0.363 0.064 -0.015 1 
0.364 0.072 -0.015 1 
0.364 0.094 -0.016 1 
0.361 0.105 -0.015 1 
0.354 0.173 -0.015 1 
0.354 0.204 -0.017 1 
0.353 0.214 -0.017 1 
0.374 -0.24 -0.022 1 
0.373 -0.196 -0.019 1 
0.372 -0.165 -0.018 1 
0.372 -0.155 -0.017 1 
0.371 -0.115 -0.016 1 
0.37 -0.095 -0.015 1 
0.37 -0.069 -0.015 1 
0.368 -0.053 -0.014 1 
0.373 -0.038 -0.016 1 
0.37 0.013 -0.015 1 
0.37 0.024 -0.015 1 
0.369 0.053 -0.015 1 
0.367 0.067 -0.014 1 
0.362 0.113 -0.014 1 
0.364 0.122 -0.014 1 
0.363 0.133 -0.014 1 
0.363 0.134 -0.015 1 
0.364 0.141 -0.015 1 
0.38 -0.235 -0.021 1 
0.374 -0.175 -0.017 1 
0.374 -0.14 -0.016 1 
0.374 -0.089 -0.015 1 
0.374 -0.057 -0.014 1 
0.418 -0.037 -0.029 1 
0.374 0.007 -0.014 1 
0.374 0.043 -0.015 1 
0.373 0.062 -0.014 1 
0.373 0.064 -0.015 1 
0.373 0.081 -0.015 1 
0.371 0.084 -0.014 1 
0.371 0.091 -0.014 1 
0.372 0.094 -0.015 1 
0.374 0.104 -0.016 1 
0.371 0.108 -0.015 1 
0.369 0.133 -0.015 1 
0.365 0.166 -0.015 1 
0.364 0.184 -0.015 1 
0.364 0.192 -0.016 1 
0.364 0.214 -0.017 1 
0.362 0.224 -0.017 1 
0.362 0.226 -0.017 1 
0.383 -0.226 -0.019 1 
0.383 -0.205 -0.019 1 
0.382 -0.156 -0.017 1 
0.381 -0.135 -0.016 1 
0.382 -0.125 -0.016 1 
0.383 -0.115 -0.016 1 
0.383 -0.105 -0.016 1 
0.379 -0.097 -0.015 1 
0.38 -0.086 -0.015 1 
0.382 -0.075 -0.015 1 
0.379 -0.058 -0.014 1 
0.382 -0.055 -0.015 1 
0.381 -0.047 -0.015 1 
0.379 -0.045 -0.014 1 
0.38 0.013 -0.015 1 
0.381 0.023 -0.015 1 
0.38 0.037 -0.015 1 
0.379 0.06 -0.015 1 
0.378 0.083 -0.015 1 
0.374 0.114 -0.014 1 
0.373 0.133 -0.014 1 
0.372 0.151 -0.014 1 
0.372 0.163 -0.015 1 
0.368 0.183 -0.015 1 
0.37 0.202 -0.016 1 
0.392 -0.245 -0.021 1 
0.388 -0.236 -0.019 1 
0.392 -0.225 -0.02 1 
0.392 -0.218 -0.02 1 
0.383 -0.095 -0.014 1 
0.387 -0.085 -0.015 1 
0.384 -0.066 -0.014 1 
0.383 -0.042 -0.013 1 
0.384 0.014 -0.014 1 
0.384 0.025 -0.014 1 
0.385 0.051 -0.015 1 
0.385 0.057 -0.015 1 
0.383 0.063 -0.014 1 
0.384 0.073 -0.014 1 
0.384 0.075 -0.014 1 
0.385 0.083 -0.015 1 
0.384 0.087 -0.015 1 
0.382 0.094 -0.014 1 
0.382 0.096 -0.014 1 
0.383 0.103 -0.015 1 
0.379 0.133 -0.014 1 
0.372 0.174 -0.013 1 
0.376 0.202 -0.016 1 
0.358 0.05 -0.014 1 
0.394 -0.258 -0.02 1 
0.394 -0.206 -0.018 1 
0.392 -0.195 -0.017 1 
0.389 -0.185 -0.016 1 
0.393 -0.175 -0.017 1 
0.394 -0.165 -0.017 1 
0.392 -0.135 -0.015 1 
0.393 -0.125 -0.015 1 
0.394 -0.115 -0.016 1 
0.394 -0.106 -0.015 1 
0.394 -0.104 -0.015 1 
0.391 -0.086 -0.014 1 
0.393 -0.076 -0.015 1 
0.393 -0.074 -0.015 1 
0.391 -0.066 -0.014 1 
0.392 -0.064 -0.014 1 
0.457 -0.048 -0.035 1 
0.39 0.054 -0.014 1 
0.383 0.144 -0.014 1 
0.383 0.161 -0.014 1 
0.384 0.163 -0.015 1 
0.383 0.17 -0.015 1 
0.378 0.183 -0.014 1 
0.376 0.224 -0.015 1 
0.403 -0.246 -0.02 1 
0.404 -0.239 -0.02 1 
0.382 -0.216 -0.019 1 
0.4 -0.225 -0.018 1 
0.397 -0.136 -0.015 1 
0.397 -0.125 -0.015 1 
0.398 -0.117 -0.015 1 
0.399 -0.106 -0.015 1 
0.398 -0.104 -0.015 1 
0.397 -0.044 -0.014 1 
0.394 0.033 -0.013 1 
0.394 0.039 -0.013 1 
0.394 0.064 -0.013 1 
0.391 0.094 -0.013 1 
0.391 0.104 -0.013 1 
0.393 0.114 -0.014 1 
0.39 0.123 -0.013 1 
0.389 0.172 -0.015 1 
0.384 0.207 -0.014 1 
0.373 0.153 -0.015 1 
0.381 0.23 -0.015 1 
0.379 0.23 -0.014 1 
0.381 0.242 -0.015 1 
0.382 0.248 -0.016 1 
0.404 -0.277 -0.019 1 
0.402 -0.196 -0.016 1 
0.402 -0.187 -0.015 1 
0.404 -0.176 -0.016 1 
0.404 -0.167 -0.015 1 
0.402 -0.157 -0.015 1 
0.402 -0.154 -0.015 1 
0.403 -0.115 -0.014 1 
0.402 -0.095 -0.014 1 
0.403 -0.086 -0.014 1 
0.402 -0.075 -0.013 1 
0.403 -0.065 -0.014 1 
0.404 -0.059 -0.014 1 
0.404 -0.052 -0.014 1 
0.454 -0.043 -0.029 1 
0.4 0.023 -0.013 1 
0.399 0.074 -0.013 1 
0.393 0.144 -0.013 1 
0.394 0.153 -0.013 1 
0.393 0.184 -0.014 1 
0.381 0.192 -0.011 1 
0.387 0.243 -0.015 1 
0.402 -0.269 -0.016 1 
0.404 -0.215 -0.015 1 
0.403 -0.211 -0.014 1 
0.405 -0.206 -0.015 1 
0.409 -0.175 -0.015 1 
0.409 -0.166 -0.015 1 
0.404 -0.135 -0.013 1 
0.303 -0.015 0.017 1 
0.304 -0.004 0.017 1 
0.311 0.002 0.014 1 
0.372 0.191 -0.014 1 
0.404 0.034 -0.012 1 
0.404 0.039 -0.012 1 
0.404 0.054 -0.012 1 
0.403 0.083 -0.012 1 
0.403 0.114 -0.013 1 
0.372 -0.106 -0.016 1 
0.4 0.124 -0.012 1 
0.394 0.209 -0.013 1 
0.398 0.222 -0.015 1 
0.397 0.231 -0.015 1 
0.395 0.247 -0.015 1 
0.393 0.253 -0.015 1 
0.391 0.253 -0.014 1 
0.392 0.259 -0.015 1 
0.414 -0.286 -0.018 1 
0.412 -0.266 -0.016 1 
0.412 -0.255 -0.016 1 
0.415 -0.247 -0.016 1 
0.413 -0.235 -0.015 1 
0.414 -0.233 -0.015 1 
0.416 -0.227 -0.016 1 
0.415 -0.221 -0.015 1 
0.413 -0.218 -0.015 1 
0.409 -0.136 -0.012 1 
0.412 -0.117 -0.012 1 
0.411 -0.107 -0.012 1 
0.414 -0.086 -0.013 1 
0.424 -0.045 -0.015 1 
0.458 -0.046 -0.025 1 
0.315 0.001 0.015 1 
0.371 0.033 -0.015 1 
0.412 0.013 -0.012 1 
0.412 0.024 -0.012 1 
0.411 0.033 -0.012 1 
0.411 0.053 -0.012 1 
0.406 0.124 -0.012 1 
0.403 0.134 -0.011 1 
0.394 0.023 -0.013 1 
0.404 0.144 -0.011 1 
0.4 0.164 -0.011 1 
0.403 0.183 -0.012 1 
0.394 0.201 -0.011 1 
0.394 0.01 -0.013 1 
0.402 0.233 -0.014 1 
0.395 0.242 -0.012 1 
0.393 0.258 -0.013 1 
0.417 -0.277 -0.015 1 
0.394 0.074 -0.014 1 
0.414 -0.268 -0.014 1 
0.414 -0.257 -0.014 1 
0.414 -0.254 -0.014 1 
0.417 -0.236 -0.014 1 
0.42 -0.236 -0.015 1 
0.414 -0.201 -0.012 1 
0.414 -0.186 -0.012 1 
0.414 -0.181 -0.012 1 
0.419 -0.065 -0.011 1 
0.384 -0.186 -0.016 1 
0.392 -0.146 -0.016 1 
0.401 0.104 -0.012 1 
0.421 -0.044 -0.012 1 
0.454 -0.04 -0.021 1 
0.313 -0.015 0.017 1 
0.353 0.135 -0.015 1 
0.314 -0.014 0.016 1 
0.324 0 0.014 1 
0.326 0.001 0.013 1 
0.414 0.094 -0.011 1 
0.414 0.11 -0.011 1 
0.409 0.133 -0.01 1 
0.407 0.162 -0.011 1 
0.404 0.203 -0.011 1 
0.404 0.213 -0.011 1 
0.404 0.223 -0.012 1 
0.402 0.254 -0.012 1 
0.399 0.264 -0.012 1 
0.423 -0.296 -0.015 1 
0.422 -0.288 -0.015 1 
0.423 -0.25 -0.013 1 
0.393 0.173 -0.014 1 
0.422 -0.225 -0.012 1 
0.417 -0.216 -0.011 1 
0.421 -0.196 -0.012 1 
0.421 -0.186 -0.011 1 
0.421 -0.176 -0.011 1 
0.422 -0.165 -0.011 1 
0.423 -0.156 -0.011 1 
0.424 -0.146 -0.011 1 
0.424 -0.137 -0.011 1 
0.423 -0.127 -0.011 1 
0.424 -0.115 -0.011 1 
0.372 0.213 -0.015 1 
0.423 -0.105 -0.011 1 
0.423 -0.096 -0.011 1 
0.423 -0.086 -0.01 1 
0.424 -0.08 -0.011 1 
0.424 -0.056 -0.01 1 
0.424 -0.054 -0.01 1 
0.456 -0.045 -0.019 1 
0.34 -0.018 0.011 1 
0.334 -0.016 0.012 1 
0.343 -0.013 0.01 1 
0.352 -0.006 0.008 1 
0.391 0.004 -0.002 1 
0.424 0.012 -0.011 1 
0.382 0.214 -0.016 1 
0.424 0.033 -0.011 1 
0.422 0.062 -0.01 1 
0.42 0.094 -0.01 1 
0.414 0.143 -0.01 1 
0.414 0.145 -0.01 1 
0.361 0.164 -0.015 1 
0.412 0.173 -0.01 1 
0.38 0.033 -0.015 1 
0.411 0.184 -0.01 1 
0.402 0.27 -0.011 1 
0.424 -0.297 -0.013 1 
0.423 -0.286 -0.012 1 
0.421 -0.275 -0.011 1 
0.421 -0.267 -0.011 1 
0.424 -0.259 -0.012 1 
0.427 -0.126 -0.01 1 
0.433 -0.049 -0.01 1 
0.424 0.074 -0.009 1 
0.374 -0.206 -0.02 1 
0.424 0.114 -0.009 1 
0.421 0.144 -0.009 1 
0.422 0.154 -0.01 1 
0.421 0.164 -0.01 1 
0.411 0.194 -0.008 1 
0.414 0.234 -0.01 1 
0.413 0.252 -0.01 1 
0.384 0.123 -0.013 1 
0.411 0.278 -0.011 1 
0.434 -0.299 -0.013 1 
0.427 -0.276 -0.01 1 
0.429 -0.267 -0.01 1 
0.393 0.242 -0.014 1 
0.43 -0.256 -0.01 1 
0.432 -0.215 -0.01 1 
0.433 -0.208 -0.01 1 
0.381 -0.072 -0.015 1 
0.431 -0.196 -0.009 1 
0.434 -0.175 -0.01 1 
0.432 -0.156 -0.009 1 
0.433 -0.146 -0.009 1 
0.434 -0.142 -0.009 1 
0.434 -0.117 -0.009 1 
0.433 -0.107 -0.008 1 
0.434 -0.095 -0.009 1 
0.434 -0.085 -0.008 1 
0.434 -0.08 -0.008 1 
0.434 -0.066 -0.008 1 
0.434 -0.061 -0.008 1 
0.433 -0.025 -0.008 1 
0.433 -0.016 -0.008 1 
0.434 -0.008 -0.008 1 
0.434 0.003 -0.009 1 
0.434 0.024 -0.009 1 
0.434 0.034 -0.009 1 
0.433 0.043 -0.008 1 
0.431 0.052 -0.008 1 
0.43 0.064 -0.008 1 
0.43 0.074 -0.008 1 
0.43 0.083 -0.008 1 
0.431 0.093 -0.008 1 
0.423 0.173 -0.008 1 
0.422 0.182 -0.008 1 
0.422 0.192 -0.008 1 
0.419 0.213 -0.008 1 
0.434 -0.235 -0.008 1 
0.434 -0.228 -0.008 1 
0.434 0.114 -0.007 1 
0.283 0.002 0.014 1 
0.434 0.124 -0.007 1 
0.433 0.133 -0.007 1 
0.432 0.143 -0.007 1 
0.432 0.153 -0.007 1 
0.423 0.254 -0.008 1 
0.422 0.281 -0.009 1 
0.424 0.295 -0.01 1 
0.433 -0.31 -0.008 1 
0.441 -0.255 -0.008 1 
0.442 -0.175 -0.006 1 
0.441 -0.156 -0.006 1 
0.444 -0.137 -0.006 1 
0.441 -0.115 -0.005 1 
0.412 -0.096 -0.012 1 
0.441 -0.095 -0.005 1 
0.442 -0.075 -0.005 1 
0.442 -0.055 -0.005 1 
0.404 0.06 -0.012 1 
0.442 -0.036 -0.006 1 
0.442 0.003 -0.006 1 
0.441 0.022 -0.005 1 
0.44 0.044 -0.005 1 
0.439 0.084 -0.005 1 
0.44 0.094 -0.006 1 
0.438 0.103 -0.005 1 
0.438 0.113 -0.005 1 
0.436 0.132 -0.005 1 
0.436 0.142 -0.005 1 
0.436 0.152 -0.006 1 
0.433 0.164 -0.005 1 
0.432 0.184 -0.006 1 
0.434 0.193 -0.006 1 
0.433 0.203 -0.006 1 
0.433 0.214 -0.006 1 
0.431 0.223 -0.006 1 
0.423 0.294 -0.007 1 
0.413 0.103 -0.011 1 
0.442 -0.242 -0.005 1 
0.446 -0.24 -0.006 1 
0.444 -0.216 -0.005 1 
0.442 -0.201 -0.004 1 
0.444 -0.197 -0.005 1 
0.445 -0.195 -0.005 1 
0.445 -0.177 -0.005 1 
0.444 -0.152 -0.004 1 
0.444 -0.061 -0.003 1 
0.444 -0.036 -0.003 1 
0.444 -0.016 -0.003 1 
0.444 -0.006 -0.003 1 
0.444 0 -0.003 1 
0.435 0.221 -0.005 1 
0.434 0.225 -0.004 1 
0.432 0.254 -0.005 1 
0.432 0.262 -0.005 1 
0.432 0.274 -0.005 1 
0.43 0.283 -0.005 1 
0.428 0.293 -0.005 1 
0.411 0.272 -0.011 1 
0.45 -0.316 -0.006 1 
0.434 0.222 -0.004 1 
0.449 -0.305 -0.006 1 
0.448 -0.295 -0.005 1 
0.45 -0.285 -0.005 1 
0.453 -0.246 -0.005 1 
0.443 0.032 -0.001 1 
0.373 -0.066 -0.014 1 
0.443 0.082 -0.001 1 
0.444 0.103 -0.002 1 
0.432 0.291 -0.004 1 
0.434 0.3 -0.004 1 
0.435 0.307 -0.005 1 
0.442 -0.32 -0.002 1 
0.454 -0.317 -0.004 1 
0.444 0.043 0 1 
0.362 0.104 -0.015 1 
0.373 0.123 -0.014 1 
0.444 0.123 0 1 
0.443 0.133 0 1 
0.449 -0.085 0.002 1 
0.448 -0.077 0.002 1 
0.448 -0.067 0.002 1 
0.449 -0.057 0.002 1 
0.456 -0.05 0.001 1 
0.446 -0.046 0.003 1 
0.444 0.062 0.003 1 
0.444 0.07 0.003 1 
0.445 0.073 0.002 1 
0.446 0.093 0.002 1 
0.444 0.008 -0.003 1 
0.446 0.104 0.002 1 
0.445 0.113 0.002 1 
0.445 0.124 0.002 1 
0.445 0.134 0.002 1 
0.444 0.144 0.002 1 
0.455 -0.335 0 1 
0.455 -0.286 0.001 1 
0.409 -0.075 -0.013 1 
0.455 -0.28 0.001 1 
0.454 -0.255 0.002 1 
0.453 -0.248 0.002 1 
0.456 -0.245 0.002 1 
0.364 0.169 -0.015 1 
0.45 -0.215 0.003 1 
0.38 0.113 -0.014 1 
0.45 -0.177 0.004 1 
0.448 -0.136 0.004 1 
0.448 -0.133 0.004 1 
0.445 0.096 0.005 1 
0.384 -0.089 -0.014 1 
0.443 0.154 0.004 1 
0.443 0.162 0.004 1 
0.442 0.172 0.004 1 
0.443 0.183 0.004 1 
0.443 0.194 0.004 1 
0.443 0.202 0.003 1 
0.443 0.213 0.003 1 
0.442 0.234 0.003 1 
0.442 0.243 0.003 1 
0.443 0.252 0.002 1 
0.443 0.261 0.002 1 
0.443 0.27 0.002 1 
0.445 0.275 0.001 1 
0.444 0.317 0 1 
0.453 -0.329 0.003 1 
0.456 -0.326 0.003 1 
0.457 -0.317 0.003 1 
0.454 -0.298 0.004 1 
0.455 -0.295 0.004 1 
0.453 -0.266 0.002 1 
0.453 -0.287 0.004 1 
0.434 0.282 -0.004 1 
0.442 0.284 0.004 1 
0.443 0.313 0.003 1 
0.445 0.318 0.003 1 
0.439 0.054 -0.005 1 
0.444 -0.026 -0.003 1 
0.44 0.032 -0.005 1 
0.442 0.013 -0.006 1 
0.441 -0.006 -0.005 1 
0.421 0.053 -0.01 1 
0.441 -0.026 -0.005 1 
0.443 -0.046 -0.006 1 
0.373 0.183 -0.014 1 
0.441 -0.065 -0.005 1 
0.414 0.242 -0.01 1 
0.449 -0.195 0.004 1 
0.442 -0.126 -0.006 1 
0.382 0.196 -0.011 1 
0.394 0.164 -0.013 1 
0.393 0.084 -0.013 1 
0.442 -0.146 -0.006 1 
0.441 -0.166 -0.006 1 
0.442 -0.185 -0.007 1 
0.444 -0.206 -0.005 1 
0.442 -0.226 -0.005 1 
0.442 -0.265 -0.008 1 
0.442 -0.286 -0.009 1 
0.444 -0.246 -0.006 1 
0.439 0.064 -0.005 1 
0.441 -0.306 -0.009 1 
0.404 -0.133 -0.013 1 
0.384 0.053 -0.014 1 
0.414 0.264 -0.011 1 
0.359 -0.115 -0.015 1 
0.436 0.211 -0.005 1 
0.442 -0.277 -0.009 1 
0.414 0.219 -0.009 1 
0.456 -0.306 0.003 1 
0.414 -0.206 -0.012 1 
0.436 -0.301 -0.019 1 
0.371 0.144 -0.014 1 
0.423 0.081 -0.009 1 
0.443 -0.086 -0.006 1 
0.389 0.193 -0.011 1 
0.414 0.074 -0.011 1 
0.414 -0.065 -0.012 1 
0.454 -0.05 -0.026 1 
0.364 -0.04 -0.016 1 
0.404 0.011 -0.012 1 
0.362 -0.146 -0.017 1 
0.369 0.231 -0.015 1 
0.444 -0.041 -0.031 1 
0.354 0.121 -0.015 1 
0.403 -0.146 -0.013 1 
0.424 0.222 -0.007 1 
0.374 -0.126 -0.017 1 
0.364 -0.169 -0.019 1 
0.353 0.216 -0.017 1 
0.445 -0.185 -0.005 1 
0.448 -0.146 0.004 1 
0.281 -0.005 0.014 1 
0.453 -0.045 -0.047 1 
0.4 0.093 -0.011 1 
0.423 0.243 -0.008 1 
0.443 -0.165 -0.004 1 
0.39 -0.096 -0.014 1 
0.368 0.144 -0.015 1 
0.414 0.214 -0.009 1 
0.373 0.054 -0.014 1 
0.403 -0.257 -0.018 1 
0.401 -0.205 -0.016 1 
0.378 -0.247 -0.015 1 
0.444 0.113 0 1 
0.43 0.298 -0.006 1 
0.437 0.203 -0.005 1 
0.452 -0.256 -0.005 1 
0.414 -0.057 -0.012 1 
0.417 -0.274 -0.015 1 
0.394 -0.156 -0.016 1 
0.374 0.237 -0.015 1 
0.413 0.082 -0.011 1 
0.364 0.124 -0.015 1 
0.434 0.233 -0.005 1 
0.364 0.203 -0.016 1 
0.443 -0.315 -0.007 1 
0.437 0.123 -0.005 1 
0.424 0.124 -0.009 1 
0.454 -0.307 -0.004 1 
0.374 -0.226 -0.023 1 
0.383 0.105 -0.015 1 
0.373 -0.146 -0.017 1 
0.411 -0.165 -0.013 1 
0.42 0.203 -0.008 1 
0.409 -0.164 -0.015 1 
0.411 0.064 -0.012 1 
0.391 0.22 -0.015 1 
0.398 0.193 -0.011 1 
0.393 -0.05 -0.015 1 
0.382 -0.198 -0.018 1 
0.411 0.044 -0.012 1 
0.451 -0.227 0.003 1 
0.454 -0.045 -0.044 1 
0.441 0.292 0.004 1 
0.395 0.212 -0.016 1 
0.444 -0.297 -0.01 1 
0.384 -0.175 -0.016 1 
0.452 -0.277 0.004 1 
0.374 0.073 -0.015 1 
0.304 -0.005 0.017 1 
0.414 -0.283 -0.017 1 
0.407 -0.186 -0.015 1 
0.406 -0.195 -0.015 1 
0.414 -0.054 -0.012 1 
0.443 0.224 0.003 1 
0.435 0.158 -0.006 1 
0.424 0.103 -0.009 1 
0.394 0.214 -0.015 1 
0.373 -0.075 -0.016 1 
0.384 0.043 -0.014 1 
0.403 0.154 -0.011 1 
0.45 -0.207 0.003 1 
0.323 -0.005 0.014 1 
0.388 0.181 -0.015 1 
0.332 -0.014 0.013 1 
0.379 0.054 -0.015 1 
0.372 -0.045 -0.015 1 
0.364 0.145 -0.015 1 
0.31 -0.02 0.004 1 
0.354 0.183 -0.016 1 
0.454 -0.048 -0.021 1 
0.423 0.273 -0.009 1 
0.456 -0.038 -0.019 1 
0.407 0.203 -0.007 1 
0.352 0.002 0.008 1 
0.381 -0.166 -0.017 1 
0.443 -0.157 -0.004 1 
0.382 -0.148 -0.017 1 
0.424 0.023 -0.011 1 
0.392 -0.045 -0.014 1 
0.412 -0.126 -0.012 1 
0.362 0.014 -0.016 1 
0.362 0.084 -0.015 1 
0.403 -0.106 -0.014 1 
0.394 -0.056 -0.015 1 
0.393 0.133 -0.012 1 
0.429 -0.287 -0.011 1 
0.388 0.234 -0.015 1 
0.451 -0.236 0.003 1 
0.433 -0.185 -0.01 1 
0.444 0.093 -0.002 1 
0.432 0.243 -0.005 1 
0.363 -0.127 -0.017 1 
0.369 0.224 -0.015 1 
0.414 -0.249 -0.016 1 
0.353 0.124 -0.014 1 
0.43 0.103 -0.008 1 
0.314 0 0.015 1 
0.423 0.133 -0.009 1 
0.449 -0.274 -0.005 1 
0.439 0.074 -0.005 1 
0.446 0.083 0.002 1 
0.442 -0.105 -0.006 1 
0.38 0.074 -0.015 1 
0.414 -0.155 -0.011 1 
0.373 0.194 -0.015 1 
0.362 -0.045 -0.015 1 
0.45 -0.185 0.004 1 
0.401 0.172 -0.012 1 
0.414 -0.152 -0.011 1 
0.441 -0.016 -0.005 1 
0.374 -0.186 -0.017 1 
0.432 0.174 -0.005 1 
0.42 -0.206 -0.012 1 
0.444 0.023 -0.001 1 
0.424 0.233 -0.007 1 
0.422 0.044 -0.01 1 
0.424 0.263 -0.008 1 
0.383 0.154 -0.014 1 
0.445 -0.209 -0.005 1 
0.363 0.173 -0.014 1 
0.459 -0.043 -0.025 1 
0.433 -0.167 -0.009 1 
0.448 -0.276 -0.005 1 
0.392 -0.043 -0.014 1 
0.313 -0.019 0.013 1 
0.32 -0.009 0.015 1 
0.433 -0.245 -0.011 1 
0.442 0.302 0.004 1 
0.371 0.164 -0.014 1 
0.381 0.173 -0.014 1 
0.445 0.139 0.002 1 
0.434 0.012 -0.009 1 
0.443 0.315 0.143 3 
0.454 -0.247 0.141 3 
0.444 0.313 0.143 3 
0.444 0.162 0.062 3 
0.446 0.312 0.143 3 
0.446 0.302 0.143 3 
0.445 0.292 0.142 3 
0.445 0.283 0.142 3 
0.445 0.253 0.141 3 
0.444 0.263 0.112 3 
0.446 -0.016 0.103 3 
0.444 0.232 0.14 3 
0.453 -0.207 0.142 3 
0.453 -0.215 0.142 3 
0.454 -0.227 0.143 3 
0.455 -0.245 0.144 3 
0.456 -0.255 0.144 3 
0.444 0.291 0.139 3 
0.444 0.282 0.139 3 
0.444 0.258 0.138 3 
0.456 -0.285 0.123 3 
0.445 0.205 0.137 3 
0.444 0.252 0.143 3 
0.45 -0.116 0.142 3 
0.442 0.317 0.134 3 
0.444 0.244 0.143 3 
0.445 0.242 0.143 3 
0.446 0.234 0.144 3 
0.444 0.218 0.143 3 
0.444 0.213 0.142 3 
0.444 0.204 0.142 3 
0.445 0.194 0.142 3 
0.453 -0.266 0.074 3 
0.444 0.166 0.141 3 
0.45 -0.106 0.142 3 
0.445 0.321 0.144 3 
0.451 -0.127 0.143 3 
0.451 -0.135 0.143 3 
0.451 -0.146 0.143 3 
0.444 0.272 0.104 3 
0.451 -0.157 0.143 3 
0.451 -0.165 0.144 3 
0.451 -0.176 0.144 3 
0.445 0.214 0.083 3 
0.452 -0.187 0.144 3 
0.452 -0.198 0.144 3 
0.45 -0.096 0.134 3 
0.447 -0.006 0.133 3 
0.447 -0.016 0.133 3 
0.447 -0.026 0.133 3 
0.445 0.168 0.057 3 
0.448 -0.036 0.133 3 
0.447 -0.046 0.133 3 
0.448 -0.057 0.134 3 
0.448 -0.067 0.134 3 
0.449 -0.077 0.134 3 
0.454 -0.334 0.094 3 
0.449 -0.085 0.134 3 
0.446 0.003 0.133 3 
0.455 -0.271 0.104 3 
0.449 -0.106 0.134 3 
0.449 -0.116 0.134 3 
0.46 -0.305 0.142 3 
0.445 0.013 0.023 3 
0.46 -0.315 0.142 3 
0.446 0.003 0.103 3 
0.462 -0.327 0.143 3 
0.463 -0.335 0.144 3 
0.45 -0.075 0.152 3 
0.446 0.122 0.133 3 
0.457 -0.265 0.142 3 
0.458 -0.275 0.143 3 
0.458 -0.287 0.143 3 
0.444 0.173 0.072 3 
0.46 -0.296 0.144 3 
0.446 0.194 0.134 3 
0.446 0.183 0.134 3 
0.445 0.164 0.134 3 
0.445 0.153 0.134 3 
0.444 0.145 0.133 3 
0.445 0.143 0.133 3 
0.446 0.023 0.103 3 
0.445 0.119 0.093 3 
0.446 0.112 0.133 3 
0.446 0.094 0.133 3 
0.446 0.084 0.133 3 
0.446 0.074 0.133 3 
0.446 0.063 0.133 3 
0.446 0.053 0.133 3 
0.445 0.043 0.133 3 
0.446 0.033 0.133 3 
0.445 0.023 0.133 3 
0.455 -0.214 0.154 3 
0.445 0.3 0.118 3 
0.446 0.294 0.154 3 
0.446 0.281 0.153 3 
0.446 0.272 0.153 3 
0.446 0.263 0.152 3 
0.444 0.216 0.15 3 
0.444 0.207 0.134 3 
0.445 0.203 0.15 3 
0.452 -0.176 0.152 3 
0.453 -0.196 0.153 3 
0.453 -0.205 0.153 3 
0.446 0.303 0.154 3 
0.455 -0.217 0.154 3 
0.444 0.254 0.094 3 
0.455 -0.225 0.154 3 
0.444 0.244 0.148 3 
0.444 0.207 0.148 3 
0.445 0.185 0.147 3 
0.444 0.203 0.124 3 
0.454 -0.216 0.151 3 
0.456 -0.238 0.152 3 
0.455 -0.246 0.152 3 
0.451 -0.157 0.154 3 
0.45 -0.166 0.112 3 
0.449 -0.085 0.152 3 
0.45 -0.096 0.153 3 
0.445 0.083 0.103 3 
0.45 -0.106 0.153 3 
0.444 0.272 0.131 3 
0.451 -0.117 0.153 3 
0.452 -0.125 0.154 3 
0.451 -0.135 0.153 3 
0.451 -0.146 0.154 3 
0.456 -0.296 0.033 3 
0.452 -0.245 0.042 3 
0.451 -0.165 0.154 3 
0.448 -0.115 0.022 3 
0.461 -0.317 0.162 3 
0.46 -0.326 0.163 3 
0.459 -0.335 0.163 3 
0.453 -0.335 0.161 3 
0.444 0.32 0.154 3 
0.445 0.318 0.154 3 
0.445 0.013 0.082 3 
0.446 0.313 0.154 3 
0.459 -0.326 0.114 3 
0.446 0.003 0.143 3 
0.445 0.264 0.133 3 
0.447 -0.016 0.143 3 
0.448 -0.026 0.143 3 
0.448 -0.036 0.144 3 
0.444 0.204 0.134 3 
0.449 -0.047 0.144 3 
0.449 -0.057 0.144 3 
0.449 -0.067 0.144 3 
0.449 -0.075 0.144 3 
0.449 -0.085 0.144 3 
0.446 0.013 0.143 3 
0.449 -0.095 0.144 3 
0.444 0.134 0.1 3 
0.454 -0.227 0.148 3 
0.46 -0.299 0.153 3 
0.46 -0.306 0.153 3 
0.46 -0.316 0.153 3 
0.461 -0.33 0.154 3 
0.46 -0.336 0.154 3 
0.444 0.313 0.146 3 
0.445 0.124 0.113 3 
0.446 0.133 0.144 3 
0.456 -0.255 0.153 3 
0.457 -0.265 0.153 3 
0.457 -0.278 0.154 3 
0.457 -0.287 0.154 3 
0.444 0.252 0.146 3 
0.445 0.254 0.083 3 
0.445 0.183 0.144 3 
0.445 0.172 0.144 3 
0.444 0.163 0.144 3 
0.445 0.153 0.144 3 
0.445 0.143 0.144 3 
0.445 0.274 0.144 3 
0.446 0.123 0.144 3 
0.446 0.104 0.144 3 
0.446 0.094 0.143 3 
0.445 0.013 0.133 3 
0.446 0.084 0.143 3 
0.445 0.003 0.092 3 
0.446 0.053 0.143 3 
0.446 0.043 0.143 3 
0.445 0.033 0.143 3 
0.446 0.023 0.143 3 
0.443 0.233 0.114 3 
0.458 -0.306 0.124 3 
0.451 -0.331 0.124 3 
0.445 0.264 0.118 3 
0.445 0.218 0.116 3 
0.444 0.111 0.115 3 
0.444 0.075 0.115 3 
0.459 -0.317 0.122 3 
0.459 -0.327 0.123 3 
0.458 -0.336 0.123 3 
0.445 0.31 0.116 3 
0.443 0.242 0.114 3 
0.444 0.038 0.107 3 
0.444 0.222 0.114 3 
0.444 0.214 0.114 3 
0.444 0.203 0.113 3 
0.445 0.196 0.114 3 
0.445 0.193 0.114 3 
0.445 0.182 0.113 3 
0.458 -0.307 0.044 3 
0.445 0.174 0.113 3 
0.445 0.163 0.113 3 
0.445 0.153 0.113 3 
0.454 -0.227 0.124 3 
0.444 0.19 0.121 3 
0.445 0.083 0.083 3 
0.449 -0.145 0.122 3 
0.449 -0.155 0.122 3 
0.45 -0.167 0.123 3 
0.452 -0.175 0.123 3 
0.452 -0.186 0.123 3 
0.451 -0.196 0.123 3 
0.452 -0.205 0.123 3 
0.453 -0.215 0.124 3 
0.446 0.143 0.113 3 
0.445 0.132 0.113 3 
0.454 -0.235 0.124 3 
0.445 0.291 0.121 3 
0.444 0.184 0.118 3 
0.453 -0.246 0.122 3 
0.454 -0.256 0.122 3 
0.454 -0.265 0.123 3 
0.455 -0.272 0.123 3 
0.444 0.103 0.11 3 
0.456 -0.276 0.123 3 
0.458 -0.296 0.124 3 
0.445 0.282 0.113 3 
0.449 -0.105 0.114 3 
0.449 -0.126 0.114 3 
0.441 0.314 0.083 3 
0.45 -0.135 0.114 3 
0.449 -0.145 0.114 3 
0.449 -0.155 0.114 3 
0.444 0.318 0.113 3 
0.443 0.311 0.113 3 
0.445 0.31 0.113 3 
0.445 0.303 0.113 3 
0.445 0.294 0.113 3 
0.449 -0.085 0.114 3 
0.444 0.272 0.112 3 
0.446 0.053 0.063 3 
0.445 0.252 0.112 3 
0.444 0.116 0.032 3 
0.444 0.189 0.111 3 
0.444 0.16 0.11 3 
0.444 0.152 0.11 3 
0.452 -0.197 0.074 3 
0.444 0.113 0.11 3 
0.453 0.333 0.189 3 
0.445 0.013 0.112 3 
0.445 0.114 0.113 3 
0.445 0.104 0.113 3 
0.445 0.093 0.113 3 
0.445 0.083 0.113 3 
0.444 0.078 0.112 3 
0.445 0.073 0.113 3 
0.445 0.053 0.113 3 
0.445 0.043 0.113 3 
0.445 0.119 0.103 3 
0.445 0.033 0.113 3 
0.446 0.023 0.113 3 
0.443 0.254 0.122 3 
0.445 0.003 0.112 3 
0.445 -0.006 0.112 3 
0.446 -0.016 0.113 3 
0.446 -0.026 0.113 3 
0.448 -0.036 0.113 3 
0.448 -0.046 0.113 3 
0.448 -0.057 0.113 3 
0.448 -0.067 0.113 3 
0.457 -0.316 0.014 3 
0.449 -0.077 0.114 3 
0.461 -0.326 0.134 3 
0.453 -0.215 0.132 3 
0.453 -0.226 0.132 3 
0.453 -0.246 0.133 3 
0.454 -0.256 0.133 3 
0.455 -0.26 0.133 3 
0.455 -0.266 0.134 3 
0.445 0.207 0.127 3 
0.457 -0.286 0.132 3 
0.458 -0.296 0.133 3 
0.459 -0.307 0.133 3 
0.46 -0.315 0.134 3 
0.444 0.018 0.127 3 
0.46 -0.335 0.134 3 
0.443 0.239 0.124 3 
0.452 -0.216 0.053 3 
0.443 0.234 0.124 3 
0.443 0.222 0.124 3 
0.443 0.214 0.124 3 
0.445 0.201 0.124 3 
0.445 0.193 0.124 3 
0.445 0.182 0.124 3 
0.441 0.222 0.014 3 
0.444 0.223 0.132 3 
0.443 0.302 0.134 3 
0.445 0.298 0.134 3 
0.444 0.291 0.134 3 
0.444 0.284 0.134 3 
0.445 0.282 0.134 3 
0.445 0.273 0.134 3 
0.444 0.261 0.133 3 
0.444 0.252 0.133 3 
0.443 0.242 0.132 3 
0.446 -0.056 0.023 3 
0.443 0.234 0.132 3 
0.446 0.172 0.124 3 
0.445 0.201 0.132 3 
0.45 -0.127 0.132 3 
0.451 -0.135 0.133 3 
0.45 -0.145 0.133 3 
0.451 -0.156 0.133 3 
0.451 -0.165 0.133 3 
0.451 -0.175 0.133 3 
0.453 -0.187 0.134 3 
0.445 0.093 0.083 3 
0.453 -0.195 0.134 3 
0.449 -0.137 0.124 3 
0.451 -0.185 0.063 3 
0.447 -0.016 0.123 3 
0.447 -0.026 0.123 3 
0.447 -0.036 0.123 3 
0.447 -0.046 0.123 3 
0.447 -0.056 0.123 3 
0.448 -0.067 0.123 3 
0.449 -0.085 0.124 3 
0.449 -0.095 0.124 3 
0.449 -0.116 0.124 3 
0.449 -0.126 0.124 3 
0.446 -0.006 0.123 3 
0.443 0.317 0.124 3 
0.444 0.244 0.062 3 
0.441 0.312 0.123 3 
0.444 0.303 0.124 3 
0.444 0.293 0.123 3 
0.448 -0.087 0.063 3 
0.444 0.284 0.123 3 
0.444 0.272 0.123 3 
0.444 0.263 0.123 3 
0.444 0.264 0.073 3 
0.444 0.065 0.122 3 
0.445 0.164 0.123 3 
0.446 0.154 0.124 3 
0.445 0.143 0.123 3 
0.445 0.132 0.123 3 
0.445 0.122 0.123 3 
0.445 0.114 0.123 3 
0.446 0.104 0.123 3 
0.446 0.094 0.123 3 
0.445 0.083 0.123 3 
0.445 0.073 0.123 3 
0.442 0.314 0.134 3 
0.445 0.063 0.123 3 
0.445 0.053 0.123 3 
0.444 0.149 0.062 3 
0.445 0.043 0.123 3 
0.445 0.033 0.123 3 
0.445 0.023 0.123 3 
0.452 -0.216 0.063 3 
0.445 0.013 0.122 3 
0.445 0.19 0.062 3 
0.445 0.003 0.122 3 
0.448 0.178 0.174 3 
0.457 -0.217 0.182 3 
0.445 0.222 0.143 3 
0.456 -0.225 0.182 3 
0.457 -0.237 0.183 3 
0.458 -0.246 0.183 3 
0.458 -0.255 0.184 3 
0.444 0.317 0.051 3 
0.467 -0.336 0.192 3 
0.455 0.335 0.184 3 
0.451 0.327 0.182 3 
0.447 0.191 0.174 3 
0.447 -0.016 0.043 3 
0.443 0.232 0.024 3 
0.449 0.162 0.174 3 
0.455 -0.277 0.104 3 
0.449 0.154 0.174 3 
0.449 0.143 0.174 3 
0.449 0.132 0.173 3 
0.449 0.124 0.173 3 
0.449 0.114 0.173 3 
0.445 0.198 0.083 3 
0.444 0.005 0.018 3 
0.45 0.303 0.183 3 
0.465 -0.317 0.193 3 
0.467 -0.329 0.194 3 
0.445 0.063 0.113 3 
0.452 -0.256 0.013 3 
0.467 -0.333 0.195 3 
0.467 -0.336 0.195 3 
0.464 -0.34 0.194 3 
0.451 0.32 0.184 3 
0.44 0.313 0.073 3 
0.45 0.312 0.184 3 
0.457 -0.298 0.094 3 
0.447 0.103 0.172 3 
0.448 -0.115 0.093 3 
0.454 -0.087 0.177 3 
0.454 -0.119 0.178 3 
0.445 0.209 0.124 3 
0.443 0.263 0.023 3 
0.454 -0.127 0.178 3 
0.444 0.254 0.114 3 
0.454 -0.184 0.18 3 
0.454 -0.187 0.18 3 
0.454 -0.195 0.18 3 
0.464 -0.315 0.186 3 
0.447 -0.066 0.063 3 
0.454 -0.105 0.175 3 
0.454 -0.135 0.176 3 
0.454 -0.145 0.176 3 
0.456 -0.297 0.113 3 
0.454 -0.156 0.176 3 
0.459 -0.268 0.182 3 
0.46 -0.275 0.183 3 
0.445 -0.006 0.023 3 
0.461 -0.286 0.184 3 
0.461 -0.295 0.184 3 
0.454 -0.095 0.175 3 
0.448 0.248 0.174 3 
0.449 0.243 0.174 3 
0.448 0.234 0.174 3 
0.447 0.224 0.173 3 
0.447 0.213 0.172 3 
0.445 0.14 0.103 3 
0.447 0.202 0.172 3 
0.447 0.174 0.171 3 
0.453 -0.097 0.172 3 
0.453 -0.105 0.172 3 
0.45 -0.006 0.173 3 
0.449 0.083 0.173 3 
0.45 0.073 0.173 3 
0.45 0.062 0.173 3 
0.45 0.054 0.173 3 
0.451 0.044 0.173 3 
0.452 0.034 0.174 3 
0.451 0.024 0.173 3 
0.449 -0.077 0.124 3 
0.451 0.013 0.173 3 
0.444 0.274 0.083 3 
0.449 0.003 0.172 3 
0.465 -0.31 0.192 3 
0.45 -0.016 0.173 3 
0.45 -0.147 0.083 3 
0.45 -0.027 0.173 3 
0.452 -0.037 0.173 3 
0.452 -0.045 0.173 3 
0.452 -0.055 0.174 3 
0.452 -0.065 0.174 3 
0.453 -0.076 0.174 3 
0.449 -0.105 0.124 3 
0.453 -0.086 0.174 3 
0.449 0.093 0.178 3 
0.448 0.154 0.179 3 
0.443 0.183 0.024 3 
0.45 0.144 0.179 3 
0.45 0.133 0.179 3 
0.45 0.122 0.179 3 
0.445 0.202 0.142 3 
0.445 0.104 0.133 3 
0.451 -0.177 0.042 3 
0.45 0.114 0.179 3 
0.448 0.103 0.178 3 
0.446 0.073 0.062 3 
0.45 0.163 0.18 3 
0.451 0.083 0.179 3 
0.446 0.074 0.143 3 
0.455 -0.242 0.144 3 
0.45 -0.177 0.024 3 
0.452 0.073 0.179 3 
0.452 0.063 0.179 3 
0.444 0.07 0.112 3 
0.452 0.052 0.179 3 
0.452 0.042 0.179 3 
0.453 0.034 0.179 3 
0.45 0.244 0.183 3 
0.452 0.322 0.188 3 
0.451 0.314 0.187 3 
0.447 0.092 0.172 3 
0.45 0.303 0.186 3 
0.448 0.291 0.184 3 
0.449 0.283 0.184 3 
0.45 0.274 0.184 3 
0.449 0.261 0.183 3 
0.457 -0.211 0.185 3 
0.45 0.253 0.183 3 
0.444 0.103 0.025 3 
0.453 0.024 0.179 3 
0.449 0.232 0.182 3 
0.449 0.223 0.182 3 
0.445 0.245 0.091 3 
0.449 0.212 0.181 3 
0.448 0.203 0.181 3 
0.454 -0.276 0.012 3 
0.447 0.194 0.18 3 
0.448 0.184 0.18 3 
0.457 -0.277 0.134 3 
0.45 0.174 0.181 3 
0.458 -0.246 0.186 3 
0.455 -0.157 0.182 3 
0.456 -0.166 0.183 3 
0.456 -0.177 0.183 3 
0.445 0.134 0.042 3 
0.456 -0.185 0.183 3 
0.456 -0.196 0.184 3 
0.444 0.181 0.1 3 
0.456 -0.205 0.184 3 
0.457 -0.217 0.185 3 
0.457 -0.226 0.185 3 
0.456 -0.237 0.185 3 
0.445 0.243 0.104 3 
0.461 -0.258 0.188 3 
0.452 -0.256 0.042 3 
0.461 -0.267 0.188 3 
0.461 -0.277 0.189 3 
0.461 -0.286 0.189 3 
0.446 -0.016 0.073 3 
0.463 -0.298 0.191 3 
0.442 0.182 0.014 3 
0.466 -0.304 0.192 3 
0.464 -0.305 0.192 3 
0.454 -0.066 0.18 3 
0.452 0.014 0.179 3 
0.452 0.003 0.179 3 
0.452 -0.006 0.179 3 
0.452 -0.016 0.179 3 
0.451 -0.027 0.179 3 
0.452 -0.035 0.179 3 
0.453 -0.206 0.134 3 
0.452 -0.045 0.179 3 
0.453 -0.055 0.179 3 
0.453 -0.235 0.132 3 
0.452 -0.115 0.172 3 
0.454 -0.076 0.18 3 
0.455 -0.087 0.18 3 
0.445 0.137 0.032 3 
0.455 -0.095 0.181 3 
0.456 -0.106 0.181 3 
0.456 -0.117 0.181 3 
0.455 -0.127 0.181 3 
0.455 -0.135 0.181 3 
0.455 -0.215 0.162 3 
0.456 -0.146 0.182 3 
0.446 0.313 0.163 3 
0.454 -0.175 0.163 3 
0.453 -0.185 0.163 3 
0.453 -0.197 0.164 3 
0.443 0.112 0.012 3 
0.454 -0.206 0.164 3 
0.464 -0.328 0.173 3 
0.463 -0.337 0.173 3 
0.449 -0.166 0.004 3 
0.443 0.32 0.162 3 
0.444 0.314 0.162 3 
0.446 -0.006 0.143 3 
0.453 -0.166 0.163 3 
0.447 0.301 0.162 3 
0.449 -0.095 0.114 3 
0.447 0.292 0.162 3 
0.456 -0.226 0.163 3 
0.448 -0.095 0.083 3 
0.456 -0.235 0.163 3 
0.457 -0.245 0.164 3 
0.456 -0.256 0.164 3 
0.457 -0.266 0.164 3 
0.445 0.318 0.16 3 
0.464 -0.328 0.175 3 
0.444 0.144 0.037 3 
0.451 -0.146 0.164 3 
0.457 -0.336 0.091 3 
0.451 -0.157 0.164 3 
0.454 -0.167 0.166 3 
0.455 -0.212 0.167 3 
0.46 -0.297 0.172 3 
0.454 -0.276 0.082 3 
0.455 -0.299 0.074 3 
0.462 -0.306 0.174 3 
0.462 -0.316 0.174 3 
0.444 0.205 0.155 3 
0.447 0.277 0.164 3 
0.447 0.274 0.164 3 
0.447 0.262 0.163 3 
0.446 0.252 0.163 3 
0.447 0.244 0.163 3 
0.447 0.232 0.162 3 
0.445 0.159 0.144 3 
0.449 -0.095 0.043 3 
0.444 0.194 0.16 3 
0.444 0.183 0.16 3 
0.445 0.242 0.154 3 
0.449 -0.036 0.154 3 
0.449 -0.047 0.154 3 
0.449 -0.057 0.154 3 
0.455 -0.214 0.159 3 
0.451 -0.207 0.053 3 
0.457 -0.275 0.162 3 
0.458 -0.285 0.163 3 
0.461 -0.298 0.164 3 
0.46 -0.306 0.164 3 
0.452 -0.225 0.034 3 
0.445 0.254 0.154 3 
0.449 -0.026 0.154 3 
0.446 0.234 0.154 3 
0.445 0.282 0.121 3 
0.445 0.222 0.153 3 
0.445 0.214 0.153 3 
0.444 0.202 0.153 3 
0.444 0.194 0.152 3 
0.454 -0.236 0.143 3 
0.445 0.184 0.152 3 
0.445 0.172 0.152 3 
0.448 0.124 0.152 3 
0.446 0.074 0.153 3 
0.445 0.151 0.154 3 
0.446 0.144 0.154 3 
0.446 0.133 0.154 3 
0.449 -0.116 0.114 3 
0.447 0.113 0.154 3 
0.447 0.102 0.154 3 
0.45 -0.166 0.073 3 
0.447 0.092 0.154 3 
0.446 0.112 0.144 3 
0.445 0.187 0.085 3 
0.446 0.084 0.154 3 
0.452 -0.136 0.164 3 
0.447 0.064 0.154 3 
0.447 0.054 0.154 3 
0.447 0.044 0.154 3 
0.448 0.034 0.154 3 
0.458 -0.325 0.094 3 
0.447 0.023 0.154 3 
0.448 0.013 0.154 3 
0.447 0.003 0.154 3 
0.447 -0.006 0.154 3 
0.449 -0.016 0.154 3 
0.453 0.332 0.174 3 
0.449 0.273 0.173 3 
0.448 0.263 0.172 3 
0.444 0.184 0.072 3 
0.454 -0.206 0.172 3 
0.446 0.064 0.143 3 
0.455 -0.215 0.173 3 
0.455 -0.227 0.173 3 
0.457 -0.236 0.174 3 
0.466 -0.327 0.182 3 
0.444 0.155 0.072 3 
0.465 -0.336 0.182 3 
0.448 0.284 0.173 3 
0.447 0.321 0.172 3 
0.447 0.1 0.164 3 
0.446 0.092 0.164 3 
0.448 0.074 0.164 3 
0.448 0.064 0.164 3 
0.444 0.082 0.02 3 
0.448 0.054 0.164 3 
0.448 0.008 0.164 3 
0.445 0.262 0.144 3 
0.448 0.003 0.164 3 
0.454 -0.206 0.175 3 
0.453 -0.126 0.172 3 
0.453 -0.137 0.173 3 
0.453 -0.145 0.173 3 
0.453 -0.156 0.173 3 
0.452 -0.205 0.084 3 
0.455 -0.165 0.174 3 
0.455 -0.176 0.174 3 
0.445 0.132 0.133 3 
0.454 -0.181 0.174 3 
0.454 -0.186 0.174 3 
0.453 -0.197 0.174 3 
0.448 -0.006 0.164 3 
0.464 -0.305 0.183 3 
0.447 -0.036 0.053 3 
0.45 -0.185 0.024 3 
0.464 -0.315 0.183 3 
0.465 -0.319 0.184 3 
0.462 -0.34 0.184 3 
0.448 0.313 0.174 3 
0.448 0.303 0.174 3 
0.453 -0.185 0.153 3 
0.449 0.291 0.174 3 
0.444 0.234 0.104 3 
0.447 0.144 0.162 3 
0.447 0.134 0.162 3 
0.445 0.164 0.154 3 
0.448 0.124 0.162 3 
0.448 0.113 0.162 3 
0.447 0.084 0.162 3 
0.448 0.044 0.162 3 
0.449 0.034 0.162 3 
0.449 0.024 0.162 3 
0.449 -0.016 0.162 3 
0.45 -0.057 0.162 3 
0.445 0.134 0.072 3 
0.45 -0.065 0.162 3 
0.451 -0.075 0.163 3 
0.452 -0.086 0.163 3 
0.452 -0.097 0.164 3 
0.446 -0.006 0.043 3 
0.451 -0.107 0.163 3 
0.445 0.053 0.093 3 
0.452 -0.115 0.164 3 
0.452 -0.125 0.164 3 
0.45 -0.155 0.063 3 
0.459 -0.287 0.174 3 
0.449 -0.026 0.164 3 
0.449 -0.037 0.164 3 
0.449 -0.047 0.164 3 
0.458 -0.246 0.172 3 
0.445 0.193 0.103 3 
0.458 -0.255 0.173 3 
0.441 0.262 0.013 3 
0.458 -0.267 0.173 3 
0.449 -0.095 0.073 3 
0.458 -0.276 0.174 3 
0.45 -0.065 0.152 3 
0.446 0.218 0.164 3 
0.445 0.211 0.164 3 
0.445 0.203 0.163 3 
0.444 0.197 0.163 3 
0.445 0.192 0.163 3 
0.446 0.184 0.163 3 
0.445 0.174 0.134 3 
0.445 0.173 0.163 3 
0.447 0.163 0.163 3 
0.447 0.152 0.163 3 
0.444 0.162 0.042 3 
0.444 0.224 0.044 3 
0.444 0.213 0.044 3 
0.444 0.202 0.044 3 
0.444 0.194 0.044 3 
0.444 0.184 0.044 3 
0.455 -0.28 0.044 3 
0.456 -0.286 0.044 3 
0.455 -0.295 0.044 3 
0.458 -0.317 0.044 3 
0.444 0.173 0.042 3 
0.445 0.171 0.042 3 
0.443 0.232 0.044 3 
0.444 0.152 0.042 3 
0.445 0.15 0.042 3 
0.445 0.142 0.042 3 
0.445 0.124 0.042 3 
0.451 -0.216 0.034 3 
0.445 0.114 0.042 3 
0.446 0.103 0.042 3 
0.446 0.093 0.042 3 
0.446 0.083 0.042 3 
0.446 0.073 0.042 3 
0.456 -0.335 0.052 3 
0.452 -0.236 0.053 3 
0.452 -0.245 0.053 3 
0.452 -0.256 0.053 3 
0.453 -0.266 0.053 3 
0.455 -0.28 0.053 3 
0.455 -0.286 0.053 3 
0.454 -0.291 0.053 3 
0.443 0.202 0.014 3 
0.455 -0.298 0.053 3 
0.456 -0.305 0.053 3 
0.457 -0.316 0.052 3 
0.446 0.063 0.042 3 
0.444 0.152 0.047 3 
0.442 0.315 0.043 3 
0.442 0.312 0.043 3 
0.443 0.303 0.043 3 
0.446 -0.026 0.003 3 
0.443 0.293 0.044 3 
0.444 0.282 0.044 3 
0.443 0.272 0.044 3 
0.444 0.253 0.044 3 
0.443 0.243 0.044 3 
0.444 0.253 0.034 3 
0.452 -0.236 0.042 3 
0.452 -0.265 0.042 3 
0.456 -0.335 0.041 3 
0.443 0.316 0.033 3 
0.441 0.311 0.033 3 
0.443 0.302 0.033 3 
0.444 0.294 0.033 3 
0.444 0.282 0.033 3 
0.444 0.273 0.033 3 
0.444 0.264 0.033 3 
0.444 0.12 0.022 3 
0.452 -0.225 0.042 3 
0.444 0.244 0.034 3 
0.443 0.315 0.022 3 
0.447 -0.107 0.012 3 
0.443 0.232 0.034 3 
0.443 0.224 0.034 3 
0.444 0.213 0.034 3 
0.444 0.202 0.034 3 
0.444 0.194 0.034 3 
0.444 0.184 0.034 3 
0.444 0.173 0.034 3 
0.449 -0.105 0.043 3 
0.446 0.053 0.043 3 
0.443 0.003 0.013 3 
0.446 0.043 0.043 3 
0.446 0.033 0.043 3 
0.447 0.023 0.043 3 
0.447 -0.026 0.043 3 
0.447 -0.046 0.043 3 
0.447 -0.056 0.043 3 
0.447 -0.066 0.043 3 
0.448 -0.077 0.043 3 
0.448 -0.087 0.043 3 
0.452 -0.225 0.053 3 
0.449 -0.115 0.043 3 
0.45 -0.126 0.043 3 
0.451 -0.137 0.042 3 
0.45 -0.147 0.043 3 
0.45 -0.155 0.042 3 
0.451 -0.166 0.042 3 
0.45 -0.185 0.042 3 
0.45 -0.195 0.042 3 
0.451 -0.207 0.042 3 
0.451 -0.216 0.042 3 
0.459 -0.328 0.064 3 
0.452 -0.225 0.063 3 
0.452 -0.236 0.063 3 
0.452 -0.245 0.063 3 
0.452 -0.256 0.063 3 
0.453 -0.266 0.063 3 
0.454 -0.276 0.063 3 
0.454 -0.285 0.063 3 
0.455 -0.295 0.063 3 
0.457 -0.306 0.063 3 
0.446 -0.324 0.012 3 
0.458 -0.317 0.064 3 
0.451 -0.207 0.063 3 
0.455 -0.286 0.061 3 
0.443 0.316 0.057 3 
0.444 0.27 0.057 3 
0.444 0.111 0.057 3 
0.454 -0.332 0.058 3 
0.446 0.319 0.054 3 
0.443 0.313 0.054 3 
0.443 0.303 0.054 3 
0.443 0.284 0.054 3 
0.444 0.273 0.054 3 
0.448 -0.095 0.063 3 
0.451 -0.256 0.034 3 
0.446 0.043 0.063 3 
0.446 0.033 0.063 3 
0.446 0.013 0.063 3 
0.446 -0.006 0.063 3 
0.446 -0.016 0.063 3 
0.446 -0.026 0.063 3 
0.446 -0.036 0.063 3 
0.446 -0.046 0.063 3 
0.447 -0.056 0.063 3 
0.448 -0.077 0.063 3 
0.444 0.244 0.054 3 
0.448 -0.105 0.063 3 
0.449 -0.115 0.063 3 
0.45 -0.126 0.063 3 
0.447 -0.036 0.043 3 
0.45 -0.137 0.063 3 
0.45 -0.147 0.063 3 
0.45 -0.166 0.063 3 
0.445 0.043 0.033 3 
0.451 -0.177 0.063 3 
0.451 -0.196 0.063 3 
0.448 -0.077 0.053 3 
0.449 -0.165 0.014 3 
0.446 0.023 0.053 3 
0.446 0.013 0.053 3 
0.447 0.003 0.053 3 
0.447 -0.006 0.053 3 
0.446 -0.016 0.053 3 
0.447 -0.026 0.053 3 
0.446 -0.046 0.053 3 
0.456 -0.296 0.023 3 
0.446 -0.056 0.053 3 
0.447 -0.066 0.053 3 
0.446 0.033 0.053 3 
0.448 -0.095 0.053 3 
0.449 -0.105 0.053 3 
0.449 -0.115 0.053 3 
0.45 -0.126 0.053 3 
0.451 -0.137 0.053 3 
0.45 -0.147 0.053 3 
0.45 -0.166 0.053 3 
0.451 -0.177 0.053 3 
0.451 -0.185 0.053 3 
0.451 -0.196 0.053 3 
0.445 0.152 0.052 3 
0.443 0.232 0.054 3 
0.443 0.224 0.054 3 
0.445 0.179 0.055 3 
0.444 0.213 0.052 3 
0.445 0.203 0.052 3 
0.444 0.2 0.052 3 
0.444 0.194 0.052 3 
0.444 0.184 0.052 3 
0.445 0.174 0.052 3 
0.444 0.162 0.052 3 
0.445 0.155 0.052 3 
0.444 0.162 0.034 3 
0.445 0.142 0.052 3 
0.445 0.134 0.052 3 
0.445 0.124 0.052 3 
0.445 0.103 0.052 3 
0.446 0.083 0.052 3 
0.446 0.073 0.052 3 
0.447 0.063 0.052 3 
0.447 -0.036 0.002 3 
0.447 0.053 0.052 3 
0.446 0.043 0.053 3 
0.442 0.193 0.014 3 
0.442 0.254 0.013 3 
0.456 -0.296 0.014 3 
0.456 -0.306 0.014 3 
0.457 -0.326 0.014 3 
0.454 -0.33 0.014 3 
0.441 0.291 0.012 3 
0.441 0.282 0.012 3 
0.442 0.274 0.012 3 
0.442 0.243 0.013 3 
0.442 0.234 0.013 3 
0.442 0.212 0.014 3 
0.456 -0.29 0.014 3 
0.441 0.174 0.014 3 
0.442 0.164 0.014 3 
0.443 0.154 0.014 3 
0.444 -0.006 0.015 3 
0.444 -0.016 0.015 3 
0.444 -0.026 0.015 3 
0.444 -0.058 0.015 3 
0.448 -0.159 0.014 3 
0.449 -0.176 0.014 3 
0.449 -0.187 0.014 3 
0.448 -0.077 0.023 3 
0.445 0.04 0.023 3 
0.445 0.033 0.023 3 
0.444 0.03 0.023 3 
0.445 0.023 0.023 3 
0.444 0.02 0.023 3 
0.445 0.003 0.023 3 
0.445 -0.016 0.023 3 
0.446 -0.026 0.023 3 
0.446 -0.036 0.023 3 
0.446 -0.046 0.023 3 
0.446 -0.066 0.023 3 
0.45 -0.215 0.014 3 
0.448 -0.087 0.023 3 
0.447 -0.097 0.023 3 
0.447 -0.107 0.023 3 
0.448 -0.125 0.022 3 
0.449 -0.136 0.022 3 
0.449 -0.147 0.022 3 
0.443 0.315 0.014 3 
0.443 0.312 0.014 3 
0.443 0.303 0.014 3 
0.444 0 0.018 3 
0.447 -0.156 0.004 3 
0.446 -0.096 0.013 3 
0.447 -0.115 0.012 3 
0.447 -0.125 0.012 3 
0.447 -0.135 0.012 3 
0.447 -0.146 0.012 3 
0.454 -0.285 0.009 3 
0.445 0.008 0.008 3 
0.445 -0.036 0.008 3 
0.445 -0.046 0.008 3 
0.445 -0.004 0.005 3 
0.445 -0.026 0.005 3 
0.446 -0.086 0.013 3 
0.444 0.052 0.003 3 
0.445 0.048 0.003 3 
0.445 0.043 0.003 3 
0.445 0.033 0.003 3 
0.445 0.023 0.003 3 
0.447 0.013 0.002 3 
0.446 -0.006 0.003 3 
0.446 -0.016 0.003 3 
0.449 -0.095 0.002 3 
0.449 -0.105 0.002 3 
0.442 0.052 0.013 3 
0.45 -0.226 0.013 3 
0.45 -0.235 0.013 3 
0.451 -0.247 0.013 3 
0.453 -0.266 0.013 3 
0.442 0.143 0.012 3 
0.442 0.132 0.012 3 
0.443 0.123 0.012 3 
0.443 0.102 0.013 3 
0.443 0.082 0.013 3 
0.443 0.072 0.013 3 
0.443 0.062 0.013 3 
0.444 0.042 0.023 3 
0.443 0.042 0.013 3 
0.444 0.033 0.013 3 
0.443 0.023 0.013 3 
0.443 0.013 0.013 3 
0.443 -0.006 0.013 3 
0.444 -0.016 0.013 3 
0.444 -0.026 0.013 3 
0.444 -0.046 0.013 3 
0.444 -0.056 0.013 3 
0.445 -0.066 0.013 3 
0.448 -0.097 0.033 3 
0.445 0.023 0.033 3 
0.446 0.003 0.033 3 
0.446 -0.006 0.033 3 
0.446 -0.016 0.033 3 
0.446 -0.026 0.033 3 
0.446 -0.036 0.033 3 
0.443 0.092 0.013 3 
0.446 -0.046 0.033 3 
0.446 -0.056 0.033 3 
0.447 -0.066 0.033 3 
0.447 -0.077 0.033 3 
0.445 0.033 0.033 3 
0.448 -0.105 0.033 3 
0.449 -0.115 0.032 3 
0.449 -0.126 0.032 3 
0.45 -0.137 0.032 3 
0.45 -0.145 0.032 3 
0.45 -0.166 0.032 3 
0.451 -0.177 0.032 3 
0.45 -0.185 0.032 3 
0.455 -0.273 0.031 3 
0.444 0.045 0.028 3 
0.444 0.144 0.032 3 
0.444 0.134 0.035 3 
0.451 -0.207 0.034 3 
0.451 -0.247 0.034 3 
0.452 -0.265 0.034 3 
0.455 -0.276 0.034 3 
0.456 -0.286 0.034 3 
0.456 -0.305 0.033 3 
0.459 -0.315 0.033 3 
0.459 -0.325 0.033 3 
0.457 -0.336 0.033 3 
0.444 0.152 0.032 3 
0.444 0.035 0.028 3 
0.444 0.134 0.032 3 
0.445 0.124 0.032 3 
0.445 0.113 0.032 3 
0.445 0.103 0.032 3 
0.446 0.093 0.032 3 
0.445 0.083 0.032 3 
0.445 0.073 0.033 3 
0.445 0.093 0.022 3 
0.445 0.063 0.033 3 
0.445 0.053 0.033 3 
0.459 -0.318 0.022 3 
0.451 -0.205 0.024 3 
0.451 -0.216 0.024 3 
0.445 -0.021 0.005 3 
0.452 -0.228 0.024 3 
0.451 -0.247 0.024 3 
0.452 -0.257 0.023 3 
0.454 -0.266 0.023 3 
0.455 -0.273 0.023 3 
0.456 -0.277 0.023 3 
0.456 -0.287 0.023 3 
0.457 -0.306 0.022 3 
0.45 -0.196 0.024 3 
0.453 -0.332 0.022 3 
0.443 0.133 0.022 3 
0.445 0.123 0.022 3 
0.444 0.113 0.022 3 
0.444 0.103 0.022 3 
0.444 0.09 0.023 3 
0.445 0.083 0.022 3 
0.445 0.073 0.023 3 
0.444 0.062 0.023 3 
0.444 0.052 0.023 3 
0.443 0.213 0.024 3 
0.444 0.033 0.028 3 
0.459 -0.328 0.024 3 
0.442 0.311 0.022 3 
0.443 0.303 0.022 3 
0.442 0.292 0.023 3 
0.443 0.284 0.023 3 
0.443 0.272 0.023 3 
0.443 0.252 0.023 3 
0.443 0.243 0.023 3 
0.443 0.224 0.024 3 
0.446 0.063 0.062 3 
0.443 0.202 0.024 3 
0.444 0.194 0.024 3 
0.443 0.172 0.024 3 
0.443 0.162 0.024 3 
0.443 0.154 0.024 3 
0.444 0.113 0.025 3 
0.444 0.057 0.025 3 
0.444 -0.036 0.013 3 
0.444 0.018 0.025 3 
0.45 -0.169 0.024 3 
0.445 0.217 0.093 3 
0.445 0.073 0.095 3 
0.442 0.315 0.094 3 
0.442 0.312 0.094 3 
0.444 0.302 0.094 3 
0.444 0.292 0.094 3 
0.444 0.283 0.094 3 
0.444 0.274 0.094 3 
0.444 0.263 0.094 3 
0.445 0.242 0.093 3 
0.445 0.234 0.093 3 
0.444 0.222 0.093 3 
0.445 0.114 0.095 3 
0.444 0.214 0.093 3 
0.444 0.203 0.093 3 
0.444 0.192 0.093 3 
0.444 0.184 0.093 3 
0.444 0.173 0.093 3 
0.445 0.163 0.093 3 
0.444 0.16 0.093 3 
0.444 0.152 0.093 3 
0.444 0.144 0.093 3 
0.444 0.134 0.093 3 
0.444 0.09 0.097 3 
0.451 -0.196 0.102 3 
0.452 -0.205 0.102 3 
0.453 -0.217 0.103 3 
0.453 -0.226 0.103 3 
0.452 -0.236 0.103 3 
0.453 -0.246 0.103 3 
0.454 -0.258 0.104 3 
0.454 -0.267 0.104 3 
0.456 -0.287 0.104 3 
0.445 0.284 0.099 3 
0.444 0.173 0.098 3 
0.444 0.124 0.093 3 
0.458 -0.299 0.102 3 
0.445 0.013 0.033 3 
0.457 -0.307 0.102 3 
0.458 -0.315 0.102 3 
0.459 -0.326 0.103 3 
0.458 -0.338 0.103 3 
0.451 -0.204 0.034 3 
0.445 0.153 0.095 3 
0.445 0.073 0.083 3 
0.444 0.07 0.023 3 
0.451 -0.145 0.094 3 
0.446 -0.036 0.093 3 
0.445 0.023 0.063 3 
0.447 -0.046 0.093 3 
0.447 -0.056 0.093 3 
0.447 -0.066 0.093 3 
0.448 -0.077 0.093 3 
0.449 -0.085 0.093 3 
0.448 -0.095 0.093 3 
0.449 -0.105 0.093 3 
0.449 -0.126 0.094 3 
0.449 -0.137 0.094 3 
0.45 -0.207 0.014 3 
0.451 -0.156 0.094 3 
0.451 -0.166 0.094 3 
0.452 -0.175 0.094 3 
0.452 -0.186 0.094 3 
0.459 -0.325 0.044 3 
0.452 -0.197 0.094 3 
0.451 -0.235 0.024 3 
0.445 0.214 0.091 3 
0.445 0.201 0.09 3 
0.452 -0.205 0.092 3 
0.451 -0.177 0.073 3 
0.445 0.114 0.093 3 
0.45 -0.161 0.024 3 
0.444 0.103 0.092 3 
0.445 0.101 0.093 3 
0.445 0.093 0.093 3 
0.444 0.088 0.092 3 
0.445 0.083 0.093 3 
0.444 0.08 0.092 3 
0.444 0.073 0.092 3 
0.445 0.071 0.093 3 
0.444 0.224 0.073 3 
0.452 -0.186 0.102 3 
0.444 0.063 0.092 3 
0.445 0.043 0.092 3 
0.445 0.033 0.092 3 
0.45 -0.155 0.032 3 
0.446 0.023 0.093 3 
0.446 0.013 0.093 3 
0.446 -0.006 0.093 3 
0.444 0.194 0.062 3 
0.446 -0.016 0.093 3 
0.446 -0.026 0.093 3 
0.444 0.254 0.104 3 
0.458 -0.315 0.114 3 
0.458 -0.335 0.114 3 
0.443 0.252 0.054 3 
0.444 0.144 0.105 3 
0.444 0.302 0.105 3 
0.454 -0.276 0.042 3 
0.444 0.293 0.105 3 
0.444 0.284 0.104 3 
0.444 0.263 0.104 3 
0.443 0.303 0.073 3 
0.444 0.264 0.054 3 
0.458 -0.309 0.113 3 
0.445 0.249 0.104 3 
0.444 0.237 0.104 3 
0.445 0.231 0.104 3 
0.444 0.222 0.103 3 
0.444 0.214 0.103 3 
0.444 0.203 0.103 3 
0.444 0.187 0.103 3 
0.445 0.182 0.103 3 
0.445 0.174 0.103 3 
0.445 0.163 0.103 3 
0.458 -0.318 0.094 3 
0.452 -0.186 0.113 3 
0.451 -0.196 0.113 3 
0.452 -0.205 0.113 3 
0.454 -0.218 0.113 3 
0.453 -0.226 0.113 3 
0.452 -0.236 0.113 3 
0.454 -0.247 0.114 3 
0.454 -0.256 0.114 3 
0.454 -0.267 0.114 3 
0.444 0.281 0.11 3 
0.445 0.226 0.109 3 
0.444 0.16 0.103 3 
0.446 0.003 0.063 3 
0.445 0.223 0.109 3 
0.444 0.168 0.108 3 
0.444 0.116 0.108 3 
0.444 0.058 0.107 3 
0.455 -0.274 0.112 3 
0.455 -0.277 0.112 3 
0.448 -0.087 0.073 3 
0.455 -0.287 0.112 3 
0.445 0.114 0.052 3 
0.446 -0.066 0.083 3 
0.448 -0.057 0.103 3 
0.448 -0.067 0.103 3 
0.443 0.263 0.044 3 
0.448 -0.077 0.103 3 
0.448 -0.087 0.103 3 
0.449 -0.095 0.104 3 
0.448 -0.105 0.103 3 
0.448 -0.115 0.104 3 
0.449 -0.126 0.104 3 
0.449 -0.137 0.104 3 
0.449 -0.147 0.104 3 
0.448 -0.046 0.103 3 
0.451 -0.156 0.104 3 
0.451 -0.166 0.104 3 
0.442 0.316 0.102 3 
0.441 0.311 0.102 3 
0.444 0.302 0.102 3 
0.444 0.293 0.102 3 
0.445 0.217 0.101 3 
0.445 0.061 0.1 3 
0.445 0.053 0.1 3 
0.452 -0.175 0.102 3 
0.444 0.073 0.102 3 
0.444 0.152 0.103 3 
0.445 0.06 0.093 3 
0.444 0.144 0.103 3 
0.445 0.134 0.103 3 
0.444 0.124 0.103 3 
0.444 0.113 0.103 3 
0.444 0.103 0.103 3 
0.445 0.101 0.103 3 
0.445 0.093 0.103 3 
0.444 0.075 0.102 3 
0.452 -0.216 0.092 3 
0.444 0.063 0.102 3 
0.444 0.053 0.102 3 
0.444 0.043 0.102 3 
0.459 -0.328 0.052 3 
0.445 0.04 0.102 3 
0.445 0.033 0.102 3 
0.446 0.013 0.103 3 
0.445 -0.006 0.102 3 
0.446 -0.026 0.103 3 
0.446 -0.036 0.103 3 
0.459 -0.328 0.072 3 
0.446 0.043 0.073 3 
0.446 0.033 0.073 3 
0.445 0.023 0.072 3 
0.445 0.013 0.073 3 
0.446 0.003 0.073 3 
0.446 -0.006 0.073 3 
0.446 -0.026 0.073 3 
0.446 -0.036 0.073 3 
0.447 -0.046 0.073 3 
0.447 -0.056 0.073 3 
0.447 -0.066 0.073 3 
0.446 0.053 0.073 3 
0.447 -0.077 0.073 3 
0.446 0.003 0.003 3 
0.448 -0.105 0.073 3 
0.45 -0.196 0.014 3 
0.448 -0.115 0.073 3 
0.449 -0.126 0.073 3 
0.45 -0.136 0.073 3 
0.45 -0.147 0.073 3 
0.448 -0.087 0.053 3 
0.45 -0.155 0.073 3 
0.444 0.194 0.072 3 
0.445 0.153 0.078 3 
0.455 -0.292 0.08 3 
0.444 0.184 0.062 3 
0.445 0.29 0.075 3 
0.444 0.292 0.073 3 
0.444 0.283 0.073 3 
0.445 0.256 0.073 3 
0.445 0.254 0.073 3 
0.444 0.244 0.073 3 
0.444 0.233 0.073 3 
0.444 0.202 0.072 3 
0.451 -0.185 0.073 3 
0.445 0.163 0.072 3 
0.444 0.152 0.072 3 
0.444 0.144 0.072 3 
0.445 0.124 0.072 3 
0.445 0.114 0.072 3 
0.445 0.103 0.072 3 
0.445 0.093 0.072 3 
0.446 0.083 0.073 3 
0.445 0.073 0.072 3 
0.446 0.063 0.072 3 
0.445 0.198 0.062 3 
0.443 0.303 0.062 3 
0.443 0.294 0.062 3 
0.444 0.283 0.062 3 
0.445 0.277 0.062 3 
0.445 0.274 0.062 3 
0.444 0.264 0.062 3 
0.444 0.253 0.062 3 
0.444 0.233 0.062 3 
0.444 0.224 0.062 3 
0.444 0.213 0.062 3 
0.444 0.202 0.062 3 
0.441 0.314 0.062 3 
0.444 0.173 0.062 3 
0.445 0.155 0.062 3 
0.445 0.152 0.062 3 
0.445 0.142 0.062 3 
0.446 0.132 0.062 3 
0.446 0.124 0.062 3 
0.445 0.114 0.062 3 
0.445 0.103 0.062 3 
0.446 0.094 0.062 3 
0.446 0.083 0.062 3 
0.455 -0.305 0.074 3 
0.451 -0.207 0.074 3 
0.451 -0.215 0.074 3 
0.451 -0.227 0.074 3 
0.451 -0.235 0.074 3 
0.444 0.144 0.024 3 
0.452 -0.245 0.074 3 
0.452 -0.256 0.074 3 
0.454 -0.276 0.074 3 
0.45 -0.155 0.053 3 
0.454 -0.285 0.074 3 
0.446 0.013 0.043 3 
0.445 0.236 0.078 3 
0.444 0.25 0.07 3 
0.445 0.147 0.07 3 
0.446 0.093 0.052 3 
0.458 -0.317 0.072 3 
0.458 -0.337 0.072 3 
0.445 0.271 0.067 3 
0.445 0.242 0.067 3 
0.445 0.234 0.067 3 
0.445 0.217 0.067 3 
0.445 0.19 0.065 3 
0.445 0.163 0.083 3 
0.445 0.223 0.083 3 
0.444 0.211 0.083 3 
0.444 0.203 0.083 3 
0.442 0.293 0.054 3 
0.444 0.194 0.083 3 
0.443 0.273 0.073 3 
0.449 -0.116 0.002 3 
0.444 0.184 0.083 3 
0.445 0.179 0.083 3 
0.445 0.174 0.083 3 
0.444 0.17 0.083 3 
0.445 0.231 0.083 3 
0.454 -0.276 0.053 3 
0.444 0.16 0.083 3 
0.446 0.003 0.043 3 
0.444 0.152 0.083 3 
0.444 0.144 0.083 3 
0.444 0.134 0.082 3 
0.445 0.129 0.083 3 
0.454 -0.298 0.058 3 
0.444 0.124 0.082 3 
0.445 0.119 0.083 3 
0.458 -0.305 0.094 3 
0.452 -0.225 0.092 3 
0.451 -0.235 0.092 3 
0.452 -0.245 0.092 3 
0.452 -0.236 0.034 3 
0.453 -0.257 0.093 3 
0.453 -0.266 0.093 3 
0.445 0.142 0.072 3 
0.454 -0.276 0.093 3 
0.444 0.213 0.072 3 
0.455 -0.283 0.093 3 
0.455 -0.286 0.093 3 
0.445 0.114 0.083 3 
0.445 0.171 0.088 3 
0.444 0.239 0.085 3 
0.444 0.23 0.085 3 
0.444 0.301 0.083 3 
0.444 0.292 0.083 3 
0.444 0.283 0.083 3 
0.444 0.262 0.083 3 
0.444 0.247 0.083 3 
0.444 0.244 0.083 3 
0.444 0.233 0.083 3 
0.444 0.224 0.08 3 
0.45 -0.155 0.084 3 
0.451 -0.166 0.084 3 
0.452 -0.175 0.084 3 
0.452 -0.186 0.084 3 
0.452 -0.197 0.084 3 
0.451 -0.215 0.084 3 
0.451 -0.227 0.084 3 
0.451 -0.235 0.084 3 
0.452 -0.248 0.084 3 
0.454 -0.285 0.085 3 
0.445 0.257 0.08 3 
0.446 -0.076 0.013 3 
0.445 0.192 0.08 3 
0.452 -0.256 0.082 3 
0.453 -0.266 0.082 3 
0.454 -0.285 0.082 3 
0.455 -0.296 0.083 3 
0.456 -0.306 0.083 3 
0.456 -0.316 0.083 3 
0.459 -0.328 0.083 3 
0.444 0.17 0.05 3 
0.459 -0.335 0.083 3 
0.446 -0.036 0.083 3 
0.445 0.103 0.083 3 
0.446 0.063 0.083 3 
0.446 0.053 0.083 3 
0.446 0.043 0.083 3 
0.446 0.033 0.083 3 
0.445 0.023 0.082 3 
0.445 0.003 0.082 3 
0.446 -0.006 0.083 3 
0.446 -0.016 0.083 3 
0.445 -0.026 0.083 3 
0.452 -0.175 0.112 3 
0.446 -0.046 0.083 3 
0.446 -0.056 0.083 3 
0.447 -0.077 0.083 3 
0.448 -0.087 0.033 3 
0.448 -0.087 0.083 3 
0.447 -0.105 0.083 3 
0.448 -0.115 0.083 3 
0.449 -0.126 0.083 3 
0.445 -0.058 0.013 3 
0.45 -0.137 0.083 3 
