# .PCD v0.7 - Point Cloud Data file
FIELDS x y z intensity
SIZE 4 4 4 4
TYPE F F F F
COUNT 1 1 1 1
WIDTH 2396
HEIGHT 1
VIEWPOINT 0 0 0 1 0 0 0
POINTS 2396
DATA ascii
0.34 0.017 0.004 0 
0.34 0.003 0.004 0 
0.34 0.012 0.004 0 
0.374 -0.236 -0.026 1 
0.364 -0.136 -0.018 1 
0.362 -0.125 -0.017 1 
0.363 -0.105 -0.017 1 
0.36 -0.055 -0.015 1 
0.36 -0.046 -0.015 1 
0.361 -0.036 -0.015 1 
0.36 -0.032 -0.014 1 
0.36 -0.025 -0.015 1 
0.36 -0.022 -0.015 1 
0.354 -0.006 -0.013 1 
0.354 0.082 -0.013 1 
0.355 0.084 -0.014 1 
0.356 0.088 -0.014 1 
0.352 0.113 -0.014 1 
0.352 0.123 -0.014 1 
0.351 0.134 -0.014 1 
0.351 0.135 -0.014 1 
0.353 0.139 -0.015 1 
0.354 0.153 -0.016 1 
0.351 0.158 -0.015 1 
0.382 -0.245 -0.027 1 
0.373 -0.198 -0.021 1 
0.37 -0.185 -0.02 1 
0.371 -0.146 -0.019 1 
0.369 -0.125 -0.017 1 
0.364 -0.092 -0.015 1 
0.363 -0.085 -0.014 1 
0.365 -0.056 -0.015 1 
0.364 -0.045 -0.014 1 
0.365 -0.024 -0.015 1 
0.362 0.044 -0.014 1 
0.362 0.053 -0.014 1 
0.362 0.057 -0.014 1 
0.364 0.064 -0.015 1 
0.364 0.068 -0.015 1 
0.362 0.084 -0.015 1 
0.364 0.094 -0.016 1 
0.362 0.104 -0.015 1 
0.361 0.105 -0.015 1 
0.361 0.124 -0.015 1 
0.356 0.133 -0.014 1 
0.353 0.166 -0.014 1 
0.353 0.172 -0.015 1 
0.353 0.182 -0.015 1 
0.384 -0.227 -0.024 1 
0.374 -0.175 -0.019 1 
0.374 -0.14 -0.018 1 
0.373 -0.116 -0.017 1 
0.37 -0.095 -0.015 1 
0.368 -0.087 -0.014 1 
0.369 -0.085 -0.015 1 
0.373 -0.075 -0.016 1 
0.37 -0.045 -0.015 1 
0.372 -0.036 -0.015 1 
0.37 -0.025 -0.015 1 
0.341 0.014 -0.005 1 
0.343 0.016 -0.005 1 
0.364 0.027 -0.013 1 
0.365 0.109 -0.014 1 
0.362 0.115 -0.014 1 
0.364 0.133 -0.015 1 
0.363 0.152 -0.015 1 
0.36 0.184 -0.016 1 
0.364 0.192 -0.018 1 
0.354 0.212 -0.015 1 
0.353 0.216 -0.015 1 
0.39 -0.238 -0.024 1 
0.382 -0.207 -0.021 1 
0.382 -0.195 -0.02 1 
0.378 -0.166 -0.018 1 
0.383 -0.155 -0.019 1 
0.38 -0.106 -0.017 1 
0.375 -0.046 -0.014 1 
0.373 -0.025 -0.014 1 
0.346 0.018 -0.005 1 
0.372 0.043 -0.014 1 
0.373 0.064 -0.015 1 
0.372 0.084 -0.015 1 
0.373 0.104 -0.015 1 
0.373 0.123 -0.016 1 
0.371 0.134 -0.015 1 
0.371 0.164 -0.016 1 
0.356 0.219 -0.015 1 
0.394 -0.266 -0.025 1 
0.394 -0.261 -0.025 1 
0.388 -0.226 -0.021 1 
0.389 -0.217 -0.021 1 
0.383 -0.125 -0.016 1 
0.384 -0.12 -0.017 1 
0.382 -0.095 -0.015 1 
0.384 -0.087 -0.016 1 
0.384 -0.075 -0.016 1 
0.382 -0.065 -0.015 1 
0.382 -0.055 -0.015 1 
0.381 -0.045 -0.015 1 
0.38 -0.039 -0.014 1 
0.381 -0.036 -0.015 1 
0.382 -0.028 -0.015 1 
0.379 -0.026 -0.014 1 
0.374 -0.016 -0.012 1 
0.374 -0.005 -0.012 1 
0.364 0.021 -0.009 1 
0.379 0.054 -0.015 1 
0.38 0.074 -0.015 1 
0.378 0.083 -0.015 1 
0.377 0.084 -0.014 1 
0.38 0.113 -0.016 1 
0.374 0.144 -0.015 1 
0.371 0.184 -0.016 1 
0.401 -0.263 -0.025 1 
0.373 0.054 -0.014 1 
0.401 -0.258 -0.024 1 
0.393 -0.205 -0.02 1 
0.39 -0.166 -0.018 1 
0.391 -0.126 -0.017 1 
0.393 -0.116 -0.017 1 
0.391 -0.105 -0.017 1 
0.38 -0.016 -0.013 1 
0.358 -0.001 -0.005 1 
0.345 0.018 -0.001 1 
0.374 0.028 -0.011 1 
0.383 0.043 -0.014 1 
0.384 0.067 -0.014 1 
0.384 0.099 -0.015 1 
0.383 0.123 -0.015 1 
0.38 0.142 -0.015 1 
0.379 0.143 -0.014 1 
0.379 0.154 -0.015 1 
0.382 0.164 -0.016 1 
0.373 0.224 -0.016 1 
0.373 0.233 -0.017 1 
0.403 -0.271 -0.023 1 
0.394 -0.158 -0.017 1 
0.394 -0.075 -0.015 1 
0.394 -0.066 -0.015 1 
0.394 -0.064 -0.015 1 
0.393 -0.046 -0.015 1 
0.394 -0.027 -0.015 1 
0.392 -0.025 -0.014 1 
0.388 -0.015 -0.013 1 
0.386 -0.011 -0.012 1 
0.379 -0.003 -0.01 1 
0.383 0.031 -0.012 1 
0.392 0.053 -0.015 1 
0.391 0.059 -0.015 1 
0.39 0.063 -0.014 1 
0.398 -0.244 -0.025 1 
0.389 0.066 -0.014 1 
0.393 0.074 -0.015 1 
0.392 0.084 -0.015 1 
0.39 0.091 -0.015 1 
0.389 0.095 -0.014 1 
0.391 0.104 -0.015 1 
0.388 0.13 -0.015 1 
0.385 0.149 -0.014 1 
0.384 0.151 -0.014 1 
0.384 0.155 -0.014 1 
0.375 0.24 -0.015 1 
0.416 -0.291 -0.026 1 
0.411 -0.265 -0.023 1 
0.413 -0.259 -0.023 1 
0.408 -0.236 -0.021 1 
0.384 -0.217 -0.021 1 
0.403 -0.226 -0.019 1 
0.41 -0.227 -0.021 1 
0.401 -0.215 -0.018 1 
0.404 -0.205 -0.019 1 
0.403 -0.195 -0.018 1 
0.402 -0.187 -0.018 1 
0.402 -0.145 -0.017 1 
0.402 -0.136 -0.016 1 
0.402 -0.105 -0.016 1 
0.4 -0.077 -0.015 1 
0.399 -0.07 -0.015 1 
0.399 -0.066 -0.014 1 
0.401 -0.056 -0.015 1 
0.4 -0.045 -0.015 1 
0.402 -0.035 -0.015 1 
0.372 -0.001 -0.006 1 
0.394 0.037 -0.013 1 
0.394 0.093 -0.014 1 
0.392 0.124 -0.014 1 
0.393 0.144 -0.015 1 
0.392 0.154 -0.015 1 
0.391 0.16 -0.014 1 
0.392 0.163 -0.015 1 
0.388 0.183 -0.015 1 
0.388 0.203 -0.015 1 
0.384 0.248 -0.016 1 
0.419 -0.295 -0.024 1 
0.394 -0.25 -0.026 1 
0.409 -0.115 -0.016 1 
0.407 -0.068 -0.015 1 
0.406 -0.066 -0.014 1 
0.404 -0.016 -0.014 1 
0.405 -0.003 -0.014 1 
0.367 -0.001 -0.003 1 
0.4 0.034 -0.013 1 
0.404 0.054 -0.014 1 
0.404 0.073 -0.014 1 
0.403 0.103 -0.015 1 
0.403 0.114 -0.015 1 
0.373 -0.106 -0.016 1 
0.401 0.12 -0.014 1 
0.402 0.122 -0.015 1 
0.401 0.129 -0.015 1 
0.399 0.154 -0.015 1 
0.393 0.194 -0.014 1 
0.391 0.201 -0.014 1 
0.394 0.216 -0.015 1 
0.391 0.243 -0.016 1 
0.424 -0.265 -0.022 1 
0.423 -0.255 -0.021 1 
0.423 -0.247 -0.021 1 
0.361 -0.006 -0.013 1 
0.414 -0.216 -0.017 1 
0.414 -0.196 -0.017 1 
0.414 -0.172 -0.016 1 
0.349 0.194 -0.016 1 
0.414 -0.143 -0.016 1 
0.414 -0.108 -0.015 1 
0.412 -0.105 -0.014 1 
0.414 -0.097 -0.015 1 
0.414 -0.086 -0.015 1 
0.414 -0.079 -0.015 1 
0.415 -0.075 -0.015 1 
0.415 -0.066 -0.015 1 
0.412 -0.045 -0.014 1 
0.415 -0.034 -0.015 1 
0.411 -0.025 -0.014 1 
0.41 0.053 -0.014 1 
0.411 0.06 -0.014 1 
0.412 0.069 -0.015 1 
0.411 0.073 -0.014 1 
0.409 0.094 -0.014 1 
0.409 0.128 -0.015 1 
0.404 0.144 -0.014 1 
0.404 0.153 -0.014 1 
0.404 0.164 -0.014 1 
0.404 0.174 -0.015 1 
0.404 0.184 -0.015 1 
0.403 0.19 -0.015 1 
0.4 0.192 -0.014 1 
0.404 0.223 -0.016 1 
0.4 0.234 -0.016 1 
0.396 0.256 -0.016 1 
0.393 0.26 -0.015 1 
0.421 -0.291 -0.02 1 
0.424 -0.235 -0.018 1 
0.424 -0.227 -0.018 1 
0.423 -0.216 -0.017 1 
0.424 -0.196 -0.017 1 
0.42 -0.156 -0.015 1 
0.422 -0.112 -0.015 1 
0.372 0.214 -0.017 1 
0.42 -0.106 -0.014 1 
0.42 -0.102 -0.014 1 
0.422 -0.096 -0.015 1 
0.421 -0.086 -0.015 1 
0.421 -0.077 -0.014 1 
0.421 -0.065 -0.014 1 
0.419 -0.055 -0.014 1 
0.42 -0.047 -0.014 1 
0.384 -0.186 -0.018 1 
0.391 -0.145 -0.017 1 
0.402 0.1 -0.014 1 
0.422 -0.035 -0.014 1 
0.419 -0.026 -0.014 1 
0.422 -0.006 -0.015 1 
0.412 0.132 -0.013 1 
0.409 0.144 -0.013 1 
0.41 0.154 -0.013 1 
0.41 0.164 -0.014 1 
0.4 0.207 -0.012 1 
0.404 -0.242 -0.022 1 
0.408 0.221 -0.015 1 
0.404 0.241 -0.015 1 
0.398 0.263 -0.014 1 
0.4 0.268 -0.015 1 
0.431 -0.305 -0.02 1 
0.434 -0.287 -0.02 1 
0.432 -0.276 -0.019 1 
0.43 -0.245 -0.018 1 
0.432 -0.197 -0.017 1 
0.424 -0.146 -0.014 1 
0.424 -0.139 -0.014 1 
0.427 -0.045 -0.014 1 
0.429 -0.006 -0.014 1 
0.358 -0.001 0.004 1 
0.419 -0.175 -0.015 1 
0.424 0.037 -0.013 1 
0.424 0.063 -0.013 1 
0.421 0.074 -0.013 1 
0.422 0.092 -0.013 1 
0.419 0.103 -0.013 1 
0.421 0.123 -0.013 1 
0.364 0.163 -0.016 1 
0.414 0.172 -0.013 1 
0.414 0.194 -0.013 1 
0.398 0.056 -0.015 1 
0.41 0.21 -0.013 1 
0.414 0.232 -0.015 1 
0.414 0.242 -0.015 1 
0.411 0.25 -0.015 1 
0.409 0.253 -0.014 1 
0.413 0.272 -0.016 1 
0.434 -0.258 -0.016 1 
0.434 -0.227 -0.016 1 
0.434 -0.217 -0.015 1 
0.434 -0.206 -0.015 1 
0.435 -0.194 -0.015 1 
0.434 -0.188 -0.015 1 
0.433 -0.185 -0.014 1 
0.432 -0.179 -0.014 1 
0.434 -0.178 -0.015 1 
0.43 -0.155 -0.013 1 
0.43 -0.145 -0.013 1 
0.431 -0.135 -0.013 1 
0.433 -0.127 -0.014 1 
0.431 -0.116 -0.013 1 
0.432 -0.106 -0.013 1 
0.433 -0.097 -0.013 1 
0.431 -0.087 -0.013 1 
0.433 -0.075 -0.013 1 
0.432 -0.065 -0.013 1 
0.432 0.043 -0.013 1 
0.432 0.053 -0.013 1 
0.422 0.154 -0.012 1 
0.421 0.164 -0.012 1 
0.419 0.173 -0.012 1 
0.415 0.282 -0.015 1 
0.444 -0.297 -0.018 1 
0.44 -0.278 -0.016 1 
0.437 -0.255 -0.015 1 
0.44 -0.235 -0.015 1 
0.439 -0.186 -0.014 1 
0.439 -0.176 -0.013 1 
0.44 -0.137 -0.013 1 
0.44 -0.075 -0.012 1 
0.439 -0.067 -0.012 1 
0.404 0.056 -0.014 1 
0.44 -0.035 -0.012 1 
0.441 -0.009 -0.013 1 
0.463 -0.004 -0.018 1 
0.434 0.063 -0.011 1 
0.432 0.072 -0.011 1 
0.434 0.082 -0.011 1 
0.414 -0.059 -0.015 1 
0.434 0.094 -0.012 1 
0.433 0.123 -0.012 1 
0.429 0.144 -0.011 1 
0.428 0.153 -0.011 1 
0.424 0.181 -0.011 1 
0.424 0.186 -0.011 1 
0.42 0.203 -0.01 1 
0.421 0.212 -0.011 1 
0.423 0.224 -0.012 1 
0.422 0.234 -0.012 1 
0.421 0.241 -0.012 1 
0.421 0.252 -0.012 1 
0.423 0.273 -0.014 1 
0.419 0.284 -0.013 1 
0.445 -0.292 -0.015 1 
0.443 -0.287 -0.014 1 
0.441 -0.258 -0.013 1 
0.44 -0.246 -0.012 1 
0.414 0.103 -0.013 1 
0.443 -0.235 -0.013 1 
0.444 -0.227 -0.013 1 
0.442 -0.215 -0.012 1 
0.444 -0.203 -0.013 1 
0.443 -0.168 -0.012 1 
0.444 -0.155 -0.012 1 
0.444 -0.152 -0.012 1 
0.442 -0.116 -0.011 1 
0.443 -0.106 -0.011 1 
0.412 -0.101 -0.014 1 
0.444 -0.101 -0.011 1 
0.422 0.083 -0.013 1 
0.444 -0.088 -0.011 1 
0.444 -0.063 -0.011 1 
0.424 0.049 -0.013 1 
0.444 -0.026 -0.011 1 
0.471 -0.007 -0.018 1 
0.468 -0.004 -0.017 1 
0.434 0.029 -0.009 1 
0.442 0.042 -0.011 1 
0.439 0.064 -0.01 1 
0.441 0.074 -0.011 1 
0.441 0.084 -0.011 1 
0.434 0.162 -0.011 1 
0.431 0.173 -0.01 1 
0.429 0.182 -0.01 1 
0.43 0.222 -0.011 1 
0.423 0.291 -0.012 1 
0.424 0.295 -0.012 1 
0.453 -0.326 -0.015 1 
0.454 -0.318 -0.015 1 
0.454 -0.301 -0.015 1 
0.444 -0.273 -0.012 1 
0.452 -0.225 -0.012 1 
0.451 -0.186 -0.011 1 
0.451 -0.156 -0.011 1 
0.452 -0.146 -0.011 1 
0.453 -0.136 -0.011 1 
0.45 -0.116 -0.01 1 
0.45 -0.106 -0.01 1 
0.451 -0.096 -0.01 1 
0.443 -0.205 -0.012 1 
0.451 -0.085 -0.01 1 
0.45 -0.065 -0.01 1 
0.451 -0.055 -0.01 1 
0.453 -0.009 -0.011 1 
0.444 0.1 -0.009 1 
0.443 0.123 -0.009 1 
0.442 0.133 -0.009 1 
0.438 0.162 -0.009 1 
0.434 0.193 -0.009 1 
0.429 0.203 -0.008 1 
0.434 0.231 -0.01 1 
0.432 0.254 -0.01 1 
0.433 0.263 -0.01 1 
0.433 0.272 -0.011 1 
0.434 0.276 -0.011 1 
0.432 0.292 -0.011 1 
0.429 0.301 -0.011 1 
0.454 -0.276 -0.011 1 
0.454 -0.261 -0.011 1 
0.452 -0.245 -0.01 1 
0.454 -0.241 -0.01 1 
0.453 -0.215 -0.01 1 
0.454 -0.207 -0.01 1 
0.454 -0.202 -0.01 1 
0.404 -0.275 -0.024 1 
0.361 -0.001 0.012 1 
0.443 0.03 -0.006 1 
0.44 0.144 -0.009 1 
0.452 0.044 -0.008 1 
0.453 0.054 -0.008 1 
0.452 0.064 -0.008 1 
0.452 0.072 -0.008 1 
0.451 0.092 -0.008 1 
0.451 0.103 -0.008 1 
0.444 0.173 -0.008 1 
0.41 0.191 -0.015 1 
0.443 0.183 -0.008 1 
0.441 0.204 -0.008 1 
0.439 0.213 -0.008 1 
0.441 0.274 -0.01 1 
0.392 0.205 -0.014 1 
0.463 -0.345 -0.012 1 
0.463 -0.338 -0.012 1 
0.383 0.183 -0.015 1 
0.464 -0.318 -0.012 1 
0.464 -0.299 -0.011 1 
0.383 -0.238 -0.027 1 
0.462 -0.057 -0.007 1 
0.474 -0.004 -0.01 1 
0.434 0.029 -0.001 1 
0.454 0.034 -0.006 1 
0.456 0.042 -0.006 1 
0.454 0.114 -0.007 1 
0.453 0.133 -0.007 1 
0.451 0.153 -0.006 1 
0.444 0.236 -0.007 1 
0.444 0.283 -0.008 1 
0.443 0.294 -0.008 1 
0.44 0.303 -0.008 1 
0.432 0.133 -0.012 1 
0.444 0.259 -0.007 1 
0.47 -0.328 -0.01 1 
0.463 -0.257 -0.007 1 
0.462 -0.216 -0.006 1 
0.464 -0.203 -0.006 1 
0.465 -0.195 -0.006 1 
0.464 -0.18 -0.006 1 
0.465 -0.175 -0.006 1 
0.464 -0.155 -0.006 1 
0.464 -0.136 -0.006 1 
0.463 -0.116 -0.005 1 
0.465 -0.087 -0.005 1 
0.463 -0.076 -0.005 1 
0.465 -0.055 -0.005 1 
0.462 -0.036 -0.005 1 
0.413 -0.185 -0.016 1 
0.476 -0.007 -0.008 1 
0.476 -0.004 -0.008 1 
0.46 0.063 -0.005 1 
0.374 0.022 -0.009 1 
0.46 0.074 -0.005 1 
0.459 0.087 -0.005 1 
0.419 -0.146 -0.015 1 
0.458 0.113 -0.005 1 
0.457 0.124 -0.005 1 
0.456 0.137 -0.005 1 
0.454 0.163 -0.005 1 
0.393 0.232 -0.016 1 
0.452 0.184 -0.005 1 
0.453 0.193 -0.005 1 
0.453 0.204 -0.005 1 
0.453 0.212 -0.006 1 
0.451 0.222 -0.005 1 
0.448 0.234 -0.005 1 
0.452 0.243 -0.006 1 
0.449 0.252 -0.006 1 
0.448 0.26 -0.006 1 
0.45 0.274 -0.006 1 
0.447 0.283 -0.006 1 
0.407 -0.036 -0.015 1 
0.443 0.31 -0.006 1 
0.442 0.315 -0.006 1 
0.474 -0.346 -0.009 1 
0.474 -0.339 -0.008 1 
0.456 0.134 -0.005 1 
0.471 -0.286 -0.006 1 
0.47 -0.276 -0.006 1 
0.47 -0.257 -0.006 1 
0.47 -0.245 -0.005 1 
0.47 -0.236 -0.005 1 
0.468 -0.226 -0.005 1 
0.467 -0.22 -0.005 1 
0.452 0.234 -0.003 1 
0.454 0.239 -0.004 1 
0.454 0.253 -0.004 1 
0.453 0.261 -0.004 1 
0.451 0.293 -0.005 1 
0.45 0.301 -0.005 1 
0.449 0.313 -0.005 1 
0.447 0.321 -0.005 1 
0.475 -0.355 -0.006 1 
0.477 -0.346 -0.006 1 
0.477 -0.335 -0.006 1 
0.476 -0.327 -0.006 1 
0.364 -0.083 -0.015 1 
0.473 -0.317 -0.005 1 
0.473 -0.307 -0.004 1 
0.451 -0.045 -0.01 1 
0.474 -0.305 -0.005 1 
0.473 -0.285 -0.004 1 
0.403 0.004 0.011 1 
0.404 -0.005 -0.014 1 
0.398 0.013 0.012 1 
0.454 0.284 -0.002 1 
0.453 0.301 -0.002 1 
0.453 0.314 -0.003 1 
0.384 -0.005 -0.012 1 
0.476 -0.004 0 1 
0.446 0 0.005 1 
0.395 -0.003 -0.013 1 
0.411 -0.012 -0.014 1 
0.411 0.013 0.012 1 
0.403 0.242 -0.014 1 
0.411 0.02 0.012 1 
0.462 0.032 0.002 1 
0.453 0.324 0 1 
0.452 0.326 0 1 
0.474 -0.215 0.002 1 
0.472 -0.205 0.002 1 
0.472 -0.196 0.002 1 
0.472 -0.185 0.002 1 
0.472 -0.176 0.002 1 
0.472 -0.167 0.003 1 
0.47 -0.155 0.003 1 
0.47 -0.147 0.003 1 
0.374 -0.206 -0.022 1 
0.42 0.113 -0.013 1 
0.469 -0.135 0.003 1 
0.467 -0.085 0.004 1 
0.467 -0.077 0.004 1 
0.408 -0.126 -0.016 1 
0.466 -0.007 0.004 1 
0.465 0.043 0.004 1 
0.462 0.083 0.004 1 
0.462 0.093 0.004 1 
0.462 0.104 0.004 1 
0.461 0.114 0.004 1 
0.461 0.153 0.004 1 
0.461 0.173 0.003 1 
0.46 0.183 0.003 1 
0.46 0.194 0.003 1 
0.461 0.204 0.003 1 
0.461 0.224 0.003 1 
0.46 0.232 0.003 1 
0.46 0.274 0.002 1 
0.48 -0.328 0.002 1 
0.477 -0.305 0.003 1 
0.478 -0.296 0.003 1 
0.476 -0.287 0.003 1 
0.475 -0.283 0.003 1 
0.474 -0.276 0.004 1 
0.474 -0.266 0.004 1 
0.474 -0.257 0.004 1 
0.475 -0.237 0.004 1 
0.474 -0.227 0.004 1 
0.403 -0.155 -0.017 1 
0.465 -0.009 0.007 1 
0.46 0.283 0.004 1 
0.459 0.291 0.004 1 
0.459 0.304 0.004 1 
0.459 0.314 0.004 1 
0.456 0.324 0.004 1 
0.459 0.334 0.003 1 
0.355 0.104 -0.014 1 
0.48 -0.338 0.004 1 
0.46 0.053 -0.005 1 
0.464 0.003 0.012 1 
0.46 -0.009 -0.01 1 
0.463 0.014 0.013 1 
0.462 0.024 0.013 1 
0.463 -0.025 -0.005 1 
0.462 0.032 0.013 1 
0.464 -0.047 -0.005 1 
0.464 -0.065 -0.005 1 
0.414 0.201 -0.011 1 
0.381 -0.145 -0.018 1 
0.461 -0.086 -0.007 1 
0.464 -0.125 -0.005 1 
0.464 -0.147 -0.006 1 
0.48 -0.349 0.004 1 
0.384 0.193 -0.014 1 
0.414 0.264 -0.013 1 
0.464 -0.166 -0.006 1 
0.46 -0.186 -0.008 1 
0.464 -0.226 -0.007 1 
0.464 -0.249 -0.007 1 
0.464 -0.289 -0.011 1 
0.444 0.253 -0.007 1 
0.464 -0.312 -0.011 1 
0.462 -0.326 -0.012 1 
0.414 0.122 -0.014 1 
0.443 -0.275 -0.011 1 
0.414 0.106 -0.013 1 
0.372 0.113 -0.015 1 
0.372 0.237 -0.016 1 
0.39 0.173 -0.015 1 
0.431 0.103 -0.011 1 
0.439 -0.268 -0.015 1 
0.439 0.094 -0.01 1 
0.443 -0.318 -0.016 1 
0.399 0.132 -0.014 1 
0.403 -0.086 -0.016 1 
0.451 0.142 -0.006 1 
0.455 -0.299 -0.015 1 
0.439 -0.245 -0.015 1 
0.469 -0.127 0.003 1 
0.411 0.002 0.012 1 
0.474 -0.251 0.004 1 
0.451 -0.017 -0.01 1 
0.362 0.113 -0.014 1 
0.394 0.018 0.013 1 
0.419 -0.015 -0.014 1 
0.46 0.244 0.002 1 
0.374 0.073 -0.015 1 
0.362 -0.066 -0.016 1 
0.439 0.154 -0.009 1 
0.475 -0.246 0.007 1 
0.397 0.017 0.012 1 
0.347 0.164 -0.014 1 
0.414 -0.037 -0.014 1 
0.363 0.144 -0.015 1 
0.475 -0.246 0.004 1 
0.424 -0.212 -0.018 1 
0.454 -0.305 -0.015 1 
0.391 -0.196 -0.019 1 
0.412 0.064 -0.015 1 
0.441 0.054 -0.01 1 
0.441 -0.045 -0.012 1 
0.4 0.252 -0.014 1 
0.357 0.203 -0.016 1 
0.37 -0.065 -0.015 1 
0.423 -0.275 -0.022 1 
0.431 0.113 -0.011 1 
0.455 -0.325 -0.016 1 
0.475 -0.258 0.001 1 
0.422 -0.04 -0.015 1 
0.436 -0.197 -0.016 1 
0.384 0.089 -0.015 1 
0.414 0.284 -0.017 1 
0.456 0.153 -0.005 1 
0.352 0.204 -0.016 1 
0.374 -0.228 -0.025 1 
0.353 -0.001 -0.005 1 
0.476 -0.007 -0.002 1 
0.392 0.139 -0.014 1 
0.406 -0.027 -0.015 1 
0.475 -0.234 0.004 1 
0.464 0.04 0.004 1 
0.374 0.15 -0.015 1 
0.38 0.234 -0.017 1 
0.398 -0.246 -0.025 1 
0.426 -0.157 -0.015 1 
0.409 -0.25 -0.024 1 
0.388 0.124 -0.015 1 
0.464 -0.001 0.004 1 
0.474 -0.242 0 1 
0.373 0.062 -0.014 1 
0.414 0.224 -0.014 1 
0.427 -0.165 -0.015 1 
0.394 -0.096 -0.015 1 
0.434 -0.235 -0.016 1 
0.373 0.094 -0.015 1 
0.472 -0.01 -0.007 1 
0.433 -0.265 -0.019 1 
0.404 -0.165 -0.018 1 
0.383 0.063 -0.014 1 
0.452 0.082 -0.008 1 
0.414 -0.146 -0.016 1 
0.464 -0.025 -0.003 1 
0.452 -0.125 -0.011 1 
0.413 -0.056 -0.014 1 
0.409 0.124 -0.015 1 
0.471 -0.296 -0.007 1 
0.423 0.133 -0.012 1 
0.454 -0.267 -0.011 1 
0.384 0.204 -0.016 1 
0.383 0.194 -0.016 1 
0.369 -0.048 -0.014 1 
0.394 0.033 -0.013 1 
0.418 -0.003 -0.016 1 
0.42 -0.166 -0.015 1 
0.476 -0.268 0.001 1 
0.387 0.254 -0.015 1 
0.463 -0.023 -0.005 1 
0.343 0 -0.005 1 
0.39 0.114 -0.015 1 
0.459 -0.34 -0.017 1 
0.421 -0.135 -0.015 1 
0.468 -0.096 0.004 1 
0.474 -0.295 -0.004 1 
0.39 -0.241 -0.025 1 
0.361 0.173 -0.016 1 
0.459 -0.266 -0.009 1 
0.398 0.054 -0.015 1 
0.409 0.183 -0.014 1 
0.449 -0.027 -0.01 1 
0.408 0.044 -0.013 1 
0.42 0.262 -0.012 1 
0.422 0.142 -0.012 1 
0.432 -0.297 -0.02 1 
0.413 -0.176 -0.016 1 
0.444 -0.285 -0.015 1 
0.403 -0.176 -0.018 1 
0.451 -0.037 -0.01 1 
0.46 0.253 0.002 1 
0.394 -0.042 -0.015 1 
0.451 -0.292 -0.014 1 
0.39 -0.175 -0.018 1 
0.4 -0.096 -0.015 1 
0.441 -0.016 -0.013 1 
0.464 -0.106 -0.005 1 
0.399 -0.064 -0.014 1 
0.397 0.084 -0.015 1 
0.413 -0.157 -0.016 1 
0.361 -0.095 -0.016 1 
0.384 -0.184 -0.018 1 
0.459 0.264 0.002 1 
0.452 -0.075 -0.01 1 
0.401 -0.127 -0.016 1 
0.38 -0.225 -0.025 1 
0.382 0.133 -0.015 1 
0.414 -0.01 -0.015 1 
0.374 -0.059 -0.014 1 
0.461 0.164 0.004 1 
0.354 -0.001 0.004 1 
0.451 -0.175 -0.011 1 
0.421 -0.186 -0.016 1 
0.363 -0.015 -0.014 1 
0.41 -0.205 -0.018 1 
0.391 0.134 -0.014 1 
0.443 -0.126 -0.011 1 
0.437 0.113 -0.01 1 
0.401 -0.266 -0.025 1 
0.391 0.047 -0.014 1 
0.404 0.167 -0.014 1 
0.406 0.173 -0.015 1 
0.444 -0.307 -0.018 1 
0.433 -0.025 -0.013 1 
0.434 -0.059 -0.013 1 
0.383 0.053 -0.014 1 
0.375 -0.218 -0.025 1 
0.384 0.223 -0.017 1 
0.417 0.273 -0.015 1 
0.465 -0.186 -0.006 1 
0.394 0.214 -0.015 1 
0.422 -0.126 -0.015 1 
0.374 -0.161 -0.018 1 
0.369 0.035 -0.015 1 
0.453 0.274 -0.004 1 
0.454 0.293 -0.002 1 
0.373 0.173 -0.016 1 
0.411 0.089 -0.015 1 
0.462 0.142 0.004 1 
0.371 0.089 -0.014 1 
0.421 -0.008 -0.014 1 
0.403 0.083 -0.014 1 
0.45 0.031 -0.002 1 
0.443 0.194 -0.008 1 
0.47 -0.266 -0.006 1 
0.402 0.249 -0.015 1 
0.465 -0.139 -0.006 1 
0.41 0.084 -0.014 1 
0.357 0.14 -0.014 1 
0.409 0.033 -0.013 1 
0.459 0.082 -0.005 1 
0.401 0.042 -0.013 1 
0.39 -0.186 -0.018 1 
0.361 -0.115 -0.016 1 
0.4 0.204 -0.012 1 
0.377 0.214 -0.017 1 
0.422 0.032 -0.013 1 
0.393 -0.085 -0.017 1 
0.411 -0.277 -0.024 1 
0.413 0.226 -0.014 1 
0.422 -0.117 -0.015 1 
0.464 -0.097 -0.005 1 
0.427 0.209 -0.007 1 
0.439 0.224 -0.008 1 
0.379 0.061 -0.015 1 
0.415 0.285 -0.015 1 
0.436 -0.234 -0.016 1 
0.465 -0.004 0.004 1 
0.478 -0.316 0.002 1 
0.464 -0.206 -0.006 1 
0.451 -0.167 -0.011 1 
0.453 0.173 -0.005 1 
0.399 -0.026 -0.015 1 
0.383 0.094 -0.014 1 
0.456 0.156 -0.005 1 
0.424 -0.134 -0.014 1 
0.46 -0.276 -0.01 1 
0.371 0.192 -0.016 1 
0.434 -0.035 -0.013 1 
0.415 -0.064 -0.015 1 
0.405 0.18 -0.015 1 
0.377 0.174 -0.015 1 
0.465 -0.095 -0.005 1 
0.454 0.122 -0.007 1 
0.462 0.213 0.003 1 
0.433 0.244 -0.01 1 
0.401 -0.116 -0.016 1 
0.443 0.233 -0.007 1 
0.432 -0.166 -0.014 1 
0.388 0.187 -0.015 1 
0.434 -0.02 -0.013 1 
0.461 -0.238 -0.009 1 
0.468 -0.015 -0.006 1 
0.41 -0.016 -0.014 1 
0.373 0.203 -0.017 1 
0.361 0.213 -0.016 1 
0.401 -0.247 -0.024 1 
0.383 -0.136 -0.017 1 
0.458 0.103 -0.005 1 
0.39 -0.136 -0.017 1 
0.373 -0.166 -0.018 1 
0.401 0.094 -0.014 1 
0.342 0.003 0.02 2 
0.341 0.014 0.019 2 
0.341 0.017 0.023 2 
0.358 -0.001 0.023 2 
0.341 0.014 0.027 2 
0.341 0.016 0.027 2 
0.342 0.003 0.028 2 
0.461 0.282 0.132 3 
0.462 0.284 0.152 3 
0.472 -0.157 0.152 3 
0.472 -0.145 0.152 3 
0.472 -0.137 0.152 3 
0.472 -0.125 0.152 3 
0.464 0.041 0.149 3 
0.464 0.172 0.15 3 
0.463 0.273 0.152 3 
0.464 0.065 0.141 3 
0.464 0.164 0.147 3 
0.472 -0.165 0.153 3 
0.475 -0.265 0.104 3 
0.473 -0.175 0.153 3 
0.473 -0.186 0.153 3 
0.473 -0.195 0.153 3 
0.475 -0.211 0.154 3 
0.485 -0.321 0.161 3 
0.485 -0.325 0.161 3 
0.485 -0.335 0.161 3 
0.466 -0.015 0.103 3 
0.464 0.051 0.047 3 
0.466 -0.006 0.152 3 
0.472 -0.117 0.154 3 
0.464 -0.007 0.012 3 
0.467 -0.015 0.152 3 
0.468 -0.025 0.152 3 
0.47 -0.056 0.153 3 
0.457 0.332 0.062 3 
0.469 -0.066 0.153 3 
0.47 -0.075 0.153 3 
0.471 -0.086 0.154 3 
0.471 -0.097 0.154 3 
0.474 -0.254 0.089 3 
0.471 -0.106 0.154 3 
0.462 0.294 0.153 3 
0.481 -0.307 0.162 3 
0.484 -0.317 0.163 3 
0.483 -0.326 0.163 3 
0.484 -0.338 0.164 3 
0.483 -0.348 0.164 3 
0.459 0.337 0.154 3 
0.459 0.333 0.153 3 
0.46 0.234 0.062 3 
0.463 0.314 0.154 3 
0.462 0.303 0.153 3 
0.463 0.152 0.133 3 
0.468 -0.066 0.144 3 
0.465 0.062 0.144 3 
0.464 0.054 0.143 3 
0.465 0.052 0.143 3 
0.465 0.041 0.143 3 
0.465 0.033 0.143 3 
0.472 -0.147 0.074 3 
0.465 0.022 0.143 3 
0.465 0.003 0.143 3 
0.467 -0.006 0.144 3 
0.467 -0.015 0.144 3 
0.467 -0.025 0.144 3 
0.466 0.074 0.144 3 
0.465 0.022 0.103 3 
0.475 -0.201 0.148 3 
0.463 0.174 0.114 3 
0.48 -0.286 0.152 3 
0.482 -0.298 0.153 3 
0.482 -0.308 0.153 3 
0.482 -0.315 0.154 3 
0.483 -0.326 0.154 3 
0.461 0.292 0.144 3 
0.462 0.284 0.144 3 
0.458 0.335 0.142 3 
0.464 0.172 0.144 3 
0.464 0.141 0.147 3 
0.464 0.133 0.147 3 
0.464 0.119 0.146 3 
0.476 -0.226 0.152 3 
0.477 -0.236 0.153 3 
0.474 -0.266 0.012 3 
0.478 -0.256 0.153 3 
0.479 -0.266 0.154 3 
0.479 -0.275 0.154 3 
0.462 0.194 0.144 3 
0.463 0.18 0.144 3 
0.464 0.15 0.147 3 
0.464 0.164 0.144 3 
0.464 0.152 0.144 3 
0.464 0.144 0.144 3 
0.464 0.133 0.144 3 
0.464 0.122 0.144 3 
0.464 0.114 0.144 3 
0.464 0.103 0.144 3 
0.465 0.095 0.144 3 
0.465 0.092 0.144 3 
0.465 0.084 0.144 3 
0.462 0.164 0.063 3 
0.484 -0.346 0.174 3 
0.472 -0.137 0.163 3 
0.472 -0.145 0.163 3 
0.473 -0.155 0.164 3 
0.474 -0.178 0.165 3 
0.474 -0.187 0.165 3 
0.482 -0.315 0.172 3 
0.484 -0.328 0.173 3 
0.47 -0.166 0.022 3 
0.485 -0.332 0.173 3 
0.485 -0.336 0.174 3 
0.484 -0.342 0.174 3 
0.472 -0.126 0.163 3 
0.485 -0.35 0.174 3 
0.46 0.339 0.163 3 
0.461 0.333 0.163 3 
0.46 0.271 0.104 3 
0.463 0.321 0.163 3 
0.463 0.311 0.162 3 
0.463 0.132 0.073 3 
0.474 -0.175 0.162 3 
0.474 -0.187 0.162 3 
0.469 -0.105 0.104 3 
0.474 -0.257 0.052 3 
0.462 0.233 0.162 3 
0.474 -0.206 0.123 3 
0.475 -0.237 0.103 3 
0.484 -0.328 0.176 3 
0.463 0.295 0.164 3 
0.463 0.292 0.164 3 
0.463 0.282 0.164 3 
0.474 -0.206 0.114 3 
0.463 0.273 0.164 3 
0.463 0.264 0.163 3 
0.462 0.254 0.163 3 
0.462 0.242 0.162 3 
0.466 -0.036 0.044 3 
0.463 0.224 0.162 3 
0.464 0.156 0.161 3 
0.464 0.147 0.16 3 
0.471 -0.067 0.162 3 
0.461 0.294 0.113 3 
0.472 -0.075 0.162 3 
0.472 -0.086 0.162 3 
0.472 -0.095 0.163 3 
0.472 -0.106 0.163 3 
0.459 0.282 0.024 3 
0.473 -0.115 0.163 3 
0.465 0.142 0.152 3 
0.462 0.253 0.154 3 
0.461 0.243 0.154 3 
0.461 0.232 0.153 3 
0.462 0.223 0.153 3 
0.463 0.212 0.153 3 
0.461 0.274 0.062 3 
0.463 0.192 0.153 3 
0.464 0.184 0.153 3 
0.465 0.173 0.153 3 
0.465 0.164 0.153 3 
0.465 0.153 0.153 3 
0.462 0.153 0.033 3 
0.465 0.134 0.152 3 
0.465 0.123 0.152 3 
0.465 0.032 0.063 3 
0.465 0.114 0.152 3 
0.465 0.103 0.152 3 
0.465 0.092 0.152 3 
0.477 -0.267 0.142 3 
0.465 0.084 0.152 3 
0.464 0.052 0.151 3 
0.465 0.044 0.152 3 
0.466 0.022 0.152 3 
0.465 0.03 0.154 3 
0.475 -0.196 0.163 3 
0.475 -0.205 0.163 3 
0.476 -0.215 0.164 3 
0.474 -0.257 0.041 3 
0.477 -0.227 0.164 3 
0.477 -0.236 0.164 3 
0.477 -0.246 0.164 3 
0.465 0.073 0.154 3 
0.465 0.063 0.154 3 
0.464 0.064 0.073 3 
0.465 0.054 0.154 3 
0.466 0.014 0.152 3 
0.474 -0.196 0.159 3 
0.474 -0.208 0.16 3 
0.471 -0.167 0.033 3 
0.478 -0.256 0.162 3 
0.478 -0.265 0.162 3 
0.479 -0.276 0.163 3 
0.462 0.303 0.144 3 
0.479 -0.286 0.164 3 
0.479 -0.295 0.164 3 
0.462 0.259 0.154 3 
0.463 0.102 0.124 3 
0.477 -0.245 0.133 3 
0.477 -0.257 0.133 3 
0.476 -0.266 0.133 3 
0.482 -0.346 0.064 3 
0.471 -0.167 0.044 3 
0.477 -0.276 0.133 3 
0.479 -0.288 0.134 3 
0.485 -0.338 0.137 3 
0.485 -0.345 0.137 3 
0.463 0.124 0.124 3 
0.463 0.105 0.124 3 
0.477 -0.236 0.132 3 
0.463 0.094 0.124 3 
0.463 0.083 0.124 3 
0.463 0.062 0.124 3 
0.464 0.054 0.124 3 
0.464 0.043 0.124 3 
0.464 0.033 0.124 3 
0.464 0.022 0.124 3 
0.465 0.017 0.124 3 
0.469 -0.157 0.014 3 
0.465 0.009 0.124 3 
0.465 0.001 0.124 3 
0.471 -0.156 0.133 3 
0.462 0.302 0.133 3 
0.46 0.291 0.132 3 
0.462 0.262 0.132 3 
0.465 0.057 0.13 3 
0.464 0.041 0.13 3 
0.461 0.244 0.062 3 
0.47 -0.116 0.132 3 
0.471 -0.125 0.132 3 
0.479 -0.323 0.034 3 
0.471 -0.136 0.132 3 
0.471 -0.145 0.132 3 
0.465 -0.076 0.012 3 
0.472 -0.165 0.133 3 
0.473 -0.177 0.133 3 
0.474 -0.186 0.133 3 
0.474 -0.195 0.134 3 
0.475 -0.201 0.134 3 
0.476 -0.208 0.134 3 
0.465 0.014 0.092 3 
0.458 0.335 0.13 3 
0.475 -0.216 0.131 3 
0.465 0.081 0.06 3 
0.475 -0.225 0.132 3 
0.471 -0.136 0.124 3 
0.466 -0.066 0.023 3 
0.463 0.132 0.122 3 
0.466 -0.015 0.122 3 
0.467 -0.025 0.122 3 
0.467 -0.036 0.122 3 
0.467 -0.047 0.122 3 
0.467 -0.055 0.122 3 
0.469 -0.077 0.123 3 
0.469 -0.085 0.123 3 
0.47 -0.105 0.123 3 
0.471 -0.125 0.124 3 
0.463 0.143 0.122 3 
0.471 -0.145 0.124 3 
0.472 -0.156 0.124 3 
0.458 0.334 0.122 3 
0.461 0.324 0.122 3 
0.462 0.312 0.122 3 
0.472 -0.165 0.122 3 
0.473 -0.176 0.122 3 
0.474 -0.186 0.122 3 
0.474 -0.195 0.122 3 
0.475 -0.201 0.123 3 
0.461 0.343 0.193 3 
0.461 0.273 0.124 3 
0.465 -0.006 0.124 3 
0.479 -0.298 0.131 3 
0.48 -0.305 0.132 3 
0.482 -0.317 0.133 3 
0.483 -0.325 0.133 3 
0.484 -0.337 0.134 3 
0.485 -0.341 0.134 3 
0.484 -0.347 0.134 3 
0.462 0.302 0.124 3 
0.461 0.292 0.124 3 
0.461 0.282 0.124 3 
0.461 0.314 0.133 3 
0.461 0.264 0.123 3 
0.461 0.243 0.123 3 
0.461 0.234 0.123 3 
0.46 0.224 0.123 3 
0.462 0.202 0.122 3 
0.462 0.193 0.122 3 
0.463 0.182 0.122 3 
0.463 0.174 0.122 3 
0.463 0.163 0.122 3 
0.463 0.154 0.122 3 
0.462 0.184 0.054 3 
0.477 -0.245 0.144 3 
0.464 0.092 0.138 3 
0.464 0.084 0.138 3 
0.464 0.062 0.138 3 
0.464 0.019 0.138 3 
0.475 -0.201 0.143 3 
0.472 -0.167 0.094 3 
0.463 0.134 0.004 3 
0.475 -0.207 0.143 3 
0.475 -0.216 0.143 3 
0.476 -0.226 0.143 3 
0.477 -0.236 0.144 3 
0.477 -0.298 0.014 3 
0.477 -0.258 0.144 3 
0.485 -0.349 0.15 3 
0.469 -0.085 0.134 3 
0.478 -0.277 0.142 3 
0.479 -0.285 0.143 3 
0.471 -0.207 0.013 3 
0.481 -0.297 0.144 3 
0.462 0.204 0.092 3 
0.481 -0.307 0.144 3 
0.461 0.249 0.134 3 
0.479 -0.307 0.084 3 
0.471 -0.117 0.143 3 
0.463 0.263 0.143 3 
0.46 0.242 0.142 3 
0.461 0.234 0.142 3 
0.462 0.223 0.142 3 
0.462 0.214 0.142 3 
0.464 0.033 0.14 3 
0.469 -0.047 0.142 3 
0.469 -0.055 0.142 3 
0.469 -0.077 0.142 3 
0.47 -0.086 0.142 3 
0.47 -0.105 0.143 3 
0.46 0.242 0.134 3 
0.471 -0.125 0.143 3 
0.472 -0.145 0.144 3 
0.472 -0.157 0.144 3 
0.472 -0.165 0.144 3 
0.472 -0.177 0.144 3 
0.472 -0.185 0.144 3 
0.484 -0.337 0.152 3 
0.484 -0.345 0.152 3 
0.459 0.333 0.142 3 
0.462 0.323 0.142 3 
0.462 0.313 0.142 3 
0.468 -0.047 0.133 3 
0.465 0.044 0.133 3 
0.465 0.033 0.133 3 
0.464 0.03 0.132 3 
0.464 0.022 0.132 3 
0.465 0.014 0.133 3 
0.466 0.003 0.133 3 
0.466 -0.006 0.133 3 
0.473 -0.217 0.064 3 
0.466 -0.017 0.133 3 
0.467 -0.025 0.133 3 
0.468 -0.036 0.133 3 
0.465 0.052 0.133 3 
0.468 -0.055 0.133 3 
0.468 -0.066 0.133 3 
0.468 -0.077 0.134 3 
0.469 -0.096 0.134 3 
0.482 -0.318 0.142 3 
0.483 -0.325 0.142 3 
0.484 -0.337 0.143 3 
0.484 -0.348 0.143 3 
0.457 0.334 0.133 3 
0.461 0.324 0.133 3 
0.468 -0.107 0.004 3 
0.463 0.143 0.133 3 
0.46 0.251 0.123 3 
0.466 0.014 0.063 3 
0.46 0.233 0.134 3 
0.461 0.222 0.134 3 
0.462 0.214 0.134 3 
0.462 0.203 0.134 3 
0.462 0.193 0.133 3 
0.471 -0.147 0.052 3 
0.463 0.183 0.133 3 
0.463 0.174 0.133 3 
0.463 0.163 0.133 3 
0.462 0.274 0.144 3 
0.463 0.132 0.133 3 
0.465 0.059 0.063 3 
0.463 0.124 0.133 3 
0.466 -0.095 0.012 3 
0.463 0.113 0.132 3 
0.463 0.102 0.132 3 
0.463 0.094 0.132 3 
0.464 0.084 0.133 3 
0.464 0.073 0.132 3 
0.464 0.062 0.132 3 
0.464 0.054 0.132 3 
0.474 -0.065 0.185 3 
0.478 -0.315 0.014 3 
0.47 0.034 0.184 3 
0.472 0.023 0.184 3 
0.471 0.014 0.184 3 
0.46 0.302 0.082 3 
0.471 0.003 0.184 3 
0.472 -0.007 0.184 3 
0.481 -0.316 0.123 3 
0.471 -0.02 0.184 3 
0.471 -0.026 0.184 3 
0.471 -0.037 0.173 3 
0.466 0.112 0.163 3 
0.465 0.212 0.174 3 
0.48 -0.228 0.192 3 
0.479 -0.237 0.192 3 
0.479 -0.246 0.192 3 
0.461 0.262 0.062 3 
0.481 -0.256 0.193 3 
0.467 -0.077 0.074 3 
0.482 -0.267 0.194 3 
0.465 0.276 0.184 3 
0.465 0.273 0.184 3 
0.473 -0.226 0.052 3 
0.469 0.122 0.184 3 
0.488 -0.345 0.203 3 
0.465 0.337 0.191 3 
0.468 0.332 0.192 3 
0.471 -0.147 0.094 3 
0.465 0.192 0.184 3 
0.467 0.164 0.184 3 
0.467 0.153 0.184 3 
0.462 0.197 0.144 3 
0.468 0.144 0.184 3 
0.468 0.133 0.184 3 
0.477 -0.276 0.122 3 
0.465 0.263 0.184 3 
0.469 -0.105 0.134 3 
0.469 0.114 0.184 3 
0.468 0.102 0.183 3 
0.469 0.094 0.184 3 
0.465 -0.036 0.004 3 
0.47 0.083 0.184 3 
0.465 0.043 0.074 3 
0.47 0.072 0.184 3 
0.471 0.064 0.184 3 
0.471 0.045 0.184 3 
0.471 0.042 0.184 3 
0.475 -0.136 0.184 3 
0.465 0.003 0.092 3 
0.475 -0.085 0.183 3 
0.474 -0.087 0.183 3 
0.474 -0.096 0.183 3 
0.464 0.043 0.143 3 
0.475 -0.104 0.183 3 
0.462 0.204 0.103 3 
0.475 -0.107 0.184 3 
0.472 -0.167 0.102 3 
0.476 -0.116 0.184 3 
0.475 -0.127 0.184 3 
0.475 -0.076 0.183 3 
0.461 0.273 0.132 3 
0.483 -0.277 0.192 3 
0.482 -0.286 0.192 3 
0.483 -0.297 0.192 3 
0.485 -0.306 0.194 3 
0.461 0.341 0.184 3 
0.467 0.003 0.152 3 
0.465 0.318 0.184 3 
0.466 0.312 0.184 3 
0.46 0.293 0.093 3 
0.466 0.302 0.183 3 
0.465 0.038 0.103 3 
0.465 0.254 0.184 3 
0.464 0.247 0.183 3 
0.468 -0.066 0.123 3 
0.464 0.244 0.183 3 
0.465 0.239 0.183 3 
0.465 0.233 0.183 3 
0.466 0.224 0.183 3 
0.463 0.083 0.073 3 
0.467 0.213 0.183 3 
0.461 0.213 0.123 3 
0.466 0.204 0.182 3 
0.488 -0.337 0.203 3 
0.466 0.183 0.182 3 
0.467 0.172 0.182 3 
0.474 -0.167 0.17 3 
0.471 -0.136 0.143 3 
0.471 -0.037 0.181 3 
0.472 -0.045 0.182 3 
0.467 -0.055 0.063 3 
0.473 -0.056 0.182 3 
0.474 -0.065 0.183 3 
0.475 -0.071 0.183 3 
0.464 0.03 0.047 3 
0.47 0.094 0.187 3 
0.468 0.173 0.188 3 
0.467 0.164 0.187 3 
0.467 0.153 0.187 3 
0.46 0.284 0.093 3 
0.469 0.142 0.187 3 
0.469 0.133 0.187 3 
0.463 0.064 0.113 3 
0.47 0.122 0.187 3 
0.471 0.072 0.187 3 
0.47 0.114 0.187 3 
0.469 0.102 0.187 3 
0.468 0.182 0.188 3 
0.471 0.084 0.187 3 
0.472 0.064 0.187 3 
0.473 0.053 0.188 3 
0.473 0.042 0.188 3 
0.472 0.034 0.187 3 
0.473 0.023 0.188 3 
0.472 0.012 0.187 3 
0.471 0.003 0.187 3 
0.473 -0.007 0.188 3 
0.473 -0.015 0.188 3 
0.473 -0.026 0.188 3 
0.467 0.284 0.191 3 
0.469 -0.096 0.123 3 
0.476 -0.288 0.093 3 
0.466 0.338 0.195 3 
0.467 0.332 0.195 3 
0.47 0.324 0.195 3 
0.472 -0.156 0.102 3 
0.469 0.319 0.194 3 
0.468 0.312 0.193 3 
0.467 0.304 0.193 3 
0.463 0.182 0.114 3 
0.467 0.294 0.192 3 
0.473 -0.037 0.188 3 
0.468 0.272 0.191 3 
0.468 0.263 0.191 3 
0.466 0.252 0.19 3 
0.466 0.243 0.189 3 
0.466 0.234 0.189 3 
0.467 0.222 0.189 3 
0.468 -0.036 0.144 3 
0.467 0.213 0.189 3 
0.477 -0.298 0.023 3 
0.466 0.204 0.188 3 
0.468 0.194 0.188 3 
0.484 -0.275 0.198 3 
0.478 -0.175 0.192 3 
0.481 -0.186 0.194 3 
0.48 -0.197 0.194 3 
0.48 -0.207 0.194 3 
0.472 -0.126 0.174 3 
0.48 -0.216 0.194 3 
0.481 -0.226 0.195 3 
0.481 -0.235 0.195 3 
0.481 -0.248 0.196 3 
0.482 -0.257 0.196 3 
0.483 -0.268 0.197 3 
0.468 -0.066 0.074 3 
0.459 0.321 0.054 3 
0.485 -0.282 0.199 3 
0.473 -0.195 0.142 3 
0.485 -0.286 0.199 3 
0.484 -0.288 0.199 3 
0.484 -0.295 0.199 3 
0.486 -0.3 0.2 3 
0.471 -0.175 0.052 3 
0.486 -0.307 0.2 3 
0.487 -0.315 0.201 3 
0.488 -0.327 0.202 3 
0.477 -0.117 0.19 3 
0.473 -0.045 0.188 3 
0.474 -0.057 0.188 3 
0.475 -0.062 0.189 3 
0.474 -0.205 0.154 3 
0.475 -0.065 0.189 3 
0.468 -0.132 0.014 3 
0.477 -0.077 0.19 3 
0.47 -0.045 0.153 3 
0.476 -0.085 0.189 3 
0.475 -0.096 0.189 3 
0.477 -0.105 0.19 3 
0.466 0.293 0.183 3 
0.48 -0.355 0.052 3 
0.477 -0.125 0.19 3 
0.468 -0.036 0.152 3 
0.478 -0.137 0.191 3 
0.464 0.033 0.149 3 
0.463 0.094 0.103 3 
0.48 -0.315 0.102 3 
0.479 -0.146 0.192 3 
0.478 -0.155 0.192 3 
0.465 0.335 0.182 3 
0.477 -0.166 0.191 3 
0.484 -0.318 0.182 3 
0.473 -0.135 0.172 3 
0.463 0.324 0.154 3 
0.473 -0.146 0.172 3 
0.474 -0.155 0.173 3 
0.475 -0.167 0.173 3 
0.468 -0.096 0.052 3 
0.475 -0.176 0.174 3 
0.476 -0.186 0.174 3 
0.466 -0.087 0.012 3 
0.483 -0.307 0.181 3 
0.464 0.054 0.004 3 
0.465 0.035 0.106 3 
0.473 -0.185 0.094 3 
0.485 -0.322 0.182 3 
0.486 -0.327 0.183 3 
0.477 -0.295 0.064 3 
0.46 0.243 0.054 3 
0.486 -0.338 0.183 3 
0.486 -0.345 0.184 3 
0.464 0.176 0.167 3 
0.464 0.17 0.167 3 
0.475 -0.197 0.171 3 
0.476 -0.206 0.172 3 
0.464 0.303 0.174 3 
0.473 -0.115 0.174 3 
0.474 -0.167 0.176 3 
0.481 -0.275 0.182 3 
0.482 -0.286 0.182 3 
0.484 -0.298 0.184 3 
0.485 -0.305 0.184 3 
0.46 0.339 0.174 3 
0.461 0.334 0.174 3 
0.464 0.316 0.174 3 
0.464 0.313 0.174 3 
0.471 -0.175 0.033 3 
0.477 -0.216 0.173 3 
0.465 0.301 0.174 3 
0.465 0.294 0.174 3 
0.464 0.284 0.173 3 
0.463 -0.025 0.013 3 
0.464 0.274 0.173 3 
0.463 0.261 0.172 3 
0.46 0.301 0.032 3 
0.464 0.214 0.171 3 
0.464 0.202 0.17 3 
0.46 0.282 0.043 3 
0.464 0.19 0.17 3 
0.468 0.003 0.163 3 
0.466 0.123 0.163 3 
0.465 0.103 0.163 3 
0.466 0.093 0.163 3 
0.466 0.082 0.163 3 
0.466 0.074 0.163 3 
0.466 0.063 0.163 3 
0.468 0.044 0.164 3 
0.468 0.033 0.164 3 
0.481 -0.328 0.082 3 
0.469 0.022 0.164 3 
0.468 0.014 0.163 3 
0.465 0.134 0.163 3 
0.468 -0.006 0.164 3 
0.468 -0.015 0.164 3 
0.47 -0.026 0.164 3 
0.47 -0.037 0.164 3 
0.47 -0.045 0.164 3 
0.47 -0.056 0.164 3 
0.479 -0.266 0.172 3 
0.463 0.102 0.084 3 
0.48 -0.277 0.172 3 
0.48 -0.287 0.173 3 
0.481 -0.298 0.174 3 
0.464 0.196 0.164 3 
0.474 -0.167 0.164 3 
0.475 -0.216 0.151 3 
0.477 -0.225 0.173 3 
0.463 0.062 0.092 3 
0.477 -0.237 0.173 3 
0.478 -0.247 0.174 3 
0.473 -0.205 0.083 3 
0.479 -0.257 0.174 3 
0.463 0.292 0.167 3 
0.463 0.207 0.164 3 
0.478 -0.315 0.043 3 
0.461 0.242 0.104 3 
0.465 -0.047 0.004 3 
0.464 0.193 0.164 3 
0.464 0.182 0.164 3 
0.465 0.179 0.164 3 
0.471 -0.116 0.124 3 
0.464 0.173 0.164 3 
0.465 0.167 0.164 3 
0.465 0.162 0.164 3 
0.466 -0.036 0.103 3 
0.465 0.153 0.164 3 
0.465 0.142 0.163 3 
0.474 -0.155 0.178 3 
0.464 0.317 0.18 3 
0.463 0.274 0.178 3 
0.464 0.22 0.176 3 
0.464 0.1 0.146 3 
0.466 0.104 0.174 3 
0.467 0.071 0.174 3 
0.474 -0.115 0.178 3 
0.474 -0.127 0.178 3 
0.474 -0.135 0.178 3 
0.474 -0.152 0.178 3 
0.46 0.203 0.033 3 
0.466 0.333 0.182 3 
0.478 -0.217 0.182 3 
0.471 -0.175 0.074 3 
0.465 0.054 0.001 3 
0.478 -0.226 0.182 3 
0.478 -0.235 0.182 3 
0.479 -0.245 0.183 3 
0.48 -0.258 0.184 3 
0.48 -0.265 0.184 3 
0.464 0.334 0.178 3 
0.464 0.313 0.177 3 
0.464 0.294 0.176 3 
0.478 -0.196 0.184 3 
0.464 0.284 0.182 3 
0.474 -0.076 0.18 3 
0.462 0.302 0.113 3 
0.474 -0.107 0.18 3 
0.476 -0.148 0.182 3 
0.475 -0.156 0.182 3 
0.477 -0.356 0.013 3 
0.475 -0.165 0.182 3 
0.477 -0.177 0.183 3 
0.478 -0.187 0.184 3 
0.465 0.054 0.074 3 
0.464 0.262 0.175 3 
0.465 0.014 0.143 3 
0.478 -0.205 0.184 3 
0.463 0.073 0.124 3 
0.485 -0.302 0.19 3 
0.473 -0.205 0.044 3 
0.486 -0.317 0.192 3 
0.487 -0.325 0.192 3 
0.472 -0.196 0.052 3 
0.487 -0.336 0.193 3 
0.488 -0.348 0.194 3 
0.466 -0.007 0.044 3 
0.47 -0.015 0.173 3 
0.467 0.063 0.172 3 
0.464 0.204 0.154 3 
0.468 0.052 0.172 3 
0.468 0.044 0.172 3 
0.46 0.312 0.093 3 
0.469 0.033 0.172 3 
0.467 0.052 0.163 3 
0.47 0.023 0.173 3 
0.469 0.014 0.172 3 
0.469 0.003 0.172 3 
0.469 -0.007 0.172 3 
0.467 0.082 0.172 3 
0.47 -0.026 0.173 3 
0.46 0.103 0.013 3 
0.471 -0.045 0.173 3 
0.471 -0.056 0.173 3 
0.466 0.003 0.103 3 
0.472 -0.067 0.173 3 
0.46 0.214 0.014 3 
0.473 -0.076 0.174 3 
0.473 -0.087 0.174 3 
0.472 -0.095 0.174 3 
0.473 -0.106 0.174 3 
0.465 0.183 0.173 3 
0.464 0.25 0.174 3 
0.464 0.244 0.174 3 
0.465 0.179 0.153 3 
0.464 0.232 0.174 3 
0.465 0.226 0.174 3 
0.465 0.223 0.174 3 
0.464 0.22 0.174 3 
0.465 0.203 0.173 3 
0.461 0.252 0.143 3 
0.465 0.194 0.173 3 
0.46 0.273 0.032 3 
0.482 -0.305 0.174 3 
0.465 0.174 0.173 3 
0.465 0.163 0.172 3 
0.465 0.154 0.172 3 
0.466 0.143 0.172 3 
0.467 0.132 0.172 3 
0.477 -0.245 0.153 3 
0.468 0.124 0.173 3 
0.47 -0.097 0.143 3 
0.467 0.113 0.172 3 
0.467 0.093 0.172 3 
0.461 0.224 0.022 3 
0.48 -0.337 0.052 3 
0.464 0.072 0.05 3 
0.456 0.331 0.043 3 
0.459 0.324 0.043 3 
0.458 0.313 0.043 3 
0.458 0.303 0.043 3 
0.467 -0.066 0.044 3 
0.459 0.294 0.043 3 
0.46 0.273 0.043 3 
0.46 0.261 0.043 3 
0.467 -0.055 0.034 3 
0.48 -0.327 0.052 3 
0.46 0.252 0.043 3 
0.46 0.243 0.043 3 
0.46 0.223 0.044 3 
0.46 0.214 0.044 3 
0.461 0.203 0.044 3 
0.461 0.192 0.044 3 
0.461 0.183 0.044 3 
0.461 0.172 0.044 3 
0.461 0.164 0.044 3 
0.462 0.153 0.044 3 
0.462 0.142 0.044 3 
0.472 -0.187 0.052 3 
0.467 -0.047 0.052 3 
0.467 -0.055 0.052 3 
0.467 -0.066 0.052 3 
0.468 -0.077 0.052 3 
0.468 -0.085 0.052 3 
0.469 -0.107 0.052 3 
0.469 -0.115 0.052 3 
0.47 -0.127 0.052 3 
0.47 -0.135 0.052 3 
0.471 -0.155 0.052 3 
0.471 -0.166 0.052 3 
0.462 0.134 0.044 3 
0.473 -0.217 0.052 3 
0.474 -0.236 0.052 3 
0.475 -0.243 0.052 3 
0.474 -0.245 0.052 3 
0.475 -0.252 0.052 3 
0.475 -0.268 0.052 3 
0.475 -0.277 0.052 3 
0.476 -0.287 0.052 3 
0.477 -0.297 0.052 3 
0.478 -0.305 0.052 3 
0.478 -0.315 0.052 3 
0.474 -0.267 0.044 3 
0.47 -0.146 0.044 3 
0.471 -0.155 0.044 3 
0.471 -0.175 0.044 3 
0.472 -0.187 0.044 3 
0.473 -0.197 0.044 3 
0.473 -0.217 0.044 3 
0.473 -0.226 0.044 3 
0.474 -0.236 0.044 3 
0.475 -0.243 0.044 3 
0.475 -0.246 0.044 3 
0.474 -0.251 0.044 3 
0.47 -0.135 0.044 3 
0.475 -0.271 0.044 3 
0.476 -0.278 0.044 3 
0.478 -0.295 0.044 3 
0.478 -0.308 0.043 3 
0.479 -0.326 0.043 3 
0.48 -0.348 0.043 3 
0.48 -0.355 0.043 3 
0.464 0.054 0.039 3 
0.464 0.043 0.039 3 
0.464 0.024 0.039 3 
0.456 0.331 0.034 3 
0.465 0.027 0.044 3 
0.463 0.124 0.044 3 
0.463 0.113 0.044 3 
0.464 0.102 0.044 3 
0.463 0.093 0.044 3 
0.464 0.083 0.044 3 
0.464 0.072 0.044 3 
0.467 -0.055 0.044 3 
0.464 0.062 0.044 3 
0.465 0.054 0.044 3 
0.465 0.043 0.044 3 
0.464 0.032 0.044 3 
0.466 -0.036 0.052 3 
0.465 0.024 0.044 3 
0.465 0.014 0.044 3 
0.466 0.003 0.044 3 
0.466 -0.015 0.044 3 
0.466 -0.025 0.044 3 
0.467 -0.047 0.044 3 
0.467 -0.077 0.044 3 
0.468 -0.085 0.044 3 
0.469 -0.096 0.044 3 
0.469 -0.107 0.044 3 
0.469 -0.115 0.044 3 
0.461 0.164 0.033 3 
0.464 0.064 0.063 3 
0.465 0.054 0.063 3 
0.465 0.043 0.063 3 
0.465 0.024 0.063 3 
0.465 0.003 0.063 3 
0.465 -0.007 0.063 3 
0.466 -0.015 0.063 3 
0.467 -0.025 0.063 3 
0.467 -0.036 0.063 3 
0.468 -0.047 0.063 3 
0.468 -0.066 0.063 3 
0.465 0.07 0.063 3 
0.468 -0.077 0.063 3 
0.468 -0.085 0.063 3 
0.47 -0.097 0.063 3 
0.469 -0.107 0.063 3 
0.47 -0.116 0.063 3 
0.481 -0.345 0.052 3 
0.471 -0.127 0.063 3 
0.471 -0.135 0.063 3 
0.471 -0.147 0.063 3 
0.471 -0.155 0.063 3 
0.471 -0.166 0.063 3 
0.462 0.193 0.063 3 
0.481 -0.356 0.073 3 
0.474 -0.276 0.067 3 
0.46 0.322 0.062 3 
0.459 0.314 0.062 3 
0.459 0.304 0.062 3 
0.46 0.293 0.062 3 
0.46 0.283 0.062 3 
0.461 0.253 0.062 3 
0.461 0.223 0.063 3 
0.461 0.212 0.063 3 
0.461 0.203 0.063 3 
0.472 -0.187 0.063 3 
0.462 0.184 0.063 3 
0.462 0.173 0.063 3 
0.463 -0.036 0.013 3 
0.464 0.143 0.063 3 
0.464 0.132 0.063 3 
0.464 0.124 0.063 3 
0.463 0.113 0.063 3 
0.464 0.102 0.063 3 
0.464 0.094 0.063 3 
0.463 0.083 0.063 3 
0.464 0.072 0.063 3 
0.465 0.073 0.052 3 
0.461 0.212 0.054 3 
0.462 0.204 0.054 3 
0.461 0.192 0.054 3 
0.475 -0.24 0.055 3 
0.462 0.173 0.052 3 
0.462 0.164 0.052 3 
0.462 0.142 0.052 3 
0.463 0.132 0.052 3 
0.463 0.124 0.052 3 
0.463 0.113 0.052 3 
0.464 0.083 0.052 3 
0.461 0.223 0.054 3 
0.465 0.064 0.052 3 
0.465 0.054 0.052 3 
0.465 0.043 0.052 3 
0.465 0.032 0.052 3 
0.465 0.024 0.052 3 
0.465 0.014 0.052 3 
0.465 0.003 0.052 3 
0.466 -0.007 0.052 3 
0.466 -0.015 0.052 3 
0.466 -0.025 0.052 3 
0.459 0.282 0.013 3 
0.48 -0.327 0.064 3 
0.473 -0.205 0.064 3 
0.473 -0.226 0.064 3 
0.474 -0.236 0.064 3 
0.474 -0.245 0.064 3 
0.475 -0.255 0.064 3 
0.474 -0.257 0.064 3 
0.474 -0.267 0.064 3 
0.475 -0.277 0.064 3 
0.476 -0.287 0.064 3 
0.478 -0.306 0.064 3 
0.479 -0.316 0.064 3 
0.459 0.324 0.034 3 
0.481 -0.335 0.064 3 
0.48 -0.355 0.064 3 
0.462 0.153 0.052 3 
0.475 -0.271 0.061 3 
0.475 -0.252 0.058 3 
0.459 0.304 0.054 3 
0.459 0.292 0.054 3 
0.46 0.282 0.054 3 
0.46 0.264 0.054 3 
0.461 0.253 0.054 3 
0.46 0.234 0.054 3 
0.479 -0.326 0.014 3 
0.47 -0.146 0.022 3 
0.47 -0.155 0.022 3 
0.47 -0.175 0.022 3 
0.471 -0.187 0.022 3 
0.471 -0.195 0.022 3 
0.464 -0.028 0.02 3 
0.464 -0.036 0.02 3 
0.464 -0.047 0.02 3 
0.474 -0.269 0.018 3 
0.464 -0.055 0.018 3 
0.478 -0.309 0.014 3 
0.469 -0.135 0.022 3 
0.479 -0.337 0.014 3 
0.479 -0.347 0.013 3 
0.456 0.33 0.012 3 
0.456 0.323 0.012 3 
0.458 0.313 0.012 3 
0.459 0.304 0.012 3 
0.459 0.294 0.012 3 
0.458 0.263 0.013 3 
0.459 0.254 0.013 3 
0.459 0.243 0.013 3 
0.458 0.233 0.014 3 
0.465 -0.007 0.023 3 
0.462 0.112 0.023 3 
0.462 0.104 0.023 3 
0.463 0.094 0.023 3 
0.464 0.083 0.023 3 
0.463 0.072 0.023 3 
0.463 0.064 0.023 3 
0.463 0.053 0.023 3 
0.463 0.043 0.023 3 
0.463 0.032 0.023 3 
0.464 0.024 0.023 3 
0.465 0.003 0.023 3 
0.459 0.222 0.014 3 
0.465 -0.015 0.023 3 
0.465 -0.025 0.023 3 
0.465 -0.036 0.023 3 
0.465 -0.047 0.023 3 
0.465 -0.055 0.023 3 
0.467 -0.076 0.023 3 
0.467 -0.085 0.023 3 
0.468 -0.096 0.023 3 
0.468 -0.107 0.023 3 
0.469 -0.115 0.023 3 
0.469 -0.126 0.023 3 
0.465 -0.025 0.007 3 
0.461 0.064 0.013 3 
0.462 0.053 0.013 3 
0.462 0.043 0.013 3 
0.463 -0.046 0.013 3 
0.465 -0.057 0.012 3 
0.465 -0.065 0.012 3 
0.467 -0.106 0.012 3 
0.467 -0.115 0.012 3 
0.474 -0.279 0.009 3 
0.477 -0.356 0.004 3 
0.465 -0.015 0.007 3 
0.461 0.074 0.013 3 
0.466 -0.052 0.007 3 
0.462 0.123 0.004 3 
0.462 0.072 0.004 3 
0.463 0.064 0.004 3 
0.466 -0.015 0.004 3 
0.465 -0.025 0.004 3 
0.464 -0.041 0.004 3 
0.466 -0.055 0.004 3 
0.467 -0.066 0.004 3 
0.469 -0.115 0.004 3 
0.465 0.065 0.001 3 
0.471 -0.196 0.014 3 
0.46 0.203 0.014 3 
0.459 0.194 0.014 3 
0.459 0.182 0.014 3 
0.459 0.174 0.014 3 
0.46 0.164 0.014 3 
0.464 -0.009 0.015 3 
0.468 -0.137 0.014 3 
0.468 -0.145 0.014 3 
0.469 -0.166 0.014 3 
0.47 -0.178 0.014 3 
0.47 -0.186 0.014 3 
0.463 0.123 0.023 3 
0.471 -0.216 0.013 3 
0.472 -0.226 0.013 3 
0.473 -0.236 0.013 3 
0.473 -0.245 0.013 3 
0.474 -0.257 0.013 3 
0.475 -0.277 0.012 3 
0.476 -0.287 0.012 3 
0.459 0.152 0.012 3 
0.461 0.133 0.012 3 
0.46 0.093 0.013 3 
0.461 0.082 0.013 3 
0.466 -0.025 0.034 3 
0.463 0.072 0.034 3 
0.463 0.064 0.034 3 
0.464 0.054 0.034 3 
0.464 0.043 0.034 3 
0.464 0.032 0.034 3 
0.464 0.024 0.034 3 
0.465 0.019 0.034 3 
0.466 0.014 0.034 3 
0.466 0.003 0.034 3 
0.466 -0.007 0.034 3 
0.466 -0.015 0.034 3 
0.463 0.083 0.034 3 
0.466 -0.036 0.034 3 
0.467 -0.047 0.034 3 
0.468 -0.077 0.033 3 
0.468 -0.085 0.034 3 
0.469 -0.096 0.033 3 
0.469 -0.107 0.033 3 
0.47 -0.116 0.033 3 
0.461 0.122 0.012 3 
0.47 -0.127 0.033 3 
0.47 -0.135 0.033 3 
0.471 -0.147 0.033 3 
0.465 0.062 0.001 3 
0.458 0.313 0.034 3 
0.479 -0.326 0.034 3 
0.479 -0.336 0.034 3 
0.48 -0.345 0.034 3 
0.479 -0.358 0.034 3 
0.461 0.293 0.032 3 
0.461 0.283 0.032 3 
0.46 0.264 0.032 3 
0.46 0.252 0.032 3 
0.46 0.243 0.032 3 
0.46 0.234 0.033 3 
0.471 -0.155 0.033 3 
0.46 0.223 0.033 3 
0.46 0.214 0.033 3 
0.461 0.192 0.033 3 
0.462 0.184 0.033 3 
0.461 0.172 0.033 3 
0.462 0.142 0.033 3 
0.463 0.132 0.033 3 
0.462 0.123 0.033 3 
0.463 0.112 0.033 3 
0.463 0.104 0.033 3 
0.463 0.093 0.033 3 
0.48 -0.327 0.023 3 
0.46 0.234 0.024 3 
0.472 -0.208 0.024 3 
0.473 -0.217 0.024 3 
0.473 -0.226 0.024 3 
0.474 -0.255 0.024 3 
0.475 -0.264 0.024 3 
0.475 -0.267 0.024 3 
0.476 -0.277 0.024 3 
0.477 -0.285 0.023 3 
0.478 -0.308 0.023 3 
0.48 -0.317 0.023 3 
0.46 0.243 0.024 3 
0.48 -0.338 0.022 3 
0.48 -0.345 0.022 3 
0.478 -0.357 0.022 3 
0.46 0.203 0.022 3 
0.46 0.183 0.022 3 
0.461 0.172 0.022 3 
0.461 0.164 0.022 3 
0.464 0.008 0.018 3 
0.461 0.153 0.022 3 
0.461 0.142 0.023 3 
0.461 0.134 0.023 3 
0.477 -0.278 0.032 3 
0.471 -0.187 0.033 3 
0.472 -0.196 0.033 3 
0.472 -0.205 0.033 3 
0.473 -0.217 0.033 3 
0.473 -0.226 0.033 3 
0.474 -0.236 0.033 3 
0.474 -0.245 0.032 3 
0.474 -0.257 0.032 3 
0.475 -0.261 0.032 3 
0.475 -0.268 0.032 3 
0.474 -0.27 0.032 3 
0.482 -0.346 0.073 3 
0.477 -0.288 0.032 3 
0.477 -0.297 0.032 3 
0.478 -0.308 0.032 3 
0.456 0.331 0.023 3 
0.456 0.324 0.023 3 
0.459 0.313 0.023 3 
0.459 0.304 0.023 3 
0.459 0.272 0.024 3 
0.459 0.263 0.024 3 
0.46 0.252 0.024 3 
0.469 -0.077 0.104 3 
0.463 0.054 0.103 3 
0.463 0.043 0.103 3 
0.473 -0.205 0.052 3 
0.465 0.033 0.103 3 
0.465 0.014 0.103 3 
0.465 -0.006 0.103 3 
0.462 0.193 0.084 3 
0.466 -0.025 0.103 3 
0.467 -0.047 0.103 3 
0.468 -0.055 0.104 3 
0.468 -0.066 0.104 3 
0.463 0.064 0.103 3 
0.469 -0.085 0.104 3 
0.46 0.234 0.043 3 
0.469 -0.096 0.104 3 
0.469 -0.116 0.104 3 
0.469 -0.127 0.104 3 
0.47 -0.135 0.104 3 
0.473 -0.235 0.024 3 
0.457 0.332 0.102 3 
0.46 0.322 0.102 3 
0.461 0.314 0.102 3 
0.471 -0.147 0.102 3 
0.48 -0.327 0.073 3 
0.461 0.294 0.104 3 
0.46 0.284 0.104 3 
0.457 0.332 0.082 3 
0.461 0.263 0.104 3 
0.461 0.251 0.104 3 
0.46 0.322 0.082 3 
0.462 0.233 0.104 3 
0.458 0.272 0.013 3 
0.462 0.222 0.103 3 
0.462 0.213 0.103 3 
0.462 0.193 0.103 3 
0.473 -0.176 0.102 3 
0.462 0.184 0.103 3 
0.462 0.173 0.103 3 
0.462 0.162 0.103 3 
0.462 0.154 0.103 3 
0.462 0.143 0.103 3 
0.464 0.133 0.103 3 
0.463 0.124 0.103 3 
0.463 0.113 0.103 3 
0.463 0.102 0.103 3 
0.464 0.083 0.103 3 
0.464 0.073 0.103 3 
0.464 0.059 0.052 3 
0.46 0.303 0.093 3 
0.462 0.213 0.092 3 
0.46 0.274 0.093 3 
0.46 0.262 0.093 3 
0.461 0.254 0.093 3 
0.461 0.244 0.093 3 
0.461 0.232 0.093 3 
0.462 0.224 0.093 3 
0.462 0.193 0.092 3 
0.462 0.184 0.092 3 
0.461 0.172 0.092 3 
0.464 -0.015 0.012 3 
0.462 0.162 0.092 3 
0.463 0.154 0.092 3 
0.463 0.143 0.092 3 
0.463 0.132 0.092 3 
0.463 0.124 0.092 3 
0.474 -0.26 0.084 3 
0.463 0.113 0.092 3 
0.464 0.102 0.092 3 
0.464 0.094 0.092 3 
0.464 0.083 0.092 3 
0.464 0.054 0.092 3 
0.477 -0.289 0.104 3 
0.473 -0.185 0.102 3 
0.473 -0.197 0.103 3 
0.474 -0.206 0.103 3 
0.474 -0.215 0.103 3 
0.474 -0.227 0.103 3 
0.475 -0.234 0.103 3 
0.48 -0.337 0.043 3 
0.476 -0.247 0.104 3 
0.475 -0.255 0.104 3 
0.474 -0.261 0.104 3 
0.476 -0.278 0.104 3 
0.461 0.297 0.104 3 
0.464 0.003 0.097 3 
0.478 -0.296 0.102 3 
0.479 -0.307 0.102 3 
0.481 -0.326 0.103 3 
0.482 -0.337 0.103 3 
0.483 -0.348 0.103 3 
0.483 -0.355 0.103 3 
0.465 0.064 0.044 3 
0.465 0.046 0.095 3 
0.456 0.331 0.093 3 
0.459 0.324 0.093 3 
0.46 0.214 0.022 3 
0.463 0.132 0.114 3 
0.463 0.124 0.114 3 
0.463 0.113 0.114 3 
0.464 0.094 0.052 3 
0.463 0.102 0.114 3 
0.464 0.094 0.114 3 
0.464 0.084 0.114 3 
0.463 0.073 0.113 3 
0.463 0.054 0.113 3 
0.463 0.043 0.113 3 
0.471 -0.175 0.063 3 
0.463 0.143 0.114 3 
0.463 0.032 0.113 3 
0.465 0.027 0.114 3 
0.465 0.022 0.114 3 
0.466 0.014 0.114 3 
0.466 0.003 0.114 3 
0.461 0.274 0.054 3 
0.466 -0.006 0.114 3 
0.467 -0.015 0.114 3 
0.467 -0.025 0.114 3 
0.466 -0.036 0.114 3 
0.467 -0.047 0.114 3 
0.479 -0.297 0.123 3 
0.475 -0.216 0.123 3 
0.461 0.114 0.012 3 
0.476 -0.226 0.123 3 
0.476 -0.235 0.123 3 
0.476 -0.247 0.124 3 
0.476 -0.256 0.124 3 
0.476 -0.266 0.124 3 
0.475 -0.255 0.044 3 
0.465 0.025 0.116 3 
0.474 -0.215 0.12 3 
0.478 -0.287 0.122 3 
0.468 -0.055 0.114 3 
0.48 -0.305 0.123 3 
0.483 -0.325 0.124 3 
0.483 -0.335 0.124 3 
0.48 -0.357 0.124 3 
0.461 0.225 0.114 3 
0.461 0.221 0.114 3 
0.461 0.212 0.114 3 
0.462 0.204 0.114 3 
0.462 0.193 0.114 3 
0.463 0.163 0.114 3 
0.463 0.154 0.114 3 
0.463 0.072 0.092 3 
0.473 -0.176 0.114 3 
0.474 -0.197 0.114 3 
0.475 -0.21 0.114 3 
0.474 -0.215 0.114 3 
0.475 -0.219 0.114 3 
0.475 -0.225 0.112 3 
0.474 -0.227 0.112 3 
0.475 -0.237 0.112 3 
0.476 -0.247 0.112 3 
0.476 -0.256 0.112 3 
0.476 -0.266 0.113 3 
0.473 -0.165 0.113 3 
0.476 -0.275 0.113 3 
0.478 -0.286 0.113 3 
0.479 -0.297 0.114 3 
0.479 -0.307 0.114 3 
0.481 -0.316 0.111 3 
0.482 -0.327 0.112 3 
0.474 -0.245 0.084 3 
0.482 -0.338 0.112 3 
0.482 -0.348 0.112 3 
0.474 -0.245 0.024 3 
0.482 -0.355 0.113 3 
0.469 -0.077 0.112 3 
0.468 -0.066 0.114 3 
0.482 -0.345 0.121 3 
0.458 0.334 0.113 3 
0.461 0.324 0.113 3 
0.461 0.314 0.113 3 
0.46 0.284 0.112 3 
0.475 -0.255 0.052 3 
0.461 0.273 0.112 3 
0.461 0.263 0.112 3 
0.461 0.254 0.112 3 
0.461 0.242 0.112 3 
0.465 0.051 0.092 3 
0.469 -0.085 0.112 3 
0.468 -0.066 0.033 3 
0.469 -0.096 0.112 3 
0.469 -0.105 0.112 3 
0.47 -0.116 0.113 3 
0.47 -0.127 0.113 3 
0.47 -0.136 0.113 3 
0.473 -0.185 0.114 3 
0.471 -0.147 0.113 3 
0.472 -0.156 0.113 3 
0.459 0.301 0.074 3 
0.476 -0.287 0.084 3 
0.477 -0.295 0.084 3 
0.475 -0.24 0.081 3 
0.469 -0.096 0.074 3 
0.479 -0.317 0.082 3 
0.481 -0.335 0.082 3 
0.482 -0.347 0.082 3 
0.483 -0.355 0.082 3 
0.457 0.332 0.074 3 
0.459 0.321 0.074 3 
0.459 0.314 0.074 3 
0.476 -0.278 0.084 3 
0.46 0.293 0.074 3 
0.46 0.283 0.074 3 
0.46 0.274 0.074 3 
0.461 0.262 0.073 3 
0.461 0.253 0.073 3 
0.461 0.244 0.073 3 
0.461 0.232 0.073 3 
0.461 0.223 0.073 3 
0.462 0.213 0.073 3 
0.461 0.203 0.073 3 
0.461 0.192 0.073 3 
0.472 -0.156 0.083 3 
0.468 -0.066 0.082 3 
0.468 -0.077 0.082 3 
0.468 -0.085 0.082 3 
0.469 -0.096 0.082 3 
0.469 -0.107 0.082 3 
0.464 -0.023 0.02 3 
0.469 -0.116 0.082 3 
0.469 -0.127 0.082 3 
0.463 0.154 0.063 3 
0.471 -0.135 0.083 3 
0.472 -0.147 0.083 3 
0.462 0.184 0.073 3 
0.471 -0.166 0.083 3 
0.472 -0.176 0.083 3 
0.473 -0.188 0.083 3 
0.473 -0.197 0.083 3 
0.474 -0.215 0.083 3 
0.474 -0.227 0.083 3 
0.474 -0.236 0.083 3 
0.475 -0.258 0.084 3 
0.474 -0.267 0.084 3 
0.46 0.144 0.012 3 
0.475 -0.271 0.084 3 
0.474 -0.236 0.072 3 
0.469 -0.116 0.074 3 
0.471 -0.127 0.074 3 
0.471 -0.135 0.074 3 
0.472 -0.156 0.074 3 
0.471 -0.166 0.074 3 
0.465 0.065 0.071 3 
0.472 -0.187 0.072 3 
0.473 -0.196 0.072 3 
0.473 -0.205 0.072 3 
0.472 -0.216 0.072 3 
0.474 -0.227 0.072 3 
0.469 -0.107 0.074 3 
0.474 -0.245 0.072 3 
0.474 -0.257 0.072 3 
0.475 -0.261 0.072 3 
0.474 -0.267 0.072 3 
0.475 -0.274 0.072 3 
0.475 -0.277 0.072 3 
0.476 -0.287 0.072 3 
0.477 -0.295 0.073 3 
0.479 -0.307 0.073 3 
0.48 -0.317 0.073 3 
0.481 -0.335 0.073 3 
0.464 0.032 0.074 3 
0.462 0.173 0.073 3 
0.462 0.162 0.073 3 
0.463 0.154 0.073 3 
0.463 0.143 0.073 3 
0.463 0.124 0.073 3 
0.463 0.113 0.073 3 
0.464 0.102 0.073 3 
0.463 0.094 0.073 3 
0.463 0.072 0.073 3 
0.465 0.062 0.074 3 
0.464 0.04 0.073 3 
0.467 -0.055 0.082 3 
0.465 0.027 0.074 3 
0.465 0.024 0.074 3 
0.465 0.014 0.074 3 
0.466 0.003 0.074 3 
0.466 -0.007 0.074 3 
0.466 -0.015 0.074 3 
0.467 -0.025 0.074 3 
0.467 -0.036 0.074 3 
0.467 -0.047 0.074 3 
0.468 -0.055 0.074 3 
0.468 -0.085 0.074 3 
0.475 -0.246 0.092 3 
0.474 -0.206 0.094 3 
0.474 -0.236 0.095 3 
0.474 -0.267 0.095 3 
0.464 0.035 0.089 3 
0.465 0.014 0.023 3 
0.464 0.024 0.089 3 
0.464 0.006 0.089 3 
0.474 -0.215 0.092 3 
0.474 -0.227 0.092 3 
0.475 -0.234 0.092 3 
0.475 -0.237 0.092 3 
0.473 -0.197 0.094 3 
0.473 -0.196 0.064 3 
0.478 -0.288 0.044 3 
0.475 -0.255 0.092 3 
0.474 -0.257 0.092 3 
0.458 0.313 0.054 3 
0.475 -0.268 0.092 3 
0.47 -0.127 0.044 3 
0.476 -0.278 0.093 3 
0.46 0.292 0.024 3 
0.477 -0.295 0.093 3 
0.479 -0.307 0.093 3 
0.467 -0.055 0.093 3 
0.465 0.043 0.092 3 
0.465 0.032 0.092 3 
0.464 0.027 0.092 3 
0.463 0.102 0.052 3 
0.465 0.024 0.092 3 
0.464 0 0.092 3 
0.465 -0.006 0.092 3 
0.466 -0.015 0.092 3 
0.466 -0.025 0.092 3 
0.466 -0.036 0.092 3 
0.467 -0.047 0.093 3 
0.48 -0.318 0.094 3 
0.468 -0.066 0.093 3 
0.469 -0.077 0.093 3 
0.469 -0.085 0.093 3 
0.469 -0.096 0.093 3 
0.47 -0.108 0.093 3 
0.469 -0.116 0.093 3 
0.469 -0.127 0.093 3 
0.46 0.194 0.022 3 
0.469 -0.135 0.093 3 
0.471 -0.155 0.094 3 
0.472 -0.176 0.094 3 
0.465 0.003 0.084 3 
0.463 0.072 0.084 3 
0.463 0.062 0.084 3 
0.465 0.054 0.084 3 
0.464 0.051 0.084 3 
0.465 0.043 0.084 3 
0.464 0.035 0.084 3 
0.464 0.032 0.084 3 
0.465 0.03 0.084 3 
0.464 0.024 0.084 3 
0.465 0.016 0.084 3 
0.465 0.014 0.084 3 
0.463 0.083 0.084 3 
0.466 -0.007 0.084 3 
0.466 -0.015 0.084 3 
0.466 -0.025 0.084 3 
0.475 -0.219 0.086 3 
0.459 0.314 0.082 3 
0.46 0.293 0.082 3 
0.46 0.283 0.082 3 
0.46 0.274 0.082 3 
0.465 0.062 0.082 3 
0.466 -0.036 0.082 3 
0.467 -0.047 0.082 3 
0.462 0.184 0.084 3 
0.48 -0.325 0.094 3 
0.481 -0.336 0.094 3 
0.483 -0.348 0.094 3 
0.483 -0.355 0.094 3 
0.46 0.262 0.084 3 
0.461 0.25 0.084 3 
0.461 0.244 0.084 3 
0.461 0.232 0.084 3 
0.46 0.223 0.084 3 
0.461 0.212 0.084 3 
0.462 0.204 0.084 3 
0.475 -0.21 0.123 3 
0.461 0.172 0.084 3 
0.457 0.332 0.054 3 
0.461 0.164 0.084 3 
0.462 0.153 0.084 3 
0.462 0.142 0.084 3 
0.463 0.132 0.084 3 
0.463 0.124 0.084 3 
0.475 -0.27 0.012 3 
0.463 0.113 0.084 3 
0.464 0.094 0.084 3 
