# .PCD v0.7 - Point Cloud Data file
FIELDS x y z intensity
SIZE 4 4 4 4
TYPE F F F F
COUNT 1 1 1 1
WIDTH 2398
HEIGHT 1
VIEWPOINT 0 0 0 1 0 0 0
POINTS 2398
DATA ascii
0.374 -0.236 -0.026 1 
0.372 -0.229 -0.024 1 
0.372 -0.215 -0.024 1 
0.364 -0.136 -0.018 1 
0.362 -0.125 -0.017 1 
0.363 -0.066 -0.016 1 
0.36 -0.057 -0.015 1 
0.362 -0.026 -0.016 1 
0.362 -0.024 -0.016 1 
0.358 0.024 -0.014 1 
0.359 0.033 -0.015 1 
0.357 0.043 -0.014 1 
0.356 0.074 -0.014 1 
0.353 0.113 -0.014 1 
0.352 0.123 -0.014 1 
0.352 0.136 -0.014 1 
0.354 0.143 -0.015 1 
0.353 0.154 -0.015 1 
0.351 0.158 -0.015 1 
0.344 0.204 -0.015 1 
0.379 -0.246 -0.026 1 
0.381 -0.224 -0.025 1 
0.374 -0.195 -0.022 1 
0.374 -0.188 -0.021 1 
0.37 -0.146 -0.018 1 
0.363 -0.056 -0.014 1 
0.34 0.003 -0.006 1 
0.364 0.043 -0.015 1 
0.362 0.076 -0.015 1 
0.36 0.083 -0.014 1 
0.361 0.09 -0.014 1 
0.361 0.094 -0.015 1 
0.361 0.098 -0.015 1 
0.354 0.128 -0.013 1 
0.353 0.172 -0.015 1 
0.352 0.173 -0.014 1 
0.354 0.179 -0.015 1 
0.35 0.213 -0.016 1 
0.386 -0.229 -0.025 1 
0.374 -0.175 -0.019 1 
0.374 -0.136 -0.018 1 
0.374 -0.126 -0.017 1 
0.374 -0.116 -0.017 1 
0.374 -0.105 -0.017 1 
0.372 -0.096 -0.016 1 
0.374 -0.085 -0.016 1 
0.374 -0.078 -0.016 1 
0.37 -0.063 -0.015 1 
0.373 -0.045 -0.016 1 
0.374 -0.038 -0.016 1 
0.374 -0.031 -0.016 1 
0.373 0.013 -0.016 1 
0.372 0.024 -0.016 1 
0.372 0.054 -0.016 1 
0.365 0.107 -0.014 1 
0.364 0.122 -0.014 1 
0.364 0.124 -0.015 1 
0.364 0.126 -0.015 1 
0.364 0.147 -0.015 1 
0.357 0.174 -0.014 1 
0.357 0.176 -0.014 1 
0.361 0.194 -0.017 1 
0.394 -0.266 -0.027 1 
0.392 -0.235 -0.025 1 
0.382 -0.205 -0.021 1 
0.377 -0.165 -0.017 1 
0.383 -0.155 -0.019 1 
0.379 -0.105 -0.017 1 
0.382 -0.085 -0.017 1 
0.38 -0.076 -0.016 1 
0.381 -0.032 -0.016 1 
0.38 0.013 -0.016 1 
0.374 0.073 -0.015 1 
0.371 0.084 -0.014 1 
0.374 0.104 -0.016 1 
0.371 0.122 -0.015 1 
0.372 0.133 -0.016 1 
0.37 0.194 -0.018 1 
0.361 0.222 -0.016 1 
0.361 0.225 -0.016 1 
0.393 -0.262 -0.025 1 
0.394 -0.247 -0.024 1 
0.384 -0.126 -0.017 1 
0.384 -0.124 -0.017 1 
0.384 -0.097 -0.016 1 
0.381 -0.069 -0.015 1 
0.38 -0.064 -0.014 1 
0.384 -0.06 -0.016 1 
0.382 -0.045 -0.015 1 
0.383 -0.038 -0.015 1 
0.383 0.023 -0.016 1 
0.381 0.043 -0.015 1 
0.381 0.052 -0.015 1 
0.38 0.074 -0.015 1 
0.378 0.083 -0.015 1 
0.381 0.104 -0.016 1 
0.38 0.113 -0.016 1 
0.374 0.144 -0.015 1 
0.375 0.153 -0.015 1 
0.374 0.164 -0.015 1 
0.374 0.184 -0.016 1 
0.37 0.235 -0.018 1 
0.394 -0.217 -0.02 1 
0.393 -0.205 -0.02 1 
0.391 -0.167 -0.018 1 
0.39 -0.155 -0.017 1 
0.38 -0.187 -0.019 1 
0.39 -0.147 -0.017 1 
0.392 -0.126 -0.017 1 
0.391 -0.115 -0.017 1 
0.389 -0.106 -0.016 1 
0.393 -0.087 -0.017 1 
0.389 -0.075 -0.016 1 
0.384 -0.068 -0.014 1 
0.389 -0.065 -0.015 1 
0.392 -0.056 -0.016 1 
0.389 -0.045 -0.015 1 
0.392 -0.035 -0.016 1 
0.394 -0.034 -0.017 1 
0.382 0.124 -0.015 1 
0.38 0.144 -0.015 1 
0.382 0.164 -0.016 1 
0.373 0.221 -0.016 1 
0.412 -0.281 -0.026 1 
0.403 -0.257 -0.023 1 
0.383 -0.216 -0.021 1 
0.4 -0.225 -0.02 1 
0.3 -0.015 0.014 1 
0.302 -0.005 0.013 1 
0.302 0.001 0.013 1 
0.335 0.003 0.003 1 
0.394 0.021 -0.015 1 
0.364 -0.145 -0.018 1 
0.394 0.033 -0.015 1 
0.394 0.053 -0.015 1 
0.393 0.063 -0.015 1 
0.392 0.073 -0.015 1 
0.393 0.082 -0.015 1 
0.392 0.094 -0.015 1 
0.389 0.124 -0.015 1 
0.383 0.154 -0.014 1 
0.384 0.157 -0.014 1 
0.382 0.219 -0.016 1 
0.379 0.242 -0.017 1 
0.379 0.245 -0.017 1 
0.413 -0.285 -0.025 1 
0.413 -0.268 -0.024 1 
0.41 -0.256 -0.022 1 
0.412 -0.245 -0.022 1 
0.403 -0.207 -0.019 1 
0.403 -0.197 -0.018 1 
0.402 -0.148 -0.017 1 
0.403 -0.135 -0.017 1 
0.401 -0.105 -0.016 1 
0.401 -0.075 -0.015 1 
0.402 -0.065 -0.015 1 
0.402 -0.056 -0.015 1 
0.403 -0.046 -0.016 1 
0.404 -0.037 -0.016 1 
0.334 0.003 0.005 1 
0.363 0.073 -0.015 1 
0.401 0.023 -0.015 1 
0.4 0.044 -0.015 1 
0.398 0.092 -0.015 1 
0.397 0.124 -0.015 1 
0.394 0.133 -0.015 1 
0.394 0.144 -0.015 1 
0.392 0.15 -0.014 1 
0.392 0.154 -0.015 1 
0.394 0.164 -0.016 1 
0.393 0.173 -0.016 1 
0.39 0.184 -0.015 1 
0.39 0.224 -0.017 1 
0.422 -0.269 -0.024 1 
0.414 -0.236 -0.02 1 
0.413 -0.227 -0.02 1 
0.404 -0.191 -0.016 1 
0.392 -0.245 -0.025 1 
0.409 -0.115 -0.016 1 
0.409 -0.106 -0.016 1 
0.441 -0.041 -0.025 1 
0.475 -0.043 -0.035 1 
0.362 -0.036 -0.015 1 
0.404 0.013 -0.014 1 
0.405 0.054 -0.015 1 
0.394 -0.197 -0.018 1 
0.405 0.056 -0.015 1 
0.404 0.064 -0.014 1 
0.404 0.066 -0.014 1 
0.403 0.103 -0.015 1 
0.404 0.108 -0.015 1 
0.401 0.131 -0.015 1 
0.4 0.139 -0.014 1 
0.352 0.204 -0.016 1 
0.401 0.144 -0.015 1 
0.4 0.146 -0.015 1 
0.398 0.172 -0.015 1 
0.398 0.182 -0.015 1 
0.392 0.202 -0.014 1 
0.394 0.243 -0.017 1 
0.422 -0.295 -0.023 1 
0.423 -0.287 -0.022 1 
0.424 -0.259 -0.021 1 
0.419 -0.235 -0.019 1 
0.414 -0.216 -0.017 1 
0.412 -0.197 -0.016 1 
0.414 -0.186 -0.017 1 
0.414 -0.169 -0.016 1 
0.414 -0.155 -0.016 1 
0.354 0.193 -0.016 1 
0.414 -0.141 -0.016 1 
0.414 -0.095 -0.015 1 
0.414 -0.088 -0.015 1 
0.413 -0.085 -0.014 1 
0.413 -0.081 -0.014 1 
0.414 -0.079 -0.015 1 
0.415 -0.077 -0.015 1 
0.415 -0.07 -0.015 1 
0.414 -0.066 -0.015 1 
0.413 -0.056 -0.014 1 
0.414 -0.052 -0.015 1 
0.413 -0.045 -0.014 1 
0.413 0.033 -0.015 1 
0.413 0.044 -0.015 1 
0.412 0.053 -0.014 1 
0.411 0.071 -0.014 1 
0.413 0.073 -0.015 1 
0.411 0.091 -0.015 1 
0.41 0.104 -0.015 1 
0.412 0.114 -0.015 1 
0.404 0.153 -0.014 1 
0.402 0.163 -0.013 1 
0.401 0.181 -0.014 1 
0.404 0.193 -0.015 1 
0.405 0.197 -0.016 1 
0.402 0.213 -0.015 1 
0.401 0.222 -0.015 1 
0.4 0.232 -0.016 1 
0.399 0.243 -0.016 1 
0.422 -0.227 -0.017 1 
0.418 -0.217 -0.016 1 
0.422 -0.197 -0.017 1 
0.42 -0.166 -0.015 1 
0.42 -0.111 -0.015 1 
0.421 -0.095 -0.015 1 
0.421 -0.09 -0.015 1 
0.421 -0.077 -0.014 1 
0.421 -0.065 -0.014 1 
0.421 -0.056 -0.014 1 
0.421 -0.049 -0.014 1 
0.421 0.03 -0.015 1 
0.383 0.213 -0.016 1 
0.42 0.034 -0.014 1 
0.419 -0.175 -0.015 1 
0.419 0.043 -0.014 1 
0.419 0.052 -0.014 1 
0.416 0.063 -0.013 1 
0.411 0.134 -0.013 1 
0.41 0.143 -0.013 1 
0.41 0.164 -0.014 1 
0.408 0.214 -0.015 1 
0.357 0.014 -0.014 1 
0.404 -0.237 -0.022 1 
0.407 0.223 -0.015 1 
0.407 0.231 -0.015 1 
0.402 0.262 -0.015 1 
0.401 0.269 -0.015 1 
0.433 -0.298 -0.02 1 
0.428 -0.286 -0.019 1 
0.431 -0.275 -0.019 1 
0.424 -0.178 -0.014 1 
0.425 -0.177 -0.015 1 
0.424 -0.156 -0.014 1 
0.423 -0.146 -0.014 1 
0.424 -0.139 -0.014 1 
0.423 -0.115 -0.013 1 
0.368 0.214 -0.016 1 
0.424 -0.108 -0.013 1 
0.432 -0.044 -0.015 1 
0.45 -0.044 -0.02 1 
0.422 0.074 -0.013 1 
0.423 0.093 -0.013 1 
0.42 0.103 -0.013 1 
0.413 0.193 -0.013 1 
0.398 0.063 -0.015 1 
0.414 0.214 -0.014 1 
0.414 0.222 -0.014 1 
0.415 0.233 -0.015 1 
0.414 0.235 -0.015 1 
0.416 0.244 -0.016 1 
0.415 0.249 -0.016 1 
0.414 0.253 -0.015 1 
0.41 0.263 -0.015 1 
0.41 0.274 -0.015 1 
0.434 -0.305 -0.018 1 
0.433 -0.245 -0.016 1 
0.434 -0.227 -0.016 1 
0.434 -0.206 -0.015 1 
0.433 -0.195 -0.015 1 
0.433 -0.192 -0.015 1 
0.43 -0.185 -0.014 1 
0.431 -0.176 -0.014 1 
0.433 -0.157 -0.014 1 
0.431 -0.145 -0.013 1 
0.433 -0.137 -0.014 1 
0.431 -0.126 -0.013 1 
0.429 -0.115 -0.012 1 
0.43 -0.106 -0.012 1 
0.432 -0.097 -0.013 1 
0.432 -0.085 -0.013 1 
0.434 -0.078 -0.013 1 
0.433 -0.066 -0.013 1 
0.479 -0.049 -0.025 1 
0.48 -0.041 -0.025 1 
0.432 0.043 -0.013 1 
0.432 0.053 -0.013 1 
0.431 0.064 -0.013 1 
0.424 0.124 -0.012 1 
0.423 0.162 -0.012 1 
0.419 0.183 -0.012 1 
0.42 0.193 -0.013 1 
0.42 0.203 -0.013 1 
0.419 0.253 -0.014 1 
0.415 0.282 -0.015 1 
0.443 -0.303 -0.018 1 
0.442 -0.277 -0.016 1 
0.437 -0.255 -0.015 1 
0.439 -0.242 -0.015 1 
0.436 -0.115 -0.012 1 
0.437 -0.106 -0.012 1 
0.44 -0.075 -0.012 1 
0.439 -0.067 -0.012 1 
0.438 -0.055 -0.012 1 
0.485 -0.05 -0.024 1 
0.324 0 0.016 1 
0.434 0.072 -0.011 1 
0.433 0.082 -0.011 1 
0.407 -0.055 -0.015 1 
0.434 0.087 -0.012 1 
0.432 0.123 -0.012 1 
0.431 0.142 -0.012 1 
0.43 0.154 -0.012 1 
0.424 0.214 -0.012 1 
0.422 0.223 -0.012 1 
0.424 0.233 -0.012 1 
0.424 0.236 -0.012 1 
0.424 0.266 -0.014 1 
0.423 0.282 -0.014 1 
0.424 0.289 -0.014 1 
0.449 -0.296 -0.016 1 
0.449 -0.29 -0.016 1 
0.38 0.129 -0.014 1 
0.445 -0.283 -0.015 1 
0.41 0.102 -0.014 1 
0.443 -0.235 -0.013 1 
0.444 -0.23 -0.013 1 
0.443 -0.216 -0.013 1 
0.444 -0.195 -0.012 1 
0.444 -0.187 -0.012 1 
0.444 -0.176 -0.012 1 
0.444 -0.166 -0.012 1 
0.442 -0.157 -0.011 1 
0.444 -0.145 -0.012 1 
0.444 -0.127 -0.011 1 
0.444 -0.096 -0.011 1 
0.423 0.083 -0.013 1 
0.444 -0.088 -0.011 1 
0.477 -0.046 -0.019 1 
0.462 -0.036 -0.015 1 
0.334 -0.005 0.015 1 
0.413 0.022 -0.015 1 
0.34 0.002 0.014 1 
0.425 0.005 -0.006 1 
0.444 0.023 -0.011 1 
0.444 0.033 -0.011 1 
0.444 0.043 -0.011 1 
0.444 0.058 -0.011 1 
0.443 0.072 -0.011 1 
0.442 0.082 -0.011 1 
0.44 0.104 -0.011 1 
0.439 0.114 -0.011 1 
0.431 0.173 -0.01 1 
0.431 0.183 -0.01 1 
0.431 0.191 -0.01 1 
0.432 0.202 -0.011 1 
0.429 0.224 -0.011 1 
0.43 0.233 -0.011 1 
0.43 0.252 -0.012 1 
0.431 0.264 -0.013 1 
0.431 0.273 -0.013 1 
0.429 0.283 -0.013 1 
0.455 -0.322 -0.016 1 
0.454 -0.318 -0.015 1 
0.456 -0.307 -0.015 1 
0.444 -0.267 -0.011 1 
0.442 -0.256 -0.011 1 
0.452 -0.225 -0.012 1 
0.452 -0.187 -0.012 1 
0.449 -0.155 -0.01 1 
0.451 -0.146 -0.011 1 
0.452 -0.125 -0.011 1 
0.454 -0.115 -0.011 1 
0.453 -0.107 -0.011 1 
0.451 -0.096 -0.01 1 
0.443 -0.205 -0.012 1 
0.452 -0.086 -0.01 1 
0.453 -0.076 -0.011 1 
0.45 -0.065 -0.01 1 
0.452 -0.055 -0.01 1 
0.463 -0.044 -0.013 1 
0.484 -0.038 -0.018 1 
0.424 0.153 -0.012 1 
0.352 -0.019 0.013 1 
0.34 -0.015 0.015 1 
0.36 0.165 -0.015 1 
0.343 -0.012 0.015 1 
0.353 -0.006 0.012 1 
0.451 0.033 -0.01 1 
0.45 0.054 -0.01 1 
0.444 0.123 -0.009 1 
0.444 0.134 -0.01 1 
0.451 0.044 -0.01 1 
0.443 0.143 -0.01 1 
0.444 0.154 -0.01 1 
0.441 0.164 -0.01 1 
0.439 0.173 -0.009 1 
0.41 0.191 -0.015 1 
0.436 0.184 -0.009 1 
0.454 -0.292 -0.012 1 
0.453 -0.275 -0.011 1 
0.424 0.131 -0.012 1 
0.454 -0.27 -0.011 1 
0.453 -0.258 -0.01 1 
0.452 -0.245 -0.01 1 
0.454 -0.238 -0.01 1 
0.454 -0.216 -0.01 1 
0.454 -0.205 -0.01 1 
0.454 -0.202 -0.01 1 
0.475 -0.04 -0.013 1 
0.377 -0.016 0.008 1 
0.383 -0.011 0.007 1 
0.42 -0.135 -0.015 1 
0.388 -0.005 0.006 1 
0.394 -0.232 -0.023 1 
0.39 0 0.005 1 
0.454 0.06 -0.009 1 
0.453 0.072 -0.008 1 
0.453 0.093 -0.009 1 
0.452 0.103 -0.009 1 
0.45 0.134 -0.008 1 
0.449 0.154 -0.009 1 
0.443 0.202 -0.008 1 
0.442 0.243 -0.009 1 
0.44 0.273 -0.01 1 
0.44 0.282 -0.01 1 
0.434 0.303 -0.01 1 
0.384 0.184 -0.016 1 
0.463 -0.317 -0.011 1 
0.462 -0.137 -0.008 1 
0.461 -0.126 -0.007 1 
0.462 -0.116 -0.008 1 
0.462 -0.075 -0.007 1 
0.38 -0.235 -0.025 1 
0.462 -0.057 -0.007 1 
0.463 -0.007 -0.008 1 
0.461 0.003 -0.007 1 
0.452 0.162 -0.007 1 
0.39 0.234 -0.017 1 
0.452 0.184 -0.007 1 
0.452 0.192 -0.008 1 
0.451 0.203 -0.008 1 
0.443 0.291 -0.008 1 
0.444 0.301 -0.009 1 
0.408 -0.038 -0.015 1 
0.44 0.313 -0.009 1 
0.464 -0.339 -0.01 1 
0.464 -0.299 -0.008 1 
0.464 -0.258 -0.007 1 
0.462 -0.216 -0.006 1 
0.464 -0.203 -0.006 1 
0.465 -0.195 -0.006 1 
0.464 -0.177 -0.006 1 
0.464 -0.163 -0.006 1 
0.466 -0.145 -0.006 1 
0.465 -0.136 -0.006 1 
0.465 -0.117 -0.006 1 
0.466 -0.055 -0.005 1 
0.466 -0.036 -0.006 1 
0.466 0.003 -0.006 1 
0.464 0.011 -0.005 1 
0.464 0.024 -0.005 1 
0.463 0.032 -0.005 1 
0.464 0.043 -0.005 1 
0.463 0.053 -0.005 1 
0.461 0.064 -0.005 1 
0.461 0.072 -0.005 1 
0.462 0.083 -0.005 1 
0.461 0.093 -0.005 1 
0.419 -0.146 -0.015 1 
0.459 0.114 -0.005 1 
0.46 0.122 -0.005 1 
0.457 0.173 -0.006 1 
0.456 0.184 -0.006 1 
0.455 0.202 -0.006 1 
0.41 0.093 -0.014 1 
0.455 0.205 -0.006 1 
0.453 0.212 -0.006 1 
0.454 0.224 -0.006 1 
0.454 0.233 -0.006 1 
0.452 0.243 -0.006 1 
0.451 0.254 -0.006 1 
0.45 0.262 -0.006 1 
0.459 0.133 -0.005 1 
0.471 -0.286 -0.006 1 
0.47 -0.276 -0.006 1 
0.471 -0.255 -0.006 1 
0.47 -0.245 -0.005 1 
0.469 -0.235 -0.005 1 
0.467 -0.228 -0.005 1 
0.464 -0.025 -0.003 1 
0.411 -0.235 -0.008 1 
0.463 0.064 -0.003 1 
0.455 0.266 -0.005 1 
0.454 0.271 -0.004 1 
0.454 0.284 -0.005 1 
0.444 -0.249 -0.011 1 
0.455 0.288 -0.005 1 
0.453 0.292 -0.005 1 
0.452 0.304 -0.005 1 
0.453 0.314 -0.006 1 
0.451 0.322 -0.006 1 
0.451 0.325 -0.006 1 
0.473 -0.345 -0.006 1 
0.473 -0.335 -0.005 1 
0.431 0.132 -0.011 1 
0.44 0.264 -0.009 1 
0.474 -0.325 -0.005 1 
0.361 -0.075 -0.015 1 
0.474 -0.318 -0.005 1 
0.474 -0.295 -0.004 1 
0.464 0.094 0 1 
0.464 0.113 -0.001 1 
0.464 0.124 -0.001 1 
0.463 0.154 -0.001 1 
0.463 0.174 -0.001 1 
0.462 0.184 -0.001 1 
0.473 -0.348 -0.003 1 
0.474 -0.286 -0.001 1 
0.474 -0.276 -0.001 1 
0.473 -0.266 -0.001 1 
0.464 0.194 0 1 
0.464 0.203 0 1 
0.462 0.222 0 1 
0.462 0.233 0 1 
0.473 -0.218 0.002 1 
0.472 -0.205 0.002 1 
0.472 -0.196 0.002 1 
0.473 -0.185 0.002 1 
0.472 -0.156 0.003 1 
0.472 -0.145 0.003 1 
0.374 -0.206 -0.022 1 
0.422 0.114 -0.013 1 
0.472 -0.136 0.003 1 
0.47 -0.105 0.003 1 
0.47 -0.097 0.003 1 
0.47 -0.086 0.003 1 
0.469 -0.077 0.004 1 
0.47 -0.066 0.004 1 
0.408 -0.126 -0.016 1 
0.409 0.128 -0.015 1 
0.466 0.084 0.004 1 
0.466 0.133 0.003 1 
0.466 0.144 0.003 1 
0.466 0.153 0.003 1 
0.466 0.164 0.003 1 
0.467 0.182 0.002 1 
0.466 0.193 0.002 1 
0.466 0.204 0.002 1 
0.465 0.212 0.002 1 
0.465 0.224 0.002 1 
0.466 0.234 0.002 1 
0.465 0.242 0.002 1 
0.465 0.248 0.001 1 
0.477 -0.356 0.001 1 
0.42 -0.085 -0.014 1 
0.477 -0.305 0.003 1 
0.478 -0.296 0.003 1 
0.351 0.002 0.013 1 
0.475 -0.286 0.003 1 
0.475 -0.277 0.004 1 
0.475 -0.267 0.004 1 
0.476 -0.243 0.004 1 
0.474 -0.236 0.004 1 
0.473 -0.23 0.004 1 
0.465 0.164 0.006 1 
0.421 0.274 -0.016 1 
0.465 -0.186 -0.006 1 
0.465 0.192 0.005 1 
0.464 0.253 0.004 1 
0.464 0.274 0.004 1 
0.464 0.293 0.003 1 
0.464 0.303 0.003 1 
0.464 0.313 0.003 1 
0.464 0.322 0.003 1 
0.373 0.145 -0.014 1 
0.466 0.342 0.002 1 
0.465 -0.065 -0.005 1 
0.359 0.104 -0.014 1 
0.479 -0.344 0.004 1 
0.465 0.304 0.006 1 
0.454 -0.053 -0.011 1 
0.474 -0.305 -0.005 1 
0.465 0.314 0.006 1 
0.433 0.293 -0.012 1 
0.403 -0.155 -0.017 1 
0.465 0.014 -0.005 1 
0.464 -0.052 -0.008 1 
0.462 -0.065 -0.007 1 
0.413 0.203 -0.013 1 
0.465 -0.087 -0.005 1 
0.382 -0.146 -0.019 1 
0.461 -0.086 -0.007 1 
0.464 -0.106 -0.005 1 
0.479 -0.348 0.004 1 
0.394 0.037 -0.015 1 
0.465 -0.109 -0.006 1 
0.465 -0.125 -0.006 1 
0.394 -0.096 -0.015 1 
0.463 -0.146 -0.008 1 
0.465 0.102 0.004 1 
0.464 -0.166 -0.006 1 
0.461 -0.187 -0.008 1 
0.462 -0.225 -0.006 1 
0.457 -0.246 -0.008 1 
0.46 -0.267 -0.009 1 
0.441 0.254 -0.009 1 
0.464 -0.286 -0.008 1 
0.464 -0.325 -0.012 1 
0.455 -0.299 -0.015 1 
0.444 -0.276 -0.012 1 
0.373 0.113 -0.015 1 
0.411 0.153 -0.014 1 
0.438 -0.267 -0.015 1 
0.465 0.094 0.004 1 
0.441 -0.316 -0.018 1 
0.4 0.132 -0.014 1 
0.402 -0.086 -0.016 1 
0.402 0.204 -0.015 1 
0.432 -0.049 -0.013 1 
0.45 0.144 -0.009 1 
0.418 -0.155 -0.015 1 
0.473 -0.355 0.005 1 
0.455 -0.336 -0.016 1 
0.451 -0.135 -0.011 1 
0.438 -0.247 -0.015 1 
0.46 0.144 -0.006 1 
0.452 -0.176 -0.011 1 
0.392 0.259 -0.017 1 
0.363 0.064 -0.015 1 
0.473 -0.165 0.002 1 
0.391 0.104 -0.015 1 
0.474 -0.254 -0.001 1 
0.363 0.114 -0.014 1 
0.451 0.124 -0.009 1 
0.464 0.244 0.004 1 
0.42 0.018 -0.014 1 
0.354 0.164 -0.014 1 
0.412 -0.038 -0.014 1 
0.363 0.142 -0.015 1 
0.464 0.336 0.002 1 
0.455 0.282 -0.005 1 
0.422 -0.205 -0.017 1 
0.454 -0.311 -0.015 1 
0.442 0.213 -0.008 1 
0.361 0.133 -0.014 1 
0.41 0.064 -0.014 1 
0.402 0.173 -0.014 1 
0.442 -0.046 -0.013 1 
0.391 0.155 -0.014 1 
0.464 0.083 -0.003 1 
0.371 -0.065 -0.015 1 
0.362 0.203 -0.015 1 
0.444 0.053 -0.011 1 
0.424 -0.276 -0.02 1 
0.432 0.113 -0.011 1 
0.458 -0.329 -0.017 1 
0.475 -0.255 0.004 1 
0.422 -0.042 -0.015 1 
0.378 0.094 -0.015 1 
0.409 0.278 -0.015 1 
0.458 0.154 -0.005 1 
0.394 0.195 -0.015 1 
0.475 -0.246 0.004 1 
0.364 0.046 -0.015 1 
0.391 0.014 -0.016 1 
0.463 0.332 0.002 1 
0.373 0.149 -0.015 1 
0.383 0.234 -0.017 1 
0.396 -0.247 -0.025 1 
0.354 0.103 -0.014 1 
0.467 -0.034 -0.011 1 
0.454 0.011 -0.008 1 
0.373 0.079 -0.015 1 
0.426 -0.172 -0.015 1 
0.337 -0.002 0.015 1 
0.434 -0.238 -0.016 1 
0.373 0.094 -0.015 1 
0.467 -0.007 -0.006 1 
0.431 -0.266 -0.019 1 
0.402 -0.27 -0.025 1 
0.42 0.173 -0.012 1 
0.414 -0.146 -0.016 1 
0.403 -0.166 -0.017 1 
0.422 -0.249 -0.02 1 
0.411 0.123 -0.015 1 
0.442 0.013 -0.011 1 
0.471 -0.296 -0.007 1 
0.4 0.013 -0.015 1 
0.384 0.204 -0.016 1 
0.383 0.194 -0.016 1 
0.424 -0.045 -0.015 1 
0.369 -0.054 -0.014 1 
0.369 0.064 -0.015 1 
0.434 -0.217 -0.015 1 
0.327 0.001 0.016 1 
0.408 -0.274 -0.025 1 
0.36 0.163 -0.015 1 
0.41 0.174 -0.014 1 
0.39 0.252 -0.016 1 
0.464 -0.017 -0.005 1 
0.434 0.162 -0.011 1 
0.399 0.052 -0.015 1 
0.466 0.114 0.003 1 
0.42 -0.102 -0.014 1 
0.36 -0.085 -0.015 1 
0.419 0.011 -0.014 1 
0.392 0.113 -0.016 1 
0.464 0.143 -0.001 1 
0.364 -0.111 -0.015 1 
0.464 0.102 0 1 
0.474 -0.04 -0.035 1 
0.442 0.092 -0.011 1 
0.452 0.114 -0.009 1 
0.383 0.033 -0.016 1 
0.421 0.023 -0.015 1 
0.409 0.183 -0.014 1 
0.412 0.042 -0.014 1 
0.398 0.071 -0.015 1 
0.423 0.262 -0.013 1 
0.416 0.144 -0.012 1 
0.443 -0.287 -0.017 1 
0.454 0.274 -0.005 1 
0.374 -0.228 -0.025 1 
0.425 0.296 -0.015 1 
0.463 -0.025 -0.005 1 
0.404 -0.215 -0.019 1 
0.403 -0.176 -0.018 1 
0.413 0.082 -0.015 1 
0.393 -0.177 -0.019 1 
0.413 -0.176 -0.016 1 
0.399 0.084 -0.015 1 
0.373 0.034 -0.016 1 
0.411 0.013 -0.014 1 
0.434 0.024 -0.013 1 
0.361 -0.095 -0.016 1 
0.379 -0.177 -0.019 1 
0.464 0.262 0.004 1 
0.465 -0.155 -0.006 1 
0.381 -0.226 -0.025 1 
0.4 -0.096 -0.015 1 
0.444 -0.139 -0.012 1 
0.402 -0.125 -0.016 1 
0.421 0.263 -0.015 1 
0.381 0.132 -0.015 1 
0.374 -0.063 -0.014 1 
0.463 0.163 -0.001 1 
0.364 -0.047 -0.014 1 
0.433 0.104 -0.011 1 
0.372 0.225 -0.016 1 
0.42 -0.188 -0.016 1 
0.413 -0.208 -0.017 1 
0.433 0.034 -0.013 1 
0.359 0.184 -0.015 1 
0.444 -0.307 -0.018 1 
0.421 0.014 -0.015 1 
0.431 -0.056 -0.012 1 
0.464 0.132 -0.001 1 
0.454 0.083 -0.009 1 
0.434 -0.255 -0.016 1 
0.374 -0.157 -0.018 1 
0.384 -0.197 -0.021 1 
0.393 0.205 -0.015 1 
0.421 -0.126 -0.015 1 
0.371 0.044 -0.015 1 
0.372 0.174 -0.015 1 
0.358 0.052 -0.014 1 
0.391 -0.255 -0.023 1 
0.371 0.089 -0.014 1 
0.466 0.173 0.003 1 
0.443 0.194 -0.008 1 
0.431 -0.165 -0.014 1 
0.451 0.023 -0.01 1 
0.469 -0.265 -0.006 1 
0.397 0.254 -0.016 1 
0.464 0.284 0.004 1 
0.36 -0.046 -0.015 1 
0.362 0.14 -0.014 1 
0.474 -0.263 -0.001 1 
0.394 -0.192 -0.018 1 
0.412 0.02 -0.014 1 
0.361 -0.115 -0.016 1 
0.461 -0.096 -0.007 1 
0.38 0.064 -0.015 1 
0.42 -0.116 -0.015 1 
0.415 -0.281 -0.025 1 
0.431 0.212 -0.011 1 
0.443 0.222 -0.009 1 
0.424 0.292 -0.015 1 
0.464 -0.017 -0.003 1 
0.412 -0.275 -0.024 1 
0.464 -0.283 -0.008 1 
0.464 0.072 -0.003 1 
0.403 -0.115 -0.016 1 
0.463 -0.205 -0.006 1 
0.4 0.034 -0.015 1 
0.451 -0.167 -0.011 1 
0.451 0.172 -0.007 1 
0.4 -0.034 -0.017 1 
0.384 0.171 -0.015 1 
0.377 0.092 -0.014 1 
0.457 0.162 -0.005 1 
0.443 0.233 -0.009 1 
0.465 -0.095 -0.005 1 
0.456 0.192 -0.006 1 
0.463 0.214 0 1 
0.43 0.244 -0.012 1 
0.474 -0.04 -0.029 1 
0.465 -0.015 -0.005 1 
0.394 0.192 -0.015 1 
0.466 -0.076 -0.006 1 
0.454 -0.331 -0.016 1 
0.46 -0.237 -0.009 1 
0.404 -0.247 -0.022 1 
0.485 -0.041 -0.021 1 
0.381 -0.135 -0.018 1 
0.367 -0.024 -0.016 1 
0.463 -0.307 -0.008 1 
0.373 0.203 -0.017 1 
0.361 0.211 -0.016 1 
0.459 0.103 -0.005 1 
0.485 -0.047 -0.027 1 
0.39 -0.136 -0.017 1 
0.373 -0.166 -0.018 1 
0.468 -0.047 -0.006 1 
0.473 -0.177 0.002 1 
0.475 -0.243 0.092 3 
0.468 0.079 0.144 3 
0.468 0.074 0.144 3 
0.467 0.063 0.144 3 
0.467 0.052 0.144 3 
0.467 0.044 0.144 3 
0.467 0.033 0.144 3 
0.472 -0.147 0.074 3 
0.467 0.022 0.144 3 
0.468 0.003 0.144 3 
0.469 -0.007 0.144 3 
0.476 -0.247 0.112 3 
0.469 -0.015 0.144 3 
0.475 -0.201 0.148 3 
0.479 -0.285 0.152 3 
0.479 -0.295 0.152 3 
0.481 -0.307 0.153 3 
0.481 -0.317 0.153 3 
0.482 -0.325 0.154 3 
0.482 -0.335 0.154 3 
0.466 0.272 0.144 3 
0.466 0.153 0.063 3 
0.466 0.262 0.144 3 
0.472 -0.145 0.152 3 
0.483 -0.348 0.161 3 
0.476 -0.235 0.144 3 
0.473 -0.157 0.153 3 
0.465 0.297 0.043 3 
0.473 -0.166 0.153 3 
0.475 -0.265 0.104 3 
0.473 -0.175 0.153 3 
0.473 -0.186 0.153 3 
0.474 -0.196 0.154 3 
0.466 0.233 0.063 3 
0.476 -0.208 0.154 3 
0.465 0.31 0.023 3 
0.467 0.107 0.144 3 
0.467 0.346 0.153 3 
0.468 0.343 0.153 3 
0.467 0.332 0.153 3 
0.468 0.323 0.152 3 
0.476 -0.226 0.152 3 
0.477 -0.236 0.153 3 
0.478 -0.256 0.153 3 
0.479 -0.266 0.154 3 
0.479 -0.275 0.154 3 
0.465 0.183 0.044 3 
0.466 0.304 0.143 3 
0.47 -0.086 0.142 3 
0.471 -0.105 0.143 3 
0.472 -0.117 0.143 3 
0.472 -0.125 0.143 3 
0.472 -0.145 0.144 3 
0.473 -0.16 0.144 3 
0.473 -0.166 0.144 3 
0.482 -0.346 0.152 3 
0.466 0.344 0.144 3 
0.468 0.333 0.144 3 
0.468 0.322 0.144 3 
0.467 0.314 0.143 3 
0.47 -0.075 0.142 3 
0.467 0.282 0.142 3 
0.468 -0.015 0.082 3 
0.473 -0.177 0.142 3 
0.473 -0.186 0.142 3 
0.473 -0.195 0.142 3 
0.475 -0.201 0.143 3 
0.472 -0.167 0.094 3 
0.475 -0.207 0.143 3 
0.475 -0.216 0.143 3 
0.476 -0.226 0.143 3 
0.467 0.123 0.123 3 
0.468 0.154 0.142 3 
0.466 0.244 0.144 3 
0.466 0.232 0.144 3 
0.466 0.223 0.143 3 
0.466 0.214 0.143 3 
0.466 0.203 0.143 3 
0.467 0.191 0.143 3 
0.475 -0.234 0.083 3 
0.467 0.182 0.143 3 
0.467 0.174 0.142 3 
0.472 -0.156 0.124 3 
0.468 0.163 0.143 3 
0.466 0.253 0.144 3 
0.467 0.143 0.142 3 
0.468 0.132 0.142 3 
0.468 0.124 0.142 3 
0.468 0.104 0.142 3 
0.469 0.093 0.142 3 
0.469 -0.025 0.142 3 
0.47 -0.045 0.142 3 
0.47 -0.056 0.142 3 
0.47 -0.067 0.142 3 
0.467 0.022 0.103 3 
0.465 0.172 0.052 3 
0.479 -0.257 0.162 3 
0.476 -0.215 0.164 3 
0.474 -0.257 0.041 3 
0.478 -0.225 0.164 3 
0.478 -0.237 0.164 3 
0.484 -0.335 0.17 3 
0.484 -0.346 0.171 3 
0.468 0.348 0.162 3 
0.467 0.343 0.162 3 
0.468 0.333 0.162 3 
0.464 0.334 0.117 3 
0.478 -0.246 0.162 3 
0.475 -0.205 0.163 3 
0.479 -0.266 0.163 3 
0.479 -0.276 0.163 3 
0.48 -0.286 0.164 3 
0.48 -0.296 0.164 3 
0.466 0.218 0.154 3 
0.472 -0.136 0.083 3 
0.466 0.212 0.154 3 
0.466 0.203 0.154 3 
0.466 0.194 0.154 3 
0.466 0.183 0.154 3 
0.468 0.172 0.154 3 
0.465 0.262 0.063 3 
0.466 0.293 0.114 3 
0.474 -0.187 0.165 3 
0.483 -0.316 0.172 3 
0.484 -0.328 0.173 3 
0.472 -0.167 0.022 3 
0.485 -0.336 0.174 3 
0.485 -0.347 0.174 3 
0.468 0.323 0.164 3 
0.468 0.313 0.164 3 
0.467 0.302 0.163 3 
0.467 0.292 0.163 3 
0.467 0.163 0.153 3 
0.467 0.283 0.162 3 
0.467 0.273 0.162 3 
0.468 0.262 0.162 3 
0.466 0.272 0.153 3 
0.474 -0.187 0.162 3 
0.471 -0.105 0.104 3 
0.474 -0.264 0.052 3 
0.469 -0.036 0.044 3 
0.475 -0.191 0.163 3 
0.475 -0.196 0.163 3 
0.467 0.114 0.052 3 
0.466 0.304 0.154 3 
0.471 -0.067 0.154 3 
0.471 -0.075 0.154 3 
0.471 -0.086 0.154 3 
0.472 -0.095 0.154 3 
0.474 -0.196 0.157 3 
0.481 -0.307 0.162 3 
0.484 -0.317 0.163 3 
0.483 -0.326 0.163 3 
0.465 0.264 0.102 3 
0.483 -0.337 0.164 3 
0.466 0.307 0.154 3 
0.463 0.332 0.062 3 
0.466 0.294 0.154 3 
0.466 0.282 0.153 3 
0.467 0.264 0.153 3 
0.466 0.254 0.153 3 
0.467 0.242 0.153 3 
0.469 -0.135 0.014 3 
0.466 0.232 0.152 3 
0.472 -0.106 0.152 3 
0.473 -0.115 0.152 3 
0.473 -0.126 0.152 3 
0.472 -0.137 0.152 3 
0.468 0.074 0.153 3 
0.467 0.151 0.153 3 
0.467 0.143 0.153 3 
0.467 0.123 0.063 3 
0.468 0.132 0.153 3 
0.468 0.124 0.153 3 
0.468 0.033 0.063 3 
0.468 0.113 0.153 3 
0.468 0.104 0.153 3 
0.469 0.094 0.153 3 
0.478 -0.268 0.142 3 
0.469 0.083 0.153 3 
0.463 0.339 0.062 3 
0.468 0.063 0.153 3 
0.468 0.052 0.153 3 
0.469 0.044 0.153 3 
0.469 0.033 0.153 3 
0.469 0.022 0.153 3 
0.469 0.014 0.153 3 
0.468 0.003 0.153 3 
0.469 -0.007 0.153 3 
0.47 -0.015 0.153 3 
0.47 -0.026 0.153 3 
0.472 -0.056 0.154 3 
0.471 -0.105 0.124 3 
0.469 -0.007 0.123 3 
0.469 -0.015 0.123 3 
0.469 -0.025 0.123 3 
0.469 -0.036 0.123 3 
0.469 -0.047 0.123 3 
0.469 -0.055 0.123 3 
0.47 -0.066 0.123 3 
0.47 -0.075 0.123 3 
0.471 -0.086 0.123 3 
0.471 -0.097 0.124 3 
0.477 -0.288 0.093 3 
0.468 -0.077 0.012 3 
0.471 -0.125 0.124 3 
0.472 -0.136 0.124 3 
0.473 -0.145 0.124 3 
0.471 -0.167 0.124 3 
0.467 0.334 0.123 3 
0.467 0.32 0.123 3 
0.467 0.314 0.123 3 
0.467 0.304 0.123 3 
0.466 0.293 0.122 3 
0.466 0.284 0.122 3 
0.473 -0.176 0.122 3 
0.467 0.104 0.123 3 
0.466 0.244 0.124 3 
0.466 0.232 0.124 3 
0.466 0.214 0.124 3 
0.466 0.204 0.123 3 
0.466 0.193 0.123 3 
0.467 0.182 0.123 3 
0.467 0.173 0.123 3 
0.466 0.164 0.123 3 
0.466 0.153 0.123 3 
0.467 0.134 0.123 3 
0.467 0.112 0.123 3 
0.474 -0.186 0.122 3 
0.467 0.093 0.122 3 
0.467 0.074 0.122 3 
0.467 0.063 0.122 3 
0.466 0.052 0.122 3 
0.465 0.124 0.014 3 
0.467 0.044 0.122 3 
0.467 0.033 0.122 3 
0.467 0.022 0.122 3 
0.471 -0.155 0.014 3 
0.468 0.014 0.122 3 
0.469 0.003 0.123 3 
0.469 -0.007 0.114 3 
0.467 0.093 0.114 3 
0.467 0.084 0.114 3 
0.478 -0.315 0.043 3 
0.466 0.073 0.114 3 
0.466 0.062 0.114 3 
0.466 0.054 0.114 3 
0.466 0.044 0.114 3 
0.467 0.033 0.114 3 
0.468 0.022 0.114 3 
0.468 0.014 0.114 3 
0.468 0.003 0.114 3 
0.467 0.104 0.114 3 
0.469 -0.015 0.114 3 
0.469 -0.025 0.114 3 
0.468 -0.039 0.114 3 
0.474 -0.203 0.117 3 
0.464 0.341 0.114 3 
0.464 0.334 0.114 3 
0.466 0.333 0.114 3 
0.466 0.322 0.114 3 
0.467 0.313 0.114 3 
0.467 0.304 0.114 3 
0.477 0.362 0.2 3 
0.478 -0.287 0.122 3 
0.475 -0.192 0.123 3 
0.475 -0.195 0.123 3 
0.474 -0.206 0.123 3 
0.475 -0.21 0.123 3 
0.474 -0.215 0.123 3 
0.475 -0.225 0.123 3 
0.476 -0.235 0.123 3 
0.476 -0.247 0.124 3 
0.476 -0.256 0.124 3 
0.476 -0.266 0.124 3 
0.475 -0.255 0.044 3 
0.466 0.262 0.124 3 
0.48 -0.305 0.123 3 
0.481 -0.326 0.124 3 
0.482 -0.338 0.124 3 
0.481 -0.347 0.124 3 
0.479 -0.356 0.124 3 
0.466 0.156 0.114 3 
0.466 0.153 0.114 3 
0.467 0.202 0.112 3 
0.467 0.131 0.114 3 
0.467 0.123 0.114 3 
0.466 0.114 0.114 3 
0.47 -0.045 0.134 3 
0.467 0.044 0.133 3 
0.467 0.033 0.133 3 
0.467 0.022 0.133 3 
0.467 0.014 0.133 3 
0.468 0.003 0.133 3 
0.469 -0.007 0.133 3 
0.474 -0.215 0.064 3 
0.469 -0.015 0.133 3 
0.469 -0.025 0.133 3 
0.466 0.262 0.113 3 
0.469 -0.036 0.134 3 
0.467 0.052 0.133 3 
0.47 -0.056 0.134 3 
0.47 -0.066 0.134 3 
0.47 -0.075 0.134 3 
0.47 -0.086 0.134 3 
0.474 -0.207 0.137 3 
0.484 -0.33 0.142 3 
0.483 -0.336 0.142 3 
0.483 -0.347 0.143 3 
0.466 0.32 0.134 3 
0.467 0.344 0.124 3 
0.466 0.303 0.134 3 
0.467 0.174 0.134 3 
0.477 -0.255 0.144 3 
0.475 -0.192 0.14 3 
0.479 -0.278 0.143 3 
0.479 -0.285 0.143 3 
0.471 -0.207 0.013 3 
0.479 -0.295 0.143 3 
0.48 -0.306 0.144 3 
0.481 -0.32 0.144 3 
0.467 0.197 0.134 3 
0.467 0.191 0.134 3 
0.467 0.182 0.134 3 
0.465 0.293 0.133 3 
0.467 0.162 0.134 3 
0.467 0.154 0.134 3 
0.467 0.134 0.134 3 
0.468 0.123 0.134 3 
0.468 0.112 0.134 3 
0.468 0.104 0.134 3 
0.467 0.093 0.133 3 
0.468 0.082 0.134 3 
0.468 -0.007 0.082 3 
0.468 0.074 0.133 3 
0.468 0.063 0.133 3 
0.478 -0.277 0.134 3 
0.467 0.084 0.063 3 
0.465 0.343 0.132 3 
0.468 0.332 0.132 3 
0.474 -0.209 0.131 3 
0.475 -0.225 0.132 3 
0.477 -0.236 0.132 3 
0.477 -0.245 0.133 3 
0.466 0.254 0.082 3 
0.477 -0.267 0.133 3 
0.481 -0.345 0.064 3 
0.472 -0.167 0.044 3 
0.475 -0.216 0.134 3 
0.479 -0.288 0.134 3 
0.478 -0.297 0.134 3 
0.474 -0.215 0.128 3 
0.466 0.204 0.082 3 
0.48 -0.309 0.132 3 
0.482 -0.317 0.133 3 
0.482 -0.328 0.133 3 
0.474 -0.276 0.044 3 
0.482 -0.335 0.133 3 
0.483 -0.346 0.134 3 
0.466 0.265 0.124 3 
0.471 -0.125 0.132 3 
0.465 0.314 0.074 3 
0.466 0.284 0.133 3 
0.467 0.272 0.133 3 
0.467 0.263 0.133 3 
0.466 0.253 0.133 3 
0.466 0.244 0.133 3 
0.465 0.231 0.132 3 
0.466 0.223 0.132 3 
0.466 0.214 0.132 3 
0.471 -0.097 0.132 3 
0.471 -0.116 0.132 3 
0.477 -0.245 0.144 3 
0.479 -0.323 0.034 3 
0.473 -0.137 0.133 3 
0.473 -0.146 0.133 3 
0.472 -0.156 0.133 3 
0.472 -0.165 0.133 3 
0.473 -0.177 0.133 3 
0.474 -0.186 0.133 3 
0.475 -0.192 0.134 3 
0.475 -0.195 0.134 3 
0.475 -0.207 0.134 3 
0.468 0.014 0.093 3 
0.472 0.134 0.183 3 
0.471 0.21 0.184 3 
0.47 0.203 0.184 3 
0.467 0.044 0.103 3 
0.47 0.192 0.184 3 
0.47 0.183 0.183 3 
0.47 0.174 0.183 3 
0.474 -0.167 0.173 3 
0.472 -0.137 0.144 3 
0.47 0.163 0.183 3 
0.47 0.154 0.183 3 
0.472 0.143 0.183 3 
0.474 0.35 0.192 3 
0.477 -0.276 0.122 3 
0.472 0.123 0.182 3 
0.471 -0.105 0.132 3 
0.472 0.112 0.182 3 
0.472 0.103 0.182 3 
0.472 0.092 0.182 3 
0.468 -0.036 0.004 3 
0.472 0.084 0.182 3 
0.468 0.044 0.074 3 
0.473 0.073 0.182 3 
0.473 0.064 0.182 3 
0.466 0.253 0.124 3 
0.489 -0.346 0.204 3 
0.472 0.337 0.194 3 
0.471 0.333 0.193 3 
0.472 -0.147 0.094 3 
0.472 0.322 0.192 3 
0.472 0.312 0.192 3 
0.474 -0.007 0.185 3 
0.474 -0.015 0.185 3 
0.466 0.122 0.003 3 
0.479 -0.227 0.191 3 
0.479 -0.237 0.192 3 
0.472 0.053 0.182 3 
0.466 0.192 0.063 3 
0.479 -0.246 0.192 3 
0.464 0.255 0.057 3 
0.481 -0.256 0.193 3 
0.47 -0.075 0.074 3 
0.482 -0.267 0.194 3 
0.482 -0.276 0.194 3 
0.475 -0.246 0.084 3 
0.484 -0.305 0.196 3 
0.464 0.312 0.014 3 
0.475 0.355 0.193 3 
0.47 0.293 0.184 3 
0.476 -0.085 0.184 3 
0.467 0.233 0.164 3 
0.476 -0.096 0.184 3 
0.477 -0.105 0.184 3 
0.473 -0.165 0.102 3 
0.482 -0.286 0.192 3 
0.466 0.274 0.094 3 
0.483 -0.297 0.192 3 
0.467 0.143 0.134 3 
0.484 -0.305 0.193 3 
0.484 -0.315 0.194 3 
0.467 0.003 0.092 3 
0.465 0.183 0.033 3 
0.47 0.283 0.184 3 
0.47 0.274 0.183 3 
0.473 -0.226 0.052 3 
0.47 0.264 0.183 3 
0.469 0.254 0.182 3 
0.469 0.242 0.182 3 
0.47 0.233 0.182 3 
0.466 0.158 0.084 3 
0.47 0.221 0.182 3 
0.474 -0.076 0.18 3 
0.474 -0.026 0.183 3 
0.472 0.042 0.182 3 
0.469 0.113 0.164 3 
0.477 -0.318 0.014 3 
0.472 0.034 0.182 3 
0.472 0.023 0.182 3 
0.472 0.014 0.182 3 
0.472 0.003 0.182 3 
0.466 0.254 0.074 3 
0.473 -0.007 0.182 3 
0.48 -0.315 0.123 3 
0.473 -0.015 0.182 3 
0.489 -0.335 0.203 3 
0.474 -0.037 0.174 3 
0.475 -0.035 0.183 3 
0.474 -0.037 0.183 3 
0.475 -0.046 0.183 3 
0.474 -0.048 0.182 3 
0.47 -0.055 0.063 3 
0.474 -0.056 0.182 3 
0.475 -0.062 0.183 3 
0.474 -0.065 0.183 3 
0.475 -0.071 0.183 3 
0.476 -0.077 0.183 3 
0.473 0.084 0.188 3 
0.47 0.163 0.189 3 
0.472 0.152 0.189 3 
0.467 0.084 0.122 3 
0.473 0.144 0.189 3 
0.473 0.132 0.189 3 
0.474 0.124 0.189 3 
0.474 0.073 0.188 3 
0.473 0.112 0.188 3 
0.469 0.279 0.174 3 
0.473 0.104 0.188 3 
0.473 0.093 0.188 3 
0.47 0.174 0.189 3 
0.474 0.062 0.188 3 
0.474 0.054 0.188 3 
0.474 0.042 0.188 3 
0.474 0.034 0.188 3 
0.474 0.023 0.188 3 
0.474 0.012 0.188 3 
0.474 0.003 0.188 3 
0.475 -0.007 0.189 3 
0.476 -0.015 0.189 3 
0.475 -0.026 0.189 3 
0.477 -0.257 0.133 3 
0.472 0.273 0.193 3 
0.479 -0.297 0.123 3 
0.476 0.353 0.199 3 
0.473 0.339 0.197 3 
0.473 0.332 0.197 3 
0.473 0.324 0.196 3 
0.473 -0.156 0.102 3 
0.473 0.313 0.195 3 
0.473 0.303 0.195 3 
0.472 0.299 0.194 3 
0.47 0.29 0.193 3 
0.47 0.284 0.193 3 
0.475 -0.035 0.189 3 
0.472 0.263 0.193 3 
0.47 0.252 0.191 3 
0.47 0.243 0.191 3 
0.47 0.234 0.191 3 
0.471 0.222 0.191 3 
0.47 -0.036 0.142 3 
0.471 0.213 0.19 3 
0.477 -0.298 0.023 3 
0.471 0.204 0.19 3 
0.472 0.193 0.19 3 
0.471 0.184 0.189 3 
0.466 0.084 0.023 3 
0.48 -0.176 0.193 3 
0.479 -0.185 0.193 3 
0.48 -0.197 0.194 3 
0.481 -0.207 0.194 3 
0.482 -0.211 0.195 3 
0.465 0.048 0.012 3 
0.48 -0.216 0.194 3 
0.48 -0.225 0.195 3 
0.48 -0.237 0.195 3 
0.483 -0.246 0.197 3 
0.482 -0.257 0.196 3 
0.47 -0.066 0.074 3 
0.483 -0.268 0.197 3 
0.482 -0.277 0.197 3 
0.464 0.316 0.054 3 
0.484 -0.288 0.199 3 
0.484 -0.295 0.199 3 
0.485 -0.299 0.199 3 
0.471 -0.175 0.052 3 
0.485 -0.306 0.2 3 
0.465 0.172 0.033 3 
0.487 -0.318 0.201 3 
0.488 -0.327 0.202 3 
0.478 -0.097 0.19 3 
0.474 -0.037 0.188 3 
0.474 -0.046 0.188 3 
0.476 -0.051 0.189 3 
0.476 -0.057 0.189 3 
0.474 -0.205 0.154 3 
0.476 -0.065 0.189 3 
0.469 -0.126 0.014 3 
0.478 -0.077 0.19 3 
0.471 -0.045 0.153 3 
0.466 0.313 0.134 3 
0.478 -0.086 0.19 3 
0.477 -0.116 0.182 3 
0.478 -0.106 0.19 3 
0.478 -0.117 0.191 3 
0.48 -0.355 0.052 3 
0.478 -0.126 0.191 3 
0.47 -0.036 0.153 3 
0.479 -0.138 0.192 3 
0.48 -0.318 0.102 3 
0.481 -0.147 0.193 3 
0.481 -0.156 0.193 3 
0.468 0.342 0.183 3 
0.48 -0.165 0.193 3 
0.478 -0.256 0.174 3 
0.468 -0.085 0.012 3 
0.477 -0.198 0.172 3 
0.477 -0.207 0.172 3 
0.467 0.114 0.063 3 
0.476 -0.215 0.172 3 
0.474 -0.167 0.164 3 
0.476 -0.217 0.152 3 
0.478 -0.226 0.173 3 
0.479 -0.235 0.174 3 
0.479 -0.248 0.174 3 
0.473 -0.205 0.083 3 
0.476 -0.185 0.171 3 
0.465 0.294 0.063 3 
0.477 0.36 0.175 3 
0.468 0.144 0.164 3 
0.469 0.102 0.164 3 
0.47 0.086 0.164 3 
0.47 0.083 0.164 3 
0.47 0.072 0.164 3 
0.47 0.064 0.164 3 
0.465 0.222 0.124 3 
0.469 0.044 0.164 3 
0.47 0.033 0.164 3 
0.473 -0.185 0.094 3 
0.477 -0.315 0.002 3 
0.475 -0.124 0.172 3 
0.476 -0.127 0.173 3 
0.476 -0.136 0.173 3 
0.476 -0.145 0.173 3 
0.475 -0.156 0.173 3 
0.474 -0.164 0.173 3 
0.475 -0.17 0.173 3 
0.471 -0.097 0.052 3 
0.476 -0.177 0.174 3 
0.483 -0.317 0.181 3 
0.479 -0.326 0.082 3 
0.484 -0.325 0.182 3 
0.485 -0.329 0.183 3 
0.476 -0.297 0.064 3 
0.486 -0.338 0.183 3 
0.486 -0.345 0.184 3 
0.467 0.347 0.174 3 
0.467 0.34 0.174 3 
0.469 0.332 0.174 3 
0.468 0.324 0.173 3 
0.468 0.314 0.173 3 
0.468 0.304 0.172 3 
0.464 0.28 0.021 3 
0.468 0.132 0.162 3 
0.469 0.124 0.162 3 
0.471 -0.037 0.162 3 
0.472 -0.045 0.162 3 
0.472 -0.056 0.162 3 
0.473 -0.067 0.163 3 
0.472 -0.075 0.162 3 
0.472 -0.086 0.162 3 
0.472 -0.095 0.163 3 
0.466 0.114 0.044 3 
0.473 -0.106 0.163 3 
0.468 0.152 0.162 3 
0.473 -0.115 0.163 3 
0.474 -0.129 0.164 3 
0.475 -0.135 0.164 3 
0.473 -0.148 0.083 3 
0.474 -0.144 0.164 3 
0.475 -0.147 0.164 3 
0.465 0.232 0.054 3 
0.474 -0.152 0.164 3 
0.48 -0.357 0.13 3 
0.474 -0.155 0.164 3 
0.474 -0.175 0.165 3 
0.468 0.249 0.164 3 
0.47 0.023 0.164 3 
0.475 -0.127 0.164 3 
0.47 0.014 0.164 3 
0.47 0.003 0.164 3 
0.47 -0.007 0.164 3 
0.47 -0.02 0.164 3 
0.471 -0.026 0.164 3 
0.479 -0.266 0.172 3 
0.479 -0.276 0.172 3 
0.48 -0.287 0.173 3 
0.481 -0.298 0.174 3 
0.474 -0.115 0.172 3 
0.468 0.243 0.164 3 
0.467 0.224 0.163 3 
0.468 0.213 0.163 3 
0.468 0.204 0.163 3 
0.467 0.192 0.163 3 
0.467 0.183 0.162 3 
0.471 -0.116 0.124 3 
0.467 0.172 0.162 3 
0.469 0.164 0.162 3 
0.469 -0.036 0.104 3 
0.466 0.283 0.082 3 
0.468 0.173 0.174 3 
0.466 0.054 0.004 3 
0.478 -0.226 0.182 3 
0.478 -0.235 0.182 3 
0.479 -0.245 0.183 3 
0.48 -0.258 0.184 3 
0.48 -0.265 0.184 3 
0.467 0.349 0.181 3 
0.468 -0.007 0.063 3 
0.468 0.193 0.174 3 
0.464 0.271 0.032 3 
0.468 0.181 0.174 3 
0.473 -0.176 0.072 3 
0.469 0.162 0.174 3 
0.47 0.153 0.174 3 
0.47 0.142 0.174 3 
0.47 0.133 0.173 3 
0.478 -0.246 0.153 3 
0.471 0.123 0.174 3 
0.471 -0.097 0.143 3 
0.471 0.114 0.174 3 
0.47 0.103 0.173 3 
0.467 0.142 0.123 3 
0.471 0.094 0.173 3 
0.478 -0.208 0.184 3 
0.477 -0.125 0.182 3 
0.477 -0.137 0.182 3 
0.477 -0.145 0.182 3 
0.477 -0.157 0.183 3 
0.477 -0.356 0.013 3 
0.476 -0.165 0.182 3 
0.478 -0.175 0.183 3 
0.478 -0.187 0.184 3 
0.468 0.054 0.074 3 
0.479 -0.197 0.184 3 
0.468 0.014 0.144 3 
0.471 0.083 0.173 3 
0.485 -0.319 0.191 3 
0.485 -0.326 0.192 3 
0.473 -0.197 0.052 3 
0.487 -0.336 0.193 3 
0.487 -0.347 0.194 3 
0.468 -0.007 0.044 3 
0.47 0.33 0.183 3 
0.47 0.323 0.183 3 
0.471 0.314 0.183 3 
0.471 0.304 0.182 3 
0.478 -0.217 0.182 3 
0.463 0.341 0.137 3 
0.474 -0.107 0.175 3 
0.474 -0.115 0.175 3 
0.481 -0.275 0.182 3 
0.481 -0.285 0.182 3 
0.467 0.292 0.142 3 
0.481 -0.295 0.183 3 
0.468 0.003 0.004 3 
0.483 -0.307 0.184 3 
0.468 0.288 0.174 3 
0.469 0.272 0.174 3 
0.482 -0.305 0.174 3 
0.474 -0.098 0.175 3 
0.475 -0.237 0.103 3 
0.47 0.264 0.174 3 
0.469 0.254 0.174 3 
0.468 0.244 0.173 3 
0.474 -0.257 0.069 3 
0.469 0.232 0.173 3 
0.469 0.223 0.173 3 
0.469 0.214 0.172 3 
0.468 0.202 0.172 3 
0.474 -0.107 0.172 3 
0.464 0.239 0.101 3 
0.472 -0.015 0.173 3 
0.472 0.072 0.173 3 
0.471 0.064 0.173 3 
0.47 0.053 0.173 3 
0.466 0.224 0.054 3 
0.47 0.044 0.173 3 
0.47 0.034 0.173 3 
0.47 0.053 0.164 3 
0.471 0.023 0.173 3 
0.47 0.014 0.172 3 
0.47 0.003 0.173 3 
0.471 -0.007 0.173 3 
0.473 -0.178 0.164 3 
0.472 -0.026 0.173 3 
0.464 0.102 0.012 3 
0.474 -0.045 0.174 3 
0.472 -0.056 0.173 3 
0.467 0.003 0.103 3 
0.473 -0.065 0.174 3 
0.466 0.103 0.044 3 
0.464 0.214 0.013 3 
0.474 -0.076 0.174 3 
0.474 -0.087 0.174 3 
0.474 -0.096 0.174 3 
0.473 -0.205 0.044 3 
0.469 -0.055 0.044 3 
0.47 -0.075 0.044 3 
0.47 -0.086 0.044 3 
0.471 -0.097 0.044 3 
0.471 -0.105 0.044 3 
0.472 -0.116 0.044 3 
0.471 -0.135 0.044 3 
0.472 -0.147 0.044 3 
0.472 -0.156 0.044 3 
0.472 -0.176 0.044 3 
0.472 -0.187 0.044 3 
0.473 -0.197 0.044 3 
0.469 -0.045 0.044 3 
0.473 -0.217 0.044 3 
0.474 -0.227 0.044 3 
0.475 -0.237 0.044 3 
0.475 -0.246 0.044 3 
0.475 -0.268 0.044 3 
0.474 -0.273 0.044 3 
0.475 -0.283 0.044 3 
0.477 -0.297 0.044 3 
0.478 -0.305 0.043 3 
0.478 -0.325 0.043 3 
0.481 -0.346 0.043 3 
0.466 0.133 0.044 3 
0.465 0.253 0.043 3 
0.465 0.244 0.043 3 
0.465 0.232 0.043 3 
0.466 0.224 0.043 3 
0.466 0.213 0.043 3 
0.466 0.204 0.043 3 
0.465 0.192 0.044 3 
0.465 0.172 0.044 3 
0.466 0.164 0.044 3 
0.466 0.153 0.044 3 
0.466 0.144 0.044 3 
0.48 -0.355 0.043 3 
0.466 0.122 0.044 3 
0.467 0.092 0.044 3 
0.467 0.084 0.044 3 
0.467 0.073 0.044 3 
0.467 0.054 0.044 3 
0.467 0.033 0.044 3 
0.468 0.022 0.044 3 
0.468 0.014 0.044 3 
0.468 0.003 0.044 3 
0.468 -0.015 0.044 3 
0.468 -0.025 0.044 3 
0.466 0.133 0.033 3 
0.465 0.244 0.032 3 
0.465 0.232 0.032 3 
0.465 0.224 0.032 3 
0.465 0.212 0.032 3 
0.465 0.203 0.032 3 
0.464 0.2 0.033 3 
0.464 0.191 0.033 3 
0.465 0.186 0.033 3 
0.465 0.163 0.033 3 
0.465 0.152 0.033 3 
0.466 0.144 0.033 3 
0.465 0.25 0.032 3 
0.465 0.122 0.033 3 
0.467 0.114 0.033 3 
0.467 0.103 0.033 3 
0.467 0.092 0.033 3 
0.466 0.073 0.033 3 
0.467 0.062 0.033 3 
0.467 0.054 0.033 3 
0.467 0.043 0.033 3 
0.467 0.033 0.033 3 
0.469 -0.085 0.023 3 
0.467 0.022 0.033 3 
0.465 0.306 0.034 3 
0.464 0.265 0.04 3 
0.475 -0.228 0.041 3 
0.474 -0.248 0.041 3 
0.464 0.246 0.038 3 
0.475 -0.252 0.013 3 
0.464 0.194 0.038 3 
0.464 0.34 0.034 3 
0.463 0.332 0.034 3 
0.465 0.331 0.034 3 
0.464 0.323 0.034 3 
0.464 0.313 0.034 3 
0.464 0.223 0.019 3 
0.465 0.303 0.034 3 
0.466 0.291 0.034 3 
0.465 0.281 0.034 3 
0.464 0.197 0.035 3 
0.479 -0.326 0.034 3 
0.48 -0.338 0.034 3 
0.48 -0.345 0.034 3 
0.479 -0.358 0.034 3 
0.465 0.269 0.032 3 
0.464 0.262 0.032 3 
0.464 0.253 0.032 3 
0.466 0.192 0.054 3 
0.464 0.313 0.054 3 
0.464 0.303 0.054 3 
0.465 0.301 0.054 3 
0.464 0.294 0.054 3 
0.465 0.284 0.054 3 
0.465 0.272 0.054 3 
0.465 0.262 0.054 3 
0.465 0.253 0.054 3 
0.465 0.244 0.054 3 
0.466 0.213 0.054 3 
0.467 0.204 0.054 3 
0.465 0.324 0.054 3 
0.466 0.184 0.054 3 
0.465 0.287 0.051 3 
0.466 0.164 0.052 3 
0.466 0.153 0.052 3 
0.466 0.144 0.052 3 
0.466 0.133 0.052 3 
0.466 0.103 0.052 3 
0.468 0.092 0.052 3 
0.467 0.084 0.052 3 
0.468 0.073 0.052 3 
0.468 0.062 0.052 3 
0.478 -0.315 0.064 3 
0.474 -0.227 0.064 3 
0.475 -0.237 0.064 3 
0.475 -0.246 0.064 3 
0.465 0.272 0.043 3 
0.475 -0.255 0.064 3 
0.474 -0.257 0.064 3 
0.474 -0.267 0.064 3 
0.475 -0.271 0.064 3 
0.475 -0.277 0.064 3 
0.476 -0.287 0.064 3 
0.477 -0.305 0.064 3 
0.468 0.054 0.052 3 
0.479 -0.336 0.064 3 
0.48 -0.355 0.064 3 
0.464 0.319 0.06 3 
0.474 -0.276 0.061 3 
0.464 0.313 0.057 3 
0.464 0.287 0.057 3 
0.464 0.284 0.057 3 
0.465 0.224 0.024 3 
0.463 0.339 0.054 3 
0.463 0.332 0.054 3 
0.465 0.331 0.054 3 
0.48 -0.337 0.052 3 
0.475 -0.237 0.052 3 
0.476 -0.247 0.052 3 
0.475 -0.255 0.052 3 
0.474 -0.267 0.052 3 
0.474 -0.276 0.052 3 
0.475 -0.28 0.052 3 
0.475 -0.287 0.052 3 
0.478 -0.298 0.052 3 
0.478 -0.305 0.052 3 
0.478 -0.315 0.052 3 
0.48 -0.327 0.052 3 
0.473 -0.217 0.052 3 
0.475 -0.268 0.049 3 
0.475 -0.231 0.047 3 
0.463 0.339 0.042 3 
0.462 0.334 0.042 3 
0.464 0.313 0.043 3 
0.464 0.303 0.043 3 
0.47 -0.066 0.044 3 
0.465 0.284 0.043 3 
0.465 0.262 0.043 3 
0.464 0.258 0.043 3 
0.468 -0.055 0.033 3 
0.469 -0.066 0.052 3 
0.468 0.043 0.052 3 
0.468 0.033 0.052 3 
0.468 0.022 0.052 3 
0.468 0.014 0.052 3 
0.468 -0.007 0.052 3 
0.468 -0.015 0.052 3 
0.468 -0.025 0.052 3 
0.464 0.283 0.012 3 
0.469 -0.036 0.052 3 
0.469 -0.047 0.052 3 
0.469 -0.055 0.052 3 
0.467 0.014 0.033 3 
0.47 -0.077 0.052 3 
0.47 -0.086 0.052 3 
0.471 -0.105 0.052 3 
0.471 -0.116 0.052 3 
0.471 -0.127 0.052 3 
0.471 -0.135 0.052 3 
0.472 -0.147 0.052 3 
0.471 -0.155 0.052 3 
0.471 -0.166 0.052 3 
0.473 -0.185 0.052 3 
0.473 -0.205 0.052 3 
0.465 0.113 0.014 3 
0.462 0.242 0.013 3 
0.463 0.234 0.013 3 
0.463 0.222 0.013 3 
0.464 0.203 0.013 3 
0.464 0.194 0.014 3 
0.463 0.182 0.014 3 
0.464 0.174 0.014 3 
0.463 0.162 0.014 3 
0.463 0.154 0.014 3 
0.463 0.143 0.014 3 
0.465 0.132 0.014 3 
0.463 0.252 0.013 3 
0.464 0.102 0.015 3 
0.464 0.094 0.015 3 
0.464 0.07 0.015 3 
0.464 0.064 0.015 3 
0.464 0.054 0.015 3 
0.469 -0.096 0.014 3 
0.47 -0.105 0.014 3 
0.469 -0.115 0.014 3 
0.47 -0.146 0.014 3 
0.47 -0.166 0.014 3 
0.469 -0.177 0.014 3 
0.461 0.333 0.014 3 
0.47 -0.127 0.022 3 
0.47 -0.135 0.022 3 
0.472 -0.147 0.022 3 
0.472 -0.156 0.022 3 
0.471 -0.175 0.022 3 
0.471 -0.187 0.022 3 
0.471 -0.195 0.022 3 
0.464 0.302 0.017 3 
0.464 0.183 0.019 3 
0.464 0.166 0.019 3 
0.464 0.143 0.02 3 
0.47 -0.186 0.014 3 
0.464 0.322 0.014 3 
0.464 0.303 0.014 3 
0.464 0.197 0.016 3 
0.477 -0.301 0.014 3 
0.477 -0.308 0.014 3 
0.478 -0.325 0.014 3 
0.479 -0.337 0.014 3 
0.48 -0.345 0.013 3 
0.464 0.293 0.012 3 
0.463 0.273 0.012 3 
0.463 0.264 0.013 3 
0.465 0.073 0.004 3 
0.466 -0.036 0.012 3 
0.466 -0.047 0.012 3 
0.466 -0.055 0.012 3 
0.468 -0.066 0.012 3 
0.465 0.212 0.008 3 
0.465 0.203 0.008 3 
0.465 0.18 0.008 3 
0.465 0.172 0.008 3 
0.465 0.1 0.009 3 
0.465 0.073 0.009 3 
0.478 -0.326 0.002 3 
0.466 -0.025 0.012 3 
0.466 0.062 0.004 3 
0.467 0.043 0.004 3 
0.467 0.033 0.004 3 
0.467 0.022 0.004 3 
0.467 0.014 0.004 3 
0.468 -0.007 0.004 3 
0.467 -0.015 0.004 3 
0.468 -0.026 0.004 3 
0.468 -0.045 0.004 3 
0.469 -0.055 0.004 3 
0.47 -0.116 0.003 3 
0.464 0.094 0.012 3 
0.47 -0.195 0.014 3 
0.472 -0.217 0.013 3 
0.472 -0.226 0.013 3 
0.473 -0.236 0.013 3 
0.474 -0.245 0.013 3 
0.474 -0.257 0.013 3 
0.475 -0.264 0.012 3 
0.475 -0.267 0.012 3 
0.475 -0.277 0.012 3 
0.476 -0.287 0.012 3 
0.464 0.11 0.012 3 
0.47 -0.116 0.022 3 
0.465 0.089 0.012 3 
0.465 0.083 0.012 3 
0.464 0.08 0.012 3 
0.464 0.072 0.012 3 
0.464 0.054 0.012 3 
0.465 0.043 0.012 3 
0.465 0.024 0.012 3 
0.464 0.022 0.012 3 
0.466 0.003 0.012 3 
0.465 -0.007 0.012 3 
0.466 -0.015 0.012 3 
0.465 0.263 0.026 3 
0.474 -0.245 0.032 3 
0.474 -0.257 0.032 3 
0.474 -0.267 0.032 3 
0.476 -0.274 0.032 3 
0.476 -0.277 0.032 3 
0.476 -0.287 0.032 3 
0.477 -0.297 0.032 3 
0.478 -0.308 0.032 3 
0.475 -0.246 0.03 3 
0.465 0.316 0.025 3 
0.464 0.277 0.026 3 
0.475 -0.24 0.032 3 
0.464 0.241 0.027 3 
0.462 0.338 0.022 3 
0.463 0.332 0.022 3 
0.464 0.323 0.022 3 
0.465 0.316 0.023 3 
0.464 0.312 0.023 3 
0.465 0.303 0.023 3 
0.465 0.284 0.023 3 
0.464 0.262 0.024 3 
0.464 0.253 0.024 3 
0.464 0.244 0.024 3 
0.471 -0.127 0.033 3 
0.468 0.003 0.033 3 
0.468 -0.007 0.033 3 
0.468 -0.015 0.033 3 
0.468 -0.026 0.033 3 
0.469 -0.036 0.033 3 
0.469 -0.045 0.033 3 
0.47 -0.077 0.033 3 
0.471 -0.097 0.033 3 
0.471 -0.105 0.033 3 
0.471 -0.125 0.003 3 
0.471 -0.116 0.033 3 
0.465 0.235 0.024 3 
0.472 -0.136 0.033 3 
0.472 -0.147 0.033 3 
0.473 -0.156 0.033 3 
0.473 -0.165 0.033 3 
0.472 -0.176 0.033 3 
0.471 -0.187 0.033 3 
0.471 -0.195 0.033 3 
0.472 -0.205 0.033 3 
0.473 -0.217 0.033 3 
0.474 -0.227 0.033 3 
0.474 -0.236 0.033 3 
0.466 0.014 0.023 3 
0.465 0.144 0.022 3 
0.465 0.133 0.022 3 
0.466 0.122 0.022 3 
0.466 0.114 0.022 3 
0.466 0.103 0.022 3 
0.466 0.094 0.022 3 
0.466 0.073 0.023 3 
0.465 0.064 0.023 3 
0.466 0.054 0.023 3 
0.466 0.032 0.023 3 
0.466 0.024 0.023 3 
0.464 0.154 0.022 3 
0.467 0.003 0.023 3 
0.467 -0.007 0.023 3 
0.467 -0.015 0.023 3 
0.467 -0.025 0.023 3 
0.468 -0.036 0.023 3 
0.469 -0.045 0.023 3 
0.468 -0.055 0.023 3 
0.467 -0.066 0.023 3 
0.469 -0.077 0.023 3 
0.47 -0.096 0.023 3 
0.471 -0.105 0.022 3 
0.475 -0.267 0.024 3 
0.465 0.232 0.024 3 
0.465 0.212 0.024 3 
0.465 0.203 0.024 3 
0.465 0.192 0.024 3 
0.465 0.183 0.024 3 
0.464 0.152 0.025 3 
0.472 -0.208 0.024 3 
0.473 -0.217 0.024 3 
0.473 -0.226 0.024 3 
0.474 -0.255 0.024 3 
0.475 -0.264 0.024 3 
0.474 -0.206 0.064 3 
0.476 -0.277 0.024 3 
0.477 -0.285 0.023 3 
0.478 -0.305 0.023 3 
0.478 -0.315 0.023 3 
0.479 -0.326 0.023 3 
0.48 -0.338 0.022 3 
0.477 -0.356 0.022 3 
0.464 0.232 0.021 3 
0.465 0.172 0.022 3 
0.465 0.163 0.022 3 
0.464 0.16 0.022 3 
0.466 0.283 0.094 3 
0.483 -0.348 0.103 3 
0.483 -0.355 0.103 3 
0.467 0.062 0.044 3 
0.475 -0.213 0.097 3 
0.463 0.339 0.094 3 
0.463 0.332 0.094 3 
0.466 0.332 0.094 3 
0.466 0.322 0.094 3 
0.466 0.312 0.094 3 
0.465 0.304 0.094 3 
0.466 0.293 0.094 3 
0.48 -0.335 0.103 3 
0.466 0.043 0.023 3 
0.465 0.264 0.093 3 
0.467 0.103 0.074 3 
0.465 0.254 0.093 3 
0.468 0.044 0.063 3 
0.466 0.242 0.093 3 
0.466 0.233 0.093 3 
0.466 0.224 0.093 3 
0.466 0.213 0.093 3 
0.466 0.204 0.093 3 
0.467 0.193 0.093 3 
0.474 -0.227 0.103 3 
0.466 0.283 0.102 3 
0.465 0.273 0.102 3 
0.471 -0.125 0.102 3 
0.472 -0.136 0.102 3 
0.474 -0.236 0.024 3 
0.472 -0.145 0.102 3 
0.473 -0.176 0.102 3 
0.474 -0.186 0.103 3 
0.474 -0.197 0.103 3 
0.474 -0.206 0.103 3 
0.474 -0.215 0.103 3 
0.466 0.184 0.093 3 
0.475 -0.231 0.103 3 
0.48 -0.337 0.043 3 
0.476 -0.247 0.104 3 
0.475 -0.255 0.104 3 
0.476 -0.278 0.104 3 
0.477 -0.285 0.104 3 
0.464 0.251 0.099 3 
0.475 -0.201 0.1 3 
0.478 -0.296 0.102 3 
0.479 -0.307 0.102 3 
0.481 -0.326 0.103 3 
0.474 -0.236 0.095 3 
0.47 -0.086 0.093 3 
0.471 -0.097 0.093 3 
0.471 -0.105 0.093 3 
0.471 -0.116 0.093 3 
0.471 -0.125 0.094 3 
0.464 0.194 0.024 3 
0.471 -0.136 0.094 3 
0.472 -0.156 0.094 3 
0.472 -0.176 0.094 3 
0.474 -0.197 0.094 3 
0.474 -0.206 0.094 3 
0.47 -0.077 0.093 3 
0.474 -0.251 0.095 3 
0.474 -0.26 0.095 3 
0.474 -0.215 0.092 3 
0.475 -0.222 0.092 3 
0.475 -0.225 0.092 3 
0.474 -0.227 0.092 3 
0.474 -0.236 0.092 3 
0.475 -0.246 0.092 3 
0.473 -0.196 0.064 3 
0.476 -0.287 0.044 3 
0.475 -0.255 0.092 3 
0.467 0.063 0.093 3 
0.466 0.173 0.093 3 
0.466 0.164 0.093 3 
0.466 0.153 0.093 3 
0.466 0.144 0.093 3 
0.467 0.134 0.093 3 
0.466 0.122 0.093 3 
0.467 0.114 0.093 3 
0.467 0.103 0.093 3 
0.467 0.092 0.093 3 
0.467 0.084 0.093 3 
0.467 0.073 0.093 3 
0.466 0.293 0.102 3 
0.467 0.054 0.093 3 
0.468 0.044 0.093 3 
0.467 0.033 0.092 3 
0.467 0.022 0.092 3 
0.468 -0.007 0.093 3 
0.468 -0.015 0.093 3 
0.469 -0.025 0.093 3 
0.469 -0.036 0.093 3 
0.469 -0.047 0.093 3 
0.469 -0.055 0.093 3 
0.469 -0.066 0.093 3 
0.475 -0.21 0.112 3 
0.474 -0.186 0.105 3 
0.472 -0.148 0.113 3 
0.471 -0.156 0.113 3 
0.473 -0.165 0.113 3 
0.474 -0.177 0.114 3 
0.475 -0.183 0.114 3 
0.475 -0.186 0.114 3 
0.475 -0.195 0.114 3 
0.474 -0.2 0.114 3 
0.474 -0.206 0.114 3 
0.474 -0.215 0.114 3 
0.472 -0.136 0.113 3 
0.475 -0.225 0.112 3 
0.476 -0.235 0.112 3 
0.475 -0.255 0.112 3 
0.465 0.294 0.023 3 
0.476 -0.266 0.113 3 
0.476 -0.275 0.113 3 
0.477 -0.286 0.113 3 
0.479 -0.297 0.114 3 
0.48 -0.308 0.114 3 
0.48 -0.315 0.114 3 
0.48 -0.325 0.114 3 
0.479 -0.326 0.064 3 
0.466 0.274 0.113 3 
0.466 0.252 0.113 3 
0.466 0.291 0.043 3 
0.466 0.243 0.113 3 
0.466 0.234 0.113 3 
0.466 0.222 0.112 3 
0.464 0.323 0.042 3 
0.466 0.213 0.112 3 
0.467 0.193 0.112 3 
0.467 0.182 0.112 3 
0.467 0.173 0.112 3 
0.474 -0.245 0.081 3 
0.467 0.142 0.112 3 
0.47 -0.047 0.112 3 
0.47 -0.055 0.112 3 
0.47 -0.066 0.112 3 
0.47 -0.075 0.112 3 
0.47 -0.086 0.112 3 
0.468 -0.066 0.033 3 
0.471 -0.097 0.113 3 
0.471 -0.105 0.113 3 
0.472 -0.117 0.113 3 
0.471 -0.125 0.113 3 
0.469 -0.066 0.104 3 
0.466 0.073 0.103 3 
0.467 0.063 0.103 3 
0.471 -0.097 0.082 3 
0.467 0.054 0.103 3 
0.468 0.033 0.103 3 
0.468 0.014 0.103 3 
0.468 -0.007 0.103 3 
0.468 -0.015 0.103 3 
0.469 -0.025 0.104 3 
0.469 -0.047 0.104 3 
0.469 -0.055 0.104 3 
0.467 0.084 0.103 3 
0.47 -0.077 0.104 3 
0.47 -0.086 0.104 3 
0.471 -0.097 0.104 3 
0.471 -0.116 0.104 3 
0.466 0.272 0.063 3 
0.463 0.339 0.103 3 
0.464 0.333 0.103 3 
0.466 0.332 0.103 3 
0.466 0.322 0.103 3 
0.466 0.312 0.103 3 
0.465 0.301 0.102 3 
0.467 0.182 0.104 3 
0.481 -0.336 0.112 3 
0.482 -0.348 0.112 3 
0.474 -0.245 0.024 3 
0.48 -0.357 0.112 3 
0.465 0.248 0.104 3 
0.465 0.242 0.104 3 
0.465 0.233 0.104 3 
0.466 0.222 0.104 3 
0.466 0.213 0.104 3 
0.467 0.202 0.104 3 
0.467 0.193 0.104 3 
0.475 -0.268 0.092 3 
0.467 0.173 0.104 3 
0.48 -0.345 0.022 3 
0.466 0.164 0.104 3 
0.466 0.153 0.104 3 
0.466 0.142 0.103 3 
0.467 0.134 0.104 3 
0.467 0.123 0.104 3 
0.467 0.114 0.104 3 
0.467 0.043 0.044 3 
0.467 0.103 0.103 3 
0.467 0.093 0.103 3 
0.475 -0.237 0.072 3 
0.472 -0.136 0.074 3 
0.472 -0.156 0.072 3 
0.473 -0.165 0.072 3 
0.473 -0.185 0.072 3 
0.473 -0.196 0.072 3 
0.474 -0.206 0.072 3 
0.466 0.084 0.033 3 
0.474 -0.215 0.072 3 
0.466 0.122 0.052 3 
0.475 -0.228 0.072 3 
0.474 -0.23 0.072 3 
0.472 -0.125 0.074 3 
0.471 -0.086 0.033 3 
0.474 -0.242 0.072 3 
0.475 -0.246 0.072 3 
0.475 -0.255 0.072 3 
0.475 -0.267 0.072 3 
0.475 -0.277 0.072 3 
0.475 -0.286 0.072 3 
0.476 -0.297 0.073 3 
0.477 -0.305 0.073 3 
0.477 -0.315 0.073 3 
0.479 -0.326 0.073 3 
0.467 0.033 0.074 3 
0.466 0.172 0.074 3 
0.466 0.164 0.074 3 
0.466 0.153 0.074 3 
0.466 0.142 0.074 3 
0.467 0.134 0.074 3 
0.467 0.123 0.074 3 
0.467 0.114 0.074 3 
0.467 0.092 0.074 3 
0.467 0.084 0.074 3 
0.467 0.073 0.074 3 
0.468 0.062 0.074 3 
0.48 -0.337 0.073 3 
0.467 0.022 0.074 3 
0.468 0.014 0.074 3 
0.468 0.003 0.074 3 
0.469 -0.007 0.074 3 
0.469 -0.015 0.074 3 
0.469 -0.026 0.074 3 
0.468 -0.036 0.074 3 
0.47 -0.055 0.074 3 
0.47 -0.086 0.074 3 
0.471 -0.105 0.074 3 
0.471 -0.116 0.074 3 
0.47 -0.086 0.063 3 
0.468 0.054 0.063 3 
0.467 0.022 0.063 3 
0.468 0.014 0.063 3 
0.468 0.003 0.063 3 
0.468 -0.015 0.063 3 
0.468 -0.025 0.063 3 
0.469 -0.036 0.063 3 
0.469 -0.047 0.063 3 
0.47 -0.066 0.063 3 
0.464 0.157 0.028 3 
0.47 -0.075 0.063 3 
0.468 0.073 0.063 3 
0.471 -0.097 0.063 3 
0.47 -0.105 0.063 3 
0.471 -0.116 0.063 3 
0.48 -0.348 0.052 3 
0.471 -0.127 0.063 3 
0.471 -0.135 0.063 3 
0.472 -0.147 0.063 3 
0.472 -0.156 0.063 3 
0.473 -0.168 0.063 3 
0.472 -0.176 0.063 3 
0.473 -0.185 0.064 3 
0.465 0.244 0.063 3 
0.481 -0.345 0.073 3 
0.481 -0.356 0.073 3 
0.474 -0.27 0.069 3 
0.465 0.331 0.062 3 
0.465 0.324 0.062 3 
0.465 0.314 0.062 3 
0.465 0.304 0.062 3 
0.464 0.064 0.012 3 
0.465 0.282 0.063 3 
0.465 0.253 0.063 3 
0.468 0.003 0.052 3 
0.466 0.184 0.074 3 
0.465 0.059 0.009 3 
0.466 0.224 0.063 3 
0.466 0.213 0.063 3 
0.466 0.204 0.063 3 
0.465 0.183 0.063 3 
0.465 0.172 0.063 3 
0.466 0.164 0.063 3 
0.466 0.144 0.063 3 
0.467 0.134 0.063 3 
0.467 0.103 0.063 3 
0.467 0.092 0.063 3 
0.465 0.263 0.082 3 
0.467 0.033 0.084 3 
0.467 0.022 0.084 3 
0.467 0.014 0.084 3 
0.464 0.34 0.083 3 
0.463 0.332 0.082 3 
0.465 0.331 0.083 3 
0.466 0.322 0.083 3 
0.465 0.311 0.082 3 
0.465 0.304 0.082 3 
0.465 0.291 0.082 3 
0.466 0.274 0.082 3 
0.468 0.044 0.084 3 
0.466 0.242 0.082 3 
0.468 0.062 0.063 3 
0.465 0.232 0.082 3 
0.465 0.224 0.082 3 
0.464 0.274 0.023 3 
0.466 0.213 0.082 3 
0.466 0.192 0.082 3 
0.466 0.184 0.082 3 
0.466 0.172 0.082 3 
0.473 -0.188 0.083 3 
0.467 0.123 0.082 3 
0.466 0.144 0.084 3 
0.472 -0.125 0.044 3 
0.476 -0.278 0.093 3 
0.464 0.293 0.017 3 
0.478 -0.296 0.093 3 
0.479 -0.307 0.093 3 
0.479 -0.317 0.093 3 
0.48 -0.325 0.094 3 
0.48 -0.335 0.094 3 
0.482 -0.347 0.094 3 
0.483 -0.355 0.094 3 
0.466 0.153 0.084 3 
0.468 0.003 0.082 3 
0.466 0.133 0.084 3 
0.467 0.112 0.084 3 
0.467 0.103 0.084 3 
0.465 0.135 0.011 3 
0.467 0.092 0.084 3 
0.467 0.084 0.084 3 
0.461 0.337 0.014 3 
0.467 0.073 0.084 3 
0.469 -0.047 0.074 3 
0.467 0.062 0.084 3 
0.468 0.054 0.084 3 
0.464 0.31 0.074 3 
0.477 -0.295 0.084 3 
0.478 -0.306 0.084 3 
0.465 0.291 0.074 3 
0.478 -0.316 0.082 3 
0.481 -0.338 0.082 3 
0.481 -0.345 0.082 3 
0.481 -0.356 0.082 3 
0.463 0.339 0.074 3 
0.463 0.332 0.074 3 
0.465 0.331 0.074 3 
0.465 0.324 0.074 3 
0.476 -0.287 0.084 3 
0.465 0.304 0.074 3 
0.465 0.282 0.074 3 
0.465 0.273 0.074 3 
0.466 0.263 0.074 3 
0.466 0.242 0.074 3 
0.466 0.233 0.074 3 
0.465 0.224 0.074 3 
0.466 0.213 0.074 3 
0.465 0.032 0.012 3 
0.466 0.204 0.074 3 
0.466 0.192 0.074 3 
0.472 -0.167 0.083 3 
0.469 -0.026 0.082 3 
0.468 -0.036 0.082 3 
0.469 -0.047 0.082 3 
0.469 -0.055 0.082 3 
0.47 -0.066 0.082 3 
0.469 -0.077 0.082 3 
0.469 -0.085 0.082 3 
0.471 -0.105 0.082 3 
0.471 -0.116 0.083 3 
0.47 -0.127 0.082 3 
0.473 -0.156 0.083 3 
0.466 0.283 0.113 3 
0.465 0.014 0.012 3 
0.472 -0.176 0.083 3 
0.473 -0.197 0.083 3 
0.474 -0.215 0.083 3 
0.474 -0.227 0.083 3 
0.474 -0.236 0.083 3 
0.475 -0.243 0.084 3 
0.47 -0.097 0.074 3 
0.475 -0.255 0.084 3 
0.476 -0.268 0.084 3 
0.475 -0.277 0.084 3 
0.317 -0.015 0.018 7 
0.302 -0.005 0.021 7 
0.301 0.001 0.021 7 
0.302 -0.015 0.021 7 
0.328 -0.015 0.017 7 
0.319 -0.005 0.018 7 
