# .PCD v0.7 - Point Cloud Data file
FIELDS x y z intensity
SIZE 4 4 4 4
TYPE F F F F
COUNT 1 1 1 1
WIDTH 2479
HEIGHT 1
VIEWPOINT 0 0 0 1 0 0 0
POINTS 2479
DATA ascii
0.37 -0.236 -0.024 1 
0.373 -0.235 -0.025 1 
0.371 -0.225 -0.024 1 
0.364 -0.167 -0.019 1 
0.364 -0.155 -0.018 1 
0.364 -0.139 -0.018 1 
0.361 -0.126 -0.016 1 
0.36 -0.064 -0.015 1 
0.356 -0.025 -0.013 1 
0.339 -0.005 -0.007 1 
0.333 0.018 -0.005 1 
0.344 0.022 -0.009 1 
0.353 0.034 -0.012 1 
0.353 0.044 -0.012 1 
0.354 0.047 -0.013 1 
0.354 0.082 -0.013 1 
0.357 0.094 -0.015 1 
0.35 0.111 -0.013 1 
0.352 0.123 -0.014 1 
0.353 0.154 -0.015 1 
0.351 0.156 -0.015 1 
0.349 0.174 -0.015 1 
0.373 -0.196 -0.021 1 
0.362 -0.086 -0.014 1 
0.364 -0.065 -0.014 1 
0.362 -0.055 -0.014 1 
0.364 -0.043 -0.014 1 
0.364 -0.026 -0.015 1 
0.353 -0.006 -0.01 1 
0.353 0.024 -0.011 1 
0.358 0.033 -0.012 1 
0.36 0.044 -0.013 1 
0.362 0.073 -0.014 1 
0.362 0.075 -0.015 1 
0.36 0.083 -0.014 1 
0.361 0.092 -0.014 1 
0.361 0.103 -0.015 1 
0.354 0.13 -0.013 1 
0.352 0.173 -0.014 1 
0.353 0.182 -0.015 1 
0.35 0.204 -0.015 1 
0.384 -0.247 -0.025 1 
0.383 -0.236 -0.024 1 
0.384 -0.229 -0.024 1 
0.373 -0.185 -0.019 1 
0.374 -0.175 -0.019 1 
0.374 -0.146 -0.018 1 
0.374 -0.138 -0.018 1 
0.374 -0.126 -0.017 1 
0.372 -0.115 -0.016 1 
0.374 -0.105 -0.017 1 
0.371 -0.096 -0.016 1 
0.368 -0.087 -0.014 1 
0.372 -0.075 -0.016 1 
0.37 -0.045 -0.015 1 
0.373 -0.036 -0.016 1 
0.372 -0.006 -0.016 1 
0.316 0.013 0.003 1 
0.365 0.107 -0.014 1 
0.363 0.123 -0.014 1 
0.363 0.154 -0.015 1 
0.359 0.173 -0.015 1 
0.381 -0.246 -0.024 1 
0.357 0.178 -0.014 1 
0.353 0.214 -0.015 1 
0.352 0.215 -0.015 1 
0.388 -0.257 -0.025 1 
0.377 -0.165 -0.017 1 
0.381 -0.155 -0.018 1 
0.378 -0.107 -0.016 1 
0.374 -0.091 -0.015 1 
0.377 -0.075 -0.015 1 
0.372 -0.066 -0.014 1 
0.374 -0.055 -0.014 1 
0.374 -0.025 -0.014 1 
0.374 -0.018 -0.014 1 
0.331 -0.004 0 1 
0.317 0 0.004 1 
0.373 0.034 -0.014 1 
0.373 0.043 -0.014 1 
0.374 0.052 -0.015 1 
0.373 0.073 -0.015 1 
0.371 0.084 -0.014 1 
0.373 0.104 -0.015 1 
0.372 0.123 -0.015 1 
0.37 0.133 -0.015 1 
0.368 0.144 -0.015 1 
0.371 0.164 -0.016 1 
0.363 0.194 -0.015 1 
0.361 0.204 -0.015 1 
0.357 0.22 -0.015 1 
0.394 -0.266 -0.025 1 
0.362 0.053 -0.014 1 
0.393 -0.257 -0.024 1 
0.392 -0.245 -0.023 1 
0.388 -0.226 -0.021 1 
0.384 -0.126 -0.017 1 
0.384 -0.118 -0.017 1 
0.38 -0.096 -0.015 1 
0.377 -0.065 -0.013 1 
0.38 -0.059 -0.014 1 
0.382 -0.055 -0.015 1 
0.381 -0.047 -0.015 1 
0.38 -0.045 -0.014 1 
0.38 -0.041 -0.014 1 
0.382 -0.036 -0.015 1 
0.382 -0.028 -0.015 1 
0.38 -0.026 -0.014 1 
0.38 -0.02 -0.014 1 
0.382 -0.016 -0.015 1 
0.383 -0.009 -0.015 1 
0.38 0.023 -0.015 1 
0.38 0.04 -0.015 1 
0.379 0.044 -0.014 1 
0.379 0.052 -0.014 1 
0.379 0.054 -0.015 1 
0.38 0.074 -0.015 1 
0.378 0.083 -0.015 1 
0.377 0.084 -0.014 1 
0.378 0.114 -0.015 1 
0.373 0.143 -0.014 1 
0.372 0.183 -0.016 1 
0.366 0.212 -0.015 1 
0.394 -0.217 -0.02 1 
0.39 -0.125 -0.017 1 
0.391 -0.115 -0.017 1 
0.374 -0.221 -0.025 1 
0.391 -0.107 -0.017 1 
0.389 -0.055 -0.015 1 
0.352 0.136 -0.014 1 
0.384 0.024 -0.014 1 
0.383 0.027 -0.014 1 
0.385 0.049 -0.014 1 
0.384 0.099 -0.015 1 
0.383 0.123 -0.015 1 
0.38 0.142 -0.015 1 
0.379 0.143 -0.014 1 
0.378 0.155 -0.014 1 
0.381 0.163 -0.016 1 
0.374 0.193 -0.015 1 
0.373 0.224 -0.016 1 
0.402 -0.275 -0.023 1 
0.402 -0.267 -0.023 1 
0.373 0.054 -0.014 1 
0.402 -0.256 -0.022 1 
0.394 -0.211 -0.018 1 
0.394 -0.192 -0.018 1 
0.394 -0.094 -0.015 1 
0.394 -0.075 -0.015 1 
0.394 -0.073 -0.015 1 
0.394 -0.052 -0.015 1 
0.391 -0.045 -0.014 1 
0.392 -0.041 -0.014 1 
0.394 -0.04 -0.015 1 
0.393 -0.025 -0.015 1 
0.392 -0.017 -0.014 1 
0.394 -0.009 -0.015 1 
0.391 0.028 -0.014 1 
0.364 -0.145 -0.018 1 
0.393 0.033 -0.015 1 
0.393 0.053 -0.015 1 
0.392 0.063 -0.015 1 
0.393 0.074 -0.015 1 
0.392 0.084 -0.015 1 
0.39 0.093 -0.015 1 
0.389 0.097 -0.014 1 
0.391 0.104 -0.015 1 
0.388 0.124 -0.015 1 
0.381 0.179 -0.014 1 
0.41 -0.267 -0.023 1 
0.414 -0.255 -0.023 1 
0.411 -0.246 -0.022 1 
0.379 -0.215 -0.02 1 
0.404 -0.229 -0.019 1 
0.402 -0.206 -0.018 1 
0.401 -0.195 -0.018 1 
0.402 -0.105 -0.016 1 
0.4 -0.075 -0.015 1 
0.401 -0.066 -0.015 1 
0.402 -0.056 -0.015 1 
0.399 -0.047 -0.014 1 
0.4 -0.045 -0.015 1 
0.399 -0.041 -0.014 1 
0.403 -0.035 -0.016 1 
0.399 -0.016 -0.015 1 
0.399 -0.009 -0.015 1 
0.4 0.044 -0.015 1 
0.397 0.094 -0.015 1 
0.396 0.104 -0.015 1 
0.393 0.124 -0.014 1 
0.392 0.137 -0.014 1 
0.393 0.144 -0.015 1 
0.389 0.154 -0.014 1 
0.391 0.16 -0.014 1 
0.393 0.163 -0.015 1 
0.388 0.183 -0.015 1 
0.391 0.223 -0.017 1 
0.382 0.243 -0.016 1 
0.382 0.246 -0.016 1 
0.411 -0.285 -0.022 1 
0.41 -0.235 -0.019 1 
0.408 -0.225 -0.018 1 
0.404 -0.186 -0.016 1 
0.403 -0.146 -0.015 1 
0.404 -0.142 -0.015 1 
0.389 -0.252 -0.025 1 
0.408 -0.115 -0.016 1 
0.406 -0.076 -0.015 1 
0.344 -0.004 0.003 1 
0.406 0.032 -0.015 1 
0.406 0.043 -0.015 1 
0.394 -0.199 -0.018 1 
0.405 0.058 -0.015 1 
0.402 0.072 -0.014 1 
0.403 0.114 -0.015 1 
0.403 0.123 -0.015 1 
0.401 0.129 -0.015 1 
0.398 0.134 -0.014 1 
0.394 0.174 -0.014 1 
0.394 0.183 -0.014 1 
0.391 0.194 -0.014 1 
0.391 0.204 -0.014 1 
0.394 0.243 -0.017 1 
0.422 -0.266 -0.021 1 
0.42 -0.255 -0.02 1 
0.411 -0.196 -0.016 1 
0.414 -0.169 -0.016 1 
0.414 -0.157 -0.016 1 
0.41 -0.141 -0.014 1 
0.352 0.193 -0.015 1 
0.413 -0.136 -0.015 1 
0.414 -0.106 -0.015 1 
0.414 -0.097 -0.015 1 
0.414 -0.086 -0.015 1 
0.413 -0.076 -0.014 1 
0.413 -0.072 -0.014 1 
0.414 -0.066 -0.015 1 
0.414 -0.048 -0.015 1 
0.414 -0.045 -0.014 1 
0.415 -0.028 -0.015 1 
0.413 -0.025 -0.014 1 
0.413 -0.012 -0.014 1 
0.456 -0.009 -0.027 1 
0.344 -0.004 0.005 1 
0.411 0.053 -0.014 1 
0.409 0.072 -0.014 1 
0.408 0.094 -0.014 1 
0.404 0.141 -0.014 1 
0.404 0.146 -0.014 1 
0.314 0.008 0.001 1 
0.402 0.163 -0.013 1 
0.402 0.173 -0.014 1 
0.402 0.189 -0.015 1 
0.401 0.193 -0.014 1 
0.401 0.222 -0.015 1 
0.397 0.234 -0.015 1 
0.395 0.244 -0.015 1 
0.424 -0.297 -0.021 1 
0.424 -0.288 -0.02 1 
0.423 -0.236 -0.018 1 
0.422 -0.225 -0.017 1 
0.421 -0.217 -0.017 1 
0.419 -0.197 -0.016 1 
0.42 -0.166 -0.015 1 
0.418 -0.155 -0.015 1 
0.421 -0.107 -0.015 1 
0.421 -0.095 -0.015 1 
0.421 -0.088 -0.015 1 
0.42 -0.076 -0.014 1 
0.419 -0.065 -0.014 1 
0.383 -0.185 -0.018 1 
0.389 -0.146 -0.017 1 
0.402 0.103 -0.014 1 
0.42 -0.035 -0.014 1 
0.454 -0.009 -0.024 1 
0.411 0.134 -0.013 1 
0.41 0.143 -0.013 1 
0.412 0.153 -0.014 1 
0.409 0.163 -0.013 1 
0.404 -0.237 -0.022 1 
0.407 0.223 -0.015 1 
0.405 0.234 -0.015 1 
0.42 -0.135 -0.015 1 
0.403 0.234 -0.014 1 
0.402 0.244 -0.014 1 
0.402 0.246 -0.014 1 
0.403 0.263 -0.015 1 
0.401 0.269 -0.015 1 
0.432 -0.285 -0.019 1 
0.432 -0.276 -0.019 1 
0.423 -0.188 -0.014 1 
0.426 -0.187 -0.015 1 
0.423 -0.175 -0.014 1 
0.424 -0.174 -0.014 1 
0.422 -0.157 -0.013 1 
0.423 -0.146 -0.014 1 
0.424 -0.144 -0.014 1 
0.428 -0.132 -0.015 1 
0.424 -0.057 -0.013 1 
0.424 -0.05 -0.013 1 
0.424 -0.027 -0.013 1 
0.383 0.208 -0.016 1 
0.421 0.034 -0.012 1 
0.424 -0.184 -0.015 1 
0.424 0.044 -0.013 1 
0.423 0.062 -0.013 1 
0.422 0.074 -0.013 1 
0.423 0.093 -0.013 1 
0.42 0.103 -0.013 1 
0.421 0.123 -0.013 1 
0.414 0.194 -0.013 1 
0.398 0.061 -0.015 1 
0.411 0.214 -0.013 1 
0.412 0.238 -0.014 1 
0.414 0.242 -0.015 1 
0.416 0.25 -0.016 1 
0.414 0.253 -0.015 1 
0.41 0.254 -0.014 1 
0.413 0.274 -0.016 1 
0.437 -0.315 -0.019 1 
0.434 -0.249 -0.016 1 
0.432 -0.225 -0.015 1 
0.432 -0.215 -0.015 1 
0.433 -0.208 -0.015 1 
0.432 -0.2 -0.015 1 
0.381 -0.074 -0.015 1 
0.432 -0.197 -0.014 1 
0.43 -0.185 -0.014 1 
0.43 -0.175 -0.014 1 
0.429 -0.157 -0.013 1 
0.431 -0.145 -0.013 1 
0.431 -0.135 -0.013 1 
0.431 -0.126 -0.013 1 
0.431 -0.116 -0.013 1 
0.431 -0.106 -0.013 1 
0.431 -0.096 -0.013 1 
0.431 -0.087 -0.013 1 
0.434 -0.076 -0.013 1 
0.433 -0.066 -0.013 1 
0.352 0.175 -0.014 1 
0.401 0.203 -0.015 1 
0.432 -0.046 -0.013 1 
0.433 -0.037 -0.013 1 
0.43 0.043 -0.012 1 
0.429 0.054 -0.012 1 
0.422 0.154 -0.012 1 
0.421 0.164 -0.012 1 
0.42 0.173 -0.012 1 
0.42 0.183 -0.012 1 
0.421 0.194 -0.013 1 
0.418 0.271 -0.015 1 
0.421 0.283 -0.016 1 
0.425 0.29 -0.017 1 
0.432 -0.309 -0.015 1 
0.439 -0.277 -0.016 1 
0.437 -0.255 -0.015 1 
0.434 -0.206 -0.013 1 
0.437 -0.195 -0.013 1 
0.437 -0.185 -0.013 1 
0.423 0.083 -0.013 1 
0.438 -0.087 -0.012 1 
0.404 0.064 -0.014 1 
0.439 -0.035 -0.012 1 
0.443 -0.016 -0.013 1 
0.433 0.062 -0.011 1 
0.433 0.072 -0.011 1 
0.434 0.082 -0.011 1 
0.414 -0.057 -0.015 1 
0.434 0.094 -0.012 1 
0.431 0.123 -0.011 1 
0.429 0.144 -0.011 1 
0.429 0.154 -0.011 1 
0.422 0.202 -0.011 1 
0.422 0.213 -0.011 1 
0.423 0.221 -0.012 1 
0.422 0.234 -0.012 1 
0.422 0.242 -0.012 1 
0.423 0.254 -0.013 1 
0.421 0.274 -0.013 1 
0.424 0.283 -0.014 1 
0.444 -0.303 -0.015 1 
0.446 -0.296 -0.015 1 
0.443 -0.226 -0.013 1 
0.441 -0.217 -0.012 1 
0.442 -0.178 -0.012 1 
0.441 -0.166 -0.011 1 
0.44 -0.155 -0.011 1 
0.441 -0.146 -0.011 1 
0.442 -0.126 -0.011 1 
0.44 -0.115 -0.01 1 
0.441 -0.105 -0.01 1 
0.444 -0.099 -0.011 1 
0.444 -0.076 -0.011 1 
0.442 -0.065 -0.01 1 
0.443 -0.056 -0.011 1 
0.424 0.053 -0.013 1 
0.444 -0.029 -0.011 1 
0.438 0.032 -0.01 1 
0.441 0.042 -0.01 1 
0.441 0.054 -0.01 1 
0.44 0.064 -0.01 1 
0.44 0.074 -0.01 1 
0.439 0.084 -0.01 1 
0.434 0.162 -0.011 1 
0.433 0.174 -0.011 1 
0.43 0.203 -0.01 1 
0.431 0.223 -0.011 1 
0.43 0.284 -0.013 1 
0.422 0.293 -0.012 1 
0.45 -0.326 -0.015 1 
0.451 -0.318 -0.015 1 
0.443 -0.287 -0.012 1 
0.444 -0.267 -0.011 1 
0.443 -0.257 -0.011 1 
0.444 -0.247 -0.011 1 
0.413 0.103 -0.013 1 
0.444 -0.244 -0.011 1 
0.449 -0.126 -0.01 1 
0.447 -0.115 -0.009 1 
0.448 -0.105 -0.01 1 
0.45 -0.095 -0.01 1 
0.443 -0.205 -0.012 1 
0.451 -0.085 -0.01 1 
0.45 -0.055 -0.01 1 
0.48 -0.016 -0.017 1 
0.474 -0.01 -0.016 1 
0.442 0.112 -0.009 1 
0.444 0.123 -0.009 1 
0.443 0.133 -0.009 1 
0.434 0.183 -0.008 1 
0.433 0.187 -0.008 1 
0.434 0.233 -0.01 1 
0.432 0.251 -0.01 1 
0.434 0.256 -0.01 1 
0.431 0.273 -0.01 1 
0.426 0.297 -0.01 1 
0.384 -0.209 -0.019 1 
0.454 -0.327 -0.013 1 
0.454 -0.317 -0.012 1 
0.454 -0.298 -0.012 1 
0.453 -0.285 -0.011 1 
0.45 -0.276 -0.01 1 
0.419 0.134 -0.013 1 
0.45 -0.267 -0.01 1 
0.449 -0.257 -0.01 1 
0.449 -0.245 -0.009 1 
0.452 -0.236 -0.01 1 
0.454 -0.226 -0.01 1 
0.454 -0.216 -0.01 1 
0.454 -0.205 -0.01 1 
0.453 -0.196 -0.009 1 
0.454 -0.185 -0.009 1 
0.454 -0.158 -0.009 1 
0.454 -0.147 -0.009 1 
0.454 -0.142 -0.009 1 
0.454 -0.066 -0.008 1 
0.454 0.054 -0.009 1 
0.452 0.064 -0.008 1 
0.449 0.092 -0.008 1 
0.444 0.163 -0.008 1 
0.444 0.173 -0.008 1 
0.44 0.184 -0.007 1 
0.441 0.204 -0.008 1 
0.439 0.243 -0.009 1 
0.439 0.272 -0.009 1 
0.44 0.282 -0.01 1 
0.462 -0.297 -0.011 1 
0.354 0.002 0.015 1 
0.355 0.003 0.015 1 
0.354 0.143 -0.015 1 
0.357 0.005 0.015 1 
0.356 -0.008 -0.012 1 
0.414 -0.216 -0.017 1 
0.363 0.014 0.013 1 
0.364 0.016 0.013 1 
0.453 0.034 -0.006 1 
0.44 0.144 -0.009 1 
0.454 0.036 -0.006 1 
0.454 0.104 -0.006 1 
0.454 0.133 -0.007 1 
0.452 0.153 -0.007 1 
0.451 0.164 -0.007 1 
0.443 0.294 -0.008 1 
0.442 0.302 -0.009 1 
0.408 -0.036 -0.015 1 
0.443 0.313 -0.009 1 
0.464 -0.335 -0.009 1 
0.381 0.184 -0.015 1 
0.464 -0.318 -0.009 1 
0.463 -0.257 -0.007 1 
0.462 -0.216 -0.006 1 
0.463 -0.197 -0.006 1 
0.463 -0.177 -0.006 1 
0.463 -0.157 -0.006 1 
0.463 -0.135 -0.005 1 
0.463 -0.116 -0.005 1 
0.463 -0.076 -0.005 1 
0.383 -0.241 -0.025 1 
0.463 -0.057 -0.005 1 
0.462 -0.036 -0.005 1 
0.41 -0.186 -0.015 1 
0.475 -0.007 -0.008 1 
0.391 -0.156 -0.018 1 
0.366 0 0.015 1 
0.37 0.004 0.014 1 
0.314 0.012 0.005 1 
0.374 0.006 0.013 1 
0.381 0.014 0.011 1 
0.461 0.042 -0.005 1 
0.46 0.063 -0.005 1 
0.373 0.024 -0.014 1 
0.46 0.074 -0.005 1 
0.459 0.092 -0.005 1 
0.418 -0.15 -0.015 1 
0.457 0.113 -0.005 1 
0.458 0.124 -0.005 1 
0.455 0.166 -0.005 1 
0.394 0.233 -0.016 1 
0.454 0.182 -0.005 1 
0.454 0.193 -0.005 1 
0.453 0.204 -0.005 1 
0.453 0.212 -0.006 1 
0.453 0.224 -0.006 1 
0.452 0.234 -0.006 1 
0.45 0.244 -0.006 1 
0.45 0.253 -0.006 1 
0.451 0.263 -0.006 1 
0.467 -0.315 -0.006 1 
0.451 -0.045 -0.01 1 
0.467 -0.305 -0.006 1 
0.458 0.132 -0.005 1 
0.467 -0.286 -0.006 1 
0.466 -0.278 -0.005 1 
0.468 -0.255 -0.005 1 
0.47 -0.245 -0.005 1 
0.469 -0.235 -0.005 1 
0.467 -0.231 -0.005 1 
0.464 -0.036 -0.003 1 
0.464 -0.033 -0.003 1 
0.342 0.203 -0.015 1 
0.445 0 0 1 
0.443 0.003 0.001 1 
0.455 0.266 -0.005 1 
0.454 0.271 -0.004 1 
0.454 0.284 -0.005 1 
0.453 0.292 -0.005 1 
0.452 0.304 -0.005 1 
0.451 0.312 -0.005 1 
0.452 0.323 -0.006 1 
0.453 0.327 -0.006 1 
0.473 -0.345 -0.006 1 
0.473 -0.335 -0.005 1 
0.431 0.132 -0.011 1 
0.44 0.264 -0.009 1 
0.473 -0.328 -0.005 1 
0.464 0.014 0 1 
0.464 0.032 0 1 
0.454 0.325 -0.003 1 
0.473 -0.348 -0.003 1 
0.474 -0.325 -0.002 1 
0.382 0.153 -0.014 1 
0.472 -0.316 -0.002 1 
0.465 0.024 0.002 1 
0.465 0.083 0.001 1 
0.465 0.094 0.001 1 
0.464 0.113 0.001 1 
0.463 0.174 0 1 
0.463 0.182 0 1 
0.464 0.194 0 1 
0.462 0.204 0 1 
0.478 -0.013 -0.017 1 
0.475 -0.296 0 1 
0.351 -0.004 0.011 1 
0.475 -0.293 0 1 
0.475 -0.237 0.001 1 
0.473 -0.227 0.002 1 
0.473 -0.218 0.002 1 
0.471 -0.205 0.002 1 
0.471 -0.196 0.002 1 
0.469 -0.186 0.003 1 
0.469 -0.177 0.003 1 
0.469 -0.166 0.003 1 
0.469 -0.155 0.003 1 
0.468 -0.146 0.003 1 
0.374 -0.208 -0.02 1 
0.422 0.114 -0.013 1 
0.468 -0.096 0.004 1 
0.468 -0.085 0.004 1 
0.468 -0.077 0.004 1 
0.41 -0.127 -0.016 1 
0.466 -0.007 0.004 1 
0.465 0.014 0.004 1 
0.464 0.024 0.004 1 
0.465 0.032 0.004 1 
0.464 0.094 0.004 1 
0.464 0.124 0.004 1 
0.465 0.132 0.003 1 
0.465 0.144 0.003 1 
0.464 0.152 0.003 1 
0.464 0.157 0.003 1 
0.465 0.164 0.003 1 
0.465 0.183 0.003 1 
0.465 0.192 0.002 1 
0.466 0.204 0.002 1 
0.465 0.212 0.002 1 
0.464 0.223 0.002 1 
0.463 0.234 0.002 1 
0.355 0.102 -0.014 1 
0.48 -0.335 0.002 1 
0.42 -0.085 -0.014 1 
0.477 -0.325 0.002 1 
0.476 -0.31 0.003 1 
0.474 -0.305 0.003 1 
0.474 -0.298 0.003 1 
0.473 -0.288 0.004 1 
0.472 -0.277 0.004 1 
0.473 -0.266 0.004 1 
0.431 0.294 -0.011 1 
0.465 0.019 0.007 1 
0.455 -0.009 -0.016 1 
0.462 0.272 0.004 1 
0.463 0.292 0.004 1 
0.462 0.301 0.003 1 
0.463 0.311 0.003 1 
0.463 0.321 0.003 1 
0.464 0.326 0.002 1 
0.465 0.334 0.002 1 
0.372 0.149 -0.014 1 
0.467 0.344 0.001 1 
0.478 -0.35 0.004 1 
0.461 0.053 -0.005 1 
0.402 -0.157 -0.017 1 
0.462 -0.046 -0.005 1 
0.366 0.018 0.013 1 
0.463 -0.065 -0.005 1 
0.411 0.204 -0.013 1 
0.384 -0.145 -0.017 1 
0.463 -0.086 -0.005 1 
0.463 -0.105 -0.005 1 
0.37 -0.025 -0.015 1 
0.38 0.187 -0.014 1 
0.394 0.039 -0.015 1 
0.463 -0.127 -0.005 1 
0.464 -0.147 -0.006 1 
0.465 0.102 0.004 1 
0.462 -0.165 -0.005 1 
0.464 -0.186 -0.006 1 
0.462 -0.225 -0.006 1 
0.454 -0.305 -0.012 1 
0.464 -0.249 -0.007 1 
0.437 0.25 -0.008 1 
0.462 -0.29 -0.01 1 
0.464 -0.328 -0.009 1 
0.443 0.103 -0.009 1 
0.408 0.123 -0.014 1 
0.37 0.235 -0.016 1 
0.463 -0.015 -0.024 1 
0.391 0.174 -0.015 1 
0.443 -0.275 -0.011 1 
0.414 0.106 -0.013 1 
0.372 0.113 -0.015 1 
0.472 -0.018 -0.015 1 
0.437 -0.266 -0.015 1 
0.402 -0.086 -0.016 1 
0.453 0.143 -0.007 1 
0.438 -0.247 -0.015 1 
0.457 0.142 -0.005 1 
0.39 0.257 -0.016 1 
0.474 -0.245 0.004 1 
0.451 0.074 -0.008 1 
0.363 0.114 -0.014 1 
0.454 -0.019 -0.011 1 
0.423 -0.015 -0.013 1 
0.454 0.12 -0.007 1 
0.469 -0.297 -0.006 1 
0.463 0.243 0.002 1 
0.364 -0.072 -0.015 1 
0.438 0.154 -0.009 1 
0.353 0.163 -0.014 1 
0.414 -0.037 -0.014 1 
0.363 0.144 -0.015 1 
0.46 0.335 0 1 
0.455 0.282 -0.005 1 
0.42 -0.206 -0.016 1 
0.446 -0.309 -0.016 1 
0.443 0.213 -0.009 1 
0.36 0.132 -0.013 1 
0.409 0.063 -0.014 1 
0.406 0.054 -0.015 1 
0.373 -0.216 -0.024 1 
0.444 -0.051 -0.011 1 
0.464 0.083 0.004 1 
0.37 -0.069 -0.015 1 
0.423 -0.275 -0.019 1 
0.431 0.113 -0.011 1 
0.475 -0.255 0.001 1 
0.415 -0.039 -0.015 1 
0.384 0.089 -0.015 1 
0.413 0.283 -0.017 1 
0.456 0.153 -0.005 1 
0.389 0.204 -0.016 1 
0.402 0.213 -0.015 1 
0.476 -0.246 0.001 1 
0.473 -0.236 0.004 1 
0.464 0.043 0 1 
0.373 0.153 -0.015 1 
0.383 0.234 -0.015 1 
0.353 0.104 -0.014 1 
0.393 -0.241 -0.023 1 
0.466 -0.025 -0.006 1 
0.373 0.062 -0.014 1 
0.402 0.107 -0.014 1 
0.373 0.077 -0.015 1 
0.413 0.223 -0.014 1 
0.425 -0.172 -0.015 1 
0.394 -0.096 -0.015 1 
0.434 -0.238 -0.016 1 
0.372 0.092 -0.015 1 
0.473 -0.01 -0.013 1 
0.431 -0.266 -0.019 1 
0.384 0.061 -0.014 1 
0.381 0.017 0.011 1 
0.411 -0.146 -0.015 1 
0.403 -0.166 -0.017 1 
0.424 -0.248 -0.019 1 
0.409 0.122 -0.015 1 
0.465 0.13 0.006 1 
0.463 0.134 -0.001 1 
0.382 0.203 -0.016 1 
0.369 -0.048 -0.014 1 
0.406 -0.016 -0.015 1 
0.374 0.064 -0.015 1 
0.361 0.158 -0.015 1 
0.414 0.172 -0.013 1 
0.401 0.184 -0.014 1 
0.392 0.254 -0.017 1 
0.462 -0.02 -0.01 1 
0.462 -0.265 -0.007 1 
0.42 -0.099 -0.014 1 
0.364 -0.092 -0.015 1 
0.465 0.113 0.004 1 
0.391 0.113 -0.015 1 
0.464 0.143 0.001 1 
0.361 -0.106 -0.016 1 
0.463 0.104 0 1 
0.444 0.093 -0.009 1 
0.454 0.112 -0.006 1 
0.4 0.053 -0.015 1 
0.46 0.082 -0.005 1 
0.38 0.029 -0.015 1 
0.414 0.179 -0.013 1 
0.384 -0.089 -0.016 1 
0.45 -0.027 -0.01 1 
0.41 0.044 -0.014 1 
0.422 0.264 -0.013 1 
0.421 0.144 -0.011 1 
0.463 0.252 0.004 1 
0.432 -0.297 -0.02 1 
0.464 -0.028 -0.005 1 
0.4 -0.216 -0.018 1 
0.439 -0.286 -0.016 1 
0.314 0.004 0.001 1 
0.402 -0.175 -0.017 1 
0.45 -0.037 -0.01 1 
0.454 0.274 -0.005 1 
0.393 -0.177 -0.019 1 
0.412 -0.175 -0.016 1 
0.398 0.084 -0.015 1 
0.36 -0.096 -0.015 1 
0.383 -0.181 -0.018 1 
0.462 0.263 0.004 1 
0.401 -0.096 -0.015 1 
0.443 -0.136 -0.011 1 
0.449 -0.075 -0.01 1 
0.401 -0.125 -0.016 1 
0.419 0.264 -0.015 1 
0.424 0.295 -0.015 1 
0.381 0.132 -0.015 1 
0.406 -0.014 -0.015 1 
0.454 -0.182 -0.009 1 
0.364 -0.045 -0.014 1 
0.432 0.103 -0.011 1 
0.37 0.232 -0.016 1 
0.431 -0.025 -0.013 1 
0.424 -0.191 -0.015 1 
0.359 -0.015 -0.013 1 
0.414 -0.209 -0.017 1 
0.392 0.134 -0.014 1 
0.434 0.034 -0.011 1 
0.363 -0.075 -0.014 1 
0.364 0.184 -0.015 1 
0.441 -0.307 -0.017 1 
0.432 -0.056 -0.013 1 
0.434 -0.255 -0.016 1 
0.382 0.224 -0.017 1 
0.451 0.082 -0.008 1 
0.374 -0.157 -0.018 1 
0.382 -0.195 -0.02 1 
0.318 0.015 0.004 1 
0.393 0.208 -0.015 1 
0.421 -0.126 -0.015 1 
0.372 0.174 -0.015 1 
0.371 0.093 -0.014 1 
0.419 -0.012 -0.014 1 
0.362 0.064 -0.014 1 
0.465 0.172 0.003 1 
0.402 0.083 -0.014 1 
0.439 0.191 -0.007 1 
0.431 -0.165 -0.014 1 
0.353 -0.016 -0.012 1 
0.409 0.083 -0.014 1 
0.359 0.164 -0.014 1 
0.466 -0.266 -0.005 1 
0.402 0.254 -0.015 1 
0.463 0.283 0.004 1 
0.381 0.193 -0.015 1 
0.361 0.139 -0.014 1 
0.473 -0.256 0.004 1 
0.412 0.033 -0.014 1 
0.364 -0.115 -0.015 1 
0.404 0.198 -0.013 1 
0.393 -0.015 -0.015 1 
0.422 -0.117 -0.015 1 
0.464 -0.095 -0.005 1 
0.43 0.211 -0.011 1 
0.443 0.224 -0.009 1 
0.38 0.064 -0.015 1 
0.374 0.13 -0.014 1 
0.422 0.293 -0.017 1 
0.391 -0.165 -0.018 1 
0.413 -0.279 -0.022 1 
0.41 0.26 -0.015 1 
0.408 -0.025 -0.015 1 
0.412 0.233 -0.014 1 
0.463 0.053 -0.003 1 
0.466 0.003 0.004 1 
0.475 -0.316 0.003 1 
0.464 -0.057 -0.002 1 
0.463 -0.205 -0.006 1 
0.402 0.034 -0.016 1 
0.454 -0.169 -0.009 1 
0.453 0.173 -0.005 1 
0.404 -0.027 -0.016 1 
0.382 0.174 -0.015 1 
0.383 0.094 -0.014 1 
0.455 0.164 -0.005 1 
0.463 -0.276 -0.007 1 
0.44 0.233 -0.009 1 
0.454 0.013 -0.001 1 
0.464 0.214 0.002 1 
0.432 0.243 -0.01 1 
0.473 -0.015 -0.007 1 
0.412 -0.017 -0.014 1 
0.412 0.183 -0.015 1 
0.432 -0.018 -0.013 1 
0.402 -0.116 -0.016 1 
0.459 -0.236 -0.008 1 
0.404 -0.245 -0.022 1 
0.383 -0.136 -0.017 1 
0.387 0.189 -0.015 1 
0.374 0.197 -0.015 1 
0.458 0.103 -0.005 1 
0.464 -0.305 -0.008 1 
0.389 -0.135 -0.017 1 
0.36 0.212 -0.015 1 
0.373 -0.166 -0.018 1 
0.367 0.073 -0.014 1 
0.465 0.121 0.004 1 
0.402 0.094 -0.014 1 
0.467 0.143 0.142 3 
0.464 0.237 0.143 3 
0.465 0.234 0.143 3 
0.465 0.222 0.143 3 
0.464 0.183 0.03 3 
0.465 0.214 0.143 3 
0.466 0.203 0.143 3 
0.466 0.194 0.143 3 
0.466 0.182 0.142 3 
0.465 0.173 0.142 3 
0.471 -0.156 0.124 3 
0.464 0.164 0.141 3 
0.466 0.153 0.142 3 
0.466 0.253 0.144 3 
0.473 -0.257 0.123 3 
0.467 0.134 0.142 3 
0.468 -0.055 0.142 3 
0.469 -0.066 0.142 3 
0.466 0.022 0.103 3 
0.465 0.166 0.052 3 
0.47 -0.077 0.142 3 
0.467 0.104 0.144 3 
0.467 -0.015 0.144 3 
0.465 0.122 0.133 3 
0.467 0.093 0.144 3 
0.467 0.082 0.144 3 
0.464 0.163 0.057 3 
0.467 0.074 0.144 3 
0.466 0.052 0.144 3 
0.466 0.044 0.144 3 
0.465 0.033 0.143 3 
0.47 -0.146 0.074 3 
0.466 0.022 0.144 3 
0.466 0.003 0.144 3 
0.467 -0.006 0.144 3 
0.465 0.243 0.144 3 
0.467 -0.025 0.144 3 
0.468 -0.05 0.144 3 
0.474 -0.237 0.149 3 
0.479 -0.298 0.152 3 
0.479 -0.305 0.152 3 
0.479 -0.315 0.153 3 
0.48 -0.326 0.153 3 
0.481 -0.338 0.154 3 
0.464 0.308 0.145 3 
0.466 0.272 0.144 3 
0.465 0.152 0.063 3 
0.466 0.262 0.144 3 
0.464 0.222 0.134 3 
0.475 -0.25 0.144 3 
0.475 -0.256 0.144 3 
0.475 -0.275 0.144 3 
0.465 0.312 0.14 3 
0.475 -0.219 0.14 3 
0.475 -0.225 0.14 3 
0.476 -0.285 0.142 3 
0.47 -0.207 0.014 3 
0.478 -0.297 0.143 3 
0.479 -0.305 0.143 3 
0.481 -0.317 0.144 3 
0.464 0.26 0.135 3 
0.474 -0.246 0.143 3 
0.464 0.21 0.134 3 
0.474 -0.267 0.124 3 
0.464 0.204 0.134 3 
0.465 0.198 0.134 3 
0.466 0.193 0.134 3 
0.466 0.184 0.134 3 
0.465 0.172 0.134 3 
0.465 0.164 0.134 3 
0.466 0.153 0.134 3 
0.466 0.134 0.133 3 
0.475 -0.235 0.163 3 
0.464 0.311 0.142 3 
0.47 -0.105 0.143 3 
0.47 -0.116 0.143 3 
0.47 -0.125 0.143 3 
0.471 -0.145 0.143 3 
0.471 -0.156 0.144 3 
0.471 -0.165 0.144 3 
0.47 -0.176 0.144 3 
0.471 -0.185 0.144 3 
0.481 -0.345 0.151 3 
0.465 0.343 0.144 3 
0.466 0.334 0.144 3 
0.466 0.32 0.143 3 
0.47 -0.086 0.142 3 
0.465 0.299 0.142 3 
0.467 0.282 0.142 3 
0.467 -0.015 0.084 3 
0.464 0.233 0.14 3 
0.473 -0.197 0.142 3 
0.473 -0.206 0.142 3 
0.474 -0.216 0.143 3 
0.474 -0.225 0.143 3 
0.465 0.141 0.114 3 
0.474 -0.237 0.143 3 
0.475 -0.244 0.144 3 
0.466 0.033 0.152 3 
0.468 0.132 0.153 3 
0.467 0.123 0.153 3 
0.466 0.033 0.063 3 
0.467 0.112 0.153 3 
0.467 0.104 0.153 3 
0.468 0.093 0.153 3 
0.476 -0.266 0.144 3 
0.467 0.082 0.152 3 
0.467 0.074 0.152 3 
0.466 0.063 0.152 3 
0.467 0.052 0.152 3 
0.467 0.044 0.152 3 
0.466 0.122 0.063 3 
0.467 0.022 0.152 3 
0.466 0.014 0.152 3 
0.466 0.003 0.152 3 
0.466 -0.006 0.152 3 
0.467 -0.015 0.152 3 
0.468 -0.025 0.152 3 
0.47 -0.045 0.153 3 
0.465 0.312 0.134 3 
0.47 -0.056 0.153 3 
0.463 0.332 0.062 3 
0.469 -0.066 0.153 3 
0.479 -0.305 0.164 3 
0.465 0.321 0.114 3 
0.476 -0.245 0.164 3 
0.481 -0.357 0.17 3 
0.466 0.345 0.162 3 
0.474 -0.225 0.16 3 
0.47 -0.135 0.093 3 
0.476 -0.257 0.162 3 
0.477 -0.268 0.162 3 
0.477 -0.277 0.163 3 
0.464 0.302 0.142 3 
0.478 -0.288 0.163 3 
0.479 -0.299 0.164 3 
0.469 -0.075 0.153 3 
0.465 0.232 0.154 3 
0.466 0.218 0.154 3 
0.47 -0.135 0.082 3 
0.466 0.212 0.154 3 
0.466 0.203 0.154 3 
0.467 0.192 0.154 3 
0.465 0.182 0.153 3 
0.465 0.173 0.153 3 
0.466 0.162 0.153 3 
0.466 0.154 0.153 3 
0.467 0.143 0.153 3 
0.474 -0.246 0.152 3 
0.472 -0.186 0.153 3 
0.473 -0.195 0.153 3 
0.473 -0.207 0.154 3 
0.473 -0.215 0.154 3 
0.474 -0.225 0.154 3 
0.461 0.241 0.013 3 
0.465 0.344 0.153 3 
0.466 0.334 0.152 3 
0.466 0.321 0.152 3 
0.475 -0.229 0.152 3 
0.475 -0.235 0.152 3 
0.472 -0.265 0.013 3 
0.471 -0.176 0.152 3 
0.476 -0.257 0.153 3 
0.477 -0.267 0.153 3 
0.476 -0.276 0.153 3 
0.465 0.18 0.041 3 
0.477 -0.287 0.154 3 
0.464 0.335 0.149 3 
0.464 0.24 0.146 3 
0.465 0.183 0.084 3 
0.464 0.172 0.144 3 
0.465 0.161 0.144 3 
0.466 0.123 0.144 3 
0.466 0.311 0.154 3 
0.47 -0.086 0.153 3 
0.471 -0.097 0.154 3 
0.472 -0.247 0.092 3 
0.47 -0.105 0.154 3 
0.47 -0.116 0.154 3 
0.47 -0.125 0.154 3 
0.471 -0.136 0.154 3 
0.463 0.339 0.062 3 
0.48 -0.316 0.162 3 
0.48 -0.327 0.163 3 
0.481 -0.338 0.163 3 
0.482 -0.347 0.164 3 
0.466 0.112 0.144 3 
0.466 0.304 0.154 3 
0.466 0.294 0.154 3 
0.466 0.282 0.153 3 
0.467 0.264 0.153 3 
0.466 0.254 0.153 3 
0.465 0.244 0.152 3 
0.466 -0.136 0.012 3 
0.471 -0.145 0.152 3 
0.472 -0.157 0.152 3 
0.465 0.297 0.043 3 
0.471 -0.165 0.152 3 
0.466 0.333 0.123 3 
0.469 -0.077 0.123 3 
0.469 -0.085 0.123 3 
0.469 -0.096 0.123 3 
0.475 -0.287 0.093 3 
0.469 -0.105 0.123 3 
0.469 -0.127 0.123 3 
0.47 -0.136 0.124 3 
0.47 -0.147 0.124 3 
0.466 0.342 0.094 3 
0.471 -0.167 0.124 3 
0.471 -0.176 0.124 3 
0.463 0.34 0.123 3 
0.468 -0.066 0.123 3 
0.466 0.323 0.123 3 
0.466 0.313 0.123 3 
0.466 0.303 0.122 3 
0.465 0.292 0.122 3 
0.464 0.124 0.119 3 
0.465 0.054 0.119 3 
0.473 -0.185 0.122 3 
0.472 -0.196 0.122 3 
0.472 -0.205 0.122 3 
0.473 -0.215 0.123 3 
0.474 -0.227 0.123 3 
0.465 0.033 0.122 3 
0.465 0.184 0.123 3 
0.465 0.172 0.123 3 
0.465 0.164 0.123 3 
0.465 0.153 0.122 3 
0.465 0.133 0.122 3 
0.464 0.127 0.122 3 
0.473 -0.354 0.035 3 
0.465 0.114 0.122 3 
0.465 0.103 0.122 3 
0.465 0.092 0.122 3 
0.465 0.073 0.122 3 
0.465 0.043 0.122 3 
0.474 -0.236 0.123 3 
0.466 0.022 0.122 3 
0.469 -0.157 0.014 3 
0.467 0.014 0.122 3 
0.467 0.003 0.122 3 
0.466 -0.076 0.012 3 
0.467 -0.006 0.122 3 
0.467 -0.015 0.122 3 
0.468 -0.025 0.122 3 
0.467 -0.036 0.122 3 
0.467 -0.047 0.122 3 
0.467 -0.055 0.122 3 
0.467 0.003 0.114 3 
0.465 0.07 0.114 3 
0.465 0.062 0.114 3 
0.464 0.244 0.082 3 
0.465 0.054 0.114 3 
0.464 0.051 0.114 3 
0.464 0.043 0.114 3 
0.47 -0.177 0.063 3 
0.464 0.214 0.024 3 
0.465 0.041 0.114 3 
0.465 0.033 0.114 3 
0.467 0.022 0.114 3 
0.467 0.014 0.114 3 
0.464 0.073 0.114 3 
0.464 0.274 0.054 3 
0.466 -0.006 0.114 3 
0.468 -0.015 0.114 3 
0.468 -0.025 0.114 3 
0.467 -0.036 0.114 3 
0.467 -0.047 0.114 3 
0.468 -0.055 0.114 3 
0.463 0.34 0.114 3 
0.464 0.334 0.114 3 
0.466 0.333 0.114 3 
0.474 0.358 0.199 3 
0.479 -0.326 0.064 3 
0.473 -0.245 0.123 3 
0.475 -0.271 0.124 3 
0.475 -0.287 0.124 3 
0.465 0.06 0.117 3 
0.477 -0.295 0.122 3 
0.478 -0.306 0.123 3 
0.481 -0.326 0.124 3 
0.481 -0.337 0.124 3 
0.481 -0.347 0.124 3 
0.481 -0.355 0.124 3 
0.465 0.178 0.114 3 
0.465 0.172 0.114 3 
0.465 0.192 0.123 3 
0.465 0.164 0.114 3 
0.465 0.153 0.114 3 
0.466 0.204 0.112 3 
0.465 0.133 0.114 3 
0.465 0.122 0.114 3 
0.464 0.294 0.082 3 
0.465 0.114 0.114 3 
0.465 0.103 0.114 3 
0.466 0.092 0.114 3 
0.465 0.084 0.114 3 
0.477 -0.317 0.043 3 
0.465 0.264 0.133 3 
0.481 -0.337 0.142 3 
0.48 -0.347 0.142 3 
0.463 0.34 0.134 3 
0.463 0.333 0.134 3 
0.465 0.329 0.134 3 
0.466 0.323 0.134 3 
0.464 0.308 0.134 3 
0.464 0.304 0.133 3 
0.465 0.299 0.134 3 
0.465 0.293 0.133 3 
0.465 0.283 0.133 3 
0.466 0.271 0.133 3 
0.482 -0.328 0.142 3 
0.463 0.132 0.022 3 
0.465 0.252 0.132 3 
0.464 0.242 0.132 3 
0.464 0.254 0.124 3 
0.466 0.014 0.063 3 
0.464 0.233 0.132 3 
0.465 0.222 0.132 3 
0.465 0.213 0.132 3 
0.47 -0.127 0.132 3 
0.477 -0.317 0.032 3 
0.47 -0.136 0.132 3 
0.467 -0.006 0.133 3 
0.466 0.103 0.133 3 
0.467 0.093 0.133 3 
0.466 0.084 0.133 3 
0.467 -0.007 0.084 3 
0.466 0.073 0.133 3 
0.466 0.063 0.133 3 
0.465 0.054 0.133 3 
0.466 0.044 0.133 3 
0.465 0.033 0.133 3 
0.465 0.022 0.133 3 
0.466 0.014 0.133 3 
0.467 0.003 0.133 3 
0.47 -0.147 0.132 3 
0.472 -0.216 0.064 3 
0.467 -0.015 0.133 3 
0.468 -0.025 0.133 3 
0.468 -0.036 0.133 3 
0.468 -0.047 0.133 3 
0.467 -0.055 0.133 3 
0.468 -0.066 0.133 3 
0.469 -0.077 0.134 3 
0.47 -0.086 0.134 3 
0.47 -0.097 0.134 3 
0.469 -0.116 0.134 3 
0.482 -0.335 0.133 3 
0.475 -0.275 0.133 3 
0.476 -0.285 0.133 3 
0.477 -0.296 0.134 3 
0.464 0.133 0.125 3 
0.466 0.062 0.063 3 
0.464 0.059 0.124 3 
0.464 0.054 0.124 3 
0.464 0.043 0.124 3 
0.479 -0.308 0.132 3 
0.48 -0.315 0.132 3 
0.482 -0.328 0.133 3 
0.474 -0.276 0.044 3 
0.47 -0.166 0.044 3 
0.482 -0.345 0.133 3 
0.465 0.339 0.126 3 
0.465 0.277 0.124 3 
0.465 0.273 0.124 3 
0.465 0.264 0.124 3 
0.464 0.26 0.124 3 
0.464 0.242 0.124 3 
0.464 0.233 0.123 3 
0.464 0.224 0.123 3 
0.465 0.213 0.123 3 
0.465 0.204 0.123 3 
0.464 0.26 0.13 3 
0.47 -0.155 0.132 3 
0.471 -0.165 0.133 3 
0.471 -0.176 0.133 3 
0.471 -0.185 0.133 3 
0.472 -0.196 0.133 3 
0.473 -0.206 0.134 3 
0.473 -0.215 0.134 3 
0.465 0.203 0.082 3 
0.474 -0.227 0.134 3 
0.473 -0.239 0.134 3 
0.48 -0.358 0.14 3 
0.465 0.114 0.133 3 
0.465 0.094 0.033 3 
0.464 0.254 0.129 3 
0.477 -0.305 0.084 3 
0.465 0.291 0.074 3 
0.464 0.189 0.128 3 
0.47 -0.146 0.052 3 
0.474 -0.246 0.132 3 
0.474 -0.255 0.132 3 
0.475 -0.259 0.132 3 
0.475 -0.265 0.133 3 
0.48 -0.348 0.064 3 
0.471 -0.136 0.143 3 
0.481 -0.276 0.194 3 
0.481 -0.285 0.194 3 
0.474 0.358 0.193 3 
0.469 0.153 0.173 3 
0.469 0.224 0.184 3 
0.469 0.212 0.184 3 
0.469 0.203 0.183 3 
0.465 0.041 0.103 3 
0.469 0.191 0.183 3 
0.47 0.183 0.183 3 
0.469 0.174 0.183 3 
0.472 -0.166 0.172 3 
0.465 0.341 0.034 3 
0.468 0.164 0.182 3 
0.468 0.153 0.182 3 
0.471 0.143 0.182 3 
0.471 0.134 0.182 3 
0.475 -0.278 0.124 3 
0.472 0.123 0.182 3 
0.469 -0.105 0.134 3 
0.471 0.111 0.182 3 
0.47 0.103 0.181 3 
0.471 0.072 0.181 3 
0.471 0.064 0.181 3 
0.472 0.053 0.182 3 
0.472 0.003 0.184 3 
0.472 0.322 0.192 3 
0.471 0.092 0.184 3 
0.466 -0.036 0.004 3 
0.471 0.083 0.184 3 
0.466 0.043 0.074 3 
0.472 0.037 0.184 3 
0.468 0.113 0.164 3 
0.475 -0.316 0.014 3 
0.471 0.034 0.184 3 
0.472 0.023 0.184 3 
0.472 0.012 0.184 3 
0.464 0.303 0.082 3 
0.472 -0.015 0.182 3 
0.465 0.253 0.065 3 
0.472 -0.007 0.184 3 
0.48 -0.318 0.123 3 
0.475 -0.048 0.186 3 
0.474 -0.096 0.186 3 
0.474 -0.127 0.186 3 
0.474 -0.135 0.187 3 
0.474 -0.147 0.187 3 
0.479 -0.255 0.192 3 
0.467 -0.077 0.074 3 
0.48 -0.265 0.193 3 
0.465 0.163 0.084 3 
0.468 0.308 0.184 3 
0.464 0.294 0.094 3 
0.468 0.301 0.184 3 
0.469 0.292 0.184 3 
0.465 0.183 0.033 3 
0.469 0.282 0.183 3 
0.47 0.274 0.183 3 
0.471 -0.225 0.052 3 
0.47 0.264 0.183 3 
0.469 0.254 0.182 3 
0.47 0.243 0.182 3 
0.469 0.233 0.181 3 
0.474 -0.205 0.171 3 
0.474 -0.115 0.18 3 
0.473 -0.155 0.181 3 
0.474 -0.167 0.182 3 
0.475 -0.17 0.182 3 
0.476 -0.177 0.183 3 
0.476 -0.186 0.183 3 
0.467 0.054 0.074 3 
0.476 -0.195 0.183 3 
0.467 0.014 0.144 3 
0.476 -0.207 0.184 3 
0.464 0.073 0.119 3 
0.472 -0.167 0.102 3 
0.471 -0.026 0.181 3 
0.471 -0.037 0.173 3 
0.472 -0.037 0.182 3 
0.474 -0.045 0.182 3 
0.468 -0.055 0.063 3 
0.473 -0.056 0.182 3 
0.473 -0.067 0.182 3 
0.473 -0.076 0.182 3 
0.473 -0.087 0.182 3 
0.473 -0.095 0.183 3 
0.474 -0.107 0.183 3 
0.475 -0.11 0.184 3 
0.471 -0.147 0.094 3 
0.475 -0.116 0.184 3 
0.474 -0.127 0.184 3 
0.474 -0.135 0.184 3 
0.474 -0.147 0.184 3 
0.464 0.203 0.033 3 
0.475 -0.15 0.184 3 
0.481 -0.299 0.192 3 
0.466 0.142 0.134 3 
0.482 -0.306 0.193 3 
0.482 -0.317 0.193 3 
0.484 -0.329 0.195 3 
0.473 0.062 0.188 3 
0.469 0.154 0.188 3 
0.465 0.084 0.122 3 
0.464 0.284 0.093 3 
0.471 0.143 0.189 3 
0.472 0.132 0.188 3 
0.472 0.123 0.188 3 
0.473 0.073 0.188 3 
0.473 0.112 0.188 3 
0.468 0.281 0.174 3 
0.472 0.103 0.188 3 
0.472 0.092 0.188 3 
0.473 0.084 0.188 3 
0.47 0.163 0.189 3 
0.473 0.053 0.188 3 
0.473 0.042 0.188 3 
0.473 0.034 0.188 3 
0.473 0.023 0.188 3 
0.473 0.012 0.188 3 
0.472 0.003 0.187 3 
0.473 -0.007 0.188 3 
0.474 -0.015 0.188 3 
0.473 -0.026 0.188 3 
0.474 -0.037 0.188 3 
0.474 -0.046 0.188 3 
0.471 0.262 0.192 3 
0.471 0.351 0.197 3 
0.47 0.343 0.196 3 
0.47 0.332 0.196 3 
0.472 0.323 0.196 3 
0.472 -0.156 0.102 3 
0.471 0.311 0.194 3 
0.472 0.302 0.194 3 
0.473 0.293 0.194 3 
0.474 0.291 0.195 3 
0.474 -0.289 0.07 3 
0.472 0.282 0.193 3 
0.471 0.272 0.193 3 
0.474 -0.057 0.188 3 
0.47 0.252 0.191 3 
0.47 0.243 0.191 3 
0.471 0.234 0.191 3 
0.47 0.222 0.19 3 
0.468 -0.036 0.144 3 
0.47 0.213 0.19 3 
0.475 -0.296 0.023 3 
0.471 0.204 0.19 3 
0.47 0.192 0.189 3 
0.47 0.183 0.189 3 
0.471 0.172 0.189 3 
0.482 -0.296 0.198 3 
0.478 -0.227 0.194 3 
0.478 -0.236 0.194 3 
0.465 0.189 0.063 3 
0.478 -0.245 0.195 3 
0.478 -0.251 0.194 3 
0.464 0.258 0.063 3 
0.479 -0.255 0.195 3 
0.465 0.083 0.023 3 
0.48 -0.265 0.196 3 
0.481 -0.276 0.197 3 
0.463 0.322 0.054 3 
0.481 -0.286 0.197 3 
0.478 -0.217 0.193 3 
0.483 -0.308 0.199 3 
0.462 0.313 0.014 3 
0.484 -0.315 0.2 3 
0.472 -0.216 0.044 3 
0.486 -0.321 0.201 3 
0.488 -0.327 0.202 3 
0.487 -0.336 0.202 3 
0.486 -0.346 0.203 3 
0.47 0.35 0.194 3 
0.469 0.341 0.193 3 
0.469 0.334 0.192 3 
0.476 -0.136 0.19 3 
0.474 -0.065 0.188 3 
0.467 0.213 0.172 3 
0.474 -0.076 0.188 3 
0.468 0.132 0.164 3 
0.475 -0.085 0.189 3 
0.474 -0.087 0.188 3 
0.475 -0.096 0.189 3 
0.476 -0.108 0.19 3 
0.475 -0.116 0.189 3 
0.479 -0.358 0.052 3 
0.475 -0.127 0.19 3 
0.469 -0.036 0.153 3 
0.477 -0.216 0.184 3 
0.478 -0.316 0.102 3 
0.476 -0.145 0.19 3 
0.476 -0.157 0.191 3 
0.468 0.342 0.183 3 
0.476 -0.165 0.191 3 
0.468 -0.066 0.074 3 
0.477 -0.175 0.192 3 
0.478 -0.187 0.192 3 
0.478 -0.196 0.193 3 
0.478 -0.205 0.193 3 
0.473 -0.126 0.172 3 
0.47 -0.064 0.164 3 
0.465 0.219 0.123 3 
0.468 0.044 0.164 3 
0.468 0.033 0.164 3 
0.479 -0.326 0.082 3 
0.468 0.022 0.163 3 
0.467 0.014 0.163 3 
0.467 0.003 0.163 3 
0.468 -0.006 0.164 3 
0.469 -0.015 0.164 3 
0.47 -0.026 0.164 3 
0.471 -0.037 0.164 3 
0.471 -0.048 0.164 3 
0.468 0.063 0.164 3 
0.47 -0.067 0.164 3 
0.47 -0.075 0.164 3 
0.474 -0.187 0.168 3 
0.474 -0.196 0.168 3 
0.466 0.063 0.144 3 
0.478 -0.275 0.172 3 
0.478 -0.285 0.172 3 
0.479 -0.296 0.173 3 
0.479 -0.326 0.174 3 
0.47 -0.166 0.022 3 
0.464 0.343 0.167 3 
0.478 -0.266 0.174 3 
0.468 0.324 0.173 3 
0.467 0.313 0.172 3 
0.467 0.303 0.172 3 
0.468 0.294 0.172 3 
0.475 -0.197 0.171 3 
0.474 -0.226 0.172 3 
0.475 -0.229 0.172 3 
0.476 -0.236 0.172 3 
0.477 -0.246 0.173 3 
0.472 -0.205 0.083 3 
0.477 -0.255 0.174 3 
0.465 0.285 0.063 3 
0.466 0.26 0.164 3 
0.466 0.168 0.164 3 
0.467 0.163 0.164 3 
0.467 -0.036 0.103 3 
0.465 0.279 0.082 3 
0.467 0.154 0.164 3 
0.468 0.144 0.164 3 
0.468 0.124 0.164 3 
0.468 0.104 0.164 3 
0.469 0.094 0.164 3 
0.469 0.083 0.164 3 
0.469 0.074 0.164 3 
0.466 0.291 0.162 3 
0.473 -0.175 0.164 3 
0.465 0.122 0.122 3 
0.481 -0.318 0.172 3 
0.481 -0.335 0.172 3 
0.482 -0.347 0.173 3 
0.464 0.336 0.164 3 
0.466 0.335 0.164 3 
0.467 0.333 0.164 3 
0.464 0.334 0.123 3 
0.467 0.322 0.164 3 
0.467 0.312 0.163 3 
0.466 0.301 0.163 3 
0.475 -0.223 0.166 3 
0.465 0.262 0.063 3 
0.467 0.283 0.162 3 
0.467 0.273 0.162 3 
0.473 -0.186 0.162 3 
0.469 -0.105 0.104 3 
0.473 -0.256 0.052 3 
0.467 -0.036 0.044 3 
0.474 -0.196 0.162 3 
0.474 -0.205 0.163 3 
0.471 -0.167 0.033 3 
0.473 -0.216 0.163 3 
0.465 0.111 0.044 3 
0.466 0.272 0.153 3 
0.466 0.251 0.164 3 
0.466 0.242 0.164 3 
0.467 0.233 0.164 3 
0.467 0.224 0.163 3 
0.466 0.212 0.163 3 
0.467 0.204 0.163 3 
0.467 0.192 0.163 3 
0.466 0.183 0.162 3 
0.469 -0.116 0.123 3 
0.471 -0.086 0.162 3 
0.471 -0.097 0.162 3 
0.467 0.333 0.173 3 
0.471 -0.106 0.162 3 
0.464 0.283 0.023 3 
0.471 -0.117 0.163 3 
0.472 -0.126 0.163 3 
0.473 -0.135 0.163 3 
0.481 -0.356 0.161 3 
0.472 -0.145 0.163 3 
0.481 -0.355 0.134 3 
0.472 -0.157 0.164 3 
0.473 -0.275 0.084 3 
0.471 -0.165 0.163 3 
0.469 0.072 0.172 3 
0.468 0.173 0.174 3 
0.468 0.164 0.174 3 
0.469 0.144 0.173 3 
0.469 0.133 0.173 3 
0.475 -0.25 0.152 3 
0.47 0.122 0.173 3 
0.469 -0.096 0.142 3 
0.469 0.113 0.173 3 
0.469 0.102 0.173 3 
0.466 0.142 0.123 3 
0.469 0.094 0.173 3 
0.469 0.083 0.172 3 
0.468 0.184 0.174 3 
0.469 0.064 0.172 3 
0.469 0.053 0.172 3 
0.465 0.224 0.054 3 
0.47 0.044 0.173 3 
0.464 0.31 0.094 3 
0.47 0.034 0.173 3 
0.468 0.052 0.164 3 
0.47 0.023 0.173 3 
0.469 0.014 0.172 3 
0.468 0.003 0.172 3 
0.469 -0.007 0.172 3 
0.477 -0.237 0.182 3 
0.471 -0.175 0.074 3 
0.465 0.054 0.004 3 
0.476 -0.225 0.184 3 
0.485 -0.323 0.192 3 
0.485 -0.326 0.192 3 
0.471 -0.195 0.052 3 
0.486 -0.338 0.193 3 
0.484 -0.343 0.192 3 
0.486 -0.349 0.193 3 
0.466 -0.007 0.044 3 
0.469 0.332 0.183 3 
0.469 0.322 0.182 3 
0.47 -0.015 0.173 3 
0.478 -0.247 0.182 3 
0.478 -0.257 0.183 3 
0.479 -0.267 0.184 3 
0.48 -0.277 0.184 3 
0.484 -0.332 0.189 3 
0.467 0.349 0.181 3 
0.467 -0.007 0.063 3 
0.468 0.202 0.174 3 
0.464 0.251 0.135 3 
0.467 0.192 0.174 3 
0.464 0.274 0.032 3 
0.467 -0.087 0.012 3 
0.468 0.262 0.173 3 
0.464 0.072 0.004 3 
0.468 0.253 0.173 3 
0.469 0.244 0.173 3 
0.474 -0.257 0.072 3 
0.468 0.232 0.172 3 
0.468 0.223 0.172 3 
0.472 -0.146 0.172 3 
0.472 -0.157 0.172 3 
0.474 -0.176 0.173 3 
0.475 -0.179 0.174 3 
0.476 -0.186 0.174 3 
0.464 0.338 0.143 3 
0.475 -0.206 0.174 3 
0.466 0.114 0.063 3 
0.474 -0.217 0.174 3 
0.474 -0.22 0.175 3 
0.474 -0.226 0.175 3 
0.465 0.073 0.001 3 
0.483 -0.327 0.182 3 
0.484 -0.339 0.183 3 
0.484 -0.346 0.183 3 
0.467 0.347 0.174 3 
0.466 0.343 0.174 3 
0.464 0.242 0.104 3 
0.47 -0.026 0.173 3 
0.463 0.104 0.012 3 
0.471 -0.045 0.173 3 
0.472 -0.056 0.173 3 
0.466 0.003 0.103 3 
0.47 -0.067 0.173 3 
0.465 0.102 0.044 3 
0.462 0.213 0.014 3 
0.471 -0.075 0.173 3 
0.472 -0.087 0.174 3 
0.472 -0.095 0.174 3 
0.473 -0.106 0.174 3 
0.475 -0.226 0.163 3 
0.473 -0.115 0.174 3 
0.472 -0.137 0.174 3 
0.48 -0.287 0.182 3 
0.466 0.294 0.142 3 
0.48 -0.297 0.182 3 
0.481 -0.305 0.183 3 
0.482 -0.316 0.184 3 
0.471 -0.187 0.094 3 
0.484 -0.35 0.187 3 
0.469 0.272 0.174 3 
0.481 -0.308 0.174 3 
0.465 0.073 0.044 3 
0.464 0.182 0.044 3 
0.464 0.174 0.044 3 
0.464 0.163 0.044 3 
0.465 0.158 0.044 3 
0.465 0.152 0.044 3 
0.465 0.144 0.044 3 
0.465 0.133 0.044 3 
0.474 -0.298 0.012 3 
0.465 0.124 0.044 3 
0.464 0.113 0.044 3 
0.466 0.094 0.044 3 
0.466 0.084 0.044 3 
0.464 0.194 0.044 3 
0.467 0.054 0.044 3 
0.466 0.032 0.044 3 
0.466 0.024 0.044 3 
0.466 0.014 0.044 3 
0.467 0.003 0.044 3 
0.467 -0.015 0.044 3 
0.467 -0.025 0.044 3 
0.468 -0.047 0.044 3 
0.468 -0.055 0.044 3 
0.467 -0.077 0.044 3 
0.468 -0.085 0.044 3 
0.47 -0.096 0.044 3 
0.465 0.294 0.043 3 
0.476 -0.296 0.052 3 
0.476 -0.306 0.052 3 
0.478 -0.318 0.052 3 
0.478 -0.325 0.052 3 
0.479 -0.336 0.052 3 
0.475 -0.283 0.049 3 
0.465 0.294 0.046 3 
0.462 0.338 0.042 3 
0.462 0.334 0.042 3 
0.464 0.313 0.043 3 
0.464 0.303 0.043 3 
0.468 -0.066 0.044 3 
0.47 -0.105 0.044 3 
0.465 0.284 0.043 3 
0.464 0.277 0.043 3 
0.464 0.274 0.043 3 
0.463 0.264 0.043 3 
0.467 -0.055 0.034 3 
0.464 0.223 0.024 3 
0.463 0.252 0.043 3 
0.464 0.243 0.043 3 
0.464 0.223 0.043 3 
0.464 0.214 0.043 3 
0.464 0.202 0.043 3 
0.463 0.264 0.032 3 
0.474 -0.356 0.037 3 
0.463 0.335 0.034 3 
0.463 0.332 0.034 3 
0.462 0.324 0.034 3 
0.463 0.312 0.034 3 
0.464 0.302 0.034 3 
0.465 0.294 0.034 3 
0.464 0.283 0.034 3 
0.465 0.281 0.034 3 
0.478 -0.335 0.034 3 
0.479 -0.347 0.034 3 
0.464 0.293 0.032 3 
0.464 0.13 0.039 3 
0.462 0.251 0.032 3 
0.463 0.243 0.032 3 
0.464 0.232 0.032 3 
0.465 0.059 0.004 3 
0.464 0.223 0.032 3 
0.464 0.214 0.032 3 
0.464 0.194 0.033 3 
0.465 0.172 0.033 3 
0.465 0.161 0.033 3 
0.465 0.152 0.033 3 
0.465 0.144 0.033 3 
0.473 -0.257 0.044 3 
0.47 -0.116 0.044 3 
0.47 -0.127 0.044 3 
0.471 -0.135 0.044 3 
0.471 -0.147 0.044 3 
0.471 -0.155 0.044 3 
0.47 -0.177 0.044 3 
0.471 -0.187 0.044 3 
0.472 -0.196 0.044 3 
0.472 -0.205 0.044 3 
0.472 -0.225 0.044 3 
0.471 -0.237 0.044 3 
0.473 -0.247 0.044 3 
0.475 -0.287 0.052 3 
0.474 -0.285 0.012 3 
0.472 -0.265 0.044 3 
0.476 -0.296 0.044 3 
0.476 -0.306 0.044 3 
0.477 -0.327 0.043 3 
0.479 -0.336 0.043 3 
0.479 -0.347 0.043 3 
0.477 -0.355 0.043 3 
0.464 0.286 0.04 3 
0.465 0.169 0.041 3 
0.476 -0.283 0.041 3 
0.475 -0.28 0.061 3 
0.474 -0.276 0.064 3 
0.474 -0.286 0.064 3 
0.475 -0.29 0.064 3 
0.475 -0.296 0.064 3 
0.464 0.243 0.054 3 
0.476 -0.306 0.064 3 
0.478 -0.318 0.064 3 
0.479 -0.336 0.064 3 
0.477 -0.355 0.064 3 
0.464 0.271 0.06 3 
0.464 0.223 0.06 3 
0.465 0.203 0.06 3 
0.473 -0.266 0.064 3 
0.464 0.182 0.057 3 
0.464 0.168 0.057 3 
0.463 -0.036 0.013 3 
0.462 0.337 0.054 3 
0.464 0.303 0.054 3 
0.464 0.294 0.054 3 
0.465 0.284 0.054 3 
0.464 0.28 0.054 3 
0.464 0.262 0.054 3 
0.465 0.253 0.054 3 
0.464 0.232 0.054 3 
0.47 -0.135 0.063 3 
0.468 -0.025 0.063 3 
0.467 -0.036 0.063 3 
0.468 -0.047 0.063 3 
0.468 -0.066 0.063 3 
0.464 0.163 0.033 3 
0.468 -0.077 0.063 3 
0.468 -0.085 0.063 3 
0.469 -0.096 0.063 3 
0.468 -0.107 0.063 3 
0.469 -0.115 0.063 3 
0.48 -0.348 0.052 3 
0.469 -0.126 0.063 3 
0.465 0.212 0.054 3 
0.47 -0.146 0.063 3 
0.471 -0.155 0.063 3 
0.47 -0.166 0.063 3 
0.471 -0.187 0.063 3 
0.472 -0.196 0.064 3 
0.475 -0.286 0.044 3 
0.472 -0.205 0.064 3 
0.472 -0.225 0.064 3 
0.473 -0.235 0.064 3 
0.473 -0.247 0.064 3 
0.473 -0.256 0.064 3 
0.469 -0.115 0.052 3 
0.467 -0.007 0.052 3 
0.466 -0.015 0.052 3 
0.467 -0.025 0.052 3 
0.463 0.283 0.012 3 
0.467 -0.036 0.052 3 
0.468 -0.047 0.052 3 
0.468 -0.055 0.052 3 
0.468 -0.066 0.052 3 
0.468 -0.077 0.052 3 
0.468 -0.085 0.052 3 
0.468 -0.096 0.052 3 
0.469 -0.107 0.052 3 
0.466 0.014 0.052 3 
0.469 -0.126 0.052 3 
0.47 -0.135 0.052 3 
0.47 -0.155 0.052 3 
0.47 -0.166 0.052 3 
0.47 -0.177 0.052 3 
0.47 -0.186 0.052 3 
0.471 -0.216 0.052 3 
0.472 -0.237 0.052 3 
0.473 -0.247 0.052 3 
0.472 -0.265 0.052 3 
0.474 -0.276 0.052 3 
0.465 0.144 0.052 3 
0.465 0.203 0.054 3 
0.464 0.197 0.054 3 
0.464 0.194 0.054 3 
0.464 0.182 0.054 3 
0.465 0.177 0.054 3 
0.464 0.091 0.055 3 
0.464 0.252 0.051 3 
0.464 0.223 0.052 3 
0.464 0.174 0.052 3 
0.464 0.163 0.052 3 
0.465 0.161 0.052 3 
0.465 0.152 0.052 3 
0.465 0.133 0.033 3 
0.465 0.133 0.052 3 
0.466 0.114 0.052 3 
0.465 0.103 0.052 3 
0.465 0.094 0.052 3 
0.466 0.084 0.052 3 
0.466 0.073 0.052 3 
0.466 0.062 0.052 3 
0.467 0.054 0.052 3 
0.467 0.043 0.052 3 
0.466 0.032 0.052 3 
0.466 0.024 0.052 3 
0.462 0.224 0.013 3 
0.463 0.324 0.014 3 
0.464 -0.047 0.018 3 
0.474 -0.305 0.015 3 
0.476 -0.327 0.014 3 
0.477 -0.338 0.014 3 
0.477 -0.345 0.014 3 
0.474 -0.353 0.014 3 
0.462 0.304 0.012 3 
0.462 0.294 0.012 3 
0.463 0.264 0.013 3 
0.462 0.251 0.013 3 
0.462 0.233 0.013 3 
0.461 0.333 0.014 3 
0.462 0.204 0.014 3 
0.462 0.193 0.014 3 
0.462 0.184 0.014 3 
0.462 0.173 0.014 3 
0.462 0.162 0.014 3 
0.462 0.154 0.014 3 
0.462 0.134 0.014 3 
0.464 -0.055 0.015 3 
0.468 -0.148 0.014 3 
0.468 -0.165 0.014 3 
0.467 -0.176 0.014 3 
0.47 -0.195 0.022 3 
0.465 -0.055 0.023 3 
0.466 -0.066 0.023 3 
0.467 -0.076 0.023 3 
0.468 -0.096 0.023 3 
0.468 -0.107 0.023 3 
0.469 -0.115 0.023 3 
0.468 -0.126 0.023 3 
0.469 -0.138 0.022 3 
0.47 -0.146 0.022 3 
0.47 -0.155 0.022 3 
0.47 -0.175 0.022 3 
0.469 -0.186 0.022 3 
0.468 -0.185 0.014 3 
0.471 -0.207 0.022 3 
0.473 -0.355 0.02 3 
0.464 0.113 0.02 3 
0.464 0.083 0.02 3 
0.464 0.072 0.02 3 
0.464 0.032 0.02 3 
0.464 0.024 0.02 3 
0.464 -0.025 0.02 3 
0.464 -0.036 0.02 3 
0.474 -0.295 0.018 3 
0.474 -0.352 0.017 3 
0.474 -0.357 0.002 3 
0.465 -0.065 0.012 3 
0.467 -0.096 0.012 3 
0.467 -0.106 0.012 3 
0.466 -0.117 0.012 3 
0.466 -0.125 0.012 3 
0.475 -0.312 0.009 3 
0.465 0.043 0.007 3 
0.466 -0.015 0.007 3 
0.465 -0.025 0.007 3 
0.465 -0.036 0.007 3 
0.465 -0.052 0.007 3 
0.476 -0.355 0.002 3 
0.465 -0.057 0.012 3 
0.464 0.064 0.004 3 
0.465 0.043 0.004 3 
0.466 -0.015 0.004 3 
0.466 -0.025 0.004 3 
0.464 -0.047 0.004 3 
0.466 -0.049 0.004 3 
0.466 -0.055 0.004 3 
0.467 -0.066 0.004 3 
0.468 -0.107 0.004 3 
0.468 -0.115 0.004 3 
0.468 -0.137 0.004 3 
0.463 0.072 0.012 3 
0.469 -0.197 0.014 3 
0.47 -0.215 0.014 3 
0.47 -0.227 0.013 3 
0.472 -0.235 0.013 3 
0.471 -0.246 0.013 3 
0.472 -0.258 0.013 3 
0.473 -0.275 0.012 3 
0.474 -0.305 0.012 3 
0.474 -0.315 0.012 3 
0.463 0.112 0.012 3 
0.463 0.094 0.012 3 
0.463 0.083 0.012 3 
0.465 -0.047 0.023 3 
0.463 0.064 0.012 3 
0.463 0.053 0.012 3 
0.463 0.043 0.012 3 
0.463 0.024 0.013 3 
0.464 0.014 0.012 3 
0.465 0.003 0.012 3 
0.465 -0.007 0.012 3 
0.464 -0.009 0.012 3 
0.463 -0.025 0.013 3 
0.464 -0.047 0.012 3 
0.464 -0.055 0.012 3 
0.473 -0.247 0.033 3 
0.464 0.121 0.014 3 
0.469 -0.126 0.033 3 
0.47 -0.135 0.033 3 
0.471 -0.147 0.033 3 
0.471 -0.155 0.033 3 
0.47 -0.175 0.033 3 
0.47 -0.186 0.033 3 
0.47 -0.195 0.033 3 
0.472 -0.208 0.033 3 
0.472 -0.217 0.033 3 
0.472 -0.226 0.033 3 
0.472 -0.235 0.033 3 
0.47 -0.116 0.033 3 
0.473 -0.257 0.032 3 
0.473 -0.266 0.032 3 
0.474 -0.275 0.032 3 
0.475 -0.283 0.032 3 
0.475 -0.286 0.032 3 
0.475 -0.295 0.032 3 
0.476 -0.306 0.032 3 
0.477 -0.327 0.032 3 
0.474 -0.356 0.031 3 
0.464 0.174 0.03 3 
0.464 0.154 0.03 3 
0.466 0.014 0.034 3 
0.464 0.13 0.033 3 
0.464 0.124 0.033 3 
0.465 0.119 0.033 3 
0.466 0.114 0.033 3 
0.466 0.103 0.033 3 
0.466 0.073 0.033 3 
0.466 0.062 0.033 3 
0.466 0.054 0.033 3 
0.465 0.043 0.034 3 
0.466 0.032 0.034 3 
0.467 -0.085 0.023 3 
0.466 0.024 0.034 3 
0.464 0.141 0.03 3 
0.466 0.003 0.034 3 
0.466 -0.007 0.034 3 
0.467 -0.015 0.034 3 
0.467 -0.025 0.034 3 
0.467 -0.036 0.034 3 
0.467 -0.047 0.034 3 
0.468 -0.077 0.033 3 
0.468 -0.085 0.034 3 
0.469 -0.096 0.033 3 
0.47 -0.105 0.033 3 
0.468 -0.126 0.004 3 
0.465 0.064 0.023 3 
0.463 0.182 0.022 3 
0.464 0.174 0.022 3 
0.463 0.162 0.022 3 
0.463 0.154 0.022 3 
0.463 0.143 0.022 3 
0.465 0.119 0.022 3 
0.465 0.113 0.022 3 
0.464 0.102 0.023 3 
0.465 0.1 0.023 3 
0.464 0.094 0.023 3 
0.465 0.089 0.023 3 
0.465 0.073 0.023 3 
0.475 -0.357 0.023 3 
0.464 0.059 0.023 3 
0.464 0.054 0.023 3 
0.464 0.043 0.023 3 
0.465 0.032 0.023 3 
0.465 0.024 0.023 3 
0.465 0.014 0.023 3 
0.467 0.003 0.023 3 
0.466 -0.007 0.023 3 
0.465 -0.015 0.023 3 
0.465 -0.025 0.023 3 
0.465 -0.036 0.023 3 
0.464 0.04 0.026 3 
0.474 -0.285 0.029 3 
0.462 0.334 0.022 3 
0.463 0.322 0.023 3 
0.473 -0.355 0.014 3 
0.463 0.314 0.023 3 
0.463 0.301 0.023 3 
0.463 0.264 0.024 3 
0.463 0.252 0.024 3 
0.463 0.243 0.024 3 
0.463 0.234 0.024 3 
0.464 0.203 0.024 3 
0.464 0.102 0.025 3 
0.466 -0.015 0.063 3 
0.471 -0.222 0.024 3 
0.471 -0.225 0.024 3 
0.472 -0.256 0.024 3 
0.473 -0.265 0.024 3 
0.474 -0.275 0.024 3 
0.474 -0.285 0.024 3 
0.475 -0.289 0.024 3 
0.476 -0.306 0.023 3 
0.476 -0.316 0.023 3 
0.477 -0.328 0.023 3 
0.478 -0.336 0.023 3 
0.464 0.337 0.097 3 
0.475 -0.277 0.104 3 
0.476 -0.288 0.104 3 
0.464 0.333 0.1 3 
0.464 0.232 0.098 3 
0.462 0.272 0.013 3 
0.477 -0.298 0.102 3 
0.478 -0.306 0.102 3 
0.479 -0.327 0.102 3 
0.479 -0.338 0.103 3 
0.48 -0.346 0.103 3 
0.48 -0.355 0.103 3 
0.465 0.064 0.044 3 
0.473 -0.266 0.104 3 
0.464 0.303 0.096 3 
0.474 -0.276 0.098 3 
0.464 0.337 0.094 3 
0.464 0.333 0.094 3 
0.465 0.331 0.094 3 
0.465 0.324 0.094 3 
0.464 0.32 0.094 3 
0.464 -0.015 0.012 3 
0.465 0.314 0.094 3 
0.464 0.303 0.094 3 
0.465 0.288 0.094 3 
0.462 0.331 0.082 3 
0.469 -0.127 0.104 3 
0.47 -0.135 0.104 3 
0.472 -0.235 0.024 3 
0.466 0.343 0.103 3 
0.466 0.332 0.103 3 
0.465 0.324 0.103 3 
0.465 0.314 0.102 3 
0.464 0.31 0.102 3 
0.465 0.301 0.102 3 
0.464 0.294 0.102 3 
0.465 0.292 0.102 3 
0.464 0.284 0.102 3 
0.464 0.272 0.093 3 
0.465 0.236 0.101 3 
0.47 -0.147 0.102 3 
0.471 -0.175 0.102 3 
0.471 -0.187 0.102 3 
0.472 -0.196 0.102 3 
0.473 -0.205 0.103 3 
0.473 -0.217 0.103 3 
0.473 -0.226 0.103 3 
0.473 -0.235 0.103 3 
0.474 -0.245 0.103 3 
0.472 -0.256 0.103 3 
0.468 -0.055 0.093 3 
0.464 0.124 0.023 3 
0.465 0.054 0.092 3 
0.466 0.043 0.092 3 
0.466 0.033 0.092 3 
0.465 0.022 0.092 3 
0.466 0.014 0.092 3 
0.466 0.003 0.092 3 
0.466 -0.007 0.092 3 
0.466 -0.015 0.092 3 
0.467 -0.025 0.093 3 
0.467 -0.036 0.093 3 
0.468 -0.047 0.093 3 
0.465 0.062 0.092 3 
0.468 -0.066 0.093 3 
0.468 -0.077 0.093 3 
0.468 -0.085 0.093 3 
0.47 -0.097 0.093 3 
0.47 -0.105 0.093 3 
0.469 -0.116 0.093 3 
0.469 -0.127 0.093 3 
0.464 0.194 0.024 3 
0.471 -0.155 0.094 3 
0.471 -0.167 0.094 3 
0.471 -0.175 0.094 3 
0.465 0.183 0.093 3 
0.464 0.263 0.093 3 
0.464 0.254 0.093 3 
0.465 0.248 0.093 3 
0.466 0.043 0.063 3 
0.465 0.244 0.093 3 
0.465 0.233 0.093 3 
0.464 0.226 0.093 3 
0.464 0.223 0.093 3 
0.465 0.221 0.093 3 
0.465 0.212 0.093 3 
0.465 0.203 0.093 3 
0.465 0.192 0.093 3 
0.465 0.272 0.063 3 
0.465 0.172 0.093 3 
0.465 0.163 0.093 3 
0.466 0.153 0.093 3 
0.466 0.144 0.093 3 
0.465 0.133 0.092 3 
0.465 0.122 0.092 3 
0.465 0.114 0.092 3 
0.465 0.103 0.092 3 
0.465 0.092 0.092 3 
0.465 0.084 0.092 3 
0.465 0.073 0.092 3 
0.474 -0.267 0.112 3 
0.47 -0.147 0.113 3 
0.471 -0.156 0.113 3 
0.471 -0.167 0.113 3 
0.471 -0.175 0.113 3 
0.472 -0.196 0.114 3 
0.472 -0.205 0.114 3 
0.473 -0.217 0.114 3 
0.473 -0.226 0.114 3 
0.465 0.227 0.11 3 
0.474 -0.236 0.112 3 
0.474 -0.245 0.112 3 
0.474 -0.255 0.112 3 
0.472 -0.187 0.114 3 
0.476 -0.272 0.113 3 
0.476 -0.275 0.113 3 
0.476 -0.285 0.113 3 
0.477 -0.295 0.113 3 
0.478 -0.306 0.114 3 
0.479 -0.317 0.114 3 
0.479 -0.327 0.114 3 
0.472 -0.246 0.083 3 
0.466 0.343 0.109 3 
0.464 0.317 0.108 3 
0.464 0.31 0.108 3 
0.466 0.193 0.112 3 
0.466 0.303 0.114 3 
0.465 0.292 0.113 3 
0.463 0.032 0.013 3 
0.465 0.283 0.113 3 
0.465 0.273 0.113 3 
0.464 0.263 0.113 3 
0.464 0.254 0.113 3 
0.464 0.242 0.112 3 
0.464 0.233 0.112 3 
0.465 0.224 0.112 3 
0.463 0.322 0.043 3 
0.465 0.212 0.112 3 
0.464 0.272 0.107 3 
0.464 0.075 0.111 3 
0.464 0.033 0.111 3 
0.469 -0.066 0.112 3 
0.468 -0.077 0.112 3 
0.469 -0.085 0.112 3 
0.468 -0.066 0.033 3 
0.469 -0.096 0.112 3 
0.47 -0.105 0.112 3 
0.469 -0.116 0.112 3 
0.47 -0.127 0.113 3 
0.47 -0.136 0.113 3 
0.466 0.014 0.103 3 
0.465 0.092 0.103 3 
0.465 0.084 0.103 3 
0.465 0.073 0.103 3 
0.465 0.062 0.103 3 
0.469 -0.096 0.082 3 
0.464 0.059 0.103 3 
0.464 0.34 0.022 3 
0.465 0.054 0.103 3 
0.464 0.046 0.103 3 
0.464 0.043 0.103 3 
0.472 -0.205 0.052 3 
0.466 0.033 0.103 3 
0.465 0.103 0.103 3 
0.466 -0.006 0.103 3 
0.467 -0.015 0.103 3 
0.467 -0.025 0.103 3 
0.468 -0.047 0.104 3 
0.468 -0.055 0.104 3 
0.468 -0.066 0.104 3 
0.468 -0.077 0.104 3 
0.469 -0.085 0.104 3 
0.464 0.232 0.043 3 
0.469 -0.096 0.104 3 
0.469 -0.116 0.104 3 
0.465 0.203 0.104 3 
0.479 -0.338 0.112 3 
0.479 -0.345 0.112 3 
0.472 -0.247 0.024 3 
0.478 -0.355 0.112 3 
0.464 0.278 0.105 3 
0.464 0.269 0.104 3 
0.464 0.263 0.104 3 
0.463 0.253 0.104 3 
0.464 0.32 0.082 3 
0.465 0.233 0.104 3 
0.465 0.224 0.104 3 
0.465 0.212 0.104 3 
0.472 -0.196 0.094 3 
0.465 0.192 0.104 3 
0.465 0.183 0.104 3 
0.465 0.172 0.104 3 
0.477 -0.345 0.023 3 
0.465 0.164 0.103 3 
0.465 0.152 0.103 3 
0.466 0.142 0.103 3 
0.466 0.133 0.103 3 
0.466 0.122 0.103 3 
0.466 0.114 0.103 3 
0.466 0.043 0.044 3 
0.468 -0.055 0.074 3 
0.465 0.094 0.074 3 
0.465 0.084 0.074 3 
0.466 0.073 0.074 3 
0.467 0.062 0.074 3 
0.466 0.033 0.074 3 
0.466 0.022 0.074 3 
0.466 0.014 0.074 3 
0.467 0.003 0.074 3 
0.467 -0.007 0.074 3 
0.467 -0.015 0.074 3 
0.467 -0.025 0.074 3 
0.467 -0.036 0.074 3 
0.465 0.103 0.074 3 
0.468 -0.085 0.074 3 
0.469 -0.096 0.074 3 
0.469 -0.107 0.074 3 
0.468 -0.115 0.074 3 
0.469 -0.126 0.074 3 
0.47 -0.135 0.074 3 
0.471 -0.155 0.074 3 
0.471 -0.166 0.074 3 
0.465 0.341 0.071 3 
0.473 -0.235 0.072 3 
0.465 0.273 0.071 3 
0.465 0.203 0.074 3 
0.465 0.282 0.074 3 
0.464 0.275 0.074 3 
0.464 0.272 0.074 3 
0.464 0.262 0.074 3 
0.464 0.252 0.074 3 
0.464 0.243 0.074 3 
0.465 0.238 0.074 3 
0.464 0.232 0.074 3 
0.465 0.229 0.074 3 
0.464 0.223 0.074 3 
0.465 0.215 0.074 3 
0.465 0.212 0.074 3 
0.465 0.262 0.071 3 
0.465 0.192 0.074 3 
0.464 0.185 0.074 3 
0.465 0.183 0.074 3 
0.464 0.171 0.074 3 
0.464 0.163 0.073 3 
0.465 0.158 0.074 3 
0.465 0.152 0.074 3 
0.466 0.144 0.074 3 
0.466 0.133 0.074 3 
0.466 0.122 0.074 3 
0.465 0.114 0.074 3 
0.465 0.183 0.063 3 
0.464 0.281 0.063 3 
0.465 0.275 0.063 3 
0.465 0.253 0.063 3 
0.466 0.003 0.052 3 
0.464 0.246 0.063 3 
0.464 0.243 0.063 3 
0.464 0.232 0.063 3 
0.465 0.224 0.063 3 
0.464 0.214 0.063 3 
0.465 0.209 0.063 3 
0.464 0.202 0.063 3 
0.464 0.194 0.063 3 
0.464 0.294 0.062 3 
0.465 0.172 0.063 3 
0.465 0.163 0.063 3 
0.466 0.144 0.063 3 
0.467 0.134 0.063 3 
0.465 0.103 0.063 3 
0.465 0.094 0.063 3 
0.465 0.084 0.063 3 
0.466 0.073 0.063 3 
0.467 0.054 0.063 3 
0.466 0.024 0.063 3 
0.466 0.003 0.063 3 
0.475 -0.286 0.072 3 
0.464 0.214 0.071 3 
0.464 0.202 0.071 3 
0.471 -0.187 0.072 3 
0.471 -0.195 0.072 3 
0.472 -0.205 0.072 3 
0.466 0.084 0.033 3 
0.472 -0.216 0.072 3 
0.465 0.124 0.052 3 
0.473 -0.226 0.072 3 
0.473 -0.247 0.072 3 
0.474 -0.267 0.072 3 
0.474 -0.276 0.072 3 
0.464 0.294 0.074 3 
0.476 -0.297 0.073 3 
0.477 -0.308 0.073 3 
0.477 -0.315 0.073 3 
0.478 -0.325 0.073 3 
0.479 -0.336 0.073 3 
0.48 -0.348 0.073 3 
0.477 -0.355 0.073 3 
0.465 0.172 0.068 3 
0.464 0.323 0.062 3 
0.464 0.313 0.062 3 
0.464 0.303 0.062 3 
0.467 0.054 0.084 3 
0.466 0.153 0.084 3 
0.466 0.144 0.084 3 
0.465 0.133 0.084 3 
0.465 0.122 0.084 3 
0.465 0.114 0.084 3 
0.466 0.103 0.084 3 
0.465 0.092 0.084 3 
0.465 0.084 0.084 3 
0.461 0.337 0.014 3 
0.465 0.073 0.084 3 
0.468 -0.047 0.074 3 
0.465 0.062 0.084 3 
0.461 0.333 0.054 3 
0.466 0.043 0.084 3 
0.466 0.033 0.084 3 
0.465 0.024 0.084 3 
0.466 0.014 0.084 3 
0.466 0.003 0.084 3 
0.463 0.339 0.082 3 
0.465 0.327 0.083 3 
0.465 0.324 0.083 3 
0.465 0.314 0.082 3 
0.464 0.306 0.082 3 
0.465 0.288 0.082 3 
0.477 -0.305 0.093 3 
0.472 -0.205 0.094 3 
0.472 -0.216 0.094 3 
0.472 -0.225 0.094 3 
0.464 0.238 0.09 3 
0.472 -0.237 0.092 3 
0.472 -0.256 0.092 3 
0.463 0.312 0.054 3 
0.473 -0.266 0.092 3 
0.474 -0.276 0.092 3 
0.475 -0.283 0.093 3 
0.464 0.293 0.023 3 
0.475 -0.296 0.093 3 
0.464 0.281 0.082 3 
0.477 -0.315 0.093 3 
0.479 -0.327 0.094 3 
0.479 -0.337 0.094 3 
0.481 -0.349 0.094 3 
0.479 -0.358 0.094 3 
0.464 0.177 0.087 3 
0.464 0.171 0.087 3 
0.465 0.189 0.084 3 
0.465 0.172 0.084 3 
0.471 -0.187 0.083 3 
0.464 0.168 0.084 3 
0.464 0.18 0.079 3 
0.465 0.011 0.012 3 
0.471 -0.175 0.083 3 
0.471 -0.195 0.083 3 
0.473 -0.217 0.083 3 
0.473 -0.226 0.083 3 
0.473 -0.235 0.083 3 
0.472 -0.256 0.083 3 
0.473 -0.266 0.084 3 
0.462 0.142 0.014 3 
0.475 -0.287 0.084 3 
0.476 -0.297 0.084 3 
0.477 -0.315 0.084 3 
0.47 -0.166 0.083 3 
0.474 -0.286 0.081 3 
0.48 -0.337 0.082 3 
0.48 -0.348 0.082 3 
0.478 -0.356 0.082 3 
0.464 0.154 0.076 3 
0.464 0.34 0.074 3 
0.462 0.334 0.074 3 
0.464 0.323 0.074 3 
0.464 0.313 0.074 3 
0.464 0.303 0.074 3 
0.465 0.298 0.074 3 
0.467 -0.047 0.082 3 
0.464 0.272 0.082 3 
0.463 0.262 0.082 3 
0.464 0.253 0.082 3 
0.464 0.232 0.082 3 
0.464 0.223 0.082 3 
0.465 0.218 0.082 3 
0.464 0.274 0.023 3 
0.464 0.211 0.082 3 
0.465 0.209 0.082 3 
0.464 0.163 0.082 3 
0.467 -0.025 0.082 3 
0.467 -0.036 0.082 3 
0.465 0.311 0.114 3 
0.468 -0.055 0.082 3 
0.468 -0.066 0.082 3 
0.468 -0.077 0.082 3 
0.468 -0.085 0.082 3 
0.469 -0.107 0.082 3 
0.464 -0.023 0.02 3 
0.468 -0.115 0.082 3 
0.468 -0.126 0.082 3 
0.464 0.154 0.055 3 
0.47 -0.146 0.083 3 
0.471 -0.155 0.083 3 
0.317 0.013 0.014 7 
0.332 0.004 0.019 7 
0.318 0.015 0.021 7 
0.319 0.015 0.013 7 
0.335 -0.001 0.018 7 
0.319 0.014 0.02 7 
0.317 0.004 0.014 7 
0.318 0.004 0.021 7 
0.334 0.01 0.018 7 
0.335 0.014 0.018 7 
0.335 0.015 0.018 7 
