# .PCD v0.7 - Point Cloud Data file
FIELDS x y z intensity
SIZE 4 4 4 4
TYPE F F F F
COUNT 1 1 1 1
WIDTH 2425
HEIGHT 1
VIEWPOINT 0 0 0 1 0 0 0
POINTS 2425
DATA ascii
0.437 0.076 0 0 
0.57 -0.081 0.145 0 
0.421 0.044 0.023 0 
0.429 0.045 0.02 0 
0.507 -0.065 0.107 0 
0.391 0.069 0.005 0 
0.386 0.077 0 0 
0.376 0.083 0.002 0 
0.389 0.062 0.001 0 
0.368 0.065 0.008 0 
0.391 0.047 0 0 
0.383 0.059 0.003 0 
0.371 -0.237 -0.025 1 
0.371 -0.228 -0.024 1 
0.361 -0.155 -0.017 1 
0.362 -0.146 -0.017 1 
0.357 -0.125 -0.015 1 
0.357 -0.111 -0.015 1 
0.358 -0.102 -0.015 1 
0.354 -0.086 -0.013 1 
0.354 -0.072 -0.013 1 
0.352 -0.056 -0.012 1 
0.349 -0.035 -0.01 1 
0.334 -0.02 -0.005 1 
0.352 0.064 -0.012 1 
0.351 0.074 -0.012 1 
0.351 0.084 -0.012 1 
0.353 0.094 -0.013 1 
0.35 0.104 -0.013 1 
0.352 0.147 -0.015 1 
0.349 0.154 -0.014 1 
0.343 0.202 -0.015 1 
0.374 -0.238 -0.024 1 
0.379 -0.227 -0.025 1 
0.364 -0.136 -0.016 1 
0.361 -0.115 -0.014 1 
0.362 -0.106 -0.014 1 
0.36 -0.096 -0.013 1 
0.359 -0.086 -0.013 1 
0.334 -0.016 -0.004 1 
0.332 -0.005 -0.003 1 
0.353 0.044 -0.011 1 
0.354 0.112 -0.012 1 
0.353 0.124 -0.012 1 
0.354 0.134 -0.013 1 
0.354 0.136 -0.013 1 
0.35 0.173 -0.014 1 
0.346 0.208 -0.014 1 
0.381 -0.251 -0.025 1 
0.381 -0.243 -0.024 1 
0.382 -0.225 -0.023 1 
0.372 -0.197 -0.019 1 
0.372 -0.186 -0.019 1 
0.371 -0.175 -0.018 1 
0.374 -0.146 -0.018 1 
0.373 -0.136 -0.017 1 
0.373 -0.126 -0.017 1 
0.361 -0.055 -0.011 1 
0.344 -0.023 -0.006 1 
0.353 0.025 -0.009 1 
0.364 0.073 -0.013 1 
0.362 0.084 -0.013 1 
0.363 0.093 -0.013 1 
0.36 0.114 -0.013 1 
0.361 0.124 -0.013 1 
0.361 0.154 -0.015 1 
0.358 0.164 -0.014 1 
0.353 0.203 -0.014 1 
0.354 0.212 -0.015 1 
0.352 0.215 -0.015 1 
0.389 -0.258 -0.025 1 
0.381 -0.199 -0.02 1 
0.374 -0.116 -0.015 1 
0.374 -0.101 -0.015 1 
0.373 -0.085 -0.014 1 
0.374 -0.083 -0.015 1 
0.374 -0.076 -0.014 1 
0.326 0.014 0.001 1 
0.353 0.022 -0.007 1 
0.364 0.041 -0.011 1 
0.369 0.135 -0.015 1 
0.363 0.173 -0.014 1 
0.38 -0.245 -0.024 1 
0.362 0.178 -0.014 1 
0.363 0.194 -0.015 1 
0.392 -0.237 -0.023 1 
0.379 -0.167 -0.016 1 
0.382 -0.156 -0.017 1 
0.381 -0.126 -0.016 1 
0.382 -0.115 -0.016 1 
0.382 -0.105 -0.016 1 
0.38 -0.1 -0.015 1 
0.381 -0.086 -0.015 1 
0.381 -0.078 -0.015 1 
0.374 -0.063 -0.012 1 
0.359 -0.025 -0.007 1 
0.351 -0.021 -0.005 1 
0.325 0.001 0.003 1 
0.324 0.004 0.003 1 
0.323 0.014 0.004 1 
0.324 0.016 0.003 1 
0.361 0.023 -0.008 1 
0.373 0.043 -0.012 1 
0.372 0.084 -0.013 1 
0.374 0.114 -0.014 1 
0.374 0.124 -0.014 1 
0.369 0.144 -0.013 1 
0.374 0.158 -0.015 1 
0.37 0.183 -0.015 1 
0.372 0.193 -0.016 1 
0.364 0.223 -0.015 1 
0.363 0.227 -0.015 1 
0.394 -0.245 -0.022 1 
0.394 -0.227 -0.021 1 
0.389 -0.216 -0.019 1 
0.391 -0.206 -0.019 1 
0.381 -0.096 -0.013 1 
0.383 -0.089 -0.014 1 
0.381 -0.065 -0.013 1 
0.384 -0.056 -0.014 1 
0.378 -0.046 -0.012 1 
0.374 -0.042 -0.01 1 
0.358 -0.016 -0.005 1 
0.356 -0.002 -0.005 1 
0.38 0.073 -0.013 1 
0.378 0.084 -0.013 1 
0.38 0.113 -0.014 1 
0.382 0.164 -0.016 1 
0.375 0.174 -0.014 1 
0.374 0.222 -0.016 1 
0.371 0.236 -0.016 1 
0.402 -0.275 -0.023 1 
0.4 -0.267 -0.022 1 
0.402 -0.235 -0.021 1 
0.394 -0.187 -0.017 1 
0.39 -0.155 -0.015 1 
0.393 -0.125 -0.015 1 
0.393 -0.116 -0.015 1 
0.392 -0.082 -0.015 1 
0.391 -0.076 -0.014 1 
0.39 -0.055 -0.014 1 
0.384 -0.036 -0.012 1 
0.379 -0.028 -0.01 1 
0.374 -0.025 -0.009 1 
0.359 -0.006 -0.004 1 
0.384 0.101 -0.013 1 
0.384 0.123 -0.013 1 
0.384 0.134 -0.014 1 
0.383 0.144 -0.014 1 
0.386 0.163 -0.015 1 
0.382 0.174 -0.015 1 
0.377 0.182 -0.013 1 
0.411 -0.265 -0.023 1 
0.414 -0.263 -0.024 1 
0.384 -0.217 -0.021 1 
0.404 -0.227 -0.019 1 
0.404 -0.208 -0.019 1 
0.403 -0.166 -0.017 1 
0.398 -0.108 -0.015 1 
0.398 -0.104 -0.015 1 
0.394 -0.046 -0.013 1 
0.39 -0.035 -0.011 1 
0.381 -0.003 -0.009 1 
0.371 -0.001 -0.006 1 
0.35 0.021 0 1 
0.384 0.035 -0.01 1 
0.391 0.063 -0.013 1 
0.392 0.073 -0.013 1 
0.393 0.084 -0.013 1 
0.391 0.094 -0.013 1 
0.394 0.103 -0.014 1 
0.394 0.114 -0.014 1 
0.391 0.134 -0.014 1 
0.384 0.197 -0.014 1 
0.368 0.154 -0.015 1 
0.383 0.234 -0.015 1 
0.38 0.243 -0.015 1 
0.38 0.246 -0.015 1 
0.411 -0.236 -0.019 1 
0.403 -0.185 -0.016 1 
0.404 -0.183 -0.016 1 
0.403 -0.155 -0.015 1 
0.402 -0.152 -0.015 1 
0.404 -0.137 -0.015 1 
0.403 -0.135 -0.014 1 
0.403 -0.126 -0.014 1 
0.403 -0.123 -0.014 1 
0.406 -0.112 -0.015 1 
0.403 -0.106 -0.014 1 
0.402 -0.095 -0.014 1 
0.404 -0.087 -0.014 1 
0.4 -0.066 -0.013 1 
0.387 -0.025 -0.009 1 
0.383 -0.016 -0.008 1 
0.384 -0.013 -0.008 1 
0.386 -0.007 -0.009 1 
0.359 -0.001 0 1 
0.343 0 0.003 1 
0.339 0.022 0.005 1 
0.376 0.032 -0.006 1 
0.393 0.039 -0.011 1 
0.394 0.144 -0.013 1 
0.393 0.152 -0.013 1 
0.394 0.16 -0.013 1 
0.393 0.173 -0.014 1 
0.387 0.193 -0.013 1 
0.391 0.204 -0.014 1 
0.394 0.223 -0.016 1 
0.39 0.242 -0.015 1 
0.414 -0.225 -0.017 1 
0.363 -0.01 -0.005 1 
0.414 -0.216 -0.017 1 
0.413 -0.208 -0.017 1 
0.409 -0.197 -0.015 1 
0.41 -0.186 -0.015 1 
0.413 -0.166 -0.016 1 
0.41 -0.159 -0.015 1 
0.409 -0.156 -0.014 1 
0.409 -0.145 -0.014 1 
0.409 -0.136 -0.014 1 
0.41 -0.132 -0.014 1 
0.412 -0.126 -0.015 1 
0.411 -0.116 -0.014 1 
0.41 -0.087 -0.014 1 
0.404 -0.054 -0.012 1 
0.402 -0.035 -0.011 1 
0.391 -0.017 -0.008 1 
0.347 -0.006 0.004 1 
0.372 -0.008 -0.006 1 
0.343 -0.026 -0.007 1 
0.337 0.025 0.007 1 
0.351 0.028 0.003 1 
0.378 0.034 -0.004 1 
0.404 0.047 -0.012 1 
0.404 0.064 -0.012 1 
0.403 0.073 -0.012 1 
0.369 -0.106 -0.015 1 
0.404 0.115 -0.013 1 
0.402 0.134 -0.013 1 
0.402 0.142 -0.013 1 
0.402 0.154 -0.013 1 
0.399 0.163 -0.013 1 
0.402 0.192 -0.015 1 
0.401 0.193 -0.014 1 
0.345 0.182 -0.014 1 
0.401 0.2 -0.015 1 
0.398 0.21 -0.014 1 
0.4 0.224 -0.015 1 
0.392 0.259 -0.015 1 
0.424 -0.297 -0.021 1 
0.424 -0.288 -0.02 1 
0.424 -0.268 -0.019 1 
0.424 -0.237 -0.018 1 
0.419 -0.225 -0.016 1 
0.417 -0.162 -0.015 1 
0.414 -0.106 -0.013 1 
0.414 -0.077 -0.012 1 
0.413 -0.065 -0.012 1 
0.338 -0.002 0.008 1 
0.325 0.023 0.012 1 
0.411 0.122 -0.013 1 
0.409 0.133 -0.013 1 
0.407 0.143 -0.012 1 
0.404 0.243 -0.015 1 
0.4 0.244 -0.014 1 
0.403 0.263 -0.015 1 
0.401 0.269 -0.015 1 
0.424 -0.217 -0.015 1 
0.425 -0.199 -0.015 1 
0.424 -0.196 -0.015 1 
0.425 -0.187 -0.015 1 
0.424 -0.184 -0.015 1 
0.424 -0.181 -0.014 1 
0.425 -0.177 -0.015 1 
0.424 -0.166 -0.014 1 
0.42 -0.156 -0.013 1 
0.422 -0.145 -0.013 1 
0.423 -0.136 -0.013 1 
0.42 -0.116 -0.012 1 
0.373 0.214 -0.016 1 
0.42 -0.106 -0.012 1 
0.422 -0.095 -0.013 1 
0.418 -0.076 -0.011 1 
0.403 -0.022 -0.007 1 
0.309 0.014 0.018 1 
0.323 0.024 0.014 1 
0.348 -0.025 -0.007 1 
0.349 0.03 0.007 1 
0.412 0.073 -0.01 1 
0.414 0.152 -0.012 1 
0.413 0.164 -0.012 1 
0.414 0.194 -0.013 1 
0.414 0.232 -0.015 1 
0.415 0.241 -0.015 1 
0.413 0.244 -0.015 1 
0.412 0.248 -0.015 1 
0.41 0.254 -0.014 1 
0.409 0.273 -0.015 1 
0.407 0.276 -0.015 1 
0.432 -0.306 -0.018 1 
0.434 -0.287 -0.017 1 
0.434 -0.281 -0.017 1 
0.433 -0.245 -0.016 1 
0.431 -0.23 -0.015 1 
0.431 -0.215 -0.015 1 
0.431 -0.209 -0.015 1 
0.431 -0.207 -0.014 1 
0.43 -0.185 -0.014 1 
0.421 -0.067 -0.01 1 
0.413 -0.052 -0.008 1 
0.417 -0.046 -0.009 1 
0.411 -0.025 -0.007 1 
0.521 -0.024 -0.036 1 
0.525 -0.021 -0.037 1 
0.414 0.047 -0.008 1 
0.418 0.054 -0.009 1 
0.418 0.07 -0.01 1 
0.426 0.075 -0.012 1 
0.44 0.086 -0.016 1 
0.419 0.089 -0.01 1 
0.411 0.093 -0.008 1 
0.423 0.124 -0.012 1 
0.421 0.154 -0.012 1 
0.419 0.163 -0.012 1 
0.414 0.214 -0.012 1 
0.425 0.267 -0.016 1 
0.417 0.273 -0.015 1 
0.415 0.282 -0.015 1 
0.439 -0.277 -0.016 1 
0.434 -0.26 -0.014 1 
0.434 -0.222 -0.013 1 
0.434 -0.201 -0.013 1 
0.374 0.098 -0.014 1 
0.434 -0.175 -0.012 1 
0.432 -0.156 -0.011 1 
0.434 -0.147 -0.012 1 
0.434 -0.144 -0.012 1 
0.434 -0.125 -0.011 1 
0.432 -0.106 -0.011 1 
0.433 -0.095 -0.011 1 
0.43 -0.086 -0.01 1 
0.43 -0.084 -0.01 1 
0.389 -0.057 0 1 
0.397 -0.057 -0.001 1 
0.405 -0.048 -0.003 1 
0.402 -0.043 -0.002 1 
0.384 -0.188 -0.016 1 
0.392 -0.146 -0.016 1 
0.403 0.103 -0.012 1 
0.422 -0.035 -0.008 1 
0.424 -0.027 -0.008 1 
0.364 -0.165 -0.017 1 
0.388 0.044 0 1 
0.396 0.05 -0.001 1 
0.414 0.056 -0.006 1 
0.429 0.064 -0.01 1 
0.442 0.07 -0.013 1 
0.447 0.073 -0.015 1 
0.437 0.076 -0.012 1 
0.406 0.078 -0.004 1 
0.407 0.08 -0.005 1 
0.424 0.174 -0.011 1 
0.424 0.184 -0.011 1 
0.422 0.192 -0.011 1 
0.421 0.204 -0.011 1 
0.42 0.214 -0.011 1 
0.42 0.224 -0.011 1 
0.422 0.234 -0.012 1 
0.423 0.243 -0.012 1 
0.422 0.253 -0.013 1 
0.422 0.272 -0.013 1 
0.423 0.282 -0.014 1 
0.424 0.292 -0.015 1 
0.422 0.293 -0.014 1 
0.441 -0.316 -0.015 1 
0.423 -0.206 -0.017 1 
0.447 -0.307 -0.016 1 
0.445 -0.301 -0.015 1 
0.444 -0.297 -0.015 1 
0.443 -0.287 -0.014 1 
0.44 -0.216 -0.012 1 
0.441 -0.195 -0.012 1 
0.44 -0.187 -0.011 1 
0.441 -0.177 -0.011 1 
0.441 -0.166 -0.011 1 
0.438 -0.157 -0.01 1 
0.44 -0.145 -0.011 1 
0.44 -0.137 -0.011 1 
0.44 -0.125 -0.01 1 
0.439 -0.117 -0.01 1 
0.438 -0.106 -0.01 1 
0.414 -0.102 -0.013 1 
0.441 -0.095 -0.01 1 
0.421 0.08 -0.008 1 
0.442 -0.088 -0.01 1 
0.372 0.054 -0.012 1 
0.399 -0.258 -0.022 1 
0.411 -0.03 -0.003 1 
0.352 0.144 -0.015 1 
0.462 -0.081 -0.015 1 
0.418 0.063 -0.005 1 
0.364 -0.065 -0.013 1 
0.362 0.069 0.008 1 
0.338 0.065 0.014 1 
0.434 0.124 -0.01 1 
0.434 0.141 -0.01 1 
0.432 0.153 -0.01 1 
0.43 0.162 -0.01 1 
0.426 0.274 -0.012 1 
0.449 -0.329 -0.015 1 
0.452 -0.322 -0.015 1 
0.443 -0.266 -0.011 1 
0.441 -0.255 -0.01 1 
0.413 0.103 -0.009 1 
0.444 -0.235 -0.01 1 
0.444 -0.225 -0.01 1 
0.441 -0.206 -0.012 1 
0.454 -0.092 -0.011 1 
0.484 -0.098 -0.018 1 
0.484 -0.09 -0.018 1 
0.374 0.184 -0.014 1 
0.44 -0.072 -0.007 1 
0.373 0.028 -0.007 1 
0.373 -0.045 -0.012 1 
0.366 0.052 0.009 1 
0.365 0.055 0.009 1 
0.354 0.059 0.012 1 
0.423 0.093 -0.004 1 
0.44 0.114 -0.008 1 
0.441 0.122 -0.009 1 
0.441 0.132 -0.009 1 
0.439 0.144 -0.009 1 
0.433 0.182 -0.008 1 
0.433 0.192 -0.008 1 
0.433 0.203 -0.009 1 
0.434 0.214 -0.009 1 
0.433 0.219 -0.009 1 
0.434 0.228 -0.01 1 
0.434 0.242 -0.01 1 
0.433 0.252 -0.01 1 
0.434 0.256 -0.01 1 
0.433 0.284 -0.011 1 
0.454 -0.324 -0.013 1 
0.453 -0.297 -0.012 1 
0.453 -0.275 -0.011 1 
0.454 -0.226 -0.01 1 
0.453 -0.215 -0.01 1 
0.453 -0.207 -0.009 1 
0.453 -0.196 -0.009 1 
0.453 -0.187 -0.009 1 
0.452 -0.157 -0.008 1 
0.454 -0.147 -0.009 1 
0.402 -0.045 -0.002 1 
0.454 -0.136 -0.009 1 
0.454 -0.12 -0.009 1 
0.454 -0.105 -0.008 1 
0.454 -0.099 -0.008 1 
0.384 -0.239 -0.025 1 
0.463 -0.06 -0.01 1 
0.364 0.034 -0.011 1 
0.392 0.124 -0.014 1 
0.354 -0.048 -0.011 1 
0.354 0.054 0.013 1 
0.389 -0.065 -0.013 1 
0.443 0.162 -0.008 1 
0.44 0.174 -0.007 1 
0.438 0.193 -0.007 1 
0.435 0.204 -0.007 1 
0.432 0.304 -0.009 1 
0.422 0.133 -0.011 1 
0.454 -0.267 -0.008 1 
0.453 -0.257 -0.008 1 
0.453 -0.246 -0.007 1 
0.454 -0.238 -0.007 1 
0.359 0.134 -0.013 1 
0.353 0.05 0.015 1 
0.453 0.093 -0.006 1 
0.453 0.133 -0.007 1 
0.451 0.153 -0.006 1 
0.443 0.244 -0.007 1 
0.444 0.274 -0.008 1 
0.444 0.283 -0.008 1 
0.443 0.294 -0.008 1 
0.441 0.301 -0.008 1 
0.438 0.311 -0.008 1 
0.384 -0.211 -0.019 1 
0.454 -0.334 -0.008 1 
0.461 -0.335 -0.009 1 
0.375 0.179 -0.015 1 
0.464 -0.315 -0.009 1 
0.402 -0.075 -0.013 1 
0.464 -0.295 -0.008 1 
0.459 -0.257 -0.006 1 
0.362 0.028 -0.001 1 
0.463 -0.236 -0.007 1 
0.461 -0.215 -0.006 1 
0.461 -0.195 -0.006 1 
0.461 -0.176 -0.005 1 
0.461 -0.156 -0.005 1 
0.462 -0.137 -0.005 1 
0.462 -0.116 -0.005 1 
0.464 -0.097 -0.005 1 
0.465 -0.09 -0.005 1 
0.464 -0.076 -0.005 1 
0.47 -0.067 -0.006 1 
0.473 -0.059 -0.007 1 
0.475 -0.057 -0.007 1 
0.472 -0.048 -0.007 1 
0.374 -0.066 -0.012 1 
0.46 0.093 -0.005 1 
0.457 0.113 -0.005 1 
0.457 0.124 -0.005 1 
0.457 0.142 -0.005 1 
0.349 0.194 -0.014 1 
0.456 0.153 -0.005 1 
0.454 0.163 -0.005 1 
0.453 0.173 -0.005 1 
0.391 0.233 -0.015 1 
0.453 0.184 -0.005 1 
0.453 0.193 -0.005 1 
0.453 0.204 -0.005 1 
0.453 0.212 -0.006 1 
0.452 0.223 -0.006 1 
0.45 0.233 -0.005 1 
0.45 0.244 -0.006 1 
0.449 0.252 -0.006 1 
0.451 0.263 -0.006 1 
0.448 0.284 -0.006 1 
0.465 -0.306 -0.006 1 
0.457 0.134 -0.005 1 
0.469 -0.287 -0.006 1 
0.467 -0.279 -0.006 1 
0.466 -0.257 -0.005 1 
0.467 -0.245 -0.005 1 
0.468 -0.234 -0.005 1 
0.464 -0.226 -0.004 1 
0.464 -0.217 -0.004 1 
0.464 -0.197 -0.004 1 
0.464 -0.186 -0.003 1 
0.464 -0.177 -0.003 1 
0.403 -0.195 -0.016 1 
0.464 -0.155 -0.003 1 
0.464 -0.149 -0.003 1 
0.464 -0.122 -0.003 1 
0.464 -0.106 -0.003 1 
0.464 -0.087 -0.002 1 
0.475 -0.045 -0.005 1 
0.433 -0.032 0.003 1 
0.445 0.06 0 1 
0.442 0.062 0.001 1 
0.432 0.065 0.003 1 
0.45 0.074 0 1 
0.454 0.242 -0.004 1 
0.454 0.259 -0.004 1 
0.454 0.268 -0.004 1 
0.455 0.272 -0.005 1 
0.455 0.282 -0.005 1 
0.442 -0.245 -0.01 1 
0.455 0.285 -0.005 1 
0.452 0.304 -0.005 1 
0.451 0.312 -0.005 1 
0.451 0.322 -0.006 1 
0.454 0.329 -0.006 1 
0.473 -0.345 -0.006 1 
0.472 -0.337 -0.005 1 
0.43 0.134 -0.011 1 
0.443 0.261 -0.007 1 
0.471 -0.325 -0.005 1 
0.472 -0.316 -0.005 1 
0.493 -0.031 -0.005 1 
0.5 -0.025 -0.007 1 
0.506 -0.017 -0.008 1 
0.454 0.322 -0.003 1 
0.473 -0.356 -0.003 1 
0.474 -0.325 -0.002 1 
0.383 0.154 -0.014 1 
0.474 -0.315 -0.002 1 
0.482 -0.016 -0.001 1 
0.36 0.203 -0.015 1 
0.451 0.049 0.004 1 
0.459 0.063 0.002 1 
0.475 -0.296 0 1 
0.475 -0.286 0 1 
0.379 -0.076 -0.014 1 
0.471 -0.225 0.002 1 
0.47 -0.216 0.002 1 
0.471 -0.205 0.002 1 
0.469 -0.197 0.003 1 
0.469 -0.186 0.003 1 
0.47 -0.175 0.003 1 
0.469 -0.166 0.003 1 
0.469 -0.157 0.003 1 
0.468 -0.146 0.003 1 
0.373 -0.205 -0.022 1 
0.424 0.11 -0.009 1 
0.467 -0.055 0.004 1 
0.468 -0.045 0.004 1 
0.467 -0.236 -0.005 1 
0.49 -0.013 0 1 
0.464 0.094 0.004 1 
0.464 0.102 0.004 1 
0.463 0.112 0.004 1 
0.464 0.124 0.004 1 
0.465 0.132 0.003 1 
0.465 0.141 0.003 1 
0.464 0.152 0.003 1 
0.464 0.157 0.003 1 
0.465 0.164 0.003 1 
0.464 0.174 0.003 1 
0.464 0.183 0.003 1 
0.464 0.194 0.003 1 
0.464 0.2 0.002 1 
0.465 0.203 0.002 1 
0.465 0.209 0.002 1 
0.463 0.222 0.002 1 
0.463 0.234 0.002 1 
0.463 0.243 0.002 1 
0.474 -0.353 0.002 1 
0.477 -0.346 0.002 1 
0.364 0.103 -0.014 1 
0.476 -0.337 0.002 1 
0.424 -0.089 -0.011 1 
0.476 -0.327 0.002 1 
0.474 -0.305 0.003 1 
0.474 -0.285 0.004 1 
0.473 -0.278 0.004 1 
0.473 -0.266 0.004 1 
0.465 -0.052 0.007 1 
0.38 -0.176 -0.017 1 
0.462 0.263 0.004 1 
0.462 0.272 0.004 1 
0.463 0.292 0.004 1 
0.464 0.303 0.003 1 
0.463 0.311 0.003 1 
0.463 0.321 0.003 1 
0.464 0.333 0.002 1 
0.372 0.153 -0.014 1 
0.465 0.341 0.002 1 
0.43 0.293 -0.011 1 
0.372 0.024 -0.008 1 
0.543 -0.045 0.001 1 
0.454 0.251 -0.004 1 
0.569 -0.045 -0.002 1 
0.461 0.053 0.013 1 
0.462 0.064 0.013 1 
0.414 0.204 -0.011 1 
0.384 -0.149 -0.015 1 
0.464 -0.087 -0.005 1 
0.453 -0.165 -0.009 1 
0.461 -0.11 -0.005 1 
0.383 0.194 -0.014 1 
0.462 -0.126 -0.005 1 
0.462 -0.146 -0.005 1 
0.414 0.261 -0.013 1 
0.461 -0.167 -0.005 1 
0.461 -0.187 -0.006 1 
0.462 -0.228 -0.006 1 
0.454 -0.308 -0.012 1 
0.46 -0.246 -0.006 1 
0.444 0.253 -0.007 1 
0.464 -0.292 -0.008 1 
0.576 -0.042 0.003 1 
0.462 -0.333 -0.009 1 
0.439 0.104 -0.008 1 
0.537 -0.045 0.012 1 
0.575 -0.038 0.007 1 
0.442 -0.277 -0.011 1 
0.414 0.108 -0.011 1 
0.43 -0.226 -0.014 1 
0.533 -0.044 0.015 1 
0.545 -0.042 0.014 1 
0.557 -0.04 0.013 1 
0.572 -0.038 0.011 1 
0.344 0.021 -0.007 1 
0.344 -0.005 -0.004 1 
0.386 0.165 -0.015 1 
0.436 -0.268 -0.015 1 
0.37 0.033 0 1 
0.567 -0.038 0.015 1 
0.452 0.143 -0.006 1 
0.362 -0.175 -0.017 1 
0.43 0.172 -0.01 1 
0.473 -0.247 0.004 1 
0.374 -0.016 -0.007 1 
0.418 -0.021 -0.007 1 
0.452 0.122 -0.006 1 
0.468 -0.296 -0.006 1 
0.418 -0.256 -0.02 1 
0.464 0.143 0.003 1 
0.44 0.152 -0.009 1 
0.352 0.164 -0.014 1 
0.454 0.293 -0.005 1 
0.314 0.015 0.014 1 
0.404 -0.247 -0.02 1 
0.338 0.018 0 1 
0.327 0.017 0.004 1 
0.412 -0.043 -0.005 1 
0.344 0.164 -0.013 1 
0.328 0.026 0.014 1 
0.464 -0.166 -0.003 1 
0.325 0.013 0.005 1 
0.464 0.336 0.002 1 
0.344 0.048 0.016 1 
0.354 0.047 -0.011 1 
0.388 -0.198 -0.018 1 
0.443 0.213 -0.009 1 
0.373 -0.215 -0.022 1 
0.445 0.086 -0.017 1 
0.443 0.047 0.013 1 
0.342 -0.015 -0.003 1 
0.422 -0.277 -0.019 1 
0.428 0.111 -0.008 1 
0.475 -0.313 0.003 1 
0.354 0.202 -0.015 1 
0.387 0.202 -0.015 1 
0.4 0.214 -0.015 1 
0.482 -0.013 -0.001 1 
0.413 -0.246 -0.02 1 
0.472 -0.238 0.004 1 
0.373 0.064 -0.013 1 
0.404 0.112 -0.013 1 
0.414 0.216 -0.012 1 
0.464 -0.136 -0.003 1 
0.425 -0.172 -0.015 1 
0.485 -0.093 -0.021 1 
0.433 -0.237 -0.016 1 
0.434 -0.266 -0.017 1 
0.35 0.193 -0.015 1 
0.344 0.026 -0.009 1 
0.409 -0.055 -0.007 1 
0.384 0.063 -0.012 1 
0.454 -0.126 -0.009 1 
0.422 -0.246 -0.018 1 
0.464 -0.1 -0.003 1 
0.361 0.156 -0.015 1 
0.411 0.172 -0.012 1 
0.353 -0.075 -0.012 1 
0.464 0.127 0.004 1 
0.383 0.203 -0.016 1 
0.417 -0.169 -0.015 1 
0.394 0.183 -0.014 1 
0.475 -0.267 0.001 1 
0.394 0.254 -0.015 1 
0.401 0.181 -0.014 1 
0.401 -0.145 -0.014 1 
0.437 0.088 -0.005 1 
0.361 0.152 -0.014 1 
0.341 0.202 -0.014 1 
0.399 0.233 -0.015 1 
0.474 -0.295 0.003 1 
0.391 -0.239 -0.025 1 
0.452 0.114 -0.006 1 
0.364 0.172 -0.015 1 
0.461 -0.268 -0.007 1 
0.414 0.181 -0.013 1 
0.454 0.274 -0.005 1 
0.41 0.044 -0.007 1 
0.424 0.263 -0.013 1 
0.434 -0.299 -0.015 1 
0.402 -0.216 -0.019 1 
0.42 0.144 -0.011 1 
0.444 -0.291 -0.015 1 
0.462 0.254 0.002 1 
0.453 -0.285 -0.011 1 
0.394 -0.178 -0.017 1 
0.411 -0.177 -0.015 1 
0.48 -0.038 0.002 1 
0.401 -0.056 -0.013 1 
0.464 -0.125 -0.003 1 
0.404 -0.131 -0.015 1 
0.375 0.134 -0.015 1 
0.391 -0.247 -0.025 1 
0.412 -0.119 -0.015 1 
0.371 0.234 -0.016 1 
0.361 -0.045 -0.011 1 
0.355 0.053 0.013 1 
0.346 -0.004 0.004 1 
0.392 0.053 -0.013 1 
0.4 0.174 -0.014 1 
0.453 -0.176 -0.009 1 
0.422 -0.187 -0.016 1 
0.358 -0.075 -0.012 1 
0.363 0.183 -0.015 1 
0.561 -0.044 0.001 1 
0.441 -0.313 -0.015 1 
0.379 0.054 -0.013 1 
0.354 0.183 -0.016 1 
0.347 -0.015 -0.003 1 
0.445 0.075 -0.014 1 
0.432 -0.256 -0.016 1 
0.444 0.083 -0.017 1 
0.372 -0.096 -0.014 1 
0.378 0.224 -0.015 1 
0.394 0.214 -0.015 1 
0.374 -0.159 -0.016 1 
0.371 0.173 -0.015 1 
0.442 -0.075 -0.015 1 
0.391 -0.105 -0.015 1 
0.362 0.053 -0.012 1 
0.392 -0.256 -0.024 1 
0.373 0.094 -0.013 1 
0.467 -0.077 -0.011 1 
0.364 0.064 -0.013 1 
0.442 0.069 0.001 1 
0.465 0.166 0.003 1 
0.402 0.083 -0.012 1 
0.466 -0.266 -0.005 1 
0.402 0.254 -0.015 1 
0.463 0.283 0.004 1 
0.401 -0.033 0 1 
0.433 -0.117 -0.011 1 
0.464 0.083 0.004 1 
0.36 0.144 -0.014 1 
0.38 0.194 -0.015 1 
0.384 0.211 -0.017 1 
0.402 -0.026 -0.009 1 
0.472 -0.255 0.004 1 
0.392 -0.086 -0.015 1 
0.396 0.039 -0.008 1 
0.379 0.24 -0.014 1 
0.363 -0.12 -0.015 1 
0.399 0.204 -0.014 1 
0.39 -0.096 -0.014 1 
0.439 0.224 -0.008 1 
0.374 0.132 -0.014 1 
0.389 -0.165 -0.017 1 
0.463 0.072 0.004 1 
0.412 0.225 -0.014 1 
0.414 -0.28 -0.022 1 
0.456 0.052 0.003 1 
0.476 -0.317 0.003 1 
0.461 -0.207 -0.006 1 
0.382 0.094 -0.012 1 
0.456 0.156 -0.005 1 
0.421 -0.126 -0.013 1 
0.463 -0.276 -0.007 1 
0.434 -0.167 -0.012 1 
0.444 0.233 -0.007 1 
0.465 -0.095 -0.005 1 
0.453 0.104 -0.006 1 
0.41 0.263 -0.015 1 
0.464 0.214 0.002 1 
0.413 -0.021 -0.008 1 
0.396 0.079 -0.002 1 
0.404 -0.12 -0.015 1 
0.363 -0.036 -0.01 1 
0.344 0.048 0.014 1 
0.374 0.2 -0.015 1 
0.439 0.183 -0.007 1 
0.391 -0.09 -0.014 1 
0.466 -0.039 0.004 1 
0.381 -0.135 -0.016 1 
0.458 0.103 -0.005 1 
0.464 -0.308 -0.006 1 
0.392 -0.135 -0.015 1 
0.36 0.212 -0.015 1 
0.374 -0.167 -0.016 1 
0.373 0.073 -0.013 1 
0.369 0.133 -0.015 1 
0.394 -0.266 -0.027 1 
0.401 0.094 -0.012 1 
0.382 -0.047 0.008 2 
0.393 -0.054 0.006 2 
0.33 -0.008 0.028 2 
0.358 -0.028 0.026 2 
0.343 -0.023 0.029 2 
0.359 -0.027 0.024 2 
0.406 -0.063 0.005 2 
0.373 -0.042 0.009 2 
0.326 -0.002 0.022 2 
0.323 -0.001 0.02 2 
0.339 -0.007 0.02 2 
0.348 -0.007 0.02 2 
0.334 -0.005 0.023 2 
0.381 -0.051 0.007 2 
0.373 -0.045 0.009 2 
0.38 -0.035 0.007 2 
0.382 -0.034 0.006 2 
0.386 -0.032 0.005 2 
0.387 -0.044 0.007 2 
0.376 -0.037 0.01 2 
0.371 -0.028 0.012 2 
0.375 0.06 0.024 2 
0.553 -0.05 0.057 2 
0.55 -0.043 0.047 2 
0.549 -0.039 0.037 2 
0.534 -0.048 0.03 2 
0.541 -0.045 0.033 2 
0.544 -0.042 0.037 2 
0.544 -0.049 0.043 2 
0.548 -0.046 0.043 2 
0.544 -0.052 0.046 2 
0.553 -0.043 0.05 2 
0.55 -0.039 0.026 2 
0.541 -0.045 0.023 2 
0.543 -0.042 0.023 2 
0.552 -0.046 0.053 2 
0.296 0.021 0.04 3 
0.301 0.023 0.053 3 
0.275 0 0.054 3 
0.274 0.013 0.054 3 
0.275 0.014 0.054 3 
0.261 0.004 0.074 3 
0.26 0.014 0.074 3 
0.274 0.016 0.054 3 
0.261 0.016 0.074 3 
0.286 -0.002 0.042 3 
0.277 0.019 0.054 3 
0.287 -0.01 0.094 3 
0.253 0.014 0.084 3 
0.254 0.016 0.084 3 
0.304 0.001 0.024 3 
0.295 -0.004 0.035 3 
0.274 0.004 0.054 3 
0.264 -0.005 0.074 3 
0.288 -0.008 0.065 3 
0.274 -0.005 0.064 3 
0.266 0.021 0.074 3 
0.269 0.004 0.064 3 
0.273 0.021 0.064 3 
0.278 0.021 0.061 3 
0.295 0.023 0.061 3 
0.265 0.014 0.064 3 
0.29 0.025 0.066 3 
0.256 0.004 0.084 3 
0.255 0.014 0.084 3 
0.257 0.019 0.084 3 
0.269 0.023 0.084 3 
0.265 -0.008 0.092 3 
0.282 0.016 0.044 3 
0.249 -0.005 0.093 3 
0.265 0.012 0.07 3 
0.268 -0.007 0.081 3 
0.285 -0.009 0.08 3 
0.313 -0.006 0.043 3 
0.286 -0.01 0.095 3 
0.296 -0.005 0.047 3 
0.248 0.004 0.092 3 
0.275 -0.008 0.08 3 
0.299 -0.009 0.029 3 
0.273 0.025 0.092 3 
0.255 0.008 0.086 3 
0.276 0.023 0.07 3 
0.255 -0.007 0.094 3 
0.275 0.014 0.056 3 
0.285 0.014 0.041 3 
0.303 0.017 0.024 3 
0.282 0.004 0.044 3 
0.282 0.013 0.044 3 
0.257 0.021 0.092 3 
0.292 -0.005 0.05 3 
0.297 -0.011 0.096 3 
0.275 0.026 0.094 3 
0.276 -0.007 0.068 3 
0.285 0.016 0.045 3 
0.287 0.019 0.044 3 
0.284 0.029 0.108 3 
0.25 0.02 0.093 3 
0.247 0.014 0.092 3 
0.297 0.014 0.027 3 
0.328 -0.019 0.021 3 
0.32 -0.017 0.023 3 
0.324 -0.008 0.022 3 
0.314 -0.004 0.024 3 
0.309 -0.015 0.027 3 
0.303 0.033 0.028 3 
0.305 -0.004 0.029 3 
0.291 0.004 0.034 3 
0.291 0.014 0.034 3 
0.293 0.018 0.033 3 
0.293 0.01 0.024 3 
0.286 0.026 0.076 3 
0.314 -0.014 0.02 3 
0.301 0.014 0.023 3 
0.316 -0.003 0.021 3 
0.265 -0.004 0.073 3 
0.255 -0.004 0.088 3 
0.298 -0.011 0.094 3 
0.267 0.024 0.092 3 
0.315 0.005 0.013 3 
0.259 -0.005 0.084 3 
0.275 -0.004 0.063 3 
0.28 -0.006 0.064 3 
0.289 -0.008 0.064 3 
0.312 -0.008 0.026 3 
0.298 0.021 0.034 3 
0.265 -0.005 0.073 3 
0.281 0.025 0.076 3 
0.295 -0.003 0.034 3 
0.589 -0.077 0.111 3 
0.477 -0.278 0.174 3 
0.483 -0.345 0.183 3 
0.478 -0.285 0.172 3 
0.472 -0.226 0.033 3 
0.477 -0.268 0.174 3 
0.476 -0.255 0.173 3 
0.471 -0.207 0.083 3 
0.468 -0.115 0.104 3 
0.468 -0.096 0.104 3 
0.476 -0.248 0.173 3 
0.475 -0.238 0.172 3 
0.477 -0.335 0.102 3 
0.467 -0.096 0.004 3 
0.467 -0.085 0.093 3 
0.466 -0.076 0.093 3 
0.478 -0.295 0.173 3 
0.465 -0.065 0.092 3 
0.466 -0.057 0.093 3 
0.594 -0.036 0.107 3 
0.468 -0.107 0.093 3 
0.478 -0.315 0.173 3 
0.472 -0.225 0.174 3 
0.498 -0.076 0.177 3 
0.477 -0.327 0.073 3 
0.483 -0.338 0.182 3 
0.467 -0.06 0.103 3 
0.468 -0.115 0.123 3 
0.467 -0.066 0.104 3 
0.467 -0.077 0.104 3 
0.468 -0.085 0.104 3 
0.468 -0.096 0.093 3 
0.472 -0.256 0.083 3 
0.475 -0.316 0.014 3 
0.468 -0.135 0.104 3 
0.471 -0.187 0.102 3 
0.471 -0.175 0.102 3 
0.471 -0.167 0.102 3 
0.47 -0.125 0.162 3 
0.478 -0.355 0.112 3 
0.471 -0.137 0.163 3 
0.481 -0.357 0.164 3 
0.477 -0.345 0.023 3 
0.472 -0.196 0.102 3 
0.471 -0.237 0.024 3 
0.469 -0.146 0.104 3 
0.468 -0.069 0.164 3 
0.469 -0.075 0.164 3 
0.469 -0.086 0.164 3 
0.469 -0.102 0.164 3 
0.469 -0.137 0.074 3 
0.471 -0.145 0.163 3 
0.472 -0.265 0.103 3 
0.469 -0.116 0.162 3 
0.479 -0.345 0.103 3 
0.479 -0.356 0.133 3 
0.477 -0.325 0.102 3 
0.477 -0.305 0.102 3 
0.475 -0.296 0.101 3 
0.475 -0.29 0.104 3 
0.474 -0.286 0.104 3 
0.473 -0.275 0.104 3 
0.478 -0.357 0.103 3 
0.472 -0.256 0.103 3 
0.473 -0.247 0.103 3 
0.469 -0.105 0.164 3 
0.473 -0.235 0.103 3 
0.473 -0.226 0.103 3 
0.468 -0.126 0.104 3 
0.472 -0.217 0.103 3 
0.472 -0.205 0.103 3 
0.47 -0.166 0.083 3 
0.475 -0.29 0.081 3 
0.57 -0.07 0.087 3 
0.476 -0.317 0.084 3 
0.475 -0.296 0.084 3 
0.474 -0.286 0.084 3 
0.473 -0.266 0.084 3 
0.471 -0.237 0.083 3 
0.472 -0.225 0.083 3 
0.472 -0.216 0.083 3 
0.47 -0.195 0.083 3 
0.47 -0.186 0.083 3 
0.469 -0.177 0.083 3 
0.478 -0.328 0.082 3 
0.469 -0.157 0.082 3 
0.469 -0.146 0.082 3 
0.469 -0.137 0.082 3 
0.467 -0.126 0.082 3 
0.467 -0.115 0.082 3 
0.467 -0.107 0.082 3 
0.467 -0.096 0.082 3 
0.467 -0.085 0.082 3 
0.466 -0.076 0.082 3 
0.466 -0.065 0.082 3 
0.466 -0.057 0.082 3 
0.583 -0.061 0.091 3 
0.477 -0.275 0.183 3 
0.479 -0.305 0.152 3 
0.468 -0.126 0.074 3 
0.467 -0.115 0.074 3 
0.468 -0.107 0.074 3 
0.467 -0.096 0.074 3 
0.467 -0.085 0.074 3 
0.572 -0.045 0.072 3 
0.468 -0.055 0.074 3 
0.574 -0.035 0.072 3 
0.474 -0.196 0.18 3 
0.475 -0.245 0.181 3 
0.476 -0.255 0.182 3 
0.476 -0.268 0.182 3 
0.585 -0.058 0.091 3 
0.478 -0.285 0.184 3 
0.472 -0.256 0.072 3 
0.571 -0.067 0.083 3 
0.574 -0.064 0.083 3 
0.58 -0.057 0.084 3 
0.582 -0.046 0.084 3 
0.584 -0.035 0.084 3 
0.474 -0.285 0.044 3 
0.468 -0.096 0.142 3 
0.477 -0.355 0.082 3 
0.478 -0.346 0.082 3 
0.478 -0.335 0.082 3 
0.589 -0.066 0.103 3 
0.478 -0.336 0.094 3 
0.478 -0.326 0.093 3 
0.477 -0.315 0.093 3 
0.477 -0.305 0.093 3 
0.475 -0.3 0.093 3 
0.474 -0.295 0.093 3 
0.474 -0.279 0.092 3 
0.472 -0.265 0.092 3 
0.472 -0.177 0.173 3 
0.472 -0.256 0.092 3 
0.472 -0.237 0.092 3 
0.584 -0.076 0.103 3 
0.584 -0.073 0.103 3 
0.478 -0.346 0.094 3 
0.594 -0.036 0.104 3 
0.473 -0.187 0.173 3 
0.473 -0.195 0.173 3 
0.472 -0.225 0.094 3 
0.472 -0.216 0.094 3 
0.472 -0.205 0.094 3 
0.471 -0.195 0.094 3 
0.47 -0.175 0.094 3 
0.47 -0.166 0.094 3 
0.47 -0.155 0.094 3 
0.472 -0.216 0.174 3 
0.468 -0.126 0.093 3 
0.471 -0.145 0.174 3 
0.587 -0.051 0.092 3 
0.583 -0.046 0.091 3 
0.588 -0.039 0.092 3 
0.47 -0.155 0.132 3 
0.469 -0.072 0.172 3 
0.469 -0.075 0.172 3 
0.469 -0.086 0.172 3 
0.471 -0.095 0.173 3 
0.471 -0.106 0.174 3 
0.575 -0.071 0.094 3 
0.596 -0.044 0.096 3 
0.47 -0.117 0.173 3 
0.471 -0.137 0.174 3 
0.468 -0.115 0.093 3 
0.478 -0.295 0.181 3 
0.479 -0.306 0.182 3 
0.479 -0.316 0.183 3 
0.47 -0.186 0.094 3 
0.482 -0.326 0.184 3 
0.479 -0.306 0.173 3 
0.471 -0.157 0.172 3 
0.592 -0.055 0.1 3 
0.588 -0.047 0.099 3 
0.469 -0.157 0.063 3 
0.58 -0.035 0.098 3 
0.475 -0.357 0.094 3 
0.481 -0.337 0.142 3 
0.476 -0.307 0.084 3 
0.469 -0.116 0.154 3 
0.469 -0.127 0.154 3 
0.47 -0.136 0.154 3 
0.474 -0.246 0.158 3 
0.479 -0.319 0.162 3 
0.481 -0.328 0.163 3 
0.481 -0.338 0.163 3 
0.48 -0.348 0.164 3 
0.468 -0.107 0.004 3 
0.474 -0.286 0.092 3 
0.481 -0.355 0.143 3 
0.482 -0.346 0.143 3 
0.469 -0.105 0.153 3 
0.481 -0.327 0.142 3 
0.475 -0.315 0.032 3 
0.469 -0.127 0.134 3 
0.468 -0.115 0.134 3 
0.467 -0.096 0.134 3 
0.467 -0.085 0.133 3 
0.466 -0.076 0.133 3 
0.467 -0.066 0.133 3 
0.47 -0.147 0.152 3 
0.47 -0.156 0.152 3 
0.471 -0.165 0.152 3 
0.471 -0.176 0.152 3 
0.472 -0.217 0.134 3 
0.469 -0.165 0.044 3 
0.48 -0.348 0.064 3 
0.475 -0.271 0.133 3 
0.474 -0.267 0.132 3 
0.474 -0.258 0.132 3 
0.469 -0.157 0.044 3 
0.466 -0.095 0.012 3 
0.469 -0.069 0.153 3 
0.468 -0.077 0.153 3 
0.468 -0.085 0.153 3 
0.473 -0.245 0.134 3 
0.473 -0.236 0.134 3 
0.473 -0.227 0.134 3 
0.471 -0.185 0.153 3 
0.593 -0.074 0.111 3 
0.472 -0.205 0.133 3 
0.471 -0.196 0.133 3 
0.471 -0.187 0.133 3 
0.469 -0.175 0.132 3 
0.47 -0.167 0.132 3 
0.47 -0.147 0.132 3 
0.47 -0.136 0.132 3 
0.471 -0.064 0.131 3 
0.469 -0.097 0.153 3 
0.472 -0.247 0.092 3 
0.47 -0.146 0.052 3 
0.468 -0.085 0.142 3 
0.478 -0.288 0.154 3 
0.473 -0.257 0.123 3 
0.47 -0.186 0.124 3 
0.481 -0.345 0.151 3 
0.471 -0.197 0.144 3 
0.47 -0.187 0.144 3 
0.47 -0.176 0.144 3 
0.47 -0.167 0.144 3 
0.47 -0.156 0.143 3 
0.47 -0.147 0.143 3 
0.469 -0.127 0.143 3 
0.468 -0.115 0.142 3 
0.467 -0.107 0.142 3 
0.472 -0.205 0.142 3 
0.47 -0.155 0.124 3 
0.474 -0.295 0.098 3 
0.468 -0.066 0.144 3 
0.467 -0.077 0.144 3 
0.474 -0.255 0.149 3 
0.474 -0.265 0.15 3 
0.479 -0.295 0.152 3 
0.479 -0.338 0.112 3 
0.478 -0.36 0.154 3 
0.481 -0.338 0.154 3 
0.479 -0.325 0.153 3 
0.478 -0.317 0.153 3 
0.474 -0.246 0.152 3 
0.472 -0.197 0.153 3 
0.471 -0.206 0.153 3 
0.472 -0.217 0.153 3 
0.474 -0.267 0.124 3 
0.473 -0.227 0.154 3 
0.473 -0.236 0.154 3 
0.467 -0.35 0.142 3 
0.48 -0.316 0.144 3 
0.479 -0.305 0.143 3 
0.479 -0.295 0.143 3 
0.469 -0.206 0.014 3 
0.478 -0.287 0.143 3 
0.475 -0.275 0.133 3 
0.475 -0.256 0.153 3 
0.475 -0.266 0.153 3 
0.475 -0.275 0.144 3 
0.474 -0.268 0.144 3 
0.475 -0.262 0.144 3 
0.577 -0.035 0.091 3 
0.474 -0.255 0.144 3 
0.474 -0.246 0.143 3 
0.473 -0.236 0.143 3 
0.477 -0.277 0.154 3 
0.473 -0.227 0.143 3 
0.472 -0.217 0.142 3 
0.471 -0.206 0.164 3 
0.469 -0.146 0.113 3 
0.471 -0.187 0.113 3 
0.468 -0.135 0.112 3 
0.468 -0.126 0.112 3 
0.468 -0.115 0.112 3 
0.469 -0.105 0.112 3 
0.469 -0.096 0.112 3 
0.598 -0.037 0.135 3 
0.47 -0.206 0.033 3 
0.472 -0.186 0.164 3 
0.469 -0.105 0.104 3 
0.472 -0.256 0.052 3 
0.466 -0.044 0.044 3 
0.469 -0.155 0.113 3 
0.469 -0.166 0.033 3 
0.474 -0.237 0.166 3 
0.48 -0.327 0.172 3 
0.469 -0.166 0.022 3 
0.481 -0.335 0.172 3 
0.481 -0.346 0.173 3 
0.482 -0.355 0.174 3 
0.474 -0.286 0.118 3 
0.466 -0.066 0.034 3 
0.467 -0.085 0.114 3 
0.467 -0.077 0.114 3 
0.468 -0.066 0.114 3 
0.474 -0.276 0.112 3 
0.479 -0.345 0.112 3 
0.474 -0.286 0.11 3 
0.471 -0.156 0.163 3 
0.478 -0.325 0.064 3 
0.473 -0.275 0.084 3 
0.471 -0.165 0.163 3 
0.472 -0.246 0.083 3 
0.477 -0.325 0.114 3 
0.477 -0.315 0.114 3 
0.477 -0.305 0.114 3 
0.477 -0.299 0.113 3 
0.475 -0.287 0.113 3 
0.468 -0.063 0.114 3 
0.474 -0.267 0.112 3 
0.473 -0.257 0.112 3 
0.473 -0.248 0.112 3 
0.564 -0.059 0.072 3 
0.471 -0.177 0.164 3 
0.473 -0.235 0.114 3 
0.472 -0.226 0.114 3 
0.472 -0.217 0.114 3 
0.472 -0.208 0.114 3 
0.471 -0.195 0.113 3 
0.471 -0.175 0.113 3 
0.47 -0.166 0.113 3 
0.478 -0.288 0.163 3 
0.477 -0.277 0.163 3 
0.474 -0.277 0.127 3 
0.469 -0.175 0.124 3 
0.469 -0.166 0.124 3 
0.47 -0.147 0.124 3 
0.469 -0.135 0.124 3 
0.468 -0.126 0.123 3 
0.468 -0.107 0.123 3 
0.468 -0.096 0.123 3 
0.467 -0.085 0.123 3 
0.467 -0.077 0.122 3 
0.468 -0.066 0.123 3 
0.466 -0.063 0.122 3 
0.476 -0.267 0.162 3 
0.478 -0.298 0.164 3 
0.479 -0.305 0.164 3 
0.482 -0.345 0.133 3 
0.481 -0.337 0.133 3 
0.473 -0.278 0.044 3 
0.48 -0.326 0.132 3 
0.48 -0.315 0.132 3 
0.479 -0.308 0.132 3 
0.475 -0.265 0.144 3 
0.478 -0.297 0.134 3 
0.476 -0.285 0.133 3 
0.475 -0.241 0.164 3 
0.472 -0.195 0.162 3 
0.472 -0.215 0.162 3 
0.474 -0.225 0.163 3 
0.469 -0.135 0.093 3 
0.474 -0.237 0.163 3 
0.477 -0.357 0.124 3 
0.479 -0.345 0.124 3 
0.48 -0.336 0.124 3 
0.479 -0.328 0.123 3 
0.478 -0.316 0.123 3 
0.478 -0.306 0.123 3 
0.476 -0.298 0.122 3 
0.472 -0.247 0.024 3 
0.475 -0.247 0.164 3 
0.475 -0.287 0.124 3 
0.474 -0.283 0.124 3 
0.475 -0.271 0.124 3 
0.473 -0.245 0.123 3 
0.473 -0.236 0.123 3 
0.472 -0.226 0.123 3 
0.471 -0.216 0.122 3 
0.471 -0.207 0.122 3 
0.471 -0.196 0.122 3 
0.465 -0.065 0.023 3 
0.475 -0.256 0.161 3 
0.464 -0.044 0.036 3 
0.507 -0.047 0.033 3 
0.578 -0.02 0.028 3 
0.479 -0.258 0.195 3 
0.478 -0.267 0.195 3 
0.479 -0.277 0.196 3 
0.479 -0.287 0.196 3 
0.481 -0.295 0.198 3 
0.48 -0.305 0.198 3 
0.474 -0.356 0.037 3 
0.464 -0.046 0.036 3 
0.557 -0.037 0.033 3 
0.571 -0.02 0.033 3 
0.483 -0.318 0.2 3 
0.471 -0.216 0.044 3 
0.474 -0.307 0.041 3 
0.474 -0.304 0.041 3 
0.484 -0.326 0.201 3 
0.473 -0.207 0.174 3 
0.475 -0.357 0.043 3 
0.479 -0.347 0.043 3 
0.478 -0.335 0.043 3 
0.477 -0.327 0.043 3 
0.476 -0.316 0.043 3 
0.466 -0.066 0.074 3 
0.469 -0.107 0.033 3 
0.468 -0.096 0.034 3 
0.467 -0.085 0.034 3 
0.465 -0.076 0.034 3 
0.464 -0.049 0.034 3 
0.465 -0.047 0.034 3 
0.464 -0.044 0.034 3 
0.466 -0.041 0.034 3 
0.578 -0.028 0.025 3 
0.478 -0.316 0.102 3 
0.476 -0.148 0.191 3 
0.476 -0.157 0.191 3 
0.475 -0.165 0.191 3 
0.475 -0.305 0.044 3 
0.474 -0.17 0.19 3 
0.475 -0.177 0.191 3 
0.476 -0.186 0.192 3 
0.476 -0.195 0.192 3 
0.475 -0.206 0.192 3 
0.471 -0.125 0.174 3 
0.477 -0.217 0.193 3 
0.478 -0.227 0.194 3 
0.477 -0.235 0.194 3 
0.477 -0.248 0.194 3 
0.475 -0.357 0.034 3 
0.478 -0.346 0.034 3 
0.478 -0.335 0.034 3 
0.466 -0.076 0.074 3 
0.468 -0.107 0.134 3 
0.476 -0.074 0.186 3 
0.466 -0.125 0.012 3 
0.475 -0.079 0.186 3 
0.465 -0.055 0.034 3 
0.474 -0.161 0.187 3 
0.474 -0.176 0.188 3 
0.474 -0.188 0.188 3 
0.474 -0.197 0.188 3 
0.465 -0.065 0.044 3 
0.474 -0.205 0.188 3 
0.466 -0.047 0.044 3 
0.478 -0.257 0.192 3 
0.475 -0.278 0.124 3 
0.477 -0.266 0.192 3 
0.474 -0.355 0.046 3 
0.561 -0.037 0.044 3 
0.565 -0.03 0.044 3 
0.577 -0.028 0.043 3 
0.574 -0.024 0.043 3 
0.474 -0.298 0.049 3 
0.468 -0.044 0.05 3 
0.47 -0.177 0.033 3 
0.469 -0.135 0.044 3 
0.475 -0.295 0.044 3 
0.472 -0.265 0.044 3 
0.473 -0.287 0.012 3 
0.472 -0.256 0.044 3 
0.56 -0.033 0.033 3 
0.472 -0.247 0.044 3 
0.472 -0.237 0.044 3 
0.472 -0.225 0.044 3 
0.471 -0.207 0.044 3 
0.47 -0.195 0.044 3 
0.47 -0.186 0.044 3 
0.469 -0.177 0.044 3 
0.469 -0.146 0.044 3 
0.467 -0.126 0.004 3 
0.469 -0.126 0.044 3 
0.469 -0.115 0.044 3 
0.468 -0.107 0.044 3 
0.468 -0.096 0.044 3 
0.466 -0.087 0.044 3 
0.466 -0.076 0.044 3 
0.564 -0.03 0.04 3 
0.485 -0.338 0.202 3 
0.484 -0.34 0.202 3 
0.465 -0.055 0.044 3 
0.483 -0.347 0.202 3 
0.47 -0.146 0.093 3 
0.474 -0.295 0.012 3 
0.486 -0.041 0.018 3 
0.468 -0.157 0.014 3 
0.467 -0.151 0.014 3 
0.469 -0.155 0.104 3 
0.474 -0.353 0.014 3 
0.477 -0.345 0.014 3 
0.476 -0.337 0.014 3 
0.476 -0.327 0.014 3 
0.475 -0.312 0.014 3 
0.475 -0.296 0.023 3 
0.474 -0.356 0.017 3 
0.474 -0.352 0.017 3 
0.474 -0.295 0.018 3 
0.464 -0.065 0.02 3 
0.468 -0.165 0.014 3 
0.469 -0.206 0.022 3 
0.469 -0.197 0.022 3 
0.469 -0.186 0.022 3 
0.469 -0.177 0.022 3 
0.469 -0.157 0.022 3 
0.468 -0.145 0.023 3 
0.467 -0.137 0.023 3 
0.467 -0.126 0.023 3 
0.467 -0.115 0.023 3 
0.467 -0.106 0.023 3 
0.467 -0.095 0.023 3 
0.467 -0.087 0.023 3 
0.465 -0.06 0.023 3 
0.464 -0.065 0.013 3 
0.464 -0.081 0 3 
0.467 -0.137 0.004 3 
0.468 -0.115 0.004 3 
0.466 -0.087 0.004 3 
0.466 -0.066 0.004 3 
0.465 -0.044 0.01 3 
0.466 -0.136 0.012 3 
0.466 -0.117 0.012 3 
0.466 -0.106 0.012 3 
0.466 -0.087 0.012 3 
0.465 -0.079 0.012 3 
0.464 -0.076 0.013 3 
0.465 -0.068 0.012 3 
0.464 -0.055 0.023 3 
0.465 -0.057 0.012 3 
0.463 -0.046 0.013 3 
0.474 -0.305 0.012 3 
0.472 -0.277 0.013 3 
0.472 -0.265 0.013 3 
0.472 -0.255 0.013 3 
0.471 -0.246 0.013 3 
0.471 -0.237 0.013 3 
0.471 -0.228 0.013 3 
0.469 -0.215 0.014 3 
0.469 -0.197 0.014 3 
0.468 -0.185 0.014 3 
0.467 -0.176 0.014 3 
0.473 -0.278 0.032 3 
0.56 -0.037 0.023 3 
0.57 -0.034 0.022 3 
0.581 -0.032 0.021 3 
0.587 -0.024 0.02 3 
0.473 -0.126 0.189 3 
0.474 -0.135 0.189 3 
0.474 -0.356 0.031 3 
0.476 -0.326 0.032 3 
0.475 -0.305 0.032 3 
0.475 -0.295 0.032 3 
0.475 -0.289 0.032 3 
0.474 -0.285 0.032 3 
0.472 -0.265 0.033 3 
0.472 -0.256 0.033 3 
0.472 -0.247 0.033 3 
0.472 -0.235 0.033 3 
0.471 -0.216 0.033 3 
0.47 -0.195 0.033 3 
0.47 -0.186 0.033 3 
0.47 -0.158 0.033 3 
0.469 -0.146 0.033 3 
0.469 -0.135 0.033 3 
0.468 -0.126 0.033 3 
0.475 -0.142 0.19 3 
0.469 -0.115 0.033 3 
0.473 -0.278 0.024 3 
0.464 -0.049 0.023 3 
0.465 -0.047 0.023 3 
0.464 -0.044 0.023 3 
0.465 -0.041 0.023 3 
0.465 -0.076 0.004 3 
0.56 -0.04 0.054 3 
0.475 -0.357 0.023 3 
0.477 -0.338 0.023 3 
0.476 -0.327 0.023 3 
0.475 -0.315 0.023 3 
0.475 -0.305 0.023 3 
0.475 -0.292 0.023 3 
0.474 -0.285 0.024 3 
0.47 -0.155 0.074 3 
0.473 -0.265 0.024 3 
0.472 -0.256 0.024 3 
0.471 -0.225 0.024 3 
0.471 -0.222 0.024 3 
0.502 -0.08 0.2 3 
0.473 -0.076 0.188 3 
0.474 -0.356 0.014 3 
0.472 -0.087 0.188 3 
0.472 -0.095 0.188 3 
0.472 -0.106 0.188 3 
0.473 -0.115 0.189 3 
0.569 -0.03 0.072 3 
0.471 -0.072 0.181 3 
0.581 -0.024 0.058 3 
0.477 -0.275 0.192 3 
0.472 -0.076 0.182 3 
0.464 -0.055 0.012 3 
0.474 -0.295 0.061 3 
0.567 -0.055 0.072 3 
0.555 -0.057 0.061 3 
0.576 -0.038 0.072 3 
0.559 -0.065 0.072 3 
0.466 -0.076 0.063 3 
0.467 -0.085 0.063 3 
0.467 -0.096 0.063 3 
0.467 -0.107 0.063 3 
0.468 -0.115 0.063 3 
0.478 -0.346 0.052 3 
0.559 -0.047 0.061 3 
0.563 -0.041 0.061 3 
0.466 -0.076 0.052 3 
0.466 -0.055 0.063 3 
0.472 -0.265 0.072 3 
0.466 -0.066 0.063 3 
0.471 -0.106 0.182 3 
0.474 -0.217 0.183 3 
0.569 -0.031 0.054 3 
0.466 -0.076 0.023 3 
0.576 -0.027 0.054 3 
0.567 -0.038 0.061 3 
0.585 -0.024 0.054 3 
0.468 -0.052 0.066 3 
0.471 -0.165 0.172 3 
0.469 -0.135 0.143 3 
0.554 -0.06 0.068 3 
0.564 -0.051 0.068 3 
0.474 -0.226 0.183 3 
0.474 -0.236 0.184 3 
0.469 -0.146 0.063 3 
0.471 -0.225 0.064 3 
0.471 -0.216 0.064 3 
0.47 -0.206 0.064 3 
0.468 -0.126 0.063 3 
0.469 -0.135 0.063 3 
0.475 -0.296 0.072 3 
0.476 -0.307 0.073 3 
0.477 -0.317 0.073 3 
0.478 -0.335 0.073 3 
0.475 -0.293 0.072 3 
0.469 -0.165 0.063 3 
0.475 -0.292 0.041 3 
0.469 -0.177 0.063 3 
0.472 -0.095 0.182 3 
0.479 -0.347 0.073 3 
0.477 -0.355 0.073 3 
0.47 -0.195 0.063 3 
0.471 -0.187 0.063 3 
0.475 -0.296 0.064 3 
0.571 -0.027 0.061 3 
0.475 -0.239 0.184 3 
0.478 -0.356 0.064 3 
0.478 -0.335 0.064 3 
0.473 -0.275 0.072 3 
0.477 -0.317 0.064 3 
0.571 -0.027 0.033 3 
0.477 -0.307 0.064 3 
0.471 -0.086 0.182 3 
0.475 -0.206 0.183 3 
0.473 -0.285 0.064 3 
0.472 -0.277 0.064 3 
0.474 -0.286 0.072 3 
0.566 -0.037 0.054 3 
0.472 -0.265 0.064 3 
0.472 -0.256 0.064 3 
0.472 -0.246 0.064 3 
0.472 -0.237 0.064 3 
0.483 -0.328 0.194 3 
0.47 -0.135 0.052 3 
0.47 -0.195 0.072 3 
0.472 -0.246 0.052 3 
0.475 -0.194 0.183 3 
0.463 -0.038 0.013 3 
0.468 -0.126 0.052 3 
0.472 -0.265 0.052 3 
0.468 -0.115 0.052 3 
0.469 -0.157 0.052 3 
0.485 -0.327 0.195 3 
0.48 -0.315 0.192 3 
0.468 -0.107 0.052 3 
0.479 -0.307 0.191 3 
0.473 -0.167 0.184 3 
0.467 -0.096 0.052 3 
0.474 -0.155 0.184 3 
0.471 -0.216 0.052 3 
0.474 -0.185 0.182 3 
0.561 -0.065 0.075 3 
0.574 -0.042 0.076 3 
0.473 -0.175 0.181 3 
0.471 -0.225 0.052 3 
0.565 -0.03 0.076 3 
0.474 -0.208 0.183 3 
0.472 -0.237 0.052 3 
0.472 -0.277 0.052 3 
0.483 -0.346 0.192 3 
0.471 -0.207 0.052 3 
0.47 -0.195 0.052 3 
0.47 -0.186 0.052 3 
0.469 -0.177 0.052 3 
0.464 -0.057 0.031 3 
0.469 -0.165 0.052 3 
0.475 -0.357 0.052 3 
0.469 -0.177 0.074 3 
0.583 -0.024 0.05 3 
0.473 -0.238 0.072 3 
0.47 -0.166 0.074 3 
0.478 -0.325 0.052 3 
0.479 -0.336 0.052 3 
0.469 -0.146 0.074 3 
0.587 -0.032 0.017 3 
0.472 -0.137 0.183 3 
0.48 -0.298 0.194 3 
0.479 -0.287 0.193 3 
0.472 -0.126 0.183 3 
0.472 -0.117 0.183 3 
0.564 -0.044 0.065 3 
0.472 -0.246 0.072 3 
0.466 -0.049 0.063 3 
0.471 -0.216 0.072 3 
0.471 -0.207 0.072 3 
0.467 -0.085 0.052 3 
0.466 -0.066 0.052 3 
0.466 -0.055 0.052 3 
0.467 -0.047 0.052 3 
0.473 -0.285 0.052 3 
0.475 -0.295 0.052 3 
0.501 -0.049 0.052 3 
0.483 -0.335 0.192 3 
0.476 -0.306 0.052 3 
0.477 -0.317 0.052 3 
0.475 -0.197 0.183 3 
0.47 -0.186 0.074 3 
0.473 -0.146 0.184 3 
0.472 -0.225 0.072 3 
0.466 0.341 0.153 3 
0.469 0.182 0.189 3 
0.471 0.123 0.188 3 
0.469 0.133 0.187 3 
0.469 0.142 0.187 3 
0.463 0.339 0.062 3 
0.463 0.283 0.093 3 
0.469 0.154 0.188 3 
0.469 0.162 0.188 3 
0.468 0.173 0.188 3 
0.471 0.114 0.188 3 
0.466 0.345 0.156 3 
0.467 0.113 0.172 3 
0.466 0.311 0.154 3 
0.465 0.303 0.154 3 
0.465 0.293 0.153 3 
0.465 0.284 0.153 3 
0.467 0.283 0.174 3 
0.469 0.102 0.187 3 
0.464 0.081 0.16 3 
0.47 0.094 0.187 3 
0.468 0.083 0.186 3 
0.462 0.072 0.124 3 
0.465 0.142 0.144 3 
0.471 0.344 0.197 3 
0.471 0.333 0.196 3 
0.469 0.302 0.181 3 
0.467 0.088 0.174 3 
0.467 0.08 0.174 3 
0.465 0.117 0.144 3 
0.464 0.122 0.144 3 
0.465 0.133 0.144 3 
0.463 0.143 0.084 3 
0.465 0.153 0.144 3 
0.465 0.161 0.144 3 
0.465 0.293 0.142 3 
0.464 0.341 0.179 3 
0.465 0.235 0.174 3 
0.465 0.229 0.174 3 
0.472 0.323 0.196 3 
0.466 0.224 0.174 3 
0.465 0.084 0.144 3 
0.473 0.357 0.199 3 
0.464 0.094 0.052 3 
0.464 0.105 0.111 3 
0.465 0.166 0.049 3 
0.467 0.349 0.184 3 
0.47 0.334 0.183 3 
0.464 0.073 0.143 3 
0.463 0.162 0.063 3 
0.471 0.311 0.194 3 
0.465 0.092 0.144 3 
0.465 0.103 0.144 3 
0.465 0.114 0.144 3 
0.47 0.323 0.183 3 
0.468 0.314 0.182 3 
0.464 0.294 0.094 3 
0.472 0.352 0.198 3 
0.467 0.172 0.173 3 
0.464 0.274 0.032 3 
0.467 0.184 0.174 3 
0.468 0.333 0.153 3 
0.464 0.222 0.154 3 
0.468 0.347 0.154 3 
0.468 0.202 0.189 3 
0.461 0.241 0.013 3 
0.469 0.194 0.189 3 
0.466 0.192 0.173 3 
0.467 0.164 0.173 3 
0.467 0.143 0.172 3 
0.467 0.132 0.172 3 
0.464 0.282 0.133 3 
0.467 0.124 0.172 3 
0.464 0.187 0.15 3 
0.465 0.25 0.152 3 
0.464 0.252 0.152 3 
0.468 0.244 0.19 3 
0.471 0.301 0.194 3 
0.464 0.183 0.114 3 
0.471 0.291 0.193 3 
0.47 0.284 0.193 3 
0.47 0.274 0.192 3 
0.467 0.262 0.19 3 
0.468 0.254 0.191 3 
0.464 0.183 0.093 3 
0.465 0.262 0.152 3 
0.469 0.233 0.19 3 
0.469 0.224 0.19 3 
0.468 0.214 0.189 3 
0.467 0.213 0.174 3 
0.467 0.204 0.174 3 
0.464 0.252 0.143 3 
0.467 0.322 0.152 3 
0.465 0.144 0.133 3 
0.468 0.334 0.174 3 
0.468 0.324 0.173 3 
0.466 0.312 0.172 3 
0.45 0.07 0.16 3 
0.467 0.253 0.184 3 
0.467 0.256 0.184 3 
0.467 0.152 0.173 3 
0.473 0.357 0.192 3 
0.467 0.243 0.184 3 
0.464 0.102 0.084 3 
0.466 0.168 0.164 3 
0.466 0.162 0.164 3 
0.466 0.154 0.164 3 
0.466 0.143 0.164 3 
0.467 0.124 0.164 3 
0.467 0.112 0.164 3 
0.471 0.351 0.194 3 
0.465 0.341 0.173 3 
0.467 0.347 0.174 3 
0.467 0.234 0.184 3 
0.468 0.223 0.184 3 
0.465 0.122 0.122 3 
0.464 0.083 0.074 3 
0.467 0.213 0.183 3 
0.464 0.212 0.12 3 
0.462 0.313 0.014 3 
0.467 0.201 0.183 3 
0.467 0.193 0.182 3 
0.468 0.182 0.182 3 
0.468 0.173 0.182 3 
0.465 0.344 0.164 3 
0.468 0.164 0.182 3 
0.465 0.194 0.162 3 
0.465 0.105 0.041 3 
0.464 0.294 0.108 3 
0.464 0.283 0.023 3 
0.466 0.082 0.163 3 
0.466 0.093 0.163 3 
0.466 0.104 0.163 3 
0.466 0.269 0.164 3 
0.466 0.263 0.164 3 
0.465 0.274 0.153 3 
0.465 0.253 0.164 3 
0.465 0.244 0.163 3 
0.465 0.232 0.163 3 
0.465 0.223 0.163 3 
0.465 0.214 0.162 3 
0.465 0.202 0.162 3 
0.464 0.34 0.164 3 
0.465 0.182 0.162 3 
0.458 0.072 0.158 3 
0.465 0.312 0.134 3 
0.469 0.083 0.184 3 
0.469 0.094 0.184 3 
0.469 0.102 0.184 3 
0.47 0.114 0.184 3 
0.47 0.122 0.184 3 
0.469 0.133 0.184 3 
0.468 0.144 0.184 3 
0.464 0.204 0.142 3 
0.467 0.15 0.184 3 
0.472 0.322 0.192 3 
0.471 0.333 0.193 3 
0.471 0.344 0.194 3 
0.466 0.134 0.153 3 
0.464 0.24 0.154 3 
0.464 0.234 0.154 3 
0.465 0.214 0.154 3 
0.464 0.207 0.154 3 
0.464 0.274 0.063 3 
0.464 0.202 0.153 3 
0.465 0.199 0.154 3 
0.465 0.194 0.154 3 
0.464 0.184 0.153 3 
0.466 0.179 0.153 3 
0.465 0.173 0.153 3 
0.465 0.162 0.153 3 
0.465 0.153 0.153 3 
0.465 0.142 0.152 3 
0.465 0.124 0.06 3 
0.464 0.255 0.155 3 
0.465 0.123 0.152 3 
0.465 0.114 0.152 3 
0.466 0.104 0.152 3 
0.466 0.093 0.152 3 
0.462 0.213 0.014 3 
0.465 0.102 0.044 3 
0.465 0.144 0.122 3 
0.464 0.174 0.033 3 
0.463 0.202 0.033 3 
0.467 0.104 0.172 3 
0.466 0.134 0.164 3 
0.47 0.29 0.184 3 
0.464 0.252 0.054 3 
0.468 0.282 0.183 3 
0.467 0.271 0.182 3 
0.464 0.258 0.063 3 
0.467 0.333 0.164 3 
0.463 0.333 0.123 3 
0.467 0.322 0.164 3 
0.466 0.314 0.163 3 
0.463 0.322 0.054 3 
0.464 0.302 0.162 3 
0.465 0.3 0.162 3 
0.464 0.293 0.162 3 
0.465 0.291 0.162 3 
0.465 0.262 0.063 3 
0.465 0.284 0.162 3 
0.464 0.246 0.16 3 
0.464 0.243 0.16 3 
0.464 0.234 0.16 3 
0.464 0.304 0.114 3 
0.464 0.244 0.093 3 
0.465 0.079 0.154 3 
0.466 0.343 0.183 3 
0.464 0.094 0.103 3 
0.464 0.214 0.112 3 
0.464 0.076 0.154 3 
0.467 0.252 0.173 3 
0.462 0.073 0.153 3 
0.462 0.337 0.054 3 
0.467 0.264 0.173 3 
0.463 0.337 0.137 3 
0.467 0.274 0.174 3 
0.467 0.293 0.174 3 
0.464 0.302 0.142 3 
0.467 0.296 0.174 3 
0.464 0.242 0.104 3 
0.464 0.194 0.063 3 
0.464 0.163 0.033 3 
0.46 0.063 0.063 3 
0.464 0.072 0.063 3 
0.465 0.081 0.063 3 
0.464 0.083 0.063 3 
0.464 0.094 0.063 3 
0.464 0.102 0.063 3 
0.464 0.113 0.063 3 
0.464 0.124 0.063 3 
0.465 0.133 0.063 3 
0.464 0.141 0.063 3 
0.465 0.144 0.063 3 
0.463 0.173 0.063 3 
0.464 0.182 0.063 3 
0.463 0.213 0.024 3 
0.464 0.202 0.063 3 
0.464 0.214 0.063 3 
0.465 0.221 0.063 3 
0.464 0.223 0.063 3 
0.464 0.232 0.063 3 
0.463 0.243 0.063 3 
0.463 0.252 0.063 3 
0.463 0.283 0.062 3 
0.463 0.293 0.062 3 
0.464 0.323 0.062 3 
0.463 0.332 0.062 3 
0.465 0.212 0.065 3 
0.465 0.224 0.065 3 
0.464 0.174 0.052 3 
0.462 0.338 0.042 3 
0.465 0.073 0.049 3 
0.465 0.097 0.049 3 
0.465 0.163 0.049 3 
0.464 0.072 0.052 3 
0.464 0.078 0.052 3 
0.465 0.083 0.052 3 
0.465 0.091 0.052 3 
0.464 0.102 0.052 3 
0.464 0.113 0.052 3 
0.464 0.124 0.052 3 
0.465 0.133 0.052 3 
0.465 0.144 0.052 3 
0.464 0.163 0.052 3 
0.465 0.203 0.068 3 
0.463 0.193 0.054 3 
0.464 0.202 0.054 3 
0.464 0.214 0.054 3 
0.464 0.223 0.054 3 
0.464 0.232 0.054 3 
0.464 0.262 0.054 3 
0.464 0.274 0.054 3 
0.464 0.283 0.054 3 
0.463 0.293 0.054 3 
0.463 0.302 0.054 3 
0.465 0.086 0.057 3 
0.464 0.154 0.052 3 
0.464 0.243 0.054 3 
0.463 0.274 0.082 3 
0.464 0.294 0.074 3 
0.464 0.303 0.074 3 
0.463 0.312 0.074 3 
0.464 0.323 0.074 3 
0.462 0.334 0.074 3 
0.463 0.339 0.074 3 
0.463 0.312 0.062 3 
0.448 0.061 0.075 3 
0.462 0.142 0.014 3 
0.464 0.154 0.063 3 
0.463 0.234 0.082 3 
0.463 0.243 0.082 3 
0.464 0.253 0.082 3 
0.463 0.262 0.082 3 
0.464 0.284 0.074 3 
0.464 0.284 0.082 3 
0.464 0.303 0.082 3 
0.464 0.313 0.082 3 
0.462 0.338 0.082 3 
0.464 0.303 0.062 3 
0.463 0.072 0.084 3 
0.463 0.083 0.084 3 
0.464 0.094 0.084 3 
0.464 0.113 0.084 3 
0.465 0.119 0.084 3 
0.464 0.124 0.084 3 
0.464 0.13 0.084 3 
0.465 0.133 0.084 3 
0.464 0.143 0.073 3 
0.465 0.124 0.049 3 
0.46 0.063 0.071 3 
0.464 0.124 0.071 3 
0.464 0.13 0.071 3 
0.453 0.062 0.073 3 
0.462 0.072 0.073 3 
0.464 0.094 0.073 3 
0.464 0.102 0.073 3 
0.464 0.11 0.073 3 
0.465 0.114 0.074 3 
0.465 0.122 0.074 3 
0.465 0.133 0.074 3 
0.465 0.138 0.074 3 
0.461 0.333 0.042 3 
0.464 0.154 0.073 3 
0.464 0.163 0.073 3 
0.464 0.174 0.074 3 
0.463 0.182 0.073 3 
0.464 0.194 0.074 3 
0.464 0.203 0.074 3 
0.464 0.214 0.074 3 
0.464 0.223 0.074 3 
0.464 0.232 0.074 3 
0.464 0.243 0.074 3 
0.464 0.252 0.074 3 
0.463 0.264 0.074 3 
0.463 0.274 0.074 3 
0.464 0.274 0.023 3 
0.464 0.113 0.023 3 
0.464 0.124 0.023 3 
0.462 0.131 0.023 3 
0.463 0.143 0.022 3 
0.463 0.154 0.022 3 
0.463 0.162 0.022 3 
0.463 0.174 0.022 3 
0.462 0.184 0.022 3 
0.462 0.338 0.02 3 
0.463 0.202 0.024 3 
0.463 0.234 0.024 3 
0.463 0.243 0.024 3 
0.462 0.254 0.024 3 
0.463 0.264 0.024 3 
0.464 0.102 0.023 3 
0.464 0.293 0.023 3 
0.463 0.301 0.023 3 
0.463 0.314 0.023 3 
0.462 0.324 0.023 3 
0.461 0.333 0.023 3 
0.465 0.341 0.022 3 
0.464 0.107 0.028 3 
0.464 0.097 0.031 3 
0.465 0.116 0.031 3 
0.463 0.123 0.012 3 
0.46 0.053 0.034 3 
0.463 0.064 0.034 3 
0.464 0.072 0.034 3 
0.461 0.232 0.013 3 
0.462 0.074 0.012 3 
0.462 0.083 0.012 3 
0.463 0.094 0.012 3 
0.462 0.104 0.012 3 
0.462 0.112 0.012 3 
0.462 0.134 0.014 3 
0.462 0.154 0.014 3 
0.462 0.162 0.014 3 
0.462 0.173 0.014 3 
0.461 0.184 0.014 3 
0.462 0.193 0.014 3 
0.462 0.204 0.014 3 
0.461 0.224 0.013 3 
0.464 0.083 0.033 3 
0.461 0.253 0.013 3 
0.462 0.263 0.013 3 
0.462 0.282 0.012 3 
0.462 0.294 0.012 3 
0.462 0.304 0.012 3 
0.463 0.324 0.014 3 
0.461 0.333 0.014 3 
0.462 0.338 0.014 3 
0.462 0.053 0.023 3 
0.463 0.064 0.023 3 
0.464 0.072 0.023 3 
0.464 0.083 0.023 3 
0.464 0.094 0.023 3 
0.463 0.193 0.044 3 
0.464 0.072 0.044 3 
0.464 0.08 0.044 3 
0.465 0.083 0.044 3 
0.465 0.094 0.044 3 
0.464 0.113 0.044 3 
0.464 0.121 0.044 3 
0.465 0.124 0.044 3 
0.465 0.133 0.044 3 
0.465 0.138 0.044 3 
0.464 0.143 0.044 3 
0.464 0.154 0.044 3 
0.464 0.163 0.044 3 
0.464 0.174 0.044 3 
0.463 0.182 0.044 3 
0.463 0.064 0.044 3 
0.463 0.202 0.044 3 
0.464 0.214 0.043 3 
0.464 0.223 0.043 3 
0.463 0.243 0.043 3 
0.463 0.252 0.043 3 
0.463 0.222 0.024 3 
0.463 0.264 0.043 3 
0.463 0.273 0.043 3 
0.463 0.282 0.043 3 
0.463 0.292 0.043 3 
0.462 0.304 0.043 3 
0.463 0.312 0.043 3 
0.462 0.324 0.043 3 
0.463 0.261 0.032 3 
0.464 0.091 0.033 3 
0.465 0.102 0.033 3 
0.465 0.113 0.033 3 
0.464 0.124 0.033 3 
0.464 0.132 0.033 3 
0.464 0.143 0.033 3 
0.464 0.154 0.033 3 
0.464 0.183 0.033 3 
0.463 0.193 0.033 3 
0.464 0.214 0.032 3 
0.464 0.232 0.032 3 
0.463 0.243 0.032 3 
0.463 0.252 0.032 3 
0.465 0.136 0.084 3 
0.464 0.283 0.034 3 
0.463 0.292 0.034 3 
0.463 0.304 0.034 3 
0.462 0.314 0.034 3 
0.462 0.324 0.034 3 
0.461 0.333 0.034 3 
0.462 0.338 0.034 3 
0.464 0.091 0.039 3 
0.464 0.132 0.038 3 
0.464 0.223 0.032 3 
0.457 0.052 0.042 3 
0.465 0.149 0.041 3 
0.457 0.052 0.045 3 
0.465 0.302 0.131 3 
0.465 0.212 0.123 3 
0.463 0.223 0.123 3 
0.463 0.232 0.123 3 
0.463 0.244 0.123 3 
0.463 0.262 0.124 3 
0.463 0.272 0.124 3 
0.464 0.282 0.124 3 
0.464 0.285 0.124 3 
0.467 0.345 0.127 3 
0.464 0.084 0.124 3 
0.464 0.114 0.125 3 
0.464 0.133 0.125 3 
0.465 0.207 0.126 3 
0.464 0.122 0.127 3 
0.465 0.204 0.123 3 
0.465 0.343 0.132 3 
0.464 0.172 0.131 3 
0.464 0.178 0.131 3 
0.464 0.186 0.131 3 
0.463 0.253 0.132 3 
0.465 0.094 0.033 3 
0.463 0.263 0.132 3 
0.463 0.272 0.132 3 
0.465 0.289 0.133 3 
0.464 0.292 0.133 3 
0.464 0.301 0.133 3 
0.464 0.308 0.134 3 
0.465 0.342 0.123 3 
0.465 0.092 0.122 3 
0.464 0.1 0.116 3 
0.464 0.2 0.117 3 
0.465 0.283 0.119 3 
0.464 0.122 0.119 3 
0.464 0.135 0.119 3 
0.465 0.292 0.122 3 
0.465 0.302 0.122 3 
0.465 0.312 0.122 3 
0.465 0.315 0.123 3 
0.464 0.324 0.123 3 
0.465 0.332 0.123 3 
0.464 0.338 0.123 3 
0.464 0.086 0.122 3 
0.465 0.322 0.134 3 
0.465 0.103 0.122 3 
0.465 0.114 0.122 3 
0.464 0.13 0.122 3 
0.465 0.133 0.122 3 
0.463 0.182 0.054 3 
0.464 0.149 0.122 3 
0.465 0.153 0.122 3 
0.464 0.16 0.122 3 
0.465 0.164 0.123 3 
0.464 0.172 0.122 3 
0.464 0.183 0.123 3 
0.464 0.194 0.123 3 
0.463 0.154 0.092 3 
0.467 0.345 0.144 3 
0.464 0.086 0.135 3 
0.464 0.172 0.136 3 
0.464 0.175 0.136 3 
0.464 0.264 0.138 3 
0.464 0.308 0.139 3 
0.463 0.334 0.14 3 
0.465 0.144 0.114 3 
0.464 0.158 0.139 3 
0.466 0.284 0.142 3 
0.465 0.299 0.142 3 
0.465 0.312 0.143 3 
0.466 0.324 0.143 3 
0.466 0.334 0.144 3 
0.466 0.341 0.144 3 
0.461 0.072 0.134 3 
0.464 0.076 0.141 3 
0.465 0.173 0.142 3 
0.465 0.184 0.142 3 
0.465 0.19 0.142 3 
0.464 0.193 0.142 3 
0.465 0.202 0.143 3 
0.464 0.213 0.143 3 
0.464 0.222 0.143 3 
0.464 0.234 0.143 3 
0.464 0.243 0.143 3 
0.465 0.249 0.144 3 
0.465 0.262 0.144 3 
0.465 0.147 0.063 3 
0.465 0.158 0.133 3 
0.464 0.324 0.134 3 
0.465 0.329 0.134 3 
0.462 0.332 0.134 3 
0.463 0.34 0.134 3 
0.464 0.084 0.133 3 
0.464 0.086 0.133 3 
0.465 0.092 0.133 3 
0.465 0.103 0.133 3 
0.465 0.114 0.133 3 
0.465 0.122 0.133 3 
0.465 0.133 0.133 3 
0.464 0.147 0.133 3 
0.465 0.153 0.133 3 
0.464 0.297 0.116 3 
0.464 0.163 0.133 3 
0.465 0.172 0.134 3 
0.465 0.184 0.134 3 
0.465 0.192 0.134 3 
0.465 0.195 0.134 3 
0.463 0.203 0.134 3 
0.463 0.212 0.134 3 
0.463 0.224 0.134 3 
0.463 0.233 0.134 3 
0.464 0.254 0.124 3 
0.463 0.239 0.134 3 
0.464 0.27 0.135 3 
0.464 0.203 0.093 3 
0.464 0.304 0.102 3 
0.463 0.262 0.093 3 
0.463 0.274 0.093 3 
0.464 0.214 0.093 3 
0.464 0.303 0.094 3 
0.464 0.313 0.094 3 
0.464 0.323 0.094 3 
0.463 0.332 0.094 3 
0.464 0.34 0.094 3 
0.465 0.172 0.101 3 
0.465 0.215 0.101 3 
0.465 0.236 0.101 3 
0.461 0.33 0.082 3 
0.464 0.284 0.102 3 
0.464 0.294 0.102 3 
0.463 0.253 0.093 3 
0.464 0.313 0.102 3 
0.464 0.323 0.102 3 
0.462 0.331 0.102 3 
0.463 0.339 0.103 3 
0.465 0.269 0.063 3 
0.463 0.234 0.043 3 
0.462 0.072 0.103 3 
0.463 0.083 0.103 3 
0.464 0.102 0.103 3 
0.464 0.113 0.103 3 
0.464 0.119 0.103 3 
0.465 0.122 0.103 3 
0.464 0.127 0.103 3 
0.463 0.072 0.092 3 
0.463 0.154 0.084 3 
0.463 0.162 0.084 3 
0.462 0.334 0.054 3 
0.464 0.174 0.084 3 
0.464 0.183 0.084 3 
0.464 0.194 0.084 3 
0.464 0.203 0.084 3 
0.463 0.213 0.084 3 
0.463 0.216 0.084 3 
0.463 0.312 0.054 3 
0.465 0.178 0.09 3 
0.465 0.311 0.091 3 
0.463 0.193 0.022 3 
0.465 0.133 0.103 3 
0.463 0.083 0.092 3 
0.464 0.094 0.092 3 
0.464 0.102 0.092 3 
0.464 0.113 0.092 3 
0.464 0.124 0.092 3 
0.464 0.132 0.092 3 
0.463 0.143 0.092 3 
0.464 0.163 0.092 3 
0.463 0.064 0.052 3 
0.464 0.174 0.093 3 
0.464 0.194 0.093 3 
0.464 0.223 0.093 3 
0.464 0.232 0.093 3 
0.464 0.084 0.114 3 
0.463 0.253 0.112 3 
0.463 0.262 0.113 3 
0.464 0.272 0.113 3 
0.464 0.278 0.113 3 
0.465 0.283 0.113 3 
0.465 0.292 0.113 3 
0.465 0.302 0.114 3 
0.464 0.307 0.114 3 
0.465 0.311 0.114 3 
0.465 0.321 0.114 3 
0.465 0.331 0.114 3 
0.463 0.333 0.114 3 
0.463 0.34 0.114 3 
0.463 0.073 0.113 3 
0.463 0.244 0.112 3 
0.464 0.094 0.114 3 
0.464 0.1 0.114 3 
0.465 0.103 0.114 3 
0.465 0.114 0.114 3 
0.464 0.294 0.082 3 
0.465 0.117 0.114 3 
0.464 0.122 0.114 3 
0.465 0.133 0.114 3 
0.464 0.141 0.114 3 
0.464 0.152 0.114 3 
0.464 0.163 0.114 3 
0.464 0.174 0.114 3 
0.464 0.194 0.114 3 
0.464 0.323 0.082 3 
0.465 0.139 0.103 3 
0.464 0.144 0.103 3 
0.464 0.152 0.103 3 
0.464 0.163 0.103 3 
0.464 0.174 0.103 3 
0.464 0.183 0.103 3 
0.464 0.194 0.104 3 
0.464 0.203 0.104 3 
0.465 0.212 0.104 3 
0.464 0.214 0.104 3 
0.464 0.223 0.104 3 
0.462 0.272 0.013 3 
0.464 0.232 0.104 3 
0.465 0.271 0.144 3 
0.464 0.254 0.104 3 
0.463 0.262 0.104 3 
0.463 0.271 0.104 3 
0.464 0.127 0.106 3 
0.465 0.169 0.106 3 
0.465 0.175 0.106 3 
0.464 0.324 0.111 3 
0.464 0.2 0.112 3 
0.465 0.147 0.112 3 
0.465 0.204 0.112 3 
0.465 0.212 0.112 3 
0.464 0.223 0.112 3 
0.463 0.232 0.112 3 
0.316 0.038 0.024 7 
0.318 0.024 0.021 7 
0.327 0.039 0.02 7 
0.321 0.026 0.024 7 
0.311 0.035 0.025 7 
0.313 0.025 0.024 7 
0.335 0.032 0.021 7 
0.335 0.044 0.019 7 
0.314 0.024 0.023 7 
0.307 0.025 0.026 7 
0.307 0.023 0.027 7 
0.333 0.034 0.021 7 
0.311 0.013 0.014 7 
