# .PCD v0.7 - Point Cloud Data file
FIELDS x y z intensity
SIZE 4 4 4 4
TYPE F F F F
COUNT 1 1 1 1
WIDTH 2480
HEIGHT 1
VIEWPOINT 0 0 0 1 0 0 0
POINTS 2480
DATA ascii
0.299 0.002 0.022 0 
0.301 -0.005 0.021 0 
0.374 -0.238 -0.026 1 
0.363 -0.137 -0.017 1 
0.362 -0.125 -0.017 1 
0.358 -0.09 -0.014 1 
0.359 -0.085 -0.015 1 
0.36 -0.058 -0.015 1 
0.359 -0.044 -0.014 1 
0.363 -0.026 -0.016 1 
0.358 0.022 -0.014 1 
0.359 0.024 -0.015 1 
0.359 0.033 -0.015 1 
0.358 0.054 -0.014 1 
0.351 0.114 -0.013 1 
0.352 0.123 -0.014 1 
0.351 0.132 -0.014 1 
0.354 0.136 -0.015 1 
0.354 0.153 -0.016 1 
0.35 0.161 -0.015 1 
0.377 -0.247 -0.025 1 
0.372 -0.147 -0.019 1 
0.365 -0.06 -0.015 1 
0.364 -0.056 -0.014 1 
0.364 0.041 -0.015 1 
0.363 0.043 -0.014 1 
0.364 0.054 -0.015 1 
0.362 0.073 -0.014 1 
0.362 0.075 -0.015 1 
0.36 0.083 -0.014 1 
0.361 0.09 -0.014 1 
0.362 0.093 -0.015 1 
0.361 0.103 -0.015 1 
0.359 0.122 -0.015 1 
0.354 0.169 -0.015 1 
0.352 0.173 -0.014 1 
0.352 0.181 -0.015 1 
0.355 0.194 -0.016 1 
0.38 -0.235 -0.023 1 
0.383 -0.231 -0.024 1 
0.386 -0.231 -0.025 1 
0.374 -0.195 -0.02 1 
0.374 -0.186 -0.019 1 
0.374 -0.182 -0.019 1 
0.373 -0.136 -0.017 1 
0.374 -0.134 -0.017 1 
0.374 -0.116 -0.017 1 
0.374 -0.112 -0.017 1 
0.371 -0.096 -0.016 1 
0.371 -0.086 -0.015 1 
0.374 -0.076 -0.016 1 
0.374 -0.046 -0.016 1 
0.374 -0.036 -0.016 1 
0.374 -0.033 -0.016 1 
0.373 0.013 -0.016 1 
0.373 0.024 -0.016 1 
0.37 0.053 -0.015 1 
0.369 0.104 -0.016 1 
0.362 0.115 -0.014 1 
0.364 0.129 -0.015 1 
0.364 0.153 -0.015 1 
0.357 0.174 -0.014 1 
0.381 -0.249 -0.024 1 
0.356 0.179 -0.014 1 
0.354 0.212 -0.015 1 
0.353 0.216 -0.015 1 
0.38 -0.165 -0.018 1 
0.382 -0.156 -0.019 1 
0.381 -0.126 -0.018 1 
0.38 -0.116 -0.017 1 
0.382 -0.105 -0.018 1 
0.374 -0.066 -0.014 1 
0.382 -0.03 -0.017 1 
0.373 0.073 -0.015 1 
0.372 0.082 -0.014 1 
0.372 0.084 -0.015 1 
0.369 0.113 -0.014 1 
0.373 0.123 -0.016 1 
0.37 0.133 -0.015 1 
0.369 0.163 -0.016 1 
0.394 -0.263 -0.025 1 
0.394 -0.247 -0.024 1 
0.397 -0.24 -0.025 1 
0.384 -0.213 -0.02 1 
0.383 -0.095 -0.016 1 
0.384 -0.091 -0.016 1 
0.384 -0.075 -0.016 1 
0.38 -0.068 -0.014 1 
0.378 -0.062 -0.014 1 
0.384 -0.056 -0.016 1 
0.382 -0.045 -0.015 1 
0.384 -0.038 -0.016 1 
0.444 -0.034 -0.036 1 
0.384 0.014 -0.016 1 
0.384 0.024 -0.016 1 
0.382 0.043 -0.015 1 
0.381 0.054 -0.015 1 
0.38 0.074 -0.015 1 
0.38 0.083 -0.015 1 
0.382 0.104 -0.016 1 
0.374 0.138 -0.015 1 
0.372 0.144 -0.014 1 
0.372 0.183 -0.016 1 
0.374 0.193 -0.017 1 
0.363 0.222 -0.015 1 
0.363 0.227 -0.015 1 
0.393 -0.205 -0.02 1 
0.391 -0.165 -0.018 1 
0.393 -0.125 -0.018 1 
0.393 -0.116 -0.017 1 
0.374 -0.221 -0.025 1 
0.392 -0.105 -0.017 1 
0.394 -0.085 -0.017 1 
0.391 -0.076 -0.016 1 
0.394 -0.034 -0.017 1 
0.451 -0.034 -0.036 1 
0.391 0.024 -0.016 1 
0.384 0.113 -0.015 1 
0.383 0.123 -0.015 1 
0.38 0.138 -0.015 1 
0.377 0.144 -0.014 1 
0.383 0.163 -0.016 1 
0.374 0.222 -0.016 1 
0.403 -0.265 -0.023 1 
0.403 -0.257 -0.023 1 
0.384 -0.215 -0.021 1 
0.398 -0.226 -0.02 1 
0.394 -0.216 -0.018 1 
0.398 -0.205 -0.019 1 
0.394 -0.156 -0.016 1 
0.393 -0.066 -0.015 1 
0.394 -0.056 -0.015 1 
0.393 -0.046 -0.015 1 
0.464 -0.039 -0.037 1 
0.453 -0.035 -0.034 1 
0.301 -0.005 0.014 1 
0.301 0.002 0.014 1 
0.384 0.006 -0.012 1 
0.394 0.033 -0.015 1 
0.393 0.053 -0.015 1 
0.393 0.063 -0.015 1 
0.393 0.074 -0.015 1 
0.393 0.082 -0.015 1 
0.391 0.094 -0.015 1 
0.391 0.104 -0.015 1 
0.389 0.124 -0.015 1 
0.387 0.146 -0.015 1 
0.384 0.155 -0.014 1 
0.415 -0.29 -0.025 1 
0.413 -0.285 -0.025 1 
0.413 -0.265 -0.023 1 
0.409 -0.255 -0.022 1 
0.411 -0.246 -0.022 1 
0.413 -0.238 -0.022 1 
0.404 -0.215 -0.019 1 
0.403 -0.195 -0.018 1 
0.403 -0.185 -0.018 1 
0.402 -0.145 -0.017 1 
0.401 -0.136 -0.016 1 
0.402 -0.105 -0.016 1 
0.4 -0.075 -0.015 1 
0.399 -0.07 -0.015 1 
0.398 -0.066 -0.014 1 
0.401 -0.056 -0.015 1 
0.402 -0.045 -0.015 1 
0.404 -0.035 -0.016 1 
0.303 -0.015 0.014 1 
0.363 0.071 -0.015 1 
0.402 0.023 -0.016 1 
0.397 0.113 -0.015 1 
0.394 0.129 -0.015 1 
0.393 0.144 -0.015 1 
0.391 0.153 -0.014 1 
0.39 0.155 -0.014 1 
0.393 0.163 -0.015 1 
0.389 0.184 -0.015 1 
0.384 0.24 -0.016 1 
0.384 0.248 -0.016 1 
0.421 -0.297 -0.025 1 
0.412 -0.226 -0.019 1 
0.407 -0.105 -0.015 1 
0.408 -0.095 -0.015 1 
0.408 -0.075 -0.015 1 
0.406 -0.066 -0.014 1 
0.403 0.017 -0.014 1 
0.406 0.041 -0.015 1 
0.404 0.051 -0.014 1 
0.389 -0.197 -0.018 1 
0.405 0.062 -0.015 1 
0.405 0.071 -0.015 1 
0.404 0.073 -0.014 1 
0.405 0.086 -0.015 1 
0.404 0.093 -0.015 1 
0.404 0.104 -0.015 1 
0.403 0.123 -0.015 1 
0.401 0.129 -0.015 1 
0.352 0.204 -0.016 1 
0.4 0.144 -0.015 1 
0.399 0.154 -0.015 1 
0.396 0.173 -0.015 1 
0.393 0.194 -0.014 1 
0.392 0.202 -0.014 1 
0.392 0.205 -0.014 1 
0.393 0.222 -0.015 1 
0.392 0.239 -0.016 1 
0.424 -0.3 -0.023 1 
0.421 -0.285 -0.022 1 
0.424 -0.265 -0.022 1 
0.414 -0.216 -0.017 1 
0.413 -0.195 -0.017 1 
0.41 -0.186 -0.015 1 
0.414 -0.167 -0.016 1 
0.347 0.192 -0.015 1 
0.414 -0.136 -0.015 1 
0.392 -0.245 -0.025 1 
0.414 -0.12 -0.015 1 
0.414 -0.088 -0.015 1 
0.416 -0.075 -0.015 1 
0.415 -0.07 -0.015 1 
0.414 -0.066 -0.015 1 
0.414 -0.052 -0.015 1 
0.412 0.024 -0.014 1 
0.412 0.053 -0.014 1 
0.41 0.073 -0.014 1 
0.41 0.093 -0.014 1 
0.41 0.104 -0.015 1 
0.41 0.113 -0.015 1 
0.404 0.141 -0.014 1 
0.407 0.152 -0.015 1 
0.402 0.163 -0.013 1 
0.401 0.172 -0.014 1 
0.402 0.18 -0.014 1 
0.403 0.183 -0.015 1 
0.402 0.192 -0.015 1 
0.401 0.193 -0.014 1 
0.401 0.222 -0.015 1 
0.403 0.234 -0.016 1 
0.395 0.239 -0.014 1 
0.396 0.243 -0.015 1 
0.424 -0.256 -0.019 1 
0.423 -0.236 -0.018 1 
0.422 -0.227 -0.017 1 
0.422 -0.195 -0.017 1 
0.419 -0.165 -0.015 1 
0.418 -0.162 -0.015 1 
0.418 -0.138 -0.014 1 
0.42 -0.113 -0.015 1 
0.37 0.214 -0.017 1 
0.419 -0.106 -0.014 1 
0.42 -0.097 -0.014 1 
0.421 -0.095 -0.015 1 
0.421 -0.088 -0.015 1 
0.421 -0.077 -0.014 1 
0.42 -0.065 -0.014 1 
0.419 -0.055 -0.014 1 
0.42 -0.047 -0.014 1 
0.383 -0.185 -0.018 1 
0.389 -0.146 -0.017 1 
0.421 -0.042 -0.014 1 
0.385 0.006 -0.004 1 
0.411 0.134 -0.013 1 
0.408 0.141 -0.012 1 
0.415 0.153 -0.015 1 
0.414 0.154 -0.014 1 
0.41 0.164 -0.014 1 
0.408 0.209 -0.015 1 
0.404 0.21 -0.014 1 
0.363 0.005 -0.014 1 
0.404 -0.237 -0.022 1 
0.408 0.224 -0.015 1 
0.403 0.263 -0.015 1 
0.4 0.268 -0.015 1 
0.431 -0.29 -0.019 1 
0.424 -0.217 -0.015 1 
0.427 -0.186 -0.015 1 
0.427 -0.176 -0.015 1 
0.424 -0.156 -0.014 1 
0.424 -0.146 -0.014 1 
0.424 -0.115 -0.013 1 
0.426 -0.041 -0.013 1 
0.46 -0.035 -0.023 1 
0.307 -0.016 0.018 1 
0.363 -0.036 -0.016 1 
0.398 0.006 -0.006 1 
0.424 0.021 -0.013 1 
0.417 -0.176 -0.015 1 
0.424 0.044 -0.013 1 
0.424 0.051 -0.013 1 
0.423 0.062 -0.013 1 
0.421 0.074 -0.013 1 
0.422 0.092 -0.013 1 
0.421 0.104 -0.013 1 
0.421 0.123 -0.013 1 
0.414 0.194 -0.013 1 
0.4 0.063 -0.015 1 
0.414 0.214 -0.014 1 
0.416 0.226 -0.015 1 
0.414 0.232 -0.015 1 
0.412 0.24 -0.014 1 
0.413 0.244 -0.015 1 
0.411 0.25 -0.015 1 
0.41 0.252 -0.014 1 
0.409 0.264 -0.015 1 
0.408 0.272 -0.015 1 
0.428 0.3 -0.021 1 
0.434 -0.305 -0.018 1 
0.433 -0.28 -0.017 1 
0.434 -0.249 -0.016 1 
0.431 -0.227 -0.015 1 
0.429 -0.216 -0.014 1 
0.431 -0.209 -0.015 1 
0.431 -0.207 -0.014 1 
0.381 -0.067 -0.015 1 
0.431 -0.196 -0.014 1 
0.433 -0.195 -0.015 1 
0.432 -0.187 -0.014 1 
0.432 -0.176 -0.014 1 
0.433 -0.137 -0.014 1 
0.433 -0.127 -0.014 1 
0.432 -0.116 -0.013 1 
0.431 -0.106 -0.013 1 
0.43 -0.096 -0.012 1 
0.43 -0.086 -0.012 1 
0.432 -0.075 -0.013 1 
0.433 -0.066 -0.013 1 
0.433 -0.056 -0.013 1 
0.351 0.178 -0.014 1 
0.434 -0.047 -0.013 1 
0.481 -0.046 -0.026 1 
0.477 -0.038 -0.025 1 
0.432 0.014 -0.013 1 
0.43 0.043 -0.012 1 
0.429 0.054 -0.012 1 
0.424 0.153 -0.012 1 
0.424 0.163 -0.013 1 
0.42 0.173 -0.012 1 
0.42 0.254 -0.015 1 
0.416 0.28 -0.015 1 
0.414 0.284 -0.014 1 
0.444 -0.297 -0.018 1 
0.438 -0.276 -0.015 1 
0.433 -0.265 -0.014 1 
0.434 -0.263 -0.014 1 
0.437 -0.255 -0.015 1 
0.441 -0.236 -0.015 1 
0.44 -0.187 -0.014 1 
0.434 -0.155 -0.012 1 
0.434 -0.15 -0.012 1 
0.404 0.056 -0.014 1 
0.443 -0.043 -0.013 1 
0.479 -0.046 -0.022 1 
0.322 -0.016 0.017 1 
0.323 -0.008 0.017 1 
0.331 0.003 0.015 1 
0.434 0.063 -0.011 1 
0.434 0.07 -0.011 1 
0.434 0.08 -0.011 1 
0.414 -0.057 -0.015 1 
0.434 0.094 -0.012 1 
0.434 0.124 -0.012 1 
0.43 0.142 -0.011 1 
0.428 0.153 -0.011 1 
0.424 0.184 -0.011 1 
0.424 0.186 -0.011 1 
0.421 0.204 -0.011 1 
0.42 0.211 -0.011 1 
0.423 0.224 -0.012 1 
0.422 0.234 -0.012 1 
0.423 0.243 -0.012 1 
0.423 0.251 -0.013 1 
0.424 0.272 -0.014 1 
0.423 0.282 -0.014 1 
0.446 -0.296 -0.015 1 
0.447 -0.291 -0.015 1 
0.38 0.133 -0.014 1 
0.446 -0.278 -0.015 1 
0.44 -0.266 -0.013 1 
0.438 -0.255 -0.012 1 
0.41 0.102 -0.014 1 
0.441 -0.236 -0.012 1 
0.441 -0.225 -0.012 1 
0.442 -0.215 -0.012 1 
0.444 -0.203 -0.013 1 
0.444 -0.176 -0.012 1 
0.442 -0.167 -0.011 1 
0.442 -0.157 -0.011 1 
0.442 -0.146 -0.011 1 
0.443 -0.126 -0.011 1 
0.441 -0.115 -0.01 1 
0.443 -0.106 -0.011 1 
0.444 -0.101 -0.011 1 
0.421 0.083 -0.013 1 
0.443 -0.086 -0.011 1 
0.443 -0.076 -0.011 1 
0.444 -0.066 -0.011 1 
0.444 -0.063 -0.011 1 
0.489 -0.045 -0.022 1 
0.331 -0.015 0.016 1 
0.406 0.024 -0.015 1 
0.339 0.003 0.014 1 
0.443 0.032 -0.011 1 
0.441 0.042 -0.01 1 
0.442 0.062 -0.011 1 
0.439 0.074 -0.01 1 
0.44 0.084 -0.011 1 
0.434 0.162 -0.011 1 
0.431 0.173 -0.01 1 
0.429 0.182 -0.01 1 
0.43 0.19 -0.01 1 
0.43 0.203 -0.01 1 
0.428 0.223 -0.011 1 
0.429 0.262 -0.012 1 
0.421 0.292 -0.011 1 
0.452 -0.319 -0.015 1 
0.452 -0.296 -0.014 1 
0.443 -0.246 -0.011 1 
0.449 -0.145 -0.01 1 
0.449 -0.137 -0.01 1 
0.45 -0.106 -0.01 1 
0.453 -0.097 -0.011 1 
0.443 -0.205 -0.012 1 
0.451 -0.085 -0.01 1 
0.45 -0.075 -0.01 1 
0.45 -0.065 -0.01 1 
0.453 -0.055 -0.01 1 
0.476 -0.037 -0.016 1 
0.334 -0.013 0.017 1 
0.352 -0.006 0.013 1 
0.443 0.113 -0.009 1 
0.444 0.123 -0.009 1 
0.443 0.133 -0.009 1 
0.448 0.043 -0.01 1 
0.442 0.143 -0.009 1 
0.441 0.164 -0.01 1 
0.433 0.233 -0.009 1 
0.434 0.25 -0.01 1 
0.432 0.274 -0.011 1 
0.432 0.283 -0.011 1 
0.428 0.3 -0.011 1 
0.407 0.268 -0.014 1 
0.454 -0.317 -0.012 1 
0.452 -0.287 -0.011 1 
0.45 -0.276 -0.01 1 
0.424 0.134 -0.012 1 
0.452 -0.265 -0.01 1 
0.451 -0.259 -0.01 1 
0.452 -0.245 -0.01 1 
0.452 -0.239 -0.01 1 
0.454 -0.229 -0.01 1 
0.454 -0.216 -0.01 1 
0.454 -0.205 -0.01 1 
0.454 -0.196 -0.01 1 
0.454 -0.185 -0.009 1 
0.454 -0.158 -0.009 1 
0.454 -0.126 -0.009 1 
0.454 -0.12 -0.009 1 
0.463 -0.041 -0.01 1 
0.389 0.006 -0.007 1 
0.42 -0.135 -0.015 1 
0.388 -0.005 0.006 1 
0.392 -0.225 -0.022 1 
0.391 0.002 0.005 1 
0.454 0.031 -0.008 1 
0.454 0.054 -0.009 1 
0.452 0.064 -0.008 1 
0.451 0.074 -0.008 1 
0.452 0.093 -0.008 1 
0.45 0.102 -0.008 1 
0.443 0.173 -0.008 1 
0.41 0.193 -0.015 1 
0.441 0.182 -0.008 1 
0.443 0.202 -0.008 1 
0.485 -0.044 -0.027 1 
0.44 0.244 -0.009 1 
0.437 0.282 -0.009 1 
0.433 0.305 -0.009 1 
0.461 -0.335 -0.012 1 
0.464 -0.299 -0.011 1 
0.453 0.133 -0.007 1 
0.452 0.153 -0.007 1 
0.451 0.164 -0.007 1 
0.443 0.273 -0.008 1 
0.444 0.292 -0.009 1 
0.442 0.299 -0.008 1 
0.383 0.183 -0.015 1 
0.464 -0.315 -0.009 1 
0.463 -0.257 -0.007 1 
0.462 -0.216 -0.006 1 
0.463 -0.197 -0.006 1 
0.463 -0.177 -0.006 1 
0.464 -0.158 -0.006 1 
0.465 -0.147 -0.006 1 
0.462 -0.135 -0.005 1 
0.464 -0.116 -0.005 1 
0.465 -0.09 -0.005 1 
0.464 -0.076 -0.005 1 
0.384 -0.237 -0.025 1 
0.464 -0.055 -0.005 1 
0.464 0.003 -0.005 1 
0.462 0.024 -0.005 1 
0.462 0.043 -0.005 1 
0.46 0.061 -0.005 1 
0.459 0.074 -0.005 1 
0.46 0.093 -0.005 1 
0.458 0.113 -0.005 1 
0.457 0.124 -0.005 1 
0.455 0.169 -0.005 1 
0.455 0.177 -0.005 1 
0.394 0.233 -0.016 1 
0.454 0.182 -0.005 1 
0.454 0.193 -0.005 1 
0.453 0.204 -0.005 1 
0.454 0.213 -0.006 1 
0.453 0.224 -0.006 1 
0.451 0.234 -0.006 1 
0.449 0.243 -0.005 1 
0.45 0.253 -0.006 1 
0.45 0.262 -0.006 1 
0.411 -0.038 -0.016 1 
0.444 0.314 -0.007 1 
0.457 0.134 -0.005 1 
0.469 -0.287 -0.006 1 
0.467 -0.276 -0.005 1 
0.468 -0.255 -0.005 1 
0.47 -0.245 -0.005 1 
0.469 -0.235 -0.005 1 
0.467 -0.228 -0.005 1 
0.464 -0.136 -0.003 1 
0.464 -0.036 -0.003 1 
0.464 0.014 -0.003 1 
0.463 0.024 -0.002 1 
0.454 0.233 -0.004 1 
0.453 0.241 -0.003 1 
0.453 0.253 -0.004 1 
0.454 0.262 -0.004 1 
0.453 0.274 -0.004 1 
0.454 0.284 -0.005 1 
0.452 0.294 -0.005 1 
0.451 0.302 -0.005 1 
0.449 0.313 -0.005 1 
0.447 0.317 -0.005 1 
0.473 -0.345 -0.006 1 
0.473 -0.335 -0.005 1 
0.432 0.133 -0.012 1 
0.444 0.262 -0.008 1 
0.472 -0.327 -0.005 1 
0.364 -0.076 -0.015 1 
0.473 -0.317 -0.005 1 
0.454 -0.053 -0.011 1 
0.473 -0.314 -0.005 1 
0.464 -0.025 0 1 
0.464 0.027 0 1 
0.453 0.301 -0.002 1 
0.453 0.311 -0.003 1 
0.45 0.324 -0.003 1 
0.474 -0.339 -0.003 1 
0.474 -0.325 -0.002 1 
0.382 0.151 -0.014 1 
0.474 -0.315 -0.002 1 
0.474 -0.305 -0.002 1 
0.473 -0.298 -0.001 1 
0.474 -0.286 0.001 1 
0.475 -0.237 0.001 1 
0.473 -0.215 0.002 1 
0.471 -0.205 0.002 1 
0.472 -0.196 0.002 1 
0.472 -0.185 0.002 1 
0.47 -0.175 0.003 1 
0.471 -0.167 0.003 1 
0.472 -0.156 0.003 1 
0.47 -0.147 0.003 1 
0.374 -0.206 -0.022 1 
0.424 0.11 -0.012 1 
0.469 -0.135 0.003 1 
0.468 -0.096 0.004 1 
0.468 -0.085 0.004 1 
0.468 -0.077 0.004 1 
0.413 -0.126 -0.015 1 
0.41 0.127 -0.015 1 
0.464 0.094 0.004 1 
0.464 0.113 0.004 1 
0.464 0.124 0.004 1 
0.463 0.151 0.003 1 
0.464 0.171 0.003 1 
0.467 0.182 0.002 1 
0.464 0.183 0.003 1 
0.465 0.189 0.002 1 
0.463 0.194 0.003 1 
0.464 0.203 0.002 1 
0.462 0.222 0.002 1 
0.462 0.233 0.002 1 
0.474 -0.349 0.002 1 
0.355 0.104 -0.014 1 
0.478 -0.336 0.002 1 
0.42 -0.085 -0.014 1 
0.477 -0.325 0.002 1 
0.476 -0.307 0.003 1 
0.476 -0.297 0.003 1 
0.352 0.002 0.013 1 
0.475 -0.286 0.003 1 
0.475 -0.28 0.003 1 
0.474 -0.276 0.004 1 
0.474 -0.266 0.004 1 
0.473 -0.233 0.004 1 
0.466 -0.047 -0.005 1 
0.461 0.272 0.004 1 
0.464 0.293 0.003 1 
0.463 0.302 0.003 1 
0.463 0.311 0.003 1 
0.463 0.315 0.003 1 
0.394 0.012 -0.015 1 
0.464 0.329 0.002 1 
0.465 0.334 0.002 1 
0.371 0.146 -0.014 1 
0.465 0.337 0.002 1 
0.468 0.345 0.004 1 
0.46 0.053 -0.005 1 
0.432 0.292 -0.011 1 
0.462 0.032 -0.005 1 
0.403 -0.155 -0.017 1 
0.463 -0.007 -0.005 1 
0.464 -0.025 -0.005 1 
0.464 -0.049 -0.005 1 
0.464 -0.065 -0.005 1 
0.41 0.2 -0.013 1 
0.384 -0.145 -0.017 1 
0.464 -0.087 -0.005 1 
0.477 -0.346 0.002 1 
0.394 0.043 -0.015 1 
0.37 0.235 -0.016 1 
0.463 -0.127 -0.005 1 
0.464 -0.152 -0.006 1 
0.465 0.102 0.004 1 
0.414 0.264 -0.013 1 
0.463 -0.165 -0.006 1 
0.462 -0.185 -0.006 1 
0.462 -0.225 -0.006 1 
0.454 -0.314 -0.012 1 
0.46 -0.246 -0.009 1 
0.44 0.253 -0.009 1 
0.461 -0.286 -0.01 1 
0.463 -0.327 -0.012 1 
0.466 -0.036 -0.006 1 
0.439 0.104 -0.011 1 
0.444 -0.276 -0.012 1 
0.409 0.108 -0.014 1 
0.372 0.111 -0.015 1 
0.391 0.174 -0.015 1 
0.436 -0.271 -0.015 1 
0.443 -0.319 -0.018 1 
0.404 0.132 -0.013 1 
0.404 -0.087 -0.016 1 
0.452 0.143 -0.006 1 
0.439 -0.245 -0.015 1 
0.47 -0.127 0.003 1 
0.456 0.142 -0.005 1 
0.389 0.256 -0.016 1 
0.364 0.055 -0.015 1 
0.473 -0.247 0.004 1 
0.363 0.114 -0.014 1 
0.363 -0.065 -0.016 1 
0.302 -0.015 0.017 1 
0.453 0.122 -0.006 1 
0.463 0.243 0.002 1 
0.441 0.153 -0.009 1 
0.44 -0.229 -0.015 1 
0.354 0.164 -0.014 1 
0.41 0.064 -0.014 1 
0.363 0.144 -0.015 1 
0.42 -0.206 -0.016 1 
0.448 -0.305 -0.016 1 
0.444 0.209 -0.009 1 
0.362 0.134 -0.014 1 
0.373 -0.216 -0.024 1 
0.443 -0.046 -0.013 1 
0.463 0.083 0.004 1 
0.37 -0.065 -0.015 1 
0.358 0.204 -0.016 1 
0.442 0.052 -0.011 1 
0.42 -0.275 -0.021 1 
0.395 0.014 -0.015 1 
0.434 0.114 -0.012 1 
0.476 -0.256 0.001 1 
0.422 -0.04 -0.015 1 
0.384 0.091 -0.015 1 
0.409 0.276 -0.015 1 
0.457 0.153 -0.005 1 
0.393 0.201 -0.015 1 
0.475 -0.246 0.001 1 
0.465 -0.033 -0.008 1 
0.392 0.139 -0.014 1 
0.453 0.013 -0.008 1 
0.475 -0.234 0.001 1 
0.337 0.001 0.015 1 
0.463 0.043 -0.003 1 
0.374 0.152 -0.015 1 
0.379 0.232 -0.016 1 
0.396 -0.247 -0.025 1 
0.465 0.324 0.002 1 
0.395 -0.256 -0.025 1 
0.473 -0.236 0.004 1 
0.414 0.222 -0.014 1 
0.426 -0.165 -0.015 1 
0.389 -0.096 -0.016 1 
0.43 -0.237 -0.017 1 
0.373 0.094 -0.015 1 
0.433 -0.265 -0.016 1 
0.401 -0.274 -0.025 1 
0.413 -0.061 -0.014 1 
0.411 -0.146 -0.015 1 
0.401 -0.165 -0.017 1 
0.423 -0.247 -0.018 1 
0.41 0.124 -0.015 1 
0.442 0.013 -0.011 1 
0.469 -0.297 -0.006 1 
0.43 -0.219 -0.015 1 
0.383 0.203 -0.016 1 
0.383 0.194 -0.016 1 
0.465 0.263 -0.004 1 
0.416 -0.046 -0.015 1 
0.374 0.064 -0.015 1 
0.475 -0.274 0.001 1 
0.361 0.164 -0.015 1 
0.414 0.174 -0.013 1 
0.392 0.254 -0.017 1 
0.463 -0.015 -0.005 1 
0.359 0.167 -0.015 1 
0.34 -0.01 0.015 1 
0.465 0.108 0.004 1 
0.423 0.014 -0.013 1 
0.39 0.112 -0.015 1 
0.463 0.143 0.004 1 
0.363 -0.105 -0.017 1 
0.463 0.102 0 1 
0.407 0.033 -0.015 1 
0.474 -0.04 -0.035 1 
0.44 0.094 -0.011 1 
0.392 -0.238 -0.025 1 
0.453 0.114 -0.006 1 
0.462 -0.265 -0.007 1 
0.398 0.052 -0.015 1 
0.46 0.082 -0.005 1 
0.383 0.033 -0.016 1 
0.414 0.181 -0.013 1 
0.394 -0.044 -0.015 1 
0.411 0.044 -0.014 1 
0.399 0.074 -0.015 1 
0.424 0.263 -0.013 1 
0.423 0.143 -0.012 1 
0.463 0.249 0.004 1 
0.432 -0.297 -0.02 1 
0.471 -0.034 -0.015 1 
0.444 -0.285 -0.015 1 
0.402 -0.177 -0.017 1 
0.444 0.023 -0.011 1 
0.399 0.044 -0.015 1 
0.447 0.271 -0.006 1 
0.39 -0.175 -0.018 1 
0.411 -0.177 -0.015 1 
0.399 -0.062 -0.014 1 
0.411 -0.155 -0.015 1 
0.417 0.123 -0.015 1 
0.464 -0.106 -0.005 1 
0.404 0.084 -0.015 1 
0.432 0.024 -0.013 1 
0.373 0.034 -0.016 1 
0.411 0.007 -0.007 1 
0.464 -0.007 -0.003 1 
0.36 -0.096 -0.015 1 
0.384 -0.181 -0.018 1 
0.462 0.263 0.004 1 
0.465 -0.155 -0.006 1 
0.38 -0.225 -0.025 1 
0.403 -0.095 -0.016 1 
0.442 -0.136 -0.011 1 
0.399 -0.126 -0.015 1 
0.381 0.132 -0.015 1 
0.374 -0.057 -0.014 1 
0.463 0.162 0.003 1 
0.374 0.234 -0.017 1 
0.364 -0.047 -0.014 1 
0.453 -0.176 -0.009 1 
0.434 0.102 -0.012 1 
0.42 -0.188 -0.016 1 
0.414 -0.206 -0.017 1 
0.392 0.134 -0.014 1 
0.431 0.033 -0.013 1 
0.358 0.183 -0.015 1 
0.462 0.014 -0.005 1 
0.375 -0.22 -0.025 1 
0.443 -0.306 -0.018 1 
0.382 0.224 -0.017 1 
0.417 0.273 -0.015 1 
0.452 0.082 -0.008 1 
0.434 -0.255 -0.016 1 
0.372 -0.157 -0.019 1 
0.379 -0.195 -0.019 1 
0.394 0.214 -0.015 1 
0.42 -0.125 -0.015 1 
0.358 0.055 -0.014 1 
0.374 0.174 -0.016 1 
0.366 0.087 -0.014 1 
0.465 -0.144 -0.006 1 
0.443 0.194 -0.008 1 
0.409 0.083 -0.014 1 
0.465 -0.265 -0.005 1 
0.403 0.247 -0.015 1 
0.463 0.283 0.004 1 
0.38 0.212 -0.015 1 
0.417 0.034 -0.013 1 
0.472 -0.255 0.004 1 
0.394 -0.185 -0.017 1 
0.411 0.033 -0.014 1 
0.36 -0.116 -0.016 1 
0.404 0.198 -0.013 1 
0.42 -0.116 -0.015 1 
0.37 0.044 -0.015 1 
0.464 -0.097 -0.005 1 
0.428 0.212 -0.01 1 
0.442 0.224 -0.009 1 
0.38 0.064 -0.015 1 
0.416 -0.282 -0.025 1 
0.42 0.288 -0.016 1 
0.463 -0.015 -0.002 1 
0.453 -0.037 -0.036 1 
0.414 -0.277 -0.024 1 
0.411 0.232 -0.014 1 
0.458 -0.035 -0.025 1 
0.431 -0.165 -0.014 1 
0.454 0.023 -0.008 1 
0.463 0.053 -0.003 1 
0.476 -0.317 0.003 1 
0.462 -0.207 -0.006 1 
0.4 0.034 -0.015 1 
0.452 -0.165 -0.009 1 
0.454 0.171 -0.005 1 
0.4 -0.034 -0.017 1 
0.382 0.174 -0.017 1 
0.455 0.164 -0.005 1 
0.464 -0.283 -0.008 1 
0.411 0.184 -0.015 1 
0.444 0.233 -0.007 1 
0.465 -0.095 -0.005 1 
0.463 0.214 0.002 1 
0.43 0.238 -0.009 1 
0.401 -0.116 -0.016 1 
0.388 0.194 -0.015 1 
0.451 -0.328 -0.015 1 
0.464 -0.237 -0.007 1 
0.403 -0.246 -0.022 1 
0.486 -0.041 -0.021 1 
0.384 -0.141 -0.017 1 
0.472 -0.04 -0.031 1 
0.464 -0.312 -0.009 1 
0.372 0.204 -0.017 1 
0.361 0.213 -0.016 1 
0.459 0.103 -0.005 1 
0.393 -0.136 -0.018 1 
0.374 -0.171 -0.019 1 
0.372 0.071 -0.014 1 
0.405 0.054 -0.015 1 
0.464 0.243 0.143 3 
0.468 -0.015 0.144 3 
0.468 -0.025 0.144 3 
0.475 -0.19 0.148 3 
0.475 -0.201 0.148 3 
0.479 -0.295 0.152 3 
0.48 -0.306 0.153 3 
0.483 -0.316 0.154 3 
0.482 -0.325 0.154 3 
0.481 -0.338 0.154 3 
0.466 0.272 0.144 3 
0.465 0.152 0.063 3 
0.464 0.261 0.144 3 
0.466 0.162 0.142 3 
0.465 0.24 0.143 3 
0.465 0.234 0.143 3 
0.465 0.222 0.143 3 
0.464 0.183 0.033 3 
0.465 0.214 0.143 3 
0.466 0.203 0.143 3 
0.466 0.194 0.143 3 
0.466 0.182 0.142 3 
0.466 0.173 0.142 3 
0.472 -0.156 0.124 3 
0.466 0.153 0.142 3 
0.466 0.112 0.144 3 
0.476 -0.226 0.152 3 
0.476 -0.235 0.152 3 
0.474 -0.266 0.012 3 
0.476 -0.257 0.153 3 
0.477 -0.267 0.153 3 
0.477 -0.277 0.154 3 
0.478 -0.288 0.154 3 
0.465 0.256 0.147 3 
0.464 0.234 0.146 3 
0.466 0.142 0.144 3 
0.466 0.134 0.144 3 
0.466 0.123 0.144 3 
0.468 -0.006 0.144 3 
0.466 0.104 0.144 3 
0.466 0.093 0.144 3 
0.467 0.082 0.144 3 
0.464 0.163 0.063 3 
0.467 0.074 0.144 3 
0.467 0.052 0.144 3 
0.467 0.044 0.144 3 
0.466 0.033 0.144 3 
0.472 -0.147 0.074 3 
0.467 0.022 0.144 3 
0.467 0.003 0.144 3 
0.475 -0.195 0.14 3 
0.473 -0.195 0.142 3 
0.473 -0.206 0.142 3 
0.474 -0.216 0.143 3 
0.475 -0.225 0.143 3 
0.475 -0.237 0.143 3 
0.475 -0.247 0.144 3 
0.476 -0.257 0.144 3 
0.485 -0.317 0.148 3 
0.464 0.289 0.139 3 
0.464 0.233 0.137 3 
0.464 0.213 0.137 3 
0.475 -0.19 0.14 3 
0.474 -0.187 0.142 3 
0.472 -0.167 0.094 3 
0.463 0.134 0.004 3 
0.477 -0.277 0.142 3 
0.479 -0.288 0.143 3 
0.471 -0.207 0.013 3 
0.479 -0.295 0.143 3 
0.479 -0.305 0.143 3 
0.48 -0.316 0.144 3 
0.463 0.334 0.137 3 
0.464 0.282 0.136 3 
0.465 0.264 0.136 3 
0.464 0.224 0.134 3 
0.473 -0.166 0.144 3 
0.469 -0.047 0.142 3 
0.469 -0.055 0.142 3 
0.47 -0.067 0.142 3 
0.466 0.022 0.103 3 
0.465 0.172 0.052 3 
0.471 -0.075 0.143 3 
0.47 -0.086 0.142 3 
0.47 -0.105 0.143 3 
0.47 -0.116 0.143 3 
0.471 -0.125 0.143 3 
0.474 -0.146 0.144 3 
0.474 -0.155 0.144 3 
0.465 0.323 0.152 3 
0.472 -0.177 0.144 3 
0.481 -0.345 0.151 3 
0.466 0.334 0.144 3 
0.465 0.322 0.143 3 
0.464 0.318 0.143 3 
0.464 0.311 0.142 3 
0.475 -0.296 0.009 3 
0.465 0.309 0.142 3 
0.465 0.303 0.142 3 
0.465 0.283 0.142 3 
0.467 -0.015 0.084 3 
0.465 0.182 0.153 3 
0.478 -0.275 0.163 3 
0.464 0.301 0.136 3 
0.478 -0.285 0.163 3 
0.478 -0.298 0.164 3 
0.464 0.243 0.154 3 
0.465 0.178 0.084 3 
0.465 0.232 0.154 3 
0.465 0.223 0.154 3 
0.471 -0.135 0.083 3 
0.465 0.211 0.154 3 
0.465 0.202 0.154 3 
0.466 0.194 0.154 3 
0.478 -0.265 0.162 3 
0.466 0.173 0.153 3 
0.467 0.163 0.153 3 
0.466 0.154 0.153 3 
0.466 0.142 0.153 3 
0.465 0.124 0.063 3 
0.467 0.134 0.153 3 
0.467 0.123 0.153 3 
0.466 0.033 0.063 3 
0.468 0.113 0.153 3 
0.467 0.104 0.153 3 
0.468 0.093 0.153 3 
0.476 -0.266 0.144 3 
0.471 -0.167 0.033 3 
0.468 0.313 0.164 3 
0.466 0.301 0.163 3 
0.466 0.291 0.162 3 
0.465 0.281 0.162 3 
0.466 0.272 0.162 3 
0.464 0.231 0.16 3 
0.473 -0.186 0.162 3 
0.47 -0.105 0.104 3 
0.474 -0.257 0.052 3 
0.468 -0.036 0.044 3 
0.473 -0.195 0.162 3 
0.474 -0.205 0.163 3 
0.468 0.082 0.153 3 
0.476 -0.217 0.163 3 
0.474 -0.257 0.044 3 
0.474 -0.288 0.012 3 
0.476 -0.227 0.164 3 
0.477 -0.236 0.164 3 
0.476 -0.245 0.164 3 
0.484 -0.353 0.171 3 
0.464 0.255 0.158 3 
0.464 0.252 0.158 3 
0.464 0.243 0.157 3 
0.477 -0.258 0.162 3 
0.473 -0.146 0.152 3 
0.467 0.305 0.154 3 
0.466 0.301 0.154 3 
0.466 0.294 0.154 3 
0.465 0.281 0.153 3 
0.463 0.263 0.152 3 
0.464 0.154 0.033 3 
0.464 0.252 0.152 3 
0.465 0.235 0.152 3 
0.468 -0.137 0.014 3 
0.472 -0.125 0.152 3 
0.473 -0.137 0.152 3 
0.461 0.336 0.062 3 
0.483 -0.348 0.164 3 
0.472 -0.157 0.152 3 
0.463 0.281 0.133 3 
0.472 -0.165 0.153 3 
0.475 -0.271 0.104 3 
0.473 -0.175 0.153 3 
0.474 -0.187 0.154 3 
0.474 -0.196 0.154 3 
0.475 -0.211 0.154 3 
0.465 0.344 0.153 3 
0.464 0.339 0.152 3 
0.466 0.334 0.152 3 
0.47 -0.067 0.153 3 
0.467 0.074 0.152 3 
0.468 0.063 0.153 3 
0.467 0.052 0.152 3 
0.468 0.044 0.153 3 
0.468 0.033 0.153 3 
0.468 0.022 0.153 3 
0.469 0.014 0.153 3 
0.467 -0.006 0.152 3 
0.468 -0.015 0.152 3 
0.469 -0.025 0.153 3 
0.469 -0.055 0.153 3 
0.462 0.334 0.062 3 
0.464 0.213 0.134 3 
0.471 -0.075 0.154 3 
0.471 -0.086 0.154 3 
0.471 -0.097 0.154 3 
0.473 -0.247 0.092 3 
0.472 -0.106 0.154 3 
0.472 -0.117 0.154 3 
0.476 -0.211 0.157 3 
0.48 -0.306 0.162 3 
0.481 -0.317 0.162 3 
0.48 -0.327 0.163 3 
0.482 -0.339 0.164 3 
0.471 -0.145 0.124 3 
0.468 -0.025 0.122 3 
0.468 -0.036 0.122 3 
0.468 -0.047 0.123 3 
0.468 -0.055 0.123 3 
0.469 -0.066 0.123 3 
0.47 -0.075 0.123 3 
0.471 -0.086 0.123 3 
0.471 -0.097 0.124 3 
0.477 -0.285 0.093 3 
0.471 -0.105 0.124 3 
0.471 -0.125 0.124 3 
0.471 -0.136 0.124 3 
0.467 -0.015 0.122 3 
0.475 -0.207 0.126 3 
0.466 0.014 0.092 3 
0.475 -0.222 0.126 3 
0.465 0.084 0.063 3 
0.474 -0.236 0.126 3 
0.463 0.34 0.123 3 
0.465 0.332 0.123 3 
0.465 0.322 0.123 3 
0.466 0.313 0.123 3 
0.464 0.304 0.122 3 
0.465 0.147 0.082 3 
0.464 0.16 0.12 3 
0.466 0.092 0.122 3 
0.465 0.213 0.123 3 
0.466 0.204 0.123 3 
0.464 0.152 0.092 3 
0.465 0.192 0.123 3 
0.465 0.184 0.123 3 
0.464 0.18 0.123 3 
0.465 0.172 0.123 3 
0.465 0.164 0.123 3 
0.465 0.153 0.122 3 
0.465 0.133 0.122 3 
0.466 0.114 0.122 3 
0.466 0.103 0.122 3 
0.472 -0.165 0.122 3 
0.465 0.073 0.122 3 
0.465 0.062 0.122 3 
0.466 0.054 0.122 3 
0.466 0.044 0.122 3 
0.466 0.033 0.122 3 
0.466 0.022 0.122 3 
0.47 -0.155 0.014 3 
0.467 0.014 0.122 3 
0.466 0.003 0.122 3 
0.466 -0.076 0.012 3 
0.467 -0.006 0.122 3 
0.464 0.294 0.082 3 
0.479 -0.345 0.124 3 
0.481 -0.355 0.124 3 
0.465 0.178 0.114 3 
0.465 0.172 0.114 3 
0.478 -0.325 0.064 3 
0.465 0.164 0.114 3 
0.464 0.158 0.114 3 
0.465 0.153 0.114 3 
0.467 0.202 0.112 3 
0.465 0.144 0.114 3 
0.465 0.133 0.114 3 
0.465 0.122 0.114 3 
0.48 -0.336 0.124 3 
0.465 0.114 0.114 3 
0.465 0.103 0.114 3 
0.466 0.092 0.114 3 
0.465 0.084 0.114 3 
0.476 -0.316 0.043 3 
0.464 0.073 0.114 3 
0.465 0.07 0.114 3 
0.465 0.062 0.114 3 
0.464 0.241 0.079 3 
0.466 0.054 0.114 3 
0.465 0.043 0.114 3 
0.475 -0.256 0.124 3 
0.474 -0.177 0.122 3 
0.474 -0.186 0.122 3 
0.474 -0.195 0.122 3 
0.475 -0.204 0.123 3 
0.475 -0.207 0.123 3 
0.475 -0.216 0.123 3 
0.463 0.112 0.012 3 
0.475 -0.225 0.123 3 
0.474 -0.23 0.123 3 
0.474 -0.236 0.123 3 
0.475 -0.243 0.123 3 
0.475 -0.246 0.124 3 
0.463 0.223 0.123 3 
0.476 -0.266 0.124 3 
0.464 0.32 0.12 3 
0.464 0.314 0.119 3 
0.464 0.141 0.117 3 
0.466 -0.066 0.023 3 
0.464 0.078 0.116 3 
0.474 -0.206 0.12 3 
0.474 -0.215 0.12 3 
0.476 -0.285 0.122 3 
0.479 -0.307 0.123 3 
0.481 -0.326 0.124 3 
0.483 -0.347 0.143 3 
0.468 -0.015 0.133 3 
0.468 -0.025 0.133 3 
0.465 0.264 0.113 3 
0.469 -0.036 0.134 3 
0.469 -0.047 0.134 3 
0.469 -0.055 0.134 3 
0.47 -0.066 0.134 3 
0.47 -0.075 0.134 3 
0.47 -0.086 0.134 3 
0.47 -0.097 0.134 3 
0.482 -0.328 0.142 3 
0.483 -0.336 0.142 3 
0.473 -0.217 0.064 3 
0.461 0.338 0.134 3 
0.463 0.333 0.134 3 
0.465 0.325 0.134 3 
0.465 0.322 0.134 3 
0.464 0.308 0.134 3 
0.464 0.304 0.133 3 
0.464 0.292 0.133 3 
0.465 0.271 0.133 3 
0.465 0.264 0.133 3 
0.464 0.132 0.022 3 
0.464 0.257 0.132 3 
0.465 0.094 0.033 3 
0.466 0.092 0.133 3 
0.465 0.21 0.134 3 
0.465 0.202 0.134 3 
0.466 0.193 0.134 3 
0.466 0.184 0.134 3 
0.465 0.172 0.134 3 
0.465 0.164 0.134 3 
0.465 0.153 0.133 3 
0.464 0.136 0.133 3 
0.465 0.133 0.133 3 
0.465 0.122 0.133 3 
0.466 0.114 0.133 3 
0.466 0.103 0.133 3 
0.463 0.253 0.132 3 
0.466 0.084 0.133 3 
0.467 -0.007 0.084 3 
0.466 0.073 0.133 3 
0.466 0.063 0.133 3 
0.466 0.054 0.133 3 
0.467 0.044 0.133 3 
0.467 0.033 0.133 3 
0.466 0.022 0.133 3 
0.466 0.014 0.133 3 
0.468 0.003 0.133 3 
0.468 -0.007 0.133 3 
0.482 -0.328 0.133 3 
0.475 -0.256 0.132 3 
0.475 -0.265 0.133 3 
0.481 -0.345 0.064 3 
0.472 -0.167 0.044 3 
0.476 -0.275 0.133 3 
0.478 -0.287 0.134 3 
0.479 -0.298 0.134 3 
0.464 0.169 0.125 3 
0.464 0.161 0.125 3 
0.474 -0.186 0.128 3 
0.479 -0.308 0.132 3 
0.48 -0.315 0.132 3 
0.476 -0.247 0.132 3 
0.474 -0.276 0.044 3 
0.482 -0.335 0.133 3 
0.482 -0.345 0.133 3 
0.463 0.294 0.124 3 
0.463 0.284 0.124 3 
0.464 0.272 0.124 3 
0.465 0.267 0.124 3 
0.465 0.264 0.124 3 
0.464 0.26 0.124 3 
0.464 0.242 0.124 3 
0.463 0.232 0.123 3 
0.473 -0.177 0.133 3 
0.477 -0.308 0.084 3 
0.463 0.244 0.132 3 
0.464 0.254 0.124 3 
0.466 0.014 0.063 3 
0.464 0.233 0.132 3 
0.47 -0.116 0.132 3 
0.471 -0.125 0.132 3 
0.476 -0.316 0.032 3 
0.472 -0.137 0.132 3 
0.472 -0.145 0.133 3 
0.473 -0.157 0.133 3 
0.473 -0.166 0.133 3 
0.461 0.334 0.122 3 
0.475 -0.187 0.134 3 
0.474 -0.195 0.134 3 
0.473 -0.206 0.134 3 
0.473 -0.215 0.134 3 
0.465 0.2 0.082 3 
0.474 -0.227 0.134 3 
0.485 -0.334 0.14 3 
0.465 0.302 0.131 3 
0.475 -0.195 0.131 3 
0.475 -0.231 0.132 3 
0.475 -0.237 0.132 3 
0.467 0.193 0.182 3 
0.482 -0.276 0.194 3 
0.484 -0.308 0.197 3 
0.462 0.313 0.014 3 
0.475 0.359 0.193 3 
0.467 0.249 0.184 3 
0.467 0.243 0.184 3 
0.469 0.233 0.184 3 
0.465 0.163 0.076 3 
0.469 0.224 0.184 3 
0.469 0.212 0.184 3 
0.468 0.202 0.183 3 
0.465 0.043 0.103 3 
0.482 -0.267 0.194 3 
0.468 0.182 0.182 3 
0.468 0.173 0.182 3 
0.474 -0.173 0.173 3 
0.472 -0.137 0.144 3 
0.468 0.164 0.182 3 
0.468 0.153 0.182 3 
0.47 0.142 0.182 3 
0.471 0.134 0.182 3 
0.476 -0.275 0.124 3 
0.471 0.123 0.182 3 
0.47 -0.105 0.134 3 
0.471 0.064 0.181 3 
0.472 -0.001 0.184 3 
0.472 -0.147 0.094 3 
0.47 0.111 0.184 3 
0.47 0.103 0.184 3 
0.47 0.094 0.184 3 
0.465 -0.036 0.004 3 
0.471 0.083 0.184 3 
0.466 0.043 0.074 3 
0.471 0.072 0.184 3 
0.472 0.037 0.184 3 
0.468 0.113 0.164 3 
0.476 -0.317 0.014 3 
0.474 0.023 0.185 3 
0.471 0.053 0.181 3 
0.465 0.25 0.068 3 
0.472 -0.007 0.184 3 
0.48 -0.315 0.123 3 
0.474 -0.037 0.185 3 
0.478 -0.226 0.191 3 
0.479 -0.237 0.192 3 
0.465 0.192 0.06 3 
0.48 -0.247 0.192 3 
0.464 0.262 0.063 3 
0.481 -0.256 0.193 3 
0.468 -0.077 0.074 3 
0.473 -0.226 0.052 3 
0.482 -0.296 0.192 3 
0.465 0.144 0.133 3 
0.485 -0.309 0.194 3 
0.473 0.356 0.189 3 
0.466 0.154 0.172 3 
0.468 0.311 0.184 3 
0.464 0.291 0.093 3 
0.468 0.304 0.184 3 
0.469 0.292 0.184 3 
0.482 0.298 0.189 3 
0.468 0.282 0.183 3 
0.468 0.272 0.183 3 
0.481 -0.285 0.191 3 
0.468 0.263 0.182 3 
0.474 -0.076 0.18 3 
0.464 0.304 0.114 3 
0.474 -0.087 0.18 3 
0.474 -0.11 0.18 3 
0.475 -0.136 0.181 3 
0.464 0.273 0.133 3 
0.476 -0.148 0.182 3 
0.476 -0.156 0.182 3 
0.475 -0.165 0.182 3 
0.475 -0.176 0.182 3 
0.477 -0.186 0.183 3 
0.474 -0.065 0.183 3 
0.472 0.034 0.182 3 
0.473 0.023 0.182 3 
0.472 0.014 0.182 3 
0.464 0.303 0.082 3 
0.471 -0.015 0.181 3 
0.472 -0.026 0.182 3 
0.473 -0.037 0.173 3 
0.474 -0.037 0.183 3 
0.475 -0.046 0.183 3 
0.474 -0.054 0.182 3 
0.468 -0.055 0.063 3 
0.474 -0.056 0.182 3 
0.471 0.333 0.193 3 
0.475 -0.068 0.183 3 
0.475 -0.076 0.183 3 
0.466 0.003 0.092 3 
0.475 -0.085 0.183 3 
0.465 0.232 0.163 3 
0.476 -0.096 0.184 3 
0.477 -0.105 0.184 3 
0.472 -0.167 0.102 3 
0.475 -0.116 0.184 3 
0.474 -0.121 0.183 3 
0.475 -0.127 0.184 3 
0.471 0.103 0.187 3 
0.471 0.184 0.189 3 
0.47 0.171 0.189 3 
0.469 0.162 0.188 3 
0.469 0.154 0.188 3 
0.466 0.084 0.122 3 
0.464 0.284 0.093 3 
0.471 0.143 0.188 3 
0.471 0.134 0.188 3 
0.471 0.123 0.188 3 
0.472 0.073 0.188 3 
0.472 0.112 0.188 3 
0.469 0.279 0.174 3 
0.47 0.192 0.189 3 
0.472 0.092 0.188 3 
0.472 0.084 0.188 3 
0.473 0.062 0.188 3 
0.473 0.053 0.188 3 
0.473 0.042 0.188 3 
0.474 0.034 0.188 3 
0.475 0.029 0.189 3 
0.475 0.023 0.189 3 
0.464 0.152 0.117 3 
0.464 0.182 0.054 3 
0.474 0.012 0.188 3 
0.473 0.003 0.188 3 
0.472 0.292 0.194 3 
0.477 0.362 0.2 3 
0.478 -0.296 0.122 3 
0.473 0.353 0.198 3 
0.464 0.143 0.084 3 
0.472 0.341 0.197 3 
0.471 0.333 0.196 3 
0.472 0.323 0.196 3 
0.472 -0.156 0.102 3 
0.47 0.317 0.194 3 
0.47 0.314 0.194 3 
0.47 0.304 0.194 3 
0.464 0.18 0.106 3 
0.473 -0.007 0.188 3 
0.472 0.282 0.193 3 
0.471 0.272 0.193 3 
0.471 0.262 0.192 3 
0.47 0.252 0.191 3 
0.47 0.243 0.191 3 
0.469 0.233 0.19 3 
0.471 0.222 0.191 3 
0.469 -0.036 0.144 3 
0.471 0.213 0.19 3 
0.476 -0.297 0.023 3 
0.47 0.204 0.19 3 
0.481 -0.276 0.197 3 
0.477 -0.178 0.192 3 
0.478 -0.187 0.192 3 
0.479 -0.197 0.193 3 
0.48 -0.207 0.194 3 
0.474 -0.127 0.172 3 
0.48 -0.216 0.194 3 
0.48 -0.228 0.195 3 
0.48 -0.237 0.195 3 
0.48 -0.247 0.195 3 
0.481 -0.256 0.196 3 
0.465 0.075 0.023 3 
0.482 -0.267 0.197 3 
0.468 -0.066 0.074 3 
0.463 0.322 0.054 3 
0.483 -0.287 0.198 3 
0.485 -0.292 0.199 3 
0.484 -0.295 0.199 3 
0.485 -0.306 0.2 3 
0.485 -0.316 0.2 3 
0.487 -0.325 0.202 3 
0.489 -0.335 0.203 3 
0.488 -0.345 0.203 3 
0.472 0.348 0.194 3 
0.472 0.341 0.194 3 
0.476 -0.096 0.189 3 
0.473 -0.015 0.188 3 
0.473 -0.026 0.188 3 
0.475 -0.037 0.189 3 
0.476 -0.046 0.189 3 
0.476 -0.057 0.189 3 
0.474 -0.205 0.154 3 
0.476 -0.065 0.189 3 
0.468 -0.134 0.014 3 
0.478 -0.077 0.19 3 
0.469 -0.045 0.153 3 
0.465 0.312 0.134 3 
0.477 -0.085 0.19 3 
0.466 0.054 0.074 3 
0.477 -0.105 0.19 3 
0.477 -0.117 0.19 3 
0.478 -0.356 0.052 3 
0.478 -0.126 0.191 3 
0.469 -0.036 0.153 3 
0.479 -0.138 0.192 3 
0.479 -0.317 0.102 3 
0.478 -0.146 0.191 3 
0.478 -0.155 0.192 3 
0.468 0.343 0.184 3 
0.477 -0.166 0.191 3 
0.468 0.132 0.164 3 
0.475 -0.227 0.172 3 
0.477 -0.237 0.173 3 
0.478 -0.247 0.174 3 
0.473 -0.205 0.083 3 
0.478 -0.256 0.174 3 
0.478 -0.266 0.174 3 
0.466 0.168 0.164 3 
0.466 0.162 0.164 3 
0.468 -0.036 0.104 3 
0.465 0.279 0.082 3 
0.466 0.154 0.164 3 
0.467 0.143 0.164 3 
0.475 -0.216 0.151 3 
0.468 0.124 0.164 3 
0.468 0.104 0.164 3 
0.468 0.093 0.164 3 
0.469 0.083 0.164 3 
0.469 0.074 0.164 3 
0.469 0.063 0.164 3 
0.465 0.216 0.123 3 
0.469 0.044 0.164 3 
0.469 0.033 0.164 3 
0.48 -0.327 0.082 3 
0.469 0.022 0.164 3 
0.469 0.014 0.164 3 
0.465 0.338 0.173 3 
0.475 -0.176 0.174 3 
0.475 -0.185 0.174 3 
0.466 -0.087 0.012 3 
0.484 -0.318 0.182 3 
0.472 -0.187 0.094 3 
0.484 -0.325 0.182 3 
0.485 -0.329 0.183 3 
0.475 -0.296 0.064 3 
0.463 0.243 0.054 3 
0.487 -0.339 0.184 3 
0.487 -0.346 0.184 3 
0.464 0.344 0.173 3 
0.469 0.003 0.164 3 
0.467 0.333 0.173 3 
0.465 0.324 0.172 3 
0.467 0.313 0.172 3 
0.474 -0.155 0.17 3 
0.474 -0.175 0.17 3 
0.474 -0.187 0.171 3 
0.475 -0.197 0.171 3 
0.475 -0.206 0.172 3 
0.465 0.114 0.063 3 
0.476 -0.215 0.172 3 
0.473 -0.166 0.164 3 
0.473 -0.175 0.164 3 
0.472 -0.095 0.163 3 
0.465 0.113 0.044 3 
0.472 -0.106 0.163 3 
0.463 0.282 0.023 3 
0.472 -0.117 0.163 3 
0.473 -0.126 0.163 3 
0.473 -0.135 0.163 3 
0.479 -0.358 0.158 3 
0.472 -0.145 0.163 3 
0.481 -0.355 0.131 3 
0.473 -0.157 0.164 3 
0.474 -0.276 0.078 3 
0.472 -0.086 0.162 3 
0.466 0.123 0.122 3 
0.474 -0.205 0.165 3 
0.482 -0.315 0.172 3 
0.483 -0.327 0.173 3 
0.47 -0.166 0.022 3 
0.483 -0.337 0.173 3 
0.485 -0.347 0.174 3 
0.464 0.343 0.164 3 
0.466 0.335 0.164 3 
0.466 0.331 0.164 3 
0.466 0.022 0.114 3 
0.479 -0.296 0.173 3 
0.469 -0.007 0.164 3 
0.469 -0.015 0.164 3 
0.471 -0.026 0.164 3 
0.471 -0.037 0.164 3 
0.471 -0.045 0.164 3 
0.47 -0.058 0.164 3 
0.47 -0.067 0.164 3 
0.463 0.293 0.113 3 
0.474 -0.196 0.168 3 
0.467 0.063 0.144 3 
0.477 -0.278 0.171 3 
0.478 -0.285 0.172 3 
0.47 -0.097 0.052 3 
0.466 0.26 0.164 3 
0.465 0.274 0.153 3 
0.465 0.253 0.164 3 
0.465 0.244 0.163 3 
0.465 0.223 0.163 3 
0.466 0.212 0.163 3 
0.466 0.203 0.163 3 
0.466 0.194 0.162 3 
0.466 0.183 0.162 3 
0.471 -0.116 0.124 3 
0.471 -0.075 0.162 3 
0.469 0.133 0.173 3 
0.479 -0.245 0.183 3 
0.479 -0.257 0.183 3 
0.48 -0.265 0.184 3 
0.48 -0.277 0.184 3 
0.468 0.202 0.174 3 
0.464 0.252 0.143 3 
0.467 0.192 0.174 3 
0.463 0.273 0.032 3 
0.467 0.184 0.174 3 
0.466 0.172 0.173 3 
0.465 0.163 0.172 3 
0.468 0.144 0.173 3 
0.478 -0.235 0.182 3 
0.476 -0.245 0.152 3 
0.47 0.122 0.173 3 
0.47 -0.097 0.143 3 
0.469 0.113 0.173 3 
0.469 0.102 0.173 3 
0.465 0.144 0.122 3 
0.469 0.094 0.173 3 
0.47 0.083 0.173 3 
0.47 0.072 0.173 3 
0.47 0.064 0.173 3 
0.47 0.053 0.173 3 
0.465 0.218 0.054 3 
0.487 -0.336 0.193 3 
0.478 -0.196 0.184 3 
0.467 0.014 0.144 3 
0.478 -0.205 0.184 3 
0.464 0.073 0.116 3 
0.477 -0.222 0.184 3 
0.472 -0.176 0.072 3 
0.465 0.054 0.004 3 
0.482 -0.306 0.19 3 
0.484 -0.315 0.191 3 
0.485 -0.323 0.192 3 
0.485 -0.326 0.192 3 
0.473 -0.197 0.052 3 
0.47 0.044 0.173 3 
0.488 -0.348 0.194 3 
0.467 -0.007 0.044 3 
0.469 0.351 0.184 3 
0.467 -0.007 0.063 3 
0.468 0.331 0.183 3 
0.468 0.324 0.182 3 
0.474 -0.127 0.178 3 
0.474 -0.138 0.178 3 
0.474 -0.161 0.179 3 
0.474 -0.167 0.179 3 
0.476 -0.225 0.181 3 
0.463 0.072 0.004 3 
0.481 -0.295 0.183 3 
0.467 0.003 0.004 3 
0.481 -0.305 0.183 3 
0.484 -0.325 0.185 3 
0.464 0.344 0.176 3 
0.468 0.003 0.153 3 
0.467 0.296 0.174 3 
0.468 0.288 0.174 3 
0.468 0.272 0.174 3 
0.48 -0.307 0.174 3 
0.462 0.34 0.143 3 
0.467 0.264 0.173 3 
0.465 0.293 0.142 3 
0.467 0.252 0.173 3 
0.467 0.243 0.172 3 
0.474 -0.257 0.072 3 
0.467 0.234 0.172 3 
0.467 0.222 0.172 3 
0.467 0.213 0.172 3 
0.473 -0.135 0.172 3 
0.464 0.318 0.145 3 
0.473 -0.146 0.172 3 
0.475 -0.156 0.173 3 
0.475 -0.167 0.173 3 
0.466 0.003 0.103 3 
0.464 0.313 0.094 3 
0.47 0.034 0.173 3 
0.469 0.052 0.164 3 
0.47 0.023 0.173 3 
0.469 0.014 0.172 3 
0.469 0.003 0.172 3 
0.469 -0.007 0.172 3 
0.47 -0.015 0.173 3 
0.47 -0.026 0.173 3 
0.463 0.104 0.012 3 
0.473 -0.045 0.174 3 
0.472 -0.056 0.173 3 
0.466 0.321 0.164 3 
0.472 -0.067 0.173 3 
0.466 0.103 0.044 3 
0.462 0.213 0.014 3 
0.473 -0.076 0.174 3 
0.473 -0.087 0.174 3 
0.474 -0.096 0.174 3 
0.474 -0.098 0.175 3 
0.473 -0.106 0.174 3 
0.463 0.244 0.104 3 
0.473 -0.115 0.174 3 
0.48 -0.287 0.182 3 
0.465 0.163 0.044 3 
0.464 0.274 0.043 3 
0.463 0.264 0.043 3 
0.468 -0.055 0.033 3 
0.463 0.222 0.024 3 
0.463 0.252 0.043 3 
0.463 0.243 0.043 3 
0.464 0.223 0.043 3 
0.463 0.213 0.043 3 
0.464 0.202 0.043 3 
0.464 0.194 0.044 3 
0.464 0.182 0.044 3 
0.464 0.174 0.044 3 
0.464 0.283 0.043 3 
0.465 0.152 0.044 3 
0.465 0.144 0.044 3 
0.465 0.133 0.044 3 
0.474 -0.295 0.012 3 
0.465 0.124 0.044 3 
0.466 0.094 0.044 3 
0.466 0.084 0.044 3 
0.465 0.073 0.044 3 
0.466 0.054 0.044 3 
0.465 0.032 0.044 3 
0.465 0.024 0.044 3 
0.466 0.014 0.044 3 
0.477 -0.317 0.052 3 
0.471 -0.175 0.052 3 
0.472 -0.187 0.052 3 
0.473 -0.205 0.052 3 
0.473 -0.217 0.052 3 
0.474 -0.236 0.052 3 
0.474 -0.245 0.052 3 
0.473 -0.266 0.052 3 
0.473 -0.275 0.052 3 
0.474 -0.286 0.052 3 
0.475 -0.293 0.052 3 
0.476 -0.296 0.052 3 
0.476 -0.306 0.052 3 
0.467 0.003 0.044 3 
0.478 -0.328 0.052 3 
0.478 -0.335 0.052 3 
0.465 0.175 0.049 3 
0.475 -0.252 0.049 3 
0.464 0.16 0.046 3 
0.461 0.336 0.042 3 
0.461 0.333 0.042 3 
0.463 0.312 0.043 3 
0.464 0.303 0.043 3 
0.467 -0.066 0.044 3 
0.464 0.293 0.043 3 
0.464 0.08 0.036 3 
0.479 -0.347 0.043 3 
0.478 -0.356 0.043 3 
0.464 0.163 0.041 3 
0.464 0.11 0.041 3 
0.475 -0.282 0.041 3 
0.464 0.146 0.038 3 
0.46 0.335 0.034 3 
0.461 0.333 0.034 3 
0.462 0.324 0.034 3 
0.462 0.314 0.034 3 
0.463 0.304 0.034 3 
0.464 0.293 0.034 3 
0.479 -0.336 0.043 3 
0.478 -0.335 0.034 3 
0.479 -0.347 0.034 3 
0.477 -0.355 0.034 3 
0.463 0.282 0.032 3 
0.463 0.264 0.032 3 
0.463 0.252 0.032 3 
0.463 0.243 0.032 3 
0.463 0.234 0.032 3 
0.465 0.059 0.001 3 
0.463 0.222 0.032 3 
0.464 0.214 0.032 3 
0.463 0.202 0.033 3 
0.472 -0.176 0.044 3 
0.467 -0.015 0.044 3 
0.467 -0.025 0.044 3 
0.468 -0.047 0.044 3 
0.468 -0.055 0.044 3 
0.469 -0.077 0.044 3 
0.469 -0.085 0.044 3 
0.47 -0.096 0.044 3 
0.471 -0.105 0.044 3 
0.471 -0.116 0.044 3 
0.47 -0.135 0.044 3 
0.471 -0.147 0.044 3 
0.471 -0.155 0.044 3 
0.471 -0.166 0.052 3 
0.472 -0.187 0.044 3 
0.473 -0.197 0.044 3 
0.473 -0.205 0.044 3 
0.472 -0.216 0.044 3 
0.473 -0.226 0.044 3 
0.473 -0.235 0.044 3 
0.474 -0.245 0.044 3 
0.474 -0.267 0.044 3 
0.476 -0.296 0.044 3 
0.476 -0.306 0.044 3 
0.478 -0.328 0.043 3 
0.475 -0.255 0.064 3 
0.472 -0.156 0.063 3 
0.472 -0.167 0.063 3 
0.472 -0.176 0.063 3 
0.464 0.214 0.024 3 
0.473 -0.188 0.064 3 
0.472 -0.196 0.064 3 
0.475 -0.286 0.044 3 
0.473 -0.205 0.064 3 
0.473 -0.226 0.064 3 
0.474 -0.236 0.064 3 
0.475 -0.243 0.064 3 
0.475 -0.246 0.064 3 
0.471 -0.147 0.063 3 
0.474 -0.26 0.064 3 
0.474 -0.267 0.064 3 
0.475 -0.271 0.064 3 
0.474 -0.276 0.064 3 
0.475 -0.28 0.064 3 
0.475 -0.286 0.064 3 
0.477 -0.307 0.064 3 
0.477 -0.317 0.064 3 
0.479 -0.336 0.064 3 
0.479 -0.357 0.064 3 
0.464 0.223 0.06 3 
0.464 0.113 0.06 3 
0.467 -0.036 0.063 3 
0.465 0.161 0.063 3 
0.465 0.144 0.063 3 
0.466 0.133 0.063 3 
0.465 0.103 0.063 3 
0.465 0.094 0.063 3 
0.464 0.091 0.063 3 
0.467 0.073 0.063 3 
0.467 0.054 0.063 3 
0.466 0.024 0.063 3 
0.467 0.003 0.063 3 
0.467 -0.015 0.063 3 
0.468 -0.025 0.063 3 
0.474 -0.245 0.061 3 
0.468 -0.047 0.063 3 
0.469 -0.066 0.063 3 
0.463 0.162 0.033 3 
0.469 -0.077 0.063 3 
0.469 -0.085 0.063 3 
0.47 -0.097 0.063 3 
0.471 -0.105 0.063 3 
0.471 -0.116 0.063 3 
0.48 -0.348 0.052 3 
0.47 -0.127 0.063 3 
0.47 -0.135 0.063 3 
0.468 -0.036 0.052 3 
0.466 0.084 0.052 3 
0.466 0.073 0.052 3 
0.466 0.062 0.052 3 
0.466 0.054 0.052 3 
0.466 0.043 0.052 3 
0.466 0.032 0.052 3 
0.466 0.024 0.052 3 
0.466 0.014 0.052 3 
0.468 -0.007 0.052 3 
0.467 -0.015 0.052 3 
0.467 -0.025 0.052 3 
0.462 0.282 0.012 3 
0.465 0.094 0.052 3 
0.468 -0.047 0.052 3 
0.468 -0.055 0.052 3 
0.468 -0.066 0.052 3 
0.469 -0.077 0.052 3 
0.468 -0.085 0.052 3 
0.471 -0.105 0.052 3 
0.471 -0.116 0.052 3 
0.47 -0.127 0.052 3 
0.47 -0.135 0.052 3 
0.471 -0.147 0.052 3 
0.471 -0.155 0.052 3 
0.465 0.209 0.054 3 
0.464 0.214 0.057 3 
0.465 0.203 0.057 3 
0.474 -0.286 0.058 3 
0.461 0.336 0.054 3 
0.463 0.302 0.054 3 
0.463 0.293 0.054 3 
0.464 0.283 0.054 3 
0.463 0.264 0.054 3 
0.463 0.252 0.054 3 
0.463 0.231 0.054 3 
0.464 0.223 0.054 3 
0.464 0.214 0.054 3 
0.464 0.194 0.033 3 
0.465 0.203 0.054 3 
0.464 0.2 0.054 3 
0.464 0.194 0.054 3 
0.465 0.172 0.055 3 
0.464 0.174 0.052 3 
0.465 0.163 0.052 3 
0.465 0.152 0.052 3 
0.465 0.144 0.052 3 
0.466 0.133 0.052 3 
0.465 0.113 0.052 3 
0.465 0.103 0.052 3 
0.461 0.224 0.013 3 
0.474 -0.285 0.015 3 
0.476 -0.31 0.014 3 
0.477 -0.328 0.014 3 
0.477 -0.335 0.014 3 
0.478 -0.346 0.013 3 
0.474 -0.353 0.014 3 
0.461 0.303 0.012 3 
0.462 0.294 0.012 3 
0.461 0.262 0.013 3 
0.461 0.253 0.013 3 
0.461 0.241 0.013 3 
0.461 0.232 0.013 3 
0.464 0.032 0.018 3 
0.462 0.204 0.014 3 
0.462 0.193 0.014 3 
0.462 0.184 0.014 3 
0.462 0.173 0.014 3 
0.462 0.162 0.014 3 
0.462 0.154 0.014 3 
0.462 0.134 0.014 3 
0.464 0.024 0.015 3 
0.469 -0.146 0.014 3 
0.469 -0.166 0.014 3 
0.469 -0.177 0.014 3 
0.469 -0.186 0.014 3 
0.47 -0.175 0.022 3 
0.466 -0.025 0.023 3 
0.466 -0.036 0.023 3 
0.466 -0.047 0.023 3 
0.467 -0.055 0.023 3 
0.468 -0.077 0.023 3 
0.468 -0.096 0.023 3 
0.468 -0.107 0.023 3 
0.468 -0.115 0.023 3 
0.469 -0.126 0.023 3 
0.469 -0.135 0.022 3 
0.47 -0.146 0.022 3 
0.47 -0.155 0.022 3 
0.47 -0.195 0.014 3 
0.471 -0.187 0.022 3 
0.471 -0.195 0.022 3 
0.464 0.059 0.02 3 
0.464 0.054 0.02 3 
0.464 0.035 0.02 3 
0.475 -0.261 0.018 3 
0.474 -0.295 0.018 3 
0.474 -0.356 0.017 3 
0.46 0.329 0.014 3 
0.462 0.323 0.014 3 
0.464 0.072 0.018 3 
0.463 0.064 0.004 3 
0.465 -0.036 0.012 3 
0.465 -0.047 0.012 3 
0.464 -0.049 0.012 3 
0.464 -0.055 0.012 3 
0.466 -0.057 0.012 3 
0.466 -0.065 0.012 3 
0.466 -0.095 0.012 3 
0.467 -0.106 0.012 3 
0.467 -0.115 0.012 3 
0.465 0.024 0.01 3 
0.465 0.046 0.007 3 
0.465 0.043 0.007 3 
0.464 -0.033 0.012 3 
0.466 0.043 0.004 3 
0.466 0.032 0.004 3 
0.466 0.024 0.004 3 
0.466 0.014 0.004 3 
0.467 -0.007 0.004 3 
0.467 -0.015 0.004 3 
0.466 -0.025 0.004 3 
0.466 -0.047 0.004 3 
0.468 -0.055 0.004 3 
0.468 -0.066 0.004 3 
0.469 -0.107 0.004 3 
0.463 0.072 0.012 3 
0.471 -0.216 0.013 3 
0.471 -0.225 0.013 3 
0.472 -0.235 0.013 3 
0.472 -0.247 0.013 3 
0.473 -0.256 0.013 3 
0.475 -0.264 0.012 3 
0.475 -0.27 0.012 3 
0.475 -0.277 0.012 3 
0.474 -0.282 0.012 3 
0.475 -0.286 0.012 3 
0.463 0.094 0.012 3 
0.462 0.083 0.012 3 
0.466 -0.015 0.023 3 
0.463 0.064 0.012 3 
0.463 0.053 0.012 3 
0.464 0.043 0.012 3 
0.464 0.032 0.012 3 
0.463 0.024 0.013 3 
0.464 0.014 0.012 3 
0.464 0.003 0.012 3 
0.465 -0.004 0.012 3 
0.465 -0.007 0.012 3 
0.466 -0.015 0.012 3 
0.465 -0.025 0.012 3 
0.472 -0.217 0.033 3 
0.469 -0.096 0.033 3 
0.469 -0.107 0.033 3 
0.47 -0.116 0.033 3 
0.463 0.123 0.012 3 
0.47 -0.127 0.033 3 
0.47 -0.135 0.033 3 
0.471 -0.147 0.033 3 
0.471 -0.155 0.033 3 
0.47 -0.175 0.033 3 
0.471 -0.187 0.033 3 
0.472 -0.196 0.033 3 
0.472 -0.205 0.033 3 
0.469 -0.085 0.033 3 
0.472 -0.226 0.033 3 
0.473 -0.235 0.033 3 
0.473 -0.247 0.033 3 
0.473 -0.257 0.032 3 
0.473 -0.266 0.032 3 
0.475 -0.273 0.032 3 
0.474 -0.275 0.032 3 
0.475 -0.279 0.032 3 
0.476 -0.287 0.032 3 
0.476 -0.296 0.032 3 
0.476 -0.306 0.032 3 
0.477 -0.327 0.032 3 
0.467 0.043 0.033 3 
0.463 0.173 0.033 3 
0.464 0.143 0.033 3 
0.465 0.141 0.033 3 
0.465 0.133 0.033 3 
0.465 0.124 0.033 3 
0.466 0.114 0.033 3 
0.465 0.102 0.033 3 
0.464 0.091 0.033 3 
0.464 0.083 0.033 3 
0.465 0.073 0.033 3 
0.465 0.064 0.033 3 
0.466 0.054 0.033 3 
0.475 -0.243 0.03 3 
0.466 0.032 0.034 3 
0.467 -0.085 0.023 3 
0.465 0.024 0.034 3 
0.467 0.014 0.033 3 
0.466 0.003 0.034 3 
0.467 -0.007 0.034 3 
0.467 -0.015 0.034 3 
0.467 -0.025 0.034 3 
0.468 -0.036 0.033 3 
0.467 -0.047 0.034 3 
0.468 -0.077 0.033 3 
0.464 0.105 0.023 3 
0.476 -0.316 0.023 3 
0.477 -0.328 0.023 3 
0.478 -0.336 0.023 3 
0.477 -0.356 0.022 3 
0.463 0.182 0.022 3 
0.462 0.173 0.022 3 
0.463 0.162 0.022 3 
0.464 0.008 0.018 3 
0.463 0.154 0.022 3 
0.463 0.143 0.022 3 
0.465 0.124 0.022 3 
0.465 0.113 0.022 3 
0.477 -0.307 0.023 3 
0.464 0.102 0.023 3 
0.464 0.094 0.023 3 
0.464 0.083 0.023 3 
0.465 0.073 0.023 3 
0.465 0.064 0.023 3 
0.465 0.054 0.023 3 
0.465 0.032 0.023 3 
0.465 0.024 0.023 3 
0.465 0.014 0.023 3 
0.466 0.003 0.023 3 
0.466 -0.007 0.023 3 
0.462 0.233 0.024 3 
0.464 0.13 0.028 3 
0.464 0.072 0.028 3 
0.464 0.34 0.022 3 
0.461 0.333 0.023 3 
0.462 0.324 0.023 3 
0.473 -0.355 0.014 3 
0.462 0.313 0.023 3 
0.463 0.301 0.023 3 
0.463 0.273 0.024 3 
0.463 0.264 0.024 3 
0.462 0.254 0.024 3 
0.462 0.242 0.024 3 
0.464 -0.039 0.012 3 
0.464 0.203 0.024 3 
0.464 0.124 0.025 3 
0.464 0.102 0.025 3 
0.472 -0.208 0.024 3 
0.472 -0.217 0.024 3 
0.473 -0.226 0.024 3 
0.472 -0.256 0.024 3 
0.474 -0.266 0.024 3 
0.475 -0.273 0.024 3 
0.475 -0.276 0.024 3 
0.476 -0.287 0.023 3 
0.465 0.236 0.099 3 
0.472 -0.176 0.102 3 
0.472 -0.187 0.102 3 
0.473 -0.197 0.103 3 
0.473 -0.205 0.103 3 
0.474 -0.218 0.103 3 
0.473 -0.226 0.103 3 
0.473 -0.235 0.103 3 
0.474 -0.245 0.103 3 
0.474 -0.257 0.104 3 
0.474 -0.267 0.104 3 
0.476 -0.278 0.104 3 
0.477 -0.289 0.104 3 
0.471 -0.147 0.102 3 
0.464 0.214 0.098 3 
0.478 -0.296 0.102 3 
0.479 -0.307 0.102 3 
0.479 -0.327 0.102 3 
0.48 -0.339 0.103 3 
0.48 -0.346 0.103 3 
0.48 -0.355 0.103 3 
0.466 0.062 0.044 3 
0.465 0.233 0.096 3 
0.464 0.174 0.095 3 
0.464 0.152 0.095 3 
0.46 0.336 0.094 3 
0.471 -0.097 0.104 3 
0.467 0.033 0.103 3 
0.466 0.014 0.103 3 
0.466 -0.006 0.103 3 
0.464 0.191 0.084 3 
0.467 -0.015 0.103 3 
0.467 -0.025 0.103 3 
0.469 -0.047 0.104 3 
0.469 -0.055 0.104 3 
0.469 -0.066 0.104 3 
0.469 -0.077 0.104 3 
0.47 -0.086 0.104 3 
0.464 0.232 0.043 3 
0.461 0.333 0.094 3 
0.47 -0.116 0.104 3 
0.47 -0.127 0.104 3 
0.47 -0.135 0.104 3 
0.474 -0.236 0.024 3 
0.461 0.337 0.102 3 
0.461 0.33 0.102 3 
0.463 0.322 0.102 3 
0.463 0.312 0.102 3 
0.464 0.304 0.102 3 
0.463 0.293 0.102 3 
0.465 0.161 0.101 3 
0.466 -0.015 0.092 3 
0.465 0.114 0.092 3 
0.465 0.103 0.092 3 
0.466 0.092 0.092 3 
0.466 0.084 0.092 3 
0.466 0.073 0.092 3 
0.465 0.062 0.092 3 
0.464 0.121 0.023 3 
0.465 0.054 0.092 3 
0.466 0.043 0.092 3 
0.467 0.033 0.092 3 
0.467 0.022 0.092 3 
0.467 -0.007 0.093 3 
0.465 0.122 0.092 3 
0.467 -0.025 0.093 3 
0.467 -0.036 0.093 3 
0.468 -0.047 0.093 3 
0.469 -0.055 0.093 3 
0.469 -0.066 0.093 3 
0.469 -0.077 0.093 3 
0.469 -0.085 0.093 3 
0.47 -0.097 0.093 3 
0.47 -0.105 0.093 3 
0.471 -0.116 0.093 3 
0.47 -0.127 0.093 3 
0.463 0.193 0.022 3 
0.465 0.212 0.093 3 
0.464 0.323 0.094 3 
0.465 0.308 0.094 3 
0.464 0.303 0.094 3 
0.464 0.214 0.085 3 
0.465 0.295 0.094 3 
0.464 0.272 0.093 3 
0.463 0.262 0.093 3 
0.463 0.253 0.093 3 
0.464 0.244 0.093 3 
0.465 0.239 0.093 3 
0.465 0.233 0.093 3 
0.465 0.224 0.093 3 
0.465 0.054 0.103 3 
0.466 0.204 0.093 3 
0.465 0.192 0.093 3 
0.464 0.188 0.093 3 
0.464 0.183 0.093 3 
0.464 0.174 0.093 3 
0.465 0.172 0.093 3 
0.465 0.163 0.093 3 
0.464 0.157 0.092 3 
0.465 0.144 0.092 3 
0.464 0.062 0.026 3 
0.465 0.133 0.092 3 
0.47 -0.136 0.113 3 
0.466 0.193 0.112 3 
0.464 0.152 0.111 3 
0.464 0.144 0.111 3 
0.464 0.075 0.111 3 
0.469 -0.066 0.112 3 
0.47 -0.075 0.112 3 
0.469 -0.085 0.112 3 
0.468 -0.066 0.033 3 
0.471 -0.097 0.113 3 
0.47 -0.105 0.112 3 
0.47 -0.116 0.113 3 
0.47 -0.127 0.113 3 
0.466 0.213 0.112 3 
0.473 -0.185 0.114 3 
0.47 -0.147 0.113 3 
0.471 -0.156 0.113 3 
0.472 -0.167 0.113 3 
0.473 -0.176 0.114 3 
0.473 -0.197 0.114 3 
0.474 -0.206 0.114 3 
0.474 -0.215 0.114 3 
0.475 -0.219 0.114 3 
0.474 -0.227 0.114 3 
0.474 -0.248 0.115 3 
0.464 0.1 0.108 3 
0.464 0.324 0.114 3 
0.47 -0.116 0.003 3 
0.466 0.014 0.114 3 
0.467 0.003 0.114 3 
0.464 0.274 0.054 3 
0.466 -0.006 0.114 3 
0.467 -0.015 0.114 3 
0.467 -0.025 0.114 3 
0.468 -0.036 0.114 3 
0.468 -0.047 0.114 3 
0.468 -0.061 0.114 3 
0.462 0.338 0.114 3 
0.461 0.334 0.114 3 
0.474 -0.236 0.112 3 
0.464 0.314 0.114 3 
0.462 0.283 0.113 3 
0.475 -0.255 0.052 3 
0.464 0.272 0.113 3 
0.464 0.26 0.113 3 
0.464 0.254 0.113 3 
0.463 0.244 0.112 3 
0.464 0.233 0.112 3 
0.464 0.223 0.112 3 
0.465 0.221 0.112 3 
0.462 0.324 0.043 3 
0.465 0.144 0.103 3 
0.465 0.215 0.104 3 
0.466 0.213 0.104 3 
0.466 0.204 0.104 3 
0.465 0.192 0.104 3 
0.464 0.188 0.103 3 
0.478 -0.325 0.073 3 
0.465 0.183 0.104 3 
0.464 0.177 0.103 3 
0.465 0.172 0.104 3 
0.478 -0.346 0.022 3 
0.464 0.163 0.103 3 
0.465 0.152 0.103 3 
0.464 0.223 0.104 3 
0.465 0.133 0.103 3 
0.465 0.122 0.103 3 
0.465 0.114 0.103 3 
0.465 0.043 0.044 3 
0.464 0.108 0.103 3 
0.465 0.103 0.103 3 
0.466 0.092 0.103 3 
0.465 0.084 0.103 3 
0.465 0.073 0.103 3 
0.466 0.062 0.103 3 
0.468 -0.096 0.082 3 
0.479 -0.338 0.112 3 
0.474 -0.245 0.112 3 
0.474 -0.255 0.112 3 
0.475 -0.268 0.112 3 
0.474 -0.27 0.112 3 
0.475 -0.277 0.113 3 
0.476 -0.285 0.113 3 
0.477 -0.295 0.113 3 
0.479 -0.307 0.114 3 
0.48 -0.315 0.114 3 
0.479 -0.331 0.114 3 
0.473 -0.247 0.083 3 
0.475 -0.262 0.109 3 
0.47 -0.135 0.093 3 
0.479 -0.345 0.112 3 
0.474 -0.245 0.024 3 
0.479 -0.356 0.112 3 
0.462 0.28 0.104 3 
0.462 0.334 0.082 3 
0.463 0.274 0.104 3 
0.464 0.263 0.104 3 
0.464 0.254 0.104 3 
0.464 0.32 0.082 3 
0.464 0.232 0.104 3 
0.462 0.272 0.013 3 
0.466 0.022 0.074 3 
0.465 0.163 0.074 3 
0.465 0.152 0.074 3 
0.465 0.144 0.074 3 
0.465 0.133 0.074 3 
0.466 0.122 0.074 3 
0.467 0.114 0.074 3 
0.465 0.103 0.074 3 
0.465 0.094 0.074 3 
0.465 0.084 0.074 3 
0.466 0.073 0.074 3 
0.467 0.062 0.074 3 
0.466 0.033 0.074 3 
0.465 0.169 0.074 3 
0.466 0.014 0.074 3 
0.466 0.003 0.074 3 
0.466 -0.007 0.074 3 
0.467 -0.015 0.074 3 
0.467 -0.025 0.074 3 
0.467 -0.036 0.074 3 
0.469 -0.055 0.074 3 
0.468 -0.085 0.074 3 
0.469 -0.096 0.074 3 
0.469 -0.107 0.074 3 
0.469 -0.116 0.074 3 
0.47 -0.127 0.074 3 
0.465 0.244 0.074 3 
0.479 -0.347 0.082 3 
0.48 -0.355 0.082 3 
0.462 0.338 0.074 3 
0.462 0.334 0.074 3 
0.464 0.323 0.074 3 
0.465 0.314 0.074 3 
0.464 0.303 0.074 3 
0.463 0.293 0.074 3 
0.464 0.284 0.074 3 
0.463 0.271 0.074 3 
0.464 0.262 0.074 3 
0.464 0.252 0.074 3 
0.471 -0.135 0.074 3 
0.464 0.241 0.074 3 
0.465 0.232 0.074 3 
0.464 0.229 0.074 3 
0.464 0.223 0.074 3 
0.464 0.214 0.074 3 
0.464 0.203 0.074 3 
0.464 0.194 0.074 3 
0.465 0.192 0.074 3 
0.465 0.183 0.074 3 
0.464 0.18 0.074 3 
0.464 0.171 0.074 3 
0.464 0.274 0.063 3 
0.465 0.203 0.068 3 
0.464 0.094 0.068 3 
0.474 -0.27 0.069 3 
0.474 -0.276 0.069 3 
0.474 -0.289 0.07 3 
0.464 0.163 0.065 3 
0.475 -0.246 0.067 3 
0.463 0.322 0.062 3 
0.463 0.312 0.062 3 
0.463 0.302 0.062 3 
0.463 0.293 0.062 3 
0.463 0.283 0.062 3 
0.465 0.032 0.007 3 
0.465 0.253 0.063 3 
0.467 0.003 0.052 3 
0.464 0.246 0.063 3 
0.464 0.243 0.063 3 
0.464 0.232 0.063 3 
0.465 0.224 0.063 3 
0.465 0.212 0.063 3 
0.464 0.202 0.063 3 
0.464 0.194 0.063 3 
0.464 0.182 0.063 3 
0.464 0.174 0.063 3 
0.474 -0.245 0.072 3 
0.472 -0.156 0.074 3 
0.472 -0.167 0.074 3 
0.464 0.313 0.071 3 
0.465 0.224 0.071 3 
0.472 -0.187 0.072 3 
0.473 -0.196 0.072 3 
0.473 -0.205 0.072 3 
0.465 0.075 0.031 3 
0.473 -0.217 0.072 3 
0.465 0.124 0.052 3 
0.473 -0.226 0.072 3 
0.474 -0.236 0.072 3 
0.48 -0.337 0.082 3 
0.475 -0.261 0.072 3 
0.475 -0.267 0.072 3 
0.475 -0.277 0.072 3 
0.475 -0.286 0.072 3 
0.475 -0.296 0.072 3 
0.477 -0.305 0.073 3 
0.477 -0.315 0.073 3 
0.48 -0.337 0.073 3 
0.48 -0.348 0.073 3 
0.48 -0.359 0.073 3 
0.465 0.212 0.068 3 
0.464 0.152 0.084 3 
0.478 -0.316 0.093 3 
0.479 -0.327 0.094 3 
0.481 -0.339 0.094 3 
0.481 -0.346 0.094 3 
0.479 -0.358 0.094 3 
0.465 0.317 0.088 3 
0.464 0.211 0.084 3 
0.465 0.189 0.084 3 
0.464 0.183 0.084 3 
0.464 0.174 0.084 3 
0.461 0.333 0.054 3 
0.464 0.163 0.084 3 
0.478 -0.306 0.093 3 
0.465 0.138 0.084 3 
0.466 0.133 0.084 3 
0.466 0.122 0.084 3 
0.466 0.114 0.084 3 
0.466 0.103 0.084 3 
0.465 0.092 0.084 3 
0.466 0.084 0.084 3 
0.462 0.335 0.014 3 
0.466 0.073 0.084 3 
0.467 -0.047 0.074 3 
0.466 0.062 0.084 3 
0.465 0.341 0.013 3 
0.464 0.121 0.09 3 
0.472 -0.156 0.094 3 
0.471 -0.175 0.094 3 
0.473 -0.197 0.094 3 
0.473 -0.205 0.094 3 
0.473 -0.217 0.094 3 
0.465 0.279 0.091 3 
0.466 0.043 0.023 3 
0.465 0.247 0.09 3 
0.466 0.043 0.063 3 
0.464 0.229 0.09 3 
0.464 0.22 0.09 3 
0.464 0.143 0.09 3 
0.466 0.054 0.084 3 
0.474 -0.257 0.084 3 
0.474 -0.227 0.092 3 
0.474 -0.236 0.092 3 
0.473 -0.257 0.092 3 
0.463 0.312 0.054 3 
0.474 -0.267 0.092 3 
0.475 -0.271 0.092 3 
0.471 -0.127 0.044 3 
0.475 -0.277 0.092 3 
0.464 0.293 0.023 3 
0.476 -0.297 0.093 3 
0.473 -0.197 0.083 3 
0.468 -0.085 0.082 3 
0.469 -0.107 0.082 3 
0.469 -0.116 0.082 3 
0.469 -0.127 0.082 3 
0.464 0.154 0.06 3 
0.472 -0.147 0.083 3 
0.472 -0.156 0.083 3 
0.471 -0.166 0.083 3 
0.465 0.011 0.01 3 
0.471 -0.175 0.083 3 
0.473 -0.185 0.083 3 
0.465 0.169 0.079 3 
0.469 -0.077 0.082 3 
0.474 -0.215 0.083 3 
0.473 -0.226 0.083 3 
0.473 -0.235 0.083 3 
0.474 -0.267 0.084 3 
0.462 0.142 0.014 3 
0.475 -0.274 0.084 3 
0.475 -0.277 0.084 3 
0.476 -0.287 0.084 3 
0.475 -0.296 0.084 3 
0.477 -0.315 0.084 3 
0.475 -0.261 0.081 3 
0.462 0.264 0.082 3 
0.467 0.043 0.084 3 
0.467 0.033 0.084 3 
0.467 0.022 0.084 3 
0.467 0.014 0.084 3 
0.466 0.003 0.084 3 
0.466 -0.025 0.084 3 
0.474 -0.276 0.087 3 
0.462 0.338 0.082 3 
0.465 0.324 0.083 3 
0.464 0.313 0.082 3 
0.464 0.284 0.082 3 
0.464 0.272 0.082 3 
0.465 0.033 0.114 3 
0.464 0.253 0.082 3 
0.465 0.244 0.082 3 
0.467 0.062 0.063 3 
0.465 0.232 0.082 3 
0.464 0.226 0.082 3 
0.464 0.223 0.082 3 
0.464 0.203 0.082 3 
0.467 -0.036 0.082 3 
0.468 -0.047 0.082 3 
0.468 -0.055 0.082 3 
0.469 -0.066 0.082 3 
