# .PCD v0.7 - Point Cloud Data file
FIELDS x y z intensity
SIZE 4 4 4 4
TYPE F F F F
COUNT 1 1 1 1
WIDTH 2014
HEIGHT 1
VIEWPOINT 0 0 0 1 0 0 0
POINTS 2014
DATA ascii
0.291 -0.059 0.089 0 
0.281 -0.053 0.086 0 
0.256 -0.058 0.094 0 
0.25 -0.061 0.094 0 
0.254 -0.06 0.096 0 
0.288 -0.054 0.086 0 
0.262 -0.06 0.099 0 
0.269 -0.063 0.102 0 
0.244 -0.062 0.092 0 
0.296 -0.056 0.087 0 
0.233 -0.065 0.088 0 
0.234 -0.064 0.088 0 
0.263 -0.054 0.092 0 
0.266 -0.055 0.093 0 
0.275 -0.059 0.09 0 
0.254 -0.054 0.087 0 
0.266 -0.054 0.092 0 
0.346 -0.018 0.009 0 
0.236 -0.065 0.086 0 
0.3 -0.052 0.085 0 
0.353 0.012 0.004 0 
0.324 -0.127 -0.003 1 
0.323 -0.115 -0.002 1 
0.322 -0.095 -0.001 1 
0.324 -0.066 -0.001 1 
0.354 0.019 -0.013 1 
0.353 0.124 -0.014 1 
0.353 0.131 -0.014 1 
0.354 0.134 -0.015 1 
0.351 0.164 -0.015 1 
0.343 0.205 -0.015 1 
0.324 -0.085 0 1 
0.361 0.044 -0.014 1 
0.363 0.073 -0.015 1 
0.359 0.082 -0.014 1 
0.361 0.092 -0.014 1 
0.361 0.094 -0.015 1 
0.36 0.099 -0.014 1 
0.361 0.103 -0.015 1 
0.36 0.112 -0.015 1 
0.361 0.154 -0.016 1 
0.353 0.17 -0.015 1 
0.352 0.171 -0.014 1 
0.354 0.183 -0.016 1 
0.354 0.191 -0.016 1 
0.348 0.21 -0.015 1 
0.333 -0.126 -0.003 1 
0.333 -0.116 -0.003 1 
0.332 -0.105 -0.002 1 
0.333 -0.035 -0.002 1 
0.333 -0.025 -0.002 1 
0.333 -0.016 -0.002 1 
0.334 -0.008 -0.002 1 
0.344 0.003 -0.006 1 
0.364 0.027 -0.013 1 
0.369 0.053 -0.015 1 
0.366 0.085 -0.014 1 
0.369 0.104 -0.016 1 
0.364 0.12 -0.014 1 
0.364 0.124 -0.015 1 
0.364 0.127 -0.015 1 
0.364 0.137 -0.015 1 
0.359 0.192 -0.016 1 
0.353 0.216 -0.015 1 
0.334 -0.055 0 1 
0.362 0.016 -0.01 1 
0.37 0.033 -0.013 1 
0.371 0.042 -0.014 1 
0.373 0.062 -0.014 1 
0.373 0.113 -0.015 1 
0.371 0.122 -0.015 1 
0.373 0.133 -0.016 1 
0.371 0.144 -0.016 1 
0.371 0.164 -0.016 1 
0.364 0.195 -0.016 1 
0.359 0.223 -0.016 1 
0.348 -0.176 -0.007 1 
0.345 -0.169 -0.005 1 
0.344 -0.166 -0.005 1 
0.344 -0.155 -0.004 1 
0.344 -0.146 -0.004 1 
0.343 -0.137 -0.004 1 
0.379 0.073 -0.015 1 
0.38 0.083 -0.015 1 
0.382 0.094 -0.016 1 
0.383 0.103 -0.017 1 
0.38 0.113 -0.016 1 
0.381 0.134 -0.017 1 
0.374 0.174 -0.016 1 
0.374 0.184 -0.016 1 
0.374 0.193 -0.017 1 
0.372 0.2 -0.017 1 
0.372 0.214 -0.017 1 
0.371 0.224 -0.017 1 
0.363 0.227 -0.015 1 
0.348 -0.159 -0.004 1 
0.35 -0.153 -0.005 1 
0.344 -0.015 -0.001 1 
0.381 0.033 -0.013 1 
0.382 0.043 -0.013 1 
0.385 0.053 -0.015 1 
0.383 0.063 -0.014 1 
0.384 0.073 -0.014 1 
0.384 0.124 -0.015 1 
0.383 0.144 -0.016 1 
0.382 0.154 -0.016 1 
0.382 0.162 -0.016 1 
0.379 0.182 -0.016 1 
0.379 0.193 -0.016 1 
0.356 -0.154 -0.005 1 
0.334 -0.077 0.003 1 
0.334 -0.072 0.003 1 
0.344 -0.055 0 1 
0.344 -0.053 0 1 
0.344 -0.036 0 1 
0.343 -0.005 0 1 
0.344 -0.002 0 1 
0.39 0.077 -0.014 1 
0.392 0.084 -0.015 1 
0.392 0.092 -0.015 1 
0.392 0.134 -0.016 1 
0.39 0.144 -0.016 1 
0.384 0.204 -0.016 1 
0.383 0.244 -0.018 1 
0.379 0.245 -0.017 1 
0.362 -0.175 -0.005 1 
0.364 -0.173 -0.006 1 
0.36 -0.155 -0.004 1 
0.355 -0.146 -0.002 1 
0.354 -0.105 -0.001 1 
0.344 -0.031 0.002 1 
0.393 0.043 -0.013 1 
0.394 0.053 -0.013 1 
0.394 0.064 -0.013 1 
0.394 0.068 -0.014 1 
0.397 0.081 -0.015 1 
0.394 0.12 -0.014 1 
0.394 0.153 -0.015 1 
0.392 0.163 -0.015 1 
0.393 0.182 -0.016 1 
0.393 0.222 -0.018 1 
0.387 0.254 -0.017 1 
0.367 -0.186 -0.005 1 
0.371 -0.179 -0.006 1 
0.354 -0.145 0 1 
0.347 -0.136 0.001 1 
0.342 -0.125 0.003 1 
0.344 -0.068 0.003 1 
0.369 0.015 -0.003 1 
0.381 0.017 -0.007 1 
0.404 0.054 -0.014 1 
0.401 0.064 -0.013 1 
0.402 0.072 -0.014 1 
0.402 0.094 -0.014 1 
0.403 0.101 -0.015 1 
0.401 0.102 -0.014 1 
0.402 0.114 -0.015 1 
0.402 0.122 -0.015 1 
0.4 0.124 -0.014 1 
0.403 0.134 -0.015 1 
0.399 0.154 -0.015 1 
0.394 0.174 -0.014 1 
0.394 0.206 -0.015 1 
0.385 0.229 -0.013 1 
0.391 0.243 -0.016 1 
0.333 -0.127 0.007 1 
0.311 -0.107 0.014 1 
0.303 -0.097 0.016 1 
0.314 -0.099 0.013 1 
0.334 -0.11 0.007 1 
0.347 -0.066 0.004 1 
0.348 -0.055 0.004 1 
0.333 -0.046 -0.001 1 
0.351 -0.036 0.003 1 
0.393 0.016 -0.009 1 
0.402 0.023 -0.011 1 
0.404 0.034 -0.012 1 
0.404 0.043 -0.012 1 
0.411 0.053 -0.014 1 
0.411 0.071 -0.014 1 
0.412 0.073 -0.015 1 
0.41 0.102 -0.014 1 
0.41 0.104 -0.015 1 
0.41 0.113 -0.015 1 
0.409 0.124 -0.015 1 
0.409 0.142 -0.015 1 
0.409 0.154 -0.015 1 
0.408 0.155 -0.015 1 
0.401 0.162 -0.013 1 
0.403 0.183 -0.015 1 
0.402 0.194 -0.015 1 
0.401 0.203 -0.015 1 
0.402 0.213 -0.015 1 
0.404 0.223 -0.016 1 
0.404 0.228 -0.016 1 
0.396 0.264 -0.016 1 
0.385 -0.191 -0.006 1 
0.353 -0.115 0.003 1 
0.361 -0.116 0.001 1 
0.366 -0.115 0 1 
0.365 -0.113 0 1 
0.358 -0.103 0.002 1 
0.35 -0.096 0.004 1 
0.347 -0.092 0.005 1 
0.353 -0.051 0.004 1 
0.353 -0.024 0.004 1 
0.356 -0.016 0.003 1 
0.351 -0.014 0.004 1 
0.353 0.003 0.004 1 
0.355 0.008 0.003 1 
0.414 0.042 -0.013 1 
0.413 0.133 -0.014 1 
0.414 0.143 -0.014 1 
0.41 0.164 -0.014 1 
0.408 0.234 -0.015 1 
0.408 0.242 -0.016 1 
0.409 0.251 -0.016 1 
0.353 0.113 -0.014 1 
0.35 -0.111 0.006 1 
0.358 -0.109 0.004 1 
0.358 0.114 -0.014 1 
0.355 -0.105 0.005 1 
0.347 -0.096 0.007 1 
0.36 -0.039 0.004 1 
0.382 0.214 -0.018 1 
0.421 0.034 -0.012 1 
0.423 0.053 -0.013 1 
0.423 0.062 -0.013 1 
0.422 0.074 -0.013 1 
0.421 0.083 -0.013 1 
0.421 0.094 -0.013 1 
0.421 0.104 -0.013 1 
0.42 0.113 -0.013 1 
0.414 0.184 -0.013 1 
0.414 0.194 -0.013 1 
0.411 0.211 -0.013 1 
0.416 0.234 -0.015 1 
0.414 0.261 -0.016 1 
0.413 0.272 -0.016 1 
0.407 0.268 -0.014 1 
0.406 0.275 -0.014 1 
0.374 -0.046 0.002 1 
0.431 0.043 -0.013 1 
0.431 0.052 -0.013 1 
0.424 0.124 -0.012 1 
0.424 0.153 -0.012 1 
0.424 0.161 -0.013 1 
0.423 0.183 -0.013 1 
0.336 -0.157 -0.005 1 
0.42 0.224 -0.013 1 
0.422 0.234 -0.014 1 
0.422 0.237 -0.014 1 
0.422 0.242 -0.015 1 
0.423 0.254 -0.015 1 
0.422 0.261 -0.015 1 
0.423 0.274 -0.016 1 
0.417 0.279 -0.015 1 
0.352 0.153 -0.015 1 
0.422 0.044 -0.013 1 
0.376 -0.044 0.003 1 
0.354 -0.004 0.009 1 
0.433 0.062 -0.011 1 
0.433 0.072 -0.011 1 
0.434 0.08 -0.011 1 
0.434 0.094 -0.012 1 
0.432 0.113 -0.011 1 
0.43 0.122 -0.011 1 
0.429 0.144 -0.011 1 
0.43 0.154 -0.012 1 
0.428 0.164 -0.012 1 
0.424 0.194 -0.011 1 
0.423 0.203 -0.011 1 
0.363 -0.16 -0.005 1 
0.424 0.214 -0.012 1 
0.429 0.271 -0.015 1 
0.425 0.287 -0.015 1 
0.424 0.289 -0.014 1 
0.378 -0.047 0.004 1 
0.343 0.005 -0.007 1 
0.344 -0.009 0.013 1 
0.444 0.043 -0.011 1 
0.442 0.052 -0.011 1 
0.439 0.064 -0.01 1 
0.441 0.084 -0.011 1 
0.439 0.104 -0.011 1 
0.434 0.172 -0.011 1 
0.432 0.184 -0.01 1 
0.431 0.194 -0.01 1 
0.43 0.203 -0.01 1 
0.431 0.223 -0.011 1 
0.432 0.232 -0.012 1 
0.433 0.244 -0.012 1 
0.434 0.253 -0.013 1 
0.434 0.264 -0.013 1 
0.434 0.273 -0.014 1 
0.429 0.292 -0.013 1 
0.432 0.298 -0.014 1 
0.366 -0.044 0.009 1 
0.429 0.019 -0.005 1 
0.444 0.028 -0.009 1 
0.444 0.07 -0.009 1 
0.444 0.123 -0.009 1 
0.443 0.133 -0.009 1 
0.438 0.162 -0.009 1 
0.439 0.272 -0.012 1 
0.44 0.282 -0.013 1 
0.44 0.294 -0.013 1 
0.443 0.317 -0.015 1 
0.358 0.012 -0.005 1 
0.409 0.222 -0.015 1 
0.355 -0.006 0.014 1 
0.356 0.003 0.013 1 
0.453 0.054 -0.008 1 
0.452 0.064 -0.008 1 
0.452 0.072 -0.008 1 
0.452 0.093 -0.008 1 
0.449 0.123 -0.008 1 
0.405 0.187 -0.015 1 
0.444 0.184 -0.008 1 
0.442 0.204 -0.008 1 
0.441 0.231 -0.009 1 
0.443 0.244 -0.009 1 
0.444 0.302 -0.012 1 
0.443 0.313 -0.012 1 
0.452 0.327 -0.014 1 
0.454 0.026 -0.006 1 
0.457 0.034 -0.006 1 
0.454 0.101 -0.006 1 
0.453 0.133 -0.007 1 
0.454 0.154 -0.007 1 
0.451 0.164 -0.007 1 
0.393 0.23 -0.016 1 
0.452 0.184 -0.007 1 
0.45 0.224 -0.008 1 
0.45 0.283 -0.009 1 
0.343 -0.121 0.003 1 
0.373 0.054 -0.014 1 
0.355 -0.006 0.017 1 
0.462 0.043 -0.005 1 
0.461 0.053 -0.005 1 
0.46 0.061 -0.005 1 
0.368 0.015 -0.007 1 
0.46 0.074 -0.005 1 
0.459 0.084 -0.005 1 
0.459 0.087 -0.005 1 
0.458 0.103 -0.005 1 
0.46 0.114 -0.005 1 
0.46 0.122 -0.005 1 
0.455 0.183 -0.005 1 
0.454 0.193 -0.005 1 
0.453 0.201 -0.005 1 
0.454 0.205 -0.006 1 
0.414 0.09 -0.013 1 
0.456 0.212 -0.006 1 
0.455 0.228 -0.006 1 
0.452 0.243 -0.006 1 
0.453 0.253 -0.006 1 
0.454 0.262 -0.007 1 
0.454 0.268 -0.007 1 
0.453 0.292 -0.008 1 
0.452 0.3 -0.008 1 
0.454 0.315 -0.009 1 
0.464 0.34 -0.011 1 
0.457 0.253 -0.005 1 
0.458 0.263 -0.005 1 
0.347 -0.167 -0.004 1 
0.458 0.272 -0.005 1 
0.456 0.292 -0.005 1 
0.455 0.303 -0.006 1 
0.456 0.311 -0.006 1 
0.444 0.144 -0.01 1 
0.454 0.044 -0.008 1 
0.461 0.323 -0.005 1 
0.463 0.328 -0.005 1 
0.471 0.344 -0.007 1 
0.476 0.355 -0.008 1 
0.354 0.136 -0.015 1 
0.462 0.024 0.002 1 
0.465 0.127 0.001 1 
0.463 0.182 0 1 
0.465 0.212 0 1 
0.463 0.274 -0.001 1 
0.464 0.326 -0.002 1 
0.456 0.173 -0.005 1 
0.437 -0.006 0.009 1 
0.435 -0.004 0.01 1 
0.429 0.017 0.011 1 
0.409 0.126 -0.015 1 
0.465 0.032 0.004 1 
0.462 0.112 0.004 1 
0.464 0.124 0.004 1 
0.463 0.134 0.004 1 
0.461 0.153 0.004 1 
0.463 0.162 0.003 1 
0.465 0.183 0.003 1 
0.465 0.192 0.002 1 
0.464 0.194 0.003 1 
0.463 0.202 0.003 1 
0.462 0.222 0.002 1 
0.463 0.234 0.002 1 
0.473 0.346 -0.001 1 
0.45 0.003 0.009 1 
0.452 0.013 0.009 1 
0.449 0.018 0.01 1 
0.466 0.273 0.004 1 
0.465 0.285 0.003 1 
0.464 0.303 0.003 1 
0.464 0.313 0.003 1 
0.464 0.319 0.003 1 
0.397 0.086 -0.015 1 
0.466 0.204 0 1 
0.461 -0.007 0.013 1 
0.457 0.003 0.014 1 
0.46 0.013 0.013 1 
0.462 0.024 0.013 1 
0.411 0.204 -0.013 1 
0.384 0.051 -0.014 1 
0.369 0.094 -0.016 1 
0.342 -0.113 0.005 1 
0.465 -0.015 0.015 1 
0.444 0.254 -0.01 1 
0.404 0.273 -0.016 1 
0.43 0.132 -0.011 1 
0.444 0.262 -0.01 1 
0.371 0.236 -0.016 1 
0.392 0.172 -0.015 1 
0.414 0.154 -0.014 1 
0.453 0.143 -0.007 1 
0.393 0.261 -0.017 1 
0.363 0.064 -0.015 1 
0.394 0.103 -0.016 1 
0.474 0.351 -0.011 1 
0.374 0.073 -0.015 1 
0.354 0.164 -0.014 1 
0.463 0.243 0.002 1 
0.333 -0.004 -0.005 1 
0.442 0.153 -0.01 1 
0.418 0.018 -0.007 1 
0.427 0.284 -0.015 1 
0.363 0.133 -0.014 1 
0.454 0.312 -0.008 1 
0.459 0.282 -0.006 1 
0.412 0.062 -0.015 1 
0.443 0.211 -0.009 1 
0.324 -0.105 -0.002 1 
0.411 0.064 -0.014 1 
0.41 0.018 -0.007 1 
0.402 0.173 -0.014 1 
0.363 0.053 -0.015 1 
0.353 0.01 -0.005 1 
0.354 -0.006 0.012 1 
0.412 0.279 -0.016 1 
0.354 0.204 -0.017 1 
0.404 0.139 -0.016 1 
0.465 0.317 0.003 1 
0.373 0.153 -0.017 1 
0.384 0.233 -0.018 1 
0.389 0.124 -0.015 1 
0.414 0.222 -0.014 1 
0.464 0.038 0 1 
0.455 0.191 -0.006 1 
0.463 0.214 0.002 1 
0.361 -0.051 0.003 1 
0.369 -0.167 -0.005 1 
0.374 0.077 -0.015 1 
0.369 -0.041 0.003 1 
0.346 -0.133 0.001 1 
0.464 0.032 0.002 1 
0.391 0.204 -0.016 1 
0.422 0.172 -0.013 1 
0.382 0.016 0.013 1 
0.465 0.263 0.004 1 
0.424 0.134 -0.012 1 
0.393 0.025 -0.011 1 
0.418 0.286 -0.015 1 
0.373 0.064 -0.015 1 
0.346 -0.09 0.004 1 
0.393 0.194 -0.016 1 
0.361 0.164 -0.015 1 
0.406 0.173 -0.013 1 
0.463 0.143 0.004 1 
0.339 -0.082 0.004 1 
0.435 0.308 -0.015 1 
0.333 -0.096 -0.001 1 
0.457 0.142 -0.005 1 
0.39 0.114 -0.015 1 
0.464 0.174 0.003 1 
0.441 0.094 -0.011 1 
0.364 0.169 -0.015 1 
0.45 0.113 -0.008 1 
0.403 0.178 -0.014 1 
0.434 0.303 -0.015 1 
0.423 0.143 -0.012 1 
0.362 0.076 -0.015 1 
0.402 0.109 -0.014 1 
0.441 0.022 -0.008 1 
0.464 0.253 0.004 1 
0.391 0.073 -0.015 1 
0.461 0.221 -0.005 1 
0.413 0.033 -0.012 1 
0.361 0.213 -0.018 1 
0.464 0.256 0.004 1 
0.324 -0.135 -0.003 1 
0.433 0.104 -0.011 1 
0.367 0.014 -0.005 1 
0.367 0.229 -0.017 1 
0.465 0.281 0.003 1 
0.437 0.113 -0.01 1 
0.432 0.034 -0.013 1 
0.359 0.184 -0.015 1 
0.333 -0.146 -0.004 1 
0.452 0.082 -0.008 1 
0.331 -0.086 0 1 
0.342 -0.095 -0.001 1 
0.379 0.223 -0.018 1 
0.363 0.05 -0.014 1 
0.335 -0.078 0.009 1 
0.416 0.014 0.013 1 
0.403 0.083 -0.014 1 
0.442 0.194 -0.008 1 
0.352 -0.026 0.002 1 
0.466 0.273 0.006 1 
0.426 0.003 0.011 1 
0.403 0.253 -0.017 1 
0.34 -0.105 -0.002 1 
0.464 0.284 0.001 1 
0.438 0.172 -0.009 1 
0.408 0.083 -0.014 1 
0.355 0.159 -0.014 1 
0.4 0.2 -0.014 1 
0.322 -0.114 0.01 1 
0.43 0.211 -0.011 1 
0.442 0.224 -0.009 1 
0.457 0.153 -0.005 1 
0.323 -0.075 -0.001 1 
0.333 -0.136 -0.003 1 
0.381 0.173 -0.016 1 
0.305 -0.096 0.016 1 
0.456 0.164 -0.005 1 
0.464 0.293 0.003 1 
0.452 0.173 -0.007 1 
0.344 -0.086 0.003 1 
0.451 0.023 -0.005 1 
0.408 0.214 -0.015 1 
0.457 0.134 -0.005 1 
0.454 0.233 -0.006 1 
0.465 0.31 0.003 1 
0.465 0.124 0.001 1 
0.344 -0.01 0.027 2 
0.275 -0.055 0.052 2 
0.344 -0.02 0.049 2 
0.316 -0.025 0.046 2 
0.295 -0.035 0.049 2 
0.262 -0.085 0.044 2 
0.346 -0.043 0.019 2 
0.255 -0.099 0.051 2 
0.346 -0.034 0.026 2 
0.228 -0.064 0.074 2 
0.225 -0.068 0.084 2 
0.269 -0.055 0.074 2 
0.358 -0.045 0.015 2 
0.292 -0.043 0.078 2 
0.296 -0.044 0.079 2 
0.275 -0.056 0.084 2 
0.254 -0.078 0.054 2 
0.25 -0.085 0.054 2 
0.249 -0.095 0.054 2 
0.267 -0.058 0.084 2 
0.3 -0.071 0.035 2 
0.226 -0.065 0.074 2 
0.334 -0.078 0.025 2 
0.255 -0.075 0.06 2 
0.256 -0.085 0.05 2 
0.342 -0.045 0.02 2 
0.25 -0.065 0.071 2 
0.274 -0.051 0.074 2 
0.276 -0.05 0.074 2 
0.312 -0.046 0.081 2 
0.248 -0.074 0.064 2 
0.328 -0.057 0.027 2 
0.333 -0.014 0.042 2 
0.279 -0.052 0.084 2 
0.339 -0.032 0.025 2 
0.235 -0.061 0.074 2 
0.294 -0.041 0.044 2 
0.29 -0.045 0.044 2 
0.287 -0.055 0.044 2 
0.367 -0.044 0.018 2 
0.285 -0.056 0.045 2 
0.274 -0.054 0.082 2 
0.224 -0.068 0.084 2 
0.26 -0.105 0.049 2 
0.346 -0.075 0.026 2 
0.258 -0.058 0.074 2 
0.361 -0.055 0.025 2 
0.33 -0.017 0.045 2 
0.324 -0.019 0.046 2 
0.314 -0.027 0.042 2 
0.286 -0.045 0.047 2 
0.344 -0.069 0.009 2 
0.304 -0.034 0.044 2 
0.303 -0.035 0.044 2 
0.275 -0.065 0.047 2 
0.339 -0.055 0.015 2 
0.265 -0.075 0.047 2 
0.325 -0.025 0.031 2 
0.284 -0.038 0.064 2 
0.265 -0.055 0.063 2 
0.231 -0.067 0.061 2 
0.31 -0.029 0.064 2 
0.304 -0.032 0.064 2 
0.293 -0.034 0.061 2 
0.293 -0.036 0.064 2 
0.265 -0.098 0.044 2 
0.359 -0.051 0.016 2 
0.344 -0.076 0.026 2 
0.305 -0.045 0.036 2 
0.254 -0.054 0.084 2 
0.264 -0.096 0.044 2 
0.264 -0.054 0.067 2 
0.306 -0.033 0.068 2 
0.246 -0.058 0.084 2 
0.248 -0.075 0.064 2 
0.256 -0.065 0.064 2 
0.261 -0.057 0.064 2 
0.275 -0.045 0.064 2 
0.274 -0.047 0.064 2 
0.244 -0.076 0.063 2 
0.334 -0.073 0.017 2 
0.304 -0.034 0.069 2 
0.294 -0.072 0.034 2 
0.222 -0.061 0.064 2 
0.351 -0.037 0.027 2 
0.344 -0.029 0.012 2 
0.24 -0.069 0.064 2 
0.284 -0.044 0.072 2 
0.319 -0.02 0.056 2 
0.314 -0.024 0.052 2 
0.312 -0.025 0.054 2 
0.304 -0.03 0.054 2 
0.293 -0.034 0.054 2 
0.291 -0.035 0.054 2 
0.284 -0.038 0.054 2 
0.278 -0.045 0.054 2 
0.288 -0.095 0.028 2 
0.299 -0.039 0.074 2 
0.244 -0.065 0.068 2 
0.291 -0.041 0.074 2 
0.274 -0.052 0.054 2 
0.272 -0.055 0.054 2 
0.264 -0.067 0.054 2 
0.259 -0.075 0.054 2 
0.244 -0.086 0.057 2 
0.227 -0.06 0.064 2 
0.234 -0.064 0.084 2 
0.235 -0.064 0.084 2 
0.361 -0.041 0.016 2 
0.311 -0.024 0.059 2 
0.223 -0.066 0.058 2 
0.315 -0.023 0.055 2 
0.248 -0.085 0.058 2 
0.256 -0.055 0.084 2 
0.274 -0.082 0.034 2 
0.353 -0.051 0.016 2 
0.265 -0.065 0.056 2 
0.345 -0.031 0.012 2 
0.224 -0.066 0.074 2 
0.316 -0.025 0.042 2 
0.354 0.01 0.023 2 
0.339 -0.072 0.033 2 
0.365 -0.049 0.01 2 
0.353 -0.006 0.028 2 
0.344 -0.074 0.02 2 
0.338 -0.075 0.033 2 
0.265 -0.09 0.042 2 
0.268 -0.065 0.054 2 
0.245 -0.058 0.074 2 
0.324 -0.085 0.023 2 
0.276 -0.085 0.032 2 
0.342 -0.037 0.031 2 
0.313 -0.044 0.035 2 
0.276 -0.095 0.032 2 
0.274 -0.095 0.033 2 
0.355 0.012 0.024 2 
0.313 -0.045 0.035 2 
0.335 -0.061 0.026 2 
0.358 0.003 0.028 2 
0.345 -0.067 0.024 2 
0.314 -0.076 0.034 2 
0.354 0.01 0.021 2 
0.353 -0.036 0.016 2 
0.288 -0.105 0.033 2 
0.355 -0.043 0.016 2 
0.354 -0.055 0.027 2 
0.321 -0.079 0.032 2 
0.294 -0.118 0.035 2 
0.369 -0.046 0.004 2 
0.378 -0.054 0.004 2 
0.295 -0.049 0.083 2 
0.283 -0.073 0.034 2 
0.304 -0.069 0.039 2 
0.341 -0.03 0.021 2 
0.28 -0.075 0.034 2 
0.327 -0.076 0.036 2 
0.334 -0.026 0.022 2 
0.285 -0.051 0.083 2 
0.354 0.003 0.025 2 
0.328 -0.095 0.015 2 
0.334 -0.016 0.025 2 
0.293 -0.075 0.031 2 
0.335 -0.022 0.023 2 
0.327 -0.085 0.021 2 
0.343 -0.055 0.02 2 
0.325 -0.072 0.037 2 
0.319 -0.067 0.037 2 
0.342 -0.053 0.019 2 
0.276 -0.107 0.042 2 
0.323 -0.084 0.025 2 
0.309 -0.06 0.039 2 
0.32 -0.035 0.035 2 
0.331 -0.015 0.036 2 
0.334 -0.013 0.036 2 
0.224 -0.064 0.07 2 
0.324 -0.026 0.031 2 
0.274 -0.085 0.034 2 
0.275 -0.075 0.037 2 
0.268 -0.075 0.044 2 
0.274 -0.067 0.044 2 
0.286 -0.065 0.042 2 
0.296 -0.045 0.041 2 
0.352 -0.054 0.021 2 
0.269 -0.111 0.045 2 
0.28 -0.065 0.044 2 
0.284 -0.061 0.044 2 
0.308 -0.035 0.041 2 
0.363 -0.047 0.013 2 
0.322 -0.035 0.034 2 
0.357 -0.04 0.026 2 
0.301 -0.077 0.031 2 
0.303 -0.081 0.027 2 
0.333 -0.076 0.016 2 
0.335 -0.086 0.013 2 
0.285 -0.104 0.034 2 
0.334 -0.073 0.016 2 
0.344 -0.052 0.015 2 
0.338 -0.016 0.016 2 
0.346 -0.009 0.028 2 
0.353 -0.06 0.025 2 
0.31 -0.084 0.024 2 
0.351 -0.066 0.02 2 
0.255 -0.065 0.067 2 
0.29 -0.085 0.028 2 
0.358 0.01 0.029 2 
0.292 -0.084 0.027 2 
0.294 -0.085 0.026 2 
0.264 -0.081 0.044 2 
0.296 -0.085 0.026 2 
0.295 -0.055 0.04 2 
0.342 -0.013 0.036 2 
0.346 -0.064 0.01 2 
0.333 -0.085 0.015 2 
0.347 -0.066 0.009 2 
0.309 -0.085 0.024 2 
0.465 -0.009 0.143 3 
0.464 0.119 0.141 3 
0.466 -0.017 0.144 3 
0.462 0.184 0.033 3 
0.466 0.093 0.141 3 
0.463 -0.006 0.143 3 
0.468 -0.077 0.142 3 
0.463 0.003 0.143 3 
0.464 0.011 0.143 3 
0.465 0.014 0.143 3 
0.466 0.022 0.144 3 
0.465 0.027 0.143 3 
0.465 0.209 0.112 3 
0.469 -0.085 0.142 3 
0.464 0.222 0.143 3 
0.465 0.022 0.103 3 
0.465 0.172 0.052 3 
0.467 -0.066 0.144 3 
0.471 0.289 0.152 3 
0.465 -0.015 0.034 3 
0.467 -0.055 0.144 3 
0.466 0.262 0.144 3 
0.466 0.253 0.144 3 
0.466 0.241 0.144 3 
0.465 0.234 0.143 3 
0.464 0.225 0.143 3 
0.466 0.153 0.142 3 
0.467 -0.047 0.144 3 
0.465 0.219 0.143 3 
0.465 -0.028 0.143 3 
0.466 0.214 0.143 3 
0.464 -0.025 0.143 3 
0.466 0.203 0.143 3 
0.465 0.193 0.142 3 
0.465 0.173 0.142 3 
0.467 0.162 0.142 3 
0.463 -0.022 0.143 3 
0.467 -0.025 0.152 3 
0.466 0.082 0.152 3 
0.464 0.062 0.151 3 
0.464 0.054 0.151 3 
0.464 0.041 0.151 3 
0.466 0.014 0.152 3 
0.464 -0.006 0.151 3 
0.465 0.03 0.092 3 
0.466 -0.009 0.152 3 
0.467 -0.017 0.152 3 
0.468 0.093 0.153 3 
0.468 -0.047 0.152 3 
0.47 0.314 0.132 3 
0.468 -0.055 0.153 3 
0.461 0.333 0.062 3 
0.468 -0.066 0.153 3 
0.469 -0.077 0.153 3 
0.469 -0.086 0.153 3 
0.47 -0.097 0.154 3 
0.467 0.163 0.153 3 
0.47 0.304 0.123 3 
0.475 0.345 0.161 3 
0.466 0.218 0.154 3 
0.467 0.204 0.154 3 
0.466 0.194 0.154 3 
0.464 0.187 0.153 3 
0.464 0.184 0.153 3 
0.465 0.179 0.153 3 
0.466 0.173 0.153 3 
0.469 -0.105 0.153 3 
0.467 0.154 0.153 3 
0.467 0.143 0.153 3 
0.465 0.124 0.055 3 
0.466 0.134 0.153 3 
0.466 0.123 0.152 3 
0.465 0.03 0.063 3 
0.465 0.114 0.152 3 
0.467 0.104 0.153 3 
0.467 0.104 0.144 3 
0.482 0.322 0.199 3 
0.464 0.014 0.146 3 
0.464 0.102 0.084 3 
0.463 0.186 0.144 3 
0.463 0.183 0.144 3 
0.463 0.174 0.144 3 
0.466 0.142 0.144 3 
0.466 0.123 0.144 3 
0.466 0.112 0.144 3 
0.471 0.302 0.153 3 
0.464 0.014 0.103 3 
0.467 0.082 0.144 3 
0.464 0.163 0.063 3 
0.465 0.073 0.144 3 
0.464 0.07 0.143 3 
0.463 -0.006 0.092 3 
0.462 0.064 0.143 3 
0.462 0.054 0.143 3 
0.467 0.212 0.152 3 
0.472 -0.117 0.154 3 
0.471 -0.136 0.154 3 
0.461 0.336 0.062 3 
0.469 -0.15 0.154 3 
0.468 0.277 0.154 3 
0.465 0.262 0.152 3 
0.467 0.254 0.153 3 
0.468 0.243 0.153 3 
0.467 0.23 0.152 3 
0.464 0.033 0.143 3 
0.463 0.174 0.15 3 
0.464 -0.001 0.149 3 
0.473 -0.126 0.152 3 
0.471 0.35 0.154 3 
0.472 0.344 0.154 3 
0.473 0.331 0.154 3 
0.472 0.32 0.153 3 
0.472 0.313 0.153 3 
0.47 0.331 0.133 3 
0.464 0.022 0.13 3 
0.464 0.014 0.13 3 
0.464 -0.017 0.13 3 
0.464 -0.038 0.13 3 
0.464 -0.057 0.13 3 
0.465 0.043 0.122 3 
0.465 0.046 0.122 3 
0.47 0.348 0.133 3 
0.468 0.339 0.133 3 
0.465 0.243 0.132 3 
0.47 0.321 0.132 3 
0.469 0.343 0.124 3 
0.465 0.092 0.122 3 
0.465 0.1 0.122 3 
0.464 0.236 0.129 3 
0.466 0.014 0.063 3 
0.464 0.103 0.122 3 
0.466 0.123 0.122 3 
0.465 0.119 0.128 3 
0.465 -0.017 0.122 3 
0.468 -0.115 0.134 3 
0.466 -0.126 0.134 3 
0.464 -0.02 0.114 3 
0.466 -0.066 0.122 3 
0.464 -0.022 0.05 3 
0.465 -0.055 0.122 3 
0.465 -0.049 0.122 3 
0.468 0.299 0.134 3 
0.468 0.292 0.134 3 
0.466 0.134 0.122 3 
0.467 0.313 0.074 3 
0.468 0.283 0.134 3 
0.467 0.272 0.133 3 
0.466 0.262 0.133 3 
0.464 0.13 0.022 3 
0.464 -0.028 0.052 3 
0.465 0.003 0.122 3 
0.464 0.035 0.122 3 
0.466 0.253 0.133 3 
0.463 -0.006 0.124 3 
0.463 0.022 0.124 3 
0.465 0.213 0.123 3 
0.464 0.224 0.123 3 
0.464 -0.046 0.114 3 
0.464 0.233 0.123 3 
0.465 0.243 0.124 3 
0.464 0.014 0.124 3 
0.465 0.006 0.124 3 
0.464 0.003 0.124 3 
0.464 0.027 0.124 3 
0.465 -0.014 0.124 3 
0.465 -0.03 0.124 3 
0.464 -0.033 0.124 3 
0.464 -0.036 0.124 3 
0.463 -0.046 0.124 3 
0.465 0.192 0.06 3 
0.463 0.162 0.033 3 
0.466 0.253 0.124 3 
0.466 0.256 0.124 3 
0.465 0.192 0.123 3 
0.465 0.153 0.122 3 
0.465 0.046 0.127 3 
0.464 0.027 0.127 3 
0.465 -0.009 0.127 3 
0.464 -0.046 0.127 3 
0.464 0.16 0.122 3 
0.465 0.164 0.123 3 
0.465 0.172 0.123 3 
0.465 0.184 0.123 3 
0.469 -0.096 0.134 3 
0.464 0.152 0.092 3 
0.466 0.204 0.123 3 
0.465 0.216 0.126 3 
0.463 0.105 0.124 3 
0.464 0.081 0.124 3 
0.464 0.073 0.124 3 
0.464 0.062 0.124 3 
0.464 0.054 0.124 3 
0.462 0.229 0.134 3 
0.463 0.152 0.136 3 
0.47 0.314 0.123 3 
0.469 0.323 0.123 3 
0.47 0.334 0.124 3 
0.458 0.147 0.134 3 
0.464 0.141 0.136 3 
0.464 0.127 0.136 3 
0.461 0.048 0.134 3 
0.465 0.224 0.032 3 
0.464 0.213 0.137 3 
0.462 0.223 0.134 3 
0.465 0.208 0.134 3 
0.464 0.204 0.134 3 
0.466 0.199 0.134 3 
0.468 0.346 0.124 3 
0.466 0.193 0.134 3 
0.466 0.184 0.134 3 
0.466 0.173 0.134 3 
0.468 0.163 0.134 3 
0.469 0.274 0.142 3 
0.469 -0.116 0.142 3 
0.472 -0.125 0.143 3 
0.466 -0.145 0.142 3 
0.471 0.322 0.144 3 
0.47 0.314 0.144 3 
0.469 0.303 0.143 3 
0.47 0.294 0.143 3 
0.469 0.281 0.143 3 
0.466 -0.017 0.084 3 
0.467 0.154 0.134 3 
0.465 0.149 0.063 3 
0.465 0.184 0.139 3 
0.464 0.114 0.138 3 
0.465 0.035 0.138 3 
0.468 0.345 0.103 3 
0.465 0.001 0.138 3 
0.469 0.347 0.142 3 
0.47 0.342 0.142 3 
0.472 0.333 0.142 3 
0.465 -0.017 0.132 3 
0.464 0.043 0.132 3 
0.465 0.038 0.133 3 
0.465 0.033 0.133 3 
0.465 0.022 0.133 3 
0.465 0.014 0.133 3 
0.465 0.003 0.132 3 
0.464 0.001 0.132 3 
0.463 -0.006 0.132 3 
0.465 0.133 0.044 3 
0.464 0.062 0.132 3 
0.466 -0.025 0.133 3 
0.467 0.263 0.113 3 
0.465 -0.036 0.133 3 
0.465 -0.047 0.133 3 
0.465 -0.055 0.133 3 
0.465 -0.065 0.133 3 
0.466 -0.076 0.133 3 
0.466 -0.076 0.122 3 
0.467 -0.085 0.133 3 
0.461 0.112 0.132 3 
0.467 0.143 0.134 3 
0.467 -0.107 0.123 3 
0.465 0.133 0.133 3 
0.464 0.127 0.133 3 
0.465 0.244 0.082 3 
0.468 -0.096 0.123 3 
0.466 -0.085 0.122 3 
0.465 0.059 0.06 3 
0.463 0.124 0.133 3 
0.469 -0.105 0.142 3 
0.464 0.103 0.133 3 
0.464 -0.036 0.092 3 
0.465 0.1 0.133 3 
0.465 0.092 0.133 3 
0.467 0.082 0.133 3 
0.465 -0.007 0.084 3 
0.466 0.073 0.133 3 
0.464 0.065 0.132 3 
0.471 0.21 0.184 3 
0.482 -0.165 0.191 3 
0.473 -0.175 0.187 3 
0.481 0.351 0.195 3 
0.48 0.346 0.194 3 
0.48 0.339 0.194 3 
0.481 0.333 0.194 3 
0.463 0.314 0.014 3 
0.482 0.322 0.193 3 
0.481 0.311 0.192 3 
0.478 0.284 0.19 3 
0.474 -0.107 0.186 3 
0.464 0.212 0.115 3 
0.47 0.203 0.184 3 
0.468 0.193 0.183 3 
0.471 0.183 0.184 3 
0.472 0.172 0.184 3 
0.471 -0.136 0.143 3 
0.471 0.163 0.183 3 
0.471 0.154 0.183 3 
0.464 0.201 0.137 3 
0.466 0.003 0.182 3 
0.468 0.083 0.183 3 
0.465 0.043 0.074 3 
0.471 0.07 0.184 3 
0.47 0.061 0.184 3 
0.469 0.053 0.183 3 
0.468 0.044 0.183 3 
0.468 0.113 0.164 3 
0.468 0.033 0.183 3 
0.471 0.023 0.184 3 
0.471 0.014 0.184 3 
0.472 0.143 0.183 3 
0.465 0.253 0.074 3 
0.464 0.043 0.052 3 
0.468 -0.006 0.183 3 
0.469 -0.015 0.183 3 
0.47 -0.026 0.184 3 
0.47 -0.037 0.172 3 
0.472 -0.053 0.184 3 
0.472 -0.056 0.184 3 
0.473 -0.095 0.185 3 
0.477 -0.137 0.182 3 
0.469 0.233 0.181 3 
0.465 0.161 0.084 3 
0.47 0.224 0.182 3 
0.464 0.083 0.074 3 
0.474 0.112 0.18 3 
0.464 0.001 0.176 3 
0.475 -0.102 0.181 3 
0.464 0.197 0.104 3 
0.475 -0.11 0.181 3 
0.476 -0.125 0.181 3 
0.469 0.242 0.182 3 
0.477 -0.145 0.182 3 
0.478 -0.157 0.183 3 
0.477 -0.166 0.183 3 
0.473 -0.166 0.181 3 
0.476 0.299 0.184 3 
0.476 0.292 0.183 3 
0.476 0.282 0.183 3 
0.474 0.277 0.182 3 
0.474 0.274 0.182 3 
0.472 -0.076 0.182 3 
0.471 0.134 0.182 3 
0.471 0.123 0.182 3 
0.469 -0.105 0.134 3 
0.475 0.113 0.184 3 
0.476 0.102 0.184 3 
0.465 -0.004 0.154 3 
0.474 0.096 0.183 3 
0.472 -0.037 0.182 3 
0.473 -0.067 0.182 3 
0.471 0.092 0.184 3 
0.472 -0.087 0.182 3 
0.474 -0.096 0.183 3 
0.463 0.043 0.143 3 
0.473 -0.107 0.183 3 
0.474 -0.115 0.183 3 
0.476 -0.122 0.184 3 
0.474 0.271 0.185 3 
0.473 0.264 0.184 3 
0.47 0.252 0.183 3 
0.464 0.229 0.027 3 
0.47 0.151 0.188 3 
0.465 0.084 0.122 3 
0.471 0.143 0.188 3 
0.471 0.134 0.188 3 
0.464 0.062 0.114 3 
0.472 0.123 0.188 3 
0.47 0.072 0.187 3 
0.474 0.113 0.189 3 
0.472 0.281 0.173 3 
0.475 0.11 0.189 3 
0.47 0.163 0.189 3 
0.475 0.102 0.189 3 
0.461 0.203 0.014 3 
0.473 0.095 0.188 3 
0.464 0.076 0.157 3 
0.472 0.092 0.188 3 
0.469 0.083 0.186 3 
0.469 0.064 0.186 3 
0.469 0.053 0.186 3 
0.472 0.042 0.187 3 
0.473 0.245 0.192 3 
0.479 0.309 0.197 3 
0.479 0.302 0.197 3 
0.481 0.294 0.198 3 
0.464 0.094 0.084 3 
0.478 0.265 0.195 3 
0.477 0.261 0.194 3 
0.478 0.259 0.195 3 
0.466 0.134 0.144 3 
0.475 0.253 0.193 3 
0.471 0.034 0.187 3 
0.473 0.242 0.192 3 
0.47 0.234 0.191 3 
0.469 0.224 0.19 3 
0.466 -0.036 0.144 3 
0.472 0.211 0.191 3 
0.473 0.203 0.191 3 
0.471 0.192 0.19 3 
0.474 0.182 0.191 3 
0.473 0.173 0.19 3 
0.484 -0.179 0.195 3 
0.466 -0.039 0.154 3 
0.482 -0.136 0.193 3 
0.464 0.033 0.154 3 
0.464 0.094 0.103 3 
0.482 -0.145 0.193 3 
0.484 -0.155 0.194 3 
0.486 -0.159 0.195 3 
0.487 -0.168 0.196 3 
0.486 -0.177 0.195 3 
0.465 0.203 0.082 3 
0.479 -0.126 0.191 3 
0.481 -0.18 0.193 3 
0.464 0.223 0.043 3 
0.484 0.34 0.198 3 
0.48 0.303 0.194 3 
0.465 0.234 0.121 3 
0.48 0.293 0.194 3 
0.465 0.288 0.012 3 
0.478 0.271 0.192 3 
0.474 0.259 0.19 3 
0.473 -0.048 0.188 3 
0.472 0.023 0.187 3 
0.47 0.012 0.186 3 
0.468 0.003 0.186 3 
0.471 -0.007 0.187 3 
0.471 -0.015 0.187 3 
0.472 -0.026 0.187 3 
0.474 -0.037 0.188 3 
0.475 -0.043 0.189 3 
0.475 -0.046 0.189 3 
0.467 0.08 0.174 3 
0.472 -0.056 0.187 3 
0.473 -0.065 0.188 3 
0.47 0.212 0.173 3 
0.474 -0.076 0.188 3 
0.466 0.134 0.164 3 
0.474 -0.087 0.188 3 
0.476 -0.096 0.189 3 
0.476 -0.108 0.19 3 
0.477 -0.117 0.19 3 
0.469 -0.086 0.164 3 
0.465 0.003 0.162 3 
0.465 -0.006 0.162 3 
0.463 -0.012 0.162 3 
0.466 -0.015 0.163 3 
0.468 -0.025 0.163 3 
0.466 -0.036 0.163 3 
0.468 -0.047 0.163 3 
0.469 -0.055 0.164 3 
0.468 -0.066 0.164 3 
0.468 -0.077 0.164 3 
0.467 0.014 0.163 3 
0.471 0.351 0.17 3 
0.473 0.315 0.168 3 
0.467 0.255 0.164 3 
0.467 0.273 0.153 3 
0.467 0.252 0.164 3 
0.466 0.242 0.164 3 
0.466 0.224 0.163 3 
0.469 0.214 0.164 3 
0.468 0.204 0.163 3 
0.467 0.124 0.164 3 
0.473 0.355 0.174 3 
0.475 0.354 0.174 3 
0.477 0.344 0.174 3 
0.465 0.024 0.063 3 
0.476 0.332 0.173 3 
0.475 0.324 0.172 3 
0.465 0.331 0.019 3 
0.474 0.313 0.172 3 
0.468 0.144 0.164 3 
0.466 0.191 0.162 3 
0.468 0.104 0.164 3 
0.467 0.093 0.164 3 
0.467 0.082 0.163 3 
0.466 0.074 0.163 3 
0.466 0.063 0.163 3 
0.465 0.219 0.123 3 
0.467 0.044 0.163 3 
0.467 0.033 0.163 3 
0.467 0.022 0.163 3 
0.465 0.073 0.154 3 
0.464 0.176 0.159 3 
0.464 0.073 0.157 3 
0.471 0.351 0.164 3 
0.474 0.344 0.164 3 
0.475 0.338 0.164 3 
0.475 0.334 0.164 3 
0.474 0.326 0.163 3 
0.474 0.323 0.163 3 
0.472 0.31 0.162 3 
0.464 0.076 0.154 3 
0.47 0.273 0.163 3 
0.464 0.07 0.154 3 
0.463 0.339 0.054 3 
0.464 0.08 0.004 3 
0.465 0.063 0.154 3 
0.464 0.064 0.073 3 
0.464 -0.02 0.074 3 
0.465 0.054 0.154 3 
0.465 0.044 0.154 3 
0.465 0.027 0.154 3 
0.472 -0.117 0.163 3 
0.466 0.183 0.162 3 
0.467 0.172 0.162 3 
0.469 0.164 0.162 3 
0.465 -0.036 0.103 3 
0.467 0.281 0.082 3 
0.469 0.153 0.162 3 
0.472 -0.095 0.163 3 
0.471 -0.106 0.162 3 
0.463 0.282 0.021 3 
0.463 -0.001 0.164 3 
0.472 -0.126 0.163 3 
0.471 -0.137 0.163 3 
0.472 -0.145 0.163 3 
0.468 -0.155 0.162 3 
0.471 0.344 0.166 3 
0.472 0.297 0.164 3 
0.472 0.294 0.164 3 
0.466 0.263 0.063 3 
0.472 0.284 0.164 3 
0.469 0.133 0.173 3 
0.478 0.324 0.183 3 
0.477 0.313 0.182 3 
0.474 0.293 0.18 3 
0.468 0.199 0.174 3 
0.467 0.192 0.174 3 
0.467 0.184 0.174 3 
0.469 0.173 0.174 3 
0.47 0.162 0.174 3 
0.471 0.154 0.174 3 
0.468 0.141 0.173 3 
0.477 0.334 0.183 3 
0.469 0.122 0.173 3 
0.469 -0.096 0.142 3 
0.47 0.114 0.173 3 
0.471 0.103 0.173 3 
0.466 0.142 0.123 3 
0.47 0.094 0.173 3 
0.467 0.074 0.172 3 
0.469 0.022 0.172 3 
0.464 0.006 0.17 3 
0.464 0.003 0.173 3 
0.465 0.057 0.173 3 
0.465 0.052 0.173 3 
0.466 0.224 0.054 3 
0.463 0.049 0.173 3 
0.464 0.044 0.173 3 
0.465 0.038 0.173 3 
0.465 0.033 0.173 3 
0.466 0.052 0.163 3 
0.467 0.012 0.174 3 
0.469 -0.015 0.172 3 
0.465 0.232 0.074 3 
0.465 0.001 0.173 3 
0.466 -0.006 0.174 3 
0.474 -0.127 0.178 3 
0.474 -0.161 0.179 3 
0.463 0.212 0.134 3 
0.478 0.358 0.185 3 
0.476 0.352 0.184 3 
0.478 0.342 0.184 3 
0.473 -0.138 0.172 3 
0.474 0.31 0.177 3 
0.47 0.261 0.174 3 
0.462 0.072 0.004 3 
0.469 0.254 0.174 3 
0.464 0.212 0.112 3 
0.467 0.243 0.172 3 
0.469 0.232 0.173 3 
0.471 0.222 0.173 3 
0.464 -0.03 0.127 3 
0.472 -0.126 0.171 3 
0.476 0.355 0.181 3 
0.475 -0.141 0.173 3 
0.475 -0.147 0.173 3 
0.474 -0.152 0.173 3 
0.474 0.353 0.177 3 
0.465 -0.009 0.06 3 
0.474 0.303 0.174 3 
0.475 0.301 0.174 3 
0.473 0.292 0.173 3 
0.472 0.272 0.172 3 
0.472 -0.087 0.174 3 
0.47 -0.026 0.173 3 
0.46 0.103 0.013 3 
0.47 -0.045 0.172 3 
0.469 -0.056 0.172 3 
0.465 0.003 0.103 3 
0.469 -0.066 0.172 3 
0.465 0.102 0.044 3 
0.462 0.213 0.014 3 
0.469 -0.075 0.172 3 
0.465 0.022 0.154 3 
0.475 -0.093 0.175 3 
0.466 0.233 0.163 3 
0.473 -0.095 0.174 3 
0.473 -0.106 0.174 3 
0.464 0.242 0.101 3 
0.473 -0.115 0.174 3 
0.47 -0.162 0.174 3 
0.474 0.357 0.18 3 
0.464 0.07 0.044 3 
0.464 0.113 0.052 3 
0.466 0.288 0.051 3 
0.464 0.232 0.052 3 
0.464 0.197 0.052 3 
0.464 0.163 0.052 3 
0.464 0.154 0.052 3 
0.464 0.143 0.052 3 
0.465 0.141 0.052 3 
0.466 0.133 0.052 3 
0.465 0.124 0.052 3 
0.464 0.121 0.052 3 
0.465 0.177 0.054 3 
0.465 0.1 0.052 3 
0.463 0.083 0.052 3 
0.464 0.072 0.052 3 
0.465 0.056 0.052 3 
0.465 0.038 0.052 3 
0.464 0.032 0.052 3 
0.465 0.03 0.052 3 
0.465 0.024 0.052 3 
0.466 0.014 0.052 3 
0.465 0.262 0.054 3 
0.464 0.143 0.057 3 
0.465 0.331 0.054 3 
0.465 0.324 0.054 3 
0.464 0.313 0.054 3 
0.464 0.303 0.054 3 
0.463 0.293 0.054 3 
0.464 0.283 0.054 3 
0.465 0.278 0.054 3 
0.465 0.272 0.054 3 
0.464 0 0.052 3 
0.465 0.253 0.054 3 
0.465 0.244 0.054 3 
0.464 0.24 0.054 3 
0.465 0.232 0.054 3 
0.465 0.212 0.054 3 
0.465 0.203 0.054 3 
0.464 0.194 0.054 3 
0.465 0.189 0.054 3 
0.464 0.182 0.054 3 
0.465 0.218 0.043 3 
0.467 0.283 0.043 3 
0.466 0.273 0.043 3 
0.465 0.262 0.043 3 
0.464 0.255 0.043 3 
0.464 0.223 0.024 3 
0.464 0.252 0.043 3 
0.464 0.243 0.043 3 
0.465 0.238 0.043 3 
0.464 0.232 0.043 3 
0.465 0.229 0.043 3 
0.465 0.304 0.043 3 
0.465 0.212 0.043 3 
0.464 0.208 0.043 3 
0.464 0.202 0.043 3 
0.463 0.193 0.044 3 
0.463 0.182 0.044 3 
0.465 0.18 0.044 3 
0.465 0.172 0.044 3 
0.464 0.166 0.044 3 
0.465 0.163 0.044 3 
0.464 0.024 0.05 3 
0.464 -0.007 0.052 3 
0.465 -0.012 0.052 3 
0.465 -0.015 0.052 3 
0.465 -0.025 0.052 3 
0.464 0.283 0.012 3 
0.464 0.252 0.049 3 
0.464 0.223 0.049 3 
0.464 0.211 0.049 3 
0.465 0.094 0.049 3 
0.462 0.093 0.004 3 
0.464 0.323 0.045 3 
0.465 0.301 0.045 3 
0.464 0.255 0.046 3 
0.465 0.163 0.046 3 
0.465 0.152 0.046 3 
0.464 0.13 0.047 3 
0.461 0.336 0.042 3 
0.462 0.334 0.042 3 
0.464 0.313 0.043 3 
0.465 0.324 0.062 3 
0.464 0.038 0.071 3 
0.464 0.303 0.068 3 
0.464 0.294 0.068 3 
0.464 0.157 0.068 3 
0.464 0.154 0.068 3 
0.465 0.062 0.068 3 
0.465 0.024 0.068 3 
0.464 -0.004 0.068 3 
0.465 0.105 0.065 3 
0.465 0.331 0.062 3 
0.463 0.053 0.071 3 
0.463 0.053 0.044 3 
0.464 0.316 0.062 3 
0.464 0.313 0.062 3 
0.463 0.302 0.062 3 
0.462 0.292 0.062 3 
0.463 0.283 0.062 3 
0.465 0.224 0.021 3 
0.465 0.275 0.063 3 
0.466 0.272 0.063 3 
0.465 -0.007 0.074 3 
0.463 0.094 0.073 3 
0.464 0.073 0.074 3 
0.465 0.07 0.074 3 
0.465 0.054 0.074 3 
0.464 0.032 0.074 3 
0.465 0.027 0.074 3 
0.464 0.024 0.074 3 
0.465 0.014 0.074 3 
0.466 0.003 0.074 3 
0.466 0.254 0.063 3 
0.465 -0.015 0.074 3 
0.463 -0.025 0.074 3 
0.463 -0.036 0.074 3 
0.463 -0.046 0.074 3 
0.464 0.333 0.071 3 
0.464 0.183 0.071 3 
0.465 0.152 0.033 3 
0.465 0.094 0.071 3 
0.465 0.084 0.071 3 
0.464 -0.036 0.063 3 
0.466 0.073 0.063 3 
0.464 0.064 0.063 3 
0.464 0.043 0.063 3 
0.464 0.032 0.063 3 
0.466 0.003 0.063 3 
0.464 -0.001 0.063 3 
0.464 -0.007 0.063 3 
0.465 -0.015 0.063 3 
0.464 -0.02 0.063 3 
0.466 0.081 0.063 3 
0.466 0.312 0.06 3 
0.465 0.301 0.06 3 
0.461 0.064 0.013 3 
0.464 0.274 0.06 3 
0.465 0.177 0.06 3 
0.465 0.133 0.06 3 
0.464 0.1 0.06 3 
0.465 -0.025 0.06 3 
0.465 0.337 0.057 3 
0.464 0.174 0.063 3 
0.465 0.003 0.052 3 
0.465 0.244 0.063 3 
0.466 0.254 0.021 3 
0.466 0.224 0.063 3 
0.467 0.213 0.063 3 
0.465 0.203 0.063 3 
0.464 0.197 0.063 3 
0.464 0.194 0.063 3 
0.464 0.182 0.063 3 
0.464 0.16 0.044 3 
0.464 0.154 0.063 3 
0.464 0.132 0.063 3 
0.464 0.124 0.063 3 
0.463 0.113 0.063 3 
0.465 0.105 0.063 3 
0.465 0.103 0.063 3 
0.465 0.094 0.063 3 
0.464 0.091 0.063 3 
0.464 0.083 0.063 3 
0.462 0.082 0.023 3 
0.461 0.172 0.022 3 
0.462 0.162 0.022 3 
0.464 0.014 0.023 3 
0.463 0.154 0.022 3 
0.464 0.143 0.022 3 
0.465 0.136 0.022 3 
0.465 0.133 0.022 3 
0.463 0.112 0.023 3 
0.462 0.104 0.023 3 
0.462 0.093 0.023 3 
0.46 0.183 0.022 3 
0.462 0.074 0.023 3 
0.463 0.064 0.023 3 
0.462 0.053 0.023 3 
0.462 0.043 0.023 3 
0.463 0.032 0.023 3 
0.464 0.024 0.023 3 
0.464 0.003 0.023 3 
0.465 -0.001 0.023 3 
0.465 -0.007 0.023 3 
0.465 0.272 0.023 3 
0.464 0.323 0.022 3 
0.465 0.316 0.023 3 
0.464 0.312 0.023 3 
0.465 0.307 0.023 3 
0.465 0.303 0.023 3 
0.464 0.299 0.023 3 
0.465 0.294 0.023 3 
0.464 0.286 0.023 3 
0.465 0.284 0.023 3 
0.464 -0.012 0.023 3 
0.464 0.262 0.024 3 
0.464 0.253 0.024 3 
0.464 0.244 0.024 3 
0.465 0.238 0.024 3 
0.464 0.232 0.024 3 
0.463 0.199 0.024 3 
0.466 0.263 0.021 3 
0.465 0.233 0.021 3 
0.46 0.191 0.022 3 
0.463 0.043 0.012 3 
0.462 0.154 0.014 3 
0.462 0.142 0.014 3 
0.462 0.134 0.014 3 
0.465 0.284 0.009 3 
0.462 0.123 0.012 3 
0.461 0.114 0.012 3 
0.46 0.093 0.013 3 
0.461 0.082 0.013 3 
0.461 0.074 0.013 3 
0.462 0.053 0.013 3 
0.461 0.172 0.014 3 
0.476 0.354 0.003 3 
0.468 0.342 0.004 3 
0.467 0.329 0.002 3 
0.465 0.048 0.007 3 
0.465 0.083 0.004 3 
0.464 0.056 0.004 3 
0.464 0.054 0.004 3 
0.465 0.051 0.004 3 
0.466 0.043 0.004 3 
0.464 0.303 0.012 3 
0.464 -0.015 0.023 3 
0.465 0.022 0.02 3 
0.463 0.329 0.014 3 
0.463 0.324 0.014 3 
0.465 0.304 0.014 3 
0.469 0.346 0.01 3 
0.467 0.332 0.011 3 
0.465 0.323 0.011 3 
0.465 0.313 0.011 3 
0.461 0.33 0.023 3 
0.464 0.293 0.012 3 
0.464 0.274 0.012 3 
0.463 0.261 0.013 3 
0.462 0.254 0.013 3 
0.462 0.242 0.013 3 
0.462 0.233 0.013 3 
0.462 0.224 0.013 3 
0.46 0.191 0.014 3 
0.461 0.184 0.014 3 
0.461 0.336 0.034 3 
0.465 -0.015 0.044 3 
0.465 -0.025 0.044 3 
0.464 0.265 0.04 3 
0.464 0.149 0.041 3 
0.465 0.081 0.041 3 
0.464 -0.017 0.042 3 
0.464 -0.028 0.042 3 
0.464 0.302 0.037 3 
0.464 0.143 0.038 3 
0.464 0.132 0.038 3 
0.466 -0.007 0.044 3 
0.461 0.333 0.034 3 
0.462 0.321 0.034 3 
0.463 0.312 0.034 3 
0.465 0.306 0.034 3 
0.466 0.304 0.034 3 
0.466 0.291 0.034 3 
0.466 0.282 0.034 3 
0.466 0.273 0.034 3 
0.464 -0.009 0.036 3 
0.465 0.073 0.044 3 
0.466 0.153 0.044 3 
0.465 0.144 0.044 3 
0.465 0.124 0.044 3 
0.464 0.121 0.044 3 
0.463 0.113 0.044 3 
0.464 0.096 0.044 3 
0.465 0.094 0.044 3 
0.464 0.091 0.044 3 
0.464 0.083 0.044 3 
0.465 0.331 0.031 3 
0.465 0.064 0.044 3 
0.464 0.062 0.044 3 
0.464 0.043 0.044 3 
0.464 0.032 0.044 3 
0.465 0.027 0.044 3 
0.464 0.024 0.044 3 
0.465 0.022 0.044 3 
0.465 0.014 0.044 3 
0.467 0.003 0.044 3 
0.465 0.235 0.029 3 
0.464 0.043 0.034 3 
0.465 0.032 0.034 3 
0.465 0.024 0.034 3 
0.466 0.014 0.034 3 
0.466 0.003 0.034 3 
0.466 -0.007 0.034 3 
0.464 -0.02 0.034 3 
0.464 0.302 0.029 3 
0.465 0.263 0.029 3 
0.463 0.053 0.034 3 
0.464 0.022 0.031 3 
0.465 0.144 0.03 3 
0.465 0.316 0.025 3 
0.464 0.28 0.026 3 
0.465 0.253 0.026 3 
0.465 0.133 0.028 3 
0.464 0.032 0.028 3 
0.464 -0.012 0.028 3 
0.465 0.338 0.022 3 
0.463 0.173 0.033 3 
0.463 0.261 0.032 3 
0.462 0.254 0.032 3 
0.463 0.243 0.032 3 
0.465 0.232 0.032 3 
0.464 0.217 0.032 3 
0.464 0.208 0.033 3 
0.465 0.203 0.032 3 
0.464 0.2 0.033 3 
0.463 0.193 0.033 3 
0.464 0.102 0.073 3 
0.465 0.155 0.033 3 
0.464 0.146 0.033 3 
0.464 0.143 0.033 3 
0.464 0.132 0.033 3 
0.463 0.124 0.033 3 
0.464 0.102 0.033 3 
0.464 0.094 0.033 3 
0.463 0.083 0.034 3 
0.464 0.072 0.034 3 
0.464 0.073 0.103 3 
0.464 0.163 0.103 3 
0.465 0.152 0.103 3 
0.466 0.142 0.103 3 
0.465 0.133 0.103 3 
0.465 0.122 0.103 3 
0.464 0.113 0.103 3 
0.464 0.102 0.103 3 
0.465 0.086 0.103 3 
0.465 0.084 0.103 3 
0.461 0.098 0.004 3 
0.465 0.169 0.103 3 
0.463 0.064 0.103 3 
0.462 0.338 0.022 3 
0.463 0.054 0.103 3 
0.463 0.043 0.103 3 
0.465 0.033 0.103 3 
0.464 0.027 0.103 3 
0.465 0.009 0.103 3 
0.464 0.001 0.103 3 
0.463 -0.006 0.103 3 
0.465 0.242 0.104 3 
0.465 0.025 0.106 3 
0.465 0.019 0.106 3 
0.465 0.001 0.106 3 
0.462 0.053 0.063 3 
0.464 0.274 0.051 3 
0.464 -0.084 0.106 3 
0.464 0.257 0.104 3 
0.465 0.255 0.104 3 
0.464 0.251 0.104 3 
0.464 -0.017 0.103 3 
0.465 0.233 0.104 3 
0.465 0.221 0.104 3 
0.465 0.212 0.104 3 
0.464 0.206 0.104 3 
0.465 0.203 0.104 3 
0.464 0.191 0.104 3 
0.463 0.182 0.103 3 
0.465 0.175 0.104 3 
0.464 0.171 0.103 3 
0.464 -0.036 0.095 3 
0.465 0.095 0.1 3 
0.465 0.073 0.1 3 
0.464 0.019 0.1 3 
0.464 -0.025 0.063 3 
0.464 0.144 0.098 3 
0.464 0.132 0.098 3 
0.464 0.081 0.098 3 
0.465 -0.02 0.098 3 
0.464 0.054 0.052 3 
0.463 -0.073 0.098 3 
0.464 0.124 0.1 3 
0.467 0.344 0.094 3 
0.469 0.325 0.094 3 
0.468 0.321 0.094 3 
0.468 0.314 0.094 3 
0.467 0.303 0.094 3 
0.466 0.293 0.094 3 
0.467 0.284 0.094 3 
0.467 0.271 0.094 3 
0.466 0.264 0.093 3 
0.465 0.035 0.034 3 
0.464 -0.025 0.103 3 
0.465 -0.028 0.103 3 
0.464 -0.046 0.103 3 
0.465 -0.049 0.103 3 
0.466 -0.055 0.103 3 
0.466 -0.066 0.103 3 
0.465 -0.076 0.103 3 
0.464 -0.078 0.103 3 
0.451 -0.083 0.101 3 
0.464 0.094 0.106 3 
0.467 0.34 0.103 3 
0.47 0.333 0.103 3 
0.469 0.322 0.103 3 
0.468 0.314 0.103 3 
0.466 0.302 0.102 3 
0.466 0.293 0.102 3 
0.467 0.284 0.102 3 
0.467 0.272 0.102 3 
0.464 0.152 0.101 3 
0.463 0.213 0.024 3 
0.465 0.122 0.114 3 
0.465 0.114 0.114 3 
0.464 0.103 0.114 3 
0.466 0.095 0.114 3 
0.465 0.092 0.114 3 
0.465 0.084 0.114 3 
0.464 0.081 0.114 3 
0.464 0.073 0.114 3 
0.463 0.054 0.113 3 
0.464 0.043 0.114 3 
0.465 0.133 0.114 3 
0.463 0.032 0.113 3 
0.465 0.245 0.104 3 
0.464 0.024 0.113 3 
0.464 0.014 0.113 3 
0.465 0.009 0.114 3 
0.464 0.003 0.113 3 
0.461 0.161 0.014 3 
0.464 -0.006 0.113 3 
0.465 -0.017 0.114 3 
0.464 0.189 0.114 3 
0.466 0.284 0.122 3 
0.466 0.274 0.122 3 
0.464 0.177 0.12 3 
0.466 0.114 0.12 3 
0.464 0.089 0.119 3 
0.464 0.197 0.117 3 
0.464 0.189 0.117 3 
0.464 0.172 0.117 3 
0.464 0.341 0.117 3 
0.465 -0.025 0.114 3 
0.464 0.183 0.114 3 
0.464 0.174 0.114 3 
0.465 0.172 0.114 3 
0.465 0.164 0.114 3 
0.465 0.153 0.114 3 
0.465 0.204 0.112 3 
0.464 0.146 0.114 3 
0.465 0.144 0.114 3 
0.464 0.141 0.114 3 
0.463 -0.097 0.111 3 
0.465 0.221 0.112 3 
0.464 0.323 0.042 3 
0.465 0.192 0.112 3 
0.464 0.113 0.111 3 
0.464 0.094 0.052 3 
0.465 0.049 0.111 3 
0.465 0.043 0.111 3 
0.465 -0.009 0.111 3 
0.464 -0.092 0.111 3 
0.465 0.234 0.113 3 
0.465 0.338 0.112 3 
0.467 0.334 0.112 3 
0.468 0.324 0.112 3 
0.464 0.22 0.109 3 
0.464 0.2 0.109 3 
0.465 0.068 0.108 3 
0.465 0.062 0.108 3 
0.464 0.241 0.082 3 
0.464 0.116 0.106 3 
0.469 0.309 0.114 3 
0.464 -0.028 0.114 3 
0.462 -0.035 0.113 3 
0.465 -0.049 0.114 3 
0.465 -0.055 0.114 3 
0.467 -0.066 0.114 3 
0.466 -0.076 0.114 3 
0.467 -0.085 0.114 3 
0.465 -0.095 0.114 3 
0.463 0.34 0.114 3 
0.465 0.103 0.071 3 
0.469 0.302 0.114 3 
0.467 0.291 0.114 3 
0.462 0.032 0.013 3 
0.466 0.283 0.113 3 
0.467 0.272 0.113 3 
0.465 0.252 0.113 3 
0.467 0.292 0.043 3 
0.466 0.243 0.113 3 
0.464 0.072 0.06 3 
0.464 0.274 0.023 3 
0.465 0.334 0.083 3 
0.468 0.324 0.083 3 
0.469 0.312 0.083 3 
0.468 0.304 0.083 3 
0.468 0.294 0.083 3 
0.466 0.274 0.082 3 
0.463 0.262 0.082 3 
0.464 0.253 0.082 3 
0.465 0.232 0.082 3 
0.466 0.224 0.082 3 
0.464 0.34 0.083 3 
0.466 0.213 0.082 3 
0.464 0.197 0.082 3 
0.464 0.194 0.082 3 
0.464 0.183 0.082 3 
0.464 0.166 0.082 3 
0.463 0.332 0.054 3 
0.464 0.032 0.081 3 
0.464 0.024 0.081 3 
0.464 -0.038 0.082 3 
0.465 0.014 0.084 3 
0.464 0.081 0.084 3 
0.464 0.073 0.084 3 
0.463 0.062 0.084 3 
0.465 0.059 0.084 3 
0.466 0.343 0.013 3 
0.465 0.054 0.084 3 
0.465 0.043 0.084 3 
0.465 0.032 0.084 3 
0.465 0.024 0.084 3 
0.465 0.144 0.063 3 
0.464 0.008 0.084 3 
0.465 0.003 0.084 3 
0.466 -0.025 0.084 3 
0.465 -0.036 0.084 3 
0.465 -0.047 0.084 3 
0.464 -0.052 0.084 3 
0.464 0.205 0.057 3 
0.464 -0.057 0.084 3 
0.463 -0.065 0.084 3 
0.464 0.174 0.074 3 
0.464 0.246 0.074 3 
0.465 0.244 0.074 3 
0.466 0.224 0.074 3 
0.466 0.213 0.074 3 
0.465 0.203 0.074 3 
0.464 0.2 0.074 3 
0.464 0.194 0.074 3 
0.465 0.189 0.074 3 
0.466 0.184 0.074 3 
0.466 0.263 0.074 3 
0.465 0.172 0.074 3 
0.465 0.163 0.074 3 
0.465 0.152 0.074 3 
0.465 0.144 0.074 3 
0.464 0.135 0.073 3 
0.465 0.133 0.074 3 
0.464 0.127 0.073 3 
0.464 0.121 0.073 3 
0.463 0.113 0.073 3 
0.464 0.154 0.076 3 
0.465 0.263 0.079 3 
0.465 0.253 0.079 3 
0.465 0.122 0.079 3 
0.464 0.054 0.079 3 
0.464 -0.017 0.079 3 
0.464 -0.025 0.079 3 
0.465 0.232 0.063 3 
0.464 0.293 0.029 3 
0.464 0.333 0.077 3 
0.462 0.338 0.008 3 
0.465 0.065 0.076 3 
0.464 0.34 0.074 3 
0.465 0.337 0.074 3 
0.465 0.334 0.074 3 
0.467 0.323 0.074 3 
0.468 0.304 0.074 3 
0.467 0.293 0.074 3 
0.467 0.284 0.074 3 
0.467 0.271 0.074 3 
0.464 0.102 0.052 3 
0.465 0.097 0.092 3 
0.464 0.092 0.092 3 
0.465 0.086 0.092 3 
0.463 0.112 0.033 3 
0.465 0.084 0.092 3 
0.465 0.073 0.092 3 
0.464 0.062 0.092 3 
0.463 0.054 0.092 3 
0.463 0.043 0.092 3 
0.464 0.032 0.092 3 
0.464 0.102 0.092 3 
0.465 0.024 0.092 3 
0.464 0.016 0.092 3 
0.464 0.014 0.092 3 
0.464 0.003 0.092 3 
0.464 -0.017 0.092 3 
0.465 -0.022 0.092 3 
0.465 -0.025 0.092 3 
0.465 -0.041 0.092 3 
0.465 -0.047 0.092 3 
0.463 0.182 0.092 3 
0.464 0.254 0.093 3 
0.465 0.244 0.093 3 
0.464 -0.012 0.074 3 
0.466 0.233 0.093 3 
0.466 0.224 0.093 3 
0.464 -0.028 0.092 3 
0.465 0.212 0.093 3 
0.465 0.203 0.093 3 
0.464 0.194 0.093 3 
0.465 -0.055 0.092 3 
0.465 0.178 0.093 3 
0.465 0.172 0.093 3 
0.464 0.166 0.092 3 
0.464 0.064 0.052 3 
0.464 0.163 0.092 3 
0.464 0.143 0.092 3 
0.464 0.132 0.092 3 
0.464 0.124 0.092 3 
0.464 0.113 0.092 3 
0.465 0.183 0.084 3 
0.465 0.057 0.087 3 
0.464 0.124 0.023 3 
0.465 -0.004 0.087 3 
0.465 -0.014 0.087 3 
0.464 0.34 0.085 3 
0.464 0.266 0.085 3 
0.464 0.226 0.085 3 
0.463 0.213 0.084 3 
0.465 0.189 0.084 3 
0.465 0.125 0.087 3 
0.465 0.172 0.084 3 
0.464 0.163 0.084 3 
0.465 0.152 0.084 3 
0.465 0.144 0.084 3 
0.465 0.133 0.084 3 
0.464 0.124 0.084 3 
0.463 0.113 0.084 3 
0.465 0.092 0.084 3 
0.465 0.084 0.084 3 
0.464 0.064 0.034 3 
0.464 -0.065 0.092 3 
0.462 -0.075 0.092 3 
0.463 0.256 0.09 3 
0.465 0.247 0.09 3 
0.465 0.038 0.063 3 
0.464 0.244 0.09 3 
0.464 0.214 0.09 3 
0.465 0.147 0.09 3 
0.465 0.141 0.09 3 
0.467 0.291 0.122 3 
0.464 0.075 0.09 3 
0.464 0.073 0.09 3 
0.465 0.046 0.09 3 
0.465 0.038 0.09 3 
0.465 0.014 0.09 3 
0.464 -0.062 0.09 3 
0.466 0.213 0.032 3 
0.464 0.223 0.087 3 
0.465 0.186 0.087 3 
