# .PCD v0.7 - Point Cloud Data file
FIELDS x y z intensity
SIZE 4 4 4 4
TYPE F F F F
COUNT 1 1 1 1
WIDTH 2342
HEIGHT 1
VIEWPOINT 0 0 0 1 0 0 0
POINTS 2342
DATA ascii
0.373 -0.237 -0.025 1 
0.363 -0.135 -0.017 1 
0.361 -0.126 -0.016 1 
0.361 -0.106 -0.016 1 
0.358 -0.081 -0.014 1 
0.36 -0.057 -0.015 1 
0.362 -0.045 -0.015 1 
0.36 0.012 -0.015 1 
0.36 0.023 -0.015 1 
0.36 0.033 -0.015 1 
0.358 0.04 -0.014 1 
0.359 0.043 -0.015 1 
0.356 0.074 -0.014 1 
0.355 0.084 -0.014 1 
0.353 0.113 -0.014 1 
0.352 0.123 -0.014 1 
0.35 0.131 -0.013 1 
0.353 0.154 -0.015 1 
0.351 0.158 -0.015 1 
0.347 0.174 -0.014 1 
0.376 -0.24 -0.024 1 
0.379 -0.231 -0.025 1 
0.377 -0.227 -0.024 1 
0.371 -0.117 -0.018 1 
0.364 -0.087 -0.015 1 
0.363 -0.085 -0.014 1 
0.365 -0.058 -0.015 1 
0.364 -0.056 -0.014 1 
0.363 0.064 -0.015 1 
0.361 0.085 -0.014 1 
0.364 0.094 -0.016 1 
0.361 0.103 -0.015 1 
0.359 0.124 -0.015 1 
0.357 0.136 -0.014 1 
0.354 0.169 -0.015 1 
0.35 0.213 -0.016 1 
0.382 -0.247 -0.025 1 
0.386 -0.229 -0.025 1 
0.374 -0.199 -0.02 1 
0.374 -0.186 -0.019 1 
0.373 -0.175 -0.018 1 
0.374 -0.152 -0.018 1 
0.373 -0.136 -0.017 1 
0.374 -0.128 -0.017 1 
0.371 -0.096 -0.016 1 
0.372 -0.085 -0.016 1 
0.374 -0.076 -0.016 1 
0.369 -0.054 -0.014 1 
0.373 -0.045 -0.016 1 
0.374 -0.038 -0.016 1 
0.373 0.013 -0.016 1 
0.372 0.024 -0.016 1 
0.37 0.053 -0.015 1 
0.364 0.114 -0.014 1 
0.364 0.116 -0.014 1 
0.363 0.133 -0.014 1 
0.363 0.134 -0.015 1 
0.364 0.139 -0.015 1 
0.363 0.154 -0.015 1 
0.362 0.193 -0.017 1 
0.377 -0.195 -0.019 1 
0.379 -0.165 -0.018 1 
0.379 -0.076 -0.016 1 
0.374 -0.066 -0.014 1 
0.374 -0.059 -0.014 1 
0.381 -0.032 -0.016 1 
0.374 0.062 -0.015 1 
0.374 0.083 -0.015 1 
0.374 0.104 -0.016 1 
0.373 0.123 -0.016 1 
0.372 0.133 -0.016 1 
0.369 0.142 -0.015 1 
0.364 0.18 -0.015 1 
0.364 0.203 -0.016 1 
0.394 -0.258 -0.025 1 
0.394 -0.245 -0.024 1 
0.392 -0.235 -0.023 1 
0.384 -0.162 -0.018 1 
0.383 -0.125 -0.016 1 
0.384 -0.118 -0.017 1 
0.382 -0.105 -0.016 1 
0.382 -0.097 -0.015 1 
0.384 -0.089 -0.016 1 
0.38 -0.066 -0.014 1 
0.38 -0.062 -0.014 1 
0.383 -0.057 -0.015 1 
0.383 0.014 -0.016 1 
0.381 0.023 -0.015 1 
0.382 0.043 -0.015 1 
0.381 0.054 -0.015 1 
0.38 0.064 -0.015 1 
0.381 0.074 -0.015 1 
0.38 0.083 -0.015 1 
0.378 0.114 -0.015 1 
0.374 0.162 -0.015 1 
0.37 0.183 -0.015 1 
0.367 0.224 -0.016 1 
0.394 -0.232 -0.021 1 
0.393 -0.216 -0.02 1 
0.393 -0.208 -0.02 1 
0.39 -0.115 -0.016 1 
0.387 -0.105 -0.015 1 
0.39 -0.075 -0.016 1 
0.39 -0.045 -0.016 1 
0.39 -0.033 -0.016 1 
0.297 -0.015 0.014 1 
0.298 -0.005 0.013 1 
0.298 0.002 0.013 1 
0.384 0.006 -0.014 1 
0.384 0.097 -0.015 1 
0.382 0.124 -0.015 1 
0.38 0.131 -0.014 1 
0.381 0.134 -0.015 1 
0.38 0.144 -0.015 1 
0.384 0.164 -0.017 1 
0.371 0.234 -0.016 1 
0.403 -0.257 -0.023 1 
0.394 -0.185 -0.017 1 
0.394 -0.158 -0.017 1 
0.394 -0.127 -0.016 1 
0.393 -0.074 -0.015 1 
0.392 -0.066 -0.014 1 
0.394 -0.062 -0.015 1 
0.393 0.033 -0.015 1 
0.394 0.053 -0.015 1 
0.391 0.063 -0.015 1 
0.39 0.065 -0.014 1 
0.392 0.073 -0.015 1 
0.393 0.084 -0.015 1 
0.391 0.094 -0.015 1 
0.391 0.104 -0.015 1 
0.39 0.114 -0.015 1 
0.385 0.147 -0.014 1 
0.384 0.157 -0.014 1 
0.373 0.153 -0.015 1 
0.38 0.234 -0.017 1 
0.404 -0.272 -0.021 1 
0.383 -0.219 -0.021 1 
0.404 -0.227 -0.019 1 
0.403 -0.207 -0.019 1 
0.402 -0.168 -0.017 1 
0.403 -0.155 -0.017 1 
0.402 -0.105 -0.016 1 
0.399 -0.096 -0.015 1 
0.399 -0.076 -0.015 1 
0.397 -0.065 -0.014 1 
0.401 -0.056 -0.015 1 
0.399 -0.047 -0.014 1 
0.4 -0.045 -0.015 1 
0.402 -0.037 -0.015 1 
0.44 -0.04 -0.027 1 
0.364 0.074 -0.015 1 
0.399 0.023 -0.015 1 
0.396 0.104 -0.015 1 
0.396 0.113 -0.015 1 
0.395 0.121 -0.015 1 
0.394 0.123 -0.014 1 
0.394 0.127 -0.015 1 
0.39 0.133 -0.013 1 
0.392 0.139 -0.014 1 
0.394 0.144 -0.015 1 
0.392 0.154 -0.015 1 
0.39 0.159 -0.014 1 
0.392 0.163 -0.015 1 
0.388 0.183 -0.015 1 
0.38 0.243 -0.015 1 
0.382 0.248 -0.016 1 
0.414 -0.271 -0.022 1 
0.413 -0.256 -0.021 1 
0.413 -0.238 -0.02 1 
0.404 -0.217 -0.017 1 
0.401 -0.188 -0.015 1 
0.404 -0.179 -0.016 1 
0.404 -0.146 -0.015 1 
0.404 -0.142 -0.015 1 
0.405 -0.065 -0.014 1 
0.478 -0.046 -0.036 1 
0.474 -0.043 -0.035 1 
0.404 0.021 -0.014 1 
0.403 0.034 -0.014 1 
0.404 0.054 -0.014 1 
0.404 0.064 -0.014 1 
0.403 0.073 -0.014 1 
0.403 0.094 -0.015 1 
0.374 -0.105 -0.017 1 
0.4 0.124 -0.014 1 
0.399 0.154 -0.015 1 
0.392 0.193 -0.014 1 
0.392 0.202 -0.014 1 
0.393 0.222 -0.015 1 
0.387 0.241 -0.015 1 
0.414 -0.216 -0.017 1 
0.413 -0.205 -0.017 1 
0.411 -0.199 -0.016 1 
0.409 -0.185 -0.015 1 
0.414 -0.169 -0.016 1 
0.411 -0.146 -0.015 1 
0.353 0.192 -0.016 1 
0.411 -0.135 -0.015 1 
0.413 -0.126 -0.015 1 
0.415 -0.109 -0.015 1 
0.414 -0.106 -0.015 1 
0.413 -0.099 -0.015 1 
0.413 -0.094 -0.015 1 
0.412 -0.085 -0.014 1 
0.413 -0.081 -0.014 1 
0.414 -0.079 -0.015 1 
0.415 -0.075 -0.015 1 
0.413 -0.045 -0.014 1 
0.373 0.034 -0.016 1 
0.407 0.013 -0.013 1 
0.411 0.024 -0.014 1 
0.409 0.052 -0.014 1 
0.41 0.064 -0.014 1 
0.412 0.071 -0.015 1 
0.411 0.073 -0.014 1 
0.41 0.124 -0.015 1 
0.409 0.126 -0.015 1 
0.404 0.132 -0.013 1 
0.403 0.139 -0.013 1 
0.401 0.162 -0.013 1 
0.404 0.184 -0.015 1 
0.402 0.189 -0.015 1 
0.402 0.223 -0.016 1 
0.399 0.233 -0.015 1 
0.395 0.239 -0.014 1 
0.392 0.259 -0.015 1 
0.424 -0.297 -0.021 1 
0.423 -0.287 -0.02 1 
0.424 -0.273 -0.02 1 
0.423 -0.255 -0.019 1 
0.423 -0.247 -0.018 1 
0.422 -0.235 -0.018 1 
0.422 -0.225 -0.017 1 
0.418 -0.157 -0.015 1 
0.421 -0.095 -0.015 1 
0.421 -0.088 -0.015 1 
0.42 -0.076 -0.014 1 
0.422 -0.068 -0.015 1 
0.421 -0.065 -0.014 1 
0.384 -0.186 -0.018 1 
0.391 -0.145 -0.017 1 
0.401 0.104 -0.014 1 
0.42 -0.042 -0.014 1 
0.364 -0.04 -0.016 1 
0.396 0.006 -0.007 1 
0.414 0.083 -0.013 1 
0.414 0.094 -0.013 1 
0.41 0.133 -0.013 1 
0.408 0.141 -0.012 1 
0.412 0.153 -0.014 1 
0.401 0.193 -0.012 1 
0.401 0.208 -0.013 1 
0.406 0.232 -0.015 1 
0.404 0.243 -0.015 1 
0.403 0.253 -0.015 1 
0.401 0.261 -0.015 1 
0.399 0.262 -0.014 1 
0.398 0.266 -0.014 1 
0.422 -0.215 -0.015 1 
0.423 -0.195 -0.015 1 
0.423 -0.185 -0.014 1 
0.424 -0.176 -0.014 1 
0.423 -0.156 -0.014 1 
0.421 -0.145 -0.013 1 
0.421 -0.135 -0.013 1 
0.423 -0.115 -0.013 1 
0.371 0.212 -0.017 1 
0.424 -0.106 -0.013 1 
0.424 -0.103 -0.013 1 
0.424 -0.057 -0.013 1 
0.423 -0.047 -0.012 1 
0.473 -0.048 -0.026 1 
0.424 0.023 -0.013 1 
0.419 -0.175 -0.015 1 
0.421 0.044 -0.012 1 
0.421 0.053 -0.012 1 
0.421 0.064 -0.013 1 
0.422 0.074 -0.013 1 
0.421 0.092 -0.013 1 
0.412 0.163 -0.012 1 
0.362 0.163 -0.015 1 
0.411 0.172 -0.012 1 
0.414 0.194 -0.013 1 
0.398 0.061 -0.015 1 
0.412 0.212 -0.013 1 
0.412 0.24 -0.014 1 
0.412 0.243 -0.015 1 
0.408 0.269 -0.015 1 
0.413 0.283 -0.017 1 
0.433 -0.307 -0.018 1 
0.433 -0.286 -0.017 1 
0.433 -0.277 -0.017 1 
0.432 -0.256 -0.016 1 
0.432 -0.247 -0.016 1 
0.434 -0.227 -0.016 1 
0.431 -0.215 -0.015 1 
0.431 -0.209 -0.015 1 
0.43 -0.096 -0.012 1 
0.43 -0.086 -0.012 1 
0.431 -0.075 -0.012 1 
0.431 -0.065 -0.012 1 
0.429 -0.055 -0.012 1 
0.346 0.175 -0.014 1 
0.432 -0.046 -0.013 1 
0.479 -0.046 -0.025 1 
0.48 -0.041 -0.025 1 
0.354 0.138 -0.015 1 
0.429 0.043 -0.012 1 
0.424 0.124 -0.012 1 
0.421 0.154 -0.012 1 
0.42 0.164 -0.012 1 
0.415 0.17 -0.011 1 
0.419 0.183 -0.012 1 
0.427 0.269 -0.017 1 
0.416 0.278 -0.015 1 
0.414 0.284 -0.014 1 
0.437 -0.275 -0.015 1 
0.433 -0.242 -0.013 1 
0.434 -0.22 -0.013 1 
0.434 -0.206 -0.013 1 
0.381 -0.069 -0.015 1 
0.434 -0.204 -0.013 1 
0.434 -0.185 -0.012 1 
0.434 -0.183 -0.012 1 
0.434 -0.155 -0.012 1 
0.433 -0.146 -0.011 1 
0.433 -0.127 -0.011 1 
0.432 -0.116 -0.011 1 
0.434 -0.11 -0.011 1 
0.482 -0.047 -0.023 1 
0.324 -0.016 0.016 1 
0.323 -0.008 0.017 1 
0.331 0 0.015 1 
0.332 0.001 0.014 1 
0.335 0.003 0.014 1 
0.434 0.031 -0.011 1 
0.434 0.053 -0.011 1 
0.433 0.062 -0.011 1 
0.433 0.072 -0.011 1 
0.433 0.084 -0.011 1 
0.414 -0.057 -0.015 1 
0.432 0.094 -0.011 1 
0.431 0.123 -0.011 1 
0.424 0.194 -0.011 1 
0.424 0.204 -0.011 1 
0.423 0.214 -0.012 1 
0.42 0.224 -0.011 1 
0.42 0.232 -0.011 1 
0.422 0.253 -0.013 1 
0.421 0.274 -0.013 1 
0.418 0.283 -0.013 1 
0.442 -0.317 -0.015 1 
0.423 -0.213 -0.015 1 
0.445 -0.311 -0.016 1 
0.443 -0.296 -0.015 1 
0.434 -0.266 -0.012 1 
0.394 0.241 -0.014 1 
0.433 -0.256 -0.011 1 
0.433 -0.254 -0.011 1 
0.441 -0.225 -0.012 1 
0.441 -0.217 -0.012 1 
0.443 -0.197 -0.012 1 
0.443 -0.186 -0.012 1 
0.442 -0.175 -0.012 1 
0.442 -0.167 -0.011 1 
0.443 -0.147 -0.011 1 
0.442 -0.136 -0.011 1 
0.44 -0.115 -0.01 1 
0.441 -0.105 -0.01 1 
0.412 -0.096 -0.014 1 
0.442 -0.095 -0.011 1 
0.422 0.083 -0.013 1 
0.442 -0.085 -0.01 1 
0.442 -0.075 -0.01 1 
0.442 -0.065 -0.01 1 
0.442 -0.055 -0.01 1 
0.326 -0.015 0.017 1 
0.329 -0.011 0.017 1 
0.344 -0.005 0.013 1 
0.347 0.003 0.012 1 
0.441 0.032 -0.01 1 
0.441 0.042 -0.01 1 
0.44 0.054 -0.01 1 
0.44 0.064 -0.01 1 
0.434 0.144 -0.01 1 
0.434 0.154 -0.01 1 
0.433 0.164 -0.01 1 
0.43 0.183 -0.01 1 
0.424 0.236 -0.01 1 
0.423 0.291 -0.012 1 
0.424 0.295 -0.012 1 
0.45 -0.316 -0.014 1 
0.444 -0.288 -0.012 1 
0.444 -0.267 -0.011 1 
0.443 -0.246 -0.011 1 
0.413 0.103 -0.013 1 
0.444 -0.241 -0.011 1 
0.479 -0.041 -0.017 1 
0.363 0.007 -0.014 1 
0.404 -0.239 -0.022 1 
0.407 0.223 -0.015 1 
0.362 -0.006 0.01 1 
0.361 0.002 0.01 1 
0.444 0.073 -0.009 1 
0.444 0.083 -0.009 1 
0.442 0.122 -0.009 1 
0.442 0.133 -0.009 1 
0.431 0.194 -0.008 1 
0.433 0.224 -0.009 1 
0.432 0.234 -0.009 1 
0.434 0.242 -0.01 1 
0.433 0.252 -0.01 1 
0.434 0.264 -0.011 1 
0.432 0.274 -0.011 1 
0.431 0.282 -0.011 1 
0.377 -0.207 -0.019 1 
0.452 -0.325 -0.012 1 
0.452 -0.275 -0.011 1 
0.454 -0.226 -0.01 1 
0.454 -0.219 -0.01 1 
0.453 -0.207 -0.009 1 
0.453 -0.196 -0.009 1 
0.454 -0.185 -0.009 1 
0.453 -0.155 -0.009 1 
0.453 -0.147 -0.009 1 
0.454 -0.136 -0.009 1 
0.451 -0.117 -0.008 1 
0.453 -0.107 -0.008 1 
0.454 -0.097 -0.008 1 
0.443 -0.205 -0.012 1 
0.453 -0.086 -0.008 1 
0.454 -0.066 -0.008 1 
0.454 -0.055 -0.008 1 
0.449 -0.027 -0.007 1 
0.443 -0.016 -0.006 1 
0.446 -0.006 -0.006 1 
0.448 0.003 -0.007 1 
0.452 0.034 -0.008 1 
0.44 0.144 -0.009 1 
0.452 0.044 -0.008 1 
0.452 0.054 -0.008 1 
0.451 0.064 -0.008 1 
0.45 0.074 -0.008 1 
0.45 0.084 -0.008 1 
0.443 0.162 -0.008 1 
0.441 0.174 -0.007 1 
0.44 0.203 -0.008 1 
0.438 0.212 -0.008 1 
0.44 0.222 -0.008 1 
0.433 0.302 -0.009 1 
0.434 0.306 -0.01 1 
0.454 -0.255 -0.008 1 
0.454 -0.238 -0.007 1 
0.457 0.003 -0.006 1 
0.456 0.024 -0.006 1 
0.457 0.042 -0.007 1 
0.455 0.062 -0.006 1 
0.454 0.093 -0.006 1 
0.452 0.114 -0.006 1 
0.453 0.133 -0.007 1 
0.452 0.153 -0.007 1 
0.443 0.244 -0.007 1 
0.443 0.273 -0.008 1 
0.442 0.284 -0.008 1 
0.442 0.293 -0.008 1 
0.438 0.304 -0.008 1 
0.381 0.184 -0.015 1 
0.46 -0.317 -0.008 1 
0.46 -0.255 -0.006 1 
0.46 -0.175 -0.005 1 
0.461 -0.156 -0.005 1 
0.461 -0.08 -0.005 1 
0.378 -0.235 -0.025 1 
0.462 -0.057 -0.005 1 
0.462 -0.041 -0.005 1 
0.457 0.124 -0.005 1 
0.457 0.142 -0.005 1 
0.453 0.163 -0.005 1 
0.392 0.234 -0.016 1 
0.452 0.184 -0.005 1 
0.453 0.193 -0.005 1 
0.452 0.203 -0.005 1 
0.449 0.212 -0.005 1 
0.449 0.223 -0.005 1 
0.447 0.233 -0.005 1 
0.449 0.243 -0.005 1 
0.447 0.262 -0.006 1 
0.447 0.274 -0.006 1 
0.448 0.284 -0.006 1 
0.409 -0.038 -0.015 1 
0.442 0.312 -0.006 1 
0.442 0.315 -0.006 1 
0.464 -0.345 -0.007 1 
0.464 -0.338 -0.007 1 
0.466 -0.337 -0.007 1 
0.429 0.134 -0.011 1 
0.443 0.264 -0.007 1 
0.465 -0.326 -0.006 1 
0.364 -0.083 -0.015 1 
0.465 -0.316 -0.006 1 
0.452 -0.045 -0.01 1 
0.465 -0.306 -0.006 1 
0.464 -0.295 -0.005 1 
0.465 -0.277 -0.005 1 
0.465 -0.265 -0.005 1 
0.466 -0.257 -0.005 1 
0.465 -0.253 -0.005 1 
0.466 -0.242 -0.005 1 
0.464 -0.226 -0.004 1 
0.463 -0.217 -0.004 1 
0.462 -0.176 -0.003 1 
0.463 -0.146 -0.003 1 
0.453 0.232 -0.003 1 
0.453 0.244 -0.004 1 
0.453 0.253 -0.004 1 
0.451 0.263 -0.004 1 
0.451 0.281 -0.004 1 
0.451 0.293 -0.005 1 
0.451 0.302 -0.005 1 
0.446 0.319 -0.005 1 
0.463 -0.344 -0.004 1 
0.467 -0.345 -0.005 1 
0.463 -0.272 -0.002 1 
0.464 -0.194 -0.001 1 
0.4 -0.195 -0.017 1 
0.464 -0.158 0 1 
0.464 -0.046 0 1 
0.453 0.301 -0.002 1 
0.454 0.312 -0.003 1 
0.453 0.324 -0.003 1 
0.465 -0.087 0.002 1 
0.463 -0.076 0.002 1 
0.452 -0.296 -0.011 1 
0.464 -0.065 0.002 1 
0.465 -0.055 0.002 1 
0.464 -0.015 0.002 1 
0.463 0.014 0.002 1 
0.461 0.093 0.002 1 
0.462 0.104 0.002 1 
0.355 0.104 -0.014 1 
0.475 -0.34 0 1 
0.42 -0.085 -0.014 1 
0.475 -0.33 0 1 
0.47 -0.266 0.002 1 
0.47 -0.257 0.002 1 
0.469 -0.227 0.002 1 
0.466 -0.187 0.003 1 
0.466 -0.175 0.004 1 
0.466 -0.167 0.004 1 
0.465 -0.155 0.004 1 
0.465 -0.147 0.004 1 
0.374 -0.206 -0.022 1 
0.423 0.114 -0.011 1 
0.465 -0.122 0.004 1 
0.464 -0.116 0.004 1 
0.464 -0.105 0.004 1 
0.464 -0.097 0.004 1 
0.46 0.114 0.004 1 
0.46 0.122 0.004 1 
0.46 0.153 0.004 1 
0.46 0.164 0.004 1 
0.46 0.183 0.003 1 
0.46 0.194 0.003 1 
0.462 0.204 0.003 1 
0.461 0.212 0.003 1 
0.46 0.223 0.003 1 
0.46 0.232 0.003 1 
0.461 0.244 0.002 1 
0.461 0.272 0.002 1 
0.473 -0.348 0.002 1 
0.474 -0.339 0.002 1 
0.472 -0.326 0.003 1 
0.383 0.154 -0.014 1 
0.472 -0.316 0.003 1 
0.47 -0.307 0.004 1 
0.47 -0.288 0.004 1 
0.469 -0.278 0.004 1 
0.465 -0.147 0.007 1 
0.459 0.282 0.004 1 
0.459 0.291 0.004 1 
0.459 0.304 0.004 1 
0.459 0.314 0.004 1 
0.459 0.32 0.003 1 
0.394 0.014 -0.015 1 
0.46 0.332 0.003 1 
0.46 0.335 0.006 1 
0.394 0.043 -0.015 1 
0.456 0.153 -0.005 1 
0.456 0.134 -0.005 1 
0.465 -0.287 -0.005 1 
0.461 -0.195 -0.006 1 
0.455 0.091 -0.006 1 
0.455 0.073 -0.006 1 
0.456 0.052 -0.006 1 
0.458 -0.007 -0.007 1 
0.461 -0.033 -0.005 1 
0.462 -0.046 -0.005 1 
0.458 -0.067 -0.006 1 
0.414 0.204 -0.014 1 
0.383 -0.146 -0.017 1 
0.461 -0.086 -0.005 1 
0.462 -0.105 -0.005 1 
0.46 -0.126 -0.005 1 
0.462 -0.146 -0.005 1 
0.397 0.174 -0.015 1 
0.372 -0.029 -0.017 1 
0.38 0.187 -0.014 1 
0.448 0.254 -0.006 1 
0.434 -0.137 -0.011 1 
0.46 -0.167 -0.005 1 
0.461 -0.187 -0.006 1 
0.461 -0.227 -0.006 1 
0.453 -0.307 -0.012 1 
0.459 -0.245 -0.006 1 
0.443 0.253 -0.007 1 
0.462 -0.287 -0.008 1 
0.462 -0.326 -0.009 1 
0.443 0.092 -0.009 1 
0.402 -0.086 -0.016 1 
0.443 -0.275 -0.011 1 
0.412 0.114 -0.013 1 
0.372 0.174 -0.015 1 
0.414 0.119 -0.014 1 
0.372 0.237 -0.016 1 
0.39 0.173 -0.015 1 
0.431 0.103 -0.011 1 
0.442 0.102 -0.009 1 
0.453 0.143 -0.007 1 
0.431 0.173 -0.01 1 
0.469 -0.247 0.002 1 
0.443 -0.257 -0.011 1 
0.463 -0.135 -0.003 1 
0.453 0.122 -0.006 1 
0.441 0.013 -0.01 1 
0.457 -0.038 -0.04 1 
0.374 0.066 -0.015 1 
0.362 -0.066 -0.016 1 
0.441 0.153 -0.009 1 
0.354 0.164 -0.014 1 
0.414 -0.041 -0.014 1 
0.344 0.164 -0.013 1 
0.464 -0.166 0 1 
0.461 0.336 0.003 1 
0.46 -0.217 -0.006 1 
0.384 -0.036 -0.016 1 
0.449 0.313 -0.005 1 
0.461 0.144 0.004 1 
0.388 -0.196 -0.018 1 
0.373 -0.216 -0.024 1 
0.443 -0.053 -0.011 1 
0.431 0.291 -0.011 1 
0.432 0.014 -0.013 1 
0.424 -0.276 -0.02 1 
0.43 0.112 -0.011 1 
0.415 -0.043 -0.015 1 
0.453 0.224 -0.003 1 
0.384 0.091 -0.015 1 
0.431 0.204 -0.008 1 
0.351 -0.012 0.013 1 
0.46 -0.115 -0.005 1 
0.352 0.204 -0.016 1 
0.374 -0.226 -0.025 1 
0.4 0.214 -0.015 1 
0.464 -0.206 -0.001 1 
0.415 -0.064 -0.015 1 
0.462 -0.135 -0.005 1 
0.414 -0.247 -0.021 1 
0.388 0.117 -0.015 1 
0.463 0.003 0.002 1 
0.468 -0.235 0.002 1 
0.413 0.223 -0.014 1 
0.426 -0.172 -0.015 1 
0.414 -0.231 -0.018 1 
0.424 -0.174 -0.014 1 
0.393 -0.095 -0.015 1 
0.434 -0.235 -0.016 1 
0.373 0.094 -0.015 1 
0.432 -0.267 -0.016 1 
0.393 -0.265 -0.025 1 
0.388 0.203 -0.015 1 
0.463 -0.025 0.002 1 
0.394 0.023 -0.015 1 
0.453 -0.128 -0.008 1 
0.406 -0.059 -0.014 1 
0.381 0.204 -0.015 1 
0.423 0.133 -0.012 1 
0.451 -0.265 -0.01 1 
0.42 -0.166 -0.015 1 
0.394 0.178 -0.014 1 
0.394 0.254 -0.015 1 
0.458 -0.017 -0.007 1 
0.403 0.178 -0.014 1 
0.454 0.213 -0.003 1 
0.383 0.033 -0.016 1 
0.414 0.184 -0.013 1 
0.423 0.014 -0.013 1 
0.461 0.173 0.003 1 
0.414 0.248 -0.013 1 
0.393 0.006 -0.009 1 
0.465 -0.103 0.004 1 
0.471 -0.295 0.004 1 
0.392 -0.238 -0.025 1 
0.359 0.173 -0.015 1 
0.337 -0.013 0.016 1 
0.464 -0.267 -0.005 1 
0.399 0.052 -0.015 1 
0.372 0.113 -0.015 1 
0.409 0.044 -0.013 1 
0.433 -0.295 -0.018 1 
0.423 0.262 -0.013 1 
0.419 0.143 -0.011 1 
0.439 -0.286 -0.016 1 
0.362 0.084 -0.015 1 
0.4 0.113 -0.014 1 
0.453 -0.042 -0.013 1 
0.442 0.022 -0.011 1 
0.46 0.253 0.002 1 
0.394 -0.042 -0.015 1 
0.45 -0.285 -0.011 1 
0.394 -0.178 -0.017 1 
0.411 -0.177 -0.015 1 
0.375 0.145 -0.015 1 
0.399 -0.062 -0.014 1 
0.399 0.084 -0.015 1 
0.431 0.024 -0.013 1 
0.463 -0.007 0.002 1 
0.361 -0.096 -0.016 1 
0.413 -0.157 -0.016 1 
0.401 -0.125 -0.016 1 
0.476 -0.345 0.002 1 
0.384 -0.181 -0.018 1 
0.46 0.262 0.002 1 
0.464 -0.125 0 1 
0.454 -0.076 -0.008 1 
0.419 0.103 -0.013 1 
0.392 -0.245 -0.025 1 
0.414 -0.115 -0.015 1 
0.364 -0.052 -0.014 1 
0.452 -0.176 -0.009 1 
0.465 -0.106 0.002 1 
0.418 -0.187 -0.015 1 
0.443 -0.011 -0.006 1 
0.44 -0.125 -0.01 1 
0.441 0.114 -0.009 1 
0.465 -0.1 0.007 1 
0.403 0.174 -0.014 1 
0.444 -0.307 -0.015 1 
0.36 0.224 -0.016 1 
0.354 0.177 -0.015 1 
0.375 -0.222 -0.025 1 
0.384 0.221 -0.017 1 
0.461 -0.277 -0.007 1 
0.461 0.013 -0.005 1 
0.418 0.274 -0.015 1 
0.358 0.045 -0.014 1 
0.394 -0.255 -0.024 1 
0.393 0.21 -0.015 1 
0.374 -0.155 -0.018 1 
0.464 -0.089 0.002 1 
0.452 0.273 -0.004 1 
0.454 0.29 -0.002 1 
0.402 0.083 -0.014 1 
0.44 0.192 -0.008 1 
0.462 0.083 0.002 1 
0.408 -0.047 -0.015 1 
0.381 0.193 -0.015 1 
0.455 0.083 -0.006 1 
0.403 0.043 -0.014 1 
0.409 0.033 -0.013 1 
0.359 -0.115 -0.015 1 
0.384 0.214 -0.017 1 
0.422 0.032 -0.013 1 
0.394 -0.094 -0.015 1 
0.412 0.233 -0.014 1 
0.402 0.204 -0.013 1 
0.462 -0.097 -0.005 1 
0.432 0.213 -0.009 1 
0.425 -0.199 -0.015 1 
0.472 -0.034 -0.015 1 
0.364 0.054 -0.015 1 
0.465 -0.047 0.002 1 
0.312 0.002 0.018 1 
0.373 0.043 -0.016 1 
0.464 -0.197 -0.001 1 
0.456 0.034 -0.006 1 
0.434 -0.17 -0.012 1 
0.453 0.023 -0.008 1 
0.394 -0.174 -0.017 1 
0.413 -0.276 -0.022 1 
0.37 -0.065 -0.015 1 
0.464 -0.057 0 1 
0.383 0.092 -0.014 1 
0.455 0.155 -0.005 1 
0.424 -0.125 -0.013 1 
0.372 0.193 -0.016 1 
0.434 -0.044 -0.013 1 
0.454 -0.247 -0.008 1 
0.46 -0.206 -0.006 1 
0.399 0.034 -0.015 1 
0.452 -0.165 -0.009 1 
0.453 0.173 -0.005 1 
0.377 0.174 -0.015 1 
0.453 0.104 -0.006 1 
0.409 0.262 -0.015 1 
0.453 0.013 -0.008 1 
0.443 0.233 -0.007 1 
0.403 -0.115 -0.016 1 
0.474 -0.04 -0.032 1 
0.443 -0.155 -0.011 1 
0.387 0.193 -0.015 1 
0.44 0.184 -0.007 1 
0.462 -0.236 -0.006 1 
0.404 -0.245 -0.022 1 
0.384 -0.136 -0.017 1 
0.461 -0.305 -0.008 1 
0.392 -0.135 -0.017 1 
0.373 0.203 -0.017 1 
0.362 0.212 -0.016 1 
0.371 -0.165 -0.017 1 
0.473 -0.037 -0.015 1 
0.384 -0.046 -0.016 1 
0.402 0.092 -0.014 1 
0.461 0.154 0.132 3 
0.468 -0.166 0.154 3 
0.468 -0.175 0.154 3 
0.478 -0.325 0.162 3 
0.479 -0.336 0.163 3 
0.479 -0.347 0.163 3 
0.462 0.337 0.154 3 
0.462 0.333 0.154 3 
0.46 0.234 0.062 3 
0.464 0.312 0.154 3 
0.464 0.302 0.153 3 
0.457 0.244 0.014 3 
0.471 -0.226 0.153 3 
0.462 0.29 0.153 3 
0.462 0.284 0.152 3 
0.463 0.073 0.143 3 
0.462 0.223 0.153 3 
0.463 -0.006 0.092 3 
0.462 0.272 0.152 3 
0.469 -0.187 0.152 3 
0.469 -0.195 0.152 3 
0.47 -0.207 0.153 3 
0.469 -0.215 0.152 3 
0.466 -0.077 0.152 3 
0.463 0.294 0.144 3 
0.463 0.212 0.153 3 
0.461 0.274 0.062 3 
0.462 0.192 0.153 3 
0.461 0.182 0.152 3 
0.462 0.174 0.152 3 
0.463 0.152 0.152 3 
0.464 -0.017 0.151 3 
0.466 -0.055 0.152 3 
0.46 0.332 0.062 3 
0.466 -0.066 0.152 3 
0.462 0.283 0.132 3 
0.467 -0.085 0.152 3 
0.467 -0.096 0.153 3 
0.47 -0.245 0.094 3 
0.468 -0.107 0.153 3 
0.468 -0.116 0.153 3 
0.467 -0.126 0.153 3 
0.468 -0.135 0.154 3 
0.462 0.337 0.062 3 
0.468 -0.146 0.154 3 
0.469 -0.155 0.154 3 
0.466 -0.106 0.144 3 
0.462 0.014 0.143 3 
0.465 -0.186 0.014 3 
0.463 0.003 0.143 3 
0.476 -0.305 0.134 3 
0.463 -0.006 0.143 3 
0.463 -0.017 0.143 3 
0.465 -0.047 0.143 3 
0.465 -0.055 0.143 3 
0.465 -0.065 0.144 3 
0.466 -0.076 0.144 3 
0.466 -0.085 0.144 3 
0.462 0.024 0.143 3 
0.476 -0.305 0.152 3 
0.464 0.003 0.132 3 
0.476 -0.315 0.152 3 
0.478 -0.328 0.153 3 
0.479 -0.336 0.154 3 
0.478 -0.345 0.154 3 
0.478 -0.356 0.154 3 
0.476 -0.335 0.114 3 
0.47 0.349 0.148 3 
0.463 0.297 0.144 3 
0.469 -0.206 0.113 3 
0.462 0.154 0.144 3 
0.472 -0.245 0.154 3 
0.472 -0.257 0.152 3 
0.472 -0.266 0.152 3 
0.473 -0.277 0.153 3 
0.462 0.204 0.063 3 
0.475 -0.288 0.154 3 
0.476 -0.295 0.154 3 
0.462 0.194 0.144 3 
0.463 0.183 0.144 3 
0.462 0.174 0.144 3 
0.462 0.163 0.144 3 
0.472 -0.235 0.154 3 
0.463 0.144 0.144 3 
0.463 0.133 0.144 3 
0.463 0.124 0.143 3 
0.462 0.113 0.143 3 
0.462 0.102 0.143 3 
0.463 0.094 0.143 3 
0.464 0.084 0.143 3 
0.462 0.064 0.143 3 
0.463 0.054 0.143 3 
0.462 0.032 0.143 3 
0.473 -0.277 0.167 3 
0.469 -0.155 0.163 3 
0.47 -0.276 0.083 3 
0.469 -0.167 0.163 3 
0.469 -0.175 0.163 3 
0.47 -0.188 0.164 3 
0.466 -0.106 0.104 3 
0.469 -0.256 0.052 3 
0.47 -0.196 0.164 3 
0.47 -0.205 0.164 3 
0.467 -0.167 0.033 3 
0.47 -0.217 0.164 3 
0.476 -0.357 0.133 3 
0.461 0.184 0.033 3 
0.48 -0.338 0.172 3 
0.479 -0.347 0.172 3 
0.479 -0.355 0.173 3 
0.462 0.341 0.163 3 
0.461 0.333 0.163 3 
0.46 0.271 0.104 3 
0.464 0.322 0.163 3 
0.464 0.312 0.163 3 
0.461 0.134 0.073 3 
0.464 0.062 0.157 3 
0.464 0.027 0.159 3 
0.469 -0.215 0.122 3 
0.463 0.273 0.164 3 
0.463 0.264 0.163 3 
0.463 0.254 0.163 3 
0.463 0.242 0.163 3 
0.463 0.233 0.162 3 
0.463 0.224 0.162 3 
0.464 0.092 0.16 3 
0.46 0.239 0.114 3 
0.464 0.07 0.16 3 
0.469 -0.226 0.033 3 
0.464 0.054 0.157 3 
0.466 -0.136 0.104 3 
0.469 -0.244 0.024 3 
0.464 0.009 0.159 3 
0.462 0.204 0.084 3 
0.464 0.003 0.159 3 
0.464 -0.006 0.159 3 
0.465 -0.106 0.023 3 
0.464 -0.017 0.159 3 
0.469 -0.136 0.162 3 
0.478 -0.357 0.163 3 
0.468 -0.146 0.162 3 
0.465 -0.195 0.014 3 
0.462 0.094 0.103 3 
0.475 -0.316 0.102 3 
0.464 0.022 0.154 3 
0.469 -0.247 0.033 3 
0.464 0.014 0.154 3 
0.463 0.003 0.154 3 
0.464 -0.006 0.154 3 
0.465 -0.014 0.154 3 
0.465 -0.017 0.154 3 
0.465 -0.025 0.154 3 
0.464 -0.028 0.154 3 
0.463 0.033 0.154 3 
0.465 -0.036 0.154 3 
0.465 -0.047 0.154 3 
0.475 -0.288 0.162 3 
0.476 -0.296 0.163 3 
0.474 -0.352 0.064 3 
0.476 -0.306 0.163 3 
0.477 -0.317 0.164 3 
0.462 0.262 0.154 3 
0.461 0.153 0.033 3 
0.462 0.253 0.154 3 
0.462 0.244 0.154 3 
0.463 0.138 0.154 3 
0.464 0.022 0.157 3 
0.473 -0.227 0.163 3 
0.466 -0.136 0.093 3 
0.472 -0.236 0.163 3 
0.472 -0.245 0.163 3 
0.473 -0.258 0.164 3 
0.46 0.243 0.043 3 
0.473 -0.267 0.164 3 
0.473 -0.277 0.164 3 
0.462 0.204 0.114 3 
0.462 0.157 0.154 3 
0.461 0.232 0.153 3 
0.463 0.127 0.154 3 
0.463 0.122 0.154 3 
0.463 0.114 0.154 3 
0.462 0.102 0.154 3 
0.463 0.094 0.154 3 
0.464 0.084 0.154 3 
0.464 0.073 0.154 3 
0.464 0.062 0.154 3 
0.464 0.054 0.154 3 
0.464 0.043 0.154 3 
0.462 0.094 0.124 3 
0.477 -0.316 0.134 3 
0.461 0.17 0.124 3 
0.461 0.164 0.124 3 
0.461 0.153 0.124 3 
0.461 0.183 0.052 3 
0.461 0.142 0.124 3 
0.462 0.132 0.124 3 
0.474 -0.348 0.043 3 
0.462 0.124 0.124 3 
0.462 0.113 0.124 3 
0.462 0.102 0.124 3 
0.474 -0.296 0.133 3 
0.462 0.083 0.124 3 
0.462 0.072 0.124 3 
0.462 0.064 0.124 3 
0.462 0.054 0.124 3 
0.462 0.043 0.124 3 
0.462 0.032 0.124 3 
0.462 0.024 0.124 3 
0.463 0.014 0.124 3 
0.464 0.003 0.124 3 
0.464 -0.006 0.124 3 
0.464 -0.017 0.124 3 
0.47 -0.207 0.133 3 
0.462 0.312 0.133 3 
0.462 0.302 0.133 3 
0.462 0.293 0.133 3 
0.463 0.272 0.132 3 
0.462 0.262 0.132 3 
0.465 -0.022 0.13 3 
0.464 -0.049 0.13 3 
0.468 -0.247 0.013 3 
0.468 -0.177 0.132 3 
0.469 -0.186 0.132 3 
0.47 -0.195 0.133 3 
0.465 -0.02 0.124 3 
0.47 -0.216 0.133 3 
0.47 -0.227 0.133 3 
0.47 -0.236 0.134 3 
0.464 -0.007 0.052 3 
0.471 -0.246 0.134 3 
0.471 -0.256 0.134 3 
0.464 -0.13 0.015 3 
0.472 -0.266 0.132 3 
0.473 -0.276 0.132 3 
0.474 -0.286 0.133 3 
0.472 -0.306 0.072 3 
0.467 -0.145 0.123 3 
0.464 -0.036 0.122 3 
0.465 -0.047 0.122 3 
0.465 -0.063 0.122 3 
0.464 -0.015 0.052 3 
0.465 -0.076 0.122 3 
0.466 -0.087 0.122 3 
0.465 -0.095 0.122 3 
0.466 -0.106 0.123 3 
0.466 -0.115 0.123 3 
0.466 -0.126 0.123 3 
0.466 -0.137 0.123 3 
0.462 0.182 0.122 3 
0.467 -0.157 0.123 3 
0.467 -0.165 0.123 3 
0.468 -0.176 0.124 3 
0.469 -0.186 0.124 3 
0.47 -0.195 0.124 3 
0.469 -0.206 0.124 3 
0.46 0.336 0.122 3 
0.46 0.333 0.122 3 
0.462 0.322 0.122 3 
0.464 -0.033 0.119 3 
0.474 0.358 0.199 3 
0.461 0.301 0.124 3 
0.465 -0.025 0.124 3 
0.465 -0.036 0.124 3 
0.464 -0.052 0.124 3 
0.464 -0.057 0.124 3 
0.464 -0.065 0.124 3 
0.475 -0.304 0.131 3 
0.478 -0.327 0.132 3 
0.47 -0.276 0.044 3 
0.478 -0.337 0.132 3 
0.478 -0.348 0.133 3 
0.461 0.311 0.124 3 
0.462 0.322 0.134 3 
0.462 0.293 0.124 3 
0.462 0.283 0.124 3 
0.462 0.274 0.124 3 
0.461 0.261 0.123 3 
0.46 0.242 0.123 3 
0.461 0.234 0.123 3 
0.464 -0.046 0.114 3 
0.46 0.224 0.123 3 
0.461 0.204 0.122 3 
0.461 0.193 0.122 3 
0.475 -0.297 0.142 3 
0.471 -0.247 0.143 3 
0.471 -0.256 0.143 3 
0.472 -0.266 0.143 3 
0.473 -0.276 0.144 3 
0.473 -0.358 0.147 3 
0.461 0.03 0.134 3 
0.465 -0.033 0.135 3 
0.474 -0.287 0.142 3 
0.461 0.064 0.023 3 
0.475 -0.291 0.142 3 
0.467 -0.205 0.014 3 
0.471 -0.237 0.142 3 
0.462 0.204 0.092 3 
0.476 -0.305 0.143 3 
0.477 -0.316 0.143 3 
0.477 -0.326 0.144 3 
0.477 -0.337 0.144 3 
0.461 0.249 0.134 3 
0.461 0.243 0.134 3 
0.461 0.252 0.123 3 
0.46 0.233 0.134 3 
0.46 0.224 0.133 3 
0.464 -0.119 0.018 3 
0.468 -0.146 0.143 3 
0.46 -0.007 0.013 3 
0.462 0.274 0.144 3 
0.463 0.263 0.143 3 
0.462 0.253 0.143 3 
0.461 0.243 0.142 3 
0.461 0.234 0.142 3 
0.461 0.222 0.142 3 
0.461 0.214 0.142 3 
0.464 -0.038 0.14 3 
0.466 -0.115 0.142 3 
0.467 -0.126 0.142 3 
0.461 0.213 0.134 3 
0.468 -0.155 0.143 3 
0.468 -0.166 0.143 3 
0.468 -0.177 0.143 3 
0.468 -0.186 0.143 3 
0.469 -0.195 0.144 3 
0.47 -0.207 0.144 3 
0.47 -0.216 0.144 3 
0.461 0.332 0.142 3 
0.463 0.324 0.143 3 
0.463 0.314 0.142 3 
0.47 -0.225 0.142 3 
0.466 -0.126 0.134 3 
0.471 -0.298 0.012 3 
0.464 -0.017 0.132 3 
0.465 -0.03 0.133 3 
0.465 -0.036 0.133 3 
0.465 -0.047 0.133 3 
0.465 -0.055 0.133 3 
0.465 -0.065 0.133 3 
0.466 -0.076 0.133 3 
0.465 -0.087 0.133 3 
0.466 -0.095 0.133 3 
0.465 -0.117 0.133 3 
0.463 -0.006 0.132 3 
0.464 -0.017 0.113 3 
0.466 -0.137 0.134 3 
0.467 -0.146 0.134 3 
0.467 -0.157 0.134 3 
0.467 -0.165 0.134 3 
0.478 -0.348 0.142 3 
0.475 -0.356 0.141 3 
0.46 0.337 0.134 3 
0.474 -0.296 0.113 3 
0.459 0.332 0.133 3 
0.472 -0.287 0.092 3 
0.462 0.102 0.132 3 
0.471 -0.265 0.123 3 
0.46 0.204 0.133 3 
0.462 0.193 0.133 3 
0.467 -0.145 0.052 3 
0.462 0.182 0.133 3 
0.462 0.174 0.133 3 
0.461 0.162 0.133 3 
0.462 0.143 0.133 3 
0.463 0.132 0.133 3 
0.463 0.124 0.133 3 
0.463 0.113 0.132 3 
0.462 0.284 0.144 3 
0.464 -0.036 0.092 3 
0.462 0.094 0.132 3 
0.463 0.083 0.132 3 
0.463 0.073 0.132 3 
0.463 0.062 0.132 3 
0.463 0.054 0.132 3 
0.462 0.043 0.132 3 
0.46 0.243 0.062 3 
0.462 0.024 0.132 3 
0.463 0.014 0.132 3 
0.477 -0.319 0.123 3 
0.468 0.063 0.183 3 
0.47 0.053 0.184 3 
0.481 -0.355 0.192 3 
0.47 0.042 0.184 3 
0.469 0.033 0.183 3 
0.469 0.023 0.183 3 
0.468 0.014 0.183 3 
0.46 0.302 0.082 3 
0.467 0.003 0.182 3 
0.463 0.043 0.052 3 
0.468 -0.006 0.183 3 
0.468 0.074 0.183 3 
0.469 -0.015 0.183 3 
0.469 -0.026 0.183 3 
0.468 -0.036 0.174 3 
0.468 -0.036 0.183 3 
0.469 -0.045 0.183 3 
0.465 -0.063 0.063 3 
0.47 -0.056 0.184 3 
0.47 -0.067 0.184 3 
0.47 -0.075 0.184 3 
0.462 0.302 0.113 3 
0.474 -0.352 0.096 3 
0.467 -0.137 0.142 3 
0.483 -0.325 0.2 3 
0.471 -0.206 0.173 3 
0.483 -0.336 0.201 3 
0.483 -0.347 0.202 3 
0.475 0.359 0.196 3 
0.475 -0.303 0.119 3 
0.47 0.35 0.194 3 
0.468 0.34 0.192 3 
0.465 0.194 0.184 3 
0.466 0.172 0.184 3 
0.47 -0.168 0.174 3 
0.474 -0.185 0.188 3 
0.465 0.163 0.184 3 
0.465 0.154 0.183 3 
0.462 0.203 0.142 3 
0.468 0.144 0.184 3 
0.468 0.133 0.184 3 
0.468 0.124 0.184 3 
0.465 -0.106 0.133 3 
0.468 0.113 0.184 3 
0.468 0.102 0.183 3 
0.469 0.094 0.184 3 
0.468 0.083 0.183 3 
0.461 0.203 0.033 3 
0.464 0.194 0.181 3 
0.46 0.312 0.062 3 
0.467 0.184 0.182 3 
0.471 -0.086 0.182 3 
0.472 -0.095 0.182 3 
0.462 0.043 0.143 3 
0.472 -0.106 0.182 3 
0.471 -0.117 0.182 3 
0.471 -0.126 0.182 3 
0.47 -0.136 0.182 3 
0.47 -0.145 0.182 3 
0.464 0.199 0.181 3 
0.471 -0.157 0.183 3 
0.472 -0.166 0.184 3 
0.472 -0.175 0.184 3 
0.474 -0.256 0.173 3 
0.461 0.244 0.093 3 
0.479 -0.307 0.191 3 
0.479 -0.317 0.192 3 
0.481 -0.326 0.193 3 
0.481 -0.337 0.194 3 
0.466 0.326 0.184 3 
0.466 0.322 0.184 3 
0.464 0.253 0.183 3 
0.474 -0.227 0.189 3 
0.477 -0.275 0.192 3 
0.478 -0.286 0.193 3 
0.464 0.103 0.168 3 
0.479 -0.297 0.194 3 
0.474 -0.349 0.032 3 
0.475 -0.363 0.197 3 
0.465 0.276 0.184 3 
0.465 0.273 0.184 3 
0.469 -0.226 0.052 3 
0.465 0.263 0.184 3 
0.469 -0.217 0.044 3 
0.465 -0.065 0.122 3 
0.465 0.248 0.183 3 
0.465 0.242 0.183 3 
0.466 0.233 0.183 3 
0.464 -0.135 0.012 3 
0.466 0.224 0.183 3 
0.462 0.083 0.073 3 
0.467 0.213 0.183 3 
0.461 0.213 0.122 3 
0.465 0.203 0.182 3 
0.469 0.072 0.186 3 
0.466 0.204 0.188 3 
0.466 0.192 0.188 3 
0.467 0.184 0.188 3 
0.467 0.173 0.188 3 
0.466 0.163 0.187 3 
0.466 0.152 0.187 3 
0.461 0.281 0.093 3 
0.468 0.144 0.187 3 
0.468 0.133 0.187 3 
0.461 0.064 0.113 3 
0.469 0.122 0.187 3 
0.468 0.214 0.189 3 
0.468 0.113 0.186 3 
0.465 0.281 0.17 3 
0.469 0.102 0.187 3 
0.464 0.084 0.16 3 
0.469 0.094 0.186 3 
0.469 0.083 0.186 3 
0.469 0.064 0.186 3 
0.47 0.053 0.187 3 
0.47 0.042 0.186 3 
0.47 0.034 0.186 3 
0.47 0.023 0.186 3 
0.468 0.302 0.193 3 
0.47 0.35 0.197 3 
0.464 0.153 0.166 3 
0.461 0.142 0.084 3 
0.469 0.342 0.196 3 
0.467 0.332 0.195 3 
0.462 0.024 0.102 3 
0.464 -0.025 0.063 3 
0.468 0.329 0.194 3 
0.467 -0.145 0.093 3 
0.468 0.322 0.194 3 
0.468 0.312 0.193 3 
0.47 0.014 0.186 3 
0.461 0.181 0.114 3 
0.468 0.292 0.192 3 
0.467 0.281 0.191 3 
0.466 0.271 0.19 3 
0.465 0.264 0.19 3 
0.465 0.254 0.189 3 
0.466 0.243 0.189 3 
0.467 0.234 0.189 3 
0.468 0.223 0.189 3 
0.465 -0.036 0.143 3 
0.461 0.262 0.062 3 
0.475 -0.179 0.191 3 
0.475 -0.185 0.191 3 
0.475 -0.197 0.192 3 
0.474 -0.2 0.191 3 
0.474 -0.206 0.191 3 
0.465 -0.052 0.044 3 
0.474 -0.215 0.192 3 
0.475 -0.218 0.192 3 
0.475 -0.227 0.193 3 
0.476 -0.237 0.193 3 
0.475 -0.246 0.193 3 
0.474 -0.176 0.19 3 
0.476 -0.255 0.194 3 
0.465 -0.076 0.074 3 
0.476 -0.265 0.194 3 
0.477 -0.275 0.195 3 
0.459 0.324 0.054 3 
0.479 -0.287 0.196 3 
0.464 -0.076 0.023 3 
0.48 -0.295 0.197 3 
0.48 -0.305 0.198 3 
0.457 0.311 0.012 3 
0.481 -0.316 0.199 3 
0.473 -0.087 0.188 3 
0.468 0.003 0.186 3 
0.469 -0.006 0.186 3 
0.469 -0.015 0.186 3 
0.47 -0.026 0.187 3 
0.469 -0.037 0.186 3 
0.469 -0.045 0.186 3 
0.47 -0.056 0.186 3 
0.471 -0.067 0.187 3 
0.465 0.214 0.171 3 
0.472 -0.076 0.187 3 
0.465 0.128 0.163 3 
0.467 0.313 0.184 3 
0.474 -0.096 0.189 3 
0.473 -0.107 0.188 3 
0.472 -0.115 0.188 3 
0.473 -0.126 0.189 3 
0.473 -0.135 0.189 3 
0.473 -0.146 0.189 3 
0.473 -0.155 0.189 3 
0.475 -0.168 0.191 3 
0.465 -0.065 0.074 3 
0.474 -0.17 0.19 3 
0.464 0.333 0.172 3 
0.459 0.324 0.023 3 
0.473 -0.355 0.011 3 
0.471 -0.185 0.172 3 
0.472 -0.195 0.173 3 
0.471 -0.215 0.173 3 
0.472 -0.228 0.174 3 
0.473 -0.237 0.174 3 
0.462 0.043 0.034 3 
0.48 -0.346 0.182 3 
0.479 -0.355 0.182 3 
0.462 0.342 0.172 3 
0.464 0.139 0.169 3 
0.464 0.133 0.166 3 
0.464 0.106 0.165 3 
0.472 -0.245 0.171 3 
0.475 -0.266 0.173 3 
0.462 0.104 0.084 3 
0.475 -0.276 0.174 3 
0.463 0.207 0.164 3 
0.463 0.204 0.164 3 
0.462 0.192 0.164 3 
0.463 0.184 0.164 3 
0.463 0.173 0.164 3 
0.463 0.343 0.176 3 
0.469 -0.156 0.174 3 
0.469 -0.179 0.174 3 
0.474 -0.25 0.178 3 
0.476 -0.336 0.064 3 
0.478 -0.309 0.182 3 
0.462 0.053 0.002 3 
0.478 -0.319 0.183 3 
0.468 -0.185 0.094 3 
0.481 -0.329 0.184 3 
0.48 -0.339 0.184 3 
0.474 -0.361 0.184 3 
0.464 0.164 0.163 3 
0.464 0.316 0.174 3 
0.464 0.313 0.174 3 
0.467 -0.176 0.033 3 
0.464 0.303 0.174 3 
0.464 0.293 0.173 3 
0.465 0.291 0.174 3 
0.464 0.281 0.173 3 
0.461 -0.025 0.013 3 
0.464 0.274 0.173 3 
0.464 0.182 0.17 3 
0.464 0.159 0.169 3 
0.468 -0.127 0.164 3 
0.467 -0.036 0.163 3 
0.467 -0.047 0.163 3 
0.467 -0.055 0.163 3 
0.466 -0.066 0.163 3 
0.462 0.292 0.113 3 
0.467 -0.077 0.163 3 
0.468 -0.085 0.164 3 
0.469 -0.097 0.164 3 
0.468 -0.105 0.164 3 
0.46 0.283 0.024 3 
0.468 -0.116 0.164 3 
0.466 -0.025 0.163 3 
0.474 -0.265 0.17 3 
0.476 -0.286 0.171 3 
0.476 -0.296 0.172 3 
0.479 -0.309 0.173 3 
0.463 0.341 0.143 3 
0.478 -0.318 0.174 3 
0.479 -0.326 0.174 3 
0.466 -0.167 0.023 3 
0.463 0.295 0.164 3 
0.463 0.292 0.164 3 
0.463 0.282 0.164 3 
0.465 0.063 0.163 3 
0.464 0.153 0.163 3 
0.465 0.148 0.164 3 
0.464 0.144 0.163 3 
0.464 0.133 0.163 3 
0.464 0.122 0.163 3 
0.464 0.114 0.163 3 
0.461 0.324 0.113 3 
0.464 0.103 0.163 3 
0.465 0.093 0.163 3 
0.465 0.084 0.163 3 
0.465 0.073 0.163 3 
0.469 -0.147 0.174 3 
0.465 0.044 0.162 3 
0.464 0.041 0.162 3 
0.465 0.033 0.162 3 
0.475 -0.329 0.084 3 
0.465 0.022 0.162 3 
0.466 0.014 0.163 3 
0.465 0.003 0.162 3 
0.474 -0.357 0.12 3 
0.465 -0.006 0.162 3 
0.465 -0.017 0.163 3 
0.46 0.312 0.093 3 
0.466 0.118 0.174 3 
0.466 -0.096 0.144 3 
0.466 0.112 0.174 3 
0.465 0.104 0.174 3 
0.466 0.093 0.174 3 
0.467 0.082 0.174 3 
0.466 0.074 0.174 3 
0.465 0.063 0.174 3 
0.463 0.204 0.153 3 
0.466 0.052 0.174 3 
0.467 0.044 0.174 3 
0.464 0.232 0.177 3 
0.467 0.033 0.174 3 
0.465 0.054 0.163 3 
0.467 0.017 0.174 3 
0.467 0.014 0.174 3 
0.466 0.003 0.174 3 
0.466 -0.006 0.174 3 
0.467 -0.015 0.174 3 
0.467 -0.025 0.174 3 
0.459 0.103 0.013 3 
0.468 -0.047 0.174 3 
0.468 -0.055 0.174 3 
0.474 -0.205 0.183 3 
0.461 0.294 0.093 3 
0.467 0.303 0.184 3 
0.466 0.293 0.183 3 
0.464 0.265 0.181 3 
0.464 0.262 0.181 3 
0.47 -0.285 0.064 3 
0.464 0.244 0.18 3 
0.464 0.205 0.179 3 
0.473 -0.187 0.182 3 
0.474 -0.196 0.182 3 
0.475 -0.2 0.183 3 
0.467 -0.066 0.174 3 
0.473 -0.217 0.183 3 
0.473 -0.226 0.183 3 
0.474 -0.236 0.184 3 
0.476 -0.243 0.184 3 
0.482 -0.345 0.192 3 
0.462 0.113 0.113 3 
0.463 0.093 0.052 3 
0.474 -0.362 0.19 3 
0.467 0.349 0.184 3 
0.467 0.341 0.183 3 
0.465 0.154 0.172 3 
0.464 -0.025 0.132 3 
0.464 0.211 0.173 3 
0.471 -0.237 0.123 3 
0.463 0.204 0.173 3 
0.461 0.283 0.043 3 
0.463 0.193 0.172 3 
0.465 0.183 0.173 3 
0.465 0.174 0.173 3 
0.464 0.165 0.172 3 
0.47 -0.285 0.052 3 
0.465 0.163 0.172 3 
0.465 0.217 0.174 3 
0.465 0.142 0.172 3 
0.466 0.134 0.172 3 
0.467 -0.077 0.172 3 
0.469 -0.086 0.172 3 
0.47 -0.097 0.173 3 
0.469 -0.105 0.173 3 
0.459 0.244 0.103 3 
0.469 -0.116 0.173 3 
0.47 -0.125 0.173 3 
0.468 -0.135 0.173 3 
0.464 0.322 0.154 3 
0.464 0.297 0.176 3 
0.459 0.214 0.014 3 
0.476 -0.246 0.182 3 
0.476 -0.255 0.182 3 
0.476 -0.268 0.182 3 
0.477 -0.275 0.183 3 
0.474 -0.327 0.049 3 
0.478 -0.285 0.184 3 
0.477 -0.298 0.184 3 
0.464 0.33 0.178 3 
0.464 0.32 0.178 3 
0.464 0.313 0.177 3 
0.464 -0.025 0.143 3 
0.464 0.294 0.176 3 
0.463 0.258 0.174 3 
0.46 0.301 0.032 3 
0.463 0.252 0.174 3 
0.464 0.244 0.174 3 
0.464 0.232 0.174 3 
0.474 -0.317 0.052 3 
0.465 0.226 0.174 3 
0.464 -0.046 0.092 3 
0.464 0.223 0.174 3 
0.46 0.223 0.044 3 
0.474 -0.355 0.046 3 
0.456 0.331 0.043 3 
0.459 0.324 0.043 3 
0.459 0.314 0.043 3 
0.459 0.304 0.043 3 
0.465 -0.065 0.044 3 
0.46 0.292 0.043 3 
0.461 0.274 0.043 3 
0.461 0.262 0.043 3 
0.46 0.223 0.022 3 
0.461 0.253 0.043 3 
0.474 -0.338 0.046 3 
0.46 0.214 0.044 3 
0.46 0.203 0.044 3 
0.46 0.194 0.044 3 
0.461 0.183 0.044 3 
0.461 0.172 0.044 3 
0.461 0.164 0.044 3 
0.461 0.153 0.044 3 
0.462 0.142 0.044 3 
0.462 0.134 0.044 3 
0.462 0.123 0.044 3 
0.461 0.112 0.044 3 
0.468 -0.196 0.052 3 
0.465 -0.09 0.052 3 
0.464 -0.095 0.052 3 
0.465 -0.098 0.052 3 
0.465 -0.105 0.052 3 
0.465 -0.116 0.052 3 
0.466 -0.125 0.052 3 
0.467 -0.136 0.052 3 
0.467 -0.156 0.052 3 
0.466 -0.167 0.052 3 
0.467 -0.176 0.052 3 
0.468 -0.185 0.052 3 
0.461 0.104 0.044 3 
0.469 -0.217 0.052 3 
0.469 -0.235 0.052 3 
0.47 -0.245 0.052 3 
0.469 -0.265 0.052 3 
0.469 -0.275 0.052 3 
0.472 -0.296 0.052 3 
0.473 -0.306 0.052 3 
0.475 -0.325 0.052 3 
0.475 -0.335 0.052 3 
0.474 -0.348 0.052 3 
0.465 -0.068 0.05 3 
0.47 -0.285 0.013 3 
0.467 -0.136 0.044 3 
0.467 -0.145 0.044 3 
0.467 -0.156 0.044 3 
0.467 -0.176 0.044 3 
0.468 -0.188 0.044 3 
0.468 -0.196 0.044 3 
0.469 -0.206 0.044 3 
0.469 -0.226 0.044 3 
0.469 -0.235 0.044 3 
0.469 -0.247 0.044 3 
0.469 -0.256 0.044 3 
0.466 -0.125 0.044 3 
0.469 -0.265 0.044 3 
0.471 -0.285 0.044 3 
0.472 -0.296 0.044 3 
0.472 -0.305 0.044 3 
0.46 0.223 0.033 3 
0.473 -0.316 0.044 3 
0.474 -0.327 0.043 3 
0.473 -0.337 0.043 3 
0.464 -0.065 0.042 3 
0.464 -0.087 0.042 3 
0.475 -0.339 0.038 3 
0.464 -0.007 0.044 3 
0.463 0.093 0.044 3 
0.463 0.083 0.044 3 
0.462 0.074 0.044 3 
0.465 -0.06 0.044 3 
0.463 0.064 0.044 3 
0.462 0.053 0.044 3 
0.463 0.043 0.044 3 
0.462 0.032 0.044 3 
0.462 0.024 0.044 3 
0.463 0.014 0.044 3 
0.463 0.003 0.044 3 
0.464 -0.087 0.052 3 
0.464 -0.025 0.044 3 
0.463 -0.036 0.044 3 
0.464 -0.046 0.044 3 
0.464 -0.057 0.044 3 
0.465 -0.076 0.044 3 
0.464 -0.079 0.044 3 
0.465 -0.087 0.044 3 
0.466 -0.095 0.044 3 
0.466 -0.106 0.044 3 
0.466 -0.117 0.044 3 
0.465 -0.079 0.063 3 
0.463 0.014 0.063 3 
0.463 0.003 0.063 3 
0.463 -0.006 0.063 3 
0.464 -0.017 0.063 3 
0.464 -0.036 0.063 3 
0.464 -0.046 0.063 3 
0.464 -0.057 0.063 3 
0.464 -0.065 0.063 3 
0.465 -0.071 0.063 3 
0.461 0.164 0.033 3 
0.464 -0.076 0.063 3 
0.462 0.024 0.063 3 
0.465 -0.087 0.063 3 
0.466 -0.095 0.063 3 
0.465 -0.106 0.063 3 
0.466 -0.117 0.063 3 
0.475 -0.346 0.052 3 
0.466 -0.125 0.063 3 
0.467 -0.136 0.063 3 
0.467 -0.145 0.063 3 
0.467 -0.156 0.063 3 
0.467 -0.167 0.063 3 
0.467 -0.187 0.063 3 
0.462 0.123 0.063 3 
0.46 0.283 0.062 3 
0.461 0.253 0.062 3 
0.461 0.223 0.063 3 
0.462 0.193 0.063 3 
0.461 0.183 0.063 3 
0.464 -0.057 0.034 3 
0.461 0.172 0.063 3 
0.461 -0.036 0.013 3 
0.461 0.164 0.063 3 
0.461 0.142 0.063 3 
0.462 0.134 0.063 3 
0.469 -0.197 0.063 3 
0.462 0.112 0.063 3 
0.461 0.104 0.063 3 
0.462 0.093 0.063 3 
0.462 0.083 0.063 3 
0.463 0.072 0.063 3 
0.463 0.064 0.063 3 
0.463 0.053 0.063 3 
0.461 0.274 0.054 3 
0.463 0.043 0.063 3 
0.463 0.032 0.063 3 
0.475 -0.346 0.043 3 
0.462 0.074 0.052 3 
0.461 0.212 0.054 3 
0.461 0.203 0.054 3 
0.461 0.192 0.054 3 
0.461 0.172 0.052 3 
0.461 0.164 0.052 3 
0.461 0.153 0.052 3 
0.461 0.142 0.052 3 
0.462 0.134 0.052 3 
0.462 0.123 0.052 3 
0.461 0.112 0.052 3 
0.463 0.083 0.052 3 
0.46 0.223 0.054 3 
0.463 0.053 0.052 3 
0.463 0.032 0.052 3 
0.462 0.024 0.052 3 
0.463 0.014 0.052 3 
0.463 0.003 0.052 3 
0.464 -0.025 0.052 3 
0.464 -0.036 0.052 3 
0.464 -0.057 0.052 3 
0.465 -0.063 0.052 3 
0.464 -0.065 0.052 3 
0.464 -0.076 0.052 3 
0.475 -0.325 0.064 3 
0.469 -0.206 0.063 3 
0.469 -0.217 0.064 3 
0.469 -0.226 0.064 3 
0.469 -0.235 0.064 3 
0.47 -0.248 0.064 3 
0.47 -0.257 0.064 3 
0.47 -0.266 0.064 3 
0.47 -0.276 0.064 3 
0.474 -0.307 0.064 3 
0.474 -0.317 0.064 3 
0.475 -0.322 0.064 3 
0.457 0.332 0.034 3 
0.476 -0.347 0.064 3 
0.467 -0.167 0.044 3 
0.474 -0.355 0.064 3 
0.46 0.302 0.054 3 
0.46 0.293 0.054 3 
0.461 0.283 0.054 3 
0.46 0.264 0.054 3 
0.46 0.252 0.054 3 
0.46 0.243 0.054 3 
0.46 0.234 0.054 3 
0.459 0.263 0.013 3 
0.476 -0.348 0.02 3 
0.475 -0.357 0.02 3 
0.457 0.332 0.014 3 
0.473 -0.33 0.014 3 
0.475 -0.34 0.014 3 
0.474 -0.349 0.014 3 
0.475 -0.357 0.014 3 
0.456 0.323 0.012 3 
0.459 0.304 0.012 3 
0.459 0.294 0.012 3 
0.459 0.282 0.013 3 
0.475 -0.336 0.02 3 
0.458 0.254 0.013 3 
0.458 0.233 0.014 3 
0.459 0.222 0.014 3 
0.459 0.202 0.014 3 
0.458 0.193 0.014 3 
0.458 0.182 0.014 3 
0.459 0.174 0.014 3 
0.464 -0.095 0.015 3 
0.464 -0.135 0.015 3 
0.464 -0.163 0.015 3 
0.467 -0.216 0.014 3 
0.465 -0.092 0.023 3 
0.462 0.043 0.023 3 
0.462 0.032 0.023 3 
0.462 0.024 0.023 3 
0.462 0.003 0.023 3 
0.462 -0.007 0.023 3 
0.463 -0.025 0.023 3 
0.462 -0.036 0.023 3 
0.463 -0.046 0.023 3 
0.463 -0.057 0.023 3 
0.463 -0.065 0.023 3 
0.464 -0.086 0.023 3 
0.467 -0.225 0.014 3 
0.465 -0.117 0.023 3 
0.465 -0.125 0.023 3 
0.466 -0.136 0.023 3 
0.466 -0.147 0.023 3 
0.466 -0.156 0.023 3 
0.466 -0.175 0.023 3 
0.467 -0.187 0.022 3 
0.467 -0.196 0.022 3 
0.468 -0.205 0.022 3 
0.468 -0.217 0.022 3 
0.468 -0.226 0.022 3 
0.465 -0.122 0.007 3 
0.463 -0.086 0.013 3 
0.463 -0.097 0.013 3 
0.464 -0.105 0.012 3 
0.464 -0.116 0.012 3 
0.464 -0.127 0.012 3 
0.464 -0.146 0.012 3 
0.464 -0.155 0.012 3 
0.464 -0.166 0.012 3 
0.465 -0.169 0.012 3 
0.465 -0.175 0.012 3 
0.465 -0.164 0.009 3 
0.462 -0.075 0.013 3 
0.465 -0.125 0.007 3 
0.465 -0.136 0.007 3 
0.465 -0.136 0.004 3 
0.465 -0.195 0.003 3 
0.468 -0.208 0.003 3 
0.468 -0.217 0.003 3 
0.461 0.072 0.002 3 
0.461 0.064 0.002 3 
0.463 0.043 0.002 3 
0.463 0.024 0.002 3 
0.463 -0.036 0.002 3 
0.459 0.084 0.013 3 
0.468 -0.235 0.014 3 
0.468 -0.255 0.013 3 
0.469 -0.268 0.013 3 
0.47 -0.275 0.013 3 
0.471 -0.305 0.012 3 
0.471 -0.315 0.012 3 
0.474 -0.338 0.011 3 
0.459 0.152 0.012 3 
0.46 0.133 0.012 3 
0.46 0.114 0.012 3 
0.459 0.092 0.013 3 
0.462 0.053 0.023 3 
0.46 0.074 0.013 3 
0.46 0.063 0.013 3 
0.46 0.053 0.013 3 
0.46 0.042 0.013 3 
0.46 0.034 0.013 3 
0.46 0.024 0.013 3 
0.46 0.013 0.013 3 
0.46 0.003 0.013 3 
0.461 -0.046 0.013 3 
0.462 -0.065 0.013 3 
0.465 -0.081 0.034 3 
0.463 0.053 0.034 3 
0.462 0.032 0.034 3 
0.462 0.024 0.034 3 
0.462 0.014 0.034 3 
0.462 0.003 0.034 3 
0.463 -0.007 0.034 3 
0.463 -0.017 0.034 3 
0.463 -0.025 0.034 3 
0.463 -0.036 0.034 3 
0.464 -0.065 0.034 3 
0.464 -0.076 0.034 3 
0.462 0.064 0.034 3 
0.465 -0.087 0.034 3 
0.466 -0.095 0.034 3 
0.466 -0.106 0.034 3 
0.465 -0.125 0.004 3 
0.466 -0.117 0.034 3 
0.46 0.122 0.012 3 
0.466 -0.125 0.034 3 
0.466 -0.136 0.034 3 
0.467 -0.145 0.034 3 
0.467 -0.156 0.033 3 
0.467 -0.187 0.033 3 
0.461 0.212 0.033 3 
0.459 0.324 0.034 3 
0.459 0.314 0.034 3 
0.475 -0.346 0.034 3 
0.472 -0.316 0.023 3 
0.46 0.292 0.032 3 
0.461 0.283 0.032 3 
0.461 0.274 0.032 3 
0.46 0.264 0.032 3 
0.46 0.252 0.032 3 
0.459 0.242 0.033 3 
0.46 0.234 0.033 3 
0.468 -0.196 0.033 3 
0.46 0.194 0.033 3 
0.461 0.172 0.033 3 
0.461 0.142 0.033 3 
0.461 0.134 0.033 3 
0.461 0.123 0.033 3 
0.462 0.112 0.033 3 
0.462 0.104 0.034 3 
0.462 0.093 0.034 3 
0.462 0.082 0.034 3 
0.462 0.074 0.034 3 
0.46 0.172 0.022 3 
0.47 -0.266 0.024 3 
0.471 -0.276 0.024 3 
0.471 -0.285 0.024 3 
0.473 -0.297 0.024 3 
0.473 -0.307 0.023 3 
0.473 -0.327 0.023 3 
0.474 -0.335 0.023 3 
0.474 -0.345 0.023 3 
0.474 -0.356 0.023 3 
0.461 0.203 0.022 3 
0.459 0.182 0.022 3 
0.469 -0.256 0.024 3 
0.46 0.163 0.022 3 
0.462 0.014 0.023 3 
0.46 0.152 0.023 3 
0.46 0.144 0.023 3 
0.459 0.133 0.023 3 
0.461 0.122 0.023 3 
0.461 0.114 0.023 3 
0.461 0.104 0.023 3 
0.461 0.093 0.023 3 
0.461 0.082 0.023 3 
0.461 0.074 0.023 3 
0.474 -0.342 0.029 3 
0.468 -0.205 0.033 3 
0.468 -0.217 0.033 3 
0.469 -0.235 0.033 3 
0.469 -0.256 0.033 3 
0.469 -0.266 0.033 3 
0.471 -0.276 0.033 3 
0.472 -0.286 0.032 3 
0.472 -0.296 0.032 3 
0.472 -0.315 0.032 3 
0.473 -0.327 0.032 3 
0.475 -0.336 0.032 3 
0.461 0.294 0.062 3 
0.473 -0.355 0.026 3 
0.457 0.332 0.023 3 
0.459 0.313 0.023 3 
0.46 0.302 0.023 3 
0.46 0.292 0.024 3 
0.46 0.273 0.024 3 
0.46 0.264 0.024 3 
0.459 0.254 0.024 3 
0.459 0.242 0.024 3 
0.46 0.234 0.024 3 
0.468 -0.165 0.104 3 
0.465 -0.047 0.103 3 
0.465 -0.055 0.103 3 
0.465 -0.065 0.103 3 
0.466 -0.076 0.103 3 
0.465 -0.087 0.103 3 
0.46 0.234 0.043 3 
0.465 -0.095 0.103 3 
0.466 -0.117 0.104 3 
0.466 -0.125 0.104 3 
0.466 -0.145 0.104 3 
0.467 -0.156 0.104 3 
0.465 -0.038 0.103 3 
0.468 -0.176 0.104 3 
0.476 -0.355 0.109 3 
0.46 0.336 0.102 3 
0.458 0.33 0.102 3 
0.46 0.322 0.102 3 
0.461 0.314 0.102 3 
0.462 0.302 0.102 3 
0.464 -0.054 0.1 3 
0.464 -0.068 0.1 3 
0.469 -0.185 0.102 3 
0.469 -0.197 0.102 3 
0.462 0.072 0.103 3 
0.475 -0.325 0.073 3 
0.462 0.184 0.103 3 
0.462 0.173 0.103 3 
0.461 0.164 0.103 3 
0.461 0.153 0.103 3 
0.461 0.142 0.103 3 
0.462 0.134 0.103 3 
0.462 0.123 0.103 3 
0.463 0.113 0.103 3 
0.462 0.104 0.103 3 
0.461 0.083 0.103 3 
0.469 -0.206 0.102 3 
0.462 0.064 0.103 3 
0.462 0.054 0.103 3 
0.462 0.043 0.103 3 
0.469 -0.206 0.052 3 
0.463 0.032 0.103 3 
0.463 0.014 0.103 3 
0.463 0.003 0.103 3 
0.463 -0.006 0.103 3 
0.462 -0.017 0.103 3 
0.463 -0.025 0.103 3 
0.464 -0.036 0.103 3 
0.462 0.143 0.092 3 
0.461 0.272 0.093 3 
0.46 0.262 0.093 3 
0.461 0.254 0.093 3 
0.461 0.232 0.093 3 
0.461 0.224 0.092 3 
0.461 0.192 0.092 3 
0.461 0.184 0.092 3 
0.461 0.172 0.092 3 
0.462 0.064 0.052 3 
0.461 0.164 0.092 3 
0.461 0.153 0.092 3 
0.462 0.213 0.092 3 
0.462 0.134 0.092 3 
0.462 0.123 0.092 3 
0.469 -0.256 0.083 3 
0.462 0.113 0.092 3 
0.462 0.104 0.092 3 
0.461 0.093 0.092 3 
0.461 0.083 0.092 3 
0.461 0.072 0.092 3 
0.461 0.064 0.092 3 
0.461 0.053 0.092 3 
0.463 0.043 0.092 3 
0.475 -0.326 0.102 3 
0.469 -0.217 0.102 3 
0.469 -0.226 0.102 3 
0.47 -0.236 0.103 3 
0.47 -0.245 0.103 3 
0.47 -0.257 0.103 3 
0.47 -0.266 0.103 3 
0.471 -0.277 0.103 3 
0.472 -0.287 0.104 3 
0.473 -0.295 0.104 3 
0.474 -0.305 0.104 3 
0.464 -0.062 0.098 3 
0.462 0.193 0.103 3 
0.475 -0.337 0.102 3 
0.476 -0.345 0.102 3 
0.474 -0.356 0.102 3 
0.474 -0.315 0.099 3 
0.464 -0.068 0.074 3 
0.46 0.336 0.094 3 
0.46 0.332 0.094 3 
0.461 0.323 0.094 3 
0.461 -0.017 0.013 3 
0.461 0.304 0.093 3 
0.459 0.163 0.012 3 
0.462 0.054 0.113 3 
0.462 0.043 0.113 3 
0.467 -0.176 0.063 3 
0.461 0.212 0.022 3 
0.462 0.032 0.113 3 
0.463 0.024 0.113 3 
0.473 -0.297 0.064 3 
0.461 -0.057 0.013 3 
0.463 0.014 0.113 3 
0.461 0.262 0.073 3 
0.463 0.003 0.113 3 
0.462 0.072 0.113 3 
0.463 -0.006 0.113 3 
0.464 -0.025 0.114 3 
0.464 -0.036 0.114 3 
0.465 -0.052 0.114 3 
0.465 -0.055 0.114 3 
0.465 -0.065 0.114 3 
0.465 -0.076 0.114 3 
0.465 -0.087 0.114 3 
0.465 -0.095 0.114 3 
0.465 -0.106 0.114 3 
0.465 -0.117 0.114 3 
0.462 0.222 0.114 3 
0.471 -0.246 0.123 3 
0.471 -0.255 0.123 3 
0.472 -0.275 0.124 3 
0.473 -0.285 0.124 3 
0.474 -0.296 0.124 3 
0.476 -0.308 0.122 3 
0.477 -0.326 0.123 3 
0.477 -0.336 0.123 3 
0.476 -0.345 0.123 3 
0.475 -0.355 0.123 3 
0.46 0.233 0.114 3 
0.464 0.341 0.114 3 
0.462 0.213 0.114 3 
0.461 0.192 0.114 3 
0.461 0.173 0.114 3 
0.461 0.164 0.114 3 
0.462 0.154 0.114 3 
0.461 0.142 0.113 3 
0.462 0.134 0.114 3 
0.462 0.124 0.114 3 
0.462 0.102 0.113 3 
0.462 0.094 0.113 3 
0.462 0.083 0.113 3 
0.465 -0.036 0.106 3 
0.475 -0.303 0.113 3 
0.474 -0.305 0.113 3 
0.465 -0.095 0.023 3 
0.475 -0.31 0.113 3 
0.475 -0.316 0.113 3 
0.476 -0.328 0.114 3 
0.469 -0.247 0.083 3 
0.475 -0.348 0.114 3 
0.469 -0.247 0.024 3 
0.474 -0.35 0.114 3 
0.472 -0.355 0.114 3 
0.472 -0.287 0.112 3 
0.461 0.291 0.104 3 
0.461 0.282 0.104 3 
0.461 0.333 0.082 3 
0.46 0.262 0.104 3 
0.461 0.254 0.104 3 
0.461 0.323 0.082 3 
0.461 0.233 0.103 3 
0.458 0.272 0.013 3 
0.461 0.224 0.103 3 
0.462 0.213 0.103 3 
0.462 0.204 0.103 3 
0.468 -0.165 0.113 3 
0.461 0.334 0.114 3 
0.462 0.312 0.113 3 
0.461 0.282 0.113 3 
0.461 0.273 0.112 3 
0.461 0.263 0.112 3 
0.46 0.253 0.112 3 
0.466 -0.125 0.112 3 
0.466 -0.137 0.112 3 
0.469 -0.186 0.113 3 
0.467 -0.145 0.112 3 
0.467 -0.157 0.112 3 
0.463 0.032 0.092 3 
0.468 -0.176 0.113 3 
0.469 -0.197 0.113 3 
0.469 -0.215 0.113 3 
0.47 -0.227 0.114 3 
0.47 -0.236 0.114 3 
0.47 -0.245 0.114 3 
0.464 -0.046 0.052 3 
0.471 -0.255 0.114 3 
0.471 -0.267 0.112 3 
0.471 -0.277 0.112 3 
0.461 0.232 0.073 3 
0.475 -0.322 0.078 3 
0.462 0.338 0.074 3 
0.46 0.332 0.074 3 
0.46 0.322 0.074 3 
0.461 0.313 0.074 3 
0.46 0.302 0.074 3 
0.461 0.294 0.074 3 
0.46 0.283 0.074 3 
0.46 0.274 0.074 3 
0.461 0.253 0.073 3 
0.461 0.244 0.073 3 
0.465 -0.06 0.076 3 
0.461 0.223 0.073 3 
0.461 0.212 0.073 3 
0.462 0.204 0.073 3 
0.462 0.193 0.073 3 
0.461 0.184 0.073 3 
0.461 0.172 0.073 3 
0.461 0.164 0.073 3 
0.461 0.153 0.073 3 
0.461 0.142 0.073 3 
0.462 0.123 0.073 3 
0.461 0.112 0.073 3 
0.469 -0.235 0.083 3 
0.467 -0.136 0.082 3 
0.468 -0.145 0.082 3 
0.467 -0.156 0.082 3 
0.464 -0.015 0.044 3 
0.467 -0.167 0.082 3 
0.467 -0.176 0.082 3 
0.467 -0.187 0.083 3 
0.468 -0.196 0.083 3 
0.468 -0.205 0.083 3 
0.468 -0.217 0.083 3 
0.469 -0.226 0.083 3 
0.461 0.104 0.073 3 
0.469 -0.265 0.083 3 
0.459 0.144 0.012 3 
0.472 -0.287 0.084 3 
0.472 -0.297 0.084 3 
0.472 -0.306 0.084 3 
0.473 -0.317 0.084 3 
0.464 -0.076 0.079 3 
0.464 -0.125 0.079 3 
0.476 -0.336 0.082 3 
0.477 -0.345 0.082 3 
0.474 -0.352 0.082 3 
0.47 -0.248 0.072 3 
0.467 -0.145 0.074 3 
0.468 -0.156 0.074 3 
0.467 -0.167 0.074 3 
0.467 -0.176 0.074 3 
0.468 -0.188 0.074 3 
0.468 -0.196 0.074 3 
0.468 -0.205 0.074 3 
0.465 -0.052 0.071 3 
0.468 -0.217 0.072 3 
0.469 -0.226 0.072 3 
0.469 -0.235 0.072 3 
0.466 -0.136 0.074 3 
0.464 -0.105 0.015 3 
0.47 -0.257 0.072 3 
0.469 -0.265 0.072 3 
0.47 -0.276 0.072 3 
0.471 -0.286 0.072 3 
0.472 -0.297 0.072 3 
0.475 -0.335 0.073 3 
0.476 -0.347 0.073 3 
0.474 -0.352 0.073 3 
0.46 0.322 0.062 3 
0.46 0.302 0.062 3 
0.472 -0.306 0.032 3 
0.462 0.094 0.073 3 
0.462 0.072 0.073 3 
0.463 0.064 0.073 3 
0.463 -0.017 0.074 3 
0.463 0.053 0.073 3 
0.463 0.043 0.073 3 
0.463 0.032 0.073 3 
0.463 0.024 0.073 3 
0.464 -0.057 0.074 3 
0.463 0.014 0.073 3 
0.463 0.003 0.074 3 
0.461 0.153 0.063 3 
0.463 -0.006 0.074 3 
0.463 -0.025 0.074 3 
0.464 -0.036 0.074 3 
0.464 -0.046 0.074 3 
0.465 -0.06 0.074 3 
0.466 -0.087 0.074 3 
0.466 -0.095 0.074 3 
0.466 -0.106 0.074 3 
0.465 -0.117 0.074 3 
0.466 -0.125 0.074 3 
0.474 -0.315 0.093 3 
0.469 -0.206 0.094 3 
0.469 -0.217 0.094 3 
0.469 -0.226 0.094 3 
0.469 -0.235 0.094 3 
0.469 -0.256 0.094 3 
0.459 0.314 0.054 3 
0.465 -0.055 0.09 3 
0.47 -0.266 0.092 3 
0.471 -0.277 0.092 3 
0.472 -0.297 0.092 3 
0.473 -0.307 0.093 3 
0.469 -0.197 0.094 3 
0.476 -0.327 0.093 3 
0.477 -0.338 0.093 3 
0.477 -0.345 0.094 3 
0.473 -0.354 0.093 3 
0.465 -0.065 0.087 3 
0.475 -0.323 0.09 3 
0.459 0.264 0.084 3 
0.461 0.253 0.084 3 
0.461 0.244 0.084 3 
0.46 0.232 0.084 3 
0.461 0.224 0.084 3 
0.465 -0.079 0.093 3 
0.462 0.104 0.052 3 
0.462 0.024 0.092 3 
0.463 0.014 0.092 3 
0.463 0.003 0.092 3 
0.463 -0.017 0.092 3 
0.463 -0.025 0.092 3 
0.465 -0.049 0.092 3 
0.464 -0.057 0.092 3 
0.464 -0.065 0.092 3 
0.464 -0.076 0.092 3 
0.464 -0.046 0.034 3 
0.461 0.212 0.084 3 
0.466 -0.087 0.093 3 
0.466 -0.095 0.093 3 
0.465 -0.106 0.093 3 
0.466 -0.117 0.093 3 
0.466 -0.125 0.093 3 
0.46 0.194 0.022 3 
0.467 -0.156 0.093 3 
0.467 -0.167 0.093 3 
0.461 0.133 0.004 3 
0.467 -0.176 0.093 3 
0.46 0.283 0.082 3 
0.464 0.032 0.002 3 
0.463 -0.036 0.084 3 
0.464 -0.046 0.084 3 
0.461 0.212 0.063 3 
0.464 -0.057 0.084 3 
0.464 -0.065 0.084 3 
0.474 -0.325 0.087 3 
0.475 -0.347 0.014 3 
0.463 0.339 0.082 3 
0.461 0.313 0.082 3 
0.46 0.293 0.082 3 
0.463 -0.025 0.084 3 
0.474 -0.325 0.084 3 
0.46 0.274 0.082 3 
0.465 -0.073 0.082 3 
0.465 -0.076 0.082 3 
0.465 -0.087 0.082 3 
0.466 -0.095 0.082 3 
0.466 -0.106 0.082 3 
0.463 -0.017 0.023 3 
0.465 -0.117 0.082 3 
0.464 -0.119 0.082 3 
0.465 -0.125 0.082 3 
0.461 0.072 0.084 3 
0.462 0.193 0.084 3 
0.462 0.184 0.084 3 
0.462 0.173 0.084 3 
0.458 0.333 0.054 3 
0.461 0.164 0.084 3 
0.461 0.153 0.084 3 
0.462 0.134 0.084 3 
0.462 0.123 0.084 3 
0.462 0.112 0.084 3 
0.462 0.094 0.084 3 
0.462 0.083 0.084 3 
0.47 -0.227 0.122 3 
0.461 0.064 0.084 3 
0.462 0.053 0.084 3 
0.462 0.043 0.084 3 
0.462 0.032 0.084 3 
0.462 0.024 0.084 3 
0.463 0.014 0.084 3 
0.463 0.003 0.084 3 
0.463 -0.006 0.084 3 
0.475 -0.318 0.073 3 
0.462 -0.017 0.084 3 
0.306 -0.005 0.02 7 
0.299 0.002 0.02 7 
0.299 -0.015 0.02 7 
0.299 -0.005 0.02 7 
0.311 -0.015 0.018 7 
