# .PCD v0.7 - Point Cloud Data file
FIELDS x y z intensity
SIZE 4 4 4 4
TYPE F F F F
COUNT 1 1 1 1
WIDTH 1795
HEIGHT 1
VIEWPOINT 0 0 0 1 0 0 0
POINTS 1795
DATA ascii
0.255 -0.042 0.094 0 
0.243 -0.044 0.088 0 
0.251 -0.042 0.094 0 
0.247 -0.045 0.093 0 
0.244 -0.045 0.091 0 
0.234 -0.048 0.087 0 
0.261 -0.034 0.086 0 
0.314 -0.025 0.001 1 
0.314 -0.022 0.001 1 
0.343 0.019 -0.008 1 
0.354 0.08 -0.013 1 
0.352 0.114 -0.014 1 
0.35 0.124 -0.013 1 
0.352 0.131 -0.014 1 
0.353 0.133 -0.015 1 
0.353 0.144 -0.015 1 
0.352 0.157 -0.015 1 
0.349 0.174 -0.015 1 
0.35 0.193 -0.017 1 
0.331 -0.142 -0.005 1 
0.309 -0.089 0.004 1 
0.312 -0.007 0.004 1 
0.358 0.043 -0.013 1 
0.357 0.074 -0.013 1 
0.361 0.089 -0.014 1 
0.361 0.094 -0.015 1 
0.359 0.104 -0.014 1 
0.352 0.171 -0.014 1 
0.354 0.177 -0.015 1 
0.351 0.211 -0.016 1 
0.334 -0.145 -0.004 1 
0.334 -0.126 -0.003 1 
0.313 -0.095 0.004 1 
0.286 -0.065 0.014 1 
0.318 -0.013 0.003 1 
0.362 0.025 -0.012 1 
0.368 0.064 -0.015 1 
0.364 0.084 -0.014 1 
0.363 0.114 -0.014 1 
0.362 0.124 -0.014 1 
0.362 0.138 -0.014 1 
0.363 0.144 -0.015 1 
0.363 0.152 -0.015 1 
0.358 0.166 -0.014 1 
0.363 0.194 -0.017 1 
0.36 0.204 -0.017 1 
0.358 0.219 -0.017 1 
0.331 -0.116 -0.001 1 
0.328 -0.112 0 1 
0.291 -0.077 0.013 1 
0.316 -0.014 0.005 1 
0.353 0.018 -0.007 1 
0.373 0.034 -0.014 1 
0.374 0.037 -0.015 1 
0.373 0.043 -0.014 1 
0.373 0.054 -0.014 1 
0.372 0.065 -0.014 1 
0.373 0.075 -0.015 1 
0.37 0.083 -0.014 1 
0.371 0.087 -0.014 1 
0.374 0.104 -0.016 1 
0.371 0.11 -0.015 1 
0.369 0.113 -0.014 1 
0.361 0.1 -0.015 1 
0.367 0.124 -0.014 1 
0.364 0.214 -0.017 1 
0.364 0.226 -0.017 1 
0.343 -0.166 -0.005 1 
0.336 -0.119 -0.001 1 
0.294 -0.062 0.013 1 
0.306 -0.053 0.009 1 
0.323 -0.026 0.004 1 
0.321 -0.024 0.004 1 
0.36 0.019 -0.008 1 
0.38 0.04 -0.015 1 
0.378 0.044 -0.014 1 
0.378 0.094 -0.015 1 
0.374 0.136 -0.014 1 
0.374 0.144 -0.015 1 
0.374 0.156 -0.015 1 
0.373 0.173 -0.016 1 
0.372 0.183 -0.016 1 
0.373 0.194 -0.017 1 
0.374 0.204 -0.017 1 
0.372 0.214 -0.017 1 
0.371 0.224 -0.017 1 
0.339 -0.125 0 1 
0.309 -0.098 0.009 1 
0.374 0.022 -0.011 1 
0.384 0.033 -0.014 1 
0.386 0.042 -0.015 1 
0.384 0.071 -0.014 1 
0.383 0.084 -0.014 1 
0.384 0.099 -0.015 1 
0.382 0.112 -0.015 1 
0.381 0.114 -0.014 1 
0.381 0.12 -0.014 1 
0.382 0.124 -0.015 1 
0.383 0.133 -0.015 1 
0.381 0.144 -0.015 1 
0.378 0.151 -0.014 1 
0.379 0.154 -0.015 1 
0.378 0.157 -0.014 1 
0.38 0.163 -0.015 1 
0.379 0.184 -0.016 1 
0.297 -0.084 0.014 1 
0.304 -0.064 0.013 1 
0.341 -0.045 0.001 1 
0.334 -0.035 0.003 1 
0.331 -0.032 0.004 1 
0.3 -0.005 0.014 1 
0.383 0.023 -0.012 1 
0.389 0.064 -0.014 1 
0.389 0.068 -0.014 1 
0.392 0.073 -0.015 1 
0.393 0.084 -0.015 1 
0.39 0.089 -0.015 1 
0.386 0.139 -0.014 1 
0.383 0.194 -0.016 1 
0.384 0.204 -0.016 1 
0.38 0.241 -0.017 1 
0.381 0.245 -0.017 1 
0.338 -0.145 0.002 1 
0.338 -0.141 0.002 1 
0.321 -0.115 0.008 1 
0.296 -0.095 0.016 1 
0.303 -0.051 0.014 1 
0.335 -0.037 0.004 1 
0.303 -0.003 0.014 1 
0.394 0.043 -0.013 1 
0.312 -0.041 0.003 1 
0.398 0.084 -0.015 1 
0.394 0.103 -0.014 1 
0.39 0.123 -0.013 1 
0.394 0.131 -0.015 1 
0.393 0.133 -0.014 1 
0.394 0.144 -0.015 1 
0.394 0.146 -0.015 1 
0.391 0.153 -0.014 1 
0.393 0.163 -0.015 1 
0.39 0.184 -0.015 1 
0.39 0.222 -0.017 1 
0.331 -0.13 0.006 1 
0.335 -0.037 0.006 1 
0.403 0.053 -0.014 1 
0.404 0.064 -0.014 1 
0.404 0.066 -0.014 1 
0.407 0.074 -0.015 1 
0.404 0.088 -0.015 1 
0.399 0.104 -0.013 1 
0.393 0.194 -0.014 1 
0.393 0.198 -0.014 1 
0.394 0.214 -0.015 1 
0.394 0.243 -0.017 1 
0.394 0.248 -0.017 1 
0.392 0.259 -0.017 1 
0.312 -0.057 0.014 1 
0.306 -0.093 0.009 1 
0.349 -0.045 0.003 1 
0.314 0 0.014 1 
0.316 0.004 0.013 1 
0.316 0.005 0.013 1 
0.404 0.034 -0.012 1 
0.404 0.036 -0.012 1 
0.324 -0.108 0.001 1 
0.41 0.064 -0.014 1 
0.411 0.073 -0.014 1 
0.402 0.122 -0.013 1 
0.403 0.132 -0.013 1 
0.39 0.024 -0.012 1 
0.404 0.144 -0.014 1 
0.403 0.152 -0.014 1 
0.313 0.01 0.004 1 
0.404 0.16 -0.014 1 
0.404 0.174 -0.015 1 
0.404 0.177 -0.015 1 
0.401 0.184 -0.014 1 
0.402 0.194 -0.015 1 
0.401 0.203 -0.015 1 
0.401 0.222 -0.015 1 
0.402 0.233 -0.016 1 
0.4 0.244 -0.016 1 
0.402 0.262 -0.017 1 
0.399 0.267 -0.017 1 
0.316 -0.061 0.014 1 
0.403 0.023 -0.009 1 
0.411 0.033 -0.012 1 
0.413 0.044 -0.012 1 
0.414 0.051 -0.013 1 
0.414 0.094 -0.013 1 
0.41 0.104 -0.012 1 
0.412 0.114 -0.013 1 
0.41 0.122 -0.013 1 
0.407 0.134 -0.012 1 
0.404 0.193 -0.013 1 
0.407 0.233 -0.015 1 
0.399 0.241 -0.013 1 
0.351 0.154 -0.015 1 
0.296 -0.092 0.016 1 
0.419 0.043 -0.012 1 
0.42 0.053 -0.012 1 
0.421 0.064 -0.013 1 
0.422 0.074 -0.013 1 
0.423 0.083 -0.013 1 
0.31 -0.054 0.004 1 
0.42 0.094 -0.013 1 
0.414 0.143 -0.012 1 
0.414 0.152 -0.012 1 
0.414 0.159 -0.012 1 
0.414 0.184 -0.013 1 
0.413 0.193 -0.013 1 
0.414 0.242 -0.015 1 
0.412 0.251 -0.015 1 
0.414 0.267 -0.016 1 
0.389 0.093 -0.014 1 
0.424 0.103 -0.012 1 
0.423 0.114 -0.011 1 
0.424 0.124 -0.012 1 
0.421 0.144 -0.011 1 
0.422 0.154 -0.012 1 
0.419 0.162 -0.011 1 
0.417 0.251 -0.014 1 
0.419 0.258 -0.014 1 
0.42 0.262 -0.015 1 
0.422 0.273 -0.016 1 
0.421 0.283 -0.016 1 
0.382 0.214 -0.018 1 
0.424 0.026 -0.008 1 
0.434 0.043 -0.011 1 
0.434 0.053 -0.011 1 
0.433 0.062 -0.011 1 
0.432 0.074 -0.011 1 
0.434 0.082 -0.011 1 
0.433 0.094 -0.011 1 
0.429 0.114 -0.011 1 
0.43 0.124 -0.011 1 
0.429 0.144 -0.011 1 
0.423 0.183 -0.011 1 
0.424 0.194 -0.011 1 
0.424 0.204 -0.011 1 
0.338 -0.163 -0.006 1 
0.424 0.222 -0.012 1 
0.423 0.229 -0.012 1 
0.424 0.238 -0.013 1 
0.428 0.273 -0.015 1 
0.429 0.292 -0.016 1 
0.434 0.034 -0.009 1 
0.433 0.153 -0.01 1 
0.431 0.163 -0.01 1 
0.429 0.174 -0.01 1 
0.428 0.223 -0.011 1 
0.431 0.242 -0.012 1 
0.433 0.252 -0.013 1 
0.315 -0.065 0.013 1 
0.434 0.262 -0.013 1 
0.434 0.27 -0.013 1 
0.433 0.284 -0.014 1 
0.434 0.294 -0.014 1 
0.443 0.042 -0.008 1 
0.444 0.053 -0.009 1 
0.44 0.064 -0.008 1 
0.441 0.074 -0.008 1 
0.442 0.082 -0.009 1 
0.444 0.093 -0.009 1 
0.443 0.103 -0.009 1 
0.434 0.183 -0.008 1 
0.433 0.192 -0.008 1 
0.434 0.204 -0.009 1 
0.433 0.23 -0.009 1 
0.432 0.304 -0.012 1 
0.335 -0.001 0.018 1 
0.351 0.002 0.014 1 
0.354 0.015 0.014 1 
0.444 0.033 -0.006 1 
0.444 0.123 -0.007 1 
0.443 0.125 -0.007 1 
0.444 0.16 -0.008 1 
0.441 0.174 -0.007 1 
0.439 0.183 -0.007 1 
0.441 0.242 -0.009 1 
0.444 0.271 -0.01 1 
0.443 0.282 -0.011 1 
0.442 0.293 -0.011 1 
0.354 0 0.015 1 
0.364 0.014 0.013 1 
0.364 0.018 0.013 1 
0.45 0.033 -0.005 1 
0.452 0.054 -0.005 1 
0.454 0.062 -0.006 1 
0.451 0.074 -0.005 1 
0.454 0.093 -0.006 1 
0.454 0.099 -0.006 1 
0.455 0.104 -0.007 1 
0.449 0.123 -0.006 1 
0.45 0.134 -0.006 1 
0.453 0.154 -0.007 1 
0.444 0.203 -0.006 1 
0.444 0.308 -0.009 1 
0.444 0.317 -0.009 1 
0.413 0.213 -0.014 1 
0.361 0.002 0.016 1 
0.366 0.004 0.015 1 
0.37 0.013 0.014 1 
0.454 0.044 -0.003 1 
0.454 0.052 -0.003 1 
0.457 0.113 -0.005 1 
0.457 0.124 -0.005 1 
0.454 0.136 -0.004 1 
0.453 0.163 -0.005 1 
0.451 0.164 -0.004 1 
0.388 0.232 -0.017 1 
0.451 0.183 -0.005 1 
0.45 0.202 -0.005 1 
0.45 0.213 -0.005 1 
0.452 0.223 -0.006 1 
0.451 0.234 -0.006 1 
0.45 0.244 -0.006 1 
0.451 0.254 -0.006 1 
0.451 0.263 -0.006 1 
0.443 0.143 -0.01 1 
0.452 0.044 -0.005 1 
0.454 0.171 -0.002 1 
0.454 0.177 -0.002 1 
0.453 0.244 -0.004 1 
0.453 0.253 -0.004 1 
0.454 0.262 -0.004 1 
0.455 0.272 -0.005 1 
0.325 -0.115 0.005 1 
0.455 0.275 -0.005 1 
0.453 0.277 -0.004 1 
0.454 0.284 -0.005 1 
0.454 0.293 -0.005 1 
0.454 0.299 -0.005 1 
0.455 0.303 -0.006 1 
0.456 0.314 -0.006 1 
0.456 0.318 -0.006 1 
0.454 0.319 -0.006 1 
0.457 0.329 -0.007 1 
0.454 0.329 -0.006 1 
0.452 -0.004 0.004 1 
0.391 0.113 -0.013 1 
0.461 0.013 0.002 1 
0.464 0.024 0.004 1 
0.465 0.032 0.004 1 
0.465 0.035 0.004 1 
0.462 0.093 0.004 1 
0.313 -0.059 0.004 1 
0.461 0.104 0.004 1 
0.463 0.112 0.004 1 
0.463 0.123 0.004 1 
0.461 0.133 0.004 1 
0.462 0.154 0.003 1 
0.461 0.164 0.004 1 
0.461 0.184 0.003 1 
0.462 0.193 0.003 1 
0.463 0.202 0.003 1 
0.463 0.214 0.002 1 
0.463 0.222 0.002 1 
0.463 0.234 0.002 1 
0.456 0.324 0.001 1 
0.458 0.329 0 1 
0.46 0.335 0 1 
0.465 0.03 0.007 1 
0.465 0.035 0.007 1 
0.463 0.273 0.004 1 
0.461 0.281 0.004 1 
0.464 0.303 0.003 1 
0.463 0.311 0.003 1 
0.465 0.324 0.002 1 
0.466 0.328 0.002 1 
0.464 0.303 0.006 1 
0.462 -0.007 0.013 1 
0.462 0.003 0.013 1 
0.374 0.017 0.013 1 
0.412 0.202 -0.013 1 
0.465 0.294 0.009 1 
0.432 0.133 -0.012 1 
0.444 0.262 -0.01 1 
0.373 0.094 -0.015 1 
0.442 0.252 -0.009 1 
0.454 0.133 -0.004 1 
0.372 0.235 -0.016 1 
0.39 0.173 -0.015 1 
0.451 0.142 -0.006 1 
0.353 0.044 -0.012 1 
0.389 0.103 -0.015 1 
0.413 0.263 -0.016 1 
0.456 0.142 -0.005 1 
0.464 0.244 0.004 1 
0.373 0.073 -0.015 1 
0.442 0.153 -0.01 1 
0.429 0.283 -0.015 1 
0.354 0.164 -0.014 1 
0.44 0.214 -0.008 1 
0.351 0.033 -0.012 1 
0.447 0.311 -0.007 1 
0.461 0.142 0.004 1 
0.353 0.054 -0.013 1 
0.361 0.133 -0.014 1 
0.412 0.024 -0.01 1 
0.414 0.284 -0.017 1 
0.456 0.153 -0.005 1 
0.353 0.013 0.014 1 
0.354 0.204 -0.017 1 
0.4 0.214 -0.015 1 
0.399 0.163 -0.015 1 
0.464 0.038 0.004 1 
0.353 0.104 -0.014 1 
0.457 0.003 0.003 1 
0.372 0.063 -0.014 1 
0.413 0.223 -0.014 1 
0.382 0.064 -0.014 1 
0.424 0.174 -0.011 1 
0.352 0.074 -0.013 1 
0.393 0.201 -0.015 1 
0.464 0.032 0.002 1 
0.368 0.134 -0.014 1 
0.423 0.133 -0.012 1 
0.394 0.033 -0.013 1 
0.422 0.293 -0.017 1 
0.405 0.173 -0.015 1 
0.36 0.163 -0.015 1 
0.414 0.172 -0.013 1 
0.439 0.302 -0.011 1 
0.454 0.114 -0.007 1 
0.389 0.105 -0.015 1 
0.459 0.171 0.004 1 
0.437 0.307 -0.016 1 
0.359 0.173 -0.015 1 
0.404 0.112 -0.013 1 
0.434 0.297 -0.015 1 
0.306 0.004 0.004 1 
0.412 0.082 -0.015 1 
0.464 0.253 0.004 1 
0.315 -0.1 0.006 1 
0.452 0.273 -0.007 1 
0.324 -0.042 0.002 1 
0.463 0.261 0.004 1 
0.324 -0.14 -0.004 1 
0.36 0.184 -0.016 1 
0.367 0.232 -0.017 1 
0.431 0.103 -0.011 1 
0.44 0.114 -0.008 1 
0.394 0.049 -0.013 1 
0.404 0.167 -0.014 1 
0.321 -0.102 -0.001 1 
0.453 0.083 -0.006 1 
0.382 0.054 -0.014 1 
0.377 0.223 -0.017 1 
0.302 -0.064 0.015 1 
0.351 0.148 -0.014 1 
0.454 0.268 -0.004 1 
0.364 0.048 -0.013 1 
0.361 0.063 -0.014 1 
0.454 0.034 -0.003 1 
0.4 0.252 -0.016 1 
0.439 0.194 -0.007 1 
0.41 0.084 -0.014 1 
0.463 0.083 0.004 1 
0.355 0.159 -0.014 1 
0.314 -0.066 0.014 1 
0.318 -0.108 0.007 1 
0.404 0.2 -0.013 1 
0.433 0.206 -0.009 1 
0.442 0.224 -0.009 1 
0.374 0.154 -0.015 1 
0.381 0.232 -0.017 1 
0.413 0.234 -0.014 1 
0.45 0.185 -0.004 1 
0.456 0.156 -0.005 1 
0.44 0.233 -0.009 1 
0.462 0.291 0.004 1 
0.334 -0.14 -0.004 1 
0.452 0.17 -0.005 1 
0.381 0.173 -0.016 1 
0.388 0.194 -0.015 1 
0.383 0.094 -0.014 1 
0.45 0.193 -0.005 1 
0.424 0.214 -0.012 1 
0.408 0.209 -0.015 1 
0.284 -0.066 0.013 1 
0.297 -0.085 0.014 1 
0.401 0.094 -0.014 1 
0.275 -0.025 0.05 2 
0.265 -0.035 0.051 2 
0.265 -0.055 0.038 2 
0.234 -0.068 0.054 2 
0.244 -0.059 0.054 2 
0.295 -0.013 0.046 2 
0.315 -0.065 0.011 2 
0.335 -0.045 0.026 2 
0.283 -0.03 0.04 2 
0.254 -0.055 0.041 2 
0.256 -0.055 0.041 2 
0.257 -0.045 0.04 2 
0.26 -0.035 0.054 2 
0.264 -0.031 0.054 2 
0.273 -0.025 0.054 2 
0.294 -0.042 0.015 2 
0.255 -0.045 0.041 2 
0.29 -0.015 0.049 2 
0.295 -0.013 0.05 2 
0.311 -0.003 0.009 2 
0.293 -0.095 0.022 2 
0.315 0.013 0.005 2 
0.269 -0.064 0.031 2 
0.255 -0.035 0.044 2 
0.325 -0.017 0.056 2 
0.235 -0.065 0.059 2 
0.245 -0.055 0.059 2 
0.287 -0.014 0.054 2 
0.327 -0.032 0.011 2 
0.226 -0.052 0.084 2 
0.311 -0.061 0.027 2 
0.28 -0.035 0.04 2 
0.296 -0.075 0.019 2 
0.323 -0.044 0.017 2 
0.293 -0.072 0.03 2 
0.315 -0.069 0.028 2 
0.276 -0.045 0.031 2 
0.277 -0.035 0.042 2 
0.294 -0.013 0.038 2 
0.298 -0.01 0.039 2 
0.235 -0.046 0.084 2 
0.224 -0.054 0.084 2 
0.224 -0.055 0.084 2 
0.309 -0.07 0.03 2 
0.281 -0.065 0.033 2 
0.306 -0.072 0.03 2 
0.293 -0.07 0.033 2 
0.302 -0.071 0.032 2 
0.275 -0.056 0.034 2 
0.309 -0.042 0.019 2 
0.295 -0.022 0.028 2 
0.314 -0.063 0.006 2 
0.314 -0.065 0.01 2 
0.332 -0.014 0.042 2 
0.225 -0.055 0.083 2 
0.222 -0.065 0.074 2 
0.256 -0.036 0.07 2 
0.255 -0.091 0.034 2 
0.304 -0.069 0.019 2 
0.265 -0.054 0.038 2 
0.247 -0.091 0.041 2 
0.276 -0.025 0.071 2 
0.265 -0.028 0.074 2 
0.263 -0.075 0.032 2 
0.22 -0.063 0.074 2 
0.235 -0.055 0.07 2 
0.294 -0.013 0.049 2 
0.304 -0.072 0.029 2 
0.285 -0.025 0.039 2 
0.254 -0.033 0.06 2 
0.255 -0.032 0.074 2 
0.326 -0.055 0.018 2 
0.322 -0.035 0.028 2 
0.227 -0.061 0.074 2 
0.336 -0.042 0.023 2 
0.247 -0.038 0.06 2 
0.238 -0.065 0.054 2 
0.242 -0.052 0.064 2 
0.243 -0.043 0.06 2 
0.306 -0.013 0.006 2 
0.245 -0.075 0.041 2 
0.265 -0.03 0.082 2 
0.254 -0.034 0.064 2 
0.233 -0.05 0.074 2 
0.225 -0.065 0.073 2 
0.236 -0.047 0.074 2 
0.245 -0.042 0.07 2 
0.302 -0.105 0.019 2 
0.272 -0.074 0.019 2 
0.285 -0.015 0.055 2 
0.262 -0.032 0.084 2 
0.271 -0.025 0.064 2 
0.274 -0.023 0.064 2 
0.277 -0.022 0.059 2 
0.231 -0.075 0.052 2 
0.263 -0.027 0.064 2 
0.247 -0.045 0.05 2 
0.251 -0.035 0.05 2 
0.252 -0.033 0.05 2 
0.241 -0.044 0.07 2 
0.24 -0.055 0.064 2 
0.284 -0.064 0.005 2 
0.234 -0.059 0.064 2 
0.223 -0.066 0.064 2 
0.226 -0.067 0.064 2 
0.264 -0.065 0.028 2 
0.283 -0.018 0.049 2 
0.274 -0.075 0.018 2 
0.291 -0.015 0.039 2 
0.294 -0.071 0.009 2 
0.274 -0.024 0.071 2 
0.28 -0.024 0.069 2 
0.245 -0.045 0.056 2 
0.276 -0.025 0.07 2 
0.278 -0.024 0.07 2 
0.283 -0.086 0.008 2 
0.329 -0.041 0.031 2 
0.324 -0.052 0.018 2 
0.313 -0.027 0.021 2 
0.264 -0.073 0.019 2 
0.313 0.012 0.017 2 
0.304 -0.005 0.009 2 
0.303 -0.023 0.018 2 
0.312 -0.045 0.018 2 
0.315 -0.068 0.008 2 
0.304 -0.072 0.009 2 
0.306 -0.023 0.016 2 
0.254 -0.063 0.044 2 
0.294 -0.078 0.034 2 
0.254 -0.075 0.034 2 
0.253 -0.087 0.034 2 
0.331 -0.045 0.03 2 
0.302 -0.041 0.018 2 
0.325 -0.055 0.02 2 
0.324 -0.047 0.031 2 
0.325 -0.045 0.032 2 
0.3 -0.045 0.008 2 
0.296 -0.075 0.009 2 
0.294 -0.077 0.019 2 
0.328 -0.036 0.01 2 
0.316 -0.039 0.034 2 
0.304 -0.004 0.004 2 
0.309 -0.035 0.031 2 
0.315 -0.023 0.014 2 
0.323 -0.042 0.011 2 
0.289 -0.085 0.024 2 
0.283 -0.084 0.009 2 
0.283 -0.077 0.018 2 
0.316 -0.031 0.024 2 
0.334 -0.04 0.023 2 
0.311 -0.032 0.024 2 
0.291 -0.015 0.029 2 
0.293 -0.013 0.028 2 
0.301 -0.039 0.01 2 
0.294 -0.078 0.03 2 
0.337 -0.044 0.026 2 
0.297 -0.025 0.029 2 
0.242 -0.075 0.044 2 
0.302 -0.008 0.03 2 
0.308 -0.004 0.014 2 
0.335 -0.045 0.02 2 
0.333 -0.046 0.021 2 
0.328 -0.055 0.009 2 
0.284 -0.069 0.03 2 
0.278 -0.074 0.019 2 
0.312 0.013 0.009 2 
0.24 -0.086 0.045 2 
0.241 -0.086 0.044 2 
0.244 -0.07 0.044 2 
0.311 -0.065 0.02 2 
0.315 -0.003 0.01 2 
0.33 -0.033 0.019 2 
0.324 -0.059 0.009 2 
0.314 -0.061 0.029 2 
0.313 -0.007 0.03 2 
0.25 -0.065 0.044 2 
0.322 -0.058 0.019 2 
0.32 -0.002 0.008 2 
0.324 -0.03 0.018 2 
0.302 -0.049 0.024 2 
0.311 -0.04 0.012 2 
0.312 -0.021 0.009 2 
0.315 -0.023 0.011 2 
0.32 -0.025 0.011 2 
0.304 -0.015 0.009 2 
0.282 -0.045 0.028 2 
0.297 -0.036 0.036 2 
0.289 -0.035 0.037 2 
0.297 -0.076 0.026 2 
0.245 -0.065 0.046 2 
0.263 -0.063 0.029 2 
0.288 -0.064 0.006 2 
0.273 -0.065 0.031 2 
0.284 -0.066 0.008 2 
0.271 -0.065 0.031 2 
0.271 -0.087 0.024 2 
0.341 -0.01 0.029 2 
0.273 -0.086 0.025 2 
0.295 -0.032 0.036 2 
0.235 -0.076 0.048 2 
0.316 -0.064 0.026 2 
0.462 0.094 0.103 3 
0.463 0.033 0.151 3 
0.464 0.009 0.151 3 
0.465 -0.004 0.152 3 
0.465 0.09 0.152 3 
0.465 0.123 0.152 3 
0.465 0.128 0.152 3 
0.465 0.119 0.06 3 
0.464 0.237 0.154 3 
0.464 0.133 0.152 3 
0.467 0.334 0.132 3 
0.466 0.303 0.131 3 
0.467 0.324 0.132 3 
0.461 0.182 0.152 3 
0.465 0.139 0.152 3 
0.466 0.173 0.153 3 
0.465 0.162 0.153 3 
0.464 0.144 0.152 3 
0.463 0.192 0.153 3 
0.465 0.15 0.153 3 
0.464 0.153 0.152 3 
0.464 0.155 0.152 3 
0.465 0.342 0.123 3 
0.466 0.254 0.153 3 
0.465 0.114 0.147 3 
0.468 0.313 0.152 3 
0.47 0.321 0.153 3 
0.471 0.333 0.154 3 
0.468 0.343 0.153 3 
0.466 0.345 0.153 3 
0.465 -0.095 0.149 3 
0.464 0.022 0.149 3 
0.465 0.098 0.149 3 
0.465 0.176 0.15 3 
0.465 0.22 0.151 3 
0.463 0.224 0.151 3 
0.464 0.234 0.151 3 
0.466 0.244 0.152 3 
0.464 0.334 0.132 3 
0.465 0.262 0.152 3 
0.464 0.267 0.152 3 
0.467 0.282 0.154 3 
0.467 0.292 0.154 3 
0.463 0.34 0.132 3 
0.467 0.302 0.154 3 
0.465 0.339 0.132 3 
0.47 -0.086 0.153 3 
0.47 -0.075 0.153 3 
0.468 -0.066 0.153 3 
0.462 0.334 0.062 3 
0.466 -0.055 0.152 3 
0.465 -0.006 0.152 3 
0.464 0.291 0.127 3 
0.469 0.331 0.162 3 
0.464 0.334 0.123 3 
0.47 0.322 0.162 3 
0.465 0.294 0.159 3 
0.465 0.262 0.06 3 
0.465 0.164 0.156 3 
0.466 -0.036 0.103 3 
0.465 0.282 0.079 3 
0.465 0.341 0.161 3 
0.464 0.117 0.155 3 
0.464 0.314 0.128 3 
0.471 0.285 0.193 3 
0.465 0.255 0.11 3 
0.464 0.114 0.154 3 
0.465 0.26 0.088 3 
0.464 0.103 0.154 3 
0.465 -0.033 0.127 3 
0.465 0.204 0.126 3 
0.465 0.158 0.125 3 
0.463 0.119 0.124 3 
0.466 0.345 0.162 3 
0.462 0.083 0.063 3 
0.463 -0.1 0.157 3 
0.464 0.054 0.157 3 
0.464 0.286 0.162 3 
0.467 0.299 0.163 3 
0.47 0.312 0.164 3 
0.471 -0.086 0.162 3 
0.464 -0.025 0.159 3 
0.464 -0.017 0.159 3 
0.464 0.033 0.159 3 
0.463 0.113 0.124 3 
0.464 0.273 0.13 3 
0.465 0.038 0.154 3 
0.464 0.257 0.13 3 
0.465 0.033 0.154 3 
0.465 0.022 0.154 3 
0.465 0.014 0.154 3 
0.464 0.003 0.154 3 
0.466 -0.02 0.154 3 
0.466 -0.025 0.154 3 
0.464 0.043 0.154 3 
0.463 -0.097 0.154 3 
0.465 0.274 0.156 3 
0.465 0.262 0.155 3 
0.465 0.274 0.153 3 
0.464 -0.057 0.146 3 
0.465 0.232 0.154 3 
0.467 0.206 0.154 3 
0.466 0.203 0.154 3 
0.465 0.094 0.033 3 
0.464 0.248 0.129 3 
0.465 0.049 0.154 3 
0.464 0.054 0.154 3 
0.464 -0.022 0.074 3 
0.463 0.064 0.073 3 
0.465 0.057 0.154 3 
0.464 0.062 0.154 3 
0.46 0.335 0.054 3 
0.464 0.068 0.154 3 
0.465 0.073 0.154 3 
0.465 -0.017 0.127 3 
0.465 0.079 0.154 3 
0.463 0.084 0.154 3 
0.463 0.086 0.154 3 
0.467 0.311 0.143 3 
0.464 -0.036 0.135 3 
0.461 0.032 0.134 3 
0.463 0.243 0.063 3 
0.461 0.04 0.134 3 
0.471 0.332 0.142 3 
0.465 -0.039 0.133 3 
0.466 -0.047 0.133 3 
0.461 -0.086 0.137 3 
0.464 -0.084 0.138 3 
0.465 0.122 0.139 3 
0.464 0.144 0.138 3 
0.465 -0.017 0.084 3 
0.467 0.282 0.142 3 
0.466 0.294 0.142 3 
0.465 0.303 0.142 3 
0.463 0.236 0.134 3 
0.47 0.321 0.144 3 
0.466 0.341 0.144 3 
0.468 -0.077 0.142 3 
0.466 -0.055 0.133 3 
0.466 -0.066 0.133 3 
0.465 -0.055 0.141 3 
0.464 -0.02 0.14 3 
0.464 -0.073 0.133 3 
0.464 -0.009 0.14 3 
0.464 0.009 0.14 3 
0.462 -0.075 0.132 3 
0.464 0.092 0.141 3 
0.465 0.161 0.142 3 
0.464 0.166 0.142 3 
0.465 0.173 0.142 3 
0.465 0.133 0.133 3 
0.464 0.003 0.132 3 
0.463 0.014 0.132 3 
0.463 0.022 0.132 3 
0.463 0.054 0.132 3 
0.463 0.062 0.132 3 
0.464 0.073 0.132 3 
0.463 -0.017 0.132 3 
0.464 0.084 0.133 3 
0.464 0.092 0.133 3 
0.464 -0.038 0.092 3 
0.464 0.103 0.133 3 
0.463 0.113 0.132 3 
0.464 0.122 0.133 3 
0.465 0.244 0.079 3 
0.464 0.125 0.133 3 
0.465 0.214 0.143 3 
0.464 0.144 0.133 3 
0.464 0.152 0.133 3 
0.464 0.163 0.133 3 
0.463 0.174 0.133 3 
0.465 0.259 0.051 3 
0.462 0.182 0.133 3 
0.463 0.194 0.133 3 
0.464 0.204 0.134 3 
0.464 -0.036 0.132 3 
0.465 0.21 0.134 3 
0.464 0.224 0.134 3 
0.463 0.233 0.134 3 
0.465 0.014 0.063 3 
0.464 0.254 0.124 3 
0.464 0.125 0.144 3 
0.466 0.262 0.133 3 
0.464 0.022 0.143 3 
0.462 0.032 0.143 3 
0.462 0.054 0.143 3 
0.462 0.064 0.143 3 
0.463 -0.006 0.092 3 
0.463 0.073 0.143 3 
0.464 0.084 0.143 3 
0.46 0.133 0.023 3 
0.465 0.092 0.144 3 
0.464 0.1 0.143 3 
0.464 0.014 0.103 3 
0.465 0.103 0.144 3 
0.464 0.114 0.144 3 
0.464 0.122 0.144 3 
0.465 0.017 0.143 3 
0.466 0.134 0.144 3 
0.465 0.142 0.144 3 
0.465 0.145 0.144 3 
0.464 0.152 0.144 3 
0.464 0.161 0.144 3 
0.463 0.18 0.144 3 
0.462 0.188 0.144 3 
0.462 0.153 0.033 3 
0.464 0.264 0.147 3 
0.466 0.253 0.133 3 
0.464 -0.006 0.132 3 
0.464 0.083 0.052 3 
0.464 -0.054 0.146 3 
0.465 0.243 0.132 3 
0.465 0.222 0.132 3 
0.465 0.016 0.098 3 
0.462 0.184 0.033 3 
0.465 0.217 0.143 3 
0.464 0.222 0.143 3 
0.464 0.234 0.143 3 
0.463 0.239 0.143 3 
0.447 -0.079 0.128 3 
0.464 0.301 0.133 3 
0.466 0.244 0.144 3 
0.466 0.253 0.144 3 
0.465 0.262 0.144 3 
0.465 0.147 0.055 3 
0.465 0.293 0.133 3 
0.465 0.274 0.144 3 
0.465 0.314 0.074 3 
0.466 -0.087 0.144 3 
0.464 0.21 0.131 3 
0.466 -0.068 0.144 3 
0.464 -0.065 0.143 3 
0.466 0.284 0.133 3 
0.463 -0.057 0.143 3 
0.465 0.274 0.133 3 
0.462 0.112 0.073 3 
0.464 -0.049 0.143 3 
0.465 -0.047 0.143 3 
0.465 -0.025 0.143 3 
0.466 -0.017 0.144 3 
0.466 -0.006 0.143 3 
0.464 0.001 0.143 3 
0.465 0.003 0.143 3 
0.465 0.014 0.143 3 
0.473 -0.065 0.182 3 
0.464 0.212 0.123 3 
0.465 0.203 0.182 3 
0.467 0.193 0.182 3 
0.468 0.182 0.182 3 
0.464 0.171 0.181 3 
0.465 0.157 0.181 3 
0.471 -0.037 0.181 3 
0.473 -0.045 0.182 3 
0.473 -0.056 0.182 3 
0.465 0.212 0.182 3 
0.475 -0.068 0.183 3 
0.464 0.032 0.052 3 
0.474 -0.076 0.183 3 
0.474 -0.087 0.183 3 
0.475 -0.09 0.183 3 
0.467 0.233 0.164 3 
0.475 -0.096 0.183 3 
0.464 0.203 0.104 3 
0.466 0.143 0.186 3 
0.473 -0.115 0.186 3 
0.469 -0.125 0.184 3 
0.47 0.122 0.187 3 
0.461 -0.13 0.181 3 
0.465 0.265 0.046 3 
0.463 0.064 0.113 3 
0.468 0.133 0.187 3 
0.475 0.308 0.19 3 
0.475 -0.107 0.184 3 
0.464 0.284 0.093 3 
0.469 0.236 0.184 3 
0.466 0.23 0.183 3 
0.465 0.155 0.079 3 
0.466 0.224 0.183 3 
0.462 0.083 0.073 3 
0.465 0.154 0.186 3 
0.465 0.157 0.186 3 
0.464 0.153 0.174 3 
0.464 0.262 0.178 3 
0.464 0.194 0.176 3 
0.464 0.313 0.062 3 
0.464 0.16 0.186 3 
0.466 0.172 0.187 3 
0.468 0.182 0.188 3 
0.47 0.192 0.189 3 
0.468 0.202 0.189 3 
0.472 0.295 0.182 3 
0.467 0.213 0.189 3 
0.465 -0.036 0.143 3 
0.464 0.143 0.082 3 
0.463 0.144 0.174 3 
0.464 0.323 0.022 3 
0.464 0.134 0.174 3 
0.465 0.131 0.174 3 
0.465 0.221 0.188 3 
0.469 0.254 0.182 3 
0.474 -0.11 0.183 3 
0.472 -0.115 0.182 3 
0.464 -0.123 0.179 3 
0.475 0.355 0.19 3 
0.474 0.307 0.186 3 
0.471 0.281 0.184 3 
0.467 0.271 0.182 3 
0.468 0.263 0.182 3 
0.474 -0.107 0.186 3 
0.464 0.199 0.179 3 
0.464 0.139 0.177 3 
0.474 -0.098 0.18 3 
0.462 0.043 0.143 3 
0.475 0.344 0.186 3 
0.475 0.318 0.184 3 
0.474 0.307 0.183 3 
0.475 0.304 0.184 3 
0.461 0.164 0.084 3 
0.474 -0.133 0.189 3 
0.47 0.014 0.186 3 
0.473 -0.135 0.189 3 
0.471 0.023 0.187 3 
0.47 0.034 0.186 3 
0.469 0.044 0.186 3 
0.472 0.05 0.187 3 
0.473 0.062 0.188 3 
0.465 -0.036 0.151 3 
0.47 0.083 0.187 3 
0.468 0.094 0.186 3 
0.464 0.119 0.152 3 
0.472 0.302 0.191 3 
0.464 0.183 0.112 3 
0.465 0.174 0.184 3 
0.463 0.162 0.183 3 
0.464 0.154 0.183 3 
0.48 -0.066 0.191 3 
0.471 0.003 0.187 3 
0.472 -0.007 0.187 3 
0.473 -0.015 0.188 3 
0.473 -0.026 0.188 3 
0.474 -0.037 0.188 3 
0.474 -0.046 0.188 3 
0.475 -0.051 0.188 3 
0.477 -0.057 0.189 3 
0.466 0.149 0.184 3 
0.478 -0.077 0.19 3 
0.466 -0.047 0.152 3 
0.466 0.313 0.134 3 
0.476 -0.085 0.189 3 
0.476 -0.096 0.189 3 
0.478 -0.106 0.19 3 
0.479 -0.117 0.191 3 
0.478 -0.126 0.191 3 
0.47 -0.007 0.184 3 
0.47 0.114 0.187 3 
0.471 0.009 0.184 3 
0.464 0.303 0.077 3 
0.476 0.006 0.186 3 
0.466 0.043 0.052 3 
0.472 0.001 0.184 3 
0.465 0.253 0.065 3 
0.464 0.035 0.052 3 
0.47 0.023 0.184 3 
0.471 -0.018 0.184 3 
0.471 -0.026 0.184 3 
0.469 -0.036 0.172 3 
0.474 -0.079 0.186 3 
0.466 0.131 0.164 3 
0.474 -0.087 0.186 3 
0.474 -0.096 0.186 3 
0.472 0.073 0.188 3 
0.468 0.094 0.183 3 
0.464 0.204 0.142 3 
0.466 0.143 0.183 3 
0.467 0.132 0.183 3 
0.464 0.076 0.16 3 
0.468 0.124 0.184 3 
0.468 0.113 0.184 3 
0.469 0.102 0.184 3 
0.47 0.103 0.187 3 
0.466 0.118 0.174 3 
0.468 0.281 0.174 3 
0.469 0.083 0.184 3 
0.47 0.072 0.184 3 
0.47 0.064 0.184 3 
0.47 0.047 0.184 3 
0.469 0.042 0.183 3 
0.465 0.114 0.163 3 
0.469 0.033 0.183 3 
0.462 0.152 0.163 3 
0.47 0.35 0.172 3 
0.47 0.343 0.172 3 
0.464 0.277 0.167 3 
0.462 0.198 0.164 3 
0.46 0.193 0.163 3 
0.461 0.183 0.163 3 
0.465 0.174 0.164 3 
0.464 0.17 0.164 3 
0.464 0.164 0.163 3 
0.467 0.293 0.171 3 
0.463 0.144 0.163 3 
0.465 0.311 0.062 3 
0.465 0.139 0.163 3 
0.467 0.124 0.164 3 
0.464 0.111 0.163 3 
0.464 0.103 0.163 3 
0.465 0.095 0.163 3 
0.465 0.093 0.163 3 
0.463 0.07 0.167 3 
0.469 0.244 0.173 3 
0.469 0.232 0.173 3 
0.46 -0.046 0.094 3 
0.465 0.203 0.171 3 
0.465 0.194 0.17 3 
0.461 0.274 0.032 3 
0.464 0.156 0.169 3 
0.465 0.148 0.169 3 
0.466 0.082 0.163 3 
0.466 0.282 0.162 3 
0.464 0.062 0.168 3 
0.464 -0.114 0.168 3 
0.465 0.024 0.074 3 
0.471 0.327 0.174 3 
0.472 0.321 0.174 3 
0.47 0.312 0.173 3 
0.469 0.301 0.172 3 
0.463 0.264 0.163 3 
0.468 -0.099 0.164 3 
0.465 0.105 0.039 3 
0.468 -0.105 0.164 3 
0.463 0.282 0.023 3 
0.463 -0.108 0.162 3 
0.462 0.275 0.163 3 
0.464 -0.028 0.143 3 
0.464 0.274 0.164 3 
0.47 -0.075 0.164 3 
0.463 0.254 0.163 3 
0.466 0.251 0.164 3 
0.466 0.242 0.164 3 
0.467 0.224 0.163 3 
0.466 0.212 0.163 3 
0.467 0.204 0.163 3 
0.464 0.092 0.16 3 
0.464 0.242 0.112 3 
0.466 0.003 0.163 3 
0.466 0.074 0.163 3 
0.464 0.068 0.162 3 
0.464 0.062 0.162 3 
0.466 0.057 0.163 3 
0.465 0.044 0.162 3 
0.465 0.033 0.162 3 
0.466 0.022 0.163 3 
0.466 0.014 0.163 3 
0.463 0.211 0.114 3 
0.467 -0.006 0.163 3 
0.467 -0.015 0.163 3 
0.468 -0.025 0.163 3 
0.47 -0.037 0.164 3 
0.47 -0.045 0.164 3 
0.469 -0.058 0.164 3 
0.469 -0.066 0.164 3 
0.471 0.282 0.193 3 
0.474 0.353 0.183 3 
0.46 0.103 0.013 3 
0.466 -0.06 0.174 3 
0.465 0.003 0.103 3 
0.466 -0.069 0.174 3 
0.465 0.1 0.044 3 
0.46 0.214 0.014 3 
0.463 -0.117 0.173 3 
0.466 0.258 0.19 3 
0.467 -0.028 0.174 3 
0.465 -0.007 0.063 3 
0.47 0.274 0.192 3 
0.475 0.347 0.183 3 
0.475 0.342 0.183 3 
0.474 0.327 0.181 3 
0.474 0.317 0.181 3 
0.471 0.294 0.179 3 
0.464 0.265 0.175 3 
0.466 0.074 0.174 3 
0.465 0.112 0.174 3 
0.464 0.106 0.174 3 
0.467 0.231 0.189 3 
0.47 0.243 0.191 3 
0.464 0.103 0.174 3 
0.465 0.098 0.174 3 
0.465 0.093 0.174 3 
0.466 0.082 0.174 3 
0.466 0.221 0.174 3 
0.465 0.063 0.174 3 
0.464 0.199 0.148 3 
0.467 0.044 0.174 3 
0.469 0.254 0.191 3 
0.467 0.033 0.174 3 
0.465 0.054 0.163 3 
0.467 -0.001 0.174 3 
0.467 -0.006 0.174 3 
0.474 0.341 0.179 3 
0.469 -0.077 0.172 3 
0.473 -0.087 0.174 3 
0.474 -0.096 0.174 3 
0.473 -0.106 0.174 3 
0.464 0.242 0.104 3 
0.466 -0.115 0.172 3 
0.474 0.357 0.18 3 
0.464 0.072 0.044 3 
0.47 -0.045 0.172 3 
0.465 0.272 0.173 3 
0.463 0.341 0.143 3 
0.464 0.265 0.172 3 
0.464 0.262 0.172 3 
0.464 0.302 0.034 3 
0.466 0.26 0.173 3 
0.462 0.072 0.004 3 
0.466 0.254 0.173 3 
0.465 0.174 0.173 3 
0.462 -0.028 0.134 3 
0.466 0.212 0.174 3 
0.464 0.202 0.173 3 
0.464 0.283 0.043 3 
0.463 0.193 0.172 3 
0.465 0.035 0.106 3 
0.464 0.182 0.173 3 
0.465 0.18 0.173 3 
0.464 0.041 0.159 3 
0.464 0.165 0.172 3 
0.465 0.163 0.172 3 
0.465 0.142 0.172 3 
0.467 0.052 0.171 3 
0.465 0.224 0.054 3 
0.468 0.022 0.172 3 
0.469 0.014 0.172 3 
0.468 -0.015 0.172 3 
0.463 0.252 0.054 3 
0.464 0.003 0.058 3 
0.464 0.323 0.054 3 
0.465 0.314 0.054 3 
0.464 0.31 0.054 3 
0.465 0.304 0.054 3 
0.464 0.3 0.054 3 
0.463 0.293 0.054 3 
0.463 0.282 0.054 3 
0.463 0.264 0.054 3 
0.464 -0.022 0.06 3 
0.463 0.243 0.054 3 
0.465 0.232 0.054 3 
0.464 0.214 0.054 3 
0.462 0.204 0.054 3 
0.462 0.193 0.054 3 
0.465 0.127 0.055 3 
0.465 0.25 0.051 3 
0.464 0.217 0.052 3 
0.465 0.022 0.063 3 
0.462 0.112 0.063 3 
0.461 0.104 0.063 3 
0.461 0.093 0.063 3 
0.464 0.064 0.063 3 
0.465 0.051 0.063 3 
0.464 0.043 0.063 3 
0.463 0.032 0.063 3 
0.464 0.024 0.063 3 
0.463 0.173 0.052 3 
0.465 0.003 0.063 3 
0.466 -0.015 0.063 3 
0.465 0.331 0.06 3 
0.465 0.253 0.06 3 
0.465 -0.001 0.052 3 
0.465 0.111 0.06 3 
0.465 0.043 0.06 3 
0.464 0.014 0.06 3 
0.463 0.302 0.043 3 
0.465 0.133 0.049 3 
0.465 0.124 0.049 3 
0.465 0.097 0.049 3 
0.454 -0.024 0.047 3 
0.46 0.335 0.043 3 
0.46 0.332 0.043 3 
0.463 0.322 0.043 3 
0.464 0.313 0.043 3 
0.465 0.144 0.049 3 
0.464 0.289 0.043 3 
0.464 0.274 0.043 3 
0.465 0.265 0.043 3 
0.465 0.262 0.043 3 
0.465 0.253 0.043 3 
0.464 0.249 0.043 3 
0.465 0.244 0.043 3 
0.464 0.24 0.043 3 
0.464 0.072 0.052 3 
0.463 0.162 0.052 3 
0.464 0.154 0.052 3 
0.465 0.149 0.052 3 
0.464 0.143 0.052 3 
0.463 0.132 0.052 3 
0.463 0.124 0.052 3 
0.463 0.113 0.052 3 
0.465 0.111 0.052 3 
0.461 0.123 0.063 3 
0.464 0.054 0.052 3 
0.465 0.051 0.052 3 
0.463 0.024 0.052 3 
0.463 0.014 0.052 3 
0.464 0.003 0.052 3 
0.466 -0.007 0.052 3 
0.465 -0.015 0.052 3 
0.465 0.238 0.049 3 
0.462 0.104 0.073 3 
0.464 0.174 0.074 3 
0.464 0.163 0.073 3 
0.465 0.155 0.074 3 
0.465 0.152 0.074 3 
0.465 0.144 0.074 3 
0.464 0.138 0.073 3 
0.464 0.132 0.073 3 
0.462 0.123 0.073 3 
0.463 0.182 0.073 3 
0.463 0.094 0.073 3 
0.461 0.072 0.073 3 
0.462 0.053 0.073 3 
0.462 0.043 0.073 3 
0.464 0.032 0.074 3 
0.465 0.027 0.074 3 
0.464 0.022 0.074 3 
0.465 0.014 0.074 3 
0.465 0.282 0.074 3 
0.462 0.338 0.074 3 
0.462 0.334 0.074 3 
0.466 0.332 0.074 3 
0.465 0.321 0.074 3 
0.464 0.31 0.074 3 
0.463 0.302 0.074 3 
0.464 0.294 0.074 3 
0.464 0.284 0.074 3 
0.464 0.006 0.074 3 
0.464 0.272 0.074 3 
0.464 0.252 0.074 3 
0.464 0.243 0.074 3 
0.464 0.232 0.074 3 
0.463 0.222 0.074 3 
0.463 0.213 0.073 3 
0.463 0.202 0.073 3 
0.463 0.193 0.073 3 
0.463 0.202 0.063 3 
0.463 0.293 0.062 3 
0.463 0.283 0.062 3 
0.463 0.273 0.062 3 
0.464 0.262 0.063 3 
0.464 0.252 0.063 3 
0.463 0.231 0.063 3 
0.464 0.223 0.063 3 
0.464 0.214 0.063 3 
0.464 0.303 0.062 3 
0.463 0.193 0.063 3 
0.463 0.182 0.063 3 
0.464 0.174 0.063 3 
0.465 0.163 0.063 3 
0.463 0.159 0.063 3 
0.464 0.154 0.063 3 
0.463 0.143 0.063 3 
0.462 0.134 0.063 3 
0.465 0.259 0.071 3 
0.464 0.003 0.074 3 
0.465 -0.007 0.074 3 
0.464 -0.009 0.074 3 
0.465 -0.015 0.074 3 
0.464 -0.025 0.074 3 
0.462 -0.035 0.074 3 
0.464 0.316 0.071 3 
0.465 0.265 0.071 3 
0.465 0.232 0.043 3 
0.464 0.154 0.071 3 
0.465 0.133 0.071 3 
0.465 0.003 0.071 3 
0.465 -0.025 0.071 3 
0.461 0.336 0.062 3 
0.465 0.324 0.062 3 
0.464 0.054 0.044 3 
0.464 0.316 0.062 3 
0.464 0.094 0.023 3 
0.461 0.172 0.022 3 
0.461 0.164 0.022 3 
0.464 0.014 0.023 3 
0.462 0.153 0.022 3 
0.461 0.142 0.023 3 
0.46 0.122 0.023 3 
0.46 0.114 0.023 3 
0.462 0.104 0.023 3 
0.462 0.181 0.022 3 
0.463 0.083 0.023 3 
0.462 0.074 0.023 3 
0.462 0.064 0.023 3 
0.461 0.053 0.023 3 
0.461 0.042 0.023 3 
0.462 0.032 0.023 3 
0.463 0.024 0.023 3 
0.466 0.003 0.023 3 
0.461 0.253 0.024 3 
0.465 0.314 0.028 3 
0.464 0.083 0.031 3 
0.461 0.333 0.023 3 
0.465 0.316 0.023 3 
0.464 0.312 0.023 3 
0.464 0.302 0.023 3 
0.463 0.292 0.023 3 
0.461 0.262 0.024 3 
0.463 -0.007 0.023 3 
0.464 0.244 0.024 3 
0.465 0.241 0.024 3 
0.465 0.232 0.024 3 
0.463 0.199 0.024 3 
0.465 0.331 0.019 3 
0.465 0.313 0.02 3 
0.464 0.232 0.021 3 
0.464 0.194 0.022 3 
0.462 0.083 0.012 3 
0.461 0.172 0.014 3 
0.461 0.153 0.014 3 
0.465 0.33 0.008 3 
0.459 0.144 0.012 3 
0.461 0.133 0.012 3 
0.461 0.122 0.012 3 
0.461 0.114 0.012 3 
0.461 0.093 0.012 3 
0.461 0.184 0.014 3 
0.46 0.074 0.013 3 
0.46 0.063 0.013 3 
0.461 0.053 0.013 3 
0.46 0.042 0.013 3 
0.462 0.024 0.013 3 
0.461 0.013 0.013 3 
0.462 0.064 0.002 3 
0.46 0.053 0.002 3 
0.464 0.293 0.012 3 
0.465 0.303 0.017 3 
0.465 -0.007 0.02 3 
0.461 0.337 0.014 3 
0.464 0.322 0.014 3 
0.463 0.314 0.014 3 
0.465 0.313 0.014 3 
0.465 0.304 0.014 3 
0.464 0.003 0.018 3 
0.465 0.321 0.028 3 
0.463 0.283 0.012 3 
0.463 0.264 0.013 3 
0.463 0.252 0.013 3 
0.463 0.243 0.013 3 
0.462 0.233 0.013 3 
0.46 0.223 0.014 3 
0.462 0.204 0.014 3 
0.461 0.192 0.014 3 
0.464 0.003 0.044 3 
0.464 0.08 0.044 3 
0.463 0.064 0.044 3 
0.465 0.051 0.044 3 
0.466 0.043 0.044 3 
0.464 0.032 0.044 3 
0.464 0.024 0.044 3 
0.463 0.014 0.044 3 
0.465 0.008 0.044 3 
0.465 0.083 0.044 3 
0.465 0 0.044 3 
0.466 -0.007 0.044 3 
0.464 -0.015 0.044 3 
0.464 0.262 0.04 3 
0.463 0.222 0.024 3 
0.465 0.073 0.041 3 
0.465 0.032 0.042 3 
0.465 -0.015 0.042 3 
0.462 0.164 0.044 3 
0.464 0.229 0.043 3 
0.465 0.224 0.043 3 
0.464 0.22 0.043 3 
0.463 0.213 0.043 3 
0.461 0.203 0.044 3 
0.463 0.193 0.044 3 
0.463 0.182 0.044 3 
0.463 0.173 0.044 3 
0.461 0.336 0.034 3 
0.463 0.154 0.044 3 
0.464 0.143 0.044 3 
0.464 0.132 0.044 3 
0.464 0.124 0.044 3 
0.464 0.113 0.044 3 
0.464 0.102 0.044 3 
0.465 0.094 0.044 3 
0.464 0.091 0.044 3 
0.463 0.024 0.034 3 
0.464 0.102 0.033 3 
0.464 0.091 0.033 3 
0.465 0.083 0.033 3 
0.464 0.072 0.034 3 
0.463 0.053 0.034 3 
0.464 0.043 0.034 3 
0.465 0.04 0.034 3 
0.464 0.032 0.034 3 
0.461 0.123 0.033 3 
0.463 0.014 0.034 3 
0.465 0.006 0.034 3 
0.466 0.003 0.034 3 
0.467 -0.007 0.034 3 
0.464 -0.012 0.034 3 
0.466 -0.015 0.034 3 
0.464 -0.017 0.034 3 
0.465 0.327 0.028 3 
0.463 0.234 0.032 3 
0.461 0.333 0.034 3 
0.464 0.323 0.034 3 
0.464 0.313 0.034 3 
0.463 0.292 0.034 3 
0.461 0.283 0.032 3 
0.462 0.263 0.032 3 
0.464 0.253 0.032 3 
0.464 0.244 0.032 3 
0.465 0.008 0.076 3 
0.461 0.223 0.033 3 
0.461 0.212 0.033 3 
0.461 0.203 0.033 3 
0.462 0.193 0.033 3 
0.462 0.173 0.033 3 
0.461 0.164 0.033 3 
0.461 0.142 0.033 3 
0.461 0.134 0.033 3 
0.467 0.32 0.114 3 
0.465 -0.017 0.114 3 
0.465 -0.025 0.114 3 
0.467 -0.036 0.114 3 
0.467 -0.047 0.114 3 
0.465 -0.055 0.114 3 
0.464 -0.057 0.114 3 
0.463 0.34 0.114 3 
0.465 0.335 0.114 3 
0.465 -0.014 0.114 3 
0.466 0.312 0.114 3 
0.466 0.303 0.114 3 
0.466 0.293 0.114 3 
0.462 0.032 0.013 3 
0.466 0.283 0.113 3 
0.464 0.275 0.113 3 
0.465 0.273 0.113 3 
0.464 0.269 0.113 3 
0.465 0.03 0.114 3 
0.463 0.102 0.114 3 
0.463 0.094 0.114 3 
0.464 0.084 0.114 3 
0.463 0.073 0.113 3 
0.462 0.054 0.113 3 
0.462 0.043 0.113 3 
0.463 0.213 0.024 3 
0.464 0.033 0.114 3 
0.464 0.263 0.113 3 
0.466 0.022 0.114 3 
0.465 0.014 0.114 3 
0.465 0.003 0.114 3 
0.464 0.054 0.063 3 
0.463 0.273 0.054 3 
0.464 0.001 0.113 3 
0.461 0.164 0.014 3 
0.464 -0.006 0.113 3 
0.464 0.214 0.104 3 
0.465 0.255 0.104 3 
0.464 0.251 0.104 3 
0.464 0.32 0.082 3 
0.465 0.239 0.104 3 
0.465 0.233 0.104 3 
0.464 0.226 0.104 3 
0.463 0.273 0.012 3 
0.464 0.223 0.104 3 
0.464 0.263 0.104 3 
0.463 0.194 0.103 3 
0.463 0.182 0.103 3 
0.464 0.174 0.103 3 
0.464 0.163 0.103 3 
0.464 0.152 0.103 3 
0.464 0.144 0.103 3 
0.463 0.132 0.103 3 
0.462 0.123 0.103 3 
0.465 0.246 0.11 3 
0.464 0.254 0.113 3 
0.464 0.233 0.112 3 
0.464 0.223 0.112 3 
0.464 0.174 0.112 3 
0.464 0.014 0.111 3 
0.464 0.262 0.074 3 
0.464 -0.017 0.111 3 
0.466 0.332 0.112 3 
0.465 0.108 0.114 3 
0.465 0.294 0.043 3 
0.465 0.243 0.11 3 
0.464 0.072 0.063 3 
0.465 0.189 0.109 3 
0.464 -0.025 0.108 3 
0.464 0.163 0.106 3 
0.464 0.334 0.106 3 
0.463 0.274 0.104 3 
0.463 0.223 0.123 3 
0.464 -0.062 0.124 3 
0.462 -0.065 0.124 3 
0.464 0.279 0.124 3 
0.463 0.272 0.124 3 
0.463 0.262 0.124 3 
0.464 0.242 0.124 3 
0.463 0.232 0.123 3 
0.463 -0.054 0.108 3 
0.465 -0.036 0.124 3 
0.463 0.202 0.123 3 
0.464 0.194 0.123 3 
0.463 0.182 0.122 3 
0.463 0.174 0.122 3 
0.465 0.164 0.123 3 
0.464 0.16 0.122 3 
0.464 0.152 0.122 3 
0.463 0.182 0.054 3 
0.463 0.022 0.124 3 
0.463 0.094 0.124 3 
0.463 0.083 0.124 3 
0.463 0.073 0.124 3 
0.465 0.062 0.125 3 
0.464 0.059 0.124 3 
0.463 0.054 0.124 3 
0.461 0.043 0.124 3 
0.461 0.032 0.124 3 
0.463 0.143 0.122 3 
0.464 0.014 0.124 3 
0.464 0.003 0.124 3 
0.464 -0.006 0.124 3 
0.464 -0.017 0.124 3 
0.466 0.302 0.094 3 
0.465 -0.02 0.124 3 
0.464 -0.025 0.124 3 
0.465 -0.028 0.124 3 
0.465 0.164 0.114 3 
0.464 0.341 0.12 3 
0.465 0.178 0.117 3 
0.466 0.025 0.116 3 
0.463 0.197 0.114 3 
0.464 0.194 0.114 3 
0.465 0.192 0.115 3 
0.465 0.178 0.114 3 
0.465 0.172 0.114 3 
0.458 -0.025 0.052 3 
0.465 0.153 0.114 3 
0.465 0.198 0.109 3 
0.464 0.149 0.114 3 
0.464 0.144 0.114 3 
0.463 0.132 0.114 3 
0.463 0.124 0.114 3 
0.464 0.113 0.114 3 
0.464 0.094 0.052 3 
0.466 0.303 0.122 3 
0.463 0.132 0.122 3 
0.465 -0.009 0.122 3 
0.467 -0.047 0.122 3 
0.467 -0.055 0.122 3 
0.464 -0.017 0.052 3 
0.467 0.334 0.123 3 
0.466 0.323 0.123 3 
0.465 0.312 0.122 3 
0.464 0.113 0.103 3 
0.466 0.293 0.122 3 
0.466 0.284 0.122 3 
0.465 0.172 0.12 3 
0.465 0.153 0.12 3 
0.465 0.114 0.119 3 
0.465 0.022 0.119 3 
0.465 0.009 0.119 3 
0.465 0.003 0.119 3 
0.465 0.152 0.084 3 
0.465 -0.007 0.087 3 
0.465 -0.017 0.087 3 
0.466 0.283 0.085 3 
0.464 0.211 0.084 3 
0.462 0.201 0.084 3 
0.464 0.183 0.084 3 
0.463 0.174 0.084 3 
0.46 0.332 0.054 3 
0.465 -0.001 0.087 3 
0.466 0.144 0.084 3 
0.465 0.133 0.084 3 
0.463 0.129 0.084 3 
0.462 0.123 0.084 3 
0.462 0.112 0.084 3 
0.463 0.102 0.084 3 
0.463 0.094 0.084 3 
0.463 0.083 0.084 3 
0.465 -0.036 0.092 3 
0.463 0.024 0.092 3 
0.464 0.014 0.092 3 
0.465 0.008 0.092 3 
0.464 0.003 0.092 3 
0.464 -0.017 0.092 3 
0.464 -0.025 0.092 3 
0.465 0.221 0.085 3 
0.465 -0.028 0.092 3 
0.463 0.072 0.084 3 
0.465 0.141 0.09 3 
0.463 0.064 0.034 3 
0.465 0.23 0.087 3 
0.465 0.149 0.087 3 
0.465 0.086 0.087 3 
0.464 0.113 0.033 3 
0.465 0.084 0.087 3 
0.465 0.054 0.087 3 
0.464 0.313 0.08 3 
0.464 0.281 0.082 3 
0.464 0.272 0.082 3 
0.463 0.262 0.082 3 
0.463 0.252 0.082 3 
0.464 0.244 0.082 3 
0.464 0.232 0.082 3 
0.464 0.223 0.082 3 
0.464 -0.017 0.082 3 
0.465 0.291 0.082 3 
0.465 0.256 0.079 3 
0.465 0.253 0.079 3 
0.465 0.229 0.079 3 
0.465 0.221 0.079 3 
0.463 0.273 0.024 3 
0.464 0.294 0.077 3 
0.464 0.154 0.076 3 
0.465 0.019 0.076 3 
0.465 -0.012 0.084 3 
0.463 0.064 0.084 3 
0.464 0.054 0.084 3 
0.462 0.043 0.084 3 
0.462 0.032 0.084 3 
0.463 0.024 0.084 3 
0.463 0.014 0.084 3 
0.464 0.003 0.084 3 
0.464 -0.006 0.084 3 
0.464 0.102 0.052 3 
0.466 -0.025 0.084 3 
0.464 -0.033 0.084 3 
0.463 -0.036 0.084 3 
0.461 0.337 0.082 3 
0.465 0.327 0.083 3 
0.465 0.324 0.083 3 
0.465 0.314 0.082 3 
0.465 0.304 0.082 3 
0.465 0.282 0.102 3 
0.46 -0.056 0.102 3 
0.46 0.336 0.102 3 
0.461 0.334 0.102 3 
0.465 0.328 0.103 3 
0.467 0.323 0.103 3 
0.467 0.313 0.103 3 
0.466 0.302 0.102 3 
0.466 0.293 0.102 3 
0.464 -0.046 0.103 3 
0.463 0.277 0.102 3 
0.462 0.334 0.082 3 
0.465 0.209 0.101 3 
0.465 0.203 0.101 3 
0.464 -0.001 0.1 3 
0.464 -0.025 0.1 3 
0.464 -0.044 0.1 3 
0.461 0.043 0.094 3 
0.465 0.025 0.103 3 
0.462 0.102 0.103 3 
0.462 0.083 0.103 3 
0.463 0.072 0.103 3 
0.462 0.064 0.103 3 
0.461 0.337 0.022 3 
0.463 0.054 0.103 3 
0.461 0.043 0.102 3 
0.464 0.032 0.103 3 
0.465 0.006 0.023 3 
0.464 0.022 0.103 3 
0.464 -0.025 0.063 3 
0.465 0.009 0.103 3 
0.465 -0.006 0.103 3 
0.462 0.193 0.084 3 
0.464 -0.009 0.103 3 
0.464 -0.017 0.103 3 
0.465 -0.025 0.103 3 
0.462 0.113 0.092 3 
0.463 0.182 0.092 3 
0.462 0.173 0.092 3 
0.463 0.064 0.052 3 
0.463 0.162 0.092 3 
0.463 0.154 0.092 3 
0.464 0.143 0.092 3 
0.463 0.132 0.092 3 
0.461 0.123 0.092 3 
0.464 0.194 0.093 3 
0.462 0.102 0.092 3 
0.462 0.094 0.092 3 
0.464 0.083 0.092 3 
0.463 0.072 0.092 3 
0.463 0.064 0.092 3 
0.462 0.054 0.092 3 
0.465 0.081 0.049 3 
0.462 0.032 0.092 3 
0.464 0.263 0.093 3 
0.461 0.333 0.014 3 
0.461 0.337 0.094 3 
0.459 0.331 0.093 3 
0.463 0.322 0.094 3 
0.465 0.318 0.094 3 
0.466 0.312 0.094 3 
0.466 0.293 0.094 3 
0.463 0.274 0.093 3 
0.463 0.102 0.124 3 
0.463 0.253 0.093 3 
0.463 0.243 0.093 3 
0.463 0.234 0.093 3 
0.464 0.223 0.093 3 
0.464 0.214 0.093 3 
0.465 0.206 0.093 3 
0.465 0.203 0.093 3 
0.464 0.2 0.093 3 
