# .PCD v0.7 - Point Cloud Data file
FIELDS x y z intensity
SIZE 4 4 4 4
TYPE F F F F
COUNT 1 1 1 1
WIDTH 2407
HEIGHT 1
VIEWPOINT 0 0 0 1 0 0 0
POINTS 2407
DATA ascii
0.39 0.032 -0.002 0 
0.353 0.012 0.004 0 
0.419 -0.051 0.004 0 
0.394 0.061 0.008 0 
0.406 0.091 0.001 0 
0.404 0.092 0.002 0 
0.402 0.096 0.002 0 
0.397 0.064 0.008 0 
0.439 -0.074 0.002 0 
0.596 -0.033 0.085 0 
0.586 -0.028 0.091 0 
0.595 -0.036 0.092 0 
0.373 -0.235 -0.025 1 
0.37 -0.226 -0.024 1 
0.364 -0.165 -0.019 1 
0.364 -0.155 -0.018 1 
0.364 -0.149 -0.018 1 
0.363 -0.137 -0.017 1 
0.361 -0.126 -0.016 1 
0.354 -0.055 -0.012 1 
0.354 -0.046 -0.012 1 
0.351 -0.036 -0.011 1 
0.342 -0.024 -0.008 1 
0.334 -0.022 -0.005 1 
0.334 -0.001 -0.005 1 
0.352 0.033 -0.012 1 
0.352 0.044 -0.012 1 
0.354 0.063 -0.013 1 
0.353 0.073 -0.013 1 
0.353 0.083 -0.013 1 
0.354 0.094 -0.014 1 
0.351 0.103 -0.013 1 
0.35 0.124 -0.013 1 
0.351 0.154 -0.015 1 
0.344 0.206 -0.015 1 
0.374 -0.238 -0.024 1 
0.368 -0.187 -0.019 1 
0.361 -0.117 -0.014 1 
0.362 -0.106 -0.014 1 
0.364 -0.105 -0.015 1 
0.364 -0.096 -0.015 1 
0.36 -0.085 -0.013 1 
0.359 -0.056 -0.013 1 
0.333 -0.008 -0.003 1 
0.343 0.006 -0.007 1 
0.359 0.043 -0.013 1 
0.36 0.074 -0.014 1 
0.358 0.084 -0.013 1 
0.36 0.094 -0.014 1 
0.353 0.11 -0.012 1 
0.354 0.13 -0.013 1 
0.352 0.171 -0.014 1 
0.353 0.174 -0.015 1 
0.352 0.175 -0.014 1 
0.352 0.183 -0.015 1 
0.349 0.211 -0.016 1 
0.383 -0.254 -0.025 1 
0.383 -0.236 -0.024 1 
0.383 -0.228 -0.024 1 
0.372 -0.176 -0.018 1 
0.374 -0.146 -0.018 1 
0.374 -0.136 -0.018 1 
0.372 -0.125 -0.017 1 
0.368 -0.115 -0.015 1 
0.367 -0.086 -0.014 1 
0.371 -0.075 -0.015 1 
0.362 -0.032 -0.012 1 
0.342 -0.028 -0.005 1 
0.352 0.013 -0.008 1 
0.354 0.017 -0.009 1 
0.364 0.028 -0.013 1 
0.358 0.113 -0.012 1 
0.364 0.122 -0.014 1 
0.364 0.124 -0.015 1 
0.364 0.126 -0.015 1 
0.359 0.134 -0.013 1 
0.362 0.149 -0.015 1 
0.361 0.152 -0.014 1 
0.38 -0.245 -0.024 1 
0.355 0.184 -0.014 1 
0.355 0.19 -0.014 1 
0.391 -0.263 -0.026 1 
0.381 -0.195 -0.02 1 
0.374 -0.095 -0.015 1 
0.374 -0.085 -0.015 1 
0.37 -0.065 -0.013 1 
0.37 -0.056 -0.013 1 
0.344 0.018 -0.009 1 
0.337 -0.008 -0.001 1 
0.353 -0.006 -0.007 1 
0.364 0.021 -0.011 1 
0.373 0.075 -0.015 1 
0.371 0.084 -0.014 1 
0.372 0.103 -0.015 1 
0.37 0.114 -0.014 1 
0.37 0.123 -0.015 1 
0.369 0.163 -0.016 1 
0.361 0.194 -0.015 1 
0.359 0.223 -0.016 1 
0.393 -0.265 -0.025 1 
0.386 -0.226 -0.02 1 
0.384 -0.155 -0.017 1 
0.384 -0.128 -0.017 1 
0.384 -0.118 -0.017 1 
0.382 -0.105 -0.016 1 
0.38 -0.098 -0.015 1 
0.383 -0.075 -0.016 1 
0.374 -0.046 -0.012 1 
0.372 -0.041 -0.012 1 
0.363 0.004 -0.009 1 
0.374 0.028 -0.013 1 
0.376 0.103 -0.014 1 
0.375 0.114 -0.014 1 
0.374 0.122 -0.014 1 
0.374 0.138 -0.015 1 
0.372 0.144 -0.014 1 
0.369 0.18 -0.015 1 
0.374 0.193 -0.017 1 
0.398 -0.246 -0.023 1 
0.388 -0.185 -0.018 1 
0.383 -0.095 -0.014 1 
0.383 -0.093 -0.014 1 
0.386 -0.074 -0.015 1 
0.384 -0.064 -0.014 1 
0.387 -0.056 -0.015 1 
0.384 -0.05 -0.014 1 
0.383 0.043 -0.014 1 
0.383 0.073 -0.014 1 
0.384 0.079 -0.015 1 
0.382 0.084 -0.014 1 
0.384 0.103 -0.015 1 
0.382 0.114 -0.015 1 
0.382 0.116 -0.015 1 
0.38 0.133 -0.014 1 
0.38 0.138 -0.015 1 
0.379 0.154 -0.015 1 
0.382 0.164 -0.016 1 
0.373 0.224 -0.016 1 
0.373 0.238 -0.017 1 
0.404 -0.275 -0.024 1 
0.404 -0.269 -0.024 1 
0.392 -0.253 -0.019 1 
0.394 -0.216 -0.018 1 
0.391 -0.156 -0.016 1 
0.394 -0.125 -0.016 1 
0.393 -0.116 -0.015 1 
0.394 -0.085 -0.015 1 
0.393 -0.076 -0.015 1 
0.389 -0.065 -0.013 1 
0.392 -0.056 -0.014 1 
0.392 -0.054 -0.014 1 
0.393 -0.052 -0.015 1 
0.431 -0.058 -0.027 1 
0.462 -0.062 -0.037 1 
0.37 -0.105 -0.015 1 
0.303 -0.025 0.013 1 
0.3 -0.005 0.014 1 
0.305 -0.013 0.005 1 
0.374 0.013 -0.009 1 
0.384 0.027 -0.012 1 
0.39 0.114 -0.015 1 
0.387 0.131 -0.015 1 
0.384 0.144 -0.014 1 
0.383 0.152 -0.014 1 
0.384 0.155 -0.014 1 
0.385 0.162 -0.015 1 
0.383 0.174 -0.015 1 
0.373 0.153 -0.015 1 
0.38 0.234 -0.017 1 
0.414 -0.269 -0.024 1 
0.414 -0.258 -0.023 1 
0.384 -0.217 -0.019 1 
0.404 -0.227 -0.019 1 
0.404 -0.205 -0.019 1 
0.404 -0.198 -0.019 1 
0.403 -0.176 -0.018 1 
0.402 -0.168 -0.017 1 
0.402 -0.157 -0.017 1 
0.399 -0.146 -0.016 1 
0.399 -0.106 -0.015 1 
0.399 -0.096 -0.015 1 
0.399 -0.078 -0.015 1 
0.402 -0.054 -0.015 1 
0.438 -0.06 -0.027 1 
0.467 -0.063 -0.036 1 
0.303 -0.016 0.014 1 
0.373 0 -0.006 1 
0.394 0.043 -0.013 1 
0.394 0.064 -0.013 1 
0.394 0.074 -0.014 1 
0.393 0.084 -0.013 1 
0.393 0.092 -0.014 1 
0.394 0.103 -0.014 1 
0.394 0.114 -0.014 1 
0.392 0.132 -0.014 1 
0.393 0.141 -0.015 1 
0.392 0.143 -0.014 1 
0.388 0.153 -0.013 1 
0.389 0.177 -0.015 1 
0.382 0.243 -0.016 1 
0.382 0.246 -0.016 1 
0.414 -0.241 -0.02 1 
0.404 -0.186 -0.016 1 
0.404 -0.142 -0.015 1 
0.406 -0.096 -0.015 1 
0.406 -0.085 -0.015 1 
0.406 -0.083 -0.015 1 
0.404 -0.065 -0.014 1 
0.302 -0.025 0.016 1 
0.352 0.14 -0.014 1 
0.384 0.016 -0.008 1 
0.401 0.053 -0.013 1 
0.402 0.064 -0.014 1 
0.4 0.074 -0.013 1 
0.383 -0.187 -0.018 1 
0.394 -0.147 -0.016 1 
0.401 0.104 -0.014 1 
0.402 0.114 -0.015 1 
0.402 0.122 -0.015 1 
0.401 0.129 -0.015 1 
0.394 0.157 -0.013 1 
0.394 0.174 -0.014 1 
0.392 0.193 -0.014 1 
0.392 0.2 -0.014 1 
0.394 0.216 -0.015 1 
0.391 0.243 -0.016 1 
0.424 -0.3 -0.023 1 
0.423 -0.267 -0.021 1 
0.411 -0.225 -0.017 1 
0.364 -0.006 -0.007 1 
0.41 -0.215 -0.016 1 
0.413 -0.205 -0.017 1 
0.411 -0.196 -0.016 1 
0.41 -0.186 -0.015 1 
0.413 -0.166 -0.016 1 
0.414 -0.16 -0.016 1 
0.412 -0.147 -0.015 1 
0.351 0.194 -0.015 1 
0.411 -0.144 -0.015 1 
0.41 -0.136 -0.014 1 
0.411 -0.13 -0.015 1 
0.411 -0.125 -0.014 1 
0.413 -0.115 -0.015 1 
0.412 -0.105 -0.014 1 
0.411 -0.087 -0.014 1 
0.41 -0.075 -0.014 1 
0.409 -0.066 -0.013 1 
0.384 0.002 -0.006 1 
0.406 0.004 -0.012 1 
0.415 0.007 -0.015 1 
0.383 0.012 -0.006 1 
0.404 0.039 -0.012 1 
0.403 0.134 -0.013 1 
0.393 0.022 -0.009 1 
0.402 0.142 -0.013 1 
0.401 0.153 -0.013 1 
0.4 0.162 -0.013 1 
0.401 0.215 -0.015 1 
0.403 0.234 -0.016 1 
0.397 0.244 -0.015 1 
0.393 0.26 -0.015 1 
0.424 -0.285 -0.02 1 
0.42 -0.236 -0.017 1 
0.424 -0.227 -0.018 1 
0.421 -0.217 -0.017 1 
0.42 -0.196 -0.016 1 
0.419 -0.156 -0.015 1 
0.418 -0.148 -0.015 1 
0.338 0.012 0.008 1 
0.397 0.023 -0.008 1 
0.414 0.054 -0.013 1 
0.412 0.064 -0.012 1 
0.411 0.073 -0.012 1 
0.412 0.082 -0.013 1 
0.414 0.124 -0.014 1 
0.409 0.133 -0.013 1 
0.401 0.193 -0.012 1 
0.364 0.014 -0.009 1 
0.398 -0.236 -0.022 1 
0.408 0.224 -0.015 1 
0.403 0.263 -0.015 1 
0.4 0.268 -0.015 1 
0.432 -0.247 -0.018 1 
0.425 -0.189 -0.015 1 
0.424 -0.176 -0.014 1 
0.424 -0.174 -0.014 1 
0.424 -0.156 -0.014 1 
0.422 -0.145 -0.013 1 
0.424 -0.137 -0.014 1 
0.423 -0.117 -0.013 1 
0.368 0.214 -0.016 1 
0.423 -0.105 -0.013 1 
0.423 -0.096 -0.013 1 
0.423 -0.075 -0.013 1 
0.422 -0.065 -0.012 1 
0.424 -0.059 -0.013 1 
0.321 0.012 0.014 1 
0.403 0.028 -0.007 1 
0.413 0.144 -0.012 1 
0.414 0.147 -0.012 1 
0.412 0.163 -0.012 1 
0.414 0.194 -0.013 1 
0.411 0.211 -0.013 1 
0.414 0.232 -0.015 1 
0.415 0.241 -0.015 1 
0.414 0.242 -0.015 1 
0.415 0.249 -0.016 1 
0.414 0.253 -0.015 1 
0.411 0.272 -0.016 1 
0.407 0.276 -0.015 1 
0.433 -0.307 -0.018 1 
0.433 -0.286 -0.017 1 
0.434 -0.281 -0.017 1 
0.435 -0.256 -0.017 1 
0.436 -0.24 -0.016 1 
0.434 -0.227 -0.016 1 
0.432 -0.215 -0.015 1 
0.431 -0.207 -0.014 1 
0.432 -0.205 -0.015 1 
0.432 -0.2 -0.015 1 
0.381 -0.072 -0.015 1 
0.432 -0.197 -0.014 1 
0.43 -0.185 -0.014 1 
0.365 0.103 -0.014 1 
0.431 -0.176 -0.014 1 
0.431 -0.168 -0.014 1 
0.432 -0.136 -0.013 1 
0.431 -0.126 -0.013 1 
0.43 -0.106 -0.012 1 
0.429 -0.077 -0.012 1 
0.43 -0.065 -0.012 1 
0.432 -0.058 -0.013 1 
0.484 -0.061 -0.026 1 
0.326 0.001 0.014 1 
0.352 0.022 0.007 1 
0.357 0.024 0.006 1 
0.424 0.053 -0.011 1 
0.424 0.063 -0.011 1 
0.422 0.074 -0.011 1 
0.424 0.093 -0.011 1 
0.422 0.104 -0.011 1 
0.423 0.124 -0.012 1 
0.419 0.153 -0.011 1 
0.419 0.163 -0.012 1 
0.418 0.174 -0.012 1 
0.417 0.273 -0.015 1 
0.416 0.278 -0.015 1 
0.38 0.123 -0.014 1 
0.414 0.284 -0.014 1 
0.437 -0.315 -0.017 1 
0.437 -0.296 -0.016 1 
0.44 -0.275 -0.016 1 
0.434 -0.257 -0.014 1 
0.434 -0.155 -0.012 1 
0.434 -0.152 -0.012 1 
0.434 -0.095 -0.011 1 
0.434 -0.085 -0.011 1 
0.332 0.021 0.014 1 
0.335 0.024 0.013 1 
0.417 -0.176 -0.015 1 
0.424 0.044 -0.009 1 
0.431 0.074 -0.011 1 
0.428 0.083 -0.01 1 
0.428 0.143 -0.011 1 
0.424 0.184 -0.011 1 
0.423 0.193 -0.011 1 
0.422 0.202 -0.011 1 
0.422 0.213 -0.011 1 
0.422 0.221 -0.011 1 
0.422 0.234 -0.012 1 
0.423 0.243 -0.012 1 
0.424 0.252 -0.013 1 
0.422 0.284 -0.014 1 
0.423 0.291 -0.014 1 
0.425 0.296 -0.015 1 
0.418 -0.207 -0.016 1 
0.446 -0.306 -0.016 1 
0.445 -0.295 -0.015 1 
0.444 -0.217 -0.013 1 
0.444 -0.176 -0.012 1 
0.442 -0.167 -0.011 1 
0.44 -0.155 -0.011 1 
0.444 -0.145 -0.012 1 
0.443 -0.136 -0.011 1 
0.442 -0.126 -0.011 1 
0.442 -0.116 -0.011 1 
0.442 -0.105 -0.011 1 
0.412 -0.096 -0.014 1 
0.444 -0.096 -0.011 1 
0.421 0.083 -0.01 1 
0.443 -0.086 -0.011 1 
0.442 -0.075 -0.01 1 
0.444 -0.058 -0.011 1 
0.478 -0.057 -0.019 1 
0.463 -0.052 -0.015 1 
0.327 0.024 0.017 1 
0.431 0.052 -0.008 1 
0.433 0.058 -0.009 1 
0.414 -0.057 -0.015 1 
0.433 0.094 -0.009 1 
0.434 0.119 -0.01 1 
0.434 0.154 -0.01 1 
0.434 0.162 -0.011 1 
0.431 0.173 -0.01 1 
0.43 0.183 -0.01 1 
0.431 0.223 -0.011 1 
0.43 0.233 -0.011 1 
0.444 -0.267 -0.011 1 
0.444 -0.255 -0.011 1 
0.413 0.103 -0.013 1 
0.444 -0.235 -0.01 1 
0.444 -0.232 -0.01 1 
0.444 -0.192 -0.01 1 
0.451 -0.146 -0.011 1 
0.448 -0.095 -0.009 1 
0.441 0.074 -0.008 1 
0.441 0.082 -0.008 1 
0.435 0.114 -0.007 1 
0.44 0.144 -0.009 1 
0.439 0.163 -0.009 1 
0.433 0.192 -0.008 1 
0.434 0.204 -0.009 1 
0.434 0.209 -0.009 1 
0.434 0.25 -0.01 1 
0.434 0.264 -0.011 1 
0.431 0.273 -0.01 1 
0.433 0.284 -0.011 1 
0.432 0.301 -0.012 1 
0.443 -0.321 -0.01 1 
0.383 -0.205 -0.019 1 
0.452 -0.325 -0.012 1 
0.454 -0.317 -0.012 1 
0.454 -0.295 -0.012 1 
0.453 -0.275 -0.011 1 
0.423 0.133 -0.012 1 
0.452 -0.265 -0.01 1 
0.45 -0.255 -0.01 1 
0.449 -0.248 -0.009 1 
0.45 -0.235 -0.009 1 
0.452 -0.226 -0.01 1 
0.454 -0.216 -0.01 1 
0.454 -0.205 -0.01 1 
0.454 -0.196 -0.01 1 
0.454 -0.185 -0.009 1 
0.454 -0.161 -0.009 1 
0.454 -0.136 -0.009 1 
0.454 -0.115 -0.008 1 
0.454 -0.11 -0.008 1 
0.491 -0.057 -0.017 1 
0.371 0.044 -0.014 1 
0.489 -0.053 -0.016 1 
0.482 -0.049 -0.015 1 
0.394 0.123 -0.014 1 
0.441 0.054 -0.006 1 
0.444 0.06 -0.006 1 
0.445 0.063 -0.007 1 
0.447 0.091 -0.007 1 
0.431 0.096 -0.004 1 
0.444 0.123 -0.007 1 
0.444 0.126 -0.007 1 
0.444 0.173 -0.008 1 
0.442 0.183 -0.008 1 
0.442 0.194 -0.008 1 
0.444 0.203 -0.009 1 
0.443 0.213 -0.009 1 
0.441 0.242 -0.009 1 
0.44 0.294 -0.01 1 
0.381 0.184 -0.015 1 
0.462 -0.316 -0.011 1 
0.456 -0.079 -0.006 1 
0.451 -0.057 -0.005 1 
0.493 -0.06 -0.014 1 
0.495 -0.057 -0.015 1 
0.479 -0.049 -0.011 1 
0.353 0.144 -0.015 1 
0.426 0.054 0 1 
0.438 0.061 -0.002 1 
0.447 0.066 -0.004 1 
0.451 0.069 -0.005 1 
0.363 -0.066 -0.014 1 
0.453 0.133 -0.007 1 
0.452 0.153 -0.007 1 
0.451 0.164 -0.007 1 
0.45 0.202 -0.007 1 
0.443 0.273 -0.008 1 
0.443 0.282 -0.008 1 
0.442 0.302 -0.009 1 
0.442 0.315 -0.009 1 
0.464 -0.342 -0.01 1 
0.404 -0.076 -0.014 1 
0.463 -0.301 -0.008 1 
0.463 -0.257 -0.007 1 
0.364 0.027 0.004 1 
0.464 -0.237 -0.007 1 
0.462 -0.216 -0.006 1 
0.464 -0.197 -0.006 1 
0.465 -0.181 -0.006 1 
0.464 -0.177 -0.006 1 
0.465 -0.172 -0.006 1 
0.464 -0.155 -0.006 1 
0.462 -0.135 -0.005 1 
0.462 -0.116 -0.005 1 
0.464 -0.103 -0.005 1 
0.48 -0.097 -0.009 1 
0.458 -0.08 -0.004 1 
0.374 0.047 -0.013 1 
0.404 -0.258 -0.023 1 
0.46 -0.049 -0.004 1 
0.384 -0.066 -0.014 1 
0.392 -0.207 -0.02 1 
0.457 0.142 -0.005 1 
0.456 0.153 -0.005 1 
0.455 0.172 -0.005 1 
0.454 0.174 -0.005 1 
0.394 0.233 -0.016 1 
0.453 0.184 -0.005 1 
0.454 0.193 -0.005 1 
0.455 0.202 -0.006 1 
0.414 0.094 -0.013 1 
0.455 0.211 -0.006 1 
0.454 0.213 -0.006 1 
0.452 0.223 -0.006 1 
0.452 0.234 -0.006 1 
0.45 0.244 -0.006 1 
0.45 0.253 -0.006 1 
0.448 0.263 -0.006 1 
0.449 0.291 -0.007 1 
0.444 0.314 -0.007 1 
0.457 0.134 -0.005 1 
0.467 -0.286 -0.006 1 
0.466 -0.275 -0.005 1 
0.466 -0.257 -0.005 1 
0.467 -0.245 -0.005 1 
0.468 -0.237 -0.005 1 
0.467 -0.231 -0.005 1 
0.464 -0.22 -0.004 1 
0.464 -0.122 -0.003 1 
0.454 0.253 -0.004 1 
0.452 0.264 -0.004 1 
0.454 0.271 -0.004 1 
0.455 0.282 -0.005 1 
0.454 0.284 -0.005 1 
0.444 -0.247 -0.011 1 
0.455 0.291 -0.005 1 
0.455 0.297 -0.005 1 
0.454 0.302 -0.005 1 
0.45 0.314 -0.005 1 
0.447 0.321 -0.005 1 
0.47 -0.345 -0.005 1 
0.47 -0.335 -0.005 1 
0.431 0.132 -0.011 1 
0.444 0.262 -0.008 1 
0.472 -0.327 -0.005 1 
0.364 -0.076 -0.015 1 
0.474 -0.315 -0.005 1 
0.474 -0.312 -0.005 1 
0.45 0.324 -0.003 1 
0.474 -0.346 -0.003 1 
0.473 -0.338 -0.002 1 
0.364 -0.186 -0.02 1 
0.474 -0.325 -0.002 1 
0.478 -0.088 0 1 
0.46 0.093 0.002 1 
0.475 -0.358 0 1 
0.475 -0.283 0.001 1 
0.471 -0.225 0.002 1 
0.47 -0.216 0.002 1 
0.47 -0.207 0.002 1 
0.47 -0.195 0.003 1 
0.47 -0.186 0.003 1 
0.374 -0.206 -0.022 1 
0.423 0.114 -0.011 1 
0.5 -0.076 -0.001 1 
0.508 -0.075 -0.002 1 
0.444 -0.198 -0.012 1 
0.444 -0.208 -0.013 1 
0.451 -0.085 -0.008 1 
0.454 0.086 0.006 1 
0.461 0.104 0.004 1 
0.462 0.112 0.004 1 
0.464 0.124 0.004 1 
0.463 0.154 0.003 1 
0.463 0.162 0.003 1 
0.464 0.174 0.003 1 
0.464 0.183 0.003 1 
0.464 0.194 0.003 1 
0.464 0.2 0.002 1 
0.465 0.203 0.002 1 
0.465 0.206 0.002 1 
0.463 0.219 0.002 1 
0.465 0.224 0.002 1 
0.464 0.232 0.002 1 
0.464 0.244 0.002 1 
0.474 -0.357 0.002 1 
0.363 0.104 -0.014 1 
0.477 -0.335 0.002 1 
0.422 -0.086 -0.012 1 
0.477 -0.325 0.002 1 
0.476 -0.31 0.003 1 
0.475 -0.296 0.003 1 
0.475 -0.29 0.003 1 
0.474 -0.285 0.004 1 
0.472 -0.277 0.004 1 
0.471 -0.267 0.004 1 
0.496 -0.072 0.002 1 
0.517 -0.067 -0.001 1 
0.516 -0.064 0 1 
0.449 0.061 0.009 1 
0.442 0.062 0.011 1 
0.444 -0.066 -0.008 1 
0.451 -0.065 -0.005 1 
0.384 -0.175 -0.018 1 
0.463 0.264 0.004 1 
0.464 0.274 0.004 1 
0.463 0.292 0.004 1 
0.463 0.302 0.003 1 
0.463 0.311 0.003 1 
0.462 0.324 0.003 1 
0.461 0.329 0.003 1 
0.372 0.149 -0.014 1 
0.466 0.343 0.002 1 
0.475 -0.296 0.006 1 
0.477 -0.346 0.002 1 
0.475 -0.29 0.006 1 
0.374 0.019 -0.011 1 
0.459 0.074 -0.007 1 
0.54 -0.065 -0.001 1 
0.466 -0.055 0.012 1 
0.464 -0.052 0.012 1 
0.466 -0.047 0.012 1 
0.431 0.294 -0.011 1 
0.466 -0.042 0.012 1 
0.519 -0.017 0.004 1 
0.458 0.052 0.013 1 
0.458 0.063 0.013 1 
0.413 0.203 -0.013 1 
0.383 -0.146 -0.017 1 
0.458 -0.085 -0.007 1 
0.454 -0.166 -0.009 1 
0.463 -0.105 -0.005 1 
0.464 -0.047 0.015 1 
0.563 -0.023 0.001 1 
0.462 -0.126 -0.005 1 
0.463 -0.146 -0.005 1 
0.464 -0.166 -0.006 1 
0.464 -0.186 -0.006 1 
0.462 -0.225 -0.006 1 
0.452 -0.306 -0.012 1 
0.463 -0.245 -0.007 1 
0.44 0.253 -0.009 1 
0.463 -0.285 -0.008 1 
0.452 0.08 0.006 1 
0.579 -0.05 0.003 1 
0.586 -0.047 0.002 1 
0.586 -0.032 0.002 1 
0.477 -0.088 -0.005 1 
0.581 -0.024 0.002 1 
0.462 -0.326 -0.012 1 
0.436 0.095 -0.005 1 
0.597 -0.044 0.004 1 
0.598 -0.029 0.004 1 
0.443 -0.275 -0.011 1 
0.413 0.114 -0.013 1 
0.371 0.108 -0.015 1 
0.578 -0.024 0.01 1 
0.464 -0.055 -0.021 1 
0.389 0.172 -0.015 1 
0.438 -0.27 -0.015 1 
0.438 0.093 -0.005 1 
0.401 -0.086 -0.015 1 
0.59 -0.047 0.013 1 
0.589 -0.04 0.013 1 
0.584 -0.036 0.013 1 
0.584 -0.028 0.013 1 
0.454 0.128 -0.004 1 
0.453 0.143 -0.007 1 
0.364 -0.184 -0.02 1 
0.487 -0.096 -0.001 1 
0.439 -0.245 -0.015 1 
0.472 -0.249 0.004 1 
0.413 -0.11 -0.015 1 
0.451 0.124 -0.006 1 
0.469 -0.297 -0.006 1 
0.364 -0.074 -0.015 1 
0.439 0.154 -0.009 1 
0.354 0.164 -0.014 1 
0.424 -0.256 -0.019 1 
0.359 0.202 -0.014 1 
0.357 0.144 -0.015 1 
0.325 0.011 0.013 1 
0.464 0.336 0.002 1 
0.464 0.143 0.003 1 
0.394 0.027 -0.011 1 
0.353 0.054 -0.013 1 
0.39 -0.198 -0.019 1 
0.373 -0.216 -0.024 1 
0.372 -0.195 -0.021 1 
0.36 0.199 -0.015 1 
0.35 -0.029 -0.009 1 
0.434 0.058 -0.002 1 
0.37 -0.071 -0.015 1 
0.421 -0.276 -0.021 1 
0.432 0.111 -0.006 1 
0.352 0.204 -0.016 1 
0.35 0.003 -0.008 1 
0.393 0.203 -0.015 1 
0.464 -0.039 0.012 1 
0.402 0.213 -0.015 1 
0.401 -0.056 -0.015 1 
0.423 0.273 -0.014 1 
0.414 -0.247 -0.021 1 
0.435 -0.312 -0.014 1 
0.388 0.124 -0.015 1 
0.511 -0.069 0 1 
0.425 -0.036 0.014 1 
0.392 -0.235 -0.023 1 
0.472 -0.241 0.004 1 
0.371 0.063 -0.014 1 
0.402 0.109 -0.014 1 
0.414 0.224 -0.014 1 
0.454 -0.126 -0.009 1 
0.426 -0.165 -0.015 1 
0.386 -0.1 -0.015 1 
0.434 -0.235 -0.016 1 
0.372 0.094 -0.015 1 
0.432 -0.267 -0.019 1 
0.412 -0.058 -0.014 1 
0.382 0.064 -0.014 1 
0.424 -0.248 -0.019 1 
0.361 0.164 -0.015 1 
0.412 0.173 -0.012 1 
0.409 0.119 -0.015 1 
0.464 0.132 0.004 1 
0.382 0.203 -0.016 1 
0.382 0.193 -0.015 1 
0.394 -0.266 -0.023 1 
0.419 -0.165 -0.015 1 
0.394 0.183 -0.014 1 
0.481 -0.097 0 1 
0.394 0.248 -0.015 1 
0.401 0.184 -0.014 1 
0.433 0.305 -0.012 1 
0.474 -0.298 0.003 1 
0.363 -0.094 -0.015 1 
0.341 0.003 -0.006 1 
0.385 0.014 -0.006 1 
0.364 0.174 -0.015 1 
0.463 -0.266 -0.007 1 
0.457 0.079 -0.007 1 
0.412 0.182 -0.013 1 
0.412 0.038 -0.008 1 
0.422 0.264 -0.013 1 
0.433 -0.295 -0.018 1 
0.399 -0.215 -0.018 1 
0.383 -0.085 -0.016 1 
0.419 0.143 -0.011 1 
0.444 -0.288 -0.015 1 
0.463 0.252 0.002 1 
0.454 -0.289 -0.011 1 
0.454 0.274 -0.005 1 
0.394 -0.178 -0.017 1 
0.412 -0.177 -0.016 1 
0.313 -0.01 0.002 1 
0.454 -0.076 -0.006 1 
0.399 -0.057 -0.014 1 
0.399 -0.126 -0.015 1 
0.375 0.134 -0.015 1 
0.394 0.049 -0.013 1 
0.401 0.174 -0.014 1 
0.364 -0.045 -0.012 1 
0.432 0.103 -0.006 1 
0.454 -0.18 -0.009 1 
0.371 0.234 -0.016 1 
0.424 -0.186 -0.015 1 
0.363 -0.077 -0.014 1 
0.357 0.184 -0.015 1 
0.444 -0.31 -0.015 1 
0.384 0.053 -0.014 1 
0.434 -0.258 -0.016 1 
0.408 0.041 -0.002 1 
0.384 0.216 -0.017 1 
0.451 0.082 -0.005 1 
0.394 0.211 -0.015 1 
0.374 -0.155 -0.018 1 
0.371 0.173 -0.015 1 
0.591 -0.029 0.009 1 
0.383 -0.165 -0.017 1 
0.391 -0.105 -0.015 1 
0.364 0.054 -0.013 1 
0.393 -0.259 -0.02 1 
0.371 0.089 -0.014 1 
0.36 0.063 -0.014 1 
0.398 0.084 -0.013 1 
0.466 -0.266 -0.005 1 
0.403 0.253 -0.015 1 
0.463 0.283 0.004 1 
0.362 0.143 -0.014 1 
0.431 -0.116 -0.013 1 
0.382 0.212 -0.016 1 
0.472 -0.255 0.004 1 
0.405 0.032 -0.008 1 
0.362 -0.115 -0.015 1 
0.403 0.197 -0.013 1 
0.388 -0.095 -0.013 1 
0.443 0.222 -0.009 1 
0.374 0.13 -0.014 1 
0.417 -0.275 -0.028 1 
0.388 -0.165 -0.017 1 
0.472 -0.059 -0.029 1 
0.509 -0.06 0 1 
0.414 0.227 -0.014 1 
0.412 -0.275 -0.024 1 
0.411 0.264 -0.015 1 
0.476 -0.317 0.003 1 
0.462 -0.207 -0.006 1 
0.382 0.094 -0.014 1 
0.455 0.164 -0.005 1 
0.424 -0.125 -0.013 1 
0.464 -0.277 -0.008 1 
0.434 0.242 -0.01 1 
0.443 0.233 -0.009 1 
0.473 -0.098 -0.007 1 
0.416 -0.055 -0.015 1 
0.464 0.214 0.002 1 
0.36 -0.036 -0.011 1 
0.399 -0.115 -0.015 1 
0.384 -0.136 -0.017 1 
0.369 0.197 -0.017 1 
0.332 -0.004 -0.004 1 
0.391 -0.092 -0.014 1 
0.462 -0.306 -0.011 1 
0.394 -0.138 -0.016 1 
0.36 0.212 -0.015 1 
0.37 -0.166 -0.017 1 
0.372 0.073 -0.014 1 
0.37 0.133 -0.015 1 
0.415 0.099 0 1 
0.399 0.093 -0.013 1 
0.389 -0.053 0.025 2 
0.379 -0.047 0.025 2 
0.364 0.053 0.029 2 
0.34 0.047 0.039 2 
0.35 0.051 0.037 2 
0.378 -0.031 0.028 2 
0.368 -0.026 0.03 2 
0.337 0.029 0.043 2 
0.365 -0.049 0.031 2 
0.411 0.048 0.005 2 
0.38 0.077 0.022 2 
0.373 -0.053 0.029 2 
0.384 0.065 0.025 2 
0.362 -0.027 0.026 2 
0.335 0.03 0.035 2 
0.576 -0.046 0.041 2 
0.574 -0.027 0.071 2 
0.588 -0.055 0.032 2 
0.587 -0.054 0.04 2 
0.585 -0.051 0.021 2 
0.549 -0.019 0.032 2 
0.559 -0.023 0.06 2 
0.568 -0.027 0.06 2 
0.577 -0.035 0.059 2 
0.595 -0.055 0.058 2 
0.559 -0.019 0.021 2 
0.571 -0.027 0.02 2 
0.586 -0.039 0.014 2 
0.565 -0.034 0.034 2 
0.568 -0.027 0.024 2 
0.578 -0.042 0.041 2 
0.571 -0.023 0.081 2 
0.586 -0.028 0.082 2 
0.589 -0.036 0.082 2 
0.58 -0.039 0.019 2 
0.596 -0.044 0.075 2 
0.594 -0.048 0.063 2 
0.556 -0.023 0.053 2 
0.544 -0.019 0.043 2 
0.586 -0.054 0.028 2 
0.574 -0.024 0.013 2 
0.589 -0.047 0.052 2 
0.538 -0.018 0.046 2 
0.559 -0.023 0.028 2 
0.585 -0.043 0.059 2 
0.551 -0.022 0.042 2 
0.558 -0.026 0.032 2 
0.588 -0.055 0.025 2 
0.593 -0.055 0.051 2 
0.531 -0.018 0.053 2 
0.567 -0.027 0.053 2 
0.561 -0.03 0.053 2 
0.579 -0.039 0.052 2 
0.566 -0.023 0.07 2 
0.591 -0.047 0.059 2 
0.583 -0.035 0.07 2 
0.571 -0.038 0.041 2 
0.585 -0.039 0.07 2 
0.56 -0.026 0.042 2 
0.573 -0.038 0.03 2 
0.573 -0.035 0.019 2 
0.585 -0.043 0.052 2 
0.583 -0.047 0.018 2 
0.586 -0.032 0.071 2 
0.577 -0.042 0.03 2 
0.572 -0.024 0.016 2 
0.581 -0.028 0.015 2 
0.554 -0.022 0.049 2 
0.577 -0.046 0.03 2 
0.581 -0.05 0.01 2 
0.577 -0.027 0.074 2 
0.465 0.117 0.114 3 
0.466 0.303 0.114 3 
0.464 0.294 0.082 3 
0.464 0.113 0.114 3 
0.464 0.094 0.052 3 
0.465 0.111 0.114 3 
0.465 0.103 0.114 3 
0.464 0.1 0.114 3 
0.464 0.094 0.114 3 
0.464 0.084 0.114 3 
0.463 0.073 0.113 3 
0.464 0.341 0.114 3 
0.465 0.338 0.114 3 
0.464 0.334 0.114 3 
0.466 0.333 0.114 3 
0.465 0.321 0.114 3 
0.466 0.312 0.114 3 
0.465 0.312 0.122 3 
0.464 0.288 0.116 3 
0.464 0.174 0.103 3 
0.465 0.302 0.122 3 
0.465 0.292 0.122 3 
0.465 0.114 0.119 3 
0.316 0.024 0.024 3 
0.464 0.141 0.117 3 
0.464 0.13 0.117 3 
0.465 0.092 0.117 3 
0.464 0.122 0.114 3 
0.465 0.207 0.115 3 
0.464 0.194 0.114 3 
0.465 0.178 0.114 3 
0.464 0.174 0.114 3 
0.464 0.163 0.114 3 
0.465 0.153 0.114 3 
0.465 0.133 0.114 3 
0.464 0.223 0.104 3 
0.265 -0.004 0.074 3 
0.266 -0.005 0.074 3 
0.464 0.269 0.104 3 
0.464 0.263 0.104 3 
0.464 0.254 0.104 3 
0.464 0.323 0.082 3 
0.464 0.232 0.104 3 
0.462 0.272 0.013 3 
0.264 0.004 0.074 3 
0.464 0.214 0.104 3 
0.464 0.203 0.104 3 
0.464 0.194 0.104 3 
0.464 0.183 0.103 3 
0.465 0.181 0.104 3 
0.464 0.213 0.134 3 
0.464 0.203 0.112 3 
0.464 0.272 0.113 3 
0.464 0.263 0.113 3 
0.464 0.254 0.113 3 
0.463 0.244 0.112 3 
0.462 0.234 0.112 3 
0.464 0.223 0.112 3 
0.294 -0.005 0.054 3 
0.295 -0.004 0.039 3 
0.464 0.282 0.113 3 
0.465 0.189 0.112 3 
0.464 0.152 0.111 3 
0.464 0.13 0.111 3 
0.265 -0.004 0.075 3 
0.266 0.02 0.074 3 
0.264 0.016 0.074 3 
0.264 0.014 0.074 3 
0.464 0.273 0.133 3 
0.464 0.335 0.134 3 
0.465 0.329 0.134 3 
0.465 0.322 0.134 3 
0.465 0.342 0.117 3 
0.464 0.301 0.133 3 
0.465 0.296 0.133 3 
0.465 0.293 0.133 3 
0.465 0.283 0.133 3 
0.463 0.073 0.132 3 
0.464 0.263 0.132 3 
0.465 0.094 0.033 3 
0.465 0.261 0.133 3 
0.463 0.132 0.022 3 
0.464 0.254 0.132 3 
0.464 0.105 0.13 3 
0.464 0.1 0.13 3 
0.465 0.2 0.082 3 
0.466 0.134 0.133 3 
0.464 0.232 0.074 3 
0.464 0.204 0.134 3 
0.466 0.199 0.134 3 
0.466 0.193 0.134 3 
0.465 0.184 0.134 3 
0.465 0.172 0.134 3 
0.465 0.164 0.134 3 
0.465 0.153 0.133 3 
0.465 0.343 0.132 3 
0.465 0.122 0.133 3 
0.465 0.114 0.133 3 
0.465 0.103 0.133 3 
0.465 0.092 0.133 3 
0.464 0.089 0.133 3 
0.464 0.084 0.133 3 
0.465 0.079 0.133 3 
0.465 0.153 0.122 3 
0.464 0.203 0.123 3 
0.464 0.194 0.123 3 
0.465 0.192 0.123 3 
0.465 0.184 0.123 3 
0.464 0.18 0.123 3 
0.464 0.172 0.122 3 
0.464 0.163 0.122 3 
0.463 0.223 0.123 3 
0.464 0.149 0.122 3 
0.464 0.182 0.054 3 
0.465 0.133 0.122 3 
0.464 0.122 0.122 3 
0.464 0.114 0.122 3 
0.464 0.103 0.122 3 
0.464 0.341 0.123 3 
0.465 0.332 0.123 3 
0.464 0.119 0.125 3 
0.464 0.334 0.132 3 
0.464 0.18 0.128 3 
0.464 0.172 0.128 3 
0.276 0.025 0.083 3 
0.465 0.207 0.126 3 
0.464 0.163 0.125 3 
0.464 0.125 0.125 3 
0.466 0.323 0.123 3 
0.464 0.092 0.124 3 
0.463 0.083 0.124 3 
0.464 0.282 0.124 3 
0.464 0.272 0.124 3 
0.464 0.263 0.124 3 
0.463 0.244 0.123 3 
0.463 0.232 0.123 3 
0.465 0.103 0.084 3 
0.462 0.334 0.054 3 
0.463 0.162 0.084 3 
0.464 0.152 0.084 3 
0.465 0.136 0.084 3 
0.465 0.133 0.084 3 
0.465 0.122 0.084 3 
0.465 0.114 0.084 3 
0.464 0.105 0.084 3 
0.464 0.174 0.084 3 
0.464 0.094 0.084 3 
0.465 0.089 0.084 3 
0.465 0.084 0.084 3 
0.462 0.338 0.014 3 
0.464 0.078 0.084 3 
0.463 0.072 0.084 3 
0.462 0.338 0.082 3 
0.464 0.313 0.082 3 
0.463 0.193 0.022 3 
0.465 0.127 0.09 3 
0.465 0.114 0.09 3 
0.465 0.1 0.09 3 
0.465 0.092 0.09 3 
0.464 0.105 0.033 3 
0.465 0.084 0.09 3 
0.463 0.312 0.054 3 
0.464 0.303 0.082 3 
0.465 0.311 0.088 3 
0.465 0.206 0.087 3 
0.464 0.211 0.084 3 
0.464 0.203 0.084 3 
0.464 0.194 0.084 3 
0.464 0.183 0.084 3 
0.463 0.302 0.074 3 
0.465 0.311 0.077 3 
0.272 0.018 0.064 3 
0.27 0.014 0.064 3 
0.269 0.004 0.064 3 
0.462 0.338 0.074 3 
0.462 0.334 0.074 3 
0.464 0.323 0.074 3 
0.464 0.313 0.074 3 
0.304 -0.006 0.067 3 
0.464 0.294 0.074 3 
0.463 0.283 0.074 3 
0.463 0.274 0.074 3 
0.464 0.262 0.074 3 
0.464 0.252 0.074 3 
0.465 0.244 0.074 3 
0.464 0.238 0.074 3 
0.477 0.362 0.2 3 
0.465 0.192 0.082 3 
0.464 0.284 0.082 3 
0.463 0.274 0.082 3 
0.463 0.262 0.082 3 
0.464 0.253 0.082 3 
0.464 0.244 0.082 3 
0.464 0.232 0.082 3 
0.463 0.222 0.082 3 
0.465 0.206 0.082 3 
0.309 0.031 0.074 3 
0.458 0.063 0.081 3 
0.296 0.023 0.068 3 
0.464 0.154 0.063 3 
0.465 0.172 0.079 3 
0.462 0.142 0.014 3 
0.464 0.132 0.079 3 
0.452 0.054 0.078 3 
0.465 0.122 0.101 3 
0.464 0.32 0.102 3 
0.465 0.314 0.102 3 
0.465 0.301 0.102 3 
0.464 0.294 0.102 3 
0.464 0.284 0.102 3 
0.461 0.333 0.082 3 
0.464 0.144 0.1 3 
0.464 0.127 0.1 3 
0.465 0.324 0.103 3 
0.306 0.03 0.077 3 
0.265 0.01 0.072 3 
0.465 0.341 0.1 3 
0.465 0.236 0.099 3 
0.298 0.028 0.075 3 
0.464 0.297 0.096 3 
0.465 0.114 0.095 3 
0.465 0.103 0.095 3 
0.278 0.024 0.074 3 
0.464 0.152 0.103 3 
0.465 0.144 0.103 3 
0.465 0.133 0.103 3 
0.464 0.122 0.103 3 
0.464 0.113 0.103 3 
0.464 0.102 0.103 3 
0.464 0.083 0.103 3 
0.461 0.072 0.102 3 
0.458 0.066 0.094 3 
0.277 -0.007 0.074 3 
0.464 0.232 0.043 3 
0.465 0.272 0.06 3 
0.304 -0.004 0.022 3 
0.464 0.34 0.103 3 
0.464 0.333 0.103 3 
0.465 0.331 0.103 3 
0.464 0.064 0.034 3 
0.465 0.215 0.093 3 
0.463 0.193 0.092 3 
0.464 0.174 0.093 3 
0.463 0.064 0.052 3 
0.464 0.163 0.092 3 
0.464 0.152 0.092 3 
0.464 0.143 0.092 3 
0.465 0.136 0.092 3 
0.464 0.223 0.093 3 
0.464 0.132 0.092 3 
0.464 0.124 0.092 3 
0.465 0.122 0.092 3 
0.464 0.113 0.092 3 
0.464 0.102 0.092 3 
0.464 0.094 0.092 3 
0.464 0.083 0.092 3 
0.464 0.211 0.093 3 
0.287 0.026 0.073 3 
0.464 0.34 0.094 3 
0.463 0.332 0.094 3 
0.465 0.331 0.094 3 
0.464 0.323 0.094 3 
0.464 0.313 0.094 3 
0.316 0.013 0.02 3 
0.464 0.303 0.094 3 
0.464 0.163 0.103 3 
0.465 0.301 0.094 3 
0.465 0.292 0.094 3 
0.464 0.272 0.093 3 
0.463 0.262 0.093 3 
0.464 0.254 0.093 3 
0.465 0.244 0.093 3 
0.464 0.232 0.093 3 
0.468 0.331 0.183 3 
0.468 0.282 0.183 3 
0.468 0.272 0.183 3 
0.468 0.263 0.182 3 
0.255 -0.006 0.093 3 
0.464 0.241 0.093 3 
0.322 0.035 0.024 3 
0.462 0.072 0.124 3 
0.47 0.345 0.184 3 
0.468 0.291 0.183 3 
0.468 0.321 0.182 3 
0.466 0.294 0.142 3 
0.467 0.213 0.174 3 
0.467 0.204 0.174 3 
0.464 0.252 0.143 3 
0.466 0.192 0.173 3 
0.464 0.274 0.032 3 
0.464 0.212 0.123 3 
0.323 0.034 0.024 3 
0.468 0.202 0.183 3 
0.468 0.193 0.183 3 
0.469 0.182 0.183 3 
0.47 0.174 0.183 3 
0.469 0.162 0.182 3 
0.469 0.153 0.182 3 
0.467 0.184 0.174 3 
0.469 0.133 0.181 3 
0.464 0.203 0.033 3 
0.307 0.013 0.025 3 
0.465 0.144 0.133 3 
0.468 0.308 0.184 3 
0.464 0.294 0.091 3 
0.468 0.304 0.184 3 
0.468 0.345 0.174 3 
0.464 0.335 0.137 3 
0.467 0.264 0.173 3 
0.466 0.251 0.172 3 
0.464 0.214 0.112 3 
0.467 0.243 0.172 3 
0.467 0.234 0.172 3 
0.467 0.222 0.172 3 
0.256 0.021 0.091 3 
0.467 0.274 0.174 3 
0.467 0.34 0.174 3 
0.467 0.333 0.173 3 
0.466 0.322 0.172 3 
0.467 0.313 0.172 3 
0.255 0.001 0.09 3 
0.464 0.102 0.082 3 
0.465 0.179 0.164 3 
0.465 0.174 0.164 3 
0.468 0.094 0.172 3 
0.467 0.172 0.173 3 
0.467 0.164 0.173 3 
0.467 0.143 0.172 3 
0.468 0.133 0.173 3 
0.468 0.124 0.173 3 
0.468 0.113 0.172 3 
0.468 0.102 0.172 3 
0.465 0.144 0.122 3 
0.469 0.212 0.184 3 
0.468 0.083 0.172 3 
0.465 0.102 0.044 3 
0.462 0.213 0.014 3 
0.463 0.244 0.104 3 
0.304 -0.012 0.024 3 
0.466 0.302 0.174 3 
0.467 0.293 0.174 3 
0.469 0.133 0.187 3 
0.469 0.203 0.189 3 
0.469 0.194 0.189 3 
0.47 0.183 0.189 3 
0.47 0.174 0.189 3 
0.47 0.163 0.189 3 
0.469 0.154 0.188 3 
0.464 0.284 0.093 3 
0.47 0.142 0.188 3 
0.469 0.212 0.189 3 
0.47 0.122 0.187 3 
0.472 0.112 0.188 3 
0.467 0.283 0.174 3 
0.472 0.103 0.188 3 
0.464 0.076 0.162 3 
0.471 0.092 0.187 3 
0.471 0.084 0.187 3 
0.266 0.024 0.1 3 
0.472 0.292 0.194 3 
0.473 0.353 0.198 3 
0.464 0.143 0.084 3 
0.472 0.341 0.197 3 
0.471 0.333 0.196 3 
0.469 0.319 0.194 3 
0.47 0.314 0.194 3 
0.471 0.301 0.194 3 
0.464 0.183 0.114 3 
0.253 0.02 0.095 3 
0.471 0.282 0.193 3 
0.47 0.274 0.192 3 
0.469 0.264 0.191 3 
0.469 0.254 0.191 3 
0.469 0.242 0.19 3 
0.469 0.233 0.19 3 
0.47 0.222 0.19 3 
0.287 -0.01 0.108 3 
0.469 0.144 0.184 3 
0.47 0.122 0.184 3 
0.47 0.111 0.184 3 
0.47 0.103 0.184 3 
0.47 0.094 0.184 3 
0.47 0.083 0.184 3 
0.27 0.025 0.101 3 
0.255 0.021 0.095 3 
0.471 0.332 0.193 3 
0.474 0.358 0.193 3 
0.468 0.152 0.173 3 
0.468 0.247 0.184 3 
0.468 0.244 0.184 3 
0.469 0.233 0.184 3 
0.469 0.224 0.184 3 
0.464 0.081 0.074 3 
0.466 0.134 0.164 3 
0.251 0.019 0.094 3 
0.464 0.252 0.054 3 
0.249 0.014 0.093 3 
0.248 0.004 0.092 3 
0.252 -0.005 0.094 3 
0.26 -0.007 0.097 3 
0.28 -0.009 0.106 3 
0.465 0.312 0.134 3 
0.466 0.162 0.164 3 
0.464 0.094 0.103 3 
0.469 0.339 0.183 3 
0.464 0.262 0.063 3 
0.463 0.322 0.054 3 
0.462 0.313 0.014 3 
0.472 0.348 0.194 3 
0.471 0.344 0.194 3 
0.466 0.093 0.144 3 
0.464 0.246 0.146 3 
0.465 0.161 0.144 3 
0.466 0.142 0.144 3 
0.465 0.133 0.144 3 
0.465 0.122 0.144 3 
0.465 0.114 0.144 3 
0.466 0.104 0.144 3 
0.276 -0.008 0.09 3 
0.466 0.084 0.144 3 
0.464 0.163 0.063 3 
0.463 0.073 0.143 3 
0.465 0.277 0.144 3 
0.465 0.274 0.144 3 
0.465 0.147 0.063 3 
0.465 0.262 0.144 3 
0.464 0.243 0.143 3 
0.47 0.349 0.154 3 
0.466 0.263 0.153 3 
0.465 0.253 0.152 3 
0.465 0.244 0.152 3 
0.464 0.24 0.152 3 
0.465 0.178 0.084 3 
0.463 0.332 0.062 3 
0.464 0.279 0.13 3 
0.461 0.244 0.013 3 
0.462 0.232 0.142 3 
0.468 0.343 0.153 3 
0.469 0.334 0.153 3 
0.467 0.322 0.152 3 
0.257 0.02 0.084 3 
0.257 0.014 0.084 3 
0.464 0.183 0.093 3 
0.257 0.003 0.084 3 
0.265 0.022 0.083 3 
0.466 0.32 0.143 3 
0.466 0.313 0.143 3 
0.465 0.303 0.142 3 
0.265 -0.006 0.084 3 
0.465 0.144 0.114 3 
0.464 0.086 0.135 3 
0.445 0.066 0.13 3 
0.468 0.333 0.144 3 
0.464 0.203 0.093 3 
0.464 0.328 0.137 3 
0.464 0.273 0.135 3 
0.464 0.264 0.135 3 
0.463 0.236 0.134 3 
0.464 0.254 0.124 3 
0.463 0.233 0.134 3 
0.465 0.153 0.142 3 
0.463 0.224 0.143 3 
0.464 0.213 0.143 3 
0.465 0.208 0.143 3 
0.465 0.202 0.143 3 
0.465 0.193 0.142 3 
0.465 0.181 0.142 3 
0.465 0.173 0.142 3 
0.464 0.166 0.142 3 
0.466 0.282 0.153 3 
0.464 0.076 0.141 3 
0.261 -0.005 0.084 3 
0.285 -0.009 0.091 3 
0.467 0.345 0.144 3 
0.468 0.343 0.144 3 
0.463 0.333 0.123 3 
0.465 0.223 0.163 3 
0.466 0.212 0.163 3 
0.466 0.203 0.163 3 
0.465 0.194 0.162 3 
0.464 0.179 0.161 3 
0.465 0.119 0.122 3 
0.287 0 0.044 3 
0.467 0.329 0.164 3 
0.465 0.232 0.163 3 
0.466 0.321 0.164 3 
0.466 0.314 0.163 3 
0.466 0.301 0.163 3 
0.467 0.292 0.163 3 
0.467 0.283 0.162 3 
0.464 0.237 0.16 3 
0.464 0.234 0.16 3 
0.464 0.187 0.159 3 
0.464 0.291 0.113 3 
0.467 0.154 0.164 3 
0.467 0.143 0.164 3 
0.467 0.124 0.164 3 
0.466 0.112 0.163 3 
0.466 0.104 0.163 3 
0.466 0.093 0.163 3 
0.465 0.082 0.163 3 
0.462 0.073 0.162 3 
0.255 0.009 0.087 3 
0.465 0.105 0.041 3 
0.463 0.282 0.023 3 
0.466 0.266 0.164 3 
0.465 0.262 0.164 3 
0.465 0.274 0.153 3 
0.466 0.254 0.164 3 
0.465 0.244 0.163 3 
0.466 0.112 0.152 3 
0.465 0.179 0.153 3 
0.465 0.173 0.153 3 
0.466 0.162 0.153 3 
0.466 0.154 0.153 3 
0.466 0.142 0.153 3 
0.465 0.122 0.063 3 
0.466 0.134 0.153 3 
0.466 0.123 0.152 3 
0.464 0.184 0.153 3 
0.467 0.104 0.153 3 
0.467 0.093 0.153 3 
0.267 -0.007 0.089 3 
0.464 0.34 0.062 3 
0.466 0.311 0.154 3 
0.467 0.302 0.154 3 
0.467 0.292 0.154 3 
0.464 0.225 0.154 3 
0.468 0.348 0.162 3 
0.468 0.344 0.162 3 
0.464 0.219 0.157 3 
0.465 0.079 0.154 3 
0.464 0.076 0.154 3 
0.461 0.072 0.153 3 
0.463 0.339 0.054 3 
0.465 0.232 0.154 3 
0.463 0.224 0.134 3 
0.464 0.222 0.154 3 
0.464 0.213 0.154 3 
0.464 0.271 0.063 3 
0.465 0.211 0.154 3 
0.466 0.203 0.154 3 
0.465 0.194 0.154 3 
0.464 0.187 0.153 3 
0.465 0.133 0.044 3 
0.459 0.053 0.042 3 
0.464 0.102 0.041 3 
0.465 0.141 0.041 3 
0.303 -0.015 0.024 3 
0.463 0.064 0.044 3 
0.464 0.072 0.044 3 
0.464 0.08 0.044 3 
0.465 0.083 0.044 3 
0.465 0.094 0.044 3 
0.464 0.113 0.044 3 
0.464 0.119 0.044 3 
0.465 0.124 0.044 3 
0.464 0.127 0.044 3 
0.463 0.339 0.034 3 
0.464 0.143 0.044 3 
0.464 0.154 0.044 3 
0.464 0.163 0.044 3 
0.464 0.174 0.044 3 
0.463 0.182 0.044 3 
0.464 0.194 0.044 3 
0.464 0.202 0.043 3 
0.465 0.209 0.043 3 
0.464 0.211 0.043 3 
0.465 0.215 0.043 3 
0.464 0.223 0.043 3 
0.464 0.243 0.043 3 
0.464 0.252 0.043 3 
0.464 0.214 0.032 3 
0.464 0.072 0.034 3 
0.464 0.083 0.033 3 
0.464 0.091 0.033 3 
0.465 0.097 0.033 3 
0.464 0.102 0.033 3 
0.465 0.113 0.033 3 
0.464 0.124 0.033 3 
0.464 0.132 0.033 3 
0.464 0.143 0.033 3 
0.464 0.154 0.033 3 
0.464 0.174 0.033 3 
0.464 0.183 0.033 3 
0.464 0.194 0.033 3 
0.463 0.222 0.024 3 
0.464 0.223 0.032 3 
0.463 0.234 0.032 3 
0.463 0.243 0.032 3 
0.463 0.252 0.032 3 
0.463 0.264 0.032 3 
0.285 -0.003 0.049 3 
0.464 0.088 0.036 3 
0.464 0.283 0.034 3 
0.464 0.293 0.034 3 
0.463 0.301 0.034 3 
0.462 0.314 0.034 3 
0.462 0.324 0.034 3 
0.461 0.333 0.034 3 
0.465 0.212 0.054 3 
0.464 0.124 0.052 3 
0.464 0.132 0.052 3 
0.464 0.143 0.052 3 
0.464 0.163 0.052 3 
0.464 0.174 0.052 3 
0.464 0.271 0.051 3 
0.464 0.28 0.051 3 
0.465 0.287 0.051 3 
0.294 0.016 0.034 3 
0.454 0.052 0.055 3 
0.464 0.194 0.054 3 
0.464 0.2 0.054 3 
0.465 0.203 0.054 3 
0.464 0.113 0.052 3 
0.465 0.218 0.054 3 
0.464 0.223 0.054 3 
0.464 0.232 0.054 3 
0.464 0.262 0.054 3 
0.465 0.272 0.054 3 
0.465 0.284 0.054 3 
0.463 0.293 0.054 3 
0.463 0.302 0.054 3 
0.275 0.014 0.058 3 
0.464 0.132 0.06 3 
0.464 0.154 0.052 3 
0.464 0.243 0.054 3 
0.341 0.055 0.021 3 
0.277 0.004 0.054 3 
0.464 0.262 0.043 3 
0.464 0.274 0.043 3 
0.464 0.283 0.043 3 
0.464 0.293 0.043 3 
0.462 0.304 0.043 3 
0.462 0.311 0.043 3 
0.462 0.321 0.043 3 
0.46 0.332 0.043 3 
0.46 0.335 0.043 3 
0.301 -0.005 0.053 3 
0.464 0.078 0.047 3 
0.465 0.108 0.047 3 
0.465 0.127 0.047 3 
0.461 0.053 0.034 3 
0.276 0.014 0.054 3 
0.278 0.018 0.054 3 
0.465 0.097 0.049 3 
0.464 0.214 0.049 3 
0.342 0.054 0.023 3 
0.285 -0.004 0.055 3 
0.455 0.052 0.052 3 
0.464 0.067 0.052 3 
0.465 0.073 0.052 3 
0.465 0.083 0.052 3 
0.465 0.091 0.052 3 
0.464 0.102 0.052 3 
0.295 0.002 0.034 3 
0.296 0.014 0.032 3 
0.313 0.024 0.028 3 
0.306 -0.004 0.031 3 
0.293 0.014 0.033 3 
0.307 0.03 0.031 3 
0.324 0.038 0.028 3 
0.326 0.04 0.027 3 
0.335 0.044 0.026 3 
0.294 0.003 0.034 3 
0.301 0.022 0.033 3 
0.321 0.028 0.03 3 
0.299 0.033 0.033 3 
0.307 -0.016 0.033 3 
0.298 -0.009 0.035 3 
0.438 0.068 0.011 3 
0.45 0.074 0.009 3 
0.459 0.074 0.013 3 
0.315 0.001 0.02 3 
0.308 0.001 0.024 3 
0.308 0.014 0.024 3 
0.312 0.018 0.023 3 
0.304 -0.015 0.027 3 
0.426 0.077 0 3 
0.357 0.074 0.014 3 
0.46 0.082 0.013 3 
0.326 0.033 0.023 3 
0.356 0.072 0.016 3 
0.346 0.071 0.018 3 
0.341 0.071 0.019 3 
0.349 0.059 0.02 3 
0.359 0.064 0.017 3 
0.463 0.252 0.024 3 
0.463 0.104 0.023 3 
0.464 0.113 0.023 3 
0.464 0.124 0.023 3 
0.463 0.143 0.022 3 
0.463 0.154 0.022 3 
0.464 0.163 0.022 3 
0.463 0.174 0.022 3 
0.463 0.182 0.022 3 
0.285 0.006 0.045 3 
0.291 0.02 0.044 3 
0.464 0.203 0.024 3 
0.463 0.234 0.024 3 
0.463 0.243 0.024 3 
0.464 0.094 0.023 3 
0.463 0.264 0.024 3 
0.463 0.273 0.024 3 
0.463 0.292 0.023 3 
0.463 0.301 0.023 3 
0.463 0.314 0.023 3 
0.462 0.321 0.023 3 
0.462 0.334 0.022 3 
0.463 0.339 0.022 3 
0.465 0.073 0.031 3 
0.465 0.116 0.031 3 
0.301 -0.008 0.034 3 
0.463 0.123 0.012 3 
0.286 0.019 0.048 3 
0.462 0.263 0.013 3 
0.462 0.093 0.012 3 
0.463 0.104 0.012 3 
0.462 0.112 0.012 3 
0.462 0.134 0.014 3 
0.462 0.154 0.014 3 
0.463 0.162 0.014 3 
0.462 0.173 0.014 3 
0.462 0.184 0.014 3 
0.462 0.193 0.014 3 
0.462 0.204 0.014 3 
0.462 0.224 0.013 3 
0.461 0.232 0.013 3 
0.461 0.253 0.013 3 
0.464 0.214 0.074 3 
0.462 0.282 0.012 3 
0.462 0.294 0.012 3 
0.462 0.304 0.012 3 
0.463 0.324 0.014 3 
0.461 0.333 0.014 3 
0.283 0.012 0.044 3 
0.285 0.014 0.044 3 
0.296 0.021 0.042 3 
0.462 0.053 0.023 3 
0.463 0.064 0.023 3 
0.463 0.072 0.023 3 
0.463 0.083 0.023 3 
0.464 0.284 0.063 3 
0.464 0.2 0.063 3 
0.465 0.203 0.063 3 
0.465 0.209 0.063 3 
0.464 0.214 0.063 3 
0.465 0.119 0.052 3 
0.435 0.082 0.007 3 
0.465 0.218 0.063 3 
0.464 0.223 0.063 3 
0.463 0.234 0.063 3 
0.464 0.243 0.063 3 
0.463 0.252 0.063 3 
0.465 0.275 0.063 3 
0.464 0.194 0.063 3 
0.463 0.293 0.062 3 
0.463 0.302 0.062 3 
0.465 0.172 0.068 3 
0.465 0.144 0.068 3 
0.276 0.019 0.061 3 
0.426 0.063 0.013 3 
0.463 0.312 0.062 3 
0.464 0.323 0.062 3 
0.464 0.124 0.065 3 
0.463 0.213 0.024 3 
0.465 0.133 0.063 3 
0.463 0.064 0.063 3 
0.275 -0.002 0.059 3 
0.464 0.067 0.063 3 
0.465 0.073 0.063 3 
0.466 0.081 0.063 3 
0.464 0.083 0.063 3 
0.464 0.091 0.063 3 
0.465 0.094 0.063 3 
0.464 0.102 0.063 3 
0.465 0.108 0.063 3 
0.464 0.113 0.063 3 
0.464 0.124 0.063 3 
0.464 0.223 0.074 3 
0.465 0.136 0.063 3 
0.463 0.162 0.033 3 
0.465 0.073 0.071 3 
0.465 0.103 0.071 3 
0.464 0.177 0.071 3 
0.465 0.206 0.071 3 
0.464 0.143 0.063 3 
0.464 0.174 0.063 3 
0.465 0.177 0.063 3 
0.464 0.182 0.063 3 
0.464 0.143 0.073 3 
0.464 0.073 0.074 3 
0.465 0.084 0.074 3 
0.464 0.094 0.073 3 
0.465 0.122 0.074 3 
0.465 0.114 0.074 3 
0.464 0.11 0.073 3 
0.463 0.064 0.073 3 
0.464 0.13 0.073 3 
0.465 0.133 0.074 3 
0.465 0.152 0.074 3 
0.464 0.154 0.073 3 
0.464 0.163 0.073 3 
0.464 0.171 0.074 3 
0.465 0.183 0.074 3 
0.465 0.192 0.074 3 
0.464 0.194 0.074 3 
0.465 0.2 0.074 3 
0.464 0.203 0.074 3 
0.464 0.102 0.073 3 
0.475 -0.194 0.174 3 
0.472 -0.225 0.072 3 
0.47 -0.175 0.033 3 
0.471 -0.216 0.072 3 
0.469 -0.185 0.033 3 
0.485 -0.351 0.184 3 
0.484 -0.346 0.183 3 
0.483 -0.338 0.182 3 
0.474 -0.217 0.174 3 
0.474 -0.196 0.174 3 
0.467 -0.087 0.012 3 
0.477 -0.237 0.173 3 
0.474 -0.187 0.174 3 
0.473 -0.175 0.173 3 
0.472 -0.157 0.172 3 
0.477 -0.265 0.174 3 
0.476 -0.316 0.073 3 
0.475 -0.306 0.073 3 
0.475 -0.299 0.073 3 
0.474 -0.295 0.072 3 
0.473 -0.285 0.072 3 
0.468 -0.115 0.123 3 
0.473 -0.275 0.072 3 
0.473 -0.266 0.072 3 
0.47 -0.195 0.033 3 
0.476 -0.255 0.173 3 
0.471 -0.207 0.083 3 
0.477 -0.246 0.173 3 
0.469 -0.146 0.033 3 
0.476 -0.23 0.172 3 
0.474 -0.226 0.172 3 
0.472 -0.246 0.072 3 
0.472 -0.237 0.072 3 
0.481 -0.315 0.184 3 
0.469 -0.115 0.033 3 
0.467 -0.115 0.023 3 
0.467 -0.126 0.023 3 
0.468 -0.137 0.023 3 
0.469 -0.146 0.022 3 
0.481 -0.325 0.184 3 
0.468 -0.066 0.153 3 
0.47 -0.186 0.094 3 
0.48 -0.307 0.174 3 
0.481 -0.305 0.183 3 
0.48 -0.297 0.182 3 
0.474 -0.217 0.177 3 
0.474 -0.202 0.177 3 
0.474 -0.187 0.176 3 
0.48 -0.316 0.162 3 
0.468 -0.077 0.153 3 
0.47 -0.155 0.132 3 
0.467 -0.106 0.023 3 
0.467 -0.095 0.023 3 
0.475 -0.265 0.144 3 
0.472 -0.256 0.092 3 
0.468 -0.126 0.033 3 
0.469 -0.135 0.033 3 
0.475 -0.319 0.014 3 
0.467 -0.087 0.023 3 
0.47 -0.158 0.033 3 
0.466 -0.076 0.023 3 
0.466 -0.055 0.023 3 
0.473 -0.256 0.072 3 
0.465 -0.047 0.023 3 
0.465 -0.041 0.023 3 
0.471 -0.207 0.072 3 
0.477 -0.355 0.094 3 
0.474 -0.295 0.093 3 
0.475 -0.3 0.093 3 
0.477 -0.287 0.163 3 
0.476 -0.307 0.093 3 
0.474 -0.356 0.011 3 
0.478 -0.298 0.164 3 
0.477 -0.315 0.093 3 
0.478 -0.326 0.093 3 
0.478 -0.336 0.094 3 
0.48 -0.348 0.094 3 
0.474 -0.356 0.026 3 
0.483 -0.348 0.174 3 
0.481 -0.339 0.173 3 
0.479 -0.305 0.164 3 
0.473 -0.275 0.092 3 
0.473 -0.175 0.164 3 
0.475 -0.223 0.166 3 
0.473 -0.166 0.164 3 
0.473 -0.275 0.084 3 
0.471 -0.156 0.163 3 
0.479 -0.356 0.133 3 
0.472 -0.256 0.044 3 
0.475 -0.289 0.029 3 
0.481 -0.357 0.17 3 
0.474 -0.253 0.161 3 
0.475 -0.257 0.164 3 
0.476 -0.245 0.164 3 
0.475 -0.235 0.163 3 
0.475 -0.226 0.163 3 
0.476 -0.267 0.162 3 
0.478 -0.278 0.163 3 
0.473 -0.287 0.012 3 
0.471 -0.145 0.163 3 
0.475 -0.223 0.163 3 
0.473 -0.216 0.163 3 
0.47 -0.166 0.033 3 
0.472 -0.206 0.162 3 
0.472 -0.195 0.162 3 
0.466 -0.044 0.044 3 
0.473 -0.256 0.052 3 
0.469 -0.105 0.104 3 
0.472 -0.186 0.161 3 
0.469 -0.075 0.164 3 
0.469 -0.166 0.022 3 
0.479 -0.326 0.174 3 
0.48 -0.317 0.174 3 
0.479 -0.296 0.173 3 
0.478 -0.288 0.172 3 
0.478 -0.275 0.172 3 
0.476 -0.306 0.023 3 
0.469 -0.108 0.164 3 
0.475 -0.315 0.023 3 
0.469 -0.102 0.164 3 
0.475 -0.286 0.024 3 
0.471 -0.216 0.033 3 
0.476 -0.327 0.023 3 
0.47 -0.067 0.164 3 
0.473 -0.226 0.033 3 
0.478 -0.336 0.023 3 
0.478 -0.346 0.022 3 
0.476 -0.355 0.022 3 
0.479 -0.347 0.073 3 
0.464 -0.046 0.031 3 
0.473 -0.278 0.032 3 
0.481 -0.357 0.164 3 
0.472 -0.137 0.163 3 
0.471 -0.125 0.163 3 
0.47 -0.116 0.162 3 
0.47 -0.086 0.162 3 
0.473 -0.266 0.092 3 
0.477 -0.307 0.032 3 
0.477 -0.355 0.073 3 
0.475 -0.295 0.032 3 
0.474 -0.285 0.032 3 
0.479 -0.336 0.073 3 
0.472 -0.265 0.033 3 
0.472 -0.247 0.033 3 
0.473 -0.235 0.033 3 
0.474 -0.305 0.003 3 
0.471 -0.222 0.024 3 
0.472 -0.226 0.024 3 
0.472 -0.256 0.024 3 
0.473 -0.265 0.024 3 
0.473 -0.275 0.024 3 
0.467 -0.047 0.074 3 
0.469 -0.146 0.093 3 
0.47 -0.166 0.083 3 
0.471 -0.175 0.083 3 
0.47 -0.186 0.083 3 
0.485 -0.345 0.202 3 
0.485 -0.338 0.202 3 
0.474 -0.205 0.174 3 
0.484 -0.333 0.201 3 
0.485 -0.327 0.201 3 
0.471 -0.216 0.044 3 
0.483 -0.318 0.2 3 
0.469 -0.157 0.082 3 
0.482 -0.307 0.199 3 
0.481 -0.295 0.198 3 
0.479 -0.287 0.196 3 
0.47 -0.195 0.083 3 
0.479 -0.277 0.196 3 
0.479 -0.267 0.196 3 
0.478 -0.257 0.195 3 
0.466 -0.076 0.004 3 
0.477 -0.248 0.194 3 
0.478 -0.245 0.195 3 
0.478 -0.236 0.194 3 
0.474 -0.199 0.188 3 
0.466 -0.117 0.012 3 
0.475 -0.312 0.009 3 
0.467 -0.077 0.082 3 
0.468 -0.085 0.082 3 
0.464 -0.07 0.01 3 
0.484 -0.336 0.198 3 
0.48 -0.288 0.194 3 
0.478 -0.276 0.193 3 
0.477 -0.266 0.192 3 
0.467 -0.077 0.074 3 
0.477 -0.256 0.191 3 
0.478 -0.227 0.194 3 
0.473 -0.135 0.186 3 
0.474 -0.127 0.186 3 
0.464 -0.076 0.01 3 
0.468 -0.096 0.082 3 
0.468 -0.107 0.082 3 
0.468 -0.115 0.082 3 
0.468 -0.126 0.082 3 
0.466 -0.055 0.074 3 
0.469 -0.135 0.082 3 
0.468 -0.107 0.134 3 
0.47 -0.146 0.083 3 
0.474 -0.286 0.084 3 
0.475 -0.076 0.189 3 
0.466 -0.125 0.012 3 
0.475 -0.074 0.189 3 
0.468 -0.146 0.003 3 
0.469 -0.155 0.003 3 
0.47 -0.166 0.003 3 
0.47 -0.175 0.003 3 
0.471 -0.216 0.083 3 
0.472 -0.225 0.083 3 
0.472 -0.237 0.083 3 
0.472 -0.265 0.084 3 
0.468 -0.137 0.004 3 
0.475 -0.29 0.084 3 
0.475 -0.296 0.084 3 
0.476 -0.317 0.084 3 
0.453 -0.073 0.004 3 
0.478 -0.325 0.082 3 
0.479 -0.336 0.082 3 
0.479 -0.347 0.082 3 
0.478 -0.356 0.082 3 
0.475 -0.296 0.023 3 
0.474 -0.288 0.044 3 
0.477 -0.295 0.122 3 
0.479 -0.317 0.102 3 
0.478 -0.217 0.193 3 
0.472 -0.126 0.174 3 
0.476 -0.207 0.192 3 
0.476 -0.195 0.192 3 
0.477 -0.187 0.192 3 
0.477 -0.178 0.192 3 
0.467 -0.066 0.074 3 
0.477 -0.166 0.191 3 
0.469 -0.085 0.004 3 
0.477 -0.157 0.191 3 
0.477 -0.145 0.191 3 
0.467 -0.106 0.012 3 
0.468 -0.107 0.004 3 
0.476 -0.136 0.19 3 
0.475 -0.127 0.19 3 
0.474 -0.115 0.189 3 
0.474 -0.107 0.189 3 
0.475 -0.102 0.189 3 
0.474 -0.096 0.189 3 
0.474 -0.087 0.188 3 
0.468 -0.115 0.004 3 
0.474 -0.082 0.188 3 
0.47 -0.155 0.074 3 
0.485 -0.333 0.189 3 
0.47 -0.186 0.074 3 
0.479 -0.286 0.184 3 
0.478 -0.276 0.184 3 
0.477 -0.268 0.183 3 
0.476 -0.255 0.182 3 
0.47 -0.166 0.074 3 
0.477 -0.246 0.182 3 
0.477 -0.235 0.182 3 
0.476 -0.228 0.181 3 
0.475 -0.182 0.18 3 
0.471 -0.195 0.052 3 
0.47 -0.146 0.074 3 
0.469 -0.135 0.074 3 
0.486 -0.345 0.193 3 
0.485 -0.341 0.193 3 
0.483 -0.335 0.192 3 
0.47 -0.177 0.074 3 
0.475 -0.215 0.183 3 
0.474 -0.208 0.183 3 
0.468 -0.126 0.074 3 
0.475 -0.206 0.183 3 
0.468 -0.115 0.074 3 
0.471 -0.207 0.022 3 
0.471 -0.137 0.174 3 
0.471 -0.117 0.174 3 
0.469 -0.157 0.022 3 
0.471 -0.106 0.174 3 
0.471 -0.095 0.173 3 
0.471 -0.086 0.173 3 
0.471 -0.075 0.173 3 
0.469 -0.177 0.022 3 
0.469 -0.186 0.022 3 
0.471 -0.07 0.173 3 
0.47 -0.195 0.022 3 
0.476 -0.195 0.183 3 
0.474 -0.285 0.018 3 
0.474 -0.301 0.018 3 
0.474 -0.305 0.018 3 
0.468 -0.096 0.142 3 
0.471 -0.195 0.072 3 
0.475 -0.253 0.15 3 
0.464 -0.039 0.018 3 
0.477 -0.328 0.014 3 
0.476 -0.337 0.014 3 
0.478 -0.346 0.013 3 
0.475 -0.357 0.014 3 
0.471 -0.246 0.013 3 
0.47 -0.236 0.013 3 
0.474 -0.147 0.184 3 
0.473 -0.135 0.183 3 
0.473 -0.126 0.183 3 
0.472 -0.115 0.182 3 
0.472 -0.106 0.182 3 
0.473 -0.095 0.183 3 
0.473 -0.087 0.182 3 
0.474 -0.076 0.183 3 
0.475 -0.071 0.183 3 
0.475 -0.278 0.124 3 
0.47 -0.227 0.013 3 
0.472 -0.255 0.013 3 
0.473 -0.278 0.012 3 
0.474 -0.305 0.012 3 
0.47 -0.136 0.143 3 
0.473 -0.166 0.173 3 
0.474 -0.315 0.012 3 
0.467 -0.05 0.082 3 
0.467 -0.055 0.082 3 
0.467 -0.066 0.082 3 
0.465 -0.065 0.012 3 
0.467 -0.077 0.012 3 
0.468 -0.185 0.014 3 
0.475 -0.185 0.182 3 
0.468 -0.107 0.074 3 
0.474 -0.176 0.182 3 
0.473 -0.07 0.179 3 
0.468 -0.096 0.074 3 
0.468 -0.085 0.074 3 
0.471 -0.225 0.052 3 
0.468 -0.151 0.014 3 
0.468 -0.157 0.014 3 
0.468 -0.165 0.014 3 
0.468 -0.176 0.014 3 
0.471 -0.148 0.174 3 
0.469 -0.197 0.014 3 
0.484 -0.326 0.194 3 
0.483 -0.318 0.194 3 
0.483 -0.307 0.193 3 
0.47 -0.215 0.014 3 
0.481 -0.295 0.192 3 
0.466 -0.047 0.044 3 
0.474 -0.211 0.186 3 
0.474 -0.167 0.184 3 
0.474 -0.155 0.184 3 
0.473 -0.266 0.052 3 
0.473 -0.236 0.123 3 
0.473 -0.226 0.123 3 
0.473 -0.215 0.123 3 
0.473 -0.206 0.122 3 
0.472 -0.196 0.122 3 
0.47 -0.177 0.052 3 
0.47 -0.186 0.052 3 
0.471 -0.207 0.052 3 
0.471 -0.216 0.052 3 
0.473 -0.235 0.052 3 
0.473 -0.247 0.052 3 
0.469 -0.165 0.052 3 
0.47 -0.175 0.124 3 
0.47 -0.167 0.124 3 
0.469 -0.146 0.124 3 
0.469 -0.135 0.124 3 
0.469 -0.127 0.123 3 
0.468 -0.107 0.123 3 
0.475 -0.287 0.087 3 
0.468 -0.096 0.123 3 
0.468 -0.085 0.123 3 
0.468 -0.077 0.123 3 
0.479 -0.335 0.124 3 
0.466 -0.055 0.052 3 
0.466 -0.066 0.052 3 
0.474 -0.276 0.104 3 
0.466 -0.076 0.052 3 
0.467 -0.085 0.052 3 
0.467 -0.096 0.052 3 
0.469 -0.107 0.052 3 
0.468 -0.115 0.052 3 
0.469 -0.126 0.052 3 
0.479 -0.356 0.124 3 
0.479 -0.345 0.124 3 
0.468 -0.066 0.123 3 
0.479 -0.328 0.123 3 
0.479 -0.317 0.123 3 
0.477 -0.305 0.122 3 
0.476 -0.285 0.122 3 
0.47 -0.135 0.052 3 
0.47 -0.146 0.052 3 
0.466 -0.066 0.023 3 
0.47 -0.155 0.052 3 
0.475 -0.268 0.124 3 
0.473 -0.245 0.123 3 
0.478 -0.346 0.064 3 
0.48 -0.326 0.132 3 
0.48 -0.319 0.132 3 
0.479 -0.308 0.132 3 
0.474 -0.258 0.129 3 
0.466 -0.095 0.012 3 
0.479 -0.345 0.103 3 
0.478 -0.357 0.103 3 
0.477 -0.296 0.134 3 
0.477 -0.286 0.134 3 
0.468 -0.085 0.153 3 
0.47 -0.166 0.044 3 
0.472 -0.277 0.044 3 
0.475 -0.265 0.133 3 
0.475 -0.256 0.132 3 
0.475 -0.25 0.132 3 
0.474 -0.246 0.132 3 
0.474 -0.325 0.011 3 
0.467 -0.066 0.063 3 
0.466 -0.066 0.044 3 
0.474 -0.286 0.092 3 
0.466 -0.055 0.063 3 
0.466 -0.047 0.063 3 
0.475 -0.287 0.104 3 
0.467 -0.06 0.122 3 
0.472 -0.277 0.052 3 
0.473 -0.285 0.052 3 
0.475 -0.295 0.052 3 
0.476 -0.306 0.052 3 
0.476 -0.316 0.052 3 
0.477 -0.327 0.052 3 
0.478 -0.339 0.052 3 
0.477 -0.355 0.052 3 
0.475 -0.28 0.104 3 
0.467 -0.047 0.052 3 
0.476 -0.297 0.104 3 
0.468 -0.096 0.063 3 
0.467 -0.085 0.063 3 
0.475 -0.292 0.049 3 
0.467 -0.077 0.063 3 
0.477 -0.308 0.102 3 
0.479 -0.327 0.102 3 
0.478 -0.337 0.103 3 
0.48 -0.347 0.133 3 
0.48 -0.336 0.133 3 
0.477 -0.305 0.114 3 
0.468 -0.135 0.104 3 
0.466 -0.044 0.058 3 
0.473 -0.235 0.024 3 
0.469 -0.146 0.104 3 
0.478 -0.355 0.112 3 
0.472 -0.247 0.024 3 
0.479 -0.345 0.112 3 
0.474 -0.276 0.11 3 
0.472 -0.246 0.083 3 
0.479 -0.327 0.114 3 
0.478 -0.316 0.114 3 
0.468 -0.126 0.104 3 
0.477 -0.299 0.113 3 
0.476 -0.285 0.113 3 
0.475 -0.277 0.113 3 
0.473 -0.266 0.112 3 
0.473 -0.257 0.112 3 
0.473 -0.248 0.112 3 
0.471 -0.216 0.064 3 
0.471 -0.207 0.064 3 
0.475 -0.292 0.044 3 
0.471 -0.195 0.063 3 
0.47 -0.097 0.003 3 
0.468 -0.085 0.104 3 
0.467 -0.077 0.104 3 
0.466 -0.066 0.103 3 
0.466 -0.057 0.103 3 
0.473 -0.247 0.064 3 
0.468 -0.096 0.104 3 
0.473 -0.256 0.064 3 
0.473 -0.266 0.064 3 
0.473 -0.275 0.064 3 
0.473 -0.285 0.064 3 
0.47 -0.206 0.033 3 
0.474 -0.298 0.064 3 
0.475 -0.303 0.064 3 
0.468 -0.115 0.104 3 
0.476 -0.306 0.064 3 
0.477 -0.317 0.064 3 
0.477 -0.327 0.064 3 
0.478 -0.335 0.064 3 
0.477 -0.327 0.073 3 
0.477 -0.355 0.064 3 
0.472 -0.225 0.064 3 
0.467 -0.077 0.114 3 
0.468 -0.126 0.063 3 
0.477 -0.345 0.052 3 
0.468 -0.115 0.063 3 
0.468 -0.107 0.063 3 
0.471 -0.155 0.102 3 
0.471 -0.167 0.102 3 
0.471 -0.175 0.102 3 
0.471 -0.187 0.102 3 
0.472 -0.196 0.102 3 
0.466 -0.066 0.034 3 
0.467 -0.085 0.114 3 
0.469 -0.135 0.063 3 
0.467 -0.066 0.114 3 
0.468 -0.061 0.114 3 
0.472 -0.205 0.103 3 
0.471 -0.216 0.103 3 
0.471 -0.225 0.103 3 
0.473 -0.235 0.103 3 
0.474 -0.245 0.103 3 
0.473 -0.257 0.103 3 
0.473 -0.266 0.104 3 
0.466 -0.044 0.052 3 
0.472 -0.187 0.114 3 
0.471 -0.187 0.063 3 
0.472 -0.235 0.114 3 
0.472 -0.226 0.114 3 
0.472 -0.217 0.114 3 
0.472 -0.205 0.114 3 
0.472 -0.196 0.114 3 
0.471 -0.175 0.113 3 
0.471 -0.167 0.113 3 
0.469 -0.155 0.113 3 
0.469 -0.146 0.113 3 
0.475 -0.275 0.133 3 
0.468 -0.135 0.112 3 
0.469 -0.127 0.112 3 
0.467 -0.115 0.112 3 
0.468 -0.107 0.112 3 
0.469 -0.096 0.112 3 
0.471 -0.175 0.063 3 
0.47 -0.166 0.063 3 
0.47 -0.155 0.063 3 
0.47 -0.146 0.063 3 
0.474 -0.255 0.123 3 
0.479 -0.295 0.152 3 
0.468 -0.072 0.144 3 
0.468 -0.063 0.144 3 
0.478 -0.332 0.034 3 
0.479 -0.336 0.034 3 
0.478 -0.346 0.034 3 
0.474 -0.315 0.015 3 
0.477 -0.355 0.034 3 
0.468 -0.085 0.093 3 
0.468 -0.096 0.093 3 
0.479 -0.305 0.152 3 
0.468 -0.107 0.093 3 
0.468 -0.115 0.093 3 
0.467 -0.126 0.093 3 
0.478 -0.288 0.154 3 
0.477 -0.277 0.154 3 
0.475 -0.266 0.153 3 
0.475 -0.256 0.153 3 
0.474 -0.246 0.152 3 
0.472 -0.265 0.013 3 
0.468 -0.085 0.142 3 
0.481 -0.345 0.151 3 
0.471 -0.197 0.144 3 
0.471 -0.185 0.144 3 
0.469 -0.175 0.143 3 
0.47 -0.167 0.144 3 
0.47 -0.156 0.143 3 
0.47 -0.147 0.143 3 
0.47 -0.125 0.143 3 
0.469 -0.116 0.142 3 
0.468 -0.107 0.142 3 
0.475 -0.241 0.152 3 
0.468 -0.077 0.142 3 
0.472 -0.256 0.083 3 
0.47 -0.155 0.124 3 
0.468 -0.055 0.093 3 
0.466 -0.066 0.093 3 
0.467 -0.077 0.093 3 
0.48 -0.337 0.154 3 
0.48 -0.326 0.153 3 
0.48 -0.316 0.153 3 
0.473 -0.235 0.064 3 
0.473 -0.235 0.092 3 
0.466 -0.041 0.034 3 
0.466 -0.047 0.034 3 
0.467 -0.077 0.034 3 
0.467 -0.085 0.034 3 
0.468 -0.096 0.034 3 
0.469 -0.107 0.033 3 
0.483 -0.348 0.164 3 
0.481 -0.338 0.163 3 
0.48 -0.327 0.163 3 
0.467 -0.137 0.012 3 
0.474 -0.24 0.158 3 
0.47 -0.147 0.154 3 
0.468 -0.126 0.004 3 
0.471 -0.136 0.154 3 
0.47 -0.125 0.154 3 
0.469 -0.116 0.154 3 
0.468 -0.107 0.153 3 
0.472 -0.247 0.092 3 
0.468 -0.096 0.153 3 
0.474 -0.225 0.154 3 
0.474 -0.237 0.152 3 
0.468 -0.135 0.093 3 
0.47 -0.155 0.094 3 
0.471 -0.167 0.094 3 
0.471 -0.175 0.094 3 
0.471 -0.195 0.094 3 
0.472 -0.205 0.094 3 
0.471 -0.216 0.094 3 
0.472 -0.225 0.094 3 
0.472 -0.226 0.134 3 
0.473 -0.215 0.154 3 
0.472 -0.206 0.153 3 
0.471 -0.197 0.153 3 
0.471 -0.185 0.153 3 
0.471 -0.176 0.152 3 
0.471 -0.165 0.152 3 
0.472 -0.256 0.033 3 
0.47 -0.156 0.152 3 
0.472 -0.064 0.151 3 
0.469 -0.126 0.044 3 
0.468 -0.077 0.134 3 
0.468 -0.066 0.133 3 
0.468 -0.063 0.133 3 
0.474 -0.295 0.012 3 
0.465 -0.055 0.044 3 
0.467 -0.077 0.044 3 
0.467 -0.087 0.044 3 
0.469 -0.096 0.044 3 
0.474 -0.267 0.121 3 
0.469 -0.115 0.044 3 
0.469 -0.085 0.134 3 
0.469 -0.135 0.044 3 
0.47 -0.146 0.044 3 
0.47 -0.175 0.044 3 
0.47 -0.186 0.044 3 
0.471 -0.195 0.044 3 
0.471 -0.207 0.044 3 
0.479 -0.325 0.144 3 
0.479 -0.315 0.144 3 
0.479 -0.305 0.143 3 
0.472 -0.225 0.044 3 
0.465 -0.055 0.034 3 
0.473 -0.236 0.134 3 
0.473 -0.215 0.134 3 
0.473 -0.206 0.134 3 
0.472 -0.196 0.133 3 
0.471 -0.185 0.133 3 
0.47 -0.175 0.133 3 
0.47 -0.167 0.132 3 
0.47 -0.147 0.132 3 
0.469 -0.135 0.132 3 
0.474 -0.286 0.098 3 
0.469 -0.107 0.044 3 
0.476 -0.307 0.084 3 
0.48 -0.358 0.143 3 
0.481 -0.345 0.142 3 
0.48 -0.336 0.142 3 
0.474 -0.249 0.138 3 
0.477 -0.317 0.032 3 
0.469 -0.127 0.134 3 
0.468 -0.115 0.134 3 
0.468 -0.096 0.134 3 
0.475 -0.275 0.144 3 
0.475 -0.295 0.044 3 
0.472 -0.217 0.142 3 
0.473 -0.227 0.143 3 
0.472 -0.205 0.142 3 
0.472 -0.265 0.044 3 
0.476 -0.306 0.044 3 
0.476 -0.316 0.043 3 
0.477 -0.327 0.043 3 
0.474 -0.237 0.143 3 
0.475 -0.244 0.144 3 
0.478 -0.335 0.043 3 
0.475 -0.247 0.144 3 
0.475 -0.256 0.144 3 
0.478 -0.346 0.043 3 
0.472 -0.247 0.044 3 
0.478 -0.356 0.043 3 
0.472 -0.237 0.044 3 
0.477 -0.286 0.142 3 
0.47 -0.207 0.014 3 
0.478 -0.297 0.143 3 
0.47 -0.155 0.044 3 
0.472 -0.185 0.122 3 
0.478 -0.337 0.111 3 
0.48 -0.355 0.152 3 
0.344 -0.01 0.018 7 
0.353 -0.046 0.021 7 
0.349 -0.009 0.017 7 
0.351 -0.044 0.019 7 
0.352 -0.026 0.021 7 
0.313 -0.007 0.032 7 
0.34 -0.022 0.025 7 
0.334 -0.022 0.024 7 
0.316 -0.006 0.032 7 
0.331 -0.017 0.031 7 
0.324 -0.015 0.032 7 
0.314 -0.01 0.024 7 
0.356 -0.045 0.02 7 
0.336 -0.033 0.024 7 
0.333 -0.029 0.025 7 
0.323 -0.006 0.048 7 
