# .PCD v0.7 - Point Cloud Data file
FIELDS x y z intensity
SIZE 4 4 4 4
TYPE F F F F
COUNT 1 1 1 1
WIDTH 2437
HEIGHT 1
VIEWPOINT 0 0 0 1 0 0 0
POINTS 2437
DATA ascii
0.355 0.014 0.002 0 
0.353 0.003 0.004 0 
0.355 0.003 0.002 0 
0.354 0.013 0.004 0 
0.373 -0.24 -0.025 1 
0.371 -0.235 -0.024 1 
0.371 -0.225 -0.024 1 
0.364 -0.161 -0.019 1 
0.363 -0.135 -0.017 1 
0.364 -0.126 -0.017 1 
0.36 -0.062 -0.015 1 
0.36 -0.037 -0.015 1 
0.36 -0.036 -0.014 1 
0.359 -0.027 -0.014 1 
0.36 -0.023 -0.015 1 
0.354 0.017 -0.013 1 
0.359 0.024 -0.015 1 
0.354 0.082 -0.013 1 
0.352 0.114 -0.014 1 
0.35 0.124 -0.013 1 
0.35 0.163 -0.015 1 
0.347 0.167 -0.014 1 
0.377 -0.237 -0.024 1 
0.373 -0.198 -0.021 1 
0.369 -0.186 -0.019 1 
0.368 -0.175 -0.019 1 
0.372 -0.147 -0.019 1 
0.363 -0.085 -0.014 1 
0.365 -0.063 -0.015 1 
0.362 -0.055 -0.014 1 
0.364 -0.026 -0.015 1 
0.363 0.025 -0.014 1 
0.364 0.034 -0.015 1 
0.362 0.044 -0.014 1 
0.363 0.052 -0.015 1 
0.362 0.071 -0.014 1 
0.363 0.073 -0.015 1 
0.362 0.076 -0.015 1 
0.359 0.084 -0.014 1 
0.36 0.092 -0.014 1 
0.361 0.094 -0.015 1 
0.361 0.098 -0.015 1 
0.354 0.13 -0.013 1 
0.353 0.174 -0.015 1 
0.354 0.183 -0.016 1 
0.352 0.204 -0.016 1 
0.351 0.211 -0.016 1 
0.352 0.215 -0.017 1 
0.384 -0.255 -0.026 1 
0.384 -0.247 -0.025 1 
0.384 -0.234 -0.024 1 
0.386 -0.231 -0.025 1 
0.374 -0.136 -0.018 1 
0.374 -0.126 -0.017 1 
0.374 -0.116 -0.017 1 
0.369 -0.095 -0.015 1 
0.368 -0.087 -0.014 1 
0.373 -0.075 -0.016 1 
0.371 -0.045 -0.015 1 
0.373 -0.036 -0.016 1 
0.371 -0.028 -0.015 1 
0.365 0.107 -0.014 1 
0.362 0.113 -0.014 1 
0.364 0.122 -0.014 1 
0.364 0.124 -0.015 1 
0.364 0.126 -0.015 1 
0.364 0.153 -0.015 1 
0.359 0.173 -0.015 1 
0.36 0.193 -0.016 1 
0.389 -0.245 -0.024 1 
0.382 -0.205 -0.021 1 
0.379 -0.165 -0.018 1 
0.383 -0.157 -0.019 1 
0.374 -0.091 -0.015 1 
0.373 -0.066 -0.014 1 
0.375 -0.046 -0.014 1 
0.376 -0.035 -0.015 1 
0.373 -0.025 -0.014 1 
0.373 -0.016 -0.014 1 
0.365 -0.004 -0.011 1 
0.374 0.028 -0.014 1 
0.374 0.054 -0.015 1 
0.373 0.073 -0.015 1 
0.372 0.082 -0.014 1 
0.373 0.084 -0.015 1 
0.374 0.104 -0.016 1 
0.371 0.124 -0.015 1 
0.369 0.133 -0.015 1 
0.367 0.141 -0.014 1 
0.373 0.164 -0.017 1 
0.363 0.204 -0.016 1 
0.393 -0.265 -0.025 1 
0.393 -0.262 -0.025 1 
0.392 -0.228 -0.022 1 
0.384 -0.126 -0.017 1 
0.384 -0.12 -0.017 1 
0.382 -0.105 -0.016 1 
0.379 -0.097 -0.015 1 
0.378 -0.095 -0.014 1 
0.379 -0.093 -0.014 1 
0.383 -0.075 -0.016 1 
0.379 -0.066 -0.014 1 
0.38 -0.059 -0.014 1 
0.383 -0.055 -0.015 1 
0.381 -0.045 -0.015 1 
0.379 -0.035 -0.014 1 
0.379 -0.026 -0.014 1 
0.353 0.003 -0.005 1 
0.354 0.008 -0.006 1 
0.363 0.016 -0.009 1 
0.38 0.039 -0.015 1 
0.378 0.044 -0.014 1 
0.379 0.054 -0.015 1 
0.379 0.103 -0.015 1 
0.374 0.144 -0.015 1 
0.369 0.182 -0.015 1 
0.374 0.193 -0.017 1 
0.363 0.22 -0.015 1 
0.373 0.048 -0.014 1 
0.401 -0.255 -0.024 1 
0.391 -0.215 -0.02 1 
0.392 -0.195 -0.019 1 
0.39 -0.186 -0.018 1 
0.391 -0.156 -0.018 1 
0.39 -0.125 -0.017 1 
0.391 -0.107 -0.017 1 
0.388 -0.075 -0.015 1 
0.386 -0.068 -0.014 1 
0.391 -0.055 -0.016 1 
0.386 -0.046 -0.014 1 
0.387 -0.035 -0.015 1 
0.387 -0.029 -0.015 1 
0.383 -0.015 -0.014 1 
0.373 -0.005 -0.01 1 
0.356 -0.001 -0.005 1 
0.384 0.027 -0.014 1 
0.386 0.034 -0.015 1 
0.384 0.051 -0.014 1 
0.385 0.053 -0.015 1 
0.383 0.073 -0.014 1 
0.383 0.075 -0.014 1 
0.384 0.077 -0.015 1 
0.384 0.113 -0.015 1 
0.382 0.118 -0.015 1 
0.38 0.144 -0.015 1 
0.379 0.145 -0.014 1 
0.379 0.154 -0.015 1 
0.382 0.164 -0.016 1 
0.371 0.224 -0.015 1 
0.403 -0.271 -0.023 1 
0.382 -0.215 -0.021 1 
0.401 -0.226 -0.021 1 
0.394 -0.211 -0.018 1 
0.393 -0.118 -0.015 1 
0.394 -0.091 -0.015 1 
0.393 -0.068 -0.015 1 
0.393 -0.046 -0.015 1 
0.393 -0.035 -0.014 1 
0.391 -0.025 -0.014 1 
0.391 0.053 -0.014 1 
0.389 0.064 -0.014 1 
0.39 0.075 -0.014 1 
0.393 0.082 -0.015 1 
0.391 0.094 -0.015 1 
0.392 0.103 -0.016 1 
0.388 0.119 -0.015 1 
0.387 0.123 -0.014 1 
0.388 0.134 -0.015 1 
0.385 0.151 -0.014 1 
0.384 0.155 -0.014 1 
0.41 -0.267 -0.023 1 
0.412 -0.258 -0.023 1 
0.412 -0.245 -0.022 1 
0.4 -0.206 -0.018 1 
0.403 -0.195 -0.018 1 
0.402 -0.148 -0.017 1 
0.401 -0.136 -0.016 1 
0.403 -0.106 -0.016 1 
0.398 -0.095 -0.014 1 
0.398 -0.093 -0.014 1 
0.401 -0.077 -0.015 1 
0.4 -0.066 -0.015 1 
0.403 -0.056 -0.016 1 
0.401 -0.049 -0.015 1 
0.399 -0.045 -0.014 1 
0.383 -0.005 -0.01 1 
0.352 0.142 -0.014 1 
0.377 0.017 -0.008 1 
0.394 0.037 -0.013 1 
0.394 0.072 -0.014 1 
0.396 0.094 -0.015 1 
0.392 0.137 -0.014 1 
0.394 0.144 -0.015 1 
0.395 0.149 -0.015 1 
0.394 0.153 -0.015 1 
0.393 0.163 -0.015 1 
0.388 0.174 -0.014 1 
0.389 0.184 -0.015 1 
0.383 0.244 -0.016 1 
0.384 0.25 -0.016 1 
0.412 -0.287 -0.022 1 
0.414 -0.236 -0.02 1 
0.404 -0.186 -0.016 1 
0.409 -0.115 -0.016 1 
0.407 -0.077 -0.015 1 
0.407 -0.066 -0.015 1 
0.407 -0.051 -0.015 1 
0.404 -0.039 -0.014 1 
0.394 -0.015 -0.011 1 
0.385 -0.005 -0.008 1 
0.393 0.025 -0.011 1 
0.401 0.044 -0.013 1 
0.403 0.053 -0.014 1 
0.403 0.073 -0.014 1 
0.403 0.103 -0.015 1 
0.402 0.105 -0.014 1 
0.403 0.114 -0.015 1 
0.402 0.122 -0.015 1 
0.373 -0.106 -0.016 1 
0.401 0.124 -0.014 1 
0.401 0.126 -0.015 1 
0.397 0.167 -0.015 1 
0.391 0.192 -0.014 1 
0.391 0.201 -0.014 1 
0.393 0.222 -0.015 1 
0.394 0.243 -0.017 1 
0.42 -0.287 -0.022 1 
0.423 -0.267 -0.021 1 
0.421 -0.259 -0.021 1 
0.414 -0.231 -0.018 1 
0.411 -0.196 -0.016 1 
0.412 -0.185 -0.016 1 
0.413 -0.166 -0.016 1 
0.413 -0.157 -0.016 1 
0.354 0.191 -0.016 1 
0.413 -0.138 -0.015 1 
0.415 -0.111 -0.015 1 
0.414 -0.106 -0.015 1 
0.414 -0.097 -0.015 1 
0.413 -0.088 -0.015 1 
0.413 -0.085 -0.014 1 
0.412 -0.076 -0.014 1 
0.413 -0.065 -0.014 1 
0.409 -0.045 -0.013 1 
0.41 -0.025 -0.014 1 
0.404 -0.016 -0.012 1 
0.396 -0.005 -0.009 1 
0.404 0.028 -0.012 1 
0.408 0.052 -0.013 1 
0.411 0.073 -0.014 1 
0.403 0.134 -0.013 1 
0.393 0.02 -0.009 1 
0.404 0.144 -0.014 1 
0.403 0.154 -0.014 1 
0.402 0.163 -0.013 1 
0.402 0.18 -0.014 1 
0.403 0.183 -0.015 1 
0.402 0.189 -0.015 1 
0.4 0.192 -0.014 1 
0.399 0.208 -0.014 1 
0.402 0.213 -0.015 1 
0.4 0.224 -0.015 1 
0.399 0.233 -0.015 1 
0.396 0.243 -0.015 1 
0.423 -0.296 -0.02 1 
0.424 -0.237 -0.018 1 
0.422 -0.225 -0.017 1 
0.422 -0.215 -0.017 1 
0.42 -0.196 -0.016 1 
0.422 -0.165 -0.016 1 
0.418 -0.157 -0.015 1 
0.42 -0.135 -0.015 1 
0.424 -0.096 -0.015 1 
0.421 -0.088 -0.015 1 
0.42 -0.076 -0.014 1 
0.419 -0.065 -0.014 1 
0.42 -0.056 -0.014 1 
0.421 -0.047 -0.014 1 
0.384 -0.186 -0.018 1 
0.392 -0.146 -0.018 1 
0.402 0.1 -0.014 1 
0.419 -0.035 -0.014 1 
0.4 0.019 -0.009 1 
0.41 0.133 -0.013 1 
0.412 0.153 -0.014 1 
0.408 0.162 -0.013 1 
0.408 0.209 -0.015 1 
0.398 -0.236 -0.022 1 
0.358 0.014 -0.005 1 
0.409 0.222 -0.015 1 
0.402 0.262 -0.015 1 
0.4 0.268 -0.015 1 
0.431 -0.305 -0.02 1 
0.432 -0.285 -0.019 1 
0.433 -0.248 -0.018 1 
0.427 -0.176 -0.015 1 
0.423 -0.156 -0.014 1 
0.422 -0.145 -0.013 1 
0.424 -0.139 -0.014 1 
0.423 -0.115 -0.013 1 
0.366 0.214 -0.015 1 
0.424 -0.113 -0.013 1 
0.424 -0.027 -0.013 1 
0.427 -0.011 -0.014 1 
0.418 0.023 -0.011 1 
0.384 0.214 -0.017 1 
0.421 0.032 -0.012 1 
0.419 -0.175 -0.015 1 
0.424 0.044 -0.013 1 
0.421 0.064 -0.013 1 
0.422 0.074 -0.013 1 
0.424 0.093 -0.014 1 
0.42 0.103 -0.013 1 
0.421 0.123 -0.013 1 
0.413 0.144 -0.012 1 
0.414 0.194 -0.013 1 
0.412 0.212 -0.013 1 
0.414 0.229 -0.015 1 
0.412 0.243 -0.015 1 
0.412 0.246 -0.015 1 
0.409 0.262 -0.015 1 
0.408 0.274 -0.015 1 
0.381 0.124 -0.014 1 
0.406 0.275 -0.014 1 
0.434 -0.278 -0.017 1 
0.432 -0.225 -0.015 1 
0.432 -0.205 -0.015 1 
0.432 -0.2 -0.015 1 
0.381 -0.072 -0.015 1 
0.432 -0.197 -0.014 1 
0.432 -0.189 -0.014 1 
0.434 -0.185 -0.015 1 
0.433 -0.177 -0.014 1 
0.429 -0.147 -0.013 1 
0.434 -0.135 -0.014 1 
0.434 -0.132 -0.014 1 
0.437 -0.131 -0.015 1 
0.431 -0.116 -0.013 1 
0.432 -0.106 -0.013 1 
0.432 -0.097 -0.013 1 
0.432 -0.085 -0.013 1 
0.434 -0.078 -0.013 1 
0.432 -0.065 -0.013 1 
0.432 -0.056 -0.013 1 
0.432 -0.046 -0.013 1 
0.433 -0.035 -0.013 1 
0.407 -0.005 -0.006 1 
0.43 0.043 -0.012 1 
0.429 0.054 -0.012 1 
0.428 0.064 -0.012 1 
0.422 0.154 -0.012 1 
0.42 0.164 -0.012 1 
0.421 0.274 -0.016 1 
0.418 0.283 -0.015 1 
0.443 -0.296 -0.017 1 
0.437 -0.278 -0.015 1 
0.434 -0.266 -0.014 1 
0.437 -0.255 -0.015 1 
0.439 -0.24 -0.015 1 
0.434 -0.16 -0.012 1 
0.439 -0.127 -0.013 1 
0.403 0.064 -0.014 1 
0.441 -0.036 -0.012 1 
0.423 0.053 -0.013 1 
0.44 -0.026 -0.012 1 
0.409 -0.005 -0.004 1 
0.412 0.02 -0.005 1 
0.436 0.024 -0.012 1 
0.433 0.072 -0.011 1 
0.433 0.082 -0.011 1 
0.414 -0.057 -0.015 1 
0.433 0.094 -0.011 1 
0.434 0.121 -0.012 1 
0.428 0.143 -0.011 1 
0.428 0.153 -0.011 1 
0.423 0.183 -0.011 1 
0.424 0.194 -0.011 1 
0.423 0.203 -0.011 1 
0.424 0.212 -0.012 1 
0.424 0.222 -0.012 1 
0.423 0.232 -0.012 1 
0.423 0.243 -0.012 1 
0.42 0.251 -0.012 1 
0.422 0.272 -0.013 1 
0.421 0.283 -0.014 1 
0.443 -0.315 -0.015 1 
0.445 -0.295 -0.015 1 
0.445 -0.292 -0.015 1 
0.443 -0.287 -0.014 1 
0.438 -0.267 -0.013 1 
0.438 -0.255 -0.012 1 
0.443 -0.226 -0.013 1 
0.443 -0.216 -0.013 1 
0.443 -0.197 -0.012 1 
0.443 -0.186 -0.012 1 
0.444 -0.176 -0.012 1 
0.443 -0.165 -0.012 1 
0.443 -0.155 -0.011 1 
0.444 -0.145 -0.012 1 
0.443 -0.116 -0.011 1 
0.443 -0.106 -0.011 1 
0.443 -0.096 -0.011 1 
0.422 0.083 -0.013 1 
0.444 -0.086 -0.011 1 
0.444 -0.076 -0.011 1 
0.444 -0.066 -0.011 1 
0.444 -0.056 -0.011 1 
0.444 0.033 -0.011 1 
0.443 0.042 -0.011 1 
0.441 0.054 -0.01 1 
0.439 0.064 -0.01 1 
0.44 0.074 -0.01 1 
0.44 0.084 -0.011 1 
0.439 0.114 -0.011 1 
0.434 0.162 -0.011 1 
0.434 0.167 -0.011 1 
0.431 0.183 -0.01 1 
0.428 0.204 -0.01 1 
0.429 0.224 -0.011 1 
0.431 0.264 -0.013 1 
0.429 0.274 -0.012 1 
0.424 0.292 -0.012 1 
0.45 -0.326 -0.015 1 
0.449 -0.322 -0.014 1 
0.452 -0.315 -0.015 1 
0.45 -0.297 -0.014 1 
0.447 -0.288 -0.013 1 
0.449 -0.275 -0.013 1 
0.444 -0.247 -0.011 1 
0.409 0.103 -0.014 1 
0.444 -0.241 -0.011 1 
0.448 -0.195 -0.011 1 
0.45 -0.106 -0.01 1 
0.45 -0.095 -0.01 1 
0.442 -0.207 -0.012 1 
0.451 -0.085 -0.01 1 
0.452 -0.075 -0.01 1 
0.452 -0.065 -0.01 1 
0.452 -0.055 -0.01 1 
0.452 -0.037 -0.01 1 
0.454 -0.009 -0.011 1 
0.409 0.02 0 1 
0.451 0.033 -0.01 1 
0.444 0.123 -0.009 1 
0.443 0.133 -0.009 1 
0.44 0.163 -0.009 1 
0.434 0.191 -0.009 1 
0.434 0.233 -0.01 1 
0.433 0.249 -0.01 1 
0.433 0.284 -0.011 1 
0.43 0.293 -0.011 1 
0.419 0.134 -0.013 1 
0.454 -0.267 -0.011 1 
0.451 -0.256 -0.01 1 
0.45 -0.246 -0.009 1 
0.454 -0.235 -0.01 1 
0.454 -0.232 -0.01 1 
0.453 -0.215 -0.01 1 
0.454 -0.205 -0.01 1 
0.454 -0.185 -0.009 1 
0.454 -0.155 -0.009 1 
0.454 -0.15 -0.009 1 
0.454 -0.136 -0.009 1 
0.454 -0.126 -0.009 1 
0.454 -0.12 -0.009 1 
0.404 -0.275 -0.024 1 
0.361 -0.006 -0.013 1 
0.414 -0.216 -0.017 1 
0.442 0.143 -0.009 1 
0.454 0.044 -0.008 1 
0.453 0.054 -0.008 1 
0.452 0.064 -0.008 1 
0.453 0.072 -0.008 1 
0.452 0.093 -0.008 1 
0.452 0.103 -0.009 1 
0.443 0.173 -0.008 1 
0.41 0.191 -0.015 1 
0.441 0.182 -0.008 1 
0.443 0.202 -0.008 1 
0.438 0.242 -0.008 1 
0.434 0.3 -0.009 1 
0.454 0.133 -0.007 1 
0.454 0.154 -0.007 1 
0.451 0.164 -0.007 1 
0.449 0.204 -0.007 1 
0.444 0.271 -0.008 1 
0.444 0.283 -0.008 1 
0.442 0.293 -0.008 1 
0.44 0.3 -0.008 1 
0.439 0.312 -0.008 1 
0.384 0.184 -0.016 1 
0.464 -0.318 -0.009 1 
0.462 -0.256 -0.007 1 
0.463 -0.217 -0.006 1 
0.464 -0.2 -0.006 1 
0.465 -0.198 -0.007 1 
0.463 -0.177 -0.006 1 
0.462 -0.157 -0.005 1 
0.462 -0.135 -0.005 1 
0.463 -0.116 -0.005 1 
0.463 -0.076 -0.005 1 
0.465 -0.063 -0.005 1 
0.384 -0.239 -0.025 1 
0.464 -0.055 -0.005 1 
0.463 -0.036 -0.005 1 
0.462 0.043 -0.005 1 
0.46 0.063 -0.005 1 
0.374 0.017 -0.009 1 
0.461 0.074 -0.005 1 
0.46 0.093 -0.005 1 
0.418 -0.148 -0.015 1 
0.459 0.114 -0.005 1 
0.459 0.124 -0.005 1 
0.455 0.172 -0.005 1 
0.455 0.177 -0.005 1 
0.394 0.233 -0.016 1 
0.454 0.182 -0.005 1 
0.454 0.191 -0.005 1 
0.455 0.202 -0.006 1 
0.409 0.094 -0.014 1 
0.455 0.211 -0.006 1 
0.454 0.213 -0.006 1 
0.454 0.224 -0.006 1 
0.452 0.234 -0.006 1 
0.451 0.242 -0.006 1 
0.451 0.254 -0.006 1 
0.45 0.262 -0.006 1 
0.449 0.282 -0.007 1 
0.463 -0.344 -0.007 1 
0.452 -0.045 -0.01 1 
0.473 -0.311 -0.007 1 
0.458 0.132 -0.005 1 
0.466 -0.288 -0.006 1 
0.466 -0.275 -0.005 1 
0.465 -0.256 -0.005 1 
0.468 -0.246 -0.005 1 
0.469 -0.235 -0.005 1 
0.467 -0.231 -0.005 1 
0.464 -0.036 -0.003 1 
0.464 -0.028 -0.003 1 
0.464 0.03 -0.003 1 
0.456 0.261 -0.005 1 
0.454 0.262 -0.004 1 
0.456 0.267 -0.005 1 
0.452 0.282 -0.004 1 
0.453 0.274 -0.004 1 
0.452 0.285 -0.004 1 
0.451 0.293 -0.005 1 
0.451 0.302 -0.005 1 
0.452 0.313 -0.005 1 
0.451 0.322 -0.006 1 
0.451 0.325 -0.006 1 
0.473 -0.345 -0.006 1 
0.474 -0.336 -0.005 1 
0.432 0.133 -0.012 1 
0.44 0.264 -0.009 1 
0.474 -0.329 -0.005 1 
0.475 -0.326 -0.005 1 
0.364 -0.078 -0.015 1 
0.474 -0.315 -0.005 1 
0.409 0.253 -0.014 1 
0.476 -0.307 -0.005 1 
0.463 0.123 -0.001 1 
0.466 0.342 -0.006 1 
0.473 -0.348 -0.003 1 
0.474 -0.01 0 1 
0.353 0.144 -0.015 1 
0.466 0.084 0.001 1 
0.465 0.094 0.001 1 
0.464 0.203 0 1 
0.475 -0.29 0 1 
0.475 -0.24 0.001 1 
0.472 -0.226 0.002 1 
0.472 -0.217 0.002 1 
0.471 -0.205 0.002 1 
0.47 -0.195 0.003 1 
0.469 -0.186 0.003 1 
0.47 -0.166 0.003 1 
0.471 -0.156 0.003 1 
0.471 -0.147 0.003 1 
0.374 -0.213 -0.02 1 
0.424 0.107 -0.012 1 
0.47 -0.135 0.003 1 
0.468 -0.096 0.004 1 
0.467 -0.085 0.004 1 
0.467 -0.077 0.004 1 
0.41 -0.125 -0.016 1 
0.468 -0.015 0.004 1 
0.424 0.003 0.012 1 
0.464 0.024 0.004 1 
0.464 0.094 0.004 1 
0.464 0.113 0.004 1 
0.465 0.144 0.003 1 
0.463 0.151 0.003 1 
0.463 0.162 0.003 1 
0.464 0.174 0.003 1 
0.465 0.178 0.003 1 
0.464 0.183 0.003 1 
0.465 0.186 0.003 1 
0.464 0.194 0.003 1 
0.466 0.204 0.002 1 
0.465 0.212 0.002 1 
0.465 0.218 0.002 1 
0.464 0.223 0.002 1 
0.463 0.234 0.002 1 
0.463 0.252 0.002 1 
0.473 -0.355 0.002 1 
0.476 -0.355 0.002 1 
0.479 -0.348 0.001 1 
0.359 0.104 -0.014 1 
0.478 -0.336 0.002 1 
0.42 -0.085 -0.014 1 
0.477 -0.325 0.002 1 
0.477 -0.305 0.003 1 
0.475 -0.299 0.003 1 
0.474 -0.295 0.003 1 
0.474 -0.285 0.004 1 
0.473 -0.275 0.004 1 
0.463 0.273 0.004 1 
0.463 0.292 0.004 1 
0.463 0.302 0.003 1 
0.462 0.314 0.003 1 
0.462 0.324 0.003 1 
0.462 0.334 0.003 1 
0.467 0.344 0.001 1 
0.46 0.053 -0.005 1 
0.462 0.032 -0.005 1 
0.403 -0.155 -0.017 1 
0.465 -0.012 0.012 1 
0.464 -0.007 0.012 1 
0.463 0.003 0.013 1 
0.464 -0.009 -0.008 1 
0.462 0.014 0.013 1 
0.463 0.024 0.013 1 
0.463 -0.046 -0.005 1 
0.464 -0.065 -0.005 1 
0.411 0.201 -0.013 1 
0.381 -0.147 -0.018 1 
0.464 -0.087 -0.005 1 
0.464 -0.106 -0.005 1 
0.392 0.043 -0.015 1 
0.372 0.237 -0.016 1 
0.464 0.024 0.015 1 
0.462 -0.126 -0.005 1 
0.463 -0.146 -0.005 1 
0.463 -0.165 -0.006 1 
0.463 -0.185 -0.006 1 
0.462 -0.225 -0.006 1 
0.452 -0.306 -0.014 1 
0.463 -0.245 -0.007 1 
0.438 0.254 -0.009 1 
0.463 -0.285 -0.008 1 
0.441 0.104 -0.011 1 
0.414 0.124 -0.014 1 
0.464 -0.325 -0.012 1 
0.44 -0.275 -0.013 1 
0.407 0.114 -0.014 1 
0.374 0.114 -0.016 1 
0.389 0.172 -0.015 1 
0.436 -0.271 -0.015 1 
0.464 0.014 0.015 1 
0.439 0.094 -0.01 1 
0.4 -0.085 -0.015 1 
0.453 0.143 -0.007 1 
0.474 -0.356 0.005 1 
0.439 -0.245 -0.015 1 
0.469 -0.127 0.003 1 
0.458 0.143 -0.005 1 
0.45 -0.177 -0.011 1 
0.393 0.26 -0.015 1 
0.363 0.064 -0.015 1 
0.465 0.062 0.001 1 
0.473 -0.247 0.004 1 
0.453 -0.017 -0.011 1 
0.424 -0.022 -0.013 1 
0.449 0.123 -0.008 1 
0.463 0.243 0.002 1 
0.444 -0.009 -0.013 1 
0.361 -0.066 -0.015 1 
0.442 0.153 -0.01 1 
0.349 0.164 -0.014 1 
0.412 -0.036 -0.014 1 
0.358 0.144 -0.015 1 
0.421 -0.207 -0.017 1 
0.447 -0.307 -0.016 1 
0.443 0.213 -0.009 1 
0.36 0.134 -0.013 1 
0.411 0.064 -0.014 1 
0.402 0.173 -0.014 1 
0.374 -0.215 -0.021 1 
0.44 -0.045 -0.012 1 
0.464 0.083 0.004 1 
0.37 -0.067 -0.015 1 
0.423 -0.275 -0.022 1 
0.434 0.114 -0.012 1 
0.384 0.093 -0.015 1 
0.457 0.153 -0.005 1 
0.388 0.203 -0.015 1 
0.477 -0.01 0.002 1 
0.464 0.043 -0.003 1 
0.374 0.15 -0.015 1 
0.377 0.23 -0.015 1 
0.404 -0.253 -0.025 1 
0.426 -0.162 -0.015 1 
0.402 -0.259 -0.025 1 
0.353 0.104 -0.014 1 
0.392 -0.235 -0.023 1 
0.473 -0.236 0.004 1 
0.413 0.223 -0.014 1 
0.427 -0.165 -0.015 1 
0.392 -0.095 -0.015 1 
0.434 -0.241 -0.016 1 
0.372 0.092 -0.015 1 
0.468 -0.009 -0.006 1 
0.433 -0.265 -0.016 1 
0.413 -0.059 -0.014 1 
0.383 0.063 -0.014 1 
0.417 0.174 -0.011 1 
0.461 -0.296 -0.01 1 
0.412 -0.147 -0.015 1 
0.403 -0.166 -0.017 1 
0.424 -0.248 -0.019 1 
0.473 -0.269 0.004 1 
0.472 -0.3 -0.007 1 
0.463 0.134 -0.001 1 
0.383 0.203 -0.016 1 
0.383 0.194 -0.016 1 
0.369 -0.048 -0.014 1 
0.373 0.064 -0.015 1 
0.394 0.176 -0.014 1 
0.432 -0.215 -0.015 1 
0.363 0.164 -0.016 1 
0.413 0.174 -0.013 1 
0.391 0.253 -0.016 1 
0.463 -0.023 -0.005 1 
0.462 -0.266 -0.01 1 
0.364 -0.092 -0.015 1 
0.465 0.105 0.001 1 
0.391 0.113 -0.015 1 
0.464 0.143 0.001 1 
0.361 -0.106 -0.016 1 
0.464 0.102 0.004 1 
0.391 -0.237 -0.025 1 
0.45 0.113 -0.008 1 
0.461 0.082 -0.005 1 
0.38 0.033 -0.015 1 
0.414 0.184 -0.013 1 
0.451 -0.027 -0.01 1 
0.372 -0.234 -0.025 1 
0.414 0.036 -0.013 1 
0.422 0.261 -0.013 1 
0.421 0.144 -0.011 1 
0.433 -0.298 -0.02 1 
0.464 -0.025 -0.005 1 
0.404 -0.217 -0.017 1 
0.384 -0.085 -0.016 1 
0.438 -0.285 -0.016 1 
0.403 -0.176 -0.018 1 
0.448 0.272 -0.006 1 
0.394 -0.18 -0.017 1 
0.412 -0.175 -0.016 1 
0.441 -0.016 -0.013 1 
0.371 0.033 -0.015 1 
0.398 0.084 -0.015 1 
0.426 0.023 -0.011 1 
0.455 0.222 -0.006 1 
0.36 -0.096 -0.015 1 
0.384 -0.184 -0.018 1 
0.463 0.264 0.004 1 
0.398 -0.097 -0.015 1 
0.44 -0.135 -0.013 1 
0.401 -0.125 -0.016 1 
0.419 0.264 -0.015 1 
0.382 0.133 -0.015 1 
0.374 -0.055 -0.014 1 
0.364 -0.045 -0.014 1 
0.433 0.104 -0.011 1 
0.369 0.229 -0.015 1 
0.432 -0.025 -0.013 1 
0.418 -0.187 -0.015 1 
0.364 -0.015 -0.014 1 
0.411 -0.206 -0.016 1 
0.392 0.134 -0.014 1 
0.428 0.033 -0.012 1 
0.363 -0.083 -0.014 1 
0.359 0.184 -0.015 1 
0.383 0.222 -0.017 1 
0.441 -0.307 -0.017 1 
0.452 0.082 -0.008 1 
0.434 -0.258 -0.016 1 
0.418 0.016 0.013 1 
0.374 -0.159 -0.018 1 
0.382 -0.195 -0.02 1 
0.394 0.214 -0.015 1 
0.42 -0.125 -0.015 1 
0.372 0.174 -0.015 1 
0.362 0.053 -0.014 1 
0.388 -0.259 -0.021 1 
0.371 0.093 -0.014 1 
0.424 -0.008 -0.013 1 
0.42 0.014 0.012 1 
0.362 0.062 -0.014 1 
0.402 0.083 -0.014 1 
0.443 0.194 -0.008 1 
0.434 -0.165 -0.012 1 
0.41 0.084 -0.014 1 
0.466 -0.266 -0.005 1 
0.404 0.246 -0.015 1 
0.463 0.283 0.004 1 
0.362 0.143 -0.014 1 
0.414 0.029 -0.013 1 
0.397 -0.026 -0.014 1 
0.471 -0.261 0.004 1 
0.374 0.043 -0.015 1 
0.359 -0.115 -0.015 1 
0.404 0.198 -0.013 1 
0.379 0.06 -0.015 1 
0.416 -0.116 -0.016 1 
0.464 -0.095 -0.005 1 
0.43 0.211 -0.011 1 
0.391 -0.096 -0.014 1 
0.443 0.222 -0.009 1 
0.391 -0.167 -0.018 1 
0.368 0.134 -0.014 1 
0.415 0.285 -0.015 1 
0.407 -0.029 -0.015 1 
0.413 0.231 -0.014 1 
0.414 -0.277 -0.022 1 
0.464 0.054 0 1 
0.478 -0.316 0.002 1 
0.463 -0.205 -0.006 1 
0.454 -0.166 -0.009 1 
0.454 0.174 -0.005 1 
0.4 -0.03 -0.015 1 
0.384 0.173 -0.015 1 
0.376 0.09 -0.014 1 
0.455 0.164 -0.005 1 
0.424 -0.127 -0.014 1 
0.464 -0.277 -0.008 1 
0.465 0.13 0.006 1 
0.412 0.183 -0.015 1 
0.403 -0.115 -0.016 1 
0.441 0.234 -0.009 1 
0.455 0.194 -0.006 1 
0.464 0.214 0 1 
0.434 0.242 -0.01 1 
0.405 -0.02 -0.012 1 
0.434 -0.02 -0.013 1 
0.464 -0.243 -0.007 1 
0.402 -0.248 -0.024 1 
0.384 -0.136 -0.017 1 
0.465 -0.015 -0.005 1 
0.388 0.19 -0.015 1 
0.374 0.2 -0.017 1 
0.36 0.212 -0.015 1 
0.46 0.103 -0.005 1 
0.463 -0.307 -0.011 1 
0.39 -0.136 -0.017 1 
0.373 -0.166 -0.018 1 
0.465 0.124 0.003 1 
0.401 0.094 -0.014 1 
0.47 -0.175 0.003 1 
0.354 0.013 0.032 2 
0.354 -0.002 0.028 2 
0.36 0.012 0.034 2 
0.359 0.003 0.027 2 
0.354 0.013 0.027 2 
0.355 0.01 0.02 2 
0.355 0.003 0.019 2 
0.354 -0.002 0.033 2 
0.48 -0.296 0.152 3 
0.466 0.214 0.143 3 
0.464 0.183 0.033 3 
0.465 0.222 0.143 3 
0.465 0.234 0.143 3 
0.465 0.243 0.144 3 
0.467 0.254 0.144 3 
0.467 0.26 0.144 3 
0.481 -0.327 0.154 3 
0.48 -0.316 0.153 3 
0.479 -0.305 0.152 3 
0.469 -0.055 0.142 3 
0.466 0.203 0.143 3 
0.466 0.194 0.143 3 
0.466 0.182 0.142 3 
0.466 0.173 0.142 3 
0.471 -0.156 0.124 3 
0.466 0.162 0.142 3 
0.466 0.153 0.142 3 
0.466 0.142 0.142 3 
0.474 -0.258 0.121 3 
0.466 0.134 0.142 3 
0.469 -0.047 0.142 3 
0.466 0.314 0.152 3 
0.466 0.082 0.144 3 
0.466 0.162 0.134 3 
0.475 -0.226 0.152 3 
0.475 -0.235 0.152 3 
0.472 -0.265 0.013 3 
0.474 -0.246 0.152 3 
0.476 -0.257 0.153 3 
0.477 -0.267 0.153 3 
0.477 -0.277 0.154 3 
0.466 0.123 0.144 3 
0.466 0.112 0.144 3 
0.467 0.104 0.144 3 
0.467 0.093 0.144 3 
0.479 -0.288 0.152 3 
0.464 0.163 0.055 3 
0.466 0.074 0.144 3 
0.466 0.052 0.144 3 
0.466 0.044 0.144 3 
0.466 0.033 0.144 3 
0.471 -0.147 0.074 3 
0.466 0.022 0.144 3 
0.467 0.003 0.144 3 
0.467 -0.006 0.144 3 
0.468 -0.015 0.144 3 
0.469 -0.025 0.144 3 
0.478 -0.287 0.143 3 
0.466 0.272 0.142 3 
0.465 0.152 0.063 3 
0.473 -0.206 0.142 3 
0.473 -0.215 0.142 3 
0.475 -0.225 0.143 3 
0.475 -0.237 0.143 3 
0.474 -0.246 0.143 3 
0.475 -0.256 0.144 3 
0.475 -0.275 0.144 3 
0.474 -0.225 0.14 3 
0.466 0.142 0.114 3 
0.474 -0.255 0.141 3 
0.466 -0.015 0.084 3 
0.47 -0.207 0.014 3 
0.479 -0.295 0.143 3 
0.464 0.197 0.093 3 
0.48 -0.306 0.144 3 
0.464 0.23 0.135 3 
0.465 0.21 0.134 3 
0.465 0.202 0.134 3 
0.466 0.193 0.134 3 
0.466 0.184 0.134 3 
0.466 0.173 0.134 3 
0.467 0.302 0.163 3 
0.472 -0.185 0.144 3 
0.466 0.022 0.103 3 
0.465 0.172 0.052 3 
0.47 -0.077 0.142 3 
0.47 -0.086 0.142 3 
0.47 -0.105 0.143 3 
0.471 -0.117 0.143 3 
0.471 -0.125 0.143 3 
0.471 -0.145 0.143 3 
0.471 -0.156 0.144 3 
0.471 -0.165 0.144 3 
0.472 -0.177 0.144 3 
0.469 -0.066 0.142 3 
0.471 -0.197 0.144 3 
0.482 -0.335 0.151 3 
0.481 -0.345 0.151 3 
0.467 0.345 0.144 3 
0.473 -0.185 0.122 3 
0.466 0.341 0.144 3 
0.467 0.331 0.144 3 
0.466 0.32 0.143 3 
0.465 0.312 0.143 3 
0.465 0.303 0.142 3 
0.466 0.281 0.142 3 
0.465 0.182 0.153 3 
0.464 0.334 0.123 3 
0.477 -0.258 0.162 3 
0.477 -0.268 0.162 3 
0.478 -0.275 0.163 3 
0.479 -0.286 0.164 3 
0.479 -0.295 0.164 3 
0.479 -0.305 0.164 3 
0.466 0.218 0.154 3 
0.47 -0.135 0.082 3 
0.466 0.212 0.154 3 
0.467 0.204 0.154 3 
0.466 0.188 0.154 3 
0.469 0.331 0.162 3 
0.466 0.173 0.153 3 
0.467 0.163 0.153 3 
0.467 0.154 0.153 3 
0.467 0.143 0.153 3 
0.465 0.124 0.063 3 
0.467 0.134 0.153 3 
0.467 0.123 0.153 3 
0.466 0.033 0.063 3 
0.468 0.113 0.153 3 
0.468 0.104 0.153 3 
0.468 0.093 0.153 3 
0.467 -0.036 0.044 3 
0.466 0.312 0.114 3 
0.467 0.292 0.163 3 
0.465 0.262 0.063 3 
0.467 0.283 0.162 3 
0.467 0.273 0.162 3 
0.473 -0.175 0.162 3 
0.466 0.123 0.122 3 
0.475 -0.185 0.162 3 
0.474 -0.187 0.162 3 
0.469 -0.105 0.104 3 
0.473 -0.256 0.052 3 
0.476 -0.266 0.144 3 
0.474 -0.196 0.162 3 
0.474 -0.205 0.163 3 
0.471 -0.167 0.033 3 
0.474 -0.217 0.163 3 
0.475 -0.22 0.163 3 
0.473 -0.257 0.044 3 
0.473 -0.287 0.012 3 
0.475 -0.226 0.163 3 
0.476 -0.236 0.164 3 
0.477 -0.246 0.164 3 
0.466 0.345 0.162 3 
0.472 -0.145 0.152 3 
0.483 -0.348 0.164 3 
0.466 0.304 0.154 3 
0.466 0.294 0.154 3 
0.466 0.282 0.153 3 
0.467 0.264 0.153 3 
0.466 0.254 0.153 3 
0.465 0.244 0.152 3 
0.468 -0.137 0.014 3 
0.466 0.232 0.152 3 
0.472 -0.125 0.152 3 
0.472 -0.137 0.152 3 
0.464 0.34 0.062 3 
0.483 -0.337 0.164 3 
0.472 -0.157 0.152 3 
0.464 0.279 0.127 3 
0.472 -0.165 0.153 3 
0.475 -0.271 0.101 3 
0.473 -0.175 0.153 3 
0.473 -0.186 0.153 3 
0.473 -0.195 0.153 3 
0.474 -0.216 0.154 3 
0.47 0.349 0.154 3 
0.466 0.341 0.153 3 
0.468 0.333 0.153 3 
0.47 -0.026 0.153 3 
0.468 0.082 0.153 3 
0.467 0.074 0.152 3 
0.467 0.063 0.152 3 
0.467 0.052 0.152 3 
0.467 0.044 0.152 3 
0.467 0.033 0.152 3 
0.467 0.022 0.152 3 
0.468 0.014 0.153 3 
0.467 0.003 0.152 3 
0.467 -0.006 0.152 3 
0.468 -0.015 0.152 3 
0.468 0.323 0.152 3 
0.47 -0.056 0.153 3 
0.463 0.332 0.062 3 
0.47 -0.067 0.153 3 
0.471 -0.075 0.154 3 
0.472 -0.086 0.154 3 
0.471 -0.097 0.154 3 
0.473 -0.247 0.092 3 
0.469 -0.105 0.153 3 
0.471 -0.117 0.154 3 
0.48 -0.316 0.162 3 
0.481 -0.328 0.163 3 
0.471 -0.176 0.124 3 
0.468 -0.055 0.123 3 
0.468 -0.066 0.123 3 
0.469 -0.077 0.123 3 
0.469 -0.085 0.123 3 
0.47 -0.097 0.123 3 
0.476 -0.288 0.093 3 
0.47 -0.105 0.123 3 
0.47 -0.127 0.124 3 
0.47 -0.136 0.124 3 
0.471 -0.147 0.124 3 
0.466 0.342 0.091 3 
0.471 -0.167 0.124 3 
0.467 -0.047 0.122 3 
0.474 -0.246 0.126 3 
0.466 0.333 0.123 3 
0.467 0.324 0.123 3 
0.466 0.313 0.123 3 
0.466 0.303 0.122 3 
0.465 0.292 0.122 3 
0.465 0.228 0.121 3 
0.473 -0.197 0.122 3 
0.473 -0.206 0.122 3 
0.473 -0.215 0.123 3 
0.474 -0.227 0.123 3 
0.466 0.054 0.122 3 
0.466 0.193 0.123 3 
0.466 0.184 0.123 3 
0.465 0.172 0.123 3 
0.465 0.164 0.123 3 
0.465 0.153 0.122 3 
0.466 0.134 0.122 3 
0.466 0.112 0.122 3 
0.466 0.103 0.122 3 
0.466 0.092 0.122 3 
0.465 0.073 0.122 3 
0.466 0.062 0.122 3 
0.474 -0.236 0.123 3 
0.466 0.044 0.122 3 
0.466 0.033 0.122 3 
0.466 0.022 0.122 3 
0.469 -0.157 0.014 3 
0.467 0.014 0.122 3 
0.467 0.003 0.122 3 
0.465 -0.076 0.012 3 
0.466 -0.006 0.122 3 
0.466 -0.015 0.122 3 
0.467 -0.025 0.122 3 
0.467 -0.036 0.122 3 
0.466 -0.006 0.114 3 
0.466 0.092 0.114 3 
0.465 0.084 0.114 3 
0.477 -0.317 0.043 3 
0.465 0.073 0.114 3 
0.465 0.062 0.114 3 
0.466 0.054 0.114 3 
0.465 0.043 0.114 3 
0.465 0.033 0.114 3 
0.467 0.022 0.114 3 
0.467 0.014 0.114 3 
0.467 0.003 0.114 3 
0.464 0.274 0.046 3 
0.465 0.103 0.114 3 
0.467 -0.015 0.114 3 
0.467 -0.025 0.114 3 
0.467 -0.036 0.114 3 
0.468 -0.047 0.114 3 
0.468 -0.055 0.114 3 
0.468 -0.066 0.114 3 
0.474 -0.267 0.118 3 
0.465 0.335 0.114 3 
0.465 0.331 0.114 3 
0.466 0.322 0.114 3 
0.476 0.357 0.2 3 
0.481 -0.355 0.124 3 
0.475 -0.246 0.124 3 
0.474 -0.249 0.123 3 
0.475 -0.256 0.124 3 
0.475 -0.265 0.124 3 
0.464 0.158 0.117 3 
0.475 -0.243 0.121 3 
0.476 -0.288 0.122 3 
0.478 -0.306 0.123 3 
0.48 -0.329 0.124 3 
0.481 -0.337 0.124 3 
0.479 -0.345 0.124 3 
0.464 0.152 0.092 3 
0.465 0.178 0.114 3 
0.465 0.172 0.114 3 
0.478 -0.325 0.064 3 
0.464 0.163 0.114 3 
0.465 0.161 0.114 3 
0.465 0.153 0.114 3 
0.466 0.204 0.112 3 
0.466 0.134 0.114 3 
0.466 0.122 0.114 3 
0.464 0.294 0.079 3 
0.465 0.114 0.114 3 
0.465 0.339 0.123 3 
0.468 -0.077 0.134 3 
0.47 -0.086 0.134 3 
0.47 -0.097 0.134 3 
0.474 -0.237 0.137 3 
0.475 -0.247 0.138 3 
0.482 -0.318 0.142 3 
0.482 -0.328 0.142 3 
0.482 -0.335 0.142 3 
0.481 -0.345 0.142 3 
0.463 0.34 0.134 3 
0.463 0.333 0.134 3 
0.466 0.323 0.134 3 
0.468 -0.066 0.133 3 
0.465 0.302 0.134 3 
0.465 0.293 0.133 3 
0.465 0.283 0.133 3 
0.466 0.271 0.133 3 
0.466 0.262 0.133 3 
0.463 0.132 0.022 3 
0.465 0.252 0.132 3 
0.465 0.243 0.132 3 
0.464 0.239 0.132 3 
0.464 0.248 0.115 3 
0.466 0.014 0.063 3 
0.465 0.033 0.133 3 
0.466 0.134 0.133 3 
0.466 0.123 0.133 3 
0.465 0.114 0.133 3 
0.465 0.103 0.133 3 
0.466 0.092 0.133 3 
0.466 0.084 0.133 3 
0.466 -0.007 0.084 3 
0.466 0.073 0.133 3 
0.465 0.062 0.133 3 
0.465 0.054 0.133 3 
0.466 0.044 0.133 3 
0.465 0.234 0.132 3 
0.465 0.022 0.133 3 
0.466 0.014 0.133 3 
0.468 0.003 0.133 3 
0.467 -0.006 0.133 3 
0.471 -0.216 0.064 3 
0.467 -0.015 0.133 3 
0.468 -0.025 0.133 3 
0.465 0.264 0.113 3 
0.468 -0.036 0.133 3 
0.469 -0.047 0.134 3 
0.468 -0.055 0.133 3 
0.481 -0.337 0.133 3 
0.465 0.253 0.082 3 
0.475 -0.265 0.133 3 
0.48 -0.348 0.064 3 
0.471 -0.167 0.044 3 
0.475 -0.275 0.133 3 
0.477 -0.286 0.134 3 
0.478 -0.297 0.134 3 
0.479 -0.308 0.132 3 
0.48 -0.315 0.132 3 
0.48 -0.326 0.132 3 
0.473 -0.275 0.044 3 
0.476 -0.247 0.132 3 
0.481 -0.348 0.133 3 
0.464 0.279 0.124 3 
0.465 0.277 0.124 3 
0.465 0.273 0.124 3 
0.466 0.262 0.124 3 
0.465 0.243 0.124 3 
0.464 0.239 0.124 3 
0.464 0.233 0.123 3 
0.464 0.224 0.123 3 
0.465 0.213 0.123 3 
0.466 0.204 0.123 3 
0.473 -0.197 0.133 3 
0.464 0.23 0.132 3 
0.465 0.222 0.132 3 
0.471 -0.116 0.132 3 
0.47 -0.127 0.132 3 
0.479 -0.323 0.034 3 
0.47 -0.136 0.132 3 
0.471 -0.145 0.132 3 
0.472 -0.156 0.133 3 
0.472 -0.165 0.133 3 
0.471 -0.176 0.133 3 
0.472 -0.185 0.133 3 
0.466 0.153 0.134 3 
0.473 -0.206 0.134 3 
0.474 -0.215 0.134 3 
0.465 0.203 0.082 3 
0.474 -0.227 0.134 3 
0.466 0.344 0.132 3 
0.466 0.333 0.132 3 
0.464 0.245 0.129 3 
0.477 -0.305 0.084 3 
0.464 0.224 0.129 3 
0.475 -0.237 0.132 3 
0.474 -0.24 0.132 3 
0.467 0.249 0.184 3 
0.465 0.192 0.06 3 
0.48 -0.247 0.192 3 
0.48 -0.255 0.192 3 
0.468 -0.077 0.074 3 
0.48 -0.265 0.193 3 
0.48 -0.278 0.193 3 
0.48 -0.288 0.194 3 
0.465 0.273 0.093 3 
0.484 -0.326 0.198 3 
0.474 -0.205 0.165 3 
0.477 0.361 0.194 3 
0.473 0.353 0.192 3 
0.465 0.252 0.124 3 
0.467 0.243 0.184 3 
0.468 0.232 0.184 3 
0.465 0.155 0.082 3 
0.469 0.224 0.184 3 
0.468 0.214 0.183 3 
0.468 0.202 0.183 3 
0.465 0.043 0.103 3 
0.469 0.194 0.183 3 
0.469 0.182 0.183 3 
0.47 0.174 0.183 3 
0.473 -0.166 0.173 3 
0.472 0.034 0.184 3 
0.487 -0.336 0.202 3 
0.486 -0.346 0.203 3 
0.474 0.351 0.195 3 
0.473 0.342 0.194 3 
0.472 0.334 0.194 3 
0.471 -0.147 0.094 3 
0.473 0.323 0.193 3 
0.473 0.313 0.192 3 
0.472 0.037 0.184 3 
0.469 0.113 0.164 3 
0.476 -0.317 0.014 3 
0.471 -0.136 0.143 3 
0.472 0.02 0.184 3 
0.472 0.014 0.184 3 
0.464 0.297 0.082 3 
0.471 0.003 0.184 3 
0.465 0.253 0.074 3 
0.472 -0.007 0.184 3 
0.48 -0.315 0.123 3 
0.474 -0.026 0.185 3 
0.474 -0.04 0.186 3 
0.479 -0.227 0.191 3 
0.481 -0.238 0.192 3 
0.465 0.144 0.133 3 
0.474 -0.076 0.183 3 
0.474 -0.087 0.183 3 
0.475 -0.093 0.183 3 
0.467 0.233 0.164 3 
0.475 -0.096 0.183 3 
0.464 0.203 0.095 3 
0.475 -0.107 0.184 3 
0.472 -0.167 0.102 3 
0.475 -0.116 0.184 3 
0.475 -0.127 0.184 3 
0.475 -0.139 0.184 3 
0.482 -0.296 0.192 3 
0.473 -0.065 0.182 3 
0.483 -0.307 0.193 3 
0.482 -0.317 0.193 3 
0.483 -0.325 0.194 3 
0.474 0.357 0.19 3 
0.468 0.152 0.173 3 
0.469 0.305 0.184 3 
0.464 0.291 0.091 3 
0.47 0.296 0.184 3 
0.471 0.291 0.184 3 
0.471 0.284 0.184 3 
0.47 0.274 0.183 3 
0.472 0.084 0.182 3 
0.469 0.162 0.182 3 
0.469 0.153 0.182 3 
0.469 0.144 0.182 3 
0.47 0.134 0.182 3 
0.476 -0.275 0.124 3 
0.472 0.123 0.182 3 
0.47 -0.105 0.134 3 
0.472 0.112 0.182 3 
0.471 0.103 0.182 3 
0.472 0.092 0.182 3 
0.465 -0.036 0.004 3 
0.486 -0.328 0.202 3 
0.465 0.043 0.074 3 
0.472 0.073 0.182 3 
0.472 0.064 0.182 3 
0.473 0.053 0.182 3 
0.472 -0.015 0.182 3 
0.473 -0.026 0.182 3 
0.473 -0.037 0.173 3 
0.474 -0.037 0.183 3 
0.474 -0.045 0.182 3 
0.468 -0.055 0.063 3 
0.473 -0.056 0.182 3 
0.473 0.104 0.188 3 
0.47 0.183 0.189 3 
0.47 0.174 0.189 3 
0.47 0.163 0.189 3 
0.47 0.154 0.188 3 
0.466 0.084 0.122 3 
0.464 0.284 0.091 3 
0.471 0.143 0.188 3 
0.471 0.134 0.188 3 
0.472 0.123 0.188 3 
0.473 0.073 0.188 3 
0.472 0.112 0.188 3 
0.468 0.284 0.174 3 
0.47 0.192 0.189 3 
0.474 0.093 0.189 3 
0.474 0.084 0.188 3 
0.473 0.062 0.188 3 
0.474 0.054 0.188 3 
0.473 0.042 0.188 3 
0.473 0.034 0.188 3 
0.473 0.023 0.188 3 
0.472 0.012 0.187 3 
0.471 0.003 0.187 3 
0.473 -0.007 0.188 3 
0.475 -0.015 0.189 3 
0.473 0.293 0.194 3 
0.478 -0.296 0.122 3 
0.475 0.352 0.199 3 
0.474 0.343 0.198 3 
0.473 0.332 0.197 3 
0.476 0.327 0.197 3 
0.467 0.213 0.174 3 
0.474 0.321 0.196 3 
0.472 -0.156 0.102 3 
0.473 0.31 0.195 3 
0.472 0.302 0.194 3 
0.464 0.177 0.106 3 
0.474 -0.018 0.188 3 
0.473 0.283 0.194 3 
0.471 0.272 0.193 3 
0.47 0.262 0.192 3 
0.469 0.254 0.191 3 
0.469 0.242 0.19 3 
0.47 0.234 0.191 3 
0.469 0.224 0.19 3 
0.469 -0.036 0.144 3 
0.468 0.211 0.189 3 
0.475 -0.296 0.023 3 
0.469 0.203 0.189 3 
0.481 -0.256 0.196 3 
0.478 -0.166 0.192 3 
0.468 -0.066 0.074 3 
0.478 -0.175 0.192 3 
0.478 -0.187 0.192 3 
0.478 -0.196 0.193 3 
0.478 -0.205 0.193 3 
0.474 -0.127 0.172 3 
0.481 -0.216 0.195 3 
0.479 -0.218 0.194 3 
0.48 -0.225 0.195 3 
0.481 -0.235 0.195 3 
0.481 -0.248 0.196 3 
0.466 0.344 0.183 3 
0.465 0.083 0.023 3 
0.48 -0.265 0.196 3 
0.481 -0.276 0.197 3 
0.463 0.322 0.054 3 
0.481 -0.286 0.197 3 
0.482 -0.296 0.198 3 
0.483 -0.308 0.199 3 
0.462 0.313 0.014 3 
0.484 -0.319 0.2 3 
0.472 -0.216 0.044 3 
0.485 -0.323 0.201 3 
0.465 0.312 0.134 3 
0.476 -0.026 0.189 3 
0.475 -0.256 0.132 3 
0.476 -0.035 0.189 3 
0.474 -0.046 0.188 3 
0.475 -0.054 0.188 3 
0.475 -0.057 0.188 3 
0.472 -0.206 0.153 3 
0.476 -0.065 0.189 3 
0.468 -0.134 0.014 3 
0.477 -0.077 0.19 3 
0.47 -0.045 0.153 3 
0.472 -0.225 0.052 3 
0.476 -0.085 0.189 3 
0.477 -0.097 0.19 3 
0.477 -0.105 0.19 3 
0.477 -0.117 0.19 3 
0.478 -0.356 0.052 3 
0.477 -0.125 0.19 3 
0.47 -0.036 0.153 3 
0.478 -0.137 0.191 3 
0.479 -0.317 0.102 3 
0.479 -0.146 0.192 3 
0.479 -0.155 0.192 3 
0.467 0.143 0.164 3 
0.475 -0.22 0.154 3 
0.475 -0.227 0.172 3 
0.477 -0.237 0.173 3 
0.477 -0.246 0.173 3 
0.471 -0.207 0.083 3 
0.476 -0.255 0.173 3 
0.477 -0.265 0.174 3 
0.482 -0.337 0.179 3 
0.484 -0.346 0.18 3 
0.467 0.163 0.164 3 
0.467 -0.036 0.103 3 
0.467 0.154 0.164 3 
0.473 -0.166 0.164 3 
0.467 0.132 0.164 3 
0.468 0.124 0.164 3 
0.469 0.102 0.164 3 
0.468 0.093 0.164 3 
0.469 0.083 0.164 3 
0.469 0.074 0.164 3 
0.468 0.063 0.164 3 
0.465 0.216 0.123 3 
0.468 0.044 0.164 3 
0.468 0.033 0.164 3 
0.479 -0.326 0.082 3 
0.486 -0.348 0.184 3 
0.473 -0.256 0.072 3 
0.467 0.234 0.172 3 
0.467 0.222 0.172 3 
0.473 -0.135 0.172 3 
0.473 -0.146 0.172 3 
0.473 -0.155 0.172 3 
0.474 -0.176 0.173 3 
0.475 -0.182 0.174 3 
0.475 -0.185 0.174 3 
0.467 -0.085 0.012 3 
0.485 -0.34 0.183 3 
0.468 0.022 0.163 3 
0.467 0.347 0.174 3 
0.465 0.341 0.173 3 
0.467 0.333 0.173 3 
0.468 0.324 0.173 3 
0.468 0.31 0.173 3 
0.468 0.304 0.172 3 
0.468 0.294 0.172 3 
0.476 -0.197 0.172 3 
0.476 -0.206 0.172 3 
0.466 0.114 0.063 3 
0.476 -0.215 0.172 3 
0.474 -0.276 0.084 3 
0.472 -0.086 0.162 3 
0.472 -0.095 0.163 3 
0.466 0.114 0.044 3 
0.47 -0.105 0.162 3 
0.464 0.283 0.023 3 
0.472 -0.117 0.163 3 
0.473 -0.126 0.163 3 
0.473 -0.135 0.163 3 
0.479 -0.358 0.161 3 
0.472 -0.145 0.163 3 
0.48 -0.357 0.13 3 
0.473 -0.155 0.164 3 
0.472 -0.075 0.162 3 
0.474 -0.196 0.165 3 
0.466 0.063 0.144 3 
0.474 -0.22 0.166 3 
0.482 -0.315 0.172 3 
0.481 -0.325 0.172 3 
0.469 -0.166 0.022 3 
0.483 -0.337 0.173 3 
0.484 -0.346 0.174 3 
0.468 0.346 0.124 3 
0.465 0.341 0.164 3 
0.468 0.32 0.164 3 
0.466 0.254 0.164 3 
0.469 0.014 0.164 3 
0.469 0.003 0.164 3 
0.469 -0.007 0.164 3 
0.469 -0.015 0.164 3 
0.471 -0.026 0.164 3 
0.471 -0.05 0.164 3 
0.479 -0.276 0.172 3 
0.479 -0.286 0.172 3 
0.48 -0.297 0.173 3 
0.466 0.263 0.164 3 
0.467 0.273 0.153 3 
0.468 0.244 0.173 3 
0.466 0.242 0.164 3 
0.467 0.224 0.163 3 
0.466 0.212 0.163 3 
0.467 0.204 0.163 3 
0.467 0.192 0.163 3 
0.466 0.183 0.162 3 
0.471 -0.116 0.124 3 
0.466 0.174 0.162 3 
0.472 -0.037 0.162 3 
0.472 -0.056 0.162 3 
0.471 -0.067 0.162 3 
0.48 -0.268 0.184 3 
0.469 0.322 0.182 3 
0.473 -0.106 0.177 3 
0.473 -0.126 0.177 3 
0.474 -0.135 0.178 3 
0.474 -0.15 0.178 3 
0.464 0.203 0.033 3 
0.474 -0.179 0.179 3 
0.464 0.241 0.093 3 
0.477 -0.225 0.182 3 
0.477 -0.235 0.182 3 
0.478 -0.247 0.182 3 
0.478 -0.257 0.183 3 
0.469 0.332 0.183 3 
0.48 -0.277 0.184 3 
0.479 -0.286 0.184 3 
0.466 0.294 0.142 3 
0.467 0.349 0.181 3 
0.467 -0.007 0.063 3 
0.467 0.204 0.174 3 
0.467 0.192 0.174 3 
0.464 0.274 0.032 3 
0.467 0.184 0.174 3 
0.467 0.172 0.173 3 
0.467 0.164 0.173 3 
0.466 0.054 0.074 3 
0.469 0.263 0.183 3 
0.474 -0.096 0.18 3 
0.474 -0.115 0.18 3 
0.476 -0.145 0.182 3 
0.475 -0.156 0.182 3 
0.475 -0.357 0.014 3 
0.474 -0.158 0.181 3 
0.474 -0.167 0.182 3 
0.475 -0.173 0.182 3 
0.475 -0.176 0.182 3 
0.476 -0.186 0.183 3 
0.467 0.143 0.172 3 
0.477 -0.195 0.184 3 
0.467 0.014 0.144 3 
0.478 -0.208 0.184 3 
0.477 -0.219 0.184 3 
0.471 -0.175 0.074 3 
0.465 0.054 0.004 3 
0.485 -0.334 0.192 3 
0.471 -0.195 0.052 3 
0.485 -0.337 0.192 3 
0.486 -0.345 0.193 3 
0.466 -0.007 0.044 3 
0.482 -0.299 0.183 3 
0.473 -0.045 0.174 3 
0.472 -0.056 0.173 3 
0.466 0.003 0.103 3 
0.472 -0.067 0.173 3 
0.466 0.103 0.044 3 
0.462 0.213 0.014 3 
0.472 -0.075 0.173 3 
0.472 -0.087 0.174 3 
0.473 -0.095 0.174 3 
0.473 -0.106 0.174 3 
0.464 0.242 0.104 3 
0.473 -0.115 0.174 3 
0.462 0.104 0.012 3 
0.482 -0.306 0.183 3 
0.482 -0.316 0.184 3 
0.472 -0.187 0.094 3 
0.481 -0.325 0.184 3 
0.483 -0.335 0.185 3 
0.468 0.272 0.174 3 
0.481 -0.308 0.174 3 
0.464 0.338 0.14 3 
0.466 0.264 0.173 3 
0.464 0.072 0.004 3 
0.468 0.253 0.173 3 
0.471 0.053 0.173 3 
0.468 0.133 0.173 3 
0.475 -0.25 0.152 3 
0.47 0.122 0.173 3 
0.47 -0.097 0.143 3 
0.47 0.114 0.173 3 
0.47 0.103 0.173 3 
0.465 0.144 0.122 3 
0.47 0.094 0.173 3 
0.471 0.083 0.173 3 
0.471 0.072 0.173 3 
0.471 0.064 0.173 3 
0.469 0.314 0.164 3 
0.465 0.221 0.054 3 
0.47 0.044 0.173 3 
0.464 0.31 0.094 3 
0.47 0.034 0.173 3 
0.469 0.052 0.164 3 
0.47 0.023 0.173 3 
0.47 0.014 0.172 3 
0.47 0.003 0.173 3 
0.471 -0.007 0.173 3 
0.471 -0.015 0.173 3 
0.47 -0.026 0.173 3 
0.463 0.222 0.024 3 
0.475 -0.292 0.049 3 
0.464 0.174 0.046 3 
0.461 0.336 0.042 3 
0.461 0.333 0.042 3 
0.463 0.312 0.043 3 
0.462 0.304 0.043 3 
0.468 -0.066 0.044 3 
0.463 0.292 0.043 3 
0.464 0.283 0.043 3 
0.464 0.274 0.043 3 
0.464 0.262 0.043 3 
0.467 -0.055 0.034 3 
0.464 0.157 0.049 3 
0.464 0.252 0.043 3 
0.465 0.244 0.043 3 
0.464 0.238 0.043 3 
0.464 0.223 0.043 3 
0.465 0.221 0.043 3 
0.465 0.212 0.043 3 
0.464 0.205 0.043 3 
0.464 0.202 0.043 3 
0.464 0.194 0.044 3 
0.464 0.182 0.044 3 
0.464 0.174 0.044 3 
0.473 -0.247 0.052 3 
0.469 -0.115 0.052 3 
0.469 -0.126 0.052 3 
0.47 -0.135 0.052 3 
0.471 -0.147 0.052 3 
0.471 -0.155 0.052 3 
0.47 -0.166 0.052 3 
0.47 -0.177 0.052 3 
0.471 -0.187 0.052 3 
0.472 -0.208 0.052 3 
0.472 -0.216 0.052 3 
0.473 -0.235 0.052 3 
0.464 0.163 0.044 3 
0.473 -0.266 0.052 3 
0.473 -0.275 0.052 3 
0.474 -0.286 0.052 3 
0.475 -0.295 0.052 3 
0.477 -0.307 0.052 3 
0.477 -0.317 0.052 3 
0.478 -0.325 0.052 3 
0.479 -0.336 0.052 3 
0.464 0.262 0.049 3 
0.464 0.252 0.049 3 
0.464 0.177 0.049 3 
0.478 -0.328 0.043 3 
0.471 -0.147 0.044 3 
0.471 -0.155 0.044 3 
0.47 -0.175 0.044 3 
0.47 -0.186 0.044 3 
0.471 -0.195 0.044 3 
0.471 -0.207 0.044 3 
0.473 -0.226 0.044 3 
0.473 -0.235 0.044 3 
0.473 -0.247 0.044 3 
0.472 -0.265 0.044 3 
0.476 -0.296 0.044 3 
0.477 -0.307 0.043 3 
0.47 -0.135 0.044 3 
0.479 -0.336 0.043 3 
0.479 -0.347 0.043 3 
0.477 -0.355 0.043 3 
0.461 0.336 0.034 3 
0.461 0.333 0.034 3 
0.462 0.321 0.034 3 
0.463 0.312 0.034 3 
0.464 0.302 0.034 3 
0.464 0.293 0.034 3 
0.464 0.283 0.034 3 
0.474 -0.285 0.035 3 
0.467 0.022 0.044 3 
0.464 0.154 0.044 3 
0.465 0.149 0.044 3 
0.465 0.144 0.044 3 
0.465 0.133 0.044 3 
0.474 -0.295 0.012 3 
0.465 0.124 0.044 3 
0.466 0.094 0.044 3 
0.466 0.084 0.044 3 
0.465 0.073 0.044 3 
0.466 0.054 0.044 3 
0.467 0.033 0.044 3 
0.47 -0.105 0.052 3 
0.467 0.014 0.044 3 
0.467 0.003 0.044 3 
0.467 -0.015 0.044 3 
0.467 -0.025 0.044 3 
0.467 -0.047 0.044 3 
0.468 -0.055 0.044 3 
0.468 -0.077 0.044 3 
0.468 -0.085 0.044 3 
0.47 -0.096 0.044 3 
0.47 -0.105 0.044 3 
0.469 -0.115 0.044 3 
0.472 -0.208 0.064 3 
0.469 -0.115 0.063 3 
0.48 -0.348 0.052 3 
0.47 -0.127 0.063 3 
0.47 -0.135 0.063 3 
0.471 -0.147 0.063 3 
0.471 -0.155 0.063 3 
0.471 -0.166 0.063 3 
0.471 -0.175 0.063 3 
0.464 0.214 0.024 3 
0.471 -0.187 0.063 3 
0.472 -0.196 0.064 3 
0.475 -0.286 0.044 3 
0.469 -0.107 0.063 3 
0.472 -0.225 0.064 3 
0.473 -0.238 0.064 3 
0.473 -0.247 0.064 3 
0.473 -0.256 0.064 3 
0.473 -0.266 0.064 3 
0.473 -0.275 0.064 3 
0.475 -0.286 0.064 3 
0.475 -0.296 0.064 3 
0.464 0.24 0.054 3 
0.477 -0.307 0.064 3 
0.477 -0.317 0.064 3 
0.466 0.054 0.063 3 
0.465 0.177 0.063 3 
0.464 0.174 0.063 3 
0.464 -0.036 0.012 3 
0.465 0.172 0.063 3 
0.465 0.163 0.063 3 
0.465 0.144 0.063 3 
0.465 0.133 0.063 3 
0.466 0.103 0.063 3 
0.465 0.094 0.063 3 
0.466 0.084 0.063 3 
0.466 0.073 0.063 3 
0.479 -0.336 0.064 3 
0.466 0.024 0.063 3 
0.467 0.003 0.063 3 
0.467 -0.015 0.063 3 
0.468 -0.025 0.063 3 
0.468 -0.036 0.063 3 
0.468 -0.047 0.063 3 
0.468 -0.066 0.063 3 
0.464 0.163 0.033 3 
0.468 -0.077 0.063 3 
0.468 -0.085 0.063 3 
0.469 -0.096 0.063 3 
0.467 0.014 0.052 3 
0.465 0.144 0.052 3 
0.466 0.133 0.052 3 
0.466 0.114 0.052 3 
0.465 0.103 0.052 3 
0.465 0.094 0.052 3 
0.466 0.084 0.052 3 
0.466 0.073 0.052 3 
0.466 0.062 0.052 3 
0.466 0.054 0.052 3 
0.466 0.043 0.052 3 
0.467 0.033 0.052 3 
0.467 0.022 0.052 3 
0.465 0.152 0.052 3 
0.467 -0.007 0.052 3 
0.466 -0.015 0.052 3 
0.467 -0.025 0.052 3 
0.462 0.282 0.012 3 
0.467 -0.036 0.052 3 
0.468 -0.047 0.052 3 
0.468 -0.055 0.052 3 
0.468 -0.066 0.052 3 
0.468 -0.077 0.052 3 
0.467 -0.085 0.052 3 
0.469 -0.096 0.052 3 
0.465 0.262 0.054 3 
0.478 -0.356 0.064 3 
0.464 0.154 0.052 3 
0.465 0.244 0.06 3 
0.464 0.223 0.057 3 
0.474 -0.286 0.058 3 
0.463 0.339 0.054 3 
0.463 0.302 0.054 3 
0.463 0.293 0.054 3 
0.464 0.283 0.054 3 
0.465 0.278 0.054 3 
0.465 0.272 0.054 3 
0.478 -0.328 0.034 3 
0.465 0.253 0.054 3 
0.465 0.244 0.054 3 
0.464 0.232 0.054 3 
0.464 0.223 0.054 3 
0.465 0.212 0.054 3 
0.465 0.203 0.054 3 
0.464 0.2 0.054 3 
0.464 0.194 0.054 3 
0.465 0.186 0.054 3 
0.465 0.183 0.054 3 
0.465 0.163 0.052 3 
0.478 -0.346 0.013 3 
0.47 -0.158 0.022 3 
0.469 -0.177 0.022 3 
0.47 -0.186 0.022 3 
0.471 -0.195 0.022 3 
0.459 0.331 0.014 3 
0.461 0.322 0.014 3 
0.464 0.032 0.018 3 
0.464 -0.028 0.018 3 
0.474 -0.295 0.015 3 
0.476 -0.307 0.014 3 
0.476 -0.327 0.014 3 
0.476 -0.337 0.014 3 
0.469 -0.146 0.022 3 
0.462 0.304 0.012 3 
0.462 0.294 0.012 3 
0.461 0.262 0.013 3 
0.462 0.254 0.013 3 
0.461 0.241 0.013 3 
0.461 0.232 0.013 3 
0.461 0.224 0.013 3 
0.462 0.201 0.014 3 
0.463 0.193 0.014 3 
0.463 0.182 0.014 3 
0.463 0.174 0.014 3 
0.466 -0.015 0.023 3 
0.464 0.067 0.023 3 
0.465 0.064 0.023 3 
0.464 0.062 0.023 3 
0.465 0.054 0.023 3 
0.464 0.046 0.023 3 
0.464 0.038 0.023 3 
0.465 0.032 0.023 3 
0.466 0.024 0.023 3 
0.466 0.014 0.023 3 
0.468 0.003 0.023 3 
0.466 -0.007 0.023 3 
0.462 0.162 0.014 3 
0.466 -0.025 0.023 3 
0.466 -0.036 0.023 3 
0.465 -0.047 0.023 3 
0.466 -0.055 0.023 3 
0.466 -0.066 0.023 3 
0.467 -0.076 0.023 3 
0.469 -0.096 0.023 3 
0.469 -0.107 0.023 3 
0.469 -0.115 0.023 3 
0.469 -0.126 0.023 3 
0.469 -0.138 0.022 3 
0.465 -0.047 0.007 3 
0.464 -0.025 0.012 3 
0.464 -0.047 0.012 3 
0.464 -0.055 0.012 3 
0.465 -0.057 0.012 3 
0.465 -0.065 0.012 3 
0.467 -0.096 0.012 3 
0.467 -0.106 0.012 3 
0.467 -0.117 0.012 3 
0.475 -0.302 0.009 3 
0.465 0.043 0.009 3 
0.465 0.046 0.007 3 
0.465 -0.025 0.007 3 
0.465 -0.015 0.012 3 
0.466 0.133 0.003 3 
0.464 0.064 0.004 3 
0.466 0.043 0.004 3 
0.465 0.032 0.004 3 
0.465 -0.025 0.004 3 
0.465 -0.047 0.004 3 
0.467 -0.055 0.004 3 
0.467 -0.066 0.004 3 
0.469 -0.107 0.004 3 
0.47 -0.116 0.003 3 
0.466 0.073 0.001 3 
0.471 -0.228 0.013 3 
0.462 0.154 0.014 3 
0.462 0.134 0.014 3 
0.464 -0.039 0.015 3 
0.464 -0.047 0.015 3 
0.464 -0.055 0.015 3 
0.468 -0.145 0.014 3 
0.468 -0.165 0.014 3 
0.467 -0.176 0.014 3 
0.468 -0.185 0.014 3 
0.469 -0.197 0.014 3 
0.47 -0.215 0.014 3 
0.465 0.073 0.023 3 
0.472 -0.235 0.013 3 
0.471 -0.246 0.013 3 
0.472 -0.255 0.013 3 
0.473 -0.275 0.012 3 
0.462 0.112 0.012 3 
0.462 0.093 0.012 3 
0.462 0.083 0.012 3 
0.463 0.072 0.012 3 
0.463 0.064 0.012 3 
0.463 0.053 0.012 3 
0.464 0.043 0.012 3 
0.469 -0.085 0.033 3 
0.466 0.043 0.033 3 
0.466 0.032 0.034 3 
0.468 -0.085 0.023 3 
0.466 0.024 0.034 3 
0.467 0.014 0.033 3 
0.467 0.003 0.034 3 
0.467 -0.007 0.034 3 
0.467 -0.015 0.034 3 
0.467 -0.025 0.034 3 
0.467 -0.036 0.034 3 
0.467 -0.047 0.034 3 
0.468 -0.077 0.033 3 
0.466 0.054 0.033 3 
0.47 -0.096 0.033 3 
0.47 -0.105 0.033 3 
0.47 -0.116 0.033 3 
0.463 0.123 0.012 3 
0.47 -0.127 0.033 3 
0.47 -0.135 0.033 3 
0.471 -0.147 0.033 3 
0.47 -0.155 0.033 3 
0.47 -0.175 0.033 3 
0.47 -0.186 0.033 3 
0.471 -0.195 0.033 3 
0.464 0.154 0.033 3 
0.479 -0.336 0.034 3 
0.479 -0.347 0.034 3 
0.475 -0.357 0.034 3 
0.463 0.264 0.032 3 
0.464 0.253 0.032 3 
0.464 0.244 0.032 3 
0.464 0.232 0.032 3 
0.464 0.223 0.032 3 
0.464 0.214 0.032 3 
0.463 0.193 0.033 3 
0.464 0.174 0.033 3 
0.472 -0.208 0.033 3 
0.464 0.143 0.033 3 
0.465 0.136 0.033 3 
0.465 0.133 0.033 3 
0.464 0.13 0.033 3 
0.465 0.124 0.033 3 
0.464 0.121 0.033 3 
0.465 0.113 0.033 3 
0.466 0.103 0.033 3 
0.466 0.094 0.033 3 
0.466 0.073 0.033 3 
0.466 0.062 0.033 3 
0.476 -0.355 0.022 3 
0.472 -0.217 0.024 3 
0.472 -0.226 0.024 3 
0.472 -0.256 0.024 3 
0.474 -0.266 0.024 3 
0.474 -0.275 0.024 3 
0.474 -0.285 0.024 3 
0.475 -0.289 0.024 3 
0.477 -0.307 0.023 3 
0.477 -0.317 0.023 3 
0.478 -0.329 0.023 3 
0.479 -0.337 0.022 3 
0.479 -0.347 0.022 3 
0.472 -0.208 0.024 3 
0.463 0.182 0.022 3 
0.464 0.174 0.022 3 
0.463 0.162 0.022 3 
0.463 0.154 0.022 3 
0.463 0.143 0.022 3 
0.465 0.124 0.022 3 
0.464 0.113 0.023 3 
0.464 0.102 0.023 3 
0.464 0.094 0.023 3 
0.465 0.089 0.023 3 
0.464 0.08 0.023 3 
0.474 -0.285 0.029 3 
0.473 -0.217 0.033 3 
0.473 -0.226 0.033 3 
0.473 -0.235 0.033 3 
0.473 -0.247 0.033 3 
0.473 -0.257 0.032 3 
0.473 -0.266 0.032 3 
0.474 -0.275 0.032 3 
0.475 -0.286 0.032 3 
0.476 -0.296 0.032 3 
0.477 -0.307 0.032 3 
0.474 -0.356 0.031 3 
0.464 0.182 0.063 3 
0.464 0.34 0.022 3 
0.462 0.334 0.022 3 
0.462 0.324 0.023 3 
0.463 0.314 0.023 3 
0.463 0.301 0.023 3 
0.463 0.264 0.024 3 
0.463 0.252 0.024 3 
0.463 0.243 0.024 3 
0.463 0.234 0.024 3 
0.464 0.203 0.024 3 
0.464 0.102 0.025 3 
0.465 0.324 0.094 3 
0.464 0.232 0.098 3 
0.461 0.271 0.013 3 
0.464 0.152 0.098 3 
0.477 -0.295 0.102 3 
0.478 -0.306 0.102 3 
0.479 -0.327 0.102 3 
0.479 -0.338 0.103 3 
0.48 -0.346 0.103 3 
0.479 -0.358 0.103 3 
0.465 0.064 0.044 3 
0.464 0.34 0.094 3 
0.465 0.334 0.094 3 
0.476 -0.288 0.104 3 
0.464 0.32 0.094 3 
0.464 -0.02 0.012 3 
0.465 0.314 0.094 3 
0.465 0.304 0.094 3 
0.465 0.292 0.094 3 
0.465 0.282 0.094 3 
0.465 0.043 0.023 3 
0.464 0.263 0.093 3 
0.464 0.254 0.093 3 
0.465 0.244 0.093 3 
0.464 0.232 0.093 3 
0.47 -0.147 0.102 3 
0.465 0.341 0.103 3 
0.463 0.336 0.103 3 
0.462 0.331 0.102 3 
0.465 0.331 0.103 3 
0.465 0.324 0.103 3 
0.465 0.314 0.102 3 
0.466 0.302 0.102 3 
0.466 0.293 0.102 3 
0.465 0.282 0.102 3 
0.465 0.273 0.102 3 
0.465 0.236 0.101 3 
0.465 0.224 0.093 3 
0.472 -0.176 0.102 3 
0.473 -0.188 0.103 3 
0.473 -0.197 0.103 3 
0.473 -0.205 0.103 3 
0.473 -0.217 0.103 3 
0.472 -0.225 0.103 3 
0.473 -0.235 0.103 3 
0.474 -0.245 0.103 3 
0.474 -0.257 0.104 3 
0.474 -0.267 0.104 3 
0.475 -0.277 0.104 3 
0.47 -0.105 0.093 3 
0.467 0.014 0.092 3 
0.466 0.003 0.092 3 
0.466 -0.007 0.092 3 
0.466 -0.015 0.092 3 
0.468 -0.025 0.093 3 
0.467 -0.036 0.093 3 
0.468 -0.047 0.093 3 
0.468 -0.055 0.093 3 
0.469 -0.066 0.093 3 
0.469 -0.077 0.093 3 
0.469 -0.085 0.093 3 
0.47 -0.097 0.093 3 
0.466 0.022 0.092 3 
0.47 -0.116 0.093 3 
0.469 -0.127 0.093 3 
0.463 0.193 0.022 3 
0.469 -0.135 0.093 3 
0.471 -0.155 0.094 3 
0.47 -0.166 0.094 3 
0.471 -0.175 0.094 3 
0.472 -0.196 0.094 3 
0.473 -0.205 0.094 3 
0.473 -0.217 0.094 3 
0.472 -0.228 0.094 3 
0.465 0.122 0.092 3 
0.465 0.212 0.093 3 
0.465 0.203 0.093 3 
0.464 0.194 0.093 3 
0.465 0.192 0.093 3 
0.465 0.183 0.093 3 
0.464 0.174 0.093 3 
0.464 0.163 0.092 3 
0.465 0.147 0.093 3 
0.465 0.144 0.092 3 
0.464 0.062 0.026 3 
0.465 0.133 0.092 3 
0.472 -0.235 0.024 3 
0.466 0.114 0.093 3 
0.465 0.103 0.092 3 
0.465 0.092 0.092 3 
0.464 0.11 0.025 3 
0.465 0.084 0.092 3 
0.465 0.073 0.092 3 
0.465 0.062 0.092 3 
0.464 0.121 0.023 3 
0.466 0.054 0.092 3 
0.467 0.043 0.092 3 
0.466 0.033 0.092 3 
0.475 -0.255 0.112 3 
0.471 -0.156 0.113 3 
0.472 -0.167 0.113 3 
0.472 -0.176 0.113 3 
0.473 -0.197 0.114 3 
0.473 -0.206 0.114 3 
0.473 -0.217 0.114 3 
0.473 -0.226 0.114 3 
0.463 0.333 0.111 3 
0.465 0.243 0.11 3 
0.465 0.231 0.11 3 
0.474 -0.236 0.112 3 
0.474 -0.245 0.112 3 
0.471 -0.147 0.113 3 
0.474 -0.258 0.112 3 
0.474 -0.267 0.112 3 
0.475 -0.277 0.113 3 
0.476 -0.285 0.113 3 
0.477 -0.295 0.113 3 
0.478 -0.306 0.114 3 
0.479 -0.317 0.114 3 
0.464 0.337 0.108 3 
0.475 -0.274 0.11 3 
0.479 -0.327 0.111 3 
0.473 -0.247 0.083 3 
0.465 0.192 0.112 3 
0.466 0.293 0.114 3 
0.464 0.032 0.012 3 
0.465 0.283 0.113 3 
0.465 0.273 0.113 3 
0.465 0.252 0.113 3 
0.464 0.245 0.113 3 
0.464 0.242 0.112 3 
0.464 0.233 0.112 3 
0.465 0.224 0.112 3 
0.462 0.321 0.043 3 
0.465 0.212 0.112 3 
0.479 -0.338 0.112 3 
0.464 0.166 0.111 3 
0.464 0.152 0.111 3 
0.469 -0.077 0.112 3 
0.469 -0.085 0.112 3 
0.468 -0.066 0.033 3 
0.47 -0.097 0.112 3 
0.47 -0.105 0.112 3 
0.469 -0.116 0.112 3 
0.469 -0.127 0.112 3 
0.47 -0.136 0.113 3 
0.473 -0.185 0.114 3 
0.468 -0.025 0.103 3 
0.465 0.103 0.103 3 
0.465 0.092 0.103 3 
0.465 0.084 0.103 3 
0.465 0.073 0.103 3 
0.466 0.062 0.103 3 
0.469 -0.096 0.082 3 
0.465 0.054 0.103 3 
0.466 0.033 0.103 3 
0.466 0.014 0.103 3 
0.466 -0.006 0.103 3 
0.464 0.194 0.084 3 
0.467 -0.015 0.103 3 
0.466 0.043 0.044 3 
0.468 -0.047 0.104 3 
0.468 -0.055 0.104 3 
0.469 -0.066 0.104 3 
0.469 -0.077 0.104 3 
0.47 -0.086 0.104 3 
0.464 0.232 0.043 3 
0.47 -0.097 0.104 3 
0.469 -0.116 0.104 3 
0.465 0.272 0.063 3 
0.469 -0.127 0.104 3 
0.47 -0.135 0.104 3 
0.465 0.203 0.104 3 
0.48 -0.346 0.112 3 
0.473 -0.248 0.024 3 
0.479 -0.356 0.112 3 
0.464 0.266 0.104 3 
0.464 0.26 0.104 3 
0.464 0.254 0.104 3 
0.464 0.323 0.082 3 
0.465 0.251 0.104 3 
0.465 0.233 0.104 3 
0.465 0.224 0.104 3 
0.465 0.212 0.104 3 
0.473 -0.355 0.096 3 
0.465 0.192 0.104 3 
0.465 0.183 0.104 3 
0.464 0.177 0.103 3 
0.464 0.174 0.103 3 
0.464 0.163 0.103 3 
0.465 0.155 0.103 3 
0.465 0.152 0.103 3 
0.465 0.144 0.103 3 
0.465 0.133 0.103 3 
0.466 0.122 0.103 3 
0.465 0.114 0.103 3 
0.465 0.073 0.074 3 
0.465 0.183 0.074 3 
0.465 0.172 0.074 3 
0.464 0.166 0.073 3 
0.465 0.163 0.074 3 
0.465 0.152 0.074 3 
0.465 0.144 0.074 3 
0.465 0.133 0.074 3 
0.466 0.122 0.074 3 
0.466 0.114 0.074 3 
0.466 0.103 0.074 3 
0.465 0.094 0.074 3 
0.465 0.084 0.074 3 
0.465 0.192 0.074 3 
0.466 0.062 0.074 3 
0.466 0.033 0.074 3 
0.465 0.022 0.074 3 
0.465 0.014 0.074 3 
0.466 0.003 0.074 3 
0.467 -0.007 0.074 3 
0.467 -0.015 0.074 3 
0.468 -0.025 0.074 3 
0.467 -0.036 0.074 3 
0.468 -0.055 0.074 3 
0.469 -0.085 0.074 3 
0.464 0.294 0.074 3 
0.465 0.256 0.079 3 
0.464 0.067 0.079 3 
0.479 -0.336 0.082 3 
0.479 -0.347 0.082 3 
0.478 -0.356 0.082 3 
0.464 0.34 0.074 3 
0.463 0.332 0.074 3 
0.465 0.331 0.074 3 
0.463 0.322 0.074 3 
0.464 0.313 0.074 3 
0.464 0.303 0.074 3 
0.469 -0.096 0.074 3 
0.464 0.284 0.074 3 
0.464 0.272 0.074 3 
0.465 0.262 0.074 3 
0.465 0.244 0.074 3 
0.465 0.232 0.074 3 
0.465 0.224 0.074 3 
0.465 0.212 0.074 3 
0.464 0.205 0.074 3 
0.465 0.203 0.074 3 
0.464 0.2 0.074 3 
0.464 0.194 0.074 3 
0.464 0.294 0.062 3 
0.476 -0.307 0.073 3 
0.477 -0.315 0.073 3 
0.478 -0.325 0.073 3 
0.48 -0.337 0.073 3 
0.48 -0.348 0.073 3 
0.477 -0.355 0.073 3 
0.464 0.24 0.068 3 
0.464 0.232 0.068 3 
0.464 0.183 0.068 3 
0.463 0.322 0.062 3 
0.463 0.312 0.062 3 
0.464 0.303 0.062 3 
0.476 -0.297 0.073 3 
0.464 0.284 0.063 3 
0.465 0.275 0.063 3 
0.465 0.253 0.063 3 
0.467 0.003 0.052 3 
0.464 0.243 0.063 3 
0.464 0.232 0.063 3 
0.465 0.224 0.063 3 
0.465 0.212 0.063 3 
0.465 0.203 0.063 3 
0.464 0.2 0.063 3 
0.464 0.194 0.063 3 
0.471 -0.187 0.072 3 
0.469 -0.107 0.074 3 
0.469 -0.116 0.074 3 
0.469 -0.126 0.074 3 
0.47 -0.135 0.074 3 
0.471 -0.155 0.074 3 
0.471 -0.166 0.074 3 
0.475 -0.283 0.075 3 
0.465 0.341 0.071 3 
0.473 -0.235 0.072 3 
0.465 0.265 0.071 3 
0.464 0.163 0.071 3 
0.464 0.336 0.08 3 
0.472 -0.196 0.072 3 
0.472 -0.205 0.072 3 
0.466 0.084 0.033 3 
0.472 -0.216 0.072 3 
0.465 0.124 0.052 3 
0.472 -0.225 0.072 3 
0.472 -0.246 0.072 3 
0.473 -0.266 0.072 3 
0.474 -0.276 0.072 3 
0.475 -0.283 0.072 3 
0.475 -0.286 0.072 3 
0.466 0.114 0.084 3 
0.464 0.203 0.084 3 
0.465 0.189 0.084 3 
0.465 0.183 0.084 3 
0.465 0.172 0.084 3 
0.471 -0.187 0.083 3 
0.464 0.168 0.084 3 
0.462 0.334 0.054 3 
0.464 0.163 0.084 3 
0.464 0.152 0.084 3 
0.465 0.144 0.084 3 
0.465 0.133 0.084 3 
0.466 0.122 0.084 3 
0.464 0.205 0.084 3 
0.465 0.103 0.084 3 
0.465 0.135 0.006 3 
0.465 0.092 0.084 3 
0.465 0.084 0.084 3 
0.459 0.335 0.014 3 
0.465 0.073 0.084 3 
0.467 -0.047 0.074 3 
0.465 0.062 0.084 3 
0.466 0.054 0.084 3 
0.467 0.043 0.084 3 
0.466 0.033 0.084 3 
0.476 -0.297 0.093 3 
0.464 0.266 0.09 3 
0.464 0.223 0.09 3 
0.464 0.18 0.09 3 
0.472 -0.237 0.092 3 
0.473 -0.257 0.092 3 
0.462 0.311 0.054 3 
0.474 -0.267 0.092 3 
0.475 -0.271 0.092 3 
0.469 -0.126 0.044 3 
0.475 -0.277 0.092 3 
0.464 0.293 0.023 3 
0.466 0.022 0.084 3 
0.477 -0.305 0.093 3 
0.478 -0.316 0.093 3 
0.479 -0.327 0.094 3 
0.479 -0.337 0.094 3 
0.48 -0.348 0.094 3 
0.477 -0.355 0.094 3 
0.474 -0.356 0.093 3 
0.464 0.303 0.088 3 
0.465 0.25 0.088 3 
0.466 0.043 0.063 3 
0.464 0.333 0.085 3 
0.471 -0.166 0.083 3 
0.467 -0.036 0.082 3 
0.467 -0.047 0.082 3 
0.467 -0.055 0.082 3 
0.468 -0.066 0.082 3 
0.468 -0.077 0.082 3 
0.468 -0.085 0.082 3 
0.47 -0.105 0.082 3 
0.469 -0.116 0.082 3 
0.469 -0.127 0.082 3 
0.464 0.154 0.055 3 
0.471 -0.147 0.083 3 
0.471 -0.155 0.083 3 
0.467 -0.025 0.082 3 
0.471 -0.175 0.083 3 
0.471 -0.195 0.083 3 
0.472 -0.216 0.083 3 
0.472 -0.225 0.083 3 
0.472 -0.237 0.083 3 
0.473 -0.256 0.084 3 
0.473 -0.266 0.084 3 
0.462 0.142 0.014 3 
0.475 -0.287 0.084 3 
0.475 -0.296 0.084 3 
0.477 -0.318 0.084 3 
0.464 0.272 0.082 3 
0.466 0.014 0.084 3 
0.466 0.003 0.084 3 
0.474 -0.276 0.087 3 
0.465 0.341 0.083 3 
0.464 0.333 0.083 3 
0.465 0.331 0.083 3 
0.464 0.313 0.082 3 
0.465 0.308 0.082 3 
0.465 0.304 0.082 3 
0.465 0.291 0.082 3 
0.464 0.284 0.082 3 
0.466 0.303 0.114 3 
0.464 0.263 0.082 3 
0.465 0.244 0.082 3 
0.466 0.062 0.063 3 
0.465 0.232 0.082 3 
0.464 0.226 0.082 3 
0.464 0.223 0.082 3 
0.465 0.215 0.082 3 
0.463 0.273 0.024 3 
0.465 0.209 0.082 3 
0.464 0.18 0.082 3 
0.465 0.147 0.082 3 
