# .PCD v0.7 - Point Cloud Data file
FIELDS x y z intensity
SIZE 4 4 4 4
TYPE F F F F
COUNT 1 1 1 1
WIDTH 2382
HEIGHT 1
VIEWPOINT 0 0 0 1 0 0 0
POINTS 2382
DATA ascii
0.376 -0.208 -0.025 1 
0.374 -0.195 -0.024 1 
0.373 -0.185 -0.023 1 
0.37 -0.146 -0.02 1 
0.364 -0.085 -0.017 1 
0.362 -0.055 -0.015 1 
0.364 -0.036 -0.016 1 
0.362 -0.026 -0.016 1 
0.361 -0.02 -0.015 1 
0.352 -0.006 -0.012 1 
0.344 0.019 -0.009 1 
0.354 0.029 -0.013 1 
0.358 0.052 -0.014 1 
0.362 0.064 -0.016 1 
0.36 0.074 -0.016 1 
0.362 0.093 -0.017 1 
0.353 0.113 -0.014 1 
0.352 0.123 -0.014 1 
0.352 0.134 -0.014 1 
0.35 0.163 -0.015 1 
0.349 0.17 -0.015 1 
0.35 0.183 -0.016 1 
0.384 -0.247 -0.027 1 
0.374 -0.178 -0.021 1 
0.374 -0.136 -0.019 1 
0.373 -0.126 -0.019 1 
0.373 -0.116 -0.019 1 
0.374 -0.105 -0.019 1 
0.373 -0.076 -0.018 1 
0.363 0.043 -0.014 1 
0.364 0.048 -0.015 1 
0.364 0.083 -0.015 1 
0.363 0.102 -0.015 1 
0.36 0.114 -0.015 1 
0.359 0.124 -0.015 1 
0.357 0.134 -0.014 1 
0.352 0.213 -0.017 1 
0.353 0.216 -0.017 1 
0.391 -0.255 -0.028 1 
0.383 -0.206 -0.023 1 
0.381 -0.195 -0.022 1 
0.38 -0.165 -0.02 1 
0.381 -0.156 -0.02 1 
0.374 -0.095 -0.017 1 
0.374 -0.089 -0.017 1 
0.373 -0.055 -0.016 1 
0.374 -0.046 -0.016 1 
0.374 -0.04 -0.016 1 
0.371 -0.025 -0.015 1 
0.362 -0.004 -0.012 1 
0.353 0.022 -0.009 1 
0.357 0.024 -0.01 1 
0.364 0.03 -0.013 1 
0.367 0.036 -0.014 1 
0.371 0.054 -0.016 1 
0.37 0.083 -0.016 1 
0.368 0.103 -0.015 1 
0.364 0.145 -0.015 1 
0.36 0.187 -0.016 1 
0.392 -0.233 -0.025 1 
0.384 -0.126 -0.019 1 
0.384 -0.122 -0.019 1 
0.382 -0.105 -0.018 1 
0.38 -0.096 -0.017 1 
0.384 -0.085 -0.018 1 
0.383 -0.077 -0.018 1 
0.383 -0.055 -0.017 1 
0.38 -0.035 -0.016 1 
0.374 -0.016 -0.014 1 
0.325 0.001 0.002 1 
0.343 0.017 -0.004 1 
0.374 0.032 -0.014 1 
0.374 0.091 -0.015 1 
0.373 0.123 -0.016 1 
0.374 0.132 -0.016 1 
0.368 0.144 -0.015 1 
0.364 0.226 -0.017 1 
0.359 0.223 -0.016 1 
0.404 -0.264 -0.028 1 
0.403 -0.241 -0.026 1 
0.393 -0.216 -0.022 1 
0.394 -0.206 -0.022 1 
0.392 -0.186 -0.021 1 
0.39 -0.175 -0.02 1 
0.39 -0.166 -0.02 1 
0.391 -0.156 -0.02 1 
0.39 -0.125 -0.019 1 
0.393 -0.116 -0.02 1 
0.391 -0.107 -0.019 1 
0.388 -0.077 -0.017 1 
0.384 -0.068 -0.016 1 
0.39 -0.055 -0.018 1 
0.384 -0.046 -0.016 1 
0.388 -0.027 -0.017 1 
0.382 -0.005 -0.015 1 
0.324 0.004 0.003 1 
0.324 0.013 0.003 1 
0.325 0.014 0.003 1 
0.384 0.024 -0.016 1 
0.381 0.043 -0.015 1 
0.384 0.053 -0.016 1 
0.383 0.073 -0.016 1 
0.383 0.103 -0.017 1 
0.382 0.114 -0.017 1 
0.379 0.123 -0.016 1 
0.374 0.156 -0.015 1 
0.373 0.183 -0.016 1 
0.369 0.213 -0.016 1 
0.41 -0.285 -0.029 1 
0.409 -0.278 -0.028 1 
0.405 -0.246 -0.025 1 
0.384 -0.22 -0.024 1 
0.404 -0.227 -0.024 1 
0.38 -0.185 -0.021 1 
0.394 -0.147 -0.018 1 
0.394 -0.069 -0.017 1 
0.392 -0.045 -0.016 1 
0.394 -0.005 -0.017 1 
0.329 0.016 0.003 1 
0.384 0.024 -0.014 1 
0.383 0.027 -0.014 1 
0.389 0.054 -0.016 1 
0.389 0.083 -0.016 1 
0.381 0.144 -0.015 1 
0.38 0.148 -0.015 1 
0.378 0.151 -0.014 1 
0.383 0.159 -0.016 1 
0.374 0.222 -0.016 1 
0.373 0.233 -0.017 1 
0.373 0.236 -0.017 1 
0.413 -0.265 -0.026 1 
0.411 -0.255 -0.025 1 
0.411 -0.246 -0.024 1 
0.404 -0.219 -0.021 1 
0.402 -0.206 -0.02 1 
0.402 -0.196 -0.02 1 
0.4 -0.185 -0.019 1 
0.404 -0.147 -0.019 1 
0.403 -0.135 -0.019 1 
0.401 -0.125 -0.018 1 
0.403 -0.115 -0.018 1 
0.401 -0.107 -0.018 1 
0.404 -0.089 -0.018 1 
0.401 -0.077 -0.017 1 
0.4 -0.066 -0.017 1 
0.401 -0.056 -0.017 1 
0.4 -0.045 -0.017 1 
0.403 -0.035 -0.018 1 
0.4 -0.016 -0.017 1 
0.401 -0.007 -0.017 1 
0.392 0.024 -0.015 1 
0.393 0.033 -0.015 1 
0.394 0.064 -0.016 1 
0.394 0.07 -0.016 1 
0.394 0.103 -0.016 1 
0.39 0.133 -0.016 1 
0.39 0.144 -0.016 1 
0.382 0.203 -0.016 1 
0.378 0.244 -0.017 1 
0.419 -0.257 -0.025 1 
0.413 -0.235 -0.022 1 
0.401 0.034 -0.015 1 
0.4 0.082 -0.016 1 
0.4 0.093 -0.016 1 
0.399 0.104 -0.016 1 
0.401 0.113 -0.016 1 
0.394 0.153 -0.015 1 
0.394 0.164 -0.016 1 
0.392 0.184 -0.016 1 
0.387 0.186 -0.014 1 
0.388 0.194 -0.015 1 
0.389 0.223 -0.016 1 
0.384 0.25 -0.016 1 
0.423 -0.296 -0.025 1 
0.424 -0.288 -0.025 1 
0.425 -0.286 -0.025 1 
0.423 -0.278 -0.024 1 
0.425 -0.275 -0.025 1 
0.43 -0.268 -0.026 1 
0.423 -0.258 -0.024 1 
0.418 -0.237 -0.021 1 
0.413 -0.225 -0.019 1 
0.364 -0.006 -0.013 1 
0.413 -0.215 -0.019 1 
0.412 -0.195 -0.019 1 
0.414 -0.172 -0.019 1 
0.351 0.194 -0.017 1 
0.413 -0.138 -0.017 1 
0.389 -0.245 -0.027 1 
0.414 -0.12 -0.017 1 
0.412 -0.105 -0.017 1 
0.411 -0.096 -0.016 1 
0.413 -0.085 -0.017 1 
0.411 -0.076 -0.016 1 
0.409 -0.066 -0.015 1 
0.413 -0.045 -0.016 1 
0.404 0.123 -0.015 1 
0.402 0.134 -0.015 1 
0.354 0.202 -0.017 1 
0.4 0.141 -0.015 1 
0.399 0.143 -0.014 1 
0.399 0.147 -0.014 1 
0.399 0.154 -0.015 1 
0.398 0.193 -0.016 1 
0.393 0.198 -0.014 1 
0.393 0.203 -0.015 1 
0.394 0.243 -0.017 1 
0.393 0.253 -0.017 1 
0.429 -0.306 -0.025 1 
0.431 -0.296 -0.025 1 
0.419 -0.225 -0.019 1 
0.42 -0.218 -0.019 1 
0.417 -0.196 -0.018 1 
0.419 -0.175 -0.018 1 
0.42 -0.166 -0.018 1 
0.394 0.214 -0.015 1 
0.422 -0.126 -0.018 1 
0.419 -0.097 -0.016 1 
0.417 -0.085 -0.016 1 
0.42 -0.065 -0.016 1 
0.421 -0.026 -0.016 1 
0.418 -0.01 -0.016 1 
0.414 0.038 -0.015 1 
0.412 0.073 -0.015 1 
0.413 0.094 -0.015 1 
0.413 0.103 -0.015 1 
0.412 0.114 -0.015 1 
0.411 0.123 -0.015 1 
0.408 0.132 -0.014 1 
0.408 0.135 -0.015 1 
0.408 0.151 -0.015 1 
0.404 0.164 -0.014 1 
0.404 0.174 -0.015 1 
0.404 0.179 -0.015 1 
0.401 0.198 -0.015 1 
0.401 0.215 -0.015 1 
0.403 0.234 -0.016 1 
0.4 0.244 -0.016 1 
0.394 0.259 -0.015 1 
0.434 -0.306 -0.024 1 
0.433 -0.277 -0.022 1 
0.43 -0.257 -0.02 1 
0.434 -0.246 -0.021 1 
0.432 -0.236 -0.02 1 
0.421 -0.157 -0.016 1 
0.424 -0.115 -0.016 1 
0.424 -0.113 -0.016 1 
0.428 -0.067 -0.016 1 
0.377 -0.026 -0.015 1 
0.424 -0.02 -0.015 1 
0.421 0.032 -0.015 1 
0.423 0.044 -0.015 1 
0.421 0.05 -0.015 1 
0.419 0.059 -0.014 1 
0.42 0.064 -0.015 1 
0.419 0.073 -0.014 1 
0.42 0.094 -0.015 1 
0.419 0.103 -0.015 1 
0.418 0.105 -0.015 1 
0.417 0.128 -0.015 1 
0.412 0.144 -0.014 1 
0.413 0.149 -0.014 1 
0.415 0.153 -0.015 1 
0.415 0.157 -0.015 1 
0.414 0.162 -0.015 1 
0.411 0.164 -0.014 1 
0.38 0.031 -0.015 1 
0.41 0.179 -0.014 1 
0.413 0.183 -0.015 1 
0.403 0.209 -0.013 1 
0.404 -0.237 -0.024 1 
0.409 0.222 -0.015 1 
0.401 0.259 -0.015 1 
0.402 0.271 -0.016 1 
0.434 -0.29 -0.02 1 
0.441 -0.276 -0.021 1 
0.432 -0.225 -0.017 1 
0.432 -0.208 -0.017 1 
0.432 -0.197 -0.017 1 
0.429 -0.185 -0.016 1 
0.432 -0.176 -0.017 1 
0.43 -0.145 -0.015 1 
0.434 -0.107 -0.016 1 
0.434 -0.085 -0.016 1 
0.434 -0.08 -0.016 1 
0.435 -0.064 -0.016 1 
0.433 -0.056 -0.015 1 
0.433 -0.047 -0.015 1 
0.364 -0.045 -0.016 1 
0.43 -0.025 -0.015 1 
0.434 -0.011 -0.016 1 
0.428 0.035 -0.014 1 
0.429 0.043 -0.015 1 
0.429 0.045 -0.015 1 
0.424 0.103 -0.014 1 
0.423 0.124 -0.014 1 
0.42 0.163 -0.014 1 
0.402 0.064 -0.016 1 
0.411 0.214 -0.013 1 
0.414 0.229 -0.015 1 
0.415 0.233 -0.015 1 
0.415 0.241 -0.015 1 
0.414 0.242 -0.015 1 
0.409 0.264 -0.015 1 
0.411 0.272 -0.016 1 
0.444 -0.297 -0.02 1 
0.442 -0.237 -0.018 1 
0.436 -0.166 -0.015 1 
0.436 -0.156 -0.015 1 
0.436 -0.146 -0.015 1 
0.438 -0.137 -0.015 1 
0.44 -0.105 -0.015 1 
0.439 -0.067 -0.015 1 
0.439 -0.035 -0.014 1 
0.478 -0.01 -0.025 1 
0.327 0.016 0.014 1 
0.433 0.053 -0.013 1 
0.434 0.063 -0.014 1 
0.432 0.074 -0.013 1 
0.43 0.083 -0.013 1 
0.413 -0.059 -0.017 1 
0.431 0.093 -0.013 1 
0.428 0.124 -0.013 1 
0.424 0.153 -0.012 1 
0.419 0.183 -0.012 1 
0.416 0.203 -0.012 1 
0.417 0.284 -0.015 1 
0.414 0.284 -0.014 1 
0.44 -0.255 -0.015 1 
0.424 0.093 -0.014 1 
0.446 -0.246 -0.016 1 
0.446 -0.237 -0.016 1 
0.442 -0.215 -0.015 1 
0.42 -0.076 -0.016 1 
0.445 -0.196 -0.015 1 
0.444 -0.187 -0.015 1 
0.442 -0.178 -0.014 1 
0.439 -0.165 -0.013 1 
0.44 -0.155 -0.013 1 
0.442 -0.146 -0.014 1 
0.442 -0.126 -0.013 1 
0.441 -0.118 -0.013 1 
0.444 -0.106 -0.014 1 
0.423 0.083 -0.013 1 
0.444 -0.086 -0.013 1 
0.444 -0.081 -0.013 1 
0.444 -0.066 -0.013 1 
0.443 -0.056 -0.013 1 
0.42 0.053 -0.014 1 
0.442 -0.026 -0.013 1 
0.444 -0.006 -0.013 1 
0.432 0.143 -0.012 1 
0.43 0.154 -0.012 1 
0.427 0.173 -0.011 1 
0.424 0.186 -0.011 1 
0.424 0.212 -0.012 1 
0.424 0.222 -0.012 1 
0.421 0.233 -0.012 1 
0.423 0.243 -0.012 1 
0.424 0.246 -0.013 1 
0.421 0.274 -0.013 1 
0.419 0.284 -0.013 1 
0.454 -0.335 -0.019 1 
0.454 -0.321 -0.018 1 
0.451 -0.295 -0.016 1 
0.45 -0.285 -0.016 1 
0.444 -0.267 -0.014 1 
0.439 -0.251 -0.012 1 
0.449 -0.24 -0.014 1 
0.452 -0.225 -0.015 1 
0.45 -0.216 -0.014 1 
0.449 -0.196 -0.014 1 
0.45 -0.185 -0.014 1 
0.451 -0.156 -0.013 1 
0.452 -0.146 -0.014 1 
0.45 -0.116 -0.013 1 
0.451 -0.106 -0.013 1 
0.45 -0.096 -0.013 1 
0.45 -0.085 -0.012 1 
0.45 -0.065 -0.012 1 
0.45 -0.037 -0.012 1 
0.441 0.032 -0.01 1 
0.443 0.035 -0.011 1 
0.444 0.063 -0.011 1 
0.443 0.072 -0.011 1 
0.443 0.082 -0.011 1 
0.442 0.102 -0.011 1 
0.441 0.112 -0.011 1 
0.44 0.124 -0.011 1 
0.433 0.182 -0.011 1 
0.432 0.194 -0.011 1 
0.429 0.232 -0.011 1 
0.421 0.292 -0.011 1 
0.459 -0.307 -0.016 1 
0.451 -0.277 -0.013 1 
0.42 0.134 -0.013 1 
0.452 -0.266 -0.013 1 
0.451 -0.256 -0.013 1 
0.454 -0.25 -0.013 1 
0.445 -0.231 -0.011 1 
0.454 -0.205 -0.012 1 
0.475 -0.015 -0.016 1 
0.454 0.054 -0.011 1 
0.451 0.064 -0.01 1 
0.449 0.074 -0.01 1 
0.449 0.094 -0.01 1 
0.444 0.134 -0.01 1 
0.44 0.163 -0.009 1 
0.44 0.174 -0.01 1 
0.434 0.204 -0.009 1 
0.434 0.22 -0.009 1 
0.434 0.253 -0.01 1 
0.433 0.269 -0.011 1 
0.433 0.284 -0.011 1 
0.429 0.301 -0.011 1 
0.461 -0.339 -0.015 1 
0.428 0.114 -0.013 1 
0.464 -0.325 -0.015 1 
0.464 -0.318 -0.015 1 
0.383 0.183 -0.015 1 
0.464 -0.315 -0.014 1 
0.461 -0.296 -0.013 1 
0.46 -0.255 -0.012 1 
0.462 -0.176 -0.011 1 
0.462 -0.157 -0.011 1 
0.463 -0.135 -0.011 1 
0.461 -0.115 -0.01 1 
0.461 -0.075 -0.01 1 
0.383 -0.236 -0.026 1 
0.462 -0.057 -0.01 1 
0.461 -0.036 -0.01 1 
0.45 -0.006 -0.007 1 
0.453 0.034 -0.008 1 
0.443 0.143 -0.01 1 
0.454 0.036 -0.008 1 
0.454 0.104 -0.009 1 
0.453 0.114 -0.009 1 
0.45 0.134 -0.008 1 
0.412 0.192 -0.015 1 
0.444 0.179 -0.008 1 
0.443 0.202 -0.008 1 
0.443 0.213 -0.009 1 
0.441 0.242 -0.009 1 
0.441 0.283 -0.01 1 
0.463 -0.236 -0.009 1 
0.464 -0.223 -0.01 1 
0.464 -0.2 -0.009 1 
0.454 0.146 -0.007 1 
0.444 0.271 -0.008 1 
0.444 0.292 -0.009 1 
0.443 0.3 -0.009 1 
0.414 -0.037 -0.017 1 
0.441 0.314 -0.009 1 
0.473 -0.335 -0.011 1 
0.428 0.133 -0.013 1 
0.443 0.264 -0.007 1 
0.472 -0.327 -0.011 1 
0.364 -0.083 -0.017 1 
0.472 -0.317 -0.01 1 
0.452 -0.045 -0.013 1 
0.474 -0.305 -0.01 1 
0.474 -0.245 -0.009 1 
0.47 -0.116 -0.007 1 
0.47 -0.105 -0.007 1 
0.47 -0.086 -0.006 1 
0.469 -0.066 -0.006 1 
0.47 -0.056 -0.006 1 
0.469 -0.036 -0.006 1 
0.469 -0.026 -0.006 1 
0.376 0.004 0.012 1 
0.376 0.011 0.012 1 
0.37 -0.005 -0.013 1 
0.374 0.013 0.013 1 
0.464 0.043 -0.005 1 
0.464 0.054 -0.005 1 
0.463 0.064 -0.005 1 
0.371 0.024 -0.013 1 
0.463 0.072 -0.005 1 
0.462 0.093 -0.005 1 
0.422 -0.145 -0.016 1 
0.46 0.114 -0.005 1 
0.459 0.124 -0.005 1 
0.455 0.172 -0.005 1 
0.455 0.18 -0.005 1 
0.394 0.233 -0.016 1 
0.454 0.182 -0.005 1 
0.454 0.193 -0.005 1 
0.455 0.2 -0.006 1 
0.454 0.202 -0.006 1 
0.455 0.205 -0.006 1 
0.453 0.212 -0.006 1 
0.454 0.224 -0.006 1 
0.453 0.232 -0.006 1 
0.45 0.244 -0.006 1 
0.448 0.251 -0.005 1 
0.45 0.262 -0.006 1 
0.449 0.273 -0.006 1 
0.444 0.317 -0.007 1 
0.474 -0.357 -0.009 1 
0.474 -0.35 -0.009 1 
0.475 -0.3 -0.008 1 
0.475 -0.293 -0.007 1 
0.458 0.132 -0.005 1 
0.474 -0.286 -0.007 1 
0.473 -0.278 -0.007 1 
0.414 -0.177 -0.019 1 
0.477 -0.257 -0.007 1 
0.475 -0.246 -0.006 1 
0.474 -0.236 -0.006 1 
0.473 -0.227 -0.006 1 
0.472 -0.217 -0.005 1 
0.472 -0.197 -0.005 1 
0.472 -0.176 -0.005 1 
0.473 -0.145 -0.005 1 
0.412 -0.187 -0.018 1 
0.478 -0.007 -0.005 1 
0.398 0.004 0.01 1 
0.397 0.006 0.01 1 
0.433 -0.035 -0.015 1 
0.393 0.014 0.011 1 
0.453 0.253 -0.004 1 
0.454 0.262 -0.004 1 
0.453 0.274 -0.004 1 
0.452 0.279 -0.004 1 
0.453 0.283 -0.005 1 
0.454 0.293 -0.005 1 
0.451 0.302 -0.005 1 
0.449 0.313 -0.005 1 
0.447 0.321 -0.005 1 
0.476 -0.356 -0.006 1 
0.479 -0.345 -0.007 1 
0.479 -0.338 -0.006 1 
0.479 -0.327 -0.006 1 
0.479 -0.317 -0.006 1 
0.478 -0.306 -0.005 1 
0.474 -0.286 -0.004 1 
0.474 -0.276 -0.004 1 
0.474 -0.216 -0.003 1 
0.474 -0.207 -0.003 1 
0.474 -0.186 -0.003 1 
0.474 -0.18 -0.003 1 
0.474 -0.166 -0.002 1 
0.46 0.024 0 1 
0.454 0.302 -0.003 1 
0.454 0.309 -0.003 1 
0.452 0.323 -0.003 1 
0.475 -0.195 0 1 
0.475 -0.14 0 1 
0.465 0.014 0.002 1 
0.465 0.024 0.002 1 
0.409 0.131 -0.015 1 
0.466 0.032 0.001 1 
0.466 0.084 0.001 1 
0.465 0.094 0.001 1 
0.465 0.119 0.001 1 
0.454 0.328 -0.001 1 
0.474 -0.195 0.002 1 
0.476 -0.175 0.002 1 
0.475 -0.152 0.002 1 
0.474 -0.146 0.002 1 
0.422 0.114 -0.013 1 
0.474 -0.137 0.002 1 
0.473 -0.117 0.003 1 
0.414 -0.125 -0.018 1 
0.466 -0.007 0.004 1 
0.465 -0.001 0.004 1 
0.464 0.006 0.004 1 
0.464 0.032 0.004 1 
0.464 0.083 0.004 1 
0.463 0.094 0.004 1 
0.463 0.112 0.004 1 
0.464 0.124 0.004 1 
0.462 0.154 0.003 1 
0.462 0.173 0.003 1 
0.462 0.184 0.003 1 
0.462 0.193 0.003 1 
0.462 0.204 0.003 1 
0.464 0.223 0.002 1 
0.462 0.233 0.002 1 
0.46 0.253 0.002 1 
0.46 0.274 0.002 1 
0.481 -0.315 0.002 1 
0.48 -0.308 0.002 1 
0.481 -0.01 -0.017 1 
0.479 -0.297 0.003 1 
0.479 -0.287 0.003 1 
0.476 -0.275 0.003 1 
0.464 0.014 0.007 1 
0.469 -0.045 -0.006 1 
0.459 0.291 0.004 1 
0.458 0.303 0.004 1 
0.46 0.312 0.003 1 
0.459 0.324 0.003 1 
0.482 -0.333 0.004 1 
0.429 0.292 -0.011 1 
0.402 -0.157 -0.019 1 
0.464 -0.031 -0.008 1 
0.462 -0.046 -0.01 1 
0.461 -0.065 -0.01 1 
0.371 0.018 0.013 1 
0.411 0.204 -0.013 1 
0.384 -0.145 -0.019 1 
0.462 -0.086 -0.01 1 
0.461 -0.126 -0.01 1 
0.392 -0.095 -0.017 1 
0.462 -0.146 -0.011 1 
0.465 0.102 -0.001 1 
0.438 -0.126 -0.015 1 
0.394 0.035 -0.015 1 
0.461 -0.167 -0.011 1 
0.462 -0.185 -0.011 1 
0.464 -0.226 -0.01 1 
0.464 -0.246 -0.01 1 
0.46 -0.288 -0.013 1 
0.444 0.253 -0.007 1 
0.464 -0.309 -0.014 1 
0.432 -0.136 -0.016 1 
0.374 0.112 -0.016 1 
0.433 -0.216 -0.018 1 
0.393 0.173 -0.016 1 
0.428 0.104 -0.013 1 
0.44 -0.266 -0.016 1 
0.444 0.093 -0.012 1 
0.441 -0.316 -0.02 1 
0.454 0.144 -0.007 1 
0.402 0.204 -0.013 1 
0.457 -0.298 -0.015 1 
0.45 -0.135 -0.013 1 
0.462 0.032 -0.005 1 
0.475 -0.187 0.002 1 
0.443 -0.249 -0.016 1 
0.473 -0.125 0.003 1 
0.457 0.142 -0.005 1 
0.411 0.196 -0.015 1 
0.393 -0.015 -0.017 1 
0.452 -0.222 -0.015 1 
0.449 -0.016 -0.012 1 
0.391 0.018 0.011 1 
0.461 0.244 0.002 1 
0.431 -0.126 -0.015 1 
0.459 -0.205 -0.011 1 
0.372 0.073 -0.016 1 
0.44 0.152 -0.009 1 
0.443 -0.184 -0.015 1 
0.349 0.164 -0.014 1 
0.364 0.143 -0.015 1 
0.39 0.028 -0.014 1 
0.394 -0.197 -0.022 1 
0.413 0.062 -0.015 1 
0.443 -0.053 -0.013 1 
0.394 -0.138 -0.018 1 
0.372 -0.066 -0.015 1 
0.358 0.204 -0.016 1 
0.442 0.052 -0.013 1 
0.449 -0.278 -0.015 1 
0.362 0.214 -0.016 1 
0.444 -0.206 -0.015 1 
0.42 -0.035 -0.016 1 
0.444 -0.198 -0.015 1 
0.381 0.094 -0.016 1 
0.411 0.281 -0.016 1 
0.458 0.154 -0.005 1 
0.352 -0.004 -0.01 1 
0.395 0.21 -0.015 1 
0.456 0.33 0.004 1 
0.374 0.204 -0.017 1 
0.398 0.162 -0.015 1 
0.464 0.035 -0.003 1 
0.374 0.152 -0.015 1 
0.381 0.232 -0.017 1 
0.403 -0.249 -0.029 1 
0.43 -0.155 -0.016 1 
0.384 -0.015 -0.016 1 
0.39 0.123 -0.015 1 
0.464 0.003 0.004 1 
0.414 0.222 -0.014 1 
0.43 -0.167 -0.016 1 
0.439 -0.089 -0.015 1 
0.412 0.254 -0.015 1 
0.431 -0.266 -0.021 1 
0.449 0.084 -0.01 1 
0.424 -0.254 -0.021 1 
0.412 -0.147 -0.017 1 
0.403 -0.167 -0.02 1 
0.449 -0.126 -0.013 1 
0.474 -0.295 -0.007 1 
0.354 0.14 -0.015 1 
0.383 0.192 -0.016 1 
0.419 -0.046 -0.016 1 
0.412 -0.017 -0.016 1 
0.371 0.063 -0.016 1 
0.44 -0.075 -0.015 1 
0.469 -0.127 -0.007 1 
0.463 -0.023 -0.01 1 
0.471 -0.205 -0.005 1 
0.431 0.162 -0.012 1 
0.421 0.174 -0.012 1 
0.363 0.164 -0.016 1 
0.409 0.171 -0.014 1 
0.342 -0.004 -0.008 1 
0.42 -0.267 -0.026 1 
0.393 0.114 -0.016 1 
0.364 -0.113 -0.017 1 
0.463 0.104 0.004 1 
0.424 -0.142 -0.016 1 
0.414 0.031 -0.015 1 
0.472 -0.297 -0.004 1 
0.389 -0.237 -0.026 1 
0.362 0.174 -0.016 1 
0.459 -0.266 -0.012 1 
0.404 0.049 -0.016 1 
0.454 -0.027 -0.011 1 
0.394 -0.04 -0.017 1 
0.402 0.072 -0.016 1 
0.424 0.263 -0.013 1 
0.424 0.143 -0.012 1 
0.444 -0.294 -0.02 1 
0.403 -0.176 -0.02 1 
0.412 0.084 -0.015 1 
0.453 -0.285 -0.014 1 
0.403 0.043 -0.016 1 
0.442 -0.016 -0.013 1 
0.418 0.124 -0.015 1 
0.462 -0.105 -0.01 1 
0.414 -0.155 -0.018 1 
0.379 -0.177 -0.021 1 
0.46 0.262 0.002 1 
0.473 -0.157 -0.005 1 
0.381 -0.226 -0.025 1 
0.404 -0.1 -0.016 1 
0.442 -0.136 -0.013 1 
0.451 -0.075 -0.013 1 
0.406 -0.242 -0.025 1 
0.432 -0.015 -0.015 1 
0.379 0.133 -0.016 1 
0.461 0.164 0.004 1 
0.43 0.255 -0.015 1 
0.434 0.264 -0.011 1 
0.45 -0.055 -0.012 1 
0.421 -0.186 -0.019 1 
0.404 -0.269 -0.028 1 
0.449 -0.177 -0.013 1 
0.361 -0.015 -0.013 1 
0.413 -0.205 -0.019 1 
0.438 -0.116 -0.015 1 
0.434 0.034 -0.013 1 
0.36 0.184 -0.016 1 
0.403 0.171 -0.014 1 
0.443 -0.306 -0.02 1 
0.464 0.132 0.004 1 
0.383 -0.216 -0.025 1 
0.37 -0.156 -0.021 1 
0.382 0.224 -0.017 1 
0.418 0.274 -0.015 1 
0.472 -0.185 -0.005 1 
0.449 -0.266 -0.015 1 
0.37 0.044 -0.015 1 
0.374 0.174 -0.016 1 
0.394 0.093 -0.016 1 
0.463 0.143 0.004 1 
0.435 -0.006 -0.016 1 
0.384 0.083 -0.017 1 
0.443 0.194 -0.008 1 
0.474 -0.267 -0.007 1 
0.404 0.254 -0.015 1 
0.459 0.282 0.004 1 
0.473 -0.142 -0.005 1 
0.44 -0.038 -0.015 1 
0.471 -0.255 -0.009 1 
0.462 -0.097 -0.01 1 
0.394 -0.094 -0.017 1 
0.463 0.083 -0.005 1 
0.444 0.222 -0.009 1 
0.42 0.069 -0.015 1 
0.382 0.212 -0.016 1 
0.424 -0.277 -0.025 1 
0.431 0.212 -0.008 1 
0.381 0.064 -0.015 1 
0.443 -0.226 -0.015 1 
0.475 -0.015 -0.005 1 
0.374 0.193 -0.017 1 
0.454 -0.166 -0.012 1 
0.464 0.214 0.002 1 
0.412 -0.025 -0.016 1 
0.472 -0.165 -0.005 1 
0.451 0.172 -0.007 1 
0.403 -0.026 -0.018 1 
0.379 0.173 -0.016 1 
0.456 0.164 -0.005 1 
0.459 -0.275 -0.012 1 
0.42 -0.056 -0.016 1 
0.429 0.243 -0.011 1 
0.444 0.234 -0.009 1 
0.373 -0.168 -0.02 1 
0.469 -0.077 -0.006 1 
0.453 -0.33 -0.018 1 
0.47 -0.097 -0.006 1 
0.433 -0.097 -0.016 1 
0.461 0.104 -0.005 1 
0.451 0.124 -0.009 1 
0.384 -0.136 -0.019 1 
0.43 -0.115 -0.015 1 
0.473 -0.018 -0.007 1 
0.37 -0.023 -0.015 1 
0.46 -0.334 -0.014 1 
0.454 0.163 -0.007 1 
0.44 -0.095 -0.015 1 
0.413 -0.01 -0.017 1 
0.424 -0.207 -0.018 1 
0.454 -0.308 -0.018 1 
0.414 0.045 -0.015 1 
0.475 -0.21 0.004 1 
0.324 0.013 0.008 2 
0.325 0.004 0.009 2 
0.326 0.014 0.011 2 
0.33 0.004 0.017 2 
0.33 0.013 0.017 2 
0.329 0.015 0.017 2 
0.324 0.004 0.007 2 
0.464 0.322 0.154 3 
0.472 -0.026 0.154 3 
0.461 0.232 0.063 3 
0.461 0.332 0.154 3 
0.477 -0.185 0.123 3 
0.46 0.338 0.154 3 
0.481 -0.305 0.014 3 
0.486 -0.295 0.163 3 
0.485 -0.288 0.162 3 
0.485 -0.284 0.162 3 
0.462 0.303 0.144 3 
0.484 -0.277 0.162 3 
0.474 -0.056 0.152 3 
0.465 0.32 0.154 3 
0.463 0.311 0.154 3 
0.475 -0.087 0.133 3 
0.463 0.304 0.153 3 
0.464 0.152 0.13 3 
0.463 0.291 0.153 3 
0.475 -0.157 0.072 3 
0.464 0.283 0.153 3 
0.463 0.273 0.152 3 
0.464 0.264 0.152 3 
0.462 0.153 0.033 3 
0.465 0.191 0.154 3 
0.467 0.104 0.153 3 
0.482 -0.265 0.152 3 
0.464 0.181 0.153 3 
0.465 0.173 0.153 3 
0.466 0.162 0.153 3 
0.466 0.154 0.153 3 
0.467 0.143 0.153 3 
0.465 0.122 0.057 3 
0.467 0.134 0.153 3 
0.466 0.123 0.152 3 
0.466 0.033 0.063 3 
0.466 0.112 0.152 3 
0.471 -0.015 0.153 3 
0.468 0.093 0.153 3 
0.481 -0.267 0.143 3 
0.469 0.083 0.153 3 
0.468 0.074 0.153 3 
0.468 0.063 0.153 3 
0.468 0.052 0.153 3 
0.468 0.044 0.153 3 
0.468 0.033 0.153 3 
0.469 0.022 0.153 3 
0.469 0.014 0.153 3 
0.469 -0.007 0.153 3 
0.467 0.09 0.144 3 
0.48 -0.226 0.153 3 
0.48 -0.235 0.153 3 
0.481 -0.255 0.154 3 
0.484 -0.286 0.156 3 
0.465 0.33 0.149 3 
0.464 0.181 0.144 3 
0.464 0.172 0.144 3 
0.465 0.161 0.144 3 
0.466 0.142 0.144 3 
0.466 0.134 0.144 3 
0.466 0.123 0.144 3 
0.466 0.104 0.144 3 
0.48 -0.205 0.153 3 
0.468 0.082 0.144 3 
0.462 0.164 0.063 3 
0.467 0.074 0.144 3 
0.467 0.063 0.144 3 
0.467 0.052 0.144 3 
0.467 0.044 0.144 3 
0.469 0.346 0.104 3 
0.468 0.033 0.144 3 
0.468 0.022 0.144 3 
0.468 0.003 0.144 3 
0.474 -0.177 0.033 3 
0.477 -0.165 0.154 3 
0.475 -0.062 0.152 3 
0.475 -0.065 0.152 3 
0.475 -0.076 0.152 3 
0.476 -0.085 0.152 3 
0.475 -0.096 0.152 3 
0.476 -0.107 0.153 3 
0.477 -0.116 0.153 3 
0.478 -0.125 0.154 3 
0.477 -0.136 0.153 3 
0.478 -0.145 0.154 3 
0.478 -0.157 0.154 3 
0.456 0.331 0.062 3 
0.488 -0.317 0.161 3 
0.488 -0.328 0.162 3 
0.489 -0.336 0.162 3 
0.469 -0.015 0.104 3 
0.464 0.169 0.147 3 
0.474 -0.065 0.149 3 
0.474 -0.076 0.149 3 
0.478 -0.177 0.152 3 
0.478 -0.186 0.152 3 
0.48 -0.196 0.153 3 
0.463 0.174 0.114 3 
0.467 0.043 0.092 3 
0.483 -0.327 0.082 3 
0.471 0.023 0.162 3 
0.478 -0.125 0.162 3 
0.471 -0.007 0.162 3 
0.472 -0.015 0.162 3 
0.474 -0.026 0.163 3 
0.474 -0.037 0.163 3 
0.485 -0.32 0.124 3 
0.475 -0.043 0.163 3 
0.475 -0.045 0.163 3 
0.476 -0.057 0.163 3 
0.477 -0.065 0.164 3 
0.47 0.033 0.161 3 
0.477 -0.077 0.164 3 
0.474 -0.087 0.102 3 
0.461 0.232 0.043 3 
0.475 -0.225 0.024 3 
0.477 -0.085 0.164 3 
0.477 -0.096 0.164 3 
0.463 0.162 0.092 3 
0.484 -0.248 0.17 3 
0.485 -0.285 0.171 3 
0.486 -0.295 0.172 3 
0.486 -0.306 0.173 3 
0.464 0.213 0.162 3 
0.489 -0.346 0.132 3 
0.464 0.287 0.164 3 
0.465 0.278 0.164 3 
0.465 0.272 0.164 3 
0.464 0.265 0.164 3 
0.464 0.261 0.164 3 
0.463 0.254 0.163 3 
0.464 0.243 0.163 3 
0.464 0.234 0.163 3 
0.464 0.222 0.162 3 
0.465 0.217 0.163 3 
0.461 0.272 0.082 3 
0.465 0.084 0.114 3 
0.48 -0.317 0.043 3 
0.465 0.211 0.162 3 
0.465 0.202 0.162 3 
0.464 0.199 0.162 3 
0.475 -0.157 0.027 3 
0.468 -0.045 0.004 3 
0.464 0.193 0.162 3 
0.465 0.185 0.162 3 
0.464 0.182 0.161 3 
0.47 0.102 0.162 3 
0.482 -0.256 0.163 3 
0.478 -0.145 0.163 3 
0.478 -0.157 0.163 3 
0.478 -0.166 0.163 3 
0.479 -0.175 0.163 3 
0.48 -0.185 0.164 3 
0.488 -0.335 0.171 3 
0.482 -0.195 0.162 3 
0.481 -0.206 0.162 3 
0.48 -0.215 0.162 3 
0.48 -0.226 0.162 3 
0.483 -0.238 0.163 3 
0.483 -0.247 0.163 3 
0.474 -0.145 0.083 3 
0.484 -0.267 0.164 3 
0.463 0.254 0.154 3 
0.475 -0.146 0.122 3 
0.475 -0.18 0.072 3 
0.462 0.244 0.154 3 
0.462 0.232 0.154 3 
0.462 0.223 0.153 3 
0.464 0.213 0.154 3 
0.477 -0.168 0.134 3 
0.461 0.274 0.062 3 
0.465 0.199 0.154 3 
0.464 0.316 0.163 3 
0.489 -0.315 0.174 3 
0.488 -0.325 0.174 3 
0.49 -0.345 0.176 3 
0.462 0.341 0.163 3 
0.466 0.335 0.164 3 
0.467 0.333 0.164 3 
0.46 0.333 0.122 3 
0.463 0.325 0.163 3 
0.46 0.271 0.104 3 
0.475 -0.195 0.052 3 
0.466 0.321 0.164 3 
0.464 0.193 0.153 3 
0.465 0.313 0.163 3 
0.464 0.309 0.162 3 
0.464 0.13 0.073 3 
0.464 0.302 0.162 3 
0.464 0.283 0.161 3 
0.474 -0.045 0.16 3 
0.477 -0.105 0.162 3 
0.466 0.112 0.144 3 
0.479 -0.246 0.113 3 
0.477 -0.116 0.162 3 
0.479 -0.137 0.163 3 
0.465 0.084 0.063 3 
0.476 -0.147 0.134 3 
0.476 -0.156 0.134 3 
0.477 -0.177 0.134 3 
0.477 -0.185 0.134 3 
0.489 -0.346 0.141 3 
0.464 0.122 0.127 3 
0.469 -0.096 0.014 3 
0.479 -0.195 0.132 3 
0.479 -0.207 0.132 3 
0.468 0.014 0.093 3 
0.477 -0.205 0.052 3 
0.479 -0.216 0.132 3 
0.476 -0.135 0.133 3 
0.481 -0.226 0.133 3 
0.481 -0.236 0.133 3 
0.481 -0.245 0.133 3 
0.48 -0.266 0.134 3 
0.484 -0.345 0.064 3 
0.474 -0.165 0.044 3 
0.481 -0.277 0.134 3 
0.481 -0.286 0.134 3 
0.484 -0.306 0.136 3 
0.474 -0.115 0.127 3 
0.474 -0.126 0.127 3 
0.465 0.094 0.033 3 
0.487 -0.316 0.143 3 
0.489 -0.328 0.144 3 
0.458 0.335 0.133 3 
0.459 0.332 0.133 3 
0.462 0.322 0.134 3 
0.472 -0.106 0.003 3 
0.461 0.314 0.133 3 
0.462 0.302 0.133 3 
0.461 0.292 0.132 3 
0.462 0.283 0.132 3 
0.463 0.263 0.132 3 
0.48 -0.317 0.034 3 
0.463 0.253 0.132 3 
0.482 -0.306 0.082 3 
0.464 0.13 0.13 3 
0.466 0.062 0.063 3 
0.473 -0.067 0.132 3 
0.473 -0.075 0.132 3 
0.474 -0.095 0.132 3 
0.475 -0.11 0.133 3 
0.475 -0.115 0.133 3 
0.471 -0.086 0.044 3 
0.475 -0.127 0.133 3 
0.469 -0.007 0.123 3 
0.465 0.092 0.122 3 
0.465 0.073 0.122 3 
0.465 0.062 0.122 3 
0.466 0.054 0.122 3 
0.467 0.044 0.122 3 
0.466 0.033 0.122 3 
0.466 0.022 0.122 3 
0.472 -0.156 0.014 3 
0.467 0.014 0.122 3 
0.468 0.003 0.122 3 
0.486 -0.335 0.122 3 
0.47 -0.08 0.014 3 
0.465 0.103 0.122 3 
0.469 -0.015 0.123 3 
0.47 -0.026 0.123 3 
0.47 -0.036 0.123 3 
0.471 -0.045 0.123 3 
0.472 -0.056 0.123 3 
0.472 -0.067 0.123 3 
0.473 -0.075 0.124 3 
0.474 -0.087 0.124 3 
0.474 -0.106 0.124 3 
0.474 -0.126 0.124 3 
0.473 0.357 0.199 3 
0.461 0.234 0.123 3 
0.483 -0.295 0.132 3 
0.484 -0.306 0.133 3 
0.486 -0.318 0.133 3 
0.488 -0.327 0.134 3 
0.487 -0.336 0.134 3 
0.462 0.302 0.124 3 
0.462 0.293 0.124 3 
0.462 0.283 0.124 3 
0.462 0.274 0.124 3 
0.462 0.261 0.124 3 
0.461 0.243 0.123 3 
0.486 -0.308 0.142 3 
0.461 0.222 0.123 3 
0.463 0.202 0.123 3 
0.464 0.183 0.123 3 
0.464 0.172 0.122 3 
0.464 0.163 0.122 3 
0.465 0.147 0.122 3 
0.464 0.141 0.122 3 
0.468 -0.066 0.023 3 
0.464 0.133 0.122 3 
0.464 0.124 0.122 3 
0.465 0.114 0.122 3 
0.476 -0.127 0.142 3 
0.475 -0.101 0.144 3 
0.48 -0.295 0.093 3 
0.475 -0.107 0.144 3 
0.476 -0.116 0.144 3 
0.483 -0.285 0.15 3 
0.488 -0.317 0.152 3 
0.488 -0.327 0.153 3 
0.489 -0.336 0.153 3 
0.462 0.333 0.143 3 
0.463 0.324 0.143 3 
0.463 0.314 0.142 3 
0.48 -0.297 0.014 3 
0.474 -0.09 0.144 3 
0.476 -0.136 0.142 3 
0.477 -0.145 0.142 3 
0.462 0.223 0.134 3 
0.478 -0.157 0.143 3 
0.477 -0.165 0.143 3 
0.477 -0.177 0.143 3 
0.477 -0.185 0.143 3 
0.478 -0.195 0.143 3 
0.474 -0.165 0.088 3 
0.48 -0.205 0.144 3 
0.481 -0.217 0.144 3 
0.464 0.193 0.142 3 
0.485 -0.287 0.153 3 
0.486 -0.295 0.154 3 
0.486 -0.305 0.154 3 
0.463 0.294 0.144 3 
0.464 0.283 0.144 3 
0.464 0.273 0.144 3 
0.463 0.263 0.143 3 
0.462 0.241 0.143 3 
0.462 0.232 0.142 3 
0.462 0.223 0.142 3 
0.463 0.212 0.142 3 
0.482 -0.227 0.142 3 
0.465 0.19 0.142 3 
0.477 -0.226 0.084 3 
0.464 0.164 0.141 3 
0.466 0.153 0.142 3 
0.47 -0.007 0.142 3 
0.47 -0.015 0.142 3 
0.473 -0.056 0.143 3 
0.473 -0.067 0.143 3 
0.467 0.022 0.103 3 
0.474 -0.076 0.143 3 
0.475 -0.087 0.144 3 
0.467 0.033 0.133 3 
0.465 0.133 0.133 3 
0.465 0.122 0.133 3 
0.466 0.114 0.133 3 
0.466 0.103 0.133 3 
0.466 0.092 0.133 3 
0.466 0.082 0.133 3 
0.468 -0.007 0.082 3 
0.466 0.073 0.133 3 
0.466 0.063 0.133 3 
0.466 0.054 0.133 3 
0.467 0.044 0.133 3 
0.465 0.144 0.133 3 
0.467 0.022 0.133 3 
0.467 0.014 0.133 3 
0.469 0.003 0.133 3 
0.469 -0.007 0.133 3 
0.469 -0.015 0.133 3 
0.47 -0.026 0.134 3 
0.471 -0.037 0.134 3 
0.471 -0.045 0.134 3 
0.472 -0.056 0.134 3 
0.474 -0.106 0.135 3 
0.486 -0.304 0.142 3 
0.462 0.252 0.123 3 
0.481 -0.236 0.142 3 
0.481 -0.248 0.142 3 
0.481 -0.255 0.142 3 
0.481 -0.277 0.143 3 
0.483 -0.288 0.144 3 
0.474 -0.206 0.013 3 
0.484 -0.296 0.144 3 
0.463 0.202 0.093 3 
0.489 -0.346 0.147 3 
0.474 -0.09 0.132 3 
0.462 0.244 0.134 3 
0.483 -0.276 0.152 3 
0.467 0.014 0.063 3 
0.461 0.234 0.134 3 
0.462 0.214 0.134 3 
0.462 0.203 0.134 3 
0.464 0.192 0.134 3 
0.473 -0.145 0.052 3 
0.464 0.183 0.134 3 
0.463 0.174 0.133 3 
0.464 0.163 0.133 3 
0.465 0.158 0.133 3 
0.465 0.153 0.133 3 
0.467 0.201 0.183 3 
0.495 -0.337 0.202 3 
0.461 0.343 0.187 3 
0.474 -0.095 0.124 3 
0.48 -0.285 0.093 3 
0.468 0.247 0.184 3 
0.467 0.243 0.184 3 
0.485 -0.308 0.163 3 
0.467 0.234 0.184 3 
0.468 0.223 0.184 3 
0.464 0.081 0.071 3 
0.468 0.214 0.183 3 
0.462 0.214 0.123 3 
0.486 -0.226 0.194 3 
0.466 0.043 0.103 3 
0.468 0.193 0.183 3 
0.469 0.174 0.183 3 
0.47 0.163 0.183 3 
0.47 0.154 0.183 3 
0.464 0.204 0.142 3 
0.471 0.143 0.182 3 
0.475 -0.213 0.021 3 
0.471 0.134 0.182 3 
0.48 -0.276 0.122 3 
0.471 0.123 0.182 3 
0.466 0.282 0.174 3 
0.492 -0.306 0.203 3 
0.492 -0.316 0.203 3 
0.493 -0.328 0.204 3 
0.495 -0.334 0.205 3 
0.468 0.351 0.193 3 
0.465 0.34 0.191 3 
0.469 0.333 0.192 3 
0.474 -0.148 0.094 3 
0.475 0.133 0.187 3 
0.469 0.182 0.183 3 
0.473 0.112 0.186 3 
0.474 -0.106 0.133 3 
0.473 0.104 0.185 3 
0.474 0.093 0.186 3 
0.484 -0.14 0.191 3 
0.483 -0.318 0.103 3 
0.487 -0.156 0.192 3 
0.486 -0.165 0.192 3 
0.486 -0.177 0.192 3 
0.487 -0.186 0.193 3 
0.487 -0.196 0.193 3 
0.487 -0.205 0.194 3 
0.488 -0.215 0.194 3 
0.487 -0.277 0.193 3 
0.484 -0.125 0.187 3 
0.472 -0.037 0.154 3 
0.484 -0.16 0.188 3 
0.465 0.335 0.182 3 
0.484 -0.166 0.188 3 
0.471 -0.067 0.074 3 
0.484 -0.175 0.189 3 
0.484 -0.228 0.19 3 
0.485 -0.235 0.191 3 
0.487 -0.246 0.192 3 
0.488 -0.255 0.192 3 
0.488 -0.265 0.193 3 
0.483 -0.355 0.046 3 
0.486 -0.286 0.193 3 
0.488 -0.295 0.194 3 
0.493 -0.335 0.198 3 
0.46 0.34 0.183 3 
0.469 0.003 0.153 3 
0.464 0.334 0.184 3 
0.465 0.332 0.184 3 
0.467 0.31 0.184 3 
0.461 0.294 0.093 3 
0.467 0.303 0.184 3 
0.467 0.294 0.183 3 
0.475 0.051 0.183 3 
0.471 0.114 0.182 3 
0.472 0.103 0.182 3 
0.473 0.092 0.182 3 
0.467 -0.036 0.004 3 
0.475 0.087 0.183 3 
0.476 0.082 0.184 3 
0.476 0.074 0.184 3 
0.475 0.062 0.183 3 
0.482 -0.226 0.172 3 
0.476 -0.235 0.012 3 
0.474 0.054 0.183 3 
0.474 -0.177 0.052 3 
0.47 -0.026 0.142 3 
0.475 0.043 0.183 3 
0.475 0.034 0.183 3 
0.476 0.023 0.183 3 
0.464 0.081 0.079 3 
0.476 0.012 0.183 3 
0.476 0.004 0.183 3 
0.478 -0.007 0.184 3 
0.478 -0.018 0.184 3 
0.483 -0.11 0.187 3 
0.484 -0.119 0.187 3 
0.46 0.203 0.014 3 
0.472 0.164 0.189 3 
0.471 0.152 0.189 3 
0.465 0.084 0.122 3 
0.461 0.281 0.093 3 
0.472 0.144 0.189 3 
0.473 0.132 0.189 3 
0.474 0.124 0.189 3 
0.475 0.122 0.189 3 
0.475 0.113 0.189 3 
0.46 0.234 0.033 3 
0.465 0.059 0.004 3 
0.475 0.102 0.189 3 
0.471 0.172 0.189 3 
0.476 0.093 0.189 3 
0.477 0.082 0.19 3 
0.477 0.074 0.19 3 
0.477 0.063 0.19 3 
0.477 0.054 0.189 3 
0.472 -0.045 0.143 3 
0.478 0.043 0.19 3 
0.477 0.032 0.189 3 
0.477 0.023 0.189 3 
0.464 0.152 0.122 3 
0.462 0.184 0.054 3 
0.469 0.273 0.192 3 
0.47 0.35 0.197 3 
0.464 0.143 0.084 3 
0.468 0.34 0.195 3 
0.468 0.333 0.195 3 
0.47 0.324 0.195 3 
0.469 0.319 0.194 3 
0.47 0.314 0.194 3 
0.469 0.303 0.193 3 
0.464 0.183 0.114 3 
0.468 0.292 0.192 3 
0.468 0.282 0.192 3 
0.477 0.012 0.189 3 
0.469 0.264 0.191 3 
0.468 0.254 0.191 3 
0.468 0.241 0.19 3 
0.467 0.234 0.189 3 
0.471 0.222 0.191 3 
0.471 -0.037 0.142 3 
0.47 0.213 0.19 3 
0.48 -0.297 0.023 3 
0.47 0.204 0.19 3 
0.47 0.192 0.189 3 
0.471 0.184 0.189 3 
0.488 -0.206 0.197 3 
0.486 -0.135 0.194 3 
0.486 -0.141 0.195 3 
0.486 -0.147 0.195 3 
0.485 -0.152 0.194 3 
0.465 0.155 0.122 3 
0.486 -0.156 0.195 3 
0.487 -0.165 0.196 3 
0.487 -0.177 0.196 3 
0.488 -0.187 0.197 3 
0.489 -0.197 0.197 3 
0.471 -0.075 0.052 3 
0.486 -0.126 0.194 3 
0.489 -0.216 0.198 3 
0.488 -0.227 0.198 3 
0.467 0.003 0.052 3 
0.479 -0.246 0.003 3 
0.488 -0.237 0.198 3 
0.489 -0.247 0.199 3 
0.455 0.329 0.012 3 
0.489 -0.266 0.199 3 
0.488 -0.278 0.2 3 
0.489 -0.286 0.2 3 
0.491 -0.295 0.202 3 
0.484 -0.055 0.192 3 
0.467 0.043 0.052 3 
0.478 0.004 0.19 3 
0.48 -0.007 0.191 3 
0.485 -0.35 0.052 3 
0.481 -0.015 0.191 3 
0.477 -0.205 0.064 3 
0.481 -0.027 0.191 3 
0.481 -0.258 0.134 3 
0.482 -0.035 0.192 3 
0.489 -0.256 0.199 3 
0.483 -0.047 0.192 3 
0.467 0.284 0.183 3 
0.483 -0.067 0.192 3 
0.471 -0.125 0.014 3 
0.483 -0.075 0.192 3 
0.474 -0.045 0.154 3 
0.482 -0.087 0.192 3 
0.484 -0.096 0.193 3 
0.485 -0.099 0.193 3 
0.486 -0.105 0.194 3 
0.488 -0.109 0.195 3 
0.488 -0.118 0.195 3 
0.486 -0.12 0.194 3 
0.466 0.335 0.173 3 
0.479 -0.117 0.174 3 
0.49 -0.336 0.144 3 
0.48 -0.126 0.174 3 
0.484 -0.187 0.177 3 
0.467 0.054 0.074 3 
0.488 -0.298 0.182 3 
0.487 -0.307 0.182 3 
0.487 -0.317 0.183 3 
0.489 -0.33 0.184 3 
0.479 -0.297 0.064 3 
0.46 0.243 0.054 3 
0.463 0.343 0.173 3 
0.479 -0.106 0.174 3 
0.466 0.332 0.173 3 
0.464 0.32 0.172 3 
0.465 0.317 0.172 3 
0.464 0.246 0.169 3 
0.464 0.24 0.169 3 
0.465 0.179 0.153 3 
0.474 -0.015 0.168 3 
0.474 -0.026 0.169 3 
0.462 0.104 0.012 3 
0.48 -0.135 0.172 3 
0.462 0.273 0.113 3 
0.463 0.211 0.114 3 
0.487 -0.287 0.184 3 
0.466 0.054 0.052 3 
0.465 0.307 0.174 3 
0.466 0.302 0.174 3 
0.465 0.294 0.174 3 
0.467 0.274 0.174 3 
0.46 0.337 0.142 3 
0.479 -0.237 0.104 3 
0.467 0.264 0.173 3 
0.464 0.072 0.004 3 
0.466 0.251 0.172 3 
0.479 -0.146 0.171 3 
0.465 0.244 0.172 3 
0.474 -0.007 0.171 3 
0.475 -0.015 0.172 3 
0.475 -0.026 0.172 3 
0.476 -0.037 0.172 3 
0.477 -0.046 0.172 3 
0.477 -0.057 0.172 3 
0.477 -0.065 0.172 3 
0.477 -0.077 0.172 3 
0.478 -0.085 0.173 3 
0.479 -0.097 0.173 3 
0.47 0.039 0.164 3 
0.474 -0.118 0.122 3 
0.465 0.174 0.164 3 
0.467 0.163 0.164 3 
0.47 -0.036 0.104 3 
0.467 0.152 0.164 3 
0.467 0.143 0.164 3 
0.468 0.132 0.164 3 
0.468 0.124 0.164 3 
0.47 0.086 0.164 3 
0.47 0.083 0.164 3 
0.47 0.072 0.164 3 
0.47 0.064 0.164 3 
0.465 0.179 0.164 3 
0.47 0.006 0.164 3 
0.47 0.003 0.164 3 
0.484 -0.236 0.172 3 
0.485 -0.243 0.173 3 
0.463 0.194 0.122 3 
0.485 -0.246 0.173 3 
0.484 -0.255 0.173 3 
0.484 -0.267 0.173 3 
0.464 0.097 0.079 3 
0.485 -0.272 0.174 3 
0.486 -0.276 0.174 3 
0.484 -0.255 0.176 3 
0.479 -0.155 0.172 3 
0.48 -0.167 0.172 3 
0.471 -0.097 0.052 3 
0.48 -0.176 0.173 3 
0.483 -0.187 0.174 3 
0.47 -0.088 0.014 3 
0.484 -0.196 0.174 3 
0.483 -0.205 0.174 3 
0.482 -0.216 0.174 3 
0.481 -0.215 0.153 3 
0.484 -0.245 0.176 3 
0.487 -0.277 0.184 3 
0.489 -0.337 0.181 3 
0.464 0.303 0.168 3 
0.464 0.293 0.168 3 
0.464 0.265 0.166 3 
0.463 0.255 0.166 3 
0.461 0.299 0.034 3 
0.464 0.234 0.165 3 
0.464 0.214 0.165 3 
0.475 -0.107 0.122 3 
0.464 0.202 0.165 3 
0.461 0.283 0.043 3 
0.482 -0.136 0.181 3 
0.484 -0.146 0.185 3 
0.484 -0.215 0.187 3 
0.489 -0.306 0.192 3 
0.475 -0.186 0.072 3 
0.489 -0.316 0.193 3 
0.492 -0.33 0.194 3 
0.466 0.322 0.181 3 
0.475 -0.098 0.122 3 
0.473 0.042 0.176 3 
0.469 0.113 0.164 3 
0.48 -0.317 0.014 3 
0.474 0.034 0.177 3 
0.483 -0.127 0.184 3 
0.463 0.272 0.132 3 
0.482 -0.145 0.181 3 
0.483 -0.157 0.182 3 
0.481 -0.357 0.013 3 
0.482 -0.165 0.182 3 
0.483 -0.178 0.182 3 
0.486 -0.186 0.184 3 
0.477 -0.217 0.092 3 
0.486 -0.195 0.184 3 
0.484 -0.203 0.183 3 
0.468 0.014 0.144 3 
0.479 -0.046 0.181 3 
0.467 0.274 0.182 3 
0.47 0.264 0.183 3 
0.474 0.084 0.18 3 
0.466 0.043 0.074 3 
0.474 0.065 0.18 3 
0.474 0.062 0.18 3 
0.474 0.009 0.18 3 
0.461 0.303 0.082 3 
0.474 0.003 0.18 3 
0.478 -0.026 0.181 3 
0.478 -0.035 0.181 3 
0.484 -0.206 0.184 3 
0.479 -0.055 0.182 3 
0.478 -0.066 0.181 3 
0.479 -0.077 0.182 3 
0.468 0.003 0.093 3 
0.476 -0.207 0.072 3 
0.48 -0.086 0.182 3 
0.465 0.226 0.163 3 
0.48 -0.095 0.182 3 
0.463 0.202 0.103 3 
0.48 -0.106 0.183 3 
0.481 -0.115 0.183 3 
0.474 0.023 0.174 3 
0.465 0.144 0.122 3 
0.471 0.094 0.173 3 
0.472 0.084 0.174 3 
0.472 0.072 0.173 3 
0.472 0.064 0.173 3 
0.464 0.204 0.154 3 
0.473 0.053 0.174 3 
0.473 0.042 0.174 3 
0.462 0.314 0.094 3 
0.474 0.034 0.174 3 
0.471 0.053 0.162 3 
0.471 0.103 0.173 3 
0.473 0.012 0.174 3 
0.473 0.003 0.174 3 
0.475 -0.004 0.174 3 
0.463 0.154 0.044 3 
0.475 -0.007 0.174 3 
0.464 0.138 0.128 3 
0.484 -0.237 0.182 3 
0.486 -0.241 0.182 3 
0.486 -0.247 0.182 3 
0.486 -0.257 0.183 3 
0.486 -0.266 0.183 3 
0.465 0.194 0.173 3 
0.464 0.073 0.119 3 
0.483 -0.217 0.184 3 
0.474 -0.177 0.072 3 
0.465 0.054 0.004 3 
0.482 -0.226 0.183 3 
0.492 -0.337 0.192 3 
0.466 0.227 0.174 3 
0.466 0.224 0.174 3 
0.467 0.213 0.174 3 
0.466 0.203 0.174 3 
0.463 0.254 0.143 3 
0.464 0.313 0.165 3 
0.46 0.273 0.032 3 
0.466 0.183 0.173 3 
0.467 0.172 0.173 3 
0.468 0.164 0.174 3 
0.469 0.153 0.173 3 
0.469 0.144 0.173 3 
0.469 0.133 0.173 3 
0.481 -0.245 0.154 3 
0.471 0.123 0.174 3 
0.474 -0.095 0.144 3 
0.47 0.114 0.173 3 
0.461 0.293 0.043 3 
0.479 -0.296 0.052 3 
0.48 -0.307 0.052 3 
0.481 -0.318 0.052 3 
0.481 -0.325 0.052 3 
0.483 -0.337 0.052 3 
0.465 0.097 0.049 3 
0.475 -0.18 0.047 3 
0.456 0.331 0.043 3 
0.459 0.321 0.043 3 
0.459 0.311 0.043 3 
0.459 0.304 0.043 3 
0.47 -0.066 0.044 3 
0.477 -0.285 0.052 3 
0.46 0.273 0.043 3 
0.46 0.264 0.043 3 
0.469 -0.055 0.033 3 
0.461 0.224 0.024 3 
0.46 0.252 0.043 3 
0.477 -0.245 0.012 3 
0.46 0.243 0.043 3 
0.461 0.223 0.043 3 
0.462 0.213 0.044 3 
0.462 0.204 0.044 3 
0.461 0.192 0.044 3 
0.472 -0.125 0.052 3 
0.469 -0.007 0.052 3 
0.468 -0.015 0.052 3 
0.469 -0.026 0.052 3 
0.459 0.282 0.013 3 
0.469 -0.036 0.052 3 
0.469 -0.047 0.052 3 
0.469 -0.055 0.052 3 
0.47 -0.066 0.052 3 
0.471 -0.086 0.052 3 
0.473 -0.106 0.052 3 
0.472 -0.116 0.052 3 
0.462 0.184 0.044 3 
0.473 -0.136 0.052 3 
0.474 -0.157 0.052 3 
0.474 -0.165 0.052 3 
0.475 -0.186 0.052 3 
0.464 0.043 0.012 3 
0.476 -0.216 0.052 3 
0.476 -0.225 0.052 3 
0.477 -0.235 0.052 3 
0.478 -0.245 0.052 3 
0.476 -0.265 0.052 3 
0.477 -0.276 0.052 3 
0.475 -0.195 0.044 3 
0.47 -0.056 0.044 3 
0.464 0.072 0.036 3 
0.47 -0.075 0.044 3 
0.473 -0.097 0.044 3 
0.473 -0.106 0.044 3 
0.473 -0.117 0.044 3 
0.473 -0.136 0.044 3 
0.474 -0.145 0.044 3 
0.474 -0.157 0.044 3 
0.474 -0.177 0.044 3 
0.475 -0.18 0.044 3 
0.475 -0.186 0.044 3 
0.469 -0.045 0.044 3 
0.476 -0.216 0.044 3 
0.476 -0.225 0.044 3 
0.477 -0.235 0.044 3 
0.478 -0.248 0.044 3 
0.477 -0.266 0.044 3 
0.478 -0.277 0.044 3 
0.48 -0.297 0.043 3 
0.48 -0.307 0.043 3 
0.481 -0.325 0.043 3 
0.484 -0.345 0.043 3 
0.465 0.108 0.039 3 
0.465 0.083 0.044 3 
0.462 0.173 0.044 3 
0.462 0.164 0.044 3 
0.464 0.143 0.044 3 
0.464 0.132 0.044 3 
0.464 0.124 0.044 3 
0.464 0.113 0.044 3 
0.465 0.102 0.044 3 
0.459 0.214 0.014 3 
0.464 0.096 0.044 3 
0.464 0.094 0.044 3 
0.465 0.089 0.044 3 
0.467 0.014 0.052 3 
0.464 0.08 0.044 3 
0.465 0.073 0.044 3 
0.465 0.064 0.044 3 
0.466 0.054 0.044 3 
0.467 0.033 0.044 3 
0.467 0.022 0.044 3 
0.467 0.014 0.044 3 
0.468 0.003 0.044 3 
0.469 -0.007 0.044 3 
0.469 -0.015 0.044 3 
0.469 -0.026 0.044 3 
0.472 -0.075 0.063 3 
0.467 0.054 0.063 3 
0.466 0.043 0.063 3 
0.466 0.024 0.063 3 
0.468 0.003 0.063 3 
0.468 -0.007 0.063 3 
0.469 -0.015 0.063 3 
0.469 -0.026 0.063 3 
0.47 -0.036 0.063 3 
0.469 -0.047 0.063 3 
0.471 -0.056 0.063 3 
0.471 -0.067 0.063 3 
0.462 0.162 0.033 3 
0.467 0.073 0.063 3 
0.472 -0.086 0.063 3 
0.472 -0.097 0.063 3 
0.472 -0.106 0.063 3 
0.473 -0.117 0.063 3 
0.484 -0.345 0.052 3 
0.473 -0.125 0.063 3 
0.474 -0.137 0.063 3 
0.475 -0.146 0.063 3 
0.475 -0.157 0.063 3 
0.474 -0.162 0.063 3 
0.477 -0.257 0.004 3 
0.462 0.224 0.063 3 
0.482 -0.315 0.073 3 
0.482 -0.336 0.073 3 
0.484 -0.349 0.073 3 
0.459 0.324 0.062 3 
0.46 0.312 0.062 3 
0.46 0.302 0.062 3 
0.46 0.293 0.062 3 
0.461 0.284 0.062 3 
0.461 0.262 0.062 3 
0.461 0.253 0.062 3 
0.46 0.243 0.062 3 
0.474 -0.165 0.063 3 
0.463 0.213 0.063 3 
0.463 0.202 0.063 3 
0.462 0.193 0.063 3 
0.462 0.184 0.063 3 
0.463 0.173 0.063 3 
0.464 0.132 0.063 3 
0.464 0.124 0.063 3 
0.464 0.113 0.063 3 
0.464 0.102 0.063 3 
0.465 0.1 0.063 3 
0.465 0.094 0.063 3 
0.463 0.154 0.052 3 
0.459 0.292 0.054 3 
0.46 0.282 0.054 3 
0.461 0.262 0.054 3 
0.461 0.253 0.054 3 
0.46 0.234 0.054 3 
0.461 0.223 0.054 3 
0.463 0.213 0.054 3 
0.463 0.202 0.054 3 
0.462 0.193 0.054 3 
0.464 0.091 0.055 3 
0.462 0.173 0.052 3 
0.462 0.164 0.052 3 
0.459 0.304 0.054 3 
0.463 0.143 0.052 3 
0.464 0.132 0.052 3 
0.464 0.124 0.052 3 
0.464 0.113 0.052 3 
0.464 0.102 0.052 3 
0.465 0.091 0.052 3 
0.466 0.084 0.052 3 
0.466 0.073 0.052 3 
0.466 0.062 0.052 3 
0.467 0.033 0.052 3 
0.467 0.022 0.052 3 
0.477 -0.266 0.064 3 
0.474 -0.177 0.064 3 
0.461 0.212 0.022 3 
0.475 -0.183 0.064 3 
0.475 -0.186 0.064 3 
0.469 -0.015 0.033 3 
0.476 -0.195 0.064 3 
0.476 -0.216 0.064 3 
0.477 -0.226 0.064 3 
0.477 -0.235 0.064 3 
0.478 -0.245 0.064 3 
0.477 -0.257 0.064 3 
0.455 0.33 0.034 3 
0.477 -0.276 0.064 3 
0.478 -0.286 0.064 3 
0.481 -0.308 0.064 3 
0.481 -0.318 0.064 3 
0.482 -0.326 0.064 3 
0.483 -0.337 0.064 3 
0.474 -0.145 0.058 3 
0.485 -0.35 0.058 3 
0.468 0.003 0.023 3 
0.459 0.324 0.054 3 
0.459 0.314 0.054 3 
0.458 0.313 0.012 3 
0.472 -0.136 0.022 3 
0.472 -0.145 0.022 3 
0.473 -0.156 0.022 3 
0.474 -0.165 0.022 3 
0.473 -0.176 0.022 3 
0.464 0.04 0.018 3 
0.479 -0.287 0.014 3 
0.481 -0.346 0.004 3 
0.48 -0.328 0.014 3 
0.481 -0.339 0.013 3 
0.482 -0.347 0.013 3 
0.456 0.323 0.012 3 
0.472 -0.125 0.022 3 
0.459 0.304 0.012 3 
0.459 0.294 0.012 3 
0.458 0.263 0.013 3 
0.459 0.254 0.013 3 
0.458 0.242 0.014 3 
0.458 0.233 0.014 3 
0.459 0.222 0.014 3 
0.46 0.194 0.014 3 
0.46 0.183 0.014 3 
0.46 0.172 0.014 3 
0.46 0.164 0.014 3 
0.466 0.024 0.023 3 
0.462 0.134 0.023 3 
0.463 0.112 0.023 3 
0.463 0.104 0.023 3 
0.464 0.094 0.023 3 
0.464 0.083 0.023 3 
0.464 0.072 0.023 3 
0.464 0.064 0.023 3 
0.465 0.054 0.023 3 
0.464 0.051 0.023 3 
0.465 0.043 0.023 3 
0.465 0.032 0.023 3 
0.464 0.032 0.015 3 
0.467 0.014 0.023 3 
0.468 -0.007 0.023 3 
0.468 -0.015 0.023 3 
0.468 -0.026 0.023 3 
0.467 -0.036 0.023 3 
0.468 -0.047 0.023 3 
0.468 -0.055 0.023 3 
0.47 -0.077 0.023 3 
0.471 -0.097 0.022 3 
0.472 -0.105 0.022 3 
0.472 -0.116 0.022 3 
0.475 -0.225 0.004 3 
0.466 -0.007 0.012 3 
0.466 -0.015 0.012 3 
0.465 -0.025 0.012 3 
0.466 -0.036 0.012 3 
0.466 -0.047 0.012 3 
0.466 -0.055 0.012 3 
0.468 -0.066 0.012 3 
0.482 -0.337 0.004 3 
0.482 -0.355 0.004 3 
0.465 0.051 0.007 3 
0.465 0.043 0.007 3 
0.475 -0.216 0.004 3 
0.467 0.003 0.012 3 
0.478 -0.236 0.004 3 
0.464 0.064 0.004 3 
0.465 0.043 0.004 3 
0.467 -0.015 0.004 3 
0.467 -0.026 0.004 3 
0.47 -0.056 0.004 3 
0.47 -0.066 0.004 3 
0.47 -0.075 0.004 3 
0.472 -0.086 0.003 3 
0.474 -0.157 0.002 3 
0.465 0.073 0.001 3 
0.477 -0.275 0.012 3 
0.47 -0.105 0.014 3 
0.471 -0.116 0.014 3 
0.471 -0.136 0.014 3 
0.472 -0.145 0.014 3 
0.472 -0.167 0.014 3 
0.472 -0.176 0.014 3 
0.472 -0.185 0.014 3 
0.472 -0.196 0.013 3 
0.475 -0.21 0.013 3 
0.475 -0.225 0.013 3 
0.477 -0.256 0.012 3 
0.462 0.142 0.022 3 
0.46 0.152 0.012 3 
0.46 0.144 0.012 3 
0.462 0.134 0.012 3 
0.462 0.093 0.012 3 
0.462 0.083 0.012 3 
0.462 0.072 0.012 3 
0.463 0.064 0.012 3 
0.463 0.053 0.012 3 
0.464 0.032 0.012 3 
0.464 0.024 0.012 3 
0.465 0.019 0.012 3 
0.469 -0.047 0.033 3 
0.465 0.064 0.033 3 
0.464 0.062 0.034 3 
0.465 0.054 0.034 3 
0.466 0.043 0.033 3 
0.466 0.032 0.034 3 
0.47 -0.085 0.023 3 
0.466 0.024 0.034 3 
0.467 0.014 0.033 3 
0.468 0.003 0.033 3 
0.469 -0.007 0.033 3 
0.468 -0.026 0.033 3 
0.469 -0.036 0.033 3 
0.465 0.067 0.033 3 
0.47 -0.075 0.033 3 
0.472 -0.097 0.033 3 
0.472 -0.105 0.033 3 
0.472 -0.116 0.033 3 
0.462 0.123 0.012 3 
0.472 -0.125 0.033 3 
0.473 -0.136 0.033 3 
0.473 -0.145 0.033 3 
0.474 -0.157 0.033 3 
0.474 -0.165 0.033 3 
0.475 -0.18 0.033 3 
0.461 0.212 0.033 3 
0.456 0.324 0.034 3 
0.459 0.314 0.034 3 
0.481 -0.325 0.034 3 
0.481 -0.335 0.034 3 
0.484 -0.345 0.034 3 
0.461 0.293 0.032 3 
0.46 0.283 0.032 3 
0.461 0.262 0.032 3 
0.459 0.251 0.032 3 
0.46 0.243 0.032 3 
0.461 0.223 0.033 3 
0.475 -0.186 0.033 3 
0.462 0.204 0.033 3 
0.462 0.193 0.033 3 
0.462 0.184 0.033 3 
0.462 0.173 0.033 3 
0.463 0.143 0.033 3 
0.464 0.132 0.033 3 
0.463 0.124 0.033 3 
0.465 0.102 0.033 3 
0.464 0.091 0.033 3 
0.464 0.083 0.033 3 
0.464 0.072 0.034 3 
0.478 -0.276 0.023 3 
0.46 0.252 0.024 3 
0.46 0.243 0.024 3 
0.46 0.234 0.024 3 
0.474 -0.192 0.024 3 
0.474 -0.197 0.024 3 
0.474 -0.206 0.024 3 
0.475 -0.216 0.024 3 
0.477 -0.235 0.024 3 
0.477 -0.245 0.024 3 
0.478 -0.255 0.023 3 
0.478 -0.266 0.023 3 
0.46 0.264 0.024 3 
0.479 -0.286 0.023 3 
0.481 -0.305 0.023 3 
0.481 -0.315 0.023 3 
0.481 -0.325 0.022 3 
0.482 -0.336 0.022 3 
0.483 -0.345 0.022 3 
0.462 0.204 0.022 3 
0.461 0.184 0.022 3 
0.462 0.173 0.022 3 
0.462 0.162 0.022 3 
0.461 0.153 0.022 3 
0.479 -0.286 0.032 3 
0.474 -0.189 0.033 3 
0.474 -0.197 0.033 3 
0.474 -0.206 0.033 3 
0.475 -0.21 0.033 3 
0.476 -0.216 0.033 3 
0.476 -0.225 0.032 3 
0.476 -0.235 0.032 3 
0.476 -0.247 0.032 3 
0.477 -0.257 0.032 3 
0.477 -0.266 0.032 3 
0.478 -0.276 0.032 3 
0.481 -0.305 0.073 3 
0.48 -0.297 0.032 3 
0.481 -0.308 0.032 3 
0.465 0.116 0.031 3 
0.464 0.102 0.031 3 
0.464 0.054 0.028 3 
0.455 0.33 0.023 3 
0.456 0.324 0.023 3 
0.459 0.313 0.023 3 
0.459 0.304 0.023 3 
0.46 0.283 0.024 3 
0.46 0.273 0.024 3 
0.465 0.073 0.103 3 
0.464 0.152 0.103 3 
0.465 0.144 0.103 3 
0.464 0.141 0.103 3 
0.465 0.133 0.103 3 
0.465 0.122 0.103 3 
0.464 0.113 0.103 3 
0.464 0.102 0.103 3 
0.465 0.097 0.103 3 
0.465 0.092 0.103 3 
0.475 -0.163 0.002 3 
0.464 0.083 0.103 3 
0.465 0.081 0.103 3 
0.463 0.163 0.103 3 
0.465 0.062 0.103 3 
0.472 -0.097 0.082 3 
0.465 0.054 0.103 3 
0.467 0.033 0.103 3 
0.468 0.014 0.103 3 
0.467 0.003 0.103 3 
0.468 -0.007 0.103 3 
0.462 0.193 0.084 3 
0.469 -0.025 0.104 3 
0.47 -0.047 0.104 3 
0.471 -0.056 0.104 3 
0.461 0.263 0.104 3 
0.48 -0.285 0.114 3 
0.483 -0.298 0.114 3 
0.484 -0.309 0.112 3 
0.484 -0.315 0.112 3 
0.484 -0.326 0.112 3 
0.485 -0.33 0.112 3 
0.485 -0.337 0.113 3 
0.486 -0.345 0.113 3 
0.462 0.289 0.104 3 
0.461 0.282 0.104 3 
0.457 0.329 0.082 3 
0.471 -0.067 0.104 3 
0.462 0.252 0.104 3 
0.459 0.324 0.082 3 
0.461 0.242 0.104 3 
0.462 0.234 0.104 3 
0.458 0.272 0.013 3 
0.462 0.213 0.103 3 
0.463 0.194 0.103 3 
0.482 -0.329 0.073 3 
0.463 0.182 0.103 3 
0.477 -0.208 0.044 3 
0.463 0.174 0.103 3 
0.464 0.124 0.095 3 
0.479 -0.255 0.104 3 
0.478 -0.267 0.104 3 
0.464 0.132 0.098 3 
0.465 0.108 0.098 3 
0.466 0.043 0.044 3 
0.479 -0.278 0.102 3 
0.48 -0.288 0.102 3 
0.48 -0.295 0.102 3 
0.482 -0.306 0.102 3 
0.483 -0.328 0.103 3 
0.485 -0.337 0.103 3 
0.486 -0.345 0.104 3 
0.479 -0.246 0.104 3 
0.472 -0.097 0.003 3 
0.484 -0.336 0.1 3 
0.458 0.333 0.093 3 
0.461 0.323 0.094 3 
0.461 0.3 0.093 3 
0.462 0.213 0.092 3 
0.461 0.272 0.093 3 
0.46 0.262 0.093 3 
0.46 0.253 0.093 3 
0.462 0.242 0.093 3 
0.462 0.233 0.093 3 
0.474 -0.126 0.102 3 
0.473 -0.075 0.104 3 
0.484 -0.336 0.109 3 
0.458 0.33 0.102 3 
0.46 0.322 0.102 3 
0.461 0.314 0.102 3 
0.462 0.302 0.102 3 
0.464 0.07 0.1 3 
0.474 -0.095 0.102 3 
0.474 -0.106 0.102 3 
0.469 -0.036 0.044 3 
0.474 -0.115 0.102 3 
0.48 -0.275 0.113 3 
0.474 -0.137 0.102 3 
0.474 -0.146 0.102 3 
0.475 -0.154 0.102 3 
0.476 -0.158 0.103 3 
0.476 -0.166 0.103 3 
0.476 -0.175 0.103 3 
0.476 -0.187 0.103 3 
0.477 -0.196 0.103 3 
0.478 -0.215 0.104 3 
0.478 -0.227 0.104 3 
0.481 -0.335 0.043 3 
0.465 0.114 0.114 3 
0.462 0.219 0.114 3 
0.463 0.202 0.114 3 
0.463 0.194 0.114 3 
0.463 0.163 0.114 3 
0.464 0.152 0.114 3 
0.464 0.144 0.114 3 
0.465 0.136 0.114 3 
0.464 0.133 0.114 3 
0.465 0.13 0.114 3 
0.464 0.124 0.114 3 
0.465 0.117 0.114 3 
0.461 0.294 0.082 3 
0.461 0.225 0.114 3 
0.465 0.103 0.114 3 
0.465 0.092 0.114 3 
0.465 0.073 0.114 3 
0.465 0.062 0.114 3 
0.462 0.242 0.084 3 
0.466 0.054 0.114 3 
0.466 0.044 0.114 3 
0.466 0.033 0.114 3 
0.467 0.022 0.114 3 
0.467 0.014 0.114 3 
0.467 0.003 0.114 3 
0.479 -0.216 0.124 3 
0.462 0.322 0.122 3 
0.462 0.312 0.122 3 
0.475 -0.115 0.122 3 
0.474 -0.135 0.122 3 
0.475 -0.138 0.122 3 
0.475 -0.155 0.122 3 
0.476 -0.167 0.123 3 
0.477 -0.176 0.123 3 
0.477 -0.205 0.103 3 
0.478 -0.197 0.123 3 
0.479 -0.207 0.124 3 
0.461 0.274 0.054 3 
0.462 0.112 0.012 3 
0.479 -0.225 0.124 3 
0.48 -0.238 0.124 3 
0.48 -0.247 0.122 3 
0.479 -0.256 0.122 3 
0.48 -0.266 0.122 3 
0.477 -0.257 0.044 3 
0.481 -0.286 0.123 3 
0.483 -0.295 0.123 3 
0.484 -0.305 0.124 3 
0.484 -0.316 0.124 3 
0.484 -0.333 0.118 3 
0.474 -0.087 0.113 3 
0.47 -0.066 0.033 3 
0.473 -0.095 0.113 3 
0.473 -0.106 0.113 3 
0.474 -0.115 0.113 3 
0.474 -0.126 0.113 3 
0.474 -0.137 0.113 3 
0.475 -0.146 0.114 3 
0.475 -0.155 0.114 3 
0.477 -0.167 0.114 3 
0.477 -0.176 0.114 3 
0.476 -0.187 0.114 3 
0.473 -0.075 0.113 3 
0.484 -0.336 0.118 3 
0.464 0.1 0.108 3 
0.474 -0.146 0.111 3 
0.477 -0.196 0.112 3 
0.462 0.222 0.103 3 
0.477 -0.205 0.112 3 
0.478 -0.215 0.112 3 
0.479 -0.228 0.112 3 
0.479 -0.237 0.113 3 
0.479 -0.256 0.113 3 
0.479 -0.265 0.113 3 
0.461 0.294 0.113 3 
0.468 -0.007 0.114 3 
0.469 -0.015 0.114 3 
0.469 -0.031 0.114 3 
0.485 -0.327 0.121 3 
0.486 -0.346 0.122 3 
0.464 0.143 0.063 3 
0.459 0.335 0.113 3 
0.458 0.331 0.113 3 
0.461 0.324 0.113 3 
0.462 0.312 0.113 3 
0.461 0.304 0.113 3 
0.463 0.222 0.093 3 
0.461 0.282 0.113 3 
0.477 -0.257 0.052 3 
0.463 0.262 0.113 3 
0.462 0.252 0.112 3 
0.462 0.243 0.112 3 
0.464 0.111 0.111 3 
0.464 0.094 0.052 3 
0.47 -0.036 0.112 3 
0.47 -0.045 0.112 3 
0.471 -0.056 0.112 3 
0.472 -0.067 0.112 3 
0.461 0.294 0.074 3 
0.479 -0.277 0.084 3 
0.479 -0.287 0.084 3 
0.48 -0.298 0.084 3 
0.464 0.113 0.079 3 
0.464 0.091 0.079 3 
0.482 -0.316 0.082 3 
0.484 -0.338 0.082 3 
0.484 -0.345 0.082 3 
0.456 0.331 0.074 3 
0.459 0.324 0.074 3 
0.46 0.312 0.074 3 
0.46 0.302 0.074 3 
0.477 -0.266 0.084 3 
0.46 0.283 0.074 3 
0.46 0.274 0.074 3 
0.461 0.262 0.073 3 
0.461 0.253 0.073 3 
0.461 0.244 0.073 3 
0.475 -0.166 0.002 3 
0.462 0.233 0.073 3 
0.462 0.224 0.073 3 
0.462 0.213 0.073 3 
0.462 0.201 0.073 3 
0.462 0.193 0.073 3 
0.475 -0.166 0.083 3 
0.471 -0.056 0.082 3 
0.471 -0.067 0.082 3 
0.471 -0.075 0.082 3 
0.472 -0.086 0.082 3 
0.473 -0.106 0.083 3 
0.472 -0.117 0.083 3 
0.472 -0.125 0.083 3 
0.463 0.154 0.063 3 
0.474 -0.137 0.083 3 
0.475 -0.149 0.083 3 
0.475 -0.157 0.083 3 
0.462 0.184 0.073 3 
0.474 -0.171 0.083 3 
0.466 0.014 0.012 3 
0.475 -0.177 0.083 3 
0.475 -0.186 0.083 3 
0.476 -0.195 0.083 3 
0.477 -0.208 0.083 3 
0.477 -0.217 0.084 3 
0.477 -0.235 0.084 3 
0.472 -0.097 0.074 3 
0.478 -0.248 0.084 3 
0.478 -0.258 0.084 3 
0.475 -0.166 0.072 3 
0.472 -0.086 0.074 3 
0.472 -0.105 0.074 3 
0.473 -0.117 0.074 3 
0.474 -0.125 0.074 3 
0.474 -0.137 0.074 3 
0.475 -0.14 0.075 3 
0.474 -0.177 0.075 3 
0.465 0.103 0.071 3 
0.464 0.094 0.071 3 
0.475 -0.134 0.072 3 
0.475 -0.14 0.072 3 
0.475 -0.146 0.072 3 
0.471 -0.075 0.074 3 
0.474 -0.174 0.072 3 
0.476 -0.195 0.072 3 
0.477 -0.226 0.072 3 
0.477 -0.235 0.072 3 
0.472 -0.086 0.033 3 
0.477 -0.247 0.072 3 
0.477 -0.257 0.072 3 
0.478 -0.267 0.072 3 
0.478 -0.276 0.073 3 
0.479 -0.287 0.073 3 
0.48 -0.298 0.073 3 
0.465 0.084 0.074 3 
0.462 0.173 0.073 3 
0.463 0.162 0.073 3 
0.464 0.154 0.073 3 
0.464 0.143 0.073 3 
0.465 0.133 0.074 3 
0.464 0.124 0.073 3 
0.465 0.122 0.074 3 
0.464 0.113 0.073 3 
0.465 0.105 0.074 3 
0.464 0.102 0.073 3 
0.465 0.094 0.074 3 
0.47 -0.047 0.082 3 
0.465 0.073 0.074 3 
0.466 0.062 0.074 3 
0.466 0.033 0.074 3 
0.466 0.022 0.074 3 
0.467 0.014 0.074 3 
0.468 0.003 0.074 3 
0.468 -0.007 0.074 3 
0.468 -0.015 0.074 3 
0.469 -0.026 0.074 3 
0.469 -0.036 0.074 3 
0.471 -0.056 0.074 3 
0.475 -0.146 0.094 3 
0.469 -0.036 0.093 3 
0.47 -0.045 0.093 3 
0.47 -0.055 0.093 3 
0.471 -0.067 0.093 3 
0.471 -0.075 0.093 3 
0.472 -0.086 0.093 3 
0.474 -0.095 0.094 3 
0.474 -0.106 0.094 3 
0.473 -0.117 0.094 3 
0.473 -0.125 0.094 3 
0.461 0.192 0.022 3 
0.473 -0.137 0.094 3 
0.469 -0.025 0.093 3 
0.475 -0.157 0.094 3 
0.475 -0.166 0.094 3 
0.475 -0.177 0.094 3 
0.476 -0.187 0.094 3 
0.477 -0.196 0.092 3 
0.478 -0.206 0.092 3 
0.478 -0.227 0.092 3 
0.477 -0.235 0.092 3 
0.478 -0.245 0.092 3 
0.48 -0.287 0.043 3 
0.478 -0.258 0.093 3 
0.465 0.092 0.092 3 
0.463 0.193 0.092 3 
0.462 0.184 0.092 3 
0.463 0.174 0.092 3 
0.476 -0.265 0.004 3 
0.463 0.154 0.092 3 
0.464 0.143 0.092 3 
0.464 0.132 0.092 3 
0.464 0.124 0.092 3 
0.465 0.116 0.092 3 
0.465 0.114 0.092 3 
0.465 0.103 0.092 3 
0.478 -0.267 0.093 3 
0.464 0.113 0.033 3 
0.465 0.084 0.092 3 
0.465 0.073 0.092 3 
0.475 -0.216 0.013 3 
0.465 0.062 0.092 3 
0.463 0.123 0.023 3 
0.465 0.054 0.092 3 
0.467 0.033 0.092 3 
0.467 0.022 0.092 3 
0.468 -0.007 0.093 3 
0.468 -0.015 0.093 3 
0.467 0.043 0.084 3 
0.477 -0.266 0.012 3 
0.465 0.116 0.084 3 
0.465 0.114 0.084 3 
0.465 0.103 0.084 3 
0.465 0.092 0.084 3 
0.465 0.084 0.084 3 
0.466 0.073 0.084 3 
0.47 -0.045 0.074 3 
0.465 0.062 0.084 3 
0.466 0.054 0.084 3 
0.476 -0.216 0.072 3 
0.464 0.124 0.084 3 
0.466 0.033 0.084 3 
0.467 0.022 0.084 3 
0.467 0.014 0.084 3 
0.484 -0.352 0.088 3 
0.46 0.312 0.082 3 
0.461 0.284 0.082 3 
0.465 0.133 0.082 3 
0.468 0.003 0.082 3 
0.468 -0.015 0.082 3 
0.469 -0.026 0.082 3 
0.469 -0.036 0.082 3 
0.461 0.25 0.084 3 
0.473 -0.125 0.044 3 
0.479 -0.277 0.093 3 
0.46 0.292 0.024 3 
0.481 -0.305 0.093 3 
0.483 -0.317 0.094 3 
0.483 -0.328 0.094 3 
0.483 -0.335 0.094 3 
0.485 -0.339 0.094 3 
0.485 -0.346 0.094 3 
0.465 0.133 0.087 3 
0.46 0.262 0.084 3 
0.46 0.336 0.122 3 
0.461 0.232 0.084 3 
0.461 0.224 0.084 3 
0.462 0.213 0.084 3 
0.462 0.204 0.084 3 
0.463 0.182 0.084 3 
0.463 0.174 0.084 3 
0.457 0.332 0.054 3 
0.463 0.162 0.084 3 
0.463 0.154 0.084 3 
0.465 0.136 0.084 3 
0.464 0.132 0.084 3 
