# .PCD v0.7 - Point Cloud Data file
FIELDS x y z intensity
SIZE 4 4 4 4
TYPE F F F F
COUNT 1 1 1 1
WIDTH 2112
HEIGHT 1
VIEWPOINT 0 0 0 1 0 0 0
POINTS 2112
DATA ascii
0.271 -0.064 0.091 0 
0.258 -0.065 0.098 0 
0.254 -0.068 0.096 0 
0.249 -0.068 0.094 0 
0.244 -0.069 0.092 0 
0.234 -0.073 0.089 0 
0.229 -0.075 0.087 0 
0.33 -0.123 0.009 0 
0.285 -0.059 0.088 0 
0.264 -0.069 0.094 0 
0.265 -0.069 0.094 0 
0.329 -0.135 0.009 0 
0.267 -0.069 0.096 0 
0.275 -0.061 0.089 0 
0.357 0.014 0.001 0 
0.36 -0.006 0.009 0 
0.353 0.013 0.004 0 
0.338 -0.132 0.007 0 
0.329 -0.127 0.009 0 
0.323 -0.145 -0.003 1 
0.322 -0.127 -0.002 1 
0.324 -0.025 -0.001 1 
0.357 0.074 -0.014 1 
0.355 0.107 -0.014 1 
0.353 0.124 -0.014 1 
0.353 0.133 -0.015 1 
0.352 0.162 -0.015 1 
0.35 0.173 -0.015 1 
0.351 0.184 -0.016 1 
0.352 0.193 -0.017 1 
0.343 0.205 -0.015 1 
0.324 -0.116 -0.001 1 
0.322 -0.096 0 1 
0.324 -0.088 0 1 
0.334 -0.005 -0.003 1 
0.344 0.003 -0.007 1 
0.363 0.073 -0.015 1 
0.361 0.08 -0.014 1 
0.364 0.094 -0.016 1 
0.363 0.104 -0.016 1 
0.361 0.112 -0.015 1 
0.362 0.124 -0.016 1 
0.357 0.136 -0.014 1 
0.349 0.211 -0.016 1 
0.334 -0.145 -0.004 1 
0.331 -0.127 -0.002 1 
0.33 -0.115 -0.002 1 
0.324 -0.074 0 1 
0.332 -0.035 -0.001 1 
0.333 -0.025 -0.002 1 
0.333 -0.023 -0.002 1 
0.343 -0.009 -0.005 1 
0.364 0.034 -0.013 1 
0.364 0.043 -0.013 1 
0.364 0.133 -0.015 1 
0.364 0.143 -0.015 1 
0.363 0.154 -0.015 1 
0.363 0.194 -0.017 1 
0.362 0.203 -0.017 1 
0.357 0.218 -0.017 1 
0.354 0.217 -0.016 1 
0.342 -0.178 -0.006 1 
0.339 -0.155 -0.004 1 
0.339 -0.153 -0.004 1 
0.334 -0.107 -0.001 1 
0.354 0.015 -0.007 1 
0.372 0.033 -0.014 1 
0.368 0.042 -0.013 1 
0.374 0.054 -0.015 1 
0.373 0.104 -0.015 1 
0.372 0.113 -0.015 1 
0.374 0.122 -0.016 1 
0.374 0.134 -0.016 1 
0.371 0.142 -0.016 1 
0.37 0.163 -0.016 1 
0.372 0.202 -0.019 1 
0.362 0.226 -0.017 1 
0.346 -0.18 -0.006 1 
0.344 -0.168 -0.005 1 
0.344 -0.136 -0.004 1 
0.341 -0.125 -0.003 1 
0.377 0.067 -0.014 1 
0.379 0.073 -0.015 1 
0.378 0.083 -0.015 1 
0.379 0.103 -0.015 1 
0.378 0.143 -0.016 1 
0.374 0.174 -0.016 1 
0.373 0.183 -0.016 1 
0.374 0.191 -0.017 1 
0.374 0.213 -0.018 1 
0.372 0.223 -0.018 1 
0.354 -0.166 -0.006 1 
0.353 -0.156 -0.006 1 
0.353 -0.146 -0.005 1 
0.352 -0.14 -0.005 1 
0.351 -0.135 -0.004 1 
0.352 -0.134 -0.005 1 
0.344 -0.036 -0.001 1 
0.359 -0.006 -0.006 1 
0.357 -0.001 -0.005 1 
0.384 0.039 -0.014 1 
0.382 0.064 -0.014 1 
0.382 0.11 -0.014 1 
0.383 0.113 -0.015 1 
0.381 0.116 -0.014 1 
0.383 0.123 -0.015 1 
0.384 0.13 -0.016 1 
0.384 0.153 -0.016 1 
0.384 0.164 -0.017 1 
0.38 0.203 -0.017 1 
0.342 -0.095 -0.001 1 
0.379 0.223 -0.018 1 
0.359 -0.168 -0.006 1 
0.354 -0.116 -0.003 1 
0.351 -0.105 -0.002 1 
0.33 -0.075 0.004 1 
0.333 -0.07 0.003 1 
0.358 -0.006 -0.004 1 
0.362 0.016 -0.005 1 
0.384 0.025 -0.012 1 
0.39 0.044 -0.014 1 
0.392 0.049 -0.015 1 
0.392 0.063 -0.015 1 
0.392 0.084 -0.015 1 
0.391 0.092 -0.015 1 
0.389 0.133 -0.015 1 
0.382 0.182 -0.015 1 
0.383 0.194 -0.016 1 
0.384 0.243 -0.018 1 
0.382 0.248 -0.018 1 
0.382 0.017 -0.009 1 
0.398 0.065 -0.015 1 
0.394 0.068 -0.014 1 
0.397 0.084 -0.015 1 
0.395 0.112 -0.015 1 
0.394 0.123 -0.014 1 
0.394 0.138 -0.015 1 
0.394 0.153 -0.015 1 
0.394 0.164 -0.016 1 
0.389 0.17 -0.014 1 
0.39 0.184 -0.015 1 
0.393 0.213 -0.017 1 
0.392 0.224 -0.017 1 
0.375 -0.204 -0.008 1 
0.341 -0.068 0.004 1 
0.343 -0.051 0.004 1 
0.344 -0.021 0.003 1 
0.341 -0.007 0.004 1 
0.401 0.044 -0.013 1 
0.402 0.053 -0.014 1 
0.404 0.064 -0.014 1 
0.401 0.074 -0.014 1 
0.403 0.094 -0.015 1 
0.404 0.101 -0.015 1 
0.403 0.119 -0.015 1 
0.401 0.124 -0.014 1 
0.401 0.153 -0.015 1 
0.397 0.169 -0.015 1 
0.396 0.182 -0.015 1 
0.394 0.243 -0.017 1 
0.393 0.253 -0.017 1 
0.363 -0.146 -0.001 1 
0.368 -0.146 -0.003 1 
0.356 -0.104 0.001 1 
0.35 -0.097 0.003 1 
0.347 -0.062 0.004 1 
0.334 -0.049 0 1 
0.346 -0.035 0.004 1 
0.337 -0.024 0.007 1 
0.346 -0.006 0.004 1 
0.355 0.003 0.002 1 
0.403 0.023 -0.012 1 
0.404 0.032 -0.012 1 
0.409 0.094 -0.014 1 
0.41 0.097 -0.014 1 
0.411 0.102 -0.015 1 
0.413 0.114 -0.016 1 
0.41 0.124 -0.015 1 
0.403 0.132 -0.013 1 
0.394 0.023 -0.011 1 
0.403 0.139 -0.013 1 
0.409 0.154 -0.015 1 
0.403 0.193 -0.015 1 
0.4 0.192 -0.014 1 
0.404 0.223 -0.016 1 
0.402 0.233 -0.016 1 
0.402 0.241 -0.016 1 
0.403 0.258 -0.018 1 
0.362 -0.167 0 1 
0.36 -0.163 0 1 
0.363 -0.14 0 1 
0.366 -0.134 0 1 
0.374 -0.136 -0.002 1 
0.364 -0.125 0 1 
0.364 -0.122 0 1 
0.365 -0.117 0 1 
0.362 -0.109 0.001 1 
0.354 -0.067 0.004 1 
0.357 -0.066 0.003 1 
0.353 -0.051 0.004 1 
0.366 -0.044 0 1 
0.354 0.003 0.004 1 
0.411 0.044 -0.012 1 
0.406 0.05 -0.01 1 
0.321 -0.106 -0.001 1 
0.414 0.063 -0.013 1 
0.414 0.074 -0.013 1 
0.418 0.114 -0.015 1 
0.417 0.123 -0.015 1 
0.413 0.156 -0.014 1 
0.414 0.162 -0.015 1 
0.413 0.174 -0.015 1 
0.408 0.234 -0.015 1 
0.412 0.273 -0.018 1 
0.343 -0.105 0.008 1 
0.35 -0.106 0.006 1 
0.339 -0.095 0.009 1 
0.362 -0.043 0.003 1 
0.383 0.213 -0.018 1 
0.422 0.032 -0.013 1 
0.422 0.053 -0.013 1 
0.421 0.064 -0.013 1 
0.422 0.074 -0.013 1 
0.419 0.084 -0.012 1 
0.421 0.092 -0.013 1 
0.424 0.103 -0.014 1 
0.423 0.114 -0.014 1 
0.421 0.123 -0.013 1 
0.412 0.134 -0.011 1 
0.413 0.142 -0.012 1 
0.398 0.061 -0.015 1 
0.414 0.214 -0.014 1 
0.415 0.233 -0.015 1 
0.414 0.242 -0.015 1 
0.414 0.25 -0.015 1 
0.367 -0.048 0.003 1 
0.428 0.042 -0.012 1 
0.427 0.052 -0.012 1 
0.428 0.073 -0.012 1 
0.422 0.133 -0.011 1 
0.422 0.159 -0.012 1 
0.422 0.182 -0.013 1 
0.422 0.192 -0.013 1 
0.42 0.203 -0.013 1 
0.355 -0.157 -0.005 1 
0.419 0.213 -0.013 1 
0.344 -0.163 -0.005 1 
0.419 0.223 -0.013 1 
0.42 0.232 -0.014 1 
0.422 0.237 -0.014 1 
0.422 0.242 -0.015 1 
0.423 0.254 -0.015 1 
0.423 0.262 -0.016 1 
0.423 0.282 -0.016 1 
0.353 0.154 -0.015 1 
0.344 0.013 -0.009 1 
0.43 0.024 -0.01 1 
0.434 0.063 -0.011 1 
0.433 0.084 -0.011 1 
0.433 0.094 -0.011 1 
0.433 0.114 -0.012 1 
0.434 0.124 -0.012 1 
0.424 0.148 -0.01 1 
0.429 0.292 -0.016 1 
0.344 -0.047 0.013 1 
0.357 0.014 -0.005 1 
0.408 0.224 -0.015 1 
0.44 0.044 -0.01 1 
0.439 0.074 -0.01 1 
0.437 0.083 -0.01 1 
0.439 0.104 -0.011 1 
0.439 0.134 -0.011 1 
0.434 0.144 -0.01 1 
0.432 0.153 -0.01 1 
0.433 0.164 -0.01 1 
0.434 0.183 -0.011 1 
0.433 0.193 -0.011 1 
0.432 0.224 -0.012 1 
0.432 0.232 -0.012 1 
0.432 0.254 -0.012 1 
0.431 0.262 -0.012 1 
0.432 0.271 -0.013 1 
0.433 0.284 -0.014 1 
0.433 0.293 -0.014 1 
0.433 0.296 -0.014 1 
0.436 0.302 -0.015 1 
0.422 0.044 -0.013 1 
0.349 -0.06 0.013 1 
0.431 -0.008 -0.005 1 
0.443 0.027 -0.008 1 
0.444 0.053 -0.009 1 
0.443 0.062 -0.009 1 
0.444 0.121 -0.009 1 
0.444 0.318 -0.015 1 
0.351 -0.065 0.014 1 
0.343 -0.056 0.016 1 
0.417 -0.008 0 1 
0.44 0.144 -0.009 1 
0.452 0.044 -0.008 1 
0.451 0.054 -0.008 1 
0.451 0.064 -0.008 1 
0.452 0.072 -0.008 1 
0.444 0.157 -0.007 1 
0.444 0.173 -0.008 1 
0.41 0.193 -0.015 1 
0.444 0.181 -0.008 1 
0.443 0.202 -0.008 1 
0.441 0.242 -0.009 1 
0.441 0.274 -0.01 1 
0.442 0.284 -0.011 1 
0.442 0.293 -0.011 1 
0.443 0.304 -0.011 1 
0.444 0.308 -0.012 1 
0.361 0.173 -0.016 1 
0.454 0.029 -0.006 1 
0.455 0.034 -0.006 1 
0.456 0.044 -0.006 1 
0.455 0.052 -0.006 1 
0.456 0.091 -0.007 1 
0.454 0.093 -0.006 1 
0.454 0.104 -0.006 1 
0.453 0.122 -0.006 1 
0.454 0.125 -0.007 1 
0.451 0.153 -0.006 1 
0.452 0.234 -0.008 1 
0.45 0.262 -0.009 1 
0.462 -0.017 -0.005 1 
0.46 0.063 -0.005 1 
0.374 0.021 -0.011 1 
0.46 0.074 -0.005 1 
0.459 0.079 -0.005 1 
0.458 0.103 -0.005 1 
0.458 0.113 -0.005 1 
0.458 0.124 -0.005 1 
0.454 0.163 -0.005 1 
0.456 0.178 -0.005 1 
0.39 0.232 -0.017 1 
0.454 0.182 -0.005 1 
0.454 0.193 -0.005 1 
0.455 0.2 -0.006 1 
0.453 0.204 -0.005 1 
0.454 0.213 -0.006 1 
0.453 0.215 -0.006 1 
0.453 0.244 -0.006 1 
0.454 0.254 -0.007 1 
0.454 0.284 -0.008 1 
0.451 0.293 -0.007 1 
0.451 0.303 -0.008 1 
0.455 0.323 -0.009 1 
0.384 0.093 -0.015 1 
0.34 -0.115 -0.002 1 
0.456 0.17 -0.005 1 
0.466 -0.012 -0.003 1 
0.437 -0.008 0.002 1 
0.394 0.018 0.011 1 
0.461 0.233 -0.005 1 
0.458 0.254 -0.005 1 
0.459 0.264 -0.005 1 
0.462 0.273 -0.006 1 
0.456 0.292 -0.005 1 
0.456 0.301 -0.006 1 
0.455 0.313 -0.006 1 
0.453 0.314 -0.006 1 
0.451 0.322 -0.006 1 
0.453 0.327 -0.006 1 
0.409 0.126 -0.015 1 
0.466 0.03 0 1 
0.464 0.124 -0.001 1 
0.464 0.129 -0.001 1 
0.354 0.138 -0.015 1 
0.463 0.032 0.002 1 
0.466 0.147 0 1 
0.464 0.18 0 1 
0.454 0.322 0 1 
0.442 -0.021 0.008 1 
0.444 0 0.008 1 
0.418 0.016 0.013 1 
0.441 0.02 0.008 1 
0.463 0.104 0.004 1 
0.464 0.107 0.004 1 
0.466 0.114 0.003 1 
0.353 -0.15 0.001 1 
0.465 0.144 0.003 1 
0.462 0.154 0.003 1 
0.462 0.162 0.003 1 
0.464 0.169 0.003 1 
0.469 0.174 0.002 1 
0.47 0.184 0.002 1 
0.465 0.192 0.002 1 
0.464 0.194 0.003 1 
0.462 0.204 0.003 1 
0.462 0.222 0.002 1 
0.463 0.234 0.002 1 
0.415 0.165 -0.015 1 
0.465 0.242 0.002 1 
0.462 0.337 0 1 
0.411 0.179 -0.014 1 
0.448 0.003 0.01 1 
0.449 -0.011 -0.007 1 
0.448 0.013 0.01 1 
0.453 0.016 0.009 1 
0.465 0.254 0.004 1 
0.467 0.274 0.003 1 
0.465 0.301 0.003 1 
0.464 0.303 0.003 1 
0.464 0.313 0.003 1 
0.464 0.322 0.003 1 
0.465 0.33 0.002 1 
0.461 0.329 0.003 1 
0.355 0.104 -0.014 1 
0.424 0.272 -0.016 1 
0.459 -0.017 0.013 1 
0.461 -0.007 0.013 1 
0.462 0.003 0.013 1 
0.462 -0.009 -0.005 1 
0.463 0.014 0.013 1 
0.464 0.024 0.012 1 
0.413 0.203 -0.013 1 
0.442 0.252 -0.009 1 
0.465 0.291 0.003 1 
0.464 -0.001 0.015 1 
0.46 0.133 -0.005 1 
0.434 0.134 -0.012 1 
0.443 0.264 -0.01 1 
0.353 0.044 -0.012 1 
0.373 0.094 -0.015 1 
0.374 0.239 -0.017 1 
0.391 0.174 -0.015 1 
0.414 0.154 -0.014 1 
0.464 0.014 0.015 1 
0.334 -0.064 0 1 
0.402 0.204 -0.015 1 
0.453 0.143 -0.007 1 
0.343 -0.056 0.004 1 
0.41 0.263 -0.017 1 
0.431 0.173 -0.01 1 
0.458 0.143 -0.005 1 
0.394 0.259 -0.017 1 
0.364 0.063 -0.015 1 
0.393 0.103 -0.016 1 
0.337 -0.055 0.014 1 
0.344 -0.025 -0.001 1 
0.415 0.02 -0.006 1 
0.464 0.244 0.004 1 
0.334 -0.004 -0.005 1 
0.374 0.07 -0.015 1 
0.443 0.154 -0.007 1 
0.43 0.284 -0.016 1 
0.396 0.019 0.006 1 
0.354 0.025 -0.013 1 
0.345 -0.034 0.009 1 
0.405 0.058 -0.015 1 
0.464 0.284 0.006 1 
0.458 0.284 -0.006 1 
0.394 0.033 -0.013 1 
0.353 0.046 -0.012 1 
0.444 0.211 -0.009 1 
0.357 0.132 -0.014 1 
0.414 0.02 -0.008 1 
0.464 -0.017 0.004 1 
0.462 0.093 0.004 1 
0.432 0.202 -0.011 1 
0.411 0.278 -0.018 1 
0.353 0.013 -0.005 1 
0.354 -0.006 -0.006 1 
0.456 0.153 -0.005 1 
0.453 -0.017 -0.005 1 
0.352 0.204 -0.018 1 
0.401 0.142 -0.015 1 
0.351 0.003 -0.005 1 
0.402 0.213 -0.015 1 
0.414 0.224 -0.014 1 
0.373 0.048 -0.014 1 
0.365 -0.049 0.006 1 
0.399 0.163 -0.015 1 
0.372 0.153 -0.016 1 
0.384 0.233 -0.018 1 
0.364 -0.05 0.004 1 
0.388 0.124 -0.015 1 
0.373 0.062 -0.014 1 
0.372 0.084 -0.015 1 
0.394 0.199 -0.015 1 
0.428 0.27 -0.015 1 
0.421 0.174 -0.012 1 
0.353 -0.126 -0.003 1 
0.466 0.264 0.004 1 
0.423 0.285 -0.017 1 
0.373 0.064 -0.015 1 
0.347 -0.094 0.004 1 
0.394 0.192 -0.015 1 
0.361 0.164 -0.015 1 
0.405 0.165 -0.014 1 
0.335 -0.083 0.004 1 
0.437 0.31 -0.016 1 
0.333 -0.095 -0.001 1 
0.389 0.114 -0.015 1 
0.464 0.143 -0.001 1 
0.333 -0.005 -0.005 1 
0.437 0.093 -0.01 1 
0.452 0.114 -0.006 1 
0.395 0.11 -0.014 1 
0.392 0.073 -0.015 1 
0.363 0.084 -0.015 1 
0.45 0.274 -0.009 1 
0.431 0.303 -0.017 1 
0.424 0.143 -0.01 1 
0.436 0.022 -0.009 1 
0.464 0.253 0 1 
0.372 0.03 -0.018 1 
0.41 -0.005 0.007 1 
0.457 0.224 -0.007 1 
0.459 -0.009 0 1 
0.465 0.124 0.006 1 
0.361 0.211 -0.018 1 
0.464 0.262 -0.001 1 
0.324 -0.136 -0.003 1 
0.453 -0.017 0.004 1 
0.424 0.295 -0.017 1 
0.434 0.034 -0.011 1 
0.433 0.104 -0.011 1 
0.368 0.233 -0.017 1 
0.466 0.282 0.003 1 
0.393 0.133 -0.014 1 
0.444 0.113 -0.009 1 
0.361 0.183 -0.016 1 
0.391 0.053 -0.014 1 
0.403 0.174 -0.014 1 
0.324 -0.045 -0.001 1 
0.349 -0.024 0.002 1 
0.45 0.084 -0.008 1 
0.384 0.053 -0.014 1 
0.416 -0.019 0.008 1 
0.36 -0.044 0.007 1 
0.334 -0.086 0.001 1 
0.364 0.045 -0.013 1 
0.356 -0.045 0.01 1 
0.353 0.131 -0.014 1 
0.459 0.243 -0.005 1 
0.362 0.055 -0.014 1 
0.415 0.014 0.013 1 
0.401 0.083 -0.014 1 
0.345 -0.033 0.004 1 
0.464 0.083 0.004 1 
0.427 0.003 0.011 1 
0.402 0.254 -0.017 1 
0.343 -0.109 -0.001 1 
0.464 0.284 -0.001 1 
0.439 0.194 -0.01 1 
0.414 0.083 -0.013 1 
0.324 -0.075 0 1 
0.412 0.033 -0.012 1 
0.4 0.2 -0.014 1 
0.433 0.214 -0.011 1 
0.44 0.222 -0.011 1 
0.354 0.121 -0.015 1 
0.372 0.082 -0.014 1 
0.414 0.227 -0.014 1 
0.334 -0.136 -0.004 1 
0.341 -0.146 -0.005 1 
0.455 0.161 -0.005 1 
0.464 0.293 0.003 1 
0.454 0.171 -0.005 1 
0.379 0.173 -0.016 1 
0.444 0.234 -0.009 1 
0.452 -0.014 0.001 1 
0.455 0.191 -0.006 1 
0.461 0.212 0.003 1 
0.432 0.243 -0.012 1 
0.339 -0.088 0.004 1 
0.454 -0.024 0.014 1 
0.412 0.183 -0.015 1 
0.41 0.213 -0.015 1 
0.464 0.265 -0.001 1 
0.465 0.31 0.003 1 
0.467 0.122 0.003 1 
0.403 0.092 -0.014 1 
0.285 -0.068 0.047 2 
0.323 -0.107 0.017 2 
0.3 -0.08 0.048 2 
0.295 -0.055 0.04 2 
0.302 -0.046 0.04 2 
0.304 -0.044 0.04 2 
0.309 -0.035 0.039 2 
0.318 -0.024 0.044 2 
0.255 -0.098 0.049 2 
0.339 -0.025 0.041 2 
0.314 -0.027 0.046 2 
0.321 -0.03 0.057 2 
0.258 -0.064 0.074 2 
0.349 -0.075 0.024 2 
0.243 -0.085 0.072 2 
0.296 -0.05 0.076 2 
0.282 -0.075 0.048 2 
0.343 -0.08 0.02 2 
0.354 0.013 0.024 2 
0.274 -0.054 0.075 2 
0.269 -0.058 0.074 2 
0.275 -0.059 0.084 2 
0.305 -0.045 0.038 2 
0.353 -0.014 0.02 2 
0.254 -0.074 0.064 2 
0.305 -0.034 0.059 2 
0.274 -0.051 0.064 2 
0.276 -0.05 0.064 2 
0.295 -0.04 0.064 2 
0.293 -0.04 0.064 2 
0.283 -0.08 0.044 2 
0.328 -0.083 0.04 2 
0.324 -0.079 0.04 2 
0.333 -0.024 0.04 2 
0.286 -0.045 0.064 2 
0.302 -0.034 0.061 2 
0.253 -0.075 0.064 2 
0.26 -0.068 0.064 2 
0.317 -0.037 0.031 2 
0.304 -0.032 0.059 2 
0.353 -0.053 0.026 2 
0.262 -0.095 0.044 2 
0.258 -0.065 0.074 2 
0.313 -0.09 0.037 2 
0.244 -0.088 0.064 2 
0.245 -0.088 0.064 2 
0.348 -0.038 0.064 2 
0.337 -0.031 0.013 2 
0.257 -0.105 0.047 2 
0.292 -0.081 0.047 2 
0.303 -0.086 0.046 2 
0.31 -0.087 0.045 2 
0.326 -0.09 0.043 2 
0.319 -0.085 0.043 2 
0.294 -0.07 0.044 2 
0.294 -0.057 0.039 2 
0.297 -0.055 0.039 2 
0.256 -0.085 0.054 2 
0.294 -0.043 0.074 2 
0.335 -0.042 0.02 2 
0.336 -0.081 0.034 2 
0.325 -0.035 0.065 2 
0.249 -0.075 0.08 2 
0.334 -0.084 0.025 2 
0.266 -0.065 0.084 2 
0.299 -0.07 0.044 2 
0.265 -0.065 0.061 2 
0.246 -0.085 0.071 2 
0.314 -0.095 0.025 2 
0.286 -0.075 0.047 2 
0.25 -0.095 0.054 2 
0.254 -0.087 0.054 2 
0.256 -0.07 0.084 2 
0.342 -0.072 0.014 2 
0.264 -0.075 0.054 2 
0.273 -0.065 0.054 2 
0.274 -0.056 0.054 2 
0.276 -0.055 0.054 2 
0.334 -0.032 0.016 2 
0.32 -0.029 0.055 2 
0.309 -0.029 0.049 2 
0.32 -0.057 0.035 2 
0.304 -0.032 0.049 2 
0.255 -0.085 0.055 2 
0.284 -0.047 0.054 2 
0.287 -0.045 0.054 2 
0.294 -0.042 0.054 2 
0.302 -0.036 0.05 2 
0.276 -0.052 0.074 2 
0.358 -0.056 0.025 2 
0.264 -0.091 0.044 2 
0.369 -0.013 0.016 2 
0.236 -0.071 0.084 2 
0.228 -0.069 0.074 2 
0.244 -0.075 0.078 2 
0.271 -0.061 0.084 2 
0.248 -0.095 0.058 2 
0.346 -0.044 0.013 2 
0.286 -0.055 0.049 2 
0.295 -0.046 0.044 2 
0.265 -0.075 0.054 2 
0.274 -0.054 0.074 2 
0.275 -0.065 0.052 2 
0.305 -0.035 0.045 2 
0.335 -0.049 0.033 2 
0.334 -0.073 0.011 2 
0.257 -0.075 0.063 2 
0.298 -0.042 0.069 2 
0.356 -0.062 0.03 2 
0.334 -0.01 0.019 2 
0.228 -0.073 0.084 2 
0.293 -0.044 0.075 2 
0.291 -0.045 0.074 2 
0.346 -0.046 0.01 2 
0.276 -0.095 0.033 2 
0.394 -0.023 0.012 2 
0.264 -0.064 0.078 2 
0.274 -0.092 0.034 2 
0.273 -0.123 0.04 2 
0.274 -0.096 0.034 2 
0.273 -0.105 0.04 2 
0.322 -0.021 0.026 2 
0.32 -0.029 0.026 2 
0.324 -0.089 0.036 2 
0.348 -0.075 0.031 2 
0.324 -0.089 0.026 2 
0.319 -0.025 0.036 2 
0.321 -0.024 0.036 2 
0.378 -0.024 0.016 2 
0.351 -0.052 0.029 2 
0.337 -0.014 0.016 2 
0.243 -0.08 0.074 2 
0.344 -0.049 0.019 2 
0.245 -0.068 0.084 2 
0.283 -0.054 0.081 2 
0.248 -0.074 0.074 2 
0.247 -0.075 0.074 2 
0.354 -0.068 0.021 2 
0.328 -0.085 0.035 2 
0.333 -0.082 0.033 2 
0.32 -0.045 0.037 2 
0.328 -0.022 0.036 2 
0.363 -0.025 0.032 2 
0.325 -0.095 0.018 2 
0.284 -0.085 0.037 2 
0.325 -0.039 0.024 2 
0.344 -0.018 0.02 2 
0.339 -0.044 0.021 2 
0.358 -0.052 0.023 2 
0.354 0.003 0.028 2 
0.356 0.003 0.03 2 
0.357 0.012 0.031 2 
0.293 -0.086 0.038 2 
0.358 -0.065 0.02 2 
0.346 -0.02 0.022 2 
0.355 -0.019 0.02 2 
0.284 -0.088 0.034 2 
0.292 -0.095 0.03 2 
0.346 -0.025 0.037 2 
0.304 -0.088 0.037 2 
0.337 -0.019 0.025 2 
0.354 0.013 0.029 2 
0.373 -0.021 0.019 2 
0.332 -0.018 0.02 2 
0.378 -0.02 0.013 2 
0.327 -0.038 0.02 2 
0.292 -0.054 0.079 2 
0.353 -0.056 0.015 2 
0.279 -0.128 0.038 2 
0.265 -0.107 0.041 2 
0.333 -0.085 0.024 2 
0.265 -0.095 0.041 2 
0.294 -0.086 0.04 2 
0.353 -0.07 0.029 2 
0.355 -0.001 0.018 2 
0.339 -0.035 0.016 2 
0.304 -0.096 0.027 2 
0.288 -0.095 0.032 2 
0.285 -0.112 0.032 2 
0.34 -0.008 0.018 2 
0.276 -0.114 0.034 2 
0.26 -0.105 0.044 2 
0.333 -0.071 0.01 2 
0.266 -0.085 0.044 2 
0.335 -0.088 0.011 2 
0.343 -0.076 0.03 2 
0.331 -0.083 0.015 2 
0.344 -0.074 0.03 2 
0.328 -0.015 0.01 2 
0.333 -0.087 0.015 2 
0.292 -0.093 0.029 2 
0.289 -0.108 0.028 2 
0.316 -0.12 0.019 2 
0.271 -0.055 0.064 2 
0.264 -0.062 0.064 2 
0.265 -0.085 0.045 2 
0.273 -0.079 0.044 2 
0.314 -0.069 0.038 2 
0.317 -0.065 0.035 2 
0.353 -0.058 0.03 2 
0.315 -0.042 0.04 2 
0.288 -0.056 0.084 2 
0.336 -0.085 0.02 2 
0.324 -0.095 0.018 2 
0.318 -0.095 0.027 2 
0.314 -0.093 0.027 2 
0.317 -0.025 0.046 2 
0.354 0.003 0.021 2 
0.331 -0.033 0.019 2 
0.345 -0.041 0.01 2 
0.343 -0.074 0.011 2 
0.332 -0.014 0.015 2 
0.303 -0.094 0.029 2 
0.356 -0.066 0.03 2 
0.431 -0.029 0.008 2 
0.441 -0.036 0.011 2 
0.441 -0.028 0.004 2 
0.468 0.214 0.113 3 
0.465 0.017 0.143 3 
0.467 0.154 0.142 3 
0.467 0.224 0.144 3 
0.467 0.143 0.142 3 
0.464 0.183 0.033 3 
0.464 0.022 0.143 3 
0.465 -0.006 0.143 3 
0.468 0.213 0.144 3 
0.463 0.03 0.143 3 
0.465 0.033 0.143 3 
0.465 0.164 0.142 3 
0.466 0.182 0.142 3 
0.468 0.204 0.143 3 
0.466 0.194 0.143 3 
0.465 -0.001 0.154 3 
0.465 0.044 0.143 3 
0.466 -0.076 0.141 3 
0.464 0.102 0.084 3 
0.468 -0.107 0.142 3 
0.465 0.169 0.049 3 
0.467 0.248 0.144 3 
0.466 0.022 0.103 3 
0.466 -0.071 0.144 3 
0.467 -0.085 0.142 3 
0.467 0.242 0.144 3 
0.464 -0.065 0.143 3 
0.466 0.232 0.144 3 
0.464 0.1 0.141 3 
0.465 0.003 0.141 3 
0.469 -0.127 0.143 3 
0.467 -0.055 0.144 3 
0.467 -0.047 0.144 3 
0.467 -0.025 0.144 3 
0.467 -0.015 0.144 3 
0.467 -0.115 0.142 3 
0.463 0.003 0.143 3 
0.464 0.092 0.141 3 
0.467 -0.163 0.154 3 
0.465 0.123 0.152 3 
0.466 0.134 0.153 3 
0.465 0.122 0.063 3 
0.466 0.142 0.153 3 
0.466 0.154 0.153 3 
0.465 0.164 0.153 3 
0.466 0.173 0.153 3 
0.471 -0.136 0.154 3 
0.463 0.339 0.062 3 
0.47 -0.147 0.154 3 
0.471 -0.134 0.154 3 
0.465 0.304 0.043 3 
0.466 0.179 0.153 3 
0.468 0.296 0.154 3 
0.469 0.288 0.154 3 
0.469 0.281 0.154 3 
0.464 0.181 0.153 3 
0.468 0.261 0.153 3 
0.465 0.191 0.154 3 
0.468 0.252 0.153 3 
0.467 -0.015 0.152 3 
0.464 0.07 0.151 3 
0.469 0.083 0.153 3 
0.464 0.34 0.054 3 
0.467 0.093 0.153 3 
0.465 0.103 0.152 3 
0.465 0.272 0.012 3 
0.464 0.057 0.151 3 
0.465 0.109 0.152 3 
0.465 0.044 0.152 3 
0.466 -0.006 0.152 3 
0.466 0.244 0.152 3 
0.467 -0.055 0.152 3 
0.465 0.03 0.063 3 
0.464 0.333 0.062 3 
0.467 -0.066 0.152 3 
0.468 -0.077 0.153 3 
0.47 -0.086 0.153 3 
0.469 -0.097 0.153 3 
0.47 -0.105 0.154 3 
0.471 -0.117 0.154 3 
0.466 -0.025 0.154 3 
0.464 -0.087 0.146 3 
0.464 -0.095 0.146 3 
0.463 -0.152 0.147 3 
0.468 0.347 0.151 3 
0.464 0.175 0.144 3 
0.464 0.172 0.144 3 
0.466 0.134 0.144 3 
0.465 0.122 0.144 3 
0.465 0.114 0.144 3 
0.465 0.103 0.144 3 
0.464 -0.065 0.146 3 
0.463 0.154 0.092 3 
0.466 0.093 0.144 3 
0.466 0.084 0.144 3 
0.464 0.163 0.063 3 
0.466 0.074 0.144 3 
0.464 0.065 0.143 3 
0.465 0.062 0.144 3 
0.464 0.06 0.143 3 
0.464 0.054 0.143 3 
0.472 0.012 0.151 3 
0.464 0.237 0.151 3 
0.466 0.218 0.154 3 
0.467 0.314 0.134 3 
0.465 0.183 0.084 3 
0.464 0.234 0.151 3 
0.465 0.226 0.152 3 
0.468 0.213 0.152 3 
0.468 0.204 0.152 3 
0.464 0.158 0.15 3 
0.464 0.046 0.149 3 
0.465 0.049 0.143 3 
0.481 -0.069 0.154 3 
0.436 -0.151 0.141 3 
0.465 -0.047 0.154 3 
0.465 0.344 0.153 3 
0.469 0.334 0.153 3 
0.468 0.323 0.152 3 
0.468 0.313 0.152 3 
0.464 0.119 0.146 3 
0.464 -0.063 0.146 3 
0.465 -0.039 0.124 3 
0.463 0.054 0.124 3 
0.462 0.043 0.124 3 
0.464 0.033 0.124 3 
0.464 0.022 0.124 3 
0.465 0.003 0.124 3 
0.464 -0.025 0.052 3 
0.465 -0.006 0.124 3 
0.465 -0.02 0.124 3 
0.465 -0.028 0.124 3 
0.464 -0.036 0.124 3 
0.464 0.057 0.124 3 
0.464 -0.046 0.124 3 
0.462 -0.057 0.124 3 
0.466 0.265 0.124 3 
0.466 0.259 0.124 3 
0.465 0.252 0.124 3 
0.464 0.242 0.124 3 
0.465 0.237 0.124 3 
0.464 0.23 0.123 3 
0.464 -0.049 0.114 3 
0.464 0.242 0.126 3 
0.464 -0.044 0.13 3 
0.464 -0.049 0.13 3 
0.465 0.343 0.132 3 
0.469 0.333 0.133 3 
0.468 0.322 0.132 3 
0.465 0.342 0.123 3 
0.464 0.216 0.129 3 
0.464 -0.057 0.127 3 
0.464 -0.122 0.128 3 
0.464 -0.017 0.031 3 
0.464 0.224 0.123 3 
0.464 0.254 0.121 3 
0.465 0.014 0.063 3 
0.464 0.227 0.126 3 
0.464 0.149 0.125 3 
0.464 0.125 0.125 3 
0.465 0.244 0.082 3 
0.465 0.064 0.063 3 
0.464 0.119 0.125 3 
0.464 0.092 0.124 3 
0.468 -0.107 0.123 3 
0.466 0.054 0.122 3 
0.465 0.043 0.122 3 
0.465 0.033 0.122 3 
0.465 0.022 0.122 3 
0.466 0.014 0.122 3 
0.465 -0.06 0.122 3 
0.465 -0.065 0.122 3 
0.468 -0.077 0.123 3 
0.467 -0.085 0.123 3 
0.465 -0.095 0.122 3 
0.466 0.062 0.122 3 
0.466 0.133 0.003 3 
0.467 0.334 0.123 3 
0.467 0.324 0.123 3 
0.467 0.314 0.123 3 
0.467 0.301 0.123 3 
0.467 0.294 0.122 3 
0.467 0.281 0.122 3 
0.465 0.198 0.12 3 
0.479 0.356 0.201 3 
0.466 0.134 0.122 3 
0.465 0.21 0.123 3 
0.462 0.202 0.122 3 
0.464 0.194 0.123 3 
0.465 0.192 0.123 3 
0.466 0.184 0.123 3 
0.465 0.172 0.123 3 
0.464 0.166 0.122 3 
0.465 0.164 0.123 3 
0.464 0.158 0.122 3 
0.465 0.153 0.122 3 
0.464 0.027 0.13 3 
0.464 0.127 0.122 3 
0.464 0.122 0.122 3 
0.465 0.114 0.122 3 
0.464 0.108 0.122 3 
0.464 0.103 0.122 3 
0.465 0.095 0.122 3 
0.465 0.087 0.122 3 
0.464 0.084 0.122 3 
0.466 0.073 0.122 3 
0.467 0.112 0.133 3 
0.464 0.18 0.133 3 
0.465 0.262 0.054 3 
0.464 0.172 0.133 3 
0.465 0.167 0.134 3 
0.464 0.163 0.133 3 
0.466 0.159 0.134 3 
0.467 0.154 0.134 3 
0.467 0.143 0.134 3 
0.466 0.134 0.133 3 
0.467 0.123 0.134 3 
0.465 0.184 0.134 3 
0.465 0.103 0.133 3 
0.463 0.094 0.132 3 
0.465 0.084 0.133 3 
0.466 -0.007 0.084 3 
0.467 0.074 0.133 3 
0.465 0.062 0.133 3 
0.464 0.059 0.132 3 
0.464 0.054 0.132 3 
0.465 0.046 0.133 3 
0.466 0.153 0.055 3 
0.466 -0.148 0.142 3 
0.455 -0.145 0.139 3 
0.468 0.343 0.144 3 
0.468 0.322 0.144 3 
0.468 0.312 0.143 3 
0.469 0.303 0.143 3 
0.469 0.294 0.143 3 
0.469 0.284 0.143 3 
0.467 -0.015 0.082 3 
0.469 0.274 0.142 3 
0.466 0.044 0.133 3 
0.467 0.263 0.142 3 
0.465 0.167 0.139 3 
0.464 0.084 0.138 3 
0.464 -0.006 0.138 3 
0.47 0.349 0.142 3 
0.464 0.164 0.136 3 
0.465 0.208 0.134 3 
0.465 0.202 0.134 3 
0.466 0.193 0.134 3 
0.464 0.132 0.022 3 
0.469 -0.116 0.134 3 
0.468 -0.126 0.134 3 
0.463 -0.13 0.133 3 
0.465 0.224 0.027 3 
0.466 0.303 0.134 3 
0.468 0.292 0.134 3 
0.467 0.313 0.074 3 
0.469 0.284 0.134 3 
0.468 0.273 0.134 3 
0.468 0.264 0.133 3 
0.467 -0.096 0.134 3 
0.467 0.254 0.133 3 
0.466 0.241 0.132 3 
0.466 0.232 0.132 3 
0.467 0.224 0.132 3 
0.464 0.203 0.131 3 
0.464 0.105 0.13 3 
0.464 0.1 0.13 3 
0.464 -0.038 0.087 3 
0.465 0.087 0.13 3 
0.465 -0.012 0.132 3 
0.466 0.033 0.133 3 
0.465 0.022 0.133 3 
0.464 0.017 0.132 3 
0.464 0.014 0.132 3 
0.465 0.009 0.133 3 
0.465 0.003 0.132 3 
0.464 -0.001 0.132 3 
0.464 -0.006 0.132 3 
0.465 0.127 0.041 3 
0.464 -0.141 0.142 3 
0.465 -0.017 0.132 3 
0.466 -0.025 0.133 3 
0.466 0.262 0.113 3 
0.467 -0.036 0.133 3 
0.466 -0.047 0.133 3 
0.468 -0.055 0.133 3 
0.467 -0.066 0.133 3 
0.467 -0.077 0.133 3 
0.467 -0.085 0.133 3 
0.478 0.344 0.193 3 
0.464 0.297 0.105 3 
0.468 -0.086 0.183 3 
0.469 -0.097 0.184 3 
0.464 0.041 0.14 3 
0.473 -0.107 0.186 3 
0.485 -0.2 0.193 3 
0.484 -0.209 0.193 3 
0.472 -0.126 0.174 3 
0.475 0.351 0.193 3 
0.463 -0.105 0.114 3 
0.471 -0.078 0.184 3 
0.478 0.333 0.193 3 
0.463 0.311 0.012 3 
0.468 0.223 0.184 3 
0.464 0.083 0.074 3 
0.467 0.213 0.183 3 
0.464 0.212 0.123 3 
0.471 0.204 0.184 3 
0.465 0.035 0.103 3 
0.468 0.193 0.183 3 
0.468 0.182 0.182 3 
0.468 0.113 0.164 3 
0.467 0.144 0.184 3 
0.47 0.111 0.184 3 
0.47 0.103 0.184 3 
0.471 0.089 0.184 3 
0.469 0.083 0.184 3 
0.465 0.043 0.066 3 
0.468 0.072 0.183 3 
0.468 0.063 0.183 3 
0.471 0.053 0.184 3 
0.471 0.042 0.184 3 
0.47 0.174 0.183 3 
0.471 0.034 0.184 3 
0.471 0.014 0.184 3 
0.468 0.003 0.183 3 
0.465 0.253 0.074 3 
0.464 0.038 0.047 3 
0.469 -0.007 0.183 3 
0.471 -0.034 0.184 3 
0.47 -0.037 0.172 3 
0.47 -0.037 0.184 3 
0.473 -0.045 0.185 3 
0.477 -0.186 0.183 3 
0.474 0.243 0.184 3 
0.472 0.232 0.183 3 
0.465 0.163 0.084 3 
0.473 -0.045 0.179 3 
0.474 -0.059 0.18 3 
0.475 -0.136 0.181 3 
0.477 -0.145 0.182 3 
0.477 -0.157 0.183 3 
0.476 -0.165 0.182 3 
0.478 -0.178 0.183 3 
0.473 0.254 0.184 3 
0.466 0.054 0.074 3 
0.473 -0.193 0.182 3 
0.458 -0.192 0.176 3 
0.468 0.347 0.184 3 
0.466 -0.007 0.063 3 
0.474 0.35 0.186 3 
0.474 0.331 0.185 3 
0.474 0.327 0.184 3 
0.474 0.324 0.184 3 
0.475 0.318 0.184 3 
0.474 -0.107 0.183 3 
0.474 -0.167 0.17 3 
0.47 -0.136 0.143 3 
0.47 0.134 0.182 3 
0.471 0.123 0.182 3 
0.469 -0.105 0.134 3 
0.471 0.023 0.181 3 
0.471 -0.015 0.181 3 
0.475 -0.046 0.183 3 
0.476 -0.057 0.183 3 
0.474 -0.065 0.183 3 
0.467 0.153 0.184 3 
0.476 -0.11 0.184 3 
0.476 -0.116 0.184 3 
0.474 -0.124 0.183 3 
0.475 -0.127 0.184 3 
0.474 -0.13 0.184 3 
0.469 -0.199 0.183 3 
0.459 -0.195 0.179 3 
0.475 0.355 0.19 3 
0.473 0.27 0.184 3 
0.474 0.261 0.184 3 
0.47 0.283 0.172 3 
0.469 0.162 0.188 3 
0.468 0.153 0.187 3 
0.465 0.081 0.122 3 
0.464 0.284 0.093 3 
0.47 0.142 0.188 3 
0.47 0.134 0.188 3 
0.464 0.057 0.111 3 
0.471 0.123 0.188 3 
0.468 0.074 0.186 3 
0.471 0.112 0.188 3 
0.469 0.174 0.188 3 
0.472 0.103 0.188 3 
0.472 0.092 0.188 3 
0.47 0.083 0.187 3 
0.47 0.064 0.187 3 
0.469 0.053 0.186 3 
0.472 0.042 0.187 3 
0.473 0.034 0.188 3 
0.475 0.026 0.189 3 
0.475 0.023 0.189 3 
0.464 0.147 0.122 3 
0.475 0.269 0.194 3 
0.482 0.352 0.202 3 
0.482 0.341 0.201 3 
0.48 0.317 0.198 3 
0.479 0.312 0.198 3 
0.477 0.3 0.196 3 
0.475 0.292 0.195 3 
0.464 0.091 0.084 3 
0.474 0.288 0.194 3 
0.474 0.284 0.194 3 
0.473 0.274 0.193 3 
0.462 0.184 0.054 3 
0.476 0.263 0.194 3 
0.474 0.252 0.193 3 
0.473 0.242 0.192 3 
0.473 0.233 0.192 3 
0.471 0.222 0.191 3 
0.467 -0.036 0.144 3 
0.471 0.213 0.19 3 
0.47 0.204 0.19 3 
0.47 0.192 0.189 3 
0.469 0.182 0.189 3 
0.479 -0.176 0.193 3 
0.479 -0.126 0.191 3 
0.465 -0.036 0.154 3 
0.48 -0.135 0.192 3 
0.463 0.033 0.154 3 
0.463 0.091 0.103 3 
0.482 -0.145 0.193 3 
0.483 -0.157 0.194 3 
0.471 0.338 0.184 3 
0.485 -0.161 0.195 3 
0.482 -0.166 0.193 3 
0.478 -0.117 0.191 3 
0.48 -0.185 0.193 3 
0.481 -0.198 0.194 3 
0.473 -0.199 0.191 3 
0.464 0.21 0.131 3 
0.478 0.315 0.194 3 
0.478 0.311 0.194 3 
0.476 0.303 0.193 3 
0.465 0.234 0.124 3 
0.473 0.264 0.19 3 
0.467 0.158 0.184 3 
0.474 -0.062 0.188 3 
0.474 0.015 0.188 3 
0.473 0.012 0.188 3 
0.47 0.003 0.186 3 
0.471 -0.007 0.187 3 
0.473 -0.015 0.188 3 
0.474 -0.026 0.188 3 
0.474 -0.037 0.188 3 
0.475 -0.043 0.189 3 
0.476 -0.046 0.189 3 
0.476 -0.057 0.189 3 
0.474 0.31 0.184 3 
0.475 -0.065 0.189 3 
0.474 -0.068 0.188 3 
0.48 0.332 0.196 3 
0.469 0.214 0.172 3 
0.473 -0.076 0.188 3 
0.465 0.134 0.163 3 
0.472 -0.087 0.188 3 
0.473 -0.095 0.188 3 
0.476 -0.105 0.19 3 
0.467 0.192 0.163 3 
0.467 -0.047 0.163 3 
0.468 -0.055 0.163 3 
0.47 -0.067 0.164 3 
0.462 -0.18 0.164 3 
0.468 0.243 0.164 3 
0.464 -0.038 0.157 3 
0.468 0.234 0.164 3 
0.468 0.222 0.164 3 
0.467 0.213 0.163 3 
0.468 0.204 0.163 3 
0.467 -0.036 0.163 3 
0.466 0.183 0.162 3 
0.467 -0.115 0.123 3 
0.468 0.172 0.163 3 
0.464 0.142 0.16 3 
0.465 0.311 0.062 3 
0.472 0.083 0.162 3 
0.473 -0.076 0.163 3 
0.471 -0.086 0.162 3 
0.472 -0.095 0.163 3 
0.47 0.069 0.164 3 
0.469 0.342 0.171 3 
0.467 0.157 0.164 3 
0.468 -0.036 0.104 3 
0.465 0.282 0.082 3 
0.466 0.154 0.164 3 
0.464 -0.06 0.143 3 
0.465 0.142 0.163 3 
0.466 0.123 0.163 3 
0.467 0.104 0.164 3 
0.469 0.094 0.164 3 
0.465 0.111 0.041 3 
0.469 0.063 0.164 3 
0.465 0.222 0.124 3 
0.467 0.044 0.163 3 
0.468 0.033 0.164 3 
0.467 0.022 0.163 3 
0.467 0.014 0.163 3 
0.467 0.003 0.163 3 
0.468 -0.006 0.164 3 
0.467 -0.015 0.163 3 
0.467 -0.025 0.163 3 
0.465 0.264 0.093 3 
0.464 0.13 0.157 3 
0.464 -0.033 0.156 3 
0.461 -0.174 0.158 3 
0.443 -0.166 0.152 3 
0.469 0.334 0.144 3 
0.469 0.349 0.163 3 
0.47 0.343 0.163 3 
0.471 0.333 0.163 3 
0.464 0.334 0.12 3 
0.464 0.114 0.154 3 
0.464 0.153 0.158 3 
0.465 0.1 0.065 3 
0.465 0.068 0.154 3 
0.465 0.057 0.154 3 
0.464 0.059 0.073 3 
0.465 0.049 0.154 3 
0.463 0.043 0.154 3 
0.465 0.027 0.154 3 
0.464 0.022 0.154 3 
0.465 0.017 0.154 3 
0.464 0.009 0.154 3 
0.469 0.318 0.164 3 
0.474 -0.107 0.163 3 
0.473 -0.115 0.163 3 
0.472 -0.126 0.163 3 
0.473 -0.135 0.163 3 
0.473 -0.146 0.164 3 
0.471 -0.156 0.163 3 
0.471 -0.168 0.164 3 
0.466 -0.179 0.162 3 
0.465 0.119 0.122 3 
0.475 0.345 0.167 3 
0.469 0.349 0.172 3 
0.469 0.314 0.164 3 
0.468 0.303 0.163 3 
0.469 0.294 0.163 3 
0.465 0.262 0.06 3 
0.468 0.281 0.163 3 
0.47 0.273 0.163 3 
0.47 0.263 0.163 3 
0.468 0.274 0.154 3 
0.468 0.252 0.162 3 
0.47 0.053 0.173 3 
0.467 0.152 0.173 3 
0.467 0.143 0.172 3 
0.469 0.133 0.173 3 
0.468 0.124 0.173 3 
0.467 -0.101 0.144 3 
0.468 0.113 0.172 3 
0.469 0.102 0.173 3 
0.465 0.144 0.122 3 
0.471 0.094 0.173 3 
0.472 0.084 0.174 3 
0.468 0.164 0.174 3 
0.466 0.224 0.049 3 
0.468 0.022 0.172 3 
0.468 -0.006 0.172 3 
0.47 -0.015 0.173 3 
0.467 -0.025 0.171 3 
0.461 0.104 0.012 3 
0.471 -0.045 0.173 3 
0.47 -0.056 0.172 3 
0.467 0.003 0.103 3 
0.472 -0.067 0.173 3 
0.467 0.006 0.174 3 
0.464 0.291 0.093 3 
0.475 0.308 0.184 3 
0.474 0.303 0.183 3 
0.472 0.292 0.182 3 
0.473 0.283 0.182 3 
0.467 0.071 0.174 3 
0.467 0.063 0.174 3 
0.467 0.039 0.174 3 
0.467 0.033 0.174 3 
0.469 0.052 0.164 3 
0.465 0.102 0.041 3 
0.467 0.003 0.174 3 
0.478 -0.196 0.181 3 
0.465 0.014 0.141 3 
0.475 0.347 0.183 3 
0.475 0.342 0.183 3 
0.468 0.202 0.174 3 
0.468 0.193 0.174 3 
0.464 0.274 0.032 3 
0.468 0.181 0.174 3 
0.47 0.171 0.174 3 
0.471 0.33 0.174 3 
0.464 -0.033 0.13 3 
0.477 0.085 0.173 3 
0.473 -0.135 0.172 3 
0.474 -0.147 0.173 3 
0.475 -0.15 0.173 3 
0.474 -0.155 0.173 3 
0.476 -0.168 0.174 3 
0.476 -0.177 0.174 3 
0.475 -0.185 0.174 3 
0.459 -0.192 0.168 3 
0.47 0.224 0.173 3 
0.469 0.321 0.173 3 
0.468 0.31 0.173 3 
0.471 0.303 0.173 3 
0.47 0.293 0.172 3 
0.475 -0.107 0.169 3 
0.475 -0.141 0.17 3 
0.463 0.271 0.11 3 
0.474 -0.175 0.17 3 
0.464 0.014 0.143 3 
0.465 -0.193 0.173 3 
0.462 0.213 0.014 3 
0.472 -0.075 0.173 3 
0.472 -0.087 0.174 3 
0.472 -0.095 0.174 3 
0.473 -0.106 0.174 3 
0.473 -0.115 0.174 3 
0.473 -0.135 0.175 3 
0.474 -0.176 0.176 3 
0.464 0.241 0.09 3 
0.465 0.132 0.009 3 
0.464 0.001 0.154 3 
0.459 -0.195 0.171 3 
0.467 -0.036 0.093 3 
0.469 0.266 0.174 3 
0.469 0.263 0.174 3 
0.462 0.072 0.004 3 
0.47 0.251 0.174 3 
0.471 0.243 0.174 3 
0.471 0.234 0.174 3 
0.464 -0.054 0.087 3 
0.464 0.014 0.05 3 
0.466 0.014 0.052 3 
0.467 -0.007 0.052 3 
0.466 -0.015 0.052 3 
0.466 -0.036 0.052 3 
0.466 -0.047 0.052 3 
0.464 -0.049 0.052 3 
0.464 0.306 0.048 3 
0.465 0.238 0.049 3 
0.465 0.192 0.049 3 
0.465 0.113 0.049 3 
0.465 0.024 0.052 3 
0.467 -0.025 0.05 3 
0.464 -0.044 0.05 3 
0.465 0.212 0.046 3 
0.465 0.195 0.046 3 
0.464 0.132 0.047 3 
0.464 0.124 0.047 3 
0.487 0.078 0.046 3 
0.464 -0.004 0.047 3 
0.461 0.336 0.042 3 
0.463 0.332 0.042 3 
0.465 0.097 0.052 3 
0.464 0.163 0.052 3 
0.465 0.161 0.052 3 
0.465 0.152 0.052 3 
0.463 0.148 0.052 3 
0.464 0.143 0.052 3 
0.465 0.135 0.052 3 
0.465 0.133 0.052 3 
0.466 0.122 0.052 3 
0.464 0.113 0.052 3 
0.464 0.102 0.052 3 
0.465 0.331 0.042 3 
0.465 0.094 0.052 3 
0.464 0.086 0.052 3 
0.462 0.082 0.052 3 
0.466 0.073 0.052 3 
0.463 0.069 0.052 3 
0.465 0.056 0.052 3 
0.465 0.054 0.052 3 
0.465 0.043 0.052 3 
0.466 0.032 0.052 3 
0.465 0.094 0.044 3 
0.463 0.173 0.044 3 
0.464 0.163 0.044 3 
0.465 0.161 0.044 3 
0.467 0.153 0.044 3 
0.464 0.143 0.044 3 
0.465 0.141 0.044 3 
0.464 0.132 0.044 3 
0.464 0.124 0.044 3 
0.464 0.113 0.044 3 
0.464 0.102 0.044 3 
0.465 0.177 0.044 3 
0.464 0.091 0.044 3 
0.463 0.083 0.044 3 
0.462 0.074 0.044 3 
0.464 0.064 0.044 3 
0.465 0.051 0.044 3 
0.465 0.032 0.044 3 
0.465 0.024 0.044 3 
0.465 0.014 0.044 3 
0.464 0.003 0.044 3 
0.465 0 0.044 3 
0.464 0.217 0.021 3 
0.466 0.322 0.042 3 
0.465 0.327 0.034 3 
0.466 0.312 0.043 3 
0.464 0.3 0.043 3 
0.464 0.293 0.043 3 
0.465 0.284 0.043 3 
0.464 0.28 0.043 3 
0.463 0.27 0.043 3 
0.465 0.265 0.043 3 
0.463 0.261 0.043 3 
0.463 0.173 0.052 3 
0.462 0.251 0.043 3 
0.463 0.243 0.043 3 
0.463 0.234 0.043 3 
0.465 0.224 0.043 3 
0.464 0.211 0.043 3 
0.464 0.202 0.043 3 
0.465 0.2 0.043 3 
0.466 0.192 0.043 3 
0.464 0.182 0.044 3 
0.464 0.094 0.063 3 
0.462 0.193 0.063 3 
0.464 0.182 0.063 3 
0.464 0.174 0.063 3 
0.464 0.154 0.063 3 
0.464 0.143 0.063 3 
0.465 0.133 0.063 3 
0.463 0.126 0.063 3 
0.464 0.124 0.063 3 
0.463 0.113 0.063 3 
0.464 0.102 0.063 3 
0.464 0.202 0.063 3 
0.466 0.089 0.063 3 
0.467 0.084 0.063 3 
0.467 0.073 0.063 3 
0.464 0.062 0.063 3 
0.465 0.054 0.063 3 
0.464 0.043 0.063 3 
0.464 0.032 0.063 3 
0.465 0.024 0.063 3 
0.464 0.022 0.063 3 
0.466 0.003 0.063 3 
0.464 0.303 0.062 3 
0.464 0.306 0.068 3 
0.464 0.294 0.068 3 
0.464 0.194 0.068 3 
0.465 0.114 0.068 3 
0.465 0.089 0.068 3 
0.464 -0.028 0.068 3 
0.466 0.332 0.062 3 
0.467 0.323 0.063 3 
0.464 0.054 0.044 3 
0.464 0.313 0.062 3 
0.464 -0.014 0.063 3 
0.464 0.294 0.062 3 
0.464 0.284 0.063 3 
0.465 0.224 0.024 3 
0.464 0.274 0.063 3 
0.464 0.262 0.063 3 
0.464 0.252 0.063 3 
0.463 0.243 0.063 3 
0.462 0.233 0.063 3 
0.461 0.223 0.063 3 
0.463 0.243 0.054 3 
0.465 0.311 0.054 3 
0.465 0.304 0.054 3 
0.464 0.297 0.054 3 
0.463 0.293 0.054 3 
0.464 0.283 0.054 3 
0.465 0.278 0.054 3 
0.465 0.272 0.054 3 
0.464 0.255 0.054 3 
0.465 0.253 0.054 3 
0.464 0.249 0.054 3 
0.467 0.319 0.054 3 
0.463 0.234 0.054 3 
0.464 0.223 0.054 3 
0.464 0.214 0.054 3 
0.464 0.202 0.054 3 
0.463 0.193 0.054 3 
0.465 0.161 0.055 3 
0.464 0.011 0.055 3 
0.465 0.287 0.051 3 
0.465 0.229 0.052 3 
0.465 0.269 0.06 3 
0.464 -0.017 0.063 3 
0.465 -0.023 0.063 3 
0.465 -0.025 0.063 3 
0.465 -0.036 0.063 3 
0.464 -0.046 0.063 3 
0.461 -0.056 0.063 3 
0.466 0.339 0.06 3 
0.465 0.304 0.06 3 
0.46 0.063 0.013 3 
0.465 0.278 0.06 3 
0.465 -0.007 0.044 3 
0.465 0.253 0.06 3 
0.465 0.003 0.052 3 
0.465 0.183 0.06 3 
0.465 0.105 0.06 3 
0.465 0.1 0.06 3 
0.465 -0.047 0.06 3 
0.464 0.078 0.057 3 
0.466 0.339 0.054 3 
0.467 0.333 0.054 3 
0.464 0.04 0.023 3 
0.463 0.154 0.022 3 
0.465 0.144 0.022 3 
0.464 0.141 0.022 3 
0.463 0.112 0.023 3 
0.462 0.104 0.023 3 
0.461 0.093 0.023 3 
0.462 0.082 0.023 3 
0.463 0.072 0.023 3 
0.464 0.064 0.023 3 
0.464 0.054 0.023 3 
0.463 0.162 0.022 3 
0.463 0.032 0.023 3 
0.464 0.024 0.023 3 
0.465 0.016 0.023 3 
0.466 0.003 0.023 3 
0.467 -0.007 0.023 3 
0.465 -0.015 0.023 3 
0.464 -0.023 0.023 3 
0.463 -0.025 0.023 3 
0.455 -0.035 0.024 3 
0.465 0.272 0.018 3 
0.464 0.191 0.024 3 
0.464 0.271 0.023 3 
0.464 0.262 0.024 3 
0.465 0.253 0.024 3 
0.464 0.25 0.024 3 
0.465 0.244 0.024 3 
0.464 0.238 0.024 3 
0.465 0.232 0.024 3 
0.464 0.229 0.024 3 
0.467 0.213 0.024 3 
0.466 0.204 0.024 3 
0.465 0.127 0.02 3 
0.465 0.073 0.025 3 
0.465 0.064 0.025 3 
0.465 0.338 0.019 3 
0.464 0.323 0.02 3 
0.464 0.312 0.02 3 
0.464 0.203 0.022 3 
0.465 0.192 0.022 3 
0.463 0.182 0.022 3 
0.462 0.173 0.022 3 
0.462 0.093 0.012 3 
0.462 0.173 0.014 3 
0.462 0.162 0.014 3 
0.463 0.154 0.014 3 
0.462 0.142 0.014 3 
0.462 0.134 0.014 3 
0.464 0.121 0.014 3 
0.464 0.293 0.009 3 
0.464 0.247 0.01 3 
0.462 0.112 0.012 3 
0.463 0.182 0.014 3 
0.461 0.082 0.013 3 
0.461 0.074 0.013 3 
0.463 0.053 0.012 3 
0.463 0.043 0.012 3 
0.465 0.192 0.008 3 
0.465 0.183 0.008 3 
0.465 0.043 0.007 3 
0.464 0.064 0.004 3 
0.463 0.051 0.004 3 
0.465 0.043 0.004 3 
0.463 0.302 0.012 3 
0.465 0.03 0.02 3 
0.464 -0.009 0.02 3 
0.452 -0.032 0.022 3 
0.464 0.333 0.014 3 
0.465 0.331 0.014 3 
0.465 0.323 0.014 3 
0.464 0.319 0.014 3 
0.463 0.301 0.015 3 
0.467 0.293 0.014 3 
0.467 0.283 0.014 3 
0.466 0.282 0.023 3 
0.464 0.268 0.012 3 
0.464 0.262 0.012 3 
0.465 0.26 0.012 3 
0.465 0.254 0.012 3 
0.463 0.24 0.013 3 
0.463 0.234 0.013 3 
0.461 0.224 0.013 3 
0.462 0.204 0.014 3 
0.463 0.193 0.014 3 
0.465 0.244 0.032 3 
0.465 0.311 0.034 3 
0.464 0.302 0.034 3 
0.465 0.3 0.034 3 
0.465 0.294 0.034 3 
0.465 0.284 0.034 3 
0.464 0.223 0.035 3 
0.464 0.323 0.031 3 
0.466 0.273 0.032 3 
0.466 0.263 0.032 3 
0.466 0.254 0.032 3 
0.464 0.313 0.034 3 
0.464 0.024 0.034 3 
0.464 0.241 0.032 3 
0.463 0.231 0.032 3 
0.465 0.062 0.001 3 
0.464 0.223 0.032 3 
0.464 0.214 0.032 3 
0.465 0.212 0.032 3 
0.465 0.203 0.032 3 
0.465 0.192 0.033 3 
0.464 0.188 0.033 3 
0.463 0.014 0.042 3 
0.467 -0.015 0.044 3 
0.465 -0.025 0.044 3 
0.465 -0.036 0.044 3 
0.464 -0.041 0.044 3 
0.464 -0.049 0.044 3 
0.465 0.226 0.041 3 
0.464 0.194 0.041 3 
0.465 0.124 0.041 3 
0.465 0.083 0.041 3 
0.465 0.059 0.042 3 
0.462 0.173 0.033 3 
0.463 -0.007 0.042 3 
0.465 0.212 0.038 3 
0.464 0.146 0.038 3 
0.464 0.027 0.039 3 
0.464 0.024 0.039 3 
0.464 -0.015 0.039 3 
0.462 0.338 0.034 3 
0.462 0.334 0.034 3 
0.465 0.324 0.034 3 
0.465 0 0.031 3 
0.462 -0.007 0.034 3 
0.466 -0.025 0.034 3 
0.466 -0.036 0.034 3 
0.463 0.261 0.029 3 
0.464 0.253 0.029 3 
0.464 0.13 0.03 3 
0.464 0.121 0.03 3 
0.464 0.099 0.031 3 
0.463 0.091 0.031 3 
0.464 0.043 0.031 3 
0.463 0 0.034 3 
0.465 -0.007 0.031 3 
0.464 -0.025 0.031 3 
0.464 -0.036 0.031 3 
0.463 0.332 0.022 3 
0.466 0.332 0.022 3 
0.465 0.324 0.022 3 
0.466 0.314 0.023 3 
0.466 0.304 0.023 3 
0.468 0.293 0.023 3 
0.464 0.078 0.033 3 
0.461 0.164 0.033 3 
0.462 0.153 0.033 3 
0.464 0.143 0.033 3 
0.465 0.141 0.033 3 
0.466 0.133 0.033 3 
0.465 0.122 0.033 3 
0.466 0.114 0.033 3 
0.465 0.102 0.033 3 
0.465 0.094 0.033 3 
0.465 0.083 0.033 3 
0.464 0.16 0.071 3 
0.464 0.072 0.034 3 
0.464 0.054 0.034 3 
0.465 0.051 0.034 3 
0.466 0.043 0.033 3 
0.465 0.032 0.034 3 
0.464 0.027 0.034 3 
0.465 0.016 0.034 3 
0.465 0.014 0.034 3 
0.464 0.006 0.034 3 
0.467 -0.025 0.103 3 
0.463 0.062 0.103 3 
0.463 0.339 0.022 3 
0.463 0.054 0.103 3 
0.462 0.043 0.103 3 
0.464 0.032 0.103 3 
0.465 0.03 0.103 3 
0.466 0.014 0.103 3 
0.466 -0.006 0.103 3 
0.466 -0.015 0.103 3 
0.464 0.046 0.052 3 
0.464 0.073 0.103 3 
0.467 -0.047 0.103 3 
0.467 -0.055 0.103 3 
0.468 -0.066 0.104 3 
0.465 -0.076 0.103 3 
0.464 -0.084 0.103 3 
0.464 -0.087 0.103 3 
0.464 -0.097 0.103 3 
0.464 0.34 0.103 3 
0.465 0.338 0.103 3 
0.464 0.333 0.103 3 
0.465 0.152 0.103 3 
0.463 -0.086 0.106 3 
0.466 0.24 0.104 3 
0.467 0.231 0.104 3 
0.467 0.222 0.104 3 
0.466 0.213 0.104 3 
0.465 0.203 0.104 3 
0.465 0.192 0.104 3 
0.466 0.184 0.104 3 
0.465 0.172 0.104 3 
0.466 0.164 0.104 3 
0.467 0.333 0.103 3 
0.464 0.149 0.103 3 
0.465 0.144 0.103 3 
0.465 0.133 0.103 3 
0.464 0.122 0.103 3 
0.465 0.119 0.103 3 
0.465 0.114 0.103 3 
0.465 0.043 0.044 3 
0.466 0.103 0.103 3 
0.461 0.083 0.103 3 
0.465 0.282 0.094 3 
0.465 0.073 0.095 3 
0.477 -0.035 0.097 3 
0.463 0.339 0.094 3 
0.465 0.334 0.094 3 
0.468 0.324 0.094 3 
0.468 0.314 0.094 3 
0.465 0.301 0.094 3 
0.464 0.297 0.094 3 
0.464 0.214 0.09 3 
0.465 0.288 0.094 3 
0.463 0.296 0.096 3 
0.465 0.043 0.023 3 
0.465 0.273 0.093 3 
0.467 0.253 0.093 3 
0.467 0.043 0.06 3 
0.467 0.243 0.093 3 
0.466 0.233 0.093 3 
0.465 0.224 0.093 3 
0.465 0.212 0.093 3 
0.465 0.203 0.093 3 
0.465 0.192 0.093 3 
0.464 0.135 0.1 3 
0.467 0.323 0.103 3 
0.467 0.313 0.103 3 
0.465 0.301 0.102 3 
0.465 0.292 0.102 3 
0.464 0.288 0.102 3 
0.465 0.282 0.102 3 
0.465 0.273 0.102 3 
0.466 0.261 0.102 3 
0.464 0.18 0.101 3 
0.463 0.157 0.1 3 
0.463 0.258 0.071 3 
0.464 0.133 0.1 3 
0.461 0.024 0.1 3 
0.464 -0.036 0.1 3 
0.464 0.203 0.098 3 
0.464 0.194 0.098 3 
0.464 0.171 0.098 3 
0.464 0.111 0.098 3 
0.464 0.1 0.098 3 
0.465 0.062 0.098 3 
0.465 0.041 0.114 3 
0.465 0.084 0.114 3 
0.463 0.081 0.114 3 
0.464 0.073 0.114 3 
0.466 0.062 0.114 3 
0.464 0.241 0.082 3 
0.445 0.056 0.11 3 
0.466 0.054 0.114 3 
0.464 0.046 0.114 3 
0.464 0.043 0.114 3 
0.464 0.211 0.022 3 
0.464 0.086 0.114 3 
0.464 0.033 0.114 3 
0.466 0.246 0.104 3 
0.465 0.03 0.114 3 
0.467 0.022 0.114 3 
0.466 0.014 0.114 3 
0.467 0.003 0.114 3 
0.464 0.054 0.058 3 
0.464 0.265 0.054 3 
0.466 -0.006 0.114 3 
0.467 -0.015 0.114 3 
0.464 0.149 0.114 3 
0.464 -0.009 0.119 3 
0.465 -0.015 0.034 3 
0.463 0.182 0.082 3 
0.463 -0.108 0.117 3 
0.464 0.341 0.117 3 
0.464 0.269 0.116 3 
0.465 0.164 0.114 3 
0.464 0.155 0.114 3 
0.466 0.153 0.114 3 
0.466 0.204 0.112 3 
0.468 -0.025 0.114 3 
0.465 0.144 0.114 3 
0.464 0.141 0.114 3 
0.465 0.133 0.114 3 
0.464 0.127 0.114 3 
0.464 0.124 0.114 3 
0.465 0.122 0.114 3 
0.466 0.114 0.114 3 
0.467 0.104 0.114 3 
0.466 0.092 0.114 3 
0.464 -0.1 0.111 3 
0.466 0.291 0.037 3 
0.464 0.248 0.113 3 
0.465 0.243 0.113 3 
0.464 0.07 0.06 3 
0.465 0.234 0.113 3 
0.468 0.224 0.113 3 
0.467 0.193 0.112 3 
0.466 0.181 0.112 3 
0.465 0.172 0.112 3 
0.464 -0.006 0.111 3 
0.465 0.252 0.113 3 
0.465 0.342 0.112 3 
0.463 0.277 0.11 3 
0.464 0.263 0.11 3 
0.464 -0.084 0.109 3 
0.464 0.197 0.106 3 
0.464 0.183 0.106 3 
0.464 0.174 0.106 3 
0.464 0.024 0.105 3 
0.464 0.014 0.105 3 
0.464 0.337 0.114 3 
0.466 -0.036 0.114 3 
0.464 -0.044 0.114 3 
0.465 -0.047 0.114 3 
0.464 -0.057 0.114 3 
0.466 -0.06 0.114 3 
0.466 -0.066 0.114 3 
0.466 -0.076 0.114 3 
0.465 -0.087 0.114 3 
0.465 -0.095 0.114 3 
0.465 -0.109 0.114 3 
0.463 0.185 0.092 3 
0.464 0.334 0.114 3 
0.466 0.333 0.114 3 
0.466 0.322 0.114 3 
0.466 0.312 0.114 3 
0.466 0.303 0.114 3 
0.466 0.293 0.114 3 
0.464 0.032 0.012 3 
0.466 0.283 0.113 3 
0.466 0.271 0.113 3 
0.464 0.333 0.074 3 
0.464 0.059 0.081 3 
0.464 -0.054 0.082 3 
0.464 0.214 0.063 3 
0.464 0.34 0.08 3 
0.464 0.333 0.08 3 
0.465 0.232 0.079 3 
0.464 -0.038 0.079 3 
0.465 0.136 0.063 3 
0.464 0.051 0.076 3 
0.463 0.339 0.074 3 
0.465 0.092 0.082 3 
0.466 0.332 0.074 3 
0.467 0.323 0.074 3 
0.466 0.302 0.074 3 
0.466 0.292 0.074 3 
0.466 0.283 0.074 3 
0.465 0.273 0.074 3 
0.466 0.263 0.074 3 
0.463 0.246 0.074 3 
0.463 0.243 0.074 3 
0.462 0.233 0.073 3 
0.465 0.301 0.082 3 
0.466 -0.036 0.084 3 
0.466 -0.047 0.084 3 
0.465 -0.055 0.084 3 
0.464 -0.057 0.084 3 
0.46 -0.067 0.084 3 
0.463 -0.076 0.084 3 
0.465 0.341 0.083 3 
0.465 0.334 0.083 3 
0.468 0.324 0.083 3 
0.468 0.314 0.083 3 
0.462 0.224 0.073 3 
0.465 0.291 0.082 3 
0.466 0.274 0.082 3 
0.465 0.263 0.082 3 
0.464 0.259 0.082 3 
0.465 0.253 0.082 3 
0.464 0.25 0.082 3 
0.466 0.21 0.082 3 
0.466 0.204 0.082 3 
0.465 0.108 0.082 3 
0.467 -0.015 0.074 3 
0.466 0.062 0.074 3 
0.464 0.048 0.073 3 
0.464 0.043 0.073 3 
0.464 0.032 0.074 3 
0.465 0.027 0.074 3 
0.466 0.022 0.074 3 
0.466 0.014 0.074 3 
0.464 0.04 0.004 3 
0.466 0.003 0.074 3 
0.466 -0.007 0.074 3 
0.465 0.073 0.074 3 
0.466 -0.025 0.074 3 
0.464 -0.036 0.074 3 
0.465 -0.039 0.074 3 
0.463 -0.049 0.074 3 
0.461 -0.056 0.074 3 
0.463 0.024 0.071 3 
0.464 0.297 0.071 3 
0.464 0.275 0.071 3 
0.464 0.272 0.071 3 
0.464 0.2 0.071 3 
0.464 0.146 0.073 3 
0.463 0.213 0.073 3 
0.465 0.209 0.074 3 
0.465 0.203 0.074 3 
0.466 0.192 0.074 3 
0.465 0.183 0.074 3 
0.464 0.18 0.074 3 
0.464 0.171 0.074 3 
0.465 0.169 0.074 3 
0.466 0.164 0.074 3 
0.465 0.152 0.074 3 
0.466 -0.033 0.084 3 
0.464 0.143 0.073 3 
0.465 0.141 0.074 3 
0.465 0.133 0.074 3 
0.465 0.122 0.074 3 
0.464 0.116 0.073 3 
0.464 0.113 0.073 3 
0.464 0.102 0.073 3 
0.464 0.094 0.073 3 
0.465 0.078 0.074 3 
0.466 -0.007 0.092 3 
0.464 0.054 0.092 3 
0.465 0.083 0.049 3 
0.465 0.051 0.092 3 
0.464 0.043 0.092 3 
0.465 0.014 0.023 3 
0.466 0.038 0.092 3 
0.465 0.032 0.092 3 
0.466 0.022 0.092 3 
0.466 0.014 0.092 3 
0.466 0.003 0.092 3 
0.464 0.062 0.092 3 
0.467 -0.015 0.093 3 
0.469 -0.025 0.093 3 
0.468 -0.047 0.093 3 
0.466 -0.055 0.093 3 
0.464 -0.062 0.092 3 
0.466 -0.066 0.093 3 
0.466 -0.076 0.093 3 
0.464 -0.081 0.092 3 
0.462 0.249 0.09 3 
0.464 0.226 0.09 3 
0.465 0.122 0.092 3 
0.464 0.183 0.093 3 
0.465 0.175 0.093 3 
0.463 0.171 0.092 3 
0.464 0.064 0.052 3 
0.464 0.163 0.092 3 
0.465 0.144 0.092 3 
0.463 0.064 0.034 3 
0.465 0.133 0.092 3 
0.464 0.127 0.092 3 
0.464 0.124 0.092 3 
0.464 0.223 0.09 3 
0.464 0.113 0.092 3 
0.464 0.102 0.092 3 
0.465 0.097 0.092 3 
0.464 0.092 0.092 3 
0.465 0.089 0.092 3 
0.464 0.113 0.028 3 
0.464 0.083 0.092 3 
0.464 0.073 0.092 3 
0.465 0.068 0.092 3 
0.464 0.07 0.084 3 
0.462 0.121 0.084 3 
0.465 0.119 0.084 3 
0.464 0.113 0.084 3 
0.465 0.095 0.084 3 
0.465 0.135 0.009 3 
0.464 0.083 0.084 3 
0.465 0.076 0.084 3 
0.462 0.338 0.014 3 
0.465 0.073 0.084 3 
0.465 -0.047 0.074 3 
0.465 0.127 0.084 3 
0.465 0.062 0.084 3 
0.466 0.054 0.084 3 
0.466 0.043 0.084 3 
0.467 0.033 0.084 3 
0.467 0.022 0.084 3 
0.466 0.014 0.084 3 
0.464 0.006 0.084 3 
0.464 0.003 0.084 3 
0.465 0 0.084 3 
0.465 0.186 0.084 3 
0.465 0.152 0.09 3 
0.465 0.062 0.09 3 
0.463 0.123 0.023 3 
0.464 0.333 0.088 3 
0.464 0.138 0.087 3 
0.464 -0.065 0.087 3 
0.464 0.263 0.085 3 
0.463 0.225 0.084 3 
0.462 0.221 0.084 3 
0.462 0.213 0.084 3 
0.464 0.141 0.119 3 
0.465 0.172 0.084 3 
0.463 0.168 0.084 3 
0.464 0.333 0.051 3 
0.464 0.16 0.084 3 
0.465 0.152 0.084 3 
0.464 0.149 0.084 3 
0.465 0.144 0.084 3 
0.464 0.141 0.084 3 
0.464 0.132 0.084 3 
