# .PCD v0.7 - Point Cloud Data file
FIELDS x y z intensity
SIZE 4 4 4 4
TYPE F F F F
COUNT 1 1 1 1
WIDTH 2327
HEIGHT 1
VIEWPOINT 0 0 0 1 0 0 0
POINTS 2327
DATA ascii
0.298 -0.005 0.021 0 
0.299 0.001 0.02 0 
0.299 -0.015 0.02 0 
0.373 -0.237 -0.025 1 
0.364 -0.136 -0.018 1 
0.362 -0.125 -0.017 1 
0.363 -0.108 -0.017 1 
0.363 -0.085 -0.016 1 
0.362 -0.055 -0.015 1 
0.362 -0.045 -0.015 1 
0.363 -0.031 -0.016 1 
0.313 -0.018 0.002 1 
0.361 0.014 -0.015 1 
0.36 0.023 -0.015 1 
0.36 0.033 -0.015 1 
0.36 0.044 -0.015 1 
0.361 0.063 -0.016 1 
0.361 0.094 -0.016 1 
0.354 0.114 -0.014 1 
0.353 0.124 -0.014 1 
0.353 0.131 -0.014 1 
0.354 0.134 -0.015 1 
0.35 0.163 -0.015 1 
0.349 0.172 -0.015 1 
0.375 -0.242 -0.024 1 
0.38 -0.228 -0.025 1 
0.371 -0.175 -0.02 1 
0.372 -0.145 -0.019 1 
0.371 -0.125 -0.018 1 
0.369 -0.116 -0.017 1 
0.372 -0.106 -0.018 1 
0.362 0.104 -0.015 1 
0.36 0.108 -0.015 1 
0.36 0.123 -0.015 1 
0.357 0.129 -0.014 1 
0.361 0.154 -0.016 1 
0.353 0.214 -0.017 1 
0.354 0.217 -0.018 1 
0.384 -0.255 -0.026 1 
0.384 -0.249 -0.025 1 
0.385 -0.23 -0.025 1 
0.383 -0.226 -0.024 1 
0.374 -0.195 -0.02 1 
0.374 -0.193 -0.019 1 
0.374 -0.138 -0.018 1 
0.372 -0.096 -0.016 1 
0.373 -0.085 -0.016 1 
0.374 -0.082 -0.016 1 
0.371 -0.056 -0.015 1 
0.374 -0.046 -0.016 1 
0.374 -0.044 -0.016 1 
0.374 0.009 -0.016 1 
0.374 0.024 -0.016 1 
0.373 0.054 -0.016 1 
0.373 0.064 -0.016 1 
0.37 0.083 -0.016 1 
0.364 0.112 -0.014 1 
0.364 0.133 -0.015 1 
0.364 0.135 -0.015 1 
0.362 0.184 -0.016 1 
0.361 0.194 -0.017 1 
0.361 0.202 -0.017 1 
0.389 -0.245 -0.024 1 
0.39 -0.238 -0.024 1 
0.382 -0.195 -0.02 1 
0.381 -0.155 -0.018 1 
0.381 -0.126 -0.018 1 
0.381 -0.116 -0.018 1 
0.383 -0.032 -0.017 1 
0.38 0.013 -0.016 1 
0.374 0.098 -0.015 1 
0.373 0.123 -0.016 1 
0.374 0.134 -0.016 1 
0.371 0.144 -0.016 1 
0.372 0.163 -0.017 1 
0.362 0.224 -0.017 1 
0.361 0.225 -0.016 1 
0.394 -0.263 -0.025 1 
0.393 -0.259 -0.024 1 
0.396 -0.255 -0.025 1 
0.396 -0.247 -0.025 1 
0.387 -0.225 -0.021 1 
0.384 -0.17 -0.018 1 
0.383 -0.105 -0.016 1 
0.383 -0.095 -0.016 1 
0.384 -0.091 -0.016 1 
0.384 -0.075 -0.016 1 
0.38 -0.066 -0.014 1 
0.38 -0.064 -0.014 1 
0.384 -0.06 -0.016 1 
0.388 -0.033 -0.017 1 
0.384 0.024 -0.016 1 
0.381 0.043 -0.015 1 
0.382 0.053 -0.016 1 
0.381 0.064 -0.015 1 
0.381 0.074 -0.015 1 
0.379 0.083 -0.015 1 
0.376 0.113 -0.015 1 
0.371 0.184 -0.016 1 
0.393 -0.215 -0.02 1 
0.393 -0.208 -0.02 1 
0.393 -0.155 -0.018 1 
0.391 -0.126 -0.017 1 
0.391 -0.115 -0.017 1 
0.374 -0.221 -0.025 1 
0.392 -0.107 -0.017 1 
0.39 -0.075 -0.016 1 
0.389 -0.065 -0.015 1 
0.392 -0.056 -0.016 1 
0.388 -0.045 -0.015 1 
0.298 -0.015 0.013 1 
0.39 0.034 -0.016 1 
0.384 0.097 -0.015 1 
0.383 0.123 -0.015 1 
0.383 0.133 -0.015 1 
0.381 0.144 -0.015 1 
0.384 0.164 -0.017 1 
0.374 0.222 -0.016 1 
0.372 0.232 -0.016 1 
0.404 -0.266 -0.023 1 
0.404 -0.255 -0.023 1 
0.394 -0.185 -0.017 1 
0.299 -0.012 0.014 1 
0.3 0.002 0.014 1 
0.393 0.053 -0.015 1 
0.393 0.063 -0.015 1 
0.392 0.073 -0.015 1 
0.393 0.084 -0.015 1 
0.39 0.093 -0.015 1 
0.389 0.097 -0.014 1 
0.39 0.104 -0.015 1 
0.391 0.113 -0.015 1 
0.371 0.152 -0.016 1 
0.38 0.234 -0.017 1 
0.41 -0.256 -0.022 1 
0.381 -0.216 -0.02 1 
0.404 -0.227 -0.019 1 
0.403 -0.217 -0.019 1 
0.404 -0.205 -0.019 1 
0.398 -0.186 -0.016 1 
0.402 -0.175 -0.017 1 
0.402 -0.166 -0.017 1 
0.403 -0.157 -0.017 1 
0.4 -0.146 -0.016 1 
0.402 -0.136 -0.016 1 
0.404 -0.106 -0.016 1 
0.402 -0.095 -0.016 1 
0.403 -0.076 -0.016 1 
0.4 -0.066 -0.015 1 
0.401 -0.056 -0.015 1 
0.401 -0.045 -0.015 1 
0.399 -0.041 -0.014 1 
0.402 -0.037 -0.015 1 
0.475 -0.046 -0.038 1 
0.468 -0.042 -0.036 1 
0.358 0.073 -0.015 1 
0.401 0.023 -0.015 1 
0.394 0.133 -0.015 1 
0.394 0.136 -0.015 1 
0.392 0.152 -0.015 1 
0.391 0.153 -0.014 1 
0.391 0.158 -0.014 1 
0.393 0.163 -0.015 1 
0.39 0.184 -0.015 1 
0.384 0.24 -0.016 1 
0.412 -0.287 -0.022 1 
0.414 -0.271 -0.022 1 
0.414 -0.236 -0.02 1 
0.411 -0.085 -0.016 1 
0.407 -0.075 -0.015 1 
0.406 -0.068 -0.014 1 
0.407 -0.066 -0.015 1 
0.474 -0.046 -0.035 1 
0.364 -0.035 -0.016 1 
0.404 0.011 -0.014 1 
0.406 0.013 -0.015 1 
0.404 0.034 -0.014 1 
0.406 0.043 -0.015 1 
0.405 0.082 -0.015 1 
0.404 0.093 -0.015 1 
0.404 0.104 -0.015 1 
0.402 0.114 -0.015 1 
0.402 0.122 -0.015 1 
0.401 0.133 -0.015 1 
0.399 0.139 -0.014 1 
0.399 0.154 -0.015 1 
0.393 0.198 -0.014 1 
0.394 0.223 -0.016 1 
0.392 0.244 -0.016 1 
0.414 -0.216 -0.017 1 
0.414 -0.206 -0.017 1 
0.411 -0.196 -0.016 1 
0.411 -0.186 -0.016 1 
0.414 -0.169 -0.016 1 
0.411 -0.146 -0.015 1 
0.352 0.193 -0.015 1 
0.413 -0.136 -0.015 1 
0.414 -0.127 -0.015 1 
0.415 -0.109 -0.015 1 
0.413 -0.106 -0.015 1 
0.414 -0.095 -0.015 1 
0.412 -0.045 -0.014 1 
0.374 0.034 -0.016 1 
0.411 0.013 -0.014 1 
0.412 0.024 -0.014 1 
0.412 0.053 -0.014 1 
0.412 0.058 -0.014 1 
0.412 0.071 -0.015 1 
0.411 0.073 -0.014 1 
0.409 0.131 -0.015 1 
0.408 0.144 -0.015 1 
0.409 0.154 -0.015 1 
0.406 0.159 -0.015 1 
0.403 0.164 -0.014 1 
0.403 0.181 -0.015 1 
0.403 0.193 -0.015 1 
0.401 0.193 -0.014 1 
0.403 0.224 -0.016 1 
0.404 0.228 -0.016 1 
0.399 0.243 -0.016 1 
0.397 0.254 -0.016 1 
0.393 0.26 -0.015 1 
0.424 -0.297 -0.021 1 
0.424 -0.288 -0.02 1 
0.424 -0.265 -0.019 1 
0.424 -0.256 -0.019 1 
0.422 -0.246 -0.018 1 
0.422 -0.235 -0.018 1 
0.421 -0.227 -0.017 1 
0.418 -0.157 -0.015 1 
0.422 -0.086 -0.015 1 
0.421 -0.077 -0.014 1 
0.422 -0.075 -0.015 1 
0.422 -0.072 -0.015 1 
0.42 -0.065 -0.014 1 
0.419 -0.055 -0.014 1 
0.419 -0.046 -0.014 1 
0.384 -0.188 -0.018 1 
0.39 -0.147 -0.017 1 
0.421 -0.044 -0.014 1 
0.427 -0.043 -0.016 1 
0.473 -0.048 -0.029 1 
0.394 -0.178 -0.017 1 
0.317 -0.018 0.014 1 
0.416 0.023 -0.013 1 
0.413 0.08 -0.013 1 
0.414 0.087 -0.013 1 
0.414 0.131 -0.014 1 
0.412 0.144 -0.014 1 
0.413 0.154 -0.014 1 
0.408 0.162 -0.013 1 
0.403 0.209 -0.013 1 
0.404 -0.239 -0.022 1 
0.408 0.224 -0.015 1 
0.41 0.233 -0.016 1 
0.406 0.253 -0.016 1 
0.401 0.264 -0.015 1 
0.401 0.269 -0.015 1 
0.424 -0.217 -0.015 1 
0.425 -0.205 -0.015 1 
0.424 -0.196 -0.015 1 
0.424 -0.178 -0.014 1 
0.425 -0.177 -0.015 1 
0.426 -0.165 -0.015 1 
0.422 -0.157 -0.013 1 
0.422 -0.145 -0.013 1 
0.423 -0.136 -0.013 1 
0.423 -0.115 -0.013 1 
0.37 0.214 -0.017 1 
0.423 -0.105 -0.013 1 
0.424 -0.101 -0.013 1 
0.442 -0.046 -0.018 1 
0.419 -0.175 -0.015 1 
0.423 0.044 -0.013 1 
0.423 0.053 -0.013 1 
0.423 0.062 -0.013 1 
0.421 0.074 -0.013 1 
0.421 0.094 -0.013 1 
0.358 0.164 -0.016 1 
0.414 0.174 -0.013 1 
0.402 0.064 -0.016 1 
0.41 0.213 -0.013 1 
0.415 0.233 -0.015 1 
0.415 0.241 -0.015 1 
0.414 0.242 -0.015 1 
0.415 0.249 -0.016 1 
0.413 0.274 -0.016 1 
0.411 0.281 -0.016 1 
0.434 -0.29 -0.018 1 
0.432 -0.276 -0.017 1 
0.43 -0.256 -0.015 1 
0.434 -0.246 -0.016 1 
0.435 -0.239 -0.016 1 
0.432 -0.228 -0.015 1 
0.431 -0.22 -0.015 1 
0.43 -0.216 -0.014 1 
0.433 -0.19 -0.015 1 
0.432 -0.187 -0.014 1 
0.431 -0.176 -0.014 1 
0.43 -0.115 -0.013 1 
0.429 -0.105 -0.012 1 
0.431 -0.096 -0.013 1 
0.432 -0.085 -0.013 1 
0.432 -0.075 -0.013 1 
0.433 -0.066 -0.013 1 
0.432 -0.056 -0.013 1 
0.433 -0.049 -0.013 1 
0.481 -0.046 -0.026 1 
0.479 -0.043 -0.025 1 
0.322 -0.016 0.015 1 
0.354 0.138 -0.015 1 
0.314 -0.008 0.018 1 
0.32 -0.005 0.016 1 
0.322 0 0.015 1 
0.431 0.043 -0.013 1 
0.429 0.054 -0.012 1 
0.424 0.122 -0.012 1 
0.423 0.162 -0.012 1 
0.42 0.173 -0.012 1 
0.422 0.192 -0.013 1 
0.42 0.282 -0.016 1 
0.432 -0.309 -0.015 1 
0.437 -0.281 -0.015 1 
0.434 -0.275 -0.014 1 
0.432 -0.267 -0.014 1 
0.432 -0.255 -0.013 1 
0.433 -0.251 -0.013 1 
0.432 -0.205 -0.012 1 
0.382 -0.073 -0.015 1 
0.434 -0.196 -0.013 1 
0.433 -0.157 -0.012 1 
0.433 -0.146 -0.011 1 
0.434 -0.125 -0.011 1 
0.479 -0.046 -0.022 1 
0.331 -0.004 0.015 1 
0.334 0 0.014 1 
0.434 0.031 -0.011 1 
0.434 0.063 -0.011 1 
0.434 0.072 -0.011 1 
0.434 0.075 -0.011 1 
0.414 -0.063 -0.015 1 
0.434 0.094 -0.012 1 
0.434 0.124 -0.012 1 
0.428 0.143 -0.011 1 
0.428 0.153 -0.011 1 
0.424 0.184 -0.011 1 
0.424 0.204 -0.011 1 
0.422 0.213 -0.011 1 
0.422 0.223 -0.012 1 
0.422 0.234 -0.012 1 
0.424 0.244 -0.013 1 
0.424 0.249 -0.013 1 
0.422 0.272 -0.013 1 
0.422 0.281 -0.014 1 
0.439 -0.311 -0.014 1 
0.444 -0.297 -0.015 1 
0.439 -0.286 -0.013 1 
0.443 -0.226 -0.013 1 
0.44 -0.216 -0.012 1 
0.441 -0.195 -0.012 1 
0.442 -0.185 -0.012 1 
0.443 -0.175 -0.012 1 
0.442 -0.167 -0.011 1 
0.441 -0.156 -0.011 1 
0.441 -0.146 -0.011 1 
0.443 -0.136 -0.011 1 
0.441 -0.115 -0.01 1 
0.442 -0.105 -0.011 1 
0.444 -0.096 -0.011 1 
0.422 0.083 -0.013 1 
0.444 -0.093 -0.011 1 
0.443 -0.076 -0.011 1 
0.443 -0.066 -0.011 1 
0.443 -0.056 -0.011 1 
0.479 -0.038 -0.019 1 
0.327 -0.015 0.017 1 
0.334 -0.01 0.015 1 
0.341 -0.005 0.014 1 
0.406 0.024 -0.015 1 
0.344 0 0.013 1 
0.346 0.002 0.012 1 
0.443 0.032 -0.011 1 
0.444 0.04 -0.011 1 
0.443 0.052 -0.011 1 
0.439 0.064 -0.01 1 
0.439 0.074 -0.01 1 
0.44 0.084 -0.011 1 
0.44 0.094 -0.011 1 
0.44 0.122 -0.011 1 
0.434 0.162 -0.011 1 
0.428 0.181 -0.009 1 
0.429 0.224 -0.011 1 
0.423 0.294 -0.012 1 
0.444 -0.319 -0.013 1 
0.449 -0.315 -0.014 1 
0.419 -0.205 -0.016 1 
0.453 -0.313 -0.015 1 
0.443 -0.246 -0.011 1 
0.414 0.101 -0.013 1 
0.444 -0.244 -0.011 1 
0.45 -0.137 -0.01 1 
0.45 -0.095 -0.01 1 
0.47 -0.039 -0.014 1 
0.422 0.152 -0.012 1 
0.349 -0.015 0.013 1 
0.374 -0.012 0.007 1 
0.378 -0.005 0.006 1 
0.379 0 0.006 1 
0.444 0.134 -0.01 1 
0.441 0.164 -0.01 1 
0.434 0.191 -0.009 1 
0.433 0.203 -0.009 1 
0.432 0.234 -0.009 1 
0.433 0.241 -0.01 1 
0.434 0.253 -0.01 1 
0.434 0.264 -0.011 1 
0.433 0.269 -0.011 1 
0.434 0.282 -0.011 1 
0.449 -0.275 -0.01 1 
0.443 -0.266 -0.008 1 
0.446 -0.257 -0.009 1 
0.449 -0.245 -0.009 1 
0.452 -0.236 -0.01 1 
0.454 -0.226 -0.01 1 
0.452 -0.217 -0.009 1 
0.451 -0.205 -0.009 1 
0.451 -0.197 -0.009 1 
0.452 -0.187 -0.009 1 
0.453 -0.155 -0.009 1 
0.454 -0.152 -0.009 1 
0.454 -0.118 -0.008 1 
0.454 -0.11 -0.008 1 
0.444 -0.208 -0.01 1 
0.454 -0.086 -0.008 1 
0.453 -0.065 -0.008 1 
0.454 -0.058 -0.008 1 
0.454 -0.012 -0.008 1 
0.454 0.003 -0.008 1 
0.454 0.034 -0.008 1 
0.441 0.142 -0.009 1 
0.454 0.044 -0.008 1 
0.452 0.054 -0.008 1 
0.451 0.064 -0.008 1 
0.444 0.173 -0.008 1 
0.444 0.203 -0.009 1 
0.444 0.214 -0.009 1 
0.432 0.304 -0.009 1 
0.384 -0.213 -0.02 1 
0.45 -0.329 -0.009 1 
0.457 0.003 -0.006 1 
0.455 0.062 -0.006 1 
0.454 0.078 -0.006 1 
0.454 0.093 -0.006 1 
0.454 0.112 -0.006 1 
0.454 0.133 -0.007 1 
0.452 0.153 -0.007 1 
0.451 0.164 -0.007 1 
0.444 0.239 -0.007 1 
0.442 0.284 -0.008 1 
0.442 0.293 -0.008 1 
0.382 0.182 -0.015 1 
0.462 -0.316 -0.008 1 
0.462 -0.297 -0.008 1 
0.46 -0.175 -0.005 1 
0.461 -0.156 -0.005 1 
0.462 -0.075 -0.005 1 
0.382 -0.235 -0.026 1 
0.463 -0.057 -0.005 1 
0.461 -0.036 -0.005 1 
0.461 0.016 -0.005 1 
0.46 0.042 -0.005 1 
0.458 0.1 -0.005 1 
0.457 0.124 -0.005 1 
0.457 0.142 -0.005 1 
0.394 0.233 -0.016 1 
0.452 0.184 -0.005 1 
0.453 0.193 -0.005 1 
0.453 0.204 -0.005 1 
0.452 0.214 -0.005 1 
0.451 0.222 -0.005 1 
0.45 0.233 -0.005 1 
0.45 0.244 -0.006 1 
0.449 0.252 -0.006 1 
0.447 0.262 -0.006 1 
0.446 0.267 -0.005 1 
0.444 0.268 -0.005 1 
0.444 0.295 -0.006 1 
0.407 -0.04 -0.015 1 
0.444 0.308 -0.006 1 
0.456 0.331 -0.01 1 
0.463 -0.337 -0.006 1 
0.433 0.133 -0.012 1 
0.442 0.263 -0.007 1 
0.467 -0.325 -0.007 1 
0.364 -0.078 -0.016 1 
0.469 -0.317 -0.007 1 
0.453 -0.05 -0.01 1 
0.467 -0.305 -0.006 1 
0.465 -0.28 -0.005 1 
0.465 -0.265 -0.005 1 
0.464 -0.261 -0.005 1 
0.464 -0.258 -0.004 1 
0.465 -0.256 -0.005 1 
0.466 -0.245 -0.005 1 
0.467 -0.236 -0.005 1 
0.464 -0.226 -0.004 1 
0.463 -0.217 -0.004 1 
0.463 -0.146 -0.003 1 
0.464 -0.046 -0.002 1 
0.453 0.232 -0.003 1 
0.453 0.244 -0.004 1 
0.453 0.253 -0.004 1 
0.451 0.263 -0.004 1 
0.453 0.277 -0.004 1 
0.453 0.283 -0.005 1 
0.451 0.293 -0.005 1 
0.451 0.302 -0.005 1 
0.45 0.324 -0.005 1 
0.47 -0.335 -0.005 1 
0.464 -0.194 -0.001 1 
0.464 -0.177 -0.001 1 
0.4 -0.195 -0.017 1 
0.464 -0.158 0 1 
0.464 -0.076 0 1 
0.449 -0.296 -0.013 1 
0.464 -0.07 0 1 
0.465 0.008 0 1 
0.453 0.301 -0.002 1 
0.454 0.312 -0.003 1 
0.454 0.315 -0.003 1 
0.466 -0.087 0.001 1 
0.465 -0.076 0.002 1 
0.465 -0.065 0.002 1 
0.464 0.014 0.002 1 
0.463 0.024 0.002 1 
0.462 0.093 0.002 1 
0.461 0.114 0.002 1 
0.469 -0.256 0.002 1 
0.468 -0.226 0.003 1 
0.466 -0.187 0.003 1 
0.465 -0.175 0.004 1 
0.465 -0.166 0.004 1 
0.466 -0.156 0.004 1 
0.466 -0.145 0.004 1 
0.374 -0.206 -0.022 1 
0.423 0.112 -0.011 1 
0.465 -0.119 0.004 1 
0.464 -0.116 0.004 1 
0.464 -0.105 0.004 1 
0.464 -0.1 0.004 1 
0.461 0.096 0.004 1 
0.46 0.122 0.004 1 
0.459 0.152 0.004 1 
0.46 0.164 0.004 1 
0.461 0.184 0.003 1 
0.46 0.194 0.003 1 
0.46 0.203 0.003 1 
0.458 0.224 0.003 1 
0.458 0.233 0.003 1 
0.459 0.243 0.003 1 
0.469 -0.278 0.004 1 
0.46 0.274 0.004 1 
0.461 0.284 0.004 1 
0.46 0.292 0.004 1 
0.459 0.304 0.004 1 
0.459 0.314 0.004 1 
0.459 0.32 0.003 1 
0.394 0.014 -0.015 1 
0.46 0.332 0.003 1 
0.393 0.043 -0.015 1 
0.46 0.335 0.006 1 
0.459 0.214 0.003 1 
0.474 -0.048 -0.024 1 
0.455 0.169 -0.005 1 
0.457 0.134 -0.005 1 
0.466 -0.285 -0.005 1 
0.458 0.113 -0.005 1 
0.459 -0.197 -0.005 1 
0.455 0.088 -0.006 1 
0.455 0.073 -0.006 1 
0.46 0.053 -0.005 1 
0.458 -0.007 -0.007 1 
0.461 -0.033 -0.005 1 
0.463 -0.046 -0.005 1 
0.463 -0.065 -0.005 1 
0.409 0.202 -0.012 1 
0.384 -0.145 -0.017 1 
0.462 -0.086 -0.005 1 
0.461 -0.107 -0.005 1 
0.462 -0.126 -0.005 1 
0.462 -0.146 -0.005 1 
0.372 -0.03 -0.017 1 
0.456 0.153 -0.005 1 
0.46 -0.167 -0.005 1 
0.46 -0.186 -0.005 1 
0.461 -0.227 -0.006 1 
0.451 -0.308 -0.014 1 
0.46 -0.246 -0.006 1 
0.444 0.253 -0.007 1 
0.463 -0.285 -0.008 1 
0.397 0.174 -0.015 1 
0.464 -0.328 -0.009 1 
0.434 -0.142 -0.012 1 
0.404 -0.087 -0.016 1 
0.438 -0.276 -0.01 1 
0.413 0.112 -0.013 1 
0.372 0.174 -0.015 1 
0.414 0.124 -0.014 1 
0.373 0.238 -0.017 1 
0.391 0.174 -0.015 1 
0.433 0.104 -0.011 1 
0.435 -0.273 -0.015 1 
0.439 0.104 -0.011 1 
0.453 0.143 -0.007 1 
0.432 0.174 -0.01 1 
0.47 -0.245 0.002 1 
0.45 0.074 -0.008 1 
0.463 -0.135 -0.003 1 
0.451 0.124 -0.009 1 
0.443 0.013 -0.011 1 
0.467 -0.298 -0.006 1 
0.444 -0.258 -0.008 1 
0.457 -0.038 -0.035 1 
0.373 0.073 -0.017 1 
0.364 -0.065 -0.016 1 
0.44 0.152 -0.009 1 
0.406 -0.042 -0.014 1 
0.464 -0.166 0 1 
0.462 0.337 0.002 1 
0.46 -0.217 -0.006 1 
0.384 -0.04 -0.016 1 
0.451 0.312 -0.005 1 
0.46 0.144 0.004 1 
0.394 -0.201 -0.018 1 
0.413 0.062 -0.015 1 
0.373 -0.216 -0.024 1 
0.442 -0.048 -0.013 1 
0.433 0.293 -0.012 1 
0.432 0.012 -0.013 1 
0.424 -0.279 -0.02 1 
0.4 0.013 -0.015 1 
0.431 0.113 -0.011 1 
0.416 -0.041 -0.015 1 
0.384 0.093 -0.015 1 
0.353 -0.014 0.012 1 
0.454 -0.017 -0.008 1 
0.461 -0.115 -0.005 1 
0.353 0.203 -0.016 1 
0.401 0.144 -0.015 1 
0.402 0.213 -0.015 1 
0.43 -0.067 -0.015 1 
0.464 -0.206 -0.001 1 
0.462 -0.135 -0.005 1 
0.409 -0.247 -0.022 1 
0.389 0.124 -0.015 1 
0.464 0.003 0.002 1 
0.469 -0.236 0.002 1 
0.412 0.22 -0.014 1 
0.313 -0.018 0.011 1 
0.414 -0.225 -0.017 1 
0.394 -0.096 -0.015 1 
0.434 -0.241 -0.016 1 
0.374 0.094 -0.015 1 
0.432 -0.267 -0.016 1 
0.394 -0.266 -0.025 1 
0.394 0.204 -0.015 1 
0.394 0.016 -0.015 1 
0.454 -0.128 -0.009 1 
0.412 -0.056 -0.014 1 
0.471 -0.267 0.002 1 
0.383 0.203 -0.016 1 
0.42 0.134 -0.013 1 
0.419 0.29 -0.016 1 
0.422 -0.167 -0.016 1 
0.389 0.253 -0.016 1 
0.459 -0.017 -0.007 1 
0.402 0.178 -0.014 1 
0.424 0.012 -0.013 1 
0.461 0.173 0.003 1 
0.406 0.028 -0.015 1 
0.466 -0.095 0.001 1 
0.392 -0.238 -0.025 1 
0.36 0.174 -0.015 1 
0.464 -0.267 -0.005 1 
0.401 0.053 -0.015 1 
0.384 0.033 -0.016 1 
0.414 0.181 -0.013 1 
0.373 0.113 -0.015 1 
0.411 0.044 -0.014 1 
0.399 0.074 -0.015 1 
0.434 -0.296 -0.018 1 
0.424 0.263 -0.013 1 
0.424 0.143 -0.012 1 
0.439 -0.289 -0.016 1 
0.358 0.084 -0.015 1 
0.448 -0.044 -0.014 1 
0.444 0.023 -0.011 1 
0.46 0.253 0.002 1 
0.392 -0.035 -0.016 1 
0.446 -0.29 -0.012 1 
0.4 0.044 -0.015 1 
0.409 -0.175 -0.015 1 
0.38 0.154 -0.015 1 
0.412 -0.156 -0.015 1 
0.404 0.084 -0.015 1 
0.431 0.024 -0.013 1 
0.364 -0.096 -0.017 1 
0.452 -0.075 -0.008 1 
0.404 -0.126 -0.017 1 
0.419 0.261 -0.015 1 
0.419 0.103 -0.013 1 
0.381 -0.177 -0.019 1 
0.459 0.264 0.002 1 
0.463 -0.127 -0.003 1 
0.408 0.054 -0.015 1 
0.389 -0.247 -0.025 1 
0.411 -0.116 -0.017 1 
0.453 -0.176 -0.009 1 
0.466 -0.106 0.001 1 
0.322 -0.019 0 1 
0.424 -0.189 -0.015 1 
0.437 -0.126 -0.01 1 
0.444 0.108 -0.009 1 
0.401 0.17 -0.014 1 
0.443 -0.306 -0.015 1 
0.353 0.184 -0.015 1 
0.375 -0.22 -0.025 1 
0.382 0.224 -0.017 1 
0.461 0.013 -0.005 1 
0.391 0.213 -0.017 1 
0.419 -0.132 -0.015 1 
0.374 -0.157 -0.018 1 
0.464 -0.087 0 1 
0.454 0.268 -0.002 1 
0.454 0.293 -0.002 1 
0.405 0.086 -0.015 1 
0.443 0.194 -0.008 1 
0.441 0.223 -0.008 1 
0.455 0.083 -0.006 1 
0.383 0.194 -0.016 1 
0.393 -0.085 -0.017 1 
0.404 0.041 -0.014 1 
0.412 0.033 -0.014 1 
0.363 -0.116 -0.017 1 
0.383 0.213 -0.016 1 
0.424 0.033 -0.013 1 
0.42 -0.116 -0.015 1 
0.402 0.204 -0.013 1 
0.462 -0.097 -0.005 1 
0.434 0.214 -0.009 1 
0.425 -0.202 -0.015 1 
0.361 0.053 -0.016 1 
0.457 0.034 -0.006 1 
0.393 -0.166 -0.019 1 
0.373 0.043 -0.016 1 
0.354 0.123 -0.015 1 
0.454 -0.037 -0.039 1 
0.464 -0.197 -0.001 1 
0.414 -0.277 -0.022 1 
0.371 -0.065 -0.015 1 
0.464 -0.062 0 1 
0.459 -0.208 -0.005 1 
0.453 -0.165 -0.009 1 
0.424 -0.125 -0.013 1 
0.464 -0.276 -0.005 1 
0.372 0.191 -0.016 1 
0.464 -0.039 -0.026 1 
0.43 -0.165 -0.013 1 
0.454 0.023 -0.008 1 
0.4 0.034 -0.015 1 
0.453 0.173 -0.005 1 
0.379 0.173 -0.016 1 
0.377 0.094 -0.014 1 
0.455 0.164 -0.005 1 
0.454 0.013 -0.008 1 
0.453 0.104 -0.006 1 
0.41 0.263 -0.015 1 
0.44 0.233 -0.009 1 
0.405 0.175 -0.015 1 
0.404 -0.124 -0.017 1 
0.473 -0.043 -0.032 1 
0.387 0.193 -0.015 1 
0.474 -0.037 -0.015 1 
0.461 -0.235 -0.006 1 
0.404 -0.245 -0.022 1 
0.384 -0.141 -0.017 1 
0.462 -0.306 -0.008 1 
0.391 -0.136 -0.017 1 
0.374 0.195 -0.017 1 
0.36 0.212 -0.017 1 
0.372 -0.165 -0.018 1 
0.411 0.194 -0.015 1 
0.441 0.182 -0.008 1 
0.383 -0.046 -0.015 1 
0.475 -0.291 0.16 3 
0.47 -0.245 0.094 3 
0.466 -0.107 0.152 3 
0.467 -0.115 0.153 3 
0.468 -0.127 0.153 3 
0.468 -0.135 0.154 3 
0.461 0.336 0.062 3 
0.468 -0.146 0.154 3 
0.469 -0.155 0.154 3 
0.462 0.283 0.132 3 
0.469 -0.167 0.154 3 
0.468 -0.175 0.154 3 
0.468 -0.085 0.153 3 
0.478 -0.318 0.162 3 
0.478 -0.325 0.162 3 
0.478 -0.339 0.163 3 
0.478 -0.346 0.163 3 
0.461 0.332 0.154 3 
0.462 0.233 0.063 3 
0.463 0.311 0.154 3 
0.463 0.304 0.153 3 
0.463 0.152 0.133 3 
0.462 0.29 0.153 3 
0.463 0.172 0.152 3 
0.461 0.268 0.154 3 
0.462 0.262 0.154 3 
0.461 0.153 0.033 3 
0.462 0.253 0.154 3 
0.462 0.244 0.154 3 
0.462 0.232 0.154 3 
0.462 0.223 0.153 3 
0.463 0.212 0.153 3 
0.461 0.274 0.062 3 
0.463 0.192 0.153 3 
0.463 0.184 0.153 3 
0.467 -0.096 0.153 3 
0.463 0.152 0.152 3 
0.464 0.133 0.152 3 
0.465 0.095 0.152 3 
0.465 0.092 0.152 3 
0.466 -0.047 0.152 3 
0.466 -0.055 0.152 3 
0.46 0.332 0.062 3 
0.466 -0.066 0.152 3 
0.467 -0.077 0.152 3 
0.463 0.073 0.143 3 
0.463 0.033 0.143 3 
0.462 0.154 0.144 3 
0.463 0.144 0.144 3 
0.463 0.133 0.144 3 
0.463 0.124 0.143 3 
0.462 0.113 0.143 3 
0.464 0.103 0.144 3 
0.464 0.092 0.143 3 
0.465 0.09 0.144 3 
0.464 0.084 0.143 3 
0.463 0.062 0.143 3 
0.463 0.054 0.143 3 
0.462 0.163 0.144 3 
0.464 0.022 0.143 3 
0.464 0.014 0.143 3 
0.465 -0.186 0.014 3 
0.463 0.003 0.143 3 
0.476 -0.308 0.134 3 
0.464 -0.006 0.143 3 
0.464 -0.017 0.143 3 
0.465 -0.02 0.143 3 
0.465 -0.028 0.143 3 
0.465 -0.047 0.143 3 
0.465 -0.055 0.143 3 
0.464 -0.017 0.146 3 
0.477 -0.307 0.164 3 
0.462 -0.006 0.092 3 
0.469 -0.187 0.152 3 
0.469 -0.195 0.152 3 
0.47 -0.207 0.153 3 
0.47 -0.216 0.153 3 
0.47 -0.225 0.153 3 
0.459 0.243 0.013 3 
0.471 -0.235 0.154 3 
0.472 -0.248 0.154 3 
0.461 0.339 0.151 3 
0.461 0.283 0.152 3 
0.464 -0.025 0.146 3 
0.465 -0.195 0.014 3 
0.473 -0.258 0.152 3 
0.473 -0.267 0.152 3 
0.474 -0.277 0.153 3 
0.462 0.204 0.063 3 
0.475 -0.285 0.153 3 
0.476 -0.295 0.154 3 
0.462 0.194 0.144 3 
0.462 0.182 0.144 3 
0.462 0.174 0.144 3 
0.464 0.343 0.164 3 
0.469 -0.275 0.083 3 
0.469 -0.167 0.163 3 
0.469 -0.175 0.163 3 
0.47 -0.185 0.164 3 
0.466 -0.106 0.104 3 
0.469 -0.256 0.052 3 
0.47 -0.196 0.164 3 
0.471 -0.206 0.164 3 
0.466 -0.167 0.034 3 
0.478 -0.336 0.171 3 
0.48 -0.345 0.173 3 
0.479 -0.355 0.173 3 
0.469 -0.155 0.163 3 
0.465 0.334 0.164 3 
0.461 0.334 0.122 3 
0.465 0.324 0.163 3 
0.464 0.319 0.163 3 
0.464 0.312 0.163 3 
0.462 0.134 0.073 3 
0.463 0.301 0.162 3 
0.464 0.062 0.157 3 
0.464 0.041 0.157 3 
0.464 0.006 0.157 3 
0.462 0.204 0.084 3 
0.463 0.242 0.163 3 
0.479 -0.326 0.174 3 
0.466 -0.167 0.023 3 
0.472 -0.358 0.174 3 
0.464 0.293 0.165 3 
0.464 0.287 0.164 3 
0.464 0.283 0.164 3 
0.464 -0.025 0.143 3 
0.469 -0.206 0.113 3 
0.464 0.274 0.164 3 
0.463 0.264 0.163 3 
0.463 0.254 0.163 3 
0.471 -0.217 0.162 3 
0.462 0.233 0.162 3 
0.463 0.224 0.162 3 
0.464 0.213 0.162 3 
0.464 0.07 0.16 3 
0.468 -0.226 0.033 3 
0.469 -0.116 0.162 3 
0.47 -0.125 0.162 3 
0.469 -0.136 0.162 3 
0.478 -0.357 0.163 3 
0.469 -0.147 0.162 3 
0.478 -0.355 0.133 3 
0.464 0.014 0.154 3 
0.464 0.062 0.154 3 
0.465 0.057 0.154 3 
0.464 0.064 0.073 3 
0.464 -0.017 0.074 3 
0.464 0.054 0.154 3 
0.464 0.043 0.154 3 
0.463 0.033 0.154 3 
0.462 0.094 0.103 3 
0.475 -0.316 0.102 3 
0.464 0.022 0.154 3 
0.469 -0.247 0.033 3 
0.462 0.083 0.002 3 
0.464 0.003 0.154 3 
0.464 -0.006 0.154 3 
0.465 -0.014 0.154 3 
0.465 -0.017 0.154 3 
0.465 -0.025 0.154 3 
0.466 -0.036 0.154 3 
0.474 -0.287 0.162 3 
0.46 0.221 0.133 3 
0.464 -0.124 0.02 3 
0.475 -0.295 0.163 3 
0.474 -0.352 0.064 3 
0.464 0.333 0.161 3 
0.473 -0.227 0.163 3 
0.466 -0.136 0.093 3 
0.473 -0.236 0.163 3 
0.474 -0.246 0.163 3 
0.474 -0.256 0.164 3 
0.46 0.243 0.043 3 
0.474 -0.265 0.164 3 
0.474 -0.275 0.164 3 
0.462 0.204 0.114 3 
0.474 -0.278 0.165 3 
0.462 0.184 0.033 3 
0.465 -0.065 0.144 3 
0.462 0.273 0.104 3 
0.462 0.157 0.154 3 
0.463 0.138 0.154 3 
0.463 0.116 0.154 3 
0.464 0.114 0.154 3 
0.463 0.103 0.154 3 
0.465 0.095 0.155 3 
0.464 0.089 0.154 3 
0.465 0.079 0.154 3 
0.464 0.076 0.154 3 
0.464 0.073 0.154 3 
0.463 0.102 0.124 3 
0.472 -0.266 0.132 3 
0.472 -0.275 0.132 3 
0.474 -0.286 0.133 3 
0.472 -0.306 0.072 3 
0.475 -0.297 0.133 3 
0.476 -0.315 0.134 3 
0.462 0.148 0.124 3 
0.462 0.184 0.054 3 
0.462 0.143 0.124 3 
0.462 0.124 0.124 3 
0.463 0.113 0.124 3 
0.465 -0.022 0.127 3 
0.462 0.094 0.124 3 
0.463 0.083 0.124 3 
0.462 0.072 0.124 3 
0.462 0.064 0.124 3 
0.462 0.054 0.124 3 
0.462 0.043 0.124 3 
0.462 0.032 0.124 3 
0.461 0.024 0.124 3 
0.463 0.003 0.124 3 
0.463 -0.006 0.124 3 
0.464 -0.017 0.124 3 
0.462 0.262 0.132 3 
0.478 -0.345 0.142 3 
0.478 -0.356 0.142 3 
0.462 0.339 0.134 3 
0.473 -0.295 0.113 3 
0.46 0.33 0.133 3 
0.471 -0.286 0.092 3 
0.462 0.322 0.134 3 
0.462 0.312 0.133 3 
0.462 0.302 0.133 3 
0.462 0.293 0.133 3 
0.462 0.274 0.132 3 
0.465 -0.02 0.124 3 
0.467 -0.177 0.132 3 
0.468 -0.185 0.132 3 
0.469 -0.197 0.133 3 
0.47 -0.207 0.133 3 
0.47 -0.216 0.133 3 
0.47 -0.227 0.133 3 
0.471 -0.237 0.134 3 
0.464 -0.007 0.052 3 
0.471 -0.246 0.134 3 
0.471 -0.256 0.134 3 
0.464 -0.127 0.02 3 
0.467 -0.145 0.123 3 
0.464 -0.036 0.122 3 
0.465 -0.047 0.122 3 
0.465 -0.055 0.122 3 
0.463 -0.017 0.052 3 
0.466 -0.076 0.122 3 
0.466 -0.085 0.122 3 
0.464 -0.007 0.002 3 
0.467 -0.107 0.123 3 
0.467 -0.115 0.123 3 
0.467 -0.126 0.123 3 
0.466 -0.137 0.123 3 
0.474 -0.348 0.037 3 
0.468 -0.157 0.124 3 
0.467 -0.165 0.123 3 
0.468 -0.176 0.124 3 
0.469 -0.186 0.124 3 
0.469 -0.197 0.124 3 
0.461 0.338 0.122 3 
0.462 0.322 0.122 3 
0.461 0.311 0.122 3 
0.463 0.303 0.122 3 
0.47 -0.207 0.122 3 
0.47 -0.215 0.122 3 
0.462 0.274 0.124 3 
0.465 -0.025 0.124 3 
0.464 -0.028 0.124 3 
0.465 -0.036 0.124 3 
0.474 -0.296 0.13 3 
0.474 -0.309 0.131 3 
0.476 -0.325 0.132 3 
0.469 -0.275 0.044 3 
0.477 -0.336 0.132 3 
0.476 -0.346 0.132 3 
0.463 0.29 0.124 3 
0.462 0.283 0.124 3 
0.461 0.064 0.023 3 
0.462 0.261 0.124 3 
0.461 0.243 0.123 3 
0.462 0.234 0.123 3 
0.464 -0.046 0.114 3 
0.461 0.222 0.123 3 
0.462 0.202 0.122 3 
0.462 0.193 0.122 3 
0.462 0.182 0.122 3 
0.462 0.173 0.122 3 
0.462 0.162 0.122 3 
0.462 0.132 0.122 3 
0.472 -0.238 0.143 3 
0.468 -0.155 0.143 3 
0.469 -0.166 0.143 3 
0.469 -0.175 0.143 3 
0.468 -0.186 0.143 3 
0.468 -0.195 0.144 3 
0.47 -0.207 0.144 3 
0.46 0.331 0.142 3 
0.463 0.324 0.143 3 
0.463 0.314 0.142 3 
0.471 -0.216 0.142 3 
0.47 -0.225 0.142 3 
0.468 -0.146 0.143 3 
0.472 -0.247 0.143 3 
0.471 -0.256 0.143 3 
0.472 -0.266 0.143 3 
0.473 -0.276 0.144 3 
0.475 -0.288 0.142 3 
0.466 -0.207 0.014 3 
0.475 -0.297 0.142 3 
0.462 0.204 0.092 3 
0.476 -0.305 0.143 3 
0.477 -0.316 0.143 3 
0.477 -0.326 0.144 3 
0.462 0.293 0.144 3 
0.466 -0.076 0.144 3 
0.467 -0.085 0.144 3 
0.477 -0.306 0.152 3 
0.464 0.003 0.132 3 
0.477 -0.316 0.152 3 
0.477 -0.327 0.153 3 
0.477 -0.337 0.153 3 
0.477 -0.348 0.154 3 
0.476 -0.358 0.154 3 
0.476 -0.335 0.114 3 
0.462 0.303 0.144 3 
0.477 -0.337 0.144 3 
0.462 0.284 0.144 3 
0.46 -0.007 0.013 3 
0.462 0.274 0.144 3 
0.462 0.262 0.143 3 
0.461 0.243 0.142 3 
0.461 0.234 0.142 3 
0.461 0.222 0.142 3 
0.463 0.212 0.142 3 
0.467 -0.107 0.142 3 
0.467 -0.115 0.142 3 
0.467 -0.126 0.142 3 
0.465 -0.065 0.133 3 
0.46 0.243 0.062 3 
0.462 0.032 0.132 3 
0.462 0.022 0.132 3 
0.462 0.014 0.132 3 
0.464 -0.006 0.132 3 
0.47 -0.297 0.012 3 
0.464 -0.017 0.132 3 
0.465 -0.025 0.132 3 
0.465 -0.036 0.133 3 
0.466 -0.047 0.133 3 
0.466 -0.055 0.133 3 
0.462 0.043 0.132 3 
0.466 -0.076 0.133 3 
0.467 -0.085 0.133 3 
0.467 -0.096 0.134 3 
0.467 -0.115 0.134 3 
0.467 -0.126 0.134 3 
0.463 -0.017 0.113 3 
0.468 -0.138 0.134 3 
0.468 -0.146 0.134 3 
0.467 -0.16 0.134 3 
0.467 -0.165 0.134 3 
0.474 -0.29 0.139 3 
0.463 0.163 0.133 3 
0.461 0.249 0.134 3 
0.461 0.243 0.134 3 
0.461 0.252 0.123 3 
0.46 0.233 0.134 3 
0.461 0.213 0.134 3 
0.471 -0.265 0.123 3 
0.462 0.203 0.134 3 
0.462 0.193 0.133 3 
0.467 -0.145 0.052 3 
0.462 0.182 0.133 3 
0.462 0.174 0.133 3 
0.477 -0.297 0.172 3 
0.463 0.143 0.133 3 
0.463 0.132 0.133 3 
0.463 0.124 0.133 3 
0.463 0.113 0.132 3 
0.463 0.102 0.132 3 
0.464 -0.036 0.092 3 
0.463 0.094 0.132 3 
0.463 0.083 0.132 3 
0.463 0.073 0.132 3 
0.462 0.064 0.132 3 
0.462 0.054 0.132 3 
0.463 0.043 0.052 3 
0.469 0.083 0.184 3 
0.468 0.074 0.183 3 
0.467 0.063 0.183 3 
0.468 0.052 0.183 3 
0.482 -0.356 0.193 3 
0.469 0.044 0.183 3 
0.468 0.033 0.183 3 
0.469 0.023 0.183 3 
0.469 0.014 0.183 3 
0.461 0.303 0.082 3 
0.469 0.003 0.183 3 
0.468 0.094 0.183 3 
0.469 -0.007 0.183 3 
0.476 -0.318 0.122 3 
0.469 -0.015 0.183 3 
0.47 -0.026 0.184 3 
0.469 -0.036 0.172 3 
0.47 -0.037 0.184 3 
0.47 -0.045 0.184 3 
0.465 -0.055 0.063 3 
0.471 -0.056 0.184 3 
0.471 -0.081 0.184 3 
0.462 0.302 0.113 3 
0.466 0.169 0.184 3 
0.468 -0.217 0.044 3 
0.483 -0.325 0.2 3 
0.472 -0.207 0.173 3 
0.484 -0.337 0.201 3 
0.484 -0.348 0.202 3 
0.475 0.359 0.196 3 
0.475 -0.303 0.122 3 
0.471 0.351 0.194 3 
0.468 0.344 0.193 3 
0.469 0.333 0.192 3 
0.467 -0.145 0.093 3 
0.474 -0.352 0.096 3 
0.47 -0.165 0.174 3 
0.468 -0.135 0.142 3 
0.466 0.163 0.184 3 
0.466 0.152 0.184 3 
0.462 0.197 0.144 3 
0.467 0.144 0.184 3 
0.468 0.133 0.184 3 
0.469 0.122 0.184 3 
0.467 -0.107 0.134 3 
0.468 0.113 0.184 3 
0.467 0.104 0.183 3 
0.472 -0.146 0.183 3 
0.461 0.213 0.123 3 
0.467 0.204 0.183 3 
0.466 0.192 0.182 3 
0.466 0.183 0.182 3 
0.47 -0.067 0.181 3 
0.471 -0.095 0.182 3 
0.462 0.043 0.143 3 
0.471 -0.106 0.182 3 
0.472 -0.117 0.183 3 
0.471 -0.126 0.182 3 
0.472 -0.137 0.183 3 
0.467 0.213 0.183 3 
0.461 0.203 0.033 3 
0.472 -0.157 0.183 3 
0.471 -0.165 0.183 3 
0.472 -0.175 0.184 3 
0.461 0.244 0.093 3 
0.474 -0.236 0.187 3 
0.48 -0.308 0.192 3 
0.483 -0.318 0.194 3 
0.483 -0.325 0.194 3 
0.472 0.355 0.189 3 
0.465 0.154 0.172 3 
0.465 0.276 0.184 3 
0.471 -0.089 0.184 3 
0.474 -0.147 0.187 3 
0.475 -0.182 0.188 3 
0.474 -0.205 0.188 3 
0.465 -0.047 0.044 3 
0.477 -0.266 0.192 3 
0.479 -0.277 0.193 3 
0.479 -0.287 0.193 3 
0.464 0.103 0.168 3 
0.48 -0.298 0.194 3 
0.473 -0.347 0.032 3 
0.482 -0.317 0.199 3 
0.465 0.269 0.184 3 
0.468 -0.225 0.052 3 
0.465 0.263 0.184 3 
0.464 0.253 0.183 3 
0.465 -0.065 0.122 3 
0.465 0.251 0.183 3 
0.465 0.242 0.183 3 
0.465 0.233 0.183 3 
0.464 -0.135 0.012 3 
0.466 0.224 0.183 3 
0.463 0.083 0.073 3 
0.469 0.072 0.186 3 
0.467 0.202 0.188 3 
0.467 0.193 0.188 3 
0.467 0.184 0.188 3 
0.467 0.173 0.188 3 
0.466 0.163 0.187 3 
0.467 0.153 0.187 3 
0.462 0.282 0.093 3 
0.468 0.144 0.187 3 
0.469 0.133 0.187 3 
0.462 0.064 0.113 3 
0.47 0.122 0.187 3 
0.466 0.213 0.188 3 
0.469 0.114 0.187 3 
0.466 0.282 0.174 3 
0.468 0.102 0.186 3 
0.464 0.076 0.157 3 
0.469 0.094 0.186 3 
0.47 0.083 0.187 3 
0.468 0.063 0.186 3 
0.469 0.053 0.186 3 
0.47 0.042 0.186 3 
0.47 0.034 0.186 3 
0.471 0.023 0.187 3 
0.469 0.313 0.194 3 
0.472 0.356 0.198 3 
0.471 0.351 0.197 3 
0.464 0.153 0.169 3 
0.462 0.142 0.084 3 
0.469 0.342 0.196 3 
0.47 0.332 0.196 3 
0.462 0.024 0.102 3 
0.464 -0.025 0.063 3 
0.47 0.32 0.195 3 
0.467 -0.156 0.104 3 
0.469 0.316 0.194 3 
0.47 0.014 0.186 3 
0.468 0.302 0.193 3 
0.462 0.182 0.114 3 
0.469 0.293 0.193 3 
0.468 0.282 0.192 3 
0.466 0.271 0.19 3 
0.466 0.264 0.19 3 
0.465 0.251 0.189 3 
0.466 0.243 0.189 3 
0.467 0.234 0.189 3 
0.466 0.222 0.189 3 
0.465 -0.036 0.143 3 
0.461 0.262 0.062 3 
0.475 -0.185 0.191 3 
0.474 -0.188 0.191 3 
0.474 -0.197 0.191 3 
0.475 -0.206 0.192 3 
0.471 -0.125 0.174 3 
0.474 -0.215 0.192 3 
0.475 -0.218 0.192 3 
0.474 -0.227 0.192 3 
0.475 -0.234 0.193 3 
0.475 -0.237 0.193 3 
0.475 -0.246 0.193 3 
0.474 -0.176 0.19 3 
0.477 -0.256 0.194 3 
0.466 -0.076 0.074 3 
0.478 -0.263 0.195 3 
0.479 -0.267 0.196 3 
0.479 -0.277 0.196 3 
0.46 0.322 0.054 3 
0.479 -0.287 0.196 3 
0.464 -0.076 0.023 3 
0.48 -0.295 0.197 3 
0.48 -0.305 0.198 3 
0.459 0.314 0.012 3 
0.472 -0.095 0.188 3 
0.471 0.003 0.187 3 
0.471 -0.007 0.187 3 
0.471 -0.015 0.187 3 
0.471 -0.026 0.187 3 
0.471 -0.037 0.187 3 
0.471 -0.045 0.187 3 
0.472 -0.056 0.187 3 
0.472 -0.067 0.187 3 
0.465 0.212 0.174 3 
0.472 -0.076 0.187 3 
0.472 -0.087 0.188 3 
0.464 0.341 0.185 3 
0.473 -0.107 0.188 3 
0.473 -0.115 0.189 3 
0.473 -0.126 0.189 3 
0.474 -0.135 0.189 3 
0.475 -0.147 0.19 3 
0.475 -0.156 0.19 3 
0.466 0.336 0.182 3 
0.474 -0.164 0.19 3 
0.474 -0.167 0.19 3 
0.475 -0.171 0.191 3 
0.466 -0.066 0.074 3 
0.464 0.133 0.166 3 
0.481 -0.336 0.182 3 
0.482 -0.348 0.183 3 
0.482 -0.355 0.183 3 
0.474 -0.361 0.181 3 
0.462 0.342 0.172 3 
0.464 0.333 0.172 3 
0.465 0.331 0.173 3 
0.465 0.324 0.172 3 
0.464 0.32 0.172 3 
0.464 0.136 0.166 3 
0.459 0.324 0.023 3 
0.474 -0.259 0.176 3 
0.474 -0.237 0.172 3 
0.462 0.043 0.034 3 
0.475 -0.244 0.172 3 
0.462 0.014 0.124 3 
0.474 -0.247 0.172 3 
0.475 -0.251 0.173 3 
0.468 -0.205 0.083 3 
0.475 -0.257 0.173 3 
0.476 -0.267 0.174 3 
0.462 0.104 0.084 3 
0.476 -0.277 0.174 3 
0.47 -0.236 0.122 3 
0.465 0.311 0.174 3 
0.464 0.303 0.174 3 
0.465 0.301 0.174 3 
0.465 0.294 0.174 3 
0.465 0.272 0.173 3 
0.478 -0.308 0.173 3 
0.461 0.339 0.143 3 
0.464 0.265 0.172 3 
0.464 0.262 0.172 3 
0.461 0.299 0.034 3 
0.464 0.214 0.171 3 
0.476 -0.286 0.174 3 
0.464 0.182 0.17 3 
0.464 0.173 0.17 3 
0.47 -0.285 0.052 3 
0.463 0.164 0.169 3 
0.464 0.106 0.168 3 
0.47 -0.176 0.172 3 
0.471 -0.185 0.172 3 
0.472 -0.198 0.173 3 
0.473 -0.216 0.174 3 
0.474 -0.319 0.108 3 
0.472 -0.225 0.174 3 
0.467 -0.025 0.163 3 
0.464 0.033 0.162 3 
0.466 -0.136 0.104 3 
0.468 -0.235 0.022 3 
0.465 0.03 0.162 3 
0.475 -0.329 0.084 3 
0.465 0.022 0.162 3 
0.465 0.014 0.162 3 
0.465 0.003 0.162 3 
0.472 -0.355 0.123 3 
0.466 -0.006 0.163 3 
0.466 -0.015 0.163 3 
0.465 0.044 0.162 3 
0.467 -0.036 0.163 3 
0.468 -0.047 0.163 3 
0.467 -0.055 0.163 3 
0.468 -0.066 0.164 3 
0.462 0.292 0.113 3 
0.468 -0.077 0.164 3 
0.469 -0.086 0.164 3 
0.468 -0.096 0.164 3 
0.468 -0.105 0.164 3 
0.461 0.284 0.024 3 
0.47 -0.245 0.123 3 
0.465 0.151 0.164 3 
0.464 0.283 0.167 3 
0.461 -0.025 0.013 3 
0.464 0.202 0.165 3 
0.461 0.283 0.043 3 
0.464 0.196 0.164 3 
0.465 -0.047 0.002 3 
0.463 0.193 0.164 3 
0.463 0.184 0.164 3 
0.463 0.173 0.164 3 
0.464 0.164 0.163 3 
0.464 0.153 0.163 3 
0.467 -0.176 0.033 3 
0.465 0.142 0.163 3 
0.464 0.139 0.163 3 
0.464 0.133 0.163 3 
0.464 0.122 0.163 3 
0.464 0.114 0.163 3 
0.462 0.321 0.114 3 
0.464 0.103 0.163 3 
0.465 0.093 0.163 3 
0.465 0.084 0.163 3 
0.466 0.074 0.163 3 
0.465 0.063 0.163 3 
0.465 0.054 0.163 3 
0.465 0.142 0.174 3 
0.465 0.131 0.174 3 
0.466 0.112 0.174 3 
0.465 0.104 0.174 3 
0.467 0.071 0.174 3 
0.466 0.063 0.174 3 
0.463 0.204 0.153 3 
0.466 0.052 0.174 3 
0.466 0.044 0.174 3 
0.46 0.312 0.093 3 
0.467 0.033 0.174 3 
0.464 0.232 0.177 3 
0.467 0.022 0.174 3 
0.466 0.014 0.174 3 
0.467 0.003 0.174 3 
0.468 -0.053 0.174 3 
0.475 -0.257 0.182 3 
0.476 -0.268 0.182 3 
0.477 -0.275 0.183 3 
0.474 -0.327 0.049 3 
0.478 -0.285 0.184 3 
0.462 0.342 0.178 3 
0.465 -0.004 0.154 3 
0.474 -0.236 0.184 3 
0.467 -0.096 0.123 3 
0.467 0.317 0.184 3 
0.467 0.313 0.184 3 
0.461 0.294 0.093 3 
0.467 0.303 0.184 3 
0.467 0.294 0.183 3 
0.474 -0.187 0.182 3 
0.473 -0.196 0.182 3 
0.473 -0.205 0.182 3 
0.473 -0.217 0.183 3 
0.472 -0.225 0.183 3 
0.464 0.259 0.175 3 
0.475 -0.239 0.184 3 
0.475 -0.248 0.184 3 
0.483 -0.335 0.192 3 
0.483 -0.346 0.192 3 
0.462 0.113 0.113 3 
0.463 0.093 0.052 3 
0.476 0.356 0.187 3 
0.478 0.354 0.188 3 
0.464 -0.087 0.05 3 
0.466 0.333 0.182 3 
0.464 0.244 0.177 3 
0.463 0.324 0.154 3 
0.459 0.103 0.013 3 
0.468 -0.055 0.172 3 
0.469 -0.066 0.172 3 
0.458 0.213 0.014 3 
0.469 -0.075 0.172 3 
0.469 -0.086 0.172 3 
0.469 -0.097 0.173 3 
0.469 -0.105 0.173 3 
0.461 0.242 0.104 3 
0.47 -0.117 0.173 3 
0.47 -0.136 0.174 3 
0.468 -0.026 0.172 3 
0.47 -0.145 0.174 3 
0.47 -0.159 0.174 3 
0.474 -0.25 0.178 3 
0.476 -0.336 0.064 3 
0.479 -0.296 0.182 3 
0.479 -0.306 0.182 3 
0.463 0.053 0.002 3 
0.48 -0.317 0.183 3 
0.469 -0.185 0.094 3 
0.481 -0.325 0.184 3 
0.464 0.313 0.174 3 
0.461 0.274 0.032 3 
0.47 -0.285 0.064 3 
0.464 0.25 0.174 3 
0.464 0.244 0.174 3 
0.464 0.232 0.174 3 
0.474 -0.317 0.052 3 
0.463 0.222 0.173 3 
0.465 0.215 0.174 3 
0.464 -0.028 0.132 3 
0.466 0.203 0.174 3 
0.462 0.253 0.143 3 
0.465 0.194 0.173 3 
0.479 -0.316 0.174 3 
0.464 0.188 0.173 3 
0.465 0.183 0.173 3 
0.465 0.174 0.173 3 
0.465 0.163 0.172 3 
0.466 0.123 0.172 3 
0.467 -0.099 0.144 3 
0.466 0.093 0.171 3 
0.468 0.083 0.172 3 
0.468 -0.006 0.172 3 
0.468 -0.015 0.172 3 
0.461 0.223 0.043 3 
0.465 -0.084 0.047 3 
0.458 0.333 0.043 3 
0.46 0.322 0.043 3 
0.46 0.312 0.043 3 
0.46 0.302 0.043 3 
0.465 -0.065 0.044 3 
0.461 0.293 0.043 3 
0.461 0.274 0.043 3 
0.46 0.264 0.043 3 
0.46 0.223 0.022 3 
0.46 0.252 0.043 3 
0.475 -0.357 0.052 3 
0.461 0.212 0.044 3 
0.461 0.203 0.044 3 
0.461 0.192 0.044 3 
0.461 0.183 0.044 3 
0.461 0.172 0.044 3 
0.461 0.164 0.044 3 
0.461 0.153 0.044 3 
0.461 0.142 0.044 3 
0.461 0.134 0.044 3 
0.462 0.123 0.044 3 
0.461 0.112 0.044 3 
0.467 -0.176 0.052 3 
0.464 -0.065 0.052 3 
0.465 -0.071 0.052 3 
0.464 -0.076 0.052 3 
0.465 -0.087 0.052 3 
0.465 -0.095 0.052 3 
0.466 -0.106 0.052 3 
0.466 -0.117 0.052 3 
0.466 -0.125 0.052 3 
0.467 -0.136 0.052 3 
0.466 -0.155 0.052 3 
0.466 -0.167 0.052 3 
0.462 0.104 0.044 3 
0.468 -0.188 0.052 3 
0.468 -0.196 0.052 3 
0.468 -0.217 0.052 3 
0.469 -0.238 0.052 3 
0.469 -0.247 0.052 3 
0.469 -0.265 0.052 3 
0.469 -0.278 0.052 3 
0.472 -0.296 0.052 3 
0.472 -0.305 0.052 3 
0.475 -0.328 0.052 3 
0.475 -0.335 0.052 3 
0.469 -0.287 0.013 3 
0.467 -0.136 0.044 3 
0.467 -0.145 0.044 3 
0.467 -0.156 0.044 3 
0.467 -0.176 0.044 3 
0.467 -0.187 0.044 3 
0.468 -0.196 0.044 3 
0.468 -0.205 0.044 3 
0.468 -0.225 0.044 3 
0.469 -0.235 0.044 3 
0.469 -0.247 0.044 3 
0.469 -0.256 0.044 3 
0.466 -0.125 0.044 3 
0.469 -0.265 0.044 3 
0.471 -0.285 0.044 3 
0.472 -0.296 0.044 3 
0.472 -0.309 0.044 3 
0.461 0.223 0.033 3 
0.473 -0.316 0.044 3 
0.473 -0.326 0.044 3 
0.475 -0.335 0.043 3 
0.474 -0.356 0.043 3 
0.464 -0.087 0.042 3 
0.475 -0.332 0.038 3 
0.463 -0.007 0.044 3 
0.463 0.093 0.044 3 
0.463 0.083 0.044 3 
0.462 0.072 0.044 3 
0.465 -0.063 0.044 3 
0.463 0.064 0.044 3 
0.463 0.053 0.044 3 
0.464 0.043 0.044 3 
0.463 0.032 0.044 3 
0.462 0.024 0.044 3 
0.463 0.014 0.044 3 
0.463 0.003 0.044 3 
0.465 -0.063 0.052 3 
0.463 -0.025 0.044 3 
0.464 -0.036 0.044 3 
0.464 -0.049 0.044 3 
0.464 -0.057 0.044 3 
0.464 -0.068 0.044 3 
0.464 -0.076 0.044 3 
0.465 -0.079 0.044 3 
0.465 -0.087 0.044 3 
0.466 -0.095 0.044 3 
0.466 -0.106 0.044 3 
0.466 -0.117 0.044 3 
0.464 -0.111 0.063 3 
0.464 -0.007 0.063 3 
0.464 -0.017 0.063 3 
0.465 -0.036 0.063 3 
0.464 -0.044 0.063 3 
0.465 -0.047 0.063 3 
0.465 -0.065 0.063 3 
0.46 0.163 0.033 3 
0.465 -0.076 0.063 3 
0.465 -0.087 0.063 3 
0.465 -0.095 0.063 3 
0.465 -0.106 0.063 3 
0.463 0.003 0.063 3 
0.465 -0.116 0.063 3 
0.477 -0.348 0.052 3 
0.466 -0.125 0.063 3 
0.467 -0.136 0.063 3 
0.467 -0.145 0.063 3 
0.467 -0.156 0.063 3 
0.467 -0.167 0.063 3 
0.468 -0.185 0.063 3 
0.468 -0.196 0.063 3 
0.468 -0.205 0.063 3 
0.469 -0.217 0.064 3 
0.461 0.104 0.063 3 
0.462 0.224 0.063 3 
0.462 0.193 0.063 3 
0.462 0.184 0.063 3 
0.464 -0.057 0.034 3 
0.461 0.172 0.063 3 
0.461 -0.036 0.013 3 
0.462 0.164 0.063 3 
0.462 0.142 0.063 3 
0.462 0.134 0.063 3 
0.462 0.123 0.063 3 
0.462 0.112 0.063 3 
0.468 -0.225 0.064 3 
0.462 0.093 0.063 3 
0.462 0.083 0.063 3 
0.464 0.072 0.063 3 
0.464 0.064 0.063 3 
0.464 0.054 0.063 3 
0.461 0.274 0.054 3 
0.463 0.043 0.063 3 
0.463 0.032 0.063 3 
0.476 -0.347 0.043 3 
0.462 0.024 0.063 3 
0.463 0.014 0.063 3 
0.463 0.083 0.052 3 
0.461 0.212 0.054 3 
0.462 0.204 0.054 3 
0.462 0.193 0.054 3 
0.475 -0.357 0.055 3 
0.461 0.153 0.052 3 
0.461 0.172 0.052 3 
0.461 0.164 0.052 3 
0.461 0.142 0.052 3 
0.462 0.134 0.052 3 
0.462 0.123 0.052 3 
0.462 0.112 0.052 3 
0.461 0.223 0.054 3 
0.463 0.072 0.052 3 
0.464 0.054 0.052 3 
0.463 0.032 0.052 3 
0.463 0.024 0.052 3 
0.463 0.014 0.052 3 
0.463 0.003 0.052 3 
0.464 -0.025 0.052 3 
0.464 -0.036 0.052 3 
0.465 -0.039 0.052 3 
0.465 -0.047 0.052 3 
0.464 -0.057 0.052 3 
0.464 -0.049 0.06 3 
0.469 -0.235 0.064 3 
0.47 -0.245 0.064 3 
0.469 -0.256 0.064 3 
0.469 -0.265 0.064 3 
0.469 -0.278 0.064 3 
0.473 -0.306 0.064 3 
0.474 -0.317 0.064 3 
0.475 -0.325 0.064 3 
0.477 -0.348 0.064 3 
0.466 -0.167 0.044 3 
0.465 -0.028 0.06 3 
0.459 0.334 0.034 3 
0.475 -0.322 0.061 3 
0.464 -0.068 0.058 3 
0.464 -0.076 0.058 3 
0.474 -0.355 0.058 3 
0.46 0.302 0.054 3 
0.46 0.293 0.054 3 
0.461 0.283 0.054 3 
0.461 0.262 0.054 3 
0.461 0.253 0.054 3 
0.46 0.243 0.054 3 
0.461 0.232 0.054 3 
0.459 0.182 0.014 3 
0.474 -0.345 0.014 3 
0.459 0.323 0.012 3 
0.459 0.304 0.012 3 
0.46 0.292 0.012 3 
0.46 0.283 0.013 3 
0.459 0.263 0.013 3 
0.459 0.254 0.013 3 
0.458 0.233 0.014 3 
0.458 0.224 0.014 3 
0.458 0.204 0.014 3 
0.459 0.194 0.014 3 
0.476 -0.341 0.014 3 
0.459 0.174 0.014 3 
0.464 -0.183 0.015 3 
0.464 -0.149 0.01 3 
0.466 -0.215 0.014 3 
0.467 -0.225 0.014 3 
0.468 -0.235 0.014 3 
0.467 -0.246 0.014 3 
0.468 -0.255 0.013 3 
0.469 -0.265 0.013 3 
0.469 -0.277 0.013 3 
0.471 -0.305 0.012 3 
0.465 -0.136 0.023 3 
0.462 -0.007 0.023 3 
0.463 -0.025 0.023 3 
0.462 -0.036 0.023 3 
0.463 -0.046 0.023 3 
0.463 -0.057 0.023 3 
0.463 -0.065 0.023 3 
0.464 -0.086 0.023 3 
0.464 -0.097 0.023 3 
0.465 -0.106 0.023 3 
0.465 -0.117 0.023 3 
0.465 -0.125 0.023 3 
0.471 -0.315 0.012 3 
0.466 -0.147 0.023 3 
0.467 -0.156 0.023 3 
0.466 -0.175 0.023 3 
0.466 -0.187 0.023 3 
0.466 -0.195 0.022 3 
0.467 -0.207 0.022 3 
0.467 -0.216 0.022 3 
0.468 -0.226 0.022 3 
0.464 -0.138 0.02 3 
0.458 0.333 0.014 3 
0.474 -0.335 0.014 3 
0.473 -0.327 0.003 3 
0.464 -0.177 0.012 3 
0.465 -0.18 0.012 3 
0.464 -0.185 0.012 3 
0.464 -0.16 0.009 3 
0.465 -0.172 0.009 3 
0.465 -0.117 0.007 3 
0.466 -0.125 0.007 3 
0.465 -0.136 0.007 3 
0.469 -0.287 0.004 3 
0.471 -0.305 0.004 3 
0.472 -0.316 0.003 3 
0.464 -0.166 0.012 3 
0.473 -0.338 0.003 3 
0.471 -0.346 0.003 3 
0.465 -0.136 0.004 3 
0.466 -0.195 0.003 3 
0.467 -0.208 0.003 3 
0.467 -0.216 0.003 3 
0.462 0.072 0.002 3 
0.462 0.064 0.002 3 
0.463 0.043 0.002 3 
0.464 -0.015 0.002 3 
0.464 -0.036 0.002 3 
0.46 0.013 0.013 3 
0.458 0.151 0.012 3 
0.46 0.133 0.012 3 
0.46 0.114 0.012 3 
0.459 0.092 0.013 3 
0.459 0.084 0.013 3 
0.459 0.074 0.013 3 
0.46 0.063 0.013 3 
0.46 0.053 0.013 3 
0.46 0.042 0.013 3 
0.46 0.034 0.013 3 
0.46 0.024 0.013 3 
0.462 0.003 0.023 3 
0.46 0.003 0.013 3 
0.46 -0.046 0.013 3 
0.462 -0.065 0.013 3 
0.462 -0.075 0.013 3 
0.463 -0.086 0.013 3 
0.463 -0.097 0.013 3 
0.464 -0.105 0.012 3 
0.464 -0.116 0.012 3 
0.463 -0.127 0.013 3 
0.465 -0.147 0.012 3 
0.465 -0.155 0.012 3 
0.465 -0.095 0.034 3 
0.462 0.032 0.034 3 
0.462 0.024 0.034 3 
0.463 0.014 0.034 3 
0.463 0.003 0.034 3 
0.463 -0.007 0.034 3 
0.464 -0.015 0.034 3 
0.464 -0.025 0.034 3 
0.464 -0.036 0.034 3 
0.464 -0.065 0.034 3 
0.465 -0.076 0.034 3 
0.466 -0.087 0.034 3 
0.463 0.053 0.034 3 
0.466 -0.106 0.034 3 
0.465 -0.125 0.004 3 
0.467 -0.117 0.034 3 
0.46 0.122 0.012 3 
0.467 -0.125 0.034 3 
0.467 -0.137 0.034 3 
0.467 -0.145 0.034 3 
0.466 -0.155 0.034 3 
0.466 -0.186 0.033 3 
0.467 -0.196 0.033 3 
0.468 -0.205 0.033 3 
0.461 0.212 0.033 3 
0.46 0.322 0.034 3 
0.459 0.314 0.034 3 
0.475 -0.346 0.034 3 
0.473 -0.317 0.023 3 
0.461 0.337 0.031 3 
0.461 0.293 0.032 3 
0.461 0.283 0.032 3 
0.46 0.264 0.032 3 
0.461 0.253 0.032 3 
0.46 0.243 0.032 3 
0.46 0.234 0.033 3 
0.468 -0.217 0.033 3 
0.461 0.192 0.033 3 
0.461 0.172 0.033 3 
0.461 0.142 0.033 3 
0.462 0.134 0.033 3 
0.462 0.123 0.033 3 
0.463 0.112 0.033 3 
0.463 0.104 0.033 3 
0.462 0.093 0.034 3 
0.461 0.082 0.034 3 
0.462 0.074 0.034 3 
0.462 0.064 0.034 3 
0.46 0.144 0.023 3 
0.472 -0.296 0.024 3 
0.473 -0.307 0.023 3 
0.473 -0.327 0.023 3 
0.474 -0.335 0.023 3 
0.474 -0.345 0.023 3 
0.46 0.203 0.022 3 
0.46 0.183 0.022 3 
0.46 0.172 0.022 3 
0.46 0.163 0.022 3 
0.462 0.014 0.023 3 
0.46 0.152 0.023 3 
0.471 -0.285 0.024 3 
0.46 0.133 0.023 3 
0.462 0.123 0.023 3 
0.462 0.112 0.023 3 
0.462 0.104 0.023 3 
0.461 0.093 0.023 3 
0.461 0.082 0.023 3 
0.461 0.074 0.023 3 
0.461 0.053 0.023 3 
0.461 0.042 0.023 3 
0.461 0.032 0.023 3 
0.462 0.024 0.023 3 
0.459 0.331 0.023 3 
0.469 -0.235 0.033 3 
0.469 -0.256 0.033 3 
0.469 -0.266 0.033 3 
0.471 -0.276 0.033 3 
0.471 -0.285 0.032 3 
0.471 -0.295 0.032 3 
0.472 -0.315 0.032 3 
0.474 -0.328 0.032 3 
0.475 -0.336 0.032 3 
0.464 -0.076 0.031 3 
0.474 -0.335 0.029 3 
0.46 0.252 0.062 3 
0.46 0.314 0.023 3 
0.46 0.302 0.023 3 
0.461 0.293 0.023 3 
0.46 0.273 0.024 3 
0.46 0.264 0.024 3 
0.46 0.252 0.024 3 
0.46 0.243 0.024 3 
0.46 0.234 0.024 3 
0.469 -0.256 0.024 3 
0.47 -0.266 0.024 3 
0.47 -0.275 0.024 3 
0.466 -0.117 0.104 3 
0.464 -0.017 0.103 3 
0.464 -0.025 0.103 3 
0.464 -0.036 0.103 3 
0.464 -0.046 0.103 3 
0.465 -0.049 0.103 3 
0.465 -0.055 0.103 3 
0.465 -0.065 0.103 3 
0.466 -0.076 0.103 3 
0.465 -0.087 0.103 3 
0.461 0.232 0.043 3 
0.465 -0.095 0.103 3 
0.464 -0.006 0.103 3 
0.466 -0.125 0.104 3 
0.466 -0.145 0.104 3 
0.468 -0.165 0.104 3 
0.468 -0.176 0.104 3 
0.461 0.337 0.102 3 
0.46 0.332 0.102 3 
0.461 0.32 0.102 3 
0.462 0.311 0.102 3 
0.464 -0.065 0.1 3 
0.469 -0.185 0.102 3 
0.469 -0.197 0.102 3 
0.463 0.113 0.103 3 
0.462 0.204 0.103 3 
0.461 0.192 0.103 3 
0.475 -0.332 0.073 3 
0.462 0.184 0.103 3 
0.462 0.173 0.103 3 
0.461 0.164 0.103 3 
0.461 0.153 0.103 3 
0.462 0.143 0.103 3 
0.47 -0.298 0.004 3 
0.462 0.134 0.103 3 
0.463 0.124 0.103 3 
0.469 -0.206 0.102 3 
0.462 0.104 0.103 3 
0.462 0.083 0.103 3 
0.462 0.072 0.103 3 
0.462 0.064 0.103 3 
0.46 0.336 0.023 3 
0.462 0.054 0.103 3 
0.462 0.043 0.103 3 
0.468 -0.205 0.052 3 
0.463 0.032 0.103 3 
0.463 0.014 0.103 3 
0.463 0.003 0.103 3 
0.462 0.143 0.092 3 
0.462 0.273 0.093 3 
0.461 0.263 0.093 3 
0.46 0.253 0.093 3 
0.462 0.233 0.093 3 
0.461 0.224 0.092 3 
0.461 0.192 0.092 3 
0.462 0.184 0.092 3 
0.462 0.173 0.092 3 
0.463 0.064 0.052 3 
0.462 0.162 0.092 3 
0.461 0.153 0.092 3 
0.462 0.213 0.092 3 
0.462 0.134 0.092 3 
0.462 0.123 0.092 3 
0.469 -0.256 0.083 3 
0.463 0.113 0.092 3 
0.462 0.104 0.092 3 
0.462 0.094 0.092 3 
0.462 0.083 0.092 3 
0.462 0.072 0.092 3 
0.462 0.064 0.092 3 
0.462 0.054 0.092 3 
0.463 0.043 0.092 3 
0.475 -0.313 0.102 3 
0.47 -0.218 0.102 3 
0.47 -0.227 0.103 3 
0.471 -0.237 0.103 3 
0.47 -0.245 0.103 3 
0.47 -0.257 0.103 3 
0.47 -0.266 0.103 3 
0.471 -0.277 0.103 3 
0.472 -0.287 0.104 3 
0.473 -0.295 0.104 3 
0.474 -0.305 0.104 3 
0.464 -0.062 0.098 3 
0.462 0.213 0.103 3 
0.476 -0.327 0.102 3 
0.477 -0.335 0.102 3 
0.477 -0.346 0.103 3 
0.475 -0.357 0.102 3 
0.473 -0.33 0.014 3 
0.474 -0.356 0.099 3 
0.463 0.339 0.094 3 
0.461 0.333 0.094 3 
0.461 0.323 0.094 3 
0.461 -0.017 0.013 3 
0.461 0.304 0.093 3 
0.463 -0.006 0.113 3 
0.462 0.043 0.113 3 
0.467 -0.176 0.063 3 
0.46 0.214 0.022 3 
0.462 0.032 0.113 3 
0.462 0.024 0.113 3 
0.471 -0.296 0.064 3 
0.461 -0.057 0.013 3 
0.463 0.014 0.113 3 
0.461 0.262 0.073 3 
0.462 0.003 0.113 3 
0.459 0.163 0.012 3 
0.462 0.054 0.113 3 
0.463 -0.025 0.113 3 
0.464 -0.036 0.114 3 
0.465 -0.049 0.114 3 
0.465 -0.055 0.114 3 
0.466 -0.066 0.114 3 
0.466 -0.076 0.114 3 
0.466 -0.087 0.114 3 
0.465 -0.073 0.034 3 
0.466 -0.095 0.114 3 
0.466 -0.114 0.114 3 
0.462 0.338 0.114 3 
0.462 0.213 0.114 3 
0.465 -0.055 0.002 3 
0.47 -0.258 0.123 3 
0.472 -0.278 0.124 3 
0.473 -0.285 0.124 3 
0.474 -0.296 0.124 3 
0.475 -0.307 0.122 3 
0.476 -0.325 0.123 3 
0.476 -0.335 0.123 3 
0.476 -0.345 0.123 3 
0.474 -0.35 0.123 3 
0.462 0.219 0.114 3 
0.461 0.334 0.114 3 
0.462 0.193 0.114 3 
0.462 0.173 0.114 3 
0.461 0.164 0.114 3 
0.462 0.154 0.114 3 
0.462 0.143 0.114 3 
0.463 0.132 0.114 3 
0.463 0.124 0.114 3 
0.462 0.102 0.113 3 
0.462 0.094 0.113 3 
0.462 0.083 0.113 3 
0.462 0.072 0.113 3 
0.465 -0.103 0.02 3 
0.473 -0.288 0.113 3 
0.475 -0.303 0.113 3 
0.475 -0.306 0.113 3 
0.475 -0.316 0.113 3 
0.476 -0.328 0.114 3 
0.469 -0.247 0.083 3 
0.476 -0.345 0.114 3 
0.469 -0.247 0.024 3 
0.474 -0.35 0.114 3 
0.472 -0.355 0.114 3 
0.474 -0.312 0.11 3 
0.471 -0.277 0.112 3 
0.475 -0.355 0.111 3 
0.461 0.297 0.104 3 
0.461 0.294 0.104 3 
0.462 0.283 0.104 3 
0.46 0.332 0.082 3 
0.461 0.263 0.104 3 
0.461 0.254 0.104 3 
0.461 0.323 0.082 3 
0.462 0.233 0.104 3 
0.459 0.273 0.013 3 
0.462 0.222 0.103 3 
0.466 -0.145 0.112 3 
0.462 0.312 0.113 3 
0.462 0.283 0.113 3 
0.462 0.273 0.113 3 
0.462 0.264 0.112 3 
0.461 0.254 0.112 3 
0.461 0.242 0.112 3 
0.461 0.233 0.112 3 
0.466 -0.117 0.112 3 
0.466 -0.125 0.112 3 
0.466 -0.137 0.112 3 
0.469 -0.186 0.113 3 
0.463 0.032 0.092 3 
0.467 -0.157 0.112 3 
0.468 -0.165 0.113 3 
0.469 -0.177 0.113 3 
0.469 -0.197 0.113 3 
0.47 -0.215 0.114 3 
0.47 -0.227 0.114 3 
0.47 -0.236 0.114 3 
0.47 -0.245 0.114 3 
0.464 -0.054 0.052 3 
0.471 -0.255 0.114 3 
0.471 -0.267 0.112 3 
0.461 0.184 0.073 3 
0.46 0.302 0.074 3 
0.461 0.294 0.074 3 
0.461 0.284 0.074 3 
0.461 0.272 0.074 3 
0.461 0.253 0.073 3 
0.461 0.244 0.073 3 
0.461 0.232 0.073 3 
0.462 0.224 0.073 3 
0.461 0.212 0.073 3 
0.461 0.203 0.073 3 
0.461 0.192 0.073 3 
0.46 0.312 0.074 3 
0.462 0.173 0.073 3 
0.461 0.161 0.073 3 
0.462 0.153 0.073 3 
0.462 0.142 0.073 3 
0.462 0.123 0.073 3 
0.462 0.112 0.073 3 
0.462 0.104 0.073 3 
0.462 0.094 0.073 3 
0.463 0.072 0.073 3 
0.463 0.053 0.073 3 
0.463 0.043 0.073 3 
0.458 0.143 0.012 3 
0.467 -0.145 0.082 3 
0.468 -0.156 0.082 3 
0.464 -0.015 0.044 3 
0.467 -0.167 0.082 3 
0.467 -0.176 0.082 3 
0.468 -0.185 0.083 3 
0.468 -0.196 0.083 3 
0.468 -0.217 0.083 3 
0.469 -0.226 0.083 3 
0.469 -0.235 0.083 3 
0.469 -0.265 0.083 3 
0.463 0.032 0.073 3 
0.47 -0.285 0.084 3 
0.472 -0.297 0.084 3 
0.473 -0.307 0.084 3 
0.474 -0.315 0.084 3 
0.475 -0.335 0.084 3 
0.476 -0.347 0.082 3 
0.474 -0.348 0.082 3 
0.474 -0.355 0.079 3 
0.461 0.336 0.074 3 
0.459 0.331 0.074 3 
0.461 0.323 0.074 3 
0.47 -0.285 0.072 3 
0.465 -0.044 0.071 3 
0.464 -0.114 0.071 3 
0.464 -0.119 0.071 3 
0.468 -0.217 0.072 3 
0.469 -0.226 0.072 3 
0.469 -0.235 0.072 3 
0.47 -0.245 0.072 3 
0.464 -0.105 0.018 3 
0.469 -0.256 0.072 3 
0.469 -0.265 0.072 3 
0.47 -0.276 0.072 3 
0.468 -0.205 0.074 3 
0.471 -0.296 0.072 3 
0.474 -0.317 0.073 3 
0.474 -0.327 0.073 3 
0.476 -0.336 0.073 3 
0.476 -0.347 0.073 3 
0.474 -0.348 0.073 3 
0.46 0.322 0.062 3 
0.46 0.312 0.062 3 
0.46 0.302 0.062 3 
0.46 0.293 0.062 3 
0.46 0.283 0.062 3 
0.466 -0.095 0.074 3 
0.463 0.024 0.073 3 
0.463 0.014 0.073 3 
0.463 0.003 0.074 3 
0.472 -0.306 0.032 3 
0.464 -0.007 0.074 3 
0.464 -0.025 0.074 3 
0.464 -0.036 0.074 3 
0.464 -0.046 0.074 3 
0.465 -0.049 0.074 3 
0.465 -0.055 0.074 3 
0.466 -0.087 0.074 3 
0.467 -0.136 0.082 3 
0.466 -0.106 0.074 3 
0.465 -0.117 0.074 3 
0.466 -0.125 0.074 3 
0.466 -0.136 0.074 3 
0.467 -0.145 0.074 3 
0.468 -0.156 0.074 3 
0.467 -0.167 0.074 3 
0.467 -0.176 0.074 3 
0.468 -0.185 0.074 3 
0.464 -0.174 0.015 3 
0.468 -0.196 0.074 3 
0.477 -0.338 0.093 3 
0.469 -0.226 0.094 3 
0.47 -0.236 0.094 3 
0.469 -0.256 0.094 3 
0.46 0.312 0.054 3 
0.469 -0.265 0.092 3 
0.47 -0.276 0.092 3 
0.473 -0.298 0.093 3 
0.474 -0.308 0.093 3 
0.475 -0.313 0.093 3 
0.475 -0.316 0.093 3 
0.475 -0.326 0.093 3 
0.469 -0.217 0.094 3 
0.477 -0.345 0.094 3 
0.474 -0.352 0.093 3 
0.474 -0.356 0.093 3 
0.464 -0.076 0.087 3 
0.464 -0.046 0.034 3 
0.474 -0.315 0.09 3 
0.46 0.256 0.084 3 
0.461 0.253 0.084 3 
0.461 0.244 0.084 3 
0.461 0.232 0.084 3 
0.461 0.224 0.084 3 
0.466 -0.087 0.093 3 
0.461 0.104 0.052 3 
0.463 0.024 0.092 3 
0.463 0.014 0.092 3 
0.462 0.003 0.092 3 
0.464 -0.017 0.092 3 
0.464 -0.025 0.092 3 
0.464 -0.046 0.092 3 
0.464 -0.057 0.092 3 
0.464 -0.065 0.092 3 
0.465 -0.071 0.093 3 
0.465 -0.076 0.093 3 
0.461 0.212 0.084 3 
0.466 -0.095 0.093 3 
0.465 -0.106 0.093 3 
0.466 -0.117 0.093 3 
0.466 -0.125 0.093 3 
0.46 0.194 0.022 3 
0.467 -0.156 0.093 3 
0.468 -0.165 0.093 3 
0.46 0.133 0.004 3 
0.468 -0.176 0.093 3 
0.469 -0.197 0.094 3 
0.469 -0.206 0.094 3 
0.474 -0.325 0.084 3 
0.464 0.032 0.002 3 
0.463 -0.036 0.084 3 
0.464 -0.046 0.084 3 
0.462 0.213 0.063 3 
0.464 -0.057 0.084 3 
0.464 -0.065 0.084 3 
0.474 -0.325 0.087 3 
0.462 0.338 0.082 3 
0.46 0.312 0.082 3 
0.461 0.294 0.082 3 
0.462 0.282 0.082 3 
0.464 -0.025 0.084 3 
0.461 0.272 0.082 3 
0.465 -0.063 0.082 3 
0.465 -0.065 0.082 3 
0.465 -0.076 0.082 3 
0.465 -0.087 0.082 3 
0.465 -0.095 0.082 3 
0.466 -0.106 0.082 3 
0.462 -0.017 0.023 3 
0.465 -0.117 0.082 3 
0.465 -0.125 0.082 3 
0.462 0.153 0.063 3 
0.462 0.072 0.084 3 
0.462 0.193 0.084 3 
0.462 0.184 0.084 3 
0.462 0.173 0.084 3 
0.459 0.334 0.054 3 
0.462 0.162 0.084 3 
0.462 0.153 0.084 3 
0.462 0.134 0.084 3 
0.462 0.123 0.084 3 
0.462 0.112 0.084 3 
0.463 0.094 0.084 3 
0.463 0.083 0.084 3 
0.47 -0.227 0.122 3 
0.462 0.064 0.084 3 
0.463 0.053 0.084 3 
0.463 0.043 0.084 3 
0.463 0.032 0.084 3 
0.463 -0.025 0.002 3 
0.463 0.024 0.084 3 
0.463 0.014 0.084 3 
0.463 0.003 0.084 3 
0.463 -0.006 0.084 3 
0.463 -0.017 0.084 3 
