# .PCD v0.7 - Point Cloud Data file
FIELDS x y z intensity
SIZE 4 4 4 4
TYPE F F F F
COUNT 1 1 1 1
WIDTH 1983
HEIGHT 1
VIEWPOINT 0 0 0 1 0 0 0
POINTS 1983
DATA ascii
0.338 -0.132 0.005 0 
0.265 -0.055 0.093 0 
0.234 -0.064 0.088 0 
0.233 -0.065 0.088 0 
0.244 -0.062 0.092 0 
0.25 -0.06 0.094 0 
0.254 -0.059 0.096 0 
0.258 -0.058 0.098 0 
0.256 -0.058 0.094 0 
0.267 -0.061 0.098 0 
0.296 -0.053 0.085 0 
0.298 -0.055 0.085 0 
0.276 -0.057 0.088 0 
0.281 -0.053 0.085 0 
0.254 -0.054 0.086 0 
0.268 -0.054 0.091 0 
0.262 -0.054 0.091 0 
0.303 -0.073 0.098 0 
0.361 0.012 0.003 0 
0.327 -0.139 -0.005 1 
0.324 -0.133 -0.003 1 
0.324 -0.066 -0.001 1 
0.324 -0.039 -0.001 1 
0.353 0.117 -0.014 1 
0.354 0.123 -0.015 1 
0.354 0.134 -0.015 1 
0.353 0.163 -0.016 1 
0.354 0.173 -0.017 1 
0.352 0.183 -0.017 1 
0.352 0.193 -0.017 1 
0.344 0.206 -0.015 1 
0.331 -0.146 -0.005 1 
0.322 -0.095 0 1 
0.324 -0.094 -0.001 1 
0.337 -0.005 -0.005 1 
0.354 0.015 -0.011 1 
0.362 0.044 -0.014 1 
0.361 0.074 -0.014 1 
0.361 0.083 -0.014 1 
0.361 0.092 -0.014 1 
0.361 0.094 -0.015 1 
0.361 0.098 -0.015 1 
0.362 0.124 -0.016 1 
0.362 0.153 -0.017 1 
0.348 0.21 -0.015 1 
0.342 -0.172 -0.008 1 
0.336 -0.136 -0.004 1 
0.334 -0.125 -0.003 1 
0.333 -0.116 -0.003 1 
0.334 -0.035 -0.002 1 
0.333 -0.025 -0.002 1 
0.332 -0.016 -0.001 1 
0.334 -0.011 -0.002 1 
0.344 0.003 -0.006 1 
0.369 0.053 -0.015 1 
0.365 0.103 -0.014 1 
0.363 0.114 -0.014 1 
0.364 0.133 -0.015 1 
0.364 0.139 -0.015 1 
0.362 0.193 -0.017 1 
0.36 0.204 -0.017 1 
0.353 0.216 -0.015 1 
0.352 -0.19 -0.01 1 
0.342 -0.136 -0.005 1 
0.342 -0.134 -0.005 1 
0.332 -0.105 -0.001 1 
0.362 0.016 -0.01 1 
0.373 0.043 -0.014 1 
0.371 0.084 -0.014 1 
0.372 0.103 -0.015 1 
0.371 0.108 -0.015 1 
0.37 0.114 -0.014 1 
0.373 0.123 -0.016 1 
0.371 0.134 -0.015 1 
0.373 0.164 -0.017 1 
0.37 0.172 -0.017 1 
0.371 0.182 -0.017 1 
0.372 0.193 -0.018 1 
0.371 0.204 -0.018 1 
0.363 0.225 -0.017 1 
0.36 0.224 -0.016 1 
0.356 -0.186 -0.01 1 
0.355 -0.183 -0.009 1 
0.351 -0.175 -0.007 1 
0.346 -0.139 -0.005 1 
0.343 -0.036 -0.002 1 
0.34 -0.026 -0.001 1 
0.344 -0.004 -0.002 1 
0.381 0.094 -0.016 1 
0.382 0.104 -0.016 1 
0.376 0.113 -0.015 1 
0.374 0.144 -0.015 1 
0.373 0.212 -0.017 1 
0.373 0.224 -0.018 1 
0.344 -0.049 -0.001 1 
0.342 -0.015 0 1 
0.344 -0.009 -0.001 1 
0.353 0.005 -0.004 1 
0.38 0.033 -0.013 1 
0.384 0.041 -0.014 1 
0.386 0.048 -0.015 1 
0.383 0.063 -0.014 1 
0.384 0.073 -0.014 1 
0.384 0.075 -0.014 1 
0.384 0.077 -0.015 1 
0.383 0.123 -0.015 1 
0.384 0.134 -0.016 1 
0.38 0.144 -0.015 1 
0.378 0.149 -0.014 1 
0.38 0.154 -0.015 1 
0.384 0.164 -0.017 1 
0.38 0.183 -0.016 1 
0.384 0.204 -0.018 1 
0.375 0.238 -0.017 1 
0.334 -0.073 0.003 1 
0.344 -0.057 0 1 
0.39 0.073 -0.014 1 
0.392 0.084 -0.015 1 
0.392 0.094 -0.015 1 
0.389 0.133 -0.015 1 
0.38 0.246 -0.017 1 
0.357 -0.155 -0.003 1 
0.357 -0.151 -0.003 1 
0.342 -0.127 0.001 1 
0.334 -0.08 0.004 1 
0.38 0.222 -0.018 1 
0.344 -0.096 0 1 
0.365 0.012 -0.004 1 
0.394 0.043 -0.013 1 
0.394 0.058 -0.013 1 
0.391 0.123 -0.014 1 
0.394 0.136 -0.015 1 
0.392 0.154 -0.015 1 
0.393 0.163 -0.015 1 
0.392 0.184 -0.016 1 
0.394 0.211 -0.017 1 
0.394 0.223 -0.018 1 
0.392 0.244 -0.018 1 
0.387 0.254 -0.017 1 
0.348 -0.138 0.001 1 
0.312 -0.105 0.012 1 
0.314 -0.102 0.011 1 
0.353 -0.117 0 1 
0.353 -0.097 0 1 
0.343 -0.068 0.003 1 
0.372 0.015 -0.004 1 
0.403 0.064 -0.014 1 
0.402 0.072 -0.014 1 
0.404 0.082 -0.015 1 
0.403 0.086 -0.014 1 
0.405 0.091 -0.015 1 
0.404 0.104 -0.015 1 
0.403 0.114 -0.015 1 
0.402 0.122 -0.015 1 
0.401 0.124 -0.014 1 
0.401 0.126 -0.015 1 
0.4 0.132 -0.014 1 
0.352 0.204 -0.018 1 
0.401 0.144 -0.015 1 
0.398 0.151 -0.014 1 
0.399 0.154 -0.015 1 
0.399 0.173 -0.015 1 
0.398 0.184 -0.015 1 
0.401 0.223 -0.018 1 
0.397 0.234 -0.017 1 
0.381 -0.192 -0.007 1 
0.32 -0.115 0.011 1 
0.333 -0.106 0.007 1 
0.349 -0.114 0.003 1 
0.349 -0.006 0.003 1 
0.384 0.016 -0.006 1 
0.399 0.136 -0.014 1 
0.394 0.018 -0.009 1 
0.401 0.023 -0.011 1 
0.404 0.028 -0.012 1 
0.404 0.041 -0.012 1 
0.407 0.054 -0.013 1 
0.41 0.097 -0.014 1 
0.411 0.104 -0.015 1 
0.41 0.113 -0.015 1 
0.408 0.114 -0.014 1 
0.409 0.131 -0.015 1 
0.409 0.144 -0.015 1 
0.407 0.152 -0.015 1 
0.406 0.161 -0.015 1 
0.403 0.161 -0.014 1 
0.403 0.193 -0.015 1 
0.403 0.209 -0.015 1 
0.408 0.234 -0.018 1 
0.401 0.243 -0.016 1 
0.402 0.262 -0.017 1 
0.361 -0.116 0.001 1 
0.369 -0.115 0 1 
0.369 -0.111 0 1 
0.351 -0.066 0.004 1 
0.351 -0.062 0.004 1 
0.352 -0.051 0.004 1 
0.359 -0.025 0.002 1 
0.357 -0.021 0.003 1 
0.354 -0.002 0.004 1 
0.411 0.042 -0.012 1 
0.399 0.046 -0.008 1 
0.415 0.054 -0.013 1 
0.321 -0.105 -0.001 1 
0.414 0.056 -0.013 1 
0.416 0.063 -0.013 1 
0.414 0.074 -0.013 1 
0.414 0.119 -0.014 1 
0.414 0.133 -0.014 1 
0.414 0.143 -0.014 1 
0.413 0.154 -0.014 1 
0.41 0.164 -0.014 1 
0.411 0.184 -0.015 1 
0.407 0.193 -0.014 1 
0.41 0.213 -0.015 1 
0.41 0.244 -0.016 1 
0.408 0.253 -0.016 1 
0.411 0.264 -0.018 1 
0.41 0.271 -0.018 1 
0.353 0.113 -0.014 1 
0.353 -0.108 0.005 1 
0.359 -0.106 0.003 1 
0.357 -0.103 0.004 1 
0.355 -0.1 0.005 1 
0.354 0.094 -0.014 1 
0.347 -0.094 0.007 1 
0.363 0.034 -0.014 1 
0.356 -0.025 0.005 1 
0.354 -0.004 0.005 1 
0.357 0.003 0.004 1 
0.382 0.214 -0.018 1 
0.422 0.032 -0.013 1 
0.424 0.044 -0.013 1 
0.421 0.074 -0.013 1 
0.42 0.082 -0.012 1 
0.421 0.092 -0.013 1 
0.424 0.103 -0.014 1 
0.421 0.113 -0.013 1 
0.421 0.123 -0.013 1 
0.414 0.209 -0.014 1 
0.417 0.222 -0.015 1 
0.421 0.244 -0.017 1 
0.418 0.286 -0.018 1 
0.34 -0.095 0.01 1 
0.37 -0.047 0.003 1 
0.364 -0.042 0.004 1 
0.428 0.024 -0.012 1 
0.433 0.043 -0.013 1 
0.433 0.053 -0.013 1 
0.432 0.062 -0.013 1 
0.431 0.074 -0.013 1 
0.428 0.083 -0.012 1 
0.427 0.123 -0.013 1 
0.423 0.162 -0.012 1 
0.419 0.183 -0.012 1 
0.421 0.194 -0.013 1 
0.421 0.212 -0.013 1 
0.423 0.224 -0.014 1 
0.423 0.229 -0.014 1 
0.424 0.233 -0.015 1 
0.426 0.243 -0.016 1 
0.426 0.248 -0.016 1 
0.424 0.252 -0.015 1 
0.423 0.262 -0.016 1 
0.422 0.284 -0.016 1 
0.419 0.153 -0.013 1 
0.433 0.094 -0.011 1 
0.434 0.112 -0.012 1 
0.432 0.143 -0.012 1 
0.432 0.153 -0.012 1 
0.429 0.164 -0.012 1 
0.424 0.201 -0.011 1 
0.432 0.292 -0.016 1 
0.433 0.305 -0.017 1 
0.38 -0.049 0.004 1 
0.441 0.022 -0.01 1 
0.44 0.032 -0.01 1 
0.44 0.042 -0.01 1 
0.443 0.052 -0.011 1 
0.444 0.063 -0.011 1 
0.443 0.072 -0.011 1 
0.44 0.084 -0.011 1 
0.441 0.104 -0.011 1 
0.441 0.114 -0.011 1 
0.44 0.124 -0.011 1 
0.437 0.133 -0.01 1 
0.433 0.174 -0.011 1 
0.432 0.184 -0.01 1 
0.43 0.203 -0.01 1 
0.432 0.224 -0.012 1 
0.434 0.25 -0.013 1 
0.434 0.264 -0.013 1 
0.434 0.27 -0.013 1 
0.437 0.294 -0.015 1 
0.437 0.3 -0.015 1 
0.339 -0.084 0.003 1 
0.44 0.31 -0.016 1 
0.343 0.005 -0.007 1 
0.441 0.164 -0.01 1 
0.44 0.174 -0.01 1 
0.434 0.193 -0.009 1 
0.434 0.231 -0.01 1 
0.452 0.034 -0.008 1 
0.454 0.073 -0.009 1 
0.451 0.092 -0.008 1 
0.452 0.103 -0.009 1 
0.453 0.122 -0.009 1 
0.453 0.133 -0.009 1 
0.45 0.152 -0.009 1 
0.41 0.191 -0.015 1 
0.443 0.183 -0.008 1 
0.437 0.203 -0.007 1 
0.442 0.237 -0.009 1 
0.439 0.272 -0.009 1 
0.444 0.283 -0.011 1 
0.444 0.289 -0.011 1 
0.443 0.304 -0.011 1 
0.444 0.308 -0.012 1 
0.364 0.012 -0.007 1 
0.413 0.221 -0.016 1 
0.455 0.021 -0.006 1 
0.457 0.034 -0.006 1 
0.454 0.054 -0.006 1 
0.454 0.057 -0.006 1 
0.455 0.062 -0.006 1 
0.453 0.163 -0.007 1 
0.392 0.231 -0.018 1 
0.45 0.183 -0.007 1 
0.342 -0.115 0.003 1 
0.373 0.054 -0.014 1 
0.46 0.042 -0.005 1 
0.372 0.015 -0.01 1 
0.459 0.074 -0.005 1 
0.46 0.093 -0.005 1 
0.46 0.103 -0.005 1 
0.461 0.112 -0.005 1 
0.461 0.123 -0.005 1 
0.455 0.183 -0.005 1 
0.454 0.193 -0.005 1 
0.454 0.202 -0.006 1 
0.414 0.085 -0.013 1 
0.455 0.205 -0.006 1 
0.451 0.214 -0.005 1 
0.451 0.222 -0.005 1 
0.453 0.241 -0.006 1 
0.454 0.254 -0.007 1 
0.452 0.264 -0.007 1 
0.451 0.284 -0.007 1 
0.453 0.292 -0.008 1 
0.454 0.303 -0.008 1 
0.444 0.139 -0.01 1 
0.452 0.044 -0.008 1 
0.461 0.133 -0.003 1 
0.454 0.213 -0.003 1 
0.454 0.224 -0.003 1 
0.454 0.23 -0.003 1 
0.46 0.253 -0.005 1 
0.459 0.264 -0.005 1 
0.457 0.271 -0.005 1 
0.456 0.292 -0.005 1 
0.457 0.302 -0.006 1 
0.465 0.311 -0.005 1 
0.463 0.312 -0.005 1 
0.461 0.323 -0.005 1 
0.463 0.332 -0.005 1 
0.462 0.024 0.002 1 
0.465 0.113 0.001 1 
0.353 -0.146 0 1 
0.464 0.183 0 1 
0.464 0.296 -0.001 1 
0.455 0.172 -0.005 1 
0.373 0.034 -0.014 1 
0.433 -0.006 0.01 1 
0.427 0.012 0.011 1 
0.434 0.015 0.01 1 
0.444 0.018 0.008 1 
0.464 0.094 0.004 1 
0.461 0.101 0.004 1 
0.461 0.112 0.004 1 
0.464 0.118 0.004 1 
0.463 0.154 0.003 1 
0.463 0.157 0.003 1 
0.465 0.164 0.003 1 
0.466 0.173 0.003 1 
0.466 0.184 0.002 1 
0.465 0.189 0.002 1 
0.464 0.191 0.003 1 
0.464 0.203 0.002 1 
0.462 0.222 0.002 1 
0.463 0.234 0.002 1 
0.464 0.323 0 1 
0.461 0.326 0 1 
0.404 0.093 -0.015 1 
0.448 0.003 0.01 1 
0.465 0.172 0.005 1 
0.423 0.274 -0.016 1 
0.465 0.189 0.005 1 
0.464 0.247 0.004 1 
0.466 0.252 0.004 1 
0.465 0.272 0.004 1 
0.464 0.274 0.004 1 
0.465 0.291 0.003 1 
0.468 0.304 0.002 1 
0.468 0.313 0.002 1 
0.467 0.333 0.002 1 
0.453 0.011 0.012 1 
0.357 0.103 -0.013 1 
0.373 0.145 -0.014 1 
0.467 0.344 0.004 1 
0.354 0.044 -0.013 1 
0.465 0.195 0.002 1 
0.46 -0.007 0.013 1 
0.459 0.003 0.013 1 
0.459 0.013 0.013 1 
0.462 0.024 0.013 1 
0.414 0.199 -0.014 1 
0.373 0.094 -0.015 1 
0.462 0.003 0.015 1 
0.443 0.253 -0.01 1 
0.429 0.262 -0.015 1 
0.399 0.267 -0.017 1 
0.432 0.133 -0.012 1 
0.437 0.264 -0.009 1 
0.373 0.238 -0.017 1 
0.393 0.173 -0.016 1 
0.403 0.202 -0.015 1 
0.454 0.138 -0.007 1 
0.459 0.143 -0.005 1 
0.334 -0.063 0 1 
0.409 0.2 -0.015 1 
0.393 0.261 -0.017 1 
0.444 0.154 -0.01 1 
0.393 0.103 -0.016 1 
0.464 0.244 0.004 1 
0.373 0.065 -0.015 1 
0.432 0.283 -0.016 1 
0.424 -0.008 0.012 1 
0.419 0.023 -0.012 1 
0.448 0.312 -0.01 1 
0.326 -0.118 0.008 1 
0.456 0.283 -0.005 1 
0.392 0.033 -0.013 1 
0.354 0.047 -0.013 1 
0.444 0.214 -0.006 1 
0.41 0.024 -0.011 1 
0.391 0.155 -0.014 1 
0.444 0.234 -0.009 1 
0.354 0.008 -0.006 1 
0.411 0.275 -0.018 1 
0.348 0.003 -0.005 1 
0.368 -0.044 0.003 1 
0.398 0.162 -0.015 1 
0.464 0.038 0.004 1 
0.372 0.153 -0.016 1 
0.38 0.234 -0.019 1 
0.455 0.186 -0.005 1 
0.462 0.213 0.003 1 
0.466 0.321 0.002 1 
0.362 -0.05 0.003 1 
0.388 0.124 -0.015 1 
0.354 0.103 -0.014 1 
0.45 -0.006 0.009 1 
0.367 0.084 -0.015 1 
0.42 0.173 -0.012 1 
0.394 0.204 -0.017 1 
0.464 0.032 0.002 1 
0.43 0.272 -0.015 1 
0.406 0.173 -0.015 1 
0.466 0.264 0.004 1 
0.424 0.134 -0.012 1 
0.373 0.064 -0.015 1 
0.35 -0.092 0.003 1 
0.392 0.193 -0.016 1 
0.361 0.164 -0.017 1 
0.414 0.165 -0.013 1 
0.332 -0.096 0 1 
0.392 0.113 -0.016 1 
0.461 0.144 0.004 1 
0.464 0.174 0 1 
0.334 -0.005 -0.005 1 
0.444 0.093 -0.009 1 
0.452 0.114 -0.009 1 
0.364 0.172 -0.017 1 
0.46 0.082 -0.005 1 
0.433 0.302 -0.017 1 
0.424 0.143 -0.012 1 
0.405 0.084 -0.015 1 
0.448 0.272 -0.006 1 
0.411 -0.01 0.014 1 
0.464 0.256 0.004 1 
0.413 0.033 -0.012 1 
0.36 0.212 -0.017 1 
0.324 -0.143 -0.004 1 
0.394 0.051 -0.013 1 
0.433 0.104 -0.011 1 
0.365 0.012 -0.006 1 
0.368 0.233 -0.017 1 
0.393 0.133 -0.014 1 
0.43 0.033 -0.012 1 
0.359 0.182 -0.017 1 
0.352 -0.017 0.004 1 
0.453 0.083 -0.009 1 
0.334 -0.145 -0.004 1 
0.334 -0.088 -0.001 1 
0.384 0.053 -0.014 1 
0.377 -0.05 0.006 1 
0.362 0.053 -0.014 1 
0.336 -0.084 0.01 1 
0.361 0.063 -0.014 1 
0.403 0.079 -0.014 1 
0.439 0.194 -0.007 1 
0.354 -0.026 -0.001 1 
0.454 0.023 -0.006 1 
0.465 0.266 0.007 1 
0.431 0.003 0.01 1 
0.401 0.251 -0.017 1 
0.339 -0.107 -0.001 1 
0.464 0.284 0.004 1 
0.413 0.082 -0.013 1 
0.32 -0.105 0.01 1 
0.431 0.212 -0.011 1 
0.444 0.217 -0.006 1 
0.379 0.061 -0.015 1 
0.457 0.153 -0.005 1 
0.323 -0.075 -0.001 1 
0.332 -0.045 -0.001 1 
0.354 -0.035 0 1 
0.334 -0.138 -0.004 1 
0.344 -0.145 -0.006 1 
0.452 0.173 -0.007 1 
0.382 0.174 -0.017 1 
0.455 0.164 -0.005 1 
0.464 0.287 0.001 1 
0.382 0.194 -0.017 1 
0.432 0.24 -0.012 1 
0.343 -0.087 0.003 1 
0.46 0.133 -0.005 1 
0.452 0.231 -0.006 1 
0.371 0.074 -0.014 1 
0.465 0.124 0.003 1 
0.303 -0.032 0.054 2 
0.233 -0.064 0.084 2 
0.353 -0.049 0.014 2 
0.317 -0.023 0.054 2 
0.348 -0.05 0.026 2 
0.248 -0.085 0.056 2 
0.244 -0.086 0.056 2 
0.318 -0.022 0.056 2 
0.314 -0.026 0.053 2 
0.223 -0.065 0.057 2 
0.295 -0.035 0.054 2 
0.397 -0.013 0.023 2 
0.292 -0.035 0.054 2 
0.284 -0.04 0.054 2 
0.278 -0.045 0.054 2 
0.288 -0.095 0.028 2 
0.317 -0.025 0.052 2 
0.271 -0.055 0.054 2 
0.264 -0.069 0.054 2 
0.262 -0.096 0.044 2 
0.304 -0.035 0.064 2 
0.244 -0.076 0.061 2 
0.233 -0.067 0.061 2 
0.302 -0.034 0.062 2 
0.232 -0.077 0.054 2 
0.327 -0.025 0.034 2 
0.343 -0.075 0.026 2 
0.307 -0.049 0.03 2 
0.258 -0.075 0.054 2 
0.35 -0.009 0.015 2 
0.315 -0.028 0.063 2 
0.265 -0.095 0.042 2 
0.235 -0.063 0.084 2 
0.265 -0.075 0.046 2 
0.267 -0.065 0.054 2 
0.245 -0.056 0.074 2 
0.255 -0.075 0.057 2 
0.324 -0.023 0.046 2 
0.314 -0.028 0.047 2 
0.285 -0.045 0.047 2 
0.256 -0.085 0.049 2 
0.303 -0.035 0.044 2 
0.275 -0.065 0.047 2 
0.342 -0.055 0.013 2 
0.223 -0.068 0.084 2 
0.365 -0.022 0.042 2 
0.345 -0.018 0.04 2 
0.305 -0.035 0.043 2 
0.293 -0.039 0.044 2 
0.289 -0.045 0.044 2 
0.333 -0.021 0.051 2 
0.341 -0.07 0.015 2 
0.254 -0.077 0.054 2 
0.25 -0.086 0.054 2 
0.265 -0.065 0.055 2 
0.334 -0.079 0.026 2 
0.34 -0.054 0.024 2 
0.243 -0.089 0.054 2 
0.312 -0.032 0.067 2 
0.248 -0.095 0.053 2 
0.275 -0.055 0.051 2 
0.316 -0.061 0.034 2 
0.335 -0.02 0.048 2 
0.345 -0.033 0.02 2 
0.225 -0.069 0.084 2 
0.33 -0.02 0.046 2 
0.255 -0.1 0.05 2 
0.302 -0.071 0.035 2 
0.275 -0.057 0.084 2 
0.344 -0.013 0.027 2 
0.261 -0.085 0.044 2 
0.228 -0.064 0.074 2 
0.326 -0.058 0.025 2 
0.345 -0.039 0.03 2 
0.302 -0.044 0.078 2 
0.294 -0.044 0.077 2 
0.276 -0.05 0.074 2 
0.269 -0.055 0.074 2 
0.291 -0.043 0.074 2 
0.287 -0.045 0.074 2 
0.25 -0.065 0.069 2 
0.297 -0.04 0.074 2 
0.226 -0.065 0.074 2 
0.267 -0.057 0.084 2 
0.343 -0.018 0.042 2 
0.224 -0.066 0.074 2 
0.319 -0.035 0.036 2 
0.351 -0.066 0.019 2 
0.354 -0.046 0.026 2 
0.224 -0.064 0.071 2 
0.274 -0.054 0.08 2 
0.278 -0.105 0.042 2 
0.291 -0.05 0.082 2 
0.319 -0.025 0.043 2 
0.314 -0.024 0.056 2 
0.296 -0.05 0.082 2 
0.235 -0.06 0.074 2 
0.28 -0.054 0.084 2 
0.258 -0.058 0.074 2 
0.354 -0.075 0.023 2 
0.269 -0.054 0.074 2 
0.274 -0.046 0.064 2 
0.255 -0.065 0.066 2 
0.24 -0.066 0.064 2 
0.236 -0.063 0.064 2 
0.351 -0.065 0.01 2 
0.248 -0.071 0.064 2 
0.261 -0.057 0.064 2 
0.256 -0.065 0.064 2 
0.306 -0.034 0.066 2 
0.275 -0.045 0.064 2 
0.246 -0.058 0.084 2 
0.294 -0.07 0.034 2 
0.294 -0.037 0.064 2 
0.284 -0.04 0.064 2 
0.265 -0.055 0.063 2 
0.249 -0.075 0.062 2 
0.227 -0.059 0.064 2 
0.259 -0.055 0.084 2 
0.274 -0.08 0.034 2 
0.36 -0.044 0.016 2 
0.256 -0.054 0.084 2 
0.284 -0.044 0.071 2 
0.222 -0.061 0.064 2 
0.243 -0.066 0.066 2 
0.274 -0.051 0.054 2 
0.324 -0.043 0.075 2 
0.264 -0.054 0.067 2 
0.353 -0.043 0.026 2 
0.299 -0.067 0.038 2 
0.254 -0.054 0.084 2 
0.318 -0.046 0.031 2 
0.363 -0.05 0.015 2 
0.348 -0.064 0.009 2 
0.321 -0.085 0.022 2 
0.344 -0.012 0.017 2 
0.344 -0.026 0.017 2 
0.286 -0.065 0.041 2 
0.268 -0.075 0.043 2 
0.332 -0.047 0.029 2 
0.264 -0.079 0.044 2 
0.355 -0.045 0.026 2 
0.284 -0.058 0.044 2 
0.305 -0.056 0.037 2 
0.268 -0.108 0.043 2 
0.345 -0.028 0.014 2 
0.286 -0.055 0.043 2 
0.28 -0.065 0.044 2 
0.279 -0.104 0.041 2 
0.308 -0.065 0.038 2 
0.341 -0.015 0.015 2 
0.335 -0.081 0.033 2 
0.302 -0.082 0.025 2 
0.346 -0.023 0.013 2 
0.379 -0.014 0.026 2 
0.314 -0.04 0.035 2 
0.312 -0.045 0.033 2 
0.311 -0.055 0.035 2 
0.334 -0.07 0.032 2 
0.353 -0.012 0.027 2 
0.344 -0.054 0.011 2 
0.342 -0.073 0.018 2 
0.357 -0.044 0.024 2 
0.362 -0.006 0.019 2 
0.275 -0.094 0.032 2 
0.342 -0.015 0.026 2 
0.342 -0.016 0.036 2 
0.325 -0.025 0.036 2 
0.357 -0.006 0.027 2 
0.351 -0.037 0.017 2 
0.326 -0.095 0.016 2 
0.358 0.003 0.028 2 
0.359 0.01 0.029 2 
0.366 -0.004 0.018 2 
0.359 0 0.02 2 
0.337 -0.042 0.03 2 
0.35 -0.073 0.026 2 
0.359 0.012 0.026 2 
0.296 -0.045 0.04 2 
0.343 -0.053 0.024 2 
0.343 -0.058 0.024 2 
0.351 -0.064 0.019 2 
0.402 -0.016 0.024 2 
0.325 -0.085 0.022 2 
0.356 -0.066 0.017 2 
0.323 -0.031 0.036 2 
0.368 -0.008 0.023 2 
0.274 -0.067 0.044 2 
0.406 -0.018 0.026 2 
0.288 -0.085 0.024 2 
0.297 -0.056 0.039 2 
0.285 -0.096 0.032 2 
0.427 -0.017 0.006 2 
0.323 -0.083 0.025 2 
0.365 -0.051 0.02 2 
0.293 -0.08 0.026 2 
0.284 -0.073 0.034 2 
0.324 -0.079 0.033 2 
0.339 -0.014 0.035 2 
0.368 -0.048 0.016 2 
0.334 -0.028 0.024 2 
0.277 -0.075 0.034 2 
0.318 -0.035 0.038 2 
0.265 -0.089 0.041 2 
0.275 -0.075 0.035 2 
0.333 -0.076 0.016 2 
0.333 -0.039 0.031 2 
0.334 -0.019 0.035 2 
0.313 -0.086 0.02 2 
0.334 -0.022 0.025 2 
0.333 -0.085 0.015 2 
0.271 -0.085 0.034 2 
0.34 -0.066 0.029 2 
0.303 -0.085 0.021 2 
0.335 -0.029 0.024 2 
0.334 -0.072 0.016 2 
0.334 -0.082 0.032 2 
0.274 -0.097 0.033 2 
0.299 -0.075 0.03 2 
0.337 -0.064 0.023 2 
0.314 -0.076 0.033 2 
0.388 -0.013 0.02 2 
0.291 -0.075 0.03 2 
0.336 -0.087 0.013 2 
0.286 -0.086 0.025 2 
0.311 -0.082 0.024 2 
0.442 0.005 0.037 2 
0.467 -0.006 0.144 3 
0.463 -0.144 0.144 3 
0.466 0.162 0.134 3 
0.465 0.022 0.103 3 
0.465 -0.017 0.084 3 
0.467 0.263 0.142 3 
0.468 0.273 0.142 3 
0.466 -0.017 0.144 3 
0.465 0.149 0.063 3 
0.466 -0.025 0.144 3 
0.468 -0.05 0.144 3 
0.468 -0.066 0.144 3 
0.467 -0.055 0.144 3 
0.471 -0.117 0.143 3 
0.464 0.003 0.14 3 
0.466 0.142 0.142 3 
0.467 0.154 0.142 3 
0.466 0.162 0.142 3 
0.465 0.173 0.142 3 
0.467 -0.077 0.141 3 
0.465 0.181 0.142 3 
0.465 0.193 0.142 3 
0.464 0.213 0.143 3 
0.468 -0.085 0.142 3 
0.471 -0.105 0.143 3 
0.464 0.183 0.033 3 
0.466 0.223 0.143 3 
0.47 0.282 0.143 3 
0.47 -0.125 0.143 3 
0.466 0.232 0.144 3 
0.465 -0.015 0.034 3 
0.466 0.344 0.144 3 
0.471 0.315 0.144 3 
0.471 0.312 0.144 3 
0.466 0.244 0.144 3 
0.467 0.254 0.144 3 
0.466 0.254 0.054 3 
0.47 0.304 0.144 3 
0.461 -0.146 0.143 3 
0.471 0.292 0.143 3 
0.48 0.313 0.198 3 
0.469 -0.097 0.153 3 
0.471 -0.106 0.154 3 
0.472 -0.117 0.154 3 
0.471 -0.134 0.154 3 
0.47 -0.136 0.154 3 
0.461 0.336 0.062 3 
0.466 -0.145 0.153 3 
0.464 -0.15 0.153 3 
0.468 -0.085 0.153 3 
0.481 0.318 0.199 3 
0.469 0.214 0.172 3 
0.468 0.261 0.153 3 
0.467 0.254 0.153 3 
0.469 0.244 0.153 3 
0.468 0.234 0.153 3 
0.467 0.224 0.152 3 
0.467 0.212 0.152 3 
0.465 0.014 0.152 3 
0.466 0.063 0.152 3 
0.464 0.056 0.073 3 
0.481 0.284 0.197 3 
0.464 -0.017 0.066 3 
0.468 0.052 0.153 3 
0.467 0.044 0.152 3 
0.464 0.019 0.151 3 
0.479 0.302 0.197 3 
0.467 0.203 0.152 3 
0.466 0.003 0.152 3 
0.467 -0.006 0.152 3 
0.468 -0.015 0.152 3 
0.468 -0.025 0.152 3 
0.465 -0.055 0.152 3 
0.461 0.333 0.062 3 
0.468 -0.066 0.153 3 
0.469 -0.075 0.153 3 
0.466 0.052 0.144 3 
0.464 0.014 0.103 3 
0.464 0.1 0.143 3 
0.464 0.092 0.143 3 
0.465 0.09 0.144 3 
0.465 0.084 0.144 3 
0.464 0.163 0.063 3 
0.466 0.074 0.144 3 
0.466 0.063 0.144 3 
0.465 0.103 0.144 3 
0.465 0.044 0.143 3 
0.469 0.346 0.104 3 
0.465 0.033 0.143 3 
0.464 0.03 0.143 3 
0.465 0.209 0.112 3 
0.463 0.022 0.143 3 
0.463 0.014 0.143 3 
0.465 0.006 0.143 3 
0.471 0.293 0.152 3 
0.464 0.035 0.149 3 
0.464 0.014 0.149 3 
0.467 0.346 0.153 3 
0.469 0.341 0.154 3 
0.472 0.334 0.154 3 
0.473 0.321 0.154 3 
0.471 0.312 0.153 3 
0.47 0.301 0.152 3 
0.466 0.003 0.144 3 
0.472 0.284 0.152 3 
0.464 0.081 0.146 3 
0.462 -0.143 0.146 3 
0.466 0.134 0.144 3 
0.465 0.122 0.144 3 
0.464 0.114 0.144 3 
0.465 0.111 0.144 3 
0.464 0.003 0.124 3 
0.465 0.014 0.063 3 
0.465 0.21 0.126 3 
0.464 0.092 0.124 3 
0.464 0.084 0.124 3 
0.464 0.054 0.124 3 
0.462 0.043 0.124 3 
0.463 0.032 0.124 3 
0.463 0.022 0.124 3 
0.464 0.014 0.124 3 
0.464 0.254 0.118 3 
0.465 -0.001 0.124 3 
0.463 -0.033 0.052 3 
0.465 -0.006 0.124 3 
0.464 -0.111 0.125 3 
0.462 -0.113 0.124 3 
0.461 -0.115 0.124 3 
0.466 0.265 0.124 3 
0.465 0.261 0.124 3 
0.464 0.263 0.13 3 
0.465 0.009 0.13 3 
0.464 -0.119 0.13 3 
0.464 -0.017 0.034 3 
0.448 -0.126 0.127 3 
0.468 0.346 0.133 3 
0.467 0.341 0.132 3 
0.469 0.333 0.133 3 
0.469 0.323 0.132 3 
0.469 0.343 0.124 3 
0.465 0.252 0.124 3 
0.465 0.094 0.033 3 
0.464 0.163 0.128 3 
0.464 0.141 0.128 3 
0.464 0.133 0.127 3 
0.465 0.244 0.082 3 
0.465 0.064 0.063 3 
0.465 0.254 0.01 3 
0.464 0.239 0.126 3 
0.467 -0.085 0.123 3 
0.465 0.014 0.122 3 
0.466 -0.015 0.122 3 
0.466 -0.025 0.122 3 
0.465 -0.036 0.122 3 
0.466 -0.047 0.122 3 
0.465 -0.055 0.122 3 
0.464 -0.06 0.122 3 
0.465 -0.065 0.122 3 
0.466 -0.076 0.122 3 
0.465 0.017 0.122 3 
0.469 -0.096 0.123 3 
0.466 -0.106 0.123 3 
0.468 0.346 0.124 3 
0.47 0.334 0.124 3 
0.469 0.323 0.123 3 
0.469 0.312 0.123 3 
0.481 0.326 0.2 3 
0.469 0.303 0.123 3 
0.464 0.158 0.122 3 
0.465 0.243 0.124 3 
0.465 0.213 0.123 3 
0.467 0.202 0.123 3 
0.466 0.193 0.123 3 
0.464 0.189 0.123 3 
0.464 0.183 0.123 3 
0.464 0.172 0.122 3 
0.465 0.167 0.123 3 
0.465 0.164 0.123 3 
0.464 0.243 0.06 3 
0.465 0.153 0.122 3 
0.466 0.134 0.122 3 
0.466 0.123 0.122 3 
0.468 0.112 0.123 3 
0.467 0.104 0.123 3 
0.466 0.073 0.122 3 
0.465 0.062 0.122 3 
0.464 0.057 0.122 3 
0.464 0.084 0.133 3 
0.465 0.133 0.133 3 
0.466 0.123 0.133 3 
0.467 0.112 0.133 3 
0.466 0.103 0.133 3 
0.464 0.097 0.133 3 
0.464 -0.038 0.092 3 
0.464 0.092 0.133 3 
0.463 -0.135 0.133 3 
0.465 0.087 0.133 3 
0.465 0.144 0.133 3 
0.465 0.079 0.133 3 
0.465 -0.007 0.084 3 
0.465 0.073 0.133 3 
0.466 0.063 0.133 3 
0.466 0.054 0.133 3 
0.465 0.044 0.133 3 
0.465 0.033 0.133 3 
0.464 0.025 0.132 3 
0.464 0.219 0.134 3 
0.464 0.078 0.138 3 
0.464 0.097 0.084 3 
0.467 0.345 0.141 3 
0.472 0.333 0.142 3 
0.465 0.195 0.137 3 
0.464 0.172 0.136 3 
0.464 0.164 0.136 3 
0.464 -0.133 0.136 3 
0.465 0.221 0.032 3 
0.464 0.022 0.132 3 
0.463 0.212 0.134 3 
0.463 0.203 0.134 3 
0.465 0.198 0.134 3 
0.465 0.192 0.134 3 
0.466 0.184 0.134 3 
0.465 0.172 0.134 3 
0.475 0.341 0.161 3 
0.466 0.153 0.134 3 
0.465 0.243 0.132 3 
0.469 0.293 0.134 3 
0.466 0.312 0.074 3 
0.468 0.283 0.134 3 
0.466 0.271 0.133 3 
0.465 0.264 0.133 3 
0.463 0.132 0.022 3 
0.465 0.252 0.132 3 
0.464 0.248 0.132 3 
0.466 0.292 0.074 3 
0.469 0.296 0.134 3 
0.467 0.233 0.133 3 
0.466 0.223 0.132 3 
0.464 0.192 0.131 3 
0.464 0.183 0.131 3 
0.467 0.264 0.054 3 
0.464 0.172 0.131 3 
0.464 0.049 0.13 3 
0.464 0.043 0.13 3 
0.47 -0.047 0.134 3 
0.463 0.014 0.132 3 
0.464 0.003 0.132 3 
0.465 -0.001 0.132 3 
0.465 -0.006 0.132 3 
0.466 -0.017 0.133 3 
0.467 -0.025 0.133 3 
0.465 0.264 0.113 3 
0.468 -0.036 0.133 3 
0.464 0.216 0.14 3 
0.467 -0.055 0.133 3 
0.466 -0.066 0.133 3 
0.468 -0.077 0.134 3 
0.47 -0.086 0.134 3 
0.47 -0.097 0.134 3 
0.468 -0.115 0.134 3 
0.466 -0.126 0.134 3 
0.464 -0.128 0.133 3 
0.478 -0.175 0.183 3 
0.472 0.253 0.183 3 
0.473 -0.056 0.179 3 
0.474 -0.076 0.18 3 
0.474 -0.098 0.18 3 
0.464 0.038 0.143 3 
0.48 -0.126 0.183 3 
0.482 -0.136 0.184 3 
0.482 -0.145 0.184 3 
0.48 -0.155 0.184 3 
0.478 -0.166 0.183 3 
0.473 0.257 0.184 3 
0.472 0.053 0.187 3 
0.471 0.064 0.187 3 
0.477 0.303 0.184 3 
0.476 0.292 0.183 3 
0.477 0.283 0.183 3 
0.475 0.262 0.182 3 
0.467 0.001 0.174 3 
0.474 -0.093 0.177 3 
0.471 -0.106 0.176 3 
0.476 -0.085 0.184 3 
0.471 0.123 0.182 3 
0.469 -0.105 0.134 3 
0.473 0.112 0.183 3 
0.472 0.103 0.182 3 
0.473 -0.045 0.182 3 
0.475 -0.057 0.183 3 
0.475 -0.065 0.183 3 
0.474 -0.07 0.183 3 
0.475 -0.076 0.183 3 
0.473 -0.169 0.178 3 
0.468 0.234 0.164 3 
0.476 -0.099 0.184 3 
0.475 0.04 0.189 3 
0.478 0.274 0.183 3 
0.474 0.042 0.188 3 
0.464 0.197 0.101 3 
0.475 -0.107 0.184 3 
0.475 -0.116 0.184 3 
0.477 0.35 0.19 3 
0.474 0.28 0.173 3 
0.47 0.103 0.173 3 
0.465 0.144 0.122 3 
0.471 0.094 0.173 3 
0.473 0.084 0.174 3 
0.471 0.084 0.187 3 
0.471 0.092 0.187 3 
0.472 0.103 0.188 3 
0.47 0.072 0.173 3 
0.47 0.064 0.173 3 
0.471 0.114 0.174 3 
0.47 0.053 0.173 3 
0.472 0.112 0.188 3 
0.472 0.073 0.188 3 
0.472 0.123 0.188 3 
0.464 0.057 0.114 3 
0.471 0.134 0.188 3 
0.471 0.143 0.189 3 
0.465 0.081 0.122 3 
0.472 0.152 0.189 3 
0.465 0.194 0.173 3 
0.475 0.358 0.184 3 
0.464 0.097 0.146 3 
0.475 0.354 0.184 3 
0.479 0.336 0.184 3 
0.465 0.161 0.093 3 
0.478 0.331 0.183 3 
0.478 0.324 0.183 3 
0.478 0.314 0.182 3 
0.467 0.201 0.174 3 
0.47 0.134 0.182 3 
0.464 0.182 0.173 3 
0.465 0.18 0.173 3 
0.465 0.174 0.173 3 
0.468 0.164 0.174 3 
0.47 0.153 0.174 3 
0.469 0.144 0.173 3 
0.47 0.133 0.173 3 
0.469 0.122 0.173 3 
0.469 -0.096 0.142 3 
0.481 0.284 0.194 3 
0.478 -0.066 0.19 3 
0.479 0.309 0.194 3 
0.478 0.301 0.194 3 
0.465 0.234 0.124 3 
0.48 0.293 0.194 3 
0.465 0.294 0.009 3 
0.477 -0.057 0.189 3 
0.475 -0.051 0.188 3 
0.472 -0.045 0.188 3 
0.479 -0.077 0.19 3 
0.479 0.272 0.193 3 
0.475 0.263 0.191 3 
0.475 0.154 0.188 3 
0.469 -0.037 0.186 3 
0.47 -0.026 0.187 3 
0.472 -0.015 0.187 3 
0.472 -0.007 0.187 3 
0.471 0.003 0.187 3 
0.471 0.089 0.184 3 
0.465 0.203 0.082 3 
0.464 0.094 0.103 3 
0.482 -0.145 0.193 3 
0.48 -0.156 0.192 3 
0.481 -0.165 0.193 3 
0.482 -0.136 0.193 3 
0.466 -0.041 0.154 3 
0.481 -0.127 0.192 3 
0.48 -0.115 0.191 3 
0.485 -0.176 0.195 3 
0.47 0.083 0.184 3 
0.484 -0.182 0.195 3 
0.482 -0.184 0.194 3 
0.481 -0.186 0.194 3 
0.481 -0.107 0.192 3 
0.464 0.22 0.043 3 
0.479 -0.097 0.191 3 
0.478 -0.086 0.19 3 
0.47 0.314 0.132 3 
0.467 -0.047 0.152 3 
0.472 0.193 0.184 3 
0.481 0.321 0.193 3 
0.469 0.236 0.184 3 
0.469 0.23 0.184 3 
0.465 0.155 0.082 3 
0.47 0.221 0.184 3 
0.463 0.08 0.073 3 
0.47 0.212 0.184 3 
0.471 0.204 0.184 3 
0.465 0.038 0.103 3 
0.463 0.311 0.014 3 
0.47 0.183 0.183 3 
0.469 0.174 0.183 3 
0.47 -0.168 0.174 3 
0.469 -0.135 0.143 3 
0.468 0.164 0.182 3 
0.471 0.154 0.183 3 
0.464 0.204 0.142 3 
0.472 0.034 0.187 3 
0.471 0.143 0.182 3 
0.471 0.014 0.184 3 
0.465 0.043 0.071 3 
0.47 0.072 0.184 3 
0.471 0.064 0.184 3 
0.471 0.053 0.184 3 
0.471 0.042 0.184 3 
0.469 0.11 0.164 3 
0.471 0.034 0.184 3 
0.472 0.023 0.184 3 
0.471 0.012 0.187 3 
0.465 0.224 0.054 3 
0.469 0.003 0.183 3 
0.465 0.253 0.074 3 
0.472 -0.007 0.184 3 
0.471 -0.015 0.184 3 
0.468 -0.026 0.183 3 
0.473 -0.037 0.173 3 
0.469 -0.037 0.183 3 
0.472 0.023 0.187 3 
0.482 0.329 0.194 3 
0.468 0.144 0.162 3 
0.47 0.224 0.164 3 
0.469 0.214 0.164 3 
0.469 0.202 0.164 3 
0.466 0.194 0.162 3 
0.464 0.173 0.161 3 
0.469 0.164 0.162 3 
0.465 -0.036 0.103 3 
0.467 0.284 0.082 3 
0.467 0.154 0.162 3 
0.469 0.238 0.164 3 
0.469 0.133 0.162 3 
0.479 0.272 0.196 3 
0.469 -0.066 0.161 3 
0.472 -0.075 0.162 3 
0.472 -0.086 0.162 3 
0.472 -0.095 0.163 3 
0.465 0.111 0.044 3 
0.472 -0.106 0.163 3 
0.464 0.277 0.021 3 
0.466 -0.006 0.163 3 
0.468 0.063 0.164 3 
0.465 0.222 0.124 3 
0.468 0.044 0.164 3 
0.467 0.033 0.163 3 
0.469 0.251 0.191 3 
0.468 0.022 0.163 3 
0.476 -0.133 0.164 3 
0.468 0.014 0.163 3 
0.468 0.003 0.163 3 
0.475 -0.116 0.164 3 
0.467 -0.015 0.163 3 
0.472 0.257 0.192 3 
0.47 -0.026 0.164 3 
0.471 -0.037 0.164 3 
0.471 -0.045 0.164 3 
0.469 -0.055 0.164 3 
0.474 -0.144 0.167 3 
0.474 0.356 0.171 3 
0.474 0.33 0.169 3 
0.467 0.151 0.153 3 
0.465 0.025 0.154 3 
0.465 0.019 0.154 3 
0.464 -0.15 0.155 3 
0.464 0.033 0.151 3 
0.466 0.191 0.154 3 
0.464 0.181 0.153 3 
0.466 0.179 0.153 3 
0.466 0.173 0.153 3 
0.468 0.163 0.154 3 
0.465 0.182 0.156 3 
0.467 0.143 0.153 3 
0.465 0.124 0.063 3 
0.467 0.134 0.153 3 
0.466 0.123 0.152 3 
0.465 0.032 0.063 3 
0.467 0.112 0.153 3 
0.466 0.104 0.152 3 
0.466 0.093 0.152 3 
0.466 0.082 0.152 3 
0.47 0.273 0.163 3 
0.475 -0.141 0.164 3 
0.473 -0.143 0.164 3 
0.472 -0.145 0.163 3 
0.474 0.344 0.167 3 
0.468 0.31 0.164 3 
0.469 0.304 0.164 3 
0.472 0.294 0.164 3 
0.466 0.263 0.063 3 
0.472 0.284 0.164 3 
0.469 0.074 0.164 3 
0.468 0.262 0.162 3 
0.47 0.273 0.154 3 
0.469 0.253 0.162 3 
0.473 -0.115 0.16 3 
0.474 -0.132 0.161 3 
0.47 0.35 0.163 3 
0.474 0.344 0.164 3 
0.474 0.333 0.164 3 
0.472 0.321 0.162 3 
0.474 0.267 0.176 3 
0.472 -0.106 0.174 3 
0.464 0.239 0.104 3 
0.474 -0.161 0.176 3 
0.47 -0.162 0.174 3 
0.473 0.356 0.18 3 
0.464 0.072 0.042 3 
0.472 0.351 0.179 3 
0.465 -0.007 0.063 3 
0.474 0.277 0.176 3 
0.473 -0.095 0.174 3 
0.471 0.249 0.174 3 
0.464 0.214 0.112 3 
0.471 0.243 0.174 3 
0.471 0.234 0.174 3 
0.464 -0.046 0.09 3 
0.47 0.224 0.173 3 
0.464 0.185 0.17 3 
0.465 0.035 0.106 3 
0.475 -0.09 0.172 3 
0.468 -0.015 0.172 3 
0.468 0.044 0.172 3 
0.468 0.033 0.172 3 
0.47 0.053 0.164 3 
0.469 0.022 0.172 3 
0.471 0.163 0.189 3 
0.467 0.173 0.188 3 
0.469 0.182 0.189 3 
0.469 0.014 0.172 3 
0.467 -0.006 0.171 3 
0.471 0.192 0.19 3 
0.47 -0.026 0.173 3 
0.461 0.104 0.012 3 
0.474 -0.045 0.174 3 
0.47 -0.056 0.172 3 
0.472 -0.067 0.173 3 
0.466 0.103 0.044 3 
0.463 0.214 0.013 3 
0.472 -0.075 0.173 3 
0.474 -0.087 0.174 3 
0.476 0.295 0.172 3 
0.469 -0.036 0.144 3 
0.476 0.343 0.174 3 
0.473 0.224 0.191 3 
0.465 0.024 0.063 3 
0.475 0.331 0.173 3 
0.473 0.322 0.172 3 
0.472 0.314 0.171 3 
0.473 0.233 0.192 3 
0.473 0.302 0.171 3 
0.475 0.349 0.174 3 
0.474 0.286 0.171 3 
0.464 0.19 0.164 3 
0.463 0.184 0.164 3 
0.465 0.174 0.164 3 
0.468 0.124 0.164 3 
0.467 0.101 0.164 3 
0.467 0.093 0.164 3 
0.468 0.244 0.19 3 
0.468 0.082 0.164 3 
0.471 0.213 0.19 3 
0.475 -0.096 0.172 3 
0.476 -0.113 0.173 3 
0.477 -0.116 0.173 3 
0.479 -0.126 0.174 3 
0.479 -0.137 0.174 3 
0.464 0.266 0.107 3 
0.471 0.204 0.19 3 
0.478 -0.146 0.174 3 
0.475 -0.156 0.173 3 
0.466 0.074 0.152 3 
0.476 0.292 0.174 3 
0.475 0.284 0.174 3 
0.474 0.274 0.173 3 
0.471 0.262 0.172 3 
0.462 0.072 0.002 3 
0.475 -0.034 0.169 3 
0.474 -0.149 0.17 3 
0.464 -0.159 0.166 3 
0.472 0.354 0.173 3 
0.467 0.054 0.052 3 
0.464 0.124 0.052 3 
0.464 0.113 0.052 3 
0.464 0.102 0.052 3 
0.465 0.1 0.052 3 
0.464 0.094 0.052 3 
0.465 0.089 0.052 3 
0.464 0.083 0.052 3 
0.466 0.073 0.052 3 
0.466 0.062 0.052 3 
0.464 0.13 0.052 3 
0.466 0.043 0.052 3 
0.466 0.032 0.052 3 
0.466 0.024 0.052 3 
0.466 0.014 0.052 3 
0.466 -0.007 0.052 3 
0.466 -0.015 0.052 3 
0.466 -0.025 0.052 3 
0.462 0.282 0.012 3 
0.464 -0.036 0.052 3 
0.464 0.194 0.054 3 
0.465 0.294 0.054 3 
0.467 0.283 0.054 3 
0.466 0.272 0.054 3 
0.464 0.246 0.054 3 
0.463 0.243 0.054 3 
0.463 0.231 0.054 3 
0.465 0.226 0.054 3 
0.464 0.214 0.054 3 
0.464 0.202 0.054 3 
0.465 0.238 0.049 3 
0.464 0.182 0.054 3 
0.464 0.31 0.051 3 
0.464 0.223 0.052 3 
0.463 0.173 0.052 3 
0.464 0.163 0.052 3 
0.464 0.154 0.052 3 
0.464 0.143 0.052 3 
0.465 0.135 0.052 3 
0.465 0.133 0.052 3 
0.465 0.203 0.043 3 
0.464 0.258 0.043 3 
0.464 0.223 0.024 3 
0.464 0.252 0.043 3 
0.465 0.244 0.043 3 
0.464 0.235 0.043 3 
0.465 0.232 0.043 3 
0.464 0.226 0.043 3 
0.465 0.224 0.043 3 
0.465 0.212 0.043 3 
0.465 0.262 0.043 3 
0.464 0.2 0.044 3 
0.463 0.193 0.044 3 
0.463 0.182 0.044 3 
0.463 0.173 0.044 3 
0.464 0.163 0.044 3 
0.465 0.161 0.044 3 
0.465 0.152 0.044 3 
0.464 0.143 0.044 3 
0.465 0.141 0.044 3 
0.466 0.332 0.042 3 
0.465 0.206 0.049 3 
0.465 0.152 0.049 3 
0.465 0.124 0.049 3 
0.465 0.113 0.049 3 
0.464 0.019 0.047 3 
0.465 -0.036 0.047 3 
0.463 0.339 0.042 3 
0.463 0.332 0.042 3 
0.465 0.301 0.054 3 
0.466 0.322 0.042 3 
0.466 0.332 0.034 3 
0.465 0.314 0.043 3 
0.464 0.31 0.043 3 
0.464 0.303 0.043 3 
0.465 0.301 0.043 3 
0.465 0.281 0.043 3 
0.465 0.272 0.043 3 
0.464 0.268 0.043 3 
0.466 0.283 0.063 3 
0.464 0.121 0.065 3 
0.465 0.086 0.066 3 
0.464 -0.03 0.066 3 
0.465 0.327 0.062 3 
0.465 0.324 0.062 3 
0.464 0.054 0.039 3 
0.465 0.314 0.062 3 
0.465 0.304 0.062 3 
0.461 0.064 0.013 3 
0.464 0.127 0.065 3 
0.468 0.274 0.063 3 
0.465 0.253 0.063 3 
0.466 0.003 0.052 3 
0.465 0.244 0.063 3 
0.465 0.253 0.024 3 
0.465 0.224 0.063 3 
0.464 0.217 0.063 3 
0.463 0.202 0.063 3 
0.464 0.194 0.063 3 
0.464 -0.046 0.074 3 
0.464 0.014 0.074 3 
0.465 0.011 0.074 3 
0.464 0.003 0.074 3 
0.465 -0.001 0.074 3 
0.465 -0.007 0.074 3 
0.465 -0.015 0.074 3 
0.465 -0.025 0.074 3 
0.465 -0.036 0.074 3 
0.464 -0.041 0.074 3 
0.464 0.182 0.063 3 
0.463 -0.057 0.074 3 
0.464 0.024 0.071 3 
0.464 0.22 0.071 3 
0.464 0.31 0.068 3 
0.464 0.3 0.068 3 
0.465 0.175 0.068 3 
0.465 0.172 0.068 3 
0.464 0.138 0.068 3 
0.464 0.294 0.065 3 
0.452 -0.045 0.06 3 
0.466 -0.025 0.063 3 
0.465 -0.036 0.063 3 
0.463 -0.041 0.063 3 
0.462 -0.046 0.063 3 
0.464 0.319 0.06 3 
0.464 0.313 0.06 3 
0.464 0.303 0.06 3 
0.463 0.231 0.06 3 
0.464 0.143 0.06 3 
0.464 -0.017 0.063 3 
0.465 0.209 0.057 3 
0.465 0.203 0.057 3 
0.465 0.1 0.057 3 
0.462 0.337 0.054 3 
0.462 0.083 0.002 3 
0.466 0.332 0.054 3 
0.466 0.322 0.054 3 
0.465 0.314 0.054 3 
0.464 0.303 0.054 3 
0.465 0.089 0.063 3 
0.463 0.173 0.063 3 
0.464 0.154 0.063 3 
0.466 0.133 0.063 3 
0.464 0.127 0.063 3 
0.464 0.119 0.063 3 
0.465 0.114 0.063 3 
0.464 0.108 0.063 3 
0.464 0.102 0.063 3 
0.464 0.094 0.063 3 
0.465 0.133 0.044 3 
0.465 0.084 0.063 3 
0.466 0.073 0.063 3 
0.466 0.054 0.063 3 
0.464 0.011 0.063 3 
0.464 0.003 0.063 3 
0.465 0 0.063 3 
0.464 -0.009 0.063 3 
0.465 -0.015 0.063 3 
0.463 0.094 0.023 3 
0.464 0.197 0.022 3 
0.463 0.182 0.022 3 
0.462 0.173 0.022 3 
0.463 0.162 0.022 3 
0.464 0.014 0.023 3 
0.463 0.154 0.022 3 
0.463 0.143 0.022 3 
0.463 0.112 0.023 3 
0.462 0.104 0.023 3 
0.464 0.253 0.021 3 
0.465 0.083 0.023 3 
0.464 0.08 0.023 3 
0.464 0.072 0.023 3 
0.463 0.064 0.023 3 
0.463 0.053 0.023 3 
0.463 0.043 0.023 3 
0.463 0.032 0.023 3 
0.463 0.024 0.023 3 
0.466 0.003 0.023 3 
0.464 0.238 0.024 3 
0.465 0.321 0.022 3 
0.465 0.313 0.023 3 
0.465 0.303 0.023 3 
0.466 0.292 0.023 3 
0.466 0.282 0.023 3 
0.465 0.272 0.023 3 
0.464 0.262 0.024 3 
0.465 0.256 0.024 3 
0.465 0.244 0.024 3 
0.466 -0.007 0.023 3 
0.464 0.232 0.024 3 
0.465 0.221 0.024 3 
0.466 0.213 0.024 3 
0.465 0.203 0.024 3 
0.464 0.191 0.024 3 
0.464 0.315 0.02 3 
0.464 0.312 0.02 3 
0.463 0.301 0.02 3 
0.464 0.293 0.02 3 
0.461 0.074 0.013 3 
0.462 0.154 0.014 3 
0.464 0.121 0.014 3 
0.465 0.313 0.008 3 
0.465 0.304 0.009 3 
0.462 0.142 0.012 3 
0.463 0.132 0.012 3 
0.461 0.114 0.012 3 
0.461 0.093 0.012 3 
0.461 0.082 0.013 3 
0.462 0.173 0.014 3 
0.462 0.053 0.013 3 
0.463 0.043 0.012 3 
0.465 0.18 0.008 3 
0.465 0.132 0.003 3 
0.463 0.056 0.004 3 
0.464 0.054 0.004 3 
0.465 0.048 0.004 3 
0.465 0.043 0.004 3 
0.465 0.141 0.001 3 
0.463 0.264 0.013 3 
0.464 -0.012 0.023 3 
0.463 -0.015 0.023 3 
0.466 0.332 0.013 3 
0.466 0.324 0.014 3 
0.464 0.319 0.014 3 
0.465 0.124 0.017 3 
0.469 0.346 0.01 3 
0.463 0.302 0.012 3 
0.463 0.292 0.012 3 
0.468 0.334 0.022 3 
0.465 0.263 0.012 3 
0.464 0.25 0.013 3 
0.464 0.244 0.013 3 
0.463 0.234 0.013 3 
0.463 0.222 0.013 3 
0.463 0.202 0.014 3 
0.463 0.193 0.014 3 
0.463 0.182 0.014 3 
0.467 0.273 0.034 3 
0.465 0.172 0.038 3 
0.465 0.341 0.034 3 
0.463 0.335 0.034 3 
0.463 0.332 0.034 3 
0.466 0.322 0.034 3 
0.466 0.312 0.034 3 
0.466 0.304 0.034 3 
0.467 0.292 0.034 3 
0.467 0.283 0.034 3 
0.465 0.247 0.038 3 
0.464 0.211 0.035 3 
0.464 0.064 0.036 3 
0.464 0.024 0.036 3 
0.466 0.263 0.032 3 
0.465 0.253 0.032 3 
0.465 0.244 0.032 3 
0.464 0.024 0.034 3 
0.464 0.235 0.032 3 
0.464 0.232 0.032 3 
0.467 0.062 0.044 3 
0.464 0.13 0.044 3 
0.464 0.124 0.044 3 
0.465 0.119 0.044 3 
0.464 0.113 0.044 3 
0.465 0.094 0.044 3 
0.464 0.091 0.044 3 
0.464 0.083 0.044 3 
0.465 0.078 0.044 3 
0.465 0.073 0.044 3 
0.464 0.223 0.032 3 
0.466 0.054 0.044 3 
0.466 0.032 0.044 3 
0.466 0.024 0.044 3 
0.466 0.014 0.044 3 
0.467 0.003 0.044 3 
0.466 -0.007 0.044 3 
0.467 -0.015 0.044 3 
0.465 -0.025 0.044 3 
0.463 -0.033 0.042 3 
0.464 0.102 0.031 3 
0.467 0.003 0.034 3 
0.467 -0.007 0.034 3 
0.464 -0.025 0.034 3 
0.464 0.197 0.03 3 
0.464 0.171 0.03 3 
0.464 0.152 0.03 3 
0.464 0.141 0.03 3 
0.464 0.132 0.03 3 
0.465 0.124 0.03 3 
0.465 0.014 0.034 3 
0.464 0.051 0.031 3 
0.464 0.038 0.031 3 
0.464 -0.012 0.031 3 
0.473 0.35 0.024 3 
0.464 0.214 0.027 3 
0.465 0.083 0.028 3 
0.464 0.014 0.028 3 
0.468 0.341 0.022 3 
0.464 0.333 0.022 3 
0.465 0.102 0.033 3 
0.466 0.204 0.032 3 
0.464 0.194 0.033 3 
0.465 0.175 0.033 3 
0.465 0.172 0.033 3 
0.465 0.163 0.033 3 
0.465 0.144 0.033 3 
0.465 0.133 0.033 3 
0.464 0.124 0.033 3 
0.465 0.113 0.033 3 
0.465 0.024 0.074 3 
0.464 0.091 0.033 3 
0.463 0.083 0.034 3 
0.462 0.072 0.034 3 
0.465 0.059 0.033 3 
0.465 0.054 0.034 3 
0.466 0.043 0.033 3 
0.464 0.032 0.034 3 
0.465 0.016 0.034 3 
0.465 -0.025 0.103 3 
0.466 0.062 0.103 3 
0.464 0.054 0.103 3 
0.463 0.043 0.103 3 
0.465 0.033 0.103 3 
0.464 0.027 0.103 3 
0.463 0.003 0.103 3 
0.464 -0.006 0.103 3 
0.464 -0.017 0.103 3 
0.465 -0.022 0.103 3 
0.465 0.073 0.103 3 
0.465 -0.047 0.103 3 
0.466 -0.055 0.103 3 
0.465 -0.065 0.103 3 
0.466 -0.076 0.103 3 
0.464 -0.081 0.103 3 
0.464 -0.087 0.103 3 
0.469 0.342 0.103 3 
0.471 0.334 0.104 3 
0.47 0.323 0.103 3 
0.464 0.166 0.103 3 
0.463 0.228 0.104 3 
0.462 0.272 0.013 3 
0.464 0.223 0.104 3 
0.464 0.214 0.104 3 
0.465 0.212 0.104 3 
0.465 0.203 0.104 3 
0.465 0.192 0.104 3 
0.466 0.184 0.104 3 
0.465 0.172 0.104 3 
0.469 0.312 0.103 3 
0.464 0.163 0.103 3 
0.463 0.154 0.103 3 
0.465 0.144 0.103 3 
0.466 0.133 0.103 3 
0.465 0.122 0.103 3 
0.464 0.116 0.103 3 
0.464 0.113 0.103 3 
0.464 0.102 0.103 3 
0.464 0.083 0.103 3 
0.468 0.304 0.094 3 
0.464 -0.025 0.095 3 
0.464 -0.036 0.095 3 
0.464 -0.052 0.095 3 
0.464 -0.057 0.095 3 
0.459 -0.077 0.094 3 
0.465 0.341 0.094 3 
0.468 0.327 0.094 3 
0.468 0.324 0.094 3 
0.468 0.314 0.094 3 
0.464 -0.065 0.098 3 
0.466 0.293 0.094 3 
0.465 0.282 0.094 3 
0.464 0.272 0.093 3 
0.465 0.27 0.093 3 
0.465 0.264 0.093 3 
0.464 0.257 0.093 3 
0.464 0.254 0.093 3 
0.465 0.244 0.093 3 
0.464 -0.012 0.074 3 
0.464 0.073 0.1 3 
0.468 0.304 0.103 3 
0.466 0.293 0.102 3 
0.465 0.282 0.102 3 
0.464 0.263 0.102 3 
0.464 0.245 0.101 3 
0.465 0.215 0.101 3 
0.464 0.144 0.1 3 
0.465 0.114 0.101 3 
0.466 0.043 0.044 3 
0.465 0.233 0.104 3 
0.465 0.054 0.1 3 
0.464 0.016 0.1 3 
0.464 -0.025 0.06 3 
0.464 0.275 0.099 3 
0.463 0.332 0.082 3 
0.464 0.186 0.098 3 
0.464 0.183 0.098 3 
0.465 0.164 0.098 3 
0.465 0.152 0.098 3 
0.462 0.043 0.113 3 
0.464 0.13 0.114 3 
0.465 0.122 0.114 3 
0.467 0.112 0.114 3 
0.466 0.103 0.114 3 
0.465 0.092 0.114 3 
0.465 0.084 0.114 3 
0.466 0.073 0.114 3 
0.465 0.062 0.114 3 
0.463 0.054 0.113 3 
0.465 0.133 0.114 3 
0.464 0.214 0.021 3 
0.463 0.032 0.113 3 
0.465 0.248 0.104 3 
0.465 0.027 0.114 3 
0.465 0.022 0.114 3 
0.465 0.014 0.114 3 
0.465 0.003 0.114 3 
0.464 0.274 0.046 3 
0.466 -0.006 0.114 3 
0.464 0.097 0.116 3 
0.468 0.282 0.122 3 
0.464 0.224 0.121 3 
0.465 0.184 0.12 3 
0.464 0.135 0.119 3 
0.464 0.133 0.119 3 
0.463 0.162 0.028 3 
0.464 0.242 0.118 3 
0.464 0.23 0.118 3 
0.464 -0.046 0.114 3 
0.466 -0.015 0.114 3 
0.465 0.025 0.116 3 
0.461 -0.104 0.116 3 
0.465 0.175 0.114 3 
0.465 0.172 0.114 3 
0.465 0.164 0.114 3 
0.464 0.155 0.114 3 
0.465 0.153 0.114 3 
0.466 0.204 0.112 3 
0.466 0.142 0.114 3 
0.468 0.342 0.112 3 
0.465 0.234 0.113 3 
0.464 0.23 0.112 3 
0.464 0.223 0.112 3 
0.468 0.194 0.112 3 
0.464 0.152 0.111 3 
0.464 0.014 0.111 3 
0.464 0.001 0.111 3 
0.462 0.162 0.014 3 
0.47 0.347 0.113 3 
0.465 0.243 0.113 3 
0.471 0.331 0.112 3 
0.471 0.324 0.112 3 
0.464 0.248 0.11 3 
0.464 0.236 0.11 3 
0.464 0.022 0.105 3 
0.464 -0.006 0.105 3 
0.464 0.269 0.104 3 
0.465 0.258 0.104 3 
0.465 0.242 0.104 3 
0.464 -0.095 0.114 3 
0.465 -0.025 0.114 3 
0.465 -0.036 0.114 3 
0.464 -0.041 0.114 3 
0.465 -0.049 0.114 3 
0.465 -0.057 0.114 3 
0.466 -0.066 0.114 3 
0.467 -0.082 0.114 3 
0.467 -0.085 0.114 3 
0.464 -0.092 0.114 3 
0.464 0.238 0.093 3 
0.468 0.311 0.114 3 
0.468 0.301 0.114 3 
0.468 0.292 0.114 3 
0.462 0.032 0.013 3 
0.467 0.281 0.114 3 
0.466 0.274 0.113 3 
0.465 0.252 0.113 3 
0.467 0.292 0.043 3 
0.464 0.108 0.082 3 
0.468 0.304 0.083 3 
0.467 0.293 0.082 3 
0.467 0.274 0.082 3 
0.465 0.263 0.082 3 
0.466 0.254 0.082 3 
0.467 0.234 0.082 3 
0.466 0.221 0.082 3 
0.464 0.268 0.024 3 
0.466 0.213 0.082 3 
0.467 0.313 0.083 3 
0.464 0.032 0.081 3 
0.465 0.014 0.082 3 
0.465 -0.001 0.082 3 
0.464 -0.006 0.082 3 
0.464 0.259 0.079 3 
0.464 0.208 0.079 3 
0.463 0.091 0.079 3 
0.465 -0.025 0.079 3 
0.464 0.217 0.076 3 
0.464 -0.025 0.084 3 
0.465 0.341 0.013 3 
0.464 0.054 0.084 3 
0.463 0.043 0.084 3 
0.465 0.032 0.084 3 
0.465 0.024 0.084 3 
0.464 0.019 0.084 3 
0.464 0.014 0.084 3 
0.464 0.003 0.084 3 
0.464 -0.022 0.084 3 
0.465 0.232 0.063 3 
0.463 -0.036 0.084 3 
0.465 0.144 0.063 3 
0.464 -0.046 0.084 3 
0.464 0.214 0.063 3 
0.464 -0.057 0.084 3 
0.461 -0.067 0.084 3 
0.463 0.339 0.082 3 
0.466 0.332 0.083 3 
0.466 0.322 0.083 3 
0.464 0.094 0.073 3 
0.465 0.158 0.074 3 
0.464 0.154 0.073 3 
0.465 0.152 0.074 3 
0.465 0.144 0.074 3 
0.465 0.133 0.074 3 
0.466 0.122 0.074 3 
0.466 0.114 0.074 3 
0.464 0.105 0.073 3 
0.464 0.102 0.073 3 
0.464 0.163 0.073 3 
0.465 0.084 0.074 3 
0.464 0.073 0.074 3 
0.465 0.07 0.074 3 
0.465 0.062 0.074 3 
0.465 0.054 0.074 3 
0.464 0.048 0.073 3 
0.464 0.043 0.073 3 
0.464 0.032 0.074 3 
0.465 0.027 0.074 3 
0.466 0.233 0.074 3 
0.461 0.336 0.074 3 
0.462 0.334 0.074 3 
0.465 0.331 0.074 3 
0.467 0.323 0.074 3 
0.465 0.301 0.074 3 
0.467 0.284 0.074 3 
0.467 0.274 0.074 3 
0.466 0.263 0.074 3 
0.465 0.244 0.074 3 
0.465 0.059 0.084 3 
0.465 0.224 0.074 3 
0.464 0.211 0.074 3 
0.465 0.209 0.074 3 
0.464 0.203 0.074 3 
0.463 0.193 0.073 3 
0.463 0.182 0.073 3 
0.466 0.153 0.033 3 
0.464 0.174 0.074 3 
0.465 0.022 0.092 3 
0.464 0.094 0.092 3 
0.464 0.083 0.092 3 
0.464 0.073 0.092 3 
0.465 0.07 0.092 3 
0.465 0.062 0.092 3 
0.464 0.124 0.023 3 
0.465 0.054 0.092 3 
0.466 0.043 0.092 3 
0.467 0.033 0.092 3 
0.464 0.102 0.092 3 
0.464 0.014 0.092 3 
0.463 0.003 0.092 3 
0.463 -0.006 0.092 3 
0.464 -0.017 0.092 3 
0.465 -0.028 0.092 3 
0.465 -0.036 0.092 3 
0.465 -0.047 0.092 3 
0.465 -0.055 0.092 3 
0.464 -0.065 0.092 3 
0.464 0.18 0.093 3 
0.465 0.13 0.006 3 
0.465 0.233 0.093 3 
0.466 0.224 0.093 3 
0.464 -0.025 0.092 3 
0.467 0.213 0.093 3 
0.466 0.204 0.093 3 
0.465 0.192 0.093 3 
0.464 0.188 0.093 3 
0.465 0.183 0.093 3 
0.465 0.294 0.063 3 
0.464 0.171 0.092 3 
0.465 0.166 0.093 3 
0.464 0.163 0.092 3 
0.465 0.152 0.093 3 
0.465 0.144 0.092 3 
0.464 0.064 0.034 3 
0.466 0.133 0.093 3 
0.465 0.122 0.092 3 
0.464 0.113 0.092 3 
0.466 0.122 0.084 3 
0.464 0.174 0.084 3 
0.463 0.332 0.054 3 
0.464 0.163 0.084 3 
0.465 0.152 0.084 3 
0.464 0.146 0.084 3 
0.464 0.143 0.084 3 
0.465 0.136 0.084 3 
0.464 0.132 0.084 3 
0.465 0.13 0.084 3 
0.465 0.178 0.084 3 
0.466 0.114 0.084 3 
0.465 0.103 0.084 3 
0.465 0.092 0.084 3 
0.464 0.083 0.084 3 
0.465 0.081 0.084 3 
0.463 0.339 0.008 3 
0.465 0.073 0.084 3 
0.464 0.07 0.084 3 
0.464 0.062 0.084 3 
0.464 0.197 0.087 3 
0.464 0.34 0.091 3 
0.465 0.254 0.09 3 
0.466 0.043 0.063 3 
0.465 0.114 0.09 3 
0.465 0.078 0.09 3 
0.464 0.051 0.089 3 
0.465 0.081 0.052 3 
0.464 -0.057 0.09 3 
0.465 0.212 0.032 3 
0.469 0.293 0.123 3 
0.465 0.092 0.087 3 
0.464 0.113 0.031 3 
0.464 0.043 0.087 3 
0.465 0.008 0.023 3 
0.465 0.011 0.087 3 
0.464 0.197 0.084 3 
0.464 0.194 0.084 3 
0.464 0.183 0.084 3 
