# .PCD v0.7 - Point Cloud Data file
FIELDS x y z intensity
SIZE 4 4 4 4
TYPE F F F F
COUNT 1 1 1 1
WIDTH 2348
HEIGHT 1
VIEWPOINT 0 0 0 1 0 0 0
POINTS 2348
DATA ascii
0.374 -0.238 -0.026 1 
0.375 -0.232 -0.026 1 
0.373 -0.225 -0.024 1 
0.364 -0.167 -0.019 1 
0.364 -0.155 -0.018 1 
0.362 -0.136 -0.017 1 
0.361 -0.126 -0.016 1 
0.36 -0.105 -0.015 1 
0.359 -0.085 -0.015 1 
0.36 -0.06 -0.015 1 
0.359 -0.055 -0.014 1 
0.363 -0.045 -0.016 1 
0.364 -0.027 -0.016 1 
0.361 0.023 -0.015 1 
0.36 0.033 -0.015 1 
0.358 0.042 -0.014 1 
0.359 0.063 -0.015 1 
0.354 0.082 -0.013 1 
0.354 0.114 -0.014 1 
0.351 0.123 -0.013 1 
0.352 0.134 -0.014 1 
0.352 0.136 -0.014 1 
0.353 0.154 -0.015 1 
0.351 0.158 -0.015 1 
0.348 0.173 -0.015 1 
0.374 -0.238 -0.024 1 
0.373 -0.196 -0.021 1 
0.369 -0.147 -0.018 1 
0.364 0.043 -0.015 1 
0.361 0.083 -0.014 1 
0.361 0.087 -0.014 1 
0.363 0.093 -0.015 1 
0.361 0.101 -0.015 1 
0.359 0.122 -0.015 1 
0.357 0.142 -0.014 1 
0.352 0.173 -0.014 1 
0.352 0.213 -0.017 1 
0.352 0.215 -0.017 1 
0.382 -0.247 -0.025 1 
0.382 -0.235 -0.024 1 
0.374 -0.186 -0.019 1 
0.374 -0.175 -0.019 1 
0.374 -0.136 -0.018 1 
0.374 -0.128 -0.017 1 
0.374 -0.116 -0.017 1 
0.372 -0.096 -0.016 1 
0.373 -0.085 -0.016 1 
0.374 -0.076 -0.016 1 
0.37 -0.063 -0.015 1 
0.373 -0.045 -0.016 1 
0.374 -0.04 -0.016 1 
0.373 0.013 -0.016 1 
0.373 0.024 -0.016 1 
0.372 0.054 -0.016 1 
0.366 0.083 -0.014 1 
0.363 0.114 -0.014 1 
0.363 0.115 -0.014 1 
0.364 0.131 -0.015 1 
0.361 0.133 -0.014 1 
0.364 0.143 -0.015 1 
0.364 0.151 -0.015 1 
0.357 0.174 -0.014 1 
0.382 -0.245 -0.024 1 
0.356 0.177 -0.014 1 
0.36 0.184 -0.016 1 
0.359 0.194 -0.016 1 
0.358 0.201 -0.016 1 
0.391 -0.255 -0.026 1 
0.379 -0.165 -0.018 1 
0.381 -0.155 -0.018 1 
0.378 -0.127 -0.017 1 
0.378 -0.115 -0.016 1 
0.38 -0.106 -0.017 1 
0.374 -0.066 -0.014 1 
0.374 -0.059 -0.014 1 
0.382 -0.032 -0.017 1 
0.414 -0.034 -0.028 1 
0.374 0.006 -0.014 1 
0.374 0.064 -0.015 1 
0.373 0.084 -0.015 1 
0.374 0.104 -0.016 1 
0.37 0.114 -0.014 1 
0.371 0.124 -0.015 1 
0.371 0.134 -0.015 1 
0.37 0.163 -0.016 1 
0.362 0.224 -0.017 1 
0.362 0.226 -0.017 1 
0.396 -0.255 -0.025 1 
0.379 -0.233 -0.019 1 
0.398 -0.249 -0.025 1 
0.393 -0.239 -0.023 1 
0.392 -0.228 -0.022 1 
0.384 -0.195 -0.019 1 
0.382 -0.095 -0.015 1 
0.384 -0.089 -0.016 1 
0.383 -0.075 -0.016 1 
0.379 -0.066 -0.014 1 
0.379 -0.062 -0.014 1 
0.382 -0.055 -0.015 1 
0.432 -0.037 -0.032 1 
0.382 0.014 -0.015 1 
0.383 0.023 -0.016 1 
0.38 0.042 -0.015 1 
0.382 0.053 -0.016 1 
0.38 0.064 -0.015 1 
0.379 0.073 -0.015 1 
0.379 0.083 -0.015 1 
0.379 0.113 -0.016 1 
0.374 0.14 -0.015 1 
0.373 0.143 -0.014 1 
0.373 0.145 -0.014 1 
0.371 0.184 -0.016 1 
0.358 0.047 -0.014 1 
0.394 -0.26 -0.022 1 
0.394 -0.217 -0.02 1 
0.393 -0.205 -0.02 1 
0.39 -0.125 -0.017 1 
0.392 -0.116 -0.017 1 
0.391 -0.107 -0.017 1 
0.389 -0.075 -0.016 1 
0.39 -0.055 -0.016 1 
0.39 -0.033 -0.016 1 
0.297 -0.015 0.014 1 
0.298 -0.005 0.013 1 
0.298 0.002 0.013 1 
0.381 0.096 -0.014 1 
0.384 0.101 -0.015 1 
0.382 0.122 -0.015 1 
0.381 0.128 -0.015 1 
0.38 0.133 -0.014 1 
0.38 0.138 -0.015 1 
0.378 0.142 -0.014 1 
0.383 0.163 -0.016 1 
0.374 0.218 -0.016 1 
0.374 0.234 -0.017 1 
0.406 -0.28 -0.025 1 
0.404 -0.266 -0.023 1 
0.403 -0.257 -0.023 1 
0.382 -0.215 -0.021 1 
0.4 -0.225 -0.02 1 
0.394 -0.185 -0.017 1 
0.394 -0.156 -0.016 1 
0.394 -0.066 -0.015 1 
0.394 -0.054 -0.015 1 
0.392 -0.045 -0.014 1 
0.393 -0.042 -0.014 1 
0.383 0.006 -0.012 1 
0.364 -0.145 -0.018 1 
0.393 0.033 -0.015 1 
0.394 0.053 -0.015 1 
0.393 0.063 -0.015 1 
0.391 0.073 -0.015 1 
0.39 0.077 -0.014 1 
0.391 0.083 -0.015 1 
0.39 0.091 -0.015 1 
0.389 0.093 -0.014 1 
0.388 0.099 -0.014 1 
0.39 0.104 -0.015 1 
0.391 0.113 -0.015 1 
0.387 0.129 -0.015 1 
0.383 0.156 -0.014 1 
0.374 0.154 -0.015 1 
0.383 0.234 -0.017 1 
0.378 0.241 -0.016 1 
0.401 -0.215 -0.018 1 
0.399 -0.206 -0.017 1 
0.4 -0.167 -0.016 1 
0.401 -0.156 -0.016 1 
0.402 -0.105 -0.016 1 
0.4 -0.096 -0.015 1 
0.4 -0.075 -0.015 1 
0.399 -0.07 -0.015 1 
0.399 -0.066 -0.014 1 
0.401 -0.056 -0.015 1 
0.401 -0.052 -0.015 1 
0.399 -0.045 -0.014 1 
0.399 -0.039 -0.014 1 
0.4 -0.037 -0.015 1 
0.47 -0.039 -0.036 1 
0.364 0.072 -0.015 1 
0.399 0.023 -0.015 1 
0.395 0.121 -0.015 1 
0.394 0.123 -0.014 1 
0.392 0.132 -0.014 1 
0.392 0.137 -0.014 1 
0.393 0.144 -0.015 1 
0.392 0.152 -0.015 1 
0.391 0.153 -0.014 1 
0.392 0.163 -0.015 1 
0.389 0.184 -0.015 1 
0.384 0.245 -0.016 1 
0.414 -0.266 -0.021 1 
0.414 -0.26 -0.021 1 
0.413 -0.238 -0.02 1 
0.406 -0.217 -0.017 1 
0.403 -0.187 -0.016 1 
0.403 -0.178 -0.015 1 
0.405 -0.152 -0.015 1 
0.403 -0.146 -0.015 1 
0.404 -0.142 -0.015 1 
0.476 -0.046 -0.035 1 
0.403 0.017 -0.014 1 
0.402 0.034 -0.014 1 
0.404 0.047 -0.014 1 
0.403 0.064 -0.014 1 
0.402 0.072 -0.014 1 
0.403 0.094 -0.015 1 
0.403 0.103 -0.015 1 
0.402 0.111 -0.015 1 
0.374 -0.112 -0.017 1 
0.399 0.123 -0.014 1 
0.394 0.157 -0.013 1 
0.393 0.194 -0.014 1 
0.392 0.202 -0.014 1 
0.392 0.205 -0.014 1 
0.391 0.22 -0.015 1 
0.392 0.244 -0.016 1 
0.414 -0.289 -0.02 1 
0.412 -0.207 -0.017 1 
0.407 -0.195 -0.015 1 
0.41 -0.186 -0.015 1 
0.414 -0.167 -0.016 1 
0.409 -0.145 -0.014 1 
0.41 -0.139 -0.014 1 
0.353 0.192 -0.016 1 
0.411 -0.137 -0.015 1 
0.41 -0.134 -0.014 1 
0.414 -0.125 -0.015 1 
0.415 -0.111 -0.015 1 
0.413 -0.106 -0.015 1 
0.414 -0.095 -0.015 1 
0.415 -0.093 -0.015 1 
0.414 -0.086 -0.015 1 
0.414 -0.079 -0.015 1 
0.413 -0.076 -0.014 1 
0.414 -0.068 -0.015 1 
0.413 -0.065 -0.014 1 
0.413 -0.045 -0.014 1 
0.412 0.018 -0.014 1 
0.41 0.053 -0.014 1 
0.41 0.064 -0.014 1 
0.41 0.073 -0.014 1 
0.41 0.084 -0.014 1 
0.409 0.094 -0.014 1 
0.403 0.134 -0.013 1 
0.404 0.144 -0.014 1 
0.404 0.153 -0.014 1 
0.404 0.164 -0.014 1 
0.403 0.183 -0.015 1 
0.402 0.189 -0.015 1 
0.396 0.194 -0.013 1 
0.402 0.223 -0.016 1 
0.4 0.234 -0.016 1 
0.397 0.244 -0.015 1 
0.394 0.262 -0.015 1 
0.423 -0.296 -0.02 1 
0.423 -0.287 -0.02 1 
0.424 -0.27 -0.019 1 
0.423 -0.258 -0.019 1 
0.423 -0.247 -0.018 1 
0.423 -0.236 -0.018 1 
0.422 -0.225 -0.017 1 
0.42 -0.216 -0.017 1 
0.417 -0.162 -0.015 1 
0.419 -0.118 -0.014 1 
0.418 -0.096 -0.014 1 
0.42 -0.076 -0.014 1 
0.419 -0.065 -0.014 1 
0.384 -0.186 -0.018 1 
0.39 -0.147 -0.017 1 
0.395 0.1 -0.014 1 
0.421 -0.044 -0.014 1 
0.364 -0.038 -0.016 1 
0.397 0.006 -0.008 1 
0.372 0.033 -0.016 1 
0.414 0.011 -0.013 1 
0.409 0.133 -0.013 1 
0.403 0.212 -0.013 1 
0.406 0.232 -0.015 1 
0.403 0.253 -0.015 1 
0.402 0.262 -0.015 1 
0.4 0.268 -0.015 1 
0.423 -0.195 -0.015 1 
0.423 -0.185 -0.014 1 
0.422 -0.175 -0.014 1 
0.424 -0.156 -0.014 1 
0.421 -0.147 -0.013 1 
0.422 -0.136 -0.013 1 
0.424 -0.13 -0.014 1 
0.37 0.214 -0.017 1 
0.423 -0.105 -0.013 1 
0.424 -0.057 -0.013 1 
0.424 -0.047 -0.013 1 
0.43 -0.044 -0.014 1 
0.469 -0.047 -0.025 1 
0.477 -0.046 -0.027 1 
0.424 0.023 -0.013 1 
0.417 -0.176 -0.015 1 
0.423 0.044 -0.013 1 
0.422 0.053 -0.013 1 
0.42 0.064 -0.012 1 
0.42 0.073 -0.012 1 
0.42 0.094 -0.013 1 
0.419 0.103 -0.013 1 
0.413 0.144 -0.012 1 
0.414 0.154 -0.012 1 
0.41 0.164 -0.012 1 
0.363 0.164 -0.016 1 
0.414 0.174 -0.013 1 
0.414 0.194 -0.013 1 
0.398 0.059 -0.015 1 
0.41 0.213 -0.013 1 
0.412 0.238 -0.014 1 
0.412 0.243 -0.015 1 
0.411 0.272 -0.016 1 
0.408 0.277 -0.015 1 
0.434 -0.308 -0.018 1 
0.433 -0.286 -0.017 1 
0.432 -0.276 -0.017 1 
0.431 -0.255 -0.016 1 
0.433 -0.245 -0.016 1 
0.431 -0.227 -0.015 1 
0.432 -0.215 -0.015 1 
0.432 -0.213 -0.015 1 
0.381 -0.072 -0.015 1 
0.429 -0.195 -0.014 1 
0.427 -0.186 -0.013 1 
0.429 -0.177 -0.013 1 
0.43 -0.157 -0.013 1 
0.43 -0.115 -0.013 1 
0.429 -0.105 -0.012 1 
0.429 -0.096 -0.012 1 
0.432 -0.075 -0.013 1 
0.43 -0.065 -0.012 1 
0.43 -0.055 -0.012 1 
0.352 0.175 -0.014 1 
0.433 -0.046 -0.013 1 
0.455 -0.045 -0.019 1 
0.475 -0.046 -0.024 1 
0.478 -0.043 -0.025 1 
0.314 -0.015 0.018 1 
0.353 0.144 -0.015 1 
0.432 0.034 -0.013 1 
0.431 0.043 -0.013 1 
0.424 0.124 -0.012 1 
0.418 0.154 -0.011 1 
0.419 0.162 -0.011 1 
0.418 0.172 -0.012 1 
0.416 0.28 -0.015 1 
0.381 0.124 -0.014 1 
0.414 0.284 -0.014 1 
0.438 -0.276 -0.015 1 
0.433 -0.251 -0.013 1 
0.434 -0.222 -0.013 1 
0.434 -0.209 -0.013 1 
0.432 -0.146 -0.011 1 
0.434 -0.134 -0.011 1 
0.434 -0.088 -0.011 1 
0.449 -0.044 -0.015 1 
0.473 -0.045 -0.021 1 
0.323 -0.015 0.017 1 
0.324 -0.01 0.016 1 
0.33 -0.002 0.015 1 
0.333 0.001 0.014 1 
0.413 0.024 -0.015 1 
0.336 0.003 0.013 1 
0.434 0.053 -0.011 1 
0.434 0.063 -0.011 1 
0.433 0.072 -0.011 1 
0.433 0.084 -0.011 1 
0.414 -0.057 -0.015 1 
0.432 0.094 -0.011 1 
0.43 0.124 -0.011 1 
0.429 0.144 -0.011 1 
0.424 0.184 -0.011 1 
0.424 0.194 -0.011 1 
0.421 0.204 -0.011 1 
0.42 0.224 -0.011 1 
0.421 0.233 -0.012 1 
0.419 0.242 -0.011 1 
0.422 0.253 -0.013 1 
0.424 0.272 -0.014 1 
0.421 0.283 -0.014 1 
0.427 0.299 -0.016 1 
0.441 -0.316 -0.015 1 
0.419 -0.208 -0.016 1 
0.445 -0.311 -0.016 1 
0.443 -0.299 -0.015 1 
0.442 -0.295 -0.014 1 
0.441 -0.288 -0.014 1 
0.433 -0.265 -0.011 1 
0.434 -0.26 -0.011 1 
0.413 0.103 -0.013 1 
0.44 -0.238 -0.012 1 
0.443 -0.226 -0.013 1 
0.442 -0.215 -0.012 1 
0.444 -0.198 -0.012 1 
0.442 -0.185 -0.012 1 
0.442 -0.178 -0.012 1 
0.441 -0.166 -0.011 1 
0.439 -0.155 -0.011 1 
0.44 -0.145 -0.011 1 
0.442 -0.136 -0.011 1 
0.44 -0.115 -0.01 1 
0.441 -0.105 -0.01 1 
0.441 -0.095 -0.01 1 
0.421 0.083 -0.013 1 
0.441 -0.085 -0.01 1 
0.442 -0.075 -0.01 1 
0.442 -0.065 -0.01 1 
0.444 -0.058 -0.011 1 
0.464 -0.044 -0.016 1 
0.476 -0.04 -0.019 1 
0.327 -0.015 0.017 1 
0.33 -0.011 0.016 1 
0.349 0.003 0.012 1 
0.441 0.032 -0.01 1 
0.442 0.042 -0.011 1 
0.44 0.054 -0.01 1 
0.438 0.064 -0.01 1 
0.438 0.073 -0.01 1 
0.439 0.084 -0.01 1 
0.434 0.154 -0.01 1 
0.434 0.162 -0.011 1 
0.431 0.183 -0.01 1 
0.427 0.233 -0.011 1 
0.424 0.292 -0.012 1 
0.424 0.295 -0.012 1 
0.449 -0.329 -0.015 1 
0.443 -0.266 -0.011 1 
0.444 -0.249 -0.011 1 
0.449 -0.095 -0.01 1 
0.466 -0.042 -0.014 1 
0.473 -0.037 -0.015 1 
0.468 -0.034 -0.014 1 
0.344 -0.012 0.014 1 
0.362 0.007 -0.014 1 
0.403 -0.236 -0.022 1 
0.407 0.223 -0.015 1 
0.361 -0.006 0.01 1 
0.404 -0.275 -0.024 1 
0.359 0.002 0.011 1 
0.441 0.122 -0.009 1 
0.442 0.133 -0.009 1 
0.44 0.163 -0.009 1 
0.433 0.192 -0.008 1 
0.432 0.224 -0.009 1 
0.432 0.243 -0.01 1 
0.431 0.253 -0.01 1 
0.434 0.261 -0.011 1 
0.432 0.274 -0.011 1 
0.432 0.283 -0.011 1 
0.454 -0.317 -0.012 1 
0.451 -0.277 -0.01 1 
0.452 -0.236 -0.01 1 
0.454 -0.226 -0.01 1 
0.453 -0.215 -0.01 1 
0.451 -0.205 -0.009 1 
0.45 -0.196 -0.009 1 
0.452 -0.187 -0.009 1 
0.453 -0.157 -0.009 1 
0.453 -0.147 -0.009 1 
0.453 -0.136 -0.008 1 
0.453 -0.115 -0.008 1 
0.454 -0.107 -0.008 1 
0.443 -0.205 -0.012 1 
0.454 -0.086 -0.008 1 
0.453 -0.065 -0.008 1 
0.454 -0.058 -0.008 1 
0.454 -0.027 -0.008 1 
0.446 -0.006 -0.006 1 
0.448 0.003 -0.007 1 
0.43 -0.165 -0.013 1 
0.451 0.023 -0.008 1 
0.452 0.034 -0.008 1 
0.44 0.144 -0.009 1 
0.452 0.044 -0.008 1 
0.451 0.054 -0.008 1 
0.45 0.064 -0.008 1 
0.451 0.074 -0.008 1 
0.45 0.084 -0.008 1 
0.443 0.173 -0.008 1 
0.441 0.204 -0.008 1 
0.44 0.214 -0.008 1 
0.434 0.303 -0.01 1 
0.433 0.305 -0.009 1 
0.38 -0.205 -0.02 1 
0.45 -0.329 -0.009 1 
0.453 -0.257 -0.008 1 
0.457 -0.077 -0.006 1 
0.458 0.003 -0.007 1 
0.456 0.024 -0.006 1 
0.455 0.062 -0.006 1 
0.454 0.093 -0.006 1 
0.452 0.114 -0.006 1 
0.452 0.132 -0.006 1 
0.452 0.153 -0.007 1 
0.444 0.222 -0.007 1 
0.443 0.244 -0.007 1 
0.442 0.272 -0.007 1 
0.441 0.283 -0.008 1 
0.44 0.294 -0.008 1 
0.442 0.302 -0.009 1 
0.407 -0.04 -0.015 1 
0.439 0.312 -0.008 1 
0.383 0.183 -0.015 1 
0.464 -0.315 -0.009 1 
0.46 -0.255 -0.006 1 
0.461 -0.176 -0.005 1 
0.461 -0.156 -0.005 1 
0.376 -0.243 -0.025 1 
0.462 -0.057 -0.005 1 
0.462 -0.038 -0.005 1 
0.46 0.042 -0.005 1 
0.456 0.153 -0.005 1 
0.453 0.163 -0.005 1 
0.451 0.172 -0.004 1 
0.451 0.18 -0.004 1 
0.393 0.232 -0.016 1 
0.451 0.183 -0.005 1 
0.451 0.191 -0.005 1 
0.452 0.203 -0.005 1 
0.45 0.213 -0.005 1 
0.449 0.223 -0.005 1 
0.451 0.234 -0.006 1 
0.45 0.244 -0.006 1 
0.449 0.252 -0.006 1 
0.448 0.263 -0.006 1 
0.447 0.274 -0.006 1 
0.448 0.284 -0.006 1 
0.443 0.316 -0.007 1 
0.464 -0.335 -0.007 1 
0.43 0.132 -0.011 1 
0.443 0.264 -0.007 1 
0.466 -0.327 -0.007 1 
0.362 -0.075 -0.016 1 
0.466 -0.317 -0.006 1 
0.454 -0.05 -0.011 1 
0.466 -0.307 -0.006 1 
0.464 -0.295 -0.005 1 
0.463 -0.266 -0.004 1 
0.464 -0.255 -0.004 1 
0.464 -0.226 -0.004 1 
0.463 -0.217 -0.004 1 
0.464 -0.206 -0.004 1 
0.463 -0.185 -0.003 1 
0.463 -0.146 -0.003 1 
0.454 0.233 -0.004 1 
0.453 0.244 -0.004 1 
0.454 0.253 -0.004 1 
0.452 0.264 -0.004 1 
0.452 0.282 -0.004 1 
0.452 0.294 -0.005 1 
0.452 0.304 -0.005 1 
0.447 0.321 -0.005 1 
0.464 -0.345 -0.004 1 
0.464 -0.342 -0.004 1 
0.464 -0.177 -0.001 1 
0.403 -0.195 -0.016 1 
0.464 -0.163 0 1 
0.464 -0.116 0 1 
0.464 -0.076 0 1 
0.452 0.323 -0.003 1 
0.465 -0.087 0.002 1 
0.465 -0.076 0.002 1 
0.465 -0.071 0.002 1 
0.454 -0.295 -0.012 1 
0.464 -0.065 0.002 1 
0.464 -0.015 0.002 1 
0.464 0.014 0.002 1 
0.463 0.024 0.002 1 
0.461 0.093 0.002 1 
0.46 0.103 0.002 1 
0.469 -0.256 0.002 1 
0.467 -0.225 0.003 1 
0.467 -0.216 0.003 1 
0.468 -0.205 0.003 1 
0.468 -0.197 0.003 1 
0.467 -0.187 0.003 1 
0.466 -0.175 0.004 1 
0.466 -0.167 0.004 1 
0.465 -0.155 0.004 1 
0.465 -0.147 0.004 1 
0.374 -0.206 -0.022 1 
0.417 0.114 -0.012 1 
0.464 -0.105 0.004 1 
0.464 -0.1 0.004 1 
0.46 0.114 0.004 1 
0.461 0.123 0.004 1 
0.459 0.152 0.004 1 
0.46 0.164 0.004 1 
0.46 0.183 0.003 1 
0.46 0.192 0.003 1 
0.46 0.203 0.003 1 
0.46 0.212 0.003 1 
0.46 0.223 0.003 1 
0.459 0.231 0.003 1 
0.461 0.241 0.002 1 
0.46 0.274 0.002 1 
0.473 -0.345 0.002 1 
0.474 -0.339 0.002 1 
0.36 0.103 -0.014 1 
0.475 -0.336 0.002 1 
0.424 -0.087 -0.013 1 
0.475 -0.333 0.002 1 
0.474 -0.325 0.003 1 
0.383 0.154 -0.014 1 
0.473 -0.317 0.003 1 
0.472 -0.306 0.003 1 
0.471 -0.286 0.004 1 
0.47 -0.279 0.004 1 
0.459 0.282 0.004 1 
0.46 0.292 0.004 1 
0.459 0.301 0.004 1 
0.459 0.314 0.004 1 
0.46 0.321 0.003 1 
0.394 0.014 -0.015 1 
0.46 0.332 0.003 1 
0.394 0.043 -0.015 1 
0.456 0.134 -0.005 1 
0.46 -0.195 -0.005 1 
0.455 0.091 -0.006 1 
0.455 0.073 -0.006 1 
0.455 0.052 -0.006 1 
0.459 -0.007 -0.007 1 
0.458 -0.025 -0.007 1 
0.462 -0.046 -0.005 1 
0.458 -0.067 -0.006 1 
0.414 0.201 -0.011 1 
0.38 -0.146 -0.018 1 
0.461 -0.086 -0.005 1 
0.462 -0.105 -0.005 1 
0.461 -0.126 -0.005 1 
0.461 -0.145 -0.005 1 
0.373 -0.029 -0.017 1 
0.461 -0.167 -0.005 1 
0.46 -0.186 -0.005 1 
0.462 -0.225 -0.006 1 
0.454 -0.305 -0.012 1 
0.462 -0.247 -0.007 1 
0.444 0.253 -0.007 1 
0.464 -0.286 -0.005 1 
0.397 0.174 -0.015 1 
0.462 -0.326 -0.009 1 
0.434 -0.139 -0.012 1 
0.404 -0.087 -0.016 1 
0.444 -0.276 -0.012 1 
0.411 0.113 -0.013 1 
0.372 0.174 -0.015 1 
0.413 0.123 -0.013 1 
0.373 0.238 -0.017 1 
0.39 0.173 -0.015 1 
0.431 0.103 -0.011 1 
0.444 0.093 -0.009 1 
0.443 0.103 -0.009 1 
0.451 0.142 -0.006 1 
0.433 0.174 -0.011 1 
0.47 -0.245 0.002 1 
0.464 -0.135 0 1 
0.453 0.122 -0.006 1 
0.44 0.012 -0.01 1 
0.465 -0.3 -0.006 1 
0.442 -0.256 -0.011 1 
0.374 0.073 -0.015 1 
0.362 -0.066 -0.016 1 
0.44 0.152 -0.009 1 
0.353 0.163 -0.014 1 
0.414 -0.039 -0.014 1 
0.464 -0.169 0 1 
0.463 0.338 0.002 1 
0.461 -0.218 -0.006 1 
0.384 -0.036 -0.016 1 
0.45 0.314 -0.005 1 
0.461 0.144 0.004 1 
0.393 -0.196 -0.017 1 
0.405 0.058 -0.015 1 
0.372 -0.215 -0.024 1 
0.444 -0.046 -0.013 1 
0.432 0.292 -0.011 1 
0.431 0.204 -0.008 1 
0.434 0.012 -0.011 1 
0.424 -0.276 -0.02 1 
0.395 0.008 -0.015 1 
0.43 0.112 -0.011 1 
0.424 -0.043 -0.015 1 
0.453 0.224 -0.003 1 
0.384 0.089 -0.015 1 
0.449 -0.016 -0.007 1 
0.461 -0.115 -0.005 1 
0.354 0.204 -0.017 1 
0.374 -0.228 -0.025 1 
0.401 0.213 -0.015 1 
0.461 -0.137 -0.005 1 
0.414 -0.247 -0.021 1 
0.388 0.122 -0.015 1 
0.464 0.003 0.002 1 
0.469 -0.236 0.002 1 
0.411 0.224 -0.014 1 
0.409 -0.229 -0.018 1 
0.424 -0.166 -0.014 1 
0.394 -0.096 -0.015 1 
0.433 -0.237 -0.016 1 
0.372 0.094 -0.015 1 
0.431 -0.266 -0.016 1 
0.47 -0.266 0.002 1 
0.387 0.202 -0.015 1 
0.464 0.032 0.002 1 
0.464 -0.025 0.002 1 
0.394 0.023 -0.015 1 
0.453 -0.125 -0.008 1 
0.413 -0.059 -0.014 1 
0.381 0.204 -0.015 1 
0.424 0.134 -0.012 1 
0.451 -0.265 -0.01 1 
0.418 -0.165 -0.015 1 
0.464 -0.252 -0.004 1 
0.393 0.25 -0.017 1 
0.458 -0.017 -0.007 1 
0.403 0.178 -0.014 1 
0.424 0.014 -0.013 1 
0.46 0.172 0.004 1 
0.407 0.254 -0.014 1 
0.391 0.006 -0.008 1 
0.413 0.027 -0.015 1 
0.465 -0.095 0.002 1 
0.472 -0.296 0.004 1 
0.393 -0.241 -0.026 1 
0.358 0.172 -0.015 1 
0.337 -0.013 0.016 1 
0.464 -0.27 -0.005 1 
0.399 0.052 -0.015 1 
0.382 0.033 -0.015 1 
0.414 0.179 -0.013 1 
0.372 0.113 -0.015 1 
0.409 0.044 -0.013 1 
0.433 -0.295 -0.018 1 
0.379 0.154 -0.015 1 
0.422 0.258 -0.013 1 
0.42 0.144 -0.011 1 
0.443 -0.293 -0.015 1 
0.362 0.08 -0.015 1 
0.414 0.256 -0.013 1 
0.401 0.113 -0.014 1 
0.441 0.022 -0.01 1 
0.461 0.253 0.002 1 
0.394 -0.038 -0.015 1 
0.454 -0.286 -0.011 1 
0.399 0.044 -0.015 1 
0.394 -0.183 -0.017 1 
0.413 -0.176 -0.016 1 
0.381 -0.175 -0.019 1 
0.46 0.262 0.002 1 
0.399 -0.064 -0.014 1 
0.361 -0.096 -0.016 1 
0.411 -0.155 -0.015 1 
0.404 0.084 -0.015 1 
0.431 0.024 -0.013 1 
0.463 -0.007 0.002 1 
0.401 -0.125 -0.016 1 
0.464 -0.125 0 1 
0.453 -0.076 -0.008 1 
0.406 0.054 -0.015 1 
0.393 -0.246 -0.026 1 
0.409 -0.115 -0.016 1 
0.359 -0.051 -0.014 1 
0.452 -0.176 -0.009 1 
0.424 -0.189 -0.015 1 
0.441 0.114 -0.009 1 
0.395 -0.267 -0.025 1 
0.403 0.171 -0.014 1 
0.444 -0.307 -0.015 1 
0.44 -0.125 -0.01 1 
0.354 0.183 -0.016 1 
0.451 -0.045 -0.023 1 
0.38 0.224 -0.016 1 
0.463 -0.275 -0.005 1 
0.461 0.011 -0.005 1 
0.42 0.273 -0.015 1 
0.393 0.213 -0.015 1 
0.374 -0.157 -0.018 1 
0.464 -0.087 0 1 
0.452 0.273 -0.004 1 
0.451 0.29 -0.004 1 
0.366 0.091 -0.014 1 
0.403 0.081 -0.014 1 
0.441 0.193 -0.008 1 
0.462 0.083 0.002 1 
0.414 -0.052 -0.015 1 
0.381 0.193 -0.015 1 
0.455 0.083 -0.006 1 
0.403 0.043 -0.014 1 
0.41 0.033 -0.014 1 
0.36 -0.116 -0.016 1 
0.38 0.214 -0.016 1 
0.423 0.032 -0.013 1 
0.394 -0.094 -0.015 1 
0.414 0.232 -0.012 1 
0.42 -0.116 -0.015 1 
0.402 0.204 -0.013 1 
0.462 -0.097 -0.005 1 
0.433 0.214 -0.009 1 
0.364 0.046 -0.015 1 
0.374 0.132 -0.014 1 
0.457 0.034 -0.006 1 
0.39 -0.166 -0.018 1 
0.37 -0.065 -0.015 1 
0.37 0.044 -0.015 1 
0.413 -0.282 -0.022 1 
0.464 -0.06 0.002 1 
0.459 -0.205 -0.005 1 
0.383 0.094 -0.014 1 
0.442 -0.225 -0.015 1 
0.372 0.193 -0.016 1 
0.454 -0.249 -0.008 1 
0.399 0.027 -0.015 1 
0.452 -0.165 -0.009 1 
0.447 0.173 -0.006 1 
0.378 0.173 -0.015 1 
0.456 0.156 -0.005 1 
0.464 -0.197 -0.004 1 
0.452 0.013 -0.008 1 
0.453 0.104 -0.006 1 
0.444 0.225 -0.007 1 
0.412 0.183 -0.015 1 
0.403 -0.115 -0.016 1 
0.474 -0.04 -0.026 1 
0.387 0.193 -0.015 1 
0.462 -0.236 -0.006 1 
0.404 -0.245 -0.022 1 
0.38 -0.136 -0.018 1 
0.42 0.211 -0.011 1 
0.464 -0.308 -0.009 1 
0.393 -0.136 -0.018 1 
0.374 0.204 -0.017 1 
0.364 0.214 -0.017 1 
0.373 -0.166 -0.018 1 
0.41 0.191 -0.015 1 
0.441 0.182 -0.008 1 
0.382 -0.045 -0.015 1 
0.395 0.093 -0.014 1 
0.468 -0.175 0.154 3 
0.47 -0.207 0.153 3 
0.478 -0.325 0.162 3 
0.479 -0.336 0.163 3 
0.479 -0.347 0.163 3 
0.462 0.337 0.154 3 
0.462 0.333 0.154 3 
0.46 0.234 0.062 3 
0.463 0.314 0.154 3 
0.463 0.304 0.153 3 
0.462 0.154 0.133 3 
0.463 0.291 0.153 3 
0.463 0.282 0.153 3 
0.463 0.073 0.143 3 
0.462 -0.006 0.092 3 
0.462 0.272 0.152 3 
0.464 -0.022 0.148 3 
0.464 -0.025 0.148 3 
0.466 -0.195 0.014 3 
0.468 -0.186 0.152 3 
0.469 -0.195 0.152 3 
0.471 -0.226 0.153 3 
0.466 -0.077 0.152 3 
0.462 0.244 0.154 3 
0.461 0.232 0.153 3 
0.461 0.223 0.153 3 
0.462 0.212 0.153 3 
0.461 0.274 0.062 3 
0.463 0.192 0.153 3 
0.462 0.183 0.152 3 
0.462 0.174 0.152 3 
0.466 -0.047 0.152 3 
0.466 -0.055 0.152 3 
0.458 0.333 0.062 3 
0.468 -0.166 0.154 3 
0.467 -0.085 0.152 3 
0.468 -0.096 0.153 3 
0.47 -0.245 0.094 3 
0.468 -0.107 0.153 3 
0.468 -0.116 0.153 3 
0.468 -0.127 0.153 3 
0.467 -0.135 0.153 3 
0.468 -0.146 0.154 3 
0.468 -0.155 0.154 3 
0.462 0.283 0.132 3 
0.464 -0.006 0.143 3 
0.462 0.102 0.143 3 
0.462 0.094 0.143 3 
0.463 0.084 0.143 3 
0.463 0.062 0.143 3 
0.463 0.054 0.143 3 
0.462 0.032 0.143 3 
0.462 0.022 0.143 3 
0.463 0.014 0.143 3 
0.465 -0.186 0.014 3 
0.463 0.003 0.143 3 
0.476 -0.305 0.134 3 
0.462 0.113 0.143 3 
0.465 -0.017 0.143 3 
0.464 -0.022 0.143 3 
0.465 -0.031 0.143 3 
0.465 -0.047 0.143 3 
0.466 -0.055 0.144 3 
0.465 -0.065 0.144 3 
0.466 -0.076 0.144 3 
0.466 -0.085 0.144 3 
0.476 -0.305 0.152 3 
0.464 0.003 0.132 3 
0.477 -0.316 0.152 3 
0.475 -0.295 0.154 3 
0.461 0.153 0.033 3 
0.458 0.242 0.014 3 
0.471 -0.235 0.154 3 
0.472 -0.245 0.154 3 
0.465 0.333 0.152 3 
0.473 -0.255 0.152 3 
0.473 -0.267 0.152 3 
0.473 -0.277 0.153 3 
0.462 0.204 0.063 3 
0.474 -0.287 0.153 3 
0.475 -0.291 0.154 3 
0.471 -0.217 0.153 3 
0.46 0.222 0.144 3 
0.461 0.211 0.144 3 
0.462 0.194 0.144 3 
0.463 0.183 0.144 3 
0.462 0.174 0.144 3 
0.463 0.163 0.144 3 
0.462 0.154 0.144 3 
0.463 0.144 0.144 3 
0.462 0.132 0.143 3 
0.461 0.124 0.143 3 
0.464 0.343 0.164 3 
0.47 -0.185 0.164 3 
0.466 -0.106 0.104 3 
0.469 -0.256 0.052 3 
0.471 -0.197 0.164 3 
0.471 -0.206 0.164 3 
0.466 -0.167 0.034 3 
0.473 -0.277 0.167 3 
0.46 0.183 0.033 3 
0.479 -0.337 0.172 3 
0.479 -0.347 0.172 3 
0.479 -0.355 0.173 3 
0.469 -0.175 0.163 3 
0.464 0.333 0.164 3 
0.46 0.271 0.104 3 
0.465 0.327 0.164 3 
0.461 0.334 0.122 3 
0.464 0.322 0.163 3 
0.463 0.311 0.162 3 
0.462 0.134 0.073 3 
0.464 0.041 0.157 3 
0.464 0.022 0.157 3 
0.464 0.014 0.157 3 
0.462 0.204 0.084 3 
0.465 -0.106 0.023 3 
0.463 0.273 0.164 3 
0.463 0.264 0.163 3 
0.463 0.254 0.163 3 
0.463 0.242 0.163 3 
0.462 0.233 0.162 3 
0.463 0.224 0.162 3 
0.464 0.054 0.159 3 
0.464 0.033 0.159 3 
0.466 -0.136 0.104 3 
0.469 -0.235 0.022 3 
0.464 -0.006 0.159 3 
0.464 0.001 0.157 3 
0.464 -0.017 0.159 3 
0.468 -0.116 0.161 3 
0.469 -0.127 0.162 3 
0.469 -0.136 0.162 3 
0.48 -0.355 0.164 3 
0.468 -0.146 0.162 3 
0.477 -0.358 0.133 3 
0.469 -0.155 0.163 3 
0.47 -0.276 0.083 3 
0.468 -0.166 0.162 3 
0.466 -0.036 0.154 3 
0.463 0.033 0.154 3 
0.462 0.094 0.103 3 
0.475 -0.316 0.102 3 
0.463 0.022 0.154 3 
0.469 -0.247 0.033 3 
0.464 0.014 0.154 3 
0.464 0.003 0.154 3 
0.464 -0.006 0.154 3 
0.465 -0.014 0.154 3 
0.465 -0.017 0.154 3 
0.465 -0.025 0.154 3 
0.464 0.043 0.154 3 
0.465 -0.065 0.154 3 
0.474 -0.287 0.162 3 
0.459 0.224 0.133 3 
0.464 -0.124 0.02 3 
0.476 -0.293 0.163 3 
0.476 -0.296 0.163 3 
0.474 -0.348 0.064 3 
0.477 -0.307 0.164 3 
0.478 -0.315 0.164 3 
0.462 0.262 0.154 3 
0.478 -0.335 0.153 3 
0.462 0.157 0.154 3 
0.472 -0.215 0.162 3 
0.472 -0.227 0.162 3 
0.465 -0.136 0.093 3 
0.472 -0.236 0.163 3 
0.473 -0.246 0.163 3 
0.473 -0.255 0.163 3 
0.461 0.244 0.043 3 
0.473 -0.267 0.164 3 
0.473 -0.277 0.164 3 
0.461 0.204 0.114 3 
0.465 0.344 0.161 3 
0.462 0.253 0.154 3 
0.462 0.154 0.154 3 
0.463 0.138 0.154 3 
0.463 0.133 0.154 3 
0.463 0.122 0.154 3 
0.463 0.114 0.154 3 
0.463 0.094 0.154 3 
0.463 0.084 0.154 3 
0.463 0.073 0.154 3 
0.464 0.062 0.154 3 
0.464 0.054 0.154 3 
0.461 0.153 0.124 3 
0.464 -0.007 0.052 3 
0.47 -0.246 0.134 3 
0.471 -0.256 0.134 3 
0.464 -0.132 0.023 3 
0.472 -0.266 0.132 3 
0.472 -0.275 0.132 3 
0.475 -0.287 0.133 3 
0.476 -0.295 0.134 3 
0.476 -0.315 0.134 3 
0.461 0.17 0.124 3 
0.461 0.164 0.124 3 
0.47 -0.236 0.134 3 
0.461 0.183 0.052 3 
0.462 0.143 0.124 3 
0.462 0.132 0.124 3 
0.474 -0.348 0.043 3 
0.462 0.124 0.124 3 
0.462 0.113 0.124 3 
0.462 0.102 0.124 3 
0.462 0.094 0.124 3 
0.463 0.083 0.124 3 
0.462 0.072 0.124 3 
0.462 0.064 0.124 3 
0.462 0.302 0.133 3 
0.467 -0.157 0.134 3 
0.467 -0.165 0.134 3 
0.478 -0.345 0.142 3 
0.477 -0.355 0.142 3 
0.462 0.339 0.134 3 
0.474 -0.296 0.113 3 
0.461 0.331 0.134 3 
0.471 -0.286 0.092 3 
0.462 0.322 0.134 3 
0.465 -0.114 0.004 3 
0.462 0.312 0.133 3 
0.462 0.054 0.124 3 
0.462 0.293 0.133 3 
0.461 0.273 0.132 3 
0.462 0.262 0.132 3 
0.464 -0.046 0.13 3 
0.468 -0.247 0.013 3 
0.468 -0.177 0.132 3 
0.469 -0.186 0.132 3 
0.47 -0.195 0.133 3 
0.47 -0.207 0.133 3 
0.471 -0.216 0.133 3 
0.471 -0.228 0.134 3 
0.466 -0.115 0.123 3 
0.464 -0.046 0.108 3 
0.46 0.224 0.123 3 
0.461 0.204 0.122 3 
0.461 0.193 0.122 3 
0.462 0.182 0.122 3 
0.465 -0.055 0.122 3 
0.464 -0.015 0.052 3 
0.465 -0.076 0.122 3 
0.466 -0.085 0.122 3 
0.466 -0.095 0.122 3 
0.466 -0.106 0.123 3 
0.46 0.233 0.123 3 
0.466 -0.126 0.123 3 
0.466 -0.137 0.123 3 
0.467 -0.145 0.123 3 
0.467 -0.157 0.123 3 
0.467 -0.165 0.123 3 
0.469 -0.177 0.124 3 
0.47 -0.195 0.124 3 
0.462 0.339 0.123 3 
0.461 0.321 0.122 3 
0.461 0.314 0.122 3 
0.465 -0.022 0.119 3 
0.472 -0.306 0.072 3 
0.462 0.043 0.124 3 
0.462 0.032 0.124 3 
0.462 0.024 0.124 3 
0.463 0.014 0.124 3 
0.463 0.003 0.124 3 
0.463 -0.006 0.124 3 
0.464 -0.017 0.124 3 
0.464 -0.025 0.124 3 
0.464 -0.036 0.124 3 
0.464 -0.046 0.124 3 
0.474 -0.286 0.13 3 
0.467 -0.146 0.134 3 
0.477 -0.326 0.132 3 
0.47 -0.276 0.044 3 
0.477 -0.336 0.132 3 
0.478 -0.348 0.133 3 
0.462 0.302 0.124 3 
0.462 0.293 0.124 3 
0.462 0.283 0.124 3 
0.462 0.274 0.124 3 
0.461 0.264 0.123 3 
0.461 0.243 0.123 3 
0.471 -0.256 0.143 3 
0.469 -0.195 0.144 3 
0.471 -0.205 0.144 3 
0.47 -0.216 0.144 3 
0.465 0.343 0.144 3 
0.474 -0.307 0.064 3 
0.461 0.332 0.142 3 
0.462 0.323 0.142 3 
0.464 -0.036 0.138 3 
0.471 -0.225 0.142 3 
0.47 -0.237 0.142 3 
0.471 -0.247 0.143 3 
0.468 -0.186 0.143 3 
0.472 -0.266 0.143 3 
0.473 -0.276 0.144 3 
0.468 0.346 0.142 3 
0.469 -0.186 0.124 3 
0.461 0.048 0.134 3 
0.474 -0.287 0.142 3 
0.462 0.064 0.023 3 
0.475 -0.291 0.142 3 
0.466 -0.207 0.014 3 
0.476 -0.295 0.142 3 
0.462 0.204 0.092 3 
0.462 0.262 0.143 3 
0.464 -0.025 0.143 3 
0.479 -0.346 0.154 3 
0.478 -0.356 0.154 3 
0.476 -0.335 0.114 3 
0.466 0.344 0.147 3 
0.461 0.312 0.144 3 
0.462 0.303 0.144 3 
0.461 0.292 0.144 3 
0.461 0.283 0.143 3 
0.46 -0.007 0.013 3 
0.462 0.274 0.144 3 
0.476 -0.305 0.143 3 
0.462 0.253 0.143 3 
0.461 0.243 0.142 3 
0.46 0.233 0.142 3 
0.467 -0.107 0.142 3 
0.467 -0.115 0.142 3 
0.467 -0.126 0.142 3 
0.467 -0.146 0.142 3 
0.468 -0.155 0.143 3 
0.468 -0.166 0.143 3 
0.468 -0.177 0.143 3 
0.464 -0.036 0.132 3 
0.463 0.073 0.132 3 
0.462 0.064 0.132 3 
0.462 0.043 0.132 3 
0.461 0.244 0.062 3 
0.462 0.032 0.132 3 
0.462 0.024 0.132 3 
0.462 0.014 0.132 3 
0.463 -0.006 0.132 3 
0.471 -0.295 0.012 3 
0.464 -0.017 0.132 3 
0.464 -0.025 0.132 3 
0.463 0.083 0.132 3 
0.465 -0.039 0.133 3 
0.465 -0.047 0.133 3 
0.466 -0.055 0.133 3 
0.466 -0.066 0.133 3 
0.466 -0.076 0.133 3 
0.467 -0.085 0.133 3 
0.466 -0.095 0.133 3 
0.466 -0.115 0.133 3 
0.467 -0.126 0.134 3 
0.464 -0.017 0.113 3 
0.466 -0.137 0.134 3 
0.467 -0.145 0.052 3 
0.477 -0.316 0.143 3 
0.478 -0.327 0.144 3 
0.478 -0.338 0.144 3 
0.461 0.249 0.134 3 
0.461 0.243 0.134 3 
0.46 0.251 0.123 3 
0.461 0.234 0.134 3 
0.46 0.213 0.133 3 
0.471 -0.265 0.123 3 
0.461 0.202 0.133 3 
0.462 0.193 0.133 3 
0.478 -0.328 0.153 3 
0.462 0.182 0.133 3 
0.462 0.174 0.133 3 
0.462 0.162 0.133 3 
0.462 0.143 0.133 3 
0.463 0.132 0.133 3 
0.462 0.124 0.132 3 
0.462 0.113 0.132 3 
0.462 0.102 0.132 3 
0.464 -0.036 0.092 3 
0.462 0.094 0.132 3 
0.468 0.003 0.183 3 
0.469 0.094 0.184 3 
0.469 0.083 0.184 3 
0.468 0.072 0.183 3 
0.468 0.063 0.183 3 
0.469 0.053 0.183 3 
0.482 -0.356 0.193 3 
0.468 0.044 0.183 3 
0.468 0.033 0.183 3 
0.47 0.023 0.184 3 
0.469 0.014 0.183 3 
0.46 0.302 0.082 3 
0.468 0.102 0.183 3 
0.463 0.043 0.052 3 
0.47 -0.007 0.184 3 
0.476 -0.318 0.122 3 
0.47 -0.015 0.184 3 
0.469 -0.026 0.183 3 
0.468 -0.036 0.174 3 
0.469 -0.037 0.183 3 
0.469 -0.045 0.183 3 
0.465 -0.057 0.063 3 
0.469 -0.056 0.183 3 
0.47 -0.067 0.184 3 
0.47 -0.165 0.174 3 
0.468 -0.217 0.044 3 
0.483 -0.325 0.2 3 
0.472 -0.207 0.173 3 
0.484 -0.337 0.201 3 
0.483 -0.347 0.202 3 
0.468 0.351 0.193 3 
0.468 0.34 0.192 3 
0.469 0.333 0.192 3 
0.467 -0.148 0.093 3 
0.466 0.181 0.184 3 
0.466 0.172 0.184 3 
0.47 -0.075 0.184 3 
0.466 -0.137 0.142 3 
0.464 0.165 0.183 3 
0.465 0.163 0.184 3 
0.465 0.154 0.183 3 
0.462 0.197 0.144 3 
0.467 0.144 0.184 3 
0.466 0.132 0.183 3 
0.467 0.124 0.183 3 
0.466 -0.106 0.133 3 
0.468 0.113 0.184 3 
0.462 0.242 0.093 3 
0.462 0.043 0.143 3 
0.471 -0.106 0.182 3 
0.472 -0.115 0.182 3 
0.471 -0.126 0.182 3 
0.472 -0.137 0.183 3 
0.472 -0.146 0.183 3 
0.461 0.203 0.033 3 
0.471 -0.157 0.183 3 
0.471 -0.165 0.183 3 
0.472 -0.175 0.184 3 
0.474 -0.256 0.173 3 
0.471 -0.095 0.182 3 
0.479 -0.307 0.191 3 
0.481 -0.316 0.193 3 
0.483 -0.325 0.194 3 
0.466 0.322 0.184 3 
0.465 0.311 0.183 3 
0.461 0.294 0.093 3 
0.465 0.301 0.183 3 
0.467 0.294 0.183 3 
0.466 0.283 0.182 3 
0.464 0.25 0.18 3 
0.465 -0.065 0.122 3 
0.465 0.254 0.184 3 
0.462 0.302 0.113 3 
0.47 -0.086 0.184 3 
0.474 -0.199 0.188 3 
0.477 -0.278 0.192 3 
0.477 -0.285 0.193 3 
0.464 0.103 0.165 3 
0.477 -0.295 0.193 3 
0.474 -0.352 0.034 3 
0.465 0.266 0.184 3 
0.469 -0.226 0.052 3 
0.465 0.263 0.184 3 
0.483 -0.318 0.2 3 
0.465 0.242 0.183 3 
0.465 0.233 0.183 3 
0.464 -0.135 0.012 3 
0.465 0.224 0.183 3 
0.462 0.083 0.073 3 
0.465 0.212 0.182 3 
0.461 0.213 0.122 3 
0.465 0.203 0.182 3 
0.465 0.194 0.182 3 
0.491 0.171 0.191 3 
0.47 0.072 0.187 3 
0.466 0.204 0.188 3 
0.466 0.192 0.188 3 
0.467 0.184 0.188 3 
0.467 0.173 0.188 3 
0.466 0.163 0.187 3 
0.465 0.152 0.186 3 
0.461 0.281 0.093 3 
0.467 0.144 0.186 3 
0.466 0.132 0.186 3 
0.462 0.064 0.113 3 
0.467 0.124 0.186 3 
0.466 0.213 0.188 3 
0.468 0.113 0.186 3 
0.465 0.282 0.173 3 
0.469 0.102 0.187 3 
0.464 0.084 0.162 3 
0.47 0.094 0.187 3 
0.47 0.083 0.187 3 
0.469 0.064 0.186 3 
0.464 0.244 0.186 3 
0.469 0.053 0.186 3 
0.469 0.044 0.186 3 
0.469 0.034 0.186 3 
0.467 0.304 0.193 3 
0.475 0.359 0.199 3 
0.475 -0.297 0.122 3 
0.473 0.353 0.198 3 
0.464 0.153 0.172 3 
0.461 0.142 0.084 3 
0.468 0.34 0.195 3 
0.468 0.333 0.195 3 
0.463 0.024 0.103 3 
0.464 -0.025 0.063 3 
0.468 0.322 0.194 3 
0.467 0.314 0.193 3 
0.47 0.023 0.186 3 
0.462 0.182 0.114 3 
0.468 0.292 0.192 3 
0.467 0.284 0.191 3 
0.467 0.272 0.191 3 
0.467 0.262 0.19 3 
0.465 0.251 0.189 3 
0.466 0.243 0.189 3 
0.466 0.234 0.189 3 
0.466 0.222 0.189 3 
0.465 -0.036 0.143 3 
0.461 0.262 0.062 3 
0.476 -0.195 0.192 3 
0.475 -0.206 0.192 3 
0.47 -0.125 0.173 3 
0.474 -0.212 0.192 3 
0.474 -0.215 0.192 3 
0.475 -0.221 0.192 3 
0.473 -0.226 0.192 3 
0.475 -0.234 0.193 3 
0.476 -0.241 0.194 3 
0.478 -0.248 0.195 3 
0.476 -0.25 0.194 3 
0.475 -0.188 0.191 3 
0.476 -0.255 0.194 3 
0.465 -0.076 0.074 3 
0.476 -0.265 0.194 3 
0.477 -0.272 0.195 3 
0.477 -0.275 0.195 3 
0.459 0.324 0.054 3 
0.478 -0.286 0.196 3 
0.463 -0.075 0.023 3 
0.479 -0.297 0.197 3 
0.479 -0.307 0.198 3 
0.459 0.314 0.012 3 
0.472 -0.087 0.188 3 
0.47 0.014 0.186 3 
0.468 0.003 0.186 3 
0.471 -0.007 0.187 3 
0.471 -0.015 0.187 3 
0.47 -0.026 0.187 3 
0.469 -0.037 0.186 3 
0.469 -0.045 0.186 3 
0.47 -0.056 0.186 3 
0.47 -0.067 0.187 3 
0.471 -0.075 0.187 3 
0.465 0.131 0.163 3 
0.464 0.229 0.179 3 
0.472 -0.095 0.188 3 
0.472 -0.106 0.188 3 
0.473 -0.115 0.189 3 
0.473 -0.126 0.189 3 
0.473 -0.135 0.189 3 
0.473 -0.146 0.189 3 
0.472 -0.155 0.189 3 
0.472 -0.166 0.189 3 
0.473 -0.175 0.19 3 
0.474 -0.185 0.191 3 
0.461 0.104 0.084 3 
0.465 0.324 0.172 3 
0.464 0.28 0.17 3 
0.461 -0.025 0.013 3 
0.464 0.106 0.165 3 
0.464 0.092 0.165 3 
0.464 0.071 0.165 3 
0.473 -0.237 0.171 3 
0.462 0.043 0.034 3 
0.473 -0.246 0.172 3 
0.474 -0.265 0.173 3 
0.475 -0.269 0.173 3 
0.465 0.331 0.173 3 
0.476 -0.277 0.174 3 
0.465 0.341 0.17 3 
0.464 0.323 0.169 3 
0.463 0.21 0.164 3 
0.463 0.204 0.164 3 
0.465 -0.047 0.002 3 
0.462 0.192 0.164 3 
0.462 0.183 0.164 3 
0.462 0.172 0.163 3 
0.463 0.164 0.163 3 
0.463 0.152 0.163 3 
0.471 -0.185 0.172 3 
0.481 -0.325 0.184 3 
0.474 -0.361 0.184 3 
0.464 0.313 0.174 3 
0.466 -0.175 0.033 3 
0.463 0.302 0.173 3 
0.464 0.293 0.173 3 
0.465 0.291 0.174 3 
0.464 0.274 0.173 3 
0.464 0.142 0.169 3 
0.459 0.324 0.023 3 
0.47 -0.176 0.172 3 
0.464 0.144 0.163 3 
0.472 -0.198 0.173 3 
0.471 -0.215 0.173 3 
0.471 -0.227 0.174 3 
0.474 -0.247 0.175 3 
0.475 -0.335 0.064 3 
0.48 -0.335 0.181 3 
0.481 -0.347 0.182 3 
0.479 -0.355 0.182 3 
0.464 0.344 0.173 3 
0.464 0.333 0.172 3 
0.477 -0.287 0.172 3 
0.466 -0.025 0.163 3 
0.466 -0.036 0.163 3 
0.468 -0.047 0.163 3 
0.467 -0.055 0.163 3 
0.466 -0.066 0.163 3 
0.461 0.294 0.113 3 
0.468 -0.077 0.164 3 
0.468 -0.085 0.164 3 
0.467 -0.096 0.164 3 
0.468 -0.105 0.164 3 
0.46 0.283 0.024 3 
0.466 -0.015 0.163 3 
0.478 -0.295 0.173 3 
0.478 -0.308 0.173 3 
0.463 0.337 0.143 3 
0.479 -0.316 0.174 3 
0.479 -0.326 0.174 3 
0.466 -0.167 0.023 3 
0.473 -0.359 0.174 3 
0.462 0.304 0.164 3 
0.463 0.292 0.164 3 
0.464 0.283 0.164 3 
0.47 -0.207 0.122 3 
0.464 0.068 0.162 3 
0.465 0.137 0.163 3 
0.464 0.133 0.163 3 
0.464 0.122 0.163 3 
0.464 0.114 0.163 3 
0.461 0.324 0.113 3 
0.464 0.103 0.163 3 
0.464 0.092 0.162 3 
0.46 0.239 0.114 3 
0.465 0.087 0.163 3 
0.465 0.082 0.163 3 
0.465 0.073 0.163 3 
0.469 -0.185 0.094 3 
0.468 -0.226 0.033 3 
0.465 0.063 0.163 3 
0.464 0.06 0.162 3 
0.465 0.044 0.162 3 
0.465 0.033 0.162 3 
0.476 -0.33 0.084 3 
0.466 0.022 0.163 3 
0.466 0.014 0.163 3 
0.465 0.003 0.162 3 
0.465 -0.006 0.162 3 
0.466 0.082 0.174 3 
0.464 0.191 0.176 3 
0.459 0.314 0.062 3 
0.464 0.182 0.175 3 
0.461 0.232 0.032 3 
0.463 0.159 0.174 3 
0.465 0.142 0.174 3 
0.465 0.117 0.174 3 
0.467 -0.096 0.144 3 
0.466 0.112 0.174 3 
0.466 0.104 0.174 3 
0.466 0.093 0.174 3 
0.464 0.202 0.176 3 
0.467 0.074 0.174 3 
0.466 0.063 0.174 3 
0.463 0.204 0.153 3 
0.467 0.052 0.174 3 
0.467 0.044 0.174 3 
0.461 0.313 0.093 3 
0.467 0.033 0.174 3 
0.465 0.054 0.163 3 
0.467 0.014 0.174 3 
0.466 0.003 0.174 3 
0.467 -0.006 0.174 3 
0.483 -0.335 0.192 3 
0.464 0.223 0.179 3 
0.463 0.103 0.154 3 
0.464 0.211 0.179 3 
0.463 0.164 0.177 3 
0.474 -0.187 0.182 3 
0.474 -0.196 0.182 3 
0.473 -0.205 0.182 3 
0.472 -0.216 0.182 3 
0.472 -0.225 0.183 3 
0.474 -0.236 0.184 3 
0.475 -0.239 0.184 3 
0.467 -0.015 0.174 3 
0.483 -0.346 0.192 3 
0.462 0.113 0.113 3 
0.463 0.093 0.052 3 
0.466 0.348 0.183 3 
0.466 0.343 0.183 3 
0.466 0.333 0.182 3 
0.464 0.268 0.178 3 
0.464 0.262 0.178 3 
0.471 -0.286 0.064 3 
0.464 0.244 0.177 3 
0.469 -0.086 0.172 3 
0.461 0.283 0.043 3 
0.464 0.193 0.173 3 
0.463 0.184 0.172 3 
0.463 0.173 0.172 3 
0.47 -0.285 0.052 3 
0.465 0.151 0.172 3 
0.466 0.134 0.172 3 
0.468 0.022 0.172 3 
0.468 -0.066 0.172 3 
0.459 0.214 0.014 3 
0.469 -0.075 0.172 3 
0.464 0.202 0.173 3 
0.468 -0.096 0.172 3 
0.469 -0.105 0.173 3 
0.461 0.242 0.104 3 
0.47 -0.117 0.173 3 
0.47 -0.136 0.174 3 
0.464 0.322 0.154 3 
0.47 -0.145 0.174 3 
0.47 -0.156 0.174 3 
0.479 -0.31 0.183 3 
0.462 0.053 0.002 3 
0.479 -0.316 0.183 3 
0.464 0.313 0.177 3 
0.467 -0.025 0.174 3 
0.459 0.103 0.013 3 
0.468 -0.047 0.174 3 
0.468 -0.055 0.174 3 
0.475 -0.245 0.181 3 
0.475 -0.257 0.182 3 
0.475 -0.267 0.182 3 
0.477 -0.278 0.183 3 
0.478 -0.285 0.184 3 
0.477 -0.298 0.184 3 
0.474 -0.361 0.187 3 
0.47 -0.206 0.113 3 
0.464 0.303 0.177 3 
0.463 0.258 0.174 3 
0.46 0.301 0.032 3 
0.463 0.252 0.174 3 
0.464 0.244 0.174 3 
0.464 0.232 0.174 3 
0.474 -0.317 0.052 3 
0.463 0.222 0.173 3 
0.463 0.213 0.173 3 
0.47 -0.236 0.122 3 
0.459 0.321 0.043 3 
0.469 -0.247 0.052 3 
0.47 -0.266 0.052 3 
0.47 -0.276 0.052 3 
0.472 -0.296 0.052 3 
0.474 -0.307 0.052 3 
0.475 -0.322 0.052 3 
0.475 -0.325 0.052 3 
0.475 -0.335 0.052 3 
0.473 -0.347 0.052 3 
0.465 -0.084 0.05 3 
0.457 0.332 0.043 3 
0.469 -0.235 0.052 3 
0.46 0.312 0.043 3 
0.459 0.304 0.043 3 
0.46 0.292 0.043 3 
0.46 0.273 0.043 3 
0.46 0.264 0.043 3 
0.46 0.223 0.022 3 
0.461 0.253 0.043 3 
0.461 0.223 0.043 3 
0.461 0.212 0.044 3 
0.46 0.203 0.044 3 
0.46 0.194 0.044 3 
0.465 -0.095 0.052 3 
0.463 0.032 0.052 3 
0.463 0.024 0.052 3 
0.463 0.014 0.052 3 
0.463 0.003 0.052 3 
0.464 -0.025 0.052 3 
0.464 -0.036 0.052 3 
0.464 -0.057 0.052 3 
0.464 -0.065 0.052 3 
0.464 -0.076 0.052 3 
0.464 -0.087 0.052 3 
0.465 -0.09 0.052 3 
0.461 0.183 0.044 3 
0.466 -0.106 0.052 3 
0.466 -0.117 0.052 3 
0.466 -0.125 0.052 3 
0.467 -0.136 0.052 3 
0.466 -0.155 0.052 3 
0.466 -0.167 0.052 3 
0.467 -0.176 0.052 3 
0.468 -0.185 0.052 3 
0.468 -0.196 0.052 3 
0.468 -0.217 0.052 3 
0.467 -0.176 0.044 3 
0.464 -0.065 0.044 3 
0.464 -0.076 0.044 3 
0.464 -0.087 0.044 3 
0.466 -0.092 0.044 3 
0.466 -0.095 0.044 3 
0.466 -0.106 0.044 3 
0.466 -0.117 0.044 3 
0.466 -0.125 0.044 3 
0.467 -0.136 0.044 3 
0.467 -0.145 0.044 3 
0.467 -0.156 0.044 3 
0.464 -0.057 0.044 3 
0.468 -0.188 0.044 3 
0.468 -0.196 0.044 3 
0.468 -0.205 0.044 3 
0.469 -0.226 0.044 3 
0.469 -0.235 0.044 3 
0.469 -0.247 0.044 3 
0.469 -0.256 0.044 3 
0.471 -0.286 0.013 3 
0.47 -0.266 0.044 3 
0.471 -0.285 0.044 3 
0.472 -0.296 0.044 3 
0.462 0.064 0.044 3 
0.461 0.172 0.044 3 
0.46 0.163 0.044 3 
0.461 0.153 0.044 3 
0.462 0.142 0.044 3 
0.462 0.134 0.044 3 
0.462 0.123 0.044 3 
0.462 0.112 0.044 3 
0.461 0.104 0.044 3 
0.463 0.093 0.044 3 
0.462 0.082 0.044 3 
0.462 0.074 0.044 3 
0.463 0.053 0.052 3 
0.463 0.053 0.044 3 
0.463 0.043 0.044 3 
0.463 0.032 0.044 3 
0.462 0.024 0.044 3 
0.463 0.014 0.044 3 
0.463 0.003 0.044 3 
0.464 -0.007 0.044 3 
0.463 -0.025 0.044 3 
0.463 -0.036 0.044 3 
0.464 -0.046 0.044 3 
0.463 0.014 0.063 3 
0.462 0.104 0.063 3 
0.462 0.093 0.063 3 
0.462 0.083 0.063 3 
0.463 0.072 0.063 3 
0.463 0.064 0.063 3 
0.462 0.053 0.063 3 
0.461 0.274 0.054 3 
0.462 0.043 0.063 3 
0.463 0.032 0.063 3 
0.476 -0.347 0.043 3 
0.463 0.024 0.063 3 
0.462 0.112 0.063 3 
0.463 0.003 0.063 3 
0.463 -0.006 0.063 3 
0.464 -0.017 0.063 3 
0.464 -0.036 0.063 3 
0.464 -0.046 0.063 3 
0.464 -0.065 0.063 3 
0.465 -0.071 0.063 3 
0.461 0.164 0.033 3 
0.465 -0.076 0.063 3 
0.465 -0.087 0.063 3 
0.465 -0.095 0.063 3 
0.461 0.253 0.062 3 
0.471 -0.296 0.072 3 
0.474 -0.317 0.073 3 
0.474 -0.327 0.073 3 
0.475 -0.335 0.073 3 
0.475 -0.346 0.073 3 
0.474 -0.348 0.073 3 
0.474 -0.355 0.07 3 
0.459 0.324 0.062 3 
0.46 0.302 0.062 3 
0.461 0.294 0.062 3 
0.46 0.283 0.062 3 
0.465 -0.106 0.063 3 
0.461 0.223 0.063 3 
0.461 0.192 0.063 3 
0.46 0.183 0.063 3 
0.463 -0.057 0.034 3 
0.461 0.172 0.063 3 
0.461 -0.036 0.013 3 
0.461 0.164 0.063 3 
0.462 0.142 0.063 3 
0.462 0.134 0.063 3 
0.462 0.123 0.063 3 
0.461 0.212 0.054 3 
0.475 -0.322 0.061 3 
0.475 -0.325 0.061 3 
0.474 -0.355 0.061 3 
0.459 0.301 0.054 3 
0.46 0.293 0.054 3 
0.461 0.283 0.054 3 
0.46 0.264 0.054 3 
0.461 0.253 0.054 3 
0.46 0.243 0.054 3 
0.46 0.234 0.054 3 
0.461 0.223 0.054 3 
0.464 -0.076 0.06 3 
0.461 0.203 0.054 3 
0.461 0.192 0.054 3 
0.461 0.172 0.052 3 
0.461 0.164 0.052 3 
0.461 0.153 0.052 3 
0.462 0.142 0.052 3 
0.462 0.134 0.052 3 
0.462 0.123 0.052 3 
0.462 0.112 0.052 3 
0.463 0.083 0.052 3 
0.463 0.072 0.052 3 
0.469 -0.226 0.064 3 
0.466 -0.117 0.063 3 
0.475 -0.346 0.052 3 
0.466 -0.125 0.063 3 
0.467 -0.136 0.063 3 
0.467 -0.145 0.063 3 
0.467 -0.156 0.063 3 
0.467 -0.167 0.063 3 
0.468 -0.185 0.063 3 
0.469 -0.197 0.063 3 
0.469 -0.206 0.063 3 
0.469 -0.217 0.064 3 
0.472 -0.305 0.044 3 
0.47 -0.236 0.064 3 
0.47 -0.245 0.064 3 
0.469 -0.256 0.064 3 
0.469 -0.265 0.064 3 
0.469 -0.275 0.064 3 
0.474 -0.317 0.064 3 
0.474 -0.327 0.064 3 
0.475 -0.346 0.064 3 
0.466 -0.167 0.044 3 
0.464 -0.057 0.06 3 
0.457 0.332 0.014 3 
0.465 -0.136 0.023 3 
0.466 -0.147 0.023 3 
0.466 -0.156 0.023 3 
0.466 -0.175 0.023 3 
0.466 -0.187 0.023 3 
0.467 -0.196 0.022 3 
0.468 -0.205 0.022 3 
0.467 -0.216 0.022 3 
0.469 -0.226 0.022 3 
0.474 -0.335 0.02 3 
0.464 -0.135 0.02 3 
0.465 -0.125 0.023 3 
0.474 -0.335 0.014 3 
0.474 -0.345 0.014 3 
0.459 0.323 0.012 3 
0.459 0.304 0.012 3 
0.459 0.291 0.013 3 
0.458 0.281 0.013 3 
0.458 0.263 0.013 3 
0.459 0.254 0.013 3 
0.458 0.233 0.014 3 
0.458 0.224 0.014 3 
0.459 0.202 0.014 3 
0.462 0.024 0.023 3 
0.46 0.141 0.023 3 
0.461 0.134 0.023 3 
0.462 0.123 0.023 3 
0.461 0.112 0.023 3 
0.461 0.104 0.023 3 
0.461 0.093 0.023 3 
0.461 0.082 0.023 3 
0.461 0.074 0.023 3 
0.461 0.053 0.023 3 
0.461 0.042 0.023 3 
0.461 0.032 0.023 3 
0.459 0.194 0.014 3 
0.462 0.003 0.023 3 
0.462 -0.007 0.023 3 
0.463 -0.025 0.023 3 
0.462 -0.036 0.023 3 
0.463 -0.046 0.023 3 
0.462 -0.057 0.023 3 
0.462 -0.065 0.023 3 
0.464 -0.086 0.023 3 
0.464 -0.097 0.023 3 
0.465 -0.117 0.023 3 
0.465 -0.166 0.012 3 
0.46 -0.046 0.013 3 
0.462 -0.065 0.013 3 
0.463 -0.076 0.013 3 
0.463 -0.086 0.013 3 
0.463 -0.097 0.013 3 
0.463 -0.105 0.013 3 
0.464 -0.116 0.012 3 
0.463 -0.127 0.013 3 
0.465 -0.144 0.012 3 
0.465 -0.147 0.012 3 
0.465 -0.155 0.012 3 
0.46 0.003 0.013 3 
0.465 -0.175 0.012 3 
0.465 -0.119 0.007 3 
0.465 -0.125 0.007 3 
0.465 -0.117 0.004 3 
0.465 -0.136 0.004 3 
0.462 0.072 0.002 3 
0.461 0.064 0.002 3 
0.464 0.043 0.002 3 
0.464 -0.036 0.002 3 
0.465 -0.055 0.002 3 
0.464 -0.046 0 3 
0.46 0.133 0.012 3 
0.459 0.182 0.014 3 
0.459 0.174 0.014 3 
0.466 -0.215 0.014 3 
0.467 -0.225 0.014 3 
0.468 -0.235 0.014 3 
0.469 -0.256 0.013 3 
0.469 -0.265 0.013 3 
0.47 -0.275 0.013 3 
0.471 -0.305 0.012 3 
0.472 -0.316 0.012 3 
0.459 0.152 0.012 3 
0.46 0.152 0.023 3 
0.46 0.114 0.012 3 
0.459 0.092 0.013 3 
0.459 0.084 0.013 3 
0.459 0.074 0.013 3 
0.46 0.063 0.013 3 
0.461 0.053 0.013 3 
0.46 0.042 0.013 3 
0.46 0.034 0.013 3 
0.46 0.024 0.013 3 
0.46 0.013 0.013 3 
0.463 -0.007 0.034 3 
0.462 0.112 0.033 3 
0.462 0.104 0.034 3 
0.462 0.093 0.034 3 
0.462 0.082 0.034 3 
0.462 0.074 0.034 3 
0.462 0.064 0.034 3 
0.462 0.053 0.034 3 
0.462 0.032 0.034 3 
0.462 0.024 0.034 3 
0.462 0.014 0.034 3 
0.463 0.003 0.034 3 
0.462 0.123 0.033 3 
0.463 -0.017 0.034 3 
0.463 -0.025 0.034 3 
0.463 -0.036 0.034 3 
0.463 -0.065 0.034 3 
0.464 -0.076 0.034 3 
0.465 -0.081 0.034 3 
0.465 -0.087 0.034 3 
0.465 -0.095 0.034 3 
0.465 -0.106 0.034 3 
0.465 -0.125 0.004 3 
0.465 -0.116 0.034 3 
0.46 0.292 0.032 3 
0.461 0.223 0.033 3 
0.473 -0.316 0.044 3 
0.475 -0.325 0.043 3 
0.476 -0.337 0.043 3 
0.461 0.336 0.037 3 
0.459 0.334 0.034 3 
0.459 0.324 0.034 3 
0.46 0.312 0.034 3 
0.465 -0.084 0.036 3 
0.475 -0.346 0.034 3 
0.473 -0.317 0.023 3 
0.46 0.122 0.012 3 
0.46 0.283 0.032 3 
0.46 0.273 0.032 3 
0.46 0.264 0.032 3 
0.46 0.252 0.032 3 
0.46 0.243 0.032 3 
0.461 0.212 0.033 3 
0.46 0.194 0.033 3 
0.461 0.172 0.033 3 
0.461 0.142 0.033 3 
0.461 0.134 0.033 3 
0.472 -0.296 0.024 3 
0.46 0.302 0.023 3 
0.459 0.291 0.024 3 
0.46 0.273 0.024 3 
0.46 0.264 0.024 3 
0.46 0.252 0.024 3 
0.46 0.243 0.024 3 
0.46 0.234 0.024 3 
0.469 -0.256 0.024 3 
0.47 -0.266 0.024 3 
0.471 -0.276 0.024 3 
0.471 -0.285 0.024 3 
0.46 0.314 0.023 3 
0.472 -0.306 0.024 3 
0.474 -0.328 0.023 3 
0.475 -0.332 0.023 3 
0.475 -0.336 0.023 3 
0.475 -0.346 0.023 3 
0.473 -0.348 0.023 3 
0.46 0.203 0.022 3 
0.459 0.182 0.022 3 
0.46 0.172 0.022 3 
0.46 0.163 0.022 3 
0.461 0.013 0.023 3 
0.47 -0.275 0.033 3 
0.466 -0.125 0.034 3 
0.467 -0.137 0.034 3 
0.467 -0.145 0.034 3 
0.466 -0.155 0.034 3 
0.466 -0.186 0.033 3 
0.468 -0.196 0.033 3 
0.468 -0.205 0.033 3 
0.468 -0.217 0.033 3 
0.469 -0.235 0.033 3 
0.469 -0.256 0.033 3 
0.469 -0.266 0.033 3 
0.471 -0.286 0.072 3 
0.471 -0.285 0.032 3 
0.472 -0.296 0.032 3 
0.472 -0.315 0.032 3 
0.475 -0.329 0.032 3 
0.476 -0.337 0.032 3 
0.473 -0.355 0.032 3 
0.46 0.335 0.028 3 
0.464 -0.086 0.031 3 
0.474 -0.328 0.026 3 
0.458 0.333 0.023 3 
0.465 -0.065 0.103 3 
0.468 -0.205 0.052 3 
0.462 0.032 0.102 3 
0.463 0.014 0.103 3 
0.463 0.003 0.103 3 
0.463 -0.006 0.103 3 
0.463 -0.017 0.103 3 
0.463 -0.025 0.103 3 
0.464 -0.036 0.103 3 
0.464 -0.046 0.103 3 
0.465 -0.052 0.103 3 
0.465 -0.055 0.103 3 
0.461 0.043 0.102 3 
0.465 -0.076 0.103 3 
0.465 -0.087 0.103 3 
0.461 0.232 0.043 3 
0.466 -0.095 0.104 3 
0.466 -0.117 0.104 3 
0.465 -0.125 0.104 3 
0.466 -0.145 0.104 3 
0.468 -0.156 0.104 3 
0.468 -0.165 0.104 3 
0.468 -0.176 0.104 3 
0.46 0.336 0.102 3 
0.462 0.162 0.103 3 
0.461 0.254 0.104 3 
0.461 0.323 0.082 3 
0.461 0.233 0.103 3 
0.458 0.272 0.013 3 
0.461 0.224 0.103 3 
0.462 0.213 0.103 3 
0.462 0.204 0.103 3 
0.462 0.193 0.103 3 
0.475 -0.332 0.073 3 
0.461 0.184 0.103 3 
0.462 0.173 0.103 3 
0.458 0.33 0.102 3 
0.462 0.154 0.103 3 
0.461 0.142 0.103 3 
0.461 0.134 0.103 3 
0.462 0.123 0.103 3 
0.462 0.113 0.103 3 
0.462 0.104 0.103 3 
0.462 0.083 0.103 3 
0.462 0.072 0.103 3 
0.462 0.064 0.103 3 
0.461 0.053 0.102 3 
0.461 0.232 0.093 3 
0.474 -0.315 0.099 3 
0.464 -0.065 0.074 3 
0.46 0.336 0.094 3 
0.459 0.331 0.093 3 
0.461 0.323 0.094 3 
0.461 -0.017 0.013 3 
0.46 0.303 0.093 3 
0.462 0.213 0.092 3 
0.46 0.274 0.093 3 
0.461 0.263 0.093 3 
0.461 0.254 0.093 3 
0.464 -0.07 0.095 3 
0.461 0.224 0.092 3 
0.462 0.193 0.092 3 
0.462 0.184 0.092 3 
0.462 0.173 0.092 3 
0.463 0.064 0.052 3 
0.462 0.162 0.092 3 
0.461 0.153 0.092 3 
0.461 0.142 0.092 3 
0.461 0.134 0.092 3 
0.461 0.123 0.092 3 
0.469 -0.256 0.083 3 
0.47 -0.266 0.103 3 
0.46 0.322 0.102 3 
0.461 0.314 0.102 3 
0.464 -0.078 0.1 3 
0.469 -0.185 0.102 3 
0.469 -0.197 0.102 3 
0.469 -0.206 0.102 3 
0.469 -0.217 0.102 3 
0.47 -0.227 0.103 3 
0.47 -0.236 0.103 3 
0.47 -0.245 0.103 3 
0.47 -0.257 0.103 3 
0.46 0.262 0.104 3 
0.47 -0.276 0.103 3 
0.471 -0.286 0.104 3 
0.473 -0.295 0.104 3 
0.474 -0.305 0.104 3 
0.475 -0.326 0.102 3 
0.476 -0.338 0.102 3 
0.477 -0.346 0.103 3 
0.477 -0.356 0.103 3 
0.473 -0.327 0.014 3 
0.464 -0.057 0.095 3 
0.472 -0.297 0.064 3 
0.462 0.124 0.114 3 
0.462 0.102 0.113 3 
0.462 0.094 0.113 3 
0.462 0.083 0.113 3 
0.463 0.073 0.113 3 
0.462 0.054 0.113 3 
0.462 0.043 0.113 3 
0.467 -0.176 0.063 3 
0.46 0.214 0.022 3 
0.462 0.032 0.113 3 
0.463 0.024 0.113 3 
0.462 0.134 0.114 3 
0.46 -0.056 0.013 3 
0.463 0.014 0.113 3 
0.461 0.262 0.073 3 
0.463 0.003 0.113 3 
0.459 0.163 0.012 3 
0.464 -0.006 0.113 3 
0.465 -0.022 0.114 3 
0.464 -0.025 0.114 3 
0.465 -0.033 0.114 3 
0.464 -0.036 0.114 3 
0.465 -0.039 0.114 3 
0.476 -0.335 0.123 3 
0.47 -0.215 0.122 3 
0.47 -0.227 0.122 3 
0.47 -0.245 0.123 3 
0.471 -0.255 0.123 3 
0.472 -0.275 0.124 3 
0.473 -0.285 0.124 3 
0.464 -0.127 0.087 3 
0.465 -0.025 0.116 3 
0.465 -0.036 0.116 3 
0.475 -0.307 0.122 3 
0.477 -0.326 0.123 3 
0.465 -0.047 0.114 3 
0.477 -0.347 0.124 3 
0.476 -0.356 0.124 3 
0.46 0.233 0.114 3 
0.46 0.224 0.114 3 
0.461 0.212 0.114 3 
0.462 0.193 0.114 3 
0.462 0.173 0.114 3 
0.461 0.164 0.114 3 
0.462 0.154 0.114 3 
0.462 0.143 0.114 3 
0.475 -0.316 0.113 3 
0.469 -0.215 0.113 3 
0.47 -0.227 0.114 3 
0.47 -0.236 0.114 3 
0.469 -0.247 0.114 3 
0.463 -0.046 0.052 3 
0.47 -0.257 0.114 3 
0.47 -0.267 0.112 3 
0.47 -0.276 0.112 3 
0.472 -0.287 0.112 3 
0.475 -0.303 0.113 3 
0.475 -0.306 0.113 3 
0.47 -0.195 0.113 3 
0.476 -0.328 0.114 3 
0.47 -0.245 0.083 3 
0.474 -0.305 0.11 3 
0.465 -0.1 0.023 3 
0.477 -0.346 0.112 3 
0.469 -0.253 0.024 3 
0.476 -0.356 0.112 3 
0.461 0.297 0.104 3 
0.461 0.294 0.104 3 
0.461 0.282 0.104 3 
0.459 0.334 0.082 3 
0.46 0.281 0.112 3 
0.465 -0.055 0.114 3 
0.465 -0.065 0.114 3 
0.465 -0.076 0.114 3 
0.466 -0.087 0.114 3 
0.466 -0.095 0.114 3 
0.466 -0.106 0.114 3 
0.465 -0.117 0.114 3 
0.474 -0.302 0.119 3 
0.459 0.335 0.113 3 
0.46 0.333 0.113 3 
0.461 0.314 0.113 3 
0.462 0.113 0.092 3 
0.46 0.272 0.112 3 
0.461 0.263 0.112 3 
0.461 0.254 0.112 3 
0.466 -0.125 0.112 3 
0.466 -0.137 0.112 3 
0.469 -0.186 0.113 3 
0.467 -0.145 0.112 3 
0.467 -0.157 0.112 3 
0.468 -0.165 0.113 3 
0.469 -0.177 0.113 3 
0.46 0.302 0.074 3 
0.473 -0.307 0.084 3 
0.473 -0.317 0.084 3 
0.473 -0.351 0.084 3 
0.462 0.338 0.08 3 
0.465 -0.06 0.079 3 
0.475 -0.335 0.081 3 
0.476 -0.347 0.082 3 
0.465 -0.071 0.076 3 
0.459 0.334 0.074 3 
0.46 0.322 0.074 3 
0.46 0.312 0.074 3 
0.471 -0.296 0.084 3 
0.461 0.294 0.074 3 
0.46 0.283 0.074 3 
0.461 0.272 0.074 3 
0.461 0.253 0.073 3 
0.461 0.244 0.073 3 
0.461 0.232 0.073 3 
0.461 0.223 0.073 3 
0.461 0.212 0.073 3 
0.461 0.203 0.073 3 
0.461 0.192 0.073 3 
0.461 0.184 0.073 3 
0.466 -0.167 0.082 3 
0.465 -0.087 0.082 3 
0.466 -0.095 0.082 3 
0.466 -0.106 0.082 3 
0.462 -0.017 0.023 3 
0.465 -0.117 0.082 3 
0.465 -0.125 0.082 3 
0.461 0.153 0.063 3 
0.466 -0.136 0.082 3 
0.467 -0.145 0.082 3 
0.467 -0.156 0.082 3 
0.463 -0.017 0.044 3 
0.462 0.173 0.073 3 
0.467 -0.176 0.082 3 
0.468 -0.188 0.083 3 
0.468 -0.196 0.083 3 
0.468 -0.205 0.083 3 
0.469 -0.217 0.083 3 
0.47 -0.227 0.083 3 
0.47 -0.236 0.083 3 
0.469 -0.265 0.083 3 
0.459 0.144 0.012 3 
0.471 -0.286 0.084 3 
0.468 -0.196 0.074 3 
0.466 -0.087 0.074 3 
0.466 -0.095 0.074 3 
0.466 -0.106 0.074 3 
0.465 -0.117 0.074 3 
0.466 -0.125 0.074 3 
0.466 -0.136 0.074 3 
0.467 -0.145 0.074 3 
0.467 -0.156 0.074 3 
0.466 -0.167 0.074 3 
0.467 -0.176 0.074 3 
0.468 -0.188 0.074 3 
0.465 -0.073 0.074 3 
0.468 -0.205 0.074 3 
0.465 -0.057 0.071 3 
0.464 -0.076 0.071 3 
0.468 -0.217 0.072 3 
0.469 -0.226 0.072 3 
0.469 -0.235 0.072 3 
0.47 -0.245 0.072 3 
0.464 -0.105 0.015 3 
0.469 -0.256 0.072 3 
0.469 -0.268 0.072 3 
0.469 -0.275 0.072 3 
0.462 0.043 0.073 3 
0.462 0.162 0.073 3 
0.462 0.153 0.073 3 
0.462 0.142 0.073 3 
0.462 0.123 0.073 3 
0.462 0.112 0.073 3 
0.462 0.104 0.073 3 
0.462 0.094 0.073 3 
0.462 0.072 0.073 3 
0.463 0.064 0.073 3 
0.463 -0.017 0.074 3 
0.462 0.053 0.073 3 
0.465 -0.079 0.082 3 
0.462 0.032 0.073 3 
0.463 0.024 0.073 3 
0.464 -0.057 0.074 3 
0.463 0.014 0.073 3 
0.463 0.003 0.074 3 
0.472 -0.306 0.032 3 
0.463 -0.006 0.074 3 
0.463 -0.025 0.074 3 
0.464 -0.036 0.074 3 
0.464 -0.046 0.074 3 
0.469 -0.226 0.094 3 
0.465 -0.106 0.093 3 
0.465 -0.117 0.093 3 
0.465 -0.125 0.093 3 
0.46 0.194 0.022 3 
0.467 -0.156 0.093 3 
0.467 -0.167 0.093 3 
0.461 0.133 0.004 3 
0.468 -0.176 0.093 3 
0.468 -0.196 0.094 3 
0.469 -0.206 0.094 3 
0.469 -0.217 0.094 3 
0.465 -0.095 0.093 3 
0.47 -0.236 0.094 3 
0.464 -0.122 0.09 3 
0.469 -0.256 0.092 3 
0.459 0.314 0.054 3 
0.469 -0.265 0.092 3 
0.47 -0.276 0.092 3 
0.472 -0.297 0.092 3 
0.473 -0.307 0.093 3 
0.474 -0.315 0.093 3 
0.475 -0.319 0.093 3 
0.475 -0.326 0.093 3 
0.462 0.003 0.092 3 
0.462 0.104 0.092 3 
0.462 0.094 0.092 3 
0.462 0.083 0.092 3 
0.462 0.072 0.092 3 
0.462 0.064 0.092 3 
0.462 0.054 0.092 3 
0.463 0.043 0.092 3 
0.463 0.032 0.092 3 
0.462 0.104 0.052 3 
0.462 0.024 0.092 3 
0.462 0.014 0.092 3 
0.477 -0.338 0.093 3 
0.463 -0.017 0.092 3 
0.463 -0.025 0.092 3 
0.464 -0.046 0.092 3 
0.464 -0.057 0.092 3 
0.465 -0.063 0.092 3 
0.464 -0.065 0.092 3 
0.464 -0.076 0.092 3 
0.463 -0.046 0.034 3 
0.465 -0.081 0.093 3 
0.465 -0.087 0.093 3 
0.464 -0.046 0.084 3 
0.463 0.053 0.084 3 
0.463 0.043 0.084 3 
0.462 0.032 0.084 3 
0.462 0.024 0.084 3 
0.462 0.014 0.084 3 
0.462 0.003 0.084 3 
0.463 -0.006 0.084 3 
0.475 -0.318 0.07 3 
0.463 -0.017 0.084 3 
0.463 -0.025 0.084 3 
0.463 -0.036 0.084 3 
0.462 0.064 0.084 3 
0.461 0.212 0.063 3 
0.464 -0.057 0.084 3 
0.464 -0.065 0.084 3 
0.464 -0.076 0.084 3 
0.474 -0.329 0.087 3 
0.474 -0.356 0.088 3 
0.461 0.313 0.082 3 
0.46 0.293 0.082 3 
0.461 0.284 0.082 3 
0.474 -0.325 0.084 3 
0.461 0.272 0.082 3 
0.462 0.184 0.084 3 
0.477 -0.345 0.094 3 
0.475 -0.357 0.094 3 
0.465 -0.073 0.087 3 
0.474 -0.352 0.09 3 
0.46 0.256 0.084 3 
0.462 0.248 0.084 3 
0.461 0.244 0.084 3 
0.461 0.232 0.084 3 
0.461 0.224 0.084 3 
0.461 0.212 0.084 3 
0.462 0.193 0.084 3 
0.465 -0.052 0.119 3 
0.462 0.173 0.084 3 
0.458 0.333 0.054 3 
0.462 0.162 0.084 3 
0.462 0.153 0.084 3 
0.462 0.134 0.084 3 
0.462 0.123 0.084 3 
0.462 0.112 0.084 3 
0.462 0.094 0.084 3 
0.462 0.083 0.084 3 
0.462 0.072 0.084 3 
0.299 -0.005 0.02 7 
0.306 -0.005 0.02 7 
0.298 -0.015 0.021 7 
0.299 0.002 0.02 7 
0.31 0.002 0.019 7 
