# .PCD v0.7 - Point Cloud Data file
FIELDS x y z intensity
SIZE 4 4 4 4
TYPE F F F F
COUNT 1 1 1 1
WIDTH 2228
HEIGHT 1
VIEWPOINT 0 0 0 1 0 0 0
POINTS 2228
DATA ascii
0.391 -0.055 0.062 0 
0.418 0.041 0.103 0 
0.501 -0.043 0.133 0 
0.324 0.091 0.017 0 
0.361 0.108 0.008 0 
0.376 -0.206 -0.025 1 
0.374 -0.195 -0.024 1 
0.364 -0.167 -0.019 1 
0.364 -0.155 -0.018 1 
0.363 -0.133 -0.017 1 
0.364 -0.109 -0.017 1 
0.354 -0.046 -0.012 1 
0.354 -0.04 -0.012 1 
0.332 0.004 -0.004 1 
0.331 0.064 -0.005 1 
0.324 0.069 -0.002 1 
0.323 0.103 -0.003 1 
0.312 0.132 0 1 
0.384 -0.255 -0.028 1 
0.383 -0.251 -0.027 1 
0.382 -0.225 -0.025 1 
0.382 -0.223 -0.025 1 
0.37 -0.187 -0.02 1 
0.371 -0.146 -0.019 1 
0.361 -0.095 -0.014 1 
0.363 -0.085 -0.014 1 
0.363 -0.077 -0.014 1 
0.361 -0.055 -0.013 1 
0.351 -0.016 -0.01 1 
0.317 0.044 0.001 1 
0.333 0.074 -0.004 1 
0.3 0.147 0.004 1 
0.288 0.137 0.008 1 
0.389 -0.258 -0.027 1 
0.384 -0.202 -0.023 1 
0.374 -0.175 -0.019 1 
0.374 -0.136 -0.018 1 
0.374 -0.126 -0.017 1 
0.373 -0.116 -0.017 1 
0.373 -0.106 -0.016 1 
0.368 -0.098 -0.015 1 
0.37 -0.086 -0.015 1 
0.364 -0.042 -0.012 1 
0.352 -0.006 -0.008 1 
0.313 0.046 0.004 1 
0.335 0.088 -0.003 1 
0.328 0.104 -0.001 1 
0.323 0.124 0 1 
0.309 0.145 0.002 1 
0.302 0.142 0.005 1 
0.276 0.125 0.014 1 
0.392 -0.243 -0.025 1 
0.391 -0.234 -0.025 1 
0.384 -0.209 -0.021 1 
0.384 -0.155 -0.019 1 
0.373 -0.025 -0.014 1 
0.342 0.064 -0.004 1 
0.344 0.071 -0.005 1 
0.343 0.079 -0.004 1 
0.344 0.084 -0.005 1 
0.343 0.094 -0.005 1 
0.343 0.095 -0.005 1 
0.332 0.113 -0.002 1 
0.31 0.141 0.004 1 
0.403 -0.277 -0.028 1 
0.401 -0.255 -0.026 1 
0.398 -0.236 -0.025 1 
0.391 -0.217 -0.022 1 
0.382 -0.175 -0.017 1 
0.384 -0.17 -0.018 1 
0.383 -0.115 -0.016 1 
0.379 -0.089 -0.014 1 
0.383 -0.085 -0.016 1 
0.383 -0.081 -0.016 1 
0.376 -0.065 -0.013 1 
0.373 -0.038 -0.012 1 
0.388 -0.031 -0.017 1 
0.384 -0.028 -0.016 1 
0.365 -0.017 -0.009 1 
0.364 -0.015 -0.009 1 
0.322 0.024 0.004 1 
0.322 0.055 0.004 1 
0.347 0.094 -0.004 1 
0.334 0.124 -0.001 1 
0.408 -0.265 -0.027 1 
0.404 -0.237 -0.024 1 
0.382 -0.215 -0.023 1 
0.403 -0.228 -0.024 1 
0.394 -0.211 -0.02 1 
0.394 -0.201 -0.02 1 
0.393 -0.175 -0.019 1 
0.392 -0.165 -0.018 1 
0.382 -0.137 -0.014 1 
0.383 -0.13 -0.014 1 
0.394 -0.117 -0.018 1 
0.387 -0.105 -0.015 1 
0.382 -0.095 -0.013 1 
0.381 -0.059 -0.013 1 
0.383 -0.036 -0.013 1 
0.375 -0.016 -0.011 1 
0.361 0.021 -0.006 1 
0.323 0.024 0.005 1 
0.344 0.068 -0.001 1 
0.346 0.072 -0.002 1 
0.354 0.084 -0.005 1 
0.353 0.094 -0.005 1 
0.353 0.095 -0.005 1 
0.343 0.114 -0.002 1 
0.321 0.142 0.003 1 
0.295 0.125 0.012 1 
0.413 -0.285 -0.027 1 
0.413 -0.282 -0.027 1 
0.415 -0.262 -0.026 1 
0.412 -0.256 -0.025 1 
0.41 -0.245 -0.024 1 
0.414 -0.247 -0.025 1 
0.402 -0.22 -0.021 1 
0.391 -0.139 -0.015 1 
0.393 -0.127 -0.016 1 
0.394 -0.096 -0.015 1 
0.394 -0.091 -0.015 1 
0.394 -0.083 -0.015 1 
0.395 -0.075 -0.015 1 
0.394 -0.066 -0.015 1 
0.395 -0.065 -0.015 1 
0.392 -0.056 -0.014 1 
0.393 -0.046 -0.015 1 
0.395 -0.03 -0.015 1 
0.374 -0.005 -0.009 1 
0.373 -0.003 -0.008 1 
0.362 -0.001 -0.005 1 
0.33 0.021 0.004 1 
0.354 0.078 -0.003 1 
0.349 0.104 -0.002 1 
0.323 0.132 0.004 1 
0.311 0.126 0.008 1 
0.32 0.136 0.005 1 
0.291 0.121 0.014 1 
0.425 -0.302 -0.029 1 
0.421 -0.243 -0.025 1 
0.403 -0.207 -0.019 1 
0.4 -0.185 -0.017 1 
0.4 -0.176 -0.017 1 
0.403 -0.155 -0.017 1 
0.398 -0.145 -0.015 1 
0.393 -0.138 -0.014 1 
0.399 -0.137 -0.015 1 
0.396 -0.133 -0.014 1 
0.284 0.123 0.014 1 
0.404 -0.115 -0.017 1 
0.403 -0.106 -0.016 1 
0.402 -0.095 -0.016 1 
0.401 -0.056 -0.015 1 
0.4 -0.053 -0.015 1 
0.394 -0.046 -0.013 1 
0.394 -0.036 -0.013 1 
0.389 -0.015 -0.011 1 
0.381 -0.007 -0.009 1 
0.382 -0.003 -0.009 1 
0.339 0.015 0.003 1 
0.362 -0.073 -0.014 1 
0.304 0.044 0.014 1 
0.304 0.054 0.014 1 
0.357 0.083 -0.002 1 
0.364 0.094 -0.005 1 
0.36 0.103 -0.004 1 
0.353 0.113 -0.002 1 
0.348 0.124 0 1 
0.364 -0.072 -0.015 1 
0.328 0.135 0.004 1 
0.326 0.136 0.005 1 
0.424 -0.297 -0.026 1 
0.424 -0.294 -0.026 1 
0.425 -0.286 -0.025 1 
0.425 -0.278 -0.025 1 
0.425 -0.272 -0.025 1 
0.424 -0.265 -0.024 1 
0.424 -0.257 -0.024 1 
0.413 -0.225 -0.019 1 
0.403 -0.166 -0.015 1 
0.406 -0.166 -0.016 1 
0.389 -0.245 -0.027 1 
0.412 -0.117 -0.017 1 
0.403 -0.086 -0.014 1 
0.403 -0.065 -0.014 1 
0.402 -0.045 -0.013 1 
0.401 -0.037 -0.013 1 
0.4 -0.016 -0.013 1 
0.387 -0.001 -0.009 1 
0.34 0.003 0.004 1 
0.33 0.023 0.007 1 
0.305 0.053 0.015 1 
0.337 0.135 0.003 1 
0.334 0.134 0.004 1 
0.432 -0.31 -0.026 1 
0.423 -0.247 -0.021 1 
0.414 -0.206 -0.017 1 
0.411 -0.196 -0.016 1 
0.412 -0.147 -0.015 1 
0.41 -0.136 -0.014 1 
0.411 -0.135 -0.015 1 
0.413 -0.106 -0.015 1 
0.414 -0.095 -0.015 1 
0.414 -0.093 -0.015 1 
0.411 -0.085 -0.014 1 
0.413 -0.079 -0.014 1 
0.414 -0.077 -0.015 1 
0.414 -0.074 -0.015 1 
0.413 -0.056 -0.014 1 
0.411 -0.045 -0.014 1 
0.412 -0.025 -0.014 1 
0.411 -0.003 -0.014 1 
0.373 -0.001 -0.003 1 
0.346 0.024 0.004 1 
0.311 0.039 0.014 1 
0.364 0.114 -0.001 1 
0.34 0.132 0.004 1 
0.304 0.12 0.014 1 
0.438 -0.317 -0.025 1 
0.434 -0.296 -0.023 1 
0.434 -0.287 -0.023 1 
0.434 -0.275 -0.022 1 
0.422 -0.235 -0.018 1 
0.417 -0.226 -0.016 1 
0.42 -0.216 -0.017 1 
0.42 -0.196 -0.016 1 
0.418 -0.16 -0.015 1 
0.417 -0.157 -0.014 1 
0.419 -0.146 -0.015 1 
0.418 -0.141 -0.014 1 
0.422 -0.126 -0.015 1 
0.42 -0.099 -0.014 1 
0.421 -0.097 -0.015 1 
0.42 -0.065 -0.014 1 
0.414 -0.017 -0.012 1 
0.427 -0.006 -0.016 1 
0.423 0.028 -0.015 1 
0.336 0.03 0.009 1 
0.359 0.086 0.001 1 
0.374 0.094 -0.002 1 
0.374 0.114 -0.002 1 
0.349 0.135 0.003 1 
0.334 0.126 0.007 1 
0.309 0.12 0.014 1 
0.324 0.05 0 1 
0.445 -0.325 -0.025 1 
0.429 -0.226 -0.017 1 
0.417 -0.171 -0.012 1 
0.424 -0.149 -0.014 1 
0.427 -0.146 -0.015 1 
0.428 -0.127 -0.015 1 
0.423 -0.117 -0.013 1 
0.424 -0.084 -0.013 1 
0.424 -0.057 -0.013 1 
0.421 -0.047 -0.012 1 
0.382 -0.186 -0.018 1 
0.393 -0.146 -0.016 1 
0.424 -0.036 -0.013 1 
0.422 -0.026 -0.012 1 
0.368 0.033 0.001 1 
0.358 -0.025 -0.012 1 
0.355 0.032 0.005 1 
0.353 -0.026 -0.012 1 
0.348 0.033 0.007 1 
0.374 0.124 -0.001 1 
0.444 -0.297 -0.02 1 
0.434 -0.258 -0.016 1 
0.434 -0.249 -0.016 1 
0.433 -0.219 -0.015 1 
0.433 -0.208 -0.015 1 
0.382 -0.073 -0.015 1 
0.431 -0.204 -0.014 1 
0.434 -0.188 -0.015 1 
0.433 -0.182 -0.014 1 
0.434 -0.18 -0.015 1 
0.433 -0.167 -0.014 1 
0.431 -0.155 -0.013 1 
0.434 -0.14 -0.014 1 
0.434 -0.127 -0.014 1 
0.431 -0.116 -0.013 1 
0.43 -0.008 -0.012 1 
0.362 0.039 0.005 1 
0.374 0.1 0.001 1 
0.355 0.134 0.005 1 
0.35 0.132 0.006 1 
0.449 -0.316 -0.02 1 
0.443 -0.275 -0.017 1 
0.436 -0.257 -0.014 1 
0.437 -0.255 -0.015 1 
0.437 -0.249 -0.014 1 
0.444 -0.238 -0.016 1 
0.439 -0.226 -0.014 1 
0.441 -0.222 -0.015 1 
0.44 -0.216 -0.014 1 
0.443 -0.205 -0.015 1 
0.441 -0.198 -0.014 1 
0.422 -0.075 -0.015 1 
0.445 -0.198 -0.015 1 
0.443 -0.194 -0.015 1 
0.442 -0.186 -0.014 1 
0.443 -0.184 -0.015 1 
0.434 -0.152 -0.012 1 
0.434 -0.105 -0.011 1 
0.434 -0.097 -0.011 1 
0.434 -0.083 -0.011 1 
0.434 -0.047 -0.011 1 
0.432 -0.039 -0.01 1 
0.345 0.039 0.011 1 
0.375 0.104 0.002 1 
0.378 0.13 0.001 1 
0.371 0.128 0.003 1 
0.343 0.126 0.01 1 
0.408 -0.055 -0.015 1 
0.316 0.117 0.017 1 
0.454 -0.328 -0.018 1 
0.42 -0.206 -0.016 1 
0.452 -0.306 -0.017 1 
0.448 -0.286 -0.015 1 
0.45 -0.255 -0.015 1 
0.45 -0.246 -0.015 1 
0.45 -0.243 -0.015 1 
0.442 -0.175 -0.012 1 
0.442 -0.167 -0.011 1 
0.443 -0.155 -0.011 1 
0.442 -0.149 -0.011 1 
0.443 -0.144 -0.011 1 
0.443 -0.116 -0.011 1 
0.444 -0.106 -0.011 1 
0.412 -0.103 -0.014 1 
0.444 -0.101 -0.011 1 
0.44 -0.085 -0.01 1 
0.313 0.029 0.004 1 
0.443 -0.076 -0.011 1 
0.443 -0.066 -0.011 1 
0.443 -0.058 -0.011 1 
0.441 -0.036 -0.01 1 
0.439 -0.009 -0.01 1 
0.443 -0.004 -0.011 1 
0.342 -0.005 -0.008 1 
0.425 0.042 -0.006 1 
0.424 -0.184 -0.015 1 
0.42 0.043 -0.005 1 
0.432 0.053 -0.008 1 
0.432 0.055 -0.008 1 
0.385 0.118 0.002 1 
0.324 0.094 -0.003 1 
0.376 -0.204 -0.025 1 
0.456 -0.317 -0.016 1 
0.456 -0.31 -0.015 1 
0.454 -0.298 -0.015 1 
0.449 -0.275 -0.013 1 
0.454 -0.256 -0.013 1 
0.454 -0.238 -0.013 1 
0.454 -0.232 -0.013 1 
0.451 -0.197 -0.012 1 
0.451 -0.186 -0.011 1 
0.447 -0.175 -0.01 1 
0.452 -0.146 -0.011 1 
0.449 -0.116 -0.01 1 
0.441 -0.206 -0.014 1 
0.445 -0.086 -0.009 1 
0.42 0.048 -0.005 1 
0.442 -0.026 -0.008 1 
0.461 -0.004 -0.013 1 
0.431 0.031 -0.005 1 
0.438 0.034 -0.007 1 
0.412 0.055 -0.001 1 
0.465 -0.347 -0.016 1 
0.461 -0.315 -0.014 1 
0.46 -0.308 -0.013 1 
0.452 -0.271 -0.011 1 
0.454 -0.247 -0.01 1 
0.454 -0.216 -0.01 1 
0.454 -0.207 -0.01 1 
0.454 -0.166 -0.009 1 
0.454 -0.163 -0.009 1 
0.454 -0.102 -0.008 1 
0.453 -0.055 -0.008 1 
0.454 -0.009 -0.008 1 
0.364 -0.001 0.011 1 
0.452 0.034 -0.008 1 
0.442 0.037 -0.006 1 
0.405 0.054 0.002 1 
0.402 -0.075 -0.013 1 
0.463 -0.298 -0.011 1 
0.464 -0.267 -0.01 1 
0.461 -0.247 -0.009 1 
0.463 -0.236 -0.009 1 
0.463 -0.228 -0.009 1 
0.46 -0.215 -0.008 1 
0.463 -0.188 -0.009 1 
0.458 -0.177 -0.007 1 
0.456 -0.035 -0.006 1 
0.423 0.028 0 1 
0.454 0.036 -0.006 1 
0.474 -0.357 -0.012 1 
0.464 -0.292 -0.008 1 
0.462 -0.281 -0.007 1 
0.47 -0.187 -0.007 1 
0.469 -0.177 -0.007 1 
0.464 -0.172 -0.006 1 
0.466 -0.167 -0.006 1 
0.464 -0.163 -0.006 1 
0.465 -0.155 -0.006 1 
0.464 -0.149 -0.006 1 
0.465 -0.147 -0.006 1 
0.465 -0.139 -0.006 1 
0.463 -0.135 -0.005 1 
0.464 -0.127 -0.005 1 
0.468 -0.115 -0.006 1 
0.469 -0.107 -0.006 1 
0.467 -0.096 -0.006 1 
0.466 -0.09 -0.006 1 
0.381 -0.145 -0.016 1 
0.464 -0.087 -0.005 1 
0.462 -0.078 -0.005 1 
0.462 -0.065 -0.005 1 
0.384 -0.244 -0.027 1 
0.462 -0.057 -0.005 1 
0.465 -0.015 -0.005 1 
0.471 -0.004 -0.007 1 
0.369 -0.001 0.014 1 
0.463 0.037 -0.005 1 
0.375 0.036 0.013 1 
0.37 0.044 0.014 1 
0.373 -0.045 -0.012 1 
0.37 0.048 0.014 1 
0.4 0.059 0.007 1 
0.473 -0.349 -0.009 1 
0.473 -0.335 -0.008 1 
0.474 -0.329 -0.008 1 
0.473 -0.324 -0.008 1 
0.474 -0.292 -0.007 1 
0.472 -0.265 -0.006 1 
0.47 -0.248 -0.005 1 
0.467 -0.236 -0.005 1 
0.468 -0.226 -0.005 1 
0.469 -0.215 -0.005 1 
0.47 -0.195 -0.005 1 
0.404 -0.195 -0.018 1 
0.464 -0.16 -0.003 1 
0.464 -0.136 -0.003 1 
0.464 -0.119 -0.003 1 
0.463 -0.111 -0.002 1 
0.463 -0.076 -0.002 1 
0.453 -0.3 -0.014 1 
0.462 -0.065 -0.002 1 
0.462 -0.046 -0.002 1 
0.414 -0.191 -0.017 1 
0.477 -0.007 -0.005 1 
0.381 -0.026 -0.013 1 
0.377 0.034 0.014 1 
0.383 -0.046 -0.013 1 
0.377 0.053 0.014 1 
0.48 -0.349 -0.007 1 
0.478 -0.336 -0.006 1 
0.479 -0.327 -0.006 1 
0.48 -0.315 -0.006 1 
0.478 -0.309 -0.005 1 
0.477 -0.298 -0.005 1 
0.477 -0.285 -0.005 1 
0.474 -0.267 -0.004 1 
0.473 -0.256 -0.003 1 
0.464 -0.036 0 1 
0.464 -0.033 0 1 
0.394 -0.227 -0.023 1 
0.392 0.004 0.013 1 
0.386 -0.005 -0.01 1 
0.387 0.014 0.014 1 
0.384 0.061 0.014 1 
0.404 -0.012 -0.012 1 
0.402 0.011 0.013 1 
0.403 -0.003 -0.014 1 
0.411 -0.012 -0.012 1 
0.41 0.013 0.012 1 
0.404 0.019 0.013 1 
0.457 0.037 0.003 1 
0.449 0.038 0.004 1 
0.442 0.04 0.006 1 
0.394 -0.058 -0.015 1 
0.386 0.063 0.016 1 
0.475 -0.24 0.001 1 
0.473 -0.218 0.002 1 
0.471 -0.205 0.002 1 
0.47 -0.195 0.003 1 
0.47 -0.186 0.003 1 
0.467 -0.085 0.004 1 
0.471 -0.078 0.003 1 
0.466 -0.066 0.004 1 
0.414 -0.134 -0.015 1 
0.465 -0.009 0.004 1 
0.453 0.044 0.006 1 
0.424 -0.087 -0.013 1 
0.481 -0.325 0.002 1 
0.481 -0.309 0.002 1 
0.477 -0.285 0.003 1 
0.477 -0.275 0.003 1 
0.474 -0.245 0.004 1 
0.474 -0.236 0.004 1 
0.312 0.039 0.003 1 
0.377 -0.075 -0.014 1 
0.473 -0.227 0.004 1 
0.361 -0.06 -0.015 1 
0.364 0.095 -0.005 1 
0.464 -0.2 -0.006 1 
0.37 0.022 -0.007 1 
0.37 -0.063 -0.015 1 
0.372 -0.075 -0.016 1 
0.458 0.034 -0.007 1 
0.462 0.003 0.013 1 
0.461 -0.009 -0.007 1 
0.463 0.014 0.013 1 
0.463 0.024 0.013 1 
0.461 -0.025 -0.005 1 
0.462 0.032 0.013 1 
0.463 0.043 0.012 1 
0.462 -0.046 -0.005 1 
0.464 0.046 0.012 1 
0.478 0.051 0.01 1 
0.453 -0.047 -0.008 1 
0.473 -0.311 -0.007 1 
0.452 0.049 0.014 1 
0.464 0.003 0.015 1 
0.441 -0.27 -0.016 1 
0.464 0.014 0.015 1 
0.402 -0.245 -0.026 1 
0.428 -0.156 -0.015 1 
0.454 -0.066 -0.008 1 
0.444 -0.282 -0.012 1 
0.43 -0.135 -0.015 1 
0.391 -0.025 -0.012 1 
0.45 -0.004 -0.007 1 
0.387 0.034 0.014 1 
0.443 -0.316 -0.021 1 
0.4 -0.085 -0.015 1 
0.461 -0.256 -0.009 1 
0.453 -0.139 -0.011 1 
0.417 0.036 0.006 1 
0.439 -0.245 -0.015 1 
0.321 0.119 0.014 1 
0.406 0.004 0.013 1 
0.333 0.003 -0.005 1 
0.451 -0.017 -0.008 1 
0.385 0.02 0.014 1 
0.419 -0.015 -0.012 1 
0.33 0.055 -0.004 1 
0.386 0.133 0 1 
0.383 -0.036 -0.015 1 
0.465 0.054 0.017 1 
0.448 -0.277 -0.015 1 
0.41 -0.036 -0.013 1 
0.376 0.095 -0.005 1 
0.329 0.034 0.01 1 
0.464 -0.169 -0.003 1 
0.432 -0.004 -0.018 1 
0.362 -0.006 -0.007 1 
0.414 -0.219 -0.015 1 
0.424 -0.113 -0.013 1 
0.414 -0.157 -0.016 1 
0.479 -0.359 -0.007 1 
0.37 -0.065 -0.015 1 
0.458 -0.325 -0.016 1 
0.476 -0.256 0.004 1 
0.442 -0.202 -0.015 1 
0.436 0.034 -0.016 1 
0.383 -0.132 -0.015 1 
0.434 -0.085 -0.011 1 
0.465 -0.125 -0.006 1 
0.371 -0.092 -0.014 1 
0.413 -0.11 -0.013 1 
0.475 -0.007 -0.002 1 
0.344 0.123 -0.001 1 
0.382 -0.105 -0.016 1 
0.411 -0.065 -0.014 1 
0.475 -0.228 0.001 1 
0.363 -0.135 -0.017 1 
0.471 -0.277 -0.006 1 
0.306 0.052 0.013 1 
0.434 -0.172 -0.015 1 
0.44 -0.045 -0.01 1 
0.454 -0.105 -0.008 1 
0.416 0.045 -0.004 1 
0.42 -0.253 -0.025 1 
0.43 -0.24 -0.017 1 
0.471 -0.007 -0.007 1 
0.439 -0.004 -0.015 1 
0.43 -0.265 -0.021 1 
0.287 0.125 0.013 1 
0.34 0.005 0.004 1 
0.43 -0.065 -0.012 1 
0.429 0.031 -0.017 1 
0.472 -0.3 -0.007 1 
0.394 -0.16 -0.017 1 
0.452 -0.125 -0.011 1 
0.418 -0.17 -0.015 1 
0.464 -0.02 -0.005 1 
0.341 0.063 -0.005 1 
0.337 0.041 0.013 1 
0.462 -0.337 -0.015 1 
0.423 -0.136 -0.016 1 
0.469 -0.096 0.004 1 
0.465 -0.212 -0.007 1 
0.479 -0.297 0.003 1 
0.451 -0.027 -0.008 1 
0.451 0.051 0.017 1 
0.408 -0.175 -0.017 1 
0.441 -0.285 -0.019 1 
0.453 -0.035 -0.008 1 
0.446 -0.287 -0.012 1 
0.444 -0.016 -0.008 1 
0.459 -0.106 -0.007 1 
0.404 -0.063 -0.014 1 
0.367 -0.096 -0.014 1 
0.404 -0.129 -0.017 1 
0.359 -0.095 -0.015 1 
0.344 -0.001 -0.006 1 
0.418 -0.267 -0.025 1 
0.46 -0.118 -0.007 1 
0.464 -0.125 -0.003 1 
0.454 -0.076 -0.008 1 
0.413 -0.238 -0.025 1 
0.406 -0.005 -0.015 1 
0.37 -0.056 -0.013 1 
0.364 -0.045 -0.012 1 
0.38 -0.096 -0.015 1 
0.324 0.034 0.01 1 
0.381 0.113 0.003 1 
0.36 0.124 0.004 1 
0.422 -0.19 -0.017 1 
0.386 -0.133 -0.013 1 
0.444 -0.31 -0.021 1 
0.439 -0.127 -0.013 1 
0.368 0.038 0.001 1 
0.401 -0.266 -0.027 1 
0.433 -0.056 -0.01 1 
0.333 0.013 -0.003 1 
0.428 -0.025 -0.012 1 
0.33 0.093 -0.002 1 
0.316 0.128 0.009 1 
0.374 -0.161 -0.018 1 
0.351 0.131 0.004 1 
0.332 0.083 -0.004 1 
0.449 -0.266 -0.015 1 
0.379 0.116 0.003 1 
0.37 0.093 -0.005 1 
0.422 -0.008 -0.012 1 
0.358 0.132 0.004 1 
0.473 -0.257 -0.006 1 
0.364 -0.115 -0.017 1 
0.392 -0.186 -0.019 1 
0.422 -0.119 -0.015 1 
0.326 0.052 -0.003 1 
0.424 -0.282 -0.025 1 
0.46 -0.096 -0.007 1 
0.39 -0.096 -0.014 1 
0.421 0.028 -0.008 1 
0.464 -0.023 -0.003 1 
0.481 -0.315 0.002 1 
0.434 -0.196 -0.015 1 
0.47 -0.001 0.001 1 
0.313 0.034 0.01 1 
0.463 -0.057 -0.002 1 
0.464 -0.206 -0.006 1 
0.442 -0.234 -0.015 1 
0.317 0.026 0.004 1 
0.391 0.057 0.007 1 
0.355 0.119 0.007 1 
0.351 0.119 0.008 1 
0.399 -0.026 -0.012 1 
0.395 0.033 0.008 1 
0.394 0.053 0.004 1 
0.432 -0.015 -0.01 1 
0.38 -0.136 -0.016 1 
0.353 -0.002 -0.005 1 
0.385 -0.09 -0.014 1 
0.334 0.039 0.012 1 
0.322 0.114 -0.001 1 
0.461 -0.329 -0.014 1 
0.475 -0.249 0.004 1 
0.372 -0.165 -0.018 1 
0.468 0.046 0.009 1 
0.32 0.037 0.014 1 
0.347 -0.001 -0.002 1 
0.338 0.104 -0.002 1 
0.373 -0.072 -0.012 1 
0.463 0.032 0.002 1 
0.352 0.09 0.071 2 
0.364 -0.024 0.086 2 
0.346 -0.02 0.082 2 
0.338 -0.005 0.082 2 
0.344 -0.018 0.082 2 
0.328 0.08 0.071 2 
0.367 -0.022 0.081 2 
0.341 0.084 0.069 2 
0.352 0.088 0.069 2 
0.351 0.084 0.069 2 
0.363 0.088 0.07 2 
0.379 0.113 0.08 2 
0.376 0.109 0.08 2 
0.371 0.105 0.079 2 
0.325 -0.003 0.085 2 
0.364 0.103 0.077 2 
0.365 0.101 0.077 2 
0.37 0.094 0.074 2 
0.361 -0.006 0.087 2 
0.342 0.088 0.074 2 
0.335 0.083 0.073 2 
0.359 0.093 0.075 2 
0.34 -0.004 0.083 2 
0.311 -0.011 0.075 2 
0.379 0.09 0.057 2 
0.362 0.085 0.059 2 
0.364 0.084 0.059 2 
0.357 0.074 0.059 2 
0.392 0.079 0.058 2 
0.349 0.016 0.058 2 
0.353 0.01 0.059 2 
0.364 0.009 0.059 2 
0.376 0.072 0.056 2 
0.374 0.069 0.054 2 
0.38 0.083 0.053 2 
0.397 0.087 0.05 2 
0.376 0.081 0.05 2 
0.373 0.078 0.05 2 
0.323 0.001 0.072 2 
0.332 0 0.073 2 
0.34 -0.01 0.077 2 
0.334 -0.012 0.077 2 
0.364 0.053 0.027 2 
0.343 -0.015 0.078 2 
0.366 0.096 0.068 2 
0.356 0.083 0.068 2 
0.371 0.083 0.057 2 
0.386 0.102 0.065 2 
0.355 0.073 0.065 2 
0.335 0.002 0.068 2 
0.378 0.094 0.063 2 
0.37 0.089 0.062 2 
0.353 0.074 0.062 2 
0.376 0.078 0.063 2 
0.376 0.064 0.044 2 
0.395 0.068 0.017 2 
0.351 -0.001 0.067 2 
0.368 0.078 0.068 2 
0.318 -0.011 0.075 2 
0.377 0.12 0.086 2 
0.312 -0.008 0.07 2 
0.37 0.085 0.055 2 
0.354 0.076 0.059 2 
0.354 0.073 0.058 2 
0.361 0.114 0.084 2 
0.331 -0.009 0.081 2 
0.348 -0.01 0.079 2 
0.337 0.103 0.081 2 
0.363 0.117 0.084 2 
0.369 0.119 0.083 2 
0.391 0.044 0.022 2 
0.317 -0.003 0.087 2 
0.391 0.127 0.074 2 
0.317 -0.01 0.08 2 
0.393 0.124 0.074 2 
0.381 0.102 0.069 2 
0.373 0.069 0.036 2 
0.347 0.06 0.034 2 
0.371 0.063 0.022 2 
0.377 0.059 0.021 2 
0.363 0.06 0.022 2 
0.364 0.053 0.02 2 
0.383 0.074 0.039 2 
0.375 0.054 0.033 2 
0.383 0.047 0.022 2 
0.395 0.08 0.041 2 
0.38 0.075 0.039 2 
0.368 0.054 0.032 2 
0.387 0.054 0.03 2 
0.386 0.077 0.036 2 
0.368 0.064 0.038 2 
0.363 0.058 0.033 2 
0.365 0.054 0.03 2 
0.377 0.053 0.029 2 
0.301 0.046 0.01 2 
0.336 0.114 0.014 2 
0.303 0.044 0.007 2 
0.335 0.115 0.014 2 
0.377 0.064 0.042 2 
0.375 0.068 0.049 2 
0.371 0.074 0.048 2 
0.37 0.064 0.047 2 
0.403 0.064 0.035 2 
0.495 -0.01 0.064 2 
0.515 -0.105 0.06 2 
0.425 0.079 0.061 2 
0.502 0.088 0.045 2 
0.509 -0.06 0.089 2 
0.514 -0.07 0.073 2 
0.526 -0.024 0.049 2 
0.487 -0.007 0.067 2 
0.517 -0.074 0.07 2 
0.499 -0.073 0.086 2 
0.522 -0.017 0.058 2 
0.522 -0.027 0.058 2 
0.508 -0.014 0.073 2 
0.443 -0.06 0.074 2 
0.54 -0.022 0.061 2 
0.533 -0.024 0.061 2 
0.53 -0.028 0.061 2 
0.539 -0.032 0.061 2 
0.537 -0.035 0.061 2 
0.518 -0.096 0.057 2 
0.507 -0.014 0.07 2 
0.513 -0.017 0.065 2 
0.518 -0.105 0.063 2 
0.442 -0.045 0.075 2 
0.514 -0.095 0.06 2 
0.529 -0.102 0.06 2 
0.507 -0.099 0.066 2 
0.504 -0.098 0.059 2 
0.419 -0.03 0.078 2 
0.414 -0.034 0.078 2 
0.52 -0.096 0.063 2 
0.531 -0.103 0.063 2 
0.447 0.023 0.035 2 
0.281 0.065 0.034 3 
0.341 0.033 0.065 3 
0.35 0.041 0.066 3 
0.308 0.075 0.064 3 
0.31 0.012 0.064 3 
0.334 0.039 0.066 3 
0.36 0.047 0.068 3 
0.323 0.018 0.064 3 
0.315 0.013 0.064 3 
0.302 0.008 0.064 3 
0.268 0.064 0.061 3 
0.276 0.064 0.061 3 
0.286 0.063 0.062 3 
0.348 0.042 0.064 3 
0.342 0.039 0.064 3 
0.315 0.013 0.068 3 
0.245 0.08 0.064 3 
0.249 0.074 0.064 3 
0.285 0.069 0.067 3 
0.355 0.044 0.066 3 
0.336 0.024 0.064 3 
0.255 0.072 0.064 3 
0.295 0.073 0.067 3 
0.325 0.024 0.069 3 
0.265 0.066 0.064 3 
0.276 0.066 0.064 3 
0.315 0.033 0.067 3 
0.311 0.031 0.066 3 
0.33 0.029 0.068 3 
0.285 0.067 0.064 3 
0.327 0.032 0.063 3 
0.267 0.093 0.033 3 
0.241 0.085 0.056 3 
0.364 0.02 0.054 3 
0.275 0.111 0.031 3 
0.267 0.064 0.054 3 
0.276 0.059 0.054 3 
0.351 0.023 0.057 3 
0.241 0.085 0.054 3 
0.242 0.084 0.054 3 
0.249 0.074 0.054 3 
0.255 0.07 0.054 3 
0.262 0.064 0.054 3 
0.289 0.054 0.052 3 
0.296 0.054 0.049 3 
0.299 0.051 0.044 3 
0.239 0.084 0.064 3 
0.348 0.031 0.064 3 
0.344 0.029 0.064 3 
0.331 0.021 0.063 3 
0.371 0.046 0.063 3 
0.334 0.035 0.063 3 
0.265 0.104 0.034 3 
0.284 0.054 0.048 3 
0.245 0.082 0.054 3 
0.38 0.033 0.059 3 
0.325 0.014 0.059 3 
0.245 0.087 0.083 3 
0.289 -0.003 0.102 3 
0.285 0.056 0.054 3 
0.255 0.094 0.09 3 
0.275 0.065 0.037 3 
0.24 0.086 0.084 3 
0.265 0.099 0.091 3 
0.277 0.016 0.093 3 
0.278 0.014 0.094 3 
0.276 0.004 0.093 3 
0.257 0.098 0.093 3 
0.343 0.035 0.065 3 
0.285 0.002 0.094 3 
0.291 0.088 0.079 3 
0.299 0.022 0.094 3 
0.289 0.02 0.094 3 
0.266 0.065 0.045 3 
0.368 0.043 0.023 3 
0.256 0.087 0.084 3 
0.285 0.014 0.091 3 
0.315 0.044 0.027 3 
0.311 0.023 0.096 3 
0.249 0.084 0.08 3 
0.24 0.087 0.092 3 
0.25 0.095 0.096 3 
0.285 0.065 0.032 3 
0.274 0.019 0.103 3 
0.276 0.019 0.104 3 
0.273 0.014 0.103 3 
0.275 0.013 0.104 3 
0.273 0.004 0.103 3 
0.276 -0.003 0.104 3 
0.256 0.084 0.081 3 
0.263 0.11 0.101 3 
0.281 0.022 0.105 3 
0.28 -0.004 0.105 3 
0.305 0.022 0.094 3 
0.247 0.093 0.093 3 
0.308 0.019 0.074 3 
0.258 0.07 0.044 3 
0.319 0.044 0.023 3 
0.307 0.044 0.028 3 
0.288 0.024 0.104 3 
0.29 0.014 0.084 3 
0.298 0.003 0.074 3 
0.265 0.076 0.074 3 
0.311 0.098 0.081 3 
0.324 0.024 0.083 3 
0.295 0.014 0.078 3 
0.305 -0.003 0.08 3 
0.262 0.074 0.072 3 
0.273 0.074 0.074 3 
0.275 0.075 0.074 3 
0.355 0.022 0.056 3 
0.276 0.073 0.074 3 
0.375 0.043 0.024 3 
0.3 0.013 0.074 3 
0.314 0.023 0.083 3 
0.286 0.075 0.072 3 
0.303 0.084 0.074 3 
0.307 -0.002 0.074 3 
0.252 0.074 0.067 3 
0.315 0.023 0.073 3 
0.309 0.014 0.073 3 
0.282 0.116 0.024 3 
0.24 0.086 0.074 3 
0.325 0.044 0.022 3 
0.268 0.089 0.084 3 
0.29 -0.005 0.089 3 
0.275 0.09 0.084 3 
0.273 0.114 0.024 3 
0.242 0.084 0.076 3 
0.269 0.084 0.081 3 
0.378 0.011 0.052 3 
0.286 0.002 0.084 3 
0.249 0.095 0.041 3 
0.291 0.098 0.085 3 
0.29 0.017 0.084 3 
0.241 0.084 0.074 3 
0.3 0.057 0.051 3 
0.245 0.083 0.074 3 
0.308 0.106 0.086 3 
0.327 0.025 0.089 3 
0.296 0.016 0.083 3 
0.295 -0.004 0.083 3 
0.306 0.052 0.042 3 
0.3 0.098 0.083 3 
0.255 0.078 0.074 3 
0.305 0.114 0.021 3 
0.28 0.081 0.077 3 
0.338 0.056 0.03 3 
0.285 0.055 0.042 3 
0.249 0.085 0.044 3 
0.251 0.08 0.044 3 
0.254 0.074 0.044 3 
0.255 0.075 0.043 3 
0.309 0.048 0.034 3 
0.266 0.065 0.044 3 
0.371 0.046 0.024 3 
0.3 0.048 0.034 3 
0.294 0.05 0.034 3 
0.321 0.049 0.029 3 
0.245 0.085 0.05 3 
0.284 0.055 0.044 3 
0.284 0.054 0.044 3 
0.285 0.054 0.044 3 
0.255 0.095 0.039 3 
0.274 0.062 0.044 3 
0.294 0.078 0.024 3 
0.281 0.102 0.029 3 
0.275 0.075 0.031 3 
0.275 0.094 0.03 3 
0.29 0.116 0.024 3 
0.297 0.117 0.023 3 
0.287 0.092 0.026 3 
0.285 0.078 0.027 3 
0.286 0.114 0.028 3 
0.295 0.078 0.024 3 
0.295 0.056 0.025 3 
0.327 0.119 0.014 3 
0.294 0.06 0.024 3 
0.295 0.058 0.023 3 
0.274 0.115 0.023 3 
0.305 0.115 0.021 3 
0.255 0.094 0.039 3 
0.286 0.06 0.034 3 
0.282 0.064 0.034 3 
0.327 0.048 0.026 3 
0.274 0.068 0.034 3 
0.268 0.106 0.034 3 
0.265 0.078 0.035 3 
0.26 0.103 0.034 3 
0.264 0.089 0.034 3 
0.263 0.084 0.034 3 
0.265 0.084 0.034 3 
0.313 0.044 0.024 3 
0.263 0.105 0.033 3 
0.283 0.115 0.028 3 
0.285 0.115 0.028 3 
0.48 -0.226 0.162 3 
0.464 0.062 0.154 3 
0.466 -0.047 0.034 3 
0.465 0.06 0.154 3 
0.464 0.054 0.154 3 
0.424 0.045 0.141 3 
0.461 0.016 0.044 3 
0.475 -0.211 0.154 3 
0.459 0.024 0.045 3 
0.46 0.034 0.044 3 
0.465 0.068 0.154 3 
0.475 -0.187 0.154 3 
0.475 -0.179 0.154 3 
0.48 -0.236 0.162 3 
0.479 -0.247 0.162 3 
0.478 -0.256 0.162 3 
0.479 -0.269 0.163 3 
0.473 -0.175 0.153 3 
0.48 -0.277 0.163 3 
0.461 0.143 0.154 3 
0.475 -0.196 0.154 3 
0.483 -0.337 0.17 3 
0.464 0.003 0.044 3 
0.482 -0.336 0.052 3 
0.461 0.173 0.154 3 
0.461 0.159 0.154 3 
0.484 0.089 0.043 3 
0.462 0.154 0.154 3 
0.48 -0.286 0.164 3 
0.461 0.132 0.154 3 
0.462 0.124 0.154 3 
0.477 -0.227 0.152 3 
0.463 0.114 0.154 3 
0.46 0.094 0.153 3 
0.462 0.014 0.044 3 
0.462 0.083 0.154 3 
0.463 0.073 0.154 3 
0.466 -0.136 0.004 3 
0.483 -0.309 0.163 3 
0.485 -0.318 0.164 3 
0.485 -0.325 0.164 3 
0.485 -0.335 0.164 3 
0.459 0.053 0.052 3 
0.484 -0.342 0.164 3 
0.469 -0.155 0.003 3 
0.454 0.052 0.146 3 
0.468 -0.146 0.003 3 
0.472 -0.106 0.154 3 
0.473 -0.115 0.152 3 
0.473 -0.126 0.152 3 
0.473 -0.137 0.152 3 
0.467 -0.115 0.004 3 
0.473 -0.146 0.152 3 
0.469 -0.107 0.004 3 
0.473 -0.157 0.153 3 
0.473 -0.166 0.153 3 
0.475 -0.17 0.154 3 
0.48 -0.296 0.164 3 
0.455 0.236 0.152 3 
0.459 0.233 0.153 3 
0.459 0.224 0.152 3 
0.459 0.213 0.152 3 
0.469 -0.177 0.003 3 
0.459 0.204 0.152 3 
0.46 0.193 0.152 3 
0.477 -0.266 0.104 3 
0.461 0.182 0.152 3 
0.467 -0.055 0.152 3 
0.47 -0.166 0.003 3 
0.469 -0.066 0.153 3 
0.471 -0.075 0.154 3 
0.473 -0.087 0.154 3 
0.471 -0.097 0.154 3 
0.474 -0.248 0.092 3 
0.479 -0.266 0.172 3 
0.469 -0.05 0.164 3 
0.47 -0.056 0.164 3 
0.481 -0.227 0.171 3 
0.46 0.064 0.094 3 
0.475 -0.237 0.013 3 
0.481 -0.237 0.171 3 
0.481 -0.246 0.172 3 
0.474 -0.209 0.083 3 
0.481 -0.255 0.172 3 
0.462 0.062 0.162 3 
0.459 0.103 0.084 3 
0.481 -0.278 0.173 3 
0.483 -0.286 0.174 3 
0.482 -0.295 0.174 3 
0.437 0.23 0.154 3 
0.432 0.223 0.152 3 
0.454 0.235 0.159 3 
0.452 0.057 0.155 3 
0.465 0.142 0.163 3 
0.459 0.204 0.163 3 
0.465 -0.047 0.004 3 
0.461 0.194 0.163 3 
0.461 0.183 0.163 3 
0.461 0.174 0.163 3 
0.463 0.164 0.163 3 
0.461 0.154 0.162 3 
0.464 0.144 0.163 3 
0.466 -0.007 0.044 3 
0.471 -0.067 0.162 3 
0.465 0.134 0.163 3 
0.464 0.131 0.163 3 
0.463 0.122 0.162 3 
0.461 0.094 0.161 3 
0.465 0.084 0.163 3 
0.466 0.074 0.163 3 
0.463 0.065 0.162 3 
0.473 -0.226 0.033 3 
0.474 -0.152 0.161 3 
0.484 -0.346 0.174 3 
0.485 -0.35 0.174 3 
0.465 0 0.044 3 
0.468 0.256 0.162 3 
0.465 0.063 0.157 3 
0.475 -0.084 0.161 3 
0.469 -0.085 0.104 3 
0.475 -0.087 0.161 3 
0.474 -0.135 0.161 3 
0.485 -0.336 0.174 3 
0.475 -0.156 0.162 3 
0.478 -0.166 0.163 3 
0.479 -0.175 0.163 3 
0.477 -0.186 0.163 3 
0.478 -0.195 0.164 3 
0.476 -0.206 0.163 3 
0.474 -0.211 0.163 3 
0.472 -0.167 0.033 3 
0.475 -0.15 0.164 3 
0.472 -0.075 0.162 3 
0.472 -0.086 0.162 3 
0.473 -0.095 0.163 3 
0.472 -0.106 0.163 3 
0.473 -0.115 0.163 3 
0.475 -0.127 0.164 3 
0.474 -0.132 0.164 3 
0.475 -0.141 0.164 3 
0.471 -0.147 0.083 3 
0.478 -0.219 0.164 3 
0.495 -0.063 0.075 3 
0.474 -0.158 0.164 3 
0.484 -0.317 0.172 3 
0.485 -0.322 0.173 3 
0.485 -0.325 0.173 3 
0.485 -0.323 0.103 3 
0.484 -0.331 0.173 3 
0.47 -0.166 0.022 3 
0.473 -0.206 0.013 3 
0.475 -0.17 0.139 3 
0.474 -0.187 0.139 3 
0.474 -0.213 0.14 3 
0.48 -0.247 0.142 3 
0.484 -0.257 0.143 3 
0.482 -0.265 0.143 3 
0.481 -0.336 0.004 3 
0.48 -0.276 0.143 3 
0.482 -0.288 0.144 3 
0.482 -0.355 0.004 3 
0.482 -0.297 0.144 3 
0.483 -0.305 0.144 3 
0.464 -0.095 0.01 3 
0.455 0.206 0.132 3 
0.457 0.193 0.132 3 
0.472 -0.147 0.052 3 
0.459 0.183 0.132 3 
0.461 0.173 0.133 3 
0.461 0.162 0.133 3 
0.465 -0.095 0.012 3 
0.474 -0.225 0.143 3 
0.475 -0.228 0.143 3 
0.477 -0.236 0.144 3 
0.459 0.074 0.044 3 
0.456 0.198 0.134 3 
0.458 0.149 0.134 3 
0.458 0.144 0.134 3 
0.459 0.133 0.134 3 
0.459 0.123 0.134 3 
0.464 -0.087 0.01 3 
0.458 0.114 0.134 3 
0.459 0.104 0.134 3 
0.464 -0.036 0.09 3 
0.459 0.093 0.134 3 
0.46 0.083 0.134 3 
0.461 0.072 0.134 3 
0.461 0.062 0.134 3 
0.461 0.054 0.134 3 
0.474 -0.212 0.131 3 
0.476 -0.205 0.134 3 
0.475 -0.216 0.134 3 
0.474 -0.224 0.134 3 
0.474 -0.227 0.134 3 
0.485 -0.303 0.139 3 
0.464 -0.065 0.01 3 
0.485 -0.307 0.139 3 
0.465 -0.049 0.01 3 
0.474 -0.195 0.131 3 
0.475 -0.195 0.134 3 
0.475 -0.225 0.132 3 
0.481 -0.239 0.133 3 
0.48 -0.247 0.133 3 
0.48 -0.257 0.133 3 
0.479 -0.265 0.133 3 
0.483 -0.348 0.061 3 
0.472 -0.167 0.044 3 
0.482 -0.278 0.134 3 
0.454 0.199 0.129 3 
0.465 -0.041 0.133 3 
0.469 -0.047 0.134 3 
0.468 -0.055 0.133 3 
0.468 -0.066 0.133 3 
0.47 -0.077 0.134 3 
0.47 -0.097 0.134 3 
0.492 -0.321 0.144 3 
0.489 -0.325 0.143 3 
0.489 -0.346 0.144 3 
0.475 -0.219 0.143 3 
0.471 -0.116 0.132 3 
0.472 -0.125 0.132 3 
0.481 -0.315 0.034 3 
0.474 -0.137 0.133 3 
0.473 -0.146 0.133 3 
0.473 -0.157 0.133 3 
0.474 -0.166 0.133 3 
0.475 -0.187 0.134 3 
0.459 0.144 0.143 3 
0.458 0.226 0.144 3 
0.459 0.224 0.144 3 
0.459 0.212 0.144 3 
0.485 -0.313 0.112 3 
0.457 0.194 0.143 3 
0.461 0.184 0.144 3 
0.463 0.174 0.144 3 
0.461 0.162 0.143 3 
0.46 0.153 0.143 3 
0.485 -0.311 0.157 3 
0.46 0.134 0.143 3 
0.46 0.123 0.143 3 
0.46 0.112 0.142 3 
0.46 0.104 0.142 3 
0.459 0.093 0.142 3 
0.46 0.083 0.142 3 
0.462 0.073 0.143 3 
0.462 0.064 0.143 3 
0.461 0.054 0.142 3 
0.46 0.063 0.034 3 
0.465 -0.036 0.01 3 
0.474 -0.216 0.154 3 
0.458 0.079 0.044 3 
0.483 -0.316 0.16 3 
0.484 -0.327 0.161 3 
0.487 -0.345 0.162 3 
0.465 0.145 0.147 3 
0.431 0.046 0.136 3 
0.466 -0.055 0.004 3 
0.466 -0.047 0.144 3 
0.464 -0.049 0.146 3 
0.459 0.084 0.052 3 
0.475 -0.147 0.15 3 
0.478 -0.237 0.153 3 
0.479 -0.256 0.154 3 
0.479 -0.269 0.154 3 
0.479 -0.275 0.154 3 
0.465 -0.025 0.004 3 
0.475 -0.147 0.142 3 
0.485 -0.307 0.151 3 
0.489 -0.328 0.153 3 
0.462 0.064 0.044 3 
0.488 -0.335 0.153 3 
0.488 -0.345 0.153 3 
0.47 -0.086 0.134 3 
0.467 -0.055 0.044 3 
0.464 -0.041 0.138 3 
0.473 -0.166 0.144 3 
0.475 -0.158 0.142 3 
0.474 -0.175 0.142 3 
0.475 -0.181 0.142 3 
0.475 -0.187 0.143 3 
0.476 -0.196 0.143 3 
0.472 -0.167 0.094 3 
0.476 -0.205 0.143 3 
0.474 -0.216 0.143 3 
0.462 0.053 0.044 3 
0.465 -0.015 0.004 3 
0.467 -0.055 0.144 3 
0.462 0.043 0.044 3 
0.468 -0.066 0.144 3 
0.472 -0.226 0.148 3 
0.482 -0.288 0.153 3 
0.482 -0.298 0.153 3 
0.482 -0.308 0.153 3 
0.485 -0.318 0.154 3 
0.457 0.173 0.113 3 
0.469 -0.077 0.142 3 
0.469 -0.085 0.142 3 
0.47 -0.097 0.143 3 
0.471 -0.105 0.143 3 
0.471 -0.125 0.143 3 
0.475 -0.144 0.145 3 
0.474 -0.146 0.144 3 
0.473 -0.16 0.144 3 
0.462 0.102 0.154 3 
0.472 -0.176 0.052 3 
0.489 -0.306 0.201 3 
0.491 -0.315 0.203 3 
0.495 -0.326 0.205 3 
0.496 -0.335 0.206 3 
0.48 -0.297 0.043 3 
0.461 0.242 0.184 3 
0.462 0.228 0.184 3 
0.462 0.222 0.184 3 
0.488 -0.295 0.2 3 
0.462 0.213 0.184 3 
0.465 0.192 0.184 3 
0.464 0.185 0.184 3 
0.464 0.182 0.184 3 
0.464 0.174 0.183 3 
0.463 0.144 0.182 3 
0.466 0.137 0.183 3 
0.465 0.134 0.183 3 
0.479 -0.275 0.122 3 
0.485 -0.235 0.197 3 
0.484 -0.188 0.195 3 
0.484 -0.197 0.195 3 
0.484 -0.206 0.196 3 
0.486 -0.22 0.197 3 
0.478 -0.22 0.194 3 
0.484 -0.228 0.196 3 
0.484 -0.345 0.043 3 
0.488 -0.234 0.198 3 
0.465 0.003 0.047 3 
0.466 0.118 0.183 3 
0.484 -0.244 0.197 3 
0.475 -0.118 0.15 3 
0.484 -0.247 0.197 3 
0.485 -0.254 0.198 3 
0.487 -0.258 0.198 3 
0.487 -0.268 0.199 3 
0.487 -0.278 0.199 3 
0.486 -0.287 0.199 3 
0.474 -0.056 0.182 3 
0.464 0.272 0.184 3 
0.462 0.264 0.183 3 
0.462 0.254 0.182 3 
0.468 -0.066 0.123 3 
0.474 -0.227 0.044 3 
0.464 0.202 0.181 3 
0.466 0.195 0.182 3 
0.465 0.148 0.18 3 
0.456 0.202 0.143 3 
0.476 -0.237 0.044 3 
0.473 -0.217 0.044 3 
0.473 -0.197 0.044 3 
0.476 -0.06 0.183 3 
0.474 -0.065 0.183 3 
0.476 -0.071 0.183 3 
0.457 0.034 0.047 3 
0.474 -0.076 0.183 3 
0.475 -0.079 0.183 3 
0.483 -0.196 0.192 3 
0.47 -0.105 0.132 3 
0.466 0.112 0.183 3 
0.468 0.102 0.183 3 
0.468 0.094 0.183 3 
0.465 -0.036 0.004 3 
0.467 0.082 0.183 3 
0.476 -0.278 0.044 3 
0.476 -0.265 0.044 3 
0.483 -0.187 0.192 3 
0.477 -0.175 0.192 3 
0.483 -0.205 0.192 3 
0.474 -0.129 0.172 3 
0.483 -0.23 0.193 3 
0.482 -0.236 0.193 3 
0.476 -0.247 0.044 3 
0.483 -0.246 0.194 3 
0.495 -0.326 0.202 3 
0.465 0.131 0.174 3 
0.465 0.203 0.188 3 
0.466 0.192 0.188 3 
0.466 0.184 0.187 3 
0.465 0.174 0.187 3 
0.486 -0.347 0.04 3 
0.463 0.167 0.186 3 
0.461 0.164 0.185 3 
0.46 0.16 0.184 3 
0.461 0.152 0.185 3 
0.48 -0.297 0.023 3 
0.479 -0.247 0.153 3 
0.461 0.15 0.184 3 
0.465 0.145 0.186 3 
0.465 0.143 0.186 3 
0.464 0.139 0.185 3 
0.464 0.134 0.185 3 
0.465 0.129 0.185 3 
0.46 0.064 0.113 3 
0.462 0.252 0.188 3 
0.472 -0.117 0.143 3 
0.464 -0.033 0.082 3 
0.466 0.28 0.191 3 
0.466 0.274 0.191 3 
0.487 -0.325 0.094 3 
0.464 0.266 0.189 3 
0.465 0.264 0.19 3 
0.464 0.26 0.189 3 
0.463 0.125 0.184 3 
0.462 0.243 0.188 3 
0.464 0.232 0.188 3 
0.465 0.23 0.188 3 
0.463 0.222 0.187 3 
0.465 0.221 0.188 3 
0.467 -0.044 0.144 3 
0.464 0.214 0.187 3 
0.465 0.212 0.188 3 
0.479 -0.126 0.191 3 
0.466 -0.125 0.012 3 
0.475 -0.076 0.189 3 
0.466 -0.047 0.152 3 
0.475 -0.085 0.189 3 
0.477 -0.097 0.19 3 
0.478 -0.106 0.19 3 
0.478 -0.117 0.191 3 
0.454 0.088 0.073 3 
0.483 -0.355 0.052 3 
0.475 -0.065 0.189 3 
0.466 -0.044 0.152 3 
0.48 -0.135 0.192 3 
0.459 0.093 0.102 3 
0.484 -0.315 0.103 3 
0.482 -0.145 0.193 3 
0.482 -0.157 0.193 3 
0.478 -0.166 0.192 3 
0.465 -0.065 0.074 3 
0.474 -0.175 0.134 3 
0.463 0.122 0.184 3 
0.465 0.12 0.185 3 
0.467 0.113 0.186 3 
0.468 0.102 0.186 3 
0.464 0.084 0.16 3 
0.467 0.093 0.186 3 
0.466 0.082 0.185 3 
0.464 0.073 0.184 3 
0.461 0.062 0.183 3 
0.476 -0.21 0.072 3 
0.475 -0.222 0.041 3 
0.464 -0.025 0.042 3 
0.465 0.008 0.042 3 
0.465 -0.015 0.023 3 
0.465 0.016 0.039 3 
0.483 -0.355 0.043 3 
0.477 -0.057 0.189 3 
0.474 -0.205 0.154 3 
0.491 -0.337 0.144 3 
0.467 -0.077 0.044 3 
0.486 -0.286 0.184 3 
0.464 0.092 0.168 3 
0.471 -0.053 0.17 3 
0.467 -0.066 0.044 3 
0.476 -0.102 0.172 3 
0.477 -0.111 0.173 3 
0.443 0.055 0.155 3 
0.475 -0.116 0.172 3 
0.483 -0.277 0.182 3 
0.477 -0.125 0.173 3 
0.477 -0.136 0.173 3 
0.474 -0.138 0.172 3 
0.474 -0.147 0.173 3 
0.485 0.104 0.052 3 
0.474 -0.155 0.173 3 
0.475 -0.162 0.173 3 
0.475 -0.167 0.173 3 
0.468 -0.096 0.052 3 
0.465 0.112 0.171 3 
0.461 0.232 0.173 3 
0.462 0.224 0.173 3 
0.462 0.212 0.173 3 
0.462 0.204 0.172 3 
0.462 0.192 0.172 3 
0.463 0.184 0.172 3 
0.465 0.145 0.172 3 
0.464 0.125 0.171 3 
0.468 -0.096 0.044 3 
0.487 -0.297 0.182 3 
0.468 -0.085 0.044 3 
0.475 -0.054 0.174 3 
0.473 -0.056 0.174 3 
0.472 -0.067 0.173 3 
0.471 -0.075 0.173 3 
0.474 -0.096 0.174 3 
0.473 -0.109 0.174 3 
0.482 -0.266 0.182 3 
0.48 -0.215 0.174 3 
0.473 -0.115 0.169 3 
0.476 -0.145 0.17 3 
0.474 -0.167 0.17 3 
0.474 -0.135 0.144 3 
0.478 -0.178 0.172 3 
0.48 -0.185 0.173 3 
0.465 -0.087 0.012 3 
0.479 -0.196 0.173 3 
0.479 -0.205 0.173 3 
0.465 -0.015 0.044 3 
0.474 -0.166 0.156 3 
0.476 -0.22 0.152 3 
0.457 0.252 0.164 3 
0.516 -0.026 0.052 3 
0.46 0.243 0.164 3 
0.459 0.233 0.164 3 
0.458 0.224 0.163 3 
0.458 0.212 0.163 3 
0.467 0.264 0.17 3 
0.484 -0.301 0.181 3 
0.485 -0.305 0.181 3 
0.484 -0.311 0.181 3 
0.486 -0.316 0.182 3 
0.487 -0.328 0.183 3 
0.479 -0.297 0.064 3 
0.488 -0.336 0.184 3 
0.466 -0.047 0.044 3 
0.472 -0.147 0.044 3 
0.46 0.24 0.173 3 
0.473 0.266 0.172 3 
0.482 -0.305 0.174 3 
0.476 -0.235 0.104 3 
0.467 0.249 0.17 3 
0.461 0.11 0.164 3 
0.461 0.099 0.164 3 
0.465 -0.025 0.044 3 
0.475 -0.073 0.169 3 
0.475 -0.136 0.181 3 
0.491 -0.326 0.197 3 
0.492 -0.337 0.198 3 
0.464 0.076 0.176 3 
0.468 -0.143 0.014 3 
0.46 0.064 0.174 3 
0.48 -0.307 0.064 3 
0.478 -0.117 0.182 3 
0.473 -0.176 0.044 3 
0.478 -0.125 0.182 3 
0.473 -0.205 0.044 3 
0.476 -0.148 0.182 3 
0.474 -0.155 0.181 3 
0.475 -0.231 0.044 3 
0.476 -0.159 0.182 3 
0.475 -0.17 0.182 3 
0.476 -0.177 0.183 3 
0.479 -0.185 0.184 3 
0.471 -0.135 0.044 3 
0.479 -0.2 0.184 3 
0.484 -0.265 0.191 3 
0.475 -0.085 0.183 3 
0.474 -0.087 0.183 3 
0.475 -0.096 0.183 3 
0.474 -0.098 0.183 3 
0.477 -0.105 0.184 3 
0.473 -0.168 0.102 3 
0.474 -0.167 0.184 3 
0.484 -0.255 0.191 3 
0.467 -0.077 0.074 3 
0.469 -0.115 0.044 3 
0.484 -0.275 0.192 3 
0.475 -0.246 0.081 3 
0.472 -0.187 0.044 3 
0.485 -0.279 0.192 3 
0.443 0.04 0.053 3 
0.486 -0.286 0.193 3 
0.474 -0.239 0.01 3 
0.488 -0.295 0.194 3 
0.472 -0.176 0.072 3 
0.466 0.093 0.174 3 
0.467 0.082 0.174 3 
0.464 0.079 0.173 3 
0.465 0.074 0.174 3 
0.46 0.07 0.172 3 
0.467 -0.085 0.174 3 
0.474 -0.138 0.178 3 
0.474 -0.15 0.178 3 
0.48 -0.215 0.182 3 
0.465 0.101 0.174 3 
0.481 -0.225 0.183 3 
0.481 -0.238 0.184 3 
0.482 -0.247 0.184 3 
0.482 -0.257 0.184 3 
0.46 0.262 0.173 3 
0.469 -0.107 0.044 3 
0.465 0.26 0.175 3 
0.46 0.249 0.173 3 
0.462 0.167 0.174 3 
0.478 -0.208 0.184 3 
0.459 0.074 0.123 3 
0.488 -0.305 0.192 3 
0.488 -0.315 0.192 3 
0.489 -0.327 0.193 3 
0.474 -0.197 0.052 3 
0.49 -0.335 0.194 3 
0.468 0.275 0.18 3 
0.465 0.183 0.176 3 
0.48 -0.317 0.043 3 
0.485 -0.339 0.04 3 
0.462 0.164 0.174 3 
0.461 0.154 0.173 3 
0.464 0.142 0.174 3 
0.465 0.14 0.174 3 
0.464 0.123 0.174 3 
0.463 0.114 0.173 3 
0.464 0.103 0.174 3 
0.472 -0.156 0.074 3 
0.47 -0.086 0.074 3 
0.471 -0.105 0.074 3 
0.47 -0.116 0.074 3 
0.469 -0.126 0.074 3 
0.48 -0.307 0.023 3 
0.469 -0.135 0.074 3 
0.471 -0.147 0.074 3 
0.481 -0.315 0.023 3 
0.472 -0.167 0.074 3 
0.475 -0.201 0.075 3 
0.479 -0.286 0.023 3 
0.471 -0.155 0.044 3 
0.477 -0.275 0.023 3 
0.477 0.127 0.071 3 
0.454 0.099 0.07 3 
0.476 -0.268 0.024 3 
0.476 -0.259 0.024 3 
0.48 -0.327 0.034 3 
0.464 0.032 0.023 3 
0.461 0.042 0.023 3 
0.462 0.053 0.023 3 
0.461 0.058 0.023 3 
0.481 -0.057 0.077 3 
0.475 -0.219 0.078 3 
0.483 -0.296 0.034 3 
0.481 -0.308 0.034 3 
0.456 0.118 0.073 3 
0.474 -0.255 0.024 3 
0.454 0.112 0.073 3 
0.455 0.11 0.073 3 
0.457 0.103 0.073 3 
0.456 0.092 0.073 3 
0.484 -0.345 0.034 3 
0.485 -0.347 0.022 3 
0.482 -0.336 0.022 3 
0.481 -0.328 0.022 3 
0.477 -0.276 0.072 3 
0.478 -0.286 0.073 3 
0.477 -0.295 0.073 3 
0.48 -0.308 0.073 3 
0.48 -0.317 0.073 3 
0.483 -0.327 0.073 3 
0.483 -0.337 0.073 3 
0.486 -0.344 0.049 3 
0.464 -0.036 0.05 3 
0.476 -0.265 0.072 3 
0.503 -0.019 0.049 3 
0.462 0.043 0.05 3 
0.474 -0.258 0.027 3 
0.475 -0.249 0.03 3 
0.475 -0.243 0.03 3 
0.48 0.073 0.029 3 
0.481 -0.356 0.034 3 
0.485 -0.347 0.031 3 
0.475 -0.204 0.072 3 
0.472 -0.226 0.024 3 
0.472 -0.217 0.024 3 
0.472 -0.208 0.024 3 
0.485 -0.346 0.049 3 
0.476 -0.07 0.072 3 
0.472 -0.187 0.072 3 
0.473 -0.196 0.072 3 
0.45 0.077 0.075 3 
0.474 -0.206 0.072 3 
0.474 -0.215 0.072 3 
0.475 -0.219 0.072 3 
0.475 -0.225 0.072 3 
0.477 -0.235 0.072 3 
0.468 -0.085 0.034 3 
0.477 -0.247 0.072 3 
0.476 -0.256 0.072 3 
0.469 -0.085 0.082 3 
0.47 -0.155 0.022 3 
0.47 -0.146 0.022 3 
0.472 0.139 0.082 3 
0.469 -0.135 0.022 3 
0.464 -0.041 0.082 3 
0.465 -0.047 0.082 3 
0.467 -0.055 0.082 3 
0.467 -0.066 0.082 3 
0.469 -0.077 0.082 3 
0.468 -0.176 0.022 3 
0.469 -0.096 0.082 3 
0.47 -0.105 0.082 3 
0.464 -0.023 0.02 3 
0.468 -0.126 0.082 3 
0.469 -0.135 0.082 3 
0.474 -0.157 0.083 3 
0.464 -0.015 0.042 3 
0.473 -0.165 0.083 3 
0.472 -0.176 0.083 3 
0.454 0.054 0.083 3 
0.457 0.196 0.124 3 
0.469 0.087 0.047 3 
0.458 0.124 0.084 3 
0.476 -0.265 0.012 3 
0.459 0.114 0.084 3 
0.46 0.093 0.084 3 
0.46 0.082 0.084 3 
0.459 0.074 0.084 3 
0.456 0.063 0.083 3 
0.472 -0.187 0.083 3 
0.455 0.049 0.083 3 
0.465 -0.033 0.084 3 
0.465 -0.036 0.084 3 
0.475 -0.219 0.086 3 
0.475 -0.249 0.021 3 
0.47 -0.116 0.082 3 
0.473 -0.197 0.022 3 
0.468 -0.185 0.022 3 
0.484 -0.328 0.082 3 
0.468 -0.077 0.023 3 
0.451 0.069 0.078 3 
0.447 0.063 0.078 3 
0.465 -0.055 0.023 3 
0.465 -0.047 0.023 3 
0.465 -0.036 0.023 3 
0.476 -0.045 0.08 3 
0.479 -0.307 0.082 3 
0.479 -0.317 0.082 3 
0.467 -0.085 0.023 3 
0.483 -0.337 0.082 3 
0.485 -0.343 0.082 3 
0.485 -0.346 0.082 3 
0.465 -0.025 0.023 3 
0.466 -0.007 0.023 3 
0.466 0.014 0.023 3 
0.465 0.024 0.023 3 
0.465 0.027 0.023 3 
0.443 0.077 0.075 3 
0.478 -0.276 0.084 3 
0.472 -0.196 0.083 3 
0.474 -0.215 0.083 3 
0.474 -0.227 0.083 3 
0.475 -0.231 0.083 3 
0.468 -0.126 0.023 3 
0.475 -0.237 0.084 3 
0.471 -0.097 0.074 3 
0.475 -0.255 0.084 3 
0.477 -0.266 0.084 3 
0.485 -0.343 0.031 3 
0.478 -0.286 0.084 3 
0.478 -0.296 0.084 3 
0.468 -0.115 0.023 3 
0.482 -0.32 0.085 3 
0.484 -0.325 0.085 3 
0.484 -0.335 0.085 3 
0.468 -0.107 0.023 3 
0.467 -0.095 0.023 3 
0.465 -0.015 0.034 3 
0.465 -0.036 0.034 3 
0.507 -0.029 0.058 3 
0.496 -0.031 0.058 3 
0.465 -0.055 0.058 3 
0.467 -0.066 0.058 3 
0.468 -0.077 0.058 3 
0.466 -0.025 0.034 3 
0.467 -0.055 0.034 3 
0.487 0.107 0.055 3 
0.482 0.103 0.055 3 
0.454 0.088 0.055 3 
0.48 -0.026 0.055 3 
0.466 -0.028 0.055 3 
0.465 -0.036 0.055 3 
0.466 -0.047 0.055 3 
0.465 -0.009 0.034 3 
0.467 -0.126 0.004 3 
0.463 0.053 0.034 3 
0.464 -0.033 0.06 3 
0.452 -0.055 0.06 3 
0.464 -0.007 0.034 3 
0.481 -0.308 0.043 3 
0.456 -0.074 0.06 3 
0.472 -0.094 0.061 3 
0.483 -0.355 0.061 3 
0.468 -0.107 0.034 3 
0.468 -0.096 0.034 3 
0.467 -0.077 0.034 3 
0.477 -0.247 0.052 3 
0.469 -0.115 0.052 3 
0.47 -0.127 0.052 3 
0.47 -0.135 0.052 3 
0.473 -0.165 0.052 3 
0.473 -0.188 0.052 3 
0.474 -0.206 0.052 3 
0.474 -0.215 0.052 3 
0.475 -0.228 0.052 3 
0.477 -0.235 0.052 3 
0.469 -0.107 0.052 3 
0.476 -0.256 0.052 3 
0.476 -0.265 0.052 3 
0.463 0.043 0.034 3 
0.476 -0.275 0.052 3 
0.477 -0.288 0.052 3 
0.479 -0.296 0.052 3 
0.48 -0.307 0.052 3 
0.482 -0.319 0.052 3 
0.481 -0.325 0.052 3 
0.464 0.003 0.034 3 
0.464 0.008 0.034 3 
0.461 0.074 0.052 3 
0.459 0.063 0.052 3 
0.478 -0.267 0.003 3 
0.465 0.014 0.034 3 
0.465 0.016 0.034 3 
0.464 0.024 0.034 3 
0.464 0.032 0.034 3 
0.468 -0.115 0.034 3 
0.473 -0.026 0.052 3 
0.465 -0.036 0.052 3 
0.466 -0.047 0.052 3 
0.466 -0.055 0.052 3 
0.466 -0.066 0.052 3 
0.466 -0.076 0.052 3 
0.467 -0.085 0.052 3 
0.464 -0.036 0.063 3 
0.474 -0.276 0.067 3 
0.486 -0.344 0.067 3 
0.486 -0.347 0.067 3 
0.478 0.081 0.063 3 
0.487 0.075 0.063 3 
0.465 0 0.031 3 
0.454 0.065 0.063 3 
0.454 0.062 0.063 3 
0.45 0.054 0.063 3 
0.471 -0.195 0.033 3 
0.447 -0.044 0.063 3 
0.46 0.066 0.034 3 
0.47 -0.186 0.033 3 
0.491 -0.086 0.064 3 
0.441 0.042 0.055 3 
0.479 -0.286 0.032 3 
0.475 -0.279 0.032 3 
0.474 -0.275 0.032 3 
0.476 -0.265 0.032 3 
0.477 -0.257 0.032 3 
0.474 -0.248 0.032 3 
0.457 -0.071 0.068 3 
0.479 -0.082 0.069 3 
0.492 -0.089 0.069 3 
0.484 -0.345 0.07 3 
0.473 -0.235 0.033 3 
0.472 -0.217 0.033 3 
0.471 -0.207 0.033 3 
0.47 -0.127 0.033 3 
0.471 -0.155 0.033 3 
0.476 -0.275 0.064 3 
0.48 -0.317 0.064 3 
0.482 -0.326 0.064 3 
0.47 -0.146 0.033 3 
0.483 -0.337 0.064 3 
0.485 -0.346 0.064 3 
0.466 0.003 0.023 3 
0.471 -0.136 0.033 3 
0.476 -0.265 0.064 3 
0.455 0.097 0.06 3 
0.466 0.095 0.06 3 
0.467 0.092 0.06 3 
0.462 0.085 0.06 3 
0.463 0.083 0.06 3 
0.457 0.073 0.06 3 
0.457 0.063 0.06 3 
0.455 0.052 0.06 3 
0.472 -0.176 0.063 3 
0.471 -0.097 0.063 3 
0.471 -0.105 0.063 3 
0.471 -0.116 0.063 3 
0.483 -0.348 0.052 3 
0.47 -0.127 0.063 3 
0.469 -0.135 0.063 3 
0.471 -0.147 0.063 3 
0.473 -0.156 0.063 3 
0.473 -0.165 0.063 3 
0.454 0.031 0.047 3 
0.471 -0.187 0.063 3 
0.473 -0.205 0.064 3 
0.471 -0.175 0.033 3 
0.474 -0.215 0.064 3 
0.475 -0.225 0.064 3 
0.476 -0.237 0.064 3 
0.476 -0.247 0.064 3 
0.476 -0.256 0.064 3 
0.485 -0.348 0.122 3 
0.458 0.103 0.113 3 
0.459 0.093 0.113 3 
0.46 0.082 0.113 3 
0.46 0.072 0.113 3 
0.459 0.053 0.113 3 
0.466 -0.039 0.114 3 
0.466 -0.047 0.114 3 
0.468 -0.055 0.114 3 
0.474 -0.227 0.117 3 
0.462 0.093 0.052 3 
0.484 -0.351 0.122 3 
0.477 -0.256 0.012 3 
0.475 -0.246 0.012 3 
0.46 -0.046 0.06 3 
0.469 -0.066 0.112 3 
0.469 -0.077 0.112 3 
0.469 -0.085 0.112 3 
0.467 -0.066 0.034 3 
0.483 -0.335 0.124 3 
0.474 -0.252 0.121 3 
0.474 -0.261 0.121 3 
0.476 -0.266 0.121 3 
0.476 -0.256 0.044 3 
0.481 -0.286 0.123 3 
0.482 -0.297 0.123 3 
0.483 -0.308 0.124 3 
0.483 -0.315 0.124 3 
0.481 -0.326 0.124 3 
0.469 -0.096 0.112 3 
0.475 -0.277 0.012 3 
0.457 0.176 0.113 3 
0.458 0.163 0.113 3 
0.458 0.154 0.113 3 
0.46 0.144 0.113 3 
0.461 0.134 0.113 3 
0.459 0.122 0.113 3 
0.458 0.114 0.113 3 
0.482 -0.297 0.114 3 
0.475 -0.231 0.112 3 
0.474 -0.236 0.112 3 
0.475 -0.243 0.112 3 
0.475 -0.246 0.112 3 
0.475 -0.255 0.112 3 
0.477 -0.266 0.113 3 
0.46 0.074 0.094 3 
0.478 -0.277 0.113 3 
0.48 -0.288 0.114 3 
0.474 -0.227 0.112 3 
0.485 -0.337 0.116 3 
0.464 -0.03 0.052 3 
0.485 -0.343 0.022 3 
0.47 -0.198 0.014 3 
0.473 -0.156 0.052 3 
0.467 -0.187 0.014 3 
0.456 0.047 0.104 3 
0.467 -0.176 0.014 3 
0.474 -0.177 0.114 3 
0.47 -0.105 0.112 3 
0.471 -0.116 0.113 3 
0.475 -0.234 0.013 3 
0.471 -0.125 0.113 3 
0.47 -0.136 0.113 3 
0.473 -0.185 0.114 3 
0.469 -0.146 0.113 3 
0.47 -0.155 0.113 3 
0.473 -0.165 0.113 3 
0.484 -0.346 0.01 3 
0.472 -0.196 0.114 3 
0.473 -0.206 0.114 3 
0.475 -0.213 0.114 3 
0.475 -0.216 0.114 3 
0.472 -0.226 0.013 3 
0.472 -0.217 0.013 3 
0.473 -0.176 0.102 3 
0.474 -0.218 0.111 3 
0.486 -0.346 0.134 3 
0.475 -0.181 0.128 3 
0.474 -0.261 0.129 3 
0.481 -0.286 0.131 3 
0.48 -0.295 0.132 3 
0.483 -0.305 0.132 3 
0.485 -0.317 0.133 3 
0.486 -0.325 0.134 3 
0.486 -0.335 0.134 3 
0.484 -0.337 0.134 3 
0.466 -0.117 0.012 3 
0.466 -0.106 0.012 3 
0.465 -0.065 0.012 3 
0.464 -0.036 0.098 3 
0.467 -0.039 0.122 3 
0.467 -0.047 0.122 3 
0.468 -0.055 0.123 3 
0.464 -0.017 0.047 3 
0.469 -0.077 0.123 3 
0.458 0.114 0.123 3 
0.458 0.193 0.124 3 
0.46 0.181 0.124 3 
0.46 0.172 0.124 3 
0.459 0.163 0.124 3 
0.459 0.152 0.124 3 
0.458 0.144 0.124 3 
0.466 -0.066 0.023 3 
0.459 0.133 0.124 3 
0.459 0.122 0.124 3 
0.468 -0.085 0.123 3 
0.457 0.103 0.123 3 
0.458 0.093 0.123 3 
0.459 0.082 0.123 3 
0.46 0.064 0.123 3 
0.459 0.053 0.123 3 
0.485 0.092 0.043 3 
0.474 -0.242 0.038 3 
0.474 -0.245 0.038 3 
0.483 -0.325 0.127 3 
0.475 -0.201 0.123 3 
0.474 -0.206 0.123 3 
0.476 -0.211 0.123 3 
0.478 -0.215 0.124 3 
0.476 -0.226 0.123 3 
0.478 -0.236 0.124 3 
0.477 -0.245 0.124 3 
0.478 -0.258 0.124 3 
0.484 -0.316 0.127 3 
0.474 -0.195 0.122 3 
0.464 -0.036 0.012 3 
0.474 -0.276 0.041 3 
0.463 -0.025 0.013 3 
0.463 -0.015 0.013 3 
0.462 -0.007 0.013 3 
0.475 -0.222 0.047 3 
0.466 -0.015 0.047 3 
0.474 -0.215 0.12 3 
0.485 -0.307 0.13 3 
0.469 -0.096 0.123 3 
0.48 -0.285 0.093 3 
0.469 -0.105 0.123 3 
0.47 -0.116 0.123 3 
0.471 -0.125 0.124 3 
0.471 -0.136 0.124 3 
0.471 -0.145 0.124 3 
0.474 -0.186 0.125 3 
0.466 -0.076 0.012 3 
0.484 -0.347 0.131 3 
0.465 -0.063 0.012 3 
0.464 -0.055 0.012 3 
0.464 -0.047 0.012 3 
0.471 -0.156 0.121 3 
0.472 -0.165 0.122 3 
0.474 -0.177 0.122 3 
0.473 -0.185 0.122 3 
0.465 -0.033 0.092 3 
0.474 -0.257 0.098 3 
0.486 -0.338 0.101 3 
0.478 -0.295 0.014 3 
0.478 -0.286 0.064 3 
0.482 -0.348 0.004 3 
0.478 -0.292 0.014 3 
0.464 -0.055 0.018 3 
0.464 -0.007 0.018 3 
0.458 0.132 0.084 3 
0.48 -0.307 0.014 3 
0.465 -0.036 0.092 3 
0.466 -0.047 0.093 3 
0.467 -0.055 0.093 3 
0.467 -0.066 0.093 3 
0.469 -0.077 0.093 3 
0.469 -0.085 0.093 3 
0.469 -0.096 0.093 3 
0.471 -0.105 0.093 3 
0.459 0.122 0.094 3 
0.484 -0.336 0.103 3 
0.484 -0.347 0.103 3 
0.485 -0.35 0.104 3 
0.483 -0.355 0.103 3 
0.479 0.162 0.097 3 
0.455 0.145 0.094 3 
0.455 0.142 0.094 3 
0.457 0.132 0.094 3 
0.48 -0.328 0.014 3 
0.47 -0.116 0.093 3 
0.497 -0.099 0.07 3 
0.459 0.114 0.094 3 
0.459 0.103 0.094 3 
0.46 0.093 0.094 3 
0.46 0.082 0.094 3 
0.46 0.053 0.094 3 
0.466 0.084 0.047 3 
0.48 -0.317 0.014 3 
0.477 -0.305 0.093 3 
0.475 -0.246 0.092 3 
0.471 -0.195 0.063 3 
0.478 -0.285 0.044 3 
0.475 -0.255 0.092 3 
0.474 -0.257 0.092 3 
0.477 -0.266 0.093 3 
0.472 -0.127 0.044 3 
0.479 -0.277 0.093 3 
0.478 -0.296 0.093 3 
0.477 -0.235 0.092 3 
0.464 0.024 0.02 3 
0.485 -0.316 0.094 3 
0.486 -0.344 0.094 3 
0.452 0.046 0.086 3 
0.474 -0.227 0.089 3 
0.486 -0.347 0.091 3 
0.45 0.084 0.045 3 
0.475 -0.243 0.018 3 
0.469 -0.127 0.093 3 
0.468 -0.135 0.093 3 
0.47 -0.146 0.093 3 
0.472 -0.156 0.094 3 
0.471 -0.175 0.094 3 
0.473 -0.185 0.094 3 
0.473 -0.197 0.094 3 
0.475 -0.201 0.094 3 
0.481 -0.325 0.043 3 
0.464 -0.047 0.02 3 
0.464 -0.039 0.02 3 
0.475 -0.207 0.083 3 
0.464 -0.028 0.02 3 
0.464 -0.033 0.09 3 
0.473 -0.205 0.092 3 
0.473 -0.217 0.092 3 
0.476 -0.225 0.092 3 
0.467 -0.047 0.103 3 
0.459 0.114 0.102 3 
0.458 0.103 0.102 3 
0.46 0.082 0.102 3 
0.46 0.074 0.102 3 
0.46 0.064 0.102 3 
0.482 -0.336 0.034 3 
0.468 -0.036 0.104 3 
0.454 0.013 0.047 3 
0.459 0.122 0.102 3 
0.468 -0.055 0.104 3 
0.469 -0.066 0.104 3 
0.485 -0.33 0.103 3 
0.47 -0.097 0.104 3 
0.471 -0.105 0.104 3 
0.465 -0.036 0.044 3 
0.471 -0.116 0.104 3 
0.47 -0.13 0.104 3 
0.469 -0.146 0.014 3 
0.469 -0.166 0.014 3 
0.47 -0.155 0.014 3 
0.483 -0.308 0.112 3 
0.484 -0.315 0.112 3 
0.485 -0.323 0.112 3 
0.484 -0.326 0.112 3 
0.474 -0.245 0.084 3 
0.483 -0.339 0.112 3 
0.469 -0.077 0.104 3 
0.483 -0.346 0.112 3 
0.474 -0.245 0.024 3 
0.469 -0.007 0.047 3 
0.457 0.011 0.047 3 
0.457 0.157 0.102 3 
0.458 0.152 0.102 3 
0.458 0.143 0.102 3 
0.458 0.133 0.102 3 
0.475 -0.246 0.104 3 
0.474 -0.2 0.103 3 
0.482 -0.337 0.013 3 
0.475 -0.207 0.103 3 
0.474 -0.209 0.103 3 
0.474 -0.215 0.103 3 
0.469 -0.135 0.104 3 
0.475 -0.225 0.103 3 
0.482 -0.336 0.043 3 
0.474 -0.227 0.103 3 
0.475 -0.219 0.103 3 
0.475 -0.255 0.104 3 
0.477 -0.276 0.104 3 
0.5 -0.037 0.102 3 
0.478 -0.286 0.102 3 
0.479 -0.297 0.102 3 
0.481 -0.306 0.102 3 
0.486 -0.314 0.103 3 
0.484 -0.325 0.103 3 
0.475 -0.198 0.103 3 
0.472 -0.235 0.024 3 
0.468 -0.146 0.104 3 
0.469 -0.155 0.104 3 
0.474 -0.248 0.106 3 
0.485 -0.327 0.109 3 
0.483 -0.355 0.109 3 
0.486 -0.348 0.012 3 
0.472 -0.034 0.101 3 
0.475 -0.186 0.103 3 
0.474 -0.188 0.103 3 
0.578 -0.05 0.157 3 
0.551 -0.053 0.175 3 
0.566 -0.052 0.172 3 
0.555 -0.04 0.096 3 
0.577 -0.038 0.12 3 
0.564 -0.041 0.118 3 
0.575 -0.045 0.138 3 
0.589 -0.047 0.148 3 
0.574 -0.053 0.178 3 
0.556 -0.054 0.173 3 
0.577 -0.042 0.113 3 
0.553 -0.026 0.092 3 
0.567 -0.048 0.151 3 
0.592 -0.044 0.157 3 
0.555 -0.036 0.092 3 
0.587 -0.039 0.114 3 
0.567 -0.041 0.104 3 
0.573 -0.045 0.141 3 
0.586 -0.051 0.174 3 
0.591 -0.043 0.153 3 
0.582 -0.05 0.151 3 
0.34 0.017 0.014 7 
0.342 0.003 0.013 7 
0.352 -0.001 0.011 7 
0.34 0.016 0.022 7 
0.34 0.014 0.014 7 
0.341 0.003 0.021 7 
0.34 0.014 0.022 7 
