# .PCD v0.7 - Point Cloud Data file
FIELDS x y z intensity
SIZE 4 4 4 4
TYPE F F F F
COUNT 1 1 1 1
WIDTH 2609
HEIGHT 1
VIEWPOINT 0 0 0 1 0 0 0
POINTS 2609
DATA ascii
0.311 0.002 0.018 0 
0.302 -0.005 0.021 0 
0.304 -0.002 0.02 0 
0.294 -0.014 0.021 0 
0.374 -0.236 -0.026 1 
0.363 -0.178 -0.019 1 
0.36 -0.166 -0.017 1 
0.363 -0.156 -0.018 1 
0.364 -0.136 -0.018 1 
0.362 -0.127 -0.017 1 
0.356 -0.106 -0.014 1 
0.361 -0.055 -0.015 1 
0.364 -0.026 -0.016 1 
0.294 0 0.009 1 
0.357 0.034 -0.014 1 
0.354 0.063 -0.013 1 
0.356 0.106 -0.015 1 
0.352 0.114 -0.014 1 
0.349 0.123 -0.013 1 
0.354 0.141 -0.015 1 
0.352 0.142 -0.014 1 
0.352 0.151 -0.015 1 
0.352 0.213 -0.018 1 
0.352 0.215 -0.019 1 
0.383 -0.228 -0.026 1 
0.374 -0.195 -0.022 1 
0.364 -0.107 -0.015 1 
0.361 -0.095 -0.014 1 
0.364 -0.094 -0.015 1 
0.363 -0.085 -0.014 1 
0.363 -0.056 -0.014 1 
0.365 -0.045 -0.015 1 
0.364 0.011 -0.015 1 
0.364 0.02 -0.015 1 
0.363 0.023 -0.014 1 
0.364 0.028 -0.015 1 
0.364 0.039 -0.015 1 
0.361 0.044 -0.014 1 
0.362 0.057 -0.014 1 
0.364 0.063 -0.015 1 
0.363 0.073 -0.015 1 
0.364 0.094 -0.016 1 
0.359 0.124 -0.015 1 
0.355 0.157 -0.014 1 
0.354 0.169 -0.015 1 
0.351 0.174 -0.014 1 
0.354 0.191 -0.016 1 
0.366 -0.234 -0.019 1 
0.386 -0.229 -0.025 1 
0.373 -0.175 -0.018 1 
0.373 -0.158 -0.018 1 
0.374 -0.136 -0.018 1 
0.372 -0.127 -0.017 1 
0.374 -0.118 -0.017 1 
0.374 -0.105 -0.017 1 
0.369 -0.095 -0.015 1 
0.374 -0.08 -0.016 1 
0.37 -0.061 -0.015 1 
0.369 -0.041 -0.014 1 
0.373 -0.036 -0.016 1 
0.37 0.013 -0.015 1 
0.369 0.015 -0.015 1 
0.367 0.027 -0.014 1 
0.364 0.084 -0.014 1 
0.363 0.086 -0.013 1 
0.36 0.112 -0.013 1 
0.362 0.115 -0.014 1 
0.362 0.13 -0.014 1 
0.363 0.134 -0.015 1 
0.364 0.141 -0.015 1 
0.358 0.193 -0.016 1 
0.36 0.201 -0.017 1 
0.359 0.214 -0.017 1 
0.37 -0.238 -0.018 1 
0.381 -0.243 -0.022 1 
0.382 -0.167 -0.019 1 
0.383 -0.155 -0.019 1 
0.38 -0.106 -0.017 1 
0.373 -0.089 -0.014 1 
0.374 -0.087 -0.015 1 
0.374 -0.046 -0.014 1 
0.371 0.044 -0.014 1 
0.374 0.064 -0.015 1 
0.373 0.081 -0.015 1 
0.368 0.084 -0.013 1 
0.373 0.1 -0.015 1 
0.367 0.114 -0.013 1 
0.363 0.104 -0.016 1 
0.367 0.116 -0.014 1 
0.373 0.123 -0.016 1 
0.371 0.134 -0.015 1 
0.37 0.183 -0.017 1 
0.361 0.225 -0.016 1 
0.393 -0.254 -0.024 1 
0.399 -0.248 -0.025 1 
0.394 -0.235 -0.023 1 
0.392 -0.228 -0.022 1 
0.383 -0.196 -0.018 1 
0.383 -0.125 -0.016 1 
0.384 -0.124 -0.017 1 
0.383 -0.095 -0.016 1 
0.382 -0.077 -0.015 1 
0.372 -0.064 -0.012 1 
0.38 -0.06 -0.014 1 
0.383 -0.057 -0.015 1 
0.382 -0.032 -0.015 1 
0.294 -0.014 0.014 1 
0.38 0.013 -0.015 1 
0.382 0.023 -0.015 1 
0.381 0.037 -0.015 1 
0.38 0.074 -0.015 1 
0.379 0.083 -0.015 1 
0.375 0.101 -0.014 1 
0.381 0.114 -0.016 1 
0.377 0.134 -0.015 1 
0.375 0.138 -0.015 1 
0.374 0.144 -0.015 1 
0.374 0.156 -0.015 1 
0.373 0.224 -0.018 1 
0.369 0.234 -0.017 1 
0.402 -0.256 -0.025 1 
0.389 -0.216 -0.019 1 
0.391 -0.185 -0.019 1 
0.393 -0.175 -0.019 1 
0.391 -0.115 -0.017 1 
0.391 -0.107 -0.017 1 
0.386 -0.074 -0.015 1 
0.384 -0.066 -0.014 1 
0.385 -0.062 -0.014 1 
0.383 -0.048 -0.013 1 
0.383 -0.042 -0.013 1 
0.387 -0.033 -0.015 1 
0.418 -0.035 -0.025 1 
0.296 -0.005 0.014 1 
0.297 0.002 0.014 1 
0.383 0.033 -0.014 1 
0.387 0.052 -0.015 1 
0.383 0.071 -0.014 1 
0.385 0.073 -0.015 1 
0.384 0.075 -0.014 1 
0.384 0.099 -0.015 1 
0.382 0.116 -0.015 1 
0.381 0.161 -0.016 1 
0.381 0.169 -0.016 1 
0.409 -0.263 -0.025 1 
0.382 -0.215 -0.023 1 
0.399 -0.227 -0.02 1 
0.393 -0.212 -0.018 1 
0.394 -0.125 -0.016 1 
0.389 -0.096 -0.014 1 
0.394 -0.077 -0.015 1 
0.39 -0.065 -0.014 1 
0.394 -0.06 -0.015 1 
0.393 -0.05 -0.015 1 
0.39 -0.045 -0.014 1 
0.393 -0.035 -0.014 1 
0.392 0.026 -0.015 1 
0.384 0.039 -0.012 1 
0.385 0.041 -0.012 1 
0.391 0.061 -0.015 1 
0.391 0.083 -0.015 1 
0.474 -0.335 0.002 1 
0.443 0.294 -0.008 1 
0.464 -0.116 0.004 1 
0.413 -0.126 -0.015 1 
0.356 0.074 -0.014 1 
0.463 -0.242 -0.001 1 
0.372 -0.066 -0.012 1 
0.382 -0.047 -0.015 1 
0.433 -0.054 -0.01 1 
0.403 0.234 -0.016 1 
0.434 -0.212 -0.013 1 
0.421 -0.047 -0.014 1 
0.417 0.232 -0.015 1 
0.434 0.053 -0.011 1 
0.374 -0.167 -0.018 1 
0.453 0.154 -0.007 1 
0.374 -0.029 -0.016 1 
0.41 0.113 -0.015 1 
0.416 0.173 -0.011 1 
0.453 0.16 -0.005 1 
0.367 -0.024 -0.017 1 
0.449 0.028 -0.005 1 
0.448 0.231 -0.005 1 
0.424 -0.226 -0.015 1 
0.391 -0.09 -0.014 1 
0.453 0.28 -0.002 1 
0.4 -0.105 -0.015 1 
0.466 -0.216 0.003 1 
0.452 0.114 -0.006 1 
0.411 -0.165 -0.015 1 
0.434 -0.066 -0.011 1 
0.417 0.128 -0.015 1 
0.402 -0.267 -0.021 1 
0.457 0.312 0.004 1 
0.406 0.131 -0.014 1 
0.402 0.064 -0.014 1 
0.465 -0.212 0.003 1 
0.424 -0.149 -0.011 1 
0.423 -0.195 -0.015 1 
0.412 -0.185 -0.016 1 
0.457 0.274 0.002 1 
0.443 0.3 -0.006 1 
0.441 0.084 -0.011 1 
0.372 -0.068 -0.016 1 
0.383 -0.087 -0.016 1 
0.418 0.121 -0.013 1 
0.411 0.264 -0.015 1 
0.402 0.152 -0.013 1 
0.453 0.173 -0.002 1 
0.437 -0.269 -0.015 1 
0.444 -0.316 -0.01 1 
0.449 0.212 -0.005 1 
0.39 -0.035 -0.016 1 
0.373 -0.146 -0.019 1 
0.454 0.233 -0.001 1 
0.454 0.256 0 1 
0.402 -0.248 -0.024 1 
0.434 -0.235 -0.013 1 
0.426 0.298 -0.015 1 
0.384 0.053 -0.014 1 
0.414 -0.086 -0.013 1 
0.413 0.164 -0.012 1 
0.444 0.192 -0.006 1 
0.452 -0.209 -0.009 1 
0.454 0.08 -0.006 1 
0.414 -0.088 -0.015 1 
0.382 0.09 -0.014 1 
0.45 -0.156 -0.008 1 
0.394 -0.104 -0.015 1 
0.394 0.114 -0.016 1 
0.427 -0.043 -0.016 1 
0.434 -0.037 -0.025 1 
0.374 0.15 -0.015 1 
0.375 0.233 -0.017 1 
0.453 -0.037 -0.036 1 
0.455 0.164 -0.005 1 
0.374 0.037 -0.015 1 
0.378 -0.245 -0.021 1 
0.384 0.144 -0.014 1 
0.413 0.208 -0.011 1 
0.398 0.059 -0.015 1 
0.424 -0.166 -0.014 1 
0.411 0.071 -0.014 1 
0.402 -0.187 -0.018 1 
0.403 0.185 -0.015 1 
0.461 -0.167 -0.005 1 
0.401 -0.052 -0.015 1 
0.404 -0.117 -0.017 1 
0.453 -0.05 -0.008 1 
0.409 -0.147 -0.014 1 
0.364 -0.115 -0.015 1 
0.392 -0.089 -0.015 1 
0.373 -0.187 -0.021 1 
0.404 0.104 -0.015 1 
0.433 0.192 -0.006 1 
0.434 0.068 -0.009 1 
0.393 -0.159 -0.014 1 
0.426 -0.172 -0.015 1 
0.424 -0.186 -0.012 1 
0.431 0.294 -0.011 1 
0.461 0.042 0.002 1 
0.45 0.202 -0.005 1 
0.462 -0.176 -0.006 1 
0.47 -0.275 0.004 1 
0.353 0.131 -0.013 1 
0.409 -0.255 -0.022 1 
0.374 0.094 -0.013 1 
0.459 -0.257 -0.006 1 
0.402 0.114 -0.017 1 
0.413 -0.27 -0.021 1 
0.453 -0.198 -0.007 1 
0.372 -0.219 -0.024 1 
0.437 -0.255 -0.015 1 
0.419 0.213 -0.011 1 
0.39 0.184 -0.015 1 
0.361 -0.045 -0.015 1 
0.433 0.034 -0.013 1 
0.461 0.003 0.002 1 
0.454 -0.006 -0.006 1 
0.391 -0.167 -0.018 1 
0.463 -0.341 -0.004 1 
0.361 0.053 -0.014 1 
0.393 -0.257 -0.022 1 
0.382 0.224 -0.019 1 
0.38 -0.136 -0.016 1 
0.348 0.153 -0.014 1 
0.39 0.161 -0.014 1 
0.434 0.007 -0.009 1 
0.379 0.154 -0.015 1 
0.413 -0.065 -0.012 1 
0.411 -0.206 -0.019 1 
0.384 0.093 -0.015 1 
0.474 -0.325 0.003 1 
0.423 -0.258 -0.019 1 
0.413 0.193 -0.013 1 
0.444 -0.076 -0.011 1 
0.454 0.044 -0.003 1 
0.468 -0.255 0.002 1 
0.468 -0.229 0.002 1 
0.364 0.221 -0.017 1 
0.452 0.072 -0.006 1 
0.4 -0.267 -0.025 1 
0.444 -0.258 -0.011 1 
0.444 0.113 -0.009 1 
0.432 -0.146 -0.011 1 
0.424 0.283 -0.014 1 
0.423 -0.068 -0.013 1 
0.382 0.033 -0.015 1 
0.414 0.184 -0.013 1 
0.402 0.122 -0.015 1 
0.452 -0.176 -0.006 1 
0.458 0.233 0.003 1 
0.414 -0.115 -0.013 1 
0.385 0.049 -0.014 1 
0.394 -0.156 -0.016 1 
0.46 -0.017 0.003 1 
0.413 -0.101 -0.012 1 
0.444 -0.099 -0.011 1 
0.374 0.071 -0.015 1 
0.465 -0.114 0.002 1 
0.374 0.051 -0.013 1 
0.398 -0.257 -0.023 1 
0.424 0.233 -0.012 1 
0.364 -0.047 -0.014 1 
0.401 0.222 -0.015 1 
0.403 0.171 -0.014 1 
0.459 -0.197 -0.005 1 
0.423 0.18 -0.008 1 
0.451 0.183 -0.005 1 
0.393 0.232 -0.018 1 
0.456 0.304 0.004 1 
0.428 -0.046 -0.016 1 
0.413 -0.285 -0.02 1 
0.453 -0.065 -0.008 1 
0.411 -0.155 -0.015 1 
0.444 0.053 -0.009 1 
0.414 0.273 -0.016 1 
0.431 0.242 -0.009 1 
0.433 -0.058 -0.01 1 
0.393 0.144 -0.013 1 
0.373 -0.095 -0.014 1 
0.433 0.162 -0.01 1 
0.394 0.262 -0.02 1 
0.454 0.149 -0.004 1 
0.414 0.054 -0.015 1 
0.364 -0.098 -0.015 1 
0.423 0.243 -0.012 1 
0.404 -0.095 -0.014 1 
0.423 -0.206 -0.015 1 
0.393 0.196 -0.014 1 
0.379 0.204 -0.017 1 
0.407 -0.046 -0.015 1 
0.413 0.031 -0.012 1 
0.424 0.088 -0.011 1 
0.46 0.194 0.003 1 
0.453 0.179 -0.002 1 
0.433 -0.295 -0.015 1 
0.432 -0.106 -0.011 1 
0.46 -0.186 -0.005 1 
0.403 -0.063 -0.014 1 
0.458 -0.235 -0.006 1 
0.323 -0.016 0.017 1 
0.465 -0.155 0.004 1 
0.454 0.133 -0.002 1 
0.444 -0.119 -0.009 1 
0.433 -0.08 -0.011 1 
0.394 0.078 -0.014 1 
0.4 -0.056 -0.015 1 
0.404 0.088 -0.015 1 
0.393 -0.236 -0.025 1 
0.433 0.208 -0.009 1 
0.453 0.013 -0.006 1 
0.468 -0.296 0.004 1 
0.388 0.006 -0.007 1 
0.456 0.131 -0.005 1 
0.402 -0.145 -0.014 1 
0.443 0.253 -0.007 1 
0.46 -0.294 -0.005 1 
0.445 0.171 -0.006 1 
0.453 -0.037 -0.026 1 
0.454 0.213 -0.003 1 
0.434 0.282 -0.011 1 
0.409 0.142 -0.015 1 
0.356 0.154 -0.015 1 
0.4 0.192 -0.012 1 
0.463 -0.036 -0.015 1 
0.408 -0.246 -0.021 1 
0.409 0.037 -0.013 1 
0.419 -0.165 -0.015 1 
0.453 0.247 0.001 1 
0.401 0.032 -0.013 1 
0.364 -0.083 -0.015 1 
0.465 -0.323 -0.006 1 
0.43 -0.265 -0.011 1 
0.46 0.122 0.004 1 
0.462 -0.207 -0.006 1 
0.383 0.194 -0.018 1 
0.443 -0.019 -0.001 1 
0.393 0.103 -0.016 1 
0.435 0.012 -0.009 1 
0.471 -0.308 0.004 1 
0.45 0.193 -0.005 1 
0.394 -0.266 -0.021 1 
0.382 0.064 -0.014 1 
0.442 -0.295 -0.014 1 
0.403 -0.075 -0.014 1 
0.462 -0.3 -0.005 1 
0.449 -0.126 -0.007 1 
0.368 0.134 -0.014 1 
0.373 0.007 -0.012 1 
0.365 -0.008 0.009 1 
0.393 0.022 -0.015 1 
0.458 -0.025 0.003 1 
0.417 -0.176 -0.015 1 
0.424 0.039 -0.013 1 
0.403 0.092 -0.014 1 
0.364 -0.227 -0.022 1 
0.46 -0.147 -0.005 1 
0.419 0.064 -0.012 1 
0.424 -0.087 -0.013 1 
0.401 0.053 -0.015 1 
0.413 0.06 -0.013 1 
0.404 -0.165 -0.015 1 
0.46 0.332 -0.005 1 
0.455 0.152 -0.005 1 
0.374 0.098 -0.014 1 
0.434 -0.175 -0.012 1 
0.461 0.133 0.004 1 
0.429 -0.239 -0.015 1 
0.431 -0.246 -0.015 1 
0.41 -0.056 -0.013 1 
0.452 0.203 -0.002 1 
0.407 0.043 -0.015 1 
0.394 0.064 -0.013 1 
0.383 0.156 -0.014 1 
0.434 0.124 -0.012 1 
0.374 -0.208 -0.022 1 
0.418 0.114 -0.012 1 
0.466 -0.136 0.004 1 
0.373 0.062 -0.014 1 
0.403 -0.155 -0.015 1 
0.388 0.119 -0.015 1 
0.411 0.216 -0.013 1 
0.403 -0.217 -0.019 1 
0.405 0.082 -0.015 1 
0.397 -0.243 -0.025 1 
0.394 0.072 -0.014 1 
0.45 0.301 -0.005 1 
0.441 0.223 -0.008 1 
0.454 -0.042 -0.018 1 
0.382 0.241 -0.017 1 
0.406 0.028 -0.015 1 
0.404 0.273 -0.019 1 
0.373 0.203 -0.017 1 
0.417 0.104 -0.012 1 
0.444 0.242 -0.007 1 
0.414 0.112 -0.014 1 
0.444 0.033 -0.006 1 
0.44 0.124 -0.009 1 
0.432 -0.156 -0.011 1 
0.349 0.203 -0.017 1 
0.419 -0.16 -0.015 1 
0.423 0.143 -0.012 1 
0.464 -0.311 -0.006 1 
0.381 -0.224 -0.025 1 
0.422 -0.277 -0.019 1 
0.412 0.093 -0.013 1 
0.41 0.254 -0.014 1 
0.393 -0.135 -0.016 1 
0.353 0.163 -0.014 1 
0.439 -0.155 -0.011 1 
0.416 0.049 -0.016 1 
0.397 0.174 -0.015 1 
0.413 -0.14 -0.013 1 
0.385 0.033 -0.012 1 
0.379 -0.035 -0.016 1 
0.464 -0.158 0.004 1 
0.403 -0.195 -0.018 1 
0.434 0.151 -0.01 1 
0.454 0.093 -0.006 1 
0.464 -0.255 -0.002 1 
0.451 -0.146 -0.008 1 
0.37 0.194 -0.018 1 
0.424 -0.194 -0.015 1 
0.459 0.282 0.002 1 
0.444 -0.166 -0.009 1 
0.414 0.232 -0.015 1 
0.414 -0.097 -0.015 1 
0.464 0.34 0 1 
0.421 0.014 -0.012 1 
0.424 -0.096 -0.013 1 
0.439 0.154 -0.009 1 
0.333 -0.013 0.017 1 
0.394 0.243 -0.017 1 
0.453 0.19 0 1 
0.45 -0.235 -0.007 1 
0.392 0.124 -0.014 1 
0.423 0.193 -0.009 1 
0.418 -0.039 -0.016 1 
0.453 0.224 0 1 
0.46 0.024 0.002 1 
0.457 0.253 0.003 1 
0.453 -0.076 -0.008 1 
0.391 0.094 -0.015 1 
0.449 -0.287 -0.008 1 
0.451 0.103 -0.006 1 
0.469 -0.247 0.002 1 
0.432 0.103 -0.011 1 
0.44 0.134 -0.009 1 
0.366 0.173 -0.015 1 
0.454 -0.185 -0.007 1 
0.367 0.023 -0.014 1 
0.393 0.194 -0.014 1 
0.465 -0.125 0.004 1 
0.432 0.113 -0.011 1 
0.409 0.144 -0.013 1 
0.451 0.033 -0.003 1 
0.447 0.283 -0.006 1 
0.442 0.102 -0.009 1 
0.461 0.333 0.003 1 
0.424 -0.139 -0.011 1 
0.374 0.239 -0.017 1 
0.43 -0.265 -0.016 1 
0.434 0.043 -0.014 1 
0.454 0.163 -0.002 1 
0.432 -0.136 -0.011 1 
0.44 0.163 -0.007 1 
0.444 0.07 -0.009 1 
0.429 0.221 -0.011 1 
0.402 -0.086 -0.016 1 
0.434 -0.308 -0.011 1 
0.464 -0.325 -0.006 1 
0.372 0.111 -0.015 1 
0.453 -0.115 -0.008 1 
0.459 -0.266 -0.006 1 
0.453 -0.226 -0.007 1 
0.459 0.163 0.004 1 
0.46 -0.226 -0.006 1 
0.443 0.141 -0.007 1 
0.451 0.044 -0.005 1 
0.414 0.022 -0.013 1 
0.453 -0.096 -0.008 1 
0.353 0.182 -0.015 1 
0.453 -0.045 -0.016 1 
0.404 -0.205 -0.019 1 
0.462 -0.126 -0.005 1 
0.462 -0.105 -0.005 1 
0.454 -0.169 -0.006 1 
0.383 -0.146 -0.017 1 
0.461 -0.094 -0.005 1 
0.414 0.201 -0.011 1 
0.462 -0.065 -0.005 1 
0.374 0.034 -0.015 1 
0.411 0.013 -0.012 1 
0.456 -0.045 -0.006 1 
0.456 -0.027 -0.006 1 
0.455 0.088 -0.006 1 
0.442 -0.298 -0.015 1 
0.466 0.343 0.002 1 
0.449 0.064 -0.005 1 
0.458 0.319 0.004 1 
0.458 0.294 0.004 1 
0.381 -0.175 -0.019 1 
0.456 0.261 0.003 1 
0.458 0.242 0.003 1 
0.458 0.224 0.003 1 
0.46 0.214 0.003 1 
0.461 0.204 0.003 1 
0.46 0.183 0.003 1 
0.459 0.174 0.004 1 
0.459 0.152 0.004 1 
0.461 0.144 0.004 1 
0.46 0.114 0.004 1 
0.465 -0.119 0.004 1 
0.466 -0.145 0.004 1 
0.464 -0.166 0.004 1 
0.465 -0.169 0.004 1 
0.465 -0.175 0.004 1 
0.468 -0.286 0.002 1 
0.463 -0.196 0.004 1 
0.464 -0.206 0.004 1 
0.468 -0.238 0.002 1 
0.411 0.153 -0.014 1 
0.469 -0.265 0.002 1 
0.364 0.103 -0.014 1 
0.475 -0.34 0 1 
0.453 0.314 0 1 
0.381 0.184 -0.017 1 
0.462 -0.316 -0.006 1 
0.453 0.304 0 1 
0.461 0.104 0.002 1 
0.403 0.125 -0.015 1 
0.458 0.092 0.002 1 
0.464 -0.138 0.002 1 
0.461 0.053 0.002 1 
0.46 0.034 0.002 1 
0.462 0.014 0.002 1 
0.461 -0.007 0.002 1 
0.453 -0.139 -0.008 1 
0.454 -0.298 -0.006 1 
0.388 -0.196 -0.018 1 
0.405 0.062 -0.015 1 
0.461 -0.096 0.002 1 
0.463 -0.108 0.002 1 
0.462 -0.145 0.002 1 
0.434 -0.185 -0.012 1 
0.465 -0.201 0.001 1 
0.463 -0.216 0.001 1 
0.464 -0.226 0 1 
0.464 -0.289 0 1 
0.461 0.336 -0.005 1 
0.454 0.239 -0.001 1 
0.464 -0.13 0 1 
0.469 -0.037 -0.02 1 
0.463 -0.245 -0.001 1 
0.464 -0.267 -0.002 1 
0.444 -0.225 -0.008 1 
0.414 -0.077 -0.012 1 
0.464 -0.276 -0.002 1 
0.47 -0.335 -0.005 1 
0.452 0.323 -0.006 1 
0.449 0.313 -0.005 1 
0.444 0.214 -0.006 1 
0.453 0.273 -0.002 1 
0.45 0.292 -0.004 1 
0.463 -0.275 -0.005 1 
0.463 -0.337 -0.006 1 
0.394 0.216 -0.015 1 
0.41 -0.038 -0.015 1 
0.444 0.308 -0.006 1 
0.445 0.293 -0.006 1 
0.447 0.274 -0.006 1 
0.448 0.263 -0.006 1 
0.448 0.254 -0.006 1 
0.449 0.243 -0.005 1 
0.45 0.224 -0.005 1 
0.453 0.143 -0.004 1 
0.461 -0.022 -0.005 1 
0.451 -0.027 -0.002 1 
0.395 0.143 -0.013 1 
0.394 0.016 -0.013 1 
0.454 -0.037 -0.003 1 
0.426 0.291 -0.015 1 
0.462 -0.075 -0.005 1 
0.461 -0.096 -0.005 1 
0.464 -0.116 -0.005 1 
0.461 -0.137 -0.005 1 
0.458 -0.157 -0.005 1 
0.461 -0.215 -0.006 1 
0.444 0.317 -0.009 1 
0.444 0.233 -0.007 1 
0.442 0.284 -0.008 1 
0.442 0.272 -0.007 1 
0.44 0.203 -0.005 1 
0.412 0.187 -0.015 1 
0.443 0.183 -0.005 1 
0.443 0.173 -0.005 1 
0.448 0.143 -0.006 1 
0.447 0.132 -0.005 1 
0.449 0.123 -0.006 1 
0.456 0.084 -0.007 1 
0.449 0.053 -0.005 1 
0.452 0.003 -0.005 1 
0.454 -0.017 -0.006 1 
0.453 -0.03 -0.005 1 
0.457 -0.035 -0.006 1 
0.383 -0.243 -0.027 1 
0.455 -0.055 -0.006 1 
0.453 -0.249 -0.007 1 
0.453 -0.257 -0.008 1 
0.451 -0.276 -0.008 1 
0.456 -0.245 -0.005 1 
0.454 -0.308 -0.009 1 
0.383 -0.205 -0.019 1 
0.452 -0.325 -0.01 1 
0.445 -0.324 -0.008 1 
0.442 0.042 -0.006 1 
0.444 -0.021 -0.006 1 
0.44 -0.105 -0.01 1 
0.454 -0.055 -0.008 1 
0.453 -0.107 -0.008 1 
0.444 -0.176 -0.007 1 
0.471 -0.315 0.003 1 
0.382 0.149 -0.013 1 
0.451 -0.216 -0.009 1 
0.443 -0.278 -0.009 1 
0.442 -0.055 -0.01 1 
0.434 0.306 -0.012 1 
0.434 0.303 -0.012 1 
0.433 0.272 -0.011 1 
0.434 0.264 -0.011 1 
0.432 0.251 -0.01 1 
0.431 0.234 -0.009 1 
0.431 0.201 -0.008 1 
0.434 0.183 -0.008 1 
0.44 0.094 -0.008 1 
0.441 0.062 -0.008 1 
0.358 0.002 0.011 1 
0.354 -0.004 0.012 1 
0.379 0.214 -0.017 1 
0.421 0.034 -0.012 1 
0.444 -0.147 -0.009 1 
0.453 -0.086 -0.008 1 
0.444 -0.214 -0.01 1 
0.444 -0.217 -0.01 1 
0.443 -0.305 -0.012 1 
0.405 0.086 -0.015 1 
0.383 0.006 -0.01 1 
0.414 0.101 -0.013 1 
0.442 -0.236 -0.01 1 
0.443 -0.246 -0.011 1 
0.444 -0.267 -0.011 1 
0.444 -0.288 -0.012 1 
0.44 -0.197 -0.011 1 
0.433 0.174 -0.011 1 
0.432 0.143 -0.009 1 
0.434 0.063 -0.009 1 
0.443 0.023 -0.011 1 
0.341 -0.004 0.014 1 
0.364 0.17 -0.016 1 
0.336 -0.005 0.015 1 
0.325 -0.015 0.018 1 
0.444 -0.051 -0.011 1 
0.443 -0.066 -0.011 1 
0.419 0.084 -0.012 1 
0.441 -0.085 -0.01 1 
0.441 -0.128 -0.011 1 
0.441 -0.138 -0.011 1 
0.44 -0.187 -0.011 1 
0.434 -0.26 -0.011 1 
0.444 -0.294 -0.015 1 
0.423 0.291 -0.014 1 
0.422 0.27 -0.013 1 
0.391 0.169 -0.015 1 
0.423 0.262 -0.013 1 
0.424 0.252 -0.013 1 
0.394 0.204 -0.015 1 
0.422 0.223 -0.012 1 
0.421 0.204 -0.011 1 
0.414 0.119 -0.014 1 
0.466 -0.33 -0.007 1 
0.442 0.263 -0.007 1 
0.433 0.133 -0.012 1 
0.433 0.084 -0.011 1 
0.331 0.001 0.015 1 
0.423 0.294 -0.017 1 
0.324 -0.008 0.016 1 
0.424 -0.237 -0.016 1 
0.434 -0.085 -0.011 1 
0.434 -0.1 -0.011 1 
0.433 -0.117 -0.011 1 
0.434 -0.134 -0.011 1 
0.45 0.023 -0.005 1 
0.433 -0.167 -0.012 1 
0.375 -0.069 -0.015 1 
0.43 -0.195 -0.012 1 
0.431 -0.215 -0.012 1 
0.434 -0.227 -0.013 1 
0.438 -0.25 -0.015 1 
0.437 -0.275 -0.015 1 
0.434 -0.29 -0.015 1 
0.457 0.084 0.003 1 
0.429 -0.302 -0.014 1 
0.423 -0.156 -0.014 1 
0.419 0.284 -0.016 1 
0.417 0.273 -0.015 1 
0.423 0.237 -0.015 1 
0.42 0.164 -0.012 1 
0.422 0.154 -0.012 1 
0.43 0.024 -0.012 1 
0.414 -0.28 -0.02 1 
0.372 0.214 -0.017 1 
0.422 -0.112 -0.01 1 
0.423 -0.119 -0.011 1 
0.424 -0.183 -0.012 1 
0.431 -0.255 -0.016 1 
0.403 0.073 -0.014 1 
0.434 -0.278 -0.017 1 
0.423 -0.299 -0.015 1 
0.414 0.275 -0.016 1 
0.412 0.251 -0.015 1 
0.414 0.242 -0.015 1 
0.42 0.193 -0.015 1 
0.355 0.163 -0.015 1 
0.412 0.173 -0.012 1 
0.453 -0.266 -0.008 1 
0.423 0.133 -0.014 1 
0.422 0.074 -0.013 1 
0.42 0.053 -0.012 1 
0.421 0.023 -0.012 1 
0.438 -0.045 -0.017 1 
0.422 -0.126 -0.013 1 
0.357 0.142 -0.014 1 
0.437 -0.04 -0.019 1 
0.422 -0.215 -0.015 1 
0.425 -0.222 -0.016 1 
0.425 -0.23 -0.016 1 
0.423 -0.29 -0.018 1 
0.403 0.247 -0.015 1 
0.404 0.243 -0.015 1 
0.362 0.005 -0.01 1 
0.402 -0.235 -0.021 1 
0.358 -0.006 0.011 1 
0.408 0.224 -0.015 1 
0.402 0.208 -0.013 1 
0.402 0.204 -0.013 1 
0.411 0.184 -0.015 1 
0.418 0.124 -0.015 1 
0.412 0.084 -0.013 1 
0.416 0.043 -0.016 1 
0.424 -0.08 -0.011 1 
0.418 -0.055 -0.013 1 
0.413 -0.106 -0.012 1 
0.423 -0.25 -0.018 1 
0.399 0.259 -0.017 1 
0.404 0.213 -0.016 1 
0.404 0.184 -0.015 1 
0.405 0.17 -0.015 1 
0.404 0.164 -0.014 1 
0.385 0.126 -0.008 1 
0.403 0.134 -0.013 1 
0.409 0.126 -0.015 1 
0.409 0.122 -0.015 1 
0.41 0.104 -0.015 1 
0.414 -0.228 -0.018 1 
0.412 0.073 -0.015 1 
0.403 0.019 -0.012 1 
0.363 -0.036 -0.016 1 
0.4 0.013 -0.011 1 
0.362 0.076 -0.015 1 
0.401 -0.105 -0.013 1 
0.414 -0.045 -0.014 1 
0.393 -0.249 -0.026 1 
0.412 -0.121 -0.015 1 
0.411 -0.128 -0.014 1 
0.412 -0.175 -0.016 1 
0.414 -0.196 -0.017 1 
0.414 -0.216 -0.017 1 
0.419 -0.265 -0.02 1 
0.393 0.253 -0.017 1 
0.393 0.208 -0.015 1 
0.393 0.146 -0.013 1 
0.384 -0.186 -0.018 1 
0.389 -0.146 -0.017 1 
0.402 0.096 -0.014 1 
0.403 0.075 -0.014 1 
0.404 0.041 -0.014 1 
0.429 0.093 -0.01 1 
0.407 -0.062 -0.015 1 
0.403 -0.065 -0.014 1 
0.407 -0.083 -0.015 1 
0.406 -0.112 -0.015 1 
0.404 -0.128 -0.015 1 
0.4 -0.133 -0.014 1 
0.402 -0.136 -0.014 1 
0.403 -0.153 -0.015 1 
0.413 -0.238 -0.02 1 
0.388 0.194 -0.015 1 
0.384 0.132 -0.012 1 
0.442 -0.036 -0.028 1 
0.396 -0.036 -0.013 1 
0.398 -0.047 -0.014 1 
0.4 -0.07 -0.015 1 
0.399 -0.076 -0.015 1 
0.398 -0.093 -0.014 1 
0.398 -0.136 -0.015 1 
0.401 -0.179 -0.017 1 
0.389 0.163 -0.016 1 
0.385 0.153 -0.015 1 
0.382 0.124 -0.013 1 
0.459 0.283 0.104 3 
0.463 -0.127 0.082 3 
0.464 -0.116 0.082 3 
0.464 -0.105 0.082 3 
0.463 0.033 0.154 3 
0.476 -0.136 0.19 3 
0.461 0.093 0.103 3 
0.464 -0.095 0.082 3 
0.459 0.292 0.082 3 
0.456 0.314 0.082 3 
0.455 0.32 0.082 3 
0.46 0.253 0.104 3 
0.457 0.329 0.082 3 
0.466 0.215 0.154 3 
0.464 0.34 0.083 3 
0.46 -0.075 0.003 3 
0.464 -0.234 0.085 3 
0.463 -0.097 0.034 3 
0.466 -0.239 0.083 3 
0.461 -0.075 0.084 3 
0.458 0.224 0.062 3 
0.461 -0.067 0.084 3 
0.461 -0.056 0.084 3 
0.456 0.153 0.012 3 
0.461 -0.046 0.084 3 
0.458 0.213 0.062 3 
0.467 0.294 0.192 3 
0.464 -0.234 0.083 3 
0.466 0.025 0.163 3 
0.474 -0.327 0.084 3 
0.457 0.275 0.084 3 
0.472 -0.316 0.084 3 
0.458 0.263 0.084 3 
0.466 -0.288 0.083 3 
0.468 -0.277 0.083 3 
0.472 -0.335 0.152 3 
0.466 -0.157 0.164 3 
0.466 -0.287 0.013 3 
0.467 -0.255 0.044 3 
0.469 -0.256 0.083 3 
0.459 0.122 0.094 3 
0.46 0.152 0.063 3 
0.46 0.163 0.033 3 
0.464 -0.182 0.104 3 
0.468 -0.225 0.083 3 
0.468 -0.217 0.083 3 
0.466 -0.167 0.093 3 
0.466 -0.206 0.083 3 
0.466 -0.175 0.082 3 
0.463 -0.146 0.012 3 
0.463 -0.179 0.023 3 
0.466 -0.136 0.082 3 
0.461 0.014 0.084 3 
0.465 -0.133 0.082 3 
0.474 -0.336 0.093 3 
0.464 0.079 0.171 3 
0.46 0.234 0.084 3 
0.464 -0.217 0.072 3 
0.46 0.243 0.084 3 
0.458 0.254 0.084 3 
0.465 -0.063 0.058 3 
0.466 -0.047 0.182 3 
0.458 0.272 0.084 3 
0.47 -0.245 0.013 3 
0.462 -0.046 0.132 3 
0.464 -0.154 0.044 3 
0.465 -0.084 0.087 3 
0.473 -0.354 0.093 3 
0.46 0.214 0.084 3 
0.47 -0.308 0.092 3 
0.468 -0.296 0.092 3 
0.465 -0.127 0.044 3 
0.468 -0.277 0.092 3 
0.464 -0.146 0.09 3 
0.466 -0.195 0.124 3 
0.461 -0.025 0.063 3 
0.461 0.024 0.102 3 
0.467 0.332 0.195 3 
0.465 -0.144 0.09 3 
0.47 -0.225 0.164 3 
0.46 0.183 0.063 3 
0.46 0.114 0.084 3 
0.458 0.013 0.042 3 
0.459 0.024 0.084 3 
0.458 0.034 0.084 3 
0.461 0.093 0.044 3 
0.461 0.043 0.084 3 
0.454 0.322 0.051 3 
0.462 0.053 0.084 3 
0.461 0.064 0.084 3 
0.461 0.072 0.084 3 
0.473 -0.323 0.169 3 
0.473 -0.326 0.064 3 
0.466 -0.106 0.063 3 
0.461 0.104 0.084 3 
0.46 -0.006 0.084 3 
0.459 0.122 0.084 3 
0.461 0.134 0.084 3 
0.461 0.142 0.084 3 
0.463 0.153 0.174 3 
0.471 0.351 0.197 3 
0.46 0.152 0.084 3 
0.46 0.163 0.084 3 
0.463 -0.21 0.023 3 
0.464 -0.141 0.044 3 
0.46 0.191 0.084 3 
0.459 0.202 0.084 3 
0.463 0.006 0.164 3 
0.464 -0.165 0.071 3 
0.463 -0.094 0.068 3 
0.459 0.114 0.034 3 
0.471 -0.345 0.073 3 
0.47 -0.337 0.072 3 
0.469 -0.275 0.072 3 
0.464 -0.135 0.053 3 
0.462 -0.145 0.023 3 
0.472 -0.256 0.072 3 
0.465 0.244 0.172 3 
0.471 -0.246 0.072 3 
0.464 -0.105 0.023 3 
0.469 -0.235 0.072 3 
0.468 -0.225 0.072 3 
0.468 -0.135 0.154 3 
0.466 0.022 0.163 3 
0.465 -0.084 0.071 3 
0.476 -0.255 0.188 3 
0.464 -0.237 0.074 3 
0.466 -0.215 0.074 3 
0.466 0.122 0.052 3 
0.466 -0.178 0.074 3 
0.475 -0.215 0.181 3 
0.467 -0.145 0.074 3 
0.458 0.293 0.024 3 
0.467 -0.134 0.074 3 
0.464 -0.105 0.074 3 
0.459 0.114 0.102 3 
0.459 0.234 0.062 3 
0.463 -0.086 0.063 3 
0.465 -0.084 0.063 3 
0.462 -0.046 0.063 3 
0.462 -0.017 0.063 3 
0.46 0.003 0.063 3 
0.46 0.014 0.063 3 
0.461 0.024 0.063 3 
0.461 0.064 0.063 3 
0.462 0.074 0.063 3 
0.46 0.093 0.063 3 
0.462 0.112 0.063 3 
0.464 0.132 0.063 3 
0.46 0.194 0.063 3 
0.465 -0.095 0.074 3 
0.46 0.331 0.154 3 
0.459 0.242 0.062 3 
0.461 0.043 0.134 3 
0.464 -0.157 0.034 3 
0.462 0.194 0.144 3 
0.459 0.282 0.062 3 
0.457 0.293 0.062 3 
0.456 0.301 0.062 3 
0.463 0.143 0.063 3 
0.459 0.324 0.062 3 
0.471 -0.296 0.133 3 
0.46 0.335 0.062 3 
0.466 -0.136 0.063 3 
0.46 0.172 0.073 3 
0.461 0.192 0.073 3 
0.461 0.203 0.073 3 
0.459 0.242 0.073 3 
0.461 0.262 0.073 3 
0.46 0.014 0.113 3 
0.465 -0.194 0.044 3 
0.46 0.283 0.074 3 
0.459 0.292 0.074 3 
0.471 -0.255 0.064 3 
0.455 0.307 0.073 3 
0.454 0.312 0.073 3 
0.455 0.316 0.073 3 
0.459 0.163 0.073 3 
0.454 0.322 0.073 3 
0.46 0.234 0.073 3 
0.458 0.333 0.074 3 
0.477 -0.345 0.082 3 
0.453 0.321 0.079 3 
0.458 0.213 0.114 3 
0.465 0.25 0.169 3 
0.458 0.253 0.054 3 
0.453 0.327 0.079 3 
0.47 -0.245 0.103 3 
0.465 -0.095 0.152 3 
0.475 -0.335 0.084 3 
0.459 0.034 0.073 3 
0.464 -0.054 0.044 3 
0.461 -0.075 0.074 3 
0.462 -0.046 0.052 3 
0.468 -0.247 0.114 3 
0.461 -0.025 0.073 3 
0.46 -0.017 0.073 3 
0.462 0.064 0.073 3 
0.46 -0.006 0.073 3 
0.463 -0.213 0.072 3 
0.468 0.144 0.187 3 
0.46 0.014 0.073 3 
0.458 0.024 0.073 3 
0.463 -0.057 0.074 3 
0.475 -0.332 0.084 3 
0.46 0.042 0.073 3 
0.463 -0.157 0.063 3 
0.459 0.114 0.073 3 
0.464 -0.046 0.143 3 
0.459 0.122 0.073 3 
0.455 0.304 0.073 3 
0.468 -0.345 0.032 3 
0.477 -0.295 0.193 3 
0.46 0.144 0.073 3 
0.459 0.152 0.073 3 
0.469 -0.287 0.052 3 
0.462 0.169 0.174 3 
0.469 -0.226 0.114 3 
0.473 -0.345 0.114 3 
0.462 -0.046 0.074 3 
0.474 -0.336 0.114 3 
0.465 0.193 0.139 3 
0.473 -0.325 0.113 3 
0.465 -0.125 0.052 3 
0.474 -0.315 0.113 3 
0.474 -0.217 0.174 3 
0.47 -0.298 0.112 3 
0.466 -0.136 0.109 3 
0.466 -0.187 0.112 3 
0.466 -0.134 0.109 3 
0.469 -0.266 0.114 3 
0.472 -0.287 0.104 3 
0.467 -0.216 0.113 3 
0.462 0.053 0.073 3 
0.466 -0.212 0.113 3 
0.461 -0.025 0.142 3 
0.46 0.28 0.163 3 
0.468 -0.225 0.052 3 
0.465 0.266 0.184 3 
0.465 -0.044 0.181 3 
0.464 -0.194 0.112 3 
0.468 -0.205 0.124 3 
0.476 -0.294 0.104 3 
0.464 -0.174 0.112 3 
0.474 -0.352 0.082 3 
0.46 0.144 0.103 3 
0.464 0.244 0.18 3 
0.458 0.163 0.102 3 
0.466 0.014 0.163 3 
0.459 0.174 0.103 3 
0.461 0.184 0.103 3 
0.461 0.192 0.103 3 
0.472 -0.295 0.144 3 
0.463 -0.127 0.029 3 
0.475 -0.298 0.154 3 
0.468 -0.176 0.052 3 
0.462 0.204 0.103 3 
0.459 0.222 0.103 3 
0.465 -0.166 0.112 3 
0.458 0.243 0.103 3 
0.465 -0.106 0.171 3 
0.457 0.293 0.104 3 
0.457 0.309 0.104 3 
0.475 -0.327 0.111 3 
0.467 -0.248 0.083 3 
0.477 -0.318 0.111 3 
0.477 -0.308 0.111 3 
0.464 -0.182 0.107 3 
0.46 0.332 0.062 3 
0.466 -0.058 0.152 3 
0.474 0.352 0.11 3 
0.466 0.132 0.186 3 
0.465 -0.049 0.114 3 
0.464 -0.046 0.114 3 
0.457 0.231 0.122 3 
0.459 0.144 0.052 3 
0.463 -0.036 0.113 3 
0.458 0.154 0.033 3 
0.46 0.264 0.154 3 
0.462 -0.025 0.113 3 
0.458 0.252 0.114 3 
0.461 -0.046 0.024 3 
0.463 -0.036 0.052 3 
0.459 0.032 0.113 3 
0.46 0.064 0.113 3 
0.464 -0.057 0.114 3 
0.461 0.032 0.052 3 
0.46 0.134 0.113 3 
0.459 0.152 0.113 3 
0.459 0.163 0.063 3 
0.465 0.076 0.138 3 
0.458 0.163 0.113 3 
0.457 0.173 0.113 3 
0.461 0.192 0.114 3 
0.46 0.203 0.114 3 
0.471 -0.275 0.164 3 
0.454 0.16 0.015 3 
0.462 -0.017 0.153 3 
0.457 0.192 0.014 3 
0.464 -0.065 0.063 3 
0.466 -0.156 0.112 3 
0.459 0.262 0.112 3 
0.459 0.274 0.112 3 
0.464 -0.147 0.131 3 
0.458 0.282 0.112 3 
0.459 0.292 0.112 3 
0.465 -0.068 0.163 3 
0.458 0.301 0.112 3 
0.472 -0.35 0.102 3 
0.468 -0.075 0.183 3 
0.463 -0.176 0.012 3 
0.459 0.312 0.113 3 
0.459 0.122 0.102 3 
0.461 0.334 0.114 3 
0.463 -0.163 0.114 3 
0.462 -0.135 0.114 3 
0.465 -0.092 0.044 3 
0.463 -0.127 0.114 3 
0.464 -0.097 0.114 3 
0.463 -0.16 0.142 3 
0.464 0.022 0.173 3 
0.466 -0.186 0.082 3 
0.465 -0.076 0.114 3 
0.465 -0.073 0.114 3 
0.464 -0.065 0.114 3 
0.471 -0.183 0.184 3 
0.465 0.229 0.174 3 
0.462 -0.025 0.092 3 
0.466 -0.178 0.112 3 
0.461 0.134 0.092 3 
0.461 -0.017 0.084 3 
0.459 0.171 0.092 3 
0.46 0.063 0.052 3 
0.459 0.214 0.092 3 
0.458 0.304 0.093 3 
0.458 0.233 0.092 3 
0.461 0.272 0.074 3 
0.456 0.24 0.092 3 
0.47 -0.256 0.171 3 
0.462 -0.046 0.092 3 
0.458 0.213 0.033 3 
0.458 0.263 0.093 3 
0.459 0.283 0.093 3 
0.467 0.153 0.187 3 
0.46 0.074 0.073 3 
0.458 0.294 0.093 3 
0.462 0.314 0.094 3 
0.465 0.044 0.173 3 
0.457 0.312 0.062 3 
0.465 -0.071 0.095 3 
0.459 -0.006 0.094 3 
0.462 0.073 0.143 3 
0.466 0.334 0.191 3 
0.468 -0.246 0.094 3 
0.465 -0.125 0.063 3 
0.464 -0.116 0.074 3 
0.468 -0.225 0.094 3 
0.47 -0.209 0.094 3 
0.466 -0.189 0.093 3 
0.48 -0.317 0.183 3 
0.464 -0.185 0.093 3 
0.456 0.214 0.014 3 
0.466 -0.066 0.174 3 
0.464 -0.182 0.093 3 
0.469 -0.347 0.003 3 
0.465 -0.147 0.093 3 
0.461 0.277 0.152 3 
0.464 -0.136 0.093 3 
0.464 -0.081 0.111 3 
0.464 -0.133 0.093 3 
0.47 -0.286 0.123 3 
0.464 -0.119 0.093 3 
0.465 -0.117 0.093 3 
0.46 0.223 0.073 3 
0.465 -0.095 0.093 3 
0.462 -0.065 0.092 3 
0.473 -0.316 0.154 3 
0.46 0.104 0.094 3 
0.463 -0.057 0.092 3 
0.458 0.182 0.023 3 
0.471 -0.296 0.072 3 
0.461 0.323 0.102 3 
0.464 -0.345 0.107 3 
0.463 -0.196 0.104 3 
0.455 0.293 0.013 3 
0.464 -0.185 0.104 3 
0.466 -0.167 0.104 3 
0.466 -0.155 0.104 3 
0.465 -0.147 0.104 3 
0.464 -0.138 0.104 3 
0.464 0.324 0.187 3 
0.459 0.074 0.034 3 
0.462 -0.116 0.103 3 
0.465 -0.081 0.101 3 
0.463 -0.105 0.103 3 
0.463 -0.076 0.103 3 
0.464 -0.065 0.103 3 
0.463 -0.057 0.103 3 
0.462 -0.126 0.013 3 
0.465 -0.098 0.077 3 
0.461 0.003 0.102 3 
0.463 -0.086 0.092 3 
0.459 0.053 0.102 3 
0.458 0.124 0.013 3 
0.465 -0.116 0.034 3 
0.46 0.104 0.102 3 
0.475 -0.356 0.147 3 
0.459 0.024 0.094 3 
0.46 0.042 0.094 3 
0.46 0.053 0.094 3 
0.459 0.074 0.094 3 
0.46 0.082 0.094 3 
0.459 0.093 0.094 3 
0.471 -0.315 0.093 3 
0.474 -0.336 0.102 3 
0.474 -0.329 0.102 3 
0.473 -0.308 0.101 3 
0.461 -0.025 0.034 3 
0.471 -0.296 0.101 3 
0.475 -0.337 0.105 3 
0.462 -0.057 0.034 3 
0.476 -0.301 0.105 3 
0.47 -0.276 0.103 3 
0.47 -0.257 0.103 3 
0.473 -0.235 0.103 3 
0.465 0.03 0.173 3 
0.465 -0.166 0.082 3 
0.471 -0.225 0.103 3 
0.464 -0.205 0.077 3 
0.461 0.184 0.092 3 
0.469 -0.217 0.102 3 
0.465 -0.186 0.101 3 
0.47 -0.266 0.072 3 
0.473 -0.348 0.014 3 
0.468 -0.267 0.013 3 
0.472 -0.238 0.013 3 
0.467 -0.207 0.014 3 
0.464 -0.127 0.103 3 
0.454 0.221 0.014 3 
0.455 0.228 0.014 3 
0.453 0.232 0.014 3 
0.454 0.236 0.014 3 
0.456 0.243 0.014 3 
0.47 -0.225 0.153 3 
0.457 0.274 0.013 3 
0.458 0.233 0.103 3 
0.458 0.322 0.012 3 
0.466 -0.275 0.013 3 
0.465 -0.095 0.018 3 
0.474 -0.305 0.113 3 
0.459 0.331 0.014 3 
0.463 0.339 0.014 3 
0.465 -0.223 0.02 3 
0.465 -0.111 0.02 3 
0.462 -0.006 0.164 3 
0.467 -0.228 0.022 3 
0.464 -0.217 0.023 3 
0.457 0.303 0.082 3 
0.469 0.014 0.183 3 
0.465 -0.206 0.022 3 
0.465 -0.194 0.023 3 
0.467 -0.028 0.174 3 
0.458 -0.046 0.013 3 
0.459 -0.035 0.013 3 
0.46 0.174 0.063 3 
0.459 -0.017 0.013 3 
0.46 0.322 0.093 3 
0.459 0.013 0.013 3 
0.459 0.034 0.013 3 
0.459 0.053 0.013 3 
0.46 0.063 0.013 3 
0.458 0.073 0.013 3 
0.457 0.084 0.013 3 
0.459 0.092 0.013 3 
0.459 0.103 0.013 3 
0.464 -0.171 0.023 3 
0.459 0.114 0.013 3 
0.457 0.132 0.013 3 
0.456 0.164 0.012 3 
0.462 0.003 0.113 3 
0.463 -0.343 0.012 3 
0.466 -0.164 0.058 3 
0.47 -0.327 0.012 3 
0.471 -0.315 0.012 3 
0.463 0.014 0.173 3 
0.47 -0.267 0.143 3 
0.467 -0.295 0.013 3 
0.461 -0.006 0.134 3 
0.459 0.304 0.023 3 
0.465 -0.345 0.024 3 
0.468 -0.335 0.024 3 
0.461 -0.035 0.024 3 
0.471 -0.325 0.023 3 
0.464 -0.196 0.09 3 
0.47 -0.317 0.024 3 
0.469 -0.296 0.024 3 
0.468 -0.286 0.024 3 
0.469 -0.265 0.024 3 
0.477 -0.245 0.024 3 
0.475 -0.329 0.008 3 
0.46 0.273 0.024 3 
0.466 -0.077 0.152 3 
0.457 0.232 0.022 3 
0.461 0.337 0.022 3 
0.459 0.064 0.102 3 
0.464 -0.105 0.029 3 
0.46 0.093 0.113 3 
0.469 -0.218 0.014 3 
0.464 -0.177 0.031 3 
0.465 -0.087 0.074 3 
0.464 -0.168 0.031 3 
0.461 0.274 0.154 3 
0.465 -0.161 0.031 3 
0.466 -0.186 0.063 3 
0.47 -0.327 0.032 3 
0.461 0.003 0.023 3 
0.466 -0.186 0.074 3 
0.466 -0.167 0.023 3 
0.475 -0.326 0.173 3 
0.464 -0.135 0.023 3 
0.464 -0.127 0.023 3 
0.47 -0.255 0.134 3 
0.465 -0.117 0.023 3 
0.463 -0.097 0.023 3 
0.461 -0.075 0.024 3 
0.464 -0.087 0.084 3 
0.476 -0.291 0.195 3 
0.462 -0.017 0.023 3 
0.465 -0.109 0.082 3 
0.473 -0.297 0.064 3 
0.459 0.024 0.024 3 
0.46 0.042 0.023 3 
0.459 0.053 0.024 3 
0.46 0.063 0.023 3 
0.469 -0.288 0.143 3 
0.458 0.103 0.023 3 
0.458 0.113 0.023 3 
0.459 0.124 0.023 3 
0.459 0.144 0.023 3 
0.459 0.194 0.022 3 
0.465 -0.125 0.093 3 
0.459 0.202 0.022 3 
0.458 0.303 0.054 3 
0.463 0.335 0.054 3 
0.464 -0.197 0.112 3 
0.465 -0.136 0.034 3 
0.46 0.064 0.094 3 
0.464 -0.114 0.093 3 
0.463 -0.025 0.023 3 
0.461 -0.035 0.084 3 
0.465 -0.095 0.114 3 
0.458 0.084 0.023 3 
0.464 -0.237 0.077 3 
0.465 -0.055 0.114 3 
0.464 -0.175 0.131 3 
0.458 0.053 0.134 3 
0.464 0.073 0.154 3 
0.46 0.214 0.103 3 
0.459 0.074 0.113 3 
0.464 0.011 0.178 3 
0.463 -0.036 0.034 3 
0.472 -0.274 0.184 3 
0.461 0.132 0.154 3 
0.462 0.244 0.16 3 
0.464 -0.057 0.063 3 
0.465 -0.158 0.023 3 
0.456 0.252 0.014 3 
0.463 0.303 0.182 3 
0.453 0.223 0.015 3 
0.465 0.027 0.152 3 
0.474 -0.285 0.171 3 
0.462 0.103 0.173 3 
0.476 -0.291 0.192 3 
0.475 -0.345 0.132 3 
0.463 -0.236 0.042 3 
0.461 0.336 0.163 3 
0.466 -0.087 0.152 3 
0.475 -0.317 0.146 3 
0.47 -0.267 0.134 3 
0.461 -0.006 0.113 3 
0.469 -0.307 0.084 3 
0.46 0.203 0.092 3 
0.462 0.254 0.062 3 
0.462 0.032 0.063 3 
0.469 -0.125 0.184 3 
0.46 0.283 0.024 3 
0.465 -0.109 0.16 3 
0.454 0.271 0.011 3 
0.46 0.014 0.094 3 
0.462 -0.065 0.074 3 
0.473 -0.318 0.102 3 
0.464 0.036 0.178 3 
0.481 -0.325 0.184 3 
0.464 0.112 0.174 3 
0.467 -0.168 0.124 3 
0.461 0.289 0.144 3 
0.462 -0.017 0.103 3 
0.467 -0.085 0.123 3 
0.462 -0.025 0.084 3 
0.479 -0.306 0.182 3 
0.461 0.064 0.002 3 
0.457 0.073 0.003 3 
0.471 -0.285 0.044 3 
0.474 -0.355 0.085 3 
0.461 0.212 0.073 3 
0.461 0.16 0.174 3 
0.474 -0.355 0.144 3 
0.464 -0.18 0.004 3 
0.466 -0.215 0.052 3 
0.459 0.053 0.052 3 
0.467 -0.096 0.172 3 
0.461 -0.186 0.012 3 
0.475 -0.191 0.183 3 
0.464 -0.345 0.004 3 
0.464 -0.217 0.009 3 
0.465 -0.141 0.009 3 
0.464 -0.169 0.012 3 
0.464 -0.157 0.012 3 
0.462 -0.105 0.013 3 
0.462 -0.086 0.013 3 
0.461 -0.075 0.013 3 
0.458 -0.056 0.013 3 
0.461 0.024 0.113 3 
0.475 -0.343 0.096 3 
0.459 0.274 0.104 3 
0.461 0.333 0.163 3 
0.467 -0.207 0.044 3 
0.458 0.242 0.024 3 
0.472 -0.186 0.19 3 
0.465 0.318 0.184 3 
0.462 -0.075 0.052 3 
0.461 0.003 0.073 3 
0.466 -0.306 0.033 3 
0.459 0.042 0.063 3 
0.464 -0.203 0.014 3 
0.465 -0.047 0.162 3 
0.463 0.323 0.183 3 
0.468 -0.295 0.033 3 
0.467 -0.196 0.074 3 
0.464 -0.16 0.023 3 
0.458 0.247 0.144 3 
0.465 0.197 0.173 3 
0.461 0.154 0.143 3 
0.459 0.024 0.052 3 
0.459 0.152 0.094 3 
0.475 -0.179 0.191 3 
0.459 0.122 0.124 3 
0.464 0.124 0.052 3 
0.462 -0.065 0.002 3 
0.461 -0.057 0.003 3 
0.464 -0.157 0.053 3 
0.464 0.231 0.171 3 
0.47 -0.307 0.052 3 
0.47 -0.297 0.052 3 
0.464 -0.1 0.074 3 
0.469 -0.275 0.052 3 
0.469 -0.268 0.052 3 
0.465 -0.247 0.052 3 
0.459 0.254 0.043 3 
0.468 -0.205 0.052 3 
0.459 0.042 0.102 3 
0.468 -0.196 0.052 3 
0.466 -0.167 0.052 3 
0.465 -0.163 0.053 3 
0.47 -0.316 0.052 3 
0.464 -0.132 0.053 3 
0.464 -0.116 0.053 3 
0.465 -0.095 0.052 3 
0.465 -0.09 0.052 3 
0.463 -0.086 0.052 3 
0.463 -0.105 0.114 3 
0.463 -0.065 0.052 3 
0.462 -0.057 0.052 3 
0.461 -0.025 0.052 3 
0.459 0.013 0.052 3 
0.461 0.042 0.052 3 
0.469 0.003 0.183 3 
0.461 0.074 0.052 3 
0.458 0.323 0.043 3 
0.465 -0.158 0.009 3 
0.46 0.194 0.044 3 
0.459 0.213 0.044 3 
0.458 0.224 0.044 3 
0.458 0.233 0.044 3 
0.465 -0.087 0.103 3 
0.461 0.262 0.043 3 
0.457 0.223 0.022 3 
0.461 0.274 0.043 3 
0.457 0.283 0.043 3 
0.462 0.204 0.172 3 
0.457 0.292 0.043 3 
0.457 0.312 0.043 3 
0.46 0.093 0.052 3 
0.462 0.334 0.042 3 
0.461 0.336 0.042 3 
0.466 -0.136 0.047 3 
0.464 -0.1 0.047 3 
0.464 -0.344 0.049 3 
0.464 -0.179 0.05 3 
0.456 0.282 0.013 3 
0.468 0.052 0.049 3 
0.468 -0.345 0.052 3 
0.472 -0.336 0.052 3 
0.473 -0.326 0.052 3 
0.475 -0.276 0.182 3 
0.465 -0.014 0.132 3 
0.464 -0.13 0.061 3 
0.46 0.316 0.124 3 
0.461 -0.006 0.102 3 
0.464 -0.103 0.06 3 
0.464 -0.205 0.012 3 
0.473 -0.337 0.064 3 
0.474 -0.307 0.064 3 
0.468 0.343 0.141 3 
0.471 -0.267 0.064 3 
0.476 -0.341 0.008 3 
0.468 -0.237 0.064 3 
0.467 -0.225 0.063 3 
0.466 -0.215 0.063 3 
0.464 -0.135 0.061 3 
0.466 -0.206 0.063 3 
0.466 -0.195 0.063 3 
0.471 -0.277 0.044 3 
0.476 -0.325 0.126 3 
0.466 -0.169 0.063 3 
0.465 -0.149 0.063 3 
0.464 -0.146 0.063 3 
0.458 0.325 0.144 3 
0.456 0.314 0.012 3 
0.482 -0.31 0.199 3 
0.458 0.222 0.114 3 
0.466 -0.087 0.114 3 
0.459 0.269 0.054 3 
0.458 0.114 0.113 3 
0.481 -0.347 0.192 3 
0.459 0.103 0.052 3 
0.459 0.032 0.094 3 
0.472 -0.343 0.014 3 
0.464 -0.103 0.087 3 
0.462 0.134 0.052 3 
0.459 0.174 0.052 3 
0.462 -0.065 0.034 3 
0.458 0.204 0.054 3 
0.455 0.3 0.043 3 
0.459 0.213 0.054 3 
0.458 0.233 0.054 3 
0.46 0.183 0.044 3 
0.46 0.053 0.063 3 
0.457 0.293 0.054 3 
0.459 0.314 0.054 3 
0.467 -0.255 0.094 3 
0.459 0.324 0.054 3 
0.462 0.331 0.054 3 
0.46 0.172 0.084 3 
0.475 -0.328 0.058 3 
0.46 -0.007 0.013 3 
0.461 0.283 0.143 3 
0.464 -0.119 0.058 3 
0.475 -0.308 0.044 3 
0.473 -0.335 0.122 3 
0.473 -0.24 0.174 3 
0.46 0.053 0.034 3 
0.461 -0.067 0.013 3 
0.459 0.063 0.034 3 
0.459 0.084 0.034 3 
0.46 0.093 0.034 3 
0.459 -0.025 0.013 3 
0.461 0.275 0.174 3 
0.46 0.103 0.034 3 
0.46 0.122 0.033 3 
0.464 -0.185 0.023 3 
0.461 -0.086 0.024 3 
0.458 0.143 0.034 3 
0.461 0.042 0.034 3 
0.458 0.204 0.033 3 
0.471 -0.145 0.183 3 
0.468 -0.235 0.022 3 
0.465 -0.136 0.104 3 
0.464 0.033 0.162 3 
0.457 0.232 0.033 3 
0.464 0.182 0.175 3 
0.457 0.244 0.033 3 
0.457 0.253 0.033 3 
0.459 0.263 0.032 3 
0.459 0.272 0.032 3 
0.465 0.194 0.173 3 
0.459 -0.046 0.003 3 
0.47 -0.275 0.033 3 
0.468 -0.268 0.033 3 
0.466 -0.257 0.033 3 
0.464 -0.249 0.033 3 
0.465 -0.247 0.033 3 
0.463 0.019 0.154 3 
0.466 -0.236 0.033 3 
0.467 -0.216 0.033 3 
0.466 -0.207 0.033 3 
0.466 -0.195 0.033 3 
0.465 -0.175 0.034 3 
0.46 0.312 0.173 3 
0.463 -0.146 0.034 3 
0.457 0.283 0.032 3 
0.466 -0.128 0.034 3 
0.465 -0.089 0.018 3 
0.465 -0.106 0.034 3 
0.465 -0.103 0.034 3 
0.463 -0.076 0.034 3 
0.463 -0.046 0.034 3 
0.462 -0.075 0.092 3 
0.459 -0.006 0.034 3 
0.459 0.013 0.034 3 
0.459 0.024 0.034 3 
0.46 0.034 0.034 3 
0.457 0.329 0.023 3 
0.466 -0.257 0.052 3 
0.468 -0.265 0.044 3 
0.467 -0.245 0.044 3 
0.466 -0.236 0.044 3 
0.466 -0.227 0.044 3 
0.466 -0.198 0.044 3 
0.464 -0.177 0.044 3 
0.465 -0.116 0.063 3 
0.466 -0.161 0.044 3 
0.465 -0.152 0.044 3 
0.465 -0.136 0.044 3 
0.464 -0.124 0.044 3 
0.459 0.053 0.123 3 
0.465 -0.044 0.044 3 
0.463 -0.233 0.042 3 
0.467 -0.186 0.163 3 
0.465 -0.109 0.101 3 
0.463 -0.038 0.044 3 
0.462 -0.009 0.044 3 
0.461 0.003 0.044 3 
0.46 0.032 0.044 3 
0.461 0.042 0.044 3 
0.46 0.074 0.044 3 
0.461 0.082 0.044 3 
0.458 0.103 0.044 3 
0.46 0.133 0.044 3 
0.459 0.174 0.044 3 
0.462 -0.075 0.042 3 
0.459 0.133 0.023 3 
0.458 0.303 0.032 3 
0.461 0.262 0.174 3 
0.456 0.311 0.032 3 
0.463 0.339 0.031 3 
0.471 -0.236 0.183 3 
0.458 0.323 0.034 3 
0.462 0.334 0.034 3 
0.467 0.343 0.033 3 
0.475 -0.267 0.188 3 
0.464 -0.211 0.039 3 
0.459 0.122 0.113 3 
0.464 -0.174 0.042 3 
0.466 -0.09 0.063 3 
0.46 -0.017 0.042 3 
0.465 -0.155 0.082 3 
0.465 0.341 0.039 3 
0.466 -0.346 0.044 3 
0.458 0.133 0.123 3 
0.469 -0.336 0.044 3 
0.457 0.082 0.112 3 
0.47 -0.327 0.044 3 
0.473 -0.316 0.044 3 
0.474 -0.314 0.044 3 
0.458 0.224 0.033 3 
0.471 -0.298 0.044 3 
0.472 -0.226 0.123 3 
0.464 -0.103 0.171 3 
0.459 0.263 0.024 3 
0.461 0.164 0.044 3 
0.46 0.112 0.052 3 
0.464 -0.076 0.17 3 
0.468 -0.006 0.172 3 
0.458 0.143 0.012 3 
0.468 -0.268 0.083 3 
0.462 0.223 0.153 3 
0.459 0.114 0.094 3 
0.458 0.172 0.153 3 
0.462 0.094 0.17 3 
0.467 0.132 0.172 3 
0.464 -0.109 0.171 3 
0.466 0.154 0.172 3 
0.472 0.355 0.186 3 
0.462 0.181 0.172 3 
0.458 0.024 0.013 3 
0.463 0.222 0.173 3 
0.46 0.063 0.044 3 
0.462 0.254 0.174 3 
0.473 -0.337 0.164 3 
0.465 -0.175 0.036 3 
0.462 0.266 0.174 3 
0.473 -0.355 0.105 3 
0.464 0.29 0.176 3 
0.466 0.332 0.179 3 
0.475 -0.317 0.143 3 
0.471 -0.197 0.173 3 
0.458 0.251 0.092 3 
0.462 0.334 0.094 3 
0.47 -0.185 0.172 3 
0.464 0.054 0.168 3 
0.463 0.117 0.168 3 
0.462 0.192 0.169 3 
0.461 0.003 0.084 3 
0.464 0.29 0.173 3 
0.459 0.264 0.104 3 
0.47 -0.246 0.134 3 
0.465 0.294 0.174 3 
0.462 0.304 0.173 3 
0.482 -0.356 0.189 3 
0.461 0.323 0.174 3 
0.465 0.14 0.174 3 
0.478 -0.299 0.182 3 
0.469 -0.181 0.174 3 
0.471 -0.217 0.162 3 
0.458 0.221 0.014 3 
0.468 -0.155 0.173 3 
0.467 -0.146 0.173 3 
0.463 -0.125 0.171 3 
0.466 -0.195 0.093 3 
0.462 -0.035 0.103 3 
0.463 -0.117 0.171 3 
0.466 0.049 0.174 3 
0.467 -0.023 0.174 3 
0.465 0.001 0.173 3 
0.461 -0.017 0.113 3 
0.462 0.003 0.172 3 
0.468 -0.235 0.114 3 
0.467 -0.225 0.014 3 
0.465 0.02 0.173 3 
0.478 -0.346 0.094 3 
0.464 0.033 0.173 3 
0.462 0.062 0.164 3 
0.463 0.041 0.173 3 
0.465 -0.047 0.044 3 
0.474 -0.209 0.191 3 
0.479 -0.309 0.164 3 
0.46 0.104 0.113 3 
0.463 0.062 0.173 3 
0.464 0.073 0.173 3 
0.466 -0.195 0.082 3 
0.466 0.079 0.174 3 
0.464 -0.127 0.042 3 
0.465 0.093 0.174 3 
0.461 -0.025 0.042 3 
0.467 -0.267 0.094 3 
0.458 0.162 0.023 3 
0.46 0.013 0.024 3 
0.464 0.208 0.176 3 
0.459 0.263 0.162 3 
0.469 0.05 0.183 3 
0.472 -0.29 0.182 3 
0.46 0.183 0.114 3 
0.466 0.3 0.192 3 
0.477 -0.288 0.184 3 
0.472 -0.28 0.182 3 
0.459 0.09 0.142 3 
0.458 0.193 0.054 3 
0.477 -0.268 0.183 3 
0.475 -0.257 0.182 3 
0.462 0.032 0.102 3 
0.465 -0.126 0.174 3 
0.476 -0.207 0.189 3 
0.463 0.144 0.163 3 
0.465 -0.123 0.174 3 
0.466 -0.085 0.174 3 
0.461 0.162 0.143 3 
0.465 -0.076 0.174 3 
0.459 0.003 0.034 3 
0.465 -0.119 0.052 3 
0.466 -0.055 0.174 3 
0.471 -0.276 0.064 3 
0.465 -0.047 0.173 3 
0.464 -0.038 0.173 3 
0.466 -0.036 0.174 3 
0.465 -0.033 0.184 3 
0.469 -0.257 0.114 3 
0.458 0.201 0.014 3 
0.464 -0.153 0.164 3 
0.466 -0.145 0.164 3 
0.462 -0.025 0.134 3 
0.467 -0.135 0.164 3 
0.466 -0.126 0.164 3 
0.461 -0.035 0.073 3 
0.464 -0.117 0.163 3 
0.463 -0.106 0.162 3 
0.464 -0.098 0.163 3 
0.462 0.082 0.063 3 
0.465 -0.095 0.163 3 
0.466 -0.088 0.163 3 
0.479 -0.292 0.173 3 
0.465 -0.076 0.163 3 
0.46 0.144 0.092 3 
0.463 -0.065 0.162 3 
0.464 -0.226 0.009 3 
0.464 -0.055 0.162 3 
0.465 -0.025 0.162 3 
0.466 -0.036 0.163 3 
0.469 -0.247 0.024 3 
0.465 -0.017 0.163 3 
0.47 -0.106 0.184 3 
0.465 -0.014 0.163 3 
0.467 -0.145 0.082 3 
0.461 0.274 0.062 3 
0.465 -0.055 0.16 3 
0.461 -0.017 0.052 3 
0.465 -0.055 0.119 3 
0.465 0.344 0.164 3 
0.462 -0.116 0.114 3 
0.473 -0.337 0.17 3 
0.472 -0.326 0.169 3 
0.458 0.273 0.093 3 
0.469 -0.236 0.164 3 
0.469 -0.207 0.164 3 
0.466 -0.167 0.034 3 
0.467 -0.197 0.163 3 
0.464 -0.185 0.025 3 
0.468 -0.166 0.162 3 
0.456 0.205 0.154 3 
0.464 -0.025 0.159 3 
0.464 -0.017 0.159 3 
0.467 0.343 0.054 3 
0.464 0.133 0.16 3 
0.46 0.273 0.163 3 
0.463 0.289 0.164 3 
0.46 0.302 0.164 3 
0.472 -0.358 0.174 3 
0.477 -0.338 0.174 3 
0.461 0.224 0.084 3 
0.479 -0.299 0.173 3 
0.465 -0.092 0.093 3 
0.458 0.243 0.114 3 
0.47 -0.265 0.172 3 
0.46 0.074 0.023 3 
0.471 -0.353 0.173 3 
0.465 -0.175 0.104 3 
0.462 -0.052 0.164 3 
0.466 -0.165 0.129 3 
0.464 -0.047 0.165 3 
0.464 -0.009 0.165 3 
0.462 0.043 0.164 3 
0.466 -0.297 0.083 3 
0.462 0.054 0.164 3 
0.46 0.114 0.044 3 
0.46 0.094 0.164 3 
0.458 0.184 0.033 3 
0.474 -0.329 0.093 3 
0.461 -0.086 0.002 3 
0.464 0.111 0.144 3 
0.463 0.332 0.172 3 
0.468 0.341 0.174 3 
0.478 -0.347 0.181 3 
0.461 0.094 0.124 3 
0.487 -0.267 0.18 3 
0.472 -0.245 0.174 3 
0.459 0.043 0.123 3 
0.472 -0.228 0.174 3 
0.469 -0.187 0.144 3 
0.458 0.293 0.032 3 
0.465 -0.166 0.074 3 
0.465 0.044 0.162 3 
0.462 0.073 0.162 3 
0.468 -0.226 0.033 3 
0.464 0.12 0.163 3 
0.465 0.123 0.163 3 
0.465 0.134 0.163 3 
0.472 -0.076 0.187 3 
0.462 0.032 0.132 3 
0.465 0.137 0.163 3 
0.458 0.092 0.023 3 
0.459 0.153 0.162 3 
0.458 0.172 0.162 3 
0.458 0.162 0.094 3 
0.458 0.184 0.162 3 
0.459 0.193 0.163 3 
0.46 0.202 0.163 3 
0.46 0.214 0.164 3 
0.46 0.219 0.164 3 
0.461 0.229 0.164 3 
0.465 0.334 0.17 3 
0.464 0.337 0.17 3 
0.46 -0.067 0.024 3 
0.469 0.346 0.172 3 
0.457 0.173 0.012 3 
0.47 -0.275 0.172 3 
0.461 0.053 0.044 3 
0.472 -0.166 0.189 3 
0.468 -0.155 0.187 3 
0.462 -0.086 0.042 3 
0.473 -0.146 0.189 3 
0.472 -0.14 0.189 3 
0.46 0.093 0.084 3 
0.479 -0.355 0.182 3 
0.473 -0.126 0.189 3 
0.474 -0.115 0.189 3 
0.472 -0.106 0.188 3 
0.471 -0.098 0.187 3 
0.465 -0.106 0.093 3 
0.472 -0.087 0.188 3 
0.462 0.123 0.044 3 
0.459 0.142 0.134 3 
0.459 0.024 0.042 3 
0.471 -0.067 0.187 3 
0.478 0.33 0.199 3 
0.469 -0.056 0.186 3 
0.466 -0.047 0.185 3 
0.466 -0.042 0.185 3 
0.462 -0.036 0.183 3 
0.464 -0.028 0.184 3 
0.467 -0.025 0.185 3 
0.472 -0.015 0.187 3 
0.473 -0.007 0.188 3 
0.469 0.003 0.186 3 
0.463 -0.049 0.124 3 
0.459 0.321 0.164 3 
0.466 0.178 0.184 3 
0.467 0.339 0.192 3 
0.472 0.348 0.194 3 
0.473 -0.218 0.134 3 
0.483 -0.35 0.202 3 
0.48 -0.336 0.2 3 
0.471 -0.305 0.012 3 
0.479 -0.297 0.197 3 
0.461 0.324 0.113 3 
0.464 0.114 0.163 3 
0.465 -0.12 0.163 3 
0.473 -0.278 0.194 3 
0.47 0.014 0.186 3 
0.469 -0.265 0.191 3 
0.471 -0.257 0.192 3 
0.459 0.184 0.154 3 
0.471 -0.246 0.192 3 
0.472 -0.237 0.192 3 
0.472 -0.225 0.191 3 
0.475 -0.218 0.192 3 
0.474 -0.215 0.192 3 
0.46 0.162 0.162 3 
0.471 -0.195 0.19 3 
0.457 0.192 0.033 3 
0.475 -0.174 0.191 3 
0.467 0.253 0.19 3 
0.465 0.174 0.187 3 
0.467 0.184 0.188 3 
0.471 0.192 0.19 3 
0.471 0.204 0.19 3 
0.466 0.213 0.188 3 
0.462 0.083 0.132 3 
0.463 0.222 0.187 3 
0.459 0.222 0.092 3 
0.466 0.231 0.189 3 
0.462 0.064 0.143 3 
0.46 0.164 0.154 3 
0.464 0.232 0.188 3 
0.47 0.243 0.191 3 
0.459 0.251 0.073 3 
0.47 0.262 0.192 3 
0.47 0.271 0.192 3 
0.467 0.284 0.191 3 
0.468 -0.287 0.112 3 
0.458 0.262 0.142 3 
0.465 -0.147 0.009 3 
0.468 -0.255 0.013 3 
0.467 0.311 0.193 3 
0.473 -0.318 0.134 3 
0.469 0.316 0.194 3 
0.469 -0.275 0.114 3 
0.471 0.344 0.197 3 
0.474 -0.176 0.19 3 
0.47 0.023 0.186 3 
0.465 -0.15 0.015 3 
0.467 0.033 0.185 3 
0.465 -0.052 0.13 3 
0.467 0.044 0.185 3 
0.47 0.053 0.187 3 
0.46 0.161 0.132 3 
0.474 0.062 0.188 3 
0.464 0.235 0.188 3 
0.46 0.083 0.124 3 
0.467 0.082 0.186 3 
0.469 -0.238 0.052 3 
0.463 -0.146 0.098 3 
0.47 -0.236 0.094 3 
0.467 0.085 0.186 3 
0.472 0.073 0.188 3 
0.466 0.124 0.186 3 
0.462 0.092 0.184 3 
0.462 0.1 0.184 3 
0.467 0.113 0.186 3 
0.461 0.253 0.162 3 
0.464 0.16 0.186 3 
0.465 0.163 0.186 3 
0.464 -0.073 0.17 3 
0.464 0.168 0.186 3 
0.459 0.163 0.052 3 
0.471 -0.195 0.184 3 
0.464 0.275 0.181 3 
0.461 0.102 0.164 3 
0.465 0.282 0.182 3 
0.467 0.294 0.183 3 
0.465 0.301 0.183 3 
0.469 -0.325 0.072 3 
0.462 -0.035 0.124 3 
0.463 0.333 0.184 3 
0.465 0.014 0.171 3 
0.48 -0.336 0.194 3 
0.479 -0.327 0.193 3 
0.476 -0.252 0.188 3 
0.462 0.263 0.062 3 
0.48 -0.329 0.199 3 
0.47 -0.185 0.183 3 
0.472 -0.358 0.177 3 
0.474 -0.167 0.184 3 
0.464 -0.188 0.004 3 
0.471 -0.157 0.183 3 
0.47 -0.136 0.182 3 
0.464 0.003 0.178 3 
0.464 -0.106 0.133 3 
0.464 0.142 0.18 3 
0.464 0.15 0.18 3 
0.467 0.193 0.182 3 
0.466 0.204 0.182 3 
0.479 -0.316 0.174 3 
0.474 -0.217 0.183 3 
0.468 0.343 0.184 3 
0.462 0.182 0.122 3 
0.468 0.347 0.184 3 
0.459 0.174 0.022 3 
0.462 0.084 0.164 3 
0.465 0.104 0.185 3 
0.464 -0.095 0.103 3 
0.465 0.106 0.174 3 
0.474 -0.256 0.184 3 
0.46 -0.137 0.124 3 
0.472 -0.225 0.183 3 
0.464 -0.22 0.025 3 
0.463 -0.086 0.111 3 
0.465 -0.106 0.042 3 
0.473 -0.205 0.182 3 
0.475 -0.203 0.183 3 
0.466 0.339 0.106 3 
0.472 -0.246 0.183 3 
0.464 0.033 0.176 3 
0.464 0.232 0.18 3 
0.462 0.003 0.164 3 
0.463 0.261 0.18 3 
0.47 -0.285 0.064 3 
0.464 0.272 0.181 3 
0.471 -0.338 0.032 3 
0.474 -0.208 0.174 3 
0.466 0.088 0.182 3 
0.471 -0.015 0.184 3 
0.46 -0.017 0.094 3 
0.472 -0.238 0.154 3 
0.468 0.022 0.183 3 
0.465 0.033 0.182 3 
0.467 0.044 0.182 3 
0.471 -0.285 0.032 3 
0.463 -0.126 0.074 3 
0.464 0.1 0.143 3 
0.469 0.064 0.183 3 
0.467 -0.199 0.102 3 
0.467 0.071 0.183 3 
0.466 0.082 0.182 3 
0.459 0.174 0.033 3 
0.46 0.034 0.023 3 
0.466 0.104 0.183 3 
0.468 0.113 0.184 3 
0.47 0.122 0.184 3 
0.465 -0.155 0.074 3 
0.468 0.133 0.184 3 
0.462 0.104 0.063 3 
0.467 0.144 0.184 3 
0.461 -0.006 0.063 3 
0.465 0.157 0.184 3 
0.463 0.162 0.183 3 
0.466 0.294 0.154 3 
0.478 -0.309 0.194 3 
0.466 0.236 0.183 3 
0.466 -0.145 0.109 3 
0.476 0.247 0.188 3 
0.466 0.246 0.184 3 
0.464 -0.089 0.103 3 
0.465 0.26 0.184 3 
0.46 0.264 0.054 3 
0.463 0.303 0.185 3 
0.465 -0.166 0.012 3 
0.469 -0.306 0.024 3 
0.461 0.054 0.153 3 
0.46 0.31 0.184 3 
0.461 0.314 0.185 3 
0.466 0.301 0.163 3 
0.461 -0.156 0.039 3 
0.47 -0.316 0.072 3 
0.476 -0.281 0.192 3 
0.475 -0.2 0.189 3 
0.466 -0.186 0.033 3 
0.477 -0.192 0.189 3 
0.469 -0.116 0.184 3 
0.466 -0.085 0.182 3 
0.468 -0.066 0.183 3 
0.456 0.264 0.013 3 
0.466 0.196 0.134 3 
0.469 -0.056 0.183 3 
0.46 0.093 0.132 3 
0.461 0.331 0.134 3 
0.468 -0.286 0.092 3 
0.466 -0.215 0.044 3 
0.481 -0.316 0.199 3 
0.459 0.144 0.044 3 
0.475 -0.356 0.141 3 
0.475 -0.314 0.14 3 
0.475 -0.213 0.137 3 
0.464 -0.158 0.134 3 
0.475 -0.323 0.194 3 
0.465 -0.156 0.134 3 
0.464 -0.154 0.071 3 
0.464 -0.136 0.133 3 
0.461 0.324 0.133 3 
0.464 0.194 0.123 3 
0.463 -0.127 0.133 3 
0.464 0.124 0.063 3 
0.464 -0.117 0.133 3 
0.461 -0.017 0.034 3 
0.464 -0.098 0.133 3 
0.456 0.221 0.122 3 
0.465 -0.095 0.133 3 
0.465 -0.087 0.133 3 
0.466 -0.106 0.069 3 
0.465 -0.084 0.133 3 
0.471 -0.268 0.123 3 
0.46 0.213 0.133 3 
0.462 -0.145 0.053 3 
0.474 -0.326 0.134 3 
0.461 0.083 0.084 3 
0.475 -0.317 0.134 3 
0.474 -0.306 0.133 3 
0.462 -0.097 0.013 3 
0.456 0.213 0.124 3 
0.465 0.212 0.182 3 
0.469 -0.285 0.132 3 
0.472 -0.306 0.072 3 
0.457 0.204 0.124 3 
0.473 0.352 0.134 3 
0.469 -0.276 0.134 3 
0.464 0.183 0.134 3 
0.462 -0.057 0.132 3 
0.469 -0.236 0.133 3 
0.462 -0.006 0.052 3 
0.471 -0.225 0.134 3 
0.462 0.104 0.073 3 
0.47 -0.21 0.133 3 
0.467 -0.196 0.132 3 
0.468 -0.188 0.132 3 
0.464 -0.188 0.047 3 
0.464 -0.089 0.13 3 
0.465 -0.055 0.13 3 
0.458 0.298 0.132 3 
0.464 -0.344 0.041 3 
0.462 -0.035 0.092 3 
0.463 -0.065 0.124 3 
0.461 0.064 0.134 3 
0.46 0.067 0.134 3 
0.46 0.12 0.134 3 
0.463 -0.065 0.042 3 
0.466 -0.198 0.014 3 
0.462 -0.025 0.153 3 
0.459 0.133 0.134 3 
0.465 0.199 0.137 3 
0.465 0.205 0.137 3 
0.472 -0.356 0.147 3 
0.476 -0.325 0.123 3 
0.475 -0.331 0.146 3 
0.461 0.022 0.134 3 
0.459 0.104 0.131 3 
0.466 -0.186 0.052 3 
0.468 -0.275 0.143 3 
0.471 -0.256 0.143 3 
0.471 -0.247 0.143 3 
0.471 -0.237 0.142 3 
0.474 -0.338 0.079 3 
0.464 -0.175 0.139 3 
0.464 -0.136 0.139 3 
0.461 0.093 0.073 3 
0.464 -0.128 0.139 3 
0.464 -0.122 0.139 3 
0.477 -0.337 0.144 3 
0.464 -0.202 0.077 3 
0.459 0.114 0.132 3 
0.464 0.172 0.133 3 
0.465 0.178 0.134 3 
0.465 0.187 0.134 3 
0.464 0.192 0.134 3 
0.462 0.203 0.134 3 
0.458 0.252 0.134 3 
0.458 0.264 0.134 3 
0.466 -0.175 0.093 3 
0.459 0.274 0.134 3 
0.474 -0.351 0.144 3 
0.476 -0.35 0.144 3 
0.459 0.082 0.102 3 
0.476 -0.325 0.143 3 
0.473 -0.305 0.142 3 
0.464 -0.106 0.136 3 
0.461 -0.075 0.134 3 
0.46 0.042 0.013 3 
0.461 -0.067 0.134 3 
0.462 -0.017 0.134 3 
0.459 0.003 0.134 3 
0.475 -0.308 0.154 3 
0.46 0.014 0.134 3 
0.468 -0.246 0.064 3 
0.465 -0.147 0.134 3 
0.466 0.221 0.183 3 
0.462 0.212 0.173 3 
0.473 -0.218 0.123 3 
0.465 -0.065 0.119 3 
0.464 -0.055 0.165 3 
0.464 0.25 0.18 3 
0.458 0.253 0.024 3 
0.465 -0.047 0.119 3 
0.463 0.333 0.123 3 
0.458 0.152 0.124 3 
0.459 0.182 0.052 3 
0.466 0.343 0.123 3 
0.463 -0.143 0.034 3 
0.46 0.082 0.073 3 
0.468 -0.235 0.122 3 
0.466 -0.187 0.123 3 
0.473 0.352 0.143 3 
0.461 -0.007 0.023 3 
0.467 -0.176 0.123 3 
0.465 -0.095 0.101 3 
0.466 -0.159 0.123 3 
0.464 -0.155 0.123 3 
0.463 -0.146 0.122 3 
0.465 0.244 0.163 3 
0.465 -0.125 0.123 3 
0.468 -0.256 0.022 3 
0.466 -0.123 0.123 3 
0.465 -0.166 0.044 3 
0.466 -0.155 0.093 3 
0.458 0.231 0.114 3 
0.465 -0.175 0.023 3 
0.463 0.34 0.117 3 
0.469 -0.175 0.163 3 
0.472 -0.345 0.123 3 
0.468 -0.245 0.164 3 
0.473 -0.328 0.122 3 
0.477 -0.315 0.123 3 
0.472 -0.007 0.184 3 
0.475 -0.307 0.122 3 
0.475 -0.303 0.122 3 
0.475 0.355 0.196 3 
0.475 -0.303 0.125 3 
0.463 -0.165 0.063 3 
0.472 -0.348 0.132 3 
0.463 0.339 0.111 3 
0.464 -0.166 0.134 3 
0.47 -0.276 0.123 3 
0.458 0.213 0.022 3 
0.467 -0.176 0.063 3 
0.459 0.043 0.113 3 
0.472 -0.259 0.123 3 
0.468 -0.247 0.122 3 
0.458 0.242 0.043 3 
0.472 -0.257 0.163 3 
0.46 0.191 0.092 3 
0.463 -0.057 0.044 3 
0.464 -0.057 0.124 3 
0.463 -0.108 0.154 3 
0.477 -0.341 0.094 3 
0.462 -0.025 0.124 3 
0.462 -0.017 0.124 3 
0.461 -0.006 0.123 3 
0.46 0.003 0.123 3 
0.461 0.014 0.123 3 
0.475 -0.235 0.172 3 
0.461 0.024 0.124 3 
0.458 0.224 0.054 3 
0.46 0.032 0.123 3 
0.461 0.064 0.124 3 
0.467 -0.285 0.072 3 
0.463 0.339 0.094 3 
0.461 0.072 0.124 3 
0.475 -0.206 0.18 3 
0.459 0.104 0.123 3 
0.458 0.114 0.123 3 
0.464 -0.119 0.023 3 
0.458 0.223 0.133 3 
0.474 -0.287 0.156 3 
0.457 0.143 0.123 3 
0.474 -0.314 0.16 3 
0.459 0.003 0.052 3 
0.461 0.162 0.124 3 
0.458 0.273 0.123 3 
0.464 -0.103 0.122 3 
0.475 -0.222 0.137 3 
0.473 -0.336 0.134 3 
0.466 -0.095 0.122 3 
0.466 -0.076 0.122 3 
0.461 0.173 0.122 3 
0.476 -0.183 0.183 3 
0.457 0.154 0.023 3 
0.46 0.242 0.123 3 
0.457 0.254 0.122 3 
0.458 0.243 0.133 3 
0.456 0.262 0.122 3 
0.459 0.152 0.102 3 
0.465 -0.041 0.138 3 
0.463 -0.138 0.012 3 
0.466 0.233 0.183 3 
0.46 0.281 0.124 3 
0.462 0.293 0.124 3 
0.462 0.302 0.124 3 
0.46 0.003 0.094 3 
0.46 0.313 0.124 3 
0.475 -0.31 0.131 3 
0.459 0.003 0.144 3 
0.461 -0.126 0.124 3 
0.461 -0.115 0.124 3 
0.462 -0.108 0.124 3 
0.458 0.253 0.153 3 
0.467 -0.207 0.074 3 
0.465 -0.106 0.152 3 
0.464 -0.113 0.053 3 
0.465 0.036 0.152 3 
0.464 -0.119 0.034 3 
0.465 0.101 0.152 3 
0.465 0.109 0.152 3 
0.466 0.115 0.152 3 
0.46 0.234 0.153 3 
0.461 0.243 0.154 3 
0.458 0.204 0.062 3 
0.471 -0.275 0.152 3 
0.463 -0.025 0.103 3 
0.459 0.133 0.033 3 
0.464 -0.185 0.044 3 
0.466 0.345 0.159 3 
0.461 0.003 0.013 3 
0.471 -0.345 0.164 3 
0.455 0.323 0.023 3 
0.463 0.144 0.166 3 
0.474 -0.328 0.164 3 
0.474 -0.321 0.163 3 
0.46 -0.056 0.024 3 
0.475 -0.315 0.164 3 
0.462 0.184 0.084 3 
0.476 -0.286 0.163 3 
0.462 -0.075 0.063 3 
0.464 -0.095 0.141 3 
0.464 -0.164 0.15 3 
0.461 0.142 0.113 3 
0.459 0.242 0.054 3 
0.464 0.289 0.153 3 
0.465 0.303 0.154 3 
0.462 0.303 0.153 3 
0.458 0.147 0.134 3 
0.459 0.313 0.153 3 
0.47 -0.266 0.103 3 
0.458 0.322 0.153 3 
0.465 -0.137 0.172 3 
0.462 0.337 0.154 3 
0.466 -0.216 0.154 3 
0.463 -0.095 0.154 3 
0.466 -0.202 0.154 3 
0.459 0.152 0.052 3 
0.467 -0.186 0.154 3 
0.468 -0.175 0.154 3 
0.464 -0.16 0.077 3 
0.466 -0.165 0.153 3 
0.468 -0.158 0.154 3 
0.459 0.278 0.134 3 
0.469 -0.147 0.154 3 
0.461 0.143 0.143 3 
0.467 -0.126 0.153 3 
0.457 0.184 0.012 3 
0.464 -0.205 0.112 3 
0.463 0.122 0.154 3 
0.466 0.34 0.132 3 
0.466 -0.115 0.153 3 
0.461 0.143 0.154 3 
0.462 0.154 0.154 3 
0.463 0.332 0.102 3 
0.459 0.19 0.154 3 
0.475 -0.332 0.087 3 
0.465 0.205 0.157 3 
0.464 -0.163 0.074 3 
0.456 0.202 0.154 3 
0.467 0.06 0.174 3 
0.466 -0.136 0.074 3 
0.464 0.114 0.154 3 
0.471 -0.266 0.163 3 
0.464 -0.187 0.159 3 
0.464 -0.136 0.158 3 
0.464 -0.111 0.042 3 
0.473 0.355 0.174 3 
0.464 -0.092 0.157 3 
0.46 0.014 0.102 3 
0.465 0.103 0.144 3 
0.465 -0.175 0.134 3 
0.464 0.063 0.179 3 
0.464 0.019 0.157 3 
0.461 0.083 0.143 3 
0.456 0.304 0.013 3 
0.464 -0.092 0.154 3 
0.465 -0.074 0.154 3 
0.464 -0.065 0.154 3 
0.464 -0.055 0.154 3 
0.465 -0.049 0.154 3 
0.464 -0.046 0.154 3 
0.461 0.082 0.052 3 
0.464 -0.038 0.154 3 
0.465 -0.036 0.154 3 
0.475 -0.13 0.19 3 
0.465 -0.097 0.044 3 
0.46 -0.006 0.153 3 
0.46 0.003 0.153 3 
0.464 -0.167 0.15 3 
0.463 0.174 0.144 3 
0.464 0.014 0.154 3 
0.461 0.134 0.103 3 
0.467 0.344 0.103 3 
0.465 0.022 0.154 3 
0.469 -0.277 0.024 3 
0.46 0.043 0.153 3 
0.463 0.062 0.154 3 
0.462 0.083 0.154 3 
0.462 0.094 0.154 3 
0.462 0.102 0.154 3 
0.475 0.358 0.184 3 
0.474 -0.327 0.152 3 
0.465 -0.136 0.142 3 
0.47 -0.168 0.174 3 
0.465 0.174 0.184 3 
0.465 -0.125 0.142 3 
0.458 0.074 0.102 3 
0.462 0.214 0.142 3 
0.458 0.223 0.141 3 
0.457 0.314 0.023 3 
0.459 0.272 0.143 3 
0.462 -0.115 0.013 3 
0.46 0.314 0.144 3 
0.465 -0.197 0.023 3 
0.459 0.323 0.144 3 
0.466 -0.145 0.142 3 
0.474 -0.322 0.119 3 
0.466 -0.106 0.144 3 
0.46 0.294 0.132 3 
0.462 -0.035 0.134 3 
0.465 -0.095 0.144 3 
0.468 0.124 0.173 3 
0.465 -0.057 0.138 3 
0.463 -0.086 0.143 3 
0.467 -0.098 0.063 3 
0.464 -0.076 0.143 3 
0.462 -0.065 0.143 3 
0.466 -0.12 0.144 3 
0.469 -0.23 0.144 3 
0.465 0.221 0.188 3 
0.461 0.134 0.073 3 
0.458 0.313 0.164 3 
0.457 0.231 0.133 3 
0.467 -0.015 0.138 3 
0.46 0.313 0.133 3 
0.465 0.073 0.138 3 
0.465 0.294 0.159 3 
0.464 0.338 0.143 3 
0.48 -0.307 0.174 3 
0.459 0.152 0.044 3 
0.475 -0.345 0.15 3 
0.475 -0.338 0.15 3 
0.473 -0.285 0.194 3 
0.47 -0.317 0.032 3 
0.469 -0.215 0.144 3 
0.462 -0.046 0.103 3 
0.468 -0.206 0.144 3 
0.47 -0.198 0.144 3 
0.464 -0.202 0.023 3 
0.465 -0.176 0.142 3 
0.461 0.053 0.113 3 
0.466 -0.173 0.143 3 
0.463 -0.166 0.142 3 
0.465 -0.206 0.104 3 
0.465 -0.156 0.142 3 
0.466 0.214 0.149 3 
0.464 -0.031 0.173 3 
0.478 -0.336 0.181 3 
0.474 -0.31 0.154 3 
0.463 -0.146 0.114 3 
0.474 -0.3 0.154 3 
0.465 -0.186 0.004 3 
0.461 0.184 0.073 3 
0.472 -0.285 0.153 3 
0.473 -0.267 0.152 3 
0.463 -0.076 0.146 3 
0.457 0.303 0.104 3 
0.465 -0.105 0.052 3 
0.459 0.008 0.144 3 
0.469 -0.346 0.154 3 
0.462 -0.035 0.063 3 
0.465 0.344 0.153 3 
0.475 -0.332 0.158 3 
0.479 -0.279 0.157 3 
0.461 0.299 0.144 3 
0.47 -0.255 0.154 3 
0.463 0.183 0.144 3 
0.471 -0.247 0.154 3 
0.463 0.167 0.183 3 
0.467 -0.205 0.152 3 
0.46 0.282 0.054 3 
0.468 -0.217 0.094 3 
0.466 -0.096 0.182 3 
0.464 -0.057 0.143 3 
0.461 -0.036 0.002 3 
0.459 0.202 0.044 3 
0.465 -0.049 0.143 3 
0.463 -0.036 0.143 3 
0.463 -0.245 0.074 3 
0.474 -0.296 0.124 3 
0.462 -0.017 0.142 3 
0.461 -0.006 0.142 3 
0.462 0.024 0.143 3 
0.464 0.033 0.143 3 
0.472 -0.315 0.064 3 
0.461 0.043 0.142 3 
0.464 0.112 0.176 3 
0.46 0.053 0.142 3 
0.465 0.114 0.144 3 
0.462 -0.086 0.034 3 
0.462 0.124 0.143 3 
0.46 0.134 0.143 3 
0.461 0.199 0.144 3 
0.465 0.154 0.183 3 
0.468 -0.345 0.064 3 
0.479 -0.295 0.164 3 
0.458 0.232 0.144 3 
0.456 0.236 0.144 3 
0.467 0.346 0.15 3 
