# .PCD v0.7 - Point Cloud Data file
FIELDS x y z intensity
SIZE 4 4 4 4
TYPE F F F F
COUNT 1 1 1 1
WIDTH 1968
HEIGHT 1
VIEWPOINT 0 0 0 1 0 0 0
POINTS 1968
DATA ascii
0.373 0.052 0.007 0 
0.35 -0.014 0.135 0 
0.539 0.098 0.081 0 
0.514 0.088 0.076 0 
0.373 -0.196 -0.023 1 
0.364 -0.126 -0.017 1 
0.36 -0.065 -0.015 1 
0.36 -0.062 -0.015 1 
0.36 -0.037 -0.015 1 
0.333 0 -0.005 1 
0.324 0.014 -0.001 1 
0.324 0.016 -0.001 1 
0.324 0.031 -0.001 1 
0.332 0.052 -0.005 1 
0.332 0.056 -0.005 1 
0.324 0.084 -0.002 1 
0.304 0.098 0.003 1 
0.274 0.094 0.014 1 
0.286 0.132 0.008 1 
0.295 0.147 0.004 1 
0.384 -0.25 -0.028 1 
0.382 -0.227 -0.026 1 
0.38 -0.223 -0.025 1 
0.373 -0.185 -0.021 1 
0.374 -0.18 -0.021 1 
0.372 -0.135 -0.019 1 
0.372 -0.125 -0.018 1 
0.364 -0.107 -0.015 1 
0.364 -0.087 -0.015 1 
0.362 -0.055 -0.014 1 
0.364 -0.045 -0.014 1 
0.363 -0.043 -0.014 1 
0.361 -0.025 -0.013 1 
0.337 0.001 -0.005 1 
0.333 0.004 -0.003 1 
0.33 0.034 -0.002 1 
0.331 0.073 -0.003 1 
0.322 0.094 -0.001 1 
0.271 0.116 0.015 1 
0.289 0.139 0.008 1 
0.393 -0.257 -0.029 1 
0.386 -0.229 -0.025 1 
0.381 -0.206 -0.022 1 
0.372 -0.115 -0.016 1 
0.374 -0.105 -0.017 1 
0.374 -0.097 -0.017 1 
0.369 -0.087 -0.015 1 
0.368 -0.085 -0.014 1 
0.368 -0.083 -0.014 1 
0.37 -0.058 -0.015 1 
0.37 -0.045 -0.015 1 
0.368 -0.035 -0.014 1 
0.369 -0.025 -0.014 1 
0.37 -0.021 -0.015 1 
0.332 0.013 -0.001 1 
0.334 0.018 -0.002 1 
0.34 0.041 -0.004 1 
0.342 0.044 -0.005 1 
0.297 0.095 0.009 1 
0.383 -0.196 -0.021 1 
0.381 -0.166 -0.019 1 
0.381 -0.155 -0.018 1 
0.382 -0.115 -0.018 1 
0.383 -0.105 -0.018 1 
0.382 -0.077 -0.017 1 
0.373 -0.066 -0.014 1 
0.375 -0.046 -0.014 1 
0.375 -0.038 -0.014 1 
0.37 -0.016 -0.013 1 
0.354 -0.001 -0.007 1 
0.346 0.023 -0.005 1 
0.343 0.032 -0.004 1 
0.345 0.035 -0.004 1 
0.344 0.063 -0.004 1 
0.344 0.064 -0.005 1 
0.313 0.096 0.004 1 
0.403 -0.277 -0.028 1 
0.394 -0.227 -0.023 1 
0.394 -0.215 -0.022 1 
0.393 -0.205 -0.022 1 
0.381 -0.096 -0.015 1 
0.383 -0.091 -0.016 1 
0.382 -0.067 -0.015 1 
0.382 -0.055 -0.015 1 
0.382 -0.045 -0.015 1 
0.379 -0.026 -0.014 1 
0.371 -0.003 -0.011 1 
0.352 0.033 -0.005 1 
0.352 0.044 -0.005 1 
0.351 0.053 -0.005 1 
0.352 0.064 -0.006 1 
0.344 0.074 -0.003 1 
0.343 0.084 -0.003 1 
0.405 -0.259 -0.026 1 
0.404 -0.255 -0.025 1 
0.382 -0.215 -0.023 1 
0.402 -0.225 -0.023 1 
0.394 -0.199 -0.02 1 
0.341 0.054 -0.005 1 
0.393 -0.187 -0.019 1 
0.392 -0.177 -0.019 1 
0.392 -0.165 -0.018 1 
0.394 -0.132 -0.018 1 
0.394 -0.121 -0.018 1 
0.393 -0.108 -0.017 1 
0.384 -0.097 -0.014 1 
0.393 -0.087 -0.017 1 
0.386 -0.056 -0.014 1 
0.386 -0.054 -0.014 1 
0.387 -0.029 -0.015 1 
0.383 -0.02 -0.014 1 
0.387 -0.011 -0.015 1 
0.359 -0.001 -0.006 1 
0.345 0.006 -0.001 1 
0.354 0.034 -0.004 1 
0.351 0.074 -0.004 1 
0.322 0.097 0.004 1 
0.292 0.092 0.014 1 
0.413 -0.288 -0.027 1 
0.408 -0.271 -0.025 1 
0.412 -0.248 -0.025 1 
0.402 -0.206 -0.02 1 
0.394 -0.14 -0.016 1 
0.394 -0.096 -0.015 1 
0.394 -0.075 -0.015 1 
0.393 -0.07 -0.015 1 
0.392 -0.066 -0.014 1 
0.394 -0.062 -0.015 1 
0.394 -0.046 -0.015 1 
0.392 -0.025 -0.014 1 
0.391 -0.015 -0.014 1 
0.375 -0.001 -0.009 1 
0.362 0.044 -0.005 1 
0.361 0.051 -0.005 1 
0.362 0.064 -0.005 1 
0.36 0.068 -0.005 1 
0.352 0.083 -0.002 1 
0.338 0.094 0.001 1 
0.326 0.095 0.004 1 
0.334 0.041 -0.004 1 
0.313 0.095 0.009 1 
0.415 -0.287 -0.025 1 
0.413 -0.282 -0.024 1 
0.414 -0.28 -0.025 1 
0.413 -0.265 -0.023 1 
0.413 -0.259 -0.023 1 
0.414 -0.236 -0.023 1 
0.414 -0.226 -0.022 1 
0.359 -0.006 -0.011 1 
0.411 -0.215 -0.021 1 
0.404 -0.186 -0.018 1 
0.404 -0.165 -0.018 1 
0.403 -0.146 -0.017 1 
0.403 -0.135 -0.017 1 
0.403 -0.126 -0.016 1 
0.279 0.122 0.011 1 
0.404 -0.122 -0.017 1 
0.398 -0.106 -0.015 1 
0.4 -0.077 -0.015 1 
0.399 -0.074 -0.015 1 
0.398 -0.066 -0.014 1 
0.398 -0.063 -0.014 1 
0.402 -0.056 -0.015 1 
0.4 -0.047 -0.015 1 
0.399 -0.045 -0.014 1 
0.399 -0.039 -0.014 1 
0.401 -0.035 -0.015 1 
0.39 -0.003 -0.012 1 
0.342 0.019 0.002 1 
0.359 0.024 -0.002 1 
0.367 0.052 -0.005 1 
0.361 0.074 -0.003 1 
0.325 0.095 0.006 1 
0.423 -0.299 -0.026 1 
0.421 -0.288 -0.024 1 
0.423 -0.267 -0.024 1 
0.423 -0.256 -0.023 1 
0.409 -0.185 -0.017 1 
0.394 -0.245 -0.026 1 
0.412 -0.117 -0.017 1 
0.404 -0.098 -0.014 1 
0.405 -0.094 -0.014 1 
0.408 -0.086 -0.015 1 
0.406 -0.068 -0.014 1 
0.407 -0.055 -0.015 1 
0.406 -0.046 -0.014 1 
0.407 -0.04 -0.015 1 
0.406 -0.025 -0.015 1 
0.401 -0.016 -0.013 1 
0.335 0.006 0.006 1 
0.329 0.019 0.008 1 
0.35 0.023 0.001 1 
0.374 0.041 -0.005 1 
0.373 0.063 -0.005 1 
0.368 0.073 -0.004 1 
0.363 0.084 -0.002 1 
0.303 0.092 0.014 1 
0.43 -0.307 -0.025 1 
0.424 -0.245 -0.021 1 
0.423 -0.236 -0.02 1 
0.421 -0.227 -0.019 1 
0.418 -0.217 -0.019 1 
0.413 -0.178 -0.016 1 
0.413 -0.166 -0.016 1 
0.414 -0.155 -0.016 1 
0.413 -0.138 -0.015 1 
0.414 -0.106 -0.015 1 
0.413 -0.099 -0.015 1 
0.414 -0.077 -0.015 1 
0.414 -0.07 -0.015 1 
0.414 -0.048 -0.015 1 
0.412 -0.025 -0.014 1 
0.374 0.032 -0.003 1 
0.376 0.034 -0.004 1 
0.383 0.043 -0.006 1 
0.377 0.076 -0.005 1 
0.372 0.084 -0.003 1 
0.439 -0.318 -0.025 1 
0.433 -0.304 -0.023 1 
0.432 -0.285 -0.022 1 
0.434 -0.278 -0.022 1 
0.422 -0.197 -0.017 1 
0.422 -0.177 -0.016 1 
0.422 -0.157 -0.016 1 
0.419 -0.146 -0.015 1 
0.418 -0.138 -0.014 1 
0.42 -0.125 -0.015 1 
0.42 -0.116 -0.015 1 
0.42 -0.109 -0.014 1 
0.422 -0.105 -0.015 1 
0.423 -0.096 -0.015 1 
0.422 -0.086 -0.015 1 
0.422 -0.079 -0.015 1 
0.42 -0.076 -0.014 1 
0.42 -0.072 -0.014 1 
0.422 -0.068 -0.015 1 
0.42 -0.056 -0.014 1 
0.42 -0.047 -0.014 1 
0.384 -0.188 -0.021 1 
0.39 -0.147 -0.017 1 
0.418 -0.035 -0.013 1 
0.322 0.022 0.013 1 
0.384 0.073 -0.005 1 
0.382 0.074 -0.004 1 
0.379 0.083 -0.003 1 
0.369 0.094 -0.001 1 
0.364 0.093 0 1 
0.353 0.097 0.003 1 
0.433 -0.257 -0.019 1 
0.433 -0.245 -0.018 1 
0.432 -0.225 -0.017 1 
0.432 -0.216 -0.017 1 
0.431 -0.207 -0.017 1 
0.427 -0.186 -0.015 1 
0.404 -0.247 -0.025 1 
0.428 -0.159 -0.015 1 
0.427 -0.151 -0.015 1 
0.424 -0.127 -0.014 1 
0.431 -0.106 -0.015 1 
0.43 -0.096 -0.015 1 
0.423 -0.026 -0.013 1 
0.421 -0.019 -0.012 1 
0.394 0.049 -0.005 1 
0.394 0.064 -0.005 1 
0.397 -0.24 -0.025 1 
0.393 0.072 -0.005 1 
0.391 0.073 -0.004 1 
0.444 -0.301 -0.02 1 
0.435 -0.186 -0.015 1 
0.435 -0.183 -0.015 1 
0.433 -0.18 -0.014 1 
0.434 -0.175 -0.015 1 
0.431 -0.158 -0.013 1 
0.434 -0.147 -0.014 1 
0.432 -0.136 -0.013 1 
0.424 -0.12 -0.011 1 
0.428 -0.115 -0.012 1 
0.433 -0.107 -0.013 1 
0.434 -0.097 -0.013 1 
0.434 -0.085 -0.013 1 
0.432 -0.075 -0.013 1 
0.43 -0.065 -0.012 1 
0.433 -0.046 -0.013 1 
0.434 -0.035 -0.013 1 
0.4 0.053 -0.005 1 
0.399 0.057 -0.004 1 
0.403 -0.216 -0.021 1 
0.393 0.084 -0.003 1 
0.363 0.098 0.004 1 
0.454 -0.325 -0.021 1 
0.452 -0.316 -0.02 1 
0.443 -0.275 -0.017 1 
0.44 -0.255 -0.015 1 
0.441 -0.236 -0.015 1 
0.443 -0.226 -0.015 1 
0.443 -0.216 -0.015 1 
0.443 -0.205 -0.015 1 
0.441 -0.201 -0.014 1 
0.442 -0.186 -0.014 1 
0.441 -0.177 -0.014 1 
0.434 -0.127 -0.011 1 
0.412 -0.103 -0.014 1 
0.438 -0.096 -0.012 1 
0.437 -0.086 -0.012 1 
0.439 -0.077 -0.012 1 
0.437 -0.057 -0.012 1 
0.439 -0.045 -0.012 1 
0.4 0.063 -0.005 1 
0.439 -0.035 -0.012 1 
0.441 -0.026 -0.013 1 
0.332 0.001 0.014 1 
0.408 0.063 -0.005 1 
0.408 0.065 -0.005 1 
0.404 0.114 -0.004 1 
0.368 0.099 0.004 1 
0.355 0.094 0.008 1 
0.454 -0.298 -0.017 1 
0.45 -0.285 -0.016 1 
0.446 -0.275 -0.015 1 
0.444 -0.255 -0.014 1 
0.444 -0.166 -0.012 1 
0.443 -0.155 -0.011 1 
0.444 -0.147 -0.012 1 
0.443 -0.144 -0.011 1 
0.443 -0.116 -0.011 1 
0.444 -0.109 -0.011 1 
0.444 -0.066 -0.011 1 
0.331 0.004 0.016 1 
0.415 0.063 -0.004 1 
0.418 0.07 -0.005 1 
0.407 0.083 -0.002 1 
0.456 -0.307 -0.015 1 
0.455 -0.296 -0.015 1 
0.452 -0.275 -0.013 1 
0.453 -0.226 -0.012 1 
0.454 -0.216 -0.013 1 
0.451 -0.175 -0.011 1 
0.454 -0.153 -0.011 1 
0.452 -0.107 -0.011 1 
0.454 -0.097 -0.011 1 
0.452 -0.086 -0.01 1 
0.451 -0.055 -0.01 1 
0.406 0.063 0 1 
0.41 0.068 -0.001 1 
0.383 0.1 0.004 1 
0.462 -0.316 -0.014 1 
0.461 -0.309 -0.014 1 
0.454 -0.261 -0.011 1 
0.454 -0.247 -0.01 1 
0.454 -0.238 -0.01 1 
0.454 -0.205 -0.01 1 
0.454 -0.196 -0.01 1 
0.454 -0.193 -0.009 1 
0.454 -0.155 -0.009 1 
0.453 -0.125 -0.008 1 
0.454 -0.12 -0.009 1 
0.404 -0.237 -0.024 1 
0.359 -0.006 0.013 1 
0.357 -0.002 0.013 1 
0.395 0.095 0.004 1 
0.391 0.098 0.004 1 
0.464 -0.339 -0.012 1 
0.464 -0.296 -0.011 1 
0.464 -0.286 -0.011 1 
0.464 -0.267 -0.01 1 
0.463 -0.257 -0.01 1 
0.461 -0.247 -0.009 1 
0.46 -0.226 -0.009 1 
0.46 -0.215 -0.008 1 
0.464 -0.147 -0.008 1 
0.381 -0.147 -0.018 1 
0.462 -0.086 -0.007 1 
0.462 -0.075 -0.007 1 
0.381 -0.005 0.009 1 
0.367 0.004 0.013 1 
0.374 -0.006 -0.012 1 
0.365 0.005 0.013 1 
0.423 0.083 0 1 
0.401 0.091 0.004 1 
0.396 0.093 0.005 1 
0.393 0.099 0.006 1 
0.471 -0.336 -0.011 1 
0.471 -0.326 -0.01 1 
0.364 -0.083 -0.015 1 
0.47 -0.315 -0.01 1 
0.464 -0.197 -0.006 1 
0.464 -0.189 -0.006 1 
0.465 -0.186 -0.006 1 
0.466 -0.176 -0.006 1 
0.466 -0.173 -0.006 1 
0.464 -0.166 -0.006 1 
0.464 -0.16 -0.006 1 
0.466 -0.145 -0.006 1 
0.466 -0.136 -0.006 1 
0.465 -0.131 -0.006 1 
0.464 -0.127 -0.005 1 
0.465 -0.109 -0.006 1 
0.465 -0.095 -0.005 1 
0.466 -0.085 -0.006 1 
0.465 -0.068 -0.005 1 
0.382 -0.235 -0.028 1 
0.463 -0.057 -0.005 1 
0.462 -0.051 -0.005 1 
0.461 -0.036 -0.005 1 
0.463 -0.031 -0.005 1 
0.466 -0.025 -0.006 1 
0.469 -0.015 -0.006 1 
0.381 -0.001 0.011 1 
0.475 -0.015 -0.013 1 
0.399 -0.098 -0.015 1 
0.473 -0.356 -0.009 1 
0.473 -0.349 -0.009 1 
0.452 -0.045 -0.01 1 
0.474 -0.309 -0.008 1 
0.474 -0.286 -0.007 1 
0.473 -0.275 -0.007 1 
0.473 -0.266 -0.006 1 
0.471 -0.246 -0.006 1 
0.47 -0.236 -0.005 1 
0.47 -0.225 -0.005 1 
0.47 -0.216 -0.005 1 
0.47 -0.207 -0.005 1 
0.469 -0.198 -0.005 1 
0.404 -0.195 -0.018 1 
0.463 -0.157 -0.003 1 
0.382 -0.005 -0.013 1 
0.381 0.012 0.013 1 
0.476 -0.356 -0.006 1 
0.479 -0.345 -0.007 1 
0.48 -0.335 -0.006 1 
0.481 -0.326 -0.006 1 
0.48 -0.318 -0.006 1 
0.479 -0.307 -0.006 1 
0.478 -0.296 -0.005 1 
0.476 -0.288 -0.005 1 
0.399 0.004 0.012 1 
0.392 -0.005 -0.012 1 
0.393 0.012 0.013 1 
0.478 -0.358 -0.004 1 
0.484 -0.336 -0.004 1 
0.474 -0.207 0 1 
0.414 -0.134 -0.015 1 
0.463 -0.004 0.002 1 
0.453 -0.001 0.004 1 
0.423 0 0.009 1 
0.406 0.004 0.013 1 
0.414 -0.014 -0.012 1 
0.406 0.011 0.013 1 
0.404 -0.012 -0.012 1 
0.403 0.013 0.013 1 
0.405 0.015 0.013 1 
0.36 -0.016 -0.015 1 
0.372 -0.075 -0.016 1 
0.379 0.042 -0.001 1 
0.475 -0.24 0.001 1 
0.475 -0.204 0.002 1 
0.473 -0.197 0.002 1 
0.471 -0.187 0.003 1 
0.469 -0.155 0.003 1 
0.47 -0.147 0.003 1 
0.373 -0.205 -0.024 1 
0.471 -0.136 0.003 1 
0.468 -0.007 0.004 1 
0.465 -0.001 0.004 1 
0.447 0.003 0.007 1 
0.46 -0.175 -0.008 1 
0.37 -0.037 -0.015 1 
0.482 -0.309 0.002 1 
0.353 -0.001 0.014 1 
0.478 -0.286 0.003 1 
0.477 -0.275 0.003 1 
0.473 -0.247 0.004 1 
0.473 -0.236 0.004 1 
0.474 -0.227 0.004 1 
0.474 -0.218 0.004 1 
0.475 -0.216 0.004 1 
0.491 0 0.003 1 
0.375 -0.023 -0.015 1 
0.485 -0.337 0.004 1 
0.486 -0.331 0.004 1 
0.484 -0.325 0.004 1 
0.475 -0.222 0.007 1 
0.465 -0.004 0.01 1 
0.434 0.01 0.015 1 
0.406 -0.023 -0.015 1 
0.464 -0.012 0.012 1 
0.397 -0.156 -0.017 1 
0.465 -0.007 0.012 1 
0.463 0.003 0.013 1 
0.462 -0.012 -0.005 1 
0.455 0.011 0.014 1 
0.452 -0.065 -0.01 1 
0.382 -0.028 -0.015 1 
0.484 -0.35 -0.001 1 
0.285 0.096 0.012 1 
0.442 -0.019 -0.015 1 
0.449 -0.016 -0.017 1 
0.485 -0.323 0.001 1 
0.417 0.088 0.001 1 
0.403 -0.088 -0.016 1 
0.441 -0.267 -0.016 1 
0.473 -0.018 -0.015 1 
0.444 -0.32 -0.021 1 
0.485 -0.347 0.004 1 
0.453 -0.136 -0.011 1 
0.441 -0.247 -0.015 1 
0.469 -0.127 0.003 1 
0.393 0.094 0.002 1 
0.404 0.073 -0.004 1 
0.474 -0.267 -0.004 1 
0.344 0.066 -0.005 1 
0.392 -0.235 -0.025 1 
0.334 0.064 -0.004 1 
0.423 -0.206 -0.017 1 
0.45 -0.307 -0.019 1 
0.381 -0.036 -0.015 1 
0.409 -0.197 -0.018 1 
0.414 -0.037 -0.014 1 
0.414 -0.017 -0.012 1 
0.328 0.025 0.011 1 
0.463 -0.165 -0.003 1 
0.466 -0.076 -0.006 1 
0.371 -0.065 -0.015 1 
0.419 -0.277 -0.023 1 
0.463 -0.327 -0.015 1 
0.442 -0.196 -0.015 1 
0.354 -0.006 -0.011 1 
0.454 -0.022 -0.013 1 
0.463 -0.116 -0.005 1 
0.383 -0.128 -0.018 1 
0.432 -0.236 -0.018 1 
0.475 -0.225 0.004 1 
0.36 0.045 -0.004 1 
0.41 -0.254 -0.024 1 
0.427 -0.165 -0.015 1 
0.339 0.003 0.016 1 
0.466 -0.007 -0.006 1 
0.473 0.009 0.008 1 
0.432 -0.267 -0.021 1 
0.506 0.022 0.015 1 
0.294 0.148 0.005 1 
0.414 -0.146 -0.016 1 
0.335 0.014 0.004 1 
0.302 0.158 0.001 1 
0.464 -0.065 -0.005 1 
0.474 -0.299 -0.007 1 
0.427 0.08 0.001 1 
0.357 0.007 0.015 1 
0.415 -0.046 -0.015 1 
0.369 -0.046 -0.014 1 
0.449 -0.266 -0.012 1 
0.347 0.094 0.001 1 
0.421 -0.167 -0.016 1 
0.319 0.095 0.008 1 
0.403 0.053 -0.003 1 
0.462 -0.337 -0.015 1 
0.419 -0.137 -0.015 1 
0.48 -0.298 0.002 1 
0.454 -0.03 -0.011 1 
0.441 -0.285 -0.019 1 
0.403 -0.176 -0.018 1 
0.454 -0.035 -0.008 1 
0.394 -0.042 -0.015 1 
0.454 -0.286 -0.014 1 
0.361 0.033 -0.005 1 
0.439 -0.023 -0.012 1 
0.464 -0.106 -0.005 1 
0.391 -0.156 -0.018 1 
0.36 -0.096 -0.015 1 
0.383 -0.176 -0.02 1 
0.466 -0.156 -0.006 1 
0.372 0.099 0.005 1 
0.457 -0.318 -0.016 1 
0.452 -0.075 -0.01 1 
0.27 0.114 0.016 1 
0.374 -0.059 -0.014 1 
0.413 -0.205 -0.019 1 
0.428 -0.025 -0.012 1 
0.422 -0.19 -0.017 1 
0.364 -0.015 -0.013 1 
0.443 -0.126 -0.011 1 
0.44 -0.306 -0.022 1 
0.372 0.039 -0.004 1 
0.404 -0.272 -0.026 1 
0.431 -0.056 -0.012 1 
0.332 0.094 0.004 1 
0.373 -0.158 -0.02 1 
0.448 0.013 0.017 1 
0.284 0.092 0.014 1 
0.384 0.053 -0.006 1 
0.333 0.084 -0.003 1 
0.411 0.091 0.002 1 
0.416 -0.012 -0.013 1 
0.437 -0.312 -0.025 1 
0.361 -0.115 -0.016 1 
0.281 0.131 0.012 1 
0.431 -0.165 -0.014 1 
0.352 -0.017 -0.012 1 
0.331 0.054 -0.004 1 
0.472 -0.256 -0.006 1 
0.379 0.063 -0.005 1 
0.378 0.094 0 1 
0.282 0.095 0.013 1 
0.38 -0.064 -0.014 1 
0.463 -0.097 -0.008 1 
0.391 -0.101 -0.014 1 
0.43 -0.198 -0.016 1 
0.354 0.068 -0.005 1 
0.483 -0.317 0.004 1 
0.423 0.074 0 1 
0.463 -0.057 -0.002 1 
0.464 -0.206 -0.006 1 
0.454 -0.166 -0.009 1 
0.372 -0.147 -0.019 1 
0.463 -0.276 -0.01 1 
0.422 -0.061 -0.015 1 
0.4 -0.026 -0.015 1 
0.474 -0.257 0.004 1 
0.404 0.084 -0.002 1 
0.428 -0.02 -0.012 1 
0.364 0.028 0 1 
0.461 -0.235 -0.009 1 
0.349 0 -0.001 1 
0.374 -0.165 -0.02 1 
0.384 -0.141 -0.017 1 
0.476 -0.246 0.001 1 
0.372 0.065 -0.005 1 
0.463 -0.135 -0.008 1 
0.343 0.095 0.002 1 
0.475 -0.213 0.004 1 
0.34 0 0.004 1 
0.317 0.043 0.032 2 
0.429 0.024 0.007 2 
0.315 0.031 0.027 2 
0.511 0.044 0.011 2 
0.311 0.035 0.03 2 
0.319 0.023 0.038 2 
0.392 0.02 0.023 2 
0.323 0.014 0.021 2 
0.353 0.085 0.017 2 
0.523 0.048 0.03 2 
0.528 0.062 0.035 2 
0.529 0.052 0.033 2 
0.502 0.042 0.02 2 
0.494 0.033 0.009 2 
0.514 0.041 0.013 2 
0.509 0.046 0.038 2 
0.325 0.028 0.048 2 
0.501 0.045 0.026 2 
0.506 0.046 0.023 2 
0.502 0.042 0.008 2 
0.526 0.068 0.052 2 
0.52 0.057 0.049 2 
0.498 0.051 0.05 2 
0.5 0.048 0.044 2 
0.334 0.013 0.025 2 
0.526 0.062 0.048 2 
0.508 0.052 0.047 2 
0.527 0.059 0.043 2 
0.532 0.066 0.042 2 
0.527 0.052 0.04 2 
0.521 0.054 0.037 2 
0.523 0.055 0.043 2 
0.357 0.017 0.023 2 
0.337 0.015 0.026 2 
0.321 0.054 0.031 2 
0.384 0.018 0.022 2 
0.392 0.014 0.021 2 
0.353 0.02 0.029 2 
0.325 0.051 0.03 2 
0.339 0.043 0.024 2 
0.311 0.034 0.025 2 
0.341 0.086 0.018 2 
0.331 0.016 0.029 2 
0.337 0.012 0.024 2 
0.348 0.003 0.03 2 
0.346 0.019 0.032 2 
0.339 0.062 0.025 2 
0.32 0.018 0.03 2 
0.317 0.024 0.041 2 
0.425 0.028 0.01 2 
0.438 0.02 0.005 2 
0.397 0.023 0.028 2 
0.314 0.024 0.038 2 
0.409 0.024 0.024 2 
0.399 0.013 0.024 2 
0.327 0.022 0.039 2 
0.424 0.028 0.007 2 
0.418 0.02 0.006 2 
0.347 0.005 0.024 2 
0.27 0.049 0.054 2 
0.343 0.041 0.02 2 
0.504 0.061 0.058 2 
0.312 0.055 0.032 2 
0.314 0.051 0.073 2 
0.316 0.028 0.05 2 
0.469 -0.066 0.142 3 
0.485 -0.297 0.154 3 
0.265 0.066 0.044 3 
0.269 0.075 0.087 3 
0.268 0.073 0.087 3 
0.463 0.003 0.14 3 
0.484 -0.306 0.133 3 
0.468 -0.047 0.142 3 
0.265 0.065 0.045 3 
0.468 -0.055 0.142 3 
0.475 -0.135 0.144 3 
0.465 0.017 0.1 3 
0.47 -0.075 0.142 3 
0.474 -0.087 0.144 3 
0.471 -0.105 0.143 3 
0.473 -0.115 0.144 3 
0.475 -0.121 0.144 3 
0.475 -0.127 0.144 3 
0.473 -0.146 0.144 3 
0.462 0.043 0.143 3 
0.459 0.134 0.142 3 
0.461 0.124 0.143 3 
0.46 0.112 0.142 3 
0.459 0.104 0.142 3 
0.461 0.094 0.143 3 
0.461 0.083 0.143 3 
0.461 0.072 0.142 3 
0.464 -0.006 0.09 3 
0.462 0.064 0.143 3 
0.462 0.054 0.143 3 
0.482 -0.285 0.152 3 
0.462 0.032 0.143 3 
0.463 0.022 0.143 3 
0.464 0.011 0.143 3 
0.471 -0.187 0.014 3 
0.465 0.003 0.143 3 
0.466 -0.006 0.143 3 
0.467 -0.015 0.144 3 
0.467 -0.025 0.144 3 
0.482 -0.278 0.152 3 
0.483 -0.288 0.144 3 
0.266 0.072 0.084 3 
0.459 0.142 0.134 3 
0.459 0.131 0.134 3 
0.46 0.104 0.134 3 
0.461 0.083 0.134 3 
0.461 0.072 0.134 3 
0.481 -0.248 0.142 3 
0.48 -0.257 0.142 3 
0.479 -0.266 0.142 3 
0.479 -0.275 0.143 3 
0.479 -0.241 0.144 3 
0.473 -0.206 0.013 3 
0.484 -0.296 0.144 3 
0.459 0.152 0.132 3 
0.461 0.123 0.132 3 
0.467 -0.096 0.012 3 
0.462 0.113 0.132 3 
0.461 0.094 0.132 3 
0.463 0.062 0.132 3 
0.464 0.054 0.132 3 
0.464 -0.006 0.138 3 
0.472 -0.157 0.144 3 
0.473 -0.166 0.144 3 
0.474 -0.187 0.145 3 
0.485 -0.294 0.151 3 
0.487 -0.306 0.151 3 
0.49 -0.319 0.153 3 
0.489 -0.325 0.153 3 
0.49 -0.337 0.153 3 
0.275 0.074 0.088 3 
0.461 0.143 0.143 3 
0.474 -0.126 0.141 3 
0.474 -0.178 0.142 3 
0.474 -0.187 0.142 3 
0.475 -0.19 0.143 3 
0.477 -0.197 0.143 3 
0.474 -0.165 0.094 3 
0.477 -0.206 0.143 3 
0.477 -0.215 0.143 3 
0.477 -0.227 0.144 3 
0.466 0.041 0.152 3 
0.48 -0.217 0.162 3 
0.481 -0.227 0.162 3 
0.482 -0.237 0.163 3 
0.482 -0.246 0.163 3 
0.245 0.074 0.084 3 
0.48 -0.257 0.163 3 
0.295 0.046 0.064 3 
0.481 -0.265 0.163 3 
0.483 -0.276 0.164 3 
0.461 0.176 0.152 3 
0.465 0.033 0.154 3 
0.465 0.022 0.152 3 
0.467 0.014 0.152 3 
0.468 0.003 0.153 3 
0.466 -0.006 0.152 3 
0.467 -0.015 0.152 3 
0.467 -0.025 0.152 3 
0.471 -0.045 0.153 3 
0.471 -0.056 0.153 3 
0.471 -0.067 0.154 3 
0.463 0.114 0.154 3 
0.491 -0.335 0.172 3 
0.275 0.083 0.094 3 
0.473 -0.087 0.154 3 
0.461 0.173 0.154 3 
0.462 0.157 0.154 3 
0.461 0.151 0.154 3 
0.46 0.142 0.154 3 
0.462 0.132 0.154 3 
0.462 0.124 0.154 3 
0.478 -0.225 0.153 3 
0.471 -0.075 0.154 3 
0.462 0.102 0.154 3 
0.463 0.094 0.154 3 
0.464 0.081 0.154 3 
0.465 0.079 0.154 3 
0.463 0.073 0.154 3 
0.462 0.062 0.153 3 
0.466 -0.047 0.034 3 
0.461 0.054 0.153 3 
0.464 0.043 0.154 3 
0.478 -0.207 0.152 3 
0.474 -0.175 0.153 3 
0.476 -0.188 0.154 3 
0.485 -0.294 0.16 3 
0.49 -0.326 0.162 3 
0.491 -0.338 0.163 3 
0.466 -0.015 0.103 3 
0.46 0.045 0.052 3 
0.476 -0.136 0.15 3 
0.475 -0.184 0.151 3 
0.476 -0.197 0.152 3 
0.479 -0.265 0.104 3 
0.48 -0.235 0.153 3 
0.473 -0.265 0.01 3 
0.479 -0.256 0.154 3 
0.479 -0.266 0.154 3 
0.255 0.067 0.084 3 
0.255 0.066 0.054 3 
0.458 0.166 0.143 3 
0.46 0.164 0.143 3 
0.462 0.154 0.144 3 
0.488 -0.317 0.164 3 
0.473 -0.095 0.154 3 
0.474 -0.115 0.155 3 
0.474 -0.126 0.155 3 
0.474 -0.135 0.155 3 
0.474 -0.164 0.156 3 
0.474 -0.178 0.156 3 
0.483 -0.286 0.162 3 
0.485 -0.298 0.163 3 
0.48 -0.307 0.014 3 
0.487 -0.306 0.164 3 
0.465 0.041 0.133 3 
0.464 0.022 0.149 3 
0.473 -0.106 0.152 3 
0.474 -0.115 0.152 3 
0.475 -0.127 0.153 3 
0.474 -0.132 0.153 3 
0.474 -0.135 0.153 3 
0.473 -0.146 0.152 3 
0.473 -0.157 0.153 3 
0.473 -0.166 0.153 3 
0.277 0.064 0.08 3 
0.475 -0.186 0.122 3 
0.475 -0.195 0.123 3 
0.475 -0.207 0.123 3 
0.476 -0.217 0.123 3 
0.477 -0.226 0.124 3 
0.479 -0.237 0.124 3 
0.479 -0.246 0.124 3 
0.477 -0.257 0.124 3 
0.477 -0.267 0.124 3 
0.477 -0.257 0.044 3 
0.475 -0.213 0.103 3 
0.48 -0.285 0.122 3 
0.482 -0.297 0.123 3 
0.484 -0.305 0.124 3 
0.485 -0.327 0.124 3 
0.251 0.064 0.074 3 
0.262 0.064 0.076 3 
0.469 -0.126 0.014 3 
0.265 0.064 0.076 3 
0.459 0.125 0.113 3 
0.47 -0.116 0.123 3 
0.467 -0.025 0.122 3 
0.468 -0.036 0.122 3 
0.468 -0.047 0.123 3 
0.469 -0.055 0.123 3 
0.47 -0.066 0.123 3 
0.47 -0.075 0.123 3 
0.47 -0.086 0.123 3 
0.469 -0.096 0.123 3 
0.479 -0.287 0.093 3 
0.469 -0.105 0.123 3 
0.459 0.122 0.113 3 
0.47 -0.127 0.124 3 
0.471 -0.136 0.124 3 
0.473 -0.145 0.124 3 
0.245 0.07 0.074 3 
0.252 0.064 0.076 3 
0.301 0.077 0.086 3 
0.473 -0.157 0.122 3 
0.473 -0.165 0.122 3 
0.475 -0.178 0.122 3 
0.468 -0.077 0.112 3 
0.474 -0.189 0.117 3 
0.484 -0.316 0.121 3 
0.484 -0.326 0.121 3 
0.487 -0.347 0.122 3 
0.255 0.065 0.074 3 
0.297 0.068 0.081 3 
0.316 0.077 0.085 3 
0.465 0.011 0.111 3 
0.469 -0.055 0.112 3 
0.469 -0.066 0.112 3 
0.474 -0.177 0.117 3 
0.468 -0.085 0.112 3 
0.468 -0.066 0.033 3 
0.47 -0.097 0.112 3 
0.472 -0.106 0.113 3 
0.471 -0.116 0.113 3 
0.471 -0.125 0.113 3 
0.471 -0.136 0.113 3 
0.474 -0.186 0.114 3 
0.472 -0.145 0.113 3 
0.464 -0.055 0.012 3 
0.459 0.114 0.113 3 
0.459 0.103 0.113 3 
0.459 0.093 0.113 3 
0.461 0.083 0.113 3 
0.462 0.072 0.113 3 
0.461 0.053 0.113 3 
0.46 0.043 0.113 3 
0.471 -0.175 0.063 3 
0.461 0.032 0.113 3 
0.463 0.024 0.113 3 
0.467 -0.015 0.122 3 
0.464 0.014 0.113 3 
0.464 0.003 0.113 3 
0.465 0.001 0.114 3 
0.461 0.053 0.063 3 
0.466 -0.006 0.114 3 
0.467 -0.015 0.114 3 
0.466 -0.025 0.114 3 
0.466 -0.036 0.114 3 
0.468 -0.047 0.114 3 
0.475 -0.175 0.134 3 
0.285 0.075 0.087 3 
0.472 -0.086 0.132 3 
0.471 -0.116 0.132 3 
0.472 -0.125 0.132 3 
0.481 -0.315 0.034 3 
0.473 -0.137 0.133 3 
0.474 -0.146 0.133 3 
0.474 -0.155 0.133 3 
0.474 -0.166 0.133 3 
0.475 -0.17 0.134 3 
0.489 -0.328 0.144 3 
0.476 -0.187 0.134 3 
0.476 -0.196 0.134 3 
0.476 -0.205 0.134 3 
0.466 0.014 0.092 3 
0.475 -0.21 0.052 3 
0.465 0.014 0.127 3 
0.476 -0.217 0.132 3 
0.477 -0.227 0.132 3 
0.479 -0.237 0.133 3 
0.466 -0.036 0.133 3 
0.485 -0.323 0.103 3 
0.463 0.033 0.132 3 
0.463 0.022 0.132 3 
0.464 0.014 0.132 3 
0.464 0.003 0.132 3 
0.465 -0.001 0.132 3 
0.466 -0.006 0.133 3 
0.474 -0.215 0.064 3 
0.467 -0.015 0.133 3 
0.468 -0.025 0.133 3 
0.478 -0.246 0.133 3 
0.469 -0.047 0.134 3 
0.469 -0.055 0.134 3 
0.468 -0.066 0.133 3 
0.47 -0.075 0.134 3 
0.47 -0.097 0.134 3 
0.475 -0.178 0.137 3 
0.485 -0.297 0.142 3 
0.487 -0.309 0.142 3 
0.487 -0.316 0.143 3 
0.483 -0.288 0.132 3 
0.462 0.043 0.124 3 
0.462 0.032 0.124 3 
0.462 0.024 0.124 3 
0.464 0.003 0.124 3 
0.465 -0.001 0.124 3 
0.486 -0.338 0.122 3 
0.465 -0.076 0.012 3 
0.317 0.066 0.025 3 
0.475 -0.146 0.128 3 
0.475 -0.158 0.128 3 
0.463 0.054 0.124 3 
0.484 -0.296 0.132 3 
0.485 -0.313 0.133 3 
0.307 0.088 0.028 3 
0.486 -0.318 0.133 3 
0.488 -0.327 0.134 3 
0.488 -0.337 0.134 3 
0.289 0.072 0.084 3 
0.465 -0.006 0.122 3 
0.275 0.067 0.082 3 
0.477 -0.257 0.133 3 
0.478 -0.268 0.133 3 
0.484 -0.349 0.061 3 
0.472 -0.167 0.044 3 
0.48 -0.276 0.134 3 
0.489 -0.346 0.138 3 
0.234 0.079 0.074 3 
0.235 0.078 0.074 3 
0.237 0.074 0.074 3 
0.464 0.043 0.132 3 
0.457 0.14 0.123 3 
0.465 -0.068 0.023 3 
0.459 0.133 0.124 3 
0.461 0.123 0.124 3 
0.461 0.112 0.124 3 
0.461 0.104 0.124 3 
0.461 0.094 0.124 3 
0.461 0.083 0.124 3 
0.462 0.064 0.124 3 
0.47 0.08 0.178 3 
0.485 -0.253 0.191 3 
0.485 -0.256 0.191 3 
0.487 -0.267 0.193 3 
0.485 -0.336 0.073 3 
0.487 -0.277 0.193 3 
0.488 -0.285 0.194 3 
0.474 -0.236 0.013 3 
0.464 0.171 0.178 3 
0.464 0.109 0.176 3 
0.463 0.103 0.176 3 
0.477 -0.102 0.184 3 
0.465 0.052 0.176 3 
0.46 0.046 0.174 3 
0.472 -0.029 0.179 3 
0.468 -0.042 0.174 3 
0.469 -0.037 0.178 3 
0.465 -0.047 0.176 3 
0.468 -0.055 0.063 3 
0.463 -0.049 0.175 3 
0.476 -0.156 0.174 3 
0.474 -0.14 0.144 3 
0.484 -0.247 0.194 3 
0.496 -0.327 0.202 3 
0.476 0.217 0.187 3 
0.466 0.207 0.182 3 
0.468 0.202 0.183 3 
0.467 0.193 0.182 3 
0.466 0.183 0.182 3 
0.467 0.172 0.182 3 
0.474 -0.167 0.173 3 
0.479 -0.091 0.182 3 
0.464 0.117 0.179 3 
0.466 0.066 0.179 3 
0.464 0.063 0.179 3 
0.474 -0.175 0.128 3 
0.466 0.06 0.179 3 
0.463 0.054 0.178 3 
0.479 -0.094 0.185 3 
0.463 0.103 0.173 3 
0.283 0.098 0.105 3 
0.464 0.182 0.175 3 
0.465 0.142 0.174 3 
0.465 0.128 0.174 3 
0.481 -0.245 0.154 3 
0.466 0.118 0.174 3 
0.473 -0.095 0.143 3 
0.466 0.112 0.174 3 
0.463 0.106 0.173 3 
0.285 0.044 0.044 3 
0.477 -0.021 0.172 3 
0.464 0.092 0.173 3 
0.466 0.09 0.174 3 
0.467 0.074 0.174 3 
0.464 0.065 0.173 3 
0.464 0.063 0.173 3 
0.478 -0.306 0.064 3 
0.465 0.052 0.173 3 
0.47 -0.056 0.175 3 
0.474 -0.164 0.179 3 
0.478 -0.178 0.183 3 
0.478 -0.105 0.182 3 
0.473 -0.165 0.102 3 
0.479 -0.117 0.182 3 
0.257 0.074 0.044 3 
0.478 -0.125 0.182 3 
0.478 -0.137 0.182 3 
0.478 -0.146 0.183 3 
0.477 -0.157 0.183 3 
0.475 -0.165 0.182 3 
0.474 -0.167 0.182 3 
0.484 -0.237 0.194 3 
0.48 -0.185 0.184 3 
0.484 -0.255 0.188 3 
0.468 -0.077 0.074 3 
0.489 -0.296 0.192 3 
0.474 -0.206 0.044 3 
0.491 -0.308 0.193 3 
0.256 0.079 0.094 3 
0.287 0.103 0.106 3 
0.48 -0.126 0.192 3 
0.462 0.064 0.113 3 
0.47 0.122 0.187 3 
0.467 0.113 0.186 3 
0.491 -0.089 0.196 3 
0.495 -0.093 0.197 3 
0.488 -0.094 0.194 3 
0.464 0.003 0.074 3 
0.484 -0.096 0.193 3 
0.482 -0.107 0.192 3 
0.481 -0.115 0.192 3 
0.469 0.133 0.187 3 
0.469 -0.036 0.153 3 
0.481 -0.136 0.192 3 
0.464 0.033 0.149 3 
0.458 0.092 0.102 3 
0.484 -0.315 0.103 3 
0.482 -0.145 0.193 3 
0.483 -0.157 0.194 3 
0.481 -0.165 0.193 3 
0.467 -0.066 0.074 3 
0.468 0.211 0.189 3 
0.232 0.078 0.088 3 
0.496 -0.324 0.202 3 
0.235 0.079 0.089 3 
0.245 0.079 0.093 3 
0.25 0.08 0.095 3 
0.257 0.084 0.098 3 
0.469 -0.085 0.074 3 
0.26 0.085 0.099 3 
0.473 0.218 0.191 3 
0.468 -0.036 0.144 3 
0.48 -0.176 0.193 3 
0.48 -0.297 0.023 3 
0.469 0.203 0.189 3 
0.467 0.193 0.188 3 
0.467 0.184 0.188 3 
0.468 0.173 0.188 3 
0.285 0.072 0.034 3 
0.469 0.162 0.188 3 
0.469 0.154 0.188 3 
0.469 0.142 0.187 3 
0.469 0.122 0.184 3 
0.494 -0.325 0.204 3 
0.495 -0.33 0.205 3 
0.265 0.087 0.101 3 
0.473 -0.185 0.044 3 
0.467 0.164 0.184 3 
0.467 0.15 0.184 3 
0.469 0.144 0.184 3 
0.267 0.083 0.096 3 
0.468 0.13 0.184 3 
0.479 -0.275 0.122 3 
0.492 -0.316 0.203 3 
0.468 -0.107 0.134 3 
0.467 0.113 0.183 3 
0.473 -0.093 0.185 3 
0.485 -0.191 0.192 3 
0.484 -0.197 0.192 3 
0.484 -0.206 0.193 3 
0.484 -0.215 0.193 3 
0.485 -0.219 0.193 3 
0.484 -0.225 0.193 3 
0.475 -0.118 0.153 3 
0.482 -0.187 0.194 3 
0.483 -0.19 0.195 3 
0.484 -0.197 0.195 3 
0.483 -0.205 0.195 3 
0.484 -0.218 0.196 3 
0.485 -0.222 0.196 3 
0.485 -0.225 0.197 3 
0.465 0.003 0.052 3 
0.487 -0.236 0.198 3 
0.484 -0.237 0.197 3 
0.476 -0.225 0.044 3 
0.486 -0.245 0.198 3 
0.484 -0.247 0.197 3 
0.488 -0.256 0.199 3 
0.49 -0.267 0.2 3 
0.49 -0.277 0.2 3 
0.491 -0.288 0.201 3 
0.491 -0.298 0.202 3 
0.472 -0.176 0.052 3 
0.491 -0.308 0.202 3 
0.465 0.046 0.162 3 
0.465 0.112 0.163 3 
0.48 -0.317 0.014 3 
0.466 0.104 0.163 3 
0.464 0.098 0.163 3 
0.465 0.093 0.163 3 
0.465 0.084 0.163 3 
0.466 0.074 0.163 3 
0.463 0.07 0.162 3 
0.461 0.064 0.161 3 
0.463 0.054 0.162 3 
0.464 0.114 0.163 3 
0.465 0.044 0.162 3 
0.464 0.041 0.162 3 
0.466 0.033 0.163 3 
0.484 -0.328 0.079 3 
0.467 -0.006 0.163 3 
0.467 -0.015 0.163 3 
0.469 -0.026 0.164 3 
0.47 -0.037 0.164 3 
0.485 -0.317 0.124 3 
0.494 -0.335 0.183 3 
0.48 -0.218 0.174 3 
0.474 -0.166 0.156 3 
0.478 -0.216 0.152 3 
0.481 -0.243 0.174 3 
0.464 0.014 0.124 3 
0.48 -0.245 0.174 3 
0.474 -0.206 0.078 3 
0.484 -0.281 0.177 3 
0.491 -0.325 0.181 3 
0.478 -0.296 0.064 3 
0.47 -0.045 0.164 3 
0.248 0.074 0.088 3 
0.46 0.185 0.163 3 
0.461 0.183 0.163 3 
0.461 0.174 0.163 3 
0.464 0.164 0.163 3 
0.463 0.152 0.163 3 
0.463 0.144 0.163 3 
0.463 0.133 0.163 3 
0.463 0.122 0.162 3 
0.275 0.071 0.038 3 
0.488 -0.308 0.173 3 
0.489 -0.315 0.174 3 
0.49 -0.345 0.176 3 
0.24 0.074 0.084 3 
0.464 0.084 0.157 3 
0.474 -0.095 0.16 3 
0.474 -0.107 0.161 3 
0.475 -0.135 0.161 3 
0.471 -0.147 0.083 3 
0.487 -0.296 0.172 3 
0.476 -0.147 0.162 3 
0.477 -0.157 0.162 3 
0.476 -0.165 0.162 3 
0.476 -0.176 0.163 3 
0.477 -0.186 0.163 3 
0.478 -0.195 0.164 3 
0.479 -0.205 0.164 3 
0.484 -0.287 0.168 3 
0.491 -0.328 0.172 3 
0.467 0.014 0.16 3 
0.47 -0.056 0.164 3 
0.483 -0.226 0.172 3 
0.461 0.064 0.092 3 
0.475 -0.24 0.013 3 
0.48 -0.255 0.172 3 
0.482 -0.266 0.173 3 
0.483 -0.276 0.173 3 
0.485 -0.285 0.174 3 
0.468 0.022 0.161 3 
0.475 -0.127 0.161 3 
0.479 -0.205 0.173 3 
0.466 0.003 0.16 3 
0.471 -0.067 0.162 3 
0.472 -0.075 0.162 3 
0.474 -0.087 0.163 3 
0.475 -0.09 0.163 3 
0.476 -0.096 0.164 3 
0.476 -0.105 0.164 3 
0.477 -0.245 0.112 3 
0.476 -0.116 0.164 3 
0.475 -0.068 0.174 3 
0.464 0.145 0.171 3 
0.464 0.142 0.171 3 
0.464 0.134 0.171 3 
0.468 0.083 0.172 3 
0.464 0.044 0.17 3 
0.47 -0.026 0.173 3 
0.469 -0.047 0.172 3 
0.471 -0.056 0.173 3 
0.465 0.003 0.103 3 
0.473 -0.065 0.174 3 
0.465 0.154 0.172 3 
0.477 -0.077 0.175 3 
0.465 -0.004 0.092 3 
0.475 -0.21 0.069 3 
0.474 -0.087 0.174 3 
0.474 -0.096 0.174 3 
0.481 -0.256 0.181 3 
0.484 -0.268 0.182 3 
0.486 -0.276 0.183 3 
0.464 0.122 0.168 3 
0.495 -0.322 0.192 3 
0.481 -0.195 0.182 3 
0.465 0.014 0.143 3 
0.481 -0.207 0.182 3 
0.462 0.072 0.124 3 
0.482 -0.217 0.183 3 
0.471 -0.175 0.074 3 
0.482 -0.226 0.183 3 
0.482 -0.235 0.184 3 
0.483 -0.248 0.184 3 
0.493 -0.317 0.191 3 
0.47 -0.023 0.17 3 
0.495 -0.326 0.192 3 
0.497 -0.335 0.193 3 
0.465 0.2 0.173 3 
0.464 0.193 0.173 3 
0.465 0.188 0.173 3 
0.462 0.184 0.172 3 
0.463 0.173 0.172 3 
0.465 0.168 0.173 3 
0.465 0.163 0.172 3 
0.461 0.03 0.164 3 
0.494 -0.335 0.186 3 
0.233 0.078 0.084 3 
0.235 0.079 0.084 3 
0.258 0.074 0.092 3 
0.464 0.164 0.166 3 
0.465 0.103 0.166 3 
0.462 0.092 0.164 3 
0.463 0.084 0.165 3 
0.466 0.044 0.166 3 
0.474 -0.197 0.052 3 
0.472 -0.136 0.102 3 
0.48 -0.083 0.171 3 
0.472 -0.112 0.168 3 
0.474 -0.118 0.169 3 
0.502 -0.138 0.179 3 
0.48 -0.188 0.173 3 
0.466 -0.087 0.012 3 
0.48 -0.197 0.173 3 
0.474 -0.161 0.173 3 
0.472 -0.075 0.171 3 
0.475 -0.093 0.172 3 
0.475 -0.096 0.172 3 
0.478 -0.105 0.173 3 
0.478 -0.117 0.173 3 
0.489 -0.335 0.144 3 
0.478 -0.125 0.174 3 
0.478 -0.137 0.174 3 
0.478 -0.146 0.174 3 
0.474 -0.165 0.114 3 
0.475 -0.17 0.173 3 
0.469 -0.096 0.052 3 
0.477 -0.177 0.174 3 
0.485 -0.272 0.18 3 
0.486 -0.286 0.181 3 
0.489 -0.299 0.182 3 
0.49 -0.306 0.183 3 
0.492 -0.319 0.184 3 
0.494 -0.328 0.186 3 
0.473 -0.176 0.033 3 
0.466 -0.055 0.034 3 
0.468 -0.077 0.033 3 
0.469 -0.096 0.033 3 
0.47 -0.105 0.033 3 
0.471 -0.116 0.033 3 
0.47 -0.127 0.033 3 
0.47 -0.135 0.033 3 
0.472 -0.147 0.033 3 
0.472 -0.156 0.033 3 
0.472 -0.167 0.033 3 
0.466 -0.036 0.034 3 
0.475 -0.186 0.033 3 
0.474 -0.189 0.033 3 
0.473 -0.197 0.033 3 
0.473 -0.205 0.033 3 
0.475 -0.216 0.033 3 
0.463 -0.025 0.013 3 
0.476 -0.225 0.032 3 
0.476 -0.235 0.032 3 
0.476 -0.247 0.032 3 
0.485 -0.322 0.037 3 
0.265 0.055 0.05 3 
0.474 -0.215 0.035 3 
0.482 -0.309 0.034 3 
0.482 -0.326 0.034 3 
0.482 -0.336 0.034 3 
0.484 -0.345 0.034 3 
0.476 -0.256 0.032 3 
0.479 0.037 0.032 3 
0.463 0.032 0.034 3 
0.463 0.024 0.034 3 
0.463 0.014 0.034 3 
0.464 0.003 0.034 3 
0.465 0 0.034 3 
0.466 -0.007 0.034 3 
0.466 -0.015 0.034 3 
0.465 -0.025 0.034 3 
0.477 -0.266 0.024 3 
0.251 0.08 0.044 3 
0.464 -0.02 0.026 3 
0.473 -0.194 0.024 3 
0.473 -0.197 0.024 3 
0.473 -0.206 0.024 3 
0.475 -0.216 0.024 3 
0.476 -0.238 0.024 3 
0.476 -0.247 0.024 3 
0.476 -0.256 0.024 3 
0.48 0.037 0.024 3 
0.477 -0.275 0.023 3 
0.479 -0.286 0.023 3 
0.48 -0.307 0.023 3 
0.48 -0.317 0.023 3 
0.48 -0.327 0.023 3 
0.482 -0.336 0.022 3 
0.486 -0.348 0.022 3 
0.275 0.049 0.044 3 
0.283 0.044 0.044 3 
0.302 0.034 0.044 3 
0.478 -0.267 0.032 3 
0.479 -0.277 0.032 3 
0.48 -0.287 0.032 3 
0.481 -0.295 0.032 3 
0.486 -0.344 0.031 3 
0.255 0.075 0.049 3 
0.286 0.058 0.034 3 
0.464 -0.025 0.031 3 
0.298 0.039 0.044 3 
0.305 0.031 0.044 3 
0.473 0.033 0.027 3 
0.467 -0.085 0.023 3 
0.477 0.031 0.027 3 
0.474 -0.215 0.027 3 
0.255 0.064 0.054 3 
0.3 0.034 0.054 3 
0.464 0.014 0.05 3 
0.485 -0.35 0.049 3 
0.243 0.088 0.054 3 
0.244 0.084 0.054 3 
0.245 0.074 0.054 3 
0.264 0.054 0.054 3 
0.307 0.032 0.052 3 
0.48 -0.328 0.014 3 
0.465 0.043 0.047 3 
0.475 -0.192 0.047 3 
0.475 -0.198 0.047 3 
0.245 0.085 0.053 3 
0.476 -0.275 0.052 3 
0.471 -0.166 0.052 3 
0.473 -0.185 0.052 3 
0.475 -0.216 0.052 3 
0.474 -0.221 0.052 3 
0.474 -0.227 0.052 3 
0.477 -0.232 0.052 3 
0.477 -0.235 0.052 3 
0.478 -0.245 0.052 3 
0.477 -0.257 0.052 3 
0.477 -0.266 0.052 3 
0.478 -0.286 0.052 3 
0.481 -0.298 0.052 3 
0.481 -0.308 0.052 3 
0.482 -0.315 0.052 3 
0.482 -0.326 0.052 3 
0.483 -0.337 0.052 3 
0.278 0.044 0.054 3 
0.286 0.044 0.054 3 
0.295 0.042 0.054 3 
0.477 -0.266 0.044 3 
0.471 -0.147 0.044 3 
0.298 0.085 0.029 3 
0.471 -0.155 0.044 3 
0.473 -0.176 0.044 3 
0.474 -0.197 0.044 3 
0.475 -0.201 0.044 3 
0.475 -0.21 0.044 3 
0.476 -0.216 0.044 3 
0.476 -0.237 0.044 3 
0.477 -0.247 0.044 3 
0.471 -0.135 0.044 3 
0.477 -0.276 0.044 3 
0.481 -0.298 0.043 3 
0.482 -0.305 0.043 3 
0.484 -0.321 0.043 3 
0.481 -0.325 0.043 3 
0.475 -0.192 0.041 3 
0.466 -0.015 0.044 3 
0.467 0.041 0.044 3 
0.464 0.035 0.044 3 
0.464 0.032 0.044 3 
0.465 0.03 0.044 3 
0.464 0.024 0.044 3 
0.464 0.014 0.044 3 
0.465 0.011 0.044 3 
0.466 0.003 0.044 3 
0.466 -0.007 0.044 3 
0.453 0.034 0.024 3 
0.466 -0.025 0.044 3 
0.466 -0.047 0.044 3 
0.466 -0.055 0.044 3 
0.466 -0.066 0.044 3 
0.467 -0.077 0.044 3 
0.468 -0.085 0.044 3 
0.471 -0.097 0.044 3 
0.471 -0.105 0.044 3 
0.47 -0.116 0.044 3 
0.281 0.078 0.034 3 
0.468 -0.177 0.003 3 
0.265 0.075 0.038 3 
0.285 0.075 0.034 3 
0.305 0.046 0.031 3 
0.466 -0.025 0.001 3 
0.465 -0.036 0.002 3 
0.463 -0.038 0.002 3 
0.464 -0.046 0.002 3 
0.244 0.083 0.041 3 
0.468 -0.165 0.003 3 
0.298 0.083 0.031 3 
0.306 0.083 0.029 3 
0.298 0.073 0.031 3 
0.255 0.085 0.034 3 
0.315 0.087 0.026 3 
0.319 0.083 0.025 3 
0.298 0.063 0.03 3 
0.308 0.067 0.026 3 
0.465 -0.028 0.007 3 
0.275 0.075 0.036 3 
0.475 -0.267 0.004 3 
0.285 0.056 0.036 3 
0.293 0.049 0.034 3 
0.295 0.048 0.034 3 
0.305 0.042 0.032 3 
0.467 -0.015 0.004 3 
0.465 -0.049 0.004 3 
0.465 -0.055 0.004 3 
0.466 -0.066 0.004 3 
0.465 -0.076 0.004 3 
0.467 -0.087 0.004 3 
0.469 -0.096 0.004 3 
0.471 -0.105 0.003 3 
0.47 -0.116 0.003 3 
0.284 0.085 0.024 3 
0.304 0.09 0.024 3 
0.335 0.086 0.017 3 
0.345 -0.005 0.014 3 
0.251 0.089 0.034 3 
0.341 -0.005 0.014 3 
0.33 0.09 0.014 3 
0.244 0.088 0.034 3 
0.258 0.095 0.024 3 
0.287 0.086 0.024 3 
0.322 0.091 0.014 3 
0.277 0.084 0.024 3 
0.313 0.093 0.014 3 
0.273 0.085 0.024 3 
0.274 0.084 0.024 3 
0.255 0.095 0.027 3 
0.262 0.088 0.024 3 
0.265 0.095 0.018 3 
0.325 0.065 0.023 3 
0.269 0.077 0.034 3 
0.316 0.09 0.024 3 
0.325 0.088 0.023 3 
0.321 0.014 0.014 3 
0.329 0.084 0.022 3 
0.316 0.064 0.025 3 
0.321 0.064 0.024 3 
0.338 -0.002 0.014 3 
0.325 0.063 0.023 3 
0.264 0.078 0.034 3 
0.293 0.085 0.028 3 
0.309 0.09 0.024 3 
0.335 0.083 0.019 3 
0.313 0.022 0.024 3 
0.449 0.023 0.022 3 
0.471 -0.155 0.022 3 
0.47 -0.166 0.022 3 
0.47 -0.175 0.022 3 
0.474 -0.218 0.021 3 
0.474 -0.227 0.021 3 
0.484 -0.346 0.019 3 
0.266 0.063 0.044 3 
0.27 0.054 0.044 3 
0.285 0.045 0.042 3 
0.444 0.03 0.023 3 
0.471 -0.147 0.022 3 
0.477 0.023 0.019 3 
0.464 -0.047 0.02 3 
0.257 0.075 0.044 3 
0.464 -0.007 0.018 3 
0.478 -0.289 0.014 3 
0.478 -0.295 0.014 3 
0.465 -0.047 0.023 3 
0.457 0.029 0.024 3 
0.458 0.021 0.024 3 
0.465 0.016 0.023 3 
0.463 0.014 0.023 3 
0.464 0.003 0.023 3 
0.465 -0.007 0.023 3 
0.465 -0.015 0.023 3 
0.464 -0.025 0.023 3 
0.465 -0.033 0.023 3 
0.464 -0.036 0.023 3 
0.482 -0.337 0.013 3 
0.465 -0.055 0.023 3 
0.464 -0.057 0.023 3 
0.464 -0.065 0.023 3 
0.466 -0.076 0.023 3 
0.469 -0.096 0.023 3 
0.469 -0.107 0.023 3 
0.47 -0.116 0.022 3 
0.47 -0.127 0.022 3 
0.47 -0.135 0.022 3 
0.309 0.026 0.034 3 
0.464 -0.015 0.012 3 
0.465 -0.017 0.012 3 
0.463 -0.036 0.013 3 
0.463 -0.046 0.013 3 
0.465 -0.057 0.012 3 
0.465 -0.065 0.012 3 
0.468 -0.107 0.012 3 
0.467 -0.115 0.012 3 
0.474 -0.246 0.01 3 
0.275 0.056 0.04 3 
0.464 -0.073 0.01 3 
0.464 -0.076 0.01 3 
0.475 -0.21 0.007 3 
0.295 0.045 0.035 3 
0.3 0.042 0.034 3 
0.304 0.033 0.034 3 
0.469 -0.177 0.014 3 
0.484 -0.349 0.013 3 
0.469 -0.135 0.014 3 
0.468 -0.145 0.014 3 
0.469 -0.157 0.014 3 
0.468 -0.165 0.014 3 
0.251 0.095 0.03 3 
0.473 -0.197 0.013 3 
0.473 -0.215 0.013 3 
0.474 -0.227 0.013 3 
0.475 -0.246 0.012 3 
0.475 -0.255 0.012 3 
0.474 -0.263 0.013 3 
0.475 -0.267 0.012 3 
0.476 -0.277 0.012 3 
0.245 0.089 0.044 3 
0.471 -0.116 0.093 3 
0.466 -0.015 0.092 3 
0.467 -0.025 0.093 3 
0.466 -0.036 0.092 3 
0.467 -0.047 0.093 3 
0.468 -0.055 0.093 3 
0.467 -0.066 0.093 3 
0.467 -0.077 0.093 3 
0.468 -0.085 0.093 3 
0.47 -0.097 0.093 3 
0.471 -0.105 0.093 3 
0.465 -0.006 0.092 3 
0.471 -0.125 0.094 3 
0.472 -0.136 0.094 3 
0.472 -0.147 0.094 3 
0.478 -0.153 0.094 3 
0.477 -0.161 0.094 3 
0.474 -0.162 0.094 3 
0.473 -0.176 0.094 3 
0.474 -0.186 0.094 3 
0.474 -0.197 0.094 3 
0.277 0.054 0.07 3 
0.484 -0.332 0.103 3 
0.484 -0.336 0.103 3 
0.485 -0.344 0.104 3 
0.487 -0.349 0.104 3 
0.285 0.054 0.072 3 
0.46 0.096 0.094 3 
0.46 0.093 0.094 3 
0.459 0.082 0.094 3 
0.465 0.032 0.095 3 
0.485 -0.313 0.1 3 
0.272 0.054 0.069 3 
0.311 0.06 0.074 3 
0.462 0.054 0.092 3 
0.464 0.043 0.092 3 
0.465 0.008 0.023 3 
0.464 0.032 0.092 3 
0.465 0.027 0.092 3 
0.465 0.024 0.092 3 
0.464 0.006 0.092 3 
0.464 0.003 0.092 3 
0.464 -0.025 0.004 3 
0.487 0.099 0.089 3 
0.487 -0.349 0.092 3 
0.238 0.083 0.064 3 
0.245 0.075 0.065 3 
0.462 0.083 0.084 3 
0.459 0.071 0.084 3 
0.461 0.064 0.084 3 
0.462 0.053 0.084 3 
0.464 0.043 0.084 3 
0.463 0.032 0.084 3 
0.301 0.054 0.071 3 
0.465 0.024 0.084 3 
0.464 0.022 0.084 3 
0.465 0.014 0.084 3 
0.464 0.006 0.084 3 
0.464 0.003 0.084 3 
0.465 0 0.084 3 
0.465 -0.007 0.084 3 
0.466 -0.015 0.084 3 
0.466 -0.025 0.084 3 
0.48 -0.287 0.043 3 
0.303 0.056 0.072 3 
0.465 0.035 0.09 3 
0.464 0.024 0.089 3 
0.475 -0.204 0.092 3 
0.475 -0.207 0.092 3 
0.476 -0.216 0.092 3 
0.478 -0.227 0.092 3 
0.477 -0.235 0.092 3 
0.476 -0.247 0.092 3 
0.474 -0.197 0.064 3 
0.485 -0.326 0.103 3 
0.476 -0.256 0.092 3 
0.476 -0.265 0.092 3 
0.47 -0.127 0.044 3 
0.477 -0.276 0.093 3 
0.48 -0.295 0.093 3 
0.482 -0.31 0.094 3 
0.482 -0.316 0.094 3 
0.484 -0.325 0.094 3 
0.485 -0.337 0.094 3 
0.46 0.064 0.102 3 
0.482 -0.307 0.114 3 
0.265 0.062 0.074 3 
0.486 -0.317 0.112 3 
0.486 -0.328 0.112 3 
0.486 -0.335 0.113 3 
0.276 0.06 0.074 3 
0.458 0.108 0.102 3 
0.457 0.103 0.102 3 
0.459 0.082 0.102 3 
0.46 0.074 0.102 3 
0.48 -0.298 0.114 3 
0.46 0.053 0.102 3 
0.461 0.043 0.102 3 
0.474 -0.206 0.052 3 
0.326 0.007 0.014 3 
0.462 0.032 0.102 3 
0.464 0.024 0.103 3 
0.464 0.014 0.103 3 
0.465 0.009 0.103 3 
0.466 -0.006 0.103 3 
0.475 -0.186 0.111 3 
0.473 -0.157 0.113 3 
0.264 0.105 0.017 3 
0.475 -0.172 0.114 3 
0.475 -0.178 0.114 3 
0.474 -0.183 0.114 3 
0.474 -0.197 0.114 3 
0.473 -0.206 0.114 3 
0.475 -0.21 0.114 3 
0.26 0.064 0.074 3 
0.285 0.062 0.078 3 
0.466 -0.025 0.103 3 
0.475 -0.216 0.112 3 
0.477 -0.226 0.112 3 
0.477 -0.235 0.112 3 
0.478 -0.255 0.113 3 
0.479 -0.265 0.113 3 
0.46 0.074 0.094 3 
0.479 -0.278 0.113 3 
0.48 -0.285 0.114 3 
0.484 -0.332 0.106 3 
0.474 -0.18 0.103 3 
0.472 -0.187 0.102 3 
0.471 -0.195 0.102 3 
0.473 -0.205 0.103 3 
0.475 -0.216 0.103 3 
0.477 -0.226 0.104 3 
0.483 -0.337 0.043 3 
0.478 -0.236 0.104 3 
0.477 -0.248 0.104 3 
0.478 -0.255 0.104 3 
0.475 -0.175 0.103 3 
0.286 0.056 0.074 3 
0.496 0.113 0.102 3 
0.464 0.003 0.097 3 
0.475 -0.157 0.1 3 
0.475 -0.166 0.1 3 
0.478 -0.277 0.101 3 
0.478 -0.286 0.102 3 
0.479 -0.297 0.102 3 
0.483 -0.307 0.103 3 
0.47 -0.105 0.104 3 
0.467 -0.036 0.103 3 
0.467 -0.047 0.103 3 
0.468 -0.055 0.104 3 
0.468 -0.066 0.104 3 
0.468 -0.077 0.104 3 
0.469 -0.085 0.104 3 
0.475 -0.225 0.024 3 
0.469 -0.096 0.104 3 
0.466 -0.036 0.084 3 
0.466 -0.036 0.044 3 
0.47 -0.116 0.104 3 
0.47 -0.127 0.104 3 
0.485 -0.313 0.109 3 
0.486 -0.345 0.11 3 
0.323 0.071 0.08 3 
0.472 -0.145 0.102 3 
0.475 -0.154 0.102 3 
0.474 -0.157 0.102 3 
0.47 -0.105 0.063 3 
0.466 -0.007 0.063 3 
0.466 -0.015 0.063 3 
0.466 -0.025 0.063 3 
0.465 -0.036 0.063 3 
0.467 -0.047 0.063 3 
0.468 -0.066 0.063 3 
0.468 -0.077 0.063 3 
0.268 0.085 0.027 3 
0.467 -0.085 0.063 3 
0.469 -0.096 0.063 3 
0.466 0.003 0.063 3 
0.471 -0.116 0.063 3 
0.484 -0.345 0.052 3 
0.47 -0.127 0.063 3 
0.471 -0.135 0.063 3 
0.472 -0.147 0.063 3 
0.472 -0.156 0.063 3 
0.475 -0.264 0.004 3 
0.471 -0.166 0.063 3 
0.473 -0.188 0.064 3 
0.484 -0.338 0.07 3 
0.478 -0.267 0.072 3 
0.477 -0.276 0.072 3 
0.479 -0.287 0.073 3 
0.479 -0.297 0.073 3 
0.481 -0.309 0.073 3 
0.484 -0.328 0.073 3 
0.485 -0.346 0.073 3 
0.294 0.044 0.062 3 
0.465 0.006 0.068 3 
0.475 -0.216 0.069 3 
0.474 -0.206 0.064 3 
0.475 -0.204 0.066 3 
0.484 -0.345 0.067 3 
0.461 0.056 0.063 3 
0.461 0.043 0.063 3 
0.462 0.032 0.063 3 
0.484 -0.345 0.043 3 
0.462 0.024 0.063 3 
0.464 0.014 0.063 3 
0.465 0.008 0.063 3 
0.466 -0.055 0.052 3 
0.462 0.043 0.052 3 
0.462 0.032 0.052 3 
0.463 0.024 0.052 3 
0.465 0.016 0.052 3 
0.465 0.014 0.052 3 
0.466 -0.007 0.052 3 
0.466 -0.015 0.052 3 
0.466 -0.025 0.052 3 
0.466 -0.036 0.052 3 
0.466 -0.047 0.052 3 
0.301 0.034 0.055 3 
0.467 -0.066 0.052 3 
0.468 -0.077 0.052 3 
0.468 -0.085 0.052 3 
0.471 -0.105 0.052 3 
0.47 -0.116 0.052 3 
0.47 -0.127 0.052 3 
0.47 -0.135 0.052 3 
0.471 -0.147 0.052 3 
0.471 -0.155 0.052 3 
0.483 -0.327 0.064 3 
0.275 0.046 0.054 3 
0.474 -0.227 0.064 3 
0.475 -0.231 0.064 3 
0.476 -0.237 0.064 3 
0.477 -0.247 0.064 3 
0.477 -0.257 0.064 3 
0.477 -0.266 0.064 3 
0.476 -0.275 0.064 3 
0.477 -0.285 0.064 3 
0.482 -0.315 0.064 3 
0.479 -0.255 0.072 3 
0.245 0.083 0.054 3 
0.484 -0.335 0.064 3 
0.485 -0.343 0.064 3 
0.485 -0.346 0.064 3 
0.465 0 0.023 3 
0.241 0.085 0.058 3 
0.475 -0.21 0.061 3 
0.475 -0.219 0.058 3 
0.479 -0.297 0.084 3 
0.475 -0.207 0.083 3 
0.476 -0.216 0.083 3 
0.477 -0.226 0.084 3 
0.477 -0.235 0.084 3 
0.469 -0.096 0.074 3 
0.478 -0.248 0.084 3 
0.478 -0.258 0.084 3 
0.477 -0.266 0.084 3 
0.477 -0.276 0.084 3 
0.479 -0.287 0.084 3 
0.473 -0.197 0.083 3 
0.255 0.06 0.064 3 
0.464 -0.006 0.079 3 
0.483 -0.32 0.073 3 
0.254 0.101 0.024 3 
0.481 -0.309 0.082 3 
0.482 -0.316 0.082 3 
0.485 -0.329 0.082 3 
0.486 -0.337 0.082 3 
0.487 -0.345 0.082 3 
0.468 -0.085 0.082 3 
0.486 -0.333 0.088 3 
0.245 0.078 0.064 3 
0.469 -0.116 0.082 3 
0.245 0.074 0.064 3 
0.251 0.064 0.064 3 
0.477 0.087 0.083 3 
0.467 -0.047 0.082 3 
0.467 -0.055 0.082 3 
0.467 -0.066 0.082 3 
0.468 -0.077 0.082 3 
0.264 0.054 0.064 3 
0.468 -0.096 0.082 3 
0.469 -0.107 0.082 3 
0.464 -0.017 0.023 3 
0.471 -0.127 0.083 3 
0.472 -0.136 0.083 3 
0.471 -0.155 0.083 3 
0.472 -0.167 0.083 3 
0.471 -0.175 0.083 3 
0.473 -0.188 0.083 3 
0.299 0.044 0.063 3 
0.469 -0.107 0.074 3 
0.469 -0.116 0.074 3 
0.472 -0.127 0.074 3 
0.472 -0.136 0.074 3 
0.472 -0.147 0.074 3 
0.472 -0.156 0.074 3 
0.471 -0.166 0.074 3 
0.475 -0.198 0.075 3 
0.474 -0.215 0.075 3 
0.474 -0.227 0.075 3 
0.244 0.089 0.044 3 
0.473 -0.188 0.072 3 
0.474 -0.197 0.072 3 
0.474 -0.206 0.072 3 
0.474 -0.215 0.072 3 
0.474 -0.227 0.072 3 
0.475 -0.231 0.072 3 
0.476 -0.237 0.072 3 
0.468 -0.085 0.034 3 
0.478 -0.245 0.072 3 
0.462 0.032 0.073 3 
0.265 0.054 0.064 3 
0.276 0.05 0.064 3 
0.286 0.048 0.064 3 
0.459 0.066 0.073 3 
0.461 0.064 0.073 3 
0.462 0.053 0.073 3 
0.463 0.043 0.073 3 
0.462 0.024 0.073 3 
0.463 0.014 0.073 3 
0.465 0 0.074 3 
0.466 -0.007 0.074 3 
0.466 -0.015 0.074 3 
0.466 -0.025 0.074 3 
0.466 -0.036 0.074 3 
0.467 -0.047 0.074 3 
0.467 -0.055 0.074 3 
