# .PCD v0.7 - Point Cloud Data file
FIELDS x y z intensity
SIZE 4 4 4 4
TYPE F F F F
COUNT 1 1 1 1
WIDTH 1977
HEIGHT 1
VIEWPOINT 0 0 0 1 0 0 0
POINTS 1977
DATA ascii
0.345 -0.013 0.008 0 
0.327 -0.134 -0.004 1 
0.324 -0.033 -0.001 1 
0.354 0.061 -0.013 1 
0.351 0.074 -0.012 1 
0.352 0.083 -0.013 1 
0.354 0.114 -0.014 1 
0.354 0.121 -0.015 1 
0.353 0.124 -0.014 1 
0.353 0.133 -0.015 1 
0.351 0.156 -0.015 1 
0.347 0.167 -0.014 1 
0.332 -0.17 -0.006 1 
0.334 -0.156 -0.006 1 
0.332 -0.147 -0.005 1 
0.333 -0.126 -0.005 1 
0.324 -0.094 -0.001 1 
0.324 -0.06 0 1 
0.334 0.015 -0.004 1 
0.357 0.074 -0.013 1 
0.358 0.103 -0.014 1 
0.36 0.154 -0.016 1 
0.354 0.173 -0.015 1 
0.353 0.184 -0.015 1 
0.352 0.193 -0.015 1 
0.354 0.213 -0.017 1 
0.354 0.217 -0.018 1 
0.334 -0.116 -0.003 1 
0.333 -0.106 -0.002 1 
0.324 -0.065 0.001 1 
0.332 -0.016 -0.001 1 
0.334 -0.005 -0.002 1 
0.334 0.004 -0.002 1 
0.334 0.009 -0.002 1 
0.363 0.039 -0.013 1 
0.364 0.045 -0.013 1 
0.363 0.084 -0.013 1 
0.364 0.086 -0.014 1 
0.365 0.103 -0.014 1 
0.362 0.113 -0.014 1 
0.363 0.117 -0.014 1 
0.364 0.124 -0.015 1 
0.364 0.127 -0.015 1 
0.362 0.138 -0.014 1 
0.363 0.14 -0.015 1 
0.357 0.203 -0.016 1 
0.344 -0.165 -0.007 1 
0.34 -0.145 -0.004 1 
0.34 -0.143 -0.004 1 
0.342 -0.136 -0.005 1 
0.342 -0.131 -0.005 1 
0.341 -0.125 -0.004 1 
0.342 -0.115 -0.004 1 
0.334 -0.034 -0.001 1 
0.373 0.052 -0.014 1 
0.374 0.054 -0.015 1 
0.374 0.056 -0.015 1 
0.371 0.074 -0.014 1 
0.373 0.094 -0.015 1 
0.374 0.104 -0.016 1 
0.372 0.111 -0.015 1 
0.369 0.113 -0.014 1 
0.369 0.121 -0.014 1 
0.37 0.123 -0.015 1 
0.369 0.131 -0.015 1 
0.37 0.143 -0.015 1 
0.373 0.164 -0.017 1 
0.364 0.19 -0.015 1 
0.364 0.224 -0.017 1 
0.364 0.228 -0.018 1 
0.352 -0.176 -0.008 1 
0.354 0.02 -0.006 1 
0.374 0.041 -0.013 1 
0.374 0.079 -0.013 1 
0.374 0.087 -0.013 1 
0.379 0.113 -0.016 1 
0.373 0.143 -0.014 1 
0.374 0.172 -0.016 1 
0.372 0.183 -0.016 1 
0.373 0.203 -0.017 1 
0.373 0.212 -0.017 1 
0.367 0.224 -0.016 1 
0.354 -0.166 -0.006 1 
0.352 -0.155 -0.005 1 
0.352 -0.145 -0.005 1 
0.353 -0.135 -0.005 1 
0.354 -0.13 -0.005 1 
0.353 -0.119 -0.005 1 
0.351 -0.116 -0.004 1 
0.349 -0.106 -0.003 1 
0.333 -0.076 0.002 1 
0.334 -0.04 0.002 1 
0.343 -0.015 0 1 
0.342 0.017 -0.005 1 
0.343 -0.005 0 1 
0.385 0.053 -0.015 1 
0.381 0.074 -0.013 1 
0.383 0.084 -0.014 1 
0.384 0.099 -0.015 1 
0.382 0.118 -0.015 1 
0.38 0.123 -0.014 1 
0.381 0.132 -0.015 1 
0.381 0.14 -0.015 1 
0.381 0.153 -0.015 1 
0.384 0.164 -0.017 1 
0.376 0.184 -0.015 1 
0.37 -0.238 -0.012 1 
0.361 -0.176 -0.007 1 
0.357 -0.165 -0.005 1 
0.354 -0.145 -0.004 1 
0.356 -0.139 -0.004 1 
0.363 -0.186 -0.008 1 
0.36 -0.125 -0.005 1 
0.359 -0.122 -0.005 1 
0.351 -0.095 -0.002 1 
0.331 -0.071 0.004 1 
0.343 -0.034 0 1 
0.362 0.023 -0.005 1 
0.38 0.033 -0.011 1 
0.383 0.037 -0.012 1 
0.388 0.064 -0.014 1 
0.391 0.083 -0.015 1 
0.39 0.091 -0.015 1 
0.39 0.104 -0.015 1 
0.384 0.151 -0.014 1 
0.383 0.194 -0.016 1 
0.384 0.202 -0.016 1 
0.376 0.242 -0.016 1 
0.362 -0.147 -0.005 1 
0.362 -0.145 -0.004 1 
0.364 -0.141 -0.005 1 
0.362 -0.115 -0.004 1 
0.362 -0.106 -0.004 1 
0.345 0.013 0.001 1 
0.346 0.018 0.001 1 
0.356 0.02 -0.001 1 
0.394 0.041 -0.013 1 
0.394 0.074 -0.014 1 
0.394 0.08 -0.014 1 
0.394 0.103 -0.014 1 
0.394 0.114 -0.014 1 
0.391 0.123 -0.014 1 
0.392 0.139 -0.014 1 
0.393 0.144 -0.015 1 
0.333 -0.124 -0.005 1 
0.392 0.15 -0.014 1 
0.392 0.154 -0.015 1 
0.391 0.155 -0.014 1 
0.394 0.164 -0.016 1 
0.392 0.184 -0.016 1 
0.391 0.213 -0.017 1 
0.374 -0.196 -0.008 1 
0.374 -0.19 -0.007 1 
0.374 -0.175 -0.007 1 
0.37 -0.155 -0.005 1 
0.37 -0.125 -0.005 1 
0.37 -0.122 -0.004 1 
0.373 -0.116 -0.005 1 
0.371 -0.111 -0.005 1 
0.34 -0.06 0.004 1 
0.34 -0.048 0.004 1 
0.342 -0.035 0.004 1 
0.347 -0.004 0.002 1 
0.342 0.003 0.004 1 
0.342 0.017 0.004 1 
0.376 0.023 -0.006 1 
0.396 0.033 -0.012 1 
0.403 0.053 -0.014 1 
0.403 0.064 -0.014 1 
0.4 0.074 -0.013 1 
0.399 0.104 -0.013 1 
0.402 0.116 -0.015 1 
0.4 0.124 -0.014 1 
0.393 0.222 -0.015 1 
0.392 0.244 -0.016 1 
0.394 0.254 -0.017 1 
0.381 -0.192 -0.007 1 
0.353 0.104 -0.014 1 
0.379 -0.175 -0.006 1 
0.374 -0.144 -0.004 1 
0.378 -0.112 -0.005 1 
0.366 -0.1 -0.001 1 
0.357 -0.094 0.001 1 
0.341 -0.035 0.006 1 
0.334 -0.046 0 1 
0.346 -0.035 0.004 1 
0.354 -0.009 0.002 1 
0.409 0.044 -0.013 1 
0.41 0.053 -0.014 1 
0.41 0.073 -0.014 1 
0.403 0.134 -0.013 1 
0.404 0.144 -0.014 1 
0.403 0.154 -0.014 1 
0.402 0.163 -0.013 1 
0.403 0.178 -0.014 1 
0.404 0.184 -0.015 1 
0.402 0.187 -0.014 1 
0.402 0.192 -0.015 1 
0.401 0.2 -0.015 1 
0.399 0.208 -0.014 1 
0.398 0.215 -0.014 1 
0.398 0.222 -0.015 1 
0.4 0.232 -0.016 1 
0.395 0.244 -0.015 1 
0.401 0.264 -0.017 1 
0.399 0.267 -0.017 1 
0.392 -0.197 -0.009 1 
0.39 -0.186 -0.008 1 
0.382 -0.166 -0.005 1 
0.381 -0.163 -0.005 1 
0.373 -0.145 -0.002 1 
0.383 -0.133 -0.005 1 
0.386 -0.123 -0.005 1 
0.384 -0.12 -0.005 1 
0.374 -0.108 -0.002 1 
0.362 -0.098 0.001 1 
0.354 -0.058 0.004 1 
0.352 -0.054 0.004 1 
0.361 -0.036 0.002 1 
0.355 -0.024 0.003 1 
0.414 0.101 -0.013 1 
0.414 0.112 -0.014 1 
0.413 0.123 -0.013 1 
0.411 0.134 -0.013 1 
0.41 0.154 -0.013 1 
0.408 0.211 -0.015 1 
0.407 0.223 -0.015 1 
0.403 -0.211 -0.01 1 
0.399 -0.198 -0.008 1 
0.42 0.082 -0.012 1 
0.419 0.094 -0.012 1 
0.419 0.103 -0.013 1 
0.414 0.14 -0.012 1 
0.413 0.164 -0.012 1 
0.414 0.179 -0.013 1 
0.414 0.191 -0.013 1 
0.414 0.219 -0.014 1 
0.415 0.222 -0.015 1 
0.415 0.225 -0.015 1 
0.414 0.232 -0.015 1 
0.415 0.238 -0.015 1 
0.414 0.24 -0.015 1 
0.413 0.252 -0.015 1 
0.411 0.261 -0.015 1 
0.412 0.27 -0.016 1 
0.414 0.275 -0.016 1 
0.382 -0.156 -0.001 1 
0.379 -0.145 0 1 
0.362 -0.128 0.004 1 
0.379 -0.137 0 1 
0.397 -0.129 -0.004 1 
0.364 -0.033 0.004 1 
0.367 -0.031 0.003 1 
0.374 -0.136 -0.006 1 
0.424 0.06 -0.011 1 
0.424 0.065 -0.011 1 
0.423 0.114 -0.011 1 
0.423 0.124 -0.012 1 
0.42 0.144 -0.011 1 
0.419 0.163 -0.012 1 
0.42 0.183 -0.012 1 
0.421 0.194 -0.013 1 
0.423 0.203 -0.014 1 
0.363 -0.158 -0.005 1 
0.423 0.214 -0.014 1 
0.342 -0.155 -0.006 1 
0.387 -0.136 -0.002 1 
0.423 0.224 -0.014 1 
0.421 0.233 -0.014 1 
0.42 0.243 -0.014 1 
0.421 0.249 -0.015 1 
0.418 0.254 -0.014 1 
0.419 0.272 -0.015 1 
0.422 0.284 -0.016 1 
0.422 0.044 -0.013 1 
0.374 -0.126 0.003 1 
0.387 -0.129 0 1 
0.381 -0.124 0.001 1 
0.389 -0.124 0 1 
0.394 0.093 -0.014 1 
0.373 0.026 -0.008 1 
0.366 -0.033 0.006 1 
0.332 -0.001 0.014 1 
0.345 0.016 0.011 1 
0.432 0.036 -0.011 1 
0.434 0.053 -0.011 1 
0.431 0.062 -0.01 1 
0.432 0.074 -0.011 1 
0.432 0.084 -0.011 1 
0.432 0.094 -0.011 1 
0.431 0.113 -0.011 1 
0.43 0.124 -0.011 1 
0.429 0.144 -0.011 1 
0.423 0.262 -0.013 1 
0.423 0.271 -0.013 1 
0.428 0.294 -0.016 1 
0.424 -0.219 -0.008 1 
0.414 0.211 -0.014 1 
0.343 0.003 0.013 1 
0.434 0.154 -0.01 1 
0.429 0.164 -0.009 1 
0.428 0.174 -0.009 1 
0.432 0.194 -0.011 1 
0.434 0.204 -0.011 1 
0.434 0.223 -0.012 1 
0.434 0.234 -0.012 1 
0.431 0.242 -0.012 1 
0.431 0.253 -0.012 1 
0.428 0.264 -0.012 1 
0.428 0.273 -0.012 1 
0.43 0.284 -0.013 1 
0.429 0.289 -0.013 1 
0.433 0.299 -0.014 1 
0.421 0.154 -0.012 1 
0.344 0.013 0.014 1 
0.442 0.032 -0.008 1 
0.443 0.042 -0.008 1 
0.443 0.052 -0.008 1 
0.443 0.062 -0.009 1 
0.443 0.072 -0.009 1 
0.443 0.082 -0.009 1 
0.441 0.104 -0.009 1 
0.44 0.124 -0.009 1 
0.442 0.133 -0.009 1 
0.439 0.163 -0.009 1 
0.438 0.172 -0.009 1 
0.434 0.183 -0.008 1 
0.352 0.003 0.014 1 
0.358 0.007 0.013 1 
0.434 0.029 -0.004 1 
0.447 0.033 -0.007 1 
0.443 0.183 -0.008 1 
0.444 0.203 -0.009 1 
0.441 0.214 -0.008 1 
0.439 0.243 -0.009 1 
0.439 0.281 -0.01 1 
0.441 0.308 -0.011 1 
0.364 0.025 -0.009 1 
0.362 0.004 0.014 1 
0.435 0.029 -0.002 1 
0.452 0.054 -0.005 1 
0.453 0.062 -0.006 1 
0.453 0.072 -0.006 1 
0.451 0.092 -0.006 1 
0.451 0.103 -0.006 1 
0.451 0.124 -0.006 1 
0.453 0.133 -0.007 1 
0.453 0.154 -0.007 1 
0.451 0.164 -0.007 1 
0.39 0.232 -0.015 1 
0.452 0.184 -0.007 1 
0.444 0.268 -0.008 1 
0.442 0.293 -0.008 1 
0.442 0.143 -0.009 1 
0.451 0.044 -0.005 1 
0.454 0.039 -0.003 1 
0.457 0.124 -0.005 1 
0.456 0.134 -0.005 1 
0.457 0.184 -0.006 1 
0.455 0.202 -0.006 1 
0.453 0.204 -0.005 1 
0.454 0.207 -0.006 1 
0.414 0.094 -0.013 1 
0.455 0.214 -0.006 1 
0.454 0.224 -0.006 1 
0.455 0.228 -0.006 1 
0.451 0.242 -0.006 1 
0.45 0.253 -0.006 1 
0.449 0.264 -0.006 1 
0.454 0.325 -0.009 1 
0.454 0.253 -0.004 1 
0.452 0.264 -0.004 1 
0.453 0.28 -0.005 1 
0.451 0.284 -0.004 1 
0.451 0.293 -0.005 1 
0.453 0.301 -0.005 1 
0.452 0.31 -0.005 1 
0.454 0.319 -0.006 1 
0.455 0.323 -0.006 1 
0.459 0.331 -0.007 1 
0.354 0.14 -0.015 1 
0.463 0.339 -0.005 1 
0.457 0.173 -0.006 1 
0.379 0.008 0.018 1 
0.386 0.01 0.016 1 
0.396 0.012 0.014 1 
0.407 0.017 0.012 1 
0.415 0.022 0.011 1 
0.421 0.053 -0.012 1 
0.435 0.027 0.007 1 
0.462 0.053 0.002 1 
0.462 0.064 0.002 1 
0.448 0.013 0.007 1 
0.447 0.023 0.007 1 
0.448 0.028 0.007 1 
0.462 0.104 0.004 1 
0.46 0.114 0.004 1 
0.462 0.12 0.004 1 
0.464 0.132 0.004 1 
0.461 0.153 0.004 1 
0.463 0.162 0.003 1 
0.464 0.166 0.003 1 
0.465 0.172 0.003 1 
0.465 0.175 0.003 1 
0.463 0.182 0.003 1 
0.464 0.203 0.002 1 
0.46 0.223 0.003 1 
0.46 0.232 0.003 1 
0.464 0.336 0 1 
0.491 -0.336 0 1 
0.458 0.113 -0.005 1 
0.463 0.273 0.004 1 
0.464 0.284 0.004 1 
0.465 0.291 0.003 1 
0.464 0.293 0.003 1 
0.465 0.301 0.003 1 
0.464 0.303 0.003 1 
0.462 0.314 0.003 1 
0.463 0.321 0.003 1 
0.464 0.333 0.002 1 
0.484 -0.332 0.004 1 
0.489 -0.334 0.003 1 
0.41 0.252 -0.014 1 
0.468 0.342 0.004 1 
0.485 -0.336 0.007 1 
0.485 -0.333 0.007 1 
0.463 0.014 0.013 1 
0.461 0.024 0.013 1 
0.414 0.204 -0.014 1 
0.478 -0.346 0.01 1 
0.352 0.044 -0.012 1 
0.444 0.253 -0.007 1 
0.474 -0.345 0.014 1 
0.398 0.172 -0.015 1 
0.474 -0.342 0.014 1 
0.478 -0.336 0.014 1 
0.479 -0.333 0.014 1 
0.463 0.321 0.014 1 
0.432 0.133 -0.012 1 
0.443 0.264 -0.007 1 
0.466 0.328 0.014 1 
0.464 0.33 0.014 1 
0.471 0.348 0.012 1 
0.472 -0.34 0.017 1 
0.37 0.235 -0.016 1 
0.393 0.173 -0.016 1 
0.433 0.104 -0.011 1 
0.454 0.138 -0.007 1 
0.354 0.093 -0.014 1 
0.346 -0.089 0.006 1 
0.333 -0.061 0.003 1 
0.393 0.261 -0.017 1 
0.459 0.143 -0.005 1 
0.377 -0.136 -0.005 1 
0.462 0.242 0.002 1 
0.402 -0.129 -0.005 1 
0.44 0.152 -0.009 1 
0.426 0.28 -0.015 1 
0.347 0.162 -0.014 1 
0.469 0.346 0.004 1 
0.409 0.063 -0.014 1 
0.354 0.03 -0.011 1 
0.354 0.054 -0.013 1 
0.361 0.133 -0.014 1 
0.463 0.083 0.004 1 
0.463 0.094 0.004 1 
0.458 0.154 -0.005 1 
0.353 0.005 0.014 1 
0.352 0.204 -0.016 1 
0.364 0.214 -0.017 1 
0.399 0.213 -0.015 1 
0.374 0.154 -0.017 1 
0.377 0.233 -0.016 1 
0.463 0.043 0.004 1 
0.456 0.192 -0.006 1 
0.46 0.214 0.003 1 
0.372 -0.165 -0.006 1 
0.388 0.119 -0.015 1 
0.372 0.063 -0.014 1 
0.468 0.341 0.013 1 
0.366 -0.035 0.009 1 
0.418 0.174 -0.012 1 
0.381 0.064 -0.013 1 
0.369 -0.035 0.003 1 
0.394 0.202 -0.015 1 
0.46 0.034 0.002 1 
0.343 0.014 0.003 1 
0.373 0.133 -0.014 1 
0.347 -0.125 -0.004 1 
0.343 -0.034 0.007 1 
0.384 0.132 -0.014 1 
0.379 -0.113 -0.003 1 
0.424 0.134 -0.012 1 
0.394 0.031 -0.011 1 
0.423 0.291 -0.017 1 
0.349 -0.087 0.003 1 
0.39 0.194 -0.016 1 
0.363 0.164 -0.016 1 
0.414 0.174 -0.013 1 
0.443 0.304 -0.009 1 
0.359 0.173 -0.015 1 
0.34 -0.079 0.004 1 
0.435 0.308 -0.015 1 
0.371 -0.146 -0.005 1 
0.379 0.143 -0.014 1 
0.331 -0.095 -0.002 1 
0.39 0.114 -0.015 1 
0.464 0.143 0.003 1 
0.443 0.092 -0.009 1 
0.451 0.113 -0.006 1 
0.433 0.302 -0.015 1 
0.461 0.032 0.013 1 
0.401 0.113 -0.014 1 
0.463 0.252 0.002 1 
0.448 0.272 -0.006 1 
0.324 -0.036 -0.001 1 
0.38 -0.127 0.001 1 
0.462 0.263 0.004 1 
0.413 0.027 -0.01 1 
0.478 -0.35 0.004 1 
0.323 -0.075 0 1 
0.39 0.054 -0.014 1 
0.372 0.232 -0.016 1 
0.424 0.28 -0.014 1 
0.385 -0.128 -0.005 1 
0.392 0.134 -0.014 1 
0.439 0.114 -0.008 1 
0.434 0.029 -0.006 1 
0.364 0.184 -0.015 1 
0.403 0.174 -0.014 1 
0.452 0.082 -0.006 1 
0.343 -0.096 -0.002 1 
0.381 0.223 -0.016 1 
0.365 0.012 0.004 1 
0.324 -0.096 -0.001 1 
0.334 -0.086 -0.001 1 
0.383 0.051 -0.014 1 
0.452 0.273 -0.004 1 
0.324 -0.045 -0.001 1 
0.351 -0.022 0.004 1 
0.353 0.131 -0.014 1 
0.397 0.254 -0.016 1 
0.459 0.24 -0.005 1 
0.361 0.063 -0.014 1 
0.399 0.082 -0.013 1 
0.454 0.031 0.004 1 
0.442 0.191 -0.008 1 
0.353 -0.034 0.002 1 
0.414 0.083 -0.013 1 
0.342 -0.105 -0.002 1 
0.384 0.209 -0.017 1 
0.416 0.027 -0.006 1 
0.402 0.042 -0.014 1 
0.4 0.204 -0.014 1 
0.434 0.212 -0.012 1 
0.442 0.224 -0.009 1 
0.414 0.227 -0.014 1 
0.331 -0.137 -0.004 1 
0.341 -0.147 -0.005 1 
0.451 0.172 -0.007 1 
0.38 0.174 -0.016 1 
0.383 0.094 -0.014 1 
0.457 0.162 -0.005 1 
0.371 0.192 -0.016 1 
0.448 0.192 -0.007 1 
0.442 0.232 -0.009 1 
0.341 -0.086 0 1 
0.454 0.233 -0.006 1 
0.334 -0.135 -0.005 1 
0.362 -0.122 0.006 1 
0.402 0.094 -0.014 1 
0.36 -0.036 0.012 2 
0.32 -0.05 0.03 2 
0.354 -0.051 0.025 2 
0.342 -0.037 0.018 2 
0.348 -0.065 0.019 2 
0.335 -0.029 0.027 2 
0.319 -0.043 0.034 2 
0.352 -0.032 0.022 2 
0.324 -0.069 0.029 2 
0.363 -0.032 0.019 2 
0.368 -0.003 0.016 2 
0.331 -0.026 0.024 2 
0.305 -0.1 0.026 2 
0.332 -0.032 0.015 2 
0.408 -0.012 0.042 2 
0.433 -0.008 0.02 2 
0.417 -0.005 0.019 2 
0.354 -0.007 0.042 2 
0.324 -0.063 0.014 2 
0.354 -0.034 0.012 2 
0.335 -0.082 0.011 2 
0.352 -0.054 0.016 2 
0.325 -0.075 0.022 2 
0.314 -0.078 0.029 2 
0.35 -0.045 0.028 2 
0.364 0 0.007 2 
0.363 -0.036 0.02 2 
0.368 -0.046 0.023 2 
0.361 -0.048 0.025 2 
0.349 -0.065 0.021 2 
0.319 -0.075 0.03 2 
0.355 -0.04 0.027 2 
0.35 -0.001 0.019 2 
0.351 -0.056 0.019 2 
0.332 -0.024 0.021 2 
0.343 -0.064 0.019 2 
0.341 -0.065 0.019 2 
0.375 -0.001 0.022 2 
0.342 -0.004 0.033 2 
0.373 -0.001 0.02 2 
0.347 -0.056 0.024 2 
0.334 -0.064 0.031 2 
0.378 0.002 0.017 2 
0.352 -0.036 0.028 2 
0.346 -0.102 0.018 2 
0.334 -0.035 0.019 2 
0.323 -0.066 0.009 2 
0.337 -0.045 0.016 2 
0.343 -0.063 0.009 2 
0.324 -0.062 0.018 2 
0.324 -0.066 0.013 2 
0.328 -0.086 0.022 2 
0.324 -0.088 0.023 2 
0.334 -0.034 0.019 2 
0.331 -0.095 0.021 2 
0.313 -0.086 0.026 2 
0.333 -0.043 0.016 2 
0.331 -0.078 0.015 2 
0.302 -0.095 0.025 2 
0.336 -0.011 0.009 2 
0.332 -0.059 0.009 2 
0.326 -0.07 0.01 2 
0.345 -0.021 0.014 2 
0.334 -0.02 0.019 2 
0.312 -0.076 0.032 2 
0.355 -0.024 0.013 2 
0.324 -0.075 0.024 2 
0.362 -0.031 0.012 2 
0.355 -0.024 0.01 2 
0.342 -0.045 0.018 2 
0.353 -0.056 0.01 2 
0.356 -0.06 0.009 2 
0.334 -0.063 0.014 2 
0.344 -0.018 0.016 2 
0.348 -0.02 0.015 2 
0.339 -0.033 0.018 2 
0.413 -0.003 0.031 2 
0.436 -0.004 0.015 2 
0.405 -0.005 0.034 2 
0.368 -0.042 0.015 2 
0.316 -0.067 0.037 2 
0.333 -0.067 0.025 2 
0.353 -0.004 0.033 2 
0.319 -0.056 0.032 2 
0.337 -0.064 0.029 2 
0.335 -0.065 0.034 2 
0.332 -0.065 0.034 2 
0.314 -0.07 0.037 2 
0.332 -0.072 0.034 2 
0.403 -0.003 0.03 2 
0.336 -0.065 0.035 2 
0.336 -0.014 0.017 2 
0.355 -0.007 0.04 2 
0.353 -0.043 0.019 2 
0.333 -0.013 0.012 2 
0.362 -0.004 0.034 2 
0.476 -0.347 0.018 2 
0.475 -0.353 0.014 2 
0.475 -0.357 0.02 2 
0.471 -0.352 0.011 2 
0.475 -0.343 0.018 2 
0.474 -0.349 0.018 2 
0.473 -0.355 0.017 2 
0.463 0.113 0.073 3 
0.463 0.233 0.143 3 
0.465 0.225 0.143 3 
0.465 0.222 0.143 3 
0.463 0.182 0.033 3 
0.466 0.214 0.143 3 
0.465 0.175 0.142 3 
0.465 0.173 0.142 3 
0.464 0.095 0.141 3 
0.464 0.054 0.141 3 
0.464 -0.054 0.14 3 
0.462 0.244 0.143 3 
0.466 -0.085 0.141 3 
0.465 0.343 0.144 3 
0.468 0.333 0.144 3 
0.468 0.322 0.144 3 
0.467 0.314 0.143 3 
0.466 0.304 0.143 3 
0.466 0.294 0.142 3 
0.468 0.283 0.142 3 
0.466 -0.015 0.084 3 
0.468 0.273 0.142 3 
0.465 -0.055 0.143 3 
0.465 0.014 0.143 3 
0.464 0.006 0.143 3 
0.465 0.003 0.143 3 
0.464 0.001 0.143 3 
0.467 -0.006 0.144 3 
0.467 -0.015 0.144 3 
0.464 -0.025 0.143 3 
0.465 -0.028 0.143 3 
0.467 -0.047 0.144 3 
0.465 0.152 0.06 3 
0.465 -0.065 0.144 3 
0.465 0.022 0.1 3 
0.464 -0.073 0.143 3 
0.465 -0.076 0.144 3 
0.464 -0.081 0.143 3 
0.463 -0.086 0.143 3 
0.235 -0.065 0.078 3 
0.332 -0.008 0.044 3 
0.464 0.261 0.144 3 
0.465 0.259 0.144 3 
0.464 -0.044 0.092 3 
0.464 0.152 0.133 3 
0.464 0.144 0.133 3 
0.465 0.139 0.133 3 
0.465 0.133 0.133 3 
0.465 0.122 0.133 3 
0.465 0.114 0.133 3 
0.464 0.105 0.133 3 
0.246 -0.065 0.064 3 
0.465 0.103 0.133 3 
0.464 0.1 0.133 3 
0.464 0.158 0.133 3 
0.465 0.092 0.133 3 
0.467 0.082 0.133 3 
0.465 -0.007 0.084 3 
0.466 0.073 0.133 3 
0.464 0.065 0.132 3 
0.465 0.062 0.133 3 
0.464 0.059 0.132 3 
0.464 0.054 0.132 3 
0.465 0.044 0.133 3 
0.467 0.033 0.133 3 
0.466 0.014 0.063 3 
0.464 0.065 0.138 3 
0.275 -0.035 0.087 3 
0.265 -0.038 0.084 3 
0.29 -0.037 0.09 3 
0.277 -0.034 0.087 3 
0.273 -0.034 0.086 3 
0.462 0.25 0.134 3 
0.465 0.291 0.074 3 
0.462 0.244 0.134 3 
0.463 0.253 0.124 3 
0.466 0.022 0.144 3 
0.463 0.233 0.134 3 
0.463 0.224 0.134 3 
0.463 0.212 0.134 3 
0.464 0.204 0.134 3 
0.465 0.198 0.134 3 
0.464 0.192 0.134 3 
0.464 0.183 0.134 3 
0.465 0.175 0.134 3 
0.465 0.172 0.134 3 
0.465 0.164 0.134 3 
0.468 0.283 0.154 3 
0.467 -0.025 0.152 3 
0.283 -0.022 0.054 3 
0.469 -0.055 0.153 3 
0.462 0.334 0.062 3 
0.468 -0.066 0.153 3 
0.47 -0.075 0.153 3 
0.472 -0.086 0.154 3 
0.469 -0.097 0.153 3 
0.467 0.302 0.154 3 
0.466 0.294 0.154 3 
0.467 -0.015 0.152 3 
0.466 0.263 0.153 3 
0.464 0.255 0.152 3 
0.464 0.154 0.033 3 
0.464 0.252 0.152 3 
0.465 0.226 0.152 3 
0.465 0.223 0.151 3 
0.465 0.164 0.15 3 
0.294 -0.023 0.044 3 
0.464 0.128 0.149 3 
0.23 -0.075 0.076 3 
0.466 0.074 0.152 3 
0.465 0.122 0.06 3 
0.466 0.134 0.153 3 
0.465 0.123 0.152 3 
0.465 0.032 0.06 3 
0.465 0.114 0.152 3 
0.467 0.104 0.153 3 
0.466 0.093 0.152 3 
0.465 0.084 0.152 3 
0.464 0.079 0.151 3 
0.464 0.014 0.149 3 
0.467 0.063 0.152 3 
0.464 -0.02 0.071 3 
0.464 0.064 0.065 3 
0.466 0.052 0.152 3 
0.464 0.035 0.151 3 
0.465 0.027 0.152 3 
0.465 0.022 0.152 3 
0.465 0.014 0.152 3 
0.467 0.003 0.152 3 
0.468 -0.007 0.153 3 
0.463 0.014 0.103 3 
0.465 0.161 0.144 3 
0.464 0.155 0.144 3 
0.464 0.152 0.144 3 
0.465 0.145 0.144 3 
0.465 0.142 0.144 3 
0.464 0.139 0.144 3 
0.465 0.133 0.144 3 
0.467 0.118 0.144 3 
0.467 0.107 0.144 3 
0.466 0.104 0.144 3 
0.465 0.167 0.145 3 
0.464 0.092 0.143 3 
0.301 -0.067 0.038 3 
0.465 0.09 0.144 3 
0.465 0.084 0.144 3 
0.463 0.162 0.063 3 
0.466 0.074 0.144 3 
0.465 0.062 0.144 3 
0.465 0.052 0.143 3 
0.465 0.044 0.143 3 
0.466 0.033 0.144 3 
0.464 -0.065 0.146 3 
0.465 0.344 0.153 3 
0.467 0.332 0.153 3 
0.467 0.322 0.152 3 
0.468 0.313 0.152 3 
0.464 0.095 0.146 3 
0.463 0.086 0.146 3 
0.464 0.003 0.146 3 
0.464 -0.014 0.146 3 
0.465 0.032 0.092 3 
0.463 -0.062 0.146 3 
0.275 -0.025 0.064 3 
0.461 -0.094 0.145 3 
0.255 -0.044 0.084 3 
0.254 -0.044 0.084 3 
0.462 0.34 0.149 3 
0.462 0.333 0.148 3 
0.463 0.234 0.063 3 
0.464 0.267 0.147 3 
0.462 0.194 0.144 3 
0.463 0.183 0.144 3 
0.464 0.172 0.144 3 
0.466 0.134 0.114 3 
0.465 0.186 0.115 3 
0.465 0.181 0.115 3 
0.465 0.178 0.114 3 
0.464 0.174 0.114 3 
0.464 0.163 0.114 3 
0.464 0.152 0.114 3 
0.466 0.145 0.114 3 
0.466 0.201 0.112 3 
0.466 0.142 0.114 3 
0.464 0.194 0.114 3 
0.466 0.122 0.114 3 
0.463 0.293 0.082 3 
0.464 0.116 0.114 3 
0.464 0.113 0.114 3 
0.464 0.094 0.052 3 
0.464 0.103 0.114 3 
0.465 0.097 0.114 3 
0.465 0.092 0.114 3 
0.464 0.084 0.114 3 
0.465 0.147 0.12 3 
0.464 0.341 0.123 3 
0.467 0.334 0.123 3 
0.469 0.323 0.123 3 
0.47 0.314 0.123 3 
0.469 0.303 0.123 3 
0.468 0.292 0.123 3 
0.467 0.281 0.122 3 
0.466 0.274 0.122 3 
0.465 0.21 0.12 3 
0.463 0.073 0.113 3 
0.464 0.122 0.119 3 
0.465 0.092 0.119 3 
0.246 -0.049 0.074 3 
0.465 0.155 0.117 3 
0.464 0.033 0.116 3 
0.466 -0.055 0.117 3 
0.46 -0.017 0.052 3 
0.465 0.264 0.116 3 
0.466 0.204 0.115 3 
0.464 0.152 0.092 3 
0.465 0.273 0.113 3 
0.464 0.313 0.097 3 
0.254 -0.042 0.074 3 
0.463 0.34 0.114 3 
0.464 0.334 0.114 3 
0.465 0.331 0.114 3 
0.465 0.321 0.114 3 
0.467 0.313 0.114 3 
0.467 0.304 0.114 3 
0.466 0.293 0.114 3 
0.466 0.283 0.113 3 
0.255 -0.042 0.074 3 
0.464 0.266 0.113 3 
0.464 0.263 0.113 3 
0.463 0.253 0.112 3 
0.463 0.244 0.112 3 
0.464 0.233 0.112 3 
0.465 0.224 0.112 3 
0.463 0.322 0.043 3 
0.466 0.213 0.112 3 
0.466 0.193 0.112 3 
0.464 0.006 0.113 3 
0.464 0.054 0.114 3 
0.465 0.046 0.114 3 
0.464 0.043 0.114 3 
0.464 0.214 0.024 3 
0.464 0.033 0.114 3 
0.465 0.254 0.099 3 
0.465 0.03 0.114 3 
0.465 0.022 0.114 3 
0.465 0.014 0.114 3 
0.242 -0.054 0.074 3 
0.463 0.264 0.074 3 
0.463 0.003 0.113 3 
0.46 0.164 0.014 3 
0.464 -0.006 0.113 3 
0.466 -0.015 0.114 3 
0.467 -0.025 0.114 3 
0.467 -0.036 0.114 3 
0.465 -0.047 0.114 3 
0.465 -0.055 0.114 3 
0.463 -0.057 0.113 3 
0.23 -0.074 0.074 3 
0.465 0.19 0.131 3 
0.463 0.174 0.13 3 
0.464 0.133 0.13 3 
0.465 0.064 0.06 3 
0.463 0.092 0.13 3 
0.464 0.084 0.13 3 
0.464 0.043 0.13 3 
0.463 0.243 0.063 3 
0.276 -0.034 0.084 3 
0.274 -0.034 0.084 3 
0.464 0.263 0.132 3 
0.23 -0.075 0.074 3 
0.463 0.333 0.131 3 
0.466 0.333 0.132 3 
0.467 0.324 0.132 3 
0.465 0.339 0.123 3 
0.464 0.122 0.127 3 
0.464 -0.062 0.127 3 
0.46 0.181 0.124 3 
0.459 0.172 0.124 3 
0.464 0.084 0.124 3 
0.467 -0.066 0.133 3 
0.467 0.022 0.133 3 
0.466 0.014 0.133 3 
0.466 0.003 0.133 3 
0.467 -0.006 0.133 3 
0.466 -0.017 0.133 3 
0.466 -0.025 0.133 3 
0.465 0.264 0.11 3 
0.467 -0.036 0.133 3 
0.468 -0.047 0.133 3 
0.467 -0.055 0.133 3 
0.464 0.073 0.124 3 
0.464 -0.071 0.133 3 
0.461 -0.075 0.132 3 
0.463 0.34 0.134 3 
0.466 0.303 0.134 3 
0.465 0.293 0.133 3 
0.465 0.314 0.074 3 
0.464 0.288 0.133 3 
0.466 0.284 0.133 3 
0.465 0.271 0.133 3 
0.464 0.267 0.133 3 
0.465 0.001 0.122 3 
0.464 0.111 0.122 3 
0.464 0.103 0.122 3 
0.465 0.1 0.122 3 
0.464 0.092 0.122 3 
0.465 0.038 0.122 3 
0.466 0.033 0.122 3 
0.465 0.022 0.122 3 
0.466 0.014 0.122 3 
0.464 0.009 0.121 3 
0.464 0.003 0.121 3 
0.465 0.114 0.122 3 
0.464 -0.006 0.121 3 
0.356 0.017 0.02 3 
0.465 -0.012 0.122 3 
0.465 -0.017 0.122 3 
0.467 -0.025 0.122 3 
0.467 -0.036 0.122 3 
0.466 -0.047 0.122 3 
0.464 -0.052 0.122 3 
0.459 -0.067 0.121 3 
0.285 -0.03 0.083 3 
0.464 -0.052 0.114 3 
0.463 0.062 0.124 3 
0.463 0.054 0.124 3 
0.464 0.043 0.124 3 
0.464 -0.057 0.124 3 
0.45 -0.067 0.121 3 
0.238 -0.062 0.074 3 
0.238 -0.065 0.074 3 
0.464 0.263 0.124 3 
0.463 0.244 0.123 3 
0.462 0.234 0.123 3 
0.465 0.136 0.152 3 
0.461 0.222 0.123 3 
0.463 0.202 0.123 3 
0.464 0.194 0.123 3 
0.463 0.163 0.122 3 
0.463 0.154 0.122 3 
0.464 0.182 0.054 3 
0.464 0.144 0.122 3 
0.465 0.133 0.122 3 
0.464 0.127 0.122 3 
0.465 0.122 0.122 3 
0.468 0.164 0.182 3 
0.467 0.249 0.184 3 
0.466 0.243 0.184 3 
0.469 0.233 0.184 3 
0.47 0.209 0.184 3 
0.462 0.214 0.123 3 
0.469 0.203 0.183 3 
0.465 0.038 0.103 3 
0.467 0.193 0.182 3 
0.466 0.183 0.182 3 
0.468 0.173 0.182 3 
0.464 0.183 0.114 3 
0.468 0.153 0.182 3 
0.464 0.204 0.142 3 
0.47 0.003 0.181 3 
0.463 0.043 0.052 3 
0.473 -0.007 0.182 3 
0.475 -0.015 0.183 3 
0.474 -0.018 0.183 3 
0.473 -0.026 0.182 3 
0.47 -0.037 0.172 3 
0.463 0.302 0.082 3 
0.47 0.083 0.184 3 
0.465 0.043 0.071 3 
0.47 0.072 0.184 3 
0.47 0.064 0.184 3 
0.471 0.053 0.184 3 
0.471 0.042 0.184 3 
0.465 0.112 0.163 3 
0.471 0.034 0.184 3 
0.469 0.023 0.183 3 
0.471 0.014 0.184 3 
0.472 -0.037 0.182 3 
0.474 -0.026 0.185 3 
0.32 -0.007 0.034 3 
0.234 -0.054 0.087 3 
0.225 -0.069 0.084 3 
0.474 0.354 0.192 3 
0.301 -0.024 0.074 3 
0.475 0.348 0.192 3 
0.475 0.344 0.192 3 
0.474 0.339 0.192 3 
0.472 0.299 0.188 3 
0.23 -0.062 0.084 3 
0.468 0.272 0.183 3 
0.466 0.264 0.181 3 
0.469 0.224 0.181 3 
0.464 0.083 0.074 3 
0.473 -0.045 0.179 3 
0.474 -0.056 0.18 3 
0.474 -0.065 0.18 3 
0.474 -0.096 0.18 3 
0.477 -0.105 0.181 3 
0.478 -0.117 0.182 3 
0.47 0.283 0.184 3 
0.471 0.331 0.184 3 
0.472 0.322 0.183 3 
0.471 0.314 0.183 3 
0.464 0.294 0.094 3 
0.474 0.303 0.183 3 
0.475 0.301 0.183 3 
0.464 0.256 0.178 3 
0.464 0.247 0.177 3 
0.464 0.244 0.177 3 
0.466 0.224 0.074 3 
0.465 0.226 0.163 3 
0.475 -0.046 0.183 3 
0.476 -0.057 0.183 3 
0.476 -0.065 0.183 3 
0.464 0.032 0.052 3 
0.476 -0.077 0.183 3 
0.465 -0.004 0.087 3 
0.473 -0.079 0.182 3 
0.473 -0.087 0.182 3 
0.475 -0.093 0.183 3 
0.471 0.092 0.184 3 
0.476 -0.096 0.184 3 
0.464 0.203 0.104 3 
0.476 -0.13 0.184 3 
0.47 -0.131 0.182 3 
0.471 -0.137 0.183 3 
0.259 -0.044 0.096 3 
0.255 -0.046 0.094 3 
0.474 0.357 0.19 3 
0.468 0.152 0.173 3 
0.471 0.291 0.184 3 
0.47 0.083 0.187 3 
0.464 0.281 0.093 3 
0.469 0.142 0.187 3 
0.466 0.132 0.186 3 
0.464 0.062 0.114 3 
0.466 0.124 0.186 3 
0.469 0.072 0.186 3 
0.468 0.113 0.186 3 
0.467 0.277 0.174 3 
0.469 0.102 0.187 3 
0.471 0.092 0.187 3 
0.468 0.153 0.187 3 
0.47 0.064 0.187 3 
0.472 0.053 0.187 3 
0.473 0.042 0.188 3 
0.473 0.034 0.188 3 
0.473 0.023 0.188 3 
0.471 0.014 0.187 3 
0.471 0.003 0.187 3 
0.474 -0.007 0.188 3 
0.476 -0.009 0.189 3 
0.472 0.241 0.192 3 
0.477 0.35 0.2 3 
0.474 0.329 0.197 3 
0.464 0.022 0.103 3 
0.473 0.324 0.196 3 
0.472 0.312 0.195 3 
0.472 0.289 0.194 3 
0.473 0.283 0.194 3 
0.471 0.272 0.193 3 
0.473 0.261 0.193 3 
0.472 0.251 0.192 3 
0.477 -0.015 0.189 3 
0.475 0.234 0.193 3 
0.474 0.231 0.192 3 
0.474 0.221 0.192 3 
0.466 -0.036 0.144 3 
0.471 0.21 0.19 3 
0.471 0.204 0.19 3 
0.469 0.191 0.189 3 
0.471 0.184 0.189 3 
0.469 0.171 0.188 3 
0.47 0.163 0.189 3 
0.223 -0.068 0.084 3 
0.257 -0.045 0.097 3 
0.464 0.059 0.138 3 
0.253 -0.046 0.095 3 
0.465 -0.006 0.111 3 
0.251 -0.047 0.094 3 
0.244 -0.048 0.091 3 
0.463 0.162 0.084 3 
0.235 -0.055 0.088 3 
0.234 -0.055 0.088 3 
0.228 -0.065 0.086 3 
0.474 -0.138 0.189 3 
0.475 0.344 0.195 3 
0.474 0.328 0.194 3 
0.474 0.324 0.193 3 
0.475 0.315 0.193 3 
0.474 0.311 0.193 3 
0.468 0.144 0.184 3 
0.468 0.133 0.184 3 
0.466 0.123 0.183 3 
0.468 0.113 0.184 3 
0.47 0.103 0.184 3 
0.467 0.314 0.134 3 
0.477 -0.026 0.19 3 
0.476 -0.035 0.189 3 
0.474 -0.04 0.188 3 
0.475 -0.046 0.189 3 
0.474 -0.048 0.188 3 
0.474 -0.057 0.188 3 
0.475 -0.062 0.189 3 
0.477 -0.066 0.189 3 
0.479 -0.077 0.19 3 
0.469 -0.045 0.153 3 
0.463 0.234 0.176 3 
0.478 -0.086 0.19 3 
0.476 -0.096 0.189 3 
0.481 -0.107 0.192 3 
0.483 -0.116 0.193 3 
0.306 -0.015 0.041 3 
0.481 -0.127 0.192 3 
0.469 -0.036 0.153 3 
0.479 -0.135 0.191 3 
0.464 0.033 0.151 3 
0.464 0.094 0.103 3 
0.468 -0.025 0.163 3 
0.465 0.222 0.115 3 
0.47 0.044 0.164 3 
0.469 0.033 0.164 3 
0.47 0.023 0.164 3 
0.47 0.014 0.164 3 
0.469 0.003 0.164 3 
0.468 -0.006 0.164 3 
0.468 -0.015 0.164 3 
0.468 0.063 0.164 3 
0.47 -0.037 0.164 3 
0.461 -0.113 0.162 3 
0.254 -0.044 0.089 3 
0.462 0.341 0.166 3 
0.466 0.257 0.164 3 
0.468 0.274 0.154 3 
0.466 0.251 0.164 3 
0.465 0.241 0.163 3 
0.464 0.231 0.163 3 
0.466 0.224 0.163 3 
0.467 -0.036 0.103 3 
0.464 0.199 0.167 3 
0.463 0.282 0.043 3 
0.475 0.02 0.169 3 
0.463 0.195 0.164 3 
0.463 0.193 0.164 3 
0.463 0.184 0.164 3 
0.465 0.179 0.164 3 
0.465 0.171 0.164 3 
0.464 0.161 0.163 3 
0.465 0.159 0.164 3 
0.467 0.213 0.163 3 
0.465 0.276 0.079 3 
0.466 0.154 0.164 3 
0.464 -0.057 0.14 3 
0.468 0.144 0.164 3 
0.467 0.132 0.164 3 
0.466 0.123 0.163 3 
0.466 0.104 0.163 3 
0.466 0.093 0.163 3 
0.468 0.082 0.164 3 
0.469 0.074 0.164 3 
0.464 0.243 0.154 3 
0.468 0.274 0.162 3 
0.464 0.249 0.16 3 
0.464 0.243 0.16 3 
0.245 -0.048 0.084 3 
0.462 0.334 0.16 3 
0.464 0.269 0.104 3 
0.469 0.324 0.162 3 
0.463 0.172 0.155 3 
0.465 0.038 0.154 3 
0.264 -0.067 0.044 3 
0.468 0.284 0.163 3 
0.464 0.234 0.154 3 
0.467 0.206 0.154 3 
0.466 0.203 0.154 3 
0.463 0.192 0.153 3 
0.462 0.183 0.152 3 
0.462 0.171 0.152 3 
0.464 0.164 0.152 3 
0.464 0.153 0.152 3 
0.465 0.15 0.153 3 
0.464 0.144 0.152 3 
0.461 0.284 0.024 3 
0.466 0.203 0.163 3 
0.471 -0.045 0.162 3 
0.473 -0.056 0.162 3 
0.473 -0.065 0.163 3 
0.464 0.294 0.105 3 
0.473 -0.076 0.163 3 
0.474 -0.087 0.163 3 
0.473 -0.095 0.163 3 
0.465 0.108 0.039 3 
0.471 -0.106 0.162 3 
0.464 0.222 0.168 3 
0.265 -0.041 0.092 3 
0.464 0.223 0.063 3 
0.462 0.341 0.163 3 
0.466 0.335 0.164 3 
0.467 0.333 0.164 3 
0.464 0.334 0.123 3 
0.293 -0.067 0.034 3 
0.469 0.314 0.164 3 
0.467 0.302 0.163 3 
0.466 0.291 0.162 3 
0.471 0.064 0.173 3 
0.468 0.144 0.173 3 
0.467 0.132 0.172 3 
0.467 0.124 0.172 3 
0.468 0.113 0.172 3 
0.467 0.104 0.172 3 
0.465 0.136 0.122 3 
0.468 0.094 0.172 3 
0.471 0.083 0.173 3 
0.469 0.072 0.172 3 
0.465 0.163 0.172 3 
0.464 0.196 0.153 3 
0.472 0.053 0.173 3 
0.465 0.224 0.054 3 
0.472 0.042 0.173 3 
0.462 0.314 0.091 3 
0.47 0.034 0.173 3 
0.47 0.05 0.164 3 
0.467 0.022 0.171 3 
0.467 0.003 0.171 3 
0.466 0.224 0.174 3 
0.464 0.159 0.175 3 
0.467 0.014 0.174 3 
0.474 -0.118 0.178 3 
0.26 -0.044 0.094 3 
0.469 0.351 0.181 3 
0.274 -0.061 0.044 3 
0.473 0.344 0.182 3 
0.464 0.238 0.174 3 
0.464 0.232 0.174 3 
0.465 0.229 0.174 3 
0.471 -0.007 0.173 3 
0.467 0.207 0.174 3 
0.467 0.204 0.174 3 
0.463 0.254 0.143 3 
0.465 0.194 0.173 3 
0.462 0.272 0.032 3 
0.465 0.183 0.173 3 
0.464 0.173 0.172 3 
0.465 0.171 0.173 3 
0.463 0.164 0.172 3 
0.465 0.113 0.02 3 
0.474 -0.112 0.172 3 
0.462 0.072 0.004 3 
0.465 0.253 0.172 3 
0.464 0.25 0.172 3 
0.465 0.244 0.172 3 
0.464 0.188 0.17 3 
0.465 0.035 0.106 3 
0.464 0.153 0.169 3 
0.464 0.135 0.084 3 
0.475 -0.101 0.172 3 
0.476 -0.107 0.173 3 
0.466 0.264 0.173 3 
0.463 0.244 0.104 3 
0.236 -0.053 0.084 3 
0.235 -0.055 0.084 3 
0.467 0.347 0.174 3 
0.469 0.342 0.174 3 
0.47 0.333 0.174 3 
0.47 0.323 0.174 3 
0.47 0.312 0.173 3 
0.469 0.301 0.172 3 
0.47 0.293 0.172 3 
0.465 0.003 0.103 3 
0.47 -0.015 0.173 3 
0.47 -0.026 0.173 3 
0.461 0.104 0.012 3 
0.473 -0.045 0.174 3 
0.295 -0.104 0.029 3 
0.475 -0.051 0.174 3 
0.275 -0.047 0.049 3 
0.475 -0.057 0.174 3 
0.457 -0.009 0.034 3 
0.474 -0.059 0.174 3 
0.465 0.172 0.112 3 
0.474 -0.065 0.174 3 
0.461 0.212 0.014 3 
0.473 -0.076 0.174 3 
0.472 -0.087 0.174 3 
0.474 -0.096 0.174 3 
0.473 -0.118 0.174 3 
0.471 -0.125 0.174 3 
0.467 0.274 0.174 3 
0.463 0.341 0.14 3 
0.463 0.264 0.032 3 
0.463 0.325 0.034 3 
0.463 0.322 0.034 3 
0.462 0.314 0.034 3 
0.463 0.304 0.034 3 
0.464 0.293 0.034 3 
0.465 0.147 0.036 3 
0.465 0.138 0.036 3 
0.285 -0.025 0.049 3 
0.469 0.346 0.03 3 
0.462 0.281 0.032 3 
0.466 0.332 0.034 3 
0.462 0.254 0.032 3 
0.462 0.242 0.032 3 
0.463 0.234 0.032 3 
0.464 0.223 0.032 3 
0.465 0.221 0.032 3 
0.465 0.212 0.032 3 
0.464 0.208 0.033 3 
0.463 0.202 0.033 3 
0.462 0.193 0.033 3 
0.464 0.174 0.033 3 
0.466 -0.007 0.042 3 
0.465 0.027 0.044 3 
0.465 0.024 0.044 3 
0.467 0.014 0.044 3 
0.466 0.003 0.044 3 
0.463 -0.004 0.044 3 
0.463 -0.007 0.044 3 
0.265 -0.055 0.053 3 
0.465 0.224 0.041 3 
0.465 0.212 0.041 3 
0.464 0.072 0.042 3 
0.463 0.162 0.033 3 
0.435 -0.011 0.043 3 
0.305 -0.044 0.036 3 
0.255 -0.065 0.053 3 
0.466 0.335 0.037 3 
0.465 0.29 0.037 3 
0.464 0.059 0.039 3 
0.446 -0.011 0.04 3 
0.468 0.344 0.033 3 
0.464 0.336 0.034 3 
0.465 0.051 0.028 3 
0.464 0.032 0.031 3 
0.464 0.003 0.031 3 
0.446 -0.004 0.033 3 
0.454 -0.006 0.032 3 
0.324 -0.008 0.043 3 
0.314 -0.01 0.044 3 
0.275 -0.035 0.048 3 
0.471 0.348 0.024 3 
0.465 0.067 0.028 3 
0.465 0.062 0.031 3 
0.464 0.244 0.024 3 
0.304 -0.015 0.044 3 
0.285 -0.053 0.046 3 
0.289 -0.057 0.045 3 
0.469 0.342 0.022 3 
0.468 0.334 0.022 3 
0.465 0.324 0.022 3 
0.464 0.054 0.034 3 
0.464 0.143 0.033 3 
0.464 0.132 0.033 3 
0.464 0.124 0.033 3 
0.465 0.113 0.033 3 
0.464 0.11 0.033 3 
0.463 0.102 0.033 3 
0.463 0.093 0.033 3 
0.462 0.082 0.034 3 
0.463 0.072 0.034 3 
0.464 0.064 0.034 3 
0.464 0.032 0.044 3 
0.464 0.043 0.034 3 
0.465 0.038 0.034 3 
0.465 0.032 0.034 3 
0.465 0.024 0.034 3 
0.467 0.014 0.033 3 
0.467 0.003 0.034 3 
0.275 -0.055 0.049 3 
0.465 0.144 0.03 3 
0.465 0.133 0.03 3 
0.465 0.124 0.03 3 
0.465 0.097 0.049 3 
0.467 0.014 0.052 3 
0.466 0.003 0.052 3 
0.463 -0.004 0.052 3 
0.463 -0.007 0.052 3 
0.443 -0.013 0.053 3 
0.464 0.202 0.049 3 
0.467 0.184 0.049 3 
0.465 0.113 0.049 3 
0.465 0.024 0.052 3 
0.465 0.038 0.05 3 
0.304 -0.01 0.054 3 
0.299 -0.015 0.054 3 
0.28 -0.025 0.054 3 
0.465 0.301 0.045 3 
0.464 0.083 0.047 3 
0.465 -0.012 0.047 3 
0.307 -0.009 0.052 3 
0.274 -0.028 0.054 3 
0.268 -0.035 0.054 3 
0.465 0.152 0.052 3 
0.466 0.213 0.054 3 
0.464 0.205 0.054 3 
0.464 0.191 0.054 3 
0.465 0.189 0.054 3 
0.465 0.287 0.051 3 
0.464 0.223 0.052 3 
0.462 0.173 0.052 3 
0.463 0.162 0.052 3 
0.464 0.154 0.052 3 
0.265 -0.045 0.054 3 
0.464 0.143 0.052 3 
0.463 0.132 0.052 3 
0.463 0.124 0.052 3 
0.465 0.119 0.052 3 
0.464 0.113 0.052 3 
0.466 0.089 0.052 3 
0.466 0.073 0.052 3 
0.465 0.062 0.052 3 
0.465 0.03 0.052 3 
0.463 0.113 0.044 3 
0.464 0.214 0.043 3 
0.464 0.202 0.043 3 
0.463 0.193 0.044 3 
0.462 0.184 0.044 3 
0.463 0.173 0.044 3 
0.463 0.162 0.044 3 
0.463 0.154 0.044 3 
0.463 0.143 0.044 3 
0.463 0.132 0.044 3 
0.463 0.124 0.044 3 
0.464 0.223 0.043 3 
0.463 0.102 0.044 3 
0.464 0.094 0.044 3 
0.465 0.086 0.044 3 
0.465 0.083 0.044 3 
0.464 0.08 0.044 3 
0.465 0.073 0.044 3 
0.465 0.064 0.044 3 
0.464 0.054 0.044 3 
0.465 0.048 0.044 3 
0.464 0.04 0.044 3 
0.464 0.303 0.043 3 
0.264 -0.052 0.054 3 
0.263 -0.055 0.054 3 
0.254 -0.063 0.054 3 
0.253 -0.065 0.054 3 
0.249 -0.075 0.054 3 
0.463 0.339 0.042 3 
0.462 0.334 0.042 3 
0.468 0.334 0.042 3 
0.463 0.312 0.043 3 
0.464 0.319 0.023 3 
0.465 0.297 0.043 3 
0.464 0.293 0.043 3 
0.463 0.273 0.043 3 
0.463 0.264 0.043 3 
0.462 0.224 0.024 3 
0.464 0.252 0.043 3 
0.462 0.242 0.043 3 
0.462 0.233 0.043 3 
0.294 -0.065 0.035 3 
0.464 0.194 0.003 3 
0.356 0.014 0.02 3 
0.337 -0.002 0.024 3 
0.283 -0.07 0.034 3 
0.343 0.017 0.021 3 
0.345 0.016 0.021 3 
0.312 -0.015 0.034 3 
0.461 0.064 0.013 3 
0.462 0.053 0.013 3 
0.463 0.043 0.012 3 
0.33 -0.005 0.033 3 
0.311 -0.025 0.035 3 
0.276 -0.065 0.04 3 
0.314 -0.011 0.034 3 
0.345 0.014 0.021 3 
0.315 -0.022 0.033 3 
0.317 -0.025 0.033 3 
0.312 -0.029 0.034 3 
0.314 -0.044 0.034 3 
0.309 -0.07 0.034 3 
0.334 -0.004 0.029 3 
0.304 -0.081 0.024 3 
0.343 0.017 0.013 3 
0.286 -0.085 0.027 3 
0.299 -0.087 0.022 3 
0.329 -0.005 0.024 3 
0.343 0.014 0.019 3 
0.323 -0.008 0.024 3 
0.321 -0.016 0.024 3 
0.276 -0.075 0.033 3 
0.277 -0.088 0.033 3 
0.462 0.074 0.012 3 
0.294 -0.076 0.028 3 
0.463 0.064 0.023 3 
0.464 0.008 0.023 3 
0.463 0.154 0.022 3 
0.464 0.143 0.022 3 
0.464 0.132 0.022 3 
0.465 0.124 0.022 3 
0.464 0.113 0.023 3 
0.463 0.104 0.023 3 
0.463 0.094 0.023 3 
0.463 0.083 0.023 3 
0.464 0.072 0.023 3 
0.462 0.162 0.022 3 
0.463 0.053 0.023 3 
0.464 0.043 0.023 3 
0.462 0.032 0.023 3 
0.463 0.024 0.023 3 
0.465 0.003 0.023 3 
0.297 -0.075 0.029 3 
0.463 0 0.023 3 
0.295 -0.025 0.042 3 
0.282 -0.035 0.044 3 
0.463 0.024 0.026 3 
0.463 0.314 0.023 3 
0.461 0.303 0.023 3 
0.461 0.293 0.023 3 
0.465 0.263 0.023 3 
0.464 0.259 0.024 3 
0.465 0.253 0.024 3 
0.464 0.25 0.024 3 
0.462 0.233 0.024 3 
0.465 0.209 0.024 3 
0.464 0.203 0.024 3 
0.285 -0.044 0.044 3 
0.292 -0.025 0.044 3 
0.287 -0.052 0.044 3 
0.293 -0.055 0.044 3 
0.463 0.193 0.022 3 
0.463 0.182 0.022 3 
0.462 0.173 0.022 3 
0.296 -0.035 0.039 3 
0.462 0.193 0.014 3 
0.461 0.184 0.014 3 
0.461 0.172 0.014 3 
0.461 0.147 0.014 3 
0.462 0.137 0.014 3 
0.463 0.123 0.015 3 
0.464 0.121 0.014 3 
0.335 -0.005 0.033 3 
0.463 0.202 0.014 3 
0.3 -0.047 0.038 3 
0.462 0.134 0.012 3 
0.461 0.114 0.012 3 
0.461 0.093 0.012 3 
0.462 0.083 0.012 3 
0.267 -0.093 0.043 3 
0.283 -0.059 0.044 3 
0.464 0.327 0.017 3 
0.466 0.127 0.02 3 
0.465 0.016 0.02 3 
0.299 -0.062 0.041 3 
0.267 -0.065 0.044 3 
0.465 0.203 0.054 3 
0.461 0.312 0.012 3 
0.461 0.303 0.012 3 
0.461 0.293 0.012 3 
0.463 0.283 0.012 3 
0.462 0.263 0.013 3 
0.462 0.254 0.013 3 
0.461 0.244 0.013 3 
0.458 0.233 0.014 3 
0.457 0.224 0.014 3 
0.463 0.193 0.092 3 
0.466 0.264 0.093 3 
0.465 0.1 0.068 3 
0.463 0.259 0.093 3 
0.463 0.25 0.093 3 
0.463 0.243 0.093 3 
0.463 0.234 0.093 3 
0.464 0.223 0.093 3 
0.465 0.218 0.093 3 
0.465 0.212 0.093 3 
0.463 0.202 0.093 3 
0.464 0.269 0.093 3 
0.462 0.184 0.092 3 
0.464 0.174 0.093 3 
0.464 0.059 0.052 3 
0.465 0.166 0.093 3 
0.464 0.163 0.092 3 
0.464 0.143 0.092 3 
0.463 0.132 0.092 3 
0.463 0.124 0.092 3 
0.464 0.113 0.092 3 
0.463 0.102 0.092 3 
0.283 -0.024 0.072 3 
0.463 0.293 0.099 3 
0.464 0.183 0.098 3 
0.464 0.166 0.098 3 
0.465 0.114 0.098 3 
0.465 0.043 0.044 3 
0.289 -0.023 0.074 3 
0.466 0.043 0.092 3 
0.245 -0.065 0.069 3 
0.464 0.208 0.095 3 
0.46 0.336 0.094 3 
0.46 0.332 0.094 3 
0.464 0.323 0.094 3 
0.465 0.318 0.094 3 
0.465 0.314 0.094 3 
0.464 0.303 0.094 3 
0.465 0.285 0.094 3 
0.332 -0.004 0.023 3 
0.465 0.276 0.093 3 
0.465 0.273 0.093 3 
0.464 0.124 0.084 3 
0.255 -0.045 0.066 3 
0.462 0.245 0.084 3 
0.463 0.231 0.084 3 
0.465 0.203 0.085 3 
0.464 0.2 0.084 3 
0.463 0.174 0.084 3 
0.462 0.334 0.051 3 
0.463 0.154 0.084 3 
0.465 0.144 0.084 3 
0.464 0.132 0.084 3 
0.465 0.014 0.023 3 
0.465 0.119 0.084 3 
0.466 0.114 0.084 3 
0.464 0.102 0.084 3 
0.463 0.094 0.084 3 
0.463 0.083 0.084 3 
0.463 0.072 0.084 3 
0.463 0.064 0.084 3 
0.464 0.054 0.084 3 
0.463 0.234 0.054 3 
0.465 0.043 0.084 3 
0.465 0.019 0.092 3 
0.462 0.094 0.092 3 
0.463 0.083 0.092 3 
0.463 0.072 0.092 3 
0.463 0.064 0.092 3 
0.463 0.054 0.092 3 
0.465 0.083 0.052 3 
0.465 0.051 0.092 3 
0.464 0.03 0.092 3 
0.463 0.102 0.052 3 
0.464 0.024 0.092 3 
0.464 0.3 0.099 3 
0.463 0.014 0.092 3 
0.463 0.003 0.092 3 
0.465 -0.006 0.092 3 
0.466 -0.015 0.092 3 
0.467 -0.025 0.093 3 
0.465 -0.036 0.092 3 
0.465 0.114 0.09 3 
0.465 0.103 0.087 3 
0.464 0.04 0.087 3 
0.465 0.183 0.104 3 
0.463 0.182 0.084 3 
0.464 0.263 0.104 3 
0.465 0.258 0.104 3 
0.463 0.253 0.104 3 
0.464 0.323 0.082 3 
0.465 0.233 0.104 3 
0.465 0.224 0.104 3 
0.465 0.212 0.104 3 
0.464 0.194 0.104 3 
0.465 0.186 0.104 3 
0.236 -0.075 0.07 3 
0.466 0.173 0.104 3 
0.466 0.164 0.104 3 
0.464 0.155 0.103 3 
0.465 0.152 0.103 3 
0.464 0.146 0.103 3 
0.465 0.144 0.103 3 
0.465 0.133 0.103 3 
0.464 0.124 0.103 3 
0.465 0.119 0.103 3 
0.465 0.084 0.108 3 
0.465 0.164 0.112 3 
0.464 0.094 0.111 3 
0.465 0.062 0.111 3 
0.463 0.243 0.082 3 
0.464 0.022 0.111 3 
0.465 -0.001 0.111 3 
0.463 0.053 0.063 3 
0.464 0.274 0.054 3 
0.299 -0.028 0.081 3 
0.465 0.234 0.11 3 
0.464 0.113 0.103 3 
0.314 -0.03 0.083 3 
0.265 -0.034 0.074 3 
0.465 0.103 0.082 3 
0.464 0.323 0.108 3 
0.464 0.197 0.106 3 
0.465 0.114 0.106 3 
0.464 -0.041 0.106 3 
0.457 -0.048 0.104 3 
0.245 -0.055 0.071 3 
0.265 -0.065 0.045 3 
0.465 0.279 0.102 3 
0.263 -0.034 0.072 3 
0.46 0.336 0.102 3 
0.461 0.334 0.102 3 
0.464 0.323 0.102 3 
0.465 0.318 0.102 3 
0.465 0.314 0.102 3 
0.466 0.302 0.102 3 
0.465 0.292 0.102 3 
0.464 0.281 0.102 3 
0.462 0.334 0.082 3 
0.276 -0.028 0.074 3 
0.465 0.27 0.102 3 
0.465 0.239 0.101 3 
0.464 0.232 0.101 3 
0.462 0.272 0.013 3 
0.464 0.22 0.101 3 
0.464 0.144 0.1 3 
0.301 -0.068 0.034 3 
0.464 0.133 0.1 3 
0.464 0.003 0.1 3 
0.291 -0.024 0.075 3 
0.464 0.032 0.103 3 
0.464 0.102 0.103 3 
0.463 0.083 0.103 3 
0.464 0.073 0.103 3 
0.465 0.068 0.103 3 
0.464 0.062 0.103 3 
0.465 0.059 0.103 3 
0.464 0.054 0.103 3 
0.465 0.051 0.103 3 
0.293 -0.018 0.054 3 
0.464 0.043 0.103 3 
0.465 0.048 0.084 3 
0.465 0.025 0.103 3 
0.466 -0.006 0.103 3 
0.463 0.193 0.084 3 
0.467 -0.015 0.103 3 
0.464 0.054 0.052 3 
0.468 -0.025 0.103 3 
0.464 -0.041 0.103 3 
0.465 -0.047 0.103 3 
0.465 0.221 0.063 3 
0.461 0.336 0.062 3 
0.464 0.323 0.062 3 
0.272 -0.095 0.041 3 
0.462 0.311 0.062 3 
0.464 0.303 0.062 3 
0.464 0.294 0.062 3 
0.464 0.284 0.063 3 
0.465 0.275 0.063 3 
0.464 0.271 0.063 3 
0.462 0.26 0.062 3 
0.462 0.254 0.062 3 
0.465 0.212 0.063 3 
0.465 0.203 0.063 3 
0.465 0.192 0.063 3 
0.464 0.182 0.063 3 
0.464 0.174 0.063 3 
0.463 0.154 0.063 3 
0.464 0.141 0.063 3 
0.464 0.132 0.063 3 
0.464 0.124 0.063 3 
0.464 0.113 0.063 3 
0.465 0.192 0.071 3 
0.465 0.032 0.084 3 
0.465 0.011 0.074 3 
0.465 0.003 0.074 3 
0.465 -0.007 0.074 3 
0.464 -0.009 0.074 3 
0.465 -0.015 0.074 3 
0.465 -0.025 0.074 3 
0.293 -0.018 0.064 3 
0.464 0.313 0.071 3 
0.465 0.111 0.063 3 
0.465 0.183 0.071 3 
0.464 0.003 0.071 3 
0.463 -0.028 0.071 3 
0.465 0.269 0.068 3 
0.465 0.13 0.068 3 
0.465 0.094 0.068 3 
0.465 0.084 0.068 3 
0.465 0.024 0.068 3 
0.255 -0.055 0.061 3 
0.462 0.337 0.054 3 
0.465 0.13 0.06 3 
0.464 0.102 0.06 3 
0.465 0.094 0.06 3 
0.465 0.035 0.06 3 
0.245 -0.075 0.058 3 
0.465 0.337 0.057 3 
0.464 0.214 0.057 3 
0.465 0.18 0.057 3 
0.265 -0.035 0.057 3 
0.263 -0.106 0.058 3 
0.465 0.158 0.06 3 
0.466 0.335 0.054 3 
0.465 0.331 0.054 3 
0.464 0.323 0.054 3 
0.463 0.312 0.054 3 
0.464 0.303 0.054 3 
0.463 0.293 0.054 3 
0.464 0.283 0.054 3 
0.463 0.264 0.054 3 
0.462 0.254 0.054 3 
0.463 0.243 0.054 3 
0.465 0.022 0.063 3 
0.465 0.103 0.063 3 
0.464 0.094 0.063 3 
0.463 0.083 0.063 3 
0.465 0.081 0.063 3 
0.465 0.073 0.063 3 
0.464 0.064 0.063 3 
0.464 0.043 0.063 3 
0.464 0.032 0.063 3 
0.464 0.024 0.063 3 
0.464 0.014 0.074 3 
0.465 0.003 0.063 3 
0.464 0 0.063 3 
0.463 -0.006 0.063 3 
0.464 -0.017 0.063 3 
0.451 -0.021 0.063 3 
0.3 -0.013 0.06 3 
0.465 0.334 0.06 3 
0.464 0.185 0.06 3 
0.318 -0.009 0.048 3 
0.465 0.215 0.079 3 
0.464 0.108 0.082 3 
0.464 0.043 0.081 3 
0.464 0.032 0.081 3 
0.465 -0.001 0.082 3 
0.465 -0.036 0.082 3 
0.251 -0.051 0.064 3 
0.25 -0.055 0.064 3 
0.465 0.317 0.08 3 
0.465 0.314 0.08 3 
0.465 0.304 0.08 3 
0.465 0.125 0.082 3 
0.463 0.273 0.024 3 
0.465 0.065 0.079 3 
0.32 -0.021 0.069 3 
0.263 -0.034 0.064 3 
0.263 -0.035 0.064 3 
0.464 0.024 0.074 3 
0.465 0.089 0.076 3 
0.465 0.062 0.076 3 
0.461 0.337 0.082 3 
0.464 0.024 0.084 3 
0.464 0.014 0.084 3 
0.463 0.003 0.084 3 
0.465 -0.025 0.084 3 
0.464 -0.028 0.084 3 
0.464 -0.036 0.084 3 
0.465 0.144 0.063 3 
0.24 -0.07 0.064 3 
0.237 -0.075 0.064 3 
0.284 -0.033 0.044 3 
0.256 -0.045 0.064 3 
0.464 0.313 0.082 3 
0.463 0.283 0.082 3 
0.463 0.274 0.082 3 
0.462 0.264 0.082 3 
0.464 0.223 0.082 3 
0.464 0.214 0.082 3 
0.465 0.212 0.082 3 
0.465 0.203 0.082 3 
0.465 0.147 0.082 3 
0.463 0.143 0.073 3 
0.464 0.205 0.074 3 
0.465 0.016 0.076 3 
0.296 -0.018 0.064 3 
0.465 0.2 0.074 3 
0.464 0.194 0.074 3 
0.464 0.183 0.074 3 
0.465 0.147 0.03 3 
0.464 0.174 0.074 3 
0.463 0.162 0.073 3 
0.463 0.154 0.073 3 
0.464 0.203 0.074 3 
0.463 0.132 0.073 3 
0.463 0.124 0.073 3 
0.464 0.102 0.073 3 
0.464 0.094 0.073 3 
0.464 0.073 0.074 3 
0.465 0.067 0.074 3 
0.465 0.062 0.074 3 
0.466 0.054 0.074 3 
0.464 0.043 0.073 3 
0.463 0.032 0.073 3 
0.463 0.271 0.074 3 
0.465 0.327 0.074 3 
0.464 0.323 0.074 3 
0.465 0.321 0.074 3 
0.465 0.301 0.074 3 
0.464 0.281 0.074 3 
0.462 0.334 0.074 3 
0.465 0.212 0.074 3 
0.465 0.279 0.074 3 
0.462 0.338 0.074 3 
0.462 0.254 0.074 3 
0.462 0.242 0.073 3 
0.274 -0.025 0.064 3 
0.277 -0.024 0.064 3 
0.464 -0.006 0.076 3 
0.463 0.234 0.074 3 
0.465 0.229 0.074 3 
0.465 0.008 0.076 3 
0.255 -0.075 0.048 7 
0.249 -0.085 0.054 7 
0.266 -0.075 0.04 7 
0.259 -0.077 0.044 7 
0.273 -0.075 0.034 7 
0.261 -0.086 0.044 7 
0.248 -0.094 0.06 7 
0.239 -0.085 0.062 7 
0.252 -0.097 0.06 7 
0.255 -0.093 0.054 7 
