# .PCD v0.7 - Point Cloud Data file
FIELDS x y z intensity
SIZE 4 4 4 4
TYPE F F F F
COUNT 1 1 1 1
WIDTH 2423
HEIGHT 1
VIEWPOINT 0 0 0 1 0 0 0
POINTS 2423
DATA ascii
0.34 0.017 0.004 0 
0.34 0.012 0.004 0 
0.348 -0.001 0.004 0 
0.341 0.003 0.004 0 
0.363 -0.156 -0.018 1 
0.364 -0.145 -0.018 1 
0.36 -0.125 -0.016 1 
0.361 -0.106 -0.016 1 
0.352 -0.056 -0.012 1 
0.354 -0.046 -0.012 1 
0.354 -0.036 -0.012 1 
0.351 -0.026 -0.011 1 
0.334 0.004 -0.005 1 
0.334 0.012 -0.005 1 
0.35 0.043 -0.011 1 
0.353 0.064 -0.013 1 
0.354 0.084 -0.014 1 
0.354 0.094 -0.014 1 
0.352 0.104 -0.013 1 
0.351 0.114 -0.013 1 
0.353 0.142 -0.015 1 
0.354 0.153 -0.016 1 
0.346 0.168 -0.014 1 
0.344 0.204 -0.015 1 
0.343 0.205 -0.015 1 
0.379 -0.231 -0.025 1 
0.372 -0.147 -0.019 1 
0.363 -0.092 -0.015 1 
0.362 -0.086 -0.014 1 
0.363 -0.079 -0.014 1 
0.363 -0.066 -0.014 1 
0.36 -0.036 -0.013 1 
0.352 -0.016 -0.01 1 
0.338 0.014 -0.005 1 
0.354 0.123 -0.013 1 
0.353 0.133 -0.013 1 
0.354 0.136 -0.013 1 
0.354 0.173 -0.015 1 
0.352 0.181 -0.015 1 
0.349 0.211 -0.016 1 
0.383 -0.246 -0.025 1 
0.382 -0.235 -0.024 1 
0.38 -0.227 -0.023 1 
0.374 -0.195 -0.02 1 
0.374 -0.186 -0.019 1 
0.374 -0.175 -0.019 1 
0.373 -0.136 -0.017 1 
0.374 -0.128 -0.017 1 
0.372 -0.115 -0.016 1 
0.369 -0.096 -0.015 1 
0.368 -0.085 -0.014 1 
0.37 -0.076 -0.015 1 
0.364 -0.056 -0.013 1 
0.361 -0.025 -0.012 1 
0.352 -0.006 -0.008 1 
0.341 0.016 -0.005 1 
0.361 0.044 -0.012 1 
0.361 0.053 -0.012 1 
0.363 0.064 -0.013 1 
0.364 0.068 -0.013 1 
0.362 0.084 -0.013 1 
0.363 0.09 -0.013 1 
0.365 0.105 -0.014 1 
0.359 0.134 -0.013 1 
0.364 0.153 -0.015 1 
0.357 0.184 -0.015 1 
0.359 0.194 -0.016 1 
0.354 0.217 -0.016 1 
0.391 -0.255 -0.026 1 
0.38 -0.198 -0.02 1 
0.38 -0.165 -0.018 1 
0.381 -0.155 -0.018 1 
0.374 -0.089 -0.015 1 
0.372 -0.066 -0.014 1 
0.372 -0.045 -0.013 1 
0.359 -0.015 -0.009 1 
0.364 0.027 -0.011 1 
0.372 0.103 -0.015 1 
0.37 0.123 -0.015 1 
0.369 0.133 -0.015 1 
0.384 -0.206 -0.019 1 
0.383 -0.125 -0.016 1 
0.384 -0.116 -0.017 1 
0.381 -0.098 -0.015 1 
0.379 -0.095 -0.014 1 
0.383 -0.087 -0.016 1 
0.384 -0.077 -0.016 1 
0.374 -0.036 -0.012 1 
0.371 -0.025 -0.011 1 
0.345 0.018 -0.003 1 
0.354 0.02 -0.006 1 
0.371 0.044 -0.012 1 
0.374 0.083 -0.013 1 
0.376 0.117 -0.015 1 
0.374 0.124 -0.014 1 
0.374 0.138 -0.015 1 
0.372 0.144 -0.014 1 
0.371 0.148 -0.014 1 
0.371 0.184 -0.016 1 
0.364 0.223 -0.015 1 
0.362 0.226 -0.015 1 
0.402 -0.259 -0.025 1 
0.371 0.054 -0.012 1 
0.401 -0.255 -0.024 1 
0.402 -0.245 -0.024 1 
0.391 -0.215 -0.02 1 
0.393 -0.205 -0.02 1 
0.39 -0.186 -0.018 1 
0.374 -0.224 -0.025 1 
0.39 -0.106 -0.016 1 
0.386 -0.074 -0.015 1 
0.381 -0.065 -0.013 1 
0.381 -0.045 -0.013 1 
0.381 -0.036 -0.013 1 
0.38 -0.026 -0.013 1 
0.371 -0.016 -0.01 1 
0.359 -0.002 -0.006 1 
0.381 0.074 -0.013 1 
0.382 0.084 -0.014 1 
0.381 0.1 -0.014 1 
0.383 0.103 -0.015 1 
0.382 0.112 -0.015 1 
0.381 0.114 -0.014 1 
0.38 0.142 -0.015 1 
0.377 0.144 -0.014 1 
0.374 0.222 -0.016 1 
0.373 0.233 -0.017 1 
0.406 -0.28 -0.025 1 
0.404 -0.272 -0.024 1 
0.411 -0.249 -0.025 1 
0.403 -0.238 -0.022 1 
0.394 -0.158 -0.017 1 
0.394 -0.125 -0.016 1 
0.394 -0.119 -0.016 1 
0.393 -0.083 -0.015 1 
0.388 -0.065 -0.013 1 
0.39 -0.055 -0.014 1 
0.38 -0.016 -0.011 1 
0.375 -0.006 -0.009 1 
0.374 -0.005 -0.009 1 
0.373 -0.003 -0.008 1 
0.363 0.021 -0.005 1 
0.374 0.026 -0.009 1 
0.378 0.032 -0.01 1 
0.384 0.041 -0.012 1 
0.389 0.099 -0.014 1 
0.389 0.103 -0.015 1 
0.389 0.107 -0.015 1 
0.387 0.113 -0.014 1 
0.386 0.144 -0.015 1 
0.382 0.153 -0.014 1 
0.383 0.161 -0.014 1 
0.384 0.163 -0.015 1 
0.381 0.171 -0.014 1 
0.374 0.152 -0.015 1 
0.38 0.231 -0.016 1 
0.412 -0.267 -0.023 1 
0.413 -0.257 -0.023 1 
0.413 -0.246 -0.023 1 
0.384 -0.215 -0.021 1 
0.403 -0.231 -0.019 1 
0.402 -0.216 -0.019 1 
0.4 -0.206 -0.018 1 
0.403 -0.197 -0.018 1 
0.398 -0.186 -0.016 1 
0.401 -0.156 -0.016 1 
0.398 -0.097 -0.015 1 
0.398 -0.095 -0.014 1 
0.399 -0.076 -0.015 1 
0.392 -0.045 -0.012 1 
0.394 -0.04 -0.013 1 
0.392 -0.025 -0.012 1 
0.39 -0.015 -0.012 1 
0.355 -0.001 -0.001 1 
0.392 0.063 -0.013 1 
0.398 -0.244 -0.025 1 
0.394 0.074 -0.014 1 
0.394 0.082 -0.014 1 
0.394 0.093 -0.014 1 
0.396 0.113 -0.015 1 
0.395 0.121 -0.015 1 
0.394 0.123 -0.014 1 
0.394 0.127 -0.015 1 
0.392 0.134 -0.014 1 
0.389 0.154 -0.014 1 
0.388 0.169 -0.014 1 
0.389 0.184 -0.015 1 
0.388 0.203 -0.015 1 
0.383 0.244 -0.016 1 
0.383 0.249 -0.016 1 
0.411 -0.285 -0.022 1 
0.413 -0.235 -0.02 1 
0.41 -0.227 -0.019 1 
0.404 -0.176 -0.016 1 
0.404 -0.172 -0.016 1 
0.403 -0.146 -0.015 1 
0.404 -0.14 -0.015 1 
0.407 -0.097 -0.015 1 
0.406 -0.085 -0.015 1 
0.406 -0.081 -0.015 1 
0.401 -0.066 -0.013 1 
0.402 -0.045 -0.013 1 
0.402 -0.035 -0.013 1 
0.4 0.074 -0.013 1 
0.374 -0.105 -0.017 1 
0.399 0.123 -0.014 1 
0.394 0.16 -0.013 1 
0.396 0.173 -0.015 1 
0.393 0.194 -0.014 1 
0.391 0.201 -0.014 1 
0.392 0.205 -0.014 1 
0.394 0.223 -0.016 1 
0.389 0.241 -0.015 1 
0.421 -0.285 -0.022 1 
0.422 -0.266 -0.021 1 
0.423 -0.255 -0.021 1 
0.421 -0.235 -0.02 1 
0.364 -0.006 -0.007 1 
0.414 -0.216 -0.017 1 
0.414 -0.214 -0.017 1 
0.414 -0.196 -0.017 1 
0.409 -0.185 -0.015 1 
0.413 -0.171 -0.016 1 
0.411 -0.146 -0.015 1 
0.41 -0.143 -0.014 1 
0.352 0.193 -0.015 1 
0.414 -0.136 -0.015 1 
0.392 -0.245 -0.025 1 
0.413 -0.115 -0.015 1 
0.413 -0.108 -0.015 1 
0.412 -0.105 -0.014 1 
0.411 -0.085 -0.014 1 
0.41 -0.075 -0.014 1 
0.408 -0.046 -0.013 1 
0.404 -0.016 -0.012 1 
0.403 0.034 -0.012 1 
0.404 0.051 -0.012 1 
0.405 0.054 -0.012 1 
0.403 0.134 -0.013 1 
0.392 0.024 -0.012 1 
0.404 0.144 -0.014 1 
0.402 0.154 -0.013 1 
0.4 0.164 -0.013 1 
0.403 0.178 -0.014 1 
0.403 0.183 -0.015 1 
0.402 0.189 -0.015 1 
0.399 0.194 -0.014 1 
0.4 0.224 -0.015 1 
0.399 0.233 -0.015 1 
0.394 0.262 -0.015 1 
0.424 -0.251 -0.019 1 
0.42 -0.226 -0.017 1 
0.424 -0.217 -0.018 1 
0.422 -0.197 -0.017 1 
0.419 -0.156 -0.015 1 
0.42 -0.095 -0.014 1 
0.418 -0.067 -0.014 1 
0.414 -0.026 -0.012 1 
0.414 0.063 -0.013 1 
0.412 0.073 -0.012 1 
0.412 0.084 -0.013 1 
0.412 0.093 -0.013 1 
0.41 0.133 -0.013 1 
0.408 0.144 -0.012 1 
0.411 0.153 -0.014 1 
0.408 0.162 -0.013 1 
0.403 0.214 -0.013 1 
0.404 0.22 -0.014 1 
0.404 0.241 -0.015 1 
0.402 0.244 -0.014 1 
0.402 0.249 -0.015 1 
0.401 0.253 -0.014 1 
0.401 0.264 -0.015 1 
0.399 0.267 -0.015 1 
0.434 -0.309 -0.021 1 
0.43 -0.286 -0.019 1 
0.431 -0.275 -0.019 1 
0.432 -0.245 -0.018 1 
0.425 -0.187 -0.015 1 
0.424 -0.178 -0.014 1 
0.425 -0.177 -0.015 1 
0.403 -0.252 -0.025 1 
0.426 -0.157 -0.015 1 
0.423 -0.146 -0.014 1 
0.423 -0.136 -0.013 1 
0.424 -0.125 -0.013 1 
0.423 -0.115 -0.013 1 
0.371 0.212 -0.017 1 
0.424 -0.108 -0.013 1 
0.424 -0.08 -0.013 1 
0.423 -0.056 -0.013 1 
0.383 -0.187 -0.018 1 
0.39 -0.147 -0.017 1 
0.4 0.104 -0.014 1 
0.424 -0.036 -0.013 1 
0.421 -0.026 -0.012 1 
0.419 0.064 -0.012 1 
0.417 0.093 -0.012 1 
0.411 0.194 -0.013 1 
0.412 0.243 -0.015 1 
0.41 0.263 -0.015 1 
0.408 0.274 -0.015 1 
0.434 -0.255 -0.016 1 
0.435 -0.242 -0.016 1 
0.432 -0.225 -0.015 1 
0.432 -0.215 -0.015 1 
0.429 -0.205 -0.014 1 
0.43 -0.185 -0.014 1 
0.371 0.097 -0.014 1 
0.432 -0.176 -0.014 1 
0.43 -0.125 -0.013 1 
0.43 -0.106 -0.012 1 
0.431 -0.096 -0.013 1 
0.431 -0.075 -0.012 1 
0.431 -0.006 -0.013 1 
0.464 -0.004 -0.021 1 
0.423 0.074 -0.011 1 
0.422 0.104 -0.011 1 
0.424 0.117 -0.012 1 
0.423 0.153 -0.012 1 
0.421 0.164 -0.012 1 
0.418 0.174 -0.012 1 
0.417 0.194 -0.012 1 
0.414 0.206 -0.011 1 
0.417 0.279 -0.015 1 
0.38 0.123 -0.014 1 
0.414 0.284 -0.014 1 
0.441 -0.297 -0.017 1 
0.442 -0.28 -0.017 1 
0.438 -0.256 -0.015 1 
0.381 -0.074 -0.015 1 
0.434 -0.198 -0.013 1 
0.434 -0.157 -0.012 1 
0.434 -0.152 -0.012 1 
0.434 -0.144 -0.012 1 
0.434 -0.115 -0.011 1 
0.434 -0.088 -0.011 1 
0.434 -0.054 -0.011 1 
0.433 0.043 -0.011 1 
0.431 0.052 -0.01 1 
0.432 0.062 -0.011 1 
0.433 0.072 -0.011 1 
0.433 0.084 -0.011 1 
0.432 0.094 -0.011 1 
0.428 0.143 -0.011 1 
0.424 0.184 -0.011 1 
0.42 0.203 -0.01 1 
0.42 0.224 -0.011 1 
0.421 0.233 -0.012 1 
0.422 0.242 -0.012 1 
0.421 0.252 -0.012 1 
0.423 0.273 -0.014 1 
0.419 0.284 -0.013 1 
0.45 -0.317 -0.017 1 
0.445 -0.286 -0.015 1 
0.44 -0.246 -0.012 1 
0.442 -0.225 -0.012 1 
0.441 -0.217 -0.012 1 
0.442 -0.196 -0.012 1 
0.443 -0.186 -0.012 1 
0.442 -0.175 -0.012 1 
0.441 -0.166 -0.011 1 
0.441 -0.156 -0.011 1 
0.44 -0.145 -0.011 1 
0.442 -0.136 -0.011 1 
0.44 -0.115 -0.01 1 
0.442 -0.105 -0.011 1 
0.412 -0.096 -0.014 1 
0.441 -0.095 -0.01 1 
0.423 0.081 -0.011 1 
0.441 -0.085 -0.01 1 
0.442 -0.075 -0.01 1 
0.442 -0.065 -0.01 1 
0.442 -0.055 -0.01 1 
0.4 0.063 -0.013 1 
0.442 -0.036 -0.01 1 
0.42 0.053 -0.012 1 
0.44 -0.026 -0.01 1 
0.442 -0.009 -0.01 1 
0.469 -0.007 -0.017 1 
0.468 -0.004 -0.017 1 
0.342 -0.005 -0.008 1 
0.432 0.031 -0.008 1 
0.438 0.054 -0.01 1 
0.434 0.154 -0.01 1 
0.433 0.164 -0.01 1 
0.43 0.183 -0.01 1 
0.421 0.292 -0.011 1 
0.453 -0.326 -0.015 1 
0.455 -0.315 -0.015 1 
0.422 -0.205 -0.017 1 
0.453 -0.31 -0.015 1 
0.444 -0.258 -0.011 1 
0.411 0.104 -0.013 1 
0.444 -0.241 -0.011 1 
0.449 -0.225 -0.011 1 
0.449 -0.155 -0.01 1 
0.449 -0.137 -0.01 1 
0.449 -0.116 -0.01 1 
0.45 -0.106 -0.01 1 
0.45 -0.095 -0.01 1 
0.441 -0.206 -0.012 1 
0.447 -0.087 -0.009 1 
0.449 -0.009 -0.01 1 
0.439 0.032 -0.007 1 
0.444 0.04 -0.009 1 
0.443 0.072 -0.009 1 
0.444 0.083 -0.009 1 
0.444 0.103 -0.009 1 
0.443 0.123 -0.009 1 
0.442 0.133 -0.009 1 
0.434 0.193 -0.009 1 
0.427 0.209 -0.007 1 
0.433 0.224 -0.009 1 
0.432 0.234 -0.009 1 
0.431 0.25 -0.01 1 
0.434 0.256 -0.01 1 
0.434 0.273 -0.011 1 
0.432 0.283 -0.011 1 
0.429 0.292 -0.011 1 
0.441 -0.267 -0.008 1 
0.423 0.133 -0.012 1 
0.453 -0.266 -0.011 1 
0.453 -0.255 -0.01 1 
0.454 -0.244 -0.01 1 
0.453 -0.215 -0.01 1 
0.454 -0.21 -0.01 1 
0.454 -0.196 -0.01 1 
0.454 -0.185 -0.009 1 
0.454 -0.147 -0.009 1 
0.454 -0.066 -0.008 1 
0.454 -0.055 -0.008 1 
0.436 0.029 -0.004 1 
0.45 0.054 -0.008 1 
0.443 0.162 -0.008 1 
0.443 0.173 -0.008 1 
0.441 0.182 -0.008 1 
0.441 0.193 -0.008 1 
0.44 0.203 -0.008 1 
0.438 0.212 -0.008 1 
0.429 0.301 -0.008 1 
0.46 -0.338 -0.012 1 
0.404 -0.076 -0.014 1 
0.462 -0.297 -0.011 1 
0.462 -0.236 -0.009 1 
0.456 -0.035 -0.006 1 
0.405 0.274 -0.014 1 
0.434 0.029 -0.001 1 
0.452 0.033 -0.005 1 
0.44 0.144 -0.009 1 
0.454 0.041 -0.006 1 
0.455 0.044 -0.006 1 
0.455 0.057 -0.006 1 
0.454 0.062 -0.006 1 
0.454 0.073 -0.006 1 
0.454 0.083 -0.006 1 
0.454 0.093 -0.006 1 
0.453 0.114 -0.006 1 
0.452 0.132 -0.006 1 
0.451 0.153 -0.006 1 
0.441 0.283 -0.008 1 
0.383 0.183 -0.015 1 
0.463 -0.317 -0.009 1 
0.464 -0.255 -0.007 1 
0.463 -0.217 -0.006 1 
0.463 -0.197 -0.006 1 
0.463 -0.177 -0.006 1 
0.463 -0.157 -0.006 1 
0.463 -0.135 -0.005 1 
0.462 -0.075 -0.005 1 
0.379 -0.236 -0.025 1 
0.462 -0.057 -0.005 1 
0.472 -0.004 -0.007 1 
0.356 -0.001 0.017 1 
0.418 -0.148 -0.015 1 
0.457 0.113 -0.005 1 
0.457 0.124 -0.005 1 
0.456 0.139 -0.005 1 
0.455 0.152 -0.005 1 
0.453 0.16 -0.005 1 
0.452 0.162 -0.004 1 
0.45 0.174 -0.004 1 
0.45 0.18 -0.004 1 
0.387 -0.003 -0.011 1 
0.393 0.232 -0.016 1 
0.451 0.183 -0.005 1 
0.452 0.192 -0.005 1 
0.451 0.202 -0.005 1 
0.451 0.214 -0.005 1 
0.451 0.222 -0.005 1 
0.45 0.233 -0.005 1 
0.45 0.244 -0.006 1 
0.448 0.251 -0.005 1 
0.448 0.263 -0.006 1 
0.447 0.274 -0.006 1 
0.446 0.282 -0.006 1 
0.445 0.29 -0.006 1 
0.444 0.292 -0.006 1 
0.443 0.313 -0.006 1 
0.456 0.134 -0.005 1 
0.472 -0.287 -0.007 1 
0.469 -0.278 -0.006 1 
0.467 -0.267 -0.005 1 
0.468 -0.255 -0.005 1 
0.47 -0.245 -0.005 1 
0.467 -0.225 -0.005 1 
0.467 -0.22 -0.005 1 
0.464 -0.076 -0.002 1 
0.451 -0.295 -0.014 1 
0.464 -0.065 -0.002 1 
0.453 0.232 -0.003 1 
0.453 0.244 -0.004 1 
0.452 0.252 -0.004 1 
0.452 0.264 -0.004 1 
0.451 0.284 -0.004 1 
0.448 0.322 -0.005 1 
0.472 -0.355 -0.006 1 
0.473 -0.349 -0.006 1 
0.476 -0.348 -0.006 1 
0.475 -0.344 -0.006 1 
0.474 -0.336 -0.005 1 
0.432 0.133 -0.012 1 
0.442 0.263 -0.007 1 
0.472 -0.327 -0.005 1 
0.364 -0.076 -0.015 1 
0.474 -0.318 -0.005 1 
0.394 0.035 -0.011 1 
0.475 -0.316 -0.005 1 
0.407 0.251 -0.014 1 
0.475 -0.313 -0.005 1 
0.454 -0.045 -0.008 1 
0.474 -0.308 -0.005 1 
0.474 -0.286 -0.004 1 
0.388 -0.226 -0.021 1 
0.389 0.004 0.014 1 
0.389 -0.005 -0.011 1 
0.386 0.012 0.014 1 
0.384 0.014 0.015 1 
0.385 0.016 0.014 1 
0.453 0.304 -0.003 1 
0.453 0.314 -0.003 1 
0.474 -0.357 -0.003 1 
0.473 -0.256 0 1 
0.414 -0.132 -0.015 1 
0.467 -0.015 0.001 1 
0.469 -0.235 -0.005 1 
0.487 -0.007 -0.001 1 
0.397 -0.003 -0.012 1 
0.412 -0.005 -0.012 1 
0.405 0.011 0.013 1 
0.403 -0.005 -0.011 1 
0.404 0.013 0.013 1 
0.453 0.324 0 1 
0.452 0.326 0 1 
0.475 -0.237 0.001 1 
0.473 -0.215 0.002 1 
0.472 -0.205 0.002 1 
0.47 -0.195 0.003 1 
0.469 -0.186 0.003 1 
0.47 -0.175 0.003 1 
0.47 -0.166 0.003 1 
0.47 -0.155 0.003 1 
0.469 -0.146 0.003 1 
0.373 -0.207 -0.022 1 
0.423 0.112 -0.011 1 
0.469 -0.135 0.003 1 
0.466 -0.087 0.004 1 
0.466 -0.076 0.004 1 
0.465 -0.012 0.004 1 
0.463 0.043 0.004 1 
0.462 0.093 0.004 1 
0.461 0.104 0.004 1 
0.462 0.112 0.004 1 
0.463 0.123 0.004 1 
0.46 0.153 0.004 1 
0.461 0.173 0.003 1 
0.461 0.184 0.003 1 
0.461 0.192 0.003 1 
0.46 0.223 0.003 1 
0.46 0.244 0.002 1 
0.384 -0.181 -0.018 1 
0.459 0.264 0.002 1 
0.46 0.274 0.002 1 
0.424 -0.087 -0.013 1 
0.476 -0.297 0.003 1 
0.476 -0.287 0.003 1 
0.476 -0.284 0.003 1 
0.474 -0.276 0.004 1 
0.474 -0.27 0.004 1 
0.475 -0.246 0.004 1 
0.473 -0.233 0.004 1 
0.459 0.282 0.004 1 
0.46 0.292 0.004 1 
0.459 0.304 0.004 1 
0.456 0.324 0.004 1 
0.457 0.332 0.003 1 
0.356 0.104 -0.013 1 
0.475 -0.283 0.006 1 
0.371 0.024 -0.008 1 
0.455 0.052 -0.006 1 
0.462 0.003 0.013 1 
0.461 0.024 0.013 1 
0.457 -0.025 -0.006 1 
0.461 0.032 0.013 1 
0.462 -0.051 -0.005 1 
0.462 -0.065 -0.005 1 
0.414 0.199 -0.011 1 
0.383 -0.146 -0.017 1 
0.462 -0.086 -0.005 1 
0.449 -0.166 -0.011 1 
0.463 -0.105 -0.005 1 
0.464 -0.127 -0.005 1 
0.394 -0.104 -0.015 1 
0.463 -0.146 -0.005 1 
0.414 0.256 -0.013 1 
0.462 -0.165 -0.005 1 
0.463 -0.185 -0.006 1 
0.464 -0.226 -0.007 1 
0.452 -0.306 -0.014 1 
0.464 -0.249 -0.007 1 
0.441 0.254 -0.007 1 
0.462 -0.287 -0.008 1 
0.463 -0.327 -0.012 1 
0.4 -0.105 -0.015 1 
0.444 -0.276 -0.012 1 
0.41 0.113 -0.012 1 
0.371 0.114 -0.015 1 
0.411 0.122 -0.013 1 
0.37 0.235 -0.016 1 
0.389 0.172 -0.015 1 
0.43 0.103 -0.011 1 
0.438 -0.273 -0.015 1 
0.444 0.09 -0.009 1 
0.441 -0.316 -0.018 1 
0.4 -0.085 -0.015 1 
0.43 0.172 -0.01 1 
0.451 0.142 -0.006 1 
0.439 -0.245 -0.015 1 
0.468 -0.126 0.004 1 
0.408 0.004 0.012 1 
0.474 -0.245 0 1 
0.363 0.114 -0.014 1 
0.453 -0.019 -0.008 1 
0.42 -0.015 -0.012 1 
0.453 0.122 -0.006 1 
0.449 0.313 -0.005 1 
0.45 0.185 -0.004 1 
0.364 -0.07 -0.015 1 
0.475 -0.246 0.007 1 
0.402 0.019 0.013 1 
0.346 0.163 -0.013 1 
0.353 0.025 -0.011 1 
0.445 0.174 -0.006 1 
0.409 -0.036 -0.013 1 
0.357 0.144 -0.015 1 
0.392 -0.076 -0.014 1 
0.431 -0.209 -0.015 1 
0.462 0.142 0.004 1 
0.394 0.033 -0.011 1 
0.351 0.053 -0.012 1 
0.389 -0.197 -0.018 1 
0.464 -0.116 -0.005 1 
0.372 -0.215 -0.024 1 
0.443 -0.046 -0.011 1 
0.429 0.203 -0.008 1 
0.369 -0.072 -0.015 1 
0.355 0.203 -0.015 1 
0.424 -0.276 -0.02 1 
0.434 0.114 -0.009 1 
0.456 -0.327 -0.016 1 
0.475 -0.255 0.004 1 
0.454 0.224 -0.003 1 
0.37 0.163 -0.016 1 
0.352 0.204 -0.016 1 
0.464 -0.012 -0.008 1 
0.462 0.014 0.013 1 
0.395 0.214 -0.016 1 
0.424 -0.045 -0.013 1 
0.424 -0.184 -0.015 1 
0.421 0.044 -0.012 1 
0.453 0.104 -0.006 1 
0.441 0.274 -0.007 1 
0.46 0.232 0.003 1 
0.443 0.244 -0.007 1 
0.467 0.322 0 1 
0.391 0.142 -0.014 1 
0.382 -0.055 -0.013 1 
0.384 -0.108 -0.016 1 
0.432 0.123 -0.012 1 
0.475 -0.234 0.001 1 
0.405 0.234 -0.015 1 
0.363 -0.135 -0.017 1 
0.381 0.019 0.015 1 
0.388 0.124 -0.015 1 
0.464 -0.004 0.004 1 
0.473 -0.236 0.004 1 
0.372 0.063 -0.012 1 
0.4 0.113 -0.014 1 
0.414 0.221 -0.012 1 
0.362 0.163 -0.015 1 
0.414 0.174 -0.013 1 
0.444 0.063 -0.009 1 
0.43 -0.065 -0.012 1 
0.426 -0.165 -0.015 1 
0.462 0.032 0.002 1 
0.434 -0.238 -0.016 1 
0.473 -0.007 -0.007 1 
0.431 -0.266 -0.016 1 
0.38 0.064 -0.013 1 
0.41 -0.067 -0.013 1 
0.41 -0.056 -0.013 1 
0.351 0.158 -0.015 1 
0.444 0.154 -0.007 1 
0.47 -0.295 -0.006 1 
0.449 -0.126 -0.01 1 
0.38 0.203 -0.015 1 
0.382 0.193 -0.015 1 
0.422 -0.167 -0.016 1 
0.475 -0.267 0.004 1 
0.394 0.251 -0.015 1 
0.464 -0.017 -0.005 1 
0.39 -0.236 -0.024 1 
0.361 0.147 -0.014 1 
0.344 -0.001 -0.006 1 
0.446 -0.284 -0.012 1 
0.456 -0.337 -0.016 1 
0.467 -0.096 0.004 1 
0.472 -0.297 -0.004 1 
0.391 -0.242 -0.025 1 
0.362 0.174 -0.016 1 
0.464 -0.267 -0.007 1 
0.414 0.184 -0.013 1 
0.453 -0.027 -0.008 1 
0.39 -0.175 -0.018 1 
0.414 0.036 -0.013 1 
0.422 0.261 -0.013 1 
0.421 0.144 -0.011 1 
0.44 -0.287 -0.016 1 
0.453 -0.035 -0.008 1 
0.461 0.253 0.002 1 
0.45 -0.291 -0.013 1 
0.432 -0.303 -0.02 1 
0.413 -0.176 -0.016 1 
0.441 -0.016 -0.01 1 
0.404 -0.056 -0.014 1 
0.464 -0.007 0.004 1 
0.364 -0.096 -0.015 1 
0.443 0.3 -0.006 1 
0.413 -0.157 -0.016 1 
0.399 -0.126 -0.015 1 
0.454 -0.076 -0.008 1 
0.381 0.132 -0.015 1 
0.37 -0.056 -0.013 1 
0.46 0.164 0.004 1 
0.445 -0.295 -0.015 1 
0.364 -0.049 -0.012 1 
0.459 0.314 0.004 1 
0.454 -0.182 -0.009 1 
0.467 -0.107 0.004 1 
0.428 -0.025 -0.012 1 
0.419 -0.187 -0.016 1 
0.399 -0.272 -0.025 1 
0.391 0.053 -0.012 1 
0.402 0.173 -0.014 1 
0.443 -0.306 -0.018 1 
0.44 -0.125 -0.01 1 
0.441 0.114 -0.009 1 
0.429 -0.055 -0.012 1 
0.38 0.224 -0.016 1 
0.463 -0.282 -0.008 1 
0.394 0.211 -0.015 1 
0.415 -0.125 -0.016 1 
0.374 -0.159 -0.018 1 
0.378 0.053 -0.012 1 
0.454 0.268 -0.002 1 
0.454 0.293 -0.002 1 
0.372 0.174 -0.015 1 
0.374 0.091 -0.013 1 
0.42 -0.006 -0.012 1 
0.404 0.084 -0.012 1 
0.452 0.031 -0.003 1 
0.461 0.204 0.003 1 
0.462 0.083 0.004 1 
0.361 0.143 -0.014 1 
0.404 0.039 -0.012 1 
0.413 0.033 -0.012 1 
0.359 -0.115 -0.015 1 
0.399 0.203 -0.012 1 
0.381 0.213 -0.016 1 
0.424 0.03 -0.011 1 
0.393 -0.085 -0.015 1 
0.413 0.234 -0.014 1 
0.373 0.133 -0.014 1 
0.463 -0.097 -0.005 1 
0.391 -0.096 -0.014 1 
0.441 0.223 -0.008 1 
0.426 -0.195 -0.015 1 
0.354 0.073 -0.013 1 
0.389 -0.165 -0.017 1 
0.413 -0.279 -0.022 1 
0.363 0.123 -0.014 1 
0.401 -0.026 -0.013 1 
0.463 0.045 0.004 1 
0.467 -0.001 0.001 1 
0.464 -0.057 -0.002 1 
0.463 -0.208 -0.006 1 
0.38 0.093 -0.013 1 
0.372 0.193 -0.016 1 
0.431 -0.037 -0.012 1 
0.376 0.173 -0.015 1 
0.455 0.155 -0.005 1 
0.453 -0.246 -0.01 1 
0.461 0.212 0.003 1 
0.432 0.243 -0.01 1 
0.402 -0.116 -0.016 1 
0.465 -0.015 -0.005 1 
0.454 -0.006 -0.016 1 
0.444 0.233 -0.007 1 
0.434 -0.165 -0.012 1 
0.387 0.189 -0.015 1 
0.429 -0.015 -0.012 1 
0.424 0.209 -0.009 1 
0.414 -0.017 -0.012 1 
0.372 0.204 -0.017 1 
0.362 0.214 -0.016 1 
0.391 -0.094 -0.014 1 
0.383 -0.136 -0.017 1 
0.458 0.103 -0.005 1 
0.463 -0.307 -0.011 1 
0.394 -0.136 -0.016 1 
0.372 -0.165 -0.018 1 
0.374 0.073 -0.013 1 
0.347 -0.001 -0.005 1 
0.404 0.09 -0.013 1 
0.342 0.003 0.019 2 
0.351 -0.001 0.02 2 
0.341 0.003 0.028 2 
0.34 0.016 0.027 2 
0.34 0.014 0.027 2 
0.352 -0.001 0.022 2 
0.34 0.017 0.027 2 
0.341 0.014 0.019 2 
0.405 0.062 0.078 2 
0.405 0.03 0.066 2 
0.478 0 0.045 2 
0.499 -0.001 0.044 2 
0.544 -0.062 0.084 2 
0.381 0.008 0.057 2 
0.421 -0.035 0.078 2 
0.543 -0.106 0.057 2 
0.378 0.063 0.077 2 
0.376 -0.027 0.082 2 
0.426 -0.047 0.076 2 
0.438 -0.035 0.078 2 
0.386 0.004 0.058 2 
0.419 0.014 0.035 2 
0.423 0.028 0.062 2 
0.399 0.006 0.057 2 
0.383 0.002 0.058 2 
0.426 0.019 0.035 2 
0.418 0.016 0.035 2 
0.508 -0.011 0.067 2 
0.499 0.102 0.073 2 
0.494 0.095 0.073 2 
0.381 -0.008 0.074 2 
0.436 -0.047 0.076 2 
0.514 -0.092 0.059 2 
0.403 -0.035 0.082 2 
0.389 0.068 0.079 2 
0.374 0.06 0.078 2 
0.386 0.061 0.079 2 
0.39 -0.037 0.079 2 
0.496 -0.09 0.084 2 
0.514 -0.101 0.066 2 
0.393 -0.031 0.081 2 
0.37 0.064 0.077 2 
0.438 0.103 0.075 2 
0.426 0.096 0.075 2 
0.435 0.082 0.075 2 
0.501 0.088 0.077 2 
0.51 0.08 0.07 2 
0.383 0.033 0.074 2 
0.392 0.061 0.077 2 
0.399 0.059 0.077 2 
0.44 -0.033 0.078 2 
0.404 -0.035 0.078 2 
0.411 -0.038 0.077 2 
0.393 -0.037 0.077 2 
0.508 -0.069 0.076 2 
0.512 -0.091 0.062 2 
0.54 -0.102 0.063 2 
0.529 -0.105 0.063 2 
0.525 -0.05 0.085 2 
0.541 -0.106 0.063 2 
0.506 -0.044 0.092 2 
0.549 -0.067 0.081 2 
0.369 0.053 0.082 2 
0.375 0.058 0.08 2 
0.471 -0.185 0.144 3 
0.477 -0.298 0.014 3 
0.461 0.292 0.144 3 
0.462 0.284 0.144 3 
0.463 -0.007 0.013 3 
0.462 0.274 0.144 3 
0.462 0.262 0.143 3 
0.335 0.005 0.059 3 
0.461 0.312 0.144 3 
0.462 0.253 0.143 3 
0.461 0.243 0.142 3 
0.461 0.234 0.142 3 
0.288 -0.005 0.091 3 
0.468 -0.077 0.142 3 
0.469 -0.085 0.142 3 
0.469 -0.105 0.142 3 
0.47 -0.116 0.143 3 
0.47 -0.125 0.143 3 
0.471 -0.145 0.143 3 
0.471 -0.156 0.144 3 
0.471 -0.165 0.144 3 
0.471 -0.176 0.144 3 
0.46 0.222 0.144 3 
0.464 0.103 0.144 3 
0.285 0.018 0.087 3 
0.461 0.211 0.144 3 
0.462 0.194 0.144 3 
0.462 0.182 0.144 3 
0.462 0.174 0.144 3 
0.462 0.163 0.144 3 
0.463 0.152 0.144 3 
0.463 0.144 0.144 3 
0.463 0.133 0.144 3 
0.463 0.124 0.143 3 
0.464 0.114 0.144 3 
0.458 0.332 0.144 3 
0.463 0.094 0.143 3 
0.464 0.084 0.143 3 
0.463 0.062 0.143 3 
0.461 0.054 0.142 3 
0.468 -0.047 0.144 3 
0.467 -0.055 0.144 3 
0.468 -0.066 0.144 3 
0.479 -0.285 0.152 3 
0.479 -0.295 0.152 3 
0.48 -0.306 0.153 3 
0.482 -0.315 0.154 3 
0.462 0.174 0.133 3 
0.482 -0.307 0.144 3 
0.461 0.252 0.134 3 
0.478 -0.306 0.084 3 
0.46 0.242 0.134 3 
0.46 0.254 0.123 3 
0.46 0.233 0.134 3 
0.46 0.224 0.133 3 
0.461 0.213 0.134 3 
0.46 0.204 0.133 3 
0.462 0.193 0.133 3 
0.47 -0.146 0.052 3 
0.462 0.182 0.133 3 
0.461 0.203 0.092 3 
0.462 0.162 0.133 3 
0.462 0.143 0.133 3 
0.462 0.132 0.132 3 
0.462 0.124 0.132 3 
0.466 -0.095 0.012 3 
0.463 0.113 0.132 3 
0.463 0.102 0.132 3 
0.464 0.092 0.133 3 
0.464 0.084 0.133 3 
0.463 0.073 0.132 3 
0.46 0.271 0.104 3 
0.475 -0.237 0.143 3 
0.484 -0.327 0.151 3 
0.483 -0.336 0.152 3 
0.483 -0.347 0.152 3 
0.461 0.322 0.142 3 
0.473 -0.197 0.142 3 
0.474 -0.207 0.142 3 
0.475 -0.21 0.143 3 
0.474 -0.216 0.143 3 
0.475 -0.219 0.143 3 
0.475 -0.225 0.143 3 
0.475 -0.213 0.146 3 
0.475 -0.247 0.144 3 
0.476 -0.257 0.144 3 
0.461 0.059 0.134 3 
0.461 0.054 0.134 3 
0.285 -0.001 0.088 3 
0.299 -0.005 0.092 3 
0.477 -0.267 0.142 3 
0.477 -0.277 0.142 3 
0.479 -0.288 0.143 3 
0.471 -0.207 0.013 3 
0.48 -0.296 0.143 3 
0.462 0.253 0.154 3 
0.277 0.016 0.093 3 
0.278 0.014 0.094 3 
0.277 0.004 0.093 3 
0.467 -0.044 0.155 3 
0.477 -0.258 0.162 3 
0.478 -0.265 0.162 3 
0.479 -0.276 0.163 3 
0.461 0.302 0.144 3 
0.479 -0.286 0.164 3 
0.479 -0.299 0.164 3 
0.462 0.262 0.154 3 
0.462 0.153 0.033 3 
0.462 0.054 0.153 3 
0.461 0.243 0.154 3 
0.461 0.232 0.153 3 
0.461 0.223 0.153 3 
0.462 0.212 0.153 3 
0.461 0.274 0.062 3 
0.345 -0.004 0.061 3 
0.463 0.192 0.153 3 
0.463 0.184 0.153 3 
0.462 0.174 0.152 3 
0.462 0.163 0.152 3 
0.463 0.152 0.152 3 
0.474 -0.257 0.044 3 
0.461 0.282 0.104 3 
0.463 0.321 0.163 3 
0.463 0.311 0.162 3 
0.462 0.134 0.073 3 
0.473 -0.186 0.162 3 
0.469 -0.105 0.104 3 
0.474 -0.257 0.052 3 
0.466 -0.036 0.044 3 
0.474 -0.196 0.162 3 
0.474 -0.205 0.163 3 
0.471 -0.167 0.033 3 
0.476 -0.217 0.163 3 
0.463 0.144 0.152 3 
0.476 -0.227 0.164 3 
0.477 -0.236 0.164 3 
0.477 -0.246 0.164 3 
0.464 0.114 0.154 3 
0.47 0.104 0.068 3 
0.464 0.092 0.154 3 
0.465 0.079 0.154 3 
0.465 0.073 0.154 3 
0.464 0.068 0.154 3 
0.464 0.062 0.154 3 
0.466 -0.047 0.034 3 
0.475 -0.265 0.104 3 
0.46 0.234 0.062 3 
0.462 0.313 0.153 3 
0.462 0.303 0.153 3 
0.462 0.154 0.133 3 
0.462 0.294 0.153 3 
0.462 0.284 0.152 3 
0.464 0.073 0.143 3 
0.463 0.273 0.152 3 
0.471 -0.145 0.152 3 
0.471 -0.156 0.152 3 
0.461 0.282 0.132 3 
0.471 -0.165 0.152 3 
0.295 0 0.079 3 
0.471 -0.176 0.152 3 
0.472 -0.186 0.153 3 
0.473 -0.198 0.154 3 
0.473 -0.207 0.154 3 
0.474 -0.216 0.154 3 
0.296 0.021 0.096 3 
0.476 -0.235 0.152 3 
0.474 -0.266 0.012 3 
0.476 -0.257 0.153 3 
0.478 -0.268 0.154 3 
0.478 -0.275 0.154 3 
0.471 -0.117 0.154 3 
0.464 0.133 0.152 3 
0.464 0.122 0.152 3 
0.475 -0.226 0.152 3 
0.464 0.084 0.151 3 
0.467 -0.055 0.152 3 
0.455 0.33 0.062 3 
0.468 -0.066 0.153 3 
0.469 -0.075 0.153 3 
0.469 -0.086 0.153 3 
0.469 -0.097 0.153 3 
0.474 -0.245 0.092 3 
0.47 -0.105 0.154 3 
0.323 -0.01 0.062 3 
0.471 -0.125 0.154 3 
0.471 -0.136 0.154 3 
0.474 -0.216 0.157 3 
0.481 -0.307 0.162 3 
0.482 -0.315 0.163 3 
0.483 -0.326 0.163 3 
0.484 -0.338 0.164 3 
0.483 -0.348 0.164 3 
0.459 0.337 0.154 3 
0.459 0.333 0.153 3 
0.462 0.143 0.114 3 
0.481 -0.326 0.124 3 
0.481 -0.337 0.124 3 
0.482 -0.349 0.124 3 
0.459 0.25 0.114 3 
0.46 0.23 0.114 3 
0.46 0.224 0.114 3 
0.461 0.212 0.114 3 
0.461 0.204 0.114 3 
0.462 0.193 0.114 3 
0.461 0.173 0.114 3 
0.462 0.162 0.114 3 
0.462 0.154 0.114 3 
0.481 -0.316 0.123 3 
0.463 0.132 0.114 3 
0.463 0.124 0.114 3 
0.462 0.113 0.113 3 
0.463 0.093 0.052 3 
0.462 0.102 0.113 3 
0.463 0.094 0.114 3 
0.462 0.083 0.113 3 
0.462 0.072 0.113 3 
0.461 0.053 0.113 3 
0.467 -0.039 0.114 3 
0.466 -0.047 0.114 3 
0.473 -0.215 0.123 3 
0.471 -0.156 0.124 3 
0.471 -0.167 0.124 3 
0.471 -0.176 0.124 3 
0.362 0.002 0.054 3 
0.475 -0.204 0.126 3 
0.459 0.335 0.122 3 
0.459 0.332 0.122 3 
0.461 0.324 0.122 3 
0.341 0.034 0.064 3 
0.472 -0.185 0.122 3 
0.474 -0.195 0.122 3 
0.474 -0.206 0.123 3 
0.467 -0.055 0.114 3 
0.474 -0.227 0.123 3 
0.475 -0.231 0.123 3 
0.475 -0.237 0.123 3 
0.474 -0.245 0.123 3 
0.475 -0.256 0.124 3 
0.477 -0.267 0.124 3 
0.295 0.02 0.083 3 
0.474 -0.255 0.121 3 
0.477 -0.286 0.122 3 
0.479 -0.297 0.123 3 
0.48 -0.308 0.123 3 
0.479 -0.307 0.114 3 
0.48 -0.357 0.118 3 
0.335 0.026 0.086 3 
0.474 -0.236 0.112 3 
0.474 -0.245 0.112 3 
0.464 -0.046 0.052 3 
0.474 -0.255 0.112 3 
0.475 -0.262 0.112 3 
0.476 -0.266 0.113 3 
0.462 0.072 0.092 3 
0.476 -0.275 0.113 3 
0.476 -0.285 0.113 3 
0.478 -0.296 0.114 3 
0.473 -0.226 0.114 3 
0.48 -0.315 0.114 3 
0.481 -0.326 0.112 3 
0.474 -0.245 0.084 3 
0.481 -0.336 0.112 3 
0.481 -0.347 0.112 3 
0.473 -0.248 0.024 3 
0.479 -0.356 0.112 3 
0.457 0.326 0.104 3 
0.461 0.297 0.104 3 
0.461 0.294 0.104 3 
0.463 0.346 0.194 3 
0.469 -0.096 0.112 3 
0.467 -0.066 0.114 3 
0.459 0.335 0.113 3 
0.459 0.332 0.113 3 
0.462 0.312 0.113 3 
0.46 0.284 0.112 3 
0.459 0.274 0.112 3 
0.46 0.263 0.112 3 
0.468 -0.077 0.112 3 
0.469 -0.085 0.112 3 
0.466 -0.066 0.034 3 
0.47 -0.147 0.124 3 
0.468 -0.107 0.112 3 
0.468 -0.115 0.112 3 
0.469 -0.127 0.112 3 
0.47 -0.136 0.113 3 
0.473 -0.188 0.114 3 
0.469 -0.146 0.113 3 
0.47 -0.155 0.113 3 
0.472 -0.167 0.113 3 
0.472 -0.176 0.113 3 
0.474 -0.197 0.114 3 
0.472 -0.217 0.114 3 
0.474 -0.252 0.135 3 
0.471 -0.145 0.132 3 
0.471 -0.156 0.133 3 
0.471 -0.165 0.133 3 
0.471 -0.176 0.133 3 
0.472 -0.185 0.133 3 
0.474 -0.198 0.134 3 
0.475 -0.207 0.134 3 
0.474 -0.212 0.134 3 
0.474 -0.215 0.134 3 
0.475 -0.219 0.134 3 
0.466 0.078 0.06 3 
0.474 -0.227 0.134 3 
0.47 -0.136 0.132 3 
0.477 -0.04 0.13 3 
0.475 -0.231 0.132 3 
0.475 -0.237 0.132 3 
0.474 -0.24 0.132 3 
0.474 -0.246 0.132 3 
0.475 -0.253 0.132 3 
0.476 -0.257 0.133 3 
0.476 -0.266 0.133 3 
0.481 -0.345 0.064 3 
0.47 -0.166 0.044 3 
0.477 -0.276 0.133 3 
0.484 -0.337 0.143 3 
0.47 -0.047 0.134 3 
0.467 -0.055 0.133 3 
0.468 -0.066 0.133 3 
0.468 -0.077 0.134 3 
0.469 -0.085 0.134 3 
0.468 -0.096 0.134 3 
0.469 -0.116 0.134 3 
0.474 -0.234 0.137 3 
0.483 -0.319 0.142 3 
0.483 -0.325 0.142 3 
0.485 -0.335 0.143 3 
0.478 -0.287 0.134 3 
0.484 -0.348 0.143 3 
0.458 0.335 0.133 3 
0.458 0.331 0.133 3 
0.46 0.323 0.133 3 
0.46 0.313 0.133 3 
0.461 0.301 0.133 3 
0.46 0.291 0.132 3 
0.461 0.264 0.132 3 
0.285 0.014 0.086 3 
0.47 -0.127 0.132 3 
0.479 -0.323 0.034 3 
0.462 0.173 0.122 3 
0.461 0.304 0.124 3 
0.46 0.294 0.124 3 
0.46 0.284 0.124 3 
0.459 0.274 0.123 3 
0.46 0.263 0.123 3 
0.461 0.243 0.123 3 
0.461 0.234 0.123 3 
0.46 0.224 0.123 3 
0.461 0.213 0.122 3 
0.461 0.204 0.122 3 
0.462 0.193 0.122 3 
0.462 0.182 0.122 3 
0.46 0.31 0.124 3 
0.29 0.019 0.084 3 
0.288 0.004 0.084 3 
0.467 -0.039 0.122 3 
0.467 -0.047 0.122 3 
0.467 -0.055 0.122 3 
0.469 -0.077 0.123 3 
0.468 -0.085 0.123 3 
0.468 -0.107 0.123 3 
0.468 -0.115 0.123 3 
0.469 -0.127 0.123 3 
0.47 -0.136 0.124 3 
0.463 0.102 0.124 3 
0.479 -0.298 0.134 3 
0.461 0.156 0.124 3 
0.461 0.151 0.124 3 
0.461 0.183 0.052 3 
0.462 0.143 0.124 3 
0.465 -0.065 0.023 3 
0.462 0.132 0.124 3 
0.462 0.124 0.124 3 
0.463 0.113 0.124 3 
0.468 -0.042 0.133 3 
0.463 0.094 0.124 3 
0.463 0.083 0.124 3 
0.462 0.064 0.124 3 
0.462 0.054 0.124 3 
0.48 -0.305 0.132 3 
0.481 -0.316 0.132 3 
0.482 -0.328 0.133 3 
0.474 -0.276 0.044 3 
0.482 -0.335 0.133 3 
0.483 -0.346 0.134 3 
0.468 0.102 0.183 3 
0.468 0.094 0.183 3 
0.465 -0.036 0.002 3 
0.469 0.083 0.184 3 
0.468 0.074 0.183 3 
0.466 0.063 0.182 3 
0.474 -0.087 0.186 3 
0.479 -0.237 0.192 3 
0.479 -0.246 0.192 3 
0.461 0.262 0.062 3 
0.48 -0.255 0.192 3 
0.471 -0.075 0.074 3 
0.468 0.113 0.184 3 
0.48 -0.265 0.193 3 
0.481 -0.276 0.194 3 
0.464 0.327 0.187 3 
0.465 0.276 0.184 3 
0.465 0.273 0.184 3 
0.473 -0.226 0.052 3 
0.464 0.265 0.184 3 
0.464 0.262 0.184 3 
0.465 0.26 0.184 3 
0.464 0.253 0.183 3 
0.468 -0.066 0.123 3 
0.465 0.18 0.184 3 
0.468 -0.096 0.123 3 
0.476 -0.288 0.093 3 
0.465 0.273 0.187 3 
0.464 0.232 0.185 3 
0.464 0.211 0.185 3 
0.464 0.205 0.184 3 
0.464 0.2 0.184 3 
0.465 0.194 0.184 3 
0.464 0.191 0.184 3 
0.459 0.314 0.062 3 
0.464 0.182 0.184 3 
0.46 0.234 0.033 3 
0.463 0.243 0.182 3 
0.465 0.174 0.184 3 
0.473 -0.166 0.173 3 
0.471 -0.136 0.143 3 
0.465 0.163 0.184 3 
0.465 0.152 0.183 3 
0.462 0.197 0.144 3 
0.466 0.143 0.183 3 
0.467 0.132 0.183 3 
0.477 -0.276 0.122 3 
0.467 0.124 0.183 3 
0.469 -0.105 0.134 3 
0.461 0.294 0.093 3 
0.483 -0.287 0.192 3 
0.483 -0.297 0.192 3 
0.484 -0.305 0.193 3 
0.484 -0.315 0.194 3 
0.485 -0.32 0.194 3 
0.46 0.34 0.183 3 
0.464 0.334 0.184 3 
0.465 0.328 0.184 3 
0.466 0.322 0.184 3 
0.446 -0.046 0.063 3 
0.465 0.311 0.183 3 
0.473 -0.167 0.184 3 
0.465 0.301 0.183 3 
0.465 0.292 0.182 3 
0.464 0.275 0.181 3 
0.465 0.254 0.181 3 
0.276 0.021 0.101 3 
0.474 -0.267 0.052 3 
0.474 -0.107 0.18 3 
0.474 -0.118 0.181 3 
0.474 -0.13 0.181 3 
0.474 -0.147 0.181 3 
0.46 0.203 0.033 3 
0.473 -0.087 0.182 3 
0.464 0.232 0.182 3 
0.464 0.223 0.182 3 
0.463 0.103 0.154 3 
0.465 0.221 0.182 3 
0.458 0.084 0.073 3 
0.464 0.174 0.181 3 
0.473 -0.056 0.182 3 
0.307 0.018 0.071 3 
0.472 -0.067 0.182 3 
0.473 -0.076 0.182 3 
0.462 0.302 0.113 3 
0.463 0.338 0.19 3 
0.474 -0.096 0.183 3 
0.475 -0.099 0.183 3 
0.462 0.204 0.103 3 
0.475 -0.107 0.184 3 
0.472 -0.167 0.102 3 
0.475 -0.116 0.184 3 
0.475 -0.127 0.184 3 
0.475 -0.139 0.184 3 
0.46 0.272 0.132 3 
0.475 -0.147 0.184 3 
0.474 -0.155 0.184 3 
0.466 0.152 0.187 3 
0.465 0.221 0.188 3 
0.468 -0.044 0.144 3 
0.465 0.212 0.188 3 
0.477 -0.298 0.023 3 
0.465 0.203 0.188 3 
0.465 0.192 0.187 3 
0.464 0.182 0.187 3 
0.465 0.18 0.187 3 
0.465 0.174 0.187 3 
0.466 0.163 0.187 3 
0.357 0.048 0.068 3 
0.465 0.233 0.189 3 
0.461 0.281 0.093 3 
0.466 0.143 0.186 3 
0.467 0.132 0.186 3 
0.462 0.064 0.113 3 
0.467 0.124 0.186 3 
0.469 0.072 0.186 3 
0.467 0.113 0.186 3 
0.469 0.102 0.187 3 
0.47 0.094 0.187 3 
0.469 0.083 0.186 3 
0.281 0.023 0.106 3 
0.462 0.182 0.114 3 
0.465 0.344 0.195 3 
0.469 0.345 0.196 3 
0.464 0.15 0.174 3 
0.462 0.142 0.084 3 
0.466 0.335 0.194 3 
0.467 0.332 0.195 3 
0.464 -0.033 0.06 3 
0.468 0.329 0.194 3 
0.47 -0.146 0.093 3 
0.468 0.322 0.194 3 
0.467 0.314 0.193 3 
0.465 0.302 0.192 3 
0.46 0.114 0.06 3 
0.465 0.292 0.191 3 
0.467 0.284 0.191 3 
0.464 0.272 0.19 3 
0.464 0.263 0.189 3 
0.465 0.26 0.19 3 
0.464 0.253 0.189 3 
0.474 -0.237 0.137 3 
0.465 0.251 0.189 3 
0.464 0.244 0.189 3 
0.468 0.063 0.186 3 
0.465 0.242 0.189 3 
0.482 -0.277 0.197 3 
0.47 -0.066 0.074 3 
0.477 -0.178 0.192 3 
0.478 -0.187 0.192 3 
0.478 -0.196 0.193 3 
0.477 -0.205 0.193 3 
0.473 -0.126 0.172 3 
0.478 -0.217 0.193 3 
0.478 -0.227 0.194 3 
0.48 -0.237 0.195 3 
0.48 -0.247 0.195 3 
0.481 -0.256 0.196 3 
0.481 -0.266 0.196 3 
0.475 -0.165 0.191 3 
0.456 0.324 0.054 3 
0.484 -0.285 0.198 3 
0.484 -0.295 0.199 3 
0.484 -0.305 0.199 3 
0.458 0.313 0.012 3 
0.484 -0.315 0.2 3 
0.472 -0.216 0.044 3 
0.486 -0.321 0.201 3 
0.488 -0.327 0.202 3 
0.489 -0.338 0.203 3 
0.489 -0.346 0.204 3 
0.475 -0.085 0.189 3 
0.271 0.02 0.102 3 
0.268 0.014 0.101 3 
0.266 0.004 0.1 3 
0.27 -0.005 0.102 3 
0.276 -0.006 0.104 3 
0.474 -0.057 0.188 3 
0.473 -0.065 0.188 3 
0.474 -0.076 0.188 3 
0.465 0.128 0.163 3 
0.475 -0.082 0.189 3 
0.468 -0.047 0.152 3 
0.475 -0.173 0.182 3 
0.475 -0.096 0.189 3 
0.476 -0.105 0.19 3 
0.476 -0.116 0.19 3 
0.48 -0.355 0.052 3 
0.476 -0.125 0.19 3 
0.467 -0.044 0.152 3 
0.477 -0.137 0.191 3 
0.463 0.094 0.103 3 
0.48 -0.315 0.102 3 
0.477 -0.145 0.191 3 
0.476 -0.157 0.191 3 
0.465 0.148 0.164 3 
0.462 0.212 0.164 3 
0.478 -0.318 0.043 3 
0.462 0.203 0.164 3 
0.465 -0.049 0.004 3 
0.463 0.193 0.164 3 
0.463 0.181 0.164 3 
0.463 0.173 0.164 3 
0.464 0.164 0.163 3 
0.465 0.156 0.164 3 
0.466 -0.036 0.103 3 
0.464 0.153 0.163 3 
0.462 0.221 0.164 3 
0.464 0.144 0.163 3 
0.465 0.142 0.163 3 
0.464 0.133 0.163 3 
0.464 0.122 0.163 3 
0.464 0.114 0.163 3 
0.461 0.324 0.113 3 
0.464 0.103 0.163 3 
0.465 0.098 0.163 3 
0.465 0.093 0.163 3 
0.466 0.082 0.163 3 
0.465 0.073 0.163 3 
0.476 -0.206 0.172 3 
0.465 -0.087 0.012 3 
0.475 -0.2 0.174 3 
0.483 -0.327 0.182 3 
0.484 -0.335 0.183 3 
0.486 -0.341 0.184 3 
0.486 -0.345 0.184 3 
0.459 0.338 0.171 3 
0.464 0.133 0.166 3 
0.464 0.12 0.165 3 
0.464 0.106 0.165 3 
0.454 0.058 0.161 3 
0.276 0.014 0.097 3 
0.463 0.062 0.162 3 
0.464 -0.015 0.004 3 
0.477 -0.216 0.173 3 
0.473 -0.166 0.164 3 
0.475 -0.22 0.154 3 
0.477 -0.225 0.173 3 
0.462 0.064 0.092 3 
0.477 -0.237 0.173 3 
0.478 -0.247 0.174 3 
0.472 -0.205 0.083 3 
0.478 -0.256 0.174 3 
0.481 -0.35 0.179 3 
0.481 -0.356 0.161 3 
0.465 0.12 0.16 3 
0.464 0.092 0.16 3 
0.46 0.244 0.112 3 
0.464 0.068 0.16 3 
0.473 -0.226 0.033 3 
0.47 -0.086 0.162 3 
0.47 -0.097 0.162 3 
0.471 -0.106 0.162 3 
0.459 0.282 0.024 3 
0.472 -0.117 0.163 3 
0.472 -0.126 0.163 3 
0.473 -0.135 0.163 3 
0.461 0.232 0.162 3 
0.473 -0.146 0.164 3 
0.472 -0.157 0.164 3 
0.473 -0.175 0.164 3 
0.474 -0.205 0.165 3 
0.483 -0.316 0.172 3 
0.482 -0.326 0.172 3 
0.47 -0.166 0.022 3 
0.484 -0.335 0.173 3 
0.484 -0.346 0.174 3 
0.459 0.338 0.162 3 
0.479 -0.286 0.172 3 
0.434 0.054 0.152 3 
0.469 -0.053 0.164 3 
0.469 -0.055 0.164 3 
0.47 -0.067 0.164 3 
0.46 0.29 0.113 3 
0.47 -0.075 0.164 3 
0.474 -0.187 0.168 3 
0.474 -0.196 0.168 3 
0.479 -0.266 0.172 3 
0.462 0.104 0.084 3 
0.479 -0.276 0.172 3 
0.476 -0.186 0.174 3 
0.479 -0.296 0.173 3 
0.482 -0.309 0.174 3 
0.46 0.337 0.142 3 
0.463 0.295 0.164 3 
0.463 0.292 0.164 3 
0.463 0.282 0.164 3 
0.473 -0.206 0.114 3 
0.463 0.273 0.164 3 
0.462 0.263 0.163 3 
0.462 0.254 0.163 3 
0.461 0.241 0.162 3 
0.286 0.013 0.084 3 
0.467 0.074 0.174 3 
0.465 0.063 0.174 3 
0.464 0.204 0.154 3 
0.263 0.011 0.095 3 
0.275 -0.002 0.1 3 
0.474 -0.135 0.178 3 
0.477 -0.225 0.182 3 
0.478 -0.235 0.182 3 
0.479 -0.245 0.183 3 
0.48 -0.255 0.183 3 
0.48 -0.265 0.184 3 
0.48 -0.277 0.184 3 
0.466 0.082 0.174 3 
0.464 0.294 0.176 3 
0.463 0.249 0.174 3 
0.463 0.243 0.174 3 
0.463 0.234 0.174 3 
0.463 0.222 0.173 3 
0.463 0.213 0.173 3 
0.474 -0.242 0.123 3 
0.463 0.204 0.173 3 
0.46 0.282 0.043 3 
0.463 0.193 0.172 3 
0.464 0.317 0.18 3 
0.476 -0.177 0.183 3 
0.477 -0.186 0.183 3 
0.477 -0.195 0.184 3 
0.477 -0.207 0.184 3 
0.462 0.072 0.124 3 
0.477 -0.216 0.184 3 
0.471 -0.175 0.074 3 
0.485 -0.326 0.192 3 
0.472 -0.196 0.052 3 
0.486 -0.338 0.193 3 
0.486 -0.345 0.193 3 
0.465 -0.009 0.044 3 
0.464 0.182 0.173 3 
0.464 0.31 0.18 3 
0.464 0.303 0.18 3 
0.464 0.159 0.175 3 
0.464 0.142 0.174 3 
0.456 0.324 0.023 3 
0.465 0.137 0.174 3 
0.466 0.118 0.174 3 
0.469 -0.096 0.142 3 
0.466 0.112 0.174 3 
0.466 0.104 0.174 3 
0.466 0.09 0.174 3 
0.484 -0.325 0.185 3 
0.311 -0.008 0.065 3 
0.461 0.334 0.174 3 
0.463 0.322 0.174 3 
0.463 0.312 0.174 3 
0.47 -0.175 0.033 3 
0.464 0.303 0.174 3 
0.464 0.293 0.173 3 
0.464 0.284 0.173 3 
0.462 -0.025 0.013 3 
0.463 0.273 0.172 3 
0.463 0.264 0.172 3 
0.473 -0.185 0.094 3 
0.459 0.304 0.032 3 
0.464 0.068 0.168 3 
0.463 0.062 0.167 3 
0.477 -0.305 0.064 3 
0.287 0.023 0.102 3 
0.473 -0.135 0.172 3 
0.462 0.323 0.154 3 
0.473 -0.146 0.172 3 
0.473 -0.155 0.172 3 
0.474 -0.176 0.173 3 
0.475 -0.179 0.174 3 
0.459 0.214 0.014 3 
0.464 0.173 0.172 3 
0.464 0.162 0.172 3 
0.465 0.159 0.172 3 
0.466 0.134 0.172 3 
0.476 -0.245 0.152 3 
0.289 -0.008 0.104 3 
0.461 0.172 0.033 3 
0.47 -0.053 0.172 3 
0.326 -0.005 0.073 3 
0.471 -0.056 0.173 3 
0.47 -0.067 0.173 3 
0.459 0.334 0.162 3 
0.471 -0.075 0.173 3 
0.471 -0.086 0.173 3 
0.472 -0.095 0.174 3 
0.473 -0.106 0.174 3 
0.46 0.244 0.104 3 
0.473 -0.115 0.174 3 
0.478 -0.316 0.002 3 
0.48 -0.287 0.182 3 
0.481 -0.298 0.183 3 
0.482 -0.306 0.183 3 
0.483 -0.317 0.184 3 
0.441 0.035 0.05 3 
0.436 0.032 0.05 3 
0.465 -0.047 0.05 3 
0.465 -0.055 0.05 3 
0.456 0.034 0.047 3 
0.454 0.026 0.047 3 
0.438 0.022 0.048 3 
0.459 0.042 0.05 3 
0.457 0.011 0.047 3 
0.462 0.003 0.047 3 
0.465 -0.02 0.047 3 
0.455 0.33 0.043 3 
0.456 0.324 0.043 3 
0.458 0.313 0.043 3 
0.458 0.303 0.043 3 
0.466 -0.066 0.044 3 
0.46 0.292 0.043 3 
0.46 0.273 0.043 3 
0.472 -0.205 0.052 3 
0.465 -0.071 0.052 3 
0.465 -0.076 0.052 3 
0.467 -0.085 0.052 3 
0.468 -0.096 0.052 3 
0.469 -0.107 0.052 3 
0.469 -0.115 0.052 3 
0.469 -0.126 0.052 3 
0.47 -0.135 0.052 3 
0.47 -0.155 0.052 3 
0.47 -0.166 0.052 3 
0.47 -0.177 0.052 3 
0.471 -0.187 0.052 3 
0.459 0.263 0.043 3 
0.472 -0.216 0.052 3 
0.473 -0.235 0.052 3 
0.474 -0.248 0.052 3 
0.474 -0.276 0.052 3 
0.475 -0.28 0.052 3 
0.475 -0.287 0.052 3 
0.477 -0.297 0.052 3 
0.478 -0.308 0.052 3 
0.478 -0.315 0.052 3 
0.479 -0.326 0.052 3 
0.48 -0.337 0.052 3 
0.47 -0.146 0.044 3 
0.461 0.014 0.044 3 
0.462 0.003 0.044 3 
0.464 -0.007 0.044 3 
0.465 -0.015 0.044 3 
0.465 -0.025 0.044 3 
0.465 -0.047 0.044 3 
0.466 -0.076 0.044 3 
0.466 -0.087 0.044 3 
0.469 -0.096 0.044 3 
0.47 -0.105 0.044 3 
0.469 -0.115 0.044 3 
0.47 -0.135 0.044 3 
0.458 0.024 0.045 3 
0.47 -0.155 0.044 3 
0.471 -0.175 0.044 3 
0.471 -0.187 0.044 3 
0.471 -0.195 0.044 3 
0.472 -0.205 0.044 3 
0.473 -0.226 0.044 3 
0.473 -0.235 0.044 3 
0.474 -0.245 0.044 3 
0.473 -0.266 0.044 3 
0.477 -0.297 0.044 3 
0.478 -0.308 0.043 3 
0.462 0.142 0.044 3 
0.466 -0.055 0.034 3 
0.46 0.223 0.022 3 
0.459 0.254 0.043 3 
0.46 0.243 0.043 3 
0.46 0.223 0.044 3 
0.461 0.203 0.044 3 
0.461 0.192 0.044 3 
0.461 0.183 0.044 3 
0.46 0.174 0.044 3 
0.461 0.164 0.044 3 
0.461 0.153 0.044 3 
0.464 -0.065 0.052 3 
0.462 0.134 0.044 3 
0.462 0.123 0.044 3 
0.462 0.112 0.044 3 
0.462 0.104 0.044 3 
0.463 0.093 0.044 3 
0.463 0.083 0.044 3 
0.464 0.072 0.044 3 
0.466 -0.055 0.044 3 
0.464 0.064 0.044 3 
0.463 0.053 0.044 3 
0.461 0.042 0.044 3 
0.481 -0.338 0.064 3 
0.474 -0.236 0.064 3 
0.474 -0.245 0.064 3 
0.475 -0.255 0.064 3 
0.474 -0.257 0.064 3 
0.474 -0.267 0.064 3 
0.475 -0.271 0.064 3 
0.475 -0.277 0.064 3 
0.475 -0.286 0.064 3 
0.476 -0.297 0.064 3 
0.46 0.243 0.054 3 
0.479 -0.316 0.064 3 
0.48 -0.327 0.064 3 
0.473 -0.226 0.064 3 
0.48 -0.355 0.064 3 
0.461 0.153 0.052 3 
0.461 0.104 0.06 3 
0.465 0.1 0.06 3 
0.461 0.074 0.06 3 
0.458 0.053 0.06 3 
0.461 0.274 0.054 3 
0.327 0.006 0.059 3 
0.458 -0.056 0.06 3 
0.469 -0.126 0.063 3 
0.466 -0.031 0.063 3 
0.465 -0.036 0.063 3 
0.455 0.33 0.082 3 
0.461 -0.046 0.063 3 
0.469 -0.096 0.063 3 
0.468 -0.107 0.063 3 
0.468 -0.115 0.063 3 
0.48 -0.348 0.052 3 
0.459 -0.067 0.06 3 
0.47 -0.135 0.063 3 
0.47 -0.146 0.063 3 
0.471 -0.155 0.063 3 
0.471 -0.166 0.063 3 
0.471 -0.175 0.063 3 
0.46 0.214 0.022 3 
0.472 -0.187 0.063 3 
0.472 -0.196 0.064 3 
0.476 -0.287 0.044 3 
0.473 -0.205 0.064 3 
0.472 -0.216 0.064 3 
0.428 0.035 0.053 3 
0.474 -0.276 0.055 3 
0.461 0.172 0.052 3 
0.461 0.164 0.052 3 
0.462 0.142 0.052 3 
0.462 0.134 0.052 3 
0.462 0.123 0.052 3 
0.461 0.112 0.052 3 
0.461 0.104 0.052 3 
0.463 0.083 0.052 3 
0.463 0.072 0.052 3 
0.461 0.053 0.052 3 
0.45 0.041 0.052 3 
0.465 -0.063 0.055 3 
0.374 0.024 0.054 3 
0.363 0.021 0.054 3 
0.345 0.016 0.054 3 
0.337 0.014 0.054 3 
0.348 0.008 0.054 3 
0.36 0.007 0.054 3 
0.371 0.004 0.054 3 
0.465 -0.028 0.052 3 
0.459 0.282 0.013 3 
0.465 -0.036 0.052 3 
0.464 -0.057 0.052 3 
0.46 0.282 0.054 3 
0.461 0.093 0.057 3 
0.461 0.082 0.057 3 
0.445 0.043 0.058 3 
0.327 0.02 0.057 3 
0.356 -0.002 0.058 3 
0.465 -0.071 0.058 3 
0.461 0.164 0.033 3 
0.466 -0.076 0.058 3 
0.468 -0.085 0.058 3 
0.458 0.303 0.054 3 
0.459 0.292 0.054 3 
0.48 -0.337 0.043 3 
0.46 0.264 0.054 3 
0.46 0.252 0.054 3 
0.46 0.234 0.054 3 
0.46 0.223 0.054 3 
0.461 0.212 0.054 3 
0.461 0.192 0.054 3 
0.455 0.044 0.055 3 
0.443 0.04 0.055 3 
0.458 0.224 0.014 3 
0.355 0.005 0.056 3 
0.365 -0.004 0.056 3 
0.459 0.304 0.012 3 
0.47 -0.186 0.022 3 
0.471 -0.195 0.022 3 
0.471 -0.207 0.022 3 
0.464 -0.065 0.02 3 
0.454 0.329 0.015 3 
0.479 -0.306 0.014 3 
0.478 -0.315 0.014 3 
0.477 -0.328 0.014 3 
0.477 -0.335 0.014 3 
0.479 -0.347 0.013 3 
0.477 -0.356 0.013 3 
0.455 0.329 0.012 3 
0.47 -0.175 0.022 3 
0.458 0.293 0.013 3 
0.458 0.263 0.013 3 
0.458 0.254 0.013 3 
0.458 0.242 0.014 3 
0.458 0.233 0.014 3 
0.46 0.203 0.014 3 
0.459 0.194 0.014 3 
0.459 0.182 0.014 3 
0.459 0.174 0.014 3 
0.468 -0.132 0.014 3 
0.468 -0.137 0.014 3 
0.464 -0.047 0.023 3 
0.462 0.082 0.023 3 
0.462 0.074 0.023 3 
0.462 0.064 0.023 3 
0.462 0.053 0.023 3 
0.462 0.043 0.023 3 
0.462 0.032 0.023 3 
0.462 0.024 0.023 3 
0.464 0.003 0.023 3 
0.464 -0.007 0.023 3 
0.464 -0.025 0.023 3 
0.463 -0.036 0.023 3 
0.468 -0.145 0.014 3 
0.464 -0.055 0.023 3 
0.465 -0.063 0.023 3 
0.466 -0.076 0.023 3 
0.467 -0.087 0.023 3 
0.467 -0.095 0.023 3 
0.468 -0.107 0.023 3 
0.468 -0.115 0.023 3 
0.468 -0.126 0.023 3 
0.468 -0.137 0.023 3 
0.47 -0.146 0.022 3 
0.47 -0.155 0.022 3 
0.465 -0.052 0.007 3 
0.462 0.043 0.013 3 
0.462 -0.046 0.013 3 
0.463 -0.057 0.013 3 
0.464 -0.065 0.013 3 
0.465 -0.068 0.012 3 
0.464 -0.076 0.013 3 
0.465 -0.079 0.012 3 
0.466 -0.106 0.012 3 
0.466 -0.117 0.012 3 
0.465 -0.057 0.01 3 
0.479 -0.344 0.004 3 
0.477 -0.356 0.004 3 
0.462 0.053 0.013 3 
0.478 -0.309 0.002 3 
0.477 -0.325 0.002 3 
0.464 -0.025 0.004 3 
0.464 -0.047 0.004 3 
0.466 -0.055 0.004 3 
0.467 -0.066 0.004 3 
0.467 -0.115 0.004 3 
0.463 0.072 0.002 3 
0.462 0.064 0.002 3 
0.466 -0.025 0.001 3 
0.464 -0.039 0.002 3 
0.474 -0.276 0.012 3 
0.469 -0.157 0.014 3 
0.469 -0.166 0.014 3 
0.469 -0.177 0.014 3 
0.469 -0.186 0.014 3 
0.47 -0.195 0.014 3 
0.471 -0.216 0.013 3 
0.471 -0.225 0.013 3 
0.472 -0.235 0.013 3 
0.473 -0.245 0.013 3 
0.475 -0.255 0.012 3 
0.474 -0.26 0.013 3 
0.462 0.093 0.023 3 
0.475 -0.286 0.012 3 
0.479 -0.348 0.004 3 
0.459 0.163 0.012 3 
0.459 0.152 0.012 3 
0.459 0.144 0.012 3 
0.461 0.133 0.012 3 
0.461 0.114 0.012 3 
0.46 0.103 0.013 3 
0.46 0.093 0.013 3 
0.461 0.082 0.013 3 
0.461 0.074 0.013 3 
0.464 -0.015 0.034 3 
0.463 0.104 0.033 3 
0.463 0.093 0.033 3 
0.463 0.083 0.034 3 
0.462 0.074 0.034 3 
0.463 0.064 0.034 3 
0.463 0.053 0.034 3 
0.463 0.043 0.034 3 
0.463 0.032 0.034 3 
0.463 0.024 0.034 3 
0.463 0.014 0.034 3 
0.464 0.003 0.034 3 
0.463 -0.007 0.034 3 
0.463 0.112 0.033 3 
0.465 -0.025 0.034 3 
0.466 -0.036 0.034 3 
0.467 -0.077 0.034 3 
0.467 -0.085 0.034 3 
0.468 -0.096 0.034 3 
0.469 -0.107 0.033 3 
0.468 -0.115 0.034 3 
0.461 0.122 0.012 3 
0.468 -0.126 0.033 3 
0.469 -0.135 0.033 3 
0.47 -0.146 0.033 3 
0.48 -0.355 0.034 3 
0.48 -0.348 0.043 3 
0.48 -0.355 0.043 3 
0.461 0.032 0.042 3 
0.461 0.024 0.042 3 
0.475 -0.28 0.041 3 
0.455 0.33 0.034 3 
0.456 0.324 0.034 3 
0.458 0.313 0.034 3 
0.479 -0.326 0.034 3 
0.481 -0.339 0.034 3 
0.48 -0.345 0.034 3 
0.47 -0.155 0.033 3 
0.46 0.292 0.032 3 
0.46 0.283 0.032 3 
0.459 0.272 0.032 3 
0.46 0.264 0.032 3 
0.459 0.251 0.032 3 
0.459 0.222 0.033 3 
0.46 0.214 0.033 3 
0.46 0.194 0.033 3 
0.462 0.142 0.033 3 
0.462 0.134 0.033 3 
0.462 0.123 0.033 3 
0.479 -0.358 0.022 3 
0.472 -0.226 0.024 3 
0.474 -0.258 0.024 3 
0.475 -0.264 0.024 3 
0.474 -0.266 0.024 3 
0.474 -0.275 0.024 3 
0.475 -0.28 0.024 3 
0.475 -0.286 0.024 3 
0.478 -0.305 0.023 3 
0.478 -0.315 0.023 3 
0.478 -0.325 0.023 3 
0.48 -0.338 0.022 3 
0.48 -0.345 0.022 3 
0.472 -0.217 0.024 3 
0.46 0.203 0.022 3 
0.46 0.183 0.022 3 
0.46 0.172 0.022 3 
0.46 0.163 0.022 3 
0.464 0.014 0.023 3 
0.46 0.152 0.023 3 
0.461 0.142 0.023 3 
0.461 0.134 0.023 3 
0.462 0.123 0.023 3 
0.462 0.112 0.023 3 
0.462 0.104 0.023 3 
0.478 -0.305 0.032 3 
0.47 -0.186 0.033 3 
0.471 -0.195 0.033 3 
0.472 -0.217 0.033 3 
0.473 -0.235 0.033 3 
0.474 -0.248 0.032 3 
0.474 -0.257 0.032 3 
0.474 -0.267 0.032 3 
0.475 -0.273 0.032 3 
0.475 -0.276 0.032 3 
0.477 -0.288 0.032 3 
0.478 -0.298 0.032 3 
0.463 -0.038 0.063 3 
0.464 -0.025 0.031 3 
0.455 0.33 0.023 3 
0.459 0.313 0.023 3 
0.459 0.304 0.023 3 
0.459 0.272 0.024 3 
0.459 0.263 0.024 3 
0.459 0.254 0.024 3 
0.459 0.242 0.024 3 
0.46 0.234 0.024 3 
0.464 -0.036 0.026 3 
0.464 -0.047 0.026 3 
0.475 -0.264 0.092 3 
0.471 -0.175 0.094 3 
0.473 -0.197 0.094 3 
0.473 -0.205 0.094 3 
0.473 -0.217 0.094 3 
0.305 -0.003 0.072 3 
0.461 0.064 0.013 3 
0.462 0.134 0.084 3 
0.472 -0.225 0.092 3 
0.474 -0.236 0.092 3 
0.474 -0.257 0.092 3 
0.459 0.314 0.054 3 
0.462 0.134 0.004 3 
0.475 -0.268 0.092 3 
0.469 -0.126 0.044 3 
0.476 -0.278 0.093 3 
0.459 0.294 0.024 3 
0.477 -0.298 0.093 3 
0.478 -0.306 0.093 3 
0.48 -0.318 0.094 3 
0.48 -0.325 0.094 3 
0.48 -0.335 0.094 3 
0.481 -0.346 0.094 3 
0.467 -0.066 0.093 3 
0.353 -0.006 0.069 3 
0.462 0.123 0.092 3 
0.474 -0.257 0.084 3 
0.462 0.113 0.092 3 
0.463 0.102 0.092 3 
0.463 0.094 0.092 3 
0.463 0.083 0.092 3 
0.468 -0.033 0.093 3 
0.466 -0.036 0.092 3 
0.466 -0.047 0.093 3 
0.467 -0.055 0.093 3 
0.48 -0.355 0.094 3 
0.467 -0.077 0.093 3 
0.468 -0.085 0.093 3 
0.469 -0.096 0.093 3 
0.469 -0.107 0.093 3 
0.469 -0.116 0.093 3 
0.469 -0.127 0.093 3 
0.46 0.194 0.022 3 
0.469 -0.135 0.093 3 
0.47 -0.155 0.094 3 
0.471 -0.167 0.094 3 
0.474 -0.227 0.072 3 
0.343 0.027 0.073 3 
0.465 -0.033 0.084 3 
0.465 -0.036 0.084 3 
0.466 -0.047 0.084 3 
0.459 0.314 0.082 3 
0.46 0.302 0.082 3 
0.46 0.293 0.082 3 
0.46 0.283 0.082 3 
0.46 0.274 0.082 3 
0.372 -0.006 0.061 3 
0.305 0.012 0.069 3 
0.46 0.053 0.084 3 
0.468 -0.055 0.082 3 
0.466 -0.065 0.082 3 
0.467 -0.077 0.082 3 
0.468 -0.085 0.082 3 
0.468 -0.096 0.082 3 
0.469 -0.107 0.082 3 
0.463 -0.015 0.023 3 
0.468 -0.115 0.082 3 
0.468 -0.126 0.082 3 
0.462 0.153 0.063 3 
0.461 0.172 0.084 3 
0.32 0.023 0.073 3 
0.46 0.214 0.044 3 
0.464 -0.033 0.087 3 
0.459 0.264 0.084 3 
0.461 0.253 0.084 3 
0.461 0.244 0.084 3 
0.461 0.232 0.084 3 
0.46 0.223 0.084 3 
0.46 0.214 0.084 3 
0.461 0.203 0.084 3 
0.461 0.192 0.084 3 
0.462 0.134 0.092 3 
0.456 0.331 0.054 3 
0.461 0.164 0.084 3 
0.461 0.153 0.084 3 
0.463 0.124 0.084 3 
0.475 -0.267 0.009 3 
0.462 0.112 0.084 3 
0.462 0.094 0.084 3 
0.461 0.083 0.084 3 
0.46 0.074 0.084 3 
0.459 0.063 0.084 3 
0.469 -0.127 0.104 3 
0.327 0.025 0.082 3 
0.475 -0.045 0.08 3 
0.461 0.164 0.073 3 
0.466 -0.047 0.103 3 
0.467 -0.055 0.103 3 
0.467 -0.066 0.104 3 
0.467 -0.077 0.104 3 
0.468 -0.085 0.104 3 
0.46 0.234 0.043 3 
0.469 -0.096 0.104 3 
0.468 -0.115 0.104 3 
0.461 0.053 0.102 3 
0.469 -0.135 0.104 3 
0.472 -0.235 0.024 3 
0.469 -0.149 0.104 3 
0.471 0.348 0.104 3 
0.46 0.322 0.102 3 
0.461 0.314 0.102 3 
0.296 0.014 0.076 3 
0.479 -0.326 0.043 3 
0.305 -0.004 0.077 3 
0.471 -0.155 0.102 3 
0.461 0.164 0.103 3 
0.459 0.261 0.104 3 
0.46 0.253 0.104 3 
0.456 0.324 0.082 3 
0.461 0.233 0.103 3 
0.458 0.272 0.013 3 
0.461 0.224 0.103 3 
0.461 0.212 0.103 3 
0.461 0.192 0.103 3 
0.48 -0.327 0.073 3 
0.462 0.184 0.103 3 
0.461 0.173 0.103 3 
0.472 -0.176 0.102 3 
0.462 0.154 0.103 3 
0.462 0.143 0.103 3 
0.462 0.134 0.103 3 
0.463 0.124 0.103 3 
0.463 0.113 0.103 3 
0.462 0.104 0.103 3 
0.463 0.083 0.103 3 
0.462 0.072 0.103 3 
0.462 0.064 0.103 3 
0.46 0.253 0.093 3 
0.487 -0.044 0.081 3 
0.298 0.014 0.074 3 
0.296 0.003 0.074 3 
0.456 0.331 0.093 3 
0.456 0.324 0.093 3 
0.462 -0.015 0.013 3 
0.46 0.312 0.093 3 
0.46 0.303 0.093 3 
0.461 0.212 0.092 3 
0.461 0.272 0.093 3 
0.46 0.262 0.093 3 
0.301 0.019 0.074 3 
0.462 0.242 0.093 3 
0.461 0.232 0.093 3 
0.461 0.224 0.092 3 
0.461 0.192 0.092 3 
0.462 0.184 0.092 3 
0.461 0.172 0.092 3 
0.463 0.064 0.052 3 
0.461 0.164 0.092 3 
0.462 0.154 0.092 3 
0.462 0.143 0.092 3 
0.476 -0.288 0.104 3 
0.473 -0.185 0.102 3 
0.473 -0.197 0.103 3 
0.473 -0.205 0.103 3 
0.473 -0.217 0.103 3 
0.473 -0.226 0.103 3 
0.474 -0.236 0.103 3 
0.474 -0.245 0.103 3 
0.475 -0.249 0.104 3 
0.475 -0.258 0.104 3 
0.476 -0.275 0.104 3 
0.333 0.025 0.071 3 
0.325 -0.005 0.079 3 
0.461 0.184 0.084 3 
0.474 -0.257 0.101 3 
0.477 -0.295 0.102 3 
0.479 -0.307 0.102 3 
0.48 -0.325 0.103 3 
0.481 -0.336 0.103 3 
0.481 -0.347 0.103 3 
0.48 -0.355 0.103 3 
0.461 0.048 0.094 3 
0.329 -0.003 0.063 3 
0.481 -0.335 0.073 3 
0.481 -0.345 0.073 3 
0.48 -0.355 0.073 3 
0.465 0.119 0.068 3 
0.467 0.112 0.068 3 
0.363 0.048 0.064 3 
0.348 0.042 0.064 3 
0.338 0.039 0.064 3 
0.349 0.03 0.064 3 
0.479 -0.316 0.073 3 
0.346 -0.005 0.064 3 
0.342 -0.012 0.064 3 
0.343 -0.015 0.064 3 
0.461 0.184 0.033 3 
0.362 -0.022 0.065 3 
0.483 -0.075 0.069 3 
0.486 -0.079 0.069 3 
0.474 -0.27 0.069 3 
0.472 -0.187 0.072 3 
0.314 0.017 0.064 3 
0.31 0.014 0.064 3 
0.303 0.01 0.064 3 
0.313 0.004 0.064 3 
0.316 0.001 0.064 3 
0.366 -0.024 0.067 3 
0.47 -0.135 0.082 3 
0.49 -0.071 0.072 3 
0.456 0.323 0.012 3 
0.481 -0.072 0.072 3 
0.473 -0.196 0.072 3 
0.472 -0.205 0.072 3 
0.472 -0.216 0.072 3 
0.474 -0.236 0.072 3 
0.474 -0.245 0.072 3 
0.474 -0.257 0.072 3 
0.475 -0.267 0.072 3 
0.475 -0.277 0.072 3 
0.475 -0.286 0.072 3 
0.477 -0.298 0.073 3 
0.478 -0.306 0.073 3 
0.461 0.212 0.063 3 
0.461 0.203 0.063 3 
0.461 0.192 0.063 3 
0.461 0.183 0.063 3 
0.464 -0.055 0.026 3 
0.461 0.172 0.063 3 
0.462 -0.036 0.013 3 
0.461 0.164 0.063 3 
0.462 0.142 0.063 3 
0.462 0.134 0.063 3 
0.462 0.123 0.063 3 
0.461 0.223 0.063 3 
0.489 0.087 0.063 3 
0.368 0.006 0.054 3 
0.458 0.06 0.063 3 
0.452 0.051 0.063 3 
0.319 0.014 0.06 3 
0.336 0 0.061 3 
0.471 -0.207 0.033 3 
0.46 0.243 0.032 3 
0.361 0.031 0.063 3 
0.362 -0.006 0.063 3 
0.325 -0.009 0.062 3 
0.353 -0.041 0.063 3 
0.352 -0.046 0.063 3 
0.475 -0.255 0.067 3 
0.456 0.324 0.062 3 
0.459 0.304 0.062 3 
0.459 0.292 0.062 3 
0.46 0.283 0.062 3 
0.46 0.252 0.062 3 
0.46 0.243 0.062 3 
0.315 0.033 0.067 3 
0.347 0.029 0.069 3 
0.326 0.023 0.067 3 
0.316 -0.002 0.067 3 
0.344 -0.012 0.069 3 
0.316 -0.011 0.067 3 
0.326 -0.015 0.068 3 
0.322 -0.016 0.067 3 
0.462 0.204 0.054 3 
0.328 0.038 0.068 3 
0.456 0.331 0.074 3 
0.458 0.323 0.074 3 
0.459 0.314 0.074 3 
0.459 0.301 0.074 3 
0.459 0.292 0.074 3 
0.315 0.02 0.064 3 
0.459 0.273 0.073 3 
0.46 0.264 0.073 3 
0.461 0.253 0.073 3 
0.461 0.244 0.073 3 
0.461 0.232 0.073 3 
0.475 -0.268 0.084 3 
0.47 -0.146 0.083 3 
0.471 -0.155 0.083 3 
0.464 -0.015 0.042 3 
0.471 -0.166 0.083 3 
0.471 -0.175 0.083 3 
0.472 -0.187 0.083 3 
0.473 -0.197 0.083 3 
0.472 -0.216 0.083 3 
0.473 -0.226 0.083 3 
0.474 -0.236 0.083 3 
0.475 -0.264 0.084 3 
0.459 0.282 0.073 3 
0.476 -0.278 0.084 3 
0.477 -0.288 0.084 3 
0.477 -0.295 0.084 3 
0.335 0.02 0.056 3 
0.464 -0.033 0.079 3 
0.479 -0.317 0.082 3 
0.48 -0.327 0.082 3 
0.481 -0.335 0.082 3 
0.481 -0.349 0.082 3 
0.48 -0.355 0.082 3 
0.469 -0.085 0.074 3 
0.463 0.124 0.073 3 
0.468 -0.115 0.074 3 
0.335 0.039 0.066 3 
0.306 0.026 0.065 3 
0.326 -0.003 0.066 3 
0.469 -0.107 0.074 3 
0.469 -0.096 0.074 3 
0.337 -0.019 0.067 3 
0.463 0.113 0.073 3 
0.462 0.142 0.073 3 
0.472 -0.064 0.074 3 
0.462 0.104 0.073 3 
0.459 0.093 0.073 3 
0.353 -0.022 0.068 3 
0.357 -0.007 0.068 3 
0.461 0.223 0.073 3 
0.461 0.203 0.073 3 
0.471 -0.166 0.074 3 
0.46 0.214 0.073 3 
0.471 -0.155 0.074 3 
0.471 -0.147 0.074 3 
0.47 -0.135 0.074 3 
0.461 0.192 0.073 3 
0.461 0.184 0.073 3 
0.462 0.173 0.073 3 
0.462 0.153 0.073 3 
0.36 -0.034 0.063 3 
0.469 -0.126 0.074 3 
0.597 -0.036 0.123 3 
0.593 -0.028 0.122 3 
0.597 -0.033 0.123 3 
0.577 -0.024 0.102 3 
0.565 -0.037 0.093 3 
0.54 -0.018 0.088 3 
0.561 -0.023 0.089 3 
0.553 -0.029 0.089 3 
0.56 -0.037 0.089 3 
0.53 -0.015 0.051 3 
0.561 -0.016 0.104 3 
0.578 -0.027 0.106 3 
0.584 -0.02 0.11 3 
0.589 -0.036 0.114 3 
0.585 -0.028 0.114 3 
0.585 -0.02 0.114 3 
0.564 -0.016 0.111 3 
0.531 -0.011 0.048 3 
0.534 -0.015 0.094 3 
0.561 -0.03 0.096 3 
0.563 -0.041 0.097 3 
0.539 -0.025 0.061 3 
0.543 -0.022 0.061 3 
0.592 -0.036 0.119 3 
0.59 -0.021 0.118 3 
0.573 -0.016 0.116 3 
0.562 -0.026 0.093 3 
0.595 -0.021 0.123 3 
0.584 -0.035 0.11 3 
0.54 -0.018 0.054 3 
0.54 -0.025 0.054 3 
0.595 -0.052 0.146 3 
0.574 -0.038 0.101 3 
0.572 -0.027 0.101 3 
0.567 -0.02 0.101 3 
0.531 -0.015 0.097 3 
0.524 -0.014 0.09 3 
0.516 -0.017 0.089 3 
0.565 -0.023 0.093 3 
0.595 -0.048 0.123 3 
