# .PCD v0.7 - Point Cloud Data file
FIELDS x y z intensity
SIZE 4 4 4 4
TYPE F F F F
COUNT 1 1 1 1
WIDTH 2413
HEIGHT 1
VIEWPOINT 0 0 0 1 0 0 0
POINTS 2413
DATA ascii
0.401 0.049 0.007 0 
0.427 0.045 0.062 0 
0.433 0.034 0.003 0 
0.377 -0.205 -0.025 1 
0.373 -0.185 -0.023 1 
0.364 -0.117 -0.017 1 
0.363 -0.096 -0.016 1 
0.361 -0.086 -0.015 1 
0.36 -0.06 -0.015 1 
0.349 -0.025 -0.011 1 
0.342 0.043 -0.008 1 
0.354 0.061 -0.013 1 
0.354 0.085 -0.014 1 
0.353 0.104 -0.014 1 
0.352 0.114 -0.014 1 
0.352 0.123 -0.014 1 
0.352 0.153 -0.015 1 
0.351 0.156 -0.015 1 
0.348 0.165 -0.014 1 
0.344 0.206 -0.015 1 
0.384 -0.247 -0.027 1 
0.382 -0.225 -0.025 1 
0.374 -0.175 -0.021 1 
0.371 -0.165 -0.019 1 
0.374 -0.151 -0.02 1 
0.372 -0.135 -0.019 1 
0.372 -0.125 -0.018 1 
0.371 -0.075 -0.017 1 
0.366 -0.064 -0.015 1 
0.362 -0.055 -0.014 1 
0.363 -0.045 -0.014 1 
0.337 -0.011 -0.005 1 
0.352 0.033 -0.01 1 
0.358 0.073 -0.013 1 
0.361 0.094 -0.015 1 
0.361 0.096 -0.015 1 
0.354 0.132 -0.013 1 
0.354 0.173 -0.015 1 
0.354 0.183 -0.016 1 
0.389 -0.255 -0.027 1 
0.381 -0.206 -0.022 1 
0.381 -0.195 -0.022 1 
0.374 -0.116 -0.017 1 
0.373 -0.095 -0.016 1 
0.374 -0.085 -0.016 1 
0.369 -0.045 -0.014 1 
0.342 -0.015 -0.005 1 
0.334 -0.005 -0.002 1 
0.35 0.021 -0.008 1 
0.355 0.041 -0.01 1 
0.353 0.044 -0.009 1 
0.364 0.084 -0.014 1 
0.365 0.103 -0.014 1 
0.363 0.117 -0.014 1 
0.363 0.133 -0.014 1 
0.363 0.134 -0.015 1 
0.364 0.151 -0.015 1 
0.359 0.184 -0.015 1 
0.361 0.192 -0.016 1 
0.353 0.214 -0.015 1 
0.353 0.216 -0.015 1 
0.392 -0.233 -0.025 1 
0.384 -0.164 -0.02 1 
0.383 -0.126 -0.018 1 
0.384 -0.12 -0.019 1 
0.384 -0.106 -0.018 1 
0.382 -0.077 -0.017 1 
0.373 -0.036 -0.014 1 
0.367 -0.028 -0.012 1 
0.345 -0.007 -0.004 1 
0.344 0.019 -0.006 1 
0.344 -0.005 -0.004 1 
0.337 -0.004 -0.001 1 
0.325 0.001 0.002 1 
0.359 0.023 -0.009 1 
0.363 0.027 -0.011 1 
0.364 0.046 -0.011 1 
0.372 0.084 -0.015 1 
0.374 0.094 -0.015 1 
0.373 0.104 -0.015 1 
0.372 0.123 -0.015 1 
0.372 0.133 -0.016 1 
0.367 0.143 -0.014 1 
0.361 0.225 -0.016 1 
0.393 -0.219 -0.022 1 
0.393 -0.205 -0.022 1 
0.392 -0.177 -0.021 1 
0.392 -0.157 -0.02 1 
0.39 -0.125 -0.019 1 
0.394 -0.117 -0.02 1 
0.383 -0.095 -0.016 1 
0.382 -0.065 -0.015 1 
0.384 -0.06 -0.016 1 
0.383 -0.048 -0.015 1 
0.38 -0.045 -0.014 1 
0.378 -0.035 -0.014 1 
0.353 -0.016 -0.005 1 
0.353 -0.006 -0.005 1 
0.356 -0.004 -0.006 1 
0.324 0.004 0.003 1 
0.325 0.011 0.003 1 
0.324 0.014 0.003 1 
0.373 0.034 -0.012 1 
0.373 0.043 -0.012 1 
0.374 0.054 -0.013 1 
0.381 0.104 -0.016 1 
0.38 0.113 -0.016 1 
0.374 0.144 -0.015 1 
0.374 0.162 -0.015 1 
0.372 0.183 -0.016 1 
0.372 0.214 -0.017 1 
0.365 0.222 -0.016 1 
0.364 0.223 -0.015 1 
0.394 -0.165 -0.019 1 
0.388 -0.075 -0.015 1 
0.385 -0.042 -0.014 1 
0.383 -0.026 -0.014 1 
0.363 -0.018 -0.007 1 
0.372 -0.005 -0.01 1 
0.327 0.016 0.004 1 
0.352 0.136 -0.014 1 
0.383 0.023 -0.014 1 
0.378 0.032 -0.012 1 
0.38 0.044 -0.013 1 
0.382 0.054 -0.014 1 
0.382 0.072 -0.014 1 
0.384 0.075 -0.014 1 
0.384 0.077 -0.015 1 
0.382 0.124 -0.015 1 
0.38 0.142 -0.015 1 
0.377 0.144 -0.014 1 
0.38 0.163 -0.015 1 
0.372 0.232 -0.016 1 
0.372 0.237 -0.016 1 
0.411 -0.286 -0.026 1 
0.412 -0.278 -0.026 1 
0.411 -0.266 -0.025 1 
0.414 -0.258 -0.026 1 
0.413 -0.246 -0.025 1 
0.408 -0.238 -0.023 1 
0.383 -0.221 -0.023 1 
0.404 -0.227 -0.022 1 
0.404 -0.217 -0.021 1 
0.403 -0.188 -0.02 1 
0.403 -0.178 -0.02 1 
0.401 -0.156 -0.019 1 
0.4 -0.146 -0.018 1 
0.401 -0.116 -0.018 1 
0.401 -0.107 -0.018 1 
0.394 -0.066 -0.015 1 
0.394 -0.058 -0.015 1 
0.393 -0.046 -0.015 1 
0.394 -0.034 -0.015 1 
0.379 -0.016 -0.01 1 
0.396 -0.005 -0.016 1 
0.39 0.077 -0.014 1 
0.391 0.083 -0.015 1 
0.391 0.104 -0.015 1 
0.39 0.114 -0.015 1 
0.388 0.134 -0.015 1 
0.383 0.154 -0.014 1 
0.384 0.157 -0.014 1 
0.373 0.153 -0.015 1 
0.378 0.234 -0.016 1 
0.42 -0.255 -0.025 1 
0.404 -0.205 -0.019 1 
0.404 -0.198 -0.019 1 
0.404 -0.135 -0.017 1 
0.403 -0.095 -0.016 1 
0.403 -0.076 -0.016 1 
0.399 -0.07 -0.015 1 
0.398 -0.066 -0.014 1 
0.399 -0.062 -0.014 1 
0.401 -0.056 -0.015 1 
0.4 -0.045 -0.015 1 
0.4 -0.037 -0.015 1 
0.4 -0.03 -0.015 1 
0.394 0.064 -0.013 1 
0.396 -0.239 -0.026 1 
0.394 0.066 -0.013 1 
0.394 0.093 -0.014 1 
0.394 0.108 -0.014 1 
0.395 0.112 -0.015 1 
0.395 0.119 -0.015 1 
0.394 0.123 -0.014 1 
0.393 0.133 -0.014 1 
0.394 0.144 -0.015 1 
0.392 0.154 -0.015 1 
0.391 0.164 -0.015 1 
0.389 0.184 -0.015 1 
0.384 0.238 -0.016 1 
0.384 0.25 -0.016 1 
0.427 -0.304 -0.027 1 
0.424 -0.297 -0.026 1 
0.424 -0.288 -0.025 1 
0.425 -0.286 -0.025 1 
0.425 -0.278 -0.025 1 
0.424 -0.274 -0.024 1 
0.427 -0.271 -0.025 1 
0.423 -0.256 -0.023 1 
0.424 -0.248 -0.023 1 
0.418 -0.237 -0.021 1 
0.414 -0.228 -0.02 1 
0.413 -0.215 -0.019 1 
0.41 -0.205 -0.018 1 
0.409 -0.195 -0.018 1 
0.412 -0.185 -0.018 1 
0.412 -0.166 -0.018 1 
0.41 -0.146 -0.017 1 
0.412 -0.126 -0.017 1 
0.39 -0.246 -0.027 1 
0.414 -0.115 -0.017 1 
0.412 -0.105 -0.017 1 
0.412 -0.096 -0.017 1 
0.413 -0.085 -0.017 1 
0.41 -0.076 -0.016 1 
0.406 -0.068 -0.014 1 
0.409 -0.047 -0.015 1 
0.394 -0.026 -0.011 1 
0.401 0.034 -0.013 1 
0.401 0.053 -0.013 1 
0.404 0.073 -0.014 1 
0.404 0.077 -0.015 1 
0.374 -0.111 -0.017 1 
0.401 0.124 -0.014 1 
0.401 0.131 -0.015 1 
0.399 0.154 -0.015 1 
0.397 0.172 -0.015 1 
0.394 0.192 -0.015 1 
0.393 0.194 -0.014 1 
0.393 0.201 -0.015 1 
0.392 0.202 -0.014 1 
0.394 0.221 -0.016 1 
0.39 0.244 -0.016 1 
0.389 0.253 -0.016 1 
0.388 0.255 -0.016 1 
0.429 -0.306 -0.025 1 
0.419 -0.225 -0.019 1 
0.419 -0.097 -0.016 1 
0.446 -0.039 -0.024 1 
0.426 -0.034 -0.018 1 
0.414 -0.03 -0.014 1 
0.394 -0.023 -0.009 1 
0.402 -0.009 -0.011 1 
0.418 0.054 -0.016 1 
0.408 0.061 -0.013 1 
0.416 0.065 -0.016 1 
0.412 0.066 -0.015 1 
0.41 0.073 -0.014 1 
0.407 0.103 -0.014 1 
0.409 0.124 -0.015 1 
0.389 0.024 -0.014 1 
0.404 0.144 -0.014 1 
0.404 0.153 -0.014 1 
0.404 0.164 -0.014 1 
0.405 0.18 -0.015 1 
0.403 0.183 -0.015 1 
0.403 0.19 -0.015 1 
0.401 0.193 -0.014 1 
0.402 0.223 -0.016 1 
0.401 0.233 -0.016 1 
0.396 0.264 -0.016 1 
0.433 -0.308 -0.023 1 
0.432 -0.288 -0.022 1 
0.433 -0.277 -0.022 1 
0.432 -0.256 -0.021 1 
0.43 -0.246 -0.02 1 
0.427 -0.235 -0.019 1 
0.424 -0.217 -0.018 1 
0.424 -0.196 -0.017 1 
0.424 -0.156 -0.016 1 
0.394 0.214 -0.015 1 
0.422 -0.126 -0.015 1 
0.424 -0.106 -0.016 1 
0.422 -0.086 -0.015 1 
0.424 -0.066 -0.015 1 
0.421 -0.049 -0.014 1 
0.378 -0.185 -0.02 1 
0.394 -0.147 -0.018 1 
0.398 0.103 -0.013 1 
0.421 -0.04 -0.014 1 
0.439 -0.033 -0.019 1 
0.402 -0.018 -0.009 1 
0.413 0.044 -0.012 1 
0.411 0.046 -0.012 1 
0.448 0.058 -0.022 1 
0.421 0.062 -0.015 1 
0.414 0.083 -0.013 1 
0.414 0.085 -0.013 1 
0.413 0.123 -0.013 1 
0.411 0.134 -0.013 1 
0.41 0.164 -0.014 1 
0.408 0.194 -0.014 1 
0.401 0.212 -0.013 1 
0.404 -0.24 -0.024 1 
0.408 0.224 -0.015 1 
0.402 0.271 -0.016 1 
0.433 -0.226 -0.018 1 
0.431 -0.215 -0.017 1 
0.433 -0.206 -0.017 1 
0.432 -0.197 -0.017 1 
0.429 -0.187 -0.016 1 
0.43 -0.147 -0.015 1 
0.431 -0.087 -0.015 1 
0.432 -0.075 -0.015 1 
0.431 -0.065 -0.015 1 
0.394 -0.013 -0.011 1 
0.432 -0.044 -0.015 1 
0.464 -0.036 -0.024 1 
0.414 -0.012 -0.01 1 
0.324 0.013 0.013 1 
0.333 -0.013 -0.005 1 
0.325 0.014 0.013 1 
0.422 0.046 -0.013 1 
0.39 0.161 -0.014 1 
0.435 0.058 -0.016 1 
0.432 0.062 -0.016 1 
0.422 0.074 -0.013 1 
0.421 0.092 -0.013 1 
0.419 0.103 -0.013 1 
0.42 0.122 -0.013 1 
0.414 0.143 -0.012 1 
0.414 0.147 -0.012 1 
0.414 0.184 -0.013 1 
0.414 0.229 -0.015 1 
0.415 0.233 -0.015 1 
0.415 0.241 -0.015 1 
0.414 0.242 -0.015 1 
0.411 0.264 -0.015 1 
0.412 0.27 -0.016 1 
0.411 0.281 -0.016 1 
0.442 -0.295 -0.02 1 
0.444 -0.276 -0.02 1 
0.433 -0.185 -0.014 1 
0.434 -0.178 -0.015 1 
0.433 -0.159 -0.014 1 
0.435 -0.158 -0.015 1 
0.437 -0.146 -0.015 1 
0.438 -0.137 -0.015 1 
0.437 -0.123 -0.015 1 
0.434 -0.066 -0.013 1 
0.434 -0.049 -0.013 1 
0.496 -0.01 -0.03 1 
0.326 0.016 0.014 1 
0.422 -0.175 -0.016 1 
0.424 0.042 -0.011 1 
0.46 0.053 -0.021 1 
0.489 0.064 -0.028 1 
0.457 0.06 -0.02 1 
0.421 0.154 -0.012 1 
0.421 0.164 -0.012 1 
0.418 0.184 -0.012 1 
0.421 0.194 -0.013 1 
0.414 0.211 -0.012 1 
0.415 0.282 -0.015 1 
0.414 0.284 -0.014 1 
0.442 -0.256 -0.016 1 
0.445 -0.239 -0.016 1 
0.444 -0.235 -0.016 1 
0.445 -0.225 -0.016 1 
0.444 -0.217 -0.015 1 
0.424 -0.077 -0.015 1 
0.445 -0.198 -0.015 1 
0.443 -0.192 -0.015 1 
0.442 -0.186 -0.014 1 
0.443 -0.178 -0.014 1 
0.439 -0.165 -0.013 1 
0.441 -0.156 -0.014 1 
0.442 -0.146 -0.014 1 
0.444 -0.14 -0.014 1 
0.444 -0.127 -0.014 1 
0.44 -0.115 -0.013 1 
0.441 -0.095 -0.013 1 
0.419 0.084 -0.012 1 
0.441 -0.085 -0.013 1 
0.44 -0.065 -0.012 1 
0.443 -0.056 -0.013 1 
0.443 -0.041 -0.013 1 
0.424 -0.015 -0.008 1 
0.42 -0.012 -0.007 1 
0.432 0.041 -0.011 1 
0.433 0.072 -0.011 1 
0.433 0.084 -0.011 1 
0.409 -0.055 -0.015 1 
0.434 0.094 -0.012 1 
0.433 0.123 -0.012 1 
0.426 0.144 -0.01 1 
0.429 0.154 -0.011 1 
0.424 0.204 -0.011 1 
0.42 0.211 -0.011 1 
0.423 0.221 -0.012 1 
0.423 0.232 -0.012 1 
0.423 0.243 -0.012 1 
0.423 0.254 -0.013 1 
0.419 0.284 -0.013 1 
0.452 -0.329 -0.018 1 
0.453 -0.317 -0.018 1 
0.424 -0.207 -0.018 1 
0.454 -0.308 -0.018 1 
0.453 -0.297 -0.017 1 
0.454 -0.289 -0.017 1 
0.443 -0.269 -0.014 1 
0.444 -0.255 -0.014 1 
0.45 -0.226 -0.014 1 
0.447 -0.205 -0.013 1 
0.448 -0.195 -0.013 1 
0.45 -0.185 -0.014 1 
0.448 -0.155 -0.013 1 
0.451 -0.146 -0.013 1 
0.449 -0.105 -0.012 1 
0.501 -0.043 -0.025 1 
0.505 -0.038 -0.026 1 
0.406 -0.018 -0.002 1 
0.51 -0.011 -0.027 1 
0.441 0.074 -0.011 1 
0.443 0.082 -0.011 1 
0.439 0.104 -0.011 1 
0.44 0.124 -0.011 1 
0.433 0.174 -0.011 1 
0.43 0.183 -0.01 1 
0.43 0.193 -0.01 1 
0.428 0.234 -0.011 1 
0.422 0.293 -0.012 1 
0.377 -0.202 -0.025 1 
0.458 -0.315 -0.016 1 
0.457 -0.308 -0.016 1 
0.454 -0.277 -0.014 1 
0.424 0.134 -0.012 1 
0.451 -0.265 -0.013 1 
0.454 -0.238 -0.013 1 
0.454 -0.216 -0.013 1 
0.454 -0.115 -0.011 1 
0.454 -0.097 -0.011 1 
0.454 -0.086 -0.011 1 
0.454 -0.066 -0.011 1 
0.452 -0.04 -0.01 1 
0.504 -0.041 -0.023 1 
0.517 -0.039 -0.026 1 
0.442 0.032 -0.008 1 
0.441 0.037 -0.008 1 
0.434 0.055 -0.006 1 
0.439 0.061 -0.008 1 
0.444 0.134 -0.01 1 
0.44 0.163 -0.009 1 
0.44 0.174 -0.01 1 
0.431 0.204 -0.008 1 
0.43 0.214 -0.008 1 
0.432 0.221 -0.009 1 
0.433 0.252 -0.01 1 
0.433 0.284 -0.011 1 
0.427 0.298 -0.01 1 
0.463 -0.345 -0.015 1 
0.467 -0.335 -0.016 1 
0.381 0.184 -0.015 1 
0.461 -0.315 -0.014 1 
0.461 -0.296 -0.013 1 
0.454 -0.255 -0.011 1 
0.462 -0.236 -0.012 1 
0.461 -0.215 -0.011 1 
0.462 -0.196 -0.011 1 
0.461 -0.156 -0.011 1 
0.46 -0.137 -0.01 1 
0.46 -0.096 -0.01 1 
0.46 -0.075 -0.01 1 
0.384 -0.091 -0.016 1 
0.511 -0.045 -0.021 1 
0.363 -0.026 -0.011 1 
0.554 -0.019 -0.031 1 
0.538 -0.015 -0.027 1 
0.433 0.269 -0.011 1 
0.531 -0.012 -0.026 1 
0.44 0.144 -0.009 1 
0.45 0.041 -0.008 1 
0.484 0.049 -0.015 1 
0.487 0.055 -0.016 1 
0.483 0.057 -0.015 1 
0.446 0.063 -0.007 1 
0.454 0.083 -0.009 1 
0.452 0.093 -0.008 1 
0.451 0.103 -0.008 1 
0.451 0.113 -0.008 1 
0.451 0.134 -0.009 1 
0.442 0.191 -0.008 1 
0.443 0.202 -0.008 1 
0.44 0.214 -0.008 1 
0.464 -0.255 -0.01 1 
0.464 -0.116 -0.008 1 
0.464 -0.055 -0.008 1 
0.464 -0.044 -0.008 1 
0.516 -0.036 -0.019 1 
0.453 0.034 -0.006 1 
0.485 0.057 -0.013 1 
0.428 0.052 0 1 
0.453 0.065 -0.006 1 
0.453 0.154 -0.007 1 
0.493 -0.042 -0.026 1 
0.444 0.239 -0.007 1 
0.444 0.274 -0.008 1 
0.444 0.283 -0.008 1 
0.441 0.292 -0.008 1 
0.473 -0.338 -0.011 1 
0.472 -0.247 -0.009 1 
0.47 -0.236 -0.008 1 
0.468 -0.115 -0.006 1 
0.469 -0.105 -0.006 1 
0.469 -0.085 -0.006 1 
0.468 -0.066 -0.006 1 
0.467 -0.055 -0.006 1 
0.468 -0.047 -0.006 1 
0.468 -0.044 -0.006 1 
0.502 -0.04 -0.013 1 
0.512 -0.036 -0.015 1 
0.544 -0.012 -0.022 1 
0.381 -0.007 -0.011 1 
0.375 0.006 0.013 1 
0.464 0.038 -0.005 1 
0.446 0.045 -0.012 1 
0.465 0.04 -0.006 1 
0.485 0.052 -0.01 1 
0.399 -0.047 -0.014 1 
0.372 0.024 -0.012 1 
0.46 0.074 -0.005 1 
0.461 0.093 -0.005 1 
0.422 -0.145 -0.016 1 
0.459 0.114 -0.005 1 
0.459 0.124 -0.005 1 
0.47 -0.285 -0.009 1 
0.458 0.132 -0.005 1 
0.457 0.142 -0.005 1 
0.457 0.153 -0.005 1 
0.455 0.172 -0.005 1 
0.454 0.174 -0.005 1 
0.391 0.233 -0.015 1 
0.452 0.184 -0.005 1 
0.453 0.193 -0.005 1 
0.453 0.204 -0.005 1 
0.453 0.212 -0.006 1 
0.453 0.224 -0.006 1 
0.45 0.233 -0.005 1 
0.45 0.244 -0.006 1 
0.449 0.252 -0.006 1 
0.448 0.263 -0.006 1 
0.448 0.272 -0.006 1 
0.407 -0.04 -0.015 1 
0.444 0.314 -0.007 1 
0.444 0.317 -0.007 1 
0.474 -0.357 -0.009 1 
0.474 -0.354 -0.009 1 
0.432 0.133 -0.012 1 
0.443 0.264 -0.007 1 
0.473 -0.328 -0.008 1 
0.363 -0.075 -0.016 1 
0.473 -0.318 -0.008 1 
0.453 -0.047 -0.01 1 
0.474 -0.305 -0.007 1 
0.474 -0.276 -0.007 1 
0.475 -0.268 -0.007 1 
0.412 -0.175 -0.018 1 
0.476 -0.256 -0.007 1 
0.477 -0.247 -0.007 1 
0.475 -0.237 -0.006 1 
0.472 -0.226 -0.006 1 
0.472 -0.217 -0.005 1 
0.472 -0.197 -0.005 1 
0.471 -0.179 -0.005 1 
0.472 -0.156 -0.005 1 
0.39 -0.226 -0.024 1 
0.386 -0.001 0.012 1 
0.512 -0.039 -0.012 1 
0.462 0.04 -0.002 1 
0.454 0.242 -0.004 1 
0.453 0.253 -0.004 1 
0.453 0.264 -0.004 1 
0.493 -0.01 -0.026 1 
0.453 0.277 -0.004 1 
0.455 0.282 -0.005 1 
0.453 0.283 -0.005 1 
0.452 0.294 -0.005 1 
0.451 0.302 -0.005 1 
0.45 0.314 -0.005 1 
0.447 0.321 -0.005 1 
0.477 -0.357 -0.007 1 
0.479 -0.345 -0.007 1 
0.478 -0.336 -0.006 1 
0.478 -0.326 -0.006 1 
0.388 0.044 -0.013 1 
0.478 -0.316 -0.006 1 
0.476 -0.307 -0.005 1 
0.476 -0.297 -0.005 1 
0.477 -0.288 -0.005 1 
0.473 -0.206 -0.003 1 
0.518 -0.049 -0.01 1 
0.51 -0.045 -0.009 1 
0.523 -0.043 -0.011 1 
0.46 -0.175 -0.011 1 
0.421 0.274 -0.013 1 
0.454 0.302 -0.003 1 
0.454 0.312 -0.003 1 
0.475 -0.155 0 1 
0.475 -0.152 0 1 
0.465 0.083 0.001 1 
0.465 0.094 0.001 1 
0.454 0.322 0 1 
0.454 0.325 -0.001 1 
0.475 -0.201 0.002 1 
0.474 -0.195 0.002 1 
0.473 -0.185 0.002 1 
0.472 -0.176 0.002 1 
0.474 -0.157 0.002 1 
0.473 -0.145 0.003 1 
0.424 0.11 -0.012 1 
0.472 -0.136 0.003 1 
0.351 0.194 -0.017 1 
0.413 -0.136 -0.017 1 
0.464 0.094 0.004 1 
0.463 0.104 0.004 1 
0.463 0.112 0.004 1 
0.463 0.123 0.004 1 
0.461 0.153 0.004 1 
0.461 0.173 0.003 1 
0.46 0.183 0.003 1 
0.461 0.192 0.003 1 
0.462 0.204 0.003 1 
0.46 0.223 0.003 1 
0.46 0.232 0.003 1 
0.46 0.244 0.002 1 
0.378 -0.177 -0.02 1 
0.463 0.264 0.001 1 
0.461 0.272 0.002 1 
0.481 -0.319 0.002 1 
0.478 -0.306 0.003 1 
0.478 -0.286 0.003 1 
0.479 -0.277 0.003 1 
0.41 0.193 -0.015 1 
0.443 0.183 -0.008 1 
0.538 -0.041 -0.004 1 
0.46 0.292 0.004 1 
0.46 0.302 0.004 1 
0.459 0.314 0.004 1 
0.459 0.32 0.003 1 
0.358 0.103 -0.014 1 
0.481 -0.332 0.004 1 
0.437 -0.126 -0.015 1 
0.528 -0.04 0 1 
0.526 -0.024 0 1 
0.429 0.292 -0.011 1 
0.524 -0.037 0.004 1 
0.512 -0.032 0.005 1 
0.519 -0.03 0.004 1 
0.401 -0.255 -0.026 1 
0.525 -0.027 0.003 1 
0.385 0.145 -0.014 1 
0.536 -0.025 0.002 1 
0.545 -0.022 0 1 
0.364 -0.105 -0.017 1 
0.541 -0.018 0.001 1 
0.463 -0.052 -0.007 1 
0.459 -0.067 -0.009 1 
0.408 0.204 -0.012 1 
0.378 -0.145 -0.019 1 
0.46 -0.086 -0.01 1 
0.449 -0.166 -0.013 1 
0.464 -0.125 -0.008 1 
0.391 -0.096 -0.016 1 
0.461 -0.145 -0.01 1 
0.465 0.102 0.001 1 
0.38 0.185 -0.014 1 
0.461 -0.167 -0.011 1 
0.462 -0.187 -0.011 1 
0.463 -0.225 -0.009 1 
0.455 -0.245 -0.011 1 
0.461 -0.286 -0.013 1 
0.444 0.253 -0.007 1 
0.462 -0.306 -0.014 1 
0.404 -0.091 -0.016 1 
0.431 -0.106 -0.015 1 
0.441 -0.075 -0.013 1 
0.408 0.114 -0.014 1 
0.429 -0.137 -0.015 1 
0.373 0.113 -0.015 1 
0.466 0.059 -0.019 1 
0.391 0.174 -0.015 1 
0.432 0.103 -0.011 1 
0.442 -0.268 -0.016 1 
0.441 0.094 -0.011 1 
0.444 -0.323 -0.019 1 
0.399 0.134 -0.014 1 
0.398 -0.125 -0.017 1 
0.453 0.143 -0.007 1 
0.4 0.204 -0.012 1 
0.456 -0.3 -0.015 1 
0.55 -0.036 -0.006 1 
0.475 -0.193 0 1 
0.451 -0.135 -0.013 1 
0.444 -0.247 -0.016 1 
0.361 0.092 -0.014 1 
0.369 -0.015 -0.009 1 
0.472 -0.148 -0.005 1 
0.445 -0.222 -0.016 1 
0.446 -0.016 -0.009 1 
0.36 0.114 -0.013 1 
0.43 -0.125 -0.015 1 
0.462 -0.205 -0.011 1 
0.363 -0.066 -0.016 1 
0.465 -0.313 -0.015 1 
0.442 0.153 -0.01 1 
0.435 -0.176 -0.015 1 
0.354 0.164 -0.014 1 
0.336 0.018 -0.004 1 
0.412 -0.036 -0.014 1 
0.476 -0.284 -0.007 1 
0.363 0.144 -0.015 1 
0.397 0.244 -0.015 1 
0.393 0.029 -0.013 1 
0.354 0.046 -0.009 1 
0.391 -0.196 -0.021 1 
0.414 0.058 -0.015 1 
0.432 0.113 -0.011 1 
0.459 -0.327 -0.017 1 
0.43 0.057 -0.003 1 
0.443 -0.046 -0.013 1 
0.388 -0.135 -0.018 1 
0.37 -0.065 -0.015 1 
0.358 0.204 -0.016 1 
0.453 -0.282 -0.016 1 
0.444 -0.206 -0.015 1 
0.444 -0.2 -0.015 1 
0.38 0.093 -0.015 1 
0.353 0.203 -0.016 1 
0.395 0.212 -0.016 1 
0.393 0.137 -0.014 1 
0.457 0.332 0.003 1 
0.412 0.254 -0.015 1 
0.374 0.204 -0.017 1 
0.473 -0.165 0.002 1 
0.403 -0.246 -0.027 1 
0.43 -0.155 -0.016 1 
0.388 0.122 -0.015 1 
0.486 0.052 -0.016 1 
0.374 0.064 -0.013 1 
0.399 0.112 -0.014 1 
0.412 0.22 -0.014 1 
0.434 -0.172 -0.015 1 
0.419 -0.252 -0.025 1 
0.429 -0.267 -0.023 1 
0.4 -0.167 -0.019 1 
0.422 -0.045 -0.015 1 
0.449 -0.126 -0.013 1 
0.464 -0.033 -0.021 1 
0.382 0.203 -0.016 1 
0.474 -0.299 -0.007 1 
0.354 0.143 -0.015 1 
0.382 0.193 -0.015 1 
0.423 -0.165 -0.016 1 
0.468 -0.126 -0.006 1 
0.528 -0.015 -0.035 1 
0.371 0.089 -0.014 1 
0.428 0.164 -0.012 1 
0.42 0.173 -0.012 1 
0.362 0.163 -0.015 1 
0.414 0.174 -0.013 1 
0.418 -0.265 -0.025 1 
0.407 -0.066 -0.015 1 
0.433 0.305 -0.009 1 
0.463 -0.338 -0.015 1 
0.422 -0.136 -0.015 1 
0.471 -0.205 -0.005 1 
0.39 -0.236 -0.026 1 
0.36 0.174 -0.015 1 
0.464 -0.267 -0.01 1 
0.478 -0.296 0.003 1 
0.441 0.301 -0.008 1 
0.394 0.103 -0.014 1 
0.523 -0.011 -0.027 1 
0.421 0.263 -0.013 1 
0.419 0.143 -0.011 1 
0.444 -0.285 -0.02 1 
0.434 -0.296 -0.023 1 
0.462 0.254 0.002 1 
0.394 -0.036 -0.015 1 
0.453 -0.285 -0.014 1 
0.464 -0.114 -0.008 1 
0.412 -0.156 -0.018 1 
0.413 0.033 -0.012 1 
0.448 -0.077 -0.012 1 
0.406 -0.239 -0.025 1 
0.477 0.048 -0.005 1 
0.382 0.133 -0.015 1 
0.374 -0.063 -0.014 1 
0.461 0.164 0.004 1 
0.43 0.263 -0.01 1 
0.454 -0.055 -0.011 1 
0.424 -0.186 -0.017 1 
0.444 0.111 -0.009 1 
0.45 -0.175 -0.013 1 
0.433 0.034 -0.011 1 
0.403 -0.268 -0.028 1 
0.393 0.053 -0.013 1 
0.403 0.167 -0.014 1 
0.405 0.173 -0.015 1 
0.444 -0.31 -0.021 1 
0.428 -0.055 -0.014 1 
0.545 -0.039 -0.002 1 
0.382 -0.215 -0.025 1 
0.374 -0.157 -0.02 1 
0.388 -0.105 -0.018 1 
0.38 0.222 -0.016 1 
0.471 -0.187 -0.005 1 
0.452 0.273 -0.004 1 
0.459 0.282 0.004 1 
0.372 0.174 -0.015 1 
0.498 -0.046 -0.003 1 
0.39 0.093 -0.015 1 
0.403 0.083 -0.014 1 
0.462 0.142 0.004 1 
0.354 0.084 -0.014 1 
0.473 -0.269 -0.006 1 
0.397 0.254 -0.016 1 
0.468 -0.135 -0.006 1 
0.362 0.138 -0.014 1 
0.442 -0.038 -0.015 1 
0.383 -0.165 -0.019 1 
0.344 0.045 -0.009 1 
0.392 -0.186 -0.021 1 
0.424 -0.115 -0.016 1 
0.474 -0.264 -0.007 1 
0.463 0.083 0.004 1 
0.461 0.082 -0.005 1 
0.4 0.044 -0.013 1 
0.381 0.064 -0.013 1 
0.416 -0.277 -0.025 1 
0.382 0.214 -0.016 1 
0.424 0.03 -0.011 1 
0.393 -0.085 -0.017 1 
0.441 0.223 -0.008 1 
0.443 -0.226 -0.015 1 
0.354 0.073 -0.013 1 
0.373 0.194 -0.017 1 
0.471 -0.17 -0.005 1 
0.401 -0.026 -0.011 1 
0.377 0.174 -0.015 1 
0.456 0.164 -0.005 1 
0.464 -0.28 -0.011 1 
0.361 0.213 -0.016 1 
0.422 -0.056 -0.015 1 
0.442 -0.105 -0.013 1 
0.461 0.212 0.003 1 
0.434 0.242 -0.01 1 
0.453 -0.249 -0.01 1 
0.458 -0.038 -0.025 1 
0.431 -0.165 -0.014 1 
0.43 -0.018 -0.005 1 
0.413 -0.021 -0.008 1 
0.44 0.233 -0.009 1 
0.533 -0.015 -0.03 1 
0.469 -0.096 -0.006 1 
0.452 0.124 -0.009 1 
0.371 0.072 -0.014 1 
0.471 -0.042 -0.017 1 
0.468 -0.077 -0.006 1 
0.363 -0.036 -0.014 1 
0.382 -0.135 -0.018 1 
0.465 -0.33 -0.015 1 
0.43 -0.115 -0.015 1 
0.432 -0.097 -0.015 1 
0.46 0.103 -0.005 1 
0.371 0.082 -0.014 1 
0.451 0.164 -0.007 1 
0.373 0.149 -0.013 1 
0.364 0.064 -0.013 1 
0.475 -0.21 0.004 1 
0.401 0.094 -0.014 1 
0.373 -0.014 0.023 2 
0.376 -0.008 0.046 2 
0.368 -0.008 0.05 2 
0.386 -0.017 0.008 2 
0.37 0.035 0.039 2 
0.397 -0.015 0.006 2 
0.367 -0.017 0.026 2 
0.374 0.039 0.027 2 
0.361 -0.016 0.031 2 
0.361 0.035 0.033 2 
0.364 -0.008 0.045 2 
0.417 0.054 0.015 2 
0.499 -0.034 0.04 2 
0.549 -0.026 0.055 2 
0.581 -0.028 0.075 2 
0.541 -0.035 0.051 2 
0.555 -0.019 0.055 2 
0.584 -0.032 0.082 2 
0.569 -0.02 0.064 2 
0.563 -0.044 0.07 2 
0.568 -0.038 0.07 2 
0.55 -0.043 0.06 2 
0.527 -0.037 0.039 2 
0.562 -0.044 0.073 2 
0.573 -0.034 0.07 2 
0.522 -0.03 0.036 2 
0.544 -0.032 0.05 2 
0.541 -0.025 0.043 2 
0.533 -0.041 0.051 2 
0.596 -0.048 0.103 2 
0.548 -0.022 0.045 2 
0.554 -0.023 0.051 2 
0.585 -0.021 0.071 2 
0.534 -0.041 0.048 2 
0.541 -0.018 0.049 2 
0.59 -0.055 0.088 2 
0.532 -0.031 0.038 2 
0.571 -0.045 0.08 2 
0.574 -0.042 0.08 2 
0.597 -0.021 0.086 2 
0.519 -0.039 0.037 2 
0.583 -0.024 0.071 2 
0.593 -0.029 0.093 2 
0.59 -0.036 0.088 2 
0.582 -0.043 0.088 2 
0.52 -0.04 0.043 2 
0.533 -0.028 0.047 2 
0.532 -0.018 0.047 2 
0.591 -0.021 0.078 2 
0.568 -0.041 0.084 2 
0.581 -0.046 0.095 2 
0.593 -0.051 0.092 2 
0.584 -0.054 0.092 2 
0.579 -0.046 0.088 2 
0.574 -0.053 0.084 2 
0.581 -0.024 0.064 2 
0.56 -0.026 0.065 2 
0.557 -0.037 0.06 2 
0.574 -0.024 0.068 2 
0.595 -0.021 0.074 2 
0.563 -0.048 0.059 2 
0.563 -0.02 0.058 2 
0.593 -0.025 0.086 2 
0.549 -0.032 0.053 2 
0.541 -0.042 0.054 2 
0.583 -0.035 0.08 2 
0.597 -0.036 0.099 2 
0.589 -0.025 0.074 2 
0.593 -0.04 0.099 2 
0.59 -0.047 0.099 2 
0.598 -0.029 0.101 2 
0.58 -0.042 0.095 2 
0.599 -0.021 0.093 2 
0.598 -0.025 0.093 2 
0.574 -0.045 0.084 2 
0.256 -0.005 0.094 3 
0.284 0.018 0.064 3 
0.323 0.014 0.022 3 
0.323 0.022 0.034 3 
0.299 0.023 0.074 3 
0.276 0.008 0.073 3 
0.315 0.024 0.04 3 
0.303 0.03 0.101 3 
0.276 -0.005 0.074 3 
0.275 -0.002 0.074 3 
0.274 0.004 0.074 3 
0.273 0.013 0.074 3 
0.274 0.016 0.074 3 
0.266 -0.006 0.096 3 
0.278 0.019 0.074 3 
0.304 0.029 0.091 3 
0.275 -0.007 0.083 3 
0.296 -0.004 0.055 3 
0.31 0.024 0.073 3 
0.255 0.014 0.094 3 
0.255 0.004 0.094 3 
0.305 0.024 0.076 3 
0.292 0.019 0.054 3 
0.322 0.025 0.055 3 
0.318 0.026 0.075 3 
0.257 0.019 0.094 3 
0.305 0.014 0.04 3 
0.285 0.019 0.064 3 
0.276 0.023 0.093 3 
0.281 0.004 0.064 3 
0.314 0.014 0.034 3 
0.276 0.024 0.095 3 
0.308 0.023 0.056 3 
0.275 0.021 0.078 3 
0.276 -0.007 0.098 3 
0.27 0.022 0.095 3 
0.265 0.019 0.084 3 
0.285 0.004 0.06 3 
0.295 0.007 0.048 3 
0.266 -0.005 0.093 3 
0.305 0.021 0.046 3 
0.265 -0.004 0.092 3 
0.265 0.02 0.092 3 
0.298 0.002 0.044 3 
0.315 -0.002 0.04 3 
0.289 0.027 0.097 3 
0.292 -0.009 0.099 3 
0.296 0.021 0.062 3 
0.309 -0.003 0.042 3 
0.305 0.026 0.08 3 
0.279 -0.007 0.094 3 
0.275 0.009 0.076 3 
0.287 0.024 0.078 3 
0.302 0.019 0.044 3 
0.309 0.022 0.043 3 
0.32 0.025 0.041 3 
0.275 -0.003 0.077 3 
0.324 -0.005 0.048 3 
0.265 0.005 0.086 3 
0.319 0.026 0.071 3 
0.29 0.014 0.054 3 
0.288 0.004 0.054 3 
0.295 -0.003 0.054 3 
0.318 0.005 0.033 3 
0.285 0.014 0.06 3 
0.263 0.015 0.084 3 
0.296 0.02 0.053 3 
0.262 0.014 0.084 3 
0.321 0.004 0.034 3 
0.265 0.008 0.084 3 
0.266 0.004 0.084 3 
0.266 -0.005 0.084 3 
0.288 -0.008 0.083 3 
0.324 0.003 0.021 3 
0.326 0.004 0.022 3 
0.324 0.004 0.014 3 
0.255 -0.002 0.095 3 
0.3 0.014 0.044 3 
0.262 0.022 0.098 3 
0.254 0.005 0.095 3 
0.279 0.012 0.064 3 
0.286 0.019 0.065 3 
0.255 0.014 0.095 3 
0.253 0.004 0.094 3 
0.254 0.001 0.095 3 
0.327 0 0.034 3 
0.293 0.01 0.039 3 
0.256 -0.005 0.096 3 
0.311 -0.009 0.102 3 
0.464 0.133 0.133 3 
0.462 0.153 0.063 3 
0.465 0.103 0.133 3 
0.463 0.143 0.122 3 
0.464 0.133 0.122 3 
0.463 0.143 0.133 3 
0.465 0.059 0.063 3 
0.465 0.122 0.133 3 
0.462 0.184 0.054 3 
0.463 0.154 0.122 3 
0.465 0.114 0.133 3 
0.463 0.163 0.122 3 
0.463 0.174 0.133 3 
0.466 0.092 0.133 3 
0.462 0.214 0.142 3 
0.464 0.192 0.142 3 
0.461 0.202 0.133 3 
0.462 0.223 0.142 3 
0.461 0.112 0.012 3 
0.46 0.313 0.122 3 
0.46 0.323 0.122 3 
0.458 0.334 0.122 3 
0.465 0.087 0.122 3 
0.465 0.095 0.122 3 
0.461 0.213 0.134 3 
0.464 0.103 0.122 3 
0.463 0.163 0.133 3 
0.463 0.194 0.133 3 
0.464 0.183 0.134 3 
0.464 0.105 0.122 3 
0.463 0.182 0.122 3 
0.465 0.114 0.122 3 
0.465 0.119 0.122 3 
0.464 0.122 0.122 3 
0.465 0.125 0.122 3 
0.462 0.184 0.092 3 
0.464 0.084 0.124 3 
0.464 0.092 0.124 3 
0.464 0.103 0.125 3 
0.464 0.122 0.125 3 
0.465 0.081 0.063 3 
0.462 0.244 0.134 3 
0.462 0.25 0.134 3 
0.461 0.064 0.129 3 
0.464 0.076 0.13 3 
0.462 0.201 0.092 3 
0.462 0.252 0.123 3 
0.459 0.333 0.142 3 
0.462 0.323 0.142 3 
0.461 0.324 0.133 3 
0.465 0.128 0.13 3 
0.461 0.222 0.134 3 
0.462 0.262 0.132 3 
0.461 0.282 0.132 3 
0.463 0.134 0.004 3 
0.46 0.294 0.132 3 
0.461 0.314 0.133 3 
0.461 0.264 0.123 3 
0.463 0.174 0.122 3 
0.466 0.084 0.133 3 
0.46 0.3 0.132 3 
0.465 0.073 0.133 3 
0.463 0.194 0.122 3 
0.465 0.139 0.141 3 
0.463 0.202 0.123 3 
0.461 0.222 0.123 3 
0.461 0.234 0.123 3 
0.461 0.243 0.123 3 
0.465 0.19 0.142 3 
0.462 0.274 0.124 3 
0.46 0.284 0.124 3 
0.464 0.133 0.141 3 
0.46 0.294 0.124 3 
0.461 0.301 0.124 3 
0.459 0.064 0.123 3 
0.464 0.07 0.132 3 
0.461 0.234 0.134 3 
0.457 0.334 0.133 3 
0.462 0.173 0.092 3 
0.46 0.053 0.086 3 
0.459 0.294 0.024 3 
0.461 0.192 0.022 3 
0.464 0.083 0.092 3 
0.464 0.094 0.092 3 
0.464 0.102 0.092 3 
0.464 0.113 0.092 3 
0.463 0.124 0.092 3 
0.463 0.132 0.092 3 
0.463 0.143 0.092 3 
0.463 0.154 0.092 3 
0.464 0.064 0.052 3 
0.465 0.081 0.052 3 
0.462 0.193 0.092 3 
0.461 0.224 0.092 3 
0.461 0.232 0.093 3 
0.461 0.244 0.093 3 
0.46 0.253 0.093 3 
0.459 0.264 0.093 3 
0.46 0.274 0.093 3 
0.462 0.213 0.092 3 
0.461 0.304 0.093 3 
0.461 0.313 0.093 3 
0.461 0.323 0.094 3 
0.458 0.333 0.093 3 
0.461 0.314 0.102 3 
0.462 0.153 0.084 3 
0.465 0.348 0.195 3 
0.465 0.059 0.082 3 
0.46 0.293 0.082 3 
0.46 0.302 0.082 3 
0.46 0.312 0.082 3 
0.462 0.053 0.084 3 
0.463 0.062 0.084 3 
0.464 0.073 0.084 3 
0.464 0.083 0.084 3 
0.464 0.094 0.084 3 
0.464 0.113 0.084 3 
0.463 0.124 0.084 3 
0.463 0.132 0.084 3 
0.461 0.32 0.102 3 
0.462 0.162 0.084 3 
0.456 0.331 0.054 3 
0.463 0.174 0.084 3 
0.462 0.184 0.084 3 
0.462 0.193 0.084 3 
0.462 0.204 0.084 3 
0.461 0.212 0.084 3 
0.461 0.224 0.084 3 
0.462 0.233 0.084 3 
0.461 0.244 0.084 3 
0.461 0.253 0.084 3 
0.459 0.264 0.084 3 
0.459 0.276 0.084 3 
0.464 0.094 0.114 3 
0.464 0.073 0.092 3 
0.461 0.224 0.103 3 
0.461 0.254 0.112 3 
0.461 0.263 0.112 3 
0.461 0.282 0.113 3 
0.461 0.301 0.113 3 
0.461 0.314 0.113 3 
0.46 0.323 0.113 3 
0.458 0.334 0.113 3 
0.463 0.143 0.063 3 
0.462 0.072 0.113 3 
0.464 0.081 0.114 3 
0.465 0.087 0.114 3 
0.454 0.06 0.104 3 
0.464 0.103 0.114 3 
0.464 0.094 0.052 3 
0.464 0.113 0.114 3 
0.464 0.124 0.114 3 
0.464 0.133 0.114 3 
0.465 0.136 0.114 3 
0.464 0.144 0.114 3 
0.463 0.154 0.114 3 
0.463 0.163 0.114 3 
0.463 0.194 0.114 3 
0.463 0.202 0.114 3 
0.46 0.224 0.114 3 
0.46 0.233 0.114 3 
0.462 0.184 0.103 3 
0.459 0.331 0.102 3 
0.459 0.335 0.102 3 
0.463 0.064 0.103 3 
0.463 0.072 0.103 3 
0.464 0.083 0.103 3 
0.463 0.102 0.103 3 
0.463 0.113 0.103 3 
0.463 0.124 0.103 3 
0.463 0.132 0.103 3 
0.462 0.143 0.103 3 
0.463 0.154 0.103 3 
0.463 0.163 0.103 3 
0.463 0.174 0.103 3 
0.46 0.239 0.114 3 
0.463 0.194 0.103 3 
0.462 0.213 0.103 3 
0.459 0.273 0.013 3 
0.461 0.233 0.103 3 
0.46 0.244 0.104 3 
0.459 0.321 0.082 3 
0.46 0.253 0.104 3 
0.459 0.261 0.104 3 
0.457 0.332 0.082 3 
0.46 0.284 0.104 3 
0.46 0.293 0.104 3 
0.46 0.296 0.104 3 
0.464 0.31 0.18 3 
0.461 0.274 0.032 3 
0.465 0.194 0.173 3 
0.462 0.253 0.143 3 
0.466 0.203 0.174 3 
0.465 0.212 0.174 3 
0.464 0.22 0.174 3 
0.465 0.223 0.174 3 
0.465 0.232 0.174 3 
0.465 0.238 0.174 3 
0.464 0.294 0.176 3 
0.461 0.273 0.132 3 
0.443 0.063 0.165 3 
0.461 0.256 0.176 3 
0.464 0.303 0.18 3 
0.465 0.183 0.173 3 
0.464 0.334 0.181 3 
0.461 0.341 0.181 3 
0.463 0.202 0.103 3 
0.467 0.274 0.182 3 
0.467 0.284 0.183 3 
0.467 0.294 0.183 3 
0.465 0.301 0.183 3 
0.46 0.293 0.093 3 
0.465 0.311 0.183 3 
0.466 0.322 0.184 3 
0.466 0.326 0.184 3 
0.464 0.094 0.103 3 
0.471 0.072 0.181 3 
0.472 0.084 0.182 3 
0.459 0.338 0.174 3 
0.464 0.237 0.171 3 
0.462 0.213 0.114 3 
0.466 0.254 0.173 3 
0.462 0.072 0.004 3 
0.466 0.264 0.173 3 
0.458 0.335 0.142 3 
0.466 0.273 0.173 3 
0.466 0.289 0.174 3 
0.464 0.293 0.173 3 
0.463 0.302 0.173 3 
0.463 0.312 0.174 3 
0.464 0.316 0.174 3 
0.464 0.323 0.175 3 
0.461 0.334 0.174 3 
0.472 0.092 0.182 3 
0.462 0.072 0.124 3 
0.465 0.275 0.164 3 
0.456 0.066 0.167 3 
0.469 0.072 0.172 3 
0.47 0.083 0.173 3 
0.47 0.094 0.173 3 
0.469 0.102 0.173 3 
0.469 0.113 0.173 3 
0.468 0.124 0.173 3 
0.467 0.132 0.172 3 
0.467 0.143 0.172 3 
0.466 0.154 0.172 3 
0.465 0.163 0.172 3 
0.465 0.174 0.173 3 
0.466 0.243 0.189 3 
0.473 0.124 0.189 3 
0.46 0.064 0.113 3 
0.472 0.132 0.188 3 
0.471 0.143 0.188 3 
0.46 0.281 0.093 3 
0.469 0.154 0.188 3 
0.469 0.162 0.188 3 
0.469 0.174 0.188 3 
0.469 0.182 0.189 3 
0.469 0.194 0.189 3 
0.469 0.203 0.189 3 
0.469 0.212 0.189 3 
0.468 0.223 0.189 3 
0.466 0.234 0.189 3 
0.472 0.073 0.188 3 
0.468 0.254 0.191 3 
0.468 0.26 0.191 3 
0.469 0.273 0.192 3 
0.468 0.282 0.192 3 
0.468 0.292 0.192 3 
0.463 0.182 0.114 3 
0.467 0.301 0.192 3 
0.468 0.312 0.193 3 
0.469 0.323 0.194 3 
0.468 0.329 0.194 3 
0.467 0.332 0.195 3 
0.464 0.34 0.194 3 
0.465 0.344 0.195 3 
0.462 0.142 0.084 3 
0.464 0.083 0.074 3 
0.471 0.103 0.182 3 
0.471 0.114 0.182 3 
0.471 0.123 0.182 3 
0.47 0.134 0.182 3 
0.469 0.144 0.182 3 
0.463 0.203 0.142 3 
0.468 0.153 0.182 3 
0.467 0.164 0.182 3 
0.467 0.172 0.182 3 
0.466 0.183 0.182 3 
0.467 0.193 0.182 3 
0.468 0.202 0.183 3 
0.462 0.214 0.123 3 
0.468 0.211 0.183 3 
0.465 0.184 0.145 3 
0.466 0.224 0.183 3 
0.466 0.233 0.183 3 
0.466 0.243 0.184 3 
0.467 0.249 0.184 3 
0.464 0.25 0.183 3 
0.466 0.255 0.184 3 
0.466 0.338 0.192 3 
0.464 0.346 0.191 3 
0.456 0.33 0.012 3 
0.473 0.084 0.188 3 
0.473 0.093 0.188 3 
0.472 0.103 0.188 3 
0.465 0.282 0.173 3 
0.472 0.112 0.188 3 
0.465 0.142 0.152 3 
0.463 0.304 0.153 3 
0.464 0.312 0.154 3 
0.463 0.324 0.154 3 
0.461 0.232 0.063 3 
0.46 0.331 0.154 3 
0.458 0.336 0.153 3 
0.461 0.302 0.144 3 
0.456 0.331 0.062 3 
0.466 0.082 0.152 3 
0.466 0.093 0.152 3 
0.465 0.103 0.152 3 
0.466 0.112 0.152 3 
0.466 0.123 0.152 3 
0.465 0.134 0.152 3 
0.463 0.152 0.133 3 
0.465 0.153 0.153 3 
0.465 0.162 0.153 3 
0.464 0.164 0.152 3 
0.464 0.172 0.153 3 
0.463 0.184 0.153 3 
0.464 0.193 0.153 3 
0.463 0.204 0.153 3 
0.461 0.274 0.062 3 
0.463 0.212 0.153 3 
0.462 0.223 0.153 3 
0.462 0.232 0.154 3 
0.461 0.243 0.154 3 
0.462 0.253 0.154 3 
0.462 0.153 0.033 3 
0.465 0.145 0.144 3 
0.461 0.243 0.142 3 
0.463 0.263 0.143 3 
0.461 0.273 0.143 3 
0.461 0.283 0.143 3 
0.461 0.292 0.144 3 
0.461 0.305 0.144 3 
0.465 0.073 0.144 3 
0.462 0.164 0.063 3 
0.466 0.084 0.144 3 
0.466 0.093 0.144 3 
0.465 0.103 0.144 3 
0.465 0.122 0.144 3 
0.465 0.133 0.144 3 
0.464 0.141 0.144 3 
0.462 0.256 0.154 3 
0.464 0.152 0.144 3 
0.463 0.163 0.144 3 
0.464 0.172 0.144 3 
0.464 0.181 0.144 3 
0.465 0.187 0.145 3 
0.463 0.174 0.114 3 
0.464 0.133 0.147 3 
0.462 0.053 0.052 3 
0.464 0.076 0.149 3 
0.464 0.141 0.149 3 
0.462 0.272 0.152 3 
0.464 0.07 0.143 3 
0.462 0.284 0.152 3 
0.462 0.294 0.153 3 
0.464 0.187 0.164 3 
0.461 0.067 0.161 3 
0.468 0.074 0.164 3 
0.468 0.082 0.164 3 
0.468 0.093 0.164 3 
0.468 0.104 0.164 3 
0.467 0.112 0.164 3 
0.467 0.124 0.164 3 
0.466 0.134 0.164 3 
0.466 0.143 0.164 3 
0.466 0.154 0.164 3 
0.465 0.162 0.164 3 
0.465 0.167 0.164 3 
0.463 0.173 0.164 3 
0.463 0.181 0.164 3 
0.464 0.062 0.092 3 
0.46 0.282 0.043 3 
0.464 0.202 0.165 3 
0.46 0.301 0.032 3 
0.464 0.258 0.166 3 
0.461 0.273 0.112 3 
0.464 0.249 0.169 3 
0.464 0.284 0.17 3 
0.46 0.243 0.054 3 
0.439 0.062 0.156 3 
0.464 0.173 0.17 3 
0.464 0.182 0.17 3 
0.464 0.188 0.17 3 
0.464 0.214 0.171 3 
0.464 0.234 0.171 3 
0.463 0.162 0.092 3 
0.465 0.073 0.154 3 
0.461 0.294 0.113 3 
0.462 0.173 0.033 3 
0.457 0.066 0.154 3 
0.463 0.132 0.073 3 
0.464 0.312 0.163 3 
0.465 0.317 0.163 3 
0.463 0.321 0.163 3 
0.46 0.271 0.104 3 
0.459 0.334 0.162 3 
0.458 0.336 0.162 3 
0.459 0.27 0.084 3 
0.464 0.102 0.084 3 
0.466 0.112 0.144 3 
0.461 0.234 0.142 3 
0.46 0.234 0.043 3 
0.464 0.202 0.162 3 
0.465 0.084 0.114 3 
0.463 0.213 0.162 3 
0.463 0.224 0.162 3 
0.464 0.234 0.163 3 
0.464 0.243 0.163 3 
0.463 0.254 0.163 3 
0.464 0.261 0.164 3 
0.464 0.265 0.164 3 
0.465 0.272 0.164 3 
0.463 0.282 0.164 3 
0.463 0.292 0.164 3 
0.462 0.301 0.164 3 
0.46 0.264 0.024 3 
0.464 0.067 0.06 3 
0.461 0.212 0.022 3 
0.455 0.33 0.023 3 
0.456 0.324 0.023 3 
0.459 0.313 0.023 3 
0.46 0.302 0.023 3 
0.459 0.282 0.024 3 
0.46 0.273 0.024 3 
0.465 0.086 0.057 3 
0.46 0.252 0.024 3 
0.46 0.243 0.024 3 
0.46 0.234 0.024 3 
0.46 0.203 0.022 3 
0.461 0.184 0.022 3 
0.461 0.172 0.022 3 
0.462 0.162 0.033 3 
0.46 0.273 0.054 3 
0.459 0.324 0.054 3 
0.461 0.223 0.054 3 
0.46 0.234 0.054 3 
0.46 0.252 0.054 3 
0.46 0.264 0.054 3 
0.46 0.282 0.054 3 
0.46 0.293 0.054 3 
0.459 0.304 0.054 3 
0.459 0.314 0.054 3 
0.462 0.053 0.063 3 
0.464 0.094 0.033 3 
0.464 0.083 0.033 3 
0.464 0.072 0.034 3 
0.465 0.067 0.033 3 
0.465 0.064 0.033 3 
0.464 0.056 0.034 3 
0.464 0.054 0.034 3 
0.462 0.123 0.012 3 
0.463 0.064 0.023 3 
0.463 0.094 0.023 3 
0.462 0.213 0.063 3 
0.463 0.083 0.023 3 
0.461 0.223 0.063 3 
0.46 0.243 0.062 3 
0.463 0.072 0.023 3 
0.461 0.253 0.062 3 
0.461 0.262 0.062 3 
0.462 0.104 0.023 3 
0.46 0.283 0.062 3 
0.462 0.053 0.023 3 
0.46 0.293 0.062 3 
0.449 0.048 0.025 3 
0.46 0.302 0.062 3 
0.459 0.324 0.062 3 
0.465 0.075 0.068 3 
0.459 0.323 0.012 3 
0.462 0.173 0.063 3 
0.464 0.064 0.063 3 
0.465 0.073 0.063 3 
0.464 0.083 0.063 3 
0.464 0.094 0.063 3 
0.464 0.102 0.063 3 
0.463 0.113 0.063 3 
0.464 0.124 0.063 3 
0.464 0.132 0.063 3 
0.464 0.102 0.033 3 
0.462 0.184 0.063 3 
0.462 0.193 0.063 3 
0.462 0.204 0.063 3 
0.461 0.164 0.022 3 
0.461 0.153 0.022 3 
0.462 0.142 0.022 3 
0.462 0.134 0.023 3 
0.463 0.112 0.023 3 
0.46 0.273 0.043 3 
0.464 0.083 0.044 3 
0.465 0.073 0.044 3 
0.464 0.067 0.044 3 
0.461 0.221 0.024 3 
0.465 0.064 0.044 3 
0.464 0.062 0.044 3 
0.464 0.054 0.044 3 
0.459 0.263 0.043 3 
0.464 0.091 0.044 3 
0.46 0.292 0.043 3 
0.459 0.304 0.043 3 
0.459 0.314 0.043 3 
0.459 0.321 0.043 3 
0.457 0.332 0.043 3 
0.465 0.064 0.047 3 
0.465 0.097 0.049 3 
0.464 0.102 0.041 3 
0.461 0.203 0.044 3 
0.463 0.124 0.044 3 
0.463 0.132 0.044 3 
0.463 0.143 0.044 3 
0.463 0.154 0.044 3 
0.462 0.164 0.044 3 
0.462 0.173 0.044 3 
0.461 0.183 0.044 3 
0.461 0.192 0.044 3 
0.465 0.054 0.042 3 
0.461 0.212 0.044 3 
0.461 0.223 0.043 3 
0.46 0.243 0.043 3 
0.459 0.254 0.043 3 
0.463 0.113 0.044 3 
0.465 0.102 0.044 3 
0.459 0.214 0.014 3 
0.465 0.094 0.044 3 
0.463 0.123 0.023 3 
0.463 0.102 0.052 3 
0.463 0.113 0.052 3 
0.464 0.124 0.052 3 
0.463 0.132 0.052 3 
0.462 0.142 0.052 3 
0.462 0.153 0.052 3 
0.462 0.164 0.052 3 
0.462 0.173 0.052 3 
0.465 0.089 0.052 3 
0.462 0.184 0.033 3 
0.461 0.192 0.054 3 
0.462 0.142 0.033 3 
0.462 0.134 0.033 3 
0.463 0.124 0.033 3 
0.464 0.113 0.033 3 
0.462 0.204 0.054 3 
0.462 0.213 0.054 3 
0.459 0.242 0.033 3 
0.465 0.078 0.039 3 
0.456 0.331 0.034 3 
0.459 0.324 0.034 3 
0.459 0.314 0.034 3 
0.459 0.294 0.032 3 
0.46 0.283 0.032 3 
0.46 0.264 0.032 3 
0.459 0.254 0.032 3 
0.435 0.058 0.002 3 
0.46 0.234 0.033 3 
0.461 0.223 0.033 3 
0.461 0.212 0.033 3 
0.461 0.203 0.033 3 
0.462 0.193 0.033 3 
0.465 0.07 0.052 3 
0.464 0.072 0.052 3 
0.464 0.083 0.052 3 
0.461 0.093 0.012 3 
0.46 0.144 0.012 3 
0.461 0.133 0.012 3 
0.465 0.065 0.079 3 
0.459 0.311 0.074 3 
0.459 0.254 0.013 3 
0.461 0.104 0.012 3 
0.459 0.263 0.013 3 
0.458 0.284 0.013 3 
0.46 0.152 0.012 3 
0.459 0.324 0.074 3 
0.464 0.094 0.073 3 
0.459 0.294 0.012 3 
0.464 0.073 0.074 3 
0.46 0.261 0.073 3 
0.461 0.082 0.013 3 
0.464 0.062 0.073 3 
0.461 0.074 0.013 3 
0.46 0.172 0.014 3 
0.458 0.233 0.014 3 
0.461 0.294 0.074 3 
0.459 0.222 0.014 3 
0.463 0.143 0.073 3 
0.46 0.283 0.074 3 
0.463 0.154 0.073 3 
0.46 0.203 0.014 3 
0.46 0.164 0.014 3 
0.465 0.07 0.074 3 
0.46 0.194 0.014 3 
0.463 0.124 0.073 3 
0.464 0.113 0.073 3 
0.464 0.102 0.073 3 
0.46 0.274 0.074 3 
0.46 0.302 0.074 3 
0.459 0.243 0.013 3 
0.462 0.064 0.013 3 
0.462 0.233 0.073 3 
0.458 0.313 0.012 3 
0.462 0.224 0.073 3 
0.461 0.244 0.073 3 
0.462 0.173 0.073 3 
0.459 0.314 0.062 3 
0.462 0.162 0.073 3 
0.461 0.212 0.073 3 
0.462 0.204 0.073 3 
0.459 0.182 0.014 3 
0.462 0.193 0.073 3 
0.462 0.184 0.073 3 
0.461 0.253 0.073 3 
0.462 0.064 0.002 3 
0.459 0.304 0.012 3 
0.434 0.058 0.005 3 
0.456 0.331 0.074 3 
0.464 0.054 0.073 3 
0.465 0.059 0.074 3 
0.462 0.053 0.013 3 
0.471 -0.136 0.014 3 
0.477 -0.085 0.164 3 
0.476 -0.096 0.164 3 
0.476 -0.105 0.164 3 
0.471 -0.147 0.014 3 
0.471 -0.155 0.014 3 
0.472 -0.167 0.014 3 
0.475 -0.225 0.024 3 
0.472 -0.185 0.014 3 
0.472 -0.086 0.104 3 
0.476 -0.076 0.164 3 
0.475 -0.065 0.163 3 
0.474 -0.189 0.036 3 
0.466 -0.047 0.004 3 
0.481 -0.325 0.034 3 
0.48 -0.317 0.043 3 
0.472 -0.176 0.014 3 
0.483 -0.337 0.034 3 
0.481 -0.356 0.034 3 
0.485 -0.099 0.193 3 
0.487 -0.196 0.196 3 
0.486 -0.126 0.194 3 
0.486 -0.135 0.194 3 
0.487 -0.141 0.195 3 
0.487 -0.147 0.195 3 
0.486 -0.156 0.195 3 
0.475 -0.195 0.033 3 
0.486 -0.165 0.195 3 
0.486 -0.177 0.195 3 
0.486 -0.186 0.196 3 
0.486 -0.117 0.194 3 
0.47 -0.075 0.052 3 
0.487 -0.205 0.197 3 
0.488 -0.218 0.198 3 
0.488 -0.227 0.198 3 
0.48 -0.317 0.014 3 
0.47 -0.037 0.033 3 
0.469 -0.045 0.033 3 
0.47 -0.077 0.033 3 
0.471 -0.097 0.033 3 
0.484 -0.096 0.193 3 
0.485 -0.285 0.174 3 
0.47 -0.105 0.014 3 
0.467 -0.066 0.012 3 
0.486 -0.276 0.174 3 
0.469 -0.044 0.077 3 
0.483 -0.07 0.192 3 
0.471 -0.125 0.014 3 
0.483 -0.075 0.192 3 
0.483 -0.087 0.192 3 
0.47 -0.116 0.014 3 
0.485 -0.268 0.174 3 
0.474 -0.227 0.013 3 
0.484 -0.258 0.173 3 
0.484 -0.245 0.173 3 
0.483 -0.235 0.172 3 
0.476 -0.238 0.012 3 
0.486 -0.105 0.194 3 
0.482 -0.226 0.172 3 
0.476 -0.167 0.134 3 
0.485 -0.333 0.094 3 
0.465 -0.055 0.012 3 
0.465 -0.047 0.012 3 
0.466 -0.036 0.012 3 
0.489 -0.036 0.009 3 
0.469 -0.055 0.044 3 
0.48 -0.297 0.023 3 
0.469 -0.077 0.044 3 
0.47 -0.086 0.044 3 
0.472 -0.097 0.044 3 
0.473 -0.106 0.044 3 
0.475 -0.21 0.007 3 
0.473 -0.117 0.044 3 
0.473 -0.136 0.044 3 
0.474 -0.145 0.044 3 
0.475 -0.151 0.044 3 
0.475 -0.177 0.066 3 
0.475 -0.152 0.119 3 
0.473 -0.176 0.044 3 
0.475 -0.186 0.044 3 
0.475 -0.195 0.044 3 
0.477 -0.275 0.012 3 
0.476 -0.226 0.004 3 
0.479 -0.225 0.153 3 
0.487 -0.316 0.164 3 
0.472 -0.117 0.003 3 
0.474 -0.095 0.124 3 
0.478 -0.286 0.093 3 
0.47 -0.086 0.003 3 
0.47 -0.066 0.004 3 
0.48 -0.307 0.014 3 
0.474 -0.145 0.094 3 
0.468 -0.055 0.004 3 
0.477 -0.236 0.004 3 
0.482 -0.265 0.164 3 
0.485 -0.304 0.163 3 
0.475 -0.216 0.004 3 
0.484 -0.297 0.162 3 
0.484 -0.287 0.162 3 
0.48 -0.356 0.004 3 
0.483 -0.276 0.161 3 
0.474 -0.065 0.154 3 
0.474 -0.062 0.154 3 
0.481 -0.336 0.004 3 
0.481 -0.267 0.143 3 
0.475 -0.231 0.013 3 
0.478 -0.157 0.163 3 
0.478 -0.145 0.163 3 
0.473 -0.145 0.083 3 
0.478 -0.137 0.162 3 
0.478 -0.125 0.162 3 
0.478 -0.277 0.044 3 
0.474 -0.07 0.16 3 
0.48 -0.297 0.043 3 
0.48 -0.307 0.043 3 
0.481 -0.328 0.043 3 
0.484 -0.349 0.043 3 
0.48 -0.167 0.164 3 
0.471 -0.097 0.052 3 
0.474 -0.215 0.013 3 
0.475 -0.195 0.052 3 
0.489 -0.326 0.174 3 
0.489 -0.319 0.174 3 
0.487 -0.307 0.173 3 
0.486 -0.295 0.172 3 
0.475 -0.183 0.038 3 
0.484 -0.267 0.17 3 
0.479 -0.246 0.113 3 
0.477 -0.235 0.044 3 
0.482 -0.256 0.163 3 
0.482 -0.246 0.163 3 
0.481 -0.236 0.162 3 
0.48 -0.226 0.162 3 
0.48 -0.215 0.162 3 
0.475 -0.216 0.044 3 
0.477 -0.256 0.012 3 
0.479 -0.205 0.161 3 
0.483 -0.064 0.16 3 
0.476 -0.225 0.044 3 
0.473 -0.197 0.013 3 
0.477 -0.247 0.044 3 
0.477 -0.266 0.044 3 
0.49 -0.345 0.173 3 
0.489 -0.336 0.172 3 
0.484 -0.3 0.169 3 
0.484 -0.287 0.168 3 
0.484 -0.277 0.168 3 
0.48 -0.197 0.164 3 
0.48 -0.185 0.164 3 
0.48 -0.176 0.164 3 
0.486 -0.195 0.193 3 
0.477 -0.116 0.162 3 
0.484 -0.116 0.19 3 
0.485 -0.146 0.191 3 
0.485 -0.155 0.191 3 
0.485 -0.167 0.192 3 
0.485 -0.176 0.192 3 
0.485 -0.185 0.192 3 
0.49 -0.317 0.193 3 
0.475 -0.189 0.072 3 
0.49 -0.307 0.193 3 
0.483 -0.127 0.184 3 
0.484 -0.105 0.19 3 
0.481 -0.115 0.183 3 
0.486 -0.207 0.193 3 
0.48 -0.106 0.183 3 
0.486 -0.217 0.194 3 
0.486 -0.226 0.194 3 
0.486 -0.235 0.194 3 
0.481 -0.095 0.183 3 
0.48 -0.086 0.182 3 
0.476 -0.207 0.072 3 
0.48 -0.075 0.182 3 
0.493 -0.307 0.203 3 
0.489 -0.256 0.199 3 
0.488 -0.265 0.199 3 
0.488 -0.275 0.199 3 
0.49 -0.287 0.201 3 
0.489 -0.296 0.201 3 
0.473 -0.176 0.052 3 
0.485 -0.206 0.184 3 
0.484 -0.197 0.183 3 
0.483 -0.187 0.183 3 
0.482 -0.177 0.182 3 
0.49 -0.336 0.2 3 
0.493 -0.317 0.204 3 
0.494 -0.325 0.204 3 
0.495 -0.33 0.205 3 
0.482 -0.165 0.182 3 
0.494 -0.333 0.205 3 
0.481 -0.357 0.013 3 
0.495 -0.337 0.206 3 
0.482 -0.156 0.182 3 
0.482 -0.145 0.181 3 
0.483 -0.136 0.181 3 
0.479 -0.275 0.122 3 
0.478 -0.069 0.184 3 
0.471 -0.105 0.022 3 
0.472 -0.116 0.022 3 
0.472 -0.125 0.022 3 
0.472 -0.136 0.022 3 
0.471 -0.042 0.003 3 
0.472 -0.145 0.022 3 
0.473 -0.156 0.022 3 
0.473 -0.165 0.022 3 
0.474 -0.106 0.133 3 
0.481 -0.357 0.019 3 
0.484 -0.125 0.187 3 
0.475 -0.213 0.024 3 
0.474 -0.218 0.016 3 
0.474 -0.227 0.016 3 
0.478 -0.292 0.014 3 
0.481 -0.346 0.004 3 
0.481 -0.329 0.013 3 
0.48 -0.338 0.013 3 
0.481 -0.346 0.013 3 
0.486 -0.309 0.164 3 
0.488 -0.255 0.192 3 
0.469 -0.036 0.023 3 
0.468 -0.047 0.023 3 
0.468 -0.055 0.023 3 
0.472 -0.067 0.123 3 
0.495 -0.33 0.199 3 
0.47 -0.085 0.023 3 
0.488 -0.295 0.194 3 
0.488 -0.285 0.194 3 
0.488 -0.275 0.193 3 
0.488 -0.268 0.193 3 
0.485 -0.216 0.184 3 
0.487 -0.246 0.192 3 
0.484 -0.185 0.189 3 
0.484 -0.175 0.189 3 
0.47 -0.066 0.074 3 
0.483 -0.166 0.188 3 
0.484 -0.155 0.188 3 
0.484 -0.146 0.188 3 
0.483 -0.318 0.103 3 
0.47 -0.096 0.023 3 
0.484 -0.137 0.188 3 
0.478 -0.105 0.173 3 
0.478 -0.296 0.064 3 
0.49 -0.327 0.184 3 
0.489 -0.316 0.183 3 
0.489 -0.305 0.183 3 
0.487 -0.297 0.182 3 
0.488 -0.288 0.182 3 
0.48 -0.126 0.174 3 
0.489 -0.339 0.144 3 
0.478 -0.245 0.004 3 
0.478 -0.117 0.173 3 
0.474 -0.189 0.033 3 
0.475 -0.186 0.033 3 
0.478 -0.097 0.173 3 
0.478 -0.085 0.173 3 
0.478 -0.077 0.173 3 
0.477 -0.065 0.172 3 
0.475 -0.207 0.033 3 
0.475 -0.225 0.033 3 
0.476 -0.235 0.032 3 
0.477 -0.248 0.032 3 
0.477 -0.257 0.032 3 
0.476 -0.265 0.032 3 
0.48 -0.176 0.173 3 
0.472 -0.125 0.003 3 
0.472 -0.116 0.033 3 
0.492 -0.34 0.182 3 
0.484 -0.255 0.176 3 
0.479 -0.216 0.153 3 
0.482 -0.223 0.174 3 
0.483 -0.205 0.174 3 
0.482 -0.198 0.174 3 
0.469 -0.093 0.014 3 
0.481 -0.185 0.173 3 
0.478 -0.276 0.032 3 
0.48 -0.167 0.172 3 
0.48 -0.155 0.172 3 
0.472 -0.125 0.033 3 
0.48 -0.146 0.172 3 
0.473 -0.136 0.033 3 
0.48 -0.135 0.172 3 
0.474 -0.145 0.033 3 
0.474 -0.157 0.033 3 
0.475 -0.216 0.033 3 
0.474 -0.165 0.033 3 
0.488 -0.237 0.198 3 
0.475 -0.216 0.024 3 
0.478 -0.245 0.024 3 
0.477 -0.257 0.024 3 
0.477 -0.266 0.024 3 
0.477 -0.275 0.023 3 
0.479 -0.286 0.023 3 
0.48 -0.307 0.023 3 
0.481 -0.315 0.023 3 
0.482 -0.326 0.022 3 
0.481 -0.335 0.022 3 
0.483 -0.345 0.022 3 
0.474 -0.206 0.024 3 
0.488 -0.247 0.199 3 
0.476 -0.187 0.094 3 
0.491 -0.336 0.191 3 
0.491 -0.325 0.191 3 
0.475 -0.177 0.064 3 
0.484 -0.237 0.185 3 
0.484 -0.234 0.185 3 
0.484 -0.227 0.184 3 
0.474 -0.177 0.072 3 
0.484 -0.221 0.184 3 
0.486 -0.266 0.183 3 
0.48 -0.287 0.032 3 
0.48 -0.297 0.032 3 
0.48 -0.307 0.032 3 
0.477 -0.235 0.104 3 
0.474 -0.197 0.03 3 
0.47 -0.075 0.004 3 
0.474 -0.177 0.033 3 
0.474 -0.206 0.027 3 
0.477 -0.235 0.024 3 
0.487 -0.277 0.184 3 
0.472 -0.105 0.033 3 
0.486 -0.257 0.183 3 
0.487 -0.245 0.183 3 
0.486 -0.241 0.182 3 
0.483 -0.236 0.181 3 
0.484 -0.206 0.181 3 
0.474 -0.183 0.024 3 
0.474 -0.095 0.144 3 
0.474 -0.192 0.024 3 
0.481 -0.245 0.154 3 
0.473 -0.197 0.024 3 
0.479 -0.265 0.113 3 
0.483 -0.337 0.073 3 
0.483 -0.348 0.073 3 
0.475 -0.154 0.066 3 
0.486 -0.349 0.113 3 
0.484 -0.333 0.112 3 
0.485 -0.327 0.112 3 
0.485 -0.32 0.112 3 
0.484 -0.315 0.112 3 
0.483 -0.335 0.115 3 
0.482 -0.307 0.114 3 
0.481 -0.296 0.114 3 
0.479 -0.287 0.113 3 
0.478 -0.277 0.113 3 
0.48 -0.317 0.073 3 
0.479 -0.256 0.113 3 
0.479 -0.237 0.113 3 
0.478 -0.227 0.112 3 
0.477 -0.217 0.112 3 
0.484 -0.326 0.118 3 
0.476 -0.205 0.114 3 
0.476 -0.196 0.114 3 
0.477 -0.185 0.114 3 
0.477 -0.176 0.114 3 
0.476 -0.166 0.114 3 
0.475 -0.155 0.114 3 
0.475 -0.152 0.114 3 
0.477 -0.226 0.072 3 
0.472 -0.075 0.104 3 
0.471 -0.067 0.104 3 
0.471 -0.056 0.104 3 
0.473 -0.053 0.104 3 
0.473 -0.136 0.074 3 
0.475 -0.169 0.075 3 
0.471 -0.042 0.071 3 
0.474 -0.145 0.072 3 
0.475 -0.166 0.072 3 
0.474 -0.174 0.072 3 
0.474 -0.185 0.072 3 
0.476 -0.195 0.072 3 
0.476 -0.216 0.072 3 
0.474 -0.146 0.114 3 
0.471 -0.097 0.003 3 
0.478 -0.236 0.072 3 
0.471 -0.086 0.033 3 
0.477 -0.247 0.072 3 
0.477 -0.257 0.072 3 
0.477 -0.266 0.072 3 
0.477 -0.276 0.072 3 
0.476 -0.207 0.044 3 
0.478 -0.286 0.073 3 
0.483 -0.33 0.073 3 
0.479 -0.297 0.073 3 
0.479 -0.307 0.073 3 
0.484 -0.316 0.127 3 
0.484 -0.349 0.052 3 
0.473 -0.125 0.063 3 
0.474 -0.137 0.063 3 
0.485 -0.32 0.124 3 
0.484 -0.316 0.124 3 
0.483 -0.308 0.124 3 
0.482 -0.297 0.123 3 
0.481 -0.286 0.123 3 
0.477 -0.257 0.044 3 
0.479 -0.265 0.122 3 
0.479 -0.256 0.122 3 
0.474 -0.157 0.119 3 
0.474 -0.145 0.063 3 
0.472 -0.116 0.063 3 
0.479 -0.246 0.124 3 
0.479 -0.237 0.124 3 
0.479 -0.228 0.124 3 
0.477 -0.185 0.123 3 
0.477 -0.217 0.123 3 
0.477 -0.205 0.123 3 
0.478 -0.197 0.123 3 
0.477 -0.205 0.103 3 
0.477 -0.176 0.123 3 
0.475 -0.167 0.122 3 
0.475 -0.155 0.122 3 
0.474 -0.146 0.122 3 
0.487 -0.347 0.122 3 
0.474 -0.137 0.113 3 
0.474 -0.126 0.113 3 
0.473 -0.117 0.113 3 
0.473 -0.106 0.113 3 
0.473 -0.095 0.113 3 
0.469 -0.066 0.033 3 
0.473 -0.086 0.113 3 
0.472 -0.075 0.113 3 
0.472 -0.067 0.112 3 
0.472 -0.056 0.112 3 
0.477 -0.257 0.052 3 
0.464 -0.044 0.012 3 
0.484 -0.336 0.109 3 
0.468 -0.077 0.012 3 
0.486 -0.338 0.122 3 
0.485 -0.327 0.121 3 
0.469 -0.045 0.044 3 
0.469 -0.042 0.063 3 
0.47 -0.047 0.063 3 
0.469 -0.055 0.063 3 
0.47 -0.066 0.063 3 
0.47 -0.075 0.063 3 
0.471 -0.086 0.063 3 
0.471 -0.097 0.063 3 
0.472 -0.106 0.063 3 
0.484 -0.336 0.094 3 
0.484 -0.345 0.085 3 
0.47 -0.045 0.074 3 
0.475 -0.157 0.08 3 
0.474 -0.177 0.08 3 
0.48 -0.318 0.082 3 
0.484 -0.328 0.082 3 
0.483 -0.337 0.082 3 
0.484 -0.349 0.082 3 
0.475 -0.154 0.077 3 
0.474 -0.185 0.077 3 
0.485 -0.346 0.091 3 
0.474 -0.157 0.088 3 
0.486 -0.34 0.094 3 
0.479 -0.297 0.084 3 
0.484 -0.325 0.094 3 
0.483 -0.317 0.094 3 
0.48 -0.308 0.093 3 
0.479 -0.297 0.093 3 
0.478 -0.277 0.093 3 
0.472 -0.125 0.044 3 
0.478 -0.267 0.093 3 
0.478 -0.258 0.093 3 
0.48 -0.287 0.043 3 
0.477 -0.247 0.092 3 
0.478 -0.236 0.092 3 
0.477 -0.226 0.092 3 
0.474 -0.177 0.086 3 
0.472 -0.125 0.083 3 
0.471 -0.116 0.083 3 
0.472 -0.105 0.083 3 
0.472 -0.097 0.082 3 
0.471 -0.086 0.082 3 
0.47 -0.075 0.082 3 
0.47 -0.066 0.082 3 
0.469 -0.055 0.082 3 
0.47 -0.045 0.082 3 
0.474 -0.157 0.083 3 
0.474 -0.165 0.083 3 
0.475 -0.177 0.083 3 
0.475 -0.186 0.083 3 
0.476 -0.216 0.092 3 
0.469 -0.044 0.085 3 
0.476 -0.195 0.083 3 
0.476 -0.207 0.083 3 
0.476 -0.216 0.083 3 
0.477 -0.235 0.084 3 
0.471 -0.097 0.074 3 
0.477 -0.247 0.084 3 
0.477 -0.257 0.084 3 
0.476 -0.265 0.012 3 
0.478 -0.267 0.084 3 
0.478 -0.276 0.084 3 
0.479 -0.287 0.084 3 
0.475 -0.154 0.102 3 
0.478 -0.286 0.102 3 
0.478 -0.277 0.104 3 
0.479 -0.265 0.104 3 
0.478 -0.255 0.104 3 
0.478 -0.245 0.104 3 
0.482 -0.336 0.043 3 
0.477 -0.226 0.104 3 
0.477 -0.217 0.103 3 
0.477 -0.196 0.103 3 
0.477 -0.187 0.103 3 
0.476 -0.175 0.103 3 
0.476 -0.166 0.103 3 
0.475 -0.157 0.102 3 
0.479 -0.297 0.102 3 
0.473 -0.145 0.102 3 
0.473 -0.137 0.102 3 
0.473 -0.126 0.102 3 
0.473 -0.117 0.102 3 
0.468 -0.039 0.044 3 
0.473 -0.106 0.102 3 
0.473 -0.095 0.102 3 
0.47 -0.075 0.074 3 
0.471 -0.086 0.074 3 
0.472 -0.105 0.074 3 
0.472 -0.117 0.074 3 
0.473 -0.125 0.074 3 
0.47 -0.075 0.093 3 
0.477 -0.205 0.092 3 
0.477 -0.196 0.092 3 
0.475 -0.177 0.094 3 
0.475 -0.166 0.094 3 
0.475 -0.157 0.094 3 
0.475 -0.154 0.094 3 
0.472 -0.136 0.094 3 
0.472 -0.125 0.094 3 
0.472 -0.117 0.094 3 
0.473 -0.106 0.094 3 
0.473 -0.095 0.094 3 
0.472 -0.086 0.093 3 
0.474 -0.157 0.063 3 
0.47 -0.066 0.093 3 
0.469 -0.055 0.093 3 
0.47 -0.047 0.093 3 
0.483 -0.348 0.034 3 
0.478 -0.267 0.003 3 
0.47 -0.055 0.074 3 
0.487 -0.349 0.104 3 
0.485 -0.341 0.103 3 
0.484 -0.336 0.103 3 
0.485 -0.333 0.103 3 
0.484 -0.325 0.103 3 
0.481 -0.306 0.102 3 
0.473 -0.136 0.052 3 
0.478 -0.206 0.143 3 
0.472 -0.116 0.052 3 
0.474 -0.165 0.088 3 
0.478 -0.197 0.143 3 
0.477 -0.185 0.143 3 
0.477 -0.177 0.143 3 
0.477 -0.165 0.143 3 
0.477 -0.156 0.142 3 
0.472 -0.125 0.052 3 
0.477 -0.145 0.142 3 
0.476 -0.136 0.142 3 
0.474 -0.115 0.141 3 
0.478 -0.215 0.144 3 
0.475 -0.157 0.052 3 
0.474 -0.162 0.052 3 
0.474 -0.165 0.052 3 
0.488 -0.335 0.153 3 
0.487 -0.326 0.152 3 
0.486 -0.315 0.152 3 
0.475 -0.127 0.144 3 
0.475 -0.115 0.144 3 
0.474 -0.106 0.144 3 
0.474 -0.087 0.144 3 
0.473 -0.075 0.143 3 
0.472 -0.067 0.143 3 
0.473 -0.206 0.013 3 
0.486 -0.318 0.143 3 
0.485 -0.307 0.142 3 
0.485 -0.304 0.142 3 
0.472 -0.059 0.134 3 
0.474 -0.135 0.122 3 
0.474 -0.145 0.052 3 
0.469 -0.077 0.023 3 
0.469 -0.039 0.052 3 
0.48 -0.308 0.082 3 
0.468 -0.047 0.052 3 
0.469 -0.055 0.052 3 
0.484 -0.296 0.144 3 
0.473 -0.062 0.143 3 
0.482 -0.288 0.144 3 
0.481 -0.277 0.143 3 
0.48 -0.257 0.142 3 
0.48 -0.247 0.142 3 
0.48 -0.235 0.142 3 
0.469 -0.066 0.052 3 
0.474 -0.126 0.138 3 
0.474 -0.157 0.044 3 
0.47 -0.086 0.052 3 
0.473 -0.106 0.052 3 
0.48 -0.226 0.144 3 
0.477 -0.165 0.154 3 
0.481 -0.261 0.154 3 
0.48 -0.235 0.153 3 
0.473 -0.136 0.083 3 
0.479 -0.207 0.152 3 
0.477 -0.195 0.152 3 
0.478 -0.177 0.152 3 
0.474 -0.095 0.149 3 
0.474 -0.087 0.149 3 
0.468 -0.055 0.033 3 
0.488 -0.335 0.162 3 
0.487 -0.327 0.161 3 
0.477 -0.186 0.154 3 
0.469 -0.066 0.044 3 
0.476 -0.156 0.154 3 
0.477 -0.145 0.154 3 
0.478 -0.137 0.154 3 
0.477 -0.125 0.153 3 
0.476 -0.116 0.153 3 
0.475 -0.107 0.152 3 
0.475 -0.096 0.152 3 
0.475 -0.087 0.152 3 
0.475 -0.079 0.152 3 
0.474 -0.076 0.152 3 
0.477 -0.245 0.012 3 
0.475 -0.157 0.072 3 
0.48 -0.317 0.052 3 
0.474 -0.185 0.052 3 
0.475 -0.189 0.052 3 
0.476 -0.216 0.052 3 
0.476 -0.225 0.052 3 
0.477 -0.235 0.052 3 
0.477 -0.226 0.084 3 
0.477 -0.247 0.052 3 
0.477 -0.266 0.052 3 
0.477 -0.276 0.052 3 
0.478 -0.286 0.052 3 
0.479 -0.296 0.052 3 
0.48 -0.307 0.052 3 
0.474 -0.185 0.055 3 
0.481 -0.325 0.052 3 
0.483 -0.337 0.052 3 
0.485 -0.343 0.052 3 
0.485 -0.346 0.052 3 
0.478 -0.295 0.014 3 
0.486 -0.308 0.154 3 
0.485 -0.297 0.154 3 
0.483 -0.285 0.153 3 
0.481 -0.277 0.152 3 
0.481 -0.267 0.152 3 
0.474 -0.106 0.147 3 
0.482 -0.287 0.132 3 
0.477 -0.276 0.064 3 
0.477 -0.285 0.064 3 
0.48 -0.307 0.064 3 
0.48 -0.317 0.064 3 
0.482 -0.326 0.064 3 
0.483 -0.337 0.064 3 
0.475 -0.154 0.052 3 
0.487 -0.336 0.134 3 
0.486 -0.325 0.134 3 
0.485 -0.317 0.133 3 
0.483 -0.305 0.132 3 
0.482 -0.297 0.132 3 
0.477 -0.266 0.064 3 
0.474 -0.135 0.127 3 
0.507 -0.062 0.134 3 
0.475 -0.154 0.061 3 
0.487 -0.326 0.143 3 
0.484 -0.306 0.136 3 
0.481 -0.277 0.134 3 
0.474 -0.165 0.044 3 
0.484 -0.349 0.064 3 
0.48 -0.266 0.134 3 
0.479 -0.256 0.133 3 
0.479 -0.247 0.133 3 
0.475 -0.216 0.007 3 
0.485 -0.337 0.113 3 
0.492 -0.06 0.125 3 
0.477 -0.257 0.004 3 
0.475 -0.16 0.063 3 
0.487 -0.347 0.131 3 
0.473 -0.126 0.124 3 
0.473 -0.117 0.124 3 
0.473 -0.106 0.124 3 
0.474 -0.087 0.124 3 
0.473 -0.075 0.124 3 
0.472 -0.059 0.123 3 
0.475 -0.166 0.064 3 
0.469 -0.096 0.014 3 
0.474 -0.174 0.064 3 
0.474 -0.18 0.064 3 
0.475 -0.186 0.064 3 
0.476 -0.195 0.064 3 
0.476 -0.207 0.064 3 
0.476 -0.216 0.064 3 
0.467 -0.066 0.023 3 
0.477 -0.226 0.064 3 
0.478 -0.236 0.064 3 
0.478 -0.245 0.064 3 
0.477 -0.257 0.064 3 
0.479 -0.237 0.133 3 
0.474 -0.126 0.133 3 
0.481 -0.318 0.034 3 
0.475 -0.132 0.133 3 
0.474 -0.115 0.133 3 
0.474 -0.095 0.132 3 
0.474 -0.087 0.132 3 
0.475 -0.135 0.133 3 
0.476 -0.147 0.134 3 
0.476 -0.156 0.134 3 
0.477 -0.177 0.134 3 
0.479 -0.186 0.132 3 
0.479 -0.195 0.132 3 
0.478 -0.206 0.132 3 
0.473 -0.075 0.132 3 
0.476 -0.207 0.052 3 
0.471 -0.105 0.003 3 
0.478 -0.215 0.132 3 
0.489 -0.346 0.144 3 
0.474 -0.065 0.132 3 
0.479 -0.225 0.133 3 
0.338 0.028 0.03 7 
0.35 -0.006 0.033 7 
0.355 0.014 0.017 7 
0.336 0.021 0.025 7 
0.345 -0.005 0.035 7 
0.331 -0.003 0.037 7 
0.351 0.031 0.026 7 
0.324 0.016 0.021 7 
0.338 0.028 0.044 7 
0.344 0.033 0.024 7 
0.342 -0.005 0.024 7 
0.356 -0.006 0.037 7 
0.345 0.024 0.025 7 
0.35 0.03 0.024 7 
0.335 -0.001 0.029 7 
0.339 0.003 0.023 7 
0.326 0.021 0.032 7 
0.332 0.027 0.032 7 
0.332 -0.011 0.025 7 
0.356 0.015 0.017 7 
0.332 0.013 0.023 7 
0.333 0.016 0.023 7 
0.354 -0.002 0.021 7 
0.336 0.006 0.024 7 
0.338 0.02 0.024 7 
0.352 0.023 0.021 7 
0.356 -0.007 0.022 7 
0.325 0.014 0.028 7 
0.356 0.032 0.022 7 
0.345 0.035 0.024 7 
0.354 -0.014 0.022 7 
0.347 0.011 0.019 7 
0.343 -0.005 0.032 7 
