# .PCD v0.7 - Point Cloud Data file
FIELDS x y z intensity
SIZE 4 4 4 4
TYPE F F F F
COUNT 1 1 1 1
WIDTH 2611
HEIGHT 1
VIEWPOINT 0 0 0 1 0 0 0
POINTS 2611
DATA ascii
0.368 0.004 0.016 0 
0.376 0.004 0.016 0 
0.373 -0.235 -0.025 1 
0.372 -0.231 -0.025 1 
0.376 -0.219 -0.025 1 
0.362 -0.155 -0.018 1 
0.363 -0.145 -0.018 1 
0.36 -0.135 -0.016 1 
0.361 -0.126 -0.016 1 
0.353 -0.056 -0.012 1 
0.352 -0.036 -0.012 1 
0.353 0.064 -0.013 1 
0.353 0.073 -0.013 1 
0.353 0.083 -0.013 1 
0.354 0.094 -0.014 1 
0.35 0.113 -0.013 1 
0.349 0.123 -0.013 1 
0.353 0.144 -0.015 1 
0.351 0.154 -0.015 1 
0.344 0.204 -0.015 1 
0.343 0.205 -0.015 1 
0.374 -0.238 -0.024 1 
0.373 -0.225 -0.022 1 
0.37 -0.146 -0.018 1 
0.362 -0.095 -0.014 1 
0.36 -0.085 -0.013 1 
0.362 -0.066 -0.014 1 
0.354 -0.05 -0.011 1 
0.353 0.044 -0.011 1 
0.354 0.134 -0.013 1 
0.352 0.173 -0.014 1 
0.353 0.18 -0.015 1 
0.383 -0.238 -0.024 1 
0.383 -0.226 -0.024 1 
0.374 -0.195 -0.02 1 
0.373 -0.187 -0.019 1 
0.374 -0.175 -0.019 1 
0.373 -0.136 -0.017 1 
0.372 -0.125 -0.017 1 
0.37 -0.116 -0.016 1 
0.36 -0.055 -0.011 1 
0.361 -0.036 -0.011 1 
0.342 -0.007 -0.005 1 
0.354 0.029 -0.009 1 
0.364 0.068 -0.013 1 
0.362 0.084 -0.013 1 
0.363 0.093 -0.013 1 
0.363 0.123 -0.014 1 
0.364 0.126 -0.015 1 
0.36 0.146 -0.014 1 
0.362 0.153 -0.015 1 
0.358 0.17 -0.014 1 
0.382 -0.245 -0.024 1 
0.357 0.178 -0.014 1 
0.357 0.194 -0.015 1 
0.354 0.197 -0.014 1 
0.354 0.204 -0.015 1 
0.353 0.211 -0.015 1 
0.38 -0.155 -0.018 1 
0.374 -0.101 -0.015 1 
0.374 -0.085 -0.015 1 
0.374 -0.083 -0.015 1 
0.374 -0.076 -0.014 1 
0.36 -0.025 -0.009 1 
0.353 -0.016 -0.007 1 
0.342 0.017 -0.005 1 
0.343 -0.005 -0.004 1 
0.344 0.018 -0.004 1 
0.363 0.044 -0.011 1 
0.372 0.103 -0.015 1 
0.369 0.113 -0.014 1 
0.369 0.117 -0.014 1 
0.37 0.123 -0.015 1 
0.37 0.133 -0.015 1 
0.364 0.172 -0.015 1 
0.36 0.201 -0.015 1 
0.358 0.208 -0.014 1 
0.394 -0.266 -0.025 1 
0.394 -0.245 -0.024 1 
0.387 -0.225 -0.021 1 
0.382 -0.125 -0.016 1 
0.383 -0.115 -0.016 1 
0.379 -0.099 -0.015 1 
0.382 -0.075 -0.015 1 
0.374 -0.066 -0.012 1 
0.373 -0.045 -0.012 1 
0.371 -0.036 -0.011 1 
0.359 -0.015 -0.007 1 
0.353 -0.009 -0.005 1 
0.349 -0.006 -0.004 1 
0.336 -0.002 0 1 
0.352 0.018 -0.005 1 
0.359 0.023 -0.007 1 
0.364 0.027 -0.009 1 
0.374 0.083 -0.013 1 
0.374 0.138 -0.015 1 
0.372 0.144 -0.014 1 
0.374 0.16 -0.015 1 
0.371 0.184 -0.016 1 
0.374 0.193 -0.017 1 
0.364 0.223 -0.015 1 
0.364 0.228 -0.016 1 
0.371 0.054 -0.012 1 
0.397 -0.256 -0.023 1 
0.399 -0.245 -0.023 1 
0.396 -0.236 -0.022 1 
0.391 -0.215 -0.02 1 
0.392 -0.207 -0.02 1 
0.39 -0.186 -0.018 1 
0.383 -0.095 -0.014 1 
0.384 -0.091 -0.014 1 
0.386 -0.072 -0.015 1 
0.382 -0.065 -0.013 1 
0.38 -0.055 -0.012 1 
0.375 -0.025 -0.011 1 
0.367 -0.015 -0.008 1 
0.364 -0.004 -0.007 1 
0.374 0.034 -0.011 1 
0.374 0.036 -0.011 1 
0.381 0.074 -0.013 1 
0.382 0.084 -0.014 1 
0.381 0.096 -0.014 1 
0.384 0.099 -0.015 1 
0.382 0.114 -0.015 1 
0.382 0.12 -0.015 1 
0.381 0.124 -0.014 1 
0.38 0.131 -0.014 1 
0.38 0.144 -0.015 1 
0.37 0.223 -0.015 1 
0.403 -0.268 -0.023 1 
0.394 -0.125 -0.016 1 
0.394 -0.117 -0.016 1 
0.394 -0.106 -0.015 1 
0.393 -0.085 -0.015 1 
0.393 -0.079 -0.015 1 
0.384 -0.046 -0.012 1 
0.384 -0.038 -0.012 1 
0.375 -0.016 -0.009 1 
0.373 -0.006 -0.008 1 
0.331 0.004 0.004 1 
0.331 0.013 0.004 1 
0.38 0.033 -0.011 1 
0.383 0.043 -0.012 1 
0.384 0.049 -0.012 1 
0.39 0.104 -0.015 1 
0.389 0.114 -0.015 1 
0.386 0.146 -0.015 1 
0.384 0.161 -0.014 1 
0.384 0.163 -0.015 1 
0.382 0.169 -0.014 1 
0.379 0.184 -0.014 1 
0.368 0.152 -0.015 1 
0.382 0.233 -0.017 1 
0.379 0.242 -0.017 1 
0.413 -0.265 -0.023 1 
0.412 -0.255 -0.023 1 
0.383 -0.221 -0.021 1 
0.404 -0.227 -0.019 1 
0.401 -0.205 -0.018 1 
0.4 -0.195 -0.017 1 
0.4 -0.105 -0.015 1 
0.398 -0.097 -0.015 1 
0.394 -0.066 -0.013 1 
0.394 -0.056 -0.013 1 
0.394 -0.046 -0.013 1 
0.393 -0.035 -0.012 1 
0.394 -0.034 -0.013 1 
0.386 -0.015 -0.01 1 
0.384 -0.009 -0.01 1 
0.392 0.043 -0.013 1 
0.393 0.053 -0.013 1 
0.391 0.063 -0.013 1 
0.396 -0.239 -0.026 1 
0.393 0.074 -0.013 1 
0.394 0.082 -0.014 1 
0.394 0.093 -0.014 1 
0.394 0.103 -0.014 1 
0.394 0.123 -0.014 1 
0.391 0.136 -0.014 1 
0.393 0.144 -0.015 1 
0.391 0.153 -0.014 1 
0.391 0.164 -0.015 1 
0.388 0.183 -0.015 1 
0.384 0.248 -0.016 1 
0.423 -0.299 -0.026 1 
0.413 -0.238 -0.02 1 
0.402 -0.187 -0.015 1 
0.404 -0.176 -0.016 1 
0.403 -0.146 -0.015 1 
0.404 -0.137 -0.015 1 
0.403 -0.095 -0.014 1 
0.404 -0.087 -0.014 1 
0.403 -0.065 -0.014 1 
0.401 -0.045 -0.013 1 
0.401 -0.035 -0.013 1 
0.397 0.033 -0.012 1 
0.4 0.074 -0.013 1 
0.37 -0.105 -0.015 1 
0.401 0.124 -0.014 1 
0.394 0.16 -0.013 1 
0.394 0.172 -0.014 1 
0.397 0.181 -0.015 1 
0.391 0.194 -0.014 1 
0.392 0.2 -0.014 1 
0.394 0.223 -0.016 1 
0.393 0.242 -0.016 1 
0.423 -0.299 -0.023 1 
0.422 -0.257 -0.021 1 
0.414 -0.225 -0.017 1 
0.364 -0.006 -0.007 1 
0.414 -0.216 -0.017 1 
0.414 -0.209 -0.017 1 
0.41 -0.195 -0.016 1 
0.413 -0.166 -0.016 1 
0.41 -0.145 -0.015 1 
0.41 -0.141 -0.014 1 
0.35 0.193 -0.015 1 
0.411 -0.135 -0.015 1 
0.389 -0.247 -0.025 1 
0.414 -0.115 -0.015 1 
0.413 -0.113 -0.015 1 
0.41 -0.107 -0.014 1 
0.41 -0.087 -0.014 1 
0.41 -0.075 -0.014 1 
0.403 -0.018 -0.011 1 
0.402 -0.007 -0.011 1 
0.352 0.142 -0.014 1 
0.382 0.021 -0.005 1 
0.404 0.043 -0.012 1 
0.403 0.053 -0.012 1 
0.403 0.134 -0.013 1 
0.385 0.024 -0.01 1 
0.404 0.144 -0.014 1 
0.402 0.154 -0.013 1 
0.4 0.164 -0.013 1 
0.402 0.189 -0.015 1 
0.399 0.211 -0.014 1 
0.402 0.223 -0.016 1 
0.4 0.234 -0.016 1 
0.424 -0.285 -0.02 1 
0.424 -0.265 -0.019 1 
0.424 -0.235 -0.018 1 
0.42 -0.226 -0.017 1 
0.414 -0.045 -0.012 1 
0.413 -0.025 -0.012 1 
0.412 -0.01 -0.012 1 
0.385 0.022 -0.004 1 
0.411 0.053 -0.012 1 
0.414 0.074 -0.013 1 
0.414 0.083 -0.013 1 
0.412 0.093 -0.013 1 
0.409 0.133 -0.013 1 
0.41 0.164 -0.014 1 
0.402 0.194 -0.012 1 
0.406 0.23 -0.015 1 
0.401 0.264 -0.015 1 
0.4 0.268 -0.015 1 
0.433 -0.307 -0.021 1 
0.429 -0.287 -0.019 1 
0.431 -0.275 -0.019 1 
0.423 -0.216 -0.015 1 
0.426 -0.205 -0.016 1 
0.424 -0.196 -0.015 1 
0.425 -0.187 -0.015 1 
0.425 -0.182 -0.015 1 
0.424 -0.176 -0.014 1 
0.424 -0.166 -0.014 1 
0.421 -0.157 -0.013 1 
0.423 -0.146 -0.014 1 
0.424 -0.137 -0.014 1 
0.423 -0.115 -0.013 1 
0.368 0.214 -0.016 1 
0.424 -0.106 -0.013 1 
0.424 -0.075 -0.013 1 
0.423 -0.066 -0.013 1 
0.421 -0.056 -0.012 1 
0.423 -0.045 -0.012 1 
0.384 -0.186 -0.018 1 
0.394 -0.154 -0.016 1 
0.398 0.103 -0.013 1 
0.422 -0.035 -0.012 1 
0.419 -0.026 -0.012 1 
0.382 0.021 -0.002 1 
0.418 0.064 -0.012 1 
0.419 0.073 -0.012 1 
0.419 0.094 -0.012 1 
0.42 0.122 -0.013 1 
0.414 0.143 -0.012 1 
0.414 0.147 -0.012 1 
0.411 0.194 -0.013 1 
0.412 0.212 -0.013 1 
0.415 0.233 -0.015 1 
0.417 0.243 -0.016 1 
0.414 0.242 -0.015 1 
0.411 0.25 -0.015 1 
0.41 0.252 -0.014 1 
0.407 0.273 -0.015 1 
0.407 0.276 -0.015 1 
0.433 -0.251 -0.016 1 
0.432 -0.228 -0.015 1 
0.429 -0.216 -0.014 1 
0.429 -0.205 -0.014 1 
0.429 -0.195 -0.014 1 
0.43 -0.188 -0.014 1 
0.37 0.096 -0.014 1 
0.429 -0.177 -0.013 1 
0.429 -0.167 -0.013 1 
0.429 -0.157 -0.013 1 
0.43 -0.145 -0.013 1 
0.433 -0.127 -0.014 1 
0.431 -0.116 -0.013 1 
0.43 -0.106 -0.012 1 
0.43 -0.096 -0.012 1 
0.431 -0.075 -0.012 1 
0.429 -0.036 -0.012 1 
0.383 0.213 -0.016 1 
0.424 0.033 -0.011 1 
0.423 0.102 -0.011 1 
0.42 0.153 -0.011 1 
0.42 0.164 -0.012 1 
0.421 0.246 -0.015 1 
0.419 0.25 -0.014 1 
0.417 0.282 -0.015 1 
0.441 -0.276 -0.016 1 
0.434 -0.257 -0.014 1 
0.439 -0.24 -0.015 1 
0.434 -0.088 -0.011 1 
0.352 0.175 -0.014 1 
0.434 -0.054 -0.011 1 
0.433 0.043 -0.011 1 
0.432 0.053 -0.011 1 
0.431 0.064 -0.011 1 
0.431 0.074 -0.011 1 
0.431 0.084 -0.011 1 
0.431 0.093 -0.011 1 
0.426 0.144 -0.01 1 
0.424 0.194 -0.011 1 
0.423 0.203 -0.011 1 
0.422 0.213 -0.011 1 
0.421 0.222 -0.011 1 
0.422 0.234 -0.012 1 
0.424 0.238 -0.013 1 
0.429 0.262 -0.015 1 
0.424 0.272 -0.014 1 
0.42 0.282 -0.013 1 
0.423 0.294 -0.014 1 
0.443 -0.296 -0.015 1 
0.446 -0.296 -0.015 1 
0.445 -0.292 -0.015 1 
0.443 -0.246 -0.013 1 
0.411 0.104 -0.013 1 
0.443 -0.235 -0.013 1 
0.442 -0.225 -0.012 1 
0.442 -0.215 -0.012 1 
0.444 -0.195 -0.012 1 
0.444 -0.192 -0.012 1 
0.444 -0.176 -0.012 1 
0.442 -0.167 -0.011 1 
0.44 -0.155 -0.011 1 
0.442 -0.146 -0.011 1 
0.443 -0.136 -0.011 1 
0.441 -0.115 -0.01 1 
0.44 -0.105 -0.01 1 
0.411 -0.096 -0.014 1 
0.441 -0.095 -0.01 1 
0.419 0.084 -0.012 1 
0.442 -0.085 -0.01 1 
0.441 -0.075 -0.01 1 
0.439 -0.065 -0.01 1 
0.441 -0.055 -0.01 1 
0.403 0.062 -0.012 1 
0.441 -0.036 -0.01 1 
0.418 0.054 -0.012 1 
0.44 -0.026 -0.01 1 
0.438 0.054 -0.01 1 
0.433 0.153 -0.01 1 
0.433 0.164 -0.01 1 
0.431 0.173 -0.01 1 
0.43 0.183 -0.01 1 
0.431 0.264 -0.013 1 
0.428 0.282 -0.013 1 
0.432 0.304 -0.014 1 
0.441 -0.319 -0.013 1 
0.452 -0.329 -0.015 1 
0.453 -0.317 -0.015 1 
0.419 -0.205 -0.016 1 
0.453 -0.313 -0.015 1 
0.444 -0.288 -0.012 1 
0.442 -0.265 -0.011 1 
0.443 -0.263 -0.011 1 
0.45 -0.185 -0.011 1 
0.449 -0.145 -0.01 1 
0.447 -0.115 -0.009 1 
0.448 -0.105 -0.01 1 
0.448 -0.095 -0.009 1 
0.443 -0.205 -0.012 1 
0.449 -0.085 -0.01 1 
0.451 -0.014 -0.01 1 
0.472 -0.01 -0.015 1 
0.444 0.033 -0.009 1 
0.444 0.038 -0.009 1 
0.444 0.063 -0.009 1 
0.443 0.072 -0.009 1 
0.443 0.082 -0.009 1 
0.443 0.123 -0.009 1 
0.442 0.133 -0.009 1 
0.439 0.163 -0.009 1 
0.433 0.192 -0.008 1 
0.434 0.196 -0.009 1 
0.434 0.214 -0.009 1 
0.433 0.224 -0.009 1 
0.431 0.231 -0.009 1 
0.434 0.253 -0.01 1 
0.434 0.27 -0.011 1 
0.408 0.266 -0.014 1 
0.454 -0.324 -0.013 1 
0.454 -0.295 -0.012 1 
0.453 -0.285 -0.011 1 
0.424 0.134 -0.012 1 
0.451 -0.268 -0.01 1 
0.45 -0.255 -0.01 1 
0.45 -0.246 -0.009 1 
0.453 -0.237 -0.01 1 
0.454 -0.232 -0.01 1 
0.454 -0.219 -0.01 1 
0.454 -0.207 -0.01 1 
0.454 -0.161 -0.009 1 
0.454 -0.136 -0.009 1 
0.454 -0.128 -0.009 1 
0.454 -0.076 -0.008 1 
0.454 -0.066 -0.008 1 
0.454 -0.055 -0.008 1 
0.449 0.033 -0.007 1 
0.442 0.143 -0.009 1 
0.451 0.044 -0.008 1 
0.45 0.054 -0.008 1 
0.45 0.064 -0.008 1 
0.45 0.074 -0.008 1 
0.451 0.092 -0.008 1 
0.447 0.104 -0.007 1 
0.444 0.173 -0.008 1 
0.441 0.182 -0.008 1 
0.44 0.192 -0.008 1 
0.441 0.204 -0.008 1 
0.442 0.243 -0.009 1 
0.438 0.283 -0.01 1 
0.384 -0.209 -0.019 1 
0.447 -0.326 -0.009 1 
0.381 0.184 -0.015 1 
0.464 -0.318 -0.012 1 
0.404 -0.076 -0.014 1 
0.463 -0.298 -0.011 1 
0.456 0.063 -0.006 1 
0.451 0.134 -0.006 1 
0.452 0.153 -0.007 1 
0.451 0.164 -0.007 1 
0.442 0.293 -0.008 1 
0.443 0.313 -0.009 1 
0.442 0.315 -0.009 1 
0.464 -0.258 -0.007 1 
0.464 -0.237 -0.007 1 
0.462 -0.216 -0.006 1 
0.462 -0.196 -0.006 1 
0.463 -0.177 -0.006 1 
0.464 -0.155 -0.006 1 
0.462 -0.135 -0.005 1 
0.464 -0.116 -0.005 1 
0.463 -0.076 -0.005 1 
0.384 -0.237 -0.025 1 
0.463 -0.057 -0.005 1 
0.463 -0.036 -0.005 1 
0.461 0.042 -0.005 1 
0.46 0.093 -0.005 1 
0.457 0.124 -0.005 1 
0.457 0.142 -0.005 1 
0.457 0.153 -0.005 1 
0.455 0.172 -0.005 1 
0.454 0.174 -0.005 1 
0.394 0.226 -0.016 1 
0.454 0.182 -0.005 1 
0.453 0.193 -0.005 1 
0.454 0.202 -0.006 1 
0.454 0.213 -0.006 1 
0.453 0.224 -0.006 1 
0.452 0.234 -0.006 1 
0.453 0.244 -0.006 1 
0.451 0.254 -0.006 1 
0.449 0.264 -0.006 1 
0.464 0.34 -0.011 1 
0.462 -0.343 -0.006 1 
0.456 0.134 -0.005 1 
0.471 -0.289 -0.007 1 
0.468 -0.277 -0.006 1 
0.469 -0.256 -0.005 1 
0.471 -0.246 -0.006 1 
0.469 -0.238 -0.005 1 
0.467 -0.231 -0.005 1 
0.464 -0.028 -0.003 1 
0.411 -0.186 -0.016 1 
0.477 -0.007 -0.005 1 
0.394 -0.156 -0.016 1 
0.463 0.043 -0.003 1 
0.454 0.262 -0.004 1 
0.454 0.271 -0.004 1 
0.453 0.277 -0.004 1 
0.453 0.283 -0.005 1 
0.453 0.292 -0.005 1 
0.452 0.304 -0.005 1 
0.451 0.312 -0.005 1 
0.453 0.321 -0.006 1 
0.453 0.327 -0.006 1 
0.47 -0.345 -0.005 1 
0.473 -0.335 -0.005 1 
0.364 -0.076 -0.015 1 
0.472 -0.316 -0.005 1 
0.454 -0.045 -0.008 1 
0.473 -0.314 -0.005 1 
0.458 0.113 -0.005 1 
0.381 0.006 0.015 1 
0.388 -0.005 -0.011 1 
0.392 0.014 0.013 1 
0.392 0.018 0.013 1 
0.463 0.094 0 1 
0.463 0.113 0 1 
0.462 0.123 0 1 
0.454 0.309 -0.003 1 
0.474 -0.339 -0.003 1 
0.474 -0.325 -0.002 1 
0.381 0.153 -0.013 1 
0.474 -0.322 -0.002 1 
0.394 0.114 -0.014 1 
0.457 0.013 0.003 1 
0.46 0.024 0.002 1 
0.461 0.224 0 1 
0.461 0.233 0 1 
0.471 -0.225 0.002 1 
0.47 -0.216 0.002 1 
0.47 -0.207 0.002 1 
0.47 -0.195 0.003 1 
0.469 -0.186 0.003 1 
0.471 -0.167 0.003 1 
0.47 -0.155 0.003 1 
0.469 -0.146 0.003 1 
0.373 -0.205 -0.022 1 
0.423 0.105 -0.011 1 
0.469 -0.135 0.003 1 
0.468 -0.107 0.004 1 
0.468 -0.096 0.004 1 
0.467 -0.085 0.004 1 
0.468 -0.077 0.004 1 
0.413 -0.126 -0.015 1 
0.466 -0.007 0.004 1 
0.464 0.032 0.004 1 
0.466 0.084 0.004 1 
0.465 0.094 0.004 1 
0.465 0.124 0.003 1 
0.465 0.132 0.003 1 
0.465 0.135 0.003 1 
0.463 0.151 0.003 1 
0.464 0.163 0.003 1 
0.464 0.174 0.003 1 
0.464 0.183 0.003 1 
0.464 0.191 0.003 1 
0.465 0.203 0.002 1 
0.465 0.212 0.002 1 
0.465 0.221 0.002 1 
0.465 0.233 0.002 1 
0.465 0.242 0.002 1 
0.464 0.244 0.002 1 
0.46 0.332 0 1 
0.473 -0.355 0.002 1 
0.474 -0.353 0.002 1 
0.359 0.104 -0.014 1 
0.478 -0.336 0.002 1 
0.423 -0.086 -0.013 1 
0.477 -0.328 0.002 1 
0.475 -0.309 0.003 1 
0.474 -0.305 0.003 1 
0.474 -0.302 0.003 1 
0.484 -0.013 -0.018 1 
0.475 -0.299 0.003 1 
0.473 -0.288 0.004 1 
0.473 -0.275 0.004 1 
0.473 -0.266 0.004 1 
0.476 -0.243 0.004 1 
0.433 0.29 -0.011 1 
0.404 -0.156 -0.015 1 
0.463 0.252 0.004 1 
0.384 -0.175 -0.018 1 
0.463 0.261 0.004 1 
0.463 -0.007 -0.018 1 
0.464 0.274 0.004 1 
0.465 0.281 0.003 1 
0.465 0.291 0.003 1 
0.464 0.293 0.003 1 
0.463 0.302 0.003 1 
0.462 0.307 0.003 1 
0.463 0.315 0.003 1 
0.478 0.334 0 1 
0.468 0.334 0.002 1 
0.372 0.153 -0.014 1 
0.465 0.337 0.002 1 
0.473 0.351 0 1 
0.476 -0.359 0.004 1 
0.478 -0.35 0.004 1 
0.475 -0.296 0.006 1 
0.432 0.133 -0.012 1 
0.439 0.263 -0.009 1 
0.472 -0.327 -0.005 1 
0.46 0.053 -0.005 1 
0.456 0.034 -0.006 1 
0.464 0.003 0.012 1 
0.464 0.014 0.012 1 
0.462 0.024 0.013 1 
0.463 -0.046 -0.005 1 
0.464 -0.065 -0.005 1 
0.409 0.2 -0.012 1 
0.384 -0.145 -0.017 1 
0.463 -0.086 -0.005 1 
0.454 -0.166 -0.009 1 
0.464 -0.106 -0.005 1 
0.384 0.191 -0.014 1 
0.464 -0.125 -0.005 1 
0.463 -0.146 -0.005 1 
0.465 0.102 0.004 1 
0.408 0.263 -0.014 1 
0.463 -0.165 -0.006 1 
0.463 -0.185 -0.006 1 
0.462 -0.225 -0.006 1 
0.451 -0.305 -0.014 1 
0.463 -0.245 -0.007 1 
0.44 0.253 -0.009 1 
0.457 -0.285 -0.009 1 
0.442 0.102 -0.009 1 
0.414 0.124 -0.014 1 
0.462 -0.326 -0.012 1 
0.441 -0.276 -0.011 1 
0.413 0.114 -0.013 1 
0.372 0.107 -0.015 1 
0.373 0.238 -0.017 1 
0.389 0.172 -0.015 1 
0.437 -0.269 -0.015 1 
0.476 0.335 -0.002 1 
0.443 -0.315 -0.015 1 
0.453 0.143 -0.007 1 
0.419 -0.158 -0.015 1 
0.408 -0.066 -0.013 1 
0.439 -0.245 -0.015 1 
0.469 -0.127 0.003 1 
0.45 -0.177 -0.011 1 
0.394 0.262 -0.015 1 
0.465 0.062 0.001 1 
0.344 -0.015 -0.007 1 
0.373 0.02 -0.008 1 
0.459 0.074 -0.005 1 
0.454 -0.196 -0.01 1 
0.474 -0.251 0.004 1 
0.362 0.113 -0.014 1 
0.392 -0.076 -0.014 1 
0.331 0.015 0.004 1 
0.359 0.202 -0.014 1 
0.454 -0.024 -0.008 1 
0.42 -0.015 -0.012 1 
0.451 0.124 -0.006 1 
0.472 -0.297 -0.007 1 
0.367 -0.026 -0.01 1 
0.441 -0.014 -0.01 1 
0.364 -0.07 -0.015 1 
0.44 0.152 -0.009 1 
0.353 0.163 -0.014 1 
0.464 0.143 0.003 1 
0.394 0.029 -0.011 1 
0.354 0.053 -0.011 1 
0.353 -0.026 -0.01 1 
0.422 0.182 -0.01 1 
0.431 -0.135 -0.013 1 
0.39 -0.198 -0.019 1 
0.414 -0.041 -0.012 1 
0.333 -0.005 -0.005 1 
0.461 0.336 0 1 
0.411 -0.155 -0.015 1 
0.392 0.134 -0.014 1 
0.442 0.213 -0.008 1 
0.361 0.133 -0.014 1 
0.433 -0.011 -0.011 1 
0.411 0.064 -0.012 1 
0.398 0.172 -0.013 1 
0.374 -0.217 -0.022 1 
0.442 -0.046 -0.01 1 
0.466 0.032 0 1 
0.373 -0.089 -0.014 1 
0.369 -0.074 -0.015 1 
0.421 -0.276 -0.021 1 
0.431 0.113 -0.011 1 
0.441 0.274 -0.01 1 
0.393 0.203 -0.015 1 
0.399 0.213 -0.015 1 
0.475 -0.246 0.004 1 
0.373 0.013 0.015 1 
0.432 0.123 -0.012 1 
0.418 -0.177 -0.015 1 
0.419 0.043 -0.012 1 
0.461 0.003 0.002 1 
0.382 -0.105 -0.016 1 
0.399 0.243 -0.016 1 
0.388 0.119 -0.015 1 
0.473 -0.236 0.004 1 
0.413 -0.246 -0.023 1 
0.395 -0.256 -0.025 1 
0.353 0.104 -0.014 1 
0.373 0.064 -0.013 1 
0.398 0.114 -0.013 1 
0.414 0.224 -0.014 1 
0.393 -0.104 -0.015 1 
0.429 -0.236 -0.017 1 
0.471 -0.007 -0.007 1 
0.429 -0.267 -0.018 1 
0.408 -0.055 -0.013 1 
0.384 0.063 -0.012 1 
0.423 0.173 -0.01 1 
0.434 -0.066 -0.011 1 
0.403 -0.166 -0.017 1 
0.424 -0.251 -0.019 1 
0.475 -0.255 0.001 1 
0.463 0.134 0.001 1 
0.383 0.203 -0.016 1 
0.42 -0.166 -0.015 1 
0.394 0.183 -0.014 1 
0.431 -0.222 -0.015 1 
0.361 0.158 -0.015 1 
0.414 0.174 -0.013 1 
0.402 0.182 -0.014 1 
0.391 0.253 -0.016 1 
0.463 -0.023 -0.005 1 
0.464 -0.267 -0.007 1 
0.393 -0.239 -0.023 1 
0.424 -0.103 -0.013 1 
0.465 0.113 0.004 1 
0.454 -0.276 -0.011 1 
0.364 -0.105 -0.015 1 
0.463 0.104 0 1 
0.443 0.092 -0.009 1 
0.391 -0.239 -0.025 1 
0.454 0.114 -0.007 1 
0.46 0.082 -0.005 1 
0.414 0.184 -0.013 1 
0.454 -0.027 -0.008 1 
0.412 0.044 -0.012 1 
0.417 0.264 -0.014 1 
0.42 0.144 -0.011 1 
0.431 -0.296 -0.02 1 
0.463 -0.025 -0.005 1 
0.404 -0.215 -0.017 1 
0.381 -0.086 -0.015 1 
0.441 -0.285 -0.016 1 
0.454 -0.035 -0.008 1 
0.454 0.274 -0.005 1 
0.394 -0.176 -0.017 1 
0.41 -0.176 -0.015 1 
0.441 -0.016 -0.01 1 
0.403 -0.056 -0.013 1 
0.443 0.304 -0.009 1 
0.364 -0.098 -0.015 1 
0.4 -0.126 -0.016 1 
0.419 0.261 -0.015 1 
0.381 0.134 -0.015 1 
0.374 -0.063 -0.012 1 
0.362 -0.045 -0.012 1 
0.43 0.103 -0.011 1 
0.372 0.232 -0.016 1 
0.434 -0.025 -0.011 1 
0.419 -0.185 -0.016 1 
0.431 0.033 -0.01 1 
0.362 -0.077 -0.014 1 
0.364 0.18 -0.015 1 
0.443 -0.312 -0.015 1 
0.44 -0.125 -0.01 1 
0.442 0.112 -0.009 1 
0.434 -0.059 -0.011 1 
0.384 0.221 -0.017 1 
0.45 0.084 -0.008 1 
0.432 -0.256 -0.016 1 
0.374 -0.155 -0.018 1 
0.373 -0.096 -0.014 1 
0.382 -0.195 -0.02 1 
0.394 0.214 -0.015 1 
0.372 0.174 -0.015 1 
0.364 0.048 -0.011 1 
0.391 -0.257 -0.024 1 
0.374 0.091 -0.013 1 
0.419 -0.01 -0.012 1 
0.362 0.064 -0.013 1 
0.38 0.192 -0.015 1 
0.399 0.084 -0.013 1 
0.464 0.08 0 1 
0.468 -0.265 -0.005 1 
0.404 0.254 -0.015 1 
0.464 0.284 0.001 1 
0.358 0.164 -0.014 1 
0.36 0.142 -0.014 1 
0.384 -0.173 -0.018 1 
0.463 0.202 0 1 
0.399 -0.026 -0.012 1 
0.473 -0.256 0.004 1 
0.414 0.031 -0.013 1 
0.364 -0.115 -0.015 1 
0.404 0.2 -0.013 1 
0.463 -0.097 -0.005 1 
0.415 -0.118 -0.015 1 
0.389 -0.096 -0.014 1 
0.442 0.224 -0.009 1 
0.416 0.286 -0.015 1 
0.394 -0.169 -0.017 1 
0.407 -0.275 -0.022 1 
0.412 0.227 -0.014 1 
0.466 -0.004 0.004 1 
0.409 0.262 -0.015 1 
0.477 -0.315 0.002 1 
0.463 -0.208 -0.006 1 
0.383 0.172 -0.015 1 
0.38 0.093 -0.013 1 
0.455 0.164 -0.005 1 
0.424 -0.125 -0.013 1 
0.463 -0.276 -0.007 1 
0.441 0.234 -0.009 1 
0.463 0.214 0 1 
0.434 0.242 -0.01 1 
0.412 -0.017 -0.012 1 
0.428 -0.015 -0.012 1 
0.4 -0.115 -0.015 1 
0.391 -0.09 -0.014 1 
0.382 -0.135 -0.016 1 
0.468 -0.015 -0.006 1 
0.373 0.203 -0.017 1 
0.374 0.017 0.015 1 
0.458 0.103 -0.005 1 
0.464 -0.305 -0.011 1 
0.388 -0.137 -0.016 1 
0.358 0.212 -0.015 1 
0.372 -0.165 -0.018 1 
0.374 0.073 -0.013 1 
0.399 0.093 -0.013 1 
0.47 -0.175 0.003 1 
0.332 0.015 0.01 2 
0.332 0.013 0.017 2 
0.333 0.004 0.009 2 
0.331 0.015 0.016 2 
0.332 0.004 0.017 2 
0.332 0.013 0.01 2 
0.335 -0.002 0.031 2 
0.378 0.053 0.07 2 
0.36 0 0.043 2 
0.528 -0.011 0.05 2 
0.516 -0.051 0.064 2 
0.381 0.056 0.068 2 
0.415 0.083 0.067 2 
0.401 0.023 0.052 2 
0.517 -0.014 0.061 2 
0.534 -0.018 0.06 2 
0.529 -0.018 0.063 2 
0.524 -0.024 0.064 2 
0.522 -0.027 0.064 2 
0.433 -0.063 0.061 2 
0.532 -0.028 0.06 2 
0.364 0.005 0.041 2 
0.387 -0.005 0.058 2 
0.536 -0.015 0.057 2 
0.537 -0.025 0.056 2 
0.378 -0.001 0.052 2 
0.401 -0.003 0.055 2 
0.434 0.031 0.052 2 
0.4 0.086 0.066 2 
0.408 0.087 0.066 2 
0.406 0.084 0.067 2 
0.403 0.075 0.067 2 
0.402 0.07 0.066 2 
0.402 0.059 0.066 2 
0.373 0.048 0.067 2 
0.363 -0.006 0.066 2 
0.357 -0.021 0.067 2 
0.381 -0.026 0.067 2 
0.406 -0.031 0.067 2 
0.401 -0.032 0.067 2 
0.531 -0.096 0.047 2 
0.53 -0.106 0.047 2 
0.433 0.082 0.069 2 
0.421 0.076 0.069 2 
0.389 0.064 0.069 2 
0.375 -0.029 0.069 2 
0.394 -0.033 0.069 2 
0.391 -0.035 0.069 2 
0.352 -0.044 0.067 2 
0.365 -0.013 0.065 2 
0.419 -0.042 0.064 2 
0.424 0.093 0.064 2 
0.44 0.005 0.033 2 
0.518 -0.014 0.048 2 
0.357 0.015 0.039 2 
0.381 0.006 0.038 2 
0.39 -0.001 0.049 2 
0.527 -0.018 0.051 2 
0.535 -0.021 0.05 2 
0.359 0.007 0.039 2 
0.426 0.082 0.064 2 
0.495 0.086 0.058 2 
0.536 -0.018 0.089 2 
0.519 -0.036 0.073 2 
0.426 -0.006 0.06 2 
0.502 -0.046 0.076 2 
0.525 -0.053 0.067 2 
0.503 -0.013 0.086 2 
0.521 -0.024 0.086 2 
0.515 -0.033 0.07 2 
0.354 -0.007 0.072 2 
0.536 -0.061 0.066 2 
0.54 -0.068 0.067 2 
0.372 0.054 0.07 2 
0.357 -0.006 0.07 2 
0.362 -0.023 0.071 2 
0.371 -0.026 0.071 2 
0.529 -0.063 0.063 2 
0.534 -0.067 0.063 2 
0.516 -0.067 0.063 2 
0.532 -0.077 0.063 2 
0.392 0.059 0.066 2 
0.44 -0.043 0.063 2 
0.518 -0.014 0.092 2 
0.526 -0.037 0.077 2 
0.507 -0.014 0.089 2 
0.53 -0.021 0.089 2 
0.532 -0.028 0.089 2 
0.386 -0.038 0.067 2 
0.468 -0.077 0.134 3 
0.466 0.123 0.133 3 
0.468 -0.066 0.133 3 
0.467 -0.055 0.133 3 
0.468 -0.047 0.133 3 
0.467 -0.041 0.133 3 
0.464 0.065 0.132 3 
0.465 0.073 0.133 3 
0.466 0.084 0.133 3 
0.466 0.092 0.133 3 
0.466 0.103 0.133 3 
0.466 0.114 0.133 3 
0.464 0.301 0.133 3 
0.469 -0.085 0.134 3 
0.47 -0.097 0.134 3 
0.481 -0.327 0.142 3 
0.482 -0.338 0.142 3 
0.482 -0.346 0.143 3 
0.463 0.34 0.134 3 
0.463 0.333 0.134 3 
0.474 -0.289 0.093 3 
0.465 0.329 0.134 3 
0.466 0.323 0.134 3 
0.465 0.342 0.123 3 
0.475 -0.219 0.143 3 
0.478 -0.287 0.143 3 
0.594 -0.051 0.142 3 
0.475 -0.225 0.143 3 
0.475 -0.237 0.143 3 
0.475 -0.247 0.144 3 
0.475 -0.256 0.144 3 
0.461 0.059 0.134 3 
0.458 0.053 0.134 3 
0.474 -0.225 0.14 3 
0.466 0.142 0.114 3 
0.474 -0.243 0.14 3 
0.494 -0.051 0.064 3 
0.474 -0.246 0.14 3 
0.477 -0.277 0.142 3 
0.466 0.134 0.133 3 
0.47 -0.207 0.014 3 
0.479 -0.295 0.143 3 
0.479 -0.305 0.143 3 
0.481 -0.317 0.144 3 
0.464 0.289 0.136 3 
0.464 0.224 0.134 3 
0.465 0.21 0.134 3 
0.465 0.202 0.134 3 
0.466 0.193 0.134 3 
0.466 0.184 0.134 3 
0.466 0.173 0.134 3 
0.465 0.164 0.134 3 
0.465 0.153 0.133 3 
0.476 -0.275 0.133 3 
0.465 0.291 0.074 3 
0.464 0.213 0.129 3 
0.285 -0.002 0.085 3 
0.475 -0.237 0.132 3 
0.474 -0.24 0.132 3 
0.475 -0.246 0.132 3 
0.465 0.253 0.079 3 
0.474 -0.249 0.132 3 
0.474 -0.255 0.132 3 
0.475 -0.259 0.132 3 
0.476 -0.266 0.133 3 
0.48 -0.348 0.064 3 
0.471 -0.167 0.044 3 
0.476 -0.307 0.084 3 
0.478 -0.287 0.134 3 
0.478 -0.297 0.134 3 
0.48 -0.358 0.137 3 
0.464 0.062 0.124 3 
0.463 0.054 0.124 3 
0.283 0.018 0.084 3 
0.282 0.004 0.083 3 
0.57 -0.02 0.148 3 
0.464 0.253 0.082 3 
0.576 -0.02 0.083 3 
0.479 -0.308 0.132 3 
0.48 -0.319 0.132 3 
0.479 -0.305 0.161 3 
0.476 -0.316 0.032 3 
0.464 0.292 0.133 3 
0.465 0.286 0.133 3 
0.282 0.012 0.084 3 
0.465 0.283 0.133 3 
0.465 0.274 0.133 3 
0.466 0.262 0.133 3 
0.464 0.132 0.022 3 
0.465 0.252 0.132 3 
0.464 0.242 0.132 3 
0.464 0.254 0.124 3 
0.464 0.233 0.132 3 
0.471 -0.116 0.132 3 
0.471 -0.128 0.132 3 
0.465 0.299 0.134 3 
0.471 -0.136 0.132 3 
0.471 -0.145 0.132 3 
0.471 -0.156 0.133 3 
0.471 -0.165 0.133 3 
0.471 -0.185 0.133 3 
0.473 -0.197 0.133 3 
0.473 -0.206 0.134 3 
0.473 -0.215 0.134 3 
0.465 0.203 0.082 3 
0.473 -0.227 0.134 3 
0.474 -0.255 0.135 3 
0.578 -0.035 0.091 3 
0.464 0.248 0.129 3 
0.477 -0.277 0.154 3 
0.467 0.346 0.153 3 
0.468 0.343 0.153 3 
0.467 0.332 0.153 3 
0.467 0.322 0.152 3 
0.433 0.053 0.137 3 
0.475 -0.213 0.151 3 
0.475 -0.226 0.152 3 
0.475 -0.235 0.152 3 
0.472 -0.265 0.013 3 
0.474 -0.237 0.152 3 
0.474 -0.246 0.152 3 
0.475 -0.256 0.153 3 
0.476 -0.266 0.153 3 
0.474 -0.246 0.155 3 
0.318 -0.014 0.059 3 
0.477 -0.287 0.154 3 
0.466 0.142 0.144 3 
0.474 -0.255 0.118 3 
0.466 0.134 0.144 3 
0.467 0.118 0.144 3 
0.467 0.112 0.144 3 
0.466 0.104 0.144 3 
0.467 0.093 0.144 3 
0.467 0.082 0.144 3 
0.464 0.163 0.063 3 
0.466 0.074 0.144 3 
0.464 0.068 0.143 3 
0.466 0.232 0.152 3 
0.465 0.324 0.103 3 
0.481 -0.317 0.162 3 
0.481 -0.328 0.163 3 
0.482 -0.336 0.164 3 
0.48 -0.348 0.164 3 
0.465 0.313 0.154 3 
0.466 0.304 0.154 3 
0.466 0.294 0.154 3 
0.466 0.282 0.153 3 
0.465 0.262 0.152 3 
0.465 0.253 0.152 3 
0.465 0.244 0.152 3 
0.468 -0.14 0.014 3 
0.463 0.062 0.143 3 
0.472 -0.145 0.152 3 
0.302 0.022 0.093 3 
0.472 -0.157 0.152 3 
0.464 0.282 0.127 3 
0.473 -0.166 0.153 3 
0.473 -0.175 0.153 3 
0.472 -0.186 0.153 3 
0.473 -0.195 0.153 3 
0.474 -0.216 0.154 3 
0.474 -0.234 0.154 3 
0.462 0.242 0.013 3 
0.474 -0.237 0.155 3 
0.481 -0.345 0.151 3 
0.468 -0.055 0.142 3 
0.469 -0.066 0.142 3 
0.465 0.166 0.052 3 
0.469 -0.077 0.142 3 
0.469 -0.085 0.142 3 
0.469 -0.105 0.142 3 
0.469 -0.116 0.142 3 
0.47 -0.125 0.143 3 
0.472 -0.145 0.144 3 
0.471 -0.156 0.144 3 
0.471 -0.165 0.144 3 
0.471 -0.176 0.144 3 
0.471 -0.185 0.144 3 
0.47 -0.05 0.142 3 
0.481 -0.356 0.152 3 
0.48 -0.339 0.112 3 
0.467 0.345 0.144 3 
0.473 -0.185 0.122 3 
0.467 0.342 0.144 3 
0.466 0.33 0.143 3 
0.466 0.324 0.143 3 
0.466 0.313 0.143 3 
0.465 0.303 0.142 3 
0.465 0.283 0.142 3 
0.464 0.233 0.14 3 
0.473 -0.197 0.142 3 
0.474 -0.207 0.142 3 
0.464 0.24 0.143 3 
0.31 0.027 0.099 3 
0.286 0.022 0.092 3 
0.292 -0.007 0.094 3 
0.479 -0.295 0.152 3 
0.479 -0.305 0.152 3 
0.481 -0.317 0.153 3 
0.481 -0.327 0.154 3 
0.481 -0.338 0.154 3 
0.466 0.272 0.144 3 
0.465 0.147 0.063 3 
0.466 0.262 0.144 3 
0.465 0.252 0.144 3 
0.465 0.243 0.144 3 
0.474 -0.216 0.143 3 
0.465 0.234 0.143 3 
0.465 0.222 0.143 3 
0.341 -0.016 0.058 3 
0.464 0.183 0.033 3 
0.466 0.214 0.143 3 
0.465 0.202 0.143 3 
0.466 0.194 0.143 3 
0.466 0.182 0.142 3 
0.466 0.173 0.142 3 
0.471 -0.156 0.124 3 
0.466 0.162 0.142 3 
0.466 0.153 0.142 3 
0.474 -0.267 0.112 3 
0.472 -0.217 0.114 3 
0.472 -0.226 0.114 3 
0.464 0.269 0.11 3 
0.307 0.021 0.081 3 
0.472 -0.176 0.102 3 
0.599 -0.021 0.131 3 
0.581 -0.05 0.128 3 
0.478 -0.325 0.082 3 
0.474 -0.236 0.112 3 
0.474 -0.245 0.112 3 
0.46 -0.046 0.047 3 
0.474 -0.255 0.112 3 
0.473 -0.206 0.114 3 
0.475 -0.277 0.113 3 
0.476 -0.285 0.113 3 
0.477 -0.295 0.113 3 
0.478 -0.306 0.114 3 
0.479 -0.317 0.114 3 
0.479 -0.327 0.114 3 
0.474 -0.245 0.084 3 
0.464 0.334 0.108 3 
0.464 0.275 0.107 3 
0.335 0.023 0.051 3 
0.295 -0.003 0.078 3 
0.464 0.232 0.063 3 
0.596 -0.04 0.127 3 
0.468 -0.085 0.112 3 
0.464 0.254 0.113 3 
0.463 0.241 0.112 3 
0.464 0.233 0.112 3 
0.464 0.223 0.112 3 
0.465 0.221 0.112 3 
0.463 0.322 0.043 3 
0.465 0.192 0.112 3 
0.465 0.062 0.111 3 
0.464 0.244 0.082 3 
0.295 0.02 0.081 3 
0.593 -0.051 0.134 3 
0.468 -0.066 0.112 3 
0.468 -0.077 0.112 3 
0.573 -0.049 0.123 3 
0.467 -0.066 0.034 3 
0.469 -0.096 0.112 3 
0.47 -0.105 0.112 3 
0.469 -0.116 0.112 3 
0.469 -0.127 0.112 3 
0.47 -0.136 0.113 3 
0.473 -0.185 0.114 3 
0.469 -0.146 0.113 3 
0.47 -0.155 0.113 3 
0.471 -0.167 0.113 3 
0.472 -0.176 0.113 3 
0.473 -0.197 0.114 3 
0.468 -0.077 0.104 3 
0.464 0.083 0.103 3 
0.465 0.081 0.103 3 
0.465 0.073 0.103 3 
0.464 0.062 0.103 3 
0.464 0.34 0.019 3 
0.463 0.054 0.103 3 
0.596 -0.033 0.123 3 
0.596 -0.036 0.123 3 
0.464 0.16 0.073 3 
0.591 -0.047 0.122 3 
0.468 -0.047 0.104 3 
0.468 -0.055 0.104 3 
0.468 -0.066 0.104 3 
0.465 0.092 0.103 3 
0.469 -0.085 0.104 3 
0.464 0.226 0.043 3 
0.469 -0.096 0.104 3 
0.469 -0.116 0.104 3 
0.465 0.272 0.063 3 
0.469 -0.127 0.104 3 
0.47 -0.135 0.104 3 
0.473 -0.235 0.024 3 
0.467 0.344 0.103 3 
0.464 0.337 0.103 3 
0.464 0.333 0.103 3 
0.466 0.332 0.103 3 
0.469 0.349 0.196 3 
0.481 0.003 0.03 3 
0.465 0.183 0.063 3 
0.479 -0.345 0.112 3 
0.472 -0.247 0.024 3 
0.478 -0.355 0.112 3 
0.464 0.269 0.104 3 
0.464 0.263 0.104 3 
0.464 0.254 0.104 3 
0.463 0.322 0.082 3 
0.465 0.233 0.104 3 
0.465 0.224 0.104 3 
0.465 0.212 0.104 3 
0.465 0.203 0.104 3 
0.465 0.192 0.104 3 
0.464 0.26 0.113 3 
0.465 0.183 0.104 3 
0.464 0.177 0.103 3 
0.464 0.171 0.103 3 
0.465 0.169 0.103 3 
0.478 -0.346 0.022 3 
0.465 0.164 0.103 3 
0.465 0.152 0.103 3 
0.465 0.144 0.103 3 
0.466 0.133 0.103 3 
0.466 0.122 0.103 3 
0.465 0.114 0.103 3 
0.465 0.103 0.103 3 
0.47 -0.136 0.124 3 
0.471 -0.155 0.044 3 
0.592 -0.021 0.149 3 
0.468 -0.042 0.122 3 
0.467 -0.047 0.122 3 
0.468 -0.055 0.123 3 
0.468 -0.066 0.123 3 
0.314 -0.007 0.059 3 
0.469 -0.077 0.123 3 
0.469 -0.085 0.123 3 
0.47 -0.097 0.123 3 
0.475 -0.287 0.093 3 
0.47 -0.105 0.123 3 
0.47 -0.127 0.124 3 
0.289 -0.005 0.084 3 
0.47 -0.147 0.124 3 
0.471 -0.167 0.124 3 
0.471 -0.176 0.124 3 
0.464 0.338 0.123 3 
0.465 0.332 0.123 3 
0.466 0.323 0.123 3 
0.467 0.314 0.123 3 
0.466 0.303 0.122 3 
0.466 0.293 0.122 3 
0.465 0.062 0.119 3 
0.286 0.018 0.082 3 
0.315 -0.006 0.088 3 
0.466 0.193 0.123 3 
0.473 -0.275 0.044 3 
0.481 -0.337 0.133 3 
0.481 -0.348 0.133 3 
0.466 0.343 0.126 3 
0.465 0.277 0.124 3 
0.465 0.273 0.124 3 
0.465 0.264 0.124 3 
0.464 0.242 0.124 3 
0.463 0.232 0.123 3 
0.463 0.223 0.123 3 
0.465 0.212 0.123 3 
0.465 0.204 0.123 3 
0.599 -0.021 0.147 3 
0.466 0.184 0.123 3 
0.466 0.173 0.123 3 
0.465 0.164 0.123 3 
0.578 -0.027 0.091 3 
0.465 0.153 0.122 3 
0.466 0.134 0.122 3 
0.465 0.114 0.122 3 
0.466 0.103 0.122 3 
0.465 0.092 0.122 3 
0.464 0.084 0.122 3 
0.465 0.073 0.122 3 
0.285 -0.001 0.083 3 
0.468 -0.039 0.114 3 
0.466 0.122 0.114 3 
0.464 0.294 0.079 3 
0.465 0.114 0.114 3 
0.465 0.103 0.114 3 
0.464 0.1 0.114 3 
0.465 0.092 0.114 3 
0.464 0.089 0.114 3 
0.465 0.084 0.114 3 
0.476 -0.316 0.043 3 
0.465 0.073 0.114 3 
0.464 0.065 0.114 3 
0.464 0.054 0.114 3 
0.583 -0.046 0.136 3 
0.466 0.134 0.114 3 
0.468 -0.047 0.114 3 
0.468 -0.055 0.114 3 
0.464 0.341 0.114 3 
0.465 0.338 0.114 3 
0.466 0.333 0.114 3 
0.466 0.322 0.114 3 
0.466 0.312 0.114 3 
0.466 0.303 0.114 3 
0.465 0.292 0.113 3 
0.463 0.032 0.013 3 
0.465 0.283 0.113 3 
0.465 0.273 0.113 3 
0.465 0.264 0.113 3 
0.479 -0.317 0.123 3 
0.594 -0.051 0.146 3 
0.472 -0.196 0.122 3 
0.473 -0.206 0.122 3 
0.473 -0.215 0.123 3 
0.473 -0.226 0.123 3 
0.474 -0.236 0.123 3 
0.474 -0.245 0.123 3 
0.475 -0.256 0.124 3 
0.475 -0.265 0.124 3 
0.597 -0.021 0.142 3 
0.476 -0.285 0.122 3 
0.479 -0.307 0.123 3 
0.48 -0.326 0.132 3 
0.48 -0.329 0.124 3 
0.481 -0.337 0.124 3 
0.479 -0.345 0.124 3 
0.481 -0.355 0.124 3 
0.464 0.257 0.115 3 
0.464 0.2 0.115 3 
0.465 0.178 0.114 3 
0.465 0.172 0.114 3 
0.478 -0.325 0.064 3 
0.465 0.164 0.114 3 
0.466 0.153 0.114 3 
0.465 0.204 0.112 3 
0.473 -0.065 0.182 3 
0.469 0.162 0.182 3 
0.47 0.154 0.183 3 
0.471 0.143 0.182 3 
0.47 0.134 0.182 3 
0.475 -0.278 0.124 3 
0.471 0.123 0.182 3 
0.47 -0.105 0.134 3 
0.471 0.114 0.182 3 
0.47 0.094 0.181 3 
0.465 -0.036 0.004 3 
0.472 0.084 0.182 3 
0.473 -0.059 0.182 3 
0.306 0.02 0.074 3 
0.471 -0.136 0.143 3 
0.472 -0.076 0.182 3 
0.473 -0.087 0.182 3 
0.549 -0.015 0.078 3 
0.474 -0.096 0.183 3 
0.475 -0.107 0.184 3 
0.472 -0.167 0.102 3 
0.474 -0.11 0.183 3 
0.475 -0.116 0.184 3 
0.474 -0.118 0.183 3 
0.475 -0.127 0.184 3 
0.474 -0.13 0.184 3 
0.475 -0.136 0.184 3 
0.481 -0.299 0.192 3 
0.468 0.152 0.173 3 
0.473 -0.076 0.185 3 
0.468 0.132 0.164 3 
0.474 -0.087 0.186 3 
0.474 -0.11 0.186 3 
0.478 -0.245 0.192 3 
0.464 0.255 0.063 3 
0.479 -0.255 0.192 3 
0.468 -0.077 0.074 3 
0.479 -0.267 0.193 3 
0.466 0.342 0.025 3 
0.48 -0.275 0.193 3 
0.48 -0.288 0.194 3 
0.472 0.355 0.192 3 
0.466 0.142 0.134 3 
0.468 0.247 0.184 3 
0.468 0.244 0.184 3 
0.469 0.233 0.184 3 
0.465 0.163 0.084 3 
0.469 0.224 0.184 3 
0.464 0.075 0.074 3 
0.469 0.212 0.184 3 
0.464 0.212 0.12 3 
0.469 0.203 0.183 3 
0.469 0.194 0.183 3 
0.468 0.182 0.182 3 
0.469 0.174 0.183 3 
0.473 -0.166 0.173 3 
0.477 -0.307 0.064 3 
0.477 -0.216 0.184 3 
0.471 -0.178 0.074 3 
0.465 0.048 0.004 3 
0.476 -0.231 0.184 3 
0.484 -0.336 0.192 3 
0.485 -0.341 0.193 3 
0.486 -0.345 0.193 3 
0.469 0.351 0.184 3 
0.468 0.331 0.183 3 
0.469 0.322 0.182 3 
0.469 0.312 0.182 3 
0.464 0.294 0.085 3 
0.463 0.062 0.173 3 
0.464 0.065 0.124 3 
0.474 -0.135 0.178 3 
0.474 -0.147 0.178 3 
0.464 0.203 0.033 3 
0.478 -0.238 0.182 3 
0.478 -0.247 0.182 3 
0.478 -0.257 0.183 3 
0.478 -0.266 0.183 3 
0.479 -0.277 0.184 3 
0.285 0.014 0.082 3 
0.476 -0.364 0.188 3 
0.467 0.204 0.174 3 
0.467 0.192 0.174 3 
0.464 0.268 0.026 3 
0.475 -0.147 0.181 3 
0.483 -0.307 0.193 3 
0.311 0.01 0.054 3 
0.484 -0.315 0.194 3 
0.484 -0.326 0.194 3 
0.548 -0.036 0.075 3 
0.47 0.296 0.184 3 
0.469 0.292 0.184 3 
0.465 0.177 0.033 3 
0.47 0.283 0.184 3 
0.47 0.274 0.183 3 
0.472 -0.225 0.052 3 
0.47 0.264 0.183 3 
0.465 0.063 0.176 3 
0.467 0.207 0.174 3 
0.474 -0.155 0.181 3 
0.475 -0.162 0.182 3 
0.475 -0.357 0.014 3 
0.475 -0.165 0.182 3 
0.474 -0.17 0.182 3 
0.475 -0.176 0.182 3 
0.474 -0.182 0.182 3 
0.464 0.244 0.09 3 
0.475 -0.185 0.182 3 
0.465 0.054 0.074 3 
0.476 -0.195 0.183 3 
0.477 -0.207 0.184 3 
0.276 0.022 0.104 3 
0.471 0.143 0.189 3 
0.472 0.132 0.188 3 
0.464 0.062 0.114 3 
0.473 0.124 0.189 3 
0.473 0.073 0.188 3 
0.472 0.112 0.188 3 
0.468 0.284 0.174 3 
0.471 0.103 0.187 3 
0.598 -0.021 0.123 3 
0.472 0.092 0.188 3 
0.473 0.084 0.188 3 
0.46 0.062 0.182 3 
0.471 -0.176 0.133 3 
0.464 0.275 0.091 3 
0.472 -0.265 0.052 3 
0.271 0.02 0.102 3 
0.265 0.014 0.1 3 
0.465 -0.015 0.023 3 
0.264 0.009 0.099 3 
0.266 0.004 0.1 3 
0.264 0.001 0.099 3 
0.268 -0.005 0.101 3 
0.465 0.212 0.112 3 
0.275 -0.006 0.104 3 
0.476 -0.06 0.189 3 
0.473 -0.207 0.154 3 
0.475 -0.065 0.189 3 
0.47 0.234 0.191 3 
0.471 0.344 0.197 3 
0.471 0.333 0.196 3 
0.473 0.324 0.196 3 
0.471 -0.155 0.102 3 
0.471 0.311 0.194 3 
0.472 0.309 0.195 3 
0.472 0.302 0.194 3 
0.472 0.292 0.194 3 
0.471 0.282 0.193 3 
0.47 0.271 0.192 3 
0.471 0.262 0.192 3 
0.468 0.251 0.19 3 
0.469 0.242 0.19 3 
0.467 -0.126 0.012 3 
0.47 0.222 0.19 3 
0.469 -0.044 0.136 3 
0.469 0.212 0.189 3 
0.476 -0.297 0.023 3 
0.469 0.203 0.189 3 
0.469 0.194 0.189 3 
0.47 0.183 0.189 3 
0.47 0.174 0.189 3 
0.471 0.163 0.189 3 
0.471 0.152 0.189 3 
0.465 0.081 0.122 3 
0.474 -0.211 0.171 3 
0.478 -0.245 0.195 3 
0.479 -0.255 0.195 3 
0.481 -0.266 0.196 3 
0.48 -0.275 0.196 3 
0.463 0.322 0.054 3 
0.479 -0.287 0.196 3 
0.482 -0.296 0.198 3 
0.484 -0.309 0.2 3 
0.462 0.313 0.014 3 
0.484 -0.315 0.2 3 
0.471 -0.216 0.044 3 
0.485 -0.323 0.201 3 
0.484 -0.326 0.201 3 
0.465 0.192 0.063 3 
0.485 -0.334 0.202 3 
0.486 -0.339 0.202 3 
0.485 -0.345 0.202 3 
0.476 0.36 0.197 3 
0.478 -0.296 0.122 3 
0.468 0.347 0.193 3 
0.467 0.343 0.192 3 
0.469 0.334 0.192 3 
0.47 -0.146 0.093 3 
0.472 0.322 0.192 3 
0.47 0.103 0.184 3 
0.47 0.072 0.184 3 
0.474 -0.065 0.185 3 
0.477 -0.157 0.191 3 
0.475 -0.076 0.189 3 
0.47 -0.053 0.153 3 
0.466 0.313 0.134 3 
0.475 -0.085 0.189 3 
0.475 -0.096 0.189 3 
0.475 -0.107 0.189 3 
0.475 -0.116 0.189 3 
0.478 -0.356 0.052 3 
0.476 -0.125 0.19 3 
0.477 -0.137 0.191 3 
0.464 0.094 0.098 3 
0.479 -0.317 0.102 3 
0.478 -0.146 0.191 3 
0.468 0.184 0.174 3 
0.467 0.341 0.183 3 
0.477 -0.166 0.191 3 
0.468 -0.066 0.074 3 
0.477 -0.175 0.192 3 
0.477 -0.187 0.192 3 
0.478 -0.196 0.193 3 
0.479 -0.206 0.193 3 
0.473 -0.126 0.172 3 
0.479 -0.215 0.194 3 
0.479 -0.227 0.194 3 
0.479 -0.237 0.195 3 
0.478 -0.239 0.194 3 
0.467 0.292 0.163 3 
0.474 -0.276 0.084 3 
0.473 -0.175 0.164 3 
0.465 0.122 0.122 3 
0.482 -0.326 0.172 3 
0.47 -0.166 0.022 3 
0.482 -0.336 0.173 3 
0.48 -0.345 0.173 3 
0.466 0.338 0.164 3 
0.468 0.327 0.164 3 
0.464 0.334 0.123 3 
0.467 0.322 0.164 3 
0.466 0.314 0.163 3 
0.467 0.302 0.163 3 
0.472 -0.157 0.164 3 
0.465 0.262 0.063 3 
0.467 0.283 0.162 3 
0.452 0.057 0.153 3 
0.276 0.021 0.094 3 
0.275 0 0.094 3 
0.276 -0.005 0.094 3 
0.585 -0.02 0.099 3 
0.473 -0.186 0.162 3 
0.469 -0.105 0.104 3 
0.472 -0.256 0.052 3 
0.465 -0.036 0.044 3 
0.473 -0.195 0.162 3 
0.473 -0.207 0.162 3 
0.274 -0.005 0.094 3 
0.306 -0.004 0.072 3 
0.466 0.263 0.164 3 
0.465 0.274 0.153 3 
0.466 0.254 0.164 3 
0.467 0.243 0.164 3 
0.467 0.233 0.164 3 
0.466 0.224 0.163 3 
0.466 0.212 0.163 3 
0.466 0.203 0.163 3 
0.466 0.194 0.162 3 
0.466 0.183 0.162 3 
0.47 -0.116 0.123 3 
0.466 0.174 0.162 3 
0.471 -0.167 0.033 3 
0.47 -0.053 0.161 3 
0.47 -0.086 0.162 3 
0.471 -0.097 0.162 3 
0.465 0.105 0.036 3 
0.471 -0.106 0.162 3 
0.464 0.283 0.023 3 
0.472 -0.117 0.163 3 
0.472 -0.126 0.163 3 
0.473 -0.135 0.163 3 
0.479 -0.358 0.158 3 
0.472 -0.145 0.163 3 
0.481 -0.355 0.134 3 
0.466 -0.047 0.034 3 
0.467 0.154 0.153 3 
0.467 0.143 0.153 3 
0.465 0.124 0.063 3 
0.467 0.134 0.153 3 
0.467 0.123 0.153 3 
0.468 0.113 0.153 3 
0.467 0.104 0.153 3 
0.467 0.093 0.153 3 
0.476 -0.266 0.144 3 
0.467 0.082 0.152 3 
0.464 0.068 0.151 3 
0.462 0.337 0.054 3 
0.464 0.062 0.151 3 
0.467 0.163 0.153 3 
0.47 -0.056 0.153 3 
0.461 0.333 0.062 3 
0.469 -0.066 0.153 3 
0.47 -0.075 0.153 3 
0.47 -0.086 0.153 3 
0.471 -0.097 0.154 3 
0.473 -0.247 0.092 3 
0.47 -0.105 0.154 3 
0.47 -0.116 0.154 3 
0.47 -0.125 0.154 3 
0.471 -0.136 0.154 3 
0.461 0.336 0.062 3 
0.474 -0.225 0.157 3 
0.477 -0.268 0.162 3 
0.473 -0.216 0.163 3 
0.475 -0.22 0.163 3 
0.473 -0.257 0.044 3 
0.473 -0.287 0.012 3 
0.475 -0.226 0.163 3 
0.475 -0.235 0.163 3 
0.476 -0.245 0.164 3 
0.475 -0.257 0.164 3 
0.468 0.348 0.162 3 
0.465 0.065 0.154 3 
0.465 0.063 0.154 3 
0.464 0.059 0.073 3 
0.275 0.005 0.093 3 
0.466 0.266 0.164 3 
0.477 -0.277 0.163 3 
0.478 -0.288 0.163 3 
0.479 -0.295 0.164 3 
0.466 0.218 0.154 3 
0.47 -0.135 0.082 3 
0.466 0.212 0.154 3 
0.466 0.203 0.154 3 
0.466 0.194 0.154 3 
0.464 0.181 0.153 3 
0.466 0.179 0.153 3 
0.466 0.173 0.153 3 
0.464 0.214 0.109 3 
0.465 0.293 0.142 3 
0.48 -0.297 0.182 3 
0.481 -0.305 0.183 3 
0.464 0.054 0.004 3 
0.483 -0.317 0.184 3 
0.471 -0.187 0.094 3 
0.467 0.287 0.174 3 
0.467 0.274 0.174 3 
0.48 -0.307 0.174 3 
0.463 0.341 0.137 3 
0.467 0.264 0.173 3 
0.464 0.07 0.004 3 
0.467 0.252 0.173 3 
0.479 -0.286 0.181 3 
0.467 0.243 0.172 3 
0.474 -0.257 0.072 3 
0.467 0.234 0.172 3 
0.468 0.223 0.172 3 
0.275 -0.004 0.098 3 
0.473 -0.135 0.172 3 
0.473 -0.146 0.172 3 
0.473 -0.155 0.172 3 
0.474 -0.176 0.173 3 
0.475 -0.182 0.174 3 
0.475 -0.185 0.174 3 
0.467 -0.087 0.012 3 
0.475 -0.197 0.174 3 
0.469 0.072 0.172 3 
0.32 0.025 0.096 3 
0.467 0.172 0.173 3 
0.468 0.164 0.174 3 
0.468 0.144 0.173 3 
0.469 0.133 0.173 3 
0.475 -0.247 0.149 3 
0.469 0.122 0.173 3 
0.47 -0.097 0.143 3 
0.469 0.113 0.173 3 
0.469 0.102 0.173 3 
0.466 0.142 0.123 3 
0.469 0.094 0.173 3 
0.469 0.083 0.172 3 
0.483 -0.327 0.182 3 
0.467 0.063 0.172 3 
0.471 -0.056 0.173 3 
0.47 -0.067 0.173 3 
0.465 0.102 0.036 3 
0.463 0.214 0.013 3 
0.47 -0.075 0.173 3 
0.471 -0.086 0.173 3 
0.472 -0.095 0.174 3 
0.473 -0.106 0.174 3 
0.464 0.242 0.104 3 
0.473 -0.115 0.174 3 
0.474 -0.223 0.178 3 
0.465 0.215 0.12 3 
0.467 0.163 0.164 3 
0.468 -0.039 0.104 3 
0.465 0.282 0.082 3 
0.467 0.154 0.164 3 
0.467 0.143 0.164 3 
0.468 0.124 0.164 3 
0.468 0.113 0.164 3 
0.475 -0.316 0.014 3 
0.468 0.104 0.164 3 
0.467 0.093 0.164 3 
0.468 0.082 0.164 3 
0.467 0.074 0.163 3 
0.467 0.063 0.163 3 
0.464 0.102 0.082 3 
0.271 0.018 0.094 3 
0.271 0.014 0.094 3 
0.465 0.105 0.074 3 
0.271 0.004 0.094 3 
0.292 0.004 0.074 3 
0.469 -0.061 0.164 3 
0.47 -0.067 0.164 3 
0.464 0.294 0.113 3 
0.47 -0.075 0.164 3 
0.479 -0.276 0.172 3 
0.479 -0.286 0.172 3 
0.479 -0.296 0.173 3 
0.481 -0.315 0.174 3 
0.465 0.111 0.063 3 
0.484 -0.339 0.183 3 
0.484 -0.346 0.183 3 
0.466 0.346 0.174 3 
0.466 0.343 0.174 3 
0.468 0.334 0.174 3 
0.467 0.323 0.173 3 
0.468 0.314 0.173 3 
0.468 0.304 0.172 3 
0.299 -0.009 0.105 3 
0.466 -0.049 0.004 3 
0.474 -0.187 0.171 3 
0.474 -0.196 0.171 3 
0.475 -0.206 0.172 3 
0.469 -0.135 0.093 3 
0.475 -0.215 0.172 3 
0.472 -0.166 0.164 3 
0.475 -0.22 0.154 3 
0.474 -0.22 0.172 3 
0.474 -0.226 0.172 3 
0.476 -0.23 0.172 3 
0.464 0.059 0.092 3 
0.476 -0.236 0.172 3 
0.477 -0.246 0.173 3 
0.472 -0.205 0.083 3 
0.476 -0.255 0.173 3 
0.478 -0.269 0.174 3 
0.464 0.121 0.044 3 
0.464 0.202 0.043 3 
0.465 0.197 0.043 3 
0.464 0.194 0.044 3 
0.464 0.182 0.044 3 
0.464 0.174 0.044 3 
0.464 0.163 0.044 3 
0.464 0.154 0.044 3 
0.465 0.149 0.044 3 
0.465 0.144 0.044 3 
0.465 0.133 0.044 3 
0.474 -0.295 0.012 3 
0.465 0.124 0.044 3 
0.464 0.214 0.043 3 
0.462 0.112 0.044 3 
0.461 0.104 0.044 3 
0.463 0.093 0.044 3 
0.465 0.083 0.044 3 
0.464 0.08 0.044 3 
0.465 0.073 0.044 3 
0.464 0.067 0.044 3 
0.465 -0.057 0.042 3 
0.464 0.062 0.044 3 
0.46 0.053 0.044 3 
0.347 -0.001 0.049 3 
0.465 -0.073 0.044 3 
0.336 0.002 0.051 3 
0.464 -0.03 0.047 3 
0.466 -0.076 0.012 3 
0.458 -0.056 0.047 3 
0.452 -0.062 0.048 3 
0.462 0.338 0.042 3 
0.461 0.333 0.042 3 
0.463 0.312 0.043 3 
0.463 0.302 0.043 3 
0.464 0.293 0.043 3 
0.464 0.283 0.043 3 
0.465 0.278 0.043 3 
0.465 0.272 0.043 3 
0.464 0.268 0.043 3 
0.464 0.262 0.043 3 
0.467 -0.055 0.034 3 
0.464 0.223 0.024 3 
0.464 0.252 0.043 3 
0.464 0.243 0.043 3 
0.465 0.241 0.043 3 
0.465 0.232 0.043 3 
0.464 0.223 0.043 3 
0.465 0.089 0.041 3 
0.351 0.022 0.048 3 
0.345 0.006 0.048 3 
0.465 -0.047 0.042 3 
0.465 0.287 0.037 3 
0.464 0.141 0.038 3 
0.464 0.132 0.038 3 
0.458 0.042 0.039 3 
0.36 0.023 0.045 3 
0.371 0.02 0.045 3 
0.465 0.192 0.041 3 
0.374 0 0.045 3 
0.475 -0.279 0.038 3 
0.463 0.339 0.034 3 
0.462 0.334 0.034 3 
0.463 0.322 0.034 3 
0.463 0.312 0.034 3 
0.464 0.302 0.034 3 
0.464 0.293 0.034 3 
0.465 0.29 0.034 3 
0.465 0.284 0.034 3 
0.471 -0.187 0.044 3 
0.465 -0.031 0.044 3 
0.464 -0.038 0.044 3 
0.464 -0.046 0.044 3 
0.463 -0.065 0.045 3 
0.468 -0.077 0.044 3 
0.469 -0.085 0.044 3 
0.47 -0.096 0.044 3 
0.47 -0.107 0.044 3 
0.469 -0.115 0.044 3 
0.47 -0.127 0.044 3 
0.47 -0.135 0.044 3 
0.471 -0.147 0.044 3 
0.471 -0.175 0.044 3 
0.337 0.005 0.051 3 
0.471 -0.195 0.044 3 
0.471 -0.207 0.044 3 
0.472 -0.225 0.044 3 
0.472 -0.237 0.044 3 
0.473 -0.247 0.044 3 
0.472 -0.265 0.044 3 
0.476 -0.296 0.044 3 
0.476 -0.306 0.044 3 
0.478 -0.328 0.043 3 
0.479 -0.336 0.043 3 
0.479 -0.347 0.043 3 
0.478 -0.356 0.043 3 
0.335 0.03 0.054 3 
0.465 0.152 0.052 3 
0.465 0.144 0.052 3 
0.465 0.133 0.052 3 
0.471 -0.155 0.033 3 
0.339 0.039 0.054 3 
0.454 0.029 0.034 3 
0.465 0.161 0.052 3 
0.351 0.03 0.054 3 
0.315 0.013 0.055 3 
0.341 -0.016 0.054 3 
0.47 -0.094 0.052 3 
0.47 -0.097 0.052 3 
0.469 -0.107 0.052 3 
0.465 0.272 0.054 3 
0.465 0.262 0.054 3 
0.464 0.255 0.054 3 
0.465 0.253 0.054 3 
0.464 0.246 0.054 3 
0.464 0.232 0.054 3 
0.464 0.223 0.054 3 
0.464 0.214 0.054 3 
0.465 0.203 0.054 3 
0.464 0.2 0.054 3 
0.464 0.194 0.054 3 
0.464 0.182 0.054 3 
0.465 0.18 0.054 3 
0.469 -0.115 0.052 3 
0.355 0.041 0.056 3 
0.474 -0.285 0.044 3 
0.489 -0.062 0.055 3 
0.48 -0.074 0.055 3 
0.465 0.206 0.052 3 
0.464 0.174 0.052 3 
0.464 0.163 0.052 3 
0.423 0.048 0.051 3 
0.418 0.043 0.051 3 
0.332 0.022 0.053 3 
0.323 0.015 0.053 3 
0.32 0.014 0.053 3 
0.302 0.008 0.054 3 
0.329 0.004 0.053 3 
0.349 -0.009 0.053 3 
0.488 -0.036 0.049 3 
0.46 -0.035 0.05 3 
0.454 -0.037 0.05 3 
0.427 0.052 0.051 3 
0.465 0.278 0.046 3 
0.465 0.235 0.046 3 
0.465 0.232 0.046 3 
0.462 0.112 0.047 3 
0.461 0.104 0.047 3 
0.465 0.097 0.047 3 
0.468 0.092 0.047 3 
0.476 0.092 0.046 3 
0.484 0.08 0.046 3 
0.464 0.07 0.047 3 
0.465 0.064 0.047 3 
0.459 0.053 0.047 3 
0.325 0.013 0.052 3 
0.473 -0.285 0.052 3 
0.469 -0.126 0.052 3 
0.47 -0.135 0.052 3 
0.471 -0.147 0.052 3 
0.471 -0.155 0.052 3 
0.47 -0.166 0.052 3 
0.47 -0.177 0.052 3 
0.471 -0.187 0.052 3 
0.472 -0.196 0.052 3 
0.472 -0.208 0.052 3 
0.471 -0.216 0.052 3 
0.472 -0.237 0.052 3 
0.473 -0.247 0.052 3 
0.473 -0.275 0.052 3 
0.372 0.018 0.043 3 
0.475 -0.293 0.052 3 
0.476 -0.296 0.052 3 
0.476 -0.306 0.052 3 
0.477 -0.317 0.052 3 
0.478 -0.325 0.052 3 
0.479 -0.336 0.052 3 
0.464 0.124 0.049 3 
0.449 0.079 0.05 3 
0.457 0.076 0.05 3 
0.476 0.07 0.049 3 
0.463 0.043 0.012 3 
0.464 -0.007 0.018 3 
0.47 -0.146 0.022 3 
0.47 -0.155 0.022 3 
0.47 -0.175 0.022 3 
0.47 -0.186 0.022 3 
0.47 -0.195 0.022 3 
0.471 -0.207 0.022 3 
0.474 -0.356 0.02 3 
0.465 0.127 0.02 3 
0.464 0.003 0.02 3 
0.474 -0.288 0.018 3 
0.474 -0.352 0.017 3 
0.461 0.33 0.014 3 
0.463 0.324 0.014 3 
0.469 -0.138 0.022 3 
0.464 -0.028 0.018 3 
0.464 -0.036 0.018 3 
0.464 -0.049 0.018 3 
0.474 -0.295 0.015 3 
0.475 -0.312 0.014 3 
0.477 -0.328 0.014 3 
0.476 -0.337 0.014 3 
0.477 -0.345 0.014 3 
0.462 0.304 0.012 3 
0.462 0.294 0.012 3 
0.463 0.283 0.012 3 
0.463 0.264 0.013 3 
0.462 0.254 0.013 3 
0.465 0.003 0.023 3 
0.465 0.124 0.022 3 
0.464 0.113 0.023 3 
0.464 0.102 0.023 3 
0.465 0.097 0.023 3 
0.464 0.094 0.023 3 
0.464 0.083 0.023 3 
0.464 0.072 0.023 3 
0.464 0.064 0.023 3 
0.464 0.054 0.023 3 
0.463 0.043 0.023 3 
0.463 0.032 0.023 3 
0.463 0.024 0.023 3 
0.465 0.008 0.023 3 
0.462 0.233 0.013 3 
0.466 -0.007 0.023 3 
0.465 -0.025 0.023 3 
0.465 -0.036 0.023 3 
0.465 -0.047 0.023 3 
0.465 -0.055 0.023 3 
0.466 -0.066 0.023 3 
0.468 -0.077 0.023 3 
0.468 -0.085 0.023 3 
0.468 -0.096 0.023 3 
0.468 -0.107 0.023 3 
0.469 -0.115 0.023 3 
0.468 -0.126 0.023 3 
0.465 0.043 0.007 3 
0.463 0.053 0.012 3 
0.464 -0.007 0.012 3 
0.465 -0.015 0.012 3 
0.464 -0.025 0.012 3 
0.463 -0.046 0.013 3 
0.464 -0.055 0.012 3 
0.465 -0.057 0.012 3 
0.465 -0.065 0.012 3 
0.467 -0.106 0.012 3 
0.466 -0.117 0.012 3 
0.465 0.33 0.005 3 
0.465 -0.025 0.01 3 
0.465 0.046 0.007 3 
0.462 0.072 0.012 3 
0.465 -0.009 0.007 3 
0.465 -0.036 0.007 3 
0.465 -0.049 0.007 3 
0.465 0.073 0.004 3 
0.464 0.064 0.004 3 
0.465 0.043 0.004 3 
0.467 -0.015 0.004 3 
0.466 -0.025 0.004 3 
0.464 -0.039 0.004 3 
0.464 -0.047 0.004 3 
0.466 -0.055 0.004 3 
0.468 -0.066 0.004 3 
0.469 -0.115 0.004 3 
0.469 -0.186 0.014 3 
0.462 0.224 0.013 3 
0.463 0.202 0.014 3 
0.462 0.193 0.014 3 
0.462 0.184 0.014 3 
0.462 0.173 0.014 3 
0.462 0.162 0.014 3 
0.462 0.154 0.014 3 
0.464 0.129 0.014 3 
0.464 -0.055 0.015 3 
0.468 -0.145 0.014 3 
0.469 -0.157 0.014 3 
0.468 -0.165 0.014 3 
0.468 -0.176 0.014 3 
0.463 0.143 0.022 3 
0.469 -0.197 0.014 3 
0.47 -0.215 0.014 3 
0.471 -0.228 0.013 3 
0.472 -0.235 0.013 3 
0.472 -0.247 0.013 3 
0.472 -0.255 0.013 3 
0.473 -0.275 0.012 3 
0.474 -0.305 0.012 3 
0.463 0.112 0.012 3 
0.463 0.104 0.012 3 
0.463 0.094 0.012 3 
0.463 0.083 0.012 3 
0.466 -0.076 0.034 3 
0.465 0.064 0.033 3 
0.464 0.054 0.034 3 
0.46 0.042 0.034 3 
0.458 0.034 0.034 3 
0.367 0.011 0.041 3 
0.452 0.003 0.035 3 
0.457 0 0.034 3 
0.47 -0.001 0.033 3 
0.467 -0.02 0.034 3 
0.466 -0.025 0.034 3 
0.466 -0.036 0.034 3 
0.465 0.073 0.033 3 
0.468 -0.085 0.034 3 
0.468 -0.096 0.034 3 
0.469 -0.107 0.033 3 
0.47 -0.116 0.033 3 
0.464 0.121 0.014 3 
0.469 -0.126 0.033 3 
0.469 -0.135 0.033 3 
0.47 -0.146 0.033 3 
0.47 -0.175 0.033 3 
0.47 -0.186 0.033 3 
0.471 -0.195 0.033 3 
0.471 -0.207 0.033 3 
0.471 -0.216 0.033 3 
0.464 0.223 0.032 3 
0.478 -0.335 0.034 3 
0.478 -0.346 0.034 3 
0.477 -0.355 0.034 3 
0.465 0.272 0.032 3 
0.464 0.262 0.032 3 
0.464 0.253 0.032 3 
0.464 0.244 0.032 3 
0.464 0.232 0.032 3 
0.472 -0.226 0.033 3 
0.463 0.213 0.033 3 
0.464 0.194 0.033 3 
0.465 0.189 0.033 3 
0.464 0.174 0.033 3 
0.464 0.154 0.033 3 
0.464 0.143 0.033 3 
0.465 0.133 0.033 3 
0.464 0.13 0.033 3 
0.464 0.124 0.033 3 
0.465 0.11 0.033 3 
0.465 0.102 0.033 3 
0.465 0.094 0.033 3 
0.473 -0.265 0.024 3 
0.463 0.314 0.023 3 
0.463 0.301 0.023 3 
0.465 0.281 0.023 3 
0.464 0.262 0.024 3 
0.464 0.253 0.024 3 
0.464 0.244 0.024 3 
0.464 0.232 0.024 3 
0.463 0.202 0.024 3 
0.464 0.102 0.025 3 
0.464 0.088 0.025 3 
0.472 -0.22 0.024 3 
0.472 -0.226 0.024 3 
0.472 -0.256 0.024 3 
0.473 -0.355 0.011 3 
0.474 -0.275 0.024 3 
0.475 -0.283 0.024 3 
0.475 -0.286 0.024 3 
0.476 -0.306 0.023 3 
0.476 -0.316 0.023 3 
0.477 -0.328 0.023 3 
0.477 -0.338 0.023 3 
0.475 -0.357 0.023 3 
0.463 0.182 0.022 3 
0.464 0.174 0.022 3 
0.464 0.163 0.022 3 
0.464 0.014 0.023 3 
0.463 0.154 0.022 3 
0.465 0.124 0.03 3 
0.472 -0.235 0.033 3 
0.472 -0.247 0.033 3 
0.473 -0.257 0.032 3 
0.473 -0.266 0.032 3 
0.474 -0.275 0.032 3 
0.475 -0.279 0.032 3 
0.475 -0.286 0.032 3 
0.476 -0.296 0.032 3 
0.476 -0.306 0.032 3 
0.477 -0.327 0.032 3 
0.465 0.235 0.029 3 
0.462 0.024 0.029 3 
0.465 0.232 0.029 3 
0.464 0.283 0.054 3 
0.454 0.023 0.032 3 
0.458 0.013 0.032 3 
0.466 0.006 0.031 3 
0.466 -0.007 0.031 3 
0.465 0.263 0.026 3 
0.465 0.253 0.026 3 
0.464 0.083 0.028 3 
0.464 0.072 0.028 3 
0.474 -0.356 0.026 3 
0.465 0.341 0.022 3 
0.462 0.334 0.022 3 
0.462 0.324 0.023 3 
0.464 0.2 0.084 3 
0.475 -0.28 0.093 3 
0.463 0.292 0.023 3 
0.475 -0.296 0.093 3 
0.477 -0.305 0.093 3 
0.478 -0.316 0.093 3 
0.479 -0.327 0.094 3 
0.479 -0.337 0.094 3 
0.48 -0.348 0.094 3 
0.479 -0.358 0.094 3 
0.465 0.247 0.088 3 
0.464 0.313 0.085 3 
0.464 0.214 0.085 3 
0.464 0.211 0.084 3 
0.474 -0.276 0.092 3 
0.464 0.191 0.084 3 
0.465 0.186 0.084 3 
0.465 0.18 0.084 3 
0.465 0.172 0.084 3 
0.471 -0.187 0.083 3 
0.465 0.152 0.084 3 
0.465 0.144 0.084 3 
0.466 0.133 0.084 3 
0.464 0.121 0.084 3 
0.465 0.119 0.084 3 
0.465 0.114 0.084 3 
0.465 0.103 0.084 3 
0.464 0.094 0.084 3 
0.464 0.316 0.091 3 
0.469 -0.085 0.093 3 
0.469 -0.096 0.093 3 
0.469 -0.107 0.093 3 
0.469 -0.116 0.093 3 
0.469 -0.127 0.093 3 
0.464 0.194 0.024 3 
0.471 -0.155 0.094 3 
0.471 -0.167 0.094 3 
0.471 -0.175 0.094 3 
0.473 -0.197 0.094 3 
0.473 -0.205 0.094 3 
0.472 -0.216 0.094 3 
0.465 0.092 0.084 3 
0.464 -0.02 0.012 3 
0.464 0.232 0.09 3 
0.577 -0.016 0.102 3 
0.462 0.064 0.013 3 
0.579 -0.028 0.102 3 
0.582 -0.035 0.102 3 
0.471 -0.155 0.063 3 
0.472 -0.225 0.092 3 
0.473 -0.235 0.092 3 
0.473 -0.257 0.092 3 
0.462 0.311 0.054 3 
0.473 -0.266 0.092 3 
0.47 -0.166 0.083 3 
0.466 -0.047 0.082 3 
0.467 -0.055 0.082 3 
0.468 -0.066 0.082 3 
0.468 -0.077 0.082 3 
0.468 -0.085 0.082 3 
0.469 -0.107 0.082 3 
0.464 -0.017 0.015 3 
0.469 -0.116 0.082 3 
0.468 -0.126 0.082 3 
0.464 0.154 0.063 3 
0.47 -0.146 0.083 3 
0.47 -0.155 0.083 3 
0.468 -0.034 0.082 3 
0.471 -0.175 0.083 3 
0.471 -0.195 0.083 3 
0.472 -0.216 0.083 3 
0.472 -0.225 0.083 3 
0.487 0.089 0.046 3 
0.473 -0.235 0.083 3 
0.473 -0.256 0.084 3 
0.473 -0.266 0.084 3 
0.462 0.142 0.014 3 
0.474 -0.286 0.084 3 
0.475 -0.293 0.084 3 
0.475 -0.296 0.084 3 
0.464 0.313 0.082 3 
0.465 0.084 0.084 3 
0.451 -0.065 0.048 3 
0.463 0.339 0.014 3 
0.465 0.073 0.084 3 
0.466 -0.047 0.074 3 
0.464 0.07 0.084 3 
0.465 0.062 0.084 3 
0.466 0.054 0.084 3 
0.464 0.048 0.084 3 
0.319 -0.004 0.071 3 
0.578 -0.016 0.094 3 
0.466 -0.039 0.084 3 
0.462 0.338 0.082 3 
0.468 -0.077 0.093 3 
0.465 0.308 0.082 3 
0.464 0.303 0.082 3 
0.465 0.301 0.082 3 
0.465 0.291 0.082 3 
0.464 0.272 0.082 3 
0.463 0.262 0.082 3 
0.464 0.232 0.082 3 
0.464 0.223 0.082 3 
0.465 0.215 0.082 3 
0.464 0.274 0.023 3 
0.465 0.209 0.082 3 
0.48 -0.355 0.103 3 
0.464 0.105 0.098 3 
0.464 0.1 0.098 3 
0.465 0.062 0.098 3 
0.469 -0.096 0.082 3 
0.334 0.026 0.08 3 
0.337 0.025 0.08 3 
0.293 0.014 0.074 3 
0.59 -0.028 0.114 3 
0.477 -0.298 0.102 3 
0.478 -0.306 0.102 3 
0.479 -0.327 0.102 3 
0.479 -0.338 0.103 3 
0.48 -0.346 0.103 3 
0.464 0.223 0.098 3 
0.332 0.034 0.054 3 
0.465 0.064 0.044 3 
0.464 0.191 0.095 3 
0.478 -0.325 0.073 3 
0.298 0.019 0.074 3 
0.295 0.014 0.074 3 
0.295 0.002 0.074 3 
0.592 -0.021 0.111 3 
0.464 0.183 0.084 3 
0.588 -0.036 0.11 3 
0.585 -0.047 0.11 3 
0.474 -0.276 0.098 3 
0.463 0.339 0.094 3 
0.472 -0.187 0.102 3 
0.465 0.301 0.102 3 
0.465 0.292 0.102 3 
0.465 0.282 0.102 3 
0.464 0.275 0.102 3 
0.462 0.334 0.082 3 
0.465 0.236 0.101 3 
0.464 0.163 0.101 3 
0.321 0.024 0.08 3 
0.594 -0.021 0.119 3 
0.593 -0.028 0.119 3 
0.591 -0.036 0.118 3 
0.465 0.192 0.074 3 
0.469 -0.146 0.102 3 
0.463 0.332 0.094 3 
0.473 -0.197 0.103 3 
0.473 -0.205 0.103 3 
0.473 -0.217 0.103 3 
0.473 -0.226 0.103 3 
0.473 -0.235 0.103 3 
0.474 -0.245 0.103 3 
0.473 -0.257 0.103 3 
0.473 -0.266 0.104 3 
0.475 -0.277 0.104 3 
0.476 -0.288 0.104 3 
0.464 0.232 0.098 3 
0.463 0.273 0.012 3 
0.465 0.081 0.092 3 
0.465 0.144 0.092 3 
0.464 0.056 0.034 3 
0.465 0.133 0.092 3 
0.465 0.122 0.092 3 
0.465 0.114 0.092 3 
0.464 0.108 0.092 3 
0.464 0.102 0.092 3 
0.465 0.097 0.092 3 
0.464 0.092 0.092 3 
0.465 0.086 0.092 3 
0.464 0.113 0.033 3 
0.464 0.083 0.092 3 
0.465 0.152 0.093 3 
0.465 0.073 0.092 3 
0.465 0.062 0.092 3 
0.464 0.121 0.023 3 
0.465 0.054 0.092 3 
0.463 0.048 0.092 3 
0.472 0.077 0.049 3 
0.578 -0.027 0.106 3 
0.584 -0.035 0.106 3 
0.581 -0.046 0.106 3 
0.467 -0.036 0.093 3 
0.467 -0.047 0.093 3 
0.467 -0.055 0.093 3 
0.467 -0.066 0.093 3 
0.465 0.212 0.093 3 
0.465 0.331 0.094 3 
0.465 0.324 0.094 3 
0.466 0.312 0.094 3 
0.465 0.304 0.094 3 
0.465 0.292 0.094 3 
0.465 0.282 0.094 3 
0.464 0.272 0.093 3 
0.463 0.262 0.093 3 
0.464 0.254 0.093 3 
0.465 0.244 0.093 3 
0.465 0.233 0.093 3 
0.464 0.223 0.093 3 
0.465 0.221 0.093 3 
0.335 0.024 0.057 3 
0.465 0.203 0.093 3 
0.465 0.192 0.093 3 
0.48 -0.055 0.063 3 
0.464 0.188 0.093 3 
0.464 0.183 0.093 3 
0.465 0.178 0.093 3 
0.464 0.174 0.093 3 
0.463 0.061 0.047 3 
0.465 0.172 0.093 3 
0.464 0.163 0.092 3 
0.465 0.161 0.093 3 
0.467 -0.077 0.063 3 
0.464 0.102 0.063 3 
0.463 0.094 0.063 3 
0.463 0.083 0.063 3 
0.465 0.073 0.063 3 
0.448 0.053 0.063 3 
0.458 0.053 0.063 3 
0.464 0.274 0.054 3 
0.354 0.029 0.061 3 
0.468 -0.055 0.063 3 
0.468 -0.066 0.063 3 
0.464 0.163 0.033 3 
0.464 0.113 0.063 3 
0.468 -0.085 0.063 3 
0.469 -0.096 0.063 3 
0.468 -0.107 0.063 3 
0.469 -0.115 0.063 3 
0.48 -0.348 0.052 3 
0.469 -0.126 0.063 3 
0.47 -0.135 0.063 3 
0.471 -0.147 0.063 3 
0.47 -0.166 0.063 3 
0.47 -0.177 0.063 3 
0.463 0.213 0.024 3 
0.471 -0.187 0.063 3 
0.472 -0.196 0.064 3 
0.464 0.284 0.063 3 
0.464 0.18 0.065 3 
0.357 0.029 0.063 3 
0.318 0.022 0.062 3 
0.467 -0.096 0.012 3 
0.499 -0.034 0.067 3 
0.475 -0.293 0.067 3 
0.463 0.322 0.062 3 
0.463 0.312 0.062 3 
0.463 0.302 0.062 3 
0.463 0.293 0.062 3 
0.475 -0.289 0.044 3 
0.465 0.275 0.063 3 
0.465 0.253 0.063 3 
0.464 0.249 0.063 3 
0.464 0.243 0.063 3 
0.464 0.223 0.063 3 
0.465 0.221 0.063 3 
0.465 0.212 0.063 3 
0.464 0.174 0.063 3 
0.464 -0.036 0.012 3 
0.465 0.172 0.063 3 
0.465 0.144 0.063 3 
0.465 0.133 0.063 3 
0.342 -0.008 0.058 3 
0.315 -0.002 0.059 3 
0.347 -0.004 0.059 3 
0.464 0.2 0.057 3 
0.357 0.045 0.057 3 
0.334 0.033 0.057 3 
0.331 0.022 0.057 3 
0.33 -0.003 0.057 3 
0.465 0.141 0.033 3 
0.344 0.027 0.059 3 
0.325 -0.009 0.058 3 
0.47 0.074 0.049 3 
0.492 -0.071 0.058 3 
0.461 0.333 0.054 3 
0.463 0.302 0.054 3 
0.462 0.292 0.054 3 
0.477 -0.317 0.064 3 
0.351 0.013 0.044 3 
0.472 -0.205 0.064 3 
0.472 -0.216 0.064 3 
0.472 -0.225 0.064 3 
0.472 -0.237 0.064 3 
0.473 -0.247 0.064 3 
0.473 -0.256 0.064 3 
0.473 -0.266 0.064 3 
0.473 -0.275 0.064 3 
0.474 -0.286 0.064 3 
0.475 -0.293 0.064 3 
0.475 -0.296 0.064 3 
0.464 0.243 0.054 3 
0.465 0.203 0.063 3 
0.478 -0.335 0.064 3 
0.478 -0.356 0.064 3 
0.464 0.154 0.052 3 
0.464 0.214 0.06 3 
0.464 0.188 0.06 3 
0.464 0.182 0.06 3 
0.465 0.161 0.06 3 
0.464 0.124 0.06 3 
0.353 0.044 0.059 3 
0.327 0.036 0.059 3 
0.31 0.031 0.059 3 
0.318 0.026 0.059 3 
0.465 0.144 0.074 3 
0.465 0.256 0.074 3 
0.464 0.252 0.074 3 
0.465 0.244 0.074 3 
0.464 0.235 0.074 3 
0.465 0.232 0.074 3 
0.465 0.224 0.074 3 
0.464 0.22 0.074 3 
0.465 0.212 0.074 3 
0.465 0.203 0.074 3 
0.465 0.183 0.074 3 
0.465 0.172 0.074 3 
0.465 0.163 0.074 3 
0.465 0.152 0.074 3 
0.464 0.262 0.074 3 
0.465 0.133 0.074 3 
0.465 0.122 0.074 3 
0.464 0.116 0.073 3 
0.464 0.113 0.073 3 
0.464 0.102 0.073 3 
0.465 0.1 0.074 3 
0.465 0.094 0.074 3 
0.465 0.084 0.074 3 
0.464 0.073 0.074 3 
0.465 0.07 0.074 3 
0.346 -0.018 0.059 3 
0.465 0.062 0.074 3 
0.464 0.11 0.076 3 
0.477 -0.315 0.084 3 
0.465 0.256 0.079 3 
0.465 0.244 0.079 3 
0.464 0.157 0.079 3 
0.464 0.083 0.079 3 
0.568 -0.016 0.086 3 
0.571 -0.027 0.087 3 
0.571 -0.038 0.087 3 
0.479 -0.336 0.082 3 
0.48 -0.348 0.082 3 
0.478 -0.356 0.082 3 
0.464 0.284 0.077 3 
0.464 0.154 0.076 3 
0.558 -0.019 0.079 3 
0.343 -0.007 0.054 3 
0.573 -0.016 0.083 3 
0.57 -0.027 0.083 3 
0.566 -0.037 0.083 3 
0.462 0.338 0.074 3 
0.462 0.334 0.074 3 
0.464 0.323 0.074 3 
0.463 0.312 0.074 3 
0.464 0.303 0.074 3 
0.464 0.294 0.074 3 
0.465 0.282 0.074 3 
0.464 0.272 0.074 3 
0.473 -0.275 0.072 3 
0.55 -0.026 0.075 3 
0.471 -0.187 0.072 3 
0.472 -0.196 0.072 3 
0.472 -0.205 0.072 3 
0.465 0.083 0.033 3 
0.472 -0.216 0.072 3 
0.465 0.124 0.052 3 
0.472 -0.225 0.072 3 
0.473 -0.235 0.072 3 
0.474 -0.248 0.072 3 
0.473 -0.266 0.072 3 
0.304 0.004 0.064 3 
0.474 -0.286 0.072 3 
0.475 -0.296 0.072 3 
0.476 -0.307 0.073 3 
0.477 -0.315 0.073 3 
0.479 -0.336 0.073 3 
0.48 -0.348 0.073 3 
0.478 -0.356 0.073 3 
0.464 0.232 0.068 3 
0.305 0.014 0.062 3 
0.305 -0.003 0.062 3 
0.47 -0.166 0.074 3 
0.559 -0.026 0.079 3 
0.557 -0.037 0.079 3 
0.467 -0.033 0.074 3 
0.467 -0.036 0.074 3 
0.467 -0.055 0.074 3 
0.469 -0.085 0.074 3 
0.469 -0.096 0.074 3 
0.469 -0.107 0.074 3 
0.469 -0.116 0.074 3 
0.47 -0.127 0.074 3 
0.47 -0.135 0.074 3 
0.471 -0.147 0.074 3 
0.471 -0.155 0.074 3 
0.465 0.314 0.102 3 
0.464 0.281 0.071 3 
0.465 0.265 0.071 3 
0.465 0.247 0.071 3 
0.456 0.044 0.045 3 
0.464 0.214 0.071 3 
0.464 0.168 0.071 3 
0.464 0.154 0.071 3 
0.464 0.094 0.071 3 
0.464 0.054 0.071 3 
0.314 0.021 0.064 3 
0.304 0.014 0.064 3 
