# .PCD v0.7 - Point Cloud Data file
FIELDS x y z intensity
SIZE 4 4 4 4
TYPE F F F F
COUNT 1 1 1 1
WIDTH 2373
HEIGHT 1
VIEWPOINT 0 0 0 1 0 0 0
POINTS 2373
DATA ascii
0.324 0.004 0.009 0 
0.383 -0.246 -0.029 1 
0.378 -0.206 -0.025 1 
0.374 -0.186 -0.023 1 
0.371 -0.175 -0.022 1 
0.372 -0.145 -0.021 1 
0.364 -0.056 -0.016 1 
0.364 -0.038 -0.016 1 
0.363 -0.026 -0.016 1 
0.36 -0.016 -0.015 1 
0.354 -0.006 -0.013 1 
0.337 0.017 -0.006 1 
0.354 0.029 -0.013 1 
0.358 0.05 -0.014 1 
0.36 0.063 -0.015 1 
0.353 0.133 -0.015 1 
0.351 0.164 -0.015 1 
0.352 0.173 -0.016 1 
0.352 0.183 -0.017 1 
0.374 -0.165 -0.02 1 
0.374 -0.136 -0.019 1 
0.374 -0.126 -0.019 1 
0.372 -0.115 -0.018 1 
0.374 -0.105 -0.019 1 
0.37 -0.095 -0.017 1 
0.37 -0.086 -0.017 1 
0.374 -0.076 -0.018 1 
0.369 -0.035 -0.016 1 
0.353 -0.004 -0.01 1 
0.363 0.039 -0.014 1 
0.364 0.046 -0.015 1 
0.364 0.072 -0.015 1 
0.363 0.084 -0.015 1 
0.364 0.092 -0.016 1 
0.364 0.103 -0.016 1 
0.361 0.114 -0.015 1 
0.362 0.122 -0.016 1 
0.358 0.133 -0.015 1 
0.357 0.134 -0.014 1 
0.351 0.214 -0.016 1 
0.392 -0.259 -0.028 1 
0.386 -0.224 -0.025 1 
0.382 -0.205 -0.023 1 
0.382 -0.196 -0.022 1 
0.382 -0.165 -0.021 1 
0.384 -0.162 -0.022 1 
0.38 -0.116 -0.019 1 
0.379 -0.105 -0.019 1 
0.374 -0.055 -0.016 1 
0.374 -0.053 -0.016 1 
0.374 -0.025 -0.016 1 
0.361 -0.004 -0.012 1 
0.352 0.02 -0.008 1 
0.364 0.028 -0.013 1 
0.37 0.104 -0.016 1 
0.364 0.145 -0.015 1 
0.361 0.194 -0.017 1 
0.392 -0.228 -0.025 1 
0.392 -0.225 -0.024 1 
0.384 -0.096 -0.018 1 
0.383 -0.087 -0.018 1 
0.383 -0.075 -0.018 1 
0.379 -0.066 -0.016 1 
0.381 -0.055 -0.017 1 
0.382 -0.045 -0.017 1 
0.382 -0.036 -0.017 1 
0.34 0.017 -0.003 1 
0.364 0.021 -0.011 1 
0.374 0.028 -0.014 1 
0.374 0.049 -0.015 1 
0.374 0.083 -0.015 1 
0.374 0.094 -0.015 1 
0.373 0.123 -0.016 1 
0.373 0.133 -0.016 1 
0.373 0.164 -0.017 1 
0.363 0.222 -0.017 1 
0.363 0.227 -0.017 1 
0.404 -0.264 -0.028 1 
0.394 -0.215 -0.022 1 
0.39 -0.175 -0.02 1 
0.394 -0.167 -0.021 1 
0.393 -0.155 -0.02 1 
0.391 -0.126 -0.019 1 
0.393 -0.116 -0.02 1 
0.393 -0.108 -0.019 1 
0.389 -0.075 -0.018 1 
0.383 -0.005 -0.015 1 
0.325 -0.001 0.003 1 
0.324 0.004 0.003 1 
0.324 0.013 0.003 1 
0.325 0.014 0.003 1 
0.383 0.033 -0.016 1 
0.381 0.043 -0.015 1 
0.382 0.053 -0.016 1 
0.382 0.074 -0.016 1 
0.383 0.103 -0.017 1 
0.384 0.113 -0.017 1 
0.378 0.124 -0.015 1 
0.374 0.144 -0.015 1 
0.375 0.153 -0.015 1 
0.377 0.163 -0.016 1 
0.372 0.183 -0.016 1 
0.372 0.193 -0.016 1 
0.37 0.214 -0.017 1 
0.367 0.222 -0.016 1 
0.383 -0.216 -0.023 1 
0.403 -0.231 -0.024 1 
0.407 -0.232 -0.025 1 
0.381 -0.186 -0.022 1 
0.394 -0.151 -0.019 1 
0.394 -0.066 -0.017 1 
0.394 -0.056 -0.017 1 
0.393 -0.046 -0.017 1 
0.394 -0.042 -0.017 1 
0.392 -0.025 -0.016 1 
0.394 -0.007 -0.017 1 
0.334 0.017 0.002 1 
0.388 0.024 -0.015 1 
0.39 0.052 -0.016 1 
0.388 0.064 -0.016 1 
0.388 0.074 -0.016 1 
0.38 0.144 -0.015 1 
0.378 0.153 -0.014 1 
0.378 0.155 -0.014 1 
0.372 0.232 -0.016 1 
0.372 0.237 -0.016 1 
0.412 -0.287 -0.027 1 
0.412 -0.278 -0.026 1 
0.413 -0.265 -0.026 1 
0.413 -0.257 -0.025 1 
0.412 -0.245 -0.025 1 
0.404 -0.217 -0.021 1 
0.404 -0.205 -0.021 1 
0.404 -0.196 -0.021 1 
0.404 -0.147 -0.019 1 
0.403 -0.137 -0.019 1 
0.402 -0.125 -0.018 1 
0.404 -0.12 -0.019 1 
0.401 -0.105 -0.018 1 
0.403 -0.093 -0.018 1 
0.402 -0.075 -0.018 1 
0.401 -0.066 -0.017 1 
0.401 -0.056 -0.017 1 
0.399 -0.045 -0.016 1 
0.403 -0.035 -0.018 1 
0.4 -0.016 -0.017 1 
0.402 -0.014 -0.018 1 
0.394 0.033 -0.015 1 
0.394 0.08 -0.016 1 
0.394 0.101 -0.016 1 
0.39 0.133 -0.016 1 
0.386 0.154 -0.015 1 
0.382 0.203 -0.016 1 
0.379 0.24 -0.017 1 
0.381 0.245 -0.017 1 
0.416 -0.268 -0.024 1 
0.417 -0.263 -0.025 1 
0.413 -0.24 -0.022 1 
0.388 -0.206 -0.023 1 
0.425 -0.249 -0.026 1 
0.407 -0.227 -0.02 1 
0.364 -0.006 -0.013 1 
0.409 -0.219 -0.02 1 
0.403 -0.188 -0.018 1 
0.393 -0.254 -0.029 1 
0.412 -0.115 -0.019 1 
0.409 -0.106 -0.018 1 
0.411 -0.096 -0.018 1 
0.413 -0.085 -0.019 1 
0.409 -0.075 -0.018 1 
0.401 0.034 -0.015 1 
0.401 0.083 -0.016 1 
0.401 0.094 -0.016 1 
0.4 0.104 -0.016 1 
0.394 0.144 -0.015 1 
0.394 0.16 -0.015 1 
0.39 0.184 -0.015 1 
0.388 0.194 -0.015 1 
0.388 0.222 -0.016 1 
0.426 -0.303 -0.027 1 
0.423 -0.296 -0.025 1 
0.421 -0.288 -0.024 1 
0.423 -0.287 -0.025 1 
0.427 -0.277 -0.025 1 
0.425 -0.269 -0.025 1 
0.422 -0.255 -0.023 1 
0.421 -0.237 -0.022 1 
0.41 -0.195 -0.018 1 
0.413 -0.166 -0.018 1 
0.352 0.193 -0.017 1 
0.414 -0.141 -0.018 1 
0.414 -0.068 -0.017 1 
0.412 -0.045 -0.016 1 
0.408 0.044 -0.015 1 
0.404 0.112 -0.015 1 
0.403 0.123 -0.015 1 
0.401 0.133 -0.015 1 
0.4 0.139 -0.014 1 
0.352 0.202 -0.016 1 
0.401 0.144 -0.015 1 
0.401 0.153 -0.015 1 
0.399 0.182 -0.016 1 
0.394 0.204 -0.015 1 
0.394 0.238 -0.016 1 
0.394 0.254 -0.017 1 
0.392 0.259 -0.017 1 
0.431 -0.309 -0.026 1 
0.422 -0.225 -0.02 1 
0.422 -0.217 -0.019 1 
0.419 -0.2 -0.018 1 
0.418 -0.177 -0.017 1 
0.394 0.206 -0.015 1 
0.423 -0.127 -0.018 1 
0.422 -0.117 -0.017 1 
0.419 -0.106 -0.016 1 
0.421 -0.095 -0.017 1 
0.421 -0.086 -0.017 1 
0.422 -0.065 -0.017 1 
0.423 -0.026 -0.017 1 
0.381 -0.026 -0.016 1 
0.419 -0.015 -0.016 1 
0.418 -0.01 -0.016 1 
0.413 0.073 -0.015 1 
0.414 0.094 -0.016 1 
0.412 0.102 -0.015 1 
0.412 0.114 -0.015 1 
0.41 0.124 -0.015 1 
0.406 0.134 -0.014 1 
0.407 0.152 -0.015 1 
0.406 0.159 -0.015 1 
0.404 0.164 -0.014 1 
0.404 0.17 -0.015 1 
0.402 0.194 -0.015 1 
0.402 0.196 -0.015 1 
0.401 0.217 -0.015 1 
0.404 0.23 -0.017 1 
0.399 0.243 -0.016 1 
0.434 -0.309 -0.024 1 
0.432 -0.285 -0.022 1 
0.432 -0.276 -0.022 1 
0.433 -0.257 -0.021 1 
0.433 -0.248 -0.021 1 
0.43 -0.235 -0.02 1 
0.426 -0.206 -0.018 1 
0.428 -0.197 -0.018 1 
0.424 -0.156 -0.016 1 
0.428 -0.067 -0.016 1 
0.423 0.032 -0.015 1 
0.424 0.044 -0.016 1 
0.422 0.053 -0.015 1 
0.422 0.062 -0.015 1 
0.419 0.073 -0.014 1 
0.419 0.082 -0.015 1 
0.42 0.094 -0.015 1 
0.419 0.103 -0.015 1 
0.418 0.107 -0.015 1 
0.417 0.128 -0.015 1 
0.41 0.143 -0.013 1 
0.411 0.153 -0.014 1 
0.411 0.164 -0.014 1 
0.413 0.183 -0.015 1 
0.41 0.201 -0.015 1 
0.404 0.213 -0.014 1 
0.404 -0.242 -0.024 1 
0.407 0.22 -0.015 1 
0.403 0.263 -0.015 1 
0.403 0.272 -0.016 1 
0.436 -0.295 -0.021 1 
0.434 -0.227 -0.018 1 
0.434 -0.188 -0.017 1 
0.429 -0.147 -0.015 1 
0.43 -0.125 -0.015 1 
0.432 -0.107 -0.015 1 
0.434 -0.085 -0.016 1 
0.434 -0.076 -0.016 1 
0.433 -0.056 -0.015 1 
0.433 -0.049 -0.015 1 
0.364 -0.052 -0.016 1 
0.433 -0.025 -0.015 1 
0.432 -0.006 -0.015 1 
0.429 0.033 -0.015 1 
0.43 0.043 -0.015 1 
0.429 0.047 -0.015 1 
0.428 0.054 -0.014 1 
0.427 0.097 -0.015 1 
0.424 0.103 -0.014 1 
0.422 0.123 -0.014 1 
0.403 0.064 -0.016 1 
0.411 0.211 -0.013 1 
0.414 0.232 -0.015 1 
0.415 0.241 -0.015 1 
0.414 0.242 -0.015 1 
0.41 0.26 -0.015 1 
0.409 0.273 -0.015 1 
0.443 -0.275 -0.019 1 
0.435 -0.158 -0.015 1 
0.437 -0.146 -0.015 1 
0.441 -0.135 -0.016 1 
0.439 -0.065 -0.015 1 
0.44 -0.055 -0.015 1 
0.442 -0.046 -0.015 1 
0.478 -0.01 -0.025 1 
0.328 0.016 0.014 1 
0.434 0.036 -0.013 1 
0.434 0.063 -0.014 1 
0.431 0.074 -0.013 1 
0.431 0.084 -0.013 1 
0.409 -0.055 -0.017 1 
0.431 0.093 -0.013 1 
0.428 0.124 -0.013 1 
0.422 0.154 -0.012 1 
0.421 0.164 -0.012 1 
0.421 0.184 -0.013 1 
0.423 0.193 -0.013 1 
0.421 0.204 -0.013 1 
0.415 0.282 -0.015 1 
0.414 0.284 -0.014 1 
0.451 -0.315 -0.02 1 
0.442 -0.256 -0.016 1 
0.444 -0.244 -0.016 1 
0.444 -0.224 -0.015 1 
0.42 -0.076 -0.016 1 
0.445 -0.204 -0.015 1 
0.442 -0.188 -0.014 1 
0.443 -0.186 -0.015 1 
0.443 -0.176 -0.014 1 
0.444 -0.174 -0.015 1 
0.442 -0.167 -0.014 1 
0.44 -0.155 -0.013 1 
0.444 -0.145 -0.014 1 
0.444 -0.127 -0.014 1 
0.442 -0.116 -0.013 1 
0.444 -0.096 -0.014 1 
0.418 0.084 -0.014 1 
0.443 -0.086 -0.013 1 
0.444 -0.076 -0.013 1 
0.442 -0.065 -0.013 1 
0.444 -0.058 -0.013 1 
0.441 -0.014 -0.013 1 
0.44 0.064 -0.013 1 
0.432 0.143 -0.012 1 
0.429 0.154 -0.011 1 
0.426 0.172 -0.011 1 
0.423 0.214 -0.012 1 
0.422 0.223 -0.012 1 
0.422 0.234 -0.012 1 
0.422 0.242 -0.012 1 
0.422 0.253 -0.013 1 
0.423 0.265 -0.013 1 
0.424 0.283 -0.014 1 
0.454 -0.335 -0.019 1 
0.454 -0.298 -0.017 1 
0.45 -0.288 -0.016 1 
0.444 -0.255 -0.014 1 
0.444 -0.252 -0.014 1 
0.45 -0.238 -0.015 1 
0.45 -0.232 -0.014 1 
0.453 -0.226 -0.015 1 
0.452 -0.206 -0.015 1 
0.451 -0.197 -0.014 1 
0.45 -0.185 -0.014 1 
0.451 -0.156 -0.013 1 
0.454 -0.147 -0.014 1 
0.452 -0.117 -0.013 1 
0.451 -0.106 -0.013 1 
0.449 -0.095 -0.012 1 
0.451 -0.086 -0.013 1 
0.451 -0.065 -0.013 1 
0.453 -0.035 -0.013 1 
0.449 -0.014 -0.012 1 
0.439 0.032 -0.01 1 
0.442 0.035 -0.011 1 
0.444 0.07 -0.011 1 
0.444 0.083 -0.012 1 
0.441 0.104 -0.011 1 
0.44 0.114 -0.011 1 
0.441 0.132 -0.011 1 
0.433 0.18 -0.011 1 
0.433 0.193 -0.011 1 
0.428 0.234 -0.011 1 
0.427 0.252 -0.011 1 
0.424 0.292 -0.012 1 
0.424 0.295 -0.012 1 
0.462 -0.307 -0.017 1 
0.451 -0.277 -0.013 1 
0.42 0.134 -0.013 1 
0.451 -0.265 -0.013 1 
0.45 -0.255 -0.012 1 
0.452 -0.245 -0.013 1 
0.454 -0.235 -0.013 1 
0.454 -0.205 -0.012 1 
0.48 -0.016 -0.017 1 
0.448 0.033 -0.01 1 
0.452 0.064 -0.011 1 
0.45 0.074 -0.01 1 
0.449 0.094 -0.01 1 
0.444 0.121 -0.009 1 
0.453 0.044 -0.011 1 
0.444 0.144 -0.01 1 
0.441 0.164 -0.01 1 
0.44 0.174 -0.01 1 
0.435 0.202 -0.009 1 
0.433 0.203 -0.009 1 
0.433 0.222 -0.009 1 
0.434 0.273 -0.011 1 
0.434 0.282 -0.011 1 
0.465 -0.347 -0.016 1 
0.464 -0.339 -0.015 1 
0.434 0.114 -0.012 1 
0.464 -0.325 -0.015 1 
0.377 -0.198 -0.025 1 
0.464 -0.318 -0.015 1 
0.382 0.182 -0.015 1 
0.464 -0.315 -0.014 1 
0.464 -0.296 -0.014 1 
0.462 -0.257 -0.012 1 
0.463 -0.236 -0.012 1 
0.46 -0.215 -0.011 1 
0.462 -0.196 -0.011 1 
0.46 -0.175 -0.011 1 
0.463 -0.157 -0.011 1 
0.463 -0.116 -0.011 1 
0.464 -0.095 -0.011 1 
0.463 -0.076 -0.01 1 
0.384 -0.24 -0.029 1 
0.463 -0.057 -0.01 1 
0.463 -0.023 -0.01 1 
0.453 0.104 -0.009 1 
0.451 0.113 -0.008 1 
0.451 0.134 -0.009 1 
0.414 0.194 -0.016 1 
0.444 0.184 -0.008 1 
0.443 0.213 -0.009 1 
0.44 0.244 -0.009 1 
0.432 0.304 -0.009 1 
0.464 -0.036 -0.008 1 
0.462 0.053 -0.008 1 
0.453 0.154 -0.007 1 
0.444 0.274 -0.008 1 
0.444 0.283 -0.008 1 
0.442 0.293 -0.008 1 
0.473 -0.338 -0.011 1 
0.427 0.133 -0.013 1 
0.439 0.263 -0.009 1 
0.472 -0.327 -0.011 1 
0.474 -0.315 -0.011 1 
0.454 -0.045 -0.013 1 
0.474 -0.309 -0.01 1 
0.471 -0.237 -0.008 1 
0.47 -0.116 -0.007 1 
0.471 -0.105 -0.007 1 
0.47 -0.086 -0.006 1 
0.47 -0.067 -0.006 1 
0.47 -0.056 -0.006 1 
0.468 -0.036 -0.006 1 
0.485 -0.01 -0.01 1 
0.377 0.004 0.012 1 
0.375 0.011 0.013 1 
0.367 -0.008 -0.014 1 
0.373 0.013 0.013 1 
0.464 0.035 -0.005 1 
0.453 0.054 -0.011 1 
0.465 0.043 -0.006 1 
0.465 0.056 -0.006 1 
0.464 0.064 -0.006 1 
0.368 0.024 -0.012 1 
0.463 0.072 -0.005 1 
0.462 0.093 -0.005 1 
0.424 -0.146 -0.016 1 
0.461 0.112 -0.005 1 
0.461 0.123 -0.005 1 
0.456 0.173 -0.005 1 
0.439 -0.026 -0.015 1 
0.455 0.18 -0.005 1 
0.394 0.233 -0.016 1 
0.453 0.184 -0.005 1 
0.453 0.193 -0.005 1 
0.454 0.196 -0.005 1 
0.455 0.202 -0.006 1 
0.455 0.211 -0.006 1 
0.454 0.213 -0.006 1 
0.452 0.223 -0.006 1 
0.451 0.234 -0.006 1 
0.452 0.243 -0.006 1 
0.449 0.252 -0.006 1 
0.449 0.264 -0.006 1 
0.445 0.296 -0.006 1 
0.443 0.303 -0.006 1 
0.414 -0.037 -0.017 1 
0.441 0.314 -0.006 1 
0.474 -0.35 -0.009 1 
0.461 0.134 -0.006 1 
0.474 -0.286 -0.007 1 
0.474 -0.276 -0.007 1 
0.475 -0.268 -0.007 1 
0.414 -0.177 -0.019 1 
0.475 -0.258 -0.007 1 
0.474 -0.251 -0.006 1 
0.475 -0.246 -0.006 1 
0.475 -0.237 -0.006 1 
0.473 -0.227 -0.006 1 
0.474 -0.216 -0.006 1 
0.472 -0.197 -0.005 1 
0.473 -0.177 -0.005 1 
0.472 -0.145 -0.005 1 
0.412 -0.192 -0.016 1 
0.479 -0.007 -0.006 1 
0.407 -0.001 0.008 1 
0.395 0.008 0.01 1 
0.429 -0.036 -0.016 1 
0.389 0.014 0.012 1 
0.464 0.064 -0.003 1 
0.454 0.236 -0.004 1 
0.454 0.253 -0.004 1 
0.452 0.258 -0.004 1 
0.455 0.272 -0.005 1 
0.454 0.274 -0.005 1 
0.454 0.284 -0.005 1 
0.452 0.288 -0.005 1 
0.446 0.319 -0.005 1 
0.478 -0.358 -0.007 1 
0.48 -0.346 -0.007 1 
0.48 -0.325 -0.006 1 
0.479 -0.317 -0.006 1 
0.477 -0.305 -0.005 1 
0.478 -0.296 -0.005 1 
0.477 -0.288 -0.005 1 
0.474 -0.207 -0.003 1 
0.474 -0.195 -0.003 1 
0.474 -0.186 -0.003 1 
0.474 -0.177 -0.002 1 
0.474 -0.166 -0.002 1 
0.464 0.03 0 1 
0.453 0.301 -0.002 1 
0.454 0.312 -0.003 1 
0.476 -0.147 0 1 
0.475 -0.135 0 1 
0.465 0.014 0.002 1 
0.465 0.024 0.002 1 
0.466 0.122 0.001 1 
0.465 0.146 0.001 1 
0.453 0.324 0 1 
0.454 0.328 -0.001 1 
0.474 -0.157 0.002 1 
0.474 -0.146 0.002 1 
0.423 0.114 -0.014 1 
0.474 -0.137 0.002 1 
0.472 -0.117 0.003 1 
0.408 -0.126 -0.018 1 
0.466 -0.007 0.004 1 
0.465 0 0.004 1 
0.464 0.014 0.004 1 
0.464 0.024 0.004 1 
0.465 0.032 0.004 1 
0.465 0.073 0.004 1 
0.464 0.08 0.004 1 
0.465 0.083 0.004 1 
0.465 0.089 0.004 1 
0.464 0.094 0.004 1 
0.463 0.112 0.004 1 
0.464 0.124 0.004 1 
0.465 0.132 0.003 1 
0.465 0.135 0.003 1 
0.462 0.154 0.003 1 
0.463 0.174 0.003 1 
0.462 0.184 0.003 1 
0.46 0.194 0.003 1 
0.461 0.204 0.003 1 
0.46 0.223 0.003 1 
0.461 0.233 0.002 1 
0.463 0.252 0.002 1 
0.461 0.272 0.002 1 
0.481 -0.315 0.002 1 
0.481 -0.305 0.002 1 
0.479 -0.287 0.003 1 
0.478 -0.276 0.003 1 
0.468 -0.047 -0.006 1 
0.46 0.283 0.004 1 
0.46 0.292 0.004 1 
0.459 0.304 0.004 1 
0.458 0.313 0.004 1 
0.459 0.324 0.003 1 
0.481 -0.332 0.004 1 
0.441 -0.128 -0.016 1 
0.469 -0.026 -0.006 1 
0.465 0.054 -0.006 1 
0.431 0.294 -0.011 1 
0.404 -0.16 -0.02 1 
0.464 -0.033 -0.008 1 
0.461 -0.046 -0.01 1 
0.463 -0.065 -0.01 1 
0.371 0.018 0.013 1 
0.414 0.204 -0.014 1 
0.38 -0.146 -0.02 1 
0.463 -0.086 -0.01 1 
0.449 -0.169 -0.013 1 
0.464 -0.125 -0.011 1 
0.393 -0.095 -0.017 1 
0.475 -0.129 0 1 
0.394 0.035 -0.015 1 
0.464 -0.147 -0.011 1 
0.465 0.097 0.004 1 
0.461 -0.167 -0.011 1 
0.463 -0.188 -0.011 1 
0.463 -0.225 -0.012 1 
0.462 -0.245 -0.012 1 
0.463 -0.291 -0.013 1 
0.438 0.254 -0.009 1 
0.43 -0.135 -0.015 1 
0.374 0.114 -0.016 1 
0.427 -0.217 -0.019 1 
0.393 0.173 -0.016 1 
0.43 0.103 -0.013 1 
0.443 -0.269 -0.016 1 
0.444 0.093 -0.012 1 
0.444 -0.317 -0.021 1 
0.45 0.144 -0.009 1 
0.403 0.204 -0.013 1 
0.458 -0.299 -0.015 1 
0.452 -0.136 -0.013 1 
0.442 -0.245 -0.015 1 
0.473 -0.125 0.003 1 
0.473 -0.01 -0.026 1 
0.459 0.143 -0.005 1 
0.391 -0.015 -0.016 1 
0.453 -0.215 -0.015 1 
0.452 -0.017 -0.013 1 
0.387 0.018 0.012 1 
0.462 0.242 0.002 1 
0.461 -0.207 -0.011 1 
0.372 0.073 -0.016 1 
0.465 -0.313 -0.015 1 
0.442 0.153 -0.01 1 
0.443 -0.184 -0.015 1 
0.477 -0.279 -0.005 1 
0.364 0.143 -0.015 1 
0.455 0.282 -0.005 1 
0.388 -0.196 -0.022 1 
0.414 0.063 -0.015 1 
0.391 -0.137 -0.019 1 
0.372 -0.066 -0.017 1 
0.358 0.201 -0.016 1 
0.44 0.054 -0.013 1 
0.45 -0.276 -0.016 1 
0.44 -0.206 -0.017 1 
0.423 -0.036 -0.017 1 
0.444 -0.198 -0.015 1 
0.379 0.093 -0.015 1 
0.408 0.277 -0.015 1 
0.457 0.153 -0.005 1 
0.4 0.212 -0.015 1 
0.38 -0.126 -0.019 1 
0.458 0.333 0.003 1 
0.427 0.094 -0.015 1 
0.374 0.202 -0.017 1 
0.399 0.163 -0.015 1 
0.373 0.149 -0.015 1 
0.382 0.231 -0.017 1 
0.402 -0.246 -0.029 1 
0.43 -0.155 -0.016 1 
0.382 -0.016 -0.015 1 
0.392 0.124 -0.016 1 
0.464 0.003 0.004 1 
0.475 -0.166 0.002 1 
0.413 0.223 -0.014 1 
0.432 -0.166 -0.016 1 
0.419 -0.252 -0.025 1 
0.412 0.251 -0.015 1 
0.431 -0.266 -0.021 1 
0.45 0.082 -0.01 1 
0.435 -0.088 -0.016 1 
0.424 -0.251 -0.024 1 
0.414 -0.146 -0.018 1 
0.403 -0.167 -0.02 1 
0.428 0.273 -0.015 1 
0.452 -0.125 -0.013 1 
0.419 -0.165 -0.017 1 
0.472 -0.297 -0.007 1 
0.354 0.14 -0.015 1 
0.382 0.193 -0.015 1 
0.419 -0.046 -0.016 1 
0.414 -0.017 -0.017 1 
0.372 0.063 -0.016 1 
0.479 -0.268 0.003 1 
0.439 -0.075 -0.015 1 
0.473 -0.128 -0.005 1 
0.429 0.164 -0.012 1 
0.364 0.043 -0.015 1 
0.42 0.173 -0.012 1 
0.363 0.164 -0.017 1 
0.414 0.169 -0.013 1 
0.466 0.114 0.001 1 
0.472 -0.205 -0.005 1 
0.417 -0.266 -0.025 1 
0.39 0.114 -0.017 1 
0.463 0.104 0.004 1 
0.475 -0.16 0.002 1 
0.424 -0.144 -0.016 1 
0.409 0.033 -0.016 1 
0.391 -0.237 -0.027 1 
0.364 0.174 -0.017 1 
0.459 -0.266 -0.012 1 
0.404 0.049 -0.016 1 
0.483 -0.01 -0.015 1 
0.479 -0.297 0.003 1 
0.451 -0.027 -0.013 1 
0.447 -0.136 -0.015 1 
0.402 0.072 -0.016 1 
0.423 0.262 -0.013 1 
0.424 0.143 -0.012 1 
0.443 -0.29 -0.02 1 
0.434 -0.296 -0.023 1 
0.403 -0.176 -0.02 1 
0.413 0.082 -0.015 1 
0.45 -0.285 -0.013 1 
0.403 0.043 -0.016 1 
0.434 -0.175 -0.017 1 
0.444 -0.016 -0.013 1 
0.418 0.124 -0.015 1 
0.463 -0.105 -0.01 1 
0.478 -0.015 -0.005 1 
0.384 -0.175 -0.02 1 
0.462 0.263 0.002 1 
0.472 -0.156 -0.005 1 
0.384 -0.225 -0.026 1 
0.402 -0.095 -0.018 1 
0.451 -0.075 -0.013 1 
0.407 -0.24 -0.025 1 
0.414 -0.155 -0.018 1 
0.433 -0.016 -0.015 1 
0.407 0.174 -0.016 1 
0.384 0.134 -0.016 1 
0.462 0.162 0.003 1 
0.403 -0.265 -0.028 1 
0.433 0.263 -0.01 1 
0.452 -0.055 -0.013 1 
0.418 -0.187 -0.018 1 
0.45 -0.175 -0.013 1 
0.363 -0.015 -0.014 1 
0.414 -0.206 -0.019 1 
0.438 -0.121 -0.015 1 
0.433 0.034 -0.013 1 
0.362 0.184 -0.016 1 
0.402 0.166 -0.014 1 
0.442 -0.305 -0.023 1 
0.463 0.134 -0.003 1 
0.382 -0.215 -0.025 1 
0.48 -0.339 -0.007 1 
0.372 -0.155 -0.021 1 
0.383 0.222 -0.017 1 
0.472 -0.185 -0.005 1 
0.372 0.174 -0.015 1 
0.37 0.044 -0.015 1 
0.449 0.294 -0.004 1 
0.394 0.093 -0.016 1 
0.464 0.143 0.003 1 
0.38 0.083 -0.015 1 
0.444 0.192 -0.008 1 
0.418 0.197 -0.015 1 
0.474 -0.27 -0.007 1 
0.402 0.254 -0.015 1 
0.473 -0.137 -0.005 1 
0.357 0.14 -0.014 1 
0.441 -0.036 -0.015 1 
0.391 -0.185 -0.021 1 
0.424 -0.282 -0.025 1 
0.471 -0.258 -0.009 1 
0.394 -0.085 -0.019 1 
0.462 0.083 -0.005 1 
0.427 0.281 -0.015 1 
0.429 0.213 -0.008 1 
0.421 0.071 -0.015 1 
0.383 0.213 -0.016 1 
0.441 0.223 -0.008 1 
0.381 0.064 -0.015 1 
0.441 -0.225 -0.017 1 
0.414 0.227 -0.014 1 
0.464 0.032 -0.005 1 
0.473 -0.165 -0.005 1 
0.452 0.173 -0.007 1 
0.402 -0.026 -0.017 1 
0.379 0.173 -0.016 1 
0.456 0.164 -0.005 1 
0.46 -0.276 -0.012 1 
0.409 -0.025 -0.017 1 
0.362 0.214 -0.016 1 
0.421 -0.056 -0.017 1 
0.399 0.004 0.01 1 
0.444 -0.106 -0.014 1 
0.461 0.212 0.003 1 
0.434 0.242 -0.01 1 
0.471 -0.097 -0.007 1 
0.45 0.123 -0.008 1 
0.47 -0.075 -0.006 1 
0.454 -0.328 -0.018 1 
0.466 -0.338 -0.016 1 
0.441 0.234 -0.009 1 
0.434 -0.095 -0.016 1 
0.461 0.104 -0.005 1 
0.381 -0.135 -0.02 1 
0.465 -0.333 -0.015 1 
0.43 -0.115 -0.015 1 
0.474 -0.021 -0.007 1 
0.373 0.145 -0.014 1 
0.371 -0.016 -0.015 1 
0.451 0.164 -0.007 1 
0.438 -0.099 -0.015 1 
0.464 -0.136 -0.011 1 
0.414 -0.01 -0.017 1 
0.421 -0.207 -0.019 1 
0.45 -0.307 -0.019 1 
0.414 0.054 -0.015 1 
0.324 0.013 0.007 2 
0.325 0.004 0.009 2 
0.326 0.014 0.011 2 
0.331 0.004 0.017 2 
0.331 0.013 0.017 2 
0.331 0.015 0.017 2 
0.463 0.282 0.153 3 
0.479 -0.186 0.123 3 
0.476 -0.158 0.072 3 
0.463 0.291 0.153 3 
0.475 -0.166 0.041 3 
0.464 0.152 0.13 3 
0.464 0.302 0.153 3 
0.475 -0.087 0.133 3 
0.463 0.314 0.154 3 
0.463 0.324 0.154 3 
0.461 0.232 0.063 3 
0.46 0.331 0.154 3 
0.477 -0.096 0.153 3 
0.463 0.273 0.152 3 
0.463 0.263 0.152 3 
0.462 0.153 0.033 3 
0.464 0.161 0.15 3 
0.474 -0.056 0.152 3 
0.457 0.332 0.062 3 
0.475 -0.062 0.152 3 
0.475 -0.065 0.152 3 
0.474 -0.067 0.152 3 
0.476 -0.076 0.152 3 
0.478 -0.085 0.153 3 
0.467 0.033 0.063 3 
0.469 0.022 0.153 3 
0.463 0.224 0.143 3 
0.467 0.112 0.153 3 
0.467 0.104 0.153 3 
0.468 0.093 0.153 3 
0.481 -0.267 0.143 3 
0.469 0.083 0.153 3 
0.468 0.074 0.153 3 
0.469 0.063 0.153 3 
0.469 0.052 0.153 3 
0.47 0.044 0.153 3 
0.469 0.033 0.153 3 
0.46 0.338 0.154 3 
0.469 0.014 0.153 3 
0.47 -0.007 0.153 3 
0.472 -0.015 0.154 3 
0.473 -0.026 0.154 3 
0.484 -0.277 0.162 3 
0.462 0.303 0.144 3 
0.485 -0.284 0.162 3 
0.485 -0.288 0.162 3 
0.486 -0.295 0.163 3 
0.48 -0.307 0.014 3 
0.487 -0.316 0.164 3 
0.483 -0.266 0.152 3 
0.466 0.123 0.144 3 
0.466 0.104 0.144 3 
0.467 0.093 0.144 3 
0.467 0.082 0.144 3 
0.461 0.164 0.063 3 
0.467 0.074 0.144 3 
0.468 0.063 0.144 3 
0.468 0.052 0.144 3 
0.468 0.044 0.144 3 
0.468 0.033 0.144 3 
0.474 -0.076 0.146 3 
0.483 -0.256 0.152 3 
0.465 0.133 0.144 3 
0.483 -0.276 0.152 3 
0.484 -0.286 0.153 3 
0.487 -0.292 0.154 3 
0.487 -0.296 0.154 3 
0.462 0.293 0.144 3 
0.462 0.284 0.144 3 
0.464 0.273 0.144 3 
0.464 0.264 0.144 3 
0.461 0.243 0.142 3 
0.461 0.234 0.142 3 
0.465 0.223 0.163 3 
0.478 -0.177 0.152 3 
0.478 -0.116 0.153 3 
0.478 -0.125 0.154 3 
0.478 -0.137 0.154 3 
0.478 -0.145 0.154 3 
0.478 -0.157 0.154 3 
0.478 -0.166 0.154 3 
0.489 -0.325 0.162 3 
0.489 -0.336 0.162 3 
0.47 -0.015 0.104 3 
0.464 0.169 0.147 3 
0.464 0.15 0.147 3 
0.477 -0.105 0.153 3 
0.478 -0.186 0.152 3 
0.479 -0.196 0.152 3 
0.463 0.174 0.114 3 
0.48 -0.205 0.153 3 
0.48 -0.226 0.153 3 
0.481 -0.236 0.154 3 
0.464 0.166 0.144 3 
0.464 0.164 0.144 3 
0.464 0.152 0.144 3 
0.465 0.15 0.144 3 
0.465 0.142 0.144 3 
0.464 0.322 0.163 3 
0.461 0.232 0.043 3 
0.475 -0.225 0.024 3 
0.486 -0.285 0.172 3 
0.486 -0.295 0.172 3 
0.487 -0.307 0.173 3 
0.461 0.272 0.082 3 
0.488 -0.318 0.174 3 
0.489 -0.326 0.174 3 
0.485 -0.316 0.103 3 
0.46 0.332 0.162 3 
0.46 0.271 0.104 3 
0.475 -0.195 0.052 3 
0.474 -0.087 0.102 3 
0.465 0.317 0.163 3 
0.465 0.313 0.163 3 
0.465 0.303 0.163 3 
0.464 0.296 0.162 3 
0.464 0.293 0.162 3 
0.464 0.252 0.16 3 
0.464 0.222 0.16 3 
0.464 0.21 0.159 3 
0.465 0.084 0.114 3 
0.481 -0.318 0.043 3 
0.474 -0.026 0.16 3 
0.48 -0.126 0.163 3 
0.475 -0.126 0.122 3 
0.465 0.214 0.162 3 
0.465 0.188 0.162 3 
0.464 0.184 0.161 3 
0.47 0.083 0.162 3 
0.47 0.072 0.162 3 
0.47 0.064 0.162 3 
0.47 0.044 0.161 3 
0.471 0.034 0.162 3 
0.484 -0.328 0.082 3 
0.471 0.023 0.162 3 
0.479 -0.086 0.162 3 
0.472 0.014 0.162 3 
0.472 0.003 0.162 3 
0.473 -0.007 0.162 3 
0.473 -0.015 0.163 3 
0.475 -0.026 0.163 3 
0.476 -0.037 0.163 3 
0.477 -0.046 0.164 3 
0.477 -0.057 0.164 3 
0.477 -0.065 0.164 3 
0.467 0.043 0.092 3 
0.477 -0.077 0.164 3 
0.463 0.224 0.154 3 
0.484 -0.245 0.164 3 
0.484 -0.258 0.164 3 
0.484 -0.267 0.164 3 
0.484 -0.277 0.165 3 
0.464 0.305 0.157 3 
0.464 0.132 0.073 3 
0.463 0.254 0.154 3 
0.475 -0.146 0.122 3 
0.475 -0.177 0.072 3 
0.463 0.242 0.154 3 
0.462 0.232 0.154 3 
0.483 -0.238 0.163 3 
0.464 0.213 0.154 3 
0.477 -0.165 0.134 3 
0.461 0.274 0.062 3 
0.463 0.192 0.153 3 
0.464 0.184 0.153 3 
0.465 0.173 0.153 3 
0.465 0.164 0.153 3 
0.465 0.153 0.153 3 
0.466 0.142 0.153 3 
0.465 0.122 0.063 3 
0.466 0.134 0.153 3 
0.48 -0.185 0.164 3 
0.479 -0.097 0.162 3 
0.463 0.162 0.092 3 
0.478 -0.105 0.162 3 
0.466 0.112 0.144 3 
0.479 -0.246 0.113 3 
0.479 -0.117 0.162 3 
0.48 -0.135 0.163 3 
0.479 -0.146 0.163 3 
0.479 -0.155 0.163 3 
0.48 -0.167 0.164 3 
0.48 -0.176 0.164 3 
0.466 0.123 0.152 3 
0.484 -0.267 0.167 3 
0.464 0.102 0.082 3 
0.49 -0.337 0.172 3 
0.49 -0.345 0.173 3 
0.474 -0.037 0.157 3 
0.486 -0.318 0.124 3 
0.48 -0.197 0.161 3 
0.465 0.113 0.052 3 
0.481 -0.206 0.162 3 
0.481 -0.215 0.162 3 
0.482 -0.225 0.162 3 
0.462 0.201 0.092 3 
0.467 0.014 0.092 3 
0.475 -0.207 0.052 3 
0.479 -0.216 0.132 3 
0.465 0.084 0.063 3 
0.48 -0.226 0.133 3 
0.48 -0.235 0.133 3 
0.48 -0.247 0.133 3 
0.48 -0.266 0.134 3 
0.484 -0.345 0.061 3 
0.474 -0.165 0.044 3 
0.481 -0.277 0.134 3 
0.484 -0.296 0.135 3 
0.479 -0.207 0.132 3 
0.483 -0.288 0.132 3 
0.484 -0.296 0.132 3 
0.485 -0.3 0.133 3 
0.487 -0.315 0.134 3 
0.488 -0.327 0.134 3 
0.488 -0.337 0.134 3 
0.489 -0.346 0.135 3 
0.461 0.311 0.124 3 
0.461 0.304 0.124 3 
0.462 0.293 0.124 3 
0.462 0.283 0.124 3 
0.476 -0.127 0.133 3 
0.463 0.284 0.133 3 
0.462 0.262 0.132 3 
0.465 0.094 0.033 3 
0.473 -0.045 0.132 3 
0.473 -0.056 0.132 3 
0.474 -0.067 0.132 3 
0.474 -0.076 0.132 3 
0.475 -0.095 0.133 3 
0.475 -0.107 0.133 3 
0.475 -0.115 0.133 3 
0.471 -0.086 0.044 3 
0.462 0.274 0.124 3 
0.477 -0.136 0.134 3 
0.476 -0.147 0.134 3 
0.476 -0.156 0.134 3 
0.477 -0.177 0.134 3 
0.464 0.133 0.127 3 
0.466 0.062 0.063 3 
0.464 0.122 0.127 3 
0.47 -0.096 0.014 3 
0.475 -0.084 0.13 3 
0.479 -0.186 0.132 3 
0.479 -0.195 0.132 3 
0.473 -0.075 0.124 3 
0.468 0.014 0.122 3 
0.469 0.003 0.123 3 
0.486 -0.335 0.122 3 
0.47 -0.08 0.014 3 
0.469 -0.007 0.123 3 
0.47 -0.015 0.123 3 
0.47 -0.026 0.123 3 
0.47 -0.036 0.123 3 
0.471 -0.045 0.123 3 
0.472 -0.056 0.123 3 
0.473 -0.067 0.124 3 
0.472 -0.156 0.014 3 
0.475 -0.087 0.124 3 
0.464 0.143 0.092 3 
0.475 -0.107 0.124 3 
0.489 -0.346 0.132 3 
0.459 0.335 0.122 3 
0.46 0.333 0.122 3 
0.461 0.324 0.122 3 
0.464 0.119 0.119 3 
0.474 -0.09 0.121 3 
0.475 -0.115 0.122 3 
0.468 0.351 0.196 3 
0.464 0.133 0.122 3 
0.462 0.261 0.124 3 
0.462 0.243 0.123 3 
0.461 0.234 0.123 3 
0.461 0.222 0.123 3 
0.463 0.202 0.123 3 
0.463 0.194 0.122 3 
0.463 0.182 0.122 3 
0.463 0.174 0.122 3 
0.464 0.163 0.122 3 
0.464 0.144 0.122 3 
0.469 -0.066 0.023 3 
0.462 0.293 0.133 3 
0.465 0.125 0.122 3 
0.465 0.122 0.122 3 
0.465 0.114 0.122 3 
0.465 0.103 0.122 3 
0.465 0.092 0.122 3 
0.465 0.073 0.122 3 
0.465 0.062 0.122 3 
0.466 0.054 0.122 3 
0.467 0.044 0.122 3 
0.467 0.033 0.122 3 
0.467 0.022 0.122 3 
0.477 -0.165 0.143 3 
0.488 -0.327 0.153 3 
0.488 -0.338 0.153 3 
0.46 0.334 0.142 3 
0.462 0.323 0.142 3 
0.462 0.313 0.142 3 
0.48 -0.297 0.014 3 
0.474 -0.087 0.141 3 
0.477 -0.125 0.142 3 
0.477 -0.136 0.142 3 
0.477 -0.145 0.142 3 
0.462 0.223 0.134 3 
0.478 -0.157 0.143 3 
0.488 -0.317 0.152 3 
0.477 -0.177 0.143 3 
0.478 -0.186 0.143 3 
0.478 -0.195 0.143 3 
0.479 -0.207 0.144 3 
0.479 -0.216 0.144 3 
0.465 0.274 0.139 3 
0.481 -0.227 0.142 3 
0.481 -0.236 0.142 3 
0.482 -0.246 0.142 3 
0.482 -0.255 0.143 3 
0.481 -0.277 0.143 3 
0.472 -0.026 0.143 3 
0.485 -0.306 0.112 3 
0.464 0.192 0.142 3 
0.465 0.187 0.142 3 
0.477 -0.226 0.084 3 
0.464 0.183 0.142 3 
0.465 0.181 0.142 3 
0.465 0.173 0.142 3 
0.469 0.022 0.142 3 
0.47 0.003 0.142 3 
0.47 -0.007 0.142 3 
0.471 -0.015 0.142 3 
0.483 -0.288 0.144 3 
0.473 -0.056 0.143 3 
0.474 -0.065 0.143 3 
0.467 0.022 0.103 3 
0.474 -0.076 0.143 3 
0.475 -0.084 0.144 3 
0.475 -0.087 0.144 3 
0.475 -0.096 0.144 3 
0.48 -0.295 0.093 3 
0.475 -0.107 0.144 3 
0.476 -0.116 0.144 3 
0.487 -0.306 0.151 3 
0.471 -0.026 0.134 3 
0.468 -0.007 0.082 3 
0.466 0.073 0.133 3 
0.466 0.063 0.133 3 
0.467 0.052 0.133 3 
0.468 0.044 0.133 3 
0.467 0.033 0.133 3 
0.468 0.022 0.133 3 
0.468 0.014 0.133 3 
0.47 0.003 0.134 3 
0.47 -0.007 0.134 3 
0.47 -0.015 0.134 3 
0.466 0.082 0.133 3 
0.472 -0.037 0.134 3 
0.486 -0.298 0.142 3 
0.487 -0.305 0.142 3 
0.487 -0.316 0.143 3 
0.488 -0.327 0.143 3 
0.458 0.335 0.133 3 
0.459 0.332 0.133 3 
0.462 0.322 0.134 3 
0.472 -0.106 0.003 3 
0.461 0.314 0.133 3 
0.461 0.301 0.133 3 
0.464 0.183 0.134 3 
0.473 -0.206 0.013 3 
0.461 0.249 0.134 3 
0.481 -0.305 0.082 3 
0.461 0.243 0.134 3 
0.462 0.252 0.123 3 
0.468 0.014 0.063 3 
0.461 0.234 0.134 3 
0.463 0.212 0.134 3 
0.463 0.203 0.134 3 
0.464 0.192 0.134 3 
0.474 -0.145 0.05 3 
0.463 0.212 0.142 3 
0.464 0.172 0.133 3 
0.465 0.167 0.134 3 
0.465 0.164 0.134 3 
0.464 0.161 0.133 3 
0.465 0.153 0.133 3 
0.465 0.144 0.133 3 
0.465 0.133 0.133 3 
0.465 0.122 0.133 3 
0.465 0.114 0.133 3 
0.466 0.103 0.133 3 
0.466 0.092 0.133 3 
0.465 0.043 0.103 3 
0.464 0.343 0.188 3 
0.474 -0.095 0.121 3 
0.48 -0.285 0.093 3 
0.467 0.256 0.184 3 
0.466 0.249 0.184 3 
0.467 0.243 0.184 3 
0.486 -0.309 0.164 3 
0.466 0.233 0.183 3 
0.466 0.224 0.183 3 
0.467 0.213 0.183 3 
0.462 0.214 0.123 3 
0.466 0.204 0.182 3 
0.495 -0.337 0.202 3 
0.467 0.193 0.182 3 
0.467 0.172 0.182 3 
0.468 0.164 0.182 3 
0.469 0.153 0.182 3 
0.463 0.203 0.142 3 
0.469 0.144 0.182 3 
0.475 -0.21 0.024 3 
0.472 0.134 0.183 3 
0.481 -0.276 0.122 3 
0.474 0.124 0.183 3 
0.473 0.112 0.183 3 
0.474 -0.045 0.154 3 
0.494 -0.315 0.204 3 
0.495 -0.326 0.205 3 
0.469 0.352 0.194 3 
0.466 0.342 0.192 3 
0.469 0.334 0.192 3 
0.47 0.324 0.192 3 
0.474 0.124 0.186 3 
0.474 0.067 0.185 3 
0.483 -0.067 0.189 3 
0.471 -0.125 0.014 3 
0.483 -0.075 0.189 3 
0.473 0.104 0.183 3 
0.484 -0.087 0.19 3 
0.486 -0.126 0.191 3 
0.486 -0.135 0.191 3 
0.485 -0.146 0.191 3 
0.485 -0.155 0.191 3 
0.486 -0.165 0.192 3 
0.488 -0.178 0.193 3 
0.489 -0.188 0.194 3 
0.489 -0.197 0.194 3 
0.488 -0.215 0.194 3 
0.493 -0.328 0.201 3 
0.467 0.303 0.184 3 
0.486 -0.245 0.192 3 
0.488 -0.255 0.192 3 
0.488 -0.265 0.193 3 
0.489 -0.276 0.194 3 
0.488 -0.285 0.194 3 
0.494 -0.336 0.199 3 
0.463 0.345 0.185 3 
0.466 0.316 0.184 3 
0.475 -0.095 0.124 3 
0.467 0.313 0.184 3 
0.46 0.293 0.093 3 
0.486 -0.235 0.191 3 
0.467 0.294 0.183 3 
0.467 0.284 0.183 3 
0.467 0.274 0.182 3 
0.473 0.092 0.18 3 
0.467 -0.036 0.004 3 
0.474 0.084 0.18 3 
0.467 0.043 0.074 3 
0.477 -0.007 0.181 3 
0.478 -0.015 0.181 3 
0.478 -0.026 0.181 3 
0.479 -0.035 0.182 3 
0.484 -0.096 0.187 3 
0.475 0.093 0.183 3 
0.476 0.082 0.184 3 
0.475 0.073 0.183 3 
0.474 0.07 0.183 3 
0.474 0.062 0.183 3 
0.474 0.054 0.183 3 
0.475 0.043 0.183 3 
0.476 0.034 0.183 3 
0.478 0.023 0.184 3 
0.478 0.012 0.184 3 
0.477 0.004 0.184 3 
0.493 -0.307 0.203 3 
0.484 -0.107 0.187 3 
0.484 -0.116 0.187 3 
0.484 -0.125 0.187 3 
0.473 -0.037 0.154 3 
0.483 -0.136 0.187 3 
0.484 -0.315 0.1 3 
0.484 -0.146 0.188 3 
0.484 -0.155 0.188 3 
0.466 0.336 0.182 3 
0.489 -0.206 0.192 3 
0.486 -0.226 0.191 3 
0.46 0.234 0.033 3 
0.475 -0.207 0.004 3 
0.47 0.154 0.188 3 
0.465 0.084 0.122 3 
0.46 0.284 0.093 3 
0.471 0.143 0.189 3 
0.474 0.133 0.189 3 
0.475 0.127 0.189 3 
0.468 0.182 0.182 3 
0.475 0.124 0.189 3 
0.474 0.113 0.189 3 
0.465 0.278 0.173 3 
0.475 0.107 0.189 3 
0.469 0.162 0.188 3 
0.465 0.062 0.004 3 
0.474 0.104 0.189 3 
0.475 0.102 0.189 3 
0.46 0.203 0.014 3 
0.476 0.093 0.189 3 
0.477 0.082 0.19 3 
0.477 0.074 0.19 3 
0.476 0.062 0.189 3 
0.476 0.054 0.189 3 
0.472 -0.045 0.143 3 
0.477 0.043 0.189 3 
0.468 0.263 0.191 3 
0.464 0.143 0.084 3 
0.468 0.344 0.196 3 
0.47 0.332 0.196 3 
0.471 0.322 0.195 3 
0.47 0.314 0.194 3 
0.469 0.303 0.193 3 
0.463 0.182 0.114 3 
0.469 0.293 0.193 3 
0.469 0.283 0.192 3 
0.47 0.274 0.192 3 
0.485 -0.33 0.094 3 
0.478 0.032 0.19 3 
0.468 0.254 0.191 3 
0.468 0.244 0.19 3 
0.468 0.232 0.19 3 
0.468 0.223 0.189 3 
0.473 -0.037 0.143 3 
0.467 0.213 0.189 3 
0.48 -0.297 0.023 3 
0.468 0.202 0.189 3 
0.471 0.192 0.19 3 
0.471 0.184 0.189 3 
0.47 0.174 0.189 3 
0.49 -0.207 0.198 3 
0.487 -0.117 0.194 3 
0.487 -0.12 0.195 3 
0.488 -0.136 0.195 3 
0.487 -0.147 0.195 3 
0.486 -0.156 0.195 3 
0.475 -0.195 0.033 3 
0.487 -0.165 0.196 3 
0.489 -0.175 0.197 3 
0.49 -0.185 0.197 3 
0.49 -0.197 0.198 3 
0.472 -0.075 0.052 3 
0.487 -0.109 0.194 3 
0.49 -0.216 0.198 3 
0.49 -0.226 0.199 3 
0.469 0.003 0.052 3 
0.479 -0.246 0.003 3 
0.489 -0.235 0.199 3 
0.49 -0.248 0.2 3 
0.456 0.33 0.012 3 
0.49 -0.267 0.2 3 
0.491 -0.278 0.201 3 
0.491 -0.288 0.201 3 
0.491 -0.295 0.202 3 
0.483 -0.035 0.192 3 
0.479 0.023 0.19 3 
0.464 0.152 0.122 3 
0.462 0.184 0.054 3 
0.479 0.012 0.19 3 
0.467 0.043 0.052 3 
0.48 0.004 0.191 3 
0.482 -0.007 0.192 3 
0.481 -0.015 0.191 3 
0.477 -0.208 0.064 3 
0.481 -0.027 0.191 3 
0.48 -0.257 0.133 3 
0.48 -0.046 0.182 3 
0.488 -0.127 0.195 3 
0.49 -0.255 0.2 3 
0.484 -0.047 0.193 3 
0.485 -0.056 0.193 3 
0.484 -0.061 0.192 3 
0.485 -0.067 0.193 3 
0.485 -0.076 0.193 3 
0.486 -0.085 0.193 3 
0.487 -0.097 0.194 3 
0.488 -0.103 0.195 3 
0.488 -0.106 0.195 3 
0.466 0.044 0.114 3 
0.488 -0.338 0.144 3 
0.487 -0.287 0.181 3 
0.466 0.054 0.052 3 
0.489 -0.295 0.182 3 
0.491 -0.307 0.184 3 
0.491 -0.318 0.184 3 
0.46 0.339 0.171 3 
0.461 0.333 0.171 3 
0.464 0.323 0.172 3 
0.465 0.317 0.172 3 
0.464 0.268 0.169 3 
0.464 0.19 0.167 3 
0.48 -0.115 0.174 3 
0.474 -0.007 0.168 3 
0.474 -0.015 0.168 3 
0.48 -0.126 0.171 3 
0.481 -0.135 0.172 3 
0.462 0.273 0.113 3 
0.482 -0.147 0.173 3 
0.481 -0.156 0.172 3 
0.48 -0.167 0.172 3 
0.471 -0.097 0.052 3 
0.48 -0.176 0.173 3 
0.481 -0.185 0.173 3 
0.474 0.012 0.171 3 
0.466 0.273 0.173 3 
0.459 0.336 0.142 3 
0.479 -0.237 0.104 3 
0.464 0.262 0.172 3 
0.459 0.304 0.032 3 
0.465 0.26 0.172 3 
0.464 0.07 0.004 3 
0.465 0.253 0.172 3 
0.463 0.208 0.114 3 
0.464 0.25 0.172 3 
0.474 0.017 0.171 3 
0.47 -0.088 0.014 3 
0.474 0.003 0.171 3 
0.475 -0.015 0.172 3 
0.477 -0.026 0.172 3 
0.478 -0.035 0.172 3 
0.478 -0.046 0.173 3 
0.478 -0.057 0.173 3 
0.478 -0.066 0.173 3 
0.478 -0.077 0.173 3 
0.479 -0.086 0.173 3 
0.481 -0.095 0.174 3 
0.48 -0.106 0.174 3 
0.485 -0.259 0.173 3 
0.469 0.094 0.164 3 
0.483 -0.205 0.171 3 
0.465 0.114 0.063 3 
0.483 -0.217 0.172 3 
0.48 -0.217 0.153 3 
0.483 -0.226 0.172 3 
0.476 -0.235 0.012 3 
0.484 -0.236 0.172 3 
0.484 -0.245 0.173 3 
0.485 -0.249 0.173 3 
0.484 -0.255 0.173 3 
0.468 0.104 0.164 3 
0.485 -0.265 0.174 3 
0.486 -0.276 0.174 3 
0.457 0.335 0.164 3 
0.464 0.313 0.165 3 
0.474 -0.177 0.033 3 
0.464 0.277 0.164 3 
0.464 0.274 0.164 3 
0.463 0.264 0.163 3 
0.465 0.253 0.164 3 
0.465 0.244 0.163 3 
0.464 0.24 0.163 3 
0.467 -0.047 0.004 3 
0.483 -0.196 0.174 3 
0.484 -0.212 0.175 3 
0.484 -0.255 0.176 3 
0.492 -0.326 0.182 3 
0.479 -0.297 0.064 3 
0.46 0.243 0.054 3 
0.492 -0.336 0.182 3 
0.464 0.202 0.165 3 
0.46 0.282 0.043 3 
0.464 0.196 0.164 3 
0.475 -0.16 0.033 3 
0.475 -0.216 0.033 3 
0.464 0.19 0.164 3 
0.465 0.179 0.164 3 
0.474 -0.118 0.119 3 
0.465 0.174 0.164 3 
0.466 0.162 0.164 3 
0.47 -0.036 0.104 3 
0.466 0.154 0.164 3 
0.486 -0.308 0.133 3 
0.467 0.143 0.164 3 
0.468 0.132 0.164 3 
0.469 0.119 0.164 3 
0.485 -0.197 0.184 3 
0.47 0.003 0.153 3 
0.466 0.333 0.182 3 
0.473 0.042 0.176 3 
0.468 0.113 0.164 3 
0.48 -0.317 0.014 3 
0.483 -0.145 0.182 3 
0.483 -0.157 0.182 3 
0.481 -0.357 0.013 3 
0.482 -0.165 0.182 3 
0.481 -0.177 0.182 3 
0.482 -0.186 0.182 3 
0.467 0.054 0.074 3 
0.462 0.342 0.181 3 
0.486 -0.21 0.184 3 
0.485 -0.219 0.184 3 
0.484 -0.221 0.184 3 
0.465 0.054 0.004 3 
0.484 -0.227 0.184 3 
0.484 -0.237 0.185 3 
0.475 -0.177 0.064 3 
0.494 -0.335 0.192 3 
0.464 0.238 0.174 3 
0.465 0.179 0.153 3 
0.465 0.235 0.174 3 
0.483 -0.125 0.184 3 
0.48 -0.055 0.182 3 
0.48 -0.066 0.182 3 
0.48 -0.075 0.182 3 
0.467 0.003 0.092 3 
0.477 -0.208 0.072 3 
0.482 -0.087 0.183 3 
0.465 0.229 0.163 3 
0.483 -0.096 0.184 3 
0.463 0.202 0.103 3 
0.483 -0.107 0.184 3 
0.482 -0.115 0.184 3 
0.465 0.232 0.174 3 
0.483 -0.136 0.184 3 
0.463 0.272 0.132 3 
0.483 -0.166 0.185 3 
0.471 -0.067 0.074 3 
0.483 -0.175 0.185 3 
0.484 -0.231 0.187 3 
0.489 -0.296 0.192 3 
0.492 -0.305 0.193 3 
0.476 -0.187 0.072 3 
0.492 -0.316 0.194 3 
0.492 -0.326 0.194 3 
0.469 0.014 0.142 3 
0.474 0.034 0.174 3 
0.471 0.053 0.162 3 
0.475 0.031 0.174 3 
0.475 0.017 0.174 3 
0.471 -0.056 0.074 3 
0.475 0.012 0.174 3 
0.475 0.003 0.174 3 
0.462 0.153 0.044 3 
0.475 -0.007 0.174 3 
0.464 0.144 0.13 3 
0.484 -0.196 0.18 3 
0.46 0.312 0.093 3 
0.483 -0.236 0.181 3 
0.485 -0.24 0.182 3 
0.485 -0.246 0.182 3 
0.487 -0.257 0.183 3 
0.486 -0.266 0.183 3 
0.487 -0.277 0.184 3 
0.465 0.311 0.174 3 
0.465 0.304 0.174 3 
0.464 0.297 0.173 3 
0.465 0.294 0.174 3 
0.464 0.281 0.173 3 
0.469 0.133 0.173 3 
0.466 0.224 0.174 3 
0.466 0.212 0.174 3 
0.465 0.203 0.173 3 
0.463 0.254 0.143 3 
0.465 0.194 0.173 3 
0.461 0.274 0.032 3 
0.466 0.183 0.173 3 
0.465 0.174 0.173 3 
0.467 0.164 0.173 3 
0.467 0.152 0.173 3 
0.467 0.143 0.172 3 
0.464 0.234 0.163 3 
0.483 -0.247 0.152 3 
0.471 0.123 0.174 3 
0.47 0.114 0.173 3 
0.47 0.103 0.173 3 
0.471 0.094 0.173 3 
0.473 0.084 0.174 3 
0.472 0.072 0.173 3 
0.472 0.064 0.173 3 
0.464 0.204 0.154 3 
0.472 0.053 0.173 3 
0.473 0.042 0.174 3 
0.477 -0.245 0.012 3 
0.474 -0.162 0.05 3 
0.456 0.331 0.043 3 
0.459 0.324 0.043 3 
0.458 0.313 0.043 3 
0.458 0.303 0.043 3 
0.471 -0.067 0.044 3 
0.459 0.294 0.043 3 
0.46 0.273 0.043 3 
0.46 0.264 0.043 3 
0.47 -0.056 0.033 3 
0.461 0.224 0.024 3 
0.46 0.252 0.043 3 
0.483 -0.337 0.052 3 
0.46 0.243 0.043 3 
0.462 0.224 0.043 3 
0.462 0.213 0.044 3 
0.462 0.204 0.044 3 
0.461 0.192 0.044 3 
0.462 0.184 0.044 3 
0.462 0.173 0.044 3 
0.462 0.164 0.044 3 
0.463 0.143 0.044 3 
0.463 0.132 0.044 3 
0.464 0.124 0.044 3 
0.464 0.043 0.012 3 
0.472 -0.067 0.052 3 
0.471 -0.086 0.052 3 
0.473 -0.106 0.052 3 
0.473 -0.117 0.052 3 
0.473 -0.125 0.052 3 
0.473 -0.136 0.052 3 
0.475 -0.157 0.052 3 
0.475 -0.166 0.052 3 
0.474 -0.168 0.052 3 
0.475 -0.177 0.052 3 
0.475 -0.186 0.052 3 
0.464 0.113 0.044 3 
0.476 -0.216 0.052 3 
0.476 -0.225 0.052 3 
0.477 -0.235 0.052 3 
0.478 -0.245 0.052 3 
0.478 -0.267 0.052 3 
0.478 -0.276 0.052 3 
0.478 -0.286 0.052 3 
0.48 -0.297 0.052 3 
0.482 -0.309 0.052 3 
0.482 -0.315 0.052 3 
0.481 -0.325 0.052 3 
0.482 -0.326 0.043 3 
0.474 -0.16 0.044 3 
0.475 -0.175 0.044 3 
0.476 -0.187 0.044 3 
0.476 -0.196 0.044 3 
0.476 -0.216 0.044 3 
0.476 -0.225 0.044 3 
0.477 -0.235 0.044 3 
0.478 -0.248 0.044 3 
0.478 -0.267 0.044 3 
0.477 -0.276 0.044 3 
0.48 -0.297 0.043 3 
0.481 -0.308 0.043 3 
0.475 -0.157 0.044 3 
0.483 -0.348 0.043 3 
0.483 -0.355 0.043 3 
0.465 0.105 0.041 3 
0.455 0.33 0.034 3 
0.456 0.324 0.034 3 
0.458 0.313 0.034 3 
0.481 -0.308 0.034 3 
0.481 -0.315 0.034 3 
0.481 -0.325 0.034 3 
0.483 -0.337 0.034 3 
0.484 -0.345 0.034 3 
0.468 -0.007 0.044 3 
0.465 0.102 0.044 3 
0.459 0.214 0.014 3 
0.465 0.094 0.044 3 
0.466 0.084 0.044 3 
0.465 0.073 0.044 3 
0.466 0.062 0.044 3 
0.467 0.054 0.044 3 
0.467 0.033 0.044 3 
0.468 0.022 0.044 3 
0.468 0.014 0.044 3 
0.468 0.003 0.044 3 
0.471 -0.056 0.052 3 
0.469 -0.015 0.044 3 
0.469 -0.026 0.044 3 
0.47 -0.045 0.044 3 
0.47 -0.056 0.044 3 
0.471 -0.075 0.044 3 
0.473 -0.097 0.044 3 
0.473 -0.106 0.044 3 
0.473 -0.117 0.044 3 
0.474 -0.137 0.044 3 
0.474 -0.145 0.044 3 
0.475 -0.149 0.044 3 
0.484 -0.345 0.052 3 
0.469 -0.015 0.063 3 
0.469 -0.026 0.063 3 
0.47 -0.036 0.063 3 
0.47 -0.045 0.063 3 
0.471 -0.056 0.063 3 
0.472 -0.067 0.063 3 
0.462 0.162 0.033 3 
0.472 -0.075 0.063 3 
0.472 -0.086 0.063 3 
0.473 -0.095 0.063 3 
0.473 -0.106 0.063 3 
0.473 -0.117 0.063 3 
0.469 -0.007 0.063 3 
0.474 -0.125 0.063 3 
0.475 -0.137 0.063 3 
0.476 -0.146 0.063 3 
0.475 -0.157 0.063 3 
0.475 -0.186 0.064 3 
0.468 -0.015 0.033 3 
0.476 -0.195 0.064 3 
0.477 -0.217 0.064 3 
0.477 -0.226 0.064 3 
0.478 -0.236 0.064 3 
0.478 -0.245 0.064 3 
0.462 0.184 0.063 3 
0.459 0.314 0.062 3 
0.46 0.302 0.062 3 
0.46 0.293 0.062 3 
0.46 0.283 0.062 3 
0.461 0.262 0.062 3 
0.461 0.253 0.062 3 
0.46 0.243 0.062 3 
0.462 0.224 0.063 3 
0.462 0.213 0.063 3 
0.462 0.204 0.063 3 
0.462 0.193 0.063 3 
0.477 -0.257 0.064 3 
0.462 0.173 0.063 3 
0.464 0.132 0.063 3 
0.464 0.124 0.063 3 
0.465 0.103 0.063 3 
0.465 0.094 0.063 3 
0.464 0.091 0.063 3 
0.467 0.073 0.063 3 
0.467 0.054 0.063 3 
0.467 0.043 0.063 3 
0.468 0.022 0.063 3 
0.468 0.003 0.063 3 
0.466 0.073 0.052 3 
0.462 0.164 0.052 3 
0.462 0.153 0.052 3 
0.463 0.143 0.052 3 
0.463 0.132 0.052 3 
0.464 0.124 0.052 3 
0.465 0.119 0.052 3 
0.464 0.108 0.052 3 
0.464 0.102 0.052 3 
0.465 0.1 0.052 3 
0.465 0.094 0.052 3 
0.465 0.083 0.052 3 
0.462 0.173 0.052 3 
0.466 0.062 0.052 3 
0.467 0.033 0.052 3 
0.468 0.022 0.052 3 
0.475 -0.146 0.052 3 
0.468 0.014 0.052 3 
0.47 -0.007 0.052 3 
0.469 -0.015 0.052 3 
0.469 -0.026 0.052 3 
0.459 0.282 0.013 3 
0.47 -0.036 0.052 3 
0.47 -0.045 0.052 3 
0.459 0.314 0.054 3 
0.478 -0.267 0.064 3 
0.478 -0.276 0.064 3 
0.478 -0.286 0.064 3 
0.482 -0.309 0.064 3 
0.483 -0.316 0.064 3 
0.482 -0.326 0.064 3 
0.483 -0.337 0.064 3 
0.485 -0.346 0.064 3 
0.468 0.003 0.023 3 
0.474 -0.137 0.061 3 
0.459 0.324 0.054 3 
0.459 0.294 0.032 3 
0.459 0.304 0.054 3 
0.46 0.293 0.054 3 
0.461 0.283 0.054 3 
0.46 0.264 0.054 3 
0.461 0.253 0.054 3 
0.46 0.234 0.054 3 
0.461 0.223 0.054 3 
0.462 0.213 0.054 3 
0.462 0.204 0.054 3 
0.462 0.193 0.054 3 
0.474 -0.145 0.055 3 
0.458 0.233 0.014 3 
0.478 -0.289 0.014 3 
0.482 -0.348 0.004 3 
0.48 -0.328 0.014 3 
0.481 -0.336 0.013 3 
0.483 -0.348 0.013 3 
0.456 0.323 0.012 3 
0.457 0.311 0.012 3 
0.459 0.304 0.012 3 
0.459 0.294 0.012 3 
0.459 0.263 0.013 3 
0.459 0.254 0.013 3 
0.459 0.243 0.013 3 
0.464 0.064 0.02 3 
0.458 0.224 0.014 3 
0.46 0.194 0.014 3 
0.46 0.183 0.014 3 
0.46 0.172 0.014 3 
0.461 0.164 0.014 3 
0.461 0.153 0.014 3 
0.464 0.051 0.015 3 
0.47 -0.064 0.014 3 
0.47 -0.072 0.014 3 
0.47 -0.105 0.014 3 
0.471 -0.116 0.014 3 
0.469 -0.055 0.023 3 
0.465 0.064 0.023 3 
0.465 0.054 0.023 3 
0.466 0.043 0.023 3 
0.466 0.032 0.023 3 
0.466 0.024 0.023 3 
0.467 0.014 0.023 3 
0.468 -0.007 0.023 3 
0.468 -0.015 0.023 3 
0.467 -0.025 0.023 3 
0.468 -0.036 0.023 3 
0.468 -0.047 0.023 3 
0.471 -0.136 0.014 3 
0.47 -0.077 0.023 3 
0.471 -0.097 0.022 3 
0.471 -0.105 0.022 3 
0.473 -0.117 0.022 3 
0.473 -0.125 0.022 3 
0.472 -0.136 0.022 3 
0.473 -0.145 0.022 3 
0.474 -0.157 0.022 3 
0.474 -0.165 0.022 3 
0.465 0.075 0.02 3 
0.464 0.072 0.02 3 
0.476 -0.226 0.004 3 
0.466 -0.036 0.012 3 
0.466 -0.047 0.012 3 
0.465 0.038 0.01 3 
0.465 0.027 0.01 3 
0.475 -0.21 0.007 3 
0.481 -0.336 0.004 3 
0.48 -0.356 0.004 3 
0.465 0.059 0.007 3 
0.465 0.054 0.007 3 
0.475 -0.204 0.004 3 
0.476 -0.217 0.004 3 
0.466 -0.025 0.012 3 
0.478 -0.236 0.004 3 
0.478 -0.257 0.003 3 
0.466 0.043 0.004 3 
0.468 -0.015 0.004 3 
0.468 -0.026 0.004 3 
0.47 -0.056 0.004 3 
0.47 -0.066 0.004 3 
0.47 -0.075 0.004 3 
0.472 -0.086 0.003 3 
0.476 -0.175 0.002 3 
0.475 -0.015 0 3 
0.462 0.093 0.012 3 
0.471 -0.147 0.014 3 
0.472 -0.167 0.014 3 
0.471 -0.175 0.014 3 
0.473 -0.185 0.013 3 
0.473 -0.197 0.013 3 
0.475 -0.225 0.013 3 
0.477 -0.256 0.012 3 
0.477 -0.275 0.012 3 
0.461 0.142 0.012 3 
0.462 0.134 0.012 3 
0.462 0.104 0.012 3 
0.465 0.073 0.023 3 
0.462 0.083 0.012 3 
0.463 0.072 0.012 3 
0.463 0.064 0.012 3 
0.464 0.054 0.012 3 
0.464 0.032 0.012 3 
0.464 0.024 0.012 3 
0.465 0.022 0.012 3 
0.466 0.014 0.012 3 
0.466 0.003 0.012 3 
0.467 -0.007 0.012 3 
0.466 -0.015 0.012 3 
0.473 -0.145 0.033 3 
0.467 0.014 0.033 3 
0.468 0.003 0.033 3 
0.468 -0.007 0.033 3 
0.469 -0.026 0.033 3 
0.469 -0.036 0.033 3 
0.469 -0.045 0.033 3 
0.47 -0.075 0.033 3 
0.472 -0.105 0.033 3 
0.473 -0.117 0.033 3 
0.462 0.123 0.012 3 
0.473 -0.125 0.033 3 
0.473 -0.136 0.033 3 
0.466 0.024 0.034 3 
0.474 -0.157 0.033 3 
0.475 -0.166 0.033 3 
0.474 -0.174 0.033 3 
0.475 -0.18 0.033 3 
0.475 -0.186 0.033 3 
0.475 -0.207 0.033 3 
0.475 -0.225 0.033 3 
0.476 -0.235 0.032 3 
0.477 -0.248 0.032 3 
0.477 -0.257 0.032 3 
0.478 -0.267 0.032 3 
0.463 0.132 0.033 3 
0.46 0.283 0.032 3 
0.46 0.264 0.032 3 
0.46 0.252 0.032 3 
0.46 0.243 0.032 3 
0.461 0.223 0.033 3 
0.462 0.213 0.033 3 
0.462 0.204 0.033 3 
0.462 0.193 0.033 3 
0.462 0.184 0.033 3 
0.462 0.173 0.033 3 
0.463 0.143 0.033 3 
0.478 -0.276 0.032 3 
0.463 0.124 0.033 3 
0.465 0.113 0.033 3 
0.465 0.102 0.033 3 
0.464 0.091 0.033 3 
0.465 0.083 0.033 3 
0.466 0.073 0.033 3 
0.466 0.062 0.033 3 
0.466 0.054 0.033 3 
0.467 0.043 0.033 3 
0.467 0.033 0.033 3 
0.471 -0.086 0.022 3 
0.461 0.212 0.022 3 
0.477 -0.245 0.024 3 
0.476 -0.256 0.024 3 
0.478 -0.266 0.023 3 
0.479 -0.277 0.023 3 
0.479 -0.286 0.023 3 
0.48 -0.307 0.023 3 
0.481 -0.318 0.023 3 
0.481 -0.325 0.022 3 
0.483 -0.337 0.022 3 
0.484 -0.346 0.022 3 
0.485 -0.35 0.022 3 
0.477 -0.235 0.024 3 
0.461 0.203 0.022 3 
0.461 0.184 0.022 3 
0.462 0.173 0.022 3 
0.461 0.164 0.022 3 
0.462 0.153 0.022 3 
0.462 0.142 0.022 3 
0.462 0.134 0.023 3 
0.463 0.112 0.023 3 
0.463 0.104 0.023 3 
0.464 0.094 0.023 3 
0.464 0.083 0.023 3 
0.46 0.302 0.023 3 
0.479 -0.286 0.032 3 
0.48 -0.297 0.032 3 
0.465 0.116 0.031 3 
0.464 0.097 0.031 3 
0.474 -0.186 0.03 3 
0.464 0.083 0.028 3 
0.474 -0.197 0.027 3 
0.475 -0.187 0.002 3 
0.455 0.33 0.023 3 
0.456 0.324 0.023 3 
0.459 0.313 0.023 3 
0.459 0.324 0.062 3 
0.459 0.282 0.024 3 
0.46 0.273 0.024 3 
0.461 0.262 0.024 3 
0.46 0.252 0.024 3 
0.459 0.242 0.024 3 
0.46 0.234 0.024 3 
0.474 -0.18 0.024 3 
0.474 -0.186 0.024 3 
0.474 -0.197 0.024 3 
0.474 -0.206 0.024 3 
0.475 -0.216 0.024 3 
0.465 0.054 0.103 3 
0.465 0.133 0.103 3 
0.465 0.122 0.103 3 
0.464 0.119 0.103 3 
0.472 -0.097 0.003 3 
0.464 0.113 0.103 3 
0.464 0.102 0.103 3 
0.465 0.1 0.103 3 
0.465 0.092 0.103 3 
0.465 0.084 0.103 3 
0.466 0.073 0.103 3 
0.466 0.062 0.103 3 
0.473 -0.095 0.083 3 
0.464 0.144 0.103 3 
0.467 0.033 0.103 3 
0.468 0.014 0.103 3 
0.467 0.003 0.103 3 
0.468 -0.007 0.103 3 
0.462 0.193 0.084 3 
0.47 -0.026 0.104 3 
0.47 -0.045 0.104 3 
0.471 -0.056 0.104 3 
0.472 -0.067 0.104 3 
0.473 -0.075 0.104 3 
0.484 -0.305 0.109 3 
0.46 0.322 0.082 3 
0.485 -0.316 0.112 3 
0.485 -0.327 0.112 3 
0.485 -0.337 0.113 3 
0.486 -0.345 0.113 3 
0.46 0.306 0.104 3 
0.46 0.303 0.104 3 
0.46 0.293 0.104 3 
0.461 0.282 0.104 3 
0.457 0.332 0.082 3 
0.46 0.262 0.104 3 
0.461 0.254 0.104 3 
0.457 0.332 0.102 3 
0.461 0.242 0.104 3 
0.462 0.234 0.104 3 
0.458 0.272 0.013 3 
0.463 0.214 0.104 3 
0.463 0.194 0.103 3 
0.482 -0.326 0.073 3 
0.463 0.182 0.103 3 
0.476 -0.207 0.044 3 
0.463 0.174 0.103 3 
0.462 0.162 0.103 3 
0.463 0.154 0.103 3 
0.486 -0.345 0.104 3 
0.479 -0.265 0.104 3 
0.484 -0.315 0.106 3 
0.474 -0.106 0.099 3 
0.469 -0.036 0.044 3 
0.474 -0.146 0.1 3 
0.479 -0.278 0.102 3 
0.479 -0.287 0.102 3 
0.481 -0.296 0.102 3 
0.484 -0.308 0.103 3 
0.485 -0.313 0.103 3 
0.486 -0.328 0.103 3 
0.486 -0.335 0.103 3 
0.478 -0.255 0.104 3 
0.457 0.332 0.093 3 
0.461 0.323 0.094 3 
0.46 0.303 0.093 3 
0.463 0.214 0.093 3 
0.46 0.274 0.093 3 
0.46 0.262 0.093 3 
0.46 0.253 0.093 3 
0.461 0.244 0.093 3 
0.461 0.232 0.093 3 
0.462 0.224 0.093 3 
0.462 0.193 0.092 3 
0.474 -0.137 0.102 3 
0.461 0.323 0.102 3 
0.464 0.133 0.1 3 
0.465 0.111 0.1 3 
0.467 0.043 0.044 3 
0.474 -0.095 0.102 3 
0.475 -0.098 0.102 3 
0.474 -0.126 0.094 3 
0.461 0.192 0.022 3 
0.475 -0.107 0.102 3 
0.474 -0.115 0.102 3 
0.474 -0.126 0.102 3 
0.484 -0.305 0.115 3 
0.475 -0.143 0.102 3 
0.475 -0.146 0.103 3 
0.477 -0.155 0.103 3 
0.476 -0.166 0.103 3 
0.477 -0.176 0.103 3 
0.477 -0.187 0.103 3 
0.478 -0.197 0.103 3 
0.478 -0.215 0.104 3 
0.478 -0.227 0.104 3 
0.483 -0.337 0.043 3 
0.479 -0.246 0.104 3 
0.466 0.062 0.114 3 
0.463 0.194 0.114 3 
0.463 0.163 0.114 3 
0.464 0.152 0.114 3 
0.464 0.144 0.114 3 
0.465 0.136 0.114 3 
0.465 0.133 0.114 3 
0.464 0.122 0.114 3 
0.464 0.113 0.114 3 
0.465 0.111 0.114 3 
0.465 0.103 0.114 3 
0.465 0.092 0.114 3 
0.465 0.073 0.114 3 
0.463 0.202 0.114 3 
0.462 0.242 0.084 3 
0.466 0.054 0.114 3 
0.466 0.033 0.114 3 
0.468 0.022 0.114 3 
0.468 0.014 0.114 3 
0.468 0.003 0.114 3 
0.46 0.273 0.054 3 
0.469 -0.007 0.114 3 
0.469 -0.031 0.114 3 
0.474 -0.106 0.116 3 
0.487 -0.325 0.122 3 
0.474 -0.129 0.119 3 
0.476 -0.156 0.122 3 
0.476 -0.167 0.123 3 
0.478 -0.176 0.123 3 
0.478 -0.206 0.103 3 
0.479 -0.195 0.123 3 
0.479 -0.207 0.124 3 
0.479 -0.216 0.124 3 
0.462 0.112 0.012 3 
0.479 -0.225 0.124 3 
0.48 -0.238 0.124 3 
0.464 0.113 0.117 3 
0.487 -0.347 0.122 3 
0.474 -0.135 0.119 3 
0.48 -0.247 0.122 3 
0.479 -0.256 0.122 3 
0.479 -0.265 0.122 3 
0.479 -0.258 0.044 3 
0.482 -0.287 0.123 3 
0.484 -0.295 0.123 3 
0.485 -0.3 0.124 3 
0.485 -0.306 0.124 3 
0.461 0.225 0.114 3 
0.462 0.219 0.114 3 
0.474 -0.137 0.111 3 
0.474 -0.126 0.113 3 
0.475 -0.135 0.114 3 
0.475 -0.146 0.114 3 
0.475 -0.155 0.114 3 
0.477 -0.167 0.114 3 
0.477 -0.176 0.114 3 
0.477 -0.185 0.114 3 
0.465 0.117 0.109 3 
0.461 0.294 0.082 3 
0.475 -0.095 0.11 3 
0.475 -0.115 0.111 3 
0.474 -0.115 0.113 3 
0.478 -0.197 0.112 3 
0.462 0.222 0.103 3 
0.478 -0.206 0.112 3 
0.478 -0.215 0.112 3 
0.478 -0.227 0.112 3 
0.479 -0.237 0.113 3 
0.479 -0.256 0.113 3 
0.479 -0.265 0.113 3 
0.48 -0.275 0.113 3 
0.48 -0.285 0.114 3 
0.481 -0.296 0.114 3 
0.47 -0.015 0.112 3 
0.464 0.143 0.063 3 
0.458 0.334 0.113 3 
0.461 0.324 0.113 3 
0.461 0.314 0.113 3 
0.461 0.304 0.113 3 
0.461 0.294 0.113 3 
0.461 0.282 0.113 3 
0.479 -0.255 0.052 3 
0.462 0.264 0.112 3 
0.462 0.252 0.112 3 
0.462 0.243 0.112 3 
0.462 0.184 0.092 3 
0.47 -0.036 0.112 3 
0.47 -0.045 0.112 3 
0.471 -0.056 0.112 3 
0.472 -0.067 0.112 3 
0.473 -0.075 0.113 3 
0.474 -0.087 0.113 3 
0.47 -0.066 0.033 3 
0.474 -0.095 0.113 3 
0.475 -0.107 0.113 3 
0.472 -0.097 0.033 3 
0.474 -0.109 0.113 3 
0.461 0.294 0.074 3 
0.479 -0.268 0.084 3 
0.479 -0.277 0.084 3 
0.48 -0.285 0.084 3 
0.481 -0.299 0.082 3 
0.482 -0.316 0.082 3 
0.484 -0.335 0.082 3 
0.484 -0.345 0.082 3 
0.485 -0.346 0.079 3 
0.457 0.332 0.074 3 
0.459 0.321 0.074 3 
0.459 0.314 0.074 3 
0.46 0.302 0.074 3 
0.478 -0.258 0.084 3 
0.46 0.283 0.074 3 
0.461 0.272 0.074 3 
0.461 0.262 0.073 3 
0.462 0.254 0.074 3 
0.462 0.242 0.073 3 
0.462 0.233 0.073 3 
0.462 0.224 0.073 3 
0.461 0.212 0.073 3 
0.461 0.203 0.073 3 
0.462 0.193 0.073 3 
0.462 0.184 0.073 3 
0.475 -0.14 0.083 3 
0.47 -0.036 0.082 3 
0.47 -0.045 0.082 3 
0.471 -0.056 0.082 3 
0.471 -0.067 0.082 3 
0.471 -0.075 0.082 3 
0.472 -0.086 0.082 3 
0.474 -0.106 0.083 3 
0.472 -0.117 0.083 3 
0.472 -0.125 0.083 3 
0.462 0.153 0.063 3 
0.474 -0.137 0.083 3 
0.462 0.173 0.073 3 
0.475 -0.146 0.083 3 
0.476 -0.155 0.083 3 
0.475 -0.166 0.083 3 
0.475 -0.177 0.083 3 
0.476 -0.187 0.083 3 
0.477 -0.196 0.083 3 
0.477 -0.205 0.083 3 
0.477 -0.217 0.084 3 
0.478 -0.236 0.084 3 
0.473 -0.095 0.074 3 
0.478 -0.245 0.084 3 
0.472 -0.086 0.033 3 
0.472 -0.117 0.074 3 
0.473 -0.125 0.074 3 
0.474 -0.137 0.074 3 
0.465 0.103 0.071 3 
0.475 -0.14 0.072 3 
0.475 -0.146 0.072 3 
0.475 -0.166 0.072 3 
0.474 -0.174 0.072 3 
0.476 -0.195 0.072 3 
0.478 -0.227 0.072 3 
0.478 -0.236 0.072 3 
0.473 -0.106 0.074 3 
0.478 -0.245 0.072 3 
0.478 -0.257 0.072 3 
0.478 -0.267 0.072 3 
0.478 -0.276 0.073 3 
0.479 -0.287 0.073 3 
0.48 -0.298 0.073 3 
0.482 -0.306 0.073 3 
0.483 -0.316 0.073 3 
0.484 -0.338 0.073 3 
0.486 -0.347 0.073 3 
0.484 -0.345 0.067 3 
0.465 0.073 0.074 3 
0.462 0.162 0.073 3 
0.463 0.154 0.073 3 
0.464 0.143 0.073 3 
0.464 0.124 0.073 3 
0.465 0.122 0.074 3 
0.465 0.114 0.074 3 
0.464 0.11 0.073 3 
0.464 0.102 0.073 3 
0.464 0.094 0.073 3 
0.465 0.092 0.074 3 
0.465 0.084 0.074 3 
0.469 -0.026 0.082 3 
0.467 0.062 0.074 3 
0.467 0.033 0.074 3 
0.467 0.022 0.074 3 
0.467 0.014 0.074 3 
0.468 0.003 0.074 3 
0.468 -0.007 0.074 3 
0.469 -0.015 0.074 3 
0.47 -0.026 0.074 3 
0.47 -0.036 0.074 3 
0.471 -0.075 0.074 3 
0.473 -0.086 0.074 3 
0.477 -0.187 0.092 3 
0.471 -0.056 0.093 3 
0.472 -0.067 0.093 3 
0.472 -0.075 0.093 3 
0.473 -0.086 0.094 3 
0.474 -0.095 0.094 3 
0.474 -0.106 0.094 3 
0.473 -0.117 0.094 3 
0.474 -0.137 0.094 3 
0.475 -0.146 0.094 3 
0.476 -0.155 0.094 3 
0.476 -0.166 0.094 3 
0.476 -0.175 0.094 3 
0.47 -0.045 0.093 3 
0.477 -0.196 0.092 3 
0.478 -0.206 0.092 3 
0.477 -0.217 0.092 3 
0.478 -0.227 0.092 3 
0.478 -0.236 0.092 3 
0.478 -0.245 0.092 3 
0.48 -0.287 0.043 3 
0.478 -0.258 0.093 3 
0.479 -0.268 0.093 3 
0.473 -0.125 0.044 3 
0.479 -0.277 0.093 3 
0.465 0.073 0.092 3 
0.462 0.173 0.092 3 
0.463 0.154 0.092 3 
0.464 0.132 0.092 3 
0.464 0.124 0.092 3 
0.465 0.122 0.092 3 
0.465 0.114 0.092 3 
0.465 0.103 0.092 3 
0.464 0.092 0.092 3 
0.465 0.089 0.092 3 
0.464 0.113 0.028 3 
0.465 0.084 0.092 3 
0.459 0.294 0.024 3 
0.475 -0.166 0.064 3 
0.475 -0.216 0.013 3 
0.465 0.062 0.092 3 
0.464 0.124 0.023 3 
0.465 0.054 0.092 3 
0.467 0.033 0.092 3 
0.467 0.022 0.092 3 
0.468 -0.007 0.093 3 
0.469 -0.015 0.093 3 
0.47 -0.026 0.093 3 
0.47 -0.036 0.093 3 
0.467 0.043 0.084 3 
0.477 -0.266 0.012 3 
0.465 0.119 0.084 3 
0.465 0.114 0.084 3 
0.465 0.103 0.084 3 
0.464 0.094 0.084 3 
0.465 0.084 0.084 3 
0.465 0.073 0.084 3 
0.47 -0.045 0.074 3 
0.465 0.062 0.084 3 
0.466 0.054 0.084 3 
0.477 -0.217 0.072 3 
0.464 0.124 0.084 3 
0.467 0.033 0.084 3 
0.467 0.022 0.084 3 
0.467 0.014 0.084 3 
0.467 0.003 0.084 3 
0.459 0.314 0.082 3 
0.46 0.302 0.082 3 
0.46 0.283 0.082 3 
0.465 0.125 0.082 3 
0.464 0.11 0.082 3 
0.465 0.092 0.082 3 
0.469 -0.015 0.082 3 
0.46 0.259 0.084 3 
0.481 -0.305 0.093 3 
0.484 -0.315 0.094 3 
0.485 -0.323 0.094 3 
0.484 -0.325 0.094 3 
0.485 -0.337 0.094 3 
0.485 -0.346 0.094 3 
0.464 0.111 0.087 3 
0.464 0.102 0.087 3 
0.475 -0.14 0.088 3 
0.484 -0.338 0.091 3 
0.484 -0.345 0.091 3 
0.475 -0.135 0.122 3 
0.461 0.25 0.084 3 
0.462 0.233 0.084 3 
0.462 0.224 0.084 3 
0.462 0.213 0.084 3 
0.462 0.204 0.084 3 
0.462 0.184 0.084 3 
0.462 0.173 0.084 3 
0.458 0.333 0.054 3 
0.463 0.162 0.084 3 
0.463 0.154 0.084 3 
0.464 0.132 0.084 3 
