# .PCD v0.7 - Point Cloud Data file
FIELDS x y z intensity
SIZE 4 4 4 4
TYPE F F F F
COUNT 1 1 1 1
WIDTH 2349
HEIGHT 1
VIEWPOINT 0 0 0 1 0 0 0
POINTS 2349
DATA ascii
0.371 -0.24 -0.025 1 
0.373 -0.225 -0.024 1 
0.364 -0.161 -0.019 1 
0.363 -0.135 -0.017 1 
0.363 -0.127 -0.017 1 
0.362 -0.106 -0.016 1 
0.361 -0.096 -0.016 1 
0.36 -0.06 -0.015 1 
0.361 -0.045 -0.015 1 
0.363 -0.027 -0.016 1 
0.36 0.014 -0.015 1 
0.36 0.024 -0.015 1 
0.36 0.033 -0.015 1 
0.357 0.043 -0.014 1 
0.358 0.055 -0.014 1 
0.357 0.074 -0.014 1 
0.355 0.104 -0.014 1 
0.352 0.113 -0.014 1 
0.352 0.123 -0.014 1 
0.352 0.133 -0.014 1 
0.351 0.158 -0.015 1 
0.349 0.174 -0.015 1 
0.343 0.202 -0.015 1 
0.343 0.205 -0.015 1 
0.374 -0.238 -0.024 1 
0.379 -0.234 -0.025 1 
0.364 -0.085 -0.015 1 
0.364 -0.083 -0.015 1 
0.365 -0.063 -0.015 1 
0.364 -0.056 -0.014 1 
0.364 0.043 -0.015 1 
0.364 0.064 -0.015 1 
0.364 0.074 -0.015 1 
0.361 0.083 -0.014 1 
0.361 0.085 -0.014 1 
0.362 0.087 -0.015 1 
0.362 0.104 -0.015 1 
0.361 0.105 -0.015 1 
0.359 0.121 -0.015 1 
0.358 0.124 -0.014 1 
0.357 0.136 -0.014 1 
0.352 0.173 -0.014 1 
0.349 0.211 -0.016 1 
0.383 -0.251 -0.025 1 
0.382 -0.242 -0.024 1 
0.382 -0.225 -0.023 1 
0.374 -0.195 -0.02 1 
0.373 -0.185 -0.019 1 
0.373 -0.175 -0.018 1 
0.373 -0.136 -0.017 1 
0.374 -0.128 -0.017 1 
0.373 -0.116 -0.017 1 
0.371 -0.096 -0.016 1 
0.371 -0.086 -0.015 1 
0.374 -0.078 -0.016 1 
0.369 -0.052 -0.014 1 
0.372 -0.045 -0.015 1 
0.374 -0.036 -0.016 1 
0.373 0.013 -0.016 1 
0.372 0.024 -0.016 1 
0.371 0.054 -0.016 1 
0.365 0.083 -0.014 1 
0.369 0.104 -0.016 1 
0.365 0.109 -0.014 1 
0.364 0.114 -0.014 1 
0.363 0.133 -0.014 1 
0.363 0.134 -0.015 1 
0.363 0.144 -0.015 1 
0.364 0.151 -0.015 1 
0.357 0.174 -0.014 1 
0.358 0.183 -0.015 1 
0.357 0.194 -0.015 1 
0.356 0.202 -0.015 1 
0.387 -0.255 -0.025 1 
0.382 -0.156 -0.019 1 
0.378 -0.127 -0.017 1 
0.374 -0.066 -0.014 1 
0.374 -0.059 -0.014 1 
0.373 0.064 -0.015 1 
0.372 0.065 -0.014 1 
0.373 0.084 -0.015 1 
0.372 0.123 -0.015 1 
0.37 0.133 -0.015 1 
0.361 0.222 -0.016 1 
0.362 0.226 -0.017 1 
0.394 -0.247 -0.024 1 
0.394 -0.237 -0.023 1 
0.384 -0.197 -0.019 1 
0.384 -0.166 -0.018 1 
0.384 -0.118 -0.017 1 
0.383 -0.105 -0.016 1 
0.381 -0.096 -0.015 1 
0.384 -0.085 -0.016 1 
0.384 -0.075 -0.016 1 
0.378 -0.066 -0.014 1 
0.38 -0.06 -0.014 1 
0.383 -0.055 -0.015 1 
0.384 -0.032 -0.016 1 
0.382 0.014 -0.015 1 
0.381 0.023 -0.015 1 
0.38 0.042 -0.015 1 
0.381 0.054 -0.015 1 
0.379 0.06 -0.015 1 
0.38 0.113 -0.016 1 
0.374 0.138 -0.015 1 
0.371 0.144 -0.014 1 
0.373 0.155 -0.015 1 
0.37 0.183 -0.015 1 
0.368 0.223 -0.017 1 
0.358 0.054 -0.014 1 
0.393 -0.257 -0.022 1 
0.392 -0.225 -0.02 1 
0.393 -0.219 -0.02 1 
0.393 -0.208 -0.02 1 
0.39 -0.155 -0.017 1 
0.39 -0.125 -0.017 1 
0.389 -0.116 -0.016 1 
0.389 -0.106 -0.016 1 
0.39 -0.075 -0.016 1 
0.388 -0.033 -0.015 1 
0.298 -0.005 0.013 1 
0.298 0.002 0.013 1 
0.384 0.006 -0.014 1 
0.383 0.073 -0.014 1 
0.384 0.075 -0.014 1 
0.384 0.077 -0.015 1 
0.384 0.099 -0.015 1 
0.382 0.124 -0.015 1 
0.38 0.131 -0.014 1 
0.381 0.134 -0.015 1 
0.38 0.138 -0.015 1 
0.378 0.142 -0.014 1 
0.382 0.164 -0.016 1 
0.373 0.231 -0.016 1 
0.356 0.177 -0.014 1 
0.383 -0.253 -0.017 1 
0.402 -0.272 -0.023 1 
0.404 -0.258 -0.023 1 
0.394 -0.187 -0.017 1 
0.393 -0.068 -0.015 1 
0.392 -0.066 -0.014 1 
0.392 -0.064 -0.014 1 
0.394 -0.06 -0.015 1 
0.393 -0.046 -0.015 1 
0.393 -0.04 -0.014 1 
0.395 -0.036 -0.015 1 
0.362 -0.146 -0.017 1 
0.392 0.033 -0.015 1 
0.391 0.04 -0.014 1 
0.392 0.043 -0.015 1 
0.392 0.053 -0.015 1 
0.391 0.061 -0.015 1 
0.39 0.063 -0.014 1 
0.391 0.065 -0.015 1 
0.39 0.073 -0.014 1 
0.39 0.083 -0.015 1 
0.39 0.089 -0.015 1 
0.389 0.093 -0.014 1 
0.389 0.099 -0.014 1 
0.39 0.104 -0.015 1 
0.392 0.113 -0.016 1 
0.379 0.184 -0.014 1 
0.373 0.153 -0.015 1 
0.378 0.234 -0.016 1 
0.411 -0.286 -0.024 1 
0.408 -0.257 -0.022 1 
0.383 -0.215 -0.019 1 
0.404 -0.227 -0.019 1 
0.402 -0.216 -0.019 1 
0.401 -0.205 -0.018 1 
0.401 -0.156 -0.016 1 
0.402 -0.108 -0.016 1 
0.399 -0.096 -0.015 1 
0.4 -0.075 -0.015 1 
0.399 -0.07 -0.015 1 
0.398 -0.066 -0.014 1 
0.4 -0.056 -0.015 1 
0.4 -0.053 -0.015 1 
0.398 -0.045 -0.014 1 
0.399 -0.036 -0.014 1 
0.436 -0.04 -0.026 1 
0.394 0.127 -0.015 1 
0.392 0.132 -0.014 1 
0.391 0.138 -0.014 1 
0.393 0.144 -0.015 1 
0.388 0.153 -0.013 1 
0.391 0.164 -0.015 1 
0.389 0.184 -0.015 1 
0.384 0.24 -0.016 1 
0.384 0.248 -0.016 1 
0.414 -0.266 -0.021 1 
0.413 -0.238 -0.02 1 
0.404 -0.186 -0.016 1 
0.404 -0.183 -0.016 1 
0.404 -0.165 -0.015 1 
0.403 -0.146 -0.015 1 
0.404 -0.137 -0.015 1 
0.351 0.194 -0.015 1 
0.405 -0.136 -0.015 1 
0.407 -0.077 -0.015 1 
0.406 -0.066 -0.014 1 
0.476 -0.043 -0.035 1 
0.473 -0.04 -0.035 1 
0.404 0.024 -0.014 1 
0.373 0.188 -0.014 1 
0.404 0.034 -0.014 1 
0.403 0.053 -0.014 1 
0.402 0.072 -0.014 1 
0.402 0.114 -0.015 1 
0.402 0.118 -0.015 1 
0.374 -0.105 -0.017 1 
0.401 0.124 -0.014 1 
0.394 0.157 -0.013 1 
0.394 0.165 -0.014 1 
0.393 0.194 -0.014 1 
0.393 0.198 -0.014 1 
0.394 0.223 -0.016 1 
0.391 0.243 -0.016 1 
0.413 -0.215 -0.017 1 
0.414 -0.209 -0.017 1 
0.414 -0.201 -0.017 1 
0.41 -0.186 -0.015 1 
0.413 -0.166 -0.016 1 
0.41 -0.145 -0.015 1 
0.411 -0.13 -0.015 1 
0.411 -0.125 -0.014 1 
0.413 -0.106 -0.015 1 
0.414 -0.095 -0.015 1 
0.415 -0.093 -0.015 1 
0.414 -0.086 -0.015 1 
0.413 -0.076 -0.014 1 
0.415 -0.07 -0.015 1 
0.414 -0.066 -0.015 1 
0.411 -0.045 -0.014 1 
0.411 0.024 -0.014 1 
0.408 0.054 -0.013 1 
0.409 0.063 -0.014 1 
0.409 0.072 -0.014 1 
0.409 0.083 -0.014 1 
0.409 0.124 -0.015 1 
0.404 0.132 -0.013 1 
0.404 0.144 -0.014 1 
0.403 0.154 -0.014 1 
0.401 0.162 -0.013 1 
0.403 0.183 -0.015 1 
0.403 0.185 -0.015 1 
0.4 0.224 -0.015 1 
0.399 0.233 -0.015 1 
0.393 0.258 -0.015 1 
0.424 -0.297 -0.021 1 
0.424 -0.285 -0.02 1 
0.424 -0.265 -0.019 1 
0.421 -0.256 -0.018 1 
0.424 -0.245 -0.018 1 
0.422 -0.235 -0.018 1 
0.422 -0.225 -0.017 1 
0.419 -0.163 -0.015 1 
0.414 -0.141 -0.013 1 
0.419 -0.065 -0.014 1 
0.384 -0.186 -0.018 1 
0.391 -0.145 -0.017 1 
0.402 0.103 -0.014 1 
0.421 -0.044 -0.014 1 
0.362 -0.036 -0.015 1 
0.397 0.006 -0.008 1 
0.371 0.033 -0.015 1 
0.413 0.013 -0.012 1 
0.409 0.133 -0.013 1 
0.41 0.154 -0.013 1 
0.402 0.194 -0.012 1 
0.404 0.213 -0.014 1 
0.405 0.234 -0.015 1 
0.404 0.238 -0.015 1 
0.403 0.242 -0.014 1 
0.401 0.248 -0.014 1 
0.404 0.254 -0.015 1 
0.4 0.263 -0.015 1 
0.398 0.263 -0.014 1 
0.398 0.266 -0.014 1 
0.423 -0.216 -0.015 1 
0.423 -0.195 -0.015 1 
0.423 -0.185 -0.014 1 
0.422 -0.175 -0.014 1 
0.423 -0.156 -0.014 1 
0.421 -0.145 -0.013 1 
0.422 -0.136 -0.013 1 
0.424 -0.127 -0.014 1 
0.423 -0.115 -0.013 1 
0.37 0.214 -0.017 1 
0.422 -0.105 -0.013 1 
0.424 -0.096 -0.013 1 
0.424 -0.087 -0.013 1 
0.424 -0.082 -0.013 1 
0.423 -0.056 -0.013 1 
0.423 -0.047 -0.012 1 
0.43 -0.044 -0.014 1 
0.423 0.023 -0.013 1 
0.419 -0.175 -0.015 1 
0.422 0.044 -0.013 1 
0.422 0.053 -0.013 1 
0.421 0.064 -0.013 1 
0.422 0.074 -0.013 1 
0.419 0.094 -0.012 1 
0.413 0.137 -0.011 1 
0.411 0.162 -0.011 1 
0.363 0.164 -0.016 1 
0.412 0.173 -0.012 1 
0.413 0.193 -0.013 1 
0.412 0.24 -0.014 1 
0.412 0.243 -0.015 1 
0.409 0.273 -0.015 1 
0.409 0.278 -0.015 1 
0.434 -0.287 -0.017 1 
0.434 -0.275 -0.017 1 
0.43 -0.256 -0.015 1 
0.432 -0.247 -0.016 1 
0.431 -0.227 -0.015 1 
0.43 -0.219 -0.015 1 
0.431 -0.209 -0.015 1 
0.43 -0.185 -0.014 1 
0.43 -0.177 -0.014 1 
0.432 -0.075 -0.013 1 
0.43 -0.065 -0.012 1 
0.429 -0.055 -0.012 1 
0.432 -0.046 -0.013 1 
0.479 -0.046 -0.025 1 
0.481 -0.041 -0.026 1 
0.354 0.138 -0.015 1 
0.427 0.033 -0.012 1 
0.424 0.124 -0.012 1 
0.422 0.154 -0.012 1 
0.417 0.164 -0.011 1 
0.418 0.174 -0.012 1 
0.419 0.183 -0.012 1 
0.414 0.206 -0.011 1 
0.416 0.278 -0.015 1 
0.414 0.284 -0.014 1 
0.434 -0.311 -0.016 1 
0.439 -0.295 -0.016 1 
0.438 -0.279 -0.016 1 
0.434 -0.246 -0.014 1 
0.434 -0.243 -0.013 1 
0.434 -0.217 -0.013 1 
0.431 -0.207 -0.012 1 
0.382 -0.073 -0.015 1 
0.433 -0.198 -0.012 1 
0.433 -0.157 -0.012 1 
0.433 -0.146 -0.011 1 
0.434 -0.125 -0.011 1 
0.434 -0.115 -0.011 1 
0.434 -0.11 -0.011 1 
0.434 -0.097 -0.011 1 
0.434 -0.085 -0.011 1 
0.402 0.064 -0.014 1 
0.444 -0.043 -0.013 1 
0.48 -0.046 -0.023 1 
0.323 -0.016 0.017 1 
0.324 -0.008 0.016 1 
0.331 0 0.015 1 
0.332 0.001 0.014 1 
0.433 0.043 -0.011 1 
0.433 0.053 -0.011 1 
0.433 0.062 -0.011 1 
0.433 0.072 -0.011 1 
0.433 0.084 -0.011 1 
0.414 -0.061 -0.015 1 
0.433 0.094 -0.011 1 
0.424 0.194 -0.011 1 
0.421 0.204 -0.011 1 
0.422 0.223 -0.012 1 
0.422 0.234 -0.012 1 
0.421 0.238 -0.012 1 
0.421 0.252 -0.012 1 
0.421 0.274 -0.013 1 
0.419 0.284 -0.013 1 
0.436 -0.314 -0.014 1 
0.44 -0.315 -0.015 1 
0.424 -0.214 -0.015 1 
0.445 -0.305 -0.015 1 
0.445 -0.298 -0.015 1 
0.444 -0.294 -0.015 1 
0.443 -0.287 -0.014 1 
0.433 -0.265 -0.011 1 
0.434 -0.26 -0.011 1 
0.414 0.103 -0.013 1 
0.44 -0.235 -0.012 1 
0.441 -0.225 -0.012 1 
0.44 -0.216 -0.012 1 
0.441 -0.195 -0.012 1 
0.442 -0.185 -0.012 1 
0.442 -0.175 -0.012 1 
0.439 -0.165 -0.011 1 
0.442 -0.146 -0.011 1 
0.444 -0.137 -0.011 1 
0.44 -0.115 -0.01 1 
0.44 -0.105 -0.01 1 
0.44 -0.095 -0.01 1 
0.42 0.082 -0.012 1 
0.442 -0.085 -0.01 1 
0.443 -0.076 -0.011 1 
0.374 0.184 -0.014 1 
0.441 -0.065 -0.01 1 
0.441 -0.055 -0.01 1 
0.463 -0.044 -0.015 1 
0.327 -0.015 0.017 1 
0.333 -0.01 0.016 1 
0.34 -0.005 0.014 1 
0.344 0.002 0.013 1 
0.349 0.003 0.012 1 
0.44 0.032 -0.01 1 
0.44 0.044 -0.01 1 
0.439 0.054 -0.01 1 
0.434 0.121 -0.01 1 
0.433 0.143 -0.01 1 
0.432 0.153 -0.01 1 
0.431 0.163 -0.01 1 
0.422 0.293 -0.012 1 
0.45 -0.33 -0.015 1 
0.451 -0.321 -0.015 1 
0.443 -0.269 -0.011 1 
0.443 -0.246 -0.011 1 
0.476 -0.04 -0.016 1 
0.473 -0.037 -0.015 1 
0.468 -0.034 -0.014 1 
0.343 -0.015 0.015 1 
0.364 0.007 -0.014 1 
0.404 -0.237 -0.02 1 
0.361 -0.006 0.01 1 
0.359 0.002 0.011 1 
0.444 0.063 -0.009 1 
0.444 0.073 -0.009 1 
0.444 0.083 -0.009 1 
0.439 0.124 -0.008 1 
0.441 0.132 -0.009 1 
0.434 0.183 -0.008 1 
0.431 0.194 -0.008 1 
0.433 0.224 -0.009 1 
0.432 0.234 -0.009 1 
0.432 0.24 -0.009 1 
0.433 0.252 -0.01 1 
0.434 0.264 -0.011 1 
0.432 0.274 -0.011 1 
0.433 0.284 -0.011 1 
0.383 -0.205 -0.019 1 
0.452 -0.325 -0.012 1 
0.414 0.27 -0.014 1 
0.454 -0.317 -0.012 1 
0.452 -0.278 -0.011 1 
0.452 -0.257 -0.01 1 
0.449 -0.245 -0.009 1 
0.45 -0.235 -0.009 1 
0.451 -0.225 -0.009 1 
0.453 -0.215 -0.01 1 
0.451 -0.205 -0.009 1 
0.451 -0.197 -0.009 1 
0.452 -0.187 -0.009 1 
0.453 -0.155 -0.009 1 
0.454 -0.15 -0.009 1 
0.454 -0.136 -0.009 1 
0.453 -0.115 -0.008 1 
0.453 -0.107 -0.008 1 
0.454 -0.097 -0.008 1 
0.439 -0.207 -0.011 1 
0.454 -0.086 -0.008 1 
0.453 -0.065 -0.008 1 
0.453 -0.055 -0.008 1 
0.454 -0.053 -0.008 1 
0.449 -0.027 -0.007 1 
0.444 -0.016 -0.006 1 
0.446 -0.006 -0.006 1 
0.449 0.003 -0.007 1 
0.452 0.034 -0.008 1 
0.44 0.144 -0.009 1 
0.452 0.044 -0.008 1 
0.443 0.162 -0.008 1 
0.441 0.174 -0.007 1 
0.442 0.194 -0.008 1 
0.442 0.204 -0.008 1 
0.439 0.213 -0.008 1 
0.439 0.224 -0.008 1 
0.43 0.296 -0.008 1 
0.457 -0.077 -0.006 1 
0.384 -0.237 -0.025 1 
0.458 -0.056 -0.006 1 
0.456 0.003 -0.006 1 
0.456 0.024 -0.006 1 
0.454 0.054 -0.006 1 
0.454 0.062 -0.006 1 
0.454 0.083 -0.006 1 
0.454 0.093 -0.006 1 
0.452 0.114 -0.006 1 
0.452 0.132 -0.006 1 
0.452 0.153 -0.007 1 
0.444 0.242 -0.007 1 
0.443 0.273 -0.008 1 
0.442 0.284 -0.008 1 
0.413 -0.039 -0.016 1 
0.441 0.314 -0.009 1 
0.459 -0.257 -0.006 1 
0.46 -0.178 -0.005 1 
0.46 -0.156 -0.005 1 
0.462 -0.041 -0.005 1 
0.46 0.04 -0.005 1 
0.454 0.154 -0.004 1 
0.453 0.157 -0.004 1 
0.453 0.163 -0.005 1 
0.451 0.18 -0.004 1 
0.393 0.232 -0.016 1 
0.451 0.183 -0.005 1 
0.453 0.193 -0.005 1 
0.452 0.203 -0.005 1 
0.449 0.212 -0.005 1 
0.45 0.224 -0.005 1 
0.45 0.233 -0.005 1 
0.448 0.243 -0.005 1 
0.446 0.261 -0.005 1 
0.447 0.271 -0.006 1 
0.447 0.283 -0.006 1 
0.443 0.294 -0.006 1 
0.441 0.298 -0.005 1 
0.464 -0.338 -0.007 1 
0.428 0.133 -0.011 1 
0.441 0.262 -0.007 1 
0.465 -0.326 -0.006 1 
0.381 0.181 -0.015 1 
0.462 -0.316 -0.006 1 
0.464 -0.295 -0.005 1 
0.466 -0.278 -0.005 1 
0.465 -0.274 -0.005 1 
0.463 -0.266 -0.004 1 
0.462 -0.256 -0.004 1 
0.463 -0.225 -0.004 1 
0.462 -0.216 -0.003 1 
0.453 0.232 -0.003 1 
0.453 0.244 -0.004 1 
0.452 0.252 -0.004 1 
0.45 0.262 -0.003 1 
0.451 0.281 -0.004 1 
0.451 0.293 -0.005 1 
0.451 0.302 -0.005 1 
0.449 0.323 -0.005 1 
0.462 -0.343 -0.004 1 
0.469 -0.337 -0.005 1 
0.464 -0.214 -0.001 1 
0.464 -0.186 -0.001 1 
0.464 -0.177 -0.001 1 
0.399 -0.196 -0.017 1 
0.464 -0.155 0 1 
0.464 -0.147 0 1 
0.453 0.304 -0.003 1 
0.453 0.314 -0.003 1 
0.451 0.322 -0.003 1 
0.465 -0.119 0.001 1 
0.451 -0.295 -0.011 1 
0.463 -0.015 0.002 1 
0.463 0.014 0.002 1 
0.461 0.093 0.002 1 
0.462 0.104 0.002 1 
0.461 0.114 0.002 1 
0.468 -0.267 0.002 1 
0.468 -0.255 0.002 1 
0.468 -0.226 0.003 1 
0.466 -0.187 0.003 1 
0.466 -0.175 0.004 1 
0.465 -0.166 0.004 1 
0.466 -0.156 0.004 1 
0.465 -0.147 0.004 1 
0.374 -0.206 -0.022 1 
0.418 0.114 -0.012 1 
0.465 -0.136 0.004 1 
0.464 -0.119 0.004 1 
0.464 -0.105 0.004 1 
0.464 -0.1 0.004 1 
0.46 0.122 0.004 1 
0.459 0.152 0.004 1 
0.461 0.164 0.004 1 
0.461 0.184 0.003 1 
0.46 0.194 0.003 1 
0.459 0.202 0.003 1 
0.46 0.223 0.003 1 
0.458 0.233 0.003 1 
0.459 0.243 0.003 1 
0.384 -0.175 -0.018 1 
0.46 0.262 0.002 1 
0.461 0.272 0.002 1 
0.473 -0.338 0.003 1 
0.473 -0.327 0.003 1 
0.383 0.154 -0.014 1 
0.473 -0.317 0.003 1 
0.471 -0.305 0.004 1 
0.469 -0.278 0.004 1 
0.46 0.283 0.004 1 
0.459 0.291 0.004 1 
0.459 0.304 0.004 1 
0.459 0.314 0.004 1 
0.46 0.321 0.003 1 
0.387 0.014 -0.015 1 
0.46 0.332 0.003 1 
0.371 0.15 -0.014 1 
0.466 0.342 0.002 1 
0.46 0.214 0.003 1 
0.456 0.134 -0.005 1 
0.465 -0.287 -0.005 1 
0.46 -0.195 -0.005 1 
0.455 0.073 -0.006 1 
0.455 0.052 -0.006 1 
0.457 -0.007 -0.006 1 
0.458 -0.025 -0.007 1 
0.462 -0.046 -0.005 1 
0.458 -0.067 -0.006 1 
0.414 0.204 -0.011 1 
0.382 -0.146 -0.017 1 
0.461 -0.094 -0.005 1 
0.457 -0.106 -0.006 1 
0.46 -0.131 -0.005 1 
0.46 -0.145 -0.005 1 
0.374 -0.034 -0.016 1 
0.378 0.188 -0.014 1 
0.447 0.253 -0.005 1 
0.458 -0.165 -0.005 1 
0.46 -0.186 -0.005 1 
0.46 -0.226 -0.006 1 
0.452 -0.306 -0.012 1 
0.46 -0.246 -0.006 1 
0.442 0.252 -0.007 1 
0.464 -0.289 -0.005 1 
0.462 -0.326 -0.009 1 
0.404 -0.085 -0.016 1 
0.443 -0.275 -0.011 1 
0.413 0.112 -0.013 1 
0.374 0.174 -0.016 1 
0.413 0.123 -0.013 1 
0.372 0.237 -0.016 1 
0.389 0.172 -0.015 1 
0.432 0.103 -0.011 1 
0.436 -0.274 -0.015 1 
0.444 0.09 -0.009 1 
0.444 0.103 -0.009 1 
0.451 0.142 -0.006 1 
0.465 -0.128 0.004 1 
0.431 0.173 -0.01 1 
0.459 -0.046 -0.025 1 
0.47 -0.245 0.002 1 
0.45 0.074 -0.008 1 
0.464 -0.135 0 1 
0.452 0.124 -0.006 1 
0.442 0.013 -0.011 1 
0.441 -0.255 -0.01 1 
0.452 0.326 -0.003 1 
0.464 -0.039 -0.04 1 
0.374 0.073 -0.015 1 
0.362 -0.066 -0.016 1 
0.391 0.258 -0.014 1 
0.444 0.154 -0.007 1 
0.354 0.164 -0.014 1 
0.412 -0.041 -0.014 1 
0.464 -0.166 0.001 1 
0.461 0.336 0 1 
0.459 -0.217 -0.006 1 
0.383 -0.036 -0.015 1 
0.452 0.313 -0.005 1 
0.46 0.144 0.004 1 
0.393 -0.196 -0.017 1 
0.414 0.094 -0.013 1 
0.372 -0.215 -0.024 1 
0.444 -0.051 -0.011 1 
0.428 0.204 -0.008 1 
0.431 0.294 -0.009 1 
0.428 0.014 -0.012 1 
0.424 -0.276 -0.02 1 
0.431 0.113 -0.011 1 
0.423 -0.042 -0.015 1 
0.454 0.224 -0.003 1 
0.384 0.091 -0.015 1 
0.346 -0.012 0.014 1 
0.445 -0.021 -0.006 1 
0.46 -0.115 -0.005 1 
0.354 0.204 -0.017 1 
0.395 0.214 -0.016 1 
0.454 0.144 -0.004 1 
0.46 -0.136 -0.005 1 
0.414 -0.247 -0.021 1 
0.388 0.124 -0.015 1 
0.461 0.003 0.002 1 
0.47 -0.236 0.002 1 
0.373 0.062 -0.014 1 
0.412 0.222 -0.014 1 
0.406 -0.226 -0.018 1 
0.422 -0.165 -0.014 1 
0.393 -0.095 -0.015 1 
0.432 -0.236 -0.015 1 
0.374 0.094 -0.015 1 
0.43 -0.265 -0.016 1 
0.393 0.203 -0.015 1 
0.463 -0.025 0.002 1 
0.392 0.024 -0.015 1 
0.453 -0.125 -0.008 1 
0.413 -0.056 -0.014 1 
0.384 0.063 -0.014 1 
0.46 0.133 0.004 1 
0.422 0.133 -0.011 1 
0.451 -0.265 -0.01 1 
0.419 -0.165 -0.015 1 
0.464 -0.246 -0.004 1 
0.394 0.176 -0.014 1 
0.412 0.246 -0.015 1 
0.394 0.254 -0.015 1 
0.457 -0.017 -0.006 1 
0.402 0.175 -0.014 1 
0.454 0.213 -0.003 1 
0.421 0.014 -0.012 1 
0.461 0.173 0.003 1 
0.408 0.252 -0.014 1 
0.393 0.006 -0.009 1 
0.47 -0.298 0.004 1 
0.391 -0.239 -0.025 1 
0.464 -0.27 -0.005 1 
0.371 0.114 -0.015 1 
0.381 0.033 -0.015 1 
0.414 0.181 -0.013 1 
0.394 -0.178 -0.017 1 
0.41 0.044 -0.014 1 
0.433 -0.295 -0.018 1 
0.421 0.263 -0.013 1 
0.42 0.144 -0.011 1 
0.362 0.078 -0.015 1 
0.412 0.262 -0.013 1 
0.402 0.109 -0.014 1 
0.449 -0.044 -0.012 1 
0.442 0.022 -0.011 1 
0.46 0.253 0.002 1 
0.394 -0.038 -0.015 1 
0.451 -0.286 -0.011 1 
0.413 -0.176 -0.016 1 
0.381 0.204 -0.015 1 
0.411 -0.155 -0.015 1 
0.399 -0.062 -0.014 1 
0.404 0.084 -0.015 1 
0.429 0.024 -0.012 1 
0.461 -0.007 0.002 1 
0.359 0.169 -0.015 1 
0.343 -0.013 0.015 1 
0.401 -0.125 -0.016 1 
0.464 -0.125 0 1 
0.453 -0.076 -0.008 1 
0.47 -0.288 0.004 1 
0.419 0.103 -0.013 1 
0.39 -0.246 -0.025 1 
0.413 -0.115 -0.015 1 
0.397 0.088 -0.015 1 
0.364 -0.052 -0.014 1 
0.417 -0.186 -0.015 1 
0.444 -0.011 -0.006 1 
0.441 0.114 -0.009 1 
0.402 0.173 -0.014 1 
0.453 -0.176 -0.009 1 
0.405 0.173 -0.015 1 
0.443 -0.312 -0.015 1 
0.44 -0.125 -0.01 1 
0.352 0.183 -0.015 1 
0.383 0.222 -0.017 1 
0.46 -0.276 -0.007 1 
0.457 0.013 -0.006 1 
0.394 0.209 -0.015 1 
0.374 -0.155 -0.018 1 
0.451 0.272 -0.004 1 
0.451 0.29 -0.004 1 
0.434 -0.137 -0.011 1 
0.365 0.087 -0.014 1 
0.403 0.075 -0.014 1 
0.462 0.083 0.002 1 
0.38 0.194 -0.015 1 
0.384 -0.255 -0.024 1 
0.393 -0.093 -0.015 1 
0.402 0.042 -0.014 1 
0.411 0.033 -0.014 1 
0.36 -0.116 -0.016 1 
0.383 0.213 -0.016 1 
0.421 0.034 -0.012 1 
0.411 0.234 -0.014 1 
0.4 0.204 -0.012 1 
0.461 -0.096 -0.005 1 
0.428 0.21 -0.008 1 
0.364 0.046 -0.015 1 
0.374 0.134 -0.014 1 
0.391 -0.165 -0.018 1 
0.37 0.044 -0.015 1 
0.37 -0.148 -0.018 1 
0.456 0.034 -0.006 1 
0.413 -0.276 -0.022 1 
0.383 0.094 -0.014 1 
0.374 0.186 -0.015 1 
0.434 -0.167 -0.012 1 
0.452 0.023 -0.008 1 
0.46 -0.206 -0.006 1 
0.399 0.029 -0.015 1 
0.452 -0.168 -0.009 1 
0.452 0.173 -0.005 1 
0.383 0.174 -0.015 1 
0.463 -0.196 -0.003 1 
0.37 -0.065 -0.015 1 
0.453 0.104 -0.006 1 
0.409 0.264 -0.015 1 
0.421 0.212 -0.011 1 
0.452 0.013 -0.008 1 
0.444 0.233 -0.007 1 
0.404 -0.115 -0.017 1 
0.387 0.189 -0.015 1 
0.461 -0.235 -0.006 1 
0.404 -0.245 -0.022 1 
0.384 -0.136 -0.017 1 
0.439 -0.155 -0.011 1 
0.462 -0.306 -0.005 1 
0.391 -0.136 -0.017 1 
0.373 0.203 -0.017 1 
0.362 0.214 -0.016 1 
0.373 -0.166 -0.018 1 
0.411 0.187 -0.015 1 
0.439 0.183 -0.007 1 
0.382 -0.045 -0.015 1 
0.402 0.094 -0.014 1 
0.468 -0.166 0.154 3 
0.466 -0.077 0.152 3 
0.467 -0.085 0.152 3 
0.466 -0.096 0.152 3 
0.47 -0.245 0.094 3 
0.466 -0.107 0.152 3 
0.467 -0.115 0.153 3 
0.467 -0.126 0.153 3 
0.468 -0.135 0.154 3 
0.468 -0.146 0.154 3 
0.468 -0.155 0.154 3 
0.461 0.282 0.132 3 
0.459 0.334 0.062 3 
0.468 -0.175 0.154 3 
0.474 -0.3 0.16 3 
0.464 -0.135 0.015 3 
0.477 -0.327 0.162 3 
0.478 -0.335 0.162 3 
0.479 -0.347 0.163 3 
0.461 0.336 0.154 3 
0.461 0.332 0.154 3 
0.46 0.234 0.062 3 
0.465 -0.036 0.154 3 
0.46 0.152 0.033 3 
0.465 -0.065 0.154 3 
0.474 -0.275 0.162 3 
0.461 0.204 0.114 3 
0.475 -0.285 0.162 3 
0.475 -0.295 0.163 3 
0.474 -0.352 0.064 3 
0.476 -0.306 0.163 3 
0.476 -0.316 0.164 3 
0.462 0.259 0.154 3 
0.464 -0.038 0.154 3 
0.464 -0.036 0.143 3 
0.465 -0.047 0.154 3 
0.462 0.253 0.154 3 
0.462 0.244 0.154 3 
0.462 0.232 0.154 3 
0.462 0.223 0.153 3 
0.461 0.211 0.153 3 
0.461 0.274 0.062 3 
0.462 0.194 0.153 3 
0.462 0.183 0.152 3 
0.462 0.171 0.152 3 
0.465 -0.055 0.152 3 
0.463 0.084 0.143 3 
0.463 0.183 0.144 3 
0.462 0.174 0.144 3 
0.461 0.162 0.143 3 
0.462 0.154 0.144 3 
0.463 0.144 0.144 3 
0.463 0.133 0.144 3 
0.463 0.124 0.143 3 
0.463 0.113 0.143 3 
0.464 -0.087 0.002 3 
0.463 0.103 0.143 3 
0.463 0.094 0.143 3 
0.462 0.194 0.144 3 
0.462 0.062 0.143 3 
0.462 0.054 0.143 3 
0.463 0.033 0.143 3 
0.463 0.022 0.143 3 
0.462 0.014 0.143 3 
0.465 -0.189 0.014 3 
0.462 0.003 0.143 3 
0.475 -0.307 0.134 3 
0.463 -0.006 0.143 3 
0.464 -0.017 0.143 3 
0.467 -0.047 0.163 3 
0.471 -0.226 0.153 3 
0.463 0.304 0.153 3 
0.462 0.154 0.133 3 
0.461 0.293 0.152 3 
0.462 0.284 0.152 3 
0.463 0.073 0.143 3 
0.462 -0.006 0.092 3 
0.463 0.273 0.152 3 
0.468 -0.186 0.152 3 
0.469 -0.195 0.152 3 
0.469 -0.206 0.152 3 
0.47 -0.216 0.153 3 
0.463 0.314 0.154 3 
0.458 0.242 0.014 3 
0.471 -0.235 0.154 3 
0.472 -0.245 0.154 3 
0.471 -0.256 0.151 3 
0.472 -0.266 0.152 3 
0.473 -0.277 0.153 3 
0.461 0.203 0.063 3 
0.475 -0.285 0.153 3 
0.475 -0.295 0.154 3 
0.475 -0.308 0.154 3 
0.463 0.003 0.132 3 
0.468 -0.155 0.162 3 
0.463 0.254 0.163 3 
0.463 0.242 0.163 3 
0.463 0.233 0.162 3 
0.464 0.014 0.159 3 
0.461 0.203 0.084 3 
0.464 0.003 0.159 3 
0.469 -0.127 0.162 3 
0.469 -0.136 0.162 3 
0.478 -0.357 0.163 3 
0.469 -0.147 0.162 3 
0.477 -0.358 0.133 3 
0.463 0.261 0.163 3 
0.47 -0.276 0.083 3 
0.469 -0.167 0.163 3 
0.469 -0.175 0.163 3 
0.47 -0.185 0.164 3 
0.466 -0.106 0.104 3 
0.468 -0.255 0.052 3 
0.47 -0.196 0.164 3 
0.47 -0.205 0.164 3 
0.466 -0.167 0.034 3 
0.47 -0.217 0.164 3 
0.477 -0.328 0.171 3 
0.474 -0.275 0.17 3 
0.469 -0.197 0.124 3 
0.467 -0.055 0.163 3 
0.466 -0.066 0.163 3 
0.461 0.294 0.113 3 
0.467 -0.077 0.163 3 
0.467 -0.085 0.163 3 
0.467 -0.096 0.164 3 
0.467 -0.107 0.164 3 
0.46 0.283 0.024 3 
0.468 -0.116 0.164 3 
0.474 -0.265 0.17 3 
0.466 -0.167 0.023 3 
0.46 0.183 0.033 3 
0.475 -0.295 0.172 3 
0.477 -0.307 0.173 3 
0.461 0.339 0.143 3 
0.476 -0.316 0.173 3 
0.464 0.287 0.164 3 
0.464 0.283 0.164 3 
0.464 -0.025 0.143 3 
0.468 -0.205 0.113 3 
0.464 0.271 0.164 3 
0.465 0.265 0.164 3 
0.463 0.073 0.154 3 
0.465 0.334 0.161 3 
0.46 0.333 0.122 3 
0.465 0.313 0.16 3 
0.462 0.157 0.154 3 
0.462 0.149 0.154 3 
0.463 0.138 0.154 3 
0.463 0.133 0.154 3 
0.463 0.119 0.154 3 
0.463 0.114 0.154 3 
0.463 0.094 0.154 3 
0.464 0.084 0.154 3 
0.466 -0.351 0.166 3 
0.463 0.062 0.154 3 
0.463 0.054 0.154 3 
0.463 0.043 0.154 3 
0.464 0.022 0.154 3 
0.469 -0.247 0.033 3 
0.464 0.014 0.154 3 
0.464 0.003 0.154 3 
0.463 -0.006 0.154 3 
0.465 -0.014 0.154 3 
0.464 -0.017 0.154 3 
0.464 -0.025 0.154 3 
0.464 0.302 0.162 3 
0.479 -0.337 0.172 3 
0.48 -0.345 0.173 3 
0.479 -0.355 0.173 3 
0.474 -0.36 0.172 3 
0.463 0.342 0.164 3 
0.462 0.334 0.163 3 
0.46 0.271 0.104 3 
0.464 0.322 0.163 3 
0.465 0.32 0.163 3 
0.464 0.312 0.163 3 
0.461 0.134 0.073 3 
0.465 -0.195 0.014 3 
0.464 0.022 0.157 3 
0.464 -0.03 0.156 3 
0.464 -0.038 0.157 3 
0.471 -0.226 0.162 3 
0.465 -0.136 0.093 3 
0.472 -0.236 0.163 3 
0.473 -0.246 0.163 3 
0.473 -0.258 0.164 3 
0.46 0.243 0.043 3 
0.473 -0.267 0.164 3 
0.473 -0.295 0.133 3 
0.47 -0.227 0.133 3 
0.47 -0.236 0.134 3 
0.463 -0.007 0.052 3 
0.471 -0.246 0.134 3 
0.471 -0.256 0.134 3 
0.464 -0.127 0.02 3 
0.474 -0.296 0.136 3 
0.471 -0.265 0.132 3 
0.472 -0.278 0.132 3 
0.473 -0.285 0.133 3 
0.472 -0.306 0.072 3 
0.469 -0.215 0.133 3 
0.477 -0.316 0.134 3 
0.474 -0.358 0.135 3 
0.461 0.17 0.124 3 
0.461 0.164 0.124 3 
0.462 0.148 0.124 3 
0.46 0.183 0.052 3 
0.462 0.143 0.124 3 
0.461 0.134 0.124 3 
0.462 0.124 0.124 3 
0.462 0.113 0.124 3 
0.461 0.104 0.124 3 
0.473 -0.295 0.113 3 
0.466 -0.095 0.133 3 
0.466 -0.115 0.133 3 
0.466 -0.126 0.134 3 
0.462 -0.017 0.113 3 
0.466 -0.137 0.134 3 
0.466 -0.145 0.134 3 
0.467 -0.157 0.134 3 
0.467 -0.165 0.134 3 
0.478 -0.345 0.142 3 
0.478 -0.356 0.142 3 
0.462 0.339 0.134 3 
0.461 0.094 0.124 3 
0.459 0.332 0.133 3 
0.471 -0.286 0.092 3 
0.461 0.324 0.133 3 
0.461 0.314 0.133 3 
0.461 0.301 0.133 3 
0.461 0.292 0.132 3 
0.461 0.273 0.132 3 
0.467 -0.177 0.132 3 
0.469 -0.186 0.132 3 
0.468 -0.197 0.132 3 
0.468 -0.205 0.132 3 
0.465 -0.087 0.122 3 
0.461 0.264 0.123 3 
0.461 0.243 0.123 3 
0.46 0.233 0.123 3 
0.464 -0.046 0.114 3 
0.46 0.224 0.123 3 
0.461 0.204 0.122 3 
0.461 0.193 0.122 3 
0.462 0.182 0.122 3 
0.465 -0.076 0.122 3 
0.464 -0.079 0.122 3 
0.461 0.212 0.103 3 
0.46 0.272 0.123 3 
0.465 -0.095 0.122 3 
0.466 -0.106 0.123 3 
0.466 -0.117 0.123 3 
0.466 -0.126 0.123 3 
0.466 -0.137 0.123 3 
0.466 -0.145 0.123 3 
0.467 -0.157 0.123 3 
0.467 -0.165 0.123 3 
0.467 -0.176 0.123 3 
0.468 -0.185 0.124 3 
0.47 0.354 0.197 3 
0.464 -0.025 0.124 3 
0.461 0.083 0.124 3 
0.461 0.072 0.124 3 
0.462 0.064 0.124 3 
0.462 0.054 0.124 3 
0.461 0.043 0.124 3 
0.461 0.032 0.124 3 
0.461 0.024 0.124 3 
0.462 0.014 0.124 3 
0.462 0.003 0.124 3 
0.463 -0.006 0.124 3 
0.463 -0.017 0.124 3 
0.465 -0.087 0.133 3 
0.463 -0.036 0.124 3 
0.463 -0.046 0.124 3 
0.464 -0.057 0.124 3 
0.464 -0.065 0.124 3 
0.477 -0.326 0.132 3 
0.469 -0.275 0.044 3 
0.476 -0.335 0.132 3 
0.478 -0.348 0.133 3 
0.462 0.302 0.124 3 
0.462 0.293 0.124 3 
0.461 0.282 0.124 3 
0.461 0.312 0.142 3 
0.467 -0.126 0.142 3 
0.466 -0.145 0.142 3 
0.467 -0.157 0.143 3 
0.467 -0.165 0.143 3 
0.467 -0.177 0.143 3 
0.466 -0.185 0.143 3 
0.469 -0.198 0.144 3 
0.469 -0.206 0.144 3 
0.47 -0.216 0.144 3 
0.46 0.331 0.142 3 
0.461 0.322 0.142 3 
0.461 0.214 0.142 3 
0.471 -0.225 0.142 3 
0.471 -0.237 0.142 3 
0.472 -0.247 0.143 3 
0.471 -0.256 0.143 3 
0.471 -0.265 0.143 3 
0.473 -0.276 0.144 3 
0.461 0.048 0.134 3 
0.475 -0.288 0.142 3 
0.466 -0.207 0.014 3 
0.474 -0.293 0.142 3 
0.461 0.064 0.023 3 
0.476 -0.358 0.154 3 
0.466 -0.055 0.144 3 
0.464 -0.065 0.143 3 
0.465 -0.068 0.144 3 
0.466 -0.076 0.144 3 
0.466 -0.085 0.144 3 
0.466 -0.106 0.144 3 
0.466 -0.115 0.144 3 
0.476 -0.319 0.152 3 
0.477 -0.327 0.153 3 
0.478 -0.338 0.153 3 
0.478 -0.345 0.154 3 
0.475 -0.297 0.142 3 
0.476 -0.338 0.114 3 
0.462 0.303 0.144 3 
0.461 0.292 0.144 3 
0.461 0.283 0.143 3 
0.46 -0.007 0.013 3 
0.462 0.274 0.144 3 
0.463 0.263 0.143 3 
0.462 0.253 0.143 3 
0.462 0.244 0.143 3 
0.461 0.234 0.142 3 
0.461 0.222 0.142 3 
0.461 0.014 0.132 3 
0.462 0.113 0.132 3 
0.461 0.102 0.132 3 
0.464 -0.036 0.092 3 
0.462 0.094 0.132 3 
0.461 0.083 0.132 3 
0.462 0.072 0.132 3 
0.462 0.064 0.132 3 
0.462 0.043 0.132 3 
0.46 0.243 0.062 3 
0.462 0.032 0.132 3 
0.462 0.024 0.132 3 
0.462 0.124 0.132 3 
0.463 -0.006 0.132 3 
0.471 -0.295 0.012 3 
0.463 -0.017 0.132 3 
0.463 -0.036 0.132 3 
0.464 -0.046 0.132 3 
0.468 -0.247 0.013 3 
0.465 -0.057 0.133 3 
0.464 -0.062 0.132 3 
0.464 -0.065 0.132 3 
0.465 -0.071 0.133 3 
0.465 -0.076 0.133 3 
0.464 -0.116 0.02 3 
0.461 0.203 0.092 3 
0.476 -0.308 0.143 3 
0.476 -0.315 0.143 3 
0.477 -0.326 0.144 3 
0.477 -0.337 0.144 3 
0.461 0.258 0.134 3 
0.461 0.252 0.134 3 
0.461 0.243 0.134 3 
0.461 0.252 0.123 3 
0.461 0.234 0.134 3 
0.46 0.224 0.133 3 
0.465 -0.047 0.143 3 
0.461 0.213 0.134 3 
0.471 -0.265 0.123 3 
0.461 0.202 0.133 3 
0.462 0.193 0.133 3 
0.467 -0.148 0.052 3 
0.461 0.181 0.133 3 
0.461 0.173 0.133 3 
0.462 0.162 0.133 3 
0.461 0.142 0.132 3 
0.461 0.134 0.132 3 
0.469 -0.007 0.183 3 
0.467 0.074 0.183 3 
0.468 0.063 0.183 3 
0.469 0.053 0.183 3 
0.477 -0.358 0.194 3 
0.468 0.044 0.183 3 
0.468 0.033 0.183 3 
0.468 0.022 0.183 3 
0.468 0.014 0.183 3 
0.461 0.303 0.082 3 
0.468 0.003 0.183 3 
0.463 0.043 0.052 3 
0.467 0.082 0.183 3 
0.477 -0.319 0.123 3 
0.469 -0.015 0.183 3 
0.468 -0.026 0.183 3 
0.468 -0.044 0.174 3 
0.468 -0.036 0.183 3 
0.47 -0.045 0.183 3 
0.465 -0.057 0.063 3 
0.469 -0.056 0.183 3 
0.47 -0.067 0.184 3 
0.47 -0.075 0.184 3 
0.461 0.304 0.113 3 
0.47 -0.168 0.174 3 
0.481 -0.337 0.2 3 
0.482 -0.345 0.201 3 
0.481 -0.356 0.202 3 
0.474 -0.363 0.2 3 
0.471 0.355 0.195 3 
0.47 0.35 0.194 3 
0.468 0.34 0.192 3 
0.467 0.331 0.191 3 
0.467 -0.145 0.093 3 
0.466 0.181 0.184 3 
0.466 0.172 0.184 3 
0.47 -0.086 0.184 3 
0.466 -0.137 0.142 3 
0.465 0.163 0.184 3 
0.465 0.154 0.183 3 
0.462 0.197 0.144 3 
0.466 0.143 0.183 3 
0.467 0.132 0.183 3 
0.468 0.124 0.184 3 
0.466 -0.106 0.133 3 
0.468 0.113 0.184 3 
0.467 0.104 0.183 3 
0.468 0.094 0.183 3 
0.471 -0.165 0.183 3 
0.465 0.194 0.182 3 
0.464 0.162 0.18 3 
0.471 -0.097 0.182 3 
0.462 0.043 0.143 3 
0.471 -0.106 0.182 3 
0.47 -0.117 0.182 3 
0.47 -0.125 0.182 3 
0.471 -0.137 0.183 3 
0.472 -0.146 0.183 3 
0.46 0.203 0.033 3 
0.471 -0.157 0.183 3 
0.464 0.199 0.181 3 
0.473 -0.178 0.184 3 
0.474 -0.256 0.173 3 
0.461 0.244 0.093 3 
0.472 -0.186 0.184 3 
0.472 -0.195 0.184 3 
0.474 -0.257 0.187 3 
0.479 -0.307 0.191 3 
0.48 -0.315 0.192 3 
0.48 -0.325 0.193 3 
0.481 -0.337 0.194 3 
0.479 -0.353 0.194 3 
0.469 -0.226 0.052 3 
0.473 -0.205 0.188 3 
0.472 -0.216 0.188 3 
0.473 -0.226 0.189 3 
0.474 -0.236 0.19 3 
0.474 -0.245 0.19 3 
0.477 -0.278 0.192 3 
0.477 -0.285 0.193 3 
0.464 0.103 0.165 3 
0.479 -0.297 0.194 3 
0.474 -0.349 0.032 3 
0.465 0.273 0.184 3 
0.471 -0.206 0.173 3 
0.465 0.263 0.184 3 
0.466 0.252 0.184 3 
0.466 0.243 0.184 3 
0.465 0.233 0.183 3 
0.464 -0.135 0.012 3 
0.466 0.224 0.183 3 
0.462 0.083 0.073 3 
0.466 0.213 0.183 3 
0.461 0.213 0.122 3 
0.465 0.203 0.182 3 
0.469 0.102 0.187 3 
0.467 0.184 0.188 3 
0.466 0.172 0.187 3 
0.466 0.163 0.187 3 
0.466 0.152 0.187 3 
0.46 0.281 0.093 3 
0.468 0.144 0.187 3 
0.468 0.133 0.187 3 
0.462 0.064 0.113 3 
0.468 0.124 0.187 3 
0.468 0.074 0.186 3 
0.468 0.113 0.186 3 
0.466 0.192 0.188 3 
0.464 0.084 0.162 3 
0.468 0.094 0.186 3 
0.468 0.083 0.186 3 
0.468 0.063 0.186 3 
0.469 0.053 0.186 3 
0.469 0.044 0.186 3 
0.469 0.034 0.186 3 
0.469 0.023 0.186 3 
0.469 0.014 0.186 3 
0.468 0.003 0.186 3 
0.468 -0.006 0.186 3 
0.461 0.184 0.114 3 
0.464 0.153 0.174 3 
0.461 0.142 0.084 3 
0.468 0.34 0.195 3 
0.468 0.333 0.195 3 
0.462 0.024 0.102 3 
0.464 -0.025 0.063 3 
0.47 0.324 0.195 3 
0.467 -0.156 0.104 3 
0.469 0.319 0.194 3 
0.47 0.314 0.194 3 
0.469 0.303 0.193 3 
0.469 -0.015 0.186 3 
0.469 0.293 0.193 3 
0.468 0.282 0.192 3 
0.468 0.272 0.191 3 
0.466 0.261 0.19 3 
0.465 0.251 0.189 3 
0.465 0.242 0.189 3 
0.466 0.234 0.189 3 
0.466 0.222 0.189 3 
0.465 -0.041 0.143 3 
0.467 0.213 0.189 3 
0.466 0.204 0.188 3 
0.476 -0.265 0.194 3 
0.473 -0.196 0.191 3 
0.475 -0.203 0.192 3 
0.475 -0.206 0.192 3 
0.469 -0.125 0.173 3 
0.475 -0.215 0.192 3 
0.475 -0.227 0.193 3 
0.476 -0.237 0.193 3 
0.475 -0.246 0.193 3 
0.461 0.262 0.062 3 
0.476 -0.255 0.194 3 
0.465 -0.084 0.071 3 
0.473 -0.187 0.19 3 
0.477 -0.275 0.195 3 
0.459 0.324 0.054 3 
0.478 -0.286 0.196 3 
0.464 -0.087 0.084 3 
0.463 -0.075 0.023 3 
0.48 -0.295 0.197 3 
0.481 -0.306 0.198 3 
0.458 0.313 0.012 3 
0.482 -0.317 0.199 3 
0.468 -0.217 0.044 3 
0.481 -0.326 0.2 3 
0.472 -0.126 0.188 3 
0.468 -0.026 0.186 3 
0.469 -0.037 0.186 3 
0.469 -0.045 0.186 3 
0.469 -0.056 0.186 3 
0.47 -0.067 0.187 3 
0.465 0.212 0.174 3 
0.47 -0.075 0.187 3 
0.47 -0.086 0.187 3 
0.471 -0.095 0.187 3 
0.472 -0.106 0.188 3 
0.472 -0.118 0.188 3 
0.462 0.113 0.113 3 
0.473 -0.135 0.189 3 
0.475 -0.142 0.19 3 
0.463 0.033 0.154 3 
0.462 0.094 0.103 3 
0.475 -0.316 0.102 3 
0.473 -0.146 0.189 3 
0.486 -0.159 0.195 3 
0.473 -0.155 0.189 3 
0.472 -0.166 0.189 3 
0.472 -0.175 0.19 3 
0.482 -0.348 0.183 3 
0.464 0.122 0.168 3 
0.464 0.041 0.168 3 
0.464 0.033 0.168 3 
0.47 -0.176 0.172 3 
0.471 -0.185 0.172 3 
0.471 -0.197 0.173 3 
0.471 -0.215 0.173 3 
0.471 -0.227 0.174 3 
0.473 -0.237 0.174 3 
0.462 0.043 0.034 3 
0.481 -0.336 0.182 3 
0.464 0.133 0.168 3 
0.464 0.344 0.173 3 
0.464 0.333 0.172 3 
0.465 0.327 0.172 3 
0.465 0.324 0.172 3 
0.464 0.3 0.171 3 
0.464 0.293 0.17 3 
0.464 0.106 0.165 3 
0.464 0.092 0.165 3 
0.464 0.084 0.165 3 
0.46 0.214 0.084 3 
0.464 0.073 0.165 3 
0.48 -0.328 0.184 3 
0.46 0.244 0.104 3 
0.468 -0.116 0.173 3 
0.47 -0.136 0.174 3 
0.463 0.324 0.154 3 
0.469 -0.147 0.174 3 
0.469 -0.156 0.174 3 
0.478 -0.295 0.181 3 
0.478 -0.305 0.182 3 
0.462 0.053 0.002 3 
0.478 -0.315 0.183 3 
0.468 -0.188 0.094 3 
0.465 0.275 0.164 3 
0.475 -0.362 0.184 3 
0.464 0.31 0.174 3 
0.466 -0.175 0.033 3 
0.465 0.307 0.174 3 
0.465 0.304 0.174 3 
0.465 0.294 0.174 3 
0.464 0.284 0.173 3 
0.46 -0.025 0.013 3 
0.463 0.273 0.172 3 
0.464 0.262 0.172 3 
0.46 0.301 0.032 3 
0.465 0.03 0.162 3 
0.46 0.239 0.114 3 
0.464 0.073 0.162 3 
0.468 -0.226 0.033 3 
0.465 0.063 0.163 3 
0.464 0.06 0.162 3 
0.464 0.054 0.162 3 
0.465 0.044 0.162 3 
0.464 0.041 0.162 3 
0.464 0.033 0.162 3 
0.465 -0.136 0.104 3 
0.469 -0.244 0.024 3 
0.464 0.092 0.162 3 
0.475 -0.326 0.084 3 
0.465 0.022 0.162 3 
0.465 0.014 0.162 3 
0.465 0.003 0.162 3 
0.474 -0.358 0.123 3 
0.465 -0.006 0.162 3 
0.464 -0.009 0.162 3 
0.465 -0.106 0.023 3 
0.464 -0.017 0.162 3 
0.465 -0.022 0.162 3 
0.466 -0.025 0.163 3 
0.462 0.192 0.164 3 
0.474 -0.247 0.172 3 
0.475 -0.263 0.173 3 
0.475 -0.266 0.173 3 
0.462 0.104 0.084 3 
0.475 -0.276 0.174 3 
0.475 -0.286 0.174 3 
0.464 0.319 0.169 3 
0.462 0.221 0.164 3 
0.463 0.21 0.164 3 
0.463 0.198 0.164 3 
0.465 -0.047 0.002 3 
0.468 -0.105 0.172 3 
0.463 0.184 0.164 3 
0.461 0.171 0.163 3 
0.463 0.164 0.163 3 
0.464 0.153 0.163 3 
0.464 0.144 0.163 3 
0.463 0.133 0.163 3 
0.463 0.122 0.162 3 
0.464 0.114 0.163 3 
0.461 0.324 0.113 3 
0.464 0.103 0.163 3 
0.46 0.234 0.033 3 
0.475 -0.335 0.064 3 
0.474 -0.256 0.184 3 
0.472 0.355 0.186 3 
0.465 0.148 0.169 3 
0.467 0.346 0.183 3 
0.465 0.339 0.182 3 
0.464 0.281 0.179 3 
0.464 0.223 0.176 3 
0.463 0.103 0.154 3 
0.464 0.211 0.176 3 
0.464 0.182 0.175 3 
0.474 -0.247 0.184 3 
0.463 0.159 0.174 3 
0.465 0.142 0.174 3 
0.466 0.118 0.174 3 
0.466 -0.096 0.144 3 
0.465 0.112 0.174 3 
0.465 0.104 0.174 3 
0.466 0.093 0.174 3 
0.466 0.082 0.174 3 
0.465 0.074 0.174 3 
0.466 0.063 0.174 3 
0.462 0.203 0.153 3 
0.47 -0.285 0.064 3 
0.462 0.093 0.052 3 
0.474 -0.362 0.193 3 
0.465 0.328 0.184 3 
0.465 0.321 0.184 3 
0.466 0.312 0.184 3 
0.461 0.294 0.093 3 
0.467 0.303 0.184 3 
0.467 0.294 0.183 3 
0.465 0.282 0.182 3 
0.464 0.272 0.181 3 
0.464 0.262 0.181 3 
0.467 0.052 0.174 3 
0.464 0.25 0.18 3 
0.465 -0.071 0.122 3 
0.464 0.238 0.18 3 
0.464 0.226 0.179 3 
0.464 0.191 0.178 3 
0.459 0.314 0.062 3 
0.464 0.165 0.178 3 
0.473 -0.205 0.182 3 
0.473 -0.217 0.183 3 
0.473 -0.226 0.183 3 
0.473 -0.235 0.183 3 
0.46 0.282 0.043 3 
0.464 0.313 0.177 3 
0.464 0.25 0.174 3 
0.464 0.244 0.174 3 
0.463 0.234 0.174 3 
0.472 -0.315 0.052 3 
0.464 0.223 0.174 3 
0.465 0.217 0.174 3 
0.463 -0.025 0.132 3 
0.464 0.208 0.173 3 
0.47 -0.236 0.122 3 
0.464 0.202 0.173 3 
0.464 0.33 0.178 3 
0.464 0.193 0.173 3 
0.464 0.182 0.173 3 
0.463 0.173 0.172 3 
0.47 -0.285 0.052 3 
0.465 0.156 0.172 3 
0.464 0.142 0.171 3 
0.456 0.324 0.023 3 
0.465 0.134 0.172 3 
0.468 -0.085 0.172 3 
0.468 -0.096 0.172 3 
0.464 -0.057 0.002 3 
0.468 -0.047 0.174 3 
0.466 0.044 0.174 3 
0.46 0.312 0.093 3 
0.465 0.033 0.173 3 
0.465 0.052 0.163 3 
0.466 0.022 0.174 3 
0.466 0.014 0.174 3 
0.467 0.003 0.174 3 
0.467 -0.006 0.174 3 
0.467 -0.015 0.174 3 
0.466 -0.025 0.174 3 
0.459 0.103 0.013 3 
0.466 -0.036 0.163 3 
0.468 -0.055 0.174 3 
0.467 -0.071 0.174 3 
0.459 0.214 0.014 3 
0.467 -0.077 0.174 3 
0.475 -0.264 0.182 3 
0.475 -0.267 0.182 3 
0.476 -0.277 0.183 3 
0.474 -0.327 0.052 3 
0.477 -0.288 0.184 3 
0.464 0.344 0.179 3 
0.461 0.223 0.043 3 
0.465 -0.092 0.047 3 
0.457 0.332 0.043 3 
0.456 0.324 0.043 3 
0.459 0.314 0.043 3 
0.458 0.303 0.043 3 
0.465 -0.065 0.044 3 
0.46 0.292 0.043 3 
0.46 0.273 0.043 3 
0.46 0.264 0.043 3 
0.459 0.222 0.022 3 
0.46 0.252 0.043 3 
0.465 -0.068 0.047 3 
0.46 0.214 0.044 3 
0.461 0.203 0.044 3 
0.46 0.194 0.044 3 
0.46 0.183 0.044 3 
0.459 0.174 0.044 3 
0.459 0.163 0.044 3 
0.46 0.152 0.044 3 
0.461 0.142 0.044 3 
0.461 0.134 0.044 3 
0.462 0.123 0.044 3 
0.461 0.112 0.044 3 
0.467 -0.176 0.052 3 
0.464 -0.057 0.052 3 
0.464 -0.065 0.052 3 
0.464 -0.076 0.052 3 
0.464 -0.087 0.052 3 
0.464 -0.095 0.052 3 
0.465 -0.1 0.052 3 
0.465 -0.105 0.052 3 
0.465 -0.116 0.052 3 
0.466 -0.136 0.052 3 
0.466 -0.155 0.052 3 
0.466 -0.167 0.052 3 
0.461 0.104 0.044 3 
0.468 -0.185 0.052 3 
0.468 -0.196 0.052 3 
0.467 -0.216 0.052 3 
0.469 -0.235 0.052 3 
0.469 -0.247 0.052 3 
0.469 -0.268 0.052 3 
0.469 -0.275 0.052 3 
0.472 -0.296 0.052 3 
0.472 -0.305 0.052 3 
0.475 -0.339 0.052 3 
0.474 -0.348 0.052 3 
0.469 -0.265 0.044 3 
0.466 -0.147 0.044 3 
0.466 -0.155 0.044 3 
0.467 -0.176 0.044 3 
0.468 -0.188 0.044 3 
0.468 -0.196 0.044 3 
0.468 -0.205 0.044 3 
0.468 -0.225 0.044 3 
0.469 -0.235 0.044 3 
0.469 -0.247 0.044 3 
0.469 -0.256 0.044 3 
0.47 -0.285 0.013 3 
0.466 -0.136 0.044 3 
0.471 -0.288 0.044 3 
0.471 -0.298 0.044 3 
0.472 -0.305 0.044 3 
0.46 0.223 0.033 3 
0.472 -0.315 0.044 3 
0.473 -0.326 0.044 3 
0.476 -0.34 0.043 3 
0.475 -0.357 0.043 3 
0.465 -0.076 0.042 3 
0.475 -0.329 0.041 3 
0.474 -0.356 0.04 3 
0.463 -0.025 0.044 3 
0.462 0.093 0.044 3 
0.462 0.082 0.044 3 
0.462 0.074 0.044 3 
0.462 0.064 0.044 3 
0.462 0.053 0.044 3 
0.462 0.043 0.044 3 
0.461 0.032 0.044 3 
0.462 0.024 0.044 3 
0.463 0.014 0.044 3 
0.462 0.003 0.044 3 
0.463 -0.007 0.044 3 
0.464 -0.036 0.052 3 
0.463 -0.036 0.044 3 
0.464 -0.046 0.044 3 
0.464 -0.057 0.044 3 
0.464 -0.068 0.044 3 
0.464 -0.076 0.044 3 
0.464 -0.087 0.044 3 
0.466 -0.092 0.044 3 
0.466 -0.095 0.044 3 
0.466 -0.106 0.044 3 
0.465 -0.116 0.044 3 
0.466 -0.125 0.044 3 
0.465 -0.084 0.063 3 
0.463 0.032 0.063 3 
0.476 -0.347 0.043 3 
0.462 0.024 0.063 3 
0.462 0.014 0.063 3 
0.462 0.003 0.063 3 
0.463 -0.006 0.063 3 
0.464 -0.017 0.063 3 
0.464 -0.036 0.063 3 
0.464 -0.046 0.063 3 
0.464 -0.065 0.063 3 
0.464 -0.076 0.063 3 
0.462 0.043 0.063 3 
0.465 -0.087 0.063 3 
0.465 -0.095 0.063 3 
0.465 -0.106 0.063 3 
0.464 -0.111 0.063 3 
0.465 -0.116 0.063 3 
0.475 -0.346 0.052 3 
0.465 -0.125 0.063 3 
0.466 -0.136 0.063 3 
0.467 -0.147 0.063 3 
0.467 -0.156 0.063 3 
0.467 -0.167 0.063 3 
0.461 0.164 0.063 3 
0.46 0.322 0.062 3 
0.459 0.304 0.062 3 
0.46 0.293 0.062 3 
0.46 0.283 0.062 3 
0.46 0.252 0.062 3 
0.46 0.223 0.063 3 
0.461 0.192 0.063 3 
0.461 0.183 0.063 3 
0.463 -0.057 0.034 3 
0.461 0.172 0.063 3 
0.461 -0.036 0.013 3 
0.467 -0.187 0.063 3 
0.461 0.142 0.063 3 
0.461 0.134 0.063 3 
0.461 0.123 0.063 3 
0.461 0.112 0.063 3 
0.461 0.104 0.063 3 
0.462 0.093 0.063 3 
0.462 0.083 0.063 3 
0.462 0.074 0.063 3 
0.462 0.064 0.063 3 
0.462 0.053 0.063 3 
0.46 0.273 0.054 3 
0.461 0.134 0.052 3 
0.46 0.234 0.054 3 
0.46 0.223 0.054 3 
0.46 0.214 0.054 3 
0.461 0.203 0.054 3 
0.462 0.193 0.054 3 
0.464 -0.087 0.055 3 
0.464 -0.095 0.055 3 
0.46 0.174 0.052 3 
0.46 0.163 0.052 3 
0.461 0.153 0.052 3 
0.461 0.142 0.052 3 
0.46 0.243 0.054 3 
0.462 0.123 0.052 3 
0.461 0.112 0.052 3 
0.462 0.082 0.052 3 
0.463 0.072 0.052 3 
0.462 0.053 0.052 3 
0.462 0.032 0.052 3 
0.462 0.024 0.052 3 
0.463 0.014 0.052 3 
0.462 0.003 0.052 3 
0.463 -0.017 0.052 3 
0.464 -0.025 0.052 3 
0.475 -0.328 0.064 3 
0.468 -0.196 0.063 3 
0.468 -0.205 0.063 3 
0.468 -0.217 0.063 3 
0.469 -0.226 0.064 3 
0.469 -0.235 0.064 3 
0.469 -0.247 0.064 3 
0.469 -0.256 0.064 3 
0.469 -0.265 0.064 3 
0.469 -0.275 0.064 3 
0.471 -0.305 0.064 3 
0.473 -0.316 0.064 3 
0.457 0.332 0.034 3 
0.477 -0.348 0.064 3 
0.466 -0.167 0.044 3 
0.474 -0.355 0.064 3 
0.464 -0.057 0.06 3 
0.474 -0.327 0.061 3 
0.458 0.303 0.054 3 
0.459 0.292 0.054 3 
0.46 0.282 0.054 3 
0.46 0.264 0.054 3 
0.46 0.252 0.054 3 
0.459 0.254 0.013 3 
0.468 -0.226 0.022 3 
0.464 -0.177 0.02 3 
0.464 -0.146 0.012 3 
0.472 -0.336 0.014 3 
0.474 -0.345 0.014 3 
0.458 0.334 0.012 3 
0.459 0.323 0.012 3 
0.459 0.304 0.012 3 
0.459 0.294 0.012 3 
0.46 0.283 0.013 3 
0.459 0.263 0.013 3 
0.467 -0.216 0.022 3 
0.458 0.233 0.014 3 
0.459 0.222 0.014 3 
0.458 0.204 0.014 3 
0.458 0.193 0.014 3 
0.459 0.182 0.014 3 
0.459 0.174 0.014 3 
0.464 -0.163 0.015 3 
0.466 -0.215 0.014 3 
0.467 -0.225 0.014 3 
0.468 -0.235 0.014 3 
0.468 -0.255 0.013 3 
0.464 -0.086 0.023 3 
0.461 0.053 0.023 3 
0.461 0.042 0.023 3 
0.461 0.032 0.023 3 
0.461 0.024 0.023 3 
0.462 0.003 0.023 3 
0.462 -0.007 0.023 3 
0.462 -0.025 0.023 3 
0.462 -0.036 0.023 3 
0.462 -0.046 0.023 3 
0.462 -0.057 0.023 3 
0.462 -0.065 0.023 3 
0.469 -0.268 0.013 3 
0.464 -0.185 0.015 3 
0.464 -0.097 0.023 3 
0.465 -0.117 0.023 3 
0.465 -0.125 0.023 3 
0.466 -0.136 0.023 3 
0.466 -0.147 0.023 3 
0.466 -0.156 0.023 3 
0.465 -0.175 0.023 3 
0.466 -0.187 0.023 3 
0.466 -0.195 0.022 3 
0.467 -0.207 0.022 3 
0.471 -0.346 0.003 3 
0.463 -0.116 0.013 3 
0.464 -0.127 0.012 3 
0.465 -0.141 0.012 3 
0.465 -0.15 0.012 3 
0.465 -0.155 0.012 3 
0.464 -0.157 0.012 3 
0.464 -0.166 0.012 3 
0.464 -0.177 0.012 3 
0.465 -0.183 0.012 3 
0.464 -0.185 0.012 3 
0.465 -0.13 0.007 3 
0.463 -0.105 0.013 3 
0.466 -0.195 0.003 3 
0.466 -0.207 0.003 3 
0.466 -0.216 0.003 3 
0.462 0.072 0.002 3 
0.461 0.064 0.002 3 
0.463 0.043 0.002 3 
0.462 0.024 0.002 3 
0.464 -0.036 0.002 3 
0.464 -0.052 0.002 3 
0.464 -0.065 0.002 3 
0.464 -0.076 0.002 3 
0.46 0.053 0.013 3 
0.47 -0.278 0.013 3 
0.472 -0.306 0.012 3 
0.472 -0.316 0.012 3 
0.459 0.335 0.009 3 
0.458 0.154 0.012 3 
0.46 0.133 0.012 3 
0.459 0.114 0.013 3 
0.459 0.092 0.013 3 
0.459 0.084 0.013 3 
0.459 0.074 0.013 3 
0.459 0.063 0.013 3 
0.461 0.074 0.023 3 
0.46 0.042 0.013 3 
0.459 0.034 0.013 3 
0.459 0.024 0.013 3 
0.459 0.013 0.013 3 
0.46 0.003 0.013 3 
0.46 -0.046 0.013 3 
0.461 -0.067 0.013 3 
0.461 -0.075 0.013 3 
0.462 -0.086 0.013 3 
0.463 -0.097 0.013 3 
0.465 -0.081 0.034 3 
0.462 0.053 0.034 3 
0.461 0.032 0.034 3 
0.461 0.024 0.034 3 
0.462 0.014 0.034 3 
0.462 0.003 0.034 3 
0.463 -0.007 0.034 3 
0.462 -0.017 0.034 3 
0.463 -0.025 0.034 3 
0.463 -0.036 0.034 3 
0.463 -0.065 0.034 3 
0.464 -0.076 0.034 3 
0.462 0.064 0.034 3 
0.465 -0.087 0.034 3 
0.464 -0.089 0.034 3 
0.465 -0.097 0.034 3 
0.466 -0.106 0.034 3 
0.466 -0.117 0.034 3 
0.46 0.122 0.012 3 
0.466 -0.125 0.034 3 
0.467 -0.137 0.034 3 
0.467 -0.148 0.034 3 
0.466 -0.155 0.034 3 
0.467 -0.187 0.033 3 
0.46 0.243 0.032 3 
0.456 0.324 0.034 3 
0.459 0.314 0.034 3 
0.476 -0.344 0.034 3 
0.476 -0.347 0.034 3 
0.472 -0.316 0.023 3 
0.476 -0.358 0.034 3 
0.46 0.292 0.032 3 
0.46 0.283 0.032 3 
0.46 0.273 0.032 3 
0.46 0.264 0.032 3 
0.459 0.251 0.032 3 
0.467 -0.196 0.033 3 
0.46 0.214 0.033 3 
0.46 0.194 0.033 3 
0.46 0.172 0.033 3 
0.46 0.163 0.033 3 
0.461 0.134 0.033 3 
0.461 0.123 0.033 3 
0.462 0.112 0.033 3 
0.462 0.104 0.034 3 
0.462 0.093 0.034 3 
0.462 0.082 0.034 3 
0.462 0.074 0.034 3 
0.46 0.183 0.022 3 
0.469 -0.256 0.024 3 
0.47 -0.266 0.024 3 
0.47 -0.275 0.024 3 
0.471 -0.285 0.024 3 
0.472 -0.296 0.024 3 
0.472 -0.306 0.024 3 
0.473 -0.327 0.023 3 
0.474 -0.335 0.023 3 
0.475 -0.346 0.023 3 
0.473 -0.348 0.023 3 
0.459 0.202 0.022 3 
0.46 0.234 0.024 3 
0.46 0.172 0.022 3 
0.46 0.163 0.022 3 
0.461 0.013 0.023 3 
0.459 0.152 0.023 3 
0.459 0.144 0.023 3 
0.459 0.133 0.023 3 
0.461 0.122 0.023 3 
0.461 0.114 0.023 3 
0.46 0.103 0.023 3 
0.461 0.093 0.023 3 
0.461 0.082 0.023 3 
0.474 -0.356 0.031 3 
0.467 -0.207 0.033 3 
0.468 -0.217 0.033 3 
0.469 -0.235 0.033 3 
0.469 -0.256 0.033 3 
0.469 -0.266 0.033 3 
0.471 -0.276 0.033 3 
0.47 -0.287 0.033 3 
0.471 -0.298 0.032 3 
0.472 -0.315 0.032 3 
0.474 -0.328 0.032 3 
0.475 -0.332 0.032 3 
0.464 -0.114 0.066 3 
0.464 -0.097 0.029 3 
0.474 -0.335 0.026 3 
0.458 0.333 0.023 3 
0.459 0.313 0.023 3 
0.459 0.304 0.023 3 
0.459 0.294 0.024 3 
0.46 0.273 0.024 3 
0.459 0.263 0.024 3 
0.459 0.254 0.024 3 
0.459 0.242 0.024 3 
0.463 -0.025 0.103 3 
0.461 0.083 0.103 3 
0.461 0.072 0.102 3 
0.461 0.064 0.102 3 
0.461 0.053 0.102 3 
0.462 0.043 0.103 3 
0.468 -0.205 0.052 3 
0.463 0.032 0.103 3 
0.462 0.014 0.102 3 
0.462 0.003 0.102 3 
0.462 -0.006 0.103 3 
0.463 -0.017 0.103 3 
0.461 0.104 0.103 3 
0.463 -0.036 0.103 3 
0.463 -0.046 0.103 3 
0.463 -0.057 0.103 3 
0.464 -0.065 0.103 3 
0.465 -0.076 0.103 3 
0.465 -0.087 0.103 3 
0.46 0.234 0.043 3 
0.466 -0.095 0.104 3 
0.465 -0.117 0.104 3 
0.465 -0.125 0.104 3 
0.466 -0.145 0.104 3 
0.461 0.224 0.103 3 
0.474 -0.305 0.11 3 
0.465 -0.103 0.023 3 
0.461 0.297 0.104 3 
0.461 0.294 0.104 3 
0.461 0.282 0.104 3 
0.46 0.332 0.082 3 
0.46 0.262 0.104 3 
0.46 0.253 0.104 3 
0.46 0.322 0.082 3 
0.461 0.233 0.103 3 
0.459 0.273 0.013 3 
0.468 -0.165 0.104 3 
0.461 0.204 0.103 3 
0.461 0.192 0.103 3 
0.475 -0.325 0.073 3 
0.461 0.184 0.103 3 
0.461 0.173 0.103 3 
0.46 0.164 0.103 3 
0.461 0.153 0.103 3 
0.461 0.142 0.103 3 
0.461 0.134 0.103 3 
0.461 0.123 0.103 3 
0.461 0.112 0.103 3 
0.461 0.232 0.093 3 
0.473 -0.327 0.014 3 
0.474 -0.315 0.099 3 
0.463 -0.065 0.074 3 
0.459 0.334 0.093 3 
0.46 0.322 0.093 3 
0.46 -0.017 0.013 3 
0.461 0.304 0.093 3 
0.461 0.212 0.092 3 
0.46 0.274 0.093 3 
0.46 0.262 0.093 3 
0.46 0.253 0.093 3 
0.475 -0.357 0.102 3 
0.461 0.224 0.092 3 
0.461 0.192 0.092 3 
0.461 0.184 0.092 3 
0.461 0.172 0.092 3 
0.462 0.064 0.052 3 
0.461 0.164 0.092 3 
0.46 0.153 0.092 3 
0.461 0.142 0.092 3 
0.461 0.134 0.092 3 
0.461 0.123 0.092 3 
0.469 -0.256 0.083 3 
0.47 -0.236 0.103 3 
0.467 -0.176 0.104 3 
0.474 -0.336 0.108 3 
0.458 0.334 0.102 3 
0.46 0.322 0.102 3 
0.46 0.312 0.102 3 
0.464 -0.076 0.1 3 
0.468 -0.185 0.102 3 
0.468 -0.196 0.102 3 
0.469 -0.206 0.102 3 
0.469 -0.217 0.102 3 
0.469 -0.226 0.102 3 
0.473 -0.356 0.114 3 
0.47 -0.245 0.103 3 
0.47 -0.257 0.103 3 
0.469 -0.266 0.103 3 
0.471 -0.277 0.103 3 
0.471 -0.286 0.104 3 
0.473 -0.298 0.104 3 
0.474 -0.305 0.104 3 
0.472 -0.354 0.105 3 
0.475 -0.326 0.102 3 
0.476 -0.338 0.102 3 
0.477 -0.346 0.103 3 
0.462 0.054 0.113 3 
0.461 0.192 0.114 3 
0.462 0.173 0.114 3 
0.461 0.164 0.114 3 
0.462 0.154 0.114 3 
0.462 0.143 0.114 3 
0.462 0.134 0.114 3 
0.462 0.124 0.114 3 
0.461 0.104 0.113 3 
0.461 0.093 0.113 3 
0.461 0.083 0.113 3 
0.462 0.072 0.113 3 
0.462 0.213 0.114 3 
0.462 0.043 0.113 3 
0.467 -0.176 0.063 3 
0.46 0.214 0.022 3 
0.462 0.032 0.113 3 
0.462 0.024 0.113 3 
0.471 -0.296 0.064 3 
0.46 -0.056 0.013 3 
0.462 0.014 0.113 3 
0.461 0.262 0.073 3 
0.462 0.003 0.113 3 
0.458 0.162 0.012 3 
0.474 -0.354 0.126 3 
0.474 -0.306 0.128 3 
0.461 0.338 0.122 3 
0.461 0.324 0.122 3 
0.461 0.314 0.122 3 
0.469 -0.215 0.122 3 
0.469 -0.226 0.122 3 
0.47 -0.245 0.123 3 
0.471 -0.255 0.123 3 
0.471 -0.277 0.123 3 
0.472 -0.288 0.124 3 
0.474 -0.296 0.124 3 
0.462 -0.006 0.113 3 
0.467 -0.156 0.093 3 
0.473 -0.357 0.126 3 
0.475 -0.307 0.122 3 
0.476 -0.325 0.123 3 
0.474 -0.336 0.123 3 
0.46 0.144 0.033 3 
0.476 -0.342 0.123 3 
0.476 -0.345 0.123 3 
0.474 -0.354 0.123 3 
0.46 0.233 0.114 3 
0.462 0.222 0.114 3 
0.47 -0.276 0.112 3 
0.468 -0.176 0.113 3 
0.468 -0.196 0.113 3 
0.469 -0.215 0.113 3 
0.469 -0.226 0.114 3 
0.47 -0.236 0.114 3 
0.47 -0.245 0.114 3 
0.463 -0.046 0.052 3 
0.471 -0.255 0.114 3 
0.47 -0.267 0.114 3 
0.474 -0.333 0.117 3 
0.475 -0.355 0.117 3 
0.468 -0.165 0.113 3 
0.472 -0.287 0.112 3 
0.475 -0.303 0.113 3 
0.475 -0.306 0.113 3 
0.476 -0.318 0.114 3 
0.476 -0.328 0.114 3 
0.469 -0.247 0.083 3 
0.474 -0.329 0.114 3 
0.466 -0.125 0.052 3 
0.476 -0.349 0.114 3 
0.469 -0.247 0.024 3 
0.475 -0.355 0.114 3 
0.475 -0.303 0.119 3 
0.463 -0.025 0.113 3 
0.463 -0.036 0.113 3 
0.464 -0.057 0.114 3 
0.464 -0.065 0.114 3 
0.464 -0.076 0.114 3 
0.465 -0.079 0.114 3 
0.466 -0.087 0.114 3 
0.465 -0.095 0.114 3 
0.466 -0.106 0.114 3 
0.465 -0.117 0.114 3 
0.465 -0.125 0.114 3 
0.462 0.113 0.092 3 
0.458 0.334 0.113 3 
0.46 0.313 0.113 3 
0.46 0.281 0.112 3 
0.46 0.272 0.112 3 
0.461 0.263 0.112 3 
0.46 0.253 0.112 3 
0.466 -0.137 0.112 3 
0.468 -0.185 0.113 3 
0.466 -0.145 0.112 3 
0.467 -0.157 0.112 3 
0.46 0.214 0.073 3 
0.459 0.331 0.074 3 
0.46 0.322 0.074 3 
0.459 0.311 0.074 3 
0.46 0.302 0.074 3 
0.461 0.294 0.074 3 
0.459 0.282 0.073 3 
0.46 0.274 0.074 3 
0.461 0.253 0.073 3 
0.461 0.244 0.073 3 
0.461 0.232 0.073 3 
0.46 0.223 0.073 3 
0.46 0.335 0.074 3 
0.461 0.203 0.073 3 
0.461 0.192 0.073 3 
0.461 0.184 0.073 3 
0.461 0.172 0.073 3 
0.461 0.164 0.073 3 
0.461 0.153 0.073 3 
0.461 0.142 0.073 3 
0.462 0.123 0.073 3 
0.461 0.112 0.073 3 
0.462 0.104 0.073 3 
0.462 0.094 0.073 3 
0.469 -0.226 0.083 3 
0.461 0.153 0.063 3 
0.466 -0.136 0.082 3 
0.467 -0.145 0.082 3 
0.467 -0.156 0.082 3 
0.463 -0.017 0.044 3 
0.466 -0.167 0.082 3 
0.466 -0.175 0.082 3 
0.467 -0.187 0.083 3 
0.468 -0.196 0.083 3 
0.469 -0.206 0.083 3 
0.469 -0.217 0.083 3 
0.461 0.072 0.073 3 
0.469 -0.235 0.083 3 
0.469 -0.265 0.083 3 
0.458 0.143 0.012 3 
0.471 -0.286 0.084 3 
0.473 -0.298 0.084 3 
0.473 -0.307 0.084 3 
0.473 -0.317 0.084 3 
0.472 -0.346 0.084 3 
0.475 -0.335 0.081 3 
0.475 -0.346 0.082 3 
0.475 -0.322 0.078 3 
0.464 -0.108 0.02 3 
0.467 -0.156 0.074 3 
0.466 -0.167 0.074 3 
0.467 -0.176 0.074 3 
0.468 -0.188 0.074 3 
0.464 -0.169 0.017 3 
0.468 -0.196 0.074 3 
0.468 -0.211 0.074 3 
0.469 -0.217 0.072 3 
0.469 -0.226 0.072 3 
0.469 -0.235 0.072 3 
0.469 -0.247 0.072 3 
0.467 -0.145 0.074 3 
0.469 -0.256 0.072 3 
0.468 -0.268 0.072 3 
0.469 -0.275 0.072 3 
0.47 -0.285 0.072 3 
0.472 -0.297 0.072 3 
0.474 -0.317 0.073 3 
0.476 -0.336 0.073 3 
0.477 -0.348 0.073 3 
0.474 -0.352 0.073 3 
0.474 -0.355 0.07 3 
0.465 -0.057 0.066 3 
0.463 -0.025 0.074 3 
0.462 0.064 0.073 3 
0.463 -0.017 0.074 3 
0.462 0.053 0.073 3 
0.462 0.043 0.073 3 
0.462 0.032 0.073 3 
0.462 0.024 0.073 3 
0.464 -0.057 0.074 3 
0.463 0.014 0.073 3 
0.463 0.003 0.074 3 
0.471 -0.305 0.032 3 
0.463 -0.006 0.074 3 
0.465 -0.125 0.082 3 
0.463 -0.036 0.074 3 
0.464 -0.046 0.074 3 
0.464 -0.076 0.074 3 
0.465 -0.087 0.074 3 
0.465 -0.095 0.074 3 
0.465 -0.106 0.074 3 
0.464 -0.116 0.074 3 
0.465 -0.119 0.074 3 
0.466 -0.125 0.074 3 
0.466 -0.136 0.074 3 
0.464 -0.087 0.09 3 
0.459 0.194 0.022 3 
0.466 -0.167 0.093 3 
0.467 -0.176 0.093 3 
0.469 -0.197 0.094 3 
0.469 -0.206 0.094 3 
0.469 -0.217 0.094 3 
0.469 -0.226 0.094 3 
0.469 -0.235 0.094 3 
0.469 -0.259 0.094 3 
0.459 0.314 0.054 3 
0.474 -0.356 0.096 3 
0.465 -0.125 0.093 3 
0.469 -0.265 0.092 3 
0.471 -0.277 0.092 3 
0.472 -0.297 0.092 3 
0.473 -0.307 0.093 3 
0.474 -0.318 0.093 3 
0.475 -0.326 0.093 3 
0.475 -0.337 0.093 3 
0.476 -0.347 0.094 3 
0.474 -0.348 0.093 3 
0.475 -0.323 0.09 3 
0.474 -0.332 0.09 3 
0.462 0.003 0.092 3 
0.462 0.104 0.092 3 
0.462 0.094 0.092 3 
0.461 0.083 0.092 3 
0.461 0.072 0.092 3 
0.461 0.064 0.092 3 
0.462 0.054 0.092 3 
0.463 0.043 0.092 3 
0.463 0.032 0.092 3 
0.461 0.104 0.052 3 
0.462 0.024 0.092 3 
0.462 0.014 0.092 3 
0.46 0.335 0.085 3 
0.463 -0.017 0.092 3 
0.463 -0.025 0.092 3 
0.464 -0.046 0.092 3 
0.464 -0.057 0.092 3 
0.464 -0.065 0.092 3 
0.463 -0.076 0.092 3 
0.463 -0.046 0.034 3 
0.465 -0.087 0.093 3 
0.465 -0.095 0.093 3 
0.465 -0.106 0.093 3 
0.465 -0.117 0.093 3 
0.464 -0.057 0.084 3 
0.462 0.024 0.084 3 
0.462 0.014 0.084 3 
0.462 0.003 0.084 3 
0.463 -0.006 0.084 3 
0.475 -0.322 0.073 3 
0.463 -0.017 0.084 3 
0.463 -0.025 0.084 3 
0.463 0.032 0.002 3 
0.463 -0.036 0.084 3 
0.464 -0.046 0.084 3 
0.461 0.212 0.063 3 
0.462 0.032 0.084 3 
0.463 -0.065 0.084 3 
0.463 -0.076 0.084 3 
0.46 0.335 0.082 3 
0.46 0.312 0.082 3 
0.46 0.293 0.082 3 
0.465 -0.09 0.082 3 
0.465 -0.095 0.082 3 
0.466 -0.106 0.082 3 
0.462 -0.017 0.023 3 
0.465 -0.117 0.082 3 
0.464 -0.119 0.082 3 
0.461 0.164 0.084 3 
0.459 0.276 0.084 3 
0.459 0.27 0.084 3 
0.459 0.264 0.084 3 
0.461 0.253 0.084 3 
0.461 0.244 0.084 3 
0.46 0.234 0.084 3 
0.46 0.223 0.084 3 
0.462 0.193 0.084 3 
0.462 0.184 0.084 3 
0.462 0.173 0.084 3 
0.458 0.333 0.054 3 
0.469 -0.206 0.124 3 
0.461 0.153 0.084 3 
0.461 0.134 0.084 3 
0.461 0.123 0.084 3 
0.461 0.112 0.084 3 
0.462 0.094 0.084 3 
0.462 0.083 0.084 3 
0.462 0.072 0.084 3 
0.461 0.064 0.084 3 
0.463 0.053 0.084 3 
0.462 0.043 0.084 3 
0.305 -0.005 0.02 7 
0.298 0.002 0.021 7 
0.309 0.002 0.019 7 
0.299 -0.005 0.02 7 
0.299 -0.015 0.02 7 
0.309 -0.015 0.019 7 
