# .PCD v0.7 - Point Cloud Data file
FIELDS x y z intensity
SIZE 4 4 4 4
TYPE F F F F
COUNT 1 1 1 1
WIDTH 2062
HEIGHT 1
VIEWPOINT 0 0 0 1 0 0 0
POINTS 2062
DATA ascii
0.263 -0.044 0.091 0 
0.245 -0.088 0.087 0 
0.245 -0.083 0.086 0 
0.265 -0.047 0.095 0 
0.296 -0.053 0.096 0 
0.319 -0.064 0.106 0 
0.263 -0.05 0.099 0 
0.254 -0.053 0.096 0 
0.25 -0.055 0.094 0 
0.244 -0.062 0.092 0 
0.243 -0.065 0.092 0 
0.24 -0.075 0.091 0 
0.24 -0.085 0.092 0 
0.302 -0.056 0.099 0 
0.253 -0.052 0.094 0 
0.255 -0.052 0.094 0 
0.286 -0.05 0.095 0 
0.266 -0.043 0.088 0 
0.284 -0.047 0.092 0 
0.331 -0.063 0.102 0 
0.355 -0.026 0.008 0 
0.345 0.011 0.003 0 
0.292 -0.105 0.008 1 
0.28 -0.045 0.014 1 
0.333 -0.049 -0.005 1 
0.334 -0.026 -0.005 1 
0.334 -0.02 -0.005 1 
0.354 0.044 -0.013 1 
0.354 0.082 -0.013 1 
0.354 0.093 -0.014 1 
0.354 0.096 -0.014 1 
0.353 0.113 -0.014 1 
0.352 0.123 -0.014 1 
0.354 0.143 -0.015 1 
0.35 0.163 -0.015 1 
0.348 0.166 -0.014 1 
0.35 0.171 -0.015 1 
0.352 0.183 -0.017 1 
0.348 0.193 -0.016 1 
0.344 0.206 -0.015 1 
0.344 -0.205 -0.012 1 
0.334 -0.176 -0.007 1 
0.334 -0.165 -0.007 1 
0.333 -0.156 -0.006 1 
0.332 -0.15 -0.005 1 
0.31 -0.08 0.004 1 
0.313 -0.07 0.003 1 
0.333 -0.049 -0.003 1 
0.334 -0.022 -0.004 1 
0.354 0.017 -0.011 1 
0.364 0.032 -0.015 1 
0.361 0.044 -0.014 1 
0.365 0.047 -0.015 1 
0.363 0.066 -0.015 1 
0.36 0.074 -0.014 1 
0.358 0.084 -0.013 1 
0.359 0.093 -0.014 1 
0.361 0.109 -0.015 1 
0.354 0.132 -0.013 1 
0.358 0.144 -0.015 1 
0.351 0.214 -0.016 1 
0.351 -0.215 -0.013 1 
0.318 -0.086 0.002 1 
0.353 -0.036 -0.008 1 
0.344 -0.015 -0.006 1 
0.362 0.113 -0.014 1 
0.364 0.122 -0.014 1 
0.364 0.124 -0.015 1 
0.364 0.127 -0.015 1 
0.361 0.133 -0.014 1 
0.362 0.143 -0.014 1 
0.364 0.153 -0.015 1 
0.363 0.194 -0.017 1 
0.356 0.204 -0.015 1 
0.354 -0.211 -0.012 1 
0.342 -0.176 -0.006 1 
0.319 -0.103 0.003 1 
0.344 -0.005 -0.004 1 
0.372 0.043 -0.014 1 
0.372 0.073 -0.014 1 
0.371 0.084 -0.014 1 
0.37 0.087 -0.014 1 
0.371 0.114 -0.015 1 
0.371 0.122 -0.015 1 
0.286 -0.051 0.012 1 
0.369 0.133 -0.015 1 
0.368 0.183 -0.016 1 
0.362 0.221 -0.017 1 
0.364 0.228 -0.018 1 
0.362 -0.226 -0.013 1 
0.36 -0.22 -0.013 1 
0.349 -0.16 -0.006 1 
0.342 -0.152 -0.004 1 
0.293 -0.094 0.013 1 
0.333 -0.111 0 1 
0.321 -0.073 0.004 1 
0.292 -0.055 0.014 1 
0.367 0.143 -0.014 1 
0.293 -0.039 0.014 1 
0.354 -0.055 -0.006 1 
0.354 -0.051 -0.006 1 
0.344 -0.018 -0.002 1 
0.351 -0.007 -0.005 1 
0.364 0.02 -0.009 1 
0.373 0.047 -0.012 1 
0.378 0.092 -0.015 1 
0.38 0.113 -0.016 1 
0.374 0.144 -0.015 1 
0.373 0.164 -0.015 1 
0.374 0.174 -0.016 1 
0.374 0.193 -0.017 1 
0.373 0.199 -0.017 1 
0.37 0.211 -0.016 1 
0.368 -0.228 -0.013 1 
0.354 -0.186 -0.007 1 
0.353 -0.175 -0.006 1 
0.353 -0.169 -0.006 1 
0.294 -0.095 0.014 1 
0.344 -0.116 -0.002 1 
0.303 -0.07 0.012 1 
0.309 -0.062 0.01 1 
0.364 -0.052 -0.007 1 
0.361 -0.036 -0.006 1 
0.356 -0.028 -0.005 1 
0.384 0.043 -0.014 1 
0.384 0.077 -0.015 1 
0.383 0.084 -0.014 1 
0.384 0.097 -0.015 1 
0.384 0.124 -0.015 1 
0.384 0.132 -0.016 1 
0.384 0.138 -0.016 1 
0.38 0.154 -0.015 1 
0.38 0.163 -0.015 1 
0.38 0.183 -0.016 1 
0.373 0.224 -0.016 1 
0.362 -0.189 -0.008 1 
0.363 -0.176 -0.008 1 
0.36 -0.169 -0.006 1 
0.359 -0.117 -0.005 1 
0.352 -0.111 -0.002 1 
0.3 -0.04 0.014 1 
0.363 -0.056 -0.005 1 
0.372 -0.036 -0.008 1 
0.357 -0.026 -0.003 1 
0.352 0.136 -0.014 1 
0.379 0.023 -0.01 1 
0.394 0.053 -0.015 1 
0.394 0.064 -0.016 1 
0.391 0.073 -0.015 1 
0.391 0.083 -0.015 1 
0.391 0.085 -0.015 1 
0.382 0.193 -0.015 1 
0.384 0.202 -0.016 1 
0.381 0.242 -0.017 1 
0.38 0.246 -0.017 1 
0.372 -0.217 -0.01 1 
0.299 -0.106 0.014 1 
0.363 -0.117 -0.004 1 
0.295 -0.039 0.017 1 
0.383 -0.036 -0.009 1 
0.394 0.041 -0.013 1 
0.394 0.064 -0.013 1 
0.394 0.07 -0.014 1 
0.393 0.092 -0.014 1 
0.394 0.101 -0.014 1 
0.393 0.124 -0.014 1 
0.394 0.131 -0.015 1 
0.393 0.152 -0.015 1 
0.391 0.164 -0.015 1 
0.389 0.17 -0.014 1 
0.392 0.184 -0.016 1 
0.393 0.222 -0.018 1 
0.385 0.244 -0.016 1 
0.38 -0.223 -0.01 1 
0.374 -0.199 -0.008 1 
0.372 -0.19 -0.007 1 
0.369 -0.177 -0.006 1 
0.313 -0.122 0.011 1 
0.344 -0.036 -0.009 1 
0.304 -0.098 0.014 1 
0.351 -0.123 0 1 
0.367 -0.127 -0.004 1 
0.372 -0.125 -0.005 1 
0.372 -0.121 -0.005 1 
0.382 -0.061 -0.007 1 
0.391 -0.045 -0.01 1 
0.374 -0.029 -0.005 1 
0.345 -0.005 0.003 1 
0.343 0.003 0.003 1 
0.404 0.024 -0.014 1 
0.403 0.034 -0.014 1 
0.404 0.054 -0.014 1 
0.405 0.058 -0.015 1 
0.404 0.064 -0.014 1 
0.4 0.074 -0.013 1 
0.405 0.093 -0.015 1 
0.403 0.099 -0.015 1 
0.403 0.112 -0.015 1 
0.404 0.117 -0.015 1 
0.397 0.124 -0.013 1 
0.399 0.154 -0.015 1 
0.397 0.183 -0.015 1 
0.39 0.193 -0.013 1 
0.392 0.202 -0.014 1 
0.392 0.205 -0.014 1 
0.397 0.224 -0.017 1 
0.394 0.254 -0.017 1 
0.381 -0.196 -0.008 1 
0.376 -0.187 -0.006 1 
0.312 -0.098 0.014 1 
0.355 -0.125 0.001 1 
0.373 -0.123 -0.003 1 
0.312 -0.076 0.014 1 
0.362 -0.057 0 1 
0.402 -0.045 -0.011 1 
0.393 -0.035 -0.008 1 
0.387 -0.031 -0.007 1 
0.38 -0.028 -0.005 1 
0.355 -0.007 0.002 1 
0.41 0.044 -0.014 1 
0.411 0.053 -0.014 1 
0.409 0.103 -0.014 1 
0.411 0.111 -0.015 1 
0.409 0.122 -0.015 1 
0.402 0.134 -0.013 1 
0.394 0.021 -0.013 1 
0.403 0.143 -0.013 1 
0.404 0.153 -0.014 1 
0.402 0.161 -0.013 1 
0.402 0.189 -0.015 1 
0.403 0.212 -0.016 1 
0.403 0.234 -0.016 1 
0.401 0.243 -0.016 1 
0.36 0.103 -0.014 1 
0.391 -0.238 -0.01 1 
0.386 -0.146 -0.006 1 
0.381 -0.14 -0.004 1 
0.384 -0.132 -0.005 1 
0.357 -0.11 0.002 1 
0.392 -0.064 -0.006 1 
0.404 -0.056 -0.009 1 
0.403 -0.037 -0.009 1 
0.378 -0.012 -0.002 1 
0.413 0.022 -0.012 1 
0.414 0.063 -0.013 1 
0.414 0.074 -0.013 1 
0.412 0.087 -0.013 1 
0.424 0.096 -0.016 1 
0.414 0.112 -0.014 1 
0.405 0.126 -0.011 1 
0.409 0.183 -0.014 1 
0.401 0.193 -0.012 1 
0.408 0.211 -0.015 1 
0.396 -0.265 -0.014 1 
0.401 0.261 -0.015 1 
0.403 0.272 -0.016 1 
0.394 -0.208 -0.007 1 
0.389 -0.146 -0.004 1 
0.392 -0.143 -0.005 1 
0.397 -0.142 -0.006 1 
0.387 -0.134 -0.004 1 
0.321 -0.078 0.014 1 
0.395 -0.065 -0.005 1 
0.414 -0.054 -0.01 1 
0.414 -0.037 -0.01 1 
0.376 -0.029 0 1 
0.365 -0.026 0.002 1 
0.36 -0.015 0.004 1 
0.366 -0.013 0.002 1 
0.421 0.023 -0.012 1 
0.421 0.044 -0.012 1 
0.421 0.053 -0.012 1 
0.423 0.062 -0.013 1 
0.419 0.073 -0.012 1 
0.422 0.088 -0.013 1 
0.427 0.101 -0.015 1 
0.422 0.104 -0.013 1 
0.418 0.114 -0.012 1 
0.411 0.143 -0.011 1 
0.413 0.154 -0.012 1 
0.413 0.161 -0.012 1 
0.363 0.162 -0.015 1 
0.414 0.167 -0.013 1 
0.41 0.193 -0.012 1 
0.414 0.214 -0.014 1 
0.416 0.223 -0.015 1 
0.416 0.231 -0.015 1 
0.414 0.232 -0.015 1 
0.414 0.242 -0.015 1 
0.41 0.249 -0.014 1 
0.412 0.262 -0.015 1 
0.414 0.273 -0.016 1 
0.413 -0.275 -0.012 1 
0.403 -0.219 -0.008 1 
0.342 -0.165 -0.006 1 
0.402 -0.156 -0.006 1 
0.413 -0.152 -0.009 1 
0.338 -0.099 0.011 1 
0.326 -0.091 0.014 1 
0.414 -0.065 -0.008 1 
0.421 -0.056 -0.01 1 
0.421 -0.047 -0.01 1 
0.401 0.104 -0.014 1 
0.424 -0.04 -0.01 1 
0.423 -0.013 -0.01 1 
0.424 0.077 -0.011 1 
0.424 0.122 -0.012 1 
0.424 0.134 -0.012 1 
0.419 0.162 -0.011 1 
0.423 0.183 -0.013 1 
0.419 0.213 -0.013 1 
0.344 -0.155 -0.006 1 
0.387 -0.142 -0.004 1 
0.421 0.222 -0.014 1 
0.422 0.231 -0.014 1 
0.422 0.242 -0.015 1 
0.421 0.246 -0.015 1 
0.418 0.254 -0.014 1 
0.42 0.282 -0.016 1 
0.403 -0.155 -0.004 1 
0.401 -0.151 -0.003 1 
0.324 -0.082 0.016 1 
0.334 -0.078 0.014 1 
0.424 -0.066 -0.008 1 
0.432 -0.044 -0.01 1 
0.363 0.034 -0.014 1 
0.434 0.022 -0.011 1 
0.433 0.043 -0.011 1 
0.433 0.053 -0.011 1 
0.433 0.062 -0.011 1 
0.433 0.072 -0.011 1 
0.433 0.084 -0.011 1 
0.338 -0.2 -0.012 1 
0.434 0.087 -0.012 1 
0.431 0.113 -0.011 1 
0.432 0.123 -0.012 1 
0.426 0.162 -0.011 1 
0.424 0.194 -0.011 1 
0.424 0.199 -0.011 1 
0.424 0.26 -0.013 1 
0.432 -0.281 -0.012 1 
0.415 -0.236 -0.006 1 
0.412 -0.163 -0.004 1 
0.415 -0.162 -0.005 1 
0.425 -0.164 -0.007 1 
0.334 -0.095 0.015 1 
0.432 -0.065 -0.008 1 
0.434 -0.056 -0.008 1 
0.401 0.203 -0.015 1 
0.432 -0.049 -0.008 1 
0.382 0.029 -0.011 1 
0.375 -0.033 0.005 1 
0.354 0.013 -0.006 1 
0.443 0.032 -0.011 1 
0.443 0.042 -0.011 1 
0.441 0.054 -0.01 1 
0.441 0.074 -0.011 1 
0.441 0.084 -0.011 1 
0.438 0.123 -0.011 1 
0.434 0.144 -0.01 1 
0.434 0.146 -0.01 1 
0.434 0.183 -0.011 1 
0.431 0.194 -0.01 1 
0.431 0.223 -0.011 1 
0.433 0.244 -0.012 1 
0.434 0.253 -0.013 1 
0.316 -0.074 0.014 1 
0.433 0.263 -0.013 1 
0.434 0.273 -0.014 1 
0.382 -0.209 -0.008 1 
0.433 0.284 -0.014 1 
0.431 0.294 -0.014 1 
0.434 0.3 -0.015 1 
0.435 0.304 -0.015 1 
0.421 -0.169 -0.004 1 
0.381 -0.235 -0.011 1 
0.343 0.008 -0.005 1 
0.344 -0.005 -0.006 1 
0.444 0.06 -0.009 1 
0.444 0.103 -0.009 1 
0.444 0.111 -0.009 1 
0.442 0.133 -0.009 1 
0.441 0.164 -0.01 1 
0.441 0.174 -0.01 1 
0.434 0.196 -0.009 1 
0.434 0.233 -0.01 1 
0.44 -0.181 -0.006 1 
0.443 -0.073 -0.006 1 
0.45 -0.065 -0.007 1 
0.454 -0.058 -0.008 1 
0.422 0.152 -0.012 1 
0.441 0.142 -0.009 1 
0.452 0.044 -0.008 1 
0.451 0.054 -0.008 1 
0.45 0.064 -0.008 1 
0.45 0.074 -0.008 1 
0.451 0.092 -0.008 1 
0.451 0.124 -0.009 1 
0.405 0.185 -0.015 1 
0.443 0.181 -0.008 1 
0.441 0.204 -0.008 1 
0.442 0.272 -0.01 1 
0.443 0.282 -0.011 1 
0.458 -0.064 -0.006 1 
0.465 -0.063 -0.008 1 
0.364 0.014 -0.006 1 
0.413 0.223 -0.016 1 
0.362 -0.008 0.014 1 
0.455 0.021 -0.006 1 
0.453 0.104 -0.006 1 
0.454 0.133 -0.007 1 
0.451 0.153 -0.006 1 
0.389 0.233 -0.017 1 
0.45 0.183 -0.007 1 
0.444 0.242 -0.007 1 
0.443 0.294 -0.008 1 
0.443 0.304 -0.009 1 
0.444 0.308 -0.009 1 
0.459 -0.075 -0.004 1 
0.374 -0.008 0.013 1 
0.46 0.037 -0.005 1 
0.46 0.056 -0.005 1 
0.374 0.021 -0.011 1 
0.459 0.074 -0.005 1 
0.46 0.093 -0.005 1 
0.458 0.103 -0.005 1 
0.459 0.124 -0.005 1 
0.458 0.132 -0.005 1 
0.454 0.163 -0.005 1 
0.455 0.172 -0.005 1 
0.456 0.184 -0.006 1 
0.456 0.2 -0.006 1 
0.453 0.201 -0.005 1 
0.451 0.214 -0.005 1 
0.452 0.223 -0.006 1 
0.45 0.233 -0.005 1 
0.45 0.244 -0.006 1 
0.451 0.254 -0.006 1 
0.45 0.262 -0.006 1 
0.454 0.325 -0.009 1 
0.454 -0.073 0 1 
0.459 -0.069 -0.001 1 
0.386 0.042 -0.015 1 
0.453 0.264 -0.004 1 
0.453 0.274 -0.004 1 
0.454 0.284 -0.005 1 
0.455 0.291 -0.005 1 
0.454 0.293 -0.005 1 
0.456 0.298 -0.006 1 
0.453 0.301 -0.005 1 
0.453 0.314 -0.006 1 
0.454 0.319 -0.006 1 
0.456 0.324 -0.006 1 
0.473 -0.342 -0.005 1 
0.378 -0.005 0.016 1 
0.459 0.114 -0.005 1 
0.377 0.004 0.016 1 
0.382 0.012 0.015 1 
0.465 0.03 0 1 
0.464 0.054 0 1 
0.461 0.333 -0.005 1 
0.462 0.338 -0.005 1 
0.454 0.026 -0.006 1 
0.448 -0.026 0.005 1 
0.373 0.026 -0.012 1 
0.393 -0.005 0.015 1 
0.394 -0.001 0.015 1 
0.4 0.004 0.014 1 
0.402 -0.014 -0.007 1 
0.404 0.011 0.013 1 
0.463 0.024 0.002 1 
0.465 0.043 0.001 1 
0.465 0.054 0.001 1 
0.466 0.073 0.001 1 
0.466 0.084 0.001 1 
0.466 0.092 0.001 1 
0.465 0.13 0.001 1 
0.464 0.34 -0.003 1 
0.374 0.102 -0.016 1 
0.361 0.101 -0.015 1 
0.464 -0.028 0.004 1 
0.47 -0.026 0.003 1 
0.468 -0.015 0.004 1 
0.451 0.003 0.007 1 
0.451 -0.014 -0.01 1 
0.454 0.011 0.006 1 
0.464 0.032 0.004 1 
0.314 -0.075 0.015 1 
0.464 0.094 0.004 1 
0.465 0.105 0.004 1 
0.463 0.112 0.004 1 
0.464 0.124 0.004 1 
0.464 0.132 0.004 1 
0.463 0.151 0.003 1 
0.464 0.155 0.003 1 
0.466 0.164 0.003 1 
0.465 0.169 0.003 1 
0.463 0.174 0.003 1 
0.462 0.184 0.003 1 
0.462 0.193 0.003 1 
0.461 0.204 0.003 1 
0.46 0.232 0.003 1 
0.467 -0.345 0.003 1 
0.473 -0.327 0.003 1 
0.384 0.073 -0.014 1 
0.465 0.164 0.006 1 
0.46 0.274 0.004 1 
0.462 0.294 0.004 1 
0.463 0.302 0.003 1 
0.463 0.311 0.003 1 
0.463 0.321 0.003 1 
0.464 0.329 0.002 1 
0.483 -0.331 0.004 1 
0.425 0.293 -0.015 1 
0.373 0.145 -0.014 1 
0.467 0.344 0.004 1 
0.488 -0.329 0.007 1 
0.297 -0.054 0.008 1 
0.456 0.034 -0.006 1 
0.466 -0.015 0.012 1 
0.466 -0.007 0.012 1 
0.465 0 0.012 1 
0.464 0.003 0.012 1 
0.458 -0.014 -0.007 1 
0.463 0.014 0.013 1 
0.463 0.024 0.013 1 
0.464 -0.071 -0.005 1 
0.411 0.201 -0.013 1 
0.397 0.174 -0.015 1 
0.474 -0.335 0.011 1 
0.481 -0.325 0.011 1 
0.466 0.103 0.004 1 
0.441 0.254 -0.009 1 
0.484 -0.335 0.013 1 
0.481 -0.335 0.016 1 
0.394 0.082 -0.014 1 
0.411 0.122 -0.013 1 
0.373 0.238 -0.017 1 
0.391 0.169 -0.015 1 
0.433 0.104 -0.011 1 
0.453 0.143 -0.007 1 
0.44 -0.055 -0.007 1 
0.456 0.139 -0.005 1 
0.373 0.094 -0.015 1 
0.389 0.103 -0.015 1 
0.46 0.223 0.003 1 
0.337 -0.025 -0.005 1 
0.428 0.174 -0.012 1 
0.394 0.262 -0.018 1 
0.364 0.063 -0.015 1 
0.383 -0.14 -0.005 1 
0.465 0.062 0.001 1 
0.429 0.134 -0.011 1 
0.44 0.264 -0.009 1 
0.46 0.244 0.002 1 
0.45 -0.188 -0.003 1 
0.472 -0.326 0.012 1 
0.373 0.071 -0.015 1 
0.44 0.152 -0.009 1 
0.349 0.16 -0.014 1 
0.354 -0.028 -0.006 1 
0.353 0.154 -0.015 1 
0.393 0.135 -0.014 1 
0.393 0.213 -0.017 1 
0.391 0.16 -0.014 1 
0.442 0.213 -0.008 1 
0.421 0.172 -0.012 1 
0.44 -0.053 -0.007 1 
0.464 0.083 0.004 1 
0.455 0.152 -0.005 1 
0.462 -0.017 0.002 1 
0.388 0.203 -0.015 1 
0.364 0.052 -0.015 1 
0.46 0.053 -0.005 1 
0.411 0.253 -0.015 1 
0.373 0.075 -0.015 1 
0.474 -0.345 0.014 1 
0.4 0.164 -0.015 1 
0.464 0.038 0.002 1 
0.373 0.147 -0.015 1 
0.381 0.232 -0.017 1 
0.455 0.194 -0.006 1 
0.459 0.214 0.003 1 
0.388 0.122 -0.015 1 
0.373 0.062 -0.014 1 
0.365 0.134 -0.013 1 
0.321 -0.086 0.014 1 
0.379 -0.045 -0.008 1 
0.412 -0.058 -0.01 1 
0.382 0.064 -0.014 1 
0.407 -0.16 -0.005 1 
0.343 0.009 0.003 1 
0.394 0.033 -0.013 1 
0.374 0.064 -0.015 1 
0.369 -0.046 -0.007 1 
0.422 0.293 -0.017 1 
0.405 0.173 -0.015 1 
0.344 -0.05 -0.005 1 
0.387 0.191 -0.015 1 
0.464 -0.023 0.012 1 
0.33 -0.095 0 1 
0.337 0.003 -0.005 1 
0.427 0.284 -0.015 1 
0.391 0.113 -0.015 1 
0.464 0.143 0.003 1 
0.313 -0.064 0.004 1 
0.461 0.104 0 1 
0.436 0.309 -0.015 1 
0.441 0.094 -0.011 1 
0.4 -0.248 -0.01 1 
0.454 0.112 -0.006 1 
0.284 -0.041 0.014 1 
0.364 0.172 -0.017 1 
0.398 0.054 -0.015 1 
0.46 0.082 -0.005 1 
0.394 0.14 -0.015 1 
0.463 -0.015 -0.005 1 
0.42 0.144 -0.011 1 
0.45 0.274 -0.006 1 
0.441 0.022 -0.01 1 
0.462 0.251 0.002 1 
0.362 0.214 -0.016 1 
0.369 0.033 -0.015 1 
0.461 -0.012 0.002 1 
0.313 -0.099 0.001 1 
0.462 0.26 0.004 1 
0.409 0.033 -0.013 1 
0.336 -0.194 -0.011 1 
0.374 0.234 -0.017 1 
0.471 -0.335 0.003 1 
0.392 0.132 -0.014 1 
0.434 0.034 -0.011 1 
0.364 0.184 -0.017 1 
0.385 0.045 -0.014 1 
0.403 0.174 -0.014 1 
0.328 -0.094 0 1 
0.378 -0.247 -0.013 1 
0.454 0.078 -0.006 1 
0.464 -0.007 0.01 1 
0.421 0.274 -0.016 1 
0.375 0.224 -0.017 1 
0.335 -0.096 0.004 1 
0.365 -0.024 0 1 
0.374 0.036 -0.015 1 
0.383 0.049 -0.014 1 
0.354 -0.016 -0.002 1 
0.362 0.053 -0.014 1 
0.335 -0.08 0.013 1 
0.362 0.064 -0.014 1 
0.404 0.082 -0.012 1 
0.35 -0.026 -0.004 1 
0.413 0.082 -0.013 1 
0.403 0.253 -0.015 1 
0.342 -0.107 -0.002 1 
0.46 0.283 0.004 1 
0.441 0.193 -0.008 1 
0.454 0.023 -0.006 1 
0.404 0.043 -0.014 1 
0.374 -0.061 -0.005 1 
0.398 -0.032 -0.008 1 
0.314 -0.073 0.013 1 
0.451 0.194 -0.007 1 
0.401 0.196 -0.012 1 
0.384 0.214 -0.019 1 
0.421 0.034 -0.012 1 
0.432 0.213 -0.011 1 
0.342 -0.082 0.018 1 
0.441 0.223 -0.008 1 
0.379 0.056 -0.015 1 
0.458 -0.064 -0.004 1 
0.464 0.072 0.004 1 
0.341 -0.153 -0.007 1 
0.454 0.169 -0.005 1 
0.379 0.173 -0.016 1 
0.382 0.094 -0.014 1 
0.455 0.155 -0.005 1 
0.405 0.182 -0.015 1 
0.403 -0.152 -0.006 1 
0.469 -0.018 -0.006 1 
0.444 0.233 -0.007 1 
0.331 -0.144 -0.006 1 
0.352 0.204 -0.016 1 
0.395 0.143 -0.015 1 
0.301 -0.093 0.012 1 
0.401 0.094 -0.014 1 
0.281 -0.073 0.055 2 
0.328 -0.044 0.074 2 
0.284 -0.094 0.051 2 
0.283 -0.095 0.055 2 
0.296 -0.091 0.051 2 
0.327 -0.045 0.071 2 
0.265 -0.062 0.061 2 
0.282 -0.078 0.047 2 
0.265 -0.051 0.06 2 
0.287 -0.078 0.046 2 
0.258 -0.105 0.064 2 
0.267 -0.105 0.059 2 
0.292 -0.067 0.041 2 
0.304 -0.082 0.063 2 
0.275 -0.058 0.044 2 
0.312 -0.08 0.062 2 
0.275 -0.105 0.064 2 
0.341 -0.038 0.066 2 
0.332 -0.038 0.063 2 
0.329 -0.08 0.035 2 
0.279 -0.054 0.032 2 
0.271 -0.093 0.059 2 
0.265 -0.095 0.073 2 
0.275 -0.094 0.059 2 
0.277 -0.097 0.059 2 
0.286 -0.095 0.048 2 
0.285 -0.036 0.056 2 
0.278 -0.033 0.054 2 
0.255 -0.055 0.066 2 
0.265 -0.078 0.053 2 
0.323 -0.043 0.061 2 
0.287 -0.094 0.054 2 
0.262 -0.039 0.056 2 
0.261 -0.045 0.064 2 
0.257 -0.055 0.064 2 
0.26 -0.066 0.05 2 
0.255 -0.104 0.064 2 
0.273 -0.033 0.05 2 
0.27 -0.035 0.05 2 
0.268 -0.075 0.05 2 
0.336 -0.087 0.032 2 
0.275 -0.116 0.051 2 
0.334 -0.034 0.059 2 
0.286 -0.105 0.057 2 
0.306 -0.085 0.053 2 
0.296 -0.095 0.036 2 
0.314 -0.067 0.015 2 
0.345 -0.033 0.053 2 
0.338 -0.033 0.055 2 
0.334 -0.035 0.056 2 
0.337 -0.089 0.038 2 
0.324 -0.042 0.051 2 
0.334 -0.089 0.03 2 
0.319 -0.082 0.032 2 
0.314 -0.083 0.05 2 
0.307 -0.038 0.029 2 
0.311 -0.085 0.049 2 
0.304 -0.092 0.046 2 
0.3 -0.095 0.032 2 
0.286 -0.115 0.052 2 
0.278 -0.105 0.061 2 
0.277 -0.032 0.04 2 
0.279 -0.059 0.042 2 
0.324 -0.085 0.041 2 
0.32 -0.084 0.059 2 
0.308 -0.08 0.059 2 
0.304 -0.082 0.059 2 
0.3 -0.085 0.06 2 
0.294 -0.09 0.042 2 
0.284 -0.102 0.046 2 
0.275 -0.035 0.06 2 
0.274 -0.032 0.039 2 
0.27 -0.035 0.04 2 
0.333 -0.088 0.039 2 
0.274 -0.107 0.061 2 
0.271 -0.116 0.054 2 
0.3 -0.068 0.038 2 
0.337 -0.034 0.06 2 
0.327 -0.08 0.012 2 
0.346 -0.036 0.061 2 
0.246 -0.057 0.084 2 
0.257 -0.095 0.076 2 
0.241 -0.066 0.084 2 
0.324 -0.044 0.067 2 
0.244 -0.06 0.084 2 
0.242 -0.075 0.084 2 
0.322 -0.084 0.043 2 
0.287 -0.096 0.055 2 
0.299 -0.105 0.011 2 
0.297 -0.116 0.04 2 
0.291 -0.091 0.052 2 
0.249 -0.054 0.084 2 
0.245 -0.08 0.084 2 
0.246 -0.085 0.084 2 
0.349 -0.025 0.032 2 
0.259 -0.095 0.074 2 
0.255 -0.073 0.056 2 
0.266 -0.07 0.049 2 
0.331 -0.043 0.071 2 
0.255 -0.078 0.073 2 
0.311 -0.1 0.012 2 
0.276 -0.054 0.037 2 
0.303 -0.102 0.02 2 
0.249 -0.057 0.074 2 
0.265 -0.091 0.076 2 
0.288 -0.134 0.049 2 
0.255 -0.083 0.077 2 
0.25 -0.053 0.074 2 
0.248 -0.065 0.074 2 
0.251 -0.075 0.074 2 
0.249 -0.095 0.074 2 
0.269 -0.034 0.062 2 
0.259 -0.041 0.062 2 
0.256 -0.045 0.074 2 
0.31 -0.095 0.039 2 
0.314 -0.098 0.035 2 
0.343 -0.028 0.044 2 
0.265 -0.036 0.06 2 
0.286 -0.038 0.063 2 
0.27 -0.034 0.06 2 
0.263 -0.086 0.074 2 
0.344 -0.005 0.025 2 
0.273 -0.035 0.03 2 
0.291 -0.095 0.041 2 
0.261 -0.042 0.072 2 
0.255 -0.048 0.084 2 
0.267 -0.115 0.055 2 
0.27 -0.095 0.06 2 
0.266 -0.045 0.042 2 
0.245 -0.065 0.081 2 
0.271 -0.097 0.049 2 
0.286 -0.054 0.011 2 
0.249 -0.095 0.083 2 
0.326 -0.046 0.077 2 
0.265 -0.041 0.076 2 
0.304 -0.062 0.019 2 
0.346 -0.044 0.037 2 
0.275 -0.033 0.05 2 
0.255 -0.09 0.08 2 
0.297 -0.036 0.028 2 
0.281 -0.056 0.032 2 
0.346 -0.005 0.018 2 
0.281 -0.05 0.012 2 
0.356 -0.019 0.026 2 
0.288 -0.036 0.01 2 
0.294 -0.057 0.011 2 
0.282 -0.033 0.03 2 
0.351 -0.026 0.021 2 
0.344 -0.005 0.02 2 
0.282 -0.033 0.02 2 
0.345 -0.002 0.019 2 
0.323 -0.095 0.029 2 
0.322 -0.081 0.02 2 
0.351 -0.092 0.016 2 
0.287 -0.115 0.051 2 
0.286 -0.054 0.022 2 
0.298 -0.115 0.032 2 
0.284 -0.035 0.01 2 
0.334 -0.034 0.049 2 
0.365 -0.024 0.032 2 
0.344 -0.001 0.02 2 
0.274 -0.039 0.01 2 
0.344 -0.028 0.034 2 
0.32 -0.105 0.025 2 
0.36 -0.095 0.019 2 
0.325 -0.085 0.01 2 
0.352 -0.022 0.033 2 
0.274 -0.045 0.019 2 
0.368 -0.101 0.009 2 
0.301 -0.105 0.019 2 
0.294 -0.11 0.041 2 
0.318 -0.085 0.045 2 
0.275 -0.035 0.029 2 
0.271 -0.045 0.032 2 
0.297 -0.124 0.045 2 
0.342 -0.04 0.034 2 
0.29 -0.033 0.02 2 
0.306 -0.105 0.017 2 
0.319 -0.095 0.038 2 
0.354 -0.09 0.019 2 
0.322 -0.071 0.015 2 
0.357 -0.016 0.019 2 
0.354 -0.019 0.02 2 
0.335 -0.035 0.043 2 
0.303 -0.101 0.011 2 
0.326 -0.105 0.032 2 
0.289 -0.033 0.027 2 
0.324 -0.085 0.021 2 
0.343 -0.09 0.022 2 
0.308 -0.125 0.031 2 
0.298 -0.126 0.046 2 
0.355 -0.091 0.017 2 
0.296 -0.105 0.026 2 
0.289 -0.105 0.035 2 
0.294 -0.098 0.03 2 
0.348 -0.089 0.035 2 
0.286 -0.056 0.027 2 
0.35 -0.047 0.036 2 
0.353 -0.024 0.036 2 
0.344 0.011 0.028 2 
0.344 0.01 0.027 2 
0.327 -0.085 0.022 2 
0.333 -0.08 0.03 2 
0.334 -0.035 0.045 2 
0.29 -0.055 0.02 2 
0.339 -0.085 0.018 2 
0.345 0.011 0.034 2 
0.279 -0.049 0.022 2 
0.301 -0.064 0.032 2 
0.344 0.003 0.026 2 
0.359 -0.095 0.023 2 
0.345 -0.004 0.027 2 
0.346 -0.005 0.027 2 
0.324 -0.085 0.011 2 
0.274 -0.036 0.02 2 
0.278 -0.035 0.019 2 
0.347 -0.027 0.042 2 
0.329 -0.104 0.032 2 
0.48 -0.345 0.028 2 
0.481 -0.357 0.034 2 
0.474 -0.356 0.025 2 
0.47 -0.344 0.044 2 
0.471 -0.352 0.019 2 
0.465 0.111 0.144 3 
0.465 0.142 0.144 3 
0.464 0.154 0.033 3 
0.464 -0.004 0.146 3 
0.464 0.255 0.149 3 
0.464 0.117 0.144 3 
0.462 0.262 0.143 3 
0.468 -0.077 0.142 3 
0.466 0.123 0.144 3 
0.464 0.27 0.144 3 
0.465 0.133 0.144 3 
0.464 0.164 0.144 3 
0.465 0.22 0.146 3 
0.464 0.169 0.144 3 
0.466 0.063 0.144 3 
0.465 0.149 0.063 3 
0.464 0.064 0.004 3 
0.464 0.243 0.143 3 
0.465 0.003 0.143 3 
0.465 0.014 0.143 3 
0.464 0.019 0.143 3 
0.464 -0.001 0.143 3 
0.466 -0.006 0.143 3 
0.467 -0.015 0.144 3 
0.467 -0.025 0.144 3 
0.467 -0.047 0.144 3 
0.467 -0.055 0.144 3 
0.465 0.022 0.143 3 
0.467 -0.066 0.144 3 
0.464 0.103 0.144 3 
0.465 0.212 0.112 3 
0.465 0.022 0.103 3 
0.464 0.03 0.143 3 
0.465 0.033 0.143 3 
0.465 0.044 0.143 3 
0.466 0.052 0.144 3 
0.465 0.073 0.144 3 
0.463 0.084 0.143 3 
0.464 0.092 0.143 3 
0.465 0.274 0.144 3 
0.466 0.101 0.144 3 
0.467 0.134 0.153 3 
0.465 0.179 0.153 3 
0.466 0.173 0.153 3 
0.464 0.167 0.152 3 
0.464 0.164 0.152 3 
0.465 0.159 0.153 3 
0.465 0.153 0.153 3 
0.466 0.142 0.153 3 
0.465 0.116 0.063 3 
0.464 0.181 0.153 3 
0.466 0.123 0.152 3 
0.465 0.032 0.063 3 
0.465 0.112 0.152 3 
0.465 0.103 0.152 3 
0.464 0.098 0.152 3 
0.465 0.092 0.152 3 
0.464 0.081 0.151 3 
0.464 0.234 0.154 3 
0.465 0.079 0.154 3 
0.465 0.038 0.154 3 
0.465 -0.001 0.154 3 
0.466 -0.028 0.154 3 
0.467 0.346 0.159 3 
0.464 0.246 0.155 3 
0.464 0.243 0.154 3 
0.465 0.18 0.084 3 
0.466 0.074 0.152 3 
0.463 0.224 0.154 3 
0.464 0.213 0.154 3 
0.464 0.274 0.063 3 
0.465 0.205 0.154 3 
0.465 0.202 0.154 3 
0.466 0.194 0.154 3 
0.464 0.19 0.153 3 
0.464 0.108 0.149 3 
0.467 -0.115 0.153 3 
0.467 0.295 0.154 3 
0.466 0.291 0.154 3 
0.466 0.282 0.153 3 
0.467 0.264 0.153 3 
0.466 0.254 0.153 3 
0.463 0.245 0.151 3 
0.464 0.153 0.15 3 
0.471 -0.106 0.154 3 
0.465 0.264 0.093 3 
0.465 0.103 0.068 3 
0.462 0.221 0.063 3 
0.468 0.347 0.154 3 
0.467 0.342 0.153 3 
0.47 0.332 0.153 3 
0.47 0.321 0.153 3 
0.468 0.313 0.152 3 
0.47 -0.097 0.154 3 
0.468 -0.085 0.153 3 
0.468 -0.077 0.153 3 
0.468 -0.066 0.153 3 
0.461 0.333 0.062 3 
0.467 -0.055 0.152 3 
0.465 -0.017 0.151 3 
0.465 -0.006 0.152 3 
0.467 0.014 0.152 3 
0.466 0.022 0.152 3 
0.465 0.033 0.152 3 
0.464 0.038 0.151 3 
0.466 0.052 0.152 3 
0.464 0.062 0.073 3 
0.467 0.063 0.152 3 
0.466 0.333 0.132 3 
0.466 0.014 0.063 3 
0.464 0.233 0.132 3 
0.465 0.225 0.132 3 
0.465 0.222 0.132 3 
0.465 0.144 0.131 3 
0.465 0.103 0.13 3 
0.465 0.03 0.13 3 
0.464 0.014 0.13 3 
0.462 0.332 0.131 3 
0.463 0.253 0.124 3 
0.465 0.246 0.13 3 
0.465 0.243 0.129 3 
0.464 0.224 0.129 3 
0.465 0.114 0.128 3 
0.465 0.302 0.128 3 
0.465 0.204 0.126 3 
0.464 0.092 0.124 3 
0.464 0.084 0.124 3 
0.466 0.323 0.134 3 
0.465 0.261 0.105 3 
0.466 -0.036 0.133 3 
0.466 -0.047 0.133 3 
0.466 -0.055 0.133 3 
0.466 -0.066 0.133 3 
0.468 -0.077 0.134 3 
0.469 -0.085 0.134 3 
0.47 -0.099 0.134 3 
0.464 0.335 0.134 3 
0.464 0.073 0.124 3 
0.464 0.314 0.134 3 
0.463 0.303 0.133 3 
0.463 0.294 0.133 3 
0.463 0.284 0.133 3 
0.465 0.3 0.04 3 
0.462 0.262 0.132 3 
0.465 0.094 0.033 3 
0.464 0.242 0.132 3 
0.466 0.062 0.122 3 
0.464 0.183 0.123 3 
0.465 0.172 0.123 3 
0.465 0.164 0.123 3 
0.465 0.153 0.122 3 
0.466 0.134 0.122 3 
0.466 0.123 0.122 3 
0.465 0.114 0.122 3 
0.464 0.103 0.122 3 
0.465 0.073 0.122 3 
0.463 0.194 0.122 3 
0.465 0.052 0.122 3 
0.465 0.041 0.122 3 
0.465 0.033 0.122 3 
0.466 0.014 0.122 3 
0.466 -0.006 0.122 3 
0.466 -0.015 0.122 3 
0.467 -0.025 0.122 3 
0.465 0.204 0.12 3 
0.464 0.272 0.124 3 
0.464 0.059 0.124 3 
0.464 0.054 0.124 3 
0.464 0.043 0.124 3 
0.465 0.017 0.124 3 
0.465 -0.001 0.124 3 
0.465 -0.039 0.124 3 
0.464 0.324 0.125 3 
0.463 0.287 0.124 3 
0.464 0.282 0.124 3 
0.466 -0.025 0.133 3 
0.463 0.262 0.124 3 
0.463 0.244 0.123 3 
0.465 0.237 0.124 3 
0.464 0.233 0.123 3 
0.465 0.228 0.124 3 
0.464 0.224 0.123 3 
0.465 0.213 0.123 3 
0.464 0.203 0.123 3 
0.463 0.162 0.063 3 
0.467 0.314 0.143 3 
0.466 0.304 0.143 3 
0.464 0.295 0.142 3 
0.464 0.292 0.142 3 
0.464 0.282 0.141 3 
0.465 0.277 0.142 3 
0.466 -0.015 0.084 3 
0.464 0.133 0.138 3 
0.465 0.076 0.138 3 
0.468 0.322 0.144 3 
0.465 0.03 0.007 3 
0.466 0.084 0.074 3 
0.465 0.035 0.007 3 
0.465 0.246 0.138 3 
0.465 0.078 0.007 3 
0.465 0.243 0.138 3 
0.463 0.224 0.137 3 
0.465 0.089 0.136 3 
0.465 0.153 0.142 3 
0.465 0.225 0.143 3 
0.465 0.222 0.143 3 
0.462 0.181 0.033 3 
0.465 0.214 0.143 3 
0.464 0.21 0.143 3 
0.462 0.194 0.142 3 
0.464 0.183 0.142 3 
0.465 0.173 0.142 3 
0.465 0.164 0.142 3 
0.464 0.014 0.135 3 
0.464 0.114 0.141 3 
0.464 0.073 0.141 3 
0.464 -0.006 0.092 3 
0.467 -0.047 0.122 3 
0.469 -0.085 0.142 3 
0.47 -0.105 0.143 3 
0.467 0.342 0.144 3 
0.469 0.334 0.144 3 
0.464 0.038 0.132 3 
0.464 0.103 0.133 3 
0.464 0.092 0.133 3 
0.465 0.089 0.133 3 
0.466 0.084 0.133 3 
0.466 -0.007 0.084 3 
0.465 0.073 0.133 3 
0.466 0.063 0.133 3 
0.465 0.054 0.133 3 
0.465 0.044 0.133 3 
0.464 0.114 0.133 3 
0.464 0.235 0.06 3 
0.464 0.033 0.132 3 
0.464 0.022 0.132 3 
0.465 0.019 0.133 3 
0.465 0.014 0.133 3 
0.466 0.003 0.133 3 
0.465 -0.006 0.132 3 
0.465 -0.017 0.132 3 
0.465 0.158 0.133 3 
0.462 0.25 0.134 3 
0.465 0.21 0.134 3 
0.463 0.203 0.134 3 
0.463 0.194 0.133 3 
0.464 0.183 0.134 3 
0.465 0.256 0.054 3 
0.463 0.174 0.133 3 
0.464 0.163 0.133 3 
0.463 0.233 0.143 3 
0.465 0.153 0.133 3 
0.464 0.147 0.133 3 
0.464 0.144 0.133 3 
0.464 0.133 0.133 3 
0.465 0.064 0.063 3 
0.465 0.128 0.133 3 
0.464 0.122 0.133 3 
0.465 0.12 0.133 3 
0.469 0.233 0.184 3 
0.463 0.182 0.054 3 
0.472 0.017 0.184 3 
0.472 0.014 0.184 3 
0.461 0.303 0.082 3 
0.471 0.003 0.184 3 
0.466 0.254 0.071 3 
0.464 0.043 0.05 3 
0.475 -0.007 0.186 3 
0.468 0.235 0.184 3 
0.464 0.152 0.12 3 
0.465 0.161 0.084 3 
0.468 0.223 0.184 3 
0.468 0.211 0.183 3 
0.467 0.204 0.183 3 
0.465 0.041 0.103 3 
0.468 0.193 0.183 3 
0.468 0.182 0.182 3 
0.47 0.174 0.183 3 
0.47 0.083 0.184 3 
0.467 0.164 0.184 3 
0.465 0.154 0.183 3 
0.463 0.203 0.142 3 
0.466 0.143 0.183 3 
0.469 0.133 0.184 3 
0.475 0.119 0.186 3 
0.47 0.103 0.184 3 
0.469 0.094 0.184 3 
0.471 0.123 0.182 3 
0.466 0.043 0.074 3 
0.47 0.072 0.184 3 
0.47 0.064 0.184 3 
0.471 0.053 0.184 3 
0.475 0.037 0.186 3 
0.472 0.034 0.184 3 
0.477 0.029 0.187 3 
0.475 0.02 0.186 3 
0.464 0.294 0.094 3 
0.465 0.003 0.092 3 
0.475 -0.085 0.183 3 
0.465 0.226 0.163 3 
0.476 -0.096 0.184 3 
0.464 0.197 0.104 3 
0.472 0.355 0.189 3 
0.467 0.152 0.173 3 
0.467 0.317 0.184 3 
0.466 0.312 0.184 3 
0.475 -0.082 0.183 3 
0.467 0.303 0.184 3 
0.469 0.292 0.184 3 
0.468 0.282 0.183 3 
0.467 0.274 0.182 3 
0.468 0.263 0.182 3 
0.469 0.254 0.182 3 
0.474 -0.051 0.18 3 
0.467 -0.055 0.063 3 
0.473 -0.037 0.182 3 
0.47 -0.105 0.134 3 
0.472 0.112 0.182 3 
0.471 0.042 0.181 3 
0.467 0.112 0.164 3 
0.471 -0.007 0.181 3 
0.474 -0.015 0.183 3 
0.472 -0.026 0.182 3 
0.474 -0.037 0.174 3 
0.471 0.332 0.193 3 
0.476 -0.043 0.184 3 
0.467 0.34 0.022 3 
0.476 -0.046 0.183 3 
0.475 -0.057 0.183 3 
0.473 -0.059 0.182 3 
0.473 -0.065 0.182 3 
0.474 -0.076 0.183 3 
0.464 0.301 0.113 3 
0.468 0.144 0.187 3 
0.468 0.211 0.189 3 
0.468 0.202 0.189 3 
0.469 0.194 0.189 3 
0.471 0.184 0.189 3 
0.469 0.174 0.188 3 
0.467 0.161 0.187 3 
0.465 0.154 0.186 3 
0.465 0.078 0.122 3 
0.464 0.281 0.093 3 
0.468 -0.036 0.144 3 
0.471 0.134 0.188 3 
0.464 0.062 0.114 3 
0.473 0.124 0.189 3 
0.473 0.073 0.188 3 
0.473 0.112 0.188 3 
0.468 0.278 0.174 3 
0.471 0.103 0.187 3 
0.469 0.094 0.186 3 
0.464 0.183 0.109 3 
0.471 0.351 0.197 3 
0.464 0.138 0.084 3 
0.471 0.34 0.197 3 
0.47 0.332 0.196 3 
0.47 0.324 0.195 3 
0.47 0.317 0.194 3 
0.47 0.314 0.194 3 
0.47 0.3 0.193 3 
0.472 0.084 0.188 3 
0.47 0.294 0.193 3 
0.47 0.284 0.193 3 
0.472 0.273 0.193 3 
0.472 0.263 0.193 3 
0.47 0.252 0.191 3 
0.468 0.241 0.19 3 
0.469 0.233 0.19 3 
0.469 0.224 0.19 3 
0.464 0.033 0.146 3 
0.466 0.313 0.131 3 
0.476 -0.085 0.189 3 
0.477 -0.097 0.19 3 
0.478 -0.106 0.19 3 
0.48 -0.115 0.191 3 
0.478 -0.126 0.191 3 
0.466 -0.036 0.154 3 
0.48 -0.135 0.192 3 
0.466 -0.047 0.152 3 
0.464 0.092 0.103 3 
0.482 -0.145 0.193 3 
0.466 -0.006 0.114 3 
0.464 0.207 0.134 3 
0.464 0.062 0.063 3 
0.471 0.355 0.195 3 
0.471 0.351 0.194 3 
0.47 0.339 0.193 3 
0.474 -0.015 0.188 3 
0.471 0.064 0.187 3 
0.472 0.053 0.187 3 
0.474 0.042 0.188 3 
0.472 0.034 0.187 3 
0.471 0.023 0.187 3 
0.471 0.014 0.187 3 
0.471 0.003 0.187 3 
0.473 -0.007 0.188 3 
0.474 -0.087 0.18 3 
0.475 -0.018 0.189 3 
0.473 -0.026 0.188 3 
0.474 -0.037 0.188 3 
0.475 -0.04 0.189 3 
0.475 -0.046 0.189 3 
0.477 -0.057 0.189 3 
0.476 -0.065 0.189 3 
0.475 -0.076 0.189 3 
0.469 -0.007 0.164 3 
0.468 0.082 0.164 3 
0.469 0.074 0.164 3 
0.469 0.063 0.164 3 
0.465 0.222 0.124 3 
0.467 0.044 0.163 3 
0.469 0.033 0.164 3 
0.469 0.022 0.164 3 
0.467 0.014 0.163 3 
0.468 0.003 0.163 3 
0.469 0.094 0.164 3 
0.469 -0.015 0.164 3 
0.469 -0.026 0.164 3 
0.469 -0.036 0.164 3 
0.471 -0.045 0.164 3 
0.47 -0.075 0.164 3 
0.467 0.258 0.164 3 
0.467 0.273 0.153 3 
0.466 0.248 0.164 3 
0.465 0.345 0.17 3 
0.469 0.321 0.173 3 
0.468 0.314 0.173 3 
0.469 0.301 0.172 3 
0.468 0.291 0.172 3 
0.474 -0.098 0.169 3 
0.474 -0.107 0.169 3 
0.462 0.24 0.104 3 
0.474 -0.115 0.169 3 
0.464 0.243 0.163 3 
0.466 0.168 0.164 3 
0.467 0.163 0.164 3 
0.466 -0.036 0.103 3 
0.467 0.154 0.164 3 
0.467 0.143 0.164 3 
0.467 0.132 0.164 3 
0.467 0.124 0.164 3 
0.467 0.104 0.164 3 
0.468 0.293 0.163 3 
0.47 -0.116 0.162 3 
0.464 0.235 0.032 3 
0.465 0.344 0.164 3 
0.468 0.327 0.164 3 
0.463 0.333 0.123 3 
0.467 0.322 0.164 3 
0.468 0.313 0.164 3 
0.469 0.304 0.164 3 
0.462 0.281 0.023 3 
0.465 0.262 0.063 3 
0.467 0.283 0.162 3 
0.468 0.274 0.162 3 
0.465 0.214 0.16 3 
0.464 0.193 0.159 3 
0.47 -0.125 0.16 3 
0.463 0.342 0.161 3 
0.464 0.155 0.155 3 
0.466 0.194 0.162 3 
0.465 0.241 0.163 3 
0.464 0.231 0.163 3 
0.465 0.223 0.163 3 
0.464 0.219 0.162 3 
0.464 0.213 0.162 3 
0.465 0.084 0.114 3 
0.464 0.202 0.162 3 
0.465 0.2 0.162 3 
0.47 0.333 0.174 3 
0.466 0.183 0.162 3 
0.471 -0.056 0.162 3 
0.47 -0.067 0.162 3 
0.463 0.293 0.113 3 
0.471 -0.086 0.162 3 
0.471 -0.097 0.162 3 
0.465 0.113 0.044 3 
0.47 -0.105 0.162 3 
0.467 0.143 0.172 3 
0.466 -0.007 0.063 3 
0.467 0.21 0.174 3 
0.467 0.204 0.174 3 
0.462 0.253 0.143 3 
0.465 0.194 0.173 3 
0.462 0.272 0.032 3 
0.466 0.183 0.173 3 
0.467 0.172 0.173 3 
0.468 0.164 0.174 3 
0.47 0.352 0.182 3 
0.467 0.132 0.172 3 
0.468 0.124 0.173 3 
0.47 -0.097 0.143 3 
0.468 0.113 0.172 3 
0.468 0.083 0.172 3 
0.47 0.072 0.173 3 
0.47 0.064 0.173 3 
0.464 0.201 0.151 3 
0.469 0.344 0.184 3 
0.474 -0.096 0.18 3 
0.464 0.038 0.143 3 
0.477 -0.105 0.181 3 
0.479 -0.117 0.182 3 
0.478 -0.125 0.182 3 
0.475 -0.136 0.181 3 
0.463 0.272 0.132 3 
0.474 -0.138 0.181 3 
0.469 0.044 0.172 3 
0.47 0.334 0.183 3 
0.464 0.191 0.176 3 
0.464 0.313 0.062 3 
0.466 0.104 0.174 3 
0.465 0.144 0.122 3 
0.465 0.093 0.174 3 
0.467 0.05 0.174 3 
0.474 -0.13 0.178 3 
0.468 0.232 0.172 3 
0.472 -0.087 0.174 3 
0.472 -0.131 0.174 3 
0.472 -0.137 0.174 3 
0.467 0.274 0.174 3 
0.469 0.263 0.174 3 
0.47 0.251 0.174 3 
0.464 0.214 0.112 3 
0.469 0.241 0.173 3 
0.471 -0.075 0.173 3 
0.468 0.223 0.172 3 
0.464 -0.025 0.127 3 
0.475 -0.09 0.172 3 
0.475 -0.096 0.172 3 
0.475 -0.107 0.172 3 
0.475 -0.116 0.172 3 
0.476 -0.125 0.173 3 
0.468 0.341 0.174 3 
0.472 -0.026 0.173 3 
0.464 0.313 0.094 3 
0.47 0.034 0.173 3 
0.467 0.052 0.163 3 
0.469 0.022 0.172 3 
0.468 0.014 0.172 3 
0.47 0.003 0.173 3 
0.471 -0.007 0.173 3 
0.471 -0.015 0.173 3 
0.464 0.087 0.154 3 
0.463 0.104 0.012 3 
0.475 -0.045 0.174 3 
0.474 -0.048 0.174 3 
0.473 -0.056 0.174 3 
0.466 0.003 0.103 3 
0.471 -0.067 0.173 3 
0.466 0.103 0.044 3 
0.463 0.214 0.013 3 
0.464 0.323 0.054 3 
0.468 -0.047 0.063 3 
0.466 -0.066 0.063 3 
0.463 0.162 0.033 3 
0.464 0.262 0.06 3 
0.465 0.212 0.06 3 
0.465 0.281 0.057 3 
0.465 0.203 0.057 3 
0.465 0.155 0.057 3 
0.46 0.335 0.054 3 
0.468 -0.036 0.063 3 
0.465 0.314 0.054 3 
0.464 0.31 0.054 3 
0.464 0.3 0.054 3 
0.462 0.292 0.054 3 
0.464 0.283 0.054 3 
0.463 0.261 0.054 3 
0.465 0.253 0.054 3 
0.466 0.242 0.054 3 
0.465 0.103 0.063 3 
0.463 0.193 0.063 3 
0.464 0.182 0.063 3 
0.463 0.173 0.063 3 
0.464 0.154 0.063 3 
0.466 0.144 0.063 3 
0.464 0.138 0.063 3 
0.464 0.132 0.063 3 
0.464 0.124 0.063 3 
0.465 0.114 0.063 3 
0.464 0.235 0.054 3 
0.465 0.094 0.063 3 
0.465 0.084 0.063 3 
0.466 0.073 0.063 3 
0.465 0.054 0.063 3 
0.466 0.024 0.063 3 
0.466 0.003 0.063 3 
0.467 -0.015 0.063 3 
0.467 -0.025 0.063 3 
0.467 -0.025 0.052 3 
0.466 0.073 0.052 3 
0.465 0.062 0.052 3 
0.465 0.054 0.052 3 
0.465 0.043 0.052 3 
0.465 0.032 0.052 3 
0.465 0.024 0.052 3 
0.466 0.014 0.052 3 
0.467 -0.007 0.052 3 
0.466 -0.015 0.052 3 
0.465 0.094 0.052 3 
0.461 0.281 0.012 3 
0.467 -0.036 0.052 3 
0.467 -0.047 0.052 3 
0.464 -0.054 0.052 3 
0.466 -0.057 0.052 3 
0.467 -0.015 0.023 3 
0.465 0.331 0.048 3 
0.465 0.324 0.048 3 
0.463 0.173 0.052 3 
0.464 0.232 0.054 3 
0.463 0.222 0.054 3 
0.464 0.214 0.054 3 
0.465 0.206 0.054 3 
0.464 0.202 0.054 3 
0.463 0.193 0.054 3 
0.464 -0.039 0.023 3 
0.465 -0.036 0.023 3 
0.466 -0.025 0.023 3 
0.463 0.202 0.063 3 
0.463 0.162 0.052 3 
0.463 0.154 0.052 3 
0.464 0.143 0.052 3 
0.465 0.135 0.052 3 
0.465 0.133 0.052 3 
0.465 0.124 0.052 3 
0.465 0.113 0.052 3 
0.466 0.103 0.052 3 
0.464 0.143 0.073 3 
0.463 0.231 0.074 3 
0.463 0.222 0.074 3 
0.463 0.213 0.073 3 
0.464 0.203 0.074 3 
0.463 0.193 0.073 3 
0.463 0.182 0.073 3 
0.464 0.174 0.074 3 
0.463 0.162 0.073 3 
0.463 0.154 0.073 3 
0.465 0.238 0.074 3 
0.465 0.141 0.074 3 
0.465 0.133 0.074 3 
0.465 0.122 0.074 3 
0.464 0.119 0.073 3 
0.464 0.113 0.073 3 
0.464 0.102 0.073 3 
0.464 0.094 0.073 3 
0.465 0.092 0.074 3 
0.464 0.32 0.074 3 
0.462 0.294 0.012 3 
0.467 -0.055 0.122 3 
0.464 0.293 0.034 3 
0.464 0.102 0.076 3 
0.464 0.102 0.017 3 
0.462 0.338 0.074 3 
0.462 0.334 0.074 3 
0.465 0.327 0.074 3 
0.465 0.324 0.074 3 
0.464 0.073 0.074 3 
0.465 0.314 0.074 3 
0.464 0.306 0.074 3 
0.463 0.302 0.074 3 
0.462 0.292 0.074 3 
0.46 0.283 0.074 3 
0.461 0.272 0.074 3 
0.464 0.252 0.074 3 
0.464 0.243 0.074 3 
0.465 0.311 0.062 3 
0.465 0.304 0.068 3 
0.465 0.114 0.068 3 
0.464 -0.068 0.068 3 
0.464 -0.033 0.02 3 
0.464 0.051 0.02 3 
0.464 0.046 0.066 3 
0.464 0.113 0.02 3 
0.461 0.336 0.062 3 
0.463 0.322 0.062 3 
0.464 0.132 0.071 3 
0.464 0.303 0.062 3 
0.463 0.293 0.062 3 
0.463 0.283 0.062 3 
0.465 0.269 0.063 3 
0.466 0.254 0.063 3 
0.466 0.003 0.052 3 
0.465 0.244 0.063 3 
0.464 0.214 0.063 3 
0.468 -0.015 0.074 3 
0.465 0.07 0.074 3 
0.465 0.056 0.074 3 
0.465 0.054 0.074 3 
0.466 0.033 0.074 3 
0.466 0.022 0.074 3 
0.466 0.014 0.074 3 
0.466 0.003 0.074 3 
0.467 -0.007 0.074 3 
0.465 0.265 0.049 3 
0.468 -0.025 0.074 3 
0.468 -0.036 0.074 3 
0.466 -0.066 0.074 3 
0.463 0.311 0.014 3 
0.464 0.322 0.014 3 
0.464 0.333 0.014 3 
0.465 0.262 0.071 3 
0.465 0.186 0.071 3 
0.464 0.214 0.032 3 
0.462 0.193 0.022 3 
0.462 0.281 0.032 3 
0.463 0.264 0.032 3 
0.464 0.253 0.032 3 
0.465 0.247 0.032 3 
0.465 0.244 0.032 3 
0.464 0.019 0.034 3 
0.463 0.231 0.032 3 
0.463 0.222 0.032 3 
0.464 0.088 0.036 3 
0.465 0.212 0.032 3 
0.465 0.203 0.032 3 
0.464 0.194 0.033 3 
0.463 0.173 0.033 3 
0.465 0.144 0.033 3 
0.466 0.133 0.033 3 
0.464 0.127 0.033 3 
0.465 0.124 0.033 3 
0.462 0.173 0.022 3 
0.464 0.075 0.042 3 
0.464 0.072 0.042 3 
0.465 0.019 0.042 3 
0.464 0.014 0.042 3 
0.463 0.162 0.022 3 
0.467 0.336 0.036 3 
0.464 0.293 0.037 3 
0.464 0.064 0.039 3 
0.464 0.003 0.039 3 
0.464 0.121 0.033 3 
0.465 0.327 0.014 3 
0.461 0.184 0.022 3 
0.462 0.338 0.034 3 
0.462 0.334 0.034 3 
0.463 0.322 0.034 3 
0.463 0.312 0.034 3 
0.464 0.302 0.034 3 
0.465 0.2 0.035 3 
0.462 0.263 0.024 3 
0.466 0.342 0.028 3 
0.465 0.313 0.028 3 
0.464 0.2 0.03 3 
0.464 0.143 0.03 3 
0.465 0.027 0.031 3 
0.464 0.014 0.031 3 
0.463 0.234 0.024 3 
0.464 0.244 0.024 3 
0.462 0.254 0.024 3 
0.464 0.203 0.024 3 
0.465 0.043 0.028 3 
0.461 0.274 0.024 3 
0.462 0.294 0.023 3 
0.463 0.301 0.023 3 
0.464 0.312 0.023 3 
0.464 0.323 0.022 3 
0.468 0.345 0.022 3 
0.465 0.334 0.022 3 
0.464 0.032 0.034 3 
0.466 0.114 0.033 3 
0.467 0.103 0.033 3 
0.464 0.088 0.033 3 
0.464 0.083 0.033 3 
0.464 0.072 0.034 3 
0.465 0.064 0.033 3 
0.465 0.054 0.034 3 
0.464 0.046 0.034 3 
0.464 0.043 0.034 3 
0.465 0.215 0.041 3 
0.465 0.024 0.034 3 
0.465 0.014 0.034 3 
0.466 0.003 0.034 3 
0.467 -0.007 0.034 3 
0.467 -0.015 0.034 3 
0.466 -0.025 0.034 3 
0.464 -0.036 0.034 3 
0.465 -0.041 0.034 3 
0.464 0.313 0.043 3 
0.465 0.113 0.022 3 
0.465 0.119 0.022 3 
0.461 0.336 0.042 3 
0.465 0.334 0.042 3 
0.464 0.33 0.042 3 
0.465 0.321 0.042 3 
0.465 0.334 0.025 3 
0.464 0.316 0.043 3 
0.463 0.132 0.022 3 
0.465 0.102 0.023 3 
0.463 0.302 0.043 3 
0.465 0.284 0.043 3 
0.464 0.277 0.043 3 
0.464 0.274 0.043 3 
0.464 0.262 0.043 3 
0.462 0.224 0.024 3 
0.464 0.252 0.043 3 
0.465 0.244 0.043 3 
0.465 0.062 0.023 3 
0.464 0.252 0.049 3 
0.467 -0.007 0.023 3 
0.466 0.003 0.023 3 
0.464 0.024 0.023 3 
0.465 0.027 0.023 3 
0.464 0.032 0.023 3 
0.464 0.038 0.023 3 
0.465 0.043 0.023 3 
0.465 0.054 0.023 3 
0.464 0.238 0.043 3 
0.464 0.064 0.023 3 
0.464 0.072 0.023 3 
0.464 0.083 0.023 3 
0.465 0.294 0.046 3 
0.465 0.284 0.046 3 
0.464 0.03 0.047 3 
0.464 0.086 0.023 3 
0.465 0.094 0.023 3 
0.467 -0.015 0.044 3 
0.465 0.064 0.044 3 
0.465 0.054 0.044 3 
0.464 0.046 0.044 3 
0.464 0.043 0.044 3 
0.464 0.032 0.044 3 
0.464 0.024 0.044 3 
0.465 0.014 0.044 3 
0.465 0.003 0.044 3 
0.466 -0.007 0.044 3 
0.465 0.073 0.044 3 
0.467 -0.025 0.044 3 
0.466 -0.036 0.044 3 
0.465 -0.047 0.044 3 
0.463 -0.054 0.044 3 
0.463 0.154 0.022 3 
0.464 0.011 0.023 3 
0.465 0.265 0.04 3 
0.465 0.262 0.04 3 
0.462 0.164 0.044 3 
0.463 0.143 0.022 3 
0.464 0.223 0.043 3 
0.464 0.214 0.043 3 
0.465 0.209 0.043 3 
0.464 0.202 0.043 3 
0.464 0.194 0.044 3 
0.462 0.184 0.044 3 
0.462 0.173 0.044 3 
0.461 0.303 0.012 3 
0.462 0.153 0.044 3 
0.463 0.143 0.044 3 
0.465 0.133 0.044 3 
0.464 0.13 0.044 3 
0.464 0.124 0.044 3 
0.465 0.122 0.044 3 
0.466 0.094 0.044 3 
0.465 0.083 0.044 3 
0.462 0.123 0.012 3 
0.465 0.186 0.109 3 
0.463 0.072 0.012 3 
0.465 0.035 0.108 3 
0.463 0.083 0.012 3 
0.465 0.301 0.108 3 
0.464 -0.089 0.106 3 
0.463 0.094 0.012 3 
0.462 0.112 0.012 3 
0.466 0.103 0.084 3 
0.464 0.067 0.06 3 
0.462 0.289 0.104 3 
0.462 0.283 0.104 3 
0.463 0.332 0.082 3 
0.463 0.274 0.104 3 
0.464 0.263 0.104 3 
0.464 0.248 0.104 3 
0.463 0.319 0.082 3 
0.461 0.233 0.103 3 
0.465 -0.025 0.012 3 
0.463 0.253 0.112 3 
0.462 0.243 0.112 3 
0.463 0.223 0.112 3 
0.466 0.204 0.112 3 
0.465 0.184 0.112 3 
0.464 0.144 0.111 3 
0.464 0.1 0.111 3 
0.469 -0.077 0.112 3 
0.469 -0.085 0.112 3 
0.461 0.271 0.013 3 
0.464 0.032 0.012 3 
0.464 0.307 0.097 3 
0.463 0.043 0.012 3 
0.462 0.053 0.013 3 
0.466 0.246 0.11 3 
0.465 0.294 0.043 3 
0.463 0.064 0.012 3 
0.465 0.243 0.11 3 
0.466 0.014 0.103 3 
0.465 0.103 0.103 3 
0.465 0.089 0.103 3 
0.464 0.083 0.103 3 
0.465 0.081 0.103 3 
0.464 0.073 0.103 3 
0.464 0.062 0.103 3 
0.463 0.054 0.103 3 
0.464 0.043 0.103 3 
0.466 0.033 0.103 3 
0.465 0.114 0.103 3 
0.466 -0.006 0.103 3 
0.463 0.193 0.084 3 
0.467 -0.015 0.103 3 
0.467 -0.025 0.103 3 
0.464 -0.046 0.103 3 
0.465 -0.049 0.103 3 
0.461 0.262 0.013 3 
0.467 -0.066 0.104 3 
0.465 0.172 0.104 3 
0.463 0.222 0.104 3 
0.464 0.214 0.104 3 
0.462 0.134 0.012 3 
0.465 0.212 0.104 3 
0.465 0.203 0.104 3 
0.463 0.194 0.103 3 
0.463 0.182 0.103 3 
0.465 0.178 0.104 3 
0.462 0.261 0.112 3 
0.464 0.166 0.103 3 
0.464 0.163 0.103 3 
0.463 0.154 0.103 3 
0.461 0.142 0.012 3 
0.463 0.143 0.103 3 
0.464 0.133 0.103 3 
0.465 0.125 0.103 3 
0.465 0.122 0.103 3 
0.465 0.167 0.114 3 
0.465 0.302 0.119 3 
0.465 0.292 0.119 3 
0.465 0.273 0.119 3 
0.464 0.033 0.116 3 
0.465 0.246 0.116 3 
0.461 0.225 0.114 3 
0.463 0.199 0.114 3 
0.463 0.191 0.114 3 
0.466 0.187 0.115 3 
0.462 0.312 0.119 3 
0.465 0.164 0.114 3 
0.464 0.158 0.114 3 
0.464 0.152 0.114 3 
0.465 0.144 0.114 3 
0.467 0.131 0.114 3 
0.466 0.122 0.114 3 
0.461 0.294 0.082 3 
0.465 0.114 0.114 3 
0.465 0.152 0.084 3 
0.467 -0.066 0.122 3 
0.468 -0.077 0.123 3 
0.471 -0.086 0.123 3 
0.471 -0.097 0.124 3 
0.463 0.34 0.123 3 
0.465 0.332 0.123 3 
0.466 0.323 0.123 3 
0.466 0.313 0.123 3 
0.464 0.304 0.122 3 
0.466 0.103 0.114 3 
0.465 0.28 0.122 3 
0.464 0.33 0.022 3 
0.463 0.154 0.092 3 
0.465 0.178 0.12 3 
0.464 0.155 0.12 3 
0.465 0.103 0.119 3 
0.457 -0.092 0.118 3 
0.463 0.323 0.119 3 
0.464 0.232 0.063 3 
0.465 0.003 0.114 3 
0.464 0.274 0.054 3 
0.467 -0.015 0.114 3 
0.468 -0.025 0.114 3 
0.466 -0.036 0.114 3 
0.467 -0.047 0.114 3 
0.468 -0.061 0.114 3 
0.468 -0.066 0.114 3 
0.464 -0.028 0.012 3 
0.465 0.011 0.114 3 
0.462 0.338 0.114 3 
0.461 0.33 0.114 3 
0.465 0.331 0.114 3 
0.459 0.318 0.113 3 
0.462 0.312 0.113 3 
0.465 0.311 0.114 3 
0.463 0.281 0.113 3 
0.464 0.272 0.113 3 
0.464 0.043 0.114 3 
0.464 0.092 0.114 3 
0.465 0.087 0.114 3 
0.464 0.081 0.114 3 
0.465 0.073 0.114 3 
0.464 0.065 0.114 3 
0.465 0.06 0.114 3 
0.462 0.236 0.084 3 
0.464 0.054 0.114 3 
0.465 -0.055 0.103 3 
0.463 0.213 0.024 3 
0.464 0.033 0.114 3 
0.465 0.251 0.104 3 
0.465 0.027 0.114 3 
0.466 0.022 0.114 3 
0.464 0.016 0.113 3 
0.464 0.014 0.113 3 
0.463 0.264 0.074 3 
0.461 0.333 0.054 3 
0.465 0.084 0.087 3 
0.461 0.192 0.014 3 
0.462 0.201 0.014 3 
0.462 0.224 0.013 3 
0.462 0.233 0.084 3 
0.464 0.211 0.084 3 
0.464 0.203 0.084 3 
0.464 0.183 0.084 3 
0.464 0.171 0.084 3 
0.465 0.133 0.087 3 
0.464 0.163 0.084 3 
0.464 0.146 0.084 3 
0.465 0.144 0.084 3 
0.465 0.133 0.084 3 
0.464 0.13 0.084 3 
0.464 0.124 0.084 3 
0.465 0.119 0.084 3 
0.461 0.232 0.013 3 
0.465 0.089 0.09 3 
0.462 0.173 0.014 3 
0.468 -0.077 0.104 3 
0.464 0.183 0.09 3 
0.464 0.171 0.09 3 
0.465 0.149 0.09 3 
0.466 0.144 0.09 3 
0.464 0.062 0.034 3 
0.464 0.113 0.09 3 
0.466 0.103 0.09 3 
0.465 0.114 0.084 3 
0.465 0.073 0.09 3 
0.465 0.059 0.09 3 
0.464 0.124 0.023 3 
0.464 0.027 0.089 3 
0.464 -0.084 0.09 3 
0.464 -0.046 0.034 3 
0.461 0.184 0.014 3 
0.465 0.158 0.087 3 
0.468 -0.036 0.082 3 
0.46 0.283 0.082 3 
0.462 0.273 0.082 3 
0.462 0.264 0.082 3 
0.464 0.253 0.082 3 
0.465 0.25 0.082 3 
0.464 0.223 0.082 3 
0.465 0.172 0.082 3 
0.464 0.11 0.082 3 
0.468 -0.025 0.082 3 
0.462 0.308 0.082 3 
0.468 -0.047 0.082 3 
0.467 -0.055 0.082 3 
0.467 -0.066 0.082 3 
0.466 -0.076 0.082 3 
0.46 0.243 0.013 3 
0.465 0.256 0.079 3 
0.464 0.054 0.079 3 
0.46 0.252 0.013 3 
0.466 0.043 0.084 3 
0.465 0.092 0.084 3 
0.464 0.086 0.084 3 
0.465 0.084 0.084 3 
0.465 0.073 0.084 3 
0.467 -0.047 0.074 3 
0.464 0.062 0.084 3 
0.465 0.059 0.084 3 
0.467 0.344 0.013 3 
0.465 0.054 0.084 3 
0.464 0.263 0.09 3 
0.466 0.033 0.084 3 
0.466 0.022 0.084 3 
0.467 0.014 0.084 3 
0.465 0.003 0.084 3 
0.463 0.339 0.082 3 
0.465 0.331 0.083 3 
0.465 0.324 0.083 3 
0.465 0.314 0.082 3 
0.464 0.214 0.093 3 
0.464 -0.087 0.098 3 
0.464 0.113 0.095 3 
0.465 0.046 0.095 3 
0.46 0.336 0.094 3 
0.462 0.334 0.094 3 
0.465 0.328 0.094 3 
0.465 0.324 0.094 3 
0.464 0.32 0.094 3 
0.463 0.302 0.094 3 
0.461 0.164 0.014 3 
0.465 0.288 0.094 3 
0.464 0.272 0.093 3 
0.465 0.27 0.093 3 
0.465 0.254 0.093 3 
0.465 0.043 0.063 3 
0.464 0.25 0.093 3 
0.463 0.243 0.093 3 
0.465 -0.087 0.093 3 
0.464 0.297 0.102 3 
0.465 -0.087 0.103 3 
0.463 0.234 0.043 3 
0.46 0.336 0.102 3 
0.461 0.33 0.102 3 
0.465 0.328 0.103 3 
0.464 0.323 0.102 3 
0.465 0.318 0.102 3 
0.465 0.314 0.102 3 
0.465 0.301 0.102 3 
0.463 0.234 0.093 3 
0.465 0.267 0.102 3 
0.465 0.264 0.102 3 
0.465 0.215 0.101 3 
0.464 0.124 0.1 3 
0.464 0.1 0.1 3 
0.465 0.073 0.1 3 
0.461 0.153 0.014 3 
0.467 -0.055 0.074 3 
0.464 -0.004 0.092 3 
0.464 0.223 0.093 3 
0.466 0.084 0.052 3 
0.465 0.051 0.092 3 
0.465 0.043 0.092 3 
0.464 0.04 0.092 3 
0.465 0.014 0.023 3 
0.465 0.032 0.092 3 
0.465 0.024 0.092 3 
0.466 0.014 0.092 3 
0.464 0.054 0.092 3 
0.465 -0.009 0.092 3 
0.466 -0.015 0.092 3 
0.468 -0.025 0.093 3 
0.467 -0.036 0.093 3 
0.467 -0.047 0.093 3 
0.468 -0.055 0.093 3 
0.467 -0.066 0.093 3 
0.467 -0.077 0.093 3 
0.462 0.132 0.092 3 
0.465 0.221 0.093 3 
0.464 0.203 0.093 3 
0.464 0.194 0.093 3 
0.465 0.189 0.093 3 
0.465 0.183 0.093 3 
0.465 0.172 0.093 3 
0.464 0.163 0.092 3 
0.463 0.143 0.092 3 
0.463 0.062 0.092 3 
0.464 0.124 0.092 3 
0.465 0.122 0.092 3 
0.466 0.114 0.093 3 
0.464 0.102 0.092 3 
0.464 0.094 0.092 3 
0.464 0.083 0.092 3 
0.464 0.073 0.092 3 
