# .PCD v0.7 - Point Cloud Data file
FIELDS x y z intensity
SIZE 4 4 4 4
TYPE F F F F
COUNT 1 1 1 1
WIDTH 2345
HEIGHT 1
VIEWPOINT 0 0 0 1 0 0 0
POINTS 2345
DATA ascii
0.372 -0.236 -0.025 1 
0.364 -0.165 -0.019 1 
0.364 -0.155 -0.018 1 
0.363 -0.135 -0.017 1 
0.363 -0.125 -0.017 1 
0.36 -0.105 -0.015 1 
0.363 -0.096 -0.016 1 
0.36 -0.085 -0.015 1 
0.36 -0.062 -0.015 1 
0.364 -0.027 -0.016 1 
0.358 0.019 -0.014 1 
0.359 0.024 -0.015 1 
0.359 0.033 -0.015 1 
0.357 0.064 -0.014 1 
0.353 0.083 -0.013 1 
0.354 0.094 -0.014 1 
0.353 0.104 -0.014 1 
0.352 0.114 -0.014 1 
0.352 0.123 -0.014 1 
0.351 0.134 -0.014 1 
0.352 0.136 -0.014 1 
0.353 0.154 -0.015 1 
0.351 0.158 -0.015 1 
0.378 -0.248 -0.026 1 
0.383 -0.231 -0.026 1 
0.362 -0.055 -0.014 1 
0.294 -0.014 0.01 1 
0.364 0.009 -0.015 1 
0.364 0.039 -0.015 1 
0.363 0.044 -0.014 1 
0.363 0.064 -0.015 1 
0.362 0.073 -0.014 1 
0.36 0.083 -0.014 1 
0.36 0.086 -0.014 1 
0.364 0.094 -0.016 1 
0.362 0.102 -0.015 1 
0.359 0.104 -0.014 1 
0.359 0.124 -0.015 1 
0.353 0.166 -0.014 1 
0.353 0.174 -0.015 1 
0.351 0.214 -0.016 1 
0.382 -0.245 -0.024 1 
0.382 -0.242 -0.024 1 
0.383 -0.228 -0.024 1 
0.374 -0.197 -0.02 1 
0.373 -0.185 -0.019 1 
0.373 -0.175 -0.018 1 
0.372 -0.165 -0.018 1 
0.374 -0.152 -0.018 1 
0.374 -0.136 -0.018 1 
0.374 -0.126 -0.017 1 
0.373 -0.116 -0.017 1 
0.372 -0.096 -0.016 1 
0.373 -0.085 -0.016 1 
0.373 -0.075 -0.016 1 
0.369 -0.05 -0.014 1 
0.372 -0.045 -0.015 1 
0.374 -0.036 -0.016 1 
0.371 0.013 -0.015 1 
0.37 0.024 -0.015 1 
0.361 0.114 -0.013 1 
0.363 0.117 -0.014 1 
0.364 0.131 -0.015 1 
0.363 0.133 -0.014 1 
0.363 0.14 -0.015 1 
0.362 0.141 -0.014 1 
0.364 0.145 -0.015 1 
0.358 0.17 -0.014 1 
0.359 0.194 -0.016 1 
0.355 0.203 -0.015 1 
0.354 0.217 -0.016 1 
0.39 -0.238 -0.024 1 
0.372 -0.066 -0.014 1 
0.374 -0.059 -0.014 1 
0.374 0.049 -0.015 1 
0.374 0.064 -0.015 1 
0.373 0.077 -0.015 1 
0.371 0.084 -0.014 1 
0.374 0.104 -0.016 1 
0.372 0.123 -0.015 1 
0.37 0.133 -0.015 1 
0.368 0.144 -0.015 1 
0.364 0.176 -0.015 1 
0.361 0.225 -0.016 1 
0.393 -0.262 -0.025 1 
0.394 -0.247 -0.024 1 
0.397 -0.245 -0.025 1 
0.388 -0.226 -0.021 1 
0.382 -0.195 -0.018 1 
0.382 -0.165 -0.017 1 
0.384 -0.16 -0.018 1 
0.384 -0.126 -0.017 1 
0.384 -0.116 -0.017 1 
0.384 -0.106 -0.016 1 
0.381 -0.096 -0.015 1 
0.384 -0.085 -0.016 1 
0.384 -0.075 -0.016 1 
0.378 -0.066 -0.014 1 
0.38 -0.06 -0.014 1 
0.384 -0.056 -0.016 1 
0.38 -0.043 -0.014 1 
0.384 -0.032 -0.016 1 
0.381 0.014 -0.015 1 
0.381 0.023 -0.015 1 
0.38 0.044 -0.015 1 
0.381 0.052 -0.015 1 
0.38 0.064 -0.015 1 
0.379 0.073 -0.015 1 
0.373 0.143 -0.014 1 
0.373 0.145 -0.014 1 
0.374 0.156 -0.015 1 
0.369 0.182 -0.015 1 
0.367 0.224 -0.016 1 
0.393 -0.265 -0.022 1 
0.363 0.048 -0.014 1 
0.394 -0.26 -0.022 1 
0.393 -0.219 -0.02 1 
0.386 -0.206 -0.018 1 
0.39 -0.155 -0.017 1 
0.389 -0.106 -0.016 1 
0.389 -0.075 -0.016 1 
0.386 -0.046 -0.014 1 
0.386 -0.042 -0.014 1 
0.39 -0.033 -0.016 1 
0.297 -0.005 0.014 1 
0.298 0.002 0.013 1 
0.383 0.01 -0.014 1 
0.363 -0.145 -0.018 1 
0.386 0.028 -0.015 1 
0.383 0.073 -0.014 1 
0.384 0.083 -0.015 1 
0.383 0.084 -0.014 1 
0.384 0.099 -0.015 1 
0.384 0.113 -0.015 1 
0.382 0.124 -0.015 1 
0.381 0.134 -0.015 1 
0.38 0.14 -0.015 1 
0.378 0.142 -0.014 1 
0.379 0.164 -0.015 1 
0.373 0.233 -0.017 1 
0.398 -0.265 -0.022 1 
0.368 0.045 -0.014 1 
0.402 -0.256 -0.022 1 
0.383 -0.215 -0.017 1 
0.402 -0.225 -0.021 1 
0.393 -0.186 -0.017 1 
0.393 -0.127 -0.016 1 
0.394 -0.119 -0.016 1 
0.394 -0.073 -0.015 1 
0.392 -0.066 -0.014 1 
0.394 -0.056 -0.015 1 
0.393 -0.046 -0.015 1 
0.391 0.04 -0.014 1 
0.392 0.043 -0.015 1 
0.393 0.053 -0.015 1 
0.391 0.059 -0.015 1 
0.39 0.063 -0.014 1 
0.39 0.073 -0.014 1 
0.39 0.079 -0.014 1 
0.39 0.083 -0.015 1 
0.39 0.089 -0.015 1 
0.389 0.093 -0.014 1 
0.391 0.104 -0.015 1 
0.391 0.113 -0.015 1 
0.384 0.161 -0.014 1 
0.385 0.164 -0.015 1 
0.379 0.184 -0.014 1 
0.374 0.154 -0.015 1 
0.378 0.234 -0.016 1 
0.411 -0.286 -0.024 1 
0.396 -0.187 -0.016 1 
0.403 -0.176 -0.018 1 
0.401 -0.167 -0.017 1 
0.401 -0.156 -0.016 1 
0.401 -0.147 -0.016 1 
0.399 -0.137 -0.015 1 
0.402 -0.105 -0.016 1 
0.401 -0.096 -0.015 1 
0.401 -0.077 -0.015 1 
0.399 -0.074 -0.015 1 
0.398 -0.066 -0.014 1 
0.4 -0.056 -0.015 1 
0.4 -0.049 -0.015 1 
0.401 -0.037 -0.015 1 
0.468 -0.039 -0.036 1 
0.363 0.071 -0.015 1 
0.399 0.023 -0.015 1 
0.394 0.101 -0.014 1 
0.395 0.121 -0.015 1 
0.392 0.124 -0.014 1 
0.394 0.127 -0.015 1 
0.392 0.134 -0.014 1 
0.392 0.137 -0.014 1 
0.393 0.144 -0.015 1 
0.394 0.146 -0.015 1 
0.388 0.153 -0.013 1 
0.388 0.181 -0.015 1 
0.384 0.243 -0.016 1 
0.384 0.25 -0.016 1 
0.412 -0.266 -0.021 1 
0.414 -0.255 -0.021 1 
0.413 -0.238 -0.02 1 
0.404 -0.215 -0.017 1 
0.404 -0.212 -0.017 1 
0.407 -0.077 -0.015 1 
0.405 -0.065 -0.014 1 
0.404 -0.046 -0.014 1 
0.404 -0.041 -0.014 1 
0.478 -0.046 -0.036 1 
0.404 0.021 -0.014 1 
0.404 0.034 -0.014 1 
0.404 0.049 -0.014 1 
0.405 0.069 -0.015 1 
0.404 0.073 -0.014 1 
0.402 0.114 -0.015 1 
0.374 -0.105 -0.017 1 
0.401 0.124 -0.014 1 
0.394 0.162 -0.013 1 
0.394 0.167 -0.014 1 
0.393 0.194 -0.014 1 
0.392 0.202 -0.014 1 
0.394 0.223 -0.016 1 
0.388 0.242 -0.015 1 
0.42 -0.296 -0.022 1 
0.412 -0.217 -0.017 1 
0.413 -0.205 -0.017 1 
0.412 -0.197 -0.016 1 
0.41 -0.186 -0.015 1 
0.413 -0.166 -0.016 1 
0.41 -0.145 -0.015 1 
0.41 -0.136 -0.014 1 
0.353 0.194 -0.016 1 
0.411 -0.135 -0.015 1 
0.414 -0.125 -0.015 1 
0.413 -0.106 -0.015 1 
0.413 -0.097 -0.015 1 
0.413 -0.094 -0.015 1 
0.412 -0.085 -0.014 1 
0.413 -0.076 -0.014 1 
0.414 -0.066 -0.015 1 
0.409 -0.045 -0.013 1 
0.411 0.024 -0.014 1 
0.41 0.053 -0.014 1 
0.409 0.083 -0.014 1 
0.402 0.134 -0.013 1 
0.404 0.144 -0.014 1 
0.403 0.154 -0.014 1 
0.402 0.163 -0.013 1 
0.404 0.181 -0.015 1 
0.402 0.189 -0.015 1 
0.402 0.223 -0.016 1 
0.399 0.233 -0.015 1 
0.394 0.243 -0.014 1 
0.392 0.254 -0.014 1 
0.392 0.259 -0.015 1 
0.424 -0.288 -0.02 1 
0.422 -0.266 -0.019 1 
0.42 -0.255 -0.018 1 
0.424 -0.245 -0.018 1 
0.424 -0.243 -0.018 1 
0.417 -0.162 -0.015 1 
0.418 -0.085 -0.014 1 
0.418 -0.076 -0.014 1 
0.383 -0.185 -0.018 1 
0.394 -0.145 -0.016 1 
0.401 0.104 -0.014 1 
0.42 -0.042 -0.014 1 
0.363 -0.036 -0.016 1 
0.396 0.006 -0.007 1 
0.371 0.033 -0.015 1 
0.414 0.013 -0.013 1 
0.414 0.063 -0.013 1 
0.414 0.067 -0.013 1 
0.411 0.134 -0.013 1 
0.402 0.194 -0.012 1 
0.4 0.207 -0.012 1 
0.404 0.238 -0.015 1 
0.401 0.243 -0.014 1 
0.401 0.253 -0.014 1 
0.4 0.26 -0.015 1 
0.398 0.261 -0.014 1 
0.4 0.268 -0.015 1 
0.432 -0.306 -0.02 1 
0.424 -0.226 -0.015 1 
0.424 -0.217 -0.015 1 
0.424 -0.196 -0.015 1 
0.425 -0.194 -0.015 1 
0.422 -0.185 -0.014 1 
0.42 -0.176 -0.013 1 
0.422 -0.155 -0.013 1 
0.422 -0.145 -0.013 1 
0.423 -0.136 -0.013 1 
0.423 -0.127 -0.013 1 
0.423 -0.115 -0.013 1 
0.37 0.214 -0.017 1 
0.423 -0.105 -0.013 1 
0.424 -0.101 -0.013 1 
0.424 -0.066 -0.013 1 
0.424 -0.057 -0.013 1 
0.423 -0.047 -0.012 1 
0.432 -0.044 -0.015 1 
0.474 -0.048 -0.027 1 
0.423 0.023 -0.013 1 
0.417 -0.181 -0.015 1 
0.422 0.044 -0.013 1 
0.421 0.053 -0.012 1 
0.419 0.064 -0.012 1 
0.419 0.073 -0.012 1 
0.42 0.094 -0.013 1 
0.414 0.143 -0.012 1 
0.414 0.147 -0.012 1 
0.412 0.163 -0.012 1 
0.361 0.164 -0.015 1 
0.411 0.172 -0.012 1 
0.411 0.194 -0.013 1 
0.398 0.061 -0.015 1 
0.411 0.214 -0.013 1 
0.414 0.232 -0.015 1 
0.413 0.236 -0.015 1 
0.409 0.243 -0.014 1 
0.408 0.274 -0.015 1 
0.433 -0.292 -0.017 1 
0.433 -0.277 -0.017 1 
0.431 -0.255 -0.016 1 
0.434 -0.246 -0.016 1 
0.431 -0.23 -0.015 1 
0.432 -0.215 -0.015 1 
0.433 -0.208 -0.015 1 
0.375 -0.07 -0.015 1 
0.431 -0.196 -0.014 1 
0.428 -0.186 -0.013 1 
0.43 -0.096 -0.012 1 
0.431 -0.087 -0.013 1 
0.432 -0.075 -0.013 1 
0.43 -0.065 -0.012 1 
0.43 -0.055 -0.012 1 
0.431 -0.051 -0.012 1 
0.397 0.062 -0.014 1 
0.435 -0.044 -0.013 1 
0.479 -0.046 -0.025 1 
0.482 -0.041 -0.026 1 
0.354 0.143 -0.015 1 
0.43 0.033 -0.012 1 
0.424 0.124 -0.012 1 
0.411 0.281 -0.014 1 
0.442 -0.317 -0.018 1 
0.438 -0.288 -0.016 1 
0.438 -0.276 -0.015 1 
0.423 -0.255 -0.011 1 
0.434 -0.249 -0.014 1 
0.434 -0.227 -0.013 1 
0.434 -0.22 -0.013 1 
0.434 -0.175 -0.012 1 
0.433 -0.157 -0.012 1 
0.433 -0.146 -0.011 1 
0.434 -0.127 -0.011 1 
0.431 -0.116 -0.01 1 
0.434 -0.105 -0.011 1 
0.479 -0.046 -0.022 1 
0.323 -0.016 0.017 1 
0.324 -0.008 0.016 1 
0.331 0.001 0.015 1 
0.332 0.003 0.014 1 
0.434 0.043 -0.011 1 
0.432 0.053 -0.011 1 
0.433 0.062 -0.011 1 
0.433 0.072 -0.011 1 
0.414 -0.063 -0.015 1 
0.432 0.094 -0.011 1 
0.431 0.123 -0.011 1 
0.424 0.153 -0.01 1 
0.423 0.163 -0.01 1 
0.423 0.17 -0.01 1 
0.424 0.184 -0.011 1 
0.423 0.193 -0.011 1 
0.421 0.204 -0.011 1 
0.422 0.223 -0.012 1 
0.422 0.234 -0.012 1 
0.42 0.243 -0.012 1 
0.421 0.252 -0.012 1 
0.421 0.274 -0.013 1 
0.446 -0.325 -0.017 1 
0.448 -0.318 -0.017 1 
0.419 -0.205 -0.016 1 
0.446 -0.312 -0.016 1 
0.442 -0.304 -0.015 1 
0.413 0.103 -0.013 1 
0.442 -0.236 -0.013 1 
0.441 -0.227 -0.012 1 
0.441 -0.217 -0.012 1 
0.441 -0.195 -0.012 1 
0.44 -0.187 -0.011 1 
0.439 -0.176 -0.011 1 
0.44 -0.166 -0.011 1 
0.44 -0.135 -0.01 1 
0.441 -0.115 -0.01 1 
0.441 -0.105 -0.01 1 
0.44 -0.095 -0.01 1 
0.419 0.084 -0.012 1 
0.441 -0.085 -0.01 1 
0.442 -0.075 -0.01 1 
0.374 0.184 -0.014 1 
0.441 -0.065 -0.01 1 
0.443 -0.056 -0.011 1 
0.462 -0.044 -0.015 1 
0.328 -0.015 0.017 1 
0.332 -0.011 0.016 1 
0.344 0.002 0.013 1 
0.346 0.003 0.012 1 
0.442 0.032 -0.011 1 
0.44 0.044 -0.01 1 
0.43 0.144 -0.009 1 
0.43 0.154 -0.009 1 
0.432 0.164 -0.01 1 
0.43 0.183 -0.01 1 
0.42 0.291 -0.011 1 
0.444 -0.3 -0.012 1 
0.443 -0.287 -0.012 1 
0.444 -0.267 -0.011 1 
0.444 -0.249 -0.011 1 
0.444 -0.15 -0.009 1 
0.467 -0.042 -0.014 1 
0.478 -0.038 -0.016 1 
0.467 -0.034 -0.014 1 
0.341 -0.015 0.015 1 
0.344 -0.012 0.014 1 
0.363 0.007 -0.014 1 
0.403 -0.236 -0.022 1 
0.407 0.218 -0.015 1 
0.356 -0.006 0.012 1 
0.357 0.002 0.011 1 
0.444 0.053 -0.009 1 
0.444 0.063 -0.009 1 
0.444 0.07 -0.009 1 
0.444 0.083 -0.009 1 
0.443 0.092 -0.009 1 
0.443 0.123 -0.009 1 
0.441 0.132 -0.009 1 
0.432 0.194 -0.008 1 
0.432 0.218 -0.009 1 
0.434 0.233 -0.01 1 
0.432 0.243 -0.01 1 
0.433 0.252 -0.01 1 
0.434 0.264 -0.011 1 
0.433 0.272 -0.011 1 
0.433 0.284 -0.011 1 
0.405 0.274 -0.014 1 
0.453 -0.316 -0.012 1 
0.449 -0.275 -0.01 1 
0.449 -0.257 -0.01 1 
0.449 -0.245 -0.009 1 
0.45 -0.235 -0.009 1 
0.452 -0.226 -0.01 1 
0.451 -0.216 -0.009 1 
0.451 -0.205 -0.009 1 
0.453 -0.196 -0.009 1 
0.453 -0.187 -0.009 1 
0.449 -0.155 -0.008 1 
0.451 -0.146 -0.008 1 
0.454 -0.136 -0.009 1 
0.453 -0.115 -0.008 1 
0.452 -0.107 -0.008 1 
0.454 -0.097 -0.008 1 
0.444 -0.208 -0.01 1 
0.454 -0.086 -0.008 1 
0.453 -0.065 -0.008 1 
0.454 -0.055 -0.008 1 
0.451 -0.027 -0.008 1 
0.447 -0.006 -0.007 1 
0.451 0.003 -0.008 1 
0.451 0.033 -0.008 1 
0.443 0.162 -0.008 1 
0.443 0.173 -0.008 1 
0.439 0.191 -0.007 1 
0.441 0.204 -0.008 1 
0.441 0.214 -0.008 1 
0.434 0.294 -0.009 1 
0.433 0.302 -0.009 1 
0.381 -0.206 -0.018 1 
0.454 -0.331 -0.01 1 
0.457 -0.077 -0.006 1 
0.384 -0.237 -0.025 1 
0.458 -0.056 -0.006 1 
0.461 -0.036 -0.007 1 
0.456 0.003 -0.006 1 
0.455 0.021 -0.006 1 
0.455 0.042 -0.006 1 
0.444 0.144 -0.007 1 
0.454 0.044 -0.006 1 
0.453 0.054 -0.006 1 
0.454 0.062 -0.006 1 
0.454 0.073 -0.006 1 
0.454 0.083 -0.006 1 
0.453 0.093 -0.006 1 
0.453 0.114 -0.006 1 
0.451 0.134 -0.006 1 
0.45 0.152 -0.006 1 
0.442 0.243 -0.007 1 
0.442 0.272 -0.007 1 
0.441 0.283 -0.008 1 
0.439 0.293 -0.008 1 
0.382 0.182 -0.015 1 
0.464 -0.315 -0.009 1 
0.463 -0.298 -0.008 1 
0.46 -0.255 -0.006 1 
0.459 -0.177 -0.005 1 
0.46 -0.156 -0.005 1 
0.457 0.124 -0.005 1 
0.455 0.144 -0.005 1 
0.454 0.152 -0.004 1 
0.453 0.157 -0.004 1 
0.453 0.163 -0.005 1 
0.452 0.167 -0.004 1 
0.451 0.18 -0.004 1 
0.392 0.234 -0.016 1 
0.452 0.184 -0.005 1 
0.453 0.193 -0.005 1 
0.451 0.202 -0.005 1 
0.45 0.213 -0.005 1 
0.45 0.224 -0.005 1 
0.449 0.232 -0.005 1 
0.448 0.243 -0.005 1 
0.448 0.263 -0.006 1 
0.447 0.274 -0.006 1 
0.447 0.283 -0.006 1 
0.445 0.293 -0.006 1 
0.443 0.303 -0.006 1 
0.444 0.311 -0.007 1 
0.443 0.316 -0.007 1 
0.464 -0.345 -0.007 1 
0.464 -0.338 -0.007 1 
0.467 -0.335 -0.007 1 
0.429 0.134 -0.011 1 
0.443 0.264 -0.007 1 
0.467 -0.325 -0.007 1 
0.361 -0.075 -0.015 1 
0.467 -0.315 -0.006 1 
0.454 -0.053 -0.008 1 
0.467 -0.308 -0.006 1 
0.463 -0.266 -0.004 1 
0.463 -0.257 -0.004 1 
0.466 -0.245 -0.005 1 
0.466 -0.242 -0.005 1 
0.453 0.232 -0.003 1 
0.452 0.243 -0.003 1 
0.45 0.298 -0.005 1 
0.447 0.321 -0.005 1 
0.463 -0.344 -0.004 1 
0.464 -0.226 -0.001 1 
0.463 -0.217 -0.001 1 
0.464 -0.206 -0.001 1 
0.464 -0.186 -0.001 1 
0.464 -0.177 -0.001 1 
0.404 -0.2 -0.016 1 
0.464 -0.158 0 1 
0.464 -0.147 0 1 
0.454 0.253 -0.001 1 
0.454 0.262 -0.001 1 
0.453 0.283 -0.002 1 
0.453 0.314 -0.003 1 
0.463 -0.097 0.002 1 
0.452 -0.296 -0.011 1 
0.462 -0.015 0.002 1 
0.461 0.013 0.002 1 
0.462 0.024 0.002 1 
0.461 0.093 0.002 1 
0.461 0.104 0.002 1 
0.461 0.114 0.002 1 
0.454 0.302 0 1 
0.453 0.324 0 1 
0.468 -0.255 0.002 1 
0.468 -0.226 0.003 1 
0.466 -0.216 0.003 1 
0.466 -0.207 0.003 1 
0.466 -0.195 0.003 1 
0.466 -0.187 0.003 1 
0.465 -0.175 0.004 1 
0.465 -0.166 0.004 1 
0.465 -0.155 0.004 1 
0.465 -0.147 0.004 1 
0.374 -0.208 -0.022 1 
0.423 0.109 -0.011 1 
0.465 -0.119 0.004 1 
0.464 -0.116 0.004 1 
0.464 -0.111 0.004 1 
0.461 0.123 0.004 1 
0.459 0.163 0.004 1 
0.46 0.183 0.003 1 
0.46 0.192 0.003 1 
0.46 0.203 0.003 1 
0.459 0.222 0.003 1 
0.458 0.23 0.003 1 
0.46 0.244 0.002 1 
0.384 -0.175 -0.018 1 
0.458 0.263 0.002 1 
0.459 0.273 0.002 1 
0.472 -0.337 0.003 1 
0.472 -0.326 0.003 1 
0.381 0.153 -0.013 1 
0.472 -0.316 0.003 1 
0.472 -0.306 0.003 1 
0.469 -0.281 0.004 1 
0.465 -0.152 0.007 1 
0.465 -0.119 0.007 1 
0.459 0.282 0.004 1 
0.458 0.294 0.004 1 
0.458 0.303 0.004 1 
0.458 0.313 0.004 1 
0.458 0.323 0.003 1 
0.394 0.014 -0.015 1 
0.459 0.334 0.003 1 
0.459 0.214 0.003 1 
0.456 0.129 -0.005 1 
0.465 -0.293 -0.005 1 
0.46 -0.195 -0.005 1 
0.457 -0.007 -0.006 1 
0.457 -0.025 -0.006 1 
0.46 -0.046 -0.007 1 
0.458 -0.067 -0.006 1 
0.408 0.204 -0.012 1 
0.382 -0.146 -0.017 1 
0.457 -0.085 -0.006 1 
0.457 -0.106 -0.006 1 
0.461 -0.126 -0.005 1 
0.461 -0.145 -0.005 1 
0.459 -0.166 -0.005 1 
0.372 -0.029 -0.017 1 
0.47 -0.278 0.013 1 
0.468 -0.267 0.013 1 
0.468 -0.255 0.013 1 
0.383 0.188 -0.013 1 
0.448 0.254 -0.006 1 
0.46 -0.186 -0.005 1 
0.46 -0.226 -0.006 1 
0.454 -0.308 -0.012 1 
0.461 -0.247 -0.006 1 
0.443 0.253 -0.007 1 
0.464 -0.286 -0.005 1 
0.462 -0.326 -0.009 1 
0.455 0.147 -0.005 1 
0.402 -0.086 -0.016 1 
0.444 -0.282 -0.009 1 
0.43 -0.137 -0.013 1 
0.412 0.114 -0.013 1 
0.371 0.173 -0.015 1 
0.414 0.124 -0.014 1 
0.372 0.237 -0.016 1 
0.389 0.172 -0.015 1 
0.431 0.103 -0.011 1 
0.441 0.104 -0.009 1 
0.451 0.142 -0.006 1 
0.47 -0.245 0.002 1 
0.464 -0.141 0 1 
0.47 -0.285 0.013 1 
0.452 0.124 -0.006 1 
0.441 0.013 -0.01 1 
0.465 -0.296 -0.006 1 
0.444 -0.255 -0.011 1 
0.453 0.327 0 1 
0.464 -0.039 -0.037 1 
0.373 0.073 -0.015 1 
0.361 -0.066 -0.015 1 
0.391 0.256 -0.014 1 
0.443 0.154 -0.007 1 
0.349 0.164 -0.014 1 
0.411 -0.04 -0.014 1 
0.464 -0.169 0.004 1 
0.458 -0.216 -0.005 1 
0.382 -0.036 -0.015 1 
0.449 0.313 -0.005 1 
0.393 -0.196 -0.017 1 
0.405 0.062 -0.015 1 
0.366 -0.215 -0.022 1 
0.444 -0.053 -0.011 1 
0.429 0.014 -0.012 1 
0.421 -0.282 -0.019 1 
0.43 0.112 -0.011 1 
0.454 0.224 -0.003 1 
0.414 0.094 -0.013 1 
0.431 0.204 -0.008 1 
0.353 -0.011 0.012 1 
0.445 -0.016 -0.006 1 
0.46 -0.115 -0.005 1 
0.352 0.204 -0.016 1 
0.373 -0.23 -0.025 1 
0.4 0.212 -0.015 1 
0.454 0.141 -0.004 1 
0.461 -0.137 -0.005 1 
0.413 -0.246 -0.02 1 
0.388 0.117 -0.015 1 
0.462 0.003 0.002 1 
0.469 -0.236 0.002 1 
0.411 0.224 -0.014 1 
0.411 -0.225 -0.017 1 
0.421 -0.167 -0.013 1 
0.393 -0.095 -0.015 1 
0.431 -0.235 -0.015 1 
0.373 0.094 -0.015 1 
0.433 -0.268 -0.017 1 
0.394 -0.266 -0.025 1 
0.388 0.203 -0.015 1 
0.462 0.032 0.002 1 
0.463 -0.025 0.002 1 
0.392 0.024 -0.015 1 
0.374 0.134 -0.014 1 
0.454 -0.126 -0.009 1 
0.412 -0.056 -0.014 1 
0.384 0.063 -0.014 1 
0.432 0.084 -0.011 1 
0.468 -0.267 0.002 1 
0.383 0.203 -0.016 1 
0.421 0.132 -0.011 1 
0.452 -0.265 -0.01 1 
0.389 0.034 -0.014 1 
0.417 -0.166 -0.015 1 
0.464 -0.252 -0.004 1 
0.387 0.184 -0.014 1 
0.393 0.253 -0.015 1 
0.457 -0.017 -0.006 1 
0.402 0.178 -0.014 1 
0.454 0.213 -0.003 1 
0.423 0.014 -0.013 1 
0.459 0.174 0.004 1 
0.414 0.25 -0.013 1 
0.392 0.006 -0.01 1 
0.469 -0.297 0.004 1 
0.391 -0.242 -0.025 1 
0.463 -0.269 -0.005 1 
0.399 0.052 -0.015 1 
0.38 0.033 -0.015 1 
0.413 0.183 -0.013 1 
0.371 0.114 -0.015 1 
0.41 0.044 -0.014 1 
0.398 0.071 -0.015 1 
0.431 -0.296 -0.017 1 
0.422 0.264 -0.013 1 
0.424 0.143 -0.01 1 
0.362 0.076 -0.015 1 
0.414 0.264 -0.013 1 
0.401 0.111 -0.014 1 
0.449 -0.044 -0.012 1 
0.443 0.023 -0.011 1 
0.458 0.254 0.002 1 
0.394 -0.044 -0.015 1 
0.445 -0.286 -0.009 1 
0.394 -0.178 -0.017 1 
0.411 -0.177 -0.015 1 
0.399 -0.057 -0.014 1 
0.404 0.082 -0.015 1 
0.431 0.024 -0.013 1 
0.462 -0.007 0.002 1 
0.364 0.174 -0.015 1 
0.34 -0.013 0.015 1 
0.412 -0.156 -0.015 1 
0.404 -0.126 -0.015 1 
0.463 -0.127 -0.003 1 
0.453 -0.076 -0.008 1 
0.406 0.054 -0.015 1 
0.424 0.103 -0.012 1 
0.39 -0.248 -0.025 1 
0.414 -0.115 -0.015 1 
0.416 -0.185 -0.015 1 
0.364 -0.045 -0.014 1 
0.454 -0.177 -0.009 1 
0.465 -0.111 0.002 1 
0.469 -0.287 0.004 1 
0.424 0.283 -0.012 1 
0.467 -0.246 0.014 1 
0.442 0.112 -0.009 1 
0.402 0.173 -0.014 1 
0.404 0.09 -0.015 1 
0.443 -0.312 -0.018 1 
0.444 -0.014 -0.006 1 
0.47 -0.297 0.012 1 
0.441 -0.125 -0.011 1 
0.361 0.222 -0.016 1 
0.353 0.184 -0.015 1 
0.453 -0.045 -0.023 1 
0.374 -0.155 -0.018 1 
0.382 0.224 -0.017 1 
0.463 -0.275 -0.005 1 
0.455 0.013 -0.006 1 
0.417 0.273 -0.015 1 
0.394 0.214 -0.015 1 
0.419 -0.132 -0.015 1 
0.379 0.048 -0.014 1 
0.463 -0.086 0.002 1 
0.453 0.273 -0.002 1 
0.453 0.292 -0.002 1 
0.371 0.089 -0.014 1 
0.403 0.083 -0.014 1 
0.462 0.083 0.002 1 
0.382 0.193 -0.015 1 
0.393 -0.093 -0.015 1 
0.404 0.043 -0.014 1 
0.437 -0.04 -0.026 1 
0.41 0.033 -0.014 1 
0.36 -0.116 -0.016 1 
0.384 0.214 -0.017 1 
0.421 0.034 -0.012 1 
0.4 0.204 -0.012 1 
0.457 -0.095 -0.006 1 
0.432 0.213 -0.009 1 
0.44 0.222 -0.008 1 
0.426 -0.2 -0.015 1 
0.364 0.05 -0.015 1 
0.431 0.173 -0.01 1 
0.374 0.043 -0.015 1 
0.455 0.034 -0.006 1 
0.434 -0.165 -0.012 1 
0.454 0.023 -0.006 1 
0.413 -0.276 -0.022 1 
0.459 -0.205 -0.005 1 
0.388 -0.167 -0.017 1 
0.464 -0.197 -0.001 1 
0.371 0.192 -0.016 1 
0.45 -0.166 -0.008 1 
0.452 0.173 -0.005 1 
0.384 0.173 -0.015 1 
0.383 0.094 -0.014 1 
0.455 0.155 -0.005 1 
0.421 0.212 -0.011 1 
0.372 -0.071 -0.016 1 
0.453 0.104 -0.006 1 
0.443 0.233 -0.007 1 
0.402 -0.116 -0.016 1 
0.473 -0.04 -0.032 1 
0.451 0.013 -0.008 1 
0.444 -0.155 -0.009 1 
0.462 -0.236 -0.006 1 
0.403 -0.246 -0.02 1 
0.383 -0.136 -0.017 1 
0.464 -0.308 -0.009 1 
0.394 -0.136 -0.016 1 
0.374 0.204 -0.015 1 
0.364 0.214 -0.017 1 
0.405 0.187 -0.015 1 
0.44 0.184 -0.007 1 
0.381 -0.045 -0.015 1 
0.402 0.094 -0.014 1 
0.467 -0.166 0.154 3 
0.461 0.082 0.052 3 
0.467 -0.177 0.154 3 
0.467 -0.186 0.154 3 
0.477 -0.327 0.162 3 
0.477 -0.338 0.162 3 
0.479 -0.347 0.163 3 
0.462 0.333 0.154 3 
0.46 0.234 0.062 3 
0.463 0.314 0.154 3 
0.462 0.303 0.153 3 
0.46 0.153 0.132 3 
0.461 0.293 0.152 3 
0.468 -0.195 0.152 3 
0.469 -0.206 0.152 3 
0.47 -0.216 0.153 3 
0.472 -0.226 0.154 3 
0.457 0.244 0.014 3 
0.472 -0.235 0.154 3 
0.472 -0.248 0.154 3 
0.464 0.342 0.152 3 
0.464 -0.052 0.146 3 
0.461 0.243 0.154 3 
0.466 -0.077 0.152 3 
0.462 0.253 0.154 3 
0.461 0.232 0.153 3 
0.462 0.223 0.153 3 
0.463 0.212 0.153 3 
0.461 0.274 0.062 3 
0.462 0.194 0.153 3 
0.461 0.182 0.152 3 
0.462 0.174 0.152 3 
0.463 0.163 0.152 3 
0.463 0.152 0.152 3 
0.464 -0.036 0.151 3 
0.461 0.282 0.132 3 
0.466 -0.085 0.152 3 
0.466 -0.096 0.152 3 
0.468 -0.246 0.094 3 
0.467 -0.107 0.153 3 
0.467 -0.115 0.153 3 
0.467 -0.126 0.153 3 
0.467 -0.135 0.153 3 
0.463 0.339 0.062 3 
0.468 -0.146 0.154 3 
0.468 -0.158 0.154 3 
0.463 -0.006 0.143 3 
0.462 0.102 0.143 3 
0.462 0.094 0.143 3 
0.463 0.084 0.143 3 
0.462 0.064 0.143 3 
0.462 0.054 0.143 3 
0.462 0.032 0.143 3 
0.462 0.024 0.143 3 
0.461 0.014 0.142 3 
0.465 -0.192 0.009 3 
0.461 0.003 0.142 3 
0.475 -0.31 0.134 3 
0.462 0.113 0.143 3 
0.463 -0.017 0.143 3 
0.464 -0.036 0.143 3 
0.465 -0.047 0.143 3 
0.464 -0.052 0.143 3 
0.461 0.112 0.073 3 
0.465 -0.055 0.143 3 
0.464 -0.057 0.143 3 
0.464 -0.065 0.143 3 
0.465 -0.076 0.144 3 
0.465 -0.087 0.144 3 
0.462 0.003 0.134 3 
0.464 -0.057 0.146 3 
0.464 -0.068 0.146 3 
0.472 -0.257 0.152 3 
0.472 -0.266 0.152 3 
0.472 -0.276 0.152 3 
0.46 0.203 0.063 3 
0.474 -0.287 0.153 3 
0.475 -0.291 0.154 3 
0.476 -0.295 0.154 3 
0.464 -0.127 0.026 3 
0.475 -0.311 0.154 3 
0.466 -0.137 0.123 3 
0.46 0.222 0.144 3 
0.461 0.211 0.144 3 
0.462 0.194 0.144 3 
0.462 0.182 0.144 3 
0.461 0.173 0.144 3 
0.461 0.162 0.143 3 
0.462 0.154 0.144 3 
0.462 0.143 0.143 3 
0.462 0.132 0.143 3 
0.462 0.124 0.143 3 
0.48 -0.356 0.173 3 
0.468 -0.166 0.162 3 
0.468 -0.175 0.163 3 
0.469 -0.187 0.163 3 
0.465 -0.106 0.103 3 
0.467 -0.258 0.052 3 
0.469 -0.196 0.164 3 
0.47 -0.208 0.164 3 
0.466 -0.167 0.034 3 
0.474 -0.288 0.168 3 
0.479 -0.337 0.172 3 
0.479 -0.347 0.172 3 
0.47 -0.276 0.083 3 
0.463 0.342 0.164 3 
0.461 0.333 0.163 3 
0.46 0.271 0.104 3 
0.464 0.322 0.163 3 
0.464 0.312 0.163 3 
0.461 0.134 0.073 3 
0.463 0.301 0.162 3 
0.473 -0.218 0.162 3 
0.473 -0.227 0.163 3 
0.465 -0.136 0.093 3 
0.473 -0.236 0.163 3 
0.462 0.233 0.162 3 
0.479 -0.326 0.174 3 
0.466 -0.167 0.023 3 
0.466 0.335 0.167 3 
0.462 0.294 0.164 3 
0.461 0.284 0.163 3 
0.463 -0.025 0.143 3 
0.469 -0.206 0.113 3 
0.463 0.273 0.164 3 
0.463 0.264 0.163 3 
0.463 0.254 0.163 3 
0.462 0.242 0.162 3 
0.473 -0.246 0.163 3 
0.464 0.044 0.159 3 
0.464 0.033 0.159 3 
0.466 -0.136 0.104 3 
0.468 -0.235 0.022 3 
0.464 0.022 0.159 3 
0.468 -0.135 0.162 3 
0.477 -0.356 0.163 3 
0.468 -0.146 0.162 3 
0.475 -0.355 0.132 3 
0.468 -0.155 0.162 3 
0.464 -0.119 0.023 3 
0.462 -0.006 0.153 3 
0.464 -0.017 0.154 3 
0.464 -0.025 0.154 3 
0.465 -0.2 0.014 3 
0.465 -0.036 0.154 3 
0.465 -0.047 0.154 3 
0.465 -0.055 0.154 3 
0.461 0.333 0.062 3 
0.465 -0.065 0.154 3 
0.472 -0.286 0.161 3 
0.46 0.224 0.133 3 
0.461 0.003 0.153 3 
0.475 -0.298 0.163 3 
0.474 -0.345 0.064 3 
0.475 -0.305 0.163 3 
0.477 -0.317 0.164 3 
0.46 0.279 0.154 3 
0.463 0.073 0.143 3 
0.462 -0.006 0.092 3 
0.461 0.274 0.154 3 
0.462 0.262 0.154 3 
0.462 0.34 0.143 3 
0.459 0.152 0.033 3 
0.463 0.073 0.154 3 
0.473 -0.255 0.163 3 
0.46 0.243 0.043 3 
0.472 -0.267 0.164 3 
0.471 -0.275 0.164 3 
0.461 0.204 0.114 3 
0.463 0.138 0.154 3 
0.463 0.133 0.154 3 
0.463 0.122 0.154 3 
0.463 0.114 0.154 3 
0.463 0.094 0.154 3 
0.464 0.084 0.154 3 
0.478 -0.318 0.174 3 
0.461 0.336 0.054 3 
0.463 0.062 0.154 3 
0.463 0.054 0.154 3 
0.463 0.043 0.154 3 
0.463 0.033 0.154 3 
0.461 0.093 0.103 3 
0.464 -0.114 0.082 3 
0.463 0.022 0.154 3 
0.469 -0.247 0.033 3 
0.462 0.014 0.153 3 
0.471 -0.277 0.132 3 
0.469 -0.215 0.133 3 
0.47 -0.227 0.133 3 
0.47 -0.236 0.134 3 
0.462 -0.006 0.052 3 
0.471 -0.246 0.134 3 
0.471 -0.256 0.134 3 
0.464 -0.127 0.023 3 
0.465 -0.073 0.127 3 
0.464 -0.103 0.127 3 
0.46 0.224 0.123 3 
0.471 -0.268 0.132 3 
0.469 -0.206 0.133 3 
0.472 -0.285 0.132 3 
0.471 -0.305 0.072 3 
0.474 -0.296 0.133 3 
0.474 -0.306 0.133 3 
0.476 -0.315 0.134 3 
0.46 0.181 0.124 3 
0.46 0.172 0.124 3 
0.46 0.164 0.124 3 
0.46 0.153 0.124 3 
0.461 0.183 0.052 3 
0.46 0.142 0.124 3 
0.471 -0.286 0.092 3 
0.466 -0.137 0.134 3 
0.466 -0.145 0.134 3 
0.465 -0.156 0.134 3 
0.466 -0.165 0.134 3 
0.477 -0.347 0.142 3 
0.474 -0.351 0.141 3 
0.475 -0.356 0.141 3 
0.474 -0.358 0.141 3 
0.461 0.338 0.134 3 
0.473 -0.295 0.113 3 
0.459 0.329 0.133 3 
0.461 0.134 0.124 3 
0.462 0.322 0.134 3 
0.461 0.314 0.133 3 
0.46 0.304 0.133 3 
0.46 0.294 0.132 3 
0.461 0.273 0.132 3 
0.462 0.262 0.132 3 
0.465 -0.079 0.13 3 
0.467 -0.177 0.132 3 
0.468 -0.185 0.132 3 
0.469 -0.197 0.133 3 
0.464 -0.046 0.114 3 
0.469 -0.278 0.044 3 
0.477 -0.336 0.132 3 
0.477 -0.347 0.133 3 
0.461 0.311 0.124 3 
0.46 0.303 0.124 3 
0.46 0.294 0.124 3 
0.46 0.284 0.124 3 
0.461 0.273 0.124 3 
0.461 0.264 0.123 3 
0.46 0.242 0.123 3 
0.46 0.233 0.123 3 
0.477 -0.326 0.132 3 
0.461 0.204 0.122 3 
0.461 0.193 0.122 3 
0.464 -0.076 0.122 3 
0.461 0.212 0.103 3 
0.465 -0.082 0.122 3 
0.465 -0.087 0.122 3 
0.465 -0.095 0.122 3 
0.465 -0.106 0.122 3 
0.465 -0.117 0.122 3 
0.465 -0.125 0.123 3 
0.473 0.357 0.199 3 
0.461 0.024 0.124 3 
0.474 -0.348 0.043 3 
0.462 0.124 0.124 3 
0.461 0.112 0.124 3 
0.461 0.104 0.124 3 
0.461 0.094 0.124 3 
0.461 0.083 0.124 3 
0.461 0.072 0.124 3 
0.461 0.064 0.124 3 
0.461 0.053 0.124 3 
0.461 0.043 0.124 3 
0.461 0.032 0.124 3 
0.462 -0.017 0.113 3 
0.461 0.014 0.123 3 
0.462 0.003 0.124 3 
0.462 -0.006 0.124 3 
0.462 -0.017 0.124 3 
0.463 -0.025 0.124 3 
0.463 -0.036 0.124 3 
0.463 -0.046 0.124 3 
0.463 -0.057 0.124 3 
0.463 -0.065 0.124 3 
0.464 -0.127 0.125 3 
0.471 -0.265 0.143 3 
0.467 -0.177 0.143 3 
0.467 -0.185 0.143 3 
0.469 -0.198 0.144 3 
0.47 -0.207 0.144 3 
0.47 -0.216 0.144 3 
0.46 0.334 0.142 3 
0.462 0.323 0.142 3 
0.461 0.312 0.142 3 
0.471 -0.225 0.142 3 
0.47 -0.246 0.142 3 
0.47 -0.255 0.143 3 
0.467 -0.165 0.143 3 
0.472 -0.275 0.144 3 
0.474 -0.359 0.147 3 
0.473 -0.305 0.122 3 
0.468 0.346 0.142 3 
0.468 -0.185 0.124 3 
0.461 0.048 0.134 3 
0.461 0.043 0.134 3 
0.46 0.243 0.062 3 
0.461 0.03 0.134 3 
0.461 0.024 0.134 3 
0.461 0.014 0.134 3 
0.461 0.273 0.143 3 
0.466 -0.117 0.144 3 
0.475 -0.318 0.152 3 
0.476 -0.326 0.152 3 
0.477 -0.337 0.153 3 
0.477 -0.348 0.154 3 
0.476 -0.358 0.154 3 
0.476 -0.335 0.114 3 
0.462 0.303 0.144 3 
0.461 0.292 0.144 3 
0.461 0.283 0.143 3 
0.46 -0.007 0.013 3 
0.462 -0.014 0.134 3 
0.462 0.262 0.143 3 
0.462 0.253 0.143 3 
0.461 0.243 0.142 3 
0.46 0.233 0.142 3 
0.465 -0.074 0.141 3 
0.464 -0.076 0.141 3 
0.464 -0.087 0.141 3 
0.466 -0.126 0.142 3 
0.467 -0.146 0.142 3 
0.466 -0.156 0.142 3 
0.462 0.072 0.132 3 
0.462 0.182 0.133 3 
0.461 0.173 0.133 3 
0.461 0.162 0.133 3 
0.46 0.142 0.132 3 
0.461 0.134 0.132 3 
0.462 0.124 0.132 3 
0.461 0.112 0.132 3 
0.461 0.104 0.132 3 
0.463 -0.036 0.092 3 
0.462 0.094 0.132 3 
0.462 0.083 0.132 3 
0.466 -0.147 0.052 3 
0.462 0.064 0.132 3 
0.462 -0.025 0.132 3 
0.463 -0.036 0.132 3 
0.463 -0.046 0.132 3 
0.464 -0.057 0.132 3 
0.464 -0.065 0.132 3 
0.464 -0.076 0.133 3 
0.465 -0.087 0.133 3 
0.465 -0.095 0.133 3 
0.465 -0.117 0.133 3 
0.465 -0.125 0.133 3 
0.477 -0.337 0.144 3 
0.462 -0.017 0.134 3 
0.474 -0.287 0.142 3 
0.46 0.063 0.023 3 
0.475 -0.291 0.142 3 
0.465 -0.206 0.014 3 
0.475 -0.297 0.142 3 
0.46 0.203 0.092 3 
0.474 -0.3 0.142 3 
0.475 -0.307 0.143 3 
0.476 -0.315 0.143 3 
0.477 -0.326 0.144 3 
0.466 -0.106 0.144 3 
0.465 0.343 0.138 3 
0.473 -0.306 0.064 3 
0.461 0.252 0.134 3 
0.46 0.242 0.134 3 
0.461 0.252 0.123 3 
0.46 0.233 0.134 3 
0.461 0.213 0.134 3 
0.471 -0.265 0.123 3 
0.46 0.204 0.133 3 
0.462 0.193 0.133 3 
0.475 -0.317 0.122 3 
0.469 0.064 0.183 3 
0.468 0.052 0.183 3 
0.478 -0.359 0.194 3 
0.468 0.044 0.183 3 
0.468 0.033 0.183 3 
0.469 0.023 0.183 3 
0.469 0.014 0.183 3 
0.459 0.301 0.082 3 
0.468 0.003 0.183 3 
0.462 0.043 0.052 3 
0.468 -0.006 0.183 3 
0.467 0.074 0.183 3 
0.468 -0.015 0.183 3 
0.468 -0.026 0.183 3 
0.467 -0.036 0.174 3 
0.469 -0.037 0.183 3 
0.47 -0.045 0.183 3 
0.47 -0.056 0.184 3 
0.47 -0.067 0.184 3 
0.471 -0.075 0.184 3 
0.461 0.304 0.113 3 
0.474 -0.352 0.096 3 
0.471 -0.086 0.184 3 
0.466 0.163 0.184 3 
0.483 -0.336 0.201 3 
0.483 -0.347 0.202 3 
0.47 0.353 0.194 3 
0.467 0.339 0.192 3 
0.468 0.332 0.192 3 
0.466 -0.147 0.093 3 
0.465 0.194 0.184 3 
0.465 0.183 0.184 3 
0.466 0.172 0.184 3 
0.469 -0.167 0.174 3 
0.466 -0.137 0.142 3 
0.474 -0.236 0.19 3 
0.465 0.154 0.183 3 
0.462 0.197 0.144 3 
0.466 0.143 0.183 3 
0.467 0.132 0.183 3 
0.467 0.124 0.183 3 
0.465 -0.106 0.133 3 
0.468 0.113 0.184 3 
0.467 0.104 0.183 3 
0.467 0.093 0.183 3 
0.467 0.082 0.183 3 
0.46 0.243 0.092 3 
0.462 0.043 0.143 3 
0.47 -0.106 0.182 3 
0.471 -0.117 0.182 3 
0.471 -0.126 0.182 3 
0.471 -0.137 0.183 3 
0.471 -0.145 0.183 3 
0.459 0.202 0.033 3 
0.472 -0.157 0.183 3 
0.472 -0.166 0.184 3 
0.472 -0.178 0.184 3 
0.473 -0.255 0.172 3 
0.469 -0.097 0.181 3 
0.472 -0.195 0.184 3 
0.48 -0.308 0.192 3 
0.48 -0.315 0.192 3 
0.481 -0.326 0.193 3 
0.482 -0.338 0.194 3 
0.466 0.326 0.184 3 
0.466 0.322 0.184 3 
0.466 0.312 0.184 3 
0.46 0.293 0.093 3 
0.465 0.301 0.183 3 
0.465 0.292 0.182 3 
0.465 0.233 0.183 3 
0.479 -0.287 0.193 3 
0.464 0.103 0.174 3 
0.479 -0.297 0.194 3 
0.473 -0.347 0.032 3 
0.475 -0.363 0.197 3 
0.465 0.276 0.184 3 
0.464 0.272 0.184 3 
0.464 0.262 0.184 3 
0.469 -0.287 0.064 3 
0.464 0.253 0.183 3 
0.464 0.244 0.183 3 
0.471 -0.206 0.173 3 
0.464 -0.135 0.012 3 
0.466 0.224 0.183 3 
0.461 0.083 0.073 3 
0.465 0.212 0.182 3 
0.461 0.213 0.122 3 
0.465 0.203 0.182 3 
0.464 0.199 0.181 3 
0.464 0.188 0.181 3 
0.459 0.314 0.062 3 
0.464 0.154 0.18 3 
0.467 0.144 0.186 3 
0.464 0.232 0.188 3 
0.465 0.23 0.188 3 
0.467 0.222 0.189 3 
0.467 0.213 0.189 3 
0.466 0.204 0.188 3 
0.466 0.192 0.188 3 
0.467 0.184 0.188 3 
0.466 0.172 0.187 3 
0.466 0.163 0.187 3 
0.465 0.152 0.186 3 
0.46 0.284 0.093 3 
0.468 0.063 0.186 3 
0.467 0.132 0.186 3 
0.461 0.064 0.113 3 
0.468 0.124 0.187 3 
0.469 0.072 0.186 3 
0.468 0.113 0.186 3 
0.469 0.102 0.187 3 
0.464 0.084 0.162 3 
0.468 0.094 0.186 3 
0.468 0.083 0.186 3 
0.469 0.053 0.186 3 
0.469 0.044 0.186 3 
0.466 0.293 0.192 3 
0.47 0.35 0.197 3 
0.464 0.153 0.172 3 
0.461 0.142 0.084 3 
0.467 0.339 0.195 3 
0.468 0.333 0.195 3 
0.461 0.024 0.102 3 
0.463 -0.025 0.063 3 
0.469 0.323 0.194 3 
0.468 0.312 0.193 3 
0.467 0.304 0.193 3 
0.461 0.184 0.114 3 
0.468 0.033 0.186 3 
0.467 0.284 0.191 3 
0.465 0.273 0.19 3 
0.464 0.266 0.189 3 
0.464 0.263 0.189 3 
0.474 -0.325 0.096 3 
0.465 0.26 0.19 3 
0.465 0.254 0.189 3 
0.464 0.247 0.189 3 
0.47 -0.237 0.142 3 
0.464 0.244 0.189 3 
0.46 0.322 0.054 3 
0.473 -0.196 0.191 3 
0.473 -0.205 0.191 3 
0.474 -0.218 0.192 3 
0.475 -0.227 0.193 3 
0.474 -0.23 0.192 3 
0.475 -0.237 0.193 3 
0.475 -0.246 0.193 3 
0.46 0.264 0.062 3 
0.476 -0.255 0.194 3 
0.476 -0.265 0.194 3 
0.477 -0.275 0.195 3 
0.473 -0.187 0.19 3 
0.475 -0.277 0.194 3 
0.479 -0.287 0.196 3 
0.464 -0.087 0.084 3 
0.462 -0.075 0.023 3 
0.479 -0.297 0.197 3 
0.481 -0.306 0.198 3 
0.458 0.313 0.012 3 
0.481 -0.316 0.199 3 
0.467 -0.216 0.044 3 
0.482 -0.327 0.2 3 
0.465 0.134 0.163 3 
0.47 0.023 0.186 3 
0.47 0.014 0.186 3 
0.469 0.003 0.186 3 
0.469 -0.006 0.186 3 
0.468 -0.015 0.186 3 
0.468 -0.026 0.186 3 
0.468 -0.036 0.186 3 
0.469 -0.045 0.186 3 
0.47 -0.056 0.186 3 
0.47 -0.067 0.187 3 
0.472 -0.076 0.187 3 
0.464 0.281 0.181 3 
0.472 -0.087 0.188 3 
0.472 -0.095 0.188 3 
0.472 -0.106 0.188 3 
0.472 -0.115 0.188 3 
0.473 -0.126 0.189 3 
0.473 -0.135 0.189 3 
0.473 -0.146 0.189 3 
0.472 -0.155 0.189 3 
0.472 -0.166 0.189 3 
0.472 -0.175 0.19 3 
0.464 0.054 0.165 3 
0.462 0.043 0.034 3 
0.474 -0.266 0.176 3 
0.463 -0.036 0.034 3 
0.474 -0.275 0.176 3 
0.48 -0.346 0.182 3 
0.48 -0.357 0.183 3 
0.462 0.342 0.172 3 
0.465 0.334 0.173 3 
0.465 0.324 0.172 3 
0.464 0.122 0.166 3 
0.464 0.062 0.165 3 
0.473 -0.237 0.174 3 
0.473 -0.246 0.172 3 
0.473 -0.265 0.173 3 
0.474 -0.275 0.173 3 
0.459 0.182 0.033 3 
0.475 -0.282 0.174 3 
0.476 -0.286 0.174 3 
0.462 0.334 0.169 3 
0.463 0.322 0.169 3 
0.462 0.215 0.164 3 
0.463 0.21 0.164 3 
0.462 0.203 0.164 3 
0.463 0.273 0.172 3 
0.481 -0.329 0.184 3 
0.463 0.339 0.175 3 
0.464 0.323 0.175 3 
0.464 0.313 0.174 3 
0.466 -0.175 0.033 3 
0.465 0.311 0.174 3 
0.465 0.304 0.174 3 
0.464 0.297 0.173 3 
0.463 0.292 0.173 3 
0.464 0.284 0.173 3 
0.46 -0.025 0.013 3 
0.462 0.192 0.164 3 
0.463 0.264 0.172 3 
0.46 0.301 0.032 3 
0.465 0.148 0.169 3 
0.464 -0.017 0.168 3 
0.47 -0.176 0.172 3 
0.471 -0.185 0.172 3 
0.47 -0.197 0.172 3 
0.471 -0.215 0.173 3 
0.474 -0.315 0.113 3 
0.472 -0.225 0.174 3 
0.466 -0.047 0.163 3 
0.465 0.022 0.162 3 
0.465 0.014 0.162 3 
0.464 0.006 0.162 3 
0.46 0.203 0.084 3 
0.464 0.003 0.162 3 
0.464 -0.006 0.162 3 
0.464 -0.017 0.162 3 
0.465 -0.022 0.162 3 
0.464 -0.025 0.162 3 
0.465 -0.031 0.162 3 
0.466 -0.036 0.163 3 
0.475 -0.329 0.084 3 
0.466 -0.055 0.163 3 
0.466 -0.066 0.163 3 
0.461 0.294 0.113 3 
0.466 -0.077 0.163 3 
0.467 -0.085 0.163 3 
0.467 -0.096 0.164 3 
0.468 -0.107 0.164 3 
0.459 0.282 0.024 3 
0.468 -0.116 0.164 3 
0.468 -0.127 0.164 3 
0.476 -0.296 0.172 3 
0.465 0.095 0.163 3 
0.462 0.183 0.164 3 
0.462 0.172 0.163 3 
0.464 0.164 0.163 3 
0.464 0.153 0.163 3 
0.464 0.144 0.163 3 
0.465 0.137 0.163 3 
0.464 0.125 0.163 3 
0.464 0.122 0.163 3 
0.464 0.114 0.163 3 
0.461 0.324 0.113 3 
0.464 0.103 0.163 3 
0.468 -0.185 0.094 3 
0.464 0.092 0.162 3 
0.46 0.239 0.114 3 
0.465 0.087 0.163 3 
0.465 0.082 0.163 3 
0.464 0.073 0.162 3 
0.468 -0.226 0.033 3 
0.464 0.062 0.162 3 
0.464 0.054 0.162 3 
0.465 0.044 0.162 3 
0.465 0.033 0.162 3 
0.466 0.052 0.174 3 
0.465 0.134 0.174 3 
0.465 0.123 0.174 3 
0.465 -0.095 0.144 3 
0.465 0.112 0.174 3 
0.464 0.109 0.174 3 
0.465 0.098 0.174 3 
0.466 0.093 0.174 3 
0.465 0.084 0.174 3 
0.465 0.074 0.174 3 
0.465 0.063 0.174 3 
0.463 0.204 0.153 3 
0.465 0.142 0.174 3 
0.466 0.044 0.174 3 
0.46 0.312 0.093 3 
0.467 0.033 0.174 3 
0.465 0.052 0.163 3 
0.467 0.022 0.174 3 
0.467 0.014 0.174 3 
0.467 0.003 0.174 3 
0.466 -0.006 0.174 3 
0.466 -0.017 0.174 3 
0.465 -0.025 0.173 3 
0.458 0.103 0.013 3 
0.474 -0.25 0.184 3 
0.464 0.232 0.18 3 
0.464 0.205 0.179 3 
0.464 0.182 0.178 3 
0.459 0.234 0.033 3 
0.472 -0.186 0.181 3 
0.472 -0.207 0.182 3 
0.472 -0.216 0.182 3 
0.472 -0.225 0.183 3 
0.473 -0.238 0.183 3 
0.475 -0.242 0.184 3 
0.475 -0.245 0.184 3 
0.468 -0.047 0.174 3 
0.475 -0.335 0.064 3 
0.483 -0.346 0.192 3 
0.461 0.112 0.113 3 
0.461 0.093 0.052 3 
0.467 0.349 0.184 3 
0.466 0.343 0.183 3 
0.464 0.223 0.176 3 
0.462 0.102 0.154 3 
0.464 0.173 0.175 3 
0.464 0.162 0.175 3 
0.46 0.244 0.104 3 
0.456 0.324 0.023 3 
0.464 0.071 0.17 3 
0.464 -0.025 0.17 3 
0.48 -0.335 0.181 3 
0.467 -0.066 0.171 3 
0.458 0.213 0.014 3 
0.468 -0.077 0.172 3 
0.468 -0.085 0.172 3 
0.467 -0.096 0.172 3 
0.464 -0.057 0.002 3 
0.468 -0.105 0.172 3 
0.464 0.142 0.171 3 
0.469 -0.116 0.173 3 
0.469 -0.125 0.173 3 
0.468 -0.135 0.173 3 
0.463 0.324 0.154 3 
0.469 -0.147 0.174 3 
0.469 -0.156 0.174 3 
0.474 -0.256 0.178 3 
0.478 -0.305 0.182 3 
0.46 0.053 0.002 3 
0.479 -0.316 0.183 3 
0.463 0.222 0.173 3 
0.468 -0.055 0.174 3 
0.475 -0.257 0.182 3 
0.475 -0.267 0.182 3 
0.476 -0.277 0.183 3 
0.474 -0.331 0.052 3 
0.478 -0.285 0.184 3 
0.476 -0.297 0.184 3 
0.463 0.249 0.174 3 
0.463 0.243 0.174 3 
0.463 0.234 0.174 3 
0.472 -0.315 0.052 3 
0.476 -0.306 0.172 3 
0.463 0.213 0.173 3 
0.47 -0.236 0.122 3 
0.463 0.204 0.173 3 
0.459 0.281 0.043 3 
0.463 0.193 0.172 3 
0.463 0.184 0.172 3 
0.464 0.173 0.172 3 
0.469 -0.287 0.052 3 
0.463 0.164 0.172 3 
0.465 0.156 0.172 3 
0.475 -0.328 0.052 3 
0.465 -0.166 0.053 3 
0.466 -0.175 0.052 3 
0.467 -0.187 0.052 3 
0.467 -0.196 0.052 3 
0.467 -0.216 0.052 3 
0.468 -0.225 0.052 3 
0.468 -0.237 0.052 3 
0.468 -0.246 0.052 3 
0.468 -0.268 0.052 3 
0.468 -0.277 0.052 3 
0.472 -0.305 0.052 3 
0.466 -0.155 0.052 3 
0.474 -0.338 0.052 3 
0.475 -0.342 0.052 3 
0.474 -0.348 0.052 3 
0.458 0.333 0.043 3 
0.459 0.324 0.043 3 
0.459 0.314 0.043 3 
0.458 0.303 0.043 3 
0.459 0.294 0.043 3 
0.46 0.273 0.043 3 
0.46 0.264 0.043 3 
0.459 0.222 0.022 3 
0.463 -0.025 0.052 3 
0.461 0.134 0.052 3 
0.462 0.123 0.052 3 
0.461 0.112 0.052 3 
0.462 0.074 0.052 3 
0.462 0.053 0.052 3 
0.459 0.143 0.004 3 
0.462 0.032 0.052 3 
0.462 0.024 0.052 3 
0.462 0.014 0.052 3 
0.462 0.003 0.052 3 
0.463 -0.017 0.052 3 
0.46 0.252 0.043 3 
0.463 -0.036 0.052 3 
0.463 -0.057 0.052 3 
0.463 -0.065 0.052 3 
0.462 -0.075 0.052 3 
0.463 -0.086 0.052 3 
0.464 -0.097 0.052 3 
0.465 -0.1 0.052 3 
0.465 -0.105 0.052 3 
0.465 -0.116 0.052 3 
0.465 -0.136 0.053 3 
0.465 -0.116 0.044 3 
0.462 -0.007 0.044 3 
0.463 -0.025 0.044 3 
0.463 -0.036 0.044 3 
0.463 -0.046 0.044 3 
0.464 -0.057 0.044 3 
0.464 -0.065 0.044 3 
0.464 -0.084 0.044 3 
0.464 -0.087 0.044 3 
0.465 -0.092 0.044 3 
0.465 -0.095 0.044 3 
0.465 -0.106 0.044 3 
0.462 0.003 0.044 3 
0.466 -0.125 0.044 3 
0.466 -0.136 0.044 3 
0.465 -0.147 0.044 3 
0.466 -0.155 0.044 3 
0.466 -0.175 0.044 3 
0.467 -0.187 0.044 3 
0.467 -0.196 0.044 3 
0.467 -0.207 0.044 3 
0.468 -0.225 0.044 3 
0.468 -0.237 0.044 3 
0.469 -0.247 0.044 3 
0.461 0.112 0.044 3 
0.46 0.223 0.044 3 
0.46 0.214 0.044 3 
0.46 0.203 0.044 3 
0.46 0.194 0.044 3 
0.46 0.183 0.044 3 
0.46 0.174 0.044 3 
0.46 0.163 0.044 3 
0.46 0.152 0.044 3 
0.46 0.144 0.044 3 
0.461 0.134 0.044 3 
0.462 0.123 0.044 3 
0.461 0.142 0.052 3 
0.461 0.104 0.044 3 
0.462 0.093 0.044 3 
0.461 0.082 0.044 3 
0.461 0.074 0.044 3 
0.462 0.064 0.044 3 
0.462 0.053 0.044 3 
0.462 0.043 0.044 3 
0.462 0.032 0.044 3 
0.462 0.024 0.044 3 
0.462 0.014 0.044 3 
0.462 0.083 0.063 3 
0.461 0.183 0.063 3 
0.463 -0.057 0.034 3 
0.461 0.172 0.063 3 
0.461 -0.036 0.013 3 
0.461 0.164 0.063 3 
0.461 0.142 0.063 3 
0.461 0.134 0.063 3 
0.461 0.123 0.063 3 
0.461 0.112 0.063 3 
0.461 0.104 0.063 3 
0.461 0.093 0.063 3 
0.46 0.191 0.063 3 
0.462 0.074 0.063 3 
0.463 0.064 0.063 3 
0.462 0.053 0.063 3 
0.46 0.273 0.054 3 
0.462 0.043 0.063 3 
0.462 0.032 0.063 3 
0.475 -0.346 0.043 3 
0.461 0.024 0.063 3 
0.462 0.014 0.063 3 
0.462 0.003 0.063 3 
0.463 -0.006 0.063 3 
0.476 -0.336 0.073 3 
0.467 -0.225 0.072 3 
0.469 -0.238 0.072 3 
0.469 -0.247 0.072 3 
0.464 -0.105 0.023 3 
0.469 -0.256 0.072 3 
0.469 -0.268 0.072 3 
0.469 -0.275 0.072 3 
0.469 -0.287 0.072 3 
0.471 -0.296 0.072 3 
0.473 -0.316 0.072 3 
0.474 -0.327 0.073 3 
0.463 -0.017 0.063 3 
0.475 -0.346 0.073 3 
0.473 -0.347 0.073 3 
0.464 -0.097 0.068 3 
0.471 -0.295 0.052 3 
0.46 0.322 0.062 3 
0.46 0.302 0.062 3 
0.46 0.293 0.062 3 
0.46 0.283 0.062 3 
0.46 0.252 0.062 3 
0.46 0.223 0.063 3 
0.46 0.282 0.054 3 
0.469 -0.247 0.064 3 
0.469 -0.256 0.064 3 
0.469 -0.265 0.064 3 
0.469 -0.275 0.064 3 
0.473 -0.316 0.064 3 
0.474 -0.327 0.064 3 
0.475 -0.328 0.058 3 
0.475 -0.346 0.058 3 
0.466 -0.167 0.044 3 
0.458 0.303 0.054 3 
0.458 0.294 0.054 3 
0.469 -0.235 0.064 3 
0.46 0.264 0.054 3 
0.46 0.252 0.054 3 
0.46 0.243 0.054 3 
0.46 0.234 0.054 3 
0.46 0.223 0.054 3 
0.46 0.214 0.054 3 
0.46 0.203 0.054 3 
0.461 0.192 0.054 3 
0.461 0.172 0.052 3 
0.461 0.164 0.052 3 
0.461 0.153 0.052 3 
0.476 -0.347 0.052 3 
0.463 -0.036 0.063 3 
0.463 -0.046 0.063 3 
0.463 -0.057 0.063 3 
0.463 -0.065 0.063 3 
0.463 -0.076 0.063 3 
0.464 -0.087 0.063 3 
0.464 -0.095 0.063 3 
0.465 -0.098 0.063 3 
0.465 -0.106 0.063 3 
0.464 -0.111 0.063 3 
0.465 -0.116 0.063 3 
0.468 -0.255 0.044 3 
0.465 -0.125 0.063 3 
0.465 -0.135 0.063 3 
0.466 -0.147 0.063 3 
0.466 -0.155 0.063 3 
0.466 -0.167 0.063 3 
0.467 -0.187 0.063 3 
0.468 -0.196 0.063 3 
0.468 -0.205 0.063 3 
0.467 -0.216 0.063 3 
0.468 -0.225 0.064 3 
0.463 -0.146 0.012 3 
0.465 -0.138 0.023 3 
0.465 -0.147 0.023 3 
0.465 -0.155 0.023 3 
0.465 -0.175 0.023 3 
0.465 -0.186 0.023 3 
0.465 -0.197 0.023 3 
0.466 -0.207 0.022 3 
0.466 -0.215 0.022 3 
0.468 -0.226 0.022 3 
0.464 -0.149 0.018 3 
0.464 -0.177 0.017 3 
0.464 -0.135 0.023 3 
0.464 -0.197 0.017 3 
0.471 -0.346 0.014 3 
0.457 0.332 0.012 3 
0.456 0.323 0.012 3 
0.458 0.303 0.012 3 
0.459 0.294 0.012 3 
0.459 0.282 0.013 3 
0.457 0.262 0.013 3 
0.457 0.253 0.014 3 
0.457 0.232 0.014 3 
0.458 0.224 0.014 3 
0.462 -0.007 0.023 3 
0.461 0.122 0.023 3 
0.46 0.114 0.023 3 
0.46 0.103 0.023 3 
0.46 0.093 0.023 3 
0.46 0.082 0.023 3 
0.46 0.074 0.023 3 
0.46 0.053 0.023 3 
0.461 0.042 0.023 3 
0.461 0.032 0.023 3 
0.46 0.024 0.024 3 
0.462 0.003 0.023 3 
0.458 0.204 0.014 3 
0.462 -0.025 0.023 3 
0.462 -0.036 0.023 3 
0.462 -0.046 0.023 3 
0.462 -0.057 0.023 3 
0.462 -0.065 0.023 3 
0.463 -0.086 0.023 3 
0.464 -0.185 0.02 3 
0.463 -0.097 0.023 3 
0.465 -0.117 0.023 3 
0.465 -0.125 0.023 3 
0.465 -0.125 0.007 3 
0.461 -0.067 0.013 3 
0.461 -0.075 0.013 3 
0.461 -0.086 0.013 3 
0.462 -0.097 0.013 3 
0.462 -0.105 0.013 3 
0.463 -0.116 0.013 3 
0.463 -0.127 0.013 3 
0.464 -0.155 0.012 3 
0.464 -0.166 0.012 3 
0.463 -0.176 0.012 3 
0.463 -0.185 0.012 3 
0.46 -0.046 0.013 3 
0.465 -0.136 0.007 3 
0.47 -0.345 0.003 3 
0.459 0.152 0.004 3 
0.466 -0.136 0.004 3 
0.461 0.074 0.002 3 
0.46 0.063 0.002 3 
0.461 0.042 0.002 3 
0.463 -0.036 0.002 3 
0.463 -0.046 0.002 3 
0.464 -0.065 0.002 3 
0.462 -0.075 0.002 3 
0.459 0.114 0.013 3 
0.458 0.193 0.014 3 
0.458 0.182 0.014 3 
0.464 -0.155 0.015 3 
0.466 -0.215 0.014 3 
0.467 -0.228 0.014 3 
0.467 -0.237 0.014 3 
0.471 -0.305 0.012 3 
0.471 -0.315 0.012 3 
0.458 0.173 0.012 3 
0.458 0.151 0.012 3 
0.459 0.132 0.012 3 
0.46 0.133 0.023 3 
0.458 0.092 0.013 3 
0.459 0.084 0.013 3 
0.459 0.074 0.013 3 
0.459 0.063 0.013 3 
0.459 0.053 0.013 3 
0.459 0.042 0.013 3 
0.459 0.034 0.013 3 
0.459 0.024 0.013 3 
0.459 0.013 0.013 3 
0.459 0.003 0.013 3 
0.462 0.003 0.034 3 
0.461 0.134 0.033 3 
0.461 0.123 0.033 3 
0.461 0.104 0.034 3 
0.461 0.093 0.034 3 
0.46 0.082 0.034 3 
0.461 0.074 0.034 3 
0.461 0.064 0.034 3 
0.461 0.053 0.034 3 
0.461 0.032 0.034 3 
0.461 0.024 0.034 3 
0.462 0.014 0.034 3 
0.46 0.144 0.033 3 
0.462 -0.007 0.034 3 
0.462 -0.017 0.034 3 
0.463 -0.025 0.034 3 
0.463 -0.065 0.034 3 
0.464 -0.076 0.034 3 
0.465 -0.081 0.034 3 
0.465 -0.087 0.034 3 
0.464 -0.094 0.034 3 
0.464 -0.097 0.034 3 
0.465 -0.1 0.034 3 
0.465 -0.106 0.034 3 
0.465 -0.084 0.036 3 
0.468 -0.265 0.044 3 
0.471 -0.288 0.044 3 
0.472 -0.296 0.044 3 
0.471 -0.308 0.044 3 
0.459 0.222 0.033 3 
0.472 -0.319 0.044 3 
0.473 -0.326 0.044 3 
0.474 -0.338 0.043 3 
0.456 0.331 0.034 3 
0.456 0.324 0.034 3 
0.459 0.314 0.034 3 
0.465 -0.125 0.004 3 
0.459 0.294 0.032 3 
0.46 0.283 0.032 3 
0.46 0.273 0.032 3 
0.46 0.264 0.032 3 
0.46 0.252 0.032 3 
0.459 0.242 0.033 3 
0.46 0.214 0.033 3 
0.459 0.193 0.033 3 
0.459 0.174 0.033 3 
0.46 0.163 0.033 3 
0.472 -0.306 0.024 3 
0.459 0.272 0.024 3 
0.459 0.263 0.024 3 
0.459 0.254 0.024 3 
0.458 0.242 0.024 3 
0.459 0.234 0.024 3 
0.464 -0.119 0.026 3 
0.468 -0.256 0.024 3 
0.469 -0.265 0.024 3 
0.47 -0.278 0.024 3 
0.471 -0.289 0.024 3 
0.472 -0.296 0.024 3 
0.459 0.294 0.024 3 
0.472 -0.316 0.023 3 
0.473 -0.327 0.023 3 
0.473 -0.337 0.023 3 
0.471 -0.345 0.023 3 
0.459 0.202 0.022 3 
0.458 0.182 0.023 3 
0.458 0.173 0.023 3 
0.459 0.163 0.023 3 
0.46 0.013 0.024 3 
0.46 0.152 0.023 3 
0.459 0.144 0.023 3 
0.469 -0.256 0.033 3 
0.465 -0.116 0.034 3 
0.46 0.122 0.012 3 
0.465 -0.125 0.034 3 
0.465 -0.136 0.034 3 
0.466 -0.147 0.034 3 
0.466 -0.155 0.034 3 
0.466 -0.186 0.033 3 
0.466 -0.195 0.033 3 
0.466 -0.207 0.033 3 
0.467 -0.216 0.033 3 
0.468 -0.237 0.033 3 
0.468 -0.217 0.072 3 
0.468 -0.265 0.033 3 
0.47 -0.278 0.033 3 
0.471 -0.288 0.032 3 
0.472 -0.296 0.032 3 
0.472 -0.315 0.032 3 
0.472 -0.326 0.032 3 
0.473 -0.337 0.032 3 
0.458 0.333 0.023 3 
0.46 0.314 0.023 3 
0.46 0.302 0.023 3 
0.462 -0.025 0.103 3 
0.461 0.083 0.103 3 
0.461 0.072 0.102 3 
0.46 0.064 0.102 3 
0.46 0.053 0.102 3 
0.46 0.043 0.102 3 
0.467 -0.207 0.052 3 
0.462 0.032 0.102 3 
0.462 0.014 0.102 3 
0.462 0.003 0.102 3 
0.462 -0.006 0.103 3 
0.462 -0.017 0.103 3 
0.461 0.104 0.103 3 
0.463 -0.036 0.103 3 
0.463 -0.046 0.103 3 
0.464 -0.057 0.103 3 
0.464 -0.065 0.103 3 
0.464 -0.076 0.103 3 
0.465 -0.079 0.103 3 
0.465 -0.087 0.103 3 
0.459 0.234 0.043 3 
0.465 -0.095 0.103 3 
0.465 -0.117 0.104 3 
0.465 -0.125 0.104 3 
0.461 0.204 0.103 3 
0.457 0.326 0.104 3 
0.461 0.297 0.104 3 
0.461 0.294 0.104 3 
0.461 0.282 0.104 3 
0.459 0.334 0.082 3 
0.46 0.262 0.104 3 
0.461 0.254 0.104 3 
0.46 0.322 0.082 3 
0.46 0.232 0.103 3 
0.457 0.271 0.013 3 
0.46 0.223 0.103 3 
0.466 -0.145 0.104 3 
0.461 0.192 0.103 3 
0.475 -0.332 0.073 3 
0.461 0.184 0.103 3 
0.46 0.172 0.103 3 
0.46 0.164 0.103 3 
0.46 0.153 0.103 3 
0.461 0.142 0.103 3 
0.461 0.134 0.103 3 
0.461 0.123 0.103 3 
0.461 0.112 0.103 3 
0.461 0.035 0.094 3 
0.474 -0.315 0.102 3 
0.463 -0.065 0.074 3 
0.475 -0.326 0.102 3 
0.475 -0.337 0.102 3 
0.477 -0.348 0.103 3 
0.475 -0.357 0.102 3 
0.473 -0.334 0.014 3 
0.46 0.088 0.094 3 
0.46 0.066 0.094 3 
0.46 0.064 0.094 3 
0.46 0.053 0.094 3 
0.464 -0.087 0.098 3 
0.461 0.337 0.094 3 
0.459 0.331 0.093 3 
0.461 0.323 0.094 3 
0.46 -0.017 0.013 3 
0.46 0.303 0.093 3 
0.46 0.214 0.092 3 
0.459 0.273 0.093 3 
0.46 0.262 0.093 3 
0.46 0.253 0.093 3 
0.46 0.232 0.092 3 
0.46 0.223 0.092 3 
0.469 -0.217 0.102 3 
0.466 -0.155 0.104 3 
0.467 -0.167 0.104 3 
0.467 -0.176 0.104 3 
0.475 -0.313 0.108 3 
0.474 -0.332 0.108 3 
0.465 -0.125 0.052 3 
0.46 0.322 0.102 3 
0.46 0.312 0.102 3 
0.468 -0.185 0.102 3 
0.469 -0.197 0.102 3 
0.469 -0.206 0.102 3 
0.475 -0.355 0.111 3 
0.469 -0.226 0.102 3 
0.469 -0.235 0.103 3 
0.469 -0.247 0.103 3 
0.469 -0.256 0.103 3 
0.469 -0.266 0.103 3 
0.47 -0.276 0.103 3 
0.472 -0.287 0.104 3 
0.473 -0.295 0.104 3 
0.474 -0.305 0.104 3 
0.459 0.335 0.099 3 
0.464 -0.105 0.026 3 
0.46 0.224 0.114 3 
0.461 0.212 0.114 3 
0.461 0.192 0.114 3 
0.461 0.173 0.114 3 
0.46 0.164 0.113 3 
0.46 0.153 0.113 3 
0.461 0.142 0.113 3 
0.461 0.134 0.113 3 
0.461 0.123 0.113 3 
0.461 0.104 0.113 3 
0.46 0.093 0.113 3 
0.46 0.233 0.114 3 
0.46 0.082 0.113 3 
0.461 0.072 0.113 3 
0.461 0.053 0.113 3 
0.46 0.043 0.113 3 
0.466 -0.175 0.063 3 
0.459 0.213 0.022 3 
0.46 0.032 0.113 3 
0.462 0.024 0.113 3 
0.47 -0.295 0.064 3 
0.46 -0.056 0.013 3 
0.462 0.014 0.113 3 
0.47 -0.227 0.122 3 
0.465 -0.156 0.123 3 
0.465 -0.167 0.123 3 
0.467 -0.176 0.123 3 
0.469 -0.197 0.124 3 
0.468 -0.205 0.124 3 
0.462 0.339 0.123 3 
0.461 0.334 0.122 3 
0.461 0.321 0.122 3 
0.464 -0.1 0.119 3 
0.464 -0.106 0.119 3 
0.468 -0.217 0.122 3 
0.46 0.261 0.073 3 
0.47 -0.245 0.123 3 
0.471 -0.255 0.123 3 
0.472 -0.278 0.124 3 
0.472 -0.288 0.124 3 
0.464 -0.13 0.085 3 
0.473 -0.295 0.124 3 
0.476 -0.328 0.123 3 
0.477 -0.336 0.123 3 
0.476 -0.345 0.123 3 
0.475 -0.355 0.123 3 
0.47 -0.257 0.114 3 
0.468 -0.188 0.113 3 
0.466 -0.145 0.112 3 
0.466 -0.156 0.112 3 
0.466 -0.167 0.112 3 
0.467 -0.176 0.112 3 
0.468 -0.196 0.113 3 
0.469 -0.215 0.113 3 
0.469 -0.226 0.114 3 
0.469 -0.235 0.114 3 
0.469 -0.247 0.114 3 
0.463 -0.046 0.052 3 
0.466 -0.137 0.112 3 
0.465 -0.073 0.109 3 
0.471 -0.267 0.112 3 
0.471 -0.277 0.112 3 
0.472 -0.287 0.112 3 
0.474 -0.305 0.113 3 
0.475 -0.32 0.114 3 
0.475 -0.327 0.114 3 
0.468 -0.246 0.083 3 
0.476 -0.345 0.114 3 
0.468 -0.247 0.022 3 
0.474 -0.35 0.114 3 
0.465 -0.106 0.114 3 
0.462 0.003 0.113 3 
0.458 0.162 0.012 3 
0.462 -0.006 0.113 3 
0.463 -0.025 0.113 3 
0.462 -0.035 0.113 3 
0.464 -0.057 0.114 3 
0.464 -0.065 0.114 3 
0.464 -0.076 0.114 3 
0.465 -0.079 0.114 3 
0.465 -0.087 0.114 3 
0.465 -0.095 0.114 3 
0.461 0.192 0.092 3 
0.475 -0.313 0.119 3 
0.459 0.335 0.113 3 
0.459 0.332 0.113 3 
0.461 0.314 0.113 3 
0.461 0.282 0.113 3 
0.461 0.273 0.112 3 
0.46 0.263 0.112 3 
0.46 0.253 0.112 3 
0.465 -0.117 0.112 3 
0.466 -0.125 0.112 3 
0.465 -0.092 0.079 3 
0.468 -0.217 0.083 3 
0.469 -0.226 0.083 3 
0.469 -0.238 0.083 3 
0.469 -0.265 0.083 3 
0.458 0.143 0.012 3 
0.471 -0.286 0.084 3 
0.472 -0.297 0.084 3 
0.473 -0.307 0.084 3 
0.473 -0.317 0.084 3 
0.475 -0.335 0.084 3 
0.473 -0.351 0.084 3 
0.467 -0.207 0.083 3 
0.462 0.338 0.077 3 
0.462 0.338 0.074 3 
0.459 0.331 0.074 3 
0.459 0.321 0.074 3 
0.459 0.314 0.074 3 
0.46 0.302 0.074 3 
0.46 0.293 0.074 3 
0.46 0.283 0.074 3 
0.46 0.274 0.074 3 
0.46 0.252 0.073 3 
0.46 0.243 0.073 3 
0.464 -0.125 0.082 3 
0.463 -0.057 0.084 3 
0.462 -0.065 0.084 3 
0.463 -0.076 0.084 3 
0.475 -0.332 0.087 3 
0.46 0.312 0.082 3 
0.459 0.292 0.082 3 
0.464 -0.095 0.082 3 
0.465 -0.098 0.082 3 
0.465 -0.106 0.082 3 
0.461 -0.017 0.023 3 
0.464 -0.116 0.082 3 
0.46 0.234 0.073 3 
0.465 -0.13 0.082 3 
0.461 0.153 0.063 3 
0.466 -0.136 0.082 3 
0.466 -0.147 0.082 3 
0.466 -0.155 0.082 3 
0.463 -0.017 0.044 3 
0.465 -0.166 0.082 3 
0.466 -0.175 0.082 3 
0.467 -0.187 0.083 3 
0.467 -0.196 0.083 3 
0.465 -0.125 0.074 3 
0.462 -0.006 0.073 3 
0.463 -0.025 0.074 3 
0.463 -0.036 0.074 3 
0.464 -0.046 0.074 3 
0.463 -0.076 0.074 3 
0.464 -0.087 0.074 3 
0.461 0.112 0.034 3 
0.465 -0.095 0.074 3 
0.465 -0.106 0.074 3 
0.464 -0.114 0.074 3 
0.464 -0.116 0.074 3 
0.472 -0.306 0.032 3 
0.466 -0.136 0.074 3 
0.466 -0.147 0.074 3 
0.466 -0.155 0.074 3 
0.466 -0.167 0.074 3 
0.466 -0.175 0.074 3 
0.467 -0.187 0.074 3 
0.464 -0.174 0.017 3 
0.468 -0.196 0.074 3 
0.468 -0.208 0.074 3 
0.465 -0.092 0.071 3 
0.465 -0.122 0.071 3 
0.461 0.093 0.073 3 
0.46 0.223 0.073 3 
0.46 0.214 0.073 3 
0.46 0.203 0.073 3 
0.46 0.194 0.073 3 
0.46 0.183 0.073 3 
0.46 0.172 0.073 3 
0.46 0.163 0.073 3 
0.46 0.152 0.073 3 
0.46 0.144 0.073 3 
0.462 0.123 0.073 3 
0.461 0.104 0.073 3 
0.46 0.214 0.063 3 
0.461 0.072 0.073 3 
0.462 0.064 0.073 3 
0.463 -0.017 0.074 3 
0.462 0.053 0.073 3 
0.462 0.043 0.073 3 
0.461 0.032 0.073 3 
0.462 0.024 0.073 3 
0.463 -0.057 0.074 3 
0.462 0.014 0.073 3 
0.462 0.003 0.073 3 
0.467 -0.167 0.093 3 
0.463 -0.046 0.034 3 
0.464 -0.087 0.092 3 
0.465 -0.09 0.093 3 
0.464 -0.095 0.093 3 
0.473 -0.337 0.014 3 
0.465 -0.098 0.093 3 
0.465 -0.106 0.093 3 
0.465 -0.117 0.093 3 
0.465 -0.125 0.093 3 
0.459 0.194 0.022 3 
0.466 -0.155 0.093 3 
0.463 -0.076 0.092 3 
0.46 0.133 0.004 3 
0.467 -0.176 0.093 3 
0.469 -0.197 0.094 3 
0.469 -0.206 0.094 3 
0.468 -0.217 0.094 3 
0.469 -0.226 0.094 3 
0.469 -0.235 0.094 3 
0.469 -0.256 0.094 3 
0.459 0.314 0.054 3 
0.474 -0.356 0.096 3 
0.469 -0.265 0.092 3 
0.46 0.082 0.092 3 
0.461 0.184 0.092 3 
0.46 0.172 0.092 3 
0.462 0.064 0.052 3 
0.46 0.164 0.092 3 
0.46 0.153 0.092 3 
0.46 0.144 0.092 3 
0.461 0.134 0.092 3 
0.461 0.123 0.092 3 
0.469 -0.256 0.083 3 
0.461 0.112 0.092 3 
0.461 0.104 0.092 3 
0.47 -0.276 0.092 3 
0.462 0.032 0.092 3 
0.461 0.104 0.052 3 
0.462 0.024 0.092 3 
0.462 0.014 0.092 3 
0.462 0.003 0.092 3 
0.463 -0.017 0.092 3 
0.463 -0.025 0.092 3 
0.463 -0.046 0.092 3 
0.463 -0.057 0.092 3 
0.463 -0.065 0.092 3 
0.462 0.053 0.084 3 
0.459 0.331 0.054 3 
0.46 0.163 0.084 3 
0.46 0.152 0.084 3 
0.462 0.134 0.084 3 
0.462 0.123 0.084 3 
0.462 0.112 0.084 3 
0.461 0.104 0.084 3 
0.461 0.093 0.084 3 
0.461 0.083 0.084 3 
0.46 0.074 0.084 3 
0.461 0.064 0.084 3 
0.46 0.172 0.084 3 
0.462 0.043 0.084 3 
0.461 0.032 0.084 3 
0.462 0.024 0.084 3 
0.462 0.014 0.084 3 
0.461 0.003 0.084 3 
0.462 -0.006 0.084 3 
0.462 -0.017 0.084 3 
0.463 -0.025 0.084 3 
0.463 -0.036 0.084 3 
0.462 -0.046 0.084 3 
0.459 0.276 0.084 3 
0.473 -0.298 0.093 3 
0.473 -0.307 0.093 3 
0.474 -0.318 0.093 3 
0.474 -0.325 0.093 3 
0.474 -0.336 0.093 3 
0.476 -0.34 0.093 3 
0.477 -0.348 0.094 3 
0.474 -0.348 0.093 3 
0.474 -0.356 0.093 3 
0.464 -0.108 0.087 3 
0.464 -0.116 0.087 3 
0.466 -0.145 0.123 3 
0.474 -0.325 0.084 3 
0.459 0.27 0.084 3 
0.459 0.264 0.084 3 
0.46 0.252 0.084 3 
0.46 0.243 0.084 3 
0.46 0.234 0.084 3 
0.46 0.223 0.084 3 
0.46 0.214 0.084 3 
0.46 0.194 0.084 3 
0.461 0.184 0.084 3 
0.304 -0.005 0.02 7 
0.298 -0.015 0.021 7 
0.309 0.002 0.019 7 
0.298 0.002 0.021 7 
0.306 -0.012 0.02 7 
0.309 -0.015 0.019 7 
