# .PCD v0.7 - Point Cloud Data file
FIELDS x y z intensity
SIZE 4 4 4 4
TYPE F F F F
COUNT 1 1 1 1
WIDTH 2479
HEIGHT 1
VIEWPOINT 0 0 0 1 0 0 0
POINTS 2479
DATA ascii
0.591 -0.051 0.145 0 
0.54 -0.018 0.088 0 
0.51 -0.041 0.119 0 
0.519 -0.008 0.045 0 
0.424 0.042 0.108 0 
0.428 0.045 0.14 0 
0.34 0.014 0.004 0 
0.341 0.017 0.004 0 
0.377 -0.207 -0.025 1 
0.374 -0.195 -0.024 1 
0.361 -0.086 -0.015 1 
0.36 -0.057 -0.015 1 
0.351 -0.016 -0.011 1 
0.353 0.044 -0.012 1 
0.354 0.056 -0.013 1 
0.352 0.114 -0.014 1 
0.35 0.124 -0.013 1 
0.352 0.134 -0.014 1 
0.351 0.16 -0.015 1 
0.348 0.165 -0.014 1 
0.344 0.206 -0.015 1 
0.382 -0.245 -0.027 1 
0.384 -0.232 -0.026 1 
0.387 -0.233 -0.027 1 
0.374 -0.186 -0.021 1 
0.374 -0.178 -0.021 1 
0.372 -0.145 -0.019 1 
0.373 -0.136 -0.019 1 
0.372 -0.125 -0.018 1 
0.371 -0.115 -0.018 1 
0.363 -0.056 -0.014 1 
0.363 -0.045 -0.014 1 
0.364 -0.035 -0.014 1 
0.361 -0.025 -0.013 1 
0.35 -0.006 -0.009 1 
0.36 0.054 -0.013 1 
0.361 0.063 -0.014 1 
0.362 0.067 -0.014 1 
0.363 0.073 -0.015 1 
0.362 0.076 -0.015 1 
0.359 0.084 -0.014 1 
0.361 0.094 -0.015 1 
0.362 0.104 -0.015 1 
0.359 0.124 -0.015 1 
0.357 0.134 -0.014 1 
0.353 0.174 -0.015 1 
0.353 0.182 -0.015 1 
0.352 0.213 -0.017 1 
0.353 0.216 -0.017 1 
0.381 -0.195 -0.022 1 
0.382 -0.156 -0.021 1 
0.372 -0.096 -0.016 1 
0.373 -0.085 -0.016 1 
0.374 -0.083 -0.016 1 
0.37 -0.063 -0.015 1 
0.37 -0.045 -0.015 1 
0.371 -0.036 -0.015 1 
0.371 -0.03 -0.015 1 
0.358 -0.015 -0.011 1 
0.342 0.014 -0.005 1 
0.343 0.016 -0.005 1 
0.364 0.039 -0.013 1 
0.364 0.094 -0.014 1 
0.365 0.109 -0.014 1 
0.363 0.134 -0.015 1 
0.364 0.145 -0.015 1 
0.36 0.184 -0.016 1 
0.361 0.194 -0.017 1 
0.393 -0.26 -0.027 1 
0.389 -0.206 -0.023 1 
0.383 -0.168 -0.02 1 
0.383 -0.126 -0.018 1 
0.384 -0.116 -0.019 1 
0.378 -0.095 -0.016 1 
0.382 -0.085 -0.017 1 
0.382 -0.077 -0.017 1 
0.374 -0.046 -0.014 1 
0.374 -0.042 -0.014 1 
0.371 -0.025 -0.013 1 
0.348 0.018 -0.005 1 
0.373 0.084 -0.015 1 
0.372 0.086 -0.015 1 
0.37 0.096 -0.014 1 
0.374 0.104 -0.016 1 
0.373 0.123 -0.016 1 
0.373 0.133 -0.016 1 
0.368 0.144 -0.015 1 
0.401 -0.255 -0.026 1 
0.394 -0.225 -0.023 1 
0.394 -0.217 -0.023 1 
0.394 -0.176 -0.021 1 
0.394 -0.165 -0.021 1 
0.393 -0.157 -0.02 1 
0.39 -0.115 -0.018 1 
0.381 -0.065 -0.015 1 
0.383 -0.055 -0.015 1 
0.381 -0.049 -0.015 1 
0.379 -0.045 -0.014 1 
0.38 -0.037 -0.014 1 
0.381 -0.03 -0.015 1 
0.373 0.043 -0.012 1 
0.374 0.047 -0.013 1 
0.38 0.083 -0.015 1 
0.372 0.144 -0.014 1 
0.371 0.184 -0.016 1 
0.368 0.214 -0.016 1 
0.364 0.223 -0.015 1 
0.364 0.228 -0.016 1 
0.404 -0.278 -0.026 1 
0.383 -0.216 -0.023 1 
0.4 -0.225 -0.023 1 
0.394 -0.125 -0.018 1 
0.393 -0.106 -0.017 1 
0.392 -0.076 -0.017 1 
0.385 -0.046 -0.014 1 
0.386 -0.036 -0.014 1 
0.387 -0.029 -0.015 1 
0.382 -0.026 -0.013 1 
0.374 -0.016 -0.011 1 
0.369 -0.006 -0.009 1 
0.358 -0.001 -0.005 1 
0.346 0.018 -0.001 1 
0.364 0.021 -0.007 1 
0.373 0.03 -0.01 1 
0.382 0.054 -0.014 1 
0.382 0.072 -0.014 1 
0.383 0.075 -0.014 1 
0.385 0.083 -0.015 1 
0.383 0.099 -0.015 1 
0.384 0.113 -0.015 1 
0.383 0.123 -0.015 1 
0.38 0.142 -0.015 1 
0.377 0.144 -0.014 1 
0.379 0.164 -0.015 1 
0.375 0.172 -0.014 1 
0.374 0.174 -0.014 1 
0.374 0.222 -0.016 1 
0.373 0.228 -0.016 1 
0.414 -0.277 -0.027 1 
0.414 -0.272 -0.027 1 
0.414 -0.255 -0.026 1 
0.414 -0.247 -0.025 1 
0.403 -0.216 -0.021 1 
0.403 -0.207 -0.021 1 
0.402 -0.196 -0.02 1 
0.401 -0.186 -0.019 1 
0.401 -0.177 -0.019 1 
0.401 -0.165 -0.019 1 
0.401 -0.116 -0.018 1 
0.393 -0.066 -0.015 1 
0.394 -0.056 -0.015 1 
0.393 -0.046 -0.015 1 
0.388 -0.025 -0.013 1 
0.383 -0.015 -0.012 1 
0.353 -0.001 -0.002 1 
0.38 0.033 -0.011 1 
0.384 0.037 -0.012 1 
0.388 0.064 -0.014 1 
0.401 -0.242 -0.026 1 
0.389 0.072 -0.014 1 
0.389 0.083 -0.014 1 
0.388 0.093 -0.014 1 
0.391 0.102 -0.015 1 
0.391 0.113 -0.015 1 
0.382 0.153 -0.014 1 
0.384 0.159 -0.014 1 
0.379 0.184 -0.014 1 
0.374 0.154 -0.015 1 
0.38 0.234 -0.017 1 
0.378 0.244 -0.017 1 
0.42 -0.255 -0.025 1 
0.411 -0.236 -0.022 1 
0.41 -0.225 -0.021 1 
0.364 -0.006 -0.009 1 
0.409 -0.216 -0.02 1 
0.403 -0.146 -0.017 1 
0.404 -0.135 -0.017 1 
0.404 -0.133 -0.017 1 
0.403 -0.095 -0.016 1 
0.403 -0.076 -0.016 1 
0.4 -0.068 -0.015 1 
0.399 -0.066 -0.014 1 
0.4 -0.056 -0.015 1 
0.403 -0.035 -0.016 1 
0.401 -0.028 -0.015 1 
0.394 -0.015 -0.013 1 
0.369 -0.001 -0.005 1 
0.396 0.104 -0.015 1 
0.394 0.123 -0.014 1 
0.393 0.131 -0.014 1 
0.394 0.133 -0.015 1 
0.394 0.144 -0.015 1 
0.394 0.149 -0.015 1 
0.389 0.154 -0.014 1 
0.39 0.161 -0.014 1 
0.391 0.164 -0.015 1 
0.388 0.174 -0.014 1 
0.385 0.194 -0.014 1 
0.382 0.248 -0.016 1 
0.421 -0.297 -0.025 1 
0.42 -0.29 -0.024 1 
0.422 -0.286 -0.025 1 
0.421 -0.276 -0.024 1 
0.424 -0.271 -0.024 1 
0.425 -0.269 -0.025 1 
0.424 -0.259 -0.024 1 
0.418 -0.245 -0.022 1 
0.418 -0.237 -0.021 1 
0.413 -0.208 -0.019 1 
0.41 -0.195 -0.018 1 
0.413 -0.176 -0.018 1 
0.413 -0.166 -0.018 1 
0.408 -0.147 -0.016 1 
0.349 0.192 -0.016 1 
0.411 -0.135 -0.017 1 
0.391 -0.247 -0.027 1 
0.414 -0.115 -0.017 1 
0.412 -0.105 -0.017 1 
0.411 -0.096 -0.016 1 
0.411 -0.085 -0.016 1 
0.409 -0.075 -0.015 1 
0.407 -0.066 -0.015 1 
0.404 -0.048 -0.014 1 
0.404 -0.044 -0.014 1 
0.403 -0.027 -0.014 1 
0.402 -0.016 -0.013 1 
0.34 0.003 0.004 1 
0.401 0.053 -0.013 1 
0.402 0.072 -0.014 1 
0.403 0.094 -0.015 1 
0.402 0.114 -0.015 1 
0.373 -0.106 -0.018 1 
0.399 0.123 -0.014 1 
0.4 0.146 -0.015 1 
0.394 0.192 -0.015 1 
0.392 0.198 -0.014 1 
0.394 0.204 -0.015 1 
0.392 0.224 -0.015 1 
0.391 0.243 -0.016 1 
0.387 0.254 -0.015 1 
0.428 -0.305 -0.025 1 
0.423 -0.226 -0.02 1 
0.419 -0.215 -0.019 1 
0.416 -0.195 -0.017 1 
0.394 0.206 -0.015 1 
0.42 -0.125 -0.017 1 
0.414 -0.052 -0.015 1 
0.412 -0.045 -0.014 1 
0.41 -0.025 -0.014 1 
0.413 -0.003 -0.014 1 
0.403 0.03 -0.012 1 
0.406 0.043 -0.013 1 
0.406 0.054 -0.013 1 
0.407 0.063 -0.013 1 
0.409 0.072 -0.014 1 
0.409 0.083 -0.014 1 
0.409 0.094 -0.014 1 
0.39 0.024 -0.012 1 
0.404 0.144 -0.014 1 
0.404 0.153 -0.014 1 
0.402 0.163 -0.013 1 
0.404 0.17 -0.015 1 
0.405 0.182 -0.015 1 
0.404 0.184 -0.015 1 
0.403 0.193 -0.015 1 
0.401 0.193 -0.014 1 
0.402 0.223 -0.016 1 
0.402 0.231 -0.016 1 
0.393 0.258 -0.015 1 
0.432 -0.306 -0.023 1 
0.433 -0.289 -0.023 1 
0.433 -0.277 -0.022 1 
0.434 -0.255 -0.021 1 
0.432 -0.245 -0.021 1 
0.429 -0.205 -0.019 1 
0.423 -0.156 -0.016 1 
0.422 -0.107 -0.015 1 
0.424 -0.096 -0.015 1 
0.422 -0.086 -0.015 1 
0.421 -0.084 -0.014 1 
0.423 -0.075 -0.015 1 
0.424 -0.073 -0.015 1 
0.384 -0.188 -0.021 1 
0.392 -0.146 -0.018 1 
0.401 0.104 -0.014 1 
0.422 -0.035 -0.014 1 
0.421 -0.015 -0.014 1 
0.422 -0.006 -0.015 1 
0.413 0.029 -0.012 1 
0.413 0.103 -0.013 1 
0.414 0.117 -0.014 1 
0.411 0.134 -0.013 1 
0.409 0.144 -0.013 1 
0.413 0.154 -0.014 1 
0.403 0.209 -0.013 1 
0.403 -0.239 -0.024 1 
0.407 0.223 -0.015 1 
0.403 0.253 -0.015 1 
0.404 0.262 -0.016 1 
0.402 0.271 -0.016 1 
0.434 -0.238 -0.018 1 
0.432 -0.225 -0.017 1 
0.434 -0.222 -0.018 1 
0.433 -0.198 -0.017 1 
0.431 -0.176 -0.016 1 
0.399 -0.245 -0.025 1 
0.429 -0.157 -0.015 1 
0.429 -0.147 -0.015 1 
0.428 -0.117 -0.014 1 
0.431 -0.106 -0.015 1 
0.43 -0.082 -0.015 1 
0.432 -0.065 -0.015 1 
0.431 -0.06 -0.015 1 
0.429 -0.008 -0.014 1 
0.432 -0.006 -0.015 1 
0.422 0.062 -0.013 1 
0.42 0.073 -0.012 1 
0.421 0.094 -0.013 1 
0.419 0.103 -0.013 1 
0.42 0.122 -0.013 1 
0.413 0.164 -0.012 1 
0.414 0.184 -0.013 1 
0.414 0.186 -0.013 1 
0.41 0.213 -0.013 1 
0.414 0.242 -0.015 1 
0.414 0.25 -0.015 1 
0.415 0.254 -0.016 1 
0.414 0.273 -0.016 1 
0.412 0.282 -0.016 1 
0.442 -0.295 -0.02 1 
0.442 -0.277 -0.019 1 
0.434 -0.185 -0.015 1 
0.435 -0.173 -0.015 1 
0.434 -0.157 -0.014 1 
0.434 -0.147 -0.014 1 
0.436 -0.143 -0.015 1 
0.437 -0.126 -0.015 1 
0.434 -0.085 -0.013 1 
0.434 -0.083 -0.013 1 
0.434 -0.047 -0.013 1 
0.429 0.054 -0.012 1 
0.429 0.064 -0.012 1 
0.428 0.073 -0.012 1 
0.423 0.153 -0.012 1 
0.42 0.164 -0.012 1 
0.419 0.183 -0.012 1 
0.42 0.193 -0.013 1 
0.415 0.282 -0.015 1 
0.414 0.284 -0.014 1 
0.442 -0.256 -0.016 1 
0.443 -0.237 -0.015 1 
0.441 -0.217 -0.015 1 
0.441 -0.195 -0.014 1 
0.443 -0.189 -0.015 1 
0.442 -0.186 -0.014 1 
0.443 -0.178 -0.014 1 
0.443 -0.168 -0.014 1 
0.44 -0.155 -0.013 1 
0.442 -0.146 -0.014 1 
0.442 -0.136 -0.013 1 
0.441 -0.115 -0.013 1 
0.441 -0.105 -0.013 1 
0.441 -0.095 -0.013 1 
0.419 0.084 -0.012 1 
0.441 -0.085 -0.013 1 
0.442 -0.075 -0.013 1 
0.374 0.178 -0.014 1 
0.441 -0.065 -0.013 1 
0.441 -0.055 -0.013 1 
0.402 0.064 -0.014 1 
0.441 -0.036 -0.012 1 
0.421 0.053 -0.012 1 
0.44 -0.026 -0.012 1 
0.441 -0.009 -0.013 1 
0.455 -0.004 -0.016 1 
0.434 0.041 -0.011 1 
0.434 0.082 -0.011 1 
0.407 -0.055 -0.015 1 
0.433 0.094 -0.011 1 
0.43 0.144 -0.011 1 
0.421 0.204 -0.011 1 
0.422 0.223 -0.012 1 
0.423 0.243 -0.012 1 
0.422 0.253 -0.013 1 
0.423 0.268 -0.013 1 
0.422 0.284 -0.014 1 
0.453 -0.317 -0.018 1 
0.424 -0.214 -0.018 1 
0.454 -0.305 -0.018 1 
0.45 -0.285 -0.016 1 
0.444 -0.255 -0.014 1 
0.444 -0.252 -0.014 1 
0.449 -0.196 -0.014 1 
0.447 -0.186 -0.013 1 
0.449 -0.145 -0.013 1 
0.455 -0.004 -0.014 1 
0.443 0.042 -0.011 1 
0.441 0.074 -0.011 1 
0.44 0.084 -0.011 1 
0.439 0.104 -0.011 1 
0.434 0.154 -0.01 1 
0.431 0.173 -0.01 1 
0.432 0.184 -0.01 1 
0.431 0.194 -0.01 1 
0.424 0.212 -0.009 1 
0.423 0.294 -0.012 1 
0.376 -0.201 -0.025 1 
0.459 -0.317 -0.016 1 
0.456 -0.307 -0.015 1 
0.453 -0.3 -0.014 1 
0.454 -0.298 -0.015 1 
0.45 -0.276 -0.013 1 
0.42 0.134 -0.013 1 
0.451 -0.265 -0.013 1 
0.451 -0.256 -0.013 1 
0.454 -0.235 -0.013 1 
0.454 -0.227 -0.013 1 
0.454 -0.216 -0.013 1 
0.454 -0.213 -0.013 1 
0.454 -0.161 -0.012 1 
0.454 -0.115 -0.011 1 
0.454 -0.107 -0.011 1 
0.454 -0.097 -0.011 1 
0.441 -0.206 -0.014 1 
0.454 -0.092 -0.011 1 
0.453 -0.065 -0.01 1 
0.452 -0.009 -0.01 1 
0.476 -0.004 -0.016 1 
0.442 0.032 -0.008 1 
0.444 0.123 -0.009 1 
0.443 0.133 -0.009 1 
0.428 0.212 -0.008 1 
0.433 0.222 -0.009 1 
0.432 0.234 -0.009 1 
0.432 0.254 -0.01 1 
0.434 0.273 -0.011 1 
0.434 0.282 -0.011 1 
0.427 0.298 -0.01 1 
0.465 -0.337 -0.015 1 
0.381 0.184 -0.015 1 
0.463 -0.321 -0.014 1 
0.463 -0.295 -0.014 1 
0.448 0.033 -0.007 1 
0.441 0.142 -0.009 1 
0.454 0.044 -0.008 1 
0.454 0.054 -0.009 1 
0.453 0.062 -0.008 1 
0.453 0.072 -0.008 1 
0.454 0.083 -0.009 1 
0.453 0.093 -0.009 1 
0.451 0.113 -0.008 1 
0.449 0.133 -0.008 1 
0.444 0.163 -0.008 1 
0.442 0.172 -0.008 1 
0.41 0.191 -0.015 1 
0.442 0.183 -0.008 1 
0.441 0.193 -0.008 1 
0.441 0.204 -0.008 1 
0.435 0.212 -0.007 1 
0.434 0.306 -0.01 1 
0.464 -0.255 -0.01 1 
0.464 -0.24 -0.01 1 
0.464 -0.215 -0.009 1 
0.464 -0.197 -0.009 1 
0.464 -0.18 -0.009 1 
0.463 -0.135 -0.008 1 
0.464 -0.119 -0.008 1 
0.464 -0.076 -0.008 1 
0.382 -0.242 -0.026 1 
0.464 -0.055 -0.008 1 
0.463 -0.036 -0.007 1 
0.364 -0.001 0.013 1 
0.441 0.283 -0.008 1 
0.442 0.293 -0.008 1 
0.47 -0.335 -0.011 1 
0.433 0.133 -0.012 1 
0.437 0.264 -0.009 1 
0.47 -0.325 -0.01 1 
0.449 -0.047 -0.012 1 
0.474 -0.309 -0.01 1 
0.469 -0.146 -0.007 1 
0.468 -0.115 -0.006 1 
0.468 -0.107 -0.006 1 
0.468 -0.085 -0.006 1 
0.467 -0.066 -0.006 1 
0.467 -0.055 -0.006 1 
0.466 -0.047 -0.005 1 
0.465 -0.036 -0.005 1 
0.465 -0.025 -0.005 1 
0.373 -0.001 0.013 1 
0.427 0.028 0.002 1 
0.461 0.042 -0.005 1 
0.461 0.064 -0.005 1 
0.374 0.024 -0.009 1 
0.46 0.074 -0.005 1 
0.461 0.093 -0.005 1 
0.421 -0.145 -0.015 1 
0.459 0.114 -0.005 1 
0.459 0.124 -0.005 1 
0.456 0.153 -0.005 1 
0.453 0.173 -0.005 1 
0.454 0.193 -0.005 1 
0.453 0.204 -0.005 1 
0.452 0.214 -0.005 1 
0.451 0.222 -0.005 1 
0.45 0.233 -0.005 1 
0.45 0.244 -0.006 1 
0.451 0.254 -0.006 1 
0.449 0.261 -0.006 1 
0.449 0.273 -0.006 1 
0.448 0.284 -0.006 1 
0.407 -0.036 -0.015 1 
0.444 0.314 -0.007 1 
0.474 -0.346 -0.009 1 
0.364 -0.076 -0.016 1 
0.474 -0.319 -0.008 1 
0.458 0.132 -0.005 1 
0.474 -0.286 -0.007 1 
0.474 -0.276 -0.007 1 
0.474 -0.245 -0.006 1 
0.474 -0.239 -0.006 1 
0.475 -0.237 -0.006 1 
0.475 -0.234 -0.006 1 
0.472 -0.226 -0.006 1 
0.472 -0.217 -0.005 1 
0.471 -0.196 -0.005 1 
0.47 -0.178 -0.005 1 
0.471 -0.167 -0.005 1 
0.472 -0.159 -0.005 1 
0.414 -0.186 -0.019 1 
0.479 -0.007 -0.006 1 
0.454 0.242 -0.004 1 
0.453 0.253 -0.004 1 
0.453 0.264 -0.004 1 
0.452 0.282 -0.004 1 
0.452 0.294 -0.005 1 
0.451 0.302 -0.005 1 
0.45 0.314 -0.005 1 
0.45 0.324 -0.005 1 
0.476 -0.356 -0.006 1 
0.479 -0.345 -0.007 1 
0.479 -0.338 -0.006 1 
0.477 -0.325 -0.006 1 
0.394 0.041 -0.013 1 
0.478 -0.316 -0.006 1 
0.478 -0.306 -0.005 1 
0.477 -0.295 -0.005 1 
0.476 -0.288 -0.005 1 
0.473 -0.266 -0.004 1 
0.474 -0.257 -0.004 1 
0.474 -0.228 -0.003 1 
0.472 -0.205 -0.002 1 
0.377 -0.005 -0.01 1 
0.482 -0.004 -0.003 1 
0.395 0.004 0.013 1 
0.403 -0.005 -0.014 1 
0.395 0.006 0.013 1 
0.394 -0.005 -0.013 1 
0.388 0.014 0.014 1 
0.418 -0.026 -0.014 1 
0.424 0.026 0.007 1 
0.454 0.299 -0.003 1 
0.454 0.312 -0.003 1 
0.475 -0.155 0 1 
0.475 -0.149 0 1 
0.491 -0.004 -0.002 1 
0.412 -0.005 -0.014 1 
0.409 0.013 0.012 1 
0.407 0.02 0.012 1 
0.464 0.032 0.002 1 
0.465 0.073 0.001 1 
0.465 0.083 0.001 1 
0.466 0.092 0.001 1 
0.465 0.124 0.001 1 
0.465 0.13 0.001 1 
0.453 0.324 0 1 
0.453 0.327 0 1 
0.477 -0.215 0.001 1 
0.36 -0.001 0.004 1 
0.475 -0.201 0.002 1 
0.474 -0.195 0.002 1 
0.474 -0.186 0.002 1 
0.474 -0.177 0.002 1 
0.474 -0.166 0.002 1 
0.473 -0.157 0.002 1 
0.42 0.113 -0.013 1 
0.471 -0.136 0.003 1 
0.47 -0.086 0.003 1 
0.47 -0.075 0.004 1 
0.469 -0.066 0.004 1 
0.412 -0.126 -0.017 1 
0.467 -0.007 0.004 1 
0.466 -0.001 0.004 1 
0.463 0.072 0.004 1 
0.463 0.094 0.004 1 
0.463 0.104 0.004 1 
0.463 0.112 0.004 1 
0.464 0.124 0.004 1 
0.461 0.153 0.004 1 
0.462 0.173 0.003 1 
0.462 0.184 0.003 1 
0.462 0.193 0.003 1 
0.461 0.224 0.003 1 
0.382 -0.175 -0.019 1 
0.46 0.262 0.002 1 
0.457 -0.007 -0.017 1 
0.46 0.274 0.002 1 
0.48 -0.328 0.002 1 
0.48 -0.318 0.002 1 
0.48 -0.308 0.002 1 
0.478 -0.286 0.003 1 
0.477 -0.275 0.003 1 
0.475 -0.225 0.004 1 
0.474 -0.215 0.004 1 
0.464 0.003 0.007 1 
0.46 0.283 0.004 1 
0.459 0.291 0.004 1 
0.458 0.303 0.004 1 
0.456 0.324 0.004 1 
0.355 0.104 -0.014 1 
0.462 0.053 -0.005 1 
0.431 0.294 -0.011 1 
0.402 -0.157 -0.019 1 
0.465 0.003 0.012 1 
0.459 -0.012 -0.009 1 
0.464 0.014 0.012 1 
0.463 0.024 0.013 1 
0.462 -0.025 -0.007 1 
0.463 0.032 0.013 1 
0.463 -0.046 -0.007 1 
0.464 -0.065 -0.008 1 
0.411 0.204 -0.013 1 
0.383 -0.146 -0.019 1 
0.464 -0.087 -0.008 1 
0.45 -0.166 -0.013 1 
0.464 -0.127 -0.008 1 
0.39 -0.096 -0.016 1 
0.46 -0.145 -0.01 1 
0.465 0.102 0.001 1 
0.384 0.191 -0.014 1 
0.46 -0.167 -0.01 1 
0.464 -0.186 -0.009 1 
0.464 -0.206 -0.009 1 
0.464 -0.226 -0.012 1 
0.464 -0.246 -0.01 1 
0.464 -0.286 -0.011 1 
0.444 0.251 -0.007 1 
0.459 -0.307 -0.013 1 
0.381 -0.206 -0.022 1 
0.404 -0.093 -0.016 1 
0.397 -0.105 -0.016 1 
0.413 0.112 -0.013 1 
0.43 -0.135 -0.015 1 
0.372 0.113 -0.015 1 
0.389 0.172 -0.015 1 
0.433 0.104 -0.011 1 
0.442 -0.268 -0.016 1 
0.44 0.094 -0.011 1 
0.439 -0.317 -0.02 1 
0.403 0.134 -0.013 1 
0.453 0.143 -0.007 1 
0.4 0.202 -0.012 1 
0.455 -0.296 -0.017 1 
0.411 0.002 0.012 1 
0.45 -0.135 -0.013 1 
0.444 -0.247 -0.016 1 
0.457 0.142 -0.005 1 
0.474 -0.254 -0.003 1 
0.461 0.244 0.002 1 
0.454 -0.017 -0.011 1 
0.361 0.112 -0.013 1 
0.386 0.02 0.014 1 
0.429 -0.125 -0.015 1 
0.373 0.073 -0.015 1 
0.364 -0.065 -0.016 1 
0.44 0.152 -0.009 1 
0.444 -0.176 -0.015 1 
0.348 0.163 -0.014 1 
0.354 0.034 -0.013 1 
0.381 -0.036 -0.015 1 
0.412 -0.036 -0.014 1 
0.364 0.143 -0.015 1 
0.382 0.096 -0.014 1 
0.361 0.107 -0.015 1 
0.391 0.034 -0.012 1 
0.354 0.053 -0.013 1 
0.393 -0.198 -0.022 1 
0.443 -0.046 -0.013 1 
0.393 -0.136 -0.018 1 
0.434 0.114 -0.012 1 
0.464 -0.325 -0.015 1 
0.417 -0.176 -0.017 1 
0.422 0.044 -0.013 1 
0.421 0.23 -0.012 1 
0.43 0.203 -0.008 1 
0.352 -0.001 -0.005 1 
0.371 -0.065 -0.015 1 
0.356 0.204 -0.015 1 
0.443 0.052 -0.011 1 
0.446 -0.275 -0.015 1 
0.368 0.064 -0.015 1 
0.441 -0.209 -0.015 1 
0.422 -0.04 -0.015 1 
0.443 -0.2 -0.015 1 
0.384 0.085 -0.015 1 
0.452 0.153 -0.007 1 
0.472 -0.145 0.003 1 
0.351 0.203 -0.016 1 
0.4 0.141 -0.015 1 
0.413 0.263 -0.016 1 
0.401 0.243 -0.016 1 
0.461 -0.156 -0.011 1 
0.4 0.212 -0.015 1 
0.386 -0.003 -0.01 1 
0.391 0.233 -0.015 1 
0.452 0.184 -0.005 1 
0.374 0.164 -0.015 1 
0.453 0.104 -0.009 1 
0.443 0.273 -0.008 1 
0.46 0.232 0.003 1 
0.444 0.236 -0.007 1 
0.364 0.025 -0.011 1 
0.482 -0.007 -0.001 1 
0.457 0.332 0.003 1 
0.354 0.085 -0.014 1 
0.431 -0.089 -0.015 1 
0.384 -0.106 -0.018 1 
0.434 0.124 -0.012 1 
0.373 0.203 -0.017 1 
0.408 0.234 -0.015 1 
0.4 -0.051 -0.015 1 
0.388 0.124 -0.015 1 
0.464 0.003 0.004 1 
0.372 0.063 -0.014 1 
0.402 0.109 -0.014 1 
0.409 0.222 -0.013 1 
0.442 0.062 -0.011 1 
0.43 -0.167 -0.016 1 
0.415 -0.251 -0.026 1 
0.472 -0.012 -0.007 1 
0.465 0.011 0.012 1 
0.434 -0.266 -0.022 1 
0.454 -0.126 -0.011 1 
0.383 0.203 -0.016 1 
0.402 0.118 -0.015 1 
0.427 -0.257 -0.025 1 
0.471 -0.296 -0.01 1 
0.354 0.14 -0.015 1 
0.381 0.193 -0.015 1 
0.422 -0.045 -0.015 1 
0.42 -0.166 -0.018 1 
0.468 -0.126 -0.006 1 
0.462 -0.017 -0.007 1 
0.371 0.093 -0.014 1 
0.433 0.164 -0.01 1 
0.417 0.174 -0.011 1 
0.364 0.163 -0.016 1 
0.412 0.173 -0.012 1 
0.342 0.002 -0.005 1 
0.422 -0.266 -0.026 1 
0.463 -0.338 -0.015 1 
0.424 -0.137 -0.016 1 
0.471 -0.205 -0.005 1 
0.391 -0.237 -0.027 1 
0.362 0.174 -0.016 1 
0.462 -0.269 -0.013 1 
0.48 -0.007 -0.017 1 
0.48 -0.298 0.002 1 
0.454 -0.027 -0.011 1 
0.389 0.097 -0.014 1 
0.421 0.263 -0.013 1 
0.424 0.143 -0.012 1 
0.442 -0.286 -0.019 1 
0.434 -0.296 -0.023 1 
0.453 -0.035 -0.01 1 
0.46 0.253 0.002 1 
0.394 -0.042 -0.015 1 
0.45 -0.288 -0.013 1 
0.441 -0.016 -0.013 1 
0.461 -0.105 -0.01 1 
0.363 -0.096 -0.016 1 
0.44 0.303 -0.008 1 
0.448 -0.077 -0.012 1 
0.413 -0.243 -0.025 1 
0.413 -0.157 -0.018 1 
0.384 0.134 -0.016 1 
0.368 -0.055 -0.014 1 
0.461 0.164 0.004 1 
0.437 -0.123 -0.015 1 
0.433 0.263 -0.01 1 
0.454 -0.055 -0.011 1 
0.406 0.173 -0.015 1 
0.417 -0.186 -0.017 1 
0.459 0.314 0.004 1 
0.442 -0.126 -0.013 1 
0.438 0.113 -0.01 1 
0.429 0.028 -0.005 1 
0.403 -0.271 -0.026 1 
0.389 0.054 -0.014 1 
0.402 0.166 -0.014 1 
0.45 -0.175 -0.013 1 
0.433 -0.056 -0.013 1 
0.463 0.134 0.004 1 
0.381 -0.221 -0.025 1 
0.434 -0.025 -0.013 1 
0.374 -0.159 -0.02 1 
0.444 -0.307 -0.018 1 
0.381 0.223 -0.016 1 
0.47 -0.187 -0.005 1 
0.446 -0.272 -0.015 1 
0.452 0.273 -0.004 1 
0.452 0.285 -0.004 1 
0.371 0.173 -0.015 1 
0.481 -0.004 -0.006 1 
0.401 0.083 -0.014 1 
0.463 0.083 0.004 1 
0.462 0.142 0.004 1 
0.385 0.087 -0.015 1 
0.354 0.084 -0.014 1 
0.472 -0.265 -0.006 1 
0.468 -0.135 -0.006 1 
0.391 -0.185 -0.021 1 
0.357 0.136 -0.014 1 
0.462 0.204 0.003 1 
0.473 -0.257 -0.006 1 
0.393 -0.085 -0.017 1 
0.46 0.082 -0.005 1 
0.401 0.044 -0.013 1 
0.381 0.064 -0.013 1 
0.422 -0.117 -0.015 1 
0.386 0.183 -0.014 1 
0.464 -0.095 -0.008 1 
0.383 0.213 -0.016 1 
0.423 0.03 -0.011 1 
0.424 -0.277 -0.025 1 
0.439 0.224 -0.008 1 
0.373 0.194 -0.017 1 
0.363 0.117 -0.014 1 
0.442 -0.225 -0.015 1 
0.411 0.232 -0.014 1 
0.457 0.034 -0.006 1 
0.454 -0.328 -0.018 1 
0.382 0.174 -0.015 1 
0.382 0.094 -0.014 1 
0.455 0.161 -0.005 1 
0.463 -0.276 -0.013 1 
0.407 -0.033 -0.015 1 
0.429 -0.036 -0.014 1 
0.417 -0.055 -0.015 1 
0.461 0.212 0.003 1 
0.433 0.244 -0.01 1 
0.468 -0.096 -0.006 1 
0.45 0.123 -0.008 1 
0.434 -0.023 -0.013 1 
0.467 -0.077 -0.006 1 
0.411 -0.016 -0.014 1 
0.452 -0.248 -0.013 1 
0.444 0.233 -0.007 1 
0.434 -0.165 -0.014 1 
0.362 0.214 -0.016 1 
0.371 -0.165 -0.019 1 
0.383 -0.136 -0.019 1 
0.429 -0.115 -0.015 1 
0.469 -0.015 -0.006 1 
0.432 -0.097 -0.015 1 
0.46 0.103 -0.005 1 
0.365 0.083 -0.014 1 
0.372 0.071 -0.014 1 
0.454 0.163 -0.005 1 
0.372 0.149 -0.014 1 
0.476 -0.208 0.001 1 
0.403 0.092 -0.014 1 
0.341 0.014 0.019 2 
0.34 0.017 0.027 2 
0.342 0.003 0.027 2 
0.342 0.003 0.019 2 
0.341 0.016 0.027 2 
0.341 0.014 0.027 2 
0.442 0.09 0.082 2 
0.402 -0.047 0.077 2 
0.38 0.006 0.039 2 
0.429 0.014 0.035 2 
0.383 0.062 0.078 2 
0.427 0.082 0.081 2 
0.425 -0.05 0.078 2 
0.39 -0.001 0.059 2 
0.376 -0.027 0.083 2 
0.421 0.016 0.035 2 
0.43 0.031 0.061 2 
0.424 0.026 0.062 2 
0.497 0.093 0.075 2 
0.374 -0.051 0.077 2 
0.363 0.028 0.07 2 
0.363 0.007 0.042 2 
0.423 0.035 0.065 2 
0.376 0.023 0.067 2 
0.364 -0.004 0.072 2 
0.394 -0.048 0.077 2 
0.373 0.033 0.076 2 
0.394 0.072 0.079 2 
0.4 0.072 0.078 2 
0.395 0.064 0.08 2 
0.378 0.053 0.079 2 
0.36 0.047 0.079 2 
0.372 0.033 0.078 2 
0.381 0.025 0.066 2 
0.388 0.064 0.08 2 
0.388 -0.038 0.081 2 
0.409 0.074 0.08 2 
0.391 0.067 0.08 2 
0.511 0.093 0.062 2 
0.433 0.046 0.075 2 
0.381 -0.008 0.076 2 
0.39 -0.055 0.08 2 
0.506 -0.093 0.066 2 
0.396 0.064 0.078 2 
0.388 0.06 0.078 2 
0.415 0.063 0.078 2 
0.383 0.033 0.076 2 
0.411 -0.038 0.08 2 
0.394 -0.037 0.079 2 
0.376 -0.044 0.078 2 
0.378 -0.046 0.078 2 
0.422 0.039 0.071 2 
0.361 -0.006 0.085 2 
0.376 0.045 0.077 2 
0.506 -0.044 0.094 2 
0.521 -0.049 0.086 2 
0.378 0.059 0.082 2 
0.374 0.056 0.081 2 
0.372 0.054 0.081 2 
0.392 -0.033 0.084 2 
0.364 -0.025 0.084 2 
0.562 -0.026 0.072 2 
0.554 -0.019 0.065 2 
0.56 -0.019 0.075 2 
0.558 -0.026 0.075 2 
0.565 -0.016 0.065 2 
0.551 -0.022 0.079 2 
0.551 -0.026 0.079 2 
0.562 -0.016 0.072 2 
0.545 -0.035 0.067 2 
0.561 -0.111 0.061 2 
0.561 -0.104 0.061 2 
0.572 -0.111 0.065 2 
0.569 -0.12 0.075 2 
0.564 -0.116 0.065 2 
0.542 -0.112 0.068 2 
0.561 -0.108 0.057 2 
0.546 -0.076 0.071 2 
0.552 -0.071 0.084 2 
0.558 -0.065 0.085 2 
0.55 -0.06 0.088 2 
0.557 -0.075 0.075 2 
0.46 0.233 0.142 3 
0.462 0.223 0.142 3 
0.475 -0.11 0.144 3 
0.461 0.214 0.142 3 
0.464 0.192 0.142 3 
0.464 0.133 0.141 3 
0.461 0.243 0.142 3 
0.464 0.111 0.141 3 
0.465 0.062 0.141 3 
0.296 0.001 0.094 3 
0.483 -0.288 0.144 3 
0.473 -0.206 0.013 3 
0.287 -0.004 0.091 3 
0.475 -0.043 0.143 3 
0.474 -0.045 0.143 3 
0.473 -0.056 0.143 3 
0.472 -0.067 0.143 3 
0.473 -0.075 0.143 3 
0.474 -0.087 0.144 3 
0.474 -0.106 0.144 3 
0.465 0.133 0.144 3 
0.483 -0.276 0.152 3 
0.465 0.098 0.133 3 
0.465 0.122 0.144 3 
0.465 0.103 0.144 3 
0.466 0.093 0.144 3 
0.466 0.084 0.144 3 
0.462 0.164 0.063 3 
0.466 0.074 0.144 3 
0.464 0.062 0.143 3 
0.464 0.054 0.143 3 
0.291 0.02 0.093 3 
0.481 -0.267 0.152 3 
0.338 0.005 0.059 3 
0.319 -0.013 0.062 3 
0.483 -0.285 0.153 3 
0.484 -0.296 0.153 3 
0.485 -0.307 0.154 3 
0.488 -0.345 0.156 3 
0.461 0.312 0.144 3 
0.479 -0.296 0.014 3 
0.461 0.292 0.144 3 
0.461 0.283 0.143 3 
0.462 0.274 0.144 3 
0.462 0.262 0.143 3 
0.463 0.194 0.133 3 
0.3 -0.005 0.092 3 
0.479 -0.247 0.142 3 
0.479 -0.256 0.142 3 
0.481 -0.277 0.143 3 
0.461 0.261 0.134 3 
0.461 0.249 0.134 3 
0.481 -0.309 0.082 3 
0.461 0.243 0.134 3 
0.462 0.252 0.123 3 
0.461 0.234 0.134 3 
0.461 0.213 0.134 3 
0.461 0.202 0.133 3 
0.479 -0.237 0.144 3 
0.473 -0.145 0.052 3 
0.463 0.183 0.133 3 
0.463 0.174 0.133 3 
0.463 0.163 0.133 3 
0.464 0.144 0.133 3 
0.464 0.133 0.133 3 
0.463 0.124 0.133 3 
0.469 -0.096 0.014 3 
0.464 0.114 0.133 3 
0.464 0.103 0.133 3 
0.488 -0.335 0.171 3 
0.464 0.122 0.138 3 
0.475 -0.127 0.144 3 
0.475 -0.135 0.144 3 
0.485 -0.294 0.151 3 
0.485 -0.297 0.151 3 
0.486 -0.315 0.152 3 
0.487 -0.326 0.152 3 
0.488 -0.335 0.153 3 
0.488 -0.345 0.153 3 
0.473 -0.087 0.132 3 
0.459 0.333 0.142 3 
0.461 0.322 0.142 3 
0.475 -0.115 0.144 3 
0.475 -0.147 0.142 3 
0.461 0.222 0.134 3 
0.476 -0.156 0.142 3 
0.476 -0.167 0.142 3 
0.475 -0.176 0.142 3 
0.476 -0.185 0.143 3 
0.478 -0.197 0.143 3 
0.474 -0.165 0.088 3 
0.478 -0.206 0.143 3 
0.479 -0.216 0.144 3 
0.479 -0.225 0.144 3 
0.465 0.142 0.152 3 
0.461 0.232 0.153 3 
0.462 0.223 0.153 3 
0.463 0.212 0.153 3 
0.476 -0.167 0.134 3 
0.461 0.274 0.062 3 
0.35 0 0.058 3 
0.463 0.192 0.153 3 
0.463 0.184 0.153 3 
0.464 0.172 0.153 3 
0.464 0.164 0.152 3 
0.464 0.153 0.152 3 
0.464 0.144 0.152 3 
0.461 0.243 0.154 3 
0.466 0.134 0.153 3 
0.466 0.123 0.152 3 
0.466 0.112 0.152 3 
0.466 0.104 0.152 3 
0.467 0.093 0.153 3 
0.48 -0.266 0.143 3 
0.467 0.082 0.152 3 
0.466 0.074 0.152 3 
0.465 0.054 0.152 3 
0.472 -0.056 0.154 3 
0.457 0.332 0.062 3 
0.473 -0.067 0.154 3 
0.479 -0.226 0.162 3 
0.481 -0.296 0.114 3 
0.465 0.176 0.156 3 
0.474 -0.115 0.124 3 
0.464 0.144 0.155 3 
0.465 0.063 0.154 3 
0.464 0.057 0.154 3 
0.467 -0.047 0.034 3 
0.464 0.054 0.154 3 
0.28 0.017 0.094 3 
0.279 0.014 0.094 3 
0.278 0.004 0.094 3 
0.48 -0.217 0.162 3 
0.474 -0.076 0.155 3 
0.481 -0.236 0.162 3 
0.48 -0.245 0.162 3 
0.481 -0.255 0.163 3 
0.482 -0.265 0.164 3 
0.483 -0.276 0.164 3 
0.462 0.303 0.144 3 
0.488 -0.346 0.169 3 
0.462 0.262 0.154 3 
0.461 0.153 0.033 3 
0.461 0.252 0.154 3 
0.475 -0.146 0.122 3 
0.477 -0.186 0.152 3 
0.476 -0.136 0.153 3 
0.476 -0.147 0.153 3 
0.476 -0.156 0.154 3 
0.476 -0.165 0.154 3 
0.477 -0.177 0.154 3 
0.487 -0.327 0.161 3 
0.488 -0.339 0.162 3 
0.463 0.053 0.052 3 
0.465 0.147 0.147 3 
0.464 0.065 0.146 3 
0.474 -0.092 0.149 3 
0.474 -0.095 0.149 3 
0.477 -0.125 0.153 3 
0.478 -0.195 0.152 3 
0.463 0.174 0.114 3 
0.479 -0.207 0.152 3 
0.479 -0.225 0.153 3 
0.479 -0.235 0.153 3 
0.48 -0.257 0.154 3 
0.464 0.181 0.144 3 
0.464 0.172 0.144 3 
0.463 0.163 0.144 3 
0.464 0.152 0.144 3 
0.465 0.15 0.144 3 
0.464 0.152 0.133 3 
0.483 -0.286 0.162 3 
0.483 -0.296 0.162 3 
0.484 -0.307 0.163 3 
0.486 -0.316 0.164 3 
0.459 0.337 0.154 3 
0.477 -0.185 0.123 3 
0.46 0.331 0.154 3 
0.295 -0.001 0.081 3 
0.46 0.234 0.062 3 
0.463 0.324 0.154 3 
0.463 0.314 0.154 3 
0.463 0.304 0.153 3 
0.464 0.141 0.144 3 
0.461 0.293 0.152 3 
0.475 -0.157 0.072 3 
0.461 0.283 0.152 3 
0.464 0.065 0.135 3 
0.462 0.272 0.152 3 
0.474 -0.076 0.152 3 
0.475 -0.084 0.152 3 
0.475 -0.087 0.152 3 
0.475 -0.096 0.152 3 
0.476 -0.107 0.153 3 
0.476 -0.116 0.153 3 
0.463 0.194 0.114 3 
0.479 -0.256 0.122 3 
0.478 -0.267 0.122 3 
0.478 -0.258 0.044 3 
0.48 -0.285 0.122 3 
0.482 -0.297 0.123 3 
0.484 -0.305 0.124 3 
0.485 -0.317 0.124 3 
0.46 0.239 0.114 3 
0.46 0.233 0.114 3 
0.46 0.224 0.114 3 
0.462 0.213 0.114 3 
0.462 0.204 0.114 3 
0.474 -0.146 0.119 3 
0.463 0.163 0.114 3 
0.462 0.154 0.114 3 
0.462 0.143 0.114 3 
0.463 0.132 0.114 3 
0.464 0.124 0.114 3 
0.464 0.113 0.114 3 
0.464 0.094 0.052 3 
0.464 0.103 0.114 3 
0.464 0.094 0.114 3 
0.464 0.084 0.114 3 
0.464 0.073 0.114 3 
0.475 -0.141 0.122 3 
0.295 0.02 0.085 3 
0.291 0.017 0.084 3 
0.47 -0.039 0.123 3 
0.471 -0.045 0.123 3 
0.471 -0.056 0.123 3 
0.473 -0.075 0.124 3 
0.473 -0.086 0.124 3 
0.473 -0.106 0.124 3 
0.474 -0.126 0.124 3 
0.487 -0.347 0.131 3 
0.296 0.02 0.084 3 
0.474 -0.135 0.122 3 
0.463 0.054 0.113 3 
0.475 -0.155 0.122 3 
0.475 -0.167 0.122 3 
0.476 -0.175 0.122 3 
0.477 -0.205 0.103 3 
0.478 -0.197 0.123 3 
0.478 -0.206 0.123 3 
0.478 -0.215 0.124 3 
0.462 0.112 0.012 3 
0.479 -0.228 0.124 3 
0.479 -0.237 0.124 3 
0.479 -0.246 0.124 3 
0.477 -0.196 0.112 3 
0.473 -0.145 0.113 3 
0.474 -0.157 0.114 3 
0.475 -0.161 0.114 3 
0.476 -0.166 0.114 3 
0.476 -0.175 0.114 3 
0.323 0.024 0.084 3 
0.476 -0.187 0.114 3 
0.484 -0.315 0.118 3 
0.465 0.117 0.109 3 
0.459 0.292 0.082 3 
0.465 0.114 0.109 3 
0.473 -0.137 0.113 3 
0.461 0.224 0.103 3 
0.477 -0.205 0.112 3 
0.478 -0.215 0.112 3 
0.478 -0.227 0.112 3 
0.478 -0.236 0.112 3 
0.479 -0.256 0.113 3 
0.478 -0.267 0.113 3 
0.464 0.073 0.092 3 
0.479 -0.278 0.113 3 
0.48 -0.285 0.114 3 
0.466 0.349 0.195 3 
0.461 0.254 0.112 3 
0.485 -0.327 0.121 3 
0.486 -0.335 0.122 3 
0.468 -0.077 0.012 3 
0.486 -0.346 0.122 3 
0.462 0.142 0.063 3 
0.457 0.333 0.113 3 
0.461 0.324 0.113 3 
0.461 0.314 0.113 3 
0.46 0.303 0.113 3 
0.461 0.282 0.113 3 
0.477 -0.257 0.052 3 
0.461 0.263 0.112 3 
0.465 0.054 0.122 3 
0.47 -0.039 0.112 3 
0.47 -0.045 0.112 3 
0.471 -0.056 0.112 3 
0.472 -0.067 0.112 3 
0.472 -0.075 0.113 3 
0.473 -0.086 0.113 3 
0.469 -0.066 0.033 3 
0.472 -0.097 0.113 3 
0.473 -0.106 0.113 3 
0.474 -0.118 0.113 3 
0.473 -0.126 0.113 3 
0.476 -0.176 0.134 3 
0.461 0.301 0.133 3 
0.462 0.293 0.133 3 
0.463 0.284 0.133 3 
0.472 -0.075 0.132 3 
0.473 -0.095 0.132 3 
0.475 -0.115 0.133 3 
0.47 -0.086 0.044 3 
0.474 -0.118 0.133 3 
0.475 -0.127 0.133 3 
0.475 -0.135 0.133 3 
0.475 -0.146 0.133 3 
0.475 -0.155 0.133 3 
0.46 0.313 0.133 3 
0.476 -0.185 0.134 3 
0.458 0.335 0.13 3 
0.464 0.092 0.127 3 
0.464 0.084 0.127 3 
0.464 0.073 0.127 3 
0.465 0.054 0.127 3 
0.478 -0.197 0.132 3 
0.478 -0.206 0.132 3 
0.476 -0.207 0.052 3 
0.478 -0.215 0.132 3 
0.465 0.078 0.06 3 
0.474 -0.115 0.135 3 
0.465 0.084 0.133 3 
0.465 0.073 0.133 3 
0.465 0.062 0.133 3 
0.464 0.059 0.132 3 
0.464 0.054 0.132 3 
0.285 0.014 0.087 3 
0.316 -0.006 0.095 3 
0.472 -0.042 0.134 3 
0.472 -0.05 0.134 3 
0.472 -0.056 0.134 3 
0.471 -0.067 0.134 3 
0.479 -0.225 0.133 3 
0.484 -0.296 0.141 3 
0.462 0.204 0.092 3 
0.485 -0.304 0.142 3 
0.319 -0.011 0.067 3 
0.485 -0.307 0.142 3 
0.486 -0.315 0.142 3 
0.488 -0.327 0.143 3 
0.489 -0.346 0.144 3 
0.457 0.334 0.133 3 
0.461 0.324 0.133 3 
0.472 -0.106 0.003 3 
0.463 0.194 0.122 3 
0.458 0.331 0.124 3 
0.46 0.316 0.124 3 
0.46 0.313 0.124 3 
0.46 0.303 0.124 3 
0.461 0.292 0.124 3 
0.462 0.283 0.124 3 
0.461 0.273 0.124 3 
0.461 0.264 0.123 3 
0.461 0.243 0.123 3 
0.461 0.234 0.123 3 
0.46 0.224 0.123 3 
0.462 0.202 0.122 3 
0.487 -0.336 0.134 3 
0.463 0.182 0.122 3 
0.463 0.174 0.122 3 
0.463 0.163 0.122 3 
0.463 0.154 0.122 3 
0.461 0.183 0.052 3 
0.463 0.143 0.122 3 
0.468 -0.066 0.023 3 
0.464 0.133 0.122 3 
0.464 0.114 0.122 3 
0.464 0.103 0.122 3 
0.465 0.057 0.122 3 
0.464 0.051 0.124 3 
0.479 -0.237 0.133 3 
0.48 -0.247 0.133 3 
0.479 -0.256 0.133 3 
0.479 -0.265 0.133 3 
0.484 -0.345 0.061 3 
0.474 -0.165 0.044 3 
0.48 -0.276 0.134 3 
0.484 -0.306 0.136 3 
0.463 0.121 0.124 3 
0.464 0.092 0.124 3 
0.464 0.084 0.124 3 
0.464 0.062 0.124 3 
0.465 0.092 0.133 3 
0.286 0.011 0.084 3 
0.286 0.004 0.084 3 
0.474 -0.126 0.127 3 
0.481 -0.315 0.034 3 
0.474 -0.143 0.127 3 
0.482 -0.287 0.132 3 
0.483 -0.295 0.132 3 
0.484 -0.306 0.133 3 
0.486 -0.318 0.133 3 
0.487 -0.326 0.134 3 
0.472 0.092 0.182 3 
0.467 0.184 0.182 3 
0.466 0.172 0.181 3 
0.467 0.164 0.182 3 
0.468 0.153 0.182 3 
0.462 0.203 0.142 3 
0.469 0.144 0.182 3 
0.47 0.134 0.182 3 
0.479 -0.275 0.122 3 
0.47 0.122 0.182 3 
0.473 -0.106 0.132 3 
0.47 0.114 0.182 3 
0.471 0.103 0.182 3 
0.467 0.193 0.182 3 
0.467 -0.036 0.004 3 
0.472 0.084 0.182 3 
0.471 0.072 0.181 3 
0.471 0.064 0.181 3 
0.479 -0.057 0.184 3 
0.484 -0.197 0.189 3 
0.484 -0.206 0.19 3 
0.484 -0.221 0.19 3 
0.484 -0.228 0.19 3 
0.484 -0.237 0.191 3 
0.485 -0.25 0.191 3 
0.487 -0.258 0.192 3 
0.484 -0.247 0.194 3 
0.484 -0.167 0.191 3 
0.468 -0.066 0.074 3 
0.485 -0.17 0.192 3 
0.484 -0.176 0.192 3 
0.484 -0.185 0.192 3 
0.485 -0.188 0.192 3 
0.486 -0.195 0.193 3 
0.485 -0.207 0.193 3 
0.485 -0.216 0.193 3 
0.486 -0.226 0.194 3 
0.308 0.022 0.083 3 
0.485 -0.235 0.194 3 
0.487 -0.267 0.193 3 
0.461 0.262 0.062 3 
0.492 -0.338 0.201 3 
0.466 0.264 0.184 3 
0.465 0.251 0.183 3 
0.466 0.243 0.184 3 
0.485 -0.311 0.163 3 
0.467 0.234 0.184 3 
0.467 0.222 0.183 3 
0.467 0.213 0.183 3 
0.461 0.213 0.123 3 
0.467 0.204 0.183 3 
0.464 0.25 0.177 3 
0.482 -0.136 0.184 3 
0.461 0.273 0.132 3 
0.482 -0.145 0.184 3 
0.481 -0.156 0.184 3 
0.48 -0.356 0.013 3 
0.481 -0.165 0.184 3 
0.488 -0.295 0.191 3 
0.489 -0.306 0.192 3 
0.475 -0.189 0.072 3 
0.489 -0.316 0.193 3 
0.491 -0.329 0.194 3 
0.467 0.334 0.182 3 
0.482 -0.127 0.184 3 
0.472 -0.067 0.123 3 
0.314 -0.011 0.061 3 
0.464 0.211 0.176 3 
0.275 -0.001 0.1 3 
0.481 -0.177 0.182 3 
0.482 -0.186 0.182 3 
0.483 -0.196 0.183 3 
0.484 -0.206 0.184 3 
0.464 0.073 0.124 3 
0.484 -0.215 0.184 3 
0.474 -0.177 0.072 3 
0.466 0.273 0.182 3 
0.486 -0.276 0.193 3 
0.488 -0.285 0.194 3 
0.464 0.338 0.184 3 
0.466 0.316 0.184 3 
0.451 -0.047 0.063 3 
0.464 0.31 0.183 3 
0.465 0.308 0.183 3 
0.46 0.293 0.093 3 
0.464 0.3 0.182 3 
0.465 0.295 0.182 3 
0.465 0.292 0.182 3 
0.466 0.283 0.182 3 
0.485 -0.158 0.192 3 
0.28 -0.006 0.103 3 
0.478 -0.066 0.181 3 
0.46 0.034 0.047 3 
0.478 -0.077 0.181 3 
0.476 -0.207 0.072 3 
0.48 -0.086 0.182 3 
0.48 -0.095 0.182 3 
0.462 0.204 0.103 3 
0.48 -0.106 0.183 3 
0.48 -0.115 0.183 3 
0.474 0.093 0.189 3 
0.469 0.154 0.188 3 
0.46 0.284 0.093 3 
0.47 0.142 0.188 3 
0.47 0.134 0.188 3 
0.464 0.062 0.114 3 
0.471 0.123 0.188 3 
0.473 0.073 0.188 3 
0.472 0.112 0.188 3 
0.465 0.278 0.173 3 
0.473 0.104 0.188 3 
0.356 0.049 0.068 3 
0.474 0.084 0.188 3 
0.472 0.064 0.187 3 
0.287 0.024 0.109 3 
0.275 0.021 0.104 3 
0.271 0.019 0.102 3 
0.268 0.014 0.101 3 
0.466 -0.015 0.023 3 
0.269 0.004 0.101 3 
0.272 -0.005 0.102 3 
0.28 -0.006 0.106 3 
0.48 -0.058 0.191 3 
0.465 0.251 0.189 3 
0.463 0.143 0.084 3 
0.465 0.341 0.194 3 
0.467 0.339 0.195 3 
0.468 0.333 0.195 3 
0.469 0.323 0.194 3 
0.468 0.312 0.193 3 
0.467 0.301 0.192 3 
0.463 0.182 0.114 3 
0.468 0.292 0.192 3 
0.467 0.281 0.191 3 
0.466 0.271 0.19 3 
0.466 0.264 0.19 3 
0.48 -0.066 0.191 3 
0.466 0.243 0.189 3 
0.468 0.232 0.19 3 
0.468 0.223 0.189 3 
0.473 -0.042 0.14 3 
0.467 0.213 0.189 3 
0.479 -0.296 0.023 3 
0.469 0.203 0.189 3 
0.469 0.194 0.189 3 
0.469 0.182 0.189 3 
0.469 0.174 0.188 3 
0.469 0.162 0.188 3 
0.493 -0.335 0.205 3 
0.486 -0.236 0.197 3 
0.487 -0.246 0.198 3 
0.455 0.326 0.012 3 
0.489 -0.256 0.199 3 
0.488 -0.265 0.199 3 
0.488 -0.278 0.2 3 
0.49 -0.287 0.201 3 
0.491 -0.295 0.202 3 
0.473 -0.176 0.052 3 
0.491 -0.305 0.202 3 
0.491 -0.315 0.203 3 
0.492 -0.327 0.204 3 
0.478 -0.245 0.004 3 
0.464 0.346 0.191 3 
0.464 0.343 0.191 3 
0.473 -0.095 0.124 3 
0.479 -0.287 0.093 3 
0.468 0.332 0.192 3 
0.474 -0.148 0.094 3 
0.295 0.026 0.111 3 
0.484 -0.116 0.19 3 
0.483 -0.145 0.19 3 
0.484 -0.155 0.191 3 
0.465 0.335 0.182 3 
0.484 -0.315 0.103 3 
0.47 -0.127 0.014 3 
0.483 -0.075 0.192 3 
0.472 -0.045 0.154 3 
0.483 -0.087 0.192 3 
0.483 -0.096 0.192 3 
0.484 -0.108 0.193 3 
0.485 -0.117 0.194 3 
0.484 -0.125 0.193 3 
0.485 -0.128 0.194 3 
0.485 -0.137 0.194 3 
0.484 -0.14 0.194 3 
0.464 0.094 0.103 3 
0.465 0.054 0.004 3 
0.485 -0.146 0.194 3 
0.486 -0.156 0.195 3 
0.475 -0.198 0.033 3 
0.487 -0.165 0.196 3 
0.485 -0.176 0.195 3 
0.485 -0.185 0.195 3 
0.486 -0.195 0.196 3 
0.47 -0.077 0.052 3 
0.485 -0.207 0.196 3 
0.486 -0.217 0.197 3 
0.486 -0.226 0.197 3 
0.464 0.06 0.162 3 
0.465 0.153 0.164 3 
0.485 -0.313 0.133 3 
0.466 0.143 0.164 3 
0.467 0.132 0.164 3 
0.467 0.124 0.164 3 
0.468 0.113 0.164 3 
0.479 -0.316 0.014 3 
0.468 0.104 0.164 3 
0.467 0.093 0.164 3 
0.468 0.082 0.164 3 
0.468 0.074 0.164 3 
0.466 0.063 0.163 3 
0.47 -0.036 0.104 3 
0.285 -0.007 0.099 3 
0.461 0.172 0.033 3 
0.483 -0.235 0.172 3 
0.483 -0.248 0.172 3 
0.483 -0.257 0.173 3 
0.483 -0.267 0.173 3 
0.464 0.102 0.084 3 
0.485 -0.278 0.174 3 
0.484 -0.281 0.174 3 
0.462 0.294 0.164 3 
0.463 0.282 0.164 3 
0.489 -0.337 0.181 3 
0.471 -0.097 0.052 3 
0.479 -0.175 0.172 3 
0.48 -0.185 0.173 3 
0.469 -0.093 0.014 3 
0.481 -0.197 0.173 3 
0.482 -0.207 0.174 3 
0.481 -0.216 0.174 3 
0.479 -0.216 0.153 3 
0.481 -0.225 0.174 3 
0.464 0.062 0.092 3 
0.476 -0.238 0.012 3 
0.484 -0.268 0.176 3 
0.464 0.274 0.164 3 
0.465 0.334 0.17 3 
0.464 0.234 0.165 3 
0.463 0.21 0.164 3 
0.465 0.084 0.108 3 
0.48 -0.317 0.043 3 
0.464 0.193 0.164 3 
0.464 0.182 0.164 3 
0.464 0.173 0.164 3 
0.465 0.167 0.164 3 
0.464 0.164 0.163 3 
0.465 0.162 0.164 3 
0.474 -0.056 0.16 3 
0.488 -0.325 0.174 3 
0.46 0.339 0.163 3 
0.46 0.332 0.162 3 
0.461 0.272 0.104 3 
0.475 -0.195 0.052 3 
0.464 0.322 0.163 3 
0.464 0.312 0.163 3 
0.463 0.132 0.073 3 
0.464 0.302 0.162 3 
0.464 0.153 0.158 3 
0.475 -0.048 0.16 3 
0.486 -0.316 0.173 3 
0.474 -0.067 0.16 3 
0.46 0.293 0.113 3 
0.477 -0.125 0.162 3 
0.477 -0.136 0.162 3 
0.474 -0.145 0.083 3 
0.477 -0.145 0.162 3 
0.476 -0.156 0.162 3 
0.477 -0.165 0.163 3 
0.478 -0.175 0.163 3 
0.479 -0.187 0.164 3 
0.48 -0.197 0.164 3 
0.477 -0.085 0.164 3 
0.462 0.26 0.163 3 
0.462 0.254 0.163 3 
0.463 0.242 0.163 3 
0.463 0.233 0.162 3 
0.463 0.224 0.162 3 
0.474 -0.054 0.163 3 
0.475 -0.057 0.163 3 
0.475 -0.065 0.163 3 
0.476 -0.076 0.164 3 
0.472 -0.086 0.104 3 
0.46 0.234 0.043 3 
0.475 -0.228 0.024 3 
0.478 -0.166 0.172 3 
0.477 -0.096 0.164 3 
0.462 0.162 0.092 3 
0.477 -0.105 0.164 3 
0.465 0.114 0.144 3 
0.479 -0.246 0.113 3 
0.484 -0.287 0.171 3 
0.485 -0.291 0.172 3 
0.485 -0.295 0.172 3 
0.484 -0.297 0.172 3 
0.485 -0.305 0.172 3 
0.46 0.274 0.082 3 
0.463 0.204 0.153 3 
0.467 0.152 0.173 3 
0.467 0.143 0.172 3 
0.468 0.133 0.173 3 
0.48 -0.245 0.154 3 
0.468 0.124 0.173 3 
0.474 -0.095 0.144 3 
0.469 0.113 0.173 3 
0.469 0.102 0.173 3 
0.469 0.094 0.173 3 
0.47 0.083 0.173 3 
0.469 0.072 0.172 3 
0.468 0.063 0.172 3 
0.466 0.163 0.173 3 
0.312 -0.009 0.113 3 
0.477 -0.235 0.044 3 
0.478 -0.054 0.175 3 
0.484 -0.245 0.182 3 
0.484 -0.255 0.182 3 
0.485 -0.259 0.182 3 
0.485 -0.265 0.183 3 
0.485 -0.275 0.183 3 
0.486 -0.286 0.184 3 
0.465 0.054 0.047 3 
0.464 0.333 0.175 3 
0.465 0.235 0.174 3 
0.483 -0.227 0.184 3 
0.483 -0.236 0.184 3 
0.49 -0.335 0.191 3 
0.464 0.294 0.176 3 
0.476 -0.187 0.094 3 
0.464 0.284 0.176 3 
0.464 0.262 0.175 3 
0.477 -0.116 0.162 3 
0.463 0.258 0.174 3 
0.459 0.304 0.032 3 
0.464 0.25 0.174 3 
0.464 0.32 0.175 3 
0.466 0.227 0.174 3 
0.466 0.221 0.174 3 
0.465 0.212 0.174 3 
0.464 0.205 0.173 3 
0.465 0.203 0.173 3 
0.462 0.253 0.143 3 
0.465 0.194 0.173 3 
0.461 0.274 0.032 3 
0.465 0.183 0.173 3 
0.318 0.025 0.1 3 
0.465 0.174 0.173 3 
0.488 -0.318 0.183 3 
0.478 -0.057 0.173 3 
0.476 -0.065 0.172 3 
0.477 -0.077 0.172 3 
0.478 -0.085 0.173 3 
0.478 -0.097 0.173 3 
0.478 -0.105 0.173 3 
0.478 -0.117 0.173 3 
0.488 -0.338 0.144 3 
0.479 -0.126 0.174 3 
0.479 -0.146 0.174 3 
0.487 -0.297 0.182 3 
0.488 -0.308 0.183 3 
0.477 -0.054 0.172 3 
0.488 -0.325 0.183 3 
0.478 -0.296 0.064 3 
0.46 0.243 0.054 3 
0.461 0.34 0.172 3 
0.464 0.333 0.172 3 
0.464 0.323 0.172 3 
0.464 0.265 0.169 3 
0.464 0.182 0.167 3 
0.479 -0.137 0.171 3 
0.462 0.273 0.113 3 
0.478 -0.157 0.171 3 
0.464 0.243 0.171 3 
0.476 -0.235 0.024 3 
0.464 0.31 0.174 3 
0.474 -0.177 0.033 3 
0.464 0.303 0.174 3 
0.464 0.293 0.173 3 
0.464 0.284 0.173 3 
0.475 -0.216 0.033 3 
0.464 -0.025 0.012 3 
0.465 0.272 0.173 3 
0.483 -0.306 0.166 3 
0.459 0.336 0.142 3 
0.478 -0.236 0.104 3 
0.479 -0.214 0.164 3 
0.464 0.217 0.171 3 
0.464 0.202 0.17 3 
0.46 0.282 0.043 3 
0.464 0.188 0.17 3 
0.464 0.17 0.169 3 
0.285 0.023 0.101 3 
0.275 0.012 0.098 3 
0.303 -0.009 0.108 3 
0.463 0.204 0.164 3 
0.466 -0.047 0.004 3 
0.459 0.324 0.043 3 
0.342 0.011 0.053 3 
0.485 -0.343 0.049 3 
0.465 0.097 0.047 3 
0.465 0.064 0.047 3 
0.452 0.023 0.047 3 
0.46 0.013 0.047 3 
0.465 0.008 0.047 3 
0.464 0.003 0.047 3 
0.475 -0.015 0.047 3 
0.468 -0.017 0.047 3 
0.456 0.331 0.043 3 
0.353 0.013 0.052 3 
0.459 0.314 0.043 3 
0.458 0.303 0.043 3 
0.47 -0.066 0.044 3 
0.46 0.292 0.043 3 
0.46 0.273 0.043 3 
0.46 0.264 0.043 3 
0.468 -0.055 0.033 3 
0.459 0.222 0.022 3 
0.459 0.254 0.043 3 
0.477 -0.245 0.012 3 
0.46 0.243 0.043 3 
0.477 -0.276 0.052 3 
0.472 -0.125 0.052 3 
0.472 -0.136 0.052 3 
0.474 -0.157 0.052 3 
0.473 -0.165 0.052 3 
0.474 -0.185 0.052 3 
0.475 -0.192 0.052 3 
0.463 0.043 0.012 3 
0.476 -0.216 0.052 3 
0.476 -0.225 0.052 3 
0.477 -0.235 0.052 3 
0.478 -0.248 0.052 3 
0.477 -0.266 0.052 3 
0.461 0.223 0.043 3 
0.478 -0.286 0.052 3 
0.479 -0.296 0.052 3 
0.48 -0.307 0.052 3 
0.48 -0.317 0.052 3 
0.481 -0.325 0.052 3 
0.484 -0.338 0.052 3 
0.485 -0.35 0.052 3 
0.464 0.083 0.049 3 
0.448 0.036 0.05 3 
0.473 -0.176 0.044 3 
0.464 0.014 0.044 3 
0.465 0.003 0.044 3 
0.467 -0.007 0.044 3 
0.468 -0.015 0.044 3 
0.469 -0.026 0.044 3 
0.47 -0.075 0.044 3 
0.471 -0.097 0.044 3 
0.472 -0.105 0.044 3 
0.472 -0.116 0.044 3 
0.472 -0.136 0.044 3 
0.473 -0.145 0.044 3 
0.474 -0.157 0.044 3 
0.462 0.024 0.044 3 
0.474 -0.186 0.044 3 
0.475 -0.189 0.044 3 
0.475 -0.195 0.044 3 
0.475 -0.216 0.044 3 
0.476 -0.225 0.044 3 
0.478 -0.245 0.044 3 
0.477 -0.266 0.044 3 
0.478 -0.277 0.044 3 
0.48 -0.297 0.043 3 
0.48 -0.307 0.043 3 
0.484 -0.345 0.043 3 
0.464 0.102 0.044 3 
0.461 0.212 0.044 3 
0.461 0.203 0.044 3 
0.461 0.192 0.044 3 
0.461 0.183 0.044 3 
0.462 0.173 0.044 3 
0.462 0.164 0.044 3 
0.462 0.153 0.044 3 
0.463 0.143 0.044 3 
0.462 0.131 0.044 3 
0.463 0.124 0.044 3 
0.463 0.113 0.044 3 
0.471 -0.116 0.052 3 
0.464 0.094 0.044 3 
0.465 0.089 0.044 3 
0.464 0.083 0.044 3 
0.465 0.073 0.044 3 
0.464 0.07 0.044 3 
0.469 -0.055 0.044 3 
0.465 0.064 0.044 3 
0.464 0.056 0.044 3 
0.464 0.054 0.044 3 
0.464 0.043 0.044 3 
0.462 0.032 0.044 3 
0.46 0.273 0.054 3 
0.481 -0.308 0.064 3 
0.481 -0.318 0.064 3 
0.482 -0.329 0.064 3 
0.484 -0.338 0.064 3 
0.485 -0.346 0.064 3 
0.467 0.003 0.023 3 
0.459 0.114 0.06 3 
0.46 0.104 0.06 3 
0.463 0.075 0.06 3 
0.463 0.072 0.06 3 
0.46 0.053 0.06 3 
0.478 -0.286 0.064 3 
0.467 -0.033 0.06 3 
0.466 -0.036 0.06 3 
0.465 -0.047 0.06 3 
0.462 -0.057 0.06 3 
0.458 -0.066 0.06 3 
0.452 -0.068 0.06 3 
0.474 -0.145 0.061 3 
0.474 -0.157 0.061 3 
0.477 -0.257 0.004 3 
0.462 0.093 0.057 3 
0.465 0.07 0.057 3 
0.474 -0.177 0.064 3 
0.473 -0.097 0.063 3 
0.472 -0.106 0.063 3 
0.472 -0.116 0.063 3 
0.484 -0.345 0.052 3 
0.296 0.014 0.078 3 
0.474 -0.137 0.063 3 
0.475 -0.146 0.063 3 
0.475 -0.157 0.063 3 
0.475 -0.166 0.064 3 
0.475 -0.216 0.007 3 
0.474 -0.168 0.063 3 
0.461 0.212 0.022 3 
0.475 -0.186 0.064 3 
0.467 -0.015 0.034 3 
0.475 -0.195 0.064 3 
0.476 -0.207 0.064 3 
0.476 -0.216 0.064 3 
0.477 -0.235 0.064 3 
0.477 -0.247 0.064 3 
0.477 -0.257 0.064 3 
0.476 -0.265 0.064 3 
0.476 -0.275 0.064 3 
0.462 0.153 0.052 3 
0.462 0.142 0.052 3 
0.463 0.132 0.052 3 
0.463 0.124 0.052 3 
0.461 0.112 0.052 3 
0.461 0.104 0.052 3 
0.465 0.086 0.052 3 
0.465 0.073 0.052 3 
0.464 0.067 0.052 3 
0.457 0.042 0.052 3 
0.462 0.164 0.052 3 
0.374 0.006 0.054 3 
0.372 0.004 0.054 3 
0.378 0 0.054 3 
0.468 -0.028 0.052 3 
0.459 0.282 0.013 3 
0.467 -0.036 0.052 3 
0.468 -0.047 0.052 3 
0.468 -0.055 0.052 3 
0.468 -0.066 0.052 3 
0.47 -0.086 0.052 3 
0.472 -0.105 0.052 3 
0.46 0.293 0.054 3 
0.349 0.018 0.057 3 
0.466 -0.055 0.058 3 
0.466 -0.066 0.058 3 
0.461 0.164 0.033 3 
0.47 -0.077 0.058 3 
0.472 -0.086 0.058 3 
0.474 -0.185 0.058 3 
0.459 0.324 0.054 3 
0.459 0.311 0.054 3 
0.459 0.304 0.054 3 
0.465 0.054 0.042 3 
0.46 0.282 0.054 3 
0.46 0.264 0.054 3 
0.46 0.252 0.054 3 
0.46 0.234 0.054 3 
0.46 0.223 0.054 3 
0.461 0.212 0.054 3 
0.461 0.192 0.054 3 
0.349 0.005 0.056 3 
0.371 -0.003 0.056 3 
0.485 -0.343 0.055 3 
0.462 0.173 0.052 3 
0.48 -0.328 0.014 3 
0.472 -0.128 0.022 3 
0.472 -0.136 0.022 3 
0.473 -0.145 0.022 3 
0.473 -0.156 0.022 3 
0.473 -0.165 0.022 3 
0.473 -0.176 0.022 3 
0.464 0.024 0.02 3 
0.454 0.329 0.015 3 
0.474 -0.227 0.016 3 
0.479 -0.287 0.014 3 
0.48 -0.345 0.004 3 
0.479 -0.306 0.014 3 
0.47 -0.116 0.022 3 
0.481 -0.339 0.013 3 
0.482 -0.347 0.013 3 
0.454 0.328 0.012 3 
0.455 0.322 0.012 3 
0.457 0.311 0.012 3 
0.458 0.303 0.012 3 
0.458 0.293 0.013 3 
0.458 0.263 0.013 3 
0.458 0.254 0.013 3 
0.458 0.242 0.014 3 
0.458 0.233 0.014 3 
0.464 0.032 0.023 3 
0.461 0.153 0.022 3 
0.461 0.142 0.023 3 
0.461 0.134 0.023 3 
0.463 0.123 0.023 3 
0.462 0.112 0.023 3 
0.462 0.104 0.023 3 
0.463 0.094 0.023 3 
0.463 0.083 0.023 3 
0.463 0.072 0.023 3 
0.463 0.064 0.023 3 
0.464 0.054 0.023 3 
0.464 0.043 0.023 3 
0.459 0.222 0.014 3 
0.465 0.03 0.023 3 
0.465 0.024 0.023 3 
0.466 0.014 0.023 3 
0.467 -0.007 0.023 3 
0.466 -0.025 0.023 3 
0.466 -0.036 0.023 3 
0.467 -0.047 0.023 3 
0.467 -0.055 0.023 3 
0.469 -0.077 0.023 3 
0.47 -0.096 0.023 3 
0.471 -0.105 0.022 3 
0.467 -0.066 0.012 3 
0.461 0.093 0.012 3 
0.462 0.083 0.012 3 
0.462 0.074 0.012 3 
0.462 0.064 0.013 3 
0.462 0.053 0.013 3 
0.465 -0.007 0.012 3 
0.465 -0.015 0.012 3 
0.465 -0.028 0.012 3 
0.465 -0.036 0.012 3 
0.464 -0.047 0.012 3 
0.465 -0.049 0.012 3 
0.465 -0.055 0.012 3 
0.462 0.104 0.012 3 
0.481 -0.336 0.004 3 
0.479 -0.355 0.004 3 
0.476 -0.235 0.004 3 
0.464 0.064 0.004 3 
0.464 0.051 0.004 3 
0.464 0.043 0.004 3 
0.467 -0.015 0.004 3 
0.466 -0.025 0.004 3 
0.468 -0.055 0.004 3 
0.473 -0.117 0.003 3 
0.465 0.043 0.001 3 
0.472 -0.167 0.014 3 
0.46 0.214 0.014 3 
0.46 0.203 0.014 3 
0.459 0.194 0.014 3 
0.459 0.182 0.014 3 
0.46 0.172 0.014 3 
0.46 0.164 0.014 3 
0.469 -0.107 0.014 3 
0.469 -0.115 0.014 3 
0.471 -0.136 0.014 3 
0.472 -0.147 0.014 3 
0.472 -0.156 0.014 3 
0.461 0.164 0.022 3 
0.471 -0.175 0.014 3 
0.472 -0.185 0.014 3 
0.473 -0.197 0.013 3 
0.473 -0.215 0.013 3 
0.473 -0.227 0.013 3 
0.475 -0.234 0.013 3 
0.477 -0.256 0.012 3 
0.477 -0.275 0.012 3 
0.46 0.152 0.012 3 
0.46 0.144 0.012 3 
0.462 0.134 0.012 3 
0.465 0.024 0.034 3 
0.464 0.102 0.033 3 
0.464 0.094 0.033 3 
0.463 0.083 0.034 3 
0.464 0.072 0.034 3 
0.465 0.067 0.033 3 
0.465 0.064 0.033 3 
0.465 0.054 0.034 3 
0.464 0.051 0.034 3 
0.465 0.043 0.034 3 
0.464 0.04 0.034 3 
0.465 0.032 0.034 3 
0.47 -0.085 0.023 3 
0.464 0.113 0.033 3 
0.466 0.014 0.034 3 
0.466 0.003 0.034 3 
0.467 -0.007 0.034 3 
0.467 -0.025 0.034 3 
0.467 -0.036 0.034 3 
0.47 -0.077 0.033 3 
0.471 -0.097 0.033 3 
0.472 -0.105 0.033 3 
0.472 -0.125 0.003 3 
0.472 -0.116 0.033 3 
0.462 0.123 0.012 3 
0.46 0.283 0.032 3 
0.465 0.04 0.042 3 
0.465 0.019 0.042 3 
0.465 0.011 0.042 3 
0.465 0.027 0.039 3 
0.455 0.33 0.034 3 
0.456 0.324 0.034 3 
0.458 0.313 0.034 3 
0.481 -0.328 0.034 3 
0.483 -0.337 0.034 3 
0.483 -0.348 0.034 3 
0.459 0.294 0.032 3 
0.472 -0.125 0.033 3 
0.46 0.264 0.032 3 
0.46 0.252 0.032 3 
0.46 0.234 0.033 3 
0.465 0.062 0.001 3 
0.46 0.223 0.033 3 
0.461 0.212 0.033 3 
0.461 0.203 0.033 3 
0.461 0.192 0.033 3 
0.462 0.142 0.033 3 
0.462 0.134 0.033 3 
0.462 0.123 0.033 3 
0.478 -0.266 0.023 3 
0.459 0.282 0.024 3 
0.46 0.273 0.024 3 
0.46 0.264 0.024 3 
0.459 0.254 0.024 3 
0.46 0.243 0.024 3 
0.459 0.234 0.024 3 
0.473 -0.194 0.024 3 
0.474 -0.197 0.024 3 
0.474 -0.206 0.024 3 
0.474 -0.215 0.024 3 
0.477 -0.245 0.024 3 
0.477 -0.257 0.024 3 
0.459 0.304 0.023 3 
0.477 -0.275 0.023 3 
0.478 -0.285 0.023 3 
0.48 -0.307 0.023 3 
0.481 -0.315 0.023 3 
0.48 -0.327 0.023 3 
0.481 -0.335 0.022 3 
0.482 -0.347 0.022 3 
0.481 -0.357 0.022 3 
0.461 0.203 0.022 3 
0.46 0.183 0.022 3 
0.461 0.172 0.022 3 
0.478 -0.276 0.032 3 
0.473 -0.136 0.033 3 
0.474 -0.145 0.033 3 
0.474 -0.157 0.033 3 
0.474 -0.165 0.033 3 
0.474 -0.186 0.033 3 
0.475 -0.207 0.033 3 
0.475 -0.225 0.033 3 
0.476 -0.235 0.032 3 
0.477 -0.248 0.032 3 
0.478 -0.255 0.032 3 
0.477 -0.266 0.032 3 
0.472 -0.125 0.063 3 
0.478 -0.285 0.032 3 
0.479 -0.296 0.032 3 
0.48 -0.307 0.032 3 
0.464 0.064 0.031 3 
0.474 -0.197 0.03 3 
0.474 -0.206 0.03 3 
0.481 -0.357 0.028 3 
0.474 -0.215 0.027 3 
0.455 0.33 0.023 3 
0.455 0.323 0.023 3 
0.458 0.312 0.023 3 
0.479 -0.297 0.093 3 
0.476 -0.196 0.092 3 
0.477 -0.205 0.092 3 
0.477 -0.217 0.092 3 
0.477 -0.226 0.092 3 
0.478 -0.236 0.092 3 
0.477 -0.247 0.092 3 
0.48 -0.287 0.043 3 
0.477 -0.257 0.092 3 
0.477 -0.266 0.093 3 
0.472 -0.125 0.044 3 
0.477 -0.276 0.093 3 
0.458 0.293 0.024 3 
0.306 0.02 0.072 3 
0.48 -0.308 0.093 3 
0.482 -0.316 0.094 3 
0.483 -0.328 0.094 3 
0.484 -0.336 0.094 3 
0.485 -0.339 0.094 3 
0.33 0.025 0.074 3 
0.305 -0.003 0.071 3 
0.474 -0.16 0.088 3 
0.474 -0.177 0.089 3 
0.485 -0.346 0.091 3 
0.459 0.276 0.084 3 
0.46 0.262 0.084 3 
0.47 -0.075 0.093 3 
0.464 0.124 0.092 3 
0.464 0.113 0.092 3 
0.464 0.102 0.092 3 
0.464 0.094 0.092 3 
0.464 0.083 0.092 3 
0.463 0.054 0.092 3 
0.465 0.083 0.052 3 
0.472 -0.034 0.093 3 
0.47 -0.036 0.093 3 
0.469 -0.047 0.093 3 
0.469 -0.055 0.093 3 
0.47 -0.066 0.093 3 
0.461 0.253 0.084 3 
0.471 -0.086 0.093 3 
0.472 -0.097 0.093 3 
0.472 -0.106 0.094 3 
0.472 -0.117 0.094 3 
0.472 -0.125 0.094 3 
0.46 0.194 0.022 3 
0.473 -0.137 0.094 3 
0.475 -0.146 0.094 3 
0.475 -0.157 0.094 3 
0.475 -0.166 0.094 3 
0.475 -0.177 0.094 3 
0.473 -0.136 0.083 3 
0.468 -0.034 0.082 3 
0.469 -0.036 0.082 3 
0.47 -0.047 0.082 3 
0.469 -0.055 0.082 3 
0.47 -0.066 0.082 3 
0.47 -0.077 0.082 3 
0.471 -0.086 0.082 3 
0.472 -0.097 0.082 3 
0.472 -0.105 0.083 3 
0.472 -0.117 0.083 3 
0.472 -0.125 0.083 3 
0.462 0.153 0.063 3 
0.307 0.014 0.069 3 
0.475 -0.149 0.083 3 
0.474 -0.157 0.083 3 
0.474 -0.165 0.083 3 
0.474 -0.177 0.083 3 
0.475 -0.186 0.083 3 
0.475 -0.195 0.083 3 
0.315 0.019 0.068 3 
0.477 -0.217 0.084 3 
0.477 -0.226 0.084 3 
0.477 -0.235 0.084 3 
0.463 0.132 0.084 3 
0.46 0.243 0.084 3 
0.46 0.234 0.084 3 
0.461 0.224 0.084 3 
0.461 0.212 0.084 3 
0.462 0.204 0.084 3 
0.462 0.193 0.084 3 
0.462 0.184 0.084 3 
0.462 0.173 0.084 3 
0.456 0.331 0.054 3 
0.461 0.164 0.084 3 
0.462 0.153 0.084 3 
0.35 -0.007 0.067 3 
0.463 0.124 0.084 3 
0.476 -0.265 0.012 3 
0.464 0.113 0.084 3 
0.464 0.094 0.084 3 
0.463 0.083 0.084 3 
0.462 0.072 0.084 3 
0.46 0.064 0.084 3 
0.462 0.053 0.084 3 
0.484 -0.345 0.088 3 
0.46 0.312 0.082 3 
0.459 0.301 0.082 3 
0.463 0.054 0.103 3 
0.462 0.162 0.103 3 
0.463 0.154 0.103 3 
0.462 0.143 0.103 3 
0.464 0.133 0.103 3 
0.464 0.124 0.103 3 
0.472 -0.097 0.003 3 
0.464 0.113 0.103 3 
0.464 0.102 0.103 3 
0.464 0.083 0.103 3 
0.464 0.073 0.103 3 
0.464 0.062 0.103 3 
0.462 0.173 0.103 3 
0.336 0.026 0.083 3 
0.47 -0.047 0.104 3 
0.471 -0.056 0.104 3 
0.471 -0.067 0.104 3 
0.472 -0.075 0.104 3 
0.472 -0.097 0.104 3 
0.457 0.332 0.102 3 
0.46 0.322 0.102 3 
0.465 0.095 0.1 3 
0.308 -0.004 0.078 3 
0.473 -0.106 0.102 3 
0.456 0.331 0.082 3 
0.481 -0.325 0.043 3 
0.481 -0.306 0.111 3 
0.484 -0.315 0.112 3 
0.485 -0.323 0.112 3 
0.484 -0.326 0.112 3 
0.485 -0.33 0.112 3 
0.485 -0.337 0.113 3 
0.486 -0.345 0.113 3 
0.46 0.306 0.104 3 
0.46 0.303 0.104 3 
0.46 0.293 0.104 3 
0.461 0.282 0.104 3 
0.468 -0.036 0.044 3 
0.461 0.263 0.104 3 
0.461 0.254 0.104 3 
0.459 0.324 0.082 3 
0.461 0.242 0.104 3 
0.461 0.233 0.103 3 
0.458 0.272 0.013 3 
0.462 0.213 0.103 3 
0.462 0.193 0.103 3 
0.483 -0.327 0.073 3 
0.462 0.184 0.103 3 
0.476 -0.207 0.044 3 
0.46 0.253 0.093 3 
0.485 -0.348 0.104 3 
0.3 0.018 0.074 3 
0.486 -0.044 0.081 3 
0.3 0.014 0.074 3 
0.297 0.003 0.074 3 
0.456 0.331 0.093 3 
0.459 0.324 0.093 3 
0.46 0.312 0.093 3 
0.46 0.303 0.093 3 
0.462 0.213 0.092 3 
0.46 0.274 0.093 3 
0.46 0.262 0.093 3 
0.485 -0.341 0.103 3 
0.462 0.242 0.093 3 
0.461 0.232 0.093 3 
0.462 0.224 0.093 3 
0.462 0.193 0.092 3 
0.462 0.184 0.092 3 
0.462 0.173 0.092 3 
0.464 0.064 0.052 3 
0.476 -0.265 0.004 3 
0.462 0.154 0.092 3 
0.462 0.143 0.092 3 
0.464 0.132 0.092 3 
0.478 -0.227 0.104 3 
0.473 -0.117 0.102 3 
0.473 -0.126 0.102 3 
0.473 -0.137 0.102 3 
0.474 -0.146 0.102 3 
0.475 -0.154 0.102 3 
0.475 -0.157 0.102 3 
0.476 -0.166 0.103 3 
0.475 -0.175 0.103 3 
0.477 -0.187 0.103 3 
0.477 -0.196 0.103 3 
0.478 -0.218 0.104 3 
0.476 -0.207 0.083 3 
0.483 -0.337 0.043 3 
0.477 -0.248 0.104 3 
0.477 -0.257 0.104 3 
0.477 -0.266 0.104 3 
0.367 0.031 0.084 3 
0.478 -0.277 0.101 3 
0.479 -0.287 0.102 3 
0.48 -0.295 0.102 3 
0.481 -0.306 0.102 3 
0.484 -0.325 0.103 3 
0.484 -0.336 0.103 3 
0.328 0 0.063 3 
0.353 0.044 0.064 3 
0.342 0.039 0.064 3 
0.331 0.033 0.063 3 
0.338 0.032 0.064 3 
0.347 0.032 0.064 3 
0.329 0.023 0.063 3 
0.316 0.013 0.063 3 
0.356 -0.006 0.064 3 
0.352 -0.009 0.064 3 
0.336 -0.01 0.064 3 
0.326 -0.01 0.063 3 
0.332 -0.015 0.063 3 
0.337 -0.017 0.064 3 
0.461 0.184 0.033 3 
0.346 -0.02 0.064 3 
0.369 -0.026 0.065 3 
0.5 -0.076 0.07 3 
0.477 -0.266 0.072 3 
0.475 -0.146 0.072 3 
0.475 -0.166 0.072 3 
0.474 -0.168 0.072 3 
0.474 -0.185 0.072 3 
0.476 -0.195 0.072 3 
0.476 -0.216 0.072 3 
0.476 -0.225 0.072 3 
0.477 -0.238 0.072 3 
0.471 -0.086 0.033 3 
0.477 -0.247 0.072 3 
0.477 -0.257 0.072 3 
0.493 -0.083 0.07 3 
0.477 -0.276 0.072 3 
0.479 -0.287 0.073 3 
0.479 -0.297 0.073 3 
0.48 -0.308 0.073 3 
0.482 -0.315 0.073 3 
0.483 -0.337 0.073 3 
0.484 -0.345 0.073 3 
0.465 0.119 0.068 3 
0.453 0.096 0.068 3 
0.446 0.094 0.062 3 
0.46 0.243 0.062 3 
0.46 0.223 0.063 3 
0.461 0.212 0.063 3 
0.461 0.203 0.063 3 
0.461 0.192 0.063 3 
0.461 0.183 0.063 3 
0.462 0.173 0.063 3 
0.464 -0.039 0.012 3 
0.463 0.132 0.063 3 
0.463 0.124 0.063 3 
0.452 0.109 0.063 3 
0.46 0.252 0.062 3 
0.485 0.089 0.063 3 
0.459 0.063 0.063 3 
0.451 0.051 0.063 3 
0.468 -0.047 0.044 3 
0.325 0.014 0.06 3 
0.372 -0.006 0.061 3 
0.464 -0.036 0.063 3 
0.458 -0.045 0.063 3 
0.5 -0.088 0.07 3 
0.474 -0.145 0.069 3 
0.46 0.243 0.032 3 
0.335 0 0.062 3 
0.458 -0.035 0.066 3 
0.451 -0.037 0.065 3 
0.478 -0.248 0.084 3 
0.371 -0.035 0.063 3 
0.475 -0.143 0.066 3 
0.46 0.322 0.062 3 
0.459 0.314 0.062 3 
0.46 0.302 0.062 3 
0.46 0.293 0.062 3 
0.46 0.283 0.062 3 
0.461 0.244 0.073 3 
0.459 0.324 0.074 3 
0.459 0.314 0.074 3 
0.459 0.301 0.074 3 
0.46 0.293 0.074 3 
0.46 0.283 0.074 3 
0.317 -0.003 0.068 3 
0.335 0.021 0.057 3 
0.46 0.274 0.074 3 
0.461 0.262 0.073 3 
0.461 0.253 0.073 3 
0.456 0.331 0.074 3 
0.461 0.232 0.073 3 
0.461 0.223 0.073 3 
0.461 0.212 0.073 3 
0.461 0.203 0.073 3 
0.462 0.193 0.073 3 
0.462 0.184 0.073 3 
0.462 0.173 0.073 3 
0.479 -0.287 0.084 3 
0.462 0.162 0.073 3 
0.481 -0.315 0.082 3 
0.484 -0.349 0.082 3 
0.334 0.039 0.068 3 
0.31 0.032 0.066 3 
0.319 0.032 0.067 3 
0.34 0.031 0.068 3 
0.356 0.031 0.069 3 
0.483 -0.337 0.082 3 
0.483 -0.327 0.082 3 
0.479 -0.297 0.084 3 
0.342 -0.008 0.069 3 
0.314 -0.01 0.067 3 
0.326 -0.016 0.068 3 
0.475 -0.183 0.08 3 
0.475 -0.157 0.08 3 
0.462 0.204 0.054 3 
0.476 -0.051 0.08 3 
0.497 -0.049 0.081 3 
0.346 0.034 0.065 3 
0.473 -0.095 0.074 3 
0.471 -0.078 0.074 3 
0.463 0.154 0.073 3 
0.472 -0.105 0.074 3 
0.472 -0.117 0.074 3 
0.473 -0.125 0.074 3 
0.474 -0.137 0.074 3 
0.474 -0.185 0.075 3 
0.473 -0.086 0.074 3 
0.327 0.023 0.065 3 
0.318 0.02 0.064 3 
0.314 0.015 0.064 3 
0.475 -0.225 0.064 3 
0.312 0.013 0.064 3 
0.301 0.01 0.063 3 
0.314 0.004 0.064 3 
0.45 0.103 0.063 3 
0.315 0.003 0.064 3 
0.352 0.047 0.067 3 
0.463 0.143 0.073 3 
0.462 0.123 0.073 3 
0.478 -0.276 0.084 3 
0.478 -0.267 0.084 3 
0.335 -0.017 0.067 3 
0.464 0.113 0.073 3 
0.465 0.105 0.074 3 
0.464 0.102 0.073 3 
0.462 0.094 0.073 3 
0.478 -0.258 0.084 3 
0.342 0.043 0.067 3 
0.325 0 0.066 3 
0.331 -0.008 0.066 3 
0.349 -0.02 0.067 3 
0.593 -0.029 0.096 3 
0.582 -0.031 0.091 3 
0.593 -0.036 0.1 3 
0.597 -0.025 0.1 3 
0.585 -0.028 0.091 3 
0.59 -0.036 0.092 3 
0.598 -0.04 0.104 3 
0.582 -0.039 0.091 3 
