# .PCD v0.7 - Point Cloud Data file
FIELDS x y z intensity
SIZE 4 4 4 4
TYPE F F F F
COUNT 1 1 1 1
WIDTH 2451
HEIGHT 1
VIEWPOINT 0 0 0 1 0 0 0
POINTS 2451
DATA ascii
0.354 0.013 0.004 0 
0.355 0.014 0.002 0 
0.373 -0.237 -0.025 1 
0.363 -0.166 -0.018 1 
0.364 -0.157 -0.018 1 
0.363 -0.135 -0.017 1 
0.363 -0.125 -0.017 1 
0.36 -0.057 -0.015 1 
0.361 -0.036 -0.015 1 
0.36 -0.032 -0.014 1 
0.36 -0.025 -0.015 1 
0.36 -0.015 -0.015 1 
0.36 -0.013 -0.015 1 
0.352 0.113 -0.014 1 
0.352 0.123 -0.014 1 
0.353 0.154 -0.015 1 
0.351 0.156 -0.015 1 
0.343 0.202 -0.015 1 
0.344 0.206 -0.015 1 
0.372 -0.195 -0.021 1 
0.374 -0.146 -0.02 1 
0.363 -0.085 -0.014 1 
0.363 -0.056 -0.014 1 
0.353 0.015 -0.011 1 
0.364 0.03 -0.015 1 
0.363 0.034 -0.014 1 
0.363 0.044 -0.014 1 
0.364 0.054 -0.015 1 
0.364 0.074 -0.015 1 
0.362 0.08 -0.015 1 
0.359 0.084 -0.014 1 
0.36 0.092 -0.014 1 
0.361 0.094 -0.015 1 
0.359 0.122 -0.015 1 
0.354 0.134 -0.013 1 
0.352 0.167 -0.014 1 
0.353 0.174 -0.015 1 
0.353 0.182 -0.015 1 
0.383 -0.248 -0.025 1 
0.383 -0.236 -0.024 1 
0.374 -0.188 -0.019 1 
0.371 -0.175 -0.018 1 
0.374 -0.136 -0.018 1 
0.374 -0.128 -0.017 1 
0.374 -0.116 -0.017 1 
0.371 -0.096 -0.016 1 
0.368 -0.085 -0.014 1 
0.368 -0.083 -0.014 1 
0.374 -0.076 -0.016 1 
0.37 -0.063 -0.015 1 
0.371 -0.045 -0.015 1 
0.373 -0.036 -0.016 1 
0.37 -0.025 -0.015 1 
0.37 -0.014 -0.015 1 
0.363 0.115 -0.014 1 
0.364 0.127 -0.015 1 
0.364 0.153 -0.015 1 
0.359 0.173 -0.015 1 
0.359 0.194 -0.016 1 
0.353 0.211 -0.015 1 
0.353 0.216 -0.015 1 
0.391 -0.242 -0.025 1 
0.384 -0.227 -0.022 1 
0.38 -0.165 -0.018 1 
0.381 -0.155 -0.018 1 
0.381 -0.126 -0.018 1 
0.38 -0.106 -0.017 1 
0.374 -0.091 -0.015 1 
0.374 -0.042 -0.014 1 
0.373 -0.025 -0.014 1 
0.373 -0.016 -0.014 1 
0.362 0.016 -0.01 1 
0.374 0.032 -0.014 1 
0.374 0.047 -0.015 1 
0.372 0.084 -0.015 1 
0.373 0.104 -0.015 1 
0.369 0.113 -0.014 1 
0.361 0.103 -0.015 1 
0.369 0.117 -0.014 1 
0.371 0.124 -0.015 1 
0.373 0.133 -0.016 1 
0.36 0.201 -0.015 1 
0.359 0.202 -0.014 1 
0.358 0.208 -0.014 1 
0.394 -0.263 -0.025 1 
0.391 -0.229 -0.022 1 
0.389 -0.22 -0.021 1 
0.384 -0.118 -0.017 1 
0.381 -0.096 -0.015 1 
0.384 -0.075 -0.016 1 
0.381 -0.067 -0.015 1 
0.38 -0.064 -0.014 1 
0.382 -0.055 -0.015 1 
0.381 -0.047 -0.015 1 
0.38 -0.045 -0.014 1 
0.38 -0.037 -0.014 1 
0.381 -0.036 -0.015 1 
0.382 -0.028 -0.015 1 
0.379 -0.026 -0.014 1 
0.367 -0.004 -0.01 1 
0.353 0.003 -0.005 1 
0.354 0.008 -0.006 1 
0.38 0.04 -0.015 1 
0.381 0.054 -0.015 1 
0.38 0.074 -0.015 1 
0.378 0.083 -0.015 1 
0.377 0.114 -0.015 1 
0.374 0.142 -0.015 1 
0.372 0.144 -0.014 1 
0.374 0.156 -0.015 1 
0.372 0.183 -0.016 1 
0.373 0.192 -0.016 1 
0.364 0.219 -0.015 1 
0.393 -0.205 -0.02 1 
0.389 -0.195 -0.018 1 
0.391 -0.185 -0.019 1 
0.389 -0.155 -0.017 1 
0.389 -0.125 -0.016 1 
0.374 -0.221 -0.025 1 
0.391 -0.107 -0.017 1 
0.394 -0.085 -0.017 1 
0.389 -0.075 -0.016 1 
0.387 -0.066 -0.015 1 
0.384 -0.015 -0.014 1 
0.373 -0.005 -0.01 1 
0.356 -0.001 -0.005 1 
0.384 0.033 -0.014 1 
0.384 0.043 -0.014 1 
0.384 0.049 -0.014 1 
0.383 0.084 -0.014 1 
0.382 0.096 -0.014 1 
0.384 0.099 -0.015 1 
0.382 0.122 -0.015 1 
0.381 0.124 -0.014 1 
0.381 0.14 -0.015 1 
0.382 0.164 -0.016 1 
0.374 0.222 -0.016 1 
0.404 -0.255 -0.023 1 
0.383 -0.216 -0.021 1 
0.4 -0.225 -0.02 1 
0.394 -0.115 -0.016 1 
0.391 -0.066 -0.014 1 
0.392 -0.064 -0.014 1 
0.394 -0.056 -0.015 1 
0.394 -0.046 -0.015 1 
0.393 -0.044 -0.015 1 
0.393 -0.035 -0.014 1 
0.394 -0.032 -0.015 1 
0.391 -0.025 -0.014 1 
0.392 0.053 -0.015 1 
0.391 0.057 -0.014 1 
0.393 0.063 -0.015 1 
0.392 0.073 -0.015 1 
0.39 0.083 -0.015 1 
0.39 0.087 -0.015 1 
0.389 0.093 -0.014 1 
0.389 0.099 -0.014 1 
0.39 0.104 -0.015 1 
0.389 0.124 -0.015 1 
0.385 0.149 -0.014 1 
0.385 0.176 -0.016 1 
0.378 0.244 -0.017 1 
0.411 -0.265 -0.023 1 
0.414 -0.258 -0.023 1 
0.411 -0.246 -0.022 1 
0.4 -0.206 -0.018 1 
0.404 -0.198 -0.019 1 
0.401 -0.147 -0.016 1 
0.402 -0.136 -0.016 1 
0.402 -0.116 -0.016 1 
0.4 -0.105 -0.015 1 
0.401 -0.079 -0.015 1 
0.4 -0.049 -0.015 1 
0.399 -0.045 -0.014 1 
0.398 -0.036 -0.014 1 
0.392 -0.015 -0.012 1 
0.383 -0.005 -0.01 1 
0.394 0.043 -0.013 1 
0.394 0.045 -0.013 1 
0.394 0.133 -0.015 1 
0.394 0.144 -0.015 1 
0.392 0.154 -0.015 1 
0.393 0.163 -0.015 1 
0.411 -0.236 -0.019 1 
0.409 -0.226 -0.018 1 
0.404 -0.186 -0.016 1 
0.394 -0.247 -0.026 1 
0.41 -0.116 -0.016 1 
0.407 -0.105 -0.015 1 
0.406 -0.096 -0.015 1 
0.409 -0.086 -0.016 1 
0.403 -0.065 -0.014 1 
0.397 -0.015 -0.012 1 
0.388 -0.005 -0.009 1 
0.352 0.136 -0.014 1 
0.378 0.017 -0.006 1 
0.394 0.029 -0.011 1 
0.403 0.053 -0.014 1 
0.403 0.073 -0.014 1 
0.403 0.094 -0.015 1 
0.403 0.103 -0.015 1 
0.402 0.114 -0.015 1 
0.402 0.122 -0.015 1 
0.374 -0.112 -0.017 1 
0.401 0.124 -0.014 1 
0.401 0.131 -0.015 1 
0.4 0.132 -0.014 1 
0.352 0.202 -0.016 1 
0.401 0.144 -0.015 1 
0.399 0.152 -0.015 1 
0.397 0.167 -0.015 1 
0.394 0.174 -0.014 1 
0.393 0.184 -0.014 1 
0.391 0.194 -0.014 1 
0.391 0.204 -0.014 1 
0.393 0.22 -0.015 1 
0.394 0.243 -0.017 1 
0.422 -0.286 -0.022 1 
0.424 -0.265 -0.022 1 
0.424 -0.262 -0.022 1 
0.421 -0.237 -0.02 1 
0.419 -0.227 -0.019 1 
0.411 -0.196 -0.016 1 
0.412 -0.185 -0.016 1 
0.413 -0.169 -0.016 1 
0.353 0.194 -0.016 1 
0.413 -0.138 -0.015 1 
0.416 -0.096 -0.015 1 
0.415 -0.086 -0.015 1 
0.415 -0.084 -0.015 1 
0.414 -0.077 -0.015 1 
0.414 -0.074 -0.015 1 
0.411 -0.065 -0.014 1 
0.411 -0.045 -0.014 1 
0.409 -0.025 -0.013 1 
0.355 0.003 0.002 1 
0.399 0.139 -0.014 1 
0.392 0.02 -0.008 1 
0.402 0.034 -0.011 1 
0.404 0.041 -0.012 1 
0.409 0.052 -0.014 1 
0.408 0.074 -0.014 1 
0.411 0.093 -0.015 1 
0.411 0.098 -0.015 1 
0.404 0.153 -0.014 1 
0.403 0.164 -0.014 1 
0.399 0.194 -0.014 1 
0.397 0.207 -0.014 1 
0.401 0.222 -0.015 1 
0.401 0.233 -0.016 1 
0.399 0.243 -0.016 1 
0.423 -0.296 -0.02 1 
0.418 -0.217 -0.016 1 
0.42 -0.196 -0.016 1 
0.421 -0.167 -0.016 1 
0.417 -0.157 -0.014 1 
0.417 -0.152 -0.014 1 
0.42 -0.111 -0.015 1 
0.368 0.214 -0.016 1 
0.42 -0.106 -0.014 1 
0.419 -0.076 -0.014 1 
0.42 -0.065 -0.014 1 
0.418 -0.055 -0.013 1 
0.418 -0.046 -0.013 1 
0.384 -0.186 -0.018 1 
0.389 -0.146 -0.017 1 
0.419 -0.035 -0.014 1 
0.42 -0.026 -0.014 1 
0.404 0.019 -0.01 1 
0.411 0.134 -0.013 1 
0.409 0.142 -0.013 1 
0.412 0.153 -0.014 1 
0.406 0.164 -0.013 1 
0.408 0.211 -0.015 1 
0.399 -0.237 -0.023 1 
0.36 0.014 -0.006 1 
0.407 0.223 -0.015 1 
0.4 0.263 -0.015 1 
0.399 0.264 -0.014 1 
0.432 -0.297 -0.02 1 
0.431 -0.287 -0.019 1 
0.432 -0.276 -0.019 1 
0.431 -0.246 -0.018 1 
0.43 -0.226 -0.017 1 
0.43 -0.206 -0.017 1 
0.404 -0.005 -0.007 1 
0.384 0.214 -0.017 1 
0.421 0.032 -0.012 1 
0.419 -0.175 -0.015 1 
0.424 0.039 -0.013 1 
0.423 0.062 -0.013 1 
0.422 0.074 -0.013 1 
0.423 0.093 -0.013 1 
0.422 0.104 -0.013 1 
0.414 0.194 -0.013 1 
0.412 0.212 -0.013 1 
0.415 0.222 -0.015 1 
0.414 0.229 -0.015 1 
0.415 0.233 -0.015 1 
0.415 0.235 -0.015 1 
0.413 0.244 -0.015 1 
0.415 0.251 -0.016 1 
0.414 0.253 -0.015 1 
0.409 0.264 -0.015 1 
0.408 0.272 -0.015 1 
0.404 0.273 -0.014 1 
0.434 -0.308 -0.018 1 
0.436 -0.237 -0.016 1 
0.435 -0.215 -0.016 1 
0.436 -0.208 -0.016 1 
0.434 -0.196 -0.015 1 
0.433 -0.187 -0.015 1 
0.433 -0.182 -0.014 1 
0.434 -0.175 -0.015 1 
0.431 -0.155 -0.013 1 
0.43 -0.145 -0.013 1 
0.431 -0.135 -0.013 1 
0.431 -0.126 -0.013 1 
0.431 -0.116 -0.013 1 
0.43 -0.106 -0.012 1 
0.43 -0.096 -0.012 1 
0.431 -0.087 -0.013 1 
0.433 -0.075 -0.013 1 
0.434 -0.068 -0.013 1 
0.433 -0.046 -0.013 1 
0.434 -0.035 -0.013 1 
0.405 -0.005 -0.006 1 
0.432 0.043 -0.013 1 
0.431 0.052 -0.013 1 
0.428 0.064 -0.012 1 
0.424 0.124 -0.012 1 
0.424 0.153 -0.012 1 
0.423 0.162 -0.012 1 
0.42 0.183 -0.012 1 
0.424 0.283 -0.017 1 
0.442 -0.298 -0.017 1 
0.444 -0.279 -0.017 1 
0.438 -0.256 -0.015 1 
0.437 -0.106 -0.012 1 
0.439 -0.097 -0.012 1 
0.402 0.064 -0.014 1 
0.44 -0.035 -0.012 1 
0.424 0.053 -0.013 1 
0.438 -0.026 -0.012 1 
0.406 -0.005 -0.004 1 
0.413 0.02 -0.006 1 
0.436 0.024 -0.012 1 
0.434 0.072 -0.011 1 
0.433 0.084 -0.011 1 
0.434 0.094 -0.012 1 
0.433 0.121 -0.012 1 
0.429 0.144 -0.011 1 
0.43 0.154 -0.012 1 
0.424 0.194 -0.011 1 
0.423 0.203 -0.011 1 
0.421 0.212 -0.011 1 
0.422 0.223 -0.012 1 
0.421 0.23 -0.012 1 
0.424 0.244 -0.013 1 
0.424 0.252 -0.013 1 
0.423 0.268 -0.013 1 
0.424 0.289 -0.014 1 
0.425 0.293 -0.015 1 
0.446 -0.296 -0.015 1 
0.45 -0.285 -0.016 1 
0.439 -0.256 -0.012 1 
0.441 -0.247 -0.013 1 
0.409 0.103 -0.014 1 
0.443 -0.235 -0.013 1 
0.444 -0.233 -0.013 1 
0.443 -0.216 -0.013 1 
0.444 -0.198 -0.012 1 
0.444 -0.192 -0.012 1 
0.443 -0.175 -0.012 1 
0.444 -0.166 -0.012 1 
0.443 -0.157 -0.012 1 
0.442 -0.146 -0.011 1 
0.444 -0.127 -0.011 1 
0.444 -0.119 -0.011 1 
0.422 0.083 -0.013 1 
0.444 -0.086 -0.011 1 
0.444 -0.078 -0.011 1 
0.444 -0.071 -0.011 1 
0.443 -0.056 -0.011 1 
0.444 0.033 -0.011 1 
0.444 0.04 -0.011 1 
0.443 0.052 -0.011 1 
0.441 0.064 -0.011 1 
0.442 0.072 -0.011 1 
0.441 0.084 -0.011 1 
0.439 0.104 -0.011 1 
0.44 0.134 -0.011 1 
0.434 0.162 -0.011 1 
0.433 0.174 -0.011 1 
0.431 0.183 -0.01 1 
0.428 0.223 -0.011 1 
0.431 0.234 -0.012 1 
0.429 0.262 -0.012 1 
0.43 0.284 -0.013 1 
0.45 -0.326 -0.015 1 
0.449 -0.322 -0.014 1 
0.453 -0.317 -0.015 1 
0.448 -0.295 -0.013 1 
0.452 -0.287 -0.014 1 
0.444 -0.267 -0.011 1 
0.448 -0.259 -0.012 1 
0.449 -0.215 -0.011 1 
0.453 -0.157 -0.011 1 
0.452 -0.146 -0.011 1 
0.452 -0.135 -0.011 1 
0.45 -0.127 -0.01 1 
0.45 -0.116 -0.01 1 
0.451 -0.106 -0.01 1 
0.451 -0.096 -0.01 1 
0.443 -0.205 -0.012 1 
0.451 -0.085 -0.01 1 
0.451 -0.075 -0.01 1 
0.451 -0.065 -0.01 1 
0.451 -0.055 -0.01 1 
0.45 -0.037 -0.01 1 
0.454 -0.012 -0.011 1 
0.473 -0.01 -0.015 1 
0.41 0.02 0 1 
0.444 0.111 -0.009 1 
0.444 0.116 -0.009 1 
0.45 0.043 -0.01 1 
0.444 0.144 -0.01 1 
0.439 0.163 -0.009 1 
0.433 0.192 -0.008 1 
0.434 0.204 -0.009 1 
0.434 0.25 -0.01 1 
0.434 0.273 -0.011 1 
0.431 0.303 -0.012 1 
0.382 -0.205 -0.021 1 
0.454 -0.327 -0.013 1 
0.453 -0.275 -0.011 1 
0.422 0.133 -0.011 1 
0.454 -0.267 -0.011 1 
0.449 -0.245 -0.009 1 
0.452 -0.236 -0.01 1 
0.453 -0.234 -0.01 1 
0.454 -0.207 -0.01 1 
0.454 -0.196 -0.01 1 
0.454 -0.188 -0.009 1 
0.404 -0.278 -0.024 1 
0.36 -0.006 -0.013 1 
0.409 -0.217 -0.018 1 
0.454 0.034 -0.008 1 
0.454 0.054 -0.009 1 
0.452 0.064 -0.008 1 
0.453 0.072 -0.008 1 
0.45 0.092 -0.008 1 
0.45 0.102 -0.008 1 
0.45 0.134 -0.008 1 
0.444 0.173 -0.008 1 
0.443 0.183 -0.008 1 
0.438 0.204 -0.007 1 
0.439 0.243 -0.009 1 
0.441 0.283 -0.01 1 
0.439 0.293 -0.01 1 
0.46 -0.338 -0.012 1 
0.382 0.182 -0.015 1 
0.463 -0.317 -0.011 1 
0.462 -0.157 -0.008 1 
0.462 -0.075 -0.007 1 
0.452 0.153 -0.007 1 
0.393 0.232 -0.016 1 
0.45 0.183 -0.007 1 
0.444 0.274 -0.008 1 
0.443 0.304 -0.009 1 
0.439 0.312 -0.008 1 
0.462 -0.256 -0.007 1 
0.464 -0.217 -0.007 1 
0.464 -0.197 -0.006 1 
0.465 -0.186 -0.006 1 
0.464 -0.177 -0.006 1 
0.465 -0.167 -0.006 1 
0.465 -0.147 -0.006 1 
0.465 -0.144 -0.006 1 
0.464 -0.136 -0.006 1 
0.464 -0.119 -0.005 1 
0.403 -0.265 -0.023 1 
0.465 -0.117 -0.006 1 
0.466 -0.106 -0.006 1 
0.465 -0.087 -0.005 1 
0.465 -0.068 -0.005 1 
0.465 -0.063 -0.005 1 
0.384 -0.239 -0.025 1 
0.464 -0.055 -0.005 1 
0.463 -0.036 -0.005 1 
0.463 0.043 -0.005 1 
0.462 0.064 -0.005 1 
0.374 0.017 -0.007 1 
0.462 0.072 -0.005 1 
0.461 0.093 -0.005 1 
0.419 -0.146 -0.015 1 
0.458 0.113 -0.005 1 
0.458 0.124 -0.005 1 
0.454 0.163 -0.005 1 
0.456 0.173 -0.005 1 
0.456 0.184 -0.006 1 
0.454 0.193 -0.005 1 
0.454 0.202 -0.006 1 
0.454 0.207 -0.006 1 
0.408 0.085 -0.014 1 
0.455 0.214 -0.006 1 
0.454 0.224 -0.006 1 
0.452 0.234 -0.006 1 
0.451 0.242 -0.006 1 
0.451 0.254 -0.006 1 
0.451 0.263 -0.006 1 
0.45 -0.047 -0.01 1 
0.469 -0.307 -0.007 1 
0.459 0.133 -0.005 1 
0.467 -0.286 -0.006 1 
0.467 -0.276 -0.005 1 
0.47 -0.257 -0.006 1 
0.47 -0.248 -0.005 1 
0.468 -0.226 -0.005 1 
0.468 -0.22 -0.005 1 
0.468 -0.208 -0.005 1 
0.464 0.064 -0.003 1 
0.456 0.264 -0.005 1 
0.455 0.272 -0.005 1 
0.454 0.284 -0.005 1 
0.453 0.292 -0.005 1 
0.452 0.304 -0.005 1 
0.45 0.314 -0.005 1 
0.449 0.323 -0.005 1 
0.473 -0.345 -0.006 1 
0.471 -0.336 -0.005 1 
0.432 0.133 -0.012 1 
0.444 0.262 -0.008 1 
0.472 -0.333 -0.005 1 
0.361 -0.075 -0.015 1 
0.472 -0.316 -0.005 1 
0.474 -0.01 -0.002 1 
0.42 -0.135 -0.015 1 
0.39 -0.005 0.014 1 
0.454 0.312 -0.003 1 
0.451 0.322 -0.003 1 
0.454 0.328 -0.003 1 
0.474 -0.329 -0.002 1 
0.384 0.153 -0.014 1 
0.473 -0.317 -0.002 1 
0.354 0.143 -0.015 1 
0.409 0.126 -0.015 1 
0.464 0.174 0 1 
0.464 0.183 0 1 
0.474 -0.312 0 1 
0.475 -0.286 0 1 
0.476 -0.268 0.001 1 
0.475 -0.24 0.001 1 
0.474 -0.227 0.001 1 
0.473 -0.218 0.002 1 
0.472 -0.205 0.002 1 
0.472 -0.196 0.002 1 
0.47 -0.186 0.003 1 
0.47 -0.155 0.003 1 
0.469 -0.146 0.003 1 
0.373 -0.205 -0.022 1 
0.423 0.114 -0.011 1 
0.469 -0.135 0.003 1 
0.469 -0.096 0.004 1 
0.468 -0.085 0.004 1 
0.468 -0.077 0.004 1 
0.41 -0.125 -0.016 1 
0.467 -0.015 0.004 1 
0.468 -0.237 -0.005 1 
0.488 -0.01 0 1 
0.425 -0.008 -0.013 1 
0.425 0.005 0.011 1 
0.432 0.019 0.01 1 
0.465 0.073 0.004 1 
0.466 0.084 0.004 1 
0.465 0.091 0.004 1 
0.464 0.094 0.004 1 
0.464 0.113 0.004 1 
0.464 0.116 0.004 1 
0.465 0.13 0.003 1 
0.463 0.151 0.003 1 
0.465 0.164 0.003 1 
0.465 0.183 0.003 1 
0.465 0.189 0.002 1 
0.464 0.194 0.003 1 
0.464 0.2 0.002 1 
0.465 0.203 0.002 1 
0.465 0.209 0.002 1 
0.465 0.218 0.002 1 
0.464 0.223 0.002 1 
0.464 0.229 0.002 1 
0.465 0.233 0.002 1 
0.465 0.242 0.002 1 
0.465 0.245 0.001 1 
0.474 -0.349 0.002 1 
0.355 0.104 -0.014 1 
0.476 -0.337 0.002 1 
0.42 -0.085 -0.014 1 
0.476 -0.327 0.002 1 
0.475 -0.306 0.003 1 
0.476 -0.304 0.003 1 
0.474 -0.295 0.003 1 
0.473 -0.288 0.004 1 
0.472 -0.277 0.004 1 
0.473 -0.266 0.004 1 
0.463 0.252 0.004 1 
0.462 0.272 0.004 1 
0.463 0.292 0.004 1 
0.463 0.302 0.003 1 
0.462 0.314 0.003 1 
0.463 0.321 0.003 1 
0.464 0.329 0.002 1 
0.371 0.148 -0.014 1 
0.466 0.338 0.002 1 
0.468 0.345 0.001 1 
0.463 0.053 -0.005 1 
0.434 0.294 -0.012 1 
0.461 0.032 -0.005 1 
0.403 -0.155 -0.017 1 
0.465 -0.009 0.012 1 
0.464 -0.007 0.012 1 
0.463 0.003 0.013 1 
0.464 -0.012 -0.008 1 
0.463 0.014 0.013 1 
0.463 0.024 0.013 1 
0.464 -0.047 -0.005 1 
0.464 -0.065 -0.005 1 
0.413 0.203 -0.013 1 
0.382 -0.146 -0.017 1 
0.462 -0.086 -0.007 1 
0.477 -0.346 0.002 1 
0.38 0.187 -0.014 1 
0.414 0.119 -0.014 1 
0.373 0.236 -0.017 1 
0.464 0.022 0.015 1 
0.464 -0.125 -0.005 1 
0.461 -0.145 -0.008 1 
0.465 0.097 0.004 1 
0.414 0.264 -0.013 1 
0.464 -0.172 -0.006 1 
0.464 -0.191 -0.006 1 
0.464 -0.226 -0.007 1 
0.452 -0.309 -0.014 1 
0.455 -0.247 -0.008 1 
0.44 0.253 -0.009 1 
0.464 -0.286 -0.008 1 
0.463 -0.327 -0.012 1 
0.389 0.172 -0.015 1 
0.407 0.114 -0.014 1 
0.371 0.11 -0.015 1 
0.438 -0.267 -0.015 1 
0.464 0.014 0.015 1 
0.443 -0.322 -0.018 1 
0.403 -0.086 -0.016 1 
0.454 0.144 -0.007 1 
0.42 -0.161 -0.015 1 
0.438 -0.247 -0.015 1 
0.469 -0.127 0.003 1 
0.457 0.142 -0.005 1 
0.454 -0.177 -0.009 1 
0.394 0.262 -0.015 1 
0.363 0.064 -0.015 1 
0.363 0.114 -0.014 1 
0.474 -0.245 0.004 1 
0.453 -0.017 -0.011 1 
0.417 -0.015 -0.013 1 
0.469 -0.297 -0.006 1 
0.464 0.238 0.002 1 
0.443 -0.011 -0.013 1 
0.374 0.073 -0.015 1 
0.362 -0.066 -0.016 1 
0.442 0.153 -0.01 1 
0.435 -0.225 -0.016 1 
0.353 0.163 -0.014 1 
0.413 -0.036 -0.014 1 
0.358 0.144 -0.015 1 
0.463 0.338 0 1 
0.418 -0.207 -0.016 1 
0.453 -0.307 -0.015 1 
0.443 0.213 -0.009 1 
0.359 0.134 -0.013 1 
0.409 0.063 -0.014 1 
0.401 0.174 -0.014 1 
0.373 -0.216 -0.024 1 
0.444 -0.048 -0.011 1 
0.463 0.083 -0.003 1 
0.475 -0.246 0.001 1 
0.371 -0.065 -0.015 1 
0.423 -0.275 -0.022 1 
0.431 0.113 -0.011 1 
0.475 -0.255 0.001 1 
0.384 0.087 -0.015 1 
0.41 0.277 -0.016 1 
0.456 0.153 -0.005 1 
0.387 0.202 -0.015 1 
0.475 -0.01 0 1 
0.465 -0.025 -0.005 1 
0.373 0.062 -0.014 1 
0.475 -0.231 0.001 1 
0.464 0.043 -0.003 1 
0.373 0.153 -0.015 1 
0.38 0.234 -0.017 1 
0.396 -0.247 -0.025 1 
0.426 -0.157 -0.015 1 
0.396 -0.255 -0.025 1 
0.39 -0.238 -0.024 1 
0.472 -0.238 0.004 1 
0.402 0.109 -0.014 1 
0.414 0.219 -0.014 1 
0.397 -0.076 -0.014 1 
0.462 -0.297 -0.011 1 
0.434 -0.172 -0.015 1 
0.394 -0.1 -0.015 1 
0.432 -0.236 -0.018 1 
0.372 0.094 -0.015 1 
0.47 -0.01 -0.006 1 
0.433 -0.268 -0.019 1 
0.401 -0.266 -0.025 1 
0.412 -0.056 -0.014 1 
0.421 0.174 -0.012 1 
0.412 -0.147 -0.015 1 
0.404 -0.167 -0.018 1 
0.42 -0.247 -0.02 1 
0.465 0.13 0.006 1 
0.409 0.124 -0.015 1 
0.382 0.203 -0.016 1 
0.38 0.192 -0.015 1 
0.369 -0.054 -0.014 1 
0.373 0.064 -0.015 1 
0.434 -0.22 -0.016 1 
0.36 0.163 -0.015 1 
0.414 0.174 -0.013 1 
0.392 0.254 -0.017 1 
0.463 -0.015 -0.008 1 
0.401 0.184 -0.014 1 
0.464 -0.27 -0.008 1 
0.376 0.143 -0.013 1 
0.42 -0.095 -0.014 1 
0.364 -0.09 -0.015 1 
0.427 0.284 -0.015 1 
0.391 0.113 -0.015 1 
0.464 0.143 0.003 1 
0.364 -0.109 -0.015 1 
0.464 0.102 0.004 1 
0.439 0.094 -0.01 1 
0.454 0.114 -0.007 1 
0.461 0.082 -0.005 1 
0.38 0.033 -0.015 1 
0.414 0.177 -0.013 1 
0.45 -0.027 -0.01 1 
0.414 0.036 -0.013 1 
0.422 0.264 -0.013 1 
0.422 0.142 -0.012 1 
0.374 -0.233 -0.025 1 
0.425 0.296 -0.015 1 
0.464 -0.028 -0.005 1 
0.402 -0.22 -0.018 1 
0.383 -0.089 -0.016 1 
0.441 -0.285 -0.016 1 
0.404 -0.183 -0.016 1 
0.454 0.274 -0.005 1 
0.39 -0.177 -0.018 1 
0.412 -0.177 -0.016 1 
0.441 -0.016 -0.013 1 
0.462 -0.105 -0.008 1 
0.404 -0.059 -0.014 1 
0.412 -0.156 -0.015 1 
0.37 0.033 -0.015 1 
0.426 0.023 -0.011 1 
0.455 0.217 -0.006 1 
0.362 -0.097 -0.016 1 
0.379 -0.175 -0.018 1 
0.462 0.263 0.004 1 
0.466 -0.156 -0.006 1 
0.38 -0.23 -0.025 1 
0.4 -0.096 -0.015 1 
0.444 -0.139 -0.012 1 
0.402 -0.125 -0.016 1 
0.383 0.133 -0.015 1 
0.369 -0.056 -0.014 1 
0.464 0.157 0.003 1 
0.364 -0.047 -0.014 1 
0.353 0.003 0.004 1 
0.474 -0.336 -0.002 1 
0.432 0.103 -0.011 1 
0.371 0.231 -0.016 1 
0.424 -0.194 -0.015 1 
0.413 -0.205 -0.017 1 
0.429 0.033 -0.012 1 
0.363 -0.083 -0.014 1 
0.359 0.184 -0.015 1 
0.442 -0.305 -0.017 1 
0.432 -0.025 -0.013 1 
0.433 -0.056 -0.013 1 
0.418 0.016 0.013 1 
0.384 0.223 -0.017 1 
0.451 0.082 -0.008 1 
0.431 -0.255 -0.018 1 
0.374 -0.159 -0.018 1 
0.381 -0.195 -0.02 1 
0.392 0.212 -0.015 1 
0.422 -0.126 -0.015 1 
0.363 0.05 -0.014 1 
0.372 0.174 -0.015 1 
0.366 0.093 -0.014 1 
0.416 -0.01 -0.013 1 
0.418 0.014 0.013 1 
0.357 0.057 -0.014 1 
0.465 0.172 0.003 1 
0.401 0.083 -0.014 1 
0.441 0.193 -0.008 1 
0.433 -0.167 -0.014 1 
0.407 0.083 -0.013 1 
0.355 0.159 -0.014 1 
0.468 -0.265 -0.005 1 
0.428 0.003 0.011 1 
0.404 0.254 -0.015 1 
0.463 0.283 0.004 1 
0.361 0.143 -0.014 1 
0.414 0.033 -0.013 1 
0.402 -0.026 -0.013 1 
0.474 -0.257 0.004 1 
0.364 -0.115 -0.015 1 
0.403 0.195 -0.013 1 
0.386 -0.021 -0.015 1 
0.379 0.063 -0.015 1 
0.42 -0.116 -0.015 1 
0.37 0.044 -0.015 1 
0.462 -0.097 -0.007 1 
0.433 0.206 -0.009 1 
0.442 0.224 -0.009 1 
0.421 0.292 -0.016 1 
0.391 -0.165 -0.018 1 
0.412 -0.275 -0.024 1 
0.476 -0.317 0.003 1 
0.463 0.072 -0.003 1 
0.414 0.227 -0.014 1 
0.464 0.046 -0.003 1 
0.464 -0.206 -0.006 1 
0.45 -0.166 -0.011 1 
0.454 0.166 -0.005 1 
0.38 0.174 -0.016 1 
0.381 0.094 -0.014 1 
0.455 0.155 -0.005 1 
0.463 -0.279 -0.008 1 
0.442 0.232 -0.009 1 
0.466 -0.095 -0.006 1 
0.455 0.191 -0.006 1 
0.464 0.214 0.002 1 
0.434 0.242 -0.01 1 
0.466 -0.015 -0.006 1 
0.406 -0.016 -0.012 1 
0.454 0.122 -0.007 1 
0.387 0.193 -0.015 1 
0.434 -0.018 -0.013 1 
0.465 -0.076 -0.005 1 
0.459 -0.236 -0.008 1 
0.404 -0.253 -0.023 1 
0.384 -0.136 -0.017 1 
0.37 -0.016 -0.015 1 
0.462 -0.306 -0.011 1 
0.373 0.203 -0.017 1 
0.359 0.213 -0.015 1 
0.459 0.103 -0.005 1 
0.39 -0.136 -0.017 1 
0.372 -0.165 -0.018 1 
0.465 0.124 0.003 1 
0.403 0.092 -0.014 1 
0.355 0.003 0.019 2 
0.354 0.005 0.02 2 
0.355 0.014 0.024 2 
0.354 -0.001 0.021 2 
0.36 0.004 0.027 2 
0.36 0.012 0.032 2 
0.354 -0.001 0.02 2 
0.468 -0.015 0.144 3 
0.467 0.104 0.144 3 
0.468 -0.006 0.144 3 
0.466 0.003 0.144 3 
0.466 0.022 0.144 3 
0.47 -0.146 0.074 3 
0.467 0.033 0.144 3 
0.467 0.044 0.144 3 
0.467 0.052 0.144 3 
0.467 0.074 0.144 3 
0.468 0.082 0.144 3 
0.467 0.093 0.144 3 
0.466 0.253 0.144 3 
0.469 -0.025 0.144 3 
0.474 -0.225 0.149 3 
0.462 0.242 0.013 3 
0.479 -0.288 0.152 3 
0.479 -0.295 0.152 3 
0.479 -0.305 0.152 3 
0.48 -0.316 0.153 3 
0.482 -0.325 0.154 3 
0.466 0.272 0.144 3 
0.465 0.152 0.063 3 
0.466 0.262 0.144 3 
0.471 -0.125 0.152 3 
0.468 0.333 0.153 3 
0.485 -0.349 0.15 3 
0.472 -0.137 0.152 3 
0.464 0.34 0.062 3 
0.472 -0.145 0.152 3 
0.472 -0.157 0.152 3 
0.473 -0.166 0.153 3 
0.473 -0.175 0.153 3 
0.473 -0.186 0.153 3 
0.474 -0.196 0.154 3 
0.465 0.229 0.063 3 
0.475 -0.211 0.154 3 
0.465 0.344 0.153 3 
0.475 -0.246 0.112 3 
0.469 0.324 0.153 3 
0.474 -0.216 0.151 3 
0.475 -0.226 0.152 3 
0.475 -0.235 0.152 3 
0.472 -0.265 0.013 3 
0.477 -0.258 0.153 3 
0.477 -0.267 0.153 3 
0.477 -0.277 0.154 3 
0.467 0.346 0.15 3 
0.467 0.118 0.144 3 
0.467 0.112 0.144 3 
0.467 -0.015 0.084 3 
0.472 -0.157 0.144 3 
0.472 -0.165 0.144 3 
0.472 -0.177 0.144 3 
0.472 -0.185 0.144 3 
0.482 -0.335 0.151 3 
0.482 -0.346 0.152 3 
0.465 0.336 0.143 3 
0.467 0.331 0.144 3 
0.466 0.32 0.143 3 
0.466 0.313 0.143 3 
0.466 0.304 0.143 3 
0.466 0.284 0.142 3 
0.471 -0.145 0.143 3 
0.464 0.236 0.14 3 
0.464 0.233 0.14 3 
0.474 -0.198 0.142 3 
0.474 -0.207 0.142 3 
0.474 -0.216 0.143 3 
0.475 -0.219 0.143 3 
0.475 -0.225 0.143 3 
0.475 -0.237 0.143 3 
0.475 -0.247 0.144 3 
0.476 -0.257 0.144 3 
0.473 -0.146 0.164 3 
0.466 0.142 0.142 3 
0.465 0.234 0.143 3 
0.465 0.222 0.143 3 
0.464 0.183 0.033 3 
0.466 0.214 0.143 3 
0.466 0.203 0.143 3 
0.467 0.192 0.143 3 
0.468 0.183 0.143 3 
0.467 0.174 0.142 3 
0.471 -0.156 0.124 3 
0.466 0.162 0.142 3 
0.466 0.153 0.142 3 
0.465 0.243 0.144 3 
0.474 -0.255 0.123 3 
0.467 0.134 0.142 3 
0.469 -0.055 0.142 3 
0.469 -0.066 0.142 3 
0.467 0.022 0.103 3 
0.465 0.172 0.052 3 
0.47 -0.075 0.142 3 
0.471 -0.086 0.143 3 
0.47 -0.105 0.143 3 
0.47 -0.116 0.143 3 
0.47 -0.125 0.143 3 
0.478 -0.275 0.163 3 
0.475 -0.202 0.163 3 
0.466 0.114 0.052 3 
0.475 -0.205 0.163 3 
0.476 -0.215 0.164 3 
0.473 -0.257 0.044 3 
0.474 -0.285 0.012 3 
0.476 -0.227 0.164 3 
0.477 -0.236 0.164 3 
0.477 -0.246 0.164 3 
0.466 0.345 0.162 3 
0.477 -0.258 0.162 3 
0.478 -0.265 0.162 3 
0.474 -0.196 0.162 3 
0.479 -0.286 0.164 3 
0.479 -0.295 0.164 3 
0.464 0.27 0.155 3 
0.465 0.232 0.154 3 
0.465 0.223 0.154 3 
0.471 -0.135 0.083 3 
0.467 0.192 0.154 3 
0.467 0.183 0.154 3 
0.467 0.171 0.153 3 
0.467 0.163 0.153 3 
0.468 0.152 0.153 3 
0.468 0.323 0.164 3 
0.465 0.043 0.114 3 
0.48 -0.357 0.13 3 
0.473 -0.155 0.164 3 
0.474 -0.276 0.084 3 
0.481 -0.325 0.172 3 
0.47 -0.166 0.022 3 
0.482 -0.336 0.173 3 
0.483 -0.345 0.173 3 
0.466 0.338 0.164 3 
0.467 0.329 0.164 3 
0.464 0.334 0.12 3 
0.468 0.143 0.153 3 
0.468 0.313 0.164 3 
0.466 0.301 0.163 3 
0.467 0.292 0.163 3 
0.465 0.262 0.063 3 
0.467 0.283 0.162 3 
0.474 -0.175 0.162 3 
0.466 0.123 0.122 3 
0.474 -0.187 0.162 3 
0.47 -0.105 0.104 3 
0.473 -0.256 0.052 3 
0.467 -0.036 0.044 3 
0.467 0.305 0.154 3 
0.471 -0.086 0.154 3 
0.472 -0.095 0.154 3 
0.474 -0.245 0.092 3 
0.471 -0.106 0.154 3 
0.472 -0.117 0.154 3 
0.474 -0.211 0.157 3 
0.471 -0.167 0.033 3 
0.479 -0.305 0.161 3 
0.481 -0.317 0.162 3 
0.481 -0.328 0.163 3 
0.483 -0.337 0.164 3 
0.483 -0.348 0.164 3 
0.47 -0.075 0.153 3 
0.466 0.301 0.154 3 
0.466 0.294 0.154 3 
0.465 0.281 0.153 3 
0.466 0.263 0.153 3 
0.466 0.254 0.153 3 
0.465 0.244 0.152 3 
0.468 -0.137 0.014 3 
0.464 0.237 0.151 3 
0.465 0.183 0.084 3 
0.464 0.231 0.151 3 
0.467 0.212 0.152 3 
0.467 0.052 0.152 3 
0.465 0.122 0.063 3 
0.468 0.132 0.153 3 
0.467 0.123 0.153 3 
0.466 0.033 0.063 3 
0.467 0.112 0.153 3 
0.467 0.104 0.153 3 
0.468 0.093 0.153 3 
0.477 -0.267 0.142 3 
0.468 0.082 0.153 3 
0.467 0.074 0.152 3 
0.467 0.063 0.152 3 
0.467 0.203 0.152 3 
0.467 0.044 0.152 3 
0.466 0.033 0.152 3 
0.466 0.022 0.152 3 
0.466 0.014 0.152 3 
0.467 0.003 0.152 3 
0.467 -0.006 0.152 3 
0.468 -0.015 0.152 3 
0.47 -0.026 0.153 3 
0.469 -0.055 0.153 3 
0.462 0.331 0.062 3 
0.469 -0.066 0.153 3 
0.468 -0.066 0.123 3 
0.466 0.033 0.122 3 
0.465 0.022 0.122 3 
0.469 -0.157 0.014 3 
0.467 0.014 0.122 3 
0.467 0.003 0.122 3 
0.465 -0.076 0.012 3 
0.467 -0.006 0.122 3 
0.467 -0.015 0.122 3 
0.467 -0.025 0.122 3 
0.468 -0.036 0.122 3 
0.468 -0.047 0.123 3 
0.468 -0.055 0.123 3 
0.465 0.043 0.122 3 
0.469 -0.077 0.123 3 
0.469 -0.085 0.123 3 
0.47 -0.097 0.123 3 
0.475 -0.287 0.093 3 
0.47 -0.105 0.123 3 
0.471 -0.125 0.124 3 
0.471 -0.136 0.124 3 
0.471 -0.145 0.124 3 
0.466 0.342 0.094 3 
0.471 -0.17 0.124 3 
0.466 0.333 0.123 3 
0.466 0.193 0.123 3 
0.473 -0.275 0.044 3 
0.481 -0.337 0.133 3 
0.482 -0.345 0.133 3 
0.464 0.317 0.125 3 
0.468 -0.107 0.004 3 
0.465 0.277 0.124 3 
0.465 0.273 0.124 3 
0.465 0.264 0.124 3 
0.465 0.243 0.124 3 
0.465 0.234 0.124 3 
0.466 0.214 0.124 3 
0.466 0.204 0.123 3 
0.466 0.323 0.123 3 
0.465 0.184 0.123 3 
0.465 0.172 0.123 3 
0.465 0.164 0.123 3 
0.466 0.153 0.123 3 
0.466 0.134 0.122 3 
0.466 0.114 0.122 3 
0.466 0.103 0.122 3 
0.466 0.092 0.122 3 
0.466 0.073 0.122 3 
0.465 0.062 0.122 3 
0.466 0.054 0.122 3 
0.466 0.122 0.114 3 
0.48 -0.346 0.124 3 
0.478 -0.355 0.124 3 
0.464 0.23 0.115 3 
0.464 0.224 0.115 3 
0.465 0.178 0.114 3 
0.465 0.172 0.114 3 
0.478 -0.325 0.064 3 
0.465 0.164 0.114 3 
0.466 0.153 0.114 3 
0.466 0.204 0.112 3 
0.465 0.144 0.114 3 
0.466 0.134 0.114 3 
0.48 -0.336 0.124 3 
0.464 0.29 0.077 3 
0.466 0.114 0.114 3 
0.465 0.103 0.114 3 
0.466 0.092 0.114 3 
0.465 0.084 0.114 3 
0.477 -0.317 0.043 3 
0.465 0.073 0.114 3 
0.465 0.062 0.114 3 
0.464 0.244 0.082 3 
0.466 0.054 0.114 3 
0.475 0.356 0.199 3 
0.464 0.113 0.012 3 
0.464 0.314 0.122 3 
0.465 0.312 0.122 3 
0.465 0.302 0.122 3 
0.466 0.293 0.122 3 
0.464 0.239 0.121 3 
0.472 -0.176 0.122 3 
0.473 -0.185 0.122 3 
0.474 -0.195 0.122 3 
0.473 -0.206 0.122 3 
0.474 -0.215 0.123 3 
0.475 -0.222 0.123 3 
0.48 -0.326 0.132 3 
0.475 -0.225 0.123 3 
0.474 -0.227 0.123 3 
0.474 -0.236 0.123 3 
0.474 -0.245 0.123 3 
0.475 -0.259 0.124 3 
0.475 -0.265 0.124 3 
0.475 -0.237 0.12 3 
0.475 -0.246 0.121 3 
0.476 -0.285 0.122 3 
0.48 -0.308 0.123 3 
0.481 -0.326 0.124 3 
0.469 -0.066 0.134 3 
0.466 0.033 0.133 3 
0.466 0.022 0.133 3 
0.467 0.014 0.133 3 
0.468 0.003 0.133 3 
0.467 -0.006 0.133 3 
0.472 -0.216 0.064 3 
0.467 -0.015 0.133 3 
0.468 -0.025 0.133 3 
0.465 0.258 0.113 3 
0.468 -0.036 0.133 3 
0.47 -0.047 0.134 3 
0.469 -0.055 0.134 3 
0.466 0.044 0.133 3 
0.469 -0.077 0.134 3 
0.47 -0.097 0.134 3 
0.481 -0.327 0.142 3 
0.483 -0.336 0.142 3 
0.483 -0.347 0.143 3 
0.463 0.34 0.134 3 
0.466 0.323 0.134 3 
0.466 0.343 0.123 3 
0.464 0.314 0.134 3 
0.465 0.302 0.134 3 
0.465 0.293 0.133 3 
0.465 0.161 0.133 3 
0.477 -0.277 0.142 3 
0.479 -0.285 0.143 3 
0.47 -0.207 0.014 3 
0.479 -0.295 0.143 3 
0.48 -0.306 0.144 3 
0.481 -0.317 0.144 3 
0.465 0.21 0.134 3 
0.465 0.202 0.134 3 
0.466 0.193 0.134 3 
0.466 0.182 0.134 3 
0.466 0.173 0.134 3 
0.465 0.314 0.071 3 
0.465 0.153 0.133 3 
0.466 0.134 0.133 3 
0.466 0.123 0.133 3 
0.466 0.114 0.133 3 
0.466 0.103 0.133 3 
0.466 0.092 0.133 3 
0.466 0.084 0.133 3 
0.466 -0.007 0.084 3 
0.467 0.074 0.133 3 
0.466 0.063 0.133 3 
0.466 0.054 0.133 3 
0.474 -0.24 0.132 3 
0.474 -0.215 0.134 3 
0.465 0.203 0.082 3 
0.475 -0.219 0.134 3 
0.465 0.084 0.063 3 
0.474 -0.23 0.134 3 
0.474 -0.237 0.135 3 
0.465 0.343 0.132 3 
0.467 0.334 0.132 3 
0.464 0.292 0.13 3 
0.464 0.233 0.129 3 
0.475 -0.225 0.132 3 
0.475 -0.237 0.132 3 
0.474 -0.206 0.134 3 
0.475 -0.246 0.132 3 
0.465 0.25 0.079 3 
0.475 -0.265 0.133 3 
0.48 -0.348 0.064 3 
0.47 -0.166 0.044 3 
0.476 -0.275 0.133 3 
0.479 -0.288 0.134 3 
0.479 -0.298 0.134 3 
0.474 -0.246 0.129 3 
0.48 -0.305 0.132 3 
0.481 -0.316 0.132 3 
0.465 0.234 0.132 3 
0.465 0.283 0.133 3 
0.466 0.271 0.133 3 
0.466 0.262 0.133 3 
0.464 0.132 0.022 3 
0.465 0.252 0.132 3 
0.464 0.248 0.132 3 
0.477 -0.305 0.084 3 
0.465 0.243 0.132 3 
0.464 0.239 0.132 3 
0.464 0.248 0.121 3 
0.466 0.014 0.063 3 
0.47 -0.086 0.134 3 
0.465 0.222 0.132 3 
0.47 -0.116 0.132 3 
0.47 -0.127 0.132 3 
0.477 -0.317 0.032 3 
0.471 -0.136 0.132 3 
0.471 -0.145 0.132 3 
0.472 -0.156 0.133 3 
0.472 -0.165 0.133 3 
0.472 -0.177 0.133 3 
0.472 -0.185 0.133 3 
0.474 -0.198 0.134 3 
0.47 0.174 0.183 3 
0.484 -0.315 0.197 3 
0.471 -0.216 0.044 3 
0.473 0.353 0.192 3 
0.468 0.241 0.184 3 
0.468 0.232 0.184 3 
0.465 0.163 0.084 3 
0.469 0.224 0.184 3 
0.469 0.212 0.184 3 
0.468 0.202 0.183 3 
0.466 0.043 0.103 3 
0.469 0.194 0.183 3 
0.47 0.183 0.183 3 
0.463 0.314 0.014 3 
0.474 -0.167 0.173 3 
0.471 -0.136 0.143 3 
0.469 0.162 0.182 3 
0.469 0.153 0.182 3 
0.47 0.142 0.182 3 
0.47 0.134 0.182 3 
0.475 -0.278 0.124 3 
0.472 0.123 0.182 3 
0.469 -0.105 0.134 3 
0.472 0.112 0.182 3 
0.472 0.103 0.182 3 
0.474 0.034 0.185 3 
0.485 -0.316 0.2 3 
0.487 -0.325 0.202 3 
0.488 -0.337 0.203 3 
0.488 -0.345 0.203 3 
0.473 0.349 0.195 3 
0.473 0.339 0.194 3 
0.473 0.33 0.193 3 
0.472 -0.147 0.094 3 
0.473 0.323 0.193 3 
0.472 0.312 0.192 3 
0.471 0.067 0.184 3 
0.474 0.042 0.185 3 
0.471 0.092 0.182 3 
0.474 -0.037 0.185 3 
0.474 -0.046 0.186 3 
0.478 -0.236 0.191 3 
0.465 0.252 0.124 3 
0.465 0.186 0.06 3 
0.48 -0.249 0.192 3 
0.464 0.258 0.063 3 
0.48 -0.255 0.192 3 
0.469 -0.077 0.074 3 
0.481 -0.266 0.193 3 
0.484 -0.305 0.196 3 
0.476 -0.125 0.184 3 
0.474 -0.065 0.183 3 
0.475 -0.071 0.183 3 
0.474 -0.076 0.183 3 
0.475 -0.079 0.183 3 
0.466 0.003 0.092 3 
0.475 -0.085 0.183 3 
0.466 0.233 0.163 3 
0.476 -0.096 0.184 3 
0.464 0.203 0.098 3 
0.477 -0.105 0.184 3 
0.472 -0.167 0.102 3 
0.476 -0.119 0.184 3 
0.474 -0.059 0.182 3 
0.481 -0.275 0.191 3 
0.484 -0.285 0.192 3 
0.465 0.267 0.093 3 
0.486 -0.3 0.194 3 
0.472 -0.205 0.044 3 
0.484 -0.301 0.193 3 
0.465 0.144 0.133 3 
0.484 -0.305 0.193 3 
0.484 -0.315 0.194 3 
0.485 -0.32 0.194 3 
0.475 0.359 0.19 3 
0.464 0.303 0.082 3 
0.466 -0.036 0.004 3 
0.472 0.084 0.182 3 
0.466 0.043 0.074 3 
0.472 0.064 0.182 3 
0.472 0.053 0.182 3 
0.473 0.042 0.182 3 
0.467 0.112 0.164 3 
0.477 -0.318 0.014 3 
0.474 0.034 0.182 3 
0.473 0.023 0.182 3 
0.472 0.014 0.182 3 
0.485 -0.306 0.2 3 
0.472 0.003 0.182 3 
0.465 0.247 0.071 3 
0.473 -0.007 0.182 3 
0.481 -0.316 0.123 3 
0.473 -0.015 0.182 3 
0.472 -0.026 0.182 3 
0.472 -0.037 0.173 3 
0.473 -0.037 0.182 3 
0.474 -0.045 0.182 3 
0.469 -0.055 0.063 3 
0.475 -0.057 0.183 3 
0.473 0.093 0.188 3 
0.472 0.173 0.19 3 
0.473 0.164 0.19 3 
0.471 0.152 0.189 3 
0.466 0.084 0.122 3 
0.464 0.278 0.091 3 
0.471 0.143 0.189 3 
0.473 0.132 0.189 3 
0.473 0.124 0.189 3 
0.474 0.073 0.188 3 
0.473 0.112 0.188 3 
0.468 0.278 0.174 3 
0.472 0.103 0.188 3 
0.472 0.184 0.19 3 
0.473 0.084 0.188 3 
0.473 0.062 0.188 3 
0.474 0.054 0.188 3 
0.475 0.051 0.189 3 
0.47 -0.045 0.142 3 
0.475 0.043 0.189 3 
0.475 0.034 0.189 3 
0.474 0.023 0.188 3 
0.473 0.012 0.188 3 
0.473 0.003 0.188 3 
0.474 -0.007 0.188 3 
0.471 0.282 0.193 3 
0.478 -0.296 0.122 3 
0.475 0.352 0.199 3 
0.474 0.343 0.198 3 
0.472 0.334 0.197 3 
0.473 0.324 0.196 3 
0.471 -0.155 0.102 3 
0.473 0.313 0.195 3 
0.47 -0.175 0.003 3 
0.473 0.303 0.195 3 
0.473 0.297 0.194 3 
0.473 0.293 0.194 3 
0.475 -0.012 0.189 3 
0.47 0.271 0.192 3 
0.471 0.262 0.192 3 
0.472 0.254 0.192 3 
0.471 0.244 0.191 3 
0.47 0.234 0.191 3 
0.47 0.222 0.19 3 
0.469 -0.036 0.144 3 
0.47 0.213 0.19 3 
0.476 -0.297 0.023 3 
0.469 0.203 0.189 3 
0.471 0.192 0.19 3 
0.479 -0.237 0.195 3 
0.479 -0.155 0.192 3 
0.471 0.338 0.184 3 
0.478 -0.166 0.192 3 
0.469 -0.066 0.074 3 
0.478 -0.175 0.192 3 
0.478 -0.187 0.192 3 
0.478 -0.196 0.193 3 
0.479 -0.206 0.193 3 
0.474 -0.127 0.172 3 
0.48 -0.216 0.194 3 
0.48 -0.225 0.195 3 
0.479 -0.233 0.194 3 
0.478 -0.146 0.191 3 
0.478 -0.245 0.195 3 
0.481 -0.256 0.196 3 
0.465 0.083 0.023 3 
0.482 -0.267 0.197 3 
0.483 -0.277 0.198 3 
0.463 0.322 0.054 3 
0.485 -0.286 0.199 3 
0.484 -0.292 0.199 3 
0.484 -0.295 0.199 3 
0.487 -0.301 0.2 3 
0.471 -0.178 0.052 3 
0.476 -0.077 0.189 3 
0.475 -0.015 0.189 3 
0.474 -0.018 0.188 3 
0.475 -0.026 0.189 3 
0.476 -0.257 0.133 3 
0.474 -0.029 0.188 3 
0.475 -0.035 0.189 3 
0.475 -0.046 0.189 3 
0.475 -0.057 0.188 3 
0.474 -0.205 0.154 3 
0.475 -0.065 0.189 3 
0.468 -0.126 0.014 3 
0.47 0.296 0.184 3 
0.47 -0.045 0.153 3 
0.465 0.312 0.134 3 
0.476 -0.085 0.189 3 
0.477 -0.097 0.19 3 
0.477 -0.105 0.19 3 
0.478 -0.117 0.191 3 
0.478 -0.356 0.052 3 
0.478 -0.126 0.191 3 
0.47 -0.036 0.153 3 
0.478 -0.137 0.191 3 
0.479 -0.317 0.102 3 
0.475 -0.227 0.172 3 
0.484 -0.346 0.183 3 
0.466 0.343 0.174 3 
0.468 0.334 0.174 3 
0.468 0.324 0.173 3 
0.468 0.314 0.173 3 
0.474 -0.193 0.171 3 
0.476 -0.206 0.172 3 
0.465 0.114 0.063 3 
0.475 -0.215 0.172 3 
0.473 -0.166 0.164 3 
0.475 -0.217 0.154 3 
0.474 -0.22 0.172 3 
0.484 -0.335 0.183 3 
0.478 -0.237 0.173 3 
0.478 -0.247 0.174 3 
0.473 -0.205 0.083 3 
0.478 -0.256 0.174 3 
0.467 0.347 0.171 3 
0.468 0.144 0.164 3 
0.468 0.132 0.164 3 
0.468 0.124 0.164 3 
0.467 0.104 0.164 3 
0.468 0.093 0.164 3 
0.469 0.083 0.164 3 
0.464 0.272 0.107 3 
0.464 0.342 0.143 3 
0.475 -0.237 0.103 3 
0.466 0.264 0.173 3 
0.465 0.253 0.172 3 
0.466 0.242 0.172 3 
0.474 -0.257 0.072 3 
0.467 0.222 0.172 3 
0.468 0.214 0.172 3 
0.474 -0.107 0.172 3 
0.474 -0.115 0.172 3 
0.475 -0.13 0.173 3 
0.475 -0.136 0.173 3 
0.469 0.074 0.164 3 
0.474 -0.138 0.172 3 
0.474 -0.147 0.173 3 
0.474 -0.155 0.173 3 
0.475 -0.164 0.173 3 
0.475 -0.17 0.173 3 
0.469 -0.096 0.052 3 
0.475 -0.176 0.174 3 
0.476 -0.186 0.174 3 
0.466 -0.087 0.012 3 
0.475 -0.197 0.174 3 
0.483 -0.327 0.182 3 
0.468 0.163 0.162 3 
0.466 0.269 0.164 3 
0.465 0.262 0.164 3 
0.465 0.274 0.153 3 
0.465 0.253 0.164 3 
0.466 0.242 0.164 3 
0.467 0.224 0.163 3 
0.467 0.213 0.163 3 
0.467 0.204 0.163 3 
0.467 0.192 0.163 3 
0.467 0.183 0.162 3 
0.471 -0.116 0.124 3 
0.467 0.172 0.162 3 
0.475 0.357 0.171 3 
0.467 -0.036 0.103 3 
0.465 0.282 0.082 3 
0.468 0.152 0.162 3 
0.471 -0.075 0.162 3 
0.471 -0.086 0.162 3 
0.472 -0.095 0.163 3 
0.465 0.113 0.044 3 
0.473 -0.106 0.163 3 
0.464 0.283 0.023 3 
0.473 -0.115 0.163 3 
0.473 -0.126 0.163 3 
0.471 -0.037 0.164 3 
0.468 0.063 0.164 3 
0.465 0.222 0.124 3 
0.468 0.044 0.164 3 
0.469 0.033 0.164 3 
0.479 -0.326 0.082 3 
0.47 0.023 0.164 3 
0.469 0.014 0.164 3 
0.469 0.003 0.164 3 
0.469 -0.007 0.164 3 
0.47 -0.015 0.164 3 
0.471 -0.026 0.164 3 
0.481 -0.308 0.174 3 
0.471 -0.045 0.164 3 
0.47 -0.056 0.164 3 
0.47 -0.067 0.164 3 
0.474 -0.175 0.168 3 
0.474 -0.196 0.168 3 
0.467 0.063 0.144 3 
0.479 -0.266 0.172 3 
0.479 -0.276 0.172 3 
0.479 -0.286 0.172 3 
0.481 -0.298 0.174 3 
0.481 -0.315 0.174 3 
0.469 0.351 0.181 3 
0.467 -0.007 0.044 3 
0.471 0.331 0.184 3 
0.471 0.324 0.183 3 
0.469 0.312 0.182 3 
0.464 0.294 0.085 3 
0.474 -0.13 0.178 3 
0.474 -0.138 0.178 3 
0.477 -0.225 0.182 3 
0.477 -0.235 0.182 3 
0.478 -0.247 0.182 3 
0.479 -0.257 0.183 3 
0.48 -0.265 0.184 3 
0.487 -0.347 0.194 3 
0.467 -0.007 0.063 3 
0.466 0.227 0.174 3 
0.467 0.201 0.174 3 
0.467 0.192 0.174 3 
0.464 0.271 0.032 3 
0.469 0.182 0.174 3 
0.469 0.173 0.174 3 
0.468 0.164 0.174 3 
0.468 0.152 0.173 3 
0.468 0.144 0.173 3 
0.469 0.133 0.173 3 
0.477 -0.177 0.183 3 
0.47 0.293 0.184 3 
0.47 0.283 0.184 3 
0.47 0.274 0.183 3 
0.472 -0.225 0.052 3 
0.469 0.263 0.183 3 
0.467 0.252 0.181 3 
0.474 -0.087 0.18 3 
0.476 -0.136 0.182 3 
0.476 -0.145 0.182 3 
0.476 -0.156 0.182 3 
0.476 -0.165 0.182 3 
0.476 -0.245 0.152 3 
0.478 -0.187 0.184 3 
0.467 0.054 0.074 3 
0.478 -0.196 0.184 3 
0.466 0.014 0.144 3 
0.477 -0.207 0.184 3 
0.477 -0.219 0.184 3 
0.47 -0.177 0.074 3 
0.465 0.054 0.004 3 
0.486 -0.327 0.192 3 
0.472 -0.196 0.052 3 
0.487 -0.336 0.193 3 
0.485 -0.288 0.184 3 
0.473 -0.065 0.174 3 
0.466 0.103 0.044 3 
0.462 0.213 0.014 3 
0.472 -0.075 0.173 3 
0.473 -0.087 0.174 3 
0.474 -0.096 0.174 3 
0.474 -0.098 0.175 3 
0.474 -0.121 0.175 3 
0.474 -0.147 0.175 3 
0.464 0.203 0.033 3 
0.474 -0.167 0.176 3 
0.481 -0.275 0.182 3 
0.466 0.003 0.103 3 
0.466 0.054 0.052 3 
0.482 -0.289 0.183 3 
0.466 0.294 0.142 3 
0.484 -0.298 0.184 3 
0.482 -0.306 0.183 3 
0.483 -0.317 0.184 3 
0.472 -0.187 0.094 3 
0.484 -0.325 0.185 3 
0.466 0.302 0.174 3 
0.468 0.288 0.174 3 
0.468 0.272 0.174 3 
0.464 0.313 0.085 3 
0.47 0.122 0.173 3 
0.471 -0.097 0.143 3 
0.469 0.113 0.173 3 
0.469 0.102 0.173 3 
0.466 0.142 0.123 3 
0.469 0.094 0.173 3 
0.47 0.083 0.173 3 
0.47 0.072 0.173 3 
0.47 0.064 0.173 3 
0.469 0.053 0.172 3 
0.47 0.044 0.173 3 
0.474 -0.135 0.164 3 
0.471 0.034 0.173 3 
0.468 0.052 0.164 3 
0.472 0.023 0.173 3 
0.471 0.014 0.173 3 
0.47 0.003 0.173 3 
0.47 -0.007 0.173 3 
0.47 -0.015 0.173 3 
0.47 -0.026 0.173 3 
0.463 0.104 0.012 3 
0.472 -0.045 0.173 3 
0.472 -0.056 0.173 3 
0.464 0.214 0.043 3 
0.463 0.302 0.043 3 
0.468 -0.066 0.044 3 
0.464 0.293 0.043 3 
0.464 0.283 0.043 3 
0.465 0.281 0.043 3 
0.464 0.274 0.043 3 
0.463 0.264 0.043 3 
0.468 -0.055 0.033 3 
0.463 0.222 0.024 3 
0.463 0.252 0.043 3 
0.463 0.243 0.043 3 
0.464 0.223 0.043 3 
0.463 0.312 0.043 3 
0.464 0.202 0.043 3 
0.464 0.194 0.044 3 
0.464 0.182 0.044 3 
0.464 0.174 0.044 3 
0.464 0.163 0.044 3 
0.464 0.154 0.044 3 
0.465 0.149 0.044 3 
0.464 0.143 0.044 3 
0.465 0.141 0.044 3 
0.465 0.133 0.044 3 
0.474 -0.295 0.009 3 
0.473 -0.266 0.052 3 
0.47 -0.105 0.052 3 
0.469 -0.115 0.052 3 
0.469 -0.126 0.052 3 
0.47 -0.135 0.052 3 
0.47 -0.146 0.052 3 
0.47 -0.155 0.052 3 
0.47 -0.166 0.052 3 
0.471 -0.187 0.052 3 
0.472 -0.208 0.052 3 
0.471 -0.216 0.052 3 
0.474 -0.236 0.052 3 
0.473 -0.247 0.052 3 
0.465 0.124 0.044 3 
0.473 -0.275 0.052 3 
0.473 -0.285 0.052 3 
0.475 -0.295 0.052 3 
0.476 -0.306 0.052 3 
0.477 -0.317 0.052 3 
0.478 -0.328 0.052 3 
0.479 -0.336 0.052 3 
0.464 0.163 0.046 3 
0.475 -0.289 0.047 3 
0.46 0.335 0.043 3 
0.461 0.333 0.042 3 
0.464 0.113 0.039 3 
0.473 -0.226 0.044 3 
0.473 -0.235 0.044 3 
0.473 -0.247 0.044 3 
0.472 -0.265 0.044 3 
0.474 -0.285 0.044 3 
0.475 -0.295 0.044 3 
0.476 -0.306 0.044 3 
0.477 -0.327 0.043 3 
0.478 -0.335 0.043 3 
0.479 -0.347 0.043 3 
0.478 -0.356 0.043 3 
0.465 0.206 0.038 3 
0.471 -0.195 0.044 3 
0.46 0.335 0.034 3 
0.46 0.332 0.034 3 
0.463 0.322 0.034 3 
0.464 0.313 0.034 3 
0.464 0.302 0.034 3 
0.464 0.293 0.034 3 
0.464 0.283 0.034 3 
0.465 0.281 0.034 3 
0.465 0.272 0.035 3 
0.464 0.116 0.036 3 
0.475 -0.283 0.035 3 
0.468 -0.055 0.044 3 
0.466 0.094 0.044 3 
0.466 0.084 0.044 3 
0.465 0.073 0.044 3 
0.466 0.054 0.044 3 
0.466 0.032 0.044 3 
0.466 0.024 0.044 3 
0.466 0.014 0.044 3 
0.467 0.003 0.044 3 
0.467 -0.015 0.044 3 
0.467 -0.025 0.044 3 
0.468 -0.047 0.044 3 
0.467 -0.085 0.052 3 
0.467 -0.077 0.044 3 
0.468 -0.085 0.044 3 
0.47 -0.096 0.044 3 
0.47 -0.105 0.044 3 
0.469 -0.115 0.044 3 
0.47 -0.127 0.044 3 
0.47 -0.135 0.044 3 
0.471 -0.147 0.044 3 
0.471 -0.155 0.044 3 
0.471 -0.175 0.044 3 
0.471 -0.187 0.044 3 
0.474 -0.245 0.064 3 
0.47 -0.135 0.063 3 
0.47 -0.146 0.063 3 
0.471 -0.155 0.063 3 
0.471 -0.166 0.063 3 
0.471 -0.175 0.063 3 
0.463 0.213 0.024 3 
0.472 -0.187 0.063 3 
0.472 -0.196 0.064 3 
0.475 -0.292 0.044 3 
0.472 -0.205 0.064 3 
0.473 -0.226 0.064 3 
0.474 -0.236 0.064 3 
0.469 -0.126 0.063 3 
0.473 -0.256 0.064 3 
0.473 -0.266 0.064 3 
0.474 -0.276 0.064 3 
0.474 -0.286 0.064 3 
0.475 -0.293 0.064 3 
0.476 -0.297 0.064 3 
0.463 0.243 0.054 3 
0.477 -0.307 0.064 3 
0.478 -0.318 0.064 3 
0.479 -0.336 0.064 3 
0.477 -0.355 0.064 3 
0.467 -0.015 0.063 3 
0.465 0.183 0.063 3 
0.465 0.172 0.063 3 
0.465 0.163 0.063 3 
0.465 0.144 0.063 3 
0.466 0.133 0.063 3 
0.466 0.103 0.063 3 
0.465 0.094 0.063 3 
0.467 0.073 0.063 3 
0.467 0.054 0.063 3 
0.466 0.024 0.063 3 
0.466 0.003 0.063 3 
0.464 0.146 0.052 3 
0.468 -0.025 0.063 3 
0.467 -0.036 0.063 3 
0.468 -0.047 0.063 3 
0.469 -0.066 0.063 3 
0.463 0.162 0.033 3 
0.469 -0.077 0.063 3 
0.469 -0.085 0.063 3 
0.47 -0.097 0.063 3 
0.47 -0.105 0.063 3 
0.47 -0.116 0.063 3 
0.48 -0.348 0.052 3 
0.466 0.032 0.052 3 
0.465 0.18 0.054 3 
0.464 0.174 0.052 3 
0.465 0.163 0.052 3 
0.465 0.152 0.052 3 
0.465 0.144 0.052 3 
0.465 0.133 0.052 3 
0.466 0.103 0.052 3 
0.465 0.094 0.052 3 
0.466 0.084 0.052 3 
0.467 0.073 0.052 3 
0.466 0.062 0.052 3 
0.467 0.043 0.052 3 
0.464 0.182 0.054 3 
0.466 0.024 0.052 3 
0.467 0.014 0.052 3 
0.467 -0.007 0.052 3 
0.466 -0.015 0.052 3 
0.467 -0.025 0.052 3 
0.463 0.283 0.012 3 
0.467 -0.036 0.052 3 
0.468 -0.047 0.052 3 
0.468 -0.055 0.052 3 
0.468 -0.066 0.052 3 
0.467 -0.077 0.052 3 
0.465 0.269 0.054 3 
0.464 0.182 0.06 3 
0.474 -0.295 0.061 3 
0.465 0.253 0.057 3 
0.466 0.003 0.052 3 
0.464 0.22 0.057 3 
0.463 0.339 0.054 3 
0.462 0.334 0.054 3 
0.464 0.303 0.054 3 
0.463 0.293 0.054 3 
0.465 0.284 0.054 3 
0.464 0.28 0.054 3 
0.478 -0.328 0.034 3 
0.465 0.262 0.054 3 
0.464 0.258 0.054 3 
0.465 0.253 0.054 3 
0.464 0.249 0.054 3 
0.464 0.232 0.054 3 
0.464 0.223 0.054 3 
0.464 0.214 0.054 3 
0.465 0.209 0.054 3 
0.465 0.203 0.054 3 
0.464 0.2 0.054 3 
0.464 0.194 0.054 3 
0.477 -0.328 0.014 3 
0.471 -0.207 0.022 3 
0.465 0.127 0.02 3 
0.464 0.083 0.02 3 
0.464 0.07 0.02 3 
0.464 0.064 0.02 3 
0.464 0.054 0.02 3 
0.474 -0.356 0.017 3 
0.461 0.33 0.014 3 
0.463 0.324 0.014 3 
0.474 -0.285 0.015 3 
0.477 -0.301 0.014 3 
0.477 -0.308 0.014 3 
0.471 -0.195 0.022 3 
0.477 -0.335 0.014 3 
0.478 -0.346 0.013 3 
0.462 0.304 0.012 3 
0.463 0.292 0.012 3 
0.462 0.263 0.013 3 
0.462 0.254 0.013 3 
0.462 0.233 0.013 3 
0.462 0.224 0.013 3 
0.462 0.204 0.014 3 
0.462 0.193 0.014 3 
0.463 0.182 0.014 3 
0.467 -0.055 0.023 3 
0.465 0.073 0.023 3 
0.465 0.064 0.023 3 
0.465 0.054 0.023 3 
0.465 0.032 0.023 3 
0.466 0.024 0.023 3 
0.466 0.014 0.023 3 
0.467 0.003 0.023 3 
0.467 -0.007 0.023 3 
0.466 -0.015 0.023 3 
0.466 -0.025 0.023 3 
0.467 -0.036 0.023 3 
0.467 -0.047 0.023 3 
0.462 0.173 0.014 3 
0.467 -0.066 0.023 3 
0.468 -0.077 0.023 3 
0.468 -0.096 0.023 3 
0.469 -0.107 0.023 3 
0.469 -0.115 0.023 3 
0.469 -0.126 0.023 3 
0.469 -0.135 0.022 3 
0.47 -0.146 0.022 3 
0.47 -0.155 0.022 3 
0.47 -0.175 0.022 3 
0.47 -0.186 0.022 3 
0.465 0.046 0.007 3 
0.464 -0.025 0.012 3 
0.465 -0.036 0.012 3 
0.464 -0.039 0.012 3 
0.464 -0.047 0.012 3 
0.465 -0.052 0.012 3 
0.465 -0.055 0.012 3 
0.466 -0.065 0.012 3 
0.466 -0.095 0.012 3 
0.467 -0.106 0.012 3 
0.467 -0.115 0.012 3 
0.474 -0.353 0.008 3 
0.465 -0.028 0.01 3 
0.465 -0.015 0.012 3 
0.465 0.043 0.007 3 
0.465 0.043 0.004 3 
0.464 0.032 0.004 3 
0.467 -0.026 0.004 3 
0.467 -0.047 0.004 3 
0.469 -0.055 0.004 3 
0.467 -0.066 0.004 3 
0.468 -0.115 0.004 3 
0.47 -0.166 0.003 3 
0.465 0.141 0.001 3 
0.465 0.032 0.002 3 
0.471 -0.228 0.013 3 
0.462 0.162 0.014 3 
0.463 0.154 0.014 3 
0.462 0.134 0.014 3 
0.464 0.043 0.015 3 
0.464 -0.025 0.015 3 
0.468 -0.145 0.014 3 
0.468 -0.165 0.014 3 
0.469 -0.177 0.014 3 
0.469 -0.186 0.014 3 
0.47 -0.198 0.014 3 
0.47 -0.215 0.014 3 
0.465 0.091 0.023 3 
0.472 -0.238 0.013 3 
0.472 -0.247 0.013 3 
0.473 -0.256 0.013 3 
0.473 -0.278 0.012 3 
0.475 -0.293 0.012 3 
0.463 0.094 0.012 3 
0.463 0.083 0.012 3 
0.463 0.072 0.012 3 
0.463 0.064 0.012 3 
0.463 0.053 0.012 3 
0.464 0.043 0.012 3 
0.469 -0.096 0.033 3 
0.466 0.032 0.034 3 
0.468 -0.085 0.023 3 
0.466 0.024 0.034 3 
0.467 0.014 0.033 3 
0.467 0.003 0.034 3 
0.467 -0.007 0.034 3 
0.467 -0.015 0.034 3 
0.466 -0.025 0.034 3 
0.468 -0.036 0.033 3 
0.467 -0.047 0.034 3 
0.468 -0.077 0.033 3 
0.469 -0.085 0.033 3 
0.466 0.043 0.033 3 
0.47 -0.105 0.033 3 
0.47 -0.116 0.033 3 
0.464 0.121 0.014 3 
0.47 -0.127 0.033 3 
0.47 -0.135 0.033 3 
0.471 -0.147 0.033 3 
0.471 -0.155 0.033 3 
0.47 -0.175 0.033 3 
0.471 -0.187 0.033 3 
0.472 -0.196 0.033 3 
0.471 -0.207 0.033 3 
0.464 0.194 0.033 3 
0.478 -0.335 0.034 3 
0.479 -0.347 0.034 3 
0.478 -0.357 0.034 3 
0.465 0.287 0.032 3 
0.463 0.264 0.032 3 
0.462 0.251 0.032 3 
0.463 0.243 0.032 3 
0.463 0.234 0.032 3 
0.465 0.062 0.004 3 
0.464 0.223 0.032 3 
0.464 0.214 0.032 3 
0.471 -0.216 0.033 3 
0.464 0.174 0.033 3 
0.464 0.154 0.033 3 
0.465 0.144 0.033 3 
0.465 0.133 0.033 3 
0.464 0.124 0.033 3 
0.465 0.113 0.033 3 
0.466 0.103 0.033 3 
0.465 0.094 0.033 3 
0.466 0.073 0.033 3 
0.466 0.062 0.033 3 
0.466 0.054 0.033 3 
0.479 -0.337 0.022 3 
0.463 0.202 0.024 3 
0.464 0.102 0.025 3 
0.472 -0.217 0.024 3 
0.471 -0.225 0.024 3 
0.473 -0.257 0.024 3 
0.474 -0.266 0.024 3 
0.474 -0.275 0.024 3 
0.475 -0.283 0.024 3 
0.475 -0.286 0.024 3 
0.477 -0.307 0.023 3 
0.477 -0.317 0.023 3 
0.477 -0.328 0.023 3 
0.463 0.234 0.024 3 
0.477 -0.356 0.022 3 
0.464 0.183 0.022 3 
0.464 0.174 0.022 3 
0.464 0.163 0.022 3 
0.464 0.154 0.022 3 
0.463 0.143 0.022 3 
0.465 0.124 0.022 3 
0.464 0.113 0.023 3 
0.464 0.102 0.023 3 
0.465 0.097 0.023 3 
0.464 0.094 0.023 3 
0.464 0.143 0.028 3 
0.472 -0.226 0.033 3 
0.472 -0.235 0.033 3 
0.473 -0.247 0.033 3 
0.473 -0.257 0.032 3 
0.473 -0.266 0.032 3 
0.474 -0.275 0.032 3 
0.475 -0.283 0.032 3 
0.475 -0.286 0.032 3 
0.476 -0.296 0.032 3 
0.477 -0.307 0.032 3 
0.465 0.116 0.031 3 
0.464 0.194 0.063 3 
0.464 0.132 0.028 3 
0.462 0.338 0.022 3 
0.461 0.333 0.023 3 
0.463 0.322 0.023 3 
0.474 -0.356 0.014 3 
0.463 0.314 0.023 3 
0.463 0.301 0.023 3 
0.465 0.278 0.023 3 
0.463 0.264 0.024 3 
0.463 0.252 0.024 3 
0.463 0.243 0.024 3 
0.477 -0.289 0.104 3 
0.47 -0.147 0.102 3 
0.472 -0.176 0.102 3 
0.473 -0.188 0.103 3 
0.473 -0.197 0.103 3 
0.473 -0.205 0.103 3 
0.474 -0.218 0.103 3 
0.474 -0.227 0.103 3 
0.475 -0.246 0.104 3 
0.474 -0.251 0.103 3 
0.474 -0.257 0.104 3 
0.474 -0.267 0.104 3 
0.475 -0.277 0.104 3 
0.465 0.273 0.102 3 
0.466 0.343 0.1 3 
0.464 0.226 0.098 3 
0.463 0.273 0.012 3 
0.474 -0.236 0.1 3 
0.474 -0.276 0.101 3 
0.477 -0.295 0.102 3 
0.479 -0.307 0.102 3 
0.479 -0.327 0.102 3 
0.479 -0.338 0.103 3 
0.481 -0.347 0.103 3 
0.478 -0.357 0.103 3 
0.47 -0.135 0.104 3 
0.467 -0.015 0.103 3 
0.467 -0.025 0.103 3 
0.468 -0.047 0.104 3 
0.468 -0.055 0.104 3 
0.468 -0.066 0.104 3 
0.469 -0.077 0.104 3 
0.469 -0.085 0.104 3 
0.464 0.232 0.043 3 
0.47 -0.097 0.104 3 
0.469 -0.116 0.104 3 
0.465 0.272 0.063 3 
0.469 -0.127 0.104 3 
0.466 0.062 0.044 3 
0.472 -0.238 0.024 3 
0.464 0.34 0.103 3 
0.463 0.332 0.102 3 
0.465 0.331 0.103 3 
0.465 0.321 0.103 3 
0.466 0.312 0.103 3 
0.466 0.302 0.102 3 
0.466 0.293 0.102 3 
0.465 0.282 0.102 3 
0.464 0.275 0.102 3 
0.463 0.332 0.082 3 
0.465 0.062 0.092 3 
0.466 0.164 0.093 3 
0.465 0.152 0.093 3 
0.465 0.144 0.092 3 
0.464 0.062 0.026 3 
0.465 0.133 0.092 3 
0.465 0.122 0.092 3 
0.466 0.114 0.093 3 
0.466 0.103 0.093 3 
0.465 0.092 0.092 3 
0.464 0.113 0.028 3 
0.465 0.084 0.092 3 
0.465 0.073 0.092 3 
0.466 0.173 0.093 3 
0.464 0.121 0.023 3 
0.465 0.054 0.092 3 
0.466 0.043 0.092 3 
0.467 0.033 0.092 3 
0.466 0.022 0.092 3 
0.467 0.014 0.092 3 
0.466 -0.007 0.092 3 
0.466 -0.015 0.092 3 
0.468 -0.025 0.093 3 
0.467 -0.036 0.093 3 
0.468 -0.047 0.093 3 
0.464 0.254 0.093 3 
0.465 0.334 0.094 3 
0.465 0.324 0.094 3 
0.464 0.32 0.094 3 
0.464 -0.02 0.012 3 
0.465 0.314 0.094 3 
0.465 0.304 0.094 3 
0.466 0.293 0.094 3 
0.465 0.282 0.094 3 
0.466 0.043 0.023 3 
0.464 0.272 0.093 3 
0.464 0.263 0.093 3 
0.464 0.194 0.082 3 
0.465 0.244 0.093 3 
0.465 0.233 0.093 3 
0.464 0.226 0.093 3 
0.464 0.223 0.093 3 
0.465 0.218 0.093 3 
0.464 0.211 0.093 3 
0.464 0.303 0.085 3 
0.465 0.209 0.093 3 
0.465 0.203 0.093 3 
0.465 0.192 0.093 3 
0.465 0.183 0.093 3 
0.47 -0.105 0.112 3 
0.465 0.243 0.113 3 
0.464 0.236 0.112 3 
0.465 0.234 0.113 3 
0.464 0.23 0.112 3 
0.465 0.224 0.112 3 
0.464 0.323 0.042 3 
0.465 0.212 0.112 3 
0.466 0.193 0.112 3 
0.469 -0.077 0.112 3 
0.469 -0.085 0.112 3 
0.468 -0.066 0.033 3 
0.469 -0.096 0.112 3 
0.465 0.252 0.113 3 
0.469 -0.116 0.112 3 
0.47 -0.127 0.113 3 
0.47 -0.136 0.113 3 
0.473 -0.185 0.114 3 
0.47 -0.147 0.113 3 
0.471 -0.156 0.113 3 
0.472 -0.167 0.113 3 
0.472 -0.176 0.113 3 
0.474 -0.197 0.114 3 
0.473 -0.206 0.114 3 
0.473 -0.217 0.114 3 
0.464 0.341 0.114 3 
0.466 0.022 0.114 3 
0.467 0.014 0.114 3 
0.467 0.003 0.114 3 
0.464 0.274 0.054 3 
0.467 -0.007 0.114 3 
0.467 -0.015 0.114 3 
0.468 -0.025 0.114 3 
0.467 -0.036 0.114 3 
0.468 -0.047 0.114 3 
0.468 -0.055 0.114 3 
0.468 -0.066 0.114 3 
0.474 -0.227 0.114 3 
0.465 0.338 0.114 3 
0.464 0.334 0.114 3 
0.466 0.333 0.114 3 
0.466 0.322 0.114 3 
0.465 0.311 0.114 3 
0.466 0.303 0.114 3 
0.466 0.293 0.114 3 
0.464 0.032 0.012 3 
0.466 0.283 0.113 3 
0.465 0.273 0.113 3 
0.464 0.263 0.113 3 
0.466 0.114 0.103 3 
0.465 0.224 0.104 3 
0.466 0.213 0.104 3 
0.465 0.203 0.104 3 
0.466 0.193 0.104 3 
0.466 0.184 0.104 3 
0.466 0.173 0.104 3 
0.479 -0.347 0.022 3 
0.466 0.164 0.104 3 
0.465 0.152 0.103 3 
0.465 0.144 0.103 3 
0.465 0.133 0.103 3 
0.466 0.122 0.103 3 
0.465 0.233 0.104 3 
0.466 0.043 0.044 3 
0.465 0.103 0.103 3 
0.465 0.092 0.103 3 
0.465 0.084 0.103 3 
0.465 0.073 0.103 3 
0.465 0.062 0.103 3 
0.469 -0.096 0.082 3 
0.465 0.054 0.103 3 
0.467 0.033 0.103 3 
0.467 0.014 0.103 3 
0.466 -0.006 0.103 3 
0.474 -0.245 0.084 3 
0.475 -0.234 0.112 3 
0.475 -0.237 0.112 3 
0.474 -0.248 0.112 3 
0.474 -0.255 0.112 3 
0.475 -0.265 0.112 3 
0.475 -0.277 0.113 3 
0.476 -0.285 0.113 3 
0.477 -0.295 0.113 3 
0.479 -0.307 0.114 3 
0.48 -0.315 0.114 3 
0.48 -0.325 0.114 3 
0.468 -0.055 0.093 3 
0.474 -0.267 0.109 3 
0.48 -0.335 0.112 3 
0.48 -0.346 0.112 3 
0.473 -0.248 0.024 3 
0.479 -0.356 0.112 3 
0.464 0.269 0.104 3 
0.464 0.263 0.104 3 
0.464 0.254 0.104 3 
0.464 0.316 0.077 3 
0.465 0.251 0.104 3 
0.465 0.242 0.104 3 
0.466 0.122 0.074 3 
0.464 0.223 0.074 3 
0.464 0.214 0.074 3 
0.464 0.203 0.074 3 
0.465 0.197 0.074 3 
0.464 0.194 0.074 3 
0.465 0.189 0.074 3 
0.465 0.183 0.074 3 
0.465 0.172 0.074 3 
0.465 0.163 0.074 3 
0.465 0.152 0.074 3 
0.465 0.144 0.074 3 
0.465 0.133 0.074 3 
0.465 0.232 0.074 3 
0.466 0.114 0.074 3 
0.466 0.103 0.074 3 
0.466 0.092 0.074 3 
0.466 0.084 0.074 3 
0.466 0.073 0.074 3 
0.467 0.062 0.074 3 
0.467 0.033 0.074 3 
0.466 0.022 0.074 3 
0.466 0.014 0.074 3 
0.467 0.003 0.074 3 
0.467 -0.007 0.074 3 
0.462 0.334 0.074 3 
0.476 -0.297 0.084 3 
0.477 -0.315 0.084 3 
0.466 0.342 0.08 3 
0.465 0.256 0.079 3 
0.465 0.224 0.079 3 
0.464 0.274 0.023 3 
0.48 -0.337 0.082 3 
0.479 -0.347 0.082 3 
0.478 -0.356 0.082 3 
0.464 0.203 0.076 3 
0.464 0.154 0.076 3 
0.462 0.338 0.074 3 
0.467 -0.015 0.074 3 
0.465 0.327 0.074 3 
0.464 0.323 0.074 3 
0.465 0.321 0.074 3 
0.464 0.313 0.074 3 
0.464 0.303 0.074 3 
0.464 0.294 0.074 3 
0.464 0.284 0.074 3 
0.464 0.272 0.074 3 
0.464 0.262 0.074 3 
0.464 0.252 0.074 3 
0.465 0.244 0.074 3 
0.464 0.323 0.062 3 
0.474 -0.267 0.072 3 
0.474 -0.276 0.072 3 
0.475 -0.28 0.072 3 
0.475 -0.286 0.072 3 
0.475 -0.296 0.072 3 
0.477 -0.308 0.073 3 
0.477 -0.315 0.073 3 
0.478 -0.325 0.073 3 
0.48 -0.337 0.073 3 
0.481 -0.349 0.073 3 
0.478 -0.356 0.073 3 
0.465 0.262 0.068 3 
0.474 -0.245 0.072 3 
0.464 0.313 0.062 3 
0.464 0.303 0.062 3 
0.464 0.294 0.062 3 
0.464 0.284 0.063 3 
0.465 0.275 0.063 3 
0.464 0.252 0.063 3 
0.464 0.243 0.063 3 
0.464 0.232 0.063 3 
0.465 0.224 0.063 3 
0.464 0.214 0.063 3 
0.464 0.202 0.063 3 
0.465 0.265 0.071 3 
0.468 -0.025 0.074 3 
0.468 -0.036 0.074 3 
0.468 -0.055 0.074 3 
0.469 -0.085 0.074 3 
0.469 -0.096 0.074 3 
0.469 -0.107 0.074 3 
0.469 -0.116 0.074 3 
0.47 -0.127 0.074 3 
0.47 -0.135 0.074 3 
0.471 -0.155 0.074 3 
0.471 -0.166 0.074 3 
0.475 -0.287 0.084 3 
0.464 0.243 0.071 3 
0.465 0.224 0.071 3 
0.465 0.212 0.071 3 
0.472 -0.187 0.072 3 
0.472 -0.196 0.072 3 
0.473 -0.205 0.072 3 
0.465 0.083 0.033 3 
0.472 -0.216 0.072 3 
0.465 0.124 0.052 3 
0.473 -0.226 0.072 3 
0.474 -0.236 0.072 3 
0.464 0.211 0.084 3 
0.475 -0.28 0.093 3 
0.464 0.293 0.023 3 
0.476 -0.297 0.093 3 
0.478 -0.306 0.093 3 
0.479 -0.317 0.093 3 
0.48 -0.325 0.094 3 
0.48 -0.335 0.094 3 
0.481 -0.346 0.094 3 
0.478 -0.357 0.094 3 
0.464 0.333 0.088 3 
0.464 0.337 0.085 3 
0.464 0.244 0.085 3 
0.474 -0.276 0.092 3 
0.465 0.189 0.084 3 
0.465 0.172 0.084 3 
0.472 -0.187 0.083 3 
0.465 0.152 0.084 3 
0.465 0.144 0.084 3 
0.466 0.133 0.084 3 
0.466 0.122 0.084 3 
0.466 0.114 0.084 3 
0.466 0.103 0.084 3 
0.466 0.092 0.084 3 
0.465 0.084 0.084 3 
0.464 0.132 0.004 3 
0.469 -0.066 0.093 3 
0.469 -0.077 0.093 3 
0.469 -0.085 0.093 3 
0.47 -0.097 0.093 3 
0.47 -0.105 0.093 3 
0.47 -0.116 0.093 3 
0.469 -0.127 0.093 3 
0.463 0.193 0.022 3 
0.47 -0.135 0.093 3 
0.471 -0.155 0.094 3 
0.471 -0.167 0.094 3 
0.462 0.338 0.014 3 
0.471 -0.175 0.094 3 
0.473 -0.197 0.094 3 
0.473 -0.205 0.094 3 
0.473 -0.217 0.094 3 
0.465 0.247 0.09 3 
0.467 0.043 0.063 3 
0.473 -0.226 0.092 3 
0.474 -0.236 0.092 3 
0.474 -0.257 0.092 3 
0.463 0.312 0.054 3 
0.474 -0.267 0.092 3 
0.471 -0.147 0.083 3 
0.464 0.223 0.082 3 
0.465 0.206 0.082 3 
0.467 -0.025 0.082 3 
0.468 -0.036 0.082 3 
0.468 -0.047 0.082 3 
0.468 -0.055 0.082 3 
0.469 -0.066 0.082 3 
0.469 -0.077 0.082 3 
0.469 -0.085 0.082 3 
0.47 -0.105 0.082 3 
0.469 -0.116 0.082 3 
0.469 -0.127 0.082 3 
0.465 0.23 0.082 3 
0.471 -0.155 0.083 3 
0.471 -0.166 0.083 3 
0.471 -0.175 0.083 3 
0.473 -0.197 0.083 3 
0.472 -0.216 0.083 3 
0.474 -0.227 0.083 3 
0.474 -0.236 0.083 3 
0.474 -0.257 0.084 3 
0.473 -0.266 0.084 3 
0.462 0.142 0.014 3 
0.475 -0.283 0.084 3 
0.465 0.324 0.083 3 
0.466 0.073 0.084 3 
0.467 -0.047 0.074 3 
0.466 0.062 0.084 3 
0.466 0.054 0.084 3 
0.466 0.043 0.084 3 
0.466 0.033 0.084 3 
0.466 0.022 0.084 3 
0.467 0.014 0.084 3 
0.466 0.003 0.084 3 
0.463 0.339 0.082 3 
0.465 0.331 0.083 3 
0.465 0.033 0.114 3 
0.465 0.314 0.082 3 
0.464 0.31 0.082 3 
0.465 0.295 0.082 3 
0.465 0.291 0.082 3 
0.464 0.275 0.082 3 
0.464 0.272 0.082 3 
0.464 0.263 0.082 3 
0.464 0.253 0.082 3 
0.465 0.235 0.082 3 
0.467 0.062 0.063 3 
0.464 0.232 0.082 3 
