# .PCD v0.7 - Point Cloud Data file
FIELDS x y z intensity
SIZE 4 4 4 4
TYPE F F F F
COUNT 1 1 1 1
WIDTH 1844
HEIGHT 1
VIEWPOINT 0 0 0 1 0 0 0
POINTS 1844
DATA ascii
0.341 -0.131 0.008 0 
0.489 -0.033 0.066 0 
0.324 -0.138 -0.003 1 
0.322 -0.095 -0.001 1 
0.324 -0.068 -0.001 1 
0.323 -0.005 -0.001 1 
0.353 0.064 -0.013 1 
0.351 0.084 -0.012 1 
0.351 0.141 -0.014 1 
0.351 0.16 -0.015 1 
0.343 0.202 -0.015 1 
0.343 0.205 -0.015 1 
0.334 -0.157 -0.006 1 
0.331 -0.151 -0.005 1 
0.333 -0.136 -0.005 1 
0.333 -0.126 -0.005 1 
0.324 -0.087 0 1 
0.324 -0.082 0 1 
0.333 -0.035 -0.003 1 
0.333 -0.025 -0.003 1 
0.324 0.003 0 1 
0.353 0.11 -0.012 1 
0.354 0.123 -0.013 1 
0.354 0.134 -0.013 1 
0.36 0.144 -0.016 1 
0.353 0.172 -0.015 1 
0.352 0.173 -0.014 1 
0.354 0.177 -0.015 1 
0.352 0.193 -0.015 1 
0.337 -0.13 -0.005 1 
0.334 -0.125 -0.003 1 
0.333 -0.116 -0.003 1 
0.333 -0.106 -0.002 1 
0.334 -0.055 -0.002 1 
0.333 -0.016 -0.002 1 
0.334 0.015 -0.002 1 
0.364 0.096 -0.014 1 
0.366 0.104 -0.015 1 
0.363 0.123 -0.014 1 
0.359 0.134 -0.013 1 
0.364 0.147 -0.015 1 
0.361 0.194 -0.017 1 
0.353 0.203 -0.014 1 
0.353 0.211 -0.015 1 
0.349 0.211 -0.014 1 
0.341 -0.137 -0.005 1 
0.333 -0.075 0 1 
0.334 -0.072 -0.001 1 
0.352 0.023 -0.007 1 
0.362 0.044 -0.01 1 
0.364 0.084 -0.012 1 
0.37 0.125 -0.015 1 
0.364 0.135 -0.013 1 
0.367 0.163 -0.015 1 
0.364 0.178 -0.015 1 
0.361 0.204 -0.015 1 
0.356 0.219 -0.015 1 
0.35 -0.186 -0.008 1 
0.344 -0.166 -0.005 1 
0.343 -0.156 -0.004 1 
0.344 -0.154 -0.004 1 
0.344 -0.136 -0.004 1 
0.342 -0.125 -0.003 1 
0.344 -0.115 -0.003 1 
0.342 -0.056 -0.002 1 
0.343 -0.045 -0.002 1 
0.344 -0.031 -0.002 1 
0.343 -0.015 -0.002 1 
0.373 0.084 -0.013 1 
0.372 0.094 -0.013 1 
0.374 0.098 -0.014 1 
0.374 0.114 -0.014 1 
0.373 0.115 -0.014 1 
0.375 0.153 -0.015 1 
0.372 0.174 -0.015 1 
0.371 0.184 -0.016 1 
0.374 0.193 -0.017 1 
0.374 0.204 -0.017 1 
0.366 0.214 -0.015 1 
0.364 0.228 -0.016 1 
0.361 -0.227 -0.011 1 
0.352 -0.176 -0.006 1 
0.349 -0.165 -0.005 1 
0.348 -0.157 -0.004 1 
0.353 -0.156 -0.006 1 
0.352 -0.143 -0.005 1 
0.344 -0.039 -0.001 1 
0.335 -0.002 0.001 1 
0.363 0.023 -0.007 1 
0.372 0.044 -0.01 1 
0.374 0.052 -0.011 1 
0.377 0.084 -0.012 1 
0.382 0.122 -0.015 1 
0.381 0.124 -0.014 1 
0.382 0.133 -0.015 1 
0.373 0.143 -0.012 1 
0.38 0.163 -0.015 1 
0.374 0.184 -0.014 1 
0.373 0.221 -0.016 1 
0.366 0.23 -0.014 1 
0.363 -0.197 -0.008 1 
0.357 -0.149 -0.005 1 
0.354 -0.121 -0.003 1 
0.353 -0.106 -0.003 1 
0.351 -0.095 -0.002 1 
0.344 -0.07 0 1 
0.33 0.004 0.004 1 
0.332 0.007 0.004 1 
0.371 0.024 -0.008 1 
0.377 0.044 -0.01 1 
0.383 0.101 -0.013 1 
0.384 0.105 -0.013 1 
0.387 0.136 -0.015 1 
0.38 0.152 -0.013 1 
0.384 0.159 -0.014 1 
0.385 0.164 -0.015 1 
0.383 0.177 -0.015 1 
0.382 0.193 -0.015 1 
0.384 0.202 -0.016 1 
0.372 -0.212 -0.01 1 
0.362 -0.185 -0.006 1 
0.36 -0.181 -0.005 1 
0.358 -0.177 -0.004 1 
0.364 -0.165 -0.006 1 
0.354 -0.026 -0.001 1 
0.384 0.027 -0.01 1 
0.387 0.034 -0.011 1 
0.391 0.073 -0.013 1 
0.391 0.083 -0.013 1 
0.393 0.103 -0.014 1 
0.391 0.113 -0.013 1 
0.394 0.123 -0.014 1 
0.394 0.127 -0.015 1 
0.388 0.143 -0.013 1 
0.389 0.168 -0.014 1 
0.39 0.178 -0.015 1 
0.384 0.184 -0.013 1 
0.383 0.192 -0.013 1 
0.391 0.223 -0.017 1 
0.374 0.154 -0.015 1 
0.383 0.232 -0.015 1 
0.384 0.238 -0.016 1 
0.383 0.249 -0.016 1 
0.374 -0.201 -0.008 1 
0.37 -0.184 -0.006 1 
0.364 -0.157 -0.004 1 
0.353 -0.135 0 1 
0.358 -0.095 0 1 
0.354 -0.055 0 1 
0.345 -0.012 0.003 1 
0.342 0.017 -0.005 1 
0.341 -0.01 0.004 1 
0.343 0.016 0.003 1 
0.394 0.043 -0.011 1 
0.394 0.06 -0.011 1 
0.394 0.093 -0.012 1 
0.394 0.153 -0.013 1 
0.396 0.173 -0.015 1 
0.391 0.199 -0.014 1 
0.393 0.208 -0.015 1 
0.393 0.242 -0.016 1 
0.386 0.253 -0.015 1 
0.386 -0.215 -0.01 1 
0.386 -0.212 -0.01 1 
0.365 -0.153 -0.002 1 
0.364 -0.126 -0.001 1 
0.324 0.006 -0.001 1 
0.334 -0.052 -0.002 1 
0.353 -0.044 0.002 1 
0.356 -0.014 0.001 1 
0.332 0.007 0.008 1 
0.35 0.012 0.003 1 
0.363 0.014 0 1 
0.346 0.016 0.004 1 
0.403 0.023 -0.012 1 
0.401 0.034 -0.011 1 
0.4 0.053 -0.011 1 
0.399 0.063 -0.011 1 
0.399 0.071 -0.011 1 
0.404 0.104 -0.013 1 
0.404 0.123 -0.013 1 
0.402 0.134 -0.013 1 
0.389 0.024 -0.012 1 
0.404 0.144 -0.014 1 
0.397 0.153 -0.012 1 
0.397 0.159 -0.012 1 
0.392 0.188 -0.012 1 
0.401 0.203 -0.015 1 
0.4 0.232 -0.016 1 
0.384 -0.185 -0.006 1 
0.379 -0.175 -0.004 1 
0.376 -0.17 -0.003 1 
0.365 -0.157 0 1 
0.364 -0.139 0 1 
0.372 -0.135 -0.002 1 
0.355 -0.084 0.003 1 
0.354 -0.07 0.004 1 
0.352 -0.049 0.004 1 
0.361 -0.045 0.001 1 
0.362 -0.043 0.001 1 
0.356 -0.021 0.003 1 
0.345 0.016 0.006 1 
0.413 0.033 -0.012 1 
0.409 0.044 -0.011 1 
0.409 0.081 -0.012 1 
0.409 0.092 -0.012 1 
0.414 0.103 -0.013 1 
0.414 0.112 -0.014 1 
0.41 0.124 -0.013 1 
0.404 0.193 -0.013 1 
0.407 0.22 -0.015 1 
0.403 0.224 -0.014 1 
0.405 0.234 -0.015 1 
0.4 0.263 -0.015 1 
0.401 0.269 -0.015 1 
0.394 -0.201 -0.007 1 
0.395 -0.192 -0.007 1 
0.36 -0.153 0.002 1 
0.352 -0.081 0.004 1 
0.374 -0.128 0 1 
0.378 -0.128 -0.001 1 
0.334 0.017 -0.005 1 
0.374 -0.116 0 1 
0.377 -0.116 -0.001 1 
0.357 -0.087 0.004 1 
0.362 -0.069 0.003 1 
0.363 -0.057 0.003 1 
0.358 -0.025 0.004 1 
0.413 0.053 -0.01 1 
0.323 -0.106 -0.002 1 
0.411 0.064 -0.01 1 
0.413 0.071 -0.01 1 
0.414 0.133 -0.012 1 
0.414 0.143 -0.012 1 
0.414 0.154 -0.012 1 
0.411 0.162 -0.011 1 
0.362 0.163 -0.015 1 
0.413 0.174 -0.013 1 
0.414 0.194 -0.013 1 
0.413 0.208 -0.014 1 
0.415 0.222 -0.015 1 
0.412 0.235 -0.014 1 
0.414 0.242 -0.015 1 
0.415 0.249 -0.016 1 
0.414 0.253 -0.015 1 
0.404 0.256 -0.013 1 
0.409 0.27 -0.015 1 
0.408 0.277 -0.015 1 
0.361 -0.116 0.004 1 
0.36 0.114 -0.013 1 
0.355 -0.109 0.006 1 
0.364 -0.11 0.004 1 
0.373 -0.106 0.002 1 
0.368 -0.098 0.003 1 
0.365 -0.094 0.004 1 
0.355 -0.084 0.007 1 
0.374 -0.066 0.002 1 
0.365 -0.058 0.004 1 
0.357 -0.023 0.006 1 
0.38 0.212 -0.018 1 
0.42 0.034 -0.01 1 
0.421 0.053 -0.01 1 
0.42 0.073 -0.01 1 
0.424 0.084 -0.011 1 
0.422 0.104 -0.011 1 
0.424 0.112 -0.012 1 
0.421 0.123 -0.011 1 
0.423 0.133 -0.012 1 
0.422 0.142 -0.012 1 
0.423 0.232 -0.015 1 
0.419 0.234 -0.014 1 
0.417 0.24 -0.013 1 
0.419 0.253 -0.014 1 
0.419 0.261 -0.015 1 
0.419 0.272 -0.015 1 
0.419 0.281 -0.015 1 
0.352 0.153 -0.015 1 
0.361 -0.096 0.007 1 
0.373 -0.044 0.004 1 
0.373 -0.032 0.004 1 
0.424 0.063 -0.009 1 
0.431 0.113 -0.011 1 
0.421 0.181 -0.01 1 
0.424 0.191 -0.011 1 
0.421 0.204 -0.011 1 
0.362 -0.159 -0.005 1 
0.422 0.213 -0.011 1 
0.344 -0.161 -0.005 1 
0.423 0.216 -0.012 1 
0.418 0.263 -0.012 1 
0.42 0.273 -0.013 1 
0.421 0.277 -0.013 1 
0.428 0.294 -0.016 1 
0.421 0.044 -0.01 1 
0.365 -0.1 0.007 1 
0.364 0.088 -0.012 1 
0.355 -0.091 0.01 1 
0.354 0.025 -0.008 1 
0.385 -0.076 0.003 1 
0.384 -0.071 0.003 1 
0.391 -0.071 0.001 1 
0.381 -0.037 0.004 1 
0.434 0.041 -0.009 1 
0.432 0.053 -0.008 1 
0.43 0.064 -0.008 1 
0.432 0.074 -0.008 1 
0.433 0.084 -0.009 1 
0.434 0.087 -0.009 1 
0.433 0.123 -0.009 1 
0.434 0.144 -0.01 1 
0.434 0.154 -0.01 1 
0.429 0.164 -0.009 1 
0.426 0.211 -0.01 1 
0.429 0.254 -0.012 1 
0.43 0.263 -0.012 1 
0.432 0.304 -0.014 1 
0.35 0.073 -0.012 1 
0.376 -0.038 0.007 1 
0.421 0.154 -0.012 1 
0.437 0.054 -0.007 1 
0.443 0.103 -0.009 1 
0.434 0.172 -0.008 1 
0.433 0.179 -0.008 1 
0.434 0.193 -0.009 1 
0.433 0.198 -0.009 1 
0.431 0.223 -0.009 1 
0.434 0.233 -0.01 1 
0.434 0.27 -0.011 1 
0.377 -0.208 -0.009 1 
0.433 0.281 -0.011 1 
0.434 0.285 -0.011 1 
0.384 0.071 -0.012 1 
0.382 -0.072 0.007 1 
0.363 0.028 -0.009 1 
0.443 0.03 -0.006 1 
0.447 0.033 -0.007 1 
0.443 0.035 -0.006 1 
0.444 0.06 -0.006 1 
0.444 0.073 -0.006 1 
0.443 0.082 -0.006 1 
0.444 0.085 -0.006 1 
0.443 0.123 -0.007 1 
0.443 0.133 -0.007 1 
0.444 0.163 -0.008 1 
0.44 0.174 -0.007 1 
0.442 0.213 -0.008 1 
0.433 0.131 -0.009 1 
0.441 0.259 -0.009 1 
0.444 0.268 -0.01 1 
0.44 0.282 -0.01 1 
0.443 0.316 -0.012 1 
0.364 0.068 -0.013 1 
0.364 0.052 -0.011 1 
0.443 0.027 -0.003 1 
0.453 0.054 -0.006 1 
0.452 0.064 -0.006 1 
0.45 0.074 -0.005 1 
0.454 0.093 -0.006 1 
0.452 0.103 -0.006 1 
0.447 0.114 -0.005 1 
0.447 0.122 -0.005 1 
0.448 0.133 -0.005 1 
0.448 0.154 -0.006 1 
0.443 0.194 -0.006 1 
0.445 0.198 -0.006 1 
0.443 0.2 -0.006 1 
0.442 0.243 -0.007 1 
0.444 0.292 -0.009 1 
0.444 0.311 -0.009 1 
0.454 0.036 -0.003 1 
0.453 0.083 -0.003 1 
0.349 0.192 -0.014 1 
0.454 0.086 -0.004 1 
0.458 0.097 -0.005 1 
0.453 0.111 -0.004 1 
0.453 0.133 -0.004 1 
0.45 0.158 -0.004 1 
0.453 0.163 -0.005 1 
0.452 0.167 -0.004 1 
0.453 0.173 -0.005 1 
0.392 0.234 -0.016 1 
0.452 0.176 -0.005 1 
0.444 0.189 -0.003 1 
0.443 0.197 -0.003 1 
0.451 0.214 -0.005 1 
0.454 0.224 -0.006 1 
0.45 0.244 -0.006 1 
0.449 0.252 -0.006 1 
0.451 0.26 -0.006 1 
0.454 0.271 -0.007 1 
0.453 0.283 -0.007 1 
0.45 0.292 -0.007 1 
0.454 0.073 -0.001 1 
0.453 0.143 -0.001 1 
0.451 0.153 -0.001 1 
0.453 0.184 -0.002 1 
0.46 0.226 -0.005 1 
0.452 0.243 -0.003 1 
0.453 0.253 -0.004 1 
0.454 0.259 -0.004 1 
0.456 0.264 -0.005 1 
0.353 -0.169 -0.004 1 
0.458 0.272 -0.005 1 
0.46 0.283 -0.006 1 
0.456 0.292 -0.005 1 
0.456 0.295 -0.006 1 
0.452 0.304 -0.005 1 
0.449 0.313 -0.005 1 
0.451 0.322 -0.006 1 
0.452 0.326 -0.006 1 
0.414 0.184 -0.013 1 
0.443 0.143 -0.007 1 
0.451 0.044 -0.005 1 
0.453 0.195 0 1 
0.461 0.221 -0.002 1 
0.451 0.312 -0.002 1 
0.451 0.315 -0.003 1 
0.407 0.013 0.012 1 
0.409 0.018 0.012 1 
0.461 0.093 0.002 1 
0.466 0.213 0 1 
0.452 0.013 0.007 1 
0.454 0.021 0.006 1 
0.463 0.043 0.004 1 
0.465 0.048 0.004 1 
0.462 0.104 0.004 1 
0.464 0.113 0.004 1 
0.464 0.116 0.004 1 
0.465 0.124 0.003 1 
0.461 0.133 0.004 1 
0.459 0.152 0.004 1 
0.461 0.164 0.004 1 
0.461 0.173 0.003 1 
0.461 0.184 0.003 1 
0.459 0.194 0.003 1 
0.465 0.224 0.002 1 
0.461 0.244 0.002 1 
0.374 0.15 -0.013 1 
0.465 0.341 0 1 
0.462 0.263 0.004 1 
0.46 0.302 0.004 1 
0.459 0.32 0.003 1 
0.463 0.332 0.002 1 
0.464 0.336 0.002 1 
0.47 0.347 0.001 1 
0.35 0.204 -0.015 1 
0.475 -0.354 0.008 1 
0.373 0.034 -0.01 1 
0.462 0.003 0.013 1 
0.462 0.014 0.013 1 
0.459 0.024 0.013 1 
0.414 0.204 -0.011 1 
0.469 -0.35 0.012 1 
0.476 -0.355 0.011 1 
0.444 0.253 -0.007 1 
0.476 -0.358 0.016 1 
0.354 0.042 -0.009 1 
0.38 0.054 -0.011 1 
0.39 0.173 -0.015 1 
0.413 0.263 -0.016 1 
0.353 0.094 -0.013 1 
0.448 0.143 -0.006 1 
0.473 -0.355 0.014 1 
0.393 0.26 -0.015 1 
0.423 0.093 -0.011 1 
0.453 0.193 0 1 
0.452 0.124 -0.004 1 
0.444 0.152 -0.007 1 
0.425 0.284 -0.015 1 
0.347 0.164 -0.014 1 
0.46 0.144 0.004 1 
0.354 0.051 -0.011 1 
0.391 0.134 -0.014 1 
0.394 0.162 -0.013 1 
0.399 0.238 -0.016 1 
0.463 0.234 0.002 1 
0.4 0.224 -0.015 1 
0.4 0.214 -0.015 1 
0.464 0.211 0.002 1 
0.38 0.144 -0.013 1 
0.354 0.103 -0.012 1 
0.38 -0.178 -0.005 1 
0.374 -0.166 -0.005 1 
0.389 0.124 -0.015 1 
0.372 0.063 -0.012 1 
0.403 0.11 -0.013 1 
0.406 0.222 -0.014 1 
0.459 0.034 0.003 1 
0.344 0.029 -0.009 1 
0.383 0.063 -0.012 1 
0.42 0.173 -0.01 1 
0.393 0.203 -0.015 1 
0.341 0.014 0.004 1 
0.374 0.132 -0.014 1 
0.353 -0.128 0 1 
0.354 -0.087 0 1 
0.419 0.29 -0.016 1 
0.393 0.184 -0.014 1 
0.331 -0.095 -0.002 1 
0.403 0.229 -0.014 1 
0.342 -0.075 0 1 
0.38 0.133 -0.014 1 
0.4 0.183 -0.014 1 
0.433 0.302 -0.015 1 
0.46 0.034 0.013 1 
0.461 0.253 0.002 1 
0.358 0.174 -0.015 1 
0.444 0.301 -0.009 1 
0.362 0.212 -0.016 1 
0.37 0.232 -0.016 1 
0.43 0.103 -0.011 1 
0.434 0.034 -0.009 1 
0.394 0.047 -0.011 1 
0.402 0.173 -0.014 1 
0.443 0.113 -0.007 1 
0.429 0.243 -0.011 1 
0.45 0.082 -0.005 1 
0.334 -0.145 -0.004 1 
0.344 -0.096 -0.001 1 
0.38 0.224 -0.016 1 
0.46 0.312 0.003 1 
0.334 -0.089 -0.001 1 
0.35 -0.016 0.003 1 
0.352 -0.145 -0.005 1 
0.363 0.064 -0.013 1 
0.402 0.083 -0.012 1 
0.452 0.028 0.004 1 
0.333 -0.005 0 1 
0.403 0.253 -0.015 1 
0.344 -0.105 -0.003 1 
0.401 0.042 -0.011 1 
0.458 0.084 0.002 1 
0.461 0.204 0.003 1 
0.402 0.196 -0.013 1 
0.441 0.223 -0.008 1 
0.382 -0.075 0.001 1 
0.324 -0.015 -0.001 1 
0.4 -0.076 0.001 1 
0.366 -0.024 0.006 1 
0.46 0.074 0.002 1 
0.413 0.234 -0.014 1 
0.382 0.092 -0.012 1 
0.334 -0.143 -0.004 1 
0.384 0.173 -0.015 1 
0.444 0.233 -0.007 1 
0.401 0.091 -0.012 1 
0.375 -0.105 0 1 
0.341 -0.085 0 1 
0.444 0.184 -0.006 1 
0.389 0.01 0.016 1 
0.423 0.163 -0.01 1 
0.452 0.234 -0.006 1 
0.462 0.272 0.004 1 
0.374 0.073 -0.013 1 
0.41 0.213 -0.015 1 
0.336 -0.073 0.037 2 
0.341 -0.067 0.013 2 
0.345 -0.076 0.016 2 
0.334 -0.081 0.024 2 
0.352 -0.071 0.024 2 
0.345 -0.075 0.024 2 
0.344 -0.076 0.015 2 
0.331 -0.077 0.038 2 
0.332 -0.063 0.033 2 
0.341 -0.068 0.032 2 
0.335 -0.075 0.035 2 
0.332 -0.076 0.036 2 
0.344 -0.086 0.017 2 
0.342 -0.075 0.025 2 
0.365 -0.065 0.021 2 
0.332 -0.085 0.022 2 
0.362 -0.071 0.012 2 
0.332 -0.068 0.035 2 
0.367 -0.062 0.017 2 
0.355 -0.065 0.025 2 
0.342 -0.106 0.013 2 
0.363 -0.065 0.025 2 
0.346 -0.065 0.028 2 
0.344 -0.074 0.026 2 
0.35 -0.067 0.011 2 
0.339 -0.091 0.014 2 
0.367 -0.066 0.017 2 
0.349 -0.087 0.014 2 
0.485 -0.016 0.029 2 
0.477 0.003 0.017 2 
0.327 0.032 0.057 3 
0.335 0.032 0.057 3 
0.322 -0.009 0.057 3 
0.325 -0.01 0.058 3 
0.248 -0.095 0.058 3 
0.231 -0.075 0.084 3 
0.372 0.046 0.056 3 
0.356 0.041 0.056 3 
0.306 0.01 0.056 3 
0.301 -0.015 0.054 3 
0.324 0.028 0.1 3 
0.353 0.04 0.054 3 
0.341 0.033 0.054 3 
0.345 0.032 0.054 3 
0.311 0.01 0.054 3 
0.309 -0.012 0.054 3 
0.304 -0.013 0.054 3 
0.283 -0.031 0.054 3 
0.291 -0.025 0.054 3 
0.303 0.006 0.064 3 
0.255 -0.075 0.061 3 
0.238 -0.073 0.084 3 
0.305 -0.048 0.038 3 
0.265 -0.099 0.044 3 
0.264 -0.095 0.044 3 
0.318 -0.011 0.053 3 
0.235 -0.076 0.084 3 
0.263 0.015 0.092 3 
0.268 0.016 0.094 3 
0.343 0.038 0.057 3 
0.324 -0.015 0.06 3 
0.265 -0.055 0.059 3 
0.277 -0.002 0.098 3 
0.266 0.013 0.094 3 
0.327 0.036 0.059 3 
0.312 0.031 0.059 3 
0.317 0.031 0.059 3 
0.304 -0.013 0.059 3 
0.345 0.04 0.057 3 
0.272 0.015 0.101 3 
0.295 -0.025 0.049 3 
0.275 -0.045 0.051 3 
0.267 -0.113 0.051 3 
0.262 0.004 0.096 3 
0.276 -0.055 0.05 3 
0.286 0.018 0.093 3 
0.265 -0.065 0.056 3 
0.267 0.006 0.099 3 
0.27 -0.118 0.052 3 
0.286 -0.035 0.048 3 
0.275 -0.065 0.048 3 
0.291 -0.032 0.074 3 
0.311 -0.008 0.043 3 
0.305 -0.015 0.044 3 
0.304 -0.016 0.044 3 
0.298 -0.025 0.044 3 
0.265 -0.075 0.047 3 
0.224 -0.068 0.084 3 
0.234 -0.07 0.088 3 
0.244 -0.065 0.092 3 
0.236 -0.075 0.087 3 
0.279 -0.035 0.054 3 
0.234 -0.075 0.086 3 
0.274 -0.039 0.054 3 
0.271 -0.045 0.054 3 
0.269 -0.055 0.054 3 
0.264 -0.067 0.054 3 
0.258 -0.075 0.054 3 
0.254 -0.08 0.054 3 
0.254 -0.085 0.054 3 
0.253 -0.095 0.054 3 
0.29 -0.025 0.064 3 
0.309 -0.008 0.059 3 
0.28 0.02 0.102 3 
0.256 -0.061 0.094 3 
0.295 0.021 0.089 3 
0.262 0.014 0.092 3 
0.226 -0.07 0.084 3 
0.244 -0.064 0.091 3 
0.257 -0.104 0.053 3 
0.255 -0.086 0.052 3 
0.254 -0.065 0.064 3 
0.295 0.006 0.079 3 
0.264 -0.051 0.074 3 
0.239 -0.085 0.071 3 
0.315 -0.026 0.035 3 
0.307 -0.004 0.08 3 
0.289 -0.034 0.077 3 
0.27 -0.045 0.074 3 
0.245 -0.075 0.071 3 
0.295 -0.085 0.025 3 
0.268 -0.052 0.084 3 
0.294 -0.032 0.044 3 
0.264 -0.054 0.084 3 
0.275 -0.048 0.087 3 
0.302 -0.005 0.094 3 
0.297 -0.004 0.093 3 
0.326 0.027 0.101 3 
0.326 -0.013 0.014 3 
0.276 -0.039 0.074 3 
0.274 -0.041 0.074 3 
0.263 -0.054 0.085 3 
0.309 0.022 0.078 3 
0.284 -0.034 0.074 3 
0.267 -0.065 0.054 3 
0.326 0.026 0.092 3 
0.287 0.017 0.083 3 
0.286 0.004 0.083 3 
0.235 -0.081 0.074 3 
0.286 0.006 0.084 3 
0.296 0.017 0.084 3 
0.244 -0.073 0.074 3 
0.286 -0.039 0.081 3 
0.249 -0.062 0.074 3 
0.315 0.023 0.077 3 
0.248 -0.066 0.074 3 
0.279 -0.043 0.084 3 
0.311 0.023 0.091 3 
0.276 -0.047 0.084 3 
0.297 -0.04 0.082 3 
0.274 -0.044 0.078 3 
0.284 0.013 0.084 3 
0.296 -0.001 0.081 3 
0.258 -0.055 0.074 3 
0.355 0.039 0.054 3 
0.294 -0.022 0.054 3 
0.315 0 0.068 3 
0.261 -0.055 0.064 3 
0.324 -0.003 0.028 3 
0.254 -0.064 0.064 3 
0.276 -0.035 0.064 3 
0.273 -0.038 0.064 3 
0.267 -0.045 0.064 3 
0.264 -0.051 0.064 3 
0.256 -0.065 0.063 3 
0.297 -0.007 0.095 3 
0.243 -0.064 0.084 3 
0.277 0.004 0.094 3 
0.276 0.008 0.094 3 
0.277 0.018 0.094 3 
0.296 -0.019 0.062 3 
0.313 -0.004 0.073 3 
0.267 -0.056 0.093 3 
0.276 0.005 0.095 3 
0.294 -0.021 0.064 3 
0.257 -0.057 0.084 3 
0.297 0.014 0.074 3 
0.297 0.003 0.074 3 
0.292 -0.005 0.094 3 
0.289 -0.003 0.093 3 
0.288 0.011 0.093 3 
0.245 -0.065 0.082 3 
0.326 0.023 0.076 3 
0.304 0.018 0.073 3 
0.294 0.013 0.072 3 
0.284 -0.03 0.064 3 
0.285 -0.003 0.095 3 
0.341 0.025 0.073 3 
0.245 -0.085 0.065 3 
0.246 -0.063 0.084 3 
0.27 -0.054 0.092 3 
0.294 -0.024 0.068 3 
0.248 -0.078 0.064 3 
0.245 -0.085 0.064 3 
0.244 -0.087 0.064 3 
0.265 -0.094 0.043 3 
0.324 -0.003 0.024 3 
0.34 0.016 0.02 3 
0.283 -0.105 0.032 3 
0.276 -0.096 0.034 3 
0.276 -0.085 0.034 3 
0.332 -0.024 0.023 3 
0.328 -0.002 0.024 3 
0.323 -0.005 0.024 3 
0.34 0.014 0.022 3 
0.276 -0.099 0.035 3 
0.275 -0.085 0.035 3 
0.284 -0.077 0.034 3 
0.284 -0.067 0.044 3 
0.265 -0.1 0.045 3 
0.305 -0.025 0.04 3 
0.298 -0.035 0.041 3 
0.274 -0.07 0.044 3 
0.268 -0.075 0.044 3 
0.297 -0.045 0.04 3 
0.264 -0.081 0.044 3 
0.263 -0.085 0.044 3 
0.321 -0.019 0.024 3 
0.277 -0.075 0.038 3 
0.278 -0.11 0.039 3 
0.325 -0.003 0.03 3 
0.315 -0.022 0.032 3 
0.347 -0.001 0.025 3 
0.341 -0.002 0.026 3 
0.326 -0.005 0.029 3 
0.291 -0.075 0.035 3 
0.293 -0.075 0.034 3 
0.335 -0.005 0.032 3 
0.319 -0.006 0.034 3 
0.341 0 0.023 3 
0.318 -0.028 0.034 3 
0.321 -0.035 0.034 3 
0.316 -0.041 0.035 3 
0.247 -0.065 0.093 3 
0.313 -0.01 0.034 3 
0.31 -0.015 0.034 3 
0.334 0 0.014 3 
0.335 -0.017 0.014 3 
0.336 -0.014 0.01 3 
0.291 -0.035 0.044 3 
0.286 -0.045 0.045 3 
0.291 -0.065 0.044 3 
0.285 -0.065 0.045 3 
0.289 -0.085 0.027 3 
0.286 -0.055 0.044 3 
0.294 -0.086 0.024 3 
0.25 -0.063 0.094 3 
0.325 -0.012 0.015 3 
0.323 -0.005 0.014 3 
0.324 -0.003 0.014 3 
0.26 -0.06 0.098 3 
0.254 -0.061 0.096 3 
0.265 0.002 0.099 3 
0.316 -0.007 0.041 3 
0.342 0.003 0.013 3 
0.287 -0.101 0.028 3 
0.345 0.008 0.014 3 
0.344 0.006 0.014 3 
0.34 0.016 0.014 3 
0.303 -0.065 0.041 3 
0.345 0.003 0.014 3 
0.291 -0.045 0.043 3 
0.462 0.072 0.124 3 
0.463 0.152 0.144 3 
0.463 0.083 0.124 3 
0.469 0.334 0.153 3 
0.464 0.092 0.124 3 
0.462 0.064 0.124 3 
0.464 0.07 0.138 3 
0.462 0.34 0.152 3 
0.465 0.062 0.146 3 
0.463 0.144 0.144 3 
0.465 0.073 0.149 3 
0.465 0.139 0.144 3 
0.464 0.155 0.144 3 
0.465 0.337 0.152 3 
0.471 0.322 0.153 3 
0.468 0.313 0.152 3 
0.463 0.102 0.124 3 
0.464 0.291 0.127 3 
0.464 0.064 0.073 3 
0.464 0.295 0.15 3 
0.465 0.161 0.144 3 
0.466 0.304 0.154 3 
0.463 0.152 0.133 3 
0.464 0.289 0.15 3 
0.462 0.113 0.124 3 
0.463 0.282 0.15 3 
0.463 0.124 0.124 3 
0.463 0.194 0.122 3 
0.464 0.15 0.152 3 
0.465 0.186 0.063 3 
0.465 0.153 0.153 3 
0.464 0.158 0.152 3 
0.473 0.357 0.199 3 
0.463 0.244 0.123 3 
0.466 0.162 0.153 3 
0.466 0.173 0.153 3 
0.462 0.234 0.123 3 
0.461 0.204 0.122 3 
0.466 0.142 0.153 3 
0.465 0.187 0.123 3 
0.464 0.183 0.123 3 
0.465 0.181 0.123 3 
0.464 0.184 0.153 3 
0.463 0.192 0.153 3 
0.465 0.211 0.154 3 
0.465 0.172 0.123 3 
0.464 0.271 0.063 3 
0.464 0.213 0.154 3 
0.466 0.262 0.124 3 
0.464 0.144 0.149 3 
0.464 0.284 0.004 3 
0.465 0.185 0.151 3 
0.462 0.054 0.124 3 
0.467 0.254 0.153 3 
0.47 0.263 0.154 3 
0.465 0.281 0.153 3 
0.465 0.293 0.153 3 
0.462 0.184 0.084 3 
0.465 0.084 0.149 3 
0.464 0.163 0.063 3 
0.436 0.036 0.038 3 
0.461 0.333 0.062 3 
0.465 0.252 0.124 3 
0.465 0.092 0.152 3 
0.466 0.104 0.152 3 
0.465 0.112 0.152 3 
0.464 0.122 0.152 3 
0.466 0.134 0.153 3 
0.464 0.103 0.138 3 
0.465 0.208 0.134 3 
0.465 0.243 0.135 3 
0.463 0.303 0.133 3 
0.457 0.053 0.133 3 
0.461 0.062 0.134 3 
0.465 0.293 0.133 3 
0.465 0.225 0.138 3 
0.475 0.267 0.141 3 
0.467 0.345 0.141 3 
0.466 0.284 0.133 3 
0.469 0.274 0.134 3 
0.464 0.204 0.134 3 
0.465 0.122 0.139 3 
0.463 0.171 0.139 3 
0.462 0.184 0.033 3 
0.467 0.263 0.133 3 
0.465 0.216 0.14 3 
0.468 0.273 0.142 3 
0.468 0.283 0.142 3 
0.463 0.132 0.022 3 
0.465 0.252 0.132 3 
0.465 0.293 0.142 3 
0.464 0.078 0.133 3 
0.464 0.114 0.133 3 
0.464 0.119 0.133 3 
0.465 0.122 0.133 3 
0.464 0.127 0.133 3 
0.464 0.103 0.133 3 
0.465 0.095 0.133 3 
0.465 0.133 0.133 3 
0.465 0.092 0.133 3 
0.464 0.141 0.133 3 
0.465 0.084 0.133 3 
0.465 0.144 0.133 3 
0.465 0.299 0.142 3 
0.463 0.073 0.132 3 
0.463 0.163 0.133 3 
0.463 0.171 0.133 3 
0.466 0.263 0.054 3 
0.464 0.183 0.134 3 
0.464 0.318 0.134 3 
0.465 0.19 0.134 3 
0.464 0.192 0.134 3 
0.464 0.314 0.134 3 
0.466 0.199 0.134 3 
0.465 0.302 0.131 3 
0.463 0.224 0.143 3 
0.462 0.232 0.142 3 
0.462 0.244 0.143 3 
0.467 0.254 0.144 3 
0.467 0.257 0.144 3 
0.463 0.113 0.073 3 
0.467 0.345 0.133 3 
0.467 0.341 0.132 3 
0.469 0.333 0.133 3 
0.467 0.321 0.132 3 
0.467 0.344 0.124 3 
0.463 0.223 0.123 3 
0.465 0.184 0.128 3 
0.464 0.062 0.143 3 
0.466 0.074 0.144 3 
0.465 0.084 0.144 3 
0.466 0.093 0.144 3 
0.466 0.104 0.144 3 
0.465 0.109 0.144 3 
0.464 0.114 0.144 3 
0.463 0.122 0.143 3 
0.464 0.125 0.144 3 
0.463 0.241 0.132 3 
0.464 0.302 0.142 3 
0.466 0.313 0.143 3 
0.466 0.32 0.143 3 
0.469 0.334 0.144 3 
0.466 0.344 0.144 3 
0.464 0.248 0.132 3 
0.466 0.153 0.142 3 
0.466 0.173 0.142 3 
0.465 0.181 0.142 3 
0.464 0.183 0.142 3 
0.465 0.133 0.144 3 
0.464 0.248 0.124 3 
0.463 0.232 0.132 3 
0.464 0.224 0.132 3 
0.465 0.19 0.142 3 
0.464 0.193 0.142 3 
0.465 0.202 0.143 3 
0.465 0.211 0.143 3 
0.465 0.222 0.132 3 
0.464 0.213 0.143 3 
0.464 0.086 0.13 3 
0.47 0.345 0.184 3 
0.457 0.061 0.17 3 
0.465 0.278 0.164 3 
0.464 0.071 0.173 3 
0.467 0.074 0.174 3 
0.464 0.159 0.175 3 
0.461 0.313 0.062 3 
0.464 0.191 0.176 3 
0.47 0.293 0.181 3 
0.471 0.301 0.182 3 
0.461 0.294 0.093 3 
0.471 0.311 0.182 3 
0.471 0.324 0.183 3 
0.473 0.333 0.184 3 
0.471 0.134 0.188 3 
0.464 0.244 0.093 3 
0.464 0.212 0.123 3 
0.465 0.209 0.179 3 
0.464 0.244 0.18 3 
0.469 0.263 0.183 3 
0.47 0.271 0.183 3 
0.472 0.279 0.184 3 
0.473 0.293 0.185 3 
0.472 0.341 0.188 3 
0.461 0.064 0.113 3 
0.471 0.123 0.188 3 
0.468 0.074 0.186 3 
0.47 0.114 0.187 3 
0.464 0.283 0.043 3 
0.47 0.234 0.191 3 
0.467 0.143 0.172 3 
0.465 0.163 0.172 3 
0.468 0.223 0.189 3 
0.468 0.173 0.174 3 
0.466 0.213 0.188 3 
0.467 0.184 0.174 3 
0.463 0.273 0.032 3 
0.465 0.185 0.173 3 
0.464 0.193 0.173 3 
0.464 0.206 0.187 3 
0.466 0.204 0.188 3 
0.468 0.194 0.188 3 
0.466 0.282 0.174 3 
0.464 0.199 0.173 3 
0.455 0.247 0.135 3 
0.466 0.203 0.174 3 
0.466 0.227 0.174 3 
0.465 0.179 0.153 3 
0.463 0.243 0.174 3 
0.472 0.184 0.19 3 
0.464 0.25 0.174 3 
0.471 0.172 0.189 3 
0.47 0.163 0.189 3 
0.472 0.152 0.189 3 
0.463 0.283 0.093 3 
0.471 0.143 0.188 3 
0.47 0.103 0.184 3 
0.462 0.094 0.103 3 
0.475 0.348 0.192 3 
0.472 0.336 0.184 3 
0.472 0.352 0.192 3 
0.465 0.154 0.172 3 
0.472 0.355 0.192 3 
0.464 0.223 0.043 3 
0.465 0.071 0.182 3 
0.462 0.073 0.181 3 
0.467 0.08 0.183 3 
0.465 0.244 0.152 3 
0.463 0.081 0.181 3 
0.469 0.094 0.184 3 
0.475 0.344 0.192 3 
0.47 0.114 0.184 3 
0.47 0.12 0.184 3 
0.469 0.133 0.184 3 
0.469 0.142 0.184 3 
0.475 0.282 0.192 3 
0.474 0.284 0.191 3 
0.476 0.293 0.192 3 
0.475 0.302 0.192 3 
0.475 0.322 0.194 3 
0.463 0.143 0.084 3 
0.464 0.153 0.174 3 
0.473 0.349 0.195 3 
0.464 0.213 0.134 3 
0.471 0.192 0.184 3 
0.471 0.103 0.187 3 
0.463 0.084 0.159 3 
0.47 0.094 0.187 3 
0.468 0.083 0.186 3 
0.462 0.204 0.033 3 
0.466 0.212 0.174 3 
0.466 0.313 0.131 3 
0.464 0.196 0.142 3 
0.467 0.152 0.181 3 
0.468 0.162 0.182 3 
0.468 0.127 0.164 3 
0.47 0.174 0.183 3 
0.47 0.183 0.183 3 
0.47 0.243 0.191 3 
0.465 0.2 0.182 3 
0.464 0.202 0.181 3 
0.464 0.214 0.182 3 
0.463 0.083 0.073 3 
0.468 0.223 0.184 3 
0.465 0.158 0.076 3 
0.469 0.233 0.184 3 
0.465 0.242 0.183 3 
0.465 0.254 0.184 3 
0.472 0.319 0.189 3 
0.46 0.311 0.012 3 
0.475 0.329 0.191 3 
0.474 0.331 0.191 3 
0.466 0.212 0.163 3 
0.471 0.261 0.163 3 
0.47 0.273 0.163 3 
0.464 0.293 0.162 3 
0.465 0.303 0.163 3 
0.468 0.313 0.164 3 
0.468 0.317 0.164 3 
0.462 0.062 0.159 3 
0.462 0.243 0.112 3 
0.464 0.305 0.142 3 
0.464 0.087 0.16 3 
0.464 0.12 0.16 3 
0.464 0.153 0.161 3 
0.465 0.202 0.162 3 
0.468 0.274 0.154 3 
0.465 0.223 0.163 3 
0.465 0.232 0.163 3 
0.466 0.242 0.164 3 
0.468 0.246 0.164 3 
0.464 0.283 0.023 3 
0.465 0.063 0.163 3 
0.465 0.071 0.163 3 
0.464 0.073 0.162 3 
0.465 0.082 0.163 3 
0.468 0.093 0.164 3 
0.465 0.103 0.163 3 
0.464 0.109 0.163 3 
0.465 0.114 0.163 3 
0.464 0.092 0.154 3 
0.463 0.224 0.154 3 
0.464 0.234 0.154 3 
0.442 0.089 0.055 3 
0.464 0.24 0.154 3 
0.465 0.262 0.063 3 
0.466 0.294 0.157 3 
0.463 0.342 0.158 3 
0.462 0.062 0.153 3 
0.463 0.339 0.054 3 
0.464 0.073 0.154 3 
0.475 0.348 0.199 3 
0.475 0.341 0.198 3 
0.464 0.084 0.154 3 
0.467 0.124 0.164 3 
0.464 0.098 0.154 3 
0.464 0.114 0.154 3 
0.466 0.176 0.156 3 
0.464 0.205 0.156 3 
0.464 0.219 0.157 3 
0.464 0.283 0.159 3 
0.464 0.296 0.159 3 
0.47 0.332 0.162 3 
0.465 0.344 0.161 3 
0.464 0.103 0.157 3 
0.464 0.125 0.157 3 
0.465 0.173 0.158 3 
0.464 0.231 0.16 3 
0.461 0.242 0.104 3 
0.464 0.165 0.169 3 
0.463 0.184 0.169 3 
0.467 0.222 0.172 3 
0.462 0.094 0.084 3 
0.478 0.281 0.196 3 
0.465 0.244 0.172 3 
0.462 0.213 0.114 3 
0.466 0.251 0.172 3 
0.469 0.263 0.174 3 
0.468 0.272 0.174 3 
0.466 0.292 0.174 3 
0.464 0.128 0.152 3 
0.476 0.273 0.195 3 
0.476 0.293 0.195 3 
0.461 0.212 0.014 3 
0.475 0.269 0.194 3 
0.464 0.204 0.154 3 
0.465 0.063 0.171 3 
0.468 0.083 0.172 3 
0.469 0.091 0.173 3 
0.469 0.102 0.173 3 
0.468 0.113 0.172 3 
0.468 0.124 0.173 3 
0.466 0.132 0.172 3 
0.474 0.265 0.193 3 
0.473 0.261 0.193 3 
0.472 0.254 0.192 3 
0.468 0.314 0.173 3 
0.468 0.144 0.164 3 
0.465 0.153 0.164 3 
0.465 0.156 0.164 3 
0.464 0.164 0.163 3 
0.463 0.173 0.164 3 
0.461 0.183 0.163 3 
0.461 0.191 0.163 3 
0.463 0.195 0.164 3 
0.463 0.299 0.167 3 
0.47 0.35 0.172 3 
0.464 0.293 0.17 3 
0.474 0.336 0.197 3 
0.465 0.301 0.171 3 
0.465 0.22 0.154 3 
0.47 0.323 0.174 3 
0.474 0.333 0.197 3 
0.471 0.33 0.174 3 
0.474 0.318 0.196 3 
0.472 0.312 0.195 3 
0.469 0.342 0.174 3 
0.471 0.308 0.194 3 
0.472 0.302 0.194 3 
0.464 0.161 0.169 3 
0.463 0.182 0.114 3 
0.473 0.3 0.195 3 
0.474 0.294 0.195 3 
0.465 0.265 0.054 3 
0.463 0.154 0.052 3 
0.463 0.162 0.052 3 
0.462 0.173 0.052 3 
0.465 0.287 0.051 3 
0.465 0.324 0.051 3 
0.446 0.094 0.055 3 
0.454 0.104 0.055 3 
0.464 0.194 0.054 3 
0.463 0.202 0.054 3 
0.463 0.213 0.054 3 
0.462 0.221 0.054 3 
0.463 0.234 0.054 3 
0.463 0.243 0.054 3 
0.464 0.246 0.054 3 
0.466 0.254 0.054 3 
0.463 0.143 0.052 3 
0.464 0.274 0.054 3 
0.464 0.28 0.054 3 
0.465 0.284 0.054 3 
0.464 0.294 0.054 3 
0.465 0.301 0.054 3 
0.464 0.303 0.054 3 
0.462 0.314 0.054 3 
0.463 0.322 0.054 3 
0.439 0.081 0.057 3 
0.464 0.132 0.057 3 
0.464 0.202 0.057 3 
0.452 0.077 0.06 3 
0.465 0.291 0.06 3 
0.46 0.063 0.013 3 
0.465 0.301 0.06 3 
0.465 0.324 0.042 3 
0.462 0.184 0.044 3 
0.462 0.193 0.044 3 
0.462 0.201 0.044 3 
0.463 0.213 0.043 3 
0.463 0.234 0.043 3 
0.463 0.243 0.043 3 
0.461 0.253 0.043 3 
0.462 0.221 0.024 3 
0.46 0.261 0.043 3 
0.462 0.272 0.043 3 
0.463 0.292 0.043 3 
0.462 0.301 0.043 3 
0.462 0.311 0.043 3 
0.463 0.318 0.043 3 
0.465 0.334 0.034 3 
0.43 0.05 0.062 3 
0.465 0.331 0.042 3 
0.462 0.331 0.042 3 
0.461 0.336 0.042 3 
0.459 0.053 0.047 3 
0.479 0.079 0.046 3 
0.462 0.304 0.023 3 
0.451 0.054 0.05 3 
0.462 0.066 0.05 3 
0.467 0.07 0.049 3 
0.458 0.114 0.049 3 
0.464 0.132 0.049 3 
0.463 0.264 0.049 3 
0.464 0.124 0.052 3 
0.465 0.133 0.052 3 
0.465 0.152 0.074 3 
0.465 0.172 0.068 3 
0.465 0.175 0.068 3 
0.465 0.206 0.068 3 
0.436 0.041 0.07 3 
0.452 0.046 0.07 3 
0.465 0.161 0.071 3 
0.465 0.197 0.071 3 
0.465 0.265 0.071 3 
0.46 0.053 0.073 3 
0.463 0.072 0.073 3 
0.464 0.094 0.073 3 
0.464 0.102 0.073 3 
0.463 0.124 0.073 3 
0.464 0.132 0.073 3 
0.464 0.143 0.073 3 
0.465 0.051 0.066 3 
0.464 0.154 0.073 3 
0.464 0.163 0.073 3 
0.464 0.174 0.074 3 
0.462 0.184 0.073 3 
0.463 0.193 0.073 3 
0.464 0.203 0.074 3 
0.462 0.213 0.073 3 
0.462 0.221 0.073 3 
0.463 0.231 0.074 3 
0.464 0.243 0.074 3 
0.463 0.252 0.074 3 
0.465 0.256 0.074 3 
0.463 0.261 0.074 3 
0.463 0.274 0.074 3 
0.461 0.284 0.074 3 
0.464 0.191 0.063 3 
0.435 0.053 0.062 3 
0.439 0.064 0.062 3 
0.443 0.067 0.062 3 
0.451 0.072 0.063 3 
0.458 0.084 0.063 3 
0.459 0.093 0.063 3 
0.459 0.103 0.063 3 
0.46 0.114 0.063 3 
0.464 0.124 0.063 3 
0.465 0.133 0.063 3 
0.464 0.143 0.063 3 
0.464 0.154 0.063 3 
0.464 0.174 0.063 3 
0.463 0.179 0.063 3 
0.465 0.183 0.063 3 
0.462 0.173 0.044 3 
0.465 0.203 0.063 3 
0.465 0.209 0.063 3 
0.463 0.222 0.063 3 
0.463 0.243 0.063 3 
0.463 0.249 0.063 3 
0.465 0.253 0.063 3 
0.465 0.269 0.063 3 
0.465 0.275 0.063 3 
0.463 0.283 0.062 3 
0.463 0.293 0.062 3 
0.462 0.304 0.062 3 
0.464 0.323 0.062 3 
0.465 0.331 0.062 3 
0.464 0.169 0.122 3 
0.464 0.124 0.023 3 
0.462 0.323 0.014 3 
0.463 0.332 0.014 3 
0.464 0.337 0.014 3 
0.465 0.341 0.013 3 
0.459 -0.006 0.024 3 
0.46 0.003 0.024 3 
0.461 0.024 0.023 3 
0.46 0.034 0.023 3 
0.461 0.042 0.023 3 
0.461 0.053 0.023 3 
0.462 0.064 0.023 3 
0.461 0.082 0.023 3 
0.46 0.093 0.023 3 
0.461 0.104 0.023 3 
0.463 0.112 0.023 3 
0.465 0.119 0.017 3 
0.462 0.142 0.022 3 
0.462 0.153 0.022 3 
0.463 0.014 0.023 3 
0.461 0.164 0.022 3 
0.461 0.172 0.022 3 
0.46 0.183 0.022 3 
0.461 0.192 0.022 3 
0.465 0.266 0.021 3 
0.466 0.008 0.026 3 
0.465 0.016 0.026 3 
0.466 0.122 0.025 3 
0.463 0.199 0.024 3 
0.463 0.213 0.024 3 
0.462 0.233 0.024 3 
0.461 0.244 0.024 3 
0.461 0.164 0.014 3 
0.464 0.054 0.004 3 
0.463 0.059 0.004 3 
0.462 0.294 0.004 3 
0.465 0.224 0.007 3 
0.462 0.043 0.013 3 
0.462 0.053 0.013 3 
0.459 0.074 0.013 3 
0.459 0.084 0.013 3 
0.46 0.093 0.013 3 
0.459 0.103 0.013 3 
0.461 0.114 0.012 3 
0.463 0.123 0.012 3 
0.46 0.133 0.012 3 
0.459 0.144 0.012 3 
0.461 0.147 0.014 3 
0.462 0.254 0.024 3 
0.459 0.174 0.014 3 
0.459 0.182 0.014 3 
0.462 0.193 0.014 3 
0.461 0.203 0.014 3 
0.461 0.224 0.013 3 
0.461 0.232 0.013 3 
0.46 0.243 0.013 3 
0.462 0.254 0.013 3 
0.463 0.264 0.013 3 
0.462 0.282 0.012 3 
0.461 0.293 0.012 3 
0.46 0.302 0.012 3 
0.465 0.014 0.018 3 
0.465 0.016 0.018 3 
0.464 0.323 0.034 3 
0.462 0.142 0.033 3 
0.461 0.153 0.033 3 
0.461 0.164 0.033 3 
0.461 0.172 0.033 3 
0.462 0.193 0.033 3 
0.462 0.213 0.033 3 
0.462 0.221 0.033 3 
0.463 0.234 0.032 3 
0.461 0.244 0.032 3 
0.462 0.254 0.032 3 
0.462 0.263 0.032 3 
0.464 0.283 0.032 3 
0.459 0.042 0.037 3 
0.463 0.304 0.034 3 
0.463 0.312 0.034 3 
0.462 0.134 0.033 3 
0.461 0.333 0.034 3 
0.461 0.336 0.034 3 
0.461 0.053 0.044 3 
0.463 0.064 0.044 3 
0.463 0.072 0.044 3 
0.462 0.082 0.044 3 
0.46 0.093 0.044 3 
0.457 0.102 0.044 3 
0.46 0.114 0.044 3 
0.462 0.123 0.044 3 
0.463 0.132 0.044 3 
0.463 0.143 0.044 3 
0.463 0.154 0.044 3 
0.462 0.164 0.044 3 
0.459 0.034 0.031 3 
0.464 0.262 0.024 3 
0.463 0.273 0.024 3 
0.464 0.293 0.023 3 
0.462 0.313 0.023 3 
0.462 0.321 0.023 3 
0.464 0.33 0.022 3 
0.466 0.335 0.022 3 
0.461 0.014 0.029 3 
0.465 0.127 0.028 3 
0.471 0.348 0.024 3 
0.455 -0.009 0.032 3 
0.454 -0.006 0.032 3 
0.463 -0.001 0.031 3 
0.469 0 0.031 3 
0.456 0.024 0.032 3 
0.462 0.337 0.062 3 
0.435 0.024 0.036 3 
0.443 0.03 0.035 3 
0.452 0.033 0.035 3 
0.454 0.036 0.034 3 
0.459 0.042 0.034 3 
0.462 0.053 0.034 3 
0.462 0.064 0.034 3 
0.463 0.072 0.034 3 
0.462 0.082 0.034 3 
0.462 0.093 0.034 3 
0.462 0.104 0.034 3 
0.463 0.112 0.033 3 
0.464 0.124 0.033 3 
0.462 0.104 0.103 3 
0.465 0.298 0.102 3 
0.464 0.304 0.102 3 
0.464 0.313 0.102 3 
0.464 0.317 0.102 3 
0.465 0.321 0.103 3 
0.465 0.331 0.103 3 
0.463 0.332 0.102 3 
0.462 0.338 0.102 3 
0.463 0.072 0.023 3 
0.462 0.054 0.103 3 
0.464 0.34 0.022 3 
0.463 0.064 0.103 3 
0.463 0.072 0.103 3 
0.462 0.083 0.103 3 
0.464 0.291 0.102 3 
0.463 0.113 0.103 3 
0.462 0.123 0.103 3 
0.463 0.132 0.103 3 
0.463 0.143 0.103 3 
0.463 0.154 0.103 3 
0.462 0.162 0.103 3 
0.462 0.173 0.103 3 
0.464 0.183 0.103 3 
0.464 0.194 0.104 3 
0.464 0.203 0.104 3 
0.463 0.222 0.104 3 
0.461 0.274 0.013 3 
0.462 0.234 0.104 3 
0.464 0.323 0.082 3 
0.464 0.323 0.094 3 
0.464 0.174 0.093 3 
0.463 0.182 0.092 3 
0.465 0.186 0.093 3 
0.464 0.194 0.093 3 
0.462 0.204 0.092 3 
0.463 0.222 0.093 3 
0.464 0.232 0.093 3 
0.465 0.236 0.093 3 
0.463 0.253 0.093 3 
0.463 0.262 0.093 3 
0.463 0.274 0.093 3 
0.462 0.213 0.092 3 
0.462 0.301 0.093 3 
0.463 0.312 0.094 3 
0.462 0.252 0.104 3 
0.465 0.328 0.094 3 
0.459 0.334 0.093 3 
0.467 0.084 0.047 3 
0.46 0.051 0.094 3 
0.465 0.186 0.095 3 
0.465 0.224 0.096 3 
0.465 0.13 0.101 3 
0.465 0.23 0.101 3 
0.465 0.236 0.101 3 
0.461 0.294 0.074 3 
0.464 0.278 0.102 3 
0.466 0.283 0.102 3 
0.465 0.289 0.102 3 
0.466 0.284 0.122 3 
0.463 0.124 0.114 3 
0.463 0.132 0.114 3 
0.462 0.143 0.114 3 
0.462 0.154 0.114 3 
0.464 0.163 0.114 3 
0.465 0.172 0.114 3 
0.463 0.174 0.114 3 
0.463 0.194 0.114 3 
0.463 0.202 0.114 3 
0.462 0.219 0.114 3 
0.461 0.225 0.114 3 
0.464 0.26 0.118 3 
0.465 0.111 0.119 3 
0.467 0.272 0.122 3 
0.463 0.113 0.114 3 
0.466 0.293 0.122 3 
0.465 0.302 0.122 3 
0.466 0.313 0.123 3 
0.469 0.323 0.123 3 
0.47 0.33 0.124 3 
0.463 0.214 0.104 3 
0.465 0.089 0.122 3 
0.465 0.103 0.122 3 
0.463 0.132 0.122 3 
0.464 0.144 0.122 3 
0.462 0.184 0.052 3 
0.463 0.154 0.122 3 
0.463 0.16 0.122 3 
0.465 0.164 0.123 3 
0.464 0.263 0.113 3 
0.464 0.263 0.104 3 
0.464 0.269 0.104 3 
0.465 0.189 0.106 3 
0.466 0.196 0.107 3 
0.464 0.31 0.108 3 
0.464 0.334 0.108 3 
0.463 0.339 0.108 3 
0.466 0.335 0.039 3 
0.465 0.264 0.11 3 
0.454 0.013 0.032 3 
0.467 0.334 0.112 3 
0.465 0.342 0.112 3 
0.463 0.234 0.063 3 
0.463 0.253 0.112 3 
0.461 0.333 0.082 3 
0.464 0.266 0.113 3 
0.466 0.274 0.113 3 
0.466 0.283 0.113 3 
0.466 0.293 0.114 3 
0.466 0.303 0.114 3 
0.467 0.313 0.114 3 
0.466 0.316 0.114 3 
0.461 0.053 0.113 3 
0.462 0.072 0.113 3 
0.464 0.084 0.114 3 
0.464 0.094 0.114 3 
0.464 0.103 0.114 3 
0.464 0.086 0.047 3 
0.44 0.042 0.087 3 
0.462 0.213 0.084 3 
0.461 0.224 0.084 3 
0.463 0.231 0.084 3 
0.464 0.303 0.082 3 
0.462 0.242 0.084 3 
0.465 0.301 0.082 3 
0.465 0.2 0.087 3 
0.463 0.293 0.082 3 
0.462 0.282 0.082 3 
0.464 0.313 0.082 3 
0.463 0.274 0.082 3 
0.465 0.172 0.09 3 
0.462 0.264 0.082 3 
0.465 0.224 0.09 3 
0.465 0.233 0.09 3 
0.462 0.254 0.082 3 
0.463 0.064 0.092 3 
0.462 0.072 0.092 3 
0.465 0.209 0.082 3 
0.463 0.124 0.084 3 
0.454 0.018 0.032 3 
0.46 0.053 0.084 3 
0.463 0.064 0.084 3 
0.465 0.136 0.063 3 
0.458 0.063 0.05 3 
0.463 0.072 0.084 3 
0.462 0.083 0.084 3 
0.462 0.104 0.084 3 
0.464 0.113 0.084 3 
0.463 0.302 0.074 3 
0.463 0.132 0.084 3 
0.464 0.152 0.084 3 
0.461 0.164 0.084 3 
0.461 0.33 0.054 3 
0.461 0.172 0.084 3 
0.462 0.193 0.084 3 
0.463 0.199 0.084 3 
0.464 0.214 0.063 3 
0.46 0.335 0.082 3 
0.462 0.334 0.074 3 
0.464 0.323 0.074 3 
0.462 0.311 0.074 3 
0.463 0.292 0.034 3 
0.448 0.043 0.078 3 
0.447 0.048 0.078 3 
0.464 0.113 0.092 3 
0.464 0.143 0.092 3 
0.463 0.154 0.092 3 
0.464 0.163 0.092 3 
0.463 0.132 0.092 3 
0.465 0.331 0.074 3 
0.465 0.256 0.079 3 
0.463 0.124 0.092 3 
0.465 0.116 0.092 3 
0.465 0.2 0.082 3 
0.461 0.083 0.092 3 
0.463 0.339 0.074 3 
0.461 0.093 0.092 3 
0.465 0.27 0.079 3 
0.464 0.102 0.092 3 
0.465 0.111 0.092 3 
0.465 -0.052 0.157 3 
0.464 -0.144 0.158 3 
0.475 -0.185 0.191 3 
0.479 -0.176 0.193 3 
0.478 -0.155 0.192 3 
0.464 -0.068 0.114 3 
0.477 -0.166 0.191 3 
0.461 -0.046 0.113 3 
0.466 -0.157 0.164 3 
0.466 -0.095 0.133 3 
0.462 -0.046 0.132 3 
0.464 -0.057 0.132 3 
0.465 -0.06 0.133 3 
0.464 -0.065 0.132 3 
0.465 -0.068 0.133 3 
0.467 -0.077 0.133 3 
0.468 -0.127 0.164 3 
0.468 -0.085 0.134 3 
0.462 -0.075 0.113 3 
0.463 -0.105 0.133 3 
0.467 -0.138 0.164 3 
0.462 -0.094 0.124 3 
0.469 -0.119 0.184 3 
0.467 -0.146 0.164 3 
0.471 -0.117 0.188 3 
0.456 -0.045 0.084 3 
0.465 -0.065 0.154 3 
0.454 -0.032 0.071 3 
0.464 -0.065 0.124 3 
0.464 -0.057 0.124 3 
0.463 -0.046 0.124 3 
0.464 -0.041 0.124 3 
0.464 -0.103 0.13 3 
0.463 -0.052 0.154 3 
0.464 -0.055 0.154 3 
0.471 -0.059 0.187 3 
0.462 -0.138 0.154 3 
0.449 -0.137 0.15 3 
0.466 -0.076 0.12 3 
0.458 -0.035 0.073 3 
0.455 -0.032 0.073 3 
0.439 -0.135 0.147 3 
0.463 -0.147 0.16 3 
0.459 -0.032 0.081 3 
0.465 -0.055 0.122 3 
0.465 -0.065 0.114 3 
0.475 -0.139 0.19 3 
0.474 -0.135 0.189 3 
0.472 -0.126 0.188 3 
0.47 -0.106 0.187 3 
0.468 -0.097 0.186 3 
0.471 -0.086 0.187 3 
0.465 -0.063 0.114 3 
0.476 -0.145 0.19 3 
0.474 -0.079 0.188 3 
0.464 -0.057 0.114 3 
0.464 -0.076 0.122 3 
0.466 -0.052 0.149 3 
0.476 -0.077 0.189 3 
0.459 -0.038 0.113 3 
0.474 -0.068 0.188 3 
0.475 -0.065 0.189 3 
0.478 -0.051 0.153 3 
0.463 -0.054 0.173 3 
0.464 -0.065 0.143 3 
0.465 -0.068 0.144 3 
0.467 -0.077 0.144 3 
0.466 -0.12 0.144 3 
0.463 -0.124 0.144 3 
0.465 -0.065 0.098 3 
0.464 -0.062 0.098 3 
0.467 -0.047 0.101 3 
0.46 -0.056 0.092 3 
0.463 -0.057 0.173 3 
0.473 -0.175 0.181 3 
0.473 -0.166 0.181 3 
0.464 -0.095 0.176 3 
0.464 -0.087 0.176 3 
0.469 -0.085 0.142 3 
0.467 -0.107 0.142 3 
0.464 -0.161 0.169 3 
0.454 -0.05 0.086 3 
0.464 -0.089 0.127 3 
0.473 -0.155 0.184 3 
0.47 -0.145 0.174 3 
0.469 -0.096 0.142 3 
0.455 -0.129 0.144 3 
0.464 -0.065 0.146 3 
0.466 -0.069 0.171 3 
0.467 -0.077 0.172 3 
0.468 -0.105 0.172 3 
0.468 -0.116 0.173 3 
0.469 -0.125 0.173 3 
0.462 -0.046 0.092 3 
0.47 -0.136 0.174 3 
0.464 -0.065 0.103 3 
0.47 -0.156 0.174 3 
0.467 -0.05 0.144 3 
0.464 -0.054 0.143 3 
0.466 -0.096 0.174 3 
0.466 -0.085 0.174 3 
0.464 -0.065 0.173 3 
0.467 -0.061 0.174 3 
0.465 -0.057 0.143 3 
0.466 -0.066 0.122 3 
0.465 -0.057 0.162 3 
0.467 -0.058 0.152 3 
0.464 -0.06 0.143 3 
0.474 -0.185 0.188 3 
0.472 -0.178 0.187 3 
0.473 -0.146 0.186 3 
0.467 -0.105 0.183 3 
0.466 -0.096 0.182 3 
0.47 -0.086 0.184 3 
0.472 -0.059 0.184 3 
0.465 -0.033 0.084 3 
0.465 -0.044 0.103 3 
0.464 -0.065 0.162 3 
0.465 -0.068 0.163 3 
0.467 -0.077 0.163 3 
0.464 -0.036 0.092 3 
0.468 -0.085 0.164 3 
0.469 -0.099 0.164 3 
0.468 -0.105 0.164 3 
0.46 -0.035 0.084 3 
0.468 -0.116 0.164 3 
0.463 -0.054 0.164 3 
0.472 -0.146 0.183 3 
0.472 -0.137 0.183 3 
0.471 -0.126 0.182 3 
0.472 -0.076 0.182 3 
0.472 -0.067 0.182 3 
0.465 -0.055 0.103 3 
0.462 -0.046 0.103 3 
0.458 -0.038 0.102 3 
0.476 -0.037 0.105 3 
0.466 -0.165 0.173 3 
0.462 -0.043 0.132 3 
0.463 -0.057 0.164 3 
0.463 -0.133 0.152 3 
0.47 -0.125 0.154 3 
0.471 -0.117 0.154 3 
0.471 -0.108 0.154 3 
0.472 -0.098 0.154 3 
0.47 -0.086 0.153 3 
0.468 -0.077 0.153 3 
0.464 -0.108 0.136 3 
0.344 -0.012 0.056 7 
0.366 -0.055 0.025 7 
0.311 -0.097 0.016 7 
0.327 -0.064 0.036 7 
0.352 -0.046 0.014 7 
0.32 -0.109 0.014 7 
0.349 -0.024 0.015 7 
0.354 -0.034 0.024 7 
0.369 0.016 0.018 7 
0.301 -0.074 0.034 7 
0.363 -0.043 0.024 7 
0.354 -0.039 0.027 7 
0.323 -0.047 0.034 7 
0.392 -0.005 0.025 7 
0.316 -0.108 0.015 7 
0.299 -0.107 0.023 7 
0.326 -0.117 0.012 7 
0.36 -0.032 0.019 7 
0.391 -0.003 0.023 7 
0.385 -0.005 0.024 7 
0.36 -0.053 0.014 7 
0.321 -0.085 0.023 7 
0.324 -0.076 0.038 7 
0.362 -0.055 0.014 7 
0.365 -0.033 0.013 7 
0.361 -0.043 0.014 7 
0.354 -0.006 0.032 7 
0.323 -0.061 0.036 7 
0.323 -0.083 0.024 7 
0.37 -0.037 0.014 7 
0.312 -0.076 0.034 7 
0.373 0.004 0.019 7 
0.384 0 0.021 7 
0.364 -0.045 0.024 7 
0.365 -0.047 0.024 7 
0.366 -0.056 0.024 7 
0.364 -0.058 0.024 7 
0.364 -0.056 0.026 7 
0.371 0.007 0.019 7 
0.313 -0.084 0.024 7 
0.354 0 0.024 7 
0.302 -0.075 0.033 7 
0.324 -0.078 0.033 7 
0.332 -0.035 0.032 7 
0.33 -0.051 0.033 7 
0.338 -0.058 0.031 7 
0.358 0.005 0.02 7 
0.313 -0.075 0.035 7 
0.375 0.013 0.016 7 
0.332 -0.027 0.026 7 
0.362 -0.004 0.026 7 
0.357 0 0.022 7 
0.355 -0.038 0.027 7 
0.364 -0.045 0.026 7 
0.365 -0.051 0.026 7 
0.315 -0.099 0.015 7 
0.365 -0.042 0.022 7 
0.347 -0.023 0.014 7 
0.301 -0.084 0.024 7 
0.295 -0.097 0.022 7 
0.309 -0.11 0.018 7 
0.303 -0.085 0.023 7 
0.354 -0.043 0.014 7 
0.312 -0.085 0.023 7 
0.311 -0.071 0.04 7 
0.315 -0.072 0.04 7 
0.355 -0.026 0.014 7 
0.341 -0.019 0.015 7 
