# .PCD v0.7 - Point Cloud Data file
FIELDS x y z intensity
SIZE 4 4 4 4
TYPE F F F F
COUNT 1 1 1 1
WIDTH 2425
HEIGHT 1
VIEWPOINT 0 0 0 1 0 0 0
POINTS 2425
DATA ascii
0.415 -0.026 0.006 0 
0.55 -0.05 0.078 0 
0.416 -0.026 0.004 0 
0.43 -0.029 0.003 0 
0.513 -0.06 0.129 0 
0.414 -0.023 0.007 0 
0.51 -0.041 0.055 0 
0.505 -0.047 0.009 0 
0.595 -0.055 0.092 0 
0.589 -0.055 0.088 0 
0.592 -0.051 0.088 0 
0.38 -0.225 -0.027 1 
0.374 -0.195 -0.024 1 
0.37 -0.146 -0.02 1 
0.363 -0.127 -0.017 1 
0.363 -0.116 -0.017 1 
0.364 -0.107 -0.017 1 
0.361 -0.06 -0.015 1 
0.36 -0.043 -0.015 1 
0.354 0.061 -0.013 1 
0.353 0.104 -0.014 1 
0.352 0.114 -0.014 1 
0.35 0.124 -0.013 1 
0.353 0.154 -0.015 1 
0.351 0.158 -0.015 1 
0.347 0.168 -0.014 1 
0.349 0.174 -0.015 1 
0.343 0.205 -0.015 1 
0.384 -0.25 -0.028 1 
0.381 -0.214 -0.025 1 
0.374 -0.186 -0.021 1 
0.374 -0.175 -0.021 1 
0.372 -0.165 -0.02 1 
0.374 -0.136 -0.019 1 
0.374 -0.134 -0.019 1 
0.364 -0.085 -0.015 1 
0.362 -0.055 -0.014 1 
0.364 -0.045 -0.014 1 
0.365 -0.038 -0.015 1 
0.354 -0.026 -0.011 1 
0.331 -0.005 -0.002 1 
0.354 0.034 -0.011 1 
0.354 0.037 -0.011 1 
0.359 0.073 -0.013 1 
0.359 0.084 -0.014 1 
0.361 0.098 -0.015 1 
0.355 0.125 -0.013 1 
0.353 0.131 -0.013 1 
0.353 0.18 -0.015 1 
0.35 0.21 -0.016 1 
0.39 -0.233 -0.026 1 
0.383 -0.206 -0.023 1 
0.382 -0.198 -0.022 1 
0.381 -0.156 -0.02 1 
0.374 -0.118 -0.017 1 
0.374 -0.097 -0.017 1 
0.37 -0.086 -0.015 1 
0.374 -0.076 -0.016 1 
0.37 -0.063 -0.015 1 
0.347 -0.015 -0.007 1 
0.343 -0.009 -0.005 1 
0.339 0.019 -0.005 1 
0.337 -0.005 -0.003 1 
0.351 0.022 -0.008 1 
0.361 0.033 -0.012 1 
0.361 0.044 -0.012 1 
0.364 0.054 -0.013 1 
0.365 0.109 -0.014 1 
0.364 0.12 -0.014 1 
0.364 0.133 -0.015 1 
0.364 0.147 -0.015 1 
0.358 0.183 -0.015 1 
0.359 0.194 -0.016 1 
0.353 0.216 -0.015 1 
0.394 -0.261 -0.027 1 
0.383 -0.115 -0.018 1 
0.384 -0.106 -0.018 1 
0.379 -0.095 -0.016 1 
0.382 -0.085 -0.017 1 
0.382 -0.077 -0.017 1 
0.373 -0.045 -0.014 1 
0.373 -0.036 -0.014 1 
0.368 -0.028 -0.012 1 
0.364 -0.026 -0.011 1 
0.351 -0.006 -0.006 1 
0.363 0.021 -0.011 1 
0.373 0.104 -0.015 1 
0.371 0.124 -0.015 1 
0.372 0.133 -0.016 1 
0.37 0.163 -0.016 1 
0.404 -0.275 -0.029 1 
0.402 -0.256 -0.027 1 
0.391 -0.226 -0.022 1 
0.392 -0.215 -0.022 1 
0.394 -0.211 -0.023 1 
0.39 -0.175 -0.02 1 
0.383 -0.065 -0.015 1 
0.384 -0.062 -0.016 1 
0.383 -0.05 -0.015 1 
0.379 -0.045 -0.014 1 
0.38 -0.035 -0.014 1 
0.381 -0.03 -0.015 1 
0.376 -0.025 -0.013 1 
0.362 -0.015 -0.008 1 
0.362 -0.004 -0.008 1 
0.325 -0.001 0.003 1 
0.324 0.004 0.003 1 
0.324 0.013 0.003 1 
0.325 0.014 0.003 1 
0.374 0.032 -0.013 1 
0.374 0.049 -0.013 1 
0.378 0.114 -0.015 1 
0.374 0.144 -0.015 1 
0.375 0.153 -0.015 1 
0.372 0.183 -0.016 1 
0.37 0.214 -0.017 1 
0.365 0.222 -0.016 1 
0.364 0.223 -0.015 1 
0.363 0.225 -0.015 1 
0.384 -0.217 -0.024 1 
0.403 -0.231 -0.024 1 
0.394 -0.169 -0.019 1 
0.394 -0.125 -0.018 1 
0.394 -0.117 -0.018 1 
0.394 -0.106 -0.018 1 
0.393 -0.077 -0.017 1 
0.39 -0.065 -0.016 1 
0.391 -0.055 -0.016 1 
0.386 -0.036 -0.014 1 
0.373 -0.005 -0.01 1 
0.328 0.016 0.004 1 
0.381 0.043 -0.013 1 
0.384 0.053 -0.014 1 
0.382 0.072 -0.014 1 
0.384 0.079 -0.015 1 
0.383 0.084 -0.014 1 
0.384 0.099 -0.015 1 
0.382 0.124 -0.015 1 
0.381 0.144 -0.015 1 
0.383 0.163 -0.016 1 
0.373 0.233 -0.017 1 
0.372 0.237 -0.016 1 
0.414 -0.286 -0.027 1 
0.413 -0.276 -0.026 1 
0.41 -0.267 -0.025 1 
0.409 -0.258 -0.024 1 
0.413 -0.246 -0.025 1 
0.403 -0.218 -0.021 1 
0.401 -0.205 -0.02 1 
0.403 -0.195 -0.02 1 
0.402 -0.187 -0.02 1 
0.402 -0.175 -0.019 1 
0.401 -0.156 -0.019 1 
0.399 -0.115 -0.017 1 
0.393 -0.046 -0.015 1 
0.394 -0.027 -0.015 1 
0.39 -0.025 -0.014 1 
0.383 -0.016 -0.012 1 
0.384 0.024 -0.012 1 
0.382 0.027 -0.011 1 
0.392 0.053 -0.015 1 
0.391 0.063 -0.015 1 
0.398 -0.241 -0.025 1 
0.389 0.072 -0.014 1 
0.39 0.081 -0.014 1 
0.39 0.083 -0.015 1 
0.39 0.104 -0.015 1 
0.392 0.113 -0.016 1 
0.388 0.132 -0.015 1 
0.385 0.149 -0.014 1 
0.383 0.154 -0.014 1 
0.381 0.179 -0.014 1 
0.381 0.184 -0.015 1 
0.381 0.204 -0.015 1 
0.414 -0.274 -0.024 1 
0.416 -0.268 -0.024 1 
0.42 -0.255 -0.025 1 
0.414 -0.236 -0.023 1 
0.404 -0.147 -0.017 1 
0.404 -0.144 -0.017 1 
0.404 -0.095 -0.016 1 
0.404 -0.085 -0.016 1 
0.403 -0.076 -0.016 1 
0.402 -0.065 -0.015 1 
0.402 -0.056 -0.015 1 
0.398 -0.047 -0.014 1 
0.4 -0.045 -0.015 1 
0.404 -0.035 -0.016 1 
0.401 -0.028 -0.015 1 
0.384 -0.009 -0.01 1 
0.397 0.084 -0.015 1 
0.394 0.093 -0.014 1 
0.396 0.104 -0.015 1 
0.394 0.123 -0.014 1 
0.393 0.133 -0.014 1 
0.394 0.144 -0.015 1 
0.393 0.152 -0.015 1 
0.391 0.16 -0.014 1 
0.391 0.164 -0.015 1 
0.39 0.184 -0.015 1 
0.388 0.194 -0.015 1 
0.391 0.223 -0.017 1 
0.383 0.244 -0.016 1 
0.383 0.249 -0.016 1 
0.424 -0.301 -0.026 1 
0.422 -0.286 -0.025 1 
0.421 -0.282 -0.024 1 
0.426 -0.276 -0.025 1 
0.426 -0.267 -0.025 1 
0.414 -0.226 -0.02 1 
0.36 -0.006 -0.008 1 
0.414 -0.218 -0.02 1 
0.411 -0.206 -0.019 1 
0.411 -0.196 -0.018 1 
0.412 -0.185 -0.018 1 
0.412 -0.166 -0.018 1 
0.409 -0.145 -0.016 1 
0.412 -0.126 -0.017 1 
0.391 -0.247 -0.027 1 
0.414 -0.12 -0.017 1 
0.412 -0.105 -0.017 1 
0.412 -0.096 -0.017 1 
0.411 -0.085 -0.016 1 
0.411 -0.076 -0.016 1 
0.409 -0.045 -0.015 1 
0.403 -0.027 -0.014 1 
0.393 -0.015 -0.011 1 
0.394 -0.009 -0.011 1 
0.4 0.034 -0.013 1 
0.403 0.053 -0.014 1 
0.402 0.072 -0.014 1 
0.403 0.114 -0.015 1 
0.402 0.122 -0.015 1 
0.373 -0.106 -0.018 1 
0.4 0.124 -0.014 1 
0.399 0.154 -0.015 1 
0.393 0.191 -0.014 1 
0.393 0.198 -0.014 1 
0.393 0.203 -0.015 1 
0.393 0.242 -0.016 1 
0.391 0.253 -0.016 1 
0.422 -0.286 -0.022 1 
0.422 -0.235 -0.02 1 
0.422 -0.228 -0.02 1 
0.418 -0.217 -0.019 1 
0.417 -0.209 -0.018 1 
0.416 -0.195 -0.017 1 
0.419 -0.106 -0.016 1 
0.418 -0.096 -0.016 1 
0.417 -0.066 -0.015 1 
0.4 -0.016 -0.011 1 
0.4 -0.009 -0.011 1 
0.408 0.054 -0.013 1 
0.409 0.083 -0.014 1 
0.409 0.094 -0.014 1 
0.409 0.103 -0.014 1 
0.409 0.122 -0.015 1 
0.392 0.024 -0.012 1 
0.403 0.143 -0.013 1 
0.404 0.146 -0.014 1 
0.402 0.163 -0.013 1 
0.404 0.174 -0.015 1 
0.403 0.183 -0.015 1 
0.402 0.192 -0.015 1 
0.401 0.193 -0.014 1 
0.401 0.215 -0.015 1 
0.403 0.234 -0.016 1 
0.393 0.258 -0.015 1 
0.395 0.263 -0.016 1 
0.434 -0.306 -0.024 1 
0.431 -0.287 -0.022 1 
0.431 -0.275 -0.021 1 
0.432 -0.256 -0.021 1 
0.432 -0.247 -0.021 1 
0.429 -0.236 -0.019 1 
0.429 -0.228 -0.019 1 
0.428 -0.215 -0.019 1 
0.421 -0.157 -0.016 1 
0.394 0.206 -0.015 1 
0.424 -0.13 -0.016 1 
0.422 -0.086 -0.015 1 
0.424 -0.075 -0.015 1 
0.413 -0.025 -0.012 1 
0.409 -0.01 -0.011 1 
0.414 0.031 -0.013 1 
0.414 0.036 -0.013 1 
0.414 0.06 -0.013 1 
0.414 0.065 -0.013 1 
0.414 0.124 -0.014 1 
0.41 0.133 -0.013 1 
0.409 0.163 -0.013 1 
0.411 0.182 -0.015 1 
0.403 0.214 -0.013 1 
0.395 -0.236 -0.024 1 
0.411 0.224 -0.016 1 
0.404 0.27 -0.016 1 
0.434 -0.206 -0.018 1 
0.434 -0.196 -0.017 1 
0.431 -0.186 -0.016 1 
0.432 -0.176 -0.017 1 
0.43 -0.147 -0.015 1 
0.431 -0.092 -0.015 1 
0.431 -0.075 -0.015 1 
0.432 -0.065 -0.015 1 
0.431 -0.063 -0.015 1 
0.424 -0.047 -0.013 1 
0.384 -0.186 -0.02 1 
0.394 -0.145 -0.018 1 
0.402 0.103 -0.014 1 
0.424 -0.036 -0.013 1 
0.416 -0.012 -0.011 1 
0.324 0.013 0.013 1 
0.333 -0.011 -0.005 1 
0.325 0.014 0.013 1 
0.419 -0.175 -0.018 1 
0.422 0.044 -0.013 1 
0.418 0.064 -0.012 1 
0.423 0.093 -0.013 1 
0.421 0.104 -0.013 1 
0.418 0.124 -0.013 1 
0.414 0.143 -0.012 1 
0.414 0.145 -0.012 1 
0.414 0.184 -0.013 1 
0.398 0.059 -0.015 1 
0.411 0.214 -0.013 1 
0.414 0.232 -0.015 1 
0.413 0.244 -0.015 1 
0.413 0.263 -0.016 1 
0.411 0.272 -0.016 1 
0.407 0.276 -0.015 1 
0.443 -0.275 -0.019 1 
0.436 -0.171 -0.015 1 
0.435 -0.158 -0.015 1 
0.434 -0.147 -0.014 1 
0.434 -0.125 -0.014 1 
0.434 -0.095 -0.013 1 
0.432 -0.085 -0.013 1 
0.434 -0.083 -0.013 1 
0.423 -0.017 -0.01 1 
0.493 -0.01 -0.029 1 
0.326 0.016 0.014 1 
0.427 0.066 -0.012 1 
0.423 0.074 -0.011 1 
0.422 0.154 -0.012 1 
0.423 0.162 -0.012 1 
0.411 0.281 -0.014 1 
0.451 -0.318 -0.02 1 
0.444 -0.297 -0.018 1 
0.44 -0.255 -0.015 1 
0.444 -0.235 -0.016 1 
0.445 -0.225 -0.016 1 
0.443 -0.216 -0.015 1 
0.443 -0.186 -0.015 1 
0.443 -0.176 -0.014 1 
0.44 -0.166 -0.013 1 
0.439 -0.155 -0.013 1 
0.442 -0.146 -0.014 1 
0.442 -0.136 -0.013 1 
0.44 -0.125 -0.013 1 
0.442 -0.116 -0.013 1 
0.439 -0.097 -0.012 1 
0.424 0.077 -0.011 1 
0.438 -0.087 -0.012 1 
0.441 -0.065 -0.013 1 
0.444 -0.056 -0.013 1 
0.446 -0.044 -0.014 1 
0.403 0.064 -0.014 1 
0.437 -0.04 -0.011 1 
0.422 -0.031 -0.008 1 
0.427 -0.013 -0.009 1 
0.513 -0.011 -0.031 1 
0.434 0.036 -0.011 1 
0.434 0.053 -0.011 1 
0.434 0.055 -0.011 1 
0.46 0.071 -0.018 1 
0.449 0.071 -0.015 1 
0.431 0.084 -0.011 1 
0.409 -0.055 -0.015 1 
0.433 0.094 -0.011 1 
0.433 0.123 -0.012 1 
0.423 0.183 -0.011 1 
0.423 0.185 -0.011 1 
0.423 0.214 -0.012 1 
0.422 0.223 -0.012 1 
0.419 0.231 -0.011 1 
0.421 0.244 -0.012 1 
0.419 0.253 -0.012 1 
0.421 0.271 -0.013 1 
0.419 0.284 -0.013 1 
0.421 0.292 -0.014 1 
0.454 -0.331 -0.019 1 
0.447 -0.288 -0.015 1 
0.444 -0.267 -0.014 1 
0.442 -0.256 -0.013 1 
0.444 -0.25 -0.013 1 
0.449 -0.185 -0.013 1 
0.451 -0.156 -0.013 1 
0.452 -0.146 -0.014 1 
0.449 -0.116 -0.012 1 
0.45 -0.106 -0.013 1 
0.446 -0.097 -0.012 1 
0.447 -0.087 -0.012 1 
0.447 -0.067 -0.012 1 
0.441 0.042 -0.01 1 
0.443 0.06 -0.011 1 
0.439 0.084 -0.01 1 
0.438 0.103 -0.01 1 
0.434 0.154 -0.01 1 
0.433 0.174 -0.011 1 
0.429 0.182 -0.01 1 
0.429 0.192 -0.01 1 
0.429 0.203 -0.01 1 
0.429 0.224 -0.011 1 
0.428 0.234 -0.011 1 
0.424 0.295 -0.012 1 
0.459 -0.307 -0.016 1 
0.453 -0.279 -0.014 1 
0.416 0.134 -0.012 1 
0.454 -0.267 -0.014 1 
0.451 -0.256 -0.013 1 
0.454 -0.235 -0.013 1 
0.454 -0.229 -0.013 1 
0.453 -0.218 -0.012 1 
0.452 -0.206 -0.012 1 
0.454 -0.196 -0.012 1 
0.475 -0.057 -0.016 1 
0.401 -0.005 -0.015 1 
0.488 -0.056 -0.019 1 
0.482 -0.052 -0.017 1 
0.442 0.032 -0.008 1 
0.45 0.059 -0.01 1 
0.444 0.121 -0.009 1 
0.444 0.134 -0.01 1 
0.44 0.163 -0.009 1 
0.429 0.21 -0.008 1 
0.433 0.252 -0.01 1 
0.527 -0.011 -0.028 1 
0.432 0.274 -0.011 1 
0.431 0.294 -0.011 1 
0.466 -0.348 -0.016 1 
0.466 -0.338 -0.016 1 
0.434 0.114 -0.012 1 
0.464 -0.325 -0.015 1 
0.464 -0.318 -0.015 1 
0.461 -0.235 -0.012 1 
0.46 -0.215 -0.011 1 
0.461 -0.195 -0.011 1 
0.459 -0.136 -0.01 1 
0.461 -0.115 -0.01 1 
0.464 -0.097 -0.011 1 
0.383 -0.238 -0.029 1 
0.462 -0.057 -0.01 1 
0.373 0.043 -0.012 1 
0.491 -0.048 -0.017 1 
0.476 -0.043 -0.013 1 
0.423 0.053 -0.013 1 
0.441 -0.028 -0.005 1 
0.411 0.113 -0.015 1 
0.545 -0.015 -0.029 1 
0.451 0.033 -0.008 1 
0.442 0.143 -0.009 1 
0.454 0.044 -0.008 1 
0.486 0.063 -0.016 1 
0.48 0.071 -0.015 1 
0.44 0.071 -0.005 1 
0.452 0.082 -0.008 1 
0.451 0.092 -0.008 1 
0.451 0.103 -0.008 1 
0.45 0.113 -0.008 1 
0.45 0.134 -0.008 1 
0.444 0.173 -0.008 1 
0.411 0.194 -0.015 1 
0.442 0.183 -0.008 1 
0.443 0.194 -0.008 1 
0.443 0.202 -0.008 1 
0.442 0.213 -0.008 1 
0.44 0.244 -0.009 1 
0.439 0.284 -0.01 1 
0.43 0.302 -0.009 1 
0.463 -0.298 -0.011 1 
0.464 -0.255 -0.01 1 
0.464 -0.155 -0.008 1 
0.464 -0.079 -0.008 1 
0.474 -0.054 -0.01 1 
0.497 -0.055 -0.015 1 
0.492 -0.048 -0.014 1 
0.411 -0.255 -0.025 1 
0.496 -0.046 -0.015 1 
0.474 -0.04 -0.01 1 
0.502 -0.02 -0.016 1 
0.54 -0.015 -0.025 1 
0.461 0.053 -0.007 1 
0.448 0.071 -0.005 1 
0.453 0.154 -0.007 1 
0.45 0.174 -0.007 1 
0.444 0.274 -0.008 1 
0.443 0.294 -0.008 1 
0.473 -0.356 -0.012 1 
0.472 -0.348 -0.011 1 
0.473 -0.338 -0.011 1 
0.433 0.133 -0.012 1 
0.443 0.258 -0.007 1 
0.471 -0.326 -0.01 1 
0.363 -0.075 -0.016 1 
0.471 -0.316 -0.01 1 
0.448 -0.049 -0.014 1 
0.472 -0.307 -0.01 1 
0.472 -0.247 -0.009 1 
0.471 -0.237 -0.008 1 
0.469 -0.155 -0.007 1 
0.469 -0.146 -0.007 1 
0.47 -0.116 -0.007 1 
0.471 -0.105 -0.007 1 
0.469 -0.085 -0.006 1 
0.468 -0.066 -0.006 1 
0.474 -0.056 -0.007 1 
0.501 -0.046 -0.013 1 
0.495 -0.043 -0.012 1 
0.455 -0.027 -0.003 1 
0.465 -0.025 -0.005 1 
0.549 -0.016 -0.023 1 
0.463 0.037 -0.005 1 
0.454 0.054 -0.009 1 
0.468 0.044 -0.006 1 
0.373 0.024 -0.012 1 
0.459 0.074 -0.005 1 
0.459 0.092 -0.005 1 
0.459 0.124 -0.005 1 
0.457 0.142 -0.005 1 
0.457 0.153 -0.005 1 
0.455 0.172 -0.005 1 
0.455 0.177 -0.005 1 
0.394 0.233 -0.016 1 
0.453 0.184 -0.005 1 
0.453 0.193 -0.005 1 
0.453 0.204 -0.005 1 
0.452 0.214 -0.005 1 
0.452 0.223 -0.006 1 
0.451 0.234 -0.006 1 
0.45 0.244 -0.006 1 
0.449 0.252 -0.006 1 
0.448 0.263 -0.006 1 
0.449 0.273 -0.006 1 
0.409 -0.036 -0.015 1 
0.444 0.314 -0.007 1 
0.443 0.316 -0.007 1 
0.458 0.132 -0.005 1 
0.472 -0.287 -0.007 1 
0.473 -0.275 -0.007 1 
0.414 -0.177 -0.019 1 
0.475 -0.255 -0.007 1 
0.477 -0.247 -0.007 1 
0.476 -0.237 -0.006 1 
0.475 -0.228 -0.006 1 
0.474 -0.225 -0.006 1 
0.473 -0.215 -0.006 1 
0.472 -0.197 -0.005 1 
0.472 -0.176 -0.005 1 
0.479 -0.052 -0.005 1 
0.535 -0.015 -0.017 1 
0.559 -0.009 -0.022 1 
0.39 -0.155 -0.019 1 
0.464 0.03 -0.003 1 
0.477 0.064 -0.005 1 
0.454 0.233 -0.004 1 
0.454 0.242 -0.004 1 
0.453 0.253 -0.004 1 
0.453 0.283 -0.005 1 
0.453 0.289 -0.005 1 
0.45 0.301 -0.005 1 
0.449 0.313 -0.005 1 
0.447 0.321 -0.005 1 
0.478 -0.358 -0.007 1 
0.479 -0.345 -0.007 1 
0.478 -0.336 -0.006 1 
0.478 -0.326 -0.006 1 
0.394 0.043 -0.013 1 
0.479 -0.317 -0.006 1 
0.479 -0.307 -0.006 1 
0.479 -0.297 -0.005 1 
0.479 -0.29 -0.005 1 
0.474 -0.276 -0.004 1 
0.474 -0.273 -0.004 1 
0.474 -0.264 -0.004 1 
0.473 -0.215 -0.003 1 
0.473 -0.206 -0.003 1 
0.474 -0.195 -0.003 1 
0.473 -0.185 -0.002 1 
0.507 -0.056 -0.008 1 
0.483 -0.018 -0.004 1 
0.516 -0.014 -0.01 1 
0.525 -0.008 -0.012 1 
0.468 0.033 -0.001 1 
0.489 0.052 -0.005 1 
0.491 0.061 -0.005 1 
0.454 0.259 -0.001 1 
0.453 0.304 -0.003 1 
0.454 0.312 -0.003 1 
0.475 -0.059 0 1 
0.482 -0.052 0 1 
0.507 -0.053 -0.005 1 
0.522 -0.046 -0.008 1 
0.506 -0.041 -0.005 1 
0.508 -0.017 -0.005 1 
0.421 -0.145 -0.015 1 
0.459 0.114 -0.005 1 
0.462 0.037 0.002 1 
0.474 0.042 0 1 
0.481 0.045 -0.001 1 
0.494 0.056 -0.003 1 
0.432 -0.046 -0.013 1 
0.454 0.322 0 1 
0.454 0.328 -0.001 1 
0.476 -0.196 0.002 1 
0.475 -0.184 0.002 1 
0.474 -0.177 0.002 1 
0.42 0.113 -0.013 1 
0.469 -0.066 0.004 1 
0.471 -0.056 0.003 1 
0.492 -0.036 0 1 
0.461 -0.176 -0.011 1 
0.464 0.094 0.004 1 
0.463 0.104 0.004 1 
0.463 0.112 0.004 1 
0.463 0.123 0.004 1 
0.461 0.153 0.004 1 
0.461 0.173 0.003 1 
0.461 0.184 0.003 1 
0.461 0.192 0.003 1 
0.461 0.204 0.003 1 
0.46 0.223 0.003 1 
0.46 0.232 0.003 1 
0.46 0.244 0.002 1 
0.379 -0.175 -0.02 1 
0.462 0.263 0.002 1 
0.462 0.273 0.001 1 
0.481 -0.315 0.002 1 
0.48 -0.308 0.002 1 
0.48 -0.298 0.002 1 
0.478 -0.286 0.003 1 
0.476 -0.275 0.003 1 
0.513 -0.045 0 1 
0.459 0.282 0.004 1 
0.46 0.292 0.004 1 
0.459 0.304 0.004 1 
0.459 0.314 0.004 1 
0.459 0.324 0.003 1 
0.359 0.104 -0.014 1 
0.481 -0.332 0.004 1 
0.507 -0.044 0.003 1 
0.416 0.203 -0.012 1 
0.469 0.049 -0.006 1 
0.504 -0.05 0.006 1 
0.46 -0.067 -0.01 1 
0.411 0.204 -0.013 1 
0.382 -0.146 -0.019 1 
0.461 -0.086 -0.01 1 
0.454 -0.169 -0.012 1 
0.46 -0.126 -0.01 1 
0.392 -0.097 -0.017 1 
0.464 -0.149 -0.008 1 
0.38 0.187 -0.014 1 
0.464 -0.166 -0.009 1 
0.462 -0.187 -0.011 1 
0.463 -0.228 -0.012 1 
0.464 -0.252 -0.01 1 
0.439 0.252 -0.009 1 
0.463 -0.285 -0.01 1 
0.441 -0.075 -0.013 1 
0.43 -0.106 -0.015 1 
0.529 -0.024 0.012 1 
0.403 -0.106 -0.016 1 
0.409 0.106 -0.014 1 
0.429 -0.137 -0.015 1 
0.371 0.114 -0.015 1 
0.43 0.144 -0.011 1 
0.459 -0.025 -0.007 1 
0.533 -0.031 0.015 1 
0.541 -0.028 0.014 1 
0.391 0.172 -0.015 1 
0.432 0.103 -0.011 1 
0.441 -0.267 -0.016 1 
0.439 0.094 -0.01 1 
0.443 -0.319 -0.021 1 
0.403 0.134 -0.013 1 
0.47 -0.075 0.004 1 
0.548 -0.022 0.017 1 
0.453 0.143 -0.007 1 
0.402 0.204 -0.013 1 
0.456 -0.3 -0.015 1 
0.4 -0.126 -0.018 1 
0.45 -0.137 -0.013 1 
0.475 -0.187 0.002 1 
0.441 -0.247 -0.015 1 
0.359 0.093 -0.014 1 
0.342 -0.015 -0.006 1 
0.369 -0.015 -0.009 1 
0.419 0.264 -0.015 1 
0.424 -0.257 -0.024 1 
0.445 -0.222 -0.016 1 
0.454 -0.017 -0.011 1 
0.362 0.113 -0.014 1 
0.431 -0.126 -0.015 1 
0.46 -0.206 -0.011 1 
0.364 -0.067 -0.016 1 
0.467 -0.312 -0.015 1 
0.441 0.153 -0.009 1 
0.444 -0.182 -0.015 1 
0.354 0.164 -0.014 1 
0.432 0.283 -0.011 1 
0.414 -0.037 -0.014 1 
0.363 0.144 -0.015 1 
0.393 0.033 -0.013 1 
0.353 0.054 -0.013 1 
0.389 -0.195 -0.02 1 
0.444 -0.053 -0.013 1 
0.394 -0.14 -0.018 1 
0.4 0.242 -0.016 1 
0.37 -0.065 -0.015 1 
0.362 0.203 -0.015 1 
0.438 0.054 -0.01 1 
0.436 -0.028 -0.002 1 
0.447 -0.276 -0.015 1 
0.442 -0.207 -0.015 1 
0.552 -0.022 0.013 1 
0.415 -0.041 -0.015 1 
0.454 0.224 -0.003 1 
0.444 -0.195 -0.015 1 
0.352 0.204 -0.016 1 
0.347 -0.004 -0.005 1 
0.401 0.213 -0.015 1 
0.381 -0.126 -0.018 1 
0.393 0.137 -0.014 1 
0.457 0.332 0.003 1 
0.374 0.204 -0.015 1 
0.404 -0.25 -0.025 1 
0.428 -0.156 -0.015 1 
0.388 0.124 -0.015 1 
0.37 0.063 -0.013 1 
0.402 0.107 -0.014 1 
0.411 0.221 -0.013 1 
0.501 -0.037 0.004 1 
0.433 -0.169 -0.017 1 
0.353 0.194 -0.016 1 
0.412 -0.135 -0.017 1 
0.419 -0.252 -0.025 1 
0.412 0.254 -0.015 1 
0.433 -0.265 -0.022 1 
0.422 -0.246 -0.023 1 
0.422 -0.054 -0.015 1 
0.4 -0.167 -0.019 1 
0.454 -0.128 -0.011 1 
0.473 -0.295 -0.01 1 
0.354 0.14 -0.015 1 
0.382 0.193 -0.015 1 
0.551 -0.012 -0.02 1 
0.42 -0.166 -0.018 1 
0.47 -0.127 -0.007 1 
0.463 -0.023 -0.005 1 
0.371 0.093 -0.014 1 
0.433 0.156 -0.01 1 
0.418 0.174 -0.012 1 
0.363 0.164 -0.016 1 
0.414 0.174 -0.013 1 
0.417 -0.266 -0.025 1 
0.409 -0.066 -0.015 1 
0.423 -0.136 -0.016 1 
0.472 -0.205 -0.005 1 
0.392 -0.235 -0.025 1 
0.362 0.174 -0.016 1 
0.462 -0.269 -0.013 1 
0.398 0.054 -0.015 1 
0.464 -0.339 -0.015 1 
0.454 -0.027 -0.006 1 
0.44 0.303 -0.008 1 
0.394 0.101 -0.014 1 
0.519 -0.011 -0.029 1 
0.421 0.263 -0.013 1 
0.423 0.143 -0.012 1 
0.443 -0.293 -0.017 1 
0.434 -0.299 -0.023 1 
0.461 0.253 0.002 1 
0.394 -0.036 -0.015 1 
0.453 -0.285 -0.014 1 
0.439 -0.016 -0.01 1 
0.361 -0.095 -0.016 1 
0.463 -0.108 -0.01 1 
0.448 -0.077 -0.012 1 
0.413 -0.241 -0.025 1 
0.484 0.054 -0.007 1 
0.412 -0.156 -0.018 1 
0.383 0.133 -0.015 1 
0.368 -0.055 -0.014 1 
0.461 0.164 0.004 1 
0.432 0.262 -0.01 1 
0.454 -0.063 -0.011 1 
0.449 -0.177 -0.013 1 
0.419 -0.185 -0.018 1 
0.444 0.113 -0.009 1 
0.432 0.031 -0.008 1 
0.403 -0.268 -0.028 1 
0.394 0.045 -0.013 1 
0.403 0.167 -0.014 1 
0.43 -0.032 -0.005 1 
0.406 0.173 -0.015 1 
0.442 -0.305 -0.017 1 
0.475 0.067 -0.008 1 
0.433 -0.056 -0.013 1 
0.376 -0.216 -0.025 1 
0.374 -0.157 -0.02 1 
0.381 0.223 -0.016 1 
0.48 0.062 -0.003 1 
0.417 0.273 -0.015 1 
0.472 -0.185 -0.005 1 
0.447 -0.273 -0.015 1 
0.372 0.174 -0.015 1 
0.402 0.083 -0.014 1 
0.454 0.268 -0.002 1 
0.454 0.293 -0.002 1 
0.501 -0.046 0.004 1 
0.39 0.085 -0.015 1 
0.374 0.154 -0.015 1 
0.379 0.232 -0.016 1 
0.462 0.142 0.004 1 
0.354 0.082 -0.013 1 
0.438 -0.307 -0.025 1 
0.515 -0.054 0 1 
0.472 -0.265 -0.006 1 
0.397 0.254 -0.016 1 
0.47 -0.136 -0.007 1 
0.391 -0.185 -0.021 1 
0.42 -0.116 -0.017 1 
0.356 0.139 -0.014 1 
0.463 0.083 0.004 1 
0.474 -0.257 -0.006 1 
0.383 -0.168 -0.02 1 
0.394 -0.089 -0.017 1 
0.46 0.082 -0.005 1 
0.401 0.044 -0.013 1 
0.382 0.064 -0.014 1 
0.382 0.214 -0.016 1 
0.424 0.03 -0.011 1 
0.491 -0.016 -0.005 1 
0.424 -0.279 -0.025 1 
0.465 -0.316 -0.015 1 
0.444 0.222 -0.009 1 
0.353 0.073 -0.013 1 
0.441 -0.225 -0.017 1 
0.481 -0.018 -0.006 1 
0.372 0.193 -0.016 1 
0.412 0.225 -0.014 1 
0.46 0.034 -0.007 1 
0.471 -0.17 -0.005 1 
0.423 -0.056 -0.015 1 
0.465 0.054 0.001 1 
0.364 -0.036 -0.014 1 
0.383 0.174 -0.015 1 
0.383 0.094 -0.014 1 
0.456 0.164 -0.005 1 
0.462 -0.275 -0.013 1 
0.407 -0.031 -0.015 1 
0.428 -0.036 -0.009 1 
0.442 -0.105 -0.013 1 
0.46 0.214 0.003 1 
0.434 0.242 -0.01 1 
0.453 -0.249 -0.01 1 
0.451 0.124 -0.009 1 
0.361 0.213 -0.016 1 
0.371 0.074 -0.014 1 
0.432 -0.015 -0.01 1 
0.468 -0.077 -0.006 1 
0.411 -0.016 -0.012 1 
0.44 0.233 -0.009 1 
0.531 -0.015 -0.029 1 
0.471 -0.097 -0.007 1 
0.434 -0.165 -0.014 1 
0.382 -0.135 -0.018 1 
0.465 -0.333 -0.015 1 
0.43 -0.115 -0.015 1 
0.471 -0.018 -0.007 1 
0.431 -0.096 -0.015 1 
0.458 0.103 -0.005 1 
0.371 0.084 -0.014 1 
0.542 -0.012 -0.025 1 
0.452 0.162 -0.007 1 
0.36 0.063 -0.014 1 
0.504 -0.041 0.007 1 
0.489 0.049 -0.002 1 
0.475 -0.207 0.004 1 
0.402 0.094 -0.014 1 
0.371 -0.008 0.049 2 
0.383 0.047 0.034 2 
0.375 -0.008 0.047 2 
0.364 -0.006 0.04 2 
0.369 0.027 0.035 2 
0.366 0.013 0.013 2 
0.38 -0.022 0.03 2 
0.372 0.004 0.012 2 
0.384 -0.001 0.013 2 
0.565 -0.027 0.02 2 
0.559 -0.023 0.01 2 
0.562 -0.044 0.036 2 
0.598 -0.021 0.049 2 
0.574 -0.045 0.046 2 
0.596 -0.036 0.062 2 
0.56 -0.026 0.01 2 
0.596 -0.025 0.049 2 
0.54 -0.028 0.011 2 
0.539 -0.038 0.013 2 
0.588 -0.028 0.049 2 
0.589 -0.036 0.05 2 
0.584 -0.039 0.05 2 
0.553 -0.04 0.022 2 
0.577 -0.02 0.03 2 
0.594 -0.044 0.069 2 
0.598 -0.04 0.069 2 
0.532 -0.018 0.009 2 
0.55 -0.026 0.007 2 
0.574 -0.045 0.043 2 
0.53 -0.037 0.007 2 
0.582 -0.017 0.077 2 
0.585 -0.05 0.092 2 
0.56 -0.044 0.032 2 
0.568 -0.038 0.032 2 
0.572 -0.027 0.03 2 
0.556 -0.016 0.074 2 
0.581 -0.046 0.05 2 
0.524 -0.034 0.005 2 
0.581 -0.05 0.081 2 
0.573 -0.034 0.036 2 
0.591 -0.025 0.041 2 
0.542 -0.035 0.013 2 
0.565 -0.023 0.013 2 
0.516 -0.039 0 2 
0.521 -0.017 0.016 2 
0.512 -0.026 0.028 2 
0.514 -0.036 0.003 2 
0.515 -0.026 0.001 2 
0.55 -0.029 0.021 2 
0.572 -0.024 0.023 2 
0.592 -0.04 0.062 2 
0.587 -0.047 0.061 2 
0.525 -0.014 0.068 2 
0.562 -0.03 0.024 2 
0.554 -0.04 0.026 2 
0.583 -0.035 0.043 2 
0.532 -0.015 0.065 2 
0.539 -0.018 0.022 2 
0.596 -0.029 0.056 2 
0.503 -0.038 0.023 2 
0.556 -0.033 0.022 2 
0.555 -0.036 0.022 2 
0.581 -0.054 0.092 2 
0.538 -0.018 0.018 2 
0.534 -0.015 0.061 2 
0.563 -0.023 0.017 2 
0.592 -0.021 0.041 2 
0.582 -0.028 0.037 2 
0.574 -0.038 0.039 2 
0.274 0.016 0.074 3 
0.275 0.017 0.074 3 
0.272 -0.005 0.084 3 
0.296 0.02 0.052 3 
0.307 -0.004 0.051 3 
0.274 0.004 0.074 3 
0.286 0.018 0.064 3 
0.295 -0.001 0.059 3 
0.275 0.024 0.101 3 
0.297 0.027 0.095 3 
0.282 0.017 0.064 3 
0.283 0.014 0.064 3 
0.257 0.004 0.096 3 
0.259 -0.005 0.097 3 
0.296 0.021 0.066 3 
0.255 0.015 0.094 3 
0.255 0.012 0.094 3 
0.265 -0.006 0.099 3 
0.294 0.019 0.054 3 
0.274 0.013 0.074 3 
0.326 0 0.036 3 
0.315 0.005 0.037 3 
0.275 0.014 0.073 3 
0.275 0.003 0.074 3 
0.255 0.011 0.095 3 
0.257 0.002 0.094 3 
0.296 0.02 0.061 3 
0.275 0.014 0.078 3 
0.277 0.022 0.081 3 
0.287 0.026 0.102 3 
0.265 -0.005 0.094 3 
0.305 0.021 0.046 3 
0.32 -0.005 0.052 3 
0.269 0.019 0.084 3 
0.265 0.02 0.093 3 
0.265 -0.004 0.093 3 
0.285 -0.002 0.065 3 
0.275 -0.007 0.097 3 
0.299 0.023 0.079 3 
0.284 0.004 0.064 3 
0.285 0.001 0.064 3 
0.276 -0.007 0.094 3 
0.298 -0.01 0.101 3 
0.307 0.023 0.064 3 
0.306 0.014 0.042 3 
0.275 -0.006 0.084 3 
0.304 -0.009 0.088 3 
0.305 0.004 0.044 3 
0.304 0.013 0.044 3 
0.311 0.022 0.043 3 
0.317 0 0.04 3 
0.289 0.021 0.078 3 
0.281 0.025 0.101 3 
0.263 -0.005 0.094 3 
0.287 -0.009 0.1 3 
0.295 0.009 0.053 3 
0.266 0.01 0.084 3 
0.287 -0.005 0.07 3 
0.286 0.019 0.069 3 
0.295 -0.005 0.07 3 
0.292 0.004 0.054 3 
0.285 0.014 0.062 3 
0.28 0.024 0.092 3 
0.321 0.014 0.034 3 
0.321 0.004 0.034 3 
0.295 0.001 0.054 3 
0.292 0.013 0.054 3 
0.285 0.025 0.093 3 
0.265 0.014 0.087 3 
0.275 0.003 0.078 3 
0.324 -0.001 0.014 3 
0.267 0.022 0.1 3 
0.308 -0.005 0.07 3 
0.253 0.014 0.094 3 
0.254 0.015 0.095 3 
0.259 0.019 0.097 3 
0.254 0.012 0.095 3 
0.324 0.001 0.019 3 
0.266 0.003 0.084 3 
0.461 0.305 0.144 3 
0.462 0.064 0.143 3 
0.462 0.293 0.144 3 
0.461 0.264 0.123 3 
0.462 0.164 0.063 3 
0.461 0.292 0.124 3 
0.463 0.182 0.122 3 
0.461 0.243 0.123 3 
0.461 0.273 0.124 3 
0.461 0.234 0.123 3 
0.461 0.282 0.124 3 
0.464 0.108 0.144 3 
0.464 0.103 0.122 3 
0.464 0.124 0.122 3 
0.463 0.132 0.122 3 
0.463 0.143 0.122 3 
0.462 0.184 0.054 3 
0.463 0.154 0.122 3 
0.462 0.162 0.122 3 
0.458 0.334 0.122 3 
0.465 0.122 0.144 3 
0.461 0.324 0.122 3 
0.461 0.222 0.123 3 
0.465 0.114 0.119 3 
0.465 0.103 0.144 3 
0.466 0.093 0.144 3 
0.466 0.084 0.144 3 
0.463 0.174 0.122 3 
0.46 0.302 0.082 3 
0.465 0.087 0.119 3 
0.462 0.112 0.012 3 
0.463 0.194 0.122 3 
0.463 0.202 0.123 3 
0.463 0.163 0.133 3 
0.463 0.073 0.132 3 
0.465 0.084 0.133 3 
0.465 0.092 0.133 3 
0.465 0.103 0.133 3 
0.465 0.114 0.133 3 
0.464 0.116 0.133 3 
0.465 0.122 0.133 3 
0.465 0.125 0.133 3 
0.465 0.064 0.063 3 
0.464 0.133 0.133 3 
0.461 0.222 0.134 3 
0.464 0.144 0.133 3 
0.462 0.064 0.132 3 
0.463 0.134 0.004 3 
0.464 0.122 0.136 3 
0.463 0.174 0.133 3 
0.463 0.183 0.133 3 
0.464 0.192 0.134 3 
0.462 0.203 0.134 3 
0.461 0.213 0.134 3 
0.461 0.234 0.134 3 
0.46 0.251 0.123 3 
0.461 0.243 0.134 3 
0.462 0.25 0.134 3 
0.462 0.201 0.092 3 
0.461 0.301 0.133 3 
0.461 0.311 0.124 3 
0.462 0.064 0.124 3 
0.464 0.084 0.124 3 
0.464 0.092 0.124 3 
0.464 0.114 0.125 3 
0.465 0.081 0.063 3 
0.464 0.095 0.127 3 
0.464 0.076 0.13 3 
0.461 0.261 0.132 3 
0.461 0.282 0.132 3 
0.462 0.284 0.144 3 
0.461 0.292 0.132 3 
0.461 0.304 0.124 3 
0.461 0.314 0.133 3 
0.461 0.324 0.133 3 
0.462 0.274 0.144 3 
0.463 0.263 0.143 3 
0.457 0.334 0.133 3 
0.462 0.244 0.143 3 
0.461 0.234 0.142 3 
0.462 0.223 0.142 3 
0.462 0.214 0.142 3 
0.459 0.333 0.142 3 
0.462 0.323 0.142 3 
0.46 0.253 0.093 3 
0.464 0.094 0.092 3 
0.464 0.102 0.092 3 
0.464 0.113 0.092 3 
0.464 0.124 0.092 3 
0.464 0.132 0.092 3 
0.463 0.143 0.092 3 
0.463 0.154 0.092 3 
0.464 0.062 0.052 3 
0.462 0.173 0.092 3 
0.462 0.184 0.092 3 
0.462 0.193 0.092 3 
0.462 0.224 0.093 3 
0.462 0.233 0.093 3 
0.462 0.242 0.093 3 
0.464 0.083 0.092 3 
0.459 0.261 0.093 3 
0.46 0.274 0.093 3 
0.462 0.213 0.092 3 
0.461 0.304 0.093 3 
0.46 0.312 0.093 3 
0.461 0.323 0.094 3 
0.458 0.333 0.093 3 
0.465 0.083 0.052 3 
0.459 0.053 0.094 3 
0.456 0.052 0.096 3 
0.461 0.314 0.102 3 
0.46 0.322 0.102 3 
0.458 0.334 0.102 3 
0.462 0.162 0.084 3 
0.466 0.349 0.195 3 
0.459 0.314 0.082 3 
0.463 0.053 0.084 3 
0.465 0.059 0.084 3 
0.463 0.062 0.084 3 
0.464 0.073 0.084 3 
0.465 0.076 0.084 3 
0.464 0.083 0.084 3 
0.464 0.094 0.084 3 
0.464 0.113 0.084 3 
0.464 0.124 0.084 3 
0.464 0.132 0.084 3 
0.463 0.154 0.084 3 
0.447 0.051 0.1 3 
0.455 0.33 0.054 3 
0.462 0.173 0.084 3 
0.462 0.184 0.084 3 
0.462 0.193 0.084 3 
0.462 0.204 0.084 3 
0.461 0.212 0.084 3 
0.461 0.224 0.084 3 
0.462 0.233 0.084 3 
0.461 0.244 0.084 3 
0.461 0.253 0.084 3 
0.46 0.262 0.084 3 
0.46 0.292 0.024 3 
0.46 0.194 0.022 3 
0.464 0.094 0.114 3 
0.453 0.049 0.024 3 
0.461 0.224 0.103 3 
0.461 0.242 0.112 3 
0.46 0.253 0.112 3 
0.46 0.263 0.112 3 
0.461 0.282 0.113 3 
0.461 0.304 0.113 3 
0.461 0.314 0.113 3 
0.461 0.324 0.113 3 
0.457 0.333 0.113 3 
0.463 0.143 0.063 3 
0.463 0.073 0.113 3 
0.464 0.081 0.114 3 
0.465 0.087 0.114 3 
0.463 0.072 0.092 3 
0.464 0.103 0.114 3 
0.464 0.094 0.052 3 
0.464 0.113 0.114 3 
0.464 0.124 0.114 3 
0.464 0.133 0.114 3 
0.463 0.143 0.114 3 
0.463 0.154 0.114 3 
0.463 0.163 0.114 3 
0.463 0.194 0.114 3 
0.463 0.202 0.114 3 
0.462 0.213 0.114 3 
0.462 0.222 0.114 3 
0.461 0.225 0.114 3 
0.462 0.213 0.103 3 
0.464 0.073 0.103 3 
0.464 0.083 0.103 3 
0.465 0.086 0.103 3 
0.464 0.102 0.103 3 
0.464 0.113 0.103 3 
0.464 0.124 0.103 3 
0.464 0.133 0.103 3 
0.463 0.143 0.103 3 
0.463 0.154 0.103 3 
0.462 0.162 0.103 3 
0.463 0.174 0.103 3 
0.462 0.184 0.103 3 
0.462 0.193 0.103 3 
0.453 0.06 0.114 3 
0.458 0.272 0.013 3 
0.461 0.233 0.103 3 
0.46 0.244 0.104 3 
0.459 0.324 0.082 3 
0.46 0.253 0.104 3 
0.459 0.261 0.104 3 
0.456 0.331 0.082 3 
0.461 0.282 0.104 3 
0.461 0.294 0.104 3 
0.461 0.297 0.104 3 
0.453 0.055 0.104 3 
0.457 0.058 0.104 3 
0.465 0.095 0.106 3 
0.466 0.293 0.183 3 
0.464 0.294 0.176 3 
0.464 0.313 0.177 3 
0.464 0.317 0.177 3 
0.464 0.334 0.178 3 
0.461 0.262 0.062 3 
0.463 0.073 0.124 3 
0.464 0.247 0.177 3 
0.464 0.256 0.178 3 
0.464 0.303 0.18 3 
0.461 0.273 0.132 3 
0.462 0.204 0.103 3 
0.466 0.264 0.181 3 
0.466 0.273 0.182 3 
0.466 0.283 0.182 3 
0.464 0.247 0.174 3 
0.465 0.301 0.183 3 
0.461 0.291 0.093 3 
0.465 0.311 0.183 3 
0.466 0.322 0.184 3 
0.465 0.332 0.184 3 
0.461 0.343 0.184 3 
0.451 0.054 0.004 3 
0.473 0.073 0.182 3 
0.472 0.084 0.182 3 
0.471 0.103 0.182 3 
0.471 0.111 0.182 3 
0.471 0.123 0.182 3 
0.47 0.134 0.182 3 
0.47 0.142 0.182 3 
0.468 0.133 0.173 3 
0.464 0.293 0.173 3 
0.464 0.303 0.174 3 
0.463 0.312 0.174 3 
0.464 0.316 0.174 3 
0.461 0.334 0.174 3 
0.459 0.338 0.174 3 
0.464 0.094 0.125 3 
0.464 0.114 0.122 3 
0.469 0.072 0.172 3 
0.47 0.083 0.173 3 
0.47 0.094 0.173 3 
0.469 0.102 0.173 3 
0.469 0.113 0.173 3 
0.468 0.124 0.173 3 
0.463 0.203 0.142 3 
0.467 0.143 0.172 3 
0.467 0.152 0.173 3 
0.465 0.163 0.172 3 
0.465 0.174 0.173 3 
0.465 0.183 0.173 3 
0.461 0.274 0.032 3 
0.466 0.192 0.173 3 
0.463 0.254 0.143 3 
0.466 0.203 0.174 3 
0.466 0.212 0.174 3 
0.465 0.223 0.174 3 
0.465 0.232 0.174 3 
0.465 0.238 0.174 3 
0.464 0.244 0.174 3 
0.468 0.251 0.19 3 
0.471 0.134 0.188 3 
0.471 0.143 0.188 3 
0.46 0.284 0.093 3 
0.465 0.084 0.117 3 
0.469 0.154 0.188 3 
0.469 0.162 0.188 3 
0.469 0.174 0.188 3 
0.47 0.183 0.189 3 
0.469 0.194 0.189 3 
0.468 0.202 0.189 3 
0.468 0.211 0.189 3 
0.468 0.223 0.189 3 
0.467 0.234 0.189 3 
0.468 0.244 0.19 3 
0.46 0.064 0.113 3 
0.468 0.26 0.191 3 
0.469 0.273 0.192 3 
0.47 0.284 0.193 3 
0.474 0.291 0.195 3 
0.469 0.293 0.193 3 
0.463 0.182 0.114 3 
0.468 0.302 0.193 3 
0.468 0.312 0.193 3 
0.468 0.322 0.194 3 
0.468 0.329 0.194 3 
0.467 0.332 0.195 3 
0.465 0.341 0.194 3 
0.465 0.344 0.195 3 
0.463 0.143 0.084 3 
0.472 0.084 0.185 3 
0.468 0.153 0.182 3 
0.468 0.173 0.182 3 
0.468 0.182 0.182 3 
0.468 0.193 0.183 3 
0.468 0.202 0.183 3 
0.461 0.213 0.123 3 
0.468 0.214 0.183 3 
0.464 0.083 0.074 3 
0.468 0.223 0.184 3 
0.467 0.234 0.184 3 
0.468 0.244 0.184 3 
0.466 0.249 0.184 3 
0.465 0.335 0.182 3 
0.464 0.094 0.103 3 
0.465 0.288 0.173 3 
0.471 0.092 0.184 3 
0.467 0.161 0.184 3 
0.464 0.343 0.191 3 
0.463 0.345 0.191 3 
0.455 0.329 0.012 3 
0.475 0.073 0.189 3 
0.475 0.082 0.189 3 
0.475 0.085 0.189 3 
0.474 0.093 0.189 3 
0.473 0.104 0.188 3 
0.465 0.278 0.173 3 
0.472 0.112 0.188 3 
0.473 0.073 0.185 3 
0.471 0.123 0.188 3 
0.461 0.274 0.062 3 
0.467 0.093 0.153 3 
0.466 0.104 0.152 3 
0.466 0.112 0.152 3 
0.466 0.123 0.152 3 
0.465 0.134 0.152 3 
0.465 0.142 0.152 3 
0.465 0.15 0.153 3 
0.464 0.153 0.152 3 
0.465 0.159 0.153 3 
0.464 0.164 0.152 3 
0.464 0.172 0.153 3 
0.463 0.184 0.153 3 
0.462 0.192 0.153 3 
0.463 0.204 0.153 3 
0.467 0.082 0.152 3 
0.463 0.212 0.153 3 
0.462 0.223 0.153 3 
0.461 0.232 0.153 3 
0.462 0.244 0.154 3 
0.462 0.253 0.154 3 
0.462 0.303 0.144 3 
0.461 0.294 0.113 3 
0.464 0.068 0.154 3 
0.465 0.071 0.154 3 
0.464 0.164 0.155 3 
0.465 0.114 0.144 3 
0.464 0.068 0.157 3 
0.464 0.302 0.162 3 
0.464 0.132 0.073 3 
0.462 0.153 0.033 3 
0.465 0.133 0.144 3 
0.464 0.141 0.144 3 
0.464 0.147 0.144 3 
0.465 0.153 0.144 3 
0.464 0.164 0.144 3 
0.464 0.172 0.144 3 
0.463 0.183 0.144 3 
0.462 0.194 0.144 3 
0.463 0.174 0.114 3 
0.461 0.064 0.145 3 
0.464 0.133 0.147 3 
0.464 0.054 0.052 3 
0.437 0.059 0.14 3 
0.464 0.141 0.149 3 
0.463 0.311 0.162 3 
0.463 0.263 0.152 3 
0.463 0.273 0.152 3 
0.464 0.073 0.143 3 
0.462 0.284 0.152 3 
0.462 0.294 0.153 3 
0.464 0.152 0.133 3 
0.463 0.304 0.153 3 
0.463 0.314 0.154 3 
0.463 0.321 0.154 3 
0.46 0.234 0.062 3 
0.462 0.333 0.154 3 
0.46 0.338 0.154 3 
0.455 0.33 0.062 3 
0.425 0.056 0.139 3 
0.465 0.307 0.171 3 
0.466 0.154 0.164 3 
0.465 0.162 0.164 3 
0.465 0.167 0.164 3 
0.464 0.173 0.164 3 
0.464 0.182 0.164 3 
0.463 0.193 0.164 3 
0.463 0.195 0.164 3 
0.461 0.273 0.112 3 
0.464 0.173 0.167 3 
0.46 0.282 0.043 3 
0.464 0.199 0.167 3 
0.464 0.208 0.168 3 
0.464 0.274 0.17 3 
0.465 0.301 0.171 3 
0.466 0.143 0.164 3 
0.465 0.317 0.172 3 
0.465 0.327 0.172 3 
0.46 0.243 0.054 3 
0.464 0.182 0.17 3 
0.464 0.185 0.17 3 
0.464 0.223 0.171 3 
0.463 0.234 0.171 3 
0.46 0.301 0.032 3 
0.464 0.259 0.172 3 
0.463 0.072 0.004 3 
0.465 0.263 0.172 3 
0.458 0.335 0.142 3 
0.465 0.272 0.173 3 
0.464 0.281 0.173 3 
0.465 0.272 0.164 3 
0.463 0.321 0.163 3 
0.46 0.271 0.104 3 
0.461 0.333 0.163 3 
0.46 0.339 0.163 3 
0.46 0.274 0.082 3 
0.462 0.162 0.092 3 
0.46 0.234 0.043 3 
0.465 0.084 0.114 3 
0.464 0.213 0.162 3 
0.463 0.224 0.162 3 
0.462 0.233 0.162 3 
0.462 0.242 0.162 3 
0.463 0.251 0.163 3 
0.464 0.261 0.164 3 
0.464 0.13 0.144 3 
0.464 0.274 0.164 3 
0.464 0.283 0.164 3 
0.464 0.287 0.164 3 
0.464 0.102 0.084 3 
0.463 0.064 0.092 3 
0.462 0.173 0.033 3 
0.468 0.074 0.164 3 
0.468 0.082 0.164 3 
0.469 0.094 0.164 3 
0.468 0.104 0.164 3 
0.467 0.112 0.164 3 
0.467 0.124 0.164 3 
0.467 0.132 0.164 3 
0.464 0.072 0.05 3 
0.46 0.243 0.043 3 
0.46 0.252 0.043 3 
0.461 0.218 0.024 3 
0.46 0.264 0.043 3 
0.46 0.273 0.043 3 
0.46 0.292 0.043 3 
0.458 0.303 0.043 3 
0.458 0.313 0.043 3 
0.459 0.324 0.043 3 
0.456 0.331 0.043 3 
0.461 0.223 0.043 3 
0.465 0.097 0.049 3 
0.465 0.064 0.052 3 
0.465 0.073 0.052 3 
0.464 0.08 0.052 3 
0.465 0.091 0.052 3 
0.463 0.102 0.052 3 
0.464 0.113 0.052 3 
0.464 0.124 0.052 3 
0.464 0.132 0.052 3 
0.463 0.143 0.052 3 
0.464 0.113 0.044 3 
0.463 0.051 0.044 3 
0.465 0.054 0.044 3 
0.464 0.062 0.044 3 
0.465 0.064 0.044 3 
0.465 0.073 0.044 3 
0.464 0.083 0.044 3 
0.465 0.091 0.044 3 
0.464 0.094 0.044 3 
0.459 0.214 0.014 3 
0.465 0.102 0.044 3 
0.462 0.153 0.052 3 
0.464 0.124 0.044 3 
0.464 0.132 0.044 3 
0.463 0.143 0.044 3 
0.463 0.154 0.044 3 
0.462 0.164 0.044 3 
0.462 0.173 0.044 3 
0.462 0.184 0.044 3 
0.461 0.192 0.044 3 
0.461 0.203 0.044 3 
0.461 0.212 0.044 3 
0.462 0.193 0.063 3 
0.464 0.062 0.063 3 
0.465 0.073 0.063 3 
0.464 0.083 0.063 3 
0.464 0.094 0.063 3 
0.463 0.102 0.063 3 
0.463 0.113 0.063 3 
0.464 0.124 0.063 3 
0.464 0.132 0.063 3 
0.462 0.173 0.063 3 
0.462 0.184 0.063 3 
0.463 0.053 0.063 3 
0.462 0.204 0.063 3 
0.461 0.212 0.063 3 
0.46 0.223 0.063 3 
0.46 0.243 0.062 3 
0.461 0.253 0.062 3 
0.46 0.283 0.062 3 
0.46 0.293 0.062 3 
0.459 0.304 0.062 3 
0.459 0.324 0.062 3 
0.465 0.075 0.068 3 
0.46 0.282 0.054 3 
0.462 0.164 0.052 3 
0.461 0.172 0.052 3 
0.463 0.123 0.023 3 
0.462 0.193 0.054 3 
0.461 0.203 0.054 3 
0.461 0.212 0.054 3 
0.46 0.223 0.054 3 
0.46 0.234 0.054 3 
0.46 0.252 0.054 3 
0.46 0.264 0.054 3 
0.464 0.072 0.042 3 
0.425 0.063 0.004 3 
0.46 0.293 0.054 3 
0.459 0.304 0.054 3 
0.459 0.314 0.054 3 
0.459 0.324 0.054 3 
0.465 0.086 0.057 3 
0.46 0.214 0.022 3 
0.462 0.162 0.033 3 
0.46 0.273 0.054 3 
0.463 0.064 0.023 3 
0.458 0.242 0.014 3 
0.458 0.254 0.013 3 
0.458 0.263 0.013 3 
0.459 0.282 0.013 3 
0.459 0.294 0.012 3 
0.459 0.304 0.012 3 
0.458 0.313 0.012 3 
0.456 0.323 0.012 3 
0.454 0.329 0.018 3 
0.463 0.053 0.023 3 
0.458 0.233 0.014 3 
0.464 0.072 0.023 3 
0.464 0.083 0.023 3 
0.464 0.094 0.023 3 
0.463 0.104 0.023 3 
0.463 0.112 0.023 3 
0.462 0.134 0.023 3 
0.462 0.142 0.022 3 
0.462 0.153 0.022 3 
0.461 0.164 0.022 3 
0.46 0.172 0.022 3 
0.462 0.104 0.012 3 
0.456 0.063 -0.001 3 
0.445 0.065 0 3 
0.451 0.059 0.001 3 
0.437 0.061 0.004 3 
0.427 0.054 0.008 3 
0.423 0.058 0.009 3 
0.436 0.063 0.007 3 
0.462 0.074 0.012 3 
0.462 0.083 0.012 3 
0.461 0.093 0.012 3 
0.461 0.184 0.022 3 
0.462 0.134 0.012 3 
0.46 0.142 0.012 3 
0.46 0.152 0.012 3 
0.46 0.164 0.014 3 
0.46 0.172 0.014 3 
0.46 0.183 0.014 3 
0.459 0.194 0.014 3 
0.46 0.203 0.014 3 
0.458 0.224 0.014 3 
0.46 0.243 0.032 3 
0.464 0.113 0.033 3 
0.463 0.124 0.033 3 
0.463 0.132 0.033 3 
0.463 0.143 0.033 3 
0.462 0.184 0.033 3 
0.461 0.192 0.033 3 
0.461 0.203 0.033 3 
0.461 0.212 0.033 3 
0.461 0.223 0.033 3 
0.46 0.234 0.033 3 
0.465 0.102 0.033 3 
0.46 0.252 0.032 3 
0.461 0.262 0.032 3 
0.461 0.283 0.032 3 
0.461 0.293 0.032 3 
0.465 0.105 0.036 3 
0.458 0.313 0.034 3 
0.456 0.324 0.034 3 
0.455 0.33 0.034 3 
0.465 0.075 0.039 3 
0.464 0.102 0.041 3 
0.456 0.331 0.023 3 
0.46 0.203 0.022 3 
0.46 0.234 0.024 3 
0.46 0.243 0.024 3 
0.46 0.252 0.024 3 
0.46 0.264 0.024 3 
0.46 0.273 0.024 3 
0.46 0.283 0.024 3 
0.459 0.304 0.023 3 
0.459 0.313 0.023 3 
0.456 0.324 0.023 3 
0.46 0.283 0.082 3 
0.465 0.075 0.028 3 
0.462 0.123 0.012 3 
0.464 0.054 0.034 3 
0.464 0.064 0.034 3 
0.465 0.067 0.033 3 
0.464 0.072 0.034 3 
0.464 0.083 0.033 3 
0.464 0.094 0.033 3 
0.464 0.096 0.033 3 
0.464 0.102 0.073 3 
0.462 0.193 0.073 3 
0.462 0.184 0.073 3 
0.462 0.173 0.073 3 
0.462 0.162 0.073 3 
0.463 0.154 0.073 3 
0.463 0.143 0.073 3 
0.464 0.124 0.073 3 
0.464 0.113 0.073 3 
0.426 0.044 0.076 3 
0.464 0.094 0.073 3 
0.464 0.073 0.074 3 
0.465 0.07 0.074 3 
0.465 0.062 0.074 3 
0.464 0.059 0.073 3 
0.462 0.053 0.073 3 
0.463 0.154 0.063 3 
0.461 0.223 0.073 3 
0.459 0.301 0.074 3 
0.46 0.293 0.074 3 
0.46 0.283 0.074 3 
0.461 0.272 0.074 3 
0.461 0.262 0.073 3 
0.461 0.253 0.073 3 
0.461 0.244 0.073 3 
0.461 0.232 0.073 3 
0.46 0.293 0.082 3 
0.461 0.212 0.073 3 
0.461 0.203 0.073 3 
0.459 0.314 0.074 3 
0.459 0.324 0.074 3 
0.456 0.331 0.074 3 
0.459 0.314 0.062 3 
0.447 0.048 0.075 3 
0.465 0.133 0.082 3 
0.465 0.073 0.082 3 
0.472 -0.097 0.033 3 
0.48 -0.115 0.174 3 
0.479 -0.106 0.174 3 
0.479 -0.097 0.173 3 
0.478 -0.085 0.173 3 
0.477 -0.077 0.172 3 
0.477 -0.065 0.172 3 
0.484 -0.064 0.175 3 
0.468 -0.036 0.033 3 
0.47 -0.077 0.033 3 
0.488 -0.338 0.144 3 
0.472 -0.105 0.033 3 
0.472 -0.125 0.003 3 
0.472 -0.116 0.033 3 
0.475 -0.146 0.094 3 
0.472 -0.125 0.033 3 
0.474 -0.137 0.033 3 
0.474 -0.145 0.033 3 
0.479 -0.237 0.104 3 
0.473 -0.156 0.033 3 
0.473 -0.165 0.033 3 
0.475 -0.216 0.033 3 
0.473 -0.117 0.094 3 
0.48 -0.135 0.172 3 
0.475 -0.062 0.169 3 
0.481 -0.336 0.004 3 
0.479 -0.297 0.084 3 
0.47 -0.045 0.093 3 
0.47 -0.055 0.093 3 
0.47 -0.066 0.093 3 
0.47 -0.075 0.093 3 
0.472 -0.086 0.093 3 
0.473 -0.095 0.094 3 
0.473 -0.106 0.094 3 
0.474 -0.197 0.033 3 
0.472 -0.125 0.094 3 
0.479 -0.287 0.084 3 
0.473 -0.137 0.094 3 
0.479 -0.297 0.064 3 
0.49 -0.327 0.184 3 
0.488 -0.318 0.183 3 
0.488 -0.308 0.183 3 
0.487 -0.297 0.182 3 
0.488 -0.288 0.182 3 
0.48 -0.126 0.174 3 
0.478 -0.276 0.084 3 
0.479 -0.286 0.032 3 
0.475 -0.21 0.007 3 
0.48 -0.297 0.032 3 
0.48 -0.307 0.032 3 
0.474 -0.098 0.144 3 
0.476 -0.158 0.094 3 
0.481 -0.245 0.154 3 
0.465 -0.055 0.012 3 
0.476 -0.166 0.094 3 
0.476 -0.175 0.094 3 
0.465 -0.047 0.012 3 
0.477 -0.275 0.032 3 
0.476 -0.196 0.092 3 
0.477 -0.205 0.092 3 
0.477 -0.266 0.084 3 
0.477 -0.217 0.092 3 
0.478 -0.227 0.092 3 
0.478 -0.236 0.092 3 
0.478 -0.245 0.092 3 
0.473 -0.194 0.024 3 
0.473 -0.197 0.024 3 
0.475 -0.216 0.024 3 
0.486 -0.26 0.183 3 
0.474 -0.177 0.08 3 
0.474 -0.206 0.033 3 
0.475 -0.21 0.033 3 
0.473 -0.176 0.033 3 
0.476 -0.225 0.032 3 
0.477 -0.235 0.032 3 
0.478 -0.245 0.032 3 
0.478 -0.255 0.032 3 
0.486 -0.276 0.183 3 
0.486 -0.266 0.183 3 
0.474 -0.186 0.033 3 
0.484 -0.255 0.182 3 
0.484 -0.249 0.182 3 
0.485 -0.246 0.182 3 
0.476 -0.265 0.032 3 
0.485 -0.24 0.182 3 
0.484 -0.237 0.182 3 
0.484 -0.227 0.181 3 
0.474 -0.177 0.072 3 
0.484 -0.218 0.181 3 
0.475 -0.216 0.007 3 
0.485 -0.295 0.172 3 
0.484 -0.349 0.088 3 
0.488 -0.325 0.174 3 
0.487 -0.317 0.173 3 
0.474 -0.177 0.086 3 
0.47 -0.042 0.085 3 
0.477 -0.266 0.044 3 
0.474 -0.145 0.091 3 
0.47 -0.045 0.074 3 
0.474 -0.157 0.002 3 
0.473 -0.145 0.003 3 
0.486 -0.306 0.173 3 
0.478 -0.248 0.044 3 
0.478 -0.277 0.044 3 
0.477 -0.096 0.164 3 
0.477 -0.085 0.164 3 
0.476 -0.226 0.024 3 
0.48 -0.297 0.043 3 
0.472 -0.086 0.104 3 
0.472 -0.136 0.003 3 
0.476 -0.076 0.164 3 
0.476 -0.065 0.164 3 
0.475 -0.062 0.163 3 
0.477 -0.105 0.162 3 
0.48 -0.176 0.164 3 
0.479 -0.166 0.163 3 
0.478 -0.157 0.163 3 
0.478 -0.145 0.163 3 
0.477 -0.247 0.072 3 
0.478 -0.137 0.162 3 
0.478 -0.125 0.162 3 
0.479 -0.246 0.113 3 
0.472 -0.116 0.044 3 
0.474 -0.145 0.083 3 
0.48 -0.317 0.043 3 
0.473 -0.136 0.044 3 
0.474 -0.145 0.044 3 
0.473 -0.176 0.044 3 
0.474 -0.186 0.044 3 
0.475 -0.189 0.044 3 
0.475 -0.195 0.044 3 
0.475 -0.216 0.044 3 
0.475 -0.195 0.052 3 
0.476 -0.225 0.044 3 
0.477 -0.238 0.044 3 
0.482 -0.216 0.174 3 
0.481 -0.356 0.034 3 
0.481 -0.357 0.004 3 
0.484 -0.345 0.082 3 
0.477 -0.266 0.003 3 
0.484 -0.335 0.082 3 
0.466 -0.049 0.004 3 
0.483 -0.327 0.082 3 
0.491 -0.339 0.182 3 
0.484 -0.268 0.176 3 
0.485 -0.233 0.176 3 
0.48 -0.217 0.153 3 
0.485 -0.313 0.133 3 
0.482 -0.207 0.174 3 
0.481 -0.197 0.173 3 
0.47 -0.094 0.014 3 
0.481 -0.315 0.082 3 
0.481 -0.185 0.173 3 
0.48 -0.176 0.173 3 
0.471 -0.097 0.052 3 
0.48 -0.167 0.172 3 
0.479 -0.155 0.172 3 
0.476 -0.187 0.094 3 
0.484 -0.236 0.172 3 
0.48 -0.307 0.043 3 
0.481 -0.328 0.043 3 
0.484 -0.349 0.043 3 
0.471 -0.116 0.003 3 
0.471 -0.086 0.003 3 
0.485 -0.285 0.174 3 
0.485 -0.275 0.174 3 
0.484 -0.267 0.173 3 
0.483 -0.257 0.173 3 
0.483 -0.248 0.172 3 
0.479 -0.146 0.171 3 
0.477 -0.236 0.012 3 
0.482 -0.226 0.172 3 
0.478 -0.236 0.004 3 
0.475 -0.216 0.004 3 
0.475 -0.098 0 3 
0.481 -0.315 0.014 3 
0.474 -0.197 0.036 3 
0.481 -0.328 0.034 3 
0.482 -0.336 0.034 3 
0.482 -0.347 0.034 3 
0.476 -0.187 0.083 3 
0.484 -0.137 0.191 3 
0.484 -0.128 0.19 3 
0.484 -0.116 0.19 3 
0.481 -0.336 0.013 3 
0.482 -0.347 0.013 3 
0.477 -0.226 0.084 3 
0.477 -0.217 0.084 3 
0.477 -0.205 0.083 3 
0.476 -0.195 0.083 3 
0.479 -0.287 0.093 3 
0.473 -0.095 0.124 3 
0.481 -0.325 0.014 3 
0.475 -0.177 0.083 3 
0.495 -0.337 0.206 3 
0.492 -0.327 0.204 3 
0.489 -0.317 0.202 3 
0.491 -0.305 0.202 3 
0.473 -0.176 0.052 3 
0.49 -0.297 0.201 3 
0.49 -0.287 0.201 3 
0.488 -0.275 0.199 3 
0.489 -0.266 0.199 3 
0.486 -0.198 0.193 3 
0.474 -0.165 0.022 3 
0.474 -0.177 0.022 3 
0.481 -0.357 0.019 3 
0.477 -0.235 0.084 3 
0.486 -0.309 0.164 3 
0.474 -0.209 0.016 3 
0.494 -0.336 0.202 3 
0.479 -0.29 0.014 3 
0.486 -0.235 0.194 3 
0.487 -0.227 0.194 3 
0.486 -0.207 0.193 3 
0.488 -0.256 0.199 3 
0.485 -0.185 0.192 3 
0.486 -0.177 0.192 3 
0.485 -0.17 0.192 3 
0.47 -0.066 0.074 3 
0.484 -0.167 0.191 3 
0.482 -0.348 0.004 3 
0.484 -0.155 0.191 3 
0.484 -0.152 0.191 3 
0.485 -0.146 0.191 3 
0.482 -0.317 0.103 3 
0.472 -0.117 0.083 3 
0.483 -0.075 0.192 3 
0.471 -0.125 0.014 3 
0.483 -0.07 0.192 3 
0.486 -0.067 0.193 3 
0.469 -0.042 0.082 3 
0.475 -0.166 0.083 3 
0.475 -0.157 0.083 3 
0.475 -0.149 0.083 3 
0.473 -0.136 0.083 3 
0.474 -0.215 0.013 3 
0.472 -0.125 0.083 3 
0.481 -0.086 0.191 3 
0.473 -0.106 0.083 3 
0.467 -0.066 0.012 3 
0.47 -0.105 0.014 3 
0.47 -0.116 0.014 3 
0.472 -0.136 0.014 3 
0.472 -0.147 0.014 3 
0.473 -0.156 0.014 3 
0.472 -0.167 0.014 3 
0.472 -0.176 0.014 3 
0.472 -0.185 0.014 3 
0.487 -0.177 0.196 3 
0.474 -0.168 0.083 3 
0.487 -0.246 0.198 3 
0.487 -0.236 0.198 3 
0.479 -0.246 0.003 3 
0.488 -0.227 0.198 3 
0.488 -0.215 0.197 3 
0.488 -0.206 0.197 3 
0.47 -0.075 0.052 3 
0.487 -0.196 0.196 3 
0.486 -0.186 0.196 3 
0.474 -0.157 0.022 3 
0.486 -0.165 0.195 3 
0.486 -0.156 0.195 3 
0.487 -0.147 0.195 3 
0.486 -0.141 0.195 3 
0.486 -0.135 0.194 3 
0.486 -0.126 0.194 3 
0.486 -0.117 0.194 3 
0.485 -0.108 0.193 3 
0.484 -0.105 0.193 3 
0.483 -0.096 0.192 3 
0.475 -0.186 0.072 3 
0.484 -0.206 0.184 3 
0.484 -0.197 0.183 3 
0.484 -0.187 0.183 3 
0.482 -0.177 0.182 3 
0.471 -0.067 0.123 3 
0.481 -0.315 0.023 3 
0.477 -0.116 0.162 3 
0.481 -0.325 0.022 3 
0.481 -0.335 0.022 3 
0.492 -0.326 0.194 3 
0.489 -0.316 0.193 3 
0.481 -0.305 0.023 3 
0.488 -0.305 0.192 3 
0.483 -0.345 0.022 3 
0.488 -0.295 0.191 3 
0.475 -0.183 0.064 3 
0.484 -0.24 0.188 3 
0.484 -0.191 0.186 3 
0.483 -0.175 0.185 3 
0.481 -0.165 0.184 3 
0.48 -0.356 0.013 3 
0.482 -0.156 0.184 3 
0.471 -0.075 0.082 3 
0.477 -0.245 0.024 3 
0.478 -0.255 0.023 3 
0.477 -0.235 0.024 3 
0.478 -0.266 0.023 3 
0.48 -0.297 0.023 3 
0.47 -0.045 0.082 3 
0.478 -0.276 0.023 3 
0.47 -0.055 0.082 3 
0.47 -0.066 0.082 3 
0.492 -0.337 0.192 3 
0.482 -0.151 0.184 3 
0.472 -0.086 0.082 3 
0.472 -0.097 0.082 3 
0.477 -0.266 0.012 3 
0.477 -0.275 0.012 3 
0.477 -0.256 0.012 3 
0.475 -0.228 0.013 3 
0.48 -0.287 0.023 3 
0.484 -0.252 0.185 3 
0.485 -0.216 0.184 3 
0.485 -0.209 0.184 3 
0.467 -0.055 0.023 3 
0.472 -0.097 0.074 3 
0.489 -0.286 0.194 3 
0.487 -0.277 0.193 3 
0.485 -0.343 0.073 3 
0.488 -0.265 0.193 3 
0.488 -0.259 0.193 3 
0.486 -0.245 0.192 3 
0.487 -0.217 0.191 3 
0.465 -0.033 0.023 3 
0.466 -0.036 0.023 3 
0.467 -0.047 0.023 3 
0.485 -0.35 0.094 3 
0.47 -0.085 0.023 3 
0.473 -0.106 0.132 3 
0.471 -0.097 0.022 3 
0.479 -0.275 0.122 3 
0.471 -0.105 0.022 3 
0.475 -0.207 0.024 3 
0.471 -0.116 0.022 3 
0.472 -0.125 0.022 3 
0.472 -0.136 0.022 3 
0.473 -0.145 0.022 3 
0.478 -0.077 0.181 3 
0.479 -0.286 0.044 3 
0.482 -0.136 0.184 3 
0.482 -0.127 0.184 3 
0.482 -0.115 0.184 3 
0.481 -0.106 0.183 3 
0.478 -0.258 0.093 3 
0.478 -0.267 0.093 3 
0.48 -0.095 0.182 3 
0.479 -0.086 0.182 3 
0.476 -0.207 0.072 3 
0.473 -0.197 0.013 3 
0.478 -0.066 0.181 3 
0.472 -0.125 0.044 3 
0.478 -0.277 0.093 3 
0.477 -0.257 0.084 3 
0.481 -0.305 0.093 3 
0.477 -0.247 0.084 3 
0.481 -0.315 0.094 3 
0.483 -0.328 0.094 3 
0.484 -0.336 0.094 3 
0.485 -0.339 0.094 3 
0.476 -0.216 0.064 3 
0.474 -0.177 0.064 3 
0.47 -0.055 0.074 3 
0.475 -0.186 0.064 3 
0.487 -0.336 0.134 3 
0.486 -0.325 0.134 3 
0.485 -0.317 0.133 3 
0.484 -0.306 0.133 3 
0.483 -0.295 0.132 3 
0.482 -0.287 0.132 3 
0.476 -0.195 0.064 3 
0.476 -0.207 0.064 3 
0.474 -0.165 0.063 3 
0.477 -0.235 0.064 3 
0.478 -0.245 0.064 3 
0.484 -0.306 0.136 3 
0.48 -0.276 0.134 3 
0.474 -0.165 0.044 3 
0.484 -0.345 0.064 3 
0.48 -0.266 0.134 3 
0.479 -0.256 0.133 3 
0.479 -0.247 0.133 3 
0.479 -0.237 0.133 3 
0.479 -0.225 0.133 3 
0.471 -0.086 0.063 3 
0.474 -0.118 0.124 3 
0.473 -0.106 0.124 3 
0.473 -0.086 0.124 3 
0.472 -0.075 0.124 3 
0.472 -0.056 0.123 3 
0.47 -0.045 0.063 3 
0.47 -0.055 0.063 3 
0.47 -0.066 0.063 3 
0.47 -0.075 0.074 3 
0.467 -0.066 0.023 3 
0.471 -0.075 0.063 3 
0.477 -0.257 0.064 3 
0.471 -0.097 0.063 3 
0.472 -0.106 0.063 3 
0.472 -0.116 0.063 3 
0.484 -0.345 0.052 3 
0.473 -0.125 0.063 3 
0.474 -0.137 0.063 3 
0.474 -0.145 0.063 3 
0.475 -0.154 0.063 3 
0.474 -0.157 0.063 3 
0.478 -0.257 0.003 3 
0.475 -0.16 0.063 3 
0.469 -0.096 0.014 3 
0.472 -0.106 0.003 3 
0.484 -0.338 0.064 3 
0.488 -0.345 0.144 3 
0.487 -0.326 0.143 3 
0.486 -0.318 0.143 3 
0.485 -0.307 0.142 3 
0.485 -0.3 0.142 3 
0.471 -0.067 0.134 3 
0.471 -0.058 0.134 3 
0.474 -0.157 0.044 3 
0.469 -0.042 0.074 3 
0.482 -0.326 0.064 3 
0.474 -0.166 0.002 3 
0.473 -0.098 0.003 3 
0.474 -0.145 0.052 3 
0.47 -0.047 0.104 3 
0.481 -0.305 0.082 3 
0.47 -0.055 0.104 3 
0.473 -0.087 0.132 3 
0.489 -0.346 0.147 3 
0.471 -0.067 0.104 3 
0.484 -0.296 0.144 3 
0.473 -0.206 0.013 3 
0.476 -0.135 0.133 3 
0.479 -0.216 0.132 3 
0.475 -0.207 0.052 3 
0.479 -0.207 0.132 3 
0.479 -0.195 0.132 3 
0.48 -0.317 0.034 3 
0.474 -0.126 0.13 3 
0.477 -0.266 0.064 3 
0.477 -0.185 0.134 3 
0.477 -0.177 0.134 3 
0.476 -0.156 0.134 3 
0.476 -0.147 0.134 3 
0.474 -0.126 0.124 3 
0.475 -0.127 0.133 3 
0.47 -0.086 0.044 3 
0.475 -0.124 0.133 3 
0.474 -0.115 0.133 3 
0.473 -0.095 0.132 3 
0.472 -0.075 0.132 3 
0.478 -0.276 0.064 3 
0.478 -0.286 0.064 3 
0.482 -0.309 0.064 3 
0.482 -0.315 0.064 3 
0.47 -0.055 0.112 3 
0.475 -0.152 0.114 3 
0.474 -0.146 0.114 3 
0.473 -0.137 0.113 3 
0.473 -0.126 0.113 3 
0.473 -0.117 0.113 3 
0.473 -0.106 0.113 3 
0.473 -0.095 0.113 3 
0.469 -0.066 0.033 3 
0.473 -0.086 0.113 3 
0.472 -0.075 0.113 3 
0.472 -0.067 0.112 3 
0.475 -0.155 0.114 3 
0.471 -0.053 0.112 3 
0.485 -0.346 0.073 3 
0.482 -0.307 0.111 3 
0.477 -0.257 0.052 3 
0.474 -0.162 0.069 3 
0.476 -0.226 0.004 3 
0.484 -0.349 0.07 3 
0.485 -0.345 0.122 3 
0.468 -0.077 0.012 3 
0.485 -0.337 0.122 3 
0.486 -0.328 0.122 3 
0.478 -0.227 0.112 3 
0.477 -0.257 0.072 3 
0.478 -0.267 0.072 3 
0.478 -0.276 0.073 3 
0.481 -0.296 0.114 3 
0.48 -0.288 0.114 3 
0.478 -0.286 0.073 3 
0.479 -0.278 0.113 3 
0.48 -0.298 0.073 3 
0.479 -0.265 0.113 3 
0.478 -0.255 0.113 3 
0.479 -0.237 0.113 3 
0.475 -0.166 0.066 3 
0.478 -0.215 0.112 3 
0.481 -0.305 0.073 3 
0.477 -0.205 0.112 3 
0.481 -0.318 0.073 3 
0.478 -0.197 0.112 3 
0.484 -0.335 0.073 3 
0.484 -0.34 0.118 3 
0.477 -0.185 0.114 3 
0.476 -0.175 0.114 3 
0.476 -0.166 0.114 3 
0.478 -0.206 0.103 3 
0.479 -0.256 0.122 3 
0.474 -0.149 0.119 3 
0.473 -0.053 0.118 3 
0.473 -0.125 0.074 3 
0.479 -0.246 0.124 3 
0.479 -0.237 0.124 3 
0.479 -0.225 0.124 3 
0.472 -0.105 0.074 3 
0.478 -0.215 0.124 3 
0.478 -0.206 0.123 3 
0.478 -0.197 0.123 3 
0.479 -0.265 0.122 3 
0.477 -0.176 0.123 3 
0.475 -0.167 0.122 3 
0.475 -0.155 0.122 3 
0.475 -0.141 0.122 3 
0.474 -0.135 0.122 3 
0.482 -0.326 0.073 3 
0.471 -0.086 0.074 3 
0.475 -0.207 0.044 3 
0.47 -0.039 0.063 3 
0.486 -0.346 0.131 3 
0.474 -0.135 0.125 3 
0.474 -0.165 0.072 3 
0.484 -0.319 0.112 3 
0.484 -0.326 0.112 3 
0.485 -0.33 0.112 3 
0.485 -0.337 0.113 3 
0.484 -0.34 0.112 3 
0.485 -0.348 0.113 3 
0.471 -0.086 0.033 3 
0.477 -0.235 0.072 3 
0.477 -0.226 0.072 3 
0.477 -0.217 0.072 3 
0.475 -0.195 0.072 3 
0.48 -0.197 0.164 3 
0.475 -0.151 0.072 3 
0.474 -0.145 0.072 3 
0.477 -0.226 0.064 3 
0.473 -0.136 0.074 3 
0.485 -0.32 0.124 3 
0.484 -0.316 0.124 3 
0.483 -0.305 0.123 3 
0.482 -0.297 0.123 3 
0.48 -0.285 0.122 3 
0.477 -0.257 0.044 3 
0.475 -0.157 0.072 3 
0.476 -0.116 0.153 3 
0.476 -0.107 0.153 3 
0.475 -0.096 0.152 3 
0.476 -0.087 0.153 3 
0.475 -0.079 0.152 3 
0.474 -0.076 0.152 3 
0.472 -0.117 0.074 3 
0.473 -0.137 0.102 3 
0.474 -0.146 0.102 3 
0.475 -0.152 0.103 3 
0.476 -0.155 0.103 3 
0.477 -0.125 0.153 3 
0.47 -0.066 0.044 3 
0.476 -0.166 0.103 3 
0.476 -0.175 0.103 3 
0.477 -0.187 0.103 3 
0.469 -0.055 0.033 3 
0.477 -0.196 0.103 3 
0.478 -0.215 0.104 3 
0.478 -0.185 0.123 3 
0.477 -0.245 0.012 3 
0.488 -0.317 0.164 3 
0.478 -0.177 0.152 3 
0.477 -0.285 0.052 3 
0.48 -0.297 0.052 3 
0.48 -0.307 0.052 3 
0.48 -0.317 0.052 3 
0.48 -0.235 0.153 3 
0.48 -0.226 0.153 3 
0.48 -0.205 0.153 3 
0.481 -0.325 0.052 3 
0.478 -0.195 0.152 3 
0.478 -0.186 0.152 3 
0.48 -0.307 0.014 3 
0.482 -0.336 0.052 3 
0.473 -0.117 0.102 3 
0.467 -0.047 0.034 3 
0.474 -0.126 0.102 3 
0.489 -0.336 0.162 3 
0.489 -0.329 0.162 3 
0.478 -0.166 0.154 3 
0.477 -0.156 0.154 3 
0.477 -0.145 0.154 3 
0.477 -0.136 0.153 3 
0.48 -0.215 0.162 3 
0.475 -0.146 0.122 3 
0.49 -0.345 0.169 3 
0.484 -0.297 0.165 3 
0.469 -0.047 0.044 3 
0.483 -0.276 0.164 3 
0.483 -0.266 0.164 3 
0.482 -0.256 0.163 3 
0.482 -0.246 0.163 3 
0.482 -0.237 0.163 3 
0.481 -0.227 0.162 3 
0.475 -0.183 0.072 3 
0.47 -0.056 0.044 3 
0.48 -0.206 0.162 3 
0.474 -0.067 0.157 3 
0.469 -0.077 0.044 3 
0.472 -0.097 0.044 3 
0.472 -0.105 0.044 3 
0.489 -0.336 0.172 3 
0.483 -0.286 0.168 3 
0.484 -0.277 0.168 3 
0.48 -0.188 0.164 3 
0.478 -0.255 0.104 3 
0.485 -0.304 0.163 3 
0.484 -0.297 0.162 3 
0.483 -0.286 0.162 3 
0.474 -0.076 0.155 3 
0.474 -0.065 0.154 3 
0.479 -0.225 0.104 3 
0.474 -0.062 0.154 3 
0.481 -0.335 0.043 3 
0.479 -0.246 0.104 3 
0.481 -0.267 0.143 3 
0.483 -0.288 0.144 3 
0.478 -0.267 0.104 3 
0.479 -0.278 0.102 3 
0.479 -0.287 0.102 3 
0.48 -0.295 0.102 3 
0.481 -0.306 0.102 3 
0.484 -0.325 0.103 3 
0.484 -0.336 0.103 3 
0.485 -0.341 0.103 3 
0.485 -0.348 0.104 3 
0.476 -0.167 0.134 3 
0.473 -0.095 0.102 3 
0.47 -0.056 0.052 3 
0.474 -0.106 0.144 3 
0.475 -0.112 0.144 3 
0.469 -0.066 0.052 3 
0.479 -0.198 0.144 3 
0.475 -0.147 0.142 3 
0.475 -0.135 0.142 3 
0.47 -0.086 0.052 3 
0.469 -0.047 0.052 3 
0.472 -0.105 0.052 3 
0.479 -0.296 0.014 3 
0.472 -0.116 0.052 3 
0.473 -0.106 0.102 3 
0.475 -0.115 0.144 3 
0.488 -0.327 0.153 3 
0.486 -0.305 0.154 3 
0.485 -0.297 0.154 3 
0.469 -0.036 0.052 3 
0.476 -0.156 0.142 3 
0.469 -0.077 0.023 3 
0.477 -0.185 0.143 3 
0.471 -0.058 0.142 3 
0.477 -0.177 0.143 3 
0.477 -0.165 0.143 3 
0.487 -0.316 0.152 3 
0.485 -0.294 0.151 3 
0.471 -0.067 0.143 3 
0.48 -0.298 0.093 3 
0.472 -0.075 0.143 3 
0.474 -0.087 0.144 3 
0.475 -0.096 0.144 3 
0.477 -0.276 0.052 3 
0.473 -0.165 0.052 3 
0.475 -0.127 0.144 3 
0.48 -0.276 0.143 3 
0.48 -0.257 0.142 3 
0.48 -0.247 0.142 3 
0.48 -0.235 0.142 3 
0.477 -0.266 0.052 3 
0.478 -0.248 0.052 3 
0.476 -0.237 0.052 3 
0.475 -0.225 0.052 3 
0.474 -0.121 0.138 3 
0.474 -0.221 0.052 3 
0.472 -0.075 0.104 3 
0.475 -0.216 0.052 3 
0.475 -0.189 0.052 3 
0.474 -0.185 0.052 3 
0.473 -0.156 0.052 3 
0.473 -0.136 0.052 3 
0.479 -0.225 0.144 3 
0.472 -0.125 0.052 3 
0.474 -0.087 0.146 3 
0.488 -0.335 0.153 3 
0.474 -0.104 0.147 3 
0.479 -0.216 0.144 3 
0.479 -0.207 0.144 3 
0.474 -0.109 0.147 3 
0.481 -0.255 0.151 3 
0.482 -0.265 0.152 3 
0.468 -0.036 0.044 3 
0.482 -0.275 0.152 3 
0.483 -0.285 0.153 3 
0.345 0.03 0.033 7 
0.332 -0.005 0.038 7 
0.321 0.024 0.039 7 
0.338 0.031 0.033 7 
0.351 -0.006 0.033 7 
0.325 0.004 0.013 7 
0.359 -0.008 0.032 7 
0.327 0.026 0.037 7 
0.324 0.013 0.019 7 
0.325 0.014 0.032 7 
0.324 0.025 0.062 7 
0.35 -0.004 0.028 7 
0.355 -0.004 0.025 7 
0.324 0.017 0.033 7 
0.342 0.011 0.024 7 
0.354 0.005 0.022 7 
0.355 0.012 0.02 7 
0.351 -0.011 0.024 7 
0.344 0.018 0.024 7 
0.346 -0.015 0.03 7 
0.344 -0.005 0.038 7 
0.347 0.037 0.028 7 
0.335 0.023 0.03 7 
0.336 0.035 0.028 7 
0.351 -0.016 0.024 7 
0.358 -0.002 0.023 7 
0.335 0.008 0.027 7 
0.351 0.022 0.024 7 
0.358 0.024 0.023 7 
0.327 0 0.034 7 
0.328 0.023 0.034 7 
0.346 0.003 0.024 7 
0.337 -0.004 0.033 7 
0.342 -0.005 0.032 7 
0.333 0.027 0.034 7 
0.325 0.016 0.02 7 
0.328 0.014 0.021 7 
0.327 0.004 0.021 7 
