# .PCD v0.7 - Point Cloud Data file
FIELDS x y z intensity
SIZE 4 4 4 4
TYPE F F F F
COUNT 1 1 1 1
WIDTH 2430
HEIGHT 1
VIEWPOINT 0 0 0 1 0 0 0
POINTS 2430
DATA ascii
0.331 -0.015 0.016 0 
0.3 -0.005 0.021 0 
0.3 0.001 0.021 0 
0.387 -0.257 -0.016 0 
0.3 -0.015 0.02 0 
0.374 -0.238 -0.026 1 
0.373 -0.225 -0.024 1 
0.364 -0.137 -0.018 1 
0.363 -0.125 -0.017 1 
0.36 -0.06 -0.015 1 
0.36 -0.037 -0.015 1 
0.36 -0.036 -0.014 1 
0.362 -0.027 -0.015 1 
0.359 -0.025 -0.014 1 
0.36 -0.023 -0.015 1 
0.36 0.01 -0.015 1 
0.358 0.024 -0.014 1 
0.359 0.033 -0.015 1 
0.357 0.074 -0.014 1 
0.356 0.083 -0.014 1 
0.356 0.086 -0.014 1 
0.353 0.113 -0.014 1 
0.35 0.122 -0.013 1 
0.352 0.131 -0.014 1 
0.354 0.134 -0.015 1 
0.354 0.136 -0.015 1 
0.353 0.154 -0.015 1 
0.35 0.163 -0.015 1 
0.348 0.166 -0.014 1 
0.344 0.206 -0.015 1 
0.376 -0.24 -0.024 1 
0.382 -0.245 -0.027 1 
0.374 -0.197 -0.022 1 
0.37 -0.187 -0.02 1 
0.369 -0.175 -0.019 1 
0.371 -0.136 -0.018 1 
0.369 -0.127 -0.017 1 
0.363 -0.085 -0.014 1 
0.365 -0.063 -0.015 1 
0.362 -0.055 -0.014 1 
0.364 0.021 -0.015 1 
0.364 0.039 -0.015 1 
0.363 0.043 -0.014 1 
0.364 0.048 -0.015 1 
0.362 0.084 -0.015 1 
0.364 0.094 -0.016 1 
0.361 0.103 -0.015 1 
0.36 0.123 -0.015 1 
0.358 0.124 -0.014 1 
0.354 0.173 -0.015 1 
0.354 0.183 -0.016 1 
0.351 0.214 -0.016 1 
0.386 -0.234 -0.025 1 
0.383 -0.228 -0.024 1 
0.374 -0.152 -0.018 1 
0.373 -0.116 -0.017 1 
0.374 -0.107 -0.017 1 
0.371 -0.096 -0.016 1 
0.37 -0.086 -0.015 1 
0.373 -0.075 -0.016 1 
0.373 -0.045 -0.016 1 
0.374 -0.038 -0.016 1 
0.374 -0.029 -0.016 1 
0.373 0.013 -0.016 1 
0.372 0.024 -0.016 1 
0.372 0.054 -0.016 1 
0.363 0.134 -0.015 1 
0.364 0.151 -0.015 1 
0.393 -0.257 -0.026 1 
0.38 -0.205 -0.02 1 
0.384 -0.155 -0.019 1 
0.381 -0.126 -0.018 1 
0.381 -0.106 -0.017 1 
0.374 -0.066 -0.014 1 
0.382 -0.032 -0.017 1 
0.38 0.013 -0.016 1 
0.373 0.084 -0.015 1 
0.374 0.104 -0.016 1 
0.373 0.123 -0.016 1 
0.372 0.133 -0.016 1 
0.373 0.164 -0.017 1 
0.363 0.194 -0.015 1 
0.36 0.203 -0.015 1 
0.394 -0.266 -0.025 1 
0.394 -0.247 -0.024 1 
0.393 -0.229 -0.023 1 
0.384 -0.166 -0.018 1 
0.384 -0.124 -0.017 1 
0.383 -0.095 -0.016 1 
0.384 -0.075 -0.016 1 
0.382 -0.065 -0.015 1 
0.384 -0.058 -0.016 1 
0.384 -0.046 -0.016 1 
0.384 -0.04 -0.016 1 
0.322 0.003 0.004 1 
0.384 0.024 -0.016 1 
0.381 0.043 -0.015 1 
0.381 0.054 -0.015 1 
0.38 0.074 -0.015 1 
0.379 0.083 -0.015 1 
0.382 0.104 -0.016 1 
0.374 0.144 -0.015 1 
0.37 0.181 -0.015 1 
0.374 0.193 -0.017 1 
0.366 0.223 -0.016 1 
0.364 0.223 -0.015 1 
0.364 0.228 -0.016 1 
0.393 -0.215 -0.02 1 
0.394 -0.208 -0.02 1 
0.38 -0.187 -0.019 1 
0.391 -0.145 -0.017 1 
0.39 -0.125 -0.017 1 
0.392 -0.116 -0.017 1 
0.392 -0.105 -0.017 1 
0.394 -0.077 -0.017 1 
0.39 -0.055 -0.016 1 
0.392 -0.035 -0.016 1 
0.394 -0.034 -0.017 1 
0.384 0.113 -0.015 1 
0.382 0.124 -0.015 1 
0.38 0.136 -0.014 1 
0.38 0.144 -0.015 1 
0.379 0.154 -0.015 1 
0.382 0.162 -0.016 1 
0.404 -0.263 -0.023 1 
0.381 -0.216 -0.02 1 
0.403 -0.228 -0.021 1 
0.394 -0.162 -0.017 1 
0.394 -0.094 -0.015 1 
0.394 -0.066 -0.015 1 
0.393 -0.046 -0.015 1 
0.478 -0.043 -0.042 1 
0.3 -0.015 0.014 1 
0.3 -0.005 0.014 1 
0.394 0.021 -0.015 1 
0.362 -0.146 -0.017 1 
0.394 0.033 -0.015 1 
0.393 0.053 -0.015 1 
0.393 0.063 -0.015 1 
0.393 0.074 -0.015 1 
0.394 0.082 -0.016 1 
0.392 0.094 -0.015 1 
0.389 0.124 -0.015 1 
0.384 0.161 -0.014 1 
0.383 0.22 -0.017 1 
0.383 0.242 -0.018 1 
0.382 0.248 -0.018 1 
0.405 -0.264 -0.021 1 
0.413 -0.265 -0.023 1 
0.402 -0.206 -0.018 1 
0.403 -0.197 -0.018 1 
0.401 -0.145 -0.016 1 
0.402 -0.136 -0.016 1 
0.404 -0.106 -0.016 1 
0.401 -0.075 -0.015 1 
0.399 -0.07 -0.015 1 
0.399 -0.066 -0.014 1 
0.402 -0.056 -0.015 1 
0.401 -0.045 -0.015 1 
0.404 -0.037 -0.016 1 
0.304 0 0.014 1 
0.364 0.074 -0.015 1 
0.401 0.023 -0.015 1 
0.401 0.044 -0.015 1 
0.394 0.133 -0.015 1 
0.394 0.144 -0.015 1 
0.392 0.15 -0.014 1 
0.392 0.154 -0.015 1 
0.392 0.158 -0.015 1 
0.39 0.161 -0.014 1 
0.388 0.183 -0.015 1 
0.413 -0.246 -0.02 1 
0.414 -0.236 -0.02 1 
0.41 -0.227 -0.019 1 
0.404 -0.186 -0.016 1 
0.392 -0.245 -0.025 1 
0.412 -0.117 -0.017 1 
0.41 -0.107 -0.016 1 
0.409 -0.095 -0.016 1 
0.409 -0.075 -0.015 1 
0.407 -0.066 -0.015 1 
0.404 0.073 -0.014 1 
0.404 0.093 -0.015 1 
0.403 0.103 -0.015 1 
0.402 0.109 -0.014 1 
0.402 0.114 -0.015 1 
0.403 0.123 -0.015 1 
0.401 0.129 -0.015 1 
0.354 0.202 -0.015 1 
0.4 0.144 -0.015 1 
0.398 0.151 -0.014 1 
0.399 0.154 -0.015 1 
0.395 0.188 -0.015 1 
0.393 0.194 -0.014 1 
0.392 0.198 -0.014 1 
0.394 0.216 -0.015 1 
0.392 0.244 -0.016 1 
0.424 -0.297 -0.023 1 
0.423 -0.287 -0.022 1 
0.424 -0.273 -0.022 1 
0.424 -0.259 -0.021 1 
0.413 -0.215 -0.017 1 
0.414 -0.196 -0.017 1 
0.41 -0.186 -0.015 1 
0.414 -0.169 -0.016 1 
0.412 -0.156 -0.015 1 
0.353 0.194 -0.016 1 
0.414 -0.136 -0.015 1 
0.414 -0.088 -0.015 1 
0.414 -0.048 -0.015 1 
0.414 -0.045 -0.014 1 
0.483 -0.047 -0.035 1 
0.413 0.033 -0.015 1 
0.413 0.044 -0.015 1 
0.412 0.053 -0.014 1 
0.392 -0.195 -0.019 1 
0.412 0.064 -0.015 1 
0.413 0.073 -0.015 1 
0.41 0.09 -0.014 1 
0.411 0.093 -0.015 1 
0.41 0.104 -0.015 1 
0.41 0.108 -0.015 1 
0.409 0.117 -0.014 1 
0.402 0.134 -0.013 1 
0.404 0.139 -0.013 1 
0.403 0.164 -0.014 1 
0.404 0.172 -0.015 1 
0.403 0.174 -0.014 1 
0.403 0.183 -0.015 1 
0.399 0.208 -0.014 1 
0.404 0.223 -0.016 1 
0.403 0.229 -0.016 1 
0.397 0.244 -0.015 1 
0.424 -0.235 -0.018 1 
0.42 -0.226 -0.017 1 
0.42 -0.216 -0.017 1 
0.421 -0.196 -0.016 1 
0.42 -0.166 -0.015 1 
0.418 -0.16 -0.015 1 
0.37 0.214 -0.017 1 
0.42 -0.109 -0.014 1 
0.421 -0.107 -0.015 1 
0.421 -0.097 -0.015 1 
0.421 -0.086 -0.015 1 
0.421 -0.084 -0.014 1 
0.424 -0.075 -0.015 1 
0.421 -0.056 -0.014 1 
0.421 -0.047 -0.014 1 
0.314 0.003 0.015 1 
0.421 -0.176 -0.016 1 
0.419 0.043 -0.014 1 
0.418 0.054 -0.014 1 
0.419 0.082 -0.015 1 
0.412 0.132 -0.013 1 
0.411 0.143 -0.013 1 
0.411 0.153 -0.014 1 
0.409 0.163 -0.013 1 
0.363 0.164 -0.016 1 
0.411 0.172 -0.014 1 
0.402 0.194 -0.012 1 
0.409 0.205 -0.015 1 
0.359 0.014 -0.014 1 
0.404 -0.237 -0.022 1 
0.407 0.223 -0.015 1 
0.404 0.262 -0.016 1 
0.401 0.267 -0.015 1 
0.432 -0.285 -0.019 1 
0.434 -0.281 -0.02 1 
0.428 -0.225 -0.016 1 
0.424 -0.156 -0.014 1 
0.424 -0.146 -0.014 1 
0.424 -0.137 -0.014 1 
0.424 -0.122 -0.013 1 
0.431 -0.044 -0.015 1 
0.322 0.003 0.014 1 
0.383 0.213 -0.016 1 
0.424 0.03 -0.013 1 
0.424 0.063 -0.013 1 
0.424 0.074 -0.013 1 
0.423 0.093 -0.013 1 
0.42 0.103 -0.013 1 
0.422 0.123 -0.014 1 
0.414 0.194 -0.013 1 
0.399 0.063 -0.015 1 
0.412 0.212 -0.013 1 
0.414 0.232 -0.015 1 
0.413 0.244 -0.015 1 
0.411 0.25 -0.015 1 
0.41 0.252 -0.014 1 
0.411 0.264 -0.015 1 
0.409 0.273 -0.015 1 
0.433 -0.307 -0.018 1 
0.433 -0.248 -0.016 1 
0.433 -0.206 -0.015 1 
0.434 -0.196 -0.015 1 
0.435 -0.191 -0.015 1 
0.434 -0.188 -0.015 1 
0.433 -0.177 -0.014 1 
0.434 -0.175 -0.015 1 
0.432 -0.156 -0.014 1 
0.43 -0.145 -0.013 1 
0.431 -0.135 -0.013 1 
0.438 -0.134 -0.015 1 
0.433 -0.127 -0.014 1 
0.432 -0.116 -0.013 1 
0.431 -0.106 -0.013 1 
0.431 -0.096 -0.013 1 
0.433 -0.085 -0.013 1 
0.434 -0.078 -0.013 1 
0.434 -0.066 -0.013 1 
0.401 0.203 -0.015 1 
0.433 -0.049 -0.013 1 
0.482 -0.047 -0.026 1 
0.478 -0.04 -0.025 1 
0.431 0.012 -0.013 1 
0.431 0.043 -0.013 1 
0.43 0.052 -0.013 1 
0.431 0.064 -0.013 1 
0.422 0.154 -0.012 1 
0.42 0.164 -0.012 1 
0.421 0.174 -0.012 1 
0.421 0.184 -0.013 1 
0.417 0.273 -0.015 1 
0.414 0.278 -0.014 1 
0.415 0.282 -0.015 1 
0.444 -0.297 -0.018 1 
0.439 -0.277 -0.016 1 
0.436 -0.262 -0.015 1 
0.434 -0.257 -0.014 1 
0.441 -0.236 -0.015 1 
0.437 -0.156 -0.013 1 
0.439 -0.145 -0.013 1 
0.437 -0.096 -0.012 1 
0.44 -0.055 -0.012 1 
0.479 -0.046 -0.022 1 
0.333 -0.005 0.014 1 
0.333 -0.001 0.014 1 
0.433 0.072 -0.011 1 
0.434 0.082 -0.011 1 
0.408 -0.055 -0.015 1 
0.434 0.094 -0.012 1 
0.432 0.123 -0.012 1 
0.432 0.143 -0.012 1 
0.43 0.154 -0.012 1 
0.424 0.194 -0.011 1 
0.424 0.201 -0.011 1 
0.424 0.214 -0.012 1 
0.423 0.224 -0.012 1 
0.423 0.229 -0.012 1 
0.424 0.236 -0.012 1 
0.422 0.253 -0.013 1 
0.423 0.271 -0.013 1 
0.419 0.284 -0.013 1 
0.45 -0.317 -0.017 1 
0.448 -0.298 -0.016 1 
0.446 -0.29 -0.015 1 
0.38 0.133 -0.014 1 
0.446 -0.281 -0.015 1 
0.441 -0.267 -0.013 1 
0.41 0.099 -0.014 1 
0.443 -0.235 -0.013 1 
0.443 -0.226 -0.013 1 
0.443 -0.216 -0.013 1 
0.444 -0.195 -0.012 1 
0.444 -0.192 -0.012 1 
0.444 -0.176 -0.012 1 
0.444 -0.166 -0.012 1 
0.444 -0.127 -0.011 1 
0.444 -0.116 -0.011 1 
0.444 -0.109 -0.011 1 
0.423 0.083 -0.013 1 
0.444 -0.086 -0.011 1 
0.444 -0.076 -0.011 1 
0.444 -0.066 -0.011 1 
0.413 0.024 -0.015 1 
0.342 0.002 0.013 1 
0.444 0.033 -0.011 1 
0.443 0.042 -0.011 1 
0.443 0.052 -0.011 1 
0.442 0.062 -0.011 1 
0.441 0.074 -0.011 1 
0.439 0.084 -0.01 1 
0.441 0.102 -0.011 1 
0.439 0.114 -0.011 1 
0.44 0.124 -0.011 1 
0.439 0.134 -0.011 1 
0.434 0.162 -0.011 1 
0.433 0.174 -0.011 1 
0.431 0.183 -0.01 1 
0.43 0.193 -0.01 1 
0.429 0.224 -0.011 1 
0.43 0.233 -0.011 1 
0.431 0.253 -0.012 1 
0.43 0.263 -0.012 1 
0.423 0.294 -0.012 1 
0.454 -0.328 -0.016 1 
0.455 -0.315 -0.015 1 
0.453 -0.297 -0.014 1 
0.445 -0.286 -0.012 1 
0.42 0.134 -0.013 1 
0.448 -0.265 -0.012 1 
0.443 -0.257 -0.011 1 
0.444 -0.252 -0.011 1 
0.45 -0.226 -0.012 1 
0.449 -0.185 -0.011 1 
0.451 -0.156 -0.011 1 
0.452 -0.146 -0.011 1 
0.451 -0.135 -0.011 1 
0.45 -0.127 -0.01 1 
0.45 -0.116 -0.01 1 
0.451 -0.106 -0.01 1 
0.452 -0.096 -0.01 1 
0.444 -0.206 -0.013 1 
0.452 -0.086 -0.01 1 
0.451 -0.075 -0.01 1 
0.451 -0.065 -0.01 1 
0.452 -0.055 -0.01 1 
0.477 -0.04 -0.016 1 
0.334 -0.013 0.017 1 
0.36 0.174 -0.015 1 
0.342 -0.012 0.015 1 
0.353 -0.006 0.012 1 
0.44 0.163 -0.009 1 
0.437 0.174 -0.009 1 
0.413 0.191 -0.015 1 
0.435 0.183 -0.009 1 
0.434 0.204 -0.009 1 
0.434 0.273 -0.011 1 
0.433 0.284 -0.011 1 
0.428 0.3 -0.011 1 
0.453 -0.279 -0.011 1 
0.453 -0.255 -0.01 1 
0.452 -0.245 -0.01 1 
0.454 -0.235 -0.01 1 
0.454 -0.216 -0.01 1 
0.454 -0.205 -0.01 1 
0.454 -0.196 -0.01 1 
0.454 0.034 -0.008 1 
0.444 0.144 -0.01 1 
0.453 0.044 -0.008 1 
0.453 0.054 -0.008 1 
0.452 0.064 -0.008 1 
0.453 0.072 -0.008 1 
0.451 0.092 -0.008 1 
0.452 0.103 -0.009 1 
0.45 0.134 -0.008 1 
0.443 0.202 -0.008 1 
0.441 0.242 -0.009 1 
0.44 0.273 -0.01 1 
0.441 0.283 -0.01 1 
0.443 0.316 -0.012 1 
0.382 0.182 -0.015 1 
0.462 -0.316 -0.011 1 
0.463 -0.298 -0.011 1 
0.454 0.154 -0.007 1 
0.451 0.164 -0.007 1 
0.45 0.194 -0.007 1 
0.444 0.292 -0.009 1 
0.442 0.302 -0.009 1 
0.409 -0.038 -0.015 1 
0.441 0.308 -0.009 1 
0.464 -0.258 -0.007 1 
0.462 -0.216 -0.006 1 
0.464 -0.197 -0.006 1 
0.464 -0.177 -0.006 1 
0.464 -0.158 -0.006 1 
0.464 -0.136 -0.006 1 
0.464 -0.122 -0.005 1 
0.401 -0.268 -0.02 1 
0.465 -0.117 -0.006 1 
0.465 -0.106 -0.006 1 
0.465 -0.087 -0.005 1 
0.465 -0.079 -0.005 1 
0.464 -0.076 -0.005 1 
0.384 -0.239 -0.027 1 
0.464 -0.063 -0.005 1 
0.465 -0.055 -0.005 1 
0.467 -0.047 -0.006 1 
0.466 -0.036 -0.006 1 
0.462 0.003 -0.005 1 
0.462 0.024 -0.005 1 
0.462 0.043 -0.005 1 
0.461 0.064 -0.005 1 
0.461 0.074 -0.005 1 
0.459 0.092 -0.005 1 
0.418 -0.148 -0.015 1 
0.458 0.113 -0.005 1 
0.46 0.122 -0.005 1 
0.469 -0.045 -0.017 1 
0.455 0.172 -0.005 1 
0.394 0.228 -0.016 1 
0.454 0.177 -0.005 1 
0.455 0.183 -0.005 1 
0.455 0.2 -0.006 1 
0.454 0.202 -0.006 1 
0.454 0.213 -0.006 1 
0.452 0.223 -0.006 1 
0.451 0.234 -0.006 1 
0.451 0.242 -0.006 1 
0.452 0.252 -0.006 1 
0.451 0.263 -0.006 1 
0.462 -0.343 -0.006 1 
0.46 0.133 -0.005 1 
0.47 -0.285 -0.006 1 
0.468 -0.277 -0.006 1 
0.469 -0.256 -0.005 1 
0.47 -0.248 -0.005 1 
0.47 -0.236 -0.005 1 
0.467 -0.228 -0.005 1 
0.464 -0.028 -0.003 1 
0.463 0.032 -0.002 1 
0.454 0.268 -0.004 1 
0.455 0.272 -0.005 1 
0.454 0.284 -0.005 1 
0.453 0.292 -0.005 1 
0.452 0.304 -0.005 1 
0.452 0.313 -0.005 1 
0.452 0.323 -0.006 1 
0.453 0.327 -0.006 1 
0.46 -0.341 -0.003 1 
0.473 -0.335 -0.005 1 
0.432 0.133 -0.012 1 
0.441 0.262 -0.01 1 
0.473 -0.328 -0.005 1 
0.364 -0.079 -0.015 1 
0.472 -0.316 -0.005 1 
0.454 -0.045 -0.013 1 
0.474 -0.308 -0.005 1 
0.464 0.121 -0.001 1 
0.383 0.154 -0.014 1 
0.474 -0.315 -0.002 1 
0.474 -0.312 -0.002 1 
0.465 0.094 0.001 1 
0.465 0.146 0.001 1 
0.353 0 0.012 1 
0.475 -0.286 0 1 
0.475 -0.283 0.001 1 
0.472 -0.226 0.002 1 
0.473 -0.218 0.002 1 
0.472 -0.205 0.002 1 
0.471 -0.196 0.002 1 
0.47 -0.186 0.003 1 
0.471 -0.156 0.003 1 
0.47 -0.147 0.003 1 
0.374 -0.206 -0.022 1 
0.421 0.113 -0.013 1 
0.469 -0.135 0.003 1 
0.469 -0.096 0.004 1 
0.468 -0.085 0.004 1 
0.467 -0.077 0.004 1 
0.41 -0.125 -0.016 1 
0.409 0.126 -0.015 1 
0.465 0.083 0.004 1 
0.464 0.094 0.004 1 
0.464 0.107 0.004 1 
0.465 0.144 0.003 1 
0.464 0.152 0.003 1 
0.464 0.169 0.003 1 
0.465 0.181 0.003 1 
0.464 0.183 0.003 1 
0.463 0.194 0.003 1 
0.462 0.201 0.003 1 
0.464 0.223 0.002 1 
0.464 0.232 0.002 1 
0.462 0.304 0.001 1 
0.473 -0.352 0.002 1 
0.476 -0.345 0.002 1 
0.355 0.104 -0.014 1 
0.477 -0.335 0.002 1 
0.477 -0.325 0.002 1 
0.477 -0.308 0.003 1 
0.475 -0.299 0.003 1 
0.474 -0.295 0.003 1 
0.474 -0.285 0.004 1 
0.473 -0.275 0.004 1 
0.472 -0.265 0.004 1 
0.475 -0.243 0.004 1 
0.463 0.273 0.004 1 
0.464 0.287 0.004 1 
0.466 0.292 0.003 1 
0.423 -0.066 -0.015 1 
0.465 0.304 0.003 1 
0.465 0.307 0.003 1 
0.463 0.311 0.003 1 
0.463 0.321 0.003 1 
0.391 0.014 -0.016 1 
0.464 0.329 0.002 1 
0.465 0.334 0.002 1 
0.373 0.145 -0.014 1 
0.466 0.343 0.002 1 
0.461 0.032 -0.005 1 
0.461 0.053 -0.005 1 
0.433 0.293 -0.012 1 
0.404 -0.158 -0.017 1 
0.462 0.014 -0.005 1 
0.463 -0.007 -0.005 1 
0.463 -0.052 -0.007 1 
0.464 -0.065 -0.005 1 
0.414 0.204 -0.014 1 
0.383 -0.146 -0.019 1 
0.462 -0.086 -0.007 1 
0.464 -0.108 -0.005 1 
0.394 0.041 -0.015 1 
0.464 -0.125 -0.005 1 
0.464 -0.147 -0.006 1 
0.465 0.1 0.001 1 
0.463 -0.165 -0.006 1 
0.464 -0.186 -0.006 1 
0.463 -0.225 -0.007 1 
0.459 -0.245 -0.009 1 
0.443 0.253 -0.01 1 
0.464 -0.286 -0.008 1 
0.314 0.003 0.011 1 
0.373 0.238 -0.017 1 
0.462 -0.326 -0.012 1 
0.443 -0.278 -0.011 1 
0.409 0.112 -0.014 1 
0.373 0.113 -0.015 1 
0.39 0.173 -0.015 1 
0.437 -0.266 -0.015 1 
0.441 -0.316 -0.018 1 
0.404 -0.085 -0.016 1 
0.45 0.144 -0.009 1 
0.455 -0.302 -0.015 1 
0.47 -0.166 0.003 1 
0.44 -0.246 -0.015 1 
0.469 -0.127 0.003 1 
0.459 0.143 -0.005 1 
0.392 0.259 -0.015 1 
0.359 0.063 -0.015 1 
0.393 0.103 -0.016 1 
0.474 -0.245 0.004 1 
0.364 0.114 -0.014 1 
0.451 0.124 -0.009 1 
0.443 0.013 -0.011 1 
0.47 -0.298 -0.007 1 
0.463 0.243 0.002 1 
0.371 0.074 -0.016 1 
0.363 -0.065 -0.016 1 
0.443 0.154 -0.01 1 
0.419 0.023 -0.014 1 
0.435 -0.228 -0.016 1 
0.349 0.164 -0.014 1 
0.413 -0.043 -0.014 1 
0.359 0.143 -0.015 1 
0.463 0.338 0 1 
0.455 0.282 -0.005 1 
0.421 -0.207 -0.017 1 
0.454 -0.305 -0.015 1 
0.441 0.214 -0.008 1 
0.363 0.133 -0.014 1 
0.412 0.058 -0.014 1 
0.406 0.054 -0.015 1 
0.412 0.018 -0.014 1 
0.374 -0.217 -0.022 1 
0.443 -0.046 -0.013 1 
0.37 -0.067 -0.015 1 
0.424 -0.276 -0.022 1 
0.401 0.013 -0.015 1 
0.431 0.113 -0.011 1 
0.456 -0.327 -0.016 1 
0.423 -0.042 -0.015 1 
0.378 0.092 -0.015 1 
0.409 0.278 -0.015 1 
0.458 0.154 -0.005 1 
0.393 0.203 -0.015 1 
0.401 0.213 -0.015 1 
0.475 -0.246 0.001 1 
0.463 0.003 -0.002 1 
0.473 -0.236 0.004 1 
0.463 0.043 -0.003 1 
0.374 0.15 -0.015 1 
0.383 0.232 -0.017 1 
0.395 -0.254 -0.025 1 
0.395 -0.259 -0.025 1 
0.465 -0.025 -0.005 1 
0.45 0.013 -0.01 1 
0.413 0.223 -0.014 1 
0.395 -0.265 -0.025 1 
0.427 -0.165 -0.015 1 
0.394 -0.096 -0.015 1 
0.43 -0.237 -0.017 1 
0.373 0.094 -0.015 1 
0.431 -0.266 -0.019 1 
0.412 -0.147 -0.015 1 
0.404 -0.174 -0.018 1 
0.417 -0.247 -0.019 1 
0.409 0.124 -0.015 1 
0.465 -0.128 -0.006 1 
0.465 0.13 0.006 1 
0.403 0.178 -0.014 1 
0.464 0.132 -0.001 1 
0.383 0.203 -0.016 1 
0.382 0.193 -0.015 1 
0.394 -0.266 -0.021 1 
0.423 -0.045 -0.015 1 
0.368 -0.053 -0.014 1 
0.371 0.063 -0.016 1 
0.433 -0.216 -0.015 1 
0.394 0.254 -0.015 1 
0.464 -0.015 -0.005 1 
0.393 -0.239 -0.025 1 
0.4 0.053 -0.015 1 
0.42 -0.095 -0.014 1 
0.364 -0.09 -0.015 1 
0.465 0.113 0.004 1 
0.424 0.012 -0.013 1 
0.393 0.114 -0.016 1 
0.464 0.143 -0.001 1 
0.364 -0.105 -0.017 1 
0.464 0.102 0.004 1 
0.44 0.094 -0.011 1 
0.451 0.113 -0.008 1 
0.464 -0.267 -0.007 1 
0.46 0.082 -0.005 1 
0.383 0.033 -0.016 1 
0.444 0.023 -0.011 1 
0.384 -0.089 -0.016 1 
0.412 0.042 -0.014 1 
0.398 0.071 -0.015 1 
0.422 0.261 -0.013 1 
0.422 0.142 -0.012 1 
0.444 -0.285 -0.015 1 
0.463 0.252 0.002 1 
0.433 -0.304 -0.018 1 
0.463 -0.025 -0.008 1 
0.403 -0.217 -0.019 1 
0.404 -0.183 -0.016 1 
0.412 0.084 -0.015 1 
0.45 0.274 -0.006 1 
0.393 -0.175 -0.019 1 
0.412 -0.175 -0.016 1 
0.399 -0.064 -0.014 1 
0.373 0.034 -0.016 1 
0.412 0.013 -0.014 1 
0.404 0.084 -0.015 1 
0.432 0.024 -0.013 1 
0.463 -0.007 -0.002 1 
0.362 -0.095 -0.016 1 
0.379 -0.177 -0.019 1 
0.462 0.263 0.004 1 
0.465 -0.155 -0.006 1 
0.38 -0.233 -0.025 1 
0.4 -0.096 -0.015 1 
0.441 -0.135 -0.013 1 
0.403 -0.126 -0.016 1 
0.382 0.133 -0.015 1 
0.374 -0.061 -0.014 1 
0.464 0.163 0.003 1 
0.448 -0.176 -0.01 1 
0.363 -0.052 -0.014 1 
0.466 -0.344 -0.004 1 
0.434 0.104 -0.012 1 
0.373 0.231 -0.016 1 
0.421 -0.186 -0.016 1 
0.364 -0.024 -0.014 1 
0.416 0.005 -0.004 1 
0.413 -0.205 -0.017 1 
0.39 0.133 -0.013 1 
0.431 0.033 -0.013 1 
0.363 -0.081 -0.014 1 
0.359 0.184 -0.015 1 
0.443 -0.306 -0.018 1 
0.434 -0.056 -0.013 1 
0.452 0.082 -0.008 1 
0.434 -0.258 -0.016 1 
0.374 -0.159 -0.018 1 
0.381 -0.195 -0.02 1 
0.388 0.213 -0.016 1 
0.419 -0.132 -0.015 1 
0.372 0.174 -0.015 1 
0.363 0.046 -0.014 1 
0.465 0.172 0.003 1 
0.403 0.079 -0.014 1 
0.443 0.194 -0.008 1 
0.464 -0.039 -0.032 1 
0.433 -0.167 -0.014 1 
0.45 0.023 -0.01 1 
0.467 -0.267 -0.005 1 
0.395 0.252 -0.015 1 
0.464 0.281 0.004 1 
0.36 -0.046 -0.015 1 
0.362 0.143 -0.014 1 
0.473 -0.256 0.004 1 
0.393 -0.187 -0.019 1 
0.371 0.044 -0.015 1 
0.405 0.034 -0.014 1 
0.362 -0.115 -0.016 1 
0.4 0.195 -0.014 1 
0.38 0.064 -0.015 1 
0.42 -0.116 -0.015 1 
0.462 -0.097 -0.007 1 
0.434 0.209 -0.009 1 
0.441 0.223 -0.008 1 
0.391 -0.165 -0.018 1 
0.416 0.286 -0.015 1 
0.464 -0.015 -0.003 1 
0.454 -0.037 -0.037 1 
0.412 -0.275 -0.021 1 
0.463 0.072 -0.003 1 
0.414 0.227 -0.014 1 
0.477 -0.318 0.002 1 
0.463 -0.205 -0.006 1 
0.4 0.034 -0.015 1 
0.454 -0.166 -0.009 1 
0.454 0.169 -0.005 1 
0.4 -0.034 -0.017 1 
0.384 0.173 -0.015 1 
0.377 0.09 -0.014 1 
0.455 0.164 -0.005 1 
0.424 -0.125 -0.013 1 
0.464 -0.277 -0.008 1 
0.422 -0.058 -0.015 1 
0.404 -0.122 -0.017 1 
0.44 0.233 -0.009 1 
0.466 -0.095 -0.006 1 
0.455 0.194 -0.006 1 
0.463 0.214 0.002 1 
0.434 0.239 -0.01 1 
0.412 0.183 -0.015 1 
0.465 -0.023 -0.005 1 
0.459 -0.236 -0.008 1 
0.404 -0.247 -0.022 1 
0.488 -0.042 -0.022 1 
0.382 -0.135 -0.018 1 
0.471 -0.04 -0.028 1 
0.388 0.194 -0.015 1 
0.36 0.212 -0.015 1 
0.459 0.103 -0.005 1 
0.463 -0.307 -0.011 1 
0.391 -0.136 -0.017 1 
0.372 -0.165 -0.018 1 
0.474 -0.037 -0.015 1 
0.465 0.124 0.003 1 
0.407 0.013 -0.015 1 
0.471 -0.176 0.003 1 
0.465 0.252 0.144 3 
0.466 0.203 0.143 3 
0.466 0.214 0.143 3 
0.464 0.183 0.033 3 
0.465 0.222 0.143 3 
0.465 0.234 0.143 3 
0.465 0.243 0.144 3 
0.466 0.173 0.142 3 
0.466 0.259 0.144 3 
0.464 0.342 0.146 3 
0.483 -0.326 0.154 3 
0.482 -0.315 0.154 3 
0.465 0.193 0.142 3 
0.465 0.181 0.142 3 
0.479 -0.285 0.152 3 
0.47 -0.155 0.124 3 
0.466 0.162 0.142 3 
0.466 0.153 0.142 3 
0.469 -0.047 0.142 3 
0.47 -0.056 0.142 3 
0.47 -0.067 0.142 3 
0.467 0.022 0.103 3 
0.465 0.172 0.052 3 
0.47 -0.077 0.142 3 
0.467 0.052 0.144 3 
0.476 -0.266 0.153 3 
0.477 -0.277 0.154 3 
0.466 0.139 0.144 3 
0.466 0.131 0.144 3 
0.467 0.118 0.144 3 
0.466 0.112 0.144 3 
0.475 -0.249 0.112 3 
0.467 0.104 0.144 3 
0.466 0.093 0.144 3 
0.466 0.084 0.144 3 
0.467 0.074 0.144 3 
0.481 -0.307 0.153 3 
0.466 0.044 0.144 3 
0.466 0.033 0.144 3 
0.471 -0.147 0.074 3 
0.465 0.022 0.143 3 
0.466 0.003 0.144 3 
0.468 -0.006 0.144 3 
0.468 -0.015 0.144 3 
0.468 -0.025 0.144 3 
0.475 -0.213 0.149 3 
0.47 -0.105 0.143 3 
0.479 -0.295 0.152 3 
0.466 0.193 0.134 3 
0.476 -0.257 0.144 3 
0.465 0.343 0.141 3 
0.475 -0.213 0.14 3 
0.477 -0.277 0.142 3 
0.479 -0.288 0.143 3 
0.471 -0.207 0.013 3 
0.48 -0.296 0.143 3 
0.464 0.197 0.093 3 
0.48 -0.306 0.144 3 
0.48 -0.316 0.144 3 
0.465 0.21 0.134 3 
0.465 0.202 0.134 3 
0.477 -0.245 0.144 3 
0.465 0.184 0.134 3 
0.465 0.172 0.134 3 
0.465 0.164 0.134 3 
0.465 0.153 0.133 3 
0.465 0.133 0.133 3 
0.466 0.123 0.133 3 
0.466 0.114 0.133 3 
0.466 0.103 0.133 3 
0.466 0.092 0.133 3 
0.466 0.084 0.133 3 
0.466 0.063 0.133 3 
0.467 0.314 0.143 3 
0.467 -0.007 0.084 3 
0.469 -0.116 0.142 3 
0.47 -0.125 0.143 3 
0.472 -0.145 0.144 3 
0.472 -0.157 0.144 3 
0.472 -0.165 0.144 3 
0.471 -0.176 0.144 3 
0.471 -0.185 0.144 3 
0.482 -0.335 0.151 3 
0.482 -0.346 0.152 3 
0.465 0.333 0.143 3 
0.466 0.324 0.143 3 
0.47 -0.086 0.142 3 
0.467 0.301 0.143 3 
0.466 0.284 0.142 3 
0.467 -0.015 0.084 3 
0.467 0.273 0.142 3 
0.465 0.152 0.063 3 
0.472 -0.196 0.142 3 
0.473 -0.206 0.142 3 
0.474 -0.216 0.143 3 
0.475 -0.219 0.143 3 
0.475 -0.225 0.143 3 
0.477 -0.236 0.144 3 
0.467 0.104 0.153 3 
0.466 0.203 0.154 3 
0.465 0.194 0.154 3 
0.465 0.182 0.153 3 
0.467 0.174 0.154 3 
0.467 0.163 0.153 3 
0.467 0.154 0.153 3 
0.467 0.143 0.153 3 
0.465 0.124 0.063 3 
0.467 0.134 0.153 3 
0.468 0.124 0.153 3 
0.466 0.033 0.063 3 
0.468 0.113 0.153 3 
0.467 0.206 0.154 3 
0.468 0.093 0.153 3 
0.476 -0.266 0.144 3 
0.468 0.082 0.153 3 
0.467 0.074 0.152 3 
0.466 0.063 0.152 3 
0.467 0.052 0.152 3 
0.466 0.044 0.152 3 
0.467 0.033 0.152 3 
0.466 0.022 0.152 3 
0.466 0.014 0.152 3 
0.467 0.003 0.152 3 
0.484 -0.346 0.171 3 
0.473 -0.256 0.052 3 
0.467 -0.036 0.044 3 
0.474 -0.196 0.162 3 
0.474 -0.205 0.163 3 
0.47 -0.166 0.033 3 
0.474 -0.217 0.163 3 
0.475 -0.22 0.163 3 
0.472 -0.256 0.044 3 
0.474 -0.285 0.012 3 
0.476 -0.227 0.164 3 
0.477 -0.236 0.164 3 
0.477 -0.246 0.164 3 
0.468 -0.007 0.153 3 
0.468 0.345 0.118 3 
0.467 0.346 0.162 3 
0.464 0.234 0.157 3 
0.477 -0.255 0.162 3 
0.478 -0.268 0.163 3 
0.478 -0.275 0.163 3 
0.479 -0.286 0.164 3 
0.479 -0.295 0.164 3 
0.465 0.232 0.154 3 
0.465 0.223 0.154 3 
0.47 -0.135 0.082 3 
0.473 -0.198 0.154 3 
0.464 0.243 0.152 3 
0.465 0.178 0.084 3 
0.464 0.234 0.151 3 
0.472 -0.137 0.152 3 
0.464 0.34 0.062 3 
0.472 -0.145 0.152 3 
0.472 -0.157 0.152 3 
0.464 0.279 0.127 3 
0.473 -0.166 0.153 3 
0.475 -0.265 0.104 3 
0.472 -0.177 0.153 3 
0.472 -0.186 0.153 3 
0.465 0.253 0.152 3 
0.465 0.226 0.063 3 
0.474 -0.216 0.154 3 
0.467 0.346 0.153 3 
0.466 0.341 0.153 3 
0.467 0.332 0.153 3 
0.467 0.322 0.152 3 
0.465 0.244 0.149 3 
0.468 -0.137 0.014 3 
0.475 -0.226 0.152 3 
0.477 -0.236 0.153 3 
0.472 -0.265 0.013 3 
0.471 -0.125 0.154 3 
0.468 -0.015 0.152 3 
0.468 -0.025 0.152 3 
0.47 -0.056 0.153 3 
0.463 0.332 0.062 3 
0.47 -0.067 0.153 3 
0.471 -0.075 0.154 3 
0.471 -0.086 0.154 3 
0.471 -0.097 0.154 3 
0.474 -0.245 0.092 3 
0.471 -0.106 0.154 3 
0.471 -0.117 0.154 3 
0.476 -0.257 0.153 3 
0.48 -0.306 0.162 3 
0.482 -0.315 0.163 3 
0.483 -0.326 0.163 3 
0.465 0.258 0.104 3 
0.484 -0.338 0.164 3 
0.483 -0.348 0.164 3 
0.466 0.311 0.154 3 
0.465 0.303 0.154 3 
0.465 0.293 0.153 3 
0.466 0.282 0.153 3 
0.466 0.263 0.153 3 
0.475 -0.228 0.123 3 
0.47 -0.167 0.124 3 
0.471 -0.176 0.124 3 
0.464 0.338 0.123 3 
0.466 0.333 0.123 3 
0.466 0.323 0.123 3 
0.466 0.313 0.123 3 
0.465 0.302 0.122 3 
0.465 0.292 0.122 3 
0.472 -0.185 0.122 3 
0.473 -0.197 0.122 3 
0.474 -0.206 0.123 3 
0.474 -0.215 0.123 3 
0.471 -0.147 0.124 3 
0.475 -0.237 0.123 3 
0.476 -0.247 0.124 3 
0.476 -0.256 0.124 3 
0.476 -0.266 0.124 3 
0.464 0.224 0.118 3 
0.474 -0.227 0.12 3 
0.474 -0.242 0.12 3 
0.478 -0.287 0.122 3 
0.479 -0.307 0.123 3 
0.48 -0.325 0.123 3 
0.481 -0.337 0.124 3 
0.467 -0.025 0.122 3 
0.465 0.062 0.122 3 
0.465 0.054 0.122 3 
0.465 0.116 0.014 3 
0.466 0.044 0.122 3 
0.466 0.033 0.122 3 
0.466 0.022 0.122 3 
0.469 -0.157 0.014 3 
0.467 0.014 0.122 3 
0.467 0.003 0.122 3 
0.466 -0.076 0.012 3 
0.467 -0.006 0.122 3 
0.467 -0.015 0.122 3 
0.481 -0.347 0.124 3 
0.467 -0.036 0.122 3 
0.468 -0.047 0.123 3 
0.469 -0.055 0.123 3 
0.468 -0.066 0.123 3 
0.47 -0.077 0.123 3 
0.47 -0.086 0.123 3 
0.47 -0.097 0.123 3 
0.475 -0.287 0.093 3 
0.47 -0.105 0.123 3 
0.47 -0.127 0.124 3 
0.471 -0.136 0.124 3 
0.466 0.293 0.114 3 
0.464 0.274 0.054 3 
0.466 -0.006 0.114 3 
0.467 -0.015 0.114 3 
0.467 -0.025 0.114 3 
0.467 -0.036 0.114 3 
0.468 -0.047 0.114 3 
0.464 0.337 0.114 3 
0.464 0.334 0.114 3 
0.466 0.333 0.114 3 
0.465 0.321 0.114 3 
0.465 0.311 0.114 3 
0.465 0.302 0.114 3 
0.467 0.003 0.114 3 
0.464 0.032 0.012 3 
0.466 0.283 0.113 3 
0.466 0.274 0.113 3 
0.464 0.257 0.113 3 
0.464 0.254 0.113 3 
0.465 0.252 0.113 3 
0.464 0.242 0.112 3 
0.464 0.233 0.112 3 
0.464 0.223 0.112 3 
0.465 0.221 0.112 3 
0.463 0.322 0.043 3 
0.465 0.103 0.114 3 
0.481 -0.355 0.124 3 
0.465 0.175 0.114 3 
0.465 0.172 0.114 3 
0.48 -0.327 0.064 3 
0.465 0.164 0.114 3 
0.465 0.153 0.114 3 
0.465 0.204 0.112 3 
0.465 0.144 0.114 3 
0.466 0.134 0.114 3 
0.466 0.122 0.114 3 
0.464 0.294 0.082 3 
0.465 0.114 0.114 3 
0.466 0.073 0.122 3 
0.465 0.092 0.114 3 
0.465 0.084 0.114 3 
0.477 -0.317 0.043 3 
0.465 0.073 0.114 3 
0.465 0.062 0.114 3 
0.464 0.244 0.082 3 
0.465 0.054 0.114 3 
0.465 0.043 0.114 3 
0.466 0.033 0.114 3 
0.467 0.022 0.114 3 
0.467 0.014 0.114 3 
0.471 -0.128 0.132 3 
0.465 0.302 0.134 3 
0.465 0.293 0.133 3 
0.465 0.283 0.133 3 
0.465 0.274 0.133 3 
0.465 0.264 0.133 3 
0.464 0.132 0.022 3 
0.465 0.252 0.132 3 
0.465 0.243 0.132 3 
0.465 0.234 0.132 3 
0.465 0.222 0.132 3 
0.464 0.21 0.131 3 
0.47 -0.116 0.132 3 
0.465 0.342 0.123 3 
0.477 -0.317 0.032 3 
0.471 -0.136 0.132 3 
0.471 -0.145 0.132 3 
0.471 -0.156 0.133 3 
0.471 -0.165 0.133 3 
0.471 -0.176 0.133 3 
0.471 -0.185 0.133 3 
0.473 -0.197 0.133 3 
0.473 -0.206 0.134 3 
0.474 -0.215 0.134 3 
0.465 0.203 0.082 3 
0.468 -0.036 0.133 3 
0.473 -0.186 0.162 3 
0.467 0.052 0.133 3 
0.466 0.044 0.133 3 
0.465 0.033 0.133 3 
0.466 0.022 0.133 3 
0.466 0.014 0.133 3 
0.468 0.003 0.133 3 
0.467 -0.006 0.133 3 
0.473 -0.217 0.064 3 
0.468 -0.015 0.133 3 
0.467 -0.025 0.133 3 
0.465 0.264 0.113 3 
0.475 -0.219 0.134 3 
0.468 -0.047 0.133 3 
0.469 -0.055 0.134 3 
0.469 -0.066 0.134 3 
0.47 -0.075 0.134 3 
0.47 -0.086 0.134 3 
0.47 -0.097 0.134 3 
0.481 -0.327 0.142 3 
0.482 -0.335 0.142 3 
0.482 -0.346 0.143 3 
0.463 0.34 0.134 3 
0.466 0.323 0.134 3 
0.465 0.225 0.124 3 
0.479 -0.308 0.132 3 
0.481 -0.316 0.132 3 
0.482 -0.328 0.133 3 
0.474 -0.276 0.044 3 
0.482 -0.335 0.133 3 
0.483 -0.346 0.134 3 
0.465 0.277 0.124 3 
0.465 0.273 0.124 3 
0.465 0.264 0.124 3 
0.464 0.26 0.124 3 
0.464 0.242 0.124 3 
0.464 0.233 0.123 3 
0.48 -0.358 0.137 3 
0.465 0.213 0.123 3 
0.466 0.204 0.123 3 
0.466 0.193 0.123 3 
0.466 0.184 0.123 3 
0.465 0.172 0.123 3 
0.465 0.164 0.123 3 
0.465 0.153 0.122 3 
0.465 0.133 0.122 3 
0.466 0.114 0.122 3 
0.466 0.103 0.122 3 
0.466 0.092 0.122 3 
0.464 0.233 0.129 3 
0.465 0.084 0.063 3 
0.465 0.343 0.132 3 
0.463 0.333 0.131 3 
0.466 0.333 0.132 3 
0.464 0.257 0.13 3 
0.466 0.094 0.033 3 
0.464 0.251 0.129 3 
0.478 -0.306 0.084 3 
0.465 0.285 0.071 3 
0.464 0.242 0.129 3 
0.464 0.254 0.124 3 
0.466 0.014 0.063 3 
0.466 0.073 0.133 3 
0.475 -0.225 0.132 3 
0.476 -0.235 0.132 3 
0.476 -0.247 0.132 3 
0.465 0.253 0.082 3 
0.476 -0.257 0.133 3 
0.476 -0.266 0.133 3 
0.48 -0.348 0.064 3 
0.471 -0.167 0.044 3 
0.476 -0.275 0.133 3 
0.478 -0.287 0.134 3 
0.479 -0.298 0.134 3 
0.474 -0.167 0.173 3 
0.468 0.152 0.173 3 
0.47 0.349 0.191 3 
0.469 0.236 0.184 3 
0.469 0.233 0.184 3 
0.465 0.163 0.084 3 
0.469 0.224 0.184 3 
0.468 0.214 0.183 3 
0.468 0.202 0.183 3 
0.465 0.043 0.103 3 
0.468 0.193 0.183 3 
0.47 0.183 0.183 3 
0.469 0.174 0.183 3 
0.472 0.355 0.192 3 
0.471 -0.136 0.143 3 
0.469 0.162 0.182 3 
0.469 0.153 0.182 3 
0.47 0.142 0.182 3 
0.471 0.134 0.182 3 
0.476 -0.275 0.124 3 
0.471 0.123 0.182 3 
0.47 -0.105 0.134 3 
0.471 0.114 0.182 3 
0.47 0.103 0.181 3 
0.47 0.094 0.181 3 
0.472 0.009 0.184 3 
0.487 -0.336 0.202 3 
0.487 -0.347 0.203 3 
0.474 0.358 0.196 3 
0.472 0.341 0.194 3 
0.471 0.333 0.193 3 
0.471 -0.147 0.094 3 
0.472 0.322 0.192 3 
0.471 0.311 0.191 3 
0.471 0.07 0.184 3 
0.472 0.037 0.184 3 
0.468 0.113 0.164 3 
0.476 -0.317 0.014 3 
0.466 -0.036 0.004 3 
0.464 0.303 0.082 3 
0.479 -0.237 0.192 3 
0.465 0.189 0.063 3 
0.479 -0.246 0.192 3 
0.464 0.255 0.063 3 
0.481 -0.256 0.193 3 
0.468 -0.077 0.074 3 
0.481 -0.266 0.193 3 
0.481 -0.276 0.194 3 
0.481 -0.285 0.194 3 
0.495 -0.326 0.202 3 
0.469 0.302 0.184 3 
0.477 -0.105 0.184 3 
0.472 -0.167 0.102 3 
0.476 -0.116 0.184 3 
0.476 -0.128 0.184 3 
0.474 -0.135 0.184 3 
0.475 -0.147 0.184 3 
0.481 -0.295 0.192 3 
0.466 0.142 0.134 3 
0.483 -0.307 0.193 3 
0.484 -0.315 0.194 3 
0.469 0.305 0.184 3 
0.464 0.294 0.094 3 
0.464 0.197 0.101 3 
0.469 0.292 0.184 3 
0.465 0.175 0.027 3 
0.468 0.282 0.183 3 
0.467 0.271 0.182 3 
0.473 -0.226 0.052 3 
0.468 0.263 0.182 3 
0.468 0.253 0.182 3 
0.474 -0.087 0.18 3 
0.474 -0.13 0.181 3 
0.474 -0.147 0.181 3 
0.464 0.2 0.033 3 
0.472 -0.037 0.173 3 
0.471 0.083 0.182 3 
0.466 0.043 0.074 3 
0.471 0.064 0.181 3 
0.471 0.053 0.181 3 
0.472 0.034 0.182 3 
0.472 0.023 0.182 3 
0.472 0.003 0.182 3 
0.465 0.253 0.074 3 
0.473 -0.007 0.182 3 
0.48 -0.315 0.123 3 
0.473 -0.015 0.182 3 
0.473 -0.026 0.182 3 
0.487 -0.325 0.202 3 
0.473 -0.037 0.182 3 
0.473 -0.045 0.182 3 
0.468 -0.055 0.063 3 
0.474 -0.056 0.182 3 
0.474 -0.065 0.183 3 
0.474 -0.076 0.183 3 
0.475 -0.079 0.183 3 
0.466 0.003 0.092 3 
0.475 -0.085 0.183 3 
0.466 0.233 0.163 3 
0.477 -0.097 0.184 3 
0.473 0.104 0.188 3 
0.47 0.171 0.189 3 
0.47 0.163 0.189 3 
0.47 0.154 0.188 3 
0.465 0.084 0.122 3 
0.464 0.284 0.093 3 
0.472 0.144 0.189 3 
0.473 0.132 0.189 3 
0.464 0.062 0.106 3 
0.472 0.123 0.188 3 
0.473 0.073 0.188 3 
0.472 0.112 0.188 3 
0.468 0.284 0.174 3 
0.471 0.184 0.189 3 
0.473 0.093 0.188 3 
0.473 0.084 0.188 3 
0.473 0.062 0.188 3 
0.473 0.053 0.188 3 
0.473 0.042 0.188 3 
0.474 0.034 0.188 3 
0.475 0.026 0.189 3 
0.474 0.023 0.188 3 
0.474 0.012 0.188 3 
0.474 0.003 0.188 3 
0.474 -0.007 0.188 3 
0.471 0.282 0.193 3 
0.476 0.361 0.2 3 
0.479 -0.297 0.123 3 
0.475 0.352 0.199 3 
0.473 0.346 0.198 3 
0.473 0.342 0.198 3 
0.472 0.334 0.197 3 
0.472 0.323 0.196 3 
0.472 -0.156 0.102 3 
0.472 0.312 0.195 3 
0.472 0.302 0.194 3 
0.473 0.3 0.195 3 
0.472 0.292 0.194 3 
0.475 -0.015 0.189 3 
0.47 0.274 0.192 3 
0.471 0.262 0.192 3 
0.471 0.253 0.192 3 
0.471 0.244 0.191 3 
0.471 0.234 0.191 3 
0.471 0.222 0.191 3 
0.468 -0.036 0.144 3 
0.469 0.212 0.189 3 
0.477 -0.298 0.023 3 
0.469 0.203 0.189 3 
0.47 0.192 0.189 3 
0.481 -0.256 0.196 3 
0.478 -0.166 0.192 3 
0.468 -0.066 0.074 3 
0.478 -0.175 0.192 3 
0.478 -0.187 0.192 3 
0.478 -0.196 0.193 3 
0.477 -0.205 0.193 3 
0.474 -0.127 0.172 3 
0.479 -0.218 0.194 3 
0.48 -0.228 0.195 3 
0.479 -0.233 0.194 3 
0.479 -0.237 0.195 3 
0.479 -0.246 0.195 3 
0.468 0.343 0.184 3 
0.465 0.083 0.023 3 
0.481 -0.266 0.196 3 
0.482 -0.277 0.197 3 
0.463 0.322 0.054 3 
0.482 -0.286 0.198 3 
0.483 -0.297 0.199 3 
0.484 -0.305 0.199 3 
0.462 0.313 0.014 3 
0.485 -0.31 0.2 3 
0.465 0.169 0.027 3 
0.486 -0.317 0.201 3 
0.476 -0.085 0.189 3 
0.474 -0.018 0.188 3 
0.473 -0.026 0.188 3 
0.474 -0.037 0.188 3 
0.473 -0.045 0.188 3 
0.475 -0.054 0.188 3 
0.475 -0.057 0.188 3 
0.473 -0.207 0.154 3 
0.475 -0.065 0.189 3 
0.468 -0.126 0.014 3 
0.475 -0.076 0.189 3 
0.47 -0.045 0.153 3 
0.466 0.313 0.134 3 
0.474 -0.155 0.181 3 
0.478 -0.097 0.19 3 
0.478 -0.106 0.19 3 
0.478 -0.117 0.191 3 
0.478 -0.356 0.052 3 
0.478 -0.126 0.191 3 
0.469 -0.036 0.153 3 
0.476 -0.136 0.19 3 
0.464 0.092 0.103 3 
0.479 -0.317 0.102 3 
0.476 -0.145 0.19 3 
0.478 -0.158 0.192 3 
0.468 0.022 0.163 3 
0.467 0.143 0.164 3 
0.468 0.132 0.164 3 
0.468 0.124 0.164 3 
0.468 0.104 0.164 3 
0.468 0.093 0.164 3 
0.468 0.082 0.164 3 
0.468 0.074 0.164 3 
0.467 0.063 0.163 3 
0.465 0.222 0.124 3 
0.468 0.044 0.164 3 
0.469 0.033 0.164 3 
0.479 -0.326 0.082 3 
0.467 0.154 0.164 3 
0.468 0.014 0.163 3 
0.468 0.003 0.163 3 
0.469 -0.007 0.164 3 
0.469 -0.015 0.164 3 
0.469 -0.026 0.164 3 
0.47 -0.037 0.164 3 
0.471 -0.045 0.164 3 
0.479 -0.266 0.172 3 
0.478 -0.275 0.172 3 
0.479 -0.286 0.172 3 
0.481 -0.298 0.174 3 
0.475 -0.215 0.172 3 
0.483 -0.327 0.182 3 
0.486 -0.338 0.183 3 
0.486 -0.348 0.184 3 
0.467 0.344 0.174 3 
0.467 0.333 0.173 3 
0.465 0.321 0.172 3 
0.467 0.313 0.172 3 
0.468 0.304 0.172 3 
0.474 -0.175 0.17 3 
0.475 -0.197 0.171 3 
0.475 -0.206 0.172 3 
0.465 0.114 0.063 3 
0.467 0.261 0.164 3 
0.473 -0.166 0.164 3 
0.475 -0.219 0.149 3 
0.477 -0.228 0.173 3 
0.478 -0.237 0.173 3 
0.478 -0.247 0.174 3 
0.472 -0.205 0.083 3 
0.478 -0.256 0.174 3 
0.484 -0.335 0.179 3 
0.467 0.347 0.171 3 
0.467 0.163 0.164 3 
0.467 -0.036 0.103 3 
0.485 -0.347 0.174 3 
0.473 -0.175 0.164 3 
0.466 0.123 0.122 3 
0.474 -0.187 0.165 3 
0.474 -0.196 0.165 3 
0.467 0.063 0.144 3 
0.474 -0.205 0.165 3 
0.474 -0.217 0.166 3 
0.481 -0.318 0.172 3 
0.481 -0.325 0.172 3 
0.47 -0.166 0.022 3 
0.484 -0.335 0.173 3 
0.486 -0.341 0.174 3 
0.474 -0.276 0.084 3 
0.465 0.337 0.164 3 
0.467 0.333 0.164 3 
0.464 0.334 0.123 3 
0.466 0.321 0.164 3 
0.466 0.314 0.163 3 
0.466 0.301 0.163 3 
0.466 0.291 0.162 3 
0.465 0.262 0.063 3 
0.467 0.283 0.162 3 
0.467 0.273 0.162 3 
0.464 0.089 0.111 3 
0.472 -0.075 0.162 3 
0.466 0.272 0.153 3 
0.467 0.252 0.164 3 
0.466 0.242 0.164 3 
0.467 0.224 0.163 3 
0.467 0.213 0.163 3 
0.466 0.203 0.163 3 
0.465 0.194 0.162 3 
0.465 0.182 0.162 3 
0.47 -0.116 0.123 3 
0.466 0.174 0.162 3 
0.472 -0.056 0.162 3 
0.472 -0.067 0.162 3 
0.467 -0.085 0.012 3 
0.472 -0.086 0.162 3 
0.472 -0.098 0.163 3 
0.465 0.113 0.041 3 
0.471 -0.106 0.162 3 
0.463 0.282 0.023 3 
0.472 -0.117 0.163 3 
0.473 -0.126 0.163 3 
0.473 -0.135 0.163 3 
0.472 -0.145 0.163 3 
0.48 -0.358 0.134 3 
0.473 -0.155 0.164 3 
0.469 0.133 0.173 3 
0.479 -0.245 0.183 3 
0.48 -0.255 0.183 3 
0.481 -0.265 0.184 3 
0.48 -0.277 0.184 3 
0.467 0.213 0.174 3 
0.466 0.203 0.174 3 
0.466 0.192 0.173 3 
0.464 0.274 0.032 3 
0.467 0.184 0.174 3 
0.467 0.172 0.173 3 
0.467 0.164 0.173 3 
0.468 0.144 0.173 3 
0.478 -0.235 0.182 3 
0.476 -0.245 0.152 3 
0.469 0.122 0.173 3 
0.47 -0.097 0.143 3 
0.469 0.113 0.173 3 
0.469 0.102 0.173 3 
0.465 0.144 0.122 3 
0.468 0.094 0.172 3 
0.468 0.083 0.172 3 
0.468 0.074 0.172 3 
0.468 0.063 0.172 3 
0.469 0.053 0.172 3 
0.466 -0.007 0.044 3 
0.475 -0.168 0.182 3 
0.476 -0.177 0.183 3 
0.476 -0.186 0.183 3 
0.467 0.054 0.074 3 
0.477 -0.195 0.184 3 
0.466 0.014 0.144 3 
0.477 -0.207 0.184 3 
0.485 -0.323 0.192 3 
0.485 -0.326 0.192 3 
0.472 -0.196 0.052 3 
0.486 -0.335 0.193 3 
0.486 -0.345 0.193 3 
0.465 0.224 0.054 3 
0.468 0.347 0.184 3 
0.467 -0.007 0.063 3 
0.469 0.332 0.183 3 
0.466 0.322 0.181 3 
0.474 -0.096 0.177 3 
0.474 -0.107 0.177 3 
0.474 -0.115 0.178 3 
0.478 -0.217 0.182 3 
0.471 -0.175 0.074 3 
0.465 0.054 0.004 3 
0.477 -0.225 0.182 3 
0.463 0.341 0.143 3 
0.482 -0.286 0.182 3 
0.467 0.292 0.142 3 
0.482 -0.296 0.183 3 
0.465 0.003 0.004 3 
0.481 -0.305 0.183 3 
0.464 0.051 0.004 3 
0.482 -0.316 0.184 3 
0.473 -0.188 0.094 3 
0.484 -0.329 0.185 3 
0.468 0.288 0.174 3 
0.467 0.271 0.173 3 
0.48 -0.307 0.174 3 
0.474 -0.167 0.176 3 
0.467 0.264 0.173 3 
0.467 0.252 0.173 3 
0.467 0.243 0.172 3 
0.473 -0.256 0.072 3 
0.467 0.234 0.172 3 
0.467 0.222 0.172 3 
0.473 -0.135 0.172 3 
0.473 -0.146 0.172 3 
0.473 -0.155 0.172 3 
0.475 -0.176 0.174 3 
0.475 -0.185 0.174 3 
0.471 -0.045 0.173 3 
0.469 0.044 0.172 3 
0.464 0.313 0.094 3 
0.47 0.034 0.173 3 
0.468 0.052 0.164 3 
0.47 0.023 0.173 3 
0.47 0.014 0.172 3 
0.469 0.003 0.172 3 
0.47 -0.007 0.173 3 
0.47 -0.015 0.173 3 
0.47 -0.026 0.173 3 
0.463 0.104 0.012 3 
0.469 -0.105 0.104 3 
0.472 -0.056 0.173 3 
0.466 0.003 0.103 3 
0.473 -0.065 0.174 3 
0.465 0.102 0.044 3 
0.462 0.213 0.014 3 
0.473 -0.076 0.174 3 
0.474 -0.087 0.174 3 
0.474 -0.096 0.174 3 
0.473 -0.106 0.174 3 
0.464 0.239 0.104 3 
0.473 -0.115 0.174 3 
0.466 0.084 0.044 3 
0.464 0.163 0.044 3 
0.465 0.158 0.044 3 
0.464 0.152 0.044 3 
0.465 0.149 0.044 3 
0.464 0.143 0.044 3 
0.465 0.138 0.044 3 
0.465 0.133 0.044 3 
0.474 -0.295 0.009 3 
0.464 0.13 0.044 3 
0.465 0.124 0.044 3 
0.464 0.113 0.044 3 
0.466 0.094 0.044 3 
0.464 0.174 0.044 3 
0.466 0.073 0.044 3 
0.466 0.054 0.044 3 
0.466 0.032 0.044 3 
0.466 0.024 0.044 3 
0.466 0.014 0.044 3 
0.467 0.003 0.044 3 
0.467 -0.015 0.044 3 
0.467 -0.025 0.044 3 
0.468 -0.047 0.044 3 
0.468 -0.055 0.044 3 
0.468 -0.077 0.044 3 
0.463 0.264 0.043 3 
0.478 -0.315 0.052 3 
0.478 -0.328 0.052 3 
0.479 -0.336 0.052 3 
0.475 -0.292 0.049 3 
0.462 0.338 0.042 3 
0.461 0.333 0.042 3 
0.463 0.312 0.043 3 
0.463 0.302 0.043 3 
0.468 -0.066 0.044 3 
0.464 0.293 0.043 3 
0.464 0.283 0.043 3 
0.464 0.274 0.043 3 
0.469 -0.085 0.044 3 
0.467 -0.055 0.034 3 
0.464 0.223 0.024 3 
0.463 0.252 0.043 3 
0.463 0.243 0.043 3 
0.465 0.229 0.043 3 
0.465 0.224 0.043 3 
0.465 0.212 0.043 3 
0.464 0.205 0.043 3 
0.464 0.202 0.043 3 
0.464 0.194 0.044 3 
0.464 0.182 0.044 3 
0.479 -0.358 0.034 3 
0.475 -0.282 0.041 3 
0.464 0.124 0.039 3 
0.461 0.336 0.034 3 
0.461 0.333 0.034 3 
0.463 0.322 0.034 3 
0.463 0.312 0.034 3 
0.464 0.302 0.034 3 
0.464 0.293 0.034 3 
0.464 0.283 0.034 3 
0.478 -0.332 0.034 3 
0.478 -0.335 0.034 3 
0.48 -0.348 0.034 3 
0.465 0.203 0.041 3 
0.465 0.306 0.031 3 
0.465 0.303 0.031 3 
0.463 0.264 0.032 3 
0.463 0.252 0.032 3 
0.463 0.243 0.032 3 
0.464 0.232 0.032 3 
0.465 0.062 0.001 3 
0.464 0.223 0.032 3 
0.464 0.214 0.032 3 
0.465 0.206 0.032 3 
0.465 0.203 0.032 3 
0.472 -0.225 0.044 3 
0.47 -0.096 0.044 3 
0.47 -0.105 0.044 3 
0.47 -0.116 0.044 3 
0.47 -0.127 0.044 3 
0.47 -0.135 0.044 3 
0.471 -0.147 0.044 3 
0.471 -0.155 0.044 3 
0.47 -0.175 0.044 3 
0.471 -0.187 0.044 3 
0.471 -0.195 0.044 3 
0.472 -0.205 0.044 3 
0.472 -0.216 0.044 3 
0.477 -0.307 0.052 3 
0.473 -0.235 0.044 3 
0.473 -0.247 0.044 3 
0.472 -0.265 0.044 3 
0.474 -0.285 0.044 3 
0.475 -0.295 0.044 3 
0.476 -0.306 0.044 3 
0.477 -0.327 0.043 3 
0.479 -0.336 0.043 3 
0.479 -0.347 0.043 3 
0.478 -0.356 0.043 3 
0.464 0.223 0.041 3 
0.463 0.293 0.054 3 
0.478 -0.315 0.064 3 
0.48 -0.337 0.064 3 
0.479 -0.357 0.064 3 
0.464 0.154 0.052 3 
0.464 0.265 0.06 3 
0.464 0.182 0.057 3 
0.464 0.174 0.057 3 
0.464 -0.041 0.012 3 
0.475 -0.293 0.058 3 
0.462 0.337 0.054 3 
0.464 0.08 0.004 3 
0.463 0.302 0.054 3 
0.477 -0.307 0.064 3 
0.464 0.283 0.054 3 
0.465 0.278 0.054 3 
0.463 0.261 0.054 3 
0.463 0.252 0.054 3 
0.464 0.232 0.054 3 
0.465 0.229 0.054 3 
0.465 0.212 0.054 3 
0.464 0.205 0.054 3 
0.464 0.202 0.054 3 
0.464 0.194 0.054 3 
0.465 0.186 0.054 3 
0.472 -0.196 0.064 3 
0.47 -0.097 0.063 3 
0.469 -0.107 0.063 3 
0.47 -0.116 0.063 3 
0.48 -0.348 0.052 3 
0.47 -0.127 0.063 3 
0.47 -0.135 0.063 3 
0.471 -0.147 0.063 3 
0.471 -0.155 0.063 3 
0.47 -0.166 0.063 3 
0.47 -0.177 0.063 3 
0.464 0.214 0.024 3 
0.471 -0.187 0.063 3 
0.464 0.182 0.054 3 
0.475 -0.289 0.044 3 
0.473 -0.205 0.064 3 
0.473 -0.226 0.064 3 
0.474 -0.236 0.064 3 
0.473 -0.247 0.064 3 
0.473 -0.256 0.064 3 
0.473 -0.266 0.064 3 
0.473 -0.275 0.064 3 
0.473 -0.285 0.064 3 
0.475 -0.296 0.064 3 
0.463 0.243 0.054 3 
0.471 -0.155 0.052 3 
0.467 -0.036 0.052 3 
0.468 -0.047 0.052 3 
0.468 -0.055 0.052 3 
0.469 -0.066 0.052 3 
0.469 -0.077 0.052 3 
0.469 -0.085 0.052 3 
0.469 -0.096 0.052 3 
0.47 -0.105 0.052 3 
0.47 -0.116 0.052 3 
0.47 -0.127 0.052 3 
0.47 -0.135 0.052 3 
0.471 -0.147 0.052 3 
0.463 0.283 0.012 3 
0.47 -0.166 0.052 3 
0.47 -0.177 0.052 3 
0.47 -0.186 0.052 3 
0.472 -0.205 0.052 3 
0.472 -0.216 0.052 3 
0.474 -0.236 0.052 3 
0.473 -0.247 0.052 3 
0.473 -0.266 0.052 3 
0.473 -0.275 0.052 3 
0.474 -0.286 0.052 3 
0.476 -0.296 0.052 3 
0.465 0.094 0.052 3 
0.465 0.177 0.054 3 
0.464 0.138 0.055 3 
0.465 0.203 0.052 3 
0.464 0.174 0.052 3 
0.464 0.163 0.052 3 
0.465 0.161 0.052 3 
0.465 0.152 0.052 3 
0.464 0.143 0.052 3 
0.465 0.141 0.052 3 
0.465 0.133 0.052 3 
0.465 0.113 0.052 3 
0.465 0.103 0.052 3 
0.464 0.194 0.033 3 
0.465 0.083 0.052 3 
0.466 0.073 0.052 3 
0.466 0.062 0.052 3 
0.466 0.054 0.052 3 
0.467 0.043 0.052 3 
0.467 0.033 0.052 3 
0.466 0.024 0.052 3 
0.467 0.014 0.052 3 
0.467 -0.007 0.052 3 
0.466 -0.015 0.052 3 
0.467 -0.025 0.052 3 
0.462 0.184 0.014 3 
0.477 -0.335 0.014 3 
0.477 -0.345 0.014 3 
0.474 -0.353 0.014 3 
0.462 0.304 0.012 3 
0.462 0.294 0.012 3 
0.462 0.263 0.013 3 
0.462 0.254 0.013 3 
0.462 0.242 0.013 3 
0.461 0.232 0.013 3 
0.462 0.224 0.013 3 
0.462 0.204 0.014 3 
0.461 0.192 0.014 3 
0.476 -0.327 0.014 3 
0.462 0.173 0.014 3 
0.462 0.162 0.014 3 
0.462 0.154 0.014 3 
0.462 0.134 0.014 3 
0.464 0.032 0.015 3 
0.464 0.003 0.015 3 
0.469 -0.146 0.014 3 
0.469 -0.166 0.014 3 
0.469 -0.177 0.014 3 
0.469 -0.186 0.014 3 
0.469 -0.197 0.014 3 
0.47 -0.155 0.022 3 
0.466 -0.025 0.023 3 
0.467 -0.036 0.023 3 
0.467 -0.047 0.023 3 
0.467 -0.055 0.023 3 
0.467 -0.066 0.023 3 
0.469 -0.077 0.023 3 
0.469 -0.096 0.023 3 
0.469 -0.107 0.023 3 
0.469 -0.115 0.023 3 
0.469 -0.126 0.023 3 
0.469 -0.135 0.022 3 
0.47 -0.146 0.022 3 
0.47 -0.215 0.014 3 
0.47 -0.175 0.022 3 
0.47 -0.186 0.022 3 
0.47 -0.195 0.022 3 
0.465 0.127 0.02 3 
0.464 0.054 0.02 3 
0.46 0.332 0.014 3 
0.462 0.323 0.014 3 
0.464 0.043 0.018 3 
0.464 0.019 0.018 3 
0.474 -0.285 0.015 3 
0.476 -0.307 0.014 3 
0.465 0.024 0.004 3 
0.467 -0.096 0.012 3 
0.467 -0.106 0.012 3 
0.468 -0.115 0.012 3 
0.464 -0.033 0.01 3 
0.465 0.019 0.007 3 
0.465 -0.001 0.007 3 
0.465 -0.047 0.007 3 
0.465 0.132 0.003 3 
0.465 0.073 0.004 3 
0.464 0.062 0.004 3 
0.465 0.043 0.004 3 
0.465 0.032 0.004 3 
0.466 -0.065 0.012 3 
0.464 0.022 0.004 3 
0.464 0.014 0.004 3 
0.465 0.011 0.004 3 
0.465 -0.007 0.004 3 
0.466 -0.015 0.004 3 
0.466 -0.025 0.004 3 
0.465 -0.047 0.004 3 
0.466 -0.055 0.004 3 
0.467 -0.066 0.004 3 
0.468 -0.107 0.004 3 
0.468 -0.115 0.004 3 
0.464 0.043 0.012 3 
0.471 -0.225 0.013 3 
0.472 -0.235 0.013 3 
0.472 -0.247 0.013 3 
0.473 -0.256 0.013 3 
0.473 -0.275 0.012 3 
0.475 -0.296 0.012 3 
0.464 0.113 0.012 3 
0.463 0.094 0.012 3 
0.463 0.083 0.012 3 
0.463 0.072 0.012 3 
0.462 0.064 0.013 3 
0.463 0.053 0.012 3 
0.467 -0.015 0.023 3 
0.464 0.024 0.012 3 
0.464 0.014 0.012 3 
0.463 0.003 0.013 3 
0.464 -0.007 0.012 3 
0.465 -0.012 0.012 3 
0.465 -0.015 0.012 3 
0.465 -0.025 0.012 3 
0.465 -0.036 0.012 3 
0.464 -0.047 0.012 3 
0.464 -0.055 0.012 3 
0.465 -0.057 0.012 3 
0.471 -0.207 0.033 3 
0.469 -0.085 0.033 3 
0.469 -0.096 0.033 3 
0.469 -0.107 0.033 3 
0.469 -0.115 0.033 3 
0.464 0.124 0.014 3 
0.469 -0.126 0.033 3 
0.47 -0.135 0.033 3 
0.471 -0.147 0.033 3 
0.47 -0.155 0.033 3 
0.47 -0.175 0.033 3 
0.47 -0.186 0.033 3 
0.471 -0.195 0.033 3 
0.468 -0.077 0.033 3 
0.472 -0.217 0.033 3 
0.472 -0.226 0.033 3 
0.473 -0.235 0.033 3 
0.473 -0.247 0.033 3 
0.472 -0.256 0.033 3 
0.472 -0.265 0.033 3 
0.475 -0.276 0.032 3 
0.477 -0.288 0.032 3 
0.477 -0.297 0.032 3 
0.477 -0.307 0.032 3 
0.465 0.116 0.031 3 
0.466 0.054 0.033 3 
0.464 0.174 0.033 3 
0.465 0.161 0.033 3 
0.464 0.154 0.033 3 
0.465 0.144 0.033 3 
0.464 0.138 0.033 3 
0.465 0.133 0.033 3 
0.464 0.13 0.033 3 
0.464 0.124 0.033 3 
0.465 0.113 0.033 3 
0.465 0.102 0.033 3 
0.466 0.073 0.033 3 
0.466 0.062 0.033 3 
0.465 0.221 0.027 3 
0.466 0.043 0.033 3 
0.466 0.032 0.034 3 
0.469 -0.085 0.023 3 
0.466 0.024 0.034 3 
0.466 0.014 0.034 3 
0.466 0.003 0.034 3 
0.467 -0.007 0.034 3 
0.467 -0.015 0.034 3 
0.467 -0.025 0.034 3 
0.467 -0.036 0.034 3 
0.467 -0.047 0.034 3 
0.465 0.091 0.023 3 
0.463 0.182 0.022 3 
0.464 0.174 0.022 3 
0.463 0.162 0.022 3 
0.464 0.014 0.015 3 
0.463 0.154 0.022 3 
0.464 0.143 0.022 3 
0.465 0.124 0.022 3 
0.465 0.113 0.022 3 
0.464 0.107 0.023 3 
0.464 0.102 0.023 3 
0.465 0.1 0.023 3 
0.464 0.094 0.023 3 
0.46 0.336 0.02 3 
0.464 0.08 0.023 3 
0.465 0.073 0.023 3 
0.464 0.07 0.023 3 
0.465 0.064 0.023 3 
0.464 0.062 0.023 3 
0.465 0.054 0.023 3 
0.465 0.032 0.023 3 
0.465 0.024 0.023 3 
0.465 0.014 0.023 3 
0.465 0.003 0.023 3 
0.466 -0.007 0.023 3 
0.472 -0.217 0.024 3 
0.459 0.334 0.023 3 
0.462 0.324 0.023 3 
0.473 -0.355 0.014 3 
0.463 0.314 0.023 3 
0.464 0.302 0.023 3 
0.463 0.264 0.024 3 
0.463 0.252 0.024 3 
0.463 0.243 0.024 3 
0.463 0.234 0.024 3 
0.464 0.203 0.024 3 
0.472 -0.208 0.024 3 
0.47 -0.086 0.063 3 
0.472 -0.226 0.024 3 
0.472 -0.256 0.024 3 
0.473 -0.265 0.024 3 
0.474 -0.275 0.024 3 
0.475 -0.28 0.024 3 
0.476 -0.287 0.023 3 
0.478 -0.305 0.023 3 
0.477 -0.317 0.023 3 
0.477 -0.328 0.023 3 
0.479 -0.337 0.022 3 
0.478 -0.357 0.022 3 
0.465 0.301 0.094 3 
0.478 -0.306 0.102 3 
0.48 -0.325 0.103 3 
0.479 -0.338 0.103 3 
0.481 -0.347 0.103 3 
0.48 -0.355 0.103 3 
0.466 0.062 0.044 3 
0.466 0.342 0.097 3 
0.462 0.338 0.094 3 
0.462 0.334 0.094 3 
0.465 0.328 0.094 3 
0.464 0.323 0.094 3 
0.464 0.303 0.094 3 
0.477 -0.295 0.102 3 
0.465 0.292 0.094 3 
0.465 0.282 0.094 3 
0.466 0.043 0.023 3 
0.464 0.272 0.093 3 
0.464 0.263 0.093 3 
0.464 0.254 0.093 3 
0.465 0.244 0.093 3 
0.464 0.232 0.093 3 
0.465 0.23 0.093 3 
0.465 0.224 0.093 3 
0.465 0.212 0.093 3 
0.475 -0.246 0.104 3 
0.464 0.323 0.082 3 
0.464 0.194 0.101 3 
0.479 -0.326 0.073 3 
0.464 0.18 0.101 3 
0.471 -0.147 0.102 3 
0.473 -0.176 0.102 3 
0.473 -0.185 0.102 3 
0.473 -0.197 0.103 3 
0.473 -0.205 0.103 3 
0.473 -0.217 0.103 3 
0.473 -0.226 0.103 3 
0.474 -0.236 0.103 3 
0.465 0.203 0.093 3 
0.475 -0.255 0.104 3 
0.474 -0.267 0.104 3 
0.475 -0.277 0.104 3 
0.477 -0.289 0.104 3 
0.464 0.32 0.1 3 
0.464 0.284 0.099 3 
0.462 0.334 0.082 3 
0.464 0.174 0.098 3 
0.464 0.051 0.098 3 
0.474 -0.248 0.101 3 
0.474 -0.257 0.101 3 
0.472 -0.176 0.094 3 
0.468 -0.055 0.093 3 
0.468 -0.066 0.093 3 
0.468 -0.077 0.093 3 
0.468 -0.085 0.093 3 
0.469 -0.096 0.093 3 
0.47 -0.105 0.093 3 
0.47 -0.116 0.093 3 
0.47 -0.127 0.093 3 
0.464 0.191 0.024 3 
0.469 -0.135 0.093 3 
0.472 -0.156 0.094 3 
0.472 -0.167 0.094 3 
0.467 -0.047 0.093 3 
0.473 -0.197 0.094 3 
0.472 -0.205 0.094 3 
0.473 -0.217 0.094 3 
0.474 -0.276 0.095 3 
0.465 0.324 0.091 3 
0.464 0.244 0.09 3 
0.465 0.175 0.09 3 
0.473 -0.226 0.092 3 
0.473 -0.235 0.092 3 
0.474 -0.257 0.092 3 
0.462 0.311 0.054 3 
0.465 0.084 0.092 3 
0.464 0.194 0.093 3 
0.464 0.183 0.093 3 
0.464 0.174 0.093 3 
0.465 0.169 0.093 3 
0.465 0.163 0.093 3 
0.465 0.152 0.093 3 
0.466 0.144 0.093 3 
0.466 0.133 0.093 3 
0.465 0.122 0.092 3 
0.466 0.114 0.093 3 
0.465 0.103 0.092 3 
0.465 0.092 0.092 3 
0.464 0.254 0.101 3 
0.466 0.073 0.092 3 
0.465 0.062 0.092 3 
0.465 0.054 0.092 3 
0.466 0.043 0.092 3 
0.467 0.033 0.092 3 
0.467 0.022 0.092 3 
0.466 0.014 0.092 3 
0.467 -0.007 0.093 3 
0.467 -0.015 0.093 3 
0.468 -0.025 0.093 3 
0.467 -0.036 0.093 3 
0.474 -0.258 0.109 3 
0.474 -0.245 0.112 3 
0.475 -0.255 0.112 3 
0.475 -0.265 0.112 3 
0.476 -0.275 0.113 3 
0.477 -0.286 0.113 3 
0.478 -0.296 0.114 3 
0.479 -0.307 0.114 3 
0.48 -0.315 0.114 3 
0.48 -0.325 0.114 3 
0.474 -0.245 0.084 3 
0.464 0.073 0.106 3 
0.475 -0.243 0.109 3 
0.474 -0.236 0.112 3 
0.48 -0.339 0.112 3 
0.481 -0.347 0.112 3 
0.473 -0.248 0.024 3 
0.48 -0.357 0.112 3 
0.464 0.266 0.104 3 
0.465 0.251 0.104 3 
0.465 0.242 0.104 3 
0.465 0.233 0.104 3 
0.464 0.229 0.104 3 
0.462 0.272 0.013 3 
0.464 0.223 0.104 3 
0.472 -0.187 0.114 3 
0.466 0.193 0.112 3 
0.464 0.075 0.111 3 
0.468 -0.055 0.112 3 
0.469 -0.066 0.112 3 
0.469 -0.077 0.112 3 
0.469 -0.085 0.112 3 
0.467 -0.066 0.034 3 
0.47 -0.097 0.112 3 
0.47 -0.105 0.112 3 
0.47 -0.116 0.113 3 
0.47 -0.127 0.113 3 
0.47 -0.136 0.113 3 
0.465 0.215 0.104 3 
0.47 -0.147 0.113 3 
0.471 -0.156 0.113 3 
0.472 -0.167 0.113 3 
0.472 -0.176 0.113 3 
0.473 -0.197 0.114 3 
0.473 -0.206 0.114 3 
0.473 -0.217 0.114 3 
0.474 -0.227 0.114 3 
0.474 -0.248 0.115 3 
0.465 0.342 0.112 3 
0.465 0.243 0.11 3 
0.47 -0.135 0.104 3 
0.467 -0.015 0.103 3 
0.467 -0.025 0.103 3 
0.468 -0.047 0.104 3 
0.468 -0.055 0.104 3 
0.469 -0.066 0.104 3 
0.468 -0.077 0.104 3 
0.469 -0.085 0.104 3 
0.464 0.232 0.043 3 
0.47 -0.097 0.104 3 
0.47 -0.116 0.104 3 
0.465 0.272 0.063 3 
0.47 -0.127 0.104 3 
0.464 0.191 0.084 3 
0.473 -0.235 0.024 3 
0.474 -0.267 0.107 3 
0.464 0.34 0.103 3 
0.463 0.332 0.102 3 
0.466 0.332 0.103 3 
0.465 0.324 0.103 3 
0.465 0.314 0.102 3 
0.465 0.301 0.102 3 
0.465 0.292 0.102 3 
0.465 0.282 0.102 3 
0.464 0.263 0.102 3 
0.466 0.043 0.044 3 
0.465 0.212 0.104 3 
0.465 0.203 0.104 3 
0.465 0.192 0.104 3 
0.465 0.183 0.104 3 
0.465 0.172 0.104 3 
0.478 -0.346 0.022 3 
0.465 0.164 0.103 3 
0.465 0.152 0.103 3 
0.465 0.144 0.103 3 
0.465 0.133 0.103 3 
0.466 0.122 0.103 3 
0.466 0.114 0.103 3 
0.474 -0.267 0.092 3 
0.465 0.103 0.103 3 
0.465 0.086 0.103 3 
0.464 0.083 0.103 3 
0.465 0.078 0.103 3 
0.465 0.073 0.103 3 
0.465 0.062 0.103 3 
0.469 -0.096 0.082 3 
0.465 0.054 0.103 3 
0.467 0.033 0.103 3 
0.467 0.014 0.103 3 
0.467 -0.007 0.103 3 
0.464 0.214 0.071 3 
0.467 -0.036 0.074 3 
0.469 -0.055 0.074 3 
0.469 -0.085 0.074 3 
0.469 -0.096 0.074 3 
0.47 -0.108 0.074 3 
0.469 -0.116 0.074 3 
0.47 -0.127 0.074 3 
0.471 -0.135 0.074 3 
0.471 -0.155 0.074 3 
0.471 -0.166 0.074 3 
0.465 0.282 0.071 3 
0.465 0.265 0.071 3 
0.467 -0.025 0.074 3 
0.464 0.183 0.071 3 
0.465 0.152 0.033 3 
0.471 -0.187 0.072 3 
0.472 -0.196 0.072 3 
0.472 -0.205 0.072 3 
0.466 0.084 0.033 3 
0.472 -0.216 0.072 3 
0.465 0.124 0.052 3 
0.472 -0.225 0.072 3 
0.473 -0.235 0.072 3 
0.465 0.341 0.068 3 
0.465 0.114 0.074 3 
0.465 0.218 0.074 3 
0.465 0.212 0.074 3 
0.465 0.203 0.074 3 
0.464 0.194 0.074 3 
0.465 0.192 0.074 3 
0.465 0.183 0.074 3 
0.465 0.172 0.074 3 
0.465 0.163 0.074 3 
0.466 0.153 0.074 3 
0.466 0.144 0.074 3 
0.466 0.133 0.074 3 
0.466 0.122 0.074 3 
0.474 -0.248 0.072 3 
0.465 0.103 0.074 3 
0.465 0.092 0.074 3 
0.465 0.084 0.074 3 
0.465 0.073 0.074 3 
0.466 0.062 0.074 3 
0.466 0.033 0.074 3 
0.466 0.022 0.074 3 
0.466 0.014 0.074 3 
0.467 0.003 0.074 3 
0.467 -0.007 0.074 3 
0.468 -0.015 0.074 3 
0.465 0.094 0.063 3 
0.464 0.223 0.063 3 
0.465 0.221 0.063 3 
0.465 0.212 0.063 3 
0.465 0.203 0.063 3 
0.464 0.2 0.063 3 
0.464 0.194 0.063 3 
0.465 0.183 0.063 3 
0.465 0.172 0.063 3 
0.465 0.163 0.063 3 
0.465 0.144 0.063 3 
0.465 0.133 0.063 3 
0.466 0.103 0.063 3 
0.464 0.232 0.063 3 
0.467 0.073 0.063 3 
0.467 0.054 0.063 3 
0.466 0.024 0.063 3 
0.466 0.003 0.063 3 
0.467 -0.015 0.063 3 
0.468 -0.025 0.063 3 
0.467 -0.036 0.063 3 
0.468 -0.047 0.063 3 
0.469 -0.066 0.063 3 
0.464 0.163 0.033 3 
0.469 -0.077 0.063 3 
0.464 0.197 0.068 3 
0.474 -0.267 0.072 3 
0.474 -0.276 0.072 3 
0.473 -0.285 0.072 3 
0.475 -0.293 0.072 3 
0.475 -0.296 0.072 3 
0.477 -0.308 0.073 3 
0.477 -0.315 0.073 3 
0.48 -0.337 0.073 3 
0.48 -0.348 0.073 3 
0.477 -0.355 0.073 3 
0.464 0.24 0.068 3 
0.464 0.232 0.068 3 
0.464 0.223 0.074 3 
0.464 0.246 0.065 3 
0.464 0.323 0.062 3 
0.462 0.311 0.062 3 
0.463 0.302 0.062 3 
0.463 0.293 0.062 3 
0.464 0.284 0.063 3 
0.465 0.275 0.063 3 
0.465 0.253 0.063 3 
0.467 0.003 0.052 3 
0.464 0.249 0.063 3 
0.464 0.243 0.063 3 
0.462 0.338 0.082 3 
0.465 0.092 0.084 3 
0.465 0.084 0.084 3 
0.46 0.336 0.014 3 
0.465 0.073 0.084 3 
0.468 -0.047 0.074 3 
0.465 0.062 0.084 3 
0.466 0.054 0.084 3 
0.466 0.043 0.084 3 
0.466 0.033 0.084 3 
0.467 0.022 0.084 3 
0.467 0.014 0.084 3 
0.467 0.003 0.084 3 
0.466 0.103 0.084 3 
0.465 0.317 0.082 3 
0.465 0.314 0.082 3 
0.464 0.31 0.082 3 
0.464 0.284 0.082 3 
0.463 0.274 0.082 3 
0.464 0.263 0.082 3 
0.464 0.247 0.082 3 
0.464 0.232 0.082 3 
0.465 0.23 0.082 3 
0.465 0.224 0.082 3 
0.463 0.273 0.024 3 
0.464 0.223 0.087 3 
0.474 -0.276 0.092 3 
0.475 -0.28 0.093 3 
0.464 0.293 0.023 3 
0.478 -0.299 0.093 3 
0.478 -0.306 0.093 3 
0.478 -0.316 0.093 3 
0.48 -0.328 0.094 3 
0.479 -0.337 0.094 3 
0.481 -0.346 0.094 3 
0.48 -0.355 0.094 3 
0.465 0.247 0.088 3 
0.467 0.043 0.063 3 
0.465 0.212 0.082 3 
0.465 0.186 0.087 3 
0.464 0.183 0.084 3 
0.464 0.174 0.084 3 
0.462 0.334 0.054 3 
0.465 0.172 0.084 3 
0.472 -0.187 0.083 3 
0.465 0.152 0.084 3 
0.466 0.144 0.084 3 
0.466 0.133 0.084 3 
0.466 0.122 0.084 3 
0.466 0.114 0.084 3 
0.474 -0.355 0.079 3 
0.477 -0.298 0.084 3 
0.477 -0.315 0.084 3 
0.465 0.256 0.079 3 
0.465 0.244 0.079 3 
0.467 0.062 0.063 3 
0.464 0.22 0.079 3 
0.464 0.197 0.079 3 
0.475 -0.283 0.081 3 
0.48 -0.337 0.082 3 
0.48 -0.348 0.082 3 
0.478 -0.356 0.082 3 
0.474 -0.286 0.078 3 
0.475 -0.287 0.084 3 
0.463 0.339 0.074 3 
0.463 0.332 0.074 3 
0.464 0.323 0.074 3 
0.464 0.313 0.074 3 
0.463 0.302 0.074 3 
0.464 0.294 0.074 3 
0.464 0.284 0.074 3 
0.464 0.272 0.074 3 
0.465 0.262 0.074 3 
0.465 0.244 0.074 3 
0.465 0.232 0.074 3 
0.471 -0.147 0.083 3 
0.465 0.192 0.082 3 
0.467 -0.025 0.082 3 
0.467 -0.036 0.082 3 
0.468 -0.047 0.082 3 
0.468 -0.055 0.082 3 
0.468 -0.066 0.082 3 
0.468 -0.077 0.082 3 
0.468 -0.085 0.082 3 
0.469 -0.107 0.082 3 
0.469 -0.116 0.082 3 
0.468 -0.126 0.082 3 
0.465 0.212 0.112 3 
0.471 -0.155 0.083 3 
0.471 -0.166 0.083 3 
0.465 0.008 0.007 3 
0.471 -0.175 0.083 3 
0.473 -0.197 0.083 3 
0.473 -0.217 0.083 3 
0.473 -0.226 0.083 3 
0.473 -0.235 0.083 3 
0.473 -0.256 0.084 3 
0.473 -0.266 0.084 3 
0.462 0.142 0.014 3 
