# .PCD v0.7 - Point Cloud Data file
FIELDS x y z intensity
SIZE 4 4 4 4
TYPE F F F F
COUNT 1 1 1 1
WIDTH 2093
HEIGHT 1
VIEWPOINT 0 0 0 1 0 0 0
POINTS 2093
DATA ascii
0.353 -0.004 0 0 
0.356 -0.004 0.001 0 
0.259 -0.058 0.096 0 
0.251 -0.054 0.093 0 
0.244 -0.054 0.09 0 
0.253 -0.056 0.095 0 
0.249 -0.056 0.094 0 
0.244 -0.056 0.092 0 
0.234 -0.059 0.088 0 
0.255 -0.054 0.094 0 
0.327 -0.147 -0.005 1 
0.332 -0.005 -0.004 1 
0.325 0.016 -0.002 1 
0.333 0.018 -0.005 1 
0.354 0.079 -0.013 1 
0.357 0.092 -0.015 1 
0.355 0.098 -0.014 1 
0.353 0.124 -0.014 1 
0.351 0.158 -0.015 1 
0.353 0.184 -0.017 1 
0.347 0.194 -0.016 1 
0.341 0.202 -0.014 1 
0.329 -0.165 -0.005 1 
0.33 -0.155 -0.005 1 
0.313 -0.124 0.001 1 
0.28 -0.063 0.015 1 
0.283 -0.062 0.014 1 
0.305 -0.043 0.006 1 
0.339 -0.005 -0.005 1 
0.344 0.019 -0.007 1 
0.352 0.023 -0.01 1 
0.36 0.074 -0.014 1 
0.354 0.108 -0.012 1 
0.354 0.128 -0.013 1 
0.351 0.168 -0.014 1 
0.353 0.172 -0.015 1 
0.3 -0.111 0.008 1 
0.286 -0.094 0.013 1 
0.284 -0.085 0.014 1 
0.284 -0.082 0.014 1 
0.286 -0.062 0.014 1 
0.361 -0.015 -0.012 1 
0.315 0.004 0.004 1 
0.36 0.023 -0.011 1 
0.363 0.025 -0.012 1 
0.363 0.044 -0.013 1 
0.364 0.052 -0.013 1 
0.365 0.083 -0.014 1 
0.364 0.084 -0.014 1 
0.364 0.09 -0.014 1 
0.361 0.114 -0.013 1 
0.363 0.121 -0.014 1 
0.364 0.124 -0.015 1 
0.364 0.126 -0.015 1 
0.362 0.141 -0.014 1 
0.363 0.144 -0.015 1 
0.364 0.147 -0.015 1 
0.361 0.194 -0.017 1 
0.351 0.214 -0.015 1 
0.324 -0.149 0 1 
0.315 -0.132 0.003 1 
0.287 -0.098 0.014 1 
0.289 -0.025 0.014 1 
0.363 -0.026 -0.011 1 
0.357 -0.004 -0.008 1 
0.317 0.011 0.004 1 
0.373 0.026 -0.014 1 
0.372 0.043 -0.014 1 
0.372 0.054 -0.014 1 
0.373 0.083 -0.015 1 
0.371 0.091 -0.014 1 
0.373 0.094 -0.015 1 
0.373 0.104 -0.015 1 
0.371 0.112 -0.015 1 
0.369 0.113 -0.014 1 
0.371 0.124 -0.015 1 
0.37 0.131 -0.015 1 
0.362 0.174 -0.014 1 
0.362 0.178 -0.014 1 
0.36 0.201 -0.015 1 
0.359 0.22 -0.016 1 
0.288 -0.105 0.014 1 
0.294 -0.073 0.013 1 
0.296 -0.044 0.013 1 
0.292 -0.022 0.014 1 
0.373 -0.016 -0.012 1 
0.38 0.023 -0.015 1 
0.381 0.037 -0.015 1 
0.38 0.054 -0.015 1 
0.374 0.066 -0.013 1 
0.378 0.094 -0.015 1 
0.377 0.114 -0.015 1 
0.363 0.104 -0.016 1 
0.374 0.12 -0.014 1 
0.374 0.138 -0.015 1 
0.372 0.149 -0.014 1 
0.374 0.156 -0.015 1 
0.371 0.173 -0.015 1 
0.37 0.183 -0.015 1 
0.373 0.194 -0.017 1 
0.37 0.221 -0.017 1 
0.364 0.226 -0.015 1 
0.305 -0.13 0.009 1 
0.304 -0.126 0.01 1 
0.289 -0.108 0.015 1 
0.294 -0.075 0.014 1 
0.374 -0.027 -0.011 1 
0.314 -0.002 0.008 1 
0.384 0.024 -0.014 1 
0.383 0.033 -0.014 1 
0.384 0.043 -0.014 1 
0.382 0.074 -0.014 1 
0.383 0.078 -0.014 1 
0.384 0.081 -0.015 1 
0.386 0.084 -0.015 1 
0.384 0.099 -0.015 1 
0.38 0.121 -0.014 1 
0.382 0.124 -0.015 1 
0.381 0.132 -0.015 1 
0.38 0.138 -0.015 1 
0.38 0.163 -0.015 1 
0.374 0.209 -0.016 1 
0.308 -0.143 0.009 1 
0.302 -0.136 0.011 1 
0.298 -0.049 0.014 1 
0.293 -0.024 0.016 1 
0.3 -0.023 0.014 1 
0.405 -0.007 -0.019 1 
0.331 -0.004 0.004 1 
0.394 0.053 -0.015 1 
0.393 0.063 -0.015 1 
0.39 0.087 -0.015 1 
0.387 0.134 -0.015 1 
0.383 0.154 -0.014 1 
0.383 0.156 -0.014 1 
0.383 0.183 -0.015 1 
0.382 0.193 -0.015 1 
0.383 0.203 -0.016 1 
0.378 0.241 -0.016 1 
0.379 0.245 -0.017 1 
0.302 -0.075 0.014 1 
0.302 -0.055 0.014 1 
0.297 -0.024 0.016 1 
0.389 -0.035 -0.011 1 
0.383 -0.032 -0.01 1 
0.393 -0.025 -0.013 1 
0.393 -0.015 -0.013 1 
0.394 0.039 -0.013 1 
0.394 0.072 -0.014 1 
0.394 0.076 -0.014 1 
0.314 -0.043 0.003 1 
0.397 0.081 -0.015 1 
0.394 0.093 -0.014 1 
0.394 0.103 -0.014 1 
0.397 0.113 -0.015 1 
0.394 0.123 -0.014 1 
0.392 0.152 -0.015 1 
0.391 0.162 -0.015 1 
0.39 0.184 -0.015 1 
0.4 -0.016 -0.013 1 
0.394 -0.011 -0.011 1 
0.404 0.034 -0.014 1 
0.404 0.051 -0.014 1 
0.4 0.074 -0.013 1 
0.404 0.123 -0.015 1 
0.301 -0.025 0.014 1 
0.401 0.124 -0.014 1 
0.401 0.126 -0.015 1 
0.394 0.151 -0.013 1 
0.394 0.169 -0.014 1 
0.393 0.191 -0.014 1 
0.393 0.222 -0.015 1 
0.393 0.242 -0.016 1 
0.387 0.249 -0.015 1 
0.31 -0.059 0.014 1 
0.301 -0.051 0.017 1 
0.316 -0.027 0.013 1 
0.404 -0.035 -0.012 1 
0.4 -0.011 -0.011 1 
0.422 -0.008 -0.017 1 
0.409 0.044 -0.013 1 
0.41 0.053 -0.014 1 
0.412 0.069 -0.015 1 
0.416 0.102 -0.016 1 
0.411 0.104 -0.015 1 
0.409 0.124 -0.015 1 
0.402 0.134 -0.013 1 
0.403 0.143 -0.013 1 
0.403 0.154 -0.014 1 
0.401 0.162 -0.013 1 
0.403 0.178 -0.014 1 
0.403 0.181 -0.015 1 
0.404 0.191 -0.015 1 
0.401 0.193 -0.014 1 
0.397 0.214 -0.014 1 
0.401 0.233 -0.016 1 
0.404 0.241 -0.017 1 
0.398 0.263 -0.016 1 
0.304 -0.028 0.018 1 
0.425 -0.015 -0.016 1 
0.412 -0.012 -0.012 1 
0.413 0.073 -0.013 1 
0.413 0.094 -0.013 1 
0.41 0.104 -0.012 1 
0.412 0.112 -0.013 1 
0.404 0.223 -0.014 1 
0.409 0.243 -0.016 1 
0.318 -0.031 0.015 1 
0.413 -0.045 -0.01 1 
0.411 -0.043 -0.009 1 
0.396 0.102 -0.013 1 
0.416 -0.035 -0.011 1 
0.413 -0.025 -0.01 1 
0.422 -0.015 -0.012 1 
0.431 -0.008 -0.015 1 
0.349 -0.004 0.007 1 
0.424 0.06 -0.013 1 
0.42 0.073 -0.012 1 
0.427 0.099 -0.015 1 
0.421 0.104 -0.013 1 
0.423 0.124 -0.014 1 
0.414 0.133 -0.012 1 
0.414 0.136 -0.012 1 
0.413 0.154 -0.012 1 
0.411 0.162 -0.011 1 
0.414 0.194 -0.013 1 
0.398 0.059 -0.015 1 
0.41 0.213 -0.013 1 
0.414 0.229 -0.015 1 
0.415 0.233 -0.015 1 
0.416 0.244 -0.016 1 
0.415 0.251 -0.016 1 
0.414 0.253 -0.015 1 
0.412 0.27 -0.016 1 
0.423 -0.045 -0.01 1 
0.422 -0.026 -0.01 1 
0.431 -0.013 -0.013 1 
0.439 -0.009 -0.015 1 
0.422 0.083 -0.011 1 
0.308 -0.046 0.003 1 
0.423 0.088 -0.011 1 
0.423 0.109 -0.011 1 
0.421 0.154 -0.012 1 
0.423 0.193 -0.013 1 
0.42 0.203 -0.013 1 
0.42 0.251 -0.014 1 
0.419 0.261 -0.015 1 
0.418 0.271 -0.015 1 
0.418 0.283 -0.015 1 
0.351 0.154 -0.015 1 
0.397 0.204 -0.016 1 
0.431 -0.046 -0.01 1 
0.431 -0.037 -0.01 1 
0.434 0.043 -0.011 1 
0.434 0.053 -0.011 1 
0.432 0.074 -0.011 1 
0.429 0.083 -0.01 1 
0.434 0.094 -0.012 1 
0.429 0.112 -0.011 1 
0.428 0.143 -0.011 1 
0.423 0.173 -0.01 1 
0.424 0.181 -0.011 1 
0.423 0.214 -0.012 1 
0.423 0.221 -0.012 1 
0.424 0.228 -0.012 1 
0.424 0.241 -0.013 1 
0.424 0.272 -0.014 1 
0.425 0.287 -0.015 1 
0.424 0.289 -0.014 1 
0.424 0.044 -0.013 1 
0.443 -0.021 -0.011 1 
0.434 0.116 -0.009 1 
0.433 0.153 -0.01 1 
0.431 0.163 -0.01 1 
0.432 0.202 -0.011 1 
0.428 0.22 -0.01 1 
0.431 0.294 -0.014 1 
0.428 0.3 -0.013 1 
0.453 -0.055 -0.01 1 
0.423 0.053 -0.013 1 
0.443 -0.028 -0.008 1 
0.443 0.03 -0.008 1 
0.443 0.042 -0.008 1 
0.444 0.053 -0.009 1 
0.443 0.062 -0.009 1 
0.443 0.07 -0.009 1 
0.443 0.082 -0.009 1 
0.444 0.103 -0.009 1 
0.443 0.123 -0.009 1 
0.444 0.134 -0.01 1 
0.431 0.183 -0.008 1 
0.433 0.192 -0.008 1 
0.432 0.234 -0.009 1 
0.433 0.241 -0.01 1 
0.434 0.245 -0.01 1 
0.434 0.264 -0.011 1 
0.433 0.272 -0.011 1 
0.434 0.282 -0.011 1 
0.353 -0.041 0.014 1 
0.365 -0.04 0.011 1 
0.403 0.064 -0.014 1 
0.443 -0.036 -0.006 1 
0.454 -0.014 -0.008 1 
0.448 0.053 -0.007 1 
0.449 0.064 -0.007 1 
0.441 0.153 -0.007 1 
0.441 0.161 -0.007 1 
0.44 0.174 -0.007 1 
0.44 0.203 -0.008 1 
0.439 0.243 -0.009 1 
0.435 0.304 -0.01 1 
0.451 0.044 -0.008 1 
0.444 0.144 -0.007 1 
0.453 -0.027 -0.005 1 
0.354 0.002 0.015 1 
0.353 0.137 -0.015 1 
0.355 0.007 0.015 1 
0.394 0.039 -0.015 1 
0.35 0.012 0.016 1 
0.364 -0.01 -0.009 1 
0.36 0.014 0.014 1 
0.362 0.016 0.014 1 
0.45 0.028 -0.005 1 
0.458 0.042 -0.007 1 
0.373 0.024 -0.014 1 
0.455 0.07 -0.006 1 
0.453 0.072 -0.006 1 
0.453 0.093 -0.006 1 
0.453 0.104 -0.006 1 
0.452 0.122 -0.006 1 
0.454 0.133 -0.007 1 
0.447 0.153 -0.006 1 
0.445 0.161 -0.005 1 
0.444 0.192 -0.006 1 
0.444 0.274 -0.008 1 
0.444 0.283 -0.008 1 
0.443 0.288 -0.008 1 
0.439 0.312 -0.008 1 
0.462 -0.015 -0.005 1 
0.469 -0.007 -0.006 1 
0.36 0.002 0.016 1 
0.365 0.004 0.015 1 
0.367 -0.008 -0.008 1 
0.373 0.009 0.013 1 
0.38 -0.01 -0.011 1 
0.38 0.013 0.012 1 
0.411 0.113 -0.015 1 
0.442 0.027 -0.001 1 
0.46 0.056 -0.005 1 
0.457 0.113 -0.005 1 
0.457 0.124 -0.005 1 
0.458 0.143 -0.005 1 
0.455 0.152 -0.005 1 
0.454 0.154 -0.004 1 
0.451 0.164 -0.004 1 
0.455 0.18 -0.005 1 
0.393 0.227 -0.016 1 
0.453 0.184 -0.005 1 
0.454 0.193 -0.005 1 
0.455 0.2 -0.006 1 
0.453 0.204 -0.005 1 
0.454 0.213 -0.006 1 
0.453 0.224 -0.006 1 
0.452 0.243 -0.006 1 
0.45 0.253 -0.006 1 
0.45 0.262 -0.006 1 
0.449 0.273 -0.006 1 
0.449 0.282 -0.007 1 
0.443 0.316 -0.007 1 
0.453 -0.045 0 1 
0.454 -0.032 0 1 
0.465 -0.004 -0.003 1 
0.44 0.022 0.001 1 
0.453 0.165 -0.002 1 
0.456 0.273 -0.005 1 
0.455 0.285 -0.005 1 
0.452 0.294 -0.005 1 
0.451 0.302 -0.005 1 
0.447 0.321 -0.005 1 
0.453 -0.042 0.001 1 
0.452 0.003 0.001 1 
0.454 0.021 0.001 1 
0.459 -0.046 0.003 1 
0.463 -0.036 0.002 1 
0.474 -0.029 0 1 
0.47 -0.015 0.001 1 
0.458 0.013 0.003 1 
0.458 0.024 0.003 1 
0.465 0.032 0.002 1 
0.464 0.11 0.001 1 
0.465 0.201 0 1 
0.465 -0.009 0.004 1 
0.463 0.123 0.004 1 
0.46 0.133 0.004 1 
0.463 0.154 0.003 1 
0.461 0.164 0.004 1 
0.457 0.181 0.004 1 
0.459 0.191 0.003 1 
0.463 0.202 0.003 1 
0.462 0.222 0.002 1 
0.462 0.233 0.002 1 
0.466 0.298 0 1 
0.459 0.334 0 1 
0.453 0.187 0.007 1 
0.464 0.274 0.004 1 
0.465 0.281 0.003 1 
0.465 0.291 0.003 1 
0.464 0.293 0.003 1 
0.462 0.301 0.003 1 
0.463 0.311 0.003 1 
0.464 0.319 0.003 1 
0.465 0.304 0.006 1 
0.46 0.053 -0.005 1 
0.458 -0.014 -0.012 1 
0.37 0.018 0.012 1 
0.409 0.202 -0.012 1 
0.465 0.284 0.009 1 
0.457 0.134 -0.005 1 
0.465 0.288 0.009 1 
0.444 0.248 -0.007 1 
0.446 -0.046 -0.006 1 
0.4 0.268 -0.017 1 
0.434 0.134 -0.012 1 
0.442 0.263 -0.01 1 
0.414 0.117 -0.014 1 
0.373 0.236 -0.017 1 
0.394 0.174 -0.016 1 
0.321 -0.156 0.003 1 
0.38 0.033 -0.015 1 
0.414 0.181 -0.013 1 
0.452 0.143 -0.006 1 
0.353 0.044 -0.011 1 
0.429 0.174 -0.01 1 
0.392 0.214 -0.015 1 
0.41 0.196 -0.015 1 
0.393 0.261 -0.017 1 
0.39 0.104 -0.015 1 
0.464 0.241 0.004 1 
0.417 0.123 -0.015 1 
0.411 0.264 -0.015 1 
0.352 0.164 -0.014 1 
0.304 -0.109 0.004 1 
0.394 0.144 -0.013 1 
0.349 -0.029 -0.007 1 
0.393 0.161 -0.013 1 
0.353 0.029 -0.012 1 
0.285 -0.096 0.016 1 
0.45 0.314 -0.005 1 
0.456 0.283 -0.005 1 
0.39 0.034 -0.014 1 
0.354 0.054 -0.013 1 
0.413 0.062 -0.015 1 
0.442 0.213 -0.008 1 
0.361 0.133 -0.014 1 
0.411 0.064 -0.014 1 
0.442 -0.046 -0.01 1 
0.464 0.094 0.004 1 
0.414 0.284 -0.017 1 
0.348 -0.006 -0.007 1 
0.454 -0.024 -0.006 1 
0.352 0.204 -0.016 1 
0.401 0.21 -0.015 1 
0.374 0.064 -0.013 1 
0.372 0.204 -0.017 1 
0.455 0.191 -0.006 1 
0.464 0.214 0.002 1 
0.465 0.324 0.002 1 
0.388 0.119 -0.015 1 
0.35 0.104 -0.013 1 
0.46 0.003 0.003 1 
0.413 0.221 -0.014 1 
0.463 -0.025 0.002 1 
0.382 0.064 -0.014 1 
0.354 0.073 -0.013 1 
0.389 0.204 -0.016 1 
0.464 0.032 0.004 1 
0.378 0.017 0.012 1 
0.368 0.134 -0.014 1 
0.423 0.133 -0.012 1 
0.424 0.292 -0.015 1 
0.362 0.163 -0.015 1 
0.413 0.174 -0.013 1 
0.425 0.284 -0.015 1 
0.462 0.142 0.004 1 
0.452 0.114 -0.006 1 
0.382 0.143 -0.013 1 
0.39 0.114 -0.015 1 
0.462 0.173 0.003 1 
0.306 -0.064 0.004 1 
0.464 0.102 0.004 1 
0.295 -0.115 0.012 1 
0.305 -0.045 0.006 1 
0.465 0.209 0.005 1 
0.444 0.09 -0.009 1 
0.284 -0.065 0.015 1 
0.364 0.169 -0.015 1 
0.399 0.052 -0.015 1 
0.466 0.204 0.005 1 
0.455 0.083 -0.006 1 
0.38 0.133 -0.014 1 
0.423 0.143 -0.012 1 
0.425 0.296 -0.015 1 
0.418 0.263 -0.014 1 
0.401 0.111 -0.014 1 
0.449 -0.037 -0.005 1 
0.461 0.253 0.002 1 
0.371 0.033 -0.015 1 
0.464 -0.007 0 1 
0.411 0.033 -0.014 1 
0.406 0.054 -0.015 1 
0.363 0.213 -0.016 1 
0.463 0.264 0.004 1 
0.318 -0.139 0.003 1 
0.453 0.013 0.001 1 
0.38 -0.016 -0.013 1 
0.424 0.277 -0.014 1 
0.364 0.182 -0.015 1 
0.433 0.104 -0.011 1 
0.373 0.233 -0.017 1 
0.43 -0.027 -0.007 1 
0.394 0.129 -0.012 1 
0.443 0.113 -0.009 1 
0.434 0.029 -0.009 1 
0.385 0.045 -0.014 1 
0.403 0.174 -0.014 1 
0.449 0.079 -0.005 1 
0.326 -0.153 0 1 
0.383 0.217 -0.017 1 
0.318 0.015 0.004 1 
0.364 -0.04 0.013 1 
0.37 0.037 -0.015 1 
0.379 0.052 -0.014 1 
0.361 0.063 -0.014 1 
0.4 0.082 -0.013 1 
0.354 -0.016 -0.011 1 
0.411 0.084 -0.012 1 
0.359 0.164 -0.014 1 
0.465 0.269 0.009 1 
0.4 0.252 -0.016 1 
0.464 0.277 0.004 1 
0.463 0.083 0.004 1 
0.292 -0.04 0.014 1 
0.371 0.144 -0.014 1 
0.404 -0.027 -0.012 1 
0.308 -0.065 0.014 1 
0.404 0.043 -0.014 1 
0.304 -0.074 0.015 1 
0.381 0.211 -0.016 1 
0.424 0.028 -0.011 1 
0.404 0.203 -0.013 1 
0.429 0.213 -0.01 1 
0.443 0.222 -0.009 1 
0.328 -0.16 -0.003 1 
0.379 0.056 -0.015 1 
0.466 0.114 0.003 1 
0.461 0.032 -0.005 1 
0.373 0.153 -0.015 1 
0.384 0.233 -0.018 1 
0.414 0.227 -0.014 1 
0.383 0.092 -0.014 1 
0.454 -0.009 -0.016 1 
0.442 0.232 -0.009 1 
0.395 0.025 -0.015 1 
0.453 0.173 -0.005 1 
0.327 -0.028 0.008 1 
0.38 0.174 -0.016 1 
0.39 0.194 -0.016 1 
0.307 -0.026 0.014 1 
0.413 -0.023 -0.01 1 
0.304 -0.074 0.014 1 
0.411 0.182 -0.015 1 
0.431 -0.023 -0.01 1 
0.433 0.062 -0.011 1 
0.465 -0.015 -0.008 1 
0.283 -0.069 0.014 1 
0.419 0.163 -0.012 1 
0.4 0.093 -0.014 1 
0.354 0.217 -0.014 1 
0.454 0.233 -0.006 1 
0.41 0.193 -0.015 1 
0.443 0.183 -0.005 1 
0.465 0.121 0.004 1 
0.303 -0.08 0.035 2 
0.233 -0.056 0.074 2 
0.274 -0.035 0.037 2 
0.306 -0.057 0.007 2 
0.227 -0.06 0.084 2 
0.285 -0.043 0.011 2 
0.314 -0.071 0.019 2 
0.354 -0.041 0.017 2 
0.244 -0.054 0.049 2 
0.305 -0.072 0.035 2 
0.226 -0.065 0.084 2 
0.255 -0.078 0.044 2 
0.315 -0.077 0.031 2 
0.312 -0.076 0.035 2 
0.276 -0.055 0.037 2 
0.275 -0.054 0.037 2 
0.357 -0.043 0.019 2 
0.244 -0.085 0.054 2 
0.29 -0.077 0.037 2 
0.282 -0.068 0.038 2 
0.285 -0.069 0.038 2 
0.275 -0.035 0.046 2 
0.264 -0.091 0.029 2 
0.245 -0.065 0.06 2 
0.316 -0.037 0.017 2 
0.239 -0.053 0.06 2 
0.259 -0.043 0.074 2 
0.224 -0.064 0.084 2 
0.224 -0.065 0.084 2 
0.257 -0.045 0.074 2 
0.284 -0.09 0.03 2 
0.29 -0.085 0.029 2 
0.294 -0.081 0.029 2 
0.315 -0.073 0.037 2 
0.3 -0.085 0.015 2 
0.269 -0.036 0.061 2 
0.304 -0.08 0.029 2 
0.353 -0.049 0.036 2 
0.319 -0.081 0.029 2 
0.314 -0.077 0.03 2 
0.311 -0.074 0.03 2 
0.314 -0.066 0.014 2 
0.361 -0.051 0.037 2 
0.236 -0.056 0.074 2 
0.254 -0.089 0.044 2 
0.266 -0.043 0.081 2 
0.354 -0.038 0.012 2 
0.279 -0.033 0.03 2 
0.269 -0.045 0.039 2 
0.231 -0.075 0.064 2 
0.236 -0.057 0.084 2 
0.277 -0.048 0.029 2 
0.311 -0.032 0.004 2 
0.262 -0.085 0.043 2 
0.267 -0.087 0.043 2 
0.255 -0.072 0.043 2 
0.255 -0.055 0.057 2 
0.255 -0.048 0.07 2 
0.241 -0.056 0.064 2 
0.237 -0.065 0.064 2 
0.235 -0.075 0.064 2 
0.32 -0.072 0.029 2 
0.251 -0.049 0.051 2 
0.262 -0.044 0.064 2 
0.261 -0.045 0.064 2 
0.246 -0.055 0.063 2 
0.24 -0.054 0.07 2 
0.273 -0.035 0.058 2 
0.268 -0.095 0.02 2 
0.265 -0.045 0.06 2 
0.248 -0.076 0.046 2 
0.247 -0.051 0.084 2 
0.274 -0.034 0.056 2 
0.272 -0.108 0.028 2 
0.264 -0.057 0.04 2 
0.28 -0.125 0.008 2 
0.224 -0.068 0.074 2 
0.226 -0.068 0.074 2 
0.259 -0.044 0.083 2 
0.264 -0.093 0.019 2 
0.244 -0.084 0.054 2 
0.252 -0.084 0.039 2 
0.254 -0.085 0.039 2 
0.264 -0.088 0.039 2 
0.274 -0.089 0.039 2 
0.287 -0.087 0.038 2 
0.283 -0.083 0.039 2 
0.267 -0.066 0.039 2 
0.271 -0.055 0.039 2 
0.273 -0.035 0.047 2 
0.274 -0.034 0.047 2 
0.276 -0.034 0.047 2 
0.279 -0.086 0.04 2 
0.265 -0.055 0.041 2 
0.328 -0.073 0.006 2 
0.279 -0.09 0.041 2 
0.267 -0.078 0.041 2 
0.304 -0.057 0.006 2 
0.235 -0.065 0.066 2 
0.231 -0.075 0.066 2 
0.246 -0.05 0.074 2 
0.288 -0.128 0.022 2 
0.28 -0.119 0.025 2 
0.277 -0.112 0.026 2 
0.324 -0.073 0.019 2 
0.355 -0.045 0.019 2 
0.276 -0.095 0.008 2 
0.354 -0.046 0.02 2 
0.275 -0.035 0.037 2 
0.274 -0.091 0.029 2 
0.282 -0.084 0.016 2 
0.258 -0.105 0.028 2 
0.271 -0.095 0.018 2 
0.274 -0.095 0.009 2 
0.319 -0.075 0.029 2 
0.28 -0.037 0.018 2 
0.274 -0.094 0.01 2 
0.288 -0.045 0.008 2 
0.282 -0.03 0.009 2 
0.249 -0.095 0.037 2 
0.294 -0.028 0.007 2 
0.294 -0.082 0.008 2 
0.285 -0.029 0.011 2 
0.342 -0.042 0.01 2 
0.304 -0.078 0.009 2 
0.294 -0.085 0.009 2 
0.284 -0.087 0.009 2 
0.254 -0.095 0.034 2 
0.255 -0.095 0.034 2 
0.297 -0.085 0.009 2 
0.352 -0.044 0.021 2 
0.313 -0.075 0.019 2 
0.244 -0.09 0.044 2 
0.294 -0.083 0.02 2 
0.284 -0.086 0.019 2 
0.282 -0.032 0.02 2 
0.361 -0.037 0.013 2 
0.284 -0.084 0.004 2 
0.302 -0.082 0.019 2 
0.28 -0.045 0.019 2 
0.274 -0.092 0.02 2 
0.343 -0.042 0.015 2 
0.366 -0.037 0.032 2 
0.289 -0.085 0.019 2 
0.31 -0.075 0.01 2 
0.277 -0.04 0.021 2 
0.464 -0.014 0.087 3 
0.462 0.083 0.143 3 
0.463 0.073 0.143 3 
0.464 0.054 0.143 3 
0.463 0.062 0.143 3 
0.465 0.057 0.144 3 
0.462 -0.017 0.142 3 
0.462 0.094 0.143 3 
0.464 0.014 0.103 3 
0.465 0.1 0.144 3 
0.464 0.103 0.144 3 
0.466 0.112 0.144 3 
0.466 0.115 0.144 3 
0.466 0.134 0.144 3 
0.465 0.142 0.144 3 
0.464 0.144 0.144 3 
0.465 0.147 0.144 3 
0.462 0.151 0.143 3 
0.463 0.163 0.144 3 
0.468 -0.107 0.142 3 
0.465 -0.125 0.142 3 
0.464 -0.125 0.144 3 
0.465 0.205 0.143 3 
0.462 0.232 0.142 3 
0.462 0.238 0.143 3 
0.465 0.243 0.144 3 
0.466 0.203 0.143 3 
0.466 0.19 0.142 3 
0.464 0.133 0.141 3 
0.465 0.249 0.144 3 
0.466 0.262 0.144 3 
0.463 0.122 0.141 3 
0.464 0.114 0.141 3 
0.465 0.052 0.141 3 
0.464 -0.052 0.14 3 
0.467 0.322 0.152 3 
0.464 0.108 0.073 3 
0.463 0.033 0.143 3 
0.464 -0.122 0.144 3 
0.466 -0.12 0.144 3 
0.466 -0.079 0.144 3 
0.464 -0.076 0.143 3 
0.464 -0.065 0.143 3 
0.468 -0.085 0.142 3 
0.465 -0.055 0.143 3 
0.465 -0.047 0.143 3 
0.463 -0.036 0.143 3 
0.462 -0.025 0.142 3 
0.461 0.214 0.142 3 
0.463 -0.006 0.143 3 
0.462 0.003 0.143 3 
0.46 0.014 0.142 3 
0.462 0.024 0.143 3 
0.466 0.212 0.154 3 
0.46 -0.025 0.152 3 
0.462 -0.036 0.153 3 
0.464 -0.046 0.154 3 
0.463 0.08 0.052 3 
0.465 -0.074 0.154 3 
0.462 -0.138 0.154 3 
0.462 0.241 0.154 3 
0.462 0.232 0.154 3 
0.463 0.224 0.154 3 
0.465 0.217 0.154 3 
0.465 -0.02 0.154 3 
0.467 0.201 0.154 3 
0.466 0.191 0.154 3 
0.464 0.181 0.153 3 
0.463 0.172 0.152 3 
0.464 0.164 0.152 3 
0.465 0.162 0.153 3 
0.465 0.142 0.152 3 
0.465 0.122 0.055 3 
0.466 0.134 0.153 3 
0.462 0.193 0.114 3 
0.465 0.1 0.065 3 
0.464 0.103 0.154 3 
0.464 0.092 0.154 3 
0.46 0.08 0.153 3 
0.465 0.076 0.154 3 
0.464 0.073 0.154 3 
0.462 0.337 0.054 3 
0.465 0.063 0.154 3 
0.464 0.064 0.073 3 
0.463 -0.017 0.071 3 
0.468 0.124 0.153 3 
0.463 0.054 0.154 3 
0.463 0.043 0.154 3 
0.464 0.022 0.154 3 
0.465 0.017 0.154 3 
0.465 0.001 0.154 3 
0.464 -0.004 0.154 3 
0.463 -0.006 0.154 3 
0.465 0.032 0.092 3 
0.463 -0.017 0.153 3 
0.463 0.341 0.152 3 
0.466 0.311 0.154 3 
0.465 0.303 0.154 3 
0.468 0.293 0.154 3 
0.469 0.278 0.154 3 
0.467 0.264 0.153 3 
0.465 0.253 0.152 3 
0.464 0.249 0.152 3 
0.465 0.173 0.15 3 
0.462 0.149 0.149 3 
0.463 0.144 0.149 3 
0.464 -0.133 0.152 3 
0.466 0.334 0.152 3 
0.462 0.202 0.114 3 
0.464 0.213 0.148 3 
0.465 0.103 0.147 3 
0.464 0.062 0.146 3 
0.465 -0.006 0.146 3 
0.467 0.335 0.15 3 
0.46 0.222 0.144 3 
0.464 0.175 0.144 3 
0.466 -0.055 0.152 3 
0.465 0.032 0.06 3 
0.466 0.112 0.152 3 
0.465 0.073 0.152 3 
0.466 0.052 0.152 3 
0.465 0.027 0.152 3 
0.465 0.014 0.152 3 
0.463 0.009 0.151 3 
0.465 -0.047 0.151 3 
0.466 0.313 0.134 3 
0.464 0.172 0.144 3 
0.463 0.332 0.062 3 
0.464 -0.065 0.151 3 
0.464 -0.076 0.151 3 
0.467 -0.08 0.152 3 
0.469 -0.086 0.153 3 
0.469 -0.097 0.153 3 
0.469 -0.105 0.153 3 
0.469 -0.116 0.154 3 
0.467 -0.126 0.153 3 
0.465 0.046 0.13 3 
0.465 0.035 0.122 3 
0.46 0.133 0.023 3 
0.466 0.25 0.133 3 
0.465 0.243 0.132 3 
0.465 0.164 0.131 3 
0.465 0.106 0.13 3 
0.464 0.043 0.122 3 
0.465 0.103 0.13 3 
0.464 0.073 0.13 3 
0.466 0.123 0.122 3 
0.461 -0.038 0.121 3 
0.464 0.03 0.13 3 
0.463 -0.038 0.129 3 
0.464 -0.046 0.13 3 
0.464 -0.076 0.13 3 
0.465 0.13 0.122 3 
0.465 0.339 0.132 3 
0.464 0.288 0.13 3 
0.464 0.245 0.129 3 
0.463 0.179 0.052 3 
0.465 0.128 0.128 3 
0.465 0.329 0.134 3 
0.464 -0.065 0.132 3 
0.466 -0.076 0.133 3 
0.466 -0.052 0.122 3 
0.47 -0.086 0.134 3 
0.464 -0.046 0.122 3 
0.47 -0.102 0.134 3 
0.467 -0.115 0.134 3 
0.464 -0.119 0.133 3 
0.46 0.337 0.134 3 
0.46 0.334 0.134 3 
0.464 -0.114 0.128 3 
0.466 0.316 0.134 3 
0.466 0.343 0.123 3 
0.464 0.301 0.133 3 
0.465 0.299 0.134 3 
0.465 0.293 0.133 3 
0.465 0.311 0.074 3 
0.466 0.284 0.133 3 
0.467 0.272 0.133 3 
0.467 0.263 0.133 3 
0.464 0.276 0.124 3 
0.461 0.219 0.123 3 
0.464 -0.046 0.114 3 
0.463 0.229 0.123 3 
0.463 0.014 0.124 3 
0.462 0.003 0.124 3 
0.464 0.242 0.124 3 
0.465 0.186 0.063 3 
0.466 0.253 0.124 3 
0.466 0.259 0.124 3 
0.465 0.273 0.124 3 
0.463 0.022 0.124 3 
0.464 0.285 0.124 3 
0.462 -0.006 0.124 3 
0.463 -0.017 0.124 3 
0.467 0.303 0.094 3 
0.464 -0.025 0.124 3 
0.465 -0.028 0.124 3 
0.465 -0.039 0.124 3 
0.464 -0.062 0.124 3 
0.464 -0.065 0.124 3 
0.466 -0.068 0.125 3 
0.463 0.113 0.124 3 
0.464 0.147 0.122 3 
0.466 0.153 0.123 3 
0.464 0.155 0.122 3 
0.465 0.164 0.123 3 
0.462 0.143 0.124 3 
0.465 0.167 0.123 3 
0.464 0.172 0.122 3 
0.461 0.131 0.124 3 
0.462 0.182 0.122 3 
0.461 0.123 0.124 3 
0.464 -0.062 0.132 3 
0.463 0.102 0.124 3 
0.461 0.193 0.122 3 
0.464 0.092 0.124 3 
0.463 0.083 0.124 3 
0.463 0.073 0.124 3 
0.464 0.062 0.124 3 
0.463 0.054 0.124 3 
0.461 0.204 0.122 3 
0.463 0.025 0.124 3 
0.458 0.214 0.133 3 
0.465 0.003 0.135 3 
0.462 -0.001 0.134 3 
0.461 -0.009 0.134 3 
0.465 0.133 0.044 3 
0.461 -0.017 0.134 3 
0.463 0.239 0.134 3 
0.464 0.251 0.115 3 
0.465 0.011 0.058 3 
0.461 0.234 0.134 3 
0.46 0.224 0.133 3 
0.459 0.022 0.134 3 
0.458 0.203 0.133 3 
0.463 0.194 0.133 3 
0.465 0.19 0.134 3 
0.464 0.183 0.134 3 
0.465 0.262 0.054 3 
0.463 0.174 0.133 3 
0.462 0.162 0.133 3 
0.461 0.154 0.132 3 
0.462 0.143 0.133 3 
0.465 -0.02 0.119 3 
0.469 0.284 0.143 3 
0.468 0.333 0.144 3 
0.467 0.321 0.143 3 
0.478 0.311 0.197 3 
0.466 0.313 0.143 3 
0.464 0.314 0.125 3 
0.465 0.022 0.116 3 
0.465 0.033 0.116 3 
0.465 0.175 0.117 3 
0.466 0.304 0.143 3 
0.468 0.293 0.143 3 
0.461 0.134 0.132 3 
0.467 -0.015 0.084 3 
0.468 0.273 0.142 3 
0.465 0.147 0.063 3 
0.464 0.186 0.139 3 
0.465 0.033 0.138 3 
0.465 -0.065 0.138 3 
0.465 0.019 0.103 3 
0.464 0.341 0.12 3 
0.463 0.334 0.14 3 
0.464 0.043 0.132 3 
0.464 -0.108 0.122 3 
0.465 0.073 0.133 3 
0.466 -0.106 0.123 3 
0.468 -0.096 0.123 3 
0.464 0.062 0.132 3 
0.469 -0.085 0.123 3 
0.465 -0.076 0.122 3 
0.463 0.054 0.132 3 
0.465 -0.071 0.122 3 
0.464 -0.015 0.052 3 
0.468 0.332 0.124 3 
0.464 0.243 0.063 3 
0.466 0.041 0.133 3 
0.465 0.033 0.133 3 
0.461 0.014 0.132 3 
0.465 -0.03 0.133 3 
0.465 0.258 0.113 3 
0.466 -0.036 0.133 3 
0.465 -0.055 0.122 3 
0.467 -0.047 0.133 3 
0.466 -0.055 0.133 3 
0.465 0.286 0.122 3 
0.465 0.114 0.119 3 
0.466 0.239 0.082 3 
0.462 0.124 0.132 3 
0.462 0.113 0.132 3 
0.465 0.24 0.121 3 
0.464 0.103 0.133 3 
0.464 -0.041 0.09 3 
0.463 0.092 0.132 3 
0.464 0.272 0.121 3 
0.465 0.28 0.122 3 
0.466 0.341 0.144 3 
0.465 0.147 0.084 3 
0.462 0.302 0.122 3 
0.465 0.087 0.133 3 
0.464 0.084 0.133 3 
0.465 0.079 0.133 3 
0.467 -0.007 0.084 3 
0.464 0.307 0.122 3 
0.465 0.312 0.122 3 
0.467 0.324 0.123 3 
0.464 0.022 0.178 3 
0.468 0.247 0.184 3 
0.468 0.244 0.184 3 
0.471 0.201 0.184 3 
0.465 0.038 0.103 3 
0.468 0.193 0.183 3 
0.468 0.173 0.182 3 
0.466 -0.165 0.173 3 
0.471 0.163 0.183 3 
0.471 0.154 0.183 3 
0.462 0.203 0.139 3 
0.474 0.311 0.19 3 
0.464 0.014 0.178 3 
0.47 -0.097 0.181 3 
0.462 0.043 0.143 3 
0.472 -0.106 0.182 3 
0.475 -0.113 0.184 3 
0.476 -0.116 0.184 3 
0.474 -0.127 0.184 3 
0.475 -0.13 0.184 3 
0.474 -0.135 0.184 3 
0.475 -0.147 0.184 3 
0.468 -0.036 0.183 3 
0.465 0.022 0.182 3 
0.466 0.014 0.182 3 
0.462 0.301 0.082 3 
0.467 0.003 0.182 3 
0.466 0.251 0.074 3 
0.463 0.043 0.052 3 
0.47 -0.007 0.184 3 
0.47 -0.015 0.184 3 
0.468 -0.026 0.183 3 
0.467 -0.036 0.174 3 
0.474 -0.15 0.184 3 
0.471 -0.045 0.184 3 
0.466 -0.055 0.063 3 
0.47 -0.056 0.184 3 
0.464 -0.076 0.181 3 
0.465 -0.079 0.182 3 
0.463 0.303 0.113 3 
0.466 -0.085 0.182 3 
0.474 -0.107 0.186 3 
0.476 0.349 0.193 3 
0.476 0.316 0.191 3 
0.465 0.141 0.122 3 
0.468 0.347 0.184 3 
0.465 -0.007 0.063 3 
0.473 0.34 0.185 3 
0.474 0.334 0.185 3 
0.475 0.321 0.184 3 
0.473 0.313 0.183 3 
0.464 0.294 0.091 3 
0.469 0.302 0.181 3 
0.465 0.109 0.174 3 
0.466 0.104 0.174 3 
0.472 -0.117 0.18 3 
0.464 0.101 0.173 3 
0.466 0.271 0.094 3 
0.463 0.092 0.173 3 
0.465 0.084 0.174 3 
0.467 0.074 0.174 3 
0.467 0.06 0.174 3 
0.466 0.052 0.174 3 
0.465 0.224 0.052 3 
0.465 0.044 0.173 3 
0.464 0.31 0.085 3 
0.471 0.304 0.185 3 
0.464 0.197 0.033 3 
0.473 -0.155 0.184 3 
0.474 -0.167 0.184 3 
0.474 -0.17 0.185 3 
0.47 -0.176 0.183 3 
0.462 0.242 0.093 3 
0.462 0.224 0.043 3 
0.463 0.162 0.084 3 
0.475 0.332 0.188 3 
0.464 0.312 0.014 3 
0.47 0.034 0.184 3 
0.463 0.182 0.114 3 
0.471 0.291 0.184 3 
0.471 0.284 0.184 3 
0.47 0.271 0.183 3 
0.47 0.264 0.183 3 
0.471 0.234 0.182 3 
0.471 0.222 0.182 3 
0.463 0.083 0.073 3 
0.469 0.212 0.181 3 
0.462 0.214 0.123 3 
0.472 0.053 0.187 3 
0.466 0.282 0.174 3 
0.466 0.104 0.185 3 
0.463 0.084 0.159 3 
0.463 0.095 0.184 3 
0.465 0.093 0.185 3 
0.464 0.09 0.184 3 
0.467 0.151 0.153 3 
0.464 0.084 0.184 3 
0.465 0.244 0.149 3 
0.468 0.063 0.186 3 
0.467 0.113 0.186 3 
0.474 0.042 0.188 3 
0.473 0.034 0.188 3 
0.467 0.022 0.185 3 
0.468 0.014 0.186 3 
0.47 0.003 0.186 3 
0.472 -0.007 0.187 3 
0.47 -0.015 0.186 3 
0.469 -0.026 0.186 3 
0.467 -0.036 0.185 3 
0.47 -0.045 0.187 3 
0.468 0.191 0.188 3 
0.475 0.298 0.195 3 
0.47 0.265 0.192 3 
0.471 0.259 0.192 3 
0.469 0.254 0.191 3 
0.471 0.244 0.191 3 
0.469 0.233 0.19 3 
0.472 0.223 0.191 3 
0.465 -0.044 0.138 3 
0.471 0.213 0.19 3 
0.471 0.201 0.19 3 
0.469 -0.056 0.186 3 
0.467 0.181 0.188 3 
0.468 0.173 0.188 3 
0.471 0.163 0.189 3 
0.47 0.154 0.188 3 
0.464 0.284 0.093 3 
0.468 0.144 0.187 3 
0.469 0.133 0.187 3 
0.462 0.064 0.113 3 
0.467 0.121 0.186 3 
0.465 0.074 0.185 3 
0.466 0.132 0.183 3 
0.469 -0.185 0.189 3 
0.477 0.336 0.196 3 
0.475 0.305 0.193 3 
0.475 0.302 0.192 3 
0.465 0.234 0.124 3 
0.473 0.29 0.191 3 
0.474 0.284 0.191 3 
0.475 0.282 0.192 3 
0.465 0.18 0.184 3 
0.468 0.144 0.184 3 
0.474 -0.176 0.19 3 
0.468 0.124 0.184 3 
0.47 -0.105 0.134 3 
0.468 0.113 0.184 3 
0.466 0.101 0.183 3 
0.464 0.073 0.181 3 
0.465 0.071 0.182 3 
0.466 0.063 0.182 3 
0.47 0.053 0.184 3 
0.471 0.042 0.184 3 
0.465 0.114 0.163 3 
0.478 -0.126 0.191 3 
0.466 -0.066 0.185 3 
0.465 0.214 0.171 3 
0.465 -0.074 0.184 3 
0.465 -0.077 0.185 3 
0.468 0.132 0.164 3 
0.467 -0.085 0.186 3 
0.471 -0.098 0.187 3 
0.475 -0.104 0.189 3 
0.475 -0.107 0.189 3 
0.477 -0.117 0.19 3 
0.465 0.033 0.173 3 
0.465 -0.044 0.151 3 
0.477 -0.137 0.191 3 
0.463 0.033 0.154 3 
0.461 0.093 0.103 3 
0.477 -0.145 0.191 3 
0.478 -0.155 0.192 3 
0.468 0.342 0.183 3 
0.48 -0.165 0.193 3 
0.466 -0.066 0.074 3 
0.477 -0.175 0.192 3 
0.469 -0.055 0.164 3 
0.464 0.057 0.162 3 
0.465 0.014 0.162 3 
0.467 0.003 0.163 3 
0.466 -0.006 0.163 3 
0.466 -0.015 0.163 3 
0.466 -0.025 0.163 3 
0.464 -0.03 0.162 3 
0.463 -0.036 0.162 3 
0.465 0.244 0.163 3 
0.466 -0.047 0.163 3 
0.465 0.221 0.115 3 
0.466 -0.066 0.163 3 
0.462 0.292 0.113 3 
0.464 -0.073 0.162 3 
0.465 -0.076 0.163 3 
0.467 -0.085 0.163 3 
0.467 -0.096 0.164 3 
0.465 0.113 0.041 3 
0.466 -0.107 0.163 3 
0.463 0.282 0.023 3 
0.466 -0.115 0.164 3 
0.467 0.154 0.164 3 
0.472 0.331 0.172 3 
0.464 0.243 0.166 3 
0.467 0.183 0.151 3 
0.464 0.219 0.165 3 
0.464 0.19 0.164 3 
0.463 0.181 0.164 3 
0.464 0.173 0.164 3 
0.465 0.171 0.164 3 
0.466 0.162 0.164 3 
0.465 -0.036 0.103 3 
0.467 -0.126 0.164 3 
0.464 -0.063 0.143 3 
0.466 0.143 0.164 3 
0.468 0.124 0.164 3 
0.464 0.111 0.163 3 
0.464 0.103 0.163 3 
0.465 0.101 0.163 3 
0.465 0.09 0.163 3 
0.465 0.084 0.163 3 
0.469 0.074 0.164 3 
0.467 0.063 0.163 3 
0.468 0.271 0.154 3 
0.465 0.341 0.164 3 
0.468 0.32 0.164 3 
0.468 0.313 0.164 3 
0.464 0.302 0.162 3 
0.465 0.3 0.162 3 
0.465 0.294 0.162 3 
0.465 0.262 0.063 3 
0.471 0.283 0.164 3 
0.472 0.271 0.164 3 
0.469 0.263 0.162 3 
0.463 0.342 0.164 3 
0.464 0.246 0.16 3 
0.465 0.214 0.16 3 
0.465 0.182 0.159 3 
0.465 0.017 0.157 3 
0.464 -0.004 0.157 3 
0.464 -0.006 0.157 3 
0.465 -0.036 0.157 3 
0.462 -0.076 0.156 3 
0.469 0.331 0.162 3 
0.464 0.108 0.154 3 
0.462 0.203 0.161 3 
0.467 -0.138 0.164 3 
0.465 -0.145 0.164 3 
0.464 -0.147 0.163 3 
0.467 0.252 0.164 3 
0.464 0.24 0.163 3 
0.464 0.234 0.163 3 
0.465 0.232 0.163 3 
0.465 0.223 0.163 3 
0.464 0.219 0.162 3 
0.463 0.213 0.162 3 
0.437 -0.144 0.157 3 
0.465 0.2 0.162 3 
0.465 0.191 0.162 3 
0.464 0.164 0.161 3 
0.464 0.153 0.161 3 
0.463 0.144 0.16 3 
0.464 0.117 0.16 3 
0.464 0.073 0.16 3 
0.465 0.038 0.16 3 
0.464 -0.046 0.159 3 
0.464 -0.142 0.161 3 
0.465 0.003 0.095 3 
0.471 0.134 0.174 3 
0.471 0.123 0.174 3 
0.469 -0.096 0.142 3 
0.465 0.093 0.171 3 
0.463 0.049 0.17 3 
0.463 0.043 0.17 3 
0.469 -0.007 0.172 3 
0.464 -0.028 0.17 3 
0.464 -0.038 0.17 3 
0.47 -0.056 0.172 3 
0.469 0.144 0.173 3 
0.469 -0.086 0.172 3 
0.469 -0.097 0.173 3 
0.469 -0.105 0.173 3 
0.462 0.243 0.104 3 
0.468 -0.116 0.173 3 
0.47 -0.125 0.173 3 
0.472 -0.137 0.174 3 
0.47 -0.148 0.174 3 
0.467 -0.157 0.173 3 
0.464 -0.161 0.172 3 
0.467 -0.069 0.174 3 
0.465 0.052 0.163 3 
0.463 0.027 0.173 3 
0.463 0.022 0.173 3 
0.463 0.014 0.173 3 
0.466 0.006 0.174 3 
0.467 0.003 0.174 3 
0.467 -0.023 0.174 3 
0.467 -0.025 0.174 3 
0.463 0.102 0.012 3 
0.468 -0.047 0.174 3 
0.474 0.334 0.179 3 
0.461 0.212 0.014 3 
0.467 -0.077 0.174 3 
0.474 0.324 0.181 3 
0.464 0.284 0.176 3 
0.468 0.193 0.174 3 
0.463 0.273 0.032 3 
0.467 0.184 0.174 3 
0.467 0.172 0.173 3 
0.468 0.164 0.174 3 
0.47 0.153 0.174 3 
0.464 0.176 0.167 3 
0.464 -0.111 0.168 3 
0.465 0.022 0.074 3 
0.462 -0.152 0.168 3 
0.466 0.346 0.174 3 
0.469 0.342 0.174 3 
0.472 0.321 0.174 3 
0.47 0.312 0.173 3 
0.464 0.293 0.17 3 
0.463 0.283 0.17 3 
0.461 -0.025 0.013 3 
0.464 0.106 0.168 3 
0.464 0.164 0.166 3 
0.462 0.094 0.164 3 
0.464 0.057 0.165 3 
0.462 0.049 0.164 3 
0.463 0.038 0.164 3 
0.462 0.033 0.164 3 
0.46 0.022 0.163 3 
0.463 0.014 0.164 3 
0.464 0.2 0.084 3 
0.464 -0.071 0.165 3 
0.463 -0.046 0.09 3 
0.466 0.299 0.174 3 
0.466 0.292 0.174 3 
0.469 0.266 0.174 3 
0.463 0.341 0.143 3 
0.47 0.261 0.174 3 
0.461 0.074 0.002 3 
0.468 0.253 0.173 3 
0.462 0.207 0.114 3 
0.468 0.244 0.173 3 
0.469 0.232 0.173 3 
0.466 0.261 0.093 3 
0.466 0.221 0.171 3 
0.462 -0.025 0.134 3 
0.463 0.21 0.17 3 
0.463 0.204 0.17 3 
0.464 0.28 0.043 3 
0.465 0.197 0.17 3 
0.464 0.252 0.143 3 
0.464 0.19 0.17 3 
0.465 0.035 0.114 3 
0.464 0.173 0.17 3 
0.465 -0.055 0.052 3 
0.465 0.014 0.052 3 
0.464 0.008 0.052 3 
0.462 0.003 0.052 3 
0.464 -0.007 0.052 3 
0.465 -0.009 0.052 3 
0.465 -0.02 0.052 3 
0.464 -0.025 0.052 3 
0.464 -0.036 0.052 3 
0.465 -0.039 0.052 3 
0.465 -0.047 0.052 3 
0.466 0.019 0.052 3 
0.466 -0.066 0.052 3 
0.464 -0.073 0.052 3 
0.465 0.221 0.043 3 
0.463 -0.076 0.052 3 
0.465 0.337 0.048 3 
0.465 0.324 0.048 3 
0.465 0.203 0.049 3 
0.464 0.13 0.049 3 
0.465 0.124 0.049 3 
0.465 0.113 0.049 3 
0.465 0.141 0.052 3 
0.462 0.204 0.054 3 
0.464 0.194 0.054 3 
0.466 0.187 0.054 3 
0.466 0.184 0.054 3 
0.466 0.213 0.052 3 
0.464 0.171 0.052 3 
0.463 0.162 0.052 3 
0.464 0.154 0.052 3 
0.465 0.147 0.052 3 
0.464 0.143 0.052 3 
0.466 -0.033 0.05 3 
0.465 0.133 0.052 3 
0.464 0.124 0.052 3 
0.464 0.113 0.052 3 
0.462 0.102 0.052 3 
0.465 0.091 0.052 3 
0.465 0.083 0.052 3 
0.463 0.072 0.052 3 
0.464 0.032 0.052 3 
0.465 0.027 0.052 3 
0.464 0.024 0.052 3 
0.469 0.143 0.044 3 
0.465 0.203 0.043 3 
0.464 0.197 0.044 3 
0.464 0.194 0.044 3 
0.463 0.182 0.044 3 
0.463 0.173 0.044 3 
0.463 0.162 0.044 3 
0.465 0.155 0.044 3 
0.464 0.152 0.044 3 
0.466 0.15 0.044 3 
0.464 0.143 0.044 3 
0.466 0.213 0.043 3 
0.465 0.124 0.044 3 
0.464 0.116 0.044 3 
0.461 0.112 0.044 3 
0.46 0.104 0.044 3 
0.463 0.093 0.044 3 
0.464 0.083 0.044 3 
0.465 0.073 0.044 3 
0.464 0.07 0.044 3 
0.466 -0.057 0.044 3 
0.465 0.064 0.044 3 
0.466 0.332 0.042 3 
0.461 0.284 0.012 3 
0.465 -0.076 0.05 3 
0.465 0.284 0.046 3 
0.465 0.067 0.047 3 
0.465 0.064 0.047 3 
0.465 0.054 0.047 3 
0.465 0.043 0.047 3 
0.461 -0.065 0.034 3 
0.464 0.34 0.042 3 
0.464 0.333 0.042 3 
0.464 0.214 0.054 3 
0.463 0.312 0.043 3 
0.465 0.307 0.043 3 
0.465 0.304 0.043 3 
0.465 0.284 0.043 3 
0.464 0.274 0.043 3 
0.463 0.264 0.043 3 
0.461 0.224 0.024 3 
0.464 0.252 0.043 3 
0.463 0.243 0.043 3 
0.462 0.164 0.063 3 
0.464 0.232 0.063 3 
0.465 0.229 0.063 3 
0.465 0.224 0.063 3 
0.464 0.217 0.063 3 
0.463 0.202 0.063 3 
0.464 0.194 0.063 3 
0.464 0.182 0.063 3 
0.464 -0.057 0.034 3 
0.463 0.173 0.063 3 
0.461 -0.036 0.013 3 
0.463 0.252 0.063 3 
0.464 0.154 0.063 3 
0.464 0.135 0.063 3 
0.464 0.132 0.063 3 
0.463 0.124 0.063 3 
0.463 0.113 0.063 3 
0.464 0.102 0.063 3 
0.465 0.094 0.063 3 
0.464 0.091 0.063 3 
0.462 0.083 0.063 3 
0.465 0.081 0.063 3 
0.462 0.337 0.062 3 
0.464 0.121 0.071 3 
0.465 0.084 0.071 3 
0.463 0.043 0.071 3 
0.464 -0.025 0.071 3 
0.466 -0.047 0.071 3 
0.465 0.341 0.068 3 
0.465 0.086 0.068 3 
0.465 0.014 0.068 3 
0.464 0.043 0.004 3 
0.464 -0.081 0.066 3 
0.46 0.063 0.063 3 
0.465 0.331 0.062 3 
0.465 0.324 0.062 3 
0.464 0.316 0.062 3 
0.464 0.313 0.062 3 
0.463 0.302 0.062 3 
0.462 0.292 0.062 3 
0.463 0.283 0.062 3 
0.465 0.282 0.063 3 
0.468 0.274 0.063 3 
0.464 0.255 0.063 3 
0.464 0.303 0.054 3 
0.463 -0.049 0.06 3 
0.464 -0.073 0.06 3 
0.465 0.304 0.057 3 
0.46 0.063 0.013 3 
0.465 0.294 0.057 3 
0.465 0.183 0.057 3 
0.464 0.286 0.034 3 
0.465 0.331 0.054 3 
0.464 0.323 0.054 3 
0.463 0.312 0.054 3 
0.464 -0.036 0.06 3 
0.465 0.298 0.054 3 
0.464 0.294 0.054 3 
0.465 0.291 0.054 3 
0.464 0.283 0.054 3 
0.465 0.265 0.054 3 
0.464 0.258 0.054 3 
0.463 0.252 0.054 3 
0.461 0.241 0.054 3 
0.462 0.233 0.054 3 
0.462 0.224 0.054 3 
0.465 -0.025 0.063 3 
0.46 0.053 0.063 3 
0.464 0.274 0.054 3 
0.463 0.043 0.063 3 
0.463 0.032 0.063 3 
0.463 0.024 0.063 3 
0.463 0.014 0.063 3 
0.463 0.003 0.063 3 
0.465 -0.004 0.063 3 
0.465 -0.015 0.063 3 
0.464 -0.017 0.063 3 
0.466 0.054 0.044 3 
0.465 -0.036 0.063 3 
0.466 -0.047 0.063 3 
0.467 -0.066 0.063 3 
0.461 0.164 0.033 3 
0.465 -0.076 0.063 3 
0.464 -0.078 0.063 3 
0.46 -0.085 0.063 3 
0.467 0.343 0.06 3 
0.465 0.133 0.06 3 
0.465 0.003 0.023 3 
0.47 0.098 0.022 3 
0.463 0.091 0.023 3 
0.462 0.082 0.023 3 
0.462 0.074 0.023 3 
0.462 0.064 0.023 3 
0.46 0.053 0.023 3 
0.463 0.043 0.023 3 
0.459 0.032 0.024 3 
0.462 0.024 0.023 3 
0.465 0.008 0.023 3 
0.463 0.104 0.023 3 
0.465 -0.007 0.023 3 
0.464 -0.009 0.023 3 
0.466 -0.015 0.023 3 
0.467 -0.025 0.023 3 
0.463 -0.036 0.023 3 
0.461 -0.046 0.024 3 
0.458 -0.056 0.024 3 
0.464 0 0.02 3 
0.463 -0.015 0.021 3 
0.463 -0.033 0.021 3 
0.463 0.298 0.02 3 
0.465 0.313 0.023 3 
0.463 0.308 0.023 3 
0.466 0.304 0.023 3 
0.466 0.292 0.023 3 
0.463 0.273 0.024 3 
0.463 0.264 0.024 3 
0.462 0.254 0.024 3 
0.462 0.242 0.024 3 
0.461 0.232 0.024 3 
0.46 0.336 0.02 3 
0.463 0.332 0.014 3 
0.463 0.292 0.02 3 
0.46 0.2 0.022 3 
0.461 0.192 0.022 3 
0.461 0.184 0.022 3 
0.461 0.172 0.022 3 
0.461 0.164 0.022 3 
0.462 0.014 0.023 3 
0.457 0.154 0.023 3 
0.459 0.144 0.023 3 
0.461 0.112 0.023 3 
0.463 0.003 0.013 3 
0.465 0.113 0.012 3 
0.464 0.105 0.012 3 
0.461 0.093 0.012 3 
0.459 0.084 0.013 3 
0.46 0.074 0.013 3 
0.461 0.053 0.013 3 
0.461 0.042 0.013 3 
0.462 0.032 0.013 3 
0.462 0.024 0.013 3 
0.463 0.014 0.013 3 
0.46 0.133 0.012 3 
0.462 -0.007 0.013 3 
0.46 -0.017 0.013 3 
0.461 -0.046 0.013 3 
0.465 -0.004 0.01 3 
0.465 -0.031 0.007 3 
0.463 0.048 0.004 3 
0.465 0.04 0.004 3 
0.464 -0.015 0.004 3 
0.46 0.063 0.002 3 
0.465 0.046 0.001 3 
0.463 0.234 0.013 3 
0.466 0.332 0.013 3 
0.465 0.323 0.014 3 
0.465 0.307 0.014 3 
0.451 -0.055 0.02 3 
0.462 0.32 0.011 3 
0.462 0.304 0.012 3 
0.462 0.294 0.012 3 
0.463 0.264 0.013 3 
0.461 0.253 0.013 3 
0.461 0.244 0.013 3 
0.465 0.316 0.023 3 
0.462 0.224 0.013 3 
0.462 0.204 0.014 3 
0.461 0.192 0.014 3 
0.46 0.183 0.014 3 
0.46 0.172 0.014 3 
0.461 0.153 0.014 3 
0.464 0.124 0.014 3 
0.469 0.117 0.014 3 
0.459 0.141 0.012 3 
0.465 0.281 0.034 3 
0.465 -0.015 0.039 3 
0.464 -0.073 0.039 3 
0.463 -0.076 0.039 3 
0.459 0.334 0.034 3 
0.461 0.323 0.034 3 
0.462 0.314 0.034 3 
0.465 0.307 0.034 3 
0.466 0.301 0.034 3 
0.465 0.29 0.034 3 
0.464 0.283 0.034 3 
0.465 -0.012 0.039 3 
0.465 0.269 0.035 3 
0.465 0.244 0.035 3 
0.464 0.064 0.036 3 
0.464 0.035 0.036 3 
0.464 0.032 0.036 3 
0.464 0.024 0.036 3 
0.46 0.335 0.031 3 
0.463 0.261 0.032 3 
0.464 0.253 0.032 3 
0.463 0.243 0.032 3 
0.464 -0.049 0.044 3 
0.465 0.043 0.044 3 
0.467 0.033 0.044 3 
0.466 0.024 0.044 3 
0.464 0.014 0.044 3 
0.462 -0.007 0.044 3 
0.462 -0.017 0.044 3 
0.463 -0.025 0.044 3 
0.465 -0.033 0.044 3 
0.463 -0.036 0.044 3 
0.465 -0.047 0.044 3 
0.462 0.233 0.032 3 
0.464 -0.062 0.044 3 
0.467 -0.066 0.044 3 
0.466 -0.076 0.044 3 
0.464 0.286 0.04 3 
0.465 0.083 0.041 3 
0.459 0.003 0.042 3 
0.467 -0.036 0.042 3 
0.465 0.247 0.038 3 
0.464 0.132 0.038 3 
0.466 0.014 0.039 3 
0.466 -0.009 0.034 3 
0.464 0.054 0.034 3 
0.467 0.051 0.033 3 
0.464 0.043 0.034 3 
0.463 0.032 0.034 3 
0.464 0.024 0.034 3 
0.465 0.016 0.034 3 
0.466 0.014 0.034 3 
0.464 0.011 0.034 3 
0.464 0.003 0.034 3 
0.463 -0.007 0.034 3 
0.465 0.059 0.033 3 
0.465 -0.015 0.034 3 
0.467 -0.025 0.034 3 
0.466 -0.036 0.034 3 
0.466 0.218 0.029 3 
0.464 0.124 0.03 3 
0.465 0.003 0.031 3 
0.464 -0.041 0.031 3 
0.465 0.316 0.025 3 
0.459 0.334 0.023 3 
0.462 0.324 0.023 3 
0.465 0.133 0.033 3 
0.462 0.224 0.033 3 
0.464 0.214 0.032 3 
0.466 0.213 0.032 3 
0.465 0.2 0.033 3 
0.464 0.191 0.033 3 
0.462 0.184 0.033 3 
0.461 0.172 0.033 3 
0.463 0.154 0.033 3 
0.464 0.143 0.033 3 
0.465 0.141 0.033 3 
0.464 0.132 0.071 3 
0.464 0.13 0.033 3 
0.465 0.124 0.033 3 
0.465 0.113 0.033 3 
0.462 0.104 0.034 3 
0.461 0.093 0.034 3 
0.463 0.083 0.034 3 
0.467 0.081 0.033 3 
0.465 0.073 0.033 3 
0.463 0.069 0.034 3 
0.465 -0.076 0.103 3 
0.465 0.011 0.103 3 
0.464 0.003 0.103 3 
0.464 -0.006 0.103 3 
0.462 -0.017 0.103 3 
0.464 -0.025 0.103 3 
0.465 -0.03 0.103 3 
0.466 -0.047 0.103 3 
0.464 -0.052 0.103 3 
0.466 -0.055 0.103 3 
0.466 -0.066 0.103 3 
0.464 -0.028 0.063 3 
0.464 -0.084 0.103 3 
0.463 -0.086 0.103 3 
0.465 0.341 0.103 3 
0.463 0.336 0.103 3 
0.464 0.333 0.103 3 
0.467 0.333 0.103 3 
0.465 0.321 0.103 3 
0.465 0.314 0.102 3 
0.466 0.302 0.102 3 
0.466 0.293 0.102 3 
0.463 0.113 0.103 3 
0.465 0.175 0.104 3 
0.465 0.172 0.104 3 
0.465 0.164 0.103 3 
0.464 0.16 0.103 3 
0.464 0.152 0.103 3 
0.462 0.143 0.103 3 
0.462 0.134 0.103 3 
0.465 0.125 0.103 3 
0.465 0.122 0.103 3 
0.463 0.118 0.103 3 
0.465 0.279 0.102 3 
0.461 0.104 0.103 3 
0.463 0.083 0.103 3 
0.465 0.076 0.103 3 
0.465 0.073 0.103 3 
0.466 0.062 0.103 3 
0.465 0.054 0.103 3 
0.464 0.051 0.103 3 
0.463 0.043 0.103 3 
0.466 0.033 0.103 3 
0.464 0.024 0.103 3 
0.464 0.263 0.093 3 
0.462 0.233 0.043 3 
0.438 -0.086 0.092 3 
0.47 0.347 0.095 3 
0.467 0.337 0.094 3 
0.467 0.326 0.094 3 
0.467 0.323 0.094 3 
0.467 0.313 0.094 3 
0.466 0.293 0.094 3 
0.465 0.279 0.093 3 
0.462 0.27 0.093 3 
0.466 -0.093 0.095 3 
0.464 0.254 0.093 3 
0.462 0.233 0.093 3 
0.463 0.222 0.093 3 
0.466 0.222 0.093 3 
0.464 0.214 0.093 3 
0.463 0.296 0.088 3 
0.463 0.202 0.093 3 
0.46 0.194 0.092 3 
0.461 0.184 0.092 3 
0.464 0.174 0.093 3 
0.464 0.171 0.098 3 
0.465 0.267 0.102 3 
0.465 0.236 0.101 3 
0.464 0.232 0.101 3 
0.463 0.273 0.012 3 
0.467 0.153 0.101 3 
0.466 0.142 0.101 3 
0.464 0.073 0.1 3 
0.464 0.032 0.1 3 
0.463 -0.036 0.1 3 
0.465 0.209 0.098 3 
0.462 0.184 0.103 3 
0.465 0.089 0.098 3 
0.465 -0.014 0.098 3 
0.46 0.191 0.084 3 
0.465 -0.017 0.098 3 
0.461 0.053 0.052 3 
0.464 -0.057 0.098 3 
0.428 -0.083 0.093 3 
0.466 0.264 0.096 3 
0.46 0.106 0.094 3 
0.463 -0.036 0.113 3 
0.465 0.033 0.114 3 
0.465 0.022 0.114 3 
0.464 0.016 0.113 3 
0.464 0.014 0.113 3 
0.464 0.259 0.074 3 
0.463 0.003 0.113 3 
0.46 0.164 0.014 3 
0.462 -0.006 0.113 3 
0.462 -0.017 0.113 3 
0.464 -0.025 0.114 3 
0.463 0.213 0.024 3 
0.464 -0.057 0.114 3 
0.465 -0.065 0.114 3 
0.465 -0.098 0.114 3 
0.462 0.338 0.114 3 
0.465 0.335 0.114 3 
0.466 0.333 0.114 3 
0.449 0.013 0.032 3 
0.466 0.319 0.114 3 
0.464 0.31 0.114 3 
0.463 0.284 0.113 3 
0.464 0.116 0.114 3 
0.465 0.172 0.114 3 
0.465 0.164 0.114 3 
0.464 0.158 0.114 3 
0.464 0.152 0.114 3 
0.465 0.15 0.114 3 
0.462 0.143 0.114 3 
0.464 0.133 0.114 3 
0.465 0.13 0.114 3 
0.467 0.123 0.114 3 
0.461 0.291 0.082 3 
0.465 0.276 0.113 3 
0.465 0.114 0.114 3 
0.462 0.107 0.113 3 
0.464 0.094 0.052 3 
0.463 0.102 0.114 3 
0.465 0.097 0.114 3 
0.463 0.094 0.114 3 
0.463 0.083 0.114 3 
0.462 0.072 0.113 3 
0.46 0.053 0.113 3 
0.462 0.043 0.113 3 
0.461 0.282 0.104 3 
0.464 0.334 0.111 3 
0.466 0.312 0.111 3 
0.466 0.068 0.109 3 
0.465 0.011 0.108 3 
0.465 0.301 0.108 3 
0.465 0.141 0.106 3 
0.463 0.032 0.105 3 
0.465 0.254 0.096 3 
0.464 -0.089 0.106 3 
0.462 0.286 0.104 3 
0.468 -0.085 0.112 3 
0.463 0.332 0.082 3 
0.461 0.272 0.104 3 
0.463 0.262 0.104 3 
0.462 0.252 0.104 3 
0.465 0.233 0.104 3 
0.466 0.222 0.104 3 
0.464 0.217 0.104 3 
0.463 0.214 0.104 3 
0.462 0.201 0.103 3 
0.462 0.193 0.103 3 
0.464 0.323 0.042 3 
0.466 0.274 0.113 3 
0.464 0.269 0.113 3 
0.464 0.26 0.113 3 
0.464 0.251 0.113 3 
0.465 0.249 0.113 3 
0.466 0.291 0.043 3 
0.466 0.243 0.113 3 
0.462 0.074 0.063 3 
0.466 0.234 0.113 3 
0.465 0.221 0.112 3 
0.463 0.064 0.052 3 
0.453 0.133 0.109 3 
0.465 0.062 0.111 3 
0.462 0.239 0.084 3 
0.465 -0.028 0.111 3 
0.466 -0.036 0.111 3 
0.465 -0.047 0.111 3 
0.465 -0.063 0.111 3 
0.464 -0.065 0.111 3 
0.465 -0.076 0.111 3 
0.46 0.29 0.074 3 
0.465 -0.047 0.079 3 
0.464 -0.057 0.079 3 
0.465 0.081 0.076 3 
0.462 0.338 0.014 3 
0.465 0.024 0.076 3 
0.462 0.338 0.074 3 
0.465 0.334 0.074 3 
0.466 0.322 0.074 3 
0.464 0.306 0.074 3 
0.462 0.301 0.074 3 
0.466 -0.036 0.079 3 
0.462 0.282 0.074 3 
0.465 0.276 0.074 3 
0.465 0.273 0.074 3 
0.465 0.262 0.074 3 
0.464 0.252 0.074 3 
0.465 0.244 0.074 3 
0.464 0.232 0.074 3 
0.465 0.229 0.074 3 
0.463 0.222 0.074 3 
0.464 0.214 0.074 3 
0.465 0.23 0.082 3 
0.465 0.321 0.082 3 
0.465 0.314 0.082 3 
0.463 0.305 0.082 3 
0.461 0.281 0.082 3 
0.463 0.274 0.082 3 
0.465 0.273 0.082 3 
0.465 0.263 0.082 3 
0.464 0.256 0.082 3 
0.465 0.253 0.082 3 
0.464 0.25 0.082 3 
0.465 0.209 0.074 3 
0.462 0.137 0.081 3 
0.466 0.114 0.082 3 
0.464 0.03 0.081 3 
0.465 -0.065 0.082 3 
0.466 -0.076 0.082 3 
0.465 -0.087 0.082 3 
0.465 0.209 0.079 3 
0.465 0.203 0.079 3 
0.464 0.003 0.079 3 
0.464 -0.02 0.079 3 
0.464 -0.057 0.074 3 
0.466 0.033 0.074 3 
0.463 0.014 0.073 3 
0.464 0.003 0.074 3 
0.465 -0.001 0.074 3 
0.465 -0.007 0.074 3 
0.465 -0.015 0.074 3 
0.465 -0.025 0.074 3 
0.468 -0.036 0.074 3 
0.464 -0.041 0.074 3 
0.464 -0.046 0.074 3 
0.465 0.043 0.074 3 
0.464 0.016 0.071 3 
0.465 -0.06 0.074 3 
0.467 -0.077 0.074 3 
0.466 -0.087 0.074 3 
0.46 -0.088 0.074 3 
0.464 0.11 0.033 3 
0.463 0.332 0.071 3 
0.464 0.243 0.071 3 
0.465 0.215 0.071 3 
0.464 0.191 0.071 3 
0.465 0.141 0.074 3 
0.464 0.203 0.074 3 
0.466 0.201 0.074 3 
0.466 0.192 0.074 3 
0.462 0.184 0.073 3 
0.462 0.173 0.073 3 
0.464 0.163 0.073 3 
0.465 0.158 0.074 3 
0.464 0.154 0.073 3 
0.465 0.149 0.074 3 
0.464 0.143 0.073 3 
0.465 0.327 0.083 3 
0.465 0.133 0.074 3 
0.466 0.122 0.074 3 
0.466 0.114 0.074 3 
0.464 0.102 0.073 3 
0.462 0.094 0.073 3 
0.463 0.072 0.073 3 
0.485 0.075 0.075 3 
0.463 0.053 0.073 3 
0.465 0.048 0.074 3 
0.465 0.04 0.06 3 
0.465 -0.036 0.092 3 
0.465 -0.047 0.092 3 
0.465 -0.055 0.092 3 
0.466 -0.066 0.093 3 
0.464 -0.076 0.092 3 
0.464 -0.046 0.034 3 
0.465 -0.079 0.093 3 
0.465 -0.087 0.093 3 
0.464 -0.089 0.092 3 
0.465 0.254 0.09 3 
0.465 -0.025 0.092 3 
0.465 0.244 0.09 3 
0.464 -0.007 0.071 3 
0.465 0.233 0.09 3 
0.464 0.157 0.09 3 
0.463 0.151 0.09 3 
0.464 0.022 0.089 3 
0.464 0.014 0.089 3 
0.464 -0.06 0.09 3 
0.464 0.333 0.088 3 
0.465 0.144 0.087 3 
0.464 0.062 0.092 3 
0.466 0.167 0.093 3 
0.466 0.164 0.093 3 
0.466 0.153 0.093 3 
0.462 0.143 0.092 3 
0.462 0.134 0.092 3 
0.463 0.124 0.092 3 
0.462 0.104 0.092 3 
0.463 0.094 0.092 3 
0.463 0.083 0.092 3 
0.463 0.072 0.092 3 
0.463 0.064 0.034 3 
0.465 0.057 0.092 3 
0.463 0.123 0.023 3 
0.465 0.054 0.092 3 
0.465 0.043 0.092 3 
0.465 0.024 0.092 3 
0.465 0.014 0.092 3 
0.465 0.003 0.092 3 
0.466 -0.007 0.092 3 
0.466 -0.015 0.092 3 
0.465 -0.025 0.084 3 
0.465 0.338 0.008 3 
0.464 0.054 0.084 3 
0.465 0.048 0.084 3 
0.464 0.043 0.084 3 
0.465 0.04 0.084 3 
0.466 0.033 0.084 3 
0.464 0.024 0.084 3 
0.463 0.014 0.084 3 
0.465 0.006 0.084 3 
0.465 0.003 0.084 3 
0.465 0.057 0.084 3 
0.464 -0.03 0.084 3 
0.463 -0.036 0.084 3 
0.465 0.144 0.063 3 
0.462 -0.046 0.084 3 
0.464 0.214 0.063 3 
0.465 -0.06 0.084 3 
0.464 -0.081 0.084 3 
0.464 -0.089 0.084 3 
0.462 0.338 0.082 3 
0.465 0.338 0.083 3 
0.464 0.152 0.084 3 
0.465 0.127 0.087 3 
0.465 0.122 0.087 3 
0.462 0.233 0.084 3 
0.461 0.224 0.084 3 
0.464 0.211 0.084 3 
0.465 0.209 0.085 3 
0.465 0.203 0.085 3 
0.46 0.183 0.084 3 
0.462 0.173 0.084 3 
0.462 0.331 0.054 3 
0.463 0.174 0.114 3 
0.465 0.144 0.084 3 
0.466 0.133 0.084 3 
0.466 0.122 0.084 3 
0.464 0.113 0.084 3 
0.462 0.102 0.084 3 
0.462 0.094 0.084 3 
0.463 0.083 0.084 3 
0.462 0.072 0.084 3 
0.462 0.064 0.084 3 
0.318 0.004 0.021 7 
0.331 0.004 0.019 7 
0.317 0.013 0.014 7 
0.318 0.015 0.014 7 
0.318 0.014 0.021 7 
0.318 0.015 0.019 7 
0.331 0.015 0.019 7 
0.339 -0.004 0.014 7 
0.33 0.013 0.019 7 
0.316 0.004 0.014 7 
