# .PCD v0.7 - Point Cloud Data file
FIELDS x y z intensity
SIZE 4 4 4 4
TYPE F F F F
COUNT 1 1 1 1
WIDTH 2417
HEIGHT 1
VIEWPOINT 0 0 0 1 0 0 0
POINTS 2417
DATA ascii
0.43 -0.053 0.001 0 
0.413 -0.054 0.005 0 
0.41 -0.06 0.005 0 
0.439 -0.052 0 0 
0.421 0.044 0.028 0 
0.589 -0.081 0.152 0 
0.354 0.015 0.004 0 
0.366 0.027 0.004 0 
0.355 0.014 0.003 0 
0.362 0.032 0.008 0 
0.357 0.024 0.006 0 
0.42 -0.053 0.003 0 
0.441 -0.067 0.006 0 
0.586 -0.024 0.088 0 
0.594 -0.029 0.088 0 
0.597 -0.036 0.089 0 
0.582 -0.031 0.11 0 
0.374 -0.236 -0.026 1 
0.372 -0.226 -0.024 1 
0.363 -0.166 -0.018 1 
0.364 -0.155 -0.018 1 
0.364 -0.145 -0.018 1 
0.364 -0.136 -0.018 1 
0.36 -0.125 -0.016 1 
0.354 -0.055 -0.012 1 
0.353 -0.046 -0.012 1 
0.352 -0.036 -0.012 1 
0.343 -0.025 -0.008 1 
0.334 0 -0.005 1 
0.352 0.033 -0.012 1 
0.351 0.043 -0.012 1 
0.353 0.064 -0.013 1 
0.354 0.073 -0.013 1 
0.353 0.083 -0.013 1 
0.354 0.094 -0.014 1 
0.352 0.104 -0.013 1 
0.349 0.123 -0.013 1 
0.352 0.153 -0.015 1 
0.349 0.154 -0.014 1 
0.364 -0.107 -0.015 1 
0.363 -0.095 -0.015 1 
0.361 -0.085 -0.014 1 
0.351 -0.029 -0.01 1 
0.331 -0.01 -0.002 1 
0.344 0.006 -0.007 1 
0.359 0.043 -0.013 1 
0.359 0.073 -0.013 1 
0.354 0.108 -0.012 1 
0.354 0.13 -0.013 1 
0.355 0.159 -0.014 1 
0.353 0.168 -0.014 1 
0.354 0.173 -0.015 1 
0.353 0.184 -0.015 1 
0.352 0.213 -0.017 1 
0.383 -0.246 -0.025 1 
0.383 -0.241 -0.025 1 
0.383 -0.236 -0.024 1 
0.372 -0.176 -0.018 1 
0.373 -0.146 -0.017 1 
0.373 -0.136 -0.017 1 
0.374 -0.126 -0.017 1 
0.371 -0.115 -0.016 1 
0.364 -0.056 -0.013 1 
0.366 -0.033 -0.013 1 
0.328 -0.025 0 1 
0.344 -0.007 -0.006 1 
0.352 0.013 -0.008 1 
0.354 0.019 -0.009 1 
0.364 0.03 -0.013 1 
0.364 0.084 -0.014 1 
0.364 0.094 -0.014 1 
0.361 0.114 -0.013 1 
0.364 0.118 -0.014 1 
0.362 0.153 -0.015 1 
0.359 0.173 -0.015 1 
0.356 0.185 -0.014 1 
0.354 0.195 -0.014 1 
0.353 0.216 -0.015 1 
0.393 -0.265 -0.027 1 
0.384 -0.227 -0.022 1 
0.38 -0.196 -0.02 1 
0.381 -0.155 -0.018 1 
0.374 -0.097 -0.015 1 
0.373 -0.085 -0.014 1 
0.374 -0.083 -0.015 1 
0.374 -0.076 -0.014 1 
0.371 -0.056 -0.013 1 
0.369 -0.045 -0.012 1 
0.335 -0.03 -0.001 1 
0.354 0 -0.007 1 
0.363 0.019 -0.011 1 
0.37 0.083 -0.014 1 
0.371 0.103 -0.015 1 
0.37 0.114 -0.014 1 
0.371 0.124 -0.015 1 
0.364 0.186 -0.015 1 
0.358 0.221 -0.015 1 
0.395 -0.267 -0.025 1 
0.393 -0.262 -0.025 1 
0.393 -0.246 -0.024 1 
0.393 -0.236 -0.023 1 
0.389 -0.227 -0.021 1 
0.382 -0.125 -0.016 1 
0.384 -0.116 -0.017 1 
0.384 -0.106 -0.016 1 
0.381 -0.096 -0.015 1 
0.384 -0.085 -0.016 1 
0.383 -0.077 -0.016 1 
0.374 -0.042 -0.012 1 
0.373 0.026 -0.012 1 
0.371 0.144 -0.014 1 
0.371 0.15 -0.014 1 
0.373 0.155 -0.015 1 
0.37 0.183 -0.015 1 
0.393 -0.216 -0.02 1 
0.391 -0.156 -0.018 1 
0.388 -0.077 -0.015 1 
0.383 -0.055 -0.013 1 
0.383 -0.05 -0.013 1 
0.364 -0.004 -0.007 1 
0.383 0.043 -0.014 1 
0.383 0.073 -0.014 1 
0.384 0.083 -0.015 1 
0.383 0.084 -0.014 1 
0.383 0.103 -0.015 1 
0.382 0.104 -0.014 1 
0.382 0.11 -0.014 1 
0.382 0.114 -0.015 1 
0.382 0.122 -0.015 1 
0.381 0.124 -0.014 1 
0.377 0.144 -0.014 1 
0.38 0.163 -0.015 1 
0.373 0.194 -0.015 1 
0.372 0.218 -0.015 1 
0.372 0.237 -0.016 1 
0.402 -0.267 -0.023 1 
0.372 0.054 -0.014 1 
0.404 -0.255 -0.023 1 
0.363 0.012 -0.009 1 
0.404 -0.237 -0.022 1 
0.382 -0.215 -0.021 1 
0.397 -0.225 -0.019 1 
0.394 -0.187 -0.017 1 
0.394 -0.127 -0.016 1 
0.392 -0.116 -0.015 1 
0.393 -0.074 -0.015 1 
0.391 -0.055 -0.014 1 
0.392 -0.052 -0.014 1 
0.3 -0.005 0.014 1 
0.39 0.085 -0.015 1 
0.389 0.114 -0.015 1 
0.386 0.141 -0.015 1 
0.383 0.163 -0.014 1 
0.384 0.173 -0.015 1 
0.383 0.213 -0.016 1 
0.373 0.153 -0.015 1 
0.382 0.233 -0.017 1 
0.378 0.244 -0.017 1 
0.414 -0.258 -0.023 1 
0.402 -0.206 -0.018 1 
0.403 -0.176 -0.018 1 
0.403 -0.166 -0.017 1 
0.402 -0.157 -0.017 1 
0.401 -0.147 -0.016 1 
0.4 -0.135 -0.016 1 
0.4 -0.105 -0.015 1 
0.399 -0.096 -0.015 1 
0.399 -0.076 -0.015 1 
0.398 -0.053 -0.014 1 
0.464 -0.063 -0.035 1 
0.303 -0.016 0.014 1 
0.314 -0.019 0.001 1 
0.374 0.004 -0.007 1 
0.305 -0.013 0.005 1 
0.374 0.006 -0.007 1 
0.394 0.043 -0.013 1 
0.392 0.063 -0.013 1 
0.394 0.082 -0.014 1 
0.394 0.093 -0.014 1 
0.394 0.103 -0.014 1 
0.394 0.108 -0.014 1 
0.395 0.112 -0.015 1 
0.395 0.119 -0.015 1 
0.39 0.133 -0.013 1 
0.39 0.144 -0.014 1 
0.389 0.154 -0.014 1 
0.389 0.161 -0.014 1 
0.388 0.183 -0.015 1 
0.388 0.22 -0.016 1 
0.384 0.248 -0.016 1 
0.414 -0.289 -0.023 1 
0.414 -0.271 -0.022 1 
0.414 -0.239 -0.02 1 
0.41 -0.227 -0.019 1 
0.404 -0.195 -0.016 1 
0.404 -0.186 -0.016 1 
0.404 -0.098 -0.014 1 
0.413 -0.054 -0.016 1 
0.303 -0.025 0.016 1 
0.352 0.142 -0.014 1 
0.384 0.016 -0.008 1 
0.401 0.053 -0.013 1 
0.401 0.064 -0.013 1 
0.399 0.074 -0.013 1 
0.383 -0.185 -0.018 1 
0.39 -0.147 -0.017 1 
0.399 0.104 -0.013 1 
0.37 -0.105 -0.015 1 
0.303 -0.025 0.013 1 
0.401 0.124 -0.014 1 
0.397 0.153 -0.014 1 
0.397 0.174 -0.015 1 
0.392 0.193 -0.014 1 
0.393 0.198 -0.014 1 
0.391 0.243 -0.016 1 
0.42 -0.287 -0.022 1 
0.424 -0.268 -0.022 1 
0.36 -0.006 -0.006 1 
0.413 -0.215 -0.017 1 
0.413 -0.205 -0.017 1 
0.411 -0.196 -0.016 1 
0.412 -0.185 -0.016 1 
0.412 -0.166 -0.015 1 
0.411 -0.16 -0.015 1 
0.409 -0.156 -0.014 1 
0.409 -0.147 -0.014 1 
0.41 -0.145 -0.015 1 
0.351 0.192 -0.015 1 
0.413 -0.136 -0.015 1 
0.414 -0.127 -0.015 1 
0.411 -0.105 -0.014 1 
0.413 -0.097 -0.015 1 
0.413 -0.09 -0.015 1 
0.411 -0.085 -0.014 1 
0.411 -0.076 -0.014 1 
0.41 -0.067 -0.013 1 
0.384 0 -0.006 1 
0.397 0.004 -0.01 1 
0.384 0.012 -0.006 1 
0.404 0.039 -0.012 1 
0.403 0.134 -0.013 1 
0.394 0.023 -0.009 1 
0.401 0.144 -0.013 1 
0.4 0.162 -0.013 1 
0.403 0.181 -0.015 1 
0.401 0.222 -0.015 1 
0.4 0.234 -0.016 1 
0.394 0.259 -0.015 1 
0.423 -0.236 -0.018 1 
0.42 -0.226 -0.017 1 
0.419 -0.215 -0.016 1 
0.419 -0.195 -0.016 1 
0.417 -0.162 -0.015 1 
0.418 -0.148 -0.015 1 
0.448 -0.059 -0.022 1 
0.35 -0.006 -0.006 1 
0.346 0.01 0.006 1 
0.397 0.023 -0.008 1 
0.412 0.064 -0.012 1 
0.413 0.073 -0.013 1 
0.414 0.083 -0.013 1 
0.413 0.123 -0.013 1 
0.411 0.134 -0.013 1 
0.407 0.143 -0.012 1 
0.413 0.154 -0.014 1 
0.401 0.193 -0.012 1 
0.404 0.21 -0.014 1 
0.407 0.233 -0.015 1 
0.404 0.243 -0.015 1 
0.403 0.261 -0.015 1 
0.402 0.271 -0.016 1 
0.432 -0.306 -0.02 1 
0.43 -0.277 -0.019 1 
0.426 -0.187 -0.015 1 
0.425 -0.184 -0.015 1 
0.423 -0.165 -0.014 1 
0.423 -0.156 -0.014 1 
0.423 -0.146 -0.014 1 
0.424 -0.139 -0.014 1 
0.423 -0.117 -0.013 1 
0.365 0.211 -0.015 1 
0.421 -0.107 -0.012 1 
0.423 -0.082 -0.013 1 
0.424 -0.066 -0.013 1 
0.424 -0.063 -0.013 1 
0.322 0.013 0.014 1 
0.373 0.192 -0.014 1 
0.404 0.032 -0.008 1 
0.419 0.064 -0.012 1 
0.421 0.094 -0.013 1 
0.413 0.164 -0.012 1 
0.411 0.194 -0.013 1 
0.41 0.213 -0.013 1 
0.412 0.24 -0.014 1 
0.413 0.244 -0.015 1 
0.411 0.253 -0.015 1 
0.41 0.254 -0.014 1 
0.409 0.273 -0.015 1 
0.408 0.277 -0.015 1 
0.434 -0.287 -0.017 1 
0.434 -0.246 -0.016 1 
0.433 -0.226 -0.015 1 
0.433 -0.216 -0.015 1 
0.433 -0.208 -0.015 1 
0.432 -0.2 -0.015 1 
0.381 -0.074 -0.015 1 
0.432 -0.197 -0.014 1 
0.429 -0.167 -0.013 1 
0.43 -0.155 -0.013 1 
0.43 -0.145 -0.013 1 
0.431 -0.135 -0.013 1 
0.431 -0.126 -0.013 1 
0.429 -0.096 -0.012 1 
0.43 -0.077 -0.012 1 
0.478 -0.057 -0.025 1 
0.328 0.016 0.014 1 
0.335 0.018 0.012 1 
0.345 0.021 0.009 1 
0.393 0.033 -0.003 1 
0.424 0.053 -0.011 1 
0.423 0.074 -0.011 1 
0.424 0.103 -0.012 1 
0.423 0.124 -0.012 1 
0.422 0.154 -0.012 1 
0.42 0.164 -0.012 1 
0.417 0.204 -0.012 1 
0.417 0.284 -0.015 1 
0.441 -0.297 -0.017 1 
0.441 -0.279 -0.016 1 
0.436 -0.262 -0.015 1 
0.434 -0.185 -0.012 1 
0.37 0.1 -0.014 1 
0.434 -0.183 -0.012 1 
0.434 -0.112 -0.011 1 
0.434 -0.088 -0.011 1 
0.434 -0.063 -0.011 1 
0.392 0.037 0 1 
0.418 -0.177 -0.015 1 
0.423 0.044 -0.008 1 
0.427 0.143 -0.011 1 
0.428 0.153 -0.011 1 
0.424 0.174 -0.011 1 
0.423 0.183 -0.011 1 
0.424 0.194 -0.011 1 
0.423 0.214 -0.012 1 
0.423 0.224 -0.012 1 
0.422 0.231 -0.012 1 
0.424 0.241 -0.013 1 
0.424 0.252 -0.013 1 
0.424 0.28 -0.014 1 
0.425 0.293 -0.015 1 
0.423 0.294 -0.014 1 
0.444 -0.316 -0.016 1 
0.419 -0.205 -0.016 1 
0.445 -0.305 -0.015 1 
0.446 -0.296 -0.015 1 
0.446 -0.287 -0.015 1 
0.379 0.133 -0.014 1 
0.446 -0.281 -0.015 1 
0.438 -0.267 -0.013 1 
0.443 -0.226 -0.013 1 
0.444 -0.217 -0.013 1 
0.444 -0.195 -0.012 1 
0.441 -0.185 -0.011 1 
0.442 -0.175 -0.012 1 
0.443 -0.168 -0.012 1 
0.442 -0.157 -0.011 1 
0.441 -0.146 -0.011 1 
0.443 -0.136 -0.011 1 
0.444 -0.127 -0.011 1 
0.443 -0.116 -0.011 1 
0.443 -0.106 -0.011 1 
0.412 -0.099 -0.014 1 
0.442 -0.095 -0.011 1 
0.423 0.081 -0.011 1 
0.441 -0.085 -0.01 1 
0.442 -0.075 -0.01 1 
0.355 -0.033 -0.011 1 
0.431 0.052 -0.008 1 
0.434 0.063 -0.009 1 
0.434 0.07 -0.009 1 
0.433 0.084 -0.009 1 
0.408 -0.06 -0.015 1 
0.434 0.094 -0.009 1 
0.434 0.116 -0.009 1 
0.434 0.162 -0.011 1 
0.429 0.174 -0.01 1 
0.43 0.263 -0.012 1 
0.429 0.274 -0.012 1 
0.451 -0.321 -0.015 1 
0.408 0.266 -0.014 1 
0.45 -0.316 -0.014 1 
0.451 -0.295 -0.014 1 
0.443 -0.257 -0.011 1 
0.444 -0.247 -0.011 1 
0.413 0.103 -0.013 1 
0.444 -0.244 -0.011 1 
0.451 -0.135 -0.011 1 
0.448 -0.097 -0.009 1 
0.444 -0.066 -0.008 1 
0.443 -0.061 -0.008 1 
0.482 -0.052 -0.017 1 
0.443 0.082 -0.009 1 
0.445 0.098 -0.009 1 
0.435 0.107 -0.007 1 
0.441 0.122 -0.009 1 
0.442 0.133 -0.009 1 
0.442 0.143 -0.009 1 
0.44 0.163 -0.009 1 
0.434 0.183 -0.008 1 
0.433 0.192 -0.008 1 
0.433 0.203 -0.009 1 
0.433 0.208 -0.009 1 
0.433 0.224 -0.009 1 
0.431 0.234 -0.009 1 
0.434 0.247 -0.01 1 
0.434 0.282 -0.011 1 
0.429 0.301 -0.011 1 
0.382 -0.211 -0.019 1 
0.453 -0.326 -0.013 1 
0.454 -0.276 -0.011 1 
0.422 0.133 -0.011 1 
0.454 -0.267 -0.011 1 
0.453 -0.258 -0.01 1 
0.452 -0.245 -0.01 1 
0.453 -0.237 -0.01 1 
0.454 -0.226 -0.01 1 
0.453 -0.215 -0.01 1 
0.454 -0.205 -0.01 1 
0.454 -0.196 -0.01 1 
0.454 -0.185 -0.009 1 
0.454 -0.155 -0.009 1 
0.454 -0.15 -0.009 1 
0.454 -0.115 -0.008 1 
0.454 -0.107 -0.008 1 
0.443 -0.205 -0.012 1 
0.454 -0.086 -0.008 1 
0.484 -0.058 -0.015 1 
0.485 -0.056 -0.015 1 
0.371 0.044 -0.014 1 
0.485 -0.053 -0.015 1 
0.439 0.054 -0.005 1 
0.447 0.073 -0.007 1 
0.447 0.094 -0.007 1 
0.423 0.093 -0.002 1 
0.444 0.173 -0.008 1 
0.44 0.184 -0.007 1 
0.439 0.194 -0.007 1 
0.439 0.202 -0.008 1 
0.44 0.244 -0.009 1 
0.459 -0.236 -0.008 1 
0.464 -0.095 -0.008 1 
0.458 -0.08 -0.006 1 
0.453 -0.076 -0.005 1 
0.449 -0.067 -0.004 1 
0.451 -0.057 -0.005 1 
0.473 -0.059 -0.01 1 
0.483 -0.055 -0.012 1 
0.486 -0.05 -0.013 1 
0.353 0.144 -0.015 1 
0.394 0.123 -0.014 1 
0.433 0.053 -0.001 1 
0.441 0.064 -0.003 1 
0.477 0.078 -0.011 1 
0.467 0.084 -0.009 1 
0.433 0.077 -0.001 1 
0.37 -0.065 -0.013 1 
0.436 0.08 -0.002 1 
0.383 -0.065 -0.013 1 
0.363 -0.065 -0.014 1 
0.451 0.132 -0.006 1 
0.452 0.153 -0.007 1 
0.451 0.164 -0.007 1 
0.449 0.174 -0.007 1 
0.444 0.274 -0.008 1 
0.444 0.283 -0.008 1 
0.443 0.294 -0.008 1 
0.455 0.31 -0.011 1 
0.442 0.302 -0.009 1 
0.438 0.311 -0.008 1 
0.464 -0.335 -0.009 1 
0.382 0.182 -0.015 1 
0.464 -0.315 -0.009 1 
0.404 -0.076 -0.014 1 
0.463 -0.298 -0.008 1 
0.464 -0.255 -0.007 1 
0.462 -0.216 -0.006 1 
0.462 -0.196 -0.006 1 
0.462 -0.176 -0.006 1 
0.463 -0.157 -0.006 1 
0.462 -0.135 -0.005 1 
0.462 -0.116 -0.005 1 
0.475 -0.095 -0.008 1 
0.412 0.053 -0.012 1 
0.458 -0.051 -0.004 1 
0.48 -0.052 -0.008 1 
0.384 0.025 -0.012 1 
0.38 -0.031 0.012 1 
0.403 -0.065 -0.014 1 
0.391 -0.066 -0.014 1 
0.393 -0.205 -0.02 1 
0.457 0.142 -0.005 1 
0.457 0.153 -0.005 1 
0.474 -0.054 -0.018 1 
0.455 0.172 -0.005 1 
0.455 0.175 -0.005 1 
0.389 0.233 -0.017 1 
0.388 0.002 -0.007 1 
0.453 0.182 -0.005 1 
0.453 0.193 -0.005 1 
0.453 0.204 -0.005 1 
0.414 0.087 -0.013 1 
0.455 0.211 -0.006 1 
0.454 0.213 -0.006 1 
0.453 0.224 -0.006 1 
0.45 0.233 -0.005 1 
0.45 0.244 -0.006 1 
0.449 0.252 -0.006 1 
0.449 0.264 -0.006 1 
0.47 -0.305 -0.007 1 
0.456 0.134 -0.005 1 
0.467 -0.286 -0.006 1 
0.466 -0.278 -0.005 1 
0.468 -0.255 -0.005 1 
0.469 -0.247 -0.005 1 
0.47 -0.236 -0.005 1 
0.468 -0.229 -0.005 1 
0.474 -0.087 -0.005 1 
0.454 0.233 -0.004 1 
0.453 0.241 -0.003 1 
0.454 0.251 -0.004 1 
0.453 0.259 -0.004 1 
0.455 0.266 -0.005 1 
0.453 0.274 -0.004 1 
0.453 0.28 -0.005 1 
0.452 0.282 -0.004 1 
0.452 0.294 -0.005 1 
0.451 0.302 -0.005 1 
0.449 0.313 -0.005 1 
0.451 0.322 -0.006 1 
0.451 0.325 -0.006 1 
0.473 -0.345 -0.006 1 
0.471 -0.336 -0.005 1 
0.43 0.134 -0.011 1 
0.444 0.256 -0.007 1 
0.471 -0.325 -0.005 1 
0.364 -0.076 -0.015 1 
0.472 -0.32 -0.005 1 
0.454 0.322 -0.003 1 
0.453 0.327 -0.003 1 
0.474 -0.336 -0.002 1 
0.474 -0.325 -0.002 1 
0.383 0.152 -0.014 1 
0.473 -0.317 -0.002 1 
0.456 0.091 -0.009 1 
0.475 -0.087 0 1 
0.454 -0.076 0.004 1 
0.444 0.07 -0.006 1 
0.473 -0.352 0 1 
0.473 -0.227 0.002 1 
0.473 -0.218 0.002 1 
0.471 -0.205 0.002 1 
0.47 -0.195 0.003 1 
0.47 -0.186 0.003 1 
0.374 -0.206 -0.022 1 
0.423 0.112 -0.011 1 
0.468 -0.085 0.004 1 
0.473 -0.075 0.003 1 
0.504 -0.074 -0.001 1 
0.462 0.112 0.004 1 
0.463 0.123 0.004 1 
0.463 0.151 0.003 1 
0.464 0.163 0.003 1 
0.463 0.174 0.003 1 
0.464 0.183 0.003 1 
0.463 0.194 0.003 1 
0.463 0.202 0.003 1 
0.464 0.223 0.002 1 
0.463 0.234 0.002 1 
0.464 0.244 0.002 1 
0.474 -0.357 0.002 1 
0.476 -0.355 0.002 1 
0.477 -0.346 0.002 1 
0.363 0.104 -0.014 1 
0.476 -0.337 0.002 1 
0.423 -0.086 -0.013 1 
0.476 -0.327 0.002 1 
0.475 -0.313 0.003 1 
0.473 -0.288 0.004 1 
0.472 -0.277 0.004 1 
0.471 -0.267 0.004 1 
0.524 -0.075 -0.002 1 
0.531 -0.067 -0.003 1 
0.45 0.061 0.009 1 
0.437 0.061 0.011 1 
0.424 0.063 0.014 1 
0.434 -0.066 -0.011 1 
0.431 0.067 0.012 1 
0.45 -0.065 -0.005 1 
0.45 0.074 0.009 1 
0.384 -0.175 -0.018 1 
0.462 0.263 0.004 1 
0.462 0.272 0.004 1 
0.462 0.294 0.004 1 
0.462 0.301 0.003 1 
0.462 0.314 0.003 1 
0.462 0.324 0.003 1 
0.462 0.334 0.003 1 
0.469 0.346 0.001 1 
0.373 0.02 -0.01 1 
0.519 -0.065 0.001 1 
0.516 -0.058 0.002 1 
0.464 -0.047 0.012 1 
0.461 0.104 0.004 1 
0.476 -0.037 0.011 1 
0.546 -0.032 0 1 
0.533 -0.018 0.002 1 
0.459 0.053 0.013 1 
0.458 0.063 0.013 1 
0.461 0.074 0.013 1 
0.411 0.201 -0.013 1 
0.378 -0.145 -0.017 1 
0.463 -0.086 -0.008 1 
0.454 -0.169 -0.009 1 
0.464 -0.106 -0.005 1 
0.383 0.19 -0.013 1 
0.464 -0.055 0.015 1 
0.393 0.074 -0.013 1 
0.522 -0.018 0.007 1 
0.487 -0.013 0.012 1 
0.463 -0.127 -0.005 1 
0.463 -0.146 -0.005 1 
0.408 0.261 -0.014 1 
0.463 -0.165 -0.006 1 
0.463 -0.185 -0.006 1 
0.463 -0.225 -0.007 1 
0.451 -0.305 -0.014 1 
0.464 -0.246 -0.007 1 
0.438 0.251 -0.009 1 
0.463 -0.288 -0.008 1 
0.452 0.08 0.006 1 
0.476 -0.09 -0.005 1 
0.579 -0.024 0.003 1 
0.55 -0.019 0.006 1 
0.464 -0.328 -0.009 1 
0.59 -0.051 0.005 1 
0.439 0.096 -0.005 1 
0.413 0.112 -0.013 1 
0.371 0.112 -0.015 1 
0.568 -0.023 0.011 1 
0.56 -0.019 0.012 1 
0.344 0.018 -0.009 1 
0.34 -0.008 -0.004 1 
0.441 0.064 -0.006 1 
0.46 -0.059 -0.015 1 
0.391 0.174 -0.015 1 
0.433 0.104 -0.009 1 
0.437 -0.272 -0.015 1 
0.443 0.085 -0.009 1 
0.478 -0.34 -0.006 1 
0.4 -0.085 -0.015 1 
0.473 -0.307 0.003 1 
0.581 -0.028 0.013 1 
0.568 -0.023 0.015 1 
0.452 0.143 -0.006 1 
0.438 -0.247 -0.015 1 
0.473 -0.247 0.004 1 
0.413 -0.11 -0.015 1 
0.451 0.124 -0.006 1 
0.467 -0.295 -0.006 1 
0.364 -0.07 -0.015 1 
0.442 0.153 -0.01 1 
0.353 0.163 -0.014 1 
0.422 -0.257 -0.021 1 
0.464 0.143 0.003 1 
0.39 -0.196 -0.019 1 
0.361 0.133 -0.014 1 
0.353 0.054 -0.013 1 
0.357 0.144 -0.015 1 
0.326 0.011 0.013 1 
0.393 0.027 -0.011 1 
0.441 0.214 -0.008 1 
0.374 -0.195 -0.02 1 
0.363 0.204 -0.016 1 
0.372 -0.215 -0.024 1 
0.434 0.055 -0.002 1 
0.374 -0.186 -0.019 1 
0.424 -0.176 -0.014 1 
0.433 0.293 -0.012 1 
0.465 -0.044 0.012 1 
0.37 -0.073 -0.015 1 
0.464 -0.055 0.012 1 
0.421 -0.276 -0.021 1 
0.434 0.111 -0.007 1 
0.385 0.162 -0.015 1 
0.354 0.202 -0.015 1 
0.374 -0.233 -0.025 1 
0.393 0.203 -0.015 1 
0.464 -0.039 0.012 1 
0.401 0.213 -0.015 1 
0.424 0.272 -0.014 1 
0.432 0.062 0.012 1 
0.404 -0.245 -0.022 1 
0.4 0.113 -0.014 1 
0.371 0.063 -0.014 1 
0.414 -0.249 -0.021 1 
0.388 0.124 -0.015 1 
0.472 -0.238 0.004 1 
0.41 0.223 -0.013 1 
0.305 -0.023 0.009 1 
0.425 -0.174 -0.015 1 
0.393 -0.095 -0.015 1 
0.434 -0.235 -0.016 1 
0.431 -0.266 -0.019 1 
0.411 -0.058 -0.014 1 
0.381 0.064 -0.013 1 
0.424 -0.245 -0.018 1 
0.454 -0.128 -0.009 1 
0.361 0.164 -0.015 1 
0.414 0.174 -0.013 1 
0.464 0.132 0.004 1 
0.383 0.203 -0.016 1 
0.418 -0.167 -0.015 1 
0.387 0.184 -0.014 1 
0.477 -0.096 0 1 
0.393 0.253 -0.015 1 
0.402 0.182 -0.014 1 
0.422 -0.095 -0.013 1 
0.361 0.148 -0.014 1 
0.343 0.003 -0.007 1 
0.386 0.014 -0.007 1 
0.419 -0.137 -0.015 1 
0.47 -0.097 0.003 1 
0.474 -0.295 0.003 1 
0.461 -0.265 -0.007 1 
0.46 0.082 -0.01 1 
0.414 0.184 -0.013 1 
0.448 0.272 -0.006 1 
0.413 0.038 -0.008 1 
0.422 0.264 -0.013 1 
0.385 0.02 -0.004 1 
0.43 -0.295 -0.019 1 
0.399 -0.215 -0.018 1 
0.421 0.144 -0.011 1 
0.441 -0.288 -0.017 1 
0.463 0.249 0.004 1 
0.454 -0.289 -0.011 1 
0.394 -0.18 -0.017 1 
0.413 -0.176 -0.016 1 
0.313 -0.01 0.002 1 
0.404 -0.061 -0.014 1 
0.408 0.007 -0.013 1 
0.455 0.219 -0.006 1 
0.399 -0.126 -0.015 1 
0.421 0.255 -0.015 1 
0.389 -0.252 -0.025 1 
0.414 -0.115 -0.015 1 
0.381 0.128 -0.015 1 
0.402 0.173 -0.014 1 
0.364 -0.047 -0.012 1 
0.363 -0.077 -0.014 1 
0.394 0.053 -0.013 1 
0.448 -0.176 -0.01 1 
0.372 0.232 -0.016 1 
0.42 -0.186 -0.016 1 
0.357 0.184 -0.015 1 
0.44 -0.306 -0.017 1 
0.381 0.054 -0.013 1 
0.434 -0.255 -0.016 1 
0.373 -0.095 -0.014 1 
0.38 0.224 -0.016 1 
0.453 0.077 -0.008 1 
0.394 0.206 -0.015 1 
0.42 -0.125 -0.015 1 
0.374 -0.155 -0.018 1 
0.414 0.042 -0.004 1 
0.372 0.174 -0.015 1 
0.384 -0.166 -0.018 1 
0.394 -0.11 -0.016 1 
0.359 0.054 -0.013 1 
0.393 -0.257 -0.024 1 
0.374 0.093 -0.013 1 
0.359 0.063 -0.013 1 
0.444 0.068 -0.004 1 
0.398 0.084 -0.013 1 
0.466 -0.266 -0.005 1 
0.402 0.254 -0.015 1 
0.462 0.282 0.004 1 
0.382 0.193 -0.015 1 
0.394 -0.091 -0.015 1 
0.361 0.143 -0.014 1 
0.472 -0.255 0.004 1 
0.405 0.032 -0.01 1 
0.364 -0.115 -0.015 1 
0.399 0.204 -0.014 1 
0.434 -0.115 -0.011 1 
0.442 0.224 -0.009 1 
0.373 0.133 -0.014 1 
0.421 0.292 -0.016 1 
0.391 -0.165 -0.018 1 
0.471 -0.064 -0.031 1 
0.514 -0.061 0.002 1 
0.411 0.234 -0.014 1 
0.414 -0.277 -0.022 1 
0.475 -0.316 0.003 1 
0.462 -0.207 -0.006 1 
0.381 0.094 -0.014 1 
0.456 0.164 -0.005 1 
0.424 -0.125 -0.013 1 
0.463 -0.279 -0.008 1 
0.416 -0.055 -0.015 1 
0.364 -0.036 -0.012 1 
0.44 0.233 -0.009 1 
0.474 -0.098 -0.007 1 
0.409 0.264 -0.015 1 
0.463 0.214 0.002 1 
0.434 0.242 -0.01 1 
0.4 -0.115 -0.015 1 
0.332 -0.004 -0.004 1 
0.381 -0.135 -0.016 1 
0.372 0.204 -0.017 1 
0.463 -0.307 -0.008 1 
0.394 -0.138 -0.016 1 
0.359 0.213 -0.015 1 
0.371 -0.165 -0.017 1 
0.371 0.072 -0.014 1 
0.369 0.133 -0.015 1 
0.399 0.093 -0.013 1 
0.397 0.075 0.008 2 
0.417 0.102 0.005 2 
0.361 0.065 0.032 2 
0.402 0.07 0.009 2 
0.408 0.101 0.007 2 
0.364 0.064 0.031 2 
0.415 0.078 0.004 2 
0.384 0.073 0.021 2 
0.39 0.071 0.022 2 
0.366 0.061 0.03 2 
0.423 0.046 0.066 2 
0.581 -0.024 0.081 2 
0.568 -0.023 0.059 2 
0.573 -0.027 0.059 2 
0.562 -0.03 0.048 2 
0.577 -0.035 0.061 2 
0.595 -0.055 0.056 2 
0.567 -0.034 0.032 2 
0.595 -0.048 0.065 2 
0.542 -0.018 0.042 2 
0.546 -0.022 0.042 2 
0.588 -0.028 0.081 2 
0.59 -0.047 0.061 2 
0.542 -0.018 0.052 2 
0.565 -0.03 0.052 2 
0.58 -0.039 0.053 2 
0.585 -0.043 0.053 2 
0.592 -0.055 0.048 2 
0.592 -0.055 0.052 2 
0.584 -0.028 0.074 2 
0.588 -0.047 0.053 2 
0.579 -0.042 0.031 2 
0.576 -0.024 0.07 2 
0.575 -0.038 0.043 2 
0.582 -0.028 0.07 2 
0.584 -0.035 0.072 2 
0.591 -0.04 0.072 2 
0.596 -0.044 0.072 2 
0.574 -0.024 0.066 2 
0.585 -0.032 0.066 2 
0.58 -0.046 0.031 2 
0.557 -0.023 0.048 2 
0.573 -0.038 0.032 2 
0.545 -0.019 0.032 2 
0.591 -0.047 0.069 2 
0.59 -0.059 0.064 2 
0.559 -0.026 0.031 2 
0.572 -0.038 0.039 2 
0.587 -0.043 0.061 2 
0.558 -0.023 0.02 2 
0.568 -0.034 0.043 2 
0.586 -0.051 0.037 2 
0.588 -0.055 0.037 2 
0.563 -0.055 0.038 2 
0.578 -0.028 0.015 2 
0.578 -0.039 0.02 2 
0.574 -0.035 0.021 2 
0.567 -0.027 0.019 2 
0.564 -0.027 0.041 2 
0.553 -0.019 0.021 2 
0.572 -0.027 0.062 2 
0.583 -0.054 0.019 2 
0.556 -0.023 0.024 2 
0.58 -0.046 0.042 2 
0.593 -0.036 0.08 2 
0.571 -0.023 0.073 2 
0.596 -0.04 0.076 2 
0.256 0.014 0.084 3 
0.257 0.02 0.084 3 
0.266 -0.004 0.076 3 
0.287 0.019 0.048 3 
0.257 0.001 0.084 3 
0.296 -0.004 0.036 3 
0.261 0.01 0.074 3 
0.277 -0.008 0.09 3 
0.261 0.004 0.074 3 
0.266 0.02 0.074 3 
0.311 0.036 0.031 3 
0.264 0.017 0.074 3 
0.265 -0.002 0.074 3 
0.276 -0.007 0.076 3 
0.269 -0.005 0.074 3 
0.303 -0.015 0.024 3 
0.318 0.024 0.027 3 
0.276 0.025 0.084 3 
0.288 0.02 0.044 3 
0.275 0.023 0.075 3 
0.286 0.007 0.042 3 
0.261 -0.005 0.084 3 
0.284 0.004 0.044 3 
0.282 0.013 0.044 3 
0.282 0.016 0.044 3 
0.302 -0.008 0.034 3 
0.265 0.024 0.1 3 
0.254 0.021 0.095 3 
0.315 0.023 0.024 3 
0.251 0.019 0.094 3 
0.248 0.014 0.092 3 
0.249 0.004 0.093 3 
0.252 -0.005 0.094 3 
0.261 -0.007 0.098 3 
0.269 0.017 0.064 3 
0.289 -0.01 0.107 3 
0.31 0.024 0.056 3 
0.306 0.014 0.026 3 
0.275 0.014 0.057 3 
0.282 0.02 0.058 3 
0.255 0.008 0.089 3 
0.286 0.021 0.067 3 
0.255 0.021 0.094 3 
0.27 0.014 0.064 3 
0.271 0.004 0.064 3 
0.295 0.014 0.033 3 
0.292 0.021 0.06 3 
0.257 -0.004 0.091 3 
0.304 -0.012 0.024 3 
0.258 -0.007 0.093 3 
0.275 0.001 0.06 3 
0.319 0.025 0.024 3 
0.275 -0.006 0.074 3 
0.304 0.004 0.024 3 
0.304 0.025 0.066 3 
0.265 -0.007 0.09 3 
0.265 0.014 0.072 3 
0.271 0.026 0.101 3 
0.255 0.021 0.095 3 
0.3 0.029 0.075 3 
0.302 -0.005 0.053 3 
0.277 0.024 0.074 3 
0.277 0.004 0.054 3 
0.278 0.014 0.054 3 
0.28 0.018 0.054 3 
0.265 0.023 0.09 3 
0.312 0.031 0.074 3 
0.287 -0.002 0.044 3 
0.295 0.021 0.039 3 
0.296 0.003 0.034 3 
0.294 0.004 0.034 3 
0.31 0.014 0.024 3 
0.304 0.021 0.033 3 
0.305 0.022 0.032 3 
0.303 -0.015 0.027 3 
0.296 0.031 0.034 3 
0.31 0 0.024 3 
0.287 -0.008 0.075 3 
0.285 -0.003 0.049 3 
0.298 -0.009 0.035 3 
0.313 0.021 0.024 3 
0.265 0.022 0.083 3 
0.268 -0.006 0.084 3 
0.303 0.007 0.024 3 
0.294 0.027 0.031 3 
0.309 -0.007 0.033 3 
0.306 -0.004 0.031 3 
0.309 0.029 0.03 3 
0.294 0.012 0.033 3 
0.321 0.039 0.028 3 
0.48 -0.348 0.094 3 
0.479 -0.337 0.094 3 
0.472 -0.145 0.163 3 
0.471 -0.185 0.164 3 
0.471 -0.177 0.164 3 
0.479 -0.327 0.094 3 
0.472 -0.225 0.094 3 
0.472 -0.216 0.094 3 
0.472 -0.205 0.094 3 
0.475 -0.223 0.166 3 
0.473 -0.257 0.092 3 
0.477 -0.315 0.093 3 
0.475 -0.283 0.093 3 
0.471 -0.165 0.163 3 
0.466 -0.076 0.093 3 
0.473 -0.266 0.092 3 
0.474 -0.276 0.092 3 
0.474 -0.276 0.084 3 
0.477 -0.308 0.093 3 
0.471 -0.156 0.163 3 
0.475 -0.296 0.093 3 
0.479 -0.357 0.155 3 
0.472 -0.237 0.092 3 
0.481 -0.355 0.134 3 
0.479 -0.345 0.103 3 
0.472 -0.195 0.162 3 
0.473 -0.207 0.162 3 
0.47 -0.166 0.033 3 
0.473 -0.216 0.163 3 
0.475 -0.226 0.163 3 
0.475 -0.235 0.163 3 
0.475 -0.247 0.164 3 
0.475 -0.257 0.164 3 
0.475 -0.283 0.098 3 
0.478 -0.357 0.103 3 
0.481 -0.317 0.144 3 
0.479 -0.338 0.103 3 
0.479 -0.327 0.102 3 
0.478 -0.306 0.102 3 
0.474 -0.286 0.101 3 
0.48 -0.326 0.144 3 
0.476 -0.297 0.104 3 
0.475 -0.287 0.104 3 
0.474 -0.276 0.104 3 
0.472 -0.265 0.103 3 
0.472 -0.256 0.103 3 
0.466 -0.066 0.093 3 
0.47 -0.175 0.094 3 
0.47 -0.166 0.094 3 
0.47 -0.155 0.094 3 
0.468 -0.107 0.104 3 
0.467 -0.126 0.093 3 
0.468 -0.115 0.093 3 
0.468 -0.107 0.093 3 
0.468 -0.096 0.093 3 
0.467 -0.085 0.093 3 
0.47 -0.186 0.083 3 
0.472 -0.196 0.094 3 
0.467 -0.055 0.093 3 
0.472 -0.256 0.052 3 
0.466 -0.044 0.044 3 
0.482 -0.329 0.172 3 
0.47 -0.166 0.022 3 
0.482 -0.336 0.173 3 
0.473 -0.256 0.084 3 
0.483 -0.345 0.173 3 
0.482 -0.355 0.174 3 
0.481 -0.325 0.184 3 
0.469 -0.146 0.074 3 
0.469 -0.135 0.074 3 
0.469 -0.126 0.074 3 
0.468 -0.115 0.074 3 
0.469 -0.107 0.074 3 
0.468 -0.096 0.074 3 
0.467 -0.085 0.074 3 
0.467 -0.055 0.074 3 
0.467 -0.047 0.074 3 
0.481 -0.305 0.183 3 
0.481 -0.315 0.184 3 
0.471 -0.187 0.094 3 
0.47 -0.155 0.074 3 
0.479 -0.306 0.173 3 
0.473 -0.256 0.072 3 
0.472 -0.146 0.172 3 
0.471 -0.157 0.172 3 
0.473 -0.178 0.173 3 
0.474 -0.187 0.174 3 
0.474 -0.196 0.174 3 
0.474 -0.217 0.174 3 
0.484 -0.339 0.183 3 
0.484 -0.346 0.183 3 
0.474 -0.226 0.172 3 
0.471 -0.216 0.072 3 
0.48 -0.348 0.073 3 
0.479 -0.336 0.073 3 
0.476 -0.316 0.073 3 
0.475 -0.306 0.073 3 
0.475 -0.299 0.073 3 
0.474 -0.295 0.072 3 
0.474 -0.286 0.072 3 
0.473 -0.275 0.072 3 
0.473 -0.266 0.072 3 
0.472 -0.246 0.072 3 
0.473 -0.235 0.072 3 
0.473 -0.226 0.072 3 
0.476 -0.23 0.172 3 
0.471 -0.075 0.173 3 
0.471 -0.207 0.072 3 
0.471 -0.195 0.072 3 
0.471 -0.187 0.072 3 
0.471 -0.086 0.173 3 
0.471 -0.095 0.173 3 
0.471 -0.106 0.174 3 
0.472 -0.117 0.174 3 
0.472 -0.137 0.174 3 
0.481 -0.301 0.183 3 
0.47 -0.166 0.074 3 
0.479 -0.276 0.172 3 
0.468 -0.107 0.082 3 
0.468 -0.096 0.082 3 
0.467 -0.087 0.082 3 
0.466 -0.076 0.082 3 
0.467 -0.05 0.082 3 
0.475 -0.316 0.014 3 
0.47 -0.067 0.164 3 
0.47 -0.075 0.164 3 
0.469 -0.102 0.164 3 
0.465 -0.071 0.084 3 
0.465 -0.06 0.084 3 
0.469 -0.105 0.164 3 
0.468 -0.115 0.082 3 
0.478 -0.285 0.172 3 
0.478 -0.298 0.173 3 
0.479 -0.316 0.174 3 
0.469 -0.206 0.014 3 
0.469 -0.116 0.123 3 
0.471 -0.225 0.033 3 
0.47 -0.086 0.162 3 
0.47 -0.116 0.162 3 
0.474 -0.295 0.09 3 
0.471 -0.125 0.163 3 
0.472 -0.137 0.163 3 
0.475 -0.296 0.084 3 
0.475 -0.235 0.172 3 
0.475 -0.248 0.173 3 
0.474 -0.285 0.044 3 
0.477 -0.355 0.082 3 
0.48 -0.348 0.082 3 
0.479 -0.336 0.082 3 
0.478 -0.325 0.082 3 
0.472 -0.205 0.083 3 
0.476 -0.258 0.173 3 
0.477 -0.265 0.174 3 
0.476 -0.317 0.084 3 
0.475 -0.357 0.094 3 
0.474 -0.286 0.084 3 
0.473 -0.266 0.084 3 
0.472 -0.237 0.083 3 
0.472 -0.225 0.083 3 
0.472 -0.216 0.083 3 
0.471 -0.195 0.083 3 
0.47 -0.177 0.083 3 
0.47 -0.166 0.083 3 
0.469 -0.157 0.082 3 
0.47 -0.146 0.083 3 
0.468 -0.126 0.082 3 
0.47 -0.175 0.124 3 
0.469 -0.127 0.134 3 
0.475 -0.315 0.032 3 
0.473 -0.236 0.123 3 
0.473 -0.226 0.123 3 
0.473 -0.215 0.123 3 
0.473 -0.206 0.122 3 
0.472 -0.196 0.122 3 
0.481 -0.337 0.142 3 
0.472 -0.187 0.122 3 
0.477 -0.277 0.154 3 
0.477 -0.287 0.154 3 
0.473 -0.257 0.123 3 
0.469 -0.116 0.134 3 
0.47 -0.167 0.124 3 
0.469 -0.146 0.124 3 
0.469 -0.135 0.124 3 
0.469 -0.127 0.123 3 
0.469 -0.105 0.123 3 
0.469 -0.096 0.123 3 
0.468 -0.085 0.123 3 
0.468 -0.077 0.123 3 
0.467 -0.066 0.122 3 
0.467 -0.06 0.122 3 
0.466 -0.063 0.144 3 
0.474 -0.246 0.152 3 
0.474 -0.246 0.143 3 
0.474 -0.237 0.143 3 
0.474 -0.225 0.143 3 
0.466 -0.063 0.147 3 
0.474 -0.237 0.152 3 
0.478 -0.355 0.124 3 
0.479 -0.345 0.124 3 
0.479 -0.335 0.124 3 
0.479 -0.328 0.123 3 
0.479 -0.317 0.123 3 
0.478 -0.306 0.123 3 
0.473 -0.215 0.142 3 
0.468 -0.066 0.144 3 
0.475 -0.256 0.153 3 
0.476 -0.266 0.153 3 
0.475 -0.287 0.124 3 
0.475 -0.271 0.124 3 
0.472 -0.205 0.142 3 
0.467 -0.063 0.133 3 
0.468 -0.066 0.133 3 
0.468 -0.077 0.134 3 
0.469 -0.085 0.134 3 
0.473 -0.248 0.123 3 
0.469 -0.096 0.134 3 
0.473 -0.197 0.133 3 
0.478 -0.346 0.064 3 
0.475 -0.268 0.133 3 
0.473 -0.257 0.132 3 
0.473 -0.245 0.132 3 
0.47 -0.187 0.144 3 
0.468 -0.077 0.142 3 
0.469 -0.085 0.142 3 
0.47 -0.176 0.144 3 
0.473 -0.236 0.134 3 
0.473 -0.227 0.134 3 
0.473 -0.215 0.134 3 
0.473 -0.206 0.134 3 
0.469 -0.165 0.044 3 
0.471 -0.187 0.133 3 
0.47 -0.175 0.133 3 
0.47 -0.167 0.132 3 
0.47 -0.147 0.132 3 
0.47 -0.136 0.132 3 
0.476 -0.307 0.084 3 
0.469 -0.108 0.142 3 
0.469 -0.116 0.142 3 
0.469 -0.127 0.143 3 
0.469 -0.147 0.143 3 
0.47 -0.156 0.143 3 
0.48 -0.358 0.152 3 
0.479 -0.295 0.152 3 
0.479 -0.305 0.152 3 
0.479 -0.315 0.153 3 
0.48 -0.326 0.153 3 
0.481 -0.345 0.142 3 
0.481 -0.338 0.154 3 
0.48 -0.347 0.133 3 
0.48 -0.336 0.133 3 
0.473 -0.278 0.044 3 
0.48 -0.326 0.132 3 
0.474 -0.286 0.092 3 
0.478 -0.337 0.114 3 
0.475 -0.25 0.144 3 
0.481 -0.345 0.151 3 
0.48 -0.315 0.132 3 
0.479 -0.308 0.132 3 
0.474 -0.28 0.13 3 
0.474 -0.267 0.13 3 
0.47 -0.196 0.144 3 
0.47 -0.155 0.124 3 
0.481 -0.355 0.137 3 
0.477 -0.296 0.134 3 
0.476 -0.288 0.133 3 
0.475 -0.275 0.133 3 
0.469 -0.086 0.153 3 
0.469 -0.135 0.082 3 
0.468 -0.115 0.104 3 
0.468 -0.096 0.104 3 
0.468 -0.085 0.104 3 
0.467 -0.077 0.104 3 
0.466 -0.066 0.103 3 
0.468 -0.058 0.104 3 
0.478 -0.325 0.073 3 
0.475 -0.265 0.144 3 
0.468 -0.066 0.153 3 
0.468 -0.077 0.153 3 
0.474 -0.267 0.124 3 
0.468 -0.126 0.104 3 
0.47 -0.097 0.154 3 
0.472 -0.247 0.092 3 
0.469 -0.105 0.153 3 
0.469 -0.116 0.154 3 
0.47 -0.128 0.154 3 
0.47 -0.136 0.154 3 
0.478 -0.357 0.112 3 
0.472 -0.247 0.024 3 
0.479 -0.345 0.112 3 
0.479 -0.305 0.143 3 
0.473 -0.247 0.083 3 
0.474 -0.225 0.16 3 
0.472 -0.238 0.103 3 
0.472 -0.225 0.103 3 
0.472 -0.217 0.103 3 
0.472 -0.205 0.103 3 
0.472 -0.196 0.102 3 
0.472 -0.187 0.102 3 
0.471 -0.175 0.102 3 
0.479 -0.298 0.143 3 
0.47 -0.167 0.144 3 
0.47 -0.166 0.102 3 
0.477 -0.286 0.142 3 
0.47 -0.155 0.044 3 
0.479 -0.327 0.114 3 
0.469 -0.135 0.093 3 
0.474 -0.237 0.16 3 
0.477 -0.268 0.162 3 
0.477 -0.277 0.163 3 
0.477 -0.287 0.163 3 
0.477 -0.297 0.163 3 
0.473 -0.354 0.058 3 
0.478 -0.308 0.164 3 
0.469 -0.146 0.104 3 
0.472 -0.238 0.024 3 
0.469 -0.135 0.104 3 
0.47 -0.187 0.152 3 
0.468 -0.135 0.112 3 
0.469 -0.127 0.112 3 
0.468 -0.115 0.112 3 
0.468 -0.107 0.112 3 
0.468 -0.096 0.112 3 
0.475 -0.275 0.144 3 
0.467 -0.137 0.012 3 
0.471 -0.148 0.152 3 
0.475 -0.259 0.144 3 
0.471 -0.156 0.152 3 
0.471 -0.165 0.152 3 
0.47 -0.176 0.152 3 
0.472 -0.187 0.114 3 
0.471 -0.197 0.153 3 
0.472 -0.206 0.153 3 
0.473 -0.215 0.154 3 
0.466 -0.066 0.034 3 
0.467 -0.085 0.114 3 
0.467 -0.077 0.114 3 
0.467 -0.066 0.114 3 
0.468 -0.061 0.114 3 
0.474 -0.255 0.144 3 
0.474 -0.228 0.154 3 
0.475 -0.315 0.044 3 
0.481 -0.338 0.163 3 
0.478 -0.316 0.114 3 
0.477 -0.305 0.114 3 
0.479 -0.315 0.162 3 
0.476 -0.298 0.113 3 
0.476 -0.288 0.113 3 
0.475 -0.284 0.113 3 
0.474 -0.276 0.112 3 
0.472 -0.265 0.112 3 
0.472 -0.256 0.112 3 
0.473 -0.248 0.112 3 
0.471 -0.207 0.033 3 
0.481 -0.328 0.163 3 
0.472 -0.247 0.103 3 
0.482 -0.347 0.164 3 
0.474 -0.276 0.115 3 
0.472 -0.235 0.114 3 
0.473 -0.226 0.114 3 
0.473 -0.217 0.114 3 
0.472 -0.205 0.114 3 
0.472 -0.196 0.114 3 
0.471 -0.175 0.113 3 
0.471 -0.167 0.113 3 
0.469 -0.155 0.113 3 
0.469 -0.146 0.113 3 
0.474 -0.073 0.185 3 
0.484 -0.348 0.202 3 
0.475 -0.305 0.023 3 
0.476 -0.316 0.023 3 
0.476 -0.327 0.023 3 
0.47 -0.146 0.093 3 
0.474 -0.295 0.012 3 
0.477 -0.338 0.023 3 
0.478 -0.346 0.022 3 
0.469 -0.105 0.134 3 
0.476 -0.355 0.022 3 
0.475 -0.292 0.023 3 
0.474 -0.098 0.186 3 
0.474 -0.147 0.187 3 
0.474 -0.158 0.187 3 
0.474 -0.167 0.187 3 
0.474 -0.208 0.189 3 
0.465 -0.055 0.034 3 
0.466 -0.047 0.044 3 
0.479 -0.258 0.192 3 
0.467 -0.077 0.074 3 
0.479 -0.267 0.193 3 
0.469 -0.096 0.044 3 
0.471 -0.222 0.024 3 
0.471 -0.225 0.024 3 
0.472 -0.256 0.024 3 
0.472 -0.267 0.024 3 
0.473 -0.275 0.024 3 
0.47 -0.146 0.044 3 
0.47 -0.135 0.044 3 
0.469 -0.126 0.044 3 
0.468 -0.115 0.044 3 
0.469 -0.107 0.044 3 
0.467 -0.066 0.044 3 
0.474 -0.285 0.024 3 
0.467 -0.085 0.044 3 
0.467 -0.077 0.044 3 
0.471 -0.216 0.044 3 
0.485 -0.323 0.201 3 
0.466 -0.055 0.044 3 
0.486 -0.328 0.202 3 
0.485 -0.338 0.202 3 
0.485 -0.345 0.202 3 
0.469 -0.107 0.052 3 
0.471 -0.207 0.052 3 
0.471 -0.195 0.052 3 
0.471 -0.187 0.052 3 
0.47 -0.177 0.052 3 
0.469 -0.165 0.052 3 
0.469 -0.157 0.052 3 
0.47 -0.146 0.052 3 
0.47 -0.135 0.052 3 
0.469 -0.126 0.052 3 
0.468 -0.115 0.052 3 
0.471 -0.216 0.052 3 
0.468 -0.096 0.052 3 
0.467 -0.085 0.052 3 
0.467 -0.077 0.052 3 
0.467 -0.066 0.052 3 
0.466 -0.055 0.052 3 
0.466 -0.047 0.052 3 
0.466 -0.044 0.052 3 
0.47 -0.165 0.174 3 
0.469 -0.135 0.143 3 
0.466 -0.066 0.023 3 
0.48 -0.278 0.193 3 
0.48 -0.288 0.194 3 
0.475 -0.289 0.047 3 
0.475 -0.357 0.049 3 
0.475 -0.296 0.023 3 
0.473 -0.354 0.052 3 
0.478 -0.339 0.052 3 
0.466 -0.039 0.023 3 
0.465 -0.047 0.023 3 
0.465 -0.055 0.023 3 
0.47 -0.175 0.044 3 
0.467 -0.076 0.023 3 
0.477 -0.327 0.052 3 
0.477 -0.317 0.052 3 
0.476 -0.306 0.052 3 
0.475 -0.295 0.052 3 
0.472 -0.277 0.052 3 
0.472 -0.265 0.052 3 
0.473 -0.247 0.052 3 
0.472 -0.237 0.052 3 
0.474 -0.113 0.189 3 
0.472 -0.247 0.033 3 
0.472 -0.265 0.033 3 
0.476 -0.096 0.189 3 
0.474 -0.275 0.032 3 
0.474 -0.285 0.032 3 
0.475 -0.292 0.032 3 
0.475 -0.295 0.032 3 
0.476 -0.306 0.032 3 
0.475 -0.325 0.032 3 
0.475 -0.107 0.189 3 
0.474 -0.09 0.189 3 
0.474 -0.115 0.189 3 
0.474 -0.127 0.189 3 
0.475 -0.13 0.19 3 
0.474 -0.135 0.189 3 
0.475 -0.142 0.19 3 
0.475 -0.074 0.189 3 
0.479 -0.317 0.102 3 
0.476 -0.145 0.19 3 
0.476 -0.157 0.191 3 
0.468 -0.096 0.034 3 
0.47 -0.175 0.033 3 
0.47 -0.186 0.033 3 
0.47 -0.155 0.033 3 
0.47 -0.146 0.033 3 
0.469 -0.135 0.033 3 
0.469 -0.126 0.033 3 
0.466 -0.125 0.012 3 
0.469 -0.115 0.033 3 
0.468 -0.126 0.004 3 
0.469 -0.107 0.033 3 
0.476 -0.165 0.191 3 
0.468 -0.085 0.034 3 
0.467 -0.077 0.034 3 
0.466 -0.047 0.034 3 
0.465 -0.041 0.034 3 
0.476 -0.077 0.189 3 
0.47 -0.195 0.033 3 
0.471 -0.216 0.033 3 
0.475 -0.085 0.189 3 
0.472 -0.238 0.033 3 
0.472 -0.265 0.044 3 
0.483 -0.297 0.199 3 
0.474 -0.307 0.041 3 
0.464 -0.049 0.042 3 
0.483 -0.308 0.199 3 
0.476 -0.358 0.043 3 
0.478 -0.346 0.043 3 
0.478 -0.339 0.043 3 
0.476 -0.326 0.043 3 
0.475 -0.305 0.044 3 
0.475 -0.295 0.044 3 
0.48 -0.288 0.197 3 
0.474 -0.285 0.012 3 
0.472 -0.256 0.044 3 
0.484 -0.315 0.2 3 
0.472 -0.247 0.044 3 
0.471 -0.237 0.044 3 
0.471 -0.225 0.044 3 
0.471 -0.207 0.044 3 
0.471 -0.195 0.044 3 
0.471 -0.187 0.044 3 
0.476 -0.216 0.193 3 
0.466 -0.066 0.074 3 
0.477 -0.178 0.192 3 
0.476 -0.186 0.192 3 
0.476 -0.195 0.192 3 
0.477 -0.355 0.034 3 
0.474 -0.079 0.188 3 
0.479 -0.347 0.034 3 
0.478 -0.335 0.034 3 
0.475 -0.206 0.192 3 
0.472 -0.126 0.171 3 
0.477 -0.355 0.073 3 
0.478 -0.227 0.194 3 
0.478 -0.236 0.194 3 
0.497 -0.076 0.198 3 
0.478 -0.245 0.195 3 
0.477 -0.248 0.194 3 
0.478 -0.257 0.195 3 
0.479 -0.267 0.196 3 
0.479 -0.277 0.196 3 
0.474 -0.356 0.014 3 
0.472 -0.246 0.064 3 
0.469 -0.155 0.104 3 
0.476 -0.306 0.064 3 
0.474 -0.176 0.182 3 
0.475 -0.303 0.064 3 
0.474 -0.295 0.064 3 
0.473 -0.285 0.064 3 
0.472 -0.277 0.064 3 
0.472 -0.265 0.064 3 
0.472 -0.256 0.064 3 
0.485 -0.344 0.193 3 
0.473 -0.238 0.064 3 
0.472 -0.225 0.064 3 
0.471 -0.216 0.064 3 
0.471 -0.207 0.064 3 
0.472 -0.265 0.013 3 
0.472 -0.255 0.013 3 
0.484 -0.336 0.192 3 
0.471 -0.246 0.013 3 
0.474 -0.349 0.011 3 
0.485 -0.348 0.19 3 
0.479 -0.286 0.184 3 
0.478 -0.266 0.183 3 
0.477 -0.256 0.182 3 
0.477 -0.246 0.182 3 
0.47 -0.177 0.074 3 
0.475 -0.224 0.181 3 
0.471 -0.225 0.052 3 
0.475 -0.289 0.044 3 
0.474 -0.308 0.012 3 
0.473 -0.278 0.012 3 
0.475 -0.357 0.064 3 
0.47 -0.175 0.003 3 
0.484 -0.347 0.193 3 
0.478 -0.335 0.064 3 
0.478 -0.325 0.064 3 
0.477 -0.317 0.064 3 
0.474 -0.217 0.183 3 
0.469 -0.115 0.063 3 
0.475 -0.23 0.184 3 
0.468 -0.107 0.063 3 
0.468 -0.096 0.063 3 
0.467 -0.085 0.063 3 
0.467 -0.077 0.063 3 
0.475 -0.182 0.182 3 
0.467 -0.066 0.063 3 
0.474 -0.226 0.183 3 
0.478 -0.346 0.052 3 
0.474 -0.205 0.183 3 
0.475 -0.2 0.183 3 
0.468 -0.165 0.014 3 
0.47 -0.166 0.003 3 
0.466 -0.055 0.063 3 
0.467 -0.047 0.063 3 
0.476 -0.186 0.183 3 
0.474 -0.196 0.182 3 
0.468 -0.185 0.014 3 
0.47 -0.236 0.013 3 
0.47 -0.227 0.013 3 
0.47 -0.215 0.014 3 
0.472 -0.196 0.064 3 
0.472 -0.187 0.063 3 
0.469 -0.197 0.014 3 
0.475 -0.236 0.184 3 
0.468 -0.151 0.014 3 
0.479 -0.277 0.184 3 
0.468 -0.157 0.014 3 
0.468 -0.176 0.014 3 
0.47 -0.177 0.063 3 
0.47 -0.166 0.063 3 
0.47 -0.155 0.063 3 
0.469 -0.146 0.063 3 
0.469 -0.135 0.063 3 
0.468 -0.126 0.063 3 
0.472 -0.07 0.173 3 
0.468 -0.145 0.023 3 
0.483 -0.318 0.194 3 
0.469 -0.157 0.022 3 
0.466 -0.044 0.055 3 
0.47 -0.175 0.022 3 
0.484 -0.326 0.194 3 
0.47 -0.186 0.022 3 
0.47 -0.195 0.022 3 
0.483 -0.307 0.193 3 
0.471 -0.207 0.022 3 
0.474 -0.295 0.021 3 
0.474 -0.305 0.018 3 
0.474 -0.076 0.183 3 
0.473 -0.07 0.182 3 
0.469 -0.155 0.003 3 
0.47 -0.155 0.132 3 
0.474 -0.147 0.184 3 
0.473 -0.087 0.182 3 
0.473 -0.095 0.183 3 
0.472 -0.106 0.182 3 
0.472 -0.115 0.182 3 
0.474 -0.127 0.184 3 
0.473 -0.135 0.183 3 
0.475 -0.144 0.184 3 
0.468 -0.115 0.023 3 
0.468 -0.146 0.003 3 
0.468 -0.126 0.023 3 
0.475 -0.15 0.184 3 
0.474 -0.155 0.184 3 
0.474 -0.167 0.184 3 
0.474 -0.202 0.185 3 
0.482 -0.296 0.192 3 
0.468 -0.137 0.023 3 
0.464 -0.039 0.018 3 
0.475 -0.297 0.122 3 
0.465 -0.057 0.012 3 
0.465 -0.065 0.012 3 
0.477 -0.345 0.014 3 
0.474 -0.355 0.061 3 
0.476 -0.337 0.014 3 
0.475 -0.326 0.014 3 
0.467 -0.087 0.023 3 
0.467 -0.095 0.023 3 
0.475 -0.312 0.014 3 
0.484 -0.336 0.195 3 
0.474 -0.205 0.174 3 
0.484 -0.329 0.195 3 
0.465 -0.076 0.012 3 
0.464 -0.047 0.018 3 
0.462 -0.075 0.008 3 
0.472 -0.256 0.033 3 
0.468 -0.137 0.004 3 
0.469 -0.096 0.142 3 
0.468 -0.115 0.004 3 
0.475 -0.25 0.152 3 
0.468 -0.107 0.004 3 
0.475 -0.278 0.124 3 
0.464 -0.07 0.01 3 
0.473 -0.285 0.052 3 
0.466 -0.117 0.012 3 
0.466 -0.106 0.012 3 
0.467 -0.106 0.023 3 
0.466 -0.095 0.012 3 
0.466 -0.087 0.012 3 
0.464 0.249 0.054 3 
0.464 0.222 0.148 3 
0.464 0.178 0.142 3 
0.475 0.359 0.199 3 
0.464 0.183 0.093 3 
0.467 0.132 0.164 3 
0.464 0.197 0.093 3 
0.464 0.114 0.138 3 
0.464 0.086 0.135 3 
0.463 0.332 0.062 3 
0.464 0.143 0.084 3 
0.472 0.352 0.198 3 
0.464 0.246 0.149 3 
0.465 0.144 0.114 3 
0.464 0.255 0.144 3 
0.471 0.143 0.188 3 
0.471 0.282 0.193 3 
0.464 0.284 0.093 3 
0.47 0.271 0.192 3 
0.471 0.262 0.192 3 
0.468 0.251 0.19 3 
0.47 0.154 0.188 3 
0.47 0.163 0.189 3 
0.47 0.174 0.189 3 
0.468 0.244 0.19 3 
0.47 0.183 0.189 3 
0.469 0.194 0.189 3 
0.465 0.277 0.144 3 
0.465 0.271 0.144 3 
0.465 0.262 0.144 3 
0.471 0.134 0.188 3 
0.465 0.249 0.144 3 
0.464 0.243 0.143 3 
0.465 0.24 0.143 3 
0.464 0.234 0.143 3 
0.464 0.222 0.143 3 
0.464 0.213 0.143 3 
0.465 0.211 0.143 3 
0.465 0.202 0.143 3 
0.469 0.203 0.189 3 
0.468 0.232 0.19 3 
0.469 0.212 0.189 3 
0.469 0.224 0.19 3 
0.465 0.193 0.142 3 
0.465 0.173 0.142 3 
0.465 0.184 0.142 3 
0.465 0.114 0.144 3 
0.466 0.313 0.143 3 
0.467 0.321 0.143 3 
0.467 0.331 0.144 3 
0.469 0.083 0.186 3 
0.47 0.094 0.187 3 
0.464 0.076 0.157 3 
0.465 0.34 0.144 3 
0.471 0.103 0.187 3 
0.466 0.282 0.174 3 
0.471 0.34 0.197 3 
0.465 0.161 0.144 3 
0.465 0.147 0.144 3 
0.465 0.142 0.144 3 
0.465 0.133 0.144 3 
0.465 0.122 0.144 3 
0.465 0.303 0.142 3 
0.465 0.103 0.144 3 
0.471 0.333 0.196 3 
0.473 0.324 0.196 3 
0.466 0.093 0.144 3 
0.473 0.313 0.195 3 
0.471 0.305 0.194 3 
0.471 0.301 0.194 3 
0.464 0.183 0.114 3 
0.471 0.291 0.193 3 
0.472 0.112 0.188 3 
0.471 0.123 0.188 3 
0.465 0.084 0.144 3 
0.463 0.162 0.063 3 
0.464 0.081 0.143 3 
0.463 0.073 0.143 3 
0.467 0.082 0.163 3 
0.466 0.269 0.164 3 
0.472 0.355 0.189 3 
0.463 0.282 0.023 3 
0.468 0.152 0.173 3 
0.47 0.296 0.184 3 
0.465 0.11 0.036 3 
0.47 0.293 0.184 3 
0.467 0.281 0.183 3 
0.464 0.285 0.113 3 
0.467 0.274 0.182 3 
0.466 0.263 0.164 3 
0.467 0.093 0.164 3 
0.466 0.104 0.163 3 
0.466 0.112 0.163 3 
0.467 0.124 0.164 3 
0.469 0.263 0.183 3 
0.467 0.143 0.164 3 
0.466 0.154 0.164 3 
0.466 0.162 0.164 3 
0.465 0.174 0.164 3 
0.464 0.073 0.16 3 
0.466 0.338 0.164 3 
0.465 0.122 0.122 3 
0.468 0.164 0.182 3 
0.469 0.153 0.182 3 
0.464 0.204 0.14 3 
0.47 0.142 0.182 3 
0.47 0.134 0.182 3 
0.464 0.273 0.133 3 
0.464 0.203 0.033 3 
0.465 0.144 0.133 3 
0.464 0.102 0.084 3 
0.465 0.182 0.162 3 
0.465 0.194 0.162 3 
0.466 0.203 0.163 3 
0.466 0.212 0.163 3 
0.466 0.224 0.163 3 
0.466 0.233 0.163 3 
0.465 0.241 0.163 3 
0.465 0.253 0.164 3 
0.465 0.274 0.153 3 
0.469 0.144 0.173 3 
0.465 0.293 0.142 3 
0.468 0.35 0.181 3 
0.467 0.201 0.174 3 
0.464 0.252 0.143 3 
0.464 0.242 0.104 3 
0.467 0.192 0.174 3 
0.464 0.274 0.032 3 
0.467 0.184 0.174 3 
0.466 0.172 0.173 3 
0.466 0.163 0.173 3 
0.464 0.294 0.094 3 
0.469 0.133 0.173 3 
0.462 0.213 0.014 3 
0.469 0.122 0.173 3 
0.468 0.113 0.172 3 
0.468 0.102 0.172 3 
0.465 0.144 0.122 3 
0.468 0.094 0.172 3 
0.468 0.083 0.172 3 
0.465 0.102 0.044 3 
0.467 0.252 0.173 3 
0.464 0.238 0.093 3 
0.467 0.313 0.172 3 
0.467 0.323 0.173 3 
0.466 0.332 0.173 3 
0.467 0.34 0.174 3 
0.468 0.345 0.174 3 
0.468 0.223 0.172 3 
0.467 0.234 0.172 3 
0.467 0.243 0.172 3 
0.464 0.214 0.112 3 
0.467 0.333 0.164 3 
0.467 0.264 0.173 3 
0.464 0.342 0.143 3 
0.467 0.274 0.174 3 
0.467 0.293 0.174 3 
0.467 0.296 0.174 3 
0.464 0.113 0.114 3 
0.47 0.334 0.183 3 
0.469 0.322 0.182 3 
0.469 0.312 0.182 3 
0.466 0.142 0.153 3 
0.464 0.323 0.054 3 
0.463 0.339 0.062 3 
0.462 0.313 0.014 3 
0.449 0.064 0.101 3 
0.466 0.093 0.152 3 
0.466 0.104 0.152 3 
0.465 0.114 0.152 3 
0.466 0.123 0.152 3 
0.466 0.134 0.153 3 
0.465 0.122 0.063 3 
0.464 0.262 0.063 3 
0.466 0.154 0.153 3 
0.465 0.162 0.153 3 
0.466 0.173 0.153 3 
0.466 0.179 0.153 3 
0.464 0.181 0.153 3 
0.465 0.194 0.154 3 
0.466 0.203 0.154 3 
0.465 0.211 0.154 3 
0.465 0.223 0.154 3 
0.465 0.262 0.152 3 
0.467 0.332 0.153 3 
0.467 0.342 0.153 3 
0.467 0.346 0.153 3 
0.462 0.242 0.013 3 
0.464 0.282 0.133 3 
0.465 0.312 0.134 3 
0.464 0.234 0.151 3 
0.464 0.24 0.152 3 
0.465 0.244 0.152 3 
0.465 0.253 0.152 3 
0.465 0.232 0.154 3 
0.466 0.282 0.153 3 
0.465 0.293 0.153 3 
0.464 0.147 0.13 3 
0.464 0.299 0.153 3 
0.465 0.303 0.154 3 
0.464 0.094 0.103 3 
0.468 0.342 0.183 3 
0.466 0.311 0.154 3 
0.465 0.246 0.124 3 
0.468 0.202 0.183 3 
0.464 0.293 0.159 3 
0.464 0.299 0.159 3 
0.465 0.163 0.084 3 
0.464 0.132 0.073 3 
0.464 0.306 0.159 3 
0.466 0.345 0.162 3 
0.468 0.223 0.184 3 
0.464 0.081 0.074 3 
0.468 0.211 0.183 3 
0.464 0.206 0.123 3 
0.467 0.234 0.184 3 
0.468 0.193 0.183 3 
0.469 0.182 0.183 3 
0.469 0.174 0.183 3 
0.465 0.284 0.162 3 
0.465 0.294 0.162 3 
0.465 0.303 0.163 3 
0.466 0.311 0.163 3 
0.466 0.321 0.164 3 
0.463 0.333 0.123 3 
0.464 0.076 0.154 3 
0.471 0.351 0.194 3 
0.47 0.342 0.193 3 
0.469 0.334 0.192 3 
0.47 0.324 0.192 3 
0.47 0.122 0.184 3 
0.47 0.105 0.184 3 
0.47 0.103 0.184 3 
0.464 0.336 0.054 3 
0.464 0.073 0.154 3 
0.467 0.322 0.152 3 
0.465 0.079 0.154 3 
0.464 0.246 0.157 3 
0.47 0.094 0.184 3 
0.469 0.083 0.184 3 
0.467 0.207 0.174 3 
0.464 0.255 0.158 3 
0.475 0.359 0.193 3 
0.468 0.247 0.184 3 
0.467 0.243 0.184 3 
0.464 0.143 0.063 3 
0.464 0.243 0.054 3 
0.464 0.214 0.024 3 
0.463 0.162 0.033 3 
0.464 0.064 0.063 3 
0.464 0.067 0.063 3 
0.465 0.073 0.063 3 
0.465 0.081 0.063 3 
0.464 0.083 0.063 3 
0.464 0.094 0.063 3 
0.464 0.1 0.063 3 
0.465 0.103 0.063 3 
0.465 0.114 0.063 3 
0.464 0.124 0.063 3 
0.465 0.133 0.063 3 
0.465 0.136 0.063 3 
0.464 0.154 0.052 3 
0.463 0.173 0.063 3 
0.464 0.182 0.063 3 
0.464 0.194 0.063 3 
0.464 0.2 0.063 3 
0.465 0.203 0.063 3 
0.465 0.209 0.063 3 
0.464 0.214 0.063 3 
0.464 0.223 0.063 3 
0.463 0.234 0.063 3 
0.463 0.243 0.063 3 
0.464 0.249 0.063 3 
0.465 0.253 0.063 3 
0.464 0.271 0.063 3 
0.465 0.275 0.063 3 
0.464 0.214 0.054 3 
0.465 0.073 0.052 3 
0.465 0.083 0.052 3 
0.465 0.094 0.052 3 
0.464 0.097 0.052 3 
0.465 0.103 0.052 3 
0.465 0.113 0.052 3 
0.465 0.133 0.052 3 
0.465 0.144 0.052 3 
0.464 0.163 0.052 3 
0.464 0.174 0.052 3 
0.447 0.051 0.055 3 
0.464 0.194 0.054 3 
0.464 0.202 0.054 3 
0.465 0.209 0.054 3 
0.464 0.284 0.063 3 
0.465 0.218 0.054 3 
0.464 0.223 0.054 3 
0.464 0.232 0.054 3 
0.465 0.253 0.054 3 
0.464 0.262 0.054 3 
0.464 0.274 0.054 3 
0.464 0.283 0.054 3 
0.463 0.293 0.054 3 
0.463 0.302 0.054 3 
0.465 0.341 0.054 3 
0.465 0.086 0.057 3 
0.465 0.218 0.057 3 
0.465 0.341 0.057 3 
0.464 0.34 0.074 3 
0.464 0.203 0.074 3 
0.464 0.214 0.074 3 
0.464 0.223 0.074 3 
0.464 0.232 0.074 3 
0.465 0.244 0.074 3 
0.464 0.249 0.074 3 
0.465 0.253 0.074 3 
0.465 0.262 0.074 3 
0.464 0.282 0.136 3 
0.464 0.284 0.074 3 
0.464 0.294 0.074 3 
0.464 0.303 0.074 3 
0.463 0.312 0.074 3 
0.463 0.322 0.074 3 
0.463 0.332 0.074 3 
0.464 0.194 0.074 3 
0.465 0.265 0.071 3 
0.451 0.054 0.078 3 
0.465 0.25 0.079 3 
0.465 0.256 0.079 3 
0.462 0.137 0.014 3 
0.464 0.154 0.063 3 
0.458 0.063 0.081 3 
0.464 0.223 0.082 3 
0.464 0.232 0.082 3 
0.464 0.244 0.082 3 
0.464 0.253 0.082 3 
0.464 0.263 0.082 3 
0.464 0.272 0.082 3 
0.464 0.284 0.082 3 
0.463 0.064 0.073 3 
0.463 0.293 0.062 3 
0.464 0.303 0.062 3 
0.463 0.312 0.062 3 
0.464 0.323 0.062 3 
0.464 0.124 0.065 3 
0.464 0.255 0.068 3 
0.465 0.331 0.068 3 
0.465 0.124 0.052 3 
0.465 0.081 0.033 3 
0.465 0.073 0.071 3 
0.465 0.103 0.071 3 
0.465 0.141 0.071 3 
0.464 0.24 0.071 3 
0.465 0.279 0.071 3 
0.464 0.067 0.052 3 
0.464 0.073 0.074 3 
0.465 0.084 0.074 3 
0.465 0.092 0.074 3 
0.464 0.094 0.073 3 
0.464 0.102 0.073 3 
0.464 0.105 0.073 3 
0.465 0.114 0.074 3 
0.465 0.122 0.074 3 
0.465 0.125 0.074 3 
0.464 0.143 0.073 3 
0.464 0.154 0.073 3 
0.464 0.163 0.073 3 
0.464 0.174 0.074 3 
0.464 0.183 0.074 3 
0.465 0.116 0.031 3 
0.463 0.154 0.022 3 
0.463 0.162 0.022 3 
0.462 0.173 0.022 3 
0.463 0.182 0.022 3 
0.463 0.202 0.024 3 
0.463 0.234 0.024 3 
0.463 0.243 0.024 3 
0.462 0.254 0.024 3 
0.462 0.263 0.024 3 
0.462 0.272 0.024 3 
0.463 0.314 0.023 3 
0.462 0.324 0.023 3 
0.461 0.33 0.023 3 
0.464 0.34 0.022 3 
0.465 0.102 0.031 3 
0.463 0.143 0.022 3 
0.463 0.123 0.012 3 
0.46 0.053 0.034 3 
0.464 0.07 0.034 3 
0.465 0.073 0.033 3 
0.464 0.083 0.033 3 
0.464 0.091 0.033 3 
0.464 0.102 0.033 3 
0.465 0.113 0.033 3 
0.463 0.124 0.033 3 
0.464 0.132 0.033 3 
0.465 0.136 0.033 3 
0.464 0.143 0.033 3 
0.464 0.154 0.033 3 
0.463 0.173 0.033 3 
0.462 0.263 0.013 3 
0.462 0.083 0.012 3 
0.462 0.093 0.012 3 
0.462 0.104 0.012 3 
0.463 0.112 0.012 3 
0.462 0.134 0.014 3 
0.462 0.154 0.014 3 
0.462 0.162 0.014 3 
0.462 0.173 0.014 3 
0.462 0.184 0.014 3 
0.462 0.193 0.014 3 
0.462 0.204 0.014 3 
0.462 0.224 0.013 3 
0.462 0.233 0.013 3 
0.461 0.253 0.013 3 
0.463 0.182 0.033 3 
0.462 0.282 0.012 3 
0.462 0.294 0.012 3 
0.462 0.304 0.012 3 
0.462 0.323 0.014 3 
0.461 0.333 0.014 3 
0.462 0.053 0.023 3 
0.463 0.064 0.023 3 
0.464 0.072 0.023 3 
0.464 0.083 0.023 3 
0.464 0.094 0.023 3 
0.464 0.102 0.023 3 
0.464 0.113 0.023 3 
0.464 0.124 0.023 3 
0.463 0.132 0.022 3 
0.463 0.264 0.043 3 
0.465 0.147 0.044 3 
0.464 0.154 0.044 3 
0.464 0.163 0.044 3 
0.464 0.174 0.044 3 
0.463 0.182 0.044 3 
0.463 0.193 0.044 3 
0.464 0.202 0.043 3 
0.464 0.211 0.043 3 
0.465 0.215 0.043 3 
0.464 0.223 0.043 3 
0.465 0.229 0.043 3 
0.463 0.243 0.043 3 
0.463 0.252 0.043 3 
0.464 0.223 0.024 3 
0.465 0.144 0.044 3 
0.464 0.274 0.043 3 
0.464 0.283 0.043 3 
0.464 0.293 0.043 3 
0.463 0.302 0.043 3 
0.462 0.311 0.043 3 
0.462 0.334 0.042 3 
0.464 0.34 0.042 3 
0.457 0.052 0.047 3 
0.464 0.121 0.047 3 
0.465 0.147 0.046 3 
0.465 0.226 0.046 3 
0.464 0.11 0.049 3 
0.463 0.301 0.023 3 
0.451 0.051 0.052 3 
0.464 0.13 0.039 3 
0.464 0.194 0.033 3 
0.464 0.214 0.032 3 
0.464 0.232 0.032 3 
0.463 0.243 0.032 3 
0.463 0.252 0.032 3 
0.463 0.264 0.032 3 
0.464 0.283 0.034 3 
0.464 0.293 0.034 3 
0.463 0.304 0.034 3 
0.463 0.312 0.034 3 
0.463 0.322 0.034 3 
0.462 0.331 0.034 3 
0.463 0.339 0.034 3 
0.464 0.083 0.039 3 
0.464 0.272 0.074 3 
0.464 0.143 0.038 3 
0.464 0.223 0.032 3 
0.457 0.052 0.042 3 
0.464 0.094 0.041 3 
0.464 0.064 0.044 3 
0.464 0.07 0.044 3 
0.465 0.073 0.044 3 
0.465 0.083 0.044 3 
0.465 0.094 0.044 3 
0.464 0.096 0.044 3 
0.464 0.113 0.044 3 
0.464 0.121 0.044 3 
0.465 0.124 0.044 3 
0.465 0.133 0.044 3 
0.464 0.1 0.114 3 
0.465 0.161 0.114 3 
0.464 0.152 0.114 3 
0.465 0.133 0.114 3 
0.464 0.124 0.114 3 
0.465 0.117 0.114 3 
0.464 0.294 0.082 3 
0.465 0.111 0.114 3 
0.465 0.103 0.114 3 
0.464 0.163 0.114 3 
0.464 0.094 0.114 3 
0.465 0.092 0.114 3 
0.465 0.084 0.114 3 
0.464 0.081 0.114 3 
0.463 0.073 0.113 3 
0.464 0.341 0.114 3 
0.463 0.333 0.114 3 
0.465 0.331 0.114 3 
0.464 0.174 0.114 3 
0.465 0.261 0.119 3 
0.465 0.27 0.119 3 
0.465 0.283 0.119 3 
0.465 0.092 0.119 3 
0.465 0.095 0.119 3 
0.464 0.116 0.119 3 
0.464 0.18 0.12 3 
0.465 0.292 0.122 3 
0.465 0.302 0.122 3 
0.466 0.313 0.123 3 
0.466 0.323 0.123 3 
0.465 0.332 0.123 3 
0.464 0.341 0.123 3 
0.465 0.341 0.091 3 
0.464 0.263 0.104 3 
0.464 0.133 0.111 3 
0.465 0.282 0.11 3 
0.465 0.246 0.11 3 
0.465 0.221 0.109 3 
0.463 0.322 0.043 3 
0.465 0.183 0.106 3 
0.464 0.323 0.105 3 
0.463 0.271 0.104 3 
0.464 0.144 0.111 3 
0.464 0.254 0.104 3 
0.463 0.322 0.082 3 
0.464 0.232 0.104 3 
0.462 0.272 0.013 3 
0.464 0.223 0.104 3 
0.465 0.215 0.104 3 
0.465 0.212 0.104 3 
0.464 0.103 0.122 3 
0.464 0.186 0.112 3 
0.465 0.192 0.112 3 
0.465 0.204 0.112 3 
0.465 0.212 0.112 3 
0.464 0.223 0.112 3 
0.464 0.233 0.112 3 
0.464 0.242 0.112 3 
0.464 0.254 0.113 3 
0.464 0.263 0.113 3 
0.464 0.272 0.113 3 
0.464 0.282 0.113 3 
0.465 0.292 0.113 3 
0.466 0.303 0.114 3 
0.466 0.312 0.114 3 
0.465 0.321 0.114 3 
0.464 0.292 0.133 3 
0.464 0.084 0.133 3 
0.462 0.072 0.132 3 
0.463 0.34 0.134 3 
0.463 0.333 0.134 3 
0.465 0.329 0.134 3 
0.465 0.322 0.134 3 
0.464 0.301 0.133 3 
0.465 0.299 0.134 3 
0.464 0.092 0.133 3 
0.465 0.286 0.133 3 
0.465 0.277 0.133 3 
0.464 0.263 0.132 3 
0.465 0.094 0.033 3 
0.464 0.254 0.132 3 
0.465 0.285 0.071 3 
0.464 0.242 0.132 3 
0.464 0.254 0.124 3 
0.464 0.103 0.133 3 
0.464 0.114 0.133 3 
0.465 0.122 0.133 3 
0.465 0.133 0.133 3 
0.465 0.153 0.133 3 
0.465 0.164 0.134 3 
0.465 0.172 0.134 3 
0.465 0.184 0.134 3 
0.465 0.192 0.134 3 
0.465 0.198 0.134 3 
0.464 0.204 0.134 3 
0.463 0.212 0.134 3 
0.464 0.224 0.134 3 
0.463 0.227 0.134 3 
0.464 0.273 0.135 3 
0.464 0.172 0.122 3 
0.464 0.242 0.124 3 
0.463 0.232 0.123 3 
0.463 0.223 0.123 3 
0.465 0.212 0.123 3 
0.465 0.204 0.123 3 
0.464 0.152 0.092 3 
0.465 0.192 0.123 3 
0.465 0.184 0.123 3 
0.464 0.263 0.124 3 
0.464 0.163 0.122 3 
0.464 0.152 0.122 3 
0.464 0.182 0.054 3 
0.465 0.147 0.122 3 
0.465 0.133 0.122 3 
0.465 0.114 0.122 3 
0.464 0.111 0.122 3 
0.464 0.313 0.082 3 
0.464 0.272 0.124 3 
0.464 0.282 0.124 3 
0.464 0.285 0.124 3 
0.471 0.349 0.128 3 
0.463 0.274 0.093 3 
0.462 0.072 0.124 3 
0.463 0.083 0.124 3 
0.464 0.092 0.124 3 
0.465 0.207 0.126 3 
0.464 0.163 0.128 3 
0.464 0.175 0.128 3 
0.465 0.343 0.132 3 
0.465 0.114 0.13 3 
0.464 0.144 0.13 3 
0.464 0.172 0.131 3 
0.464 0.143 0.092 3 
0.465 0.163 0.09 3 
0.465 0.172 0.09 3 
0.465 0.247 0.09 3 
0.465 0.304 0.091 3 
0.465 0.308 0.091 3 
0.463 0.193 0.022 3 
0.464 0.083 0.092 3 
0.464 0.092 0.092 3 
0.465 0.095 0.092 3 
0.464 0.102 0.092 3 
0.464 0.113 0.092 3 
0.465 0.122 0.092 3 
0.464 0.124 0.092 3 
0.465 0.13 0.092 3 
0.464 0.132 0.092 3 
0.465 0.141 0.09 3 
0.464 0.163 0.092 3 
0.464 0.064 0.052 3 
0.464 0.174 0.093 3 
0.464 0.194 0.093 3 
0.465 0.203 0.093 3 
0.465 0.212 0.093 3 
0.465 0.218 0.093 3 
0.464 0.223 0.093 3 
0.464 0.232 0.093 3 
0.465 0.244 0.093 3 
0.464 0.254 0.093 3 
0.463 0.262 0.093 3 
0.464 0.211 0.087 3 
0.464 0.303 0.094 3 
0.464 0.313 0.094 3 
0.464 0.152 0.084 3 
0.464 0.303 0.082 3 
0.464 0.34 0.083 3 
0.463 0.072 0.084 3 
0.464 0.081 0.084 3 
0.46 0.336 0.014 3 
0.465 0.084 0.084 3 
0.465 0.089 0.084 3 
0.464 0.094 0.084 3 
0.464 0.108 0.084 3 
0.465 0.114 0.084 3 
0.465 0.122 0.084 3 
0.464 0.124 0.084 3 
0.465 0.127 0.084 3 
0.464 0.132 0.084 3 
0.465 0.136 0.084 3 
0.465 0.201 0.104 3 
0.464 0.16 0.084 3 
0.465 0.166 0.084 3 
0.464 0.333 0.054 3 
0.464 0.174 0.084 3 
0.464 0.183 0.084 3 
0.464 0.194 0.084 3 
0.464 0.203 0.084 3 
0.464 0.211 0.084 3 
0.465 0.084 0.087 3 
0.465 0.152 0.087 3 
0.464 0.293 0.023 3 
0.463 0.312 0.054 3 
0.464 0.11 0.033 3 
0.465 0.092 0.09 3 
0.464 0.064 0.034 3 
0.465 0.331 0.103 3 
0.465 0.147 0.101 3 
0.465 0.236 0.101 3 
0.465 0.251 0.102 3 
0.463 0.332 0.082 3 
0.464 0.135 0.103 3 
0.464 0.284 0.102 3 
0.464 0.288 0.102 3 
0.465 0.292 0.102 3 
0.465 0.301 0.102 3 
0.464 0.304 0.102 3 
0.465 0.308 0.102 3 
0.464 0.313 0.102 3 
0.464 0.323 0.102 3 
0.464 0.203 0.104 3 
0.463 0.332 0.102 3 
0.464 0.34 0.103 3 
0.465 0.133 0.103 3 
0.464 0.13 0.103 3 
0.465 0.269 0.063 3 
0.464 0.124 0.103 3 
0.464 0.323 0.094 3 
0.464 0.113 0.103 3 
0.464 0.232 0.043 3 
0.462 0.072 0.103 3 
0.464 0.102 0.103 3 
0.464 0.083 0.103 3 
0.464 0.34 0.094 3 
0.464 0.188 0.103 3 
0.464 0.183 0.103 3 
0.46 0.066 0.094 3 
0.465 0.341 0.1 3 
0.465 0.095 0.1 3 
0.465 0.192 0.104 3 
0.464 0.333 0.094 3 
0.464 0.174 0.103 3 
0.464 0.163 0.103 3 
0.465 0.122 0.101 3 
0.464 0.152 0.103 3 
0.465 0.144 0.103 3 
0.465 0.331 0.094 3 
0.325 0.037 0.023 7 
0.333 -0.015 0.031 7 
0.359 -0.044 0.018 7 
0.354 -0.046 0.02 7 
0.35 -0.011 0.016 7 
0.328 0.042 0.027 7 
0.353 -0.044 0.021 7 
0.321 -0.006 0.051 7 
0.319 0.014 0.019 7 
0.323 0.028 0.029 7 
0.34 0.047 0.023 7 
0.351 -0.032 0.023 7 
0.315 -0.01 0.024 7 
0.346 0.055 0.022 7 
0.325 0.024 0.019 7 
0.358 0.069 0.014 7 
0.332 -0.026 0.025 7 
0.334 -0.014 0.03 7 
0.325 0.034 0.026 7 
0.314 -0.006 0.024 7 
0.316 -0.006 0.032 7 
0.314 -0.016 0.032 7 
0.321 -0.019 0.031 7 
0.344 -0.026 0.022 7 
0.339 -0.024 0.023 7 
0.339 0.07 0.02 7 
0.316 0.001 0.018 7 
0.345 0.071 0.019 7 
0.359 -0.047 0.018 7 
0.327 0.029 0.024 7 
0.347 0.05 0.023 7 
0.355 -0.028 0.024 7 
0.339 0.047 0.025 7 
0.339 -0.022 0.027 7 
