# .PCD v0.7 - Point Cloud Data file
FIELDS x y z intensity
SIZE 4 4 4 4
TYPE F F F F
COUNT 1 1 1 1
WIDTH 2435
HEIGHT 1
VIEWPOINT 0 0 0 1 0 0 0
POINTS 2435
DATA ascii
0.3 -0.015 0.021 0 
0.301 0.001 0.021 0 
0.3 -0.005 0.021 0 
0.305 0.002 0.019 0 
0.334 -0.014 0.017 0 
0.335 -0.016 0.017 0 
0.33 -0.015 0.016 0 
0.374 -0.238 -0.026 1 
0.363 -0.135 -0.017 1 
0.363 -0.125 -0.017 1 
0.36 -0.057 -0.015 1 
0.362 -0.026 -0.016 1 
0.363 -0.024 -0.016 1 
0.361 0.014 -0.015 1 
0.359 0.031 -0.015 1 
0.358 0.033 -0.014 1 
0.357 0.043 -0.014 1 
0.357 0.074 -0.014 1 
0.352 0.113 -0.014 1 
0.353 0.124 -0.014 1 
0.352 0.133 -0.014 1 
0.353 0.142 -0.015 1 
0.353 0.154 -0.015 1 
0.351 0.158 -0.015 1 
0.374 -0.195 -0.022 1 
0.369 -0.186 -0.019 1 
0.373 -0.146 -0.019 1 
0.363 -0.086 -0.014 1 
0.366 -0.064 -0.015 1 
0.363 -0.056 -0.014 1 
0.364 0.02 -0.015 1 
0.364 0.043 -0.015 1 
0.364 0.054 -0.015 1 
0.364 0.064 -0.015 1 
0.362 0.076 -0.015 1 
0.361 0.083 -0.014 1 
0.361 0.085 -0.014 1 
0.362 0.093 -0.015 1 
0.361 0.101 -0.015 1 
0.359 0.124 -0.015 1 
0.352 0.169 -0.014 1 
0.353 0.174 -0.015 1 
0.354 0.183 -0.016 1 
0.348 0.21 -0.015 1 
0.384 -0.249 -0.025 1 
0.384 -0.229 -0.024 1 
0.373 -0.175 -0.018 1 
0.374 -0.136 -0.018 1 
0.374 -0.126 -0.017 1 
0.374 -0.116 -0.017 1 
0.374 -0.114 -0.017 1 
0.373 -0.096 -0.016 1 
0.372 -0.085 -0.016 1 
0.374 -0.082 -0.016 1 
0.369 -0.065 -0.014 1 
0.372 -0.045 -0.015 1 
0.374 -0.036 -0.016 1 
0.374 -0.031 -0.016 1 
0.37 0.013 -0.015 1 
0.37 0.024 -0.015 1 
0.37 0.053 -0.015 1 
0.368 0.103 -0.015 1 
0.365 0.107 -0.014 1 
0.363 0.119 -0.014 1 
0.363 0.134 -0.015 1 
0.364 0.153 -0.015 1 
0.357 0.174 -0.014 1 
0.357 0.178 -0.014 1 
0.357 0.194 -0.015 1 
0.354 0.217 -0.016 1 
0.391 -0.234 -0.025 1 
0.381 -0.195 -0.02 1 
0.384 -0.155 -0.019 1 
0.38 -0.116 -0.017 1 
0.379 -0.031 -0.016 1 
0.373 0.084 -0.015 1 
0.373 0.123 -0.016 1 
0.373 0.133 -0.016 1 
0.374 0.164 -0.017 1 
0.361 0.204 -0.015 1 
0.358 0.221 -0.015 1 
0.394 -0.258 -0.025 1 
0.358 0.054 -0.014 1 
0.394 -0.255 -0.024 1 
0.394 -0.245 -0.024 1 
0.392 -0.23 -0.022 1 
0.384 -0.206 -0.019 1 
0.384 -0.166 -0.018 1 
0.384 -0.126 -0.017 1 
0.384 -0.106 -0.016 1 
0.383 -0.095 -0.016 1 
0.384 -0.075 -0.016 1 
0.381 -0.071 -0.015 1 
0.379 -0.066 -0.014 1 
0.379 -0.062 -0.014 1 
0.383 -0.055 -0.015 1 
0.383 -0.046 -0.015 1 
0.384 -0.036 -0.016 1 
0.384 0.008 -0.016 1 
0.383 0.023 -0.016 1 
0.383 0.043 -0.016 1 
0.382 0.053 -0.016 1 
0.38 0.074 -0.015 1 
0.381 0.084 -0.016 1 
0.38 0.113 -0.016 1 
0.374 0.144 -0.015 1 
0.372 0.183 -0.016 1 
0.373 0.194 -0.017 1 
0.366 0.223 -0.016 1 
0.364 0.228 -0.016 1 
0.393 -0.216 -0.02 1 
0.393 -0.205 -0.02 1 
0.394 -0.185 -0.019 1 
0.393 -0.155 -0.018 1 
0.384 -0.188 -0.018 1 
0.392 -0.146 -0.018 1 
0.392 -0.107 -0.017 1 
0.394 -0.085 -0.017 1 
0.389 -0.075 -0.016 1 
0.39 -0.055 -0.016 1 
0.393 -0.033 -0.017 1 
0.464 -0.039 -0.04 1 
0.389 0.054 -0.016 1 
0.384 0.097 -0.015 1 
0.383 0.123 -0.015 1 
0.38 0.144 -0.015 1 
0.38 0.154 -0.015 1 
0.384 0.164 -0.017 1 
0.404 -0.278 -0.024 1 
0.404 -0.263 -0.023 1 
0.409 -0.255 -0.024 1 
0.384 -0.217 -0.019 1 
0.402 -0.227 -0.021 1 
0.394 -0.125 -0.016 1 
0.394 -0.119 -0.016 1 
0.392 -0.068 -0.014 1 
0.393 -0.066 -0.015 1 
0.393 -0.046 -0.015 1 
0.3 -0.015 0.014 1 
0.3 -0.005 0.014 1 
0.394 0.023 -0.015 1 
0.394 0.033 -0.015 1 
0.393 0.063 -0.015 1 
0.393 0.074 -0.015 1 
0.393 0.084 -0.015 1 
0.391 0.094 -0.015 1 
0.389 0.097 -0.014 1 
0.391 0.102 -0.015 1 
0.388 0.134 -0.015 1 
0.384 0.144 -0.014 1 
0.383 0.152 -0.014 1 
0.377 0.243 -0.016 1 
0.414 -0.266 -0.024 1 
0.412 -0.245 -0.022 1 
0.411 -0.236 -0.022 1 
0.404 -0.205 -0.019 1 
0.403 -0.195 -0.018 1 
0.401 -0.186 -0.017 1 
0.403 -0.146 -0.017 1 
0.402 -0.136 -0.016 1 
0.404 -0.106 -0.016 1 
0.4 -0.077 -0.015 1 
0.399 -0.068 -0.014 1 
0.4 -0.066 -0.015 1 
0.402 -0.056 -0.015 1 
0.4 -0.045 -0.015 1 
0.401 -0.037 -0.015 1 
0.303 0 0.014 1 
0.363 0.073 -0.015 1 
0.403 0.023 -0.016 1 
0.354 0.202 -0.015 1 
0.395 0.136 -0.015 1 
0.393 0.144 -0.015 1 
0.393 0.146 -0.015 1 
0.39 0.153 -0.014 1 
0.391 0.155 -0.014 1 
0.393 0.163 -0.015 1 
0.388 0.183 -0.015 1 
0.389 0.221 -0.016 1 
0.413 -0.288 -0.022 1 
0.409 -0.226 -0.018 1 
0.409 -0.217 -0.018 1 
0.39 -0.248 -0.025 1 
0.412 -0.117 -0.017 1 
0.409 -0.086 -0.016 1 
0.407 -0.075 -0.015 1 
0.406 -0.068 -0.014 1 
0.407 -0.066 -0.015 1 
0.364 -0.035 -0.016 1 
0.404 0.011 -0.014 1 
0.404 0.064 -0.014 1 
0.404 0.073 -0.014 1 
0.403 0.094 -0.015 1 
0.403 0.103 -0.015 1 
0.404 0.112 -0.015 1 
0.403 0.123 -0.015 1 
0.401 0.133 -0.015 1 
0.398 0.153 -0.014 1 
0.396 0.173 -0.015 1 
0.391 0.194 -0.014 1 
0.392 0.202 -0.014 1 
0.39 0.242 -0.015 1 
0.422 -0.295 -0.023 1 
0.423 -0.29 -0.023 1 
0.423 -0.267 -0.021 1 
0.42 -0.236 -0.019 1 
0.413 -0.198 -0.017 1 
0.413 -0.185 -0.016 1 
0.414 -0.169 -0.016 1 
0.352 0.193 -0.015 1 
0.414 -0.141 -0.016 1 
0.415 -0.111 -0.015 1 
0.413 -0.106 -0.015 1 
0.414 -0.095 -0.015 1 
0.414 -0.048 -0.015 1 
0.413 -0.045 -0.014 1 
0.413 0.018 -0.014 1 
0.415 0.025 -0.015 1 
0.413 0.04 -0.015 1 
0.411 0.053 -0.014 1 
0.411 0.064 -0.014 1 
0.413 0.073 -0.015 1 
0.411 0.093 -0.015 1 
0.411 0.095 -0.015 1 
0.41 0.106 -0.015 1 
0.404 0.141 -0.014 1 
0.407 0.152 -0.015 1 
0.403 0.164 -0.014 1 
0.403 0.174 -0.014 1 
0.403 0.181 -0.015 1 
0.402 0.182 -0.014 1 
0.403 0.188 -0.015 1 
0.404 0.22 -0.016 1 
0.403 0.234 -0.016 1 
0.4 0.242 -0.016 1 
0.421 -0.256 -0.018 1 
0.423 -0.226 -0.018 1 
0.419 -0.215 -0.016 1 
0.421 -0.196 -0.016 1 
0.419 -0.165 -0.015 1 
0.418 -0.157 -0.015 1 
0.419 -0.118 -0.014 1 
0.371 0.212 -0.017 1 
0.418 -0.106 -0.014 1 
0.422 -0.086 -0.015 1 
0.423 -0.075 -0.015 1 
0.422 -0.065 -0.015 1 
0.421 -0.051 -0.014 1 
0.419 0.023 -0.014 1 
0.414 0.133 -0.014 1 
0.411 0.143 -0.013 1 
0.413 0.154 -0.014 1 
0.411 0.164 -0.014 1 
0.363 0.164 -0.016 1 
0.41 0.171 -0.014 1 
0.408 0.194 -0.014 1 
0.401 0.193 -0.012 1 
0.404 -0.237 -0.024 1 
0.408 0.221 -0.015 1 
0.409 0.232 -0.016 1 
0.401 0.264 -0.015 1 
0.401 0.269 -0.015 1 
0.433 -0.307 -0.021 1 
0.433 -0.289 -0.02 1 
0.434 -0.275 -0.02 1 
0.424 -0.156 -0.014 1 
0.423 -0.146 -0.014 1 
0.424 -0.137 -0.014 1 
0.429 -0.043 -0.014 1 
0.419 -0.175 -0.015 1 
0.424 0.037 -0.013 1 
0.424 0.053 -0.013 1 
0.423 0.062 -0.013 1 
0.423 0.074 -0.013 1 
0.423 0.093 -0.013 1 
0.421 0.104 -0.013 1 
0.421 0.123 -0.013 1 
0.399 0.063 -0.015 1 
0.413 0.213 -0.014 1 
0.415 0.222 -0.015 1 
0.415 0.233 -0.015 1 
0.415 0.241 -0.015 1 
0.413 0.244 -0.015 1 
0.412 0.254 -0.015 1 
0.413 0.263 -0.016 1 
0.413 0.274 -0.016 1 
0.435 -0.264 -0.017 1 
0.433 -0.245 -0.016 1 
0.434 -0.23 -0.016 1 
0.434 -0.206 -0.015 1 
0.434 -0.196 -0.015 1 
0.433 -0.187 -0.015 1 
0.433 -0.177 -0.014 1 
0.434 -0.175 -0.015 1 
0.43 -0.155 -0.013 1 
0.43 -0.145 -0.013 1 
0.431 -0.135 -0.013 1 
0.432 -0.126 -0.013 1 
0.431 -0.116 -0.013 1 
0.432 -0.106 -0.013 1 
0.433 -0.095 -0.013 1 
0.433 -0.085 -0.013 1 
0.434 -0.076 -0.013 1 
0.433 -0.066 -0.013 1 
0.402 0.204 -0.015 1 
0.433 -0.046 -0.013 1 
0.481 -0.046 -0.026 1 
0.48 -0.041 -0.025 1 
0.432 0.012 -0.013 1 
0.43 0.043 -0.012 1 
0.431 0.052 -0.013 1 
0.431 0.064 -0.013 1 
0.43 0.074 -0.013 1 
0.422 0.154 -0.012 1 
0.421 0.164 -0.012 1 
0.421 0.174 -0.012 1 
0.421 0.184 -0.013 1 
0.421 0.194 -0.013 1 
0.417 0.204 -0.012 1 
0.419 0.272 -0.015 1 
0.417 0.284 -0.015 1 
0.442 -0.295 -0.017 1 
0.442 -0.28 -0.017 1 
0.433 -0.256 -0.014 1 
0.44 -0.235 -0.015 1 
0.438 -0.196 -0.014 1 
0.441 -0.128 -0.013 1 
0.438 -0.067 -0.012 1 
0.438 -0.057 -0.012 1 
0.332 0.001 0.014 1 
0.434 0.082 -0.011 1 
0.414 -0.057 -0.015 1 
0.434 0.094 -0.012 1 
0.433 0.123 -0.012 1 
0.43 0.144 -0.011 1 
0.43 0.154 -0.012 1 
0.423 0.214 -0.012 1 
0.423 0.221 -0.012 1 
0.424 0.233 -0.012 1 
0.423 0.243 -0.012 1 
0.423 0.251 -0.013 1 
0.423 0.271 -0.013 1 
0.422 0.284 -0.014 1 
0.421 0.292 -0.014 1 
0.445 -0.295 -0.015 1 
0.443 -0.287 -0.014 1 
0.445 -0.28 -0.015 1 
0.437 -0.269 -0.012 1 
0.443 -0.246 -0.013 1 
0.409 0.103 -0.014 1 
0.443 -0.235 -0.013 1 
0.443 -0.226 -0.013 1 
0.443 -0.216 -0.013 1 
0.444 -0.187 -0.012 1 
0.444 -0.176 -0.012 1 
0.444 -0.166 -0.012 1 
0.444 -0.155 -0.012 1 
0.444 -0.147 -0.012 1 
0.444 -0.116 -0.011 1 
0.444 -0.106 -0.011 1 
0.412 -0.101 -0.014 1 
0.444 -0.101 -0.011 1 
0.422 0.083 -0.013 1 
0.444 -0.086 -0.011 1 
0.444 -0.078 -0.011 1 
0.463 -0.044 -0.015 1 
0.481 -0.038 -0.02 1 
0.414 0.022 -0.015 1 
0.341 0.002 0.014 1 
0.412 0.005 -0.003 1 
0.444 0.023 -0.011 1 
0.444 0.033 -0.011 1 
0.443 0.042 -0.011 1 
0.442 0.062 -0.011 1 
0.442 0.072 -0.011 1 
0.441 0.084 -0.011 1 
0.434 0.162 -0.011 1 
0.431 0.173 -0.01 1 
0.432 0.184 -0.01 1 
0.43 0.193 -0.01 1 
0.431 0.253 -0.012 1 
0.431 0.264 -0.013 1 
0.431 0.273 -0.013 1 
0.454 -0.318 -0.015 1 
0.448 -0.295 -0.013 1 
0.448 -0.289 -0.013 1 
0.447 -0.276 -0.012 1 
0.444 -0.258 -0.011 1 
0.449 -0.225 -0.011 1 
0.451 -0.205 -0.012 1 
0.451 -0.197 -0.012 1 
0.449 -0.185 -0.011 1 
0.452 -0.157 -0.011 1 
0.448 -0.136 -0.01 1 
0.449 -0.126 -0.01 1 
0.451 -0.096 -0.01 1 
0.444 -0.208 -0.013 1 
0.451 -0.085 -0.01 1 
0.453 -0.076 -0.011 1 
0.454 -0.066 -0.011 1 
0.452 -0.055 -0.01 1 
0.352 -0.006 0.013 1 
0.351 0 0.013 1 
0.444 0.113 -0.009 1 
0.444 0.123 -0.009 1 
0.444 0.134 -0.01 1 
0.44 0.163 -0.009 1 
0.434 0.204 -0.009 1 
0.434 0.223 -0.009 1 
0.434 0.233 -0.01 1 
0.434 0.282 -0.011 1 
0.43 0.302 -0.011 1 
0.424 0.134 -0.012 1 
0.45 -0.267 -0.01 1 
0.45 -0.255 -0.01 1 
0.45 -0.246 -0.009 1 
0.453 -0.237 -0.01 1 
0.454 -0.216 -0.01 1 
0.454 -0.147 -0.009 1 
0.454 -0.115 -0.008 1 
0.454 -0.11 -0.008 1 
0.464 -0.044 -0.01 1 
0.454 0.031 -0.008 1 
0.443 0.143 -0.01 1 
0.454 0.044 -0.008 1 
0.453 0.054 -0.008 1 
0.452 0.064 -0.008 1 
0.452 0.072 -0.008 1 
0.452 0.093 -0.008 1 
0.451 0.103 -0.008 1 
0.444 0.173 -0.008 1 
0.412 0.19 -0.015 1 
0.443 0.183 -0.008 1 
0.441 0.204 -0.008 1 
0.441 0.242 -0.009 1 
0.441 0.274 -0.01 1 
0.441 0.283 -0.01 1 
0.381 0.184 -0.015 1 
0.464 -0.318 -0.012 1 
0.461 -0.259 -0.009 1 
0.462 -0.075 -0.007 1 
0.454 0.133 -0.007 1 
0.454 0.154 -0.007 1 
0.453 0.163 -0.007 1 
0.387 0.234 -0.016 1 
0.451 0.183 -0.007 1 
0.451 0.191 -0.007 1 
0.45 0.202 -0.007 1 
0.444 0.292 -0.009 1 
0.443 0.304 -0.009 1 
0.407 -0.038 -0.015 1 
0.439 0.312 -0.008 1 
0.463 -0.341 -0.009 1 
0.464 -0.299 -0.008 1 
0.465 -0.221 -0.007 1 
0.464 -0.217 -0.007 1 
0.463 -0.197 -0.006 1 
0.462 -0.176 -0.006 1 
0.464 -0.158 -0.006 1 
0.465 -0.147 -0.006 1 
0.465 -0.144 -0.006 1 
0.464 -0.136 -0.006 1 
0.464 -0.119 -0.005 1 
0.403 -0.268 -0.023 1 
0.465 -0.117 -0.006 1 
0.465 -0.087 -0.005 1 
0.465 -0.076 -0.005 1 
0.465 -0.065 -0.005 1 
0.384 -0.237 -0.025 1 
0.464 -0.06 -0.005 1 
0.465 -0.055 -0.005 1 
0.468 -0.047 -0.006 1 
0.468 -0.036 -0.006 1 
0.463 0.003 -0.005 1 
0.463 0.024 -0.005 1 
0.462 0.043 -0.005 1 
0.46 0.063 -0.005 1 
0.461 0.074 -0.005 1 
0.461 0.093 -0.005 1 
0.418 -0.148 -0.015 1 
0.46 0.114 -0.005 1 
0.459 0.124 -0.005 1 
0.468 -0.047 -0.019 1 
0.456 0.173 -0.005 1 
0.455 0.183 -0.005 1 
0.455 0.202 -0.006 1 
0.41 0.09 -0.014 1 
0.455 0.208 -0.006 1 
0.454 0.213 -0.006 1 
0.451 0.222 -0.005 1 
0.451 0.234 -0.006 1 
0.45 0.244 -0.006 1 
0.45 0.253 -0.006 1 
0.45 0.262 -0.006 1 
0.45 -0.047 -0.012 1 
0.468 -0.306 -0.006 1 
0.459 0.133 -0.005 1 
0.467 -0.286 -0.006 1 
0.468 -0.277 -0.006 1 
0.47 -0.257 -0.006 1 
0.47 -0.245 -0.005 1 
0.469 -0.235 -0.005 1 
0.467 -0.225 -0.005 1 
0.464 -0.028 -0.003 1 
0.464 0.014 -0.003 1 
0.464 0.024 -0.003 1 
0.453 0.261 -0.004 1 
0.453 0.267 -0.004 1 
0.455 0.272 -0.005 1 
0.453 0.283 -0.005 1 
0.452 0.291 -0.005 1 
0.454 0.302 -0.005 1 
0.452 0.313 -0.005 1 
0.449 0.32 -0.005 1 
0.474 -0.346 -0.006 1 
0.474 -0.336 -0.005 1 
0.432 0.133 -0.012 1 
0.44 0.264 -0.009 1 
0.473 -0.328 -0.005 1 
0.364 -0.083 -0.015 1 
0.473 -0.317 -0.005 1 
0.464 0.027 0 1 
0.464 0.124 -0.001 1 
0.454 0.322 -0.003 1 
0.459 0.334 -0.005 1 
0.474 -0.353 -0.003 1 
0.464 0.174 0 1 
0.463 0.202 0 1 
0.475 -0.283 0.001 1 
0.472 -0.226 0.002 1 
0.472 -0.217 0.002 1 
0.471 -0.205 0.002 1 
0.471 -0.196 0.002 1 
0.47 -0.186 0.003 1 
0.47 -0.166 0.003 1 
0.471 -0.156 0.003 1 
0.47 -0.147 0.003 1 
0.374 -0.206 -0.022 1 
0.421 0.113 -0.013 1 
0.469 -0.135 0.003 1 
0.468 -0.096 0.004 1 
0.468 -0.085 0.004 1 
0.467 -0.077 0.004 1 
0.411 -0.125 -0.017 1 
0.409 0.128 -0.015 1 
0.465 0.073 0.004 1 
0.465 0.083 0.004 1 
0.465 0.091 0.004 1 
0.464 0.094 0.004 1 
0.464 0.113 0.004 1 
0.465 0.144 0.003 1 
0.463 0.151 0.003 1 
0.465 0.161 0.003 1 
0.465 0.178 0.003 1 
0.464 0.183 0.003 1 
0.465 0.189 0.002 1 
0.464 0.194 0.003 1 
0.465 0.203 0.002 1 
0.465 0.212 0.002 1 
0.465 0.218 0.002 1 
0.464 0.223 0.002 1 
0.464 0.232 0.002 1 
0.473 -0.355 0.002 1 
0.476 -0.355 0.002 1 
0.478 -0.347 0.002 1 
0.359 0.104 -0.014 1 
0.477 -0.335 0.002 1 
0.477 -0.325 0.002 1 
0.474 -0.295 0.003 1 
0.474 -0.285 0.004 1 
0.474 -0.276 0.004 1 
0.473 -0.266 0.004 1 
0.472 -0.238 0.004 1 
0.403 -0.155 -0.017 1 
0.463 0.249 0.004 1 
0.462 0.272 0.004 1 
0.464 0.293 0.003 1 
0.464 0.303 0.003 1 
0.463 0.311 0.003 1 
0.463 0.321 0.003 1 
0.394 0.01 -0.015 1 
0.463 0.332 0.002 1 
0.367 0.145 -0.014 1 
0.466 0.343 0.002 1 
0.462 0.053 -0.005 1 
0.432 0.292 -0.011 1 
0.462 0.032 -0.005 1 
0.463 0.014 -0.005 1 
0.463 -0.007 -0.005 1 
0.464 -0.047 -0.008 1 
0.461 -0.065 -0.007 1 
0.412 0.202 -0.013 1 
0.38 -0.146 -0.018 1 
0.462 -0.086 -0.007 1 
0.38 0.187 -0.014 1 
0.394 0.041 -0.015 1 
0.409 0.115 -0.014 1 
0.464 -0.125 -0.005 1 
0.464 -0.149 -0.006 1 
0.465 0.102 0.001 1 
0.463 -0.165 -0.006 1 
0.463 -0.185 -0.006 1 
0.461 -0.227 -0.009 1 
0.452 -0.306 -0.014 1 
0.463 -0.245 -0.007 1 
0.441 0.251 -0.009 1 
0.464 -0.289 -0.008 1 
0.307 0.002 0.014 1 
0.439 0.104 -0.011 1 
0.464 -0.325 -0.012 1 
0.443 -0.284 -0.014 1 
0.409 0.112 -0.014 1 
0.373 0.113 -0.015 1 
0.39 0.173 -0.015 1 
0.438 -0.267 -0.015 1 
0.475 -0.344 -0.006 1 
0.439 -0.317 -0.017 1 
0.403 -0.086 -0.016 1 
0.45 0.144 -0.009 1 
0.439 -0.245 -0.015 1 
0.469 -0.127 0.003 1 
0.459 0.143 -0.005 1 
0.393 0.261 -0.017 1 
0.473 -0.247 0.004 1 
0.362 0.113 -0.014 1 
0.37 0.074 -0.016 1 
0.454 0.122 -0.007 1 
0.463 0.243 0.002 1 
0.363 -0.065 -0.016 1 
0.443 0.154 -0.01 1 
0.435 -0.228 -0.016 1 
0.354 0.164 -0.014 1 
0.414 -0.039 -0.014 1 
0.363 0.14 -0.015 1 
0.463 0.335 0.002 1 
0.455 0.278 -0.005 1 
0.423 -0.206 -0.017 1 
0.454 -0.314 -0.015 1 
0.392 -0.195 -0.019 1 
0.412 0.062 -0.015 1 
0.442 0.213 -0.008 1 
0.363 0.133 -0.014 1 
0.406 0.054 -0.015 1 
0.374 -0.217 -0.024 1 
0.443 -0.048 -0.013 1 
0.464 0.08 0.004 1 
0.37 -0.067 -0.015 1 
0.442 0.052 -0.011 1 
0.423 -0.275 -0.022 1 
0.401 0.013 -0.015 1 
0.433 0.114 -0.012 1 
0.456 -0.327 -0.016 1 
0.423 -0.042 -0.015 1 
0.435 -0.199 -0.015 1 
0.384 0.093 -0.015 1 
0.41 0.28 -0.016 1 
0.458 0.154 -0.005 1 
0.389 0.204 -0.016 1 
0.401 0.213 -0.015 1 
0.463 0.003 -0.002 1 
0.391 0.123 -0.016 1 
0.337 -0.004 0.015 1 
0.464 0.043 -0.003 1 
0.374 0.148 -0.015 1 
0.381 0.232 -0.017 1 
0.396 -0.25 -0.025 1 
0.426 -0.16 -0.015 1 
0.389 -0.237 -0.024 1 
0.465 -0.025 -0.005 1 
0.454 0.011 -0.008 1 
0.413 0.218 -0.014 1 
0.434 -0.172 -0.015 1 
0.389 -0.096 -0.016 1 
0.434 -0.243 -0.016 1 
0.374 0.094 -0.015 1 
0.432 -0.27 -0.019 1 
0.395 -0.267 -0.025 1 
0.414 -0.146 -0.016 1 
0.401 -0.165 -0.017 1 
0.421 -0.253 -0.015 1 
0.409 0.124 -0.015 1 
0.444 0.013 -0.011 1 
0.468 -0.296 -0.006 1 
0.464 0.132 -0.001 1 
0.383 0.203 -0.016 1 
0.422 -0.045 -0.015 1 
0.369 -0.054 -0.014 1 
0.371 0.063 -0.016 1 
0.434 -0.217 -0.015 1 
0.33 -0.001 0.015 1 
0.392 0.254 -0.017 1 
0.464 -0.015 -0.005 1 
0.42 -0.095 -0.014 1 
0.364 -0.085 -0.015 1 
0.465 0.113 0.001 1 
0.423 0.012 -0.013 1 
0.394 0.114 -0.016 1 
0.464 0.143 0.001 1 
0.363 -0.107 -0.017 1 
0.463 0.104 0.004 1 
0.42 -0.135 -0.015 1 
0.413 0.033 -0.015 1 
0.473 -0.043 -0.035 1 
0.439 0.094 -0.01 1 
0.391 -0.237 -0.025 1 
0.45 0.113 -0.008 1 
0.359 0.169 -0.015 1 
0.342 -0.012 0.015 1 
0.464 -0.273 -0.008 1 
0.401 0.053 -0.015 1 
0.461 0.082 -0.005 1 
0.384 0.033 -0.016 1 
0.411 0.177 -0.014 1 
0.392 -0.035 -0.016 1 
0.4 0.044 -0.015 1 
0.384 -0.091 -0.016 1 
0.412 0.044 -0.014 1 
0.398 0.073 -0.015 1 
0.424 0.255 -0.013 1 
0.422 0.142 -0.012 1 
0.444 -0.291 -0.015 1 
0.433 -0.295 -0.02 1 
0.463 -0.025 -0.008 1 
0.401 -0.215 -0.018 1 
0.31 0.002 0.004 1 
0.403 -0.178 -0.018 1 
0.411 0.084 -0.015 1 
0.454 0.274 -0.005 1 
0.393 -0.175 -0.019 1 
0.414 -0.177 -0.016 1 
0.413 -0.157 -0.016 1 
0.464 -0.106 -0.005 1 
0.404 0.084 -0.015 1 
0.431 0.024 -0.013 1 
0.373 0.034 -0.016 1 
0.414 0.011 -0.013 1 
0.463 -0.007 -0.002 1 
0.362 -0.097 -0.016 1 
0.384 -0.175 -0.018 1 
0.462 0.263 0.004 1 
0.465 -0.155 -0.006 1 
0.379 -0.231 -0.025 1 
0.403 -0.095 -0.016 1 
0.44 -0.135 -0.013 1 
0.402 -0.125 -0.016 1 
0.383 0.133 -0.015 1 
0.374 -0.061 -0.014 1 
0.464 0.163 0.003 1 
0.453 -0.176 -0.009 1 
0.364 -0.054 -0.014 1 
0.433 0.104 -0.011 1 
0.37 0.232 -0.016 1 
0.431 -0.056 -0.012 1 
0.42 -0.186 -0.016 1 
0.413 -0.205 -0.017 1 
0.429 0.033 -0.012 1 
0.358 -0.084 -0.014 1 
0.359 0.184 -0.015 1 
0.443 -0.306 -0.018 1 
0.375 -0.22 -0.025 1 
0.453 0.083 -0.009 1 
0.432 -0.256 -0.016 1 
0.374 -0.159 -0.018 1 
0.375 0.224 -0.017 1 
0.393 0.208 -0.015 1 
0.42 -0.125 -0.015 1 
0.37 0.044 -0.015 1 
0.369 0.174 -0.016 1 
0.358 0.055 -0.014 1 
0.465 0.172 0.003 1 
0.382 0.193 -0.015 1 
0.442 0.194 -0.008 1 
0.434 -0.167 -0.014 1 
0.45 0.023 -0.01 1 
0.411 0.077 -0.014 1 
0.469 -0.265 -0.006 1 
0.4 0.252 -0.016 1 
0.463 0.283 0.004 1 
0.361 -0.045 -0.015 1 
0.384 0.211 -0.017 1 
0.424 0.033 -0.013 1 
0.362 0.143 -0.014 1 
0.473 -0.256 0.004 1 
0.361 -0.115 -0.016 1 
0.403 0.2 -0.013 1 
0.381 0.064 -0.015 1 
0.42 -0.116 -0.015 1 
0.464 -0.103 -0.005 1 
0.433 0.206 -0.009 1 
0.442 0.224 -0.009 1 
0.417 0.287 -0.015 1 
0.464 -0.015 -0.003 1 
0.392 -0.165 -0.018 1 
0.413 -0.279 -0.022 1 
0.477 -0.318 0.002 1 
0.464 -0.206 -0.006 1 
0.4 0.034 -0.015 1 
0.454 -0.166 -0.009 1 
0.452 0.173 -0.007 1 
0.398 -0.034 -0.016 1 
0.382 0.174 -0.017 1 
0.456 0.164 -0.005 1 
0.463 -0.279 -0.008 1 
0.404 -0.115 -0.017 1 
0.442 0.232 -0.009 1 
0.465 -0.095 -0.005 1 
0.422 -0.056 -0.015 1 
0.455 0.191 -0.006 1 
0.464 0.214 0.002 1 
0.434 0.239 -0.01 1 
0.411 0.184 -0.015 1 
0.465 -0.02 -0.005 1 
0.387 0.193 -0.015 1 
0.453 -0.326 -0.015 1 
0.464 -0.237 -0.007 1 
0.399 -0.245 -0.023 1 
0.384 -0.136 -0.017 1 
0.474 -0.04 -0.032 1 
0.373 0.203 -0.017 1 
0.491 -0.042 -0.022 1 
0.368 -0.024 -0.016 1 
0.43 -0.098 -0.015 1 
0.461 0.104 -0.005 1 
0.462 -0.306 -0.011 1 
0.39 -0.136 -0.017 1 
0.359 0.213 -0.015 1 
0.372 -0.165 -0.018 1 
0.471 -0.037 -0.015 1 
0.465 0.124 0.003 1 
0.396 0.092 -0.014 1 
0.47 -0.175 0.003 1 
0.47 -0.067 0.142 3 
0.481 -0.317 0.153 3 
0.483 -0.326 0.154 3 
0.479 -0.305 0.152 3 
0.482 -0.335 0.154 3 
0.466 0.272 0.144 3 
0.465 0.152 0.063 3 
0.466 0.262 0.144 3 
0.465 0.252 0.144 3 
0.464 0.243 0.143 3 
0.464 0.234 0.143 3 
0.463 0.224 0.143 3 
0.464 0.213 0.143 3 
0.465 0.211 0.143 3 
0.465 0.202 0.143 3 
0.465 0.193 0.142 3 
0.466 0.182 0.142 3 
0.466 0.173 0.142 3 
0.471 -0.156 0.124 3 
0.466 0.162 0.142 3 
0.465 0.153 0.142 3 
0.469 -0.047 0.142 3 
0.469 -0.055 0.142 3 
0.478 -0.275 0.154 3 
0.467 0.074 0.144 3 
0.466 0.134 0.133 3 
0.464 0.342 0.149 3 
0.466 0.142 0.144 3 
0.474 -0.255 0.118 3 
0.466 0.134 0.144 3 
0.466 0.123 0.144 3 
0.466 0.112 0.144 3 
0.475 -0.246 0.112 3 
0.467 0.104 0.144 3 
0.467 0.09 0.144 3 
0.467 0.082 0.144 3 
0.464 0.163 0.063 3 
0.48 -0.296 0.152 3 
0.467 0.063 0.144 3 
0.467 0.052 0.144 3 
0.466 0.044 0.144 3 
0.466 0.033 0.144 3 
0.471 -0.147 0.074 3 
0.466 0.022 0.144 3 
0.467 0.003 0.144 3 
0.468 -0.006 0.144 3 
0.468 -0.015 0.144 3 
0.469 -0.025 0.144 3 
0.479 -0.285 0.152 3 
0.467 0.014 0.063 3 
0.476 -0.257 0.144 3 
0.463 0.334 0.14 3 
0.477 -0.277 0.142 3 
0.479 -0.285 0.143 3 
0.47 -0.207 0.014 3 
0.479 -0.295 0.143 3 
0.464 0.203 0.087 3 
0.48 -0.306 0.144 3 
0.481 -0.317 0.144 3 
0.464 0.257 0.135 3 
0.463 0.236 0.134 3 
0.464 0.254 0.124 3 
0.475 -0.247 0.144 3 
0.463 0.233 0.134 3 
0.464 0.224 0.134 3 
0.464 0.213 0.134 3 
0.465 0.21 0.134 3 
0.465 0.202 0.134 3 
0.466 0.193 0.134 3 
0.465 0.184 0.134 3 
0.465 0.172 0.134 3 
0.465 0.164 0.134 3 
0.465 0.153 0.133 3 
0.475 -0.194 0.163 3 
0.467 0.321 0.143 3 
0.47 -0.075 0.142 3 
0.47 -0.086 0.142 3 
0.47 -0.105 0.143 3 
0.47 -0.116 0.143 3 
0.471 -0.125 0.143 3 
0.472 -0.145 0.144 3 
0.472 -0.157 0.144 3 
0.473 -0.166 0.144 3 
0.472 -0.177 0.144 3 
0.472 -0.185 0.144 3 
0.483 -0.347 0.152 3 
0.466 0.334 0.144 3 
0.467 0.022 0.103 3 
0.465 0.312 0.143 3 
0.466 0.304 0.143 3 
0.466 0.284 0.142 3 
0.466 -0.015 0.084 3 
0.465 0.216 0.14 3 
0.464 0.183 0.033 3 
0.472 -0.196 0.142 3 
0.473 -0.206 0.142 3 
0.474 -0.216 0.143 3 
0.475 -0.225 0.143 3 
0.475 -0.237 0.143 3 
0.467 0.112 0.153 3 
0.465 0.211 0.154 3 
0.465 0.202 0.154 3 
0.466 0.194 0.154 3 
0.465 0.182 0.153 3 
0.467 0.174 0.154 3 
0.467 0.163 0.153 3 
0.466 0.154 0.153 3 
0.466 0.142 0.153 3 
0.465 0.124 0.063 3 
0.466 0.134 0.153 3 
0.467 0.123 0.153 3 
0.467 0.033 0.063 3 
0.471 -0.135 0.083 3 
0.467 0.104 0.153 3 
0.468 0.093 0.153 3 
0.476 -0.266 0.144 3 
0.468 0.082 0.153 3 
0.468 0.074 0.153 3 
0.467 0.063 0.152 3 
0.467 0.052 0.152 3 
0.467 0.044 0.152 3 
0.467 0.033 0.152 3 
0.467 0.022 0.152 3 
0.467 0.014 0.152 3 
0.466 0.345 0.162 3 
0.465 0.283 0.113 3 
0.475 -0.196 0.163 3 
0.465 0.113 0.052 3 
0.475 -0.205 0.163 3 
0.474 -0.211 0.163 3 
0.472 -0.167 0.033 3 
0.476 -0.217 0.163 3 
0.473 -0.257 0.044 3 
0.474 -0.285 0.012 3 
0.475 -0.226 0.163 3 
0.477 -0.236 0.164 3 
0.477 -0.246 0.164 3 
0.467 0.003 0.152 3 
0.464 0.24 0.157 3 
0.474 -0.202 0.16 3 
0.477 -0.258 0.162 3 
0.478 -0.265 0.162 3 
0.479 -0.276 0.163 3 
0.479 -0.286 0.164 3 
0.479 -0.299 0.164 3 
0.464 0.24 0.154 3 
0.465 0.183 0.084 3 
0.464 0.234 0.154 3 
0.465 0.223 0.154 3 
0.473 -0.195 0.153 3 
0.466 0.254 0.153 3 
0.465 0.244 0.152 3 
0.468 -0.137 0.014 3 
0.472 -0.125 0.152 3 
0.472 -0.137 0.152 3 
0.462 0.337 0.062 3 
0.471 -0.145 0.152 3 
0.472 -0.157 0.152 3 
0.473 -0.166 0.153 3 
0.475 -0.265 0.104 3 
0.473 -0.175 0.153 3 
0.473 -0.186 0.153 3 
0.466 0.263 0.153 3 
0.474 -0.216 0.154 3 
0.474 -0.228 0.154 3 
0.462 0.242 0.013 3 
0.465 0.344 0.153 3 
0.467 0.332 0.153 3 
0.467 0.322 0.152 3 
0.475 -0.205 0.151 3 
0.475 -0.226 0.152 3 
0.475 -0.235 0.152 3 
0.473 -0.265 0.013 3 
0.475 -0.256 0.153 3 
0.474 -0.216 0.157 3 
0.467 -0.006 0.152 3 
0.468 -0.015 0.152 3 
0.468 -0.025 0.152 3 
0.47 -0.056 0.153 3 
0.462 0.334 0.062 3 
0.47 -0.067 0.153 3 
0.47 -0.075 0.153 3 
0.471 -0.086 0.154 3 
0.471 -0.097 0.154 3 
0.474 -0.245 0.092 3 
0.471 -0.106 0.154 3 
0.471 -0.117 0.154 3 
0.477 -0.267 0.153 3 
0.474 -0.225 0.157 3 
0.469 -0.135 0.093 3 
0.479 -0.305 0.161 3 
0.482 -0.318 0.163 3 
0.482 -0.325 0.163 3 
0.482 -0.336 0.164 3 
0.483 -0.348 0.164 3 
0.467 0.305 0.154 3 
0.466 0.301 0.154 3 
0.466 0.294 0.154 3 
0.465 0.284 0.153 3 
0.471 -0.167 0.122 3 
0.47 -0.136 0.124 3 
0.471 -0.147 0.124 3 
0.475 -0.213 0.126 3 
0.467 0.014 0.092 3 
0.463 0.336 0.123 3 
0.466 0.333 0.123 3 
0.465 0.322 0.123 3 
0.465 0.312 0.122 3 
0.464 0.304 0.122 3 
0.465 0.152 0.084 3 
0.465 0.302 0.122 3 
0.465 0.292 0.122 3 
0.47 -0.127 0.124 3 
0.473 -0.176 0.122 3 
0.473 -0.185 0.122 3 
0.473 -0.197 0.122 3 
0.474 -0.206 0.123 3 
0.474 -0.215 0.123 3 
0.475 -0.222 0.123 3 
0.462 0.112 0.012 3 
0.475 -0.225 0.123 3 
0.474 -0.236 0.123 3 
0.474 -0.245 0.123 3 
0.475 -0.252 0.124 3 
0.475 -0.256 0.124 3 
0.467 -0.006 0.122 3 
0.466 0.103 0.122 3 
0.465 0.092 0.122 3 
0.466 0.073 0.122 3 
0.466 0.062 0.122 3 
0.466 0.054 0.122 3 
0.466 0.044 0.122 3 
0.465 0.033 0.122 3 
0.465 0.022 0.122 3 
0.469 -0.157 0.014 3 
0.467 0.014 0.122 3 
0.467 0.003 0.122 3 
0.466 -0.076 0.012 3 
0.476 -0.266 0.124 3 
0.468 -0.015 0.122 3 
0.468 -0.025 0.122 3 
0.468 -0.036 0.122 3 
0.468 -0.047 0.123 3 
0.468 -0.055 0.123 3 
0.469 -0.066 0.123 3 
0.47 -0.077 0.123 3 
0.471 -0.086 0.123 3 
0.471 -0.097 0.124 3 
0.475 -0.287 0.093 3 
0.47 -0.105 0.123 3 
0.468 -0.036 0.114 3 
0.465 0.062 0.114 3 
0.464 0.241 0.082 3 
0.465 0.054 0.114 3 
0.465 0.043 0.114 3 
0.465 0.033 0.114 3 
0.467 0.022 0.114 3 
0.467 0.014 0.114 3 
0.467 0.003 0.114 3 
0.464 0.274 0.054 3 
0.466 -0.006 0.114 3 
0.467 -0.015 0.114 3 
0.468 -0.025 0.114 3 
0.465 0.073 0.114 3 
0.468 -0.047 0.114 3 
0.474 -0.227 0.117 3 
0.464 0.337 0.114 3 
0.464 0.334 0.114 3 
0.466 0.333 0.114 3 
0.465 0.321 0.114 3 
0.465 0.311 0.114 3 
0.465 0.302 0.114 3 
0.465 0.292 0.113 3 
0.464 0.032 0.012 3 
0.476 0.361 0.2 3 
0.465 0.164 0.114 3 
0.464 0.307 0.119 3 
0.475 -0.237 0.12 3 
0.477 -0.286 0.122 3 
0.479 -0.307 0.123 3 
0.481 -0.326 0.124 3 
0.481 -0.337 0.124 3 
0.481 -0.347 0.124 3 
0.481 -0.355 0.124 3 
0.464 0.294 0.116 3 
0.465 0.178 0.114 3 
0.465 0.172 0.114 3 
0.48 -0.327 0.064 3 
0.466 0.114 0.122 3 
0.465 0.153 0.114 3 
0.466 0.204 0.112 3 
0.465 0.144 0.114 3 
0.466 0.134 0.114 3 
0.466 0.122 0.114 3 
0.464 0.294 0.082 3 
0.465 0.114 0.114 3 
0.465 0.103 0.114 3 
0.465 0.092 0.114 3 
0.465 0.084 0.114 3 
0.477 -0.317 0.043 3 
0.466 0.284 0.133 3 
0.483 -0.325 0.142 3 
0.483 -0.336 0.142 3 
0.482 -0.346 0.143 3 
0.479 -0.357 0.142 3 
0.463 0.34 0.134 3 
0.463 0.333 0.134 3 
0.466 0.323 0.134 3 
0.465 0.342 0.123 3 
0.464 0.308 0.134 3 
0.464 0.301 0.133 3 
0.465 0.299 0.134 3 
0.465 0.293 0.133 3 
0.475 -0.219 0.137 3 
0.466 0.271 0.133 3 
0.465 0.264 0.133 3 
0.464 0.132 0.022 3 
0.464 0.251 0.132 3 
0.477 -0.305 0.084 3 
0.465 0.222 0.132 3 
0.47 -0.116 0.132 3 
0.471 -0.128 0.132 3 
0.477 -0.317 0.032 3 
0.471 -0.136 0.132 3 
0.471 -0.145 0.132 3 
0.468 0.003 0.133 3 
0.466 0.114 0.133 3 
0.466 0.103 0.133 3 
0.466 0.092 0.133 3 
0.466 0.082 0.133 3 
0.466 -0.007 0.084 3 
0.466 0.073 0.133 3 
0.466 0.063 0.133 3 
0.466 0.054 0.133 3 
0.466 0.044 0.133 3 
0.466 0.033 0.133 3 
0.465 0.022 0.133 3 
0.466 0.014 0.133 3 
0.472 -0.156 0.133 3 
0.468 -0.007 0.133 3 
0.472 -0.216 0.064 3 
0.468 -0.015 0.133 3 
0.469 -0.025 0.133 3 
0.468 -0.036 0.133 3 
0.468 -0.047 0.133 3 
0.468 -0.055 0.133 3 
0.469 -0.066 0.134 3 
0.47 -0.075 0.134 3 
0.47 -0.086 0.134 3 
0.47 -0.097 0.134 3 
0.464 0.236 0.124 3 
0.465 0.243 0.127 3 
0.48 -0.309 0.132 3 
0.482 -0.317 0.133 3 
0.483 -0.329 0.133 3 
0.474 -0.276 0.044 3 
0.482 -0.335 0.133 3 
0.482 -0.345 0.133 3 
0.465 0.277 0.124 3 
0.465 0.27 0.124 3 
0.464 0.263 0.124 3 
0.465 0.258 0.124 3 
0.465 0.243 0.124 3 
0.479 -0.298 0.134 3 
0.464 0.233 0.123 3 
0.465 0.231 0.124 3 
0.464 0.224 0.123 3 
0.465 0.213 0.123 3 
0.466 0.204 0.123 3 
0.466 0.193 0.123 3 
0.466 0.184 0.123 3 
0.465 0.172 0.123 3 
0.465 0.164 0.123 3 
0.465 0.153 0.122 3 
0.466 0.134 0.122 3 
0.475 -0.225 0.132 3 
0.472 -0.165 0.133 3 
0.471 -0.176 0.133 3 
0.472 -0.185 0.133 3 
0.473 -0.197 0.133 3 
0.474 -0.206 0.134 3 
0.474 -0.215 0.134 3 
0.465 0.203 0.082 3 
0.475 -0.219 0.134 3 
0.466 0.084 0.063 3 
0.465 0.332 0.132 3 
0.464 0.257 0.13 3 
0.465 0.094 0.033 3 
0.466 0.123 0.133 3 
0.475 -0.237 0.132 3 
0.474 -0.243 0.132 3 
0.474 -0.246 0.132 3 
0.475 -0.253 0.132 3 
0.465 0.253 0.082 3 
0.476 -0.257 0.133 3 
0.477 -0.267 0.133 3 
0.48 -0.348 0.064 3 
0.471 -0.167 0.044 3 
0.477 -0.276 0.133 3 
0.478 -0.287 0.134 3 
0.468 0.193 0.183 3 
0.468 -0.077 0.074 3 
0.48 -0.265 0.193 3 
0.481 -0.276 0.194 3 
0.484 -0.315 0.197 3 
0.472 -0.216 0.044 3 
0.468 0.241 0.184 3 
0.468 0.232 0.184 3 
0.465 0.161 0.084 3 
0.469 0.224 0.184 3 
0.47 0.212 0.184 3 
0.469 0.203 0.183 3 
0.465 0.043 0.103 3 
0.479 -0.255 0.192 3 
0.47 0.183 0.183 3 
0.47 0.174 0.183 3 
0.474 -0.167 0.173 3 
0.471 -0.136 0.143 3 
0.469 0.162 0.182 3 
0.468 0.153 0.182 3 
0.47 0.142 0.182 3 
0.47 0.134 0.182 3 
0.476 -0.275 0.124 3 
0.471 0.123 0.182 3 
0.47 -0.105 0.134 3 
0.471 0.114 0.182 3 
0.472 0.034 0.184 3 
0.471 0.333 0.193 3 
0.471 -0.147 0.094 3 
0.472 0.322 0.192 3 
0.473 0.313 0.192 3 
0.471 0.092 0.184 3 
0.466 -0.036 0.004 3 
0.471 0.083 0.184 3 
0.466 0.043 0.074 3 
0.471 0.072 0.184 3 
0.472 0.037 0.184 3 
0.467 0.112 0.164 3 
0.476 -0.317 0.014 3 
0.471 0.103 0.182 3 
0.472 0.023 0.184 3 
0.472 0.014 0.184 3 
0.464 0.303 0.082 3 
0.472 0.003 0.184 3 
0.465 0.253 0.074 3 
0.474 -0.062 0.185 3 
0.474 -0.076 0.185 3 
0.468 0.132 0.164 3 
0.474 -0.087 0.186 3 
0.478 -0.245 0.192 3 
0.464 0.258 0.063 3 
0.469 0.254 0.182 3 
0.482 -0.296 0.192 3 
0.465 0.144 0.133 3 
0.484 -0.308 0.193 3 
0.484 -0.315 0.194 3 
0.472 0.355 0.189 3 
0.468 0.152 0.173 3 
0.469 0.295 0.184 3 
0.469 0.292 0.184 3 
0.466 0.28 0.182 3 
0.467 0.271 0.182 3 
0.473 -0.226 0.052 3 
0.469 0.263 0.183 3 
0.465 0.27 0.091 3 
0.473 -0.095 0.18 3 
0.474 -0.13 0.181 3 
0.474 -0.135 0.181 3 
0.475 -0.147 0.181 3 
0.474 -0.152 0.181 3 
0.463 0.202 0.033 3 
0.474 -0.155 0.181 3 
0.475 -0.162 0.182 3 
0.477 -0.356 0.013 3 
0.475 -0.165 0.182 3 
0.477 -0.177 0.183 3 
0.474 -0.065 0.183 3 
0.471 0.064 0.181 3 
0.472 0.053 0.182 3 
0.472 -0.007 0.182 3 
0.48 -0.315 0.123 3 
0.473 -0.015 0.182 3 
0.473 -0.026 0.182 3 
0.473 -0.037 0.173 3 
0.473 -0.037 0.182 3 
0.475 -0.046 0.183 3 
0.474 -0.048 0.182 3 
0.468 -0.055 0.063 3 
0.474 -0.056 0.182 3 
0.471 0.344 0.194 3 
0.474 -0.076 0.183 3 
0.464 0.297 0.113 3 
0.473 -0.087 0.182 3 
0.475 -0.096 0.183 3 
0.464 0.203 0.095 3 
0.476 -0.105 0.184 3 
0.472 -0.167 0.102 3 
0.476 -0.116 0.184 3 
0.476 -0.125 0.184 3 
0.475 -0.136 0.184 3 
0.482 -0.286 0.192 3 
0.473 0.084 0.188 3 
0.47 0.163 0.189 3 
0.47 0.154 0.188 3 
0.465 0.084 0.122 3 
0.464 0.284 0.093 3 
0.472 0.144 0.189 3 
0.471 0.134 0.188 3 
0.472 0.123 0.188 3 
0.472 0.073 0.188 3 
0.472 0.112 0.188 3 
0.468 0.284 0.174 3 
0.472 0.103 0.188 3 
0.472 0.092 0.188 3 
0.471 0.172 0.189 3 
0.473 0.062 0.188 3 
0.474 0.054 0.188 3 
0.474 0.042 0.188 3 
0.473 0.034 0.188 3 
0.474 0.023 0.188 3 
0.473 0.012 0.188 3 
0.472 0.003 0.187 3 
0.474 -0.007 0.188 3 
0.475 -0.009 0.189 3 
0.475 -0.015 0.189 3 
0.474 -0.018 0.188 3 
0.47 0.271 0.192 3 
0.479 -0.297 0.123 3 
0.469 0.349 0.196 3 
0.47 0.339 0.196 3 
0.471 0.333 0.196 3 
0.472 0.323 0.196 3 
0.472 -0.156 0.102 3 
0.472 0.312 0.195 3 
0.473 0.303 0.195 3 
0.473 0.297 0.194 3 
0.464 0.18 0.106 3 
0.473 0.293 0.194 3 
0.472 0.282 0.193 3 
0.474 -0.026 0.188 3 
0.471 0.262 0.192 3 
0.47 0.252 0.191 3 
0.47 0.243 0.191 3 
0.471 0.234 0.191 3 
0.472 0.223 0.191 3 
0.469 -0.036 0.144 3 
0.47 0.21 0.19 3 
0.475 -0.296 0.023 3 
0.468 0.202 0.189 3 
0.469 0.194 0.189 3 
0.471 0.184 0.189 3 
0.482 -0.267 0.197 3 
0.469 -0.066 0.074 3 
0.478 -0.175 0.192 3 
0.478 -0.187 0.192 3 
0.477 -0.196 0.192 3 
0.477 -0.205 0.193 3 
0.473 -0.126 0.172 3 
0.479 -0.215 0.194 3 
0.478 -0.227 0.194 3 
0.478 -0.236 0.194 3 
0.465 0.186 0.063 3 
0.478 -0.245 0.195 3 
0.479 -0.255 0.195 3 
0.478 -0.166 0.192 3 
0.482 -0.277 0.197 3 
0.463 0.322 0.054 3 
0.483 -0.287 0.198 3 
0.484 -0.298 0.199 3 
0.484 -0.309 0.2 3 
0.462 0.313 0.014 3 
0.485 -0.316 0.2 3 
0.487 -0.325 0.202 3 
0.487 -0.336 0.202 3 
0.486 -0.346 0.203 3 
0.469 0.349 0.193 3 
0.476 -0.096 0.189 3 
0.474 -0.037 0.188 3 
0.475 -0.04 0.189 3 
0.474 -0.046 0.188 3 
0.475 -0.048 0.189 3 
0.475 -0.057 0.188 3 
0.474 -0.205 0.154 3 
0.475 -0.065 0.189 3 
0.468 -0.129 0.014 3 
0.475 -0.076 0.189 3 
0.47 -0.045 0.153 3 
0.465 0.312 0.134 3 
0.475 -0.085 0.189 3 
0.477 -0.186 0.183 3 
0.478 -0.106 0.19 3 
0.478 -0.117 0.191 3 
0.478 -0.356 0.052 3 
0.477 -0.125 0.19 3 
0.469 -0.036 0.153 3 
0.478 -0.137 0.191 3 
0.464 0.092 0.103 3 
0.479 -0.317 0.102 3 
0.478 -0.146 0.191 3 
0.478 -0.155 0.192 3 
0.466 0.343 0.183 3 
0.47 0.003 0.164 3 
0.468 0.124 0.164 3 
0.467 0.104 0.164 3 
0.469 0.094 0.164 3 
0.469 0.083 0.164 3 
0.469 0.074 0.164 3 
0.468 0.063 0.164 3 
0.465 0.222 0.124 3 
0.469 0.044 0.164 3 
0.469 0.033 0.164 3 
0.478 -0.325 0.082 3 
0.469 0.022 0.164 3 
0.469 0.014 0.164 3 
0.467 0.143 0.164 3 
0.47 -0.007 0.164 3 
0.469 -0.015 0.164 3 
0.47 -0.026 0.164 3 
0.47 -0.037 0.164 3 
0.471 -0.045 0.164 3 
0.474 -0.223 0.169 3 
0.479 -0.266 0.172 3 
0.479 -0.276 0.172 3 
0.479 -0.286 0.172 3 
0.479 -0.296 0.173 3 
0.467 0.261 0.164 3 
0.465 0.114 0.063 3 
0.484 -0.335 0.183 3 
0.486 -0.341 0.184 3 
0.486 -0.345 0.184 3 
0.466 0.346 0.174 3 
0.465 0.341 0.173 3 
0.467 0.333 0.173 3 
0.468 0.324 0.173 3 
0.468 0.314 0.173 3 
0.468 0.304 0.172 3 
0.474 -0.175 0.17 3 
0.476 -0.197 0.172 3 
0.476 -0.206 0.172 3 
0.465 0.274 0.153 3 
0.475 -0.215 0.172 3 
0.473 -0.166 0.164 3 
0.475 -0.227 0.172 3 
0.478 -0.237 0.173 3 
0.478 -0.247 0.174 3 
0.473 -0.205 0.083 3 
0.478 -0.256 0.174 3 
0.467 0.163 0.164 3 
0.468 -0.036 0.104 3 
0.465 0.282 0.082 3 
0.467 0.154 0.164 3 
0.467 0.329 0.164 3 
0.473 -0.155 0.164 3 
0.474 -0.279 0.084 3 
0.473 -0.175 0.164 3 
0.466 0.123 0.122 3 
0.474 -0.187 0.165 3 
0.474 -0.211 0.166 3 
0.482 -0.315 0.172 3 
0.481 -0.325 0.172 3 
0.471 -0.167 0.022 3 
0.483 -0.337 0.173 3 
0.483 -0.345 0.173 3 
0.466 0.338 0.164 3 
0.479 -0.356 0.133 3 
0.463 0.333 0.123 3 
0.467 0.322 0.164 3 
0.468 0.313 0.164 3 
0.467 0.302 0.163 3 
0.467 0.292 0.163 3 
0.465 0.262 0.063 3 
0.467 0.283 0.162 3 
0.467 0.273 0.162 3 
0.474 -0.187 0.162 3 
0.47 -0.105 0.104 3 
0.473 -0.256 0.052 3 
0.471 -0.067 0.162 3 
0.466 0.254 0.164 3 
0.465 0.244 0.163 3 
0.464 0.234 0.163 3 
0.465 0.232 0.163 3 
0.466 0.224 0.163 3 
0.466 0.212 0.163 3 
0.466 0.203 0.163 3 
0.466 0.194 0.162 3 
0.466 0.183 0.162 3 
0.47 -0.116 0.123 3 
0.466 0.174 0.162 3 
0.471 -0.056 0.162 3 
0.482 -0.326 0.181 3 
0.464 0.294 0.113 3 
0.471 -0.075 0.162 3 
0.472 -0.086 0.162 3 
0.472 -0.095 0.163 3 
0.465 0.108 0.041 3 
0.472 -0.106 0.163 3 
0.464 0.283 0.023 3 
0.473 -0.115 0.163 3 
0.473 -0.126 0.163 3 
0.474 -0.135 0.164 3 
0.473 -0.146 0.164 3 
0.469 0.122 0.173 3 
0.479 -0.267 0.184 3 
0.48 -0.277 0.184 3 
0.468 0.202 0.174 3 
0.464 0.248 0.138 3 
0.467 0.192 0.174 3 
0.464 0.274 0.032 3 
0.468 0.184 0.174 3 
0.469 0.173 0.174 3 
0.468 0.164 0.174 3 
0.468 0.144 0.173 3 
0.469 0.133 0.173 3 
0.475 -0.247 0.152 3 
0.478 -0.257 0.183 3 
0.47 -0.097 0.143 3 
0.469 0.113 0.173 3 
0.469 0.102 0.173 3 
0.466 0.142 0.123 3 
0.47 0.094 0.173 3 
0.47 0.083 0.173 3 
0.47 0.072 0.173 3 
0.469 0.064 0.172 3 
0.47 0.053 0.173 3 
0.465 0.224 0.054 3 
0.47 0.044 0.173 3 
0.486 -0.345 0.193 3 
0.467 0.054 0.074 3 
0.477 -0.195 0.184 3 
0.467 0.014 0.144 3 
0.476 -0.207 0.184 3 
0.477 -0.216 0.184 3 
0.471 -0.175 0.074 3 
0.465 0.048 0.004 3 
0.476 -0.228 0.184 3 
0.485 -0.319 0.191 3 
0.486 -0.327 0.192 3 
0.472 -0.196 0.052 3 
0.486 -0.335 0.193 3 
0.464 0.313 0.094 3 
0.466 -0.007 0.044 3 
0.469 0.351 0.184 3 
0.467 -0.007 0.063 3 
0.468 0.331 0.183 3 
0.47 0.323 0.183 3 
0.47 0.313 0.182 3 
0.464 0.294 0.094 3 
0.474 -0.107 0.177 3 
0.474 -0.115 0.178 3 
0.477 -0.235 0.182 3 
0.478 -0.247 0.182 3 
0.474 -0.257 0.072 3 
0.482 -0.306 0.183 3 
0.464 0.054 0.004 3 
0.484 -0.325 0.185 3 
0.468 0.288 0.174 3 
0.468 0.272 0.174 3 
0.481 -0.308 0.174 3 
0.464 0.342 0.143 3 
0.468 0.262 0.173 3 
0.464 0.07 0.004 3 
0.467 0.252 0.173 3 
0.464 0.214 0.109 3 
0.468 0.244 0.173 3 
0.465 0.003 0.004 3 
0.467 0.231 0.172 3 
0.468 0.223 0.172 3 
0.468 0.214 0.172 3 
0.473 -0.135 0.172 3 
0.473 -0.146 0.172 3 
0.473 -0.155 0.172 3 
0.475 -0.176 0.174 3 
0.476 -0.186 0.174 3 
0.466 -0.087 0.012 3 
0.483 -0.317 0.181 3 
0.473 -0.185 0.094 3 
0.472 -0.067 0.173 3 
0.47 0.034 0.173 3 
0.469 0.052 0.164 3 
0.47 0.023 0.173 3 
0.47 0.014 0.172 3 
0.47 0.003 0.173 3 
0.471 -0.007 0.173 3 
0.471 -0.015 0.173 3 
0.471 -0.026 0.173 3 
0.462 0.104 0.012 3 
0.472 -0.045 0.173 3 
0.471 -0.056 0.173 3 
0.466 0.003 0.103 3 
0.468 -0.036 0.044 3 
0.466 0.103 0.044 3 
0.462 0.213 0.014 3 
0.472 -0.075 0.173 3 
0.472 -0.087 0.174 3 
0.473 -0.095 0.174 3 
0.473 -0.106 0.174 3 
0.463 0.241 0.104 3 
0.473 -0.115 0.174 3 
0.48 -0.287 0.182 3 
0.465 0.293 0.142 3 
0.48 -0.297 0.182 3 
0.465 0.133 0.044 3 
0.464 0.223 0.043 3 
0.464 0.214 0.043 3 
0.465 0.209 0.043 3 
0.464 0.202 0.043 3 
0.464 0.194 0.044 3 
0.463 0.182 0.044 3 
0.464 0.174 0.044 3 
0.464 0.163 0.044 3 
0.465 0.155 0.044 3 
0.464 0.152 0.044 3 
0.465 0.149 0.044 3 
0.465 0.144 0.044 3 
0.463 0.243 0.043 3 
0.474 -0.298 0.012 3 
0.465 0.124 0.044 3 
0.464 0.121 0.044 3 
0.464 0.113 0.044 3 
0.466 0.094 0.044 3 
0.466 0.084 0.044 3 
0.466 0.073 0.044 3 
0.467 0.054 0.044 3 
0.466 0.032 0.044 3 
0.466 0.022 0.044 3 
0.466 0.014 0.044 3 
0.467 0.003 0.044 3 
0.463 0.339 0.042 3 
0.473 -0.266 0.052 3 
0.473 -0.275 0.052 3 
0.473 -0.285 0.052 3 
0.475 -0.295 0.052 3 
0.476 -0.306 0.052 3 
0.477 -0.317 0.052 3 
0.478 -0.325 0.052 3 
0.48 -0.337 0.052 3 
0.464 0.202 0.049 3 
0.465 0.161 0.049 3 
0.475 -0.292 0.049 3 
0.464 0.105 0.047 3 
0.467 -0.015 0.044 3 
0.462 0.334 0.042 3 
0.462 0.314 0.043 3 
0.463 0.302 0.043 3 
0.468 -0.066 0.044 3 
0.464 0.293 0.043 3 
0.464 0.283 0.043 3 
0.464 0.274 0.043 3 
0.463 0.264 0.043 3 
0.468 -0.055 0.033 3 
0.464 0.223 0.024 3 
0.463 0.252 0.043 3 
0.479 -0.336 0.034 3 
0.477 -0.355 0.043 3 
0.464 0.143 0.038 3 
0.464 0.132 0.038 3 
0.475 -0.279 0.038 3 
0.463 0.339 0.034 3 
0.462 0.331 0.034 3 
0.461 0.323 0.034 3 
0.461 0.313 0.034 3 
0.463 0.304 0.034 3 
0.464 0.293 0.034 3 
0.464 0.283 0.034 3 
0.478 -0.328 0.034 3 
0.479 -0.347 0.043 3 
0.479 -0.347 0.034 3 
0.476 -0.358 0.034 3 
0.465 0.284 0.032 3 
0.463 0.264 0.032 3 
0.462 0.251 0.032 3 
0.463 0.243 0.032 3 
0.463 0.234 0.032 3 
0.465 0.062 0.001 3 
0.463 0.222 0.032 3 
0.464 0.214 0.032 3 
0.463 0.193 0.033 3 
0.472 -0.187 0.044 3 
0.467 -0.025 0.044 3 
0.468 -0.047 0.044 3 
0.468 -0.055 0.044 3 
0.468 -0.077 0.044 3 
0.469 -0.085 0.044 3 
0.47 -0.096 0.044 3 
0.47 -0.105 0.044 3 
0.47 -0.116 0.044 3 
0.471 -0.135 0.044 3 
0.472 -0.147 0.044 3 
0.472 -0.156 0.044 3 
0.471 -0.175 0.044 3 
0.473 -0.247 0.052 3 
0.473 -0.197 0.044 3 
0.473 -0.205 0.044 3 
0.473 -0.226 0.044 3 
0.473 -0.235 0.044 3 
0.473 -0.247 0.044 3 
0.473 -0.266 0.044 3 
0.474 -0.285 0.044 3 
0.475 -0.295 0.044 3 
0.477 -0.307 0.043 3 
0.478 -0.328 0.043 3 
0.479 -0.336 0.043 3 
0.478 -0.315 0.064 3 
0.472 -0.205 0.064 3 
0.473 -0.226 0.064 3 
0.474 -0.236 0.064 3 
0.475 -0.243 0.064 3 
0.474 -0.245 0.064 3 
0.474 -0.257 0.064 3 
0.473 -0.266 0.064 3 
0.474 -0.276 0.064 3 
0.475 -0.286 0.064 3 
0.476 -0.297 0.064 3 
0.463 0.243 0.054 3 
0.477 -0.305 0.064 3 
0.475 -0.289 0.044 3 
0.48 -0.337 0.064 3 
0.479 -0.357 0.064 3 
0.464 0.154 0.052 3 
0.464 0.223 0.06 3 
0.474 -0.286 0.061 3 
0.465 0.158 0.057 3 
0.463 0.339 0.054 3 
0.463 0.302 0.054 3 
0.463 0.293 0.054 3 
0.464 0.283 0.054 3 
0.464 0.262 0.054 3 
0.469 -0.107 0.063 3 
0.466 0.054 0.063 3 
0.466 0.024 0.063 3 
0.467 0.003 0.063 3 
0.467 -0.015 0.063 3 
0.467 -0.025 0.063 3 
0.467 -0.036 0.063 3 
0.468 -0.047 0.063 3 
0.469 -0.066 0.063 3 
0.464 0.163 0.033 3 
0.468 -0.077 0.063 3 
0.468 -0.085 0.063 3 
0.469 -0.096 0.063 3 
0.463 0.252 0.054 3 
0.47 -0.116 0.063 3 
0.479 -0.347 0.052 3 
0.47 -0.127 0.063 3 
0.47 -0.135 0.063 3 
0.471 -0.147 0.063 3 
0.471 -0.155 0.063 3 
0.471 -0.166 0.063 3 
0.471 -0.175 0.063 3 
0.463 0.213 0.024 3 
0.472 -0.187 0.063 3 
0.472 -0.196 0.064 3 
0.47 -0.107 0.052 3 
0.467 0.003 0.052 3 
0.467 -0.007 0.052 3 
0.467 -0.015 0.052 3 
0.467 -0.025 0.052 3 
0.462 0.282 0.012 3 
0.467 -0.036 0.052 3 
0.468 -0.047 0.052 3 
0.468 -0.055 0.052 3 
0.468 -0.066 0.052 3 
0.468 -0.077 0.052 3 
0.468 -0.085 0.052 3 
0.469 -0.096 0.052 3 
0.467 0.014 0.052 3 
0.469 -0.115 0.052 3 
0.469 -0.126 0.052 3 
0.47 -0.135 0.052 3 
0.472 -0.147 0.052 3 
0.472 -0.156 0.052 3 
0.471 -0.166 0.052 3 
0.471 -0.178 0.052 3 
0.471 -0.187 0.052 3 
0.472 -0.205 0.052 3 
0.472 -0.216 0.052 3 
0.474 -0.236 0.052 3 
0.465 0.144 0.052 3 
0.464 0.232 0.054 3 
0.464 0.214 0.054 3 
0.465 0.212 0.054 3 
0.465 0.203 0.054 3 
0.464 0.194 0.054 3 
0.464 0.182 0.054 3 
0.474 -0.295 0.055 3 
0.464 -0.055 0.012 3 
0.464 0.223 0.052 3 
0.464 0.174 0.052 3 
0.464 0.163 0.052 3 
0.465 0.152 0.052 3 
0.464 0.174 0.033 3 
0.465 0.133 0.052 3 
0.464 0.121 0.052 3 
0.465 0.103 0.052 3 
0.465 0.094 0.052 3 
0.466 0.084 0.052 3 
0.466 0.073 0.052 3 
0.466 0.062 0.052 3 
0.466 0.054 0.052 3 
0.466 0.043 0.052 3 
0.466 0.032 0.052 3 
0.466 0.024 0.052 3 
0.462 0.204 0.014 3 
0.463 0.324 0.014 3 
0.474 -0.295 0.015 3 
0.476 -0.307 0.014 3 
0.477 -0.328 0.014 3 
0.477 -0.335 0.014 3 
0.478 -0.346 0.013 3 
0.462 0.304 0.012 3 
0.462 0.294 0.012 3 
0.462 0.263 0.013 3 
0.462 0.254 0.013 3 
0.461 0.232 0.013 3 
0.461 0.224 0.013 3 
0.461 0.33 0.014 3 
0.462 0.193 0.014 3 
0.462 0.184 0.014 3 
0.462 0.173 0.014 3 
0.463 0.162 0.014 3 
0.463 0.154 0.014 3 
0.464 0.132 0.014 3 
0.464 0.003 0.015 3 
0.464 -0.007 0.015 3 
0.464 -0.025 0.015 3 
0.469 -0.146 0.014 3 
0.47 -0.166 0.014 3 
0.469 -0.177 0.014 3 
0.469 -0.126 0.023 3 
0.465 0.003 0.023 3 
0.465 -0.007 0.023 3 
0.465 -0.015 0.023 3 
0.466 -0.025 0.023 3 
0.466 -0.036 0.023 3 
0.466 -0.047 0.023 3 
0.467 -0.055 0.023 3 
0.467 -0.066 0.023 3 
0.468 -0.077 0.023 3 
0.469 -0.096 0.023 3 
0.469 -0.107 0.023 3 
0.469 -0.115 0.023 3 
0.469 -0.186 0.014 3 
0.469 -0.135 0.022 3 
0.47 -0.146 0.022 3 
0.471 -0.155 0.022 3 
0.471 -0.175 0.022 3 
0.471 -0.187 0.022 3 
0.471 -0.195 0.022 3 
0.471 -0.207 0.022 3 
0.464 0.113 0.02 3 
0.464 0.043 0.02 3 
0.464 0.03 0.02 3 
0.464 0.024 0.02 3 
0.466 0.032 0.004 3 
0.467 -0.106 0.012 3 
0.467 -0.115 0.012 3 
0.465 -0.049 0.01 3 
0.465 0.043 0.007 3 
0.465 0.024 0.007 3 
0.465 -0.001 0.007 3 
0.465 -0.007 0.007 3 
0.466 -0.015 0.007 3 
0.475 -0.306 0.003 3 
0.466 0.133 0.003 3 
0.464 0.064 0.004 3 
0.465 0.043 0.004 3 
0.466 -0.095 0.012 3 
0.465 0.024 0.004 3 
0.465 0.014 0.004 3 
0.465 -0.007 0.004 3 
0.466 -0.015 0.004 3 
0.467 -0.026 0.004 3 
0.465 -0.047 0.004 3 
0.467 -0.055 0.004 3 
0.467 -0.066 0.004 3 
0.468 -0.107 0.004 3 
0.469 -0.115 0.004 3 
0.474 -0.305 0 3 
0.463 0.053 0.012 3 
0.47 -0.198 0.014 3 
0.47 -0.215 0.014 3 
0.471 -0.228 0.013 3 
0.472 -0.238 0.013 3 
0.473 -0.245 0.013 3 
0.474 -0.257 0.013 3 
0.474 -0.276 0.012 3 
0.475 -0.302 0.012 3 
0.462 0.093 0.012 3 
0.463 0.083 0.012 3 
0.463 0.072 0.012 3 
0.463 0.064 0.012 3 
0.465 0.014 0.023 3 
0.463 0.043 0.012 3 
0.463 0.024 0.013 3 
0.464 0.014 0.012 3 
0.463 0.003 0.013 3 
0.464 -0.007 0.012 3 
0.464 -0.025 0.012 3 
0.465 -0.028 0.012 3 
0.465 -0.036 0.012 3 
0.464 -0.047 0.012 3 
0.466 -0.057 0.012 3 
0.466 -0.065 0.012 3 
0.472 -0.217 0.033 3 
0.47 -0.096 0.033 3 
0.47 -0.105 0.033 3 
0.471 -0.116 0.033 3 
0.464 0.121 0.014 3 
0.47 -0.127 0.033 3 
0.47 -0.135 0.033 3 
0.471 -0.147 0.033 3 
0.472 -0.156 0.033 3 
0.472 -0.176 0.033 3 
0.472 -0.187 0.033 3 
0.472 -0.196 0.033 3 
0.471 -0.207 0.033 3 
0.47 -0.085 0.033 3 
0.472 -0.226 0.033 3 
0.473 -0.235 0.033 3 
0.473 -0.247 0.033 3 
0.473 -0.257 0.032 3 
0.473 -0.266 0.032 3 
0.475 -0.273 0.032 3 
0.474 -0.275 0.032 3 
0.475 -0.279 0.032 3 
0.475 -0.286 0.032 3 
0.475 -0.295 0.032 3 
0.477 -0.307 0.032 3 
0.466 0.043 0.033 3 
0.465 0.161 0.033 3 
0.464 0.154 0.033 3 
0.464 0.143 0.033 3 
0.465 0.133 0.033 3 
0.464 0.13 0.033 3 
0.464 0.124 0.033 3 
0.465 0.119 0.033 3 
0.466 0.114 0.033 3 
0.466 0.103 0.033 3 
0.465 0.073 0.033 3 
0.465 0.064 0.033 3 
0.466 0.054 0.033 3 
0.474 -0.356 0.031 3 
0.466 0.032 0.034 3 
0.468 -0.085 0.023 3 
0.466 0.024 0.034 3 
0.466 0.014 0.034 3 
0.466 0.003 0.034 3 
0.466 -0.007 0.034 3 
0.467 -0.015 0.034 3 
0.467 -0.025 0.034 3 
0.467 -0.036 0.034 3 
0.467 -0.047 0.034 3 
0.469 -0.077 0.033 3 
0.465 0.102 0.023 3 
0.477 -0.317 0.023 3 
0.477 -0.328 0.023 3 
0.479 -0.337 0.022 3 
0.478 -0.357 0.022 3 
0.463 0.182 0.022 3 
0.463 0.174 0.022 3 
0.464 0.163 0.022 3 
0.464 0.008 0.02 3 
0.464 0.154 0.022 3 
0.464 0.143 0.022 3 
0.465 0.119 0.022 3 
0.465 0.113 0.022 3 
0.476 -0.306 0.023 3 
0.464 0.097 0.023 3 
0.464 0.094 0.023 3 
0.464 0.083 0.023 3 
0.465 0.073 0.023 3 
0.464 0.07 0.023 3 
0.465 0.064 0.023 3 
0.464 0.062 0.023 3 
0.464 0.054 0.023 3 
0.465 0.051 0.023 3 
0.465 0.032 0.023 3 
0.465 0.024 0.023 3 
0.463 0.234 0.024 3 
0.465 0.169 0.027 3 
0.464 0.091 0.028 3 
0.464 0.083 0.028 3 
0.463 0.339 0.022 3 
0.462 0.334 0.022 3 
0.462 0.324 0.023 3 
0.474 -0.356 0.008 3 
0.463 0.314 0.023 3 
0.463 0.301 0.023 3 
0.462 0.263 0.024 3 
0.462 0.254 0.024 3 
0.463 0.243 0.024 3 
0.466 0.073 0.063 3 
0.464 0.203 0.024 3 
0.464 0.097 0.025 3 
0.464 0.072 0.026 3 
0.471 -0.222 0.024 3 
0.472 -0.226 0.024 3 
0.473 -0.257 0.024 3 
0.474 -0.266 0.024 3 
0.474 -0.275 0.024 3 
0.475 -0.283 0.024 3 
0.474 -0.285 0.024 3 
0.475 -0.289 0.024 3 
0.48 -0.355 0.103 3 
0.477 -0.289 0.104 3 
0.464 0.32 0.1 3 
0.464 0.288 0.099 3 
0.464 0.186 0.098 3 
0.479 -0.326 0.073 3 
0.464 0.152 0.098 3 
0.474 -0.267 0.101 3 
0.477 -0.295 0.102 3 
0.479 -0.307 0.102 3 
0.48 -0.325 0.103 3 
0.479 -0.338 0.103 3 
0.48 -0.346 0.103 3 
0.476 -0.278 0.104 3 
0.466 0.062 0.044 3 
0.464 0.313 0.097 3 
0.464 0.3 0.096 3 
0.463 0.339 0.094 3 
0.463 0.332 0.094 3 
0.464 0.323 0.094 3 
0.464 -0.015 0.012 3 
0.464 0.303 0.094 3 
0.464 0.214 0.093 3 
0.465 0.292 0.094 3 
0.465 0.279 0.093 3 
0.465 0.043 0.023 3 
0.465 0.279 0.102 3 
0.474 -0.236 0.024 3 
0.474 -0.258 0.106 3 
0.465 0.341 0.103 3 
0.464 0.337 0.103 3 
0.464 0.333 0.103 3 
0.465 0.331 0.103 3 
0.465 0.321 0.103 3 
0.465 0.314 0.102 3 
0.465 0.301 0.102 3 
0.465 0.292 0.102 3 
0.464 0.284 0.102 3 
0.462 0.331 0.082 3 
0.464 0.272 0.093 3 
0.471 -0.147 0.102 3 
0.473 -0.176 0.102 3 
0.474 -0.186 0.103 3 
0.473 -0.197 0.103 3 
0.473 -0.205 0.103 3 
0.473 -0.217 0.103 3 
0.473 -0.226 0.103 3 
0.474 -0.236 0.103 3 
0.475 -0.246 0.104 3 
0.474 -0.251 0.103 3 
0.474 -0.257 0.104 3 
0.468 -0.077 0.093 3 
0.465 0.054 0.092 3 
0.467 0.043 0.092 3 
0.466 0.033 0.092 3 
0.467 0.022 0.092 3 
0.466 0.003 0.092 3 
0.466 -0.007 0.092 3 
0.467 -0.015 0.093 3 
0.468 -0.025 0.093 3 
0.467 -0.036 0.093 3 
0.468 -0.047 0.093 3 
0.468 -0.055 0.093 3 
0.468 -0.066 0.093 3 
0.464 0.124 0.023 3 
0.469 -0.085 0.093 3 
0.47 -0.097 0.093 3 
0.47 -0.105 0.093 3 
0.469 -0.116 0.093 3 
0.469 -0.127 0.093 3 
0.463 0.193 0.022 3 
0.471 -0.155 0.094 3 
0.472 -0.167 0.094 3 
0.472 -0.176 0.094 3 
0.473 -0.197 0.094 3 
0.473 -0.205 0.094 3 
0.465 0.163 0.093 3 
0.464 0.263 0.093 3 
0.463 0.253 0.093 3 
0.464 0.244 0.093 3 
0.465 0.132 0.006 3 
0.464 0.232 0.093 3 
0.464 0.223 0.093 3 
0.465 0.206 0.093 3 
0.465 0.203 0.093 3 
0.465 0.192 0.093 3 
0.465 0.183 0.093 3 
0.464 0.18 0.093 3 
0.465 0.172 0.093 3 
0.47 -0.135 0.104 3 
0.465 0.152 0.093 3 
0.465 0.144 0.092 3 
0.464 0.062 0.026 3 
0.465 0.133 0.092 3 
0.465 0.122 0.092 3 
0.465 0.114 0.092 3 
0.465 0.103 0.092 3 
0.465 0.092 0.092 3 
0.465 0.084 0.092 3 
0.466 0.073 0.092 3 
0.465 0.062 0.092 3 
0.476 -0.285 0.113 3 
0.473 -0.206 0.114 3 
0.474 -0.215 0.114 3 
0.474 -0.227 0.114 3 
0.466 0.343 0.112 3 
0.464 0.272 0.11 3 
0.465 0.227 0.11 3 
0.464 0.16 0.109 3 
0.474 -0.236 0.112 3 
0.475 -0.24 0.112 3 
0.475 -0.255 0.112 3 
0.476 -0.266 0.113 3 
0.476 -0.275 0.113 3 
0.473 -0.197 0.114 3 
0.478 -0.296 0.114 3 
0.478 -0.306 0.114 3 
0.479 -0.317 0.114 3 
0.479 -0.327 0.114 3 
0.474 -0.245 0.084 3 
0.464 0.278 0.107 3 
0.464 0.102 0.106 3 
0.474 -0.245 0.109 3 
0.48 -0.335 0.112 3 
0.481 -0.347 0.112 3 
0.474 -0.245 0.024 3 
0.47 -0.086 0.112 3 
0.464 0.263 0.113 3 
0.464 0.254 0.113 3 
0.464 0.242 0.112 3 
0.464 0.233 0.112 3 
0.465 0.224 0.112 3 
0.462 0.324 0.043 3 
0.464 0.22 0.112 3 
0.465 0.212 0.112 3 
0.466 0.193 0.112 3 
0.469 -0.055 0.112 3 
0.47 -0.066 0.112 3 
0.47 -0.075 0.112 3 
0.48 -0.357 0.112 3 
0.468 -0.066 0.033 3 
0.47 -0.097 0.112 3 
0.47 -0.105 0.112 3 
0.47 -0.116 0.113 3 
0.47 -0.127 0.113 3 
0.47 -0.136 0.113 3 
0.473 -0.185 0.114 3 
0.471 -0.147 0.113 3 
0.472 -0.156 0.113 3 
0.473 -0.165 0.113 3 
0.473 -0.176 0.114 3 
0.467 -0.015 0.103 3 
0.464 0.102 0.103 3 
0.465 0.097 0.103 3 
0.465 0.089 0.103 3 
0.465 0.084 0.103 3 
0.465 0.073 0.103 3 
0.466 0.062 0.103 3 
0.47 -0.097 0.082 3 
0.465 0.054 0.103 3 
0.467 0.033 0.103 3 
0.468 0.014 0.103 3 
0.466 -0.006 0.103 3 
0.464 0.191 0.084 3 
0.464 0.108 0.103 3 
0.467 -0.025 0.103 3 
0.469 -0.047 0.104 3 
0.469 -0.055 0.104 3 
0.469 -0.066 0.104 3 
0.468 -0.077 0.104 3 
0.469 -0.085 0.104 3 
0.463 0.234 0.043 3 
0.47 -0.097 0.104 3 
0.469 -0.116 0.104 3 
0.465 0.269 0.063 3 
0.47 -0.127 0.104 3 
0.464 0.183 0.103 3 
0.464 0.269 0.104 3 
0.464 0.263 0.104 3 
0.464 0.254 0.104 3 
0.464 0.323 0.082 3 
0.464 0.232 0.104 3 
0.461 0.271 0.013 3 
0.465 0.224 0.104 3 
0.464 0.22 0.104 3 
0.464 0.214 0.104 3 
0.465 0.212 0.104 3 
0.465 0.203 0.104 3 
0.465 0.192 0.104 3 
0.473 -0.217 0.094 3 
0.465 0.175 0.104 3 
0.464 0.171 0.103 3 
0.465 0.166 0.103 3 
0.48 -0.348 0.022 3 
0.465 0.164 0.103 3 
0.465 0.152 0.103 3 
0.465 0.144 0.103 3 
0.465 0.133 0.103 3 
0.465 0.122 0.103 3 
0.465 0.114 0.103 3 
0.467 0.043 0.044 3 
0.467 0.003 0.074 3 
0.465 0.144 0.074 3 
0.465 0.133 0.074 3 
0.466 0.122 0.074 3 
0.466 0.114 0.074 3 
0.466 0.103 0.074 3 
0.466 0.092 0.074 3 
0.466 0.084 0.074 3 
0.466 0.073 0.074 3 
0.467 0.062 0.074 3 
0.467 0.033 0.074 3 
0.467 0.022 0.074 3 
0.466 0.014 0.074 3 
0.465 0.152 0.074 3 
0.467 -0.007 0.074 3 
0.467 -0.015 0.074 3 
0.468 -0.025 0.074 3 
0.468 -0.036 0.074 3 
0.469 -0.055 0.074 3 
0.469 -0.085 0.074 3 
0.47 -0.097 0.074 3 
0.47 -0.105 0.074 3 
0.469 -0.116 0.074 3 
0.47 -0.127 0.074 3 
0.47 -0.135 0.074 3 
0.465 0.229 0.074 3 
0.463 0.339 0.074 3 
0.464 0.333 0.074 3 
0.464 0.323 0.074 3 
0.464 0.313 0.074 3 
0.463 0.302 0.074 3 
0.464 0.294 0.074 3 
0.464 0.284 0.074 3 
0.465 0.282 0.074 3 
0.464 0.272 0.074 3 
0.465 0.262 0.074 3 
0.465 0.244 0.074 3 
0.464 0.232 0.074 3 
0.471 -0.155 0.074 3 
0.464 0.223 0.074 3 
0.465 0.221 0.074 3 
0.465 0.212 0.074 3 
0.465 0.03 0.007 3 
0.465 0.203 0.074 3 
0.464 0.194 0.074 3 
0.465 0.192 0.074 3 
0.465 0.183 0.074 3 
0.464 0.174 0.074 3 
0.464 0.163 0.073 3 
0.465 0.158 0.074 3 
0.465 0.224 0.063 3 
0.464 0.154 0.068 3 
0.464 0.177 0.065 3 
0.464 0.323 0.062 3 
0.463 0.312 0.062 3 
0.463 0.302 0.062 3 
0.463 0.293 0.062 3 
0.464 0.284 0.063 3 
0.465 0.275 0.063 3 
0.464 0.271 0.063 3 
0.464 0.252 0.063 3 
0.464 0.243 0.063 3 
0.464 0.232 0.063 3 
0.464 0.197 0.068 3 
0.465 0.212 0.063 3 
0.465 0.203 0.063 3 
0.464 0.194 0.063 3 
0.464 0.182 0.063 3 
0.465 0.18 0.063 3 
0.464 0.174 0.063 3 
0.464 -0.044 0.012 3 
0.465 0.144 0.063 3 
0.465 0.133 0.063 3 
0.466 0.103 0.063 3 
0.466 0.092 0.063 3 
0.474 -0.245 0.072 3 
0.471 -0.166 0.074 3 
0.464 0.262 0.071 3 
0.464 0.252 0.071 3 
0.464 0.243 0.071 3 
0.472 -0.187 0.072 3 
0.472 -0.196 0.072 3 
0.472 -0.205 0.072 3 
0.465 0.083 0.033 3 
0.472 -0.216 0.072 3 
0.465 0.124 0.052 3 
0.473 -0.226 0.072 3 
0.474 -0.236 0.072 3 
0.474 -0.355 0.079 3 
0.474 -0.267 0.072 3 
0.474 -0.276 0.072 3 
0.475 -0.283 0.072 3 
0.475 -0.286 0.072 3 
0.476 -0.297 0.073 3 
0.478 -0.306 0.073 3 
0.477 -0.315 0.073 3 
0.479 -0.336 0.073 3 
0.48 -0.348 0.073 3 
0.478 -0.356 0.073 3 
0.465 0.269 0.068 3 
0.465 0.135 0.006 3 
0.464 0.2 0.084 3 
0.465 0.189 0.084 3 
0.465 0.172 0.084 3 
0.472 -0.187 0.083 3 
0.464 0.168 0.084 3 
0.462 0.334 0.054 3 
0.464 0.163 0.084 3 
0.465 0.144 0.084 3 
0.465 0.133 0.084 3 
0.465 0.122 0.084 3 
0.466 0.114 0.084 3 
0.465 0.103 0.084 3 
0.464 0.211 0.084 3 
0.465 0.092 0.084 3 
0.466 0.084 0.084 3 
0.461 0.337 0.014 3 
0.465 0.073 0.084 3 
0.468 -0.047 0.074 3 
0.465 0.062 0.084 3 
0.466 0.054 0.084 3 
0.467 0.043 0.084 3 
0.467 0.033 0.084 3 
0.466 0.022 0.084 3 
0.466 0.014 0.084 3 
0.477 -0.305 0.093 3 
0.465 0.298 0.091 3 
0.464 0.157 0.09 3 
0.473 -0.226 0.092 3 
0.474 -0.236 0.092 3 
0.474 -0.257 0.092 3 
0.463 0.312 0.054 3 
0.474 -0.267 0.092 3 
0.475 -0.274 0.092 3 
0.47 -0.127 0.044 3 
0.475 -0.277 0.092 3 
0.463 0.292 0.023 3 
0.476 -0.297 0.093 3 
0.466 0.003 0.084 3 
0.479 -0.317 0.093 3 
0.48 -0.328 0.094 3 
0.48 -0.335 0.094 3 
0.481 -0.346 0.094 3 
0.479 -0.358 0.094 3 
0.465 0.247 0.088 3 
0.466 0.043 0.063 3 
0.465 0.238 0.087 3 
0.465 0.23 0.087 3 
0.464 0.169 0.087 3 
0.465 0.224 0.085 3 
0.462 0.142 0.014 3 
0.464 0.154 0.063 3 
0.471 -0.147 0.083 3 
0.471 -0.155 0.083 3 
0.471 -0.166 0.083 3 
0.465 0.014 0.007 3 
0.471 -0.175 0.083 3 
0.473 -0.197 0.083 3 
0.472 -0.216 0.083 3 
0.473 -0.226 0.083 3 
0.473 -0.235 0.083 3 
0.474 -0.257 0.084 3 
0.473 -0.266 0.084 3 
0.469 -0.127 0.082 3 
0.475 -0.277 0.084 3 
0.475 -0.287 0.084 3 
0.477 -0.298 0.084 3 
0.478 -0.316 0.084 3 
0.465 0.256 0.079 3 
0.465 0.227 0.079 3 
0.464 0.177 0.079 3 
0.48 -0.337 0.082 3 
0.48 -0.348 0.082 3 
0.477 -0.355 0.082 3 
0.464 0.154 0.076 3 
0.463 0.273 0.024 3 
0.474 -0.276 0.087 3 
0.463 0.339 0.082 3 
0.463 0.312 0.082 3 
0.465 0.288 0.082 3 
0.464 0.284 0.082 3 
0.464 0.272 0.082 3 
0.464 0.263 0.082 3 
0.465 0.244 0.082 3 
0.467 0.062 0.063 3 
0.464 0.232 0.082 3 
0.464 0.223 0.082 3 
0.465 0.218 0.082 3 
0.465 0.273 0.113 3 
0.465 0.212 0.082 3 
0.468 -0.025 0.082 3 
0.467 -0.036 0.082 3 
0.468 -0.047 0.082 3 
0.468 -0.055 0.082 3 
0.468 -0.066 0.082 3 
0.468 -0.077 0.082 3 
0.469 -0.085 0.082 3 
0.47 -0.105 0.082 3 
0.464 -0.015 0.015 3 
0.469 -0.116 0.082 3 
