# .PCD v0.7 - Point Cloud Data file
FIELDS x y z intensity
SIZE 4 4 4 4
TYPE F F F F
COUNT 1 1 1 1
WIDTH 2477
HEIGHT 1
VIEWPOINT 0 0 0 1 0 0 0
POINTS 2477
DATA ascii
0.516 -0.092 0.07 0 
0.517 -0.099 0.07 0 
0.341 0.017 0.004 0 
0.341 0.003 0.004 0 
0.34 0.012 0.004 0 
0.379 -0.229 -0.027 1 
0.372 -0.195 -0.023 1 
0.364 -0.126 -0.017 1 
0.364 -0.115 -0.017 1 
0.36 -0.058 -0.015 1 
0.354 -0.026 -0.013 1 
0.351 -0.016 -0.011 1 
0.353 0.044 -0.012 1 
0.354 0.103 -0.014 1 
0.352 0.114 -0.014 1 
0.35 0.124 -0.013 1 
0.352 0.134 -0.014 1 
0.35 0.163 -0.015 1 
0.347 0.174 -0.014 1 
0.382 -0.245 -0.027 1 
0.388 -0.234 -0.028 1 
0.372 -0.187 -0.02 1 
0.373 -0.175 -0.02 1 
0.373 -0.146 -0.019 1 
0.371 -0.136 -0.018 1 
0.373 -0.126 -0.019 1 
0.364 -0.085 -0.015 1 
0.365 -0.062 -0.015 1 
0.362 -0.055 -0.014 1 
0.363 -0.036 -0.014 1 
0.36 -0.025 -0.013 1 
0.338 0.014 -0.005 1 
0.361 0.053 -0.014 1 
0.362 0.064 -0.014 1 
0.363 0.068 -0.015 1 
0.361 0.074 -0.014 1 
0.36 0.083 -0.014 1 
0.36 0.085 -0.014 1 
0.364 0.094 -0.016 1 
0.364 0.103 -0.016 1 
0.361 0.124 -0.015 1 
0.358 0.131 -0.014 1 
0.353 0.174 -0.015 1 
0.353 0.182 -0.015 1 
0.351 0.214 -0.016 1 
0.381 -0.206 -0.022 1 
0.374 -0.116 -0.017 1 
0.371 -0.096 -0.016 1 
0.372 -0.085 -0.016 1 
0.374 -0.076 -0.016 1 
0.37 -0.036 -0.015 1 
0.37 -0.034 -0.015 1 
0.359 -0.015 -0.011 1 
0.354 -0.006 -0.009 1 
0.341 0.016 -0.005 1 
0.353 0.02 -0.009 1 
0.364 0.043 -0.013 1 
0.363 0.115 -0.014 1 
0.364 0.133 -0.015 1 
0.364 0.145 -0.015 1 
0.361 0.192 -0.016 1 
0.354 0.217 -0.016 1 
0.392 -0.256 -0.026 1 
0.384 -0.195 -0.021 1 
0.383 -0.155 -0.019 1 
0.38 -0.126 -0.017 1 
0.379 -0.115 -0.017 1 
0.379 -0.076 -0.016 1 
0.374 -0.046 -0.014 1 
0.374 -0.038 -0.014 1 
0.369 -0.025 -0.013 1 
0.373 0.084 -0.015 1 
0.374 0.102 -0.016 1 
0.373 0.123 -0.016 1 
0.37 0.133 -0.015 1 
0.368 0.144 -0.015 1 
0.37 0.163 -0.016 1 
0.356 0.219 -0.015 1 
0.404 -0.278 -0.029 1 
0.393 -0.216 -0.022 1 
0.382 -0.095 -0.015 1 
0.383 -0.091 -0.016 1 
0.381 -0.069 -0.015 1 
0.38 -0.066 -0.014 1 
0.381 -0.057 -0.015 1 
0.38 -0.055 -0.014 1 
0.381 -0.051 -0.015 1 
0.378 -0.045 -0.014 1 
0.38 -0.037 -0.014 1 
0.381 -0.03 -0.015 1 
0.374 0.043 -0.013 1 
0.374 0.047 -0.013 1 
0.38 0.113 -0.016 1 
0.373 0.143 -0.014 1 
0.373 0.145 -0.014 1 
0.375 0.153 -0.015 1 
0.373 0.183 -0.016 1 
0.368 0.214 -0.016 1 
0.367 0.222 -0.016 1 
0.404 -0.258 -0.025 1 
0.392 -0.207 -0.02 1 
0.394 -0.176 -0.019 1 
0.392 -0.165 -0.018 1 
0.394 -0.156 -0.019 1 
0.393 -0.125 -0.018 1 
0.394 -0.121 -0.018 1 
0.391 -0.105 -0.017 1 
0.391 -0.076 -0.016 1 
0.388 -0.073 -0.015 1 
0.383 -0.026 -0.014 1 
0.373 -0.016 -0.01 1 
0.368 -0.006 -0.009 1 
0.346 0.018 -0.001 1 
0.364 0.021 -0.007 1 
0.374 0.03 -0.011 1 
0.381 0.054 -0.013 1 
0.383 0.073 -0.014 1 
0.384 0.075 -0.014 1 
0.384 0.081 -0.015 1 
0.384 0.099 -0.015 1 
0.384 0.124 -0.015 1 
0.38 0.14 -0.015 1 
0.377 0.144 -0.014 1 
0.382 0.164 -0.016 1 
0.374 0.234 -0.017 1 
0.411 -0.286 -0.026 1 
0.411 -0.266 -0.025 1 
0.408 -0.26 -0.024 1 
0.408 -0.246 -0.024 1 
0.384 -0.217 -0.021 1 
0.403 -0.226 -0.021 1 
0.398 -0.205 -0.019 1 
0.401 -0.195 -0.02 1 
0.398 -0.165 -0.018 1 
0.399 -0.126 -0.017 1 
0.399 -0.115 -0.017 1 
0.391 -0.066 -0.014 1 
0.392 -0.06 -0.014 1 
0.393 -0.056 -0.015 1 
0.393 -0.05 -0.015 1 
0.391 -0.045 -0.014 1 
0.393 -0.035 -0.014 1 
0.394 -0.03 -0.015 1 
0.39 -0.025 -0.014 1 
0.383 -0.016 -0.012 1 
0.371 -0.003 -0.008 1 
0.364 -0.001 -0.005 1 
0.376 0.023 -0.009 1 
0.381 0.033 -0.011 1 
0.383 0.037 -0.012 1 
0.39 0.081 -0.014 1 
0.391 0.083 -0.015 1 
0.389 0.093 -0.014 1 
0.391 0.104 -0.015 1 
0.39 0.114 -0.015 1 
0.383 0.154 -0.014 1 
0.387 0.164 -0.015 1 
0.374 0.15 -0.015 1 
0.378 0.231 -0.016 1 
0.414 -0.283 -0.025 1 
0.414 -0.266 -0.024 1 
0.404 -0.215 -0.019 1 
0.403 -0.185 -0.018 1 
0.404 -0.184 -0.018 1 
0.403 -0.146 -0.017 1 
0.404 -0.135 -0.017 1 
0.401 -0.096 -0.015 1 
0.401 -0.075 -0.015 1 
0.4 -0.07 -0.015 1 
0.399 -0.055 -0.014 1 
0.4 -0.037 -0.015 1 
0.4 -0.026 -0.015 1 
0.401 -0.024 -0.015 1 
0.394 -0.015 -0.013 1 
0.365 -0.001 -0.004 1 
0.394 0.064 -0.013 1 
0.4 -0.238 -0.025 1 
0.394 0.072 -0.014 1 
0.395 0.112 -0.015 1 
0.394 0.123 -0.014 1 
0.393 0.129 -0.014 1 
0.394 0.133 -0.015 1 
0.394 0.144 -0.015 1 
0.392 0.152 -0.015 1 
0.389 0.154 -0.014 1 
0.389 0.163 -0.014 1 
0.391 0.183 -0.016 1 
0.384 0.238 -0.016 1 
0.384 0.25 -0.016 1 
0.429 -0.306 -0.028 1 
0.421 -0.294 -0.025 1 
0.421 -0.276 -0.024 1 
0.422 -0.266 -0.024 1 
0.423 -0.258 -0.024 1 
0.413 -0.235 -0.02 1 
0.413 -0.225 -0.019 1 
0.361 -0.006 -0.008 1 
0.413 -0.215 -0.019 1 
0.413 -0.208 -0.019 1 
0.407 -0.195 -0.017 1 
0.41 -0.167 -0.017 1 
0.389 -0.245 -0.027 1 
0.413 -0.115 -0.017 1 
0.411 -0.107 -0.016 1 
0.408 -0.095 -0.015 1 
0.411 -0.085 -0.016 1 
0.407 -0.07 -0.015 1 
0.404 -0.065 -0.014 1 
0.404 -0.046 -0.014 1 
0.404 -0.044 -0.014 1 
0.403 -0.016 -0.014 1 
0.403 -0.005 -0.014 1 
0.399 0.034 -0.013 1 
0.401 0.053 -0.013 1 
0.402 0.072 -0.014 1 
0.405 0.091 -0.015 1 
0.404 0.093 -0.015 1 
0.405 0.095 -0.015 1 
0.403 0.101 -0.015 1 
0.374 -0.109 -0.017 1 
0.399 0.123 -0.014 1 
0.399 0.152 -0.015 1 
0.398 0.153 -0.014 1 
0.394 0.192 -0.015 1 
0.393 0.194 -0.014 1 
0.394 0.223 -0.016 1 
0.391 0.243 -0.016 1 
0.424 -0.288 -0.023 1 
0.424 -0.245 -0.021 1 
0.422 -0.241 -0.02 1 
0.419 -0.227 -0.019 1 
0.414 -0.146 -0.016 1 
0.354 0.185 -0.016 1 
0.414 -0.143 -0.016 1 
0.414 -0.081 -0.015 1 
0.41 -0.045 -0.013 1 
0.415 -0.032 -0.015 1 
0.412 -0.025 -0.014 1 
0.41 -0.003 -0.014 1 
0.408 0.063 -0.013 1 
0.409 0.103 -0.014 1 
0.409 0.126 -0.015 1 
0.404 0.141 -0.014 1 
0.403 0.164 -0.014 1 
0.404 0.174 -0.015 1 
0.403 0.176 -0.014 1 
0.403 0.181 -0.015 1 
0.402 0.194 -0.015 1 
0.394 0.204 -0.013 1 
0.404 0.22 -0.016 1 
0.404 0.23 -0.017 1 
0.4 0.244 -0.016 1 
0.393 0.26 -0.015 1 
0.433 -0.311 -0.024 1 
0.431 -0.287 -0.022 1 
0.431 -0.275 -0.021 1 
0.431 -0.246 -0.02 1 
0.422 -0.215 -0.017 1 
0.422 -0.195 -0.017 1 
0.419 -0.156 -0.015 1 
0.423 -0.105 -0.015 1 
0.423 -0.096 -0.015 1 
0.421 -0.084 -0.014 1 
0.422 -0.075 -0.015 1 
0.423 -0.066 -0.015 1 
0.421 -0.056 -0.014 1 
0.419 -0.046 -0.014 1 
0.38 -0.185 -0.019 1 
0.391 -0.145 -0.017 1 
0.402 0.103 -0.014 1 
0.422 -0.035 -0.014 1 
0.418 -0.026 -0.014 1 
0.417 -0.015 -0.013 1 
0.414 0.033 -0.013 1 
0.414 0.036 -0.013 1 
0.414 0.081 -0.013 1 
0.414 0.085 -0.013 1 
0.411 0.134 -0.013 1 
0.412 0.153 -0.014 1 
0.411 0.164 -0.014 1 
0.4 0.209 -0.012 1 
0.404 0.215 -0.014 1 
0.403 -0.241 -0.024 1 
0.411 0.224 -0.016 1 
0.401 0.264 -0.015 1 
0.4 0.266 -0.015 1 
0.398 0.266 -0.014 1 
0.434 -0.26 -0.019 1 
0.434 -0.235 -0.018 1 
0.428 -0.225 -0.016 1 
0.434 -0.219 -0.018 1 
0.432 -0.197 -0.017 1 
0.432 -0.187 -0.017 1 
0.432 -0.176 -0.017 1 
0.404 -0.245 -0.025 1 
0.428 -0.156 -0.015 1 
0.423 -0.146 -0.014 1 
0.424 -0.139 -0.014 1 
0.427 -0.136 -0.014 1 
0.429 -0.077 -0.014 1 
0.36 -0.001 0.004 1 
0.422 0.062 -0.013 1 
0.419 0.073 -0.012 1 
0.42 0.094 -0.013 1 
0.419 0.124 -0.013 1 
0.414 0.138 -0.012 1 
0.363 0.164 -0.016 1 
0.414 0.174 -0.013 1 
0.414 0.184 -0.013 1 
0.414 0.194 -0.013 1 
0.406 0.212 -0.012 1 
0.415 0.228 -0.015 1 
0.413 0.244 -0.015 1 
0.411 0.253 -0.015 1 
0.41 0.263 -0.015 1 
0.413 0.274 -0.016 1 
0.412 0.282 -0.016 1 
0.439 -0.295 -0.019 1 
0.435 -0.173 -0.015 1 
0.431 -0.155 -0.013 1 
0.434 -0.145 -0.014 1 
0.434 -0.125 -0.014 1 
0.434 -0.115 -0.014 1 
0.433 -0.107 -0.013 1 
0.434 -0.095 -0.013 1 
0.433 -0.09 -0.013 1 
0.433 -0.051 -0.013 1 
0.429 0.054 -0.012 1 
0.43 0.064 -0.013 1 
0.424 0.103 -0.012 1 
0.423 0.153 -0.012 1 
0.421 0.164 -0.012 1 
0.421 0.194 -0.013 1 
0.415 0.282 -0.015 1 
0.442 -0.277 -0.016 1 
0.441 -0.256 -0.016 1 
0.443 -0.235 -0.015 1 
0.442 -0.218 -0.015 1 
0.442 -0.207 -0.015 1 
0.443 -0.189 -0.015 1 
0.442 -0.186 -0.014 1 
0.44 -0.176 -0.014 1 
0.436 -0.166 -0.012 1 
0.437 -0.156 -0.013 1 
0.441 -0.146 -0.013 1 
0.441 -0.135 -0.013 1 
0.439 -0.097 -0.012 1 
0.418 0.084 -0.012 1 
0.441 -0.085 -0.013 1 
0.441 -0.075 -0.013 1 
0.438 -0.067 -0.012 1 
0.402 0.064 -0.014 1 
0.441 -0.036 -0.012 1 
0.441 -0.006 -0.013 1 
0.431 0.036 -0.01 1 
0.434 0.072 -0.011 1 
0.433 0.084 -0.011 1 
0.414 -0.059 -0.015 1 
0.433 0.094 -0.011 1 
0.429 0.144 -0.011 1 
0.424 0.184 -0.011 1 
0.423 0.203 -0.011 1 
0.421 0.212 -0.011 1 
0.422 0.223 -0.012 1 
0.423 0.232 -0.012 1 
0.423 0.243 -0.012 1 
0.42 0.251 -0.012 1 
0.428 0.27 -0.015 1 
0.422 0.27 -0.013 1 
0.421 0.283 -0.014 1 
0.419 0.29 -0.013 1 
0.453 -0.323 -0.018 1 
0.422 -0.205 -0.017 1 
0.452 -0.306 -0.017 1 
0.446 -0.287 -0.015 1 
0.443 -0.257 -0.013 1 
0.45 -0.226 -0.014 1 
0.444 -0.217 -0.013 1 
0.449 -0.145 -0.013 1 
0.444 -0.116 -0.011 1 
0.444 -0.114 -0.011 1 
0.444 -0.061 -0.011 1 
0.423 0.053 -0.013 1 
0.443 -0.031 -0.011 1 
0.47 -0.007 -0.017 1 
0.441 0.074 -0.011 1 
0.441 0.084 -0.011 1 
0.439 0.104 -0.011 1 
0.434 0.154 -0.01 1 
0.432 0.174 -0.01 1 
0.431 0.183 -0.01 1 
0.431 0.194 -0.01 1 
0.428 0.253 -0.011 1 
0.429 0.271 -0.012 1 
0.424 0.295 -0.012 1 
0.458 -0.319 -0.016 1 
0.455 -0.306 -0.015 1 
0.454 -0.298 -0.015 1 
0.448 -0.283 -0.013 1 
0.443 -0.269 -0.011 1 
0.452 -0.257 -0.013 1 
0.451 -0.247 -0.012 1 
0.454 -0.235 -0.013 1 
0.454 -0.222 -0.013 1 
0.452 -0.206 -0.012 1 
0.453 -0.196 -0.012 1 
0.454 -0.185 -0.012 1 
0.454 -0.155 -0.012 1 
0.451 -0.117 -0.01 1 
0.452 -0.107 -0.011 1 
0.452 -0.096 -0.01 1 
0.444 -0.208 -0.013 1 
0.453 -0.086 -0.011 1 
0.453 -0.055 -0.01 1 
0.452 -0.009 -0.01 1 
0.474 -0.004 -0.016 1 
0.437 0.032 -0.007 1 
0.444 0.038 -0.009 1 
0.444 0.123 -0.009 1 
0.443 0.133 -0.009 1 
0.439 0.163 -0.009 1 
0.439 0.173 -0.009 1 
0.427 0.209 -0.007 1 
0.431 0.231 -0.009 1 
0.433 0.284 -0.011 1 
0.383 0.183 -0.015 1 
0.462 -0.316 -0.014 1 
0.457 -0.295 -0.012 1 
0.423 0.133 -0.012 1 
0.453 -0.269 -0.011 1 
0.447 0.033 -0.007 1 
0.441 0.142 -0.009 1 
0.452 0.044 -0.008 1 
0.452 0.054 -0.008 1 
0.452 0.064 -0.008 1 
0.452 0.072 -0.008 1 
0.454 0.083 -0.009 1 
0.453 0.093 -0.009 1 
0.45 0.113 -0.008 1 
0.41 0.193 -0.015 1 
0.443 0.183 -0.008 1 
0.442 0.194 -0.008 1 
0.441 0.204 -0.008 1 
0.439 0.213 -0.008 1 
0.432 0.304 -0.009 1 
0.464 -0.346 -0.013 1 
0.464 -0.339 -0.012 1 
0.462 -0.256 -0.01 1 
0.464 -0.24 -0.01 1 
0.463 -0.217 -0.009 1 
0.463 -0.197 -0.009 1 
0.464 -0.175 -0.009 1 
0.463 -0.135 -0.008 1 
0.464 -0.076 -0.008 1 
0.384 -0.242 -0.027 1 
0.464 -0.057 -0.008 1 
0.361 -0.001 0.014 1 
0.413 0.073 -0.013 1 
0.418 0.027 0.001 1 
0.453 0.133 -0.007 1 
0.452 0.153 -0.007 1 
0.444 0.283 -0.008 1 
0.441 0.292 -0.008 1 
0.409 -0.036 -0.015 1 
0.437 0.31 -0.008 1 
0.467 -0.165 -0.006 1 
0.467 -0.156 -0.006 1 
0.468 -0.146 -0.006 1 
0.467 -0.115 -0.006 1 
0.466 -0.106 -0.006 1 
0.467 -0.085 -0.006 1 
0.468 -0.066 -0.006 1 
0.466 -0.055 -0.005 1 
0.465 -0.049 -0.005 1 
0.465 -0.039 -0.005 1 
0.464 -0.036 -0.005 1 
0.474 -0.004 -0.01 1 
0.368 -0.001 0.014 1 
0.442 0.03 -0.001 1 
0.461 0.042 -0.005 1 
0.461 0.053 -0.005 1 
0.461 0.064 -0.005 1 
0.369 0.024 -0.009 1 
0.46 0.074 -0.005 1 
0.46 0.093 -0.005 1 
0.419 -0.146 -0.015 1 
0.458 0.113 -0.005 1 
0.458 0.124 -0.005 1 
0.456 0.153 -0.005 1 
0.454 0.174 -0.005 1 
0.454 0.193 -0.005 1 
0.454 0.196 -0.005 1 
0.455 0.202 -0.006 1 
0.452 0.214 -0.005 1 
0.452 0.223 -0.006 1 
0.451 0.234 -0.006 1 
0.451 0.242 -0.006 1 
0.451 0.254 -0.006 1 
0.448 0.272 -0.006 1 
0.448 0.284 -0.006 1 
0.473 -0.335 -0.008 1 
0.432 0.133 -0.012 1 
0.444 0.262 -0.008 1 
0.473 -0.328 -0.008 1 
0.364 -0.083 -0.015 1 
0.474 -0.315 -0.008 1 
0.452 -0.045 -0.01 1 
0.473 -0.308 -0.007 1 
0.457 0.132 -0.005 1 
0.473 -0.285 -0.007 1 
0.472 -0.278 -0.006 1 
0.474 -0.245 -0.006 1 
0.475 -0.24 -0.006 1 
0.474 -0.236 -0.006 1 
0.468 -0.226 -0.005 1 
0.47 -0.216 -0.005 1 
0.47 -0.195 -0.005 1 
0.47 -0.178 -0.005 1 
0.414 -0.189 -0.017 1 
0.477 -0.007 -0.005 1 
0.454 0.242 -0.004 1 
0.453 0.264 -0.004 1 
0.452 0.282 -0.004 1 
0.451 0.293 -0.005 1 
0.45 0.301 -0.005 1 
0.45 0.321 -0.005 1 
0.451 0.325 -0.006 1 
0.474 -0.357 -0.006 1 
0.474 -0.353 -0.006 1 
0.477 -0.35 -0.006 1 
0.478 -0.34 -0.006 1 
0.477 -0.325 -0.006 1 
0.392 0.043 -0.013 1 
0.477 -0.318 -0.005 1 
0.411 0.247 -0.014 1 
0.475 -0.306 -0.005 1 
0.475 -0.296 -0.005 1 
0.476 -0.288 -0.005 1 
0.474 -0.276 -0.004 1 
0.474 -0.257 -0.004 1 
0.396 0.002 0.012 1 
0.394 -0.225 -0.023 1 
0.394 0.004 0.013 1 
0.393 -0.005 -0.013 1 
0.388 0.014 0.014 1 
0.454 0.302 -0.003 1 
0.453 0.311 -0.003 1 
0.452 0.32 -0.003 1 
0.453 0.327 -0.003 1 
0.474 -0.27 -0.001 1 
0.474 -0.207 0 1 
0.377 -0.005 -0.01 1 
0.481 -0.004 0 1 
0.423 0 0.009 1 
0.404 -0.003 -0.014 1 
0.409 -0.005 -0.013 1 
0.41 0.013 0.012 1 
0.411 0.02 0.012 1 
0.464 0.032 0.002 1 
0.465 0.043 0.001 1 
0.465 0.083 0.001 1 
0.465 0.094 0.001 1 
0.465 0.119 0.001 1 
0.476 -0.217 0.001 1 
0.473 -0.197 0.002 1 
0.472 -0.185 0.002 1 
0.374 -0.211 -0.022 1 
0.423 0.109 -0.011 1 
0.469 -0.085 0.004 1 
0.469 -0.077 0.004 1 
0.469 -0.066 0.004 1 
0.412 -0.126 -0.017 1 
0.467 -0.007 0.004 1 
0.463 0.043 0.004 1 
0.463 0.083 0.004 1 
0.464 0.094 0.004 1 
0.462 0.112 0.004 1 
0.463 0.123 0.004 1 
0.461 0.153 0.004 1 
0.461 0.173 0.003 1 
0.462 0.184 0.003 1 
0.462 0.193 0.003 1 
0.461 0.224 0.003 1 
0.382 -0.175 -0.019 1 
0.461 0.262 0.002 1 
0.46 0.274 0.002 1 
0.42 -0.085 -0.014 1 
0.48 -0.328 0.002 1 
0.48 -0.318 0.002 1 
0.477 -0.305 0.003 1 
0.476 -0.007 -0.016 1 
0.478 -0.296 0.003 1 
0.478 -0.286 0.003 1 
0.476 -0.275 0.003 1 
0.474 -0.227 0.004 1 
0.474 -0.215 0.004 1 
0.464 0.003 0.007 1 
0.46 0.292 0.004 1 
0.461 0.303 0.004 1 
0.46 0.321 0.003 1 
0.355 0.102 -0.014 1 
0.431 0.294 -0.011 1 
0.399 -0.155 -0.018 1 
0.465 0.003 0.012 1 
0.462 -0.012 -0.01 1 
0.464 0.014 0.012 1 
0.463 0.024 0.013 1 
0.464 -0.025 -0.005 1 
0.463 0.032 0.013 1 
0.464 -0.047 -0.005 1 
0.464 -0.065 -0.008 1 
0.408 0.204 -0.012 1 
0.384 -0.145 -0.017 1 
0.462 -0.086 -0.007 1 
0.453 -0.165 -0.011 1 
0.463 -0.127 -0.008 1 
0.388 -0.095 -0.015 1 
0.464 -0.149 -0.008 1 
0.465 0.102 0.001 1 
0.475 -0.277 0.012 1 
0.414 0.117 -0.014 1 
0.409 0.259 -0.014 1 
0.463 -0.166 -0.008 1 
0.464 -0.186 -0.009 1 
0.46 -0.225 -0.011 1 
0.463 -0.245 -0.01 1 
0.46 -0.288 -0.013 1 
0.441 0.254 -0.009 1 
0.461 -0.309 -0.014 1 
0.48 -0.328 0.014 1 
0.479 -0.306 0.014 1 
0.478 -0.292 0.014 1 
0.396 -0.105 -0.016 1 
0.408 0.112 -0.014 1 
0.373 0.113 -0.015 1 
0.371 0.236 -0.018 1 
0.39 0.173 -0.015 1 
0.406 -0.023 -0.015 1 
0.431 0.103 -0.011 1 
0.439 -0.268 -0.015 1 
0.44 0.094 -0.011 1 
0.442 -0.318 -0.021 1 
0.398 0.134 -0.014 1 
0.404 -0.089 -0.016 1 
0.453 -0.136 -0.011 1 
0.443 -0.246 -0.016 1 
0.457 0.142 -0.005 1 
0.411 0.002 0.012 1 
0.474 -0.254 -0.003 1 
0.461 0.241 0.002 1 
0.452 -0.017 -0.01 1 
0.363 0.114 -0.014 1 
0.386 0.018 0.014 1 
0.449 0.313 -0.005 1 
0.428 -0.127 -0.015 1 
0.373 0.073 -0.015 1 
0.363 -0.065 -0.016 1 
0.44 0.152 -0.009 1 
0.437 -0.177 -0.015 1 
0.349 0.164 -0.014 1 
0.353 0.034 -0.012 1 
0.381 -0.036 -0.015 1 
0.414 -0.037 -0.014 1 
0.363 0.142 -0.015 1 
0.384 0.197 -0.014 1 
0.36 0.108 -0.015 1 
0.391 0.034 -0.012 1 
0.354 0.046 -0.013 1 
0.392 -0.195 -0.019 1 
0.334 0.01 -0.005 1 
0.463 -0.116 -0.008 1 
0.373 -0.215 -0.022 1 
0.441 -0.045 -0.012 1 
0.393 -0.136 -0.018 1 
0.431 0.204 -0.008 1 
0.37 -0.065 -0.015 1 
0.356 0.204 -0.015 1 
0.441 0.054 -0.01 1 
0.445 -0.28 -0.015 1 
0.431 0.113 -0.011 1 
0.462 -0.333 -0.015 1 
0.422 -0.04 -0.015 1 
0.443 -0.197 -0.015 1 
0.384 0.085 -0.015 1 
0.422 -0.089 -0.015 1 
0.406 0.054 -0.013 1 
0.353 0.203 -0.016 1 
0.455 0.169 -0.005 1 
0.464 -0.155 -0.008 1 
0.351 -0.001 -0.005 1 
0.399 0.213 -0.015 1 
0.394 0.233 -0.016 1 
0.454 0.182 -0.005 1 
0.358 0.064 -0.015 1 
0.434 -0.008 -0.013 1 
0.449 0.264 -0.006 1 
0.451 0.103 -0.008 1 
0.454 -0.066 -0.011 1 
0.422 -0.175 -0.016 1 
0.422 0.044 -0.013 1 
0.444 0.274 -0.008 1 
0.46 0.232 0.003 1 
0.44 0.244 -0.009 1 
0.364 0.034 -0.013 1 
0.478 -0.007 0 1 
0.457 0.332 0.003 1 
0.429 0.224 -0.011 1 
0.381 -0.106 -0.017 1 
0.434 0.119 -0.012 1 
0.373 0.203 -0.017 1 
0.4 -0.051 -0.015 1 
0.389 0.124 -0.015 1 
0.464 0.003 0.004 1 
0.372 0.063 -0.014 1 
0.401 0.113 -0.014 1 
0.413 0.223 -0.014 1 
0.414 0.232 -0.015 1 
0.361 -0.045 -0.013 1 
0.453 0.143 -0.007 1 
0.431 -0.168 -0.016 1 
0.433 -0.066 -0.013 1 
0.409 0.124 -0.015 1 
0.373 0.094 -0.015 1 
0.472 -0.012 -0.007 1 
0.465 0.008 0.012 1 
0.432 -0.267 -0.021 1 
0.413 -0.056 -0.014 1 
0.452 -0.125 -0.011 1 
0.38 -0.165 -0.018 1 
0.406 -0.068 -0.014 1 
0.474 -0.295 -0.007 1 
0.353 0.137 -0.015 1 
0.395 0.117 -0.015 1 
0.428 -0.036 -0.014 1 
0.38 0.203 -0.015 1 
0.38 0.192 -0.015 1 
0.422 -0.167 -0.016 1 
0.467 -0.126 -0.006 1 
0.389 0.253 -0.016 1 
0.464 -0.023 -0.005 1 
0.366 0.087 -0.014 1 
0.433 0.156 -0.01 1 
0.42 0.173 -0.012 1 
0.465 0.113 0.001 1 
0.364 -0.111 -0.017 1 
0.343 0 -0.005 1 
0.46 -0.341 -0.015 1 
0.462 0.104 0.004 1 
0.421 -0.135 -0.015 1 
0.47 -0.207 -0.005 1 
0.391 -0.237 -0.027 1 
0.359 0.171 -0.015 1 
0.462 -0.266 -0.01 1 
0.412 -0.175 -0.018 1 
0.451 -0.027 -0.01 1 
0.389 0.095 -0.014 1 
0.423 0.262 -0.013 1 
0.422 0.142 -0.012 1 
0.444 -0.285 -0.017 1 
0.43 -0.295 -0.022 1 
0.452 -0.037 -0.01 1 
0.462 0.254 0.002 1 
0.387 -0.035 -0.015 1 
0.45 -0.288 -0.013 1 
0.44 0.064 -0.01 1 
0.439 -0.016 -0.012 1 
0.464 -0.106 -0.008 1 
0.413 -0.157 -0.016 1 
0.362 -0.095 -0.016 1 
0.417 -0.006 -0.013 1 
0.454 -0.076 -0.011 1 
0.406 -0.239 -0.025 1 
0.44 0.303 -0.008 1 
0.382 0.133 -0.015 1 
0.374 -0.055 -0.014 1 
0.461 0.164 0.004 1 
0.362 0.184 -0.016 1 
0.345 0 -0.001 1 
0.433 0.258 -0.01 1 
0.461 0.313 0.003 1 
0.453 -0.176 -0.012 1 
0.422 -0.185 -0.016 1 
0.443 -0.126 -0.011 1 
0.439 0.114 -0.011 1 
0.431 0.029 -0.005 1 
0.402 -0.267 -0.027 1 
0.394 0.049 -0.013 1 
0.403 0.169 -0.014 1 
0.441 -0.307 -0.02 1 
0.432 -0.056 -0.013 1 
0.463 0.134 0.004 1 
0.478 -0.299 0.014 1 
0.375 -0.22 -0.025 1 
0.434 -0.025 -0.013 1 
0.372 -0.155 -0.019 1 
0.382 0.224 -0.017 1 
0.417 0.273 -0.015 1 
0.468 -0.185 -0.007 1 
0.394 0.211 -0.015 1 
0.423 -0.127 -0.016 1 
0.452 0.273 -0.004 1 
0.454 0.293 -0.002 1 
0.46 0.283 0.004 1 
0.373 0.173 -0.016 1 
0.462 0.142 0.004 1 
0.476 -0.004 -0.005 1 
0.39 0.089 -0.015 1 
0.354 0.084 -0.014 1 
0.403 0.083 -0.014 1 
0.47 -0.266 -0.006 1 
0.404 0.254 -0.015 1 
0.467 -0.137 -0.006 1 
0.393 -0.187 -0.019 1 
0.399 0.203 -0.012 1 
0.462 0.204 0.003 1 
0.473 -0.257 -0.006 1 
0.461 0.082 -0.005 1 
0.4 0.044 -0.013 1 
0.382 0.064 -0.014 1 
0.464 -0.097 -0.008 1 
0.382 0.212 -0.016 1 
0.424 0.028 -0.008 1 
0.393 -0.089 -0.017 1 
0.422 -0.117 -0.015 1 
0.415 -0.278 -0.025 1 
0.441 0.223 -0.008 1 
0.48 -0.317 0.014 1 
0.443 -0.226 -0.015 1 
0.373 0.194 -0.017 1 
0.354 0.073 -0.013 1 
0.467 -0.001 0.004 1 
0.416 0.286 -0.015 1 
0.456 0.034 -0.006 1 
0.408 -0.025 -0.015 1 
0.463 -0.208 -0.009 1 
0.379 0.173 -0.016 1 
0.383 0.094 -0.014 1 
0.455 0.161 -0.005 1 
0.464 -0.277 -0.01 1 
0.422 -0.058 -0.015 1 
0.462 0.213 0.003 1 
0.434 0.242 -0.01 1 
0.452 -0.325 -0.018 1 
0.468 -0.096 -0.006 1 
0.434 -0.167 -0.014 1 
0.434 -0.016 -0.013 1 
0.409 -0.016 -0.013 1 
0.44 0.233 -0.009 1 
0.454 0.122 -0.007 1 
0.374 -0.165 -0.018 1 
0.467 -0.077 -0.006 1 
0.381 -0.135 -0.018 1 
0.428 -0.122 -0.015 1 
0.468 -0.015 -0.006 1 
0.459 0.103 -0.005 1 
0.361 0.213 -0.016 1 
0.365 0.083 -0.014 1 
0.372 0.071 -0.014 1 
0.461 -0.325 -0.014 1 
0.454 0.163 -0.005 1 
0.475 -0.207 0.002 1 
0.403 0.086 -0.014 1 
0.341 0.014 0.019 2 
0.341 0.014 0.027 2 
0.341 0.016 0.027 2 
0.342 0.003 0.019 2 
0.342 0.003 0.027 2 
0.341 0.017 0.023 2 
0.438 0.081 0.083 2 
0.427 -0.05 0.077 2 
0.378 -0.027 0.085 2 
0.441 -0.035 0.08 2 
0.385 0.004 0.058 2 
0.386 0.006 0.039 2 
0.442 -0.05 0.078 2 
0.424 0.091 0.077 2 
0.433 0.092 0.077 2 
0.422 0.083 0.077 2 
0.425 0.082 0.077 2 
0.381 -0.006 0.076 2 
0.406 -0.048 0.077 2 
0.391 0.071 0.079 2 
0.403 0.068 0.083 2 
0.427 0.085 0.082 2 
0.39 0.07 0.081 2 
0.379 0.054 0.079 2 
0.374 0.058 0.081 2 
0.376 0.057 0.081 2 
0.371 0.052 0.081 2 
0.388 -0.03 0.083 2 
0.426 -0.036 0.08 2 
0.424 -0.04 0.08 2 
0.396 -0.038 0.079 2 
0.373 -0.045 0.078 2 
0.38 -0.049 0.079 2 
0.388 -0.054 0.079 2 
0.438 -0.033 0.08 2 
0.4 0.067 0.078 2 
0.36 -0.021 0.08 2 
0.387 -0.036 0.081 2 
0.384 0.071 0.079 2 
0.394 0.063 0.078 2 
0.399 0.063 0.078 2 
0.417 0.065 0.078 2 
0.393 0.037 0.077 2 
0.5 -0.043 0.094 2 
0.363 -0.034 0.078 2 
0.389 0.058 0.084 2 
0.376 0.034 0.082 2 
0.551 -0.112 0.057 2 
0.561 -0.108 0.064 2 
0.552 -0.112 0.064 2 
0.553 -0.102 0.064 2 
0.557 -0.11 0.057 2 
0.554 -0.116 0.075 2 
0.55 -0.077 0.071 2 
0.555 -0.064 0.088 2 
0.557 -0.075 0.075 2 
0.548 -0.066 0.087 2 
0.559 -0.068 0.084 2 
0.541 -0.072 0.07 2 
0.472 -0.075 0.143 3 
0.462 0.223 0.142 3 
0.471 -0.067 0.143 3 
0.471 -0.056 0.142 3 
0.472 -0.045 0.143 3 
0.288 -0.005 0.091 3 
0.475 -0.225 0.083 3 
0.465 0.187 0.142 3 
0.464 0.192 0.142 3 
0.463 0.212 0.142 3 
0.46 0.331 0.142 3 
0.472 -0.086 0.143 3 
0.473 -0.106 0.143 3 
0.474 -0.115 0.144 3 
0.475 -0.118 0.144 3 
0.475 -0.127 0.144 3 
0.474 -0.129 0.144 3 
0.485 -0.317 0.151 3 
0.485 -0.328 0.152 3 
0.487 -0.337 0.153 3 
0.487 -0.348 0.153 3 
0.471 -0.086 0.134 3 
0.466 0.123 0.144 3 
0.482 -0.288 0.153 3 
0.465 0.103 0.133 3 
0.465 0.103 0.144 3 
0.466 0.093 0.144 3 
0.466 0.084 0.144 3 
0.463 0.162 0.063 3 
0.466 0.074 0.144 3 
0.465 0.062 0.144 3 
0.464 0.06 0.143 3 
0.464 0.054 0.143 3 
0.474 -0.132 0.147 3 
0.48 -0.276 0.152 3 
0.318 -0.009 0.062 3 
0.461 0.234 0.142 3 
0.484 -0.296 0.153 3 
0.485 -0.301 0.154 3 
0.485 -0.307 0.154 3 
0.484 -0.31 0.154 3 
0.484 -0.317 0.154 3 
0.462 0.293 0.144 3 
0.462 0.284 0.144 3 
0.462 0.274 0.144 3 
0.463 0.263 0.143 3 
0.335 0.006 0.057 3 
0.462 0.244 0.143 3 
0.464 0.183 0.134 3 
0.472 -0.205 0.013 3 
0.484 -0.299 0.144 3 
0.463 0.202 0.093 3 
0.462 0.247 0.134 3 
0.48 -0.308 0.082 3 
0.462 0.244 0.134 3 
0.462 0.252 0.123 3 
0.461 0.234 0.134 3 
0.462 0.214 0.134 3 
0.462 0.203 0.134 3 
0.464 0.192 0.134 3 
0.473 -0.145 0.052 3 
0.481 -0.287 0.143 3 
0.464 0.172 0.133 3 
0.464 0.163 0.133 3 
0.465 0.153 0.133 3 
0.465 0.144 0.133 3 
0.464 0.141 0.133 3 
0.464 0.133 0.133 3 
0.464 0.122 0.133 3 
0.468 -0.096 0.012 3 
0.464 0.114 0.133 3 
0.465 0.106 0.133 3 
0.477 -0.165 0.163 3 
0.474 -0.165 0.094 3 
0.462 0.313 0.142 3 
0.285 -0.001 0.089 3 
0.475 -0.144 0.142 3 
0.475 -0.147 0.142 3 
0.462 0.223 0.134 3 
0.475 -0.155 0.142 3 
0.474 -0.158 0.142 3 
0.475 -0.167 0.142 3 
0.475 -0.176 0.142 3 
0.475 -0.187 0.143 3 
0.477 -0.197 0.143 3 
0.462 0.323 0.142 3 
0.477 -0.206 0.143 3 
0.477 -0.215 0.143 3 
0.478 -0.228 0.144 3 
0.478 -0.237 0.144 3 
0.478 -0.246 0.144 3 
0.464 0.133 0.136 3 
0.464 0.122 0.136 3 
0.474 -0.166 0.139 3 
0.474 -0.175 0.139 3 
0.478 -0.255 0.142 3 
0.479 -0.275 0.143 3 
0.466 0.134 0.153 3 
0.462 0.232 0.154 3 
0.462 0.223 0.153 3 
0.463 0.212 0.153 3 
0.46 0.273 0.062 3 
0.348 -0.004 0.059 3 
0.464 0.193 0.153 3 
0.464 0.184 0.153 3 
0.464 0.172 0.153 3 
0.464 0.164 0.152 3 
0.465 0.162 0.153 3 
0.466 0.154 0.153 3 
0.465 0.142 0.152 3 
0.462 0.244 0.154 3 
0.466 0.123 0.152 3 
0.466 0.112 0.152 3 
0.466 0.104 0.152 3 
0.467 0.093 0.153 3 
0.478 -0.265 0.142 3 
0.467 0.082 0.152 3 
0.467 0.074 0.152 3 
0.465 0.054 0.152 3 
0.47 -0.056 0.153 3 
0.457 0.332 0.062 3 
0.472 -0.067 0.154 3 
0.473 -0.076 0.154 3 
0.46 0.283 0.024 3 
0.476 -0.216 0.112 3 
0.476 -0.176 0.163 3 
0.476 -0.185 0.163 3 
0.478 -0.195 0.164 3 
0.479 -0.205 0.164 3 
0.478 -0.217 0.164 3 
0.479 -0.226 0.164 3 
0.464 0.193 0.156 3 
0.464 0.164 0.155 3 
0.465 0.057 0.154 3 
0.278 0.004 0.094 3 
0.474 -0.107 0.158 3 
0.473 -0.087 0.154 3 
0.481 -0.236 0.162 3 
0.482 -0.246 0.163 3 
0.481 -0.255 0.163 3 
0.481 -0.265 0.163 3 
0.481 -0.278 0.164 3 
0.462 0.303 0.144 3 
0.481 -0.287 0.164 3 
0.488 -0.346 0.169 3 
0.462 0.259 0.154 3 
0.462 0.153 0.033 3 
0.463 0.254 0.154 3 
0.478 -0.225 0.153 3 
0.476 -0.165 0.154 3 
0.476 -0.176 0.154 3 
0.475 -0.185 0.154 3 
0.486 -0.336 0.162 3 
0.463 0.053 0.052 3 
0.488 -0.346 0.163 3 
0.464 0.054 0.146 3 
0.474 -0.118 0.15 3 
0.474 -0.135 0.15 3 
0.476 -0.197 0.152 3 
0.463 0.174 0.114 3 
0.478 -0.207 0.152 3 
0.475 -0.155 0.153 3 
0.479 -0.235 0.153 3 
0.479 -0.256 0.154 3 
0.48 -0.267 0.154 3 
0.465 0.187 0.145 3 
0.464 0.178 0.144 3 
0.464 0.172 0.144 3 
0.463 0.163 0.144 3 
0.464 0.152 0.144 3 
0.465 0.15 0.144 3 
0.464 0.141 0.144 3 
0.465 0.139 0.144 3 
0.463 0.314 0.154 3 
0.473 -0.095 0.154 3 
0.482 -0.298 0.162 3 
0.482 -0.305 0.162 3 
0.485 -0.315 0.163 3 
0.484 -0.317 0.163 3 
0.486 -0.326 0.164 3 
0.461 0.339 0.154 3 
0.476 -0.187 0.123 3 
0.461 0.332 0.154 3 
0.295 -0.004 0.082 3 
0.461 0.232 0.063 3 
0.463 0.324 0.154 3 
0.465 0.133 0.144 3 
0.463 0.301 0.153 3 
0.464 0.149 0.133 3 
0.463 0.291 0.153 3 
0.462 0.281 0.152 3 
0.464 0.065 0.135 3 
0.463 0.273 0.152 3 
0.286 0.019 0.094 3 
0.473 -0.106 0.152 3 
0.476 -0.127 0.153 3 
0.475 -0.135 0.153 3 
0.475 -0.147 0.153 3 
0.48 -0.285 0.122 3 
0.461 0.114 0.012 3 
0.477 -0.226 0.124 3 
0.477 -0.236 0.124 3 
0.478 -0.246 0.124 3 
0.478 -0.255 0.124 3 
0.484 -0.326 0.127 3 
0.484 -0.337 0.128 3 
0.439 0.045 0.111 3 
0.341 -0.005 0.067 3 
0.475 -0.172 0.119 3 
0.478 -0.267 0.122 3 
0.476 -0.256 0.044 3 
0.476 -0.217 0.123 3 
0.482 -0.307 0.123 3 
0.483 -0.315 0.124 3 
0.483 -0.325 0.124 3 
0.484 -0.336 0.124 3 
0.461 0.225 0.114 3 
0.462 0.219 0.114 3 
0.463 0.202 0.114 3 
0.463 0.194 0.114 3 
0.463 0.163 0.114 3 
0.464 0.152 0.114 3 
0.464 0.144 0.114 3 
0.464 0.133 0.114 3 
0.46 0.333 0.122 3 
0.47 -0.039 0.123 3 
0.47 -0.045 0.123 3 
0.469 -0.055 0.123 3 
0.469 -0.066 0.123 3 
0.312 -0.011 0.061 3 
0.47 -0.075 0.123 3 
0.471 -0.086 0.123 3 
0.471 -0.105 0.124 3 
0.472 -0.125 0.124 3 
0.473 -0.137 0.124 3 
0.473 -0.145 0.124 3 
0.459 0.335 0.122 3 
0.464 0.124 0.114 3 
0.462 0.322 0.122 3 
0.462 0.312 0.122 3 
0.464 0.084 0.119 3 
0.428 0.043 0.112 3 
0.296 0.02 0.084 3 
0.473 -0.157 0.122 3 
0.474 -0.166 0.122 3 
0.475 -0.175 0.122 3 
0.476 -0.207 0.103 3 
0.476 -0.196 0.123 3 
0.477 -0.205 0.123 3 
0.475 -0.175 0.114 3 
0.469 -0.055 0.112 3 
0.47 -0.066 0.112 3 
0.47 -0.075 0.112 3 
0.47 -0.086 0.112 3 
0.468 -0.066 0.033 3 
0.472 -0.097 0.113 3 
0.472 -0.106 0.113 3 
0.472 -0.117 0.113 3 
0.472 -0.136 0.113 3 
0.473 -0.145 0.113 3 
0.473 -0.157 0.113 3 
0.475 -0.166 0.114 3 
0.465 0.087 0.111 3 
0.476 -0.187 0.114 3 
0.476 -0.196 0.114 3 
0.463 0.222 0.104 3 
0.476 -0.205 0.114 3 
0.465 0.117 0.109 3 
0.46 0.293 0.082 3 
0.465 0.114 0.109 3 
0.333 0.025 0.086 3 
0.479 -0.038 0.111 3 
0.464 0.072 0.023 3 
0.475 0.359 0.199 3 
0.463 0.143 0.063 3 
0.464 0.113 0.114 3 
0.464 0.094 0.052 3 
0.465 0.103 0.114 3 
0.464 0.1 0.114 3 
0.464 0.094 0.114 3 
0.464 0.081 0.114 3 
0.464 0.073 0.114 3 
0.465 0.07 0.114 3 
0.463 0.054 0.113 3 
0.468 -0.039 0.114 3 
0.468 -0.047 0.114 3 
0.485 -0.345 0.122 3 
0.296 0.02 0.085 3 
0.459 0.335 0.113 3 
0.46 0.333 0.113 3 
0.461 0.324 0.113 3 
0.334 0.012 0.054 3 
0.462 0.312 0.113 3 
0.462 0.302 0.113 3 
0.461 0.282 0.113 3 
0.476 -0.256 0.052 3 
0.461 0.263 0.112 3 
0.461 0.254 0.112 3 
0.461 0.242 0.112 3 
0.474 -0.166 0.133 3 
0.462 0.262 0.132 3 
0.285 0.014 0.086 3 
0.312 -0.006 0.093 3 
0.471 -0.097 0.132 3 
0.473 -0.117 0.132 3 
0.473 -0.126 0.133 3 
0.48 -0.317 0.034 3 
0.474 -0.135 0.133 3 
0.474 -0.146 0.133 3 
0.475 -0.152 0.133 3 
0.475 -0.155 0.133 3 
0.474 -0.16 0.133 3 
0.462 0.283 0.132 3 
0.474 -0.175 0.134 3 
0.476 -0.187 0.134 3 
0.476 -0.196 0.134 3 
0.476 -0.208 0.134 3 
0.475 -0.207 0.052 3 
0.484 -0.306 0.139 3 
0.484 -0.316 0.139 3 
0.465 0.156 0.128 3 
0.465 0.054 0.127 3 
0.476 -0.184 0.131 3 
0.477 -0.217 0.132 3 
0.318 -0.01 0.067 3 
0.466 0.084 0.133 3 
0.465 0.073 0.133 3 
0.465 0.062 0.133 3 
0.464 0.059 0.132 3 
0.464 0.054 0.132 3 
0.471 -0.042 0.134 3 
0.471 -0.045 0.134 3 
0.47 -0.056 0.134 3 
0.471 -0.067 0.134 3 
0.471 -0.075 0.134 3 
0.474 -0.146 0.136 3 
0.485 -0.304 0.142 3 
0.465 0.078 0.06 3 
0.485 -0.307 0.142 3 
0.486 -0.315 0.142 3 
0.486 -0.325 0.143 3 
0.488 -0.345 0.144 3 
0.458 0.335 0.133 3 
0.459 0.332 0.133 3 
0.462 0.322 0.134 3 
0.471 -0.105 0.003 3 
0.462 0.312 0.133 3 
0.462 0.302 0.133 3 
0.461 0.292 0.132 3 
0.464 0.144 0.122 3 
0.462 0.274 0.124 3 
0.461 0.264 0.123 3 
0.462 0.243 0.123 3 
0.462 0.234 0.123 3 
0.461 0.222 0.123 3 
0.463 0.202 0.123 3 
0.464 0.194 0.123 3 
0.463 0.182 0.122 3 
0.463 0.174 0.122 3 
0.464 0.163 0.122 3 
0.464 0.152 0.122 3 
0.462 0.184 0.054 3 
0.461 0.282 0.124 3 
0.468 -0.066 0.023 3 
0.465 0.133 0.122 3 
0.464 0.13 0.122 3 
0.464 0.124 0.122 3 
0.464 0.114 0.122 3 
0.464 0.103 0.122 3 
0.465 0.095 0.122 3 
0.464 0.092 0.122 3 
0.465 0.089 0.122 3 
0.465 0.073 0.122 3 
0.465 0.062 0.122 3 
0.285 0.016 0.084 3 
0.477 -0.227 0.132 3 
0.477 -0.236 0.132 3 
0.478 -0.246 0.133 3 
0.478 -0.255 0.133 3 
0.478 -0.268 0.133 3 
0.483 -0.348 0.064 3 
0.473 -0.165 0.044 3 
0.479 -0.275 0.134 3 
0.48 -0.285 0.134 3 
0.464 0.103 0.125 3 
0.464 0.059 0.124 3 
0.464 0.054 0.124 3 
0.466 0.092 0.133 3 
0.284 0.012 0.084 3 
0.286 0.004 0.084 3 
0.481 -0.296 0.132 3 
0.483 -0.305 0.132 3 
0.484 -0.316 0.133 3 
0.485 -0.32 0.133 3 
0.486 -0.325 0.134 3 
0.486 -0.335 0.134 3 
0.486 -0.346 0.134 3 
0.462 0.302 0.124 3 
0.461 0.292 0.124 3 
0.472 -0.106 0.132 3 
0.468 0.202 0.183 3 
0.468 0.193 0.183 3 
0.468 0.182 0.182 3 
0.469 0.174 0.183 3 
0.474 -0.135 0.144 3 
0.468 0.164 0.182 3 
0.468 0.153 0.182 3 
0.463 0.203 0.142 3 
0.47 0.142 0.182 3 
0.47 0.134 0.182 3 
0.479 -0.275 0.122 3 
0.472 0.123 0.182 3 
0.462 0.214 0.123 3 
0.471 0.114 0.182 3 
0.471 0.103 0.182 3 
0.471 0.092 0.182 3 
0.467 -0.036 0.004 3 
0.472 0.084 0.182 3 
0.288 -0.007 0.107 3 
0.477 -0.057 0.184 3 
0.477 -0.065 0.184 3 
0.458 0.034 0.047 3 
0.478 -0.077 0.184 3 
0.475 -0.213 0.072 3 
0.484 -0.224 0.19 3 
0.484 -0.234 0.194 3 
0.274 -0.005 0.102 3 
0.484 -0.176 0.192 3 
0.485 -0.182 0.192 3 
0.484 -0.185 0.192 3 
0.485 -0.191 0.192 3 
0.484 -0.197 0.192 3 
0.484 -0.206 0.193 3 
0.485 -0.213 0.193 3 
0.485 -0.216 0.193 3 
0.485 -0.225 0.194 3 
0.307 0.021 0.084 3 
0.474 -0.177 0.097 3 
0.485 -0.253 0.191 3 
0.484 -0.237 0.194 3 
0.484 -0.247 0.194 3 
0.461 0.262 0.062 3 
0.493 -0.335 0.201 3 
0.467 0.256 0.184 3 
0.466 0.252 0.184 3 
0.466 0.243 0.184 3 
0.485 -0.307 0.157 3 
0.467 0.234 0.184 3 
0.468 0.223 0.184 3 
0.468 0.214 0.183 3 
0.476 -0.054 0.178 3 
0.462 0.274 0.132 3 
0.481 -0.147 0.184 3 
0.48 -0.155 0.184 3 
0.48 -0.356 0.013 3 
0.479 -0.167 0.184 3 
0.488 -0.305 0.192 3 
0.489 -0.316 0.193 3 
0.49 -0.328 0.194 3 
0.474 -0.197 0.052 3 
0.491 -0.336 0.194 3 
0.463 0.343 0.182 3 
0.467 0.334 0.182 3 
0.48 -0.135 0.183 3 
0.474 -0.065 0.177 3 
0.479 -0.176 0.181 3 
0.48 -0.185 0.181 3 
0.482 -0.195 0.183 3 
0.483 -0.205 0.183 3 
0.464 0.073 0.119 3 
0.482 -0.217 0.183 3 
0.473 -0.176 0.072 3 
0.465 0.054 0.001 3 
0.481 -0.225 0.183 3 
0.481 -0.235 0.183 3 
0.467 0.303 0.184 3 
0.485 -0.256 0.191 3 
0.486 -0.267 0.192 3 
0.485 -0.276 0.192 3 
0.486 -0.286 0.193 3 
0.474 -0.236 0.013 3 
0.488 -0.298 0.194 3 
0.474 -0.209 0.044 3 
0.467 0.317 0.184 3 
0.452 -0.047 0.063 3 
0.467 0.313 0.184 3 
0.46 0.293 0.093 3 
0.481 0.088 0.06 3 
0.471 0.064 0.184 3 
0.468 0.294 0.184 3 
0.467 0.284 0.183 3 
0.467 0.274 0.182 3 
0.276 0.021 0.101 3 
0.478 -0.085 0.182 3 
0.478 -0.097 0.182 3 
0.463 0.202 0.103 3 
0.478 -0.105 0.182 3 
0.474 -0.165 0.102 3 
0.479 -0.117 0.182 3 
0.48 -0.126 0.183 3 
0.474 0.104 0.189 3 
0.47 0.163 0.189 3 
0.359 0.048 0.068 3 
0.47 0.154 0.188 3 
0.465 0.084 0.122 3 
0.46 0.284 0.093 3 
0.471 0.143 0.188 3 
0.471 0.134 0.188 3 
0.464 0.062 0.114 3 
0.473 0.124 0.189 3 
0.473 0.073 0.188 3 
0.473 0.112 0.188 3 
0.465 0.282 0.173 3 
0.47 0.174 0.189 3 
0.474 0.093 0.189 3 
0.474 0.084 0.188 3 
0.471 0.064 0.187 3 
0.274 0.021 0.103 3 
0.267 0.014 0.1 3 
0.466 -0.015 0.023 3 
0.268 0.004 0.101 3 
0.276 -0.004 0.104 3 
0.276 -0.005 0.104 3 
0.281 -0.006 0.106 3 
0.479 -0.057 0.19 3 
0.479 -0.066 0.19 3 
0.47 0.274 0.192 3 
0.481 -0.296 0.123 3 
0.465 0.344 0.195 3 
0.465 0.341 0.194 3 
0.468 0.333 0.195 3 
0.47 0.324 0.195 3 
0.474 -0.157 0.102 3 
0.469 0.319 0.194 3 
0.469 0.313 0.194 3 
0.468 0.302 0.193 3 
0.463 0.182 0.114 3 
0.468 0.292 0.192 3 
0.469 0.283 0.192 3 
0.469 -0.126 0.014 3 
0.469 0.264 0.191 3 
0.468 0.254 0.191 3 
0.467 0.244 0.19 3 
0.468 0.232 0.19 3 
0.469 0.224 0.19 3 
0.472 -0.042 0.143 3 
0.469 0.212 0.189 3 
0.479 -0.296 0.023 3 
0.469 0.203 0.189 3 
0.47 0.192 0.189 3 
0.47 0.183 0.189 3 
0.472 -0.176 0.052 3 
0.477 -0.247 0.004 3 
0.486 -0.236 0.197 3 
0.484 -0.24 0.197 3 
0.475 -0.115 0.153 3 
0.485 -0.248 0.197 3 
0.455 0.329 0.012 3 
0.482 -0.248 0.196 3 
0.487 -0.255 0.198 3 
0.487 -0.268 0.199 3 
0.487 -0.278 0.199 3 
0.488 -0.288 0.2 3 
0.489 -0.296 0.201 3 
0.486 -0.226 0.197 3 
0.49 -0.307 0.202 3 
0.49 -0.318 0.202 3 
0.491 -0.326 0.203 3 
0.493 -0.335 0.205 3 
0.464 0.346 0.191 3 
0.463 0.342 0.191 3 
0.471 -0.097 0.124 3 
0.478 -0.286 0.093 3 
0.469 0.333 0.192 3 
0.473 -0.145 0.094 3 
0.471 0.067 0.184 3 
0.484 -0.155 0.194 3 
0.48 -0.075 0.191 3 
0.47 -0.045 0.153 3 
0.48 -0.086 0.191 3 
0.48 -0.095 0.191 3 
0.481 -0.107 0.192 3 
0.482 -0.116 0.192 3 
0.483 -0.355 0.052 3 
0.483 -0.125 0.193 3 
0.483 -0.136 0.193 3 
0.464 0.094 0.103 3 
0.482 -0.317 0.103 3 
0.484 -0.146 0.194 3 
0.483 -0.248 0.184 3 
0.465 0.339 0.182 3 
0.483 -0.166 0.194 3 
0.471 -0.067 0.074 3 
0.484 -0.176 0.195 3 
0.485 -0.179 0.195 3 
0.484 -0.185 0.195 3 
0.485 -0.188 0.195 3 
0.486 -0.195 0.196 3 
0.468 -0.077 0.052 3 
0.485 -0.207 0.196 3 
0.485 -0.216 0.196 3 
0.464 0.102 0.084 3 
0.468 0.124 0.164 3 
0.468 0.113 0.164 3 
0.467 0.104 0.164 3 
0.469 0.094 0.164 3 
0.469 0.083 0.164 3 
0.468 0.074 0.164 3 
0.464 0.062 0.162 3 
0.474 -0.076 0.166 3 
0.483 -0.238 0.172 3 
0.482 -0.247 0.172 3 
0.482 -0.256 0.172 3 
0.482 -0.266 0.173 3 
0.468 0.132 0.164 3 
0.483 -0.276 0.173 3 
0.483 -0.286 0.174 3 
0.482 -0.295 0.174 3 
0.463 0.295 0.164 3 
0.463 0.292 0.164 3 
0.463 0.282 0.164 3 
0.465 0.275 0.164 3 
0.465 0.272 0.164 3 
0.305 -0.002 0.071 3 
0.464 0.265 0.164 3 
0.464 0.261 0.164 3 
0.464 0.252 0.163 3 
0.464 0.225 0.165 3 
0.468 -0.085 0.012 3 
0.479 -0.196 0.173 3 
0.481 -0.207 0.174 3 
0.465 0.111 0.06 3 
0.481 -0.216 0.174 3 
0.478 -0.216 0.152 3 
0.479 -0.227 0.174 3 
0.464 0.062 0.092 3 
0.475 -0.237 0.007 3 
0.484 -0.297 0.178 3 
0.489 -0.337 0.181 3 
0.464 0.243 0.163 3 
0.464 0.219 0.165 3 
0.464 0.214 0.165 3 
0.464 0.202 0.165 3 
0.46 0.282 0.043 3 
0.465 0.179 0.164 3 
0.472 -0.117 0.124 3 
0.465 0.174 0.164 3 
0.465 0.162 0.164 3 
0.47 -0.036 0.104 3 
0.465 0.153 0.164 3 
0.467 0.143 0.164 3 
0.475 -0.204 0.052 3 
0.475 -0.107 0.164 3 
0.465 0.114 0.144 3 
0.477 -0.245 0.112 3 
0.485 -0.308 0.172 3 
0.46 0.274 0.082 3 
0.486 -0.316 0.173 3 
0.486 -0.326 0.173 3 
0.487 -0.335 0.174 3 
0.46 0.339 0.163 3 
0.461 0.333 0.163 3 
0.461 0.272 0.104 3 
0.463 0.162 0.092 3 
0.464 0.322 0.163 3 
0.464 0.312 0.163 3 
0.463 0.132 0.073 3 
0.277 0.016 0.094 3 
0.277 0.014 0.094 3 
0.474 -0.087 0.16 3 
0.476 -0.116 0.161 3 
0.476 -0.127 0.162 3 
0.477 -0.136 0.162 3 
0.473 -0.145 0.083 3 
0.476 -0.147 0.162 3 
0.472 -0.053 0.162 3 
0.464 0.234 0.163 3 
0.464 0.222 0.162 3 
0.464 0.213 0.162 3 
0.465 0.084 0.114 3 
0.479 -0.316 0.043 3 
0.464 0.202 0.162 3 
0.468 -0.045 0.004 3 
0.465 0.2 0.162 3 
0.465 0.194 0.162 3 
0.464 0.176 0.161 3 
0.466 0.063 0.16 3 
0.477 -0.186 0.172 3 
0.472 -0.056 0.162 3 
0.473 -0.065 0.163 3 
0.461 0.294 0.113 3 
0.475 -0.076 0.163 3 
0.471 -0.086 0.104 3 
0.46 0.234 0.043 3 
0.475 -0.231 0.024 3 
0.474 -0.079 0.163 3 
0.475 -0.087 0.163 3 
0.474 -0.095 0.163 3 
0.475 -0.099 0.164 3 
0.46 0.214 0.014 3 
0.465 0.063 0.171 3 
0.464 0.204 0.154 3 
0.285 -0.007 0.103 3 
0.462 0.173 0.033 3 
0.321 -0.01 0.116 3 
0.472 -0.125 0.113 3 
0.474 -0.054 0.174 3 
0.333 -0.009 0.068 3 
0.475 -0.057 0.174 3 
0.474 -0.059 0.174 3 
0.473 -0.065 0.174 3 
0.465 0.102 0.044 3 
0.468 0.072 0.172 3 
0.484 -0.255 0.182 3 
0.484 -0.265 0.182 3 
0.485 -0.269 0.183 3 
0.484 -0.278 0.183 3 
0.285 0.013 0.084 3 
0.485 -0.285 0.184 3 
0.486 -0.296 0.184 3 
0.464 0.316 0.174 3 
0.464 0.313 0.174 3 
0.473 -0.176 0.033 3 
0.466 0.163 0.173 3 
0.464 0.32 0.178 3 
0.475 -0.237 0.024 3 
0.464 0.25 0.174 3 
0.466 0.227 0.174 3 
0.466 0.221 0.174 3 
0.467 0.213 0.174 3 
0.467 0.204 0.174 3 
0.463 0.254 0.143 3 
0.467 0.192 0.174 3 
0.461 0.274 0.032 3 
0.466 0.183 0.173 3 
0.466 0.172 0.173 3 
0.465 0.304 0.174 3 
0.466 0.154 0.172 3 
0.467 0.143 0.172 3 
0.469 0.133 0.173 3 
0.48 -0.245 0.154 3 
0.469 0.122 0.173 3 
0.472 -0.095 0.143 3 
0.469 0.113 0.173 3 
0.469 0.102 0.173 3 
0.465 0.144 0.12 3 
0.47 0.094 0.173 3 
0.471 0.083 0.173 3 
0.465 0.311 0.172 3 
0.478 -0.157 0.174 3 
0.477 -0.165 0.174 3 
0.471 -0.097 0.052 3 
0.477 -0.177 0.174 3 
0.484 -0.287 0.18 3 
0.486 -0.306 0.182 3 
0.486 -0.316 0.182 3 
0.488 -0.329 0.184 3 
0.478 -0.296 0.064 3 
0.461 0.244 0.054 3 
0.461 0.34 0.172 3 
0.464 0.333 0.172 3 
0.478 -0.146 0.174 3 
0.464 0.284 0.17 3 
0.475 -0.216 0.03 3 
0.464 -0.025 0.012 3 
0.464 0.268 0.169 3 
0.463 0.264 0.169 3 
0.459 0.304 0.032 3 
0.464 0.243 0.169 3 
0.465 0.179 0.153 3 
0.464 0.06 0.165 3 
0.48 -0.307 0.064 3 
0.275 0.009 0.098 3 
0.464 0.297 0.173 3 
0.465 0.294 0.174 3 
0.464 0.29 0.173 3 
0.466 0.273 0.173 3 
0.482 -0.305 0.168 3 
0.46 0.337 0.142 3 
0.477 -0.235 0.104 3 
0.465 0.263 0.172 3 
0.463 0.072 0.004 3 
0.465 0.253 0.172 3 
0.463 0.211 0.114 3 
0.465 0.244 0.172 3 
0.476 -0.156 0.162 3 
0.475 -0.054 0.172 3 
0.475 -0.068 0.172 3 
0.475 -0.076 0.172 3 
0.477 -0.085 0.173 3 
0.477 -0.096 0.173 3 
0.477 -0.105 0.173 3 
0.478 -0.117 0.173 3 
0.487 -0.337 0.143 3 
0.478 -0.125 0.174 3 
0.479 -0.137 0.174 3 
0.461 0.273 0.112 3 
0.459 0.314 0.043 3 
0.481 -0.335 0.052 3 
0.465 0.064 0.05 3 
0.453 0.036 0.05 3 
0.42 0.027 0.051 3 
0.451 0.023 0.047 3 
0.436 0.017 0.048 3 
0.457 0.013 0.047 3 
0.463 0.003 0.047 3 
0.468 -0.017 0.047 3 
0.456 0.331 0.043 3 
0.459 0.324 0.043 3 
0.48 -0.327 0.052 3 
0.459 0.304 0.043 3 
0.468 -0.066 0.044 3 
0.46 0.292 0.043 3 
0.46 0.273 0.043 3 
0.46 0.264 0.043 3 
0.468 -0.055 0.033 3 
0.461 0.224 0.024 3 
0.461 0.253 0.043 3 
0.476 -0.252 0.012 3 
0.46 0.243 0.043 3 
0.461 0.223 0.043 3 
0.473 -0.185 0.052 3 
0.459 0.282 0.013 3 
0.467 -0.036 0.052 3 
0.467 -0.047 0.052 3 
0.467 -0.055 0.052 3 
0.466 -0.066 0.052 3 
0.469 -0.085 0.052 3 
0.472 -0.105 0.052 3 
0.471 -0.116 0.052 3 
0.471 -0.127 0.052 3 
0.472 -0.136 0.052 3 
0.473 -0.156 0.052 3 
0.473 -0.165 0.052 3 
0.461 0.212 0.044 3 
0.474 -0.215 0.052 3 
0.475 -0.219 0.052 3 
0.475 -0.225 0.052 3 
0.476 -0.237 0.052 3 
0.477 -0.247 0.052 3 
0.476 -0.265 0.052 3 
0.475 -0.277 0.052 3 
0.477 -0.288 0.052 3 
0.479 -0.296 0.052 3 
0.48 -0.307 0.052 3 
0.48 -0.317 0.052 3 
0.473 -0.156 0.044 3 
0.465 -0.001 0.044 3 
0.466 -0.007 0.044 3 
0.467 -0.015 0.044 3 
0.468 -0.025 0.044 3 
0.468 -0.047 0.044 3 
0.468 -0.077 0.044 3 
0.469 -0.085 0.044 3 
0.471 -0.097 0.044 3 
0.471 -0.105 0.044 3 
0.471 -0.116 0.044 3 
0.472 -0.136 0.044 3 
0.473 -0.145 0.044 3 
0.463 0.003 0.044 3 
0.473 -0.176 0.044 3 
0.474 -0.186 0.044 3 
0.474 -0.197 0.044 3 
0.474 -0.215 0.044 3 
0.475 -0.228 0.044 3 
0.476 -0.237 0.044 3 
0.476 -0.247 0.044 3 
0.476 -0.265 0.044 3 
0.476 -0.275 0.044 3 
0.48 -0.297 0.043 3 
0.479 -0.306 0.043 3 
0.464 0.094 0.044 3 
0.462 0.204 0.044 3 
0.462 0.193 0.044 3 
0.462 0.184 0.044 3 
0.462 0.173 0.044 3 
0.462 0.164 0.044 3 
0.463 0.154 0.044 3 
0.463 0.143 0.044 3 
0.463 0.132 0.044 3 
0.463 0.124 0.044 3 
0.463 0.113 0.044 3 
0.464 0.096 0.044 3 
0.467 -0.028 0.052 3 
0.464 0.083 0.044 3 
0.464 0.072 0.044 3 
0.469 -0.055 0.044 3 
0.465 0.064 0.044 3 
0.465 0.054 0.044 3 
0.464 0.051 0.044 3 
0.463 0.043 0.044 3 
0.46 0.032 0.044 3 
0.46 0.024 0.044 3 
0.46 0.021 0.045 3 
0.462 0.014 0.044 3 
0.483 -0.355 0.064 3 
0.475 -0.195 0.064 3 
0.475 -0.207 0.064 3 
0.475 -0.216 0.064 3 
0.476 -0.237 0.064 3 
0.476 -0.247 0.064 3 
0.476 -0.256 0.064 3 
0.476 -0.265 0.064 3 
0.476 -0.275 0.064 3 
0.477 -0.285 0.064 3 
0.48 -0.317 0.064 3 
0.481 -0.328 0.064 3 
0.481 -0.335 0.064 3 
0.473 -0.185 0.064 3 
0.463 0.154 0.052 3 
0.463 0.102 0.06 3 
0.465 0.1 0.06 3 
0.46 0.093 0.06 3 
0.475 0.083 0.06 3 
0.46 0.252 0.024 3 
0.463 0.075 0.06 3 
0.464 0.072 0.06 3 
0.459 0.053 0.06 3 
0.46 0.273 0.054 3 
0.327 0.006 0.059 3 
0.459 0.063 0.063 3 
0.454 0.052 0.063 3 
0.476 -0.226 0.112 3 
0.487 -0.036 0.063 3 
0.469 -0.036 0.063 3 
0.463 -0.038 0.063 3 
0.458 -0.045 0.063 3 
0.337 0.003 0.059 3 
0.472 -0.097 0.063 3 
0.471 -0.105 0.063 3 
0.471 -0.116 0.063 3 
0.483 -0.348 0.052 3 
0.472 -0.125 0.063 3 
0.473 -0.136 0.063 3 
0.473 -0.145 0.063 3 
0.473 -0.165 0.063 3 
0.473 -0.176 0.063 3 
0.461 0.212 0.022 3 
0.464 0.083 0.052 3 
0.462 0.193 0.054 3 
0.455 0.044 0.055 3 
0.346 0.021 0.056 3 
0.358 0.005 0.056 3 
0.366 -0.001 0.056 3 
0.462 0.173 0.052 3 
0.462 0.164 0.052 3 
0.463 0.143 0.052 3 
0.463 0.132 0.052 3 
0.463 0.124 0.052 3 
0.463 0.113 0.052 3 
0.463 0.102 0.052 3 
0.462 0.204 0.054 3 
0.464 0.072 0.052 3 
0.457 0.042 0.052 3 
0.358 0.022 0.054 3 
0.365 0.021 0.054 3 
0.35 0.016 0.054 3 
0.337 0.014 0.054 3 
0.358 0.007 0.054 3 
0.374 0.006 0.054 3 
0.367 0.004 0.054 3 
0.364 0.002 0.054 3 
0.375 -0.003 0.054 3 
0.471 -0.086 0.058 3 
0.467 -0.031 0.06 3 
0.461 -0.056 0.06 3 
0.458 -0.066 0.06 3 
0.465 0.07 0.057 3 
0.451 0.044 0.058 3 
0.357 -0.004 0.058 3 
0.465 -0.047 0.058 3 
0.465 -0.057 0.058 3 
0.465 -0.065 0.058 3 
0.461 0.164 0.033 3 
0.469 -0.077 0.058 3 
0.483 -0.348 0.043 3 
0.474 -0.215 0.058 3 
0.459 0.324 0.054 3 
0.459 0.314 0.054 3 
0.46 0.302 0.054 3 
0.459 0.292 0.054 3 
0.46 0.282 0.054 3 
0.461 0.262 0.054 3 
0.461 0.253 0.054 3 
0.461 0.232 0.054 3 
0.461 0.223 0.054 3 
0.462 0.213 0.054 3 
0.456 0.323 0.012 3 
0.47 -0.105 0.022 3 
0.47 -0.116 0.022 3 
0.47 -0.127 0.022 3 
0.47 -0.135 0.022 3 
0.472 -0.147 0.022 3 
0.472 -0.156 0.022 3 
0.472 -0.167 0.022 3 
0.472 -0.176 0.022 3 
0.454 0.329 0.015 3 
0.481 -0.346 0.004 3 
0.479 -0.337 0.014 3 
0.481 -0.346 0.013 3 
0.47 -0.096 0.023 3 
0.459 0.314 0.012 3 
0.459 0.304 0.012 3 
0.459 0.294 0.012 3 
0.459 0.263 0.013 3 
0.459 0.254 0.013 3 
0.458 0.242 0.014 3 
0.459 0.234 0.014 3 
0.46 0.223 0.014 3 
0.46 0.203 0.014 3 
0.46 0.194 0.014 3 
0.46 0.183 0.014 3 
0.465 0.027 0.023 3 
0.461 0.164 0.022 3 
0.461 0.153 0.022 3 
0.461 0.142 0.023 3 
0.462 0.134 0.023 3 
0.463 0.123 0.023 3 
0.462 0.112 0.023 3 
0.462 0.104 0.023 3 
0.463 0.094 0.023 3 
0.463 0.083 0.023 3 
0.464 0.064 0.023 3 
0.464 0.054 0.023 3 
0.464 0.032 0.023 3 
0.46 0.172 0.014 3 
0.464 0.024 0.023 3 
0.465 0.022 0.023 3 
0.465 0.014 0.023 3 
0.466 0.003 0.023 3 
0.467 -0.007 0.023 3 
0.466 -0.025 0.023 3 
0.467 -0.036 0.023 3 
0.467 -0.047 0.023 3 
0.468 -0.055 0.023 3 
0.469 -0.077 0.023 3 
0.469 -0.085 0.023 3 
0.476 -0.238 0.004 3 
0.466 -0.007 0.012 3 
0.465 -0.015 0.012 3 
0.465 -0.036 0.012 3 
0.465 -0.047 0.012 3 
0.466 -0.055 0.012 3 
0.467 -0.066 0.012 3 
0.467 -0.077 0.012 3 
0.468 -0.107 0.012 3 
0.475 -0.234 0.007 3 
0.481 -0.336 0.004 3 
0.479 -0.355 0.004 3 
0.466 -0.025 0.007 3 
0.463 0.043 0.012 3 
0.463 0.064 0.004 3 
0.463 0.053 0.004 3 
0.468 -0.015 0.004 3 
0.466 -0.025 0.004 3 
0.469 -0.055 0.004 3 
0.472 -0.117 0.003 3 
0.471 -0.136 0.003 3 
0.472 -0.156 0.003 3 
0.473 -0.165 0.002 3 
0.473 -0.177 0.002 3 
0.465 0.073 0.001 3 
0.473 -0.227 0.013 3 
0.46 0.164 0.014 3 
0.464 -0.025 0.015 3 
0.469 -0.124 0.014 3 
0.469 -0.135 0.014 3 
0.47 -0.146 0.014 3 
0.47 -0.155 0.014 3 
0.47 -0.166 0.014 3 
0.47 -0.175 0.014 3 
0.47 -0.186 0.014 3 
0.471 -0.196 0.014 3 
0.472 -0.217 0.013 3 
0.461 0.172 0.022 3 
0.474 -0.245 0.013 3 
0.475 -0.255 0.012 3 
0.459 0.152 0.012 3 
0.46 0.144 0.012 3 
0.462 0.134 0.012 3 
0.462 0.104 0.012 3 
0.462 0.093 0.012 3 
0.462 0.083 0.012 3 
0.462 0.074 0.012 3 
0.461 0.064 0.013 3 
0.462 0.053 0.013 3 
0.464 0.032 0.034 3 
0.463 0.132 0.033 3 
0.463 0.124 0.033 3 
0.464 0.113 0.033 3 
0.464 0.102 0.033 3 
0.464 0.094 0.033 3 
0.464 0.083 0.033 3 
0.464 0.072 0.034 3 
0.465 0.067 0.033 3 
0.465 0.064 0.033 3 
0.465 0.054 0.034 3 
0.465 0.043 0.034 3 
0.464 0.035 0.034 3 
0.462 0.142 0.033 3 
0.464 0.024 0.034 3 
0.465 0.016 0.034 3 
0.465 0.014 0.034 3 
0.466 0.003 0.034 3 
0.466 -0.007 0.034 3 
0.467 -0.015 0.034 3 
0.467 -0.025 0.034 3 
0.468 -0.036 0.033 3 
0.468 -0.047 0.033 3 
0.469 -0.077 0.033 3 
0.47 -0.096 0.033 3 
0.483 -0.348 0.034 3 
0.483 -0.355 0.043 3 
0.465 0.07 0.041 3 
0.464 0.064 0.042 3 
0.475 -0.201 0.041 3 
0.475 -0.219 0.041 3 
0.465 0.008 0.039 3 
0.457 0.332 0.034 3 
0.459 0.324 0.034 3 
0.458 0.313 0.034 3 
0.465 0.043 0.036 3 
0.481 -0.328 0.034 3 
0.481 -0.335 0.034 3 
0.471 -0.105 0.033 3 
0.481 -0.356 0.034 3 
0.46 0.292 0.032 3 
0.46 0.283 0.032 3 
0.46 0.264 0.032 3 
0.46 0.252 0.032 3 
0.46 0.234 0.033 3 
0.465 0.062 0.001 3 
0.461 0.223 0.033 3 
0.461 0.212 0.033 3 
0.462 0.204 0.033 3 
0.461 0.192 0.033 3 
0.475 -0.255 0.024 3 
0.455 0.33 0.023 3 
0.459 0.324 0.023 3 
0.46 0.314 0.023 3 
0.459 0.304 0.023 3 
0.46 0.264 0.024 3 
0.46 0.234 0.024 3 
0.473 -0.194 0.024 3 
0.473 -0.197 0.024 3 
0.474 -0.206 0.024 3 
0.474 -0.215 0.024 3 
0.474 -0.227 0.024 3 
0.475 -0.246 0.024 3 
0.464 0.054 0.028 3 
0.477 -0.266 0.024 3 
0.477 -0.275 0.023 3 
0.477 -0.285 0.023 3 
0.479 -0.306 0.023 3 
0.48 -0.317 0.023 3 
0.48 -0.327 0.023 3 
0.481 -0.339 0.022 3 
0.482 -0.347 0.022 3 
0.481 -0.357 0.022 3 
0.46 0.203 0.022 3 
0.461 0.184 0.022 3 
0.474 -0.215 0.033 3 
0.471 -0.125 0.003 3 
0.471 -0.116 0.033 3 
0.462 0.123 0.012 3 
0.471 -0.127 0.033 3 
0.472 -0.136 0.033 3 
0.473 -0.145 0.033 3 
0.473 -0.156 0.033 3 
0.473 -0.165 0.033 3 
0.473 -0.185 0.033 3 
0.474 -0.197 0.033 3 
0.474 -0.206 0.033 3 
0.436 0.046 0.062 3 
0.475 -0.225 0.033 3 
0.476 -0.235 0.032 3 
0.476 -0.247 0.032 3 
0.475 -0.255 0.032 3 
0.475 -0.265 0.032 3 
0.477 -0.275 0.032 3 
0.478 -0.285 0.032 3 
0.479 -0.296 0.032 3 
0.479 -0.306 0.032 3 
0.464 0.064 0.031 3 
0.475 -0.213 0.03 3 
0.474 -0.185 0.091 3 
0.47 -0.077 0.093 3 
0.47 -0.086 0.093 3 
0.471 -0.097 0.093 3 
0.472 -0.106 0.094 3 
0.471 -0.116 0.093 3 
0.471 -0.125 0.094 3 
0.46 0.194 0.022 3 
0.472 -0.136 0.094 3 
0.474 -0.157 0.094 3 
0.474 -0.177 0.094 3 
0.475 -0.186 0.094 3 
0.468 -0.033 0.09 3 
0.469 -0.066 0.093 3 
0.475 -0.195 0.092 3 
0.476 -0.207 0.092 3 
0.475 -0.216 0.092 3 
0.475 -0.225 0.092 3 
0.476 -0.237 0.092 3 
0.475 -0.246 0.092 3 
0.478 -0.285 0.044 3 
0.476 -0.256 0.092 3 
0.477 -0.266 0.093 3 
0.471 -0.127 0.044 3 
0.477 -0.276 0.093 3 
0.464 0.113 0.092 3 
0.463 0.234 0.093 3 
0.462 0.224 0.093 3 
0.463 0.193 0.092 3 
0.462 0.184 0.092 3 
0.462 0.173 0.092 3 
0.464 0.064 0.052 3 
0.476 -0.268 0.004 3 
0.463 0.154 0.092 3 
0.463 0.143 0.092 3 
0.464 0.132 0.092 3 
0.351 -0.009 0.069 3 
0.464 0.124 0.092 3 
0.459 0.294 0.024 3 
0.464 0.102 0.092 3 
0.464 0.094 0.092 3 
0.464 0.083 0.092 3 
0.465 0.081 0.092 3 
0.465 0.073 0.092 3 
0.464 0.054 0.092 3 
0.465 0.051 0.092 3 
0.305 0.02 0.074 3 
0.469 -0.036 0.093 3 
0.469 -0.047 0.093 3 
0.469 -0.055 0.093 3 
0.46 0.262 0.082 3 
0.464 0.094 0.084 3 
0.463 0.083 0.084 3 
0.462 0.072 0.084 3 
0.461 0.064 0.084 3 
0.46 0.053 0.084 3 
0.33 0.025 0.072 3 
0.473 -0.156 0.063 3 
0.476 -0.256 0.004 3 
0.466 -0.033 0.084 3 
0.459 0.311 0.082 3 
0.46 0.302 0.082 3 
0.46 0.283 0.082 3 
0.464 0.113 0.084 3 
0.318 0.022 0.07 3 
0.475 -0.207 0.083 3 
0.483 -0.032 0.063 3 
0.466 -0.036 0.082 3 
0.47 -0.047 0.082 3 
0.453 0.106 0.063 3 
0.469 -0.066 0.082 3 
0.469 -0.077 0.082 3 
0.47 -0.086 0.082 3 
0.471 -0.097 0.082 3 
0.471 -0.105 0.082 3 
0.368 0.031 0.063 3 
0.479 -0.297 0.093 3 
0.481 -0.309 0.094 3 
0.482 -0.316 0.094 3 
0.483 -0.328 0.094 3 
0.484 -0.338 0.094 3 
0.484 -0.345 0.094 3 
0.335 0.026 0.074 3 
0.461 0.247 0.084 3 
0.461 0.244 0.084 3 
0.461 0.232 0.084 3 
0.461 0.224 0.084 3 
0.462 0.213 0.084 3 
0.462 0.242 0.093 3 
0.462 0.204 0.084 3 
0.462 0.193 0.084 3 
0.462 0.184 0.084 3 
0.462 0.173 0.084 3 
0.457 0.332 0.054 3 
0.462 0.162 0.084 3 
0.463 0.154 0.084 3 
0.463 0.143 0.084 3 
0.463 0.132 0.084 3 
0.463 0.124 0.084 3 
0.475 -0.267 0.012 3 
0.481 -0.328 0.073 3 
0.463 0.182 0.103 3 
0.475 -0.207 0.044 3 
0.463 0.174 0.103 3 
0.463 0.163 0.103 3 
0.463 0.154 0.103 3 
0.463 0.143 0.103 3 
0.464 0.133 0.103 3 
0.464 0.124 0.103 3 
0.47 -0.097 0.003 3 
0.464 0.113 0.103 3 
0.464 0.102 0.103 3 
0.463 0.194 0.103 3 
0.465 0.086 0.103 3 
0.464 0.083 0.103 3 
0.465 0.081 0.103 3 
0.464 0.073 0.103 3 
0.464 0.062 0.103 3 
0.464 0.054 0.103 3 
0.335 0.026 0.083 3 
0.295 0.014 0.077 3 
0.48 -0.327 0.043 3 
0.469 -0.047 0.104 3 
0.469 -0.055 0.104 3 
0.483 -0.335 0.112 3 
0.477 -0.235 0.112 3 
0.478 -0.255 0.113 3 
0.478 -0.267 0.113 3 
0.464 0.067 0.092 3 
0.478 -0.277 0.113 3 
0.479 -0.287 0.113 3 
0.48 -0.298 0.114 3 
0.482 -0.307 0.114 3 
0.484 -0.347 0.116 3 
0.474 -0.165 0.108 3 
0.482 -0.317 0.112 3 
0.483 -0.325 0.112 3 
0.47 -0.066 0.104 3 
0.484 -0.347 0.113 3 
0.461 0.294 0.104 3 
0.461 0.282 0.104 3 
0.456 0.331 0.082 3 
0.461 0.263 0.104 3 
0.461 0.254 0.104 3 
0.459 0.324 0.082 3 
0.462 0.243 0.104 3 
0.462 0.234 0.104 3 
0.459 0.273 0.013 3 
0.463 0.214 0.104 3 
0.299 0.014 0.074 3 
0.477 -0.257 0.104 3 
0.477 -0.266 0.104 3 
0.477 -0.276 0.104 3 
0.307 -0.004 0.076 3 
0.479 -0.287 0.102 3 
0.479 -0.297 0.102 3 
0.48 -0.305 0.102 3 
0.483 -0.328 0.103 3 
0.483 -0.335 0.103 3 
0.484 -0.347 0.103 3 
0.486 -0.351 0.104 3 
0.301 0.018 0.074 3 
0.476 -0.247 0.104 3 
0.297 0.003 0.074 3 
0.457 0.332 0.093 3 
0.46 0.322 0.093 3 
0.464 -0.02 0.012 3 
0.461 0.313 0.093 3 
0.461 0.304 0.093 3 
0.462 0.213 0.092 3 
0.46 0.271 0.093 3 
0.46 0.262 0.093 3 
0.46 0.253 0.093 3 
0.472 -0.117 0.102 3 
0.47 -0.075 0.104 3 
0.471 -0.097 0.104 3 
0.485 -0.348 0.11 3 
0.457 0.332 0.102 3 
0.46 0.322 0.102 3 
0.461 0.314 0.102 3 
0.461 0.304 0.102 3 
0.304 0.026 0.065 3 
0.465 0.068 0.1 3 
0.472 -0.106 0.102 3 
0.468 -0.036 0.044 3 
0.468 -0.055 0.082 3 
0.471 -0.125 0.102 3 
0.472 -0.136 0.102 3 
0.474 -0.236 0.018 3 
0.473 -0.145 0.102 3 
0.475 -0.172 0.103 3 
0.475 -0.175 0.103 3 
0.476 -0.187 0.103 3 
0.477 -0.196 0.103 3 
0.476 -0.216 0.103 3 
0.477 -0.226 0.104 3 
0.482 -0.34 0.043 3 
0.451 0.095 0.068 3 
0.47 -0.085 0.033 3 
0.476 -0.247 0.072 3 
0.477 -0.257 0.072 3 
0.477 -0.266 0.072 3 
0.477 -0.276 0.072 3 
0.477 -0.285 0.073 3 
0.477 -0.295 0.073 3 
0.479 -0.307 0.073 3 
0.48 -0.317 0.073 3 
0.481 -0.335 0.073 3 
0.483 -0.348 0.073 3 
0.483 -0.355 0.073 3 
0.476 -0.237 0.072 3 
0.347 0.042 0.064 3 
0.343 0.035 0.064 3 
0.352 0.033 0.064 3 
0.342 0.03 0.064 3 
0.355 0.03 0.064 3 
0.326 0.023 0.063 3 
0.375 -0.006 0.065 3 
0.367 -0.008 0.065 3 
0.316 0.003 0.064 3 
0.472 -0.136 0.074 3 
0.473 -0.145 0.074 3 
0.356 0.032 0.066 3 
0.471 -0.116 0.083 3 
0.314 0.016 0.064 3 
0.475 -0.225 0.064 3 
0.312 0.014 0.064 3 
0.301 0.01 0.063 3 
0.313 0.004 0.064 3 
0.359 -0.009 0.064 3 
0.357 -0.023 0.066 3 
0.367 -0.026 0.067 3 
0.474 -0.157 0.072 3 
0.475 -0.231 0.004 3 
0.474 -0.165 0.072 3 
0.474 -0.185 0.072 3 
0.475 -0.198 0.072 3 
0.474 -0.206 0.072 3 
0.475 -0.216 0.072 3 
0.476 -0.225 0.072 3 
0.459 0.282 0.062 3 
0.367 -0.04 0.063 3 
0.472 -0.145 0.003 3 
0.459 0.324 0.062 3 
0.459 0.314 0.062 3 
0.46 0.302 0.062 3 
0.459 0.292 0.062 3 
0.461 0.253 0.062 3 
0.461 0.244 0.062 3 
0.461 0.223 0.063 3 
0.462 0.213 0.063 3 
0.462 0.204 0.063 3 
0.462 0.193 0.063 3 
0.462 0.184 0.063 3 
0.462 0.173 0.063 3 
0.463 0.132 0.063 3 
0.462 0.123 0.063 3 
0.456 0.11 0.063 3 
0.334 -0.009 0.064 3 
0.335 -0.013 0.064 3 
0.333 -0.015 0.063 3 
0.337 -0.017 0.064 3 
0.462 0.184 0.033 3 
0.465 0.07 0.052 3 
0.486 -0.076 0.069 3 
0.46 0.273 0.024 3 
0.318 0.02 0.064 3 
0.46 0.243 0.032 3 
0.361 0.042 0.063 3 
0.464 0.043 0.023 3 
0.317 0.013 0.061 3 
0.325 0.003 0.062 3 
0.365 -0.006 0.063 3 
0.349 -0.009 0.062 3 
0.483 -0.355 0.082 3 
0.326 0.024 0.069 3 
0.308 0.014 0.068 3 
0.317 -0.002 0.068 3 
0.357 -0.006 0.071 3 
0.48 -0.043 0.08 3 
0.475 -0.045 0.08 3 
0.475 -0.163 0.08 3 
0.481 -0.315 0.082 3 
0.482 -0.326 0.082 3 
0.482 -0.336 0.082 3 
0.482 -0.347 0.082 3 
0.453 0.054 0.078 3 
0.342 0.041 0.068 3 
0.305 0.031 0.066 3 
0.345 0.032 0.069 3 
0.327 -0.016 0.068 3 
0.46 0.243 0.024 3 
0.475 -0.201 0.078 3 
0.456 0.331 0.074 3 
0.459 0.324 0.074 3 
0.459 0.314 0.074 3 
0.475 -0.246 0.084 3 
0.471 -0.127 0.083 3 
0.463 0.154 0.063 3 
0.472 -0.136 0.083 3 
0.474 -0.157 0.083 3 
0.474 -0.165 0.083 3 
0.473 -0.176 0.083 3 
0.473 -0.185 0.083 3 
0.474 -0.197 0.083 3 
0.475 -0.216 0.083 3 
0.475 -0.237 0.084 3 
0.471 -0.097 0.074 3 
0.471 -0.116 0.074 3 
0.476 -0.256 0.084 3 
0.476 -0.265 0.084 3 
0.477 -0.276 0.084 3 
0.478 -0.286 0.084 3 
0.478 -0.296 0.084 3 
0.336 0.021 0.057 3 
0.483 -0.355 0.085 3 
0.45 0.066 0.078 3 
0.443 0.062 0.077 3 
0.449 0.061 0.078 3 
0.46 0.093 0.073 3 
0.462 0.184 0.073 3 
0.462 0.173 0.073 3 
0.463 0.162 0.073 3 
0.459 0.301 0.074 3 
0.463 0.143 0.073 3 
0.463 0.124 0.073 3 
0.336 -0.017 0.067 3 
0.463 0.113 0.073 3 
0.463 0.102 0.073 3 
0.463 0.154 0.073 3 
0.352 0.045 0.067 3 
0.345 0.037 0.067 3 
0.325 -0.002 0.066 3 
0.348 -0.02 0.067 3 
0.471 -0.075 0.074 3 
0.472 -0.086 0.074 3 
0.47 -0.105 0.074 3 
0.471 -0.127 0.074 3 
0.46 0.293 0.074 3 
0.461 0.232 0.073 3 
0.46 0.243 0.073 3 
0.461 0.253 0.073 3 
0.462 0.224 0.073 3 
0.462 0.213 0.073 3 
0.462 0.204 0.073 3 
0.461 0.262 0.073 3 
0.46 0.274 0.074 3 
0.462 0.193 0.073 3 
0.46 0.283 0.074 3 
0.559 -0.016 0.047 3 
0.582 -0.035 0.091 3 
0.543 -0.022 0.051 3 
0.578 -0.027 0.091 3 
0.583 -0.024 0.091 3 
0.55 -0.019 0.089 3 
0.53 -0.008 0.045 3 
0.589 -0.024 0.099 3 
0.591 -0.028 0.099 3 
0.595 -0.04 0.104 3 
0.584 -0.035 0.095 3 
0.594 -0.036 0.104 3 
0.598 -0.025 0.104 3 
0.522 -0.014 0.055 3 
0.567 -0.023 0.086 3 
0.553 -0.019 0.054 3 
0.553 -0.026 0.054 3 
0.556 -0.012 0.047 3 
0.551 -0.022 0.061 3 
0.547 -0.025 0.061 3 
0.525 -0.014 0.09 3 
0.541 -0.032 0.061 3 
