# .PCD v0.7 - Point Cloud Data file
FIELDS x y z intensity
SIZE 4 4 4 4
TYPE F F F F
COUNT 1 1 1 1
WIDTH 2387
HEIGHT 1
VIEWPOINT 0 0 0 1 0 0 0
POINTS 2387
DATA ascii
0.374 -0.197 -0.024 1 
0.364 -0.117 -0.017 1 
0.363 -0.085 -0.016 1 
0.362 -0.055 -0.015 1 
0.364 -0.036 -0.016 1 
0.362 -0.026 -0.016 1 
0.36 -0.02 -0.015 1 
0.353 -0.006 -0.012 1 
0.335 0.017 -0.005 1 
0.354 0.027 -0.013 1 
0.362 0.064 -0.016 1 
0.359 0.073 -0.015 1 
0.353 0.113 -0.014 1 
0.352 0.123 -0.014 1 
0.351 0.134 -0.014 1 
0.352 0.136 -0.014 1 
0.351 0.164 -0.015 1 
0.348 0.165 -0.014 1 
0.349 0.174 -0.015 1 
0.351 0.184 -0.016 1 
0.383 -0.249 -0.027 1 
0.382 -0.213 -0.025 1 
0.373 -0.187 -0.021 1 
0.373 -0.175 -0.02 1 
0.374 -0.146 -0.02 1 
0.373 -0.136 -0.019 1 
0.374 -0.126 -0.019 1 
0.371 -0.115 -0.018 1 
0.374 -0.105 -0.019 1 
0.352 0.02 -0.01 1 
0.363 0.044 -0.014 1 
0.363 0.046 -0.014 1 
0.364 0.048 -0.015 1 
0.362 0.084 -0.015 1 
0.363 0.093 -0.015 1 
0.364 0.103 -0.016 1 
0.361 0.112 -0.015 1 
0.362 0.124 -0.016 1 
0.359 0.128 -0.015 1 
0.357 0.134 -0.014 1 
0.391 -0.255 -0.028 1 
0.386 -0.227 -0.025 1 
0.384 -0.209 -0.023 1 
0.384 -0.164 -0.022 1 
0.374 -0.095 -0.017 1 
0.374 -0.085 -0.016 1 
0.374 -0.083 -0.016 1 
0.371 -0.056 -0.015 1 
0.374 -0.046 -0.016 1 
0.374 -0.038 -0.016 1 
0.372 -0.025 -0.016 1 
0.358 -0.004 -0.011 1 
0.335 0.017 -0.002 1 
0.361 0.023 -0.012 1 
0.364 0.028 -0.013 1 
0.368 0.036 -0.014 1 
0.368 0.084 -0.015 1 
0.369 0.104 -0.016 1 
0.364 0.145 -0.015 1 
0.363 0.194 -0.017 1 
0.356 0.212 -0.016 1 
0.354 0.212 -0.015 1 
0.355 0.216 -0.016 1 
0.354 0.217 -0.016 1 
0.401 -0.255 -0.029 1 
0.384 -0.195 -0.021 1 
0.384 -0.173 -0.02 1 
0.384 -0.134 -0.019 1 
0.384 -0.116 -0.019 1 
0.381 -0.106 -0.017 1 
0.38 -0.096 -0.017 1 
0.384 -0.087 -0.018 1 
0.382 -0.075 -0.017 1 
0.382 -0.055 -0.017 1 
0.374 -0.018 -0.014 1 
0.375 -0.008 -0.015 1 
0.366 -0.004 -0.012 1 
0.374 0.032 -0.014 1 
0.374 0.049 -0.015 1 
0.374 0.094 -0.015 1 
0.374 0.124 -0.016 1 
0.374 0.134 -0.016 1 
0.369 0.142 -0.015 1 
0.37 0.163 -0.016 1 
0.362 0.226 -0.017 1 
0.394 -0.225 -0.023 1 
0.393 -0.216 -0.022 1 
0.394 -0.209 -0.022 1 
0.393 -0.187 -0.021 1 
0.393 -0.175 -0.021 1 
0.393 -0.166 -0.021 1 
0.391 -0.156 -0.02 1 
0.39 -0.125 -0.019 1 
0.388 -0.116 -0.018 1 
0.389 -0.106 -0.018 1 
0.384 -0.068 -0.016 1 
0.384 -0.046 -0.016 1 
0.384 -0.04 -0.016 1 
0.325 -0.002 0.003 1 
0.324 0.004 0.003 1 
0.325 0.011 0.003 1 
0.324 0.014 0.003 1 
0.384 0.024 -0.016 1 
0.38 0.044 -0.015 1 
0.383 0.053 -0.016 1 
0.382 0.074 -0.016 1 
0.381 0.084 -0.016 1 
0.384 0.103 -0.017 1 
0.381 0.114 -0.016 1 
0.374 0.182 -0.016 1 
0.372 0.214 -0.017 1 
0.369 0.222 -0.017 1 
0.404 -0.278 -0.026 1 
0.401 -0.216 -0.022 1 
0.383 -0.185 -0.02 1 
0.394 -0.149 -0.018 1 
0.394 -0.075 -0.017 1 
0.392 -0.066 -0.016 1 
0.394 -0.06 -0.017 1 
0.391 -0.045 -0.016 1 
0.392 -0.025 -0.016 1 
0.394 -0.005 -0.017 1 
0.329 0.016 0.003 1 
0.384 0.025 -0.014 1 
0.388 0.084 -0.016 1 
0.384 0.124 -0.015 1 
0.38 0.144 -0.015 1 
0.379 0.147 -0.014 1 
0.379 0.154 -0.015 1 
0.381 0.161 -0.016 1 
0.374 0.234 -0.017 1 
0.413 -0.288 -0.027 1 
0.412 -0.275 -0.026 1 
0.412 -0.267 -0.026 1 
0.414 -0.255 -0.026 1 
0.414 -0.247 -0.025 1 
0.411 -0.241 -0.024 1 
0.402 -0.227 -0.021 1 
0.403 -0.207 -0.021 1 
0.402 -0.196 -0.02 1 
0.399 -0.187 -0.019 1 
0.401 -0.145 -0.018 1 
0.401 -0.136 -0.018 1 
0.402 -0.125 -0.018 1 
0.404 -0.12 -0.019 1 
0.4 -0.105 -0.017 1 
0.404 -0.085 -0.018 1 
0.4 -0.075 -0.017 1 
0.401 -0.056 -0.017 1 
0.399 -0.045 -0.016 1 
0.402 -0.035 -0.017 1 
0.399 -0.016 -0.017 1 
0.403 -0.007 -0.018 1 
0.391 0.024 -0.014 1 
0.392 0.033 -0.015 1 
0.394 0.045 -0.015 1 
0.394 0.062 -0.016 1 
0.394 0.072 -0.016 1 
0.394 0.099 -0.016 1 
0.39 0.133 -0.016 1 
0.389 0.143 -0.015 1 
0.385 0.153 -0.015 1 
0.384 0.157 -0.014 1 
0.383 0.203 -0.016 1 
0.378 0.244 -0.017 1 
0.422 -0.298 -0.028 1 
0.419 -0.257 -0.025 1 
0.404 -0.067 -0.016 1 
0.401 0.034 -0.015 1 
0.4 0.082 -0.016 1 
0.399 0.093 -0.015 1 
0.401 0.104 -0.016 1 
0.401 0.113 -0.016 1 
0.397 0.124 -0.015 1 
0.391 0.16 -0.014 1 
0.391 0.162 -0.015 1 
0.39 0.184 -0.015 1 
0.387 0.193 -0.015 1 
0.424 -0.285 -0.025 1 
0.424 -0.265 -0.024 1 
0.424 -0.262 -0.024 1 
0.421 -0.237 -0.022 1 
0.414 -0.226 -0.02 1 
0.362 -0.006 -0.012 1 
0.414 -0.223 -0.02 1 
0.412 -0.195 -0.019 1 
0.414 -0.177 -0.019 1 
0.414 -0.167 -0.018 1 
0.348 0.193 -0.016 1 
0.414 -0.136 -0.018 1 
0.39 -0.246 -0.027 1 
0.414 -0.118 -0.017 1 
0.41 -0.105 -0.016 1 
0.414 -0.097 -0.017 1 
0.411 -0.085 -0.016 1 
0.412 -0.076 -0.016 1 
0.413 -0.065 -0.017 1 
0.411 -0.045 -0.016 1 
0.402 0.134 -0.015 1 
0.353 0.203 -0.016 1 
0.401 0.144 -0.015 1 
0.401 0.153 -0.015 1 
0.398 0.172 -0.015 1 
0.397 0.183 -0.015 1 
0.393 0.194 -0.014 1 
0.394 0.204 -0.015 1 
0.394 0.223 -0.016 1 
0.393 0.242 -0.016 1 
0.43 -0.307 -0.025 1 
0.429 -0.303 -0.025 1 
0.421 -0.227 -0.019 1 
0.419 -0.195 -0.018 1 
0.39 0.212 -0.016 1 
0.42 -0.125 -0.017 1 
0.419 -0.085 -0.016 1 
0.418 -0.076 -0.016 1 
0.42 -0.065 -0.016 1 
0.417 -0.026 -0.016 1 
0.378 -0.026 -0.016 1 
0.419 -0.015 -0.016 1 
0.423 -0.006 -0.017 1 
0.414 0.04 -0.015 1 
0.415 0.043 -0.015 1 
0.414 0.074 -0.015 1 
0.413 0.094 -0.015 1 
0.412 0.102 -0.015 1 
0.412 0.114 -0.015 1 
0.408 0.135 -0.015 1 
0.407 0.152 -0.015 1 
0.404 0.193 -0.015 1 
0.404 0.22 -0.016 1 
0.401 0.23 -0.016 1 
0.402 0.244 -0.017 1 
0.395 0.26 -0.016 1 
0.394 0.262 -0.015 1 
0.432 -0.288 -0.022 1 
0.43 -0.277 -0.021 1 
0.431 -0.255 -0.021 1 
0.43 -0.246 -0.02 1 
0.424 -0.217 -0.018 1 
0.423 -0.156 -0.016 1 
0.424 -0.142 -0.016 1 
0.423 -0.105 -0.015 1 
0.424 -0.101 -0.016 1 
0.421 0.034 -0.015 1 
0.419 -0.175 -0.018 1 
0.419 0.043 -0.014 1 
0.421 0.053 -0.015 1 
0.421 0.064 -0.015 1 
0.419 0.082 -0.015 1 
0.419 0.094 -0.015 1 
0.418 0.103 -0.015 1 
0.414 0.133 -0.014 1 
0.411 0.143 -0.013 1 
0.413 0.151 -0.014 1 
0.415 0.16 -0.015 1 
0.414 0.162 -0.015 1 
0.413 0.163 -0.014 1 
0.38 0.033 -0.015 1 
0.411 0.179 -0.014 1 
0.411 0.182 -0.015 1 
0.412 0.197 -0.015 1 
0.403 0.207 -0.013 1 
0.404 -0.237 -0.024 1 
0.408 0.224 -0.015 1 
0.401 0.269 -0.015 1 
0.434 -0.238 -0.018 1 
0.434 -0.227 -0.018 1 
0.434 -0.206 -0.018 1 
0.433 -0.195 -0.017 1 
0.431 -0.186 -0.016 1 
0.432 -0.176 -0.017 1 
0.428 -0.146 -0.015 1 
0.429 -0.105 -0.015 1 
0.433 -0.085 -0.015 1 
0.433 -0.075 -0.015 1 
0.432 -0.065 -0.015 1 
0.431 -0.058 -0.015 1 
0.402 0.196 -0.015 1 
0.43 -0.053 -0.014 1 
0.431 -0.046 -0.015 1 
0.432 -0.013 -0.015 1 
0.423 0.102 -0.014 1 
0.421 0.123 -0.013 1 
0.42 0.163 -0.014 1 
0.415 0.228 -0.015 1 
0.414 0.232 -0.015 1 
0.415 0.235 -0.015 1 
0.414 0.242 -0.015 1 
0.414 0.264 -0.016 1 
0.41 0.274 -0.015 1 
0.443 -0.296 -0.02 1 
0.441 -0.276 -0.019 1 
0.44 -0.238 -0.017 1 
0.436 -0.166 -0.015 1 
0.437 -0.156 -0.015 1 
0.436 -0.151 -0.015 1 
0.437 -0.136 -0.015 1 
0.437 -0.128 -0.015 1 
0.434 -0.11 -0.014 1 
0.438 -0.084 -0.014 1 
0.439 -0.072 -0.015 1 
0.48 -0.01 -0.026 1 
0.327 0.016 0.014 1 
0.432 0.043 -0.013 1 
0.434 0.053 -0.014 1 
0.433 0.062 -0.013 1 
0.432 0.074 -0.013 1 
0.431 0.084 -0.013 1 
0.414 -0.061 -0.017 1 
0.431 0.093 -0.013 1 
0.424 0.148 -0.012 1 
0.421 0.184 -0.013 1 
0.421 0.194 -0.013 1 
0.415 0.202 -0.012 1 
0.402 0.064 -0.016 1 
0.414 0.211 -0.012 1 
0.419 0.261 -0.015 1 
0.415 0.282 -0.015 1 
0.414 0.284 -0.014 1 
0.45 -0.317 -0.02 1 
0.443 -0.257 -0.016 1 
0.445 -0.242 -0.016 1 
0.439 -0.228 -0.014 1 
0.443 -0.216 -0.015 1 
0.441 -0.201 -0.014 1 
0.443 -0.186 -0.015 1 
0.443 -0.178 -0.014 1 
0.445 -0.177 -0.015 1 
0.445 -0.174 -0.015 1 
0.441 -0.166 -0.014 1 
0.443 -0.157 -0.014 1 
0.444 -0.145 -0.014 1 
0.442 -0.126 -0.013 1 
0.44 -0.117 -0.013 1 
0.442 -0.095 -0.013 1 
0.424 0.084 -0.014 1 
0.444 -0.086 -0.013 1 
0.443 -0.066 -0.013 1 
0.442 -0.055 -0.013 1 
0.42 0.05 -0.014 1 
0.442 -0.026 -0.013 1 
0.439 0.064 -0.013 1 
0.433 0.123 -0.012 1 
0.429 0.144 -0.011 1 
0.43 0.154 -0.012 1 
0.42 0.214 -0.011 1 
0.421 0.222 -0.011 1 
0.422 0.231 -0.012 1 
0.423 0.243 -0.012 1 
0.422 0.253 -0.013 1 
0.424 0.272 -0.014 1 
0.423 0.282 -0.014 1 
0.45 -0.288 -0.016 1 
0.424 0.134 -0.012 1 
0.446 -0.266 -0.014 1 
0.424 0.088 -0.014 1 
0.449 -0.245 -0.015 1 
0.449 -0.185 -0.013 1 
0.451 -0.156 -0.013 1 
0.451 -0.146 -0.013 1 
0.447 -0.115 -0.012 1 
0.449 -0.105 -0.012 1 
0.45 -0.096 -0.013 1 
0.44 -0.206 -0.014 1 
0.451 -0.086 -0.013 1 
0.449 -0.067 -0.012 1 
0.452 -0.037 -0.013 1 
0.443 -0.014 -0.011 1 
0.442 0.032 -0.011 1 
0.444 0.04 -0.011 1 
0.444 0.07 -0.011 1 
0.443 0.082 -0.011 1 
0.441 0.104 -0.011 1 
0.44 0.114 -0.011 1 
0.441 0.122 -0.011 1 
0.439 0.134 -0.011 1 
0.434 0.172 -0.011 1 
0.432 0.184 -0.01 1 
0.431 0.194 -0.01 1 
0.431 0.223 -0.011 1 
0.431 0.234 -0.012 1 
0.429 0.274 -0.012 1 
0.423 0.294 -0.012 1 
0.376 -0.204 -0.025 1 
0.459 -0.317 -0.016 1 
0.456 -0.307 -0.015 1 
0.454 -0.301 -0.015 1 
0.452 -0.296 -0.014 1 
0.453 -0.276 -0.014 1 
0.452 -0.257 -0.013 1 
0.451 -0.247 -0.012 1 
0.452 -0.239 -0.012 1 
0.452 -0.228 -0.012 1 
0.453 -0.215 -0.012 1 
0.453 -0.207 -0.012 1 
0.454 -0.199 -0.012 1 
0.488 -0.016 -0.019 1 
0.452 0.054 -0.011 1 
0.45 0.064 -0.01 1 
0.45 0.074 -0.01 1 
0.449 0.094 -0.01 1 
0.44 0.163 -0.009 1 
0.439 0.173 -0.009 1 
0.434 0.204 -0.009 1 
0.434 0.253 -0.01 1 
0.434 0.282 -0.011 1 
0.463 -0.345 -0.015 1 
0.382 0.182 -0.015 1 
0.461 -0.319 -0.014 1 
0.464 -0.296 -0.014 1 
0.463 -0.197 -0.012 1 
0.461 -0.156 -0.011 1 
0.462 -0.116 -0.01 1 
0.462 -0.075 -0.01 1 
0.384 -0.242 -0.027 1 
0.461 -0.057 -0.01 1 
0.462 -0.036 -0.01 1 
0.482 -0.016 -0.015 1 
0.486 -0.013 -0.016 1 
0.451 0.033 -0.008 1 
0.441 0.142 -0.009 1 
0.454 0.039 -0.008 1 
0.454 0.104 -0.009 1 
0.452 0.114 -0.009 1 
0.451 0.132 -0.009 1 
0.414 0.194 -0.016 1 
0.443 0.183 -0.008 1 
0.442 0.204 -0.008 1 
0.441 0.214 -0.008 1 
0.44 0.244 -0.009 1 
0.432 0.304 -0.009 1 
0.464 -0.264 -0.01 1 
0.464 -0.237 -0.01 1 
0.463 -0.217 -0.009 1 
0.464 -0.175 -0.009 1 
0.454 0.154 -0.007 1 
0.45 0.202 -0.007 1 
0.444 0.274 -0.008 1 
0.444 0.283 -0.008 1 
0.444 0.292 -0.009 1 
0.442 0.302 -0.009 1 
0.473 -0.335 -0.011 1 
0.432 0.133 -0.012 1 
0.444 0.262 -0.008 1 
0.471 -0.326 -0.01 1 
0.364 -0.081 -0.017 1 
0.472 -0.317 -0.01 1 
0.454 -0.045 -0.013 1 
0.471 -0.306 -0.01 1 
0.468 -0.115 -0.006 1 
0.469 -0.105 -0.006 1 
0.47 -0.086 -0.006 1 
0.469 -0.066 -0.006 1 
0.471 -0.252 -0.017 1 
0.468 -0.055 -0.006 1 
0.469 -0.036 -0.006 1 
0.485 -0.01 -0.01 1 
0.381 0.004 0.011 1 
0.375 0.011 0.013 1 
0.372 -0.006 -0.014 1 
0.373 0.013 0.013 1 
0.463 0.043 -0.005 1 
0.464 0.054 -0.005 1 
0.463 0.064 -0.005 1 
0.369 0.024 -0.013 1 
0.462 0.072 -0.005 1 
0.462 0.093 -0.005 1 
0.424 -0.146 -0.016 1 
0.459 0.114 -0.005 1 
0.459 0.124 -0.005 1 
0.455 0.172 -0.005 1 
0.44 -0.031 -0.015 1 
0.455 0.177 -0.005 1 
0.392 0.231 -0.016 1 
0.453 0.182 -0.005 1 
0.454 0.191 -0.005 1 
0.455 0.202 -0.006 1 
0.455 0.205 -0.006 1 
0.454 0.213 -0.006 1 
0.454 0.224 -0.006 1 
0.452 0.234 -0.006 1 
0.451 0.242 -0.006 1 
0.45 0.253 -0.006 1 
0.449 0.264 -0.006 1 
0.448 0.272 -0.006 1 
0.447 0.283 -0.006 1 
0.411 -0.036 -0.016 1 
0.444 0.314 -0.007 1 
0.442 0.315 -0.006 1 
0.473 -0.356 -0.009 1 
0.474 -0.35 -0.009 1 
0.459 0.133 -0.005 1 
0.474 -0.286 -0.007 1 
0.473 -0.275 -0.007 1 
0.474 -0.254 -0.006 1 
0.475 -0.246 -0.006 1 
0.475 -0.24 -0.006 1 
0.474 -0.236 -0.006 1 
0.47 -0.225 -0.005 1 
0.47 -0.216 -0.005 1 
0.472 -0.197 -0.005 1 
0.471 -0.176 -0.005 1 
0.472 -0.148 -0.005 1 
0.412 -0.185 -0.018 1 
0.479 -0.007 -0.006 1 
0.433 -0.035 -0.015 1 
0.388 0.014 0.012 1 
0.464 0.046 -0.003 1 
0.464 0.064 -0.003 1 
0.454 0.242 -0.004 1 
0.454 0.251 -0.004 1 
0.454 0.262 -0.004 1 
0.487 -0.013 -0.025 1 
0.451 0.281 -0.004 1 
0.453 0.274 -0.004 1 
0.452 0.285 -0.004 1 
0.452 0.294 -0.005 1 
0.451 0.302 -0.005 1 
0.449 0.313 -0.005 1 
0.446 0.319 -0.005 1 
0.477 -0.357 -0.007 1 
0.48 -0.346 -0.007 1 
0.48 -0.339 -0.007 1 
0.48 -0.325 -0.006 1 
0.479 -0.317 -0.006 1 
0.477 -0.305 -0.005 1 
0.477 -0.298 -0.005 1 
0.476 -0.291 -0.005 1 
0.474 -0.276 -0.004 1 
0.457 0.013 0 1 
0.464 0.032 0 1 
0.45 0.128 0.001 1 
0.454 0.302 -0.003 1 
0.454 0.312 -0.003 1 
0.465 0.014 0.002 1 
0.465 0.024 0.002 1 
0.466 0.084 0.001 1 
0.465 0.094 0.001 1 
0.465 0.124 0.001 1 
0.465 0.132 0.001 1 
0.465 0.144 0.001 1 
0.465 0.146 0.001 1 
0.453 0.324 0 1 
0.452 0.326 0 1 
0.422 0.114 -0.013 1 
0.414 -0.125 -0.018 1 
0.468 -0.015 0.004 1 
0.466 -0.007 0.004 1 
0.465 -0.001 0.004 1 
0.463 0.014 0.005 1 
0.464 0.024 0.004 1 
0.409 0.131 -0.015 1 
0.465 0.032 0.004 1 
0.463 0.083 0.004 1 
0.463 0.094 0.004 1 
0.462 0.112 0.004 1 
0.463 0.123 0.004 1 
0.462 0.154 0.003 1 
0.462 0.173 0.003 1 
0.462 0.184 0.003 1 
0.462 0.193 0.003 1 
0.462 0.204 0.003 1 
0.46 0.223 0.003 1 
0.461 0.23 0.002 1 
0.46 0.253 0.002 1 
0.481 -0.315 0.002 1 
0.48 -0.308 0.002 1 
0.484 -0.01 -0.015 1 
0.479 -0.297 0.003 1 
0.477 -0.285 0.003 1 
0.476 -0.275 0.003 1 
0.468 -0.026 -0.006 1 
0.465 0.032 0.007 1 
0.469 -0.045 -0.006 1 
0.46 0.274 0.004 1 
0.459 0.291 0.004 1 
0.458 0.303 0.004 1 
0.458 0.313 0.004 1 
0.456 0.324 0.004 1 
0.482 -0.33 0.004 1 
0.431 0.294 -0.011 1 
0.402 -0.157 -0.019 1 
0.464 -0.025 -0.008 1 
0.461 -0.046 -0.01 1 
0.462 -0.065 -0.01 1 
0.368 0.018 0.014 1 
0.411 0.204 -0.013 1 
0.383 -0.146 -0.019 1 
0.463 -0.086 -0.01 1 
0.462 -0.127 -0.01 1 
0.394 0.041 -0.015 1 
0.393 -0.095 -0.017 1 
0.462 -0.146 -0.011 1 
0.465 0.102 0.001 1 
0.464 -0.166 -0.009 1 
0.462 -0.185 -0.011 1 
0.463 -0.225 -0.009 1 
0.456 -0.245 -0.011 1 
0.461 -0.286 -0.013 1 
0.44 0.253 -0.009 1 
0.46 -0.308 -0.013 1 
0.374 0.239 -0.017 1 
0.432 -0.136 -0.016 1 
0.373 0.113 -0.015 1 
0.434 -0.217 -0.018 1 
0.391 0.174 -0.015 1 
0.428 0.104 -0.013 1 
0.443 -0.266 -0.016 1 
0.443 0.092 -0.011 1 
0.444 -0.32 -0.021 1 
0.451 0.142 -0.009 1 
0.402 0.204 -0.013 1 
0.454 -0.139 -0.011 1 
0.457 0.034 -0.006 1 
0.443 -0.246 -0.016 1 
0.459 0.143 -0.005 1 
0.433 -0.127 -0.016 1 
0.391 -0.015 -0.016 1 
0.454 -0.022 -0.011 1 
0.358 0.114 -0.014 1 
0.385 0.018 0.012 1 
0.463 0.243 0.002 1 
0.464 -0.209 -0.009 1 
0.371 0.072 -0.016 1 
0.441 0.153 -0.009 1 
0.444 -0.184 -0.015 1 
0.476 -0.284 -0.007 1 
0.364 0.139 -0.015 1 
0.39 0.028 -0.014 1 
0.392 -0.197 -0.021 1 
0.414 0.058 -0.015 1 
0.428 0.114 -0.013 1 
0.463 -0.327 -0.015 1 
0.352 -0.004 -0.01 1 
0.444 -0.051 -0.013 1 
0.39 -0.136 -0.019 1 
0.441 -0.212 -0.015 1 
0.374 -0.066 -0.016 1 
0.358 0.204 -0.016 1 
0.439 0.054 -0.012 1 
0.447 -0.276 -0.015 1 
0.424 -0.043 -0.015 1 
0.444 -0.195 -0.015 1 
0.378 0.092 -0.015 1 
0.408 0.277 -0.015 1 
0.458 0.154 -0.005 1 
0.402 0.213 -0.015 1 
0.455 0.329 0.004 1 
0.374 0.204 -0.017 1 
0.399 0.163 -0.015 1 
0.464 0.043 -0.003 1 
0.374 0.148 -0.015 1 
0.379 0.232 -0.016 1 
0.403 -0.246 -0.027 1 
0.432 -0.156 -0.016 1 
0.382 -0.02 -0.015 1 
0.388 0.124 -0.015 1 
0.464 0.003 0.004 1 
0.414 0.224 -0.014 1 
0.432 -0.166 -0.016 1 
0.411 0.123 -0.015 1 
0.415 -0.251 -0.026 1 
0.479 0.247 0 1 
0.412 0.251 -0.015 1 
0.43 -0.265 -0.021 1 
0.424 -0.246 -0.023 1 
0.449 0.084 -0.01 1 
0.413 -0.147 -0.018 1 
0.401 -0.165 -0.019 1 
0.454 -0.126 -0.011 1 
0.471 -0.296 -0.01 1 
0.354 0.14 -0.015 1 
0.382 0.191 -0.015 1 
0.424 -0.047 -0.015 1 
0.411 -0.016 -0.016 1 
0.372 0.063 -0.016 1 
0.424 -0.166 -0.017 1 
0.44 -0.075 -0.015 1 
0.469 -0.127 -0.007 1 
0.392 0.254 -0.017 1 
0.463 -0.02 -0.01 1 
0.464 -0.335 -0.015 1 
0.366 0.087 -0.014 1 
0.432 0.163 -0.012 1 
0.422 0.172 -0.013 1 
0.357 0.163 -0.015 1 
0.409 0.173 -0.014 1 
0.42 -0.267 -0.026 1 
0.394 0.114 -0.016 1 
0.463 0.104 0.004 1 
0.409 0.033 -0.016 1 
0.472 -0.205 -0.005 1 
0.389 -0.237 -0.026 1 
0.36 0.172 -0.015 1 
0.464 -0.267 -0.01 1 
0.402 0.053 -0.016 1 
0.393 -0.038 -0.017 1 
0.448 -0.027 -0.012 1 
0.401 0.074 -0.016 1 
0.419 0.258 -0.014 1 
0.423 0.143 -0.012 1 
0.443 -0.287 -0.02 1 
0.43 -0.295 -0.022 1 
0.4 -0.176 -0.019 1 
0.412 0.084 -0.015 1 
0.449 -0.287 -0.013 1 
0.401 0.042 -0.015 1 
0.441 -0.016 -0.013 1 
0.461 -0.105 -0.01 1 
0.412 -0.156 -0.018 1 
0.384 -0.175 -0.02 1 
0.463 0.264 0.001 1 
0.472 -0.156 -0.005 1 
0.382 -0.225 -0.025 1 
0.404 -0.104 -0.016 1 
0.443 -0.136 -0.014 1 
0.452 -0.075 -0.013 1 
0.406 -0.236 -0.025 1 
0.431 -0.015 -0.015 1 
0.384 0.128 -0.016 1 
0.461 0.164 0.004 1 
0.434 0.264 -0.011 1 
0.448 -0.057 -0.012 1 
0.421 -0.186 -0.019 1 
0.45 -0.175 -0.013 1 
0.361 -0.015 -0.013 1 
0.413 -0.208 -0.019 1 
0.433 0.034 -0.013 1 
0.403 -0.268 -0.028 1 
0.364 0.184 -0.017 1 
0.404 0.167 -0.014 1 
0.406 0.173 -0.015 1 
0.444 -0.31 -0.024 1 
0.43 -0.055 -0.014 1 
0.463 0.134 0.004 1 
0.382 -0.215 -0.025 1 
0.374 -0.155 -0.02 1 
0.381 0.223 -0.016 1 
0.418 0.274 -0.015 1 
0.471 -0.187 -0.005 1 
0.448 -0.271 -0.015 1 
0.373 0.173 -0.016 1 
0.374 0.043 -0.015 1 
0.393 0.093 -0.016 1 
0.464 0.143 0.003 1 
0.364 -0.045 -0.016 1 
0.432 -0.025 -0.015 1 
0.443 0.194 -0.008 1 
0.473 -0.266 -0.006 1 
0.397 0.254 -0.016 1 
0.46 0.283 0.004 1 
0.472 -0.142 -0.005 1 
0.356 0.135 -0.014 1 
0.441 -0.036 -0.015 1 
0.394 -0.094 -0.017 1 
0.421 -0.116 -0.017 1 
0.474 -0.257 -0.006 1 
0.384 -0.227 -0.024 1 
0.462 -0.097 -0.01 1 
0.42 0.073 -0.015 1 
0.461 0.082 -0.005 1 
0.43 0.211 -0.008 1 
0.384 0.207 -0.016 1 
0.42 0.032 -0.014 1 
0.424 -0.277 -0.025 1 
0.442 0.221 -0.009 1 
0.38 0.064 -0.015 1 
0.444 -0.227 -0.015 1 
0.454 -0.166 -0.012 1 
0.475 -0.015 -0.005 1 
0.373 0.194 -0.017 1 
0.471 -0.167 -0.005 1 
0.451 0.172 -0.007 1 
0.4 -0.026 -0.017 1 
0.383 0.174 -0.015 1 
0.456 0.164 -0.005 1 
0.462 -0.278 -0.013 1 
0.412 -0.025 -0.016 1 
0.418 -0.055 -0.016 1 
0.396 0.004 0.01 1 
0.442 -0.105 -0.013 1 
0.455 0.194 -0.006 1 
0.461 0.212 0.003 1 
0.43 0.244 -0.012 1 
0.469 -0.096 -0.006 1 
0.451 0.124 -0.009 1 
0.371 -0.165 -0.019 1 
0.47 -0.075 -0.006 1 
0.443 0.233 -0.009 1 
0.432 -0.097 -0.015 1 
0.461 0.104 -0.005 1 
0.453 -0.327 -0.018 1 
0.384 -0.136 -0.019 1 
0.43 -0.115 -0.015 1 
0.471 -0.018 -0.007 1 
0.37 -0.019 -0.015 1 
0.453 0.163 -0.007 1 
0.462 -0.135 -0.01 1 
0.412 -0.01 -0.016 1 
0.417 -0.206 -0.018 1 
0.454 -0.305 -0.018 1 
0.409 0.053 -0.016 1 
0.324 0.013 0.008 2 
0.324 0.007 0.011 2 
0.324 0.004 0.007 2 
0.33 0.015 0.017 2 
0.33 0.013 0.017 2 
0.326 0.014 0.011 2 
0.325 0.004 0.009 2 
0.331 0.004 0.017 2 
0.488 -0.328 0.162 3 
0.463 0.314 0.154 3 
0.463 0.301 0.153 3 
0.464 0.147 0.13 3 
0.463 0.291 0.153 3 
0.475 -0.16 0.072 3 
0.464 0.283 0.153 3 
0.464 0.273 0.153 3 
0.462 0.262 0.152 3 
0.463 0.154 0.033 3 
0.465 0.205 0.151 3 
0.465 0.196 0.151 3 
0.475 -0.076 0.152 3 
0.476 -0.087 0.153 3 
0.475 -0.096 0.152 3 
0.476 -0.107 0.153 3 
0.476 -0.116 0.153 3 
0.477 -0.125 0.153 3 
0.477 -0.136 0.153 3 
0.478 -0.145 0.154 3 
0.478 -0.157 0.154 3 
0.478 -0.166 0.154 3 
0.484 -0.297 0.159 3 
0.467 0.074 0.152 3 
0.474 -0.065 0.154 3 
0.465 0.19 0.142 3 
0.468 0.063 0.153 3 
0.469 0.052 0.153 3 
0.468 0.044 0.153 3 
0.469 0.033 0.153 3 
0.469 0.022 0.153 3 
0.469 0.014 0.153 3 
0.469 -0.007 0.153 3 
0.471 -0.015 0.153 3 
0.472 -0.026 0.154 3 
0.474 -0.056 0.154 3 
0.456 0.331 0.062 3 
0.463 0.324 0.154 3 
0.484 -0.277 0.162 3 
0.462 0.296 0.144 3 
0.485 -0.281 0.162 3 
0.484 -0.287 0.162 3 
0.485 -0.298 0.163 3 
0.48 -0.307 0.014 3 
0.488 -0.317 0.164 3 
0.462 0.337 0.154 3 
0.478 -0.185 0.123 3 
0.462 0.333 0.154 3 
0.462 0.233 0.063 3 
0.486 -0.298 0.154 3 
0.467 0.063 0.144 3 
0.467 0.052 0.144 3 
0.468 0.044 0.144 3 
0.467 0.033 0.144 3 
0.474 -0.145 0.072 3 
0.468 0.022 0.144 3 
0.468 0.003 0.144 3 
0.482 -0.256 0.152 3 
0.483 -0.266 0.152 3 
0.483 -0.276 0.152 3 
0.484 -0.286 0.153 3 
0.485 -0.294 0.154 3 
0.467 0.074 0.144 3 
0.486 -0.305 0.154 3 
0.462 0.293 0.144 3 
0.463 0.282 0.144 3 
0.464 0.273 0.144 3 
0.462 0.262 0.143 3 
0.462 0.244 0.143 3 
0.462 0.232 0.142 3 
0.462 0.223 0.142 3 
0.462 0.214 0.142 3 
0.464 0.193 0.142 3 
0.471 0.034 0.162 3 
0.488 -0.346 0.159 3 
0.468 -0.015 0.103 3 
0.474 -0.076 0.149 3 
0.474 -0.09 0.149 3 
0.474 -0.095 0.149 3 
0.478 -0.177 0.152 3 
0.478 -0.186 0.152 3 
0.478 -0.195 0.152 3 
0.463 0.174 0.114 3 
0.479 -0.207 0.152 3 
0.48 -0.226 0.153 3 
0.482 -0.237 0.154 3 
0.488 -0.335 0.162 3 
0.464 0.181 0.144 3 
0.464 0.172 0.144 3 
0.464 0.164 0.144 3 
0.465 0.161 0.144 3 
0.466 0.142 0.144 3 
0.466 0.134 0.144 3 
0.466 0.123 0.144 3 
0.466 0.104 0.144 3 
0.467 0.093 0.144 3 
0.467 0.082 0.144 3 
0.463 0.162 0.063 3 
0.476 -0.196 0.052 3 
0.479 -0.246 0.113 3 
0.484 -0.245 0.17 3 
0.485 -0.271 0.171 3 
0.485 -0.285 0.171 3 
0.486 -0.295 0.172 3 
0.487 -0.307 0.173 3 
0.46 0.274 0.082 3 
0.49 -0.316 0.174 3 
0.49 -0.345 0.176 3 
0.462 0.341 0.163 3 
0.464 0.333 0.164 3 
0.461 0.272 0.104 3 
0.465 0.114 0.144 3 
0.465 0.33 0.164 3 
0.459 0.332 0.122 3 
0.465 0.324 0.163 3 
0.465 0.313 0.163 3 
0.465 0.303 0.163 3 
0.464 0.274 0.161 3 
0.465 0.205 0.159 3 
0.474 -0.045 0.16 3 
0.474 -0.056 0.16 3 
0.474 -0.065 0.16 3 
0.462 0.292 0.113 3 
0.475 -0.045 0.163 3 
0.462 0.112 0.012 3 
0.482 -0.326 0.082 3 
0.471 0.023 0.162 3 
0.478 -0.125 0.162 3 
0.471 0.014 0.162 3 
0.471 0.003 0.162 3 
0.472 -0.007 0.162 3 
0.472 -0.015 0.162 3 
0.474 -0.026 0.163 3 
0.474 -0.037 0.163 3 
0.486 -0.318 0.124 3 
0.475 -0.043 0.163 3 
0.478 -0.137 0.162 3 
0.475 -0.057 0.163 3 
0.475 -0.065 0.163 3 
0.467 0.043 0.092 3 
0.476 -0.076 0.164 3 
0.472 -0.086 0.104 3 
0.461 0.232 0.043 3 
0.475 -0.225 0.024 3 
0.477 -0.085 0.164 3 
0.477 -0.096 0.164 3 
0.462 0.162 0.092 3 
0.477 -0.105 0.164 3 
0.464 0.164 0.152 3 
0.463 0.254 0.154 3 
0.475 -0.146 0.122 3 
0.463 0.242 0.154 3 
0.463 0.233 0.154 3 
0.462 0.223 0.153 3 
0.463 0.212 0.153 3 
0.476 -0.167 0.134 3 
0.461 0.274 0.062 3 
0.465 0.194 0.154 3 
0.464 0.19 0.153 3 
0.464 0.184 0.153 3 
0.464 0.172 0.153 3 
0.464 0.132 0.073 3 
0.465 0.162 0.153 3 
0.466 0.154 0.153 3 
0.466 0.142 0.153 3 
0.465 0.119 0.057 3 
0.467 0.134 0.153 3 
0.467 0.123 0.153 3 
0.466 0.033 0.063 3 
0.468 0.113 0.153 3 
0.467 0.104 0.153 3 
0.468 0.093 0.153 3 
0.482 -0.265 0.143 3 
0.463 0.301 0.159 3 
0.474 -0.145 0.083 3 
0.478 -0.145 0.163 3 
0.479 -0.155 0.163 3 
0.48 -0.167 0.164 3 
0.479 -0.175 0.163 3 
0.48 -0.185 0.164 3 
0.484 -0.287 0.168 3 
0.484 -0.297 0.168 3 
0.489 -0.326 0.171 3 
0.489 -0.336 0.172 3 
0.464 0.322 0.16 3 
0.467 0.082 0.152 3 
0.464 0.187 0.156 3 
0.479 -0.196 0.161 3 
0.465 0.111 0.049 3 
0.48 -0.206 0.162 3 
0.48 -0.215 0.162 3 
0.482 -0.225 0.162 3 
0.482 -0.237 0.163 3 
0.482 -0.246 0.163 3 
0.482 -0.256 0.163 3 
0.482 -0.265 0.164 3 
0.464 0.312 0.157 3 
0.488 -0.337 0.134 3 
0.48 -0.247 0.133 3 
0.481 -0.267 0.134 3 
0.484 -0.349 0.064 3 
0.474 -0.165 0.044 3 
0.482 -0.278 0.134 3 
0.483 -0.305 0.135 3 
0.464 0.114 0.125 3 
0.483 -0.288 0.132 3 
0.483 -0.295 0.132 3 
0.483 -0.305 0.132 3 
0.487 -0.319 0.134 3 
0.488 -0.327 0.134 3 
0.48 -0.235 0.133 3 
0.462 0.302 0.124 3 
0.462 0.293 0.124 3 
0.462 0.283 0.124 3 
0.463 0.272 0.124 3 
0.462 0.261 0.124 3 
0.461 0.243 0.123 3 
0.461 0.234 0.123 3 
0.461 0.222 0.123 3 
0.464 0.203 0.123 3 
0.464 0.194 0.123 3 
0.464 0.183 0.123 3 
0.476 -0.147 0.134 3 
0.462 0.283 0.132 3 
0.462 0.262 0.132 3 
0.465 0.094 0.033 3 
0.464 0.155 0.13 3 
0.472 -0.067 0.132 3 
0.472 -0.075 0.132 3 
0.474 -0.095 0.132 3 
0.474 -0.115 0.133 3 
0.475 -0.124 0.133 3 
0.47 -0.086 0.044 3 
0.475 -0.127 0.133 3 
0.476 -0.135 0.133 3 
0.463 0.174 0.122 3 
0.475 -0.155 0.133 3 
0.477 -0.177 0.134 3 
0.477 -0.185 0.134 3 
0.464 0.07 0.127 3 
0.479 -0.195 0.132 3 
0.479 -0.207 0.132 3 
0.467 0.014 0.092 3 
0.476 -0.207 0.052 3 
0.479 -0.216 0.132 3 
0.465 0.084 0.063 3 
0.479 -0.225 0.133 3 
0.464 0.103 0.119 3 
0.471 -0.045 0.123 3 
0.472 -0.056 0.123 3 
0.473 -0.075 0.124 3 
0.474 -0.087 0.124 3 
0.473 -0.095 0.124 3 
0.48 -0.285 0.093 3 
0.474 -0.106 0.124 3 
0.475 -0.112 0.125 3 
0.487 -0.347 0.131 3 
0.459 0.335 0.122 3 
0.461 0.324 0.122 3 
0.461 0.314 0.122 3 
0.469 -0.036 0.123 3 
0.475 -0.115 0.122 3 
0.475 -0.126 0.122 3 
0.475 -0.135 0.122 3 
0.475 -0.155 0.122 3 
0.476 -0.167 0.123 3 
0.478 -0.176 0.123 3 
0.478 -0.206 0.103 3 
0.479 -0.198 0.123 3 
0.479 -0.207 0.124 3 
0.478 -0.215 0.124 3 
0.477 0.362 0.2 3 
0.466 0.054 0.122 3 
0.463 0.163 0.122 3 
0.463 0.143 0.122 3 
0.469 -0.066 0.023 3 
0.464 0.133 0.122 3 
0.464 0.124 0.122 3 
0.465 0.117 0.122 3 
0.465 0.114 0.122 3 
0.465 0.103 0.122 3 
0.465 0.092 0.122 3 
0.465 0.073 0.122 3 
0.465 0.062 0.122 3 
0.461 0.292 0.132 3 
0.467 0.044 0.122 3 
0.467 0.033 0.122 3 
0.467 0.022 0.122 3 
0.471 -0.155 0.014 3 
0.467 0.014 0.122 3 
0.467 0.003 0.122 3 
0.486 -0.335 0.122 3 
0.469 -0.077 0.012 3 
0.468 -0.007 0.122 3 
0.469 -0.015 0.123 3 
0.469 -0.025 0.123 3 
0.481 -0.245 0.142 3 
0.462 0.223 0.134 3 
0.477 -0.156 0.142 3 
0.477 -0.165 0.143 3 
0.477 -0.177 0.143 3 
0.477 -0.185 0.143 3 
0.478 -0.195 0.143 3 
0.479 -0.207 0.144 3 
0.479 -0.216 0.144 3 
0.479 -0.225 0.144 3 
0.465 0.167 0.136 3 
0.474 -0.115 0.138 3 
0.481 -0.236 0.142 3 
0.477 -0.145 0.142 3 
0.481 -0.255 0.142 3 
0.482 -0.275 0.143 3 
0.482 -0.288 0.144 3 
0.473 -0.206 0.013 3 
0.484 -0.296 0.144 3 
0.463 0.202 0.093 3 
0.462 0.25 0.134 3 
0.479 -0.307 0.084 3 
0.462 0.244 0.134 3 
0.462 0.252 0.123 3 
0.468 0.014 0.063 3 
0.475 -0.115 0.144 3 
0.465 0.153 0.142 3 
0.47 -0.007 0.142 3 
0.47 -0.015 0.142 3 
0.47 -0.026 0.142 3 
0.472 -0.056 0.143 3 
0.472 -0.067 0.143 3 
0.466 0.022 0.103 3 
0.473 -0.075 0.143 3 
0.474 -0.087 0.144 3 
0.474 -0.106 0.144 3 
0.475 -0.11 0.144 3 
0.461 0.234 0.134 3 
0.488 -0.317 0.152 3 
0.487 -0.326 0.152 3 
0.488 -0.335 0.153 3 
0.487 -0.348 0.153 3 
0.474 -0.087 0.132 3 
0.461 0.332 0.142 3 
0.462 0.323 0.142 3 
0.462 0.313 0.142 3 
0.479 -0.296 0.014 3 
0.475 -0.127 0.141 3 
0.476 -0.136 0.142 3 
0.472 -0.056 0.134 3 
0.465 0.062 0.133 3 
0.466 0.054 0.133 3 
0.468 0.044 0.133 3 
0.468 0.033 0.133 3 
0.468 0.022 0.133 3 
0.468 0.014 0.133 3 
0.469 0.003 0.133 3 
0.469 -0.007 0.133 3 
0.469 -0.015 0.133 3 
0.47 -0.026 0.134 3 
0.471 -0.037 0.134 3 
0.472 -0.045 0.134 3 
0.465 0.073 0.133 3 
0.485 -0.3 0.142 3 
0.485 -0.307 0.142 3 
0.487 -0.319 0.143 3 
0.487 -0.326 0.143 3 
0.488 -0.345 0.144 3 
0.458 0.335 0.133 3 
0.459 0.332 0.133 3 
0.461 0.324 0.133 3 
0.471 -0.105 0.003 3 
0.461 0.314 0.133 3 
0.462 0.302 0.133 3 
0.465 0.144 0.133 3 
0.462 0.214 0.134 3 
0.463 0.203 0.134 3 
0.465 0.198 0.134 3 
0.475 -0.155 0.114 3 
0.464 0.192 0.134 3 
0.473 -0.145 0.052 3 
0.464 0.183 0.134 3 
0.464 0.172 0.133 3 
0.465 0.17 0.134 3 
0.465 0.164 0.134 3 
0.465 0.153 0.133 3 
0.476 -0.225 0.084 3 
0.465 0.133 0.133 3 
0.464 0.127 0.133 3 
0.465 0.064 0.063 3 
0.465 0.122 0.133 3 
0.464 0.116 0.133 3 
0.47 -0.096 0.014 3 
0.465 0.114 0.133 3 
0.465 0.103 0.133 3 
0.466 0.092 0.133 3 
0.466 0.084 0.133 3 
0.467 -0.007 0.084 3 
0.468 0.223 0.184 3 
0.486 -0.217 0.194 3 
0.487 -0.227 0.194 3 
0.486 -0.235 0.194 3 
0.495 -0.323 0.202 3 
0.495 -0.326 0.202 3 
0.494 -0.329 0.202 3 
0.495 -0.337 0.202 3 
0.465 0.26 0.184 3 
0.466 0.252 0.184 3 
0.467 0.243 0.184 3 
0.487 -0.31 0.164 3 
0.467 0.234 0.184 3 
0.488 -0.205 0.194 3 
0.464 0.081 0.074 3 
0.467 0.213 0.183 3 
0.462 0.214 0.123 3 
0.467 0.204 0.183 3 
0.465 0.043 0.103 3 
0.467 0.193 0.182 3 
0.467 0.184 0.182 3 
0.468 0.173 0.182 3 
0.469 0.162 0.182 3 
0.468 0.153 0.182 3 
0.464 0.204 0.142 3 
0.474 0.045 0.185 3 
0.49 -0.297 0.201 3 
0.473 -0.176 0.052 3 
0.491 -0.308 0.202 3 
0.493 -0.317 0.204 3 
0.495 -0.326 0.205 3 
0.474 0.358 0.196 3 
0.469 0.349 0.193 3 
0.471 0.344 0.194 3 
0.469 0.334 0.192 3 
0.474 -0.145 0.088 3 
0.474 0.084 0.186 3 
0.474 0.062 0.185 3 
0.47 0.142 0.182 3 
0.484 -0.137 0.191 3 
0.484 -0.315 0.103 3 
0.484 -0.146 0.191 3 
0.484 -0.155 0.191 3 
0.465 0.342 0.182 3 
0.484 -0.167 0.191 3 
0.47 -0.066 0.074 3 
0.485 -0.173 0.192 3 
0.486 -0.177 0.192 3 
0.487 -0.186 0.193 3 
0.487 -0.196 0.193 3 
0.467 0.303 0.184 3 
0.479 -0.046 0.184 3 
0.478 -0.057 0.184 3 
0.484 -0.175 0.189 3 
0.487 -0.246 0.192 3 
0.489 -0.256 0.193 3 
0.49 -0.267 0.194 3 
0.489 -0.276 0.194 3 
0.488 -0.285 0.194 3 
0.494 -0.336 0.199 3 
0.467 0.317 0.184 3 
0.467 0.313 0.184 3 
0.461 0.294 0.093 3 
0.478 -0.035 0.184 3 
0.468 0.294 0.184 3 
0.467 0.284 0.183 3 
0.467 0.274 0.182 3 
0.474 0.042 0.18 3 
0.469 0.113 0.164 3 
0.48 -0.317 0.014 3 
0.474 0.034 0.18 3 
0.478 -0.066 0.181 3 
0.479 -0.077 0.182 3 
0.467 0.003 0.092 3 
0.476 -0.207 0.072 3 
0.473 0.073 0.182 3 
0.475 -0.207 0.024 3 
0.47 0.134 0.182 3 
0.48 -0.276 0.122 3 
0.472 0.123 0.182 3 
0.474 -0.106 0.133 3 
0.473 0.112 0.183 3 
0.472 0.103 0.182 3 
0.473 0.092 0.182 3 
0.468 -0.036 0.004 3 
0.474 0.084 0.183 3 
0.466 0.043 0.074 3 
0.49 -0.287 0.201 3 
0.473 0.064 0.182 3 
0.474 0.054 0.183 3 
0.475 0.043 0.183 3 
0.475 0.034 0.183 3 
0.476 0.023 0.183 3 
0.464 0.075 0.082 3 
0.476 0.012 0.183 3 
0.476 0.004 0.183 3 
0.477 -0.007 0.184 3 
0.478 -0.015 0.184 3 
0.477 -0.026 0.184 3 
0.473 0.104 0.188 3 
0.47 0.174 0.189 3 
0.471 0.163 0.189 3 
0.475 -0.213 0.002 3 
0.47 0.154 0.188 3 
0.466 0.084 0.122 3 
0.46 0.284 0.093 3 
0.471 0.143 0.188 3 
0.472 0.132 0.188 3 
0.473 0.124 0.189 3 
0.474 0.073 0.186 3 
0.473 0.112 0.188 3 
0.466 0.282 0.174 3 
0.47 0.183 0.189 3 
0.474 0.093 0.189 3 
0.475 0.087 0.189 3 
0.475 0.082 0.189 3 
0.475 0.073 0.189 3 
0.476 0.062 0.189 3 
0.477 0.054 0.189 3 
0.472 -0.045 0.143 3 
0.476 0.043 0.189 3 
0.477 0.034 0.189 3 
0.478 0.023 0.19 3 
0.463 0.154 0.122 3 
0.469 0.283 0.192 3 
0.483 -0.295 0.123 3 
0.472 0.349 0.198 3 
0.463 0.143 0.084 3 
0.471 0.344 0.197 3 
0.471 0.333 0.196 3 
0.472 0.323 0.196 3 
0.47 0.317 0.194 3 
0.47 0.31 0.194 3 
0.47 0.304 0.194 3 
0.463 0.182 0.114 3 
0.47 0.294 0.193 3 
0.462 0.184 0.054 3 
0.47 0.274 0.192 3 
0.469 0.264 0.191 3 
0.468 0.254 0.191 3 
0.469 0.242 0.19 3 
0.469 0.233 0.19 3 
0.469 0.224 0.19 3 
0.472 -0.037 0.143 3 
0.469 0.212 0.189 3 
0.48 -0.297 0.023 3 
0.469 0.203 0.189 3 
0.47 0.192 0.189 3 
0.488 -0.196 0.197 3 
0.485 -0.125 0.194 3 
0.484 -0.128 0.193 3 
0.472 -0.037 0.154 3 
0.486 -0.135 0.194 3 
0.486 -0.141 0.195 3 
0.486 -0.147 0.195 3 
0.485 -0.152 0.194 3 
0.486 -0.156 0.195 3 
0.475 -0.195 0.033 3 
0.485 -0.167 0.195 3 
0.486 -0.177 0.195 3 
0.488 -0.187 0.197 3 
0.484 -0.116 0.193 3 
0.471 -0.075 0.052 3 
0.488 -0.206 0.197 3 
0.488 -0.215 0.197 3 
0.489 -0.225 0.198 3 
0.467 0.003 0.052 3 
0.478 -0.245 0.004 3 
0.488 -0.237 0.198 3 
0.488 -0.247 0.199 3 
0.455 0.329 0.012 3 
0.49 -0.267 0.2 3 
0.491 -0.278 0.201 3 
0.481 -0.047 0.191 3 
0.479 0.012 0.19 3 
0.466 0.043 0.052 3 
0.479 0.004 0.19 3 
0.479 -0.007 0.19 3 
0.485 -0.35 0.052 3 
0.478 -0.015 0.19 3 
0.477 -0.205 0.064 3 
0.478 -0.026 0.19 3 
0.48 -0.257 0.133 3 
0.48 -0.035 0.191 3 
0.49 -0.257 0.199 3 
0.48 -0.086 0.182 3 
0.481 -0.055 0.191 3 
0.483 -0.067 0.192 3 
0.471 -0.125 0.014 3 
0.484 -0.076 0.193 3 
0.473 -0.045 0.154 3 
0.485 -0.082 0.193 3 
0.485 -0.085 0.193 3 
0.484 -0.09 0.193 3 
0.485 -0.096 0.193 3 
0.484 -0.099 0.193 3 
0.484 -0.105 0.193 3 
0.471 -0.097 0.052 3 
0.464 0.32 0.172 3 
0.464 0.234 0.168 3 
0.464 0.214 0.168 3 
0.473 -0.007 0.168 3 
0.474 -0.015 0.168 3 
0.474 -0.026 0.169 3 
0.461 0.104 0.012 3 
0.48 -0.135 0.172 3 
0.462 0.273 0.113 3 
0.479 -0.146 0.171 3 
0.48 -0.155 0.172 3 
0.48 -0.167 0.172 3 
0.465 0.324 0.172 3 
0.481 -0.176 0.173 3 
0.482 -0.186 0.173 3 
0.47 -0.091 0.014 3 
0.482 -0.195 0.174 3 
0.483 -0.205 0.174 3 
0.465 0.114 0.063 3 
0.484 -0.209 0.175 3 
0.484 -0.236 0.175 3 
0.484 -0.255 0.176 3 
0.491 -0.335 0.182 3 
0.464 0.303 0.168 3 
0.489 -0.339 0.144 3 
0.475 -0.015 0.172 3 
0.475 -0.026 0.172 3 
0.477 -0.037 0.172 3 
0.477 -0.046 0.172 3 
0.476 -0.057 0.172 3 
0.477 -0.065 0.172 3 
0.478 -0.077 0.173 3 
0.478 -0.085 0.173 3 
0.479 -0.097 0.173 3 
0.48 -0.106 0.174 3 
0.48 -0.115 0.174 3 
0.464 0.202 0.165 3 
0.48 -0.126 0.174 3 
0.483 -0.196 0.177 3 
0.468 0.014 0.142 3 
0.488 -0.298 0.182 3 
0.488 -0.308 0.183 3 
0.488 -0.315 0.183 3 
0.491 -0.325 0.184 3 
0.479 -0.297 0.064 3 
0.46 0.243 0.054 3 
0.463 0.343 0.173 3 
0.465 0.334 0.173 3 
0.464 0.252 0.163 3 
0.484 -0.255 0.173 3 
0.484 -0.267 0.173 3 
0.464 0.1 0.084 3 
0.486 -0.276 0.174 3 
0.484 -0.281 0.174 3 
0.462 0.334 0.166 3 
0.464 0.293 0.165 3 
0.463 0.286 0.164 3 
0.464 0.283 0.164 3 
0.465 0.278 0.164 3 
0.466 0.269 0.164 3 
0.464 0.261 0.164 3 
0.485 -0.246 0.173 3 
0.464 0.243 0.163 3 
0.463 0.233 0.162 3 
0.463 0.224 0.162 3 
0.464 0.213 0.162 3 
0.465 0.084 0.114 3 
0.48 -0.317 0.043 3 
0.464 0.202 0.162 3 
0.468 -0.045 0.004 3 
0.465 0.2 0.162 3 
0.465 0.194 0.162 3 
0.464 0.182 0.161 3 
0.468 0.124 0.164 3 
0.46 0.282 0.043 3 
0.465 0.179 0.164 3 
0.474 -0.115 0.124 3 
0.465 0.174 0.164 3 
0.464 0.17 0.164 3 
0.466 0.162 0.164 3 
0.47 -0.036 0.104 3 
0.466 0.154 0.164 3 
0.486 -0.314 0.133 3 
0.467 0.143 0.164 3 
0.468 0.132 0.164 3 
0.464 0.182 0.17 3 
0.469 0.102 0.164 3 
0.469 0.094 0.164 3 
0.469 0.083 0.164 3 
0.469 0.074 0.164 3 
0.47 0.064 0.164 3 
0.483 -0.217 0.172 3 
0.479 -0.216 0.153 3 
0.483 -0.226 0.172 3 
0.464 0.062 0.092 3 
0.476 -0.235 0.012 3 
0.484 -0.236 0.172 3 
0.465 0.054 0.004 3 
0.473 0.023 0.176 3 
0.474 0.012 0.177 3 
0.461 0.303 0.082 3 
0.474 0.003 0.177 3 
0.482 -0.177 0.182 3 
0.483 -0.187 0.183 3 
0.466 0.054 0.074 3 
0.485 -0.197 0.184 3 
0.486 -0.207 0.184 3 
0.485 -0.216 0.184 3 
0.484 -0.224 0.184 3 
0.474 -0.177 0.072 3 
0.473 -0.067 0.124 3 
0.484 -0.227 0.184 3 
0.494 -0.328 0.192 3 
0.494 -0.339 0.193 3 
0.464 0.32 0.178 3 
0.476 -0.235 0.024 3 
0.464 0.25 0.174 3 
0.464 0.244 0.174 3 
0.465 0.179 0.153 3 
0.465 0.238 0.174 3 
0.466 0.227 0.174 3 
0.466 0.224 0.174 3 
0.484 -0.224 0.187 3 
0.482 -0.095 0.183 3 
0.463 0.202 0.103 3 
0.481 -0.106 0.183 3 
0.481 -0.115 0.183 3 
0.483 -0.127 0.184 3 
0.483 -0.136 0.184 3 
0.463 0.272 0.132 3 
0.482 -0.151 0.184 3 
0.482 -0.156 0.184 3 
0.481 -0.357 0.01 3 
0.481 -0.165 0.184 3 
0.466 0.212 0.174 3 
0.489 -0.296 0.192 3 
0.488 -0.305 0.192 3 
0.476 -0.19 0.072 3 
0.49 -0.317 0.193 3 
0.463 0.345 0.182 3 
0.464 0.337 0.181 3 
0.469 0.003 0.153 3 
0.466 0.333 0.182 3 
0.464 0.259 0.178 3 
0.477 -0.116 0.162 3 
0.464 0.253 0.177 3 
0.487 -0.287 0.184 3 
0.471 0.053 0.162 3 
0.473 0.023 0.174 3 
0.473 0.014 0.174 3 
0.473 0.003 0.174 3 
0.475 -0.007 0.174 3 
0.464 0.144 0.13 3 
0.485 -0.234 0.182 3 
0.486 -0.237 0.182 3 
0.487 -0.245 0.183 3 
0.487 -0.257 0.183 3 
0.486 -0.266 0.183 3 
0.487 -0.277 0.184 3 
0.472 0.034 0.173 3 
0.466 0.054 0.052 3 
0.465 0.311 0.174 3 
0.466 0.302 0.174 3 
0.465 0.294 0.174 3 
0.466 0.273 0.173 3 
0.46 0.337 0.142 3 
0.479 -0.237 0.104 3 
0.465 0.263 0.172 3 
0.464 0.072 0.004 3 
0.464 0.259 0.172 3 
0.459 0.304 0.032 3 
0.469 0.122 0.173 3 
0.465 0.203 0.173 3 
0.462 0.253 0.143 3 
0.465 0.194 0.173 3 
0.461 0.274 0.032 3 
0.466 0.183 0.173 3 
0.465 0.174 0.173 3 
0.467 0.164 0.173 3 
0.468 0.152 0.173 3 
0.468 0.144 0.173 3 
0.469 0.133 0.173 3 
0.482 -0.246 0.154 3 
0.471 0.042 0.162 3 
0.474 -0.095 0.144 3 
0.47 0.114 0.173 3 
0.471 0.103 0.173 3 
0.471 0.094 0.173 3 
0.472 0.084 0.174 3 
0.472 0.072 0.173 3 
0.471 0.064 0.173 3 
0.464 0.204 0.154 3 
0.472 0.053 0.173 3 
0.473 0.042 0.174 3 
0.461 0.313 0.093 3 
0.463 0.143 0.044 3 
0.461 0.221 0.024 3 
0.46 0.252 0.043 3 
0.477 -0.248 0.012 3 
0.46 0.243 0.043 3 
0.461 0.223 0.043 3 
0.461 0.212 0.044 3 
0.462 0.204 0.044 3 
0.462 0.193 0.044 3 
0.462 0.184 0.044 3 
0.462 0.173 0.044 3 
0.462 0.162 0.044 3 
0.462 0.153 0.044 3 
0.469 -0.055 0.033 3 
0.464 0.132 0.044 3 
0.464 0.124 0.044 3 
0.464 0.113 0.044 3 
0.465 0.102 0.044 3 
0.46 0.214 0.014 3 
0.465 0.094 0.044 3 
0.466 0.084 0.044 3 
0.465 0.073 0.044 3 
0.465 0.064 0.044 3 
0.466 0.054 0.044 3 
0.466 0.032 0.044 3 
0.465 0.097 0.049 3 
0.476 -0.225 0.052 3 
0.477 -0.235 0.052 3 
0.477 -0.247 0.052 3 
0.477 -0.266 0.052 3 
0.477 -0.276 0.052 3 
0.477 -0.285 0.052 3 
0.479 -0.296 0.052 3 
0.481 -0.308 0.052 3 
0.48 -0.317 0.052 3 
0.481 -0.325 0.052 3 
0.482 -0.336 0.052 3 
0.465 0.119 0.049 3 
0.467 0.022 0.044 3 
0.475 -0.157 0.05 3 
0.475 -0.183 0.047 3 
0.474 -0.186 0.047 3 
0.456 0.331 0.043 3 
0.459 0.324 0.043 3 
0.458 0.313 0.043 3 
0.458 0.303 0.043 3 
0.47 -0.066 0.044 3 
0.46 0.292 0.043 3 
0.461 0.274 0.043 3 
0.46 0.264 0.043 3 
0.464 0.094 0.036 3 
0.479 -0.296 0.043 3 
0.48 -0.307 0.043 3 
0.481 -0.325 0.043 3 
0.484 -0.349 0.043 3 
0.465 0.105 0.041 3 
0.475 -0.154 0.041 3 
0.475 -0.157 0.041 3 
0.456 0.331 0.034 3 
0.456 0.324 0.034 3 
0.458 0.313 0.034 3 
0.465 0.124 0.036 3 
0.464 0.102 0.036 3 
0.476 -0.275 0.044 3 
0.481 -0.308 0.034 3 
0.481 -0.315 0.034 3 
0.482 -0.326 0.034 3 
0.482 -0.336 0.034 3 
0.482 -0.347 0.034 3 
0.481 -0.356 0.034 3 
0.46 0.292 0.032 3 
0.46 0.283 0.032 3 
0.46 0.264 0.032 3 
0.459 0.251 0.032 3 
0.46 0.243 0.032 3 
0.473 -0.136 0.044 3 
0.467 0.014 0.044 3 
0.468 0.003 0.044 3 
0.468 -0.007 0.044 3 
0.468 -0.015 0.044 3 
0.469 -0.026 0.044 3 
0.47 -0.045 0.044 3 
0.47 -0.056 0.044 3 
0.47 -0.075 0.044 3 
0.472 -0.097 0.044 3 
0.473 -0.106 0.044 3 
0.472 -0.116 0.044 3 
0.476 -0.216 0.052 3 
0.474 -0.145 0.044 3 
0.474 -0.157 0.044 3 
0.474 -0.177 0.044 3 
0.475 -0.18 0.044 3 
0.475 -0.186 0.044 3 
0.475 -0.195 0.044 3 
0.475 -0.216 0.044 3 
0.476 -0.225 0.044 3 
0.476 -0.237 0.044 3 
0.477 -0.247 0.044 3 
0.477 -0.266 0.044 3 
0.477 -0.257 0.064 3 
0.474 -0.157 0.063 3 
0.477 -0.257 0.004 3 
0.474 -0.165 0.063 3 
0.474 -0.177 0.064 3 
0.461 0.212 0.022 3 
0.475 -0.186 0.064 3 
0.468 -0.015 0.033 3 
0.476 -0.195 0.064 3 
0.476 -0.216 0.064 3 
0.477 -0.226 0.064 3 
0.477 -0.235 0.064 3 
0.477 -0.247 0.064 3 
0.474 -0.145 0.063 3 
0.478 -0.267 0.064 3 
0.477 -0.276 0.064 3 
0.478 -0.286 0.064 3 
0.482 -0.309 0.064 3 
0.482 -0.315 0.064 3 
0.482 -0.326 0.064 3 
0.482 -0.336 0.064 3 
0.464 0.089 0.06 3 
0.475 -0.154 0.061 3 
0.475 -0.157 0.058 3 
0.459 0.324 0.054 3 
0.47 -0.045 0.063 3 
0.464 0.124 0.063 3 
0.465 0.103 0.063 3 
0.465 0.094 0.063 3 
0.465 0.073 0.063 3 
0.466 0.054 0.063 3 
0.466 0.043 0.063 3 
0.466 0.024 0.063 3 
0.468 0.003 0.063 3 
0.469 -0.007 0.063 3 
0.469 -0.015 0.063 3 
0.469 -0.026 0.063 3 
0.469 -0.036 0.063 3 
0.459 0.314 0.054 3 
0.47 -0.055 0.063 3 
0.471 -0.067 0.063 3 
0.463 0.162 0.033 3 
0.471 -0.075 0.063 3 
0.472 -0.086 0.063 3 
0.472 -0.097 0.063 3 
0.472 -0.106 0.063 3 
0.472 -0.116 0.063 3 
0.484 -0.345 0.052 3 
0.472 -0.125 0.063 3 
0.474 -0.137 0.063 3 
0.47 -0.045 0.052 3 
0.465 0.083 0.052 3 
0.466 0.073 0.052 3 
0.466 0.062 0.052 3 
0.466 0.032 0.052 3 
0.467 0.022 0.052 3 
0.475 -0.154 0.052 3 
0.467 0.014 0.052 3 
0.468 -0.007 0.052 3 
0.468 -0.015 0.052 3 
0.468 -0.025 0.052 3 
0.459 0.282 0.013 3 
0.469 -0.036 0.052 3 
0.465 0.094 0.052 3 
0.47 -0.056 0.052 3 
0.47 -0.066 0.052 3 
0.471 -0.086 0.052 3 
0.473 -0.106 0.052 3 
0.472 -0.116 0.052 3 
0.472 -0.125 0.052 3 
0.473 -0.136 0.052 3 
0.474 -0.157 0.052 3 
0.474 -0.165 0.052 3 
0.475 -0.186 0.052 3 
0.464 0.043 0.012 3 
0.464 0.1 0.055 3 
0.46 0.302 0.054 3 
0.46 0.293 0.054 3 
0.461 0.283 0.054 3 
0.461 0.262 0.054 3 
0.46 0.252 0.054 3 
0.461 0.232 0.054 3 
0.461 0.223 0.054 3 
0.462 0.213 0.054 3 
0.462 0.204 0.054 3 
0.462 0.193 0.054 3 
0.464 0.113 0.055 3 
0.46 0.234 0.033 3 
0.474 -0.185 0.055 3 
0.485 -0.35 0.055 3 
0.468 0.003 0.023 3 
0.463 0.173 0.052 3 
0.462 0.164 0.052 3 
0.462 0.153 0.052 3 
0.463 0.143 0.052 3 
0.463 0.132 0.052 3 
0.464 0.124 0.052 3 
0.464 0.113 0.052 3 
0.464 0.102 0.052 3 
0.46 0.203 0.014 3 
0.481 -0.325 0.014 3 
0.481 -0.336 0.013 3 
0.482 -0.347 0.013 3 
0.456 0.323 0.012 3 
0.457 0.311 0.012 3 
0.458 0.303 0.012 3 
0.459 0.294 0.012 3 
0.459 0.263 0.013 3 
0.459 0.254 0.013 3 
0.458 0.242 0.014 3 
0.458 0.233 0.014 3 
0.459 0.222 0.014 3 
0.482 -0.348 0.004 3 
0.46 0.194 0.014 3 
0.46 0.183 0.014 3 
0.46 0.172 0.014 3 
0.46 0.164 0.014 3 
0.461 0.153 0.014 3 
0.462 0.137 0.014 3 
0.47 -0.105 0.014 3 
0.47 -0.116 0.014 3 
0.471 -0.136 0.014 3 
0.471 -0.147 0.014 3 
0.471 -0.167 0.014 3 
0.473 -0.165 0.022 3 
0.468 -0.026 0.023 3 
0.467 -0.036 0.023 3 
0.467 -0.047 0.023 3 
0.468 -0.055 0.023 3 
0.47 -0.077 0.023 3 
0.47 -0.096 0.023 3 
0.471 -0.105 0.022 3 
0.471 -0.116 0.022 3 
0.472 -0.128 0.022 3 
0.472 -0.136 0.022 3 
0.472 -0.145 0.022 3 
0.473 -0.156 0.022 3 
0.471 -0.175 0.014 3 
0.473 -0.176 0.022 3 
0.474 -0.197 0.022 3 
0.474 -0.218 0.021 3 
0.481 -0.357 0.019 3 
0.464 0.064 0.02 3 
0.464 0.054 0.02 3 
0.464 0.043 0.02 3 
0.464 0.027 0.02 3 
0.464 0.024 0.02 3 
0.474 -0.206 0.019 3 
0.478 -0.289 0.014 3 
0.47 -0.066 0.004 3 
0.481 -0.336 0.004 3 
0.482 -0.355 0.004 3 
0.465 0.056 0.007 3 
0.465 0.054 0.007 3 
0.465 0.043 0.007 3 
0.474 -0.215 0.004 3 
0.475 -0.222 0.004 3 
0.477 -0.236 0.004 3 
0.465 0.065 0.004 3 
0.465 0.043 0.004 3 
0.468 -0.026 0.004 3 
0.469 -0.055 0.004 3 
0.468 -0.066 0.012 3 
0.47 -0.075 0.004 3 
0.47 -0.086 0.003 3 
0.472 -0.117 0.003 3 
0.473 -0.137 0.003 3 
0.472 -0.145 0.003 3 
0.473 -0.157 0.002 3 
0.474 -0.166 0.002 3 
0.474 -0.177 0.002 3 
0.473 -0.185 0.002 3 
0.473 -0.197 0.002 3 
0.474 -0.207 0.002 3 
0.463 0.064 0.012 3 
0.471 -0.187 0.014 3 
0.472 -0.196 0.013 3 
0.474 -0.215 0.013 3 
0.475 -0.225 0.013 3 
0.474 -0.227 0.013 3 
0.476 -0.256 0.012 3 
0.476 -0.277 0.012 3 
0.462 0.134 0.012 3 
0.461 0.093 0.012 3 
0.462 0.083 0.012 3 
0.462 0.074 0.012 3 
0.468 -0.015 0.023 3 
0.463 0.053 0.012 3 
0.464 0.032 0.012 3 
0.464 0.024 0.012 3 
0.465 0.019 0.012 3 
0.466 0.003 0.012 3 
0.466 -0.007 0.012 3 
0.467 -0.015 0.012 3 
0.466 -0.025 0.012 3 
0.466 -0.036 0.012 3 
0.466 -0.047 0.012 3 
0.466 -0.055 0.012 3 
0.473 -0.136 0.033 3 
0.468 0.003 0.033 3 
0.468 -0.007 0.033 3 
0.468 -0.026 0.033 3 
0.469 -0.036 0.033 3 
0.468 -0.047 0.033 3 
0.47 -0.077 0.033 3 
0.471 -0.097 0.033 3 
0.472 -0.105 0.033 3 
0.473 -0.125 0.003 3 
0.472 -0.116 0.033 3 
0.462 0.123 0.012 3 
0.472 -0.125 0.033 3 
0.467 0.014 0.033 3 
0.473 -0.145 0.033 3 
0.474 -0.157 0.033 3 
0.474 -0.165 0.033 3 
0.474 -0.177 0.033 3 
0.475 -0.186 0.033 3 
0.475 -0.207 0.033 3 
0.476 -0.216 0.033 3 
0.476 -0.225 0.032 3 
0.477 -0.235 0.032 3 
0.477 -0.248 0.032 3 
0.478 -0.255 0.032 3 
0.465 0.113 0.033 3 
0.465 0.062 0.004 3 
0.461 0.223 0.033 3 
0.461 0.212 0.033 3 
0.462 0.204 0.033 3 
0.462 0.193 0.033 3 
0.462 0.184 0.033 3 
0.463 0.173 0.033 3 
0.463 0.143 0.033 3 
0.464 0.132 0.033 3 
0.464 0.124 0.033 3 
0.465 0.119 0.033 3 
0.477 -0.266 0.032 3 
0.464 0.102 0.033 3 
0.465 0.097 0.033 3 
0.464 0.091 0.033 3 
0.465 0.083 0.033 3 
0.465 0.073 0.033 3 
0.466 0.062 0.033 3 
0.466 0.054 0.033 3 
0.466 0.043 0.033 3 
0.466 0.032 0.034 3 
0.47 -0.085 0.023 3 
0.466 0.024 0.034 3 
0.463 0.104 0.023 3 
0.481 -0.315 0.023 3 
0.482 -0.326 0.022 3 
0.483 -0.337 0.022 3 
0.483 -0.345 0.022 3 
0.461 0.203 0.022 3 
0.461 0.184 0.022 3 
0.461 0.172 0.022 3 
0.462 0.162 0.022 3 
0.462 0.153 0.022 3 
0.462 0.142 0.022 3 
0.462 0.134 0.023 3 
0.464 0.113 0.023 3 
0.481 -0.305 0.023 3 
0.463 0.094 0.023 3 
0.464 0.083 0.023 3 
0.465 0.073 0.023 3 
0.464 0.07 0.023 3 
0.465 0.064 0.023 3 
0.465 0.054 0.023 3 
0.465 0.043 0.023 3 
0.465 0.032 0.023 3 
0.465 0.024 0.023 3 
0.467 0.014 0.023 3 
0.467 -0.007 0.023 3 
0.461 0.262 0.024 3 
0.478 -0.276 0.032 3 
0.479 -0.286 0.032 3 
0.479 -0.296 0.032 3 
0.464 0.08 0.031 3 
0.474 -0.186 0.03 3 
0.455 0.33 0.023 3 
0.456 0.324 0.023 3 
0.459 0.313 0.023 3 
0.459 0.304 0.023 3 
0.459 0.282 0.024 3 
0.46 0.273 0.024 3 
0.464 0.132 0.063 3 
0.46 0.252 0.024 3 
0.46 0.243 0.024 3 
0.46 0.234 0.024 3 
0.474 -0.192 0.024 3 
0.475 -0.198 0.024 3 
0.475 -0.216 0.024 3 
0.477 -0.245 0.024 3 
0.477 -0.257 0.024 3 
0.478 -0.266 0.023 3 
0.478 -0.276 0.023 3 
0.479 -0.286 0.023 3 
0.461 0.304 0.102 3 
0.468 -0.007 0.103 3 
0.462 0.193 0.084 3 
0.469 -0.025 0.104 3 
0.47 -0.045 0.104 3 
0.471 -0.056 0.104 3 
0.471 -0.067 0.104 3 
0.472 -0.075 0.104 3 
0.484 -0.329 0.109 3 
0.484 -0.336 0.109 3 
0.458 0.334 0.102 3 
0.461 0.323 0.102 3 
0.461 0.314 0.102 3 
0.467 0.003 0.103 3 
0.473 -0.095 0.102 3 
0.473 -0.106 0.102 3 
0.47 -0.037 0.044 3 
0.474 -0.117 0.102 3 
0.474 -0.126 0.102 3 
0.474 -0.137 0.102 3 
0.474 -0.146 0.102 3 
0.475 -0.149 0.103 3 
0.476 -0.155 0.103 3 
0.476 -0.166 0.103 3 
0.476 -0.175 0.103 3 
0.464 0.113 0.103 3 
0.463 0.194 0.103 3 
0.482 -0.326 0.073 3 
0.463 0.182 0.103 3 
0.475 -0.207 0.044 3 
0.463 0.174 0.103 3 
0.463 0.163 0.103 3 
0.464 0.152 0.103 3 
0.464 0.144 0.103 3 
0.464 0.133 0.103 3 
0.464 0.124 0.103 3 
0.471 -0.097 0.003 3 
0.465 0.116 0.103 3 
0.478 -0.185 0.103 3 
0.465 0.106 0.103 3 
0.465 0.043 0.044 3 
0.465 0.103 0.103 3 
0.465 0.092 0.103 3 
0.465 0.084 0.103 3 
0.465 0.073 0.103 3 
0.465 0.062 0.103 3 
0.472 -0.097 0.082 3 
0.465 0.054 0.103 3 
0.467 0.033 0.103 3 
0.467 0.014 0.103 3 
0.465 0.119 0.092 3 
0.461 0.254 0.093 3 
0.463 0.243 0.093 3 
0.462 0.233 0.093 3 
0.462 0.224 0.093 3 
0.462 0.193 0.092 3 
0.462 0.184 0.092 3 
0.462 0.173 0.092 3 
0.476 -0.265 0.004 3 
0.463 0.154 0.092 3 
0.463 0.143 0.092 3 
0.464 0.132 0.092 3 
0.464 0.124 0.092 3 
0.46 0.262 0.093 3 
0.464 0.113 0.092 3 
0.464 0.102 0.092 3 
0.465 0.1 0.092 3 
0.465 0.092 0.092 3 
0.464 0.107 0.033 3 
0.465 0.084 0.092 3 
0.464 0.078 0.092 3 
0.465 0.073 0.092 3 
0.465 0.057 0.092 3 
0.464 0.124 0.023 3 
0.465 0.054 0.092 3 
0.479 -0.287 0.102 3 
0.478 -0.197 0.103 3 
0.478 -0.215 0.104 3 
0.479 -0.225 0.104 3 
0.482 -0.336 0.043 3 
0.478 -0.245 0.104 3 
0.478 -0.255 0.104 3 
0.479 -0.265 0.104 3 
0.464 0.075 0.098 3 
0.464 0.067 0.098 3 
0.464 0.059 0.098 3 
0.479 -0.278 0.102 3 
0.463 0.214 0.104 3 
0.48 -0.295 0.102 3 
0.482 -0.306 0.102 3 
0.484 -0.325 0.103 3 
0.484 -0.336 0.103 3 
0.484 -0.347 0.103 3 
0.486 -0.351 0.104 3 
0.457 0.332 0.093 3 
0.462 0.324 0.094 3 
0.461 0.304 0.093 3 
0.462 0.213 0.092 3 
0.461 0.272 0.093 3 
0.484 -0.316 0.121 3 
0.466 0.062 0.114 3 
0.461 0.244 0.084 3 
0.466 0.054 0.114 3 
0.466 0.044 0.114 3 
0.466 0.033 0.114 3 
0.468 0.022 0.114 3 
0.468 0.014 0.114 3 
0.467 0.003 0.114 3 
0.461 0.274 0.054 3 
0.468 -0.007 0.114 3 
0.469 -0.015 0.114 3 
0.469 -0.025 0.114 3 
0.465 0.073 0.114 3 
0.487 -0.325 0.122 3 
0.487 -0.347 0.122 3 
0.463 0.143 0.063 3 
0.458 0.334 0.113 3 
0.461 0.324 0.113 3 
0.462 0.312 0.113 3 
0.463 0.303 0.113 3 
0.462 0.283 0.113 3 
0.477 -0.257 0.052 3 
0.461 0.263 0.112 3 
0.461 0.254 0.112 3 
0.463 0.202 0.114 3 
0.48 -0.238 0.124 3 
0.479 -0.246 0.124 3 
0.474 -0.132 0.119 3 
0.474 -0.135 0.119 3 
0.479 -0.256 0.122 3 
0.479 -0.265 0.122 3 
0.478 -0.258 0.044 3 
0.481 -0.286 0.123 3 
0.483 -0.305 0.123 3 
0.462 0.219 0.114 3 
0.463 0.211 0.114 3 
0.461 0.242 0.112 3 
0.463 0.194 0.114 3 
0.463 0.163 0.114 3 
0.463 0.154 0.114 3 
0.464 0.144 0.114 3 
0.464 0.133 0.114 3 
0.464 0.124 0.114 3 
0.465 0.117 0.114 3 
0.461 0.294 0.082 3 
0.465 0.114 0.114 3 
0.465 0.103 0.114 3 
0.465 0.092 0.114 3 
0.485 -0.327 0.112 3 
0.478 -0.227 0.112 3 
0.479 -0.237 0.113 3 
0.479 -0.256 0.113 3 
0.479 -0.265 0.113 3 
0.464 0.067 0.092 3 
0.479 -0.278 0.113 3 
0.48 -0.285 0.114 3 
0.482 -0.297 0.114 3 
0.459 0.335 0.108 3 
0.464 0.102 0.106 3 
0.483 -0.308 0.112 3 
0.484 -0.315 0.112 3 
0.478 -0.215 0.112 3 
0.485 -0.337 0.113 3 
0.486 -0.345 0.113 3 
0.461 0.294 0.104 3 
0.461 0.282 0.104 3 
0.457 0.332 0.082 3 
0.46 0.262 0.104 3 
0.461 0.254 0.104 3 
0.461 0.323 0.082 3 
0.461 0.242 0.104 3 
0.462 0.233 0.104 3 
0.459 0.273 0.013 3 
0.474 -0.115 0.113 3 
0.461 0.233 0.112 3 
0.464 0.105 0.111 3 
0.47 -0.036 0.112 3 
0.47 -0.045 0.112 3 
0.472 -0.056 0.112 3 
0.472 -0.067 0.112 3 
0.473 -0.075 0.113 3 
0.473 -0.086 0.113 3 
0.468 -0.066 0.033 3 
0.472 -0.097 0.113 3 
0.473 -0.106 0.113 3 
0.467 0.033 0.092 3 
0.474 -0.126 0.113 3 
0.475 -0.138 0.114 3 
0.474 -0.14 0.113 3 
0.475 -0.146 0.114 3 
0.477 -0.167 0.114 3 
0.478 -0.176 0.114 3 
0.477 -0.185 0.114 3 
0.465 0.133 0.109 3 
0.478 -0.197 0.112 3 
0.462 0.222 0.103 3 
0.478 -0.206 0.112 3 
0.464 0.124 0.073 3 
0.462 0.242 0.073 3 
0.475 -0.172 0.002 3 
0.462 0.233 0.073 3 
0.462 0.224 0.073 3 
0.462 0.213 0.073 3 
0.462 0.204 0.073 3 
0.461 0.192 0.073 3 
0.462 0.184 0.073 3 
0.462 0.173 0.073 3 
0.462 0.162 0.073 3 
0.463 0.154 0.073 3 
0.463 0.143 0.073 3 
0.461 0.253 0.073 3 
0.464 0.113 0.073 3 
0.465 0.108 0.074 3 
0.465 0.103 0.074 3 
0.464 0.1 0.073 3 
0.464 0.094 0.073 3 
0.465 0.086 0.074 3 
0.465 0.084 0.074 3 
0.464 0.073 0.074 3 
0.466 0.07 0.074 3 
0.466 0.062 0.074 3 
0.466 0.033 0.074 3 
0.485 -0.339 0.082 3 
0.472 -0.097 0.074 3 
0.477 -0.247 0.084 3 
0.477 -0.257 0.084 3 
0.477 -0.266 0.084 3 
0.479 -0.277 0.084 3 
0.479 -0.287 0.084 3 
0.479 -0.297 0.084 3 
0.483 -0.355 0.085 3 
0.474 -0.174 0.08 3 
0.465 0.014 0.012 3 
0.481 -0.315 0.082 3 
0.484 -0.335 0.082 3 
0.466 0.022 0.074 3 
0.484 -0.345 0.082 3 
0.474 -0.18 0.077 3 
0.483 -0.355 0.079 3 
0.457 0.332 0.074 3 
0.461 0.323 0.074 3 
0.461 0.313 0.074 3 
0.461 0.303 0.074 3 
0.461 0.294 0.074 3 
0.461 0.284 0.074 3 
0.46 0.274 0.074 3 
0.461 0.262 0.073 3 
0.46 0.302 0.062 3 
0.478 -0.257 0.072 3 
0.478 -0.267 0.072 3 
0.478 -0.276 0.073 3 
0.478 -0.286 0.073 3 
0.479 -0.297 0.073 3 
0.48 -0.308 0.073 3 
0.482 -0.319 0.073 3 
0.483 -0.337 0.073 3 
0.484 -0.345 0.073 3 
0.475 -0.154 0.066 3 
0.459 0.324 0.062 3 
0.46 0.312 0.062 3 
0.477 -0.247 0.072 3 
0.461 0.294 0.062 3 
0.46 0.283 0.062 3 
0.461 0.262 0.062 3 
0.461 0.253 0.062 3 
0.461 0.244 0.062 3 
0.461 0.223 0.063 3 
0.462 0.213 0.063 3 
0.462 0.204 0.063 3 
0.462 0.193 0.063 3 
0.462 0.184 0.063 3 
0.462 0.173 0.063 3 
0.473 -0.125 0.074 3 
0.466 0.014 0.074 3 
0.468 0.003 0.074 3 
0.468 -0.007 0.074 3 
0.468 -0.015 0.074 3 
0.468 -0.025 0.074 3 
0.468 -0.036 0.074 3 
0.47 -0.055 0.074 3 
0.471 -0.075 0.074 3 
0.472 -0.086 0.074 3 
0.472 -0.105 0.074 3 
0.472 -0.117 0.074 3 
0.477 -0.235 0.084 3 
0.474 -0.137 0.074 3 
0.465 0.116 0.071 3 
0.474 -0.157 0.072 3 
0.476 -0.226 0.004 3 
0.475 -0.166 0.072 3 
0.474 -0.168 0.072 3 
0.474 -0.185 0.072 3 
0.476 -0.195 0.072 3 
0.476 -0.225 0.072 3 
0.477 -0.235 0.072 3 
0.47 -0.085 0.033 3 
0.482 -0.316 0.094 3 
0.476 -0.216 0.092 3 
0.477 -0.226 0.092 3 
0.478 -0.236 0.092 3 
0.477 -0.247 0.092 3 
0.478 -0.285 0.044 3 
0.477 -0.257 0.092 3 
0.479 -0.268 0.093 3 
0.472 -0.125 0.044 3 
0.479 -0.277 0.093 3 
0.459 0.294 0.024 3 
0.48 -0.295 0.093 3 
0.481 -0.305 0.093 3 
0.477 -0.205 0.092 3 
0.482 -0.327 0.094 3 
0.485 -0.339 0.094 3 
0.484 -0.345 0.094 3 
0.484 -0.338 0.091 3 
0.46 0.262 0.084 3 
0.462 0.248 0.084 3 
0.461 0.232 0.084 3 
0.461 0.224 0.084 3 
0.462 0.213 0.084 3 
0.462 0.204 0.084 3 
0.462 0.184 0.084 3 
0.473 -0.106 0.094 3 
0.466 0.022 0.092 3 
0.467 -0.007 0.093 3 
0.468 -0.015 0.093 3 
0.468 -0.025 0.093 3 
0.469 -0.036 0.093 3 
0.469 -0.047 0.093 3 
0.47 -0.055 0.093 3 
0.47 -0.066 0.093 3 
0.471 -0.075 0.093 3 
0.472 -0.086 0.093 3 
0.473 -0.095 0.094 3 
0.462 0.173 0.084 3 
0.473 -0.117 0.094 3 
0.473 -0.125 0.094 3 
0.461 0.192 0.022 3 
0.473 -0.137 0.094 3 
0.475 -0.146 0.094 3 
0.476 -0.158 0.094 3 
0.476 -0.166 0.094 3 
0.475 -0.177 0.094 3 
0.485 -0.337 0.097 3 
0.475 -0.186 0.092 3 
0.476 -0.196 0.092 3 
0.472 -0.117 0.083 3 
0.461 0.284 0.082 3 
0.465 0.125 0.082 3 
0.464 0.113 0.082 3 
0.464 0.089 0.082 3 
0.468 -0.025 0.082 3 
0.468 -0.036 0.082 3 
0.469 -0.047 0.082 3 
0.469 -0.055 0.082 3 
0.47 -0.066 0.082 3 
0.471 -0.075 0.082 3 
0.472 -0.086 0.082 3 
0.473 -0.106 0.083 3 
0.461 0.313 0.082 3 
0.472 -0.125 0.083 3 
0.463 0.154 0.063 3 
0.473 -0.136 0.083 3 
0.475 -0.149 0.083 3 
0.475 -0.157 0.083 3 
0.475 -0.166 0.083 3 
0.475 -0.177 0.083 3 
0.475 -0.186 0.083 3 
0.475 -0.195 0.083 3 
0.475 -0.207 0.083 3 
0.476 -0.216 0.083 3 
0.465 0.073 0.084 3 
0.457 0.332 0.054 3 
0.462 0.162 0.084 3 
0.462 0.153 0.084 3 
0.464 0.132 0.084 3 
0.464 0.124 0.084 3 
0.476 -0.265 0.012 3 
0.465 0.119 0.084 3 
0.465 0.114 0.084 3 
0.465 0.103 0.084 3 
0.465 0.092 0.084 3 
0.465 0.084 0.084 3 
0.479 -0.225 0.124 3 
0.469 -0.047 0.074 3 
0.464 0.07 0.084 3 
0.465 0.062 0.084 3 
0.466 0.054 0.084 3 
0.476 -0.216 0.072 3 
0.467 0.043 0.084 3 
0.467 0.033 0.084 3 
0.467 0.022 0.084 3 
0.467 0.014 0.084 3 
0.467 0.003 0.084 3 
0.467 -0.015 0.084 3 
