# .PCD v0.7 - Point Cloud Data file
FIELDS x y z intensity
SIZE 4 4 4 4
TYPE F F F F
COUNT 1 1 1 1
WIDTH 2539
HEIGHT 1
VIEWPOINT 0 0 0 1 0 0 0
POINTS 2539
DATA ascii
0.537 -0.098 0.098 0 
0.504 -0.086 0.094 0 
0.547 -0.015 0.092 0 
0.376 0.013 0.016 0 
0.436 0.042 0.13 0 
0.507 -0.065 0.113 0 
0.527 -0.008 0.083 0 
0.428 0.04 0.131 0 
0.376 0.015 0.016 0 
0.518 -0.014 0.083 0 
0.509 -0.017 0.082 0 
0.341 0.014 0.004 0 
0.341 0.003 0.004 0 
0.374 -0.238 -0.026 1 
0.375 -0.215 -0.025 1 
0.364 -0.145 -0.018 1 
0.364 -0.136 -0.018 1 
0.361 -0.126 -0.016 1 
0.354 -0.016 -0.013 1 
0.343 0.016 -0.008 1 
0.353 0.034 -0.012 1 
0.353 0.044 -0.012 1 
0.353 0.054 -0.013 1 
0.354 0.056 -0.013 1 
0.353 0.073 -0.013 1 
0.354 0.084 -0.014 1 
0.35 0.113 -0.013 1 
0.348 0.124 -0.012 1 
0.354 0.143 -0.015 1 
0.351 0.154 -0.015 1 
0.342 0.203 -0.015 1 
0.372 -0.195 -0.021 1 
0.364 -0.163 -0.017 1 
0.364 -0.109 -0.015 1 
0.361 -0.085 -0.014 1 
0.364 -0.067 -0.014 1 
0.359 -0.055 -0.013 1 
0.362 -0.036 -0.013 1 
0.36 -0.025 -0.013 1 
0.352 -0.006 -0.01 1 
0.36 0.074 -0.014 1 
0.361 0.094 -0.015 1 
0.354 0.13 -0.013 1 
0.352 0.171 -0.014 1 
0.353 0.174 -0.015 1 
0.353 0.184 -0.015 1 
0.352 0.204 -0.016 1 
0.348 0.21 -0.015 1 
0.381 -0.246 -0.024 1 
0.384 -0.247 -0.025 1 
0.374 -0.186 -0.019 1 
0.374 -0.175 -0.019 1 
0.374 -0.146 -0.018 1 
0.373 -0.136 -0.017 1 
0.372 -0.125 -0.017 1 
0.37 -0.116 -0.016 1 
0.371 -0.096 -0.016 1 
0.369 -0.085 -0.015 1 
0.373 -0.075 -0.016 1 
0.362 -0.015 -0.012 1 
0.344 -0.002 -0.006 1 
0.343 0.014 -0.005 1 
0.352 0.017 -0.008 1 
0.364 0.034 -0.013 1 
0.364 0.041 -0.013 1 
0.364 0.084 -0.014 1 
0.364 0.086 -0.014 1 
0.364 0.124 -0.015 1 
0.363 0.154 -0.015 1 
0.354 0.217 -0.016 1 
0.391 -0.239 -0.025 1 
0.382 -0.227 -0.021 1 
0.378 -0.166 -0.018 1 
0.376 -0.116 -0.016 1 
0.372 -0.066 -0.014 1 
0.372 -0.045 -0.013 1 
0.371 -0.036 -0.013 1 
0.345 0.014 -0.004 1 
0.369 0.083 -0.013 1 
0.371 0.103 -0.015 1 
0.368 0.113 -0.014 1 
0.361 0.103 -0.015 1 
0.369 0.123 -0.014 1 
0.37 0.133 -0.015 1 
0.364 0.174 -0.015 1 
0.363 0.187 -0.015 1 
0.36 0.203 -0.015 1 
0.393 -0.265 -0.025 1 
0.393 -0.262 -0.025 1 
0.386 -0.226 -0.02 1 
0.384 -0.155 -0.017 1 
0.384 -0.132 -0.017 1 
0.382 -0.095 -0.015 1 
0.382 -0.075 -0.015 1 
0.38 -0.055 -0.014 1 
0.373 -0.025 -0.012 1 
0.364 0.018 -0.009 1 
0.374 0.034 -0.013 1 
0.374 0.041 -0.013 1 
0.374 0.064 -0.013 1 
0.375 0.124 -0.015 1 
0.374 0.138 -0.015 1 
0.373 0.143 -0.014 1 
0.373 0.155 -0.015 1 
0.369 0.174 -0.014 1 
0.369 0.178 -0.015 1 
0.373 0.194 -0.017 1 
0.363 0.222 -0.015 1 
0.361 0.222 -0.014 1 
0.361 0.225 -0.014 1 
0.393 -0.215 -0.02 1 
0.392 -0.186 -0.019 1 
0.388 -0.156 -0.017 1 
0.391 -0.126 -0.017 1 
0.391 -0.115 -0.017 1 
0.391 -0.107 -0.017 1 
0.386 -0.072 -0.015 1 
0.384 -0.066 -0.014 1 
0.381 -0.045 -0.013 1 
0.383 -0.036 -0.013 1 
0.381 -0.026 -0.013 1 
0.37 -0.006 -0.009 1 
0.362 -0.004 -0.007 1 
0.38 0.042 -0.013 1 
0.38 0.054 -0.013 1 
0.381 0.074 -0.013 1 
0.383 0.084 -0.014 1 
0.382 0.1 -0.014 1 
0.383 0.103 -0.015 1 
0.382 0.112 -0.015 1 
0.381 0.114 -0.014 1 
0.381 0.124 -0.014 1 
0.38 0.144 -0.015 1 
0.379 0.154 -0.015 1 
0.381 0.163 -0.016 1 
0.37 0.223 -0.015 1 
0.368 0.223 -0.014 1 
0.403 -0.276 -0.024 1 
0.404 -0.266 -0.023 1 
0.374 0.045 -0.013 1 
0.404 -0.255 -0.023 1 
0.404 -0.237 -0.022 1 
0.382 -0.215 -0.021 1 
0.402 -0.23 -0.021 1 
0.394 -0.206 -0.018 1 
0.393 -0.198 -0.017 1 
0.394 -0.087 -0.015 1 
0.394 -0.081 -0.015 1 
0.391 -0.076 -0.014 1 
0.39 -0.065 -0.014 1 
0.39 -0.055 -0.014 1 
0.389 -0.045 -0.013 1 
0.393 -0.035 -0.014 1 
0.394 -0.03 -0.015 1 
0.39 -0.025 -0.014 1 
0.383 -0.016 -0.012 1 
0.37 -0.004 -0.007 1 
0.384 0.031 -0.012 1 
0.391 0.079 -0.015 1 
0.389 0.083 -0.014 1 
0.389 0.091 -0.014 1 
0.39 0.093 -0.015 1 
0.391 0.102 -0.015 1 
0.39 0.114 -0.015 1 
0.388 0.119 -0.015 1 
0.386 0.123 -0.014 1 
0.386 0.144 -0.015 1 
0.386 0.146 -0.015 1 
0.383 0.154 -0.014 1 
0.384 0.157 -0.014 1 
0.385 0.164 -0.015 1 
0.382 0.224 -0.017 1 
0.38 0.244 -0.017 1 
0.379 0.245 -0.017 1 
0.412 -0.255 -0.023 1 
0.404 -0.208 -0.019 1 
0.403 -0.197 -0.018 1 
0.4 -0.185 -0.017 1 
0.404 -0.177 -0.018 1 
0.398 -0.145 -0.015 1 
0.401 -0.136 -0.016 1 
0.398 -0.104 -0.015 1 
0.398 -0.089 -0.014 1 
0.399 -0.076 -0.015 1 
0.398 -0.066 -0.014 1 
0.382 -0.005 -0.009 1 
0.352 0.138 -0.014 1 
0.384 0.024 -0.01 1 
0.39 0.032 -0.012 1 
0.394 0.043 -0.013 1 
0.394 0.053 -0.013 1 
0.394 0.064 -0.013 1 
0.398 -0.244 -0.025 1 
0.394 0.074 -0.014 1 
0.396 0.094 -0.015 1 
0.396 0.102 -0.015 1 
0.394 0.131 -0.015 1 
0.392 0.134 -0.014 1 
0.391 0.142 -0.014 1 
0.388 0.153 -0.013 1 
0.389 0.184 -0.015 1 
0.413 -0.285 -0.022 1 
0.414 -0.271 -0.022 1 
0.414 -0.249 -0.021 1 
0.413 -0.235 -0.02 1 
0.411 -0.225 -0.019 1 
0.404 -0.106 -0.014 1 
0.404 -0.095 -0.014 1 
0.405 -0.094 -0.014 1 
0.407 -0.077 -0.015 1 
0.406 -0.072 -0.015 1 
0.404 -0.048 -0.014 1 
0.404 -0.035 -0.014 1 
0.399 -0.016 -0.012 1 
0.396 -0.007 -0.012 1 
0.388 -0.005 -0.009 1 
0.402 0.053 -0.014 1 
0.4 0.074 -0.013 1 
0.402 0.111 -0.015 1 
0.401 0.113 -0.014 1 
0.402 0.12 -0.015 1 
0.374 -0.105 -0.017 1 
0.401 0.122 -0.014 1 
0.401 0.131 -0.015 1 
0.398 0.134 -0.014 1 
0.394 0.172 -0.014 1 
0.395 0.184 -0.015 1 
0.394 0.19 -0.014 1 
0.395 0.193 -0.015 1 
0.393 0.198 -0.014 1 
0.392 0.219 -0.015 1 
0.393 0.242 -0.016 1 
0.42 -0.255 -0.02 1 
0.419 -0.238 -0.019 1 
0.417 -0.226 -0.018 1 
0.413 -0.205 -0.017 1 
0.413 -0.195 -0.017 1 
0.412 -0.187 -0.016 1 
0.413 -0.169 -0.016 1 
0.411 -0.155 -0.015 1 
0.411 -0.146 -0.015 1 
0.351 0.194 -0.015 1 
0.413 -0.136 -0.015 1 
0.39 -0.246 -0.025 1 
0.413 -0.115 -0.015 1 
0.413 -0.11 -0.015 1 
0.411 -0.105 -0.014 1 
0.414 -0.097 -0.015 1 
0.414 -0.086 -0.015 1 
0.413 -0.076 -0.014 1 
0.412 -0.065 -0.014 1 
0.41 -0.045 -0.013 1 
0.41 -0.025 -0.014 1 
0.404 0.024 -0.012 1 
0.404 0.034 -0.012 1 
0.403 0.038 -0.012 1 
0.407 0.074 -0.013 1 
0.406 0.134 -0.014 1 
0.394 0.021 -0.011 1 
0.404 0.141 -0.014 1 
0.403 0.154 -0.014 1 
0.4 0.164 -0.013 1 
0.402 0.182 -0.014 1 
0.399 0.192 -0.014 1 
0.401 0.213 -0.015 1 
0.4 0.224 -0.015 1 
0.4 0.234 -0.016 1 
0.422 -0.286 -0.02 1 
0.424 -0.27 -0.019 1 
0.417 -0.216 -0.016 1 
0.42 -0.196 -0.016 1 
0.419 -0.12 -0.014 1 
0.42 -0.111 -0.015 1 
0.421 -0.095 -0.015 1 
0.419 -0.065 -0.014 1 
0.383 -0.185 -0.018 1 
0.386 -0.146 -0.016 1 
0.401 0.104 -0.014 1 
0.417 -0.035 -0.013 1 
0.414 0.047 -0.013 1 
0.413 0.082 -0.013 1 
0.414 0.087 -0.013 1 
0.409 0.142 -0.013 1 
0.413 0.154 -0.014 1 
0.406 0.164 -0.013 1 
0.404 0.243 -0.015 1 
0.403 0.263 -0.015 1 
0.4 0.268 -0.015 1 
0.431 -0.287 -0.019 1 
0.43 -0.277 -0.019 1 
0.424 -0.178 -0.014 1 
0.427 -0.176 -0.015 1 
0.424 -0.146 -0.014 1 
0.424 -0.142 -0.014 1 
0.366 0.214 -0.015 1 
0.424 -0.108 -0.013 1 
0.424 -0.077 -0.013 1 
0.423 -0.056 -0.013 1 
0.423 -0.047 -0.012 1 
0.424 -0.029 -0.013 1 
0.434 -0.008 -0.016 1 
0.384 0.214 -0.017 1 
0.424 0.033 -0.013 1 
0.419 -0.175 -0.015 1 
0.422 0.044 -0.013 1 
0.422 0.062 -0.013 1 
0.422 0.074 -0.013 1 
0.42 0.094 -0.013 1 
0.419 0.124 -0.013 1 
0.411 0.194 -0.013 1 
0.413 0.213 -0.014 1 
0.414 0.224 -0.014 1 
0.415 0.23 -0.015 1 
0.414 0.232 -0.015 1 
0.416 0.239 -0.015 1 
0.414 0.242 -0.015 1 
0.411 0.25 -0.015 1 
0.41 0.254 -0.014 1 
0.409 0.262 -0.015 1 
0.409 0.273 -0.015 1 
0.434 -0.305 -0.018 1 
0.434 -0.246 -0.016 1 
0.433 -0.226 -0.015 1 
0.432 -0.205 -0.015 1 
0.375 -0.072 -0.015 1 
0.432 -0.197 -0.014 1 
0.433 -0.195 -0.015 1 
0.433 -0.187 -0.015 1 
0.371 0.099 -0.014 1 
0.432 -0.176 -0.014 1 
0.43 -0.157 -0.013 1 
0.431 -0.145 -0.013 1 
0.434 -0.137 -0.014 1 
0.433 -0.127 -0.014 1 
0.432 -0.116 -0.013 1 
0.43 -0.106 -0.012 1 
0.43 -0.096 -0.012 1 
0.43 -0.086 -0.012 1 
0.432 -0.075 -0.013 1 
0.43 -0.065 -0.012 1 
0.433 -0.035 -0.013 1 
0.434 -0.013 -0.013 1 
0.422 0.104 -0.011 1 
0.421 0.154 -0.012 1 
0.42 0.183 -0.012 1 
0.419 0.284 -0.016 1 
0.442 -0.295 -0.017 1 
0.442 -0.277 -0.016 1 
0.44 -0.235 -0.015 1 
0.44 -0.219 -0.015 1 
0.439 -0.197 -0.014 1 
0.438 -0.185 -0.013 1 
0.38 -0.005 0.002 1 
0.434 0.043 -0.011 1 
0.434 0.053 -0.011 1 
0.434 0.063 -0.011 1 
0.433 0.072 -0.011 1 
0.433 0.084 -0.011 1 
0.434 0.094 -0.012 1 
0.432 0.123 -0.012 1 
0.428 0.143 -0.011 1 
0.429 0.154 -0.011 1 
0.427 0.163 -0.011 1 
0.424 0.194 -0.011 1 
0.424 0.204 -0.011 1 
0.423 0.214 -0.012 1 
0.423 0.224 -0.012 1 
0.423 0.232 -0.012 1 
0.423 0.243 -0.012 1 
0.423 0.254 -0.013 1 
0.423 0.271 -0.013 1 
0.424 0.28 -0.014 1 
0.426 0.294 -0.015 1 
0.443 -0.315 -0.015 1 
0.447 -0.297 -0.016 1 
0.445 -0.286 -0.015 1 
0.439 -0.265 -0.013 1 
0.414 0.103 -0.013 1 
0.444 -0.238 -0.013 1 
0.444 -0.227 -0.013 1 
0.444 -0.217 -0.013 1 
0.444 -0.176 -0.012 1 
0.444 -0.166 -0.012 1 
0.443 -0.155 -0.011 1 
0.444 -0.147 -0.012 1 
0.444 -0.137 -0.011 1 
0.443 -0.116 -0.011 1 
0.441 -0.105 -0.01 1 
0.412 -0.099 -0.014 1 
0.441 -0.095 -0.01 1 
0.42 0.082 -0.012 1 
0.443 -0.086 -0.011 1 
0.444 -0.081 -0.011 1 
0.373 0.177 -0.014 1 
0.444 -0.066 -0.011 1 
0.443 -0.056 -0.011 1 
0.399 0.063 -0.013 1 
0.444 -0.038 -0.011 1 
0.421 0.053 -0.012 1 
0.442 -0.026 -0.01 1 
0.449 -0.011 -0.012 1 
0.441 0.042 -0.01 1 
0.442 0.052 -0.011 1 
0.44 0.064 -0.01 1 
0.439 0.074 -0.01 1 
0.439 0.084 -0.01 1 
0.438 0.103 -0.01 1 
0.432 0.174 -0.01 1 
0.43 0.183 -0.01 1 
0.429 0.224 -0.011 1 
0.428 0.27 -0.012 1 
0.43 0.284 -0.013 1 
0.453 -0.317 -0.015 1 
0.448 -0.289 -0.013 1 
0.443 -0.257 -0.011 1 
0.444 -0.249 -0.011 1 
0.45 -0.226 -0.012 1 
0.45 -0.196 -0.011 1 
0.45 -0.145 -0.01 1 
0.449 -0.116 -0.01 1 
0.449 -0.105 -0.01 1 
0.448 -0.095 -0.009 1 
0.444 -0.206 -0.013 1 
0.45 -0.085 -0.01 1 
0.45 -0.075 -0.01 1 
0.451 -0.065 -0.01 1 
0.451 -0.055 -0.01 1 
0.444 0.033 -0.009 1 
0.444 0.113 -0.009 1 
0.443 0.123 -0.009 1 
0.443 0.133 -0.009 1 
0.441 0.153 -0.009 1 
0.438 0.162 -0.009 1 
0.434 0.193 -0.009 1 
0.434 0.204 -0.009 1 
0.432 0.205 -0.009 1 
0.434 0.228 -0.01 1 
0.433 0.252 -0.01 1 
0.434 0.256 -0.01 1 
0.433 0.302 -0.012 1 
0.433 0.305 -0.012 1 
0.382 -0.207 -0.021 1 
0.454 -0.331 -0.013 1 
0.42 0.134 -0.013 1 
0.453 -0.266 -0.011 1 
0.447 -0.255 -0.009 1 
0.45 -0.246 -0.009 1 
0.454 -0.235 -0.01 1 
0.454 -0.216 -0.01 1 
0.454 -0.21 -0.01 1 
0.454 -0.185 -0.009 1 
0.453 -0.157 -0.009 1 
0.454 -0.136 -0.009 1 
0.454 -0.128 -0.009 1 
0.383 -0.005 0.007 1 
0.451 0.033 -0.008 1 
0.441 0.142 -0.009 1 
0.452 0.044 -0.008 1 
0.453 0.054 -0.008 1 
0.453 0.062 -0.008 1 
0.451 0.092 -0.008 1 
0.45 0.102 -0.008 1 
0.444 0.171 -0.008 1 
0.442 0.183 -0.008 1 
0.441 0.193 -0.008 1 
0.438 0.204 -0.007 1 
0.44 0.244 -0.009 1 
0.442 0.284 -0.011 1 
0.384 0.184 -0.016 1 
0.464 -0.315 -0.012 1 
0.462 -0.297 -0.011 1 
0.454 0.133 -0.007 1 
0.452 0.153 -0.007 1 
0.451 0.161 -0.007 1 
0.385 0.234 -0.016 1 
0.449 0.182 -0.007 1 
0.444 0.271 -0.008 1 
0.444 0.292 -0.009 1 
0.443 0.304 -0.009 1 
0.463 -0.337 -0.009 1 
0.464 -0.258 -0.007 1 
0.463 -0.217 -0.006 1 
0.463 -0.197 -0.006 1 
0.42 0.273 -0.015 1 
0.465 -0.186 -0.006 1 
0.464 -0.177 -0.006 1 
0.464 -0.158 -0.006 1 
0.465 -0.155 -0.006 1 
0.464 -0.136 -0.006 1 
0.464 -0.116 -0.005 1 
0.465 -0.087 -0.005 1 
0.464 -0.076 -0.005 1 
0.383 -0.241 -0.025 1 
0.463 -0.057 -0.005 1 
0.463 -0.036 -0.005 1 
0.428 0.024 0.001 1 
0.461 0.042 -0.005 1 
0.373 0.022 -0.01 1 
0.461 0.074 -0.005 1 
0.46 0.093 -0.005 1 
0.46 0.122 -0.005 1 
0.456 0.173 -0.005 1 
0.456 0.184 -0.006 1 
0.454 0.193 -0.005 1 
0.455 0.2 -0.006 1 
0.454 0.202 -0.006 1 
0.454 0.213 -0.006 1 
0.453 0.224 -0.006 1 
0.451 0.234 -0.006 1 
0.451 0.242 -0.006 1 
0.45 0.253 -0.006 1 
0.45 0.262 -0.006 1 
0.444 0.311 -0.007 1 
0.459 0.133 -0.005 1 
0.467 -0.286 -0.006 1 
0.468 -0.277 -0.006 1 
0.469 -0.256 -0.005 1 
0.47 -0.245 -0.005 1 
0.47 -0.239 -0.005 1 
0.466 -0.231 -0.005 1 
0.464 -0.049 -0.002 1 
0.464 -0.036 -0.003 1 
0.463 0.094 -0.003 1 
0.463 0.113 -0.003 1 
0.456 0.264 -0.005 1 
0.455 0.272 -0.005 1 
0.454 0.284 -0.005 1 
0.454 0.293 -0.005 1 
0.452 0.304 -0.005 1 
0.45 0.311 -0.005 1 
0.451 0.322 -0.006 1 
0.451 0.325 -0.006 1 
0.473 -0.345 -0.006 1 
0.473 -0.335 -0.005 1 
0.432 0.133 -0.012 1 
0.444 0.256 -0.007 1 
0.473 -0.328 -0.005 1 
0.364 -0.076 -0.015 1 
0.474 -0.315 -0.005 1 
0.451 -0.045 -0.01 1 
0.474 -0.308 -0.005 1 
0.473 -0.298 -0.004 1 
0.419 -0.146 -0.015 1 
0.46 0.114 -0.005 1 
0.379 0.004 0.016 1 
0.464 0.064 0 1 
0.464 0.097 0 1 
0.463 0.123 -0.001 1 
0.474 -0.329 -0.002 1 
0.418 -0.001 0.01 1 
0.405 -0.007 -0.012 1 
0.407 0.013 0.012 1 
0.406 0.015 0.013 1 
0.464 0.143 0.001 1 
0.464 0.18 0 1 
0.464 0.194 0 1 
0.463 0.222 0 1 
0.475 -0.267 0.001 1 
0.473 -0.215 0.002 1 
0.472 -0.205 0.002 1 
0.472 -0.196 0.002 1 
0.471 -0.187 0.003 1 
0.471 -0.156 0.003 1 
0.471 -0.147 0.003 1 
0.374 -0.206 -0.022 1 
0.423 0.112 -0.011 1 
0.469 -0.135 0.003 1 
0.47 -0.105 0.003 1 
0.469 -0.096 0.004 1 
0.469 -0.085 0.004 1 
0.468 -0.077 0.004 1 
0.414 -0.125 -0.015 1 
0.468 -0.007 0.004 1 
0.465 0.083 0.004 1 
0.465 0.094 0.004 1 
0.465 0.124 0.003 1 
0.465 0.144 0.003 1 
0.464 0.152 0.003 1 
0.464 0.166 0.003 1 
0.466 0.184 0.002 1 
0.465 0.192 0.002 1 
0.464 0.2 0.002 1 
0.465 0.203 0.002 1 
0.467 0.214 0.002 1 
0.465 0.224 0.002 1 
0.465 0.23 0.002 1 
0.464 0.232 0.002 1 
0.465 0.242 0.002 1 
0.465 0.254 0.001 1 
0.474 -0.349 0.002 1 
0.424 -0.087 -0.013 1 
0.477 -0.325 0.002 1 
0.478 -0.306 0.003 1 
0.476 -0.297 0.003 1 
0.475 -0.293 0.003 1 
0.473 -0.288 0.004 1 
0.472 -0.277 0.004 1 
0.474 -0.266 0.004 1 
0.475 -0.243 0.004 1 
0.473 -0.236 0.004 1 
0.473 -0.227 0.004 1 
0.457 -0.009 -0.017 1 
0.464 0.265 0.004 1 
0.465 0.272 0.004 1 
0.465 0.281 0.003 1 
0.463 0.292 0.004 1 
0.463 0.302 0.003 1 
0.464 0.322 0.003 1 
0.464 0.329 0.002 1 
0.465 0.334 0.002 1 
0.373 0.145 -0.014 1 
0.467 0.344 0.001 1 
0.434 0.294 -0.012 1 
0.464 -0.007 0.01 1 
0.462 0.003 0.01 1 
0.355 0.102 -0.014 1 
0.477 -0.339 0.002 1 
0.461 0.053 -0.005 1 
0.461 0.029 -0.005 1 
0.401 -0.156 -0.016 1 
0.465 -0.007 0.012 1 
0.465 0.003 0.012 1 
0.464 -0.009 -0.011 1 
0.464 0.014 0.012 1 
0.463 0.024 0.013 1 
0.464 -0.047 -0.005 1 
0.464 -0.065 -0.005 1 
0.411 0.201 -0.013 1 
0.381 -0.145 -0.016 1 
0.464 -0.089 -0.005 1 
0.452 -0.165 -0.009 1 
0.476 -0.345 0.002 1 
0.414 0.122 -0.014 1 
0.463 -0.127 -0.005 1 
0.464 -0.147 -0.006 1 
0.466 0.103 0.004 1 
0.407 0.262 -0.014 1 
0.464 -0.166 -0.006 1 
0.463 -0.225 -0.007 1 
0.457 -0.246 -0.008 1 
0.458 -0.265 -0.009 1 
0.463 -0.327 -0.012 1 
0.443 -0.278 -0.014 1 
0.412 0.114 -0.013 1 
0.371 0.107 -0.015 1 
0.428 -0.23 -0.014 1 
0.391 0.174 -0.015 1 
0.438 -0.267 -0.015 1 
0.4 -0.085 -0.015 1 
0.352 0.175 -0.014 1 
0.401 0.203 -0.015 1 
0.433 -0.046 -0.013 1 
0.37 -0.015 -0.011 1 
0.453 0.143 -0.007 1 
0.418 -0.155 -0.015 1 
0.439 -0.245 -0.015 1 
0.469 -0.127 0.003 1 
0.457 0.142 -0.005 1 
0.454 -0.177 -0.009 1 
0.394 0.259 -0.015 1 
0.47 -0.166 0.003 1 
0.414 0.002 0.011 1 
0.474 -0.245 0.004 1 
0.451 0.074 -0.008 1 
0.36 0.114 -0.013 1 
0.454 -0.024 -0.008 1 
0.424 -0.022 -0.013 1 
0.451 0.124 -0.009 1 
0.471 -0.296 -0.007 1 
0.462 0.242 0 1 
0.334 0.004 -0.005 1 
0.44 -0.011 -0.012 1 
0.474 -0.298 0.006 1 
0.36 -0.067 -0.015 1 
0.424 0.023 -0.011 1 
0.44 -0.232 -0.015 1 
0.346 0.163 -0.013 1 
0.41 -0.036 -0.013 1 
0.357 0.144 -0.015 1 
0.464 0.34 0 1 
0.455 0.278 -0.005 1 
0.416 -0.205 -0.015 1 
0.453 -0.307 -0.015 1 
0.443 0.213 -0.009 1 
0.36 0.134 -0.013 1 
0.407 0.063 -0.013 1 
0.414 0.022 -0.013 1 
0.401 0.172 -0.014 1 
0.354 -0.026 -0.013 1 
0.444 -0.053 -0.011 1 
0.394 0.162 -0.013 1 
0.462 0.083 -0.003 1 
0.37 -0.071 -0.015 1 
0.423 -0.275 -0.019 1 
0.429 0.112 -0.011 1 
0.476 -0.256 0.001 1 
0.41 0.28 -0.016 1 
0.456 0.153 -0.005 1 
0.393 0.203 -0.015 1 
0.475 -0.252 0.004 1 
0.475 -0.01 -0.002 1 
0.373 0.153 -0.015 1 
0.381 0.232 -0.017 1 
0.463 0.043 -0.003 1 
0.397 -0.245 -0.025 1 
0.426 -0.16 -0.015 1 
0.396 -0.255 -0.025 1 
0.353 0.104 -0.014 1 
0.387 -0.24 -0.024 1 
0.464 -0.028 -0.003 1 
0.428 -0.166 -0.015 1 
0.393 -0.095 -0.015 1 
0.434 -0.243 -0.016 1 
0.473 -0.01 -0.007 1 
0.432 -0.267 -0.019 1 
0.401 -0.274 -0.025 1 
0.411 -0.056 -0.014 1 
0.381 0.064 -0.013 1 
0.419 0.173 -0.012 1 
0.421 0.164 -0.012 1 
0.399 -0.106 -0.015 1 
0.404 -0.167 -0.018 1 
0.465 0.342 0.005 1 
0.42 -0.252 -0.015 1 
0.466 0.258 0.001 1 
0.464 0.132 0.001 1 
0.383 0.203 -0.016 1 
0.383 0.194 -0.016 1 
0.464 -0.191 -0.006 1 
0.423 -0.165 -0.016 1 
0.433 -0.216 -0.015 1 
0.361 0.164 -0.015 1 
0.414 0.174 -0.013 1 
0.379 -0.231 -0.025 1 
0.451 -0.298 -0.014 1 
0.384 -0.106 -0.016 1 
0.392 0.254 -0.017 1 
0.464 -0.023 -0.005 1 
0.362 -0.006 -0.01 1 
0.411 -0.218 -0.019 1 
0.453 -0.279 -0.011 1 
0.42 -0.097 -0.014 1 
0.364 -0.092 -0.015 1 
0.466 0.114 0.003 1 
0.426 0.28 -0.015 1 
0.44 0.094 -0.011 1 
0.451 0.113 -0.008 1 
0.46 0.082 -0.005 1 
0.414 0.181 -0.013 1 
0.475 -0.231 0.001 1 
0.461 -0.286 -0.01 1 
0.444 0.253 -0.007 1 
0.453 -0.027 -0.008 1 
0.431 -0.165 -0.014 1 
0.436 -0.262 -0.015 1 
0.413 0.042 -0.012 1 
0.423 0.262 -0.013 1 
0.419 0.143 -0.011 1 
0.449 0.273 -0.006 1 
0.374 -0.226 -0.025 1 
0.432 -0.297 -0.02 1 
0.425 0.296 -0.015 1 
0.462 -0.025 -0.005 1 
0.402 -0.216 -0.019 1 
0.384 -0.087 -0.016 1 
0.442 -0.286 -0.017 1 
0.451 -0.037 -0.01 1 
0.463 0.252 0.004 1 
0.392 -0.177 -0.019 1 
0.411 -0.177 -0.015 1 
0.444 -0.021 -0.011 1 
0.464 -0.106 -0.005 1 
0.404 -0.059 -0.014 1 
0.397 0.084 -0.015 1 
0.431 0.024 -0.005 1 
0.358 -0.095 -0.015 1 
0.383 -0.183 -0.018 1 
0.464 0.262 0.004 1 
0.402 -0.125 -0.016 1 
0.415 0.262 -0.016 1 
0.381 0.134 -0.015 1 
0.374 -0.055 -0.014 1 
0.464 0.163 0.003 1 
0.361 -0.045 -0.013 1 
0.345 -0.002 -0.001 1 
0.474 -0.336 -0.002 1 
0.43 0.103 -0.011 1 
0.368 0.228 -0.015 1 
0.432 -0.025 -0.013 1 
0.417 -0.186 -0.015 1 
0.443 -0.126 -0.011 1 
0.434 0.031 -0.011 1 
0.363 -0.077 -0.014 1 
0.364 0.184 -0.015 1 
0.461 0.064 -0.005 1 
0.429 -0.055 -0.012 1 
0.451 0.082 -0.008 1 
0.432 -0.256 -0.016 1 
0.374 -0.157 -0.018 1 
0.442 -0.305 -0.017 1 
0.384 -0.197 -0.019 1 
0.394 0.214 -0.015 1 
0.419 -0.132 -0.015 1 
0.464 0.313 0.003 1 
0.36 0.054 -0.013 1 
0.393 -0.259 -0.024 1 
0.371 0.173 -0.015 1 
0.374 0.093 -0.013 1 
0.416 -0.008 -0.013 1 
0.36 0.063 -0.014 1 
0.465 0.172 0.003 1 
0.401 0.083 -0.014 1 
0.469 -0.269 -0.006 1 
0.426 -0.003 0.009 1 
0.403 0.253 -0.015 1 
0.464 0.284 0.004 1 
0.362 0.143 -0.014 1 
0.406 0.028 -0.012 1 
0.402 -0.026 -0.013 1 
0.474 -0.257 0.004 1 
0.364 -0.115 -0.015 1 
0.404 0.196 -0.013 1 
0.464 -0.095 -0.005 1 
0.42 -0.116 -0.015 1 
0.374 0.132 -0.014 1 
0.45 0.174 -0.007 1 
0.441 0.223 -0.008 1 
0.417 0.287 -0.015 1 
0.393 -0.015 -0.013 1 
0.388 -0.165 -0.017 1 
0.414 -0.283 -0.022 1 
0.464 0.067 0 1 
0.463 0.053 -0.003 1 
0.466 -0.004 0.004 1 
0.478 -0.316 0.002 1 
0.463 -0.205 -0.006 1 
0.399 -0.247 -0.023 1 
0.383 0.174 -0.015 1 
0.382 0.094 -0.014 1 
0.455 0.164 -0.005 1 
0.424 -0.125 -0.013 1 
0.459 -0.275 -0.009 1 
0.46 -0.237 -0.009 1 
0.364 0.122 -0.014 1 
0.44 0.233 -0.009 1 
0.455 0.191 -0.006 1 
0.462 0.213 0 1 
0.434 0.242 -0.01 1 
0.382 -0.235 -0.024 1 
0.47 -0.015 -0.006 1 
0.408 -0.016 -0.013 1 
0.389 0.193 -0.015 1 
0.431 -0.015 -0.013 1 
0.401 -0.116 -0.016 1 
0.452 -0.329 -0.015 1 
0.383 -0.136 -0.017 1 
0.464 -0.305 -0.011 1 
0.371 0.203 -0.016 1 
0.36 0.212 -0.015 1 
0.46 0.103 -0.005 1 
0.39 -0.136 -0.017 1 
0.372 -0.165 -0.018 1 
0.374 0.07 -0.013 1 
0.354 -0.004 -0.007 1 
0.401 0.094 -0.014 1 
0.47 -0.175 0.003 1 
0.342 0.003 0.017 2 
0.342 0.003 0.009 2 
0.342 0.014 0.033 2 
0.342 0.014 0.025 2 
0.481 -0.336 0.112 3 
0.474 -0.207 0.142 3 
0.466 0.344 0.144 3 
0.468 0.333 0.144 3 
0.467 0.321 0.143 3 
0.466 0.313 0.143 3 
0.38 -0.029 0.09 3 
0.306 0.02 0.094 3 
0.466 0.304 0.143 3 
0.467 0.282 0.142 3 
0.468 -0.017 0.079 3 
0.467 0.273 0.142 3 
0.465 0.152 0.063 3 
0.467 0.134 0.142 3 
0.306 0.02 0.095 3 
0.476 -0.257 0.144 3 
0.475 -0.237 0.143 3 
0.476 -0.226 0.143 3 
0.475 -0.216 0.143 3 
0.473 -0.197 0.142 3 
0.47 -0.086 0.142 3 
0.464 0.21 0.131 3 
0.468 0.104 0.142 3 
0.465 0.102 0.014 3 
0.297 0.014 0.094 3 
0.297 0.004 0.094 3 
0.479 -0.288 0.143 3 
0.471 -0.207 0.013 3 
0.47 -0.047 0.142 3 
0.47 -0.056 0.142 3 
0.469 -0.066 0.142 3 
0.465 0.172 0.052 3 
0.47 -0.077 0.142 3 
0.48 -0.358 0.152 3 
0.419 0.041 0.089 3 
0.47 -0.105 0.143 3 
0.471 -0.117 0.143 3 
0.471 -0.125 0.143 3 
0.472 -0.145 0.144 3 
0.472 -0.157 0.144 3 
0.472 -0.165 0.144 3 
0.472 -0.177 0.144 3 
0.472 -0.185 0.144 3 
0.483 -0.336 0.152 3 
0.482 -0.346 0.152 3 
0.467 0.344 0.124 3 
0.469 -0.055 0.134 3 
0.469 -0.066 0.134 3 
0.469 -0.077 0.134 3 
0.47 -0.086 0.134 3 
0.47 -0.097 0.134 3 
0.474 -0.24 0.137 3 
0.483 -0.319 0.142 3 
0.483 -0.325 0.142 3 
0.484 -0.337 0.143 3 
0.483 -0.347 0.143 3 
0.464 0.335 0.134 3 
0.465 0.322 0.134 3 
0.469 -0.047 0.134 3 
0.466 0.303 0.134 3 
0.466 0.294 0.134 3 
0.465 0.314 0.074 3 
0.466 0.284 0.133 3 
0.467 0.272 0.133 3 
0.466 0.262 0.133 3 
0.464 0.132 0.022 3 
0.465 0.252 0.132 3 
0.465 0.243 0.132 3 
0.465 0.234 0.132 3 
0.465 0.222 0.132 3 
0.48 -0.296 0.164 3 
0.467 0.112 0.133 3 
0.476 -0.276 0.142 3 
0.48 -0.296 0.143 3 
0.481 -0.307 0.144 3 
0.465 0.21 0.134 3 
0.465 0.202 0.134 3 
0.467 0.194 0.134 3 
0.466 0.182 0.134 3 
0.466 0.173 0.134 3 
0.466 0.162 0.134 3 
0.467 0.154 0.134 3 
0.467 0.134 0.134 3 
0.466 0.123 0.133 3 
0.498 -0.037 0.144 3 
0.467 0.104 0.133 3 
0.467 0.093 0.133 3 
0.466 0.082 0.133 3 
0.466 -0.007 0.076 3 
0.466 0.073 0.133 3 
0.466 0.063 0.133 3 
0.464 0.054 0.132 3 
0.314 -0.004 0.095 3 
0.424 0 0.078 3 
0.47 -0.034 0.134 3 
0.465 0.258 0.113 3 
0.468 -0.036 0.133 3 
0.466 0.254 0.153 3 
0.474 -0.245 0.092 3 
0.471 -0.106 0.154 3 
0.472 -0.117 0.154 3 
0.48 -0.306 0.162 3 
0.482 -0.318 0.163 3 
0.482 -0.325 0.163 3 
0.483 -0.337 0.164 3 
0.483 -0.348 0.164 3 
0.468 0.296 0.154 3 
0.468 0.293 0.154 3 
0.468 0.283 0.154 3 
0.467 0.264 0.153 3 
0.365 -0.024 0.088 3 
0.466 0.241 0.152 3 
0.468 -0.137 0.014 3 
0.466 0.232 0.152 3 
0.466 0.223 0.152 3 
0.471 -0.135 0.083 3 
0.296 0.019 0.097 3 
0.472 -0.125 0.152 3 
0.472 -0.137 0.152 3 
0.462 0.337 0.062 3 
0.472 -0.145 0.152 3 
0.297 0.016 0.094 3 
0.472 -0.157 0.152 3 
0.468 0.124 0.153 3 
0.477 -0.295 0.113 3 
0.47 0.35 0.16 3 
0.467 0.206 0.154 3 
0.467 0.204 0.154 3 
0.467 0.192 0.154 3 
0.467 0.183 0.154 3 
0.467 0.174 0.154 3 
0.467 0.163 0.153 3 
0.467 0.154 0.153 3 
0.468 0.143 0.153 3 
0.466 0.122 0.063 3 
0.469 0.133 0.154 3 
0.465 0.297 0.04 3 
0.466 0.033 0.063 3 
0.468 0.113 0.153 3 
0.468 0.104 0.153 3 
0.468 0.093 0.153 3 
0.476 -0.266 0.144 3 
0.468 0.082 0.153 3 
0.468 0.074 0.153 3 
0.467 0.063 0.152 3 
0.47 -0.067 0.153 3 
0.471 -0.075 0.154 3 
0.471 -0.086 0.154 3 
0.471 -0.097 0.154 3 
0.467 0.254 0.144 3 
0.467 0.082 0.144 3 
0.467 0.074 0.144 3 
0.465 0.052 0.143 3 
0.464 0.049 0.143 3 
0.294 0.011 0.094 3 
0.475 -0.201 0.148 3 
0.479 -0.285 0.152 3 
0.48 -0.296 0.152 3 
0.481 -0.307 0.153 3 
0.481 -0.317 0.153 3 
0.482 -0.325 0.154 3 
0.467 0.26 0.144 3 
0.467 0.09 0.144 3 
0.466 0.244 0.144 3 
0.465 0.234 0.143 3 
0.466 0.223 0.143 3 
0.464 0.183 0.033 3 
0.466 0.214 0.143 3 
0.466 0.203 0.143 3 
0.467 0.191 0.143 3 
0.467 0.182 0.143 3 
0.467 0.174 0.142 3 
0.472 -0.156 0.124 3 
0.467 0.162 0.142 3 
0.467 0.154 0.142 3 
0.391 0 0.078 3 
0.472 -0.165 0.153 3 
0.475 -0.265 0.104 3 
0.473 -0.175 0.153 3 
0.473 -0.186 0.153 3 
0.474 -0.196 0.154 3 
0.465 0.232 0.063 3 
0.475 -0.211 0.154 3 
0.465 0.344 0.153 3 
0.467 0.332 0.153 3 
0.468 0.323 0.152 3 
0.468 0.313 0.152 3 
0.295 0.002 0.096 3 
0.467 0.143 0.142 3 
0.476 -0.226 0.152 3 
0.476 -0.235 0.152 3 
0.473 -0.265 0.013 3 
0.476 -0.257 0.153 3 
0.478 -0.268 0.154 3 
0.478 -0.275 0.154 3 
0.465 0.183 0.044 3 
0.467 0.346 0.15 3 
0.467 0.118 0.144 3 
0.467 0.112 0.144 3 
0.475 -0.246 0.112 3 
0.465 0.321 0.114 3 
0.464 0.084 0.114 3 
0.463 0.073 0.113 3 
0.46 0.053 0.113 3 
0.309 0.01 0.084 3 
0.317 -0.003 0.086 3 
0.473 -0.285 0.052 3 
0.416 -0.008 0.104 3 
0.467 -0.033 0.114 3 
0.467 -0.036 0.114 3 
0.468 -0.047 0.114 3 
0.468 -0.055 0.114 3 
0.465 0.335 0.114 3 
0.466 0.333 0.114 3 
0.465 0.092 0.114 3 
0.465 0.311 0.114 3 
0.466 0.303 0.114 3 
0.467 0.294 0.114 3 
0.464 0.032 0.012 3 
0.465 0.283 0.113 3 
0.465 0.273 0.113 3 
0.464 0.269 0.113 3 
0.464 0.263 0.113 3 
0.464 0.254 0.113 3 
0.465 0.252 0.113 3 
0.465 0.294 0.043 3 
0.465 0.243 0.113 3 
0.481 -0.337 0.124 3 
0.476 -0.247 0.124 3 
0.475 -0.256 0.124 3 
0.475 -0.265 0.124 3 
0.464 0.337 0.12 3 
0.464 0.266 0.118 3 
0.464 0.078 0.116 3 
0.426 -0.008 0.109 3 
0.499 -0.034 0.123 3 
0.476 -0.285 0.122 3 
0.479 -0.307 0.123 3 
0.48 -0.315 0.123 3 
0.48 -0.325 0.123 3 
0.465 0.234 0.113 3 
0.48 -0.346 0.124 3 
0.481 -0.355 0.124 3 
0.464 0.263 0.116 3 
0.466 0.156 0.114 3 
0.466 0.153 0.114 3 
0.466 0.204 0.112 3 
0.466 0.142 0.114 3 
0.466 0.134 0.114 3 
0.467 0.123 0.114 3 
0.464 0.29 0.079 3 
0.466 0.111 0.114 3 
0.466 0.103 0.114 3 
0.315 0.013 0.083 3 
0.471 -0.156 0.113 3 
0.473 -0.165 0.113 3 
0.472 -0.176 0.113 3 
0.473 -0.197 0.114 3 
0.473 -0.206 0.114 3 
0.474 -0.215 0.114 3 
0.475 -0.219 0.114 3 
0.474 -0.227 0.114 3 
0.464 0.334 0.111 3 
0.464 0.1 0.108 3 
0.368 0.045 0.092 3 
0.328 0.035 0.085 3 
0.33 0.034 0.085 3 
0.471 -0.147 0.113 3 
0.325 -0.002 0.085 3 
0.379 -0.006 0.094 3 
0.331 -0.014 0.086 3 
0.333 -0.015 0.086 3 
0.475 -0.237 0.112 3 
0.475 -0.255 0.112 3 
0.465 0.291 0.023 3 
0.475 -0.265 0.112 3 
0.463 0.067 0.092 3 
0.475 -0.277 0.113 3 
0.476 -0.285 0.113 3 
0.475 0.356 0.199 3 
0.312 0.004 0.084 3 
0.464 0.23 0.112 3 
0.465 0.224 0.112 3 
0.464 0.323 0.042 3 
0.465 0.212 0.112 3 
0.466 0.193 0.112 3 
0.466 0.184 0.112 3 
0.466 0.173 0.112 3 
0.478 -0.325 0.064 3 
0.464 0.089 0.111 3 
0.316 0.017 0.084 3 
0.313 0.016 0.084 3 
0.473 -0.176 0.102 3 
0.475 -0.237 0.123 3 
0.315 0.001 0.084 3 
0.465 0.224 0.074 3 
0.469 -0.066 0.112 3 
0.47 -0.075 0.112 3 
0.47 -0.086 0.112 3 
0.468 -0.066 0.033 3 
0.469 -0.096 0.112 3 
0.47 -0.105 0.112 3 
0.47 -0.116 0.113 3 
0.47 -0.127 0.113 3 
0.47 -0.136 0.113 3 
0.473 -0.185 0.114 3 
0.465 0.052 0.125 3 
0.475 -0.265 0.133 3 
0.48 -0.348 0.064 3 
0.471 -0.167 0.044 3 
0.475 -0.275 0.133 3 
0.477 -0.286 0.134 3 
0.317 0.022 0.086 3 
0.479 -0.298 0.134 3 
0.464 0.248 0.127 3 
0.477 -0.305 0.084 3 
0.465 0.291 0.074 3 
0.464 0.233 0.126 3 
0.464 0.224 0.126 3 
0.464 0.054 0.124 3 
0.476 -0.257 0.133 3 
0.475 -0.213 0.129 3 
0.474 -0.23 0.129 3 
0.48 -0.309 0.132 3 
0.48 -0.315 0.132 3 
0.483 -0.329 0.133 3 
0.474 -0.276 0.044 3 
0.482 -0.335 0.133 3 
0.481 -0.348 0.133 3 
0.467 0.345 0.127 3 
0.465 0.277 0.124 3 
0.465 0.273 0.124 3 
0.465 0.264 0.124 3 
0.465 0.203 0.082 3 
0.47 -0.116 0.132 3 
0.47 -0.127 0.132 3 
0.477 -0.317 0.032 3 
0.471 -0.136 0.132 3 
0.471 -0.145 0.132 3 
0.472 -0.156 0.133 3 
0.472 -0.165 0.133 3 
0.471 -0.176 0.133 3 
0.472 -0.185 0.133 3 
0.474 -0.195 0.134 3 
0.474 -0.206 0.134 3 
0.474 -0.215 0.134 3 
0.465 0.243 0.124 3 
0.475 -0.219 0.134 3 
0.465 0.084 0.063 3 
0.466 0.344 0.132 3 
0.463 0.333 0.131 3 
0.466 0.333 0.132 3 
0.464 0.236 0.129 3 
0.464 0.254 0.115 3 
0.466 0.014 0.063 3 
0.475 -0.225 0.132 3 
0.475 -0.237 0.132 3 
0.475 -0.246 0.132 3 
0.465 0.253 0.082 3 
0.467 0.304 0.123 3 
0.47 -0.097 0.123 3 
0.476 -0.288 0.093 3 
0.47 -0.105 0.123 3 
0.469 -0.127 0.123 3 
0.47 -0.136 0.124 3 
0.471 -0.145 0.124 3 
0.465 0.341 0.094 3 
0.471 -0.167 0.124 3 
0.471 -0.176 0.124 3 
0.466 0.333 0.123 3 
0.466 0.323 0.123 3 
0.466 0.313 0.123 3 
0.471 -0.086 0.123 3 
0.467 0.294 0.122 3 
0.464 0.062 0.119 3 
0.305 0.014 0.086 3 
0.475 -0.295 0.044 3 
0.472 -0.185 0.122 3 
0.474 -0.195 0.122 3 
0.474 -0.206 0.123 3 
0.474 -0.215 0.123 3 
0.475 -0.222 0.123 3 
0.368 -0.026 0.088 3 
0.475 -0.225 0.123 3 
0.474 -0.23 0.123 3 
0.467 0.112 0.123 3 
0.464 0.239 0.124 3 
0.464 0.233 0.123 3 
0.465 0.231 0.124 3 
0.464 0.224 0.123 3 
0.465 0.213 0.123 3 
0.466 0.204 0.123 3 
0.466 0.193 0.123 3 
0.466 0.184 0.123 3 
0.466 0.173 0.123 3 
0.466 0.164 0.123 3 
0.467 0.154 0.123 3 
0.466 0.134 0.122 3 
0.306 -0.004 0.091 3 
0.467 0.104 0.123 3 
0.466 0.092 0.122 3 
0.465 0.073 0.122 3 
0.465 0.062 0.122 3 
0.465 0.052 0.122 3 
0.465 0.116 0.014 3 
0.468 -0.033 0.122 3 
0.468 -0.036 0.122 3 
0.467 -0.047 0.122 3 
0.468 -0.055 0.123 3 
0.468 -0.066 0.123 3 
0.47 -0.075 0.123 3 
0.473 0.084 0.182 3 
0.474 -0.167 0.17 3 
0.471 -0.136 0.143 3 
0.47 0.163 0.183 3 
0.471 0.154 0.183 3 
0.473 0.143 0.183 3 
0.473 0.132 0.183 3 
0.475 -0.278 0.124 3 
0.474 0.124 0.183 3 
0.47 -0.105 0.134 3 
0.474 0.113 0.183 3 
0.473 0.104 0.183 3 
0.473 0.092 0.182 3 
0.467 -0.036 0.004 3 
0.47 0.174 0.183 3 
0.466 0.043 0.074 3 
0.473 0.073 0.182 3 
0.472 0.064 0.182 3 
0.47 0.053 0.181 3 
0.285 0.018 0.106 3 
0.281 0.004 0.104 3 
0.476 -0.043 0.184 3 
0.478 -0.046 0.184 3 
0.476 -0.057 0.183 3 
0.474 -0.059 0.182 3 
0.474 -0.065 0.183 3 
0.474 -0.076 0.183 3 
0.481 -0.256 0.193 3 
0.473 0.342 0.194 3 
0.472 0.334 0.194 3 
0.472 -0.147 0.094 3 
0.473 0.323 0.193 3 
0.473 0.313 0.192 3 
0.279 0.015 0.104 3 
0.474 -0.267 0.052 3 
0.278 0.013 0.104 3 
0.478 -0.236 0.191 3 
0.465 0.252 0.124 3 
0.465 0.192 0.063 3 
0.48 -0.247 0.192 3 
0.475 -0.085 0.183 3 
0.468 -0.077 0.074 3 
0.482 -0.267 0.194 3 
0.465 0.341 0.034 3 
0.484 -0.298 0.196 3 
0.484 -0.305 0.196 3 
0.463 0.314 0.014 3 
0.475 0.359 0.193 3 
0.473 0.353 0.192 3 
0.471 0.21 0.184 3 
0.47 0.203 0.184 3 
0.47 0.192 0.184 3 
0.47 0.183 0.183 3 
0.467 0.054 0.074 3 
0.291 -0.005 0.107 3 
0.474 -0.051 0.18 3 
0.468 -0.055 0.063 3 
0.474 -0.087 0.18 3 
0.474 -0.096 0.18 3 
0.475 -0.136 0.181 3 
0.476 -0.148 0.182 3 
0.476 -0.156 0.182 3 
0.476 -0.355 0.014 3 
0.477 -0.166 0.183 3 
0.477 -0.177 0.183 3 
0.478 -0.187 0.184 3 
0.462 0.049 0.175 3 
0.478 -0.196 0.184 3 
0.478 -0.208 0.184 3 
0.464 0.073 0.119 3 
0.477 -0.219 0.184 3 
0.471 -0.178 0.074 3 
0.465 0.054 0.004 3 
0.486 -0.327 0.192 3 
0.471 -0.195 0.052 3 
0.486 -0.335 0.193 3 
0.487 -0.347 0.194 3 
0.467 -0.007 0.044 3 
0.471 0.331 0.184 3 
0.483 -0.307 0.193 3 
0.466 0.233 0.163 3 
0.476 -0.096 0.184 3 
0.475 -0.107 0.184 3 
0.472 -0.167 0.102 3 
0.474 -0.113 0.183 3 
0.474 -0.115 0.183 3 
0.475 -0.119 0.184 3 
0.475 -0.127 0.184 3 
0.483 -0.277 0.192 3 
0.483 -0.287 0.192 3 
0.483 -0.297 0.192 3 
0.467 0.143 0.134 3 
0.474 0.347 0.195 3 
0.485 -0.32 0.194 3 
0.47 0.293 0.184 3 
0.465 0.18 0.033 3 
0.47 0.283 0.184 3 
0.47 0.271 0.183 3 
0.472 -0.225 0.052 3 
0.47 0.261 0.183 3 
0.469 0.251 0.182 3 
0.469 0.242 0.182 3 
0.47 0.233 0.182 3 
0.465 0.163 0.084 3 
0.471 0.222 0.182 3 
0.475 0.119 0.189 3 
0.472 0.184 0.19 3 
0.471 0.172 0.189 3 
0.471 0.163 0.189 3 
0.473 0.153 0.19 3 
0.465 0.084 0.122 3 
0.464 0.284 0.088 3 
0.473 0.144 0.189 3 
0.475 0.142 0.19 3 
0.475 -0.247 0.144 3 
0.474 0.133 0.189 3 
0.463 0.064 0.113 3 
0.474 0.124 0.189 3 
0.474 0.07 0.188 3 
0.472 0.193 0.19 3 
0.474 0.113 0.189 3 
0.469 0.279 0.174 3 
0.474 0.104 0.189 3 
0.474 0.093 0.189 3 
0.475 0.087 0.189 3 
0.474 0.082 0.188 3 
0.475 0.079 0.189 3 
0.475 0.073 0.189 3 
0.473 0.062 0.188 3 
0.472 0.053 0.187 3 
0.282 0.018 0.107 3 
0.28 0.014 0.106 3 
0.473 0.297 0.194 3 
0.478 -0.296 0.122 3 
0.475 0.352 0.199 3 
0.474 0.343 0.198 3 
0.473 0.332 0.197 3 
0.475 0.326 0.197 3 
0.474 -0.068 0.185 3 
0.47 0.212 0.173 3 
0.474 0.321 0.196 3 
0.472 -0.156 0.102 3 
0.373 0.028 0.08 3 
0.474 0.314 0.196 3 
0.473 0.303 0.195 3 
0.281 0.004 0.106 3 
0.472 0.292 0.194 3 
0.47 0.284 0.193 3 
0.47 0.274 0.192 3 
0.472 0.263 0.193 3 
0.471 0.253 0.192 3 
0.471 0.244 0.191 3 
0.472 0.232 0.191 3 
0.473 0.224 0.191 3 
0.47 -0.036 0.142 3 
0.471 0.213 0.19 3 
0.476 -0.297 0.023 3 
0.471 0.204 0.19 3 
0.483 -0.277 0.198 3 
0.477 -0.175 0.192 3 
0.478 -0.187 0.192 3 
0.479 -0.197 0.193 3 
0.48 -0.207 0.194 3 
0.474 -0.127 0.172 3 
0.479 -0.215 0.194 3 
0.479 -0.227 0.194 3 
0.479 -0.237 0.195 3 
0.48 -0.247 0.195 3 
0.481 -0.256 0.196 3 
0.465 0.083 0.023 3 
0.483 -0.268 0.197 3 
0.468 -0.066 0.074 3 
0.464 0.316 0.054 3 
0.484 -0.285 0.198 3 
0.485 -0.292 0.199 3 
0.485 -0.296 0.199 3 
0.47 -0.177 0.052 3 
0.485 -0.306 0.2 3 
0.465 0.172 0.033 3 
0.485 -0.316 0.2 3 
0.486 -0.328 0.202 3 
0.486 -0.335 0.202 3 
0.436 0.073 0.091 3 
0.487 -0.347 0.203 3 
0.478 -0.097 0.19 3 
0.285 -0.004 0.108 3 
0.469 0.173 0.174 3 
0.478 -0.043 0.19 3 
0.477 -0.046 0.19 3 
0.476 -0.057 0.189 3 
0.474 -0.205 0.154 3 
0.476 -0.065 0.189 3 
0.468 -0.132 0.014 3 
0.476 -0.077 0.189 3 
0.47 -0.045 0.153 3 
0.466 0.313 0.134 3 
0.476 -0.085 0.189 3 
0.471 0.324 0.183 3 
0.478 -0.106 0.19 3 
0.477 -0.117 0.19 3 
0.48 -0.355 0.052 3 
0.477 -0.125 0.19 3 
0.471 -0.039 0.153 3 
0.478 -0.137 0.191 3 
0.463 0.094 0.103 3 
0.48 -0.318 0.102 3 
0.479 -0.146 0.192 3 
0.479 -0.155 0.192 3 
0.469 0.344 0.184 3 
0.478 -0.166 0.192 3 
0.47 0.133 0.162 3 
0.467 0.249 0.164 3 
0.467 0.243 0.164 3 
0.467 0.224 0.163 3 
0.468 0.213 0.163 3 
0.468 0.204 0.163 3 
0.467 0.192 0.163 3 
0.468 0.184 0.163 3 
0.47 -0.116 0.123 3 
0.467 0.172 0.162 3 
0.468 0.163 0.162 3 
0.465 0.279 0.082 3 
0.468 0.152 0.162 3 
0.469 0.144 0.162 3 
0.351 0.028 0.089 3 
0.469 0.122 0.162 3 
0.326 0.025 0.112 3 
0.47 -0.056 0.153 3 
0.463 0.332 0.062 3 
0.472 -0.045 0.162 3 
0.472 -0.056 0.162 3 
0.472 -0.067 0.162 3 
0.472 -0.075 0.162 3 
0.472 -0.086 0.162 3 
0.472 -0.095 0.163 3 
0.465 0.113 0.044 3 
0.472 -0.106 0.163 3 
0.465 0.222 0.124 3 
0.478 -0.237 0.173 3 
0.478 -0.247 0.174 3 
0.472 -0.205 0.083 3 
0.478 -0.256 0.174 3 
0.484 -0.346 0.18 3 
0.469 0.113 0.164 3 
0.476 -0.317 0.014 3 
0.468 0.102 0.164 3 
0.469 0.094 0.164 3 
0.47 0.083 0.164 3 
0.47 0.072 0.164 3 
0.468 0.063 0.164 3 
0.464 0.277 0.023 3 
0.466 0.052 0.163 3 
0.471 -0.039 0.164 3 
0.474 -0.175 0.168 3 
0.474 -0.208 0.168 3 
0.474 -0.217 0.169 3 
0.479 -0.266 0.172 3 
0.464 0.102 0.084 3 
0.48 -0.277 0.172 3 
0.479 -0.286 0.172 3 
0.481 -0.298 0.174 3 
0.467 0.258 0.164 3 
0.468 0.274 0.154 3 
0.474 -0.257 0.044 3 
0.474 -0.187 0.162 3 
0.469 -0.105 0.104 3 
0.474 -0.257 0.052 3 
0.467 -0.036 0.044 3 
0.475 -0.196 0.163 3 
0.466 0.114 0.052 3 
0.474 -0.199 0.162 3 
0.328 0.023 0.085 3 
0.474 -0.205 0.163 3 
0.471 -0.167 0.033 3 
0.474 -0.217 0.163 3 
0.475 -0.22 0.163 3 
0.466 0.123 0.122 3 
0.474 -0.285 0.012 3 
0.476 -0.227 0.164 3 
0.476 -0.236 0.164 3 
0.477 -0.246 0.164 3 
0.468 0.333 0.162 3 
0.464 0.334 0.123 3 
0.465 0.049 0.154 3 
0.325 0.024 0.109 3 
0.476 -0.257 0.162 3 
0.477 -0.268 0.162 3 
0.478 -0.275 0.163 3 
0.479 -0.286 0.164 3 
0.47 -0.166 0.022 3 
0.473 -0.115 0.163 3 
0.474 -0.126 0.164 3 
0.473 -0.135 0.163 3 
0.472 -0.145 0.163 3 
0.48 -0.357 0.13 3 
0.472 -0.157 0.164 3 
0.474 -0.276 0.078 3 
0.474 -0.187 0.165 3 
0.474 -0.199 0.165 3 
0.467 0.063 0.144 3 
0.482 -0.315 0.172 3 
0.483 -0.327 0.173 3 
0.456 0.06 0.094 3 
0.484 -0.338 0.173 3 
0.484 -0.346 0.174 3 
0.466 0.338 0.164 3 
0.469 0.321 0.164 3 
0.398 0.023 0.078 3 
0.469 0.314 0.164 3 
0.468 0.303 0.163 3 
0.468 0.293 0.163 3 
0.466 0.263 0.063 3 
0.468 0.284 0.163 3 
0.468 0.271 0.162 3 
0.473 -0.175 0.162 3 
0.466 -0.047 0.004 3 
0.475 -0.247 0.152 3 
0.472 0.123 0.174 3 
0.47 -0.097 0.143 3 
0.471 0.114 0.174 3 
0.47 0.103 0.173 3 
0.466 0.142 0.123 3 
0.471 0.094 0.173 3 
0.472 0.084 0.174 3 
0.471 0.072 0.173 3 
0.469 0.064 0.172 3 
0.288 0.014 0.104 3 
0.465 0.273 0.102 3 
0.303 -0.005 0.109 3 
0.472 0.134 0.174 3 
0.473 -0.042 0.173 3 
0.474 -0.045 0.174 3 
0.473 -0.056 0.174 3 
0.472 -0.067 0.173 3 
0.466 0.103 0.044 3 
0.463 0.214 0.013 3 
0.472 -0.075 0.173 3 
0.473 -0.087 0.174 3 
0.474 -0.096 0.174 3 
0.473 -0.106 0.174 3 
0.464 0.242 0.104 3 
0.473 -0.115 0.174 3 
0.479 -0.245 0.183 3 
0.471 0.314 0.183 3 
0.464 0.287 0.085 3 
0.47 0.303 0.182 3 
0.466 0.049 0.174 3 
0.465 0.224 0.054 3 
0.287 0.017 0.104 3 
0.285 -0.001 0.104 3 
0.474 -0.043 0.177 3 
0.474 -0.13 0.178 3 
0.474 -0.135 0.178 3 
0.476 -0.225 0.181 3 
0.477 -0.235 0.182 3 
0.474 -0.147 0.175 3 
0.479 -0.257 0.183 3 
0.48 -0.268 0.184 3 
0.484 -0.315 0.188 3 
0.467 0.349 0.181 3 
0.467 -0.007 0.063 3 
0.468 0.196 0.174 3 
0.468 0.193 0.174 3 
0.464 0.274 0.032 3 
0.469 0.182 0.174 3 
0.468 0.164 0.174 3 
0.47 0.153 0.174 3 
0.471 0.142 0.174 3 
0.468 0.304 0.172 3 
0.469 -0.096 0.052 3 
0.476 -0.177 0.174 3 
0.476 -0.186 0.174 3 
0.467 -0.085 0.012 3 
0.484 -0.325 0.182 3 
0.484 -0.335 0.183 3 
0.485 -0.347 0.184 3 
0.466 0.346 0.174 3 
0.467 0.344 0.174 3 
0.468 0.334 0.174 3 
0.47 0.323 0.174 3 
0.469 0.311 0.173 3 
0.475 -0.167 0.173 3 
0.468 0.294 0.172 3 
0.403 0.041 0.087 3 
0.311 0.022 0.11 3 
0.311 -0.005 0.11 3 
0.4 -0.03 0.089 3 
0.476 -0.197 0.172 3 
0.476 -0.206 0.172 3 
0.466 0.114 0.063 3 
0.475 -0.215 0.172 3 
0.473 -0.166 0.164 3 
0.475 -0.217 0.154 3 
0.477 -0.228 0.173 3 
0.468 0.262 0.173 3 
0.481 -0.275 0.182 3 
0.497 -0.292 0.188 3 
0.481 -0.285 0.182 3 
0.467 0.292 0.142 3 
0.482 -0.296 0.183 3 
0.481 -0.305 0.183 3 
0.483 -0.317 0.184 3 
0.473 -0.188 0.094 3 
0.484 -0.325 0.185 3 
0.469 0.272 0.174 3 
0.481 -0.308 0.174 3 
0.464 0.335 0.137 3 
0.296 0.014 0.096 3 
0.343 -0.007 0.084 3 
0.468 0.253 0.173 3 
0.469 0.244 0.173 3 
0.474 -0.257 0.072 3 
0.469 0.232 0.173 3 
0.463 -0.046 0.092 3 
0.469 0.223 0.173 3 
0.3 0.021 0.107 3 
0.473 -0.135 0.172 3 
0.473 -0.146 0.172 3 
0.474 -0.155 0.173 3 
0.475 -0.164 0.173 3 
0.467 -0.055 0.034 3 
0.464 0.262 0.049 3 
0.464 0.252 0.049 3 
0.464 0.171 0.046 3 
0.464 0.163 0.046 3 
0.463 0.339 0.042 3 
0.462 0.334 0.042 3 
0.464 0.313 0.043 3 
0.463 0.302 0.043 3 
0.468 -0.066 0.044 3 
0.465 0.284 0.043 3 
0.464 0.277 0.043 3 
0.464 0.271 0.043 3 
0.463 0.261 0.043 3 
0.464 0.277 0.049 3 
0.464 0.223 0.021 3 
0.464 0.252 0.043 3 
0.465 0.244 0.043 3 
0.465 0.232 0.043 3 
0.465 0.224 0.043 3 
0.465 0.212 0.043 3 
0.465 0.203 0.043 3 
0.464 0.194 0.044 3 
0.465 0.192 0.044 3 
0.465 0.172 0.044 3 
0.464 0.166 0.044 3 
0.465 0.163 0.044 3 
0.471 -0.155 0.052 3 
0.467 -0.015 0.052 3 
0.467 -0.025 0.052 3 
0.463 0.283 0.012 3 
0.467 -0.036 0.052 3 
0.468 -0.047 0.052 3 
0.468 -0.055 0.052 3 
0.468 -0.085 0.052 3 
0.47 -0.105 0.052 3 
0.47 -0.116 0.052 3 
0.47 -0.127 0.052 3 
0.471 -0.135 0.052 3 
0.471 -0.147 0.052 3 
0.464 0.16 0.044 3 
0.471 -0.166 0.052 3 
0.47 -0.186 0.052 3 
0.472 -0.205 0.052 3 
0.472 -0.216 0.052 3 
0.473 -0.235 0.052 3 
0.474 -0.245 0.052 3 
0.473 -0.275 0.052 3 
0.475 -0.295 0.052 3 
0.476 -0.306 0.052 3 
0.478 -0.318 0.052 3 
0.479 -0.326 0.052 3 
0.479 -0.336 0.052 3 
0.48 -0.348 0.043 3 
0.471 -0.187 0.044 3 
0.471 -0.195 0.044 3 
0.471 -0.207 0.044 3 
0.472 -0.216 0.044 3 
0.473 -0.226 0.044 3 
0.473 -0.235 0.044 3 
0.473 -0.247 0.044 3 
0.473 -0.266 0.044 3 
0.474 -0.285 0.044 3 
0.476 -0.306 0.044 3 
0.477 -0.317 0.043 3 
0.479 -0.336 0.043 3 
0.471 -0.175 0.044 3 
0.479 -0.358 0.043 3 
0.464 0.293 0.04 3 
0.464 0.243 0.04 3 
0.464 0.182 0.041 3 
0.475 -0.282 0.041 3 
0.464 0.197 0.038 3 
0.474 -0.356 0.037 3 
0.463 0.335 0.034 3 
0.463 0.332 0.034 3 
0.463 0.322 0.034 3 
0.463 0.312 0.034 3 
0.464 0.302 0.034 3 
0.468 -0.015 0.044 3 
0.465 0.152 0.044 3 
0.466 0.144 0.044 3 
0.465 0.133 0.044 3 
0.465 0.124 0.044 3 
0.466 0.092 0.044 3 
0.466 0.084 0.044 3 
0.466 0.073 0.044 3 
0.467 0.054 0.044 3 
0.466 0.032 0.044 3 
0.466 0.024 0.044 3 
0.466 0.014 0.044 3 
0.467 0.003 0.044 3 
0.467 -0.007 0.052 3 
0.468 -0.025 0.044 3 
0.468 -0.047 0.044 3 
0.469 -0.055 0.044 3 
0.467 -0.077 0.044 3 
0.468 -0.085 0.044 3 
0.47 -0.096 0.044 3 
0.47 -0.105 0.044 3 
0.47 -0.116 0.044 3 
0.47 -0.127 0.044 3 
0.471 -0.135 0.044 3 
0.471 -0.147 0.044 3 
0.471 -0.155 0.044 3 
0.469 -0.066 0.063 3 
0.465 0.163 0.063 3 
0.466 0.144 0.063 3 
0.466 0.133 0.063 3 
0.466 0.103 0.063 3 
0.465 0.094 0.063 3 
0.467 0.073 0.063 3 
0.466 0.054 0.063 3 
0.466 0.024 0.063 3 
0.466 0.003 0.063 3 
0.467 -0.015 0.063 3 
0.467 -0.025 0.063 3 
0.468 -0.036 0.063 3 
0.468 -0.047 0.063 3 
0.465 0.172 0.063 3 
0.464 0.157 0.03 3 
0.469 -0.077 0.063 3 
0.468 -0.085 0.063 3 
0.469 -0.096 0.063 3 
0.47 -0.105 0.063 3 
0.47 -0.116 0.063 3 
0.48 -0.348 0.052 3 
0.47 -0.127 0.063 3 
0.47 -0.135 0.063 3 
0.471 -0.147 0.063 3 
0.471 -0.155 0.063 3 
0.471 -0.166 0.063 3 
0.465 0.314 0.062 3 
0.478 -0.306 0.114 3 
0.477 -0.315 0.073 3 
0.478 -0.325 0.073 3 
0.48 -0.337 0.073 3 
0.48 -0.348 0.073 3 
0.479 -0.358 0.073 3 
0.465 0.327 0.068 3 
0.465 0.276 0.068 3 
0.464 0.177 0.068 3 
0.474 -0.286 0.067 3 
0.465 0.327 0.062 3 
0.465 0.324 0.062 3 
0.471 -0.175 0.063 3 
0.465 0.304 0.062 3 
0.463 0.064 0.012 3 
0.464 0.297 0.062 3 
0.464 0.294 0.062 3 
0.466 0.276 0.063 3 
0.466 0.254 0.063 3 
0.467 0.003 0.052 3 
0.465 0.244 0.063 3 
0.465 0.224 0.063 3 
0.465 0.212 0.063 3 
0.465 0.203 0.063 3 
0.465 0.183 0.063 3 
0.465 0.163 0.052 3 
0.465 0.284 0.054 3 
0.465 0.272 0.054 3 
0.465 0.262 0.054 3 
0.465 0.253 0.054 3 
0.465 0.244 0.054 3 
0.465 0.232 0.054 3 
0.466 0.213 0.054 3 
0.466 0.204 0.054 3 
0.465 0.192 0.054 3 
0.465 0.183 0.054 3 
0.465 0.287 0.051 3 
0.464 0.274 0.051 3 
0.464 0.294 0.054 3 
0.466 0.153 0.052 3 
0.466 0.144 0.052 3 
0.466 0.133 0.052 3 
0.466 0.103 0.052 3 
0.465 0.094 0.052 3 
0.467 0.073 0.052 3 
0.467 0.062 0.052 3 
0.467 0.054 0.052 3 
0.466 0.043 0.052 3 
0.466 0.032 0.052 3 
0.466 0.024 0.052 3 
0.467 0.014 0.052 3 
0.475 -0.29 0.064 3 
0.464 0.214 0.019 3 
0.472 -0.187 0.063 3 
0.472 -0.196 0.064 3 
0.475 -0.289 0.044 3 
0.472 -0.216 0.064 3 
0.473 -0.226 0.064 3 
0.473 -0.235 0.064 3 
0.474 -0.248 0.064 3 
0.474 -0.257 0.064 3 
0.474 -0.267 0.064 3 
0.473 -0.275 0.064 3 
0.474 -0.286 0.064 3 
0.464 0.293 0.034 3 
0.475 -0.296 0.064 3 
0.477 -0.307 0.064 3 
0.477 -0.317 0.064 3 
0.479 -0.336 0.064 3 
0.478 -0.356 0.064 3 
0.464 0.313 0.057 3 
0.474 -0.295 0.058 3 
0.463 0.339 0.054 3 
0.463 0.332 0.054 3 
0.465 0.331 0.054 3 
0.465 0.324 0.054 3 
0.464 0.303 0.054 3 
0.464 0.274 0.012 3 
0.464 0.102 0.02 3 
0.464 0.091 0.02 3 
0.464 0.064 0.02 3 
0.464 0.054 0.02 3 
0.461 0.333 0.014 3 
0.463 0.324 0.014 3 
0.464 0.04 0.018 3 
0.464 0.032 0.018 3 
0.476 -0.307 0.014 3 
0.476 -0.327 0.014 3 
0.477 -0.335 0.014 3 
0.478 -0.346 0.013 3 
0.463 0.302 0.012 3 
0.464 0.107 0.02 3 
0.463 0.264 0.013 3 
0.462 0.254 0.013 3 
0.462 0.242 0.013 3 
0.462 0.233 0.013 3 
0.463 0.222 0.013 3 
0.463 0.202 0.014 3 
0.463 0.182 0.014 3 
0.464 0.174 0.014 3 
0.463 0.162 0.014 3 
0.463 0.154 0.014 3 
0.464 0.132 0.014 3 
0.465 0.113 0.014 3 
0.468 -0.077 0.023 3 
0.465 0.064 0.023 3 
0.465 0.054 0.023 3 
0.465 0.032 0.023 3 
0.466 0.014 0.023 3 
0.467 0.003 0.023 3 
0.467 -0.007 0.023 3 
0.467 -0.015 0.023 3 
0.466 -0.025 0.023 3 
0.466 -0.036 0.023 3 
0.466 -0.047 0.023 3 
0.466 -0.055 0.023 3 
0.466 -0.066 0.023 3 
0.464 -0.033 0.015 3 
0.468 -0.096 0.023 3 
0.468 -0.107 0.023 3 
0.468 -0.115 0.023 3 
0.468 -0.126 0.023 3 
0.469 -0.138 0.022 3 
0.47 -0.146 0.022 3 
0.47 -0.155 0.022 3 
0.47 -0.175 0.022 3 
0.471 -0.187 0.022 3 
0.471 -0.195 0.022 3 
0.464 0.203 0.019 3 
0.465 0.127 0.02 3 
0.465 0.172 0.008 3 
0.465 -0.025 0.012 3 
0.464 -0.033 0.012 3 
0.464 -0.036 0.012 3 
0.464 -0.047 0.012 3 
0.465 -0.055 0.012 3 
0.467 -0.066 0.012 3 
0.466 -0.076 0.012 3 
0.467 -0.096 0.012 3 
0.467 -0.106 0.012 3 
0.466 -0.117 0.012 3 
0.474 -0.353 0.008 3 
0.465 0.175 0.008 3 
0.466 -0.015 0.012 3 
0.465 -0.036 0.01 3 
0.465 -0.049 0.01 3 
0.465 0.073 0.004 3 
0.465 0.062 0.004 3 
0.465 0.043 0.004 3 
0.464 0.032 0.004 3 
0.47 -0.015 0.003 3 
0.467 -0.026 0.004 3 
0.468 -0.055 0.004 3 
0.468 -0.066 0.004 3 
0.47 -0.116 0.003 3 
0.465 0.03 0.002 3 
0.472 -0.255 0.013 3 
0.464 -0.041 0.015 3 
0.464 -0.047 0.015 3 
0.469 -0.146 0.014 3 
0.469 -0.157 0.014 3 
0.469 -0.166 0.014 3 
0.469 -0.177 0.014 3 
0.47 -0.186 0.014 3 
0.47 -0.195 0.014 3 
0.471 -0.216 0.013 3 
0.471 -0.225 0.013 3 
0.472 -0.235 0.013 3 
0.472 -0.247 0.013 3 
0.464 0.072 0.023 3 
0.473 -0.275 0.012 3 
0.475 -0.293 0.012 3 
0.475 -0.296 0.012 3 
0.465 0.127 0.012 3 
0.464 0.099 0.012 3 
0.463 0.094 0.012 3 
0.463 0.083 0.012 3 
0.463 0.072 0.012 3 
0.464 0.054 0.012 3 
0.465 0.046 0.012 3 
0.465 0.043 0.012 3 
0.464 0.04 0.012 3 
0.47 -0.116 0.033 3 
0.468 -0.085 0.023 3 
0.466 0.024 0.034 3 
0.466 0.014 0.034 3 
0.466 0.003 0.034 3 
0.467 -0.007 0.034 3 
0.467 -0.015 0.034 3 
0.467 -0.025 0.034 3 
0.467 -0.036 0.034 3 
0.467 -0.047 0.034 3 
0.468 -0.077 0.033 3 
0.469 -0.085 0.033 3 
0.47 -0.105 0.033 3 
0.466 0.032 0.034 3 
0.464 0.124 0.014 3 
0.469 -0.126 0.033 3 
0.47 -0.135 0.033 3 
0.471 -0.147 0.033 3 
0.471 -0.155 0.033 3 
0.471 -0.175 0.033 3 
0.471 -0.187 0.033 3 
0.471 -0.195 0.033 3 
0.471 -0.207 0.033 3 
0.472 -0.217 0.033 3 
0.473 -0.226 0.033 3 
0.473 -0.235 0.033 3 
0.465 0.163 0.033 3 
0.465 0.29 0.034 3 
0.464 0.283 0.034 3 
0.478 -0.328 0.034 3 
0.479 -0.336 0.034 3 
0.478 -0.357 0.034 3 
0.463 0.264 0.032 3 
0.463 0.252 0.032 3 
0.464 0.244 0.032 3 
0.465 0.224 0.032 3 
0.465 0.212 0.032 3 
0.465 0.203 0.032 3 
0.464 0.191 0.033 3 
0.473 -0.257 0.032 3 
0.464 0.154 0.033 3 
0.464 0.143 0.033 3 
0.465 0.141 0.033 3 
0.466 0.133 0.033 3 
0.465 0.122 0.033 3 
0.466 0.114 0.033 3 
0.467 0.103 0.033 3 
0.467 0.092 0.033 3 
0.466 0.073 0.033 3 
0.466 0.062 0.033 3 
0.466 0.054 0.033 3 
0.466 0.043 0.033 3 
0.476 -0.316 0.023 3 
0.464 0.124 0.025 3 
0.464 0.08 0.025 3 
0.464 0.072 0.026 3 
0.472 -0.208 0.024 3 
0.472 -0.217 0.024 3 
0.473 -0.226 0.024 3 
0.473 -0.257 0.024 3 
0.473 -0.265 0.024 3 
0.474 -0.275 0.024 3 
0.474 -0.285 0.024 3 
0.475 -0.289 0.024 3 
0.475 -0.305 0.023 3 
0.464 0.132 0.025 3 
0.477 -0.328 0.023 3 
0.478 -0.357 0.022 3 
0.464 0.174 0.022 3 
0.465 0.166 0.022 3 
0.464 0.163 0.022 3 
0.464 0.154 0.022 3 
0.463 0.143 0.022 3 
0.465 0.124 0.022 3 
0.465 0.113 0.022 3 
0.465 0.102 0.023 3 
0.465 0.094 0.023 3 
0.464 0.08 0.023 3 
0.461 0.333 0.023 3 
0.473 -0.266 0.032 3 
0.474 -0.275 0.032 3 
0.475 -0.286 0.032 3 
0.476 -0.296 0.032 3 
0.476 -0.306 0.032 3 
0.465 0.297 0.029 3 
0.465 0.235 0.029 3 
0.465 0.189 0.03 3 
0.474 -0.285 0.029 3 
0.465 0.284 0.026 3 
0.475 -0.283 0.026 3 
0.462 0.338 0.022 3 
0.477 -0.305 0.073 3 
0.462 0.321 0.023 3 
0.474 -0.356 0.011 3 
0.464 0.312 0.023 3 
0.465 0.284 0.023 3 
0.463 0.264 0.024 3 
0.463 0.252 0.024 3 
0.464 0.244 0.024 3 
0.464 0.232 0.024 3 
0.465 0.23 0.024 3 
0.465 0.212 0.024 3 
0.465 0.203 0.024 3 
0.465 0.183 0.024 3 
0.367 -0.008 0.083 3 
0.48 -0.355 0.103 3 
0.466 0.062 0.044 3 
0.466 0.342 0.097 3 
0.4 0.085 0.087 3 
0.425 0.084 0.09 3 
0.5 0.081 0.099 3 
0.466 0.254 0.074 3 
0.438 0.054 0.092 3 
0.389 0.034 0.085 3 
0.335 0.015 0.079 3 
0.342 0.005 0.079 3 
0.378 -0.006 0.084 3 
0.48 -0.346 0.103 3 
0.475 -0.289 0.047 3 
0.358 -0.013 0.082 3 
0.479 -0.035 0.097 3 
0.462 -0.035 0.095 3 
0.383 -0.038 0.085 3 
0.376 -0.038 0.084 3 
0.466 0.024 0.023 3 
0.391 -0.053 0.086 3 
0.468 -0.066 0.052 3 
0.463 0.336 0.094 3 
0.463 0.332 0.094 3 
0.465 0.331 0.094 3 
0.338 -0.004 0.081 3 
0.474 -0.257 0.104 3 
0.476 -0.278 0.104 3 
0.476 -0.288 0.104 3 
0.468 0.345 0.1 3 
0.408 0.088 0.09 3 
0.428 0.092 0.093 3 
0.41 0.084 0.09 3 
0.423 0.086 0.092 3 
0.473 -0.247 0.033 3 
0.408 0.074 0.09 3 
0.352 0.033 0.082 3 
0.325 0.014 0.079 3 
0.465 0.324 0.094 3 
0.37 -0.006 0.085 3 
0.366 -0.022 0.084 3 
0.387 -0.034 0.087 3 
0.465 0.132 0.003 3 
0.397 -0.038 0.089 3 
0.412 -0.045 0.091 3 
0.459 -0.069 0.097 3 
0.474 -0.267 0.101 3 
0.476 -0.297 0.102 3 
0.478 -0.306 0.102 3 
0.48 -0.325 0.103 3 
0.48 -0.335 0.103 3 
0.465 -0.036 0.092 3 
0.466 0.098 0.092 3 
0.469 0.093 0.093 3 
0.483 0.094 0.094 3 
0.506 0.098 0.097 3 
0.467 0.073 0.093 3 
0.461 0.053 0.092 3 
0.466 0.084 0.052 3 
0.431 0.041 0.088 3 
0.351 0 0.079 3 
0.355 -0.004 0.079 3 
0.415 -0.008 0.086 3 
0.465 -0.03 0.092 3 
0.46 0.104 0.092 3 
0.464 -0.038 0.092 3 
0.456 -0.055 0.091 3 
0.447 -0.056 0.09 3 
0.463 0.193 0.014 3 
0.437 -0.057 0.089 3 
0.468 -0.077 0.052 3 
0.43 -0.058 0.088 3 
0.417 -0.059 0.087 3 
0.475 -0.296 0.072 3 
0.479 -0.337 0.022 3 
0.469 -0.093 0.093 3 
0.469 -0.096 0.093 3 
0.465 0.203 0.093 3 
0.465 0.314 0.094 3 
0.465 0.304 0.094 3 
0.465 0.292 0.094 3 
0.465 0.282 0.094 3 
0.465 0.043 0.023 3 
0.464 0.272 0.093 3 
0.464 0.263 0.093 3 
0.464 0.254 0.093 3 
0.465 0.244 0.093 3 
0.465 0.233 0.093 3 
0.465 0.224 0.093 3 
0.465 0.212 0.093 3 
0.474 -0.245 0.103 3 
0.465 0.192 0.093 3 
0.465 0.183 0.093 3 
0.466 0.173 0.093 3 
0.465 0.163 0.093 3 
0.465 0.152 0.093 3 
0.466 0.144 0.093 3 
0.467 0.134 0.093 3 
0.465 0.122 0.092 3 
0.464 0.119 0.092 3 
0.474 -0.257 0.084 3 
0.462 0.113 0.092 3 
0.465 0.203 0.104 3 
0.472 -0.247 0.024 3 
0.48 -0.357 0.112 3 
0.464 0.266 0.104 3 
0.464 0.263 0.104 3 
0.464 0.254 0.104 3 
0.464 0.323 0.082 3 
0.465 0.245 0.104 3 
0.465 0.239 0.104 3 
0.465 0.233 0.104 3 
0.465 0.224 0.104 3 
0.464 0.22 0.104 3 
0.465 0.212 0.104 3 
0.48 -0.346 0.112 3 
0.465 0.192 0.104 3 
0.465 0.183 0.104 3 
0.465 0.172 0.104 3 
0.479 -0.347 0.022 3 
0.466 0.164 0.104 3 
0.465 0.152 0.103 3 
0.466 0.142 0.103 3 
0.466 0.133 0.103 3 
0.466 0.122 0.103 3 
0.465 0.114 0.103 3 
0.466 0.043 0.044 3 
0.464 0.102 0.103 3 
0.33 0.024 0.084 3 
0.48 -0.318 0.114 3 
0.48 -0.325 0.114 3 
0.474 -0.245 0.084 3 
0.464 0.337 0.108 3 
0.464 0.242 0.107 3 
0.336 0.04 0.085 3 
0.33 0.037 0.084 3 
0.465 0.232 0.032 3 
0.322 0.034 0.083 3 
0.48 -0.345 0.034 3 
0.329 0.026 0.084 3 
0.344 0.027 0.086 3 
0.465 0.092 0.103 3 
0.326 0.001 0.083 3 
0.337 -0.005 0.085 3 
0.462 0.294 0.012 3 
0.327 -0.008 0.083 3 
0.312 -0.008 0.081 3 
0.315 -0.01 0.081 3 
0.471 -0.155 0.074 3 
0.333 -0.017 0.084 3 
0.342 -0.019 0.086 3 
0.474 -0.236 0.109 3 
0.474 -0.245 0.109 3 
0.355 0.034 0.084 3 
0.466 0.322 0.103 3 
0.466 0.312 0.103 3 
0.465 0.301 0.102 3 
0.466 0.293 0.102 3 
0.466 0.283 0.102 3 
0.465 0.097 0.1 3 
0.44 0.084 0.097 3 
0.463 0.182 0.022 3 
0.385 0.063 0.089 3 
0.36 0.045 0.085 3 
0.345 0.039 0.083 3 
0.342 0.033 0.083 3 
0.347 0.005 0.079 3 
0.364 0.034 0.086 3 
0.372 0.033 0.087 3 
0.452 0.021 0.078 3 
0.349 -0.005 0.084 3 
0.346 -0.015 0.083 3 
0.471 -0.147 0.102 3 
0.474 -0.186 0.103 3 
0.474 -0.197 0.103 3 
0.473 -0.205 0.103 3 
0.474 -0.218 0.103 3 
0.474 -0.227 0.103 3 
0.474 -0.236 0.103 3 
0.468 -0.069 0.104 3 
0.378 0.054 0.09 3 
0.355 0.044 0.086 3 
0.343 0.04 0.084 3 
0.42 0.032 0.08 3 
0.347 0.039 0.085 3 
0.469 -0.096 0.033 3 
0.304 0.009 0.078 3 
0.478 -0.325 0.043 3 
0.346 -0.005 0.085 3 
0.339 -0.016 0.084 3 
0.351 -0.02 0.086 3 
0.464 0.302 0.023 3 
0.475 -0.283 0.072 3 
0.468 -0.077 0.104 3 
0.47 -0.086 0.104 3 
0.47 -0.097 0.104 3 
0.469 -0.116 0.104 3 
0.466 0.272 0.063 3 
0.47 -0.127 0.104 3 
0.47 -0.135 0.104 3 
0.473 -0.235 0.024 3 
0.464 0.34 0.103 3 
0.464 0.333 0.103 3 
0.466 0.332 0.103 3 
0.475 -0.274 0.081 3 
0.473 -0.235 0.083 3 
0.473 -0.266 0.084 3 
0.462 0.142 0.014 3 
0.475 -0.277 0.084 3 
0.476 -0.287 0.084 3 
0.476 -0.297 0.084 3 
0.478 -0.316 0.084 3 
0.462 0.032 0.079 3 
0.455 0.024 0.078 3 
0.46 0.014 0.079 3 
0.467 0.006 0.079 3 
0.468 0.003 0.079 3 
0.477 0.001 0.08 3 
0.473 -0.226 0.083 3 
0.48 -0.327 0.082 3 
0.48 -0.337 0.082 3 
0.48 -0.348 0.082 3 
0.48 -0.359 0.082 3 
0.465 0.273 0.077 3 
0.461 0.336 0.074 3 
0.461 0.333 0.074 3 
0.464 0.323 0.074 3 
0.465 0.317 0.074 3 
0.465 0.304 0.074 3 
0.464 0.284 0.074 3 
0.464 0.272 0.074 3 
0.466 -0.065 0.082 3 
0.465 0.206 0.082 3 
0.469 -0.107 0.093 3 
0.464 0.152 0.082 3 
0.465 0.114 0.082 3 
0.465 0.04 0.082 3 
0.454 0.034 0.081 3 
0.434 0.027 0.079 3 
0.409 0.022 0.077 3 
0.382 0.018 0.075 3 
0.42 0.005 0.078 3 
0.464 0.287 0.074 3 
0.468 -0.025 0.082 3 
0.465 0.262 0.074 3 
0.467 -0.077 0.082 3 
0.468 -0.085 0.082 3 
0.47 -0.097 0.082 3 
0.47 -0.105 0.082 3 
0.47 -0.116 0.082 3 
0.469 -0.127 0.082 3 
0.471 -0.147 0.083 3 
0.471 -0.155 0.083 3 
0.47 -0.166 0.083 3 
0.471 -0.178 0.083 3 
0.472 -0.196 0.083 3 
0.473 -0.217 0.083 3 
0.465 0.024 0.071 3 
0.467 -0.025 0.074 3 
0.467 -0.036 0.074 3 
0.468 -0.055 0.074 3 
0.469 -0.085 0.074 3 
0.469 -0.096 0.074 3 
0.469 -0.107 0.074 3 
0.47 -0.116 0.074 3 
0.471 -0.127 0.074 3 
0.471 -0.135 0.074 3 
0.47 -0.146 0.074 3 
0.471 -0.166 0.074 3 
0.465 0.269 0.071 3 
0.467 -0.015 0.074 3 
0.472 -0.187 0.072 3 
0.473 -0.196 0.072 3 
0.473 -0.205 0.072 3 
0.466 0.084 0.033 3 
0.473 -0.217 0.072 3 
0.465 0.124 0.052 3 
0.473 -0.226 0.072 3 
0.473 -0.235 0.072 3 
0.474 -0.245 0.072 3 
0.474 -0.267 0.072 3 
0.474 -0.276 0.072 3 
0.475 -0.286 0.072 3 
0.465 0.114 0.074 3 
0.465 0.241 0.074 3 
0.465 0.232 0.074 3 
0.465 0.212 0.074 3 
0.465 0.203 0.074 3 
0.465 0.192 0.074 3 
0.465 0.183 0.074 3 
0.465 0.172 0.074 3 
0.465 0.163 0.074 3 
0.465 0.152 0.074 3 
0.465 0.144 0.074 3 
0.466 0.133 0.074 3 
0.466 0.122 0.074 3 
0.465 0.183 0.082 3 
0.465 0.103 0.074 3 
0.466 0.092 0.074 3 
0.466 0.084 0.074 3 
0.466 0.073 0.074 3 
0.467 0.062 0.074 3 
0.464 0.032 0.074 3 
0.465 0.027 0.074 3 
0.464 0.024 0.074 3 
0.464 0.014 0.074 3 
0.465 0.011 0.074 3 
0.465 0.003 0.074 3 
0.466 -0.007 0.074 3 
0.339 0.012 0.074 3 
0.464 0.293 0.023 3 
0.476 -0.297 0.093 3 
0.477 -0.305 0.093 3 
0.479 -0.317 0.093 3 
0.479 -0.327 0.094 3 
0.481 -0.339 0.094 3 
0.48 -0.348 0.094 3 
0.479 -0.358 0.094 3 
0.464 0.223 0.087 3 
0.463 0.094 0.087 3 
0.448 0.041 0.085 3 
0.355 0.022 0.076 3 
0.373 0.019 0.078 3 
0.475 -0.277 0.092 3 
0.465 -0.055 0.087 3 
0.465 -0.065 0.087 3 
0.466 -0.076 0.087 3 
0.474 -0.276 0.09 3 
0.464 0.323 0.085 3 
0.464 0.214 0.085 3 
0.464 0.211 0.084 3 
0.465 0.189 0.084 3 
0.465 0.172 0.084 3 
0.472 -0.187 0.083 3 
0.464 0.274 0.023 3 
0.465 0.152 0.084 3 
0.464 0.157 0.09 3 
0.469 -0.116 0.093 3 
0.469 -0.127 0.093 3 
0.464 0.194 0.024 3 
0.47 -0.135 0.093 3 
0.472 -0.156 0.094 3 
0.471 -0.167 0.094 3 
0.471 -0.175 0.094 3 
0.473 -0.197 0.094 3 
0.474 -0.206 0.094 3 
0.468 0.345 0.092 3 
0.465 0.247 0.09 3 
0.466 0.043 0.063 3 
0.464 0.157 0.084 3 
0.466 0.084 0.09 3 
0.349 0.018 0.077 3 
0.365 -0.002 0.079 3 
0.376 -0.004 0.08 3 
0.465 -0.049 0.09 3 
0.462 -0.065 0.089 3 
0.474 -0.215 0.092 3 
0.473 -0.226 0.092 3 
0.473 -0.235 0.092 3 
0.473 -0.257 0.092 3 
0.464 0.313 0.054 3 
0.474 -0.267 0.092 3 
0.464 0.34 0.083 3 
0.472 -0.205 0.064 3 
0.345 0.014 0.073 3 
0.464 0.284 0.063 3 
0.465 0.224 0.024 3 
0.355 0.007 0.074 3 
0.398 0.004 0.078 3 
0.414 -0.001 0.08 3 
0.467 0.062 0.063 3 
0.466 -0.036 0.084 3 
0.466 -0.047 0.084 3 
0.465 -0.06 0.084 3 
0.386 0.02 0.077 3 
0.462 0.334 0.082 3 
0.465 0.317 0.082 3 
0.465 0.244 0.082 3 
0.465 0.314 0.082 3 
0.465 0.301 0.082 3 
0.465 0.26 0.082 3 
0.465 0.291 0.082 3 
0.464 0.284 0.082 3 
0.464 0.272 0.082 3 
0.464 0.263 0.082 3 
0.465 0.084 0.084 3 
0.466 0.144 0.084 3 
0.466 0.133 0.084 3 
0.465 0.215 0.082 3 
0.466 0.122 0.084 3 
0.464 0.113 0.084 3 
0.465 0.097 0.084 3 
0.465 0.138 0.006 3 
0.464 0.223 0.082 3 
0.465 0.232 0.082 3 
0.464 0.094 0.084 3 
0.465 0.092 0.084 3 
0.367 0.006 0.075 3 
0.461 0.337 0.014 3 
0.466 0.073 0.084 3 
0.468 -0.047 0.074 3 
0.465 0.062 0.084 3 
0.465 0.054 0.084 3 
0.464 0.051 0.084 3 
0.462 0.043 0.084 3 
0.444 0.038 0.082 3 
0.4 0.025 0.078 3 
0.561 -0.115 0.104 3 
0.564 -0.105 0.104 3 
0.558 -0.117 0.107 3 
0.564 -0.105 0.108 3 
0.553 -0.109 0.106 3 
0.543 -0.079 0.112 3 
0.56 -0.068 0.121 3 
0.557 -0.064 0.121 3 
0.557 -0.078 0.114 3 
0.544 -0.069 0.115 3 
0.55 -0.067 0.116 3 
