# .PCD v0.7 - Point Cloud Data file
FIELDS x y z intensity
SIZE 4 4 4 4
TYPE F F F F
COUNT 1 1 1 1
WIDTH 2460
HEIGHT 1
VIEWPOINT 0 0 0 1 0 0 0
POINTS 2460
DATA ascii
0.335 -0.002 0.001 0 
0.374 -0.241 -0.026 1 
0.375 -0.22 -0.025 1 
0.364 -0.165 -0.019 1 
0.364 -0.155 -0.018 1 
0.364 -0.153 -0.018 1 
0.363 -0.137 -0.017 1 
0.36 -0.125 -0.016 1 
0.36 -0.062 -0.015 1 
0.36 -0.037 -0.015 1 
0.352 -0.006 -0.012 1 
0.344 0.018 -0.009 1 
0.354 0.029 -0.013 1 
0.356 0.074 -0.014 1 
0.353 0.113 -0.014 1 
0.348 0.124 -0.012 1 
0.354 0.143 -0.015 1 
0.353 0.154 -0.015 1 
0.351 0.156 -0.015 1 
0.347 0.167 -0.014 1 
0.381 -0.246 -0.026 1 
0.373 -0.146 -0.019 1 
0.371 -0.136 -0.018 1 
0.366 -0.125 -0.016 1 
0.362 -0.086 -0.014 1 
0.362 -0.055 -0.014 1 
0.364 -0.043 -0.014 1 
0.362 -0.025 -0.014 1 
0.34 -0.002 -0.006 1 
0.335 0.015 -0.004 1 
0.361 0.044 -0.014 1 
0.363 0.073 -0.015 1 
0.361 0.081 -0.014 1 
0.362 0.084 -0.015 1 
0.361 0.09 -0.014 1 
0.361 0.094 -0.015 1 
0.361 0.1 -0.015 1 
0.359 0.121 -0.015 1 
0.354 0.132 -0.013 1 
0.353 0.174 -0.015 1 
0.353 0.182 -0.015 1 
0.351 0.214 -0.016 1 
0.384 -0.229 -0.024 1 
0.374 -0.195 -0.02 1 
0.374 -0.175 -0.019 1 
0.373 -0.116 -0.017 1 
0.37 -0.095 -0.015 1 
0.369 -0.093 -0.015 1 
0.368 -0.085 -0.014 1 
0.368 -0.083 -0.014 1 
0.373 -0.075 -0.016 1 
0.37 -0.045 -0.015 1 
0.37 -0.036 -0.015 1 
0.37 -0.034 -0.015 1 
0.354 -0.004 -0.009 1 
0.365 0.109 -0.014 1 
0.364 0.118 -0.014 1 
0.364 0.153 -0.015 1 
0.361 0.173 -0.016 1 
0.391 -0.255 -0.026 1 
0.391 -0.237 -0.025 1 
0.378 -0.166 -0.018 1 
0.382 -0.156 -0.019 1 
0.38 -0.126 -0.017 1 
0.379 -0.105 -0.017 1 
0.373 -0.066 -0.014 1 
0.375 -0.046 -0.014 1 
0.374 -0.036 -0.014 1 
0.373 -0.025 -0.014 1 
0.358 -0.004 -0.009 1 
0.35 0.018 -0.006 1 
0.363 0.025 -0.011 1 
0.37 0.044 -0.013 1 
0.374 0.073 -0.015 1 
0.374 0.096 -0.015 1 
0.372 0.123 -0.015 1 
0.373 0.133 -0.016 1 
0.369 0.142 -0.015 1 
0.374 0.164 -0.017 1 
0.364 0.188 -0.015 1 
0.362 0.203 -0.015 1 
0.397 -0.24 -0.025 1 
0.388 -0.215 -0.021 1 
0.384 -0.118 -0.017 1 
0.383 -0.095 -0.016 1 
0.384 -0.075 -0.016 1 
0.379 -0.066 -0.014 1 
0.379 -0.062 -0.014 1 
0.384 -0.056 -0.016 1 
0.381 -0.045 -0.015 1 
0.38 -0.041 -0.014 1 
0.383 -0.036 -0.015 1 
0.383 -0.028 -0.015 1 
0.378 -0.026 -0.014 1 
0.373 -0.016 -0.012 1 
0.369 -0.006 -0.011 1 
0.366 -0.004 -0.01 1 
0.364 0.02 -0.009 1 
0.374 0.03 -0.013 1 
0.38 0.074 -0.015 1 
0.379 0.083 -0.015 1 
0.378 0.114 -0.015 1 
0.372 0.183 -0.016 1 
0.373 0.186 -0.016 1 
0.366 0.223 -0.016 1 
0.364 0.223 -0.015 1 
0.393 -0.205 -0.02 1 
0.392 -0.157 -0.018 1 
0.391 -0.115 -0.017 1 
0.374 -0.221 -0.025 1 
0.391 -0.105 -0.017 1 
0.394 -0.085 -0.017 1 
0.389 -0.075 -0.016 1 
0.39 -0.055 -0.016 1 
0.386 -0.046 -0.014 1 
0.381 -0.016 -0.013 1 
0.383 0.033 -0.014 1 
0.384 0.035 -0.014 1 
0.385 0.043 -0.014 1 
0.385 0.047 -0.014 1 
0.384 0.053 -0.014 1 
0.384 0.069 -0.014 1 
0.384 0.099 -0.015 1 
0.382 0.124 -0.015 1 
0.381 0.144 -0.015 1 
0.379 0.154 -0.015 1 
0.382 0.164 -0.016 1 
0.373 0.238 -0.017 1 
0.404 -0.266 -0.023 1 
0.373 0.054 -0.014 1 
0.404 -0.255 -0.023 1 
0.413 -0.238 -0.025 1 
0.382 -0.215 -0.021 1 
0.403 -0.226 -0.021 1 
0.394 -0.125 -0.016 1 
0.394 -0.069 -0.015 1 
0.395 -0.056 -0.015 1 
0.395 -0.054 -0.015 1 
0.393 -0.046 -0.015 1 
0.393 -0.042 -0.014 1 
0.394 -0.036 -0.015 1 
0.394 -0.026 -0.015 1 
0.392 -0.015 -0.014 1 
0.394 -0.005 -0.015 1 
0.332 0.004 0.004 1 
0.331 0.013 0.004 1 
0.331 0.015 0.004 1 
0.382 0.021 -0.011 1 
0.392 0.053 -0.015 1 
0.391 0.063 -0.015 1 
0.392 0.073 -0.015 1 
0.392 0.084 -0.015 1 
0.39 0.093 -0.015 1 
0.391 0.102 -0.015 1 
0.39 0.123 -0.015 1 
0.384 0.151 -0.014 1 
0.38 0.244 -0.017 1 
0.412 -0.258 -0.023 1 
0.404 -0.205 -0.019 1 
0.404 -0.195 -0.018 1 
0.4 -0.146 -0.016 1 
0.4 -0.135 -0.016 1 
0.402 -0.105 -0.016 1 
0.4 -0.075 -0.015 1 
0.4 -0.07 -0.015 1 
0.399 -0.066 -0.014 1 
0.399 -0.045 -0.014 1 
0.402 -0.035 -0.015 1 
0.399 -0.016 -0.015 1 
0.399 -0.007 -0.015 1 
0.394 0.031 -0.013 1 
0.399 0.044 -0.015 1 
0.396 0.104 -0.015 1 
0.396 0.124 -0.015 1 
0.394 0.133 -0.015 1 
0.394 0.144 -0.015 1 
0.394 0.153 -0.015 1 
0.394 0.16 -0.015 1 
0.388 0.183 -0.015 1 
0.387 0.184 -0.014 1 
0.384 0.25 -0.016 1 
0.414 -0.286 -0.022 1 
0.414 -0.274 -0.022 1 
0.414 -0.247 -0.021 1 
0.412 -0.237 -0.02 1 
0.408 -0.225 -0.018 1 
0.364 -0.006 -0.011 1 
0.411 -0.216 -0.019 1 
0.404 -0.186 -0.016 1 
0.353 0.194 -0.016 1 
0.41 -0.136 -0.017 1 
0.406 -0.068 -0.014 1 
0.407 -0.051 -0.015 1 
0.403 0.034 -0.014 1 
0.404 0.043 -0.014 1 
0.391 -0.196 -0.019 1 
0.405 0.058 -0.015 1 
0.404 0.069 -0.014 1 
0.403 0.094 -0.015 1 
0.402 0.111 -0.015 1 
0.401 0.113 -0.014 1 
0.374 -0.105 -0.017 1 
0.401 0.122 -0.014 1 
0.401 0.133 -0.015 1 
0.352 0.202 -0.016 1 
0.401 0.135 -0.015 1 
0.399 0.147 -0.014 1 
0.399 0.154 -0.015 1 
0.391 0.194 -0.014 1 
0.391 0.201 -0.014 1 
0.393 0.222 -0.015 1 
0.392 0.244 -0.016 1 
0.423 -0.267 -0.021 1 
0.423 -0.258 -0.021 1 
0.417 -0.236 -0.019 1 
0.41 -0.195 -0.016 1 
0.413 -0.166 -0.016 1 
0.414 -0.157 -0.016 1 
0.391 -0.247 -0.025 1 
0.414 -0.115 -0.015 1 
0.413 -0.108 -0.015 1 
0.412 -0.105 -0.014 1 
0.414 -0.097 -0.015 1 
0.414 -0.086 -0.015 1 
0.413 -0.079 -0.014 1 
0.414 -0.077 -0.015 1 
0.414 -0.066 -0.015 1 
0.413 -0.045 -0.014 1 
0.415 -0.028 -0.015 1 
0.412 -0.008 -0.014 1 
0.413 0.038 -0.015 1 
0.41 0.053 -0.014 1 
0.411 0.066 -0.014 1 
0.413 0.073 -0.015 1 
0.411 0.093 -0.015 1 
0.408 0.135 -0.015 1 
0.407 0.152 -0.015 1 
0.404 0.164 -0.014 1 
0.404 0.172 -0.015 1 
0.404 0.184 -0.015 1 
0.403 0.193 -0.015 1 
0.397 0.214 -0.014 1 
0.402 0.223 -0.016 1 
0.4 0.234 -0.016 1 
0.396 0.243 -0.015 1 
0.423 -0.299 -0.02 1 
0.424 -0.285 -0.02 1 
0.422 -0.225 -0.017 1 
0.419 -0.215 -0.016 1 
0.422 -0.195 -0.017 1 
0.419 -0.165 -0.015 1 
0.42 -0.156 -0.015 1 
0.421 -0.135 -0.015 1 
0.419 -0.115 -0.014 1 
0.366 0.214 -0.015 1 
0.42 -0.109 -0.014 1 
0.421 -0.107 -0.015 1 
0.423 -0.096 -0.015 1 
0.421 -0.088 -0.015 1 
0.423 -0.075 -0.015 1 
0.422 -0.065 -0.015 1 
0.42 -0.056 -0.014 1 
0.419 -0.046 -0.014 1 
0.381 -0.186 -0.019 1 
0.391 -0.145 -0.017 1 
0.401 0.104 -0.014 1 
0.422 -0.035 -0.014 1 
0.419 -0.026 -0.014 1 
0.422 -0.008 -0.015 1 
0.457 -0.007 -0.025 1 
0.398 0.142 -0.014 1 
0.392 0.022 -0.006 1 
0.421 0.03 -0.015 1 
0.384 0.209 -0.017 1 
0.42 0.032 -0.014 1 
0.421 -0.081 -0.014 1 
0.421 0.037 -0.015 1 
0.41 0.143 -0.013 1 
0.412 0.153 -0.014 1 
0.411 0.164 -0.014 1 
0.402 0.194 -0.012 1 
0.409 0.21 -0.015 1 
0.404 -0.239 -0.022 1 
0.41 0.223 -0.016 1 
0.408 0.234 -0.015 1 
0.405 0.244 -0.015 1 
0.403 0.263 -0.015 1 
0.4 0.268 -0.015 1 
0.433 -0.307 -0.021 1 
0.43 -0.298 -0.02 1 
0.431 -0.287 -0.019 1 
0.433 -0.277 -0.019 1 
0.426 -0.175 -0.015 1 
0.424 -0.146 -0.014 1 
0.424 -0.144 -0.014 1 
0.428 -0.134 -0.015 1 
0.428 -0.036 -0.014 1 
0.452 -0.009 -0.021 1 
0.389 0.022 -0.003 1 
0.419 -0.175 -0.015 1 
0.424 0.044 -0.013 1 
0.423 0.062 -0.013 1 
0.422 0.074 -0.013 1 
0.423 0.093 -0.013 1 
0.419 0.103 -0.013 1 
0.419 0.122 -0.013 1 
0.414 0.194 -0.013 1 
0.398 0.059 -0.015 1 
0.412 0.212 -0.013 1 
0.417 0.224 -0.015 1 
0.416 0.234 -0.015 1 
0.415 0.243 -0.015 1 
0.41 0.249 -0.014 1 
0.411 0.253 -0.015 1 
0.41 0.257 -0.015 1 
0.407 0.273 -0.015 1 
0.433 -0.245 -0.016 1 
0.434 -0.227 -0.016 1 
0.431 -0.207 -0.014 1 
0.432 -0.205 -0.015 1 
0.382 -0.073 -0.015 1 
0.432 -0.197 -0.014 1 
0.433 -0.195 -0.015 1 
0.433 -0.192 -0.015 1 
0.433 -0.185 -0.014 1 
0.433 -0.177 -0.014 1 
0.43 -0.155 -0.013 1 
0.43 -0.145 -0.013 1 
0.432 -0.136 -0.013 1 
0.432 -0.126 -0.013 1 
0.433 -0.117 -0.013 1 
0.433 -0.107 -0.013 1 
0.433 -0.095 -0.013 1 
0.432 -0.085 -0.013 1 
0.434 -0.076 -0.013 1 
0.434 -0.066 -0.013 1 
0.432 -0.056 -0.013 1 
0.434 -0.011 -0.013 1 
0.431 0.043 -0.013 1 
0.429 0.054 -0.012 1 
0.431 0.064 -0.013 1 
0.43 0.074 -0.013 1 
0.428 0.083 -0.012 1 
0.414 -0.057 -0.015 1 
0.429 0.093 -0.013 1 
0.427 0.123 -0.013 1 
0.423 0.153 -0.012 1 
0.423 0.162 -0.012 1 
0.419 0.183 -0.012 1 
0.421 0.212 -0.013 1 
0.42 0.224 -0.013 1 
0.422 0.253 -0.015 1 
0.419 0.253 -0.014 1 
0.418 0.265 -0.015 1 
0.419 0.281 -0.015 1 
0.444 -0.32 -0.019 1 
0.441 -0.276 -0.016 1 
0.434 -0.257 -0.014 1 
0.439 -0.075 -0.012 1 
0.439 -0.065 -0.012 1 
0.438 -0.057 -0.012 1 
0.404 0.064 -0.014 1 
0.441 -0.036 -0.012 1 
0.424 0.053 -0.013 1 
0.44 -0.026 -0.012 1 
0.429 0.144 -0.011 1 
0.43 0.154 -0.012 1 
0.43 0.162 -0.012 1 
0.424 0.194 -0.011 1 
0.424 0.201 -0.011 1 
0.423 0.232 -0.012 1 
0.423 0.243 -0.012 1 
0.423 0.273 -0.014 1 
0.422 0.284 -0.014 1 
0.422 0.293 -0.014 1 
0.444 -0.3 -0.015 1 
0.445 -0.295 -0.015 1 
0.446 -0.293 -0.015 1 
0.437 -0.255 -0.012 1 
0.441 -0.247 -0.013 1 
0.413 0.103 -0.013 1 
0.442 -0.236 -0.013 1 
0.443 -0.226 -0.013 1 
0.444 -0.217 -0.013 1 
0.444 -0.195 -0.012 1 
0.443 -0.186 -0.012 1 
0.444 -0.179 -0.012 1 
0.443 -0.165 -0.012 1 
0.442 -0.157 -0.011 1 
0.444 -0.145 -0.012 1 
0.443 -0.126 -0.011 1 
0.443 -0.116 -0.011 1 
0.444 -0.106 -0.011 1 
0.444 -0.104 -0.011 1 
0.422 0.083 -0.013 1 
0.444 -0.091 -0.011 1 
0.448 -0.011 -0.012 1 
0.443 0.032 -0.011 1 
0.444 0.043 -0.011 1 
0.443 0.052 -0.011 1 
0.442 0.062 -0.011 1 
0.442 0.072 -0.011 1 
0.441 0.084 -0.011 1 
0.439 0.104 -0.011 1 
0.44 0.114 -0.011 1 
0.44 0.124 -0.011 1 
0.431 0.173 -0.01 1 
0.43 0.183 -0.01 1 
0.43 0.203 -0.01 1 
0.43 0.222 -0.011 1 
0.453 -0.317 -0.015 1 
0.442 -0.286 -0.011 1 
0.444 -0.267 -0.011 1 
0.45 -0.226 -0.012 1 
0.451 -0.216 -0.012 1 
0.45 -0.196 -0.011 1 
0.45 -0.185 -0.011 1 
0.452 -0.146 -0.011 1 
0.451 -0.135 -0.011 1 
0.449 -0.126 -0.01 1 
0.45 -0.106 -0.01 1 
0.45 -0.095 -0.01 1 
0.443 -0.205 -0.012 1 
0.451 -0.085 -0.01 1 
0.452 -0.075 -0.01 1 
0.452 -0.065 -0.01 1 
0.451 -0.055 -0.01 1 
0.453 -0.037 -0.01 1 
0.443 0.133 -0.009 1 
0.442 0.153 -0.01 1 
0.441 0.164 -0.01 1 
0.438 0.172 -0.009 1 
0.434 0.185 -0.009 1 
0.434 0.233 -0.01 1 
0.434 0.25 -0.01 1 
0.433 0.263 -0.01 1 
0.432 0.271 -0.01 1 
0.434 0.279 -0.011 1 
0.431 0.303 -0.012 1 
0.38 -0.205 -0.02 1 
0.452 -0.332 -0.013 1 
0.452 -0.296 -0.011 1 
0.453 -0.275 -0.011 1 
0.418 0.133 -0.013 1 
0.454 -0.27 -0.011 1 
0.454 -0.258 -0.011 1 
0.45 -0.246 -0.009 1 
0.454 -0.235 -0.01 1 
0.454 -0.21 -0.01 1 
0.454 -0.158 -0.009 1 
0.454 -0.118 -0.008 1 
0.453 0.034 -0.008 1 
0.441 0.142 -0.009 1 
0.453 0.036 -0.008 1 
0.454 0.054 -0.009 1 
0.454 0.062 -0.009 1 
0.453 0.072 -0.008 1 
0.452 0.093 -0.008 1 
0.452 0.103 -0.009 1 
0.45 0.134 -0.008 1 
0.411 0.192 -0.015 1 
0.442 0.183 -0.008 1 
0.441 0.204 -0.008 1 
0.439 0.243 -0.009 1 
0.443 0.273 -0.01 1 
0.441 0.283 -0.01 1 
0.444 -0.322 -0.008 1 
0.381 0.184 -0.015 1 
0.462 -0.316 -0.011 1 
0.46 -0.295 -0.01 1 
0.453 0.154 -0.007 1 
0.451 0.161 -0.007 1 
0.393 0.232 -0.016 1 
0.451 0.183 -0.007 1 
0.45 0.194 -0.007 1 
0.448 0.203 -0.007 1 
0.443 0.294 -0.008 1 
0.442 0.302 -0.009 1 
0.409 -0.036 -0.015 1 
0.439 0.312 -0.008 1 
0.463 -0.337 -0.009 1 
0.464 -0.255 -0.007 1 
0.462 -0.216 -0.006 1 
0.464 -0.197 -0.006 1 
0.464 -0.177 -0.006 1 
0.464 -0.158 -0.006 1 
0.465 -0.147 -0.006 1 
0.465 -0.139 -0.006 1 
0.464 -0.136 -0.006 1 
0.464 -0.116 -0.005 1 
0.465 -0.087 -0.005 1 
0.464 -0.076 -0.005 1 
0.382 -0.235 -0.026 1 
0.464 -0.055 -0.005 1 
0.463 -0.036 -0.005 1 
0.462 0.043 -0.005 1 
0.462 0.064 -0.005 1 
0.368 0.024 -0.011 1 
0.461 0.074 -0.005 1 
0.459 0.092 -0.005 1 
0.418 -0.148 -0.015 1 
0.461 0.112 -0.005 1 
0.46 0.122 -0.005 1 
0.456 0.173 -0.005 1 
0.456 0.184 -0.006 1 
0.455 0.202 -0.006 1 
0.455 0.211 -0.006 1 
0.454 0.213 -0.006 1 
0.452 0.223 -0.006 1 
0.452 0.234 -0.006 1 
0.452 0.243 -0.006 1 
0.449 0.252 -0.006 1 
0.452 0.264 -0.007 1 
0.444 0.317 -0.007 1 
0.459 0.133 -0.005 1 
0.47 -0.288 -0.006 1 
0.467 -0.276 -0.005 1 
0.469 -0.256 -0.005 1 
0.47 -0.245 -0.005 1 
0.471 -0.237 -0.005 1 
0.468 -0.229 -0.005 1 
0.468 -0.211 -0.005 1 
0.464 -0.036 -0.003 1 
0.41 -0.186 -0.015 1 
0.475 -0.007 -0.005 1 
0.379 0.004 0.014 1 
0.38 -0.005 -0.013 1 
0.383 0.01 0.013 1 
0.392 -0.007 -0.014 1 
0.386 0.014 0.012 1 
0.388 0.018 0.012 1 
0.464 0.064 -0.003 1 
0.455 0.272 -0.005 1 
0.454 0.284 -0.005 1 
0.454 0.293 -0.005 1 
0.452 0.3 -0.005 1 
0.455 0.307 -0.006 1 
0.453 0.314 -0.006 1 
0.45 0.321 -0.005 1 
0.451 0.325 -0.006 1 
0.472 -0.355 -0.006 1 
0.473 -0.345 -0.006 1 
0.473 -0.335 -0.005 1 
0.432 0.133 -0.012 1 
0.444 0.262 -0.01 1 
0.474 -0.325 -0.005 1 
0.364 -0.079 -0.015 1 
0.474 -0.318 -0.005 1 
0.452 -0.045 -0.01 1 
0.473 -0.311 -0.005 1 
0.392 -0.225 -0.022 1 
0.388 0.004 0.014 1 
0.404 -0.007 -0.014 1 
0.403 0.013 0.011 1 
0.402 0.019 0.011 1 
0.464 0.105 -0.001 1 
0.464 0.124 -0.001 1 
0.474 -0.329 -0.002 1 
0.474 -0.305 -0.002 1 
0.459 0.013 0.003 1 
0.462 0.024 0.002 1 
0.465 0.094 0.001 1 
0.465 0.146 0.001 1 
0.464 0.174 0 1 
0.464 0.18 0 1 
0.464 0.194 0 1 
0.462 0.204 0 1 
0.461 0.221 0 1 
0.462 0.233 0 1 
0.473 -0.352 0 1 
0.475 -0.296 0 1 
0.475 -0.271 0.001 1 
0.473 -0.215 0.002 1 
0.472 -0.205 0.002 1 
0.471 -0.196 0.002 1 
0.47 -0.186 0.003 1 
0.471 -0.156 0.003 1 
0.47 -0.147 0.003 1 
0.374 -0.208 -0.022 1 
0.424 0.107 -0.012 1 
0.469 -0.135 0.003 1 
0.47 -0.105 0.003 1 
0.47 -0.097 0.003 1 
0.468 -0.085 0.004 1 
0.467 -0.077 0.004 1 
0.414 -0.125 -0.015 1 
0.466 -0.007 0.004 1 
0.464 0.027 0.004 1 
0.409 0.133 -0.015 1 
0.465 0.032 0.004 1 
0.466 0.133 0.003 1 
0.466 0.144 0.003 1 
0.464 0.152 0.003 1 
0.465 0.164 0.003 1 
0.466 0.181 0.002 1 
0.467 0.193 0.002 1 
0.465 0.203 0.002 1 
0.465 0.212 0.002 1 
0.466 0.222 0.002 1 
0.466 0.234 0.002 1 
0.465 0.242 0.002 1 
0.465 0.251 0.001 1 
0.473 -0.355 0.002 1 
0.42 -0.085 -0.014 1 
0.477 -0.325 0.002 1 
0.477 -0.308 0.003 1 
0.474 -0.295 0.003 1 
0.474 -0.289 0.003 1 
0.475 -0.286 0.003 1 
0.475 -0.283 0.003 1 
0.474 -0.276 0.004 1 
0.473 -0.266 0.004 1 
0.476 -0.243 0.004 1 
0.474 -0.236 0.004 1 
0.474 -0.233 0.004 1 
0.359 0.104 -0.014 1 
0.475 -0.336 0.002 1 
0.465 0.183 0.005 1 
0.463 0.252 0.004 1 
0.463 -0.007 -0.016 1 
0.463 0.273 0.004 1 
0.463 0.292 0.004 1 
0.463 0.302 0.003 1 
0.463 0.311 0.003 1 
0.463 0.321 0.003 1 
0.464 0.333 0.002 1 
0.469 0.346 0.001 1 
0.475 -0.283 0.006 1 
0.475 -0.258 0.007 1 
0.434 0.288 -0.012 1 
0.464 0.003 0.01 1 
0.46 -0.014 -0.01 1 
0.464 0.014 0.01 1 
0.466 0.343 0.004 1 
0.462 0.053 -0.005 1 
0.463 0.032 -0.005 1 
0.464 -0.012 0.012 1 
0.404 -0.156 -0.017 1 
0.465 -0.007 0.012 1 
0.466 0.003 0.012 1 
0.465 0.019 0.012 1 
0.464 0.024 0.012 1 
0.464 -0.047 -0.005 1 
0.464 -0.065 -0.005 1 
0.412 0.202 -0.013 1 
0.382 -0.146 -0.017 1 
0.461 -0.086 -0.007 1 
0.464 -0.111 -0.005 1 
0.477 -0.346 0.002 1 
0.392 0.043 -0.015 1 
0.414 0.122 -0.014 1 
0.465 -0.106 -0.006 1 
0.464 -0.125 -0.005 1 
0.464 -0.149 -0.006 1 
0.465 0.102 0.004 1 
0.408 0.261 -0.014 1 
0.464 -0.166 -0.006 1 
0.464 -0.186 -0.006 1 
0.458 -0.225 -0.008 1 
0.453 -0.31 -0.012 1 
0.464 -0.249 -0.007 1 
0.459 -0.266 -0.009 1 
0.438 0.251 -0.009 1 
0.459 -0.287 -0.01 1 
0.462 -0.326 -0.012 1 
0.391 0.174 -0.015 1 
0.444 -0.279 -0.012 1 
0.414 0.112 -0.014 1 
0.372 0.113 -0.015 1 
0.438 -0.267 -0.015 1 
0.404 -0.087 -0.016 1 
0.352 0.175 -0.014 1 
0.401 0.198 -0.015 1 
0.434 -0.047 -0.013 1 
0.449 0.144 -0.008 1 
0.439 -0.245 -0.015 1 
0.469 -0.127 0.003 1 
0.459 0.143 -0.005 1 
0.451 -0.175 -0.011 1 
0.393 0.26 -0.015 1 
0.364 0.064 -0.015 1 
0.46 0.003 0.003 1 
0.472 -0.167 0.003 1 
0.474 -0.251 0.004 1 
0.36 -0.065 -0.015 1 
0.364 0.114 -0.014 1 
0.453 -0.019 -0.011 1 
0.421 -0.015 -0.014 1 
0.451 0.124 -0.009 1 
0.47 -0.295 -0.006 1 
0.462 0.242 0 1 
0.333 -0.001 -0.005 1 
0.442 -0.011 -0.013 1 
0.475 -0.249 0.007 1 
0.435 -0.231 -0.016 1 
0.354 0.164 -0.014 1 
0.373 -0.216 -0.024 1 
0.374 -0.186 -0.019 1 
0.414 -0.037 -0.014 1 
0.358 0.142 -0.015 1 
0.455 0.282 -0.005 1 
0.441 0.214 -0.008 1 
0.361 0.133 -0.014 1 
0.44 -0.045 -0.012 1 
0.41 0.064 -0.014 1 
0.403 0.174 -0.014 1 
0.464 0.083 0.004 1 
0.37 -0.067 -0.015 1 
0.423 -0.275 -0.019 1 
0.431 0.108 -0.011 1 
0.455 -0.325 -0.016 1 
0.475 -0.255 0.001 1 
0.384 0.091 -0.015 1 
0.408 0.277 -0.015 1 
0.457 0.153 -0.005 1 
0.389 0.204 -0.016 1 
0.399 0.213 -0.015 1 
0.475 -0.246 0.004 1 
0.464 0.094 0.004 1 
0.475 -0.01 -0.002 1 
0.475 -0.234 0.001 1 
0.398 0.162 -0.015 1 
0.464 0.043 -0.003 1 
0.374 0.154 -0.015 1 
0.38 0.234 -0.017 1 
0.398 -0.246 -0.025 1 
0.427 -0.158 -0.015 1 
0.396 -0.255 -0.025 1 
0.353 0.104 -0.014 1 
0.414 0.219 -0.014 1 
0.372 0.084 -0.015 1 
0.427 -0.165 -0.015 1 
0.389 -0.096 -0.016 1 
0.434 -0.235 -0.016 1 
0.373 0.094 -0.015 1 
0.474 -0.01 -0.005 1 
0.465 0.014 0.012 1 
0.433 -0.268 -0.019 1 
0.401 -0.271 -0.025 1 
0.384 0.063 -0.014 1 
0.42 0.173 -0.012 1 
0.414 -0.146 -0.016 1 
0.404 -0.165 -0.018 1 
0.419 -0.246 -0.02 1 
0.41 0.122 -0.015 1 
0.464 0.132 -0.001 1 
0.384 0.202 -0.016 1 
0.382 0.191 -0.015 1 
0.369 -0.046 -0.014 1 
0.414 -0.023 -0.015 1 
0.374 0.064 -0.015 1 
0.433 -0.216 -0.015 1 
0.363 0.164 -0.016 1 
0.414 0.174 -0.013 1 
0.389 0.251 -0.016 1 
0.462 -0.023 -0.007 1 
0.465 0.113 0.004 1 
0.398 0.054 -0.015 1 
0.459 0.084 -0.005 1 
0.364 -0.092 -0.015 1 
0.391 0.113 -0.015 1 
0.464 0.143 -0.001 1 
0.363 -0.105 -0.017 1 
0.464 0.099 0.004 1 
0.44 0.094 -0.011 1 
0.452 0.114 -0.009 1 
0.414 0.181 -0.013 1 
0.452 -0.027 -0.01 1 
0.411 0.044 -0.014 1 
0.399 0.074 -0.015 1 
0.424 0.143 -0.012 1 
0.441 -0.285 -0.016 1 
0.374 -0.228 -0.025 1 
0.464 -0.025 -0.005 1 
0.402 -0.216 -0.019 1 
0.384 -0.091 -0.016 1 
0.404 -0.183 -0.016 1 
0.412 0.084 -0.015 1 
0.452 0.273 -0.007 1 
0.391 -0.176 -0.018 1 
0.412 -0.175 -0.016 1 
0.441 -0.018 -0.013 1 
0.399 -0.055 -0.014 1 
0.399 0.084 -0.015 1 
0.362 -0.097 -0.016 1 
0.379 -0.177 -0.019 1 
0.464 0.262 0.004 1 
0.465 -0.155 -0.006 1 
0.38 -0.228 -0.025 1 
0.402 -0.095 -0.016 1 
0.444 -0.137 -0.011 1 
0.401 -0.127 -0.016 1 
0.419 0.264 -0.015 1 
0.382 0.133 -0.015 1 
0.374 -0.055 -0.014 1 
0.464 0.157 0.003 1 
0.364 -0.045 -0.014 1 
0.474 -0.336 -0.002 1 
0.433 0.104 -0.011 1 
0.373 0.233 -0.017 1 
0.434 -0.025 -0.013 1 
0.42 -0.186 -0.016 1 
0.364 -0.015 -0.013 1 
0.414 -0.209 -0.017 1 
0.43 0.033 -0.012 1 
0.363 -0.081 -0.014 1 
0.357 0.184 -0.015 1 
0.444 -0.307 -0.015 1 
0.384 0.223 -0.017 1 
0.452 0.082 -0.008 1 
0.431 -0.255 -0.016 1 
0.374 -0.159 -0.018 1 
0.379 -0.195 -0.019 1 
0.394 0.214 -0.015 1 
0.42 -0.128 -0.015 1 
0.372 0.174 -0.015 1 
0.362 0.053 -0.014 1 
0.371 0.089 -0.014 1 
0.421 -0.01 -0.014 1 
0.362 0.057 -0.014 1 
0.465 0.172 0.003 1 
0.454 0.029 -0.003 1 
0.441 0.193 -0.008 1 
0.433 -0.167 -0.014 1 
0.468 -0.268 -0.005 1 
0.404 0.254 -0.015 1 
0.463 0.283 0.004 1 
0.392 -0.186 -0.019 1 
0.362 0.143 -0.014 1 
0.474 -0.257 0.004 1 
0.36 -0.116 -0.016 1 
0.4 0.202 -0.014 1 
0.393 -0.017 -0.015 1 
0.461 -0.096 -0.007 1 
0.379 0.061 -0.015 1 
0.43 0.211 -0.011 1 
0.44 0.222 -0.008 1 
0.42 0.291 -0.016 1 
0.392 -0.165 -0.018 1 
0.413 -0.279 -0.022 1 
0.478 -0.316 0.002 1 
0.414 -0.026 -0.015 1 
0.463 0.072 -0.003 1 
0.464 0.054 -0.003 1 
0.465 -0.004 0.004 1 
0.411 0.182 -0.015 1 
0.404 -0.115 -0.017 1 
0.464 -0.206 -0.006 1 
0.451 -0.167 -0.011 1 
0.452 0.173 -0.007 1 
0.4 -0.026 -0.015 1 
0.383 0.174 -0.015 1 
0.383 0.094 -0.014 1 
0.456 0.164 -0.005 1 
0.419 -0.125 -0.014 1 
0.464 -0.277 -0.008 1 
0.44 0.233 -0.009 1 
0.465 -0.095 -0.005 1 
0.422 -0.061 -0.015 1 
0.456 0.192 -0.006 1 
0.464 0.209 0.002 1 
0.434 0.242 -0.01 1 
0.47 -0.015 -0.006 1 
0.412 -0.017 -0.014 1 
0.434 -0.023 -0.013 1 
0.465 -0.082 -0.005 1 
0.452 -0.325 -0.015 1 
0.46 -0.237 -0.009 1 
0.404 -0.245 -0.022 1 
0.384 -0.141 -0.017 1 
0.372 0.204 -0.017 1 
0.36 0.212 -0.015 1 
0.461 0.104 -0.005 1 
0.463 -0.307 -0.011 1 
0.394 -0.136 -0.016 1 
0.373 -0.166 -0.018 1 
0.406 -0.01 -0.015 1 
0.416 -0.205 -0.015 1 
0.454 -0.305 -0.015 1 
0.405 0.054 -0.015 1 
0.403 0.092 -0.014 1 
0.472 -0.176 0.002 1 
0.335 -0.002 0.029 2 
0.334 0.004 0.017 2 
0.332 0.013 0.019 2 
0.335 0.001 0.026 2 
0.332 0.015 0.025 2 
0.333 0.013 0.026 2 
0.333 0.004 0.01 2 
0.332 0.015 0.019 2 
0.476 -0.266 0.153 3 
0.479 -0.285 0.152 3 
0.478 -0.275 0.154 3 
0.465 0.183 0.044 3 
0.464 0.234 0.146 3 
0.466 0.12 0.144 3 
0.467 0.112 0.144 3 
0.475 -0.246 0.112 3 
0.467 0.104 0.144 3 
0.467 0.09 0.144 3 
0.468 0.082 0.144 3 
0.467 0.074 0.144 3 
0.467 0.052 0.144 3 
0.467 0.044 0.144 3 
0.467 0.033 0.144 3 
0.471 -0.147 0.074 3 
0.467 0.022 0.144 3 
0.468 0.003 0.144 3 
0.468 -0.006 0.144 3 
0.469 -0.015 0.144 3 
0.469 -0.025 0.144 3 
0.474 -0.225 0.149 3 
0.462 0.242 0.013 3 
0.468 -0.137 0.014 3 
0.472 -0.186 0.153 3 
0.467 0.273 0.142 3 
0.466 0.223 0.152 3 
0.47 -0.135 0.082 3 
0.472 -0.125 0.152 3 
0.472 -0.137 0.152 3 
0.464 0.336 0.062 3 
0.472 -0.145 0.152 3 
0.472 -0.157 0.152 3 
0.465 0.297 0.043 3 
0.472 -0.165 0.153 3 
0.473 -0.175 0.153 3 
0.476 -0.257 0.153 3 
0.473 -0.198 0.154 3 
0.465 0.232 0.063 3 
0.475 -0.211 0.154 3 
0.474 -0.216 0.154 3 
0.466 0.345 0.153 3 
0.466 0.341 0.153 3 
0.467 0.332 0.153 3 
0.468 0.323 0.152 3 
0.475 -0.226 0.152 3 
0.476 -0.235 0.152 3 
0.473 -0.265 0.013 3 
0.471 -0.185 0.144 3 
0.47 -0.067 0.142 3 
0.467 0.022 0.103 3 
0.465 0.172 0.052 3 
0.47 -0.075 0.142 3 
0.471 -0.086 0.143 3 
0.471 -0.105 0.143 3 
0.471 -0.117 0.143 3 
0.471 -0.125 0.143 3 
0.472 -0.145 0.144 3 
0.472 -0.157 0.144 3 
0.472 -0.165 0.144 3 
0.472 -0.177 0.144 3 
0.469 -0.055 0.142 3 
0.482 -0.335 0.151 3 
0.483 -0.347 0.152 3 
0.48 -0.358 0.152 3 
0.479 -0.338 0.112 3 
0.465 0.34 0.144 3 
0.467 0.331 0.144 3 
0.467 0.321 0.143 3 
0.467 0.314 0.143 3 
0.466 0.304 0.143 3 
0.467 0.282 0.142 3 
0.467 -0.015 0.084 3 
0.466 0.214 0.143 3 
0.472 -0.106 0.163 3 
0.479 -0.305 0.152 3 
0.481 -0.317 0.153 3 
0.483 -0.326 0.154 3 
0.464 0.335 0.146 3 
0.466 0.259 0.144 3 
0.466 0.253 0.144 3 
0.465 0.243 0.144 3 
0.465 0.234 0.143 3 
0.465 0.222 0.143 3 
0.464 0.183 0.033 3 
0.479 -0.295 0.152 3 
0.466 0.203 0.143 3 
0.467 0.191 0.143 3 
0.466 0.182 0.142 3 
0.467 0.174 0.142 3 
0.472 -0.156 0.124 3 
0.467 0.162 0.142 3 
0.467 0.154 0.142 3 
0.467 0.143 0.142 3 
0.474 -0.258 0.118 3 
0.467 0.134 0.142 3 
0.469 -0.047 0.142 3 
0.468 0.344 0.162 3 
0.467 0.283 0.162 3 
0.473 -0.186 0.162 3 
0.47 -0.105 0.104 3 
0.474 -0.257 0.052 3 
0.468 -0.036 0.044 3 
0.473 -0.195 0.162 3 
0.475 -0.205 0.163 3 
0.476 -0.217 0.163 3 
0.474 -0.257 0.044 3 
0.476 -0.227 0.164 3 
0.477 -0.236 0.164 3 
0.47 0.35 0.163 3 
0.466 0.263 0.063 3 
0.474 -0.205 0.16 3 
0.472 -0.167 0.033 3 
0.477 -0.246 0.162 3 
0.477 -0.258 0.162 3 
0.478 -0.268 0.163 3 
0.479 -0.276 0.163 3 
0.479 -0.286 0.164 3 
0.479 -0.295 0.164 3 
0.485 -0.343 0.168 3 
0.485 -0.35 0.168 3 
0.465 0.232 0.154 3 
0.474 -0.196 0.165 3 
0.465 0.033 0.114 3 
0.464 0.283 0.023 3 
0.473 -0.115 0.163 3 
0.474 -0.126 0.164 3 
0.474 -0.135 0.164 3 
0.473 -0.146 0.164 3 
0.48 -0.358 0.134 3 
0.473 -0.155 0.164 3 
0.474 -0.276 0.084 3 
0.473 -0.175 0.164 3 
0.466 0.123 0.122 3 
0.467 0.206 0.154 3 
0.466 0.063 0.144 3 
0.482 -0.319 0.172 3 
0.482 -0.326 0.172 3 
0.47 -0.166 0.022 3 
0.483 -0.337 0.173 3 
0.482 -0.347 0.173 3 
0.467 0.326 0.164 3 
0.467 0.322 0.164 3 
0.466 0.314 0.163 3 
0.466 0.301 0.163 3 
0.468 0.293 0.163 3 
0.48 -0.306 0.162 3 
0.468 -0.007 0.153 3 
0.469 -0.015 0.153 3 
0.47 -0.026 0.153 3 
0.47 -0.056 0.153 3 
0.463 0.332 0.062 3 
0.47 -0.067 0.153 3 
0.471 -0.075 0.154 3 
0.472 -0.086 0.154 3 
0.471 -0.097 0.154 3 
0.474 -0.245 0.092 3 
0.471 -0.106 0.154 3 
0.472 -0.117 0.154 3 
0.469 0.003 0.153 3 
0.482 -0.318 0.163 3 
0.483 -0.326 0.163 3 
0.465 0.258 0.104 3 
0.484 -0.338 0.164 3 
0.483 -0.348 0.164 3 
0.466 0.311 0.154 3 
0.466 0.304 0.154 3 
0.467 0.292 0.154 3 
0.466 0.282 0.153 3 
0.466 0.263 0.153 3 
0.466 0.254 0.153 3 
0.468 0.113 0.153 3 
0.467 0.204 0.154 3 
0.467 0.192 0.154 3 
0.467 0.183 0.154 3 
0.467 0.171 0.153 3 
0.467 0.163 0.153 3 
0.468 0.152 0.153 3 
0.468 0.143 0.153 3 
0.467 0.123 0.063 3 
0.469 0.133 0.154 3 
0.467 0.123 0.153 3 
0.467 0.033 0.063 3 
0.465 0.244 0.152 3 
0.468 0.104 0.153 3 
0.469 0.094 0.153 3 
0.476 -0.266 0.142 3 
0.468 0.082 0.153 3 
0.467 0.074 0.152 3 
0.467 0.063 0.152 3 
0.467 0.052 0.152 3 
0.468 0.044 0.153 3 
0.468 0.033 0.153 3 
0.468 0.022 0.153 3 
0.469 0.014 0.153 3 
0.467 -0.015 0.122 3 
0.466 0.073 0.122 3 
0.466 0.062 0.122 3 
0.466 0.054 0.122 3 
0.465 0.116 0.014 3 
0.467 0.044 0.122 3 
0.465 0.033 0.122 3 
0.466 0.022 0.122 3 
0.469 -0.157 0.014 3 
0.467 0.014 0.122 3 
0.467 0.003 0.122 3 
0.466 -0.076 0.012 3 
0.467 -0.006 0.122 3 
0.467 0.093 0.122 3 
0.467 -0.025 0.122 3 
0.467 -0.036 0.122 3 
0.468 -0.047 0.123 3 
0.469 -0.055 0.123 3 
0.468 -0.066 0.123 3 
0.47 -0.077 0.123 3 
0.471 -0.086 0.123 3 
0.471 -0.097 0.124 3 
0.475 -0.287 0.093 3 
0.471 -0.105 0.124 3 
0.471 -0.128 0.124 3 
0.465 0.243 0.124 3 
0.464 0.334 0.129 3 
0.475 -0.189 0.128 3 
0.475 -0.195 0.128 3 
0.48 -0.305 0.132 3 
0.482 -0.317 0.133 3 
0.483 -0.329 0.133 3 
0.473 -0.275 0.044 3 
0.482 -0.335 0.133 3 
0.482 -0.345 0.133 3 
0.467 0.345 0.127 3 
0.466 0.265 0.124 3 
0.466 0.262 0.124 3 
0.471 -0.136 0.124 3 
0.465 0.234 0.124 3 
0.465 0.213 0.123 3 
0.466 0.204 0.123 3 
0.466 0.193 0.123 3 
0.466 0.184 0.123 3 
0.465 0.172 0.123 3 
0.465 0.164 0.123 3 
0.466 0.153 0.123 3 
0.467 0.134 0.123 3 
0.467 0.112 0.123 3 
0.467 0.104 0.123 3 
0.464 0.29 0.082 3 
0.481 -0.326 0.124 3 
0.481 -0.337 0.124 3 
0.481 -0.347 0.124 3 
0.481 -0.355 0.124 3 
0.465 0.178 0.114 3 
0.465 0.172 0.114 3 
0.479 -0.326 0.064 3 
0.466 0.156 0.114 3 
0.466 0.153 0.114 3 
0.466 0.204 0.112 3 
0.467 0.131 0.114 3 
0.467 0.123 0.114 3 
0.481 -0.309 0.123 3 
0.466 0.114 0.114 3 
0.467 0.104 0.114 3 
0.467 0.093 0.114 3 
0.466 0.084 0.114 3 
0.476 -0.316 0.043 3 
0.466 0.073 0.114 3 
0.466 0.062 0.114 3 
0.464 0.241 0.082 3 
0.466 0.054 0.114 3 
0.466 0.044 0.114 3 
0.475 0.356 0.199 3 
0.474 -0.195 0.122 3 
0.471 -0.145 0.124 3 
0.471 -0.167 0.124 3 
0.467 0.334 0.123 3 
0.466 0.323 0.123 3 
0.466 0.313 0.123 3 
0.465 0.302 0.122 3 
0.466 0.293 0.122 3 
0.466 0.284 0.122 3 
0.464 0.224 0.121 3 
0.472 -0.176 0.122 3 
0.474 -0.186 0.122 3 
0.479 -0.298 0.134 3 
0.475 -0.198 0.123 3 
0.474 -0.206 0.123 3 
0.473 -0.215 0.123 3 
0.474 -0.227 0.123 3 
0.475 -0.234 0.123 3 
0.475 -0.237 0.123 3 
0.476 -0.247 0.124 3 
0.475 -0.256 0.124 3 
0.475 -0.265 0.124 3 
0.464 0.227 0.118 3 
0.477 -0.286 0.122 3 
0.466 0.022 0.133 3 
0.466 0.134 0.133 3 
0.467 0.123 0.134 3 
0.466 0.114 0.133 3 
0.467 0.104 0.133 3 
0.467 0.093 0.133 3 
0.467 0.082 0.133 3 
0.466 -0.007 0.084 3 
0.466 0.073 0.133 3 
0.466 0.063 0.133 3 
0.467 0.052 0.133 3 
0.467 0.044 0.133 3 
0.466 0.033 0.133 3 
0.466 0.153 0.134 3 
0.467 0.014 0.133 3 
0.468 0.003 0.133 3 
0.467 -0.006 0.133 3 
0.473 -0.217 0.064 3 
0.468 -0.015 0.133 3 
0.468 -0.025 0.133 3 
0.466 0.262 0.113 3 
0.468 -0.036 0.133 3 
0.469 -0.047 0.134 3 
0.469 -0.055 0.134 3 
0.469 -0.066 0.134 3 
0.479 -0.288 0.143 3 
0.464 0.231 0.14 3 
0.472 -0.196 0.142 3 
0.473 -0.206 0.142 3 
0.474 -0.216 0.143 3 
0.475 -0.225 0.143 3 
0.476 -0.238 0.144 3 
0.476 -0.247 0.144 3 
0.476 -0.257 0.144 3 
0.474 -0.225 0.14 3 
0.466 0.142 0.114 3 
0.477 -0.277 0.142 3 
0.47 -0.075 0.134 3 
0.471 -0.207 0.013 3 
0.479 -0.295 0.143 3 
0.479 -0.305 0.143 3 
0.464 0.224 0.134 3 
0.464 0.213 0.134 3 
0.465 0.21 0.134 3 
0.465 0.202 0.134 3 
0.466 0.193 0.134 3 
0.466 0.184 0.134 3 
0.466 0.173 0.134 3 
0.466 0.162 0.134 3 
0.474 -0.227 0.134 3 
0.471 -0.125 0.132 3 
0.477 -0.317 0.032 3 
0.471 -0.136 0.132 3 
0.471 -0.145 0.132 3 
0.471 -0.156 0.133 3 
0.472 -0.165 0.133 3 
0.472 -0.177 0.133 3 
0.474 -0.186 0.133 3 
0.474 -0.195 0.134 3 
0.473 -0.206 0.134 3 
0.474 -0.215 0.134 3 
0.465 0.203 0.082 3 
0.471 -0.116 0.132 3 
0.465 0.343 0.132 3 
0.467 0.334 0.132 3 
0.475 -0.234 0.132 3 
0.475 -0.237 0.132 3 
0.475 -0.246 0.132 3 
0.465 0.253 0.082 3 
0.475 -0.265 0.133 3 
0.48 -0.348 0.064 3 
0.471 -0.167 0.044 3 
0.476 -0.275 0.133 3 
0.476 -0.285 0.133 3 
0.465 0.293 0.133 3 
0.47 -0.086 0.134 3 
0.482 -0.318 0.142 3 
0.483 -0.325 0.142 3 
0.483 -0.336 0.142 3 
0.483 -0.347 0.143 3 
0.48 -0.358 0.143 3 
0.464 0.335 0.134 3 
0.466 0.323 0.134 3 
0.467 0.344 0.124 3 
0.464 0.301 0.133 3 
0.465 0.299 0.134 3 
0.465 0.152 0.063 3 
0.465 0.311 0.074 3 
0.466 0.284 0.133 3 
0.466 0.271 0.133 3 
0.466 0.262 0.133 3 
0.464 0.132 0.022 3 
0.465 0.252 0.132 3 
0.465 0.243 0.132 3 
0.464 0.233 0.132 3 
0.465 0.231 0.132 3 
0.465 0.222 0.132 3 
0.471 -0.097 0.132 3 
0.476 0.36 0.194 3 
0.465 0.252 0.124 3 
0.465 0.192 0.063 3 
0.479 -0.246 0.192 3 
0.48 -0.255 0.192 3 
0.469 -0.077 0.074 3 
0.481 -0.266 0.193 3 
0.466 0.342 0.025 3 
0.482 -0.276 0.194 3 
0.481 -0.289 0.194 3 
0.465 0.273 0.093 3 
0.484 -0.315 0.197 3 
0.472 -0.216 0.044 3 
0.478 -0.236 0.191 3 
0.474 0.354 0.192 3 
0.473 0.342 0.191 3 
0.47 0.212 0.184 3 
0.47 0.203 0.184 3 
0.465 0.043 0.103 3 
0.47 0.192 0.184 3 
0.471 0.183 0.184 3 
0.472 0.172 0.184 3 
0.474 -0.167 0.173 3 
0.471 -0.136 0.143 3 
0.471 0.163 0.183 3 
0.471 -0.147 0.094 3 
0.463 0.322 0.054 3 
0.482 -0.286 0.198 3 
0.483 -0.297 0.199 3 
0.484 -0.309 0.2 3 
0.463 0.314 0.014 3 
0.485 -0.316 0.2 3 
0.489 -0.328 0.203 3 
0.488 -0.337 0.203 3 
0.487 -0.347 0.203 3 
0.474 0.354 0.196 3 
0.474 0.343 0.195 3 
0.474 0.331 0.194 3 
0.471 0.152 0.183 3 
0.474 0.324 0.193 3 
0.473 0.313 0.192 3 
0.472 0.037 0.184 3 
0.469 0.113 0.164 3 
0.476 -0.317 0.014 3 
0.472 0.034 0.184 3 
0.474 0.023 0.185 3 
0.474 0.003 0.185 3 
0.474 -0.009 0.185 3 
0.474 -0.015 0.185 3 
0.466 0.122 0.003 3 
0.482 -0.296 0.192 3 
0.473 -0.037 0.182 3 
0.475 -0.046 0.183 3 
0.475 -0.057 0.183 3 
0.475 -0.065 0.183 3 
0.475 -0.076 0.183 3 
0.466 0.003 0.092 3 
0.475 -0.085 0.183 3 
0.467 0.233 0.164 3 
0.477 -0.097 0.184 3 
0.477 -0.105 0.184 3 
0.472 -0.167 0.102 3 
0.476 -0.116 0.184 3 
0.473 -0.037 0.173 3 
0.466 0.142 0.134 3 
0.483 -0.307 0.193 3 
0.483 -0.318 0.194 3 
0.474 0.357 0.19 3 
0.47 0.153 0.174 3 
0.47 0.293 0.184 3 
0.465 0.177 0.033 3 
0.469 0.282 0.183 3 
0.469 0.273 0.183 3 
0.473 -0.226 0.052 3 
0.47 0.264 0.183 3 
0.473 0.073 0.182 3 
0.473 0.143 0.183 3 
0.473 0.132 0.183 3 
0.475 -0.278 0.124 3 
0.473 0.123 0.183 3 
0.47 -0.108 0.134 3 
0.473 0.112 0.183 3 
0.473 0.104 0.183 3 
0.473 0.092 0.182 3 
0.466 -0.036 0.004 3 
0.474 0.084 0.183 3 
0.466 0.043 0.074 3 
0.482 -0.277 0.197 3 
0.472 0.064 0.182 3 
0.471 0.053 0.181 3 
0.472 0.023 0.182 3 
0.472 0.014 0.182 3 
0.464 0.303 0.082 3 
0.474 0.003 0.182 3 
0.465 0.253 0.074 3 
0.474 -0.007 0.182 3 
0.481 -0.316 0.123 3 
0.474 -0.015 0.183 3 
0.472 -0.026 0.182 3 
0.464 0.232 0.027 3 
0.472 0.181 0.19 3 
0.472 0.173 0.19 3 
0.472 0.164 0.189 3 
0.473 0.153 0.19 3 
0.466 0.084 0.122 3 
0.464 0.278 0.085 3 
0.473 0.144 0.189 3 
0.473 0.132 0.189 3 
0.474 0.124 0.189 3 
0.474 0.07 0.188 3 
0.475 0.119 0.189 3 
0.475 0.113 0.189 3 
0.473 0.194 0.191 3 
0.466 0.062 0.004 3 
0.474 0.107 0.189 3 
0.468 0.284 0.174 3 
0.475 0.104 0.189 3 
0.462 0.201 0.014 3 
0.474 0.101 0.189 3 
0.474 0.093 0.189 3 
0.475 0.085 0.189 3 
0.474 0.082 0.188 3 
0.475 0.079 0.189 3 
0.475 0.073 0.189 3 
0.474 0.288 0.194 3 
0.478 -0.296 0.122 3 
0.475 0.352 0.199 3 
0.475 0.341 0.198 3 
0.475 -0.296 0.012 3 
0.474 0.333 0.197 3 
0.474 0.321 0.196 3 
0.473 -0.156 0.102 3 
0.473 0.313 0.195 3 
0.473 0.303 0.195 3 
0.473 0.297 0.194 3 
0.474 0.294 0.195 3 
0.474 0.062 0.188 3 
0.474 0.284 0.194 3 
0.471 0.272 0.193 3 
0.471 0.262 0.192 3 
0.47 0.252 0.191 3 
0.471 0.244 0.191 3 
0.472 0.232 0.191 3 
0.472 0.223 0.191 3 
0.468 -0.036 0.144 3 
0.472 0.214 0.191 3 
0.475 -0.296 0.023 3 
0.472 0.202 0.19 3 
0.48 -0.176 0.193 3 
0.478 -0.106 0.19 3 
0.478 -0.117 0.191 3 
0.477 -0.355 0.052 3 
0.478 -0.126 0.191 3 
0.47 -0.036 0.153 3 
0.479 -0.138 0.192 3 
0.479 -0.317 0.102 3 
0.479 -0.146 0.192 3 
0.478 -0.155 0.192 3 
0.469 0.344 0.184 3 
0.479 -0.167 0.192 3 
0.468 -0.066 0.074 3 
0.478 -0.097 0.19 3 
0.479 -0.185 0.193 3 
0.479 -0.197 0.193 3 
0.479 -0.206 0.193 3 
0.474 -0.127 0.172 3 
0.48 -0.216 0.194 3 
0.479 -0.227 0.194 3 
0.479 -0.237 0.195 3 
0.478 -0.245 0.195 3 
0.48 -0.255 0.195 3 
0.465 0.083 0.023 3 
0.481 -0.266 0.196 3 
0.476 -0.026 0.189 3 
0.474 0.054 0.188 3 
0.474 0.042 0.188 3 
0.474 0.034 0.188 3 
0.475 0.031 0.189 3 
0.475 0.023 0.189 3 
0.474 0.012 0.188 3 
0.475 0.009 0.189 3 
0.467 0.043 0.052 3 
0.475 0.004 0.189 3 
0.476 -0.007 0.189 3 
0.476 -0.015 0.189 3 
0.47 0.252 0.183 3 
0.475 -0.256 0.132 3 
0.475 -0.035 0.189 3 
0.475 -0.046 0.189 3 
0.476 -0.057 0.189 3 
0.474 -0.205 0.154 3 
0.475 -0.065 0.189 3 
0.468 -0.126 0.014 3 
0.476 -0.077 0.189 3 
0.47 -0.045 0.153 3 
0.466 0.313 0.134 3 
0.476 -0.085 0.189 3 
0.469 0.292 0.172 3 
0.474 -0.176 0.173 3 
0.475 -0.188 0.174 3 
0.467 -0.085 0.012 3 
0.483 -0.327 0.182 3 
0.483 -0.338 0.182 3 
0.483 -0.345 0.183 3 
0.467 0.347 0.174 3 
0.467 0.34 0.174 3 
0.467 0.333 0.173 3 
0.468 0.324 0.173 3 
0.468 0.314 0.173 3 
0.47 0.302 0.173 3 
0.474 -0.155 0.173 3 
0.474 -0.187 0.171 3 
0.475 -0.197 0.171 3 
0.477 -0.207 0.172 3 
0.467 0.114 0.063 3 
0.476 -0.215 0.172 3 
0.473 -0.166 0.164 3 
0.475 -0.22 0.154 3 
0.475 -0.227 0.172 3 
0.478 -0.237 0.173 3 
0.479 -0.248 0.174 3 
0.472 -0.205 0.083 3 
0.468 0.253 0.173 3 
0.481 -0.275 0.182 3 
0.481 -0.285 0.182 3 
0.466 0.294 0.142 3 
0.48 -0.297 0.182 3 
0.481 -0.305 0.183 3 
0.482 -0.316 0.184 3 
0.472 -0.187 0.094 3 
0.468 0.272 0.174 3 
0.481 -0.308 0.174 3 
0.464 0.342 0.143 3 
0.467 0.264 0.173 3 
0.479 -0.257 0.174 3 
0.469 0.244 0.173 3 
0.474 -0.257 0.072 3 
0.469 0.232 0.173 3 
0.469 0.223 0.173 3 
0.469 0.214 0.172 3 
0.473 -0.106 0.171 3 
0.464 0.236 0.104 3 
0.473 -0.115 0.172 3 
0.475 -0.13 0.173 3 
0.474 -0.135 0.172 3 
0.474 -0.147 0.173 3 
0.469 0.164 0.162 3 
0.466 0.266 0.164 3 
0.466 0.263 0.164 3 
0.466 0.272 0.153 3 
0.467 0.252 0.164 3 
0.467 0.243 0.164 3 
0.467 0.224 0.163 3 
0.467 0.213 0.163 3 
0.467 0.204 0.163 3 
0.467 0.192 0.163 3 
0.468 0.184 0.163 3 
0.471 -0.116 0.124 3 
0.467 0.172 0.162 3 
0.485 -0.347 0.177 3 
0.468 -0.036 0.104 3 
0.465 0.282 0.082 3 
0.469 0.153 0.162 3 
0.469 0.133 0.162 3 
0.471 -0.037 0.162 3 
0.472 -0.045 0.162 3 
0.472 -0.056 0.162 3 
0.471 -0.067 0.162 3 
0.472 -0.075 0.162 3 
0.472 -0.086 0.162 3 
0.472 -0.095 0.163 3 
0.48 -0.327 0.082 3 
0.465 0.294 0.063 3 
0.468 0.144 0.164 3 
0.469 0.119 0.164 3 
0.469 0.102 0.164 3 
0.469 0.094 0.164 3 
0.47 0.083 0.164 3 
0.469 0.074 0.164 3 
0.469 0.063 0.164 3 
0.465 0.222 0.124 3 
0.469 0.044 0.164 3 
0.47 0.033 0.164 3 
0.465 0.127 0.012 3 
0.47 0.023 0.164 3 
0.47 0.014 0.164 3 
0.47 0.003 0.164 3 
0.47 -0.007 0.164 3 
0.47 -0.015 0.164 3 
0.471 -0.026 0.164 3 
0.479 -0.266 0.172 3 
0.479 -0.276 0.172 3 
0.479 -0.286 0.172 3 
0.48 -0.297 0.173 3 
0.485 -0.34 0.177 3 
0.474 -0.115 0.178 3 
0.466 0.054 0.004 3 
0.486 -0.327 0.192 3 
0.472 -0.196 0.052 3 
0.485 -0.337 0.192 3 
0.486 -0.345 0.193 3 
0.467 -0.007 0.044 3 
0.471 0.331 0.184 3 
0.47 0.323 0.183 3 
0.47 0.313 0.182 3 
0.464 0.294 0.085 3 
0.471 0.304 0.182 3 
0.474 -0.087 0.177 3 
0.471 -0.175 0.074 3 
0.477 -0.225 0.182 3 
0.478 -0.235 0.182 3 
0.479 -0.245 0.183 3 
0.479 -0.257 0.183 3 
0.48 -0.268 0.184 3 
0.483 -0.328 0.188 3 
0.484 -0.336 0.189 3 
0.484 -0.347 0.189 3 
0.466 0.348 0.18 3 
0.468 -0.007 0.063 3 
0.468 0.202 0.174 3 
0.476 -0.125 0.181 3 
0.469 0.242 0.182 3 
0.469 0.233 0.181 3 
0.465 0.163 0.084 3 
0.47 0.224 0.182 3 
0.475 -0.043 0.18 3 
0.465 0.341 0.022 3 
0.474 -0.054 0.18 3 
0.468 -0.055 0.063 3 
0.474 -0.056 0.18 3 
0.474 -0.065 0.18 3 
0.474 -0.076 0.18 3 
0.468 0.193 0.174 3 
0.478 -0.137 0.182 3 
0.477 -0.145 0.182 3 
0.476 -0.156 0.182 3 
0.475 -0.165 0.182 3 
0.476 -0.177 0.183 3 
0.476 -0.186 0.183 3 
0.466 0.054 0.074 3 
0.477 -0.195 0.184 3 
0.468 0.014 0.144 3 
0.478 -0.205 0.184 3 
0.477 -0.219 0.184 3 
0.474 -0.09 0.174 3 
0.471 0.003 0.173 3 
0.472 -0.007 0.173 3 
0.472 -0.015 0.173 3 
0.472 -0.026 0.173 3 
0.463 0.104 0.012 3 
0.474 -0.045 0.174 3 
0.473 -0.056 0.174 3 
0.466 0.003 0.103 3 
0.473 -0.065 0.174 3 
0.466 0.103 0.044 3 
0.463 0.214 0.013 3 
0.473 -0.076 0.174 3 
0.47 0.014 0.172 3 
0.474 -0.096 0.174 3 
0.474 -0.098 0.175 3 
0.474 -0.107 0.175 3 
0.474 -0.132 0.175 3 
0.474 -0.141 0.175 3 
0.474 -0.147 0.175 3 
0.464 0.203 0.03 3 
0.474 -0.155 0.176 3 
0.474 -0.167 0.176 3 
0.474 -0.176 0.176 3 
0.464 0.244 0.085 3 
0.466 0.142 0.123 3 
0.464 0.274 0.032 3 
0.469 0.182 0.174 3 
0.469 0.173 0.174 3 
0.469 0.162 0.174 3 
0.47 0.142 0.174 3 
0.471 0.134 0.174 3 
0.477 -0.245 0.153 3 
0.471 0.123 0.174 3 
0.471 -0.097 0.143 3 
0.47 0.114 0.173 3 
0.469 0.102 0.173 3 
0.466 0.114 0.044 3 
0.47 0.094 0.173 3 
0.471 0.083 0.173 3 
0.471 0.072 0.173 3 
0.47 0.064 0.173 3 
0.47 0.053 0.173 3 
0.465 0.224 0.054 3 
0.47 0.044 0.173 3 
0.464 0.313 0.088 3 
0.47 0.034 0.173 3 
0.469 0.052 0.164 3 
0.471 0.023 0.173 3 
0.474 -0.295 0.009 3 
0.465 0.241 0.043 3 
0.465 0.232 0.043 3 
0.465 0.224 0.043 3 
0.466 0.213 0.043 3 
0.465 0.203 0.043 3 
0.465 0.192 0.044 3 
0.464 0.185 0.044 3 
0.465 0.172 0.044 3 
0.465 0.163 0.044 3 
0.465 0.152 0.044 3 
0.466 0.144 0.044 3 
0.466 0.133 0.044 3 
0.464 0.243 0.043 3 
0.466 0.122 0.044 3 
0.466 0.092 0.044 3 
0.466 0.084 0.044 3 
0.466 0.073 0.044 3 
0.467 0.054 0.044 3 
0.467 0.033 0.044 3 
0.466 0.022 0.044 3 
0.467 0.014 0.044 3 
0.468 0.003 0.044 3 
0.468 -0.015 0.044 3 
0.468 -0.025 0.044 3 
0.467 0.343 0.042 3 
0.473 -0.285 0.052 3 
0.475 -0.295 0.052 3 
0.476 -0.306 0.052 3 
0.477 -0.317 0.052 3 
0.478 -0.325 0.052 3 
0.48 -0.337 0.052 3 
0.466 0.342 0.048 3 
0.464 0.28 0.049 3 
0.464 0.262 0.049 3 
0.464 0.252 0.049 3 
0.475 -0.292 0.049 3 
0.464 0.163 0.046 3 
0.468 -0.047 0.044 3 
0.462 0.334 0.042 3 
0.464 0.313 0.043 3 
0.464 0.303 0.043 3 
0.468 -0.066 0.044 3 
0.465 0.284 0.043 3 
0.464 0.277 0.043 3 
0.464 0.274 0.043 3 
0.464 0.262 0.043 3 
0.467 -0.055 0.034 3 
0.464 0.223 0.024 3 
0.464 0.252 0.043 3 
0.464 0.174 0.036 3 
0.464 0.34 0.039 3 
0.475 -0.282 0.041 3 
0.464 0.177 0.038 3 
0.464 0.16 0.038 3 
0.463 0.339 0.034 3 
0.462 0.334 0.034 3 
0.463 0.322 0.034 3 
0.463 0.312 0.034 3 
0.464 0.302 0.034 3 
0.465 0.297 0.034 3 
0.465 0.294 0.034 3 
0.465 0.284 0.034 3 
0.477 -0.355 0.043 3 
0.478 -0.328 0.034 3 
0.478 -0.335 0.034 3 
0.479 -0.347 0.034 3 
0.478 -0.357 0.034 3 
0.464 0.262 0.032 3 
0.463 0.252 0.032 3 
0.464 0.244 0.032 3 
0.465 0.235 0.032 3 
0.465 0.232 0.032 3 
0.465 0.224 0.032 3 
0.464 0.217 0.032 3 
0.471 -0.187 0.044 3 
0.468 -0.055 0.044 3 
0.468 -0.077 0.044 3 
0.469 -0.085 0.044 3 
0.47 -0.096 0.044 3 
0.47 -0.105 0.044 3 
0.47 -0.116 0.044 3 
0.47 -0.127 0.044 3 
0.471 -0.135 0.044 3 
0.471 -0.147 0.044 3 
0.471 -0.155 0.044 3 
0.471 -0.175 0.044 3 
0.473 -0.275 0.052 3 
0.472 -0.196 0.044 3 
0.473 -0.205 0.044 3 
0.471 -0.225 0.044 3 
0.473 -0.235 0.044 3 
0.474 -0.245 0.044 3 
0.473 -0.266 0.044 3 
0.476 -0.296 0.044 3 
0.477 -0.307 0.043 3 
0.478 -0.325 0.043 3 
0.479 -0.336 0.043 3 
0.479 -0.347 0.043 3 
0.479 -0.336 0.064 3 
0.473 -0.205 0.064 3 
0.473 -0.226 0.064 3 
0.474 -0.236 0.064 3 
0.474 -0.248 0.064 3 
0.474 -0.257 0.064 3 
0.474 -0.267 0.064 3 
0.474 -0.276 0.064 3 
0.474 -0.286 0.064 3 
0.475 -0.296 0.064 3 
0.464 0.243 0.051 3 
0.477 -0.307 0.064 3 
0.478 -0.315 0.064 3 
0.475 -0.286 0.044 3 
0.478 -0.356 0.064 3 
0.464 0.154 0.052 3 
0.474 -0.295 0.061 3 
0.464 -0.055 0.012 3 
0.464 0.287 0.057 3 
0.464 0.34 0.054 3 
0.465 0.304 0.054 3 
0.464 0.294 0.054 3 
0.465 0.284 0.054 3 
0.465 0.272 0.054 3 
0.465 0.262 0.054 3 
0.47 -0.105 0.063 3 
0.467 0.014 0.063 3 
0.467 0.003 0.063 3 
0.467 -0.015 0.063 3 
0.468 -0.025 0.063 3 
0.468 -0.036 0.063 3 
0.468 -0.047 0.063 3 
0.468 -0.066 0.063 3 
0.464 0.16 0.033 3 
0.468 -0.077 0.063 3 
0.468 -0.085 0.063 3 
0.47 -0.097 0.063 3 
0.465 0.253 0.054 3 
0.471 -0.116 0.063 3 
0.48 -0.348 0.052 3 
0.471 -0.127 0.063 3 
0.471 -0.135 0.063 3 
0.471 -0.147 0.063 3 
0.471 -0.155 0.063 3 
0.471 -0.166 0.063 3 
0.471 -0.175 0.063 3 
0.464 0.214 0.024 3 
0.472 -0.187 0.063 3 
0.472 -0.196 0.064 3 
0.471 -0.127 0.052 3 
0.467 -0.015 0.052 3 
0.468 -0.025 0.052 3 
0.462 0.282 0.012 3 
0.468 -0.036 0.052 3 
0.468 -0.047 0.052 3 
0.468 -0.055 0.052 3 
0.468 -0.066 0.052 3 
0.468 -0.077 0.052 3 
0.468 -0.085 0.052 3 
0.469 -0.096 0.052 3 
0.47 -0.105 0.052 3 
0.471 -0.116 0.052 3 
0.468 -0.007 0.052 3 
0.471 -0.135 0.052 3 
0.472 -0.147 0.052 3 
0.472 -0.156 0.052 3 
0.471 -0.166 0.052 3 
0.471 -0.175 0.052 3 
0.472 -0.187 0.052 3 
0.472 -0.205 0.052 3 
0.472 -0.216 0.052 3 
0.474 -0.236 0.052 3 
0.474 -0.245 0.052 3 
0.473 -0.266 0.052 3 
0.465 0.144 0.052 3 
0.465 0.244 0.054 3 
0.465 0.232 0.054 3 
0.466 0.213 0.054 3 
0.466 0.204 0.054 3 
0.465 0.192 0.054 3 
0.465 0.183 0.054 3 
0.465 0.307 0.051 3 
0.464 0.303 0.051 3 
0.465 0.287 0.051 3 
0.465 0.163 0.052 3 
0.465 0.152 0.052 3 
0.465 0.212 0.032 3 
0.466 0.133 0.052 3 
0.466 0.114 0.052 3 
0.466 0.103 0.052 3 
0.467 0.092 0.052 3 
0.467 0.084 0.052 3 
0.467 0.073 0.052 3 
0.466 0.062 0.052 3 
0.467 0.054 0.052 3 
0.467 0.033 0.052 3 
0.467 0.022 0.052 3 
0.468 0.014 0.052 3 
0.477 -0.338 0.014 3 
0.464 0.102 0.02 3 
0.464 0.083 0.02 3 
0.464 0.07 0.02 3 
0.464 0.064 0.02 3 
0.464 0.043 0.02 3 
0.474 -0.356 0.017 3 
0.461 0.33 0.014 3 
0.463 0.324 0.014 3 
0.464 0.094 0.017 3 
0.464 0.032 0.018 3 
0.476 -0.307 0.014 3 
0.476 -0.327 0.014 3 
0.464 0.11 0.02 3 
0.477 -0.345 0.014 3 
0.463 0.302 0.012 3 
0.462 0.294 0.012 3 
0.462 0.272 0.013 3 
0.463 0.264 0.013 3 
0.462 0.254 0.013 3 
0.462 0.233 0.013 3 
0.463 0.222 0.013 3 
0.463 0.193 0.014 3 
0.463 0.182 0.014 3 
0.463 0.174 0.014 3 
0.467 -0.076 0.023 3 
0.465 0.032 0.023 3 
0.466 0.024 0.023 3 
0.466 0.014 0.023 3 
0.467 0.003 0.023 3 
0.467 -0.007 0.023 3 
0.467 -0.015 0.023 3 
0.466 -0.025 0.023 3 
0.466 -0.036 0.023 3 
0.466 -0.047 0.023 3 
0.467 -0.055 0.023 3 
0.466 -0.066 0.023 3 
0.463 0.162 0.014 3 
0.469 -0.096 0.023 3 
0.469 -0.107 0.023 3 
0.469 -0.115 0.023 3 
0.469 -0.126 0.023 3 
0.469 -0.135 0.022 3 
0.47 -0.146 0.022 3 
0.47 -0.155 0.022 3 
0.47 -0.175 0.022 3 
0.471 -0.187 0.022 3 
0.471 -0.195 0.022 3 
0.465 0.127 0.02 3 
0.465 0.073 0.007 3 
0.464 -0.02 0.012 3 
0.464 -0.025 0.012 3 
0.465 -0.028 0.012 3 
0.464 -0.036 0.012 3 
0.464 -0.047 0.012 3 
0.465 -0.052 0.012 3 
0.466 -0.057 0.012 3 
0.466 -0.065 0.012 3 
0.468 -0.096 0.012 3 
0.468 -0.107 0.012 3 
0.468 -0.115 0.012 3 
0.465 -0.036 0.01 3 
0.465 -0.015 0.012 3 
0.465 0.054 0.007 3 
0.465 0.043 0.007 3 
0.465 0.078 0.004 3 
0.465 0.073 0.004 3 
0.466 0.043 0.004 3 
0.467 -0.015 0.004 3 
0.466 -0.025 0.004 3 
0.466 -0.047 0.004 3 
0.467 -0.055 0.004 3 
0.467 -0.066 0.004 3 
0.47 -0.116 0.003 3 
0.472 -0.235 0.013 3 
0.463 0.154 0.014 3 
0.464 0.132 0.014 3 
0.465 0.113 0.014 3 
0.464 -0.025 0.015 3 
0.469 -0.146 0.014 3 
0.469 -0.166 0.014 3 
0.469 -0.177 0.014 3 
0.469 -0.186 0.014 3 
0.47 -0.195 0.014 3 
0.471 -0.216 0.013 3 
0.471 -0.225 0.013 3 
0.465 0.051 0.023 3 
0.472 -0.247 0.013 3 
0.473 -0.256 0.013 3 
0.473 -0.275 0.012 3 
0.475 -0.286 0.012 3 
0.474 -0.353 0.011 3 
0.464 0.113 0.012 3 
0.463 0.094 0.012 3 
0.463 0.083 0.012 3 
0.463 0.072 0.012 3 
0.463 0.053 0.012 3 
0.463 0.043 0.012 3 
0.471 -0.147 0.033 3 
0.467 -0.015 0.034 3 
0.467 -0.025 0.034 3 
0.467 -0.036 0.034 3 
0.467 -0.047 0.034 3 
0.469 -0.077 0.033 3 
0.469 -0.085 0.033 3 
0.47 -0.096 0.033 3 
0.471 -0.105 0.033 3 
0.47 -0.116 0.033 3 
0.464 0.124 0.014 3 
0.47 -0.127 0.033 3 
0.47 -0.135 0.033 3 
0.468 -0.007 0.033 3 
0.471 -0.155 0.033 3 
0.472 -0.176 0.033 3 
0.472 -0.187 0.033 3 
0.472 -0.196 0.033 3 
0.472 -0.205 0.033 3 
0.472 -0.217 0.033 3 
0.472 -0.226 0.033 3 
0.473 -0.235 0.033 3 
0.474 -0.245 0.032 3 
0.474 -0.257 0.032 3 
0.473 -0.266 0.032 3 
0.466 0.114 0.033 3 
0.465 0.203 0.032 3 
0.464 0.191 0.033 3 
0.465 0.189 0.033 3 
0.464 0.174 0.033 3 
0.465 0.172 0.033 3 
0.465 0.163 0.033 3 
0.464 0.154 0.033 3 
0.465 0.152 0.033 3 
0.465 0.144 0.033 3 
0.465 0.133 0.033 3 
0.465 0.124 0.033 3 
0.474 -0.275 0.032 3 
0.466 0.103 0.033 3 
0.465 0.094 0.033 3 
0.467 0.073 0.033 3 
0.466 0.062 0.033 3 
0.467 0.054 0.033 3 
0.467 0.043 0.033 3 
0.467 0.033 0.033 3 
0.468 -0.085 0.023 3 
0.466 0.024 0.034 3 
0.467 0.014 0.033 3 
0.467 0.003 0.034 3 
0.464 0.174 0.022 3 
0.472 -0.226 0.024 3 
0.473 -0.257 0.024 3 
0.474 -0.266 0.024 3 
0.474 -0.275 0.024 3 
0.474 -0.285 0.024 3 
0.475 -0.289 0.024 3 
0.477 -0.307 0.023 3 
0.476 -0.316 0.023 3 
0.477 -0.328 0.023 3 
0.478 -0.336 0.023 3 
0.476 -0.355 0.022 3 
0.464 0.183 0.022 3 
0.472 -0.217 0.024 3 
0.465 0.172 0.022 3 
0.464 0.163 0.022 3 
0.464 0.154 0.022 3 
0.464 0.143 0.022 3 
0.465 0.124 0.022 3 
0.465 0.113 0.022 3 
0.465 0.102 0.023 3 
0.465 0.094 0.023 3 
0.465 0.073 0.023 3 
0.465 0.064 0.023 3 
0.464 0.054 0.023 3 
0.474 -0.356 0.014 3 
0.475 -0.283 0.032 3 
0.476 -0.287 0.032 3 
0.476 -0.296 0.032 3 
0.477 -0.307 0.032 3 
0.464 0.286 0.029 3 
0.464 0.28 0.026 3 
0.464 0.208 0.027 3 
0.464 0.143 0.028 3 
0.463 0.336 0.022 3 
0.462 0.331 0.023 3 
0.462 0.321 0.023 3 
0.467 0.022 0.063 3 
0.463 0.314 0.023 3 
0.464 0.302 0.023 3 
0.463 0.264 0.024 3 
0.463 0.252 0.024 3 
0.463 0.243 0.024 3 
0.464 0.232 0.024 3 
0.465 0.203 0.024 3 
0.464 0.197 0.024 3 
0.464 0.132 0.025 3 
0.464 0.124 0.025 3 
0.472 -0.208 0.024 3 
0.48 -0.328 0.103 3 
0.473 -0.197 0.103 3 
0.474 -0.206 0.103 3 
0.474 -0.215 0.103 3 
0.474 -0.227 0.103 3 
0.474 -0.236 0.103 3 
0.474 -0.245 0.103 3 
0.474 -0.257 0.104 3 
0.473 -0.266 0.104 3 
0.475 -0.277 0.104 3 
0.477 -0.289 0.104 3 
0.477 -0.295 0.102 3 
0.479 -0.307 0.102 3 
0.472 -0.187 0.102 3 
0.48 -0.335 0.103 3 
0.48 -0.346 0.103 3 
0.48 -0.355 0.103 3 
0.466 0.062 0.044 3 
0.474 -0.276 0.098 3 
0.462 0.338 0.094 3 
0.463 0.332 0.094 3 
0.465 0.331 0.094 3 
0.465 0.321 0.094 3 
0.465 0.314 0.094 3 
0.465 0.304 0.094 3 
0.465 0.301 0.102 3 
0.47 -0.086 0.104 3 
0.47 -0.097 0.104 3 
0.469 -0.116 0.104 3 
0.466 0.272 0.063 3 
0.47 -0.127 0.104 3 
0.474 -0.267 0.107 3 
0.464 0.34 0.103 3 
0.464 0.333 0.103 3 
0.466 0.332 0.103 3 
0.467 0.323 0.103 3 
0.466 0.312 0.103 3 
0.465 0.292 0.094 3 
0.465 0.292 0.102 3 
0.465 0.282 0.102 3 
0.465 0.273 0.102 3 
0.464 0.269 0.102 3 
0.464 0.263 0.102 3 
0.464 0.254 0.101 3 
0.464 0.323 0.082 3 
0.471 -0.136 0.102 3 
0.472 -0.235 0.024 3 
0.471 -0.147 0.102 3 
0.472 -0.176 0.102 3 
0.468 -0.066 0.093 3 
0.466 0.062 0.092 3 
0.466 0.054 0.092 3 
0.466 0.043 0.092 3 
0.466 0.033 0.092 3 
0.466 0.022 0.092 3 
0.467 0.014 0.092 3 
0.467 -0.007 0.093 3 
0.467 -0.015 0.093 3 
0.468 -0.025 0.093 3 
0.467 -0.036 0.093 3 
0.468 -0.047 0.093 3 
0.468 -0.055 0.093 3 
0.465 0.073 0.092 3 
0.469 -0.077 0.093 3 
0.469 -0.085 0.093 3 
0.47 -0.097 0.093 3 
0.47 -0.105 0.093 3 
0.47 -0.116 0.093 3 
0.47 -0.127 0.093 3 
0.464 0.194 0.024 3 
0.47 -0.135 0.093 3 
0.472 -0.156 0.094 3 
0.472 -0.167 0.094 3 
0.471 -0.175 0.094 3 
0.466 0.192 0.093 3 
0.465 0.282 0.094 3 
0.465 0.043 0.023 3 
0.465 0.264 0.093 3 
0.466 0.103 0.074 3 
0.464 0.26 0.093 3 
0.464 0.254 0.093 3 
0.465 0.244 0.093 3 
0.465 0.233 0.093 3 
0.466 0.224 0.093 3 
0.466 0.213 0.093 3 
0.466 0.204 0.093 3 
0.47 -0.077 0.104 3 
0.465 0.183 0.093 3 
0.466 0.173 0.093 3 
0.465 0.163 0.093 3 
0.466 0.153 0.093 3 
0.466 0.144 0.093 3 
0.466 0.133 0.093 3 
0.466 0.122 0.093 3 
0.466 0.114 0.093 3 
0.466 0.103 0.093 3 
0.465 0.092 0.092 3 
0.465 0.084 0.092 3 
0.473 -0.185 0.114 3 
0.465 0.212 0.112 3 
0.466 0.193 0.112 3 
0.469 -0.055 0.112 3 
0.469 -0.066 0.112 3 
0.469 -0.077 0.112 3 
0.469 -0.085 0.112 3 
0.468 -0.066 0.033 3 
0.47 -0.097 0.112 3 
0.47 -0.105 0.112 3 
0.47 -0.116 0.113 3 
0.47 -0.127 0.113 3 
0.471 -0.136 0.113 3 
0.464 0.323 0.042 3 
0.472 -0.148 0.113 3 
0.471 -0.156 0.113 3 
0.473 -0.165 0.113 3 
0.472 -0.176 0.113 3 
0.474 -0.197 0.114 3 
0.474 -0.206 0.114 3 
0.474 -0.215 0.114 3 
0.474 -0.227 0.114 3 
0.475 -0.21 0.112 3 
0.475 -0.234 0.112 3 
0.475 -0.237 0.112 3 
0.466 0.312 0.114 3 
0.467 0.014 0.114 3 
0.467 0.003 0.114 3 
0.464 0.274 0.046 3 
0.466 -0.006 0.114 3 
0.467 -0.015 0.114 3 
0.468 -0.025 0.114 3 
0.468 -0.036 0.114 3 
0.468 -0.047 0.114 3 
0.465 0.338 0.114 3 
0.466 0.326 0.114 3 
0.466 0.322 0.114 3 
0.474 -0.248 0.112 3 
0.466 0.303 0.114 3 
0.466 0.293 0.114 3 
0.464 0.032 0.012 3 
0.465 0.283 0.113 3 
0.466 0.274 0.113 3 
0.465 0.252 0.113 3 
0.465 0.294 0.043 3 
0.465 0.243 0.113 3 
0.465 0.234 0.113 3 
0.464 0.23 0.112 3 
0.465 0.224 0.112 3 
0.465 0.073 0.103 3 
0.465 0.172 0.104 3 
0.478 -0.346 0.022 3 
0.465 0.164 0.103 3 
0.465 0.152 0.103 3 
0.466 0.142 0.103 3 
0.465 0.133 0.103 3 
0.466 0.122 0.103 3 
0.466 0.114 0.103 3 
0.467 0.043 0.044 3 
0.466 0.103 0.103 3 
0.466 0.092 0.103 3 
0.465 0.084 0.103 3 
0.466 0.184 0.104 3 
0.466 0.062 0.103 3 
0.47 -0.097 0.082 3 
0.465 0.054 0.103 3 
0.467 0.033 0.103 3 
0.467 0.014 0.103 3 
0.467 -0.007 0.103 3 
0.468 -0.015 0.103 3 
0.468 -0.025 0.103 3 
0.468 -0.047 0.104 3 
0.469 -0.055 0.104 3 
0.469 -0.066 0.104 3 
0.474 -0.236 0.109 3 
0.475 -0.255 0.112 3 
0.474 -0.258 0.112 3 
0.475 -0.265 0.112 3 
0.475 -0.277 0.113 3 
0.476 -0.285 0.113 3 
0.478 -0.296 0.114 3 
0.479 -0.307 0.114 3 
0.48 -0.315 0.114 3 
0.48 -0.325 0.114 3 
0.474 -0.245 0.084 3 
0.464 0.334 0.108 3 
0.473 -0.197 0.094 3 
0.481 -0.347 0.112 3 
0.473 -0.248 0.024 3 
0.479 -0.356 0.112 3 
0.464 0.337 0.106 3 
0.465 0.251 0.104 3 
0.465 0.242 0.104 3 
0.465 0.233 0.104 3 
0.465 0.224 0.104 3 
0.466 0.213 0.104 3 
0.466 0.204 0.104 3 
0.466 0.193 0.104 3 
0.469 -0.055 0.074 3 
0.466 0.092 0.074 3 
0.465 0.084 0.074 3 
0.466 0.073 0.074 3 
0.466 0.062 0.074 3 
0.466 0.033 0.074 3 
0.466 0.022 0.074 3 
0.466 0.014 0.074 3 
0.467 0.003 0.074 3 
0.467 -0.007 0.074 3 
0.467 -0.015 0.074 3 
0.468 -0.025 0.074 3 
0.468 -0.036 0.074 3 
0.466 0.114 0.074 3 
0.469 -0.085 0.074 3 
0.469 -0.096 0.074 3 
0.47 -0.105 0.074 3 
0.47 -0.116 0.074 3 
0.47 -0.127 0.074 3 
0.47 -0.135 0.074 3 
0.471 -0.155 0.074 3 
0.472 -0.167 0.074 3 
0.466 0.342 0.071 3 
0.474 -0.236 0.072 3 
0.465 0.331 0.071 3 
0.465 0.232 0.074 3 
0.462 0.334 0.074 3 
0.464 0.323 0.074 3 
0.464 0.313 0.074 3 
0.465 0.304 0.074 3 
0.464 0.297 0.074 3 
0.464 0.294 0.074 3 
0.465 0.282 0.074 3 
0.465 0.273 0.074 3 
0.464 0.265 0.074 3 
0.465 0.262 0.074 3 
0.465 0.244 0.074 3 
0.472 -0.187 0.072 3 
0.465 0.224 0.074 3 
0.466 0.213 0.074 3 
0.465 0.203 0.074 3 
0.465 0.192 0.074 3 
0.465 0.183 0.074 3 
0.465 0.172 0.074 3 
0.465 0.163 0.074 3 
0.465 0.152 0.074 3 
0.465 0.144 0.074 3 
0.466 0.133 0.074 3 
0.466 0.122 0.074 3 
0.465 0.212 0.063 3 
0.464 0.313 0.062 3 
0.465 0.311 0.062 3 
0.465 0.304 0.062 3 
0.463 0.064 0.012 3 
0.465 0.282 0.063 3 
0.465 0.253 0.063 3 
0.467 0.003 0.052 3 
0.464 0.246 0.063 3 
0.464 0.243 0.063 3 
0.465 0.241 0.063 3 
0.465 0.059 0.009 3 
0.465 0.224 0.063 3 
0.464 0.323 0.062 3 
0.465 0.203 0.063 3 
0.465 0.183 0.063 3 
0.465 0.172 0.063 3 
0.465 0.163 0.063 3 
0.466 0.144 0.063 3 
0.467 0.134 0.063 3 
0.466 0.103 0.063 3 
0.466 0.092 0.063 3 
0.466 0.084 0.063 3 
0.467 0.073 0.063 3 
0.466 0.054 0.063 3 
0.477 -0.308 0.073 3 
0.473 -0.196 0.072 3 
0.473 -0.205 0.072 3 
0.466 0.084 0.033 3 
0.472 -0.216 0.072 3 
0.466 0.122 0.052 3 
0.473 -0.226 0.072 3 
0.474 -0.245 0.072 3 
0.474 -0.267 0.072 3 
0.475 -0.277 0.072 3 
0.475 -0.286 0.072 3 
0.476 -0.297 0.073 3 
0.463 0.339 0.074 3 
0.477 -0.315 0.073 3 
0.479 -0.326 0.073 3 
0.479 -0.336 0.073 3 
0.481 -0.349 0.073 3 
0.479 -0.358 0.073 3 
0.464 0.252 0.068 3 
0.475 -0.267 0.069 3 
0.464 0.24 0.065 3 
0.474 -0.276 0.067 3 
0.465 0.341 0.062 3 
0.465 0.331 0.062 3 
0.468 -0.047 0.074 3 
0.472 -0.187 0.083 3 
0.465 0.152 0.084 3 
0.465 0.144 0.084 3 
0.466 0.133 0.084 3 
0.466 0.122 0.084 3 
0.466 0.114 0.084 3 
0.466 0.103 0.084 3 
0.465 0.135 0.009 3 
0.465 0.092 0.084 3 
0.465 0.084 0.084 3 
0.462 0.338 0.014 3 
0.466 0.073 0.084 3 
0.465 0.172 0.084 3 
0.466 0.062 0.084 3 
0.467 0.054 0.084 3 
0.467 0.043 0.084 3 
0.466 0.033 0.084 3 
0.465 0.024 0.084 3 
0.467 0.014 0.084 3 
0.467 0.003 0.084 3 
0.462 0.338 0.082 3 
0.462 0.334 0.082 3 
0.465 0.327 0.083 3 
0.465 0.317 0.082 3 
0.464 0.293 0.023 3 
0.473 -0.205 0.094 3 
0.473 -0.217 0.094 3 
0.465 0.247 0.09 3 
0.467 0.043 0.063 3 
0.473 -0.226 0.092 3 
0.473 -0.235 0.092 3 
0.474 -0.257 0.092 3 
0.464 0.313 0.054 3 
0.474 -0.267 0.092 3 
0.474 -0.276 0.092 3 
0.475 -0.28 0.093 3 
0.464 0.313 0.082 3 
0.476 -0.297 0.093 3 
0.478 -0.306 0.093 3 
0.478 -0.316 0.093 3 
0.48 -0.325 0.094 3 
0.48 -0.335 0.094 3 
0.481 -0.346 0.094 3 
0.479 -0.358 0.094 3 
0.464 0.297 0.085 3 
0.464 0.272 0.085 3 
0.465 0.189 0.084 3 
0.465 0.183 0.084 3 
0.475 -0.28 0.084 3 
0.464 0.154 0.055 3 
0.471 -0.147 0.083 3 
0.472 -0.156 0.083 3 
0.472 -0.167 0.083 3 
0.471 -0.175 0.083 3 
0.472 -0.196 0.083 3 
0.473 -0.217 0.083 3 
0.474 -0.227 0.083 3 
0.474 -0.236 0.083 3 
0.474 -0.257 0.084 3 
0.474 -0.267 0.084 3 
0.462 0.142 0.014 3 
0.469 -0.127 0.082 3 
0.475 -0.287 0.084 3 
0.476 -0.297 0.084 3 
0.477 -0.305 0.084 3 
0.465 0.285 0.074 3 
0.477 -0.315 0.084 3 
0.465 0.307 0.08 3 
0.465 0.256 0.079 3 
0.464 0.18 0.079 3 
0.48 -0.337 0.082 3 
0.48 -0.348 0.082 3 
0.48 -0.355 0.082 3 
0.465 0.212 0.082 3 
0.465 0.295 0.082 3 
0.465 0.288 0.082 3 
0.464 0.275 0.082 3 
0.464 0.272 0.082 3 
0.464 0.263 0.082 3 
0.465 0.244 0.082 3 
0.467 0.062 0.063 3 
0.464 0.232 0.082 3 
0.465 0.23 0.082 3 
0.465 0.224 0.082 3 
0.464 0.274 0.023 3 
0.467 0.022 0.114 3 
0.464 0.174 0.082 3 
0.462 0.334 0.054 3 
0.468 -0.025 0.082 3 
0.467 -0.036 0.082 3 
0.468 -0.047 0.082 3 
0.468 -0.055 0.082 3 
0.469 -0.066 0.082 3 
0.469 -0.077 0.082 3 
0.469 -0.085 0.082 3 
0.47 -0.105 0.082 3 
0.469 -0.116 0.082 3 
