# .PCD v0.7 - Point Cloud Data file
FIELDS x y z intensity
SIZE 4 4 4 4
TYPE F F F F
COUNT 1 1 1 1
WIDTH 2452
HEIGHT 1
VIEWPOINT 0 0 0 1 0 0 0
POINTS 2452
DATA ascii
0.589 -0.047 0.152 0 
0.591 -0.055 0.168 0 
0.596 -0.052 0.162 0 
0.593 -0.051 0.165 0 
0.34 0.017 0.004 0 
0.35 -0.001 0.003 0 
0.34 0.012 0.004 0 
0.34 0.001 0.004 0 
0.373 -0.235 -0.025 1 
0.372 -0.229 -0.024 1 
0.364 -0.169 -0.019 1 
0.364 -0.155 -0.018 1 
0.362 -0.146 -0.017 1 
0.362 -0.136 -0.017 1 
0.359 -0.125 -0.016 1 
0.354 -0.055 -0.012 1 
0.353 -0.046 -0.012 1 
0.354 -0.036 -0.012 1 
0.352 -0.026 -0.012 1 
0.334 0.004 -0.005 1 
0.35 0.043 -0.011 1 
0.353 0.064 -0.013 1 
0.354 0.084 -0.014 1 
0.354 0.087 -0.014 1 
0.351 0.103 -0.013 1 
0.349 0.123 -0.013 1 
0.354 0.143 -0.015 1 
0.351 0.154 -0.015 1 
0.351 0.156 -0.015 1 
0.344 0.206 -0.015 1 
0.37 -0.185 -0.02 1 
0.364 -0.107 -0.015 1 
0.363 -0.092 -0.015 1 
0.362 -0.086 -0.014 1 
0.363 -0.077 -0.014 1 
0.363 -0.066 -0.014 1 
0.352 -0.016 -0.01 1 
0.338 0.014 -0.005 1 
0.361 0.094 -0.015 1 
0.353 0.111 -0.012 1 
0.354 0.134 -0.013 1 
0.354 0.136 -0.013 1 
0.353 0.17 -0.015 1 
0.352 0.173 -0.014 1 
0.352 0.183 -0.015 1 
0.384 -0.247 -0.025 1 
0.381 -0.236 -0.024 1 
0.38 -0.225 -0.023 1 
0.374 -0.195 -0.02 1 
0.374 -0.175 -0.019 1 
0.373 -0.146 -0.017 1 
0.374 -0.126 -0.017 1 
0.371 -0.115 -0.016 1 
0.367 -0.081 -0.014 1 
0.363 -0.056 -0.012 1 
0.364 -0.035 -0.012 1 
0.36 -0.025 -0.011 1 
0.352 -0.006 -0.008 1 
0.344 0.018 -0.006 1 
0.363 0.044 -0.013 1 
0.362 0.053 -0.012 1 
0.363 0.064 -0.013 1 
0.364 0.068 -0.013 1 
0.367 0.078 -0.015 1 
0.364 0.084 -0.014 1 
0.364 0.086 -0.014 1 
0.364 0.129 -0.015 1 
0.36 0.134 -0.013 1 
0.364 0.153 -0.015 1 
0.358 0.168 -0.014 1 
0.363 0.194 -0.017 1 
0.355 0.203 -0.015 1 
0.354 0.212 -0.015 1 
0.354 0.217 -0.016 1 
0.388 -0.249 -0.024 1 
0.38 -0.205 -0.02 1 
0.379 -0.195 -0.019 1 
0.379 -0.165 -0.018 1 
0.381 -0.155 -0.018 1 
0.374 -0.136 -0.016 1 
0.374 -0.095 -0.015 1 
0.374 -0.087 -0.015 1 
0.373 -0.085 -0.014 1 
0.374 -0.083 -0.015 1 
0.37 -0.065 -0.013 1 
0.37 -0.045 -0.013 1 
0.354 0.02 -0.007 1 
0.372 0.103 -0.015 1 
0.37 0.114 -0.014 1 
0.372 0.123 -0.015 1 
0.37 0.133 -0.015 1 
0.37 0.163 -0.016 1 
0.364 0.176 -0.015 1 
0.358 0.221 -0.015 1 
0.394 -0.266 -0.025 1 
0.394 -0.261 -0.025 1 
0.396 -0.255 -0.025 1 
0.396 -0.247 -0.025 1 
0.383 -0.125 -0.016 1 
0.384 -0.118 -0.017 1 
0.379 -0.097 -0.015 1 
0.379 -0.095 -0.014 1 
0.379 -0.093 -0.014 1 
0.384 -0.085 -0.016 1 
0.382 -0.077 -0.015 1 
0.381 -0.074 -0.015 1 
0.375 -0.065 -0.013 1 
0.374 -0.036 -0.012 1 
0.368 -0.026 -0.01 1 
0.363 -0.015 -0.009 1 
0.373 0.043 -0.012 1 
0.374 0.083 -0.013 1 
0.376 0.097 -0.014 1 
0.361 0.101 -0.015 1 
0.374 0.12 -0.014 1 
0.375 0.124 -0.015 1 
0.374 0.138 -0.015 1 
0.372 0.144 -0.014 1 
0.371 0.184 -0.016 1 
0.365 0.222 -0.016 1 
0.363 0.227 -0.015 1 
0.372 0.054 -0.012 1 
0.399 -0.255 -0.024 1 
0.398 -0.246 -0.023 1 
0.393 -0.216 -0.02 1 
0.393 -0.205 -0.02 1 
0.392 -0.165 -0.018 1 
0.391 -0.156 -0.018 1 
0.393 -0.116 -0.017 1 
0.39 -0.106 -0.016 1 
0.388 -0.075 -0.015 1 
0.387 -0.072 -0.015 1 
0.384 -0.056 -0.014 1 
0.382 -0.036 -0.013 1 
0.376 -0.025 -0.011 1 
0.371 -0.016 -0.01 1 
0.361 -0.003 -0.006 1 
0.345 0.018 -0.001 1 
0.36 0.021 -0.006 1 
0.382 0.074 -0.014 1 
0.384 0.083 -0.015 1 
0.383 0.084 -0.014 1 
0.384 0.101 -0.015 1 
0.382 0.112 -0.015 1 
0.381 0.114 -0.014 1 
0.38 0.163 -0.015 1 
0.373 0.233 -0.017 1 
0.403 -0.271 -0.023 1 
0.403 -0.236 -0.022 1 
0.394 -0.125 -0.016 1 
0.391 -0.066 -0.014 1 
0.391 -0.055 -0.014 1 
0.39 -0.035 -0.014 1 
0.38 -0.016 -0.011 1 
0.374 -0.005 -0.009 1 
0.366 -0.003 -0.006 1 
0.37 0.024 -0.007 1 
0.373 0.028 -0.008 1 
0.379 0.034 -0.01 1 
0.383 0.043 -0.012 1 
0.391 0.073 -0.015 1 
0.39 0.075 -0.014 1 
0.391 0.083 -0.015 1 
0.391 0.085 -0.015 1 
0.389 0.103 -0.015 1 
0.389 0.11 -0.015 1 
0.384 0.144 -0.014 1 
0.383 0.154 -0.014 1 
0.383 0.163 -0.014 1 
0.382 0.171 -0.014 1 
0.381 0.179 -0.014 1 
0.374 0.152 -0.015 1 
0.378 0.234 -0.016 1 
0.412 -0.287 -0.024 1 
0.412 -0.269 -0.023 1 
0.417 -0.263 -0.025 1 
0.414 -0.255 -0.023 1 
0.41 -0.245 -0.022 1 
0.379 -0.217 -0.022 1 
0.403 -0.226 -0.019 1 
0.401 -0.215 -0.018 1 
0.404 -0.208 -0.019 1 
0.402 -0.196 -0.018 1 
0.401 -0.147 -0.016 1 
0.399 -0.135 -0.015 1 
0.404 -0.106 -0.016 1 
0.399 -0.102 -0.015 1 
0.398 -0.095 -0.014 1 
0.399 -0.078 -0.015 1 
0.394 -0.046 -0.013 1 
0.394 -0.026 -0.013 1 
0.362 -0.001 -0.003 1 
0.393 0.063 -0.013 1 
0.394 0.074 -0.014 1 
0.393 0.092 -0.014 1 
0.394 0.103 -0.014 1 
0.394 0.114 -0.014 1 
0.395 0.117 -0.015 1 
0.394 0.123 -0.014 1 
0.392 0.132 -0.014 1 
0.394 0.144 -0.015 1 
0.393 0.146 -0.015 1 
0.388 0.153 -0.013 1 
0.384 0.235 -0.016 1 
0.423 -0.299 -0.026 1 
0.414 -0.239 -0.02 1 
0.412 -0.229 -0.019 1 
0.364 -0.006 -0.007 1 
0.407 -0.215 -0.018 1 
0.403 -0.185 -0.016 1 
0.404 -0.176 -0.016 1 
0.404 -0.172 -0.016 1 
0.41 -0.107 -0.016 1 
0.404 -0.089 -0.014 1 
0.402 -0.067 -0.013 1 
0.4 -0.045 -0.013 1 
0.402 -0.035 -0.013 1 
0.396 -0.02 -0.012 1 
0.394 -0.015 -0.011 1 
0.395 -0.005 -0.011 1 
0.365 -0.001 -0.002 1 
0.401 0.074 -0.014 1 
0.373 -0.106 -0.016 1 
0.399 0.123 -0.014 1 
0.399 0.154 -0.015 1 
0.394 0.162 -0.013 1 
0.394 0.165 -0.014 1 
0.4 0.183 -0.016 1 
0.391 0.194 -0.014 1 
0.391 0.204 -0.014 1 
0.391 0.206 -0.014 1 
0.394 0.223 -0.016 1 
0.391 0.243 -0.016 1 
0.424 -0.3 -0.023 1 
0.423 -0.287 -0.022 1 
0.424 -0.271 -0.022 1 
0.423 -0.258 -0.021 1 
0.421 -0.245 -0.02 1 
0.422 -0.235 -0.02 1 
0.413 -0.208 -0.017 1 
0.411 -0.196 -0.016 1 
0.409 -0.185 -0.015 1 
0.412 -0.166 -0.015 1 
0.411 -0.146 -0.015 1 
0.41 -0.136 -0.014 1 
0.353 0.194 -0.016 1 
0.411 -0.135 -0.015 1 
0.394 -0.245 -0.026 1 
0.414 -0.12 -0.015 1 
0.415 -0.107 -0.015 1 
0.413 -0.097 -0.015 1 
0.411 -0.085 -0.014 1 
0.411 -0.076 -0.014 1 
0.41 -0.045 -0.013 1 
0.405 -0.003 -0.012 1 
0.404 0.03 -0.012 1 
0.404 0.054 -0.012 1 
0.391 0.024 -0.012 1 
0.404 0.144 -0.014 1 
0.404 0.146 -0.014 1 
0.404 0.164 -0.014 1 
0.404 0.191 -0.015 1 
0.396 0.194 -0.013 1 
0.399 0.223 -0.015 1 
0.4 0.234 -0.016 1 
0.397 0.244 -0.015 1 
0.394 0.262 -0.015 1 
0.424 -0.227 -0.018 1 
0.423 -0.216 -0.017 1 
0.42 -0.196 -0.016 1 
0.418 -0.16 -0.015 1 
0.419 -0.097 -0.014 1 
0.421 -0.095 -0.015 1 
0.383 -0.185 -0.018 1 
0.389 -0.146 -0.017 1 
0.399 0.104 -0.013 1 
0.416 -0.035 -0.013 1 
0.413 -0.025 -0.012 1 
0.413 0.053 -0.012 1 
0.413 0.062 -0.013 1 
0.412 0.084 -0.013 1 
0.414 0.094 -0.013 1 
0.411 0.134 -0.013 1 
0.404 0.213 -0.014 1 
0.405 0.234 -0.015 1 
0.402 0.249 -0.015 1 
0.4 0.26 -0.015 1 
0.398 0.263 -0.014 1 
0.398 0.266 -0.014 1 
0.43 -0.257 -0.018 1 
0.432 -0.247 -0.018 1 
0.425 -0.182 -0.015 1 
0.424 -0.176 -0.014 1 
0.422 -0.165 -0.014 1 
0.424 -0.156 -0.014 1 
0.424 -0.151 -0.014 1 
0.424 -0.142 -0.014 1 
0.424 -0.115 -0.013 1 
0.37 0.211 -0.016 1 
0.424 -0.108 -0.013 1 
0.423 -0.075 -0.013 1 
0.424 -0.066 -0.013 1 
0.423 -0.056 -0.013 1 
0.424 -0.05 -0.013 1 
0.42 -0.026 -0.012 1 
0.419 0.064 -0.012 1 
0.419 0.094 -0.012 1 
0.414 0.143 -0.012 1 
0.414 0.152 -0.012 1 
0.413 0.164 -0.012 1 
0.36 0.163 -0.015 1 
0.412 0.173 -0.012 1 
0.414 0.194 -0.013 1 
0.411 0.214 -0.013 1 
0.414 0.242 -0.015 1 
0.411 0.25 -0.015 1 
0.409 0.264 -0.015 1 
0.409 0.273 -0.015 1 
0.409 0.278 -0.015 1 
0.433 -0.286 -0.017 1 
0.434 -0.275 -0.017 1 
0.435 -0.236 -0.016 1 
0.433 -0.226 -0.015 1 
0.433 -0.216 -0.015 1 
0.434 -0.191 -0.015 1 
0.431 -0.186 -0.014 1 
0.371 0.095 -0.014 1 
0.43 -0.175 -0.014 1 
0.43 -0.155 -0.013 1 
0.43 -0.145 -0.013 1 
0.43 -0.135 -0.013 1 
0.43 -0.125 -0.013 1 
0.351 0.18 -0.014 1 
0.431 -0.046 -0.012 1 
0.431 -0.037 -0.012 1 
0.424 0.072 -0.011 1 
0.422 0.104 -0.011 1 
0.424 0.124 -0.012 1 
0.419 0.153 -0.011 1 
0.419 0.163 -0.012 1 
0.415 0.282 -0.015 1 
0.379 0.123 -0.014 1 
0.412 0.282 -0.014 1 
0.432 -0.306 -0.015 1 
0.44 -0.296 -0.017 1 
0.44 -0.278 -0.016 1 
0.437 -0.255 -0.015 1 
0.434 -0.115 -0.011 1 
0.434 -0.105 -0.011 1 
0.434 -0.095 -0.011 1 
0.433 -0.085 -0.011 1 
0.434 -0.08 -0.011 1 
0.433 0.043 -0.011 1 
0.432 0.053 -0.011 1 
0.432 0.062 -0.011 1 
0.432 0.074 -0.011 1 
0.432 0.084 -0.011 1 
0.43 0.093 -0.011 1 
0.426 0.144 -0.01 1 
0.423 0.173 -0.01 1 
0.423 0.183 -0.011 1 
0.424 0.194 -0.011 1 
0.418 0.204 -0.01 1 
0.419 0.21 -0.01 1 
0.42 0.224 -0.011 1 
0.42 0.229 -0.011 1 
0.423 0.243 -0.012 1 
0.422 0.253 -0.013 1 
0.422 0.27 -0.013 1 
0.42 0.282 -0.013 1 
0.452 -0.319 -0.018 1 
0.423 -0.206 -0.017 1 
0.449 -0.306 -0.016 1 
0.446 -0.287 -0.015 1 
0.379 0.133 -0.014 1 
0.445 -0.28 -0.015 1 
0.441 -0.267 -0.013 1 
0.439 -0.256 -0.012 1 
0.44 -0.246 -0.012 1 
0.413 0.103 -0.013 1 
0.443 -0.237 -0.013 1 
0.441 -0.225 -0.012 1 
0.443 -0.216 -0.013 1 
0.444 -0.198 -0.012 1 
0.443 -0.191 -0.012 1 
0.444 -0.176 -0.012 1 
0.442 -0.167 -0.011 1 
0.443 -0.155 -0.011 1 
0.443 -0.147 -0.011 1 
0.443 -0.136 -0.011 1 
0.44 -0.117 -0.01 1 
0.44 -0.105 -0.01 1 
0.405 -0.096 -0.014 1 
0.44 -0.095 -0.01 1 
0.424 0.079 -0.011 1 
0.441 -0.085 -0.01 1 
0.442 -0.075 -0.01 1 
0.441 -0.065 -0.01 1 
0.441 -0.055 -0.01 1 
0.401 0.064 -0.013 1 
0.441 -0.036 -0.01 1 
0.419 0.052 -0.012 1 
0.441 -0.026 -0.01 1 
0.441 -0.009 -0.01 1 
0.465 -0.007 -0.016 1 
0.464 -0.004 -0.016 1 
0.342 -0.005 -0.008 1 
0.439 0.044 -0.01 1 
0.434 0.162 -0.011 1 
0.429 0.182 -0.01 1 
0.423 0.294 -0.012 1 
0.453 -0.326 -0.015 1 
0.455 -0.315 -0.015 1 
0.455 -0.309 -0.015 1 
0.454 -0.301 -0.015 1 
0.45 -0.226 -0.012 1 
0.449 -0.196 -0.011 1 
0.451 -0.186 -0.011 1 
0.449 -0.145 -0.01 1 
0.449 -0.137 -0.01 1 
0.451 -0.117 -0.01 1 
0.452 -0.107 -0.011 1 
0.449 -0.095 -0.01 1 
0.45 -0.055 -0.01 1 
0.451 -0.009 -0.01 1 
0.463 -0.004 -0.013 1 
0.431 0.029 -0.005 1 
0.439 0.034 -0.007 1 
0.444 0.073 -0.009 1 
0.443 0.082 -0.009 1 
0.444 0.103 -0.009 1 
0.441 0.122 -0.009 1 
0.44 0.134 -0.009 1 
0.433 0.192 -0.008 1 
0.43 0.214 -0.008 1 
0.434 0.233 -0.01 1 
0.432 0.251 -0.01 1 
0.433 0.263 -0.01 1 
0.434 0.273 -0.011 1 
0.432 0.283 -0.011 1 
0.421 0.132 -0.011 1 
0.454 -0.27 -0.011 1 
0.454 -0.255 -0.011 1 
0.454 -0.241 -0.01 1 
0.454 -0.216 -0.01 1 
0.454 -0.205 -0.01 1 
0.454 -0.161 -0.009 1 
0.442 -0.207 -0.012 1 
0.454 -0.094 -0.008 1 
0.454 -0.066 -0.008 1 
0.451 0.054 -0.008 1 
0.444 0.163 -0.008 1 
0.443 0.173 -0.008 1 
0.41 0.191 -0.015 1 
0.44 0.184 -0.007 1 
0.44 0.192 -0.008 1 
0.441 0.204 -0.008 1 
0.44 0.214 -0.008 1 
0.433 0.293 -0.009 1 
0.429 0.301 -0.008 1 
0.459 -0.336 -0.011 1 
0.381 0.184 -0.015 1 
0.463 -0.317 -0.011 1 
0.404 -0.076 -0.014 1 
0.463 -0.295 -0.011 1 
0.462 -0.236 -0.009 1 
0.453 0.034 -0.006 1 
0.44 0.144 -0.009 1 
0.454 0.039 -0.006 1 
0.455 0.044 -0.006 1 
0.455 0.057 -0.006 1 
0.454 0.062 -0.006 1 
0.454 0.073 -0.006 1 
0.453 0.083 -0.006 1 
0.454 0.093 -0.006 1 
0.453 0.114 -0.006 1 
0.451 0.134 -0.006 1 
0.451 0.153 -0.006 1 
0.442 0.284 -0.008 1 
0.44 0.294 -0.008 1 
0.464 -0.255 -0.007 1 
0.463 -0.217 -0.006 1 
0.464 -0.197 -0.006 1 
0.465 -0.195 -0.006 1 
0.465 -0.181 -0.006 1 
0.464 -0.177 -0.006 1 
0.463 -0.135 -0.005 1 
0.463 -0.116 -0.005 1 
0.462 -0.081 -0.005 1 
0.377 -0.239 -0.025 1 
0.463 -0.057 -0.005 1 
0.462 -0.044 -0.005 1 
0.473 -0.004 -0.007 1 
0.353 -0.001 0.017 1 
0.412 0.073 -0.012 1 
0.424 0.028 0.002 1 
0.457 0.113 -0.005 1 
0.457 0.124 -0.005 1 
0.455 0.144 -0.005 1 
0.456 0.153 -0.005 1 
0.453 0.163 -0.005 1 
0.453 0.193 -0.005 1 
0.453 0.204 -0.005 1 
0.451 0.214 -0.005 1 
0.451 0.222 -0.005 1 
0.45 0.233 -0.005 1 
0.448 0.243 -0.005 1 
0.447 0.253 -0.005 1 
0.448 0.272 -0.006 1 
0.447 0.283 -0.006 1 
0.446 0.294 -0.006 1 
0.443 0.313 -0.006 1 
0.442 0.315 -0.006 1 
0.472 -0.337 -0.008 1 
0.456 0.134 -0.005 1 
0.47 -0.285 -0.006 1 
0.47 -0.276 -0.006 1 
0.467 -0.267 -0.005 1 
0.467 -0.255 -0.005 1 
0.47 -0.245 -0.005 1 
0.471 -0.237 -0.005 1 
0.468 -0.226 -0.005 1 
0.467 -0.22 -0.005 1 
0.463 -0.076 -0.002 1 
0.451 -0.295 -0.014 1 
0.464 -0.065 -0.002 1 
0.425 0.028 0.004 1 
0.453 0.232 -0.003 1 
0.452 0.243 -0.003 1 
0.451 0.284 -0.004 1 
0.45 0.298 -0.005 1 
0.473 -0.356 -0.006 1 
0.473 -0.349 -0.006 1 
0.476 -0.345 -0.006 1 
0.475 -0.337 -0.006 1 
0.428 0.133 -0.011 1 
0.442 0.263 -0.007 1 
0.474 -0.329 -0.005 1 
0.364 -0.076 -0.015 1 
0.474 -0.318 -0.005 1 
0.394 0.035 -0.011 1 
0.475 -0.316 -0.005 1 
0.409 0.253 -0.014 1 
0.475 -0.313 -0.005 1 
0.454 -0.048 -0.008 1 
0.474 -0.308 -0.005 1 
0.474 -0.289 -0.004 1 
0.391 -0.229 -0.022 1 
0.389 0.004 0.014 1 
0.394 -0.009 -0.011 1 
0.385 0.012 0.014 1 
0.384 0.014 0.015 1 
0.454 0.253 -0.001 1 
0.454 0.259 -0.001 1 
0.453 0.304 -0.003 1 
0.45 0.314 -0.002 1 
0.414 -0.125 -0.015 1 
0.381 -0.005 -0.009 1 
0.396 -0.003 -0.012 1 
0.411 -0.005 -0.012 1 
0.407 0.013 0.012 1 
0.401 0.243 -0.014 1 
0.408 0.02 0.012 1 
0.463 0.043 0.002 1 
0.45 0.324 0 1 
0.473 -0.215 0.002 1 
0.471 -0.205 0.002 1 
0.471 -0.196 0.002 1 
0.472 -0.188 0.002 1 
0.471 -0.176 0.003 1 
0.471 -0.167 0.003 1 
0.47 -0.155 0.003 1 
0.469 -0.146 0.003 1 
0.374 -0.206 -0.022 1 
0.424 0.112 -0.012 1 
0.469 -0.135 0.003 1 
0.466 -0.087 0.004 1 
0.465 -0.076 0.004 1 
0.462 0.093 0.004 1 
0.444 0.317 -0.004 1 
0.462 0.104 0.004 1 
0.462 0.112 0.004 1 
0.462 0.123 0.004 1 
0.46 0.153 0.004 1 
0.461 0.173 0.003 1 
0.461 0.184 0.003 1 
0.462 0.193 0.003 1 
0.46 0.223 0.003 1 
0.46 0.244 0.002 1 
0.384 -0.175 -0.018 1 
0.459 0.264 0.002 1 
0.46 0.274 0.002 1 
0.359 0.104 -0.014 1 
0.418 -0.085 -0.014 1 
0.477 -0.295 0.003 1 
0.477 -0.288 0.003 1 
0.476 -0.284 0.003 1 
0.473 -0.275 0.004 1 
0.474 -0.266 0.004 1 
0.474 -0.257 0.004 1 
0.475 -0.237 0.004 1 
0.473 -0.227 0.004 1 
0.403 -0.157 -0.017 1 
0.459 0.282 0.004 1 
0.458 0.29 0.004 1 
0.458 0.303 0.004 1 
0.456 0.324 0.004 1 
0.455 0.052 -0.006 1 
0.463 0.003 0.013 1 
0.462 0.024 0.013 1 
0.461 -0.025 -0.005 1 
0.462 0.032 0.013 1 
0.462 -0.046 -0.005 1 
0.462 -0.065 -0.005 1 
0.414 0.201 -0.011 1 
0.384 -0.147 -0.017 1 
0.462 -0.086 -0.005 1 
0.45 -0.166 -0.011 1 
0.463 -0.105 -0.005 1 
0.462 -0.126 -0.005 1 
0.463 -0.146 -0.005 1 
0.414 0.256 -0.013 1 
0.38 0.187 -0.014 1 
0.462 -0.165 -0.005 1 
0.464 -0.186 -0.006 1 
0.46 -0.226 -0.009 1 
0.464 -0.249 -0.007 1 
0.461 -0.286 -0.01 1 
0.443 0.253 -0.007 1 
0.464 -0.305 -0.011 1 
0.462 -0.326 -0.012 1 
0.444 -0.276 -0.012 1 
0.413 0.114 -0.013 1 
0.371 0.108 -0.015 1 
0.413 0.123 -0.013 1 
0.37 0.235 -0.016 1 
0.43 0.103 -0.011 1 
0.437 -0.266 -0.015 1 
0.443 0.092 -0.009 1 
0.439 -0.317 -0.017 1 
0.403 0.134 -0.013 1 
0.4 -0.085 -0.015 1 
0.43 0.172 -0.01 1 
0.436 -0.245 -0.017 1 
0.468 -0.126 0.004 1 
0.41 0.002 0.012 1 
0.474 -0.251 0.004 1 
0.453 -0.019 -0.008 1 
0.361 0.114 -0.013 1 
0.42 -0.015 -0.012 1 
0.447 0.314 -0.005 1 
0.364 -0.07 -0.015 1 
0.439 0.154 -0.009 1 
0.353 0.163 -0.014 1 
0.475 -0.246 0.004 1 
0.354 0.027 -0.011 1 
0.452 0.173 -0.005 1 
0.41 -0.036 -0.013 1 
0.357 0.144 -0.015 1 
0.427 0.152 -0.011 1 
0.434 -0.206 -0.015 1 
0.461 0.144 0.004 1 
0.394 0.029 -0.011 1 
0.352 0.054 -0.012 1 
0.39 -0.198 -0.019 1 
0.372 -0.215 -0.024 1 
0.442 -0.046 -0.01 1 
0.43 0.203 -0.008 1 
0.373 -0.227 -0.025 1 
0.37 -0.071 -0.015 1 
0.401 0.253 -0.014 1 
0.439 0.054 -0.01 1 
0.424 -0.276 -0.022 1 
0.43 0.112 -0.011 1 
0.456 -0.327 -0.016 1 
0.454 0.224 -0.003 1 
0.354 0.204 -0.015 1 
0.463 -0.012 -0.008 1 
0.462 0.014 0.013 1 
0.463 -0.157 -0.006 1 
0.395 0.214 -0.016 1 
0.39 0.234 -0.015 1 
0.452 0.184 -0.005 1 
0.419 -0.175 -0.015 1 
0.424 0.035 -0.011 1 
0.428 -0.008 -0.012 1 
0.447 0.262 -0.006 1 
0.453 0.104 -0.006 1 
0.443 0.273 -0.008 1 
0.459 0.234 0.003 1 
0.444 0.242 -0.007 1 
0.364 0.03 -0.011 1 
0.393 0.137 -0.014 1 
0.458 0.333 0.003 1 
0.454 0.138 -0.004 1 
0.444 0.06 -0.009 1 
0.383 -0.105 -0.016 1 
0.43 0.124 -0.011 1 
0.392 -0.095 -0.015 1 
0.431 0.223 -0.009 1 
0.381 0.019 0.015 1 
0.473 -0.235 -0.003 1 
0.373 0.064 -0.013 1 
0.399 0.112 -0.014 1 
0.41 0.223 -0.013 1 
0.451 0.142 -0.006 1 
0.434 -0.066 -0.011 1 
0.431 -0.238 -0.018 1 
0.473 -0.007 -0.007 1 
0.432 -0.267 -0.019 1 
0.411 -0.067 -0.014 1 
0.378 0.063 -0.012 1 
0.386 0.202 -0.015 1 
0.463 0.032 0.002 1 
0.409 -0.055 -0.013 1 
0.47 -0.298 -0.007 1 
0.454 -0.128 -0.009 1 
0.475 -0.255 0.001 1 
0.381 0.202 -0.015 1 
0.381 0.193 -0.015 1 
0.419 -0.165 -0.015 1 
0.387 0.184 -0.014 1 
0.475 -0.267 0.001 1 
0.379 -0.045 -0.012 1 
0.391 0.253 -0.016 1 
0.464 -0.017 -0.005 1 
0.414 0.184 -0.013 1 
0.344 -0.001 -0.006 1 
0.417 -0.269 -0.025 1 
0.394 -0.235 -0.023 1 
0.446 -0.281 -0.012 1 
0.455 -0.336 -0.016 1 
0.467 -0.096 0.004 1 
0.474 -0.295 -0.001 1 
0.393 -0.236 -0.025 1 
0.358 0.174 -0.015 1 
0.464 -0.267 -0.007 1 
0.393 -0.18 -0.017 1 
0.453 -0.027 -0.008 1 
0.379 -0.003 -0.008 1 
0.412 0.044 -0.012 1 
0.423 0.262 -0.013 1 
0.42 0.144 -0.011 1 
0.433 -0.295 -0.018 1 
0.439 -0.286 -0.016 1 
0.454 -0.035 -0.008 1 
0.46 0.253 0.002 1 
0.447 -0.285 -0.013 1 
0.411 -0.177 -0.015 1 
0.441 -0.016 -0.01 1 
0.401 -0.056 -0.013 1 
0.367 -0.096 -0.014 1 
0.363 -0.095 -0.015 1 
0.444 0.301 -0.006 1 
0.454 -0.076 -0.008 1 
0.413 -0.157 -0.016 1 
0.399 -0.126 -0.015 1 
0.334 0.012 -0.005 1 
0.375 0.132 -0.015 1 
0.371 -0.056 -0.013 1 
0.46 0.164 0.004 1 
0.364 -0.045 -0.012 1 
0.459 0.314 0.004 1 
0.451 -0.175 -0.011 1 
0.468 -0.107 0.004 1 
0.434 -0.028 -0.011 1 
0.418 -0.187 -0.015 1 
0.443 0.113 -0.009 1 
0.393 0.053 -0.013 1 
0.403 0.169 -0.014 1 
0.407 0.174 -0.016 1 
0.44 -0.309 -0.017 1 
0.443 -0.126 -0.011 1 
0.434 -0.059 -0.011 1 
0.38 0.224 -0.016 1 
0.459 -0.275 -0.009 1 
0.419 0.272 -0.015 1 
0.465 -0.189 -0.006 1 
0.387 0.212 -0.015 1 
0.42 -0.125 -0.015 1 
0.374 -0.155 -0.018 1 
0.384 0.051 -0.012 1 
0.464 -0.087 -0.002 1 
0.452 0.273 -0.004 1 
0.454 0.293 -0.002 1 
0.372 0.174 -0.015 1 
0.374 0.093 -0.013 1 
0.42 -0.006 -0.012 1 
0.401 0.083 -0.014 1 
0.355 0.159 -0.014 1 
0.462 0.204 0.003 1 
0.462 0.083 0.004 1 
0.362 0.143 -0.014 1 
0.403 0.043 -0.012 1 
0.394 -0.185 -0.017 1 
0.413 0.033 -0.012 1 
0.359 -0.115 -0.015 1 
0.398 0.203 -0.012 1 
0.38 0.214 -0.016 1 
0.424 0.033 -0.011 1 
0.394 -0.089 -0.015 1 
0.413 0.231 -0.014 1 
0.42 -0.123 -0.015 1 
0.374 0.134 -0.014 1 
0.462 -0.097 -0.005 1 
0.391 -0.096 -0.014 1 
0.434 -0.196 -0.015 1 
0.442 0.224 -0.009 1 
0.407 -0.275 -0.022 1 
0.399 -0.026 -0.012 1 
0.354 0.073 -0.013 1 
0.464 -0.057 -0.002 1 
0.463 -0.205 -0.006 1 
0.358 0.124 -0.014 1 
0.383 0.094 -0.014 1 
0.373 0.192 -0.016 1 
0.404 -0.115 -0.017 1 
0.382 0.174 -0.015 1 
0.455 0.155 -0.005 1 
0.454 -0.247 -0.01 1 
0.43 -0.165 -0.013 1 
0.461 0.212 0.003 1 
0.433 0.244 -0.01 1 
0.414 -0.017 -0.012 1 
0.442 0.232 -0.009 1 
0.452 0.124 -0.006 1 
0.407 0.184 -0.016 1 
0.427 -0.015 -0.011 1 
0.466 -0.015 -0.006 1 
0.374 0.204 -0.017 1 
0.36 0.212 -0.015 1 
0.383 -0.136 -0.017 1 
0.458 0.103 -0.005 1 
0.391 -0.136 -0.017 1 
0.443 -0.006 -0.016 1 
0.372 -0.165 -0.018 1 
0.374 0.073 -0.013 1 
0.349 -0.001 -0.006 1 
0.399 0.093 -0.013 1 
0.342 0.003 0.019 2 
0.351 -0.001 0.019 2 
0.341 0.003 0.028 2 
0.34 0.014 0.027 2 
0.34 0.017 0.026 2 
0.34 0.016 0.027 2 
0.34 0.014 0.019 2 
0.425 -0.045 0.075 2 
0.525 -0.072 0.077 2 
0.363 -0.046 0.076 2 
0.504 -0.089 0.056 2 
0.361 0.004 0.06 2 
0.43 0.026 0.062 2 
0.385 -0.003 0.066 2 
0.381 -0.028 0.083 2 
0.436 -0.035 0.078 2 
0.388 0.006 0.057 2 
0.502 0.1 0.056 2 
0.524 -0.094 0.06 2 
0.545 -0.103 0.06 2 
0.404 0.03 0.066 2 
0.548 -0.108 0.057 2 
0.437 0.088 0.081 2 
0.4 -0.043 0.08 2 
0.39 0.073 0.079 2 
0.399 0.073 0.081 2 
0.387 0.066 0.079 2 
0.388 0.064 0.079 2 
0.377 0.053 0.079 2 
0.357 -0.023 0.078 2 
0.352 -0.024 0.078 2 
0.39 -0.039 0.08 2 
0.513 -0.098 0.066 2 
0.521 -0.103 0.066 2 
0.371 -0.028 0.081 2 
0.385 -0.032 0.081 2 
0.518 -0.067 0.076 2 
0.432 0.099 0.076 2 
0.425 0.094 0.076 2 
0.416 0.081 0.076 2 
0.43 0.081 0.075 2 
0.497 0.087 0.077 2 
0.499 0.084 0.077 2 
0.432 0.045 0.075 2 
0.394 -0.035 0.078 2 
0.423 0.1 0.078 2 
0.373 0.059 0.077 2 
0.406 0.067 0.078 2 
0.403 0.064 0.078 2 
0.417 0.063 0.077 2 
0.438 -0.033 0.078 2 
0.401 -0.034 0.078 2 
0.38 -0.035 0.077 2 
0.372 -0.037 0.077 2 
0.38 -0.049 0.078 2 
0.369 -0.048 0.078 2 
0.54 -0.109 0.063 2 
0.358 -0.006 0.082 2 
0.518 -0.049 0.085 2 
0.529 -0.06 0.083 2 
0.493 -0.001 0.033 2 
0.358 -0.023 0.082 2 
0.54 -0.065 0.081 2 
0.533 -0.067 0.08 2 
0.54 -0.075 0.081 2 
0.38 0.06 0.081 2 
0.374 0.056 0.081 2 
0.419 0.039 0.073 2 
0.369 0.053 0.082 2 
0.461 0.243 0.142 3 
0.477 -0.298 0.014 3 
0.462 0.293 0.144 3 
0.462 0.284 0.144 3 
0.463 -0.007 0.013 3 
0.462 0.274 0.144 3 
0.462 0.262 0.143 3 
0.336 0.006 0.057 3 
0.461 0.252 0.143 3 
0.482 -0.325 0.154 3 
0.46 0.233 0.142 3 
0.46 0.222 0.142 3 
0.479 -0.275 0.154 3 
0.461 0.214 0.142 3 
0.285 -0.004 0.091 3 
0.468 -0.077 0.142 3 
0.469 -0.085 0.142 3 
0.469 -0.105 0.142 3 
0.469 -0.116 0.142 3 
0.47 -0.125 0.143 3 
0.471 -0.145 0.143 3 
0.471 -0.156 0.144 3 
0.464 0.084 0.143 3 
0.462 0.182 0.144 3 
0.462 0.174 0.144 3 
0.462 0.163 0.144 3 
0.462 0.154 0.144 3 
0.463 0.144 0.144 3 
0.463 0.133 0.144 3 
0.463 0.124 0.143 3 
0.463 0.113 0.143 3 
0.464 0.103 0.144 3 
0.463 0.094 0.143 3 
0.315 -0.012 0.061 3 
0.464 0.084 0.133 3 
0.461 0.312 0.144 3 
0.463 0.062 0.143 3 
0.461 0.054 0.142 3 
0.295 0.021 0.095 3 
0.468 -0.047 0.144 3 
0.467 -0.055 0.144 3 
0.467 -0.066 0.144 3 
0.479 -0.285 0.152 3 
0.48 -0.296 0.152 3 
0.48 -0.306 0.153 3 
0.482 -0.318 0.154 3 
0.462 0.194 0.144 3 
0.462 0.182 0.133 3 
0.481 -0.317 0.144 3 
0.461 0.249 0.134 3 
0.478 -0.306 0.084 3 
0.461 0.243 0.134 3 
0.461 0.252 0.123 3 
0.46 0.233 0.134 3 
0.46 0.224 0.133 3 
0.461 0.213 0.134 3 
0.461 0.202 0.133 3 
0.462 0.193 0.133 3 
0.471 -0.147 0.052 3 
0.48 -0.306 0.144 3 
0.462 0.174 0.133 3 
0.462 0.162 0.133 3 
0.463 0.143 0.133 3 
0.462 0.132 0.132 3 
0.463 0.124 0.133 3 
0.466 -0.095 0.012 3 
0.463 0.113 0.132 3 
0.463 0.102 0.132 3 
0.464 -0.041 0.087 3 
0.463 0.094 0.132 3 
0.477 -0.227 0.144 3 
0.471 -0.176 0.144 3 
0.471 -0.185 0.144 3 
0.471 -0.197 0.144 3 
0.482 -0.335 0.151 3 
0.482 -0.346 0.152 3 
0.459 0.333 0.142 3 
0.462 0.323 0.142 3 
0.289 -0.005 0.091 3 
0.473 -0.206 0.142 3 
0.474 -0.216 0.143 3 
0.475 -0.219 0.143 3 
0.471 -0.165 0.144 3 
0.478 -0.237 0.144 3 
0.478 -0.246 0.144 3 
0.476 -0.257 0.144 3 
0.461 0.051 0.134 3 
0.285 0.018 0.088 3 
0.478 -0.268 0.142 3 
0.478 -0.277 0.142 3 
0.48 -0.286 0.143 3 
0.471 -0.207 0.013 3 
0.481 -0.297 0.144 3 
0.461 0.203 0.092 3 
0.462 0.303 0.144 3 
0.464 0.073 0.154 3 
0.463 0.062 0.154 3 
0.466 -0.047 0.034 3 
0.461 0.054 0.153 3 
0.278 0.016 0.094 3 
0.277 0.004 0.093 3 
0.468 -0.044 0.155 3 
0.474 -0.208 0.16 3 
0.471 -0.167 0.033 3 
0.477 -0.255 0.162 3 
0.478 -0.268 0.163 3 
0.479 -0.276 0.163 3 
0.465 0.079 0.154 3 
0.479 -0.286 0.164 3 
0.479 -0.295 0.164 3 
0.461 0.271 0.154 3 
0.461 0.262 0.154 3 
0.461 0.153 0.033 3 
0.461 0.252 0.154 3 
0.461 0.243 0.154 3 
0.462 0.232 0.154 3 
0.462 0.223 0.153 3 
0.463 0.212 0.153 3 
0.461 0.274 0.062 3 
0.348 -0.004 0.061 3 
0.475 -0.202 0.163 3 
0.458 0.272 0.013 3 
0.46 0.332 0.162 3 
0.46 0.271 0.104 3 
0.463 0.321 0.163 3 
0.463 0.311 0.162 3 
0.462 0.134 0.073 3 
0.277 0.007 0.094 3 
0.474 -0.187 0.162 3 
0.469 -0.105 0.104 3 
0.474 -0.257 0.052 3 
0.466 -0.036 0.044 3 
0.474 -0.196 0.162 3 
0.463 0.192 0.153 3 
0.475 -0.205 0.163 3 
0.476 -0.217 0.163 3 
0.474 -0.257 0.044 3 
0.476 -0.227 0.164 3 
0.477 -0.236 0.164 3 
0.477 -0.246 0.164 3 
0.463 0.138 0.154 3 
0.464 0.111 0.154 3 
0.464 0.103 0.154 3 
0.463 0.094 0.154 3 
0.464 0.084 0.154 3 
0.471 -0.165 0.152 3 
0.295 -0.004 0.082 3 
0.46 0.234 0.062 3 
0.463 0.314 0.154 3 
0.463 0.304 0.153 3 
0.462 0.154 0.133 3 
0.462 0.294 0.153 3 
0.462 0.284 0.152 3 
0.464 0.073 0.143 3 
0.471 -0.136 0.152 3 
0.471 -0.145 0.152 3 
0.471 -0.156 0.152 3 
0.461 0.282 0.132 3 
0.46 0.331 0.154 3 
0.475 -0.265 0.104 3 
0.472 -0.177 0.153 3 
0.472 -0.186 0.153 3 
0.473 -0.195 0.153 3 
0.474 -0.205 0.154 3 
0.475 -0.211 0.154 3 
0.483 -0.348 0.161 3 
0.469 -0.354 0.158 3 
0.474 -0.216 0.151 3 
0.477 -0.236 0.153 3 
0.473 -0.265 0.013 3 
0.477 -0.258 0.153 3 
0.47 -0.075 0.153 3 
0.463 0.184 0.153 3 
0.463 0.172 0.152 3 
0.463 0.163 0.152 3 
0.463 0.152 0.152 3 
0.464 0.133 0.152 3 
0.464 0.122 0.152 3 
0.476 -0.226 0.152 3 
0.465 0.117 0.152 3 
0.465 0.073 0.152 3 
0.468 -0.055 0.153 3 
0.456 0.331 0.062 3 
0.468 -0.066 0.153 3 
0.478 -0.265 0.154 3 
0.47 -0.086 0.153 3 
0.471 -0.097 0.154 3 
0.473 -0.247 0.092 3 
0.471 -0.106 0.154 3 
0.471 -0.117 0.154 3 
0.471 -0.125 0.154 3 
0.48 -0.306 0.162 3 
0.482 -0.315 0.163 3 
0.482 -0.325 0.163 3 
0.484 -0.338 0.164 3 
0.461 0.339 0.154 3 
0.461 0.053 0.113 3 
0.462 0.173 0.114 3 
0.462 0.162 0.114 3 
0.462 0.154 0.114 3 
0.463 0.143 0.114 3 
0.463 0.132 0.114 3 
0.463 0.124 0.114 3 
0.463 0.113 0.114 3 
0.463 0.093 0.052 3 
0.464 0.103 0.114 3 
0.464 0.094 0.114 3 
0.463 0.083 0.114 3 
0.463 0.073 0.113 3 
0.462 0.193 0.114 3 
0.467 -0.039 0.114 3 
0.467 -0.047 0.114 3 
0.467 -0.055 0.114 3 
0.467 -0.066 0.114 3 
0.456 0.332 0.113 3 
0.461 0.314 0.113 3 
0.46 0.284 0.112 3 
0.475 -0.258 0.047 3 
0.46 0.272 0.112 3 
0.46 0.263 0.112 3 
0.474 -0.255 0.121 3 
0.473 -0.185 0.122 3 
0.474 -0.195 0.122 3 
0.474 -0.206 0.123 3 
0.474 -0.215 0.123 3 
0.474 -0.227 0.123 3 
0.475 -0.231 0.123 3 
0.475 -0.24 0.123 3 
0.474 -0.245 0.123 3 
0.475 -0.256 0.124 3 
0.476 -0.266 0.124 3 
0.475 -0.258 0.038 3 
0.454 0.047 0.114 3 
0.46 0.253 0.112 3 
0.477 -0.286 0.122 3 
0.479 -0.297 0.123 3 
0.479 -0.307 0.123 3 
0.48 -0.315 0.123 3 
0.482 -0.327 0.124 3 
0.482 -0.338 0.124 3 
0.482 -0.349 0.124 3 
0.461 0.225 0.114 3 
0.461 0.221 0.114 3 
0.461 0.212 0.114 3 
0.462 0.204 0.114 3 
0.482 -0.345 0.112 3 
0.476 -0.266 0.113 3 
0.462 0.072 0.092 3 
0.476 -0.275 0.113 3 
0.476 -0.285 0.113 3 
0.478 -0.296 0.114 3 
0.479 -0.307 0.114 3 
0.481 -0.319 0.114 3 
0.48 -0.325 0.114 3 
0.474 -0.245 0.084 3 
0.482 -0.355 0.116 3 
0.336 0.026 0.085 3 
0.481 -0.336 0.112 3 
0.475 -0.255 0.112 3 
0.473 -0.248 0.024 3 
0.461 0.297 0.104 3 
0.461 0.294 0.104 3 
0.461 0.282 0.104 3 
0.456 0.331 0.082 3 
0.461 0.263 0.104 3 
0.461 0.254 0.104 3 
0.459 0.324 0.082 3 
0.461 0.233 0.103 3 
0.465 0.348 0.195 3 
0.471 -0.156 0.113 3 
0.305 0.021 0.082 3 
0.472 -0.176 0.102 3 
0.468 -0.077 0.112 3 
0.468 -0.085 0.112 3 
0.466 -0.066 0.034 3 
0.468 -0.096 0.112 3 
0.469 -0.105 0.112 3 
0.469 -0.116 0.112 3 
0.47 -0.127 0.113 3 
0.47 -0.136 0.113 3 
0.472 -0.187 0.114 3 
0.47 -0.147 0.113 3 
0.295 0.02 0.084 3 
0.471 -0.167 0.113 3 
0.472 -0.176 0.113 3 
0.473 -0.197 0.114 3 
0.473 -0.217 0.114 3 
0.474 -0.23 0.114 3 
0.329 0.025 0.085 3 
0.599 -0.021 0.131 3 
0.599 -0.029 0.131 3 
0.475 -0.228 0.112 3 
0.475 -0.237 0.112 3 
0.475 -0.246 0.112 3 
0.476 -0.257 0.133 3 
0.471 -0.156 0.133 3 
0.471 -0.165 0.133 3 
0.471 -0.176 0.133 3 
0.472 -0.185 0.133 3 
0.474 -0.198 0.134 3 
0.473 -0.206 0.134 3 
0.474 -0.215 0.134 3 
0.475 -0.219 0.134 3 
0.458 0.335 0.13 3 
0.475 -0.225 0.132 3 
0.476 -0.235 0.132 3 
0.476 -0.247 0.132 3 
0.471 -0.145 0.132 3 
0.477 -0.267 0.133 3 
0.482 -0.346 0.064 3 
0.471 -0.167 0.044 3 
0.477 -0.276 0.133 3 
0.479 -0.285 0.134 3 
0.479 -0.298 0.134 3 
0.462 0.148 0.124 3 
0.461 0.183 0.052 3 
0.462 0.143 0.124 3 
0.465 -0.065 0.023 3 
0.463 0.124 0.124 3 
0.482 -0.346 0.143 3 
0.462 0.064 0.132 3 
0.307 -0.005 0.093 3 
0.467 -0.041 0.133 3 
0.467 -0.047 0.133 3 
0.467 -0.055 0.133 3 
0.467 -0.066 0.133 3 
0.468 -0.077 0.134 3 
0.469 -0.085 0.134 3 
0.469 -0.096 0.134 3 
0.469 -0.116 0.134 3 
0.484 -0.327 0.142 3 
0.483 -0.336 0.142 3 
0.463 0.113 0.124 3 
0.457 0.334 0.133 3 
0.461 0.324 0.133 3 
0.461 0.314 0.133 3 
0.461 0.301 0.133 3 
0.461 0.292 0.132 3 
0.462 0.262 0.132 3 
0.286 0.014 0.087 3 
0.469 -0.085 0.074 3 
0.47 -0.127 0.132 3 
0.479 -0.323 0.034 3 
0.471 -0.136 0.132 3 
0.469 -0.105 0.123 3 
0.462 0.202 0.122 3 
0.462 0.193 0.122 3 
0.462 0.182 0.122 3 
0.462 0.173 0.122 3 
0.462 0.162 0.122 3 
0.463 0.132 0.122 3 
0.29 0.018 0.084 3 
0.467 -0.039 0.122 3 
0.467 -0.047 0.122 3 
0.467 -0.055 0.122 3 
0.469 -0.077 0.123 3 
0.469 -0.085 0.123 3 
0.46 0.224 0.123 3 
0.469 -0.116 0.123 3 
0.47 -0.127 0.124 3 
0.47 -0.136 0.124 3 
0.471 -0.147 0.124 3 
0.471 -0.156 0.124 3 
0.471 -0.167 0.124 3 
0.471 -0.176 0.124 3 
0.474 -0.246 0.126 3 
0.46 0.323 0.122 3 
0.474 -0.276 0.044 3 
0.463 0.102 0.124 3 
0.463 0.094 0.124 3 
0.463 0.083 0.124 3 
0.462 0.064 0.124 3 
0.462 0.054 0.124 3 
0.375 0.006 0.054 3 
0.285 0.004 0.084 3 
0.284 0.003 0.084 3 
0.48 -0.305 0.132 3 
0.48 -0.315 0.132 3 
0.483 -0.325 0.133 3 
0.463 0.073 0.132 3 
0.483 -0.336 0.133 3 
0.482 -0.345 0.133 3 
0.458 0.331 0.124 3 
0.461 0.311 0.124 3 
0.462 0.302 0.124 3 
0.461 0.292 0.124 3 
0.46 0.281 0.124 3 
0.46 0.272 0.123 3 
0.461 0.264 0.123 3 
0.461 0.243 0.123 3 
0.461 0.234 0.123 3 
0.469 -0.096 0.123 3 
0.472 -0.056 0.184 3 
0.307 0.02 0.07 3 
0.479 -0.237 0.192 3 
0.479 -0.246 0.192 3 
0.461 0.262 0.062 3 
0.48 -0.255 0.192 3 
0.47 -0.075 0.074 3 
0.48 -0.265 0.193 3 
0.482 -0.276 0.194 3 
0.475 -0.246 0.075 3 
0.464 0.346 0.188 3 
0.464 0.343 0.188 3 
0.276 -0.006 0.103 3 
0.476 -0.288 0.093 3 
0.464 0.275 0.184 3 
0.464 0.272 0.184 3 
0.465 0.263 0.184 3 
0.466 0.252 0.184 3 
0.465 0.242 0.183 3 
0.465 0.233 0.183 3 
0.466 0.224 0.183 3 
0.466 0.213 0.183 3 
0.461 0.213 0.122 3 
0.465 0.203 0.182 3 
0.277 -0.004 0.103 3 
0.468 0.124 0.184 3 
0.459 0.314 0.062 3 
0.465 0.183 0.184 3 
0.466 0.172 0.184 3 
0.472 -0.166 0.172 3 
0.471 -0.136 0.143 3 
0.466 0.163 0.184 3 
0.467 0.153 0.184 3 
0.461 0.196 0.144 3 
0.487 0.154 0.192 3 
0.467 0.141 0.184 3 
0.467 0.132 0.183 3 
0.477 -0.276 0.122 3 
0.472 -0.067 0.182 3 
0.469 -0.105 0.134 3 
0.468 0.113 0.184 3 
0.468 0.102 0.183 3 
0.468 0.094 0.183 3 
0.465 -0.036 0.002 3 
0.468 0.083 0.183 3 
0.469 0.072 0.183 3 
0.469 0.064 0.183 3 
0.292 0.025 0.11 3 
0.276 0.021 0.103 3 
0.474 -0.267 0.052 3 
0.474 -0.152 0.181 3 
0.466 0.293 0.183 3 
0.465 0.266 0.181 3 
0.474 -0.227 0.052 3 
0.464 0.25 0.18 3 
0.468 -0.066 0.123 3 
0.314 -0.011 0.061 3 
0.464 0.244 0.18 3 
0.464 0.205 0.179 3 
0.464 0.202 0.179 3 
0.474 -0.096 0.18 3 
0.474 -0.118 0.181 3 
0.475 -0.147 0.181 3 
0.466 0.302 0.183 3 
0.46 0.203 0.033 3 
0.473 -0.155 0.181 3 
0.475 -0.173 0.182 3 
0.475 -0.176 0.182 3 
0.477 -0.186 0.183 3 
0.478 -0.196 0.184 3 
0.477 -0.207 0.184 3 
0.462 0.072 0.124 3 
0.476 -0.216 0.184 3 
0.471 -0.175 0.074 3 
0.484 -0.305 0.19 3 
0.462 0.274 0.132 3 
0.473 -0.076 0.182 3 
0.462 0.302 0.113 3 
0.474 -0.087 0.183 3 
0.475 -0.093 0.183 3 
0.475 -0.096 0.183 3 
0.462 0.204 0.103 3 
0.475 -0.107 0.184 3 
0.472 -0.167 0.102 3 
0.476 -0.116 0.184 3 
0.474 -0.127 0.184 3 
0.474 -0.135 0.184 3 
0.475 -0.142 0.184 3 
0.464 0.191 0.184 3 
0.474 -0.167 0.184 3 
0.484 -0.288 0.192 3 
0.485 -0.296 0.193 3 
0.472 -0.205 0.044 3 
0.485 -0.306 0.194 3 
0.485 -0.316 0.194 3 
0.466 0.326 0.184 3 
0.466 0.319 0.184 3 
0.466 0.312 0.184 3 
0.46 0.293 0.093 3 
0.482 0.088 0.06 3 
0.464 0.084 0.157 3 
0.466 0.172 0.187 3 
0.466 0.163 0.187 3 
0.356 0.048 0.068 3 
0.466 0.152 0.187 3 
0.46 0.284 0.093 3 
0.467 0.144 0.186 3 
0.467 0.132 0.186 3 
0.463 0.064 0.113 3 
0.468 0.122 0.186 3 
0.47 0.072 0.187 3 
0.468 0.113 0.186 3 
0.468 0.102 0.186 3 
0.466 0.184 0.187 3 
0.469 0.094 0.186 3 
0.469 0.083 0.186 3 
0.469 0.064 0.186 3 
0.464 0.241 0.186 3 
0.287 0.024 0.109 3 
0.277 0.021 0.105 3 
0.46 0.114 0.063 3 
0.271 0.019 0.102 3 
0.266 0.013 0.1 3 
0.268 0.004 0.101 3 
0.27 -0.005 0.102 3 
0.472 -0.056 0.187 3 
0.467 0.281 0.191 3 
0.464 0.15 0.169 3 
0.462 0.142 0.084 3 
0.466 0.342 0.195 3 
0.466 0.335 0.194 3 
0.467 0.332 0.195 3 
0.468 0.329 0.194 3 
0.471 -0.147 0.094 3 
0.468 0.322 0.194 3 
0.467 0.314 0.193 3 
0.467 0.304 0.193 3 
0.462 0.182 0.114 3 
0.467 0.294 0.192 3 
0.473 -0.067 0.188 3 
0.466 0.274 0.191 3 
0.467 0.262 0.19 3 
0.467 0.253 0.19 3 
0.466 0.243 0.189 3 
0.466 0.234 0.189 3 
0.467 0.222 0.189 3 
0.468 -0.044 0.144 3 
0.466 0.213 0.188 3 
0.478 -0.295 0.023 3 
0.466 0.204 0.188 3 
0.466 0.192 0.188 3 
0.471 -0.175 0.052 3 
0.478 -0.217 0.193 3 
0.478 -0.227 0.194 3 
0.48 -0.231 0.195 3 
0.48 -0.237 0.195 3 
0.48 -0.247 0.195 3 
0.48 -0.255 0.195 3 
0.48 -0.265 0.196 3 
0.482 -0.277 0.197 3 
0.459 0.324 0.054 3 
0.484 -0.288 0.199 3 
0.485 -0.292 0.199 3 
0.485 -0.296 0.199 3 
0.472 -0.126 0.174 3 
0.484 -0.298 0.199 3 
0.485 -0.306 0.2 3 
0.484 -0.315 0.2 3 
0.473 -0.217 0.044 3 
0.485 -0.32 0.201 3 
0.487 -0.329 0.202 3 
0.488 -0.337 0.203 3 
0.488 -0.345 0.203 3 
0.467 0.35 0.193 3 
0.464 0.285 0.187 3 
0.465 0.194 0.184 3 
0.477 -0.137 0.191 3 
0.474 -0.076 0.188 3 
0.465 0.134 0.163 3 
0.475 -0.082 0.189 3 
0.468 -0.047 0.152 3 
0.476 -0.085 0.189 3 
0.474 -0.096 0.189 3 
0.475 -0.099 0.189 3 
0.476 -0.105 0.19 3 
0.476 -0.116 0.19 3 
0.48 -0.355 0.052 3 
0.477 -0.125 0.19 3 
0.467 -0.044 0.152 3 
0.484 -0.315 0.191 3 
0.463 0.094 0.103 3 
0.48 -0.318 0.102 3 
0.478 -0.146 0.191 3 
0.478 -0.158 0.192 3 
0.465 0.335 0.182 3 
0.477 -0.166 0.191 3 
0.467 -0.066 0.074 3 
0.477 -0.175 0.192 3 
0.478 -0.187 0.192 3 
0.479 -0.197 0.193 3 
0.478 -0.205 0.193 3 
0.465 0.162 0.164 3 
0.483 -0.317 0.178 3 
0.472 -0.187 0.094 3 
0.484 -0.325 0.179 3 
0.465 0.314 0.169 3 
0.462 0.215 0.164 3 
0.462 0.212 0.164 3 
0.478 -0.315 0.043 3 
0.463 0.193 0.164 3 
0.463 0.184 0.164 3 
0.463 0.173 0.164 3 
0.465 0.167 0.164 3 
0.464 0.164 0.163 3 
0.478 -0.256 0.174 3 
0.465 -0.036 0.103 3 
0.464 0.153 0.163 3 
0.464 0.144 0.163 3 
0.464 0.131 0.163 3 
0.465 0.123 0.163 3 
0.465 0.114 0.163 3 
0.478 -0.315 0.014 3 
0.465 0.103 0.163 3 
0.464 0.098 0.163 3 
0.464 0.092 0.162 3 
0.461 0.242 0.112 3 
0.465 0.09 0.163 3 
0.474 -0.175 0.17 3 
0.486 -0.338 0.183 3 
0.487 -0.346 0.184 3 
0.461 0.34 0.172 3 
0.464 0.333 0.172 3 
0.465 0.294 0.171 3 
0.464 0.159 0.166 3 
0.464 0.133 0.166 3 
0.464 0.092 0.165 3 
0.464 0.068 0.165 3 
0.464 0.062 0.165 3 
0.477 -0.305 0.064 3 
0.277 0.014 0.097 3 
0.465 0.084 0.163 3 
0.475 -0.197 0.171 3 
0.476 -0.206 0.172 3 
0.464 -0.017 0.004 3 
0.476 -0.215 0.172 3 
0.472 -0.166 0.164 3 
0.475 -0.217 0.154 3 
0.477 -0.228 0.173 3 
0.463 0.064 0.092 3 
0.477 -0.237 0.173 3 
0.478 -0.247 0.174 3 
0.473 -0.205 0.083 3 
0.473 -0.135 0.163 3 
0.464 0.234 0.163 3 
0.464 0.122 0.16 3 
0.464 0.109 0.16 3 
0.461 0.324 0.113 3 
0.332 0.013 0.054 3 
0.47 -0.075 0.162 3 
0.471 -0.086 0.162 3 
0.472 -0.095 0.163 3 
0.472 -0.106 0.163 3 
0.46 0.283 0.024 3 
0.472 -0.117 0.163 3 
0.472 -0.126 0.163 3 
0.463 0.242 0.163 3 
0.472 -0.145 0.163 3 
0.472 -0.157 0.164 3 
0.473 -0.175 0.164 3 
0.474 -0.22 0.166 3 
0.483 -0.316 0.172 3 
0.482 -0.326 0.172 3 
0.47 -0.166 0.022 3 
0.484 -0.335 0.173 3 
0.484 -0.346 0.174 3 
0.485 -0.35 0.174 3 
0.48 -0.287 0.173 3 
0.465 0.073 0.163 3 
0.464 0.068 0.162 3 
0.473 -0.226 0.033 3 
0.464 0.062 0.162 3 
0.469 -0.053 0.164 3 
0.469 -0.055 0.164 3 
0.47 -0.067 0.164 3 
0.461 0.291 0.113 3 
0.474 -0.196 0.168 3 
0.478 -0.266 0.171 3 
0.463 0.102 0.084 3 
0.479 -0.276 0.172 3 
0.46 0.243 0.054 3 
0.481 -0.298 0.174 3 
0.482 -0.305 0.174 3 
0.46 0.337 0.142 3 
0.475 -0.237 0.101 3 
0.463 0.295 0.164 3 
0.463 0.292 0.164 3 
0.463 0.282 0.164 3 
0.473 -0.206 0.114 3 
0.463 0.273 0.164 3 
0.463 0.264 0.163 3 
0.463 0.254 0.163 3 
0.46 0.282 0.043 3 
0.484 -0.298 0.187 3 
0.463 0.264 0.175 3 
0.463 0.258 0.174 3 
0.459 0.304 0.032 3 
0.463 0.249 0.174 3 
0.463 0.243 0.174 3 
0.464 0.232 0.174 3 
0.465 0.223 0.174 3 
0.464 0.211 0.173 3 
0.474 -0.236 0.123 3 
0.464 0.202 0.173 3 
0.48 -0.265 0.184 3 
0.464 0.193 0.173 3 
0.465 0.185 0.173 3 
0.46 0.273 0.032 3 
0.465 0.183 0.173 3 
0.465 0.174 0.173 3 
0.465 0.163 0.172 3 
0.465 0.154 0.172 3 
0.466 0.134 0.172 3 
0.476 -0.245 0.152 3 
0.466 0.123 0.172 3 
0.469 -0.096 0.142 3 
0.286 0.023 0.103 3 
0.466 0.09 0.174 3 
0.486 -0.327 0.192 3 
0.472 -0.196 0.052 3 
0.486 -0.335 0.193 3 
0.487 -0.347 0.194 3 
0.465 -0.007 0.044 3 
0.463 0.343 0.182 3 
0.464 0.31 0.18 3 
0.464 0.303 0.18 3 
0.464 0.232 0.177 3 
0.465 0.142 0.174 3 
0.466 0.109 0.174 3 
0.466 0.104 0.174 3 
0.302 -0.009 0.109 3 
0.467 0.082 0.174 3 
0.467 0.074 0.174 3 
0.466 0.063 0.174 3 
0.463 0.204 0.153 3 
0.285 -0.007 0.104 3 
0.461 0.172 0.033 3 
0.474 -0.107 0.177 3 
0.477 -0.225 0.182 3 
0.478 -0.235 0.182 3 
0.479 -0.245 0.183 3 
0.479 -0.257 0.183 3 
0.464 0.142 0.169 3 
0.464 0.316 0.174 3 
0.463 0.312 0.174 3 
0.47 -0.175 0.033 3 
0.465 0.304 0.174 3 
0.464 0.297 0.173 3 
0.464 0.293 0.173 3 
0.463 0.283 0.173 3 
0.462 -0.025 0.013 3 
0.464 0.274 0.173 3 
0.464 0.223 0.171 3 
0.464 0.182 0.17 3 
0.464 0.173 0.17 3 
0.464 0.323 0.175 3 
0.456 0.324 0.023 3 
0.473 -0.135 0.172 3 
0.462 0.323 0.154 3 
0.473 -0.146 0.172 3 
0.473 -0.155 0.172 3 
0.475 -0.176 0.174 3 
0.476 -0.186 0.174 3 
0.465 -0.087 0.012 3 
0.485 -0.319 0.182 3 
0.485 -0.326 0.182 3 
0.477 -0.298 0.064 3 
0.46 0.244 0.104 3 
0.462 0.203 0.164 3 
0.465 -0.049 0.004 3 
0.471 -0.053 0.173 3 
0.332 -0.014 0.065 3 
0.471 -0.056 0.173 3 
0.471 -0.067 0.173 3 
0.459 0.214 0.014 3 
0.472 -0.075 0.173 3 
0.473 -0.087 0.174 3 
0.473 -0.095 0.174 3 
0.473 -0.106 0.174 3 
0.46 0.339 0.163 3 
0.473 -0.115 0.174 3 
0.479 -0.317 0.002 3 
0.481 -0.278 0.182 3 
0.286 0.013 0.084 3 
0.481 -0.285 0.182 3 
0.482 -0.296 0.183 3 
0.465 -0.004 0.004 3 
0.483 -0.307 0.184 3 
0.463 0.053 0.002 3 
0.464 0.333 0.175 3 
0.444 0.023 0.048 3 
0.481 -0.335 0.052 3 
0.458 0.042 0.05 3 
0.438 0.032 0.05 3 
0.366 0.007 0.052 3 
0.512 -0.008 0.048 3 
0.541 -0.012 0.048 3 
0.545 -0.015 0.048 3 
0.465 -0.047 0.05 3 
0.475 -0.283 0.049 3 
0.457 0.034 0.047 3 
0.454 0.026 0.047 3 
0.48 -0.327 0.052 3 
0.449 0.013 0.048 3 
0.456 0.011 0.047 3 
0.461 0.003 0.047 3 
0.471 0 0.047 3 
0.519 -0.005 0.045 3 
0.466 -0.017 0.047 3 
0.475 -0.246 0.047 3 
0.456 0.331 0.043 3 
0.459 0.324 0.043 3 
0.458 0.313 0.043 3 
0.458 0.303 0.043 3 
0.466 -0.066 0.044 3 
0.47 -0.155 0.052 3 
0.464 -0.046 0.052 3 
0.464 -0.057 0.052 3 
0.465 -0.063 0.052 3 
0.464 -0.065 0.052 3 
0.465 -0.071 0.052 3 
0.465 -0.076 0.052 3 
0.467 -0.085 0.052 3 
0.468 -0.096 0.052 3 
0.469 -0.107 0.052 3 
0.469 -0.115 0.052 3 
0.469 -0.126 0.052 3 
0.47 -0.135 0.052 3 
0.459 0.294 0.043 3 
0.47 -0.166 0.052 3 
0.471 -0.187 0.052 3 
0.472 -0.205 0.052 3 
0.473 -0.217 0.052 3 
0.474 -0.236 0.052 3 
0.474 -0.245 0.052 3 
0.474 -0.276 0.052 3 
0.475 -0.287 0.052 3 
0.477 -0.297 0.052 3 
0.478 -0.305 0.052 3 
0.478 -0.315 0.052 3 
0.469 -0.115 0.044 3 
0.463 0.053 0.044 3 
0.462 0.043 0.044 3 
0.46 0.034 0.044 3 
0.459 0.024 0.045 3 
0.461 0.006 0.044 3 
0.461 0.003 0.044 3 
0.466 -0.015 0.044 3 
0.466 -0.025 0.044 3 
0.467 -0.077 0.044 3 
0.467 -0.085 0.044 3 
0.469 -0.096 0.044 3 
0.47 -0.107 0.044 3 
0.464 0.064 0.044 3 
0.47 -0.135 0.044 3 
0.47 -0.146 0.044 3 
0.471 -0.155 0.044 3 
0.471 -0.175 0.044 3 
0.471 -0.187 0.044 3 
0.472 -0.196 0.044 3 
0.473 -0.226 0.044 3 
0.474 -0.236 0.044 3 
0.475 -0.246 0.044 3 
0.474 -0.251 0.044 3 
0.474 -0.267 0.044 3 
0.461 0.172 0.044 3 
0.46 0.273 0.043 3 
0.459 0.263 0.043 3 
0.466 -0.055 0.034 3 
0.459 0.222 0.022 3 
0.459 0.251 0.043 3 
0.475 -0.246 0.007 3 
0.46 0.243 0.043 3 
0.461 0.223 0.043 3 
0.461 0.212 0.044 3 
0.461 0.203 0.044 3 
0.461 0.192 0.044 3 
0.461 0.183 0.044 3 
0.464 -0.044 0.052 3 
0.461 0.164 0.044 3 
0.461 0.153 0.044 3 
0.462 0.142 0.044 3 
0.462 0.134 0.044 3 
0.462 0.123 0.044 3 
0.462 0.112 0.044 3 
0.462 0.104 0.044 3 
0.463 0.093 0.044 3 
0.463 0.083 0.044 3 
0.464 0.072 0.044 3 
0.466 -0.055 0.044 3 
0.481 -0.356 0.064 3 
0.474 -0.236 0.064 3 
0.475 -0.24 0.064 3 
0.475 -0.246 0.064 3 
0.475 -0.255 0.064 3 
0.474 -0.26 0.064 3 
0.474 -0.267 0.064 3 
0.474 -0.276 0.064 3 
0.475 -0.28 0.064 3 
0.475 -0.286 0.064 3 
0.478 -0.315 0.064 3 
0.48 -0.327 0.064 3 
0.482 -0.336 0.064 3 
0.474 -0.227 0.064 3 
0.462 0.153 0.052 3 
0.462 0.104 0.06 3 
0.465 0.1 0.06 3 
0.472 0.094 0.06 3 
0.461 0.074 0.06 3 
0.458 0.053 0.06 3 
0.46 0.273 0.054 3 
0.537 -0.018 0.061 3 
0.536 -0.025 0.061 3 
0.532 -0.034 0.061 3 
0.465 -0.031 0.06 3 
0.482 -0.347 0.052 3 
0.458 0.224 0.014 3 
0.325 0.006 0.06 3 
0.336 0 0.061 3 
0.367 -0.008 0.061 3 
0.478 -0.032 0.063 3 
0.464 -0.036 0.063 3 
0.46 -0.046 0.063 3 
0.469 -0.096 0.063 3 
0.468 -0.107 0.063 3 
0.469 -0.115 0.063 3 
0.465 -0.036 0.06 3 
0.469 -0.126 0.063 3 
0.47 -0.135 0.063 3 
0.471 -0.147 0.063 3 
0.47 -0.166 0.063 3 
0.471 -0.175 0.063 3 
0.46 0.214 0.022 3 
0.472 -0.187 0.063 3 
0.473 -0.196 0.064 3 
0.476 -0.287 0.044 3 
0.473 -0.205 0.064 3 
0.473 -0.217 0.064 3 
0.451 0.041 0.052 3 
0.465 -0.047 0.055 3 
0.465 -0.063 0.055 3 
0.461 0.172 0.052 3 
0.461 0.164 0.052 3 
0.462 0.142 0.052 3 
0.462 0.134 0.052 3 
0.462 0.123 0.052 3 
0.461 0.112 0.052 3 
0.461 0.104 0.052 3 
0.463 0.083 0.052 3 
0.462 0.074 0.052 3 
0.46 0.053 0.052 3 
0.542 -0.025 0.054 3 
0.434 0.036 0.053 3 
0.373 0.02 0.054 3 
0.352 0.017 0.054 3 
0.338 0.011 0.054 3 
0.349 0.007 0.054 3 
0.368 0 0.054 3 
0.53 -0.021 0.051 3 
0.465 -0.028 0.052 3 
0.459 0.282 0.013 3 
0.465 -0.036 0.052 3 
0.459 0.292 0.054 3 
0.461 -0.056 0.06 3 
0.462 -0.065 0.06 3 
0.467 -0.077 0.06 3 
0.474 -0.245 0.061 3 
0.461 0.093 0.057 3 
0.462 0.082 0.057 3 
0.356 -0.002 0.058 3 
0.465 -0.073 0.058 3 
0.461 0.164 0.033 3 
0.468 -0.085 0.058 3 
0.458 0.303 0.054 3 
0.475 -0.283 0.044 3 
0.46 0.282 0.054 3 
0.46 0.264 0.054 3 
0.46 0.252 0.054 3 
0.46 0.234 0.054 3 
0.461 0.223 0.054 3 
0.462 0.213 0.054 3 
0.462 0.204 0.054 3 
0.461 0.192 0.054 3 
0.451 0.044 0.055 3 
0.355 0.005 0.056 3 
0.535 -0.015 0.054 3 
0.458 0.293 0.013 3 
0.471 -0.207 0.022 3 
0.474 -0.269 0.021 3 
0.465 -0.06 0.02 3 
0.464 -0.065 0.02 3 
0.474 -0.276 0.018 3 
0.478 -0.305 0.014 3 
0.478 -0.325 0.014 3 
0.479 -0.337 0.014 3 
0.48 -0.345 0.013 3 
0.477 -0.356 0.013 3 
0.456 0.33 0.012 3 
0.457 0.311 0.012 3 
0.47 -0.195 0.022 3 
0.459 0.263 0.013 3 
0.458 0.254 0.013 3 
0.458 0.242 0.014 3 
0.458 0.233 0.014 3 
0.46 0.203 0.014 3 
0.459 0.194 0.014 3 
0.459 0.182 0.014 3 
0.459 0.174 0.014 3 
0.468 -0.134 0.014 3 
0.468 -0.137 0.014 3 
0.468 -0.145 0.014 3 
0.469 -0.157 0.014 3 
0.464 -0.055 0.023 3 
0.462 0.082 0.023 3 
0.461 0.074 0.023 3 
0.462 0.064 0.023 3 
0.462 0.053 0.023 3 
0.463 0.043 0.023 3 
0.463 0.032 0.023 3 
0.463 0.024 0.023 3 
0.464 0.003 0.023 3 
0.464 -0.007 0.023 3 
0.464 -0.025 0.023 3 
0.463 -0.036 0.023 3 
0.464 -0.047 0.023 3 
0.469 -0.166 0.014 3 
0.466 -0.076 0.023 3 
0.467 -0.087 0.023 3 
0.467 -0.095 0.023 3 
0.467 -0.106 0.023 3 
0.468 -0.115 0.023 3 
0.468 -0.126 0.023 3 
0.469 -0.138 0.022 3 
0.47 -0.146 0.022 3 
0.47 -0.155 0.022 3 
0.47 -0.175 0.022 3 
0.47 -0.186 0.022 3 
0.465 -0.007 0.004 3 
0.465 -0.076 0.012 3 
0.467 -0.106 0.012 3 
0.466 -0.117 0.012 3 
0.475 -0.283 0.009 3 
0.477 -0.356 0.004 3 
0.465 -0.009 0.007 3 
0.465 -0.015 0.007 3 
0.466 -0.052 0.007 3 
0.478 -0.309 0.002 3 
0.478 -0.326 0.002 3 
0.48 -0.338 0.001 3 
0.474 -0.357 0.002 3 
0.465 -0.065 0.012 3 
0.465 -0.015 0.004 3 
0.464 -0.025 0.004 3 
0.464 -0.036 0.004 3 
0.464 -0.047 0.004 3 
0.466 -0.055 0.004 3 
0.466 -0.066 0.004 3 
0.468 -0.115 0.004 3 
0.464 0.072 0.001 3 
0.463 0.064 0.002 3 
0.476 -0.004 0 3 
0.465 -0.025 0.002 3 
0.458 0.154 0.012 3 
0.469 -0.177 0.014 3 
0.469 -0.186 0.014 3 
0.47 -0.195 0.014 3 
0.471 -0.216 0.013 3 
0.472 -0.226 0.013 3 
0.473 -0.236 0.013 3 
0.473 -0.245 0.013 3 
0.474 -0.257 0.013 3 
0.474 -0.276 0.012 3 
0.475 -0.286 0.012 3 
0.48 -0.345 0.004 3 
0.458 0.162 0.012 3 
0.462 0.093 0.023 3 
0.461 0.133 0.012 3 
0.461 0.114 0.012 3 
0.461 0.104 0.012 3 
0.46 0.093 0.013 3 
0.461 0.082 0.013 3 
0.461 0.074 0.013 3 
0.461 0.053 0.013 3 
0.461 0.042 0.013 3 
0.462 -0.046 0.013 3 
0.464 -0.055 0.012 3 
0.465 -0.057 0.012 3 
0.464 -0.007 0.034 3 
0.462 0.112 0.033 3 
0.463 0.104 0.033 3 
0.463 0.093 0.033 3 
0.463 0.083 0.034 3 
0.463 0.072 0.034 3 
0.463 0.064 0.034 3 
0.464 0.054 0.034 3 
0.464 0.043 0.034 3 
0.463 0.032 0.034 3 
0.464 0.024 0.034 3 
0.464 0.014 0.034 3 
0.464 0.003 0.034 3 
0.461 0.123 0.033 3 
0.464 -0.015 0.034 3 
0.465 -0.02 0.034 3 
0.465 -0.025 0.034 3 
0.464 -0.028 0.034 3 
0.465 -0.036 0.034 3 
0.467 -0.077 0.034 3 
0.468 -0.096 0.034 3 
0.469 -0.107 0.033 3 
0.469 -0.115 0.033 3 
0.461 0.122 0.012 3 
0.469 -0.126 0.033 3 
0.48 -0.345 0.034 3 
0.477 -0.297 0.044 3 
0.478 -0.308 0.043 3 
0.48 -0.348 0.043 3 
0.479 -0.358 0.043 3 
0.462 0.024 0.042 3 
0.464 -0.007 0.042 3 
0.475 -0.274 0.038 3 
0.456 0.331 0.034 3 
0.459 0.324 0.034 3 
0.458 0.313 0.034 3 
0.479 -0.326 0.034 3 
0.48 -0.338 0.034 3 
0.47 -0.135 0.033 3 
0.479 -0.358 0.034 3 
0.46 0.292 0.032 3 
0.46 0.283 0.032 3 
0.459 0.263 0.032 3 
0.459 0.254 0.032 3 
0.46 0.234 0.033 3 
0.459 0.222 0.033 3 
0.46 0.214 0.033 3 
0.46 0.194 0.033 3 
0.461 0.142 0.033 3 
0.462 0.134 0.033 3 
0.478 -0.357 0.022 3 
0.472 -0.217 0.024 3 
0.472 -0.226 0.024 3 
0.474 -0.255 0.024 3 
0.475 -0.264 0.024 3 
0.475 -0.267 0.024 3 
0.475 -0.276 0.024 3 
0.476 -0.287 0.023 3 
0.478 -0.305 0.023 3 
0.477 -0.317 0.023 3 
0.478 -0.325 0.023 3 
0.48 -0.338 0.022 3 
0.48 -0.345 0.022 3 
0.464 -0.047 0.026 3 
0.46 0.203 0.022 3 
0.46 0.183 0.022 3 
0.46 0.172 0.022 3 
0.46 0.163 0.022 3 
0.464 0.014 0.023 3 
0.46 0.152 0.023 3 
0.46 0.144 0.023 3 
0.461 0.134 0.023 3 
0.463 0.123 0.023 3 
0.462 0.112 0.023 3 
0.462 0.104 0.023 3 
0.477 -0.288 0.032 3 
0.471 -0.147 0.033 3 
0.47 -0.155 0.033 3 
0.471 -0.187 0.033 3 
0.471 -0.195 0.033 3 
0.472 -0.208 0.033 3 
0.472 -0.217 0.033 3 
0.473 -0.235 0.033 3 
0.474 -0.248 0.032 3 
0.474 -0.257 0.032 3 
0.474 -0.267 0.032 3 
0.475 -0.273 0.032 3 
0.475 -0.276 0.032 3 
0.435 0.044 0.062 3 
0.478 -0.295 0.032 3 
0.478 -0.308 0.032 3 
0.465 0.019 0.031 3 
0.464 -0.036 0.028 3 
0.455 0.33 0.023 3 
0.458 0.312 0.023 3 
0.459 0.304 0.023 3 
0.46 0.273 0.024 3 
0.459 0.263 0.024 3 
0.459 0.254 0.024 3 
0.46 0.234 0.024 3 
0.565 -0.041 0.1 3 
0.471 -0.155 0.094 3 
0.471 -0.167 0.094 3 
0.462 0.134 0.004 3 
0.471 -0.175 0.094 3 
0.473 -0.197 0.094 3 
0.473 -0.205 0.094 3 
0.574 -0.02 0.101 3 
0.579 -0.024 0.102 3 
0.46 0.063 0.013 3 
0.574 -0.027 0.101 3 
0.577 -0.035 0.102 3 
0.471 -0.155 0.063 3 
0.469 -0.135 0.093 3 
0.462 0.134 0.084 3 
0.464 -0.033 0.09 3 
0.473 -0.217 0.092 3 
0.473 -0.226 0.092 3 
0.474 -0.236 0.092 3 
0.474 -0.257 0.092 3 
0.458 0.313 0.054 3 
0.475 -0.264 0.092 3 
0.475 -0.268 0.092 3 
0.469 -0.126 0.044 3 
0.475 -0.277 0.092 3 
0.459 0.294 0.024 3 
0.458 0.303 0.012 3 
0.462 0.154 0.092 3 
0.462 0.143 0.092 3 
0.462 0.134 0.092 3 
0.345 -0.009 0.069 3 
0.462 0.123 0.092 3 
0.474 -0.257 0.075 3 
0.463 0.113 0.092 3 
0.463 0.102 0.092 3 
0.463 0.094 0.092 3 
0.462 0.083 0.092 3 
0.463 0.054 0.092 3 
0.494 -0.036 0.096 3 
0.476 -0.297 0.093 3 
0.465 -0.036 0.092 3 
0.466 -0.047 0.093 3 
0.467 -0.055 0.093 3 
0.467 -0.066 0.093 3 
0.467 -0.077 0.093 3 
0.468 -0.085 0.093 3 
0.469 -0.096 0.093 3 
0.469 -0.107 0.093 3 
0.468 -0.115 0.093 3 
0.468 -0.126 0.093 3 
0.46 0.194 0.022 3 
0.459 0.301 0.082 3 
0.462 0.083 0.084 3 
0.46 0.074 0.084 3 
0.458 0.063 0.084 3 
0.459 0.053 0.084 3 
0.305 0 0.07 3 
0.569 -0.023 0.094 3 
0.567 -0.027 0.094 3 
0.57 -0.038 0.094 3 
0.463 -0.033 0.084 3 
0.464 -0.036 0.084 3 
0.466 -0.039 0.084 3 
0.46 0.312 0.082 3 
0.463 0.094 0.084 3 
0.46 0.293 0.082 3 
0.46 0.274 0.082 3 
0.335 0.026 0.071 3 
0.305 0.014 0.069 3 
0.536 -0.018 0.087 3 
0.564 -0.027 0.09 3 
0.468 -0.047 0.082 3 
0.467 -0.055 0.082 3 
0.468 -0.066 0.082 3 
0.467 -0.077 0.082 3 
0.468 -0.085 0.082 3 
0.461 0.232 0.084 3 
0.478 -0.306 0.093 3 
0.479 -0.317 0.093 3 
0.48 -0.325 0.094 3 
0.481 -0.336 0.094 3 
0.482 -0.347 0.094 3 
0.481 -0.356 0.094 3 
0.522 -0.014 0.093 3 
0.555 -0.019 0.096 3 
0.459 0.276 0.084 3 
0.46 0.262 0.084 3 
0.461 0.253 0.084 3 
0.461 0.244 0.084 3 
0.461 0.161 0.092 3 
0.461 0.224 0.084 3 
0.461 0.212 0.084 3 
0.37 0.033 0.063 3 
0.461 0.203 0.084 3 
0.461 0.192 0.084 3 
0.461 0.172 0.084 3 
0.456 0.331 0.054 3 
0.461 0.164 0.084 3 
0.462 0.153 0.084 3 
0.462 0.123 0.084 3 
0.462 0.112 0.084 3 
0.46 0.322 0.102 3 
0.467 -0.055 0.103 3 
0.467 -0.066 0.104 3 
0.467 -0.077 0.104 3 
0.552 -0.015 0.102 3 
0.468 -0.085 0.104 3 
0.46 0.234 0.043 3 
0.468 -0.096 0.104 3 
0.469 -0.116 0.104 3 
0.47 -0.127 0.104 3 
0.47 -0.135 0.104 3 
0.473 -0.235 0.024 3 
0.457 0.332 0.102 3 
0.466 -0.047 0.103 3 
0.46 0.312 0.102 3 
0.295 0.014 0.076 3 
0.479 -0.326 0.043 3 
0.307 -0.004 0.078 3 
0.576 -0.016 0.116 3 
0.55 -0.039 0.113 3 
0.47 -0.147 0.102 3 
0.471 -0.155 0.102 3 
0.472 -0.187 0.102 3 
0.473 -0.197 0.103 3 
0.472 -0.205 0.103 3 
0.463 0.102 0.103 3 
0.461 0.212 0.103 3 
0.461 0.192 0.103 3 
0.48 -0.327 0.073 3 
0.462 0.184 0.103 3 
0.462 0.173 0.103 3 
0.461 0.164 0.103 3 
0.462 0.154 0.103 3 
0.463 0.143 0.103 3 
0.463 0.132 0.103 3 
0.463 0.124 0.103 3 
0.463 0.113 0.103 3 
0.473 -0.217 0.103 3 
0.463 0.083 0.103 3 
0.463 0.072 0.103 3 
0.463 0.064 0.103 3 
0.462 0.054 0.103 3 
0.593 -0.021 0.122 3 
0.599 -0.025 0.123 3 
0.592 -0.028 0.122 3 
0.597 -0.036 0.123 3 
0.461 0.161 0.073 3 
0.594 -0.044 0.123 3 
0.46 0.274 0.093 3 
0.297 0.014 0.074 3 
0.295 0.003 0.074 3 
0.565 -0.016 0.108 3 
0.582 -0.02 0.11 3 
0.581 -0.028 0.11 3 
0.582 -0.035 0.11 3 
0.457 0.332 0.093 3 
0.46 0.322 0.093 3 
0.463 -0.015 0.013 3 
0.461 0.313 0.093 3 
0.46 0.303 0.093 3 
0.462 0.213 0.092 3 
0.299 0.019 0.074 3 
0.46 0.262 0.093 3 
0.461 0.254 0.093 3 
0.462 0.242 0.093 3 
0.492 -0.086 0.069 3 
0.462 0.233 0.093 3 
0.461 0.224 0.092 3 
0.461 0.192 0.092 3 
0.461 0.184 0.092 3 
0.462 0.173 0.092 3 
0.463 0.064 0.052 3 
0.461 0.184 0.084 3 
0.474 -0.227 0.103 3 
0.474 -0.236 0.103 3 
0.475 -0.246 0.104 3 
0.474 -0.251 0.103 3 
0.475 -0.258 0.104 3 
0.474 -0.261 0.104 3 
0.476 -0.278 0.104 3 
0.477 -0.289 0.104 3 
0.481 -0.357 0.106 3 
0.293 0.01 0.074 3 
0.293 0.004 0.074 3 
0.587 -0.021 0.114 3 
0.468 -0.096 0.082 3 
0.586 -0.032 0.114 3 
0.589 -0.036 0.114 3 
0.571 -0.041 0.112 3 
0.475 -0.231 0.1 3 
0.48 -0.337 0.043 3 
0.477 -0.295 0.102 3 
0.479 -0.307 0.102 3 
0.481 -0.326 0.103 3 
0.481 -0.336 0.103 3 
0.483 -0.348 0.103 3 
0.481 -0.357 0.103 3 
0.356 -0.007 0.064 3 
0.48 -0.355 0.073 3 
0.452 0.096 0.068 3 
0.358 0.047 0.064 3 
0.347 0.042 0.064 3 
0.341 0.039 0.064 3 
0.341 0.033 0.064 3 
0.354 0.03 0.064 3 
0.327 0.023 0.063 3 
0.35 -0.005 0.064 3 
0.481 -0.345 0.073 3 
0.336 -0.011 0.064 3 
0.331 -0.012 0.063 3 
0.338 -0.016 0.064 3 
0.46 0.183 0.033 3 
0.485 -0.073 0.069 3 
0.456 0.323 0.012 3 
0.488 -0.076 0.069 3 
0.468 -0.085 0.034 3 
0.315 0.001 0.064 3 
0.341 -0.008 0.065 3 
0.472 -0.187 0.072 3 
0.472 -0.196 0.072 3 
0.473 -0.205 0.072 3 
0.472 -0.216 0.072 3 
0.474 -0.227 0.072 3 
0.475 -0.234 0.072 3 
0.475 -0.237 0.072 3 
0.474 -0.245 0.069 3 
0.475 -0.246 0.072 3 
0.475 -0.255 0.072 3 
0.474 -0.257 0.072 3 
0.474 -0.267 0.072 3 
0.475 -0.274 0.072 3 
0.475 -0.277 0.072 3 
0.476 -0.287 0.072 3 
0.477 -0.295 0.073 3 
0.478 -0.306 0.073 3 
0.48 -0.317 0.073 3 
0.481 -0.335 0.073 3 
0.461 0.212 0.063 3 
0.461 0.203 0.063 3 
0.46 0.194 0.063 3 
0.461 0.183 0.063 3 
0.464 -0.055 0.026 3 
0.461 0.172 0.063 3 
0.462 -0.036 0.013 3 
0.461 0.164 0.063 3 
0.462 0.142 0.063 3 
0.462 0.134 0.063 3 
0.461 0.123 0.063 3 
0.446 0.106 0.062 3 
0.461 0.223 0.063 3 
0.489 0.087 0.063 3 
0.471 0.069 0.063 3 
0.457 0.063 0.063 3 
0.453 0.054 0.063 3 
0.466 -0.047 0.044 3 
0.46 0.243 0.032 3 
0.356 0.037 0.063 3 
0.358 0.034 0.063 3 
0.317 0.013 0.061 3 
0.327 -0.003 0.062 3 
0.309 0.004 0.064 3 
0.365 -0.034 0.063 3 
0.459 0.324 0.062 3 
0.458 0.303 0.062 3 
0.46 0.293 0.062 3 
0.46 0.283 0.062 3 
0.461 0.253 0.062 3 
0.46 0.243 0.062 3 
0.346 0.029 0.069 3 
0.323 0.024 0.069 3 
0.316 -0.003 0.068 3 
0.479 -0.043 0.08 3 
0.477 -0.046 0.08 3 
0.48 -0.327 0.082 3 
0.48 -0.337 0.082 3 
0.48 -0.348 0.082 3 
0.48 -0.355 0.082 3 
0.341 0.041 0.068 3 
0.31 0.032 0.066 3 
0.316 0.031 0.067 3 
0.454 0.062 0.078 3 
0.333 0.025 0.068 3 
0.318 -0.011 0.067 3 
0.324 -0.016 0.067 3 
0.5 -0.043 0.079 3 
0.459 0.242 0.024 3 
0.458 0.333 0.074 3 
0.459 0.321 0.074 3 
0.459 0.314 0.074 3 
0.473 -0.197 0.083 3 
0.468 -0.107 0.082 3 
0.463 -0.015 0.023 3 
0.468 -0.115 0.082 3 
0.468 -0.126 0.082 3 
0.462 0.153 0.063 3 
0.47 -0.135 0.082 3 
0.471 -0.147 0.083 3 
0.471 -0.155 0.083 3 
0.471 -0.166 0.083 3 
0.471 -0.175 0.083 3 
0.472 -0.187 0.083 3 
0.459 0.301 0.074 3 
0.473 -0.217 0.083 3 
0.473 -0.226 0.083 3 
0.474 -0.236 0.083 3 
0.475 -0.258 0.084 3 
0.475 -0.268 0.084 3 
0.476 -0.278 0.084 3 
0.476 -0.287 0.084 3 
0.477 -0.295 0.084 3 
0.342 0.017 0.057 3 
0.478 -0.316 0.084 3 
0.454 0.068 0.078 3 
0.471 -0.147 0.074 3 
0.313 -0.008 0.065 3 
0.325 -0.015 0.066 3 
0.469 -0.096 0.074 3 
0.475 -0.24 0.075 3 
0.469 -0.107 0.074 3 
0.468 -0.115 0.074 3 
0.469 -0.126 0.074 3 
0.47 -0.135 0.074 3 
0.33 -0.003 0.066 3 
0.471 -0.155 0.074 3 
0.471 -0.166 0.074 3 
0.474 -0.267 0.075 3 
0.458 0.143 0.012 3 
0.329 0.023 0.065 3 
0.317 0.02 0.064 3 
0.313 0.016 0.064 3 
0.311 0.014 0.064 3 
0.301 0.01 0.063 3 
0.461 0.184 0.073 3 
0.459 0.292 0.074 3 
0.459 0.282 0.073 3 
0.459 0.273 0.073 3 
0.46 0.261 0.073 3 
0.461 0.253 0.073 3 
0.461 0.244 0.073 3 
0.461 0.232 0.073 3 
0.461 0.223 0.073 3 
0.46 0.214 0.073 3 
0.461 0.203 0.073 3 
0.461 0.192 0.073 3 
0.461 0.224 0.103 3 
0.461 0.172 0.073 3 
0.462 0.153 0.073 3 
0.462 0.142 0.073 3 
0.462 0.123 0.073 3 
0.335 -0.019 0.067 3 
0.461 0.112 0.073 3 
0.462 0.104 0.073 3 
0.461 0.093 0.073 3 
0.352 0.045 0.067 3 
0.334 0.038 0.066 3 
