# .PCD v0.7 - Point Cloud Data file
FIELDS x y z intensity
SIZE 4 4 4 4
TYPE F F F F
COUNT 1 1 1 1
WIDTH 2520
HEIGHT 1
VIEWPOINT 0 0 0 1 0 0 0
POINTS 2520
DATA ascii
0.597 -0.033 0.169 0 
0.441 -0.036 0.009 0 
0.374 -0.236 -0.026 1 
0.372 -0.229 -0.024 1 
0.373 -0.227 -0.025 1 
0.362 -0.165 -0.018 1 
0.364 -0.155 -0.018 1 
0.364 -0.149 -0.018 1 
0.362 -0.136 -0.017 1 
0.361 -0.126 -0.016 1 
0.357 -0.109 -0.014 1 
0.354 -0.055 -0.012 1 
0.354 -0.045 -0.012 1 
0.354 -0.036 -0.012 1 
0.353 0.064 -0.013 1 
0.353 0.083 -0.013 1 
0.354 0.089 -0.014 1 
0.347 0.124 -0.012 1 
0.351 0.152 -0.015 1 
0.35 0.153 -0.014 1 
0.342 0.203 -0.015 1 
0.378 -0.228 -0.024 1 
0.379 -0.227 -0.025 1 
0.372 -0.197 -0.021 1 
0.37 -0.148 -0.018 1 
0.36 -0.085 -0.013 1 
0.361 -0.066 -0.013 1 
0.341 -0.015 -0.006 1 
0.333 -0.005 -0.003 1 
0.354 0.044 -0.011 1 
0.354 0.047 -0.011 1 
0.354 0.11 -0.012 1 
0.353 0.133 -0.013 1 
0.354 0.183 -0.016 1 
0.383 -0.246 -0.025 1 
0.381 -0.236 -0.024 1 
0.374 -0.186 -0.019 1 
0.373 -0.175 -0.018 1 
0.372 -0.137 -0.017 1 
0.372 -0.125 -0.017 1 
0.369 -0.116 -0.015 1 
0.369 -0.098 -0.015 1 
0.368 -0.085 -0.014 1 
0.37 -0.076 -0.015 1 
0.361 -0.055 -0.011 1 
0.364 -0.035 -0.012 1 
0.343 -0.013 -0.005 1 
0.353 0.025 -0.009 1 
0.364 0.073 -0.013 1 
0.363 0.084 -0.013 1 
0.362 0.124 -0.014 1 
0.363 0.154 -0.015 1 
0.354 0.171 -0.013 1 
0.354 0.197 -0.014 1 
0.354 0.212 -0.015 1 
0.353 0.216 -0.015 1 
0.393 -0.265 -0.027 1 
0.389 -0.258 -0.025 1 
0.392 -0.228 -0.025 1 
0.381 -0.155 -0.018 1 
0.374 -0.091 -0.015 1 
0.37 -0.045 -0.013 1 
0.36 -0.025 -0.009 1 
0.354 0.022 -0.007 1 
0.364 0.041 -0.011 1 
0.373 0.104 -0.015 1 
0.369 0.113 -0.014 1 
0.369 0.123 -0.014 1 
0.368 0.144 -0.015 1 
0.37 0.163 -0.016 1 
0.364 0.174 -0.015 1 
0.361 0.173 -0.014 1 
0.381 -0.249 -0.024 1 
0.362 0.182 -0.014 1 
0.364 0.188 -0.015 1 
0.361 0.2 -0.015 1 
0.393 -0.254 -0.024 1 
0.392 -0.228 -0.022 1 
0.401 -0.219 -0.025 1 
0.383 -0.125 -0.016 1 
0.383 -0.115 -0.016 1 
0.384 -0.106 -0.016 1 
0.381 -0.096 -0.015 1 
0.383 -0.077 -0.016 1 
0.374 -0.066 -0.012 1 
0.374 -0.063 -0.012 1 
0.373 -0.036 -0.012 1 
0.368 -0.026 -0.01 1 
0.354 -0.016 -0.006 1 
0.351 -0.012 -0.005 1 
0.346 -0.009 -0.003 1 
0.343 0.019 -0.007 1 
0.343 -0.005 -0.002 1 
0.336 -0.002 0 1 
0.361 0.023 -0.008 1 
0.363 0.025 -0.009 1 
0.371 0.044 -0.012 1 
0.373 0.084 -0.013 1 
0.372 0.144 -0.014 1 
0.372 0.183 -0.016 1 
0.373 0.194 -0.017 1 
0.363 0.213 -0.014 1 
0.362 0.223 -0.015 1 
0.362 0.226 -0.015 1 
0.394 -0.22 -0.02 1 
0.39 -0.106 -0.016 1 
0.381 -0.065 -0.013 1 
0.384 -0.056 -0.014 1 
0.381 -0.045 -0.013 1 
0.379 -0.035 -0.012 1 
0.362 -0.015 -0.007 1 
0.357 -0.004 -0.005 1 
0.373 0.028 -0.01 1 
0.382 0.074 -0.014 1 
0.381 0.084 -0.014 1 
0.382 0.096 -0.014 1 
0.384 0.099 -0.015 1 
0.382 0.118 -0.015 1 
0.382 0.164 -0.016 1 
0.371 0.224 -0.015 1 
0.372 0.237 -0.016 1 
0.403 -0.276 -0.024 1 
0.399 -0.266 -0.022 1 
0.373 0.054 -0.012 1 
0.404 -0.255 -0.023 1 
0.404 -0.253 -0.023 1 
0.382 -0.215 -0.021 1 
0.401 -0.226 -0.021 1 
0.393 -0.207 -0.018 1 
0.393 -0.196 -0.017 1 
0.394 -0.194 -0.018 1 
0.393 -0.125 -0.015 1 
0.394 -0.119 -0.016 1 
0.394 -0.085 -0.015 1 
0.394 -0.081 -0.015 1 
0.39 -0.075 -0.014 1 
0.389 -0.065 -0.013 1 
0.392 -0.056 -0.014 1 
0.389 -0.047 -0.013 1 
0.381 -0.026 -0.011 1 
0.371 -0.016 -0.008 1 
0.331 0.004 0.004 1 
0.331 0.013 0.004 1 
0.384 0.039 -0.012 1 
0.384 0.053 -0.012 1 
0.39 0.104 -0.015 1 
0.389 0.114 -0.015 1 
0.383 0.144 -0.014 1 
0.384 0.155 -0.014 1 
0.377 0.243 -0.016 1 
0.409 -0.266 -0.022 1 
0.412 -0.255 -0.023 1 
0.401 -0.205 -0.018 1 
0.403 -0.197 -0.018 1 
0.401 -0.156 -0.016 1 
0.4 -0.105 -0.015 1 
0.398 -0.102 -0.015 1 
0.399 -0.076 -0.015 1 
0.394 -0.036 -0.013 1 
0.379 -0.016 -0.008 1 
0.373 -0.006 -0.006 1 
0.384 0.031 -0.01 1 
0.392 0.053 -0.013 1 
0.391 0.063 -0.013 1 
0.394 0.074 -0.014 1 
0.394 0.082 -0.014 1 
0.394 0.093 -0.014 1 
0.394 0.103 -0.014 1 
0.392 0.124 -0.014 1 
0.391 0.134 -0.014 1 
0.391 0.142 -0.014 1 
0.39 0.15 -0.014 1 
0.391 0.158 -0.014 1 
0.391 0.164 -0.015 1 
0.388 0.183 -0.015 1 
0.383 0.249 -0.016 1 
0.413 -0.285 -0.022 1 
0.414 -0.239 -0.02 1 
0.41 -0.227 -0.019 1 
0.36 -0.006 -0.006 1 
0.407 -0.215 -0.018 1 
0.403 -0.187 -0.016 1 
0.404 -0.176 -0.016 1 
0.404 -0.174 -0.016 1 
0.403 -0.146 -0.015 1 
0.404 -0.142 -0.015 1 
0.405 -0.102 -0.015 1 
0.404 -0.095 -0.014 1 
0.404 -0.093 -0.014 1 
0.406 -0.083 -0.015 1 
0.403 -0.065 -0.014 1 
0.401 -0.045 -0.013 1 
0.399 -0.036 -0.012 1 
0.385 -0.015 -0.008 1 
0.383 -0.007 -0.008 1 
0.391 0.032 -0.01 1 
0.394 0.039 -0.011 1 
0.4 0.074 -0.013 1 
0.373 -0.106 -0.016 1 
0.399 0.123 -0.014 1 
0.399 0.163 -0.015 1 
0.397 0.167 -0.015 1 
0.394 0.174 -0.014 1 
0.396 0.185 -0.015 1 
0.391 0.194 -0.014 1 
0.391 0.204 -0.014 1 
0.394 0.223 -0.016 1 
0.392 0.244 -0.016 1 
0.421 -0.297 -0.022 1 
0.422 -0.266 -0.021 1 
0.414 -0.206 -0.017 1 
0.41 -0.195 -0.016 1 
0.413 -0.166 -0.016 1 
0.409 -0.147 -0.014 1 
0.41 -0.145 -0.015 1 
0.353 0.194 -0.016 1 
0.412 -0.135 -0.015 1 
0.411 -0.125 -0.014 1 
0.392 -0.245 -0.025 1 
0.413 -0.115 -0.015 1 
0.413 -0.11 -0.015 1 
0.412 -0.105 -0.014 1 
0.412 -0.085 -0.014 1 
0.413 -0.076 -0.014 1 
0.411 -0.065 -0.014 1 
0.406 -0.046 -0.012 1 
0.4 -0.016 -0.011 1 
0.399 -0.007 -0.01 1 
0.354 0.136 -0.013 1 
0.38 0.021 -0.005 1 
0.401 0.034 -0.011 1 
0.404 0.047 -0.012 1 
0.403 0.134 -0.013 1 
0.386 0.024 -0.009 1 
0.404 0.144 -0.014 1 
0.404 0.153 -0.014 1 
0.404 0.164 -0.014 1 
0.401 0.172 -0.014 1 
0.402 0.182 -0.014 1 
0.397 0.192 -0.013 1 
0.399 0.208 -0.014 1 
0.402 0.223 -0.016 1 
0.4 0.234 -0.016 1 
0.393 0.26 -0.015 1 
0.424 -0.294 -0.02 1 
0.422 -0.257 -0.018 1 
0.423 -0.236 -0.018 1 
0.422 -0.225 -0.017 1 
0.422 -0.197 -0.017 1 
0.406 -0.025 -0.01 1 
0.413 0.053 -0.012 1 
0.414 0.063 -0.013 1 
0.412 0.073 -0.012 1 
0.411 0.084 -0.012 1 
0.414 0.124 -0.014 1 
0.411 0.134 -0.013 1 
0.409 0.163 -0.013 1 
0.4 -0.238 -0.023 1 
0.408 0.224 -0.015 1 
0.4 0.263 -0.015 1 
0.399 0.264 -0.014 1 
0.399 0.267 -0.015 1 
0.431 -0.308 -0.02 1 
0.434 -0.278 -0.02 1 
0.424 -0.219 -0.015 1 
0.426 -0.185 -0.015 1 
0.423 -0.175 -0.014 1 
0.424 -0.169 -0.014 1 
0.424 -0.156 -0.014 1 
0.421 -0.147 -0.013 1 
0.422 -0.136 -0.013 1 
0.424 -0.115 -0.013 1 
0.365 0.211 -0.015 1 
0.423 -0.105 -0.013 1 
0.423 -0.096 -0.013 1 
0.424 -0.075 -0.013 1 
0.424 -0.066 -0.013 1 
0.421 -0.056 -0.012 1 
0.419 -0.046 -0.011 1 
0.384 -0.186 -0.018 1 
0.394 -0.149 -0.016 1 
0.4 0.104 -0.014 1 
0.42 -0.035 -0.012 1 
0.412 -0.01 -0.01 1 
0.377 0.021 0 1 
0.419 0.064 -0.012 1 
0.413 0.144 -0.012 1 
0.414 0.152 -0.012 1 
0.414 0.194 -0.013 1 
0.411 0.211 -0.013 1 
0.414 0.229 -0.015 1 
0.416 0.234 -0.015 1 
0.415 0.241 -0.015 1 
0.414 0.242 -0.015 1 
0.413 0.252 -0.015 1 
0.409 0.273 -0.015 1 
0.407 0.276 -0.015 1 
0.434 -0.29 -0.018 1 
0.433 -0.226 -0.015 1 
0.434 -0.217 -0.015 1 
0.432 -0.205 -0.015 1 
0.38 -0.074 -0.015 1 
0.432 -0.197 -0.014 1 
0.433 -0.195 -0.015 1 
0.435 -0.194 -0.015 1 
0.431 -0.186 -0.014 1 
0.37 0.096 -0.014 1 
0.43 -0.177 -0.014 1 
0.43 -0.165 -0.013 1 
0.427 -0.146 -0.012 1 
0.43 -0.135 -0.013 1 
0.432 -0.126 -0.013 1 
0.429 -0.108 -0.012 1 
0.428 -0.095 -0.012 1 
0.43 -0.065 -0.012 1 
0.354 0.177 -0.013 1 
0.428 -0.046 -0.012 1 
0.384 0.214 -0.017 1 
0.419 0.032 -0.009 1 
0.418 -0.177 -0.015 1 
0.424 0.044 -0.011 1 
0.424 0.074 -0.011 1 
0.424 0.091 -0.011 1 
0.423 0.102 -0.011 1 
0.424 0.124 -0.012 1 
0.42 0.153 -0.011 1 
0.416 0.28 -0.015 1 
0.381 0.124 -0.014 1 
0.414 0.284 -0.014 1 
0.443 -0.278 -0.017 1 
0.432 -0.258 -0.013 1 
0.438 -0.196 -0.014 1 
0.434 -0.157 -0.012 1 
0.434 -0.085 -0.011 1 
0.434 -0.083 -0.011 1 
0.434 -0.035 -0.011 1 
0.426 -0.01 -0.009 1 
0.469 -0.007 -0.02 1 
0.332 0.004 0.014 1 
0.332 0.015 0.014 1 
0.431 0.052 -0.01 1 
0.429 0.064 -0.01 1 
0.433 0.084 -0.011 1 
0.433 0.094 -0.011 1 
0.429 0.124 -0.011 1 
0.427 0.143 -0.011 1 
0.423 0.183 -0.011 1 
0.423 0.193 -0.011 1 
0.423 0.203 -0.011 1 
0.422 0.213 -0.011 1 
0.42 0.224 -0.011 1 
0.423 0.232 -0.012 1 
0.423 0.243 -0.012 1 
0.424 0.283 -0.014 1 
0.423 0.291 -0.014 1 
0.442 -0.317 -0.015 1 
0.42 -0.206 -0.016 1 
0.445 -0.305 -0.015 1 
0.444 -0.297 -0.015 1 
0.446 -0.296 -0.015 1 
0.447 -0.285 -0.015 1 
0.384 0.134 -0.014 1 
0.447 -0.282 -0.015 1 
0.412 0.102 -0.013 1 
0.441 -0.236 -0.012 1 
0.442 -0.225 -0.012 1 
0.443 -0.216 -0.013 1 
0.442 -0.185 -0.012 1 
0.442 -0.175 -0.012 1 
0.441 -0.166 -0.011 1 
0.44 -0.155 -0.011 1 
0.442 -0.146 -0.011 1 
0.443 -0.136 -0.011 1 
0.441 -0.125 -0.011 1 
0.44 -0.115 -0.01 1 
0.44 -0.105 -0.01 1 
0.41 -0.096 -0.014 1 
0.441 -0.095 -0.01 1 
0.423 0.083 -0.011 1 
0.441 -0.085 -0.01 1 
0.444 -0.056 -0.011 1 
0.401 0.064 -0.013 1 
0.439 -0.035 -0.009 1 
0.438 0.054 -0.01 1 
0.434 0.065 -0.009 1 
0.434 0.154 -0.01 1 
0.434 0.162 -0.011 1 
0.431 0.173 -0.01 1 
0.429 0.182 -0.01 1 
0.429 0.262 -0.012 1 
0.437 0.31 -0.016 1 
0.451 -0.321 -0.015 1 
0.448 -0.289 -0.013 1 
0.443 -0.266 -0.011 1 
0.444 -0.261 -0.011 1 
0.451 -0.146 -0.011 1 
0.447 -0.115 -0.009 1 
0.45 -0.095 -0.01 1 
0.442 -0.207 -0.012 1 
0.451 -0.085 -0.01 1 
0.45 -0.075 -0.01 1 
0.424 0.046 -0.011 1 
0.443 -0.026 -0.008 1 
0.444 -0.024 -0.008 1 
0.448 -0.014 -0.009 1 
0.444 0.04 -0.009 1 
0.444 0.063 -0.009 1 
0.442 0.072 -0.008 1 
0.443 0.082 -0.009 1 
0.441 0.122 -0.009 1 
0.441 0.132 -0.009 1 
0.434 0.193 -0.009 1 
0.434 0.204 -0.009 1 
0.434 0.214 -0.009 1 
0.433 0.224 -0.009 1 
0.432 0.232 -0.009 1 
0.434 0.253 -0.01 1 
0.434 0.273 -0.011 1 
0.433 0.284 -0.011 1 
0.431 0.294 -0.011 1 
0.384 -0.206 -0.019 1 
0.453 -0.326 -0.013 1 
0.454 -0.321 -0.013 1 
0.454 -0.295 -0.012 1 
0.423 0.133 -0.012 1 
0.454 -0.267 -0.011 1 
0.454 -0.258 -0.011 1 
0.45 -0.246 -0.009 1 
0.452 -0.236 -0.01 1 
0.454 -0.229 -0.01 1 
0.454 -0.216 -0.01 1 
0.453 -0.207 -0.009 1 
0.454 -0.196 -0.01 1 
0.454 -0.185 -0.009 1 
0.454 -0.158 -0.009 1 
0.454 -0.136 -0.009 1 
0.454 -0.131 -0.009 1 
0.454 -0.107 -0.008 1 
0.453 -0.055 -0.008 1 
0.485 -0.01 -0.015 1 
0.44 0.144 -0.009 1 
0.454 0.044 -0.008 1 
0.449 0.053 -0.007 1 
0.444 0.163 -0.008 1 
0.444 0.173 -0.008 1 
0.411 0.189 -0.015 1 
0.443 0.183 -0.008 1 
0.439 0.194 -0.007 1 
0.439 0.202 -0.008 1 
0.44 0.244 -0.009 1 
0.433 0.299 -0.009 1 
0.462 -0.297 -0.011 1 
0.383 -0.243 -0.025 1 
0.456 -0.056 -0.006 1 
0.453 0.062 -0.006 1 
0.45 0.074 -0.005 1 
0.452 0.093 -0.006 1 
0.453 0.104 -0.006 1 
0.454 0.133 -0.007 1 
0.452 0.153 -0.007 1 
0.45 0.164 -0.007 1 
0.444 0.274 -0.008 1 
0.443 0.282 -0.008 1 
0.443 0.291 -0.008 1 
0.461 -0.335 -0.009 1 
0.383 0.183 -0.015 1 
0.464 -0.322 -0.009 1 
0.461 -0.255 -0.007 1 
0.464 -0.237 -0.007 1 
0.463 -0.217 -0.006 1 
0.463 -0.197 -0.006 1 
0.462 -0.176 -0.006 1 
0.463 -0.157 -0.006 1 
0.463 -0.135 -0.005 1 
0.463 -0.116 -0.005 1 
0.464 -0.097 -0.005 1 
0.463 -0.076 -0.005 1 
0.492 -0.063 -0.011 1 
0.466 -0.055 -0.005 1 
0.463 -0.052 -0.005 1 
0.462 0.043 -0.005 1 
0.464 0.054 -0.005 1 
0.459 0.061 -0.004 1 
0.46 0.063 -0.005 1 
0.373 0.02 -0.008 1 
0.46 0.074 -0.005 1 
0.458 0.124 -0.005 1 
0.457 0.142 -0.005 1 
0.455 0.166 -0.005 1 
0.454 0.174 -0.005 1 
0.394 0.231 -0.016 1 
0.454 0.182 -0.005 1 
0.454 0.193 -0.005 1 
0.454 0.199 -0.005 1 
0.455 0.202 -0.006 1 
0.414 0.092 -0.013 1 
0.455 0.205 -0.006 1 
0.454 0.213 -0.006 1 
0.452 0.223 -0.006 1 
0.451 0.234 -0.006 1 
0.451 0.242 -0.006 1 
0.451 0.254 -0.006 1 
0.45 0.262 -0.006 1 
0.449 0.282 -0.007 1 
0.444 0.314 -0.007 1 
0.443 0.316 -0.007 1 
0.457 0.134 -0.005 1 
0.47 -0.288 -0.006 1 
0.469 -0.278 -0.006 1 
0.47 -0.245 -0.005 1 
0.468 -0.237 -0.005 1 
0.466 -0.231 -0.005 1 
0.464 -0.186 -0.003 1 
0.464 -0.177 -0.003 1 
0.451 -0.037 0 1 
0.457 -0.035 -0.001 1 
0.41 -0.186 -0.015 1 
0.483 -0.01 -0.006 1 
0.488 -0.007 -0.007 1 
0.481 -0.058 -0.006 1 
0.373 0.011 0.015 1 
0.375 0.015 0.015 1 
0.376 0.017 0.014 1 
0.457 0.153 -0.005 1 
0.452 0.085 -0.001 1 
0.456 0.264 -0.005 1 
0.455 0.269 -0.005 1 
0.454 0.271 -0.004 1 
0.452 0.282 -0.004 1 
0.453 0.292 -0.005 1 
0.454 0.299 -0.005 1 
0.455 0.303 -0.006 1 
0.453 0.314 -0.006 1 
0.449 0.323 -0.005 1 
0.473 -0.345 -0.006 1 
0.472 -0.337 -0.005 1 
0.429 0.134 -0.011 1 
0.444 0.262 -0.008 1 
0.472 -0.327 -0.005 1 
0.473 -0.317 -0.005 1 
0.453 -0.045 -0.005 1 
0.473 -0.311 -0.005 1 
0.441 -0.036 0.004 1 
0.458 0.113 -0.005 1 
0.393 -0.157 -0.016 1 
0.381 0.008 0.015 1 
0.388 0.014 0.014 1 
0.388 0.018 0.014 1 
0.474 -0.336 -0.002 1 
0.382 0.151 -0.014 1 
0.474 -0.322 -0.002 1 
0.474 -0.308 -0.002 1 
0.468 -0.045 0.001 1 
0.413 -0.129 -0.015 1 
0.465 -0.025 0.002 1 
0.394 0.114 -0.014 1 
0.455 0.013 0.003 1 
0.459 0.024 0.003 1 
0.463 0.032 0.002 1 
0.471 0.071 0 1 
0.451 0.074 0.004 1 
0.451 0.079 0.004 1 
0.465 0.146 0.001 1 
0.463 0.174 0 1 
0.464 0.183 0 1 
0.461 0.224 0 1 
0.474 -0.328 0 1 
0.479 -0.007 -0.02 1 
0.475 -0.296 0 1 
0.476 -0.287 0 1 
0.476 -0.275 0.001 1 
0.476 -0.246 0.001 1 
0.475 -0.237 0.001 1 
0.471 -0.225 0.002 1 
0.47 -0.216 0.002 1 
0.471 -0.205 0.002 1 
0.47 -0.195 0.003 1 
0.469 -0.186 0.003 1 
0.47 -0.155 0.003 1 
0.469 -0.146 0.003 1 
0.374 -0.213 -0.02 1 
0.423 0.114 -0.011 1 
0.468 -0.137 0.004 1 
0.469 -0.096 0.004 1 
0.469 -0.085 0.004 1 
0.468 -0.077 0.004 1 
0.469 -0.066 0.004 1 
0.475 -0.065 0.003 1 
0.471 -0.058 0.003 1 
0.477 -0.057 0.002 1 
0.486 -0.056 0.001 1 
0.464 -0.025 0.004 1 
0.467 -0.015 0.004 1 
0.466 -0.007 0.004 1 
0.464 0.038 0.004 1 
0.466 0.043 0.004 1 
0.467 -0.255 -0.005 1 
0.478 0.067 0.002 1 
0.462 0.093 0.004 1 
0.463 0.112 0.004 1 
0.464 0.124 0.004 1 
0.465 0.132 0.003 1 
0.465 0.144 0.003 1 
0.464 0.152 0.003 1 
0.464 0.155 0.003 1 
0.465 0.164 0.003 1 
0.465 0.183 0.003 1 
0.465 0.189 0.002 1 
0.464 0.191 0.003 1 
0.466 0.204 0.002 1 
0.466 0.213 0.002 1 
0.465 0.224 0.002 1 
0.467 0.231 0.001 1 
0.463 0.234 0.002 1 
0.463 0.243 0.002 1 
0.463 0.252 0.002 1 
0.474 -0.349 0.002 1 
0.476 -0.345 0.002 1 
0.363 0.104 -0.014 1 
0.476 -0.337 0.002 1 
0.424 -0.087 -0.013 1 
0.476 -0.327 0.002 1 
0.474 -0.295 0.003 1 
0.474 -0.285 0.004 1 
0.473 -0.275 0.004 1 
0.473 -0.266 0.004 1 
0.484 -0.047 0.004 1 
0.457 0.003 0.008 1 
0.466 0.043 0.007 1 
0.482 0.054 0.004 1 
0.487 0.064 0.003 1 
0.442 -0.065 -0.01 1 
0.384 -0.177 -0.018 1 
0.463 0.264 0.004 1 
0.461 -0.007 -0.023 1 
0.463 0.273 0.004 1 
0.464 0.293 0.003 1 
0.463 0.302 0.003 1 
0.463 0.311 0.003 1 
0.464 0.322 0.003 1 
0.464 0.326 0.002 1 
0.465 0.334 0.002 1 
0.37 0.145 -0.013 1 
0.466 0.342 0.002 1 
0.474 -0.353 0.005 1 
0.475 -0.28 0.006 1 
0.442 0.032 -0.008 1 
0.444 -0.048 0.001 1 
0.45 0.033 -0.007 1 
0.451 -0.027 0.012 1 
0.461 0.032 -0.005 1 
0.458 -0.025 0.011 1 
0.476 0.061 0.002 1 
0.462 -0.007 0.01 1 
0.472 -0.004 0.009 1 
0.478 -0.001 0.008 1 
0.462 -0.007 -0.01 1 
0.457 0.008 0.011 1 
0.424 0.009 0.016 1 
0.432 0.012 0.015 1 
0.417 0.016 0.017 1 
0.455 0.024 0.011 1 
0.485 0.06 0.006 1 
0.472 0.074 -0.005 1 
0.505 -0.056 0.006 1 
0.523 -0.014 0.004 1 
0.431 0.043 -0.01 1 
0.5 -0.005 0.007 1 
0.423 0.254 -0.013 1 
0.483 0.06 0.009 1 
0.463 -0.065 -0.005 1 
0.412 0.202 -0.013 1 
0.382 -0.146 -0.017 1 
0.464 -0.089 -0.005 1 
0.454 -0.166 -0.009 1 
0.463 -0.105 -0.005 1 
0.422 -0.026 -0.01 1 
0.493 -0.016 0.011 1 
0.454 -0.066 -0.008 1 
0.464 -0.127 -0.005 1 
0.463 -0.146 -0.005 1 
0.462 -0.165 -0.005 1 
0.462 -0.185 -0.006 1 
0.463 -0.225 -0.007 1 
0.449 -0.306 -0.014 1 
0.463 -0.245 -0.007 1 
0.46 -0.285 -0.01 1 
0.444 0.253 -0.007 1 
0.443 0.103 -0.009 1 
0.394 -0.026 -0.011 1 
0.464 -0.328 -0.009 1 
0.369 0.129 -0.015 1 
0.441 -0.075 -0.01 1 
0.441 -0.276 -0.011 1 
0.413 0.112 -0.013 1 
0.373 0.108 -0.015 1 
0.433 -0.245 -0.016 1 
0.39 0.166 -0.015 1 
0.505 -0.014 0.009 1 
0.436 -0.265 -0.015 1 
0.399 -0.085 -0.015 1 
0.444 -0.247 -0.011 1 
0.455 0.291 -0.005 1 
0.452 0.143 -0.006 1 
0.418 -0.155 -0.015 1 
0.438 -0.247 -0.015 1 
0.468 -0.126 0.004 1 
0.382 0.114 -0.015 1 
0.489 0.067 0.003 1 
0.474 0.061 -0.002 1 
0.474 -0.245 0.004 1 
0.36 0.114 -0.013 1 
0.453 -0.022 -0.008 1 
0.418 -0.015 -0.009 1 
0.454 0.122 -0.007 1 
0.47 -0.295 -0.006 1 
0.439 -0.013 -0.01 1 
0.439 0.154 -0.009 1 
0.351 0.163 -0.013 1 
0.331 0.015 0.004 1 
0.359 0.202 -0.014 1 
0.34 0.017 -0.003 1 
0.364 0.094 -0.014 1 
0.405 -0.035 -0.012 1 
0.357 0.144 -0.015 1 
0.464 -0.172 -0.003 1 
0.333 -0.011 -0.005 1 
0.332 0.013 0.014 1 
0.464 0.336 0.002 1 
0.464 0.143 0.001 1 
0.441 0.212 -0.008 1 
0.359 0.134 -0.013 1 
0.352 -0.026 -0.01 1 
0.37 -0.215 -0.023 1 
0.444 -0.046 -0.011 1 
0.369 -0.072 -0.015 1 
0.423 -0.278 -0.022 1 
0.431 0.113 -0.011 1 
0.351 0.203 -0.016 1 
0.387 0.202 -0.015 1 
0.4 0.212 -0.015 1 
0.424 0.272 -0.014 1 
0.396 -0.247 -0.025 1 
0.388 0.119 -0.015 1 
0.373 0.064 -0.013 1 
0.478 -0.007 -0.003 1 
0.397 0.244 -0.015 1 
0.4 0.113 -0.014 1 
0.472 -0.167 0.003 1 
0.412 -0.245 -0.022 1 
0.352 0.104 -0.013 1 
0.455 0.003 0.003 1 
0.393 -0.236 -0.023 1 
0.474 -0.236 0.004 1 
0.487 -0.05 0.003 1 
0.411 0.221 -0.013 1 
0.392 -0.095 -0.015 1 
0.434 -0.238 -0.016 1 
0.434 -0.269 -0.019 1 
0.4 -0.267 -0.025 1 
0.407 -0.055 -0.012 1 
0.384 0.059 -0.012 1 
0.419 0.173 -0.012 1 
0.424 -0.245 -0.018 1 
0.419 -0.165 -0.015 1 
0.447 -0.034 0.002 1 
0.475 -0.261 0.001 1 
0.387 0.184 -0.014 1 
0.464 0.127 0.004 1 
0.383 0.203 -0.016 1 
0.381 0.193 -0.015 1 
0.361 0.158 -0.015 1 
0.414 0.167 -0.013 1 
0.461 -0.017 0.013 1 
0.391 -0.237 -0.025 1 
0.39 0.252 -0.016 1 
0.464 -0.02 -0.005 1 
0.461 -0.265 -0.007 1 
0.48 -0.01 -0.026 1 
0.465 -0.087 -0.005 1 
0.361 0.147 -0.014 1 
0.452 -0.275 -0.011 1 
0.364 -0.107 -0.015 1 
0.463 0.104 0.004 1 
0.478 -0.04 0.008 1 
0.443 0.092 -0.009 1 
0.453 0.114 -0.006 1 
0.414 0.184 -0.013 1 
0.453 -0.032 -0.005 1 
0.383 -0.085 -0.016 1 
0.412 0.044 -0.012 1 
0.423 0.262 -0.013 1 
0.419 0.143 -0.011 1 
0.451 -0.037 -0.005 1 
0.431 -0.296 -0.02 1 
0.425 0.296 -0.015 1 
0.461 -0.025 -0.005 1 
0.456 0.034 0.014 1 
0.401 -0.215 -0.018 1 
0.441 -0.285 -0.016 1 
0.454 0.274 -0.005 1 
0.394 -0.18 -0.017 1 
0.409 -0.175 -0.015 1 
0.402 -0.056 -0.013 1 
0.411 -0.155 -0.015 1 
0.363 -0.097 -0.015 1 
0.399 -0.126 -0.015 1 
0.443 0.304 -0.009 1 
0.375 0.128 -0.015 1 
0.454 -0.177 -0.009 1 
0.369 0.229 -0.015 1 
0.364 -0.047 -0.012 1 
0.374 0.154 -0.015 1 
0.376 0.234 -0.015 1 
0.432 0.103 -0.011 1 
0.431 -0.025 -0.01 1 
0.42 -0.186 -0.016 1 
0.442 0.112 -0.009 1 
0.428 0.033 -0.009 1 
0.362 -0.075 -0.014 1 
0.362 0.184 -0.015 1 
0.418 0.274 -0.015 1 
0.444 -0.313 -0.016 1 
0.476 -0.265 0.001 1 
0.43 -0.055 -0.012 1 
0.462 0.204 0 1 
0.45 0.084 -0.005 1 
0.433 -0.257 -0.016 1 
0.367 -0.096 -0.014 1 
0.378 0.224 -0.015 1 
0.383 -0.196 -0.018 1 
0.394 0.214 -0.015 1 
0.373 -0.156 -0.018 1 
0.362 0.053 -0.012 1 
0.393 -0.257 -0.024 1 
0.374 0.174 -0.016 1 
0.484 -0.055 0.007 1 
0.374 0.087 -0.013 1 
0.418 -0.01 -0.009 1 
0.364 0.063 -0.013 1 
0.465 0.172 0.003 1 
0.399 0.082 -0.013 1 
0.384 -0.168 -0.018 1 
0.358 0.162 -0.014 1 
0.466 -0.266 -0.005 1 
0.403 0.253 -0.015 1 
0.464 0.284 0.004 1 
0.455 0.078 -0.004 1 
0.36 0.142 -0.014 1 
0.473 -0.256 0.004 1 
0.402 0.042 -0.011 1 
0.414 0.031 -0.01 1 
0.362 -0.115 -0.015 1 
0.404 0.196 -0.013 1 
0.373 0.133 -0.014 1 
0.39 -0.096 -0.014 1 
0.441 0.223 -0.008 1 
0.464 -0.023 -0.003 1 
0.353 0.073 -0.013 1 
0.39 -0.166 -0.018 1 
0.414 -0.28 -0.022 1 
0.411 0.264 -0.015 1 
0.507 -0.059 0 1 
0.461 0.074 -0.002 1 
0.413 0.226 -0.014 1 
0.464 0.046 -0.003 1 
0.465 -0.004 0.004 1 
0.476 -0.317 0.003 1 
0.463 -0.205 -0.006 1 
0.398 -0.026 -0.01 1 
0.383 0.094 -0.014 1 
0.455 0.164 -0.005 1 
0.424 -0.125 -0.013 1 
0.459 -0.275 -0.007 1 
0.43 -0.115 -0.013 1 
0.384 0.173 -0.015 1 
0.44 0.233 -0.009 1 
0.465 -0.095 -0.005 1 
0.472 0.052 0.003 1 
0.455 0.186 -0.005 1 
0.462 0.213 0 1 
0.433 0.238 -0.01 1 
0.421 0.164 -0.012 1 
0.412 -0.016 -0.01 1 
0.454 -0.024 0.014 1 
0.387 0.189 -0.015 1 
0.429 -0.015 -0.01 1 
0.4 -0.115 -0.015 1 
0.384 -0.136 -0.017 1 
0.471 -0.015 -0.007 1 
0.374 0.204 -0.017 1 
0.391 -0.092 -0.014 1 
0.472 -0.042 0.003 1 
0.463 -0.307 -0.011 1 
0.394 -0.136 -0.016 1 
0.364 0.212 -0.015 1 
0.374 -0.167 -0.018 1 
0.374 0.068 -0.013 1 
0.399 0.093 -0.013 1 
0.47 -0.175 0.003 1 
0.367 -0.01 0.044 2 
0.417 0.059 0.032 2 
0.361 -0.004 0.044 2 
0.368 -0.019 0.044 2 
0.381 0.048 0.042 2 
0.363 -0.001 0.012 2 
0.375 0.002 0.012 2 
0.374 0.004 0.012 2 
0.38 0.004 0.03 2 
0.417 0.054 0.032 2 
0.401 0.051 0.037 2 
0.373 -0.008 0.052 2 
0.378 -0.008 0.049 2 
0.514 -0.029 0.012 2 
0.522 -0.037 0.018 2 
0.44 -0.028 0.029 2 
0.437 -0.033 0.026 2 
0.429 -0.027 0.028 2 
0.421 -0.026 0.027 2 
0.534 -0.015 0.05 2 
0.548 -0.026 0.045 2 
0.553 -0.043 0.05 2 
0.531 -0.041 0.046 2 
0.527 -0.014 0.047 2 
0.546 -0.019 0.041 2 
0.545 -0.015 0.064 2 
0.418 -0.024 0.032 2 
0.553 -0.043 0.06 2 
0.543 -0.045 0.071 2 
0.544 -0.029 0.038 2 
0.533 -0.018 0.032 2 
0.529 -0.018 0.022 2 
0.53 -0.028 0.022 2 
0.526 -0.037 0.021 2 
0.533 -0.028 0.028 2 
0.533 -0.038 0.027 2 
0.543 -0.039 0.036 2 
0.431 -0.027 0.023 2 
0.54 -0.018 0.035 2 
0.54 -0.025 0.035 2 
0.54 -0.035 0.033 2 
0.465 0.103 0.114 3 
0.465 0.178 0.114 3 
0.465 0.172 0.114 3 
0.465 0.164 0.114 3 
0.465 0.153 0.114 3 
0.465 0.204 0.112 3 
0.465 0.133 0.114 3 
0.465 0.122 0.114 3 
0.463 0.293 0.082 3 
0.465 0.114 0.114 3 
0.465 0.215 0.12 3 
0.465 0.092 0.114 3 
0.465 0.084 0.114 3 
0.464 0.073 0.114 3 
0.464 0.341 0.114 3 
0.464 0.334 0.114 3 
0.465 0.331 0.114 3 
0.465 0.321 0.114 3 
0.464 0.076 0.122 3 
0.466 0.184 0.123 3 
0.466 0.173 0.123 3 
0.465 0.164 0.123 3 
0.466 0.153 0.123 3 
0.465 0.133 0.122 3 
0.466 0.114 0.122 3 
0.465 0.103 0.122 3 
0.465 0.092 0.122 3 
0.464 0.324 0.117 3 
0.464 0.338 0.123 3 
0.466 0.333 0.123 3 
0.465 0.322 0.123 3 
0.464 0.311 0.122 3 
0.465 0.308 0.122 3 
0.465 0.302 0.122 3 
0.465 0.292 0.122 3 
0.464 0.31 0.114 3 
0.464 0.269 0.104 3 
0.464 0.266 0.11 3 
0.465 0.227 0.11 3 
0.464 0.073 0.092 3 
0.318 0.001 0.044 3 
0.464 0.149 0.106 3 
0.464 0.089 0.106 3 
0.285 -0.004 0.077 3 
0.464 0.281 0.105 3 
0.466 0.343 0.112 3 
0.464 0.263 0.104 3 
0.463 0.253 0.104 3 
0.464 0.323 0.082 3 
0.465 0.233 0.104 3 
0.465 0.224 0.104 3 
0.465 0.212 0.104 3 
0.465 0.203 0.104 3 
0.465 0.192 0.104 3 
0.464 0.233 0.112 3 
0.465 0.305 0.114 3 
0.465 0.302 0.114 3 
0.465 0.292 0.113 3 
0.465 0.283 0.113 3 
0.465 0.273 0.113 3 
0.464 0.263 0.113 3 
0.464 0.254 0.113 3 
0.464 0.242 0.112 3 
0.464 0.152 0.09 3 
0.465 0.224 0.112 3 
0.463 0.322 0.043 3 
0.465 0.192 0.112 3 
0.464 0.158 0.111 3 
0.464 0.144 0.111 3 
0.465 0.073 0.111 3 
0.461 0.053 0.11 3 
0.464 0.292 0.133 3 
0.287 0.024 0.088 3 
0.273 0.019 0.084 3 
0.272 0.004 0.084 3 
0.273 -0.005 0.084 3 
0.464 0.335 0.134 3 
0.466 0.323 0.134 3 
0.465 0.342 0.123 3 
0.464 0.301 0.133 3 
0.456 0.06 0.13 3 
0.465 0.286 0.133 3 
0.275 0.005 0.082 3 
0.465 0.307 0.074 3 
0.465 0.283 0.133 3 
0.465 0.274 0.133 3 
0.278 0.004 0.074 3 
0.465 0.264 0.133 3 
0.464 0.132 0.022 3 
0.465 0.133 0.133 3 
0.464 0.213 0.134 3 
0.464 0.204 0.134 3 
0.465 0.198 0.134 3 
0.465 0.192 0.134 3 
0.465 0.184 0.134 3 
0.465 0.172 0.134 3 
0.465 0.164 0.134 3 
0.465 0.153 0.133 3 
0.465 0.252 0.132 3 
0.465 0.122 0.133 3 
0.466 0.114 0.133 3 
0.466 0.103 0.133 3 
0.466 0.092 0.133 3 
0.466 0.084 0.133 3 
0.465 0.073 0.133 3 
0.464 0.07 0.132 3 
0.465 0.277 0.124 3 
0.464 0.076 0.127 3 
0.313 0.029 0.092 3 
0.275 -0.002 0.083 3 
0.465 0.21 0.126 3 
0.461 0.061 0.124 3 
0.286 0.023 0.084 3 
0.312 0.004 0.044 3 
0.464 0.254 0.124 3 
0.465 0.273 0.124 3 
0.464 0.263 0.124 3 
0.464 0.242 0.124 3 
0.464 0.233 0.123 3 
0.464 0.224 0.123 3 
0.465 0.212 0.123 3 
0.465 0.204 0.123 3 
0.465 0.183 0.104 3 
0.464 0.334 0.132 3 
0.465 0.243 0.132 3 
0.465 0.234 0.132 3 
0.464 0.23 0.132 3 
0.291 0.025 0.088 3 
0.275 0.02 0.084 3 
0.275 -0.006 0.084 3 
0.465 0.2 0.082 3 
0.476 0.355 0.135 3 
0.466 0.193 0.123 3 
0.466 0.333 0.132 3 
0.465 0.302 0.131 3 
0.464 0.257 0.13 3 
0.465 0.094 0.033 3 
0.464 0.248 0.129 3 
0.465 0.288 0.071 3 
0.464 0.239 0.129 3 
0.464 0.2 0.084 3 
0.465 0.304 0.088 3 
0.465 0.244 0.088 3 
0.464 0.223 0.087 3 
0.464 0.113 0.087 3 
0.464 0.102 0.087 3 
0.286 0.014 0.069 3 
0.465 0.25 0.085 3 
0.464 0.211 0.084 3 
0.464 0.293 0.023 3 
0.465 0.189 0.084 3 
0.464 0.183 0.084 3 
0.464 0.174 0.084 3 
0.461 0.333 0.054 3 
0.464 0.163 0.084 3 
0.465 0.152 0.084 3 
0.464 0.146 0.084 3 
0.465 0.144 0.084 3 
0.464 0.083 0.092 3 
0.464 0.138 0.092 3 
0.465 0.133 0.092 3 
0.465 0.122 0.092 3 
0.465 0.114 0.092 3 
0.465 0.103 0.092 3 
0.464 0.092 0.092 3 
0.465 0.086 0.092 3 
0.465 0.133 0.084 3 
0.465 0.081 0.092 3 
0.465 0.07 0.092 3 
0.321 0.025 0.075 3 
0.463 0.193 0.022 3 
0.464 0.18 0.09 3 
0.464 0.16 0.09 3 
0.326 0.026 0.075 3 
0.464 0.313 0.054 3 
0.464 0.274 0.023 3 
0.465 0.25 0.082 3 
0.464 0.244 0.082 3 
0.465 0.238 0.082 3 
0.465 0.062 0.063 3 
0.465 0.232 0.082 3 
0.464 0.226 0.082 3 
0.464 0.223 0.082 3 
0.465 0.215 0.082 3 
0.464 0.253 0.082 3 
0.465 0.206 0.082 3 
0.464 0.194 0.082 3 
0.464 0.108 0.082 3 
0.464 0.089 0.082 3 
0.464 0.083 0.082 3 
0.464 0.154 0.063 3 
0.465 0.169 0.079 3 
0.462 0.142 0.014 3 
0.463 0.053 0.084 3 
0.465 0.122 0.084 3 
0.465 0.114 0.084 3 
0.465 0.103 0.084 3 
0.465 0.092 0.084 3 
0.465 0.084 0.084 3 
0.462 0.338 0.014 3 
0.464 0.073 0.084 3 
0.463 0.062 0.084 3 
0.463 0.064 0.034 3 
0.462 0.338 0.082 3 
0.465 0.314 0.082 3 
0.465 0.304 0.082 3 
0.464 0.3 0.082 3 
0.464 0.284 0.082 3 
0.464 0.272 0.082 3 
0.463 0.262 0.082 3 
0.464 0.304 0.102 3 
0.463 0.234 0.043 3 
0.465 0.269 0.063 3 
0.464 0.34 0.103 3 
0.465 0.338 0.103 3 
0.464 0.333 0.103 3 
0.466 0.332 0.103 3 
0.465 0.324 0.103 3 
0.464 0.313 0.102 3 
0.464 0.163 0.073 3 
0.464 0.294 0.102 3 
0.464 0.284 0.102 3 
0.462 0.334 0.082 3 
0.465 0.279 0.102 3 
0.465 0.236 0.101 3 
0.449 0.049 0.098 3 
0.464 0.317 0.099 3 
0.465 0.314 0.1 3 
0.464 0.083 0.103 3 
0.465 0.172 0.104 3 
0.465 0.164 0.103 3 
0.465 0.152 0.103 3 
0.465 0.144 0.103 3 
0.465 0.133 0.103 3 
0.465 0.122 0.103 3 
0.465 0.114 0.103 3 
0.465 0.103 0.103 3 
0.464 0.232 0.098 3 
0.465 0.076 0.103 3 
0.464 0.073 0.103 3 
0.465 0.07 0.103 3 
0.464 0.062 0.103 3 
0.464 0.34 0.022 3 
0.461 0.053 0.102 3 
0.278 0.016 0.074 3 
0.278 0.013 0.074 3 
0.466 0.213 0.093 3 
0.464 0.303 0.094 3 
0.464 0.214 0.085 3 
0.463 0.274 0.093 3 
0.463 0.262 0.093 3 
0.464 0.254 0.093 3 
0.464 0.232 0.093 3 
0.465 0.23 0.093 3 
0.465 0.224 0.093 3 
0.464 0.31 0.094 3 
0.465 0.203 0.093 3 
0.465 0.192 0.093 3 
0.464 0.188 0.093 3 
0.465 0.183 0.093 3 
0.465 0.172 0.093 3 
0.465 0.163 0.093 3 
0.465 0.152 0.093 3 
0.465 0.144 0.092 3 
0.465 0.083 0.052 3 
0.463 0.273 0.012 3 
0.465 0.089 0.098 3 
0.288 0.02 0.074 3 
0.465 0.064 0.044 3 
0.464 0.177 0.095 3 
0.464 0.149 0.095 3 
0.464 0.1 0.095 3 
0.459 0.05 0.094 3 
0.464 0.292 0.136 3 
0.315 0.024 0.076 3 
0.464 0.34 0.094 3 
0.463 0.332 0.094 3 
0.465 0.331 0.094 3 
0.465 0.324 0.094 3 
0.464 0.32 0.094 3 
0.465 0.314 0.094 3 
0.467 0.069 0.174 3 
0.461 0.065 0.175 3 
0.265 -0.006 0.097 3 
0.465 0.212 0.112 3 
0.464 0.073 0.124 3 
0.468 0.35 0.184 3 
0.47 0.334 0.183 3 
0.469 0.322 0.182 3 
0.467 0.274 0.182 3 
0.458 0.064 0.171 3 
0.261 0.006 0.094 3 
0.261 0.003 0.094 3 
0.464 0.203 0.033 3 
0.269 0.014 0.084 3 
0.468 0.202 0.174 3 
0.467 0.192 0.174 3 
0.464 0.274 0.032 3 
0.303 0.028 0.104 3 
0.471 0.143 0.182 3 
0.47 0.134 0.182 3 
0.471 0.123 0.182 3 
0.47 0.114 0.182 3 
0.47 0.103 0.181 3 
0.459 0.064 0.177 3 
0.464 0.304 0.105 3 
0.467 0.233 0.164 3 
0.467 0.184 0.174 3 
0.465 0.144 0.133 3 
0.306 0.014 0.049 3 
0.468 0.311 0.184 3 
0.464 0.294 0.094 3 
0.469 0.302 0.184 3 
0.47 0.293 0.184 3 
0.465 0.175 0.033 3 
0.467 0.281 0.183 3 
0.468 0.244 0.173 3 
0.464 0.244 0.093 3 
0.465 0.293 0.142 3 
0.467 0.296 0.174 3 
0.467 0.293 0.174 3 
0.467 0.274 0.174 3 
0.464 0.342 0.135 3 
0.466 0.264 0.173 3 
0.467 0.252 0.173 3 
0.464 0.242 0.104 3 
0.467 0.234 0.172 3 
0.467 0.222 0.172 3 
0.276 0.023 0.098 3 
0.265 0.019 0.094 3 
0.264 0.016 0.094 3 
0.265 -0.003 0.094 3 
0.285 -0.003 0.073 3 
0.266 -0.005 0.094 3 
0.465 0.141 0.122 3 
0.467 0.172 0.173 3 
0.467 0.164 0.173 3 
0.468 0.152 0.173 3 
0.468 0.144 0.173 3 
0.469 0.133 0.173 3 
0.469 0.122 0.173 3 
0.468 0.113 0.172 3 
0.467 0.104 0.172 3 
0.464 0.204 0.14 3 
0.469 0.094 0.173 3 
0.469 0.083 0.172 3 
0.461 0.065 0.169 3 
0.466 0.282 0.162 3 
0.265 -0.004 0.095 3 
0.466 0.103 0.044 3 
0.463 0.214 0.013 3 
0.471 0.143 0.189 3 
0.471 0.204 0.19 3 
0.469 0.194 0.189 3 
0.47 0.183 0.189 3 
0.469 0.174 0.188 3 
0.469 0.162 0.188 3 
0.469 0.154 0.188 3 
0.466 0.084 0.122 3 
0.464 0.284 0.093 3 
0.471 0.213 0.19 3 
0.471 0.134 0.188 3 
0.463 0.064 0.113 3 
0.472 0.123 0.188 3 
0.473 0.073 0.188 3 
0.472 0.112 0.188 3 
0.467 0.283 0.174 3 
0.471 0.103 0.187 3 
0.472 0.092 0.188 3 
0.471 0.301 0.194 3 
0.476 0.361 0.2 3 
0.473 0.353 0.198 3 
0.464 0.138 0.084 3 
0.472 0.341 0.197 3 
0.472 0.334 0.197 3 
0.473 0.324 0.196 3 
0.472 0.312 0.195 3 
0.47 0.307 0.194 3 
0.472 0.084 0.188 3 
0.47 0.29 0.193 3 
0.469 0.283 0.192 3 
0.47 0.274 0.192 3 
0.471 0.262 0.192 3 
0.469 0.251 0.191 3 
0.469 0.242 0.19 3 
0.469 0.233 0.19 3 
0.47 0.222 0.19 3 
0.468 0.223 0.184 3 
0.471 0.072 0.184 3 
0.464 0.258 0.063 3 
0.465 0.172 0.033 3 
0.467 0.256 0.184 3 
0.467 0.249 0.184 3 
0.467 0.243 0.184 3 
0.467 0.234 0.184 3 
0.465 0.161 0.084 3 
0.471 0.083 0.184 3 
0.464 0.081 0.074 3 
0.469 0.212 0.184 3 
0.468 0.202 0.183 3 
0.468 0.193 0.183 3 
0.469 0.182 0.183 3 
0.469 0.174 0.183 3 
0.468 0.164 0.182 3 
0.469 0.153 0.182 3 
0.469 0.344 0.184 3 
0.268 0.021 0.101 3 
0.263 0.019 0.099 3 
0.258 0.014 0.097 3 
0.259 0.004 0.097 3 
0.259 -0.005 0.097 3 
0.467 0.213 0.174 3 
0.466 0.313 0.134 3 
0.464 0.094 0.103 3 
0.465 0.345 0.173 3 
0.464 0.323 0.054 3 
0.462 0.313 0.014 3 
0.471 0.351 0.194 3 
0.471 0.344 0.194 3 
0.471 0.332 0.193 3 
0.471 0.321 0.192 3 
0.471 0.092 0.184 3 
0.466 0.134 0.144 3 
0.464 0.222 0.148 3 
0.464 0.213 0.148 3 
0.464 0.271 0.063 3 
0.438 0.057 0.138 3 
0.468 0.347 0.151 3 
0.464 0.308 0.148 3 
0.465 0.161 0.144 3 
0.466 0.142 0.144 3 
0.464 0.231 0.149 3 
0.466 0.123 0.144 3 
0.466 0.112 0.144 3 
0.467 0.104 0.144 3 
0.466 0.093 0.144 3 
0.467 0.082 0.144 3 
0.464 0.157 0.063 3 
0.466 0.074 0.144 3 
0.453 0.06 0.14 3 
0.465 0.253 0.152 3 
0.466 0.074 0.152 3 
0.275 -0.007 0.092 3 
0.462 0.334 0.062 3 
0.466 0.311 0.154 3 
0.466 0.304 0.154 3 
0.467 0.292 0.154 3 
0.467 0.282 0.154 3 
0.465 0.262 0.152 3 
0.276 0.022 0.089 3 
0.465 0.244 0.152 3 
0.462 0.337 0.062 3 
0.465 0.232 0.063 3 
0.465 0.344 0.153 3 
0.466 0.334 0.152 3 
0.466 0.321 0.152 3 
0.464 0.24 0.149 3 
0.465 0.178 0.084 3 
0.465 0.283 0.142 3 
0.303 0.01 0.044 3 
0.466 0.344 0.144 3 
0.428 0.033 0.02 3 
0.466 0.33 0.143 3 
0.466 0.32 0.143 3 
0.466 0.313 0.143 3 
0.464 0.305 0.142 3 
0.465 0.299 0.142 3 
0.29 -0.008 0.092 3 
0.44 0.057 0.131 3 
0.275 -0.004 0.087 3 
0.465 0.144 0.114 3 
0.468 0.346 0.142 3 
0.464 0.065 0.135 3 
0.464 0.174 0.087 3 
0.464 0.056 0.05 3 
0.331 0.013 0.022 3 
0.464 0.222 0.143 3 
0.465 0.166 0.052 3 
0.465 0.271 0.144 3 
0.465 0.147 0.06 3 
0.465 0.262 0.144 3 
0.465 0.252 0.144 3 
0.465 0.243 0.144 3 
0.465 0.234 0.143 3 
0.464 0.231 0.143 3 
0.467 0.082 0.152 3 
0.464 0.213 0.143 3 
0.465 0.211 0.143 3 
0.465 0.202 0.143 3 
0.465 0.193 0.142 3 
0.466 0.182 0.142 3 
0.465 0.173 0.142 3 
0.465 0.153 0.142 3 
0.466 0.269 0.164 3 
0.467 0.112 0.164 3 
0.467 0.104 0.164 3 
0.468 0.093 0.164 3 
0.468 0.082 0.164 3 
0.466 0.074 0.163 3 
0.291 0.026 0.101 3 
0.464 0.291 0.108 3 
0.464 0.102 0.082 3 
0.468 0.124 0.164 3 
0.466 0.263 0.164 3 
0.465 0.274 0.153 3 
0.466 0.254 0.164 3 
0.466 0.242 0.164 3 
0.467 0.224 0.163 3 
0.467 0.213 0.163 3 
0.467 0.204 0.163 3 
0.466 0.191 0.162 3 
0.465 0.114 0.063 3 
0.465 0.341 0.173 3 
0.468 0.334 0.174 3 
0.468 0.324 0.173 3 
0.468 0.31 0.173 3 
0.464 0.296 0.171 3 
0.462 0.065 0.164 3 
0.265 0.01 0.093 3 
0.465 0.114 0.074 3 
0.466 0.183 0.162 3 
0.463 0.062 0.092 3 
0.464 0.34 0.17 3 
0.465 0.174 0.164 3 
0.466 0.162 0.164 3 
0.465 0.279 0.082 3 
0.466 0.154 0.164 3 
0.467 0.143 0.164 3 
0.468 0.132 0.164 3 
0.465 0.162 0.153 3 
0.464 0.302 0.142 3 
0.465 0.232 0.154 3 
0.465 0.223 0.154 3 
0.466 0.212 0.154 3 
0.466 0.203 0.154 3 
0.466 0.194 0.154 3 
0.466 0.183 0.154 3 
0.466 0.173 0.153 3 
0.462 0.337 0.054 3 
0.465 0.153 0.153 3 
0.465 0.142 0.152 3 
0.465 0.124 0.063 3 
0.466 0.134 0.153 3 
0.466 0.123 0.152 3 
0.467 0.112 0.153 3 
0.467 0.104 0.153 3 
0.467 0.093 0.153 3 
0.468 0.323 0.164 3 
0.465 0.108 0.044 3 
0.464 0.277 0.023 3 
0.436 0.036 0.019 3 
0.465 0.122 0.122 3 
0.464 0.343 0.164 3 
0.465 0.341 0.164 3 
0.468 0.327 0.164 3 
0.463 0.333 0.123 3 
0.464 0.224 0.134 3 
0.305 0 0.05 3 
0.468 0.313 0.164 3 
0.468 0.303 0.163 3 
0.466 0.291 0.162 3 
0.465 0.262 0.063 3 
0.339 0.033 0.034 3 
0.464 0.065 0.154 3 
0.464 0.163 0.046 3 
0.464 0.202 0.043 3 
0.464 0.214 0.043 3 
0.464 0.223 0.043 3 
0.464 0.243 0.043 3 
0.464 0.252 0.043 3 
0.464 0.223 0.024 3 
0.463 0.264 0.043 3 
0.464 0.274 0.043 3 
0.464 0.283 0.043 3 
0.464 0.293 0.043 3 
0.463 0.302 0.043 3 
0.464 0.313 0.043 3 
0.461 0.333 0.042 3 
0.463 0.339 0.042 3 
0.464 0.194 0.044 3 
0.463 0.283 0.012 3 
0.465 0.209 0.041 3 
0.297 0.003 0.054 3 
0.298 0.014 0.054 3 
0.303 0.02 0.054 3 
0.305 0.021 0.054 3 
0.464 0.051 0.052 3 
0.465 0.054 0.052 3 
0.465 0.064 0.052 3 
0.465 0.073 0.052 3 
0.463 0.053 0.044 3 
0.464 0.283 0.034 3 
0.464 0.293 0.034 3 
0.464 0.302 0.034 3 
0.463 0.312 0.034 3 
0.463 0.322 0.034 3 
0.462 0.334 0.034 3 
0.463 0.339 0.034 3 
0.464 0.13 0.039 3 
0.314 0.017 0.044 3 
0.464 0.124 0.041 3 
0.464 0.067 0.036 3 
0.463 0.301 0.023 3 
0.45 0.046 0.045 3 
0.465 0.094 0.052 3 
0.464 0.056 0.044 3 
0.465 0.073 0.044 3 
0.466 0.084 0.044 3 
0.466 0.094 0.044 3 
0.464 0.113 0.044 3 
0.465 0.124 0.044 3 
0.465 0.133 0.044 3 
0.465 0.144 0.044 3 
0.465 0.149 0.044 3 
0.464 0.152 0.044 3 
0.465 0.158 0.044 3 
0.464 0.163 0.044 3 
0.464 0.174 0.044 3 
0.465 0.144 0.063 3 
0.464 0.163 0.033 3 
0.295 0.006 0.06 3 
0.305 0.021 0.06 3 
0.453 0.046 0.063 3 
0.464 0.274 0.054 3 
0.464 0.054 0.063 3 
0.464 0.056 0.063 3 
0.466 0.073 0.063 3 
0.465 0.084 0.063 3 
0.465 0.094 0.063 3 
0.465 0.103 0.063 3 
0.465 0.133 0.063 3 
0.464 0.214 0.024 3 
0.465 0.163 0.063 3 
0.464 0.174 0.063 3 
0.464 0.182 0.063 3 
0.464 0.194 0.063 3 
0.464 0.2 0.063 3 
0.465 0.203 0.063 3 
0.465 0.209 0.063 3 
0.464 0.214 0.063 3 
0.464 0.22 0.063 3 
0.465 0.224 0.063 3 
0.464 0.229 0.063 3 
0.464 0.243 0.063 3 
0.464 0.252 0.063 3 
0.465 0.218 0.054 3 
0.465 0.103 0.052 3 
0.465 0.113 0.052 3 
0.466 0.133 0.052 3 
0.465 0.144 0.052 3 
0.465 0.152 0.052 3 
0.465 0.163 0.052 3 
0.464 0.174 0.052 3 
0.464 0.182 0.054 3 
0.464 0.194 0.054 3 
0.464 0.2 0.054 3 
0.465 0.203 0.054 3 
0.465 0.209 0.054 3 
0.464 0.214 0.054 3 
0.319 0.023 0.046 3 
0.464 0.223 0.054 3 
0.464 0.232 0.054 3 
0.464 0.252 0.054 3 
0.464 0.262 0.054 3 
0.465 0.278 0.054 3 
0.464 0.283 0.054 3 
0.464 0.294 0.054 3 
0.464 0.303 0.054 3 
0.465 0.054 0.058 3 
0.464 0.143 0.06 3 
0.465 0.172 0.06 3 
0.464 0.154 0.049 3 
0.464 0.243 0.054 3 
0.461 0.192 0.014 3 
0.462 0.204 0.014 3 
0.463 0.222 0.013 3 
0.462 0.233 0.013 3 
0.461 0.253 0.013 3 
0.463 0.264 0.013 3 
0.463 0.292 0.012 3 
0.462 0.304 0.012 3 
0.462 0.323 0.014 3 
0.461 0.333 0.014 3 
0.462 0.184 0.014 3 
0.336 0.024 0.036 3 
0.355 0.041 0.034 3 
0.464 0.102 0.02 3 
0.464 0.11 0.02 3 
0.342 0.035 0.037 3 
0.462 0.074 0.023 3 
0.463 0.083 0.023 3 
0.464 0.094 0.023 3 
0.462 0.083 0.012 3 
0.436 0.066 0.012 3 
0.33 0.015 0.021 3 
0.445 0.063 0.013 3 
0.455 0.042 0.014 3 
0.467 0.046 0.012 3 
0.462 0.074 0.012 3 
0.465 0.102 0.023 3 
0.462 0.093 0.012 3 
0.462 0.104 0.012 3 
0.463 0.112 0.012 3 
0.422 0.03 0.021 3 
0.481 0.054 0.013 3 
0.45 0.066 0.012 3 
0.431 0.062 0.02 3 
0.462 0.134 0.014 3 
0.463 0.154 0.014 3 
0.462 0.162 0.014 3 
0.463 0.174 0.014 3 
0.464 0.143 0.033 3 
0.464 0.121 0.014 3 
0.329 0.025 0.044 3 
0.463 0.053 0.034 3 
0.464 0.072 0.034 3 
0.466 0.103 0.033 3 
0.465 0.119 0.033 3 
0.464 0.124 0.033 3 
0.464 0.132 0.033 3 
0.465 0.136 0.033 3 
0.465 0.3 0.029 3 
0.464 0.154 0.033 3 
0.465 0.161 0.033 3 
0.464 0.168 0.033 3 
0.464 0.183 0.033 3 
0.464 0.194 0.033 3 
0.464 0.214 0.032 3 
0.464 0.223 0.032 3 
0.464 0.232 0.032 3 
0.464 0.244 0.032 3 
0.463 0.252 0.032 3 
0.463 0.261 0.032 3 
0.465 0.287 0.032 3 
0.315 0 0.047 3 
0.465 0.284 0.023 3 
0.465 0.113 0.022 3 
0.465 0.121 0.022 3 
0.464 0.124 0.023 3 
0.463 0.143 0.022 3 
0.463 0.154 0.022 3 
0.464 0.163 0.022 3 
0.464 0.174 0.022 3 
0.463 0.182 0.022 3 
0.464 0.203 0.024 3 
0.464 0.232 0.024 3 
0.463 0.243 0.024 3 
0.463 0.252 0.024 3 
0.463 0.264 0.024 3 
0.463 0.182 0.044 3 
0.463 0.314 0.023 3 
0.463 0.322 0.023 3 
0.462 0.334 0.022 3 
0.462 0.242 0.013 3 
0.315 0.013 0.043 3 
0.311 0.014 0.044 3 
0.319 0.022 0.044 3 
0.325 0.024 0.043 3 
0.464 0.083 0.031 3 
0.464 0.088 0.031 3 
0.465 0.278 0.029 3 
0.465 0.124 0.052 3 
0.464 0.154 0.068 3 
0.465 0.172 0.068 3 
0.464 0.191 0.068 3 
0.465 0.224 0.068 3 
0.464 0.094 0.073 3 
0.464 0.3 0.074 3 
0.464 0.243 0.068 3 
0.464 0.294 0.074 3 
0.464 0.108 0.073 3 
0.466 0.122 0.074 3 
0.465 0.083 0.033 3 
0.465 0.133 0.074 3 
0.465 0.144 0.074 3 
0.465 0.152 0.074 3 
0.465 0.161 0.074 3 
0.464 0.174 0.074 3 
0.464 0.177 0.074 3 
0.465 0.183 0.074 3 
0.465 0.084 0.074 3 
0.289 0.004 0.064 3 
0.464 0.1 0.073 3 
0.465 0.273 0.077 3 
0.464 0.255 0.071 3 
0.465 0.089 0.071 3 
0.419 0.041 0.069 3 
0.336 0.029 0.041 3 
0.296 0.02 0.063 3 
0.296 -0.003 0.063 3 
0.463 0.339 0.074 3 
0.462 0.334 0.074 3 
0.465 0.065 0.079 3 
0.463 0.053 0.073 3 
0.431 0.043 0.067 3 
0.464 0.323 0.074 3 
0.465 0.256 0.079 3 
0.464 0.313 0.08 3 
0.465 0.103 0.074 3 
0.325 0.014 0.039 3 
0.465 0.062 0.068 3 
0.464 0.313 0.074 3 
0.465 0.304 0.074 3 
0.464 0.203 0.074 3 
0.465 0.244 0.074 3 
0.465 0.282 0.074 3 
0.464 0.062 0.073 3 
0.464 0.294 0.062 3 
0.465 0.232 0.074 3 
0.464 0.223 0.074 3 
0.464 0.214 0.074 3 
0.464 0.284 0.063 3 
0.465 0.209 0.074 3 
0.465 0.273 0.074 3 
0.464 0.284 0.074 3 
0.465 0.2 0.074 3 
0.464 0.265 0.074 3 
0.465 0.262 0.074 3 
0.465 0.253 0.074 3 
0.464 0.249 0.074 3 
0.464 0.303 0.062 3 
0.464 0.313 0.062 3 
0.464 0.323 0.062 3 
0.465 0.07 0.074 3 
0.464 0.073 0.074 3 
0.466 0.114 0.033 3 
0.291 0.014 0.064 3 
0.294 0.019 0.064 3 
0.465 0.275 0.063 3 
0.451 0.046 0.065 3 
0.465 0.192 0.074 3 
0.485 -0.344 0.183 3 
0.485 -0.347 0.184 3 
0.484 -0.339 0.183 3 
0.482 -0.326 0.181 3 
0.471 -0.061 0.173 3 
0.479 -0.327 0.094 3 
0.473 -0.115 0.174 3 
0.471 -0.165 0.163 3 
0.475 -0.215 0.172 3 
0.477 -0.328 0.023 3 
0.478 -0.316 0.093 3 
0.475 -0.206 0.172 3 
0.475 -0.182 0.171 3 
0.479 -0.257 0.183 3 
0.505 -0.026 0.028 3 
0.477 -0.317 0.023 3 
0.479 -0.337 0.094 3 
0.472 -0.226 0.033 3 
0.476 -0.306 0.023 3 
0.48 -0.348 0.094 3 
0.478 -0.357 0.094 3 
0.475 -0.22 0.154 3 
0.472 -0.187 0.094 3 
0.474 -0.096 0.174 3 
0.473 -0.106 0.174 3 
0.474 -0.275 0.024 3 
0.479 -0.306 0.173 3 
0.501 -0.046 0.022 3 
0.471 -0.222 0.024 3 
0.471 -0.225 0.024 3 
0.484 -0.325 0.185 3 
0.473 -0.256 0.072 3 
0.482 -0.316 0.184 3 
0.481 -0.305 0.183 3 
0.481 -0.298 0.183 3 
0.472 -0.256 0.024 3 
0.48 -0.287 0.182 3 
0.473 -0.265 0.024 3 
0.474 -0.179 0.176 3 
0.472 -0.137 0.174 3 
0.475 -0.289 0.024 3 
0.475 -0.2 0.174 3 
0.467 -0.087 0.012 3 
0.475 -0.185 0.174 3 
0.474 -0.176 0.173 3 
0.473 -0.155 0.172 3 
0.472 -0.146 0.172 3 
0.493 -0.042 0.026 3 
0.471 -0.067 0.173 3 
0.474 -0.22 0.175 3 
0.47 -0.155 0.132 3 
0.474 -0.285 0.024 3 
0.474 -0.356 0.014 3 
0.473 -0.266 0.052 3 
0.583 -0.032 0.099 3 
0.471 -0.075 0.173 3 
0.473 -0.087 0.174 3 
0.482 -0.347 0.173 3 
0.467 -0.036 0.044 3 
0.473 -0.256 0.052 3 
0.469 -0.105 0.104 3 
0.473 -0.186 0.162 3 
0.584 -0.043 0.103 3 
0.471 -0.155 0.063 3 
0.58 -0.05 0.102 3 
0.473 -0.226 0.092 3 
0.473 -0.235 0.092 3 
0.473 -0.257 0.092 3 
0.474 -0.267 0.092 3 
0.474 -0.276 0.092 3 
0.475 -0.28 0.093 3 
0.474 -0.196 0.162 3 
0.481 -0.335 0.172 3 
0.47 -0.166 0.022 3 
0.481 -0.328 0.172 3 
0.503 -0.032 0.031 3 
0.473 -0.175 0.164 3 
0.474 -0.276 0.084 3 
0.471 -0.156 0.163 3 
0.48 -0.358 0.134 3 
0.472 -0.145 0.163 3 
0.48 -0.355 0.164 3 
0.473 -0.135 0.163 3 
0.477 -0.268 0.162 3 
0.469 -0.135 0.093 3 
0.471 -0.155 0.094 3 
0.471 -0.167 0.094 3 
0.471 -0.175 0.094 3 
0.473 -0.197 0.094 3 
0.47 -0.135 0.082 3 
0.473 -0.205 0.094 3 
0.473 -0.217 0.094 3 
0.479 -0.305 0.164 3 
0.479 -0.299 0.164 3 
0.478 -0.285 0.163 3 
0.478 -0.275 0.163 3 
0.473 -0.126 0.163 3 
0.476 -0.257 0.162 3 
0.481 -0.357 0.17 3 
0.476 -0.245 0.164 3 
0.476 -0.236 0.164 3 
0.476 -0.227 0.164 3 
0.473 -0.287 0.012 3 
0.474 -0.257 0.044 3 
0.476 -0.217 0.163 3 
0.585 -0.039 0.103 3 
0.475 -0.214 0.163 3 
0.47 -0.166 0.033 3 
0.474 -0.205 0.163 3 
0.475 -0.273 0.032 3 
0.474 -0.196 0.168 3 
0.474 -0.187 0.168 3 
0.47 -0.075 0.164 3 
0.47 -0.186 0.033 3 
0.47 -0.067 0.164 3 
0.47 -0.195 0.033 3 
0.471 -0.207 0.033 3 
0.471 -0.216 0.033 3 
0.472 -0.235 0.033 3 
0.472 -0.247 0.033 3 
0.476 -0.317 0.014 3 
0.473 -0.257 0.032 3 
0.473 -0.266 0.032 3 
0.474 -0.211 0.168 3 
0.474 -0.275 0.032 3 
0.475 -0.279 0.032 3 
0.475 -0.286 0.032 3 
0.467 -0.044 0.103 3 
0.476 -0.296 0.032 3 
0.477 -0.307 0.032 3 
0.477 -0.298 0.093 3 
0.478 -0.256 0.174 3 
0.472 -0.205 0.083 3 
0.478 -0.247 0.174 3 
0.477 -0.237 0.173 3 
0.478 -0.306 0.093 3 
0.469 -0.107 0.033 3 
0.472 -0.117 0.163 3 
0.467 -0.033 0.034 3 
0.471 -0.106 0.162 3 
0.468 -0.036 0.033 3 
0.471 -0.097 0.162 3 
0.471 -0.086 0.162 3 
0.471 -0.059 0.162 3 
0.47 -0.116 0.123 3 
0.467 -0.047 0.034 3 
0.467 -0.077 0.034 3 
0.469 -0.085 0.033 3 
0.469 -0.096 0.033 3 
0.475 -0.227 0.172 3 
0.47 -0.116 0.033 3 
0.47 -0.127 0.033 3 
0.469 -0.135 0.033 3 
0.469 -0.146 0.033 3 
0.483 -0.345 0.177 3 
0.48 -0.317 0.174 3 
0.479 -0.296 0.173 3 
0.479 -0.286 0.172 3 
0.479 -0.276 0.172 3 
0.47 -0.155 0.033 3 
0.479 -0.266 0.172 3 
0.474 -0.22 0.169 3 
0.479 -0.317 0.102 3 
0.472 -0.126 0.174 3 
0.479 -0.206 0.193 3 
0.48 -0.197 0.194 3 
0.48 -0.188 0.193 3 
0.555 -0.019 0.054 3 
0.477 -0.175 0.192 3 
0.467 -0.066 0.074 3 
0.478 -0.166 0.192 3 
0.468 -0.085 0.082 3 
0.478 -0.155 0.192 3 
0.478 -0.146 0.191 3 
0.478 -0.217 0.193 3 
0.469 -0.096 0.082 3 
0.477 -0.137 0.191 3 
0.477 -0.125 0.19 3 
0.478 -0.356 0.052 3 
0.477 -0.117 0.19 3 
0.477 -0.105 0.19 3 
0.475 -0.096 0.189 3 
0.475 -0.085 0.189 3 
0.475 -0.076 0.189 3 
0.477 -0.051 0.013 3 
0.485 -0.316 0.2 3 
0.473 -0.207 0.154 3 
0.477 -0.063 0.187 3 
0.579 -0.035 0.091 3 
0.576 -0.046 0.091 3 
0.471 -0.147 0.094 3 
0.574 -0.049 0.091 3 
0.466 -0.047 0.082 3 
0.466 -0.055 0.082 3 
0.487 -0.347 0.203 3 
0.486 -0.335 0.202 3 
0.486 -0.328 0.202 3 
0.474 -0.07 0.188 3 
0.467 -0.066 0.082 3 
0.484 -0.309 0.2 3 
0.484 -0.298 0.199 3 
0.483 -0.287 0.198 3 
0.468 -0.077 0.082 3 
0.482 -0.277 0.197 3 
0.48 -0.265 0.196 3 
0.48 -0.255 0.195 3 
0.478 -0.245 0.195 3 
0.478 -0.236 0.194 3 
0.478 -0.227 0.194 3 
0.476 -0.297 0.084 3 
0.476 -0.297 0.023 3 
0.469 -0.055 0.012 3 
0.466 -0.065 0.012 3 
0.466 -0.076 0.012 3 
0.467 -0.096 0.012 3 
0.467 -0.106 0.012 3 
0.467 -0.117 0.012 3 
0.472 -0.196 0.083 3 
0.471 -0.187 0.083 3 
0.472 -0.216 0.083 3 
0.472 -0.225 0.083 3 
0.472 -0.156 0.102 3 
0.468 -0.107 0.004 3 
0.469 -0.115 0.004 3 
0.473 -0.238 0.083 3 
0.473 -0.256 0.084 3 
0.473 -0.266 0.084 3 
0.477 -0.295 0.122 3 
0.475 -0.29 0.084 3 
0.471 -0.228 0.013 3 
0.467 -0.126 0.012 3 
0.475 -0.065 0.189 3 
0.466 -0.041 0.084 3 
0.471 -0.053 0.014 3 
0.468 -0.145 0.014 3 
0.469 -0.157 0.014 3 
0.469 -0.166 0.014 3 
0.468 -0.176 0.014 3 
0.468 -0.185 0.014 3 
0.469 -0.197 0.014 3 
0.47 -0.215 0.014 3 
0.479 -0.246 0.192 3 
0.472 -0.235 0.013 3 
0.471 -0.246 0.013 3 
0.473 -0.275 0.012 3 
0.469 -0.107 0.082 3 
0.468 -0.115 0.082 3 
0.468 -0.126 0.082 3 
0.477 -0.315 0.084 3 
0.471 -0.147 0.083 3 
0.471 -0.155 0.083 3 
0.47 -0.166 0.083 3 
0.47 -0.177 0.083 3 
0.476 -0.156 0.182 3 
0.476 -0.225 0.184 3 
0.468 -0.107 0.023 3 
0.47 -0.177 0.074 3 
0.476 -0.216 0.184 3 
0.469 -0.115 0.023 3 
0.478 -0.205 0.184 3 
0.478 -0.196 0.184 3 
0.475 -0.185 0.182 3 
0.475 -0.176 0.182 3 
0.475 -0.165 0.182 3 
0.476 -0.355 0.011 3 
0.486 -0.327 0.192 3 
0.504 -0.035 0.022 3 
0.476 -0.148 0.182 3 
0.474 -0.135 0.181 3 
0.474 -0.127 0.181 3 
0.469 -0.126 0.023 3 
0.469 -0.135 0.022 3 
0.469 -0.146 0.022 3 
0.473 -0.226 0.052 3 
0.47 -0.158 0.022 3 
0.469 -0.177 0.022 3 
0.469 -0.186 0.022 3 
0.473 -0.146 0.178 3 
0.474 -0.356 0.023 3 
0.589 -0.028 0.103 3 
0.47 -0.097 0.143 3 
0.476 -0.245 0.152 3 
0.48 -0.277 0.184 3 
0.48 -0.268 0.184 3 
0.469 -0.058 0.153 3 
0.479 -0.245 0.183 3 
0.477 -0.235 0.182 3 
0.474 -0.167 0.179 3 
0.474 -0.155 0.178 3 
0.47 -0.195 0.022 3 
0.579 -0.02 0.095 3 
0.472 -0.048 0.022 3 
0.477 -0.307 0.064 3 
0.468 -0.055 0.023 3 
0.466 -0.066 0.023 3 
0.467 -0.076 0.023 3 
0.467 -0.085 0.023 3 
0.467 -0.095 0.023 3 
0.487 -0.347 0.194 3 
0.486 -0.335 0.193 3 
0.471 -0.195 0.052 3 
0.477 -0.345 0.014 3 
0.574 -0.034 0.083 3 
0.478 -0.356 0.082 3 
0.479 -0.035 0.016 3 
0.492 -0.045 0.014 3 
0.47 -0.136 0.143 3 
0.473 -0.166 0.173 3 
0.489 -0.05 0.015 3 
0.474 -0.295 0.015 3 
0.476 -0.307 0.014 3 
0.476 -0.327 0.014 3 
0.476 -0.337 0.014 3 
0.476 -0.275 0.124 3 
0.479 -0.347 0.082 3 
0.479 -0.336 0.082 3 
0.479 -0.326 0.082 3 
0.574 -0.031 0.087 3 
0.571 -0.02 0.087 3 
0.465 -0.047 0.074 3 
0.485 -0.309 0.197 3 
0.481 -0.276 0.194 3 
0.479 -0.267 0.193 3 
0.468 -0.077 0.074 3 
0.48 -0.255 0.192 3 
0.475 -0.096 0.183 3 
0.471 -0.207 0.022 3 
0.485 -0.316 0.194 3 
0.484 -0.308 0.193 3 
0.483 -0.297 0.192 3 
0.481 -0.285 0.191 3 
0.475 -0.136 0.184 3 
0.475 -0.127 0.184 3 
0.475 -0.119 0.184 3 
0.474 -0.115 0.183 3 
0.474 -0.107 0.183 3 
0.474 -0.098 0.183 3 
0.478 -0.336 0.023 3 
0.474 -0.087 0.183 3 
0.475 -0.085 0.183 3 
0.474 -0.076 0.183 3 
0.474 -0.065 0.183 3 
0.472 -0.062 0.182 3 
0.471 -0.176 0.133 3 
0.491 -0.036 0.017 3 
0.57 -0.045 0.083 3 
0.577 -0.02 0.083 3 
0.47 -0.105 0.134 3 
0.573 -0.038 0.083 3 
0.468 -0.052 0.123 3 
0.471 -0.176 0.124 3 
0.47 -0.167 0.124 3 
0.47 -0.147 0.124 3 
0.47 -0.136 0.124 3 
0.47 -0.127 0.124 3 
0.469 -0.105 0.123 3 
0.475 -0.287 0.093 3 
0.469 -0.096 0.123 3 
0.468 -0.085 0.123 3 
0.468 -0.077 0.123 3 
0.467 -0.066 0.122 3 
0.468 -0.055 0.123 3 
0.473 -0.197 0.103 3 
0.473 -0.205 0.103 3 
0.473 -0.217 0.103 3 
0.474 -0.227 0.103 3 
0.474 -0.236 0.103 3 
0.474 -0.245 0.103 3 
0.474 -0.257 0.104 3 
0.579 -0.028 0.091 3 
0.473 -0.266 0.104 3 
0.476 -0.278 0.104 3 
0.476 -0.288 0.104 3 
0.474 -0.236 0.123 3 
0.558 -0.026 0.061 3 
0.557 -0.037 0.061 3 
0.479 -0.356 0.124 3 
0.48 -0.346 0.124 3 
0.481 -0.337 0.124 3 
0.48 -0.329 0.124 3 
0.479 -0.317 0.123 3 
0.479 -0.307 0.123 3 
0.476 -0.285 0.122 3 
0.475 -0.265 0.124 3 
0.473 -0.245 0.123 3 
0.552 -0.036 0.054 3 
0.474 -0.227 0.123 3 
0.473 -0.215 0.123 3 
0.473 -0.206 0.122 3 
0.473 -0.197 0.122 3 
0.593 -0.055 0.119 3 
0.553 -0.029 0.058 3 
0.47 -0.147 0.102 3 
0.472 -0.167 0.102 3 
0.473 -0.176 0.102 3 
0.473 -0.185 0.102 3 
0.474 -0.227 0.134 3 
0.478 -0.356 0.073 3 
0.48 -0.348 0.073 3 
0.477 -0.305 0.084 3 
0.466 -0.036 0.052 3 
0.466 -0.047 0.052 3 
0.466 -0.055 0.052 3 
0.467 -0.066 0.052 3 
0.479 -0.336 0.073 3 
0.467 -0.077 0.052 3 
0.473 -0.236 0.134 3 
0.479 -0.358 0.103 3 
0.467 -0.085 0.052 3 
0.473 -0.215 0.134 3 
0.473 -0.206 0.134 3 
0.473 -0.197 0.133 3 
0.471 -0.185 0.133 3 
0.471 -0.165 0.133 3 
0.471 -0.145 0.132 3 
0.47 -0.136 0.132 3 
0.478 -0.318 0.032 3 
0.471 -0.125 0.132 3 
0.471 -0.116 0.132 3 
0.478 -0.297 0.134 3 
0.47 -0.175 0.033 3 
0.505 -0.035 0.028 3 
0.481 -0.348 0.133 3 
0.482 -0.335 0.133 3 
0.474 -0.276 0.044 3 
0.482 -0.328 0.133 3 
0.588 -0.054 0.114 3 
0.48 -0.315 0.132 3 
0.48 -0.305 0.132 3 
0.477 -0.295 0.102 3 
0.478 -0.306 0.102 3 
0.479 -0.327 0.102 3 
0.478 -0.325 0.064 3 
0.476 -0.285 0.133 3 
0.476 -0.275 0.133 3 
0.47 -0.166 0.044 3 
0.48 -0.348 0.064 3 
0.475 -0.265 0.133 3 
0.475 -0.259 0.132 3 
0.474 -0.255 0.132 3 
0.474 -0.246 0.132 3 
0.48 -0.335 0.103 3 
0.577 -0.02 0.091 3 
0.48 -0.346 0.103 3 
0.475 -0.274 0.113 3 
0.466 -0.036 0.063 3 
0.466 -0.047 0.063 3 
0.467 -0.055 0.063 3 
0.473 -0.247 0.083 3 
0.479 -0.327 0.114 3 
0.479 -0.317 0.114 3 
0.478 -0.306 0.114 3 
0.477 -0.295 0.113 3 
0.476 -0.285 0.113 3 
0.468 -0.066 0.063 3 
0.475 -0.277 0.113 3 
0.566 -0.03 0.072 3 
0.598 -0.033 0.127 3 
0.474 -0.267 0.112 3 
0.474 -0.255 0.112 3 
0.474 -0.248 0.112 3 
0.474 -0.236 0.112 3 
0.468 -0.077 0.063 3 
0.468 -0.085 0.063 3 
0.468 -0.096 0.063 3 
0.473 -0.226 0.114 3 
0.473 -0.217 0.114 3 
0.473 -0.206 0.114 3 
0.473 -0.197 0.114 3 
0.478 -0.346 0.022 3 
0.599 -0.029 0.123 3 
0.597 -0.036 0.123 3 
0.596 -0.056 0.123 3 
0.467 -0.047 0.103 3 
0.467 -0.055 0.103 3 
0.468 -0.066 0.104 3 
0.467 -0.077 0.104 3 
0.468 -0.085 0.104 3 
0.507 -0.035 0.024 3 
0.469 -0.096 0.104 3 
0.455 -0.035 0.014 3 
0.469 -0.116 0.104 3 
0.472 -0.176 0.113 3 
0.469 -0.127 0.104 3 
0.47 -0.135 0.104 3 
0.472 -0.235 0.024 3 
0.564 -0.019 0.068 3 
0.475 -0.306 0.003 3 
0.564 -0.037 0.072 3 
0.478 -0.355 0.112 3 
0.472 -0.247 0.024 3 
0.48 -0.346 0.112 3 
0.467 -0.047 0.114 3 
0.472 -0.205 0.064 3 
0.472 -0.216 0.064 3 
0.473 -0.226 0.064 3 
0.474 -0.236 0.064 3 
0.473 -0.247 0.064 3 
0.509 -0.023 0.027 3 
0.473 -0.256 0.064 3 
0.473 -0.266 0.064 3 
0.473 -0.275 0.064 3 
0.468 -0.066 0.114 3 
0.467 -0.055 0.114 3 
0.476 -0.287 0.044 3 
0.474 -0.286 0.064 3 
0.476 -0.316 0.043 3 
0.475 -0.293 0.064 3 
0.475 -0.296 0.064 3 
0.568 -0.02 0.072 3 
0.476 -0.316 0.064 3 
0.479 -0.336 0.064 3 
0.478 -0.356 0.064 3 
0.597 -0.048 0.119 3 
0.594 -0.051 0.119 3 
0.558 -0.016 0.061 3 
0.467 -0.044 0.111 3 
0.472 -0.167 0.113 3 
0.471 -0.156 0.113 3 
0.471 -0.147 0.113 3 
0.473 -0.185 0.114 3 
0.47 -0.136 0.113 3 
0.469 -0.127 0.112 3 
0.469 -0.116 0.112 3 
0.469 -0.105 0.112 3 
0.469 -0.096 0.112 3 
0.467 -0.066 0.034 3 
0.468 -0.085 0.112 3 
0.468 -0.077 0.112 3 
0.469 -0.053 0.131 3 
0.468 -0.107 0.063 3 
0.469 -0.115 0.063 3 
0.479 -0.347 0.052 3 
0.469 -0.126 0.063 3 
0.47 -0.135 0.063 3 
0.471 -0.147 0.063 3 
0.471 -0.166 0.063 3 
0.471 -0.175 0.063 3 
0.561 -0.026 0.072 3 
0.471 -0.187 0.063 3 
0.472 -0.196 0.064 3 
0.472 -0.237 0.044 3 
0.469 -0.115 0.044 3 
0.469 -0.126 0.044 3 
0.47 -0.135 0.044 3 
0.477 -0.051 0.016 3 
0.471 -0.147 0.044 3 
0.47 -0.175 0.044 3 
0.471 -0.187 0.044 3 
0.471 -0.195 0.044 3 
0.471 -0.207 0.044 3 
0.474 -0.255 0.123 3 
0.472 -0.216 0.044 3 
0.472 -0.225 0.044 3 
0.469 -0.107 0.044 3 
0.473 -0.247 0.044 3 
0.478 -0.288 0.154 3 
0.477 -0.277 0.154 3 
0.476 -0.266 0.153 3 
0.476 -0.257 0.153 3 
0.472 -0.265 0.013 3 
0.476 -0.235 0.152 3 
0.475 -0.226 0.152 3 
0.475 -0.213 0.151 3 
0.468 -0.115 0.074 3 
0.473 -0.266 0.044 3 
0.467 -0.077 0.044 3 
0.468 -0.096 0.074 3 
0.468 -0.085 0.074 3 
0.467 -0.055 0.074 3 
0.466 -0.039 0.074 3 
0.564 -0.044 0.079 3 
0.468 -0.034 0.044 3 
0.466 -0.047 0.044 3 
0.467 -0.055 0.044 3 
0.574 -0.024 0.08 3 
0.476 -0.296 0.044 3 
0.468 -0.085 0.044 3 
0.479 -0.338 0.112 3 
0.478 -0.36 0.154 3 
0.481 -0.338 0.154 3 
0.482 -0.325 0.154 3 
0.481 -0.317 0.153 3 
0.48 -0.306 0.153 3 
0.479 -0.295 0.152 3 
0.47 -0.096 0.044 3 
0.468 -0.066 0.144 3 
0.468 -0.055 0.144 3 
0.587 -0.021 0.103 3 
0.482 -0.329 0.163 3 
0.48 -0.316 0.162 3 
0.471 -0.125 0.154 3 
0.471 -0.117 0.154 3 
0.471 -0.106 0.154 3 
0.473 -0.247 0.092 3 
0.471 -0.097 0.154 3 
0.47 -0.086 0.153 3 
0.47 -0.075 0.153 3 
0.469 -0.066 0.153 3 
0.467 -0.077 0.093 3 
0.594 -0.025 0.123 3 
0.481 -0.335 0.163 3 
0.468 -0.085 0.093 3 
0.469 -0.096 0.093 3 
0.475 -0.265 0.144 3 
0.478 -0.328 0.034 3 
0.478 -0.335 0.034 3 
0.477 -0.355 0.034 3 
0.47 -0.108 0.093 3 
0.47 -0.116 0.093 3 
0.471 -0.165 0.152 3 
0.476 -0.306 0.044 3 
0.478 -0.328 0.043 3 
0.478 -0.335 0.043 3 
0.478 -0.346 0.043 3 
0.477 -0.355 0.043 3 
0.561 -0.019 0.079 3 
0.474 -0.216 0.154 3 
0.473 -0.198 0.154 3 
0.472 -0.186 0.153 3 
0.471 -0.176 0.152 3 
0.471 -0.156 0.124 3 
0.472 -0.157 0.152 3 
0.472 -0.145 0.152 3 
0.475 -0.282 0.041 3 
0.472 -0.137 0.152 3 
0.468 -0.14 0.014 3 
0.48 -0.345 0.034 3 
0.467 -0.041 0.093 3 
0.467 -0.047 0.093 3 
0.467 -0.055 0.093 3 
0.467 -0.066 0.093 3 
0.481 -0.346 0.164 3 
0.472 -0.255 0.013 3 
0.47 -0.097 0.134 3 
0.469 -0.085 0.134 3 
0.468 -0.077 0.134 3 
0.468 -0.066 0.133 3 
0.576 -0.027 0.083 3 
0.469 -0.055 0.134 3 
0.471 -0.155 0.044 3 
0.478 -0.335 0.052 3 
0.478 -0.325 0.073 3 
0.477 -0.317 0.073 3 
0.477 -0.305 0.073 3 
0.476 -0.297 0.073 3 
0.474 -0.237 0.137 3 
0.592 -0.028 0.111 3 
0.468 -0.034 0.05 3 
0.589 -0.036 0.111 3 
0.475 -0.292 0.049 3 
0.475 -0.29 0.072 3 
0.493 -0.039 0.014 3 
0.474 -0.236 0.052 3 
0.468 -0.096 0.052 3 
0.469 -0.107 0.052 3 
0.469 -0.115 0.052 3 
0.469 -0.126 0.052 3 
0.47 -0.135 0.052 3 
0.471 -0.147 0.052 3 
0.47 -0.155 0.052 3 
0.47 -0.166 0.052 3 
0.47 -0.177 0.052 3 
0.47 -0.186 0.052 3 
0.472 -0.208 0.052 3 
0.472 -0.216 0.052 3 
0.474 -0.286 0.072 3 
0.473 -0.247 0.052 3 
0.473 -0.275 0.052 3 
0.474 -0.286 0.052 3 
0.475 -0.295 0.052 3 
0.476 -0.306 0.052 3 
0.476 -0.316 0.052 3 
0.478 -0.325 0.052 3 
0.481 -0.355 0.143 3 
0.481 -0.345 0.142 3 
0.482 -0.335 0.142 3 
0.482 -0.328 0.142 3 
0.471 -0.176 0.144 3 
0.475 -0.219 0.143 3 
0.474 -0.216 0.143 3 
0.474 -0.207 0.142 3 
0.473 -0.197 0.142 3 
0.474 -0.286 0.084 3 
0.475 -0.302 0.012 3 
0.47 -0.166 0.074 3 
0.471 -0.155 0.074 3 
0.471 -0.147 0.074 3 
0.47 -0.135 0.074 3 
0.481 -0.349 0.152 3 
0.471 -0.185 0.144 3 
0.474 -0.225 0.143 3 
0.471 -0.165 0.144 3 
0.471 -0.156 0.144 3 
0.472 -0.145 0.144 3 
0.474 -0.298 0.012 3 
0.47 -0.125 0.143 3 
0.47 -0.116 0.143 3 
0.47 -0.105 0.143 3 
0.469 -0.085 0.142 3 
0.469 -0.077 0.142 3 
0.47 -0.127 0.074 3 
0.469 -0.107 0.074 3 
0.477 -0.277 0.142 3 
0.474 -0.276 0.072 3 
0.474 -0.267 0.072 3 
0.466 -0.066 0.044 3 
0.473 -0.247 0.072 3 
0.474 -0.267 0.118 3 
0.473 -0.235 0.072 3 
0.473 -0.226 0.072 3 
0.48 -0.316 0.144 3 
0.48 -0.306 0.144 3 
0.479 -0.295 0.143 3 
0.47 -0.207 0.014 3 
0.478 -0.287 0.143 3 
0.469 -0.127 0.093 3 
0.475 -0.213 0.14 3 
0.466 -0.055 0.034 3 
0.471 -0.216 0.072 3 
0.472 -0.205 0.072 3 
0.472 -0.185 0.122 3 
0.472 -0.196 0.072 3 
0.475 -0.256 0.144 3 
0.476 -0.247 0.144 3 
0.475 -0.237 0.143 3 
0.475 -0.234 0.143 3 
0.471 -0.187 0.072 3 
0.339 0.023 0.034 7 
0.355 -0.006 0.044 7 
0.335 0.008 0.035 7 
0.345 0.003 0.034 7 
0.343 -0.005 0.04 7 
0.349 -0.015 0.033 7 
0.339 0.006 0.034 7 
0.355 0.027 0.032 7 
0.355 -0.007 0.034 7 
0.354 -0.006 0.034 7 
0.347 -0.015 0.037 7 
0.345 -0.004 0.037 7 
0.349 0.038 0.036 7 
0.332 0.004 0.022 7 
0.358 0.012 0.028 7 
0.348 0.007 0.031 7 
0.348 -0.005 0.043 7 
0.331 -0.003 0.044 7 
0.353 0.03 0.042 7 
0.336 -0.004 0.041 7 
