# .PCD v0.7 - Point Cloud Data file
FIELDS x y z intensity
SIZE 4 4 4 4
TYPE F F F F
COUNT 1 1 1 1
WIDTH 2081
HEIGHT 1
VIEWPOINT 0 0 0 1 0 0 0
POINTS 2081
DATA ascii
0.558 -0.037 0.131 0 
0.557 -0.036 0.135 0 
0.558 -0.047 0.195 0 
0.574 -0.038 0.142 0 
0.375 -0.22 -0.025 1 
0.374 -0.217 -0.024 1 
0.364 -0.167 -0.019 1 
0.364 -0.157 -0.018 1 
0.364 -0.136 -0.018 1 
0.362 -0.125 -0.017 1 
0.356 -0.119 -0.014 1 
0.353 -0.115 -0.013 1 
0.354 -0.046 -0.012 1 
0.354 -0.043 -0.012 1 
0.349 -0.016 -0.011 1 
0.323 0.037 -0.001 1 
0.324 0.063 -0.002 1 
0.321 0.094 -0.002 1 
0.314 0.163 -0.003 1 
0.38 -0.228 -0.025 1 
0.373 -0.196 -0.021 1 
0.364 -0.107 -0.015 1 
0.361 -0.095 -0.014 1 
0.361 -0.085 -0.014 1 
0.362 -0.077 -0.014 1 
0.364 -0.074 -0.015 1 
0.364 -0.065 -0.014 1 
0.36 -0.055 -0.013 1 
0.361 -0.036 -0.013 1 
0.333 0.004 -0.003 1 
0.324 0.024 0 1 
0.32 0.104 0 1 
0.313 0.124 0.001 1 
0.383 -0.248 -0.025 1 
0.382 -0.227 -0.023 1 
0.374 -0.186 -0.019 1 
0.374 -0.178 -0.019 1 
0.374 -0.146 -0.018 1 
0.374 -0.136 -0.018 1 
0.372 -0.125 -0.017 1 
0.367 -0.083 -0.014 1 
0.36 -0.015 -0.011 1 
0.334 0.042 -0.002 1 
0.317 0.154 0 1 
0.391 -0.257 -0.026 1 
0.391 -0.239 -0.025 1 
0.383 -0.205 -0.021 1 
0.381 -0.195 -0.02 1 
0.38 -0.165 -0.018 1 
0.374 -0.116 -0.015 1 
0.374 -0.099 -0.015 1 
0.373 -0.089 -0.014 1 
0.374 -0.085 -0.015 1 
0.373 -0.066 -0.014 1 
0.373 -0.047 -0.014 1 
0.384 -0.048 -0.018 1 
0.371 -0.036 -0.013 1 
0.341 0.054 -0.003 1 
0.34 0.063 -0.003 1 
0.313 0.133 0.003 1 
0.315 0.143 0.002 1 
0.313 0.144 0.003 1 
0.314 0.152 0.001 1 
0.32 0.164 0 1 
0.403 -0.277 -0.028 1 
0.398 -0.257 -0.026 1 
0.396 -0.247 -0.025 1 
0.392 -0.228 -0.022 1 
0.39 -0.216 -0.021 1 
0.389 -0.206 -0.021 1 
0.383 -0.159 -0.017 1 
0.382 -0.125 -0.016 1 
0.383 -0.105 -0.016 1 
0.382 -0.085 -0.015 1 
0.381 -0.076 -0.015 1 
0.342 0.073 -0.002 1 
0.343 0.084 -0.003 1 
0.332 0.104 0 1 
0.319 0.129 0.003 1 
0.287 0.122 0.013 1 
0.292 0.129 0.011 1 
0.323 0.177 0 1 
0.401 -0.255 -0.024 1 
0.4 -0.235 -0.023 1 
0.393 -0.175 -0.019 1 
0.392 -0.165 -0.018 1 
0.384 -0.118 -0.015 1 
0.384 -0.095 -0.014 1 
0.384 -0.091 -0.014 1 
0.386 -0.074 -0.015 1 
0.384 -0.066 -0.014 1 
0.384 -0.064 -0.014 1 
0.384 -0.046 -0.014 1 
0.382 -0.036 -0.013 1 
0.374 -0.016 -0.011 1 
0.37 -0.006 -0.009 1 
0.362 -0.004 -0.007 1 
0.339 0.034 0 1 
0.354 0.047 -0.004 1 
0.353 0.064 -0.004 1 
0.347 0.074 -0.002 1 
0.344 0.094 -0.002 1 
0.334 0.113 0 1 
0.285 0.115 0.015 1 
0.329 0.188 -0.001 1 
0.413 -0.288 -0.027 1 
0.408 -0.268 -0.025 1 
0.407 -0.256 -0.024 1 
0.384 -0.215 -0.021 1 
0.404 -0.227 -0.022 1 
0.394 -0.199 -0.018 1 
0.394 -0.125 -0.016 1 
0.394 -0.115 -0.016 1 
0.393 -0.106 -0.015 1 
0.393 -0.089 -0.015 1 
0.392 -0.066 -0.014 1 
0.392 -0.064 -0.014 1 
0.394 -0.056 -0.015 1 
0.393 -0.052 -0.015 1 
0.391 -0.047 -0.014 1 
0.388 -0.037 -0.013 1 
0.378 -0.016 -0.01 1 
0.331 0.019 0.004 1 
0.332 0.034 0.004 1 
0.354 0.042 -0.003 1 
0.356 0.044 -0.003 1 
0.36 0.054 -0.005 1 
0.36 0.058 -0.005 1 
0.357 0.064 -0.004 1 
0.351 0.084 -0.002 1 
0.348 0.094 -0.001 1 
0.324 0.117 0.004 1 
0.292 0.113 0.014 1 
0.327 0.184 0 1 
0.414 -0.283 -0.025 1 
0.343 -0.002 -0.005 1 
0.416 -0.271 -0.025 1 
0.414 -0.266 -0.024 1 
0.417 -0.263 -0.025 1 
0.404 -0.205 -0.019 1 
0.404 -0.195 -0.018 1 
0.401 -0.186 -0.017 1 
0.403 -0.176 -0.018 1 
0.404 -0.165 -0.018 1 
0.396 -0.103 -0.014 1 
0.4 -0.079 -0.015 1 
0.399 -0.026 -0.015 1 
0.336 0.038 0.004 1 
0.361 0.074 -0.003 1 
0.335 0.115 0.003 1 
0.33 0.117 0.004 1 
0.327 0.116 0.005 1 
0.289 0.141 0.015 1 
0.423 -0.299 -0.026 1 
0.422 -0.289 -0.025 1 
0.422 -0.266 -0.024 1 
0.414 -0.239 -0.02 1 
0.411 -0.228 -0.019 1 
0.363 -0.006 -0.009 1 
0.411 -0.216 -0.019 1 
0.41 -0.208 -0.018 1 
0.404 -0.146 -0.015 1 
0.404 -0.135 -0.015 1 
0.406 -0.096 -0.015 1 
0.407 -0.086 -0.015 1 
0.406 -0.081 -0.015 1 
0.402 -0.067 -0.013 1 
0.402 -0.045 -0.013 1 
0.404 -0.035 -0.014 1 
0.404 -0.025 -0.014 1 
0.396 -0.015 -0.012 1 
0.386 -0.007 -0.009 1 
0.381 -0.005 -0.007 1 
0.341 0.003 0.004 1 
0.368 0.053 -0.003 1 
0.364 0.084 -0.003 1 
0.363 0.093 -0.003 1 
0.356 0.104 -0.001 1 
0.353 0.104 0 1 
0.303 0.112 0.014 1 
0.429 -0.306 -0.025 1 
0.423 -0.255 -0.021 1 
0.412 -0.197 -0.016 1 
0.413 -0.185 -0.016 1 
0.412 -0.156 -0.015 1 
0.411 -0.153 -0.015 1 
0.409 -0.147 -0.014 1 
0.41 -0.136 -0.014 1 
0.41 -0.132 -0.014 1 
0.393 -0.246 -0.026 1 
0.413 -0.115 -0.015 1 
0.413 -0.113 -0.015 1 
0.412 -0.108 -0.014 1 
0.411 -0.085 -0.014 1 
0.41 -0.075 -0.014 1 
0.409 -0.066 -0.013 1 
0.408 -0.055 -0.013 1 
0.408 -0.046 -0.013 1 
0.409 -0.025 -0.013 1 
0.416 -0.015 -0.015 1 
0.419 -0.008 -0.016 1 
0.373 0.073 -0.003 1 
0.371 0.083 -0.003 1 
0.369 0.094 -0.002 1 
0.341 0.114 0.004 1 
0.433 -0.311 -0.024 1 
0.43 -0.298 -0.022 1 
0.43 -0.286 -0.022 1 
0.432 -0.276 -0.022 1 
0.424 -0.248 -0.019 1 
0.424 -0.235 -0.018 1 
0.423 -0.228 -0.018 1 
0.424 -0.217 -0.018 1 
0.421 -0.196 -0.016 1 
0.415 -0.18 -0.014 1 
0.419 -0.178 -0.015 1 
0.419 -0.16 -0.015 1 
0.419 -0.097 -0.014 1 
0.378 0.073 -0.003 1 
0.377 0.084 -0.003 1 
0.376 0.093 -0.003 1 
0.374 0.104 -0.002 1 
0.347 0.114 0.004 1 
0.31 0.109 0.014 1 
0.429 -0.256 -0.018 1 
0.427 -0.186 -0.015 1 
0.422 -0.145 -0.013 1 
0.424 -0.137 -0.014 1 
0.421 -0.116 -0.013 1 
0.423 -0.105 -0.013 1 
0.424 -0.066 -0.013 1 
0.423 -0.056 -0.013 1 
0.423 -0.045 -0.012 1 
0.38 -0.187 -0.019 1 
0.39 -0.147 -0.017 1 
0.423 -0.036 -0.012 1 
0.419 -0.026 -0.012 1 
0.332 0.024 0.011 1 
0.381 0.103 -0.002 1 
0.364 0.114 0.001 1 
0.433 -0.245 -0.016 1 
0.434 -0.227 -0.016 1 
0.433 -0.216 -0.015 1 
0.433 -0.206 -0.015 1 
0.433 -0.2 -0.015 1 
0.38 -0.074 -0.015 1 
0.431 -0.196 -0.014 1 
0.432 -0.187 -0.014 1 
0.432 -0.176 -0.014 1 
0.434 -0.175 -0.015 1 
0.424 -0.161 -0.012 1 
0.432 -0.136 -0.013 1 
0.431 -0.128 -0.013 1 
0.43 -0.115 -0.013 1 
0.431 -0.096 -0.013 1 
0.429 -0.086 -0.012 1 
0.431 -0.077 -0.012 1 
0.429 -0.065 -0.012 1 
0.432 -0.037 -0.013 1 
0.43 -0.013 -0.012 1 
0.393 0.074 -0.003 1 
0.399 -0.215 -0.02 1 
0.394 0.084 -0.003 1 
0.375 0.114 0 1 
0.366 0.113 0.003 1 
0.365 0.116 0.003 1 
0.444 -0.297 -0.018 1 
0.443 -0.278 -0.017 1 
0.441 -0.267 -0.016 1 
0.44 -0.255 -0.015 1 
0.439 -0.24 -0.015 1 
0.439 -0.226 -0.014 1 
0.434 -0.165 -0.012 1 
0.434 -0.157 -0.012 1 
0.434 -0.147 -0.012 1 
0.434 -0.054 -0.011 1 
0.379 -0.005 0.002 1 
0.336 0.024 0.013 1 
0.392 0.104 -0.001 1 
0.357 -0.109 -0.014 1 
0.355 0.107 0.007 1 
0.452 -0.316 -0.017 1 
0.449 -0.296 -0.016 1 
0.447 -0.285 -0.015 1 
0.444 -0.27 -0.014 1 
0.444 -0.258 -0.014 1 
0.443 -0.246 -0.013 1 
0.444 -0.238 -0.013 1 
0.444 -0.217 -0.013 1 
0.444 -0.198 -0.012 1 
0.444 -0.192 -0.012 1 
0.462 -0.199 -0.017 1 
0.443 -0.178 -0.012 1 
0.442 -0.167 -0.011 1 
0.441 -0.159 -0.011 1 
0.441 -0.148 -0.011 1 
0.441 -0.138 -0.011 1 
0.441 -0.115 -0.01 1 
0.441 -0.105 -0.01 1 
0.411 -0.096 -0.014 1 
0.441 -0.095 -0.01 1 
0.442 -0.08 -0.01 1 
0.444 -0.066 -0.011 1 
0.441 -0.055 -0.01 1 
0.442 -0.046 -0.01 1 
0.442 -0.036 -0.01 1 
0.438 -0.026 -0.009 1 
0.442 -0.014 -0.01 1 
0.352 0.023 0.011 1 
0.337 0.026 0.014 1 
0.41 0.084 -0.003 1 
0.308 0.115 0.009 1 
0.394 0.114 0 1 
0.432 -0.106 -0.013 1 
0.456 -0.317 -0.016 1 
0.455 -0.309 -0.015 1 
0.449 -0.275 -0.013 1 
0.452 -0.236 -0.012 1 
0.452 -0.228 -0.012 1 
0.449 -0.215 -0.011 1 
0.449 -0.185 -0.011 1 
0.452 -0.176 -0.011 1 
0.448 -0.165 -0.01 1 
0.449 -0.155 -0.01 1 
0.45 -0.145 -0.01 1 
0.451 -0.135 -0.011 1 
0.449 -0.095 -0.01 1 
0.443 -0.208 -0.012 1 
0.451 -0.085 -0.01 1 
0.361 0.024 0.01 1 
0.364 -0.026 -0.013 1 
0.358 0.026 0.011 1 
0.352 -0.026 -0.012 1 
0.35 0.026 0.013 1 
0.383 0.118 0.004 1 
0.354 -0.114 -0.014 1 
0.459 -0.326 -0.014 1 
0.453 -0.266 -0.011 1 
0.453 -0.255 -0.01 1 
0.454 -0.25 -0.01 1 
0.454 -0.205 -0.01 1 
0.454 -0.196 -0.01 1 
0.454 -0.126 -0.009 1 
0.454 -0.12 -0.009 1 
0.454 -0.066 -0.008 1 
0.454 -0.055 -0.008 1 
0.403 0.092 0.002 1 
0.404 0.103 0.001 1 
0.398 0.114 0.003 1 
0.382 0.116 0.006 1 
0.463 -0.345 -0.012 1 
0.462 -0.336 -0.012 1 
0.406 0.102 0.001 1 
0.464 -0.315 -0.012 1 
0.463 -0.307 -0.011 1 
0.403 -0.075 -0.014 1 
0.462 -0.297 -0.011 1 
0.461 -0.156 -0.008 1 
0.461 -0.145 -0.008 1 
0.384 -0.237 -0.025 1 
0.458 -0.056 -0.006 1 
0.458 -0.046 -0.006 1 
0.457 -0.035 -0.006 1 
0.457 -0.025 -0.006 1 
0.381 -0.005 0.009 1 
0.397 0.094 0.005 1 
0.401 -0.096 -0.015 1 
0.463 -0.266 -0.007 1 
0.464 -0.255 -0.007 1 
0.464 -0.249 -0.007 1 
0.464 -0.226 -0.007 1 
0.463 -0.217 -0.006 1 
0.463 -0.197 -0.006 1 
0.464 -0.186 -0.006 1 
0.463 -0.177 -0.006 1 
0.464 -0.169 -0.006 1 
0.465 -0.167 -0.006 1 
0.465 -0.155 -0.006 1 
0.465 -0.147 -0.006 1 
0.465 -0.142 -0.006 1 
0.463 -0.127 -0.005 1 
0.382 -0.146 -0.019 1 
0.463 -0.086 -0.005 1 
0.463 -0.076 -0.005 1 
0.462 -0.065 -0.005 1 
0.374 0.024 0.013 1 
0.37 -0.025 -0.011 1 
0.372 0.03 0.013 1 
0.38 0.035 0.011 1 
0.411 -0.135 -0.015 1 
0.472 -0.355 -0.009 1 
0.474 -0.346 -0.009 1 
0.473 -0.335 -0.008 1 
0.47 -0.325 -0.007 1 
0.469 -0.287 -0.006 1 
0.468 -0.255 -0.005 1 
0.47 -0.245 -0.005 1 
0.471 -0.237 -0.005 1 
0.469 -0.227 -0.005 1 
0.467 -0.22 -0.005 1 
0.451 -0.295 -0.014 1 
0.464 -0.065 -0.002 1 
0.383 -0.034 -0.011 1 
0.383 0.031 0.013 1 
0.386 0.038 0.012 1 
0.477 -0.357 -0.007 1 
0.479 -0.348 -0.007 1 
0.477 -0.335 -0.006 1 
0.364 -0.076 -0.015 1 
0.474 -0.322 -0.005 1 
0.475 -0.316 -0.005 1 
0.475 -0.313 -0.005 1 
0.454 -0.053 -0.008 1 
0.474 -0.305 -0.005 1 
0.464 -0.081 0 1 
0.391 -0.156 -0.018 1 
0.374 0.013 0.017 1 
0.473 -0.285 -0.001 1 
0.473 -0.275 -0.001 1 
0.473 -0.266 -0.001 1 
0.474 -0.239 0 1 
0.418 -0.001 0.01 1 
0.409 0.009 0.012 1 
0.395 -0.009 -0.011 1 
0.401 0.011 0.013 1 
0.387 0.012 0.016 1 
0.381 0.014 0.017 1 
0.398 0.017 0.014 1 
0.472 -0.217 0.002 1 
0.471 -0.205 0.002 1 
0.472 -0.196 0.002 1 
0.472 -0.188 0.002 1 
0.47 -0.175 0.003 1 
0.47 -0.166 0.003 1 
0.471 -0.156 0.003 1 
0.469 -0.146 0.003 1 
0.372 -0.206 -0.023 1 
0.468 -0.137 0.004 1 
0.467 -0.107 0.004 1 
0.466 -0.087 0.004 1 
0.466 -0.076 0.004 1 
0.413 -0.126 -0.015 1 
0.469 -0.009 0.004 1 
0.452 -0.014 -0.008 1 
0.453 0.011 0.006 1 
0.419 -0.085 -0.014 1 
0.48 -0.328 0.002 1 
0.478 -0.306 0.003 1 
0.476 -0.297 0.003 1 
0.475 -0.286 0.003 1 
0.476 -0.278 0.003 1 
0.474 -0.254 0.004 1 
0.475 -0.237 0.004 1 
0.435 0.019 0.012 1 
0.404 0.019 0.017 1 
0.414 -0.017 -0.015 1 
0.407 0.022 0.017 1 
0.463 -0.007 0.01 1 
0.449 0.02 0.012 1 
0.374 -0.083 -0.015 1 
0.404 -0.156 -0.017 1 
0.465 -0.007 0.012 1 
0.465 0 0.012 1 
0.464 0.003 0.012 1 
0.461 -0.009 -0.01 1 
0.464 0.011 0.012 1 
0.463 0.016 0.013 1 
0.469 0.022 0.014 1 
0.473 -0.227 0.004 1 
0.498 0.036 0.016 1 
0.444 -0.316 -0.018 1 
0.401 -0.086 -0.015 1 
0.391 -0.027 -0.014 1 
0.382 0.064 -0.004 1 
0.44 -0.246 -0.015 1 
0.321 0.115 0.007 1 
0.393 0.092 -0.003 1 
0.469 -0.127 0.003 1 
0.422 -0.017 -0.012 1 
0.329 0.064 -0.002 1 
0.333 0.001 -0.005 1 
0.476 -0.268 0.004 1 
0.387 -0.015 -0.011 1 
0.446 -0.281 -0.015 1 
0.41 -0.036 -0.013 1 
0.414 -0.023 -0.012 1 
0.332 0.027 0.014 1 
0.476 -0.246 0.004 1 
0.422 -0.207 -0.017 1 
0.454 -0.305 -0.015 1 
0.354 -0.006 -0.009 1 
0.345 0.014 0.014 1 
0.37 -0.071 -0.015 1 
0.324 0.171 0 1 
0.332 0.074 -0.002 1 
0.424 -0.282 -0.022 1 
0.456 -0.327 -0.016 1 
0.475 -0.264 0.004 1 
0.451 -0.022 -0.008 1 
0.464 -0.116 -0.005 1 
0.366 0.058 -0.005 1 
0.475 -0.234 0.001 1 
0.364 0.054 -0.004 1 
0.464 -0.136 -0.006 1 
0.414 -0.247 -0.023 1 
0.427 -0.171 -0.015 1 
0.414 -0.167 -0.016 1 
0.464 -0.031 0 1 
0.386 -0.102 -0.015 1 
0.434 -0.235 -0.016 1 
0.471 -0.01 -0.007 1 
0.465 0.014 0.012 1 
0.433 -0.268 -0.019 1 
0.398 -0.106 -0.015 1 
0.34 0.009 0.004 1 
0.47 -0.295 -0.006 1 
0.467 -0.276 -0.005 1 
0.395 0.119 0.003 1 
0.386 -0.076 -0.015 1 
0.444 -0.086 -0.011 1 
0.421 -0.167 -0.016 1 
0.397 0.098 0.005 1 
0.393 0.12 0.004 1 
0.448 -0.105 -0.01 1 
0.464 -0.017 -0.005 1 
0.467 -0.096 0.004 1 
0.472 -0.297 -0.004 1 
0.373 -0.106 -0.016 1 
0.452 -0.027 -0.008 1 
0.461 -0.286 -0.01 1 
0.322 0.084 -0.002 1 
0.412 -0.175 -0.016 1 
0.444 -0.285 -0.017 1 
0.45 -0.037 -0.01 1 
0.45 -0.285 -0.013 1 
0.444 -0.016 -0.011 1 
0.464 -0.106 -0.005 1 
0.402 -0.056 -0.013 1 
0.402 -0.125 -0.016 1 
0.364 -0.1 -0.015 1 
0.379 -0.177 -0.019 1 
0.45 -0.075 -0.01 1 
0.414 -0.012 -0.015 1 
0.371 -0.056 -0.013 1 
0.403 -0.265 -0.025 1 
0.424 -0.285 -0.023 1 
0.38 -0.096 -0.015 1 
0.364 -0.052 -0.013 1 
0.345 -0.002 -0.003 1 
0.364 0.116 0.001 1 
0.298 0.115 0.011 1 
0.434 -0.056 -0.011 1 
0.418 -0.187 -0.015 1 
0.442 -0.126 -0.011 1 
0.433 -0.025 -0.011 1 
0.333 0.093 -0.001 1 
0.372 -0.157 -0.019 1 
0.44 -0.306 -0.02 1 
0.373 -0.095 -0.014 1 
0.333 0.084 -0.003 1 
0.405 0.088 0.001 1 
0.423 -0.01 -0.013 1 
0.312 0.169 -0.002 1 
0.466 -0.266 -0.005 1 
0.35 0.115 0.003 1 
0.392 -0.186 -0.019 1 
0.474 -0.285 0.006 1 
0.333 0.013 0 1 
0.419 -0.076 -0.014 1 
0.362 -0.115 -0.015 1 
0.329 0.053 -0.002 1 
0.416 -0.28 -0.025 1 
0.463 -0.097 -0.005 1 
0.39 -0.096 -0.014 1 
0.324 0.033 0 1 
0.48 -0.318 0.002 1 
0.323 0.074 -0.002 1 
0.463 -0.057 -0.002 1 
0.463 -0.205 -0.006 1 
0.401 -0.247 -0.024 1 
0.423 -0.131 -0.013 1 
0.463 -0.276 -0.007 1 
0.374 0.064 -0.003 1 
0.398 0.084 -0.002 1 
0.461 -0.235 -0.009 1 
0.468 -0.015 -0.006 1 
0.431 -0.015 -0.013 1 
0.4 -0.115 -0.015 1 
0.453 -0.326 -0.015 1 
0.475 -0.326 -0.005 1 
0.353 -0.004 -0.007 1 
0.379 -0.135 -0.017 1 
0.393 -0.135 -0.016 1 
0.39 -0.094 -0.014 1 
0.393 0.09 0.006 1 
0.465 -0.036 0.002 1 
0.474 -0.257 0.004 1 
0.323 0.113 0 1 
0.436 -0.008 -0.016 1 
0.374 -0.165 -0.018 1 
0.343 0.104 0 1 
0.372 0.041 0.024 2 
0.361 0.092 0.08 2 
0.491 -0.001 0.07 2 
0.378 0.042 0.033 2 
0.387 0.058 0.048 2 
0.389 0.024 0.019 2 
0.336 0.098 0.021 2 
0.404 0.038 0.035 2 
0.34 0.047 0.048 2 
0.379 0.032 0.035 2 
0.376 0.064 0.057 2 
0.363 0 0.005 2 
0.503 0.052 0.017 2 
0.392 0.053 0.049 2 
0.496 0.062 0.027 2 
0.377 0.057 0.049 2 
0.394 0.053 0.047 2 
0.395 0.051 0.047 2 
0.374 0.054 0.047 2 
0.382 0.054 0.047 2 
0.39 0.044 0.041 2 
0.335 0.053 0.019 2 
0.398 0.073 0.062 2 
0.325 0.105 0.021 2 
0.392 0.071 0.058 2 
0.39 0.064 0.059 2 
0.372 0.033 0.025 2 
0.374 0.024 0.016 2 
0.385 0.026 0.02 2 
0.328 0.104 0.02 2 
0.337 0.093 0.021 2 
0.334 0.089 0.021 2 
0.328 0.084 0.024 2 
0.336 0.079 0.022 2 
0.345 0.103 0.017 2 
0.351 0.101 0.016 2 
0.335 0.105 0.016 2 
0.345 0.105 0.015 2 
0.333 0.106 0.015 2 
0.335 0.105 0.014 2 
0.321 0.108 0.015 2 
0.368 0.004 0.023 2 
0.391 0.055 0.038 2 
0.384 0.051 0.038 2 
0.339 0.043 0.042 2 
0.388 0.052 0.035 2 
0.374 0.043 0.037 2 
0.352 0.05 0.046 2 
0.377 0.034 0.033 2 
0.38 0.044 0.04 2 
0.373 0.033 0.03 2 
0.387 0.028 0.021 2 
0.395 0.033 0.031 2 
0.34 0.089 0.081 2 
0.33 0.081 0.077 2 
0.385 0.041 0.018 2 
0.393 0.067 0.061 2 
0.375 0.026 0.019 2 
0.379 0.044 0.027 2 
0.341 0.104 0.016 2 
0.382 0.023 0.018 2 
0.391 0.1 0.079 2 
0.342 0.08 0.074 2 
0.39 0.095 0.077 2 
0.465 0.173 0.142 3 
0.485 -0.314 0.154 3 
0.255 0.089 0.084 3 
0.276 0.092 0.089 3 
0.462 0.209 0.142 3 
0.465 0.199 0.143 3 
0.466 0.194 0.143 3 
0.475 -0.228 0.078 3 
0.465 0.181 0.142 3 
0.464 0.178 0.142 3 
0.482 -0.298 0.153 3 
0.471 -0.156 0.124 3 
0.465 0.1 0.141 3 
0.479 -0.285 0.143 3 
0.471 -0.207 0.013 3 
0.469 -0.047 0.142 3 
0.267 0.074 0.054 3 
0.469 -0.055 0.142 3 
0.469 -0.066 0.142 3 
0.463 0.124 0.143 3 
0.474 -0.266 0.012 3 
0.477 -0.255 0.153 3 
0.478 -0.265 0.154 3 
0.479 -0.275 0.154 3 
0.317 0.053 0.023 3 
0.464 0.164 0.144 3 
0.465 0.161 0.144 3 
0.465 0.153 0.144 3 
0.464 0.15 0.144 3 
0.464 0.144 0.144 3 
0.463 0.133 0.144 3 
0.483 -0.305 0.153 3 
0.463 0.113 0.143 3 
0.464 0.103 0.144 3 
0.464 0.092 0.143 3 
0.464 0.084 0.143 3 
0.465 0.081 0.144 3 
0.465 0.073 0.144 3 
0.464 0.062 0.143 3 
0.464 0.054 0.143 3 
0.48 -0.286 0.152 3 
0.471 -0.086 0.143 3 
0.464 0.192 0.134 3 
0.476 -0.247 0.144 3 
0.476 -0.257 0.144 3 
0.265 0.087 0.084 3 
0.464 0.189 0.136 3 
0.465 0.136 0.136 3 
0.44 0.042 0.129 3 
0.495 -0.037 0.143 3 
0.479 -0.278 0.143 3 
0.481 -0.297 0.144 3 
0.482 -0.307 0.144 3 
0.463 0.2 0.134 3 
0.476 -0.235 0.144 3 
0.472 -0.147 0.052 3 
0.465 0.187 0.134 3 
0.465 0.184 0.134 3 
0.464 0.18 0.133 3 
0.464 0.172 0.133 3 
0.464 0.163 0.133 3 
0.464 0.152 0.133 3 
0.464 0.144 0.133 3 
0.465 0.133 0.133 3 
0.464 0.122 0.133 3 
0.316 0.04 0.034 3 
0.476 -0.226 0.152 3 
0.471 -0.105 0.143 3 
0.473 -0.126 0.144 3 
0.472 -0.145 0.144 3 
0.47 -0.156 0.143 3 
0.47 -0.167 0.144 3 
0.429 0.047 0.09 3 
0.472 -0.177 0.144 3 
0.472 -0.185 0.144 3 
0.486 -0.318 0.152 3 
0.487 -0.326 0.152 3 
0.47 -0.077 0.142 3 
0.488 -0.335 0.153 3 
0.487 -0.348 0.153 3 
0.47 -0.086 0.134 3 
0.464 0.172 0.139 3 
0.465 0.054 0.138 3 
0.445 0.043 0.133 3 
0.474 -0.207 0.142 3 
0.451 0.044 0.124 3 
0.474 -0.216 0.143 3 
0.475 -0.225 0.143 3 
0.464 0.181 0.153 3 
0.304 0.053 0.059 3 
0.479 -0.266 0.163 3 
0.479 -0.276 0.163 3 
0.48 -0.296 0.164 3 
0.464 0.225 0.154 3 
0.461 0.22 0.153 3 
0.463 0.212 0.153 3 
0.465 0.199 0.154 3 
0.465 0.194 0.154 3 
0.464 0.187 0.153 3 
0.478 -0.256 0.162 3 
0.465 0.179 0.153 3 
0.466 0.173 0.153 3 
0.467 0.163 0.153 3 
0.464 0.153 0.152 3 
0.465 0.15 0.153 3 
0.464 0.144 0.152 3 
0.465 0.142 0.152 3 
0.466 0.134 0.153 3 
0.466 0.123 0.152 3 
0.465 0.03 0.063 3 
0.475 -0.202 0.163 3 
0.475 -0.205 0.163 3 
0.482 0.083 0.094 3 
0.338 0.034 0.025 3 
0.477 -0.216 0.164 3 
0.473 -0.257 0.044 3 
0.478 -0.225 0.164 3 
0.478 -0.237 0.164 3 
0.487 -0.345 0.172 3 
0.464 0.144 0.155 3 
0.465 0.112 0.152 3 
0.465 0.079 0.154 3 
0.465 0.071 0.154 3 
0.464 0.065 0.154 3 
0.464 0.062 0.154 3 
0.466 -0.047 0.034 3 
0.464 0.054 0.154 3 
0.483 -0.038 0.16 3 
0.474 -0.205 0.16 3 
0.471 -0.167 0.033 3 
0.477 -0.246 0.162 3 
0.473 -0.186 0.153 3 
0.465 0.03 0.034 3 
0.467 -0.087 0.023 3 
0.465 0.223 0.151 3 
0.471 -0.135 0.083 3 
0.464 0.1 0.149 3 
0.471 -0.145 0.152 3 
0.471 -0.156 0.152 3 
0.471 -0.165 0.152 3 
0.475 -0.265 0.104 3 
0.471 -0.176 0.152 3 
0.276 0.096 0.093 3 
0.473 -0.195 0.153 3 
0.475 -0.211 0.154 3 
0.488 -0.328 0.162 3 
0.489 -0.336 0.162 3 
0.464 0.051 0.05 3 
0.488 -0.346 0.163 3 
0.464 0.133 0.147 3 
0.464 0.122 0.146 3 
0.464 0.103 0.133 3 
0.464 0.114 0.146 3 
0.471 -0.086 0.154 3 
0.465 0.103 0.152 3 
0.465 0.092 0.152 3 
0.476 -0.266 0.142 3 
0.464 0.089 0.152 3 
0.464 0.081 0.151 3 
0.465 0.063 0.152 3 
0.464 0.064 0.073 3 
0.47 -0.056 0.153 3 
0.468 -0.066 0.153 3 
0.469 -0.075 0.153 3 
0.477 -0.236 0.153 3 
0.472 -0.095 0.154 3 
0.474 -0.245 0.092 3 
0.471 -0.106 0.154 3 
0.472 -0.117 0.154 3 
0.471 -0.125 0.154 3 
0.47 -0.136 0.154 3 
0.289 0.088 0.084 3 
0.482 -0.305 0.162 3 
0.485 -0.315 0.163 3 
0.247 0.094 0.084 3 
0.483 -0.335 0.124 3 
0.475 -0.246 0.124 3 
0.476 -0.256 0.124 3 
0.477 -0.267 0.124 3 
0.246 0.093 0.074 3 
0.464 -0.033 0.116 3 
0.474 -0.252 0.121 3 
0.48 -0.288 0.122 3 
0.48 -0.295 0.123 3 
0.481 -0.306 0.123 3 
0.481 -0.316 0.123 3 
0.482 -0.327 0.124 3 
0.476 -0.235 0.123 3 
0.285 0.08 0.08 3 
0.46 0.164 0.113 3 
0.462 0.154 0.114 3 
0.463 0.143 0.114 3 
0.463 0.132 0.114 3 
0.463 0.124 0.114 3 
0.463 0.113 0.114 3 
0.463 0.102 0.114 3 
0.463 0.094 0.114 3 
0.462 0.083 0.113 3 
0.484 -0.337 0.131 3 
0.467 -0.055 0.122 3 
0.468 -0.066 0.123 3 
0.469 -0.077 0.123 3 
0.47 -0.086 0.123 3 
0.47 -0.097 0.123 3 
0.475 -0.287 0.093 3 
0.47 -0.105 0.123 3 
0.47 -0.127 0.124 3 
0.47 -0.136 0.124 3 
0.471 -0.147 0.124 3 
0.46 0.072 0.113 3 
0.484 -0.347 0.131 3 
0.408 0.056 0.027 3 
0.472 -0.165 0.122 3 
0.473 -0.176 0.122 3 
0.473 -0.185 0.122 3 
0.473 -0.197 0.122 3 
0.474 -0.206 0.123 3 
0.475 -0.21 0.123 3 
0.475 -0.216 0.123 3 
0.475 -0.225 0.123 3 
0.501 -0.046 0.115 3 
0.471 -0.167 0.113 3 
0.472 -0.176 0.113 3 
0.472 -0.196 0.114 3 
0.473 -0.206 0.114 3 
0.475 -0.21 0.114 3 
0.475 -0.216 0.114 3 
0.275 0.115 0.023 3 
0.318 0.097 0.084 3 
0.299 0.084 0.028 3 
0.482 -0.041 0.111 3 
0.47 -0.155 0.113 3 
0.49 -0.048 0.113 3 
0.48 -0.049 0.111 3 
0.465 -0.007 0.052 3 
0.474 -0.215 0.111 3 
0.473 -0.226 0.111 3 
0.475 -0.234 0.112 3 
0.475 -0.24 0.112 3 
0.476 -0.247 0.112 3 
0.476 -0.256 0.112 3 
0.476 -0.266 0.113 3 
0.468 -0.077 0.112 3 
0.458 0.053 0.112 3 
0.487 -0.033 0.118 3 
0.465 -0.033 0.114 3 
0.466 -0.036 0.114 3 
0.467 -0.052 0.114 3 
0.467 -0.06 0.114 3 
0.467 -0.066 0.114 3 
0.484 -0.347 0.122 3 
0.255 0.085 0.074 3 
0.462 -0.033 0.111 3 
0.467 -0.047 0.122 3 
0.469 -0.085 0.112 3 
0.467 -0.066 0.034 3 
0.469 -0.096 0.112 3 
0.469 -0.105 0.112 3 
0.469 -0.116 0.112 3 
0.314 0.105 0.024 3 
0.469 -0.127 0.112 3 
0.47 -0.136 0.113 3 
0.472 -0.187 0.114 3 
0.47 -0.147 0.113 3 
0.473 -0.146 0.133 3 
0.486 -0.346 0.144 3 
0.3 0.106 0.091 3 
0.295 0.101 0.09 3 
0.465 0.136 0.13 3 
0.465 0.122 0.13 3 
0.464 0.073 0.13 3 
0.464 0.057 0.13 3 
0.471 -0.116 0.132 3 
0.471 -0.125 0.132 3 
0.479 -0.323 0.034 3 
0.473 -0.137 0.133 3 
0.485 -0.321 0.142 3 
0.471 -0.156 0.133 3 
0.472 -0.165 0.133 3 
0.472 -0.177 0.133 3 
0.472 -0.185 0.133 3 
0.474 -0.198 0.134 3 
0.473 -0.206 0.134 3 
0.474 -0.215 0.134 3 
0.474 -0.255 0.135 3 
0.469 -0.263 0.134 3 
0.273 0.084 0.083 3 
0.464 0.051 0.132 3 
0.464 0.114 0.133 3 
0.474 -0.196 0.162 3 
0.459 -0.035 0.094 3 
0.464 0.092 0.133 3 
0.464 0.084 0.133 3 
0.465 0.076 0.133 3 
0.466 -0.007 0.076 3 
0.465 0.073 0.133 3 
0.466 0.063 0.133 3 
0.465 0.054 0.133 3 
0.275 0.085 0.084 3 
0.467 -0.033 0.133 3 
0.467 -0.036 0.133 3 
0.467 -0.047 0.133 3 
0.468 -0.055 0.133 3 
0.469 -0.066 0.134 3 
0.47 -0.075 0.134 3 
0.47 -0.097 0.134 3 
0.475 -0.213 0.137 3 
0.475 -0.219 0.137 3 
0.484 -0.316 0.142 3 
0.474 -0.276 0.044 3 
0.463 0.113 0.124 3 
0.463 0.102 0.124 3 
0.463 0.094 0.124 3 
0.463 0.083 0.124 3 
0.464 0.062 0.124 3 
0.463 0.054 0.124 3 
0.48 -0.305 0.132 3 
0.482 -0.317 0.133 3 
0.484 -0.326 0.133 3 
0.463 0.121 0.124 3 
0.485 -0.345 0.134 3 
0.461 0.173 0.122 3 
0.462 0.162 0.122 3 
0.463 0.154 0.122 3 
0.463 0.143 0.122 3 
0.466 -0.066 0.023 3 
0.463 0.132 0.122 3 
0.466 -0.033 0.122 3 
0.466 -0.036 0.122 3 
0.476 -0.257 0.133 3 
0.276 0.084 0.084 3 
0.464 0.133 0.127 3 
0.465 0.056 0.06 3 
0.479 -0.285 0.134 3 
0.477 -0.297 0.044 3 
0.475 -0.222 0.132 3 
0.466 0.081 0.063 3 
0.475 -0.225 0.132 3 
0.476 -0.235 0.132 3 
0.475 -0.246 0.132 3 
0.466 -0.095 0.012 3 
0.53 -0.106 0.104 3 
0.477 -0.267 0.133 3 
0.483 -0.348 0.064 3 
0.472 -0.167 0.044 3 
0.479 -0.278 0.134 3 
0.273 0.113 0.024 3 
0.479 -0.298 0.134 3 
0.265 0.095 0.039 3 
0.46 0.186 0.124 3 
0.46 0.183 0.124 3 
0.47 -0.105 0.132 3 
0.47 0.183 0.183 3 
0.468 0.173 0.182 3 
0.474 -0.167 0.173 3 
0.471 -0.136 0.143 3 
0.468 0.164 0.182 3 
0.468 0.153 0.182 3 
0.461 0.202 0.142 3 
0.47 0.142 0.182 3 
0.47 0.134 0.182 3 
0.477 -0.276 0.122 3 
0.47 0.122 0.182 3 
0.469 0.191 0.183 3 
0.47 0.103 0.181 3 
0.461 0.107 0.063 3 
0.487 -0.045 0.188 3 
0.476 -0.046 0.183 3 
0.474 -0.051 0.182 3 
0.468 -0.055 0.063 3 
0.475 -0.057 0.183 3 
0.476 -0.065 0.183 3 
0.464 0.032 0.052 3 
0.476 -0.077 0.183 3 
0.473 -0.107 0.186 3 
0.276 0.104 0.106 3 
0.474 0.234 0.189 3 
0.47 0.111 0.184 3 
0.471 0.092 0.184 3 
0.471 0.083 0.184 3 
0.471 0.067 0.184 3 
0.47 0.064 0.184 3 
0.466 0.052 0.182 3 
0.474 -0.093 0.186 3 
0.473 -0.095 0.185 3 
0.474 -0.082 0.183 3 
0.48 -0.228 0.192 3 
0.48 -0.237 0.192 3 
0.48 -0.247 0.192 3 
0.481 -0.256 0.193 3 
0.467 -0.077 0.074 3 
0.481 -0.266 0.193 3 
0.484 -0.275 0.195 3 
0.471 0.21 0.184 3 
0.324 0.034 0.021 3 
0.47 0.203 0.184 3 
0.475 -0.165 0.182 3 
0.456 0.048 0.173 3 
0.473 -0.266 0.052 3 
0.465 0.174 0.173 3 
0.473 -0.042 0.179 3 
0.474 -0.056 0.18 3 
0.473 -0.065 0.179 3 
0.477 -0.125 0.182 3 
0.477 -0.137 0.182 3 
0.476 -0.145 0.182 3 
0.476 -0.156 0.182 3 
0.479 -0.355 0.013 3 
0.462 0.051 0.175 3 
0.476 -0.177 0.183 3 
0.478 -0.187 0.184 3 
0.479 -0.197 0.184 3 
0.32 0.037 0.024 3 
0.478 -0.205 0.184 3 
0.463 0.073 0.124 3 
0.489 -0.306 0.192 3 
0.489 -0.316 0.193 3 
0.489 -0.327 0.193 3 
0.472 -0.196 0.052 3 
0.487 -0.287 0.194 3 
0.475 -0.087 0.183 3 
0.465 0.229 0.163 3 
0.474 -0.09 0.183 3 
0.475 -0.096 0.183 3 
0.474 -0.098 0.183 3 
0.474 -0.107 0.183 3 
0.476 -0.116 0.184 3 
0.484 -0.275 0.192 3 
0.475 -0.249 0.084 3 
0.485 -0.279 0.192 3 
0.274 0.104 0.105 3 
0.45 0.013 0.078 3 
0.474 -0.236 0.013 3 
0.488 -0.295 0.194 3 
0.473 -0.205 0.044 3 
0.474 0.252 0.184 3 
0.467 0.243 0.181 3 
0.485 -0.314 0.157 3 
0.47 0.233 0.182 3 
0.472 0.223 0.182 3 
0.461 0.083 0.073 3 
0.471 0.084 0.187 3 
0.47 0.163 0.189 3 
0.469 0.154 0.188 3 
0.471 0.143 0.188 3 
0.471 0.134 0.188 3 
0.459 0.064 0.113 3 
0.473 0.124 0.189 3 
0.472 0.073 0.188 3 
0.473 0.112 0.188 3 
0.472 0.103 0.188 3 
0.473 0.093 0.188 3 
0.285 0.074 0.034 3 
0.471 0.064 0.187 3 
0.466 0.052 0.185 3 
0.467 -0.077 0.034 3 
0.486 -0.325 0.143 3 
0.481 -0.044 0.191 3 
0.474 -0.046 0.188 3 
0.477 -0.051 0.189 3 
0.475 -0.057 0.188 3 
0.474 -0.208 0.154 3 
0.478 -0.066 0.19 3 
0.476 0.245 0.193 3 
0.244 0.091 0.094 3 
0.472 -0.117 0.143 3 
0.245 0.092 0.094 3 
0.247 0.091 0.095 3 
0.475 -0.28 0.012 3 
0.255 0.092 0.098 3 
0.261 0.095 0.1 3 
0.281 0.11 0.109 3 
0.471 0.247 0.191 3 
0.471 0.244 0.191 3 
0.467 -0.126 0.012 3 
0.485 -0.338 0.134 3 
0.475 0.234 0.193 3 
0.474 0.221 0.192 3 
0.469 -0.036 0.144 3 
0.471 0.21 0.19 3 
0.477 -0.298 0.023 3 
0.471 0.204 0.19 3 
0.472 0.193 0.19 3 
0.472 0.184 0.19 3 
0.47 0.174 0.189 3 
0.482 -0.267 0.197 3 
0.252 0.099 0.054 3 
0.482 -0.202 0.195 3 
0.48 -0.207 0.194 3 
0.474 -0.127 0.172 3 
0.48 -0.216 0.194 3 
0.48 -0.225 0.195 3 
0.261 0.084 0.077 3 
0.439 -0.04 0.092 3 
0.481 -0.235 0.195 3 
0.479 -0.246 0.195 3 
0.481 -0.256 0.196 3 
0.482 -0.196 0.194 3 
0.485 -0.276 0.198 3 
0.473 -0.197 0.142 3 
0.489 -0.289 0.201 3 
0.49 -0.297 0.201 3 
0.471 -0.175 0.052 3 
0.49 -0.307 0.202 3 
0.491 -0.315 0.203 3 
0.491 -0.326 0.203 3 
0.491 -0.337 0.204 3 
0.266 0.098 0.101 3 
0.471 -0.037 0.153 3 
0.479 -0.077 0.19 3 
0.47 -0.045 0.153 3 
0.477 -0.085 0.19 3 
0.477 -0.097 0.19 3 
0.477 -0.105 0.19 3 
0.478 -0.117 0.191 3 
0.447 0.089 0.065 3 
0.483 -0.355 0.049 3 
0.322 0.043 0.014 3 
0.479 -0.126 0.191 3 
0.49 -0.335 0.194 3 
0.479 -0.135 0.191 3 
0.461 0.093 0.103 3 
0.481 -0.316 0.103 3 
0.479 -0.146 0.192 3 
0.478 -0.155 0.192 3 
0.477 -0.166 0.191 3 
0.467 -0.066 0.074 3 
0.478 -0.175 0.192 3 
0.481 -0.186 0.194 3 
0.483 -0.193 0.195 3 
0.468 0.093 0.164 3 
0.463 0.173 0.164 3 
0.465 0.165 0.164 3 
0.465 0.162 0.164 3 
0.466 0.154 0.164 3 
0.311 0.093 0.025 3 
0.467 0.143 0.164 3 
0.467 0.132 0.164 3 
0.468 0.124 0.164 3 
0.467 0.112 0.164 3 
0.478 -0.315 0.014 3 
0.466 0.104 0.163 3 
0.464 0.176 0.164 3 
0.468 0.082 0.164 3 
0.467 0.074 0.163 3 
0.474 -0.289 0.09 3 
0.471 -0.042 0.164 3 
0.471 -0.048 0.164 3 
0.47 -0.056 0.164 3 
0.47 -0.067 0.164 3 
0.474 -0.184 0.168 3 
0.474 -0.187 0.168 3 
0.474 -0.196 0.168 3 
0.475 -0.24 0.01 3 
0.462 0.057 0.164 3 
0.46 0.051 0.163 3 
0.475 -0.197 0.171 3 
0.476 -0.206 0.172 3 
0.478 -0.217 0.173 3 
0.473 -0.166 0.164 3 
0.475 -0.216 0.151 3 
0.477 -0.225 0.173 3 
0.461 0.064 0.092 3 
0.465 0.062 0.141 3 
0.479 -0.238 0.174 3 
0.48 -0.245 0.174 3 
0.473 -0.205 0.083 3 
0.483 -0.286 0.177 3 
0.484 -0.297 0.178 3 
0.488 -0.347 0.181 3 
0.464 0.228 0.165 3 
0.464 0.208 0.165 3 
0.465 0.179 0.164 3 
0.47 -0.116 0.123 3 
0.487 -0.335 0.174 3 
0.473 -0.106 0.163 3 
0.472 -0.117 0.163 3 
0.472 -0.126 0.163 3 
0.472 -0.137 0.163 3 
0.472 -0.145 0.163 3 
0.473 -0.157 0.164 3 
0.483 -0.306 0.172 3 
0.475 -0.237 0.103 3 
0.485 -0.318 0.173 3 
0.265 0.078 0.064 3 
0.486 -0.326 0.173 3 
0.266 0.093 0.093 3 
0.462 0.221 0.159 3 
0.464 0.202 0.159 3 
0.465 -0.052 0.004 3 
0.479 -0.286 0.164 3 
0.473 -0.175 0.162 3 
0.473 -0.186 0.162 3 
0.469 -0.105 0.104 3 
0.473 -0.256 0.052 3 
0.466 -0.036 0.044 3 
0.464 0.225 0.162 3 
0.48 -0.255 0.172 3 
0.481 -0.265 0.172 3 
0.459 0.103 0.084 3 
0.482 -0.275 0.173 3 
0.482 -0.285 0.173 3 
0.482 -0.295 0.174 3 
0.483 -0.306 0.175 3 
0.484 -0.318 0.175 3 
0.474 -0.186 0.094 3 
0.266 0.096 0.094 3 
0.472 -0.147 0.044 3 
0.465 0.223 0.163 3 
0.464 0.213 0.162 3 
0.478 -0.315 0.043 3 
0.465 0.202 0.162 3 
0.466 0.194 0.162 3 
0.464 0.068 0.16 3 
0.472 -0.226 0.033 3 
0.471 -0.075 0.162 3 
0.473 -0.087 0.163 3 
0.473 -0.095 0.163 3 
0.478 -0.306 0.073 3 
0.468 0.144 0.173 3 
0.469 0.133 0.173 3 
0.477 -0.245 0.153 3 
0.469 0.122 0.173 3 
0.472 -0.095 0.143 3 
0.468 0.113 0.172 3 
0.468 0.102 0.172 3 
0.469 0.094 0.173 3 
0.468 0.083 0.172 3 
0.468 0.074 0.172 3 
0.454 0.047 0.167 3 
0.467 0.152 0.173 3 
0.473 -0.042 0.173 3 
0.474 -0.045 0.174 3 
0.475 -0.048 0.174 3 
0.473 -0.056 0.174 3 
0.473 -0.065 0.174 3 
0.473 -0.076 0.174 3 
0.473 -0.087 0.174 3 
0.473 -0.095 0.174 3 
0.473 -0.106 0.174 3 
0.478 -0.226 0.182 3 
0.255 0.092 0.094 3 
0.463 -0.057 0.09 3 
0.467 0.058 0.174 3 
0.464 0.204 0.154 3 
0.474 -0.115 0.178 3 
0.474 -0.144 0.178 3 
0.474 -0.167 0.179 3 
0.478 -0.217 0.182 3 
0.471 -0.175 0.074 3 
0.474 -0.129 0.175 3 
0.479 -0.236 0.183 3 
0.482 -0.247 0.184 3 
0.482 -0.257 0.184 3 
0.279 0.107 0.103 3 
0.444 0.08 0.1 3 
0.468 0.202 0.174 3 
0.468 0.193 0.174 3 
0.467 0.184 0.174 3 
0.465 0.163 0.172 3 
0.469 -0.096 0.052 3 
0.305 0.061 0.065 3 
0.475 -0.04 0.171 3 
0.473 -0.115 0.172 3 
0.475 -0.121 0.172 3 
0.486 -0.336 0.143 3 
0.474 -0.135 0.172 3 
0.474 -0.147 0.173 3 
0.473 -0.155 0.172 3 
0.475 -0.173 0.174 3 
0.454 0.047 0.164 3 
0.475 -0.176 0.174 3 
0.476 -0.186 0.174 3 
0.465 -0.087 0.012 3 
0.484 -0.277 0.18 3 
0.486 -0.306 0.182 3 
0.486 -0.316 0.182 3 
0.486 -0.327 0.183 3 
0.476 -0.297 0.064 3 
0.487 -0.335 0.184 3 
0.262 0.095 0.094 3 
0.276 0.104 0.1 3 
0.474 -0.15 0.175 3 
0.474 -0.155 0.176 3 
0.483 -0.267 0.182 3 
0.485 -0.278 0.183 3 
0.486 -0.286 0.184 3 
0.465 0.054 0.052 3 
0.486 -0.296 0.184 3 
0.489 -0.345 0.188 3 
0.466 -0.007 0.044 3 
0.258 0.084 0.074 3 
0.465 0.238 0.172 3 
0.474 -0.257 0.072 3 
0.467 0.231 0.172 3 
0.461 -0.046 0.092 3 
0.468 0.223 0.172 3 
0.467 0.213 0.172 3 
0.464 0.173 0.17 3 
0.459 0.123 0.166 3 
0.464 0.057 0.168 3 
0.478 -0.306 0.064 3 
0.467 -0.085 0.044 3 
0.466 0.059 0.044 3 
0.468 0.054 0.044 3 
0.466 0.043 0.044 3 
0.465 0.032 0.044 3 
0.465 0.024 0.044 3 
0.466 0.014 0.044 3 
0.467 0.003 0.044 3 
0.466 -0.015 0.044 3 
0.466 -0.025 0.044 3 
0.467 -0.047 0.044 3 
0.466 -0.066 0.044 3 
0.462 0.064 0.047 3 
0.47 -0.096 0.044 3 
0.47 -0.105 0.044 3 
0.469 -0.115 0.044 3 
0.469 -0.135 0.044 3 
0.472 -0.156 0.044 3 
0.473 -0.176 0.044 3 
0.473 -0.185 0.044 3 
0.473 -0.197 0.044 3 
0.472 -0.216 0.044 3 
0.473 -0.226 0.044 3 
0.473 -0.235 0.044 3 
0.475 -0.287 0.052 3 
0.478 -0.295 0.052 3 
0.478 -0.305 0.052 3 
0.478 -0.315 0.052 3 
0.48 -0.327 0.052 3 
0.481 -0.338 0.052 3 
0.255 0.095 0.055 3 
0.264 0.078 0.054 3 
0.265 0.078 0.054 3 
0.473 -0.247 0.044 3 
0.306 0.048 0.054 3 
0.476 0.072 0.049 3 
0.464 0.022 0.05 3 
0.255 0.095 0.054 3 
0.255 0.094 0.054 3 
0.316 0.048 0.052 3 
0.452 0.064 0.047 3 
0.465 -0.025 0.034 3 
0.48 -0.355 0.034 3 
0.332 0.046 0.044 3 
0.441 0.047 0.035 3 
0.463 0.04 0.034 3 
0.465 0.038 0.034 3 
0.464 0.032 0.034 3 
0.465 0.024 0.034 3 
0.465 0.014 0.034 3 
0.466 -0.007 0.034 3 
0.466 -0.015 0.034 3 
0.479 -0.336 0.034 3 
0.467 -0.055 0.034 3 
0.47 -0.116 0.033 3 
0.468 -0.126 0.033 3 
0.469 -0.135 0.033 3 
0.47 -0.146 0.033 3 
0.471 -0.155 0.033 3 
0.471 -0.175 0.033 3 
0.472 -0.187 0.033 3 
0.472 -0.196 0.033 3 
0.473 -0.205 0.033 3 
0.329 0.048 0.047 3 
0.472 -0.265 0.044 3 
0.475 -0.283 0.044 3 
0.478 -0.305 0.043 3 
0.479 -0.326 0.043 3 
0.483 -0.355 0.043 3 
0.462 0.061 0.042 3 
0.464 0.046 0.042 3 
0.464 0.027 0.042 3 
0.311 0.044 0.048 3 
0.475 -0.28 0.052 3 
0.475 -0.276 0.027 3 
0.464 0.043 0.039 3 
0.469 -0.107 0.033 3 
0.479 -0.326 0.034 3 
0.474 -0.236 0.064 3 
0.469 -0.126 0.063 3 
0.47 -0.135 0.063 3 
0.471 -0.147 0.063 3 
0.471 -0.155 0.063 3 
0.257 0.105 0.046 3 
0.471 -0.166 0.063 3 
0.472 -0.176 0.063 3 
0.472 -0.187 0.063 3 
0.473 -0.205 0.064 3 
0.472 -0.216 0.064 3 
0.474 -0.227 0.064 3 
0.315 0.044 0.045 3 
0.269 0.084 0.044 3 
0.474 -0.245 0.064 3 
0.474 -0.257 0.064 3 
0.474 -0.267 0.064 3 
0.475 -0.271 0.064 3 
0.474 -0.276 0.064 3 
0.475 -0.286 0.064 3 
0.48 -0.317 0.064 3 
0.48 -0.327 0.064 3 
0.48 -0.337 0.064 3 
0.42 0.082 0.06 3 
0.466 -0.036 0.063 3 
0.463 0.053 0.063 3 
0.463 0.043 0.063 3 
0.464 0.032 0.063 3 
0.481 -0.346 0.043 3 
0.465 0.024 0.063 3 
0.465 0.014 0.063 3 
0.464 0.011 0.063 3 
0.464 0.003 0.063 3 
0.465 -0.007 0.063 3 
0.46 0.072 0.092 3 
0.467 -0.025 0.063 3 
0.452 0.085 0.06 3 
0.468 -0.047 0.063 3 
0.468 -0.066 0.063 3 
0.468 -0.077 0.063 3 
0.272 0.094 0.034 3 
0.469 -0.085 0.063 3 
0.469 -0.096 0.063 3 
0.335 0.033 0.024 3 
0.468 -0.107 0.063 3 
0.469 -0.115 0.063 3 
0.483 -0.348 0.052 3 
0.469 -0.115 0.052 3 
0.466 0.014 0.052 3 
0.466 0.003 0.052 3 
0.466 -0.015 0.052 3 
0.467 -0.025 0.052 3 
0.466 -0.036 0.052 3 
0.467 -0.047 0.052 3 
0.466 -0.055 0.052 3 
0.467 -0.066 0.052 3 
0.467 -0.085 0.052 3 
0.469 -0.107 0.052 3 
0.465 0.024 0.052 3 
0.468 -0.126 0.052 3 
0.47 -0.135 0.052 3 
0.471 -0.166 0.052 3 
0.471 -0.187 0.052 3 
0.472 -0.205 0.052 3 
0.471 -0.216 0.052 3 
0.473 -0.226 0.052 3 
0.474 -0.236 0.052 3 
0.474 -0.245 0.052 3 
0.474 -0.276 0.052 3 
0.488 0.081 0.055 3 
0.454 0.083 0.06 3 
0.465 0.051 0.06 3 
0.465 0.003 0.06 3 
0.405 0.08 0.057 3 
0.479 0.087 0.057 3 
0.467 0.073 0.057 3 
0.464 0.024 0.058 3 
0.483 -0.355 0.058 3 
0.479 0.082 0.055 3 
0.473 -0.217 0.033 3 
0.465 0.003 0.034 3 
0.475 -0.243 0.055 3 
0.458 0.071 0.052 3 
0.468 0.071 0.052 3 
0.465 0.062 0.052 3 
0.465 0.043 0.052 3 
0.464 0.035 0.052 3 
0.465 0.027 0.052 3 
0.299 0.059 0.034 3 
0.464 -0.076 0.013 3 
0.465 -0.079 0.012 3 
0.467 -0.106 0.012 3 
0.467 -0.115 0.012 3 
0.475 -0.249 0.01 3 
0.307 0.051 0.034 3 
0.309 0.044 0.034 3 
0.465 -0.073 0.01 3 
0.48 -0.338 0.004 3 
0.482 -0.355 0.004 3 
0.464 -0.065 0.013 3 
0.465 -0.025 0.007 3 
0.465 -0.052 0.007 3 
0.305 0.056 0.032 3 
0.466 -0.015 0.004 3 
0.466 -0.025 0.004 3 
0.464 -0.036 0.004 3 
0.466 -0.055 0.004 3 
0.466 -0.066 0.004 3 
0.468 -0.115 0.004 3 
0.283 0.093 0.034 3 
0.481 -0.346 0.004 3 
0.469 -0.157 0.014 3 
0.469 -0.166 0.014 3 
0.469 -0.177 0.014 3 
0.471 -0.187 0.014 3 
0.471 -0.196 0.014 3 
0.471 -0.216 0.013 3 
0.471 -0.225 0.013 3 
0.474 -0.245 0.013 3 
0.474 -0.257 0.013 3 
0.474 -0.276 0.012 3 
0.475 -0.286 0.012 3 
0.285 0.093 0.034 3 
0.335 0.038 0.032 3 
0.465 -0.015 0.012 3 
0.464 -0.02 0.012 3 
0.464 -0.025 0.012 3 
0.463 -0.036 0.013 3 
0.464 -0.047 0.012 3 
0.464 -0.055 0.012 3 
0.465 -0.057 0.012 3 
0.344 0.01 0.014 3 
0.265 0.105 0.033 3 
0.304 0.105 0.024 3 
0.345 0.03 0.019 3 
0.292 0.103 0.024 3 
0.275 0.106 0.026 3 
0.282 0.103 0.024 3 
0.289 0.105 0.023 3 
0.278 0.106 0.024 3 
0.323 0.034 0.014 3 
0.274 0.116 0.023 3 
0.322 0.062 0.025 3 
0.284 0.077 0.034 3 
0.285 0.076 0.034 3 
0.333 0.034 0.026 3 
0.464 -0.046 0.002 3 
0.279 0.095 0.034 3 
0.285 0.096 0.033 3 
0.295 0.067 0.031 3 
0.271 0.096 0.034 3 
0.297 0.101 0.029 3 
0.306 0.103 0.027 3 
0.469 -0.146 0.014 3 
0.315 0.054 0.026 3 
0.326 0.034 0.024 3 
0.34 0.014 0.022 3 
0.264 0.107 0.034 3 
0.311 0.106 0.025 3 
0.319 0.104 0.023 3 
0.317 0.067 0.024 3 
0.327 0.068 0.022 3 
0.342 0.003 0.013 3 
0.319 0.057 0.024 3 
0.475 -0.286 0.024 3 
0.464 -0.025 0.026 3 
0.473 -0.209 0.024 3 
0.473 -0.217 0.024 3 
0.472 -0.226 0.024 3 
0.474 -0.255 0.024 3 
0.476 -0.265 0.024 3 
0.475 -0.276 0.024 3 
0.474 -0.279 0.024 3 
0.477 -0.307 0.023 3 
0.477 -0.317 0.023 3 
0.479 -0.326 0.023 3 
0.481 -0.339 0.022 3 
0.481 -0.346 0.022 3 
0.48 -0.356 0.022 3 
0.273 0.073 0.044 3 
0.325 0.041 0.039 3 
0.474 -0.236 0.033 3 
0.473 -0.247 0.033 3 
0.474 -0.257 0.032 3 
0.473 -0.266 0.032 3 
0.474 -0.275 0.032 3 
0.475 -0.286 0.032 3 
0.477 -0.297 0.032 3 
0.478 -0.308 0.032 3 
0.265 0.085 0.048 3 
0.312 0.043 0.044 3 
0.322 0.045 0.043 3 
0.36 0.05 0.04 3 
0.306 0.065 0.028 3 
0.41 0.044 0.036 3 
0.475 -0.27 0.029 3 
0.474 -0.285 0.029 3 
0.305 0.046 0.044 3 
0.316 0.043 0.043 3 
0.464 -0.06 0.018 3 
0.472 -0.196 0.022 3 
0.475 -0.261 0.021 3 
0.259 0.104 0.044 3 
0.263 0.089 0.044 3 
0.265 0.089 0.044 3 
0.464 -0.036 0.02 3 
0.464 -0.065 0.02 3 
0.474 -0.269 0.018 3 
0.258 0.106 0.044 3 
0.363 0.042 0.031 3 
0.471 -0.187 0.022 3 
0.477 -0.301 0.014 3 
0.478 -0.305 0.014 3 
0.48 -0.328 0.014 3 
0.48 -0.338 0.013 3 
0.48 -0.345 0.013 3 
0.275 0.075 0.041 3 
0.329 0.039 0.034 3 
0.464 -0.047 0.015 3 
0.468 -0.143 0.014 3 
0.465 -0.055 0.023 3 
0.456 0.034 0.024 3 
0.466 0.032 0.023 3 
0.466 0.024 0.023 3 
0.466 0.003 0.023 3 
0.466 -0.007 0.023 3 
0.465 -0.015 0.023 3 
0.464 -0.025 0.023 3 
0.465 -0.033 0.023 3 
0.465 -0.036 0.023 3 
0.465 -0.047 0.023 3 
0.466 -0.015 0.063 3 
0.466 -0.076 0.023 3 
0.467 -0.095 0.023 3 
0.468 -0.107 0.023 3 
0.469 -0.115 0.023 3 
0.467 -0.126 0.023 3 
0.467 -0.137 0.023 3 
0.469 -0.146 0.022 3 
0.47 -0.155 0.022 3 
0.47 -0.166 0.022 3 
0.469 -0.177 0.022 3 
0.472 -0.176 0.094 3 
0.506 -0.09 0.097 3 
0.468 -0.093 0.093 3 
0.468 -0.096 0.093 3 
0.468 -0.107 0.093 3 
0.469 -0.116 0.093 3 
0.469 -0.127 0.093 3 
0.469 -0.135 0.093 3 
0.471 -0.147 0.094 3 
0.471 -0.155 0.094 3 
0.472 -0.167 0.094 3 
0.467 -0.077 0.052 3 
0.473 -0.197 0.094 3 
0.474 -0.206 0.094 3 
0.474 -0.273 0.095 3 
0.248 0.095 0.067 3 
0.474 -0.295 0.09 3 
0.31 0.074 0.073 3 
0.492 0.139 0.093 3 
0.478 0.13 0.091 3 
0.458 0.103 0.089 3 
0.474 -0.26 0.084 3 
0.456 0.11 0.094 3 
0.461 0.064 0.095 3 
0.449 0.059 0.093 3 
0.44 0.052 0.092 3 
0.512 -0.026 0.089 3 
0.471 -0.034 0.096 3 
0.463 -0.038 0.095 3 
0.451 -0.039 0.093 3 
0.485 -0.35 0.101 3 
0.461 0.093 0.089 3 
0.467 -0.055 0.044 3 
0.459 0.053 0.092 3 
0.468 0.076 0.052 3 
0.508 -0.023 0.097 3 
0.499 -0.028 0.096 3 
0.471 -0.028 0.093 3 
0.465 -0.036 0.092 3 
0.453 -0.05 0.091 3 
0.436 -0.064 0.089 3 
0.465 -0.047 0.087 3 
0.482 -0.327 0.094 3 
0.482 -0.337 0.094 3 
0.484 -0.345 0.094 3 
0.366 0.096 0.077 3 
0.456 0.044 0.086 3 
0.466 0.014 0.023 3 
0.298 0.104 0.024 3 
0.524 -0.027 0.093 3 
0.503 -0.028 0.091 3 
0.481 -0.315 0.094 3 
0.464 -0.076 0.087 3 
0.465 -0.081 0.087 3 
0.475 -0.252 0.089 3 
0.473 -0.196 0.064 3 
0.476 -0.287 0.044 3 
0.475 -0.268 0.09 3 
0.468 -0.126 0.044 3 
0.451 0.111 0.083 3 
0.457 0.111 0.084 3 
0.474 -0.227 0.092 3 
0.462 0.083 0.089 3 
0.539 -0.025 0.098 3 
0.527 -0.027 0.096 3 
0.444 0.08 0.057 3 
0.514 -0.029 0.095 3 
0.462 -0.065 0.089 3 
0.465 -0.068 0.09 3 
0.501 -0.085 0.094 3 
0.514 -0.095 0.095 3 
0.473 -0.217 0.092 3 
0.459 0.119 0.094 3 
0.474 -0.236 0.092 3 
0.474 -0.257 0.092 3 
0.475 -0.264 0.092 3 
0.474 -0.267 0.092 3 
0.475 -0.277 0.092 3 
0.475 -0.296 0.093 3 
0.317 0.106 0.024 3 
0.48 -0.308 0.093 3 
0.481 -0.066 0.106 3 
0.462 0.148 0.103 3 
0.461 0.142 0.103 3 
0.461 0.134 0.103 3 
0.462 0.123 0.103 3 
0.46 0.112 0.102 3 
0.46 0.104 0.102 3 
0.429 0.074 0.098 3 
0.468 -0.096 0.034 3 
0.502 -0.067 0.109 3 
0.296 0.078 0.078 3 
0.466 -0.076 0.044 3 
0.494 -0.072 0.108 3 
0.467 -0.068 0.104 3 
0.465 -0.076 0.103 3 
0.469 -0.085 0.104 3 
0.47 -0.097 0.104 3 
0.469 -0.116 0.104 3 
0.468 -0.126 0.104 3 
0.469 -0.135 0.104 3 
0.48 -0.345 0.034 3 
0.476 -0.275 0.113 3 
0.275 0.086 0.039 3 
0.478 -0.286 0.113 3 
0.481 -0.296 0.114 3 
0.481 -0.306 0.114 3 
0.481 -0.316 0.114 3 
0.265 0.082 0.074 3 
0.472 -0.156 0.052 3 
0.454 0.078 0.104 3 
0.421 0.067 0.099 3 
0.473 -0.235 0.024 3 
0.473 -0.176 0.102 3 
0.504 -0.059 0.112 3 
0.483 -0.328 0.112 3 
0.474 -0.245 0.084 3 
0.483 -0.335 0.112 3 
0.484 -0.347 0.113 3 
0.474 -0.245 0.024 3 
0.275 0.076 0.074 3 
0.474 -0.236 0.1 3 
0.475 -0.246 0.104 3 
0.474 -0.248 0.103 3 
0.474 -0.257 0.104 3 
0.475 -0.261 0.104 3 
0.476 -0.278 0.104 3 
0.276 0.074 0.073 3 
0.286 0.074 0.074 3 
0.295 0.073 0.075 3 
0.307 0.077 0.077 3 
0.5 -0.085 0.103 3 
0.474 -0.227 0.103 3 
0.476 -0.288 0.101 3 
0.478 -0.296 0.102 3 
0.48 -0.308 0.102 3 
0.481 -0.326 0.103 3 
0.483 -0.338 0.103 3 
0.483 -0.345 0.103 3 
0.273 0.074 0.071 3 
0.295 0.072 0.074 3 
0.459 0.128 0.094 3 
0.472 -0.167 0.102 3 
0.469 -0.146 0.104 3 
0.485 -0.348 0.11 3 
0.287 0.073 0.075 3 
0.32 0.089 0.08 3 
0.325 0.09 0.081 3 
0.449 0.102 0.065 3 
0.452 0.093 0.099 3 
0.441 0.087 0.097 3 
0.475 -0.067 0.102 3 
0.471 -0.155 0.102 3 
0.462 0.074 0.063 3 
0.473 -0.185 0.102 3 
0.473 -0.197 0.103 3 
0.473 -0.205 0.103 3 
0.475 -0.213 0.103 3 
0.475 -0.216 0.103 3 
0.474 -0.218 0.103 3 
0.475 -0.225 0.103 3 
0.48 -0.337 0.043 3 
0.467 -0.015 0.074 3 
0.462 0.094 0.073 3 
0.462 0.072 0.073 3 
0.463 0.053 0.073 3 
0.464 0.043 0.073 3 
0.463 0.032 0.073 3 
0.462 0.024 0.073 3 
0.462 0.014 0.073 3 
0.463 0.003 0.074 3 
0.465 -0.004 0.074 3 
0.466 -0.007 0.074 3 
0.459 0.101 0.073 3 
0.467 -0.025 0.074 3 
0.414 0.045 0.038 3 
0.466 -0.036 0.074 3 
0.467 -0.047 0.074 3 
0.468 -0.055 0.074 3 
0.468 -0.085 0.074 3 
0.468 -0.096 0.074 3 
0.343 0.003 0.021 3 
0.468 -0.107 0.074 3 
0.468 -0.115 0.074 3 
0.472 -0.015 0.079 3 
0.474 -0.292 0.081 3 
0.48 -0.318 0.082 3 
0.482 -0.326 0.082 3 
0.483 -0.337 0.082 3 
0.483 -0.348 0.082 3 
0.268 0.074 0.064 3 
0.318 0.069 0.067 3 
0.469 -0.126 0.074 3 
0.443 0.115 0.075 3 
0.461 0.024 0.076 3 
0.464 0.003 0.076 3 
0.483 -0.355 0.079 3 
0.439 0.111 0.072 3 
0.432 0.106 0.072 3 
0.46 0.093 0.084 3 
0.465 0.016 0.066 3 
0.484 -0.345 0.073 3 
0.447 0.109 0.068 3 
0.46 0.106 0.068 3 
0.475 0.1 0.069 3 
0.465 0.008 0.068 3 
0.475 -0.234 0.069 3 
0.474 -0.267 0.069 3 
0.474 -0.276 0.069 3 
0.439 0.101 0.065 3 
0.423 0.091 0.064 3 
0.481 -0.335 0.073 3 
0.475 -0.237 0.067 3 
0.468 -0.085 0.034 3 
0.306 0.054 0.06 3 
0.459 0.103 0.063 3 
0.427 0.09 0.062 3 
0.439 0.091 0.062 3 
0.474 0.092 0.063 3 
0.463 0.086 0.063 3 
0.462 0.082 0.063 3 
0.463 0.064 0.063 3 
0.472 -0.216 0.072 3 
0.47 -0.135 0.074 3 
0.472 -0.147 0.074 3 
0.471 -0.155 0.074 3 
0.471 -0.166 0.074 3 
0.306 0.059 0.064 3 
0.463 0.115 0.071 3 
0.472 -0.187 0.072 3 
0.473 -0.196 0.072 3 
0.472 -0.205 0.072 3 
0.465 0.105 0.074 3 
0.474 -0.227 0.072 3 
0.473 -0.235 0.072 3 
0.473 -0.247 0.072 3 
0.475 -0.267 0.072 3 
0.475 -0.277 0.072 3 
0.475 -0.286 0.072 3 
0.476 -0.297 0.073 3 
0.48 -0.317 0.073 3 
0.481 -0.328 0.073 3 
0.468 -0.025 0.082 3 
0.466 -0.055 0.082 3 
0.466 -0.065 0.082 3 
0.466 -0.076 0.082 3 
0.468 -0.096 0.082 3 
0.469 -0.107 0.082 3 
0.464 -0.023 0.018 3 
0.468 -0.115 0.082 3 
0.468 -0.126 0.082 3 
0.472 -0.147 0.083 3 
0.465 -0.036 0.034 3 
0.472 -0.156 0.083 3 
0.472 -0.167 0.083 3 
0.472 -0.176 0.083 3 
0.473 -0.188 0.083 3 
0.473 -0.197 0.083 3 
0.472 -0.216 0.083 3 
0.473 -0.226 0.083 3 
0.474 -0.236 0.083 3 
0.475 -0.255 0.084 3 
0.466 -0.055 0.085 3 
0.461 0.083 0.084 3 
0.462 0.072 0.084 3 
0.462 0.064 0.084 3 
0.463 0.053 0.084 3 
0.454 0.042 0.083 3 
0.519 -0.02 0.089 3 
0.475 -0.026 0.085 3 
0.466 -0.036 0.084 3 
0.465 -0.047 0.084 3 
0.467 -0.085 0.082 3 
0.475 -0.228 0.086 3 
0.483 -0.355 0.088 3 
0.249 0.096 0.064 3 
0.25 0.094 0.064 3 
0.371 0.093 0.074 3 
0.46 0.042 0.081 3 
0.44 0.035 0.08 3 
0.5 -0.016 0.084 3 
0.474 -0.267 0.084 3 
0.47 0.113 0.079 3 
0.459 0.034 0.078 3 
0.452 0.026 0.078 3 
0.449 0.023 0.078 3 
0.456 0.008 0.078 3 
0.295 0.064 0.067 3 
0.257 0.084 0.064 3 
0.255 0.087 0.064 3 
0.479 -0.307 0.084 3 
0.477 -0.298 0.084 3 
0.48 0.001 0.08 3 
0.47 0.003 0.079 3 
0.501 -0.004 0.082 3 
0.504 -0.007 0.082 3 
0.506 -0.011 0.082 3 
0.476 -0.287 0.084 3 
0.475 -0.277 0.084 3 
0.475 -0.271 0.084 3 
0.285 0.014 0.108 3 
0.359 -0.021 0.089 3 
0.305 0 0.094 3 
0.315 -0.004 0.096 3 
0.339 0.022 0.078 3 
0.36 -0.001 0.08 3 
0.307 -0.003 0.095 3 
0.295 0.014 0.1 3 
0.293 0.021 0.111 3 
0.325 0.023 0.087 3 
0.306 0.021 0.104 3 
0.281 0.012 0.106 3 
0.285 0 0.105 3 
0.279 0.004 0.105 3 
0.346 0 0.08 3 
0.319 0.033 0.082 3 
0.391 0.055 0.094 3 
0.372 0.048 0.091 3 
0.282 0.016 0.105 3 
0.338 -0.016 0.087 3 
0.341 -0.013 0.087 3 
0.326 0.036 0.083 3 
0.349 -0.012 0.089 3 
0.321 0.004 0.084 3 
0.31 -0.008 0.081 3 
0.33 0.034 0.085 3 
0.329 0.035 0.085 3 
0.307 0.019 0.094 3 
0.314 0.031 0.081 3 
0.308 0.024 0.08 3 
0.325 0.023 0.083 3 
0.331 -0.008 0.084 3 
0.279 -0.003 0.104 3 
0.36 -0.02 0.084 3 
0.341 0 0.081 3 
0.325 0.006 0.079 3 
0.358 -0.009 0.082 3 
0.347 0.019 0.075 3 
0.357 0.029 0.095 3 
0.315 0.003 0.087 3 
0.317 0.022 0.101 3 
0.297 -0.001 0.106 3 
0.303 0.017 0.093 3 
0.316 0.022 0.092 3 
0.367 -0.022 0.088 3 
0.279 0.008 0.104 3 
0.349 0.041 0.084 3 
0.356 0.032 0.085 3 
0.351 -0.01 0.084 3 
0.346 -0.015 0.083 3 
0.297 0.004 0.094 3 
0.368 0.033 0.083 3 
0.298 0.012 0.094 3 
0.284 0.016 0.104 3 
0.341 0.036 0.084 3 
0.295 0 0.104 3 
0.315 0.008 0.084 3 
0.313 0.014 0.084 3 
0.316 0.022 0.084 3 
0.367 0.015 0.074 3 
0.37 0.013 0.074 3 
0.309 0.014 0.091 3 
0.296 0.02 0.104 3 
0.346 0.04 0.085 3 
0.285 0.004 0.104 3 
0.346 0.034 0.083 3 
0.338 0.032 0.084 3 
0.332 0.027 0.083 3 
0.327 -0.003 0.088 3 
0.316 0.007 0.086 3 
0.337 -0.008 0.083 3 
0.337 -0.016 0.084 3 
0.351 -0.019 0.086 3 
0.287 0.014 0.104 3 
0.287 0.017 0.104 3 
0.285 0.06 0.054 7 
0.295 0.055 0.054 7 
0.295 0.062 0.064 7 
0.275 0.066 0.054 7 
0.296 0.054 0.054 7 
0.293 0.063 0.034 7 
0.276 0.064 0.054 7 
0.294 0.054 0.053 7 
0.285 0.065 0.039 7 
0.285 0.06 0.044 7 
0.284 0.061 0.044 7 
0.296 0.055 0.044 7 
0.297 0.054 0.044 7 
0.276 0.068 0.064 7 
0.282 0.064 0.065 7 
0.28 0.064 0.064 7 
0.285 0.063 0.064 7 
0.275 0.07 0.044 7 
0.286 0.064 0.066 7 
