# .PCD v0.7 - Point Cloud Data file
FIELDS x y z intensity
SIZE 4 4 4 4
TYPE F F F F
COUNT 1 1 1 1
WIDTH 2451
HEIGHT 1
VIEWPOINT 0 0 0 1 0 0 0
POINTS 2451
DATA ascii
0.421 0.044 0.028 0 
0.36 0.009 0.002 0 
0.437 -0.074 0.002 0 
0.41 0.092 0 0 
0.352 0.025 0.007 0 
0.598 -0.037 0.089 0 
0.588 -0.032 0.107 0 
0.374 -0.241 -0.026 1 
0.371 -0.218 -0.023 1 
0.364 -0.167 -0.019 1 
0.364 -0.155 -0.018 1 
0.363 -0.146 -0.018 1 
0.361 -0.135 -0.017 1 
0.361 -0.126 -0.016 1 
0.361 -0.106 -0.016 1 
0.354 -0.045 -0.012 1 
0.353 -0.036 -0.012 1 
0.344 -0.025 -0.009 1 
0.334 -0.002 -0.005 1 
0.351 0.033 -0.012 1 
0.351 0.043 -0.012 1 
0.354 0.073 -0.013 1 
0.353 0.083 -0.013 1 
0.354 0.094 -0.014 1 
0.352 0.153 -0.015 1 
0.349 0.154 -0.014 1 
0.344 0.204 -0.015 1 
0.343 0.205 -0.015 1 
0.383 -0.231 -0.026 1 
0.367 -0.145 -0.017 1 
0.364 -0.098 -0.015 1 
0.362 -0.095 -0.014 1 
0.36 -0.085 -0.013 1 
0.357 -0.032 -0.012 1 
0.33 -0.009 -0.002 1 
0.344 0.01 -0.007 1 
0.359 0.073 -0.013 1 
0.353 0.11 -0.012 1 
0.36 0.117 -0.015 1 
0.356 0.122 -0.013 1 
0.353 0.124 -0.012 1 
0.352 0.132 -0.012 1 
0.352 0.171 -0.014 1 
0.353 0.174 -0.015 1 
0.354 0.183 -0.016 1 
0.351 0.194 -0.015 1 
0.348 0.21 -0.015 1 
0.384 -0.247 -0.025 1 
0.384 -0.237 -0.025 1 
0.383 -0.228 -0.024 1 
0.372 -0.186 -0.019 1 
0.373 -0.175 -0.018 1 
0.373 -0.136 -0.017 1 
0.371 -0.126 -0.016 1 
0.371 -0.115 -0.016 1 
0.372 -0.075 -0.016 1 
0.363 -0.056 -0.012 1 
0.365 -0.033 -0.013 1 
0.336 -0.027 -0.003 1 
0.343 -0.007 -0.005 1 
0.353 0.013 -0.009 1 
0.353 0.015 -0.009 1 
0.364 0.034 -0.013 1 
0.363 0.044 -0.013 1 
0.364 0.084 -0.014 1 
0.364 0.094 -0.014 1 
0.364 0.127 -0.015 1 
0.364 0.151 -0.015 1 
0.358 0.17 -0.014 1 
0.353 0.203 -0.014 1 
0.374 -0.095 -0.015 1 
0.373 -0.093 -0.014 1 
0.374 -0.085 -0.015 1 
0.369 -0.045 -0.012 1 
0.364 0.021 -0.011 1 
0.369 0.083 -0.013 1 
0.372 0.103 -0.015 1 
0.37 0.114 -0.014 1 
0.369 0.115 -0.014 1 
0.37 0.123 -0.015 1 
0.369 0.163 -0.016 1 
0.364 0.186 -0.015 1 
0.359 0.223 -0.016 1 
0.394 -0.258 -0.025 1 
0.397 -0.245 -0.025 1 
0.388 -0.226 -0.021 1 
0.384 -0.16 -0.018 1 
0.382 -0.125 -0.016 1 
0.384 -0.116 -0.017 1 
0.383 -0.105 -0.016 1 
0.38 -0.096 -0.015 1 
0.379 -0.093 -0.014 1 
0.382 -0.077 -0.015 1 
0.379 -0.056 -0.014 1 
0.375 -0.046 -0.013 1 
0.373 -0.042 -0.012 1 
0.374 0.026 -0.013 1 
0.376 0.097 -0.014 1 
0.374 0.138 -0.015 1 
0.372 0.144 -0.014 1 
0.371 0.184 -0.016 1 
0.372 0.193 -0.016 1 
0.393 -0.221 -0.02 1 
0.39 -0.196 -0.019 1 
0.392 -0.186 -0.019 1 
0.386 -0.074 -0.015 1 
0.387 -0.052 -0.015 1 
0.364 0 -0.007 1 
0.383 0.033 -0.014 1 
0.382 0.043 -0.013 1 
0.382 0.074 -0.014 1 
0.383 0.084 -0.014 1 
0.384 0.099 -0.015 1 
0.382 0.114 -0.015 1 
0.382 0.116 -0.015 1 
0.38 0.123 -0.014 1 
0.379 0.133 -0.014 1 
0.378 0.142 -0.014 1 
0.381 0.163 -0.016 1 
0.374 0.222 -0.016 1 
0.369 0.234 -0.015 1 
0.404 -0.266 -0.023 1 
0.371 0.054 -0.014 1 
0.404 -0.263 -0.023 1 
0.394 -0.156 -0.016 1 
0.394 -0.125 -0.016 1 
0.394 -0.115 -0.016 1 
0.393 -0.085 -0.015 1 
0.392 -0.078 -0.014 1 
0.393 -0.076 -0.015 1 
0.392 -0.056 -0.014 1 
0.392 -0.052 -0.014 1 
0.43 -0.058 -0.026 1 
0.3 -0.005 0.014 1 
0.39 0.085 -0.015 1 
0.389 0.103 -0.015 1 
0.389 0.114 -0.015 1 
0.383 0.154 -0.014 1 
0.383 0.156 -0.014 1 
0.384 0.173 -0.015 1 
0.413 -0.268 -0.024 1 
0.414 -0.26 -0.024 1 
0.408 -0.238 -0.021 1 
0.384 -0.215 -0.021 1 
0.403 -0.228 -0.019 1 
0.404 -0.205 -0.019 1 
0.404 -0.198 -0.019 1 
0.403 -0.166 -0.017 1 
0.4 -0.105 -0.015 1 
0.398 -0.099 -0.015 1 
0.399 -0.078 -0.015 1 
0.4 -0.053 -0.015 1 
0.44 -0.06 -0.027 1 
0.462 -0.062 -0.034 1 
0.303 -0.016 0.014 1 
0.373 0.004 -0.006 1 
0.394 0.043 -0.013 1 
0.394 0.064 -0.013 1 
0.393 0.074 -0.013 1 
0.394 0.082 -0.014 1 
0.394 0.093 -0.014 1 
0.394 0.103 -0.014 1 
0.394 0.114 -0.014 1 
0.391 0.134 -0.014 1 
0.392 0.139 -0.014 1 
0.394 0.144 -0.015 1 
0.392 0.152 -0.015 1 
0.391 0.153 -0.014 1 
0.39 0.161 -0.014 1 
0.391 0.164 -0.015 1 
0.388 0.183 -0.015 1 
0.384 0.24 -0.016 1 
0.384 0.245 -0.016 1 
0.414 -0.286 -0.022 1 
0.405 -0.227 -0.017 1 
0.404 -0.186 -0.016 1 
0.404 -0.183 -0.016 1 
0.404 -0.146 -0.015 1 
0.403 -0.137 -0.015 1 
0.403 -0.135 -0.014 1 
0.405 -0.102 -0.015 1 
0.403 -0.097 -0.014 1 
0.404 -0.093 -0.014 1 
0.406 -0.085 -0.015 1 
0.406 -0.083 -0.015 1 
0.403 -0.065 -0.014 1 
0.412 -0.054 -0.016 1 
0.303 -0.025 0.016 1 
0.381 0.004 -0.007 1 
0.354 0.136 -0.013 1 
0.383 0.016 -0.008 1 
0.4 0.044 -0.013 1 
0.401 0.053 -0.013 1 
0.4 0.063 -0.013 1 
0.399 0.074 -0.013 1 
0.384 -0.186 -0.018 1 
0.388 -0.147 -0.016 1 
0.4 0.104 -0.014 1 
0.371 -0.105 -0.016 1 
0.302 -0.025 0.013 1 
0.399 0.123 -0.014 1 
0.397 0.174 -0.015 1 
0.395 0.188 -0.015 1 
0.391 0.194 -0.014 1 
0.39 0.203 -0.014 1 
0.393 0.222 -0.015 1 
0.391 0.243 -0.016 1 
0.421 -0.297 -0.022 1 
0.36 -0.006 -0.006 1 
0.414 -0.216 -0.017 1 
0.414 -0.206 -0.017 1 
0.412 -0.197 -0.016 1 
0.414 -0.167 -0.016 1 
0.41 -0.145 -0.015 1 
0.409 -0.136 -0.014 1 
0.41 -0.134 -0.014 1 
0.413 -0.126 -0.015 1 
0.412 -0.105 -0.014 1 
0.411 -0.085 -0.014 1 
0.411 -0.076 -0.014 1 
0.411 -0.067 -0.014 1 
0.384 0.014 -0.006 1 
0.403 0.134 -0.013 1 
0.404 0.146 -0.014 1 
0.401 0.162 -0.013 1 
0.403 0.181 -0.015 1 
0.396 0.206 -0.013 1 
0.404 0.223 -0.016 1 
0.397 0.244 -0.015 1 
0.394 0.262 -0.015 1 
0.423 -0.287 -0.02 1 
0.424 -0.265 -0.019 1 
0.424 -0.237 -0.018 1 
0.422 -0.225 -0.017 1 
0.422 -0.195 -0.017 1 
0.418 -0.157 -0.015 1 
0.419 -0.065 -0.014 1 
0.42 -0.056 -0.014 1 
0.453 -0.06 -0.023 1 
0.352 -0.006 -0.007 1 
0.349 0.013 0.005 1 
0.404 0.144 -0.014 1 
0.39 0.02 -0.006 1 
0.397 0.023 -0.008 1 
0.414 0.074 -0.013 1 
0.412 0.084 -0.013 1 
0.414 0.094 -0.013 1 
0.413 0.123 -0.013 1 
0.411 0.134 -0.013 1 
0.41 0.143 -0.013 1 
0.412 0.153 -0.014 1 
0.406 0.164 -0.013 1 
0.402 0.194 -0.012 1 
0.364 0.014 -0.009 1 
0.398 -0.236 -0.022 1 
0.409 0.222 -0.015 1 
0.401 0.253 -0.014 1 
0.4 0.263 -0.015 1 
0.4 0.268 -0.015 1 
0.433 -0.277 -0.019 1 
0.424 -0.217 -0.015 1 
0.426 -0.185 -0.015 1 
0.426 -0.175 -0.015 1 
0.421 -0.157 -0.013 1 
0.42 -0.147 -0.013 1 
0.422 -0.136 -0.013 1 
0.423 -0.115 -0.013 1 
0.369 0.213 -0.016 1 
0.424 -0.106 -0.013 1 
0.424 -0.08 -0.013 1 
0.323 0.008 0.014 1 
0.381 0.021 -0.001 1 
0.39 0.024 -0.004 1 
0.402 0.03 -0.007 1 
0.419 0.124 -0.013 1 
0.361 0.164 -0.015 1 
0.414 0.172 -0.013 1 
0.414 0.194 -0.013 1 
0.412 0.212 -0.013 1 
0.414 0.232 -0.015 1 
0.413 0.244 -0.015 1 
0.412 0.246 -0.015 1 
0.41 0.254 -0.014 1 
0.409 0.273 -0.015 1 
0.41 0.28 -0.016 1 
0.434 -0.305 -0.018 1 
0.434 -0.287 -0.017 1 
0.435 -0.256 -0.017 1 
0.434 -0.246 -0.016 1 
0.435 -0.236 -0.016 1 
0.431 -0.227 -0.015 1 
0.43 -0.224 -0.014 1 
0.431 -0.215 -0.015 1 
0.432 -0.205 -0.015 1 
0.432 -0.2 -0.015 1 
0.375 -0.074 -0.015 1 
0.432 -0.197 -0.014 1 
0.431 -0.186 -0.014 1 
0.371 0.097 -0.014 1 
0.431 -0.176 -0.014 1 
0.426 -0.155 -0.012 1 
0.428 -0.146 -0.012 1 
0.431 -0.135 -0.013 1 
0.43 -0.106 -0.012 1 
0.43 -0.096 -0.012 1 
0.429 -0.086 -0.012 1 
0.431 -0.075 -0.012 1 
0.432 -0.058 -0.013 1 
0.48 -0.058 -0.025 1 
0.329 0.003 0.014 1 
0.325 0.004 0.015 1 
0.422 0.053 -0.01 1 
0.424 0.058 -0.011 1 
0.423 0.074 -0.011 1 
0.423 0.093 -0.011 1 
0.422 0.154 -0.012 1 
0.419 0.163 -0.012 1 
0.415 0.282 -0.015 1 
0.439 -0.295 -0.016 1 
0.441 -0.279 -0.016 1 
0.434 -0.255 -0.014 1 
0.434 -0.252 -0.014 1 
0.434 -0.127 -0.011 1 
0.429 0.144 -0.011 1 
0.424 0.174 -0.011 1 
0.424 0.181 -0.011 1 
0.424 0.194 -0.011 1 
0.424 0.201 -0.011 1 
0.424 0.214 -0.012 1 
0.422 0.223 -0.012 1 
0.421 0.233 -0.012 1 
0.421 0.244 -0.012 1 
0.421 0.252 -0.012 1 
0.424 0.283 -0.014 1 
0.422 0.29 -0.014 1 
0.442 -0.317 -0.015 1 
0.42 -0.206 -0.016 1 
0.448 -0.308 -0.016 1 
0.445 -0.295 -0.015 1 
0.445 -0.289 -0.015 1 
0.437 -0.255 -0.012 1 
0.444 -0.227 -0.013 1 
0.442 -0.215 -0.012 1 
0.444 -0.187 -0.012 1 
0.443 -0.175 -0.012 1 
0.442 -0.167 -0.011 1 
0.442 -0.157 -0.011 1 
0.444 -0.145 -0.012 1 
0.444 -0.137 -0.011 1 
0.443 -0.126 -0.011 1 
0.443 -0.116 -0.011 1 
0.442 -0.105 -0.011 1 
0.412 -0.096 -0.014 1 
0.442 -0.095 -0.011 1 
0.421 0.083 -0.01 1 
0.441 -0.085 -0.01 1 
0.419 -0.175 -0.015 1 
0.422 0.044 -0.006 1 
0.43 0.052 -0.008 1 
0.434 0.063 -0.009 1 
0.433 0.072 -0.009 1 
0.433 0.084 -0.009 1 
0.407 -0.059 -0.015 1 
0.433 0.094 -0.009 1 
0.434 0.116 -0.009 1 
0.434 0.154 -0.01 1 
0.433 0.164 -0.01 1 
0.43 0.172 -0.01 1 
0.429 0.182 -0.01 1 
0.43 0.214 -0.011 1 
0.428 0.223 -0.011 1 
0.428 0.264 -0.012 1 
0.43 0.272 -0.013 1 
0.43 0.284 -0.013 1 
0.424 0.295 -0.012 1 
0.451 -0.331 -0.015 1 
0.408 0.266 -0.014 1 
0.449 -0.322 -0.014 1 
0.452 -0.315 -0.015 1 
0.444 -0.27 -0.011 1 
0.444 -0.247 -0.011 1 
0.413 0.103 -0.013 1 
0.444 -0.244 -0.011 1 
0.449 -0.145 -0.01 1 
0.444 -0.083 -0.008 1 
0.374 0.184 -0.014 1 
0.444 -0.066 -0.008 1 
0.485 -0.058 -0.018 1 
0.482 -0.052 -0.017 1 
0.443 0.082 -0.009 1 
0.449 0.1 -0.01 1 
0.44 0.124 -0.009 1 
0.443 0.133 -0.009 1 
0.441 0.142 -0.009 1 
0.439 0.163 -0.009 1 
0.434 0.193 -0.009 1 
0.434 0.204 -0.009 1 
0.433 0.233 -0.009 1 
0.434 0.245 -0.01 1 
0.429 0.301 -0.011 1 
0.38 -0.205 -0.02 1 
0.454 -0.327 -0.013 1 
0.454 -0.298 -0.012 1 
0.453 -0.275 -0.011 1 
0.423 0.133 -0.012 1 
0.454 -0.267 -0.011 1 
0.451 -0.259 -0.01 1 
0.45 -0.246 -0.009 1 
0.451 -0.235 -0.009 1 
0.451 -0.225 -0.009 1 
0.451 -0.216 -0.009 1 
0.453 -0.207 -0.009 1 
0.454 -0.196 -0.01 1 
0.454 -0.185 -0.009 1 
0.454 -0.177 -0.009 1 
0.454 -0.155 -0.009 1 
0.454 -0.136 -0.009 1 
0.454 -0.128 -0.009 1 
0.453 -0.115 -0.008 1 
0.453 -0.107 -0.008 1 
0.452 -0.096 -0.008 1 
0.441 -0.206 -0.012 1 
0.45 -0.085 -0.007 1 
0.452 -0.057 -0.008 1 
0.482 -0.061 -0.015 1 
0.369 0.044 -0.013 1 
0.486 -0.053 -0.015 1 
0.353 0.142 -0.015 1 
0.441 0.054 -0.006 1 
0.444 0.068 -0.006 1 
0.446 0.093 -0.007 1 
0.425 0.089 -0.002 1 
0.419 0.091 -0.001 1 
0.443 0.173 -0.008 1 
0.442 0.183 -0.008 1 
0.441 0.193 -0.008 1 
0.44 0.203 -0.008 1 
0.44 0.244 -0.009 1 
0.439 0.281 -0.01 1 
0.381 0.184 -0.015 1 
0.41 0.095 0 1 
0.464 -0.315 -0.012 1 
0.404 -0.076 -0.014 1 
0.462 -0.297 -0.011 1 
0.457 -0.237 -0.008 1 
0.456 -0.079 -0.006 1 
0.45 -0.07 -0.005 1 
0.449 -0.067 -0.004 1 
0.449 -0.057 -0.004 1 
0.488 -0.056 -0.013 1 
0.488 -0.05 -0.013 1 
0.393 0.124 -0.014 1 
0.444 0.063 -0.004 1 
0.453 0.07 -0.006 1 
0.374 0.021 -0.011 1 
0.457 0.073 -0.007 1 
0.446 0.083 -0.004 1 
0.418 0.082 0.001 1 
0.363 -0.065 -0.014 1 
0.453 0.133 -0.007 1 
0.451 0.153 -0.006 1 
0.451 0.164 -0.007 1 
0.45 0.174 -0.007 1 
0.444 0.271 -0.008 1 
0.443 0.291 -0.008 1 
0.443 0.304 -0.009 1 
0.441 0.314 -0.009 1 
0.391 0.206 -0.014 1 
0.464 -0.346 -0.01 1 
0.463 -0.337 -0.009 1 
0.463 -0.217 -0.006 1 
0.463 -0.197 -0.006 1 
0.462 -0.176 -0.006 1 
0.464 -0.155 -0.006 1 
0.462 -0.135 -0.005 1 
0.462 -0.116 -0.005 1 
0.464 -0.103 -0.005 1 
0.477 -0.096 -0.008 1 
0.445 -0.076 -0.001 1 
0.411 0.053 -0.012 1 
0.484 -0.055 -0.009 1 
0.481 -0.052 -0.009 1 
0.394 -0.071 -0.013 1 
0.372 -0.066 -0.014 1 
0.393 -0.208 -0.02 1 
0.457 0.142 -0.005 1 
0.456 0.153 -0.005 1 
0.472 -0.053 -0.018 1 
0.455 0.172 -0.005 1 
0.455 0.177 -0.005 1 
0.392 0.234 -0.016 1 
0.393 0.004 -0.009 1 
0.454 0.182 -0.005 1 
0.453 0.193 -0.005 1 
0.453 0.204 -0.005 1 
0.452 0.212 -0.005 1 
0.453 0.224 -0.006 1 
0.451 0.234 -0.006 1 
0.452 0.243 -0.006 1 
0.451 0.254 -0.006 1 
0.45 0.262 -0.006 1 
0.457 0.134 -0.005 1 
0.469 -0.287 -0.006 1 
0.466 -0.275 -0.005 1 
0.464 -0.261 -0.005 1 
0.467 -0.255 -0.005 1 
0.469 -0.247 -0.005 1 
0.469 -0.235 -0.005 1 
0.467 -0.228 -0.005 1 
0.41 -0.186 -0.015 1 
0.444 -0.195 -0.012 1 
0.384 -0.066 -0.014 1 
0.442 0.1 0 1 
0.452 0.108 -0.001 1 
0.454 0.248 -0.004 1 
0.453 0.261 -0.004 1 
0.455 0.272 -0.005 1 
0.455 0.282 -0.005 1 
0.454 0.284 -0.005 1 
0.452 0.291 -0.005 1 
0.453 0.301 -0.005 1 
0.452 0.313 -0.005 1 
0.45 0.324 -0.005 1 
0.473 -0.345 -0.006 1 
0.474 -0.336 -0.005 1 
0.431 0.132 -0.011 1 
0.444 0.262 -0.008 1 
0.473 -0.328 -0.005 1 
0.474 -0.318 -0.005 1 
0.473 -0.314 -0.005 1 
0.453 0.324 -0.003 1 
0.452 0.326 -0.003 1 
0.474 -0.286 -0.001 1 
0.479 -0.097 0 1 
0.477 -0.09 0 1 
0.46 -0.077 0.003 1 
0.465 0.146 0.001 1 
0.476 -0.284 0 1 
0.471 -0.225 0.002 1 
0.47 -0.216 0.002 1 
0.47 -0.207 0.002 1 
0.47 -0.195 0.003 1 
0.47 -0.186 0.003 1 
0.469 -0.177 0.003 1 
0.469 -0.155 0.003 1 
0.469 -0.146 0.003 1 
0.374 -0.206 -0.022 1 
0.424 0.105 -0.012 1 
0.469 -0.135 0.003 1 
0.47 -0.086 0.003 1 
0.471 -0.075 0.003 1 
0.384 0.053 -0.014 1 
0.485 -0.075 0.001 1 
0.496 -0.075 0 1 
0.498 -0.07 0 1 
0.461 0.104 0.004 1 
0.463 0.112 0.004 1 
0.464 0.124 0.004 1 
0.466 0.144 0.003 1 
0.464 0.152 0.003 1 
0.463 0.162 0.003 1 
0.464 0.174 0.003 1 
0.464 0.183 0.003 1 
0.463 0.194 0.003 1 
0.464 0.2 0.002 1 
0.465 0.203 0.002 1 
0.465 0.212 0.002 1 
0.465 0.221 0.002 1 
0.464 0.223 0.002 1 
0.463 0.231 0.002 1 
0.463 0.243 0.002 1 
0.473 -0.355 0.002 1 
0.474 -0.353 0.002 1 
0.476 -0.345 0.002 1 
0.363 0.102 -0.014 1 
0.477 -0.335 0.002 1 
0.424 -0.087 -0.013 1 
0.477 -0.325 0.002 1 
0.475 -0.296 0.003 1 
0.475 -0.286 0.003 1 
0.472 -0.277 0.004 1 
0.471 -0.267 0.004 1 
0.499 -0.064 0.001 1 
0.435 0.058 0.012 1 
0.431 -0.065 -0.012 1 
0.427 0.066 0.013 1 
0.384 -0.184 -0.018 1 
0.462 0.263 0.004 1 
0.462 0.272 0.004 1 
0.462 0.294 0.004 1 
0.461 0.303 0.004 1 
0.461 0.306 0.003 1 
0.464 0.322 0.003 1 
0.462 0.334 0.003 1 
0.372 0.147 -0.014 1 
0.466 0.342 0.002 1 
0.523 -0.065 0.001 1 
0.424 0.103 -0.012 1 
0.529 -0.06 0 1 
0.504 -0.047 0.003 1 
0.466 -0.05 0.012 1 
0.464 -0.047 0.012 1 
0.433 0.293 -0.012 1 
0.47 -0.037 0.012 1 
0.459 0.053 0.013 1 
0.46 0.063 0.013 1 
0.462 0.074 0.012 1 
0.41 0.2 -0.013 1 
0.382 -0.146 -0.017 1 
0.458 -0.085 -0.007 1 
0.452 -0.165 -0.009 1 
0.463 -0.105 -0.005 1 
0.462 -0.126 -0.005 1 
0.379 0.189 -0.014 1 
0.463 -0.044 0.015 1 
0.58 -0.035 0 1 
0.402 -0.157 -0.017 1 
0.474 -0.012 0.014 1 
0.463 -0.146 -0.005 1 
0.414 0.264 -0.013 1 
0.462 -0.165 -0.005 1 
0.463 -0.185 -0.006 1 
0.463 -0.225 -0.007 1 
0.452 -0.306 -0.014 1 
0.464 -0.252 -0.007 1 
0.44 0.253 -0.009 1 
0.458 -0.286 -0.01 1 
0.453 0.075 0.009 1 
0.584 -0.047 0.002 1 
0.586 -0.036 0.002 1 
0.581 -0.032 0.002 1 
0.476 -0.09 -0.005 1 
0.581 -0.024 0.002 1 
0.462 -0.326 -0.012 1 
0.58 -0.024 0.006 1 
0.436 0.1 -0.007 1 
0.441 -0.276 -0.011 1 
0.413 0.114 -0.013 1 
0.371 0.112 -0.015 1 
0.574 -0.024 0.011 1 
0.564 -0.02 0.012 1 
0.344 0.018 -0.009 1 
0.34 -0.008 -0.004 1 
0.443 0.062 -0.006 1 
0.464 -0.06 -0.016 1 
0.389 0.172 -0.015 1 
0.438 -0.273 -0.015 1 
0.4 -0.085 -0.015 1 
0.587 -0.04 0.013 1 
0.584 -0.036 0.013 1 
0.474 -0.305 -0.002 1 
0.578 -0.028 0.014 1 
0.568 -0.02 0.015 1 
0.453 0.143 -0.007 1 
0.485 -0.096 -0.001 1 
0.469 -0.127 0.003 1 
0.474 -0.248 0.004 1 
0.361 0.114 -0.013 1 
0.413 -0.11 -0.015 1 
0.371 -0.056 -0.013 1 
0.45 0.123 -0.006 1 
0.469 -0.297 -0.006 1 
0.36 -0.065 -0.015 1 
0.44 0.152 -0.009 1 
0.352 0.164 -0.014 1 
0.422 -0.257 -0.021 1 
0.464 0.135 0.001 1 
0.357 0.144 -0.015 1 
0.464 -0.172 -0.003 1 
0.394 0.033 -0.013 1 
0.387 -0.033 0.01 1 
0.354 0.054 -0.013 1 
0.441 0.212 -0.008 1 
0.36 0.132 -0.013 1 
0.414 0.063 -0.013 1 
0.444 -0.058 -0.008 1 
0.373 -0.196 -0.021 1 
0.36 0.203 -0.015 1 
0.353 -0.029 -0.01 1 
0.43 0.055 -0.001 1 
0.441 0.054 0.011 1 
0.37 -0.071 -0.015 1 
0.464 -0.055 0.012 1 
0.424 -0.276 -0.02 1 
0.434 0.111 -0.007 1 
0.469 -0.166 0.003 1 
0.35 0.202 -0.015 1 
0.373 -0.23 -0.025 1 
0.354 -0.001 -0.007 1 
0.386 0.202 -0.015 1 
0.464 -0.044 0.012 1 
0.399 0.112 -0.014 1 
0.399 -0.245 -0.023 1 
0.4 -0.056 -0.015 1 
0.422 0.272 -0.013 1 
0.43 0.064 0.013 1 
0.467 0.319 0.002 1 
0.352 0.104 -0.013 1 
0.392 -0.235 -0.023 1 
0.412 -0.245 -0.022 1 
0.396 -0.255 -0.025 1 
0.388 0.115 -0.015 1 
0.512 -0.069 0 1 
0.472 -0.238 0.004 1 
0.489 -0.053 0.003 1 
0.371 0.063 -0.014 1 
0.414 0.224 -0.014 1 
0.426 -0.167 -0.015 1 
0.392 -0.103 -0.015 1 
0.434 -0.238 -0.016 1 
0.432 -0.267 -0.019 1 
0.411 -0.058 -0.014 1 
0.382 0.064 -0.014 1 
0.422 -0.246 -0.02 1 
0.464 0.132 0.004 1 
0.382 0.203 -0.016 1 
0.421 -0.167 -0.016 1 
0.475 -0.274 0.001 1 
0.321 0.014 0.017 1 
0.464 -0.267 -0.005 1 
0.393 0.253 -0.015 1 
0.402 0.182 -0.014 1 
0.402 0.233 -0.016 1 
0.358 0.174 -0.015 1 
0.424 -0.096 -0.013 1 
0.343 0.003 -0.007 1 
0.385 0.01 -0.006 1 
0.473 -0.098 0.003 1 
0.474 -0.299 -0.002 1 
0.443 0.087 -0.009 1 
0.392 -0.238 -0.025 1 
0.455 0.081 -0.006 1 
0.414 0.179 -0.013 1 
0.414 0.04 -0.01 1 
0.422 0.264 -0.013 1 
0.421 0.144 -0.011 1 
0.433 -0.295 -0.018 1 
0.425 0.296 -0.015 1 
0.404 -0.224 -0.017 1 
0.383 -0.085 -0.016 1 
0.44 -0.287 -0.016 1 
0.462 0.254 0.002 1 
0.452 -0.287 -0.011 1 
0.45 0.274 -0.006 1 
0.394 -0.18 -0.017 1 
0.412 -0.175 -0.016 1 
0.314 -0.01 0.001 1 
0.403 -0.06 -0.014 1 
0.412 -0.156 -0.015 1 
0.39 -0.246 -0.025 1 
0.413 -0.115 -0.015 1 
0.454 -0.076 -0.006 1 
0.404 -0.131 -0.015 1 
0.375 0.128 -0.015 1 
0.373 0.153 -0.015 1 
0.38 0.234 -0.017 1 
0.4 -0.273 -0.025 1 
0.363 -0.052 -0.012 1 
0.363 -0.077 -0.014 1 
0.364 0.184 -0.015 1 
0.434 0.104 -0.007 1 
0.305 -0.013 0.005 1 
0.374 0.011 -0.007 1 
0.42 -0.186 -0.016 1 
0.394 0.047 -0.013 1 
0.402 0.173 -0.014 1 
0.439 -0.308 -0.017 1 
0.42 0.273 -0.015 1 
0.454 0.265 -0.004 1 
0.375 0.221 -0.016 1 
0.434 -0.258 -0.016 1 
0.367 -0.096 -0.014 1 
0.378 -0.196 -0.019 1 
0.454 0.083 -0.006 1 
0.393 0.213 -0.015 1 
0.374 -0.157 -0.018 1 
0.372 0.174 -0.015 1 
0.384 -0.166 -0.018 1 
0.393 -0.106 -0.015 1 
0.364 0.046 -0.013 1 
0.394 -0.255 -0.024 1 
0.374 0.089 -0.013 1 
0.361 0.063 -0.014 1 
0.444 0.065 -0.004 1 
0.4 0.082 -0.013 1 
0.465 -0.265 -0.005 1 
0.402 0.252 -0.015 1 
0.463 0.283 0.004 1 
0.372 -0.003 -0.004 1 
0.384 0.211 -0.017 1 
0.362 0.143 -0.014 1 
0.38 0.194 -0.015 1 
0.473 -0.256 0.004 1 
0.407 0.033 -0.008 1 
0.364 -0.115 -0.015 1 
0.4 0.204 -0.014 1 
0.434 -0.122 -0.011 1 
0.39 -0.096 -0.014 1 
0.441 0.223 -0.008 1 
0.374 0.134 -0.014 1 
0.416 0.286 -0.015 1 
0.39 -0.166 -0.018 1 
0.414 -0.283 -0.022 1 
0.508 -0.059 0 1 
0.414 0.227 -0.014 1 
0.428 -0.166 -0.013 1 
0.477 -0.315 0.002 1 
0.463 -0.205 -0.006 1 
0.382 0.094 -0.014 1 
0.456 0.164 -0.005 1 
0.424 -0.125 -0.013 1 
0.464 -0.28 -0.008 1 
0.472 -0.059 -0.026 1 
0.439 0.232 -0.008 1 
0.468 -0.099 -0.006 1 
0.422 -0.061 -0.015 1 
0.462 0.213 0 1 
0.431 0.239 -0.009 1 
0.404 -0.124 -0.015 1 
0.364 -0.035 -0.012 1 
0.317 -0.02 0 1 
0.38 -0.136 -0.016 1 
0.387 0.189 -0.015 1 
0.369 0.204 -0.016 1 
0.408 0.214 -0.015 1 
0.391 -0.09 -0.014 1 
0.464 -0.308 -0.011 1 
0.394 -0.136 -0.016 1 
0.36 0.212 -0.015 1 
0.372 -0.165 -0.018 1 
0.372 0.073 -0.014 1 
0.37 0.133 -0.015 1 
0.417 0.104 -0.001 1 
0.4 0.093 -0.014 1 
0.332 0.043 0.038 2 
0.32 0.033 0.089 2 
0.355 -0.036 0.033 2 
0.353 -0.044 0.034 2 
0.418 -0.051 0.013 2 
0.324 0.028 0.037 2 
0.352 -0.047 0.034 2 
0.357 0.051 0.033 2 
0.33 0.043 0.041 2 
0.352 -0.026 0.03 2 
0.343 0.049 0.038 2 
0.342 -0.01 0.023 2 
0.395 0.064 0.015 2 
0.371 -0.05 0.031 2 
0.369 -0.035 0.029 2 
0.373 -0.029 0.024 2 
0.369 0.064 0.03 2 
0.381 0.074 0.028 2 
0.356 -0.045 0.035 2 
0.363 -0.032 0.032 2 
0.34 -0.022 0.033 2 
0.325 0.031 0.04 2 
0.356 0.055 0.034 2 
0.354 0.057 0.035 2 
0.328 0.066 0.037 2 
0.337 0.046 0.04 2 
0.404 0.047 0.008 2 
0.34 0.022 0.024 2 
0.326 0.023 0.03 2 
0.402 0.045 0.009 2 
0.376 -0.054 0.028 2 
0.359 0.071 0.029 2 
0.399 -0.057 0.017 2 
0.413 -0.052 0.014 2 
0.328 0.033 0.036 2 
0.388 0.066 0.024 2 
0.373 0.063 0.027 2 
0.366 0.068 0.029 2 
0.353 0.069 0.032 2 
0.338 0.067 0.035 2 
0.326 0.064 0.037 2 
0.394 0.061 0.021 2 
0.363 0.071 0.03 2 
0.34 -0.021 0.037 2 
0.381 -0.028 0.03 2 
0.392 -0.054 0.021 2 
0.489 -0.042 0.019 2 
0.429 0.047 0.063 2 
0.595 -0.044 0.062 2 
0.582 -0.028 0.07 2 
0.574 -0.024 0.069 2 
0.596 -0.048 0.059 2 
0.564 -0.03 0.055 2 
0.592 -0.047 0.055 2 
0.591 -0.028 0.081 2 
0.583 -0.035 0.062 2 
0.57 -0.027 0.059 2 
0.558 -0.023 0.058 2 
0.591 -0.04 0.062 2 
0.593 -0.032 0.07 2 
0.589 -0.036 0.074 2 
0.596 -0.04 0.074 2 
0.588 -0.051 0.036 2 
0.595 -0.059 0.051 2 
0.593 -0.055 0.051 2 
0.588 -0.043 0.055 2 
0.582 -0.024 0.077 2 
0.576 -0.035 0.055 2 
0.586 -0.024 0.081 2 
0.562 -0.03 0.051 2 
0.568 -0.027 0.051 2 
0.561 -0.026 0.03 2 
0.54 -0.018 0.042 2 
0.598 -0.037 0.082 2 
0.586 -0.051 0.022 2 
0.555 -0.023 0.051 2 
0.595 -0.032 0.074 2 
0.557 -0.023 0.024 2 
0.578 -0.046 0.044 2 
0.563 -0.03 0.041 2 
0.566 -0.027 0.041 2 
0.555 -0.019 0.02 2 
0.567 -0.027 0.019 2 
0.578 -0.035 0.022 2 
0.582 -0.05 0.018 2 
0.549 -0.022 0.041 2 
0.549 -0.019 0.031 2 
0.593 -0.036 0.078 2 
0.576 -0.038 0.044 2 
0.579 -0.057 0.044 2 
0.582 -0.046 0.047 2 
0.573 -0.027 0.062 2 
0.584 -0.05 0.011 2 
0.586 -0.051 0.029 2 
0.551 -0.022 0.048 2 
0.568 -0.034 0.033 2 
0.582 -0.046 0.033 2 
0.579 -0.039 0.033 2 
0.282 0.014 0.044 3 
0.265 -0.007 0.089 3 
0.276 0.019 0.062 3 
0.257 -0.005 0.084 3 
0.275 -0.008 0.09 3 
0.284 0.004 0.044 3 
0.318 0.024 0.021 3 
0.287 0.019 0.043 3 
0.266 -0.005 0.074 3 
0.285 0.019 0.051 3 
0.316 0.024 0.028 3 
0.287 -0.001 0.044 3 
0.303 -0.015 0.024 3 
0.265 -0.004 0.076 3 
0.292 -0.005 0.054 3 
0.256 0.004 0.084 3 
0.275 0.023 0.076 3 
0.266 0.02 0.074 3 
0.264 0.016 0.074 3 
0.275 -0.005 0.067 3 
0.263 0.014 0.074 3 
0.264 0.004 0.074 3 
0.265 -0.003 0.074 3 
0.296 -0.004 0.036 3 
0.277 -0.007 0.075 3 
0.277 0.004 0.054 3 
0.317 -0.011 0.097 3 
0.266 0.022 0.084 3 
0.299 -0.005 0.052 3 
0.285 0.006 0.042 3 
0.279 0.018 0.054 3 
0.277 0.024 0.074 3 
0.292 0.027 0.073 3 
0.264 -0.005 0.071 3 
0.306 0.024 0.055 3 
0.269 0.004 0.064 3 
0.275 0.014 0.056 3 
0.27 0.014 0.064 3 
0.305 0.014 0.025 3 
0.271 0.018 0.064 3 
0.294 0.015 0.034 3 
0.265 0.014 0.072 3 
0.285 -0.009 0.092 3 
0.291 0.028 0.087 3 
0.302 -0.006 0.067 3 
0.285 -0.003 0.048 3 
0.283 0.025 0.073 3 
0.302 -0.009 0.076 3 
0.256 0.021 0.094 3 
0.256 -0.006 0.094 3 
0.277 -0.009 0.103 3 
0.255 -0.006 0.095 3 
0.304 -0.012 0.024 3 
0.269 0.024 0.092 3 
0.269 0.025 0.101 3 
0.256 0.021 0.096 3 
0.252 0.019 0.094 3 
0.317 0.027 0.03 3 
0.249 0.014 0.093 3 
0.295 0.013 0.033 3 
0.249 0.004 0.093 3 
0.253 -0.005 0.094 3 
0.277 0.014 0.054 3 
0.255 -0.004 0.09 3 
0.285 0.029 0.105 3 
0.304 -0.004 0.022 3 
0.283 0.018 0.044 3 
0.304 -0.005 0.034 3 
0.287 0.026 0.075 3 
0.305 -0.002 0.03 3 
0.318 -0.018 0.029 3 
0.315 -0.011 0.029 3 
0.294 0.014 0.033 3 
0.308 0.023 0.031 3 
0.307 0.03 0.031 3 
0.257 0.02 0.084 3 
0.327 -0.019 0.029 3 
0.295 0.003 0.034 3 
0.294 0.004 0.034 3 
0.304 0.022 0.033 3 
0.317 0.001 0.02 3 
0.304 0.011 0.024 3 
0.311 0.014 0.022 3 
0.33 -0.009 0.019 3 
0.312 -0.006 0.023 3 
0.309 0.001 0.024 3 
0.304 -0.015 0.027 3 
0.314 0.024 0.024 3 
0.322 -0.009 0.024 3 
0.306 -0.015 0.034 3 
0.269 -0.007 0.082 3 
0.275 -0.004 0.06 3 
0.29 -0.008 0.075 3 
0.284 -0.01 0.106 3 
0.255 0.01 0.088 3 
0.308 -0.007 0.033 3 
0.296 0.021 0.036 3 
0.272 -0.009 0.099 3 
0.299 -0.01 0.093 3 
0.257 0.014 0.084 3 
0.286 0.02 0.06 3 
0.316 0.039 0.03 3 
0.296 0.031 0.034 3 
0.472 -0.126 0.163 3 
0.472 -0.265 0.084 3 
0.479 -0.296 0.173 3 
0.479 -0.326 0.174 3 
0.474 -0.286 0.084 3 
0.48 -0.317 0.174 3 
0.47 -0.177 0.083 3 
0.472 -0.237 0.083 3 
0.471 -0.195 0.083 3 
0.471 -0.216 0.083 3 
0.47 -0.097 0.162 3 
0.469 -0.086 0.161 3 
0.468 -0.085 0.123 3 
0.472 -0.225 0.083 3 
0.482 -0.325 0.154 3 
0.469 -0.166 0.022 3 
0.48 -0.316 0.153 3 
0.472 -0.196 0.122 3 
0.471 -0.187 0.083 3 
0.479 -0.305 0.152 3 
0.479 -0.298 0.152 3 
0.47 -0.146 0.083 3 
0.474 -0.262 0.15 3 
0.468 -0.115 0.082 3 
0.47 -0.136 0.124 3 
0.469 -0.107 0.123 3 
0.475 -0.293 0.09 3 
0.469 -0.146 0.124 3 
0.468 -0.05 0.082 3 
0.468 -0.055 0.082 3 
0.475 -0.316 0.014 3 
0.467 -0.066 0.082 3 
0.467 -0.077 0.082 3 
0.467 -0.085 0.082 3 
0.482 -0.335 0.154 3 
0.47 -0.167 0.124 3 
0.468 -0.096 0.082 3 
0.469 -0.175 0.143 3 
0.468 -0.107 0.082 3 
0.47 -0.166 0.083 3 
0.471 -0.117 0.163 3 
0.473 -0.215 0.123 3 
0.47 -0.175 0.124 3 
0.474 -0.267 0.127 3 
0.472 -0.226 0.033 3 
0.47 -0.105 0.162 3 
0.468 -0.126 0.082 3 
0.473 -0.206 0.122 3 
0.468 -0.096 0.123 3 
0.47 -0.067 0.164 3 
0.47 -0.075 0.164 3 
0.47 -0.127 0.124 3 
0.47 -0.155 0.083 3 
0.477 -0.287 0.172 3 
0.471 -0.187 0.072 3 
0.474 -0.295 0.072 3 
0.473 -0.285 0.072 3 
0.473 -0.275 0.072 3 
0.473 -0.266 0.072 3 
0.472 -0.246 0.072 3 
0.472 -0.225 0.072 3 
0.471 -0.095 0.173 3 
0.471 -0.216 0.072 3 
0.471 -0.207 0.072 3 
0.471 -0.195 0.072 3 
0.476 -0.3 0.073 3 
0.472 -0.106 0.174 3 
0.473 -0.115 0.174 3 
0.472 -0.137 0.174 3 
0.479 -0.306 0.182 3 
0.481 -0.315 0.184 3 
0.471 -0.187 0.094 3 
0.47 -0.166 0.074 3 
0.47 -0.155 0.074 3 
0.469 -0.146 0.074 3 
0.469 -0.135 0.074 3 
0.469 -0.085 0.142 3 
0.469 -0.115 0.063 3 
0.47 -0.167 0.144 3 
0.47 -0.156 0.143 3 
0.475 -0.247 0.152 3 
0.47 -0.147 0.143 3 
0.469 -0.096 0.142 3 
0.47 -0.125 0.143 3 
0.469 -0.116 0.142 3 
0.468 -0.107 0.142 3 
0.472 -0.256 0.033 3 
0.469 -0.126 0.074 3 
0.472 -0.07 0.173 3 
0.47 -0.155 0.124 3 
0.471 -0.075 0.173 3 
0.471 -0.086 0.173 3 
0.477 -0.355 0.073 3 
0.48 -0.348 0.073 3 
0.478 -0.335 0.073 3 
0.477 -0.315 0.073 3 
0.477 -0.308 0.073 3 
0.477 -0.278 0.174 3 
0.471 -0.165 0.163 3 
0.474 -0.217 0.172 3 
0.475 -0.227 0.172 3 
0.476 -0.236 0.172 3 
0.476 -0.245 0.173 3 
0.471 -0.207 0.083 3 
0.477 -0.255 0.174 3 
0.472 -0.237 0.072 3 
0.477 -0.265 0.174 3 
0.468 -0.066 0.123 3 
0.475 -0.215 0.172 3 
0.474 -0.285 0.044 3 
0.478 -0.356 0.082 3 
0.479 -0.347 0.082 3 
0.478 -0.335 0.082 3 
0.478 -0.325 0.082 3 
0.468 -0.077 0.123 3 
0.469 -0.116 0.123 3 
0.477 -0.318 0.084 3 
0.476 -0.297 0.084 3 
0.471 -0.157 0.172 3 
0.468 -0.115 0.074 3 
0.469 -0.107 0.074 3 
0.467 -0.096 0.074 3 
0.467 -0.085 0.074 3 
0.467 -0.055 0.074 3 
0.468 -0.047 0.074 3 
0.479 -0.306 0.173 3 
0.466 -0.066 0.023 3 
0.473 -0.256 0.072 3 
0.473 -0.146 0.172 3 
0.475 -0.293 0.084 3 
0.474 -0.176 0.173 3 
0.474 -0.187 0.174 3 
0.474 -0.196 0.174 3 
0.474 -0.22 0.175 3 
0.481 -0.325 0.181 3 
0.483 -0.338 0.182 3 
0.482 -0.348 0.183 3 
0.482 -0.355 0.183 3 
0.468 -0.061 0.123 3 
0.48 -0.316 0.162 3 
0.469 -0.066 0.153 3 
0.468 -0.077 0.153 3 
0.469 -0.086 0.153 3 
0.469 -0.097 0.153 3 
0.473 -0.247 0.092 3 
0.469 -0.105 0.153 3 
0.47 -0.116 0.154 3 
0.471 -0.125 0.154 3 
0.471 -0.136 0.154 3 
0.467 -0.06 0.114 3 
0.478 -0.346 0.022 3 
0.468 -0.058 0.104 3 
0.481 -0.328 0.163 3 
0.481 -0.335 0.163 3 
0.48 -0.348 0.164 3 
0.478 -0.325 0.073 3 
0.466 -0.066 0.114 3 
0.475 -0.266 0.153 3 
0.475 -0.256 0.153 3 
0.471 -0.267 0.013 3 
0.475 -0.235 0.152 3 
0.469 -0.064 0.147 3 
0.469 -0.146 0.104 3 
0.472 -0.217 0.103 3 
0.472 -0.205 0.103 3 
0.472 -0.196 0.102 3 
0.471 -0.187 0.102 3 
0.471 -0.175 0.102 3 
0.471 -0.167 0.102 3 
0.469 -0.135 0.082 3 
0.474 -0.255 0.123 3 
0.477 -0.287 0.154 3 
0.475 -0.315 0.044 3 
0.478 -0.357 0.112 3 
0.472 -0.235 0.024 3 
0.469 -0.135 0.104 3 
0.468 -0.126 0.104 3 
0.477 -0.277 0.154 3 
0.468 -0.115 0.104 3 
0.468 -0.096 0.104 3 
0.475 -0.265 0.144 3 
0.468 -0.085 0.104 3 
0.467 -0.077 0.104 3 
0.467 -0.066 0.104 3 
0.469 -0.116 0.112 3 
0.473 -0.217 0.114 3 
0.473 -0.206 0.114 3 
0.472 -0.196 0.114 3 
0.471 -0.175 0.113 3 
0.471 -0.167 0.113 3 
0.469 -0.155 0.113 3 
0.469 -0.146 0.113 3 
0.472 -0.187 0.114 3 
0.469 -0.135 0.113 3 
0.469 -0.127 0.112 3 
0.472 -0.226 0.114 3 
0.469 -0.105 0.112 3 
0.468 -0.096 0.112 3 
0.466 -0.066 0.034 3 
0.468 -0.085 0.112 3 
0.468 -0.077 0.112 3 
0.479 -0.326 0.064 3 
0.471 -0.197 0.153 3 
0.472 -0.206 0.153 3 
0.473 -0.215 0.154 3 
0.473 -0.227 0.154 3 
0.474 -0.276 0.112 3 
0.472 -0.247 0.024 3 
0.479 -0.345 0.112 3 
0.468 -0.143 0.014 3 
0.472 -0.246 0.083 3 
0.478 -0.326 0.114 3 
0.479 -0.317 0.114 3 
0.477 -0.305 0.114 3 
0.476 -0.298 0.113 3 
0.475 -0.287 0.113 3 
0.475 -0.28 0.113 3 
0.472 -0.225 0.103 3 
0.473 -0.266 0.112 3 
0.473 -0.257 0.112 3 
0.473 -0.248 0.112 3 
0.474 -0.236 0.112 3 
0.471 -0.207 0.033 3 
0.471 -0.148 0.152 3 
0.471 -0.156 0.152 3 
0.471 -0.165 0.152 3 
0.471 -0.176 0.152 3 
0.471 -0.185 0.153 3 
0.479 -0.347 0.034 3 
0.47 -0.155 0.094 3 
0.473 -0.275 0.084 3 
0.468 -0.126 0.093 3 
0.468 -0.115 0.093 3 
0.468 -0.107 0.093 3 
0.468 -0.096 0.093 3 
0.467 -0.085 0.093 3 
0.466 -0.076 0.093 3 
0.467 -0.066 0.093 3 
0.468 -0.058 0.093 3 
0.472 -0.177 0.164 3 
0.47 -0.166 0.094 3 
0.473 -0.226 0.123 3 
0.472 -0.186 0.164 3 
0.469 -0.105 0.104 3 
0.472 -0.256 0.052 3 
0.472 -0.256 0.083 3 
0.466 -0.044 0.044 3 
0.482 -0.336 0.173 3 
0.481 -0.346 0.173 3 
0.482 -0.355 0.174 3 
0.474 -0.236 0.123 3 
0.472 -0.237 0.092 3 
0.48 -0.348 0.094 3 
0.478 -0.336 0.094 3 
0.479 -0.327 0.094 3 
0.478 -0.316 0.093 3 
0.477 -0.308 0.093 3 
0.475 -0.296 0.093 3 
0.473 -0.275 0.092 3 
0.473 -0.266 0.092 3 
0.472 -0.137 0.163 3 
0.473 -0.257 0.092 3 
0.474 -0.245 0.123 3 
0.48 -0.355 0.164 3 
0.472 -0.145 0.163 3 
0.481 -0.355 0.134 3 
0.471 -0.156 0.163 3 
0.474 -0.286 0.095 3 
0.471 -0.225 0.094 3 
0.472 -0.216 0.094 3 
0.472 -0.205 0.094 3 
0.472 -0.196 0.094 3 
0.471 -0.175 0.094 3 
0.479 -0.299 0.164 3 
0.476 -0.276 0.162 3 
0.474 -0.325 0.011 3 
0.477 -0.356 0.103 3 
0.479 -0.345 0.103 3 
0.477 -0.335 0.102 3 
0.478 -0.326 0.102 3 
0.477 -0.305 0.102 3 
0.479 -0.345 0.124 3 
0.472 -0.247 0.044 3 
0.476 -0.286 0.163 3 
0.477 -0.268 0.162 3 
0.479 -0.305 0.164 3 
0.479 -0.356 0.124 3 
0.476 -0.297 0.104 3 
0.475 -0.287 0.104 3 
0.475 -0.28 0.104 3 
0.474 -0.276 0.104 3 
0.472 -0.265 0.103 3 
0.473 -0.257 0.103 3 
0.473 -0.247 0.103 3 
0.473 -0.235 0.103 3 
0.468 -0.135 0.093 3 
0.474 -0.277 0.124 3 
0.474 -0.237 0.149 3 
0.467 -0.077 0.144 3 
0.468 -0.066 0.144 3 
0.468 -0.063 0.144 3 
0.472 -0.195 0.162 3 
0.473 -0.207 0.162 3 
0.47 -0.166 0.033 3 
0.473 -0.216 0.163 3 
0.474 -0.225 0.163 3 
0.477 -0.355 0.094 3 
0.475 -0.229 0.163 3 
0.475 -0.235 0.163 3 
0.476 -0.248 0.164 3 
0.475 -0.287 0.122 3 
0.478 -0.306 0.123 3 
0.479 -0.317 0.123 3 
0.48 -0.325 0.123 3 
0.479 -0.335 0.124 3 
0.474 -0.237 0.16 3 
0.476 -0.257 0.162 3 
0.475 -0.247 0.144 3 
0.475 -0.116 0.189 3 
0.478 -0.356 0.052 3 
0.474 -0.124 0.189 3 
0.474 -0.127 0.189 3 
0.475 -0.13 0.19 3 
0.474 -0.135 0.189 3 
0.475 -0.139 0.19 3 
0.475 -0.256 0.144 3 
0.478 -0.316 0.102 3 
0.475 -0.147 0.19 3 
0.477 -0.157 0.191 3 
0.475 -0.107 0.189 3 
0.477 -0.166 0.191 3 
0.466 -0.066 0.074 3 
0.476 -0.177 0.191 3 
0.477 -0.187 0.192 3 
0.476 -0.195 0.192 3 
0.477 -0.208 0.193 3 
0.475 -0.357 0.034 3 
0.478 -0.335 0.034 3 
0.472 -0.126 0.174 3 
0.478 -0.217 0.193 3 
0.478 -0.227 0.194 3 
0.469 -0.135 0.033 3 
0.475 -0.283 0.032 3 
0.474 -0.275 0.032 3 
0.472 -0.265 0.033 3 
0.473 -0.247 0.033 3 
0.472 -0.235 0.033 3 
0.471 -0.216 0.033 3 
0.47 -0.195 0.033 3 
0.469 -0.185 0.033 3 
0.47 -0.175 0.033 3 
0.47 -0.155 0.033 3 
0.47 -0.146 0.033 3 
0.477 -0.235 0.194 3 
0.468 -0.126 0.033 3 
0.474 -0.087 0.188 3 
0.469 -0.115 0.033 3 
0.469 -0.107 0.033 3 
0.468 -0.096 0.034 3 
0.468 -0.085 0.034 3 
0.466 -0.076 0.034 3 
0.466 -0.047 0.034 3 
0.466 -0.041 0.034 3 
0.474 -0.096 0.189 3 
0.467 -0.077 0.044 3 
0.472 -0.205 0.044 3 
0.471 -0.195 0.044 3 
0.47 -0.186 0.044 3 
0.47 -0.175 0.044 3 
0.47 -0.146 0.044 3 
0.469 -0.135 0.044 3 
0.469 -0.126 0.044 3 
0.469 -0.115 0.044 3 
0.469 -0.107 0.044 3 
0.469 -0.096 0.044 3 
0.467 -0.085 0.044 3 
0.472 -0.225 0.044 3 
0.484 -0.315 0.2 3 
0.466 -0.055 0.044 3 
0.472 -0.216 0.044 3 
0.485 -0.32 0.201 3 
0.485 -0.327 0.201 3 
0.485 -0.338 0.202 3 
0.485 -0.345 0.202 3 
0.473 -0.215 0.142 3 
0.473 -0.206 0.142 3 
0.469 -0.146 0.093 3 
0.474 -0.295 0.012 3 
0.473 -0.227 0.143 3 
0.475 -0.241 0.143 3 
0.474 -0.237 0.143 3 
0.478 -0.248 0.195 3 
0.475 -0.283 0.038 3 
0.479 -0.255 0.195 3 
0.479 -0.267 0.196 3 
0.48 -0.275 0.196 3 
0.48 -0.285 0.197 3 
0.479 -0.043 0.041 3 
0.48 -0.295 0.197 3 
0.481 -0.306 0.198 3 
0.475 -0.286 0.032 3 
0.477 -0.355 0.043 3 
0.479 -0.347 0.043 3 
0.478 -0.335 0.043 3 
0.477 -0.327 0.043 3 
0.475 -0.305 0.044 3 
0.475 -0.295 0.044 3 
0.472 -0.265 0.044 3 
0.473 -0.287 0.012 3 
0.472 -0.256 0.044 3 
0.472 -0.237 0.044 3 
0.475 -0.326 0.014 3 
0.471 -0.155 0.102 3 
0.48 -0.316 0.144 3 
0.479 -0.305 0.143 3 
0.478 -0.297 0.143 3 
0.467 -0.096 0.012 3 
0.469 -0.206 0.014 3 
0.477 -0.286 0.142 3 
0.476 -0.276 0.142 3 
0.474 -0.353 0.014 3 
0.477 -0.345 0.014 3 
0.475 -0.336 0.014 3 
0.468 -0.145 0.014 3 
0.475 -0.312 0.014 3 
0.474 -0.305 0.015 3 
0.474 -0.356 0.02 3 
0.474 -0.304 0.021 3 
0.47 -0.206 0.022 3 
0.47 -0.195 0.022 3 
0.47 -0.186 0.022 3 
0.469 -0.177 0.022 3 
0.469 -0.157 0.022 3 
0.469 -0.146 0.022 3 
0.468 -0.137 0.023 3 
0.473 -0.278 0.012 3 
0.469 -0.115 0.004 3 
0.475 -0.306 0.003 3 
0.466 -0.117 0.012 3 
0.467 -0.106 0.012 3 
0.466 -0.087 0.012 3 
0.466 -0.076 0.012 3 
0.467 -0.066 0.012 3 
0.467 -0.058 0.012 3 
0.476 -0.298 0.122 3 
0.474 -0.267 0.124 3 
0.474 -0.321 0.012 3 
0.468 -0.126 0.023 3 
0.472 -0.255 0.013 3 
0.471 -0.246 0.013 3 
0.472 -0.238 0.013 3 
0.47 -0.227 0.013 3 
0.469 -0.215 0.014 3 
0.469 -0.197 0.014 3 
0.468 -0.185 0.014 3 
0.468 -0.176 0.014 3 
0.468 -0.165 0.014 3 
0.468 -0.157 0.014 3 
0.473 -0.355 0.014 3 
0.475 -0.315 0.023 3 
0.475 -0.305 0.023 3 
0.474 -0.285 0.024 3 
0.474 -0.275 0.024 3 
0.472 -0.267 0.024 3 
0.471 -0.255 0.024 3 
0.471 -0.225 0.024 3 
0.471 -0.222 0.024 3 
0.475 -0.302 0.012 3 
0.474 -0.286 0.092 3 
0.477 -0.328 0.023 3 
0.477 -0.071 0.19 3 
0.467 -0.126 0.012 3 
0.473 -0.073 0.188 3 
0.474 -0.076 0.188 3 
0.474 -0.261 0.144 3 
0.474 -0.356 0.031 3 
0.477 -0.327 0.032 3 
0.476 -0.306 0.032 3 
0.475 -0.295 0.032 3 
0.474 -0.291 0.032 3 
0.467 -0.077 0.133 3 
0.468 -0.115 0.023 3 
0.468 -0.107 0.023 3 
0.468 -0.096 0.023 3 
0.467 -0.085 0.023 3 
0.467 -0.076 0.023 3 
0.465 -0.055 0.023 3 
0.467 -0.047 0.023 3 
0.473 -0.04 0.022 3 
0.475 -0.296 0.023 3 
0.467 -0.06 0.133 3 
0.468 -0.066 0.133 3 
0.471 -0.197 0.144 3 
0.468 -0.085 0.134 3 
0.468 -0.096 0.134 3 
0.469 -0.116 0.134 3 
0.474 -0.249 0.138 3 
0.48 -0.326 0.141 3 
0.482 -0.335 0.142 3 
0.481 -0.345 0.142 3 
0.48 -0.358 0.143 3 
0.476 -0.355 0.022 3 
0.478 -0.336 0.023 3 
0.477 -0.286 0.134 3 
0.473 -0.278 0.044 3 
0.48 -0.348 0.064 3 
0.48 -0.326 0.132 3 
0.48 -0.315 0.132 3 
0.479 -0.308 0.132 3 
0.478 -0.337 0.114 3 
0.47 -0.166 0.044 3 
0.475 -0.275 0.133 3 
0.471 -0.225 0.052 3 
0.474 -0.196 0.18 3 
0.475 -0.17 0.182 3 
0.475 -0.176 0.182 3 
0.474 -0.182 0.182 3 
0.466 -0.044 0.06 3 
0.482 -0.356 0.193 3 
0.467 -0.047 0.063 3 
0.466 -0.055 0.063 3 
0.467 -0.066 0.063 3 
0.478 -0.297 0.134 3 
0.474 -0.167 0.184 3 
0.472 -0.087 0.182 3 
0.472 -0.095 0.182 3 
0.473 -0.107 0.183 3 
0.473 -0.126 0.183 3 
0.473 -0.135 0.183 3 
0.474 -0.147 0.184 3 
0.474 -0.255 0.132 3 
0.474 -0.155 0.184 3 
0.466 -0.047 0.044 3 
0.475 -0.185 0.182 3 
0.481 -0.309 0.192 3 
0.478 -0.247 0.182 3 
0.482 -0.317 0.193 3 
0.484 -0.326 0.194 3 
0.484 -0.347 0.196 3 
0.475 -0.262 0.132 3 
0.475 -0.268 0.133 3 
0.477 -0.237 0.182 3 
0.474 -0.205 0.18 3 
0.471 -0.207 0.064 3 
0.473 -0.285 0.064 3 
0.473 -0.275 0.064 3 
0.469 -0.126 0.063 3 
0.473 -0.266 0.064 3 
0.472 -0.256 0.064 3 
0.472 -0.246 0.064 3 
0.472 -0.237 0.064 3 
0.471 -0.225 0.064 3 
0.471 -0.216 0.064 3 
0.474 -0.295 0.064 3 
0.47 -0.135 0.063 3 
0.475 -0.292 0.044 3 
0.471 -0.195 0.063 3 
0.471 -0.187 0.063 3 
0.483 -0.346 0.192 3 
0.47 -0.177 0.063 3 
0.469 -0.165 0.063 3 
0.47 -0.155 0.063 3 
0.47 -0.146 0.063 3 
0.476 -0.307 0.084 3 
0.475 -0.197 0.183 3 
0.475 -0.206 0.183 3 
0.472 -0.185 0.122 3 
0.476 -0.216 0.184 3 
0.47 -0.177 0.074 3 
0.476 -0.225 0.184 3 
0.477 -0.355 0.064 3 
0.479 -0.336 0.064 3 
0.477 -0.317 0.064 3 
0.474 -0.115 0.183 3 
0.485 -0.323 0.192 3 
0.476 -0.306 0.064 3 
0.467 -0.077 0.063 3 
0.468 -0.085 0.063 3 
0.468 -0.096 0.063 3 
0.484 -0.336 0.192 3 
0.468 -0.107 0.063 3 
0.48 -0.348 0.052 3 
0.475 -0.303 0.064 3 
0.479 -0.286 0.184 3 
0.481 -0.356 0.152 3 
0.48 -0.347 0.133 3 
0.478 -0.295 0.184 3 
0.471 -0.187 0.133 3 
0.472 -0.196 0.133 3 
0.473 -0.206 0.134 3 
0.473 -0.215 0.134 3 
0.48 -0.336 0.133 3 
0.473 -0.227 0.134 3 
0.481 -0.345 0.151 3 
0.479 -0.277 0.184 3 
0.471 -0.155 0.044 3 
0.478 -0.335 0.052 3 
0.479 -0.248 0.192 3 
0.474 -0.15 0.187 3 
0.478 -0.328 0.052 3 
0.474 -0.107 0.186 3 
0.471 -0.105 0.003 3 
0.476 -0.316 0.052 3 
0.474 -0.205 0.174 3 
0.467 -0.077 0.074 3 
0.465 -0.055 0.034 3 
0.479 -0.267 0.193 3 
0.481 -0.276 0.194 3 
0.48 -0.288 0.194 3 
0.479 -0.297 0.194 3 
0.467 -0.066 0.044 3 
0.47 -0.127 0.132 3 
0.484 -0.326 0.198 3 
0.476 -0.306 0.052 3 
0.475 -0.289 0.047 3 
0.479 -0.255 0.192 3 
0.484 -0.344 0.199 3 
0.477 -0.317 0.032 3 
0.47 -0.136 0.132 3 
0.471 -0.145 0.132 3 
0.47 -0.167 0.132 3 
0.47 -0.175 0.133 3 
0.467 -0.047 0.052 3 
0.469 -0.126 0.052 3 
0.468 -0.115 0.052 3 
0.475 -0.281 0.124 3 
0.469 -0.107 0.052 3 
0.467 -0.096 0.052 3 
0.467 -0.085 0.052 3 
0.466 -0.076 0.052 3 
0.467 -0.066 0.052 3 
0.466 -0.055 0.052 3 
0.47 -0.135 0.052 3 
0.466 -0.044 0.052 3 
0.472 -0.166 0.172 3 
0.47 -0.136 0.143 3 
0.477 -0.256 0.182 3 
0.473 -0.236 0.131 3 
0.474 -0.246 0.132 3 
0.47 -0.155 0.132 3 
0.473 -0.07 0.182 3 
0.473 -0.076 0.182 3 
0.471 -0.216 0.052 3 
0.475 -0.295 0.052 3 
0.473 -0.285 0.052 3 
0.477 -0.265 0.183 3 
0.471 -0.188 0.144 3 
0.472 -0.277 0.052 3 
0.472 -0.265 0.052 3 
0.468 -0.107 0.134 3 
0.472 -0.246 0.052 3 
0.472 -0.237 0.052 3 
0.472 -0.208 0.052 3 
0.472 -0.196 0.052 3 
0.471 -0.187 0.052 3 
0.47 -0.177 0.052 3 
0.469 -0.165 0.052 3 
0.47 -0.155 0.052 3 
0.47 -0.146 0.052 3 
0.468 0.323 0.152 3 
0.464 0.187 0.148 3 
0.465 0.198 0.134 3 
0.475 0.359 0.199 3 
0.464 0.203 0.09 3 
0.464 0.204 0.134 3 
0.463 0.334 0.137 3 
0.464 0.224 0.134 3 
0.463 0.212 0.134 3 
0.467 0.345 0.144 3 
0.464 0.166 0.142 3 
0.464 0.076 0.141 3 
0.465 0.153 0.144 3 
0.465 0.136 0.114 3 
0.466 0.134 0.144 3 
0.466 0.123 0.144 3 
0.465 0.111 0.144 3 
0.466 0.104 0.144 3 
0.466 0.093 0.144 3 
0.465 0.084 0.144 3 
0.464 0.163 0.063 3 
0.465 0.34 0.144 3 
0.465 0.243 0.144 3 
0.465 0.252 0.144 3 
0.466 0.33 0.143 3 
0.466 0.142 0.144 3 
0.465 0.172 0.052 3 
0.466 0.32 0.143 3 
0.466 0.262 0.144 3 
0.465 0.147 0.063 3 
0.465 0.274 0.144 3 
0.465 0.28 0.144 3 
0.466 0.313 0.143 3 
0.465 0.303 0.142 3 
0.464 0.233 0.14 3 
0.464 0.158 0.139 3 
0.465 0.219 0.143 3 
0.465 0.173 0.142 3 
0.463 0.332 0.062 3 
0.464 0.292 0.139 3 
0.464 0.178 0.142 3 
0.465 0.184 0.142 3 
0.465 0.193 0.142 3 
0.465 0.199 0.143 3 
0.465 0.208 0.143 3 
0.464 0.213 0.143 3 
0.464 0.183 0.033 3 
0.464 0.186 0.136 3 
0.464 0.222 0.143 3 
0.465 0.234 0.143 3 
0.464 0.311 0.139 3 
0.464 0.24 0.143 3 
0.464 0.315 0.14 3 
0.465 0.172 0.038 3 
0.465 0.18 0.044 3 
0.464 0.196 0.145 3 
0.465 0.161 0.144 3 
0.464 0.152 0.139 3 
0.464 0.083 0.074 3 
0.47 0.293 0.184 3 
0.47 0.296 0.184 3 
0.464 0.203 0.033 3 
0.464 0.304 0.111 3 
0.464 0.204 0.142 3 
0.468 0.153 0.182 3 
0.467 0.164 0.182 3 
0.468 0.173 0.182 3 
0.468 0.182 0.182 3 
0.467 0.193 0.182 3 
0.468 0.202 0.183 3 
0.468 0.214 0.183 3 
0.465 0.18 0.033 3 
0.467 0.222 0.183 3 
0.465 0.161 0.084 3 
0.468 0.232 0.184 3 
0.468 0.244 0.184 3 
0.468 0.247 0.184 3 
0.468 0.152 0.173 3 
0.473 0.357 0.192 3 
0.465 0.144 0.133 3 
0.464 0.262 0.063 3 
0.471 0.083 0.184 3 
0.47 0.094 0.184 3 
0.465 0.212 0.112 3 
0.469 0.122 0.173 3 
0.468 0.133 0.173 3 
0.468 0.144 0.173 3 
0.467 0.164 0.173 3 
0.467 0.172 0.173 3 
0.467 0.184 0.174 3 
0.464 0.274 0.032 3 
0.466 0.192 0.173 3 
0.464 0.249 0.143 3 
0.467 0.204 0.174 3 
0.466 0.221 0.174 3 
0.465 0.293 0.142 3 
0.47 0.103 0.184 3 
0.464 0.291 0.093 3 
0.468 0.314 0.182 3 
0.469 0.322 0.182 3 
0.468 0.331 0.183 3 
0.468 0.347 0.184 3 
0.464 0.113 0.111 3 
0.462 0.072 0.124 3 
0.464 0.244 0.09 3 
0.469 0.263 0.183 3 
0.468 0.272 0.183 3 
0.469 0.282 0.183 3 
0.47 0.274 0.192 3 
0.469 0.154 0.188 3 
0.469 0.162 0.188 3 
0.469 0.174 0.188 3 
0.469 0.182 0.189 3 
0.469 0.194 0.189 3 
0.469 0.203 0.189 3 
0.469 0.212 0.189 3 
0.469 0.224 0.19 3 
0.469 0.233 0.19 3 
0.469 0.242 0.19 3 
0.47 0.252 0.191 3 
0.472 0.263 0.193 3 
0.464 0.284 0.093 3 
0.47 0.281 0.193 3 
0.47 0.29 0.193 3 
0.464 0.18 0.109 3 
0.47 0.304 0.194 3 
0.47 0.314 0.194 3 
0.47 0.317 0.194 3 
0.471 0.322 0.195 3 
0.47 0.332 0.196 3 
0.471 0.344 0.197 3 
0.464 0.143 0.082 3 
0.47 0.35 0.197 3 
0.464 0.094 0.103 3 
0.47 0.114 0.184 3 
0.47 0.122 0.184 3 
0.469 0.133 0.184 3 
0.469 0.136 0.184 3 
0.471 0.332 0.193 3 
0.471 0.344 0.194 3 
0.471 0.351 0.194 3 
0.462 0.313 0.014 3 
0.463 0.322 0.054 3 
0.465 0.192 0.06 3 
0.465 0.252 0.124 3 
0.467 0.341 0.183 3 
0.469 0.113 0.173 3 
0.468 0.132 0.164 3 
0.467 0.213 0.174 3 
0.464 0.249 0.054 3 
0.47 0.083 0.187 3 
0.471 0.092 0.187 3 
0.471 0.103 0.187 3 
0.468 0.284 0.174 3 
0.471 0.114 0.188 3 
0.47 0.122 0.187 3 
0.47 0.134 0.188 3 
0.471 0.143 0.188 3 
0.462 0.073 0.153 3 
0.465 0.162 0.153 3 
0.466 0.173 0.153 3 
0.465 0.182 0.153 3 
0.466 0.194 0.154 3 
0.466 0.203 0.154 3 
0.465 0.214 0.154 3 
0.465 0.223 0.154 3 
0.465 0.232 0.154 3 
0.465 0.183 0.084 3 
0.464 0.243 0.154 3 
0.464 0.301 0.139 3 
0.463 0.339 0.054 3 
0.466 0.154 0.153 3 
0.465 0.079 0.154 3 
0.464 0.243 0.157 3 
0.467 0.346 0.162 3 
0.466 0.282 0.162 3 
0.465 0.259 0.06 3 
0.467 0.292 0.163 3 
0.467 0.302 0.163 3 
0.466 0.314 0.163 3 
0.467 0.322 0.164 3 
0.463 0.333 0.123 3 
0.467 0.333 0.164 3 
0.465 0.293 0.153 3 
0.468 0.343 0.153 3 
0.469 0.348 0.154 3 
0.461 0.244 0.013 3 
0.464 0.282 0.127 3 
0.464 0.076 0.149 3 
0.465 0.238 0.152 3 
0.464 0.249 0.152 3 
0.465 0.253 0.152 3 
0.466 0.263 0.153 3 
0.464 0.073 0.143 3 
0.464 0.28 0.153 3 
0.465 0.284 0.153 3 
0.465 0.341 0.164 3 
0.466 0.304 0.154 3 
0.466 0.307 0.154 3 
0.464 0.336 0.062 3 
0.451 0.064 0.101 3 
0.467 0.093 0.153 3 
0.467 0.104 0.153 3 
0.467 0.112 0.153 3 
0.467 0.123 0.153 3 
0.467 0.132 0.153 3 
0.465 0.124 0.063 3 
0.467 0.143 0.153 3 
0.467 0.264 0.173 3 
0.465 0.174 0.164 3 
0.465 0.179 0.164 3 
0.464 0.102 0.084 3 
0.467 0.303 0.172 3 
0.466 0.312 0.172 3 
0.468 0.324 0.173 3 
0.468 0.334 0.174 3 
0.465 0.341 0.173 3 
0.465 0.345 0.173 3 
0.467 0.234 0.172 3 
0.466 0.242 0.172 3 
0.466 0.251 0.172 3 
0.465 0.162 0.164 3 
0.464 0.342 0.141 3 
0.468 0.272 0.174 3 
0.468 0.288 0.174 3 
0.463 0.343 0.176 3 
0.464 0.242 0.104 3 
0.463 0.214 0.013 3 
0.465 0.102 0.044 3 
0.468 0.083 0.172 3 
0.468 0.094 0.172 3 
0.465 0.139 0.122 3 
0.469 0.102 0.173 3 
0.466 0.263 0.164 3 
0.465 0.122 0.122 3 
0.464 0.283 0.023 3 
0.465 0.108 0.039 3 
0.465 0.194 0.162 3 
0.466 0.203 0.163 3 
0.465 0.214 0.162 3 
0.465 0.223 0.163 3 
0.466 0.233 0.163 3 
0.465 0.244 0.163 3 
0.464 0.249 0.163 3 
0.465 0.253 0.164 3 
0.465 0.274 0.153 3 
0.467 0.332 0.153 3 
0.466 0.269 0.164 3 
0.464 0.294 0.113 3 
0.463 0.073 0.162 3 
0.467 0.082 0.163 3 
0.468 0.093 0.164 3 
0.468 0.104 0.164 3 
0.468 0.113 0.164 3 
0.468 0.124 0.164 3 
0.467 0.143 0.164 3 
0.466 0.154 0.164 3 
0.465 0.279 0.082 3 
0.465 0.224 0.063 3 
0.464 0.083 0.063 3 
0.464 0.091 0.063 3 
0.465 0.094 0.063 3 
0.464 0.1 0.063 3 
0.465 0.103 0.063 3 
0.464 0.11 0.063 3 
0.465 0.114 0.063 3 
0.465 0.133 0.063 3 
0.464 0.138 0.063 3 
0.465 0.144 0.063 3 
0.464 0.174 0.063 3 
0.464 0.182 0.063 3 
0.464 0.194 0.063 3 
0.464 0.202 0.063 3 
0.464 0.214 0.063 3 
0.465 0.081 0.063 3 
0.464 0.232 0.063 3 
0.464 0.243 0.063 3 
0.464 0.249 0.063 3 
0.465 0.253 0.063 3 
0.464 0.265 0.063 3 
0.465 0.275 0.063 3 
0.464 0.284 0.063 3 
0.463 0.293 0.062 3 
0.464 0.303 0.062 3 
0.463 0.312 0.062 3 
0.463 0.322 0.062 3 
0.465 0.341 0.062 3 
0.464 0.258 0.065 3 
0.465 0.075 0.068 3 
0.464 0.2 0.068 3 
0.464 0.262 0.054 3 
0.465 0.149 0.052 3 
0.465 0.161 0.052 3 
0.464 0.163 0.052 3 
0.464 0.174 0.052 3 
0.465 0.177 0.052 3 
0.465 0.203 0.052 3 
0.465 0.287 0.051 3 
0.464 0.194 0.054 3 
0.464 0.202 0.054 3 
0.464 0.214 0.054 3 
0.465 0.221 0.054 3 
0.464 0.223 0.054 3 
0.464 0.232 0.054 3 
0.465 0.253 0.054 3 
0.465 0.276 0.068 3 
0.465 0.269 0.054 3 
0.464 0.271 0.054 3 
0.465 0.284 0.054 3 
0.464 0.294 0.054 3 
0.463 0.302 0.054 3 
0.465 0.203 0.06 3 
0.465 0.206 0.06 3 
0.464 0.223 0.06 3 
0.464 0.154 0.052 3 
0.464 0.243 0.054 3 
0.463 0.213 0.024 3 
0.464 0.163 0.033 3 
0.463 0.064 0.063 3 
0.464 0.067 0.063 3 
0.465 0.073 0.063 3 
0.46 0.064 0.081 3 
0.465 0.253 0.074 3 
0.465 0.262 0.074 3 
0.464 0.272 0.074 3 
0.464 0.284 0.074 3 
0.464 0.294 0.074 3 
0.463 0.302 0.074 3 
0.464 0.313 0.074 3 
0.464 0.323 0.074 3 
0.463 0.332 0.074 3 
0.463 0.335 0.074 3 
0.465 0.341 0.074 3 
0.465 0.265 0.071 3 
0.465 0.256 0.079 3 
0.462 0.142 0.014 3 
0.464 0.154 0.063 3 
0.464 0.246 0.074 3 
0.464 0.113 0.082 3 
0.464 0.194 0.082 3 
0.465 0.209 0.082 3 
0.464 0.274 0.023 3 
0.465 0.215 0.082 3 
0.464 0.223 0.082 3 
0.464 0.232 0.082 3 
0.464 0.244 0.082 3 
0.464 0.247 0.082 3 
0.465 0.253 0.082 3 
0.463 0.262 0.082 3 
0.464 0.272 0.082 3 
0.464 0.284 0.082 3 
0.464 0.303 0.082 3 
0.464 0.313 0.082 3 
0.465 0.141 0.074 3 
0.465 0.124 0.052 3 
0.463 0.312 0.043 3 
0.465 0.073 0.071 3 
0.465 0.114 0.071 3 
0.465 0.158 0.071 3 
0.465 0.186 0.071 3 
0.465 0.224 0.071 3 
0.462 0.064 0.073 3 
0.463 0.072 0.073 3 
0.464 0.094 0.073 3 
0.464 0.102 0.073 3 
0.464 0.113 0.073 3 
0.464 0.119 0.073 3 
0.465 0.122 0.074 3 
0.465 0.133 0.074 3 
0.465 0.144 0.052 3 
0.464 0.143 0.073 3 
0.465 0.152 0.074 3 
0.464 0.154 0.073 3 
0.464 0.163 0.073 3 
0.464 0.174 0.074 3 
0.464 0.183 0.074 3 
0.464 0.194 0.074 3 
0.465 0.203 0.074 3 
0.465 0.209 0.074 3 
0.464 0.214 0.074 3 
0.464 0.223 0.074 3 
0.464 0.232 0.074 3 
0.464 0.241 0.074 3 
0.465 0.244 0.074 3 
0.461 0.053 0.034 3 
0.463 0.174 0.022 3 
0.463 0.182 0.022 3 
0.464 0.203 0.024 3 
0.463 0.234 0.024 3 
0.463 0.243 0.024 3 
0.463 0.252 0.024 3 
0.463 0.264 0.024 3 
0.463 0.292 0.023 3 
0.463 0.314 0.023 3 
0.462 0.321 0.023 3 
0.462 0.334 0.022 3 
0.463 0.339 0.022 3 
0.465 0.113 0.031 3 
0.465 0.116 0.031 3 
0.462 0.123 0.012 3 
0.463 0.162 0.022 3 
0.464 0.072 0.034 3 
0.464 0.083 0.033 3 
0.464 0.094 0.033 3 
0.464 0.102 0.033 3 
0.464 0.113 0.033 3 
0.464 0.124 0.033 3 
0.464 0.132 0.033 3 
0.464 0.143 0.033 3 
0.464 0.154 0.033 3 
0.464 0.168 0.033 3 
0.465 0.172 0.033 3 
0.464 0.194 0.033 3 
0.464 0.214 0.032 3 
0.464 0.223 0.032 3 
0.463 0.234 0.032 3 
0.462 0.282 0.012 3 
0.462 0.083 0.012 3 
0.462 0.093 0.012 3 
0.462 0.104 0.012 3 
0.462 0.112 0.012 3 
0.462 0.134 0.012 3 
0.462 0.154 0.014 3 
0.462 0.162 0.014 3 
0.462 0.173 0.014 3 
0.461 0.184 0.014 3 
0.462 0.193 0.014 3 
0.462 0.204 0.014 3 
0.462 0.224 0.013 3 
0.461 0.232 0.013 3 
0.461 0.253 0.013 3 
0.461 0.262 0.013 3 
0.463 0.243 0.032 3 
0.462 0.294 0.012 3 
0.462 0.304 0.012 3 
0.463 0.324 0.014 3 
0.461 0.333 0.014 3 
0.462 0.338 0.014 3 
0.461 0.053 0.023 3 
0.463 0.064 0.023 3 
0.464 0.072 0.023 3 
0.464 0.083 0.023 3 
0.464 0.094 0.023 3 
0.463 0.104 0.023 3 
0.464 0.113 0.023 3 
0.464 0.124 0.023 3 
0.463 0.143 0.022 3 
0.463 0.154 0.022 3 
0.457 0.052 0.047 3 
0.464 0.182 0.044 3 
0.464 0.194 0.044 3 
0.464 0.202 0.043 3 
0.464 0.214 0.043 3 
0.464 0.223 0.043 3 
0.464 0.243 0.043 3 
0.464 0.252 0.043 3 
0.464 0.223 0.024 3 
0.463 0.264 0.043 3 
0.464 0.274 0.043 3 
0.464 0.277 0.043 3 
0.465 0.284 0.043 3 
0.463 0.302 0.043 3 
0.461 0.333 0.042 3 
0.462 0.338 0.042 3 
0.464 0.171 0.044 3 
0.464 0.141 0.047 3 
0.465 0.226 0.046 3 
0.464 0.078 0.049 3 
0.465 0.097 0.049 3 
0.465 0.113 0.049 3 
0.465 0.186 0.049 3 
0.463 0.301 0.023 3 
0.449 0.051 0.052 3 
0.464 0.067 0.052 3 
0.465 0.073 0.052 3 
0.465 0.083 0.052 3 
0.465 0.094 0.052 3 
0.464 0.102 0.052 3 
0.464 0.113 0.052 3 
0.465 0.133 0.052 3 
0.465 0.073 0.044 3 
0.463 0.252 0.032 3 
0.463 0.264 0.032 3 
0.464 0.283 0.034 3 
0.464 0.293 0.034 3 
0.463 0.304 0.034 3 
0.462 0.311 0.034 3 
0.463 0.322 0.034 3 
0.462 0.334 0.034 3 
0.463 0.339 0.034 3 
0.464 0.094 0.039 3 
0.458 0.052 0.042 3 
0.464 0.132 0.041 3 
0.464 0.293 0.04 3 
0.463 0.064 0.044 3 
0.464 0.07 0.044 3 
0.464 0.183 0.134 3 
0.464 0.08 0.044 3 
0.465 0.083 0.044 3 
0.465 0.094 0.044 3 
0.464 0.096 0.044 3 
0.464 0.113 0.044 3 
0.464 0.116 0.044 3 
0.465 0.124 0.044 3 
0.465 0.133 0.044 3 
0.465 0.135 0.044 3 
0.464 0.143 0.044 3 
0.465 0.149 0.044 3 
0.464 0.152 0.044 3 
0.465 0.158 0.044 3 
0.464 0.163 0.044 3 
0.465 0.204 0.112 3 
0.465 0.28 0.119 3 
0.464 0.113 0.117 3 
0.465 0.178 0.114 3 
0.464 0.174 0.114 3 
0.464 0.163 0.114 3 
0.465 0.161 0.114 3 
0.464 0.152 0.114 3 
0.465 0.15 0.114 3 
0.465 0.292 0.119 3 
0.464 0.144 0.114 3 
0.464 0.133 0.114 3 
0.464 0.124 0.114 3 
0.465 0.114 0.114 3 
0.465 0.103 0.114 3 
0.465 0.092 0.114 3 
0.465 0.084 0.114 3 
0.464 0.304 0.122 3 
0.465 0.103 0.122 3 
0.465 0.092 0.122 3 
0.465 0.341 0.094 3 
0.464 0.338 0.123 3 
0.464 0.324 0.123 3 
0.465 0.315 0.123 3 
0.464 0.311 0.122 3 
0.465 0.308 0.122 3 
0.464 0.081 0.114 3 
0.465 0.152 0.084 3 
0.464 0.26 0.121 3 
0.465 0.153 0.12 3 
0.464 0.124 0.119 3 
0.464 0.103 0.119 3 
0.465 0.332 0.12 3 
0.465 0.299 0.119 3 
0.465 0.227 0.11 3 
0.464 0.242 0.112 3 
0.464 0.233 0.112 3 
0.465 0.224 0.112 3 
0.463 0.322 0.043 3 
0.465 0.192 0.112 3 
0.465 0.172 0.112 3 
0.464 0.337 0.111 3 
0.463 0.339 0.082 3 
0.465 0.294 0.043 3 
0.465 0.133 0.109 3 
0.465 0.117 0.109 3 
0.464 0.294 0.082 3 
0.464 0.089 0.108 3 
0.464 0.102 0.106 3 
0.464 0.323 0.105 3 
0.464 0.269 0.104 3 
0.465 0.292 0.113 3 
0.464 0.073 0.114 3 
0.465 0.338 0.114 3 
0.464 0.334 0.114 3 
0.466 0.333 0.114 3 
0.465 0.321 0.114 3 
0.465 0.311 0.114 3 
0.464 0.307 0.114 3 
0.465 0.302 0.114 3 
0.465 0.114 0.122 3 
0.464 0.282 0.113 3 
0.465 0.279 0.113 3 
0.465 0.273 0.113 3 
0.465 0.264 0.113 3 
0.464 0.26 0.113 3 
0.464 0.254 0.113 3 
0.465 0.246 0.113 3 
0.465 0.283 0.133 3 
0.462 0.332 0.134 3 
0.465 0.329 0.134 3 
0.465 0.322 0.134 3 
0.467 0.344 0.124 3 
0.464 0.314 0.134 3 
0.464 0.304 0.133 3 
0.464 0.292 0.133 3 
0.465 0.286 0.133 3 
0.462 0.339 0.134 3 
0.465 0.274 0.133 3 
0.465 0.261 0.133 3 
0.463 0.132 0.022 3 
0.465 0.252 0.132 3 
0.464 0.242 0.132 3 
0.464 0.254 0.121 3 
0.464 0.233 0.132 3 
0.465 0.122 0.133 3 
0.465 0.192 0.134 3 
0.465 0.262 0.051 3 
0.465 0.178 0.134 3 
0.464 0.172 0.133 3 
0.464 0.163 0.133 3 
0.465 0.153 0.133 3 
0.464 0.149 0.133 3 
0.465 0.133 0.133 3 
0.465 0.158 0.131 3 
0.464 0.116 0.133 3 
0.464 0.114 0.133 3 
0.465 0.103 0.133 3 
0.465 0.092 0.133 3 
0.465 0.084 0.133 3 
0.464 0.081 0.133 3 
0.463 0.073 0.132 3 
0.464 0.175 0.122 3 
0.464 0.233 0.123 3 
0.464 0.224 0.123 3 
0.465 0.219 0.123 3 
0.465 0.212 0.123 3 
0.465 0.204 0.123 3 
0.464 0.152 0.092 3 
0.465 0.192 0.123 3 
0.465 0.184 0.123 3 
0.464 0.242 0.124 3 
0.464 0.172 0.122 3 
0.464 0.163 0.122 3 
0.464 0.152 0.122 3 
0.464 0.182 0.054 3 
0.464 0.144 0.122 3 
0.465 0.133 0.122 3 
0.464 0.127 0.122 3 
0.464 0.272 0.11 3 
0.465 0.264 0.124 3 
0.465 0.273 0.124 3 
0.464 0.282 0.124 3 
0.464 0.285 0.124 3 
0.465 0.312 0.125 3 
0.464 0.321 0.125 3 
0.467 0.345 0.127 3 
0.464 0.084 0.124 3 
0.465 0.21 0.126 3 
0.464 0.248 0.127 3 
0.464 0.125 0.127 3 
0.464 0.144 0.128 3 
0.465 0.243 0.129 3 
0.465 0.203 0.082 3 
0.465 0.114 0.13 3 
0.465 0.183 0.093 3 
0.464 0.254 0.093 3 
0.465 0.244 0.093 3 
0.465 0.233 0.093 3 
0.465 0.224 0.093 3 
0.464 0.217 0.093 3 
0.465 0.206 0.093 3 
0.465 0.203 0.093 3 
0.465 0.192 0.093 3 
0.463 0.262 0.093 3 
0.464 0.174 0.093 3 
0.464 0.064 0.052 3 
0.465 0.172 0.093 3 
0.464 0.163 0.092 3 
0.465 0.155 0.093 3 
0.464 0.143 0.092 3 
0.465 0.136 0.092 3 
0.464 0.337 0.094 3 
0.464 0.288 0.099 3 
0.464 0.223 0.098 3 
0.464 0.2 0.098 3 
0.464 0.232 0.096 3 
0.462 0.272 0.013 3 
0.465 0.152 0.095 3 
0.465 0.114 0.095 3 
0.456 0.065 0.094 3 
0.463 0.064 0.034 3 
0.463 0.332 0.094 3 
0.464 0.323 0.094 3 
0.464 0.313 0.094 3 
0.464 0.303 0.094 3 
0.464 0.211 0.093 3 
0.465 0.295 0.094 3 
0.463 0.274 0.093 3 
0.465 0.133 0.084 3 
0.465 0.189 0.084 3 
0.464 0.18 0.084 3 
0.464 0.174 0.084 3 
0.462 0.334 0.054 3 
0.465 0.172 0.084 3 
0.464 0.163 0.084 3 
0.464 0.149 0.084 3 
0.465 0.144 0.084 3 
0.464 0.2 0.084 3 
0.465 0.122 0.084 3 
0.465 0.114 0.084 3 
0.465 0.097 0.084 3 
0.464 0.094 0.084 3 
0.465 0.089 0.084 3 
0.464 0.083 0.084 3 
0.462 0.072 0.084 3 
0.465 0.331 0.091 3 
0.464 0.132 0.092 3 
0.464 0.124 0.092 3 
0.465 0.122 0.092 3 
0.464 0.113 0.092 3 
0.464 0.102 0.092 3 
0.464 0.094 0.092 3 
0.464 0.083 0.092 3 
0.463 0.193 0.022 3 
0.464 0.254 0.104 3 
0.464 0.232 0.09 3 
0.465 0.133 0.09 3 
0.465 0.114 0.09 3 
0.462 0.314 0.054 3 
0.465 0.247 0.088 3 
0.465 0.152 0.087 3 
0.464 0.211 0.084 3 
0.465 0.144 0.103 3 
0.462 0.331 0.102 3 
0.464 0.337 0.103 3 
0.465 0.341 0.103 3 
0.465 0.272 0.063 3 
0.464 0.232 0.043 3 
0.462 0.072 0.103 3 
0.464 0.083 0.103 3 
0.464 0.102 0.103 3 
0.464 0.113 0.103 3 
0.464 0.119 0.103 3 
0.465 0.122 0.103 3 
0.464 0.127 0.103 3 
0.465 0.133 0.103 3 
0.464 0.141 0.103 3 
0.465 0.311 0.1 3 
0.464 0.152 0.103 3 
0.464 0.16 0.103 3 
0.465 0.164 0.103 3 
0.465 0.169 0.103 3 
0.464 0.171 0.103 3 
0.465 0.181 0.104 3 
0.464 0.183 0.103 3 
0.464 0.191 0.104 3 
0.465 0.203 0.104 3 
0.465 0.212 0.104 3 
0.465 0.224 0.104 3 
0.465 0.233 0.104 3 
0.464 0.323 0.082 3 
0.464 0.263 0.104 3 
0.464 0.313 0.102 3 
0.452 0.065 0.099 3 
0.465 0.192 0.101 3 
0.464 0.211 0.101 3 
0.465 0.236 0.101 3 
0.462 0.334 0.082 3 
0.464 0.278 0.102 3 
0.465 0.282 0.102 3 
0.464 0.304 0.102 3 
0.465 0.292 0.102 3 
0.465 0.301 0.102 3 
0.465 0.331 0.1 3 
0.464 0.323 0.102 3 
