# .PCD v0.7 - Point Cloud Data file
FIELDS x y z intensity
SIZE 4 4 4 4
TYPE F F F F
COUNT 1 1 1 1
WIDTH 1950
HEIGHT 1
VIEWPOINT 0 0 0 1 0 0 0
POINTS 1950
DATA ascii
0.431 0.125 0.038 0 
0.274 -0.044 0.085 0 
0.277 -0.043 0.086 0 
0.339 -0.052 0.09 0 
0.351 -0.05 0.087 0 
0.255 -0.055 0.095 0 
0.275 -0.047 0.088 0 
0.256 -0.054 0.094 0 
0.256 -0.055 0.094 0 
0.306 -0.046 0.087 0 
0.253 -0.056 0.095 0 
0.25 -0.057 0.094 0 
0.243 -0.058 0.091 0 
0.234 -0.06 0.088 0 
0.228 -0.065 0.086 0 
0.265 -0.05 0.09 0 
0.341 0.011 0.004 0 
0.254 -0.054 0.092 0 
0.345 0.011 0.009 0 
0.319 -0.044 0.085 0 
0.324 -0.125 -0.003 1 
0.324 -0.035 -0.001 1 
0.324 -0.025 -0.001 1 
0.354 0.063 -0.013 1 
0.354 0.075 -0.013 1 
0.352 0.123 -0.014 1 
0.351 0.134 -0.014 1 
0.353 0.142 -0.015 1 
0.351 0.164 -0.015 1 
0.343 0.205 -0.015 1 
0.331 -0.149 -0.005 1 
0.332 -0.125 -0.004 1 
0.331 -0.116 -0.004 1 
0.321 -0.085 0 1 
0.322 -0.076 0 1 
0.324 -0.015 0 1 
0.323 -0.008 0 1 
0.353 0.017 -0.011 1 
0.36 0.074 -0.014 1 
0.361 0.087 -0.014 1 
0.361 0.094 -0.015 1 
0.353 0.168 -0.014 1 
0.354 0.173 -0.015 1 
0.353 0.182 -0.015 1 
0.351 0.194 -0.015 1 
0.351 0.214 -0.016 1 
0.339 -0.175 -0.007 1 
0.337 -0.167 -0.006 1 
0.332 -0.105 -0.002 1 
0.364 0.034 -0.013 1 
0.364 0.037 -0.013 1 
0.367 0.067 -0.014 1 
0.364 0.084 -0.014 1 
0.365 0.102 -0.014 1 
0.363 0.104 -0.014 1 
0.363 0.114 -0.014 1 
0.364 0.122 -0.014 1 
0.364 0.124 -0.015 1 
0.364 0.126 -0.015 1 
0.362 0.134 -0.014 1 
0.363 0.14 -0.015 1 
0.362 0.141 -0.014 1 
0.364 0.147 -0.015 1 
0.358 0.193 -0.016 1 
0.357 0.203 -0.016 1 
0.342 -0.141 -0.005 1 
0.341 -0.135 -0.004 1 
0.341 -0.126 -0.004 1 
0.324 -0.065 0.002 1 
0.324 -0.063 0.002 1 
0.334 -0.029 0 1 
0.37 0.083 -0.014 1 
0.371 0.089 -0.014 1 
0.373 0.094 -0.015 1 
0.373 0.104 -0.015 1 
0.371 0.105 -0.015 1 
0.369 0.113 -0.014 1 
0.361 0.098 -0.015 1 
0.369 0.117 -0.014 1 
0.37 0.123 -0.015 1 
0.37 0.133 -0.015 1 
0.368 0.164 -0.015 1 
0.363 0.171 -0.014 1 
0.364 0.176 -0.015 1 
0.364 0.214 -0.017 1 
0.36 0.224 -0.016 1 
0.351 -0.183 -0.008 1 
0.345 -0.135 -0.004 1 
0.361 0.016 -0.008 1 
0.372 0.033 -0.012 1 
0.373 0.043 -0.012 1 
0.374 0.054 -0.013 1 
0.38 0.074 -0.015 1 
0.378 0.083 -0.015 1 
0.378 0.094 -0.015 1 
0.374 0.138 -0.015 1 
0.373 0.143 -0.014 1 
0.372 0.174 -0.015 1 
0.371 0.184 -0.016 1 
0.374 0.202 -0.017 1 
0.372 0.211 -0.017 1 
0.372 0.223 -0.018 1 
0.353 -0.165 -0.006 1 
0.352 -0.155 -0.005 1 
0.354 -0.145 -0.006 1 
0.352 -0.136 -0.005 1 
0.352 -0.134 -0.005 1 
0.351 -0.116 -0.004 1 
0.384 0.071 -0.014 1 
0.385 0.073 -0.015 1 
0.383 0.084 -0.014 1 
0.384 0.099 -0.015 1 
0.382 0.114 -0.015 1 
0.381 0.118 -0.014 1 
0.382 0.124 -0.015 1 
0.383 0.133 -0.015 1 
0.38 0.142 -0.015 1 
0.379 0.143 -0.014 1 
0.379 0.154 -0.015 1 
0.382 0.164 -0.016 1 
0.362 -0.177 -0.007 1 
0.356 -0.186 -0.008 1 
0.358 -0.126 -0.005 1 
0.359 -0.122 -0.005 1 
0.333 -0.076 0.003 1 
0.33 -0.073 0.004 1 
0.333 -0.059 0.004 1 
0.333 -0.041 0.003 1 
0.331 -0.015 0.004 1 
0.332 -0.005 0.004 1 
0.333 -0.004 0.003 1 
0.345 0.01 0 1 
0.384 0.033 -0.012 1 
0.384 0.035 -0.012 1 
0.393 0.047 -0.015 1 
0.39 0.075 -0.014 1 
0.391 0.083 -0.015 1 
0.39 0.087 -0.015 1 
0.389 0.095 -0.014 1 
0.392 0.103 -0.016 1 
0.387 0.134 -0.015 1 
0.384 0.149 -0.014 1 
0.384 0.184 -0.016 1 
0.383 0.194 -0.016 1 
0.384 0.204 -0.016 1 
0.378 0.244 -0.017 1 
0.372 -0.188 -0.009 1 
0.366 -0.176 -0.007 1 
0.362 -0.165 -0.005 1 
0.363 -0.146 -0.005 1 
0.361 -0.141 -0.004 1 
0.363 -0.136 -0.005 1 
0.365 -0.126 -0.005 1 
0.365 -0.124 -0.005 1 
0.336 -0.02 0.004 1 
0.35 0.135 -0.014 1 
0.384 0.018 -0.01 1 
0.394 0.037 -0.013 1 
0.394 0.064 -0.013 1 
0.394 0.074 -0.014 1 
0.398 0.084 -0.015 1 
0.399 0.114 -0.016 1 
0.394 0.123 -0.014 1 
0.392 0.139 -0.014 1 
0.393 0.144 -0.015 1 
0.393 0.146 -0.015 1 
0.389 0.152 -0.014 1 
0.392 0.163 -0.015 1 
0.392 0.181 -0.016 1 
0.39 0.194 -0.016 1 
0.392 0.212 -0.017 1 
0.375 -0.186 -0.008 1 
0.364 -0.157 -0.004 1 
0.345 -0.055 0.003 1 
0.341 -0.051 0.004 1 
0.343 -0.036 0.003 1 
0.34 -0.026 0.004 1 
0.336 -0.022 0.006 1 
0.344 0.003 0.003 1 
0.401 0.021 -0.013 1 
0.404 0.034 -0.014 1 
0.4 0.053 -0.013 1 
0.399 0.063 -0.013 1 
0.399 0.074 -0.013 1 
0.404 0.099 -0.015 1 
0.404 0.119 -0.015 1 
0.4 0.124 -0.014 1 
0.398 0.134 -0.014 1 
0.4 0.146 -0.015 1 
0.394 0.157 -0.013 1 
0.397 0.174 -0.015 1 
0.394 0.241 -0.017 1 
0.394 0.254 -0.017 1 
0.348 -0.098 0.003 1 
0.331 -0.045 0.004 1 
0.346 -0.035 0.004 1 
0.414 0.042 -0.015 1 
0.41 0.044 -0.014 1 
0.406 0.074 -0.013 1 
0.411 0.086 -0.015 1 
0.411 0.104 -0.015 1 
0.411 0.113 -0.015 1 
0.41 0.117 -0.015 1 
0.39 0.024 -0.012 1 
0.404 0.139 -0.013 1 
0.403 0.154 -0.014 1 
0.399 0.161 -0.013 1 
0.403 0.176 -0.014 1 
0.404 0.184 -0.015 1 
0.404 0.193 -0.015 1 
0.401 0.203 -0.015 1 
0.402 0.223 -0.016 1 
0.4 0.234 -0.016 1 
0.4 0.244 -0.016 1 
0.366 -0.158 0 1 
0.364 -0.152 0 1 
0.37 -0.135 -0.001 1 
0.369 -0.125 0 1 
0.365 -0.117 0 1 
0.354 -0.105 0.003 1 
0.413 0.022 -0.012 1 
0.414 0.054 -0.013 1 
0.413 0.082 -0.013 1 
0.414 0.087 -0.013 1 
0.414 0.103 -0.013 1 
0.411 0.134 -0.013 1 
0.411 0.143 -0.013 1 
0.411 0.153 -0.014 1 
0.363 0.014 -0.007 1 
0.408 0.224 -0.015 1 
0.401 0.264 -0.015 1 
0.401 0.267 -0.015 1 
0.363 -0.125 0.002 1 
0.359 -0.117 0.003 1 
0.359 -0.113 0.003 1 
0.353 0.113 -0.014 1 
0.353 -0.108 0.005 1 
0.347 -0.103 0.007 1 
0.337 -0.095 0.01 1 
0.352 0.033 -0.012 1 
0.345 -0.033 0.008 1 
0.42 0.053 -0.012 1 
0.421 0.062 -0.013 1 
0.421 0.074 -0.013 1 
0.418 0.084 -0.012 1 
0.419 0.094 -0.012 1 
0.414 0.179 -0.013 1 
0.414 0.232 -0.015 1 
0.412 0.243 -0.015 1 
0.413 0.252 -0.015 1 
0.414 0.264 -0.016 1 
0.41 0.274 -0.015 1 
0.337 -0.089 0.007 1 
0.423 0.102 -0.011 1 
0.424 0.11 -0.012 1 
0.424 0.124 -0.012 1 
0.423 0.143 -0.012 1 
0.423 0.153 -0.012 1 
0.421 0.192 -0.013 1 
0.419 0.255 -0.014 1 
0.421 0.263 -0.015 1 
0.418 0.274 -0.015 1 
0.416 0.283 -0.015 1 
0.353 0.154 -0.015 1 
0.322 -0.095 -0.001 1 
0.334 -0.046 0.014 1 
0.389 0.093 -0.014 1 
0.343 0.009 -0.005 1 
0.433 0.043 -0.011 1 
0.434 0.053 -0.011 1 
0.434 0.06 -0.011 1 
0.433 0.072 -0.011 1 
0.431 0.084 -0.011 1 
0.43 0.093 -0.011 1 
0.43 0.112 -0.011 1 
0.429 0.124 -0.011 1 
0.427 0.143 -0.011 1 
0.428 0.153 -0.011 1 
0.424 0.164 -0.01 1 
0.424 0.181 -0.011 1 
0.424 0.204 -0.011 1 
0.362 -0.159 -0.005 1 
0.424 0.214 -0.012 1 
0.341 -0.155 -0.005 1 
0.424 0.222 -0.012 1 
0.424 0.233 -0.012 1 
0.424 0.244 -0.013 1 
0.424 0.246 -0.013 1 
0.425 0.287 -0.015 1 
0.422 0.29 -0.014 1 
0.412 0.212 -0.013 1 
0.434 0.024 -0.009 1 
0.443 0.042 -0.011 1 
0.441 0.052 -0.01 1 
0.439 0.064 -0.01 1 
0.44 0.084 -0.011 1 
0.433 0.164 -0.01 1 
0.431 0.173 -0.01 1 
0.432 0.184 -0.01 1 
0.433 0.193 -0.011 1 
0.43 0.203 -0.01 1 
0.43 0.233 -0.011 1 
0.43 0.244 -0.012 1 
0.43 0.252 -0.012 1 
0.432 0.262 -0.013 1 
0.432 0.271 -0.013 1 
0.379 -0.208 -0.01 1 
0.433 0.281 -0.014 1 
0.431 0.297 -0.014 1 
0.422 0.044 -0.013 1 
0.346 -0.056 0.014 1 
0.344 -0.054 0.014 1 
0.348 0.011 -0.005 1 
0.406 0.017 -0.015 1 
0.444 0.03 -0.009 1 
0.444 0.07 -0.009 1 
0.441 0.104 -0.009 1 
0.44 0.124 -0.009 1 
0.44 0.134 -0.009 1 
0.44 0.163 -0.009 1 
0.434 0.217 -0.009 1 
0.434 0.294 -0.012 1 
0.452 0.054 -0.008 1 
0.45 0.092 -0.008 1 
0.444 0.173 -0.008 1 
0.411 0.194 -0.015 1 
0.444 0.184 -0.008 1 
0.441 0.204 -0.008 1 
0.44 0.244 -0.009 1 
0.441 0.271 -0.01 1 
0.443 0.282 -0.011 1 
0.442 0.293 -0.011 1 
0.443 0.316 -0.012 1 
0.385 -0.009 0.009 1 
0.454 0.029 -0.006 1 
0.455 0.034 -0.006 1 
0.455 0.057 -0.006 1 
0.454 0.062 -0.006 1 
0.453 0.07 -0.006 1 
0.371 0.015 -0.008 1 
0.455 0.073 -0.006 1 
0.455 0.096 -0.007 1 
0.453 0.104 -0.006 1 
0.452 0.124 -0.006 1 
0.452 0.132 -0.006 1 
0.452 0.153 -0.007 1 
0.45 0.164 -0.007 1 
0.394 0.233 -0.016 1 
0.45 0.183 -0.007 1 
0.443 0.304 -0.009 1 
0.442 0.306 -0.009 1 
0.344 -0.118 -0.003 1 
0.43 -0.013 0.001 1 
0.461 0.042 -0.005 1 
0.46 0.053 -0.005 1 
0.459 0.087 -0.005 1 
0.454 0.125 -0.004 1 
0.456 0.134 -0.005 1 
0.455 0.183 -0.005 1 
0.454 0.185 -0.005 1 
0.455 0.2 -0.006 1 
0.453 0.204 -0.005 1 
0.451 0.214 -0.005 1 
0.451 0.222 -0.005 1 
0.451 0.234 -0.006 1 
0.452 0.243 -0.006 1 
0.45 0.253 -0.006 1 
0.448 0.263 -0.006 1 
0.454 0.262 -0.004 1 
0.454 0.284 -0.005 1 
0.455 0.288 -0.005 1 
0.454 0.293 -0.005 1 
0.454 0.299 -0.005 1 
0.455 0.303 -0.006 1 
0.45 0.314 -0.005 1 
0.455 0.326 -0.006 1 
0.45 0.324 -0.005 1 
0.441 0.142 -0.009 1 
0.454 0.041 -0.008 1 
0.404 -0.016 0.011 1 
0.438 -0.016 0.004 1 
0.436 -0.013 0.005 1 
0.375 -0.005 0.016 1 
0.457 0.113 -0.005 1 
0.375 0.002 0.016 1 
0.374 0.004 0.017 1 
0.382 0.01 0.015 1 
0.386 0.012 0.014 1 
0.453 0.317 -0.003 1 
0.442 -0.018 0.006 1 
0.428 -0.013 0.008 1 
0.402 -0.005 0.013 1 
0.398 -0.003 0.014 1 
0.406 0.002 0.013 1 
0.409 0.013 0.012 1 
0.459 0.024 0.003 1 
0.464 0.032 0.002 1 
0.455 0.172 -0.005 1 
0.454 -0.014 0.006 1 
0.454 0.003 0.006 1 
0.452 0.008 0.007 1 
0.462 0.088 0.004 1 
0.462 0.104 0.004 1 
0.462 0.112 0.004 1 
0.463 0.123 0.004 1 
0.463 0.134 0.004 1 
0.461 0.153 0.004 1 
0.46 0.164 0.004 1 
0.462 0.184 0.003 1 
0.46 0.194 0.003 1 
0.462 0.204 0.003 1 
0.463 0.222 0.002 1 
0.463 0.234 0.002 1 
0.464 0.34 0 1 
0.396 0.094 -0.015 1 
0.463 0.261 0.004 1 
0.461 0.268 0.004 1 
0.462 0.294 0.004 1 
0.463 0.302 0.003 1 
0.464 0.313 0.003 1 
0.463 0.321 0.003 1 
0.463 0.328 0.003 1 
0.466 0.338 0.002 1 
0.434 0.134 -0.01 1 
0.443 0.261 -0.007 1 
0.465 0.33 0.005 1 
0.461 -0.017 0.013 1 
0.462 -0.007 0.013 1 
0.461 0.003 0.013 1 
0.462 0.014 0.013 1 
0.461 0.024 0.013 1 
0.414 0.204 -0.014 1 
0.354 0.044 -0.013 1 
0.452 -0.024 0.017 1 
0.443 0.253 -0.007 1 
0.344 -0.058 0.003 1 
0.413 0.123 -0.013 1 
0.374 0.237 -0.017 1 
0.393 0.173 -0.016 1 
0.43 0.103 -0.011 1 
0.453 0.143 -0.007 1 
0.344 -0.055 0.013 1 
0.344 -0.065 0.014 1 
0.393 0.261 -0.017 1 
0.458 0.143 -0.005 1 
0.41 0.198 -0.015 1 
0.424 0.019 -0.011 1 
0.454 0.328 -0.001 1 
0.464 0.244 0.002 1 
0.334 0.004 -0.005 1 
0.373 0.073 -0.015 1 
0.442 0.153 -0.01 1 
0.425 0.284 -0.015 1 
0.424 -0.01 0.009 1 
0.45 0.018 0.004 1 
0.324 -0.105 -0.002 1 
0.413 0.058 -0.013 1 
0.354 0.054 -0.013 1 
0.439 0.213 -0.008 1 
0.456 0.153 -0.005 1 
0.411 0.281 -0.016 1 
0.352 0.202 -0.016 1 
0.4 0.144 -0.015 1 
0.394 0.202 -0.015 1 
0.401 0.213 -0.015 1 
0.374 0.154 -0.015 1 
0.38 0.234 -0.017 1 
0.373 0.062 -0.013 1 
0.455 0.194 -0.006 1 
0.463 0.214 0.002 1 
0.465 0.317 0.003 1 
0.367 -0.173 -0.005 1 
0.389 0.118 -0.015 1 
0.353 0.104 -0.014 1 
0.414 0.224 -0.014 1 
0.374 0.075 -0.015 1 
0.429 0.274 -0.015 1 
0.422 0.172 -0.01 1 
0.353 0.073 -0.013 1 
0.382 0.064 -0.014 1 
0.35 -0.126 -0.004 1 
0.411 0.24 -0.014 1 
0.423 0.133 -0.012 1 
0.389 0.032 -0.012 1 
0.418 0.289 -0.016 1 
0.36 0.163 -0.015 1 
0.411 0.172 -0.012 1 
0.333 -0.095 -0.001 1 
0.391 0.223 -0.017 1 
0.392 0.113 -0.016 1 
0.463 0.143 0.004 1 
0.462 0.173 0.003 1 
0.337 -0.079 0.004 1 
0.438 0.093 -0.01 1 
0.452 0.114 -0.006 1 
0.459 0.084 -0.005 1 
0.434 0.306 -0.015 1 
0.441 0.022 -0.008 1 
0.464 0.253 0.004 1 
0.454 0.274 -0.005 1 
0.408 -0.007 0.012 1 
0.364 0.174 -0.015 1 
0.414 0.031 -0.013 1 
0.415 0.279 -0.014 1 
0.322 -0.135 -0.003 1 
0.392 0.132 -0.014 1 
0.374 0.234 -0.017 1 
0.368 -0.146 -0.001 1 
0.44 0.114 -0.008 1 
0.432 0.034 -0.011 1 
0.393 0.053 -0.013 1 
0.403 0.174 -0.014 1 
0.333 -0.146 -0.004 1 
0.452 0.082 -0.008 1 
0.465 0.254 0.007 1 
0.382 0.054 -0.014 1 
0.378 0.224 -0.018 1 
0.343 -0.095 0 1 
0.332 -0.087 0 1 
0.453 0.27 -0.004 1 
0.324 -0.045 -0.001 1 
0.364 0.054 -0.013 1 
0.463 0.083 0.004 1 
0.335 -0.082 0.006 1 
0.361 0.063 -0.014 1 
0.421 0.09 -0.022 1 
0.404 0.075 -0.012 1 
0.444 0.189 -0.008 1 
0.398 0.253 -0.016 1 
0.343 -0.107 -0.003 1 
0.461 0.281 0.004 1 
0.412 0.163 -0.012 1 
0.345 -0.033 0.004 1 
0.451 0.023 -0.005 1 
0.404 0.043 -0.014 1 
0.379 0.214 -0.017 1 
0.421 0.032 -0.012 1 
0.434 0.214 -0.009 1 
0.44 0.222 -0.008 1 
0.373 0.192 -0.016 1 
0.412 0.233 -0.014 1 
0.334 -0.135 -0.004 1 
0.341 -0.146 -0.005 1 
0.383 0.094 -0.014 1 
0.455 0.164 -0.005 1 
0.449 0.174 -0.007 1 
0.38 0.172 -0.016 1 
0.442 0.232 -0.009 1 
0.339 -0.088 0.004 1 
0.454 -0.022 0.011 1 
0.446 -0.014 0 1 
0.403 0.092 -0.014 1 
0.235 -0.075 0.07 2 
0.304 -0.023 0.028 2 
0.329 -0.046 0.084 2 
0.265 -0.055 0.05 2 
0.225 -0.069 0.084 2 
0.258 -0.045 0.074 2 
0.294 -0.031 0.044 2 
0.285 -0.033 0.074 2 
0.245 -0.085 0.052 2 
0.295 -0.025 0.049 2 
0.314 -0.02 0.044 2 
0.264 -0.042 0.074 2 
0.309 -0.04 0.022 2 
0.27 -0.04 0.074 2 
0.244 -0.085 0.054 2 
0.244 -0.081 0.054 2 
0.275 -0.035 0.053 2 
0.268 -0.046 0.084 2 
0.296 -0.085 0.032 2 
0.339 -0.019 0.038 2 
0.325 -0.075 0.02 2 
0.23 -0.063 0.084 2 
0.249 -0.075 0.054 2 
0.276 -0.066 0.046 2 
0.302 -0.079 0.035 2 
0.246 -0.055 0.074 2 
0.268 -0.065 0.049 2 
0.321 -0.014 0.029 2 
0.245 -0.065 0.064 2 
0.351 -0.049 0.026 2 
0.25 -0.052 0.074 2 
0.274 -0.044 0.084 2 
0.276 -0.043 0.084 2 
0.356 -0.019 0.031 2 
0.276 -0.045 0.046 2 
0.287 -0.035 0.044 2 
0.311 -0.019 0.037 2 
0.338 -0.036 0.019 2 
0.254 -0.066 0.054 2 
0.275 -0.064 0.047 2 
0.286 -0.035 0.046 2 
0.298 -0.025 0.044 2 
0.304 -0.021 0.038 2 
0.325 -0.019 0.037 2 
0.356 -0.055 0.025 2 
0.248 -0.095 0.05 2 
0.255 -0.075 0.049 2 
0.318 -0.057 0.029 2 
0.228 -0.073 0.074 2 
0.319 -0.047 0.029 2 
0.235 -0.061 0.084 2 
0.31 -0.038 0.076 2 
0.3 -0.107 0.025 2 
0.321 -0.038 0.07 2 
0.274 -0.034 0.069 2 
0.267 -0.1 0.038 2 
0.293 -0.024 0.061 2 
0.274 -0.079 0.034 2 
0.256 -0.095 0.044 2 
0.349 -0.042 0.018 2 
0.305 -0.045 0.03 2 
0.291 -0.026 0.064 2 
0.246 -0.057 0.084 2 
0.252 -0.054 0.084 2 
0.239 -0.075 0.064 2 
0.234 -0.078 0.064 2 
0.297 -0.024 0.06 2 
0.338 -0.03 0.013 2 
0.264 -0.071 0.044 2 
0.251 -0.052 0.064 2 
0.25 -0.055 0.064 2 
0.244 -0.063 0.064 2 
0.244 -0.065 0.064 2 
0.262 -0.041 0.064 2 
0.258 -0.045 0.064 2 
0.271 -0.035 0.064 2 
0.274 -0.033 0.064 2 
0.277 -0.032 0.064 2 
0.279 -0.045 0.044 2 
0.323 -0.063 0.011 2 
0.256 -0.065 0.054 2 
0.261 -0.055 0.054 2 
0.262 -0.045 0.054 2 
0.264 -0.042 0.054 2 
0.273 -0.035 0.054 2 
0.274 -0.034 0.054 2 
0.328 -0.062 0.029 2 
0.255 -0.065 0.055 2 
0.283 -0.03 0.054 2 
0.291 -0.025 0.054 2 
0.294 -0.021 0.054 2 
0.296 -0.02 0.054 2 
0.241 -0.085 0.056 2 
0.332 -0.029 0.016 2 
0.332 -0.009 0.013 2 
0.329 -0.086 0.013 2 
0.285 -0.034 0.076 2 
0.285 -0.036 0.076 2 
0.275 -0.037 0.074 2 
0.254 -0.085 0.044 2 
0.282 -0.034 0.074 2 
0.322 -0.04 0.075 2 
0.311 -0.038 0.079 2 
0.327 -0.013 0.029 2 
0.266 -0.045 0.051 2 
0.245 -0.075 0.058 2 
0.255 -0.055 0.059 2 
0.235 -0.065 0.079 2 
0.255 -0.051 0.084 2 
0.353 -0.056 0.022 2 
0.261 -0.075 0.043 2 
0.315 -0.025 0.025 2 
0.302 -0.046 0.031 2 
0.291 -0.085 0.033 2 
0.314 -0.077 0.034 2 
0.303 -0.025 0.028 2 
0.344 0.011 0.03 2 
0.323 -0.012 0.024 2 
0.344 0 0.011 2 
0.346 -0.002 0.01 2 
0.292 -0.075 0.039 2 
0.305 -0.028 0.029 2 
0.347 -0.049 0.028 2 
0.326 -0.035 0.025 2 
0.318 -0.072 0.035 2 
0.342 -0.062 0.023 2 
0.336 -0.065 0.026 2 
0.283 -0.075 0.039 2 
0.345 -0.005 0.01 2 
0.274 -0.075 0.039 2 
0.309 -0.066 0.037 2 
0.291 -0.055 0.035 2 
0.238 -0.063 0.074 2 
0.254 -0.082 0.044 2 
0.348 -0.035 0.015 2 
0.314 -0.079 0.025 2 
0.354 -0.058 0.02 2 
0.323 -0.074 0.024 2 
0.321 -0.075 0.034 2 
0.324 -0.073 0.033 2 
0.33 -0.011 0.021 2 
0.326 -0.07 0.028 2 
0.318 -0.015 0.024 2 
0.305 -0.059 0.031 2 
0.306 -0.036 0.031 2 
0.305 -0.033 0.032 2 
0.318 -0.015 0.035 2 
0.338 -0.016 0.032 2 
0.314 -0.019 0.02 2 
0.269 -0.099 0.034 2 
0.321 -0.075 0.024 2 
0.295 -0.058 0.034 2 
0.325 -0.022 0.007 2 
0.314 -0.027 0.026 2 
0.329 -0.034 0.023 2 
0.326 -0.015 0.032 2 
0.23 -0.075 0.073 2 
0.312 -0.019 0.028 2 
0.267 -0.085 0.034 2 
0.345 -0.001 0.012 2 
0.347 -0.006 0.011 2 
0.309 -0.036 0.03 2 
0.237 -0.065 0.074 2 
0.255 -0.085 0.044 2 
0.341 -0.065 0.02 2 
0.326 -0.036 0.021 2 
0.343 0.003 0.017 2 
0.344 0.01 0.027 2 
0.344 -0.045 0.02 2 
0.328 -0.077 0.014 2 
0.326 -0.071 0.01 2 
0.324 -0.064 0.015 2 
0.283 -0.085 0.027 2 
0.356 -0.054 0.023 2 
0.343 -0.061 0.02 2 
0.344 -0.005 0.017 2 
0.256 -0.101 0.045 2 
0.282 -0.07 0.044 2 
0.342 -0.009 0.012 2 
0.274 -0.07 0.044 2 
0.271 -0.105 0.037 2 
0.303 -0.076 0.041 2 
0.308 -0.077 0.04 2 
0.338 -0.035 0.015 2 
0.333 -0.037 0.016 2 
0.294 -0.086 0.029 2 
0.333 -0.071 0.018 2 
0.283 -0.078 0.036 2 
0.329 -0.062 0.011 2 
0.318 -0.017 0.039 2 
0.277 -0.06 0.044 2 
0.293 -0.078 0.04 2 
0.321 -0.085 0.017 2 
0.297 -0.097 0.026 2 
0.323 -0.012 0.014 2 
0.265 -0.092 0.036 2 
0.284 -0.037 0.044 2 
0.275 -0.112 0.043 2 
0.321 -0.021 0.01 2 
0.316 -0.075 0.038 2 
0.287 -0.045 0.041 2 
0.298 -0.035 0.035 2 
0.29 -0.068 0.043 2 
0.305 -0.085 0.029 2 
0.264 -0.044 0.079 2 
0.303 -0.085 0.029 2 
0.323 -0.066 0.009 2 
0.333 -0.064 0.013 2 
0.338 -0.014 0.026 2 
0.465 0.222 0.143 3 
0.464 0.267 0.147 3 
0.464 0.264 0.147 3 
0.466 0.341 0.153 3 
0.472 0.334 0.154 3 
0.472 0.323 0.154 3 
0.469 0.314 0.152 3 
0.465 -0.006 0.143 3 
0.464 0.003 0.146 3 
0.466 -0.017 0.144 3 
0.464 0.152 0.144 3 
0.463 0.163 0.147 3 
0.465 0.014 0.143 3 
0.463 0.033 0.143 3 
0.463 0.054 0.143 3 
0.463 0.062 0.143 3 
0.464 -0.006 0.092 3 
0.465 0.212 0.107 3 
0.464 0.068 0.143 3 
0.463 0.022 0.143 3 
0.465 0.073 0.144 3 
0.465 -0.025 0.143 3 
0.463 0.162 0.063 3 
0.465 0.084 0.144 3 
0.463 0.154 0.033 3 
0.465 0.092 0.144 3 
0.465 0.103 0.144 3 
0.465 0.122 0.144 3 
0.464 0.011 0.143 3 
0.464 0.003 0.143 3 
0.466 0.131 0.144 3 
0.466 0.142 0.144 3 
0.463 0.163 0.144 3 
0.464 0.172 0.144 3 
0.464 0.175 0.144 3 
0.466 -0.004 0.143 3 
0.463 0.189 0.153 3 
0.464 0.24 0.154 3 
0.465 0.18 0.076 3 
0.465 0.232 0.154 3 
0.464 0.225 0.154 3 
0.465 0.223 0.154 3 
0.465 0.214 0.154 3 
0.465 0.202 0.154 3 
0.465 0.194 0.154 3 
0.466 0.345 0.159 3 
0.464 0.184 0.153 3 
0.465 0.179 0.153 3 
0.467 0.174 0.154 3 
0.465 0.162 0.153 3 
0.464 0.153 0.152 3 
0.465 0.15 0.153 3 
0.467 0.143 0.153 3 
0.465 0.124 0.063 3 
0.464 0.014 0.154 3 
0.464 0.194 0.123 3 
0.471 0.323 0.162 3 
0.465 0.079 0.154 3 
0.465 0.071 0.154 3 
0.464 0.052 0.154 3 
0.459 0.043 0.152 3 
0.465 0.038 0.154 3 
0.462 0.022 0.153 3 
0.467 0.132 0.153 3 
0.465 0.011 0.154 3 
0.465 0.003 0.154 3 
0.465 -0.012 0.154 3 
0.475 -0.11 0.158 3 
0.466 0.112 0.144 3 
0.463 -0.133 0.155 3 
0.459 -0.134 0.153 3 
0.46 -0.137 0.154 3 
0.463 -0.092 0.127 3 
0.471 -0.106 0.154 3 
0.47 -0.116 0.154 3 
0.468 -0.127 0.153 3 
0.467 0.302 0.154 3 
0.465 0.293 0.153 3 
0.467 0.282 0.154 3 
0.467 0.264 0.153 3 
0.465 0.253 0.152 3 
0.47 -0.097 0.154 3 
0.464 0.249 0.152 3 
0.464 0.222 0.151 3 
0.464 0.087 0.149 3 
0.464 0.076 0.149 3 
0.464 0.068 0.149 3 
0.46 0.335 0.054 3 
0.464 0.06 0.149 3 
0.477 -0.102 0.153 3 
0.465 0.054 0.152 3 
0.466 0.123 0.152 3 
0.465 0.032 0.063 3 
0.466 0.112 0.152 3 
0.467 0.104 0.153 3 
0.466 0.093 0.152 3 
0.465 0.063 0.152 3 
0.464 -0.017 0.074 3 
0.464 0.064 0.068 3 
0.467 0.346 0.153 3 
0.467 -0.017 0.152 3 
0.467 -0.025 0.152 3 
0.469 -0.055 0.153 3 
0.462 0.334 0.062 3 
0.468 -0.066 0.153 3 
0.469 -0.077 0.153 3 
0.469 -0.086 0.153 3 
0.467 0.291 0.134 3 
0.466 -0.076 0.133 3 
0.467 -0.085 0.133 3 
0.466 -0.095 0.133 3 
0.462 -0.1 0.132 3 
0.464 0.224 0.123 3 
0.461 -0.105 0.132 3 
0.462 0.224 0.063 3 
0.464 -0.081 0.125 3 
0.466 0.303 0.134 3 
0.466 -0.066 0.133 3 
0.466 0.312 0.074 3 
0.462 -0.035 0.124 3 
0.466 0.281 0.133 3 
0.463 0.263 0.132 3 
0.462 -0.025 0.124 3 
0.465 0.301 0.094 3 
0.462 -0.017 0.124 3 
0.464 -0.006 0.124 3 
0.465 0.003 0.132 3 
0.465 0.068 0.133 3 
0.464 0.062 0.132 3 
0.463 0.054 0.132 3 
0.463 0.043 0.132 3 
0.463 0.243 0.063 3 
0.463 0.033 0.132 3 
0.463 0.022 0.132 3 
0.462 0.014 0.132 3 
0.464 0.003 0.124 3 
0.464 0.001 0.132 3 
0.465 -0.006 0.132 3 
0.464 -0.009 0.132 3 
0.465 0.127 0.036 3 
0.464 -0.017 0.132 3 
0.465 -0.036 0.133 3 
0.466 -0.047 0.133 3 
0.466 -0.055 0.133 3 
0.464 0.062 0.124 3 
0.465 -0.033 0.13 3 
0.465 0.258 0.107 3 
0.464 -0.036 0.13 3 
0.464 0.341 0.132 3 
0.465 0.339 0.132 3 
0.468 0.332 0.132 3 
0.469 0.323 0.132 3 
0.466 0.343 0.123 3 
0.464 0.114 0.127 3 
0.464 0.054 0.124 3 
0.465 0.062 0.127 3 
0.465 0.054 0.127 3 
0.464 0.07 0.124 3 
0.464 -0.06 0.127 3 
0.465 0.273 0.127 3 
0.465 0.222 0.126 3 
0.464 0.103 0.125 3 
0.464 -0.036 0.092 3 
0.463 0.253 0.124 3 
0.464 0.014 0.124 3 
0.464 0.022 0.124 3 
0.464 0.033 0.124 3 
0.463 0.253 0.132 3 
0.465 0.291 0.068 3 
0.465 0.246 0.132 3 
0.465 0.243 0.132 3 
0.464 0.239 0.132 3 
0.464 0.073 0.132 3 
0.465 0.008 0.063 3 
0.464 0.233 0.132 3 
0.465 0.231 0.132 3 
0.465 0.035 0.125 3 
0.464 0.189 0.131 3 
0.465 0.084 0.13 3 
0.464 0.043 0.124 3 
0.465 -0.014 0.084 3 
0.464 0.092 0.141 3 
0.464 0.084 0.124 3 
0.464 0.183 0.033 3 
0.466 0.214 0.143 3 
0.464 0.203 0.123 3 
0.466 0.203 0.143 3 
0.465 0.193 0.142 3 
0.465 0.184 0.142 3 
0.465 0.153 0.142 3 
0.464 0.097 0.141 3 
0.465 0.198 0.123 3 
0.463 0.084 0.14 3 
0.467 -0.077 0.141 3 
0.467 0.345 0.144 3 
0.467 0.342 0.144 3 
0.47 0.331 0.144 3 
0.469 0.323 0.144 3 
0.466 0.304 0.143 3 
0.466 0.294 0.142 3 
0.465 0.147 0.063 3 
0.468 -0.055 0.144 3 
0.468 -0.066 0.144 3 
0.465 0.019 0.103 3 
0.467 -0.09 0.144 3 
0.465 -0.112 0.144 3 
0.463 -0.114 0.144 3 
0.461 -0.115 0.143 3 
0.465 0.274 0.144 3 
0.465 0.283 0.142 3 
0.464 0.27 0.144 3 
0.464 0.261 0.144 3 
0.465 0.259 0.144 3 
0.463 0.242 0.143 3 
0.464 0.234 0.143 3 
0.465 0.231 0.143 3 
0.476 0.313 0.197 3 
0.463 0.154 0.092 3 
0.465 0.133 0.133 3 
0.462 0.162 0.133 3 
0.462 0.154 0.133 3 
0.464 0.144 0.133 3 
0.465 0.212 0.123 3 
0.465 0.142 0.133 3 
0.464 -0.046 0.114 3 
0.464 0.233 0.123 3 
0.463 0.244 0.123 3 
0.464 0.263 0.124 3 
0.463 0.174 0.133 3 
0.465 0.27 0.124 3 
0.465 0.122 0.133 3 
0.464 0.116 0.133 3 
0.465 0.114 0.133 3 
0.465 0.103 0.133 3 
0.465 0.092 0.133 3 
0.464 0.086 0.133 3 
0.464 0.084 0.133 3 
0.464 -0.02 0.135 3 
0.465 -0.02 0.084 3 
0.464 0.186 0.139 3 
0.464 0.141 0.138 3 
0.464 -0.103 0.138 3 
0.466 0.235 0.138 3 
0.464 0.216 0.137 3 
0.464 0.213 0.137 3 
0.464 -0.012 0.135 3 
0.467 -0.047 0.144 3 
0.464 -0.025 0.135 3 
0.465 0.246 0.135 3 
0.464 0.222 0.134 3 
0.463 0.212 0.134 3 
0.463 0.203 0.134 3 
0.465 0.198 0.134 3 
0.465 0.192 0.134 3 
0.464 0.183 0.134 3 
0.471 0.207 0.184 3 
0.474 -0.096 0.186 3 
0.473 -0.107 0.186 3 
0.474 -0.115 0.186 3 
0.473 -0.172 0.187 3 
0.466 -0.177 0.184 3 
0.464 0.244 0.093 3 
0.471 0.354 0.191 3 
0.476 0.323 0.191 3 
0.476 0.313 0.19 3 
0.472 -0.051 0.184 3 
0.464 0.206 0.123 3 
0.471 0.204 0.184 3 
0.465 0.035 0.103 3 
0.468 0.193 0.183 3 
0.471 0.134 0.182 3 
0.472 0.123 0.182 3 
0.471 0.023 0.181 3 
0.471 -0.015 0.181 3 
0.473 -0.026 0.182 3 
0.468 0.113 0.164 3 
0.47 0.111 0.184 3 
0.469 0.102 0.184 3 
0.469 0.094 0.184 3 
0.471 0.083 0.184 3 
0.466 0.043 0.074 3 
0.47 0.072 0.184 3 
0.469 0.064 0.183 3 
0.467 0.052 0.183 3 
0.466 0.044 0.182 3 
0.471 -0.037 0.173 3 
0.468 0.033 0.183 3 
0.472 0.006 0.184 3 
0.464 0.303 0.082 3 
0.471 0.003 0.184 3 
0.465 0.247 0.071 3 
0.464 0.04 0.052 3 
0.47 -0.007 0.184 3 
0.473 -0.015 0.185 3 
0.471 -0.042 0.184 3 
0.464 0.041 0.176 3 
0.472 0.282 0.184 3 
0.47 0.274 0.183 3 
0.472 0.263 0.184 3 
0.473 0.254 0.184 3 
0.472 0.241 0.183 3 
0.471 0.234 0.182 3 
0.47 0.224 0.182 3 
0.464 0.083 0.074 3 
0.488 0.16 0.187 3 
0.473 0.323 0.187 3 
0.468 0.312 0.143 3 
0.475 -0.136 0.181 3 
0.464 0.273 0.133 3 
0.478 -0.146 0.183 3 
0.477 -0.157 0.183 3 
0.472 -0.163 0.181 3 
0.473 0.33 0.184 3 
0.473 0.323 0.184 3 
0.473 0.313 0.183 3 
0.473 -0.107 0.183 3 
0.473 -0.056 0.182 3 
0.472 -0.067 0.182 3 
0.474 -0.076 0.183 3 
0.464 0.297 0.111 3 
0.474 -0.087 0.183 3 
0.475 -0.093 0.183 3 
0.465 0.229 0.163 3 
0.474 -0.096 0.183 3 
0.463 0.043 0.143 3 
0.468 0.144 0.184 3 
0.473 -0.115 0.183 3 
0.473 -0.126 0.183 3 
0.474 -0.135 0.184 3 
0.473 -0.172 0.184 3 
0.463 -0.17 0.18 3 
0.463 0.222 0.043 3 
0.472 0.355 0.189 3 
0.466 0.154 0.172 3 
0.473 0.326 0.187 3 
0.47 0.034 0.186 3 
0.471 0.072 0.187 3 
0.469 0.114 0.187 3 
0.47 0.283 0.172 3 
0.469 0.102 0.187 3 
0.47 0.094 0.187 3 
0.47 0.083 0.187 3 
0.469 0.064 0.186 3 
0.468 0.053 0.186 3 
0.468 0.044 0.186 3 
0.471 0.123 0.188 3 
0.475 0.023 0.189 3 
0.463 0.154 0.122 3 
0.464 0.182 0.054 3 
0.474 0.02 0.188 3 
0.473 0.012 0.188 3 
0.471 0.003 0.187 3 
0.471 -0.007 0.187 3 
0.475 -0.015 0.189 3 
0.475 -0.026 0.189 3 
0.471 0.201 0.19 3 
0.476 0.299 0.196 3 
0.473 0.27 0.193 3 
0.473 0.264 0.193 3 
0.473 0.252 0.192 3 
0.473 0.242 0.192 3 
0.473 0.233 0.192 3 
0.471 0.222 0.191 3 
0.467 -0.036 0.144 3 
0.471 0.213 0.19 3 
0.474 -0.029 0.188 3 
0.47 0.192 0.189 3 
0.469 0.182 0.189 3 
0.469 0.174 0.188 3 
0.469 0.162 0.188 3 
0.47 0.154 0.188 3 
0.463 0.283 0.093 3 
0.471 0.143 0.188 3 
0.471 0.134 0.188 3 
0.464 0.062 0.114 3 
0.473 -0.178 0.19 3 
0.468 -0.036 0.152 3 
0.477 -0.137 0.191 3 
0.463 0.033 0.154 3 
0.464 0.094 0.103 3 
0.48 -0.147 0.192 3 
0.484 -0.158 0.194 3 
0.469 0.343 0.181 3 
0.48 -0.165 0.193 3 
0.478 -0.175 0.192 3 
0.475 -0.13 0.19 3 
0.474 0.314 0.193 3 
0.474 0.301 0.192 3 
0.464 0.18 0.112 3 
0.472 0.286 0.191 3 
0.472 0.282 0.19 3 
0.466 0.181 0.184 3 
0.466 0.166 0.184 3 
0.467 0.164 0.184 3 
0.466 0.152 0.184 3 
0.467 0.314 0.134 3 
0.472 -0.037 0.187 3 
0.473 -0.045 0.188 3 
0.474 -0.057 0.188 3 
0.475 -0.06 0.189 3 
0.475 -0.065 0.189 3 
0.474 -0.07 0.188 3 
0.467 0.213 0.172 3 
0.475 -0.076 0.189 3 
0.469 -0.047 0.153 3 
0.464 0.294 0.094 3 
0.474 -0.082 0.188 3 
0.47 0.133 0.162 3 
0.475 -0.088 0.189 3 
0.474 -0.093 0.189 3 
0.476 -0.096 0.189 3 
0.476 -0.105 0.19 3 
0.476 -0.116 0.19 3 
0.474 -0.127 0.189 3 
0.464 0.011 0.162 3 
0.467 0.082 0.163 3 
0.467 0.074 0.163 3 
0.467 0.063 0.163 3 
0.465 0.222 0.124 3 
0.466 0.044 0.163 3 
0.464 0.033 0.162 3 
0.464 0.022 0.162 3 
0.465 0.019 0.162 3 
0.465 0.014 0.162 3 
0.465 0.093 0.163 3 
0.464 0.2 0.084 3 
0.465 0.003 0.162 3 
0.466 -0.006 0.163 3 
0.467 -0.015 0.163 3 
0.468 -0.025 0.163 3 
0.47 -0.037 0.164 3 
0.471 -0.045 0.164 3 
0.469 -0.055 0.164 3 
0.467 -0.066 0.163 3 
0.464 0.19 0.164 3 
0.469 0.311 0.173 3 
0.469 0.301 0.172 3 
0.469 0.292 0.172 3 
0.464 0.222 0.168 3 
0.464 0.092 0.165 3 
0.464 0.033 0.165 3 
0.473 -0.12 0.169 3 
0.464 0.231 0.165 3 
0.464 0.214 0.165 3 
0.464 0.294 0.113 3 
0.464 0.182 0.164 3 
0.465 0.179 0.164 3 
0.466 0.168 0.164 3 
0.465 0.162 0.164 3 
0.465 -0.038 0.103 3 
0.465 0.153 0.164 3 
0.468 0.144 0.164 3 
0.469 0.119 0.164 3 
0.466 0.104 0.163 3 
0.468 0.284 0.163 3 
0.474 -0.115 0.164 3 
0.475 -0.118 0.164 3 
0.473 -0.126 0.163 3 
0.47 -0.136 0.163 3 
0.463 -0.089 0.124 3 
0.465 -0.145 0.161 3 
0.469 0.314 0.164 3 
0.467 0.302 0.163 3 
0.468 0.293 0.163 3 
0.464 0.283 0.023 3 
0.468 0.274 0.162 3 
0.464 0.246 0.16 3 
0.464 0.243 0.16 3 
0.464 0.216 0.159 3 
0.465 0.197 0.159 3 
0.464 0.158 0.158 3 
0.439 -0.132 0.15 3 
0.464 0.343 0.161 3 
0.468 0.34 0.162 3 
0.467 0.273 0.153 3 
0.469 -0.075 0.164 3 
0.468 -0.085 0.164 3 
0.469 -0.099 0.164 3 
0.465 0.105 0.036 3 
0.464 -0.142 0.163 3 
0.464 -0.145 0.163 3 
0.452 -0.144 0.159 3 
0.463 0.342 0.167 3 
0.467 0.258 0.164 3 
0.469 0.321 0.173 3 
0.467 0.252 0.164 3 
0.465 0.241 0.163 3 
0.464 0.231 0.163 3 
0.465 0.223 0.163 3 
0.464 0.213 0.162 3 
0.465 0.211 0.162 3 
0.464 0.202 0.162 3 
0.464 0.044 0.159 3 
0.472 -0.106 0.163 3 
0.469 0.122 0.173 3 
0.468 0.202 0.174 3 
0.464 0.252 0.143 3 
0.466 0.192 0.173 3 
0.464 0.274 0.032 3 
0.466 0.183 0.173 3 
0.467 0.172 0.173 3 
0.466 0.163 0.173 3 
0.468 0.144 0.173 3 
0.469 0.133 0.173 3 
0.464 -0.025 0.132 3 
0.468 -0.096 0.142 3 
0.468 0.113 0.172 3 
0.467 0.104 0.172 3 
0.465 0.136 0.122 3 
0.467 0.082 0.172 3 
0.468 0.022 0.172 3 
0.468 0.014 0.172 3 
0.468 -0.015 0.172 3 
0.468 -0.026 0.172 3 
0.466 0.036 0.174 3 
0.472 0.301 0.182 3 
0.472 0.292 0.182 3 
0.467 0.088 0.174 3 
0.467 0.074 0.174 3 
0.467 0.063 0.174 3 
0.464 0.199 0.151 3 
0.465 0.052 0.173 3 
0.464 0.049 0.173 3 
0.464 0.044 0.173 3 
0.462 0.104 0.012 3 
0.467 0.033 0.174 3 
0.467 0.052 0.163 3 
0.467 0.001 0.174 3 
0.467 -0.006 0.174 3 
0.475 -0.116 0.178 3 
0.476 -0.125 0.179 3 
0.468 0.346 0.181 3 
0.465 -0.007 0.06 3 
0.466 0.224 0.174 3 
0.475 -0.116 0.172 3 
0.469 0.263 0.174 3 
0.464 0.07 0.004 3 
0.471 0.252 0.174 3 
0.463 0.205 0.114 3 
0.471 0.243 0.174 3 
0.468 0.232 0.172 3 
0.463 -0.046 0.092 3 
0.464 0.19 0.17 3 
0.464 0.182 0.17 3 
0.47 0.27 0.174 3 
0.476 -0.125 0.173 3 
0.474 -0.132 0.172 3 
0.474 -0.135 0.172 3 
0.475 -0.141 0.173 3 
0.464 0.272 0.113 3 
0.463 -0.152 0.169 3 
0.468 0.345 0.174 3 
0.468 0.341 0.174 3 
0.47 0.333 0.174 3 
0.472 -0.106 0.174 3 
0.471 -0.045 0.173 3 
0.471 -0.056 0.173 3 
0.465 0.003 0.103 3 
0.47 -0.067 0.173 3 
0.465 0.1 0.044 3 
0.461 0.212 0.014 3 
0.469 -0.075 0.172 3 
0.47 -0.086 0.173 3 
0.47 -0.097 0.173 3 
0.467 0.332 0.161 3 
0.464 0.242 0.104 3 
0.475 -0.113 0.175 3 
0.474 -0.147 0.175 3 
0.448 -0.134 0.152 3 
0.462 0.204 0.033 3 
0.47 -0.153 0.174 3 
0.467 -0.155 0.173 3 
0.463 -0.155 0.172 3 
0.464 0.143 0.052 3 
0.461 0.212 0.054 3 
0.463 0.202 0.054 3 
0.464 0.194 0.054 3 
0.465 0.192 0.054 3 
0.465 0.287 0.051 3 
0.465 0.272 0.051 3 
0.463 0.173 0.052 3 
0.463 0.162 0.052 3 
0.464 0.154 0.052 3 
0.461 0.223 0.054 3 
0.465 0.138 0.052 3 
0.465 0.133 0.052 3 
0.464 0.124 0.052 3 
0.462 0.112 0.052 3 
0.464 0.083 0.052 3 
0.463 0.072 0.052 3 
0.465 0.056 0.052 3 
0.465 0.054 0.052 3 
0.465 0.043 0.052 3 
0.462 0.314 0.054 3 
0.465 0.282 0.06 3 
0.464 0.108 0.06 3 
0.464 0.043 0.06 3 
0.465 0.197 0.057 3 
0.464 0.124 0.057 3 
0.464 0.102 0.057 3 
0.465 0.07 0.057 3 
0.465 0.024 0.058 3 
0.462 0.324 0.054 3 
0.465 0.032 0.052 3 
0.463 0.302 0.054 3 
0.464 0.294 0.054 3 
0.465 0.284 0.054 3 
0.464 0.28 0.054 3 
0.463 0.264 0.054 3 
0.462 0.254 0.054 3 
0.463 0.243 0.054 3 
0.463 0.234 0.054 3 
0.461 0.203 0.044 3 
0.465 0.284 0.043 3 
0.466 0.273 0.043 3 
0.464 0.265 0.043 3 
0.464 0.262 0.043 3 
0.463 0.222 0.024 3 
0.462 0.254 0.043 3 
0.463 0.243 0.043 3 
0.464 0.232 0.043 3 
0.461 0.212 0.044 3 
0.465 0.297 0.043 3 
0.463 0.193 0.044 3 
0.463 0.182 0.044 3 
0.463 0.173 0.044 3 
0.464 0.163 0.044 3 
0.463 0.154 0.044 3 
0.464 0.143 0.044 3 
0.464 0.132 0.044 3 
0.463 0.124 0.044 3 
0.465 0.183 0.049 3 
0.466 0.024 0.052 3 
0.467 0.014 0.052 3 
0.467 0.003 0.052 3 
0.465 -0.007 0.052 3 
0.464 -0.012 0.052 3 
0.465 -0.015 0.052 3 
0.466 -0.025 0.052 3 
0.462 0.282 0.012 3 
0.465 -0.036 0.052 3 
0.463 0.302 0.06 3 
0.464 0.132 0.049 3 
0.464 0.289 0.034 3 
0.465 0.1 0.047 3 
0.464 -0.028 0.047 3 
0.463 -0.036 0.047 3 
0.459 0.334 0.043 3 
0.461 0.313 0.043 3 
0.462 0.304 0.043 3 
0.464 -0.033 0.068 3 
0.465 0.032 0.071 3 
0.465 0.011 0.071 3 
0.464 0.04 0.004 3 
0.465 0.003 0.071 3 
0.464 0.306 0.068 3 
0.465 0.175 0.068 3 
0.465 0.172 0.068 3 
0.464 0.132 0.068 3 
0.464 0.035 0.068 3 
0.464 0.243 0.071 3 
0.465 0.279 0.065 3 
0.465 0.078 0.065 3 
0.465 0.016 0.066 3 
0.465 -0.012 0.066 3 
0.462 0.337 0.062 3 
0.465 0.327 0.062 3 
0.465 0.324 0.062 3 
0.464 0.054 0.044 3 
0.464 0.319 0.062 3 
0.464 0.014 0.074 3 
0.464 0.1 0.073 3 
0.464 0.094 0.073 3 
0.465 0.092 0.074 3 
0.464 0.073 0.074 3 
0.465 0.07 0.074 3 
0.466 0.062 0.074 3 
0.467 0.054 0.074 3 
0.464 0.032 0.074 3 
0.464 0.024 0.074 3 
0.464 0.313 0.062 3 
0.464 0.003 0.074 3 
0.465 -0.023 0.074 3 
0.465 -0.025 0.074 3 
0.465 -0.036 0.074 3 
0.464 -0.041 0.074 3 
0.462 -0.046 0.074 3 
0.465 0.265 0.071 3 
0.465 0.259 0.071 3 
0.464 0.014 0.063 3 
0.465 0.103 0.063 3 
0.465 0.094 0.063 3 
0.464 0.086 0.063 3 
0.464 0.083 0.063 3 
0.465 0.081 0.063 3 
0.464 0.064 0.063 3 
0.466 0.054 0.063 3 
0.464 0.03 0.063 3 
0.464 0.024 0.063 3 
0.465 0.114 0.063 3 
0.465 0.003 0.063 3 
0.464 -0.001 0.063 3 
0.464 -0.007 0.063 3 
0.465 -0.015 0.063 3 
0.467 -0.025 0.063 3 
0.466 -0.036 0.063 3 
0.464 -0.041 0.063 3 
0.463 -0.046 0.063 3 
0.464 0.202 0.063 3 
0.465 0.304 0.062 3 
0.462 0.064 0.013 3 
0.465 0.294 0.063 3 
0.464 0.287 0.063 3 
0.463 0.283 0.062 3 
0.464 0.274 0.063 3 
0.463 0.261 0.063 3 
0.462 0.251 0.062 3 
0.463 0.234 0.063 3 
0.463 0.113 0.044 3 
0.464 0.194 0.063 3 
0.463 0.182 0.063 3 
0.463 0.173 0.063 3 
0.464 0.154 0.063 3 
0.464 0.143 0.063 3 
0.465 0.138 0.063 3 
0.464 0.132 0.063 3 
0.465 0.13 0.063 3 
0.464 0.094 0.023 3 
0.463 0.162 0.022 3 
0.464 0.014 0.02 3 
0.463 0.154 0.022 3 
0.463 0.143 0.022 3 
0.464 0.132 0.022 3 
0.465 0.124 0.022 3 
0.465 0.113 0.022 3 
0.464 0.11 0.023 3 
0.464 0.102 0.023 3 
0.463 0.174 0.022 3 
0.464 0.083 0.023 3 
0.463 0.072 0.023 3 
0.462 0.064 0.023 3 
0.463 0.053 0.023 3 
0.464 0.043 0.023 3 
0.463 0.032 0.023 3 
0.463 0.024 0.023 3 
0.465 0.003 0.023 3 
0.464 0 0.023 3 
0.463 0.264 0.024 3 
0.465 0.011 0.028 3 
0.465 -0.031 0.028 3 
0.463 0.332 0.022 3 
0.466 0.332 0.022 3 
0.464 0.323 0.022 3 
0.464 0.312 0.023 3 
0.463 0.301 0.023 3 
0.464 0.293 0.023 3 
0.464 0.274 0.023 3 
0.464 -0.007 0.023 3 
0.463 0.252 0.024 3 
0.462 0.242 0.024 3 
0.463 0.234 0.024 3 
0.463 0.199 0.024 3 
0.465 0.046 0.026 3 
0.464 0.032 0.026 3 
0.463 0.193 0.022 3 
0.463 0.182 0.022 3 
0.462 0.053 0.013 3 
0.461 0.172 0.014 3 
0.461 0.153 0.014 3 
0.462 0.134 0.014 3 
0.46 0.142 0.012 3 
0.462 0.123 0.012 3 
0.462 0.112 0.012 3 
0.462 0.093 0.012 3 
0.462 0.083 0.012 3 
0.462 0.074 0.012 3 
0.462 0.184 0.014 3 
0.463 0.043 0.012 3 
0.461 0.032 0.013 3 
0.465 0.073 0.004 3 
0.464 0.064 0.004 3 
0.464 0.054 0.004 3 
0.465 0.051 0.004 3 
0.465 0.043 0.004 3 
0.465 0.078 0.001 3 
0.462 0.301 0.012 3 
0.464 -0.015 0.023 3 
0.466 -0.023 0.023 3 
0.464 -0.025 0.023 3 
0.465 0.127 0.02 3 
0.464 0.124 0.02 3 
0.46 0.336 0.014 3 
0.464 0.333 0.014 3 
0.463 0.324 0.014 3 
0.463 0.314 0.014 3 
0.465 0.119 0.028 3 
0.463 0.292 0.012 3 
0.463 0.264 0.013 3 
0.463 0.252 0.013 3 
0.462 0.242 0.013 3 
0.462 0.233 0.013 3 
0.461 0.224 0.013 3 
0.461 0.203 0.014 3 
0.46 0.194 0.014 3 
0.462 0.324 0.034 3 
0.465 0.048 0.042 3 
0.464 0.027 0.042 3 
0.464 0.024 0.042 3 
0.464 0.014 0.042 3 
0.465 -0.015 0.042 3 
0.466 -0.025 0.042 3 
0.464 0.003 0.039 3 
0.46 0.335 0.034 3 
0.46 0.332 0.034 3 
0.465 0.141 0.041 3 
0.462 0.314 0.034 3 
0.464 0.302 0.034 3 
0.465 0.297 0.034 3 
0.465 0.294 0.034 3 
0.464 0.283 0.034 3 
0.463 0.279 0.035 3 
0.465 0.232 0.035 3 
0.465 0.149 0.036 3 
0.465 0.124 0.036 3 
0.467 0.003 0.044 3 
0.464 0.102 0.044 3 
0.463 0.093 0.044 3 
0.464 0.083 0.044 3 
0.464 0.072 0.044 3 
0.464 0.064 0.044 3 
0.464 0.04 0.044 3 
0.465 0.032 0.044 3 
0.465 0.024 0.044 3 
0.465 0.014 0.044 3 
0.463 0.261 0.032 3 
0.466 -0.007 0.044 3 
0.464 -0.012 0.044 3 
0.464 -0.015 0.044 3 
0.464 -0.025 0.044 3 
0.464 -0.036 0.044 3 
0.464 0.293 0.04 3 
0.465 0.186 0.041 3 
0.465 0.183 0.041 3 
0.465 -0.007 0.034 3 
0.463 0.064 0.034 3 
0.463 0.053 0.034 3 
0.465 0.043 0.034 3 
0.465 0.032 0.034 3 
0.465 0.024 0.034 3 
0.464 0.022 0.034 3 
0.463 0.014 0.034 3 
0.464 0.003 0.034 3 
0.465 -0.004 0.034 3 
0.464 0.07 0.034 3 
0.465 -0.015 0.034 3 
0.464 -0.023 0.034 3 
0.464 -0.025 0.034 3 
0.465 0.278 0.029 3 
0.465 0.133 0.03 3 
0.464 0.043 0.031 3 
0.464 -0.009 0.031 3 
0.465 0.141 0.028 3 
0.463 0.162 0.033 3 
0.462 0.251 0.032 3 
0.463 0.243 0.032 3 
0.465 0.232 0.032 3 
0.464 0.229 0.032 3 
0.465 0.062 0.001 3 
0.464 0.223 0.032 3 
0.463 0.213 0.033 3 
0.464 0.194 0.033 3 
0.463 0.173 0.033 3 
0.465 0.103 0.074 3 
0.464 0.143 0.033 3 
0.464 0.132 0.033 3 
0.464 0.124 0.033 3 
0.464 0.102 0.033 3 
0.463 0.093 0.033 3 
0.463 0.083 0.034 3 
0.465 0.075 0.033 3 
0.465 0.073 0.033 3 
0.465 0.152 0.106 3 
0.465 0.189 0.112 3 
0.465 0.169 0.112 3 
0.464 0.024 0.111 3 
0.465 -0.055 0.111 3 
0.464 -0.065 0.111 3 
0.465 0.342 0.112 3 
0.469 0.332 0.112 3 
0.465 0.227 0.11 3 
0.463 0.182 0.084 3 
0.461 0.323 0.043 3 
0.465 0.116 0.106 3 
0.463 0.293 0.082 3 
0.463 -0.076 0.106 3 
0.462 0.28 0.104 3 
0.462 0.334 0.082 3 
0.462 0.273 0.104 3 
0.463 0.262 0.104 3 
0.465 0.255 0.104 3 
0.464 0.232 0.104 3 
0.464 0.254 0.113 3 
0.464 -0.057 0.114 3 
0.465 -0.065 0.114 3 
0.465 -0.076 0.114 3 
0.467 0.317 0.114 3 
0.467 0.313 0.114 3 
0.465 0.302 0.114 3 
0.464 0.282 0.113 3 
0.465 0.27 0.113 3 
0.464 0.263 0.113 3 
0.462 0.272 0.013 3 
0.465 0.246 0.113 3 
0.465 0.294 0.043 3 
0.465 0.243 0.113 3 
0.464 0.072 0.063 3 
0.464 0.236 0.112 3 
0.464 0.233 0.112 3 
0.464 0.223 0.112 3 
0.465 0.218 0.112 3 
0.463 -0.006 0.103 3 
0.462 0.072 0.103 3 
0.463 0.064 0.103 3 
0.464 0.34 0.022 3 
0.462 0.054 0.103 3 
0.463 0.043 0.103 3 
0.464 0.032 0.103 3 
0.464 0.024 0.103 3 
0.465 0.014 0.103 3 
0.464 0.001 0.103 3 
0.463 0.083 0.103 3 
0.464 -0.017 0.103 3 
0.465 -0.02 0.103 3 
0.464 0.046 0.052 3 
0.465 -0.025 0.103 3 
0.464 -0.028 0.103 3 
0.464 -0.036 0.103 3 
0.465 -0.047 0.103 3 
0.465 -0.055 0.103 3 
0.465 0.164 0.103 3 
0.464 0.223 0.104 3 
0.465 0.215 0.104 3 
0.465 0.212 0.104 3 
0.464 0.203 0.104 3 
0.463 0.194 0.103 3 
0.465 0.183 0.104 3 
0.464 0.177 0.103 3 
0.465 0.172 0.104 3 
0.464 0.169 0.103 3 
0.465 -0.049 0.114 3 
0.464 0.152 0.103 3 
0.464 0.144 0.103 3 
0.463 0.132 0.103 3 
0.464 0.124 0.103 3 
0.465 0.122 0.103 3 
0.465 0.114 0.103 3 
0.465 0.043 0.044 3 
0.465 0.103 0.103 3 
0.465 0.046 0.119 3 
0.469 0.323 0.123 3 
0.468 0.311 0.123 3 
0.466 0.303 0.122 3 
0.465 0.292 0.122 3 
0.465 0.283 0.122 3 
0.465 0.264 0.121 3 
0.464 0.13 0.119 3 
0.463 0.124 0.119 3 
0.464 0.113 0.119 3 
0.47 0.334 0.124 3 
0.465 0.033 0.119 3 
0.465 0.009 0.119 3 
0.465 -0.044 0.119 3 
0.464 -0.054 0.119 3 
0.464 -0.06 0.119 3 
0.464 -0.068 0.119 3 
0.464 0.298 0.119 3 
0.464 0.288 0.119 3 
0.465 0.178 0.117 3 
0.465 0.07 0.122 3 
0.464 0.183 0.123 3 
0.463 0.174 0.122 3 
0.464 0.163 0.122 3 
0.463 0.143 0.122 3 
0.465 0.133 0.122 3 
0.466 0.123 0.122 3 
0.465 0.114 0.122 3 
0.465 0.103 0.122 3 
0.464 0.092 0.122 3 
0.464 0.103 0.116 3 
0.465 0.038 0.122 3 
0.465 0.017 0.122 3 
0.465 -0.047 0.122 3 
0.466 -0.055 0.122 3 
0.466 -0.066 0.122 3 
0.466 -0.076 0.122 3 
0.464 -0.084 0.122 3 
0.464 0.209 0.104 3 
0.464 0.054 0.06 3 
0.463 0.054 0.113 3 
0.464 0.043 0.114 3 
0.462 0.213 0.024 3 
0.463 0.032 0.113 3 
0.465 0.251 0.104 3 
0.465 0.025 0.114 3 
0.465 0.022 0.114 3 
0.465 0.014 0.114 3 
0.465 0.003 0.114 3 
0.463 0.073 0.113 3 
0.464 0.274 0.054 3 
0.464 0.001 0.113 3 
0.46 0.164 0.014 3 
0.463 -0.006 0.113 3 
0.464 -0.017 0.113 3 
0.463 -0.025 0.113 3 
0.464 -0.036 0.114 3 
0.465 -0.041 0.114 3 
0.462 0.134 0.114 3 
0.465 0.237 0.115 3 
0.463 0.197 0.114 3 
0.464 0.194 0.114 3 
0.465 0.178 0.114 3 
0.464 0.172 0.114 3 
0.465 0.164 0.114 3 
0.463 0.157 0.114 3 
0.463 0.152 0.114 3 
0.463 0.143 0.114 3 
0.464 -0.057 0.103 3 
0.463 0.124 0.114 3 
0.464 0.113 0.114 3 
0.464 0.094 0.052 3 
0.465 0.111 0.114 3 
0.465 0.103 0.114 3 
0.464 0.1 0.114 3 
0.463 0.094 0.114 3 
0.463 0.083 0.114 3 
0.466 0.322 0.083 3 
0.464 -0.006 0.084 3 
0.464 -0.017 0.084 3 
0.465 -0.025 0.084 3 
0.465 -0.036 0.084 3 
0.465 -0.047 0.084 3 
0.464 -0.054 0.084 3 
0.462 0.213 0.063 3 
0.464 -0.057 0.084 3 
0.466 0.328 0.083 3 
0.464 0.003 0.084 3 
0.465 0.311 0.082 3 
0.463 0.283 0.082 3 
0.463 0.274 0.082 3 
0.463 0.262 0.082 3 
0.464 0.253 0.082 3 
0.465 0.247 0.082 3 
0.465 0.244 0.082 3 
0.465 0.059 0.063 3 
0.464 0.127 0.082 3 
0.464 0.094 0.084 3 
0.46 0.332 0.054 3 
0.464 0.163 0.084 3 
0.463 0.151 0.084 3 
0.464 0.143 0.084 3 
0.465 0.136 0.084 3 
0.465 0.133 0.084 3 
0.464 0.121 0.084 3 
0.463 0.113 0.084 3 
0.464 0.102 0.084 3 
0.465 0.057 0.082 3 
0.464 0.083 0.084 3 
0.462 0.072 0.084 3 
0.462 0.064 0.084 3 
0.463 0.053 0.084 3 
0.464 0.043 0.084 3 
0.464 0.032 0.084 3 
0.463 0.024 0.084 3 
0.463 0.014 0.084 3 
0.465 0.158 0.074 3 
0.465 0.232 0.074 3 
0.464 0.226 0.074 3 
0.464 0.223 0.074 3 
0.463 0.213 0.073 3 
0.462 0.204 0.073 3 
0.462 0.193 0.073 3 
0.464 0.183 0.074 3 
0.464 0.174 0.074 3 
0.464 0.163 0.073 3 
0.465 0.244 0.074 3 
0.465 0.152 0.074 3 
0.464 0.146 0.073 3 
0.464 0.143 0.073 3 
0.465 0.141 0.074 3 
0.465 0.133 0.074 3 
0.465 0.122 0.074 3 
0.464 0.113 0.073 3 
0.465 0.111 0.074 3 
0.465 0.327 0.074 3 
0.464 0.238 0.079 3 
0.465 0.065 0.079 3 
0.465 0.051 0.079 3 
0.465 0.301 0.077 3 
0.465 0.122 0.076 3 
0.465 0.114 0.076 3 
0.465 0.043 0.076 3 
0.46 0.335 0.074 3 
0.461 0.333 0.074 3 
0.463 0.174 0.084 3 
0.466 0.322 0.074 3 
0.465 0.304 0.074 3 
0.464 0.297 0.074 3 
0.463 0.293 0.074 3 
0.463 0.283 0.074 3 
0.464 0.272 0.074 3 
0.464 0.262 0.074 3 
0.464 0.252 0.074 3 
0.463 0.222 0.093 3 
0.468 0.334 0.094 3 
0.468 0.324 0.094 3 
0.467 0.313 0.094 3 
0.464 0.297 0.094 3 
0.464 0.214 0.085 3 
0.463 0.274 0.093 3 
0.463 0.262 0.093 3 
0.464 0.254 0.093 3 
0.463 0.234 0.093 3 
0.465 0.338 0.094 3 
0.465 0.218 0.093 3 
0.464 -0.025 0.092 3 
0.466 0.213 0.093 3 
0.465 0.203 0.093 3 
0.464 0.197 0.093 3 
0.463 0.193 0.092 3 
0.463 0.182 0.092 3 
0.464 0.174 0.093 3 
0.464 0.064 0.052 3 
0.464 0.163 0.101 3 
0.459 -0.067 0.102 3 
0.454 -0.071 0.102 3 
0.467 0.344 0.103 3 
0.47 0.333 0.103 3 
0.468 0.324 0.103 3 
0.467 0.313 0.103 3 
0.465 0.301 0.102 3 
0.464 0.291 0.102 3 
0.464 0.254 0.101 3 
0.464 0.163 0.092 3 
0.465 0.152 0.101 3 
0.465 0.292 0.099 3 
0.465 0.092 0.098 3 
0.464 -0.046 0.098 3 
0.465 0.203 0.096 3 
0.465 0.032 0.095 3 
0.457 -0.069 0.094 3 
0.464 0.34 0.094 3 
0.465 0.25 0.088 3 
0.464 -0.001 0.092 3 
0.464 -0.017 0.092 3 
0.463 -0.057 0.092 3 
0.464 0.333 0.091 3 
0.465 0.127 0.09 3 
0.464 0.086 0.09 3 
0.465 -0.02 0.09 3 
0.465 -0.025 0.09 3 
0.465 0.1 0.084 3 
0.465 0.003 0.092 3 
0.465 0.043 0.063 3 
0.465 0.244 0.088 3 
0.464 -0.007 0.074 3 
0.464 0.102 0.087 3 
0.463 0.231 0.084 3 
0.463 0.222 0.084 3 
0.464 0.211 0.084 3 
0.464 0.194 0.084 3 
0.462 0.064 0.092 3 
0.462 0.143 0.092 3 
0.463 0.132 0.092 3 
0.464 0.124 0.092 3 
0.464 0.113 0.092 3 
0.465 0.103 0.092 3 
0.465 0.092 0.092 3 
0.464 0.113 0.033 3 
0.464 0.083 0.092 3 
0.462 0.072 0.092 3 
0.465 0.189 0.123 3 
0.462 0.054 0.092 3 
0.463 0.043 0.092 3 
0.465 0.014 0.023 3 
0.464 0.032 0.092 3 
0.463 0.102 0.052 3 
0.463 0.024 0.092 3 
0.464 0.014 0.092 3 
0.465 0.008 0.092 3 
