# .PCD v0.7 - Point Cloud Data file
FIELDS x y z intensity
SIZE 4 4 4 4
TYPE F F F F
COUNT 1 1 1 1
WIDTH 1987
HEIGHT 1
VIEWPOINT 0 0 0 1 0 0 0
POINTS 1987
DATA ascii
0.384 0.069 0.01 0 
0.249 0.074 0.086 0 
0.256 0.073 0.09 0 
0.256 0.082 0.094 0 
0.268 0.092 0.101 0 
0.267 0.082 0.095 0 
0.261 0.087 0.1 0 
0.255 0.084 0.097 0 
0.248 0.081 0.095 0 
0.245 0.081 0.093 0 
0.235 0.079 0.089 0 
0.233 0.079 0.089 0 
0.31 0.081 0.085 0 
0.282 0.074 0.085 0 
0.289 0.08 0.088 0 
0.267 0.074 0.086 0 
0.27 0.078 0.088 0 
0.275 0.079 0.089 0 
0.353 -0.006 0.009 0 
0.376 -0.005 0.009 0 
0.364 -0.128 -0.018 1 
0.364 -0.105 -0.017 1 
0.361 -0.066 -0.015 1 
0.36 -0.057 -0.015 1 
0.354 -0.048 -0.012 1 
0.354 -0.043 -0.012 1 
0.354 -0.028 -0.013 1 
0.351 -0.016 -0.011 1 
0.322 0.014 -0.001 1 
0.323 0.018 -0.001 1 
0.332 0.043 -0.005 1 
0.332 0.051 -0.005 1 
0.324 0.084 -0.002 1 
0.303 0.103 0.004 1 
0.383 -0.249 -0.027 1 
0.381 -0.226 -0.025 1 
0.381 -0.224 -0.025 1 
0.372 -0.195 -0.021 1 
0.373 -0.146 -0.019 1 
0.37 -0.136 -0.018 1 
0.364 -0.085 -0.015 1 
0.366 -0.064 -0.015 1 
0.362 -0.055 -0.014 1 
0.361 -0.045 -0.013 1 
0.362 -0.036 -0.013 1 
0.361 -0.025 -0.013 1 
0.333 0.004 -0.003 1 
0.332 0.034 -0.003 1 
0.332 0.074 -0.004 1 
0.323 0.094 -0.001 1 
0.276 0.095 0.015 1 
0.393 -0.265 -0.029 1 
0.392 -0.256 -0.028 1 
0.374 -0.186 -0.019 1 
0.374 -0.182 -0.019 1 
0.374 -0.134 -0.017 1 
0.373 -0.116 -0.017 1 
0.374 -0.107 -0.017 1 
0.368 -0.089 -0.014 1 
0.33 0.013 -0.001 1 
0.332 0.018 -0.001 1 
0.338 0.034 -0.004 1 
0.34 0.042 -0.004 1 
0.341 0.044 -0.005 1 
0.34 0.061 -0.005 1 
0.34 0.065 -0.005 1 
0.394 -0.237 -0.026 1 
0.392 -0.228 -0.025 1 
0.383 -0.165 -0.019 1 
0.383 -0.157 -0.019 1 
0.38 -0.116 -0.017 1 
0.374 -0.095 -0.015 1 
0.374 -0.091 -0.015 1 
0.373 -0.066 -0.014 1 
0.373 -0.036 -0.014 1 
0.372 -0.025 -0.014 1 
0.343 0.064 -0.004 1 
0.313 0.1 0.004 1 
0.403 -0.277 -0.028 1 
0.404 -0.256 -0.027 1 
0.402 -0.248 -0.026 1 
0.394 -0.215 -0.022 1 
0.391 -0.137 -0.019 1 
0.386 -0.125 -0.017 1 
0.384 -0.106 -0.016 1 
0.38 -0.096 -0.015 1 
0.384 -0.091 -0.016 1 
0.382 -0.077 -0.015 1 
0.38 -0.074 -0.015 1 
0.38 -0.045 -0.014 1 
0.381 -0.03 -0.015 1 
0.376 -0.025 -0.013 1 
0.371 -0.016 -0.011 1 
0.365 -0.003 -0.009 1 
0.354 -0.001 -0.006 1 
0.35 0.033 -0.005 1 
0.352 0.044 -0.005 1 
0.35 0.053 -0.005 1 
0.35 0.063 -0.005 1 
0.344 0.074 -0.003 1 
0.341 0.084 -0.002 1 
0.383 -0.216 -0.023 1 
0.401 -0.226 -0.023 1 
0.384 -0.202 -0.017 1 
0.394 -0.199 -0.02 1 
0.394 -0.178 -0.019 1 
0.392 -0.165 -0.018 1 
0.391 -0.107 -0.017 1 
0.384 -0.097 -0.014 1 
0.394 -0.089 -0.017 1 
0.386 -0.072 -0.015 1 
0.384 -0.042 -0.014 1 
0.379 -0.016 -0.012 1 
0.357 -0.001 -0.005 1 
0.353 0.037 -0.004 1 
0.356 0.043 -0.005 1 
0.349 0.073 -0.003 1 
0.338 0.094 0 1 
0.323 0.101 0.004 1 
0.293 0.095 0.014 1 
0.414 -0.286 -0.027 1 
0.414 -0.255 -0.026 1 
0.412 -0.245 -0.025 1 
0.412 -0.242 -0.025 1 
0.41 -0.238 -0.024 1 
0.406 -0.229 -0.022 1 
0.403 -0.207 -0.021 1 
0.403 -0.195 -0.02 1 
0.401 -0.186 -0.019 1 
0.399 -0.166 -0.018 1 
0.394 -0.119 -0.016 1 
0.394 -0.1 -0.015 1 
0.393 -0.076 -0.015 1 
0.392 -0.064 -0.014 1 
0.394 -0.056 -0.015 1 
0.393 -0.05 -0.015 1 
0.39 -0.045 -0.014 1 
0.392 -0.035 -0.014 1 
0.392 -0.027 -0.014 1 
0.394 -0.026 -0.015 1 
0.377 -0.001 -0.01 1 
0.345 0.005 0 1 
0.359 0.043 -0.004 1 
0.363 0.053 -0.006 1 
0.361 0.063 -0.005 1 
0.36 0.068 -0.005 1 
0.326 0.098 0.004 1 
0.295 0.094 0.014 1 
0.414 -0.283 -0.025 1 
0.344 -0.001 -0.006 1 
0.42 -0.267 -0.026 1 
0.42 -0.258 -0.025 1 
0.364 -0.006 -0.011 1 
0.413 -0.215 -0.021 1 
0.402 -0.148 -0.017 1 
0.404 -0.135 -0.017 1 
0.401 -0.127 -0.016 1 
0.403 -0.119 -0.016 1 
0.401 -0.105 -0.016 1 
0.4 -0.083 -0.015 1 
0.394 -0.068 -0.013 1 
0.397 -0.065 -0.014 1 
0.397 -0.038 -0.014 1 
0.401 -0.035 -0.015 1 
0.385 -0.001 -0.01 1 
0.343 0.021 0.002 1 
0.354 0.024 -0.001 1 
0.367 0.033 -0.005 1 
0.371 0.044 -0.006 1 
0.367 0.052 -0.005 1 
0.363 0.073 -0.004 1 
0.294 0.095 0.016 1 
0.423 -0.29 -0.025 1 
0.421 -0.285 -0.024 1 
0.427 -0.277 -0.025 1 
0.425 -0.269 -0.025 1 
0.423 -0.256 -0.023 1 
0.413 -0.205 -0.019 1 
0.412 -0.166 -0.018 1 
0.39 -0.246 -0.027 1 
0.413 -0.117 -0.017 1 
0.403 -0.097 -0.014 1 
0.407 -0.097 -0.015 1 
0.407 -0.086 -0.015 1 
0.405 -0.08 -0.014 1 
0.405 -0.065 -0.014 1 
0.404 -0.059 -0.014 1 
0.408 -0.057 -0.015 1 
0.404 -0.05 -0.014 1 
0.407 -0.036 -0.015 1 
0.408 -0.031 -0.015 1 
0.4 -0.016 -0.013 1 
0.335 0.006 0.006 1 
0.332 0.022 0.007 1 
0.351 0.027 0.001 1 
0.373 0.063 -0.005 1 
0.37 0.074 -0.004 1 
0.364 0.084 -0.003 1 
0.431 -0.309 -0.026 1 
0.43 -0.298 -0.025 1 
0.43 -0.286 -0.024 1 
0.424 -0.245 -0.021 1 
0.423 -0.236 -0.02 1 
0.421 -0.227 -0.019 1 
0.414 -0.184 -0.016 1 
0.412 -0.156 -0.015 1 
0.41 -0.145 -0.015 1 
0.414 -0.136 -0.015 1 
0.414 -0.111 -0.015 1 
0.414 -0.066 -0.015 1 
0.412 -0.056 -0.014 1 
0.413 -0.052 -0.014 1 
0.414 -0.048 -0.015 1 
0.415 -0.028 -0.015 1 
0.413 -0.025 -0.014 1 
0.37 0.033 -0.002 1 
0.384 0.039 -0.006 1 
0.378 0.071 -0.005 1 
0.376 0.074 -0.004 1 
0.373 0.084 -0.003 1 
0.36 0.093 0 1 
0.437 -0.315 -0.025 1 
0.434 -0.275 -0.022 1 
0.431 -0.258 -0.021 1 
0.423 -0.216 -0.017 1 
0.423 -0.195 -0.017 1 
0.422 -0.177 -0.016 1 
0.418 -0.157 -0.015 1 
0.418 -0.153 -0.015 1 
0.422 -0.126 -0.015 1 
0.42 -0.106 -0.014 1 
0.422 -0.096 -0.015 1 
0.421 -0.086 -0.015 1 
0.421 -0.077 -0.014 1 
0.422 -0.075 -0.015 1 
0.422 -0.068 -0.015 1 
0.419 -0.065 -0.014 1 
0.421 -0.056 -0.014 1 
0.421 -0.047 -0.014 1 
0.384 -0.188 -0.021 1 
0.394 -0.147 -0.018 1 
0.42 -0.035 -0.014 1 
0.41 -0.016 -0.011 1 
0.398 -0.003 -0.012 1 
0.409 -0.014 -0.011 1 
0.387 0.064 -0.005 1 
0.384 0.079 -0.005 1 
0.378 0.084 -0.003 1 
0.35 0.099 0.004 1 
0.334 0.041 -0.004 1 
0.311 0.097 0.014 1 
0.441 -0.298 -0.022 1 
0.431 -0.225 -0.017 1 
0.43 -0.217 -0.017 1 
0.429 -0.205 -0.016 1 
0.423 -0.146 -0.014 1 
0.424 -0.142 -0.014 1 
0.428 -0.129 -0.015 1 
0.431 -0.106 -0.015 1 
0.431 -0.096 -0.015 1 
0.43 -0.091 -0.015 1 
0.424 -0.027 -0.013 1 
0.423 -0.015 -0.013 1 
0.453 -0.012 -0.021 1 
0.395 0.049 -0.005 1 
0.394 0.053 -0.005 1 
0.399 -0.237 -0.025 1 
0.393 0.074 -0.005 1 
0.391 0.079 -0.005 1 
0.373 0.094 0 1 
0.436 -0.205 -0.016 1 
0.435 -0.189 -0.015 1 
0.434 -0.185 -0.015 1 
0.435 -0.181 -0.015 1 
0.434 -0.175 -0.015 1 
0.429 -0.167 -0.013 1 
0.43 -0.145 -0.013 1 
0.434 -0.135 -0.014 1 
0.431 -0.116 -0.013 1 
0.429 -0.105 -0.012 1 
0.433 -0.097 -0.013 1 
0.434 -0.09 -0.013 1 
0.433 -0.075 -0.013 1 
0.43 -0.065 -0.012 1 
0.434 -0.047 -0.013 1 
0.433 -0.035 -0.013 1 
0.394 0.051 -0.003 1 
0.396 0.054 -0.004 1 
0.399 0.057 -0.004 1 
0.4 0.065 -0.005 1 
0.403 -0.221 -0.021 1 
0.393 0.084 -0.003 1 
0.361 0.101 0.004 1 
0.451 -0.315 -0.02 1 
0.444 -0.276 -0.017 1 
0.441 -0.256 -0.016 1 
0.439 -0.24 -0.015 1 
0.44 -0.227 -0.014 1 
0.441 -0.217 -0.015 1 
0.441 -0.187 -0.014 1 
0.438 -0.175 -0.013 1 
0.434 -0.155 -0.012 1 
0.434 -0.134 -0.011 1 
0.44 -0.105 -0.013 1 
0.439 -0.097 -0.012 1 
0.44 -0.085 -0.012 1 
0.441 -0.055 -0.013 1 
0.441 -0.045 -0.012 1 
0.455 -0.012 -0.016 1 
0.332 0.004 0.014 1 
0.37 0.1 0.004 1 
0.454 -0.298 -0.017 1 
0.45 -0.288 -0.016 1 
0.444 -0.255 -0.014 1 
0.444 -0.247 -0.013 1 
0.444 -0.241 -0.013 1 
0.444 -0.195 -0.012 1 
0.443 -0.165 -0.012 1 
0.444 -0.155 -0.012 1 
0.443 -0.152 -0.011 1 
0.444 -0.137 -0.011 1 
0.444 -0.121 -0.011 1 
0.443 -0.076 -0.011 1 
0.442 -0.068 -0.01 1 
0.401 0.063 -0.005 1 
0.444 -0.036 -0.011 1 
0.441 -0.028 -0.01 1 
0.466 -0.012 -0.016 1 
0.332 0.004 0.016 1 
0.412 0.062 -0.003 1 
0.458 -0.306 -0.016 1 
0.456 -0.297 -0.015 1 
0.449 -0.275 -0.013 1 
0.45 -0.255 -0.012 1 
0.452 -0.225 -0.012 1 
0.451 -0.216 -0.012 1 
0.452 -0.206 -0.012 1 
0.45 -0.196 -0.011 1 
0.453 -0.185 -0.012 1 
0.451 -0.178 -0.011 1 
0.45 -0.145 -0.01 1 
0.452 -0.125 -0.011 1 
0.454 -0.105 -0.011 1 
0.454 -0.097 -0.011 1 
0.44 -0.208 -0.014 1 
0.452 -0.086 -0.01 1 
0.452 -0.055 -0.01 1 
0.384 0.103 0.004 1 
0.463 -0.345 -0.015 1 
0.464 -0.315 -0.014 1 
0.461 -0.305 -0.013 1 
0.454 -0.247 -0.01 1 
0.453 -0.243 -0.01 1 
0.454 -0.158 -0.009 1 
0.454 -0.123 -0.009 1 
0.42 0.075 -0.001 1 
0.407 0.074 0.001 1 
0.4 0.091 0.003 1 
0.394 0.095 0.004 1 
0.395 -0.075 -0.013 1 
0.463 -0.295 -0.011 1 
0.463 -0.285 -0.01 1 
0.464 -0.267 -0.01 1 
0.462 -0.259 -0.01 1 
0.461 -0.247 -0.009 1 
0.463 -0.225 -0.009 1 
0.462 -0.216 -0.009 1 
0.46 -0.195 -0.008 1 
0.462 -0.185 -0.008 1 
0.461 -0.176 -0.008 1 
0.37 0.004 0.012 1 
0.414 0.083 0.002 1 
0.399 0.088 0.005 1 
0.379 -0.093 -0.014 1 
0.379 0.092 0.009 1 
0.387 0.098 0.007 1 
0.384 0.099 0.008 1 
0.363 -0.086 -0.014 1 
0.474 -0.346 -0.012 1 
0.474 -0.329 -0.011 1 
0.361 -0.075 -0.015 1 
0.474 -0.315 -0.011 1 
0.451 -0.045 -0.01 1 
0.473 -0.308 -0.01 1 
0.465 -0.178 -0.006 1 
0.462 -0.168 -0.005 1 
0.463 -0.157 -0.006 1 
0.464 -0.149 -0.006 1 
0.466 -0.145 -0.006 1 
0.464 -0.138 -0.006 1 
0.466 -0.136 -0.006 1 
0.465 -0.133 -0.006 1 
0.464 -0.125 -0.005 1 
0.465 -0.117 -0.006 1 
0.465 -0.111 -0.006 1 
0.38 -0.146 -0.018 1 
0.462 -0.086 -0.005 1 
0.463 -0.076 -0.005 1 
0.384 -0.237 -0.027 1 
0.462 -0.057 -0.005 1 
0.462 -0.049 -0.005 1 
0.461 -0.036 -0.005 1 
0.464 -0.025 -0.005 1 
0.473 -0.015 -0.007 1 
0.39 -0.228 -0.024 1 
0.391 -0.001 0.009 1 
0.365 0.007 0.015 1 
0.368 -0.006 -0.01 1 
0.372 0.009 0.013 1 
0.384 -0.066 -0.014 1 
0.422 -0.105 -0.015 1 
0.407 0.08 0.005 1 
0.392 -0.207 -0.017 1 
0.4 -0.096 -0.015 1 
0.476 -0.356 -0.009 1 
0.474 -0.286 -0.007 1 
0.474 -0.248 -0.006 1 
0.472 -0.237 -0.006 1 
0.472 -0.226 -0.006 1 
0.473 -0.218 -0.006 1 
0.471 -0.208 -0.005 1 
0.47 -0.195 -0.005 1 
0.47 -0.192 -0.005 1 
0.464 -0.095 -0.003 1 
0.464 -0.076 -0.002 1 
0.464 -0.068 -0.002 1 
0.412 -0.187 -0.018 1 
0.476 -0.01 -0.005 1 
0.481 -0.347 -0.007 1 
0.48 -0.335 -0.006 1 
0.482 -0.327 -0.007 1 
0.39 0.044 -0.006 1 
0.48 -0.315 -0.006 1 
0.475 -0.296 -0.005 1 
0.474 -0.286 -0.004 1 
0.474 -0.216 -0.003 1 
0.379 -0.005 -0.012 1 
0.376 0.011 0.012 1 
0.478 -0.004 -0.003 1 
0.398 0.004 0.012 1 
0.393 -0.005 -0.013 1 
0.39 0.014 0.013 1 
0.482 -0.355 -0.004 1 
0.473 -0.206 0 1 
0.48 -0.149 0 1 
0.475 -0.138 0 1 
0.405 0.004 0.013 1 
0.404 -0.007 -0.012 1 
0.403 0.013 0.013 1 
0.396 0.019 0.014 1 
0.411 0.022 0.012 1 
0.374 -0.082 -0.016 1 
0.477 -0.266 0.001 1 
0.473 -0.197 0.002 1 
0.47 -0.186 0.003 1 
0.472 -0.176 0.002 1 
0.47 -0.155 0.003 1 
0.472 -0.145 0.003 1 
0.373 -0.205 -0.024 1 
0.472 -0.136 0.003 1 
0.47 -0.116 0.003 1 
0.469 -0.107 0.004 1 
0.467 -0.096 0.004 1 
0.467 -0.087 0.004 1 
0.467 -0.077 0.004 1 
0.414 -0.127 -0.018 1 
0.469 -0.007 0.004 1 
0.47 -0.001 0.003 1 
0.445 0.003 0.008 1 
0.48 -0.308 0.002 1 
0.477 -0.288 0.003 1 
0.476 -0.281 0.003 1 
0.473 -0.275 0.004 1 
0.474 -0.257 0.004 1 
0.474 -0.251 0.004 1 
0.475 -0.24 0.004 1 
0.474 -0.236 0.004 1 
0.452 -0.065 -0.01 1 
0.42 -0.09 -0.014 1 
0.483 -0.327 0.004 1 
0.451 0.01 0.012 1 
0.464 -0.012 0.012 1 
0.399 -0.155 -0.018 1 
0.465 -0.007 0.012 1 
0.463 -0.004 0.013 1 
0.466 0.003 0.012 1 
0.458 0.011 0.013 1 
0.447 0.013 0.015 1 
0.43 0.014 0.018 1 
0.358 0.096 0.01 1 
0.452 -0.017 -0.016 1 
0.415 0.085 0.001 1 
0.428 -0.136 -0.015 1 
0.443 -0.266 -0.016 1 
0.469 -0.015 -0.017 1 
0.462 -0.017 -0.015 1 
0.444 -0.317 -0.021 1 
0.401 -0.086 -0.015 1 
0.452 -0.135 -0.011 1 
0.44 -0.246 -0.015 1 
0.467 -0.126 0.004 1 
0.393 0.092 0.004 1 
0.399 0.073 -0.002 1 
0.473 -0.266 0.004 1 
0.434 -0.246 -0.019 1 
0.394 0.016 0.013 1 
0.333 0.064 -0.004 1 
0.333 0 -0.005 1 
0.408 -0.077 -0.015 1 
0.422 -0.205 -0.017 1 
0.451 -0.305 -0.02 1 
0.411 -0.196 -0.018 1 
0.414 -0.043 -0.014 1 
0.332 0.025 0.008 1 
0.316 0.024 0.014 1 
0.421 -0.282 -0.024 1 
0.474 -0.336 -0.011 1 
0.37 -0.065 -0.015 1 
0.447 -0.276 -0.015 1 
0.464 -0.332 -0.015 1 
0.479 -0.255 0 1 
0.416 -0.035 -0.015 1 
0.435 -0.197 -0.015 1 
0.304 0.095 0.014 1 
0.351 -0.006 -0.011 1 
0.454 -0.024 -0.011 1 
0.464 -0.119 -0.005 1 
0.381 -0.126 -0.018 1 
0.475 -0.012 0 1 
0.434 -0.235 -0.018 1 
0.422 -0.155 -0.013 1 
0.359 0.045 -0.004 1 
0.426 -0.167 -0.015 1 
0.419 -0.254 -0.025 1 
0.343 0.003 0.016 1 
0.474 -0.012 -0.01 1 
0.47 0.008 0.014 1 
0.433 -0.265 -0.022 1 
0.464 -0.028 -0.003 1 
0.339 0.014 0.003 1 
0.463 -0.065 -0.005 1 
0.474 -0.299 -0.007 1 
0.361 0.005 0.016 1 
0.415 -0.046 -0.015 1 
0.373 -0.045 -0.014 1 
0.448 -0.265 -0.012 1 
0.348 0.093 0 1 
0.419 -0.165 -0.015 1 
0.463 -0.023 -0.008 1 
0.477 -0.305 -0.005 1 
0.464 -0.339 -0.015 1 
0.422 -0.136 -0.015 1 
0.479 -0.297 0.003 1 
0.453 -0.03 -0.008 1 
0.399 -0.175 -0.019 1 
0.439 -0.286 -0.021 1 
0.453 -0.037 -0.008 1 
0.452 -0.287 -0.014 1 
0.444 -0.019 -0.013 1 
0.463 -0.105 -0.005 1 
0.393 -0.157 -0.018 1 
0.366 -0.001 0.016 1 
0.361 -0.095 -0.016 1 
0.445 -0.325 -0.025 1 
0.368 0.095 0.01 1 
0.379 -0.177 -0.021 1 
0.465 -0.155 -0.006 1 
0.413 -0.265 -0.026 1 
0.464 -0.318 -0.015 1 
0.451 -0.075 -0.01 1 
0.372 -0.056 -0.014 1 
0.346 0.003 0 1 
0.43 -0.025 -0.012 1 
0.424 -0.186 -0.017 1 
0.364 -0.017 -0.011 1 
0.404 -0.267 -0.028 1 
0.442 -0.308 -0.023 1 
0.444 -0.129 -0.011 1 
0.432 -0.056 -0.013 1 
0.374 -0.155 -0.02 1 
0.383 0.051 -0.006 1 
0.332 0.094 0 1 
0.282 0.094 0.014 1 
0.464 -0.087 -0.002 1 
0.334 0.084 -0.003 1 
0.447 -0.27 -0.015 1 
0.406 0.089 0.003 1 
0.477 -0.004 -0.005 1 
0.438 -0.307 -0.025 1 
0.351 0.084 -0.002 1 
0.439 -0.009 -0.02 1 
0.472 -0.268 -0.006 1 
0.363 -0.116 -0.017 1 
0.358 0.003 0.016 1 
0.473 -0.278 -0.007 1 
0.379 -0.206 -0.022 1 
0.342 0.054 -0.005 1 
0.394 -0.194 -0.02 1 
0.42 -0.116 -0.015 1 
0.473 -0.257 -0.006 1 
0.378 0.063 -0.005 1 
0.383 -0.059 -0.013 1 
0.328 0.054 -0.003 1 
0.383 0.094 0.002 1 
0.391 0.02 0.017 1 
0.281 0.095 0.014 1 
0.472 -0.165 0.003 1 
0.424 -0.277 -0.025 1 
0.464 -0.057 -0.002 1 
0.462 -0.097 -0.005 1 
0.354 0.066 -0.005 1 
0.434 -0.198 -0.015 1 
0.483 -0.321 0.004 1 
0.458 -0.205 -0.008 1 
0.453 -0.165 -0.009 1 
0.404 -0.027 -0.014 1 
0.441 -0.225 -0.015 1 
0.464 -0.28 -0.011 1 
0.402 0.083 -0.001 1 
0.4 -0.028 -0.015 1 
0.374 -0.167 -0.02 1 
0.427 -0.02 -0.011 1 
0.452 -0.329 -0.021 1 
0.364 0.03 -0.002 1 
0.463 -0.236 -0.009 1 
0.465 -0.337 -0.015 1 
0.393 -0.015 -0.013 1 
0.465 -0.326 -0.015 1 
0.387 0.092 0.007 1 
0.381 -0.135 -0.018 1 
0.475 -0.246 0.004 1 
0.419 -0.118 -0.014 1 
0.371 0.07 -0.005 1 
0.343 0.097 0.004 1 
0.433 -0.304 -0.023 1 
0.339 0.003 0.003 1 
0.255 0.062 0.064 2 
0.248 0.075 0.053 2 
0.276 0.048 0.054 2 
0.268 0.085 0.013 2 
0.294 0.044 0.062 2 
0.254 0.101 0.024 2 
0.308 0.047 0.069 2 
0.296 0.044 0.067 2 
0.284 0.072 0.035 2 
0.244 0.089 0.044 2 
0.287 0.049 0.064 2 
0.306 0.05 0.07 2 
0.276 0.051 0.064 2 
0.266 0.054 0.064 2 
0.265 0.055 0.064 2 
0.285 0.059 0.074 2 
0.245 0.077 0.061 2 
0.252 0.064 0.064 2 
0.246 0.069 0.049 2 
0.244 0.074 0.064 2 
0.238 0.083 0.064 2 
0.296 0.054 0.074 2 
0.273 0.054 0.068 2 
0.254 0.064 0.066 2 
0.315 0.062 0.077 2 
0.304 0.059 0.076 2 
0.279 0.054 0.07 2 
0.303 0.095 0.017 2 
0.254 0.064 0.054 2 
0.288 0.054 0.072 2 
0.295 0.064 0.08 2 
0.307 0.033 0.053 2 
0.27 0.054 0.044 2 
0.266 0.06 0.044 2 
0.275 0.049 0.044 2 
0.285 0.046 0.044 2 
0.286 0.056 0.034 2 
0.255 0.075 0.032 2 
0.301 0.034 0.048 2 
0.296 0.041 0.044 2 
0.31 0.031 0.048 2 
0.327 0.032 0.051 2 
0.347 0.037 0.051 2 
0.333 0.036 0.054 2 
0.317 0.034 0.055 2 
0.265 0.055 0.051 2 
0.245 0.085 0.052 2 
0.264 0.054 0.058 2 
0.296 0.087 0.024 2 
0.302 0.034 0.056 2 
0.264 0.054 0.054 2 
0.255 0.064 0.054 2 
0.245 0.073 0.054 2 
0.243 0.084 0.054 2 
0.242 0.087 0.054 2 
0.332 0.013 0.023 2 
0.295 0.042 0.054 2 
0.291 0.044 0.054 2 
0.251 0.095 0.031 2 
0.241 0.085 0.056 2 
0.305 0.039 0.061 2 
0.31 0.055 0.033 2 
0.323 0.024 0.039 2 
0.286 0.045 0.054 2 
0.246 0.076 0.084 2 
0.296 0.047 0.068 2 
0.247 0.074 0.084 2 
0.345 0.086 0.02 2 
0.275 0.072 0.037 2 
0.309 0.093 0.023 2 
0.235 0.079 0.084 2 
0.234 0.08 0.084 2 
0.321 0.019 0.026 2 
0.315 0.04 0.029 2 
0.292 0.044 0.044 2 
0.306 0.095 0.016 2 
0.257 0.074 0.03 2 
0.307 0.057 0.075 2 
0.315 0.032 0.028 2 
0.314 0.039 0.03 2 
0.262 0.064 0.075 2 
0.289 0.068 0.033 2 
0.245 0.07 0.059 2 
0.265 0.063 0.075 2 
0.276 0.061 0.074 2 
0.343 0.038 0.055 2 
0.265 0.063 0.074 2 
0.269 0.051 0.054 2 
0.286 0.064 0.078 2 
0.275 0.064 0.076 2 
0.26 0.064 0.074 2 
0.319 0.031 0.05 2 
0.265 0.096 0.018 2 
0.255 0.068 0.074 2 
0.301 0.044 0.038 2 
0.244 0.074 0.054 2 
0.292 0.073 0.084 2 
0.327 0.007 0.018 2 
0.283 0.072 0.078 2 
0.238 0.074 0.074 2 
0.235 0.078 0.074 2 
0.233 0.078 0.074 2 
0.266 0.073 0.083 2 
0.265 0.067 0.043 2 
0.255 0.065 0.052 2 
0.256 0.07 0.07 2 
0.24 0.074 0.082 2 
0.305 0.042 0.036 2 
0.351 -0.002 0.028 2 
0.25 0.09 0.034 2 
0.255 0.086 0.034 2 
0.315 0.096 0.015 2 
0.345 0.005 0.024 2 
0.265 0.075 0.039 2 
0.268 0.078 0.02 2 
0.34 0.095 0.016 2 
0.294 0.05 0.038 2 
0.349 0.095 0.014 2 
0.345 0.003 0.031 2 
0.295 0.049 0.038 2 
0.34 -0.002 0.027 2 
0.29 0.085 0.025 2 
0.327 0.024 0.04 2 
0.314 0.024 0.036 2 
0.292 0.089 0.019 2 
0.25 0.082 0.044 2 
0.328 0.092 0.017 2 
0.343 0.006 0.025 2 
0.296 0.055 0.034 2 
0.303 0.077 0.031 2 
0.275 0.075 0.036 2 
0.285 0.057 0.035 2 
0.305 0.048 0.035 2 
0.308 0.082 0.029 2 
0.338 0.067 0.025 2 
0.258 0.095 0.024 2 
0.275 0.057 0.039 2 
0.314 0.024 0.029 2 
0.303 0.092 0.02 2 
0.313 0.025 0.031 2 
0.308 0.029 0.038 2 
0.351 0.089 0.017 2 
0.36 0.09 0.018 2 
0.337 0.087 0.022 2 
0.319 0.025 0.039 2 
0.31 0.092 0.02 2 
0.264 0.08 0.02 2 
0.337 0.063 0.026 2 
0.258 0.105 0.02 2 
0.324 0.014 0.022 2 
0.295 0.045 0.041 2 
0.326 0.084 0.025 2 
0.244 0.083 0.044 2 
0.25 0.085 0.042 2 
0.303 0.034 0.037 2 
0.347 0.023 0.029 2 
0.282 0.085 0.014 2 
0.321 0.014 0.015 2 
0.325 0.09 0.025 2 
0.317 0.092 0.025 2 
0.341 0.091 0.018 2 
0.281 0.079 0.019 2 
0.262 0.088 0.024 2 
0.272 0.087 0.01 2 
0.286 0.08 0.018 2 
0.322 0.094 0.016 2 
0.257 0.076 0.029 2 
0.282 0.064 0.034 2 
0.326 0.095 0.012 2 
0.334 0.018 0.026 2 
0.336 0.017 0.026 2 
0.255 0.095 0.027 2 
0.281 0.086 0.009 2 
0.315 0.09 0.027 2 
0.317 0.097 0.01 2 
0.396 0.023 0.026 2 
0.515 0.075 0.065 2 
0.497 0.068 0.064 2 
0.519 0.07 0.058 2 
0.519 0.064 0.052 2 
0.499 0.051 0.046 2 
0.394 0.029 0.025 2 
0.405 0.024 0.027 2 
0.405 0.019 0.025 2 
0.398 0.021 0.025 2 
0.412 0.029 0.024 2 
0.402 0.03 0.026 2 
0.529 0.069 0.038 2 
0.521 0.064 0.039 2 
0.512 0.053 0.042 2 
0.511 0.056 0.039 2 
0.404 0.013 0.023 2 
0.382 0.023 0.025 2 
0.477 -0.186 0.154 3 
0.489 -0.325 0.162 3 
0.474 -0.155 0.153 3 
0.491 -0.338 0.163 3 
0.465 -0.017 0.103 3 
0.464 0.051 0.052 3 
0.472 -0.165 0.15 3 
0.478 -0.267 0.104 3 
0.477 -0.195 0.152 3 
0.467 -0.047 0.122 3 
0.476 -0.127 0.153 3 
0.487 -0.316 0.164 3 
0.465 0.117 0.149 3 
0.465 0.027 0.055 3 
0.465 0.114 0.149 3 
0.475 -0.096 0.152 3 
0.473 -0.106 0.152 3 
0.475 -0.113 0.153 3 
0.474 -0.115 0.152 3 
0.477 -0.177 0.154 3 
0.469 -0.055 0.123 3 
0.475 -0.135 0.153 3 
0.474 -0.138 0.153 3 
0.474 -0.146 0.153 3 
0.48 -0.245 0.154 3 
0.475 -0.164 0.153 3 
0.475 -0.167 0.153 3 
0.462 0.154 0.144 3 
0.464 -0.006 0.092 3 
0.459 0.072 0.139 3 
0.459 0.077 0.139 3 
0.47 0.178 0.143 3 
0.487 -0.296 0.154 3 
0.486 -0.291 0.154 3 
0.483 -0.285 0.153 3 
0.474 -0.132 0.147 3 
0.458 0.053 0.141 3 
0.46 0.064 0.142 3 
0.47 0.135 0.123 3 
0.463 0.113 0.143 3 
0.462 0.124 0.143 3 
0.46 0.134 0.143 3 
0.46 0.142 0.143 3 
0.466 -0.036 0.122 3 
0.461 0.162 0.143 3 
0.458 0.171 0.143 3 
0.46 0.175 0.143 3 
0.465 -0.004 0.122 3 
0.487 -0.336 0.122 3 
0.465 -0.076 0.012 3 
0.485 -0.291 0.156 3 
0.479 -0.275 0.154 3 
0.479 -0.266 0.154 3 
0.478 -0.256 0.153 3 
0.468 -0.077 0.123 3 
0.474 -0.266 0.012 3 
0.479 -0.235 0.153 3 
0.478 -0.207 0.152 3 
0.465 -0.006 0.122 3 
0.478 -0.186 0.163 3 
0.436 0.079 0.145 3 
0.459 0.104 0.153 3 
0.46 0.112 0.153 3 
0.476 -0.226 0.152 3 
0.461 0.124 0.154 3 
0.461 0.132 0.154 3 
0.462 0.141 0.154 3 
0.461 0.176 0.154 3 
0.49 -0.345 0.173 3 
0.491 -0.335 0.172 3 
0.487 -0.315 0.103 3 
0.492 -0.329 0.172 3 
0.484 -0.297 0.168 3 
0.479 -0.208 0.164 3 
0.478 -0.195 0.164 3 
0.475 -0.113 0.158 3 
0.478 -0.175 0.163 3 
0.476 -0.165 0.162 3 
0.476 -0.156 0.162 3 
0.476 -0.147 0.162 3 
0.472 -0.145 0.124 3 
0.471 -0.147 0.083 3 
0.477 -0.136 0.162 3 
0.473 -0.087 0.16 3 
0.475 -0.065 0.16 3 
0.456 0.09 0.154 3 
0.489 -0.319 0.174 3 
0.487 -0.307 0.173 3 
0.485 -0.298 0.172 3 
0.485 -0.291 0.172 3 
0.484 -0.287 0.171 3 
0.463 0.152 0.152 3 
0.48 -0.307 0.014 3 
0.468 -0.066 0.123 3 
0.486 -0.302 0.163 3 
0.464 -0.03 0.14 3 
0.469 -0.085 0.123 3 
0.484 -0.297 0.162 3 
0.482 -0.285 0.161 3 
0.438 0.037 0.024 3 
0.474 -0.141 0.155 3 
0.473 -0.095 0.154 3 
0.469 -0.096 0.123 3 
0.469 -0.086 0.153 3 
0.479 -0.287 0.093 3 
0.47 -0.078 0.153 3 
0.469 -0.105 0.123 3 
0.487 -0.306 0.164 3 
0.462 0.163 0.152 3 
0.46 0.173 0.151 3 
0.482 -0.278 0.164 3 
0.47 -0.116 0.123 3 
0.48 -0.267 0.163 3 
0.48 -0.257 0.163 3 
0.472 -0.136 0.124 3 
0.481 -0.246 0.163 3 
0.481 -0.236 0.162 3 
0.479 -0.226 0.162 3 
0.48 -0.217 0.162 3 
0.474 -0.158 0.159 3 
0.474 -0.152 0.159 3 
0.477 -0.245 0.112 3 
0.471 -0.125 0.124 3 
0.49 -0.326 0.144 3 
0.467 -0.066 0.133 3 
0.471 -0.078 0.134 3 
0.471 -0.086 0.134 3 
0.47 -0.099 0.134 3 
0.462 0.043 0.124 3 
0.485 -0.297 0.142 3 
0.487 -0.305 0.142 3 
0.489 -0.318 0.143 3 
0.468 -0.055 0.133 3 
0.461 0.053 0.124 3 
0.47 -0.116 0.132 3 
0.471 -0.125 0.132 3 
0.48 -0.317 0.034 3 
0.472 -0.137 0.132 3 
0.472 -0.145 0.133 3 
0.469 -0.155 0.132 3 
0.472 -0.165 0.133 3 
0.468 -0.047 0.133 3 
0.46 0.032 0.123 3 
0.466 -0.036 0.133 3 
0.467 -0.025 0.133 3 
0.467 -0.023 0.133 3 
0.455 0.034 0.13 3 
0.458 0.024 0.123 3 
0.461 0.043 0.132 3 
0.462 0.003 0.124 3 
0.459 0.133 0.132 3 
0.463 -0.006 0.124 3 
0.464 -0.017 0.124 3 
0.465 -0.02 0.124 3 
0.456 0.154 0.131 3 
0.464 -0.025 0.124 3 
0.459 0.122 0.124 3 
0.478 -0.236 0.133 3 
0.478 -0.246 0.133 3 
0.477 -0.257 0.133 3 
0.459 0.104 0.123 3 
0.479 -0.269 0.134 3 
0.459 0.112 0.124 3 
0.484 -0.345 0.061 3 
0.472 -0.167 0.044 3 
0.477 -0.227 0.132 3 
0.48 -0.276 0.134 3 
0.485 -0.29 0.135 3 
0.484 -0.306 0.136 3 
0.461 0.134 0.124 3 
0.457 0.146 0.123 3 
0.457 0.143 0.123 3 
0.473 -0.206 0.013 3 
0.477 -0.217 0.132 3 
0.475 -0.21 0.052 3 
0.465 0.014 0.092 3 
0.476 -0.205 0.131 3 
0.474 -0.215 0.064 3 
0.465 -0.014 0.127 3 
0.462 -0.006 0.126 3 
0.459 0.093 0.123 3 
0.461 0.083 0.124 3 
0.484 -0.296 0.138 3 
0.476 -0.196 0.134 3 
0.476 -0.187 0.134 3 
0.474 -0.181 0.134 3 
0.462 0.062 0.124 3 
0.475 -0.178 0.134 3 
0.489 -0.325 0.153 3 
0.489 -0.328 0.134 3 
0.473 -0.166 0.144 3 
0.474 -0.175 0.145 3 
0.473 -0.186 0.145 3 
0.474 -0.196 0.145 3 
0.487 -0.306 0.151 3 
0.487 -0.319 0.134 3 
0.49 -0.319 0.153 3 
0.473 -0.157 0.144 3 
0.489 -0.336 0.153 3 
0.484 -0.306 0.133 3 
0.459 0.104 0.137 3 
0.459 0.093 0.137 3 
0.484 -0.296 0.132 3 
0.441 0.04 0.132 3 
0.466 -0.028 0.138 3 
0.465 -0.055 0.138 3 
0.473 -0.146 0.144 3 
0.474 -0.129 0.144 3 
0.475 -0.127 0.144 3 
0.475 -0.121 0.144 3 
0.474 -0.115 0.144 3 
0.472 -0.106 0.143 3 
0.471 -0.092 0.143 3 
0.514 -0.098 0.155 3 
0.503 -0.092 0.152 3 
0.517 -0.093 0.155 3 
0.456 -0.071 0.138 3 
0.466 -0.047 0.141 3 
0.489 -0.346 0.135 3 
0.463 -0.036 0.14 3 
0.468 -0.066 0.023 3 
0.483 -0.285 0.132 3 
0.461 0.086 0.134 3 
0.461 0.08 0.134 3 
0.461 0.072 0.134 3 
0.461 0.062 0.134 3 
0.461 0.054 0.134 3 
0.462 0.043 0.135 3 
0.45 0.039 0.131 3 
0.468 -0.077 0.136 3 
0.46 0.104 0.134 3 
0.475 -0.192 0.14 3 
0.478 -0.246 0.141 3 
0.478 -0.255 0.142 3 
0.479 -0.266 0.142 3 
0.465 -0.03 0.124 3 
0.479 -0.275 0.143 3 
0.482 -0.288 0.144 3 
0.463 -0.036 0.023 3 
0.46 0.112 0.134 3 
0.467 -0.096 0.012 3 
0.46 0.12 0.134 3 
0.459 0.144 0.134 3 
0.458 0.157 0.134 3 
0.485 -0.267 0.147 3 
0.478 -0.237 0.144 3 
0.477 -0.227 0.144 3 
0.477 -0.215 0.143 3 
0.478 -0.206 0.143 3 
0.473 -0.165 0.094 3 
0.476 -0.196 0.143 3 
0.473 -0.186 0.142 3 
0.474 -0.175 0.142 3 
0.465 -0.068 0.138 3 
0.472 -0.187 0.044 3 
0.484 -0.197 0.192 3 
0.485 -0.207 0.193 3 
0.484 -0.209 0.193 3 
0.486 -0.217 0.194 3 
0.487 -0.227 0.194 3 
0.474 -0.177 0.1 3 
0.486 -0.235 0.194 3 
0.484 -0.24 0.194 3 
0.495 -0.326 0.202 3 
0.47 0.053 0.184 3 
0.47 0.215 0.184 3 
0.462 0.077 0.073 3 
0.47 0.209 0.184 3 
0.467 0.201 0.183 3 
0.469 0.174 0.183 3 
0.474 -0.135 0.144 3 
0.464 0.12 0.179 3 
0.464 0.114 0.179 3 
0.467 0.113 0.183 3 
0.466 0.181 0.184 3 
0.467 0.161 0.184 3 
0.466 0.152 0.184 3 
0.467 0.144 0.184 3 
0.467 0.132 0.183 3 
0.48 -0.276 0.122 3 
0.467 0.124 0.183 3 
0.469 -0.105 0.134 3 
0.464 0.103 0.179 3 
0.466 0.104 0.183 3 
0.464 0.092 0.182 3 
0.465 0.15 0.15 3 
0.465 0.087 0.182 3 
0.465 -0.036 0.002 3 
0.466 0.082 0.182 3 
0.466 0.074 0.182 3 
0.469 0.064 0.183 3 
0.473 -0.045 0.179 3 
0.487 -0.277 0.193 3 
0.489 -0.289 0.194 3 
0.473 -0.239 0.013 3 
0.477 0.217 0.184 3 
0.464 0.128 0.177 3 
0.458 0.045 0.173 3 
0.476 -0.032 0.181 3 
0.474 -0.034 0.18 3 
0.469 -0.036 0.172 3 
0.487 -0.267 0.193 3 
0.467 -0.055 0.063 3 
0.471 -0.056 0.178 3 
0.473 -0.065 0.179 3 
0.478 -0.117 0.182 3 
0.478 -0.125 0.182 3 
0.477 -0.137 0.182 3 
0.478 -0.146 0.183 3 
0.477 -0.157 0.183 3 
0.475 -0.21 0.069 3 
0.478 -0.035 0.184 3 
0.474 -0.037 0.183 3 
0.475 -0.046 0.183 3 
0.476 -0.057 0.183 3 
0.476 -0.065 0.183 3 
0.464 0.032 0.052 3 
0.478 -0.077 0.184 3 
0.465 0.003 0.092 3 
0.464 0.185 0.184 3 
0.478 -0.086 0.184 3 
0.476 -0.096 0.184 3 
0.477 -0.105 0.184 3 
0.474 -0.165 0.102 3 
0.484 -0.234 0.191 3 
0.483 -0.246 0.191 3 
0.485 -0.25 0.191 3 
0.486 -0.257 0.192 3 
0.482 -0.217 0.183 3 
0.467 0.074 0.185 3 
0.47 0.114 0.187 3 
0.467 0.102 0.186 3 
0.462 0.084 0.164 3 
0.466 0.093 0.185 3 
0.465 0.082 0.185 3 
0.472 0.064 0.187 3 
0.474 0.054 0.188 3 
0.464 0.046 0.184 3 
0.468 0.124 0.187 3 
0.473 -0.176 0.072 3 
0.478 -0.035 0.19 3 
0.487 -0.255 0.198 3 
0.476 -0.046 0.189 3 
0.478 -0.057 0.19 3 
0.478 -0.066 0.19 3 
0.468 -0.132 0.014 3 
0.48 -0.075 0.191 3 
0.466 0.192 0.188 3 
0.469 -0.085 0.074 3 
0.482 0.233 0.195 3 
0.472 0.223 0.191 3 
0.465 -0.044 0.141 3 
0.475 0.222 0.192 3 
0.471 0.21 0.19 3 
0.48 -0.297 0.023 3 
0.469 0.203 0.189 3 
0.48 -0.086 0.191 3 
0.467 0.184 0.188 3 
0.468 0.173 0.188 3 
0.469 0.162 0.188 3 
0.475 -0.213 0.004 3 
0.467 0.153 0.187 3 
0.467 0.144 0.186 3 
0.467 0.132 0.186 3 
0.46 0.064 0.113 3 
0.492 -0.289 0.202 3 
0.487 -0.227 0.197 3 
0.466 0.003 0.052 3 
0.486 -0.236 0.197 3 
0.483 -0.236 0.196 3 
0.475 -0.118 0.153 3 
0.484 -0.247 0.197 3 
0.485 -0.251 0.198 3 
0.49 -0.267 0.2 3 
0.491 -0.278 0.201 3 
0.486 -0.217 0.197 3 
0.492 -0.295 0.202 3 
0.472 -0.176 0.052 3 
0.49 -0.307 0.202 3 
0.492 -0.316 0.203 3 
0.495 -0.326 0.205 3 
0.496 -0.335 0.206 3 
0.475 0.225 0.189 3 
0.465 0.192 0.184 3 
0.483 -0.157 0.194 3 
0.478 -0.097 0.19 3 
0.478 -0.106 0.19 3 
0.481 -0.115 0.192 3 
0.481 -0.127 0.192 3 
0.481 -0.136 0.192 3 
0.461 0.093 0.103 3 
0.484 -0.315 0.1 3 
0.481 -0.147 0.193 3 
0.476 -0.165 0.182 3 
0.483 -0.166 0.194 3 
0.468 -0.066 0.074 3 
0.48 -0.176 0.193 3 
0.482 -0.187 0.194 3 
0.484 -0.191 0.195 3 
0.485 -0.197 0.196 3 
0.468 -0.077 0.052 3 
0.486 -0.207 0.196 3 
0.479 -0.248 0.174 3 
0.48 -0.179 0.173 3 
0.48 -0.188 0.173 3 
0.467 -0.087 0.012 3 
0.478 -0.196 0.172 3 
0.478 -0.205 0.173 3 
0.481 -0.219 0.174 3 
0.478 -0.216 0.152 3 
0.48 -0.236 0.174 3 
0.46 0.014 0.123 3 
0.474 -0.11 0.169 3 
0.474 -0.206 0.083 3 
0.484 -0.281 0.177 3 
0.491 -0.328 0.181 3 
0.478 -0.296 0.064 3 
0.492 -0.336 0.182 3 
0.463 0.195 0.164 3 
0.467 -0.05 0.004 3 
0.462 0.192 0.164 3 
0.488 -0.298 0.182 3 
0.474 -0.121 0.172 3 
0.476 -0.125 0.173 3 
0.476 -0.136 0.173 3 
0.476 -0.145 0.173 3 
0.476 -0.156 0.174 3 
0.476 -0.165 0.174 3 
0.469 -0.096 0.052 3 
0.485 -0.272 0.18 3 
0.463 0.184 0.164 3 
0.489 -0.305 0.183 3 
0.489 -0.316 0.183 3 
0.461 0.124 0.164 3 
0.461 0.099 0.164 3 
0.461 0.094 0.164 3 
0.461 0.073 0.164 3 
0.474 -0.23 0.03 3 
0.446 0.046 0.158 3 
0.468 -0.085 0.104 3 
0.479 -0.257 0.171 3 
0.482 -0.266 0.173 3 
0.483 -0.276 0.173 3 
0.465 0.167 0.161 3 
0.464 0.153 0.161 3 
0.437 0.067 0.15 3 
0.475 -0.059 0.163 3 
0.471 -0.075 0.162 3 
0.475 -0.084 0.163 3 
0.476 -0.241 0.01 3 
0.475 -0.225 0.021 3 
0.475 -0.087 0.163 3 
0.476 -0.096 0.164 3 
0.474 -0.101 0.163 3 
0.473 -0.106 0.163 3 
0.474 -0.115 0.164 3 
0.475 -0.118 0.164 3 
0.473 -0.288 0.055 3 
0.462 0.132 0.162 3 
0.462 0.172 0.163 3 
0.464 0.164 0.163 3 
0.465 0.156 0.164 3 
0.466 -0.036 0.103 3 
0.465 0.153 0.164 3 
0.485 -0.313 0.133 3 
0.465 0.142 0.163 3 
0.464 0.139 0.163 3 
0.492 -0.335 0.144 3 
0.464 0.114 0.163 3 
0.467 -0.05 0.163 3 
0.47 -0.058 0.164 3 
0.47 -0.067 0.164 3 
0.474 -0.098 0.166 3 
0.485 -0.227 0.172 3 
0.484 -0.233 0.172 3 
0.461 0.064 0.092 3 
0.465 0.057 0.173 3 
0.466 0.112 0.174 3 
0.464 0.106 0.174 3 
0.464 0.103 0.174 3 
0.464 0.092 0.173 3 
0.466 0.085 0.174 3 
0.465 0.082 0.174 3 
0.467 0.074 0.174 3 
0.464 0.06 0.173 3 
0.481 -0.308 0.064 3 
0.472 -0.095 0.143 3 
0.465 0.052 0.173 3 
0.468 -0.05 0.174 3 
0.473 -0.076 0.177 3 
0.473 -0.163 0.178 3 
0.476 -0.225 0.044 3 
0.473 -0.166 0.178 3 
0.48 -0.197 0.182 3 
0.48 -0.206 0.182 3 
0.475 -0.189 0.072 3 
0.479 -0.179 0.184 3 
0.48 -0.185 0.184 3 
0.484 -0.215 0.187 3 
0.483 -0.258 0.188 3 
0.469 -0.077 0.074 3 
0.491 -0.298 0.192 3 
0.474 -0.206 0.044 3 
0.492 -0.305 0.193 3 
0.463 0.073 0.124 3 
0.492 -0.316 0.194 3 
0.494 -0.325 0.195 3 
0.495 -0.337 0.196 3 
0.465 0.142 0.174 3 
0.464 0.139 0.174 3 
0.463 0.133 0.174 3 
0.462 0.124 0.173 3 
0.465 0.115 0.174 3 
0.487 -0.287 0.184 3 
0.464 0.084 0.171 3 
0.464 0.071 0.17 3 
0.469 -0.031 0.172 3 
0.469 -0.056 0.172 3 
0.465 0.003 0.103 3 
0.47 -0.067 0.173 3 
0.473 -0.076 0.174 3 
0.482 -0.266 0.182 3 
0.485 -0.278 0.183 3 
0.466 0.154 0.172 3 
0.493 -0.338 0.189 3 
0.464 0.173 0.17 3 
0.464 0.15 0.169 3 
0.475 -0.079 0.172 3 
0.476 -0.085 0.172 3 
0.477 -0.096 0.173 3 
0.476 -0.105 0.173 3 
0.475 -0.116 0.172 3 
0.464 0.205 0.173 3 
0.483 -0.227 0.184 3 
0.482 -0.235 0.184 3 
0.482 -0.247 0.184 3 
0.482 -0.257 0.184 3 
0.482 -0.266 0.185 3 
0.493 -0.327 0.192 3 
0.474 -0.197 0.052 3 
0.495 -0.336 0.193 3 
0.476 -0.127 0.164 3 
0.466 0.201 0.174 3 
0.464 0.196 0.173 3 
0.465 0.191 0.173 3 
0.464 0.188 0.173 3 
0.463 0.181 0.172 3 
0.465 0.18 0.173 3 
0.465 0.174 0.173 3 
0.465 0.163 0.172 3 
0.467 -0.085 0.052 3 
0.465 0.03 0.052 3 
0.465 0.024 0.052 3 
0.466 0.014 0.052 3 
0.465 -0.007 0.052 3 
0.466 -0.015 0.052 3 
0.466 -0.036 0.052 3 
0.466 -0.047 0.052 3 
0.466 -0.055 0.052 3 
0.466 -0.066 0.052 3 
0.464 0.043 0.052 3 
0.47 -0.105 0.052 3 
0.469 -0.115 0.052 3 
0.469 -0.126 0.052 3 
0.47 -0.135 0.052 3 
0.471 -0.147 0.052 3 
0.471 -0.155 0.052 3 
0.475 -0.246 0.012 3 
0.472 -0.167 0.052 3 
0.473 -0.188 0.052 3 
0.465 0.016 0.06 3 
0.476 -0.277 0.012 3 
0.484 -0.338 0.064 3 
0.485 -0.346 0.064 3 
0.465 0 0.023 3 
0.475 -0.27 0.012 3 
0.474 -0.263 0.013 3 
0.467 -0.025 0.052 3 
0.475 -0.201 0.052 3 
0.474 -0.227 0.061 3 
0.476 -0.256 0.012 3 
0.475 -0.216 0.058 3 
0.485 -0.339 0.058 3 
0.466 0.051 0.055 3 
0.466 0.043 0.055 3 
0.474 -0.249 0.013 3 
0.469 -0.146 0.014 3 
0.473 -0.197 0.013 3 
0.491 0.056 0.049 3 
0.466 0.043 0.05 3 
0.471 -0.187 0.014 3 
0.47 -0.178 0.014 3 
0.469 -0.166 0.014 3 
0.469 -0.157 0.014 3 
0.473 -0.215 0.013 3 
0.464 0.016 0.047 3 
0.478 0.048 0.044 3 
0.464 0.043 0.044 3 
0.465 0.038 0.044 3 
0.464 0.032 0.044 3 
0.464 0.024 0.044 3 
0.465 0.022 0.044 3 
0.464 0.014 0.044 3 
0.479 -0.287 0.052 3 
0.474 -0.215 0.052 3 
0.475 -0.222 0.052 3 
0.475 -0.225 0.052 3 
0.478 -0.236 0.052 3 
0.478 -0.248 0.052 3 
0.475 -0.255 0.052 3 
0.474 -0.267 0.052 3 
0.475 -0.274 0.052 3 
0.475 -0.277 0.052 3 
0.483 -0.327 0.064 3 
0.48 -0.297 0.052 3 
0.482 -0.305 0.052 3 
0.482 -0.315 0.052 3 
0.481 -0.325 0.052 3 
0.484 -0.338 0.052 3 
0.485 -0.343 0.052 3 
0.486 -0.351 0.052 3 
0.472 -0.226 0.013 3 
0.478 -0.286 0.073 3 
0.474 -0.206 0.072 3 
0.474 -0.215 0.072 3 
0.475 -0.225 0.072 3 
0.478 -0.236 0.072 3 
0.469 -0.085 0.033 3 
0.479 -0.246 0.072 3 
0.479 -0.255 0.072 3 
0.479 -0.265 0.072 3 
0.477 -0.276 0.072 3 
0.474 -0.2 0.072 3 
0.478 -0.296 0.073 3 
0.48 -0.308 0.073 3 
0.483 -0.32 0.073 3 
0.483 -0.327 0.073 3 
0.484 -0.335 0.073 3 
0.485 -0.346 0.073 3 
0.484 -0.349 0.073 3 
0.464 -0.028 0.068 3 
0.477 -0.227 0.004 3 
0.468 -0.055 0.074 3 
0.463 -0.036 0.013 3 
0.471 -0.105 0.074 3 
0.47 -0.116 0.074 3 
0.471 -0.156 0.124 3 
0.465 -0.017 0.012 3 
0.471 -0.135 0.074 3 
0.471 -0.147 0.074 3 
0.472 -0.156 0.074 3 
0.464 -0.036 0.068 3 
0.472 -0.167 0.074 3 
0.475 -0.189 0.075 3 
0.474 -0.215 0.075 3 
0.464 -0.015 0.012 3 
0.426 0.03 0.018 3 
0.464 -0.014 0.071 3 
0.474 -0.185 0.072 3 
0.475 -0.195 0.072 3 
0.475 -0.213 0.064 3 
0.471 -0.116 0.063 3 
0.471 -0.127 0.063 3 
0.471 -0.135 0.063 3 
0.471 -0.147 0.063 3 
0.472 -0.156 0.063 3 
0.472 -0.167 0.063 3 
0.473 -0.185 0.064 3 
0.475 -0.198 0.064 3 
0.474 -0.206 0.064 3 
0.47 -0.105 0.063 3 
0.475 -0.228 0.064 3 
0.477 -0.235 0.064 3 
0.476 -0.247 0.064 3 
0.476 -0.256 0.064 3 
0.477 -0.266 0.064 3 
0.477 -0.276 0.064 3 
0.478 -0.286 0.064 3 
0.482 -0.319 0.064 3 
0.464 -0.009 0.063 3 
0.485 -0.325 0.067 3 
0.46 0.061 0.063 3 
0.462 0.043 0.063 3 
0.462 0.032 0.063 3 
0.484 -0.349 0.043 3 
0.463 0.024 0.063 3 
0.465 0.014 0.063 3 
0.466 0.003 0.063 3 
0.465 -0.007 0.063 3 
0.465 0.011 0.044 3 
0.465 -0.015 0.063 3 
0.466 -0.025 0.063 3 
0.466 -0.036 0.063 3 
0.467 -0.047 0.063 3 
0.468 -0.066 0.063 3 
0.469 -0.077 0.063 3 
0.469 -0.085 0.063 3 
0.47 -0.097 0.063 3 
0.475 -0.243 0.024 3 
0.483 -0.345 0.004 3 
0.479 -0.293 0.014 3 
0.477 0.042 0.024 3 
0.464 0.003 0.026 3 
0.473 -0.197 0.024 3 
0.473 -0.209 0.024 3 
0.474 -0.215 0.024 3 
0.475 -0.219 0.024 3 
0.474 -0.227 0.024 3 
0.48 -0.297 0.014 3 
0.476 -0.247 0.024 3 
0.475 -0.255 0.024 3 
0.476 -0.265 0.024 3 
0.477 -0.275 0.023 3 
0.481 -0.305 0.023 3 
0.482 -0.316 0.022 3 
0.482 -0.326 0.022 3 
0.482 -0.336 0.022 3 
0.484 -0.346 0.022 3 
0.479 -0.296 0.032 3 
0.474 -0.218 0.033 3 
0.475 -0.225 0.033 3 
0.476 -0.235 0.032 3 
0.476 -0.247 0.032 3 
0.478 -0.255 0.032 3 
0.476 -0.265 0.032 3 
0.478 -0.276 0.032 3 
0.479 -0.286 0.032 3 
0.485 -0.347 0 3 
0.485 -0.35 0.022 3 
0.481 -0.346 0.013 3 
0.464 0.014 0.031 3 
0.464 -0.033 0.031 3 
0.481 -0.339 0.013 3 
0.482 -0.316 0.014 3 
0.482 0.046 0.027 3 
0.464 -0.036 0.028 3 
0.474 -0.236 0.027 3 
0.469 -0.126 0.023 3 
0.47 -0.135 0.022 3 
0.472 -0.147 0.022 3 
0.472 -0.156 0.022 3 
0.473 -0.165 0.022 3 
0.473 -0.176 0.022 3 
0.474 -0.186 0.022 3 
0.475 -0.189 0.022 3 
0.475 -0.195 0.021 3 
0.469 -0.115 0.023 3 
0.422 0.03 0.023 3 
0.452 0.036 0.022 3 
0.45 0.033 0.022 3 
0.47 0.03 0.02 3 
0.477 0.023 0.019 3 
0.465 -0.025 0.02 3 
0.465 -0.044 0.02 3 
0.464 -0.047 0.02 3 
0.465 -0.007 0.023 3 
0.451 0.018 0.019 3 
0.45 0.038 0.025 3 
0.463 0.037 0.023 3 
0.455 0.034 0.024 3 
0.477 0.031 0.022 3 
0.459 0.024 0.024 3 
0.465 0.022 0.023 3 
0.464 0.008 0.023 3 
0.464 0.003 0.023 3 
0.463 -0.025 0.013 3 
0.464 -0.012 0.023 3 
0.465 -0.017 0.023 3 
0.464 -0.025 0.023 3 
0.465 -0.047 0.023 3 
0.466 -0.055 0.023 3 
0.469 -0.077 0.023 3 
0.47 -0.096 0.023 3 
0.469 -0.107 0.023 3 
0.464 -0.055 0.015 3 
0.474 -0.218 0.044 3 
0.478 -0.236 0.044 3 
0.478 -0.245 0.044 3 
0.477 -0.266 0.044 3 
0.475 -0.277 0.044 3 
0.48 -0.297 0.043 3 
0.48 -0.307 0.043 3 
0.48 -0.317 0.043 3 
0.481 -0.328 0.043 3 
0.475 -0.216 0.044 3 
0.481 -0.329 0.013 3 
0.47 -0.096 0.044 3 
0.466 0.003 0.044 3 
0.466 -0.007 0.044 3 
0.466 -0.015 0.044 3 
0.465 -0.025 0.044 3 
0.466 -0.047 0.044 3 
0.466 -0.055 0.044 3 
0.466 -0.066 0.044 3 
0.467 -0.077 0.044 3 
0.467 -0.085 0.044 3 
0.47 -0.105 0.044 3 
0.47 -0.116 0.044 3 
0.47 -0.135 0.044 3 
0.471 -0.147 0.044 3 
0.469 -0.138 0.014 3 
0.471 -0.155 0.044 3 
0.472 -0.176 0.044 3 
0.473 -0.197 0.044 3 
0.469 -0.135 0.033 3 
0.466 -0.025 0.034 3 
0.465 -0.036 0.034 3 
0.467 -0.047 0.034 3 
0.467 -0.055 0.034 3 
0.469 -0.077 0.033 3 
0.468 -0.096 0.034 3 
0.469 -0.107 0.033 3 
0.47 -0.116 0.033 3 
0.47 -0.127 0.033 3 
0.466 -0.015 0.034 3 
0.471 -0.147 0.033 3 
0.472 -0.156 0.033 3 
0.472 -0.167 0.033 3 
0.472 -0.176 0.033 3 
0.473 -0.185 0.033 3 
0.472 -0.196 0.033 3 
0.471 -0.207 0.033 3 
0.476 -0.216 0.033 3 
0.462 0.035 0.034 3 
0.49 0.047 0.034 3 
0.478 0.042 0.035 3 
0.481 -0.311 0.034 3 
0.481 -0.325 0.034 3 
0.483 -0.337 0.034 3 
0.484 -0.345 0.034 3 
0.468 -0.322 0.015 3 
0.477 0.042 0.033 3 
0.474 0.039 0.033 3 
0.472 -0.125 0.074 3 
0.465 0.032 0.034 3 
0.468 -0.085 0.023 3 
0.464 0.03 0.034 3 
0.465 0.024 0.034 3 
0.464 0.022 0.034 3 
0.465 0.014 0.034 3 
0.465 0.003 0.034 3 
0.466 -0.007 0.034 3 
0.463 0.024 0.103 3 
0.461 0.112 0.103 3 
0.459 0.103 0.102 3 
0.46 0.082 0.102 3 
0.46 0.074 0.102 3 
0.461 0.064 0.102 3 
0.461 0.053 0.102 3 
0.46 0.043 0.102 3 
0.474 -0.206 0.052 3 
0.462 0.032 0.102 3 
0.478 -0.285 0.023 3 
0.464 0.014 0.103 3 
0.465 0.009 0.103 3 
0.465 -0.006 0.103 3 
0.465 -0.025 0.103 3 
0.468 -0.047 0.104 3 
0.468 -0.055 0.104 3 
0.469 -0.066 0.104 3 
0.468 -0.077 0.104 3 
0.468 -0.096 0.104 3 
0.482 -0.307 0.114 3 
0.476 -0.226 0.112 3 
0.465 -0.025 0.004 3 
0.476 -0.235 0.112 3 
0.477 -0.257 0.113 3 
0.478 -0.267 0.113 3 
0.46 0.074 0.094 3 
0.479 -0.278 0.113 3 
0.48 -0.285 0.114 3 
0.48 -0.295 0.114 3 
0.47 -0.105 0.104 3 
0.485 -0.313 0.115 3 
0.469 -0.015 0.004 3 
0.475 -0.16 0.108 3 
0.485 -0.31 0.112 3 
0.487 -0.318 0.112 3 
0.487 -0.325 0.113 3 
0.486 -0.335 0.113 3 
0.487 -0.346 0.113 3 
0.485 -0.337 0.103 3 
0.484 -0.347 0.107 3 
0.474 -0.245 0.015 3 
0.464 -0.006 0.097 3 
0.464 -0.022 0.098 3 
0.475 -0.201 0.1 3 
0.477 -0.285 0.102 3 
0.479 -0.297 0.102 3 
0.485 -0.309 0.103 3 
0.487 -0.325 0.103 3 
0.478 -0.277 0.104 3 
0.484 -0.343 0.103 3 
0.485 -0.348 0.104 3 
0.479 0.11 0.097 3 
0.458 0.1 0.094 3 
0.468 -0.047 0.074 3 
0.459 0.082 0.094 3 
0.461 0.045 0.094 3 
0.464 0.003 0.095 3 
0.464 -0.025 0.095 3 
0.475 -0.186 0.103 3 
0.474 -0.257 0.052 3 
0.466 -0.036 0.044 3 
0.471 -0.116 0.104 3 
0.47 -0.13 0.104 3 
0.471 -0.136 0.102 3 
0.474 -0.236 0.024 3 
0.472 -0.145 0.102 3 
0.474 -0.157 0.102 3 
0.476 -0.175 0.103 3 
0.473 -0.197 0.111 3 
0.474 -0.188 0.103 3 
0.474 -0.197 0.103 3 
0.476 -0.216 0.103 3 
0.476 -0.225 0.103 3 
0.482 -0.336 0.043 3 
0.477 -0.235 0.104 3 
0.478 -0.245 0.104 3 
0.477 -0.257 0.104 3 
0.46 0.053 0.113 3 
0.484 -0.309 0.124 3 
0.486 -0.318 0.124 3 
0.458 0.133 0.113 3 
0.46 0.123 0.113 3 
0.459 0.112 0.113 3 
0.46 0.104 0.113 3 
0.459 0.093 0.113 3 
0.458 0.082 0.113 3 
0.459 0.074 0.113 3 
0.482 -0.297 0.123 3 
0.462 0.043 0.113 3 
0.472 -0.176 0.063 3 
0.461 0.032 0.113 3 
0.461 0.024 0.113 3 
0.464 -0.055 0.012 3 
0.463 0.014 0.113 3 
0.464 0.003 0.113 3 
0.466 -0.004 0.114 3 
0.46 0.053 0.063 3 
0.476 -0.217 0.123 3 
0.488 -0.337 0.131 3 
0.489 -0.346 0.132 3 
0.485 0.043 0.029 3 
0.472 -0.165 0.122 3 
0.475 -0.175 0.122 3 
0.476 -0.207 0.103 3 
0.475 -0.186 0.122 3 
0.475 -0.195 0.123 3 
0.476 -0.208 0.123 3 
0.466 -0.006 0.114 3 
0.476 -0.226 0.123 3 
0.477 -0.236 0.124 3 
0.477 -0.245 0.124 3 
0.477 -0.257 0.124 3 
0.474 -0.189 0.119 3 
0.477 -0.267 0.121 3 
0.478 -0.258 0.044 3 
0.484 -0.289 0.123 3 
0.475 -0.207 0.114 3 
0.471 -0.125 0.113 3 
0.473 -0.137 0.113 3 
0.474 -0.186 0.114 3 
0.474 -0.146 0.114 3 
0.466 -0.066 0.004 3 
0.473 -0.157 0.113 3 
0.475 -0.166 0.114 3 
0.475 -0.175 0.114 3 
0.475 -0.198 0.114 3 
0.47 -0.116 0.113 3 
0.475 -0.216 0.114 3 
0.474 -0.224 0.114 3 
0.466 -0.055 0.004 3 
0.464 -0.047 0.004 3 
0.464 -0.041 0.004 3 
0.465 0.011 0.108 3 
0.474 -0.165 0.111 3 
0.475 -0.186 0.111 3 
0.474 -0.183 0.117 3 
0.467 -0.015 0.114 3 
0.467 -0.025 0.114 3 
0.466 -0.036 0.114 3 
0.466 -0.047 0.114 3 
0.468 -0.055 0.114 3 
0.467 -0.074 0.114 3 
0.467 -0.077 0.114 3 
0.475 -0.169 0.117 3 
0.435 0.029 0.024 3 
0.459 0.093 0.094 3 
0.474 -0.197 0.117 3 
0.487 -0.325 0.122 3 
0.487 -0.347 0.122 3 
0.484 -0.343 0.106 3 
0.468 -0.085 0.112 3 
0.468 -0.066 0.033 3 
0.469 -0.096 0.112 3 
0.469 -0.105 0.112 3 
0.47 -0.135 0.082 3 
0.467 -0.055 0.082 3 
0.468 -0.066 0.082 3 
0.467 -0.077 0.082 3 
0.467 -0.085 0.082 3 
0.47 -0.097 0.082 3 
0.471 -0.105 0.082 3 
0.464 -0.015 0.023 3 
0.47 -0.116 0.082 3 
0.469 -0.127 0.082 3 
0.468 -0.047 0.082 3 
0.472 -0.156 0.083 3 
0.472 -0.167 0.083 3 
0.472 -0.176 0.083 3 
0.472 -0.187 0.083 3 
0.473 -0.197 0.083 3 
0.475 -0.21 0.083 3 
0.476 -0.216 0.083 3 
0.476 -0.225 0.084 3 
0.465 0.003 0.084 3 
0.451 0.075 0.083 3 
0.46 0.074 0.084 3 
0.46 0.064 0.084 3 
0.462 0.053 0.084 3 
0.463 0.043 0.084 3 
0.462 0.032 0.084 3 
0.463 0.024 0.084 3 
0.483 -0.307 0.1 3 
0.477 -0.238 0.084 3 
0.465 -0.007 0.084 3 
0.465 -0.017 0.084 3 
0.465 -0.025 0.084 3 
0.466 -0.036 0.084 3 
0.464 -0.07 0.01 3 
0.464 0.014 0.082 3 
0.462 0.032 0.073 3 
0.475 -0.198 0.078 3 
0.484 -0.328 0.079 3 
0.462 -0.046 0.013 3 
0.456 0.073 0.073 3 
0.461 0.064 0.073 3 
0.464 -0.02 0.074 3 
0.462 0.053 0.073 3 
0.462 0.043 0.073 3 
0.464 -0.025 0.076 3 
0.462 0.024 0.073 3 
0.464 0.014 0.074 3 
0.465 0.008 0.074 3 
0.466 0.003 0.074 3 
0.465 -0.007 0.074 3 
0.465 -0.015 0.074 3 
0.465 -0.025 0.074 3 
0.466 -0.036 0.074 3 
0.481 -0.315 0.082 3 
0.47 -0.097 0.074 3 
0.478 -0.245 0.084 3 
0.478 -0.258 0.084 3 
0.476 -0.265 0.084 3 
0.478 -0.276 0.084 3 
0.479 -0.287 0.084 3 
0.48 -0.298 0.084 3 
0.481 -0.309 0.082 3 
0.465 0.014 0.084 3 
0.485 -0.329 0.082 3 
0.485 -0.336 0.082 3 
0.486 -0.347 0.082 3 
0.467 -0.115 0.012 3 
0.468 -0.107 0.012 3 
0.465 -0.065 0.012 3 
0.465 -0.06 0.012 3 
0.464 -0.017 0.076 3 
0.475 -0.198 0.094 3 
0.47 -0.097 0.093 3 
0.471 -0.105 0.093 3 
0.471 -0.116 0.093 3 
0.471 -0.125 0.094 3 
0.47 -0.135 0.093 3 
0.471 -0.147 0.094 3 
0.473 -0.156 0.094 3 
0.474 -0.177 0.094 3 
0.474 -0.186 0.094 3 
0.468 -0.085 0.093 3 
0.474 -0.203 0.094 3 
0.474 -0.239 0.095 3 
0.474 -0.254 0.095 3 
0.46 0.082 0.084 3 
0.488 0.108 0.092 3 
0.474 -0.206 0.092 3 
0.476 -0.21 0.092 3 
0.476 -0.216 0.092 3 
0.476 -0.225 0.092 3 
0.465 -0.012 0.092 3 
0.485 -0.34 0.001 3 
0.462 0.043 0.092 3 
0.465 0.014 0.023 3 
0.476 -0.217 0.004 3 
0.463 0.032 0.092 3 
0.463 0.024 0.092 3 
0.465 0.016 0.092 3 
0.464 0.006 0.092 3 
0.464 0 0.092 3 
0.484 -0.325 0.097 3 
0.464 -0.017 0.092 3 
0.465 -0.02 0.092 3 
0.465 -0.025 0.092 3 
0.465 -0.036 0.092 3 
0.467 -0.047 0.093 3 
0.468 -0.055 0.093 3 
0.468 -0.066 0.093 3 
0.467 -0.077 0.093 3 
0.486 -0.338 0.094 3 
0.459 0.09 0.084 3 
0.464 -0.076 0.01 3 
0.485 -0.336 0.016 3 
0.486 -0.347 0.091 3 
0.474 -0.233 0.089 3 
0.475 -0.213 0.007 3 
0.475 -0.222 0.007 3 
0.483 -0.338 0.004 3 
0.485 -0.33 0.094 3 
0.484 -0.325 0.094 3 
0.484 -0.315 0.094 3 
0.482 -0.31 0.094 3 
0.479 -0.297 0.093 3 
0.477 -0.276 0.093 3 
0.469 -0.126 0.044 3 
0.476 -0.237 0.092 3 
0.474 -0.2 0.064 3 
0.479 -0.286 0.044 3 
0.476 -0.247 0.092 3 
0.476 -0.256 0.092 3 
0.477 -0.266 0.093 3 
0.342 0.01 0.106 3 
0.311 0.008 0.104 3 
0.321 0.017 0.108 3 
0.305 0.013 0.113 3 
0.325 0.026 0.109 3 
0.349 -0.012 0.113 3 
0.341 -0.01 0.111 3 
0.365 0.042 0.119 3 
0.353 0.034 0.115 3 
0.36 -0.018 0.118 3 
0.354 -0.014 0.117 3 
0.315 0.007 0.104 3 
0.317 0.01 0.105 3 
0.327 0.019 0.117 3 
0.31 0 0.111 3 
0.302 0.017 0.115 3 
0.361 0.043 0.123 3 
0.333 -0.008 0.113 3 
0.32 -0.009 0.109 3 
0.328 0.02 0.108 3 
0.346 -0.015 0.112 3 
0.353 -0.017 0.115 3 
0.354 0.041 0.119 3 
0.34 0.032 0.114 3 
0.306 0.018 0.114 3 
0.315 0.018 0.118 3 
0.297 0 0.111 3 
0.3 0.013 0.114 3 
0.307 0.015 0.117 3 
