# .PCD v0.7 - Point Cloud Data file
FIELDS x y z intensity
SIZE 4 4 4 4
TYPE F F F F
COUNT 1 1 1 1
WIDTH 2480
HEIGHT 1
VIEWPOINT 0 0 0 1 0 0 0
POINTS 2480
DATA ascii
0.342 0.014 0.004 0 
0.341 0.003 0.004 0 
0.346 -0.002 0 0 
0.374 -0.236 -0.026 1 
0.373 -0.225 -0.024 1 
0.372 -0.217 -0.024 1 
0.364 -0.165 -0.019 1 
0.364 -0.161 -0.019 1 
0.364 -0.126 -0.017 1 
0.362 -0.066 -0.016 1 
0.36 -0.06 -0.015 1 
0.361 -0.036 -0.015 1 
0.36 -0.015 -0.015 1 
0.354 -0.006 -0.013 1 
0.356 0.074 -0.014 1 
0.351 0.114 -0.013 1 
0.35 0.124 -0.013 1 
0.35 0.131 -0.013 1 
0.353 0.139 -0.015 1 
0.353 0.154 -0.015 1 
0.351 0.158 -0.015 1 
0.349 0.174 -0.015 1 
0.344 0.204 -0.015 1 
0.377 -0.237 -0.024 1 
0.374 -0.197 -0.022 1 
0.372 -0.187 -0.02 1 
0.369 -0.175 -0.019 1 
0.374 -0.148 -0.02 1 
0.371 -0.136 -0.018 1 
0.362 -0.055 -0.014 1 
0.364 -0.036 -0.014 1 
0.364 -0.031 -0.014 1 
0.364 -0.026 -0.015 1 
0.364 0.03 -0.015 1 
0.363 0.034 -0.014 1 
0.362 0.044 -0.014 1 
0.363 0.073 -0.015 1 
0.362 0.076 -0.015 1 
0.36 0.083 -0.014 1 
0.361 0.089 -0.014 1 
0.362 0.093 -0.015 1 
0.361 0.103 -0.015 1 
0.359 0.122 -0.015 1 
0.36 0.154 -0.016 1 
0.351 0.174 -0.014 1 
0.353 0.18 -0.015 1 
0.352 0.204 -0.016 1 
0.351 0.211 -0.016 1 
0.352 0.215 -0.017 1 
0.383 -0.248 -0.025 1 
0.386 -0.234 -0.025 1 
0.384 -0.227 -0.024 1 
0.374 -0.126 -0.017 1 
0.373 -0.116 -0.017 1 
0.374 -0.112 -0.017 1 
0.371 -0.096 -0.016 1 
0.37 -0.086 -0.015 1 
0.371 -0.075 -0.015 1 
0.37 -0.036 -0.015 1 
0.371 -0.03 -0.015 1 
0.344 0.013 -0.006 1 
0.366 0.083 -0.014 1 
0.363 0.115 -0.014 1 
0.363 0.134 -0.015 1 
0.359 0.171 -0.015 1 
0.357 0.174 -0.014 1 
0.356 0.177 -0.014 1 
0.361 0.194 -0.017 1 
0.394 -0.24 -0.026 1 
0.382 -0.205 -0.021 1 
0.378 -0.166 -0.018 1 
0.384 -0.155 -0.019 1 
0.38 -0.116 -0.017 1 
0.382 -0.107 -0.018 1 
0.378 -0.075 -0.016 1 
0.374 -0.066 -0.014 1 
0.374 -0.036 -0.014 1 
0.373 -0.025 -0.014 1 
0.347 -0.002 -0.005 1 
0.346 0.013 -0.005 1 
0.347 0.015 -0.005 1 
0.373 0.043 -0.014 1 
0.374 0.049 -0.015 1 
0.375 0.053 -0.015 1 
0.374 0.071 -0.015 1 
0.373 0.104 -0.015 1 
0.37 0.114 -0.014 1 
0.372 0.123 -0.015 1 
0.373 0.133 -0.016 1 
0.369 0.142 -0.015 1 
0.369 0.163 -0.016 1 
0.361 0.202 -0.015 1 
0.36 0.224 -0.016 1 
0.394 -0.263 -0.025 1 
0.384 -0.095 -0.016 1 
0.382 -0.067 -0.015 1 
0.38 -0.064 -0.014 1 
0.384 -0.056 -0.016 1 
0.381 -0.045 -0.015 1 
0.38 -0.035 -0.014 1 
0.379 -0.026 -0.014 1 
0.363 -0.004 -0.009 1 
0.346 0.015 -0.003 1 
0.359 0.017 -0.007 1 
0.372 0.026 -0.012 1 
0.381 0.074 -0.015 1 
0.378 0.083 -0.015 1 
0.377 0.084 -0.014 1 
0.378 0.114 -0.015 1 
0.379 0.123 -0.016 1 
0.372 0.183 -0.016 1 
0.373 0.192 -0.016 1 
0.393 -0.215 -0.02 1 
0.393 -0.205 -0.02 1 
0.389 -0.195 -0.018 1 
0.392 -0.157 -0.018 1 
0.391 -0.126 -0.017 1 
0.392 -0.116 -0.017 1 
0.374 -0.224 -0.025 1 
0.392 -0.105 -0.017 1 
0.394 -0.085 -0.017 1 
0.39 -0.075 -0.016 1 
0.391 -0.055 -0.016 1 
0.37 -0.004 -0.009 1 
0.384 0.043 -0.014 1 
0.384 0.045 -0.014 1 
0.384 0.063 -0.014 1 
0.384 0.097 -0.015 1 
0.38 0.144 -0.015 1 
0.38 0.154 -0.015 1 
0.381 0.163 -0.016 1 
0.374 0.222 -0.016 1 
0.373 0.238 -0.017 1 
0.404 -0.275 -0.024 1 
0.406 -0.268 -0.024 1 
0.368 0.045 -0.014 1 
0.404 -0.263 -0.023 1 
0.407 -0.256 -0.024 1 
0.412 -0.258 -0.025 1 
0.384 -0.217 -0.021 1 
0.402 -0.225 -0.021 1 
0.398 -0.205 -0.019 1 
0.394 -0.066 -0.015 1 
0.395 -0.052 -0.015 1 
0.394 -0.05 -0.015 1 
0.392 -0.045 -0.014 1 
0.394 -0.038 -0.015 1 
0.393 -0.035 -0.014 1 
0.394 -0.03 -0.015 1 
0.39 -0.025 -0.014 1 
0.386 -0.017 -0.012 1 
0.384 -0.015 -0.012 1 
0.374 -0.005 -0.009 1 
0.346 0.014 0 1 
0.352 0.136 -0.014 1 
0.382 0.023 -0.011 1 
0.383 0.027 -0.012 1 
0.391 0.051 -0.014 1 
0.392 0.053 -0.015 1 
0.393 0.063 -0.015 1 
0.392 0.073 -0.015 1 
0.393 0.084 -0.015 1 
0.392 0.094 -0.015 1 
0.386 0.096 -0.013 1 
0.392 0.124 -0.016 1 
0.384 0.155 -0.014 1 
0.382 0.224 -0.017 1 
0.378 0.244 -0.017 1 
0.412 -0.287 -0.024 1 
0.414 -0.28 -0.025 1 
0.342 0 -0.005 1 
0.417 -0.269 -0.025 1 
0.417 -0.263 -0.025 1 
0.413 -0.246 -0.023 1 
0.413 -0.235 -0.022 1 
0.404 -0.195 -0.018 1 
0.4 -0.185 -0.017 1 
0.402 -0.145 -0.017 1 
0.4 -0.135 -0.016 1 
0.402 -0.105 -0.016 1 
0.401 -0.075 -0.015 1 
0.4 -0.066 -0.015 1 
0.4 -0.058 -0.015 1 
0.398 -0.045 -0.014 1 
0.399 -0.043 -0.014 1 
0.403 -0.035 -0.016 1 
0.399 -0.024 -0.015 1 
0.393 0.033 -0.013 1 
0.394 0.037 -0.013 1 
0.394 0.133 -0.015 1 
0.393 0.137 -0.014 1 
0.393 0.144 -0.015 1 
0.392 0.15 -0.014 1 
0.392 0.154 -0.015 1 
0.393 0.163 -0.015 1 
0.389 0.184 -0.015 1 
0.383 0.249 -0.016 1 
0.42 -0.296 -0.025 1 
0.422 -0.289 -0.025 1 
0.411 -0.225 -0.019 1 
0.364 -0.006 -0.013 1 
0.411 -0.216 -0.019 1 
0.393 -0.246 -0.026 1 
0.412 -0.117 -0.017 1 
0.409 -0.086 -0.016 1 
0.408 -0.075 -0.015 1 
0.408 -0.066 -0.015 1 
0.406 -0.046 -0.014 1 
0.404 -0.016 -0.014 1 
0.402 -0.007 -0.013 1 
0.398 0.023 -0.012 1 
0.401 0.034 -0.013 1 
0.402 0.042 -0.014 1 
0.403 0.053 -0.014 1 
0.402 0.072 -0.014 1 
0.404 0.093 -0.015 1 
0.403 0.101 -0.015 1 
0.404 0.112 -0.015 1 
0.404 0.123 -0.015 1 
0.401 0.133 -0.015 1 
0.389 0.024 -0.012 1 
0.398 0.142 -0.014 1 
0.399 0.154 -0.015 1 
0.392 0.193 -0.014 1 
0.391 0.201 -0.014 1 
0.392 0.205 -0.014 1 
0.394 0.221 -0.016 1 
0.392 0.244 -0.016 1 
0.428 -0.305 -0.025 1 
0.423 -0.296 -0.023 1 
0.424 -0.285 -0.023 1 
0.424 -0.271 -0.022 1 
0.423 -0.255 -0.021 1 
0.423 -0.236 -0.02 1 
0.413 -0.195 -0.017 1 
0.414 -0.169 -0.016 1 
0.413 -0.157 -0.016 1 
0.353 0.194 -0.016 1 
0.414 -0.141 -0.016 1 
0.414 -0.106 -0.015 1 
0.414 -0.097 -0.015 1 
0.415 -0.028 -0.015 1 
0.38 -0.005 -0.005 1 
0.408 0.054 -0.013 1 
0.409 0.072 -0.014 1 
0.412 0.093 -0.015 1 
0.41 0.104 -0.015 1 
0.409 0.117 -0.014 1 
0.404 0.146 -0.014 1 
0.404 0.164 -0.014 1 
0.404 0.174 -0.015 1 
0.403 0.183 -0.015 1 
0.403 0.19 -0.015 1 
0.401 0.193 -0.014 1 
0.402 0.213 -0.015 1 
0.403 0.224 -0.016 1 
0.402 0.233 -0.016 1 
0.397 0.244 -0.015 1 
0.398 0.263 -0.016 1 
0.423 -0.231 -0.018 1 
0.42 -0.216 -0.017 1 
0.42 -0.196 -0.016 1 
0.42 -0.166 -0.015 1 
0.418 -0.143 -0.014 1 
0.423 -0.136 -0.016 1 
0.42 -0.113 -0.015 1 
0.368 0.214 -0.016 1 
0.42 -0.106 -0.014 1 
0.424 -0.096 -0.015 1 
0.423 -0.087 -0.015 1 
0.422 -0.075 -0.015 1 
0.384 -0.186 -0.018 1 
0.391 -0.145 -0.017 1 
0.402 0.103 -0.014 1 
0.422 -0.035 -0.014 1 
0.42 -0.026 -0.014 1 
0.382 -0.028 -0.015 1 
0.424 -0.015 -0.015 1 
0.431 -0.008 -0.017 1 
0.421 -0.176 -0.016 1 
0.418 0.043 -0.014 1 
0.413 0.133 -0.014 1 
0.411 0.143 -0.013 1 
0.415 0.155 -0.015 1 
0.41 0.164 -0.014 1 
0.411 0.182 -0.015 1 
0.404 0.21 -0.014 1 
0.404 -0.242 -0.022 1 
0.414 0.224 -0.017 1 
0.411 0.234 -0.016 1 
0.431 -0.305 -0.02 1 
0.434 -0.281 -0.02 1 
0.43 -0.245 -0.018 1 
0.431 -0.225 -0.017 1 
0.426 -0.175 -0.015 1 
0.424 -0.156 -0.014 1 
0.424 -0.149 -0.014 1 
0.428 -0.132 -0.015 1 
0.43 -0.094 -0.015 1 
0.433 -0.016 -0.015 1 
0.429 -0.011 -0.014 1 
0.377 0.214 -0.017 1 
0.423 0.028 -0.013 1 
0.424 0.063 -0.013 1 
0.423 0.074 -0.013 1 
0.424 0.093 -0.014 1 
0.422 0.104 -0.013 1 
0.421 0.123 -0.013 1 
0.414 0.194 -0.013 1 
0.398 0.063 -0.015 1 
0.412 0.212 -0.013 1 
0.412 0.215 -0.014 1 
0.417 0.222 -0.015 1 
0.416 0.234 -0.015 1 
0.415 0.238 -0.015 1 
0.412 0.243 -0.015 1 
0.411 0.253 -0.015 1 
0.41 0.254 -0.014 1 
0.409 0.262 -0.015 1 
0.413 0.274 -0.016 1 
0.434 -0.296 -0.018 1 
0.435 -0.225 -0.016 1 
0.435 -0.21 -0.016 1 
0.434 -0.206 -0.015 1 
0.433 -0.195 -0.015 1 
0.432 -0.189 -0.014 1 
0.433 -0.187 -0.015 1 
0.431 -0.176 -0.014 1 
0.432 -0.156 -0.014 1 
0.432 -0.146 -0.014 1 
0.434 -0.137 -0.014 1 
0.434 -0.125 -0.014 1 
0.434 -0.117 -0.014 1 
0.434 -0.105 -0.014 1 
0.433 -0.095 -0.013 1 
0.432 -0.085 -0.013 1 
0.433 -0.075 -0.013 1 
0.434 -0.071 -0.013 1 
0.434 -0.039 -0.013 1 
0.431 0.043 -0.013 1 
0.43 0.052 -0.013 1 
0.429 0.064 -0.012 1 
0.428 0.083 -0.012 1 
0.408 -0.055 -0.015 1 
0.43 0.093 -0.013 1 
0.424 0.153 -0.012 1 
0.424 0.163 -0.013 1 
0.419 0.183 -0.012 1 
0.42 0.193 -0.013 1 
0.418 0.254 -0.014 1 
0.418 0.283 -0.015 1 
0.442 -0.295 -0.017 1 
0.444 -0.279 -0.017 1 
0.434 -0.266 -0.014 1 
0.434 -0.26 -0.014 1 
0.438 -0.256 -0.015 1 
0.44 -0.235 -0.015 1 
0.436 -0.096 -0.012 1 
0.423 0.083 -0.013 1 
0.435 -0.086 -0.011 1 
0.438 -0.077 -0.012 1 
0.439 -0.065 -0.012 1 
0.439 -0.055 -0.012 1 
0.403 0.064 -0.014 1 
0.442 -0.036 -0.013 1 
0.424 0.053 -0.013 1 
0.442 -0.026 -0.013 1 
0.452 -0.009 -0.016 1 
0.381 -0.005 0.002 1 
0.438 0.044 -0.012 1 
0.434 0.07 -0.011 1 
0.434 0.116 -0.012 1 
0.432 0.143 -0.012 1 
0.43 0.154 -0.012 1 
0.424 0.204 -0.011 1 
0.422 0.213 -0.011 1 
0.424 0.222 -0.012 1 
0.423 0.232 -0.012 1 
0.424 0.244 -0.013 1 
0.421 0.274 -0.013 1 
0.421 0.283 -0.014 1 
0.419 0.29 -0.013 1 
0.449 -0.296 -0.016 1 
0.45 -0.288 -0.016 1 
0.446 -0.281 -0.015 1 
0.439 -0.265 -0.013 1 
0.442 -0.256 -0.013 1 
0.443 -0.235 -0.013 1 
0.444 -0.227 -0.013 1 
0.442 -0.215 -0.012 1 
0.444 -0.195 -0.012 1 
0.442 -0.185 -0.012 1 
0.444 -0.176 -0.012 1 
0.443 -0.165 -0.012 1 
0.444 -0.155 -0.012 1 
0.444 -0.15 -0.012 1 
0.443 -0.126 -0.011 1 
0.443 -0.116 -0.011 1 
0.444 -0.109 -0.011 1 
0.467 -0.009 -0.017 1 
0.444 0.033 -0.011 1 
0.443 0.062 -0.011 1 
0.441 0.074 -0.011 1 
0.441 0.084 -0.011 1 
0.443 0.103 -0.011 1 
0.439 0.114 -0.011 1 
0.434 0.162 -0.011 1 
0.432 0.174 -0.01 1 
0.431 0.183 -0.01 1 
0.431 0.194 -0.01 1 
0.429 0.203 -0.01 1 
0.43 0.222 -0.011 1 
0.429 0.232 -0.011 1 
0.432 0.254 -0.012 1 
0.433 0.261 -0.013 1 
0.431 0.273 -0.013 1 
0.428 0.279 -0.012 1 
0.454 -0.318 -0.015 1 
0.455 -0.309 -0.015 1 
0.452 -0.296 -0.014 1 
0.449 -0.287 -0.013 1 
0.452 -0.275 -0.013 1 
0.418 0.133 -0.013 1 
0.448 -0.265 -0.012 1 
0.448 -0.236 -0.011 1 
0.45 -0.226 -0.012 1 
0.448 -0.217 -0.011 1 
0.449 -0.207 -0.011 1 
0.45 -0.196 -0.011 1 
0.452 -0.187 -0.012 1 
0.45 -0.156 -0.011 1 
0.451 -0.146 -0.011 1 
0.451 -0.135 -0.011 1 
0.451 -0.127 -0.01 1 
0.449 -0.116 -0.01 1 
0.452 -0.107 -0.011 1 
0.453 -0.097 -0.011 1 
0.443 -0.205 -0.012 1 
0.453 -0.086 -0.011 1 
0.45 -0.067 -0.01 1 
0.451 -0.055 -0.01 1 
0.454 -0.035 -0.011 1 
0.453 -0.014 -0.011 1 
0.451 0.033 -0.01 1 
0.45 0.054 -0.01 1 
0.443 0.123 -0.009 1 
0.443 0.133 -0.009 1 
0.451 0.044 -0.01 1 
0.442 0.143 -0.009 1 
0.442 0.153 -0.01 1 
0.441 0.164 -0.01 1 
0.437 0.174 -0.009 1 
0.454 -0.255 -0.011 1 
0.453 -0.249 -0.01 1 
0.454 0.062 -0.009 1 
0.453 0.072 -0.008 1 
0.452 0.093 -0.008 1 
0.451 0.103 -0.008 1 
0.448 0.154 -0.008 1 
0.41 0.193 -0.015 1 
0.443 0.183 -0.008 1 
0.443 0.202 -0.008 1 
0.44 0.244 -0.009 1 
0.442 0.272 -0.01 1 
0.441 0.283 -0.01 1 
0.433 0.302 -0.009 1 
0.383 0.183 -0.015 1 
0.463 -0.317 -0.011 1 
0.46 -0.217 -0.009 1 
0.461 -0.156 -0.008 1 
0.463 -0.076 -0.008 1 
0.384 -0.242 -0.025 1 
0.461 -0.057 -0.007 1 
0.432 0.024 -0.001 1 
0.454 0.13 -0.007 1 
0.453 0.163 -0.007 1 
0.393 0.232 -0.016 1 
0.451 0.183 -0.007 1 
0.45 0.191 -0.007 1 
0.452 0.203 -0.008 1 
0.444 0.289 -0.008 1 
0.444 0.301 -0.009 1 
0.409 -0.036 -0.015 1 
0.442 0.312 -0.009 1 
0.443 0.316 -0.009 1 
0.464 -0.342 -0.01 1 
0.464 -0.264 -0.007 1 
0.465 -0.209 -0.007 1 
0.464 -0.2 -0.006 1 
0.465 -0.195 -0.006 1 
0.464 -0.177 -0.006 1 
0.465 -0.147 -0.006 1 
0.464 -0.136 -0.006 1 
0.464 -0.125 -0.005 1 
0.464 -0.119 -0.005 1 
0.403 -0.271 -0.023 1 
0.465 -0.117 -0.006 1 
0.465 -0.055 -0.005 1 
0.465 -0.039 -0.005 1 
0.464 -0.036 -0.005 1 
0.413 -0.185 -0.016 1 
0.475 -0.01 -0.008 1 
0.462 0.032 -0.005 1 
0.463 0.043 -0.005 1 
0.463 0.053 -0.005 1 
0.462 0.064 -0.005 1 
0.37 0.018 -0.007 1 
0.461 0.074 -0.005 1 
0.461 0.082 -0.005 1 
0.459 0.092 -0.005 1 
0.46 0.114 -0.005 1 
0.46 0.122 -0.005 1 
0.455 0.172 -0.005 1 
0.456 0.184 -0.006 1 
0.457 0.204 -0.006 1 
0.41 0.088 -0.014 1 
0.455 0.211 -0.006 1 
0.454 0.213 -0.006 1 
0.454 0.216 -0.006 1 
0.453 0.232 -0.006 1 
0.453 0.244 -0.006 1 
0.449 0.252 -0.006 1 
0.448 0.26 -0.006 1 
0.451 0.284 -0.007 1 
0.448 0.293 -0.007 1 
0.454 -0.045 -0.011 1 
0.469 -0.307 -0.007 1 
0.46 0.133 -0.005 1 
0.472 -0.287 -0.007 1 
0.469 -0.275 -0.006 1 
0.471 -0.255 -0.006 1 
0.47 -0.245 -0.005 1 
0.469 -0.235 -0.005 1 
0.469 -0.227 -0.005 1 
0.467 -0.22 -0.005 1 
0.464 0.064 -0.003 1 
0.463 0.094 -0.003 1 
0.463 0.113 -0.003 1 
0.456 0.264 -0.005 1 
0.456 0.273 -0.005 1 
0.444 -0.247 -0.013 1 
0.455 0.294 -0.005 1 
0.453 0.298 -0.005 1 
0.455 0.303 -0.006 1 
0.453 0.314 -0.006 1 
0.452 0.323 -0.006 1 
0.452 0.326 -0.006 1 
0.472 -0.347 -0.005 1 
0.475 -0.347 -0.006 1 
0.474 -0.336 -0.005 1 
0.428 0.133 -0.013 1 
0.442 0.263 -0.01 1 
0.471 -0.325 -0.005 1 
0.364 -0.081 -0.015 1 
0.472 -0.316 -0.005 1 
0.474 -0.295 -0.004 1 
0.39 -0.225 -0.022 1 
0.387 0.004 0.014 1 
0.385 -0.005 -0.008 1 
0.385 0.01 0.014 1 
0.384 0.014 0.015 1 
0.385 0.016 0.014 1 
0.464 0.124 -0.001 1 
0.463 0.154 -0.001 1 
0.474 -0.325 -0.002 1 
0.384 0.151 -0.014 1 
0.474 -0.315 -0.002 1 
0.474 -0.308 -0.002 1 
0.476 -0.015 0 1 
0.417 0.002 0.011 1 
0.407 -0.008 -0.013 1 
0.41 0.013 0.012 1 
0.408 0.015 0.012 1 
0.464 0.171 0 1 
0.464 0.18 0 1 
0.464 0.194 0 1 
0.464 0.203 0 1 
0.463 0.234 0 1 
0.473 -0.356 0 1 
0.475 -0.277 0.001 1 
0.472 -0.217 0.002 1 
0.472 -0.205 0.002 1 
0.472 -0.196 0.002 1 
0.472 -0.188 0.002 1 
0.472 -0.156 0.003 1 
0.471 -0.147 0.003 1 
0.374 -0.211 -0.022 1 
0.422 0.114 -0.013 1 
0.471 -0.136 0.003 1 
0.408 -0.126 -0.016 1 
0.466 -0.007 0.004 1 
0.409 0.128 -0.015 1 
0.466 0.084 0.004 1 
0.466 0.122 0.003 1 
0.466 0.144 0.003 1 
0.465 0.152 0.003 1 
0.466 0.164 0.003 1 
0.466 0.184 0.002 1 
0.465 0.192 0.002 1 
0.465 0.203 0.002 1 
0.465 0.206 0.002 1 
0.464 0.223 0.002 1 
0.465 0.233 0.002 1 
0.466 0.243 0.001 1 
0.465 0.248 0.001 1 
0.464 0.253 0.001 1 
0.465 0.269 0.001 1 
0.464 0.293 0.001 1 
0.462 0.304 0.001 1 
0.474 -0.353 0.002 1 
0.486 -0.341 0 1 
0.477 -0.325 0.002 1 
0.476 -0.297 0.003 1 
0.475 -0.29 0.003 1 
0.474 -0.285 0.004 1 
0.474 -0.276 0.004 1 
0.474 -0.27 0.004 1 
0.475 -0.267 0.004 1 
0.475 -0.243 0.004 1 
0.473 -0.236 0.004 1 
0.474 -0.233 0.004 1 
0.467 -0.085 -0.006 1 
0.465 0.094 0.006 1 
0.465 0.164 0.006 1 
0.417 0.273 -0.015 1 
0.465 -0.189 -0.006 1 
0.465 0.189 0.005 1 
0.459 -0.012 -0.015 1 
0.463 0.273 0.004 1 
0.465 0.294 0.003 1 
0.423 -0.066 -0.015 1 
0.465 0.304 0.003 1 
0.465 0.307 0.003 1 
0.464 0.313 0.003 1 
0.463 0.315 0.003 1 
0.467 0.333 0.002 1 
0.467 0.339 0.002 1 
0.469 0.346 0.001 1 
0.469 0.345 -0.007 1 
0.474 -0.353 0.005 1 
0.463 0.003 0.01 1 
0.465 -0.065 -0.005 1 
0.465 -0.167 -0.006 1 
0.465 0.172 0.008 1 
0.479 -0.337 0.002 1 
0.465 0.175 0.008 1 
0.404 0.273 -0.016 1 
0.465 0.32 0.005 1 
0.431 0.294 -0.011 1 
0.404 -0.156 -0.017 1 
0.466 -0.007 0.012 1 
0.466 0.003 0.012 1 
0.46 -0.014 -0.01 1 
0.464 0.014 0.012 1 
0.464 0.024 0.012 1 
0.465 -0.047 -0.005 1 
0.462 -0.046 -0.007 1 
0.461 -0.065 -0.007 1 
0.411 0.204 -0.013 1 
0.384 -0.145 -0.017 1 
0.464 -0.087 -0.008 1 
0.463 -0.105 -0.008 1 
0.478 -0.347 0.002 1 
0.466 -0.106 -0.006 1 
0.462 -0.146 -0.008 1 
0.466 0.103 0.004 1 
0.408 0.263 -0.014 1 
0.464 -0.174 -0.006 1 
0.464 -0.186 -0.006 1 
0.46 -0.226 -0.009 1 
0.462 -0.247 -0.009 1 
0.462 -0.269 -0.007 1 
0.438 0.251 -0.009 1 
0.462 -0.287 -0.01 1 
0.391 0.174 -0.015 1 
0.464 -0.332 -0.012 1 
0.436 -0.265 -0.017 1 
0.408 0.114 -0.014 1 
0.371 0.11 -0.015 1 
0.414 0.152 -0.014 1 
0.465 0.094 0.004 1 
0.443 -0.318 -0.016 1 
0.404 -0.085 -0.016 1 
0.351 0.176 -0.014 1 
0.434 -0.047 -0.013 1 
0.373 -0.016 -0.012 1 
0.45 0.144 -0.009 1 
0.434 -0.287 -0.02 1 
0.42 -0.161 -0.015 1 
0.455 -0.296 -0.015 1 
0.363 -0.176 -0.019 1 
0.44 -0.246 -0.015 1 
0.459 0.143 -0.005 1 
0.451 -0.178 -0.011 1 
0.363 0.064 -0.015 1 
0.472 -0.165 0.003 1 
0.452 -0.075 -0.01 1 
0.391 0.102 -0.015 1 
0.474 -0.254 -0.001 1 
0.362 0.113 -0.014 1 
0.453 -0.022 -0.011 1 
0.42 -0.017 -0.014 1 
0.461 0.244 0 1 
0.442 -0.014 -0.013 1 
0.424 0.023 -0.011 1 
0.475 -0.249 0.007 1 
0.347 0.164 -0.014 1 
0.379 -0.125 -0.017 1 
0.405 -0.044 -0.014 1 
0.363 0.14 -0.015 1 
0.463 0.335 0 1 
0.456 0.283 -0.005 1 
0.441 0.212 -0.008 1 
0.357 0.134 -0.014 1 
0.409 0.063 -0.014 1 
0.408 0.024 -0.013 1 
0.403 0.167 -0.014 1 
0.44 -0.045 -0.012 1 
0.464 0.083 -0.003 1 
0.37 -0.071 -0.015 1 
0.444 0.053 -0.011 1 
0.424 -0.276 -0.022 1 
0.434 0.114 -0.012 1 
0.475 -0.255 0.004 1 
0.423 -0.038 -0.015 1 
0.384 0.085 -0.015 1 
0.411 0.281 -0.016 1 
0.458 0.154 -0.005 1 
0.389 0.204 -0.016 1 
0.475 -0.246 0.004 1 
0.463 0.332 0 1 
0.478 -0.007 0 1 
0.398 0.162 -0.015 1 
0.464 0.035 -0.003 1 
0.374 0.148 -0.015 1 
0.382 0.231 -0.017 1 
0.396 -0.247 -0.025 1 
0.426 -0.16 -0.015 1 
0.465 0.32 0.002 1 
0.397 -0.256 -0.025 1 
0.393 -0.236 -0.023 1 
0.466 -0.025 -0.006 1 
0.372 0.084 -0.015 1 
0.427 -0.165 -0.015 1 
0.394 -0.096 -0.015 1 
0.431 -0.235 -0.017 1 
0.372 0.094 -0.015 1 
0.474 -0.012 -0.005 1 
0.465 0.011 0.012 1 
0.432 -0.267 -0.019 1 
0.424 -0.245 -0.018 1 
0.395 -0.267 -0.025 1 
0.42 0.173 -0.012 1 
0.463 -0.301 -0.008 1 
0.412 -0.147 -0.015 1 
0.404 -0.165 -0.018 1 
0.41 0.124 -0.015 1 
0.47 -0.295 -0.006 1 
0.463 0.134 -0.003 1 
0.384 0.204 -0.016 1 
0.381 0.193 -0.015 1 
0.465 0.263 0.001 1 
0.422 -0.045 -0.015 1 
0.369 -0.045 -0.014 1 
0.406 -0.02 -0.015 1 
0.374 0.064 -0.015 1 
0.434 -0.217 -0.015 1 
0.361 0.164 -0.015 1 
0.414 0.172 -0.013 1 
0.392 0.246 -0.016 1 
0.462 -0.023 -0.007 1 
0.398 0.054 -0.015 1 
0.42 -0.104 -0.014 1 
0.364 -0.085 -0.015 1 
0.466 0.114 0.003 1 
0.393 0.114 -0.016 1 
0.463 0.143 -0.003 1 
0.362 -0.106 -0.016 1 
0.463 0.104 -0.003 1 
0.442 0.092 -0.011 1 
0.451 0.113 -0.008 1 
0.414 0.179 -0.013 1 
0.453 -0.027 -0.011 1 
0.455 0.225 -0.006 1 
0.384 -0.089 -0.016 1 
0.408 0.044 -0.013 1 
0.424 0.263 -0.013 1 
0.416 0.144 -0.012 1 
0.441 -0.285 -0.016 1 
0.451 0.272 -0.007 1 
0.373 -0.227 -0.025 1 
0.464 -0.033 -0.005 1 
0.404 -0.215 -0.019 1 
0.403 -0.176 -0.018 1 
0.393 -0.177 -0.019 1 
0.413 -0.176 -0.016 1 
0.444 -0.016 -0.013 1 
0.417 0.123 -0.015 1 
0.399 -0.055 -0.014 1 
0.398 0.084 -0.015 1 
0.369 0.033 -0.015 1 
0.428 0.024 -0.005 1 
0.455 0.222 -0.006 1 
0.36 -0.096 -0.015 1 
0.384 -0.177 -0.018 1 
0.463 0.264 0.004 1 
0.465 -0.155 -0.006 1 
0.379 -0.227 -0.025 1 
0.4 -0.096 -0.015 1 
0.441 -0.135 -0.013 1 
0.4 -0.126 -0.016 1 
0.419 0.261 -0.015 1 
0.382 0.133 -0.015 1 
0.374 -0.063 -0.014 1 
0.464 0.16 0 1 
0.364 -0.045 -0.014 1 
0.474 -0.339 -0.003 1 
0.428 0.104 -0.013 1 
0.374 0.234 -0.017 1 
0.422 -0.185 -0.016 1 
0.363 -0.015 -0.014 1 
0.413 -0.208 -0.019 1 
0.431 0.033 -0.013 1 
0.357 0.182 -0.015 1 
0.434 -0.028 -0.013 1 
0.405 0.173 -0.015 1 
0.443 -0.309 -0.015 1 
0.428 -0.055 -0.014 1 
0.453 0.083 -0.009 1 
0.428 -0.255 -0.017 1 
0.374 -0.159 -0.018 1 
0.384 -0.195 -0.021 1 
0.393 0.208 -0.015 1 
0.422 -0.126 -0.015 1 
0.374 0.041 -0.015 1 
0.372 0.174 -0.015 1 
0.363 0.05 -0.014 1 
0.371 0.089 -0.014 1 
0.419 -0.01 -0.014 1 
0.415 0.005 0.011 1 
0.358 0.055 -0.014 1 
0.466 0.173 0.003 1 
0.402 0.083 -0.014 1 
0.446 0.025 -0.001 1 
0.44 0.192 -0.008 1 
0.41 0.084 -0.014 1 
0.47 -0.266 -0.006 1 
0.404 0.251 -0.015 1 
0.463 0.283 0.004 1 
0.36 -0.046 -0.015 1 
0.357 0.138 -0.014 1 
0.409 0.033 -0.013 1 
0.474 -0.257 -0.001 1 
0.391 -0.185 -0.019 1 
0.361 -0.115 -0.016 1 
0.399 0.204 -0.014 1 
0.464 -0.095 -0.008 1 
0.433 0.206 -0.009 1 
0.443 0.224 -0.009 1 
0.379 0.063 -0.015 1 
0.42 -0.116 -0.015 1 
0.417 -0.278 -0.025 1 
0.392 -0.165 -0.018 1 
0.415 0.285 -0.015 1 
0.412 -0.281 -0.024 1 
0.477 -0.315 0.002 1 
0.459 -0.275 -0.009 1 
0.414 -0.026 -0.015 1 
0.464 0.072 -0.003 1 
0.465 -0.004 0.004 1 
0.403 -0.115 -0.016 1 
0.464 -0.206 -0.006 1 
0.449 -0.166 -0.011 1 
0.453 0.173 -0.007 1 
0.4 -0.026 -0.015 1 
0.379 0.173 -0.016 1 
0.383 0.094 -0.014 1 
0.456 0.164 -0.005 1 
0.441 0.234 -0.009 1 
0.468 -0.096 -0.006 1 
0.422 -0.056 -0.015 1 
0.457 0.193 -0.006 1 
0.464 0.214 0.002 1 
0.431 0.242 -0.012 1 
0.429 -0.018 -0.014 1 
0.472 -0.015 -0.007 1 
0.412 -0.017 -0.014 1 
0.365 -0.024 -0.015 1 
0.451 0.124 -0.009 1 
0.387 0.193 -0.015 1 
0.466 -0.076 -0.006 1 
0.45 -0.326 -0.015 1 
0.46 -0.237 -0.009 1 
0.399 -0.247 -0.023 1 
0.431 -0.165 -0.014 1 
0.384 -0.139 -0.017 1 
0.462 -0.306 -0.011 1 
0.372 0.204 -0.017 1 
0.362 0.214 -0.016 1 
0.43 -0.096 -0.015 1 
0.46 0.103 -0.005 1 
0.392 -0.137 -0.018 1 
0.439 -0.009 -0.015 1 
0.372 -0.165 -0.018 1 
0.42 -0.208 -0.016 1 
0.454 -0.305 -0.015 1 
0.403 0.086 -0.014 1 
0.472 -0.176 0.002 1 
0.342 0.003 0.019 2 
0.342 0.014 0.021 2 
0.342 0.014 0.029 2 
0.343 0.003 0.026 2 
0.474 -0.266 0.012 3 
0.474 -0.199 0.154 3 
0.476 -0.235 0.152 3 
0.476 -0.226 0.152 3 
0.469 0.314 0.152 3 
0.47 0.321 0.153 3 
0.47 0.332 0.153 3 
0.469 0.341 0.154 3 
0.468 0.347 0.154 3 
0.476 -0.208 0.154 3 
0.466 0.233 0.063 3 
0.468 0.02 0.144 3 
0.477 -0.258 0.153 3 
0.478 -0.268 0.154 3 
0.478 -0.275 0.154 3 
0.465 0.183 0.044 3 
0.468 0.079 0.144 3 
0.468 0.074 0.144 3 
0.467 0.063 0.144 3 
0.468 0.052 0.144 3 
0.468 0.044 0.144 3 
0.468 0.033 0.144 3 
0.472 -0.147 0.074 3 
0.484 -0.338 0.164 3 
0.471 -0.135 0.083 3 
0.468 0.322 0.144 3 
0.483 -0.348 0.164 3 
0.467 0.299 0.154 3 
0.468 0.293 0.154 3 
0.468 0.283 0.154 3 
0.467 0.264 0.153 3 
0.467 0.254 0.153 3 
0.467 0.242 0.153 3 
0.468 -0.137 0.014 3 
0.467 0.233 0.152 3 
0.466 0.223 0.152 3 
0.475 -0.196 0.154 3 
0.473 -0.117 0.152 3 
0.473 -0.126 0.152 3 
0.474 -0.138 0.153 3 
0.463 0.339 0.062 3 
0.473 -0.146 0.152 3 
0.474 -0.155 0.153 3 
0.465 0.297 0.043 3 
0.473 -0.166 0.153 3 
0.475 -0.274 0.104 3 
0.473 -0.175 0.153 3 
0.474 -0.187 0.154 3 
0.472 -0.125 0.143 3 
0.468 0.112 0.142 3 
0.476 -0.247 0.112 3 
0.468 0.101 0.142 3 
0.468 0.093 0.142 3 
0.47 -0.056 0.142 3 
0.471 -0.067 0.143 3 
0.468 0.022 0.103 3 
0.465 0.172 0.052 3 
0.471 -0.075 0.143 3 
0.472 -0.086 0.143 3 
0.471 -0.105 0.143 3 
0.472 -0.117 0.143 3 
0.467 0.123 0.142 3 
0.472 -0.145 0.144 3 
0.473 -0.157 0.144 3 
0.473 -0.166 0.144 3 
0.472 -0.177 0.144 3 
0.482 -0.335 0.151 3 
0.483 -0.347 0.152 3 
0.467 0.345 0.144 3 
0.474 -0.186 0.122 3 
0.467 0.342 0.144 3 
0.468 0.333 0.144 3 
0.472 -0.056 0.162 3 
0.467 0.224 0.144 3 
0.469 -0.007 0.144 3 
0.469 -0.015 0.144 3 
0.479 -0.285 0.152 3 
0.479 -0.295 0.152 3 
0.481 -0.307 0.153 3 
0.482 -0.315 0.154 3 
0.482 -0.325 0.154 3 
0.467 0.26 0.144 3 
0.467 0.254 0.144 3 
0.466 0.244 0.144 3 
0.466 0.232 0.144 3 
0.468 0.003 0.144 3 
0.464 0.183 0.027 3 
0.467 0.212 0.143 3 
0.467 0.203 0.143 3 
0.467 0.191 0.143 3 
0.466 0.182 0.142 3 
0.467 0.174 0.142 3 
0.471 -0.156 0.124 3 
0.467 0.162 0.142 3 
0.467 0.154 0.142 3 
0.468 0.143 0.142 3 
0.468 0.132 0.142 3 
0.475 -0.182 0.162 3 
0.469 0.314 0.164 3 
0.468 0.303 0.163 3 
0.468 0.293 0.163 3 
0.465 0.262 0.063 3 
0.468 0.281 0.163 3 
0.468 0.271 0.162 3 
0.467 0.264 0.162 3 
0.468 0.274 0.154 3 
0.474 -0.155 0.161 3 
0.474 -0.276 0.078 3 
0.474 -0.175 0.162 3 
0.466 0.123 0.122 3 
0.469 0.321 0.164 3 
0.475 -0.185 0.162 3 
0.476 -0.197 0.163 3 
0.466 0.114 0.052 3 
0.475 -0.205 0.163 3 
0.476 -0.217 0.163 3 
0.474 -0.257 0.044 3 
0.474 -0.285 0.012 3 
0.477 -0.227 0.164 3 
0.478 -0.237 0.164 3 
0.469 0.349 0.163 3 
0.468 0.34 0.162 3 
0.472 -0.147 0.083 3 
0.468 0.022 0.114 3 
0.472 -0.067 0.162 3 
0.473 -0.076 0.163 3 
0.474 -0.087 0.163 3 
0.473 -0.095 0.163 3 
0.466 0.114 0.044 3 
0.473 -0.106 0.163 3 
0.464 0.283 0.02 3 
0.473 -0.115 0.163 3 
0.474 -0.126 0.164 3 
0.475 -0.135 0.164 3 
0.47 0.332 0.162 3 
0.474 -0.138 0.164 3 
0.474 -0.146 0.164 3 
0.481 -0.355 0.128 3 
0.474 -0.205 0.165 3 
0.482 -0.315 0.172 3 
0.483 -0.327 0.173 3 
0.471 -0.167 0.022 3 
0.484 -0.335 0.173 3 
0.484 -0.346 0.174 3 
0.468 0.346 0.124 3 
0.485 -0.35 0.174 3 
0.471 -0.056 0.153 3 
0.478 -0.265 0.142 3 
0.469 0.083 0.153 3 
0.469 0.074 0.153 3 
0.469 0.063 0.153 3 
0.468 0.052 0.153 3 
0.468 0.044 0.153 3 
0.469 0.033 0.153 3 
0.469 0.022 0.153 3 
0.469 0.014 0.153 3 
0.468 -0.007 0.153 3 
0.469 -0.015 0.153 3 
0.47 -0.026 0.153 3 
0.47 0.094 0.153 3 
0.463 0.332 0.062 3 
0.472 -0.067 0.154 3 
0.472 -0.075 0.154 3 
0.473 -0.087 0.154 3 
0.473 -0.095 0.154 3 
0.474 -0.245 0.092 3 
0.472 -0.106 0.154 3 
0.474 -0.202 0.157 3 
0.48 -0.306 0.162 3 
0.482 -0.315 0.163 3 
0.483 -0.326 0.163 3 
0.467 0.192 0.154 3 
0.464 0.334 0.123 3 
0.474 -0.208 0.16 3 
0.472 -0.167 0.033 3 
0.477 -0.246 0.162 3 
0.477 -0.255 0.162 3 
0.478 -0.265 0.162 3 
0.478 -0.275 0.163 3 
0.479 -0.286 0.164 3 
0.479 -0.295 0.164 3 
0.466 0.212 0.154 3 
0.466 0.203 0.154 3 
0.465 0.258 0.104 3 
0.468 0.184 0.154 3 
0.468 0.172 0.154 3 
0.468 0.163 0.154 3 
0.469 0.152 0.154 3 
0.469 0.144 0.154 3 
0.467 0.123 0.063 3 
0.469 0.133 0.154 3 
0.469 0.124 0.153 3 
0.467 0.033 0.063 3 
0.469 0.113 0.153 3 
0.469 0.102 0.153 3 
0.466 0.033 0.122 3 
0.467 0.173 0.123 3 
0.466 0.164 0.123 3 
0.467 0.154 0.123 3 
0.467 0.134 0.123 3 
0.467 0.112 0.123 3 
0.467 0.104 0.123 3 
0.467 0.093 0.122 3 
0.467 0.074 0.122 3 
0.467 0.063 0.122 3 
0.467 0.052 0.122 3 
0.465 0.124 0.014 3 
0.467 0.044 0.122 3 
0.467 0.182 0.123 3 
0.466 0.022 0.122 3 
0.47 -0.155 0.014 3 
0.467 0.014 0.122 3 
0.468 0.003 0.122 3 
0.466 -0.076 0.012 3 
0.467 -0.006 0.122 3 
0.468 -0.015 0.122 3 
0.469 -0.025 0.123 3 
0.469 -0.036 0.123 3 
0.469 -0.047 0.123 3 
0.469 -0.055 0.123 3 
0.484 -0.337 0.134 3 
0.477 -0.267 0.133 3 
0.481 -0.345 0.064 3 
0.471 -0.167 0.044 3 
0.477 -0.276 0.133 3 
0.478 -0.287 0.134 3 
0.479 -0.298 0.134 3 
0.464 0.227 0.126 3 
0.48 -0.309 0.132 3 
0.482 -0.317 0.133 3 
0.483 -0.325 0.133 3 
0.473 -0.275 0.044 3 
0.469 -0.066 0.123 3 
0.483 -0.346 0.134 3 
0.469 0.347 0.127 3 
0.466 0.265 0.124 3 
0.466 0.256 0.124 3 
0.465 0.243 0.124 3 
0.464 0.233 0.123 3 
0.465 0.228 0.124 3 
0.464 0.224 0.123 3 
0.466 0.214 0.124 3 
0.467 0.202 0.123 3 
0.467 0.194 0.123 3 
0.467 0.123 0.114 3 
0.475 -0.237 0.123 3 
0.476 -0.247 0.124 3 
0.475 -0.256 0.124 3 
0.476 -0.266 0.124 3 
0.475 -0.192 0.12 3 
0.477 -0.286 0.122 3 
0.479 -0.307 0.123 3 
0.481 -0.326 0.124 3 
0.482 -0.338 0.124 3 
0.482 -0.345 0.124 3 
0.48 -0.357 0.124 3 
0.467 0.131 0.114 3 
0.475 -0.225 0.123 3 
0.466 0.114 0.114 3 
0.466 0.103 0.114 3 
0.466 0.092 0.114 3 
0.466 0.084 0.114 3 
0.478 -0.315 0.043 3 
0.466 0.073 0.114 3 
0.467 0.063 0.114 3 
0.467 0.052 0.114 3 
0.466 0.044 0.114 3 
0.466 0.033 0.114 3 
0.478 0.359 0.201 3 
0.466 0.204 0.082 3 
0.47 -0.075 0.123 3 
0.471 -0.086 0.123 3 
0.471 -0.097 0.124 3 
0.475 -0.287 0.093 3 
0.472 -0.106 0.124 3 
0.472 -0.125 0.124 3 
0.472 -0.136 0.124 3 
0.472 -0.145 0.124 3 
0.466 0.342 0.094 3 
0.471 -0.167 0.124 3 
0.474 -0.218 0.126 3 
0.465 0.253 0.082 3 
0.466 0.333 0.123 3 
0.466 0.323 0.123 3 
0.468 0.311 0.123 3 
0.468 0.302 0.123 3 
0.467 0.291 0.122 3 
0.467 0.281 0.122 3 
0.474 -0.177 0.122 3 
0.474 -0.195 0.122 3 
0.475 -0.198 0.123 3 
0.474 -0.206 0.123 3 
0.474 -0.215 0.123 3 
0.468 0.052 0.133 3 
0.467 0.174 0.134 3 
0.466 0.162 0.134 3 
0.467 0.154 0.134 3 
0.467 0.134 0.134 3 
0.468 0.123 0.134 3 
0.468 0.112 0.134 3 
0.468 0.104 0.134 3 
0.468 0.093 0.134 3 
0.468 0.082 0.134 3 
0.467 -0.007 0.084 3 
0.467 0.074 0.133 3 
0.467 0.063 0.133 3 
0.467 0.182 0.134 3 
0.467 0.044 0.133 3 
0.466 0.033 0.133 3 
0.467 0.022 0.133 3 
0.467 0.014 0.133 3 
0.469 0.003 0.133 3 
0.468 -0.007 0.133 3 
0.473 -0.217 0.064 3 
0.469 -0.015 0.133 3 
0.469 -0.025 0.133 3 
0.466 0.262 0.113 3 
0.469 -0.036 0.134 3 
0.476 -0.235 0.144 3 
0.467 0.301 0.143 3 
0.468 0.283 0.142 3 
0.467 -0.015 0.082 3 
0.468 0.273 0.142 3 
0.466 0.153 0.063 3 
0.472 -0.185 0.142 3 
0.473 -0.197 0.142 3 
0.474 -0.207 0.142 3 
0.475 -0.21 0.143 3 
0.476 -0.217 0.143 3 
0.477 -0.227 0.144 3 
0.469 -0.047 0.134 3 
0.476 -0.247 0.144 3 
0.477 -0.255 0.144 3 
0.478 -0.277 0.142 3 
0.479 -0.288 0.143 3 
0.471 -0.207 0.013 3 
0.481 -0.297 0.144 3 
0.481 -0.307 0.144 3 
0.485 -0.349 0.146 3 
0.471 -0.086 0.134 3 
0.467 0.197 0.134 3 
0.467 0.191 0.134 3 
0.485 -0.349 0.14 3 
0.472 -0.125 0.132 3 
0.479 -0.323 0.034 3 
0.472 -0.137 0.132 3 
0.472 -0.145 0.133 3 
0.472 -0.165 0.133 3 
0.473 -0.177 0.133 3 
0.475 -0.187 0.134 3 
0.474 -0.189 0.134 3 
0.475 -0.195 0.134 3 
0.474 -0.198 0.134 3 
0.475 -0.207 0.134 3 
0.468 0.014 0.093 3 
0.472 -0.117 0.132 3 
0.465 0.343 0.132 3 
0.463 0.333 0.131 3 
0.466 0.333 0.132 3 
0.464 0.239 0.129 3 
0.468 0.014 0.063 3 
0.474 -0.209 0.131 3 
0.475 -0.216 0.131 3 
0.467 0.084 0.063 3 
0.475 -0.225 0.132 3 
0.476 -0.235 0.132 3 
0.476 -0.247 0.132 3 
0.467 0.291 0.134 3 
0.469 -0.055 0.134 3 
0.47 -0.066 0.134 3 
0.471 -0.075 0.134 3 
0.483 -0.315 0.142 3 
0.483 -0.325 0.142 3 
0.483 -0.336 0.142 3 
0.483 -0.347 0.143 3 
0.464 0.335 0.134 3 
0.466 0.323 0.134 3 
0.466 0.34 0.123 3 
0.467 0.304 0.134 3 
0.468 0.312 0.143 3 
0.465 0.314 0.074 3 
0.468 0.283 0.134 3 
0.468 0.273 0.134 3 
0.467 0.263 0.133 3 
0.464 0.13 0.02 3 
0.467 0.254 0.133 3 
0.465 0.243 0.132 3 
0.465 0.234 0.132 3 
0.466 0.223 0.132 3 
0.466 0.214 0.132 3 
0.471 -0.097 0.132 3 
0.471 0.154 0.183 3 
0.481 -0.266 0.193 3 
0.465 0.341 0.025 3 
0.484 -0.305 0.196 3 
0.463 0.314 0.014 3 
0.476 0.353 0.193 3 
0.472 0.196 0.184 3 
0.466 0.043 0.103 3 
0.472 0.193 0.184 3 
0.472 0.172 0.184 3 
0.474 -0.167 0.173 3 
0.472 -0.137 0.144 3 
0.471 0.163 0.183 3 
0.47 -0.075 0.074 3 
0.473 0.143 0.183 3 
0.474 0.132 0.183 3 
0.476 -0.275 0.124 3 
0.475 0.124 0.184 3 
0.473 0.084 0.174 3 
0.474 0.113 0.183 3 
0.474 0.104 0.183 3 
0.475 0.096 0.183 3 
0.469 0.003 0.153 3 
0.475 0.093 0.183 3 
0.475 0.082 0.183 3 
0.474 0.331 0.194 3 
0.484 -0.295 0.199 3 
0.486 -0.3 0.2 3 
0.47 -0.177 0.052 3 
0.486 -0.307 0.2 3 
0.465 0.172 0.033 3 
0.486 -0.317 0.201 3 
0.487 -0.325 0.202 3 
0.488 -0.337 0.203 3 
0.489 -0.346 0.204 3 
0.474 0.343 0.195 3 
0.473 0.339 0.194 3 
0.466 0.153 0.044 3 
0.472 -0.147 0.094 3 
0.474 0.324 0.193 3 
0.471 0.314 0.192 3 
0.474 0.304 0.192 3 
0.474 0.006 0.185 3 
0.48 -0.225 0.192 3 
0.48 -0.237 0.192 3 
0.466 0.253 0.124 3 
0.465 0.192 0.063 3 
0.481 -0.247 0.193 3 
0.481 -0.256 0.193 3 
0.477 -0.105 0.184 3 
0.475 -0.04 0.183 3 
0.467 0.343 0.022 3 
0.476 -0.046 0.183 3 
0.475 -0.057 0.183 3 
0.475 -0.065 0.183 3 
0.474 -0.068 0.183 3 
0.474 -0.076 0.183 3 
0.475 -0.079 0.183 3 
0.467 0.003 0.092 3 
0.475 -0.085 0.183 3 
0.468 0.234 0.164 3 
0.476 -0.096 0.184 3 
0.474 -0.037 0.183 3 
0.473 -0.168 0.102 3 
0.483 -0.277 0.192 3 
0.482 -0.286 0.192 3 
0.465 0.273 0.093 3 
0.485 -0.299 0.193 3 
0.473 -0.205 0.044 3 
0.485 -0.306 0.194 3 
0.477 0.361 0.191 3 
0.474 0.354 0.189 3 
0.471 0.278 0.184 3 
0.469 0.27 0.183 3 
0.475 0.023 0.183 3 
0.474 0.079 0.183 3 
0.468 0.044 0.074 3 
0.474 0.073 0.183 3 
0.473 0.062 0.182 3 
0.474 0.054 0.183 3 
0.475 0.045 0.183 3 
0.469 -0.025 0.144 3 
0.475 0.043 0.183 3 
0.475 0.034 0.183 3 
0.471 -0.156 0.133 3 
0.474 0.026 0.182 3 
0.484 -0.285 0.198 3 
0.474 0.017 0.182 3 
0.473 0.012 0.182 3 
0.473 0.003 0.182 3 
0.466 0.254 0.074 3 
0.475 -0.007 0.183 3 
0.474 -0.012 0.183 3 
0.48 -0.315 0.123 3 
0.475 -0.015 0.183 3 
0.474 -0.02 0.183 3 
0.474 -0.026 0.183 3 
0.474 -0.037 0.174 3 
0.472 0.184 0.184 3 
0.474 0.203 0.191 3 
0.475 0.201 0.192 3 
0.474 0.194 0.191 3 
0.475 0.192 0.191 3 
0.473 0.182 0.19 3 
0.473 0.173 0.19 3 
0.472 0.164 0.189 3 
0.474 0.153 0.19 3 
0.467 0.084 0.122 3 
0.474 0.141 0.189 3 
0.474 0.133 0.189 3 
0.475 0.127 0.189 3 
0.477 -0.298 0.023 3 
0.475 0.124 0.189 3 
0.476 0.113 0.19 3 
0.464 0.232 0.027 3 
0.466 0.062 0.004 3 
0.477 0.102 0.19 3 
0.463 0.202 0.014 3 
0.477 0.094 0.19 3 
0.477 0.082 0.19 3 
0.476 0.074 0.189 3 
0.476 0.062 0.189 3 
0.476 0.054 0.189 3 
0.474 0.304 0.195 3 
0.479 -0.297 0.123 3 
0.477 0.35 0.2 3 
0.476 0.342 0.199 3 
0.475 -0.296 0.012 3 
0.475 0.334 0.198 3 
0.469 0.211 0.172 3 
0.474 0.329 0.197 3 
0.475 0.322 0.197 3 
0.474 0.318 0.196 3 
0.472 -0.156 0.102 3 
0.474 0.314 0.196 3 
0.47 -0.045 0.142 3 
0.474 0.294 0.195 3 
0.474 0.288 0.194 3 
0.474 0.284 0.194 3 
0.472 0.273 0.193 3 
0.473 0.264 0.193 3 
0.472 0.254 0.192 3 
0.473 0.242 0.192 3 
0.474 0.234 0.192 3 
0.473 0.224 0.191 3 
0.47 -0.036 0.142 3 
0.473 0.212 0.191 3 
0.48 -0.207 0.194 3 
0.479 -0.126 0.191 3 
0.471 -0.037 0.153 3 
0.479 -0.135 0.191 3 
0.48 -0.315 0.102 3 
0.479 -0.146 0.192 3 
0.478 -0.155 0.192 3 
0.469 0.344 0.184 3 
0.478 -0.166 0.192 3 
0.469 -0.066 0.074 3 
0.478 -0.175 0.192 3 
0.479 -0.185 0.193 3 
0.48 -0.197 0.194 3 
0.478 -0.356 0.052 3 
0.474 -0.126 0.167 3 
0.48 -0.216 0.194 3 
0.481 -0.219 0.195 3 
0.482 -0.226 0.195 3 
0.481 -0.235 0.195 3 
0.481 -0.248 0.196 3 
0.482 -0.257 0.196 3 
0.466 0.084 0.023 3 
0.483 -0.268 0.197 3 
0.484 -0.275 0.198 3 
0.464 0.316 0.054 3 
0.477 -0.046 0.19 3 
0.477 0.043 0.189 3 
0.477 0.034 0.189 3 
0.476 0.023 0.189 3 
0.475 0.012 0.189 3 
0.468 0.043 0.052 3 
0.476 0.004 0.189 3 
0.477 -0.007 0.189 3 
0.477 -0.015 0.189 3 
0.476 -0.026 0.189 3 
0.476 -0.257 0.133 3 
0.476 -0.035 0.189 3 
0.473 -0.226 0.052 3 
0.477 -0.057 0.189 3 
0.474 -0.205 0.154 3 
0.477 -0.066 0.189 3 
0.468 -0.126 0.014 3 
0.477 -0.077 0.19 3 
0.471 -0.045 0.153 3 
0.467 0.314 0.134 3 
0.478 -0.086 0.19 3 
0.478 -0.097 0.19 3 
0.479 -0.106 0.191 3 
0.479 -0.117 0.191 3 
0.487 -0.346 0.184 3 
0.475 -0.147 0.173 3 
0.475 -0.156 0.173 3 
0.475 -0.17 0.173 3 
0.469 -0.096 0.052 3 
0.475 -0.176 0.174 3 
0.476 -0.186 0.174 3 
0.466 -0.087 0.012 3 
0.483 -0.317 0.181 3 
0.474 -0.186 0.094 3 
0.485 -0.322 0.182 3 
0.484 -0.325 0.182 3 
0.485 -0.337 0.183 3 
0.476 -0.136 0.173 3 
0.466 0.343 0.174 3 
0.468 0.334 0.174 3 
0.469 0.321 0.173 3 
0.469 0.311 0.173 3 
0.469 0.301 0.172 3 
0.47 0.293 0.172 3 
0.476 -0.197 0.172 3 
0.476 -0.206 0.172 3 
0.467 0.114 0.063 3 
0.476 -0.215 0.172 3 
0.474 -0.167 0.162 3 
0.474 -0.257 0.072 3 
0.481 -0.295 0.183 3 
0.483 -0.307 0.184 3 
0.484 -0.329 0.185 3 
0.469 0.279 0.174 3 
0.469 0.272 0.174 3 
0.482 -0.305 0.174 3 
0.464 0.342 0.138 3 
0.475 -0.237 0.103 3 
0.469 0.263 0.174 3 
0.469 0.254 0.174 3 
0.469 0.241 0.173 3 
0.475 -0.217 0.154 3 
0.47 0.233 0.173 3 
0.469 0.223 0.173 3 
0.468 0.202 0.172 3 
0.469 0.194 0.172 3 
0.464 0.265 0.026 3 
0.47 0.183 0.172 3 
0.474 -0.096 0.172 3 
0.474 -0.107 0.172 3 
0.474 -0.115 0.172 3 
0.475 -0.121 0.172 3 
0.476 -0.125 0.173 3 
0.466 0.283 0.082 3 
0.484 -0.346 0.177 3 
0.468 0.249 0.164 3 
0.468 0.243 0.164 3 
0.468 0.222 0.164 3 
0.467 0.213 0.163 3 
0.467 0.204 0.163 3 
0.469 0.193 0.163 3 
0.469 0.182 0.163 3 
0.472 -0.117 0.124 3 
0.468 0.172 0.163 3 
0.469 0.164 0.162 3 
0.469 -0.036 0.104 3 
0.482 -0.299 0.174 3 
0.469 0.153 0.162 3 
0.47 0.144 0.162 3 
0.47 0.133 0.162 3 
0.47 0.122 0.162 3 
0.47 0.102 0.162 3 
0.471 0.094 0.162 3 
0.47 0.023 0.161 3 
0.475 -0.133 0.164 3 
0.471 0.014 0.162 3 
0.471 -0.026 0.162 3 
0.472 -0.037 0.162 3 
0.465 0.222 0.124 3 
0.478 -0.228 0.173 3 
0.478 -0.237 0.173 3 
0.478 -0.247 0.174 3 
0.473 -0.205 0.083 3 
0.478 -0.256 0.174 3 
0.465 0.294 0.063 3 
0.484 -0.339 0.18 3 
0.47 0.35 0.172 3 
0.47 0.077 0.164 3 
0.47 0.069 0.164 3 
0.47 0.061 0.164 3 
0.467 0.292 0.142 3 
0.469 0.044 0.164 3 
0.47 0.033 0.164 3 
0.479 -0.326 0.082 3 
0.47 0.003 0.164 3 
0.47 -0.007 0.164 3 
0.47 -0.015 0.164 3 
0.474 -0.138 0.167 3 
0.474 -0.146 0.167 3 
0.479 -0.266 0.172 3 
0.479 -0.276 0.172 3 
0.479 -0.286 0.172 3 
0.485 -0.316 0.191 3 
0.476 -0.177 0.183 3 
0.478 -0.187 0.184 3 
0.467 0.054 0.074 3 
0.478 -0.196 0.184 3 
0.468 0.014 0.142 3 
0.478 -0.205 0.184 3 
0.477 -0.222 0.184 3 
0.471 -0.175 0.074 3 
0.467 0.054 0.004 3 
0.483 -0.297 0.189 3 
0.467 0.143 0.134 3 
0.483 -0.307 0.19 3 
0.475 -0.165 0.182 3 
0.487 -0.325 0.192 3 
0.472 -0.196 0.052 3 
0.487 -0.336 0.193 3 
0.486 -0.345 0.193 3 
0.468 -0.007 0.044 3 
0.47 0.334 0.183 3 
0.47 0.323 0.183 3 
0.47 0.313 0.182 3 
0.471 0.304 0.182 3 
0.472 0.292 0.182 3 
0.465 0.183 0.033 3 
0.473 0.042 0.179 3 
0.471 0.262 0.183 3 
0.471 0.253 0.183 3 
0.47 0.243 0.182 3 
0.471 0.234 0.182 3 
0.465 0.163 0.084 3 
0.471 0.222 0.182 3 
0.471 0.213 0.182 3 
0.474 0.124 0.18 3 
0.471 -0.105 0.132 3 
0.474 0.093 0.18 3 
0.467 -0.036 0.004 3 
0.474 -0.087 0.177 3 
0.47 0.114 0.162 3 
0.477 -0.318 0.014 3 
0.474 -0.054 0.18 3 
0.47 -0.055 0.063 3 
0.474 -0.056 0.18 3 
0.477 -0.116 0.182 3 
0.478 -0.125 0.182 3 
0.477 -0.137 0.182 3 
0.477 -0.145 0.182 3 
0.476 -0.156 0.182 3 
0.476 -0.355 0.014 3 
0.467 0.003 0.103 3 
0.471 0.042 0.173 3 
0.472 0.034 0.173 3 
0.47 0.053 0.164 3 
0.473 0.023 0.174 3 
0.473 0.014 0.174 3 
0.472 0.003 0.173 3 
0.472 -0.007 0.173 3 
0.472 -0.015 0.173 3 
0.473 -0.026 0.174 3 
0.464 0.102 0.012 3 
0.474 -0.045 0.174 3 
0.474 -0.056 0.174 3 
0.465 0.224 0.054 3 
0.473 -0.065 0.174 3 
0.467 0.103 0.044 3 
0.463 0.214 0.013 3 
0.474 -0.076 0.174 3 
0.474 -0.087 0.174 3 
0.474 -0.098 0.175 3 
0.474 -0.107 0.175 3 
0.474 -0.115 0.175 3 
0.474 -0.161 0.176 3 
0.482 -0.276 0.182 3 
0.481 -0.285 0.182 3 
0.471 0.142 0.174 3 
0.477 -0.225 0.182 3 
0.478 -0.235 0.182 3 
0.479 -0.245 0.183 3 
0.479 -0.257 0.183 3 
0.48 -0.265 0.184 3 
0.484 -0.315 0.188 3 
0.471 0.353 0.182 3 
0.468 -0.007 0.063 3 
0.47 0.171 0.174 3 
0.47 0.162 0.174 3 
0.471 0.154 0.174 3 
0.472 -0.045 0.162 3 
0.472 0.134 0.174 3 
0.476 -0.245 0.152 3 
0.473 0.123 0.174 3 
0.472 -0.095 0.143 3 
0.472 0.114 0.174 3 
0.472 0.103 0.174 3 
0.467 0.142 0.123 3 
0.472 0.092 0.174 3 
0.472 0.072 0.173 3 
0.472 0.064 0.173 3 
0.472 0.053 0.173 3 
0.469 -0.045 0.044 3 
0.466 0.133 0.044 3 
0.466 0.122 0.044 3 
0.467 0.092 0.044 3 
0.467 0.084 0.044 3 
0.467 0.073 0.044 3 
0.468 0.054 0.044 3 
0.467 0.033 0.044 3 
0.467 0.022 0.044 3 
0.467 0.014 0.044 3 
0.468 0.003 0.044 3 
0.468 -0.015 0.044 3 
0.468 -0.025 0.044 3 
0.466 0.144 0.044 3 
0.469 -0.055 0.044 3 
0.468 -0.077 0.044 3 
0.469 -0.085 0.044 3 
0.47 -0.096 0.044 3 
0.47 -0.105 0.044 3 
0.47 -0.116 0.044 3 
0.471 -0.135 0.044 3 
0.472 -0.147 0.044 3 
0.472 -0.156 0.044 3 
0.471 -0.175 0.044 3 
0.472 -0.187 0.044 3 
0.468 -0.066 0.044 3 
0.474 -0.286 0.052 3 
0.475 -0.293 0.052 3 
0.476 -0.296 0.052 3 
0.477 -0.307 0.052 3 
0.478 -0.315 0.052 3 
0.48 -0.327 0.052 3 
0.48 -0.337 0.052 3 
0.463 0.339 0.042 3 
0.463 0.332 0.042 3 
0.465 0.331 0.042 3 
0.464 0.313 0.043 3 
0.463 0.302 0.043 3 
0.473 -0.197 0.044 3 
0.465 0.284 0.043 3 
0.465 0.262 0.043 3 
0.464 0.252 0.043 3 
0.465 0.244 0.043 3 
0.465 0.232 0.043 3 
0.466 0.224 0.043 3 
0.466 0.213 0.043 3 
0.465 0.203 0.043 3 
0.465 0.192 0.044 3 
0.465 0.172 0.044 3 
0.465 0.163 0.044 3 
0.464 0.244 0.032 3 
0.465 0.284 0.034 3 
0.464 0.168 0.036 3 
0.478 -0.328 0.034 3 
0.478 -0.335 0.034 3 
0.48 -0.348 0.034 3 
0.477 -0.355 0.034 3 
0.473 -0.354 0.035 3 
0.464 0.293 0.032 3 
0.465 0.272 0.032 3 
0.465 0.262 0.032 3 
0.464 0.256 0.032 3 
0.464 0.253 0.032 3 
0.465 0.294 0.034 3 
0.465 0.232 0.032 3 
0.465 0.224 0.032 3 
0.464 0.217 0.032 3 
0.464 0.214 0.032 3 
0.465 0.212 0.032 3 
0.465 0.203 0.032 3 
0.465 0.192 0.033 3 
0.465 0.163 0.033 3 
0.465 0.152 0.033 3 
0.466 0.144 0.033 3 
0.466 0.133 0.033 3 
0.469 -0.055 0.033 3 
0.473 -0.217 0.044 3 
0.473 -0.226 0.044 3 
0.474 -0.236 0.044 3 
0.474 -0.245 0.044 3 
0.474 -0.267 0.044 3 
0.476 -0.296 0.044 3 
0.477 -0.307 0.043 3 
0.479 -0.326 0.043 3 
0.48 -0.348 0.043 3 
0.478 -0.356 0.043 3 
0.464 0.255 0.04 3 
0.473 -0.275 0.052 3 
0.464 0.223 0.019 3 
0.464 0.243 0.04 3 
0.475 -0.282 0.041 3 
0.464 0.293 0.037 3 
0.462 0.338 0.034 3 
0.462 0.334 0.034 3 
0.463 0.322 0.034 3 
0.463 0.312 0.034 3 
0.465 0.306 0.034 3 
0.464 0.302 0.034 3 
0.465 0.297 0.034 3 
0.478 -0.315 0.064 3 
0.473 -0.205 0.064 3 
0.474 -0.227 0.064 3 
0.475 -0.237 0.064 3 
0.474 -0.239 0.064 3 
0.474 -0.245 0.064 3 
0.474 -0.257 0.064 3 
0.474 -0.267 0.064 3 
0.474 -0.276 0.064 3 
0.475 -0.283 0.064 3 
0.475 -0.286 0.064 3 
0.476 -0.297 0.064 3 
0.477 -0.305 0.064 3 
0.475 -0.286 0.044 3 
0.48 -0.337 0.064 3 
0.48 -0.355 0.064 3 
0.464 0.294 0.06 3 
0.475 -0.246 0.061 3 
0.465 0.272 0.043 3 
0.474 -0.286 0.058 3 
0.464 0.34 0.054 3 
0.464 0.333 0.054 3 
0.465 0.331 0.054 3 
0.465 0.324 0.054 3 
0.465 0.307 0.054 3 
0.47 -0.105 0.063 3 
0.467 0.054 0.063 3 
0.468 0.022 0.063 3 
0.467 0.003 0.063 3 
0.468 -0.015 0.063 3 
0.468 -0.025 0.063 3 
0.469 -0.036 0.063 3 
0.469 -0.047 0.063 3 
0.47 -0.066 0.063 3 
0.47 -0.077 0.063 3 
0.47 -0.086 0.063 3 
0.471 -0.097 0.063 3 
0.464 0.303 0.054 3 
0.471 -0.116 0.063 3 
0.48 -0.348 0.052 3 
0.471 -0.127 0.063 3 
0.471 -0.135 0.063 3 
0.472 -0.147 0.063 3 
0.472 -0.156 0.063 3 
0.472 -0.167 0.063 3 
0.471 -0.175 0.063 3 
0.464 0.211 0.024 3 
0.472 -0.187 0.063 3 
0.472 -0.196 0.064 3 
0.47 -0.116 0.052 3 
0.467 0.014 0.052 3 
0.468 -0.007 0.052 3 
0.468 -0.015 0.052 3 
0.467 -0.025 0.052 3 
0.463 0.283 0.012 3 
0.468 -0.036 0.052 3 
0.468 -0.047 0.052 3 
0.469 -0.055 0.052 3 
0.469 -0.066 0.052 3 
0.469 -0.077 0.052 3 
0.469 -0.085 0.052 3 
0.47 -0.105 0.052 3 
0.467 0.022 0.052 3 
0.471 -0.127 0.052 3 
0.471 -0.135 0.052 3 
0.472 -0.147 0.052 3 
0.472 -0.156 0.052 3 
0.471 -0.166 0.052 3 
0.471 -0.187 0.052 3 
0.472 -0.205 0.052 3 
0.473 -0.217 0.052 3 
0.474 -0.236 0.052 3 
0.474 -0.245 0.052 3 
0.473 -0.266 0.052 3 
0.465 0.287 0.051 3 
0.464 0.294 0.054 3 
0.465 0.284 0.054 3 
0.465 0.272 0.054 3 
0.466 0.263 0.054 3 
0.466 0.254 0.054 3 
0.465 0.244 0.054 3 
0.465 0.232 0.054 3 
0.466 0.213 0.054 3 
0.465 0.203 0.054 3 
0.465 0.192 0.054 3 
0.465 0.183 0.054 3 
0.466 0.122 0.033 3 
0.465 0.163 0.052 3 
0.466 0.153 0.052 3 
0.466 0.144 0.052 3 
0.467 0.134 0.052 3 
0.467 0.103 0.052 3 
0.468 0.092 0.052 3 
0.468 0.084 0.052 3 
0.468 0.073 0.052 3 
0.468 0.062 0.052 3 
0.468 0.054 0.052 3 
0.467 0.033 0.052 3 
0.464 0.163 0.014 3 
0.478 -0.346 0.013 3 
0.463 0.302 0.012 3 
0.463 0.292 0.012 3 
0.463 0.273 0.012 3 
0.463 0.264 0.013 3 
0.463 0.252 0.013 3 
0.463 0.243 0.013 3 
0.463 0.234 0.013 3 
0.464 0.223 0.013 3 
0.463 0.193 0.014 3 
0.463 0.182 0.014 3 
0.464 0.174 0.014 3 
0.477 -0.335 0.014 3 
0.463 0.154 0.014 3 
0.465 0.132 0.014 3 
0.465 0.113 0.014 3 
0.464 0.102 0.015 3 
0.464 0.094 0.015 3 
0.464 0.07 0.015 3 
0.464 0.051 0.015 3 
0.464 0.043 0.015 3 
0.464 0.032 0.015 3 
0.469 -0.115 0.014 3 
0.469 -0.146 0.014 3 
0.47 -0.175 0.022 3 
0.467 -0.047 0.023 3 
0.468 -0.055 0.023 3 
0.468 -0.066 0.023 3 
0.468 -0.077 0.023 3 
0.469 -0.096 0.023 3 
0.469 -0.107 0.023 3 
0.47 -0.116 0.022 3 
0.469 -0.126 0.023 3 
0.469 -0.135 0.022 3 
0.47 -0.146 0.022 3 
0.471 -0.155 0.022 3 
0.47 -0.166 0.014 3 
0.471 -0.187 0.022 3 
0.471 -0.195 0.022 3 
0.464 0.155 0.019 3 
0.474 -0.288 0.018 3 
0.461 0.333 0.014 3 
0.463 0.324 0.014 3 
0.464 0.078 0.017 3 
0.464 0.062 0.018 3 
0.475 -0.264 0.015 3 
0.477 -0.308 0.014 3 
0.477 -0.328 0.014 3 
0.465 0.032 0.004 3 
0.465 -0.055 0.012 3 
0.466 -0.065 0.012 3 
0.467 -0.096 0.012 3 
0.467 -0.106 0.012 3 
0.475 -0.267 0.009 3 
0.465 0.102 0.009 3 
0.465 0.083 0.009 3 
0.465 0.073 0.009 3 
0.476 -0.307 0.003 3 
0.467 0.133 0.003 3 
0.465 0.073 0.004 3 
0.467 0.043 0.004 3 
0.465 -0.047 0.012 3 
0.464 0.03 0.004 3 
0.468 -0.015 0.004 3 
0.468 -0.026 0.004 3 
0.466 -0.047 0.004 3 
0.467 -0.055 0.004 3 
0.467 -0.066 0.004 3 
0.468 -0.077 0.004 3 
0.468 -0.085 0.004 3 
0.468 -0.096 0.004 3 
0.47 -0.105 0.003 3 
0.47 -0.116 0.003 3 
0.475 -0.293 0.012 3 
0.469 -0.177 0.014 3 
0.47 -0.186 0.014 3 
0.47 -0.195 0.014 3 
0.472 -0.217 0.013 3 
0.472 -0.226 0.013 3 
0.472 -0.235 0.013 3 
0.473 -0.245 0.013 3 
0.475 -0.258 0.012 3 
0.474 -0.26 0.013 3 
0.474 -0.276 0.012 3 
0.475 -0.28 0.012 3 
0.467 -0.036 0.023 3 
0.464 0.107 0.012 3 
0.464 0.094 0.012 3 
0.464 0.083 0.012 3 
0.464 0.072 0.012 3 
0.464 0.054 0.012 3 
0.465 0.051 0.012 3 
0.465 0.043 0.012 3 
0.464 0.04 0.012 3 
0.466 -0.015 0.012 3 
0.465 -0.025 0.012 3 
0.466 -0.036 0.012 3 
0.475 -0.273 0.032 3 
0.472 -0.147 0.033 3 
0.472 -0.156 0.033 3 
0.471 -0.175 0.033 3 
0.471 -0.187 0.033 3 
0.472 -0.196 0.033 3 
0.472 -0.205 0.033 3 
0.473 -0.217 0.033 3 
0.472 -0.226 0.033 3 
0.473 -0.235 0.033 3 
0.473 -0.247 0.033 3 
0.474 -0.257 0.032 3 
0.474 -0.267 0.032 3 
0.471 -0.136 0.033 3 
0.475 -0.276 0.032 3 
0.475 -0.286 0.032 3 
0.477 -0.297 0.032 3 
0.478 -0.308 0.032 3 
0.464 0.194 0.03 3 
0.464 0.203 0.027 3 
0.474 -0.279 0.027 3 
0.464 0.337 0.022 3 
0.463 0.332 0.022 3 
0.463 0.322 0.023 3 
0.474 -0.356 0.008 3 
0.468 0.003 0.033 3 
0.467 0.114 0.033 3 
0.467 0.103 0.033 3 
0.467 0.092 0.033 3 
0.466 0.073 0.033 3 
0.467 0.062 0.033 3 
0.467 0.054 0.033 3 
0.467 0.043 0.033 3 
0.467 0.033 0.033 3 
0.468 -0.085 0.023 3 
0.467 0.022 0.033 3 
0.467 0.014 0.033 3 
0.463 0.314 0.023 3 
0.468 -0.007 0.033 3 
0.468 -0.015 0.033 3 
0.468 -0.026 0.033 3 
0.468 -0.036 0.033 3 
0.468 -0.047 0.033 3 
0.468 -0.077 0.033 3 
0.47 -0.096 0.033 3 
0.47 -0.105 0.033 3 
0.471 -0.125 0.003 3 
0.471 -0.116 0.033 3 
0.47 -0.127 0.033 3 
0.466 0.103 0.022 3 
0.477 -0.356 0.022 3 
0.464 0.183 0.022 3 
0.464 0.174 0.022 3 
0.465 0.172 0.022 3 
0.465 0.163 0.022 3 
0.464 0.154 0.022 3 
0.465 0.152 0.022 3 
0.465 0.144 0.022 3 
0.464 0.141 0.022 3 
0.465 0.133 0.022 3 
0.466 0.122 0.022 3 
0.466 0.114 0.022 3 
0.479 -0.337 0.022 3 
0.466 0.094 0.022 3 
0.466 0.073 0.023 3 
0.465 0.064 0.023 3 
0.465 0.054 0.023 3 
0.466 0.032 0.023 3 
0.466 0.024 0.023 3 
0.467 0.014 0.023 3 
0.468 0.003 0.023 3 
0.467 -0.007 0.023 3 
0.467 -0.015 0.023 3 
0.467 -0.025 0.023 3 
0.465 0.183 0.024 3 
0.464 0.302 0.023 3 
0.465 0.284 0.023 3 
0.465 0.272 0.023 3 
0.464 0.262 0.024 3 
0.465 0.256 0.024 3 
0.464 0.25 0.024 3 
0.464 0.244 0.024 3 
0.464 0.232 0.024 3 
0.465 0.23 0.024 3 
0.464 0.203 0.024 3 
0.465 0.2 0.024 3 
0.468 0.073 0.063 3 
0.472 -0.208 0.024 3 
0.472 -0.217 0.024 3 
0.472 -0.226 0.024 3 
0.474 -0.258 0.024 3 
0.474 -0.266 0.024 3 
0.474 -0.275 0.024 3 
0.475 -0.28 0.024 3 
0.475 -0.286 0.024 3 
0.478 -0.305 0.023 3 
0.478 -0.315 0.023 3 
0.478 -0.325 0.023 3 
0.475 -0.249 0.104 3 
0.464 0.254 0.101 3 
0.464 0.323 0.08 3 
0.471 -0.147 0.102 3 
0.474 -0.177 0.103 3 
0.474 -0.186 0.103 3 
0.474 -0.197 0.103 3 
0.473 -0.205 0.103 3 
0.473 -0.217 0.103 3 
0.474 -0.227 0.103 3 
0.475 -0.234 0.103 3 
0.48 -0.337 0.043 3 
0.474 -0.245 0.103 3 
0.465 0.273 0.102 3 
0.474 -0.257 0.104 3 
0.474 -0.267 0.104 3 
0.476 -0.278 0.104 3 
0.477 -0.289 0.104 3 
0.477 -0.295 0.102 3 
0.479 -0.307 0.102 3 
0.48 -0.325 0.103 3 
0.48 -0.335 0.103 3 
0.48 -0.346 0.103 3 
0.48 -0.355 0.103 3 
0.468 0.062 0.044 3 
0.47 -0.127 0.104 3 
0.469 -0.055 0.104 3 
0.469 -0.066 0.104 3 
0.47 -0.077 0.104 3 
0.47 -0.086 0.104 3 
0.464 0.232 0.041 3 
0.471 -0.097 0.104 3 
0.471 -0.105 0.104 3 
0.473 -0.256 0.052 3 
0.468 -0.036 0.044 3 
0.471 -0.116 0.104 3 
0.466 0.272 0.063 3 
0.464 0.337 0.097 3 
0.47 -0.135 0.104 3 
0.472 -0.235 0.024 3 
0.474 -0.254 0.106 3 
0.474 -0.267 0.107 3 
0.466 0.343 0.103 3 
0.466 0.332 0.103 3 
0.466 0.322 0.103 3 
0.466 0.312 0.103 3 
0.466 0.302 0.102 3 
0.466 0.293 0.102 3 
0.466 0.283 0.102 3 
0.467 -0.007 0.093 3 
0.467 0.134 0.093 3 
0.467 0.123 0.093 3 
0.467 0.114 0.093 3 
0.467 0.103 0.093 3 
0.467 0.092 0.093 3 
0.467 0.084 0.093 3 
0.467 0.073 0.093 3 
0.466 0.062 0.092 3 
0.466 0.054 0.092 3 
0.467 0.043 0.092 3 
0.467 0.033 0.092 3 
0.467 0.022 0.092 3 
0.467 0.142 0.093 3 
0.467 -0.015 0.093 3 
0.468 -0.025 0.093 3 
0.469 -0.036 0.093 3 
0.47 -0.047 0.093 3 
0.469 -0.055 0.093 3 
0.469 -0.066 0.093 3 
0.47 -0.077 0.093 3 
0.47 -0.086 0.093 3 
0.47 -0.097 0.093 3 
0.47 -0.105 0.093 3 
0.47 -0.116 0.093 3 
0.465 0.248 0.093 3 
0.464 0.333 0.097 3 
0.465 0.334 0.094 3 
0.466 0.322 0.094 3 
0.466 0.312 0.094 3 
0.466 0.302 0.094 3 
0.466 0.293 0.094 3 
0.466 0.283 0.094 3 
0.465 0.043 0.023 3 
0.465 0.264 0.093 3 
0.467 0.103 0.074 3 
0.464 0.254 0.093 3 
0.469 -0.047 0.104 3 
0.468 0.044 0.063 3 
0.466 0.242 0.093 3 
0.466 0.233 0.093 3 
0.466 0.224 0.093 3 
0.467 0.213 0.093 3 
0.466 0.201 0.093 3 
0.466 0.192 0.093 3 
0.465 0.183 0.093 3 
0.466 0.173 0.093 3 
0.466 0.164 0.093 3 
0.467 0.153 0.093 3 
0.472 -0.106 0.113 3 
0.467 0.173 0.112 3 
0.479 -0.326 0.064 3 
0.466 0.164 0.112 3 
0.467 0.142 0.112 3 
0.469 -0.036 0.112 3 
0.469 -0.047 0.112 3 
0.469 -0.055 0.112 3 
0.47 -0.066 0.112 3 
0.47 -0.075 0.112 3 
0.47 -0.086 0.112 3 
0.468 -0.066 0.033 3 
0.471 -0.097 0.113 3 
0.467 0.182 0.112 3 
0.472 -0.117 0.113 3 
0.472 -0.125 0.113 3 
0.471 -0.136 0.113 3 
0.474 -0.186 0.114 3 
0.471 -0.147 0.113 3 
0.472 -0.156 0.113 3 
0.473 -0.165 0.113 3 
0.473 -0.176 0.114 3 
0.474 -0.197 0.114 3 
0.474 -0.206 0.114 3 
0.474 -0.215 0.114 3 
0.466 0.283 0.113 3 
0.467 0.003 0.114 3 
0.468 -0.007 0.114 3 
0.468 -0.015 0.114 3 
0.469 -0.025 0.114 3 
0.474 -0.227 0.117 3 
0.466 0.333 0.114 3 
0.467 0.323 0.114 3 
0.467 0.313 0.114 3 
0.467 0.304 0.114 3 
0.467 0.294 0.114 3 
0.464 0.032 0.012 3 
0.474 -0.227 0.114 3 
0.465 0.273 0.113 3 
0.466 0.252 0.113 3 
0.465 0.294 0.043 3 
0.466 0.243 0.113 3 
0.465 0.234 0.113 3 
0.466 0.222 0.112 3 
0.464 0.323 0.042 3 
0.467 0.214 0.112 3 
0.466 0.201 0.112 3 
0.466 0.153 0.112 3 
0.466 0.193 0.112 3 
0.466 0.103 0.103 3 
0.467 0.202 0.104 3 
0.467 0.193 0.104 3 
0.466 0.184 0.104 3 
0.466 0.173 0.104 3 
0.48 -0.345 0.022 3 
0.466 0.164 0.104 3 
0.467 0.153 0.104 3 
0.468 0.143 0.104 3 
0.468 0.134 0.104 3 
0.468 0.123 0.104 3 
0.467 0.114 0.104 3 
0.468 0.043 0.044 3 
0.466 0.213 0.104 3 
0.467 0.093 0.103 3 
0.466 0.084 0.103 3 
0.466 0.073 0.103 3 
0.467 0.063 0.103 3 
0.471 -0.097 0.082 3 
0.466 0.054 0.103 3 
0.467 0.033 0.103 3 
0.467 0.014 0.103 3 
0.467 -0.007 0.103 3 
0.468 -0.015 0.103 3 
0.469 -0.025 0.104 3 
0.479 -0.327 0.114 3 
0.466 0.343 0.112 3 
0.475 -0.231 0.112 3 
0.475 -0.237 0.112 3 
0.475 -0.255 0.112 3 
0.465 0.291 0.023 3 
0.476 -0.266 0.113 3 
0.476 -0.275 0.113 3 
0.477 -0.286 0.113 3 
0.479 -0.297 0.114 3 
0.479 -0.307 0.114 3 
0.479 -0.317 0.114 3 
0.47 -0.127 0.093 3 
0.474 -0.245 0.084 3 
0.473 -0.356 0.114 3 
0.474 -0.258 0.109 3 
0.48 -0.335 0.112 3 
0.481 -0.347 0.112 3 
0.473 -0.248 0.024 3 
0.479 -0.356 0.112 3 
0.465 0.251 0.104 3 
0.465 0.242 0.104 3 
0.466 0.234 0.104 3 
0.466 0.222 0.104 3 
0.468 -0.015 0.074 3 
0.467 0.134 0.074 3 
0.468 0.123 0.074 3 
0.467 0.112 0.074 3 
0.467 0.092 0.074 3 
0.467 0.084 0.074 3 
0.467 0.073 0.074 3 
0.467 0.062 0.074 3 
0.468 0.033 0.074 3 
0.467 0.022 0.074 3 
0.467 0.014 0.074 3 
0.467 0.003 0.074 3 
0.467 -0.007 0.074 3 
0.466 0.144 0.074 3 
0.469 -0.026 0.074 3 
0.468 -0.036 0.074 3 
0.47 -0.055 0.074 3 
0.471 -0.086 0.074 3 
0.471 -0.097 0.074 3 
0.471 -0.105 0.074 3 
0.47 -0.116 0.074 3 
0.471 -0.127 0.074 3 
0.471 -0.135 0.074 3 
0.472 -0.161 0.074 3 
0.472 -0.167 0.074 3 
0.465 0.262 0.074 3 
0.481 -0.345 0.082 3 
0.48 -0.355 0.082 3 
0.465 0.341 0.074 3 
0.473 -0.235 0.072 3 
0.463 0.335 0.074 3 
0.462 0.331 0.074 3 
0.464 0.323 0.074 3 
0.465 0.317 0.074 3 
0.466 0.302 0.074 3 
0.465 0.282 0.074 3 
0.465 0.273 0.074 3 
0.465 0.327 0.071 3 
0.466 0.242 0.074 3 
0.466 0.233 0.074 3 
0.466 0.224 0.074 3 
0.466 0.213 0.074 3 
0.465 0.032 0.007 3 
0.466 0.204 0.074 3 
0.465 0.192 0.074 3 
0.466 0.184 0.074 3 
0.466 0.172 0.074 3 
0.466 0.164 0.074 3 
0.466 0.153 0.074 3 
0.465 0.253 0.024 3 
0.466 0.322 0.062 3 
0.465 0.314 0.062 3 
0.464 0.31 0.062 3 
0.464 0.303 0.062 3 
0.465 0.301 0.063 3 
0.464 0.064 0.012 3 
0.465 0.282 0.063 3 
0.464 0.278 0.063 3 
0.465 0.224 0.024 3 
0.465 0.253 0.063 3 
0.468 0.003 0.052 3 
0.465 0.244 0.063 3 
0.465 0.331 0.062 3 
0.465 0.062 0.012 3 
0.466 0.224 0.063 3 
0.466 0.213 0.063 3 
0.466 0.204 0.063 3 
0.465 0.183 0.063 3 
0.465 0.172 0.063 3 
0.465 0.163 0.063 3 
0.467 0.142 0.063 3 
0.467 0.134 0.063 3 
0.467 0.103 0.063 3 
0.467 0.092 0.063 3 
0.475 -0.286 0.072 3 
0.472 -0.187 0.072 3 
0.472 -0.196 0.072 3 
0.473 -0.205 0.072 3 
0.467 0.084 0.033 3 
0.473 -0.217 0.072 3 
0.467 0.123 0.052 3 
0.473 -0.226 0.072 3 
0.474 -0.245 0.072 3 
0.474 -0.267 0.072 3 
0.474 -0.276 0.072 3 
0.475 -0.283 0.072 3 
0.48 -0.337 0.082 3 
0.477 -0.298 0.073 3 
0.477 -0.305 0.073 3 
0.477 -0.315 0.073 3 
0.478 -0.325 0.073 3 
0.48 -0.337 0.073 3 
0.481 -0.345 0.073 3 
0.48 -0.355 0.073 3 
0.475 -0.234 0.066 3 
0.475 -0.237 0.067 3 
0.469 -0.085 0.033 3 
0.475 -0.246 0.067 3 
0.467 0.112 0.084 3 
0.481 -0.346 0.094 3 
0.478 -0.357 0.094 3 
0.464 0.337 0.088 3 
0.464 0.333 0.088 3 
0.464 0.256 0.088 3 
0.464 0.323 0.085 3 
0.465 0.189 0.084 3 
0.465 0.183 0.084 3 
0.465 0.172 0.084 3 
0.472 -0.187 0.083 3 
0.466 0.153 0.084 3 
0.466 0.144 0.084 3 
0.48 -0.335 0.094 3 
0.467 0.103 0.084 3 
0.465 0.135 0.011 3 
0.467 0.092 0.084 3 
0.467 0.084 0.084 3 
0.462 0.338 0.014 3 
0.466 0.073 0.084 3 
0.469 -0.047 0.074 3 
0.466 0.062 0.084 3 
0.468 0.054 0.084 3 
0.468 0.044 0.084 3 
0.467 0.033 0.084 3 
0.474 -0.236 0.092 3 
0.464 0.194 0.024 3 
0.47 -0.135 0.093 3 
0.472 -0.156 0.094 3 
0.472 -0.167 0.094 3 
0.473 -0.176 0.094 3 
0.474 -0.197 0.094 3 
0.474 -0.206 0.094 3 
0.473 -0.217 0.094 3 
0.474 -0.236 0.095 3 
0.469 0.346 0.092 3 
0.474 -0.227 0.092 3 
0.467 0.022 0.084 3 
0.474 -0.257 0.092 3 
0.464 0.313 0.054 3 
0.474 -0.267 0.092 3 
0.475 -0.274 0.092 3 
0.471 -0.127 0.044 3 
0.475 -0.277 0.092 3 
0.464 0.293 0.023 3 
0.477 -0.298 0.093 3 
0.479 -0.307 0.093 3 
0.48 -0.318 0.094 3 
0.48 -0.325 0.094 3 
0.473 -0.226 0.083 3 
0.469 -0.055 0.082 3 
0.469 -0.066 0.082 3 
0.47 -0.077 0.082 3 
0.47 -0.086 0.082 3 
0.471 -0.105 0.082 3 
0.47 -0.116 0.082 3 
0.469 -0.127 0.082 3 
0.473 -0.156 0.083 3 
0.472 -0.167 0.083 3 
0.472 -0.176 0.083 3 
0.473 -0.197 0.083 3 
0.473 -0.217 0.083 3 
0.469 -0.047 0.082 3 
0.473 -0.235 0.083 3 
0.473 -0.256 0.084 3 
0.473 -0.266 0.084 3 
0.463 0.143 0.014 3 
0.475 -0.277 0.084 3 
0.476 -0.287 0.084 3 
0.477 -0.295 0.084 3 
0.478 -0.306 0.084 3 
0.466 0.292 0.074 3 
0.477 -0.315 0.084 3 
0.475 -0.274 0.081 3 
0.465 0.263 0.082 3 
0.467 0.014 0.084 3 
0.467 0.003 0.084 3 
0.466 0.342 0.083 3 
0.463 0.335 0.082 3 
0.462 0.331 0.082 3 
0.465 0.327 0.083 3 
0.465 0.324 0.083 3 
0.466 0.312 0.083 3 
0.466 0.302 0.082 3 
0.465 0.291 0.082 3 
0.466 0.274 0.082 3 
0.467 0.014 0.114 3 
0.464 0.256 0.082 3 
0.466 0.242 0.082 3 
0.467 0.062 0.063 3 
0.466 0.233 0.082 3 
0.466 0.224 0.082 3 
0.464 0.274 0.023 3 
0.466 0.213 0.082 3 
0.467 0.134 0.082 3 
0.468 0.123 0.082 3 
0.468 -0.025 0.082 3 
0.468 -0.036 0.082 3 
