# .PCD v0.7 - Point Cloud Data file
FIELDS x y z intensity
SIZE 4 4 4 4
TYPE F F F F
COUNT 1 1 1 1
WIDTH 2464
HEIGHT 1
VIEWPOINT 0 0 0 1 0 0 0
POINTS 2464
DATA ascii
0.386 0.002 0.004 0 
0.386 -0.015 0.004 0 
0.386 -0.005 0.004 0 
0.366 -0.157 -0.019 1 
0.365 -0.152 -0.019 1 
0.358 -0.135 -0.016 1 
0.356 -0.128 -0.015 1 
0.349 -0.096 -0.011 1 
0.346 -0.086 -0.01 1 
0.345 -0.077 -0.009 1 
0.355 -0.071 -0.013 1 
0.364 -0.015 -0.016 1 
0.362 0.003 -0.016 1 
0.35 0.053 -0.011 1 
0.345 0.07 -0.01 1 
0.342 0.073 -0.009 1 
0.343 0.084 -0.009 1 
0.344 0.094 -0.01 1 
0.343 0.104 -0.01 1 
0.344 0.113 -0.011 1 
0.344 0.127 -0.011 1 
0.344 0.166 -0.013 1 
0.375 -0.203 -0.022 1 
0.354 -0.159 -0.013 1 
0.355 -0.157 -0.013 1 
0.353 -0.145 -0.012 1 
0.354 -0.14 -0.012 1 
0.356 -0.136 -0.013 1 
0.355 -0.115 -0.012 1 
0.355 -0.106 -0.012 1 
0.358 -0.095 -0.013 1 
0.364 0.039 -0.015 1 
0.36 0.044 -0.013 1 
0.36 0.054 -0.013 1 
0.352 0.104 -0.012 1 
0.349 0.109 -0.011 1 
0.345 0.124 -0.01 1 
0.348 0.133 -0.011 1 
0.349 0.143 -0.012 1 
0.344 0.162 -0.011 1 
0.398 -0.255 -0.03 1 
0.377 -0.217 -0.021 1 
0.374 -0.197 -0.02 1 
0.372 -0.186 -0.019 1 
0.374 -0.182 -0.019 1 
0.382 -0.176 -0.021 1 
0.379 -0.165 -0.02 1 
0.382 -0.148 -0.021 1 
0.374 -0.128 -0.017 1 
0.374 -0.083 -0.016 1 
0.372 -0.066 -0.015 1 
0.37 -0.06 -0.015 1 
0.369 -0.052 -0.014 1 
0.373 -0.045 -0.016 1 
0.374 -0.038 -0.016 1 
0.373 -0.025 -0.016 1 
0.37 -0.008 -0.015 1 
0.372 0.004 -0.016 1 
0.372 0.024 -0.016 1 
0.368 0.058 -0.015 1 
0.364 0.063 -0.013 1 
0.364 0.084 -0.014 1 
0.364 0.094 -0.014 1 
0.363 0.104 -0.014 1 
0.357 0.112 -0.012 1 
0.36 0.153 -0.014 1 
0.358 0.164 -0.014 1 
0.356 0.167 -0.014 1 
0.353 0.174 -0.013 1 
0.352 0.212 -0.015 1 
0.396 -0.266 -0.028 1 
0.396 -0.239 -0.026 1 
0.399 -0.23 -0.027 1 
0.389 -0.186 -0.022 1 
0.384 -0.126 -0.019 1 
0.384 -0.116 -0.019 1 
0.374 -0.099 -0.015 1 
0.374 -0.091 -0.015 1 
0.374 -0.066 -0.014 1 
0.374 -0.063 -0.014 1 
0.375 -0.022 -0.015 1 
0.371 0.044 -0.014 1 
0.372 0.054 -0.014 1 
0.369 0.064 -0.013 1 
0.37 0.074 -0.014 1 
0.371 0.103 -0.015 1 
0.369 0.131 -0.015 1 
0.368 0.203 -0.017 1 
0.358 0.212 -0.015 1 
0.355 0.218 -0.014 1 
0.426 -0.279 -0.035 1 
0.419 -0.258 -0.032 1 
0.408 -0.238 -0.028 1 
0.404 -0.219 -0.026 1 
0.401 -0.205 -0.025 1 
0.392 -0.175 -0.021 1 
0.393 -0.166 -0.021 1 
0.392 -0.157 -0.02 1 
0.39 -0.145 -0.019 1 
0.387 -0.126 -0.018 1 
0.382 -0.095 -0.015 1 
0.38 -0.074 -0.015 1 
0.377 -0.065 -0.013 1 
0.38 -0.062 -0.014 1 
0.384 -0.06 -0.016 1 
0.384 -0.05 -0.016 1 
0.383 -0.036 -0.015 1 
0.38 -0.026 -0.014 1 
0.373 -0.005 -0.012 1 
0.374 0 -0.012 1 
0.381 0.014 -0.015 1 
0.38 0.023 -0.015 1 
0.379 0.034 -0.014 1 
0.376 0.043 -0.013 1 
0.375 0.079 -0.014 1 
0.374 0.083 -0.013 1 
0.374 0.089 -0.013 1 
0.378 0.106 -0.015 1 
0.373 0.113 -0.014 1 
0.374 0.124 -0.014 1 
0.369 0.144 -0.013 1 
0.372 0.174 -0.015 1 
0.371 0.184 -0.016 1 
0.374 0.213 -0.018 1 
0.372 0.223 -0.018 1 
0.372 0.237 -0.019 1 
0.427 -0.305 -0.035 1 
0.432 -0.295 -0.035 1 
0.426 -0.265 -0.032 1 
0.413 -0.228 -0.027 1 
0.408 -0.206 -0.025 1 
0.403 -0.185 -0.022 1 
0.403 -0.176 -0.022 1 
0.401 -0.167 -0.021 1 
0.396 -0.155 -0.019 1 
0.398 -0.145 -0.02 1 
0.394 -0.115 -0.018 1 
0.391 -0.105 -0.017 1 
0.394 -0.085 -0.017 1 
0.386 -0.068 -0.014 1 
0.388 -0.065 -0.015 1 
0.391 -0.055 -0.016 1 
0.39 -0.051 -0.016 1 
0.386 -0.048 -0.014 1 
0.384 -0.042 -0.014 1 
0.385 -0.04 -0.014 1 
0.393 -0.035 -0.017 1 
0.389 -0.027 -0.015 1 
0.38 -0.016 -0.013 1 
0.386 0.042 -0.015 1 
0.385 0.043 -0.014 1 
0.386 0.054 -0.015 1 
0.383 0.063 -0.014 1 
0.388 0.074 -0.016 1 
0.384 0.093 -0.015 1 
0.384 0.097 -0.015 1 
0.381 0.128 -0.015 1 
0.38 0.138 -0.015 1 
0.376 0.151 -0.014 1 
0.378 0.155 -0.014 1 
0.382 0.16 -0.016 1 
0.38 0.174 -0.016 1 
0.376 0.222 -0.017 1 
0.374 0.154 -0.015 1 
0.376 0.234 -0.017 1 
0.432 -0.31 -0.034 1 
0.439 -0.315 -0.036 1 
0.433 -0.278 -0.032 1 
0.435 -0.277 -0.033 1 
0.431 -0.255 -0.031 1 
0.422 -0.236 -0.027 1 
0.418 -0.227 -0.026 1 
0.415 -0.216 -0.024 1 
0.411 -0.196 -0.023 1 
0.414 -0.189 -0.024 1 
0.411 -0.179 -0.022 1 
0.408 -0.156 -0.021 1 
0.404 -0.144 -0.019 1 
0.402 -0.125 -0.018 1 
0.404 -0.117 -0.019 1 
0.407 -0.117 -0.02 1 
0.401 -0.107 -0.018 1 
0.399 -0.096 -0.017 1 
0.403 -0.089 -0.018 1 
0.392 -0.025 -0.014 1 
0.394 0.012 -0.015 1 
0.394 0.093 -0.016 1 
0.393 0.103 -0.016 1 
0.392 0.113 -0.016 1 
0.388 0.132 -0.015 1 
0.39 0.144 -0.016 1 
0.394 0.164 -0.018 1 
0.389 0.172 -0.017 1 
0.383 0.194 -0.016 1 
0.39 0.224 -0.019 1 
0.385 0.244 -0.019 1 
0.384 0.245 -0.018 1 
0.45 -0.318 -0.036 1 
0.446 -0.285 -0.034 1 
0.428 -0.247 -0.027 1 
0.429 -0.237 -0.027 1 
0.424 -0.214 -0.025 1 
0.419 -0.205 -0.023 1 
0.419 -0.195 -0.023 1 
0.422 -0.185 -0.024 1 
0.418 -0.165 -0.022 1 
0.414 -0.146 -0.02 1 
0.35 0.193 -0.015 1 
0.411 -0.135 -0.019 1 
0.413 -0.126 -0.02 1 
0.404 -0.065 -0.016 1 
0.404 -0.059 -0.016 1 
0.405 -0.055 -0.016 1 
0.403 -0.046 -0.016 1 
0.403 -0.041 -0.016 1 
0.402 -0.02 -0.015 1 
0.403 0.013 -0.016 1 
0.404 0.015 -0.016 1 
0.402 0.034 -0.016 1 
0.401 0.042 -0.015 1 
0.403 0.049 -0.016 1 
0.401 0.074 -0.016 1 
0.399 0.104 -0.016 1 
0.399 0.112 -0.016 1 
0.404 0.124 -0.018 1 
0.398 0.184 -0.018 1 
0.395 0.186 -0.017 1 
0.388 0.194 -0.015 1 
0.391 0.201 -0.016 1 
0.4 0.219 -0.02 1 
0.402 0.231 -0.021 1 
0.396 0.243 -0.019 1 
0.392 0.254 -0.019 1 
0.396 0.264 -0.021 1 
0.45 -0.328 -0.034 1 
0.452 -0.327 -0.035 1 
0.459 -0.292 -0.035 1 
0.448 -0.269 -0.031 1 
0.442 -0.26 -0.029 1 
0.429 -0.215 -0.024 1 
0.421 -0.145 -0.02 1 
0.394 0.206 -0.017 1 
0.424 -0.127 -0.021 1 
0.414 -0.102 -0.017 1 
0.416 -0.096 -0.018 1 
0.414 -0.086 -0.017 1 
0.413 -0.076 -0.017 1 
0.411 -0.045 -0.016 1 
0.414 -0.039 -0.017 1 
0.414 -0.025 -0.017 1 
0.411 -0.021 -0.016 1 
0.383 -0.001 -0.008 1 
0.461 -0.316 -0.037 1 
0.403 0.004 -0.014 1 
0.404 0.006 -0.014 1 
0.407 0.013 -0.015 1 
0.413 0.024 -0.017 1 
0.411 0.033 -0.016 1 
0.391 -0.199 -0.023 1 
0.41 0.064 -0.016 1 
0.411 0.073 -0.017 1 
0.408 0.083 -0.016 1 
0.409 0.092 -0.016 1 
0.41 0.104 -0.017 1 
0.408 0.114 -0.016 1 
0.351 0.203 -0.016 1 
0.401 0.144 -0.015 1 
0.404 0.153 -0.016 1 
0.404 0.164 -0.016 1 
0.404 0.17 -0.017 1 
0.41 0.244 -0.021 1 
0.468 -0.352 -0.037 1 
0.46 -0.336 -0.034 1 
0.464 -0.326 -0.035 1 
0.467 -0.316 -0.035 1 
0.469 -0.305 -0.035 1 
0.457 -0.286 -0.031 1 
0.44 -0.235 -0.025 1 
0.439 -0.232 -0.025 1 
0.435 -0.217 -0.023 1 
0.431 -0.196 -0.022 1 
0.427 -0.166 -0.02 1 
0.399 -0.25 -0.028 1 
0.428 -0.156 -0.02 1 
0.429 -0.147 -0.02 1 
0.434 -0.125 -0.021 1 
0.434 -0.115 -0.021 1 
0.427 -0.107 -0.019 1 
0.426 -0.095 -0.018 1 
0.424 -0.087 -0.018 1 
0.425 -0.085 -0.018 1 
0.42 -0.047 -0.016 1 
0.424 -0.036 -0.017 1 
0.422 -0.026 -0.017 1 
0.405 0.004 -0.012 1 
0.371 0.033 -0.015 1 
0.413 0.011 -0.014 1 
0.419 0.034 -0.016 1 
0.415 0.04 -0.015 1 
0.414 0.042 -0.015 1 
0.414 0.047 -0.015 1 
0.417 0.054 -0.016 1 
0.423 0.074 -0.018 1 
0.418 0.084 -0.017 1 
0.42 0.094 -0.017 1 
0.418 0.103 -0.017 1 
0.416 0.113 -0.016 1 
0.419 0.124 -0.017 1 
0.419 0.134 -0.018 1 
0.414 0.152 -0.017 1 
0.41 0.174 -0.016 1 
0.411 0.184 -0.017 1 
0.413 0.203 -0.018 1 
0.41 0.213 -0.018 1 
0.409 0.22 -0.018 1 
0.412 0.225 -0.019 1 
0.41 0.263 -0.02 1 
0.412 0.271 -0.021 1 
0.48 -0.355 -0.037 1 
0.478 -0.338 -0.036 1 
0.476 -0.329 -0.035 1 
0.47 -0.296 -0.032 1 
0.459 -0.267 -0.028 1 
0.447 -0.238 -0.024 1 
0.449 -0.237 -0.025 1 
0.446 -0.226 -0.024 1 
0.442 -0.196 -0.022 1 
0.442 -0.186 -0.022 1 
0.439 -0.145 -0.02 1 
0.439 -0.137 -0.02 1 
0.438 -0.106 -0.02 1 
0.44 -0.095 -0.02 1 
0.433 -0.073 -0.018 1 
0.434 -0.049 -0.018 1 
0.389 -0.015 -0.005 1 
0.433 -0.035 -0.018 1 
0.386 -0.005 -0.005 1 
0.389 0.233 -0.019 1 
0.391 0.002 -0.006 1 
0.423 0.014 -0.015 1 
0.426 0.042 -0.016 1 
0.436 0.053 -0.019 1 
0.432 0.062 -0.018 1 
0.43 0.074 -0.018 1 
0.43 0.093 -0.018 1 
0.43 0.103 -0.018 1 
0.428 0.124 -0.018 1 
0.432 0.133 -0.019 1 
0.426 0.142 -0.017 1 
0.424 0.143 -0.017 1 
0.423 0.153 -0.017 1 
0.416 0.173 -0.016 1 
0.388 0.117 -0.015 1 
0.419 0.18 -0.017 1 
0.385 0.047 -0.014 1 
0.423 0.214 -0.019 1 
0.42 0.224 -0.018 1 
0.418 0.225 -0.018 1 
0.423 0.243 -0.02 1 
0.423 0.254 -0.02 1 
0.417 0.262 -0.019 1 
0.422 0.284 -0.021 1 
0.422 0.29 -0.022 1 
0.425 0.297 -0.023 1 
0.482 -0.349 -0.035 1 
0.468 -0.278 -0.028 1 
0.471 -0.271 -0.029 1 
0.46 -0.255 -0.026 1 
0.462 -0.227 -0.025 1 
0.46 -0.217 -0.025 1 
0.415 -0.075 -0.017 1 
0.453 -0.196 -0.023 1 
0.403 -0.018 -0.014 1 
0.454 -0.188 -0.023 1 
0.451 -0.175 -0.022 1 
0.448 -0.168 -0.021 1 
0.45 -0.145 -0.021 1 
0.445 -0.135 -0.019 1 
0.444 -0.129 -0.019 1 
0.442 -0.085 -0.018 1 
0.444 -0.081 -0.018 1 
0.444 -0.066 -0.018 1 
0.442 -0.056 -0.018 1 
0.418 -0.019 -0.011 1 
0.373 0.194 -0.017 1 
0.434 0.005 -0.016 1 
0.436 0.012 -0.016 1 
0.444 0.043 -0.019 1 
0.441 0.064 -0.018 1 
0.439 0.074 -0.018 1 
0.436 0.112 -0.017 1 
0.44 0.124 -0.019 1 
0.439 0.134 -0.018 1 
0.434 0.154 -0.017 1 
0.434 0.162 -0.018 1 
0.433 0.172 -0.018 1 
0.431 0.194 -0.018 1 
0.433 0.214 -0.019 1 
0.429 0.251 -0.019 1 
0.43 0.269 -0.02 1 
0.484 -0.348 -0.032 1 
0.482 -0.335 -0.031 1 
0.484 -0.326 -0.031 1 
0.483 -0.315 -0.03 1 
0.483 -0.305 -0.03 1 
0.476 -0.263 -0.027 1 
0.351 0.209 -0.014 1 
0.473 -0.245 -0.026 1 
0.47 -0.218 -0.024 1 
0.46 -0.195 -0.022 1 
0.457 -0.168 -0.02 1 
0.375 0.241 -0.018 1 
0.454 -0.158 -0.019 1 
0.458 -0.147 -0.02 1 
0.458 -0.138 -0.02 1 
0.452 -0.076 -0.018 1 
0.346 0.183 -0.015 1 
0.45 -0.047 -0.017 1 
0.364 0.143 -0.013 1 
0.444 -0.036 -0.016 1 
0.439 -0.028 -0.014 1 
0.439 -0.026 -0.015 1 
0.441 0.022 -0.015 1 
0.443 0.032 -0.016 1 
0.444 0.083 -0.017 1 
0.444 0.09 -0.017 1 
0.442 0.153 -0.017 1 
0.44 0.174 -0.017 1 
0.438 0.183 -0.017 1 
0.441 0.204 -0.018 1 
0.441 0.212 -0.018 1 
0.443 0.222 -0.019 1 
0.437 0.233 -0.018 1 
0.436 0.244 -0.018 1 
0.435 0.254 -0.018 1 
0.44 0.273 -0.02 1 
0.439 0.284 -0.02 1 
0.439 0.294 -0.021 1 
0.44 0.314 -0.022 1 
0.489 -0.346 -0.03 1 
0.448 -0.275 -0.031 1 
0.483 -0.298 -0.027 1 
0.483 -0.288 -0.027 1 
0.422 -0.177 -0.023 1 
0.483 -0.275 -0.026 1 
0.479 -0.265 -0.025 1 
0.472 -0.235 -0.023 1 
0.4 0.093 -0.016 1 
0.473 -0.23 -0.023 1 
0.47 -0.196 -0.021 1 
0.464 -0.155 -0.019 1 
0.459 -0.125 -0.018 1 
0.459 -0.115 -0.018 1 
0.384 -0.046 -0.014 1 
0.453 -0.097 -0.016 1 
0.37 -0.166 -0.021 1 
0.457 -0.085 -0.017 1 
0.42 -0.156 -0.02 1 
0.453 -0.065 -0.016 1 
0.454 -0.055 -0.016 1 
0.453 -0.035 -0.016 1 
0.448 -0.027 -0.015 1 
0.448 -0.217 -0.024 1 
0.445 -0.024 -0.014 1 
0.434 -0.02 -0.011 1 
0.444 0.008 -0.014 1 
0.451 0.033 -0.015 1 
0.452 0.044 -0.016 1 
0.451 0.074 -0.016 1 
0.45 0.084 -0.016 1 
0.452 0.093 -0.016 1 
0.384 0.049 -0.014 1 
0.451 0.103 -0.016 1 
0.452 0.132 -0.017 1 
0.45 0.152 -0.017 1 
0.449 0.174 -0.017 1 
0.449 0.204 -0.018 1 
0.451 0.211 -0.018 1 
0.451 0.234 -0.019 1 
0.445 0.252 -0.018 1 
0.443 0.259 -0.018 1 
0.446 0.264 -0.019 1 
0.451 0.272 -0.02 1 
0.451 0.284 -0.021 1 
0.453 0.293 -0.021 1 
0.452 0.311 -0.022 1 
0.493 -0.325 -0.027 1 
0.492 -0.317 -0.027 1 
0.488 -0.289 -0.025 1 
0.482 -0.268 -0.023 1 
0.398 0.134 -0.016 1 
0.478 -0.258 -0.022 1 
0.48 -0.235 -0.022 1 
0.481 -0.226 -0.022 1 
0.48 -0.216 -0.021 1 
0.484 -0.202 -0.022 1 
0.472 -0.185 -0.019 1 
0.473 -0.177 -0.019 1 
0.475 -0.161 -0.019 1 
0.474 -0.146 -0.019 1 
0.473 -0.137 -0.019 1 
0.469 -0.239 -0.025 1 
0.47 -0.127 -0.018 1 
0.374 0.024 -0.014 1 
0.466 -0.109 -0.017 1 
0.464 -0.106 -0.016 1 
0.462 -0.1 -0.016 1 
0.476 -0.099 -0.019 1 
0.471 -0.086 -0.018 1 
0.465 -0.074 -0.016 1 
0.461 -0.067 -0.015 1 
0.461 -0.057 -0.015 1 
0.466 -0.047 -0.016 1 
0.464 -0.036 -0.016 1 
0.467 -0.028 -0.016 1 
0.463 -0.025 -0.016 1 
0.454 0.016 -0.014 1 
0.456 0.024 -0.014 1 
0.457 0.034 -0.014 1 
0.459 0.042 -0.015 1 
0.459 0.053 -0.015 1 
0.46 0.074 -0.015 1 
0.462 0.104 -0.016 1 
0.46 0.114 -0.016 1 
0.459 0.122 -0.016 1 
0.461 0.131 -0.016 1 
0.463 0.143 -0.017 1 
0.458 0.154 -0.016 1 
0.429 -0.135 -0.02 1 
0.456 0.173 -0.016 1 
0.345 0.194 -0.011 1 
0.456 0.184 -0.016 1 
0.454 0.191 -0.016 1 
0.457 0.213 -0.017 1 
0.459 0.234 -0.018 1 
0.457 0.242 -0.018 1 
0.408 0.123 -0.017 1 
0.461 0.263 -0.02 1 
0.345 0.151 -0.011 1 
0.459 0.273 -0.019 1 
0.46 0.284 -0.02 1 
0.46 0.293 -0.02 1 
0.457 0.303 -0.02 1 
0.459 0.311 -0.021 1 
0.443 -0.176 -0.022 1 
0.46 0.333 -0.022 1 
0.46 0.336 -0.022 1 
0.472 -0.256 -0.023 1 
0.502 -0.316 -0.026 1 
0.502 -0.312 -0.026 1 
0.496 -0.303 -0.024 1 
0.494 -0.288 -0.023 1 
0.49 -0.255 -0.021 1 
0.452 0.124 -0.017 1 
0.49 -0.245 -0.021 1 
0.489 -0.235 -0.021 1 
0.488 -0.228 -0.02 1 
0.384 0.065 -0.014 1 
0.489 -0.205 -0.02 1 
0.485 -0.19 -0.019 1 
0.484 -0.186 -0.019 1 
0.484 -0.174 -0.019 1 
0.492 -0.167 -0.021 1 
0.494 -0.162 -0.021 1 
0.479 -0.145 -0.017 1 
0.48 -0.137 -0.017 1 
0.482 -0.126 -0.018 1 
0.483 -0.121 -0.018 1 
0.487 -0.105 -0.019 1 
0.486 -0.096 -0.019 1 
0.39 -0.096 -0.016 1 
0.485 -0.093 -0.018 1 
0.484 -0.087 -0.018 1 
0.48 -0.077 -0.017 1 
0.479 -0.066 -0.017 1 
0.48 -0.055 -0.017 1 
0.48 -0.046 -0.017 1 
0.479 -0.035 -0.017 1 
0.483 -0.027 -0.018 1 
0.353 -0.072 -0.012 1 
0.47 -0.023 -0.015 1 
0.473 0.011 -0.015 1 
0.476 0.022 -0.016 1 
0.475 0.033 -0.016 1 
0.475 0.036 -0.016 1 
0.472 0.052 -0.015 1 
0.472 0.063 -0.015 1 
0.474 0.072 -0.016 1 
0.473 0.083 -0.016 1 
0.471 0.093 -0.016 1 
0.472 0.113 -0.016 1 
0.47 0.124 -0.016 1 
0.473 0.131 -0.016 1 
0.472 0.144 -0.016 1 
0.468 0.154 -0.016 1 
0.467 0.164 -0.016 1 
0.465 0.184 -0.016 1 
0.464 0.194 -0.016 1 
0.462 0.199 -0.015 1 
0.465 0.204 -0.016 1 
0.464 0.215 -0.016 1 
0.469 0.23 -0.018 1 
0.377 0.094 -0.014 1 
0.464 0.25 -0.017 1 
0.383 -0.028 -0.015 1 
0.415 -0.019 -0.015 1 
0.465 0.254 -0.017 1 
0.465 0.263 -0.018 1 
0.468 0.272 -0.019 1 
0.471 0.284 -0.02 1 
0.471 0.294 -0.02 1 
0.474 0.304 -0.021 1 
0.471 0.324 -0.021 1 
0.489 -0.277 -0.022 1 
0.502 -0.288 -0.022 1 
0.501 -0.277 -0.021 1 
0.498 -0.265 -0.02 1 
0.5 -0.246 -0.02 1 
0.5 -0.237 -0.02 1 
0.5 -0.227 -0.02 1 
0.5 -0.217 -0.02 1 
0.499 -0.205 -0.02 1 
0.498 -0.176 -0.019 1 
0.493 -0.146 -0.018 1 
0.495 -0.105 -0.018 1 
0.498 -0.097 -0.018 1 
0.496 -0.066 -0.018 1 
0.5 -0.055 -0.019 1 
0.413 -0.26 -0.033 1 
0.5 -0.046 -0.019 1 
0.499 -0.037 -0.018 1 
0.483 -0.024 -0.015 1 
0.484 0.006 -0.015 1 
0.489 0.012 -0.016 1 
0.489 0.032 -0.016 1 
0.491 0.044 -0.017 1 
0.489 0.052 -0.017 1 
0.486 0.063 -0.016 1 
0.487 0.072 -0.016 1 
0.471 0.334 -0.021 1 
0.491 0.082 -0.017 1 
0.492 0.094 -0.018 1 
0.486 0.113 -0.016 1 
0.483 0.123 -0.016 1 
0.377 0.144 -0.014 1 
0.484 0.132 -0.016 1 
0.431 0.262 -0.02 1 
0.484 0.15 -0.016 1 
0.481 0.184 -0.017 1 
0.48 0.193 -0.016 1 
0.475 0.205 -0.016 1 
0.474 0.213 -0.016 1 
0.474 0.216 -0.016 1 
0.479 0.232 -0.017 1 
0.482 0.243 -0.018 1 
0.477 0.264 -0.017 1 
0.512 -0.307 -0.024 1 
0.475 0.282 -0.018 1 
0.477 0.29 -0.018 1 
0.481 0.3 -0.019 1 
0.483 0.309 -0.02 1 
0.484 0.317 -0.021 1 
0.481 0.356 -0.021 1 
0.512 -0.296 -0.021 1 
0.518 -0.295 -0.022 1 
0.513 -0.287 -0.021 1 
0.514 -0.247 -0.02 1 
0.512 -0.238 -0.02 1 
0.511 -0.228 -0.019 1 
0.506 -0.215 -0.018 1 
0.505 -0.186 -0.018 1 
0.509 -0.175 -0.019 1 
0.505 -0.145 -0.017 1 
0.474 -0.095 -0.018 1 
0.504 -0.141 -0.017 1 
0.506 -0.136 -0.017 1 
0.452 0.304 -0.022 1 
0.503 -0.126 -0.017 1 
0.498 -0.088 -0.018 1 
0.507 -0.115 -0.017 1 
0.507 -0.105 -0.017 1 
0.434 -0.178 -0.022 1 
0.508 -0.096 -0.018 1 
0.509 -0.087 -0.018 1 
0.503 -0.077 -0.016 1 
0.51 -0.066 -0.018 1 
0.511 -0.057 -0.018 1 
0.384 -0.091 -0.016 1 
0.51 -0.045 -0.018 1 
0.507 -0.035 -0.017 1 
0.495 -0.025 -0.015 1 
0.426 0.023 -0.016 1 
0.507 0.022 -0.017 1 
0.506 0.034 -0.017 1 
0.503 0.043 -0.017 1 
0.501 0.054 -0.016 1 
0.487 -0.197 -0.02 1 
0.487 -0.117 -0.019 1 
0.503 0.064 -0.017 1 
0.502 0.073 -0.017 1 
0.504 0.082 -0.017 1 
0.501 0.124 -0.017 1 
0.357 -0.125 -0.013 1 
0.496 0.131 -0.016 1 
0.494 0.133 -0.016 1 
0.388 -0.075 -0.015 1 
0.492 0.142 -0.015 1 
0.494 0.173 -0.016 1 
0.485 0.115 -0.016 1 
0.493 0.204 -0.017 1 
0.488 0.213 -0.016 1 
0.492 0.244 -0.017 1 
0.49 0.252 -0.017 1 
0.487 0.263 -0.017 1 
0.485 0.271 -0.016 1 
0.488 0.293 -0.018 1 
0.486 0.302 -0.017 1 
0.493 0.333 -0.02 1 
0.524 -0.282 -0.02 1 
0.496 -0.187 -0.019 1 
0.526 -0.276 -0.02 1 
0.524 -0.268 -0.02 1 
0.521 -0.258 -0.019 1 
0.521 -0.248 -0.019 1 
0.521 -0.238 -0.019 1 
0.52 -0.227 -0.018 1 
0.514 -0.207 -0.017 1 
0.514 -0.197 -0.017 1 
0.462 -0.245 -0.026 1 
0.518 -0.177 -0.017 1 
0.514 -0.165 -0.016 1 
0.517 -0.157 -0.017 1 
0.52 -0.145 -0.017 1 
0.477 0.203 -0.016 1 
0.519 -0.125 -0.017 1 
0.424 0.194 -0.018 1 
0.521 -0.116 -0.017 1 
0.52 -0.106 -0.017 1 
0.518 -0.096 -0.017 1 
0.433 -0.023 -0.015 1 
0.517 -0.077 -0.016 1 
0.518 -0.068 -0.017 1 
0.518 -0.046 -0.016 1 
0.379 0.214 -0.017 1 
0.487 -0.024 -0.01 1 
0.498 0.006 -0.012 1 
0.511 0.044 -0.015 1 
0.514 0.05 -0.016 1 
0.513 0.072 -0.016 1 
0.444 -0.158 -0.019 1 
0.511 0.084 -0.016 1 
0.511 0.093 -0.016 1 
0.429 0.182 -0.017 1 
0.512 0.103 -0.016 1 
0.363 0.068 -0.013 1 
0.512 0.134 -0.016 1 
0.511 0.143 -0.016 1 
0.507 0.148 -0.015 1 
0.503 0.149 -0.015 1 
0.502 0.152 -0.014 1 
0.448 -0.029 -0.014 1 
0.502 0.158 -0.015 1 
0.501 0.161 -0.014 1 
0.514 -0.277 -0.021 1 
0.502 0.184 -0.015 1 
0.502 0.193 -0.015 1 
0.501 0.212 -0.015 1 
0.498 0.232 -0.015 1 
0.499 0.253 -0.016 1 
0.497 0.271 -0.016 1 
0.499 0.314 -0.017 1 
0.416 -0.22 -0.025 1 
0.497 0.322 -0.017 1 
0.497 0.333 -0.018 1 
0.535 -0.265 -0.018 1 
0.534 -0.257 -0.018 1 
0.53 -0.247 -0.017 1 
0.528 -0.235 -0.017 1 
0.528 -0.225 -0.016 1 
0.459 0.063 -0.015 1 
0.527 -0.215 -0.016 1 
0.527 -0.208 -0.016 1 
0.453 -0.125 -0.019 1 
0.526 -0.204 -0.016 1 
0.375 0.111 -0.014 1 
0.524 -0.196 -0.016 1 
0.524 -0.193 -0.015 1 
0.527 -0.188 -0.016 1 
0.525 -0.167 -0.015 1 
0.529 -0.145 -0.016 1 
0.528 -0.135 -0.016 1 
0.527 -0.115 -0.015 1 
0.528 -0.096 -0.015 1 
0.529 -0.076 -0.016 1 
0.453 0.054 -0.016 1 
0.529 -0.066 -0.016 1 
0.528 -0.057 -0.015 1 
0.526 -0.047 -0.015 1 
0.468 -0.118 -0.017 1 
0.524 -0.04 -0.015 1 
0.525 -0.037 -0.015 1 
0.429 0.114 -0.018 1 
0.523 -0.03 -0.014 1 
0.484 -0.024 -0.007 1 
0.511 0.007 -0.012 1 
0.523 0.013 -0.015 1 
0.353 -0.115 -0.013 1 
0.521 0.016 -0.014 1 
0.524 0.023 -0.015 1 
0.524 0.026 -0.015 1 
0.525 0.042 -0.015 1 
0.525 0.049 -0.015 1 
0.524 0.052 -0.015 1 
0.525 0.055 -0.015 1 
0.524 0.064 -0.015 1 
0.523 0.071 -0.015 1 
0.521 0.073 -0.014 1 
0.521 0.077 -0.015 1 
0.519 0.083 -0.014 1 
0.519 0.092 -0.014 1 
0.519 0.102 -0.014 1 
0.519 0.111 -0.014 1 
0.52 0.115 -0.015 1 
0.519 0.143 -0.015 1 
0.519 0.16 -0.015 1 
0.508 0.184 -0.013 1 
0.434 -0.059 -0.018 1 
0.508 0.194 -0.013 1 
0.511 0.202 -0.014 1 
0.512 0.206 -0.014 1 
0.513 0.213 -0.015 1 
0.512 0.219 -0.015 1 
0.51 0.224 -0.014 1 
0.515 0.241 -0.016 1 
0.514 0.244 -0.015 1 
0.508 0.259 -0.015 1 
0.507 0.262 -0.014 1 
0.507 0.272 -0.015 1 
0.458 -0.077 -0.017 1 
0.509 0.281 -0.015 1 
0.513 0.302 -0.017 1 
0.506 0.313 -0.016 1 
0.537 -0.255 -0.015 1 
0.518 -0.087 -0.017 1 
0.537 -0.245 -0.015 1 
0.536 -0.237 -0.015 1 
0.536 -0.227 -0.015 1 
0.536 -0.217 -0.015 1 
0.5 0.224 -0.015 1 
0.536 -0.213 -0.015 1 
0.541 -0.195 -0.015 1 
0.543 -0.185 -0.016 1 
0.537 -0.176 -0.015 1 
0.533 -0.271 -0.018 1 
0.533 -0.16 -0.014 1 
0.534 -0.154 -0.014 1 
0.424 0.156 -0.017 1 
0.534 -0.117 -0.014 1 
0.537 -0.085 -0.014 1 
0.423 -0.117 -0.022 1 
0.536 -0.045 -0.014 1 
0.532 0.023 -0.013 1 
0.534 0.033 -0.014 1 
0.406 0.134 -0.016 1 
0.534 0.043 -0.014 1 
0.43 0.233 -0.019 1 
0.533 0.053 -0.013 1 
0.371 0.107 -0.015 1 
0.47 0.101 -0.015 1 
0.531 0.062 -0.013 1 
0.53 0.082 -0.013 1 
0.35 0.183 -0.012 1 
0.399 0.204 -0.016 1 
0.527 0.094 -0.013 1 
0.381 -0.164 -0.021 1 
0.526 0.104 -0.012 1 
0.348 0.064 -0.011 1 
0.457 0.164 -0.016 1 
0.527 0.114 -0.013 1 
0.524 0.132 -0.012 1 
0.524 0.142 -0.012 1 
0.524 0.149 -0.013 1 
0.524 0.155 -0.013 1 
0.524 0.172 -0.013 1 
0.523 0.182 -0.013 1 
0.52 0.194 -0.013 1 
0.52 0.251 -0.014 1 
0.518 0.264 -0.013 1 
0.514 0.274 -0.013 1 
0.443 -0.046 -0.018 1 
0.513 0.277 -0.013 1 
0.542 -0.255 -0.013 1 
0.543 -0.245 -0.013 1 
0.541 -0.237 -0.012 1 
0.49 0.233 -0.017 1 
0.541 -0.226 -0.012 1 
0.543 -0.207 -0.013 1 
0.544 -0.204 -0.013 1 
0.544 -0.175 -0.012 1 
0.542 -0.168 -0.012 1 
0.541 -0.157 -0.012 1 
0.543 -0.147 -0.012 1 
0.544 -0.141 -0.012 1 
0.544 -0.127 -0.012 1 
0.541 -0.106 -0.011 1 
0.474 -0.166 -0.019 1 
0.544 -0.096 -0.012 1 
0.544 -0.076 -0.012 1 
0.568 -0.034 -0.016 1 
0.414 0.253 -0.02 1 
0.515 0.007 -0.007 1 
0.541 0.034 -0.012 1 
0.54 0.044 -0.011 1 
0.539 0.054 -0.011 1 
0.533 0.122 -0.011 1 
0.532 0.132 -0.011 1 
0.531 0.142 -0.011 1 
0.53 0.151 -0.01 1 
0.529 0.171 -0.011 1 
0.528 0.184 -0.011 1 
0.527 0.191 -0.011 1 
0.524 0.223 -0.011 1 
0.519 0.23 -0.01 1 
0.522 0.235 -0.01 1 
0.524 0.268 -0.011 1 
0.525 0.272 -0.012 1 
0.522 0.284 -0.011 1 
0.523 0.288 -0.012 1 
0.551 -0.236 -0.011 1 
0.551 -0.196 -0.01 1 
0.551 -0.175 -0.01 1 
0.55 -0.136 -0.01 1 
0.55 -0.115 -0.01 1 
0.553 -0.078 -0.01 1 
0.551 -0.057 -0.01 1 
0.554 -0.04 -0.01 1 
0.543 0.061 -0.009 1 
0.543 0.071 -0.009 1 
0.541 0.094 -0.009 1 
0.465 0.172 -0.015 1 
0.486 0.312 -0.018 1 
0.541 0.101 -0.009 1 
0.542 0.112 -0.009 1 
0.541 0.122 -0.009 1 
0.54 0.142 -0.009 1 
0.538 0.162 -0.009 1 
0.537 0.172 -0.009 1 
0.539 0.183 -0.009 1 
0.537 0.192 -0.009 1 
0.533 0.214 -0.009 1 
0.531 0.224 -0.008 1 
0.528 0.232 -0.008 1 
0.531 0.241 -0.009 1 
0.533 0.253 -0.009 1 
0.458 -0.022 -0.014 1 
0.534 0.257 -0.01 1 
0.535 0.269 -0.01 1 
0.421 0.064 -0.017 1 
0.554 -0.22 -0.008 1 
0.555 -0.217 -0.008 1 
0.555 -0.155 -0.007 1 
0.555 -0.145 -0.007 1 
0.557 -0.135 -0.008 1 
0.558 -0.128 -0.008 1 
0.397 -0.197 -0.023 1 
0.558 -0.118 -0.008 1 
0.555 -0.106 -0.007 1 
0.501 0.302 -0.017 1 
0.556 -0.096 -0.007 1 
0.558 -0.086 -0.007 1 
0.559 -0.075 -0.008 1 
0.557 -0.068 -0.007 1 
0.559 -0.047 -0.008 1 
0.386 0.024 -0.015 1 
0.542 0.007 -0.005 1 
0.552 0.042 -0.007 1 
0.551 0.062 -0.007 1 
0.55 0.073 -0.007 1 
0.548 0.082 -0.006 1 
0.549 0.093 -0.007 1 
0.549 0.103 -0.007 1 
0.549 0.114 -0.007 1 
0.548 0.124 -0.007 1 
0.547 0.134 -0.007 1 
0.547 0.144 -0.007 1 
0.546 0.151 -0.007 1 
0.547 0.173 -0.007 1 
0.545 0.193 -0.007 1 
0.54 0.211 -0.006 1 
0.539 0.232 -0.007 1 
0.539 0.243 -0.007 1 
0.539 0.254 -0.007 1 
0.539 0.261 -0.007 1 
0.559 -0.175 -0.005 1 
0.562 -0.044 -0.005 1 
0.387 0.123 -0.014 1 
0.571 -0.034 -0.006 1 
0.374 0.026 -0.014 1 
0.53 0.072 -0.013 1 
0.553 0.021 -0.003 1 
0.554 0.032 -0.004 1 
0.554 0.042 -0.004 1 
0.553 0.052 -0.004 1 
0.552 0.063 -0.003 1 
0.544 0.224 -0.004 1 
0.437 -0.167 -0.02 1 
0.544 0.232 -0.004 1 
0.38 -0.106 -0.017 1 
0.544 0.235 -0.004 1 
0.555 0.011 0 1 
0.413 -0.108 -0.019 1 
0.511 0.173 -0.014 1 
0.554 0.101 0 1 
0.554 0.112 -0.001 1 
0.554 0.133 -0.001 1 
0.554 0.172 -0.001 1 
0.473 0.044 -0.016 1 
0.554 0.183 -0.001 1 
0.553 0.193 -0.001 1 
0.474 -0.157 -0.019 1 
0.565 -0.196 0.001 1 
0.48 -0.247 -0.022 1 
0.564 -0.188 0.001 1 
0.446 0.244 -0.018 1 
0.565 -0.185 0.001 1 
0.563 -0.166 0.001 1 
0.562 -0.155 0.001 1 
0.491 -0.306 -0.026 1 
0.562 -0.137 0.001 1 
0.562 -0.126 0.001 1 
0.561 -0.108 0.002 1 
0.565 -0.044 0.001 1 
0.564 -0.037 0.001 1 
0.556 -0.026 0.002 1 
0.545 -0.015 0.004 1 
0.545 -0.009 0.004 1 
0.437 -0.227 -0.024 1 
0.517 -0.169 -0.017 1 
0.544 -0.005 0.004 1 
0.549 0.004 0.003 1 
0.554 0.014 0.002 1 
0.557 0.022 0.002 1 
0.56 -0.186 -0.005 1 
0.557 0.042 0.002 1 
0.557 0.053 0.002 1 
0.555 0.074 0.002 1 
0.37 0.147 -0.014 1 
0.554 0.084 0.002 1 
0.554 0.087 0.002 1 
0.555 0.094 0.002 1 
0.556 0.102 0.002 1 
0.556 0.112 0.002 1 
0.555 0.133 0.002 1 
0.554 0.14 0.002 1 
0.517 0.202 -0.012 1 
0.555 0.144 0.002 1 
0.556 0.162 0.001 1 
0.557 0.174 0.001 1 
0.557 0.184 0.001 1 
0.476 0.254 -0.017 1 
0.555 0.194 0.001 1 
0.552 0.204 0.001 1 
0.551 0.221 0.001 1 
0.437 -0.288 -0.034 1 
0.484 0.144 -0.016 1 
0.55 0.232 0.001 1 
0.55 0.235 0.001 1 
0.563 -0.195 0.004 1 
0.469 -0.301 -0.035 1 
0.559 -0.171 -0.005 1 
0.555 0.173 0.005 1 
0.383 -0.228 -0.024 1 
0.555 0.183 0.005 1 
0.553 0.122 0 1 
0.371 -0.016 -0.015 1 
0.362 -0.006 -0.016 1 
0.552 0.052 -0.007 1 
0.555 -0.03 0.013 1 
0.552 0.032 -0.007 1 
0.554 -0.026 0.013 1 
0.555 -0.023 0.013 1 
0.554 -0.016 0.013 1 
0.55 0.014 -0.006 1 
0.553 -0.005 0.013 1 
0.552 0.004 0.013 1 
0.53 0.161 -0.011 1 
0.405 -0.166 -0.02 1 
0.554 -0.047 -0.01 1 
0.364 0.012 -0.016 1 
0.551 -0.067 -0.01 1 
0.553 -0.085 -0.01 1 
0.512 0.112 -0.016 1 
0.55 -0.105 -0.01 1 
0.557 -0.058 -0.007 1 
0.55 -0.146 -0.01 1 
0.548 -0.167 -0.01 1 
0.549 -0.206 -0.01 1 
0.441 0.302 -0.022 1 
0.448 0.162 -0.016 1 
0.553 -0.226 -0.008 1 
0.554 -0.005 0.016 1 
0.395 0.252 -0.02 1 
0.552 -0.126 -0.01 1 
0.427 0.033 -0.016 1 
0.527 -0.125 -0.015 1 
0.453 -0.12 -0.019 1 
0.493 -0.297 -0.023 1 
0.519 0.153 -0.015 1 
0.489 0.284 -0.018 1 
0.534 -0.205 -0.014 1 
0.358 0.215 -0.015 1 
0.533 -0.038 -0.013 1 
0.373 -0.016 -0.014 1 
0.353 0.216 -0.015 1 
0.465 0.342 -0.02 1 
0.498 0.239 -0.015 1 
0.444 0.095 -0.017 1 
0.497 -0.154 -0.019 1 
0.454 -0.208 -0.023 1 
0.382 0.122 -0.015 1 
0.444 -0.124 -0.019 1 
0.493 0.103 -0.018 1 
0.373 0.013 -0.016 1 
0.38 0.033 -0.015 1 
0.424 0.016 -0.015 1 
0.41 -0.215 -0.025 1 
0.567 -0.038 -0.005 1 
0.461 -0.307 -0.036 1 
0.438 0.144 -0.018 1 
0.44 -0.247 -0.028 1 
0.466 -0.039 -0.016 1 
0.432 0.045 -0.018 1 
0.371 0.234 -0.018 1 
0.539 0.024 -0.011 1 
0.518 0.212 -0.012 1 
0.442 0.164 -0.017 1 
0.343 0.124 -0.011 1 
0.435 0.191 -0.016 1 
0.461 0.324 -0.022 1 
0.363 0.123 -0.014 1 
0.424 -0.057 -0.017 1 
0.399 0.213 -0.017 1 
0.508 -0.156 -0.018 1 
0.434 -0.303 -0.034 1 
0.477 0.221 -0.016 1 
0.349 0.2 -0.013 1 
0.568 -0.034 -0.002 1 
0.383 0.183 -0.015 1 
0.562 -0.097 0.001 1 
0.362 -0.084 -0.014 1 
0.486 0.315 -0.018 1 
0.385 0.061 -0.015 1 
0.489 0.346 -0.02 1 
0.448 -0.245 -0.025 1 
0.461 -0.176 -0.022 1 
0.552 -0.095 -0.01 1 
0.413 -0.205 -0.024 1 
0.363 -0.146 -0.018 1 
0.394 0.029 -0.015 1 
0.444 -0.268 -0.032 1 
0.374 0.164 -0.015 1 
0.493 0.151 -0.016 1 
0.416 0.005 -0.013 1 
0.433 0.275 -0.021 1 
0.385 0.178 -0.016 1 
0.43 0.244 -0.019 1 
0.474 -0.246 -0.023 1 
0.344 0.154 -0.01 1 
0.483 -0.177 -0.019 1 
0.461 -0.275 -0.029 1 
0.48 0.344 -0.021 1 
0.504 -0.195 -0.018 1 
0.542 0.081 -0.009 1 
0.558 0.032 0.002 1 
0.54 0.152 -0.009 1 
0.504 -0.17 -0.02 1 
0.453 0.315 -0.022 1 
0.494 -0.336 -0.028 1 
0.561 -0.205 -0.005 1 
0.518 0.124 -0.014 1 
0.432 -0.223 -0.025 1 
0.486 -0.265 -0.021 1 
0.423 0.201 -0.018 1 
0.394 0.082 -0.016 1 
0.525 0.033 -0.015 1 
0.554 0.154 0.001 1 
0.553 -0.187 -0.011 1 
0.446 0.183 -0.016 1 
0.504 -0.123 -0.017 1 
0.526 -0.177 -0.016 1 
0.512 -0.259 -0.02 1 
0.431 -0.207 -0.022 1 
0.395 -0.028 -0.015 1 
0.52 0.007 -0.004 1 
0.429 0.083 -0.017 1 
0.476 0.273 -0.017 1 
0.364 -0.076 -0.015 1 
0.488 -0.296 -0.025 1 
0.466 -0.205 -0.023 1 
0.428 -0.076 -0.019 1 
0.513 0.233 -0.012 1 
0.482 -0.206 -0.022 1 
0.474 -0.316 -0.034 1 
0.534 -0.11 -0.013 1 
0.414 -0.066 -0.017 1 
0.435 -0.023 -0.014 1 
0.55 0.213 0.001 1 
0.527 -0.105 -0.015 1 
0.517 0.298 -0.014 1 
0.478 0.349 -0.02 1 
0.555 0.147 0.002 1 
0.497 0.261 -0.016 1 
0.5 0.202 -0.015 1 
0.468 0.314 -0.02 1 
0.414 0.194 -0.018 1 
0.453 0.215 -0.019 1 
0.503 -0.16 -0.02 1 
0.543 0.203 -0.007 1 
0.528 0.201 -0.011 1 
0.411 0.281 -0.021 1 
0.38 0.133 -0.014 1 
0.432 0.224 -0.019 1 
0.467 0.244 -0.018 1 
0.547 0.162 -0.007 1 
0.374 0.037 -0.015 1 
0.506 0.013 -0.017 1 
0.54 0.131 -0.009 1 
0.461 0.093 -0.016 1 
0.372 0.134 -0.014 1 
0.501 0.278 -0.017 1 
0.381 0.006 -0.013 1 
0.467 -0.077 -0.017 1 
0.483 0.174 -0.017 1 
0.413 0.163 -0.017 1 
0.375 -0.135 -0.018 1 
0.373 -0.095 -0.014 1 
0.488 0.164 -0.018 1 
0.494 -0.131 -0.018 1 
0.462 0.083 -0.016 1 
0.448 -0.296 -0.035 1 
0.529 -0.086 -0.016 1 
0.381 0.124 -0.014 1 
0.52 -0.135 -0.017 1 
0.388 0.153 -0.015 1 
0.492 -0.136 -0.017 1 
0.371 0.099 -0.014 1 
0.564 -0.177 0.001 1 
0.488 0.222 -0.016 1 
0.554 0.162 -0.001 1 
0.462 -0.054 -0.015 1 
0.453 -0.107 -0.019 1 
0.383 -0.077 -0.016 1 
0.539 0.221 -0.006 1 
0.472 -0.285 -0.03 1 
0.451 0.113 -0.016 1 
0.524 -0.034 -0.015 1 
0.384 -0.005 -0.006 1 
0.488 0.006 -0.013 1 
0.401 0.083 -0.016 1 
0.511 0.293 -0.016 1 
0.354 -0.109 -0.012 1 
0.451 -0.306 -0.036 1 
0.425 -0.212 -0.025 1 
0.502 0.171 -0.015 1 
0.36 -0.085 -0.013 1 
0.507 -0.084 -0.017 1 
0.358 0.133 -0.013 1 
0.352 0.044 -0.012 1 
0.424 -0.298 -0.036 1 
0.528 -0.155 -0.016 1 
0.529 0.013 -0.013 1 
0.38 0.203 -0.017 1 
0.418 -0.108 -0.019 1 
0.394 0.006 -0.013 1 
0.42 -0.135 -0.02 1 
0.541 -0.216 -0.012 1 
0.545 0.182 -0.007 1 
0.449 -0.258 -0.028 1 
0.555 0.077 0.002 1 
0.497 -0.257 -0.02 1 
0.508 -0.029 -0.017 1 
0.483 0.333 -0.021 1 
0.562 -0.115 0.001 1 
0.512 0.252 -0.015 1 
0.555 0.123 0.002 1 
0.452 0.013 -0.013 1 
0.519 -0.055 -0.017 1 
0.554 -0.162 -0.007 1 
0.544 -0.059 -0.012 1 
0.551 0.021 -0.007 1 
0.459 -0.213 -0.024 1 
0.463 -0.299 -0.036 1 
0.553 0.073 0 1 
0.562 -0.147 0.001 1 
0.403 0.064 -0.016 1 
0.495 0.092 -0.018 1 
0.458 -0.185 -0.021 1 
0.428 -0.225 -0.026 1 
0.434 -0.186 -0.022 1 
0.448 0.023 -0.015 1 
0.556 0.063 0.002 1 
0.517 -0.218 -0.017 1 
0.389 -0.135 -0.019 1 
0.544 -0.066 -0.012 1 
0.433 0.203 -0.019 1 
0.49 0.024 -0.017 1 
0.486 -0.217 -0.02 1 
0.533 -0.034 -0.013 1 
0.489 0.343 -0.019 1 
0.4 -0.075 -0.017 1 
0.454 -0.089 -0.016 1 
0.452 0.143 -0.017 1 
0.561 -0.198 -0.005 1 
0.434 -0.028 -0.015 1 
0.424 -0.265 -0.032 1 
0.54 -0.116 -0.011 1 
0.513 0.122 -0.016 1 
0.452 0.064 -0.016 1 
0.386 -0.005 0.03 2 
0.385 -0.015 0.029 2 
0.39 0 0.038 2 
0.39 -0.005 0.038 2 
0.388 -0.015 0.037 2 
0.386 0.002 0.03 2 
0.556 0.081 0.163 3 
0.553 0.202 0.163 3 
0.554 0.191 0.163 3 
0.553 0.213 0.163 3 
0.554 0.184 0.163 3 
0.561 -0.108 0.104 3 
0.554 0.173 0.163 3 
0.556 0.163 0.163 3 
0.555 0.152 0.163 3 
0.555 0.141 0.163 3 
0.554 0.137 0.162 3 
0.555 0.134 0.163 3 
0.554 0.13 0.162 3 
0.555 0.123 0.163 3 
0.556 0.113 0.163 3 
0.557 0.103 0.163 3 
0.557 0.092 0.163 3 
0.56 -0.037 0.174 3 
0.564 -0.156 0.173 3 
0.559 -0.175 0.012 3 
0.56 -0.047 0.174 3 
0.555 0.192 0.171 3 
0.561 -0.065 0.171 3 
0.561 -0.087 0.171 3 
0.562 -0.105 0.172 3 
0.563 -0.116 0.172 3 
0.564 -0.145 0.173 3 
0.553 0.224 0.163 3 
0.559 -0.026 0.163 3 
0.565 -0.16 0.173 3 
0.565 -0.167 0.173 3 
0.565 -0.175 0.173 3 
0.566 -0.186 0.174 3 
0.553 0.227 0.163 3 
0.553 0.151 0.113 3 
0.564 -0.138 0.162 3 
0.554 0.084 0.071 3 
0.552 0.052 0.023 3 
0.562 -0.105 0.164 3 
0.564 -0.167 0.166 3 
0.564 -0.181 0.166 3 
0.564 -0.185 0.166 3 
0.563 -0.116 0.161 3 
0.563 -0.126 0.161 3 
0.555 0.13 0.152 3 
0.553 0.194 0.152 3 
0.564 -0.145 0.162 3 
0.553 0.101 0.054 3 
0.563 -0.155 0.162 3 
0.563 -0.166 0.162 3 
0.564 -0.178 0.162 3 
0.563 -0.185 0.162 3 
0.555 0.211 0.182 3 
0.556 -0.005 0.162 3 
0.556 0.064 0.162 3 
0.556 0.053 0.162 3 
0.555 0.056 0.075 3 
0.556 0.043 0.162 3 
0.556 0.032 0.162 3 
0.555 0.022 0.162 3 
0.556 0.011 0.162 3 
0.556 0.004 0.162 3 
0.556 0.074 0.163 3 
0.556 -0.016 0.163 3 
0.559 -0.037 0.163 3 
0.56 -0.047 0.163 3 
0.56 -0.058 0.164 3 
0.56 -0.065 0.164 3 
0.561 -0.076 0.164 3 
0.561 -0.086 0.164 3 
0.561 -0.097 0.164 3 
0.564 -0.145 0.183 3 
0.562 -0.087 0.182 3 
0.554 0.119 0.068 3 
0.564 -0.098 0.183 3 
0.565 -0.105 0.183 3 
0.565 -0.116 0.183 3 
0.564 -0.12 0.183 3 
0.564 -0.127 0.183 3 
0.564 -0.138 0.183 3 
0.561 -0.076 0.182 3 
0.56 -0.058 0.174 3 
0.565 -0.153 0.184 3 
0.555 0.067 0.138 3 
0.55 0.124 0.013 3 
0.565 -0.156 0.184 3 
0.554 0.225 0.178 3 
0.554 0.203 0.178 3 
0.554 0.192 0.177 3 
0.557 0.124 0.181 3 
0.551 0.211 0.131 3 
0.555 0.203 0.181 3 
0.555 0.192 0.181 3 
0.555 0.181 0.181 3 
0.551 0.164 0.043 3 
0.555 0.174 0.181 3 
0.557 0.164 0.182 3 
0.556 0.153 0.181 3 
0.554 0.184 0.177 3 
0.558 0.114 0.181 3 
0.56 -0.146 0.023 3 
0.559 -0.016 0.181 3 
0.56 -0.026 0.181 3 
0.56 -0.037 0.181 3 
0.56 -0.047 0.181 3 
0.561 -0.055 0.182 3 
0.561 -0.065 0.182 3 
0.556 0.064 0.173 3 
0.556 0.124 0.173 3 
0.561 -0.125 0.104 3 
0.557 0.114 0.174 3 
0.556 0.103 0.173 3 
0.563 -0.126 0.172 3 
0.556 0.092 0.173 3 
0.556 0.081 0.173 3 
0.556 0.074 0.173 3 
0.561 -0.076 0.171 3 
0.557 0.054 0.173 3 
0.556 0.043 0.173 3 
0.556 0.032 0.173 3 
0.556 0.022 0.173 3 
0.557 0.011 0.173 3 
0.557 0.004 0.173 3 
0.557 -0.005 0.173 3 
0.557 -0.016 0.173 3 
0.553 0.213 0.174 3 
0.564 -0.105 0.179 3 
0.566 -0.168 0.181 3 
0.567 -0.176 0.181 3 
0.567 -0.187 0.181 3 
0.554 0.228 0.174 3 
0.554 0.053 0.113 3 
0.553 0.224 0.174 3 
0.556 0.004 0.113 3 
0.559 -0.026 0.174 3 
0.554 0.203 0.174 3 
0.554 0.192 0.174 3 
0.554 0.184 0.174 3 
0.555 0.178 0.174 3 
0.555 0.174 0.174 3 
0.556 0.164 0.174 3 
0.556 0.152 0.174 3 
0.56 -0.076 0.142 3 
0.556 0.004 0.141 3 
0.557 -0.005 0.141 3 
0.558 -0.016 0.142 3 
0.558 -0.026 0.142 3 
0.559 -0.037 0.142 3 
0.559 -0.047 0.142 3 
0.558 -0.058 0.142 3 
0.558 -0.065 0.142 3 
0.555 0.011 0.141 3 
0.56 -0.086 0.142 3 
0.554 0.112 0.064 3 
0.56 -0.097 0.143 3 
0.561 -0.108 0.143 3 
0.562 -0.115 0.143 3 
0.562 -0.137 0.133 3 
0.551 0.181 0.033 3 
0.562 -0.126 0.143 3 
0.555 0.109 0.141 3 
0.554 0.162 0.141 3 
0.555 0.159 0.142 3 
0.554 0.151 0.141 3 
0.555 0.148 0.142 3 
0.554 0.144 0.141 3 
0.554 0.134 0.141 3 
0.554 0.123 0.141 3 
0.554 0.112 0.141 3 
0.563 -0.137 0.144 3 
0.555 0.102 0.141 3 
0.554 0.098 0.141 3 
0.551 0.042 0.013 3 
0.554 0.091 0.141 3 
0.555 0.06 0.141 3 
0.555 0.053 0.141 3 
0.555 0.043 0.141 3 
0.555 0.022 0.141 3 
0.554 0.032 0.134 3 
0.554 0.151 0.124 3 
0.553 0.084 0.134 3 
0.554 0.074 0.134 3 
0.554 0.063 0.134 3 
0.555 0.057 0.134 3 
0.554 0.053 0.134 3 
0.555 0.05 0.134 3 
0.554 0.042 0.134 3 
0.554 0.091 0.134 3 
0.555 0.029 0.134 3 
0.554 0.022 0.134 3 
0.555 0.011 0.134 3 
0.557 0.004 0.134 3 
0.557 -0.016 0.134 3 
0.566 -0.196 0.137 3 
0.552 0.23 0.131 3 
0.563 0.205 0.228 3 
0.551 0.219 0.134 3 
0.563 -0.148 0.144 3 
0.563 -0.155 0.144 3 
0.564 -0.167 0.144 3 
0.563 -0.177 0.144 3 
0.564 -0.189 0.144 3 
0.554 0.053 0.137 3 
0.555 0.032 0.138 3 
0.565 -0.193 0.141 3 
0.554 0.173 0.141 3 
0.553 0.201 0.134 3 
0.554 0.173 0.134 3 
0.554 0.162 0.134 3 
0.554 0.148 0.134 3 
0.554 0.144 0.134 3 
0.553 0.133 0.134 3 
0.553 0.123 0.134 3 
0.554 0.112 0.134 3 
0.555 0.011 0.152 3 
0.555 0.081 0.152 3 
0.554 0.042 0.113 3 
0.555 0.074 0.152 3 
0.555 0.064 0.152 3 
0.556 0.053 0.152 3 
0.556 0.043 0.152 3 
0.555 0.032 0.152 3 
0.555 0.022 0.152 3 
0.556 0.113 0.152 3 
0.556 0.004 0.152 3 
0.556 -0.005 0.152 3 
0.557 -0.016 0.152 3 
0.559 -0.086 0.054 3 
0.558 -0.026 0.152 3 
0.559 -0.037 0.153 3 
0.559 -0.047 0.153 3 
0.558 -0.058 0.152 3 
0.554 0.173 0.152 3 
0.555 0.177 0.156 3 
0.554 0.07 0.155 3 
0.553 0.227 0.153 3 
0.553 0.224 0.153 3 
0.553 0.213 0.153 3 
0.553 0.202 0.152 3 
0.553 0.184 0.152 3 
0.553 0.227 0.114 3 
0.559 -0.065 0.153 3 
0.555 0.17 0.152 3 
0.555 0.163 0.152 3 
0.555 0.152 0.152 3 
0.554 0.144 0.092 3 
0.554 0.148 0.152 3 
0.554 0.141 0.152 3 
0.554 0.134 0.152 3 
0.555 0.123 0.152 3 
0.554 0.029 0.144 3 
0.564 -0.177 0.112 3 
0.565 -0.197 0.152 3 
0.554 0.123 0.145 3 
0.554 0.091 0.145 3 
0.554 0.077 0.144 3 
0.554 0.074 0.144 3 
0.554 0.056 0.144 3 
0.554 0.039 0.144 3 
0.563 -0.185 0.151 3 
0.565 -0.193 0.148 3 
0.553 0.227 0.142 3 
0.553 0.223 0.142 3 
0.553 0.212 0.142 3 
0.553 0.202 0.142 3 
0.553 0.194 0.142 3 
0.554 0.176 0.134 3 
0.554 0.183 0.142 3 
0.563 -0.152 0.154 3 
0.56 -0.076 0.153 3 
0.561 -0.086 0.153 3 
0.561 -0.097 0.153 3 
0.562 -0.108 0.154 3 
0.563 -0.116 0.154 3 
0.563 -0.126 0.154 3 
0.554 -0.05 0.02 3 
0.563 -0.137 0.154 3 
0.565 -0.193 0.163 3 
0.563 -0.155 0.154 3 
0.565 -0.197 0.156 3 
0.554 0.162 0.148 3 
0.555 0.141 0.149 3 
0.563 -0.166 0.151 3 
0.554 0.102 0.082 3 
0.563 -0.177 0.151 3 
0.571 -0.137 0.223 3 
0.567 -0.067 0.22 3 
0.568 -0.078 0.221 3 
0.552 0.203 0.071 3 
0.57 -0.085 0.221 3 
0.571 -0.096 0.222 3 
0.571 -0.107 0.222 3 
0.571 -0.115 0.222 3 
0.572 -0.126 0.223 3 
0.562 0.033 0.211 3 
0.57 -0.148 0.222 3 
0.554 0.123 0.064 3 
0.571 -0.155 0.223 3 
0.572 -0.167 0.224 3 
0.573 -0.175 0.224 3 
0.564 0.073 0.215 3 
0.563 0.062 0.215 3 
0.554 0.074 0.148 3 
0.567 -0.045 0.224 3 
0.549 0.238 0.012 3 
0.566 0.012 0.223 3 
0.559 0.033 0.192 3 
0.567 0.001 0.224 3 
0.568 -0.005 0.224 3 
0.561 -0.026 0.192 3 
0.567 -0.034 0.224 3 
0.568 -0.038 0.224 3 
0.562 0.051 0.214 3 
0.568 -0.056 0.224 3 
0.558 -0.005 0.191 3 
0.573 -0.168 0.228 3 
0.564 0.051 0.219 3 
0.564 0.044 0.219 3 
0.555 0.134 0.173 3 
0.561 -0.097 0.171 3 
0.568 -0.016 0.22 3 
0.561 0.072 0.211 3 
0.555 0.077 0.068 3 
0.56 0.133 0.211 3 
0.56 0.122 0.211 3 
0.562 0.112 0.211 3 
0.561 0.104 0.211 3 
0.561 0.094 0.211 3 
0.555 0.141 0.173 3 
0.561 0.083 0.211 3 
0.56 0.144 0.211 3 
0.561 0.061 0.21 3 
0.564 0.023 0.212 3 
0.564 0.012 0.212 3 
0.557 -0.026 0.093 3 
0.563 0.001 0.211 3 
0.564 -0.005 0.212 3 
0.555 0.032 0.092 3 
0.564 -0.195 0.062 3 
0.554 0.102 0.134 3 
0.562 0.044 0.214 3 
0.563 0.033 0.215 3 
0.564 0.008 0.215 3 
0.564 -0.045 0.215 3 
0.564 -0.055 0.215 3 
0.558 0.217 0.212 3 
0.558 0.213 0.212 3 
0.559 0.202 0.212 3 
0.564 -0.027 0.212 3 
0.559 0.191 0.212 3 
0.564 -0.138 0.173 3 
0.556 0.004 0.072 3 
0.559 0.184 0.211 3 
0.559 0.173 0.211 3 
0.559 0.162 0.211 3 
0.559 0.151 0.211 3 
0.568 0.001 0.228 3 
0.567 0.073 0.228 3 
0.567 0.063 0.227 3 
0.568 0.052 0.228 3 
0.567 0.044 0.227 3 
0.568 0.034 0.228 3 
0.569 0.023 0.228 3 
0.553 0.172 0.064 3 
0.567 0.012 0.227 3 
0.566 0.084 0.227 3 
0.569 -0.005 0.228 3 
0.571 -0.016 0.229 3 
0.57 -0.027 0.229 3 
0.56 -0.076 0.072 3 
0.569 -0.038 0.228 3 
0.555 0.17 0.163 3 
0.567 -0.045 0.228 3 
0.571 -0.056 0.229 3 
0.565 0.142 0.228 3 
0.554 0.022 0.137 3 
0.563 0.201 0.228 3 
0.563 0.193 0.228 3 
0.563 0.182 0.228 3 
0.564 0.172 0.228 3 
0.564 0.164 0.228 3 
0.565 0.157 0.228 3 
0.565 0.154 0.228 3 
0.573 -0.068 0.23 3 
0.563 0.134 0.227 3 
0.562 0.123 0.226 3 
0.562 0.112 0.226 3 
0.564 0.102 0.226 3 
0.565 0.095 0.227 3 
0.562 -0.198 0.012 3 
0.564 0.091 0.226 3 
0.565 0.088 0.227 3 
0.562 0.094 0.222 3 
0.563 0.164 0.224 3 
0.564 0.153 0.224 3 
0.565 0.146 0.224 3 
0.564 0.142 0.224 3 
0.563 0.131 0.223 3 
0.563 0.123 0.223 3 
0.563 0.113 0.223 3 
0.563 0.101 0.222 3 
0.563 0.171 0.224 3 
0.562 0.083 0.222 3 
0.565 0.073 0.223 3 
0.565 0.062 0.223 3 
0.56 0.012 0.192 3 
0.565 0.051 0.223 3 
0.565 0.044 0.223 3 
0.566 0.033 0.223 3 
0.567 0.023 0.224 3 
0.574 -0.153 0.232 3 
0.573 -0.075 0.23 3 
0.572 -0.086 0.23 3 
0.574 -0.097 0.231 3 
0.574 -0.105 0.231 3 
0.573 -0.115 0.23 3 
0.574 -0.127 0.231 3 
0.574 -0.138 0.231 3 
0.575 -0.146 0.232 3 
0.565 -0.012 0.212 3 
0.575 -0.157 0.232 3 
0.574 -0.164 0.232 3 
0.575 -0.168 0.232 3 
0.561 0.211 0.224 3 
0.561 0.204 0.224 3 
0.562 0.193 0.224 3 
0.562 0.182 0.224 3 
0.56 -0.016 0.192 3 
0.559 0.093 0.192 3 
0.558 0.082 0.192 3 
0.558 0.071 0.191 3 
0.559 0.061 0.192 3 
0.559 0.054 0.192 3 
0.559 0.043 0.192 3 
0.56 0.022 0.192 3 
0.559 0.001 0.192 3 
0.559 0.104 0.192 3 
0.561 -0.037 0.193 3 
0.56 -0.048 0.192 3 
0.563 -0.148 0.122 3 
0.561 -0.055 0.192 3 
0.563 -0.066 0.193 3 
0.564 -0.077 0.194 3 
0.565 -0.084 0.194 3 
0.565 -0.088 0.194 3 
0.557 0.172 0.192 3 
0.569 -0.177 0.204 3 
0.568 -0.188 0.204 3 
0.556 0.222 0.193 3 
0.555 0.211 0.192 3 
0.556 0.204 0.193 3 
0.556 0.193 0.192 3 
0.555 -0.085 0.013 3 
0.556 0.182 0.192 3 
0.565 -0.095 0.194 3 
0.557 0.164 0.192 3 
0.557 0.154 0.192 3 
0.557 0.143 0.192 3 
0.558 0.132 0.192 3 
0.557 0.103 0.152 3 
0.558 0.121 0.192 3 
0.55 0.142 0.023 3 
0.558 0.114 0.192 3 
0.558 0.022 0.184 3 
0.559 -0.086 0.033 3 
0.557 0.092 0.184 3 
0.557 0.082 0.184 3 
0.557 0.071 0.184 3 
0.558 0.064 0.184 3 
0.558 0.054 0.184 3 
0.557 0.043 0.184 3 
0.557 0.033 0.184 3 
0.558 0.096 0.184 3 
0.556 -0.005 0.134 3 
0.558 0.012 0.184 3 
0.558 -0.058 0.131 3 
0.558 0.004 0.184 3 
0.558 -0.005 0.184 3 
0.555 0.225 0.182 3 
0.562 -0.137 0.122 3 
0.554 0.221 0.181 3 
0.566 -0.146 0.191 3 
0.565 -0.106 0.194 3 
0.565 -0.116 0.194 3 
0.565 -0.127 0.194 3 
0.555 0.225 0.189 3 
0.555 0.199 0.171 3 
0.564 -0.087 0.19 3 
0.555 0.06 0.071 3 
0.566 -0.135 0.191 3 
0.562 -0.136 0.054 3 
0.566 -0.157 0.192 3 
0.568 -0.165 0.192 3 
0.568 -0.176 0.193 3 
0.568 -0.187 0.193 3 
0.554 0.221 0.185 3 
0.556 0.142 0.184 3 
0.557 0.131 0.184 3 
0.558 0.194 0.204 3 
0.568 -0.147 0.21 3 
0.569 -0.158 0.211 3 
0.551 0.031 0.013 3 
0.569 -0.166 0.211 3 
0.57 -0.177 0.212 3 
0.557 0.22 0.204 3 
0.556 0.212 0.204 3 
0.558 0.202 0.204 3 
0.564 -0.016 0.208 3 
0.557 0.183 0.203 3 
0.558 0.172 0.204 3 
0.558 0.161 0.203 3 
0.558 0.154 0.203 3 
0.558 0.143 0.203 3 
0.558 0.132 0.203 3 
0.559 0.122 0.203 3 
0.56 0.111 0.203 3 
0.566 -0.077 0.212 3 
0.565 -0.016 0.212 3 
0.565 -0.03 0.212 3 
0.564 -0.037 0.212 3 
0.564 -0.077 0.197 3 
0.564 -0.048 0.212 3 
0.564 -0.055 0.212 3 
0.564 -0.066 0.212 3 
0.565 -0.07 0.212 3 
0.56 0.104 0.203 3 
0.567 -0.088 0.213 3 
0.566 -0.095 0.213 3 
0.567 -0.106 0.213 3 
0.568 -0.117 0.214 3 
0.569 -0.125 0.214 3 
0.569 -0.144 0.214 3 
0.57 -0.185 0.216 3 
0.56 -0.107 0.033 3 
0.565 -0.095 0.201 3 
0.562 -0.048 0.204 3 
0.552 0.111 0.023 3 
0.563 -0.055 0.204 3 
0.564 -0.073 0.204 3 
0.568 -0.188 0.208 3 
0.565 -0.066 0.201 3 
0.565 -0.077 0.201 3 
0.566 -0.088 0.202 3 
0.565 -0.106 0.201 3 
0.566 -0.117 0.202 3 
0.567 -0.128 0.202 3 
0.568 -0.136 0.203 3 
0.556 0.092 0.152 3 
0.567 -0.146 0.203 3 
0.568 -0.158 0.203 3 
0.553 0.204 0.113 3 
0.57 -0.166 0.204 3 
0.562 0.022 0.204 3 
0.56 0.093 0.203 3 
0.56 0.083 0.203 3 
0.56 0.072 0.203 3 
0.552 0.203 0.054 3 
0.56 0.061 0.203 3 
0.56 0.054 0.203 3 
0.56 0.044 0.203 3 
0.561 0.033 0.203 3 
0.554 0.214 0.181 3 
0.562 0.012 0.204 3 
0.561 0.001 0.203 3 
0.561 -0.005 0.203 3 
0.554 0.084 0.148 3 
0.563 -0.016 0.204 3 
0.563 -0.027 0.204 3 
0.562 -0.037 0.204 3 
0.555 0.011 0.054 3 
0.555 0.084 0.054 3 
0.555 0.074 0.054 3 
0.555 0.063 0.054 3 
0.555 0.053 0.054 3 
0.555 0.042 0.054 3 
0.552 0.143 0.044 3 
0.555 0.032 0.054 3 
0.555 0.021 0.054 3 
0.553 0.094 0.054 3 
0.557 -0.005 0.054 3 
0.558 -0.016 0.054 3 
0.558 -0.026 0.054 3 
0.559 -0.037 0.054 3 
0.559 -0.047 0.054 3 
0.558 -0.058 0.054 3 
0.557 -0.068 0.054 3 
0.558 -0.075 0.054 3 
0.552 0.182 0.054 3 
0.563 -0.187 0.062 3 
0.565 -0.199 0.062 3 
0.551 0.236 0.054 3 
0.551 0.232 0.054 3 
0.551 0.221 0.054 3 
0.552 0.214 0.054 3 
0.552 0.193 0.054 3 
0.552 0.094 0.033 3 
0.559 -0.097 0.054 3 
0.553 0.172 0.054 3 
0.552 0.164 0.054 3 
0.553 0.154 0.054 3 
0.553 0.143 0.054 3 
0.553 0.133 0.054 3 
0.553 0.122 0.054 3 
0.554 0.049 0.047 3 
0.553 0.112 0.054 3 
0.554 0.084 0.044 3 
0.552 0.182 0.043 3 
0.551 0.174 0.043 3 
0.554 -0.043 0.016 3 
0.552 0.154 0.044 3 
0.552 0.132 0.044 3 
0.552 0.122 0.044 3 
0.553 0.112 0.044 3 
0.553 0.101 0.044 3 
0.552 0.193 0.043 3 
0.555 0.074 0.044 3 
0.555 0.063 0.044 3 
0.549 0.231 0.022 3 
0.554 0.059 0.044 3 
0.554 0.042 0.044 3 
0.554 0.032 0.044 3 
0.559 -0.086 0.044 3 
0.555 0.021 0.044 3 
0.563 -0.187 0.051 3 
0.56 -0.107 0.054 3 
0.561 -0.125 0.054 3 
0.562 -0.147 0.054 3 
0.557 -0.026 0.023 3 
0.561 -0.157 0.054 3 
0.561 -0.165 0.054 3 
0.554 0.084 0.051 3 
0.561 -0.176 0.051 3 
0.562 -0.176 0.062 3 
0.563 -0.195 0.051 3 
0.554 0.056 0.047 3 
0.554 0.039 0.047 3 
0.55 0.235 0.043 3 
0.551 0.232 0.043 3 
0.552 0.222 0.043 3 
0.552 0.214 0.043 3 
0.552 0.203 0.043 3 
0.552 0.233 0.064 3 
0.563 -0.155 0.072 3 
0.562 -0.165 0.072 3 
0.563 -0.176 0.072 3 
0.563 -0.187 0.072 3 
0.564 -0.195 0.072 3 
0.565 -0.199 0.072 3 
0.555 0.112 0.068 3 
0.555 0.07 0.068 3 
0.563 -0.147 0.072 3 
0.552 0.222 0.064 3 
0.553 0.211 0.064 3 
0.552 0.203 0.064 3 
0.552 0.193 0.064 3 
0.553 0.182 0.064 3 
0.561 -0.147 0.033 3 
0.553 0.161 0.064 3 
0.553 0.154 0.064 3 
0.558 -0.047 0.072 3 
0.555 0.042 0.072 3 
0.555 0.032 0.072 3 
0.555 0.022 0.072 3 
0.556 0.011 0.072 3 
0.556 -0.005 0.072 3 
0.556 -0.016 0.072 3 
0.557 -0.026 0.072 3 
0.558 -0.037 0.072 3 
0.553 0.143 0.064 3 
0.558 -0.058 0.072 3 
0.558 -0.065 0.072 3 
0.56 -0.086 0.072 3 
0.56 -0.097 0.072 3 
0.56 -0.107 0.072 3 
0.561 -0.118 0.072 3 
0.562 -0.125 0.072 3 
0.563 -0.137 0.072 3 
0.559 -0.075 0.061 3 
0.556 0.004 0.061 3 
0.556 -0.005 0.061 3 
0.557 -0.016 0.061 3 
0.555 0.004 0.054 3 
0.558 -0.026 0.061 3 
0.559 -0.037 0.061 3 
0.559 -0.047 0.061 3 
0.558 -0.065 0.061 3 
0.555 0.011 0.061 3 
0.559 -0.086 0.061 3 
0.559 -0.097 0.061 3 
0.561 -0.115 0.061 3 
0.562 -0.126 0.062 3 
0.562 -0.136 0.062 3 
0.562 -0.147 0.062 3 
0.562 -0.158 0.062 3 
0.562 -0.165 0.062 3 
0.555 0.077 0.061 3 
0.555 0.004 0.034 3 
0.554 0.133 0.064 3 
0.555 0.116 0.064 3 
0.554 0.101 0.064 3 
0.554 0.094 0.064 3 
0.553 0.084 0.064 3 
0.551 0.236 0.061 3 
0.556 -0.071 0.023 3 
0.555 0.011 0.044 3 
0.554 0.073 0.061 3 
0.555 0.07 0.061 3 
0.555 0.063 0.061 3 
0.555 0.053 0.061 3 
0.555 0.042 0.061 3 
0.555 0.032 0.061 3 
0.555 0.021 0.061 3 
0.56 -0.175 0.023 3 
0.557 -0.096 0.023 3 
0.558 -0.107 0.023 3 
0.557 -0.117 0.023 3 
0.558 -0.128 0.023 3 
0.56 -0.136 0.023 3 
0.56 -0.157 0.023 3 
0.56 -0.168 0.023 3 
0.55 0.131 0.013 3 
0.557 -0.085 0.023 3 
0.561 -0.187 0.023 3 
0.562 -0.198 0.022 3 
0.554 0.004 0.02 3 
0.554 -0.057 0.02 3 
0.562 -0.205 0.015 3 
0.548 0.234 0.012 3 
0.548 0.223 0.012 3 
0.55 0.213 0.012 3 
0.554 0.014 0.023 3 
0.551 0.104 0.023 3 
0.552 0.094 0.023 3 
0.552 0.083 0.023 3 
0.552 0.073 0.023 3 
0.552 0.063 0.023 3 
0.553 0.042 0.023 3 
0.553 0.032 0.023 3 
0.553 0.021 0.023 3 
0.549 0.184 0.012 3 
0.555 0.004 0.023 3 
0.556 -0.005 0.023 3 
0.557 -0.016 0.023 3 
0.557 -0.037 0.023 3 
0.555 -0.047 0.023 3 
0.555 -0.057 0.023 3 
0.554 -0.068 0.023 3 
0.556 -0.075 0.023 3 
0.562 -0.206 0.012 3 
0.555 -0.106 0.013 3 
0.556 -0.117 0.013 3 
0.557 -0.128 0.013 3 
0.558 -0.135 0.012 3 
0.559 -0.146 0.012 3 
0.559 -0.157 0.012 3 
0.559 -0.168 0.012 3 
0.56 -0.186 0.012 3 
0.555 -0.095 0.013 3 
0.555 -0.037 0.009 3 
0.556 -0.047 0.009 3 
0.556 -0.057 0.009 3 
0.564 -0.048 0.001 3 
0.563 -0.055 0.001 3 
0.563 -0.066 0.001 3 
0.562 -0.076 0.001 3 
0.562 -0.087 0.001 3 
0.551 0.062 0.013 3 
0.55 0.174 0.012 3 
0.551 0.164 0.012 3 
0.55 0.153 0.012 3 
0.549 0.142 0.013 3 
0.55 0.114 0.013 3 
0.55 0.093 0.013 3 
0.55 0.083 0.013 3 
0.55 0.073 0.013 3 
0.552 0.122 0.023 3 
0.55 0.052 0.013 3 
0.551 0.021 0.013 3 
0.551 0.014 0.013 3 
0.554 -0.036 0.013 3 
0.553 -0.047 0.013 3 
0.554 -0.057 0.013 3 
0.555 -0.068 0.013 3 
0.555 -0.075 0.013 3 
0.551 0.203 0.033 3 
0.563 -0.195 0.044 3 
0.554 0.073 0.04 3 
0.554 0.021 0.04 3 
0.554 0.008 0.037 3 
0.55 0.235 0.033 3 
0.55 0.231 0.033 3 
0.551 0.221 0.033 3 
0.551 0.214 0.033 3 
0.562 -0.187 0.044 3 
0.551 0.192 0.033 3 
0.55 0.174 0.033 3 
0.551 0.164 0.033 3 
0.551 0.143 0.033 3 
0.551 0.132 0.033 3 
0.551 0.122 0.033 3 
0.553 0.104 0.033 3 
0.552 0.083 0.033 3 
0.558 -0.075 0.044 3 
0.555 0.004 0.044 3 
0.556 -0.005 0.044 3 
0.558 -0.026 0.044 3 
0.558 -0.037 0.044 3 
0.557 -0.047 0.044 3 
0.56 -0.097 0.044 3 
0.556 -0.057 0.044 3 
0.557 -0.065 0.044 3 
0.553 0.073 0.033 3 
0.56 -0.107 0.044 3 
0.56 -0.118 0.044 3 
0.561 -0.125 0.044 3 
0.561 -0.136 0.044 3 
0.561 -0.147 0.044 3 
0.561 -0.157 0.044 3 
0.561 -0.165 0.044 3 
0.561 -0.176 0.044 3 
0.549 0.224 0.022 3 
0.56 -0.125 0.033 3 
0.561 -0.136 0.033 3 
0.561 -0.158 0.033 3 
0.561 -0.165 0.033 3 
0.561 -0.176 0.033 3 
0.562 -0.187 0.033 3 
0.563 -0.195 0.033 3 
0.55 0.235 0.022 3 
0.559 -0.118 0.033 3 
0.55 0.213 0.022 3 
0.55 0.202 0.022 3 
0.549 0.191 0.023 3 
0.55 0.181 0.023 3 
0.551 0.174 0.023 3 
0.551 0.164 0.023 3 
0.551 0.153 0.023 3 
0.55 0.132 0.023 3 
0.556 -0.005 0.033 3 
0.553 0.063 0.033 3 
0.553 0.052 0.034 3 
0.553 0.042 0.034 3 
0.554 0.032 0.034 3 
0.555 0.028 0.033 3 
0.554 0.021 0.034 3 
0.554 0.014 0.034 3 
0.555 0.008 0.034 3 
0.55 0.203 0.012 3 
0.558 -0.016 0.033 3 
0.558 -0.026 0.033 3 
0.557 -0.037 0.033 3 
0.557 -0.047 0.033 3 
0.556 -0.068 0.034 3 
0.557 -0.075 0.033 3 
0.559 -0.096 0.033 3 
0.558 -0.037 0.114 3 
0.554 0.032 0.113 3 
0.555 0.025 0.113 3 
0.555 0.022 0.113 3 
0.555 0.011 0.113 3 
0.556 -0.005 0.113 3 
0.555 0.015 0.03 3 
0.556 -0.016 0.113 3 
0.557 -0.026 0.114 3 
0.554 0.063 0.113 3 
0.558 -0.058 0.061 3 
0.558 -0.047 0.114 3 
0.558 -0.058 0.114 3 
0.559 -0.065 0.114 3 
0.56 -0.076 0.114 3 
0.56 -0.086 0.114 3 
0.561 -0.097 0.114 3 
0.561 -0.108 0.114 3 
0.553 0.133 0.113 3 
0.56 -0.118 0.054 3 
0.554 0.223 0.114 3 
0.553 0.212 0.113 3 
0.554 0.194 0.113 3 
0.553 0.183 0.113 3 
0.553 0.172 0.113 3 
0.553 0.161 0.113 3 
0.554 0.144 0.113 3 
0.554 0.084 0.11 3 
0.554 0.123 0.113 3 
0.554 0.112 0.113 3 
0.554 0.102 0.113 3 
0.554 0.091 0.113 3 
0.555 0.084 0.113 3 
0.549 0.191 0.012 3 
0.554 0.074 0.113 3 
0.555 0.067 0.113 3 
0.554 0.102 0.103 3 
0.553 0.172 0.103 3 
0.553 0.161 0.103 3 
0.553 0.154 0.103 3 
0.553 0.143 0.103 3 
0.553 0.133 0.103 3 
0.553 0.122 0.103 3 
0.551 0.104 0.013 3 
0.553 0.112 0.103 3 
0.554 0.183 0.103 3 
0.553 0.094 0.103 3 
0.554 0.084 0.103 3 
0.555 0.074 0.103 3 
0.554 0.07 0.103 3 
0.555 0.063 0.103 3 
0.554 0.06 0.103 3 
0.554 0.053 0.103 3 
0.554 0.042 0.103 3 
0.564 -0.188 0.112 3 
0.554 0.022 0.11 3 
0.561 -0.115 0.111 3 
0.562 -0.126 0.111 3 
0.562 -0.137 0.111 3 
0.562 -0.147 0.111 3 
0.562 -0.155 0.111 3 
0.558 -0.016 0.044 3 
0.563 -0.166 0.111 3 
0.555 0.025 0.117 3 
0.565 -0.192 0.112 3 
0.565 -0.196 0.112 3 
0.553 0.23 0.103 3 
0.554 0.053 0.044 3 
0.554 0.223 0.103 3 
0.553 0.211 0.103 3 
0.552 0.204 0.103 3 
0.553 0.193 0.103 3 
0.552 0.204 0.124 3 
0.564 -0.177 0.133 3 
0.565 -0.189 0.134 3 
0.566 -0.196 0.134 3 
0.555 0.177 0.128 3 
0.555 0.015 0.127 3 
0.552 0.23 0.124 3 
0.551 0.222 0.124 3 
0.552 0.211 0.124 3 
0.551 0.153 0.033 3 
0.553 0.194 0.124 3 
0.554 0.183 0.124 3 
0.554 0.172 0.124 3 
0.554 0.162 0.124 3 
0.554 0.144 0.124 3 
0.553 0.133 0.124 3 
0.554 0.123 0.124 3 
0.554 0.112 0.124 3 
0.56 -0.076 0.132 3 
0.555 0.166 0.131 3 
0.555 0.159 0.131 3 
0.555 0.077 0.131 3 
0.555 0.067 0.131 3 
0.558 -0.026 0.131 3 
0.559 -0.037 0.131 3 
0.558 -0.047 0.131 3 
0.558 -0.065 0.131 3 
0.554 0.102 0.124 3 
0.56 -0.086 0.132 3 
0.561 -0.097 0.132 3 
0.561 -0.108 0.132 3 
0.561 -0.115 0.132 3 
0.562 -0.126 0.133 3 
0.563 -0.148 0.133 3 
0.563 -0.155 0.133 3 
0.563 -0.166 0.133 3 
0.556 -0.057 0.034 3 
0.558 -0.058 0.124 3 
0.559 -0.065 0.124 3 
0.565 -0.181 0.126 3 
0.555 0.081 0.12 3 
0.561 -0.076 0.121 3 
0.561 -0.086 0.121 3 
0.561 -0.097 0.121 3 
0.561 -0.108 0.122 3 
0.558 -0.047 0.124 3 
0.562 -0.115 0.122 3 
0.562 -0.126 0.122 3 
0.562 -0.155 0.122 3 
0.563 -0.166 0.122 3 
0.564 -0.177 0.122 3 
0.565 -0.185 0.123 3 
0.564 -0.188 0.123 3 
0.566 -0.196 0.123 3 
0.554 0.022 0.124 3 
0.554 0.091 0.124 3 
0.554 0.084 0.124 3 
0.555 0.074 0.124 3 
0.554 0.07 0.124 3 
0.554 0.063 0.124 3 
0.554 0.053 0.124 3 
0.554 0.042 0.124 3 
0.554 0.032 0.124 3 
0.555 0.035 0.103 3 
0.555 0.018 0.124 3 
0.556 0.011 0.124 3 
0.556 0.004 0.124 3 
0.556 -0.005 0.124 3 
0.556 -0.016 0.124 3 
0.557 -0.026 0.124 3 
0.558 -0.037 0.124 3 
0.555 0.042 0.082 3 
0.555 0.098 0.082 3 
0.555 0.091 0.082 3 
0.554 0.088 0.082 3 
0.554 0.084 0.082 3 
0.554 0.074 0.082 3 
0.553 0.063 0.082 3 
0.554 0.053 0.082 3 
0.555 0.049 0.082 3 
0.554 0.105 0.082 3 
0.555 0.032 0.082 3 
0.555 0.022 0.082 3 
0.556 0.011 0.082 3 
0.557 0.004 0.082 3 
0.557 -0.005 0.082 3 
0.556 -0.016 0.082 3 
0.556 -0.026 0.082 3 
0.557 -0.037 0.082 3 
0.552 0.193 0.082 3 
0.555 0.119 0.085 3 
0.555 0.112 0.085 3 
0.565 -0.199 0.087 3 
0.56 -0.086 0.083 3 
0.553 0.23 0.082 3 
0.553 0.222 0.082 3 
0.552 0.211 0.082 3 
0.553 0.204 0.082 3 
0.558 -0.047 0.082 3 
0.552 0.182 0.082 3 
0.553 0.172 0.082 3 
0.554 0.161 0.082 3 
0.553 0.154 0.082 3 
0.554 0.144 0.082 3 
0.554 0.133 0.082 3 
0.555 0.123 0.082 3 
0.555 0.112 0.082 3 
0.555 0.133 0.071 3 
0.553 0.222 0.071 3 
0.552 0.214 0.071 3 
0.552 0.193 0.071 3 
0.553 0.182 0.071 3 
0.553 0.172 0.071 3 
0.554 0.161 0.071 3 
0.554 0.154 0.071 3 
0.554 0.144 0.071 3 
0.552 0.229 0.071 3 
0.554 0.126 0.071 3 
0.555 0.123 0.071 3 
0.554 0.112 0.071 3 
0.554 0.101 0.071 3 
0.554 0.094 0.071 3 
0.554 0.073 0.071 3 
0.554 0.063 0.071 3 
0.555 0.053 0.071 3 
0.563 -0.147 0.083 3 
0.557 -0.057 0.082 3 
0.558 -0.068 0.082 3 
0.559 -0.075 0.082 3 
0.56 -0.097 0.083 3 
0.56 -0.107 0.083 3 
0.561 -0.118 0.083 3 
0.561 -0.125 0.083 3 
0.563 -0.137 0.083 3 
0.564 -0.195 0.094 3 
0.562 -0.158 0.083 3 
0.562 -0.165 0.083 3 
0.563 -0.176 0.083 3 
0.564 -0.188 0.083 3 
0.564 -0.195 0.083 3 
0.555 0.126 0.078 3 
0.565 -0.199 0.08 3 
0.553 0.23 0.092 3 
0.562 -0.147 0.104 3 
0.563 -0.155 0.104 3 
0.563 -0.166 0.104 3 
0.564 -0.195 0.105 3 
0.563 -0.176 0.101 3 
0.563 -0.187 0.101 3 
0.564 -0.195 0.101 3 
0.555 0.046 0.096 3 
0.562 -0.137 0.104 3 
0.553 0.222 0.092 3 
0.552 0.211 0.092 3 
0.552 0.204 0.092 3 
0.552 0.193 0.092 3 
0.553 0.183 0.092 3 
0.553 0.172 0.092 3 
0.554 0.162 0.092 3 
0.554 0.154 0.092 3 
0.559 -0.047 0.103 3 
0.555 0.032 0.103 3 
0.555 0.022 0.103 3 
0.556 0.011 0.103 3 
0.556 0.004 0.103 3 
0.556 -0.005 0.103 3 
0.556 -0.016 0.103 3 
0.557 -0.026 0.103 3 
0.558 -0.037 0.103 3 
0.554 0.133 0.092 3 
0.558 -0.058 0.103 3 
0.558 -0.065 0.103 3 
0.559 -0.075 0.103 3 
0.56 -0.086 0.104 3 
0.559 -0.107 0.061 3 
0.56 -0.097 0.104 3 
0.552 0.111 0.033 3 
0.561 -0.115 0.104 3 
0.56 -0.107 0.093 3 
0.556 -0.016 0.092 3 
0.558 -0.037 0.093 3 
0.558 -0.047 0.093 3 
0.558 -0.058 0.093 3 
0.558 -0.065 0.093 3 
0.559 -0.086 0.093 3 
0.56 -0.097 0.093 3 
0.553 0.094 0.044 3 
0.556 -0.005 0.092 3 
0.561 -0.115 0.093 3 
0.561 -0.125 0.093 3 
0.561 -0.136 0.093 3 
0.562 -0.147 0.093 3 
0.562 -0.158 0.094 3 
0.562 -0.165 0.094 3 
0.563 -0.176 0.094 3 
0.564 -0.188 0.094 3 
0.554 0.074 0.092 3 
0.559 -0.075 0.093 3 
0.554 0.123 0.092 3 
0.554 0.112 0.092 3 
0.555 0.102 0.092 3 
0.554 0.095 0.092 3 
0.555 0.091 0.092 3 
0.554 0.088 0.092 3 
0.554 0.084 0.092 3 
0.554 0.194 0.131 3 
0.553 0.063 0.092 3 
0.554 0.053 0.092 3 
0.555 0.049 0.092 3 
0.555 0.042 0.092 3 
0.555 0.022 0.092 3 
0.556 0.011 0.092 3 
0.556 0.004 0.092 3 
