# .PCD v0.7 - Point Cloud Data file
FIELDS x y z intensity
SIZE 4 4 4 4
TYPE F F F F
COUNT 1 1 1 1
WIDTH 2420
HEIGHT 1
VIEWPOINT 0 0 0 1 0 0 0
POINTS 2420
DATA ascii
0.36 0.023 0.005 0 
0.499 -0.043 0.022 0 
0.503 -0.065 0.121 0 
0.43 -0.053 0.001 0 
0.417 -0.055 0.004 0 
0.426 -0.059 0.002 0 
0.414 -0.059 0.005 0 
0.588 -0.085 0.175 0 
0.4 0.044 0.005 0 
0.373 0.02 0 0 
0.364 0.016 0.001 0 
0.373 0.028 0.002 0 
0.395 0.081 0.006 0 
0.4 0.074 0.007 0 
0.442 -0.068 0.006 0 
0.596 -0.036 0.092 0 
0.593 -0.036 0.088 0 
0.588 -0.028 0.088 0 
0.597 -0.033 0.096 0 
0.595 -0.032 0.092 0 
0.374 -0.238 -0.026 1 
0.363 -0.156 -0.018 1 
0.362 -0.146 -0.017 1 
0.362 -0.136 -0.017 1 
0.359 -0.125 -0.016 1 
0.358 -0.095 -0.015 1 
0.353 -0.055 -0.012 1 
0.353 -0.046 -0.012 1 
0.352 -0.036 -0.012 1 
0.343 -0.026 -0.008 1 
0.341 -0.024 -0.008 1 
0.334 -0.002 -0.005 1 
0.353 0.034 -0.012 1 
0.352 0.044 -0.012 1 
0.354 0.063 -0.013 1 
0.353 0.073 -0.013 1 
0.353 0.083 -0.013 1 
0.354 0.094 -0.014 1 
0.348 0.124 -0.012 1 
0.351 0.154 -0.015 1 
0.381 -0.231 -0.025 1 
0.369 -0.147 -0.018 1 
0.362 -0.108 -0.014 1 
0.364 -0.107 -0.015 1 
0.361 -0.085 -0.014 1 
0.362 -0.066 -0.014 1 
0.331 -0.01 -0.002 1 
0.343 0.003 -0.007 1 
0.344 0.005 -0.007 1 
0.359 0.043 -0.013 1 
0.36 0.074 -0.014 1 
0.354 0.108 -0.012 1 
0.359 0.122 -0.015 1 
0.354 0.128 -0.013 1 
0.353 0.168 -0.014 1 
0.353 0.174 -0.015 1 
0.351 0.194 -0.015 1 
0.349 0.211 -0.016 1 
0.384 -0.255 -0.026 1 
0.384 -0.247 -0.025 1 
0.384 -0.242 -0.025 1 
0.383 -0.236 -0.024 1 
0.381 -0.226 -0.023 1 
0.374 -0.186 -0.019 1 
0.372 -0.176 -0.018 1 
0.374 -0.136 -0.018 1 
0.374 -0.126 -0.017 1 
0.372 -0.115 -0.016 1 
0.368 -0.079 -0.014 1 
0.364 -0.056 -0.013 1 
0.334 -0.026 -0.002 1 
0.352 0.013 -0.008 1 
0.353 0.017 -0.009 1 
0.364 0.03 -0.013 1 
0.363 0.084 -0.013 1 
0.364 0.09 -0.014 1 
0.361 0.114 -0.013 1 
0.363 0.117 -0.014 1 
0.362 0.134 -0.014 1 
0.363 0.152 -0.015 1 
0.353 0.216 -0.015 1 
0.374 -0.095 -0.015 1 
0.374 -0.087 -0.015 1 
0.373 -0.085 -0.014 1 
0.374 -0.083 -0.015 1 
0.373 -0.055 -0.014 1 
0.369 -0.045 -0.012 1 
0.37 0.083 -0.014 1 
0.372 0.103 -0.015 1 
0.369 0.113 -0.014 1 
0.37 0.116 -0.015 1 
0.368 0.144 -0.015 1 
0.364 0.188 -0.015 1 
0.393 -0.265 -0.025 1 
0.394 -0.258 -0.025 1 
0.394 -0.245 -0.024 1 
0.392 -0.235 -0.023 1 
0.39 -0.225 -0.022 1 
0.384 -0.211 -0.019 1 
0.384 -0.162 -0.018 1 
0.383 -0.125 -0.016 1 
0.383 -0.115 -0.016 1 
0.382 -0.105 -0.016 1 
0.379 -0.099 -0.015 1 
0.381 -0.086 -0.015 1 
0.381 -0.076 -0.015 1 
0.374 -0.042 -0.012 1 
0.364 0.016 -0.009 1 
0.374 0.026 -0.013 1 
0.378 0.079 -0.015 1 
0.376 0.103 -0.014 1 
0.374 0.12 -0.014 1 
0.371 0.144 -0.014 1 
0.374 0.156 -0.015 1 
0.369 0.182 -0.015 1 
0.365 0.22 -0.015 1 
0.364 0.221 -0.015 1 
0.398 -0.246 -0.023 1 
0.392 -0.186 -0.019 1 
0.391 -0.156 -0.018 1 
0.384 -0.095 -0.014 1 
0.384 -0.093 -0.014 1 
0.386 -0.074 -0.015 1 
0.384 -0.06 -0.014 1 
0.384 -0.05 -0.014 1 
0.364 0.002 -0.007 1 
0.382 0.043 -0.013 1 
0.383 0.053 -0.014 1 
0.382 0.074 -0.014 1 
0.383 0.084 -0.014 1 
0.384 0.101 -0.015 1 
0.382 0.114 -0.015 1 
0.381 0.124 -0.014 1 
0.379 0.133 -0.014 1 
0.38 0.163 -0.015 1 
0.375 0.174 -0.014 1 
0.374 0.191 -0.015 1 
0.372 0.237 -0.016 1 
0.402 -0.275 -0.023 1 
0.403 -0.265 -0.023 1 
0.371 0.054 -0.014 1 
0.404 -0.255 -0.023 1 
0.384 -0.217 -0.019 1 
0.401 -0.226 -0.021 1 
0.393 -0.125 -0.015 1 
0.394 -0.115 -0.016 1 
0.394 -0.094 -0.015 1 
0.394 -0.079 -0.015 1 
0.39 -0.055 -0.014 1 
0.391 -0.051 -0.014 1 
0.445 -0.059 -0.031 1 
0.302 -0.015 0.013 1 
0.3 -0.005 0.014 1 
0.384 0.027 -0.012 1 
0.39 0.085 -0.015 1 
0.39 0.104 -0.015 1 
0.389 0.114 -0.015 1 
0.387 0.134 -0.015 1 
0.384 0.144 -0.014 1 
0.384 0.159 -0.014 1 
0.385 0.164 -0.015 1 
0.382 0.174 -0.015 1 
0.378 0.183 -0.014 1 
0.383 0.213 -0.016 1 
0.373 0.153 -0.015 1 
0.381 0.232 -0.017 1 
0.381 0.242 -0.017 1 
0.381 0.247 -0.018 1 
0.409 -0.266 -0.022 1 
0.412 -0.258 -0.023 1 
0.403 -0.195 -0.018 1 
0.403 -0.176 -0.018 1 
0.403 -0.166 -0.017 1 
0.398 -0.106 -0.015 1 
0.398 -0.097 -0.015 1 
0.399 -0.081 -0.015 1 
0.394 -0.068 -0.013 1 
0.401 -0.054 -0.015 1 
0.438 -0.057 -0.026 1 
0.374 0.004 -0.007 1 
0.393 0.043 -0.013 1 
0.394 0.064 -0.013 1 
0.393 0.074 -0.013 1 
0.394 0.08 -0.014 1 
0.394 0.093 -0.014 1 
0.394 0.103 -0.014 1 
0.394 0.108 -0.014 1 
0.396 0.113 -0.015 1 
0.391 0.134 -0.014 1 
0.392 0.139 -0.014 1 
0.393 0.144 -0.015 1 
0.392 0.152 -0.015 1 
0.389 0.163 -0.014 1 
0.387 0.173 -0.014 1 
0.412 -0.287 -0.022 1 
0.41 -0.235 -0.019 1 
0.408 -0.228 -0.018 1 
0.404 -0.212 -0.017 1 
0.404 -0.186 -0.016 1 
0.404 -0.156 -0.015 1 
0.403 -0.146 -0.015 1 
0.404 -0.135 -0.015 1 
0.404 -0.095 -0.014 1 
0.404 -0.087 -0.014 1 
0.404 -0.054 -0.014 1 
0.302 -0.025 0.016 1 
0.379 0.004 -0.006 1 
0.384 0.018 -0.008 1 
0.401 0.053 -0.013 1 
0.4 0.063 -0.013 1 
0.399 0.074 -0.013 1 
0.383 -0.185 -0.018 1 
0.389 -0.146 -0.017 1 
0.399 0.104 -0.013 1 
0.373 -0.106 -0.016 1 
0.302 -0.025 0.013 1 
0.401 0.124 -0.014 1 
0.397 0.174 -0.015 1 
0.395 0.184 -0.015 1 
0.392 0.193 -0.014 1 
0.392 0.2 -0.014 1 
0.394 0.218 -0.016 1 
0.392 0.244 -0.016 1 
0.422 -0.295 -0.023 1 
0.423 -0.267 -0.021 1 
0.363 -0.006 -0.007 1 
0.414 -0.216 -0.017 1 
0.413 -0.205 -0.017 1 
0.413 -0.195 -0.017 1 
0.413 -0.166 -0.016 1 
0.411 -0.155 -0.015 1 
0.41 -0.152 -0.015 1 
0.409 -0.147 -0.014 1 
0.41 -0.132 -0.014 1 
0.413 -0.126 -0.015 1 
0.41 -0.107 -0.014 1 
0.409 -0.086 -0.013 1 
0.41 -0.075 -0.014 1 
0.41 -0.067 -0.013 1 
0.41 -0.053 -0.013 1 
0.384 0.012 -0.006 1 
0.403 0.134 -0.013 1 
0.402 0.154 -0.013 1 
0.399 0.163 -0.013 1 
0.402 0.189 -0.015 1 
0.402 0.223 -0.016 1 
0.4 0.234 -0.016 1 
0.424 -0.285 -0.02 1 
0.424 -0.237 -0.018 1 
0.422 -0.225 -0.017 1 
0.417 -0.216 -0.016 1 
0.419 -0.195 -0.016 1 
0.419 -0.158 -0.015 1 
0.414 -0.138 -0.013 1 
0.444 -0.058 -0.021 1 
0.343 -0.007 -0.005 1 
0.336 0.009 0.009 1 
0.351 -0.006 -0.006 1 
0.345 0.011 0.006 1 
0.403 0.143 -0.013 1 
0.394 0.023 -0.007 1 
0.413 0.053 -0.012 1 
0.414 0.063 -0.013 1 
0.414 0.074 -0.013 1 
0.413 0.082 -0.013 1 
0.414 0.094 -0.013 1 
0.414 0.122 -0.014 1 
0.41 0.133 -0.013 1 
0.413 0.154 -0.014 1 
0.406 0.163 -0.012 1 
0.4 0.192 -0.012 1 
0.364 0.014 -0.009 1 
0.403 -0.236 -0.022 1 
0.407 0.223 -0.015 1 
0.404 0.243 -0.015 1 
0.403 0.263 -0.015 1 
0.4 0.268 -0.015 1 
0.431 -0.275 -0.019 1 
0.427 -0.196 -0.016 1 
0.426 -0.185 -0.015 1 
0.425 -0.177 -0.015 1 
0.423 -0.156 -0.014 1 
0.422 -0.145 -0.013 1 
0.422 -0.136 -0.013 1 
0.423 -0.117 -0.013 1 
0.368 0.214 -0.016 1 
0.423 -0.105 -0.013 1 
0.423 -0.075 -0.013 1 
0.423 -0.066 -0.013 1 
0.424 -0.059 -0.013 1 
0.322 0.013 0.014 1 
0.384 0.024 -0.002 1 
0.4 0.032 -0.007 1 
0.419 0.064 -0.012 1 
0.414 0.143 -0.012 1 
0.361 0.164 -0.015 1 
0.414 0.174 -0.013 1 
0.413 0.193 -0.013 1 
0.412 0.212 -0.013 1 
0.414 0.232 -0.015 1 
0.414 0.242 -0.015 1 
0.414 0.253 -0.015 1 
0.414 0.273 -0.016 1 
0.411 0.281 -0.016 1 
0.434 -0.29 -0.018 1 
0.435 -0.264 -0.017 1 
0.433 -0.245 -0.016 1 
0.432 -0.228 -0.015 1 
0.431 -0.209 -0.015 1 
0.431 -0.207 -0.014 1 
0.38 -0.074 -0.015 1 
0.432 -0.197 -0.014 1 
0.43 -0.185 -0.014 1 
0.374 0.098 -0.014 1 
0.431 -0.176 -0.014 1 
0.43 -0.165 -0.013 1 
0.43 -0.157 -0.013 1 
0.43 -0.145 -0.013 1 
0.431 -0.135 -0.013 1 
0.43 -0.125 -0.013 1 
0.43 -0.106 -0.012 1 
0.432 -0.097 -0.013 1 
0.429 -0.086 -0.012 1 
0.431 -0.075 -0.012 1 
0.431 -0.065 -0.012 1 
0.432 -0.058 -0.013 1 
0.478 -0.057 -0.025 1 
0.327 0.016 0.014 1 
0.34 0.019 0.011 1 
0.389 0.032 -0.001 1 
0.424 0.049 -0.011 1 
0.423 0.074 -0.011 1 
0.424 0.093 -0.011 1 
0.424 0.103 -0.012 1 
0.424 0.124 -0.012 1 
0.422 0.154 -0.012 1 
0.42 0.164 -0.012 1 
0.42 0.173 -0.012 1 
0.419 0.284 -0.016 1 
0.432 -0.309 -0.015 1 
0.44 -0.275 -0.016 1 
0.439 -0.24 -0.015 1 
0.472 -0.056 -0.02 1 
0.418 -0.177 -0.015 1 
0.424 0.044 -0.009 1 
0.429 0.124 -0.011 1 
0.427 0.143 -0.011 1 
0.424 0.181 -0.011 1 
0.423 0.193 -0.011 1 
0.424 0.204 -0.011 1 
0.423 0.214 -0.012 1 
0.421 0.222 -0.011 1 
0.422 0.234 -0.012 1 
0.424 0.244 -0.013 1 
0.422 0.253 -0.013 1 
0.424 0.283 -0.014 1 
0.425 0.29 -0.015 1 
0.422 0.29 -0.014 1 
0.426 0.298 -0.015 1 
0.434 -0.311 -0.013 1 
0.444 -0.316 -0.016 1 
0.417 -0.206 -0.016 1 
0.445 -0.308 -0.016 1 
0.444 -0.303 -0.015 1 
0.445 -0.295 -0.015 1 
0.445 -0.289 -0.015 1 
0.413 0.103 -0.013 1 
0.442 -0.236 -0.013 1 
0.441 -0.225 -0.012 1 
0.439 -0.215 -0.012 1 
0.442 -0.196 -0.012 1 
0.443 -0.186 -0.012 1 
0.442 -0.175 -0.012 1 
0.442 -0.167 -0.011 1 
0.443 -0.155 -0.011 1 
0.444 -0.145 -0.012 1 
0.444 -0.137 -0.011 1 
0.443 -0.126 -0.011 1 
0.441 -0.115 -0.01 1 
0.441 -0.105 -0.01 1 
0.41 -0.096 -0.014 1 
0.44 -0.095 -0.01 1 
0.434 0.053 -0.009 1 
0.434 0.055 -0.009 1 
0.434 0.072 -0.009 1 
0.433 0.084 -0.009 1 
0.433 0.094 -0.009 1 
0.434 0.146 -0.01 1 
0.434 0.162 -0.011 1 
0.43 0.172 -0.01 1 
0.427 0.222 -0.01 1 
0.43 0.252 -0.012 1 
0.452 -0.329 -0.015 1 
0.453 -0.317 -0.015 1 
0.444 -0.288 -0.012 1 
0.444 -0.27 -0.011 1 
0.443 -0.257 -0.011 1 
0.449 -0.145 -0.01 1 
0.45 -0.137 -0.01 1 
0.444 -0.076 -0.008 1 
0.444 -0.058 -0.008 1 
0.483 -0.052 -0.018 1 
0.449 0.1 -0.01 1 
0.435 0.114 -0.007 1 
0.439 0.121 -0.008 1 
0.441 0.132 -0.009 1 
0.44 0.144 -0.009 1 
0.434 0.183 -0.008 1 
0.432 0.194 -0.008 1 
0.432 0.202 -0.008 1 
0.434 0.214 -0.009 1 
0.433 0.233 -0.009 1 
0.434 0.242 -0.01 1 
0.434 0.261 -0.011 1 
0.434 0.273 -0.011 1 
0.43 0.302 -0.011 1 
0.453 -0.297 -0.012 1 
0.453 -0.275 -0.011 1 
0.423 0.133 -0.012 1 
0.454 -0.267 -0.011 1 
0.453 -0.255 -0.01 1 
0.45 -0.246 -0.009 1 
0.451 -0.235 -0.009 1 
0.454 -0.226 -0.01 1 
0.452 -0.206 -0.009 1 
0.454 -0.196 -0.01 1 
0.453 -0.187 -0.009 1 
0.454 -0.158 -0.009 1 
0.454 -0.115 -0.008 1 
0.454 -0.105 -0.008 1 
0.454 -0.097 -0.008 1 
0.447 -0.067 -0.007 1 
0.484 -0.061 -0.015 1 
0.486 -0.056 -0.015 1 
0.371 0.044 -0.014 1 
0.489 -0.053 -0.016 1 
0.354 0.143 -0.015 1 
0.387 0.123 -0.014 1 
0.44 0.054 -0.005 1 
0.441 0.062 -0.006 1 
0.434 0.094 -0.004 1 
0.444 0.163 -0.008 1 
0.441 0.174 -0.007 1 
0.44 0.184 -0.007 1 
0.44 0.192 -0.008 1 
0.438 0.204 -0.007 1 
0.442 0.243 -0.009 1 
0.443 0.316 -0.012 1 
0.454 -0.219 -0.007 1 
0.458 -0.08 -0.006 1 
0.449 -0.059 -0.004 1 
0.451 -0.057 -0.005 1 
0.486 -0.056 -0.013 1 
0.491 -0.051 -0.014 1 
0.438 0.054 -0.002 1 
0.439 0.061 -0.003 1 
0.45 0.069 -0.005 1 
0.453 0.085 -0.006 1 
0.424 0.084 0 1 
0.453 0.133 -0.007 1 
0.451 0.153 -0.006 1 
0.444 0.274 -0.008 1 
0.444 0.28 -0.008 1 
0.444 0.292 -0.009 1 
0.444 0.301 -0.009 1 
0.443 0.31 -0.009 1 
0.464 -0.335 -0.009 1 
0.409 0.099 0 1 
0.464 -0.322 -0.009 1 
0.462 -0.256 -0.007 1 
0.459 -0.217 -0.006 1 
0.462 -0.196 -0.006 1 
0.462 -0.176 -0.006 1 
0.463 -0.157 -0.006 1 
0.462 -0.135 -0.005 1 
0.462 -0.116 -0.005 1 
0.464 -0.103 -0.005 1 
0.475 -0.095 -0.008 1 
0.454 -0.05 -0.003 1 
0.472 -0.051 -0.007 1 
0.404 -0.065 -0.014 1 
0.371 -0.065 -0.013 1 
0.393 -0.208 -0.02 1 
0.459 0.124 -0.005 1 
0.456 0.142 -0.005 1 
0.453 0.163 -0.005 1 
0.453 0.173 -0.005 1 
0.394 0.233 -0.016 1 
0.391 0 -0.008 1 
0.453 0.184 -0.005 1 
0.454 0.193 -0.005 1 
0.453 0.204 -0.005 1 
0.454 0.213 -0.006 1 
0.453 0.224 -0.006 1 
0.451 0.234 -0.006 1 
0.452 0.243 -0.006 1 
0.449 0.252 -0.006 1 
0.448 0.263 -0.006 1 
0.451 0.325 -0.008 1 
0.468 -0.316 -0.007 1 
0.47 -0.308 -0.007 1 
0.457 0.134 -0.005 1 
0.466 -0.285 -0.005 1 
0.467 -0.276 -0.005 1 
0.468 -0.255 -0.005 1 
0.469 -0.247 -0.005 1 
0.469 -0.238 -0.005 1 
0.467 -0.231 -0.005 1 
0.464 -0.186 -0.003 1 
0.477 -0.09 -0.005 1 
0.474 -0.087 -0.005 1 
0.364 -0.033 -0.012 1 
0.412 -0.185 -0.016 1 
0.381 -0.065 -0.013 1 
0.453 0.264 -0.004 1 
0.454 0.284 -0.005 1 
0.444 -0.247 -0.011 1 
0.455 0.291 -0.005 1 
0.454 0.293 -0.005 1 
0.452 0.304 -0.005 1 
0.451 0.312 -0.005 1 
0.451 0.319 -0.005 1 
0.455 0.33 -0.007 1 
0.468 -0.346 -0.005 1 
0.471 -0.336 -0.005 1 
0.429 0.134 -0.011 1 
0.444 0.262 -0.008 1 
0.47 -0.331 -0.005 1 
0.455 0.152 -0.005 1 
0.445 0.093 0.002 1 
0.473 -0.338 -0.002 1 
0.473 -0.328 -0.002 1 
0.458 0.087 -0.01 1 
0.475 -0.087 0 1 
0.462 -0.078 0.002 1 
0.452 -0.073 0.004 1 
0.444 0.068 -0.006 1 
0.449 0.084 0.004 1 
0.421 0.083 -0.01 1 
0.441 -0.085 -0.01 1 
0.44 0.086 0.006 1 
0.465 0.146 0.001 1 
0.461 0.224 0 1 
0.477 -0.308 0 1 
0.475 -0.296 0 1 
0.471 -0.225 0.002 1 
0.471 -0.216 0.002 1 
0.471 -0.207 0.002 1 
0.469 -0.197 0.003 1 
0.469 -0.186 0.003 1 
0.47 -0.175 0.003 1 
0.469 -0.155 0.003 1 
0.469 -0.146 0.003 1 
0.373 -0.207 -0.022 1 
0.424 0.11 -0.012 1 
0.469 -0.135 0.003 1 
0.469 -0.085 0.004 1 
0.474 -0.076 0.003 1 
0.481 -0.075 0.002 1 
0.441 -0.206 -0.012 1 
0.45 -0.085 -0.007 1 
0.452 0.088 0.006 1 
0.463 0.112 0.004 1 
0.464 0.118 0.004 1 
0.466 0.133 0.003 1 
0.465 0.144 0.003 1 
0.463 0.154 0.003 1 
0.463 0.162 0.003 1 
0.464 0.174 0.003 1 
0.465 0.178 0.003 1 
0.464 0.183 0.003 1 
0.464 0.194 0.003 1 
0.464 0.197 0.003 1 
0.466 0.201 0.002 1 
0.466 0.213 0.002 1 
0.465 0.224 0.002 1 
0.463 0.231 0.002 1 
0.464 0.244 0.002 1 
0.473 -0.355 0.002 1 
0.474 -0.349 0.002 1 
0.477 -0.346 0.002 1 
0.356 0.104 -0.013 1 
0.476 -0.337 0.002 1 
0.423 -0.086 -0.013 1 
0.476 -0.327 0.002 1 
0.383 0.154 -0.014 1 
0.474 -0.315 0.003 1 
0.473 -0.288 0.004 1 
0.473 -0.278 0.004 1 
0.374 0.015 -0.009 1 
0.455 0.073 -0.006 1 
0.522 -0.065 -0.001 1 
0.52 -0.062 -0.001 1 
0.448 0.058 0.01 1 
0.373 0.183 -0.014 1 
0.444 -0.066 -0.008 1 
0.438 0.071 0.011 1 
0.384 -0.179 -0.018 1 
0.463 0.264 0.004 1 
0.463 0.273 0.004 1 
0.463 0.292 0.004 1 
0.462 0.301 0.003 1 
0.463 0.311 0.003 1 
0.463 0.321 0.003 1 
0.464 0.333 0.002 1 
0.475 -0.306 0.006 1 
0.547 -0.066 -0.002 1 
0.374 0.148 -0.013 1 
0.466 0.343 0.004 1 
0.467 -0.055 0.012 1 
0.463 -0.052 0.013 1 
0.466 -0.047 0.012 1 
0.462 0.104 0.004 1 
0.483 -0.038 0.01 1 
0.511 -0.035 0.005 1 
0.389 0.154 -0.014 1 
0.539 -0.028 0.001 1 
0.46 0.053 0.013 1 
0.459 0.063 0.013 1 
0.459 0.074 0.013 1 
0.412 0.202 -0.013 1 
0.382 -0.146 -0.017 1 
0.459 -0.085 -0.007 1 
0.454 -0.166 -0.009 1 
0.463 -0.105 -0.005 1 
0.384 0.191 -0.014 1 
0.553 -0.029 0.003 1 
0.56 -0.026 0.002 1 
0.563 -0.023 0.001 1 
0.546 -0.019 0.004 1 
0.462 -0.126 -0.005 1 
0.463 -0.146 -0.005 1 
0.463 -0.165 -0.006 1 
0.462 -0.187 -0.006 1 
0.461 -0.227 -0.006 1 
0.449 -0.306 -0.014 1 
0.464 -0.246 -0.007 1 
0.439 0.252 -0.009 1 
0.463 -0.285 -0.008 1 
0.583 -0.05 0.002 1 
0.573 -0.024 0.003 1 
0.464 -0.325 -0.009 1 
0.576 -0.049 0.007 1 
0.444 -0.276 -0.012 1 
0.414 0.112 -0.014 1 
0.372 0.111 -0.015 1 
0.574 -0.031 0.011 1 
0.474 -0.308 0.003 1 
0.576 -0.028 0.01 1 
0.567 -0.023 0.011 1 
0.564 -0.02 0.012 1 
0.344 0.018 -0.009 1 
0.339 -0.008 -0.004 1 
0.436 -0.265 -0.015 1 
0.435 0.104 -0.007 1 
0.401 -0.086 -0.015 1 
0.451 0.142 -0.006 1 
0.438 -0.247 -0.015 1 
0.469 -0.127 0.003 1 
0.454 -0.177 -0.009 1 
0.393 0.26 -0.015 1 
0.472 -0.249 0.004 1 
0.412 -0.112 -0.015 1 
0.454 0.122 -0.007 1 
0.468 -0.296 -0.006 1 
0.364 -0.07 -0.015 1 
0.44 0.152 -0.009 1 
0.353 0.163 -0.014 1 
0.382 0.12 -0.015 1 
0.424 -0.256 -0.019 1 
0.433 0.284 -0.011 1 
0.39 -0.196 -0.019 1 
0.492 -0.071 0.003 1 
0.462 0.142 -0.001 1 
0.363 0.144 -0.015 1 
0.325 0.008 0.013 1 
0.463 0.338 0 1 
0.393 0.029 -0.005 1 
0.353 0.054 -0.013 1 
0.441 0.214 -0.008 1 
0.372 -0.197 -0.021 1 
0.364 0.203 -0.016 1 
0.372 -0.215 -0.024 1 
0.349 -0.029 -0.009 1 
0.374 -0.226 -0.025 1 
0.424 -0.178 -0.014 1 
0.432 0.292 -0.011 1 
0.465 -0.041 0.012 1 
0.37 -0.073 -0.015 1 
0.424 -0.282 -0.02 1 
0.434 0.111 -0.007 1 
0.424 0.272 -0.014 1 
0.468 -0.165 0.003 1 
0.354 0.202 -0.015 1 
0.354 0.003 -0.007 1 
0.393 0.203 -0.015 1 
0.464 -0.039 0.012 1 
0.402 0.213 -0.015 1 
0.459 -0.236 -0.008 1 
0.388 0.122 -0.015 1 
0.414 -0.252 -0.023 1 
0.352 0.104 -0.013 1 
0.473 -0.236 0.002 1 
0.371 0.063 -0.014 1 
0.4 0.113 -0.014 1 
0.413 0.223 -0.014 1 
0.454 -0.126 -0.009 1 
0.425 -0.172 -0.015 1 
0.392 -0.095 -0.015 1 
0.434 -0.238 -0.016 1 
0.431 -0.266 -0.019 1 
0.41 -0.056 -0.013 1 
0.382 0.064 -0.014 1 
0.404 -0.076 -0.014 1 
0.464 -0.299 -0.008 1 
0.395 0.123 -0.015 1 
0.424 -0.245 -0.018 1 
0.473 -0.266 0.004 1 
0.409 0.122 -0.015 1 
0.432 -0.215 -0.015 1 
0.463 0.134 -0.001 1 
0.38 0.201 -0.015 1 
0.419 -0.165 -0.015 1 
0.386 0.183 -0.014 1 
0.479 -0.097 0 1 
0.319 0.014 0.018 1 
0.394 0.254 -0.015 1 
0.402 0.182 -0.014 1 
0.424 -0.096 -0.013 1 
0.364 -0.09 -0.015 1 
0.385 0.014 -0.006 1 
0.47 -0.097 0.003 1 
0.473 -0.297 0.003 1 
0.435 0.092 -0.005 1 
0.359 0.173 -0.015 1 
0.464 -0.267 -0.007 1 
0.456 0.084 -0.007 1 
0.414 0.184 -0.013 1 
0.465 0.124 0.003 1 
0.413 0.04 -0.008 1 
0.423 0.262 -0.013 1 
0.42 0.144 -0.011 1 
0.434 -0.296 -0.018 1 
0.404 -0.215 -0.017 1 
0.444 -0.285 -0.015 1 
0.443 0.082 -0.009 1 
0.464 0.253 0.001 1 
0.453 -0.285 -0.011 1 
0.454 0.274 -0.005 1 
0.39 -0.177 -0.018 1 
0.411 -0.177 -0.015 1 
0.314 -0.01 0.001 1 
0.404 -0.056 -0.014 1 
0.451 -0.075 -0.005 1 
0.404 -0.126 -0.015 1 
0.419 0.261 -0.015 1 
0.381 0.126 -0.015 1 
0.39 -0.248 -0.025 1 
0.414 -0.115 -0.015 1 
0.371 0.234 -0.016 1 
0.364 -0.051 -0.012 1 
0.394 0.047 -0.013 1 
0.433 0.104 -0.009 1 
0.305 -0.013 0.005 1 
0.374 0.009 -0.007 1 
0.42 -0.186 -0.016 1 
0.363 -0.075 -0.014 1 
0.364 0.184 -0.015 1 
0.402 0.173 -0.014 1 
0.559 -0.044 0.002 1 
0.419 0.272 -0.015 1 
0.444 -0.313 -0.016 1 
0.353 0.184 -0.015 1 
0.434 -0.255 -0.016 1 
0.382 -0.198 -0.02 1 
0.38 0.224 -0.016 1 
0.454 0.083 -0.009 1 
0.394 0.211 -0.015 1 
0.374 -0.159 -0.018 1 
0.384 -0.166 -0.018 1 
0.454 0.271 -0.004 1 
0.371 0.173 -0.015 1 
0.392 -0.105 -0.015 1 
0.36 0.054 -0.013 1 
0.394 -0.26 -0.022 1 
0.374 0.094 -0.013 1 
0.361 0.063 -0.014 1 
0.444 0.065 -0.004 1 
0.409 -0.053 -0.015 1 
0.401 0.083 -0.014 1 
0.466 -0.266 -0.005 1 
0.403 0.247 -0.015 1 
0.463 0.283 0.004 1 
0.455 0.075 -0.004 1 
0.362 0.141 -0.014 1 
0.38 0.192 -0.015 1 
0.472 -0.255 0.004 1 
0.454 0.104 -0.001 1 
0.404 0.036 -0.006 1 
0.362 -0.115 -0.015 1 
0.404 0.2 -0.013 1 
0.431 -0.116 -0.013 1 
0.362 -0.036 -0.012 1 
0.391 -0.096 -0.014 1 
0.443 0.224 -0.009 1 
0.373 0.133 -0.014 1 
0.417 0.287 -0.015 1 
0.389 -0.165 -0.017 1 
0.413 -0.282 -0.022 1 
0.414 0.264 -0.016 1 
0.321 -0.02 0 1 
0.413 0.228 -0.014 1 
0.475 -0.319 0.003 1 
0.462 -0.207 -0.006 1 
0.38 0.093 -0.013 1 
0.455 0.155 -0.005 1 
0.423 -0.127 -0.013 1 
0.464 -0.277 -0.008 1 
0.467 -0.063 -0.03 1 
0.442 0.232 -0.009 1 
0.468 -0.096 -0.006 1 
0.464 0.214 0 1 
0.465 0.13 0.006 1 
0.404 -0.122 -0.015 1 
0.383 -0.136 -0.017 1 
0.37 0.202 -0.016 1 
0.385 -0.092 -0.014 1 
0.459 -0.306 -0.01 1 
0.389 -0.135 -0.017 1 
0.359 0.213 -0.015 1 
0.371 -0.165 -0.017 1 
0.371 0.072 -0.014 1 
0.369 0.133 -0.015 1 
0.42 0.101 -0.001 1 
0.4 0.093 -0.014 1 
0.335 0.029 0.033 2 
0.335 0.064 0.033 2 
0.344 0.053 0.036 2 
0.33 0.023 0.028 2 
0.351 0.057 0.035 2 
0.36 0.063 0.03 2 
0.333 0.045 0.039 2 
0.35 0.053 0.035 2 
0.371 0.065 0.031 2 
0.322 0.063 0.037 2 
0.332 0.066 0.033 2 
0.328 0.033 0.037 2 
0.369 0.071 0.028 2 
0.35 0.068 0.031 2 
0.336 0.066 0.034 2 
0.328 0.064 0.036 2 
0.377 0.066 0.028 2 
0.368 -0.035 0.029 2 
0.569 -0.027 0.053 2 
0.586 -0.043 0.059 2 
0.574 -0.045 0.037 2 
0.582 -0.024 0.082 2 
0.57 -0.031 0.06 2 
0.59 -0.036 0.082 2 
0.588 -0.032 0.082 2 
0.576 -0.035 0.059 2 
0.592 -0.055 0.059 2 
0.553 -0.019 0.053 2 
0.585 -0.054 0.029 2 
0.583 -0.05 0.029 2 
0.596 -0.059 0.059 2 
0.579 -0.042 0.03 2 
0.53 -0.018 0.056 2 
0.574 -0.038 0.03 2 
0.563 -0.023 0.056 2 
0.557 -0.023 0.032 2 
0.553 -0.019 0.032 2 
0.548 -0.019 0.036 2 
0.593 -0.051 0.067 2 
0.557 -0.023 0.042 2 
0.587 -0.047 0.052 2 
0.583 -0.028 0.082 2 
0.555 -0.019 0.021 2 
0.579 -0.028 0.067 2 
0.591 -0.032 0.067 2 
0.579 -0.035 0.067 2 
0.59 -0.04 0.067 2 
0.562 -0.026 0.042 2 
0.58 -0.061 0.066 2 
0.566 -0.023 0.017 2 
0.561 -0.026 0.046 2 
0.595 -0.055 0.063 2 
0.57 -0.023 0.063 2 
0.579 -0.057 0.044 2 
0.566 -0.03 0.02 2 
0.576 -0.046 0.041 2 
0.562 -0.027 0.031 2 
0.565 -0.034 0.031 2 
0.584 -0.035 0.078 2 
0.579 -0.039 0.052 2 
0.585 -0.043 0.052 2 
0.576 -0.042 0.041 2 
0.574 -0.035 0.052 2 
0.59 -0.055 0.051 2 
0.565 -0.023 0.06 2 
0.579 -0.046 0.045 2 
0.564 -0.023 0.053 2 
0.597 -0.044 0.075 2 
0.572 -0.038 0.041 2 
0.59 -0.047 0.059 2 
0.557 -0.054 0.041 2 
0.585 -0.054 0.04 2 
0.566 -0.034 0.041 2 
0.465 0.164 0.114 3 
0.464 0.16 0.12 3 
0.317 0.023 0.021 3 
0.464 0.257 0.118 3 
0.464 0.141 0.117 3 
0.465 0.103 0.117 3 
0.464 0.269 0.116 3 
0.465 0.221 0.115 3 
0.465 0.178 0.114 3 
0.465 0.172 0.114 3 
0.465 0.28 0.122 3 
0.465 0.153 0.114 3 
0.465 0.204 0.112 3 
0.465 0.133 0.114 3 
0.464 0.122 0.114 3 
0.465 0.117 0.114 3 
0.463 0.293 0.082 3 
0.465 0.341 0.094 3 
0.465 0.164 0.123 3 
0.465 0.153 0.122 3 
0.465 0.133 0.122 3 
0.464 0.13 0.122 3 
0.464 0.122 0.122 3 
0.465 0.114 0.122 3 
0.464 0.108 0.122 3 
0.464 0.103 0.122 3 
0.464 0.175 0.12 3 
0.263 0.014 0.074 3 
0.463 0.34 0.123 3 
0.465 0.332 0.123 3 
0.465 0.322 0.123 3 
0.466 0.313 0.123 3 
0.466 0.303 0.122 3 
0.465 0.292 0.122 3 
0.465 0.103 0.114 3 
0.464 0.144 0.111 3 
0.464 0.242 0.112 3 
0.464 0.233 0.112 3 
0.465 0.224 0.112 3 
0.462 0.324 0.043 3 
0.465 0.192 0.112 3 
0.464 0.158 0.111 3 
0.464 0.152 0.111 3 
0.464 0.254 0.113 3 
0.464 0.105 0.111 3 
0.464 0.172 0.136 3 
0.264 0.017 0.074 3 
0.265 0.019 0.074 3 
0.465 0.227 0.11 3 
0.464 0.094 0.052 3 
0.465 0.321 0.114 3 
0.265 -0.004 0.075 3 
0.464 0.1 0.114 3 
0.464 0.094 0.114 3 
0.463 0.083 0.114 3 
0.463 0.073 0.113 3 
0.464 0.341 0.114 3 
0.464 0.334 0.114 3 
0.466 0.333 0.114 3 
0.465 0.114 0.114 3 
0.465 0.311 0.114 3 
0.465 0.302 0.114 3 
0.465 0.292 0.113 3 
0.465 0.283 0.113 3 
0.464 0.275 0.113 3 
0.464 0.272 0.113 3 
0.464 0.263 0.113 3 
0.465 0.322 0.134 3 
0.465 0.114 0.133 3 
0.464 0.108 0.133 3 
0.465 0.103 0.133 3 
0.465 0.092 0.133 3 
0.464 0.084 0.133 3 
0.465 0.079 0.133 3 
0.463 0.34 0.134 3 
0.463 0.333 0.134 3 
0.465 0.122 0.133 3 
0.464 0.314 0.134 3 
0.463 0.303 0.133 3 
0.465 0.293 0.133 3 
0.465 0.283 0.133 3 
0.465 0.274 0.133 3 
0.465 0.261 0.133 3 
0.464 0.132 0.022 3 
0.465 0.252 0.132 3 
0.465 0.202 0.134 3 
0.299 -0.006 0.067 3 
0.461 0.072 0.134 3 
0.267 0.023 0.084 3 
0.269 -0.007 0.084 3 
0.464 0.203 0.093 3 
0.464 0.318 0.137 3 
0.464 0.292 0.136 3 
0.465 0.21 0.134 3 
0.464 0.248 0.132 3 
0.465 0.192 0.134 3 
0.464 0.189 0.134 3 
0.464 0.183 0.134 3 
0.465 0.262 0.054 3 
0.465 0.172 0.134 3 
0.465 0.164 0.134 3 
0.465 0.153 0.133 3 
0.465 0.133 0.133 3 
0.463 0.244 0.123 3 
0.464 0.213 0.126 3 
0.464 0.092 0.124 3 
0.463 0.083 0.124 3 
0.275 0.024 0.082 3 
0.464 0.285 0.124 3 
0.464 0.282 0.124 3 
0.465 0.273 0.124 3 
0.465 0.264 0.124 3 
0.464 0.103 0.127 3 
0.463 0.232 0.123 3 
0.463 0.223 0.123 3 
0.465 0.212 0.123 3 
0.465 0.204 0.123 3 
0.464 0.152 0.092 3 
0.465 0.192 0.123 3 
0.465 0.184 0.123 3 
0.465 0.203 0.082 3 
0.465 0.285 0.071 3 
0.464 0.242 0.132 3 
0.464 0.251 0.124 3 
0.464 0.233 0.132 3 
0.464 0.224 0.132 3 
0.464 0.172 0.131 3 
0.464 0.089 0.13 3 
0.276 0.025 0.084 3 
0.465 0.172 0.123 3 
0.465 0.332 0.132 3 
0.465 0.299 0.131 3 
0.464 0.292 0.13 3 
0.465 0.184 0.128 3 
0.464 0.125 0.127 3 
0.465 0.062 0.063 3 
0.464 0.122 0.127 3 
0.463 0.219 0.084 3 
0.465 0.203 0.09 3 
0.465 0.163 0.09 3 
0.465 0.136 0.09 3 
0.464 0.064 0.034 3 
0.465 0.127 0.09 3 
0.465 0.097 0.09 3 
0.463 0.312 0.054 3 
0.465 0.247 0.088 3 
0.465 0.282 0.091 3 
0.464 0.211 0.084 3 
0.464 0.191 0.084 3 
0.464 0.183 0.084 3 
0.464 0.174 0.084 3 
0.463 0.332 0.054 3 
0.464 0.163 0.084 3 
0.464 0.152 0.084 3 
0.464 0.132 0.092 3 
0.465 0.206 0.093 3 
0.464 0.194 0.093 3 
0.465 0.183 0.093 3 
0.465 0.172 0.093 3 
0.464 0.169 0.092 3 
0.463 0.064 0.052 3 
0.464 0.163 0.092 3 
0.464 0.143 0.092 3 
0.465 0.144 0.084 3 
0.464 0.124 0.092 3 
0.465 0.122 0.092 3 
0.464 0.113 0.092 3 
0.464 0.102 0.092 3 
0.464 0.094 0.092 3 
0.464 0.083 0.092 3 
0.464 0.194 0.024 3 
0.464 0.316 0.091 3 
0.458 0.063 0.081 3 
0.465 0.253 0.082 3 
0.464 0.25 0.082 3 
0.464 0.244 0.082 3 
0.463 0.231 0.082 3 
0.465 0.209 0.082 3 
0.465 0.147 0.082 3 
0.464 0.116 0.082 3 
0.465 0.092 0.082 3 
0.463 0.262 0.082 3 
0.29 0.022 0.067 3 
0.464 0.154 0.063 3 
0.462 0.142 0.014 3 
0.465 0.256 0.079 3 
0.465 0.189 0.079 3 
0.464 0.13 0.079 3 
0.453 0.054 0.078 3 
0.477 0.362 0.2 3 
0.465 0.341 0.083 3 
0.465 0.133 0.084 3 
0.465 0.122 0.084 3 
0.465 0.114 0.084 3 
0.464 0.108 0.084 3 
0.465 0.103 0.084 3 
0.464 0.094 0.084 3 
0.464 0.083 0.084 3 
0.462 0.072 0.084 3 
0.464 0.223 0.093 3 
0.463 0.335 0.082 3 
0.465 0.317 0.082 3 
0.465 0.314 0.082 3 
0.464 0.31 0.082 3 
0.464 0.303 0.082 3 
0.463 0.283 0.082 3 
0.463 0.274 0.082 3 
0.465 0.13 0.103 3 
0.465 0.192 0.104 3 
0.465 0.183 0.104 3 
0.464 0.171 0.103 3 
0.465 0.169 0.103 3 
0.464 0.163 0.103 3 
0.464 0.152 0.103 3 
0.464 0.144 0.103 3 
0.464 0.133 0.103 3 
0.465 0.198 0.104 3 
0.464 0.124 0.103 3 
0.465 0.122 0.103 3 
0.464 0.113 0.103 3 
0.464 0.102 0.103 3 
0.463 0.083 0.103 3 
0.462 0.072 0.103 3 
0.265 0.006 0.073 3 
0.275 -0.007 0.074 3 
0.463 0.253 0.104 3 
0.266 -0.004 0.074 3 
0.266 -0.005 0.074 3 
0.464 0.31 0.108 3 
0.464 0.197 0.106 3 
0.464 0.127 0.106 3 
0.435 0.061 0.101 3 
0.463 0.271 0.104 3 
0.463 0.262 0.104 3 
0.463 0.234 0.043 3 
0.464 0.323 0.082 3 
0.465 0.233 0.104 3 
0.464 0.229 0.104 3 
0.462 0.272 0.013 3 
0.464 0.22 0.104 3 
0.464 0.214 0.104 3 
0.465 0.212 0.104 3 
0.464 0.203 0.104 3 
0.464 0.313 0.094 3 
0.465 0.114 0.101 3 
0.452 0.065 0.099 3 
0.464 0.183 0.098 3 
0.46 0.069 0.094 3 
0.463 0.336 0.094 3 
0.463 0.332 0.094 3 
0.465 0.331 0.094 3 
0.465 0.324 0.094 3 
0.465 0.161 0.101 3 
0.464 0.303 0.094 3 
0.464 0.214 0.093 3 
0.465 0.288 0.094 3 
0.464 0.272 0.093 3 
0.463 0.262 0.093 3 
0.464 0.254 0.093 3 
0.465 0.244 0.093 3 
0.464 0.232 0.093 3 
0.464 0.304 0.102 3 
0.465 0.272 0.063 3 
0.304 -0.002 0.02 3 
0.463 0.339 0.103 3 
0.463 0.332 0.102 3 
0.465 0.331 0.103 3 
0.465 0.324 0.103 3 
0.465 0.314 0.102 3 
0.464 0.31 0.102 3 
0.263 0.004 0.074 3 
0.465 0.301 0.102 3 
0.464 0.294 0.102 3 
0.465 0.292 0.102 3 
0.464 0.284 0.102 3 
0.463 0.332 0.082 3 
0.465 0.236 0.101 3 
0.464 0.194 0.101 3 
0.466 0.227 0.174 3 
0.3 -0.011 0.111 3 
0.464 0.238 0.093 3 
0.324 0.037 0.023 3 
0.462 0.072 0.124 3 
0.468 0.35 0.184 3 
0.469 0.332 0.183 3 
0.469 0.322 0.182 3 
0.465 0.293 0.142 3 
0.468 0.263 0.182 3 
0.466 0.224 0.174 3 
0.467 0.204 0.174 3 
0.464 0.245 0.14 3 
0.467 0.192 0.174 3 
0.464 0.274 0.032 3 
0.467 0.184 0.174 3 
0.467 0.172 0.173 3 
0.467 0.164 0.173 3 
0.464 0.203 0.033 3 
0.468 0.182 0.182 3 
0.468 0.173 0.182 3 
0.468 0.164 0.182 3 
0.468 0.153 0.182 3 
0.464 0.198 0.142 3 
0.29 -0.01 0.108 3 
0.464 0.3 0.105 3 
0.468 0.152 0.173 3 
0.305 0.014 0.025 3 
0.465 0.144 0.133 3 
0.468 0.311 0.184 3 
0.464 0.294 0.094 3 
0.468 0.304 0.184 3 
0.47 0.293 0.184 3 
0.469 0.282 0.183 3 
0.468 0.272 0.183 3 
0.467 0.313 0.172 3 
0.467 0.252 0.173 3 
0.467 0.243 0.172 3 
0.255 0.021 0.09 3 
0.304 -0.012 0.024 3 
0.464 0.344 0.173 3 
0.465 0.341 0.173 3 
0.467 0.333 0.173 3 
0.468 0.324 0.173 3 
0.467 0.264 0.173 3 
0.465 0.285 0.063 3 
0.464 0.102 0.082 3 
0.464 0.283 0.167 3 
0.465 0.179 0.164 3 
0.465 0.174 0.164 3 
0.467 0.163 0.164 3 
0.466 0.154 0.164 3 
0.467 0.143 0.164 3 
0.465 0.102 0.044 3 
0.467 0.143 0.172 3 
0.467 0.132 0.172 3 
0.467 0.124 0.172 3 
0.467 0.113 0.172 3 
0.467 0.102 0.172 3 
0.465 0.144 0.122 3 
0.467 0.093 0.172 3 
0.469 0.083 0.172 3 
0.468 0.193 0.183 3 
0.463 0.214 0.013 3 
0.464 0.242 0.104 3 
0.422 0.074 0.002 3 
0.467 0.296 0.174 3 
0.467 0.287 0.174 3 
0.466 0.273 0.173 3 
0.464 0.342 0.138 3 
0.468 0.284 0.174 3 
0.468 0.173 0.188 3 
0.469 0.162 0.188 3 
0.47 0.154 0.188 3 
0.464 0.284 0.093 3 
0.471 0.143 0.188 3 
0.471 0.134 0.188 3 
0.471 0.123 0.188 3 
0.472 0.112 0.188 3 
0.467 0.181 0.188 3 
0.471 0.103 0.187 3 
0.464 0.076 0.16 3 
0.47 0.094 0.187 3 
0.47 0.083 0.187 3 
0.264 0.024 0.099 3 
0.251 0.02 0.094 3 
0.464 0.246 0.054 3 
0.248 0.014 0.092 3 
0.471 0.272 0.193 3 
0.472 0.352 0.198 3 
0.471 0.344 0.197 3 
0.471 0.333 0.196 3 
0.472 0.323 0.196 3 
0.471 0.311 0.194 3 
0.471 0.301 0.194 3 
0.472 0.292 0.194 3 
0.471 0.282 0.193 3 
0.248 0.004 0.092 3 
0.469 0.264 0.191 3 
0.468 0.254 0.191 3 
0.468 0.244 0.19 3 
0.468 0.232 0.19 3 
0.47 0.222 0.19 3 
0.471 0.213 0.19 3 
0.469 0.203 0.189 3 
0.469 0.194 0.189 3 
0.475 0.359 0.193 3 
0.47 0.114 0.184 3 
0.47 0.103 0.184 3 
0.47 0.094 0.184 3 
0.469 0.083 0.184 3 
0.272 0.026 0.102 3 
0.269 -0.007 0.1 3 
0.465 0.212 0.112 3 
0.464 0.262 0.063 3 
0.469 0.122 0.184 3 
0.467 0.246 0.184 3 
0.467 0.243 0.184 3 
0.467 0.234 0.184 3 
0.468 0.223 0.184 3 
0.464 0.081 0.074 3 
0.468 0.214 0.183 3 
0.324 0.03 0.023 3 
0.468 0.202 0.183 3 
0.463 0.322 0.054 3 
0.251 -0.005 0.094 3 
0.263 -0.007 0.099 3 
0.299 -0.009 0.035 3 
0.467 0.213 0.174 3 
0.465 0.312 0.131 3 
0.467 0.132 0.164 3 
0.463 0.094 0.103 3 
0.466 0.343 0.183 3 
0.467 0.124 0.164 3 
0.463 0.314 0.014 3 
0.471 0.351 0.194 3 
0.466 0.342 0.192 3 
0.469 0.334 0.192 3 
0.47 0.324 0.192 3 
0.469 0.142 0.184 3 
0.469 0.133 0.184 3 
0.464 0.155 0.144 3 
0.464 0.144 0.147 3 
0.257 0.02 0.084 3 
0.257 0.014 0.084 3 
0.464 0.18 0.093 3 
0.463 0.332 0.062 3 
0.464 0.198 0.145 3 
0.464 0.193 0.145 3 
0.465 0.161 0.144 3 
0.464 0.164 0.147 3 
0.465 0.153 0.144 3 
0.464 0.147 0.144 3 
0.465 0.142 0.144 3 
0.465 0.133 0.144 3 
0.465 0.122 0.144 3 
0.465 0.114 0.144 3 
0.465 0.103 0.144 3 
0.466 0.093 0.144 3 
0.464 0.282 0.127 3 
0.463 0.073 0.143 3 
0.465 0.277 0.153 3 
0.466 0.263 0.153 3 
0.465 0.253 0.152 3 
0.464 0.249 0.152 3 
0.464 0.243 0.152 3 
0.465 0.178 0.084 3 
0.464 0.234 0.151 3 
0.465 0.084 0.144 3 
0.462 0.242 0.013 3 
0.468 0.347 0.154 3 
0.467 0.342 0.153 3 
0.467 0.332 0.153 3 
0.467 0.322 0.152 3 
0.466 0.314 0.152 3 
0.464 0.273 0.15 3 
0.465 0.244 0.149 3 
0.262 -0.005 0.084 3 
0.465 0.214 0.143 3 
0.465 0.202 0.143 3 
0.464 0.193 0.142 3 
0.465 0.19 0.142 3 
0.465 0.184 0.142 3 
0.464 0.178 0.142 3 
0.465 0.173 0.142 3 
0.464 0.144 0.141 3 
0.464 0.183 0.033 3 
0.465 0.224 0.104 3 
0.305 -0.007 0.034 3 
0.465 0.343 0.144 3 
0.466 0.33 0.143 3 
0.466 0.324 0.143 3 
0.465 0.312 0.143 3 
0.464 0.308 0.142 3 
0.465 0.296 0.142 3 
0.465 0.147 0.063 3 
0.464 0.163 0.063 3 
0.464 0.076 0.143 3 
0.259 0.004 0.084 3 
0.275 -0.008 0.089 3 
0.464 0.283 0.144 3 
0.465 0.28 0.144 3 
0.464 0.273 0.144 3 
0.465 0.271 0.144 3 
0.464 0.283 0.153 3 
0.466 0.262 0.144 3 
0.465 0.252 0.144 3 
0.465 0.243 0.144 3 
0.464 0.24 0.143 3 
0.464 0.234 0.143 3 
0.465 0.231 0.143 3 
0.465 0.222 0.143 3 
0.467 0.333 0.164 3 
0.464 0.073 0.16 3 
0.255 0.014 0.088 3 
0.465 0.105 0.041 3 
0.463 0.282 0.023 3 
0.465 0.119 0.122 3 
0.288 -0.002 0.044 3 
0.465 0.341 0.164 3 
0.464 0.336 0.164 3 
0.467 0.192 0.163 3 
0.463 0.333 0.123 3 
0.467 0.322 0.164 3 
0.467 0.312 0.163 3 
0.467 0.302 0.163 3 
0.466 0.291 0.162 3 
0.465 0.259 0.063 3 
0.465 0.281 0.162 3 
0.265 0.023 0.09 3 
0.466 0.269 0.164 3 
0.466 0.112 0.163 3 
0.467 0.104 0.164 3 
0.467 0.093 0.164 3 
0.467 0.082 0.163 3 
0.255 -0.004 0.089 3 
0.256 -0.005 0.089 3 
0.464 0.288 0.105 3 
0.465 0.345 0.167 3 
0.318 0.027 0.03 3 
0.465 0.262 0.164 3 
0.465 0.274 0.153 3 
0.466 0.254 0.164 3 
0.466 0.242 0.164 3 
0.466 0.233 0.163 3 
0.465 0.223 0.163 3 
0.465 0.211 0.162 3 
0.466 0.203 0.163 3 
0.467 0.093 0.153 3 
0.465 0.162 0.153 3 
0.465 0.153 0.153 3 
0.465 0.142 0.152 3 
0.465 0.122 0.063 3 
0.466 0.134 0.153 3 
0.466 0.123 0.152 3 
0.466 0.112 0.152 3 
0.466 0.104 0.152 3 
0.466 0.173 0.153 3 
0.329 0.042 0.024 3 
0.267 -0.007 0.089 3 
0.447 0.063 0.1 3 
0.464 0.34 0.062 3 
0.466 0.304 0.154 3 
0.466 0.294 0.154 3 
0.463 0.285 0.153 3 
0.465 0.232 0.154 3 
0.467 0.346 0.162 3 
0.464 0.283 0.159 3 
0.464 0.274 0.158 3 
0.465 0.079 0.154 3 
0.464 0.076 0.154 3 
0.462 0.073 0.153 3 
0.462 0.337 0.054 3 
0.464 0.302 0.142 3 
0.465 0.144 0.114 3 
0.465 0.223 0.154 3 
0.465 0.214 0.154 3 
0.464 0.207 0.154 3 
0.464 0.265 0.06 3 
0.466 0.203 0.154 3 
0.466 0.194 0.154 3 
0.466 0.183 0.154 3 
0.464 0.163 0.044 3 
0.463 0.283 0.012 3 
0.463 0.264 0.013 3 
0.462 0.254 0.013 3 
0.464 0.214 0.024 3 
0.462 0.233 0.013 3 
0.462 0.224 0.013 3 
0.463 0.202 0.014 3 
0.463 0.182 0.044 3 
0.464 0.174 0.044 3 
0.462 0.193 0.014 3 
0.462 0.294 0.012 3 
0.463 0.154 0.044 3 
0.464 0.143 0.044 3 
0.465 0.133 0.044 3 
0.462 0.184 0.014 3 
0.462 0.173 0.014 3 
0.462 0.162 0.014 3 
0.461 0.153 0.014 3 
0.462 0.134 0.014 3 
0.464 0.163 0.033 3 
0.463 0.222 0.024 3 
0.462 0.304 0.043 3 
0.286 0.014 0.042 3 
0.463 0.339 0.014 3 
0.464 0.243 0.054 3 
0.461 0.333 0.014 3 
0.463 0.324 0.014 3 
0.464 0.293 0.043 3 
0.464 0.283 0.043 3 
0.464 0.274 0.043 3 
0.464 0.262 0.043 3 
0.297 0.021 0.039 3 
0.464 0.252 0.043 3 
0.463 0.243 0.043 3 
0.464 0.223 0.043 3 
0.464 0.214 0.043 3 
0.464 0.202 0.043 3 
0.454 0.083 0.008 3 
0.463 0.193 0.044 3 
0.462 0.304 0.012 3 
0.463 0.243 0.063 3 
0.464 0.113 0.044 3 
0.464 0.214 0.063 3 
0.464 0.096 0.044 3 
0.465 0.094 0.044 3 
0.464 0.223 0.063 3 
0.465 0.083 0.044 3 
0.464 0.08 0.044 3 
0.465 0.073 0.044 3 
0.464 0.07 0.044 3 
0.463 0.234 0.063 3 
0.464 0.119 0.044 3 
0.464 0.249 0.063 3 
0.465 0.253 0.063 3 
0.464 0.278 0.063 3 
0.465 0.282 0.063 3 
0.464 0.294 0.062 3 
0.464 0.303 0.062 3 
0.464 0.313 0.062 3 
0.463 0.322 0.062 3 
0.463 0.064 0.044 3 
0.464 0.113 0.063 3 
0.463 0.123 0.012 3 
0.288 0.021 0.06 3 
0.464 0.064 0.063 3 
0.465 0.073 0.063 3 
0.465 0.081 0.063 3 
0.464 0.127 0.044 3 
0.464 0.083 0.063 3 
0.464 0.091 0.063 3 
0.465 0.094 0.063 3 
0.465 0.103 0.063 3 
0.465 0.341 0.06 3 
0.464 0.124 0.063 3 
0.465 0.133 0.063 3 
0.465 0.141 0.063 3 
0.464 0.143 0.063 3 
0.464 0.174 0.063 3 
0.464 0.182 0.063 3 
0.464 0.194 0.063 3 
0.463 0.202 0.063 3 
0.465 0.124 0.044 3 
0.463 0.273 0.024 3 
0.465 0.083 0.052 3 
0.465 0.091 0.052 3 
0.464 0.102 0.052 3 
0.464 0.11 0.052 3 
0.465 0.113 0.052 3 
0.465 0.133 0.052 3 
0.465 0.135 0.052 3 
0.464 0.143 0.052 3 
0.464 0.163 0.052 3 
0.464 0.174 0.052 3 
0.464 0.078 0.052 3 
0.464 0.293 0.023 3 
0.464 0.312 0.023 3 
0.463 0.322 0.023 3 
0.461 0.333 0.023 3 
0.461 0.337 0.022 3 
0.465 0.097 0.049 3 
0.456 0.052 0.05 3 
0.464 0.083 0.023 3 
0.282 0.019 0.054 3 
0.463 0.072 0.023 3 
0.464 0.124 0.023 3 
0.29 0.02 0.044 3 
0.463 0.182 0.022 3 
0.463 0.174 0.022 3 
0.463 0.162 0.022 3 
0.464 0.203 0.024 3 
0.463 0.234 0.024 3 
0.463 0.243 0.024 3 
0.463 0.154 0.022 3 
0.463 0.143 0.022 3 
0.463 0.064 0.023 3 
0.464 0.113 0.023 3 
0.464 0.102 0.023 3 
0.462 0.254 0.024 3 
0.463 0.264 0.024 3 
0.464 0.094 0.023 3 
0.313 0.025 0.055 3 
0.463 0.301 0.023 3 
0.454 0.052 0.052 3 
0.464 0.072 0.052 3 
0.313 -0.006 0.052 3 
0.465 0.284 0.054 3 
0.463 0.293 0.054 3 
0.463 0.302 0.054 3 
0.464 0.119 0.047 3 
0.275 0.014 0.057 3 
0.33 0.044 0.026 3 
0.308 0.024 0.057 3 
0.464 0.067 0.058 3 
0.465 0.18 0.057 3 
0.464 0.154 0.052 3 
0.464 0.277 0.054 3 
0.464 0.097 0.031 3 
0.465 0.116 0.031 3 
0.302 -0.008 0.034 3 
0.462 0.338 0.042 3 
0.461 0.333 0.042 3 
0.462 0.314 0.043 3 
0.275 0.004 0.058 3 
0.464 0.1 0.06 3 
0.465 0.114 0.06 3 
0.464 0.194 0.054 3 
0.463 0.053 0.023 3 
0.283 0.013 0.044 3 
0.276 0.014 0.054 3 
0.282 0.004 0.044 3 
0.277 0.004 0.054 3 
0.297 -0.005 0.054 3 
0.296 0.022 0.056 3 
0.437 0.049 0.055 3 
0.464 0.182 0.054 3 
0.464 0.202 0.054 3 
0.464 0.214 0.054 3 
0.464 0.223 0.054 3 
0.464 0.232 0.054 3 
0.465 0.253 0.054 3 
0.464 0.255 0.054 3 
0.465 0.269 0.054 3 
0.464 0.271 0.054 3 
0.465 0.073 0.031 3 
0.464 0.262 0.074 3 
0.463 0.261 0.032 3 
0.463 0.322 0.074 3 
0.464 0.313 0.074 3 
0.317 -0.017 0.029 3 
0.464 0.283 0.032 3 
0.464 0.303 0.074 3 
0.464 0.294 0.074 3 
0.464 0.284 0.074 3 
0.464 0.272 0.074 3 
0.462 0.334 0.074 3 
0.462 0.338 0.034 3 
0.302 0.033 0.033 3 
0.461 0.333 0.034 3 
0.463 0.064 0.073 3 
0.464 0.073 0.074 3 
0.465 0.259 0.074 3 
0.295 0.014 0.034 3 
0.465 0.084 0.074 3 
0.312 -0.016 0.033 3 
0.326 0.034 0.026 3 
0.464 0.223 0.032 3 
0.459 0.053 0.042 3 
0.305 0.022 0.032 3 
0.465 0.269 0.068 3 
0.463 0.234 0.032 3 
0.463 0.243 0.032 3 
0.464 0.094 0.039 3 
0.287 -0.002 0.05 3 
0.463 0.252 0.032 3 
0.461 0.336 0.074 3 
0.465 0.152 0.074 3 
0.464 0.119 0.073 3 
0.465 0.122 0.074 3 
0.464 0.243 0.074 3 
0.464 0.232 0.074 3 
0.31 -0.004 0.03 3 
0.464 0.127 0.073 3 
0.465 0.133 0.074 3 
0.464 0.135 0.073 3 
0.465 0.144 0.074 3 
0.464 0.113 0.073 3 
0.464 0.223 0.074 3 
0.463 0.213 0.073 3 
0.464 0.203 0.074 3 
0.464 0.194 0.074 3 
0.465 0.155 0.074 3 
0.464 0.163 0.073 3 
0.464 0.174 0.074 3 
0.464 0.183 0.074 3 
0.462 0.314 0.034 3 
0.462 0.324 0.034 3 
0.464 0.089 0.074 3 
0.303 0.021 0.033 3 
0.464 0.293 0.034 3 
0.294 0.012 0.034 3 
0.294 0.002 0.034 3 
0.295 0.001 0.034 3 
0.31 0.036 0.032 3 
0.465 0.253 0.074 3 
0.464 0.246 0.074 3 
0.321 0.039 0.028 3 
0.465 0.094 0.074 3 
0.308 0.03 0.031 3 
0.465 0.103 0.074 3 
0.465 0.105 0.074 3 
0.464 0.132 0.033 3 
0.464 0.107 0.033 3 
0.464 0.146 0.068 3 
0.465 0.113 0.033 3 
0.464 0.124 0.033 3 
0.465 0.127 0.033 3 
0.317 0.024 0.028 3 
0.465 0.102 0.033 3 
0.304 0.01 0.024 3 
0.303 -0.015 0.024 3 
0.464 0.143 0.033 3 
0.464 0.154 0.033 3 
0.464 0.174 0.033 3 
0.465 0.341 0.068 3 
0.464 0.214 0.032 3 
0.465 0.094 0.033 3 
0.464 0.091 0.033 3 
0.465 0.062 0.068 3 
0.464 0.083 0.033 3 
0.464 0.072 0.034 3 
0.462 0.053 0.034 3 
0.286 0.019 0.048 3 
0.315 0 0.02 3 
0.296 -0.004 0.038 3 
0.461 0.082 0.013 3 
0.462 0.093 0.012 3 
0.462 0.104 0.012 3 
0.462 0.112 0.012 3 
0.465 0.073 0.071 3 
0.303 -0.015 0.027 3 
0.315 -0.006 0.024 3 
0.276 0.019 0.062 3 
0.463 0.193 0.033 3 
0.463 0.304 0.034 3 
0.314 0.022 0.023 3 
0.27 0.004 0.064 3 
0.311 0 0.024 3 
0.437 0.083 0.006 3 
0.312 -0.006 0.023 3 
0.269 0.014 0.064 3 
0.465 0.124 0.052 3 
0.271 0.018 0.064 3 
0.464 0.203 0.076 3 
0.311 0.014 0.022 3 
0.471 -0.097 0.162 3 
0.47 -0.069 0.164 3 
0.478 -0.288 0.163 3 
0.472 -0.126 0.163 3 
0.471 -0.117 0.163 3 
0.471 -0.222 0.024 3 
0.47 -0.105 0.162 3 
0.474 -0.295 0.029 3 
0.473 -0.265 0.024 3 
0.472 -0.226 0.024 3 
0.471 -0.255 0.024 3 
0.471 -0.176 0.152 3 
0.47 -0.075 0.164 3 
0.473 -0.275 0.024 3 
0.47 -0.125 0.143 3 
0.461 -0.341 0.016 3 
0.478 -0.275 0.172 3 
0.47 -0.156 0.152 3 
0.472 -0.226 0.033 3 
0.47 -0.086 0.162 3 
0.471 -0.165 0.152 3 
0.478 -0.285 0.172 3 
0.479 -0.296 0.173 3 
0.48 -0.317 0.174 3 
0.468 -0.135 0.093 3 
0.47 -0.155 0.033 3 
0.472 -0.205 0.114 3 
0.47 -0.175 0.033 3 
0.47 -0.186 0.033 3 
0.475 -0.247 0.164 3 
0.475 -0.241 0.164 3 
0.474 -0.237 0.163 3 
0.469 -0.086 0.153 3 
0.47 -0.097 0.154 3 
0.469 -0.077 0.153 3 
0.473 -0.247 0.092 3 
0.474 -0.228 0.163 3 
0.47 -0.105 0.154 3 
0.471 -0.117 0.154 3 
0.471 -0.125 0.154 3 
0.471 -0.136 0.154 3 
0.475 -0.226 0.163 3 
0.47 -0.147 0.154 3 
0.474 -0.246 0.158 3 
0.467 -0.042 0.034 3 
0.469 -0.115 0.033 3 
0.478 -0.298 0.164 3 
0.479 -0.305 0.164 3 
0.469 -0.107 0.033 3 
0.468 -0.096 0.034 3 
0.469 -0.135 0.082 3 
0.468 -0.085 0.034 3 
0.467 -0.077 0.034 3 
0.466 -0.047 0.034 3 
0.48 -0.316 0.162 3 
0.477 -0.277 0.163 3 
0.475 -0.268 0.141 3 
0.476 -0.267 0.162 3 
0.476 -0.257 0.162 3 
0.468 -0.126 0.033 3 
0.469 -0.066 0.153 3 
0.469 -0.135 0.033 3 
0.469 -0.146 0.033 3 
0.474 -0.237 0.166 3 
0.479 -0.347 0.034 3 
0.478 -0.335 0.034 3 
0.478 -0.328 0.034 3 
0.475 -0.299 0.032 3 
0.476 -0.306 0.032 3 
0.482 -0.347 0.173 3 
0.482 -0.336 0.173 3 
0.469 -0.166 0.022 3 
0.481 -0.328 0.172 3 
0.474 -0.285 0.032 3 
0.472 -0.177 0.164 3 
0.475 -0.223 0.166 3 
0.473 -0.166 0.164 3 
0.473 -0.275 0.084 3 
0.472 -0.157 0.164 3 
0.481 -0.355 0.134 3 
0.472 -0.145 0.163 3 
0.479 -0.358 0.164 3 
0.469 -0.105 0.104 3 
0.48 -0.327 0.163 3 
0.479 -0.336 0.163 3 
0.472 -0.215 0.162 3 
0.481 -0.346 0.164 3 
0.47 -0.166 0.033 3 
0.473 -0.207 0.162 3 
0.473 -0.195 0.162 3 
0.467 -0.044 0.044 3 
0.472 -0.256 0.052 3 
0.473 -0.135 0.163 3 
0.472 -0.186 0.161 3 
0.47 -0.195 0.033 3 
0.471 -0.216 0.033 3 
0.472 -0.235 0.033 3 
0.472 -0.247 0.033 3 
0.472 -0.268 0.032 3 
0.473 -0.278 0.032 3 
0.477 -0.355 0.034 3 
0.465 -0.065 0.012 3 
0.473 -0.265 0.013 3 
0.473 -0.275 0.012 3 
0.474 -0.305 0.012 3 
0.474 -0.315 0.012 3 
0.48 -0.288 0.194 3 
0.48 -0.275 0.193 3 
0.479 -0.267 0.193 3 
0.467 -0.077 0.074 3 
0.479 -0.258 0.192 3 
0.478 -0.247 0.191 3 
0.474 -0.135 0.187 3 
0.474 -0.098 0.186 3 
0.472 -0.255 0.013 3 
0.469 -0.105 0.134 3 
0.466 -0.076 0.012 3 
0.475 -0.278 0.124 3 
0.466 -0.087 0.012 3 
0.467 -0.106 0.012 3 
0.466 -0.117 0.012 3 
0.469 -0.146 0.093 3 
0.467 -0.126 0.012 3 
0.486 -0.346 0.203 3 
0.486 -0.335 0.202 3 
0.485 -0.331 0.201 3 
0.468 -0.148 0.014 3 
0.474 -0.155 0.184 3 
0.475 -0.15 0.184 3 
0.474 -0.147 0.184 3 
0.474 -0.135 0.184 3 
0.473 -0.126 0.183 3 
0.473 -0.115 0.183 3 
0.474 -0.107 0.183 3 
0.474 -0.096 0.183 3 
0.473 -0.087 0.182 3 
0.472 -0.076 0.182 3 
0.472 -0.07 0.182 3 
0.474 -0.205 0.174 3 
0.468 -0.157 0.014 3 
0.468 -0.165 0.014 3 
0.47 -0.136 0.143 3 
0.473 -0.166 0.173 3 
0.468 -0.176 0.014 3 
0.468 -0.185 0.014 3 
0.469 -0.197 0.014 3 
0.469 -0.215 0.014 3 
0.47 -0.227 0.013 3 
0.471 -0.237 0.013 3 
0.471 -0.246 0.013 3 
0.474 -0.087 0.188 3 
0.464 -0.07 0.007 3 
0.475 -0.136 0.19 3 
0.475 -0.13 0.19 3 
0.474 -0.127 0.189 3 
0.477 -0.355 0.052 3 
0.475 -0.119 0.189 3 
0.474 -0.115 0.189 3 
0.474 -0.113 0.189 3 
0.475 -0.107 0.189 3 
0.475 -0.096 0.189 3 
0.475 -0.093 0.189 3 
0.478 -0.316 0.102 3 
0.463 -0.076 0.007 3 
0.474 -0.082 0.188 3 
0.475 -0.076 0.189 3 
0.474 -0.073 0.188 3 
0.49 -0.074 0.195 3 
0.471 -0.105 0.003 3 
0.469 -0.115 0.004 3 
0.475 -0.299 0.023 3 
0.469 -0.155 0.104 3 
0.477 -0.295 0.122 3 
0.478 -0.236 0.194 3 
0.484 -0.326 0.201 3 
0.485 -0.323 0.201 3 
0.471 -0.216 0.044 3 
0.484 -0.315 0.2 3 
0.483 -0.308 0.199 3 
0.483 -0.297 0.199 3 
0.482 -0.286 0.198 3 
0.481 -0.276 0.197 3 
0.479 -0.267 0.196 3 
0.479 -0.255 0.195 3 
0.478 -0.245 0.195 3 
0.474 -0.167 0.184 3 
0.477 -0.226 0.193 3 
0.477 -0.217 0.193 3 
0.472 -0.126 0.174 3 
0.477 -0.205 0.193 3 
0.477 -0.196 0.192 3 
0.477 -0.187 0.192 3 
0.476 -0.177 0.191 3 
0.466 -0.066 0.074 3 
0.476 -0.165 0.191 3 
0.476 -0.157 0.191 3 
0.476 -0.145 0.19 3 
0.48 -0.297 0.182 3 
0.473 -0.155 0.172 3 
0.473 -0.146 0.172 3 
0.505 -0.074 0.183 3 
0.47 -0.155 0.132 3 
0.473 -0.256 0.072 3 
0.48 -0.307 0.174 3 
0.464 -0.039 0.023 3 
0.484 -0.343 0.186 3 
0.471 -0.187 0.094 3 
0.482 -0.316 0.184 3 
0.481 -0.305 0.183 3 
0.473 -0.175 0.173 3 
0.472 -0.137 0.174 3 
0.472 -0.115 0.174 3 
0.465 -0.041 0.023 3 
0.465 -0.047 0.023 3 
0.472 -0.106 0.174 3 
0.472 -0.095 0.174 3 
0.471 -0.086 0.173 3 
0.472 -0.075 0.173 3 
0.466 -0.055 0.023 3 
0.466 -0.076 0.023 3 
0.471 -0.07 0.173 3 
0.476 -0.248 0.173 3 
0.474 -0.285 0.024 3 
0.474 -0.295 0.024 3 
0.475 -0.305 0.023 3 
0.475 -0.315 0.023 3 
0.476 -0.327 0.023 3 
0.477 -0.338 0.023 3 
0.469 -0.116 0.123 3 
0.476 -0.358 0.022 3 
0.477 -0.265 0.174 3 
0.476 -0.255 0.173 3 
0.471 -0.207 0.083 3 
0.467 -0.087 0.023 3 
0.475 -0.235 0.172 3 
0.475 -0.229 0.172 3 
0.474 -0.226 0.172 3 
0.484 -0.346 0.183 3 
0.484 -0.335 0.183 3 
0.484 -0.328 0.182 3 
0.474 -0.226 0.175 3 
0.474 -0.22 0.175 3 
0.474 -0.217 0.174 3 
0.474 -0.196 0.174 3 
0.474 -0.187 0.174 3 
0.477 -0.345 0.014 3 
0.476 -0.327 0.014 3 
0.476 -0.337 0.014 3 
0.486 -0.345 0.193 3 
0.485 -0.337 0.192 3 
0.471 -0.195 0.052 3 
0.485 -0.33 0.192 3 
0.475 -0.236 0.184 3 
0.476 -0.225 0.184 3 
0.47 -0.177 0.074 3 
0.475 -0.215 0.183 3 
0.475 -0.206 0.183 3 
0.474 -0.305 0.015 3 
0.475 -0.197 0.183 3 
0.475 -0.185 0.182 3 
0.474 -0.353 0.014 3 
0.474 -0.176 0.182 3 
0.472 -0.225 0.052 3 
0.484 -0.326 0.194 3 
0.484 -0.319 0.194 3 
0.482 -0.306 0.193 3 
0.483 -0.297 0.192 3 
0.467 -0.047 0.044 3 
0.474 -0.205 0.186 3 
0.47 -0.206 0.022 3 
0.467 -0.095 0.023 3 
0.467 -0.106 0.023 3 
0.468 -0.115 0.023 3 
0.467 -0.126 0.023 3 
0.469 -0.096 0.142 3 
0.468 -0.137 0.023 3 
0.469 -0.146 0.022 3 
0.47 -0.158 0.022 3 
0.469 -0.177 0.022 3 
0.469 -0.186 0.022 3 
0.47 -0.195 0.022 3 
0.475 -0.316 0.014 3 
0.473 -0.355 0.02 3 
0.464 -0.047 0.02 3 
0.474 -0.352 0.017 3 
0.479 -0.286 0.184 3 
0.479 -0.277 0.184 3 
0.478 -0.266 0.183 3 
0.476 -0.258 0.182 3 
0.475 -0.245 0.181 3 
0.474 -0.205 0.18 3 
0.474 -0.196 0.18 3 
0.474 -0.187 0.179 3 
0.476 -0.298 0.113 3 
0.469 -0.115 0.063 3 
0.478 -0.355 0.112 3 
0.472 -0.247 0.024 3 
0.479 -0.345 0.112 3 
0.478 -0.346 0.052 3 
0.468 -0.126 0.063 3 
0.469 -0.135 0.063 3 
0.469 -0.146 0.063 3 
0.473 -0.247 0.083 3 
0.478 -0.326 0.114 3 
0.478 -0.316 0.114 3 
0.477 -0.305 0.114 3 
0.468 -0.107 0.063 3 
0.475 -0.287 0.113 3 
0.475 -0.284 0.113 3 
0.474 -0.276 0.112 3 
0.473 -0.266 0.112 3 
0.473 -0.257 0.112 3 
0.473 -0.248 0.112 3 
0.47 -0.157 0.063 3 
0.469 -0.165 0.063 3 
0.47 -0.177 0.063 3 
0.471 -0.207 0.033 3 
0.471 -0.187 0.063 3 
0.468 -0.096 0.104 3 
0.472 -0.196 0.102 3 
0.471 -0.187 0.102 3 
0.471 -0.175 0.102 3 
0.47 -0.166 0.102 3 
0.478 -0.325 0.073 3 
0.471 -0.255 0.033 3 
0.477 -0.355 0.067 3 
0.469 -0.146 0.104 3 
0.472 -0.235 0.024 3 
0.468 -0.135 0.104 3 
0.468 -0.126 0.104 3 
0.468 -0.115 0.104 3 
0.471 -0.195 0.063 3 
0.468 -0.085 0.104 3 
0.467 -0.077 0.104 3 
0.466 -0.066 0.103 3 
0.467 -0.058 0.103 3 
0.478 -0.346 0.022 3 
0.467 -0.047 0.063 3 
0.466 -0.055 0.063 3 
0.467 -0.066 0.063 3 
0.466 -0.076 0.063 3 
0.467 -0.085 0.063 3 
0.468 -0.096 0.063 3 
0.467 -0.044 0.058 3 
0.473 -0.285 0.064 3 
0.474 -0.295 0.064 3 
0.464 -0.062 0.01 3 
0.475 -0.299 0.064 3 
0.476 -0.306 0.064 3 
0.477 -0.317 0.064 3 
0.478 -0.335 0.064 3 
0.474 -0.355 0.064 3 
0.467 -0.077 0.114 3 
0.466 -0.066 0.114 3 
0.467 -0.06 0.114 3 
0.471 -0.185 0.153 3 
0.473 -0.278 0.064 3 
0.478 -0.328 0.064 3 
0.478 -0.355 0.124 3 
0.479 -0.345 0.124 3 
0.48 -0.336 0.124 3 
0.479 -0.328 0.123 3 
0.479 -0.317 0.123 3 
0.478 -0.306 0.123 3 
0.474 -0.277 0.121 3 
0.466 -0.066 0.023 3 
0.475 -0.287 0.124 3 
0.473 -0.245 0.123 3 
0.469 -0.116 0.112 3 
0.475 -0.292 0.044 3 
0.473 -0.235 0.114 3 
0.472 -0.226 0.114 3 
0.472 -0.217 0.114 3 
0.472 -0.196 0.114 3 
0.47 -0.175 0.113 3 
0.471 -0.167 0.113 3 
0.469 -0.155 0.113 3 
0.469 -0.146 0.113 3 
0.471 -0.187 0.113 3 
0.469 -0.135 0.113 3 
0.469 -0.127 0.112 3 
0.472 -0.205 0.103 3 
0.469 -0.105 0.112 3 
0.468 -0.096 0.112 3 
0.467 -0.066 0.034 3 
0.468 -0.085 0.112 3 
0.472 -0.208 0.064 3 
0.472 -0.216 0.064 3 
0.472 -0.225 0.064 3 
0.473 -0.238 0.064 3 
0.473 -0.247 0.064 3 
0.473 -0.256 0.064 3 
0.473 -0.266 0.064 3 
0.473 -0.257 0.092 3 
0.467 -0.05 0.082 3 
0.474 -0.298 0.078 3 
0.474 -0.356 0.091 3 
0.478 -0.357 0.094 3 
0.48 -0.348 0.094 3 
0.478 -0.336 0.094 3 
0.478 -0.326 0.093 3 
0.477 -0.315 0.093 3 
0.476 -0.307 0.093 3 
0.475 -0.296 0.093 3 
0.473 -0.275 0.092 3 
0.473 -0.266 0.092 3 
0.468 -0.055 0.082 3 
0.472 -0.237 0.092 3 
0.467 -0.047 0.074 3 
0.466 -0.055 0.074 3 
0.467 -0.085 0.074 3 
0.468 -0.096 0.074 3 
0.472 -0.225 0.094 3 
0.472 -0.216 0.094 3 
0.472 -0.205 0.094 3 
0.472 -0.196 0.094 3 
0.47 -0.175 0.094 3 
0.47 -0.166 0.094 3 
0.469 -0.177 0.083 3 
0.478 -0.328 0.082 3 
0.479 -0.347 0.082 3 
0.475 -0.357 0.082 3 
0.476 -0.317 0.084 3 
0.475 -0.296 0.084 3 
0.474 -0.286 0.084 3 
0.472 -0.265 0.084 3 
0.472 -0.237 0.083 3 
0.472 -0.225 0.083 3 
0.471 -0.216 0.083 3 
0.471 -0.195 0.083 3 
0.47 -0.186 0.083 3 
0.47 -0.155 0.094 3 
0.47 -0.166 0.083 3 
0.47 -0.155 0.083 3 
0.47 -0.146 0.083 3 
0.474 -0.285 0.044 3 
0.468 -0.126 0.082 3 
0.468 -0.115 0.082 3 
0.469 -0.107 0.082 3 
0.468 -0.096 0.082 3 
0.468 -0.085 0.082 3 
0.467 -0.077 0.082 3 
0.466 -0.065 0.082 3 
0.479 -0.327 0.102 3 
0.473 -0.275 0.072 3 
0.473 -0.285 0.072 3 
0.474 -0.295 0.072 3 
0.475 -0.299 0.073 3 
0.475 -0.306 0.073 3 
0.476 -0.316 0.073 3 
0.478 -0.335 0.073 3 
0.479 -0.347 0.073 3 
0.474 -0.355 0.073 3 
0.479 -0.358 0.103 3 
0.479 -0.345 0.103 3 
0.479 -0.338 0.103 3 
0.472 -0.265 0.072 3 
0.478 -0.306 0.102 3 
0.476 -0.297 0.102 3 
0.476 -0.288 0.104 3 
0.475 -0.284 0.104 3 
0.474 -0.276 0.104 3 
0.473 -0.266 0.104 3 
0.472 -0.256 0.103 3 
0.473 -0.247 0.103 3 
0.473 -0.235 0.103 3 
0.472 -0.225 0.103 3 
0.472 -0.217 0.103 3 
0.469 -0.135 0.074 3 
0.468 -0.107 0.074 3 
0.467 -0.126 0.093 3 
0.468 -0.115 0.093 3 
0.468 -0.107 0.093 3 
0.468 -0.096 0.093 3 
0.467 -0.085 0.093 3 
0.466 -0.076 0.093 3 
0.466 -0.066 0.093 3 
0.467 -0.055 0.093 3 
0.468 -0.115 0.074 3 
0.469 -0.126 0.074 3 
0.477 -0.355 0.061 3 
0.47 -0.146 0.074 3 
0.47 -0.155 0.074 3 
0.472 -0.256 0.083 3 
0.469 -0.165 0.074 3 
0.47 -0.186 0.074 3 
0.471 -0.195 0.072 3 
0.471 -0.207 0.072 3 
0.471 -0.216 0.072 3 
0.473 -0.226 0.072 3 
0.473 -0.235 0.072 3 
0.473 -0.247 0.072 3 
0.47 -0.176 0.144 3 
0.474 -0.255 0.144 3 
0.474 -0.246 0.143 3 
0.474 -0.237 0.143 3 
0.473 -0.227 0.143 3 
0.473 -0.215 0.142 3 
0.472 -0.205 0.142 3 
0.479 -0.338 0.112 3 
0.48 -0.358 0.152 3 
0.481 -0.349 0.152 3 
0.471 -0.197 0.144 3 
0.471 -0.188 0.144 3 
0.474 -0.265 0.144 3 
0.473 -0.297 0.012 3 
0.471 -0.168 0.144 3 
0.471 -0.156 0.144 3 
0.47 -0.147 0.143 3 
0.479 -0.336 0.082 3 
0.469 -0.116 0.142 3 
0.469 -0.105 0.142 3 
0.469 -0.085 0.142 3 
0.468 -0.077 0.142 3 
0.47 -0.155 0.124 3 
0.466 -0.055 0.044 3 
0.474 -0.298 0.049 3 
0.48 -0.358 0.143 3 
0.481 -0.345 0.142 3 
0.48 -0.336 0.142 3 
0.476 -0.316 0.032 3 
0.469 -0.127 0.134 3 
0.468 -0.115 0.134 3 
0.469 -0.096 0.134 3 
0.468 -0.085 0.134 3 
0.467 -0.077 0.133 3 
0.467 -0.066 0.133 3 
0.468 -0.063 0.133 3 
0.467 -0.077 0.044 3 
0.466 -0.066 0.044 3 
0.471 -0.147 0.052 3 
0.466 -0.055 0.034 3 
0.48 -0.326 0.144 3 
0.48 -0.316 0.144 3 
0.478 -0.307 0.143 3 
0.478 -0.297 0.143 3 
0.469 -0.206 0.014 3 
0.477 -0.286 0.142 3 
0.47 -0.155 0.044 3 
0.475 -0.275 0.144 3 
0.474 -0.268 0.153 3 
0.472 -0.265 0.044 3 
0.473 -0.257 0.123 3 
0.475 -0.295 0.044 3 
0.475 -0.305 0.044 3 
0.476 -0.316 0.043 3 
0.477 -0.327 0.043 3 
0.478 -0.335 0.043 3 
0.478 -0.346 0.043 3 
0.476 -0.358 0.043 3 
0.478 -0.288 0.154 3 
0.476 -0.276 0.153 3 
0.473 -0.287 0.012 3 
0.475 -0.266 0.153 3 
0.475 -0.256 0.153 3 
0.474 -0.246 0.152 3 
0.474 -0.237 0.152 3 
0.468 -0.063 0.147 3 
0.468 -0.143 0.014 3 
0.474 -0.268 0.156 3 
0.474 -0.225 0.154 3 
0.473 -0.215 0.154 3 
0.472 -0.206 0.153 3 
0.472 -0.197 0.153 3 
0.48 -0.326 0.153 3 
0.467 -0.085 0.044 3 
0.468 -0.096 0.044 3 
0.469 -0.107 0.044 3 
0.469 -0.115 0.044 3 
0.468 -0.126 0.044 3 
0.469 -0.135 0.044 3 
0.47 -0.146 0.044 3 
0.47 -0.175 0.044 3 
0.471 -0.187 0.044 3 
0.471 -0.195 0.044 3 
0.48 -0.337 0.154 3 
0.473 -0.226 0.123 3 
0.479 -0.315 0.153 3 
0.478 -0.307 0.152 3 
0.479 -0.295 0.152 3 
0.474 -0.255 0.149 3 
0.467 -0.071 0.144 3 
0.468 -0.063 0.144 3 
0.472 -0.205 0.044 3 
0.471 -0.225 0.044 3 
0.472 -0.237 0.044 3 
0.472 -0.247 0.044 3 
0.472 -0.256 0.044 3 
0.468 -0.115 0.052 3 
0.474 -0.267 0.124 3 
0.467 -0.096 0.052 3 
0.477 -0.296 0.134 3 
0.476 -0.288 0.133 3 
0.47 -0.147 0.124 3 
0.475 -0.275 0.133 3 
0.474 -0.267 0.132 3 
0.473 -0.257 0.132 3 
0.469 -0.107 0.052 3 
0.466 -0.095 0.012 3 
0.467 -0.085 0.052 3 
0.468 -0.126 0.052 3 
0.47 -0.135 0.052 3 
0.47 -0.155 0.052 3 
0.469 -0.165 0.052 3 
0.47 -0.177 0.052 3 
0.473 -0.245 0.134 3 
0.473 -0.236 0.134 3 
0.473 -0.227 0.134 3 
0.471 -0.207 0.052 3 
0.472 -0.217 0.134 3 
0.467 -0.047 0.052 3 
0.469 -0.105 0.123 3 
0.468 -0.126 0.123 3 
0.475 -0.287 0.093 3 
0.469 -0.096 0.123 3 
0.47 -0.136 0.124 3 
0.468 -0.085 0.123 3 
0.467 -0.077 0.122 3 
0.467 -0.066 0.122 3 
0.466 -0.06 0.122 3 
0.467 -0.044 0.052 3 
0.471 -0.187 0.052 3 
0.466 -0.055 0.052 3 
0.467 -0.066 0.052 3 
0.48 -0.347 0.133 3 
0.481 -0.337 0.133 3 
0.472 -0.277 0.044 3 
0.48 -0.326 0.132 3 
0.48 -0.315 0.132 3 
0.478 -0.307 0.131 3 
0.467 -0.077 0.052 3 
0.477 -0.317 0.052 3 
0.47 -0.175 0.124 3 
0.471 -0.187 0.124 3 
0.475 -0.274 0.127 3 
0.479 -0.347 0.064 3 
0.475 -0.298 0.052 3 
0.475 -0.305 0.052 3 
0.47 -0.166 0.044 3 
0.475 -0.306 0.084 3 
0.472 -0.196 0.133 3 
0.477 -0.327 0.052 3 
0.472 -0.196 0.122 3 
0.477 -0.338 0.052 3 
0.472 -0.205 0.122 3 
0.473 -0.215 0.123 3 
0.474 -0.286 0.087 3 
0.473 -0.236 0.123 3 
0.473 -0.285 0.052 3 
0.472 -0.205 0.133 3 
0.471 -0.187 0.133 3 
0.471 -0.176 0.133 3 
0.471 -0.167 0.133 3 
0.47 -0.147 0.132 3 
0.47 -0.136 0.132 3 
0.471 -0.216 0.052 3 
0.469 -0.166 0.124 3 
0.472 -0.277 0.052 3 
0.472 -0.265 0.052 3 
0.473 -0.247 0.052 3 
0.472 -0.237 0.052 3 
0.336 -0.025 0.026 7 
0.343 -0.042 0.023 7 
0.349 -0.045 0.02 7 
0.347 -0.04 0.02 7 
0.349 -0.03 0.021 7 
0.359 -0.039 0.018 7 
0.334 -0.043 0.024 7 
0.339 -0.025 0.023 7 
0.343 -0.023 0.026 7 
0.339 -0.024 0.023 7 
0.33 -0.014 0.031 7 
0.328 -0.015 0.031 7 
0.343 -0.013 0.029 7 
0.332 -0.008 0.02 7 
0.32 -0.006 0.031 7 
0.342 -0.045 0.021 7 
