# .PCD v0.7 - Point Cloud Data file
FIELDS x y z intensity
SIZE 4 4 4 4
TYPE F F F F
COUNT 1 1 1 1
WIDTH 2494
HEIGHT 1
VIEWPOINT 0 0 0 1 0 0 0
POINTS 2494
DATA ascii
0.429 -0.027 0.008 0 
0.432 -0.03 0.003 0 
0.371 -0.235 -0.024 1 
0.373 -0.235 -0.025 1 
0.373 -0.225 -0.024 1 
0.364 -0.167 -0.019 1 
0.362 -0.155 -0.018 1 
0.364 -0.145 -0.018 1 
0.363 -0.137 -0.017 1 
0.36 -0.125 -0.016 1 
0.354 -0.055 -0.012 1 
0.354 -0.045 -0.012 1 
0.353 -0.036 -0.012 1 
0.353 0.064 -0.013 1 
0.353 0.073 -0.013 1 
0.353 0.083 -0.013 1 
0.354 0.089 -0.014 1 
0.348 0.124 -0.012 1 
0.352 0.144 -0.015 1 
0.351 0.152 -0.015 1 
0.349 0.154 -0.014 1 
0.343 0.202 -0.015 1 
0.343 0.205 -0.015 1 
0.379 -0.229 -0.025 1 
0.361 -0.095 -0.014 1 
0.36 -0.085 -0.013 1 
0.362 -0.066 -0.014 1 
0.353 -0.026 -0.01 1 
0.334 -0.005 -0.003 1 
0.353 0.044 -0.011 1 
0.354 0.046 -0.011 1 
0.353 0.11 -0.012 1 
0.354 0.134 -0.013 1 
0.351 0.174 -0.014 1 
0.383 -0.248 -0.025 1 
0.384 -0.232 -0.024 1 
0.374 -0.197 -0.02 1 
0.373 -0.185 -0.019 1 
0.373 -0.175 -0.018 1 
0.374 -0.146 -0.018 1 
0.372 -0.135 -0.017 1 
0.372 -0.125 -0.017 1 
0.372 -0.115 -0.016 1 
0.369 -0.096 -0.015 1 
0.368 -0.087 -0.014 1 
0.369 -0.085 -0.015 1 
0.371 -0.075 -0.015 1 
0.363 -0.056 -0.012 1 
0.363 -0.036 -0.012 1 
0.342 -0.012 -0.005 1 
0.353 0.025 -0.009 1 
0.364 0.073 -0.013 1 
0.362 0.084 -0.013 1 
0.362 0.124 -0.014 1 
0.36 0.134 -0.013 1 
0.362 0.151 -0.015 1 
0.356 0.173 -0.014 1 
0.354 0.197 -0.014 1 
0.354 0.212 -0.015 1 
0.352 0.215 -0.015 1 
0.379 -0.239 -0.021 1 
0.392 -0.24 -0.025 1 
0.378 -0.205 -0.019 1 
0.372 -0.066 -0.014 1 
0.37 -0.056 -0.013 1 
0.37 -0.045 -0.013 1 
0.361 -0.025 -0.01 1 
0.364 0.041 -0.011 1 
0.37 0.083 -0.014 1 
0.372 0.103 -0.015 1 
0.369 0.113 -0.014 1 
0.371 0.124 -0.015 1 
0.362 0.182 -0.014 1 
0.362 0.193 -0.015 1 
0.364 0.203 -0.016 1 
0.357 0.22 -0.015 1 
0.394 -0.266 -0.025 1 
0.393 -0.262 -0.025 1 
0.391 -0.226 -0.022 1 
0.383 -0.159 -0.017 1 
0.382 -0.125 -0.016 1 
0.383 -0.115 -0.016 1 
0.383 -0.105 -0.016 1 
0.38 -0.096 -0.015 1 
0.381 -0.076 -0.015 1 
0.371 -0.036 -0.011 1 
0.353 -0.016 -0.005 1 
0.351 -0.014 -0.005 1 
0.347 -0.009 -0.003 1 
0.342 0.017 -0.005 1 
0.343 -0.005 -0.002 1 
0.354 0.02 -0.006 1 
0.36 0.023 -0.008 1 
0.363 0.025 -0.009 1 
0.372 0.043 -0.012 1 
0.371 0.144 -0.014 1 
0.372 0.153 -0.014 1 
0.374 0.156 -0.015 1 
0.372 0.183 -0.016 1 
0.372 0.193 -0.016 1 
0.393 -0.254 -0.022 1 
0.394 -0.217 -0.02 1 
0.392 -0.207 -0.02 1 
0.389 -0.186 -0.018 1 
0.381 -0.065 -0.013 1 
0.384 -0.058 -0.014 1 
0.382 -0.045 -0.013 1 
0.379 -0.035 -0.012 1 
0.374 -0.025 -0.011 1 
0.362 -0.015 -0.007 1 
0.337 -0.002 0.001 1 
0.374 0.03 -0.011 1 
0.379 0.054 -0.013 1 
0.382 0.074 -0.014 1 
0.383 0.084 -0.014 1 
0.382 0.098 -0.014 1 
0.383 0.103 -0.015 1 
0.381 0.114 -0.014 1 
0.382 0.122 -0.015 1 
0.381 0.163 -0.016 1 
0.372 0.22 -0.016 1 
0.373 0.236 -0.017 1 
0.401 -0.266 -0.022 1 
0.373 0.054 -0.012 1 
0.404 -0.255 -0.023 1 
0.404 -0.245 -0.022 1 
0.404 -0.239 -0.022 1 
0.381 -0.216 -0.02 1 
0.403 -0.226 -0.021 1 
0.394 -0.197 -0.018 1 
0.394 -0.125 -0.016 1 
0.394 -0.115 -0.016 1 
0.393 -0.106 -0.015 1 
0.394 -0.085 -0.015 1 
0.393 -0.081 -0.015 1 
0.39 -0.075 -0.014 1 
0.388 -0.065 -0.013 1 
0.39 -0.055 -0.014 1 
0.389 -0.047 -0.013 1 
0.381 -0.026 -0.011 1 
0.368 -0.015 -0.007 1 
0.373 -0.005 -0.008 1 
0.331 0.004 0.004 1 
0.332 0.013 0.004 1 
0.384 0.043 -0.012 1 
0.384 0.144 -0.014 1 
0.381 0.153 -0.013 1 
0.383 0.158 -0.014 1 
0.411 -0.265 -0.023 1 
0.412 -0.255 -0.023 1 
0.402 -0.206 -0.018 1 
0.403 -0.197 -0.018 1 
0.4 -0.105 -0.015 1 
0.398 -0.102 -0.015 1 
0.399 -0.083 -0.015 1 
0.394 -0.036 -0.013 1 
0.39 -0.025 -0.012 1 
0.382 -0.016 -0.009 1 
0.384 0.031 -0.01 1 
0.391 0.063 -0.013 1 
0.393 0.074 -0.013 1 
0.394 0.082 -0.014 1 
0.392 0.094 -0.013 1 
0.393 0.103 -0.014 1 
0.394 0.116 -0.014 1 
0.394 0.127 -0.015 1 
0.391 0.134 -0.014 1 
0.39 0.144 -0.014 1 
0.391 0.151 -0.014 1 
0.391 0.162 -0.015 1 
0.389 0.175 -0.015 1 
0.382 0.243 -0.016 1 
0.383 0.249 -0.016 1 
0.42 -0.296 -0.025 1 
0.414 -0.247 -0.021 1 
0.411 -0.236 -0.019 1 
0.412 -0.226 -0.019 1 
0.356 -0.006 -0.005 1 
0.408 -0.216 -0.018 1 
0.403 -0.185 -0.016 1 
0.404 -0.176 -0.016 1 
0.403 -0.155 -0.015 1 
0.403 -0.153 -0.015 1 
0.404 -0.14 -0.015 1 
0.405 -0.102 -0.015 1 
0.403 -0.095 -0.014 1 
0.404 -0.087 -0.014 1 
0.403 -0.065 -0.014 1 
0.403 -0.046 -0.013 1 
0.401 -0.035 -0.013 1 
0.387 -0.015 -0.009 1 
0.383 -0.011 -0.008 1 
0.393 0.033 -0.011 1 
0.394 0.037 -0.011 1 
0.401 0.074 -0.014 1 
0.372 -0.106 -0.016 1 
0.401 0.115 -0.014 1 
0.402 0.122 -0.015 1 
0.402 0.125 -0.015 1 
0.397 0.133 -0.013 1 
0.394 0.172 -0.014 1 
0.395 0.184 -0.015 1 
0.389 0.193 -0.013 1 
0.391 0.204 -0.014 1 
0.391 0.208 -0.014 1 
0.393 0.222 -0.015 1 
0.389 0.243 -0.015 1 
0.424 -0.3 -0.023 1 
0.423 -0.29 -0.023 1 
0.421 -0.265 -0.021 1 
0.421 -0.256 -0.02 1 
0.414 -0.209 -0.017 1 
0.413 -0.198 -0.017 1 
0.413 -0.166 -0.016 1 
0.411 -0.155 -0.015 1 
0.409 -0.147 -0.014 1 
0.41 -0.145 -0.015 1 
0.351 0.194 -0.015 1 
0.414 -0.136 -0.015 1 
0.414 -0.125 -0.015 1 
0.415 -0.114 -0.015 1 
0.413 -0.106 -0.015 1 
0.413 -0.088 -0.015 1 
0.413 -0.085 -0.014 1 
0.413 -0.081 -0.014 1 
0.414 -0.077 -0.015 1 
0.414 -0.074 -0.015 1 
0.411 -0.065 -0.014 1 
0.41 -0.045 -0.013 1 
0.395 -0.015 -0.009 1 
0.352 0.142 -0.014 1 
0.38 0.021 -0.005 1 
0.401 0.034 -0.011 1 
0.404 0.045 -0.012 1 
0.388 0.024 -0.009 1 
0.403 0.143 -0.013 1 
0.404 0.153 -0.014 1 
0.403 0.164 -0.014 1 
0.401 0.184 -0.014 1 
0.401 0.222 -0.015 1 
0.4 0.234 -0.016 1 
0.392 0.259 -0.015 1 
0.424 -0.235 -0.018 1 
0.423 -0.226 -0.018 1 
0.422 -0.218 -0.017 1 
0.42 -0.196 -0.016 1 
0.413 -0.185 -0.014 1 
0.419 -0.165 -0.015 1 
0.418 -0.16 -0.015 1 
0.41 -0.025 -0.011 1 
0.378 0.021 -0.002 1 
0.413 0.049 -0.012 1 
0.414 0.063 -0.013 1 
0.413 0.073 -0.013 1 
0.413 0.082 -0.013 1 
0.414 0.124 -0.014 1 
0.41 0.133 -0.013 1 
0.409 0.163 -0.013 1 
0.404 0.193 -0.013 1 
0.404 0.21 -0.014 1 
0.407 0.233 -0.015 1 
0.4 0.263 -0.015 1 
0.4 0.268 -0.015 1 
0.431 -0.275 -0.019 1 
0.426 -0.185 -0.015 1 
0.424 -0.176 -0.014 1 
0.424 -0.169 -0.014 1 
0.424 -0.156 -0.014 1 
0.422 -0.145 -0.013 1 
0.424 -0.137 -0.014 1 
0.423 -0.115 -0.013 1 
0.365 0.213 -0.015 1 
0.423 -0.105 -0.013 1 
0.424 -0.096 -0.013 1 
0.423 -0.075 -0.013 1 
0.422 -0.065 -0.012 1 
0.42 -0.056 -0.012 1 
0.423 -0.047 -0.012 1 
0.383 -0.185 -0.018 1 
0.394 -0.149 -0.016 1 
0.398 0.103 -0.013 1 
0.42 -0.035 -0.012 1 
0.411 -0.01 -0.009 1 
0.414 0.143 -0.012 1 
0.414 0.147 -0.012 1 
0.413 0.193 -0.013 1 
0.411 0.214 -0.013 1 
0.413 0.244 -0.015 1 
0.413 0.247 -0.015 1 
0.408 0.252 -0.014 1 
0.409 0.27 -0.015 1 
0.434 -0.308 -0.018 1 
0.433 -0.286 -0.017 1 
0.435 -0.244 -0.016 1 
0.432 -0.225 -0.015 1 
0.432 -0.215 -0.015 1 
0.432 -0.205 -0.015 1 
0.432 -0.2 -0.015 1 
0.375 -0.074 -0.015 1 
0.431 -0.196 -0.014 1 
0.431 -0.186 -0.014 1 
0.371 0.097 -0.014 1 
0.433 -0.18 -0.014 1 
0.434 -0.178 -0.015 1 
0.433 -0.167 -0.014 1 
0.429 -0.147 -0.013 1 
0.43 -0.135 -0.013 1 
0.431 -0.126 -0.013 1 
0.429 -0.105 -0.012 1 
0.43 -0.096 -0.012 1 
0.429 -0.065 -0.012 1 
0.429 -0.055 -0.012 1 
0.351 0.176 -0.014 1 
0.432 -0.046 -0.013 1 
0.421 -0.026 -0.01 1 
0.419 -0.175 -0.015 1 
0.424 0.044 -0.011 1 
0.423 0.062 -0.011 1 
0.423 0.074 -0.011 1 
0.424 0.088 -0.011 1 
0.424 0.1 -0.011 1 
0.424 0.124 -0.012 1 
0.421 0.154 -0.012 1 
0.421 0.164 -0.012 1 
0.42 0.273 -0.015 1 
0.415 0.282 -0.015 1 
0.381 0.124 -0.014 1 
0.414 0.284 -0.014 1 
0.441 -0.297 -0.017 1 
0.443 -0.278 -0.017 1 
0.434 -0.263 -0.014 1 
0.437 -0.255 -0.015 1 
0.434 -0.155 -0.012 1 
0.434 -0.085 -0.011 1 
0.434 -0.083 -0.011 1 
0.433 -0.035 -0.01 1 
0.429 -0.011 -0.01 1 
0.332 0.004 0.014 1 
0.332 0.015 0.014 1 
0.428 0.054 -0.01 1 
0.428 0.064 -0.01 1 
0.429 0.073 -0.01 1 
0.433 0.084 -0.011 1 
0.433 0.094 -0.011 1 
0.43 0.124 -0.011 1 
0.428 0.143 -0.011 1 
0.424 0.174 -0.011 1 
0.424 0.181 -0.011 1 
0.424 0.194 -0.011 1 
0.423 0.214 -0.012 1 
0.422 0.223 -0.012 1 
0.422 0.234 -0.012 1 
0.421 0.241 -0.012 1 
0.422 0.253 -0.013 1 
0.421 0.283 -0.014 1 
0.422 0.287 -0.014 1 
0.428 0.3 -0.016 1 
0.422 -0.205 -0.017 1 
0.446 -0.306 -0.016 1 
0.445 -0.298 -0.015 1 
0.445 -0.292 -0.015 1 
0.443 -0.287 -0.014 1 
0.384 0.134 -0.014 1 
0.446 -0.281 -0.015 1 
0.414 0.103 -0.013 1 
0.443 -0.235 -0.013 1 
0.441 -0.225 -0.012 1 
0.442 -0.215 -0.012 1 
0.443 -0.197 -0.012 1 
0.441 -0.185 -0.011 1 
0.443 -0.175 -0.012 1 
0.442 -0.167 -0.011 1 
0.441 -0.156 -0.011 1 
0.441 -0.146 -0.011 1 
0.443 -0.136 -0.011 1 
0.441 -0.125 -0.011 1 
0.44 -0.115 -0.01 1 
0.44 -0.105 -0.01 1 
0.41 -0.096 -0.014 1 
0.441 -0.095 -0.01 1 
0.424 0.084 -0.011 1 
0.442 -0.085 -0.01 1 
0.442 -0.075 -0.01 1 
0.44 -0.065 -0.01 1 
0.441 -0.055 -0.01 1 
0.438 -0.016 -0.009 1 
0.468 -0.012 -0.017 1 
0.434 0.149 -0.01 1 
0.434 0.156 -0.01 1 
0.431 0.173 -0.01 1 
0.429 0.182 -0.01 1 
0.429 0.254 -0.012 1 
0.43 0.263 -0.012 1 
0.429 0.274 -0.012 1 
0.449 -0.329 -0.015 1 
0.452 -0.315 -0.015 1 
0.45 -0.297 -0.014 1 
0.442 -0.265 -0.011 1 
0.444 -0.261 -0.011 1 
0.449 -0.185 -0.011 1 
0.45 -0.145 -0.01 1 
0.45 -0.135 -0.01 1 
0.448 -0.115 -0.01 1 
0.442 -0.207 -0.012 1 
0.451 -0.085 -0.01 1 
0.45 -0.075 -0.01 1 
0.423 0.053 -0.011 1 
0.444 -0.026 -0.008 1 
0.447 -0.014 -0.009 1 
0.442 0.042 -0.008 1 
0.443 0.06 -0.009 1 
0.444 0.073 -0.009 1 
0.444 0.083 -0.009 1 
0.444 0.103 -0.009 1 
0.442 0.122 -0.009 1 
0.442 0.133 -0.009 1 
0.439 0.163 -0.009 1 
0.434 0.193 -0.009 1 
0.434 0.198 -0.009 1 
0.434 0.217 -0.009 1 
0.434 0.233 -0.01 1 
0.434 0.239 -0.01 1 
0.43 0.284 -0.011 1 
0.431 0.294 -0.011 1 
0.432 0.304 -0.012 1 
0.454 -0.286 -0.011 1 
0.423 0.133 -0.012 1 
0.454 -0.267 -0.011 1 
0.453 -0.255 -0.01 1 
0.452 -0.245 -0.01 1 
0.454 -0.235 -0.01 1 
0.454 -0.226 -0.01 1 
0.454 -0.216 -0.01 1 
0.454 -0.205 -0.01 1 
0.454 -0.202 -0.01 1 
0.454 -0.158 -0.009 1 
0.454 -0.128 -0.009 1 
0.453 -0.107 -0.008 1 
0.454 -0.097 -0.008 1 
0.454 -0.055 -0.008 1 
0.397 0.062 -0.012 1 
0.444 -0.036 -0.006 1 
0.44 0.144 -0.009 1 
0.452 0.044 -0.008 1 
0.45 0.054 -0.008 1 
0.452 0.064 -0.008 1 
0.449 0.074 -0.008 1 
0.443 0.173 -0.008 1 
0.442 0.183 -0.008 1 
0.439 0.194 -0.007 1 
0.44 0.203 -0.008 1 
0.441 0.242 -0.009 1 
0.405 0.274 -0.014 1 
0.454 -0.317 -0.01 1 
0.404 -0.076 -0.014 1 
0.462 -0.297 -0.011 1 
0.377 -0.239 -0.025 1 
0.463 -0.057 -0.007 1 
0.494 -0.01 -0.015 1 
0.457 0.063 -0.007 1 
0.454 0.093 -0.006 1 
0.454 0.104 -0.006 1 
0.454 0.133 -0.007 1 
0.452 0.153 -0.007 1 
0.443 0.273 -0.008 1 
0.444 0.283 -0.008 1 
0.443 0.294 -0.008 1 
0.437 0.31 -0.008 1 
0.461 -0.335 -0.009 1 
0.381 0.184 -0.015 1 
0.464 -0.318 -0.009 1 
0.463 -0.257 -0.007 1 
0.464 -0.237 -0.007 1 
0.463 -0.217 -0.006 1 
0.464 -0.197 -0.006 1 
0.462 -0.176 -0.006 1 
0.464 -0.155 -0.006 1 
0.465 -0.147 -0.006 1 
0.463 -0.135 -0.005 1 
0.462 -0.116 -0.005 1 
0.464 -0.095 -0.005 1 
0.465 -0.079 -0.005 1 
0.464 -0.076 -0.005 1 
0.471 -0.056 -0.007 1 
0.473 -0.053 -0.007 1 
0.487 -0.053 -0.01 1 
0.46 -0.046 -0.004 1 
0.456 -0.043 -0.003 1 
0.454 -0.04 -0.003 1 
0.409 -0.185 -0.015 1 
0.483 -0.007 -0.009 1 
0.437 0.027 0 1 
0.464 0.043 -0.005 1 
0.464 0.046 -0.005 1 
0.372 0.02 -0.008 1 
0.464 0.07 -0.006 1 
0.458 0.124 -0.005 1 
0.457 0.142 -0.005 1 
0.456 0.153 -0.005 1 
0.454 0.163 -0.005 1 
0.453 0.173 -0.005 1 
0.393 0.232 -0.016 1 
0.453 0.184 -0.005 1 
0.453 0.193 -0.005 1 
0.454 0.202 -0.006 1 
0.414 0.09 -0.013 1 
0.455 0.205 -0.006 1 
0.454 0.213 -0.006 1 
0.453 0.224 -0.006 1 
0.452 0.234 -0.006 1 
0.451 0.242 -0.006 1 
0.449 0.252 -0.006 1 
0.449 0.264 -0.006 1 
0.458 0.132 -0.005 1 
0.469 -0.287 -0.006 1 
0.466 -0.275 -0.005 1 
0.468 -0.255 -0.005 1 
0.47 -0.245 -0.005 1 
0.468 -0.237 -0.005 1 
0.464 -0.186 -0.003 1 
0.464 -0.18 -0.003 1 
0.464 -0.106 -0.003 1 
0.441 0.054 -0.008 1 
0.443 -0.033 0.001 1 
0.487 -0.007 -0.007 1 
0.393 -0.157 -0.016 1 
0.48 -0.055 -0.006 1 
0.374 0.013 0.015 1 
0.376 0.017 0.014 1 
0.473 0.064 -0.005 1 
0.454 0.078 -0.001 1 
0.454 0.259 -0.004 1 
0.456 0.264 -0.005 1 
0.455 0.272 -0.005 1 
0.455 0.282 -0.005 1 
0.454 0.284 -0.005 1 
0.453 0.292 -0.005 1 
0.452 0.304 -0.005 1 
0.452 0.313 -0.005 1 
0.452 0.323 -0.006 1 
0.452 0.326 -0.006 1 
0.474 -0.346 -0.006 1 
0.472 -0.337 -0.005 1 
0.432 0.133 -0.012 1 
0.444 0.262 -0.008 1 
0.472 -0.327 -0.005 1 
0.473 -0.317 -0.005 1 
0.451 -0.047 -0.007 1 
0.473 -0.314 -0.005 1 
0.458 0.113 -0.005 1 
0.384 0.01 0.015 1 
0.394 -0.007 -0.009 1 
0.388 0.014 0.014 1 
0.388 0.018 0.014 1 
0.462 0.338 -0.005 1 
0.474 -0.329 -0.002 1 
0.474 -0.305 -0.002 1 
0.474 -0.295 -0.001 1 
0.481 -0.055 0 1 
0.462 -0.025 0.002 1 
0.394 0.114 -0.014 1 
0.455 0.013 0.003 1 
0.458 0.024 0.003 1 
0.463 0.032 0.002 1 
0.467 0.065 0.001 1 
0.451 0.067 0.004 1 
0.465 0.083 0.001 1 
0.463 0.174 0 1 
0.464 0.183 0 1 
0.463 0.194 0 1 
0.461 0.244 0 1 
0.474 -0.357 0 1 
0.475 -0.283 0.001 1 
0.475 -0.24 0.001 1 
0.471 -0.225 0.002 1 
0.471 -0.216 0.002 1 
0.471 -0.205 0.002 1 
0.47 -0.186 0.003 1 
0.47 -0.175 0.003 1 
0.47 -0.155 0.003 1 
0.47 -0.147 0.003 1 
0.373 -0.205 -0.022 1 
0.424 0.107 -0.012 1 
0.469 -0.135 0.003 1 
0.469 -0.085 0.004 1 
0.468 -0.077 0.004 1 
0.469 -0.055 0.004 1 
0.471 -0.053 0.003 1 
0.461 -0.025 0.005 1 
0.466 -0.015 0.004 1 
0.467 -0.007 0.004 1 
0.464 0.035 0.004 1 
0.469 0.044 0.003 1 
0.477 0.053 0.002 1 
0.493 0.062 0 1 
0.463 0.094 0.004 1 
0.464 0.113 0.004 1 
0.465 0.121 0.004 1 
0.464 0.124 0.004 1 
0.465 0.132 0.003 1 
0.465 0.144 0.003 1 
0.464 0.152 0.003 1 
0.464 0.163 0.003 1 
0.468 0.182 0.002 1 
0.466 0.193 0.002 1 
0.465 0.203 0.002 1 
0.465 0.212 0.002 1 
0.465 0.221 0.002 1 
0.464 0.223 0.002 1 
0.464 0.226 0.002 1 
0.465 0.233 0.002 1 
0.466 0.243 0.001 1 
0.465 0.251 0.001 1 
0.472 -0.354 0.002 1 
0.363 0.104 -0.014 1 
0.476 -0.337 0.002 1 
0.424 -0.087 -0.013 1 
0.48 -0.007 -0.017 1 
0.475 -0.296 0.003 1 
0.475 -0.293 0.003 1 
0.474 -0.285 0.004 1 
0.473 -0.278 0.004 1 
0.472 -0.265 0.004 1 
0.499 -0.013 -0.022 1 
0.483 -0.052 0.004 1 
0.384 0.209 -0.017 1 
0.421 0.032 -0.01 1 
0.442 0.032 -0.008 1 
0.458 0.003 0.008 1 
0.457 0.024 0.008 1 
0.456 -0.045 -0.006 1 
0.462 0.045 0.007 1 
0.463 0.252 0.004 1 
0.383 -0.176 -0.018 1 
0.463 0.264 0.004 1 
0.462 -0.007 -0.023 1 
0.464 0.274 0.004 1 
0.464 0.293 0.003 1 
0.464 0.3 0.003 1 
0.465 0.304 0.003 1 
0.464 0.313 0.003 1 
0.463 0.321 0.003 1 
0.463 0.332 0.002 1 
0.453 0.034 -0.006 1 
0.457 -0.014 -0.009 1 
0.457 0.011 0.011 1 
0.434 0.012 0.015 1 
0.449 0.023 0.012 1 
0.48 0.056 0.007 1 
0.448 -0.067 -0.009 1 
0.469 0.068 -0.007 1 
0.465 0.054 -0.006 1 
0.469 -0.034 0.012 1 
0.483 0.06 0.004 1 
0.46 -0.014 0.013 1 
0.43 0.043 -0.01 1 
0.499 -0.007 0.007 1 
0.48 -0.049 -0.006 1 
0.464 -0.065 -0.005 1 
0.408 0.204 -0.012 1 
0.382 -0.146 -0.017 1 
0.464 -0.089 -0.005 1 
0.454 -0.166 -0.009 1 
0.462 -0.105 -0.005 1 
0.433 0.206 -0.009 1 
0.486 -0.041 0.003 1 
0.463 -0.127 -0.005 1 
0.464 -0.149 -0.006 1 
0.408 0.258 -0.014 1 
0.464 -0.166 -0.006 1 
0.462 -0.187 -0.006 1 
0.462 -0.225 -0.006 1 
0.449 -0.306 -0.014 1 
0.463 -0.245 -0.007 1 
0.464 -0.267 -0.007 1 
0.44 0.253 -0.009 1 
0.46 -0.288 -0.01 1 
0.492 -0.048 0.014 1 
0.495 -0.046 0.014 1 
0.369 0.133 -0.015 1 
0.464 -0.325 -0.009 1 
0.493 -0.042 0.017 1 
0.423 0.203 -0.011 1 
0.44 -0.278 -0.011 1 
0.414 0.106 -0.013 1 
0.371 0.108 -0.015 1 
0.443 -0.246 -0.013 1 
0.455 0.291 -0.005 1 
0.434 -0.249 -0.016 1 
0.389 0.172 -0.015 1 
0.438 -0.27 -0.015 1 
0.443 -0.315 -0.015 1 
0.399 -0.085 -0.015 1 
0.354 -0.088 -0.013 1 
0.453 0.143 -0.007 1 
0.364 -0.184 -0.02 1 
0.439 -0.245 -0.015 1 
0.468 -0.126 0.004 1 
0.382 0.112 -0.015 1 
0.472 0.061 0.003 1 
0.344 -0.015 -0.006 1 
0.474 -0.245 0.004 1 
0.362 0.113 -0.014 1 
0.453 -0.022 -0.008 1 
0.421 -0.015 -0.01 1 
0.454 0.122 -0.007 1 
0.331 0.015 0.004 1 
0.445 0.028 0.015 1 
0.44 -0.013 -0.01 1 
0.44 0.152 -0.009 1 
0.352 0.164 -0.014 1 
0.343 0.017 -0.004 1 
0.364 0.094 -0.014 1 
0.407 -0.035 -0.012 1 
0.358 0.144 -0.015 1 
0.333 -0.01 -0.005 1 
0.332 0.013 0.014 1 
0.464 0.339 0.002 1 
0.464 0.143 0.001 1 
0.475 -0.267 0.001 1 
0.442 0.213 -0.008 1 
0.369 -0.216 -0.023 1 
0.441 -0.045 -0.01 1 
0.462 0.083 0.004 1 
0.475 -0.246 0.001 1 
0.37 -0.073 -0.015 1 
0.419 -0.277 -0.021 1 
0.431 0.113 -0.011 1 
0.351 0.203 -0.016 1 
0.386 0.204 -0.015 1 
0.464 -0.036 0.007 1 
0.401 0.213 -0.015 1 
0.493 -0.039 0.014 1 
0.424 0.266 -0.014 1 
0.478 -0.007 -0.003 1 
0.456 0.003 0.003 1 
0.374 0.064 -0.013 1 
0.395 0.244 -0.015 1 
0.47 -0.166 0.003 1 
0.35 0.104 -0.013 1 
0.473 -0.236 0.004 1 
0.493 -0.045 0.002 1 
0.4 0.113 -0.014 1 
0.411 0.224 -0.014 1 
0.434 -0.172 -0.015 1 
0.392 -0.103 -0.015 1 
0.433 -0.237 -0.016 1 
0.467 -0.007 -0.011 1 
0.43 -0.265 -0.018 1 
0.404 -0.165 -0.015 1 
0.41 -0.056 -0.013 1 
0.379 0.063 -0.013 1 
0.475 -0.255 0.001 1 
0.419 -0.246 -0.02 1 
0.455 0.062 0.006 1 
0.409 0.124 -0.015 1 
0.452 -0.032 -0.003 1 
0.47 -0.298 -0.007 1 
0.464 -0.103 -0.003 1 
0.394 0.178 -0.014 1 
0.464 0.127 0.004 1 
0.382 0.203 -0.016 1 
0.361 0.158 -0.015 1 
0.414 0.174 -0.013 1 
0.458 -0.017 0.013 1 
0.468 -0.096 0.004 1 
0.394 0.254 -0.015 1 
0.463 -0.017 -0.005 1 
0.39 -0.236 -0.024 1 
0.478 -0.01 -0.025 1 
0.444 0.093 -0.009 1 
0.356 0.15 -0.014 1 
0.465 -0.087 -0.005 1 
0.452 -0.275 -0.011 1 
0.364 -0.105 -0.015 1 
0.463 0.102 0.004 1 
0.475 -0.037 0.008 1 
0.419 -0.137 -0.015 1 
0.454 0.114 -0.007 1 
0.414 0.184 -0.013 1 
0.373 -0.232 -0.025 1 
0.382 -0.085 -0.015 1 
0.453 -0.027 -0.005 1 
0.451 0.033 0.014 1 
0.413 0.042 -0.012 1 
0.424 0.263 -0.013 1 
0.42 0.144 -0.011 1 
0.45 -0.042 -0.005 1 
0.434 -0.296 -0.018 1 
0.456 -0.025 -0.006 1 
0.457 0.034 0.011 1 
0.403 -0.218 -0.019 1 
0.443 -0.293 -0.015 1 
0.454 0.274 -0.005 1 
0.394 -0.18 -0.017 1 
0.409 -0.175 -0.015 1 
0.403 -0.056 -0.013 1 
0.364 -0.098 -0.015 1 
0.443 0.304 -0.009 1 
0.398 -0.125 -0.015 1 
0.422 0.264 -0.015 1 
0.402 0.173 -0.014 1 
0.381 0.128 -0.015 1 
0.391 -0.247 -0.025 1 
0.414 -0.118 -0.015 1 
0.393 0.053 -0.013 1 
0.454 -0.177 -0.009 1 
0.364 -0.049 -0.012 1 
0.352 -0.004 -0.003 1 
0.369 0.152 -0.015 1 
0.38 0.234 -0.017 1 
0.43 0.103 -0.011 1 
0.372 0.232 -0.016 1 
0.43 -0.025 -0.01 1 
0.416 -0.185 -0.015 1 
0.443 0.113 -0.009 1 
0.428 0.033 -0.009 1 
0.363 -0.075 -0.014 1 
0.362 0.184 -0.015 1 
0.444 -0.31 -0.015 1 
0.471 -0.196 0.002 1 
0.384 0.223 -0.017 1 
0.353 0.184 -0.015 1 
0.434 -0.255 -0.016 1 
0.526 -0.011 0.003 1 
0.379 -0.197 -0.019 1 
0.453 0.083 -0.006 1 
0.392 0.212 -0.015 1 
0.419 -0.132 -0.015 1 
0.372 -0.155 -0.017 1 
0.372 0.174 -0.015 1 
0.497 -0.049 0.002 1 
0.463 0.202 0 1 
0.363 0.053 -0.013 1 
0.393 -0.257 -0.024 1 
0.371 0.093 -0.014 1 
0.421 -0.01 -0.01 1 
0.364 0.064 -0.013 1 
0.465 0.172 0.003 1 
0.381 0.193 -0.015 1 
0.399 0.082 -0.013 1 
0.467 -0.267 -0.005 1 
0.403 0.253 -0.015 1 
0.464 0.284 0.004 1 
0.404 0.043 -0.012 1 
0.382 -0.167 -0.017 1 
0.359 0.164 -0.014 1 
0.362 0.143 -0.014 1 
0.473 -0.256 0.004 1 
0.411 0.033 -0.012 1 
0.363 -0.116 -0.015 1 
0.404 0.2 -0.013 1 
0.415 -0.116 -0.015 1 
0.374 0.132 -0.014 1 
0.39 -0.096 -0.014 1 
0.442 0.224 -0.009 1 
0.464 -0.017 0.004 1 
0.391 -0.165 -0.018 1 
0.414 -0.277 -0.02 1 
0.41 0.263 -0.015 1 
0.403 -0.027 -0.012 1 
0.413 0.234 -0.014 1 
0.467 -0.004 0.004 1 
0.464 -0.206 -0.006 1 
0.381 0.094 -0.014 1 
0.455 0.161 -0.005 1 
0.424 -0.127 -0.014 1 
0.463 -0.276 -0.007 1 
0.427 -0.116 -0.012 1 
0.384 0.173 -0.015 1 
0.44 0.233 -0.009 1 
0.469 0.046 0.003 1 
0.462 0.213 0 1 
0.4 -0.115 -0.015 1 
0.412 -0.016 -0.01 1 
0.453 -0.024 0.009 1 
0.431 -0.015 -0.01 1 
0.402 -0.145 -0.014 1 
0.382 -0.135 -0.016 1 
0.468 -0.015 -0.006 1 
0.372 0.204 -0.017 1 
0.465 0.307 0.003 1 
0.391 -0.092 -0.014 1 
0.474 -0.043 -0.002 1 
0.373 0.015 0.015 1 
0.458 0.103 -0.005 1 
0.462 -0.306 -0.011 1 
0.394 -0.136 -0.016 1 
0.36 0.212 -0.015 1 
0.374 -0.165 -0.016 1 
0.374 0.068 -0.013 1 
0.495 -0.037 0.014 1 
0.397 0.094 -0.013 1 
0.343 0.024 0.046 2 
0.344 -0.005 0.048 2 
0.354 -0.004 0.044 2 
0.361 0.031 0.054 2 
0.432 0.036 0.03 2 
0.356 0.019 0.04 2 
0.345 0.011 0.028 2 
0.37 -0.003 0.038 2 
0.399 -0.022 0.037 2 
0.34 0.006 0.03 2 
0.349 0.038 0.048 2 
0.343 0.035 0.048 2 
0.355 -0.007 0.044 2 
0.355 0.039 0.046 2 
0.34 0.034 0.047 2 
0.345 0.022 0.043 2 
0.368 -0.017 0.043 2 
0.38 -0.02 0.041 2 
0.435 -0.025 0.022 2 
0.402 0.013 0.015 2 
0.425 -0.027 0.026 2 
0.422 -0.026 0.025 2 
0.376 0.004 0.012 2 
0.366 0.004 0.012 2 
0.363 -0.001 0.012 2 
0.41 0.053 0.032 2 
0.431 -0.02 0.028 2 
0.414 -0.021 0.03 2 
0.441 -0.028 0.026 2 
0.346 -0.005 0.051 2 
0.367 0.034 0.047 2 
0.352 0.03 0.051 2 
0.366 -0.006 0.051 2 
0.346 0.035 0.049 2 
0.342 0.033 0.05 2 
0.352 0.03 0.046 2 
0.343 -0.004 0.047 2 
0.36 -0.015 0.042 2 
0.355 -0.011 0.046 2 
0.384 0.043 0.037 2 
0.365 0.011 0.023 2 
0.358 -0.002 0.042 2 
0.544 -0.029 0.047 2 
0.531 -0.018 0.038 2 
0.512 -0.026 0.034 2 
0.511 -0.035 0.034 2 
0.541 -0.015 0.054 2 
0.536 -0.025 0.038 2 
0.526 -0.018 0.018 2 
0.535 -0.021 0.028 2 
0.528 -0.027 0.028 2 
0.53 -0.037 0.018 2 
0.54 -0.035 0.03 2 
0.541 -0.022 0.041 2 
0.522 -0.014 0.041 2 
0.532 -0.038 0.021 2 
0.5 -0.046 0.031 2 
0.515 -0.02 0.009 2 
0.534 -0.028 0.038 2 
0.524 -0.018 0.015 2 
0.523 -0.027 0.015 2 
0.523 -0.037 0.015 2 
0.541 -0.018 0.047 2 
0.526 -0.014 0.048 2 
0.5 -0.037 0.029 2 
0.535 -0.025 0.028 2 
0.533 -0.015 0.051 2 
0.306 -0.009 0.094 3 
0.465 0.141 0.114 3 
0.475 -0.237 0.143 3 
0.475 -0.247 0.144 3 
0.475 -0.256 0.144 3 
0.474 -0.265 0.144 3 
0.475 -0.275 0.144 3 
0.467 0.345 0.141 3 
0.472 -0.185 0.122 3 
0.464 0.225 0.137 3 
0.464 0.213 0.137 3 
0.448 0.059 0.131 3 
0.288 0.024 0.089 3 
0.474 -0.228 0.143 3 
0.474 -0.255 0.141 3 
0.465 0.169 0.041 3 
0.478 -0.287 0.143 3 
0.47 -0.207 0.014 3 
0.479 -0.295 0.143 3 
0.479 -0.305 0.143 3 
0.479 -0.315 0.144 3 
0.464 0.224 0.134 3 
0.464 0.213 0.134 3 
0.474 -0.267 0.124 3 
0.464 0.204 0.134 3 
0.471 -0.165 0.144 3 
0.466 0.173 0.142 3 
0.471 -0.156 0.124 3 
0.44 0.057 0.134 3 
0.287 -0.008 0.091 3 
0.469 -0.077 0.142 3 
0.469 -0.085 0.142 3 
0.47 -0.105 0.143 3 
0.471 -0.117 0.143 3 
0.47 -0.125 0.143 3 
0.302 0.01 0.044 3 
0.471 -0.145 0.143 3 
0.471 -0.156 0.144 3 
0.465 0.202 0.134 3 
0.472 -0.177 0.144 3 
0.471 -0.185 0.144 3 
0.471 -0.197 0.144 3 
0.482 -0.346 0.152 3 
0.466 0.341 0.144 3 
0.466 0.33 0.143 3 
0.466 0.32 0.143 3 
0.466 0.313 0.143 3 
0.465 0.303 0.142 3 
0.473 -0.206 0.142 3 
0.474 -0.216 0.143 3 
0.277 0.004 0.074 3 
0.474 -0.237 0.137 3 
0.474 -0.249 0.138 3 
0.481 -0.327 0.142 3 
0.482 -0.335 0.142 3 
0.482 -0.346 0.143 3 
0.466 0.323 0.134 3 
0.465 0.342 0.123 3 
0.465 0.302 0.134 3 
0.465 0.293 0.133 3 
0.275 0.006 0.082 3 
0.465 0.283 0.133 3 
0.465 0.274 0.133 3 
0.469 -0.096 0.134 3 
0.465 0.264 0.133 3 
0.463 0.132 0.022 3 
0.465 0.252 0.132 3 
0.464 0.242 0.132 3 
0.464 0.254 0.124 3 
0.465 0.237 0.132 3 
0.464 0.233 0.132 3 
0.465 0.205 0.132 3 
0.293 0.025 0.088 3 
0.275 0.02 0.084 3 
0.275 -0.002 0.084 3 
0.465 0.073 0.133 3 
0.466 0.193 0.134 3 
0.465 0.184 0.134 3 
0.465 0.172 0.134 3 
0.465 0.164 0.134 3 
0.465 0.153 0.133 3 
0.465 0.133 0.133 3 
0.465 0.122 0.133 3 
0.466 0.114 0.133 3 
0.466 0.103 0.133 3 
0.466 0.092 0.133 3 
0.466 0.084 0.133 3 
0.466 0.182 0.142 3 
0.452 0.064 0.017 3 
0.464 0.07 0.132 3 
0.459 0.061 0.131 3 
0.296 0.026 0.09 3 
0.272 0.019 0.084 3 
0.271 0.004 0.084 3 
0.467 -0.055 0.133 3 
0.467 -0.066 0.133 3 
0.468 -0.077 0.134 3 
0.469 -0.085 0.134 3 
0.472 -0.186 0.153 3 
0.466 0.304 0.154 3 
0.466 0.294 0.154 3 
0.466 0.282 0.153 3 
0.465 0.262 0.152 3 
0.465 0.253 0.152 3 
0.465 0.244 0.152 3 
0.468 -0.137 0.014 3 
0.471 -0.145 0.152 3 
0.472 -0.157 0.152 3 
0.472 -0.165 0.153 3 
0.475 -0.274 0.104 3 
0.472 -0.177 0.153 3 
0.466 0.311 0.154 3 
0.473 -0.198 0.154 3 
0.465 0.232 0.063 3 
0.474 -0.216 0.154 3 
0.474 -0.225 0.154 3 
0.462 0.242 0.013 3 
0.466 0.345 0.153 3 
0.465 0.34 0.152 3 
0.466 0.331 0.152 3 
0.466 0.324 0.152 3 
0.436 0.056 0.138 3 
0.468 -0.115 0.074 3 
0.471 -0.106 0.154 3 
0.467 0.112 0.153 3 
0.467 0.104 0.153 3 
0.467 0.093 0.153 3 
0.475 -0.269 0.144 3 
0.467 0.082 0.152 3 
0.47 -0.058 0.153 3 
0.462 0.331 0.062 3 
0.469 -0.066 0.153 3 
0.47 -0.075 0.153 3 
0.471 -0.086 0.154 3 
0.471 -0.097 0.154 3 
0.473 -0.247 0.092 3 
0.277 -0.004 0.09 3 
0.471 -0.117 0.154 3 
0.471 -0.125 0.154 3 
0.471 -0.136 0.154 3 
0.463 0.339 0.062 3 
0.474 -0.225 0.157 3 
0.469 -0.135 0.093 3 
0.481 -0.317 0.162 3 
0.482 -0.325 0.163 3 
0.482 -0.336 0.164 3 
0.483 -0.348 0.164 3 
0.466 0.345 0.156 3 
0.465 0.274 0.144 3 
0.474 -0.262 0.15 3 
0.474 -0.265 0.15 3 
0.479 -0.285 0.152 3 
0.479 -0.295 0.152 3 
0.479 -0.305 0.152 3 
0.48 -0.316 0.153 3 
0.482 -0.328 0.154 3 
0.482 -0.335 0.154 3 
0.475 -0.36 0.154 3 
0.48 -0.335 0.112 3 
0.464 0.305 0.145 3 
0.465 0.277 0.144 3 
0.468 -0.066 0.144 3 
0.465 0.152 0.063 3 
0.465 0.262 0.144 3 
0.466 0.253 0.144 3 
0.465 0.243 0.144 3 
0.465 0.234 0.143 3 
0.464 0.222 0.143 3 
0.465 0.219 0.143 3 
0.464 0.183 0.033 3 
0.465 0.214 0.143 3 
0.465 0.202 0.143 3 
0.465 0.193 0.142 3 
0.466 0.134 0.144 3 
0.475 -0.232 0.152 3 
0.475 -0.235 0.152 3 
0.472 -0.265 0.013 3 
0.476 -0.257 0.153 3 
0.476 -0.266 0.153 3 
0.477 -0.277 0.154 3 
0.465 0.177 0.041 3 
0.465 0.156 0.144 3 
0.465 0.147 0.144 3 
0.466 0.142 0.144 3 
0.474 -0.258 0.124 3 
0.277 -0.005 0.084 3 
0.466 0.123 0.144 3 
0.466 0.112 0.144 3 
0.466 0.104 0.144 3 
0.466 0.093 0.144 3 
0.467 0.082 0.144 3 
0.464 0.163 0.063 3 
0.466 0.074 0.144 3 
0.464 0.065 0.143 3 
0.448 0.059 0.139 3 
0.275 0.022 0.089 3 
0.468 -0.055 0.144 3 
0.465 0.224 0.112 3 
0.466 0.333 0.114 3 
0.466 0.322 0.114 3 
0.466 0.312 0.114 3 
0.466 0.303 0.114 3 
0.466 0.293 0.114 3 
0.465 0.283 0.113 3 
0.464 0.275 0.113 3 
0.464 0.272 0.113 3 
0.463 0.262 0.113 3 
0.463 0.253 0.112 3 
0.463 0.244 0.112 3 
0.464 0.233 0.112 3 
0.464 0.334 0.114 3 
0.463 0.322 0.043 3 
0.464 0.191 0.112 3 
0.465 0.189 0.112 3 
0.465 0.073 0.111 3 
0.461 0.053 0.11 3 
0.467 -0.044 0.111 3 
0.469 -0.077 0.112 3 
0.469 -0.085 0.112 3 
0.467 -0.066 0.034 3 
0.469 -0.096 0.112 3 
0.47 -0.105 0.112 3 
0.465 0.122 0.114 3 
0.48 -0.336 0.124 3 
0.479 -0.345 0.124 3 
0.479 -0.356 0.124 3 
0.465 0.178 0.114 3 
0.464 0.172 0.114 3 
0.465 0.169 0.114 3 
0.478 -0.325 0.064 3 
0.465 0.164 0.114 3 
0.464 0.158 0.114 3 
0.465 0.153 0.114 3 
0.465 0.204 0.112 3 
0.466 0.134 0.114 3 
0.469 -0.116 0.112 3 
0.464 0.294 0.082 3 
0.465 0.114 0.114 3 
0.465 0.103 0.114 3 
0.465 0.092 0.114 3 
0.465 0.084 0.114 3 
0.476 -0.316 0.043 3 
0.464 0.073 0.114 3 
0.466 -0.047 0.114 3 
0.467 -0.055 0.114 3 
0.468 -0.066 0.114 3 
0.464 0.341 0.114 3 
0.465 0.233 0.104 3 
0.465 0.24 0.107 3 
0.465 0.059 0.106 3 
0.464 0.244 0.082 3 
0.479 -0.327 0.111 3 
0.472 -0.246 0.083 3 
0.48 -0.346 0.112 3 
0.472 -0.247 0.024 3 
0.479 -0.356 0.112 3 
0.463 0.268 0.104 3 
0.463 0.262 0.104 3 
0.463 0.253 0.104 3 
0.463 0.322 0.082 3 
0.465 0.342 0.109 3 
0.465 0.224 0.104 3 
0.465 0.212 0.104 3 
0.465 0.203 0.104 3 
0.465 0.192 0.104 3 
0.465 0.183 0.104 3 
0.464 0.171 0.103 3 
0.331 0.015 0.02 3 
0.465 0.158 0.103 3 
0.465 0.152 0.103 3 
0.465 0.144 0.103 3 
0.465 0.133 0.103 3 
0.473 -0.235 0.112 3 
0.47 -0.127 0.113 3 
0.47 -0.136 0.113 3 
0.473 -0.185 0.114 3 
0.47 -0.147 0.113 3 
0.47 -0.155 0.113 3 
0.472 -0.167 0.113 3 
0.472 -0.176 0.113 3 
0.474 -0.197 0.114 3 
0.473 -0.206 0.114 3 
0.472 -0.217 0.114 3 
0.472 -0.226 0.114 3 
0.465 0.231 0.11 3 
0.48 -0.329 0.124 3 
0.474 -0.245 0.112 3 
0.474 -0.255 0.112 3 
0.474 -0.267 0.112 3 
0.475 -0.274 0.113 3 
0.464 0.067 0.092 3 
0.475 -0.277 0.113 3 
0.317 0.001 0.044 3 
0.476 -0.285 0.113 3 
0.477 -0.299 0.113 3 
0.477 -0.305 0.114 3 
0.479 -0.317 0.114 3 
0.479 -0.308 0.132 3 
0.475 -0.271 0.133 3 
0.48 -0.348 0.064 3 
0.47 -0.166 0.044 3 
0.475 -0.275 0.133 3 
0.476 -0.285 0.133 3 
0.478 -0.297 0.134 3 
0.464 0.254 0.127 3 
0.476 -0.307 0.084 3 
0.464 0.175 0.125 3 
0.462 0.062 0.124 3 
0.317 0.03 0.091 3 
0.465 0.331 0.103 3 
0.474 -0.267 0.132 3 
0.479 -0.318 0.132 3 
0.48 -0.326 0.132 3 
0.473 -0.275 0.044 3 
0.48 -0.336 0.133 3 
0.481 -0.348 0.133 3 
0.312 0.004 0.044 3 
0.465 0.277 0.124 3 
0.465 0.273 0.124 3 
0.464 0.269 0.124 3 
0.464 0.263 0.124 3 
0.464 0.242 0.124 3 
0.473 -0.227 0.134 3 
0.47 -0.116 0.132 3 
0.47 -0.127 0.132 3 
0.477 -0.317 0.032 3 
0.47 -0.136 0.132 3 
0.471 -0.145 0.132 3 
0.471 -0.165 0.133 3 
0.471 -0.176 0.133 3 
0.472 -0.185 0.133 3 
0.474 -0.198 0.134 3 
0.473 -0.206 0.134 3 
0.474 -0.215 0.134 3 
0.465 0.203 0.082 3 
0.464 0.233 0.123 3 
0.473 -0.236 0.134 3 
0.464 0.341 0.132 3 
0.464 0.334 0.132 3 
0.466 0.333 0.132 3 
0.464 0.26 0.13 3 
0.465 0.094 0.033 3 
0.464 0.169 0.128 3 
0.464 0.163 0.128 3 
0.468 -0.052 0.128 3 
0.474 -0.246 0.132 3 
0.474 -0.255 0.132 3 
0.473 -0.197 0.122 3 
0.47 -0.147 0.124 3 
0.467 0.343 0.086 3 
0.471 -0.167 0.124 3 
0.471 -0.176 0.124 3 
0.464 0.338 0.123 3 
0.466 0.333 0.123 3 
0.466 0.323 0.123 3 
0.466 0.313 0.123 3 
0.466 0.303 0.122 3 
0.466 0.293 0.122 3 
0.465 0.215 0.12 3 
0.464 0.16 0.12 3 
0.47 -0.136 0.124 3 
0.473 -0.206 0.122 3 
0.473 -0.215 0.123 3 
0.473 -0.226 0.123 3 
0.474 -0.236 0.123 3 
0.473 -0.245 0.123 3 
0.475 -0.274 0.124 3 
0.464 0.275 0.119 3 
0.464 0.18 0.117 3 
0.476 -0.288 0.122 3 
0.478 -0.306 0.123 3 
0.479 -0.317 0.123 3 
0.465 0.103 0.122 3 
0.463 0.223 0.123 3 
0.465 0.212 0.123 3 
0.465 0.204 0.123 3 
0.464 0.152 0.092 3 
0.466 0.193 0.123 3 
0.465 0.184 0.123 3 
0.465 0.172 0.123 3 
0.465 0.164 0.123 3 
0.465 0.153 0.122 3 
0.465 0.133 0.122 3 
0.465 0.114 0.122 3 
0.467 0.123 0.153 3 
0.465 0.092 0.122 3 
0.29 0.023 0.084 3 
0.468 -0.052 0.123 3 
0.468 -0.055 0.123 3 
0.468 -0.066 0.123 3 
0.469 -0.077 0.123 3 
0.469 -0.085 0.123 3 
0.469 -0.096 0.123 3 
0.475 -0.287 0.093 3 
0.469 -0.105 0.123 3 
0.47 -0.127 0.124 3 
0.47 0.103 0.181 3 
0.468 0.182 0.182 3 
0.469 0.174 0.183 3 
0.472 -0.166 0.172 3 
0.471 -0.136 0.143 3 
0.468 0.164 0.182 3 
0.469 0.153 0.182 3 
0.471 0.143 0.182 3 
0.47 0.134 0.182 3 
0.475 -0.278 0.124 3 
0.47 0.122 0.182 3 
0.47 -0.105 0.134 3 
0.471 0.114 0.182 3 
0.468 0.193 0.183 3 
0.45 0.062 0.173 3 
0.474 -0.062 0.182 3 
0.474 -0.065 0.183 3 
0.473 -0.076 0.182 3 
0.473 -0.087 0.182 3 
0.474 -0.096 0.183 3 
0.475 -0.107 0.184 3 
0.472 -0.167 0.102 3 
0.476 -0.116 0.184 3 
0.475 -0.127 0.184 3 
0.474 -0.13 0.184 3 
0.479 -0.287 0.193 3 
0.47 0.072 0.184 3 
0.476 -0.062 0.186 3 
0.473 -0.207 0.154 3 
0.474 -0.076 0.185 3 
0.468 0.132 0.164 3 
0.474 -0.087 0.186 3 
0.479 -0.246 0.192 3 
0.464 0.258 0.063 3 
0.48 -0.255 0.192 3 
0.467 -0.077 0.074 3 
0.479 -0.267 0.193 3 
0.48 -0.275 0.193 3 
0.475 -0.136 0.184 3 
0.485 -0.302 0.197 3 
0.47 -0.177 0.052 3 
0.485 -0.306 0.197 3 
0.465 0.172 0.033 3 
0.468 0.247 0.184 3 
0.468 0.244 0.184 3 
0.468 0.232 0.184 3 
0.465 0.163 0.084 3 
0.468 0.223 0.184 3 
0.469 0.212 0.184 3 
0.468 0.202 0.183 3 
0.486 -0.335 0.193 3 
0.474 -0.176 0.182 3 
0.464 0.244 0.09 3 
0.475 -0.185 0.182 3 
0.477 -0.195 0.184 3 
0.476 -0.207 0.184 3 
0.464 0.07 0.124 3 
0.476 -0.216 0.184 3 
0.471 -0.178 0.074 3 
0.418 0.057 0.017 3 
0.476 -0.225 0.184 3 
0.485 -0.326 0.192 3 
0.471 -0.195 0.052 3 
0.473 -0.166 0.181 3 
0.484 -0.347 0.193 3 
0.468 0.35 0.184 3 
0.47 0.334 0.183 3 
0.468 0.324 0.182 3 
0.467 0.071 0.174 3 
0.456 0.063 0.17 3 
0.477 -0.307 0.064 3 
0.261 0.014 0.094 3 
0.261 0.004 0.094 3 
0.477 -0.235 0.182 3 
0.478 -0.247 0.182 3 
0.469 0.302 0.184 3 
0.464 0.266 0.13 3 
0.475 -0.147 0.184 3 
0.474 -0.158 0.184 3 
0.484 -0.298 0.193 3 
0.465 0.144 0.133 3 
0.484 -0.305 0.193 3 
0.306 0.014 0.047 3 
0.484 -0.315 0.194 3 
0.485 -0.32 0.194 3 
0.475 -0.363 0.194 3 
0.469 0.305 0.184 3 
0.464 0.294 0.094 3 
0.471 0.083 0.184 3 
0.469 0.292 0.184 3 
0.465 0.177 0.033 3 
0.467 0.281 0.183 3 
0.467 0.271 0.182 3 
0.472 -0.225 0.052 3 
0.468 0.263 0.182 3 
0.473 -0.107 0.18 3 
0.474 -0.115 0.18 3 
0.474 -0.135 0.181 3 
0.474 -0.147 0.181 3 
0.464 0.203 0.033 3 
0.471 0.103 0.187 3 
0.47 0.174 0.189 3 
0.469 0.162 0.188 3 
0.47 0.154 0.188 3 
0.466 0.084 0.122 3 
0.464 0.284 0.093 3 
0.471 0.143 0.189 3 
0.471 0.134 0.188 3 
0.463 0.062 0.113 3 
0.471 0.123 0.188 3 
0.472 0.073 0.188 3 
0.471 0.114 0.188 3 
0.467 0.283 0.174 3 
0.47 0.183 0.189 3 
0.471 0.092 0.187 3 
0.471 0.084 0.187 3 
0.266 0.021 0.1 3 
0.263 0.019 0.099 3 
0.258 0.014 0.097 3 
0.258 0.004 0.097 3 
0.264 -0.005 0.099 3 
0.468 -0.039 0.082 3 
0.27 -0.007 0.102 3 
0.465 0.212 0.112 3 
0.475 -0.065 0.189 3 
0.47 0.294 0.193 3 
0.476 0.361 0.2 3 
0.477 -0.295 0.122 3 
0.474 0.355 0.199 3 
0.474 0.351 0.198 3 
0.464 0.138 0.084 3 
0.472 0.341 0.197 3 
0.472 0.334 0.197 3 
0.473 0.324 0.196 3 
0.471 -0.155 0.102 3 
0.47 0.31 0.194 3 
0.47 0.304 0.194 3 
0.464 0.183 0.114 3 
0.468 -0.132 0.014 3 
0.47 0.284 0.193 3 
0.47 0.274 0.192 3 
0.472 0.263 0.193 3 
0.471 0.253 0.192 3 
0.47 0.243 0.191 3 
0.471 0.234 0.191 3 
0.469 0.221 0.19 3 
0.47 0.213 0.19 3 
0.476 -0.297 0.023 3 
0.469 0.203 0.189 3 
0.469 0.194 0.189 3 
0.484 -0.319 0.2 3 
0.478 -0.227 0.194 3 
0.479 -0.237 0.195 3 
0.478 -0.239 0.194 3 
0.478 -0.245 0.195 3 
0.48 -0.255 0.195 3 
0.479 -0.267 0.196 3 
0.48 -0.275 0.196 3 
0.463 0.322 0.054 3 
0.48 -0.285 0.197 3 
0.484 -0.298 0.199 3 
0.484 -0.305 0.199 3 
0.463 0.314 0.014 3 
0.477 -0.217 0.193 3 
0.472 -0.216 0.044 3 
0.485 -0.323 0.201 3 
0.486 -0.332 0.202 3 
0.486 -0.335 0.202 3 
0.486 -0.346 0.203 3 
0.471 0.347 0.194 3 
0.471 0.344 0.194 3 
0.471 0.333 0.193 3 
0.47 -0.146 0.093 3 
0.472 0.322 0.192 3 
0.471 0.092 0.184 3 
0.464 0.092 0.103 3 
0.474 -0.07 0.188 3 
0.467 0.207 0.174 3 
0.475 -0.076 0.189 3 
0.465 0.312 0.134 3 
0.475 -0.085 0.189 3 
0.475 -0.096 0.189 3 
0.476 -0.105 0.19 3 
0.478 -0.117 0.191 3 
0.478 -0.356 0.052 3 
0.477 -0.125 0.19 3 
0.478 -0.137 0.191 3 
0.479 -0.257 0.183 3 
0.478 -0.316 0.102 3 
0.477 -0.145 0.191 3 
0.477 -0.157 0.191 3 
0.469 0.344 0.184 3 
0.477 -0.166 0.191 3 
0.467 -0.066 0.074 3 
0.477 -0.175 0.192 3 
0.478 -0.187 0.192 3 
0.478 -0.196 0.193 3 
0.477 -0.205 0.193 3 
0.473 -0.126 0.172 3 
0.472 -0.126 0.163 3 
0.466 0.191 0.162 3 
0.466 0.183 0.162 3 
0.47 -0.116 0.123 3 
0.471 -0.059 0.162 3 
0.471 -0.067 0.162 3 
0.472 -0.075 0.162 3 
0.471 -0.086 0.162 3 
0.472 -0.095 0.163 3 
0.465 0.113 0.044 3 
0.471 -0.106 0.162 3 
0.464 0.283 0.023 3 
0.471 -0.117 0.163 3 
0.467 0.204 0.163 3 
0.473 -0.135 0.163 3 
0.48 -0.355 0.164 3 
0.437 0.039 0.019 3 
0.473 -0.146 0.164 3 
0.48 -0.357 0.13 3 
0.473 -0.155 0.164 3 
0.474 -0.276 0.084 3 
0.473 -0.178 0.164 3 
0.465 0.122 0.122 3 
0.474 -0.205 0.165 3 
0.474 -0.217 0.166 3 
0.479 -0.276 0.172 3 
0.468 0.124 0.164 3 
0.468 0.113 0.164 3 
0.476 -0.317 0.014 3 
0.467 0.104 0.164 3 
0.467 0.093 0.164 3 
0.468 0.082 0.164 3 
0.466 0.074 0.163 3 
0.288 0.025 0.1 3 
0.265 0.009 0.092 3 
0.465 0.114 0.074 3 
0.474 -0.196 0.168 3 
0.478 -0.266 0.171 3 
0.482 -0.326 0.172 3 
0.479 -0.286 0.172 3 
0.479 -0.296 0.173 3 
0.481 -0.315 0.174 3 
0.466 0.266 0.164 3 
0.466 0.263 0.164 3 
0.466 0.272 0.153 3 
0.466 0.254 0.164 3 
0.467 0.243 0.164 3 
0.467 0.233 0.164 3 
0.465 0.223 0.163 3 
0.465 0.214 0.162 3 
0.465 0.223 0.154 3 
0.476 -0.245 0.164 3 
0.481 -0.357 0.17 3 
0.465 0.068 0.154 3 
0.279 -0.007 0.094 3 
0.477 -0.258 0.162 3 
0.478 -0.268 0.163 3 
0.478 -0.278 0.163 3 
0.478 -0.285 0.163 3 
0.479 -0.299 0.164 3 
0.479 -0.305 0.164 3 
0.464 0.336 0.158 3 
0.465 0.226 0.154 3 
0.475 -0.235 0.163 3 
0.47 -0.135 0.082 3 
0.465 0.214 0.154 3 
0.467 0.204 0.154 3 
0.466 0.194 0.154 3 
0.466 0.183 0.154 3 
0.467 0.174 0.154 3 
0.466 0.162 0.153 3 
0.466 0.154 0.153 3 
0.466 0.142 0.153 3 
0.465 0.124 0.063 3 
0.467 0.134 0.153 3 
0.473 -0.186 0.162 3 
0.47 -0.166 0.022 3 
0.482 -0.336 0.173 3 
0.483 -0.348 0.174 3 
0.465 0.344 0.164 3 
0.467 0.333 0.164 3 
0.464 0.334 0.123 3 
0.467 0.322 0.164 3 
0.305 -0.003 0.051 3 
0.468 0.313 0.164 3 
0.467 0.302 0.163 3 
0.467 0.292 0.163 3 
0.465 0.262 0.063 3 
0.468 0.144 0.164 3 
0.469 -0.105 0.104 3 
0.473 -0.256 0.052 3 
0.466 -0.036 0.044 3 
0.474 -0.196 0.162 3 
0.474 -0.205 0.163 3 
0.471 -0.167 0.033 3 
0.474 -0.217 0.163 3 
0.475 -0.22 0.163 3 
0.473 -0.257 0.044 3 
0.474 -0.285 0.012 3 
0.475 -0.226 0.163 3 
0.482 -0.306 0.183 3 
0.465 0.102 0.044 3 
0.463 0.214 0.013 3 
0.472 -0.075 0.173 3 
0.472 -0.087 0.174 3 
0.473 -0.095 0.174 3 
0.472 -0.106 0.174 3 
0.464 0.242 0.104 3 
0.473 -0.115 0.174 3 
0.477 -0.315 0.002 3 
0.48 -0.287 0.182 3 
0.465 0.293 0.142 3 
0.481 -0.298 0.183 3 
0.471 -0.067 0.173 3 
0.483 -0.317 0.184 3 
0.472 -0.187 0.094 3 
0.484 -0.325 0.185 3 
0.484 -0.339 0.186 3 
0.468 0.288 0.174 3 
0.466 0.273 0.173 3 
0.48 -0.307 0.174 3 
0.464 0.342 0.135 3 
0.466 0.264 0.173 3 
0.456 0.07 0.003 3 
0.467 0.252 0.173 3 
0.469 0.133 0.173 3 
0.48 -0.268 0.184 3 
0.48 -0.277 0.184 3 
0.271 0.014 0.084 3 
0.486 -0.345 0.19 3 
0.467 0.204 0.174 3 
0.467 0.192 0.174 3 
0.464 0.274 0.032 3 
0.468 0.184 0.174 3 
0.467 0.172 0.173 3 
0.467 0.164 0.173 3 
0.469 0.153 0.173 3 
0.469 0.144 0.173 3 
0.468 0.244 0.173 3 
0.476 -0.245 0.152 3 
0.47 0.122 0.173 3 
0.47 -0.097 0.143 3 
0.469 0.113 0.173 3 
0.469 0.102 0.173 3 
0.465 0.141 0.122 3 
0.469 0.094 0.173 3 
0.469 0.083 0.172 3 
0.263 0.018 0.094 3 
0.471 -0.156 0.133 3 
0.472 -0.062 0.173 3 
0.463 0.062 0.092 3 
0.467 0.303 0.172 3 
0.462 0.065 0.164 3 
0.472 -0.226 0.033 3 
0.277 0.023 0.097 3 
0.473 -0.266 0.052 3 
0.278 -0.007 0.098 3 
0.475 -0.197 0.171 3 
0.476 -0.206 0.172 3 
0.465 0.114 0.063 3 
0.475 -0.215 0.172 3 
0.472 -0.166 0.164 3 
0.475 -0.227 0.172 3 
0.468 0.314 0.173 3 
0.476 -0.236 0.172 3 
0.477 -0.246 0.173 3 
0.472 -0.205 0.083 3 
0.477 -0.255 0.174 3 
0.485 -0.347 0.18 3 
0.467 0.347 0.171 3 
0.465 0.174 0.164 3 
0.466 0.162 0.164 3 
0.468 -0.044 0.104 3 
0.465 0.279 0.082 3 
0.467 0.154 0.164 3 
0.473 -0.155 0.172 3 
0.474 -0.257 0.072 3 
0.467 0.234 0.172 3 
0.466 0.224 0.172 3 
0.462 0.065 0.167 3 
0.467 0.283 0.162 3 
0.266 0.02 0.094 3 
0.266 -0.004 0.094 3 
0.285 -0.003 0.069 3 
0.266 -0.005 0.094 3 
0.473 -0.135 0.172 3 
0.473 -0.146 0.172 3 
0.464 0.163 0.103 3 
0.473 -0.175 0.173 3 
0.474 -0.187 0.174 3 
0.475 -0.191 0.174 3 
0.466 -0.087 0.012 3 
0.474 -0.22 0.175 3 
0.484 -0.325 0.182 3 
0.484 -0.335 0.183 3 
0.484 -0.346 0.183 3 
0.467 0.344 0.174 3 
0.467 0.333 0.173 3 
0.468 0.324 0.173 3 
0.466 -0.047 0.044 3 
0.464 0.154 0.044 3 
0.464 0.143 0.044 3 
0.465 0.138 0.044 3 
0.465 0.133 0.044 3 
0.465 0.124 0.044 3 
0.464 0.108 0.044 3 
0.466 0.094 0.044 3 
0.466 0.084 0.044 3 
0.465 0.073 0.044 3 
0.464 0.062 0.044 3 
0.463 0.053 0.044 3 
0.467 -0.033 0.044 3 
0.464 0.163 0.044 3 
0.467 -0.055 0.044 3 
0.464 0.067 0.036 3 
0.467 -0.077 0.044 3 
0.467 -0.085 0.044 3 
0.469 -0.096 0.044 3 
0.469 -0.107 0.044 3 
0.469 -0.115 0.044 3 
0.47 -0.135 0.044 3 
0.471 -0.147 0.044 3 
0.471 -0.155 0.044 3 
0.471 -0.175 0.044 3 
0.464 0.274 0.043 3 
0.472 -0.255 0.013 3 
0.465 0.209 0.041 3 
0.468 -0.034 0.05 3 
0.462 0.282 0.012 3 
0.463 0.339 0.042 3 
0.462 0.334 0.042 3 
0.463 0.312 0.043 3 
0.463 0.302 0.043 3 
0.467 -0.066 0.044 3 
0.464 0.293 0.043 3 
0.464 0.283 0.043 3 
0.471 -0.187 0.044 3 
0.464 0.262 0.043 3 
0.466 -0.055 0.034 3 
0.464 0.223 0.024 3 
0.464 0.252 0.043 3 
0.463 0.243 0.043 3 
0.464 0.223 0.043 3 
0.464 0.214 0.043 3 
0.464 0.202 0.043 3 
0.464 0.194 0.044 3 
0.464 0.182 0.044 3 
0.464 0.174 0.044 3 
0.464 0.223 0.032 3 
0.464 0.121 0.036 3 
0.318 0.023 0.047 3 
0.315 0 0.047 3 
0.478 -0.328 0.034 3 
0.479 -0.336 0.034 3 
0.479 -0.347 0.034 3 
0.477 -0.355 0.034 3 
0.464 0.262 0.032 3 
0.464 0.253 0.032 3 
0.463 0.243 0.032 3 
0.463 0.234 0.032 3 
0.464 0.283 0.034 3 
0.464 0.214 0.032 3 
0.464 0.194 0.033 3 
0.464 0.154 0.033 3 
0.464 0.143 0.033 3 
0.464 0.132 0.033 3 
0.464 0.124 0.033 3 
0.465 0.119 0.033 3 
0.465 0.102 0.033 3 
0.465 0.073 0.033 3 
0.464 0.07 0.034 3 
0.462 0.053 0.034 3 
0.478 -0.356 0.043 3 
0.471 -0.195 0.044 3 
0.471 -0.207 0.044 3 
0.472 -0.225 0.044 3 
0.473 -0.235 0.044 3 
0.473 -0.247 0.044 3 
0.473 -0.266 0.044 3 
0.476 -0.296 0.044 3 
0.476 -0.306 0.044 3 
0.478 -0.328 0.043 3 
0.479 -0.336 0.043 3 
0.479 -0.347 0.043 3 
0.297 0.003 0.054 3 
0.465 0.158 0.041 3 
0.465 0.149 0.041 3 
0.475 -0.282 0.041 3 
0.464 0.132 0.038 3 
0.314 0.017 0.044 3 
0.462 0.338 0.034 3 
0.461 0.333 0.034 3 
0.463 0.322 0.034 3 
0.463 0.312 0.034 3 
0.464 0.302 0.034 3 
0.464 0.293 0.034 3 
0.464 0.249 0.054 3 
0.465 0.166 0.06 3 
0.465 0.253 0.057 3 
0.465 0.218 0.057 3 
0.465 0.054 0.058 3 
0.296 0.014 0.057 3 
0.463 0.339 0.054 3 
0.462 0.334 0.054 3 
0.463 0.302 0.054 3 
0.463 0.293 0.054 3 
0.464 0.283 0.054 3 
0.464 0.262 0.054 3 
0.465 0.253 0.054 3 
0.464 0.154 0.052 3 
0.464 0.232 0.054 3 
0.464 0.223 0.054 3 
0.464 0.214 0.054 3 
0.464 0.202 0.054 3 
0.464 0.194 0.054 3 
0.464 0.182 0.054 3 
0.464 0.143 0.055 3 
0.47 -0.175 0.033 3 
0.465 0.203 0.052 3 
0.464 0.174 0.052 3 
0.464 0.163 0.052 3 
0.473 -0.235 0.064 3 
0.47 -0.135 0.063 3 
0.471 -0.147 0.063 3 
0.471 -0.166 0.063 3 
0.471 -0.175 0.063 3 
0.464 0.214 0.024 3 
0.471 -0.187 0.063 3 
0.472 -0.196 0.064 3 
0.475 -0.286 0.044 3 
0.472 -0.205 0.064 3 
0.472 -0.216 0.064 3 
0.472 -0.225 0.064 3 
0.464 0.143 0.052 3 
0.473 -0.247 0.064 3 
0.473 -0.256 0.064 3 
0.473 -0.266 0.064 3 
0.465 0.122 0.103 3 
0.474 -0.286 0.064 3 
0.475 -0.293 0.064 3 
0.475 -0.296 0.064 3 
0.464 0.243 0.054 3 
0.477 -0.317 0.064 3 
0.478 -0.335 0.064 3 
0.478 -0.356 0.064 3 
0.476 -0.296 0.052 3 
0.471 -0.147 0.052 3 
0.47 -0.155 0.052 3 
0.47 -0.166 0.052 3 
0.47 -0.186 0.052 3 
0.472 -0.205 0.052 3 
0.471 -0.216 0.052 3 
0.473 -0.235 0.052 3 
0.473 -0.247 0.052 3 
0.473 -0.275 0.052 3 
0.474 -0.286 0.052 3 
0.475 -0.293 0.052 3 
0.47 -0.135 0.052 3 
0.477 -0.307 0.052 3 
0.477 -0.317 0.052 3 
0.478 -0.325 0.052 3 
0.478 -0.335 0.052 3 
0.465 0.212 0.049 3 
0.451 0.046 0.05 3 
0.463 0.301 0.023 3 
0.307 0.021 0.054 3 
0.302 0.019 0.054 3 
0.297 0.014 0.054 3 
0.294 0.01 0.054 3 
0.459 0.047 0.052 3 
0.465 0.141 0.052 3 
0.465 0.133 0.052 3 
0.465 0.113 0.052 3 
0.465 0.103 0.052 3 
0.465 0.094 0.052 3 
0.466 0.073 0.052 3 
0.465 0.064 0.052 3 
0.464 0.056 0.052 3 
0.465 0.054 0.052 3 
0.467 -0.036 0.052 3 
0.466 -0.047 0.052 3 
0.467 -0.055 0.052 3 
0.467 -0.066 0.052 3 
0.337 0.008 0.035 3 
0.467 -0.077 0.052 3 
0.467 -0.085 0.052 3 
0.468 -0.096 0.052 3 
0.469 -0.107 0.052 3 
0.469 -0.115 0.052 3 
0.469 -0.126 0.052 3 
0.462 0.254 0.013 3 
0.462 0.233 0.013 3 
0.462 0.224 0.013 3 
0.462 0.204 0.014 3 
0.462 0.193 0.014 3 
0.462 0.184 0.014 3 
0.462 0.173 0.014 3 
0.463 0.162 0.014 3 
0.463 0.154 0.014 3 
0.462 0.134 0.014 3 
0.455 0.047 0.016 3 
0.45 0.043 0.017 3 
0.462 0.263 0.013 3 
0.464 -0.057 0.015 3 
0.469 -0.146 0.014 3 
0.469 -0.157 0.014 3 
0.469 -0.166 0.014 3 
0.468 -0.176 0.014 3 
0.468 -0.185 0.014 3 
0.469 -0.197 0.014 3 
0.469 -0.186 0.022 3 
0.47 -0.195 0.022 3 
0.471 -0.207 0.022 3 
0.461 0.333 0.014 3 
0.463 0.324 0.014 3 
0.47 -0.215 0.014 3 
0.474 -0.285 0.015 3 
0.476 -0.307 0.014 3 
0.477 -0.328 0.014 3 
0.476 -0.337 0.014 3 
0.478 -0.346 0.013 3 
0.476 -0.355 0.014 3 
0.463 0.302 0.012 3 
0.462 0.294 0.012 3 
0.462 0.272 0.013 3 
0.466 -0.095 0.012 3 
0.467 -0.106 0.012 3 
0.466 -0.117 0.012 3 
0.454 0.067 0.011 3 
0.425 0.054 0.016 3 
0.446 -0.031 0.013 3 
0.472 -0.354 0.005 3 
0.44 0.064 0.011 3 
0.447 0.061 0.01 3 
0.465 -0.076 0.012 3 
0.477 -0.325 0.002 3 
0.468 -0.066 0.004 3 
0.468 -0.107 0.004 3 
0.468 -0.115 0.004 3 
0.332 0.013 0.022 3 
0.332 0.004 0.022 3 
0.461 0.074 0.013 3 
0.471 -0.228 0.013 3 
0.472 -0.235 0.013 3 
0.472 -0.247 0.013 3 
0.473 -0.275 0.012 3 
0.475 -0.293 0.012 3 
0.479 -0.348 0.004 3 
0.475 -0.296 0.012 3 
0.463 0.112 0.012 3 
0.462 0.104 0.012 3 
0.462 0.093 0.012 3 
0.462 0.083 0.012 3 
0.469 -0.177 0.022 3 
0.432 0.06 0.017 3 
0.476 0.053 0.01 3 
0.46 0.042 0.013 3 
0.452 0.039 0.014 3 
0.468 -0.05 0.012 3 
0.466 -0.055 0.012 3 
0.465 -0.065 0.012 3 
0.464 0.094 0.028 3 
0.475 -0.279 0.032 3 
0.475 -0.286 0.032 3 
0.476 -0.296 0.032 3 
0.476 -0.306 0.032 3 
0.464 0.171 0.03 3 
0.465 0.163 0.03 3 
0.464 0.097 0.031 3 
0.464 0.075 0.031 3 
0.327 0.024 0.043 3 
0.32 0.022 0.044 3 
0.311 0.014 0.044 3 
0.474 -0.275 0.032 3 
0.461 0.333 0.023 3 
0.463 0.322 0.023 3 
0.474 -0.356 0.008 3 
0.464 0.312 0.023 3 
0.463 0.264 0.024 3 
0.463 0.252 0.024 3 
0.463 0.243 0.024 3 
0.463 0.234 0.024 3 
0.464 0.203 0.024 3 
0.47 -0.135 0.033 3 
0.466 -0.033 0.034 3 
0.467 -0.036 0.034 3 
0.466 -0.047 0.034 3 
0.467 -0.077 0.034 3 
0.468 -0.085 0.034 3 
0.468 -0.096 0.034 3 
0.469 -0.107 0.033 3 
0.47 -0.116 0.033 3 
0.464 0.121 0.014 3 
0.47 -0.127 0.033 3 
0.465 0.062 0.025 3 
0.471 -0.147 0.033 3 
0.471 -0.155 0.033 3 
0.47 -0.186 0.033 3 
0.471 -0.195 0.033 3 
0.471 -0.207 0.033 3 
0.471 -0.216 0.033 3 
0.472 -0.235 0.033 3 
0.473 -0.247 0.033 3 
0.473 -0.257 0.032 3 
0.473 -0.266 0.032 3 
0.475 -0.273 0.032 3 
0.466 -0.047 0.023 3 
0.464 0.102 0.023 3 
0.464 0.094 0.023 3 
0.463 0.083 0.023 3 
0.462 0.072 0.023 3 
0.335 0.023 0.038 3 
0.326 0.014 0.039 3 
0.466 -0.044 0.023 3 
0.464 0.107 0.023 3 
0.466 -0.055 0.023 3 
0.466 -0.066 0.023 3 
0.467 -0.076 0.023 3 
0.467 -0.085 0.023 3 
0.467 -0.095 0.023 3 
0.467 -0.106 0.023 3 
0.469 -0.115 0.023 3 
0.469 -0.126 0.023 3 
0.469 -0.135 0.022 3 
0.47 -0.146 0.022 3 
0.47 -0.155 0.022 3 
0.477 -0.328 0.023 3 
0.322 0.014 0.041 3 
0.325 0 0.04 3 
0.471 -0.222 0.024 3 
0.472 -0.226 0.024 3 
0.472 -0.256 0.024 3 
0.474 -0.266 0.024 3 
0.474 -0.275 0.024 3 
0.475 -0.28 0.024 3 
0.475 -0.286 0.024 3 
0.476 -0.306 0.023 3 
0.476 -0.316 0.023 3 
0.473 -0.275 0.064 3 
0.478 -0.336 0.023 3 
0.477 -0.356 0.022 3 
0.463 0.182 0.022 3 
0.464 0.174 0.022 3 
0.464 0.163 0.022 3 
0.464 0.154 0.022 3 
0.464 0.143 0.022 3 
0.464 0.124 0.023 3 
0.465 0.119 0.022 3 
0.465 0.113 0.022 3 
0.285 0.014 0.07 3 
0.463 0.193 0.022 3 
0.471 -0.155 0.094 3 
0.471 -0.167 0.094 3 
0.471 -0.175 0.094 3 
0.473 -0.197 0.094 3 
0.473 -0.205 0.094 3 
0.473 -0.217 0.094 3 
0.464 0.157 0.09 3 
0.464 0.121 0.09 3 
0.473 -0.256 0.084 3 
0.328 0.026 0.075 3 
0.469 -0.127 0.093 3 
0.472 -0.225 0.092 3 
0.472 -0.237 0.092 3 
0.473 -0.257 0.092 3 
0.462 0.311 0.054 3 
0.474 -0.267 0.092 3 
0.475 -0.274 0.092 3 
0.47 -0.127 0.044 3 
0.474 -0.276 0.092 3 
0.475 -0.28 0.093 3 
0.464 0.293 0.023 3 
0.475 -0.296 0.093 3 
0.465 0.081 0.092 3 
0.465 0.141 0.092 3 
0.463 0.064 0.034 3 
0.465 0.133 0.092 3 
0.465 0.122 0.092 3 
0.465 0.114 0.092 3 
0.464 0.108 0.092 3 
0.465 0.103 0.092 3 
0.464 0.092 0.092 3 
0.465 0.089 0.092 3 
0.464 0.083 0.092 3 
0.477 -0.305 0.093 3 
0.465 0.073 0.092 3 
0.285 0.018 0.071 3 
0.467 -0.041 0.093 3 
0.466 -0.047 0.093 3 
0.467 -0.055 0.093 3 
0.467 -0.066 0.093 3 
0.467 -0.077 0.093 3 
0.468 -0.085 0.093 3 
0.469 -0.096 0.093 3 
0.469 -0.107 0.093 3 
0.469 -0.116 0.093 3 
0.469 -0.126 0.063 3 
0.464 0.067 0.084 3 
0.463 0.062 0.084 3 
0.463 0.053 0.084 3 
0.471 -0.155 0.063 3 
0.464 0.34 0.083 3 
0.464 0.313 0.082 3 
0.465 0.308 0.082 3 
0.464 0.303 0.082 3 
0.464 0.284 0.082 3 
0.464 0.272 0.082 3 
0.463 0.262 0.082 3 
0.466 -0.047 0.074 3 
0.464 0.232 0.082 3 
0.464 0.223 0.082 3 
0.465 0.218 0.082 3 
0.463 0.273 0.024 3 
0.465 0.209 0.082 3 
0.465 0.062 0.082 3 
0.467 -0.047 0.082 3 
0.466 -0.055 0.082 3 
0.467 -0.066 0.082 3 
0.468 -0.077 0.082 3 
0.468 -0.085 0.082 3 
0.465 0.152 0.084 3 
0.478 -0.316 0.093 3 
0.479 -0.327 0.094 3 
0.479 -0.337 0.094 3 
0.481 -0.349 0.094 3 
0.479 -0.358 0.094 3 
0.465 0.25 0.085 3 
0.464 0.211 0.084 3 
0.465 0.189 0.084 3 
0.465 0.183 0.084 3 
0.465 0.169 0.084 3 
0.471 -0.187 0.083 3 
0.464 0.143 0.092 3 
0.464 0.146 0.084 3 
0.465 0.144 0.084 3 
0.465 0.133 0.084 3 
0.465 0.122 0.084 3 
0.465 0.114 0.084 3 
0.465 0.103 0.084 3 
0.465 0.092 0.084 3 
0.465 0.084 0.084 3 
0.459 0.335 0.014 3 
0.465 0.073 0.084 3 
0.465 0.301 0.102 3 
0.465 0.269 0.063 3 
0.469 -0.127 0.104 3 
0.47 -0.135 0.104 3 
0.472 -0.235 0.024 3 
0.463 0.339 0.103 3 
0.463 0.332 0.102 3 
0.464 0.323 0.102 3 
0.465 0.318 0.102 3 
0.464 0.313 0.102 3 
0.465 0.308 0.102 3 
0.464 0.304 0.102 3 
0.469 -0.116 0.104 3 
0.464 0.294 0.102 3 
0.464 0.284 0.102 3 
0.461 0.33 0.082 3 
0.465 0.236 0.101 3 
0.465 0.172 0.101 3 
0.479 -0.347 0.022 3 
0.47 -0.147 0.102 3 
0.472 -0.176 0.102 3 
0.305 0.022 0.076 3 
0.473 -0.185 0.102 3 
0.473 -0.197 0.103 3 
0.469 -0.096 0.082 3 
0.465 0.114 0.103 3 
0.464 0.111 0.103 3 
0.464 0.102 0.103 3 
0.465 0.097 0.103 3 
0.465 0.086 0.103 3 
0.464 0.083 0.103 3 
0.465 0.078 0.103 3 
0.465 0.073 0.103 3 
0.464 0.062 0.103 3 
0.463 0.339 0.022 3 
0.465 0.059 0.103 3 
0.462 0.054 0.103 3 
0.278 0.016 0.074 3 
0.278 0.014 0.074 3 
0.464 0.163 0.065 3 
0.468 -0.047 0.104 3 
0.467 -0.055 0.103 3 
0.467 -0.066 0.104 3 
0.468 -0.077 0.104 3 
0.468 -0.085 0.104 3 
0.464 0.232 0.043 3 
0.469 -0.096 0.104 3 
0.465 0.244 0.093 3 
0.462 0.334 0.094 3 
0.464 0.323 0.094 3 
0.465 0.318 0.094 3 
0.465 0.314 0.094 3 
0.464 0.31 0.094 3 
0.464 0.303 0.094 3 
0.464 0.214 0.09 3 
0.465 0.301 0.094 3 
0.463 0.274 0.093 3 
0.464 0.263 0.093 3 
0.464 0.254 0.093 3 
0.463 0.339 0.094 3 
0.465 0.233 0.093 3 
0.464 0.226 0.093 3 
0.464 0.223 0.093 3 
0.465 0.221 0.093 3 
0.465 0.212 0.093 3 
0.465 0.203 0.093 3 
0.465 0.192 0.093 3 
0.465 0.183 0.093 3 
0.466 0.173 0.093 3 
0.465 0.163 0.093 3 
0.465 0.147 0.093 3 
0.477 -0.305 0.102 3 
0.473 -0.205 0.103 3 
0.473 -0.217 0.103 3 
0.473 -0.226 0.103 3 
0.473 -0.235 0.103 3 
0.474 -0.245 0.103 3 
0.474 -0.257 0.104 3 
0.474 -0.267 0.104 3 
0.475 -0.277 0.104 3 
0.476 -0.288 0.104 3 
0.465 0.192 0.074 3 
0.477 -0.295 0.102 3 
0.464 0.253 0.082 3 
0.479 -0.327 0.102 3 
0.479 -0.338 0.103 3 
0.48 -0.346 0.103 3 
0.48 -0.355 0.103 3 
0.465 0.064 0.044 3 
0.464 0.149 0.095 3 
0.464 0.119 0.095 3 
0.464 0.065 0.095 3 
0.459 0.05 0.094 3 
0.465 0.083 0.052 3 
0.476 -0.307 0.073 3 
0.472 -0.205 0.072 3 
0.465 0.083 0.033 3 
0.471 -0.216 0.072 3 
0.465 0.124 0.052 3 
0.472 -0.225 0.072 3 
0.473 -0.235 0.072 3 
0.473 -0.247 0.072 3 
0.474 -0.267 0.072 3 
0.474 -0.276 0.072 3 
0.475 -0.286 0.072 3 
0.475 -0.296 0.072 3 
0.471 -0.195 0.072 3 
0.477 -0.317 0.073 3 
0.478 -0.325 0.073 3 
0.479 -0.336 0.073 3 
0.48 -0.348 0.073 3 
0.478 -0.356 0.073 3 
0.465 0.221 0.068 3 
0.464 0.191 0.068 3 
0.434 0.043 0.067 3 
0.475 -0.306 0.003 3 
0.464 0.154 0.065 3 
0.47 -0.146 0.074 3 
0.291 0.014 0.064 3 
0.288 0.004 0.064 3 
0.295 -0.003 0.064 3 
0.467 -0.039 0.074 3 
0.467 -0.055 0.074 3 
0.468 -0.085 0.074 3 
0.469 -0.096 0.074 3 
0.469 -0.107 0.074 3 
0.469 -0.126 0.074 3 
0.469 -0.135 0.074 3 
0.453 0.046 0.065 3 
0.471 -0.155 0.074 3 
0.471 -0.166 0.074 3 
0.465 0.265 0.071 3 
0.464 0.252 0.071 3 
0.469 -0.107 0.082 3 
0.464 0.177 0.071 3 
0.464 0.171 0.071 3 
0.464 0.086 0.071 3 
0.295 0.02 0.063 3 
0.471 -0.187 0.072 3 
0.467 -0.036 0.063 3 
0.466 0.144 0.063 3 
0.466 0.133 0.063 3 
0.465 0.103 0.063 3 
0.465 0.094 0.063 3 
0.465 0.084 0.063 3 
0.466 0.073 0.063 3 
0.464 0.062 0.063 3 
0.463 0.053 0.063 3 
0.464 0.274 0.054 3 
0.305 0.021 0.06 3 
0.465 0.161 0.063 3 
0.467 -0.047 0.063 3 
0.468 -0.055 0.063 3 
0.468 -0.066 0.063 3 
0.464 0.163 0.033 3 
0.467 -0.077 0.063 3 
0.468 -0.085 0.063 3 
0.469 -0.096 0.063 3 
0.468 -0.107 0.063 3 
0.469 -0.115 0.063 3 
0.479 -0.347 0.052 3 
0.464 0.252 0.063 3 
0.465 0.113 0.033 3 
0.305 -0.004 0.061 3 
0.474 -0.286 0.067 3 
0.464 0.323 0.062 3 
0.463 0.312 0.062 3 
0.464 0.303 0.062 3 
0.463 0.293 0.062 3 
0.463 0.283 0.062 3 
0.465 0.275 0.063 3 
0.464 0.271 0.063 3 
0.464 0.235 0.071 3 
0.464 0.243 0.063 3 
0.465 0.241 0.063 3 
0.464 0.229 0.063 3 
0.464 0.223 0.063 3 
0.464 0.214 0.063 3 
0.465 0.203 0.063 3 
0.464 0.2 0.063 3 
0.464 0.194 0.063 3 
0.464 0.182 0.063 3 
0.464 0.174 0.063 3 
0.464 0.313 0.074 3 
0.478 -0.325 0.082 3 
0.479 -0.336 0.082 3 
0.48 -0.348 0.082 3 
0.478 -0.356 0.082 3 
0.465 0.244 0.076 3 
0.465 0.064 0.063 3 
0.462 0.338 0.074 3 
0.462 0.334 0.074 3 
0.464 0.323 0.074 3 
0.475 -0.283 0.081 3 
0.464 0.303 0.074 3 
0.463 0.293 0.074 3 
0.464 0.284 0.074 3 
0.464 0.272 0.074 3 
0.464 0.262 0.074 3 
0.465 0.253 0.074 3 
0.465 0.244 0.074 3 
0.465 0.232 0.074 3 
0.464 0.229 0.074 3 
0.472 -0.225 0.083 3 
0.469 -0.116 0.082 3 
0.468 -0.126 0.082 3 
0.464 0.154 0.063 3 
0.47 -0.146 0.083 3 
0.47 -0.155 0.083 3 
0.47 -0.166 0.083 3 
0.47 -0.177 0.083 3 
0.472 -0.196 0.083 3 
0.471 -0.216 0.083 3 
0.464 0.054 0.073 3 
0.472 -0.237 0.083 3 
0.473 -0.266 0.084 3 
0.462 0.142 0.014 3 
0.475 -0.287 0.084 3 
0.476 -0.297 0.084 3 
0.477 -0.315 0.084 3 
0.465 0.256 0.079 3 
0.465 0.253 0.079 3 
0.464 0.214 0.074 3 
0.294 0.019 0.064 3 
0.464 0.059 0.073 3 
0.465 0.062 0.074 3 
0.465 0.073 0.074 3 
0.465 0.084 0.074 3 
0.465 0.094 0.074 3 
0.465 0.103 0.074 3 
0.465 0.122 0.074 3 
0.464 0.127 0.073 3 
0.465 0.133 0.074 3 
0.465 0.144 0.074 3 
0.465 0.152 0.074 3 
0.465 0.163 0.074 3 
0.465 0.172 0.074 3 
0.465 0.183 0.074 3 
0.464 0.223 0.074 3 
0.465 0.2 0.074 3 
0.464 0.203 0.074 3 
0.465 0.212 0.074 3 
0.544 -0.035 0.048 3 
0.584 -0.047 0.095 3 
0.577 -0.02 0.083 3 
0.562 -0.051 0.104 3 
0.576 -0.027 0.083 3 
0.584 -0.028 0.091 3 
0.557 -0.016 0.061 3 
0.559 -0.026 0.061 3 
0.557 -0.037 0.061 3 
0.554 -0.04 0.061 3 
0.582 -0.02 0.099 3 
0.584 -0.032 0.099 3 
0.551 -0.026 0.058 3 
0.578 -0.02 0.091 3 
0.582 -0.035 0.091 3 
0.592 -0.028 0.103 3 
0.582 -0.046 0.091 3 
0.595 -0.055 0.127 3 
0.572 -0.02 0.079 3 
0.597 -0.025 0.123 3 
0.598 -0.037 0.123 3 
0.595 -0.048 0.123 3 
0.594 -0.051 0.123 3 
0.594 -0.055 0.123 3 
0.554 -0.043 0.065 3 
0.562 -0.019 0.068 3 
0.55 -0.015 0.068 3 
0.592 -0.04 0.115 3 
0.574 -0.034 0.083 3 
0.586 -0.05 0.114 3 
0.582 -0.054 0.113 3 
0.571 -0.038 0.083 3 
0.556 -0.019 0.054 3 
0.572 -0.045 0.083 3 
0.561 -0.026 0.068 3 
0.597 -0.048 0.127 3 
0.563 -0.041 0.072 3 
0.566 -0.027 0.072 3 
0.57 -0.02 0.072 3 
0.565 -0.037 0.072 3 
0.59 -0.025 0.111 3 
0.564 -0.041 0.076 3 
0.588 -0.036 0.103 3 
0.584 -0.035 0.095 3 
0.585 -0.02 0.103 3 
0.593 -0.032 0.119 3 
0.574 -0.045 0.087 3 
0.586 -0.021 0.11 3 
0.588 -0.047 0.103 3 
0.574 -0.049 0.101 3 
0.589 -0.055 0.111 3 
0.548 -0.026 0.054 3 
0.551 -0.036 0.054 3 
0.591 -0.036 0.111 3 
