# .PCD v0.7 - Point Cloud Data file
FIELDS x y z intensity
SIZE 4 4 4 4
TYPE F F F F
COUNT 1 1 1 1
WIDTH 2420
HEIGHT 1
VIEWPOINT 0 0 0 1 0 0 0
POINTS 2420
DATA ascii
0.373 -0.235 -0.025 1 
0.371 -0.225 -0.024 1 
0.364 -0.137 -0.018 1 
0.362 -0.125 -0.017 1 
0.363 -0.066 -0.016 1 
0.36 -0.057 -0.015 1 
0.359 -0.055 -0.014 1 
0.359 -0.053 -0.014 1 
0.36 -0.025 -0.015 1 
0.361 -0.024 -0.015 1 
0.357 0.024 -0.014 1 
0.357 0.034 -0.014 1 
0.357 0.043 -0.014 1 
0.356 0.074 -0.014 1 
0.352 0.113 -0.014 1 
0.352 0.123 -0.014 1 
0.351 0.134 -0.014 1 
0.352 0.136 -0.014 1 
0.353 0.141 -0.015 1 
0.353 0.154 -0.015 1 
0.351 0.164 -0.015 1 
0.374 -0.217 -0.022 1 
0.374 -0.195 -0.022 1 
0.371 -0.146 -0.019 1 
0.338 0.003 -0.005 1 
0.364 0.03 -0.015 1 
0.364 0.043 -0.015 1 
0.362 0.075 -0.015 1 
0.361 0.094 -0.015 1 
0.362 0.102 -0.015 1 
0.353 0.166 -0.014 1 
0.354 0.173 -0.015 1 
0.354 0.175 -0.015 1 
0.354 0.21 -0.017 1 
0.354 0.217 -0.018 1 
0.384 -0.249 -0.025 1 
0.387 -0.228 -0.025 1 
0.374 -0.184 -0.019 1 
0.373 -0.136 -0.017 1 
0.373 -0.126 -0.017 1 
0.374 -0.116 -0.017 1 
0.374 -0.105 -0.017 1 
0.371 -0.096 -0.016 1 
0.372 -0.085 -0.016 1 
0.373 -0.075 -0.016 1 
0.37 -0.056 -0.015 1 
0.373 -0.045 -0.016 1 
0.374 -0.038 -0.016 1 
0.374 -0.033 -0.016 1 
0.373 0.013 -0.016 1 
0.372 0.024 -0.016 1 
0.372 0.054 -0.016 1 
0.364 0.084 -0.014 1 
0.364 0.086 -0.014 1 
0.365 0.109 -0.014 1 
0.364 0.12 -0.014 1 
0.364 0.124 -0.015 1 
0.364 0.127 -0.015 1 
0.364 0.151 -0.015 1 
0.361 0.192 -0.016 1 
0.393 -0.265 -0.027 1 
0.392 -0.256 -0.026 1 
0.393 -0.236 -0.025 1 
0.38 -0.207 -0.02 1 
0.378 -0.166 -0.018 1 
0.383 -0.155 -0.019 1 
0.383 -0.03 -0.017 1 
0.38 0.013 -0.016 1 
0.373 0.073 -0.015 1 
0.371 0.084 -0.014 1 
0.374 0.104 -0.016 1 
0.372 0.123 -0.015 1 
0.371 0.134 -0.015 1 
0.368 0.14 -0.015 1 
0.37 0.163 -0.016 1 
0.359 0.223 -0.016 1 
0.397 -0.243 -0.025 1 
0.384 -0.12 -0.017 1 
0.384 -0.106 -0.016 1 
0.383 -0.095 -0.016 1 
0.384 -0.075 -0.016 1 
0.38 -0.064 -0.014 1 
0.384 -0.056 -0.016 1 
0.382 -0.045 -0.015 1 
0.384 -0.038 -0.016 1 
0.385 -0.032 -0.016 1 
0.383 0.023 -0.016 1 
0.38 0.042 -0.015 1 
0.382 0.053 -0.016 1 
0.381 0.074 -0.015 1 
0.38 0.083 -0.015 1 
0.383 0.103 -0.017 1 
0.379 0.113 -0.016 1 
0.373 0.143 -0.014 1 
0.374 0.184 -0.016 1 
0.383 -0.216 -0.021 1 
0.401 -0.229 -0.023 1 
0.393 -0.215 -0.02 1 
0.393 -0.205 -0.02 1 
0.392 -0.165 -0.018 1 
0.391 -0.156 -0.018 1 
0.391 -0.126 -0.017 1 
0.391 -0.115 -0.017 1 
0.389 -0.106 -0.016 1 
0.393 -0.085 -0.017 1 
0.391 -0.076 -0.016 1 
0.39 -0.065 -0.016 1 
0.393 -0.056 -0.017 1 
0.389 -0.045 -0.015 1 
0.393 -0.035 -0.017 1 
0.389 0.024 -0.016 1 
0.383 0.123 -0.015 1 
0.381 0.144 -0.015 1 
0.38 0.154 -0.015 1 
0.384 0.164 -0.017 1 
0.373 0.224 -0.016 1 
0.372 0.237 -0.016 1 
0.403 -0.276 -0.024 1 
0.404 -0.263 -0.023 1 
0.464 -0.039 -0.037 1 
0.3 -0.015 0.014 1 
0.302 -0.005 0.013 1 
0.302 0.001 0.013 1 
0.364 -0.145 -0.018 1 
0.394 0.033 -0.015 1 
0.394 0.053 -0.015 1 
0.393 0.063 -0.015 1 
0.393 0.074 -0.015 1 
0.393 0.084 -0.015 1 
0.391 0.094 -0.015 1 
0.39 0.123 -0.015 1 
0.388 0.132 -0.015 1 
0.387 0.144 -0.015 1 
0.383 0.154 -0.014 1 
0.382 0.224 -0.017 1 
0.379 0.242 -0.017 1 
0.379 0.245 -0.017 1 
0.414 -0.258 -0.023 1 
0.413 -0.248 -0.023 1 
0.401 -0.205 -0.018 1 
0.403 -0.197 -0.018 1 
0.403 -0.146 -0.017 1 
0.403 -0.135 -0.017 1 
0.403 -0.115 -0.016 1 
0.402 -0.105 -0.016 1 
0.401 -0.075 -0.015 1 
0.402 -0.065 -0.015 1 
0.403 -0.056 -0.016 1 
0.402 -0.045 -0.015 1 
0.404 -0.037 -0.016 1 
0.438 -0.04 -0.026 1 
0.335 0.003 0.004 1 
0.363 0.073 -0.015 1 
0.403 0.023 -0.016 1 
0.4 0.044 -0.015 1 
0.401 0.053 -0.015 1 
0.392 0.152 -0.015 1 
0.391 0.153 -0.014 1 
0.393 0.163 -0.015 1 
0.39 0.184 -0.015 1 
0.414 -0.271 -0.022 1 
0.413 -0.235 -0.02 1 
0.41 -0.23 -0.019 1 
0.409 -0.217 -0.018 1 
0.404 -0.188 -0.016 1 
0.393 -0.246 -0.026 1 
0.408 -0.115 -0.016 1 
0.407 -0.105 -0.015 1 
0.407 -0.068 -0.015 1 
0.406 -0.066 -0.014 1 
0.362 -0.036 -0.015 1 
0.404 0.011 -0.014 1 
0.406 0.041 -0.015 1 
0.403 0.073 -0.014 1 
0.404 0.09 -0.015 1 
0.403 0.101 -0.015 1 
0.402 0.107 -0.014 1 
0.402 0.114 -0.015 1 
0.404 0.123 -0.015 1 
0.401 0.133 -0.015 1 
0.352 0.204 -0.016 1 
0.4 0.144 -0.015 1 
0.399 0.152 -0.015 1 
0.393 0.194 -0.014 1 
0.392 0.202 -0.014 1 
0.393 0.222 -0.015 1 
0.393 0.242 -0.016 1 
0.428 -0.305 -0.025 1 
0.422 -0.295 -0.023 1 
0.423 -0.29 -0.023 1 
0.413 -0.195 -0.017 1 
0.412 -0.187 -0.016 1 
0.414 -0.172 -0.016 1 
0.413 -0.157 -0.016 1 
0.353 0.194 -0.016 1 
0.414 -0.136 -0.015 1 
0.415 -0.107 -0.015 1 
0.414 -0.095 -0.015 1 
0.413 -0.088 -0.015 1 
0.413 -0.085 -0.014 1 
0.413 -0.083 -0.014 1 
0.414 -0.081 -0.015 1 
0.413 -0.061 -0.014 1 
0.413 -0.05 -0.014 1 
0.414 -0.048 -0.015 1 
0.413 0.027 -0.015 1 
0.411 0.053 -0.014 1 
0.392 -0.195 -0.019 1 
0.413 0.062 -0.015 1 
0.412 0.069 -0.015 1 
0.411 0.073 -0.014 1 
0.411 0.091 -0.015 1 
0.41 0.111 -0.015 1 
0.409 0.115 -0.014 1 
0.404 0.137 -0.013 1 
0.403 0.154 -0.014 1 
0.401 0.162 -0.013 1 
0.404 0.174 -0.015 1 
0.404 0.179 -0.015 1 
0.402 0.194 -0.015 1 
0.4 0.209 -0.015 1 
0.404 0.215 -0.016 1 
0.404 0.233 -0.017 1 
0.4 0.244 -0.016 1 
0.424 -0.268 -0.019 1 
0.424 -0.256 -0.019 1 
0.424 -0.237 -0.018 1 
0.424 -0.227 -0.018 1 
0.42 -0.216 -0.017 1 
0.422 -0.195 -0.017 1 
0.417 -0.166 -0.015 1 
0.417 -0.157 -0.014 1 
0.417 -0.154 -0.014 1 
0.37 0.211 -0.016 1 
0.42 -0.106 -0.014 1 
0.422 -0.096 -0.015 1 
0.421 -0.086 -0.015 1 
0.422 -0.075 -0.015 1 
0.421 -0.07 -0.014 1 
0.422 -0.065 -0.015 1 
0.42 -0.056 -0.014 1 
0.421 -0.047 -0.014 1 
0.381 -0.186 -0.019 1 
0.39 -0.147 -0.017 1 
0.402 0.103 -0.014 1 
0.421 -0.044 -0.014 1 
0.421 0.014 -0.015 1 
0.384 0.214 -0.017 1 
0.418 0.034 -0.014 1 
0.419 -0.175 -0.015 1 
0.418 0.043 -0.014 1 
0.418 0.054 -0.014 1 
0.411 0.134 -0.013 1 
0.41 0.143 -0.013 1 
0.412 0.163 -0.014 1 
0.411 0.182 -0.015 1 
0.398 0.063 -0.015 1 
0.407 0.205 -0.014 1 
0.408 0.214 -0.015 1 
0.356 0.014 -0.013 1 
0.404 -0.237 -0.022 1 
0.41 0.223 -0.016 1 
0.403 0.263 -0.015 1 
0.401 0.269 -0.015 1 
0.432 -0.309 -0.021 1 
0.431 -0.275 -0.019 1 
0.427 -0.176 -0.015 1 
0.424 -0.142 -0.014 1 
0.424 -0.122 -0.013 1 
0.429 -0.043 -0.014 1 
0.374 0.191 -0.017 1 
0.43 0.014 -0.015 1 
0.423 0.062 -0.013 1 
0.422 0.074 -0.013 1 
0.422 0.092 -0.013 1 
0.421 0.104 -0.013 1 
0.421 0.123 -0.013 1 
0.413 0.193 -0.013 1 
0.417 0.209 -0.015 1 
0.414 0.224 -0.014 1 
0.414 0.229 -0.015 1 
0.415 0.233 -0.015 1 
0.415 0.241 -0.015 1 
0.414 0.242 -0.015 1 
0.411 0.253 -0.015 1 
0.409 0.253 -0.014 1 
0.409 0.264 -0.015 1 
0.408 0.274 -0.015 1 
0.433 -0.304 -0.018 1 
0.433 -0.289 -0.017 1 
0.434 -0.249 -0.016 1 
0.432 -0.225 -0.015 1 
0.432 -0.205 -0.015 1 
0.432 -0.2 -0.015 1 
0.381 -0.067 -0.015 1 
0.432 -0.197 -0.014 1 
0.432 -0.192 -0.014 1 
0.434 -0.185 -0.015 1 
0.433 -0.177 -0.014 1 
0.431 -0.155 -0.013 1 
0.432 -0.146 -0.014 1 
0.432 -0.136 -0.013 1 
0.433 -0.127 -0.014 1 
0.431 -0.116 -0.013 1 
0.432 -0.106 -0.013 1 
0.434 -0.095 -0.013 1 
0.432 -0.085 -0.013 1 
0.434 -0.076 -0.013 1 
0.434 -0.066 -0.013 1 
0.484 -0.047 -0.026 1 
0.48 -0.041 -0.025 1 
0.434 0.012 -0.013 1 
0.431 0.043 -0.013 1 
0.43 0.052 -0.013 1 
0.43 0.064 -0.013 1 
0.429 0.073 -0.012 1 
0.422 0.154 -0.012 1 
0.423 0.162 -0.012 1 
0.42 0.183 -0.012 1 
0.42 0.224 -0.013 1 
0.419 0.25 -0.014 1 
0.416 0.283 -0.015 1 
0.442 -0.295 -0.017 1 
0.438 -0.276 -0.015 1 
0.438 -0.256 -0.015 1 
0.439 -0.24 -0.015 1 
0.437 -0.195 -0.013 1 
0.44 -0.187 -0.014 1 
0.438 -0.175 -0.013 1 
0.439 -0.075 -0.012 1 
0.439 -0.065 -0.012 1 
0.461 -0.046 -0.018 1 
0.319 -0.016 0.018 1 
0.323 0 0.017 1 
0.434 0.082 -0.011 1 
0.414 -0.057 -0.015 1 
0.434 0.092 -0.012 1 
0.431 0.123 -0.011 1 
0.429 0.144 -0.011 1 
0.427 0.152 -0.011 1 
0.424 0.194 -0.011 1 
0.424 0.204 -0.011 1 
0.424 0.209 -0.012 1 
0.424 0.228 -0.012 1 
0.424 0.241 -0.013 1 
0.424 0.272 -0.014 1 
0.421 0.283 -0.014 1 
0.42 0.291 -0.014 1 
0.447 -0.3 -0.016 1 
0.441 -0.288 -0.014 1 
0.447 -0.291 -0.015 1 
0.409 0.103 -0.014 1 
0.443 -0.235 -0.013 1 
0.443 -0.226 -0.013 1 
0.444 -0.219 -0.013 1 
0.442 -0.167 -0.011 1 
0.441 -0.156 -0.011 1 
0.443 -0.147 -0.011 1 
0.443 -0.126 -0.011 1 
0.444 -0.116 -0.011 1 
0.443 -0.106 -0.011 1 
0.442 -0.095 -0.011 1 
0.423 0.083 -0.013 1 
0.444 -0.086 -0.011 1 
0.444 -0.063 -0.011 1 
0.481 -0.046 -0.02 1 
0.413 0.024 -0.015 1 
0.338 0.001 0.014 1 
0.444 0.023 -0.011 1 
0.444 0.033 -0.011 1 
0.443 0.042 -0.011 1 
0.441 0.064 -0.011 1 
0.441 0.074 -0.011 1 
0.441 0.084 -0.011 1 
0.442 0.102 -0.011 1 
0.441 0.114 -0.011 1 
0.44 0.124 -0.011 1 
0.433 0.174 -0.011 1 
0.431 0.183 -0.01 1 
0.432 0.192 -0.011 1 
0.432 0.202 -0.011 1 
0.431 0.223 -0.011 1 
0.431 0.234 -0.012 1 
0.431 0.253 -0.012 1 
0.428 0.264 -0.012 1 
0.453 -0.317 -0.015 1 
0.455 -0.315 -0.015 1 
0.451 -0.301 -0.014 1 
0.457 -0.305 -0.015 1 
0.444 -0.267 -0.011 1 
0.442 -0.256 -0.011 1 
0.451 -0.216 -0.012 1 
0.452 -0.206 -0.012 1 
0.451 -0.197 -0.012 1 
0.45 -0.185 -0.011 1 
0.45 -0.156 -0.011 1 
0.452 -0.146 -0.011 1 
0.451 -0.135 -0.011 1 
0.45 -0.127 -0.01 1 
0.45 -0.116 -0.01 1 
0.449 -0.105 -0.01 1 
0.452 -0.096 -0.01 1 
0.436 -0.205 -0.013 1 
0.452 -0.086 -0.01 1 
0.452 -0.075 -0.01 1 
0.452 -0.065 -0.01 1 
0.453 -0.055 -0.01 1 
0.478 -0.038 -0.016 1 
0.364 0.172 -0.015 1 
0.34 -0.012 0.015 1 
0.354 0.007 -0.013 1 
0.351 -0.006 0.013 1 
0.45 0.033 -0.01 1 
0.444 0.134 -0.01 1 
0.441 0.153 -0.009 1 
0.441 0.164 -0.01 1 
0.434 0.27 -0.011 1 
0.434 0.282 -0.011 1 
0.453 -0.285 -0.011 1 
0.45 -0.276 -0.01 1 
0.419 0.134 -0.013 1 
0.451 -0.265 -0.01 1 
0.45 -0.258 -0.01 1 
0.45 -0.246 -0.009 1 
0.452 -0.236 -0.01 1 
0.454 -0.232 -0.01 1 
0.384 -0.013 0.007 1 
0.42 -0.135 -0.015 1 
0.388 -0.005 0.006 1 
0.392 -0.228 -0.022 1 
0.389 0 0.006 1 
0.441 0.142 -0.009 1 
0.454 0.044 -0.008 1 
0.453 0.054 -0.008 1 
0.453 0.062 -0.008 1 
0.454 0.073 -0.009 1 
0.453 0.093 -0.009 1 
0.453 0.104 -0.009 1 
0.451 0.134 -0.009 1 
0.444 0.173 -0.008 1 
0.411 0.187 -0.015 1 
0.443 0.183 -0.008 1 
0.442 0.204 -0.008 1 
0.485 -0.044 -0.027 1 
0.442 0.243 -0.009 1 
0.439 0.272 -0.009 1 
0.44 0.276 -0.01 1 
0.443 0.294 -0.011 1 
0.432 0.304 -0.009 1 
0.383 0.183 -0.015 1 
0.464 -0.318 -0.012 1 
0.46 -0.215 -0.008 1 
0.46 -0.195 -0.008 1 
0.461 -0.176 -0.008 1 
0.463 -0.135 -0.008 1 
0.46 -0.115 -0.007 1 
0.462 -0.075 -0.007 1 
0.378 -0.238 -0.025 1 
0.462 -0.057 -0.007 1 
0.454 0.154 -0.007 1 
0.453 0.163 -0.007 1 
0.388 0.232 -0.017 1 
0.449 0.182 -0.007 1 
0.45 0.194 -0.007 1 
0.451 0.203 -0.008 1 
0.448 0.214 -0.007 1 
0.444 0.301 -0.009 1 
0.41 -0.038 -0.015 1 
0.442 0.312 -0.009 1 
0.463 -0.341 -0.009 1 
0.464 -0.299 -0.008 1 
0.464 -0.258 -0.007 1 
0.465 -0.195 -0.006 1 
0.417 0.273 -0.015 1 
0.466 -0.187 -0.007 1 
0.465 -0.178 -0.006 1 
0.464 -0.158 -0.006 1 
0.466 -0.145 -0.006 1 
0.466 -0.136 -0.006 1 
0.404 -0.266 -0.023 1 
0.465 -0.117 -0.006 1 
0.466 -0.055 -0.005 1 
0.465 -0.036 -0.005 1 
0.465 -0.004 -0.005 1 
0.464 0.003 -0.005 1 
0.464 0.014 -0.005 1 
0.464 0.024 -0.005 1 
0.463 0.032 -0.005 1 
0.462 0.043 -0.005 1 
0.461 0.053 -0.005 1 
0.462 0.064 -0.005 1 
0.462 0.072 -0.005 1 
0.462 0.083 -0.005 1 
0.462 0.093 -0.005 1 
0.419 -0.146 -0.015 1 
0.459 0.114 -0.005 1 
0.46 0.122 -0.005 1 
0.456 0.173 -0.005 1 
0.456 0.184 -0.006 1 
0.456 0.203 -0.006 1 
0.409 0.094 -0.014 1 
0.455 0.214 -0.006 1 
0.454 0.224 -0.006 1 
0.453 0.232 -0.006 1 
0.452 0.243 -0.006 1 
0.451 0.254 -0.006 1 
0.45 0.262 -0.006 1 
0.452 0.294 -0.007 1 
0.451 -0.047 -0.012 1 
0.468 -0.306 -0.006 1 
0.459 0.133 -0.005 1 
0.468 -0.286 -0.006 1 
0.469 -0.275 -0.006 1 
0.472 -0.247 -0.006 1 
0.472 -0.237 -0.006 1 
0.469 -0.227 -0.005 1 
0.468 -0.217 -0.005 1 
0.468 -0.211 -0.005 1 
0.464 0.032 -0.003 1 
0.463 0.064 -0.003 1 
0.454 0.262 -0.004 1 
0.454 0.271 -0.004 1 
0.454 0.278 -0.005 1 
0.444 -0.247 -0.011 1 
0.456 0.292 -0.005 1 
0.455 0.3 -0.006 1 
0.454 0.302 -0.005 1 
0.455 0.307 -0.006 1 
0.453 0.314 -0.006 1 
0.452 0.323 -0.006 1 
0.451 0.325 -0.006 1 
0.46 -0.341 -0.003 1 
0.471 -0.346 -0.005 1 
0.474 -0.336 -0.005 1 
0.432 0.133 -0.012 1 
0.44 0.264 -0.009 1 
0.473 -0.328 -0.005 1 
0.362 -0.075 -0.016 1 
0.473 -0.321 -0.005 1 
0.475 -0.32 -0.005 1 
0.472 -0.306 -0.004 1 
0.464 0.113 -0.001 1 
0.464 0.124 -0.001 1 
0.463 0.154 -0.001 1 
0.454 0.328 -0.003 1 
0.474 -0.299 -0.002 1 
0.473 -0.285 -0.001 1 
0.474 -0.276 -0.001 1 
0.464 0.174 0 1 
0.464 0.183 0 1 
0.464 0.194 0 1 
0.464 0.203 0 1 
0.462 0.222 0 1 
0.462 0.233 0 1 
0.462 0.254 0 1 
0.474 -0.353 0 1 
0.474 -0.215 0.002 1 
0.472 -0.205 0.002 1 
0.472 -0.196 0.002 1 
0.473 -0.185 0.002 1 
0.471 -0.156 0.003 1 
0.471 -0.147 0.003 1 
0.374 -0.206 -0.022 1 
0.421 0.113 -0.013 1 
0.47 -0.135 0.003 1 
0.469 -0.085 0.004 1 
0.469 -0.077 0.004 1 
0.469 -0.066 0.004 1 
0.414 -0.134 -0.015 1 
0.409 0.128 -0.015 1 
0.465 0.073 0.004 1 
0.466 0.084 0.004 1 
0.466 0.122 0.003 1 
0.466 0.144 0.003 1 
0.465 0.152 0.003 1 
0.465 0.164 0.003 1 
0.466 0.184 0.002 1 
0.465 0.192 0.002 1 
0.466 0.201 0.002 1 
0.467 0.214 0.002 1 
0.467 0.222 0.002 1 
0.466 0.234 0.002 1 
0.466 0.243 0.001 1 
0.462 0.324 0 1 
0.473 -0.355 0.002 1 
0.479 -0.327 0.002 1 
0.477 -0.305 0.003 1 
0.476 -0.297 0.003 1 
0.35 0.002 0.013 1 
0.475 -0.286 0.003 1 
0.475 -0.277 0.004 1 
0.475 -0.274 0.004 1 
0.474 -0.266 0.004 1 
0.476 -0.243 0.004 1 
0.474 -0.236 0.004 1 
0.473 -0.227 0.004 1 
0.465 0.164 0.006 1 
0.465 0.254 0.004 1 
0.464 0.274 0.004 1 
0.464 0.293 0.003 1 
0.464 0.303 0.003 1 
0.464 0.313 0.003 1 
0.466 0.331 0.002 1 
0.475 -0.27 0.007 1 
0.464 -0.007 -0.005 1 
0.467 -0.047 -0.006 1 
0.465 -0.065 -0.005 1 
0.36 0.103 -0.014 1 
0.478 -0.336 0.002 1 
0.465 0.175 0.008 1 
0.371 0.148 -0.014 1 
0.466 0.343 0.004 1 
0.434 0.294 -0.012 1 
0.404 -0.156 -0.017 1 
0.463 -0.052 -0.007 1 
0.462 -0.065 -0.007 1 
0.409 0.197 -0.012 1 
0.466 -0.085 -0.006 1 
0.382 -0.146 -0.019 1 
0.462 -0.086 -0.007 1 
0.465 -0.172 -0.006 1 
0.478 -0.35 0.004 1 
0.387 0.044 -0.015 1 
0.393 0.173 -0.016 1 
0.466 -0.106 -0.006 1 
0.461 -0.126 -0.007 1 
0.465 -0.125 -0.006 1 
0.464 -0.152 -0.006 1 
0.466 0.103 0.004 1 
0.408 0.261 -0.014 1 
0.464 -0.166 -0.006 1 
0.46 -0.186 -0.008 1 
0.458 -0.225 -0.008 1 
0.458 -0.247 -0.009 1 
0.463 -0.266 -0.01 1 
0.441 0.254 -0.009 1 
0.464 -0.289 -0.011 1 
0.438 -0.267 -0.015 1 
0.464 -0.305 -0.008 1 
0.463 -0.327 -0.012 1 
0.444 -0.276 -0.012 1 
0.409 0.112 -0.014 1 
0.372 0.113 -0.015 1 
0.412 0.153 -0.014 1 
0.466 0.092 0.004 1 
0.444 -0.316 -0.016 1 
0.402 -0.086 -0.016 1 
0.404 0.203 -0.016 1 
0.432 -0.049 -0.013 1 
0.451 0.142 -0.009 1 
0.417 -0.162 -0.015 1 
0.438 -0.247 -0.015 1 
0.47 -0.127 0.003 1 
0.459 0.143 -0.005 1 
0.45 -0.177 -0.011 1 
0.394 0.259 -0.015 1 
0.358 0.063 -0.015 1 
0.471 -0.167 0.003 1 
0.392 0.103 -0.016 1 
0.474 -0.254 0.004 1 
0.363 0.114 -0.014 1 
0.464 0.244 0.004 1 
0.42 0.023 -0.014 1 
0.382 -0.127 -0.018 1 
0.363 0.144 -0.015 1 
0.463 0.339 -0.003 1 
0.455 0.282 -0.005 1 
0.442 0.213 -0.008 1 
0.362 0.134 -0.014 1 
0.444 -0.046 -0.013 1 
0.412 0.055 -0.014 1 
0.413 0.018 -0.014 1 
0.402 0.166 -0.014 1 
0.39 0.159 -0.014 1 
0.464 0.083 -0.003 1 
0.374 -0.186 -0.019 1 
0.37 -0.065 -0.015 1 
0.358 0.204 -0.016 1 
0.442 0.052 -0.011 1 
0.423 -0.278 -0.019 1 
0.432 0.113 -0.011 1 
0.463 -0.334 -0.015 1 
0.475 -0.264 0.004 1 
0.423 -0.042 -0.015 1 
0.379 0.093 -0.015 1 
0.408 0.277 -0.015 1 
0.458 0.154 -0.005 1 
0.387 0.202 -0.015 1 
0.475 -0.246 0.004 1 
0.364 0.05 -0.015 1 
0.464 0.094 -0.003 1 
0.391 0.014 -0.016 1 
0.464 0.333 0.002 1 
0.475 -0.234 0.001 1 
0.464 0.043 -0.003 1 
0.374 0.152 -0.015 1 
0.38 0.234 -0.017 1 
0.397 -0.248 -0.025 1 
0.426 -0.157 -0.015 1 
0.465 0.324 0.002 1 
0.396 -0.255 -0.025 1 
0.394 -0.235 -0.023 1 
0.465 -0.033 -0.005 1 
0.454 0.011 -0.008 1 
0.373 0.079 -0.015 1 
0.434 -0.172 -0.015 1 
0.389 -0.096 -0.016 1 
0.337 0 0.015 1 
0.433 -0.237 -0.016 1 
0.374 0.094 -0.015 1 
0.465 -0.012 -0.005 1 
0.434 -0.269 -0.017 1 
0.401 -0.266 -0.025 1 
0.421 0.172 -0.012 1 
0.412 -0.147 -0.015 1 
0.404 -0.165 -0.018 1 
0.424 -0.248 -0.019 1 
0.41 0.124 -0.015 1 
0.442 0.005 -0.008 1 
0.469 -0.297 -0.006 1 
0.4 0.013 -0.015 1 
0.382 0.2 -0.016 1 
0.382 0.193 -0.015 1 
0.465 0.26 0.004 1 
0.415 -0.046 -0.015 1 
0.371 0.063 -0.016 1 
0.432 -0.215 -0.015 1 
0.325 0.001 0.016 1 
0.363 0.164 -0.016 1 
0.411 0.172 -0.014 1 
0.394 0.254 -0.017 1 
0.464 -0.017 -0.005 1 
0.434 0.156 -0.01 1 
0.465 0.113 0.004 1 
0.42 -0.104 -0.014 1 
0.359 -0.085 -0.015 1 
0.418 0.011 -0.014 1 
0.391 0.113 -0.015 1 
0.464 0.143 -0.001 1 
0.363 -0.105 -0.017 1 
0.464 0.102 0 1 
0.474 -0.043 -0.035 1 
0.442 0.092 -0.011 1 
0.451 0.113 -0.008 1 
0.384 -0.091 -0.016 1 
0.383 0.033 -0.016 1 
0.41 0.183 -0.014 1 
0.41 0.044 -0.014 1 
0.398 0.065 -0.015 1 
0.424 0.263 -0.013 1 
0.424 0.143 -0.012 1 
0.443 -0.293 -0.015 1 
0.454 0.274 -0.005 1 
0.372 -0.231 -0.025 1 
0.464 -0.025 -0.005 1 
0.401 -0.215 -0.018 1 
0.391 -0.176 -0.018 1 
0.401 -0.177 -0.017 1 
0.411 0.084 -0.015 1 
0.412 -0.175 -0.016 1 
0.461 -0.105 -0.007 1 
0.464 0.11 0.007 1 
0.404 0.084 -0.015 1 
0.433 0.024 -0.013 1 
0.372 0.033 -0.016 1 
0.411 0.013 -0.014 1 
0.455 0.219 -0.006 1 
0.362 -0.095 -0.016 1 
0.38 -0.178 -0.019 1 
0.464 0.262 0.004 1 
0.465 -0.155 -0.006 1 
0.381 -0.231 -0.025 1 
0.402 -0.095 -0.016 1 
0.438 -0.136 -0.012 1 
0.403 -0.126 -0.016 1 
0.419 0.261 -0.015 1 
0.382 0.133 -0.015 1 
0.374 -0.063 -0.014 1 
0.464 0.163 0 1 
0.434 0.104 -0.012 1 
0.37 0.23 -0.015 1 
0.421 -0.186 -0.016 1 
0.416 0.005 -0.004 1 
0.409 -0.207 -0.018 1 
0.431 0.033 -0.013 1 
0.364 0.178 -0.015 1 
0.405 0.173 -0.015 1 
0.443 -0.306 -0.018 1 
0.432 -0.056 -0.013 1 
0.463 0.134 -0.003 1 
0.453 0.083 -0.009 1 
0.434 -0.255 -0.016 1 
0.374 -0.163 -0.018 1 
0.381 -0.195 -0.02 1 
0.394 0.209 -0.015 1 
0.421 -0.126 -0.015 1 
0.372 0.043 -0.016 1 
0.372 0.174 -0.015 1 
0.358 0.054 -0.014 1 
0.371 0.089 -0.014 1 
0.361 -0.045 -0.015 1 
0.465 0.172 0.003 1 
0.403 0.081 -0.014 1 
0.442 0.194 -0.008 1 
0.433 -0.167 -0.014 1 
0.451 0.023 -0.01 1 
0.411 0.082 -0.014 1 
0.468 -0.265 -0.005 1 
0.403 0.253 -0.015 1 
0.464 0.284 0.004 1 
0.362 0.138 -0.014 1 
0.412 0.033 -0.014 1 
0.469 -0.256 -0.005 1 
0.377 -0.234 -0.024 1 
0.474 -0.257 0.004 1 
0.391 -0.185 -0.019 1 
0.36 -0.116 -0.016 1 
0.403 0.197 -0.013 1 
0.462 -0.097 -0.007 1 
0.381 0.064 -0.015 1 
0.42 -0.116 -0.015 1 
0.432 0.213 -0.011 1 
0.444 0.222 -0.009 1 
0.415 0.285 -0.015 1 
0.41 -0.276 -0.023 1 
0.479 -0.317 0.002 1 
0.464 0.072 -0.003 1 
0.413 0.226 -0.014 1 
0.463 0.053 -0.003 1 
0.464 -0.212 -0.007 1 
0.401 0.034 -0.015 1 
0.449 -0.166 -0.011 1 
0.45 0.174 -0.007 1 
0.398 -0.034 -0.016 1 
0.379 0.173 -0.016 1 
0.456 0.164 -0.005 1 
0.462 -0.275 -0.01 1 
0.444 0.234 -0.009 1 
0.466 -0.095 -0.006 1 
0.456 0.192 -0.006 1 
0.463 0.214 0 1 
0.433 0.244 -0.012 1 
0.465 -0.015 -0.005 1 
0.451 0.124 -0.009 1 
0.387 0.193 -0.015 1 
0.466 -0.076 -0.006 1 
0.454 -0.328 -0.016 1 
0.459 -0.236 -0.008 1 
0.402 -0.245 -0.022 1 
0.486 -0.041 -0.021 1 
0.382 -0.135 -0.018 1 
0.472 -0.04 -0.034 1 
0.373 0.203 -0.017 1 
0.362 0.212 -0.016 1 
0.374 -0.165 -0.018 1 
0.367 -0.024 -0.016 1 
0.429 -0.098 -0.015 1 
0.46 0.103 -0.005 1 
0.485 -0.047 -0.03 1 
0.392 -0.135 -0.017 1 
0.42 -0.206 -0.016 1 
0.453 -0.307 -0.015 1 
0.407 0.054 -0.015 1 
0.403 0.092 -0.014 1 
0.472 -0.176 0.002 1 
0.465 0.234 0.143 3 
0.468 0.063 0.144 3 
0.468 0.052 0.144 3 
0.467 0.044 0.144 3 
0.468 0.074 0.144 3 
0.468 0.033 0.144 3 
0.472 -0.147 0.074 3 
0.468 0.017 0.144 3 
0.467 0.003 0.144 3 
0.469 -0.007 0.144 3 
0.469 -0.015 0.144 3 
0.475 -0.201 0.148 3 
0.479 -0.285 0.152 3 
0.48 -0.296 0.152 3 
0.48 -0.306 0.153 3 
0.482 -0.318 0.154 3 
0.482 -0.325 0.154 3 
0.485 -0.349 0.156 3 
0.467 0.26 0.144 3 
0.475 -0.237 0.092 3 
0.467 0.254 0.144 3 
0.465 0.243 0.144 3 
0.475 -0.265 0.104 3 
0.476 -0.226 0.152 3 
0.477 -0.245 0.144 3 
0.474 -0.175 0.153 3 
0.474 -0.187 0.154 3 
0.474 -0.196 0.154 3 
0.466 0.233 0.063 3 
0.475 -0.211 0.154 3 
0.484 -0.345 0.161 3 
0.468 0.347 0.154 3 
0.467 0.339 0.153 3 
0.467 0.332 0.153 3 
0.468 0.323 0.152 3 
0.467 0.082 0.144 3 
0.477 -0.236 0.153 3 
0.474 -0.266 0.012 3 
0.478 -0.256 0.153 3 
0.478 -0.265 0.154 3 
0.479 -0.275 0.154 3 
0.465 0.183 0.044 3 
0.467 0.118 0.144 3 
0.467 0.112 0.144 3 
0.476 -0.247 0.112 3 
0.467 0.104 0.144 3 
0.467 0.093 0.144 3 
0.468 -0.015 0.082 3 
0.473 -0.166 0.144 3 
0.472 -0.177 0.144 3 
0.483 -0.336 0.152 3 
0.484 -0.348 0.152 3 
0.467 0.345 0.144 3 
0.474 -0.186 0.122 3 
0.467 0.342 0.144 3 
0.468 0.333 0.144 3 
0.467 0.321 0.143 3 
0.467 0.314 0.143 3 
0.467 0.301 0.143 3 
0.467 0.282 0.142 3 
0.473 -0.157 0.144 3 
0.467 0.273 0.142 3 
0.466 0.153 0.063 3 
0.472 -0.185 0.142 3 
0.473 -0.195 0.142 3 
0.475 -0.198 0.142 3 
0.472 -0.167 0.094 3 
0.475 -0.207 0.143 3 
0.475 -0.216 0.143 3 
0.476 -0.226 0.143 3 
0.477 -0.236 0.144 3 
0.485 -0.34 0.174 3 
0.47 -0.026 0.142 3 
0.466 0.214 0.143 3 
0.467 0.203 0.143 3 
0.467 0.192 0.143 3 
0.475 -0.228 0.083 3 
0.467 0.182 0.143 3 
0.466 0.173 0.142 3 
0.472 -0.156 0.124 3 
0.467 0.162 0.142 3 
0.467 0.154 0.142 3 
0.468 0.143 0.142 3 
0.468 0.132 0.142 3 
0.466 0.223 0.143 3 
0.47 -0.045 0.142 3 
0.471 -0.056 0.142 3 
0.47 -0.067 0.142 3 
0.468 0.022 0.103 3 
0.465 0.172 0.052 3 
0.47 -0.075 0.142 3 
0.471 -0.086 0.143 3 
0.47 -0.105 0.143 3 
0.472 -0.117 0.143 3 
0.472 -0.125 0.143 3 
0.472 -0.145 0.144 3 
0.48 -0.296 0.164 3 
0.467 0.343 0.162 3 
0.468 0.333 0.162 3 
0.464 0.334 0.117 3 
0.474 -0.187 0.159 3 
0.471 -0.105 0.104 3 
0.474 -0.264 0.052 3 
0.469 -0.036 0.044 3 
0.478 -0.246 0.162 3 
0.478 -0.256 0.162 3 
0.478 -0.265 0.162 3 
0.479 -0.276 0.163 3 
0.479 -0.286 0.164 3 
0.468 0.348 0.162 3 
0.467 0.189 0.154 3 
0.467 0.183 0.154 3 
0.467 0.171 0.153 3 
0.467 0.163 0.153 3 
0.468 0.152 0.153 3 
0.468 0.143 0.153 3 
0.467 0.123 0.063 3 
0.469 0.133 0.154 3 
0.468 0.124 0.153 3 
0.468 0.033 0.063 3 
0.468 0.113 0.153 3 
0.474 -0.175 0.162 3 
0.466 0.274 0.113 3 
0.485 -0.35 0.174 3 
0.469 0.321 0.164 3 
0.468 0.313 0.164 3 
0.467 0.302 0.163 3 
0.467 0.292 0.163 3 
0.466 0.263 0.063 3 
0.467 0.283 0.162 3 
0.468 0.274 0.162 3 
0.475 -0.164 0.162 3 
0.475 -0.167 0.162 3 
0.468 0.104 0.153 3 
0.466 0.123 0.122 3 
0.475 -0.179 0.162 3 
0.475 -0.185 0.162 3 
0.476 -0.197 0.163 3 
0.466 0.114 0.052 3 
0.475 -0.205 0.163 3 
0.476 -0.215 0.164 3 
0.474 -0.26 0.044 3 
0.478 -0.225 0.164 3 
0.478 -0.237 0.164 3 
0.484 -0.346 0.171 3 
0.466 0.232 0.152 3 
0.482 -0.325 0.163 3 
0.466 0.261 0.102 3 
0.483 -0.337 0.164 3 
0.467 0.305 0.154 3 
0.467 0.302 0.154 3 
0.466 0.294 0.154 3 
0.466 0.282 0.153 3 
0.467 0.264 0.153 3 
0.467 0.254 0.153 3 
0.466 0.244 0.152 3 
0.469 -0.135 0.014 3 
0.482 -0.315 0.163 3 
0.466 0.223 0.152 3 
0.471 -0.135 0.083 3 
0.467 0.212 0.152 3 
0.468 0.204 0.152 3 
0.473 -0.115 0.152 3 
0.473 -0.126 0.152 3 
0.473 -0.137 0.152 3 
0.464 0.34 0.06 3 
0.473 -0.146 0.152 3 
0.473 -0.157 0.153 3 
0.465 0.297 0.043 3 
0.469 -0.007 0.153 3 
0.469 0.094 0.153 3 
0.478 -0.265 0.142 3 
0.469 0.083 0.153 3 
0.468 0.074 0.153 3 
0.469 0.063 0.153 3 
0.469 0.052 0.153 3 
0.469 0.044 0.153 3 
0.469 0.033 0.153 3 
0.469 0.022 0.153 3 
0.469 0.014 0.153 3 
0.468 0.003 0.153 3 
0.474 -0.166 0.153 3 
0.47 -0.015 0.153 3 
0.471 -0.026 0.153 3 
0.472 -0.056 0.154 3 
0.463 0.332 0.062 3 
0.472 -0.067 0.154 3 
0.472 -0.075 0.154 3 
0.471 -0.086 0.154 3 
0.471 -0.097 0.154 3 
0.474 -0.248 0.092 3 
0.472 -0.106 0.154 3 
0.48 -0.306 0.162 3 
0.466 0.313 0.123 3 
0.471 -0.075 0.123 3 
0.472 -0.086 0.124 3 
0.471 -0.097 0.124 3 
0.477 -0.288 0.093 3 
0.471 -0.105 0.124 3 
0.471 -0.125 0.124 3 
0.472 -0.136 0.124 3 
0.472 -0.145 0.124 3 
0.474 -0.215 0.126 3 
0.466 0.204 0.082 3 
0.469 0.333 0.124 3 
0.467 0.324 0.123 3 
0.47 -0.066 0.123 3 
0.467 0.304 0.123 3 
0.467 0.294 0.122 3 
0.467 0.281 0.122 3 
0.467 0.272 0.122 3 
0.467 0.263 0.122 3 
0.472 -0.165 0.122 3 
0.473 -0.176 0.122 3 
0.475 -0.195 0.123 3 
0.475 -0.207 0.123 3 
0.474 -0.212 0.123 3 
0.474 -0.215 0.123 3 
0.467 0.033 0.122 3 
0.466 0.164 0.123 3 
0.467 0.154 0.123 3 
0.467 0.134 0.123 3 
0.467 0.112 0.123 3 
0.467 0.104 0.123 3 
0.467 0.093 0.122 3 
0.467 0.074 0.122 3 
0.466 0.062 0.122 3 
0.466 0.054 0.122 3 
0.465 0.116 0.014 3 
0.467 0.044 0.122 3 
0.475 -0.222 0.123 3 
0.467 0.022 0.122 3 
0.47 -0.155 0.014 3 
0.468 0.014 0.122 3 
0.468 0.003 0.122 3 
0.467 -0.077 0.012 3 
0.468 -0.007 0.122 3 
0.468 -0.015 0.122 3 
0.469 -0.025 0.123 3 
0.469 -0.036 0.123 3 
0.469 -0.047 0.123 3 
0.469 -0.055 0.123 3 
0.474 -0.197 0.117 3 
0.467 0.063 0.114 3 
0.466 0.054 0.114 3 
0.466 0.044 0.114 3 
0.466 0.033 0.114 3 
0.468 0.022 0.114 3 
0.468 0.014 0.114 3 
0.468 0.003 0.114 3 
0.467 -0.007 0.114 3 
0.468 -0.015 0.114 3 
0.469 -0.025 0.114 3 
0.468 -0.039 0.114 3 
0.467 0.074 0.114 3 
0.481 -0.355 0.121 3 
0.464 0.341 0.114 3 
0.464 0.334 0.114 3 
0.466 0.333 0.114 3 
0.467 0.323 0.114 3 
0.467 0.313 0.114 3 
0.466 0.303 0.114 3 
0.467 0.294 0.114 3 
0.464 0.032 0.012 3 
0.466 0.283 0.113 3 
0.476 0.361 0.2 3 
0.481 -0.347 0.124 3 
0.475 -0.225 0.123 3 
0.476 -0.235 0.123 3 
0.476 -0.247 0.124 3 
0.475 -0.256 0.124 3 
0.475 -0.265 0.124 3 
0.475 -0.255 0.044 3 
0.475 -0.192 0.12 3 
0.477 -0.286 0.122 3 
0.481 -0.306 0.123 3 
0.481 -0.326 0.124 3 
0.481 -0.337 0.124 3 
0.467 0.173 0.123 3 
0.466 0.156 0.114 3 
0.466 0.153 0.114 3 
0.466 0.201 0.112 3 
0.467 0.131 0.114 3 
0.467 0.123 0.114 3 
0.464 0.29 0.077 3 
0.466 0.114 0.114 3 
0.466 0.103 0.114 3 
0.467 0.093 0.114 3 
0.467 0.084 0.114 3 
0.478 -0.315 0.043 3 
0.47 -0.066 0.134 3 
0.466 0.033 0.133 3 
0.467 0.022 0.133 3 
0.468 0.014 0.133 3 
0.468 0.003 0.133 3 
0.468 -0.007 0.133 3 
0.473 -0.217 0.064 3 
0.469 -0.015 0.133 3 
0.469 -0.025 0.133 3 
0.467 0.263 0.113 3 
0.469 -0.036 0.134 3 
0.47 -0.045 0.134 3 
0.47 -0.056 0.134 3 
0.467 0.044 0.133 3 
0.47 -0.075 0.134 3 
0.471 -0.086 0.134 3 
0.47 -0.097 0.134 3 
0.482 -0.328 0.142 3 
0.484 -0.337 0.143 3 
0.483 -0.347 0.143 3 
0.466 0.32 0.134 3 
0.465 0.342 0.123 3 
0.467 0.304 0.134 3 
0.467 0.291 0.134 3 
0.465 0.311 0.074 3 
0.467 0.162 0.134 3 
0.478 -0.277 0.142 3 
0.479 -0.288 0.143 3 
0.471 -0.207 0.013 3 
0.48 -0.296 0.143 3 
0.48 -0.306 0.144 3 
0.481 -0.317 0.144 3 
0.465 0.21 0.134 3 
0.467 0.197 0.134 3 
0.467 0.191 0.134 3 
0.467 0.182 0.134 3 
0.467 0.174 0.134 3 
0.467 0.282 0.134 3 
0.467 0.154 0.134 3 
0.467 0.134 0.134 3 
0.468 0.123 0.134 3 
0.467 0.112 0.133 3 
0.467 0.104 0.133 3 
0.467 0.093 0.133 3 
0.466 0.082 0.133 3 
0.468 -0.007 0.082 3 
0.466 0.073 0.133 3 
0.466 0.063 0.133 3 
0.467 0.052 0.133 3 
0.482 -0.317 0.133 3 
0.476 -0.226 0.132 3 
0.477 -0.236 0.132 3 
0.477 -0.245 0.133 3 
0.465 0.253 0.082 3 
0.477 -0.267 0.133 3 
0.483 -0.348 0.064 3 
0.471 -0.167 0.044 3 
0.478 -0.277 0.134 3 
0.478 -0.287 0.134 3 
0.479 -0.298 0.134 3 
0.48 -0.305 0.132 3 
0.468 0.332 0.132 3 
0.482 -0.328 0.133 3 
0.474 -0.276 0.044 3 
0.483 -0.336 0.133 3 
0.483 -0.346 0.134 3 
0.465 0.243 0.124 3 
0.464 0.233 0.123 3 
0.465 0.231 0.124 3 
0.466 0.214 0.124 3 
0.467 0.202 0.123 3 
0.467 0.194 0.123 3 
0.467 0.182 0.123 3 
0.473 -0.146 0.133 3 
0.468 0.273 0.134 3 
0.467 0.263 0.133 3 
0.464 0.13 0.02 3 
0.466 0.253 0.133 3 
0.465 0.243 0.132 3 
0.465 0.234 0.132 3 
0.465 0.222 0.132 3 
0.471 -0.116 0.132 3 
0.471 -0.125 0.132 3 
0.479 -0.323 0.034 3 
0.472 -0.137 0.132 3 
0.477 -0.255 0.144 3 
0.473 -0.157 0.133 3 
0.472 -0.165 0.133 3 
0.472 -0.177 0.133 3 
0.472 -0.185 0.133 3 
0.475 -0.192 0.134 3 
0.475 -0.195 0.134 3 
0.475 -0.207 0.134 3 
0.468 0.014 0.093 3 
0.475 -0.216 0.134 3 
0.467 0.084 0.063 3 
0.465 0.343 0.132 3 
0.471 0.123 0.182 3 
0.47 0.203 0.184 3 
0.467 0.044 0.103 3 
0.47 0.192 0.184 3 
0.471 0.183 0.184 3 
0.471 0.172 0.183 3 
0.474 -0.167 0.173 3 
0.472 -0.137 0.144 3 
0.471 0.163 0.183 3 
0.471 0.154 0.183 3 
0.471 0.143 0.182 3 
0.471 0.134 0.182 3 
0.476 -0.275 0.124 3 
0.47 0.209 0.184 3 
0.471 -0.105 0.132 3 
0.471 0.114 0.182 3 
0.471 0.103 0.182 3 
0.471 0.092 0.182 3 
0.469 -0.037 0.004 3 
0.472 0.084 0.182 3 
0.467 0.043 0.074 3 
0.471 0.072 0.181 3 
0.472 0.064 0.182 3 
0.471 0.053 0.181 3 
0.473 0.042 0.182 3 
0.479 -0.218 0.191 3 
0.472 0.334 0.194 3 
0.473 -0.148 0.094 3 
0.474 0.324 0.193 3 
0.475 0.322 0.194 3 
0.473 0.31 0.192 3 
0.473 0.303 0.192 3 
0.474 0.034 0.185 3 
0.474 0.015 0.185 3 
0.474 0.012 0.185 3 
0.474 0.003 0.185 3 
0.474 -0.046 0.186 3 
0.469 0.113 0.164 3 
0.48 -0.228 0.192 3 
0.479 -0.237 0.192 3 
0.466 0.253 0.124 3 
0.466 0.192 0.063 3 
0.479 -0.246 0.192 3 
0.481 -0.256 0.193 3 
0.469 -0.077 0.074 3 
0.483 -0.267 0.194 3 
0.484 -0.295 0.196 3 
0.469 0.233 0.184 3 
0.466 0.158 0.084 3 
0.486 -0.307 0.194 3 
0.477 -0.099 0.184 3 
0.477 -0.105 0.184 3 
0.473 -0.165 0.102 3 
0.476 -0.116 0.184 3 
0.476 -0.125 0.184 3 
0.482 -0.276 0.191 3 
0.475 -0.246 0.084 3 
0.483 -0.287 0.192 3 
0.466 0.274 0.094 3 
0.485 -0.296 0.193 3 
0.473 -0.205 0.044 3 
0.466 0.233 0.163 3 
0.471 0.284 0.184 3 
0.471 0.271 0.184 3 
0.474 -0.227 0.052 3 
0.47 0.261 0.183 3 
0.47 0.252 0.183 3 
0.469 0.242 0.182 3 
0.47 0.221 0.182 3 
0.474 -0.045 0.18 3 
0.47 -0.055 0.063 3 
0.474 -0.062 0.18 3 
0.474 -0.076 0.18 3 
0.474 -0.02 0.183 3 
0.477 -0.318 0.014 3 
0.474 0.034 0.182 3 
0.474 0.023 0.182 3 
0.473 0.012 0.182 3 
0.464 0.303 0.082 3 
0.473 0.003 0.182 3 
0.465 0.253 0.074 3 
0.474 -0.007 0.182 3 
0.481 -0.316 0.123 3 
0.475 -0.009 0.183 3 
0.475 -0.015 0.183 3 
0.472 0.341 0.194 3 
0.475 -0.026 0.183 3 
0.474 -0.029 0.183 3 
0.473 -0.037 0.173 3 
0.474 -0.037 0.183 3 
0.475 -0.046 0.183 3 
0.476 -0.057 0.183 3 
0.475 -0.065 0.183 3 
0.474 -0.068 0.183 3 
0.475 -0.076 0.183 3 
0.468 0.003 0.093 3 
0.476 -0.085 0.184 3 
0.474 0.042 0.188 3 
0.467 0.084 0.122 3 
0.472 0.144 0.189 3 
0.474 0.133 0.189 3 
0.474 0.124 0.189 3 
0.473 0.073 0.188 3 
0.473 0.112 0.188 3 
0.471 0.284 0.172 3 
0.473 0.104 0.188 3 
0.473 0.093 0.188 3 
0.472 0.084 0.188 3 
0.473 0.062 0.188 3 
0.474 0.054 0.188 3 
0.472 0.152 0.189 3 
0.475 0.04 0.189 3 
0.475 0.034 0.189 3 
0.476 0.023 0.189 3 
0.476 0.012 0.189 3 
0.468 0.043 0.052 3 
0.475 0.004 0.189 3 
0.476 -0.007 0.189 3 
0.476 -0.015 0.189 3 
0.476 -0.026 0.189 3 
0.476 -0.257 0.133 3 
0.474 -0.034 0.188 3 
0.471 0.253 0.192 3 
0.479 -0.297 0.123 3 
0.473 0.353 0.198 3 
0.473 0.342 0.198 3 
0.474 0.333 0.197 3 
0.475 0.322 0.197 3 
0.474 0.311 0.196 3 
0.474 0.304 0.195 3 
0.473 0.293 0.194 3 
0.473 0.283 0.194 3 
0.473 0.274 0.193 3 
0.472 0.263 0.193 3 
0.474 -0.037 0.188 3 
0.471 0.244 0.191 3 
0.471 0.234 0.191 3 
0.471 0.222 0.191 3 
0.47 -0.036 0.142 3 
0.471 0.213 0.19 3 
0.477 -0.298 0.023 3 
0.471 0.201 0.19 3 
0.473 0.194 0.191 3 
0.472 0.184 0.19 3 
0.471 0.172 0.189 3 
0.472 0.164 0.189 3 
0.483 -0.277 0.198 3 
0.479 -0.185 0.193 3 
0.48 -0.197 0.194 3 
0.48 -0.207 0.194 3 
0.474 -0.132 0.169 3 
0.481 -0.216 0.195 3 
0.481 -0.226 0.195 3 
0.48 -0.237 0.195 3 
0.479 -0.246 0.195 3 
0.481 -0.256 0.196 3 
0.466 0.084 0.023 3 
0.483 -0.268 0.197 3 
0.478 -0.175 0.192 3 
0.484 -0.285 0.198 3 
0.485 -0.292 0.199 3 
0.485 -0.296 0.199 3 
0.472 -0.176 0.052 3 
0.486 -0.307 0.2 3 
0.465 0.172 0.033 3 
0.487 -0.315 0.201 3 
0.488 -0.327 0.202 3 
0.49 -0.336 0.204 3 
0.489 -0.346 0.204 3 
0.472 0.348 0.194 3 
0.478 -0.106 0.19 3 
0.475 -0.043 0.189 3 
0.475 -0.046 0.189 3 
0.477 -0.057 0.189 3 
0.474 -0.205 0.154 3 
0.477 -0.066 0.189 3 
0.469 -0.126 0.014 3 
0.477 -0.077 0.19 3 
0.472 -0.045 0.154 3 
0.466 0.313 0.134 3 
0.477 -0.085 0.19 3 
0.478 -0.097 0.19 3 
0.476 -0.136 0.182 3 
0.478 -0.117 0.191 3 
0.48 -0.355 0.052 3 
0.478 -0.126 0.191 3 
0.471 -0.037 0.153 3 
0.479 -0.135 0.191 3 
0.48 -0.315 0.102 3 
0.479 -0.146 0.192 3 
0.478 -0.155 0.192 3 
0.468 0.343 0.184 3 
0.477 -0.166 0.191 3 
0.47 -0.066 0.074 3 
0.478 -0.247 0.174 3 
0.475 -0.173 0.171 3 
0.471 -0.097 0.052 3 
0.476 -0.185 0.171 3 
0.467 -0.085 0.012 3 
0.477 -0.195 0.172 3 
0.476 -0.206 0.172 3 
0.467 0.114 0.063 3 
0.478 -0.217 0.173 3 
0.474 -0.167 0.159 3 
0.475 -0.217 0.154 3 
0.477 -0.225 0.173 3 
0.479 -0.235 0.174 3 
0.468 0.294 0.172 3 
0.474 -0.206 0.083 3 
0.478 -0.256 0.174 3 
0.465 0.294 0.063 3 
0.469 0.119 0.164 3 
0.469 0.102 0.164 3 
0.47 0.086 0.164 3 
0.47 0.083 0.164 3 
0.47 0.072 0.164 3 
0.47 0.064 0.164 3 
0.465 0.222 0.124 3 
0.47 0.044 0.164 3 
0.474 -0.186 0.094 3 
0.474 -0.101 0.172 3 
0.474 -0.107 0.172 3 
0.474 -0.115 0.172 3 
0.475 -0.118 0.172 3 
0.475 -0.127 0.173 3 
0.475 -0.136 0.173 3 
0.474 -0.138 0.172 3 
0.474 -0.147 0.173 3 
0.474 -0.155 0.173 3 
0.475 -0.176 0.174 3 
0.482 -0.316 0.181 3 
0.47 0.033 0.164 3 
0.484 -0.325 0.182 3 
0.485 -0.329 0.183 3 
0.476 -0.297 0.064 3 
0.486 -0.338 0.183 3 
0.486 -0.345 0.184 3 
0.466 0.346 0.174 3 
0.467 0.344 0.174 3 
0.469 0.332 0.174 3 
0.469 0.321 0.173 3 
0.468 0.31 0.173 3 
0.467 0.303 0.172 3 
0.466 0.114 0.044 3 
0.466 0.283 0.082 3 
0.468 0.152 0.162 3 
0.469 0.144 0.162 3 
0.469 0.133 0.162 3 
0.471 -0.037 0.162 3 
0.472 -0.045 0.162 3 
0.472 -0.056 0.162 3 
0.472 -0.067 0.162 3 
0.472 -0.075 0.162 3 
0.471 -0.086 0.162 3 
0.472 -0.095 0.163 3 
0.469 -0.036 0.104 3 
0.473 -0.106 0.163 3 
0.464 0.28 0.021 3 
0.473 -0.115 0.163 3 
0.474 -0.126 0.164 3 
0.474 -0.135 0.164 3 
0.474 -0.146 0.164 3 
0.474 -0.155 0.164 3 
0.474 -0.276 0.084 3 
0.482 -0.315 0.172 3 
0.483 -0.327 0.173 3 
0.471 -0.167 0.022 3 
0.467 0.261 0.164 3 
0.48 -0.327 0.082 3 
0.47 0.023 0.164 3 
0.47 0.014 0.164 3 
0.469 0.003 0.164 3 
0.47 -0.007 0.164 3 
0.47 -0.015 0.164 3 
0.471 -0.026 0.164 3 
0.479 -0.266 0.172 3 
0.479 -0.276 0.172 3 
0.48 -0.287 0.173 3 
0.48 -0.297 0.173 3 
0.475 -0.096 0.172 3 
0.467 0.273 0.153 3 
0.467 0.252 0.164 3 
0.466 0.242 0.164 3 
0.467 0.224 0.163 3 
0.468 0.213 0.163 3 
0.467 0.204 0.163 3 
0.467 0.192 0.163 3 
0.468 0.184 0.163 3 
0.471 -0.116 0.124 3 
0.467 0.172 0.162 3 
0.467 0.163 0.162 3 
0.484 -0.315 0.188 3 
0.471 0.304 0.182 3 
0.471 0.294 0.182 3 
0.465 0.183 0.033 3 
0.478 -0.217 0.182 3 
0.472 -0.176 0.072 3 
0.465 0.054 0.004 3 
0.478 -0.226 0.182 3 
0.478 -0.235 0.182 3 
0.479 -0.245 0.183 3 
0.48 -0.258 0.184 3 
0.48 -0.265 0.184 3 
0.472 0.312 0.183 3 
0.468 0.202 0.174 3 
0.467 0.192 0.174 3 
0.464 0.271 0.032 3 
0.468 0.184 0.174 3 
0.469 0.173 0.174 3 
0.468 0.164 0.174 3 
0.47 0.153 0.174 3 
0.469 0.144 0.173 3 
0.47 0.133 0.173 3 
0.478 -0.246 0.153 3 
0.471 0.123 0.174 3 
0.467 0.143 0.134 3 
0.476 -0.145 0.182 3 
0.476 -0.156 0.182 3 
0.476 -0.355 0.014 3 
0.475 -0.165 0.182 3 
0.477 -0.177 0.183 3 
0.478 -0.187 0.184 3 
0.467 0.054 0.074 3 
0.478 -0.196 0.184 3 
0.468 0.009 0.144 3 
0.478 -0.205 0.184 3 
0.484 -0.298 0.19 3 
0.47 -0.097 0.143 3 
0.484 -0.311 0.191 3 
0.485 -0.316 0.191 3 
0.487 -0.325 0.192 3 
0.474 -0.197 0.052 3 
0.487 -0.336 0.193 3 
0.487 -0.347 0.194 3 
0.468 -0.007 0.044 3 
0.468 0.347 0.184 3 
0.468 -0.007 0.063 3 
0.471 0.331 0.184 3 
0.472 0.322 0.183 3 
0.483 -0.307 0.184 3 
0.463 0.214 0.013 3 
0.473 -0.076 0.174 3 
0.474 -0.087 0.174 3 
0.474 -0.144 0.175 3 
0.474 -0.152 0.176 3 
0.474 -0.155 0.176 3 
0.481 -0.275 0.182 3 
0.481 -0.285 0.182 3 
0.467 0.292 0.142 3 
0.482 -0.296 0.183 3 
0.467 0.003 0.004 3 
0.466 0.103 0.044 3 
0.469 0.272 0.174 3 
0.481 -0.308 0.174 3 
0.464 0.342 0.138 3 
0.475 -0.24 0.103 3 
0.468 0.262 0.173 3 
0.468 0.253 0.173 3 
0.468 0.244 0.173 3 
0.474 -0.257 0.069 3 
0.467 0.234 0.172 3 
0.468 0.223 0.172 3 
0.469 0.214 0.172 3 
0.47 0.053 0.164 3 
0.471 0.114 0.174 3 
0.471 0.103 0.173 3 
0.467 0.142 0.123 3 
0.471 0.094 0.173 3 
0.471 0.083 0.173 3 
0.471 0.072 0.173 3 
0.47 0.064 0.173 3 
0.47 0.053 0.173 3 
0.465 0.224 0.054 3 
0.47 0.044 0.173 3 
0.472 0.034 0.173 3 
0.484 -0.335 0.173 3 
0.472 0.023 0.173 3 
0.471 0.014 0.173 3 
0.471 0.003 0.173 3 
0.472 -0.007 0.173 3 
0.472 -0.015 0.173 3 
0.472 -0.026 0.173 3 
0.464 0.102 0.012 3 
0.474 -0.045 0.174 3 
0.474 -0.056 0.174 3 
0.467 0.003 0.103 3 
0.473 -0.065 0.174 3 
0.472 -0.187 0.044 3 
0.469 -0.026 0.044 3 
0.469 -0.045 0.044 3 
0.469 -0.055 0.044 3 
0.469 -0.077 0.044 3 
0.47 -0.086 0.044 3 
0.471 -0.097 0.044 3 
0.471 -0.105 0.044 3 
0.471 -0.116 0.044 3 
0.471 -0.135 0.044 3 
0.472 -0.147 0.044 3 
0.472 -0.156 0.044 3 
0.471 -0.175 0.044 3 
0.468 -0.015 0.044 3 
0.473 -0.197 0.044 3 
0.473 -0.217 0.044 3 
0.474 -0.227 0.044 3 
0.474 -0.236 0.044 3 
0.475 -0.24 0.044 3 
0.475 -0.246 0.044 3 
0.474 -0.251 0.044 3 
0.474 -0.267 0.044 3 
0.475 -0.283 0.044 3 
0.477 -0.297 0.044 3 
0.478 -0.305 0.043 3 
0.465 0.152 0.044 3 
0.465 0.284 0.043 3 
0.465 0.262 0.043 3 
0.465 0.253 0.043 3 
0.465 0.244 0.043 3 
0.465 0.232 0.043 3 
0.465 0.224 0.043 3 
0.466 0.213 0.043 3 
0.465 0.203 0.043 3 
0.465 0.192 0.044 3 
0.465 0.172 0.044 3 
0.465 0.163 0.044 3 
0.478 -0.325 0.043 3 
0.466 0.144 0.044 3 
0.466 0.133 0.044 3 
0.466 0.122 0.044 3 
0.467 0.092 0.044 3 
0.467 0.084 0.044 3 
0.467 0.073 0.044 3 
0.467 0.054 0.044 3 
0.467 0.033 0.044 3 
0.468 0.022 0.044 3 
0.468 0.014 0.044 3 
0.468 0.003 0.044 3 
0.465 0.122 0.033 3 
0.465 0.253 0.032 3 
0.465 0.244 0.032 3 
0.465 0.232 0.032 3 
0.465 0.224 0.032 3 
0.465 0.212 0.032 3 
0.466 0.204 0.032 3 
0.466 0.192 0.032 3 
0.465 0.163 0.033 3 
0.466 0.153 0.033 3 
0.466 0.144 0.033 3 
0.466 0.133 0.033 3 
0.464 0.256 0.032 3 
0.466 0.114 0.033 3 
0.467 0.103 0.033 3 
0.466 0.094 0.033 3 
0.467 0.073 0.033 3 
0.467 0.062 0.033 3 
0.467 0.054 0.033 3 
0.467 0.043 0.033 3 
0.467 0.033 0.033 3 
0.469 -0.085 0.023 3 
0.467 0.022 0.033 3 
0.467 0.014 0.033 3 
0.464 0.313 0.034 3 
0.479 -0.347 0.043 3 
0.479 -0.358 0.043 3 
0.464 0.274 0.037 3 
0.464 0.262 0.038 3 
0.468 -0.055 0.033 3 
0.464 0.223 0.016 3 
0.464 0.246 0.038 3 
0.464 0.24 0.038 3 
0.464 0.34 0.034 3 
0.464 0.333 0.034 3 
0.464 0.323 0.034 3 
0.469 -0.066 0.044 3 
0.465 0.306 0.034 3 
0.465 0.303 0.034 3 
0.465 0.294 0.034 3 
0.465 0.284 0.034 3 
0.479 -0.329 0.034 3 
0.479 -0.336 0.034 3 
0.48 -0.345 0.034 3 
0.479 -0.358 0.034 3 
0.464 0.28 0.032 3 
0.465 0.269 0.032 3 
0.465 0.262 0.032 3 
0.474 -0.267 0.055 3 
0.465 0.304 0.054 3 
0.465 0.294 0.054 3 
0.466 0.282 0.054 3 
0.466 0.272 0.054 3 
0.465 0.262 0.054 3 
0.465 0.253 0.054 3 
0.465 0.244 0.054 3 
0.465 0.232 0.054 3 
0.466 0.213 0.054 3 
0.466 0.204 0.054 3 
0.466 0.192 0.054 3 
0.466 0.184 0.054 3 
0.465 0.314 0.054 3 
0.474 -0.276 0.055 3 
0.464 0.297 0.051 3 
0.464 0.294 0.051 3 
0.465 0.163 0.052 3 
0.466 0.153 0.052 3 
0.466 0.144 0.052 3 
0.466 0.133 0.052 3 
0.466 0.103 0.052 3 
0.467 0.092 0.052 3 
0.468 0.084 0.052 3 
0.468 0.073 0.052 3 
0.475 -0.267 0.064 3 
0.472 -0.176 0.063 3 
0.464 0.211 0.016 3 
0.473 -0.188 0.064 3 
0.474 -0.206 0.064 3 
0.474 -0.227 0.064 3 
0.474 -0.236 0.064 3 
0.475 -0.24 0.064 3 
0.475 -0.246 0.064 3 
0.465 0.272 0.043 3 
0.475 -0.255 0.064 3 
0.474 -0.257 0.064 3 
0.468 0.062 0.052 3 
0.475 -0.277 0.064 3 
0.475 -0.286 0.064 3 
0.477 -0.305 0.064 3 
0.479 -0.316 0.064 3 
0.481 -0.338 0.064 3 
0.48 -0.355 0.064 3 
0.466 0.342 0.054 3 
0.463 0.335 0.054 3 
0.463 0.332 0.054 3 
0.466 0.332 0.054 3 
0.465 0.324 0.054 3 
0.479 -0.326 0.052 3 
0.474 -0.236 0.052 3 
0.475 -0.24 0.052 3 
0.476 -0.247 0.052 3 
0.475 -0.255 0.052 3 
0.474 -0.267 0.052 3 
0.474 -0.276 0.052 3 
0.475 -0.28 0.052 3 
0.475 -0.287 0.052 3 
0.477 -0.297 0.052 3 
0.478 -0.308 0.052 3 
0.478 -0.315 0.052 3 
0.473 -0.217 0.052 3 
0.48 -0.337 0.052 3 
0.464 0.306 0.048 3 
0.475 -0.234 0.047 3 
0.464 0.34 0.042 3 
0.464 0.333 0.042 3 
0.465 0.331 0.042 3 
0.465 0.321 0.042 3 
0.465 0.331 0.034 3 
0.465 0.314 0.043 3 
0.464 0.306 0.043 3 
0.464 0.303 0.043 3 
0.469 -0.066 0.052 3 
0.468 0.054 0.052 3 
0.468 0.033 0.052 3 
0.468 0.022 0.052 3 
0.468 0.014 0.052 3 
0.469 -0.007 0.052 3 
0.468 -0.015 0.052 3 
0.468 -0.025 0.052 3 
0.463 0.283 0.012 3 
0.468 -0.036 0.052 3 
0.469 -0.047 0.052 3 
0.469 -0.055 0.052 3 
0.467 0.003 0.034 3 
0.47 -0.077 0.052 3 
0.47 -0.086 0.052 3 
0.471 -0.105 0.052 3 
0.471 -0.116 0.052 3 
0.47 -0.127 0.052 3 
0.47 -0.135 0.052 3 
0.472 -0.147 0.052 3 
0.472 -0.156 0.052 3 
0.471 -0.166 0.052 3 
0.472 -0.187 0.052 3 
0.474 -0.206 0.052 3 
0.465 0.132 0.014 3 
0.463 0.273 0.012 3 
0.463 0.264 0.013 3 
0.463 0.252 0.013 3 
0.463 0.243 0.013 3 
0.463 0.234 0.013 3 
0.463 0.222 0.013 3 
0.464 0.203 0.013 3 
0.463 0.193 0.014 3 
0.463 0.182 0.014 3 
0.464 0.174 0.014 3 
0.464 0.163 0.014 3 
0.464 0.152 0.014 3 
0.464 0.293 0.012 3 
0.464 0.129 0.014 3 
0.465 0.113 0.014 3 
0.465 0.102 0.014 3 
0.464 0.099 0.015 3 
0.464 0.08 0.015 3 
0.464 0.067 0.015 3 
0.464 0.043 0.015 3 
0.469 -0.11 0.014 3 
0.469 -0.115 0.014 3 
0.47 -0.146 0.014 3 
0.47 -0.166 0.014 3 
0.464 0.197 0.016 3 
0.47 -0.135 0.022 3 
0.471 -0.147 0.022 3 
0.471 -0.155 0.022 3 
0.471 -0.175 0.022 3 
0.471 -0.187 0.022 3 
0.471 -0.195 0.022 3 
0.464 0.183 0.019 3 
0.474 -0.269 0.018 3 
0.461 0.33 0.014 3 
0.464 0.322 0.014 3 
0.463 0.314 0.014 3 
0.47 -0.178 0.014 3 
0.464 0.174 0.016 3 
0.464 0.163 0.017 3 
0.464 0.152 0.017 3 
0.464 0.143 0.017 3 
0.464 0.059 0.018 3 
0.477 -0.301 0.014 3 
0.477 -0.308 0.014 3 
0.478 -0.325 0.014 3 
0.478 -0.336 0.014 3 
0.479 -0.347 0.013 3 
0.463 0.302 0.012 3 
0.466 0.043 0.004 3 
0.465 -0.015 0.012 3 
0.466 -0.025 0.012 3 
0.466 -0.036 0.012 3 
0.466 -0.047 0.012 3 
0.466 -0.055 0.012 3 
0.467 -0.066 0.012 3 
0.467 -0.096 0.012 3 
0.465 0.073 0.009 3 
0.465 0.048 0.009 3 
0.464 0.014 0.01 3 
0.466 0.133 0.003 3 
0.465 -0.007 0.012 3 
0.467 0.033 0.004 3 
0.467 0.022 0.004 3 
0.466 0.014 0.004 3 
0.467 -0.007 0.004 3 
0.467 -0.015 0.004 3 
0.468 -0.026 0.004 3 
0.469 -0.045 0.004 3 
0.469 -0.055 0.004 3 
0.47 -0.097 0.003 3 
0.47 -0.105 0.003 3 
0.47 -0.116 0.003 3 
0.464 0.094 0.012 3 
0.47 -0.186 0.014 3 
0.471 -0.196 0.014 3 
0.471 -0.216 0.013 3 
0.472 -0.226 0.013 3 
0.473 -0.236 0.013 3 
0.473 -0.245 0.013 3 
0.474 -0.257 0.013 3 
0.474 -0.276 0.012 3 
0.475 -0.28 0.012 3 
0.475 -0.286 0.012 3 
0.465 0.169 0.011 3 
0.47 -0.127 0.022 3 
0.465 0.091 0.012 3 
0.465 0.083 0.012 3 
0.464 0.08 0.012 3 
0.464 0.072 0.012 3 
0.464 0.054 0.012 3 
0.464 0.043 0.012 3 
0.465 0.035 0.012 3 
0.465 0.024 0.012 3 
0.464 0.022 0.012 3 
0.464 0.003 0.012 3 
0.465 -0.004 0.012 3 
0.463 0.339 0.022 3 
0.474 -0.257 0.032 3 
0.474 -0.267 0.032 3 
0.476 -0.274 0.032 3 
0.475 -0.276 0.032 3 
0.476 -0.287 0.032 3 
0.477 -0.297 0.032 3 
0.479 -0.306 0.032 3 
0.464 0.25 0.029 3 
0.464 0.244 0.029 3 
0.464 0.293 0.026 3 
0.464 0.232 0.027 3 
0.465 0.062 0.004 3 
0.474 -0.245 0.032 3 
0.463 0.332 0.022 3 
0.465 0.331 0.022 3 
0.464 0.323 0.022 3 
0.474 -0.356 0.008 3 
0.464 0.312 0.023 3 
0.464 0.302 0.023 3 
0.465 0.3 0.023 3 
0.465 0.284 0.023 3 
0.464 0.262 0.024 3 
0.464 0.247 0.024 3 
0.464 0.244 0.024 3 
0.472 -0.136 0.033 3 
0.468 -0.007 0.033 3 
0.468 -0.015 0.033 3 
0.468 -0.026 0.033 3 
0.468 -0.036 0.033 3 
0.468 -0.047 0.033 3 
0.469 -0.077 0.033 3 
0.471 -0.097 0.033 3 
0.471 -0.105 0.033 3 
0.471 -0.116 0.033 3 
0.464 0.124 0.014 3 
0.471 -0.127 0.033 3 
0.465 0.241 0.024 3 
0.472 -0.147 0.033 3 
0.472 -0.156 0.033 3 
0.472 -0.167 0.033 3 
0.472 -0.176 0.033 3 
0.472 -0.187 0.033 3 
0.472 -0.196 0.033 3 
0.472 -0.205 0.033 3 
0.474 -0.215 0.033 3 
0.474 -0.227 0.033 3 
0.474 -0.236 0.033 3 
0.475 -0.24 0.032 3 
0.467 0.003 0.023 3 
0.465 0.133 0.022 3 
0.466 0.122 0.022 3 
0.466 0.114 0.022 3 
0.466 0.103 0.022 3 
0.466 0.094 0.022 3 
0.466 0.073 0.023 3 
0.465 0.064 0.023 3 
0.466 0.054 0.023 3 
0.466 0.032 0.023 3 
0.466 0.024 0.023 3 
0.467 0.014 0.023 3 
0.465 0.144 0.022 3 
0.467 -0.007 0.023 3 
0.467 -0.015 0.023 3 
0.467 -0.025 0.023 3 
0.468 -0.036 0.023 3 
0.468 -0.047 0.023 3 
0.468 -0.055 0.023 3 
0.467 -0.066 0.023 3 
0.469 -0.077 0.023 3 
0.47 -0.096 0.023 3 
0.47 -0.105 0.022 3 
0.47 -0.116 0.022 3 
0.475 -0.267 0.024 3 
0.465 0.232 0.024 3 
0.465 0.224 0.024 3 
0.465 0.212 0.024 3 
0.465 0.203 0.024 3 
0.465 0.192 0.024 3 
0.465 0.183 0.024 3 
0.472 -0.208 0.024 3 
0.473 -0.217 0.024 3 
0.474 -0.227 0.024 3 
0.474 -0.255 0.024 3 
0.475 -0.264 0.024 3 
0.473 -0.168 0.063 3 
0.476 -0.277 0.024 3 
0.476 -0.287 0.023 3 
0.478 -0.305 0.023 3 
0.477 -0.317 0.023 3 
0.478 -0.325 0.023 3 
0.479 -0.337 0.022 3 
0.479 -0.358 0.022 3 
0.464 0.232 0.021 3 
0.465 0.172 0.022 3 
0.465 0.163 0.022 3 
0.465 0.152 0.022 3 
0.466 0.283 0.094 3 
0.481 -0.326 0.103 3 
0.481 -0.336 0.103 3 
0.48 -0.346 0.103 3 
0.48 -0.355 0.103 3 
0.467 0.062 0.044 3 
0.463 0.339 0.094 3 
0.464 0.333 0.094 3 
0.466 0.332 0.094 3 
0.466 0.322 0.094 3 
0.466 0.312 0.094 3 
0.466 0.302 0.094 3 
0.467 0.294 0.094 3 
0.48 -0.308 0.102 3 
0.466 0.043 0.023 3 
0.465 0.264 0.093 3 
0.467 0.103 0.074 3 
0.465 0.254 0.093 3 
0.468 0.044 0.063 3 
0.466 0.242 0.093 3 
0.466 0.233 0.093 3 
0.466 0.224 0.093 3 
0.466 0.213 0.093 3 
0.466 0.204 0.093 3 
0.467 0.193 0.093 3 
0.475 -0.213 0.103 3 
0.466 0.274 0.102 3 
0.471 -0.125 0.102 3 
0.471 -0.136 0.102 3 
0.474 -0.236 0.024 3 
0.472 -0.148 0.102 3 
0.473 -0.156 0.102 3 
0.473 -0.176 0.102 3 
0.474 -0.186 0.103 3 
0.475 -0.195 0.103 3 
0.474 -0.197 0.103 3 
0.474 -0.206 0.103 3 
0.466 0.184 0.093 3 
0.475 -0.216 0.103 3 
0.475 -0.225 0.103 3 
0.48 -0.337 0.043 3 
0.474 -0.236 0.103 3 
0.475 -0.246 0.104 3 
0.475 -0.255 0.104 3 
0.476 -0.275 0.104 3 
0.477 -0.289 0.104 3 
0.465 0.338 0.1 3 
0.474 -0.257 0.101 3 
0.478 -0.296 0.102 3 
0.474 -0.267 0.095 3 
0.47 -0.086 0.093 3 
0.471 -0.097 0.093 3 
0.471 -0.105 0.093 3 
0.471 -0.116 0.093 3 
0.47 -0.127 0.093 3 
0.464 0.188 0.022 3 
0.471 -0.136 0.094 3 
0.473 -0.156 0.094 3 
0.472 -0.176 0.094 3 
0.474 -0.197 0.094 3 
0.473 -0.205 0.094 3 
0.47 -0.075 0.093 3 
0.474 -0.215 0.092 3 
0.475 -0.219 0.092 3 
0.475 -0.225 0.092 3 
0.474 -0.242 0.092 3 
0.475 -0.246 0.092 3 
0.474 -0.197 0.064 3 
0.477 -0.288 0.044 3 
0.475 -0.255 0.092 3 
0.474 -0.267 0.092 3 
0.475 -0.271 0.092 3 
0.47 -0.127 0.044 3 
0.466 0.062 0.092 3 
0.466 0.173 0.093 3 
0.466 0.164 0.093 3 
0.466 0.153 0.093 3 
0.466 0.142 0.093 3 
0.467 0.134 0.093 3 
0.467 0.123 0.093 3 
0.467 0.114 0.093 3 
0.467 0.103 0.093 3 
0.467 0.092 0.093 3 
0.467 0.084 0.093 3 
0.467 0.073 0.093 3 
0.466 0.283 0.102 3 
0.467 0.054 0.093 3 
0.468 0.044 0.093 3 
0.467 0.033 0.092 3 
0.467 0.022 0.092 3 
0.468 -0.007 0.093 3 
0.468 -0.015 0.093 3 
0.468 -0.025 0.093 3 
0.469 -0.036 0.093 3 
0.469 -0.047 0.093 3 
0.47 -0.055 0.093 3 
0.47 -0.066 0.093 3 
0.475 -0.255 0.112 3 
0.472 -0.156 0.113 3 
0.473 -0.165 0.113 3 
0.473 -0.176 0.114 3 
0.474 -0.197 0.114 3 
0.475 -0.204 0.114 3 
0.474 -0.206 0.114 3 
0.475 -0.21 0.114 3 
0.474 -0.215 0.114 3 
0.474 -0.227 0.114 3 
0.475 -0.216 0.112 3 
0.475 -0.225 0.112 3 
0.476 -0.238 0.112 3 
0.472 -0.145 0.113 3 
0.465 0.294 0.023 3 
0.476 -0.266 0.113 3 
0.476 -0.275 0.113 3 
0.477 -0.286 0.113 3 
0.478 -0.296 0.114 3 
0.48 -0.305 0.114 3 
0.48 -0.315 0.114 3 
0.481 -0.326 0.112 3 
0.474 -0.245 0.081 3 
0.481 -0.336 0.112 3 
0.481 -0.347 0.112 3 
0.47 -0.047 0.112 3 
0.465 0.294 0.043 3 
0.466 0.243 0.113 3 
0.465 0.234 0.113 3 
0.466 0.222 0.112 3 
0.464 0.323 0.042 3 
0.466 0.213 0.112 3 
0.466 0.193 0.112 3 
0.466 0.184 0.112 3 
0.466 0.173 0.112 3 
0.48 -0.327 0.064 3 
0.467 0.142 0.112 3 
0.474 -0.245 0.024 3 
0.47 -0.055 0.112 3 
0.47 -0.066 0.112 3 
0.47 -0.075 0.112 3 
0.47 -0.086 0.112 3 
0.469 -0.066 0.033 3 
0.471 -0.097 0.113 3 
0.472 -0.106 0.113 3 
0.471 -0.116 0.113 3 
0.471 -0.125 0.113 3 
0.471 -0.136 0.113 3 
0.473 -0.185 0.114 3 
0.471 -0.086 0.104 3 
0.471 -0.097 0.082 3 
0.466 0.054 0.103 3 
0.468 0.033 0.103 3 
0.468 0.014 0.103 3 
0.467 -0.007 0.103 3 
0.467 -0.015 0.103 3 
0.468 -0.025 0.103 3 
0.47 -0.047 0.104 3 
0.47 -0.055 0.104 3 
0.47 -0.066 0.104 3 
0.47 -0.075 0.104 3 
0.467 0.063 0.103 3 
0.464 0.232 0.041 3 
0.471 -0.097 0.104 3 
0.471 -0.116 0.104 3 
0.466 0.272 0.063 3 
0.464 0.34 0.103 3 
0.464 0.333 0.103 3 
0.466 0.332 0.103 3 
0.466 0.322 0.103 3 
0.467 0.313 0.103 3 
0.467 0.303 0.103 3 
0.466 0.293 0.102 3 
0.48 -0.345 0.022 3 
0.48 -0.357 0.112 3 
0.465 0.342 0.106 3 
0.466 0.246 0.104 3 
0.465 0.242 0.104 3 
0.465 0.233 0.104 3 
0.465 0.224 0.104 3 
0.466 0.213 0.104 3 
0.466 0.204 0.104 3 
0.467 0.193 0.104 3 
0.466 0.181 0.104 3 
0.466 0.173 0.104 3 
0.476 -0.278 0.093 3 
0.466 0.164 0.104 3 
0.466 0.153 0.104 3 
0.467 0.142 0.104 3 
0.467 0.134 0.104 3 
0.467 0.123 0.104 3 
0.467 0.114 0.104 3 
0.467 0.043 0.044 3 
0.467 0.103 0.103 3 
0.466 0.092 0.103 3 
0.466 0.084 0.103 3 
0.467 0.073 0.103 3 
0.467 0.123 0.052 3 
0.47 -0.116 0.074 3 
0.471 -0.127 0.074 3 
0.471 -0.135 0.074 3 
0.472 -0.156 0.074 3 
0.472 -0.167 0.074 3 
0.465 0.341 0.071 3 
0.474 -0.236 0.069 3 
0.473 -0.188 0.072 3 
0.474 -0.197 0.072 3 
0.474 -0.206 0.072 3 
0.467 0.084 0.033 3 
0.474 -0.215 0.072 3 
0.47 -0.105 0.074 3 
0.475 -0.228 0.072 3 
0.475 -0.237 0.072 3 
0.47 -0.085 0.033 3 
0.474 -0.245 0.072 3 
0.475 -0.249 0.072 3 
0.475 -0.255 0.072 3 
0.475 -0.267 0.072 3 
0.475 -0.277 0.072 3 
0.475 -0.286 0.072 3 
0.477 -0.298 0.073 3 
0.477 -0.305 0.073 3 
0.467 0.073 0.074 3 
0.466 0.192 0.074 3 
0.466 0.184 0.074 3 
0.466 0.172 0.074 3 
0.466 0.164 0.074 3 
0.467 0.153 0.074 3 
0.467 0.142 0.074 3 
0.467 0.134 0.074 3 
0.467 0.123 0.074 3 
0.467 0.114 0.074 3 
0.467 0.092 0.074 3 
0.467 0.084 0.074 3 
0.479 -0.316 0.073 3 
0.467 0.062 0.074 3 
0.467 0.033 0.074 3 
0.467 0.022 0.074 3 
0.467 0.014 0.074 3 
0.468 0.003 0.074 3 
0.468 -0.007 0.074 3 
0.468 -0.015 0.074 3 
0.468 -0.025 0.074 3 
0.468 -0.036 0.074 3 
0.47 -0.055 0.074 3 
0.47 -0.086 0.074 3 
0.469 -0.047 0.063 3 
0.467 0.134 0.063 3 
0.467 0.103 0.063 3 
0.467 0.092 0.063 3 
0.468 0.073 0.063 3 
0.467 0.054 0.063 3 
0.467 0.022 0.063 3 
0.467 0.014 0.063 3 
0.467 0.003 0.063 3 
0.467 -0.015 0.063 3 
0.468 -0.025 0.063 3 
0.468 -0.036 0.063 3 
0.467 0.142 0.063 3 
0.47 -0.066 0.063 3 
0.47 -0.077 0.063 3 
0.47 -0.086 0.063 3 
0.471 -0.097 0.063 3 
0.47 -0.105 0.063 3 
0.471 -0.116 0.063 3 
0.481 -0.345 0.052 3 
0.471 -0.127 0.063 3 
0.471 -0.135 0.063 3 
0.473 -0.148 0.063 3 
0.473 -0.156 0.063 3 
0.465 0.282 0.063 3 
0.48 -0.327 0.073 3 
0.48 -0.337 0.073 3 
0.482 -0.346 0.073 3 
0.48 -0.355 0.073 3 
0.474 -0.227 0.069 3 
0.465 0.341 0.062 3 
0.466 0.332 0.062 3 
0.465 0.324 0.062 3 
0.466 0.312 0.063 3 
0.465 0.301 0.063 3 
0.464 0.064 0.012 3 
0.466 0.204 0.074 3 
0.465 0.253 0.063 3 
0.468 0.003 0.052 3 
0.465 0.244 0.063 3 
0.465 0.253 0.024 3 
0.465 0.062 0.007 3 
0.466 0.224 0.063 3 
0.466 0.213 0.063 3 
0.466 0.204 0.063 3 
0.466 0.184 0.063 3 
0.465 0.172 0.063 3 
0.466 0.164 0.063 3 
0.465 0.263 0.082 3 
0.467 0.033 0.084 3 
0.467 0.022 0.084 3 
0.467 0.014 0.084 3 
0.464 0.34 0.083 3 
0.464 0.333 0.083 3 
0.466 0.332 0.083 3 
0.465 0.321 0.082 3 
0.465 0.314 0.082 3 
0.465 0.295 0.082 3 
0.465 0.291 0.082 3 
0.465 0.273 0.082 3 
0.468 0.044 0.084 3 
0.466 0.242 0.082 3 
0.467 0.062 0.063 3 
0.466 0.233 0.082 3 
0.466 0.224 0.082 3 
0.464 0.274 0.023 3 
0.466 0.213 0.082 3 
0.466 0.192 0.082 3 
0.467 0.184 0.082 3 
0.466 0.172 0.082 3 
0.473 -0.188 0.083 3 
0.467 0.123 0.082 3 
0.466 0.144 0.084 3 
0.464 0.29 0.02 3 
0.477 -0.295 0.093 3 
0.478 -0.306 0.093 3 
0.479 -0.317 0.093 3 
0.48 -0.325 0.094 3 
0.48 -0.335 0.094 3 
0.481 -0.346 0.094 3 
0.48 -0.355 0.094 3 
0.464 0.303 0.085 3 
0.464 0.259 0.085 3 
0.466 0.153 0.084 3 
0.467 0.003 0.082 3 
0.466 0.133 0.084 3 
0.466 0.111 0.084 3 
0.466 0.103 0.084 3 
0.465 0.135 0.011 3 
0.467 0.092 0.084 3 
0.467 0.084 0.084 3 
0.461 0.337 0.014 3 
0.466 0.073 0.084 3 
0.469 -0.047 0.074 3 
0.467 0.062 0.084 3 
0.468 0.054 0.084 3 
0.464 0.333 0.074 3 
0.464 0.143 0.014 3 
0.475 -0.28 0.084 3 
0.476 -0.287 0.084 3 
0.477 -0.295 0.084 3 
0.478 -0.306 0.084 3 
0.465 0.291 0.074 3 
0.478 -0.316 0.084 3 
0.48 -0.337 0.082 3 
0.481 -0.345 0.082 3 
0.48 -0.355 0.082 3 
0.464 0.34 0.074 3 
0.474 -0.273 0.084 3 
0.465 0.331 0.074 3 
0.466 0.322 0.074 3 
0.465 0.304 0.074 3 
0.465 0.282 0.074 3 
0.465 0.273 0.074 3 
0.466 0.263 0.074 3 
0.466 0.242 0.074 3 
0.466 0.233 0.074 3 
0.466 0.224 0.074 3 
0.466 0.213 0.074 3 
0.465 0.03 0.012 3 
0.473 -0.156 0.083 3 
0.468 -0.025 0.082 3 
0.468 -0.036 0.082 3 
0.469 -0.047 0.082 3 
0.469 -0.055 0.082 3 
0.47 -0.066 0.082 3 
0.47 -0.077 0.082 3 
0.47 -0.086 0.082 3 
0.471 -0.105 0.082 3 
0.47 -0.116 0.082 3 
0.47 -0.127 0.082 3 
0.473 -0.148 0.083 3 
0.467 0.253 0.113 3 
0.472 -0.167 0.083 3 
0.465 0.014 0.012 3 
0.472 -0.176 0.083 3 
0.473 -0.197 0.083 3 
0.474 -0.215 0.083 3 
0.474 -0.233 0.083 3 
0.474 -0.236 0.083 3 
0.475 -0.24 0.084 3 
0.47 -0.097 0.074 3 
0.475 -0.255 0.084 3 
0.475 -0.268 0.084 3 
0.301 0.001 0.021 7 
0.302 -0.005 0.021 7 
0.301 -0.015 0.021 7 
0.319 -0.005 0.018 7 
0.334 -0.014 0.017 7 
0.334 -0.016 0.017 7 
