# .PCD v0.7 - Point Cloud Data file
FIELDS x y z intensity
SIZE 4 4 4 4
TYPE F F F F
COUNT 1 1 1 1
WIDTH 1185
HEIGHT 1
VIEWPOINT 0 0 0 1 0 0 0
POINTS 1185
DATA ascii
0.361 0.074 -0.002 0 
0.36 0.077 -0.001 0 
0.595 -0.025 -0.006 0 
0.597 -0.025 0 0 
0.445 -0.004 -0.004 0 
0.445 -0.011 -0.001 0 
0.438 -0.006 0.004 0 
0.438 0.003 0.004 0 
0.374 -0.176 -0.023 1 
0.361 -0.118 -0.016 1 
0.36 -0.105 -0.015 1 
0.354 -0.086 -0.013 1 
0.353 -0.075 -0.012 1 
0.354 -0.057 -0.012 1 
0.353 -0.046 -0.012 1 
0.354 -0.026 -0.013 1 
0.354 -0.016 -0.013 1 
0.354 -0.013 -0.013 1 
0.354 0.013 -0.013 1 
0.352 0.023 -0.012 1 
0.354 0.034 -0.013 1 
0.351 0.043 -0.012 1 
0.353 0.054 -0.013 1 
0.35 0.073 -0.012 1 
0.351 0.084 -0.012 1 
0.349 0.093 -0.012 1 
0.343 0.124 -0.011 1 
0.343 0.128 -0.011 1 
0.343 0.162 -0.012 1 
0.344 0.171 -0.013 1 
0.371 -0.136 -0.018 1 
0.373 -0.126 -0.019 1 
0.364 -0.096 -0.015 1 
0.364 -0.094 -0.015 1 
0.359 -0.086 -0.013 1 
0.361 -0.075 -0.013 1 
0.362 -0.066 -0.014 1 
0.363 0.004 -0.014 1 
0.36 0.024 -0.013 1 
0.361 0.033 -0.014 1 
0.353 0.104 -0.012 1 
0.354 0.112 -0.012 1 
0.35 0.124 -0.011 1 
0.351 0.134 -0.012 1 
0.356 0.152 -0.015 1 
0.348 0.164 -0.013 1 
0.358 0.213 -0.019 1 
0.357 0.218 -0.019 1 
0.417 -0.285 -0.038 1 
0.421 -0.28 -0.039 1 
0.38 -0.136 -0.02 1 
0.37 -0.095 -0.015 1 
0.365 -0.085 -0.013 1 
0.37 -0.074 -0.015 1 
0.363 -0.056 -0.012 1 
0.363 -0.045 -0.012 1 
0.364 -0.042 -0.012 1 
0.364 -0.015 -0.013 1 
0.364 -0.013 -0.013 1 
0.364 0.043 -0.013 1 
0.364 0.054 -0.013 1 
0.364 0.064 -0.013 1 
0.364 0.072 -0.013 1 
0.363 0.084 -0.013 1 
0.362 0.093 -0.013 1 
0.362 0.104 -0.013 1 
0.357 0.112 -0.012 1 
0.358 0.124 -0.012 1 
0.358 0.131 -0.013 1 
0.361 0.143 -0.014 1 
0.36 0.153 -0.014 1 
0.356 0.164 -0.013 1 
0.354 0.169 -0.013 1 
0.355 0.18 -0.014 1 
0.363 0.2 -0.018 1 
0.429 -0.286 -0.039 1 
0.42 -0.264 -0.035 1 
0.394 -0.181 -0.024 1 
0.383 -0.126 -0.018 1 
0.379 -0.115 -0.017 1 
0.382 -0.107 -0.018 1 
0.374 -0.085 -0.015 1 
0.374 -0.083 -0.015 1 
0.374 -0.076 -0.014 1 
0.368 -0.046 -0.012 1 
0.371 -0.025 -0.013 1 
0.373 -0.005 -0.014 1 
0.373 0.004 -0.014 1 
0.372 0.013 -0.014 1 
0.373 0.034 -0.014 1 
0.371 0.054 -0.014 1 
0.369 0.064 -0.013 1 
0.371 0.074 -0.014 1 
0.371 0.103 -0.015 1 
0.369 0.131 -0.015 1 
0.366 0.162 -0.015 1 
0.362 0.174 -0.014 1 
0.363 0.179 -0.015 1 
0.366 0.212 -0.017 1 
0.435 -0.292 -0.039 1 
0.419 -0.241 -0.031 1 
0.394 -0.145 -0.02 1 
0.392 -0.135 -0.02 1 
0.391 -0.126 -0.019 1 
0.392 -0.116 -0.019 1 
0.381 -0.096 -0.015 1 
0.383 -0.077 -0.016 1 
0.38 -0.074 -0.015 1 
0.373 -0.066 -0.012 1 
0.374 -0.061 -0.012 1 
0.381 -0.055 -0.015 1 
0.381 -0.051 -0.015 1 
0.374 -0.038 -0.012 1 
0.376 -0.025 -0.013 1 
0.374 -0.018 -0.012 1 
0.379 0.031 -0.014 1 
0.38 0.037 -0.015 1 
0.378 0.044 -0.014 1 
0.372 0.084 -0.013 1 
0.373 0.094 -0.013 1 
0.374 0.096 -0.014 1 
0.378 0.114 -0.015 1 
0.373 0.123 -0.014 1 
0.373 0.133 -0.014 1 
0.374 0.138 -0.015 1 
0.372 0.144 -0.014 1 
0.375 0.153 -0.015 1 
0.376 0.171 -0.017 1 
0.372 0.174 -0.015 1 
0.371 0.184 -0.016 1 
0.373 0.188 -0.016 1 
0.375 0.214 -0.018 1 
0.372 0.223 -0.018 1 
0.373 0.229 -0.018 1 
0.434 -0.306 -0.037 1 
0.44 -0.297 -0.038 1 
0.419 -0.212 -0.028 1 
0.41 -0.181 -0.024 1 
0.403 -0.155 -0.021 1 
0.401 -0.136 -0.02 1 
0.391 -0.105 -0.017 1 
0.391 -0.086 -0.016 1 
0.381 -0.065 -0.013 1 
0.383 -0.059 -0.013 1 
0.387 -0.056 -0.015 1 
0.383 -0.046 -0.013 1 
0.382 -0.04 -0.013 1 
0.382 -0.016 -0.013 1 
0.383 -0.005 -0.014 1 
0.382 0.004 -0.013 1 
0.354 0.141 -0.013 1 
0.384 0.02 -0.014 1 
0.382 0.064 -0.014 1 
0.383 0.073 -0.014 1 
0.376 0.084 -0.012 1 
0.38 0.097 -0.014 1 
0.384 0.103 -0.015 1 
0.382 0.122 -0.015 1 
0.381 0.124 -0.014 1 
0.38 0.131 -0.014 1 
0.381 0.134 -0.015 1 
0.377 0.152 -0.014 1 
0.384 0.164 -0.017 1 
0.377 0.183 -0.015 1 
0.379 0.191 -0.016 1 
0.382 0.2 -0.018 1 
0.384 0.223 -0.019 1 
0.373 0.149 -0.015 1 
0.384 0.226 -0.019 1 
0.383 0.239 -0.02 1 
0.383 0.247 -0.02 1 
0.438 -0.317 -0.036 1 
0.442 -0.309 -0.036 1 
0.444 -0.268 -0.035 1 
0.441 -0.256 -0.034 1 
0.421 -0.197 -0.026 1 
0.413 -0.157 -0.022 1 
0.409 -0.145 -0.021 1 
0.407 -0.135 -0.02 1 
0.402 -0.125 -0.018 1 
0.401 -0.107 -0.018 1 
0.403 -0.095 -0.018 1 
0.398 -0.076 -0.016 1 
0.394 -0.073 -0.015 1 
0.393 -0.046 -0.015 1 
0.394 -0.04 -0.015 1 
0.393 -0.038 -0.014 1 
0.394 -0.026 -0.015 1 
0.393 -0.007 -0.015 1 
0.391 0.022 -0.014 1 
0.392 0.024 -0.015 1 
0.392 0.026 -0.015 1 
0.391 0.034 -0.014 1 
0.391 0.038 -0.014 1 
0.392 0.043 -0.015 1 
0.392 0.053 -0.015 1 
0.394 0.058 -0.015 1 
0.393 0.074 -0.015 1 
0.391 0.079 -0.015 1 
0.39 0.114 -0.015 1 
0.387 0.134 -0.015 1 
0.387 0.153 -0.015 1 
0.392 0.163 -0.017 1 
0.391 0.174 -0.017 1 
0.385 0.183 -0.016 1 
0.387 0.193 -0.017 1 
0.391 0.204 -0.018 1 
0.393 0.243 -0.021 1 
0.39 0.247 -0.02 1 
0.449 -0.327 -0.037 1 
0.453 -0.311 -0.037 1 
0.464 -0.307 -0.04 1 
0.469 -0.302 -0.041 1 
0.434 -0.217 -0.028 1 
0.428 -0.205 -0.026 1 
0.431 -0.197 -0.027 1 
0.427 -0.186 -0.025 1 
0.428 -0.176 -0.025 1 
0.424 -0.166 -0.024 1 
0.42 -0.147 -0.022 1 
0.411 -0.125 -0.019 1 
0.414 -0.122 -0.02 1 
0.411 -0.105 -0.019 1 
0.414 -0.102 -0.019 1 
0.411 -0.085 -0.018 1 
0.401 -0.073 -0.015 1 
0.394 -0.052 -0.013 1 
0.395 -0.046 -0.013 1 
0.399 -0.039 -0.014 1 
0.4 -0.037 -0.015 1 
0.401 -0.03 -0.015 1 
0.396 -0.026 -0.014 1 
0.394 -0.015 -0.013 1 
0.396 -0.005 -0.014 1 
0.395 -0.001 -0.013 1 
0.417 -0.138 -0.021 1 
0.394 0.008 -0.013 1 
0.396 0.012 -0.014 1 
0.397 0.023 -0.014 1 
0.4 0.044 -0.015 1 
0.402 0.053 -0.016 1 
0.4 0.063 -0.015 1 
0.4 0.074 -0.015 1 
0.398 0.084 -0.015 1 
0.397 0.086 -0.015 1 
0.394 0.093 -0.014 1 
0.394 0.097 -0.014 1 
0.395 0.134 -0.015 1 
0.394 0.136 -0.015 1 
0.399 0.141 -0.016 1 
0.403 0.164 -0.018 1 
0.399 0.173 -0.018 1 
0.396 0.182 -0.017 1 
0.396 0.194 -0.017 1 
0.354 0.177 -0.013 1 
0.395 0.203 -0.017 1 
0.401 0.22 -0.02 1 
0.402 0.231 -0.021 1 
0.422 0.253 -0.027 1 
0.4 0.242 -0.021 1 
0.403 0.269 -0.023 1 
0.473 -0.336 -0.041 1 
0.473 -0.326 -0.04 1 
0.479 -0.315 -0.041 1 
0.477 -0.306 -0.041 1 
0.44 -0.206 -0.027 1 
0.439 -0.197 -0.026 1 
0.435 -0.186 -0.025 1 
0.431 -0.166 -0.023 1 
0.425 -0.145 -0.021 1 
0.391 0.211 -0.019 1 
0.421 -0.126 -0.02 1 
0.444 -0.216 -0.028 1 
0.423 -0.124 -0.02 1 
0.412 -0.078 -0.016 1 
0.39 -0.067 -0.01 1 
0.394 -0.058 -0.011 1 
0.403 -0.056 -0.013 1 
0.406 -0.055 -0.014 1 
0.414 -0.045 -0.017 1 
0.415 -0.043 -0.017 1 
0.414 -0.037 -0.017 1 
0.415 -0.026 -0.017 1 
0.411 -0.016 -0.016 1 
0.414 -0.006 -0.017 1 
0.413 0.002 -0.017 1 
0.407 0.013 -0.015 1 
0.409 0.024 -0.016 1 
0.406 0.032 -0.015 1 
0.404 0.034 -0.014 1 
0.403 0.043 -0.014 1 
0.404 0.051 -0.014 1 
0.405 0.054 -0.015 1 
0.402 0.064 -0.014 1 
0.4 0.074 -0.013 1 
0.397 0.083 -0.013 1 
0.395 0.085 -0.012 1 
0.403 0.099 -0.015 1 
0.406 0.104 -0.016 1 
0.408 0.114 -0.016 1 
0.411 0.134 -0.018 1 
0.413 0.154 -0.019 1 
0.413 0.193 -0.02 1 
0.415 0.2 -0.021 1 
0.406 0.202 -0.018 1 
0.405 0.211 -0.018 1 
0.404 0.213 -0.018 1 
0.361 0.014 -0.013 1 
0.408 0.221 -0.02 1 
0.415 0.244 -0.022 1 
0.416 0.253 -0.023 1 
0.407 0.274 -0.022 1 
0.406 0.275 -0.022 1 
0.474 -0.352 -0.039 1 
0.479 -0.336 -0.039 1 
0.483 -0.326 -0.04 1 
0.462 -0.269 -0.032 1 
0.454 -0.236 -0.029 1 
0.361 0.192 -0.016 1 
0.454 -0.227 -0.029 1 
0.452 -0.217 -0.028 1 
0.443 -0.178 -0.025 1 
0.434 -0.155 -0.022 1 
0.427 -0.126 -0.019 1 
0.422 -0.086 -0.017 1 
0.403 -0.067 -0.011 1 
0.414 -0.066 -0.015 1 
0.421 -0.056 -0.017 1 
0.424 -0.05 -0.017 1 
0.428 -0.046 -0.019 1 
0.394 -0.013 -0.013 1 
0.429 -0.036 -0.019 1 
0.426 -0.027 -0.018 1 
0.423 -0.006 -0.017 1 
0.424 0.002 -0.018 1 
0.416 0.014 -0.015 1 
0.38 0.033 -0.015 1 
0.421 0.023 -0.017 1 
0.423 0.025 -0.017 1 
0.416 0.043 -0.016 1 
0.414 0.174 -0.017 1 
0.414 0.177 -0.018 1 
0.385 0.047 -0.014 1 
0.417 0.214 -0.02 1 
0.418 0.223 -0.02 1 
0.42 0.23 -0.021 1 
0.429 0.254 -0.024 1 
0.418 0.263 -0.022 1 
0.414 0.262 -0.021 1 
0.416 0.269 -0.022 1 
0.416 0.275 -0.022 1 
0.427 0.29 -0.025 1 
0.424 0.29 -0.025 1 
0.481 -0.356 -0.038 1 
0.484 -0.348 -0.038 1 
0.484 -0.303 -0.036 1 
0.486 -0.301 -0.037 1 
0.481 -0.293 -0.035 1 
0.464 -0.256 -0.029 1 
0.463 -0.246 -0.029 1 
0.46 -0.226 -0.028 1 
0.455 -0.213 -0.026 1 
0.451 -0.206 -0.025 1 
0.451 -0.195 -0.025 1 
0.451 -0.192 -0.025 1 
0.423 -0.27 -0.037 1 
0.446 -0.183 -0.023 1 
0.434 -0.107 -0.018 1 
0.434 -0.095 -0.018 1 
0.428 -0.086 -0.016 1 
0.44 -0.055 -0.02 1 
0.441 -0.053 -0.02 1 
0.452 -0.035 -0.023 1 
0.44 -0.016 -0.02 1 
0.434 0.003 -0.018 1 
0.437 0.022 -0.019 1 
0.442 0.032 -0.021 1 
0.431 0.045 -0.018 1 
0.421 0.048 -0.015 1 
0.42 0.064 -0.015 1 
0.42 0.069 -0.015 1 
0.418 0.073 -0.014 1 
0.419 0.08 -0.014 1 
0.419 0.082 -0.015 1 
0.421 0.092 -0.015 1 
0.422 0.114 -0.016 1 
0.424 0.117 -0.016 1 
0.423 0.133 -0.016 1 
0.419 0.143 -0.016 1 
0.433 0.244 -0.023 1 
0.438 0.284 -0.025 1 
0.437 0.31 -0.026 1 
0.406 -0.066 -0.012 1 
0.488 -0.345 -0.036 1 
0.493 -0.336 -0.037 1 
0.494 -0.333 -0.037 1 
0.493 -0.318 -0.036 1 
0.474 -0.267 -0.03 1 
0.465 -0.247 -0.027 1 
0.462 -0.236 -0.026 1 
0.456 -0.226 -0.024 1 
0.456 -0.223 -0.024 1 
0.452 -0.217 -0.022 1 
0.45 -0.205 -0.022 1 
0.418 -0.08 -0.016 1 
0.449 -0.199 -0.022 1 
0.445 -0.193 -0.02 1 
0.442 -0.186 -0.019 1 
0.439 -0.176 -0.018 1 
0.437 -0.167 -0.018 1 
0.44 -0.145 -0.018 1 
0.418 -0.182 -0.025 1 
0.439 -0.135 -0.018 1 
0.438 -0.126 -0.017 1 
0.438 -0.116 -0.017 1 
0.441 -0.105 -0.018 1 
0.444 -0.096 -0.019 1 
0.44 -0.087 -0.017 1 
0.43 -0.077 -0.015 1 
0.424 -0.07 -0.013 1 
0.433 -0.071 -0.015 1 
0.444 -0.071 -0.018 1 
0.45 -0.055 -0.02 1 
0.439 0.005 -0.017 1 
0.45 0.023 -0.02 1 
0.444 0.043 -0.019 1 
0.444 0.045 -0.019 1 
0.448 0.063 -0.02 1 
0.445 0.073 -0.019 1 
0.443 0.092 -0.019 1 
0.435 0.102 -0.017 1 
0.432 0.103 -0.016 1 
0.429 0.114 -0.015 1 
0.433 0.123 -0.017 1 
0.428 0.133 -0.015 1 
0.425 0.137 -0.015 1 
0.423 0.15 -0.014 1 
0.424 0.153 -0.015 1 
0.425 0.161 -0.015 1 
0.424 0.163 -0.015 1 
0.421 0.174 -0.015 1 
0.388 0.124 -0.015 1 
0.422 0.182 -0.015 1 
0.424 0.191 -0.016 1 
0.431 0.204 -0.018 1 
0.429 0.213 -0.018 1 
0.414 0.143 -0.016 1 
0.427 0.222 -0.018 1 
0.433 0.233 -0.02 1 
0.444 0.284 -0.024 1 
0.445 0.291 -0.025 1 
0.443 0.295 -0.025 1 
0.494 -0.337 -0.034 1 
0.494 -0.333 -0.034 1 
0.497 -0.325 -0.034 1 
0.491 -0.316 -0.032 1 
0.488 -0.31 -0.032 1 
0.486 -0.304 -0.031 1 
0.483 -0.295 -0.03 1 
0.482 -0.291 -0.029 1 
0.417 -0.176 -0.024 1 
0.483 -0.278 -0.029 1 
0.485 -0.277 -0.03 1 
0.479 -0.265 -0.028 1 
0.483 -0.262 -0.029 1 
0.487 -0.256 -0.03 1 
0.488 -0.247 -0.03 1 
0.434 -0.117 -0.019 1 
0.488 -0.238 -0.03 1 
0.484 -0.226 -0.028 1 
0.48 -0.217 -0.027 1 
0.475 -0.205 -0.026 1 
0.479 -0.196 -0.027 1 
0.474 -0.166 -0.025 1 
0.381 0.14 -0.015 1 
0.499 -0.328 -0.038 1 
0.473 -0.163 -0.025 1 
0.473 -0.157 -0.024 1 
0.462 -0.146 -0.021 1 
0.466 -0.142 -0.022 1 
0.463 -0.135 -0.022 1 
0.464 -0.133 -0.022 1 
0.468 -0.244 -0.027 1 
0.471 -0.125 -0.023 1 
0.463 -0.108 -0.021 1 
0.459 -0.096 -0.02 1 
0.46 -0.088 -0.02 1 
0.454 -0.079 -0.019 1 
0.424 -0.156 -0.023 1 
0.454 -0.071 -0.019 1 
0.455 -0.066 -0.019 1 
0.458 -0.056 -0.02 1 
0.462 -0.052 -0.021 1 
0.458 -0.035 -0.019 1 
0.456 -0.025 -0.019 1 
0.439 0.084 -0.018 1 
0.453 -0.017 -0.018 1 
0.439 -0.006 -0.015 1 
0.449 0.005 -0.017 1 
0.457 0.024 -0.02 1 
0.455 0.026 -0.019 1 
0.451 0.033 -0.018 1 
0.451 0.044 -0.018 1 
0.457 0.073 -0.02 1 
0.455 0.075 -0.019 1 
0.452 0.093 -0.019 1 
0.384 0.053 -0.014 1 
0.448 0.104 -0.018 1 
0.411 -0.189 -0.025 1 
0.446 0.114 -0.017 1 
0.448 0.123 -0.018 1 
0.448 0.13 -0.018 1 
0.453 0.143 -0.02 1 
0.453 0.154 -0.02 1 
0.451 0.173 -0.02 1 
0.451 0.183 -0.02 1 
0.446 0.194 -0.019 1 
0.453 0.204 -0.021 1 
0.454 0.211 -0.022 1 
0.445 0.24 -0.02 1 
0.443 0.244 -0.02 1 
0.445 0.255 -0.021 1 
0.443 0.262 -0.021 1 
0.443 0.268 -0.021 1 
0.445 0.278 -0.022 1 
0.445 0.288 -0.022 1 
0.444 0.293 -0.022 1 
0.354 -0.036 -0.012 1 
0.445 0.303 -0.023 1 
0.45 0.318 -0.025 1 
0.455 0.331 -0.026 1 
0.505 -0.305 -0.032 1 
0.501 -0.287 -0.031 1 
0.5 -0.266 -0.03 1 
0.499 -0.256 -0.03 1 
0.498 -0.245 -0.029 1 
0.497 -0.235 -0.029 1 
0.493 -0.229 -0.028 1 
0.492 -0.215 -0.027 1 
0.491 -0.206 -0.027 1 
0.489 -0.196 -0.026 1 
0.485 -0.19 -0.025 1 
0.422 -0.096 -0.02 1 
0.483 -0.186 -0.025 1 
0.419 -0.185 -0.025 1 
0.483 -0.18 -0.024 1 
0.484 -0.178 -0.025 1 
0.483 -0.174 -0.024 1 
0.486 -0.173 -0.025 1 
0.484 -0.166 -0.025 1 
0.486 -0.164 -0.025 1 
0.48 -0.155 -0.023 1 
0.48 -0.146 -0.023 1 
0.482 -0.135 -0.024 1 
0.482 -0.127 -0.024 1 
0.475 -0.115 -0.022 1 
0.371 0.024 -0.013 1 
0.47 -0.108 -0.02 1 
0.472 -0.092 -0.021 1 
0.475 -0.087 -0.021 1 
0.384 0.014 -0.014 1 
0.47 -0.078 -0.02 1 
0.47 -0.067 -0.02 1 
0.473 -0.056 -0.021 1 
0.474 -0.051 -0.021 1 
0.476 -0.04 -0.021 1 
0.439 -0.252 -0.033 1 
0.473 -0.037 -0.021 1 
0.473 -0.026 -0.021 1 
0.462 -0.017 -0.018 1 
0.451 -0.014 -0.015 1 
0.455 0.005 -0.016 1 
0.468 0.014 -0.02 1 
0.471 0.022 -0.02 1 
0.477 0.028 -0.022 1 
0.471 0.033 -0.021 1 
0.469 0.044 -0.02 1 
0.468 0.054 -0.02 1 
0.365 0.163 -0.014 1 
0.466 0.057 -0.019 1 
0.464 0.064 -0.019 1 
0.443 -0.261 -0.035 1 
0.468 0.073 -0.02 1 
0.469 0.082 -0.02 1 
0.467 0.092 -0.02 1 
0.371 0.107 -0.015 1 
0.465 0.1 -0.02 1 
0.464 0.102 -0.019 1 
0.463 0.113 -0.019 1 
0.46 0.122 -0.019 1 
0.372 -0.115 -0.016 1 
0.464 0.127 -0.02 1 
0.467 0.134 -0.021 1 
0.468 0.142 -0.021 1 
0.465 0.152 -0.02 1 
0.465 0.155 -0.02 1 
0.431 -0.138 -0.02 1 
0.461 0.173 -0.02 1 
0.462 0.182 -0.02 1 
0.461 0.193 -0.02 1 
0.461 0.213 -0.021 1 
0.464 0.224 -0.022 1 
0.465 0.23 -0.022 1 
0.464 0.233 -0.022 1 
0.422 0.142 -0.014 1 
0.462 0.243 -0.022 1 
0.377 0.094 -0.013 1 
0.458 0.251 -0.021 1 
0.412 0.123 -0.018 1 
0.463 0.262 -0.023 1 
0.346 0.154 -0.013 1 
0.462 0.27 -0.023 1 
0.472 0.292 -0.026 1 
0.472 0.302 -0.026 1 
0.477 0.317 -0.028 1 
0.479 0.333 -0.029 1 
0.478 0.342 -0.029 1 
0.477 0.352 -0.029 1 
0.477 0.356 -0.03 1 
0.513 -0.298 -0.031 1 
0.511 -0.285 -0.03 1 
0.511 -0.275 -0.03 1 
0.515 -0.275 -0.031 1 
0.516 -0.272 -0.031 1 
0.507 -0.255 -0.029 1 
0.511 -0.245 -0.029 1 
0.352 0.064 -0.012 1 
0.463 0.162 -0.02 1 
0.513 -0.243 -0.03 1 
0.502 -0.228 -0.027 1 
0.506 -0.215 -0.027 1 
0.503 -0.207 -0.027 1 
0.499 -0.186 -0.026 1 
0.502 -0.175 -0.026 1 
0.501 -0.165 -0.026 1 
0.498 -0.157 -0.025 1 
0.496 -0.147 -0.024 1 
0.468 -0.096 -0.02 1 
0.495 -0.144 -0.024 1 
0.49 -0.136 -0.023 1 
0.49 -0.127 -0.023 1 
0.491 -0.106 -0.023 1 
0.494 -0.096 -0.023 1 
0.386 -0.096 -0.015 1 
0.494 -0.093 -0.023 1 
0.482 -0.075 -0.02 1 
0.401 0.124 -0.017 1 
0.491 -0.074 -0.023 1 
0.484 -0.067 -0.021 1 
0.484 -0.055 -0.021 1 
0.484 -0.053 -0.021 1 
0.37 0.044 -0.013 1 
0.485 -0.047 -0.021 1 
0.483 -0.027 -0.02 1 
0.478 -0.021 -0.019 1 
0.353 -0.073 -0.012 1 
0.467 -0.018 -0.017 1 
0.479 0.014 -0.02 1 
0.482 0.023 -0.02 1 
0.485 0.032 -0.021 1 
0.485 0.037 -0.021 1 
0.502 -0.2 -0.027 1 
0.481 0.043 -0.02 1 
0.483 0.054 -0.021 1 
0.483 0.063 -0.021 1 
0.479 0.073 -0.02 1 
0.482 0.083 -0.021 1 
0.484 0.103 -0.022 1 
0.482 0.114 -0.021 1 
0.479 0.124 -0.021 1 
0.379 0.143 -0.014 1 
0.48 0.134 -0.021 1 
0.483 0.144 -0.022 1 
0.428 0.262 -0.024 1 
0.481 0.154 -0.022 1 
0.479 0.162 -0.021 1 
0.476 0.169 -0.021 1 
0.471 0.173 -0.02 1 
0.471 0.193 -0.02 1 
0.472 0.203 -0.021 1 
0.477 0.221 -0.022 1 
0.478 0.234 -0.023 1 
0.479 0.241 -0.023 1 
0.475 0.25 -0.022 1 
0.473 0.264 -0.022 1 
0.473 0.274 -0.023 1 
0.474 0.278 -0.023 1 
0.479 0.292 -0.025 1 
0.478 0.294 -0.024 1 
0.479 0.299 -0.025 1 
0.483 0.306 -0.026 1 
0.418 0.054 -0.014 1 
0.488 0.317 -0.028 1 
0.487 0.341 -0.028 1 
0.486 0.347 -0.028 1 
0.526 -0.287 -0.03 1 
0.529 -0.275 -0.031 1 
0.524 -0.247 -0.029 1 
0.524 -0.237 -0.029 1 
0.524 -0.23 -0.029 1 
0.52 -0.217 -0.028 1 
0.515 -0.211 -0.026 1 
0.514 -0.207 -0.026 1 
0.51 -0.195 -0.025 1 
0.513 -0.187 -0.026 1 
0.521 -0.178 -0.028 1 
0.512 -0.145 -0.025 1 
0.51 -0.141 -0.025 1 
0.508 -0.137 -0.024 1 
0.446 -0.317 -0.035 1 
0.509 -0.128 -0.024 1 
0.506 -0.105 -0.023 1 
0.433 -0.175 -0.024 1 
0.505 -0.096 -0.023 1 
0.507 -0.115 -0.024 1 
0.503 -0.086 -0.023 1 
0.5 -0.076 -0.022 1 
0.499 -0.067 -0.021 1 
0.5 -0.055 -0.022 1 
0.499 -0.046 -0.021 1 
0.494 -0.028 -0.02 1 
0.445 -0.001 -0.009 1 
0.492 0.012 -0.02 1 
0.494 0.018 -0.02 1 
0.498 0.024 -0.021 1 
0.499 0.033 -0.022 1 
0.497 0.042 -0.021 1 
0.494 0.047 -0.021 1 
0.496 0.054 -0.021 1 
0.49 -0.115 -0.023 1 
0.5 0.063 -0.022 1 
0.499 0.072 -0.022 1 
0.493 0.091 -0.021 1 
0.495 0.095 -0.021 1 
0.493 0.103 -0.021 1 
0.492 0.112 -0.021 1 
0.49 0.132 -0.021 1 
0.495 0.146 -0.022 1 
0.492 0.154 -0.021 1 
0.489 0.164 -0.021 1 
0.489 0.174 -0.021 1 
0.49 0.184 -0.022 1 
0.489 0.192 -0.021 1 
0.491 0.123 -0.021 1 
0.485 0.202 -0.021 1 
0.482 0.203 -0.02 1 
0.483 0.21 -0.02 1 
0.485 0.214 -0.021 1 
0.493 0.242 -0.023 1 
0.494 0.252 -0.024 1 
0.492 0.264 -0.024 1 
0.487 0.266 -0.023 1 
0.482 0.269 -0.022 1 
0.49 0.282 -0.024 1 
0.49 0.292 -0.024 1 
0.492 0.301 -0.025 1 
0.49 0.302 -0.024 1 
0.49 0.306 -0.025 1 
0.49 0.333 -0.026 1 
0.532 -0.267 -0.028 1 
0.531 -0.259 -0.028 1 
0.531 -0.245 -0.027 1 
0.531 -0.238 -0.027 1 
0.533 -0.228 -0.028 1 
0.525 -0.217 -0.026 1 
0.528 -0.205 -0.026 1 
0.531 -0.197 -0.027 1 
0.533 -0.188 -0.027 1 
0.529 -0.175 -0.026 1 
0.524 -0.17 -0.025 1 
0.521 -0.165 -0.024 1 
0.522 -0.156 -0.024 1 
0.494 -0.037 -0.02 1 
0.521 -0.152 -0.024 1 
0.524 -0.147 -0.025 1 
0.525 -0.14 -0.025 1 
0.524 -0.137 -0.025 1 
0.456 -0.217 -0.026 1 
0.524 -0.134 -0.025 1 
0.526 -0.128 -0.025 1 
0.524 -0.12 -0.025 1 
0.525 -0.118 -0.025 1 
0.521 -0.107 -0.024 1 
0.524 -0.095 -0.024 1 
0.525 -0.092 -0.025 1 
0.513 -0.079 -0.022 1 
0.514 -0.07 -0.022 1 
0.523 -0.056 -0.024 1 
0.381 -0.086 -0.015 1 
0.513 -0.048 -0.022 1 
0.504 -0.035 -0.02 1 
0.505 -0.029 -0.02 1 
0.504 -0.026 -0.02 1 
0.504 -0.02 -0.02 1 
0.46 0.203 -0.02 1 
0.445 -0.009 -0.006 1 
0.444 -0.006 -0.006 1 
0.443 0.003 -0.006 1 
0.511 -0.157 -0.025 1 
0.51 0.062 -0.021 1 
0.508 0.074 -0.021 1 
0.438 -0.157 -0.018 1 
0.507 0.083 -0.021 1 
0.508 0.092 -0.021 1 
0.509 0.102 -0.022 1 
0.505 0.11 -0.021 1 
0.502 0.121 -0.02 1 
0.504 0.131 -0.021 1 
0.508 0.142 -0.022 1 
0.505 0.153 -0.021 1 
0.5 0.164 -0.02 1 
0.507 0.173 -0.022 1 
0.496 0.212 -0.02 1 
0.496 0.215 -0.021 1 
0.491 0.221 -0.02 1 
0.491 0.225 -0.02 1 
0.49 -0.312 -0.035 1 
0.495 0.23 -0.021 1 
0.497 0.242 -0.021 1 
0.497 0.261 -0.022 1 
0.496 0.27 -0.022 1 
0.496 0.277 -0.022 1 
0.427 -0.171 -0.025 1 
0.498 0.292 -0.023 1 
0.503 0.3 -0.024 1 
0.505 0.309 -0.025 1 
0.503 0.311 -0.024 1 
0.503 0.314 -0.025 1 
0.504 0.322 -0.025 1 
0.501 0.326 -0.025 1 
0.543 -0.249 -0.027 1 
0.543 -0.238 -0.027 1 
0.542 -0.23 -0.026 1 
0.537 -0.217 -0.025 1 
0.538 -0.207 -0.025 1 
0.538 -0.197 -0.025 1 
0.537 -0.19 -0.025 1 
0.534 -0.185 -0.024 1 
0.534 -0.178 -0.024 1 
0.467 -0.255 -0.027 1 
0.528 -0.165 -0.023 1 
0.532 -0.157 -0.023 1 
0.534 -0.147 -0.024 1 
0.534 -0.137 -0.024 1 
0.534 -0.127 -0.024 1 
0.528 -0.115 -0.022 1 
0.529 -0.086 -0.022 1 
0.524 -0.075 -0.021 1 
0.524 -0.066 -0.021 1 
0.523 -0.046 -0.021 1 
0.47 -0.116 -0.023 1 
0.522 -0.037 -0.021 1 
0.52 -0.027 -0.02 1 
0.514 -0.02 -0.019 1 
0.5 0.006 -0.016 1 
0.506 0.013 -0.017 1 
0.51 0.022 -0.018 1 
0.513 0.031 -0.019 1 
0.514 0.035 -0.019 1 
0.523 0.051 -0.021 1 
0.521 0.064 -0.021 1 
0.518 0.073 -0.02 1 
0.516 0.082 -0.02 1 
0.516 0.114 -0.02 1 
0.517 -0.186 -0.027 1 
0.513 0.119 -0.02 1 
0.515 0.123 -0.02 1 
0.517 0.133 -0.021 1 
0.517 0.143 -0.021 1 
0.518 0.153 -0.021 1 
0.497 -0.151 -0.025 1 
0.519 0.163 -0.021 1 
0.52 0.173 -0.022 1 
0.514 0.184 -0.021 1 
0.483 0.094 -0.021 1 
0.508 0.194 -0.02 1 
0.507 0.203 -0.02 1 
0.51 0.211 -0.02 1 
0.51 0.224 -0.021 1 
0.509 0.234 -0.021 1 
0.509 0.244 -0.021 1 
0.51 0.254 -0.021 1 
0.509 0.26 -0.021 1 
0.509 0.274 -0.022 1 
0.418 0.061 -0.014 1 
0.456 -0.077 -0.019 1 
0.513 0.281 -0.023 1 
0.512 0.294 -0.023 1 
0.509 0.302 -0.022 1 
0.508 0.312 -0.022 1 
0.519 -0.087 -0.023 1 
0.544 -0.25 -0.023 1 
0.545 -0.247 -0.024 1 
0.547 -0.237 -0.024 1 
0.544 -0.197 -0.023 1 
0.542 -0.185 -0.022 1 
0.543 -0.182 -0.023 1 
0.539 -0.146 -0.021 1 
0.537 -0.135 -0.021 1 
0.537 -0.128 -0.021 1 
0.535 -0.117 -0.02 1 
0.533 -0.107 -0.02 1 
0.534 -0.1 -0.02 1 
0.534 -0.077 -0.02 1 
0.454 0.052 -0.019 1 
0.534 -0.067 -0.02 1 
0.503 -0.299 -0.032 1 
0.534 -0.058 -0.02 1 
0.532 -0.047 -0.019 1 
0.53 -0.037 -0.019 1 
0.527 -0.027 -0.018 1 
0.52 -0.021 -0.017 1 
0.516 0.013 -0.016 1 
0.52 0.023 -0.017 1 
0.522 0.032 -0.018 1 
0.524 0.042 -0.018 1 
0.529 0.062 -0.019 1 
0.524 0.097 -0.018 1 
0.407 -0.172 -0.023 1 
0.525 0.103 -0.019 1 
0.526 0.133 -0.019 1 
0.525 0.143 -0.019 1 
0.526 0.153 -0.02 1 
0.404 -0.122 -0.019 1 
0.529 0.164 -0.02 1 
0.521 0.184 -0.019 1 
0.518 0.193 -0.019 1 
0.515 0.198 -0.018 1 
0.393 0.215 -0.019 1 
0.524 0.213 -0.02 1 
0.519 0.223 -0.019 1 
0.518 0.233 -0.019 1 
0.52 0.244 -0.02 1 
0.522 0.253 -0.021 1 
0.523 0.26 -0.021 1 
0.522 0.274 -0.021 1 
0.519 0.282 -0.021 1 
0.517 0.294 -0.02 1 
0.518 0.299 -0.021 1 
0.553 -0.226 -0.021 1 
0.433 -0.006 -0.018 1 
0.552 -0.215 -0.021 1 
0.498 0.194 -0.021 1 
0.551 -0.207 -0.021 1 
0.509 -0.038 -0.021 1 
0.549 -0.196 -0.02 1 
0.55 -0.185 -0.021 1 
0.552 -0.176 -0.021 1 
0.44 0.003 -0.015 1 
0.552 -0.165 -0.021 1 
0.549 -0.157 -0.02 1 
0.545 -0.145 -0.019 1 
0.417 -0.112 -0.021 1 
0.546 -0.135 -0.019 1 
0.389 -0.075 -0.016 1 
0.494 0.142 -0.022 1 
0.552 -0.126 -0.021 1 
0.553 -0.12 -0.021 1 
0.556 -0.117 -0.021 1 
0.555 -0.11 -0.021 1 
0.554 -0.106 -0.021 1 
0.548 -0.101 -0.02 1 
0.542 -0.096 -0.018 1 
0.542 -0.086 -0.018 1 
0.543 -0.083 -0.018 1 
0.546 -0.076 -0.019 1 
0.545 -0.066 -0.019 1 
0.541 -0.055 -0.018 1 
0.541 -0.045 -0.018 1 
0.541 -0.035 -0.018 1 
0.447 -0.087 -0.019 1 
0.537 -0.025 -0.017 1 
0.534 -0.021 -0.017 1 
0.512 0.007 -0.012 1 
0.408 0.253 -0.021 1 
0.522 0.013 -0.014 1 
0.522 0.016 -0.014 1 
0.527 0.023 -0.015 1 
0.53 0.033 -0.016 1 
0.534 0.05 -0.017 1 
0.535 0.053 -0.017 1 
0.535 0.063 -0.017 1 
0.535 0.066 -0.017 1 
0.354 0.183 -0.016 1 
0.454 -0.05 -0.021 1 
0.533 0.073 -0.017 1 
0.533 0.083 -0.017 1 
0.534 0.093 -0.017 1 
0.535 0.103 -0.018 1 
0.535 0.11 -0.018 1 
0.534 0.113 -0.017 1 
0.534 0.119 -0.018 1 
0.535 0.123 -0.018 1 
0.485 -0.064 -0.021 1 
0.535 0.133 -0.018 1 
0.535 0.143 -0.018 1 
0.535 0.153 -0.018 1 
0.475 -0.112 -0.022 1 
0.533 0.173 -0.018 1 
0.53 0.182 -0.018 1 
0.528 0.191 -0.017 1 
0.529 0.202 -0.018 1 
0.534 0.212 -0.019 1 
0.531 0.224 -0.019 1 
0.401 0.113 -0.016 1 
0.528 0.232 -0.018 1 
0.402 -0.145 -0.021 1 
0.529 0.243 -0.018 1 
0.531 0.248 -0.019 1 
0.535 0.262 -0.02 1 
0.533 0.271 -0.02 1 
0.529 0.279 -0.019 1 
0.557 -0.207 -0.019 1 
0.564 -0.2 -0.02 1 
0.567 -0.19 -0.02 1 
0.564 -0.185 -0.02 1 
0.563 -0.181 -0.02 1 
0.367 0.114 -0.013 1 
0.567 -0.179 -0.02 1 
0.564 -0.174 -0.02 1 
0.473 0.183 -0.02 1 
0.565 -0.167 -0.02 1 
0.566 -0.156 -0.02 1 
0.565 -0.152 -0.02 1 
0.564 -0.145 -0.019 1 
0.567 -0.135 -0.02 1 
0.569 -0.125 -0.02 1 
0.568 -0.117 -0.02 1 
0.567 -0.106 -0.02 1 
0.568 -0.095 -0.02 1 
0.569 -0.088 -0.02 1 
0.568 -0.077 -0.02 1 
0.566 -0.07 -0.02 1 
0.452 -0.027 -0.02 1 
0.564 -0.066 -0.019 1 
0.565 -0.062 -0.019 1 
0.562 -0.055 -0.019 1 
0.562 -0.048 -0.019 1 
0.565 -0.045 -0.019 1 
0.496 0.083 -0.021 1 
0.564 -0.041 -0.019 1 
0.565 -0.037 -0.019 1 
0.568 -0.027 -0.02 1 
0.533 -0.021 -0.013 1 
0.465 -0.145 -0.022 1 
0.56 0.022 -0.019 1 
0.556 0.032 -0.018 1 
0.556 0.039 -0.018 1 
0.554 0.042 -0.018 1 
0.556 0.049 -0.018 1 
0.551 0.052 -0.017 1 
0.548 0.062 -0.016 1 
0.555 0.07 -0.018 1 
0.553 0.073 -0.017 1 
0.55 0.083 -0.017 1 
0.548 0.093 -0.017 1 
0.394 0.233 -0.021 1 
0.394 0.004 -0.013 1 
0.552 0.101 -0.018 1 
0.558 0.106 -0.019 1 
0.546 0.113 -0.016 1 
0.546 0.123 -0.017 1 
0.547 0.134 -0.017 1 
0.498 0.204 -0.021 1 
0.546 0.144 -0.017 1 
0.545 0.154 -0.017 1 
0.545 0.158 -0.017 1 
0.543 0.16 -0.016 1 
0.546 0.165 -0.017 1 
0.543 0.171 -0.017 1 
0.544 0.182 -0.017 1 
0.543 0.192 -0.017 1 
0.541 0.202 -0.017 1 
0.544 0.207 -0.017 1 
0.546 0.211 -0.018 1 
0.546 0.222 -0.018 1 
0.546 0.233 -0.018 1 
0.413 0.163 -0.017 1 
0.5 -0.276 -0.03 1 
0.542 0.234 -0.017 1 
0.544 0.243 -0.018 1 
0.421 0.104 -0.015 1 
0.524 0.093 -0.018 1 
0.541 0.251 -0.018 1 
0.374 -0.105 -0.017 1 
0.58 -0.15 -0.019 1 
0.581 -0.143 -0.019 1 
0.583 -0.125 -0.019 1 
0.582 -0.117 -0.019 1 
0.58 -0.106 -0.019 1 
0.58 -0.098 -0.019 1 
0.581 -0.087 -0.019 1 
0.498 0.252 -0.022 1 
0.581 -0.076 -0.019 1 
0.58 -0.065 -0.019 1 
0.507 -0.225 -0.028 1 
0.579 -0.057 -0.018 1 
0.579 -0.046 -0.018 1 
0.574 0.012 -0.018 1 
0.574 0.022 -0.018 1 
0.573 0.033 -0.018 1 
0.572 0.044 -0.017 1 
0.444 0.251 -0.02 1 
0.572 0.048 -0.017 1 
0.575 0.052 -0.018 1 
0.573 0.059 -0.018 1 
0.575 0.063 -0.018 1 
0.532 0.043 -0.017 1 
0.571 0.073 -0.017 1 
0.57 0.084 -0.017 1 
0.569 0.094 -0.017 1 
0.569 0.102 -0.017 1 
0.571 0.113 -0.018 1 
0.569 0.123 -0.017 1 
0.567 0.13 -0.017 1 
0.564 0.133 -0.017 1 
0.565 0.14 -0.017 1 
0.425 0.033 -0.018 1 
0.564 0.144 -0.017 1 
0.564 0.151 -0.017 1 
0.567 0.163 -0.017 1 
0.566 0.174 -0.018 1 
0.565 0.177 -0.017 1 
0.559 0.182 -0.016 1 
0.554 0.187 -0.015 1 
0.555 0.191 -0.016 1 
0.555 0.202 -0.016 1 
0.555 0.213 -0.016 1 
0.452 0.164 -0.02 1 
0.444 0.299 -0.022 1 
0.556 0.217 -0.016 1 
0.589 -0.108 -0.017 1 
0.59 -0.097 -0.017 1 
0.503 0.112 -0.02 1 
0.591 -0.085 -0.017 1 
0.403 -0.086 -0.018 1 
0.591 -0.078 -0.017 1 
0.59 -0.055 -0.017 1 
0.452 0.082 -0.019 1 
0.588 -0.047 -0.016 1 
0.585 -0.039 -0.016 1 
0.584 -0.036 -0.016 1 
0.581 -0.028 -0.015 1 
0.383 -0.032 -0.015 1 
0.421 -0.015 -0.017 1 
0.472 0.251 -0.022 1 
0.581 -0.024 -0.015 1 
0.595 0.012 -0.018 1 
0.593 0.024 -0.017 1 
0.591 0.031 -0.017 1 
0.588 0.042 -0.017 1 
0.587 0.053 -0.016 1 
0.585 0.068 -0.016 1 
0.583 0.071 -0.016 1 
0.581 0.082 -0.016 1 
0.583 0.094 -0.016 1 
0.591 -0.066 -0.017 1 
0.582 0.101 -0.016 1 
0.579 0.112 -0.015 1 
0.578 0.122 -0.015 1 
0.58 0.134 -0.016 1 
0.58 0.142 -0.016 1 
0.575 0.151 -0.015 1 
0.575 0.162 -0.015 1 
0.576 0.167 -0.015 1 
0.586 -0.025 -0.012 1 
0.597 0.02 -0.014 1 
0.597 0.028 -0.014 1 
0.597 0.043 -0.014 1 
0.595 0.054 -0.014 1 
0.595 0.062 -0.014 1 
0.592 0.073 -0.014 1 
0.361 -0.025 -0.013 1 
0.59 0.084 -0.013 1 
0.59 0.092 -0.013 1 
0.589 0.103 -0.013 1 
0.471 -0.355 -0.038 1 
0.586 0.113 -0.013 1 
0.584 0.124 -0.013 1 
0.585 0.064 -0.016 1 
0.389 0.083 -0.014 1 
0.437 -0.006 0.032 2 
0.437 0.003 0.033 2 
0.438 -0.006 0.04 2 
0.438 0 0.04 2 
