# .PCD v0.7 - Point Cloud Data file
FIELDS x y z intensity
SIZE 4 4 4 4
TYPE F F F F
COUNT 1 1 1 1
WIDTH 2471
HEIGHT 1
VIEWPOINT 0 0 0 1 0 0 0
POINTS 2471
DATA ascii
0.343 -0.005 0.003 0 
0.345 -0.005 0 0 
0.345 0.011 0.003 0 
0.343 0.009 0.003 0 
0.342 0.003 0.004 0 
0.373 -0.235 -0.025 1 
0.373 -0.227 -0.025 1 
0.373 -0.225 -0.024 1 
0.362 -0.146 -0.017 1 
0.364 -0.139 -0.018 1 
0.363 -0.125 -0.017 1 
0.36 -0.06 -0.015 1 
0.359 -0.035 -0.014 1 
0.359 -0.025 -0.014 1 
0.354 0.019 -0.013 1 
0.357 0.074 -0.014 1 
0.35 0.113 -0.013 1 
0.35 0.124 -0.013 1 
0.353 0.144 -0.015 1 
0.351 0.154 -0.015 1 
0.351 0.158 -0.015 1 
0.344 0.206 -0.015 1 
0.376 -0.24 -0.024 1 
0.373 -0.196 -0.021 1 
0.372 -0.147 -0.019 1 
0.37 -0.136 -0.018 1 
0.367 -0.126 -0.017 1 
0.363 -0.086 -0.014 1 
0.362 -0.055 -0.014 1 
0.364 -0.028 -0.015 1 
0.363 0.034 -0.014 1 
0.361 0.044 -0.014 1 
0.363 0.073 -0.015 1 
0.362 0.076 -0.015 1 
0.359 0.084 -0.014 1 
0.36 0.094 -0.014 1 
0.361 0.098 -0.015 1 
0.354 0.128 -0.013 1 
0.353 0.168 -0.014 1 
0.353 0.174 -0.015 1 
0.384 -0.247 -0.025 1 
0.385 -0.233 -0.025 1 
0.383 -0.228 -0.024 1 
0.374 -0.175 -0.019 1 
0.371 -0.115 -0.016 1 
0.371 -0.096 -0.016 1 
0.369 -0.091 -0.015 1 
0.368 -0.085 -0.014 1 
0.374 -0.076 -0.016 1 
0.371 -0.036 -0.015 1 
0.371 -0.03 -0.015 1 
0.364 0.02 -0.013 1 
0.365 0.105 -0.014 1 
0.363 0.119 -0.014 1 
0.364 0.127 -0.015 1 
0.364 0.151 -0.015 1 
0.357 0.194 -0.015 1 
0.354 0.197 -0.014 1 
0.354 0.204 -0.015 1 
0.354 0.208 -0.015 1 
0.38 -0.165 -0.018 1 
0.382 -0.156 -0.019 1 
0.38 -0.106 -0.017 1 
0.373 -0.066 -0.014 1 
0.374 -0.057 -0.014 1 
0.374 -0.036 -0.014 1 
0.373 -0.025 -0.014 1 
0.352 0.012 -0.007 1 
0.374 0.032 -0.014 1 
0.373 0.043 -0.014 1 
0.373 0.081 -0.015 1 
0.371 0.084 -0.014 1 
0.374 0.104 -0.016 1 
0.372 0.123 -0.015 1 
0.373 0.133 -0.016 1 
0.368 0.164 -0.015 1 
0.36 0.203 -0.015 1 
0.394 -0.258 -0.025 1 
0.392 -0.225 -0.022 1 
0.383 -0.128 -0.016 1 
0.384 -0.116 -0.017 1 
0.382 -0.095 -0.015 1 
0.383 -0.075 -0.016 1 
0.38 -0.066 -0.014 1 
0.38 -0.062 -0.014 1 
0.384 -0.056 -0.016 1 
0.381 -0.047 -0.015 1 
0.379 -0.045 -0.014 1 
0.38 0.037 -0.015 1 
0.38 0.074 -0.015 1 
0.379 0.083 -0.015 1 
0.377 0.084 -0.014 1 
0.376 0.095 -0.014 1 
0.374 0.144 -0.015 1 
0.371 0.184 -0.016 1 
0.372 0.193 -0.016 1 
0.363 0.222 -0.015 1 
0.364 0.228 -0.016 1 
0.393 -0.215 -0.02 1 
0.393 -0.205 -0.02 1 
0.392 -0.188 -0.019 1 
0.392 -0.126 -0.017 1 
0.391 -0.115 -0.017 1 
0.392 -0.107 -0.017 1 
0.391 -0.076 -0.016 1 
0.384 -0.042 -0.014 1 
0.387 -0.031 -0.015 1 
0.382 -0.026 -0.013 1 
0.373 -0.016 -0.01 1 
0.383 0.033 -0.014 1 
0.384 0.041 -0.014 1 
0.384 0.047 -0.014 1 
0.386 0.054 -0.015 1 
0.384 0.067 -0.014 1 
0.384 0.099 -0.015 1 
0.384 0.113 -0.015 1 
0.383 0.123 -0.015 1 
0.38 0.144 -0.015 1 
0.379 0.154 -0.015 1 
0.381 0.163 -0.016 1 
0.373 0.221 -0.016 1 
0.408 -0.282 -0.025 1 
0.404 -0.272 -0.024 1 
0.373 0.054 -0.014 1 
0.404 -0.263 -0.023 1 
0.394 -0.158 -0.017 1 
0.394 -0.091 -0.015 1 
0.393 -0.074 -0.015 1 
0.392 -0.066 -0.014 1 
0.392 -0.064 -0.014 1 
0.394 -0.06 -0.015 1 
0.393 -0.046 -0.015 1 
0.393 -0.035 -0.014 1 
0.385 -0.025 -0.012 1 
0.379 -0.016 -0.01 1 
0.376 -0.01 -0.009 1 
0.382 0.021 -0.011 1 
0.391 0.053 -0.014 1 
0.39 0.061 -0.014 1 
0.391 0.063 -0.015 1 
0.39 0.065 -0.014 1 
0.392 0.073 -0.015 1 
0.393 0.084 -0.015 1 
0.391 0.094 -0.015 1 
0.391 0.104 -0.015 1 
0.384 0.157 -0.014 1 
0.378 0.244 -0.017 1 
0.412 -0.287 -0.024 1 
0.414 -0.269 -0.024 1 
0.412 -0.255 -0.023 1 
0.382 -0.215 -0.023 1 
0.403 -0.226 -0.019 1 
0.404 -0.212 -0.019 1 
0.403 -0.197 -0.018 1 
0.402 -0.145 -0.017 1 
0.401 -0.136 -0.016 1 
0.403 -0.106 -0.016 1 
0.4 -0.079 -0.015 1 
0.397 -0.065 -0.014 1 
0.401 -0.056 -0.015 1 
0.399 -0.047 -0.014 1 
0.4 -0.045 -0.015 1 
0.4 -0.039 -0.015 1 
0.399 -0.036 -0.014 1 
0.4 -0.024 -0.015 1 
0.393 -0.015 -0.013 1 
0.388 -0.011 -0.011 1 
0.368 -0.008 -0.005 1 
0.394 0.033 -0.013 1 
0.394 0.039 -0.013 1 
0.397 0.094 -0.015 1 
0.398 0.103 -0.015 1 
0.396 0.113 -0.015 1 
0.396 0.124 -0.015 1 
0.394 0.133 -0.015 1 
0.394 0.144 -0.015 1 
0.393 0.148 -0.015 1 
0.391 0.153 -0.014 1 
0.39 0.161 -0.014 1 
0.391 0.164 -0.015 1 
0.389 0.17 -0.014 1 
0.389 0.184 -0.015 1 
0.412 -0.247 -0.02 1 
0.411 -0.236 -0.019 1 
0.364 -0.008 -0.005 1 
0.407 -0.215 -0.018 1 
0.404 -0.186 -0.016 1 
0.403 -0.018 -0.014 1 
0.403 -0.012 -0.014 1 
0.4 0.034 -0.013 1 
0.401 0.042 -0.013 1 
0.403 0.053 -0.014 1 
0.404 0.073 -0.014 1 
0.374 -0.105 -0.017 1 
0.401 0.124 -0.014 1 
0.401 0.129 -0.015 1 
0.4 0.132 -0.014 1 
0.4 0.146 -0.015 1 
0.396 0.173 -0.015 1 
0.392 0.193 -0.014 1 
0.392 0.2 -0.014 1 
0.393 0.222 -0.015 1 
0.394 0.243 -0.017 1 
0.421 -0.297 -0.022 1 
0.422 -0.266 -0.021 1 
0.418 -0.256 -0.02 1 
0.414 -0.225 -0.017 1 
0.413 -0.195 -0.017 1 
0.413 -0.185 -0.016 1 
0.414 -0.167 -0.016 1 
0.414 -0.155 -0.016 1 
0.352 0.193 -0.015 1 
0.414 -0.136 -0.015 1 
0.413 -0.108 -0.015 1 
0.412 -0.105 -0.014 1 
0.413 -0.097 -0.015 1 
0.413 -0.09 -0.015 1 
0.413 -0.085 -0.014 1 
0.414 -0.077 -0.015 1 
0.414 -0.074 -0.015 1 
0.411 -0.065 -0.014 1 
0.411 -0.045 -0.014 1 
0.412 -0.025 -0.014 1 
0.381 -0.03 -0.015 1 
0.415 -0.017 -0.015 1 
0.404 0.019 -0.012 1 
0.409 0.052 -0.014 1 
0.408 0.063 -0.013 1 
0.41 0.073 -0.014 1 
0.389 0.024 -0.012 1 
0.404 0.144 -0.014 1 
0.402 0.154 -0.013 1 
0.401 0.162 -0.013 1 
0.402 0.173 -0.014 1 
0.403 0.183 -0.015 1 
0.402 0.189 -0.015 1 
0.402 0.223 -0.016 1 
0.401 0.233 -0.016 1 
0.399 0.243 -0.016 1 
0.424 -0.285 -0.02 1 
0.422 -0.235 -0.018 1 
0.423 -0.226 -0.018 1 
0.42 -0.216 -0.017 1 
0.421 -0.157 -0.016 1 
0.421 -0.086 -0.015 1 
0.421 -0.081 -0.014 1 
0.422 -0.077 -0.015 1 
0.42 -0.065 -0.014 1 
0.419 -0.055 -0.014 1 
0.42 -0.047 -0.014 1 
0.381 -0.186 -0.017 1 
0.394 -0.154 -0.016 1 
0.402 0.103 -0.014 1 
0.421 -0.035 -0.014 1 
0.419 -0.026 -0.014 1 
0.422 -0.013 -0.015 1 
0.414 0.02 -0.013 1 
0.414 0.087 -0.013 1 
0.417 0.128 -0.015 1 
0.411 0.134 -0.013 1 
0.41 0.161 -0.013 1 
0.402 0.194 -0.012 1 
0.362 0.014 -0.01 1 
0.403 -0.236 -0.022 1 
0.407 0.22 -0.015 1 
0.406 0.232 -0.015 1 
0.403 0.263 -0.015 1 
0.4 0.268 -0.015 1 
0.432 -0.306 -0.02 1 
0.43 -0.286 -0.019 1 
0.434 -0.278 -0.02 1 
0.432 -0.247 -0.018 1 
0.424 -0.204 -0.015 1 
0.427 -0.196 -0.016 1 
0.424 -0.156 -0.014 1 
0.424 -0.146 -0.014 1 
0.424 -0.137 -0.014 1 
0.424 -0.115 -0.013 1 
0.366 0.214 -0.015 1 
0.424 -0.108 -0.013 1 
0.363 -0.008 0.003 1 
0.424 0.023 -0.013 1 
0.383 0.213 -0.016 1 
0.424 0.033 -0.013 1 
0.424 -0.184 -0.015 1 
0.424 0.044 -0.013 1 
0.424 0.063 -0.013 1 
0.421 0.074 -0.013 1 
0.42 0.094 -0.013 1 
0.419 0.103 -0.013 1 
0.42 0.122 -0.013 1 
0.414 0.143 -0.012 1 
0.414 0.145 -0.012 1 
0.411 0.194 -0.013 1 
0.411 0.214 -0.013 1 
0.414 0.242 -0.015 1 
0.411 0.25 -0.015 1 
0.409 0.253 -0.014 1 
0.41 0.257 -0.015 1 
0.408 0.274 -0.015 1 
0.435 -0.239 -0.016 1 
0.433 -0.226 -0.015 1 
0.431 -0.207 -0.014 1 
0.432 -0.205 -0.015 1 
0.381 -0.071 -0.015 1 
0.431 -0.196 -0.014 1 
0.433 -0.187 -0.015 1 
0.433 -0.185 -0.014 1 
0.433 -0.182 -0.014 1 
0.434 -0.178 -0.015 1 
0.43 -0.145 -0.013 1 
0.43 -0.135 -0.013 1 
0.431 -0.126 -0.013 1 
0.431 -0.116 -0.013 1 
0.432 -0.106 -0.013 1 
0.433 -0.095 -0.013 1 
0.432 -0.085 -0.013 1 
0.434 -0.076 -0.013 1 
0.434 -0.071 -0.013 1 
0.434 -0.056 -0.013 1 
0.352 0.175 -0.014 1 
0.434 -0.047 -0.013 1 
0.434 -0.035 -0.013 1 
0.369 -0.008 0.003 1 
0.431 0.043 -0.013 1 
0.431 0.052 -0.013 1 
0.423 0.153 -0.012 1 
0.423 0.162 -0.012 1 
0.418 0.182 -0.012 1 
0.421 0.246 -0.015 1 
0.419 0.253 -0.014 1 
0.414 0.267 -0.014 1 
0.417 0.273 -0.015 1 
0.416 0.283 -0.015 1 
0.442 -0.298 -0.017 1 
0.441 -0.279 -0.016 1 
0.438 -0.256 -0.015 1 
0.434 -0.16 -0.012 1 
0.44 -0.065 -0.012 1 
0.403 0.064 -0.014 1 
0.439 -0.035 -0.012 1 
0.44 -0.016 -0.012 1 
0.434 0.063 -0.011 1 
0.433 0.072 -0.011 1 
0.434 0.082 -0.011 1 
0.434 0.094 -0.012 1 
0.432 0.123 -0.012 1 
0.429 0.144 -0.011 1 
0.43 0.154 -0.012 1 
0.427 0.163 -0.011 1 
0.424 0.194 -0.011 1 
0.421 0.204 -0.011 1 
0.421 0.212 -0.011 1 
0.422 0.223 -0.012 1 
0.424 0.233 -0.012 1 
0.424 0.238 -0.013 1 
0.422 0.272 -0.013 1 
0.421 0.283 -0.014 1 
0.418 0.288 -0.013 1 
0.445 -0.298 -0.015 1 
0.442 -0.225 -0.012 1 
0.442 -0.215 -0.012 1 
0.443 -0.197 -0.012 1 
0.441 -0.185 -0.011 1 
0.439 -0.176 -0.011 1 
0.441 -0.166 -0.011 1 
0.441 -0.156 -0.011 1 
0.443 -0.147 -0.011 1 
0.443 -0.126 -0.011 1 
0.44 -0.115 -0.01 1 
0.44 -0.105 -0.01 1 
0.412 -0.099 -0.014 1 
0.44 -0.095 -0.01 1 
0.42 0.082 -0.012 1 
0.442 -0.085 -0.01 1 
0.444 -0.081 -0.011 1 
0.444 -0.063 -0.011 1 
0.424 0.049 -0.013 1 
0.444 -0.026 -0.011 1 
0.443 0.032 -0.011 1 
0.444 0.038 -0.011 1 
0.442 0.052 -0.011 1 
0.439 0.064 -0.01 1 
0.438 0.073 -0.01 1 
0.44 0.084 -0.011 1 
0.441 0.104 -0.011 1 
0.441 0.114 -0.011 1 
0.439 0.124 -0.011 1 
0.432 0.174 -0.01 1 
0.431 0.183 -0.01 1 
0.432 0.194 -0.011 1 
0.424 0.295 -0.012 1 
0.452 -0.315 -0.015 1 
0.451 -0.295 -0.014 1 
0.444 -0.27 -0.011 1 
0.444 -0.258 -0.011 1 
0.414 0.103 -0.013 1 
0.444 -0.241 -0.011 1 
0.447 -0.219 -0.011 1 
0.45 -0.135 -0.01 1 
0.451 -0.096 -0.01 1 
0.443 -0.21 -0.01 1 
0.451 -0.085 -0.01 1 
0.451 -0.075 -0.01 1 
0.451 -0.065 -0.01 1 
0.451 -0.055 -0.01 1 
0.344 0.008 -0.006 1 
0.344 -0.005 -0.007 1 
0.346 -0.006 -0.005 1 
0.444 0.134 -0.01 1 
0.44 0.163 -0.009 1 
0.433 0.203 -0.009 1 
0.433 0.222 -0.009 1 
0.434 0.233 -0.01 1 
0.433 0.249 -0.01 1 
0.434 0.264 -0.011 1 
0.434 0.267 -0.011 1 
0.433 0.284 -0.011 1 
0.38 -0.205 -0.02 1 
0.454 -0.331 -0.013 1 
0.454 -0.289 -0.011 1 
0.453 -0.275 -0.011 1 
0.424 0.134 -0.012 1 
0.452 -0.268 -0.01 1 
0.45 -0.258 -0.01 1 
0.454 -0.229 -0.01 1 
0.454 -0.207 -0.01 1 
0.454 -0.196 -0.01 1 
0.454 -0.185 -0.009 1 
0.454 -0.158 -0.009 1 
0.454 -0.15 -0.009 1 
0.454 -0.128 -0.009 1 
0.454 -0.12 -0.009 1 
0.454 -0.105 -0.008 1 
0.454 0.034 -0.008 1 
0.442 0.143 -0.009 1 
0.454 0.044 -0.008 1 
0.453 0.054 -0.008 1 
0.453 0.062 -0.008 1 
0.453 0.072 -0.008 1 
0.451 0.092 -0.008 1 
0.451 0.103 -0.008 1 
0.443 0.173 -0.008 1 
0.441 0.182 -0.008 1 
0.438 0.204 -0.007 1 
0.436 0.241 -0.008 1 
0.439 0.284 -0.01 1 
0.437 0.294 -0.01 1 
0.433 0.302 -0.009 1 
0.381 0.184 -0.015 1 
0.461 -0.315 -0.011 1 
0.404 -0.076 -0.014 1 
0.461 -0.296 -0.01 1 
0.451 -0.247 -0.007 1 
0.452 -0.242 -0.007 1 
0.453 0.133 -0.007 1 
0.453 0.154 -0.007 1 
0.451 0.164 -0.007 1 
0.389 0.233 -0.017 1 
0.448 0.184 -0.007 1 
0.449 0.204 -0.007 1 
0.443 0.267 -0.008 1 
0.441 0.301 -0.008 1 
0.438 0.311 -0.008 1 
0.464 -0.346 -0.01 1 
0.464 -0.339 -0.01 1 
0.464 -0.261 -0.007 1 
0.463 -0.217 -0.006 1 
0.463 -0.197 -0.006 1 
0.463 -0.177 -0.006 1 
0.464 -0.155 -0.006 1 
0.464 -0.136 -0.006 1 
0.463 -0.116 -0.005 1 
0.463 -0.076 -0.005 1 
0.384 -0.242 -0.025 1 
0.463 -0.057 -0.005 1 
0.463 -0.036 -0.005 1 
0.376 -0.008 0.012 1 
0.462 0.043 -0.005 1 
0.461 0.064 -0.005 1 
0.374 0.017 -0.011 1 
0.46 0.074 -0.005 1 
0.459 0.092 -0.005 1 
0.458 0.124 -0.005 1 
0.455 0.172 -0.005 1 
0.455 0.183 -0.005 1 
0.454 0.188 -0.005 1 
0.455 0.202 -0.006 1 
0.452 0.214 -0.005 1 
0.454 0.224 -0.006 1 
0.452 0.234 -0.006 1 
0.451 0.242 -0.006 1 
0.45 0.253 -0.006 1 
0.448 0.26 -0.006 1 
0.449 0.294 -0.007 1 
0.443 0.316 -0.007 1 
0.451 -0.045 -0.01 1 
0.47 -0.305 -0.007 1 
0.457 0.134 -0.005 1 
0.471 -0.286 -0.006 1 
0.467 -0.276 -0.005 1 
0.469 -0.256 -0.005 1 
0.469 -0.247 -0.005 1 
0.469 -0.235 -0.005 1 
0.467 -0.231 -0.005 1 
0.464 -0.036 -0.003 1 
0.36 0.174 -0.015 1 
0.454 0.271 -0.004 1 
0.454 0.281 -0.005 1 
0.443 -0.246 -0.011 1 
0.456 0.292 -0.005 1 
0.455 0.297 -0.005 1 
0.453 0.301 -0.005 1 
0.451 0.312 -0.005 1 
0.448 0.322 -0.005 1 
0.468 -0.346 -0.005 1 
0.473 -0.335 -0.005 1 
0.43 0.134 -0.011 1 
0.444 0.262 -0.008 1 
0.473 -0.328 -0.005 1 
0.364 -0.079 -0.015 1 
0.473 -0.317 -0.005 1 
0.376 -0.005 0.016 1 
0.419 -0.146 -0.015 1 
0.459 0.114 -0.005 1 
0.379 0.004 0.016 1 
0.384 0.012 0.015 1 
0.464 0.11 -0.001 1 
0.463 0.123 -0.001 1 
0.454 0.325 -0.003 1 
0.468 0.344 -0.006 1 
0.474 -0.339 -0.003 1 
0.474 -0.329 -0.002 1 
0.474 -0.305 -0.002 1 
0.482 -0.016 -0.001 1 
0.472 -0.012 0 1 
0.36 -0.043 -0.015 1 
0.401 -0.005 0.014 1 
0.404 -0.001 0.013 1 
0.412 0.013 0.011 1 
0.463 0.024 0.002 1 
0.409 0.126 -0.015 1 
0.465 0.032 0.002 1 
0.465 0.094 0.001 1 
0.465 0.135 0.001 1 
0.462 0.204 0 1 
0.383 0.152 -0.014 1 
0.474 -0.315 0 1 
0.475 -0.286 0 1 
0.475 -0.237 0.001 1 
0.47 -0.227 0.002 1 
0.471 -0.216 0.002 1 
0.471 -0.205 0.002 1 
0.47 -0.195 0.003 1 
0.471 -0.187 0.003 1 
0.471 -0.167 0.003 1 
0.47 -0.155 0.003 1 
0.47 -0.147 0.003 1 
0.374 -0.206 -0.022 1 
0.419 0.112 -0.013 1 
0.469 -0.135 0.003 1 
0.467 -0.096 0.004 1 
0.467 -0.085 0.004 1 
0.468 -0.077 0.004 1 
0.41 -0.125 -0.016 1 
0.465 -0.015 0.004 1 
0.454 0.003 0.006 1 
0.453 0.008 0.006 1 
0.464 0.032 0.004 1 
0.465 0.13 0.003 1 
0.463 0.154 0.003 1 
0.463 0.162 0.003 1 
0.464 0.169 0.003 1 
0.465 0.178 0.003 1 
0.464 0.183 0.003 1 
0.464 0.191 0.003 1 
0.465 0.203 0.002 1 
0.463 0.222 0.002 1 
0.464 0.232 0.002 1 
0.473 -0.348 0.002 1 
0.477 -0.346 0.002 1 
0.359 0.104 -0.014 1 
0.476 -0.337 0.002 1 
0.42 -0.09 -0.014 1 
0.475 -0.326 0.003 1 
0.476 -0.307 0.003 1 
0.475 -0.299 0.003 1 
0.474 -0.295 0.003 1 
0.474 -0.285 0.004 1 
0.473 -0.275 0.004 1 
0.473 -0.266 0.004 1 
0.473 -0.236 0.004 1 
0.463 0.249 0.004 1 
0.462 0.272 0.004 1 
0.464 0.293 0.003 1 
0.463 0.302 0.003 1 
0.463 0.311 0.003 1 
0.463 0.321 0.003 1 
0.464 0.329 0.002 1 
0.465 0.334 0.002 1 
0.373 0.145 -0.014 1 
0.467 0.339 0.002 1 
0.468 0.345 0.001 1 
0.475 -0.261 0.007 1 
0.461 0.053 -0.005 1 
0.461 0.032 -0.005 1 
0.464 -0.009 0.012 1 
0.404 -0.156 -0.017 1 
0.465 -0.007 0.012 1 
0.465 -0.004 0.012 1 
0.464 0.003 0.012 1 
0.463 0.014 0.013 1 
0.463 0.024 0.013 1 
0.464 -0.047 -0.005 1 
0.463 -0.065 -0.005 1 
0.41 0.203 -0.013 1 
0.381 -0.147 -0.018 1 
0.464 -0.087 -0.005 1 
0.463 -0.105 -0.005 1 
0.38 0.185 -0.014 1 
0.414 0.117 -0.014 1 
0.464 -0.125 -0.005 1 
0.464 -0.147 -0.006 1 
0.465 0.102 0.004 1 
0.414 0.264 -0.013 1 
0.463 -0.165 -0.006 1 
0.463 -0.185 -0.006 1 
0.464 -0.226 -0.007 1 
0.451 -0.308 -0.014 1 
0.461 -0.247 -0.006 1 
0.461 -0.286 -0.01 1 
0.444 0.253 -0.007 1 
0.464 -0.325 -0.012 1 
0.372 0.237 -0.016 1 
0.462 -0.015 -0.015 1 
0.443 -0.275 -0.011 1 
0.414 0.112 -0.014 1 
0.373 0.113 -0.015 1 
0.469 -0.015 -0.02 1 
0.389 0.172 -0.015 1 
0.439 -0.268 -0.015 1 
0.464 0.014 0.015 1 
0.441 -0.316 -0.018 1 
0.401 -0.086 -0.015 1 
0.453 0.143 -0.007 1 
0.439 -0.245 -0.015 1 
0.468 -0.126 0.004 1 
0.457 0.142 -0.005 1 
0.394 0.262 -0.018 1 
0.364 0.064 -0.015 1 
0.409 0.002 0.012 1 
0.474 -0.245 0.004 1 
0.361 0.114 -0.013 1 
0.454 -0.019 -0.011 1 
0.421 -0.015 -0.014 1 
0.45 0.123 -0.008 1 
0.471 -0.296 -0.007 1 
0.463 0.243 0.002 1 
0.374 0.073 -0.015 1 
0.362 -0.066 -0.016 1 
0.442 0.153 -0.01 1 
0.435 -0.181 -0.015 1 
0.347 0.164 -0.014 1 
0.412 -0.036 -0.014 1 
0.363 0.144 -0.015 1 
0.464 0.34 0 1 
0.455 0.278 -0.005 1 
0.419 -0.205 -0.016 1 
0.453 -0.313 -0.015 1 
0.391 -0.196 -0.019 1 
0.439 0.213 -0.008 1 
0.361 0.133 -0.014 1 
0.373 -0.216 -0.024 1 
0.44 -0.045 -0.012 1 
0.464 0.083 0.004 1 
0.374 -0.186 -0.019 1 
0.428 0.293 -0.01 1 
0.37 -0.069 -0.015 1 
0.423 -0.275 -0.022 1 
0.433 0.114 -0.012 1 
0.479 -0.255 0 1 
0.384 0.087 -0.015 1 
0.408 0.277 -0.015 1 
0.456 0.153 -0.005 1 
0.393 0.203 -0.015 1 
0.403 0.214 -0.016 1 
0.475 -0.246 0.001 1 
0.464 0.094 0.004 1 
0.373 0.06 -0.014 1 
0.389 0.124 -0.015 1 
0.39 -0.236 -0.024 1 
0.463 0.043 -0.003 1 
0.373 0.151 -0.015 1 
0.38 0.234 -0.017 1 
0.396 -0.25 -0.025 1 
0.353 0.104 -0.014 1 
0.467 -0.026 -0.006 1 
0.401 0.113 -0.014 1 
0.414 0.224 -0.014 1 
0.399 -0.272 -0.025 1 
0.426 -0.165 -0.015 1 
0.392 -0.095 -0.015 1 
0.434 -0.235 -0.016 1 
0.372 0.094 -0.015 1 
0.433 -0.265 -0.019 1 
0.41 -0.056 -0.013 1 
0.384 0.063 -0.014 1 
0.419 0.173 -0.012 1 
0.413 -0.145 -0.015 1 
0.401 -0.165 -0.017 1 
0.423 -0.25 -0.018 1 
0.422 -0.165 -0.016 1 
0.409 0.124 -0.015 1 
0.464 0.132 0.004 1 
0.381 0.204 -0.015 1 
0.381 0.193 -0.015 1 
0.374 -0.046 -0.014 1 
0.407 -0.016 -0.015 1 
0.374 0.062 -0.015 1 
0.433 -0.216 -0.015 1 
0.361 0.164 -0.015 1 
0.413 0.174 -0.013 1 
0.394 0.254 -0.017 1 
0.463 -0.02 -0.008 1 
0.403 0.178 -0.014 1 
0.419 -0.137 -0.015 1 
0.463 -0.272 -0.007 1 
0.418 -0.096 -0.014 1 
0.343 -0.004 -0.005 1 
0.441 0.094 -0.011 1 
0.459 0.084 -0.005 1 
0.364 -0.092 -0.015 1 
0.466 0.114 0.003 1 
0.39 0.112 -0.015 1 
0.464 0.143 0.003 1 
0.364 -0.113 -0.015 1 
0.464 0.102 0 1 
0.391 -0.239 -0.025 1 
0.45 0.113 -0.008 1 
0.398 0.054 -0.015 1 
0.375 0.034 -0.015 1 
0.414 0.184 -0.013 1 
0.387 -0.035 -0.015 1 
0.451 -0.027 -0.01 1 
0.45 -0.037 -0.01 1 
0.408 0.044 -0.013 1 
0.423 0.262 -0.013 1 
0.424 0.143 -0.012 1 
0.43 -0.295 -0.019 1 
0.463 -0.031 -0.005 1 
0.404 -0.224 -0.019 1 
0.384 -0.087 -0.016 1 
0.444 -0.285 -0.015 1 
0.404 -0.183 -0.016 1 
0.405 0.075 -0.015 1 
0.44 0.022 -0.01 1 
0.454 0.274 -0.005 1 
0.393 -0.175 -0.019 1 
0.412 -0.175 -0.016 1 
0.399 -0.059 -0.014 1 
0.369 0.033 -0.015 1 
0.404 0.082 -0.015 1 
0.43 0.024 -0.012 1 
0.364 -0.096 -0.015 1 
0.384 -0.179 -0.018 1 
0.462 0.263 0.004 1 
0.379 -0.229 -0.025 1 
0.4 -0.096 -0.015 1 
0.438 -0.136 -0.012 1 
0.401 -0.127 -0.016 1 
0.42 0.256 -0.015 1 
0.383 0.133 -0.015 1 
0.391 -0.247 -0.025 1 
0.414 -0.12 -0.015 1 
0.449 -0.177 -0.011 1 
0.353 0.184 -0.015 1 
0.364 -0.045 -0.014 1 
0.433 0.104 -0.011 1 
0.372 -0.008 0.011 1 
0.372 0.232 -0.016 1 
0.433 -0.025 -0.013 1 
0.424 -0.189 -0.015 1 
0.361 -0.015 -0.013 1 
0.414 -0.209 -0.017 1 
0.43 0.033 -0.012 1 
0.363 -0.081 -0.014 1 
0.358 0.183 -0.015 1 
0.442 -0.305 -0.017 1 
0.424 0.016 0.009 1 
0.452 0.082 -0.008 1 
0.434 -0.258 -0.016 1 
0.374 -0.159 -0.018 1 
0.382 -0.195 -0.02 1 
0.377 0.223 -0.015 1 
0.394 0.214 -0.015 1 
0.42 -0.128 -0.015 1 
0.372 0.174 -0.015 1 
0.362 0.053 -0.014 1 
0.394 -0.255 -0.024 1 
0.37 0.089 -0.014 1 
0.358 0.055 -0.014 1 
0.465 0.172 0.003 1 
0.403 0.083 -0.014 1 
0.439 0.189 -0.007 1 
0.434 -0.165 -0.012 1 
0.454 0.023 -0.006 1 
0.409 0.083 -0.014 1 
0.467 -0.267 -0.005 1 
0.397 0.254 -0.016 1 
0.463 0.283 0.004 1 
0.362 0.14 -0.014 1 
0.404 -0.025 -0.014 1 
0.473 -0.256 0.004 1 
0.407 0.033 -0.013 1 
0.364 -0.115 -0.015 1 
0.4 0.204 -0.014 1 
0.379 0.063 -0.015 1 
0.415 -0.116 -0.015 1 
0.374 0.041 -0.015 1 
0.464 -0.095 -0.005 1 
0.434 0.209 -0.009 1 
0.391 -0.096 -0.014 1 
0.441 0.223 -0.008 1 
0.416 0.286 -0.015 1 
0.394 -0.165 -0.017 1 
0.414 -0.283 -0.022 1 
0.413 0.231 -0.014 1 
0.463 0.053 -0.003 1 
0.476 -0.317 0.003 1 
0.462 -0.207 -0.006 1 
0.454 -0.166 -0.009 1 
0.451 0.172 -0.007 1 
0.399 -0.026 -0.015 1 
0.379 0.173 -0.016 1 
0.381 0.094 -0.014 1 
0.455 0.164 -0.005 1 
0.424 -0.125 -0.013 1 
0.463 -0.276 -0.007 1 
0.401 -0.116 -0.016 1 
0.44 0.233 -0.009 1 
0.455 0.191 -0.006 1 
0.463 0.214 0.002 1 
0.433 0.241 -0.01 1 
0.471 -0.015 -0.007 1 
0.413 -0.021 -0.014 1 
0.433 -0.018 -0.013 1 
0.45 -0.326 -0.015 1 
0.464 -0.24 -0.007 1 
0.402 -0.245 -0.022 1 
0.383 -0.136 -0.017 1 
0.387 0.193 -0.015 1 
0.372 0.204 -0.017 1 
0.459 0.103 -0.005 1 
0.462 -0.306 -0.011 1 
0.393 -0.136 -0.018 1 
0.435 -0.013 -0.016 1 
0.36 0.212 -0.015 1 
0.372 -0.165 -0.018 1 
0.465 0.124 0.003 1 
0.402 0.094 -0.014 1 
0.471 -0.176 0.003 1 
0.343 0.003 0.017 2 
0.345 0.011 0.031 2 
0.344 0.01 0.027 2 
0.344 -0.005 0.029 2 
0.345 0.011 0.027 2 
0.344 -0.002 0.022 2 
0.344 -0.005 0.022 2 
0.344 0.01 0.02 2 
0.464 0.234 0.143 3 
0.479 -0.288 0.152 3 
0.464 0.243 0.143 3 
0.465 0.252 0.144 3 
0.465 0.262 0.144 3 
0.465 0.147 0.063 3 
0.466 0.272 0.144 3 
0.481 -0.338 0.154 3 
0.48 -0.326 0.153 3 
0.48 -0.316 0.153 3 
0.479 -0.305 0.152 3 
0.479 -0.295 0.152 3 
0.466 0.153 0.142 3 
0.465 0.231 0.143 3 
0.464 0.222 0.143 3 
0.465 0.219 0.143 3 
0.464 0.183 0.033 3 
0.465 0.214 0.143 3 
0.466 0.203 0.143 3 
0.466 0.194 0.143 3 
0.466 0.182 0.142 3 
0.466 0.173 0.142 3 
0.47 -0.155 0.124 3 
0.466 0.162 0.142 3 
0.475 -0.232 0.152 3 
0.464 0.163 0.063 3 
0.475 -0.235 0.152 3 
0.472 -0.268 0.013 3 
0.476 -0.257 0.153 3 
0.477 -0.267 0.153 3 
0.478 -0.278 0.154 3 
0.466 0.131 0.144 3 
0.466 0.123 0.144 3 
0.467 0.112 0.144 3 
0.475 -0.249 0.112 3 
0.467 0.104 0.144 3 
0.467 0.093 0.144 3 
0.467 0.082 0.144 3 
0.468 -0.055 0.144 3 
0.467 0.074 0.144 3 
0.467 0.052 0.144 3 
0.466 0.044 0.144 3 
0.467 0.033 0.144 3 
0.47 -0.146 0.074 3 
0.467 0.022 0.144 3 
0.466 0.003 0.144 3 
0.467 -0.006 0.144 3 
0.468 -0.015 0.144 3 
0.469 -0.025 0.144 3 
0.468 -0.047 0.144 3 
0.479 -0.305 0.143 3 
0.473 -0.215 0.142 3 
0.474 -0.225 0.143 3 
0.465 0.144 0.114 3 
0.474 -0.237 0.143 3 
0.475 -0.241 0.143 3 
0.475 -0.247 0.144 3 
0.475 -0.256 0.144 3 
0.464 0.213 0.137 3 
0.477 -0.277 0.142 3 
0.478 -0.287 0.143 3 
0.47 -0.207 0.014 3 
0.479 -0.295 0.143 3 
0.473 -0.206 0.142 3 
0.48 -0.316 0.144 3 
0.464 0.222 0.134 3 
0.464 0.213 0.134 3 
0.474 -0.267 0.124 3 
0.464 0.204 0.134 3 
0.465 0.198 0.134 3 
0.466 0.193 0.134 3 
0.466 0.184 0.134 3 
0.465 0.172 0.134 3 
0.465 0.164 0.134 3 
0.469 0.314 0.164 3 
0.472 -0.177 0.144 3 
0.474 -0.255 0.123 3 
0.468 -0.066 0.142 3 
0.465 0.022 0.103 3 
0.469 -0.077 0.142 3 
0.47 -0.086 0.142 3 
0.465 0.153 0.133 3 
0.47 -0.105 0.143 3 
0.47 -0.116 0.143 3 
0.47 -0.125 0.143 3 
0.471 -0.145 0.143 3 
0.471 -0.156 0.144 3 
0.471 -0.165 0.144 3 
0.466 0.142 0.142 3 
0.472 -0.185 0.144 3 
0.481 -0.345 0.151 3 
0.465 0.343 0.144 3 
0.467 0.331 0.144 3 
0.466 0.324 0.143 3 
0.466 0.313 0.143 3 
0.466 0.304 0.143 3 
0.466 0.284 0.142 3 
0.466 -0.015 0.084 3 
0.465 0.237 0.141 3 
0.472 -0.196 0.142 3 
0.466 0.173 0.153 3 
0.478 -0.298 0.164 3 
0.473 -0.354 0.064 3 
0.479 -0.305 0.164 3 
0.464 0.24 0.154 3 
0.465 0.178 0.084 3 
0.465 0.232 0.154 3 
0.465 0.223 0.154 3 
0.47 -0.135 0.082 3 
0.466 0.212 0.154 3 
0.466 0.203 0.154 3 
0.466 0.194 0.154 3 
0.465 0.182 0.153 3 
0.479 -0.286 0.164 3 
0.467 0.163 0.153 3 
0.467 0.154 0.153 3 
0.468 0.143 0.153 3 
0.465 0.124 0.063 3 
0.468 0.132 0.153 3 
0.468 0.124 0.153 3 
0.465 0.032 0.063 3 
0.467 0.112 0.153 3 
0.467 0.104 0.153 3 
0.467 0.093 0.153 3 
0.475 -0.265 0.144 3 
0.47 -0.166 0.033 3 
0.465 0.302 0.114 3 
0.468 0.303 0.163 3 
0.467 0.292 0.163 3 
0.465 0.262 0.063 3 
0.467 0.283 0.162 3 
0.467 0.273 0.162 3 
0.473 -0.186 0.162 3 
0.469 -0.105 0.104 3 
0.473 -0.256 0.052 3 
0.467 -0.036 0.044 3 
0.473 -0.195 0.162 3 
0.474 -0.205 0.163 3 
0.467 0.082 0.152 3 
0.474 -0.217 0.163 3 
0.475 -0.22 0.163 3 
0.473 -0.257 0.044 3 
0.473 -0.287 0.012 3 
0.476 -0.227 0.164 3 
0.477 -0.236 0.164 3 
0.477 -0.246 0.164 3 
0.471 0.351 0.164 3 
0.477 -0.258 0.162 3 
0.478 -0.268 0.163 3 
0.478 -0.278 0.163 3 
0.471 -0.165 0.152 3 
0.466 0.311 0.154 3 
0.467 0.302 0.154 3 
0.466 0.291 0.154 3 
0.465 0.284 0.153 3 
0.465 0.262 0.152 3 
0.465 0.253 0.152 3 
0.464 0.246 0.152 3 
0.464 0.234 0.151 3 
0.472 -0.137 0.152 3 
0.464 0.336 0.062 3 
0.472 -0.145 0.152 3 
0.471 -0.156 0.152 3 
0.482 -0.347 0.164 3 
0.473 -0.175 0.153 3 
0.472 -0.186 0.153 3 
0.472 -0.197 0.153 3 
0.465 0.232 0.063 3 
0.474 -0.216 0.154 3 
0.474 -0.228 0.154 3 
0.461 0.241 0.013 3 
0.467 0.346 0.153 3 
0.466 0.341 0.153 3 
0.468 0.333 0.153 3 
0.467 0.322 0.152 3 
0.463 0.332 0.062 3 
0.467 0.074 0.152 3 
0.468 0.063 0.153 3 
0.467 0.052 0.152 3 
0.468 0.044 0.153 3 
0.468 0.033 0.153 3 
0.467 0.022 0.152 3 
0.467 0.014 0.152 3 
0.467 0.003 0.152 3 
0.467 -0.006 0.152 3 
0.468 -0.015 0.152 3 
0.469 -0.025 0.153 3 
0.469 -0.055 0.153 3 
0.464 0.222 0.148 3 
0.469 -0.066 0.153 3 
0.47 -0.075 0.153 3 
0.471 -0.086 0.154 3 
0.471 -0.097 0.154 3 
0.473 -0.247 0.092 3 
0.471 -0.106 0.154 3 
0.471 -0.117 0.154 3 
0.471 -0.125 0.154 3 
0.481 -0.317 0.162 3 
0.482 -0.325 0.163 3 
0.483 -0.337 0.164 3 
0.466 0.313 0.123 3 
0.47 -0.086 0.123 3 
0.47 -0.097 0.123 3 
0.475 -0.29 0.093 3 
0.47 -0.105 0.123 3 
0.47 -0.127 0.124 3 
0.47 -0.136 0.124 3 
0.47 -0.147 0.124 3 
0.47 -0.167 0.124 3 
0.471 -0.176 0.124 3 
0.464 0.338 0.123 3 
0.466 0.333 0.123 3 
0.465 0.322 0.123 3 
0.469 -0.077 0.123 3 
0.465 0.302 0.122 3 
0.465 0.292 0.122 3 
0.464 0.285 0.122 3 
0.464 0.2 0.12 3 
0.464 0.194 0.12 3 
0.464 0.16 0.12 3 
0.464 0.059 0.119 3 
0.472 -0.185 0.122 3 
0.473 -0.197 0.122 3 
0.473 -0.206 0.122 3 
0.473 -0.215 0.123 3 
0.466 0.022 0.122 3 
0.465 0.172 0.123 3 
0.465 0.164 0.123 3 
0.465 0.153 0.122 3 
0.465 0.133 0.122 3 
0.466 0.114 0.122 3 
0.465 0.103 0.122 3 
0.466 0.092 0.122 3 
0.465 0.073 0.122 3 
0.465 0.062 0.122 3 
0.465 0.054 0.122 3 
0.465 0.043 0.122 3 
0.465 0.033 0.122 3 
0.474 -0.227 0.123 3 
0.468 -0.157 0.014 3 
0.467 0.014 0.122 3 
0.466 0.003 0.122 3 
0.466 -0.076 0.012 3 
0.467 -0.006 0.122 3 
0.466 -0.015 0.122 3 
0.467 -0.025 0.122 3 
0.467 -0.036 0.122 3 
0.467 -0.047 0.122 3 
0.467 -0.055 0.122 3 
0.468 -0.066 0.123 3 
0.464 0.274 0.054 3 
0.465 0.084 0.114 3 
0.476 -0.316 0.043 3 
0.464 0.073 0.114 3 
0.465 0.07 0.114 3 
0.465 0.062 0.114 3 
0.464 0.244 0.082 3 
0.465 0.054 0.114 3 
0.465 0.043 0.114 3 
0.465 0.033 0.114 3 
0.467 0.022 0.114 3 
0.466 0.014 0.114 3 
0.466 0.003 0.114 3 
0.465 0.092 0.114 3 
0.466 -0.006 0.114 3 
0.467 -0.015 0.114 3 
0.467 -0.025 0.114 3 
0.467 -0.036 0.114 3 
0.468 -0.047 0.114 3 
0.468 -0.058 0.114 3 
0.465 0.338 0.114 3 
0.466 0.333 0.114 3 
0.465 0.321 0.114 3 
0.465 0.311 0.114 3 
0.476 0.361 0.2 3 
0.464 0.174 0.114 3 
0.474 -0.236 0.123 3 
0.474 -0.245 0.123 3 
0.475 -0.274 0.124 3 
0.476 -0.288 0.122 3 
0.478 -0.306 0.123 3 
0.48 -0.329 0.124 3 
0.48 -0.336 0.124 3 
0.479 -0.345 0.124 3 
0.479 -0.356 0.124 3 
0.464 0.304 0.116 3 
0.465 0.152 0.084 3 
0.465 0.178 0.114 3 
0.465 0.184 0.123 3 
0.465 0.172 0.114 3 
0.479 -0.326 0.064 3 
0.464 0.163 0.114 3 
0.465 0.161 0.114 3 
0.465 0.153 0.114 3 
0.466 0.204 0.112 3 
0.466 0.134 0.114 3 
0.465 0.122 0.114 3 
0.464 0.294 0.082 3 
0.465 0.114 0.114 3 
0.465 0.103 0.114 3 
0.465 0.293 0.133 3 
0.47 -0.097 0.134 3 
0.469 -0.116 0.134 3 
0.481 -0.327 0.142 3 
0.481 -0.337 0.142 3 
0.482 -0.346 0.143 3 
0.463 0.34 0.134 3 
0.463 0.333 0.134 3 
0.474 -0.286 0.092 3 
0.465 0.325 0.134 3 
0.465 0.322 0.134 3 
0.465 0.342 0.123 3 
0.465 0.302 0.134 3 
0.47 -0.086 0.134 3 
0.465 0.283 0.133 3 
0.465 0.274 0.133 3 
0.465 0.261 0.133 3 
0.463 0.132 0.022 3 
0.464 0.254 0.132 3 
0.477 -0.308 0.084 3 
0.464 0.242 0.132 3 
0.464 0.254 0.124 3 
0.466 0.014 0.063 3 
0.465 0.234 0.132 3 
0.464 0.227 0.132 3 
0.465 0.014 0.133 3 
0.466 0.123 0.133 3 
0.466 0.114 0.133 3 
0.466 0.103 0.133 3 
0.466 0.092 0.133 3 
0.466 0.084 0.133 3 
0.466 -0.007 0.084 3 
0.466 0.073 0.133 3 
0.466 0.063 0.133 3 
0.465 0.054 0.133 3 
0.466 0.044 0.133 3 
0.465 0.033 0.133 3 
0.466 0.022 0.133 3 
0.47 -0.127 0.132 3 
0.466 0.003 0.133 3 
0.466 -0.006 0.133 3 
0.472 -0.216 0.064 3 
0.467 -0.015 0.133 3 
0.467 -0.025 0.133 3 
0.465 0.264 0.113 3 
0.467 -0.036 0.133 3 
0.467 -0.047 0.133 3 
0.467 -0.055 0.133 3 
0.468 -0.066 0.133 3 
0.469 -0.077 0.134 3 
0.482 -0.345 0.133 3 
0.478 -0.297 0.134 3 
0.465 0.243 0.127 3 
0.465 0.21 0.126 3 
0.464 0.161 0.125 3 
0.475 -0.274 0.13 3 
0.478 -0.346 0.064 3 
0.47 -0.166 0.044 3 
0.479 -0.308 0.132 3 
0.479 -0.318 0.132 3 
0.48 -0.329 0.133 3 
0.474 -0.276 0.044 3 
0.481 -0.337 0.133 3 
0.476 -0.285 0.133 3 
0.465 0.277 0.124 3 
0.465 0.273 0.124 3 
0.465 0.261 0.124 3 
0.464 0.242 0.124 3 
0.465 0.237 0.124 3 
0.464 0.233 0.123 3 
0.465 0.231 0.124 3 
0.464 0.224 0.123 3 
0.465 0.212 0.123 3 
0.465 0.204 0.123 3 
0.465 0.192 0.123 3 
0.474 -0.246 0.135 3 
0.477 -0.317 0.032 3 
0.47 -0.136 0.132 3 
0.471 -0.145 0.132 3 
0.471 -0.156 0.133 3 
0.471 -0.165 0.133 3 
0.471 -0.176 0.133 3 
0.471 -0.185 0.133 3 
0.473 -0.197 0.133 3 
0.473 -0.206 0.134 3 
0.473 -0.215 0.134 3 
0.465 0.203 0.082 3 
0.474 -0.227 0.134 3 
0.466 0.134 0.133 3 
0.474 -0.255 0.135 3 
0.474 -0.267 0.135 3 
0.465 0.343 0.132 3 
0.464 0.292 0.13 3 
0.464 0.257 0.13 3 
0.466 0.094 0.033 3 
0.474 -0.236 0.132 3 
0.474 -0.246 0.132 3 
0.474 -0.255 0.132 3 
0.474 -0.267 0.132 3 
0.475 -0.275 0.133 3 
0.472 -0.166 0.172 3 
0.472 -0.216 0.044 3 
0.484 -0.329 0.198 3 
0.474 -0.205 0.165 3 
0.474 0.358 0.193 3 
0.469 0.153 0.173 3 
0.47 0.221 0.184 3 
0.469 0.212 0.184 3 
0.469 0.203 0.183 3 
0.465 0.041 0.103 3 
0.47 0.192 0.184 3 
0.47 0.183 0.183 3 
0.47 0.174 0.183 3 
0.484 -0.315 0.197 3 
0.471 -0.136 0.143 3 
0.47 0.163 0.183 3 
0.47 0.154 0.183 3 
0.464 0.201 0.137 3 
0.47 0.142 0.182 3 
0.47 0.134 0.182 3 
0.475 -0.278 0.124 3 
0.471 0.123 0.182 3 
0.469 -0.105 0.134 3 
0.471 0.114 0.182 3 
0.471 0.103 0.182 3 
0.471 0.092 0.182 3 
0.465 0.253 0.074 3 
0.473 0.357 0.195 3 
0.471 0.351 0.194 3 
0.471 0.344 0.194 3 
0.471 0.333 0.193 3 
0.47 -0.146 0.093 3 
0.472 0.322 0.192 3 
0.471 0.314 0.192 3 
0.472 0.037 0.184 3 
0.467 0.112 0.164 3 
0.475 -0.316 0.014 3 
0.472 0.034 0.184 3 
0.472 -0.001 0.184 3 
0.466 -0.036 0.004 3 
0.474 -0.026 0.185 3 
0.474 -0.079 0.186 3 
0.468 0.132 0.164 3 
0.474 -0.09 0.186 3 
0.478 -0.245 0.192 3 
0.464 0.258 0.063 3 
0.479 -0.258 0.192 3 
0.468 -0.077 0.074 3 
0.479 -0.267 0.193 3 
0.48 -0.275 0.193 3 
0.481 -0.285 0.194 3 
0.484 -0.319 0.194 3 
0.466 0.233 0.163 3 
0.475 -0.096 0.183 3 
0.476 -0.105 0.184 3 
0.472 -0.167 0.102 3 
0.475 -0.116 0.184 3 
0.474 -0.118 0.183 3 
0.475 -0.127 0.184 3 
0.475 -0.136 0.184 3 
0.475 -0.147 0.184 3 
0.482 -0.296 0.192 3 
0.465 0.144 0.133 3 
0.483 -0.307 0.193 3 
0.475 -0.093 0.183 3 
0.484 -0.326 0.194 3 
0.471 0.291 0.184 3 
0.47 0.283 0.184 3 
0.469 0.273 0.183 3 
0.472 -0.225 0.052 3 
0.468 0.263 0.182 3 
0.468 0.253 0.182 3 
0.468 0.244 0.181 3 
0.469 0.233 0.181 3 
0.465 0.161 0.084 3 
0.474 -0.048 0.18 3 
0.473 -0.037 0.173 3 
0.472 0.084 0.182 3 
0.465 0.043 0.074 3 
0.471 0.072 0.181 3 
0.471 0.064 0.181 3 
0.471 0.053 0.181 3 
0.472 0.023 0.182 3 
0.473 0.012 0.182 3 
0.464 0.297 0.082 3 
0.472 -0.007 0.182 3 
0.479 -0.317 0.123 3 
0.472 -0.015 0.182 3 
0.473 -0.026 0.182 3 
0.487 -0.347 0.203 3 
0.475 -0.037 0.183 3 
0.474 -0.04 0.183 3 
0.476 -0.046 0.183 3 
0.475 -0.057 0.183 3 
0.474 -0.059 0.182 3 
0.475 -0.065 0.183 3 
0.474 -0.068 0.183 3 
0.474 -0.076 0.183 3 
0.464 0.301 0.111 3 
0.471 -0.352 0.102 3 
0.474 -0.087 0.183 3 
0.473 0.093 0.188 3 
0.472 0.164 0.189 3 
0.471 0.152 0.189 3 
0.466 0.084 0.122 3 
0.464 0.284 0.093 3 
0.471 0.143 0.188 3 
0.471 0.134 0.188 3 
0.464 0.057 0.108 3 
0.473 0.124 0.189 3 
0.473 0.073 0.188 3 
0.473 0.112 0.188 3 
0.468 0.284 0.174 3 
0.472 0.103 0.188 3 
0.47 0.174 0.189 3 
0.473 0.084 0.188 3 
0.473 0.062 0.188 3 
0.473 0.053 0.188 3 
0.473 0.042 0.188 3 
0.473 0.034 0.188 3 
0.475 0.026 0.189 3 
0.475 0.023 0.189 3 
0.464 0.182 0.054 3 
0.474 0.02 0.188 3 
0.474 0.012 0.188 3 
0.473 0.003 0.188 3 
0.471 0.272 0.193 3 
0.478 -0.296 0.122 3 
0.472 0.352 0.198 3 
0.471 0.344 0.197 3 
0.471 0.333 0.196 3 
0.472 0.323 0.196 3 
0.471 -0.155 0.102 3 
0.472 0.312 0.195 3 
0.473 0.303 0.195 3 
0.472 0.299 0.194 3 
0.464 0.183 0.114 3 
0.473 0.293 0.194 3 
0.472 0.282 0.193 3 
0.473 -0.007 0.188 3 
0.472 0.263 0.193 3 
0.47 0.249 0.191 3 
0.47 0.243 0.191 3 
0.47 0.234 0.191 3 
0.47 0.222 0.19 3 
0.468 -0.036 0.144 3 
0.469 0.212 0.189 3 
0.476 -0.297 0.023 3 
0.47 0.204 0.19 3 
0.471 0.192 0.19 3 
0.47 0.183 0.189 3 
0.48 -0.255 0.195 3 
0.478 -0.166 0.192 3 
0.468 -0.066 0.074 3 
0.478 -0.175 0.192 3 
0.478 -0.187 0.192 3 
0.478 -0.196 0.193 3 
0.478 -0.205 0.193 3 
0.473 -0.126 0.172 3 
0.479 -0.215 0.194 3 
0.478 -0.227 0.194 3 
0.478 -0.236 0.194 3 
0.465 0.246 0.116 3 
0.478 -0.245 0.195 3 
0.467 0.341 0.183 3 
0.48 -0.265 0.196 3 
0.48 -0.275 0.196 3 
0.463 0.322 0.054 3 
0.481 -0.286 0.197 3 
0.483 -0.297 0.199 3 
0.484 -0.305 0.199 3 
0.462 0.313 0.014 3 
0.485 -0.313 0.2 3 
0.485 -0.316 0.2 3 
0.486 -0.328 0.202 3 
0.486 -0.335 0.202 3 
0.476 -0.085 0.189 3 
0.474 -0.015 0.188 3 
0.475 -0.023 0.189 3 
0.475 -0.026 0.189 3 
0.476 -0.035 0.189 3 
0.475 -0.046 0.189 3 
0.476 -0.057 0.189 3 
0.473 -0.207 0.154 3 
0.476 -0.065 0.189 3 
0.468 -0.126 0.014 3 
0.477 -0.077 0.19 3 
0.47 -0.045 0.153 3 
0.466 0.313 0.134 3 
0.468 -0.055 0.063 3 
0.476 -0.096 0.189 3 
0.477 -0.105 0.19 3 
0.477 -0.117 0.19 3 
0.477 -0.355 0.052 3 
0.477 -0.125 0.19 3 
0.469 -0.036 0.153 3 
0.478 -0.137 0.191 3 
0.464 0.094 0.103 3 
0.478 -0.316 0.102 3 
0.478 -0.146 0.191 3 
0.478 -0.155 0.192 3 
0.467 0.154 0.164 3 
0.471 -0.165 0.163 3 
0.477 -0.228 0.173 3 
0.478 -0.237 0.173 3 
0.478 -0.247 0.174 3 
0.472 -0.205 0.083 3 
0.478 -0.256 0.174 3 
0.478 -0.269 0.174 3 
0.464 0.102 0.082 3 
0.468 0.348 0.171 3 
0.467 0.163 0.164 3 
0.467 -0.036 0.103 3 
0.465 0.282 0.082 3 
0.475 -0.215 0.172 3 
0.468 0.144 0.164 3 
0.468 0.124 0.164 3 
0.466 0.104 0.163 3 
0.467 0.093 0.164 3 
0.468 0.082 0.164 3 
0.468 0.074 0.164 3 
0.468 0.063 0.164 3 
0.465 0.218 0.118 3 
0.469 0.044 0.164 3 
0.469 0.033 0.164 3 
0.478 -0.325 0.082 3 
0.465 0.114 0.063 3 
0.467 0.234 0.172 3 
0.468 0.223 0.172 3 
0.468 0.214 0.172 3 
0.473 -0.135 0.172 3 
0.473 -0.146 0.172 3 
0.472 -0.157 0.172 3 
0.474 -0.176 0.173 3 
0.475 -0.182 0.174 3 
0.475 -0.185 0.174 3 
0.466 -0.087 0.012 3 
0.475 -0.197 0.174 3 
0.475 -0.206 0.174 3 
0.469 0.022 0.164 3 
0.482 -0.326 0.181 3 
0.484 -0.335 0.183 3 
0.485 -0.344 0.183 3 
0.484 -0.346 0.183 3 
0.464 0.344 0.173 3 
0.466 0.343 0.174 3 
0.468 0.331 0.174 3 
0.469 0.321 0.173 3 
0.469 0.311 0.173 3 
0.469 0.301 0.172 3 
0.474 -0.187 0.171 3 
0.472 -0.157 0.164 3 
0.47 -0.116 0.123 3 
0.466 0.174 0.162 3 
0.471 -0.086 0.162 3 
0.472 -0.095 0.163 3 
0.465 0.113 0.044 3 
0.472 -0.106 0.163 3 
0.464 0.283 0.023 3 
0.472 -0.117 0.163 3 
0.472 -0.126 0.163 3 
0.473 -0.135 0.163 3 
0.473 -0.146 0.164 3 
0.481 -0.355 0.131 3 
0.466 0.183 0.162 3 
0.474 -0.276 0.084 3 
0.473 -0.178 0.164 3 
0.466 0.123 0.122 3 
0.481 -0.318 0.172 3 
0.482 -0.326 0.172 3 
0.469 -0.166 0.022 3 
0.483 -0.337 0.173 3 
0.483 -0.345 0.173 3 
0.465 0.337 0.164 3 
0.467 0.329 0.164 3 
0.464 0.334 0.123 3 
0.467 0.063 0.144 3 
0.469 0.014 0.164 3 
0.468 0.003 0.163 3 
0.468 -0.006 0.164 3 
0.469 -0.015 0.164 3 
0.47 -0.026 0.164 3 
0.471 -0.037 0.164 3 
0.471 -0.045 0.164 3 
0.47 -0.056 0.164 3 
0.47 -0.067 0.164 3 
0.464 0.291 0.11 3 
0.47 -0.075 0.164 3 
0.474 -0.196 0.168 3 
0.473 -0.256 0.072 3 
0.479 -0.276 0.172 3 
0.479 -0.286 0.172 3 
0.479 -0.296 0.173 3 
0.467 0.261 0.164 3 
0.465 0.274 0.153 3 
0.467 0.252 0.164 3 
0.466 0.242 0.164 3 
0.467 0.224 0.163 3 
0.466 0.212 0.163 3 
0.467 0.204 0.163 3 
0.466 0.191 0.162 3 
0.479 -0.277 0.184 3 
0.464 0.294 0.085 3 
0.47 0.303 0.182 3 
0.474 -0.096 0.177 3 
0.474 -0.112 0.178 3 
0.474 -0.127 0.178 3 
0.474 -0.144 0.178 3 
0.474 -0.147 0.178 3 
0.464 0.203 0.033 3 
0.477 -0.237 0.182 3 
0.478 -0.247 0.182 3 
0.477 -0.256 0.182 3 
0.477 -0.265 0.183 3 
0.469 0.312 0.182 3 
0.484 -0.336 0.189 3 
0.484 -0.347 0.189 3 
0.468 0.202 0.174 3 
0.464 0.249 0.143 3 
0.468 0.193 0.174 3 
0.464 0.274 0.032 3 
0.469 0.182 0.174 3 
0.469 0.173 0.174 3 
0.468 0.164 0.174 3 
0.468 0.144 0.173 3 
0.468 0.133 0.173 3 
0.47 -0.177 0.074 3 
0.475 -0.156 0.182 3 
0.474 -0.158 0.181 3 
0.475 -0.165 0.182 3 
0.474 -0.167 0.182 3 
0.475 -0.176 0.182 3 
0.477 -0.186 0.183 3 
0.466 0.054 0.074 3 
0.476 -0.195 0.183 3 
0.467 0.014 0.144 3 
0.476 -0.207 0.184 3 
0.464 0.067 0.122 3 
0.477 -0.216 0.184 3 
0.475 -0.247 0.152 3 
0.465 0.054 0.004 3 
0.476 -0.225 0.184 3 
0.485 -0.334 0.192 3 
0.471 -0.195 0.052 3 
0.485 -0.337 0.192 3 
0.486 -0.345 0.193 3 
0.467 -0.007 0.044 3 
0.468 0.35 0.184 3 
0.467 -0.007 0.063 3 
0.469 0.332 0.183 3 
0.469 0.322 0.182 3 
0.481 -0.295 0.183 3 
0.466 0.103 0.044 3 
0.462 0.213 0.014 3 
0.472 -0.075 0.173 3 
0.473 -0.087 0.174 3 
0.474 -0.096 0.174 3 
0.473 -0.106 0.174 3 
0.464 0.242 0.104 3 
0.473 -0.115 0.174 3 
0.474 -0.176 0.176 3 
0.464 0.238 0.09 3 
0.48 -0.287 0.182 3 
0.466 0.294 0.142 3 
0.471 -0.067 0.173 3 
0.483 -0.307 0.184 3 
0.482 -0.316 0.184 3 
0.473 -0.188 0.094 3 
0.468 0.288 0.174 3 
0.468 0.272 0.174 3 
0.482 -0.309 0.174 3 
0.464 0.335 0.14 3 
0.467 0.264 0.173 3 
0.464 0.07 0.004 3 
0.467 0.252 0.173 3 
0.467 0.243 0.172 3 
0.47 0.034 0.173 3 
0.469 0.122 0.173 3 
0.47 -0.097 0.143 3 
0.469 0.113 0.173 3 
0.469 0.102 0.173 3 
0.465 0.144 0.122 3 
0.469 0.094 0.173 3 
0.47 0.083 0.173 3 
0.47 0.072 0.173 3 
0.469 0.064 0.172 3 
0.469 0.053 0.172 3 
0.469 0.044 0.172 3 
0.464 0.313 0.091 3 
0.468 0.323 0.164 3 
0.469 0.052 0.164 3 
0.47 0.023 0.173 3 
0.471 0.014 0.173 3 
0.47 0.003 0.173 3 
0.47 -0.007 0.173 3 
0.471 -0.015 0.173 3 
0.471 -0.026 0.173 3 
0.463 0.104 0.012 3 
0.473 -0.045 0.174 3 
0.472 -0.056 0.173 3 
0.466 0.003 0.103 3 
0.463 0.273 0.043 3 
0.478 -0.325 0.052 3 
0.479 -0.336 0.052 3 
0.465 0.287 0.048 3 
0.465 0.284 0.048 3 
0.465 0.158 0.046 3 
0.462 0.338 0.042 3 
0.461 0.333 0.042 3 
0.463 0.312 0.043 3 
0.463 0.302 0.043 3 
0.467 -0.066 0.044 3 
0.464 0.293 0.043 3 
0.464 0.283 0.043 3 
0.478 -0.318 0.052 3 
0.463 0.264 0.043 3 
0.467 -0.055 0.034 3 
0.463 0.222 0.024 3 
0.464 0.252 0.043 3 
0.464 0.243 0.043 3 
0.464 0.223 0.043 3 
0.464 0.214 0.043 3 
0.464 0.202 0.043 3 
0.464 0.194 0.044 3 
0.464 0.182 0.044 3 
0.464 0.174 0.044 3 
0.464 0.163 0.044 3 
0.47 -0.155 0.052 3 
0.468 -0.036 0.052 3 
0.468 -0.047 0.052 3 
0.468 -0.055 0.052 3 
0.468 -0.066 0.052 3 
0.468 -0.077 0.052 3 
0.467 -0.085 0.052 3 
0.468 -0.096 0.052 3 
0.469 -0.107 0.052 3 
0.469 -0.115 0.052 3 
0.47 -0.127 0.052 3 
0.47 -0.135 0.052 3 
0.47 -0.146 0.052 3 
0.465 0.158 0.044 3 
0.47 -0.166 0.052 3 
0.471 -0.175 0.052 3 
0.471 -0.187 0.052 3 
0.471 -0.216 0.052 3 
0.473 -0.235 0.052 3 
0.473 -0.247 0.052 3 
0.473 -0.266 0.052 3 
0.473 -0.275 0.052 3 
0.473 -0.285 0.052 3 
0.475 -0.295 0.052 3 
0.477 -0.307 0.052 3 
0.476 -0.306 0.044 3 
0.47 -0.135 0.044 3 
0.47 -0.146 0.044 3 
0.47 -0.155 0.044 3 
0.471 -0.175 0.044 3 
0.471 -0.187 0.044 3 
0.471 -0.195 0.044 3 
0.472 -0.205 0.044 3 
0.472 -0.225 0.044 3 
0.473 -0.235 0.044 3 
0.473 -0.247 0.044 3 
0.473 -0.266 0.044 3 
0.475 -0.295 0.044 3 
0.47 -0.127 0.044 3 
0.478 -0.328 0.043 3 
0.479 -0.336 0.043 3 
0.479 -0.347 0.043 3 
0.479 -0.358 0.043 3 
0.475 -0.282 0.041 3 
0.474 -0.288 0.041 3 
0.464 0.132 0.038 3 
0.463 0.339 0.034 3 
0.461 0.333 0.034 3 
0.462 0.321 0.034 3 
0.462 0.314 0.034 3 
0.466 0.024 0.044 3 
0.464 0.152 0.044 3 
0.465 0.149 0.044 3 
0.464 0.143 0.044 3 
0.465 0.141 0.044 3 
0.465 0.133 0.044 3 
0.474 -0.295 0.012 3 
0.465 0.124 0.044 3 
0.466 0.092 0.044 3 
0.466 0.084 0.044 3 
0.466 0.073 0.044 3 
0.466 0.054 0.044 3 
0.466 0.032 0.044 3 
0.462 0.282 0.012 3 
0.466 0.014 0.044 3 
0.467 0.003 0.044 3 
0.467 -0.015 0.044 3 
0.467 -0.025 0.044 3 
0.468 -0.047 0.044 3 
0.468 -0.055 0.044 3 
0.467 -0.077 0.044 3 
0.467 -0.085 0.044 3 
0.469 -0.096 0.044 3 
0.469 -0.107 0.044 3 
0.469 -0.115 0.044 3 
0.471 -0.147 0.063 3 
0.467 -0.036 0.063 3 
0.468 -0.047 0.063 3 
0.468 -0.066 0.063 3 
0.464 0.163 0.033 3 
0.468 -0.077 0.063 3 
0.468 -0.085 0.063 3 
0.468 -0.096 0.063 3 
0.468 -0.107 0.063 3 
0.469 -0.115 0.063 3 
0.478 -0.346 0.052 3 
0.469 -0.126 0.063 3 
0.47 -0.135 0.063 3 
0.467 -0.025 0.063 3 
0.471 -0.155 0.063 3 
0.47 -0.166 0.063 3 
0.472 -0.187 0.063 3 
0.472 -0.196 0.064 3 
0.475 -0.286 0.044 3 
0.472 -0.205 0.064 3 
0.471 -0.225 0.064 3 
0.472 -0.237 0.064 3 
0.473 -0.247 0.064 3 
0.473 -0.256 0.064 3 
0.472 -0.265 0.064 3 
0.464 0.174 0.063 3 
0.466 0.003 0.052 3 
0.464 0.246 0.063 3 
0.464 0.243 0.063 3 
0.465 0.241 0.063 3 
0.464 0.229 0.063 3 
0.465 0.224 0.063 3 
0.465 0.212 0.063 3 
0.465 0.203 0.063 3 
0.464 0.2 0.063 3 
0.464 0.194 0.063 3 
0.464 0.182 0.063 3 
0.465 0.18 0.063 3 
0.473 -0.275 0.064 3 
0.464 -0.036 0.012 3 
0.465 0.144 0.063 3 
0.465 0.133 0.063 3 
0.465 0.103 0.063 3 
0.465 0.094 0.063 3 
0.465 0.084 0.063 3 
0.466 0.073 0.063 3 
0.466 0.054 0.063 3 
0.466 0.024 0.063 3 
0.466 0.003 0.063 3 
0.467 -0.015 0.063 3 
0.465 0.094 0.052 3 
0.464 0.154 0.052 3 
0.465 0.206 0.052 3 
0.465 0.203 0.052 3 
0.464 0.174 0.052 3 
0.464 0.163 0.052 3 
0.465 0.149 0.052 3 
0.464 0.143 0.052 3 
0.465 0.141 0.052 3 
0.465 0.133 0.052 3 
0.464 0.121 0.052 3 
0.465 0.113 0.052 3 
0.465 0.103 0.052 3 
0.477 -0.355 0.055 3 
0.466 0.084 0.052 3 
0.466 0.073 0.052 3 
0.466 0.062 0.052 3 
0.466 0.054 0.052 3 
0.466 0.043 0.052 3 
0.466 0.032 0.052 3 
0.466 0.024 0.052 3 
0.466 0.014 0.052 3 
0.467 -0.007 0.052 3 
0.466 -0.015 0.052 3 
0.467 -0.025 0.052 3 
0.466 0.342 0.054 3 
0.473 -0.285 0.064 3 
0.475 -0.293 0.064 3 
0.475 -0.296 0.064 3 
0.464 0.243 0.054 3 
0.477 -0.305 0.064 3 
0.477 -0.317 0.064 3 
0.479 -0.336 0.064 3 
0.464 0.214 0.06 3 
0.464 0.143 0.06 3 
0.474 -0.355 0.061 3 
0.465 -0.036 0.007 3 
0.464 0.223 0.057 3 
0.464 0.302 0.034 3 
0.463 0.335 0.054 3 
0.464 0.303 0.054 3 
0.463 0.293 0.054 3 
0.464 0.283 0.054 3 
0.464 0.262 0.054 3 
0.464 0.252 0.054 3 
0.464 0.232 0.054 3 
0.464 0.223 0.054 3 
0.464 0.214 0.054 3 
0.464 0.202 0.054 3 
0.464 0.194 0.054 3 
0.476 -0.307 0.014 3 
0.47 -0.195 0.022 3 
0.47 -0.206 0.022 3 
0.473 -0.355 0.02 3 
0.464 0.11 0.02 3 
0.464 0.102 0.02 3 
0.464 0.024 0.02 3 
0.464 -0.039 0.02 3 
0.474 -0.285 0.018 3 
0.461 0.33 0.014 3 
0.462 0.323 0.014 3 
0.464 -0.047 0.018 3 
0.464 -0.055 0.018 3 
0.47 -0.186 0.022 3 
0.476 -0.327 0.014 3 
0.477 -0.335 0.014 3 
0.477 -0.345 0.014 3 
0.474 -0.353 0.014 3 
0.462 0.304 0.012 3 
0.462 0.294 0.012 3 
0.462 0.263 0.013 3 
0.462 0.254 0.013 3 
0.461 0.232 0.013 3 
0.462 0.224 0.013 3 
0.462 0.204 0.014 3 
0.465 -0.047 0.023 3 
0.464 0.054 0.023 3 
0.465 0.051 0.023 3 
0.464 0.038 0.023 3 
0.465 0.032 0.023 3 
0.464 0.03 0.023 3 
0.465 0.024 0.023 3 
0.465 0.014 0.023 3 
0.467 0.003 0.023 3 
0.467 -0.007 0.023 3 
0.466 -0.015 0.023 3 
0.465 -0.025 0.023 3 
0.465 -0.036 0.023 3 
0.462 0.193 0.014 3 
0.465 -0.055 0.023 3 
0.466 -0.066 0.023 3 
0.468 -0.077 0.023 3 
0.468 -0.096 0.023 3 
0.468 -0.107 0.023 3 
0.469 -0.115 0.023 3 
0.469 -0.126 0.023 3 
0.469 -0.138 0.022 3 
0.469 -0.146 0.022 3 
0.469 -0.157 0.022 3 
0.469 -0.177 0.022 3 
0.465 -0.025 0.007 3 
0.464 0.043 0.012 3 
0.465 -0.017 0.012 3 
0.464 -0.025 0.012 3 
0.464 -0.047 0.012 3 
0.464 -0.055 0.012 3 
0.465 -0.057 0.012 3 
0.466 -0.065 0.012 3 
0.466 -0.095 0.012 3 
0.466 -0.106 0.012 3 
0.467 -0.117 0.012 3 
0.465 0.043 0.009 3 
0.465 0.046 0.007 3 
0.463 0.053 0.012 3 
0.465 -0.047 0.007 3 
0.465 0.078 0.004 3 
0.465 0.073 0.004 3 
0.464 0.062 0.004 3 
0.465 0.043 0.004 3 
0.466 -0.025 0.004 3 
0.465 -0.047 0.004 3 
0.466 -0.055 0.004 3 
0.467 -0.066 0.004 3 
0.467 -0.107 0.004 3 
0.468 -0.115 0.004 3 
0.47 -0.215 0.014 3 
0.462 0.181 0.014 3 
0.462 0.173 0.014 3 
0.462 0.162 0.014 3 
0.462 0.154 0.014 3 
0.462 0.134 0.014 3 
0.464 -0.025 0.015 3 
0.468 -0.14 0.014 3 
0.468 -0.145 0.014 3 
0.468 -0.165 0.014 3 
0.468 -0.176 0.014 3 
0.468 -0.185 0.014 3 
0.469 -0.197 0.014 3 
0.464 0.062 0.023 3 
0.47 -0.227 0.013 3 
0.471 -0.237 0.013 3 
0.471 -0.246 0.013 3 
0.472 -0.255 0.013 3 
0.473 -0.275 0.012 3 
0.475 -0.299 0.012 3 
0.463 0.112 0.012 3 
0.463 0.094 0.012 3 
0.463 0.083 0.012 3 
0.463 0.072 0.012 3 
0.463 0.064 0.012 3 
0.468 -0.077 0.033 3 
0.466 0.054 0.033 3 
0.466 0.043 0.033 3 
0.466 0.032 0.034 3 
0.468 -0.085 0.023 3 
0.466 0.024 0.034 3 
0.466 0.014 0.034 3 
0.467 0.003 0.034 3 
0.467 -0.007 0.034 3 
0.467 -0.015 0.034 3 
0.467 -0.025 0.034 3 
0.467 -0.036 0.034 3 
0.467 -0.047 0.034 3 
0.466 0.062 0.033 3 
0.468 -0.085 0.034 3 
0.469 -0.096 0.033 3 
0.469 -0.107 0.033 3 
0.469 -0.115 0.033 3 
0.464 0.121 0.014 3 
0.469 -0.126 0.033 3 
0.47 -0.135 0.033 3 
0.471 -0.147 0.033 3 
0.47 -0.155 0.033 3 
0.47 -0.177 0.033 3 
0.47 -0.186 0.033 3 
0.464 0.214 0.032 3 
0.464 0.293 0.034 3 
0.464 0.283 0.034 3 
0.478 -0.332 0.034 3 
0.478 -0.335 0.034 3 
0.479 -0.347 0.034 3 
0.478 -0.357 0.034 3 
0.463 0.261 0.032 3 
0.464 0.253 0.032 3 
0.464 0.244 0.032 3 
0.463 0.234 0.032 3 
0.465 0.059 0.004 3 
0.463 0.222 0.032 3 
0.47 -0.195 0.033 3 
0.464 0.194 0.033 3 
0.464 0.174 0.033 3 
0.464 0.154 0.033 3 
0.464 0.143 0.033 3 
0.465 0.136 0.033 3 
0.465 0.133 0.033 3 
0.464 0.13 0.033 3 
0.465 0.124 0.033 3 
0.466 0.114 0.033 3 
0.466 0.103 0.033 3 
0.466 0.073 0.033 3 
0.463 0.174 0.022 3 
0.472 -0.226 0.024 3 
0.472 -0.256 0.024 3 
0.473 -0.265 0.024 3 
0.474 -0.275 0.024 3 
0.475 -0.283 0.024 3 
0.475 -0.286 0.024 3 
0.476 -0.306 0.023 3 
0.476 -0.316 0.023 3 
0.477 -0.328 0.023 3 
0.478 -0.336 0.023 3 
0.475 -0.357 0.023 3 
0.463 0.182 0.022 3 
0.471 -0.222 0.024 3 
0.463 0.162 0.022 3 
0.463 0.154 0.022 3 
0.463 0.143 0.022 3 
0.465 0.124 0.022 3 
0.465 0.113 0.022 3 
0.465 0.102 0.023 3 
0.465 0.094 0.023 3 
0.464 0.086 0.023 3 
0.464 0.083 0.023 3 
0.464 0.072 0.023 3 
0.465 0.064 0.023 3 
0.464 0.124 0.028 3 
0.471 -0.207 0.033 3 
0.471 -0.216 0.033 3 
0.472 -0.226 0.033 3 
0.472 -0.235 0.033 3 
0.473 -0.247 0.033 3 
0.472 -0.256 0.033 3 
0.473 -0.266 0.032 3 
0.474 -0.275 0.032 3 
0.475 -0.279 0.032 3 
0.475 -0.286 0.032 3 
0.475 -0.295 0.032 3 
0.477 -0.307 0.032 3 
0.465 0.253 0.063 3 
0.464 0.34 0.022 3 
0.461 0.33 0.023 3 
0.462 0.324 0.023 3 
0.473 -0.355 0.014 3 
0.463 0.314 0.023 3 
0.463 0.301 0.023 3 
0.463 0.264 0.024 3 
0.464 0.253 0.024 3 
0.463 0.243 0.024 3 
0.463 0.234 0.024 3 
0.464 0.203 0.024 3 
0.464 0.317 0.099 3 
0.473 -0.188 0.103 3 
0.472 -0.196 0.102 3 
0.472 -0.205 0.103 3 
0.472 -0.217 0.103 3 
0.473 -0.226 0.103 3 
0.474 -0.236 0.103 3 
0.474 -0.245 0.103 3 
0.474 -0.257 0.104 3 
0.473 -0.266 0.104 3 
0.475 -0.277 0.104 3 
0.476 -0.288 0.104 3 
0.464 0.333 0.1 3 
0.472 -0.176 0.102 3 
0.466 0.302 0.1 3 
0.465 0.292 0.099 3 
0.464 0.232 0.098 3 
0.462 0.272 0.013 3 
0.464 0.1 0.098 3 
0.474 -0.276 0.101 3 
0.476 -0.297 0.102 3 
0.477 -0.305 0.102 3 
0.479 -0.327 0.102 3 
0.479 -0.338 0.103 3 
0.479 -0.345 0.103 3 
0.465 0.324 0.103 3 
0.469 -0.085 0.104 3 
0.463 0.234 0.043 3 
0.469 -0.096 0.104 3 
0.47 -0.116 0.104 3 
0.465 0.272 0.063 3 
0.47 -0.127 0.104 3 
0.469 -0.135 0.104 3 
0.472 -0.235 0.024 3 
0.469 -0.146 0.104 3 
0.465 0.341 0.103 3 
0.464 0.337 0.103 3 
0.465 0.331 0.103 3 
0.478 -0.357 0.103 3 
0.465 0.314 0.102 3 
0.464 0.31 0.102 3 
0.464 0.3 0.102 3 
0.464 0.294 0.102 3 
0.464 0.284 0.102 3 
0.461 0.333 0.082 3 
0.464 0.272 0.102 3 
0.465 0.236 0.101 3 
0.465 0.172 0.101 3 
0.478 -0.346 0.022 3 
0.465 0.086 0.1 3 
0.466 0.033 0.092 3 
0.465 0.133 0.092 3 
0.466 0.122 0.093 3 
0.466 0.114 0.093 3 
0.465 0.103 0.092 3 
0.464 0.092 0.092 3 
0.465 0.089 0.092 3 
0.465 0.084 0.092 3 
0.465 0.073 0.092 3 
0.465 0.062 0.092 3 
0.464 0.124 0.02 3 
0.465 0.054 0.092 3 
0.466 0.043 0.092 3 
0.466 0.144 0.093 3 
0.465 0.022 0.092 3 
0.466 0.014 0.092 3 
0.466 0.003 0.092 3 
0.466 -0.007 0.092 3 
0.466 -0.015 0.092 3 
0.468 -0.025 0.093 3 
0.468 -0.036 0.093 3 
0.468 -0.047 0.093 3 
0.468 -0.055 0.093 3 
0.468 -0.066 0.093 3 
0.469 -0.077 0.093 3 
0.464 0.263 0.093 3 
0.466 0.062 0.044 3 
0.464 0.34 0.094 3 
0.463 0.332 0.094 3 
0.465 0.328 0.094 3 
0.464 0.323 0.094 3 
0.464 -0.015 0.012 3 
0.465 0.314 0.094 3 
0.465 0.304 0.094 3 
0.465 0.292 0.094 3 
0.465 0.279 0.093 3 
0.465 0.043 0.023 3 
0.464 0.272 0.093 3 
0.468 -0.077 0.104 3 
0.464 0.254 0.093 3 
0.465 0.244 0.093 3 
0.465 0.233 0.093 3 
0.465 0.224 0.093 3 
0.465 0.212 0.093 3 
0.465 0.203 0.093 3 
0.465 0.192 0.093 3 
0.465 0.183 0.093 3 
0.465 0.172 0.093 3 
0.465 0.163 0.093 3 
0.465 0.152 0.093 3 
0.463 0.213 0.024 3 
0.472 -0.196 0.114 3 
0.473 -0.206 0.114 3 
0.474 -0.215 0.114 3 
0.474 -0.227 0.114 3 
0.474 -0.276 0.115 3 
0.464 0.314 0.111 3 
0.464 0.282 0.11 3 
0.464 0.26 0.11 3 
0.465 0.227 0.11 3 
0.464 0.051 0.108 3 
0.464 0.043 0.108 3 
0.47 -0.177 0.063 3 
0.472 -0.176 0.113 3 
0.474 -0.236 0.112 3 
0.474 -0.245 0.112 3 
0.475 -0.255 0.112 3 
0.474 -0.258 0.112 3 
0.474 -0.267 0.112 3 
0.475 -0.277 0.113 3 
0.475 -0.287 0.113 3 
0.477 -0.295 0.113 3 
0.478 -0.306 0.114 3 
0.479 -0.317 0.114 3 
0.479 -0.327 0.114 3 
0.469 -0.077 0.112 3 
0.464 0.032 0.012 3 
0.465 0.283 0.113 3 
0.465 0.273 0.113 3 
0.464 0.251 0.113 3 
0.464 0.242 0.112 3 
0.464 0.233 0.112 3 
0.465 0.224 0.112 3 
0.462 0.321 0.043 3 
0.466 0.213 0.112 3 
0.465 0.192 0.112 3 
0.464 0.186 0.112 3 
0.469 -0.066 0.112 3 
0.474 -0.245 0.084 3 
0.469 -0.085 0.112 3 
0.468 -0.066 0.033 3 
0.47 -0.097 0.112 3 
0.47 -0.105 0.112 3 
0.47 -0.116 0.113 3 
0.47 -0.127 0.113 3 
0.47 -0.136 0.113 3 
0.472 -0.187 0.114 3 
0.47 -0.147 0.113 3 
0.47 -0.155 0.113 3 
0.471 -0.167 0.113 3 
0.464 0.046 0.103 3 
0.465 0.144 0.103 3 
0.465 0.133 0.103 3 
0.466 0.122 0.103 3 
0.466 0.114 0.103 3 
0.466 0.043 0.044 3 
0.465 0.103 0.103 3 
0.464 0.083 0.103 3 
0.465 0.081 0.103 3 
0.465 0.073 0.103 3 
0.465 0.062 0.103 3 
0.469 -0.096 0.082 3 
0.465 0.054 0.103 3 
0.465 0.152 0.103 3 
0.464 0.043 0.103 3 
0.471 -0.207 0.052 3 
0.466 0.033 0.103 3 
0.466 0.014 0.103 3 
0.466 -0.006 0.103 3 
0.464 0.191 0.084 3 
0.466 -0.015 0.103 3 
0.467 -0.025 0.103 3 
0.468 -0.047 0.104 3 
0.468 -0.055 0.104 3 
0.468 -0.066 0.104 3 
0.464 0.254 0.104 3 
0.473 0.351 0.11 3 
0.464 0.272 0.107 3 
0.464 0.1 0.106 3 
0.464 0.089 0.106 3 
0.474 -0.276 0.11 3 
0.479 -0.338 0.112 3 
0.48 -0.346 0.112 3 
0.472 -0.247 0.024 3 
0.478 -0.355 0.112 3 
0.464 0.337 0.106 3 
0.464 0.334 0.106 3 
0.464 0.257 0.104 3 
0.469 -0.085 0.093 3 
0.463 0.322 0.082 3 
0.465 0.233 0.104 3 
0.465 0.224 0.104 3 
0.466 0.213 0.104 3 
0.466 0.204 0.104 3 
0.465 0.192 0.104 3 
0.465 0.183 0.104 3 
0.464 0.177 0.103 3 
0.464 0.174 0.103 3 
0.464 0.163 0.103 3 
0.465 0.158 0.103 3 
0.465 0.114 0.074 3 
0.465 0.203 0.074 3 
0.464 0.194 0.074 3 
0.464 0.183 0.074 3 
0.464 0.174 0.074 3 
0.465 0.169 0.074 3 
0.464 0.163 0.073 3 
0.465 0.158 0.074 3 
0.465 0.152 0.074 3 
0.464 0.143 0.073 3 
0.465 0.141 0.074 3 
0.465 0.133 0.074 3 
0.466 0.122 0.074 3 
0.465 0.212 0.074 3 
0.464 0.102 0.073 3 
0.465 0.097 0.074 3 
0.465 0.094 0.074 3 
0.465 0.084 0.074 3 
0.465 0.073 0.074 3 
0.466 0.062 0.074 3 
0.466 0.033 0.074 3 
0.466 0.022 0.074 3 
0.466 0.014 0.074 3 
0.466 0.003 0.074 3 
0.467 -0.007 0.074 3 
0.461 0.333 0.074 3 
0.476 -0.317 0.084 3 
0.465 0.256 0.079 3 
0.465 0.244 0.079 3 
0.466 0.062 0.063 3 
0.464 0.217 0.079 3 
0.464 0.197 0.079 3 
0.464 0.067 0.079 3 
0.475 -0.283 0.081 3 
0.48 -0.337 0.082 3 
0.479 -0.347 0.082 3 
0.477 -0.355 0.082 3 
0.462 0.338 0.074 3 
0.467 -0.015 0.074 3 
0.462 0.321 0.074 3 
0.463 0.312 0.074 3 
0.464 0.303 0.074 3 
0.464 0.294 0.074 3 
0.464 0.284 0.074 3 
0.464 0.272 0.074 3 
0.465 0.262 0.074 3 
0.464 0.259 0.074 3 
0.465 0.244 0.074 3 
0.465 0.232 0.074 3 
0.465 0.224 0.074 3 
0.474 -0.286 0.07 3 
0.475 -0.286 0.072 3 
0.476 -0.297 0.073 3 
0.477 -0.305 0.073 3 
0.477 -0.315 0.073 3 
0.478 -0.325 0.073 3 
0.479 -0.336 0.073 3 
0.479 -0.347 0.073 3 
0.475 -0.357 0.073 3 
0.465 0.269 0.068 3 
0.464 0.252 0.068 3 
0.464 0.2 0.068 3 
0.465 0.175 0.068 3 
0.473 -0.275 0.072 3 
0.474 -0.355 0.07 3 
0.464 0.243 0.065 3 
0.473 -0.354 0.067 3 
0.466 0.342 0.062 3 
0.463 0.322 0.062 3 
0.463 0.312 0.062 3 
0.464 0.303 0.062 3 
0.464 0.294 0.062 3 
0.463 0.283 0.062 3 
0.465 0.275 0.063 3 
0.464 0.265 0.063 3 
0.473 -0.235 0.072 3 
0.467 -0.025 0.074 3 
0.466 -0.036 0.074 3 
0.468 -0.055 0.074 3 
0.469 -0.085 0.074 3 
0.469 -0.096 0.074 3 
0.469 -0.107 0.074 3 
0.469 -0.116 0.074 3 
0.47 -0.127 0.074 3 
0.47 -0.135 0.074 3 
0.471 -0.155 0.074 3 
0.47 -0.166 0.074 3 
0.465 0.341 0.071 3 
0.476 -0.297 0.084 3 
0.465 0.192 0.071 3 
0.464 0.149 0.071 3 
0.472 -0.187 0.072 3 
0.472 -0.196 0.072 3 
0.472 -0.205 0.072 3 
0.466 0.084 0.033 3 
0.471 -0.216 0.072 3 
0.465 0.124 0.052 3 
0.472 -0.225 0.072 3 
0.473 -0.247 0.072 3 
0.473 -0.266 0.072 3 
0.464 0.174 0.084 3 
0.478 -0.316 0.093 3 
0.479 -0.327 0.094 3 
0.479 -0.337 0.094 3 
0.48 -0.348 0.094 3 
0.477 -0.355 0.094 3 
0.465 0.247 0.088 3 
0.466 0.043 0.063 3 
0.464 0.171 0.087 3 
0.464 0.102 0.087 3 
0.464 0.211 0.084 3 
0.465 0.189 0.084 3 
0.464 0.183 0.084 3 
0.477 -0.305 0.093 3 
0.462 0.331 0.054 3 
0.464 0.163 0.084 3 
0.465 0.144 0.084 3 
0.466 0.133 0.084 3 
0.466 0.122 0.084 3 
0.466 0.114 0.084 3 
0.465 0.103 0.084 3 
0.464 0.094 0.084 3 
0.465 0.092 0.084 3 
0.466 0.084 0.084 3 
0.462 0.338 0.014 3 
0.464 0.232 0.09 3 
0.47 -0.097 0.093 3 
0.469 -0.107 0.093 3 
0.469 -0.116 0.093 3 
0.469 -0.127 0.093 3 
0.464 0.194 0.024 3 
0.469 -0.135 0.093 3 
0.47 -0.155 0.094 3 
0.472 -0.167 0.094 3 
0.472 -0.176 0.094 3 
0.473 -0.197 0.094 3 
0.472 -0.205 0.094 3 
0.473 -0.217 0.094 3 
0.465 0.073 0.084 3 
0.464 0.223 0.09 3 
0.464 0.214 0.09 3 
0.473 -0.226 0.092 3 
0.473 -0.235 0.092 3 
0.472 -0.256 0.092 3 
0.463 0.312 0.054 3 
0.473 -0.266 0.092 3 
0.474 -0.276 0.092 3 
0.475 -0.283 0.093 3 
0.464 0.293 0.023 3 
0.475 -0.296 0.093 3 
0.47 -0.155 0.083 3 
0.467 -0.025 0.082 3 
0.466 -0.036 0.082 3 
0.467 -0.047 0.082 3 
0.468 -0.055 0.082 3 
0.468 -0.066 0.082 3 
0.469 -0.077 0.082 3 
0.469 -0.085 0.082 3 
0.469 -0.107 0.082 3 
0.468 -0.115 0.082 3 
0.469 -0.127 0.082 3 
0.464 0.154 0.063 3 
0.47 -0.146 0.083 3 
0.464 0.105 0.082 3 
0.471 -0.166 0.083 3 
0.471 -0.175 0.083 3 
0.472 -0.187 0.083 3 
0.473 -0.197 0.083 3 
0.472 -0.216 0.083 3 
0.473 -0.226 0.083 3 
0.473 -0.235 0.083 3 
0.472 -0.256 0.083 3 
0.473 -0.266 0.084 3 
0.462 0.142 0.014 3 
0.475 -0.287 0.084 3 
0.465 0.304 0.082 3 
0.467 -0.047 0.074 3 
0.465 0.062 0.084 3 
0.465 0.342 0.008 3 
0.465 0.054 0.084 3 
0.466 0.043 0.084 3 
0.466 0.033 0.084 3 
0.466 0.022 0.084 3 
0.466 0.014 0.084 3 
0.466 0.003 0.084 3 
0.461 0.337 0.082 3 
0.464 0.313 0.082 3 
0.465 0.308 0.082 3 
0.465 0.292 0.113 3 
0.465 0.288 0.082 3 
0.464 0.275 0.082 3 
0.464 0.272 0.082 3 
0.463 0.262 0.082 3 
0.465 0.253 0.082 3 
0.464 0.232 0.082 3 
0.465 0.23 0.082 3 
0.465 0.224 0.082 3 
0.463 0.273 0.024 3 
0.465 0.206 0.082 3 
0.464 0.152 0.082 3 
