# .PCD v0.7 - Point Cloud Data file
FIELDS x y z intensity
SIZE 4 4 4 4
TYPE F F F F
COUNT 1 1 1 1
WIDTH 2523
HEIGHT 1
VIEWPOINT 0 0 0 1 0 0 0
POINTS 2523
DATA ascii
0.596 -0.048 0.135 0 
0.599 -0.021 0.139 0 
0.598 -0.033 0.131 0 
0.371 -0.235 -0.024 1 
0.373 -0.235 -0.025 1 
0.373 -0.225 -0.024 1 
0.364 -0.165 -0.019 1 
0.364 -0.155 -0.018 1 
0.363 -0.145 -0.018 1 
0.362 -0.136 -0.017 1 
0.359 -0.125 -0.016 1 
0.354 -0.055 -0.012 1 
0.354 -0.045 -0.012 1 
0.353 -0.036 -0.012 1 
0.333 0.004 -0.005 1 
0.334 0.01 -0.005 1 
0.353 0.064 -0.013 1 
0.353 0.073 -0.013 1 
0.353 0.083 -0.013 1 
0.353 0.094 -0.013 1 
0.351 0.103 -0.013 1 
0.352 0.144 -0.015 1 
0.351 0.152 -0.015 1 
0.349 0.154 -0.014 1 
0.343 0.202 -0.015 1 
0.362 -0.108 -0.014 1 
0.364 -0.105 -0.015 1 
0.361 -0.085 -0.014 1 
0.362 -0.066 -0.014 1 
0.353 -0.026 -0.01 1 
0.354 0.03 -0.011 1 
0.354 0.042 -0.011 1 
0.354 0.11 -0.012 1 
0.354 0.123 -0.013 1 
0.353 0.133 -0.013 1 
0.354 0.139 -0.013 1 
0.35 0.173 -0.014 1 
0.352 0.183 -0.015 1 
0.382 -0.247 -0.025 1 
0.383 -0.236 -0.024 1 
0.382 -0.225 -0.023 1 
0.374 -0.195 -0.02 1 
0.372 -0.186 -0.019 1 
0.373 -0.175 -0.018 1 
0.374 -0.146 -0.018 1 
0.373 -0.136 -0.017 1 
0.373 -0.126 -0.017 1 
0.369 -0.116 -0.015 1 
0.369 -0.096 -0.015 1 
0.368 -0.081 -0.014 1 
0.362 -0.055 -0.012 1 
0.362 -0.036 -0.012 1 
0.352 -0.016 -0.008 1 
0.342 0.014 -0.005 1 
0.344 0.016 -0.006 1 
0.364 0.07 -0.013 1 
0.364 0.084 -0.014 1 
0.363 0.093 -0.013 1 
0.359 0.134 -0.013 1 
0.361 0.154 -0.015 1 
0.358 0.166 -0.014 1 
0.356 0.181 -0.014 1 
0.354 0.202 -0.015 1 
0.353 0.203 -0.014 1 
0.353 0.211 -0.015 1 
0.353 0.216 -0.015 1 
0.389 -0.258 -0.025 1 
0.391 -0.234 -0.025 1 
0.377 -0.195 -0.019 1 
0.373 -0.091 -0.014 1 
0.374 -0.085 -0.015 1 
0.374 -0.083 -0.015 1 
0.369 -0.067 -0.013 1 
0.361 -0.025 -0.01 1 
0.363 0.044 -0.011 1 
0.369 0.083 -0.013 1 
0.371 0.103 -0.015 1 
0.369 0.117 -0.014 1 
0.371 0.124 -0.015 1 
0.369 0.133 -0.015 1 
0.363 0.189 -0.015 1 
0.361 0.204 -0.015 1 
0.395 -0.267 -0.025 1 
0.393 -0.246 -0.024 1 
0.393 -0.236 -0.023 1 
0.39 -0.225 -0.022 1 
0.384 -0.155 -0.017 1 
0.381 -0.126 -0.016 1 
0.383 -0.115 -0.016 1 
0.379 -0.097 -0.015 1 
0.38 -0.076 -0.015 1 
0.374 -0.057 -0.012 1 
0.373 -0.045 -0.012 1 
0.372 -0.036 -0.011 1 
0.36 -0.015 -0.008 1 
0.352 -0.006 -0.005 1 
0.354 0.019 -0.006 1 
0.364 0.025 -0.009 1 
0.374 0.114 -0.014 1 
0.376 0.123 -0.015 1 
0.369 0.144 -0.013 1 
0.374 0.156 -0.015 1 
0.372 0.183 -0.016 1 
0.371 0.19 -0.016 1 
0.363 0.222 -0.015 1 
0.363 0.227 -0.015 1 
0.392 -0.218 -0.02 1 
0.383 -0.095 -0.014 1 
0.384 -0.091 -0.014 1 
0.381 -0.067 -0.013 1 
0.381 -0.055 -0.013 1 
0.379 -0.047 -0.012 1 
0.374 0.043 -0.011 1 
0.382 0.084 -0.014 1 
0.382 0.098 -0.014 1 
0.383 0.103 -0.015 1 
0.383 0.105 -0.015 1 
0.381 0.114 -0.014 1 
0.381 0.124 -0.014 1 
0.38 0.138 -0.015 1 
0.38 0.163 -0.015 1 
0.374 0.222 -0.016 1 
0.403 -0.265 -0.023 1 
0.374 0.047 -0.011 1 
0.402 -0.256 -0.022 1 
0.402 -0.248 -0.022 1 
0.394 -0.206 -0.018 1 
0.392 -0.126 -0.015 1 
0.392 -0.116 -0.015 1 
0.394 -0.106 -0.015 1 
0.393 -0.085 -0.015 1 
0.393 -0.083 -0.015 1 
0.39 -0.075 -0.014 1 
0.384 -0.038 -0.012 1 
0.382 -0.026 -0.011 1 
0.373 -0.016 -0.008 1 
0.367 -0.01 -0.006 1 
0.345 0.014 0 1 
0.359 0.019 -0.004 1 
0.364 0.021 -0.006 1 
0.372 0.028 -0.008 1 
0.38 0.044 -0.011 1 
0.383 0.053 -0.012 1 
0.384 0.065 -0.012 1 
0.384 0.144 -0.014 1 
0.384 0.157 -0.014 1 
0.379 0.184 -0.014 1 
0.409 -0.266 -0.022 1 
0.414 -0.258 -0.023 1 
0.383 -0.215 -0.019 1 
0.402 -0.227 -0.019 1 
0.398 -0.205 -0.017 1 
0.401 -0.195 -0.018 1 
0.401 -0.156 -0.016 1 
0.401 -0.105 -0.016 1 
0.401 -0.096 -0.015 1 
0.399 -0.083 -0.015 1 
0.392 -0.066 -0.012 1 
0.393 -0.058 -0.013 1 
0.392 -0.045 -0.012 1 
0.393 -0.035 -0.012 1 
0.391 -0.025 -0.012 1 
0.383 -0.016 -0.01 1 
0.379 -0.005 -0.008 1 
0.347 0.016 0.001 1 
0.384 0.031 -0.01 1 
0.39 0.063 -0.012 1 
0.391 0.073 -0.013 1 
0.393 0.084 -0.013 1 
0.392 0.094 -0.013 1 
0.392 0.103 -0.013 1 
0.393 0.114 -0.014 1 
0.392 0.124 -0.014 1 
0.39 0.144 -0.014 1 
0.391 0.164 -0.015 1 
0.373 0.153 -0.015 1 
0.381 0.232 -0.015 1 
0.381 0.242 -0.015 1 
0.38 0.246 -0.015 1 
0.413 -0.285 -0.022 1 
0.41 -0.237 -0.019 1 
0.408 -0.225 -0.018 1 
0.363 -0.006 -0.005 1 
0.406 -0.217 -0.017 1 
0.403 -0.185 -0.016 1 
0.404 -0.183 -0.016 1 
0.404 -0.146 -0.015 1 
0.404 -0.142 -0.015 1 
0.405 -0.105 -0.015 1 
0.406 -0.096 -0.015 1 
0.406 -0.085 -0.015 1 
0.401 -0.066 -0.013 1 
0.399 -0.045 -0.012 1 
0.401 -0.035 -0.013 1 
0.389 -0.015 -0.009 1 
0.388 -0.005 -0.009 1 
0.341 0.003 0.004 1 
0.343 0.016 0.003 1 
0.402 0.023 -0.013 1 
0.394 0.033 -0.011 1 
0.394 0.039 -0.011 1 
0.372 -0.106 -0.016 1 
0.4 0.124 -0.014 1 
0.394 0.153 -0.013 1 
0.394 0.162 -0.013 1 
0.394 0.167 -0.014 1 
0.39 0.193 -0.013 1 
0.39 0.203 -0.014 1 
0.391 0.208 -0.014 1 
0.393 0.222 -0.015 1 
0.391 0.243 -0.016 1 
0.391 0.256 -0.016 1 
0.421 -0.297 -0.022 1 
0.418 -0.237 -0.019 1 
0.414 -0.206 -0.017 1 
0.409 -0.195 -0.015 1 
0.41 -0.186 -0.015 1 
0.411 -0.165 -0.015 1 
0.409 -0.147 -0.014 1 
0.41 -0.145 -0.015 1 
0.41 -0.143 -0.014 1 
0.351 0.194 -0.015 1 
0.412 -0.135 -0.015 1 
0.409 -0.106 -0.014 1 
0.411 -0.085 -0.014 1 
0.411 -0.076 -0.014 1 
0.399 -0.016 -0.01 1 
0.408 0.024 -0.013 1 
0.404 0.034 -0.012 1 
0.402 0.053 -0.012 1 
0.404 0.073 -0.012 1 
0.403 0.134 -0.013 1 
0.392 0.024 -0.012 1 
0.402 0.142 -0.013 1 
0.401 0.153 -0.013 1 
0.401 0.162 -0.013 1 
0.404 0.174 -0.015 1 
0.403 0.178 -0.014 1 
0.403 0.183 -0.015 1 
0.403 0.185 -0.015 1 
0.398 0.207 -0.014 1 
0.401 0.222 -0.015 1 
0.4 0.234 -0.016 1 
0.422 -0.286 -0.02 1 
0.422 -0.266 -0.019 1 
0.423 -0.255 -0.019 1 
0.423 -0.226 -0.018 1 
0.421 -0.217 -0.017 1 
0.42 -0.196 -0.016 1 
0.418 -0.157 -0.015 1 
0.414 -0.048 -0.012 1 
0.413 -0.025 -0.012 1 
0.41 -0.008 -0.011 1 
0.359 -0.002 0.002 1 
0.413 0.062 -0.013 1 
0.412 0.073 -0.012 1 
0.412 0.082 -0.013 1 
0.414 0.092 -0.013 1 
0.41 0.133 -0.013 1 
0.409 0.144 -0.013 1 
0.41 0.154 -0.013 1 
0.402 0.194 -0.012 1 
0.4 -0.238 -0.021 1 
0.41 0.223 -0.016 1 
0.407 0.254 -0.016 1 
0.401 0.264 -0.015 1 
0.4 0.268 -0.015 1 
0.434 -0.312 -0.021 1 
0.427 -0.288 -0.018 1 
0.431 -0.275 -0.019 1 
0.433 -0.248 -0.018 1 
0.426 -0.185 -0.015 1 
0.424 -0.178 -0.014 1 
0.426 -0.175 -0.015 1 
0.422 -0.165 -0.014 1 
0.422 -0.155 -0.013 1 
0.423 -0.146 -0.014 1 
0.423 -0.136 -0.013 1 
0.424 -0.115 -0.013 1 
0.366 0.214 -0.015 1 
0.422 -0.105 -0.013 1 
0.423 -0.075 -0.013 1 
0.421 -0.065 -0.012 1 
0.421 -0.056 -0.012 1 
0.423 -0.045 -0.012 1 
0.383 -0.185 -0.018 1 
0.387 -0.145 -0.016 1 
0.398 0.103 -0.013 1 
0.424 -0.036 -0.013 1 
0.42 -0.026 -0.012 1 
0.42 0.064 -0.012 1 
0.413 0.164 -0.012 1 
0.36 0.163 -0.015 1 
0.413 0.174 -0.013 1 
0.411 0.194 -0.013 1 
0.412 0.212 -0.013 1 
0.415 0.222 -0.015 1 
0.414 0.232 -0.015 1 
0.413 0.236 -0.015 1 
0.408 0.244 -0.014 1 
0.409 0.253 -0.014 1 
0.408 0.272 -0.015 1 
0.408 0.277 -0.015 1 
0.434 -0.255 -0.016 1 
0.435 -0.239 -0.016 1 
0.432 -0.225 -0.015 1 
0.433 -0.216 -0.015 1 
0.433 -0.206 -0.015 1 
0.433 -0.2 -0.015 1 
0.432 -0.197 -0.014 1 
0.431 -0.186 -0.014 1 
0.37 0.104 -0.014 1 
0.431 -0.176 -0.014 1 
0.43 -0.135 -0.013 1 
0.43 -0.125 -0.013 1 
0.43 -0.115 -0.013 1 
0.429 -0.105 -0.012 1 
0.431 -0.096 -0.013 1 
0.351 0.18 -0.014 1 
0.432 -0.046 -0.013 1 
0.431 -0.037 -0.012 1 
0.428 -0.008 -0.012 1 
0.424 0.074 -0.011 1 
0.422 0.104 -0.011 1 
0.424 0.124 -0.012 1 
0.42 0.153 -0.011 1 
0.419 0.162 -0.011 1 
0.417 0.174 -0.011 1 
0.417 0.284 -0.015 1 
0.443 -0.299 -0.018 1 
0.441 -0.276 -0.016 1 
0.434 -0.263 -0.014 1 
0.437 -0.257 -0.015 1 
0.43 -0.155 -0.011 1 
0.433 -0.146 -0.011 1 
0.433 -0.085 -0.011 1 
0.434 -0.078 -0.011 1 
0.434 -0.066 -0.011 1 
0.434 -0.059 -0.011 1 
0.434 -0.02 -0.011 1 
0.378 -0.003 0.003 1 
0.433 0.043 -0.011 1 
0.431 0.052 -0.01 1 
0.431 0.064 -0.011 1 
0.429 0.073 -0.01 1 
0.43 0.083 -0.01 1 
0.429 0.093 -0.01 1 
0.428 0.143 -0.011 1 
0.423 0.193 -0.011 1 
0.419 0.203 -0.01 1 
0.422 0.213 -0.011 1 
0.422 0.223 -0.012 1 
0.422 0.234 -0.012 1 
0.422 0.242 -0.012 1 
0.423 0.251 -0.013 1 
0.424 0.272 -0.014 1 
0.422 0.284 -0.014 1 
0.444 -0.316 -0.016 1 
0.445 -0.292 -0.015 1 
0.38 0.133 -0.014 1 
0.445 -0.283 -0.015 1 
0.442 -0.245 -0.013 1 
0.414 0.103 -0.013 1 
0.441 -0.236 -0.012 1 
0.443 -0.226 -0.013 1 
0.442 -0.215 -0.012 1 
0.441 -0.195 -0.012 1 
0.442 -0.185 -0.012 1 
0.443 -0.175 -0.012 1 
0.443 -0.168 -0.012 1 
0.44 -0.155 -0.011 1 
0.441 -0.146 -0.011 1 
0.442 -0.136 -0.011 1 
0.441 -0.115 -0.01 1 
0.44 -0.105 -0.01 1 
0.411 -0.096 -0.014 1 
0.439 -0.097 -0.01 1 
0.423 0.083 -0.011 1 
0.441 -0.085 -0.01 1 
0.442 -0.075 -0.01 1 
0.442 -0.065 -0.01 1 
0.443 -0.056 -0.011 1 
0.404 0.06 -0.012 1 
0.442 -0.036 -0.01 1 
0.42 0.053 -0.012 1 
0.439 -0.026 -0.01 1 
0.441 -0.016 -0.01 1 
0.341 -0.005 -0.006 1 
0.438 0.054 -0.01 1 
0.438 0.064 -0.01 1 
0.434 0.154 -0.01 1 
0.434 0.162 -0.011 1 
0.431 0.173 -0.01 1 
0.43 0.183 -0.01 1 
0.423 0.291 -0.012 1 
0.45 -0.326 -0.015 1 
0.452 -0.315 -0.015 1 
0.418 -0.207 -0.016 1 
0.452 -0.312 -0.015 1 
0.444 -0.285 -0.012 1 
0.442 -0.265 -0.011 1 
0.443 -0.26 -0.011 1 
0.448 -0.105 -0.01 1 
0.448 -0.097 -0.009 1 
0.471 -0.01 -0.015 1 
0.475 -0.007 -0.016 1 
0.444 0.038 -0.009 1 
0.443 0.072 -0.009 1 
0.444 0.083 -0.009 1 
0.44 0.134 -0.009 1 
0.44 0.163 -0.009 1 
0.436 0.174 -0.009 1 
0.434 0.191 -0.009 1 
0.431 0.204 -0.008 1 
0.434 0.214 -0.009 1 
0.433 0.224 -0.009 1 
0.431 0.234 -0.009 1 
0.434 0.253 -0.01 1 
0.434 0.261 -0.011 1 
0.434 0.27 -0.011 1 
0.43 0.284 -0.011 1 
0.45 -0.276 -0.01 1 
0.422 0.133 -0.011 1 
0.451 -0.265 -0.01 1 
0.453 -0.237 -0.01 1 
0.454 -0.232 -0.01 1 
0.453 -0.215 -0.01 1 
0.454 -0.205 -0.01 1 
0.454 -0.196 -0.01 1 
0.454 -0.185 -0.009 1 
0.453 -0.155 -0.009 1 
0.454 -0.147 -0.009 1 
0.454 -0.136 -0.009 1 
0.454 -0.123 -0.009 1 
0.441 -0.206 -0.012 1 
0.454 -0.094 -0.008 1 
0.454 -0.076 -0.008 1 
0.452 -0.065 -0.008 1 
0.453 -0.055 -0.008 1 
0.452 0.054 -0.008 1 
0.451 0.064 -0.008 1 
0.449 0.074 -0.008 1 
0.451 0.092 -0.008 1 
0.411 0.189 -0.015 1 
0.44 0.184 -0.007 1 
0.439 0.194 -0.007 1 
0.437 0.203 -0.007 1 
0.441 0.242 -0.009 1 
0.432 0.301 -0.009 1 
0.384 -0.209 -0.019 1 
0.452 -0.332 -0.01 1 
0.403 -0.075 -0.014 1 
0.461 -0.299 -0.01 1 
0.454 -0.255 -0.008 1 
0.454 -0.247 -0.008 1 
0.453 0.034 -0.006 1 
0.444 0.139 -0.007 1 
0.454 0.036 -0.006 1 
0.456 0.044 -0.006 1 
0.454 0.104 -0.006 1 
0.452 0.132 -0.006 1 
0.452 0.153 -0.007 1 
0.45 0.164 -0.007 1 
0.444 0.283 -0.008 1 
0.441 0.292 -0.008 1 
0.441 0.314 -0.009 1 
0.464 -0.339 -0.01 1 
0.381 0.181 -0.015 1 
0.463 -0.317 -0.009 1 
0.464 -0.255 -0.007 1 
0.463 -0.236 -0.007 1 
0.462 -0.196 -0.006 1 
0.461 -0.176 -0.005 1 
0.462 -0.157 -0.005 1 
0.463 -0.135 -0.005 1 
0.463 -0.116 -0.005 1 
0.462 -0.075 -0.005 1 
0.384 -0.242 -0.025 1 
0.462 -0.057 -0.005 1 
0.461 -0.036 -0.005 1 
0.46 0.063 -0.005 1 
0.459 0.092 -0.005 1 
0.457 0.124 -0.005 1 
0.457 0.142 -0.005 1 
0.457 0.153 -0.005 1 
0.455 0.169 -0.005 1 
0.454 0.174 -0.005 1 
0.391 0.233 -0.015 1 
0.452 0.184 -0.005 1 
0.453 0.193 -0.005 1 
0.454 0.202 -0.006 1 
0.453 0.212 -0.006 1 
0.453 0.224 -0.006 1 
0.451 0.234 -0.006 1 
0.45 0.244 -0.006 1 
0.449 0.252 -0.006 1 
0.45 0.262 -0.006 1 
0.472 -0.355 -0.009 1 
0.454 -0.045 -0.008 1 
0.468 -0.306 -0.006 1 
0.456 0.134 -0.005 1 
0.468 -0.286 -0.006 1 
0.468 -0.277 -0.006 1 
0.466 -0.245 -0.005 1 
0.467 -0.236 -0.005 1 
0.466 -0.231 -0.005 1 
0.464 -0.217 -0.004 1 
0.464 -0.189 -0.003 1 
0.464 -0.089 -0.003 1 
0.464 -0.076 -0.002 1 
0.451 -0.298 -0.014 1 
0.464 -0.068 -0.002 1 
0.464 -0.046 -0.002 1 
0.462 -0.036 -0.002 1 
0.454 0.253 -0.004 1 
0.453 0.261 -0.004 1 
0.454 0.271 -0.004 1 
0.453 0.277 -0.004 1 
0.453 0.283 -0.005 1 
0.451 0.293 -0.005 1 
0.453 0.301 -0.005 1 
0.453 0.314 -0.006 1 
0.447 0.321 -0.005 1 
0.473 -0.345 -0.006 1 
0.473 -0.335 -0.005 1 
0.43 0.134 -0.011 1 
0.443 0.261 -0.007 1 
0.472 -0.327 -0.005 1 
0.472 -0.316 -0.005 1 
0.394 -0.156 -0.016 1 
0.458 0.113 -0.005 1 
0.463 0.123 -0.001 1 
0.449 0.323 -0.002 1 
0.474 -0.357 -0.003 1 
0.364 -0.186 -0.02 1 
0.474 -0.325 -0.002 1 
0.382 0.151 -0.014 1 
0.472 -0.316 -0.002 1 
0.389 0.004 0.016 1 
0.394 0.008 0.015 1 
0.396 -0.005 -0.009 1 
0.403 0.013 0.013 1 
0.405 0.017 0.013 1 
0.464 0.032 0.002 1 
0.465 0.043 0.001 1 
0.465 0.083 0.001 1 
0.475 -0.252 0.001 1 
0.474 -0.227 0.001 1 
0.472 -0.217 0.002 1 
0.471 -0.205 0.002 1 
0.47 -0.195 0.003 1 
0.47 -0.186 0.003 1 
0.471 -0.176 0.003 1 
0.47 -0.166 0.003 1 
0.469 -0.155 0.003 1 
0.469 -0.146 0.003 1 
0.373 -0.205 -0.022 1 
0.423 0.114 -0.011 1 
0.468 -0.137 0.004 1 
0.467 -0.085 0.004 1 
0.467 -0.077 0.004 1 
0.413 -0.126 -0.015 1 
0.465 -0.009 0.004 1 
0.454 -0.012 -0.008 1 
0.454 0.013 0.006 1 
0.464 0.043 0.004 1 
0.465 0.091 0.004 1 
0.464 0.094 0.004 1 
0.463 0.104 0.004 1 
0.464 0.113 0.004 1 
0.465 0.124 0.003 1 
0.465 0.132 0.003 1 
0.465 0.135 0.003 1 
0.463 0.151 0.003 1 
0.463 0.162 0.003 1 
0.464 0.174 0.003 1 
0.464 0.183 0.003 1 
0.464 0.194 0.003 1 
0.478 0.231 0 1 
0.463 0.222 0.002 1 
0.466 0.231 0.002 1 
0.464 0.244 0.002 1 
0.474 -0.349 0.002 1 
0.477 -0.346 0.002 1 
0.363 0.104 -0.014 1 
0.477 -0.335 0.002 1 
0.424 -0.087 -0.013 1 
0.477 -0.328 0.002 1 
0.475 -0.309 0.003 1 
0.474 -0.305 0.003 1 
0.473 -0.288 0.004 1 
0.473 -0.278 0.004 1 
0.473 -0.266 0.004 1 
0.433 0.293 -0.009 1 
0.381 -0.175 -0.017 1 
0.463 0.264 0.004 1 
0.463 0.273 0.004 1 
0.464 0.293 0.003 1 
0.463 0.302 0.003 1 
0.463 0.311 0.003 1 
0.462 0.32 0.003 1 
0.463 0.332 0.002 1 
0.374 0.148 -0.013 1 
0.466 0.343 0.002 1 
0.474 -0.305 0.006 1 
0.46 0.053 -0.005 1 
0.463 0.003 0.013 1 
0.463 -0.012 -0.005 1 
0.463 0.014 0.013 1 
0.462 0.024 0.013 1 
0.462 -0.046 -0.005 1 
0.462 -0.07 -0.005 1 
0.414 0.204 -0.011 1 
0.382 -0.146 -0.017 1 
0.463 -0.086 -0.005 1 
0.452 -0.165 -0.009 1 
0.463 -0.105 -0.005 1 
0.441 -0.011 -0.01 1 
0.384 0.191 -0.014 1 
0.465 0.008 0.015 1 
0.463 -0.127 -0.005 1 
0.463 -0.146 -0.005 1 
0.461 -0.167 -0.005 1 
0.462 -0.187 -0.006 1 
0.463 -0.228 -0.007 1 
0.452 -0.306 -0.014 1 
0.462 -0.247 -0.007 1 
0.46 -0.285 -0.01 1 
0.444 0.253 -0.007 1 
0.46 -0.327 -0.011 1 
0.444 0.1 -0.009 1 
0.444 -0.279 -0.012 1 
0.413 0.114 -0.013 1 
0.413 0.123 -0.013 1 
0.372 0.237 -0.016 1 
0.389 0.172 -0.015 1 
0.437 -0.269 -0.015 1 
0.399 -0.085 -0.015 1 
0.453 0.143 -0.007 1 
0.408 -0.066 -0.013 1 
0.364 -0.179 -0.017 1 
0.438 -0.25 -0.015 1 
0.468 -0.126 0.004 1 
0.424 0.093 -0.011 1 
0.343 -0.015 -0.008 1 
0.369 0.02 -0.005 1 
0.459 0.074 -0.005 1 
0.468 -0.255 -0.005 1 
0.473 -0.247 0.004 1 
0.362 0.113 -0.014 1 
0.452 -0.019 -0.008 1 
0.42 -0.015 -0.012 1 
0.453 0.122 -0.006 1 
0.443 0.123 -0.009 1 
0.373 -0.025 -0.01 1 
0.44 0.152 -0.009 1 
0.403 0.015 0.013 1 
0.352 0.162 -0.014 1 
0.459 -0.217 -0.006 1 
0.464 0.143 0.003 1 
0.424 0.181 -0.011 1 
0.407 -0.035 -0.012 1 
0.344 0.157 -0.012 1 
0.463 0.335 0.002 1 
0.41 -0.155 -0.015 1 
0.39 0.133 -0.013 1 
0.354 0.046 -0.011 1 
0.394 -0.197 -0.018 1 
0.44 0.214 -0.008 1 
0.418 -0.177 -0.015 1 
0.421 0.044 -0.012 1 
0.464 0.232 0.002 1 
0.372 -0.215 -0.024 1 
0.444 -0.051 -0.011 1 
0.412 0.053 -0.012 1 
0.444 0.274 -0.008 1 
0.371 -0.073 -0.015 1 
0.422 -0.277 -0.019 1 
0.429 0.114 -0.011 1 
0.372 -0.231 -0.025 1 
0.348 -0.004 -0.005 1 
0.386 0.202 -0.015 1 
0.401 0.213 -0.015 1 
0.464 -0.197 -0.004 1 
0.478 -0.007 0 1 
0.395 0.244 -0.015 1 
0.381 -0.106 -0.015 1 
0.429 0.124 -0.011 1 
0.414 -0.247 -0.021 1 
0.388 0.119 -0.015 1 
0.472 -0.238 0.004 1 
0.372 0.063 -0.012 1 
0.398 0.114 -0.013 1 
0.414 0.224 -0.014 1 
0.464 -0.206 -0.004 1 
0.454 -0.126 -0.009 1 
0.386 -0.1 -0.015 1 
0.428 -0.235 -0.017 1 
0.474 -0.007 -0.005 1 
0.433 -0.265 -0.016 1 
0.401 -0.167 -0.017 1 
0.414 -0.057 -0.012 1 
0.384 0.063 -0.012 1 
0.342 0.014 0.004 1 
0.424 -0.254 -0.019 1 
0.469 -0.297 -0.006 1 
0.354 -0.077 -0.013 1 
0.475 -0.255 0.001 1 
0.464 0.132 0.001 1 
0.38 0.203 -0.015 1 
0.394 -0.266 -0.023 1 
0.419 -0.165 -0.015 1 
0.393 0.184 -0.014 1 
0.394 0.251 -0.015 1 
0.464 -0.017 -0.005 1 
0.423 -0.096 -0.013 1 
0.363 -0.094 -0.015 1 
0.364 0.145 -0.013 1 
0.342 -0.002 -0.005 1 
0.417 -0.269 -0.025 1 
0.341 0.202 -0.014 1 
0.468 -0.096 0.004 1 
0.473 -0.297 0.003 1 
0.443 0.092 -0.009 1 
0.39 -0.241 -0.025 1 
0.453 0.114 -0.006 1 
0.364 0.172 -0.015 1 
0.464 -0.273 -0.008 1 
0.459 0.084 -0.005 1 
0.414 0.184 -0.013 1 
0.452 -0.027 -0.008 1 
0.413 0.044 -0.012 1 
0.418 0.263 -0.014 1 
0.42 0.144 -0.011 1 
0.444 0.033 -0.009 1 
0.428 -0.295 -0.016 1 
0.461 -0.025 -0.005 1 
0.463 0.032 0.013 1 
0.4 -0.216 -0.018 1 
0.382 -0.085 -0.015 1 
0.444 -0.288 -0.015 1 
0.453 -0.035 -0.008 1 
0.463 0.249 0.004 1 
0.454 -0.286 -0.011 1 
0.454 0.274 -0.005 1 
0.394 -0.176 -0.017 1 
0.41 -0.176 -0.015 1 
0.4 -0.055 -0.013 1 
0.464 -0.012 0.004 1 
0.364 -0.096 -0.015 1 
0.442 0.302 -0.009 1 
0.399 -0.126 -0.015 1 
0.419 0.261 -0.015 1 
0.381 0.128 -0.015 1 
0.389 -0.252 -0.025 1 
0.412 -0.117 -0.015 1 
0.454 -0.177 -0.009 1 
0.372 0.232 -0.016 1 
0.362 -0.045 -0.012 1 
0.447 -0.297 -0.016 1 
0.428 0.102 -0.01 1 
0.468 -0.107 0.004 1 
0.434 -0.025 -0.011 1 
0.419 -0.185 -0.016 1 
0.434 0.034 -0.011 1 
0.36 -0.076 -0.013 1 
0.363 0.183 -0.015 1 
0.389 0.054 -0.012 1 
0.403 0.171 -0.014 1 
0.463 -0.007 0.013 1 
0.442 -0.305 -0.017 1 
0.441 -0.125 -0.011 1 
0.443 0.113 -0.009 1 
0.418 0.274 -0.015 1 
0.384 0.223 -0.015 1 
0.45 0.084 -0.008 1 
0.394 0.214 -0.015 1 
0.374 -0.163 -0.016 1 
0.373 0.173 -0.016 1 
0.364 0.052 -0.011 1 
0.393 -0.257 -0.024 1 
0.374 0.093 -0.013 1 
0.42 -0.008 -0.012 1 
0.363 0.123 -0.014 1 
0.363 0.064 -0.013 1 
0.404 0.079 -0.012 1 
0.468 -0.268 -0.005 1 
0.403 0.247 -0.015 1 
0.463 0.283 0.004 1 
0.372 -0.003 0 1 
0.38 0.194 -0.015 1 
0.382 -0.165 -0.017 1 
0.464 0.083 0.004 1 
0.36 0.159 -0.014 1 
0.38 0.214 -0.016 1 
0.419 0.034 -0.012 1 
0.364 0.143 -0.013 1 
0.463 -0.097 -0.005 1 
0.463 0.202 0.003 1 
0.397 -0.026 -0.012 1 
0.473 -0.256 0.004 1 
0.402 0.042 -0.011 1 
0.394 -0.194 -0.018 1 
0.413 0.033 -0.012 1 
0.363 -0.116 -0.015 1 
0.4 0.204 -0.014 1 
0.388 -0.095 -0.013 1 
0.44 0.222 -0.008 1 
0.374 0.134 -0.014 1 
0.416 0.286 -0.015 1 
0.389 -0.165 -0.017 1 
0.413 -0.276 -0.022 1 
0.463 -0.023 -0.002 1 
0.464 0.072 0.004 1 
0.414 0.227 -0.014 1 
0.434 -0.167 -0.012 1 
0.466 -0.004 0.001 1 
0.475 -0.316 0.003 1 
0.464 -0.06 -0.002 1 
0.461 -0.207 -0.006 1 
0.381 0.094 -0.014 1 
0.455 0.164 -0.005 1 
0.424 -0.125 -0.013 1 
0.464 -0.277 -0.008 1 
0.465 0.073 0.001 1 
0.41 0.263 -0.015 1 
0.383 0.174 -0.015 1 
0.44 0.233 -0.009 1 
0.465 0.048 0.004 1 
0.463 0.214 0.002 1 
0.434 0.242 -0.01 1 
0.409 -0.016 -0.011 1 
0.411 0.182 -0.015 1 
0.4 -0.115 -0.015 1 
0.38 -0.136 -0.016 1 
0.466 -0.015 -0.006 1 
0.372 0.204 -0.017 1 
0.408 0.211 -0.015 1 
0.391 -0.092 -0.014 1 
0.458 0.103 -0.005 1 
0.462 -0.313 -0.005 1 
0.386 -0.136 -0.016 1 
0.358 0.212 -0.015 1 
0.374 -0.165 -0.016 1 
0.374 0.073 -0.013 1 
0.353 -0.002 0 1 
0.399 0.093 -0.013 1 
0.383 -0.007 0.062 2 
0.501 0.084 0.059 2 
0.309 -0.009 0.059 2 
0.355 -0.001 0.043 2 
0.44 0.079 0.063 2 
0.381 0.06 0.068 2 
0.519 -0.027 0.045 2 
0.427 0.089 0.066 2 
0.495 -0.075 0.068 2 
0.514 -0.098 0.044 2 
0.376 -0.046 0.065 2 
0.433 -0.042 0.064 2 
0.411 -0.04 0.064 2 
0.52 -0.106 0.044 2 
0.518 -0.02 0.046 2 
0.435 -0.064 0.061 2 
0.509 -0.029 0.049 2 
0.397 0.062 0.068 2 
0.385 0.053 0.068 2 
0.385 -0.03 0.069 2 
0.396 -0.034 0.069 2 
0.496 -0.066 0.068 2 
0.394 0.061 0.07 2 
0.505 -0.053 0.074 2 
0.356 -0.006 0.069 2 
0.371 -0.026 0.071 2 
0.383 -0.03 0.071 2 
0.516 -0.061 0.06 2 
0.526 -0.066 0.06 2 
0.522 -0.068 0.061 2 
0.435 0.072 0.063 2 
0.396 0.035 0.064 2 
0.426 0.096 0.066 2 
0.404 0.077 0.066 2 
0.383 0.062 0.066 2 
0.399 0.063 0.066 2 
0.357 -0.006 0.066 2 
0.388 -0.027 0.067 2 
0.395 -0.029 0.067 2 
0.4 -0.036 0.066 2 
0.51 -0.088 0.047 2 
0.532 -0.096 0.047 2 
0.52 -0.099 0.047 2 
0.383 0.016 0.046 2 
0.423 0.005 0.024 2 
0.418 0.002 0.024 2 
0.427 0 0.024 2 
0.397 0 0.037 2 
0.387 0.006 0.047 2 
0.385 0.004 0.037 2 
0.499 0.003 0.015 2 
0.358 0.007 0.049 2 
0.373 0.033 0.068 2 
0.5 -0.085 0.062 2 
0.435 0.097 0.066 2 
0.508 -0.035 0.082 2 
0.519 -0.049 0.067 2 
0.503 -0.053 0.077 2 
0.501 -0.055 0.077 2 
0.422 0.078 0.063 2 
0.5 0.09 0.059 2 
0.494 0.091 0.059 2 
0.361 -0.022 0.067 2 
0.394 -0.04 0.066 2 
0.406 0.076 0.064 2 
0.464 0.172 0.136 3 
0.472 -0.196 0.142 3 
0.473 -0.206 0.142 3 
0.474 -0.216 0.143 3 
0.474 -0.225 0.143 3 
0.465 0.144 0.114 3 
0.475 -0.231 0.143 3 
0.475 -0.237 0.143 3 
0.475 -0.247 0.144 3 
0.475 -0.256 0.144 3 
0.468 0.346 0.142 3 
0.472 -0.185 0.122 3 
0.464 0.318 0.14 3 
0.464 0.292 0.142 3 
0.46 0.059 0.134 3 
0.458 0.053 0.134 3 
0.475 -0.045 0.138 3 
0.472 -0.216 0.094 3 
0.474 -0.24 0.14 3 
0.474 -0.246 0.14 3 
0.476 -0.276 0.142 3 
0.478 -0.287 0.143 3 
0.47 -0.207 0.014 3 
0.479 -0.295 0.143 3 
0.464 0.197 0.093 3 
0.471 -0.156 0.144 3 
0.464 0.193 0.142 3 
0.465 0.19 0.142 3 
0.465 0.175 0.142 3 
0.465 0.173 0.142 3 
0.47 -0.155 0.124 3 
0.466 0.153 0.142 3 
0.469 -0.05 0.142 3 
0.469 -0.077 0.142 3 
0.469 -0.085 0.142 3 
0.47 -0.105 0.143 3 
0.47 -0.116 0.143 3 
0.47 -0.125 0.143 3 
0.471 -0.145 0.143 3 
0.464 0.255 0.141 3 
0.471 -0.165 0.144 3 
0.47 -0.176 0.144 3 
0.47 -0.187 0.144 3 
0.474 -0.246 0.146 3 
0.481 -0.349 0.152 3 
0.481 -0.356 0.152 3 
0.479 -0.338 0.112 3 
0.467 0.342 0.144 3 
0.468 0.333 0.144 3 
0.465 0.322 0.143 3 
0.463 0.314 0.142 3 
0.479 -0.315 0.144 3 
0.576 -0.038 0.094 3 
0.465 0.073 0.133 3 
0.464 0.065 0.132 3 
0.465 -0.041 0.133 3 
0.466 -0.047 0.133 3 
0.466 -0.055 0.133 3 
0.468 -0.066 0.133 3 
0.469 -0.077 0.134 3 
0.469 -0.085 0.134 3 
0.469 -0.096 0.134 3 
0.469 -0.116 0.134 3 
0.469 -0.13 0.134 3 
0.477 -0.317 0.032 3 
0.474 -0.255 0.138 3 
0.465 0.084 0.133 3 
0.48 -0.336 0.142 3 
0.482 -0.346 0.143 3 
0.481 -0.355 0.143 3 
0.464 0.335 0.134 3 
0.463 0.323 0.134 3 
0.464 0.314 0.134 3 
0.464 0.304 0.133 3 
0.464 0.292 0.133 3 
0.465 0.274 0.133 3 
0.464 0.27 0.133 3 
0.465 0.264 0.133 3 
0.463 0.132 0.022 3 
0.464 0.192 0.134 3 
0.465 0.214 0.143 3 
0.479 -0.325 0.144 3 
0.464 0.282 0.136 3 
0.464 0.27 0.135 3 
0.463 0.239 0.134 3 
0.464 0.254 0.124 3 
0.464 0.224 0.134 3 
0.464 0.213 0.134 3 
0.474 -0.267 0.124 3 
0.465 0.208 0.134 3 
0.464 0.204 0.134 3 
0.465 0.198 0.134 3 
0.479 -0.305 0.143 3 
0.47 -0.146 0.052 3 
0.464 0.183 0.134 3 
0.464 0.172 0.133 3 
0.465 0.17 0.134 3 
0.465 0.164 0.134 3 
0.464 0.161 0.133 3 
0.465 0.153 0.133 3 
0.465 0.133 0.133 3 
0.466 0.123 0.133 3 
0.465 0.114 0.133 3 
0.465 0.103 0.133 3 
0.465 0.092 0.133 3 
0.464 0.249 0.152 3 
0.481 -0.317 0.162 3 
0.481 -0.328 0.163 3 
0.465 0.261 0.102 3 
0.481 -0.335 0.163 3 
0.481 -0.346 0.164 3 
0.465 0.316 0.154 3 
0.465 0.313 0.154 3 
0.465 0.303 0.154 3 
0.465 0.293 0.153 3 
0.465 0.284 0.153 3 
0.466 0.263 0.153 3 
0.465 0.253 0.152 3 
0.474 -0.24 0.158 3 
0.465 0.181 0.15 3 
0.288 0.023 0.095 3 
0.471 -0.145 0.152 3 
0.471 -0.156 0.152 3 
0.464 0.282 0.133 3 
0.471 -0.165 0.152 3 
0.475 -0.274 0.101 3 
0.47 -0.176 0.152 3 
0.471 -0.185 0.153 3 
0.472 -0.197 0.153 3 
0.473 -0.215 0.154 3 
0.474 -0.228 0.154 3 
0.465 0.312 0.134 3 
0.465 0.162 0.153 3 
0.466 0.154 0.153 3 
0.466 0.142 0.153 3 
0.465 0.122 0.063 3 
0.466 0.134 0.153 3 
0.466 0.123 0.152 3 
0.465 0.114 0.152 3 
0.466 0.104 0.152 3 
0.466 0.093 0.152 3 
0.476 -0.266 0.144 3 
0.466 0.084 0.152 3 
0.468 -0.053 0.152 3 
0.462 0.242 0.013 3 
0.469 -0.055 0.153 3 
0.462 0.334 0.062 3 
0.468 -0.066 0.153 3 
0.47 -0.075 0.153 3 
0.47 -0.086 0.153 3 
0.47 -0.097 0.154 3 
0.472 -0.247 0.092 3 
0.469 -0.105 0.153 3 
0.47 -0.116 0.154 3 
0.471 -0.125 0.154 3 
0.471 -0.136 0.154 3 
0.461 0.336 0.062 3 
0.48 -0.326 0.153 3 
0.463 0.162 0.063 3 
0.465 0.073 0.144 3 
0.464 0.07 0.143 3 
0.297 0.024 0.095 3 
0.289 0.021 0.093 3 
0.468 -0.058 0.144 3 
0.468 -0.066 0.144 3 
0.475 -0.232 0.149 3 
0.474 -0.24 0.149 3 
0.479 -0.295 0.152 3 
0.479 -0.305 0.152 3 
0.48 -0.316 0.153 3 
0.466 0.084 0.144 3 
0.481 -0.338 0.154 3 
0.465 0.277 0.144 3 
0.465 0.274 0.144 3 
0.465 0.147 0.063 3 
0.466 0.262 0.144 3 
0.463 0.242 0.143 3 
0.463 0.233 0.143 3 
0.464 0.222 0.143 3 
0.465 0.217 0.143 3 
0.34 -0.018 0.059 3 
0.464 0.183 0.033 3 
0.477 -0.308 0.084 3 
0.319 -0.007 0.057 3 
0.467 0.346 0.153 3 
0.467 0.342 0.153 3 
0.467 0.332 0.153 3 
0.464 0.255 0.149 3 
0.464 0.154 0.033 3 
0.458 0.058 0.144 3 
0.285 -0.007 0.093 3 
0.475 -0.238 0.152 3 
0.472 -0.265 0.013 3 
0.476 -0.257 0.153 3 
0.475 -0.266 0.153 3 
0.477 -0.277 0.154 3 
0.464 0.21 0.143 3 
0.478 -0.288 0.154 3 
0.464 0.312 0.148 3 
0.464 0.295 0.148 3 
0.464 0.181 0.144 3 
0.465 0.161 0.144 3 
0.466 0.142 0.144 3 
0.474 -0.258 0.124 3 
0.466 0.134 0.144 3 
0.466 0.123 0.144 3 
0.465 0.114 0.144 3 
0.465 0.103 0.144 3 
0.465 0.092 0.144 3 
0.464 0.073 0.114 3 
0.465 0.133 0.114 3 
0.465 0.122 0.114 3 
0.463 0.293 0.082 3 
0.464 0.119 0.114 3 
0.465 0.114 0.114 3 
0.465 0.103 0.114 3 
0.464 0.1 0.114 3 
0.464 0.094 0.114 3 
0.465 0.092 0.114 3 
0.465 0.084 0.114 3 
0.477 -0.317 0.043 3 
0.464 0.078 0.114 3 
0.464 0.141 0.114 3 
0.463 0.054 0.113 3 
0.467 -0.041 0.114 3 
0.467 -0.047 0.114 3 
0.467 -0.055 0.114 3 
0.468 -0.066 0.114 3 
0.474 -0.277 0.118 3 
0.464 0.341 0.114 3 
0.465 0.338 0.114 3 
0.464 0.334 0.114 3 
0.466 0.333 0.114 3 
0.465 0.321 0.114 3 
0.466 0.312 0.114 3 
0.477 -0.295 0.122 3 
0.464 0.124 0.119 3 
0.288 -0.005 0.083 3 
0.471 -0.155 0.044 3 
0.472 -0.196 0.122 3 
0.472 -0.205 0.122 3 
0.473 -0.215 0.123 3 
0.474 -0.227 0.123 3 
0.474 -0.236 0.123 3 
0.474 -0.245 0.123 3 
0.464 0.141 0.117 3 
0.466 -0.066 0.023 3 
0.476 -0.288 0.122 3 
0.466 0.303 0.114 3 
0.478 -0.306 0.123 3 
0.48 -0.315 0.123 3 
0.48 -0.325 0.123 3 
0.48 -0.336 0.124 3 
0.48 -0.346 0.124 3 
0.479 -0.356 0.124 3 
0.465 0.178 0.114 3 
0.465 0.172 0.114 3 
0.478 -0.325 0.064 3 
0.464 0.169 0.114 3 
0.464 0.163 0.114 3 
0.464 0.152 0.114 3 
0.305 0.021 0.081 3 
0.47 -0.136 0.113 3 
0.472 -0.187 0.114 3 
0.47 -0.147 0.113 3 
0.47 -0.155 0.113 3 
0.471 -0.167 0.113 3 
0.472 -0.176 0.113 3 
0.472 -0.196 0.114 3 
0.472 -0.205 0.114 3 
0.473 -0.217 0.114 3 
0.474 -0.227 0.114 3 
0.475 -0.237 0.115 3 
0.446 0.046 0.105 3 
0.469 -0.127 0.112 3 
0.471 -0.175 0.102 3 
0.474 -0.236 0.112 3 
0.474 -0.245 0.112 3 
0.463 -0.046 0.047 3 
0.473 -0.257 0.112 3 
0.473 -0.266 0.112 3 
0.474 -0.276 0.112 3 
0.475 -0.28 0.113 3 
0.476 -0.288 0.113 3 
0.477 -0.295 0.113 3 
0.477 -0.305 0.114 3 
0.479 -0.317 0.114 3 
0.462 0.321 0.043 3 
0.466 0.293 0.114 3 
0.465 0.283 0.113 3 
0.464 0.275 0.113 3 
0.337 0.023 0.051 3 
0.464 0.272 0.113 3 
0.464 0.263 0.113 3 
0.464 0.254 0.113 3 
0.463 0.244 0.112 3 
0.462 0.234 0.112 3 
0.464 0.223 0.112 3 
0.465 0.218 0.112 3 
0.465 0.172 0.12 3 
0.465 0.204 0.112 3 
0.466 0.193 0.112 3 
0.464 0.133 0.111 3 
0.465 0.07 0.111 3 
0.421 0.042 0.103 3 
0.469 -0.077 0.112 3 
0.469 -0.085 0.112 3 
0.467 -0.066 0.034 3 
0.469 -0.096 0.112 3 
0.469 -0.105 0.112 3 
0.469 -0.116 0.112 3 
0.464 0.103 0.125 3 
0.282 0.004 0.084 3 
0.285 0 0.085 3 
0.473 -0.245 0.132 3 
0.474 -0.258 0.132 3 
0.475 -0.268 0.133 3 
0.48 -0.348 0.064 3 
0.47 -0.166 0.044 3 
0.474 -0.27 0.132 3 
0.475 -0.275 0.133 3 
0.477 -0.286 0.134 3 
0.478 -0.297 0.134 3 
0.464 0.111 0.125 3 
0.465 0.292 0.125 3 
0.464 0.062 0.124 3 
0.463 0.054 0.124 3 
0.284 0.018 0.084 3 
0.285 0 0.084 3 
0.479 -0.308 0.132 3 
0.481 -0.316 0.132 3 
0.48 -0.326 0.132 3 
0.473 -0.278 0.044 3 
0.483 -0.336 0.133 3 
0.482 -0.345 0.133 3 
0.464 0.285 0.124 3 
0.465 0.283 0.125 3 
0.474 -0.227 0.134 3 
0.465 0.173 0.153 3 
0.464 0.233 0.132 3 
0.465 0.192 0.131 3 
0.481 -0.043 0.134 3 
0.47 -0.136 0.132 3 
0.47 -0.147 0.132 3 
0.471 -0.156 0.133 3 
0.471 -0.165 0.133 3 
0.471 -0.187 0.133 3 
0.471 -0.196 0.133 3 
0.472 -0.205 0.133 3 
0.473 -0.215 0.134 3 
0.464 0.279 0.124 3 
0.473 -0.239 0.134 3 
0.465 0.343 0.132 3 
0.463 0.333 0.131 3 
0.474 -0.292 0.093 3 
0.465 0.332 0.132 3 
0.465 0.322 0.131 3 
0.465 0.339 0.12 3 
0.465 0.302 0.131 3 
0.464 0.263 0.13 3 
0.465 0.094 0.033 3 
0.465 0.184 0.128 3 
0.281 0.011 0.084 3 
0.469 -0.127 0.123 3 
0.465 0.07 0.122 3 
0.286 0.018 0.083 3 
0.466 -0.041 0.122 3 
0.467 -0.047 0.122 3 
0.467 -0.055 0.122 3 
0.468 -0.066 0.123 3 
0.469 -0.077 0.123 3 
0.469 -0.085 0.123 3 
0.469 -0.096 0.123 3 
0.475 -0.287 0.093 3 
0.469 -0.105 0.123 3 
0.464 0.084 0.122 3 
0.47 -0.136 0.124 3 
0.47 -0.147 0.124 3 
0.47 -0.167 0.124 3 
0.471 -0.176 0.124 3 
0.464 0.341 0.123 3 
0.465 0.332 0.123 3 
0.465 0.322 0.123 3 
0.466 0.313 0.123 3 
0.467 0.304 0.123 3 
0.466 0.293 0.122 3 
0.465 0.283 0.122 3 
0.464 0.172 0.122 3 
0.464 0.272 0.124 3 
0.464 0.263 0.124 3 
0.463 0.244 0.123 3 
0.486 0 0.029 3 
0.463 0.232 0.123 3 
0.464 0.224 0.123 3 
0.465 0.212 0.123 3 
0.465 0.204 0.123 3 
0.464 0.152 0.092 3 
0.528 -0.011 0.032 3 
0.466 0.193 0.123 3 
0.465 0.184 0.123 3 
0.464 0.254 0.132 3 
0.464 0.163 0.122 3 
0.465 0.155 0.122 3 
0.465 0.153 0.122 3 
0.464 0.149 0.122 3 
0.464 0.182 0.054 3 
0.465 0.133 0.122 3 
0.465 0.114 0.122 3 
0.464 0.108 0.122 3 
0.464 0.103 0.122 3 
0.465 0.097 0.122 3 
0.464 0.092 0.122 3 
0.465 0.087 0.122 3 
0.468 0.164 0.182 3 
0.467 0.253 0.184 3 
0.467 0.243 0.184 3 
0.467 0.234 0.184 3 
0.467 0.222 0.183 3 
0.464 0.081 0.074 3 
0.468 0.214 0.183 3 
0.467 0.201 0.183 3 
0.467 0.193 0.182 3 
0.467 0.184 0.182 3 
0.468 0.173 0.182 3 
0.472 -0.166 0.172 3 
0.471 -0.136 0.143 3 
0.467 0.256 0.184 3 
0.468 0.153 0.182 3 
0.464 0.204 0.142 3 
0.466 0.063 0.179 3 
0.473 -0.059 0.182 3 
0.307 0.02 0.07 3 
0.473 -0.065 0.182 3 
0.473 -0.076 0.182 3 
0.464 0.3 0.105 3 
0.473 -0.087 0.182 3 
0.552 -0.015 0.082 3 
0.474 -0.096 0.183 3 
0.474 -0.107 0.183 3 
0.474 -0.11 0.186 3 
0.47 0.122 0.184 3 
0.469 -0.105 0.134 3 
0.47 0.114 0.184 3 
0.47 0.1 0.184 3 
0.47 0.094 0.184 3 
0.465 -0.036 0.004 3 
0.469 0.083 0.184 3 
0.469 0.072 0.183 3 
0.265 0.014 0.099 3 
0.275 -0.006 0.103 3 
0.475 -0.059 0.186 3 
0.473 -0.207 0.154 3 
0.474 -0.115 0.183 3 
0.474 -0.135 0.187 3 
0.478 -0.245 0.192 3 
0.464 0.262 0.063 3 
0.48 -0.255 0.192 3 
0.467 -0.077 0.074 3 
0.48 -0.265 0.193 3 
0.48 -0.275 0.193 3 
0.481 -0.289 0.194 3 
0.484 -0.326 0.198 3 
0.474 -0.208 0.171 3 
0.472 0.355 0.192 3 
0.468 0.152 0.173 3 
0.468 0.331 0.183 3 
0.475 -0.197 0.183 3 
0.476 -0.207 0.184 3 
0.464 0.065 0.124 3 
0.476 -0.216 0.184 3 
0.47 -0.177 0.074 3 
0.475 -0.227 0.184 3 
0.485 -0.33 0.192 3 
0.471 -0.195 0.052 3 
0.484 -0.336 0.192 3 
0.484 -0.347 0.193 3 
0.464 0.113 0.111 3 
0.468 0.347 0.184 3 
0.476 -0.186 0.183 3 
0.468 0.324 0.182 3 
0.467 0.077 0.174 3 
0.466 0.071 0.174 3 
0.465 0.063 0.174 3 
0.464 0.196 0.153 3 
0.474 -0.22 0.18 3 
0.474 -0.226 0.181 3 
0.477 -0.237 0.182 3 
0.478 -0.247 0.182 3 
0.478 -0.257 0.183 3 
0.479 -0.267 0.184 3 
0.479 -0.277 0.184 3 
0.484 -0.326 0.194 3 
0.474 -0.127 0.184 3 
0.474 -0.135 0.184 3 
0.474 -0.147 0.184 3 
0.464 0.203 0.033 3 
0.474 -0.155 0.184 3 
0.474 -0.167 0.184 3 
0.482 -0.296 0.192 3 
0.465 0.144 0.133 3 
0.483 -0.307 0.193 3 
0.314 0.012 0.053 3 
0.485 -0.32 0.194 3 
0.484 -0.322 0.194 3 
0.475 -0.278 0.124 3 
0.549 -0.036 0.075 3 
0.469 0.305 0.184 3 
0.464 0.294 0.094 3 
0.468 0.301 0.184 3 
0.468 0.294 0.184 3 
0.467 0.284 0.183 3 
0.468 0.272 0.183 3 
0.472 -0.225 0.052 3 
0.275 0.022 0.101 3 
0.472 -0.265 0.052 3 
0.475 -0.173 0.182 3 
0.476 -0.177 0.183 3 
0.47 0.092 0.187 3 
0.47 0.163 0.189 3 
0.469 0.154 0.188 3 
0.465 0.081 0.122 3 
0.464 0.284 0.093 3 
0.469 0.142 0.187 3 
0.469 0.133 0.187 3 
0.464 0.062 0.114 3 
0.47 0.122 0.187 3 
0.47 0.072 0.187 3 
0.47 0.114 0.187 3 
0.467 0.283 0.174 3 
0.471 0.103 0.187 3 
0.469 0.174 0.188 3 
0.47 0.083 0.187 3 
0.461 0.062 0.183 3 
0.471 -0.176 0.133 3 
0.271 0.021 0.102 3 
0.263 0.014 0.099 3 
0.264 0.004 0.099 3 
0.266 -0.002 0.1 3 
0.27 -0.005 0.102 3 
0.465 0.212 0.112 3 
0.474 -0.059 0.188 3 
0.475 -0.065 0.189 3 
0.467 -0.126 0.012 3 
0.47 0.294 0.193 3 
0.474 0.358 0.199 3 
0.472 0.352 0.198 3 
0.464 0.143 0.084 3 
0.47 0.343 0.196 3 
0.47 0.332 0.196 3 
0.456 -0.032 0.063 3 
0.471 0.322 0.195 3 
0.471 -0.155 0.102 3 
0.47 0.317 0.194 3 
0.47 0.314 0.194 3 
0.47 0.304 0.194 3 
0.464 0.177 0.106 3 
0.474 -0.068 0.188 3 
0.47 0.284 0.193 3 
0.469 0.273 0.192 3 
0.469 0.264 0.191 3 
0.469 0.254 0.191 3 
0.469 0.242 0.19 3 
0.469 0.233 0.19 3 
0.469 0.224 0.19 3 
0.469 0.212 0.189 3 
0.475 -0.296 0.023 3 
0.469 0.203 0.189 3 
0.468 0.194 0.188 3 
0.468 0.182 0.188 3 
0.484 -0.315 0.2 3 
0.477 -0.217 0.193 3 
0.477 -0.226 0.193 3 
0.477 -0.235 0.194 3 
0.478 -0.245 0.195 3 
0.48 -0.255 0.195 3 
0.48 -0.265 0.196 3 
0.48 -0.275 0.196 3 
0.462 0.324 0.054 3 
0.481 -0.286 0.197 3 
0.482 -0.296 0.198 3 
0.483 -0.308 0.199 3 
0.462 0.313 0.014 3 
0.472 -0.131 0.174 3 
0.471 -0.216 0.044 3 
0.485 -0.323 0.201 3 
0.485 -0.327 0.201 3 
0.486 -0.335 0.202 3 
0.486 -0.346 0.203 3 
0.47 0.35 0.194 3 
0.367 0.016 0.018 3 
0.468 0.344 0.193 3 
0.469 0.334 0.192 3 
0.47 -0.146 0.093 3 
0.469 0.142 0.184 3 
0.469 0.133 0.184 3 
0.475 -0.13 0.19 3 
0.467 0.213 0.172 3 
0.474 -0.076 0.188 3 
0.467 0.132 0.164 3 
0.474 -0.087 0.188 3 
0.475 -0.09 0.189 3 
0.474 -0.096 0.189 3 
0.475 -0.099 0.189 3 
0.475 -0.107 0.189 3 
0.475 -0.116 0.189 3 
0.478 -0.356 0.052 3 
0.474 -0.118 0.189 3 
0.474 -0.127 0.189 3 
0.286 0.014 0.082 3 
0.475 -0.136 0.19 3 
0.464 0.092 0.103 3 
0.478 -0.316 0.102 3 
0.476 -0.145 0.19 3 
0.477 -0.157 0.191 3 
0.468 0.342 0.183 3 
0.477 -0.166 0.191 3 
0.467 -0.066 0.074 3 
0.478 -0.175 0.192 3 
0.477 -0.187 0.192 3 
0.478 -0.196 0.193 3 
0.478 -0.205 0.193 3 
0.464 0.343 0.164 3 
0.472 -0.145 0.163 3 
0.481 -0.355 0.134 3 
0.471 -0.156 0.163 3 
0.474 -0.276 0.084 3 
0.473 -0.175 0.164 3 
0.465 0.122 0.122 3 
0.48 -0.317 0.171 3 
0.481 -0.325 0.172 3 
0.469 -0.166 0.022 3 
0.481 -0.335 0.172 3 
0.483 -0.345 0.173 3 
0.485 -0.35 0.174 3 
0.482 -0.355 0.174 3 
0.481 -0.356 0.158 3 
0.466 0.335 0.164 3 
0.467 0.333 0.164 3 
0.463 0.333 0.123 3 
0.467 0.322 0.164 3 
0.467 0.312 0.163 3 
0.466 0.301 0.163 3 
0.465 0.294 0.162 3 
0.466 0.282 0.162 3 
0.464 0.249 0.16 3 
0.464 0.068 0.157 3 
0.471 -0.225 0.033 3 
0.465 0.223 0.163 3 
0.464 0.291 0.108 3 
0.474 -0.217 0.169 3 
0.476 -0.277 0.171 3 
0.477 -0.287 0.172 3 
0.478 -0.295 0.173 3 
0.466 0.266 0.164 3 
0.308 -0.004 0.071 3 
0.466 0.263 0.164 3 
0.465 0.274 0.153 3 
0.465 0.253 0.164 3 
0.466 0.242 0.164 3 
0.466 0.233 0.163 3 
0.461 0.059 0.156 3 
0.466 0.212 0.163 3 
0.467 0.204 0.163 3 
0.466 0.194 0.162 3 
0.464 0.182 0.161 3 
0.471 -0.075 0.162 3 
0.471 -0.086 0.162 3 
0.47 -0.097 0.162 3 
0.47 -0.105 0.162 3 
0.463 0.282 0.023 3 
0.471 -0.117 0.163 3 
0.471 -0.125 0.163 3 
0.473 -0.135 0.163 3 
0.477 -0.297 0.163 3 
0.465 0.073 0.154 3 
0.464 0.068 0.154 3 
0.46 0.335 0.054 3 
0.464 0.062 0.154 3 
0.466 -0.047 0.034 3 
0.275 0.007 0.093 3 
0.28 -0.005 0.094 3 
0.474 -0.225 0.16 3 
0.468 -0.135 0.093 3 
0.476 -0.276 0.162 3 
0.464 0.302 0.142 3 
0.477 -0.287 0.163 3 
0.464 0.219 0.157 3 
0.479 -0.305 0.164 3 
0.464 0.24 0.154 3 
0.465 0.178 0.084 3 
0.464 0.234 0.154 3 
0.463 0.224 0.154 3 
0.464 0.213 0.154 3 
0.464 0.271 0.063 3 
0.465 0.211 0.154 3 
0.465 0.202 0.154 3 
0.465 0.194 0.154 3 
0.464 0.19 0.153 3 
0.464 0.184 0.153 3 
0.475 -0.223 0.163 3 
0.276 0.02 0.094 3 
0.275 0 0.094 3 
0.469 -0.053 0.158 3 
0.472 -0.186 0.161 3 
0.469 -0.105 0.104 3 
0.473 -0.256 0.052 3 
0.465 -0.036 0.042 3 
0.473 -0.195 0.162 3 
0.474 -0.205 0.163 3 
0.47 -0.166 0.033 3 
0.473 -0.216 0.163 3 
0.47 -0.067 0.164 3 
0.472 -0.256 0.044 3 
0.472 -0.287 0.012 3 
0.475 -0.226 0.163 3 
0.476 -0.236 0.164 3 
0.476 -0.245 0.164 3 
0.475 -0.257 0.164 3 
0.475 -0.266 0.164 3 
0.466 0.345 0.162 3 
0.464 0.293 0.159 3 
0.464 0.255 0.158 3 
0.464 0.243 0.157 3 
0.464 0.234 0.157 3 
0.467 0.274 0.174 3 
0.473 -0.106 0.174 3 
0.463 0.244 0.104 3 
0.473 -0.115 0.174 3 
0.478 -0.285 0.181 3 
0.465 0.29 0.142 3 
0.48 -0.297 0.182 3 
0.482 -0.306 0.183 3 
0.464 0.054 0.004 3 
0.482 -0.316 0.184 3 
0.472 -0.187 0.094 3 
0.463 0.343 0.176 3 
0.467 0.296 0.174 3 
0.467 0.29 0.174 3 
0.472 -0.095 0.174 3 
0.48 -0.307 0.174 3 
0.467 0.264 0.173 3 
0.467 0.252 0.173 3 
0.468 0.244 0.173 3 
0.474 -0.257 0.072 3 
0.467 0.231 0.172 3 
0.467 0.222 0.172 3 
0.275 -0.004 0.098 3 
0.289 -0.008 0.103 3 
0.464 0.174 0.033 3 
0.473 -0.135 0.172 3 
0.475 -0.247 0.152 3 
0.485 -0.348 0.19 3 
0.467 0.201 0.174 3 
0.463 0.251 0.143 3 
0.466 0.192 0.173 3 
0.464 0.274 0.032 3 
0.467 0.184 0.174 3 
0.318 0.026 0.098 3 
0.467 0.172 0.173 3 
0.467 0.164 0.173 3 
0.468 0.144 0.173 3 
0.469 0.133 0.173 3 
0.473 -0.146 0.172 3 
0.469 0.122 0.173 3 
0.469 -0.096 0.142 3 
0.469 0.113 0.173 3 
0.469 0.102 0.173 3 
0.465 0.144 0.122 3 
0.467 0.093 0.172 3 
0.47 -0.056 0.172 3 
0.47 -0.067 0.173 3 
0.465 0.102 0.044 3 
0.462 0.213 0.014 3 
0.471 -0.075 0.173 3 
0.471 -0.086 0.173 3 
0.476 -0.317 0.014 3 
0.476 -0.255 0.173 3 
0.477 -0.268 0.174 3 
0.464 0.102 0.082 3 
0.465 0.179 0.164 3 
0.469 -0.116 0.123 3 
0.465 0.174 0.164 3 
0.466 0.162 0.164 3 
0.466 -0.039 0.103 3 
0.466 0.154 0.164 3 
0.467 0.143 0.164 3 
0.467 0.124 0.164 3 
0.467 0.112 0.164 3 
0.472 -0.205 0.083 3 
0.467 0.104 0.164 3 
0.467 0.093 0.164 3 
0.467 0.082 0.163 3 
0.467 0.074 0.163 3 
0.465 0.063 0.163 3 
0.465 0.215 0.12 3 
0.271 0.018 0.094 3 
0.271 0.005 0.094 3 
0.465 0.114 0.074 3 
0.271 0.004 0.094 3 
0.29 0.004 0.074 3 
0.469 -0.055 0.164 3 
0.463 0.343 0.173 3 
0.471 -0.157 0.172 3 
0.474 -0.176 0.173 3 
0.447 0.035 0.038 3 
0.475 -0.182 0.174 3 
0.475 -0.185 0.174 3 
0.465 -0.087 0.012 3 
0.475 -0.197 0.174 3 
0.475 -0.206 0.174 3 
0.483 -0.327 0.182 3 
0.483 -0.338 0.182 3 
0.485 -0.347 0.184 3 
0.483 -0.353 0.183 3 
0.479 -0.327 0.114 3 
0.465 0.338 0.173 3 
0.467 0.333 0.173 3 
0.468 0.324 0.173 3 
0.467 0.313 0.172 3 
0.474 -0.187 0.171 3 
0.474 -0.196 0.171 3 
0.475 -0.215 0.172 3 
0.472 -0.166 0.164 3 
0.475 -0.227 0.172 3 
0.463 0.062 0.092 3 
0.477 -0.237 0.173 3 
0.477 -0.246 0.173 3 
0.463 0.243 0.043 3 
0.461 -0.075 0.047 3 
0.462 0.338 0.042 3 
0.461 0.333 0.042 3 
0.463 0.312 0.043 3 
0.462 0.304 0.043 3 
0.465 -0.065 0.042 3 
0.464 0.293 0.043 3 
0.464 0.283 0.043 3 
0.464 0.274 0.043 3 
0.463 0.261 0.043 3 
0.466 -0.055 0.034 3 
0.463 0.222 0.024 3 
0.463 0.252 0.043 3 
0.46 0.336 0.014 3 
0.464 0.223 0.043 3 
0.464 0.214 0.043 3 
0.464 0.202 0.043 3 
0.464 0.194 0.044 3 
0.464 0.182 0.044 3 
0.464 0.174 0.044 3 
0.464 0.163 0.044 3 
0.464 0.154 0.044 3 
0.464 0.143 0.044 3 
0.464 0.132 0.044 3 
0.464 0.124 0.044 3 
0.462 0.112 0.044 3 
0.327 0.001 0.053 3 
0.335 -0.004 0.053 3 
0.342 0.014 0.021 3 
0.367 -0.006 0.052 3 
0.352 -0.007 0.053 3 
0.46 -0.03 0.05 3 
0.465 -0.076 0.012 3 
0.457 -0.035 0.05 3 
0.449 -0.042 0.05 3 
0.463 0.301 0.034 3 
0.462 0.104 0.044 3 
0.465 -0.007 0.023 3 
0.475 -0.292 0.049 3 
0.465 0.103 0.047 3 
0.473 0.094 0.046 3 
0.475 0.092 0.046 3 
0.464 0.07 0.047 3 
0.46 0.053 0.047 3 
0.452 -0.055 0.048 3 
0.446 -0.069 0.048 3 
0.477 -0.355 0.043 3 
0.471 -0.187 0.044 3 
0.471 -0.195 0.044 3 
0.472 -0.205 0.044 3 
0.471 -0.225 0.044 3 
0.471 -0.237 0.044 3 
0.472 -0.247 0.044 3 
0.472 -0.265 0.044 3 
0.475 -0.295 0.044 3 
0.476 -0.306 0.044 3 
0.478 -0.328 0.043 3 
0.478 -0.335 0.043 3 
0.479 -0.347 0.043 3 
0.47 -0.175 0.044 3 
0.465 0.147 0.041 3 
0.465 0.141 0.041 3 
0.463 0.093 0.041 3 
0.345 0.024 0.048 3 
0.368 -0.002 0.047 3 
0.53 -0.028 0.038 3 
0.466 -0.076 0.042 3 
0.475 -0.282 0.041 3 
0.465 0.078 0.039 3 
0.361 0.024 0.045 3 
0.346 0.008 0.046 3 
0.464 -0.036 0.044 3 
0.466 0.092 0.044 3 
0.464 0.083 0.044 3 
0.463 0.072 0.044 3 
0.465 -0.055 0.042 3 
0.463 0.064 0.044 3 
0.462 0.053 0.044 3 
0.335 0.005 0.05 3 
0.345 -0.001 0.05 3 
0.531 -0.018 0.042 3 
0.524 -0.024 0.042 3 
0.465 -0.031 0.044 3 
0.464 -0.033 0.044 3 
0.322 0.004 0.053 3 
0.464 -0.046 0.044 3 
0.463 -0.057 0.044 3 
0.462 -0.062 0.045 3 
0.463 -0.065 0.045 3 
0.483 -0.081 0.044 3 
0.479 -0.085 0.044 3 
0.474 -0.09 0.044 3 
0.47 -0.096 0.044 3 
0.468 -0.107 0.044 3 
0.469 -0.115 0.044 3 
0.469 -0.135 0.044 3 
0.47 -0.146 0.044 3 
0.357 0.034 0.056 3 
0.464 0.283 0.054 3 
0.464 0.262 0.054 3 
0.464 0.252 0.054 3 
0.463 0.234 0.054 3 
0.464 0.223 0.054 3 
0.464 0.214 0.054 3 
0.463 0.202 0.054 3 
0.463 0.193 0.054 3 
0.465 0.094 0.055 3 
0.463 0.243 0.032 3 
0.344 0.04 0.056 3 
0.463 0.293 0.054 3 
0.344 -0.008 0.056 3 
0.331 -0.011 0.056 3 
0.48 -0.06 0.055 3 
0.463 0.173 0.052 3 
0.463 0.162 0.052 3 
0.464 0.143 0.052 3 
0.465 0.141 0.052 3 
0.465 0.133 0.052 3 
0.464 0.124 0.052 3 
0.477 -0.307 0.064 3 
0.477 -0.317 0.064 3 
0.478 -0.335 0.064 3 
0.479 -0.357 0.064 3 
0.464 0.154 0.052 3 
0.333 0.039 0.059 3 
0.308 0.029 0.059 3 
0.354 0.03 0.059 3 
0.325 -0.003 0.059 3 
0.348 -0.02 0.059 3 
0.485 -0.044 0.061 3 
0.462 0.112 0.052 3 
0.35 0.043 0.057 3 
0.322 0.026 0.057 3 
0.328 0.023 0.057 3 
0.349 -0.007 0.058 3 
0.366 -0.024 0.058 3 
0.463 0.302 0.054 3 
0.475 -0.295 0.052 3 
0.469 -0.126 0.052 3 
0.47 -0.135 0.052 3 
0.47 -0.155 0.052 3 
0.47 -0.166 0.052 3 
0.47 -0.177 0.052 3 
0.471 -0.187 0.052 3 
0.471 -0.207 0.052 3 
0.471 -0.216 0.052 3 
0.472 -0.237 0.052 3 
0.473 -0.247 0.052 3 
0.472 -0.277 0.052 3 
0.473 -0.285 0.052 3 
0.469 -0.115 0.052 3 
0.476 -0.306 0.052 3 
0.476 -0.316 0.052 3 
0.477 -0.327 0.052 3 
0.478 -0.335 0.052 3 
0.464 0.13 0.049 3 
0.446 0.073 0.05 3 
0.464 0.075 0.049 3 
0.467 0.073 0.049 3 
0.322 0.021 0.053 3 
0.317 0.013 0.053 3 
0.333 0.024 0.054 3 
0.464 -0.009 0.026 3 
0.366 0.047 0.054 3 
0.47 -0.155 0.033 3 
0.348 0.041 0.054 3 
0.339 0.037 0.054 3 
0.34 0.034 0.054 3 
0.35 0.033 0.054 3 
0.355 0.029 0.054 3 
0.465 -0.047 0.039 3 
0.34 -0.015 0.054 3 
0.474 -0.353 0.011 3 
0.469 -0.094 0.052 3 
0.469 -0.096 0.052 3 
0.468 -0.107 0.052 3 
0.464 -0.047 0.018 3 
0.467 -0.115 0.023 3 
0.468 -0.126 0.023 3 
0.469 -0.138 0.022 3 
0.469 -0.146 0.022 3 
0.469 -0.157 0.022 3 
0.469 -0.177 0.022 3 
0.47 -0.186 0.022 3 
0.47 -0.195 0.022 3 
0.471 -0.207 0.022 3 
0.474 -0.295 0.021 3 
0.464 -0.039 0.02 3 
0.46 0.332 0.014 3 
0.463 0.324 0.014 3 
0.467 -0.106 0.023 3 
0.464 -0.055 0.018 3 
0.476 -0.313 0.014 3 
0.477 -0.328 0.014 3 
0.477 -0.335 0.014 3 
0.477 -0.345 0.014 3 
0.462 0.304 0.012 3 
0.462 0.294 0.012 3 
0.462 0.282 0.012 3 
0.462 0.263 0.013 3 
0.461 0.253 0.013 3 
0.462 0.233 0.013 3 
0.462 0.224 0.013 3 
0.462 0.032 0.023 3 
0.463 0.154 0.022 3 
0.462 0.142 0.022 3 
0.464 0.124 0.023 3 
0.465 0.119 0.022 3 
0.464 0.113 0.023 3 
0.463 0.104 0.023 3 
0.464 0.094 0.023 3 
0.464 0.083 0.023 3 
0.464 0.072 0.023 3 
0.464 0.064 0.023 3 
0.463 0.053 0.023 3 
0.463 0.043 0.023 3 
0.462 0.204 0.014 3 
0.463 0.024 0.023 3 
0.464 0.003 0.023 3 
0.465 0 0.023 3 
0.464 -0.012 0.023 3 
0.464 -0.025 0.023 3 
0.465 -0.031 0.023 3 
0.465 -0.036 0.023 3 
0.465 -0.047 0.023 3 
0.465 -0.055 0.023 3 
0.467 -0.076 0.023 3 
0.467 -0.085 0.023 3 
0.467 -0.095 0.023 3 
0.466 -0.015 0.004 3 
0.462 0.043 0.013 3 
0.463 -0.025 0.013 3 
0.463 -0.046 0.013 3 
0.465 -0.057 0.012 3 
0.465 -0.065 0.012 3 
0.466 -0.095 0.012 3 
0.466 -0.106 0.012 3 
0.466 -0.117 0.012 3 
0.465 -0.052 0.01 3 
0.465 -0.015 0.007 3 
0.465 -0.041 0.007 3 
0.464 0.064 0.004 3 
0.462 0.053 0.013 3 
0.464 -0.025 0.004 3 
0.465 -0.028 0.004 3 
0.465 -0.047 0.004 3 
0.469 -0.055 0.004 3 
0.468 -0.066 0.004 3 
0.469 -0.115 0.004 3 
0.37 0.013 0.017 3 
0.375 0.004 0.016 3 
0.374 0.002 0.017 3 
0.341 0.016 0.021 3 
0.342 0.016 0.013 3 
0.342 0.014 0.013 3 
0.469 -0.197 0.014 3 
0.462 0.193 0.014 3 
0.462 0.184 0.014 3 
0.462 0.173 0.014 3 
0.462 0.162 0.014 3 
0.462 0.154 0.014 3 
0.462 0.134 0.014 3 
0.468 -0.143 0.014 3 
0.468 -0.148 0.014 3 
0.468 -0.157 0.014 3 
0.468 -0.165 0.014 3 
0.468 -0.176 0.014 3 
0.468 -0.185 0.014 3 
0.463 0.014 0.023 3 
0.47 -0.215 0.014 3 
0.47 -0.227 0.013 3 
0.471 -0.237 0.013 3 
0.472 -0.247 0.013 3 
0.473 -0.256 0.013 3 
0.472 -0.277 0.013 3 
0.473 -0.297 0.012 3 
0.462 0.112 0.012 3 
0.462 0.104 0.012 3 
0.462 0.093 0.012 3 
0.462 0.083 0.012 3 
0.462 0.074 0.012 3 
0.436 0.024 0.036 3 
0.464 0.143 0.033 3 
0.464 0.132 0.033 3 
0.463 0.124 0.033 3 
0.464 0.102 0.033 3 
0.464 0.091 0.033 3 
0.463 0.083 0.034 3 
0.464 0.072 0.034 3 
0.464 0.064 0.034 3 
0.464 0.054 0.034 3 
0.461 0.042 0.034 3 
0.456 0.034 0.034 3 
0.448 0.031 0.035 3 
0.44 0.027 0.036 3 
0.464 0.194 0.033 3 
0.535 -0.008 0.028 3 
0.466 -0.02 0.034 3 
0.466 -0.025 0.034 3 
0.466 -0.036 0.034 3 
0.467 -0.077 0.034 3 
0.467 -0.085 0.034 3 
0.468 -0.096 0.034 3 
0.468 -0.107 0.034 3 
0.462 0.338 0.034 3 
0.461 0.333 0.034 3 
0.463 0.322 0.034 3 
0.463 0.312 0.034 3 
0.464 0.293 0.034 3 
0.464 0.283 0.034 3 
0.465 0.2 0.035 3 
0.46 0.042 0.037 3 
0.366 0.018 0.043 3 
0.35 0.015 0.044 3 
0.468 -0.115 0.034 3 
0.531 -0.015 0.032 3 
0.535 -0.021 0.031 3 
0.478 -0.332 0.034 3 
0.478 -0.335 0.034 3 
0.479 -0.347 0.034 3 
0.477 -0.355 0.034 3 
0.463 0.261 0.032 3 
0.463 0.252 0.032 3 
0.463 0.234 0.032 3 
0.465 0.062 0.001 3 
0.464 0.223 0.032 3 
0.464 0.214 0.032 3 
0.473 -0.257 0.024 3 
0.462 0.324 0.023 3 
0.474 -0.356 0.014 3 
0.463 0.314 0.023 3 
0.463 0.301 0.023 3 
0.463 0.273 0.024 3 
0.463 0.264 0.024 3 
0.463 0.252 0.024 3 
0.463 0.243 0.024 3 
0.463 0.234 0.024 3 
0.464 0.203 0.024 3 
0.471 -0.222 0.024 3 
0.471 -0.225 0.024 3 
0.461 0.333 0.023 3 
0.473 -0.265 0.024 3 
0.473 -0.275 0.024 3 
0.474 -0.285 0.024 3 
0.475 -0.292 0.023 3 
0.475 -0.305 0.023 3 
0.476 -0.316 0.023 3 
0.477 -0.328 0.023 3 
0.478 -0.339 0.023 3 
0.477 -0.356 0.022 3 
0.463 0.182 0.022 3 
0.463 0.174 0.022 3 
0.463 0.162 0.022 3 
0.472 -0.265 0.033 3 
0.463 0.123 0.012 3 
0.468 -0.126 0.033 3 
0.469 -0.135 0.033 3 
0.47 -0.146 0.033 3 
0.47 -0.175 0.033 3 
0.47 -0.186 0.033 3 
0.47 -0.195 0.033 3 
0.471 -0.207 0.033 3 
0.471 -0.216 0.033 3 
0.472 -0.235 0.033 3 
0.473 -0.247 0.033 3 
0.473 -0.257 0.032 3 
0.463 0.243 0.054 3 
0.473 -0.278 0.032 3 
0.475 -0.286 0.032 3 
0.475 -0.295 0.032 3 
0.476 -0.306 0.032 3 
0.465 0.116 0.031 3 
0.457 0.024 0.032 3 
0.448 0.018 0.032 3 
0.458 0.013 0.032 3 
0.467 -0.004 0.031 3 
0.465 -0.007 0.031 3 
0.463 0.003 0.029 3 
0.469 -0.107 0.093 3 
0.464 0.083 0.092 3 
0.464 0.073 0.092 3 
0.295 0.014 0.072 3 
0.583 -0.024 0.106 3 
0.576 -0.027 0.105 3 
0.582 -0.039 0.106 3 
0.465 -0.036 0.092 3 
0.466 -0.047 0.093 3 
0.467 -0.055 0.093 3 
0.467 -0.066 0.093 3 
0.468 -0.077 0.093 3 
0.468 -0.085 0.093 3 
0.469 -0.096 0.093 3 
0.464 0.092 0.092 3 
0.468 -0.115 0.093 3 
0.467 -0.126 0.093 3 
0.463 0.193 0.022 3 
0.47 -0.155 0.094 3 
0.47 -0.166 0.094 3 
0.471 -0.175 0.094 3 
0.472 -0.196 0.094 3 
0.472 -0.205 0.094 3 
0.465 0.331 0.091 3 
0.464 0.183 0.09 3 
0.465 0.114 0.09 3 
0.465 0.172 0.093 3 
0.464 0.272 0.093 3 
0.463 0.262 0.093 3 
0.464 0.254 0.093 3 
0.465 0.244 0.093 3 
0.464 0.241 0.093 3 
0.464 0.232 0.093 3 
0.464 0.223 0.093 3 
0.465 0.215 0.093 3 
0.465 0.212 0.093 3 
0.465 0.203 0.093 3 
0.464 0.194 0.093 3 
0.465 0.183 0.093 3 
0.465 0.089 0.09 3 
0.464 0.169 0.092 3 
0.463 0.064 0.047 3 
0.464 0.163 0.092 3 
0.464 0.143 0.092 3 
0.464 0.132 0.092 3 
0.465 0.127 0.092 3 
0.464 0.124 0.092 3 
0.472 -0.256 0.083 3 
0.465 0.122 0.092 3 
0.464 0.113 0.092 3 
0.464 0.102 0.092 3 
0.465 0.097 0.092 3 
0.465 0.136 0.084 3 
0.464 0.211 0.084 3 
0.464 0.203 0.084 3 
0.464 0.194 0.084 3 
0.464 0.183 0.084 3 
0.465 0.172 0.084 3 
0.471 -0.187 0.083 3 
0.464 0.168 0.084 3 
0.461 0.333 0.054 3 
0.464 0.163 0.084 3 
0.464 0.152 0.084 3 
0.546 -0.042 0.095 3 
0.465 0.133 0.084 3 
0.465 0.122 0.084 3 
0.465 0.114 0.084 3 
0.465 0.103 0.084 3 
0.464 0.094 0.084 3 
0.465 0.092 0.084 3 
0.464 0.083 0.084 3 
0.464 0.073 0.084 3 
0.463 0.062 0.084 3 
0.463 0.053 0.084 3 
0.553 -0.015 0.092 3 
0.57 -0.027 0.094 3 
0.469 -0.126 0.044 3 
0.464 0.113 0.033 3 
0.575 -0.02 0.101 3 
0.462 0.064 0.013 3 
0.575 -0.027 0.102 3 
0.578 -0.035 0.102 3 
0.47 -0.155 0.063 3 
0.472 -0.225 0.092 3 
0.472 -0.237 0.092 3 
0.473 -0.257 0.092 3 
0.462 0.314 0.054 3 
0.474 -0.267 0.092 3 
0.475 -0.271 0.092 3 
0.464 0.214 0.09 3 
0.475 -0.277 0.092 3 
0.464 0.293 0.023 3 
0.475 -0.296 0.093 3 
0.477 -0.305 0.093 3 
0.478 -0.316 0.093 3 
0.479 -0.327 0.094 3 
0.479 -0.337 0.094 3 
0.479 -0.347 0.094 3 
0.477 -0.355 0.094 3 
0.465 0.247 0.088 3 
0.54 -0.015 0.094 3 
0.573 -0.027 0.098 3 
0.466 -0.047 0.103 3 
0.464 0.144 0.103 3 
0.465 0.133 0.103 3 
0.464 0.13 0.103 3 
0.465 0.122 0.103 3 
0.464 0.119 0.103 3 
0.464 0.113 0.103 3 
0.464 0.102 0.103 3 
0.465 0.095 0.103 3 
0.465 0.089 0.103 3 
0.464 0.083 0.103 3 
0.464 0.073 0.103 3 
0.464 0.062 0.103 3 
0.462 0.338 0.022 3 
0.464 0.152 0.103 3 
0.467 -0.055 0.103 3 
0.467 -0.066 0.104 3 
0.468 -0.077 0.104 3 
0.552 -0.015 0.099 3 
0.469 -0.085 0.104 3 
0.463 0.234 0.043 3 
0.469 -0.096 0.104 3 
0.468 -0.115 0.104 3 
0.465 0.272 0.06 3 
0.468 -0.126 0.104 3 
0.469 -0.135 0.104 3 
0.472 -0.235 0.024 3 
0.462 0.272 0.013 3 
0.473 -0.247 0.083 3 
0.455 0.047 0.104 3 
0.479 -0.345 0.112 3 
0.473 -0.248 0.024 3 
0.478 -0.355 0.112 3 
0.464 0.323 0.105 3 
0.327 0.013 0.05 3 
0.464 0.269 0.104 3 
0.464 0.263 0.104 3 
0.464 0.254 0.104 3 
0.464 0.323 0.082 3 
0.462 0.234 0.104 3 
0.469 -0.146 0.104 3 
0.464 0.223 0.104 3 
0.464 0.214 0.104 3 
0.465 0.212 0.104 3 
0.465 0.203 0.104 3 
0.465 0.192 0.104 3 
0.476 -0.001 0.03 3 
0.465 0.183 0.104 3 
0.464 0.177 0.103 3 
0.464 0.171 0.103 3 
0.465 0.169 0.103 3 
0.478 -0.346 0.022 3 
0.464 0.163 0.103 3 
0.464 0.194 0.095 3 
0.465 0.292 0.099 3 
0.465 0.136 0.098 3 
0.321 0.024 0.078 3 
0.293 0.018 0.074 3 
0.291 0.013 0.074 3 
0.477 -0.295 0.102 3 
0.478 -0.306 0.102 3 
0.479 -0.327 0.102 3 
0.479 -0.338 0.103 3 
0.479 -0.345 0.103 3 
0.479 -0.358 0.103 3 
0.464 0.203 0.095 3 
0.465 0.311 0.1 3 
0.478 -0.328 0.073 3 
0.465 0.114 0.095 3 
0.461 0.048 0.094 3 
0.295 0.018 0.074 3 
0.295 0 0.074 3 
0.462 0.338 0.094 3 
0.462 0.334 0.094 3 
0.464 0.323 0.094 3 
0.463 -0.015 0.013 3 
0.464 0.313 0.094 3 
0.464 0.303 0.094 3 
0.471 -0.167 0.102 3 
0.463 0.339 0.103 3 
0.462 0.331 0.102 3 
0.464 0.323 0.102 3 
0.464 0.313 0.102 3 
0.464 0.304 0.102 3 
0.464 0.294 0.102 3 
0.464 0.284 0.102 3 
0.461 0.333 0.082 3 
0.465 0.251 0.102 3 
0.465 0.215 0.101 3 
0.295 -0.003 0.076 3 
0.463 0.234 0.063 3 
0.466 -0.036 0.084 3 
0.472 -0.187 0.102 3 
0.473 -0.197 0.103 3 
0.472 -0.205 0.103 3 
0.473 -0.217 0.103 3 
0.473 -0.226 0.103 3 
0.473 -0.235 0.103 3 
0.474 -0.245 0.103 3 
0.473 -0.257 0.103 3 
0.473 -0.266 0.104 3 
0.475 -0.277 0.104 3 
0.476 -0.288 0.104 3 
0.465 0.331 0.1 3 
0.464 -0.041 0.068 3 
0.474 -0.295 0.072 3 
0.476 -0.3 0.073 3 
0.477 -0.305 0.073 3 
0.477 -0.315 0.073 3 
0.479 -0.336 0.073 3 
0.48 -0.348 0.073 3 
0.479 -0.358 0.073 3 
0.306 -0.003 0.062 3 
0.526 -0.014 0.071 3 
0.532 -0.018 0.071 3 
0.538 -0.025 0.071 3 
0.463 -0.033 0.068 3 
0.473 -0.285 0.072 3 
0.337 0.026 0.062 3 
0.463 0.322 0.062 3 
0.463 0.312 0.062 3 
0.463 0.302 0.062 3 
0.463 0.293 0.062 3 
0.463 0.283 0.062 3 
0.465 0.275 0.063 3 
0.464 0.252 0.063 3 
0.463 0.243 0.063 3 
0.464 0.223 0.063 3 
0.464 0.214 0.063 3 
0.464 0.202 0.063 3 
0.302 0.004 0.064 3 
0.468 -0.115 0.074 3 
0.469 -0.126 0.074 3 
0.469 -0.135 0.074 3 
0.469 -0.146 0.074 3 
0.47 -0.155 0.074 3 
0.47 -0.166 0.074 3 
0.464 0.132 0.071 3 
0.464 0.124 0.071 3 
0.316 0.021 0.064 3 
0.311 0.019 0.064 3 
0.306 0.014 0.064 3 
0.304 0.012 0.064 3 
0.464 0.194 0.063 3 
0.524 -0.014 0.074 3 
0.542 -0.018 0.075 3 
0.471 -0.187 0.072 3 
0.472 -0.196 0.072 3 
0.472 -0.205 0.072 3 
0.472 -0.216 0.072 3 
0.465 0.119 0.052 3 
0.473 -0.226 0.072 3 
0.473 -0.235 0.072 3 
0.474 -0.248 0.072 3 
0.474 -0.267 0.072 3 
0.473 -0.275 0.072 3 
0.35 0.012 0.044 3 
0.468 -0.107 0.063 3 
0.469 -0.115 0.063 3 
0.479 -0.347 0.052 3 
0.469 -0.126 0.063 3 
0.469 -0.135 0.063 3 
0.47 -0.146 0.063 3 
0.47 -0.166 0.063 3 
0.47 -0.177 0.063 3 
0.463 0.213 0.024 3 
0.471 -0.187 0.063 3 
0.471 -0.195 0.063 3 
0.475 -0.286 0.044 3 
0.468 -0.096 0.063 3 
0.472 -0.208 0.064 3 
0.472 -0.216 0.064 3 
0.473 -0.226 0.064 3 
0.473 -0.235 0.064 3 
0.473 -0.247 0.064 3 
0.473 -0.256 0.064 3 
0.473 -0.266 0.064 3 
0.473 -0.275 0.064 3 
0.473 -0.285 0.064 3 
0.474 -0.295 0.064 3 
0.464 -0.055 0.012 3 
0.475 -0.303 0.064 3 
0.46 0.074 0.063 3 
0.464 0.182 0.063 3 
0.463 0.173 0.063 3 
0.463 -0.036 0.013 3 
0.464 0.143 0.063 3 
0.465 0.136 0.063 3 
0.465 0.133 0.063 3 
0.464 0.124 0.063 3 
0.464 0.113 0.063 3 
0.524 -0.027 0.042 3 
0.463 0.102 0.063 3 
0.463 0.094 0.063 3 
0.462 0.082 0.063 3 
0.468 -0.107 0.074 3 
0.458 0.053 0.063 3 
0.464 0.274 0.054 3 
0.319 -0.003 0.06 3 
0.468 -0.052 0.063 3 
0.467 -0.055 0.063 3 
0.467 -0.066 0.063 3 
0.464 0.163 0.033 3 
0.467 -0.077 0.063 3 
0.467 -0.085 0.063 3 
0.472 -0.225 0.083 3 
0.468 -0.115 0.082 3 
0.468 -0.126 0.082 3 
0.464 0.154 0.063 3 
0.469 -0.135 0.082 3 
0.47 -0.146 0.083 3 
0.47 -0.155 0.083 3 
0.47 -0.166 0.083 3 
0.47 -0.177 0.083 3 
0.472 -0.196 0.083 3 
0.471 -0.216 0.083 3 
0.464 -0.015 0.023 3 
0.473 -0.235 0.083 3 
0.473 -0.266 0.084 3 
0.462 0.137 0.014 3 
0.474 -0.286 0.084 3 
0.475 -0.296 0.084 3 
0.477 -0.315 0.084 3 
0.464 0.132 0.079 3 
0.465 0.065 0.079 3 
0.466 -0.047 0.074 3 
0.452 0.044 0.078 3 
0.467 -0.033 0.079 3 
0.464 0.223 0.082 3 
0.466 -0.047 0.084 3 
0.474 -0.276 0.087 3 
0.463 0.339 0.082 3 
0.464 0.313 0.082 3 
0.538 -0.021 0.071 3 
0.464 0.303 0.082 3 
0.463 0.283 0.082 3 
0.463 0.274 0.082 3 
0.463 0.262 0.082 3 
0.464 0.253 0.082 3 
0.464 0.244 0.082 3 
0.464 0.232 0.082 3 
0.478 -0.325 0.082 3 
0.464 0.108 0.082 3 
0.338 -0.008 0.054 3 
0.465 0.062 0.082 3 
0.558 -0.016 0.089 3 
0.566 -0.02 0.09 3 
0.573 -0.038 0.09 3 
0.466 -0.055 0.082 3 
0.467 -0.066 0.082 3 
0.467 -0.077 0.082 3 
0.468 -0.085 0.082 3 
0.468 -0.096 0.082 3 
0.469 -0.107 0.082 3 
0.464 0.094 0.073 3 
0.464 0.183 0.074 3 
0.464 0.174 0.074 3 
0.464 0.163 0.073 3 
0.464 0.154 0.073 3 
0.465 0.152 0.074 3 
0.464 0.143 0.073 3 
0.465 0.138 0.074 3 
0.465 0.133 0.074 3 
0.465 0.122 0.074 3 
0.464 0.11 0.073 3 
0.464 0.102 0.073 3 
0.464 0.194 0.074 3 
0.465 0.084 0.074 3 
0.464 0.073 0.074 3 
0.464 0.064 0.073 3 
0.464 0.054 0.073 3 
0.554 -0.026 0.079 3 
0.465 -0.033 0.074 3 
0.466 -0.036 0.074 3 
0.467 -0.055 0.074 3 
0.467 -0.085 0.074 3 
0.468 -0.096 0.074 3 
0.342 0.003 0.021 3 
0.464 0.313 0.074 3 
0.478 -0.335 0.082 3 
0.478 -0.346 0.082 3 
0.478 -0.356 0.082 3 
0.465 0.209 0.076 3 
0.555 -0.019 0.082 3 
0.566 -0.023 0.083 3 
0.561 -0.026 0.082 3 
0.563 -0.037 0.083 3 
0.475 -0.293 0.078 3 
0.464 0.34 0.074 3 
0.462 0.334 0.074 3 
0.463 0.322 0.074 3 
0.341 0.003 0.014 3 
0.463 0.302 0.074 3 
0.463 0.293 0.074 3 
0.463 0.283 0.074 3 
0.464 0.272 0.074 3 
0.464 0.262 0.074 3 
0.464 0.252 0.074 3 
0.464 0.243 0.074 3 
0.464 0.232 0.074 3 
0.464 0.223 0.074 3 
0.464 0.214 0.074 3 
0.464 0.203 0.074 3 
