# .PCD v0.7 - Point Cloud Data file
FIELDS x y z intensity
SIZE 4 4 4 4
TYPE F F F F
COUNT 1 1 1 1
WIDTH 2354
HEIGHT 1
VIEWPOINT 0 0 0 1 0 0 0
POINTS 2354
DATA ascii
0.414 0.007 -0.004 0 
0.299 0.002 0.02 0 
0.304 -0.005 0.02 0 
0.305 0.002 0.02 0 
0.372 -0.236 -0.025 1 
0.364 -0.136 -0.018 1 
0.362 -0.125 -0.017 1 
0.363 -0.105 -0.017 1 
0.361 -0.055 -0.015 1 
0.362 -0.045 -0.015 1 
0.364 -0.027 -0.016 1 
0.342 -0.02 -0.008 1 
0.361 0.014 -0.015 1 
0.361 0.023 -0.015 1 
0.36 0.033 -0.015 1 
0.357 0.074 -0.014 1 
0.354 0.084 -0.014 1 
0.354 0.085 -0.014 1 
0.353 0.113 -0.014 1 
0.351 0.123 -0.013 1 
0.354 0.141 -0.015 1 
0.354 0.153 -0.016 1 
0.35 0.163 -0.015 1 
0.342 0.203 -0.015 1 
0.381 -0.226 -0.025 1 
0.373 -0.196 -0.021 1 
0.37 -0.146 -0.018 1 
0.37 -0.126 -0.018 1 
0.364 -0.085 -0.015 1 
0.364 0.043 -0.015 1 
0.364 0.063 -0.015 1 
0.36 0.083 -0.014 1 
0.361 0.089 -0.014 1 
0.363 0.093 -0.015 1 
0.362 0.104 -0.015 1 
0.359 0.124 -0.015 1 
0.355 0.133 -0.013 1 
0.354 0.134 -0.013 1 
0.353 0.172 -0.015 1 
0.352 0.173 -0.014 1 
0.351 0.214 -0.016 1 
0.382 -0.25 -0.025 1 
0.383 -0.236 -0.024 1 
0.387 -0.232 -0.025 1 
0.384 -0.227 -0.024 1 
0.372 -0.186 -0.019 1 
0.374 -0.175 -0.019 1 
0.374 -0.136 -0.018 1 
0.372 -0.115 -0.016 1 
0.37 -0.095 -0.015 1 
0.372 -0.085 -0.016 1 
0.373 -0.075 -0.016 1 
0.37 -0.056 -0.015 1 
0.374 -0.046 -0.016 1 
0.374 -0.04 -0.016 1 
0.373 0.011 -0.016 1 
0.372 0.024 -0.016 1 
0.369 0.064 -0.015 1 
0.365 0.109 -0.014 1 
0.364 0.114 -0.014 1 
0.364 0.116 -0.014 1 
0.364 0.143 -0.015 1 
0.364 0.151 -0.015 1 
0.382 -0.245 -0.024 1 
0.356 0.179 -0.014 1 
0.357 0.182 -0.015 1 
0.359 0.194 -0.016 1 
0.357 0.203 -0.016 1 
0.392 -0.256 -0.026 1 
0.379 -0.195 -0.019 1 
0.379 -0.165 -0.018 1 
0.38 -0.155 -0.018 1 
0.379 -0.105 -0.017 1 
0.374 -0.066 -0.014 1 
0.374 -0.064 -0.014 1 
0.382 -0.03 -0.017 1 
0.374 0.049 -0.015 1 
0.374 0.083 -0.015 1 
0.374 0.098 -0.015 1 
0.372 0.123 -0.015 1 
0.37 0.133 -0.015 1 
0.369 0.163 -0.016 1 
0.362 0.224 -0.017 1 
0.361 0.225 -0.016 1 
0.392 -0.256 -0.024 1 
0.393 -0.246 -0.024 1 
0.391 -0.242 -0.023 1 
0.403 -0.249 -0.027 1 
0.402 -0.243 -0.026 1 
0.392 -0.228 -0.022 1 
0.383 -0.125 -0.016 1 
0.384 -0.12 -0.017 1 
0.381 -0.096 -0.015 1 
0.384 -0.085 -0.016 1 
0.384 -0.075 -0.016 1 
0.38 -0.068 -0.014 1 
0.38 -0.064 -0.014 1 
0.384 -0.06 -0.016 1 
0.384 0.014 -0.016 1 
0.382 0.023 -0.015 1 
0.381 0.043 -0.015 1 
0.383 0.053 -0.016 1 
0.379 0.063 -0.015 1 
0.379 0.073 -0.015 1 
0.38 0.083 -0.015 1 
0.381 0.114 -0.016 1 
0.374 0.144 -0.015 1 
0.37 0.183 -0.015 1 
0.367 0.224 -0.016 1 
0.394 -0.222 -0.021 1 
0.393 -0.205 -0.02 1 
0.391 -0.185 -0.019 1 
0.391 -0.156 -0.018 1 
0.391 -0.115 -0.017 1 
0.374 -0.221 -0.025 1 
0.391 -0.107 -0.017 1 
0.392 -0.033 -0.016 1 
0.384 0.071 -0.014 1 
0.384 0.097 -0.015 1 
0.382 0.124 -0.015 1 
0.382 0.133 -0.015 1 
0.38 0.144 -0.015 1 
0.379 0.154 -0.015 1 
0.382 0.164 -0.016 1 
0.374 0.234 -0.017 1 
0.404 -0.266 -0.023 1 
0.403 -0.26 -0.023 1 
0.382 -0.215 -0.021 1 
0.401 -0.229 -0.021 1 
0.394 -0.125 -0.016 1 
0.394 -0.075 -0.015 1 
0.391 -0.07 -0.014 1 
0.393 -0.066 -0.015 1 
0.393 -0.064 -0.015 1 
0.394 -0.046 -0.015 1 
0.334 -0.019 0.003 1 
0.299 -0.005 0.014 1 
0.3 0.003 0.014 1 
0.364 -0.147 -0.018 1 
0.394 0.033 -0.015 1 
0.393 0.053 -0.015 1 
0.393 0.063 -0.015 1 
0.393 0.074 -0.015 1 
0.393 0.082 -0.015 1 
0.39 0.093 -0.015 1 
0.389 0.097 -0.014 1 
0.39 0.102 -0.015 1 
0.387 0.146 -0.015 1 
0.384 0.155 -0.014 1 
0.374 0.152 -0.015 1 
0.38 0.234 -0.017 1 
0.379 0.242 -0.017 1 
0.384 0.251 -0.019 1 
0.409 -0.266 -0.022 1 
0.412 -0.258 -0.023 1 
0.402 -0.216 -0.019 1 
0.4 -0.206 -0.018 1 
0.403 -0.176 -0.018 1 
0.403 -0.166 -0.017 1 
0.403 -0.157 -0.017 1 
0.4 -0.146 -0.016 1 
0.401 -0.136 -0.016 1 
0.4 -0.105 -0.015 1 
0.4 -0.096 -0.015 1 
0.4 -0.075 -0.015 1 
0.399 -0.07 -0.015 1 
0.399 -0.066 -0.014 1 
0.401 -0.056 -0.015 1 
0.4 -0.051 -0.015 1 
0.398 -0.045 -0.014 1 
0.4 -0.037 -0.015 1 
0.441 -0.038 -0.027 1 
0.47 -0.039 -0.036 1 
0.364 0.074 -0.015 1 
0.401 0.023 -0.015 1 
0.394 0.123 -0.014 1 
0.393 0.131 -0.014 1 
0.394 0.133 -0.015 1 
0.393 0.144 -0.015 1 
0.391 0.153 -0.014 1 
0.39 0.157 -0.014 1 
0.393 0.163 -0.015 1 
0.389 0.184 -0.015 1 
0.413 -0.285 -0.022 1 
0.412 -0.237 -0.02 1 
0.404 -0.186 -0.016 1 
0.404 -0.035 -0.014 1 
0.477 -0.04 -0.036 1 
0.364 -0.038 -0.016 1 
0.404 0.013 -0.014 1 
0.404 0.073 -0.014 1 
0.404 0.093 -0.015 1 
0.404 0.099 -0.015 1 
0.402 0.114 -0.015 1 
0.402 0.118 -0.015 1 
0.373 -0.106 -0.016 1 
0.4 0.124 -0.014 1 
0.398 0.162 -0.015 1 
0.393 0.194 -0.014 1 
0.39 0.2 -0.014 1 
0.391 0.213 -0.014 1 
0.391 0.218 -0.015 1 
0.39 0.219 -0.014 1 
0.39 0.244 -0.016 1 
0.421 -0.267 -0.021 1 
0.414 -0.216 -0.017 1 
0.414 -0.211 -0.017 1 
0.41 -0.195 -0.016 1 
0.411 -0.186 -0.016 1 
0.414 -0.174 -0.016 1 
0.354 0.193 -0.016 1 
0.414 -0.136 -0.015 1 
0.414 -0.106 -0.015 1 
0.414 -0.099 -0.015 1 
0.413 -0.088 -0.015 1 
0.413 -0.085 -0.014 1 
0.413 -0.081 -0.014 1 
0.414 -0.079 -0.015 1 
0.416 -0.075 -0.015 1 
0.416 -0.071 -0.015 1 
0.414 -0.066 -0.015 1 
0.411 -0.045 -0.014 1 
0.443 -0.041 -0.023 1 
0.335 -0.019 0.007 1 
0.41 0.024 -0.014 1 
0.411 0.053 -0.014 1 
0.41 0.064 -0.014 1 
0.41 0.093 -0.014 1 
0.41 0.104 -0.015 1 
0.41 0.108 -0.015 1 
0.402 0.134 -0.013 1 
0.402 0.142 -0.013 1 
0.403 0.152 -0.014 1 
0.404 0.164 -0.014 1 
0.404 0.184 -0.015 1 
0.403 0.19 -0.015 1 
0.399 0.194 -0.014 1 
0.4 0.234 -0.016 1 
0.392 0.259 -0.015 1 
0.424 -0.294 -0.02 1 
0.423 -0.255 -0.019 1 
0.424 -0.245 -0.018 1 
0.423 -0.236 -0.018 1 
0.423 -0.226 -0.018 1 
0.422 -0.215 -0.017 1 
0.421 -0.196 -0.016 1 
0.418 -0.16 -0.015 1 
0.419 -0.129 -0.014 1 
0.42 -0.113 -0.015 1 
0.421 -0.095 -0.015 1 
0.421 -0.088 -0.015 1 
0.42 -0.065 -0.014 1 
0.419 -0.055 -0.014 1 
0.419 -0.046 -0.014 1 
0.379 -0.186 -0.019 1 
0.39 -0.147 -0.017 1 
0.421 -0.04 -0.014 1 
0.373 0.034 -0.016 1 
0.413 0.013 -0.012 1 
0.414 0.074 -0.013 1 
0.409 0.133 -0.013 1 
0.407 0.143 -0.012 1 
0.409 0.154 -0.013 1 
0.41 0.164 -0.014 1 
0.404 0.213 -0.014 1 
0.409 0.232 -0.016 1 
0.404 0.243 -0.015 1 
0.402 0.252 -0.015 1 
0.401 0.253 -0.014 1 
0.4 0.255 -0.014 1 
0.401 0.264 -0.015 1 
0.4 0.268 -0.015 1 
0.425 -0.187 -0.015 1 
0.424 -0.176 -0.014 1 
0.426 -0.175 -0.015 1 
0.423 -0.156 -0.014 1 
0.424 -0.151 -0.014 1 
0.37 0.214 -0.017 1 
0.423 -0.105 -0.013 1 
0.424 -0.099 -0.013 1 
0.424 -0.084 -0.013 1 
0.478 -0.046 -0.028 1 
0.424 0.023 -0.013 1 
0.424 -0.184 -0.015 1 
0.423 0.044 -0.013 1 
0.424 0.053 -0.013 1 
0.422 0.062 -0.013 1 
0.419 0.073 -0.012 1 
0.42 0.094 -0.013 1 
0.361 0.164 -0.015 1 
0.413 0.174 -0.013 1 
0.413 0.193 -0.013 1 
0.412 0.238 -0.014 1 
0.412 0.243 -0.015 1 
0.412 0.273 -0.016 1 
0.409 0.278 -0.015 1 
0.434 -0.308 -0.018 1 
0.434 -0.287 -0.017 1 
0.434 -0.278 -0.017 1 
0.432 -0.256 -0.016 1 
0.434 -0.246 -0.016 1 
0.432 -0.225 -0.015 1 
0.433 -0.216 -0.015 1 
0.433 -0.206 -0.015 1 
0.381 -0.067 -0.015 1 
0.431 -0.196 -0.014 1 
0.43 -0.188 -0.014 1 
0.431 -0.176 -0.014 1 
0.43 -0.135 -0.013 1 
0.431 -0.126 -0.013 1 
0.43 -0.115 -0.013 1 
0.429 -0.105 -0.012 1 
0.43 -0.096 -0.012 1 
0.429 -0.086 -0.012 1 
0.43 -0.077 -0.012 1 
0.429 -0.065 -0.012 1 
0.431 -0.056 -0.012 1 
0.352 0.175 -0.014 1 
0.433 -0.046 -0.013 1 
0.475 -0.046 -0.024 1 
0.48 -0.041 -0.025 1 
0.431 0.014 -0.013 1 
0.431 0.033 -0.013 1 
0.43 0.043 -0.012 1 
0.424 0.1 -0.011 1 
0.423 0.124 -0.012 1 
0.421 0.164 -0.012 1 
0.418 0.174 -0.012 1 
0.398 0.061 -0.015 1 
0.414 0.214 -0.012 1 
0.414 0.281 -0.014 1 
0.439 -0.277 -0.016 1 
0.433 -0.265 -0.014 1 
0.434 -0.255 -0.014 1 
0.434 -0.252 -0.014 1 
0.433 -0.157 -0.012 1 
0.434 -0.147 -0.012 1 
0.404 0.064 -0.014 1 
0.442 -0.043 -0.013 1 
0.322 -0.009 0.017 1 
0.33 0.001 0.015 1 
0.332 0.003 0.014 1 
0.434 0.053 -0.011 1 
0.433 0.062 -0.011 1 
0.434 0.072 -0.011 1 
0.432 0.084 -0.011 1 
0.414 -0.063 -0.015 1 
0.432 0.094 -0.011 1 
0.43 0.122 -0.011 1 
0.423 0.183 -0.011 1 
0.424 0.194 -0.011 1 
0.423 0.203 -0.011 1 
0.42 0.211 -0.011 1 
0.423 0.224 -0.012 1 
0.423 0.232 -0.012 1 
0.422 0.242 -0.012 1 
0.42 0.254 -0.012 1 
0.421 0.274 -0.013 1 
0.418 0.283 -0.013 1 
0.437 -0.315 -0.014 1 
0.442 -0.317 -0.015 1 
0.424 -0.212 -0.018 1 
0.446 -0.306 -0.016 1 
0.445 -0.301 -0.015 1 
0.444 -0.297 -0.015 1 
0.442 -0.225 -0.012 1 
0.441 -0.217 -0.012 1 
0.444 -0.198 -0.012 1 
0.442 -0.185 -0.012 1 
0.442 -0.175 -0.012 1 
0.442 -0.167 -0.011 1 
0.439 -0.155 -0.011 1 
0.442 -0.146 -0.011 1 
0.444 -0.137 -0.011 1 
0.441 -0.115 -0.01 1 
0.443 -0.108 -0.011 1 
0.443 -0.096 -0.011 1 
0.419 0.084 -0.012 1 
0.443 -0.086 -0.011 1 
0.444 -0.078 -0.011 1 
0.374 0.184 -0.014 1 
0.441 -0.065 -0.01 1 
0.443 -0.056 -0.011 1 
0.475 -0.035 -0.018 1 
0.331 -0.015 0.016 1 
0.333 -0.01 0.016 1 
0.342 -0.005 0.013 1 
0.406 0.024 -0.015 1 
0.344 -0.002 0.013 1 
0.347 0.003 0.012 1 
0.442 0.032 -0.011 1 
0.443 0.042 -0.011 1 
0.441 0.054 -0.01 1 
0.439 0.074 -0.01 1 
0.438 0.083 -0.01 1 
0.434 0.139 -0.01 1 
0.434 0.154 -0.01 1 
0.434 0.162 -0.011 1 
0.425 0.284 -0.012 1 
0.422 0.29 -0.012 1 
0.449 -0.329 -0.015 1 
0.451 -0.321 -0.015 1 
0.444 -0.288 -0.012 1 
0.444 -0.267 -0.011 1 
0.444 -0.255 -0.011 1 
0.444 -0.247 -0.011 1 
0.41 0.097 -0.014 1 
0.444 -0.235 -0.01 1 
0.449 -0.185 -0.011 1 
0.45 -0.065 -0.01 1 
0.451 -0.055 -0.01 1 
0.467 -0.034 -0.014 1 
0.424 0.153 -0.012 1 
0.346 -0.015 0.014 1 
0.404 -0.237 -0.022 1 
0.407 0.223 -0.015 1 
0.359 -0.006 0.011 1 
0.402 -0.275 -0.023 1 
0.36 0.002 0.011 1 
0.444 0.06 -0.009 1 
0.443 0.123 -0.009 1 
0.443 0.133 -0.009 1 
0.439 0.163 -0.009 1 
0.434 0.183 -0.008 1 
0.432 0.194 -0.008 1 
0.429 0.203 -0.008 1 
0.433 0.224 -0.009 1 
0.434 0.233 -0.01 1 
0.432 0.254 -0.01 1 
0.433 0.263 -0.01 1 
0.434 0.273 -0.011 1 
0.431 0.294 -0.011 1 
0.43 0.302 -0.011 1 
0.38 -0.205 -0.02 1 
0.453 -0.326 -0.013 1 
0.454 -0.324 -0.013 1 
0.453 -0.275 -0.011 1 
0.451 -0.256 -0.01 1 
0.452 -0.226 -0.01 1 
0.454 -0.216 -0.01 1 
0.452 -0.206 -0.009 1 
0.454 -0.199 -0.01 1 
0.451 -0.156 -0.008 1 
0.453 -0.147 -0.009 1 
0.454 -0.136 -0.009 1 
0.454 -0.115 -0.008 1 
0.454 -0.107 -0.008 1 
0.454 -0.097 -0.008 1 
0.441 -0.206 -0.012 1 
0.454 -0.092 -0.008 1 
0.443 -0.016 -0.006 1 
0.445 -0.006 -0.006 1 
0.451 0.003 -0.008 1 
0.452 0.034 -0.008 1 
0.441 0.142 -0.009 1 
0.453 0.044 -0.008 1 
0.453 0.054 -0.008 1 
0.451 0.064 -0.008 1 
0.451 0.074 -0.008 1 
0.451 0.092 -0.008 1 
0.443 0.173 -0.008 1 
0.44 0.203 -0.008 1 
0.44 0.214 -0.008 1 
0.439 0.243 -0.009 1 
0.434 0.306 -0.01 1 
0.454 -0.238 -0.007 1 
0.457 0.003 -0.006 1 
0.457 0.024 -0.006 1 
0.454 0.078 -0.006 1 
0.452 0.114 -0.006 1 
0.453 0.133 -0.007 1 
0.451 0.153 -0.006 1 
0.443 0.273 -0.008 1 
0.443 0.282 -0.008 1 
0.44 0.294 -0.008 1 
0.44 0.303 -0.008 1 
0.458 -0.335 -0.008 1 
0.383 0.183 -0.015 1 
0.463 -0.317 -0.009 1 
0.464 -0.295 -0.008 1 
0.462 -0.256 -0.007 1 
0.461 -0.215 -0.006 1 
0.46 -0.175 -0.005 1 
0.461 -0.156 -0.005 1 
0.462 -0.075 -0.005 1 
0.378 -0.235 -0.025 1 
0.462 -0.057 -0.005 1 
0.461 -0.036 -0.005 1 
0.46 0.042 -0.005 1 
0.46 0.056 -0.005 1 
0.458 0.1 -0.005 1 
0.457 0.124 -0.005 1 
0.456 0.142 -0.005 1 
0.455 0.152 -0.005 1 
0.453 0.163 -0.005 1 
0.391 0.233 -0.015 1 
0.451 0.183 -0.005 1 
0.452 0.192 -0.005 1 
0.452 0.203 -0.005 1 
0.45 0.213 -0.005 1 
0.45 0.224 -0.005 1 
0.45 0.233 -0.005 1 
0.45 0.244 -0.006 1 
0.448 0.251 -0.005 1 
0.447 0.262 -0.006 1 
0.447 0.271 -0.006 1 
0.447 0.283 -0.006 1 
0.444 0.308 -0.006 1 
0.443 0.316 -0.007 1 
0.467 -0.349 -0.008 1 
0.364 -0.081 -0.015 1 
0.467 -0.315 -0.006 1 
0.452 -0.05 -0.01 1 
0.467 -0.305 -0.006 1 
0.467 -0.276 -0.005 1 
0.467 -0.267 -0.005 1 
0.468 -0.255 -0.005 1 
0.466 -0.245 -0.005 1 
0.467 -0.239 -0.005 1 
0.464 -0.226 -0.004 1 
0.464 -0.177 -0.003 1 
0.463 -0.046 -0.002 1 
0.454 0.18 -0.002 1 
0.453 0.244 -0.004 1 
0.453 0.253 -0.004 1 
0.451 0.284 -0.004 1 
0.451 0.293 -0.005 1 
0.451 0.302 -0.005 1 
0.449 0.323 -0.005 1 
0.463 -0.344 -0.004 1 
0.47 -0.335 -0.005 1 
0.429 0.134 -0.011 1 
0.443 0.264 -0.007 1 
0.472 -0.327 -0.005 1 
0.464 -0.189 -0.001 1 
0.401 -0.195 -0.018 1 
0.464 -0.155 0 1 
0.464 -0.149 0 1 
0.464 -0.116 0 1 
0.464 -0.076 0 1 
0.446 -0.296 -0.013 1 
0.464 -0.07 0 1 
0.454 0.262 -0.001 1 
0.453 0.304 -0.003 1 
0.454 0.312 -0.003 1 
0.452 0.323 -0.003 1 
0.466 -0.087 0.001 1 
0.465 -0.076 0.002 1 
0.414 -0.125 -0.015 1 
0.465 -0.031 0.002 1 
0.464 -0.015 0.002 1 
0.464 0.011 0.002 1 
0.465 0.014 0.002 1 
0.465 0.016 0.002 1 
0.462 0.093 0.002 1 
0.475 -0.347 0 1 
0.355 0.104 -0.014 1 
0.476 -0.338 0 1 
0.424 -0.087 -0.013 1 
0.476 -0.327 0 1 
0.472 -0.256 0.002 1 
0.469 -0.227 0.002 1 
0.469 -0.215 0.003 1 
0.469 -0.206 0.003 1 
0.468 -0.197 0.003 1 
0.467 -0.185 0.003 1 
0.468 -0.177 0.003 1 
0.468 -0.165 0.003 1 
0.467 -0.156 0.004 1 
0.467 -0.145 0.004 1 
0.374 -0.206 -0.022 1 
0.42 0.113 -0.013 1 
0.466 -0.117 0.004 1 
0.464 -0.105 0.004 1 
0.464 -0.097 0.004 1 
0.461 0.104 0.004 1 
0.46 0.114 0.004 1 
0.461 0.123 0.004 1 
0.46 0.153 0.004 1 
0.461 0.164 0.004 1 
0.46 0.183 0.003 1 
0.46 0.194 0.003 1 
0.46 0.203 0.003 1 
0.46 0.214 0.003 1 
0.46 0.223 0.003 1 
0.46 0.232 0.003 1 
0.46 0.244 0.002 1 
0.379 -0.175 -0.018 1 
0.459 0.264 0.002 1 
0.459 0.273 0.002 1 
0.474 -0.346 0.002 1 
0.474 -0.335 0.002 1 
0.474 -0.325 0.003 1 
0.384 0.153 -0.014 1 
0.474 -0.315 0.003 1 
0.473 -0.307 0.003 1 
0.471 -0.286 0.004 1 
0.471 -0.276 0.004 1 
0.471 -0.267 0.004 1 
0.459 0.282 0.004 1 
0.459 0.291 0.004 1 
0.458 0.303 0.004 1 
0.459 0.314 0.004 1 
0.459 0.32 0.003 1 
0.39 0.014 -0.016 1 
0.461 0.333 0.003 1 
0.456 0.134 -0.005 1 
0.467 -0.286 -0.006 1 
0.419 -0.146 -0.015 1 
0.457 0.113 -0.005 1 
0.462 -0.196 -0.006 1 
0.455 0.094 -0.006 1 
0.455 0.073 -0.006 1 
0.46 0.053 -0.005 1 
0.457 -0.007 -0.006 1 
0.462 -0.033 -0.005 1 
0.463 -0.046 -0.005 1 
0.462 -0.07 -0.005 1 
0.408 0.204 -0.012 1 
0.384 -0.147 -0.017 1 
0.462 -0.086 -0.005 1 
0.457 -0.106 -0.006 1 
0.461 -0.126 -0.005 1 
0.461 -0.145 -0.005 1 
0.397 0.174 -0.015 1 
0.37 -0.026 -0.016 1 
0.393 0.043 -0.015 1 
0.46 -0.167 -0.005 1 
0.461 -0.187 -0.006 1 
0.461 -0.227 -0.006 1 
0.448 -0.305 -0.013 1 
0.463 -0.245 -0.007 1 
0.444 0.253 -0.007 1 
0.462 -0.287 -0.008 1 
0.372 0.174 -0.015 1 
0.462 -0.326 -0.009 1 
0.444 -0.282 -0.012 1 
0.408 0.112 -0.014 1 
0.372 0.113 -0.015 1 
0.414 0.115 -0.014 1 
0.371 0.236 -0.016 1 
0.39 0.173 -0.015 1 
0.431 0.103 -0.011 1 
0.438 -0.273 -0.015 1 
0.465 -0.041 -0.008 1 
0.439 0.094 -0.01 1 
0.439 0.104 -0.011 1 
0.404 -0.085 -0.016 1 
0.452 0.143 -0.006 1 
0.435 -0.25 -0.016 1 
0.432 0.174 -0.01 1 
0.471 -0.246 0.002 1 
0.464 -0.136 -0.003 1 
0.452 0.124 -0.006 1 
0.441 0.013 -0.01 1 
0.467 -0.295 -0.006 1 
0.454 0.328 -0.003 1 
0.461 -0.036 -0.036 1 
0.454 0.185 -0.003 1 
0.37 0.074 -0.016 1 
0.363 -0.065 -0.016 1 
0.44 0.152 -0.009 1 
0.354 0.164 -0.014 1 
0.412 -0.038 -0.014 1 
0.464 -0.166 -0.003 1 
0.462 0.337 0.002 1 
0.384 -0.038 -0.016 1 
0.449 0.313 -0.005 1 
0.389 -0.195 -0.018 1 
0.405 0.062 -0.015 1 
0.371 -0.216 -0.023 1 
0.444 -0.053 -0.011 1 
0.423 -0.275 -0.022 1 
0.4 0.013 -0.015 1 
0.431 0.113 -0.011 1 
0.453 0.221 -0.003 1 
0.384 0.091 -0.015 1 
0.352 -0.011 0.013 1 
0.46 -0.115 -0.005 1 
0.354 0.204 -0.017 1 
0.374 -0.226 -0.025 1 
0.399 0.213 -0.015 1 
0.46 -0.136 -0.005 1 
0.411 -0.246 -0.022 1 
0.388 0.124 -0.015 1 
0.464 0.003 0.002 1 
0.469 -0.236 0.002 1 
0.413 0.223 -0.014 1 
0.414 -0.228 -0.018 1 
0.412 -0.147 -0.015 1 
0.426 -0.167 -0.015 1 
0.394 -0.096 -0.015 1 
0.432 -0.236 -0.015 1 
0.373 0.094 -0.015 1 
0.433 -0.268 -0.017 1 
0.388 0.203 -0.015 1 
0.464 -0.025 0.002 1 
0.387 0.024 -0.015 1 
0.453 -0.125 -0.008 1 
0.413 -0.056 -0.014 1 
0.409 0.122 -0.015 1 
0.461 0.133 0.004 1 
0.381 0.202 -0.015 1 
0.423 0.133 -0.012 1 
0.453 -0.266 -0.011 1 
0.419 -0.165 -0.015 1 
0.388 0.178 -0.014 1 
0.393 0.253 -0.015 1 
0.458 -0.017 -0.007 1 
0.454 0.213 -0.003 1 
0.42 0.014 -0.012 1 
0.391 0.113 -0.015 1 
0.461 0.144 0.004 1 
0.46 0.172 0.004 1 
0.414 0.253 -0.013 1 
0.42 -0.135 -0.015 1 
0.406 0.032 -0.015 1 
0.466 -0.095 0.001 1 
0.472 -0.296 0.004 1 
0.358 0.174 -0.015 1 
0.342 -0.012 0.015 1 
0.464 -0.267 -0.007 1 
0.4 0.053 -0.015 1 
0.383 0.033 -0.016 1 
0.413 0.183 -0.013 1 
0.445 -0.026 -0.006 1 
0.41 0.044 -0.014 1 
0.398 0.069 -0.015 1 
0.42 0.262 -0.012 1 
0.433 -0.295 -0.018 1 
0.424 0.143 -0.012 1 
0.443 -0.293 -0.015 1 
0.362 0.078 -0.015 1 
0.413 0.258 -0.013 1 
0.452 -0.042 -0.013 1 
0.442 0.022 -0.011 1 
0.46 0.253 0.002 1 
0.394 -0.038 -0.015 1 
0.453 -0.285 -0.011 1 
0.399 0.044 -0.015 1 
0.394 -0.18 -0.017 1 
0.414 -0.177 -0.016 1 
0.399 -0.064 -0.014 1 
0.404 0.084 -0.015 1 
0.432 0.024 -0.013 1 
0.464 -0.007 0.002 1 
0.362 -0.095 -0.016 1 
0.406 0.054 -0.015 1 
0.412 -0.156 -0.015 1 
0.401 -0.125 -0.016 1 
0.464 -0.127 -0.003 1 
0.451 -0.075 -0.01 1 
0.414 -0.115 -0.015 1 
0.465 -0.111 0.004 1 
0.419 -0.185 -0.016 1 
0.444 -0.009 -0.006 1 
0.442 -0.126 -0.011 1 
0.443 0.113 -0.009 1 
0.396 -0.268 -0.026 1 
0.403 0.174 -0.014 1 
0.449 -0.177 -0.011 1 
0.444 -0.313 -0.016 1 
0.353 0.18 -0.015 1 
0.381 0.223 -0.016 1 
0.373 0.006 0.004 1 
0.461 0.013 -0.005 1 
0.392 0.212 -0.015 1 
0.42 -0.125 -0.015 1 
0.374 -0.157 -0.018 1 
0.464 -0.087 -0.002 1 
0.453 0.273 -0.002 1 
0.366 0.091 -0.014 1 
0.403 0.081 -0.014 1 
0.441 0.193 -0.008 1 
0.414 0.083 -0.013 1 
0.381 0.193 -0.015 1 
0.456 0.084 -0.007 1 
0.404 0.043 -0.014 1 
0.41 0.033 -0.014 1 
0.361 -0.115 -0.016 1 
0.432 -0.2 -0.015 1 
0.364 0.054 -0.015 1 
0.382 0.212 -0.016 1 
0.422 0.032 -0.013 1 
0.391 -0.086 -0.016 1 
0.421 -0.116 -0.015 1 
0.401 0.203 -0.012 1 
0.462 -0.097 -0.005 1 
0.429 0.213 -0.008 1 
0.44 0.222 -0.008 1 
0.456 0.034 -0.006 1 
0.413 0.234 -0.014 1 
0.392 -0.165 -0.018 1 
0.37 0.044 -0.015 1 
0.454 -0.035 -0.039 1 
0.463 -0.036 -0.029 1 
0.434 -0.167 -0.012 1 
0.452 0.023 -0.008 1 
0.414 -0.283 -0.022 1 
0.37 -0.065 -0.015 1 
0.475 -0.323 0 1 
0.463 -0.057 -0.002 1 
0.462 -0.207 -0.006 1 
0.4 0.034 -0.015 1 
0.383 0.092 -0.014 1 
0.455 0.155 -0.005 1 
0.463 -0.276 -0.007 1 
0.374 0.189 -0.015 1 
0.434 -0.044 -0.013 1 
0.453 0.104 -0.006 1 
0.411 0.264 -0.015 1 
0.452 -0.165 -0.009 1 
0.452 0.173 -0.005 1 
0.4 -0.034 -0.015 1 
0.383 0.174 -0.015 1 
0.449 -0.245 -0.007 1 
0.433 0.241 -0.01 1 
0.452 0.013 -0.008 1 
0.444 0.225 -0.007 1 
0.402 -0.116 -0.016 1 
0.465 -0.036 -0.027 1 
0.394 0.192 -0.015 1 
0.372 0.204 -0.017 1 
0.441 0.182 -0.008 1 
0.463 -0.236 -0.007 1 
0.404 -0.245 -0.022 1 
0.384 -0.141 -0.017 1 
0.367 -0.024 -0.017 1 
0.464 -0.305 -0.008 1 
0.391 -0.136 -0.017 1 
0.363 0.213 -0.016 1 
0.372 -0.165 -0.018 1 
0.472 -0.037 -0.015 1 
0.383 -0.046 -0.015 1 
0.469 -0.147 0.154 3 
0.467 -0.055 0.152 3 
0.458 0.333 0.062 3 
0.467 -0.066 0.152 3 
0.467 -0.077 0.152 3 
0.468 -0.085 0.153 3 
0.468 -0.096 0.153 3 
0.47 -0.245 0.094 3 
0.468 -0.107 0.153 3 
0.469 -0.116 0.154 3 
0.47 -0.128 0.154 3 
0.469 -0.135 0.154 3 
0.467 -0.047 0.152 3 
0.469 -0.155 0.154 3 
0.461 0.282 0.132 3 
0.469 -0.167 0.154 3 
0.479 -0.326 0.162 3 
0.479 -0.336 0.163 3 
0.481 -0.349 0.164 3 
0.46 0.338 0.154 3 
0.462 0.333 0.154 3 
0.46 0.234 0.062 3 
0.462 0.313 0.153 3 
0.46 0.224 0.133 3 
0.461 0.271 0.062 3 
0.477 -0.297 0.163 3 
0.478 -0.308 0.164 3 
0.477 -0.317 0.164 3 
0.48 -0.356 0.167 3 
0.462 0.259 0.154 3 
0.461 0.153 0.033 3 
0.463 0.254 0.154 3 
0.462 0.244 0.154 3 
0.462 0.232 0.154 3 
0.462 0.223 0.153 3 
0.463 0.212 0.153 3 
0.465 -0.186 0.014 3 
0.462 0.194 0.153 3 
0.462 0.183 0.152 3 
0.462 0.174 0.152 3 
0.463 0.163 0.152 3 
0.463 0.152 0.152 3 
0.463 0.144 0.152 3 
0.464 0.133 0.152 3 
0.463 0.124 0.152 3 
0.464 0.084 0.151 3 
0.464 0.054 0.151 3 
0.462 0.102 0.143 3 
0.46 0.222 0.144 3 
0.461 0.211 0.144 3 
0.462 0.194 0.144 3 
0.463 0.183 0.144 3 
0.462 0.174 0.144 3 
0.462 0.163 0.144 3 
0.463 0.152 0.144 3 
0.462 0.143 0.143 3 
0.462 0.132 0.143 3 
0.463 0.124 0.143 3 
0.463 0.113 0.143 3 
0.476 -0.295 0.154 3 
0.463 0.094 0.143 3 
0.464 0.084 0.143 3 
0.463 0.062 0.143 3 
0.463 0.054 0.143 3 
0.465 0.035 0.143 3 
0.465 0.033 0.143 3 
0.467 -0.145 0.074 3 
0.464 0.025 0.143 3 
0.464 0.022 0.143 3 
0.464 0.014 0.143 3 
0.474 -0.237 0.169 3 
0.472 -0.217 0.153 3 
0.463 0.152 0.133 3 
0.462 0.294 0.153 3 
0.462 0.284 0.152 3 
0.463 0.073 0.143 3 
0.463 -0.006 0.092 3 
0.462 0.272 0.152 3 
0.464 0.041 0.149 3 
0.469 -0.175 0.152 3 
0.47 -0.187 0.152 3 
0.47 -0.196 0.153 3 
0.47 -0.205 0.153 3 
0.462 0.303 0.153 3 
0.473 -0.227 0.154 3 
0.458 0.242 0.014 3 
0.473 -0.236 0.154 3 
0.472 -0.248 0.154 3 
0.473 -0.258 0.152 3 
0.473 -0.267 0.152 3 
0.474 -0.277 0.153 3 
0.462 0.204 0.063 3 
0.475 -0.282 0.153 3 
0.475 -0.285 0.153 3 
0.472 -0.277 0.084 3 
0.464 0.103 0.16 3 
0.464 0.073 0.16 3 
0.471 -0.225 0.033 3 
0.464 0.06 0.159 3 
0.468 -0.116 0.161 3 
0.47 -0.125 0.162 3 
0.47 -0.136 0.163 3 
0.481 -0.357 0.164 3 
0.469 -0.147 0.162 3 
0.479 -0.356 0.133 3 
0.47 -0.156 0.163 3 
0.464 0.12 0.16 3 
0.471 -0.168 0.164 3 
0.471 -0.177 0.164 3 
0.471 -0.185 0.164 3 
0.466 -0.106 0.104 3 
0.469 -0.256 0.052 3 
0.465 -0.036 0.044 3 
0.47 -0.196 0.164 3 
0.471 -0.206 0.164 3 
0.468 -0.165 0.033 3 
0.481 -0.339 0.173 3 
0.482 -0.347 0.173 3 
0.464 0.283 0.164 3 
0.461 0.338 0.122 3 
0.463 0.043 0.034 3 
0.474 -0.247 0.169 3 
0.477 -0.278 0.171 3 
0.478 -0.285 0.172 3 
0.479 -0.296 0.173 3 
0.479 -0.316 0.174 3 
0.479 -0.326 0.174 3 
0.468 -0.165 0.022 3 
0.463 0.295 0.164 3 
0.463 0.292 0.164 3 
0.462 0.341 0.163 3 
0.47 -0.206 0.113 3 
0.465 0.275 0.164 3 
0.464 0.271 0.164 3 
0.463 0.264 0.163 3 
0.463 0.254 0.163 3 
0.463 0.242 0.163 3 
0.463 0.233 0.162 3 
0.463 0.224 0.162 3 
0.464 0.153 0.161 3 
0.464 0.139 0.16 3 
0.464 0.131 0.16 3 
0.465 0.017 0.154 3 
0.462 0.077 0.004 3 
0.464 0.062 0.154 3 
0.465 -0.047 0.034 3 
0.465 0.057 0.154 3 
0.463 0.064 0.073 3 
0.464 -0.017 0.074 3 
0.465 0.054 0.154 3 
0.465 0.041 0.154 3 
0.465 0.033 0.154 3 
0.464 0.022 0.154 3 
0.471 -0.246 0.033 3 
0.464 0.073 0.154 3 
0.465 0.014 0.154 3 
0.464 0.011 0.154 3 
0.464 0.003 0.154 3 
0.465 -0.006 0.154 3 
0.466 -0.017 0.154 3 
0.466 -0.025 0.154 3 
0.474 -0.275 0.162 3 
0.462 0.204 0.114 3 
0.475 -0.282 0.162 3 
0.462 0.303 0.144 3 
0.475 -0.285 0.162 3 
0.474 -0.225 0.163 3 
0.461 0.333 0.163 3 
0.46 0.271 0.104 3 
0.462 0.32 0.162 3 
0.463 0.311 0.162 3 
0.462 0.134 0.073 3 
0.464 0.092 0.157 3 
0.461 0.242 0.112 3 
0.464 0.022 0.157 3 
0.464 0.014 0.157 3 
0.462 0.204 0.084 3 
0.472 -0.215 0.162 3 
0.474 -0.287 0.162 3 
0.467 -0.137 0.093 3 
0.473 -0.236 0.163 3 
0.474 -0.246 0.163 3 
0.473 -0.255 0.163 3 
0.461 0.244 0.043 3 
0.474 -0.265 0.164 3 
0.464 0.114 0.154 3 
0.463 0.103 0.154 3 
0.464 0.089 0.154 3 
0.465 0.079 0.154 3 
0.465 -0.071 0.023 3 
0.472 -0.217 0.134 3 
0.471 -0.225 0.134 3 
0.472 -0.235 0.134 3 
0.464 -0.007 0.052 3 
0.472 -0.247 0.134 3 
0.473 -0.257 0.132 3 
0.474 -0.267 0.132 3 
0.474 -0.277 0.133 3 
0.475 -0.287 0.133 3 
0.476 -0.298 0.134 3 
0.462 0.143 0.124 3 
0.471 -0.207 0.133 3 
0.462 0.132 0.124 3 
0.474 -0.352 0.037 3 
0.462 0.124 0.124 3 
0.462 0.113 0.124 3 
0.462 0.102 0.124 3 
0.462 0.094 0.124 3 
0.463 0.083 0.124 3 
0.462 0.072 0.124 3 
0.462 0.064 0.124 3 
0.462 0.054 0.124 3 
0.462 0.043 0.124 3 
0.472 -0.287 0.092 3 
0.467 -0.126 0.134 3 
0.464 -0.02 0.114 3 
0.475 -0.322 0.032 3 
0.468 -0.138 0.134 3 
0.468 -0.146 0.134 3 
0.479 -0.335 0.142 3 
0.48 -0.347 0.142 3 
0.479 -0.357 0.142 3 
0.459 0.336 0.133 3 
0.474 -0.296 0.11 3 
0.459 0.332 0.133 3 
0.462 0.032 0.124 3 
0.462 0.322 0.134 3 
0.461 0.311 0.133 3 
0.461 0.301 0.133 3 
0.46 0.291 0.132 3 
0.461 0.273 0.132 3 
0.464 -0.017 0.13 3 
0.469 -0.155 0.132 3 
0.468 -0.166 0.132 3 
0.469 -0.178 0.132 3 
0.469 -0.186 0.132 3 
0.47 -0.195 0.133 3 
0.467 -0.115 0.123 3 
0.462 0.173 0.122 3 
0.462 0.162 0.122 3 
0.462 0.154 0.122 3 
0.461 0.183 0.052 3 
0.464 -0.036 0.122 3 
0.466 -0.047 0.122 3 
0.467 -0.055 0.122 3 
0.464 -0.015 0.052 3 
0.466 -0.076 0.122 3 
0.467 -0.085 0.123 3 
0.467 -0.107 0.123 3 
0.462 0.182 0.122 3 
0.468 -0.126 0.123 3 
0.467 -0.137 0.123 3 
0.468 -0.146 0.123 3 
0.468 -0.157 0.124 3 
0.468 -0.166 0.124 3 
0.47 -0.178 0.124 3 
0.47 -0.186 0.124 3 
0.47 -0.195 0.124 3 
0.474 -0.286 0.127 3 
0.474 -0.305 0.073 3 
0.469 0.352 0.197 3 
0.461 0.308 0.124 3 
0.463 0.022 0.124 3 
0.464 0.003 0.124 3 
0.464 -0.006 0.124 3 
0.464 -0.017 0.124 3 
0.464 -0.025 0.124 3 
0.465 -0.036 0.124 3 
0.478 -0.317 0.132 3 
0.477 -0.326 0.132 3 
0.471 -0.277 0.044 3 
0.479 -0.338 0.133 3 
0.479 -0.346 0.133 3 
0.467 -0.115 0.134 3 
0.461 0.304 0.124 3 
0.462 0.293 0.124 3 
0.462 0.283 0.124 3 
0.462 0.274 0.124 3 
0.461 0.264 0.123 3 
0.461 0.243 0.123 3 
0.461 0.234 0.123 3 
0.46 0.224 0.123 3 
0.461 0.204 0.122 3 
0.462 0.193 0.122 3 
0.46 0.334 0.142 3 
0.468 -0.115 0.142 3 
0.468 -0.127 0.142 3 
0.469 -0.147 0.143 3 
0.469 -0.155 0.143 3 
0.468 -0.166 0.143 3 
0.469 -0.175 0.143 3 
0.469 -0.187 0.144 3 
0.469 -0.195 0.144 3 
0.471 -0.205 0.144 3 
0.481 -0.356 0.152 3 
0.477 -0.336 0.114 3 
0.467 -0.107 0.142 3 
0.462 0.323 0.142 3 
0.472 -0.217 0.142 3 
0.472 -0.226 0.142 3 
0.472 -0.235 0.143 3 
0.472 -0.247 0.143 3 
0.474 -0.255 0.144 3 
0.473 -0.267 0.144 3 
0.464 -0.012 0.135 3 
0.474 -0.277 0.141 3 
0.475 -0.281 0.142 3 
0.476 -0.285 0.142 3 
0.48 -0.316 0.153 3 
0.477 -0.306 0.134 3 
0.465 -0.004 0.143 3 
0.465 -0.017 0.143 3 
0.465 -0.025 0.143 3 
0.466 -0.047 0.144 3 
0.467 -0.055 0.144 3 
0.466 -0.066 0.144 3 
0.466 -0.076 0.144 3 
0.467 -0.085 0.144 3 
0.479 -0.308 0.152 3 
0.464 0.003 0.132 3 
0.468 -0.205 0.014 3 
0.48 -0.326 0.153 3 
0.478 -0.335 0.153 3 
0.479 -0.346 0.154 3 
0.461 0.312 0.144 3 
0.462 0.293 0.144 3 
0.462 0.284 0.144 3 
0.46 -0.007 0.013 3 
0.462 0.274 0.144 3 
0.462 0.262 0.143 3 
0.462 0.244 0.143 3 
0.461 0.234 0.142 3 
0.462 0.014 0.132 3 
0.462 0.102 0.132 3 
0.464 -0.038 0.09 3 
0.462 0.094 0.132 3 
0.463 0.083 0.132 3 
0.464 0.073 0.132 3 
0.463 0.062 0.132 3 
0.463 0.054 0.132 3 
0.463 0.043 0.132 3 
0.46 0.243 0.062 3 
0.463 0.033 0.132 3 
0.463 0.022 0.132 3 
0.463 0.113 0.132 3 
0.464 -0.006 0.132 3 
0.472 -0.296 0.012 3 
0.465 -0.017 0.132 3 
0.465 -0.025 0.132 3 
0.465 -0.036 0.133 3 
0.466 -0.047 0.133 3 
0.466 -0.055 0.133 3 
0.466 -0.066 0.133 3 
0.466 -0.076 0.133 3 
0.467 -0.085 0.133 3 
0.467 -0.096 0.134 3 
0.46 0.213 0.133 3 
0.476 -0.295 0.142 3 
0.462 0.204 0.092 3 
0.477 -0.306 0.143 3 
0.479 -0.315 0.144 3 
0.48 -0.326 0.144 3 
0.461 0.261 0.134 3 
0.461 0.249 0.134 3 
0.475 -0.306 0.084 3 
0.461 0.243 0.134 3 
0.46 0.251 0.123 3 
0.461 0.234 0.134 3 
0.464 0.003 0.143 3 
0.472 -0.265 0.123 3 
0.461 0.202 0.133 3 
0.462 0.193 0.133 3 
0.468 -0.145 0.052 3 
0.462 0.182 0.133 3 
0.462 0.174 0.133 3 
0.462 0.162 0.133 3 
0.462 0.143 0.133 3 
0.462 0.132 0.132 3 
0.462 0.124 0.132 3 
0.459 0.301 0.082 3 
0.465 -0.036 0.002 3 
0.468 0.083 0.183 3 
0.469 0.072 0.183 3 
0.469 0.064 0.183 3 
0.47 0.053 0.184 3 
0.476 -0.364 0.188 3 
0.47 0.042 0.184 3 
0.465 0.114 0.163 3 
0.47 0.034 0.184 3 
0.471 0.023 0.184 3 
0.471 0.014 0.184 3 
0.468 0.094 0.183 3 
0.47 0.003 0.184 3 
0.463 0.043 0.052 3 
0.47 -0.007 0.184 3 
0.477 -0.319 0.123 3 
0.47 -0.015 0.184 3 
0.47 -0.026 0.184 3 
0.468 -0.036 0.172 3 
0.471 -0.037 0.184 3 
0.471 -0.045 0.184 3 
0.465 -0.055 0.063 3 
0.471 -0.056 0.184 3 
0.466 0.166 0.184 3 
0.47 -0.215 0.044 3 
0.484 -0.326 0.201 3 
0.473 -0.207 0.174 3 
0.484 -0.337 0.201 3 
0.465 -0.006 0.143 3 
0.484 -0.348 0.202 3 
0.47 0.353 0.194 3 
0.467 0.343 0.192 3 
0.468 0.332 0.192 3 
0.468 -0.145 0.093 3 
0.466 0.181 0.184 3 
0.474 -0.127 0.186 3 
0.471 -0.165 0.172 3 
0.468 -0.135 0.142 3 
0.466 0.163 0.184 3 
0.467 0.153 0.184 3 
0.462 0.197 0.144 3 
0.468 0.144 0.184 3 
0.468 0.133 0.184 3 
0.468 0.124 0.184 3 
0.467 -0.107 0.134 3 
0.468 0.113 0.184 3 
0.468 0.102 0.183 3 
0.473 -0.146 0.184 3 
0.471 -0.067 0.181 3 
0.472 -0.076 0.182 3 
0.461 0.304 0.113 3 
0.471 -0.086 0.182 3 
0.471 -0.095 0.182 3 
0.464 0.043 0.143 3 
0.472 -0.106 0.182 3 
0.473 -0.115 0.183 3 
0.475 -0.124 0.184 3 
0.475 -0.127 0.184 3 
0.474 -0.135 0.184 3 
0.465 0.191 0.182 3 
0.46 0.203 0.033 3 
0.471 -0.157 0.183 3 
0.472 -0.166 0.184 3 
0.474 -0.217 0.186 3 
0.474 -0.25 0.187 3 
0.481 -0.309 0.192 3 
0.483 -0.318 0.194 3 
0.484 -0.326 0.194 3 
0.464 0.342 0.185 3 
0.467 -0.096 0.123 3 
0.466 0.319 0.184 3 
0.48 -0.298 0.194 3 
0.474 -0.144 0.187 3 
0.474 -0.147 0.187 3 
0.474 -0.185 0.188 3 
0.474 -0.197 0.188 3 
0.474 -0.227 0.189 3 
0.474 -0.236 0.19 3 
0.478 -0.257 0.192 3 
0.466 -0.076 0.074 3 
0.478 -0.266 0.192 3 
0.481 -0.279 0.194 3 
0.48 -0.288 0.194 3 
0.483 -0.318 0.2 3 
0.474 -0.352 0.034 3 
0.465 0.263 0.184 3 
0.465 0.251 0.183 3 
0.465 0.242 0.183 3 
0.465 0.233 0.183 3 
0.466 0.224 0.183 3 
0.462 0.083 0.073 3 
0.467 0.213 0.183 3 
0.461 0.213 0.122 3 
0.467 0.204 0.183 3 
0.47 0.092 0.187 3 
0.467 0.153 0.187 3 
0.46 0.284 0.093 3 
0.469 0.142 0.187 3 
0.469 0.133 0.187 3 
0.462 0.064 0.113 3 
0.469 0.122 0.187 3 
0.469 0.072 0.186 3 
0.469 0.114 0.187 3 
0.465 0.282 0.173 3 
0.47 0.103 0.187 3 
0.464 0.076 0.162 3 
0.467 0.164 0.187 3 
0.469 0.083 0.186 3 
0.47 0.064 0.187 3 
0.471 0.053 0.187 3 
0.471 0.042 0.187 3 
0.47 0.034 0.186 3 
0.471 0.023 0.187 3 
0.472 0.012 0.187 3 
0.471 0.003 0.187 3 
0.47 -0.007 0.186 3 
0.47 -0.015 0.186 3 
0.471 -0.026 0.187 3 
0.468 0.272 0.191 3 
0.461 0.142 0.084 3 
0.468 0.344 0.196 3 
0.468 0.333 0.195 3 
0.463 0.024 0.103 3 
0.464 -0.025 0.063 3 
0.469 0.323 0.194 3 
0.468 0.312 0.193 3 
0.467 0.304 0.193 3 
0.463 0.182 0.114 3 
0.467 0.294 0.192 3 
0.469 0.283 0.192 3 
0.472 -0.037 0.187 3 
0.466 0.261 0.19 3 
0.467 0.253 0.19 3 
0.468 0.244 0.19 3 
0.468 0.232 0.19 3 
0.468 0.223 0.189 3 
0.466 -0.036 0.144 3 
0.465 0.212 0.188 3 
0.466 0.204 0.188 3 
0.467 0.193 0.188 3 
0.466 0.184 0.187 3 
0.467 0.173 0.188 3 
0.476 -0.237 0.193 3 
0.474 -0.167 0.19 3 
0.474 -0.176 0.19 3 
0.475 -0.179 0.191 3 
0.475 -0.185 0.191 3 
0.475 -0.197 0.192 3 
0.477 -0.208 0.193 3 
0.472 -0.126 0.174 3 
0.474 -0.212 0.192 3 
0.465 -0.047 0.044 3 
0.476 -0.216 0.193 3 
0.475 -0.227 0.193 3 
0.474 -0.158 0.19 3 
0.476 -0.247 0.194 3 
0.461 0.262 0.062 3 
0.478 -0.257 0.195 3 
0.479 -0.267 0.196 3 
0.481 -0.276 0.197 3 
0.46 0.322 0.054 3 
0.48 -0.285 0.197 3 
0.464 -0.076 0.021 3 
0.48 -0.295 0.197 3 
0.481 -0.306 0.198 3 
0.458 0.313 0.012 3 
0.475 -0.124 0.19 3 
0.472 -0.045 0.188 3 
0.472 -0.056 0.187 3 
0.473 -0.065 0.188 3 
0.465 0.212 0.174 3 
0.473 -0.076 0.188 3 
0.465 0.134 0.163 3 
0.473 -0.087 0.188 3 
0.475 -0.093 0.189 3 
0.474 -0.096 0.189 3 
0.473 -0.107 0.188 3 
0.474 -0.115 0.189 3 
0.465 0.311 0.183 3 
0.477 -0.355 0.052 3 
0.475 -0.127 0.19 3 
0.466 -0.036 0.154 3 
0.476 -0.136 0.19 3 
0.464 0.027 0.149 3 
0.462 0.094 0.103 3 
0.477 -0.315 0.102 3 
0.476 -0.145 0.19 3 
0.475 -0.156 0.19 3 
0.466 0.344 0.183 3 
0.464 0.333 0.172 3 
0.464 0.262 0.172 3 
0.461 0.299 0.034 3 
0.463 0.164 0.169 3 
0.473 -0.175 0.173 3 
0.474 -0.187 0.174 3 
0.473 -0.195 0.173 3 
0.473 -0.216 0.174 3 
0.481 -0.336 0.182 3 
0.483 -0.345 0.183 3 
0.485 -0.351 0.184 3 
0.463 0.343 0.173 3 
0.464 0.271 0.172 3 
0.465 0.272 0.17 3 
0.479 -0.306 0.173 3 
0.459 0.336 0.142 3 
0.464 0.214 0.168 3 
0.472 -0.235 0.123 3 
0.464 0.202 0.167 3 
0.46 0.282 0.043 3 
0.473 -0.225 0.171 3 
0.475 -0.229 0.172 3 
0.462 0.064 0.092 3 
0.475 -0.235 0.172 3 
0.482 -0.316 0.184 3 
0.461 0.242 0.104 3 
0.472 -0.117 0.174 3 
0.471 -0.137 0.174 3 
0.462 0.323 0.154 3 
0.471 -0.145 0.174 3 
0.47 -0.156 0.174 3 
0.474 -0.25 0.178 3 
0.478 -0.339 0.064 3 
0.479 -0.296 0.182 3 
0.48 -0.307 0.183 3 
0.462 0.053 0.002 3 
0.464 0.014 0.124 3 
0.47 -0.186 0.094 3 
0.481 -0.325 0.184 3 
0.464 0.341 0.176 3 
0.465 0.001 0.154 3 
0.464 0.333 0.175 3 
0.464 0.316 0.174 3 
0.463 0.312 0.174 3 
0.468 -0.176 0.033 3 
0.463 0.302 0.173 3 
0.463 0.292 0.173 3 
0.465 0.291 0.174 3 
0.466 -0.006 0.163 3 
0.465 0.103 0.163 3 
0.465 0.093 0.163 3 
0.465 0.084 0.163 3 
0.465 0.073 0.163 3 
0.465 0.063 0.163 3 
0.466 0.044 0.163 3 
0.465 0.033 0.162 3 
0.476 -0.327 0.084 3 
0.465 0.022 0.162 3 
0.465 0.014 0.162 3 
0.465 0.003 0.162 3 
0.462 0.321 0.114 3 
0.467 -0.015 0.163 3 
0.468 -0.025 0.163 3 
0.467 -0.036 0.163 3 
0.467 -0.047 0.163 3 
0.467 -0.055 0.163 3 
0.468 -0.066 0.164 3 
0.461 0.294 0.113 3 
0.469 -0.075 0.164 3 
0.468 -0.085 0.164 3 
0.468 -0.096 0.164 3 
0.468 -0.105 0.164 3 
0.465 -0.047 0.002 3 
0.475 -0.248 0.173 3 
0.47 -0.206 0.083 3 
0.475 -0.257 0.173 3 
0.477 -0.268 0.174 3 
0.462 0.104 0.084 3 
0.464 0.283 0.167 3 
0.461 -0.025 0.013 3 
0.465 0.262 0.167 3 
0.462 0.072 0.002 3 
0.463 0.207 0.164 3 
0.463 0.201 0.164 3 
0.47 -0.105 0.173 3 
0.462 0.192 0.164 3 
0.462 0.183 0.164 3 
0.461 0.171 0.163 3 
0.464 0.164 0.163 3 
0.465 0.156 0.164 3 
0.465 -0.036 0.103 3 
0.465 0.153 0.164 3 
0.465 0.142 0.163 3 
0.465 0.123 0.163 3 
0.464 0.111 0.163 3 
0.467 0.044 0.174 3 
0.463 0.093 0.052 3 
0.466 0.333 0.182 3 
0.464 0.31 0.18 3 
0.464 0.303 0.18 3 
0.464 0.232 0.177 3 
0.466 0.109 0.174 3 
0.466 0.104 0.174 3 
0.466 0.093 0.174 3 
0.467 0.082 0.174 3 
0.467 0.074 0.174 3 
0.467 0.047 0.174 3 
0.462 0.113 0.113 3 
0.46 0.312 0.093 3 
0.467 0.033 0.174 3 
0.466 0.052 0.163 3 
0.467 0.022 0.174 3 
0.467 0.014 0.174 3 
0.467 0.003 0.174 3 
0.467 -0.034 0.174 3 
0.459 0.103 0.013 3 
0.474 -0.217 0.18 3 
0.474 -0.229 0.181 3 
0.474 -0.235 0.181 3 
0.474 -0.182 0.182 3 
0.46 0.293 0.093 3 
0.465 0.301 0.183 3 
0.467 0.294 0.183 3 
0.466 0.283 0.182 3 
0.465 0.272 0.181 3 
0.471 -0.225 0.052 3 
0.464 0.25 0.18 3 
0.466 -0.066 0.122 3 
0.464 0.241 0.18 3 
0.473 -0.126 0.18 3 
0.475 -0.176 0.182 3 
0.475 -0.245 0.181 3 
0.474 -0.256 0.17 3 
0.461 0.244 0.093 3 
0.474 -0.185 0.182 3 
0.473 -0.196 0.182 3 
0.473 -0.205 0.182 3 
0.475 -0.218 0.184 3 
0.469 -0.177 0.074 3 
0.475 -0.227 0.184 3 
0.475 -0.239 0.184 3 
0.482 -0.338 0.191 3 
0.483 -0.346 0.192 3 
0.467 -0.096 0.142 3 
0.46 0.273 0.032 3 
0.464 0.191 0.173 3 
0.463 0.184 0.172 3 
0.464 0.173 0.172 3 
0.473 -0.285 0.052 3 
0.465 0.165 0.173 3 
0.465 0.163 0.172 3 
0.466 0.154 0.172 3 
0.466 0.143 0.172 3 
0.466 0.134 0.172 3 
0.467 0.124 0.172 3 
0.465 0.194 0.173 3 
0.467 0.063 0.172 3 
0.463 0.204 0.153 3 
0.468 -0.006 0.172 3 
0.468 -0.015 0.172 3 
0.468 -0.047 0.172 3 
0.469 -0.056 0.172 3 
0.47 -0.067 0.173 3 
0.459 0.214 0.014 3 
0.469 -0.075 0.172 3 
0.469 -0.086 0.172 3 
0.469 -0.097 0.173 3 
0.464 0.25 0.174 3 
0.477 -0.256 0.182 3 
0.479 -0.267 0.184 3 
0.479 -0.277 0.184 3 
0.479 -0.286 0.184 3 
0.466 0.348 0.18 3 
0.465 -0.007 0.055 3 
0.464 0.317 0.177 3 
0.464 0.294 0.176 3 
0.464 0.271 0.175 3 
0.464 0.262 0.175 3 
0.472 -0.287 0.064 3 
0.46 0.283 0.024 3 
0.464 0.244 0.174 3 
0.465 0.232 0.174 3 
0.464 -0.046 0.087 3 
0.464 0.229 0.174 3 
0.474 -0.317 0.049 3 
0.464 0.223 0.174 3 
0.465 0.217 0.174 3 
0.464 -0.025 0.127 3 
0.465 0.203 0.173 3 
0.462 0.253 0.143 3 
0.465 -0.055 0.034 3 
0.465 -0.015 0.05 3 
0.464 -0.062 0.05 3 
0.465 -0.047 0.047 3 
0.456 0.331 0.043 3 
0.459 0.324 0.043 3 
0.458 0.313 0.043 3 
0.458 0.303 0.043 3 
0.465 -0.065 0.044 3 
0.46 0.292 0.043 3 
0.46 0.273 0.043 3 
0.46 0.264 0.043 3 
0.476 -0.336 0.052 3 
0.46 0.223 0.022 3 
0.46 0.252 0.043 3 
0.461 0.223 0.043 3 
0.461 0.212 0.044 3 
0.461 0.203 0.044 3 
0.461 0.192 0.044 3 
0.461 0.183 0.044 3 
0.461 0.172 0.044 3 
0.461 0.164 0.044 3 
0.461 0.153 0.044 3 
0.462 0.142 0.044 3 
0.468 -0.176 0.052 3 
0.465 -0.055 0.052 3 
0.465 -0.065 0.052 3 
0.465 -0.076 0.052 3 
0.466 -0.087 0.052 3 
0.466 -0.095 0.052 3 
0.467 -0.106 0.052 3 
0.467 -0.117 0.052 3 
0.468 -0.126 0.052 3 
0.468 -0.137 0.052 3 
0.468 -0.156 0.052 3 
0.468 -0.165 0.052 3 
0.462 0.134 0.044 3 
0.469 -0.185 0.052 3 
0.469 -0.197 0.052 3 
0.469 -0.217 0.052 3 
0.471 -0.237 0.052 3 
0.47 -0.245 0.052 3 
0.47 -0.266 0.052 3 
0.471 -0.277 0.052 3 
0.474 -0.298 0.052 3 
0.474 -0.307 0.052 3 
0.475 -0.315 0.052 3 
0.475 -0.325 0.052 3 
0.47 -0.257 0.044 3 
0.467 -0.125 0.044 3 
0.468 -0.137 0.044 3 
0.467 -0.145 0.044 3 
0.468 -0.156 0.044 3 
0.468 -0.176 0.044 3 
0.469 -0.185 0.044 3 
0.47 -0.198 0.044 3 
0.47 -0.206 0.044 3 
0.471 -0.228 0.044 3 
0.47 -0.236 0.044 3 
0.471 -0.246 0.044 3 
0.467 -0.117 0.044 3 
0.471 -0.286 0.013 3 
0.47 -0.266 0.044 3 
0.473 -0.287 0.044 3 
0.473 -0.297 0.044 3 
0.473 -0.306 0.044 3 
0.461 0.223 0.033 3 
0.473 -0.316 0.044 3 
0.475 -0.329 0.043 3 
0.476 -0.337 0.043 3 
0.475 -0.357 0.043 3 
0.464 -0.046 0.042 3 
0.464 0.024 0.044 3 
0.462 0.123 0.044 3 
0.462 0.112 0.044 3 
0.462 0.104 0.044 3 
0.463 0.093 0.044 3 
0.463 0.083 0.044 3 
0.464 0.072 0.044 3 
0.465 -0.055 0.044 3 
0.463 0.064 0.044 3 
0.463 0.053 0.044 3 
0.464 0.043 0.044 3 
0.464 0.032 0.044 3 
0.465 -0.039 0.052 3 
0.464 0.014 0.044 3 
0.464 0.003 0.044 3 
0.465 -0.007 0.044 3 
0.464 -0.009 0.044 3 
0.464 -0.025 0.044 3 
0.465 -0.028 0.044 3 
0.464 -0.041 0.044 3 
0.465 -0.076 0.044 3 
0.465 -0.087 0.044 3 
0.466 -0.095 0.044 3 
0.467 -0.106 0.044 3 
0.466 -0.087 0.063 3 
0.478 -0.349 0.043 3 
0.463 0.024 0.063 3 
0.464 0.014 0.063 3 
0.464 0.003 0.063 3 
0.464 -0.007 0.063 3 
0.464 -0.017 0.063 3 
0.465 -0.036 0.063 3 
0.465 -0.047 0.063 3 
0.466 -0.066 0.063 3 
0.461 0.164 0.033 3 
0.465 -0.076 0.063 3 
0.463 0.032 0.063 3 
0.467 -0.096 0.063 3 
0.466 -0.106 0.063 3 
0.467 -0.117 0.063 3 
0.478 -0.346 0.052 3 
0.467 -0.125 0.063 3 
0.468 -0.137 0.063 3 
0.469 -0.146 0.063 3 
0.468 -0.156 0.063 3 
0.468 -0.165 0.063 3 
0.469 -0.185 0.063 3 
0.469 -0.197 0.063 3 
0.462 0.142 0.063 3 
0.459 0.314 0.062 3 
0.46 0.302 0.062 3 
0.46 0.293 0.062 3 
0.46 0.283 0.062 3 
0.46 0.252 0.062 3 
0.461 0.223 0.063 3 
0.461 0.192 0.063 3 
0.461 0.183 0.063 3 
0.461 0.172 0.063 3 
0.461 -0.036 0.013 3 
0.461 0.164 0.063 3 
0.468 -0.205 0.063 3 
0.462 0.134 0.063 3 
0.463 0.124 0.063 3 
0.463 0.113 0.063 3 
0.462 0.104 0.063 3 
0.463 0.094 0.063 3 
0.463 0.083 0.063 3 
0.463 0.072 0.063 3 
0.463 0.064 0.063 3 
0.463 0.053 0.063 3 
0.461 0.274 0.054 3 
0.463 0.043 0.063 3 
0.463 0.083 0.052 3 
0.461 0.212 0.054 3 
0.461 0.203 0.054 3 
0.461 0.192 0.054 3 
0.465 -0.004 0.055 3 
0.465 -0.033 0.055 3 
0.461 0.172 0.052 3 
0.461 0.164 0.052 3 
0.462 0.142 0.052 3 
0.462 0.134 0.052 3 
0.463 0.124 0.052 3 
0.463 0.113 0.052 3 
0.461 0.223 0.054 3 
0.463 0.072 0.052 3 
0.463 0.032 0.052 3 
0.463 0.024 0.052 3 
0.463 0.014 0.052 3 
0.464 0.003 0.052 3 
0.465 -0.004 0.052 3 
0.465 -0.012 0.052 3 
0.464 -0.025 0.052 3 
0.465 -0.033 0.052 3 
0.459 0.282 0.013 3 
0.464 -0.036 0.052 3 
0.478 -0.346 0.064 3 
0.469 -0.217 0.064 3 
0.47 -0.227 0.064 3 
0.471 -0.237 0.064 3 
0.472 -0.246 0.064 3 
0.471 -0.255 0.064 3 
0.471 -0.267 0.064 3 
0.47 -0.276 0.064 3 
0.474 -0.307 0.064 3 
0.475 -0.312 0.064 3 
0.475 -0.315 0.064 3 
0.477 -0.327 0.064 3 
0.458 0.333 0.034 3 
0.468 -0.165 0.044 3 
0.478 -0.356 0.064 3 
0.461 0.153 0.052 3 
0.459 0.304 0.054 3 
0.46 0.293 0.054 3 
0.46 0.282 0.054 3 
0.46 0.264 0.054 3 
0.459 0.254 0.054 3 
0.46 0.243 0.054 3 
0.46 0.234 0.054 3 
0.475 -0.347 0.014 3 
0.467 -0.176 0.022 3 
0.467 -0.187 0.022 3 
0.469 -0.197 0.022 3 
0.469 -0.206 0.022 3 
0.469 -0.215 0.022 3 
0.474 -0.325 0.017 3 
0.457 0.332 0.014 3 
0.464 -0.086 0.018 3 
0.474 -0.321 0.014 3 
0.475 -0.326 0.014 3 
0.475 -0.336 0.014 3 
0.467 -0.156 0.023 3 
0.474 -0.349 0.014 3 
0.459 0.323 0.012 3 
0.458 0.303 0.012 3 
0.459 0.294 0.012 3 
0.458 0.263 0.013 3 
0.459 0.254 0.013 3 
0.458 0.233 0.014 3 
0.458 0.224 0.014 3 
0.458 0.201 0.014 3 
0.459 0.194 0.014 3 
0.459 0.182 0.014 3 
0.463 -0.036 0.023 3 
0.462 0.093 0.023 3 
0.462 0.082 0.023 3 
0.462 0.074 0.023 3 
0.462 0.064 0.023 3 
0.462 0.053 0.023 3 
0.462 0.043 0.023 3 
0.461 0.032 0.023 3 
0.462 0.024 0.023 3 
0.462 0.003 0.023 3 
0.463 -0.007 0.023 3 
0.463 -0.025 0.023 3 
0.459 0.174 0.014 3 
0.464 -0.047 0.023 3 
0.464 -0.055 0.023 3 
0.464 -0.065 0.023 3 
0.465 -0.076 0.023 3 
0.465 -0.087 0.023 3 
0.465 -0.095 0.023 3 
0.466 -0.106 0.023 3 
0.466 -0.117 0.023 3 
0.466 -0.125 0.023 3 
0.467 -0.137 0.023 3 
0.467 -0.145 0.023 3 
0.465 -0.117 0.012 3 
0.46 0.034 0.013 3 
0.46 0.024 0.013 3 
0.461 0.013 0.013 3 
0.461 0.003 0.013 3 
0.461 -0.046 0.013 3 
0.462 -0.065 0.013 3 
0.463 -0.076 0.013 3 
0.463 -0.086 0.013 3 
0.463 -0.097 0.013 3 
0.464 -0.105 0.012 3 
0.465 -0.114 0.012 3 
0.461 0.042 0.013 3 
0.464 -0.122 0.012 3 
0.465 -0.125 0.012 3 
0.464 -0.127 0.012 3 
0.465 -0.136 0.012 3 
0.466 -0.147 0.012 3 
0.465 -0.065 0.004 3 
0.466 -0.136 0.004 3 
0.462 0.064 0.002 3 
0.464 0.024 0.002 3 
0.464 -0.044 0.002 3 
0.465 -0.055 0.002 3 
0.471 -0.276 0.013 3 
0.464 -0.095 0.015 3 
0.467 -0.156 0.014 3 
0.466 -0.17 0.014 3 
0.466 -0.175 0.014 3 
0.467 -0.196 0.014 3 
0.467 -0.216 0.014 3 
0.468 -0.226 0.014 3 
0.469 -0.235 0.013 3 
0.47 -0.245 0.013 3 
0.469 -0.256 0.013 3 
0.469 -0.265 0.013 3 
0.461 0.104 0.023 3 
0.472 -0.306 0.012 3 
0.474 -0.335 0.011 3 
0.459 0.152 0.012 3 
0.46 0.133 0.012 3 
0.459 0.114 0.013 3 
0.46 0.093 0.013 3 
0.46 0.082 0.013 3 
0.46 0.074 0.013 3 
0.46 0.063 0.013 3 
0.461 0.053 0.013 3 
0.465 -0.076 0.034 3 
0.463 0.053 0.034 3 
0.463 0.032 0.034 3 
0.463 0.024 0.034 3 
0.463 0.014 0.034 3 
0.463 0.003 0.034 3 
0.463 -0.007 0.034 3 
0.464 -0.015 0.034 3 
0.464 -0.025 0.034 3 
0.465 -0.031 0.034 3 
0.464 -0.036 0.034 3 
0.465 -0.039 0.034 3 
0.463 0.064 0.034 3 
0.466 -0.087 0.034 3 
0.466 -0.095 0.034 3 
0.467 -0.106 0.034 3 
0.466 -0.125 0.004 3 
0.467 -0.117 0.034 3 
0.46 0.122 0.012 3 
0.467 -0.125 0.034 3 
0.468 -0.137 0.033 3 
0.467 -0.145 0.034 3 
0.468 -0.157 0.033 3 
0.468 -0.185 0.033 3 
0.461 0.212 0.033 3 
0.459 0.324 0.034 3 
0.458 0.313 0.034 3 
0.477 -0.341 0.034 3 
0.477 -0.345 0.034 3 
0.474 -0.318 0.02 3 
0.461 0.293 0.032 3 
0.46 0.283 0.032 3 
0.459 0.263 0.032 3 
0.459 0.254 0.032 3 
0.461 0.244 0.032 3 
0.46 0.234 0.033 3 
0.469 -0.197 0.033 3 
0.46 0.194 0.033 3 
0.461 0.184 0.033 3 
0.461 0.172 0.033 3 
0.461 0.142 0.033 3 
0.461 0.134 0.033 3 
0.462 0.123 0.033 3 
0.463 0.112 0.033 3 
0.463 0.104 0.033 3 
0.463 0.093 0.033 3 
0.463 0.083 0.034 3 
0.463 0.072 0.034 3 
0.474 -0.352 0.023 3 
0.47 -0.233 0.024 3 
0.469 -0.256 0.024 3 
0.47 -0.266 0.024 3 
0.471 -0.276 0.024 3 
0.472 -0.286 0.024 3 
0.473 -0.297 0.024 3 
0.473 -0.307 0.023 3 
0.475 -0.319 0.023 3 
0.475 -0.325 0.023 3 
0.477 -0.338 0.023 3 
0.478 -0.346 0.022 3 
0.461 0.232 0.024 3 
0.473 -0.355 0.023 3 
0.46 0.203 0.022 3 
0.459 0.182 0.022 3 
0.46 0.172 0.022 3 
0.46 0.163 0.022 3 
0.462 0.014 0.023 3 
0.46 0.152 0.023 3 
0.46 0.144 0.023 3 
0.46 0.133 0.023 3 
0.461 0.122 0.023 3 
0.461 0.114 0.023 3 
0.464 -0.046 0.031 3 
0.469 -0.206 0.033 3 
0.469 -0.217 0.033 3 
0.471 -0.237 0.033 3 
0.471 -0.255 0.033 3 
0.47 -0.266 0.033 3 
0.472 -0.277 0.032 3 
0.472 -0.286 0.032 3 
0.473 -0.297 0.032 3 
0.474 -0.318 0.032 3 
0.476 -0.33 0.032 3 
0.473 -0.355 0.032 3 
0.459 0.324 0.062 3 
0.464 -0.071 0.028 3 
0.457 0.332 0.023 3 
0.456 0.324 0.023 3 
0.459 0.313 0.023 3 
0.459 0.304 0.023 3 
0.46 0.292 0.024 3 
0.459 0.272 0.024 3 
0.459 0.263 0.024 3 
0.46 0.252 0.024 3 
0.46 0.243 0.024 3 
0.466 -0.055 0.103 3 
0.462 0.043 0.103 3 
0.469 -0.206 0.052 3 
0.463 0.032 0.103 3 
0.463 0.014 0.103 3 
0.464 0.003 0.103 3 
0.464 -0.006 0.103 3 
0.464 -0.017 0.103 3 
0.465 -0.02 0.103 3 
0.463 0.053 0.052 3 
0.465 -0.025 0.103 3 
0.465 -0.047 0.103 3 
0.462 0.054 0.103 3 
0.465 -0.065 0.103 3 
0.464 -0.073 0.103 3 
0.465 -0.076 0.103 3 
0.466 -0.087 0.103 3 
0.461 0.232 0.043 3 
0.467 -0.096 0.104 3 
0.466 -0.117 0.104 3 
0.466 -0.125 0.104 3 
0.466 -0.136 0.104 3 
0.47 -0.236 0.024 3 
0.466 -0.145 0.104 3 
0.462 0.184 0.103 3 
0.457 0.332 0.082 3 
0.46 0.262 0.104 3 
0.461 0.254 0.104 3 
0.46 0.322 0.082 3 
0.461 0.233 0.103 3 
0.458 0.272 0.013 3 
0.461 0.224 0.103 3 
0.462 0.213 0.103 3 
0.462 0.204 0.103 3 
0.462 0.193 0.103 3 
0.478 -0.325 0.073 3 
0.468 -0.156 0.104 3 
0.462 0.173 0.103 3 
0.461 0.164 0.103 3 
0.461 0.153 0.103 3 
0.462 0.143 0.103 3 
0.462 0.134 0.103 3 
0.462 0.123 0.103 3 
0.461 0.112 0.103 3 
0.462 0.104 0.103 3 
0.463 0.083 0.103 3 
0.462 0.072 0.103 3 
0.463 0.064 0.103 3 
0.46 0.262 0.093 3 
0.477 -0.335 0.102 3 
0.479 -0.347 0.103 3 
0.479 -0.358 0.103 3 
0.474 -0.328 0.014 3 
0.464 -0.025 0.095 3 
0.459 0.334 0.093 3 
0.46 0.322 0.093 3 
0.461 -0.017 0.013 3 
0.46 0.303 0.093 3 
0.462 0.213 0.092 3 
0.46 0.274 0.093 3 
0.477 -0.325 0.102 3 
0.46 0.253 0.093 3 
0.462 0.233 0.093 3 
0.461 0.224 0.092 3 
0.462 0.193 0.092 3 
0.462 0.184 0.092 3 
0.461 0.172 0.092 3 
0.462 0.064 0.052 3 
0.461 0.164 0.092 3 
0.46 0.153 0.092 3 
0.46 0.144 0.092 3 
0.462 0.134 0.092 3 
0.469 -0.217 0.102 3 
0.469 -0.165 0.104 3 
0.46 0.336 0.102 3 
0.458 0.33 0.102 3 
0.46 0.322 0.102 3 
0.46 0.312 0.102 3 
0.465 -0.012 0.1 3 
0.462 0.193 0.084 3 
0.469 -0.177 0.102 3 
0.47 -0.186 0.102 3 
0.471 -0.195 0.102 3 
0.47 -0.206 0.102 3 
0.46 0.284 0.104 3 
0.471 -0.228 0.103 3 
0.471 -0.237 0.103 3 
0.471 -0.246 0.103 3 
0.471 -0.255 0.103 3 
0.472 -0.265 0.103 3 
0.472 -0.278 0.104 3 
0.473 -0.288 0.104 3 
0.474 -0.296 0.104 3 
0.475 -0.3 0.104 3 
0.476 -0.307 0.102 3 
0.463 0.024 0.113 3 
0.462 0.132 0.114 3 
0.462 0.124 0.114 3 
0.463 0.102 0.114 3 
0.463 0.094 0.114 3 
0.462 0.083 0.113 3 
0.462 0.072 0.113 3 
0.462 0.054 0.113 3 
0.463 0.043 0.113 3 
0.468 -0.176 0.063 3 
0.46 0.214 0.022 3 
0.463 0.032 0.113 3 
0.463 0.143 0.114 3 
0.472 -0.297 0.064 3 
0.462 -0.057 0.013 3 
0.463 0.014 0.113 3 
0.461 0.262 0.073 3 
0.464 0.003 0.113 3 
0.459 0.163 0.012 3 
0.464 -0.006 0.113 3 
0.465 -0.017 0.114 3 
0.464 -0.025 0.114 3 
0.465 -0.033 0.114 3 
0.464 -0.036 0.114 3 
0.477 -0.305 0.122 3 
0.462 0.322 0.122 3 
0.47 -0.207 0.122 3 
0.471 -0.216 0.122 3 
0.472 -0.226 0.123 3 
0.472 -0.247 0.123 3 
0.472 -0.256 0.123 3 
0.472 -0.275 0.124 3 
0.475 -0.287 0.124 3 
0.465 -0.017 0.116 3 
0.474 -0.286 0.121 3 
0.476 -0.298 0.122 3 
0.465 -0.044 0.114 3 
0.476 -0.325 0.123 3 
0.477 -0.336 0.123 3 
0.476 -0.345 0.123 3 
0.477 -0.357 0.124 3 
0.46 0.227 0.114 3 
0.461 0.221 0.114 3 
0.462 0.213 0.114 3 
0.462 0.193 0.114 3 
0.462 0.173 0.114 3 
0.461 0.164 0.114 3 
0.462 0.154 0.114 3 
0.475 -0.293 0.113 3 
0.47 -0.175 0.113 3 
0.47 -0.195 0.113 3 
0.47 -0.215 0.114 3 
0.472 -0.226 0.114 3 
0.472 -0.235 0.114 3 
0.471 -0.246 0.114 3 
0.464 -0.046 0.052 3 
0.471 -0.255 0.114 3 
0.472 -0.265 0.112 3 
0.472 -0.278 0.112 3 
0.473 -0.285 0.112 3 
0.47 -0.166 0.113 3 
0.475 -0.297 0.113 3 
0.476 -0.307 0.113 3 
0.477 -0.319 0.114 3 
0.476 -0.328 0.114 3 
0.471 -0.246 0.083 3 
0.476 -0.345 0.114 3 
0.471 -0.246 0.024 3 
0.474 -0.35 0.114 3 
0.479 -0.358 0.112 3 
0.46 0.303 0.104 3 
0.46 0.293 0.104 3 
0.461 0.263 0.112 3 
0.465 -0.047 0.114 3 
0.466 -0.055 0.114 3 
0.466 -0.066 0.114 3 
0.466 -0.076 0.114 3 
0.467 -0.087 0.114 3 
0.466 -0.066 0.034 3 
0.46 0.336 0.114 3 
0.46 0.333 0.113 3 
0.461 0.314 0.113 3 
0.461 0.282 0.113 3 
0.461 0.273 0.112 3 
0.462 0.123 0.092 3 
0.46 0.253 0.112 3 
0.465 -0.014 0.111 3 
0.467 -0.096 0.112 3 
0.467 -0.107 0.112 3 
0.466 -0.117 0.112 3 
0.467 -0.126 0.112 3 
0.467 -0.137 0.112 3 
0.47 -0.186 0.113 3 
0.467 -0.145 0.112 3 
0.468 -0.157 0.113 3 
0.46 0.243 0.073 3 
0.476 -0.358 0.082 3 
0.465 0.008 0.076 3 
0.465 0.003 0.076 3 
0.455 0.33 0.073 3 
0.459 0.324 0.074 3 
0.46 0.312 0.074 3 
0.46 0.302 0.074 3 
0.46 0.293 0.074 3 
0.46 0.283 0.074 3 
0.46 0.274 0.074 3 
0.46 0.252 0.073 3 
0.477 -0.345 0.082 3 
0.461 0.232 0.073 3 
0.461 0.223 0.073 3 
0.461 0.212 0.073 3 
0.462 0.204 0.073 3 
0.461 0.192 0.073 3 
0.462 0.184 0.073 3 
0.462 0.173 0.073 3 
0.461 0.164 0.073 3 
0.462 0.153 0.073 3 
0.462 0.142 0.073 3 
0.462 0.123 0.073 3 
0.47 -0.218 0.083 3 
0.466 -0.117 0.082 3 
0.466 -0.125 0.082 3 
0.461 0.153 0.063 3 
0.468 -0.137 0.082 3 
0.468 -0.145 0.082 3 
0.468 -0.156 0.082 3 
0.464 -0.015 0.044 3 
0.468 -0.165 0.082 3 
0.469 -0.177 0.083 3 
0.469 -0.185 0.083 3 
0.469 -0.197 0.083 3 
0.462 0.112 0.073 3 
0.47 -0.227 0.083 3 
0.471 -0.237 0.083 3 
0.472 -0.268 0.084 3 
0.459 0.144 0.012 3 
0.473 -0.288 0.084 3 
0.474 -0.295 0.084 3 
0.476 -0.317 0.084 3 
0.465 0.016 0.079 3 
0.465 -0.044 0.079 3 
0.474 -0.305 0.081 3 
0.476 -0.336 0.082 3 
0.472 -0.237 0.072 3 
0.466 -0.117 0.074 3 
0.467 -0.125 0.074 3 
0.468 -0.137 0.074 3 
0.468 -0.156 0.074 3 
0.468 -0.165 0.074 3 
0.469 -0.185 0.074 3 
0.469 -0.197 0.074 3 
0.465 -0.044 0.071 3 
0.468 -0.205 0.072 3 
0.468 -0.217 0.072 3 
0.47 -0.227 0.072 3 
0.466 -0.106 0.074 3 
0.471 -0.246 0.072 3 
0.464 -0.105 0.015 3 
0.471 -0.255 0.072 3 
0.471 -0.267 0.072 3 
0.471 -0.276 0.072 3 
0.473 -0.285 0.072 3 
0.473 -0.297 0.072 3 
0.474 -0.315 0.073 3 
0.478 -0.339 0.073 3 
0.477 -0.345 0.073 3 
0.476 -0.358 0.073 3 
0.464 0 0.074 3 
0.462 0.104 0.073 3 
0.462 0.094 0.073 3 
0.462 0.072 0.073 3 
0.463 0.053 0.073 3 
0.463 0.043 0.073 3 
0.464 0.032 0.074 3 
0.464 0.024 0.074 3 
0.464 0.014 0.074 3 
0.465 0.011 0.074 3 
0.464 0.043 0.002 3 
0.465 0.003 0.074 3 
0.463 -0.015 0.023 3 
0.473 -0.307 0.032 3 
0.464 -0.007 0.074 3 
0.464 -0.025 0.074 3 
0.464 -0.036 0.074 3 
0.464 -0.046 0.074 3 
0.465 -0.049 0.074 3 
0.466 -0.055 0.074 3 
0.465 -0.065 0.074 3 
0.466 -0.087 0.074 3 
0.467 -0.096 0.074 3 
0.47 -0.236 0.094 3 
0.467 -0.107 0.093 3 
0.467 -0.115 0.093 3 
0.467 -0.126 0.093 3 
0.459 0.194 0.022 3 
0.467 -0.156 0.093 3 
0.468 -0.165 0.093 3 
0.47 -0.177 0.094 3 
0.471 -0.195 0.094 3 
0.47 -0.206 0.094 3 
0.469 -0.217 0.094 3 
0.47 -0.227 0.094 3 
0.467 -0.096 0.093 3 
0.464 -0.062 0.09 3 
0.471 -0.255 0.092 3 
0.459 0.314 0.054 3 
0.472 -0.265 0.092 3 
0.471 -0.277 0.092 3 
0.473 -0.298 0.093 3 
0.475 -0.303 0.093 3 
0.476 -0.307 0.093 3 
0.477 -0.315 0.093 3 
0.477 -0.325 0.093 3 
0.477 -0.335 0.094 3 
0.463 0.014 0.092 3 
0.471 -0.255 0.083 3 
0.462 0.113 0.092 3 
0.461 0.104 0.092 3 
0.462 0.094 0.092 3 
0.462 0.083 0.092 3 
0.462 0.072 0.092 3 
0.462 0.054 0.092 3 
0.464 0.043 0.092 3 
0.463 0.032 0.092 3 
0.462 0.104 0.052 3 
0.463 0.024 0.092 3 
0.478 -0.346 0.094 3 
0.463 0.003 0.092 3 
0.464 -0.017 0.092 3 
0.464 -0.025 0.092 3 
0.465 -0.028 0.092 3 
0.465 -0.036 0.092 3 
0.465 -0.047 0.092 3 
0.465 -0.055 0.092 3 
0.464 -0.065 0.092 3 
0.465 -0.071 0.093 3 
0.465 -0.076 0.093 3 
0.467 -0.085 0.093 3 
0.465 -0.065 0.084 3 
0.464 0.024 0.084 3 
0.464 0.014 0.084 3 
0.464 0.003 0.084 3 
0.463 -0.006 0.084 3 
0.477 -0.32 0.073 3 
0.463 -0.017 0.084 3 
0.464 -0.025 0.084 3 
0.464 0.032 0.002 3 
0.464 -0.036 0.084 3 
0.465 -0.047 0.084 3 
0.465 -0.055 0.084 3 
0.464 0.032 0.084 3 
0.464 -0.07 0.084 3 
0.46 0.312 0.082 3 
0.46 0.293 0.082 3 
0.46 0.283 0.082 3 
0.46 0.274 0.082 3 
0.464 -0.046 0.082 3 
0.461 0.212 0.063 3 
0.465 -0.076 0.082 3 
0.465 -0.087 0.082 3 
0.466 -0.095 0.082 3 
0.466 -0.106 0.082 3 
0.461 0.164 0.084 3 
0.477 -0.355 0.094 3 
0.461 0.337 0.088 3 
0.46 0.262 0.084 3 
0.461 0.253 0.084 3 
0.461 0.244 0.084 3 
0.46 0.234 0.084 3 
0.461 0.224 0.084 3 
0.461 0.212 0.084 3 
0.462 0.184 0.084 3 
0.461 0.172 0.084 3 
0.458 0.333 0.054 3 
0.461 0.334 0.122 3 
0.46 0.152 0.084 3 
0.462 0.134 0.084 3 
0.462 0.123 0.084 3 
0.461 0.112 0.084 3 
0.462 0.094 0.084 3 
0.461 0.083 0.084 3 
0.462 0.072 0.084 3 
0.462 0.064 0.084 3 
0.463 0.053 0.084 3 
0.463 0.043 0.084 3 
