# .PCD v0.7 - Point Cloud Data file
FIELDS x y z intensity
SIZE 4 4 4 4
TYPE F F F F
COUNT 1 1 1 1
WIDTH 2593
HEIGHT 1
VIEWPOINT 0 0 0 1 0 0 0
POINTS 2593
DATA ascii
0.425 0.042 0.106 0 
0.426 0.042 0.102 0 
0.373 -0.237 -0.025 1 
0.373 -0.225 -0.024 1 
0.364 -0.165 -0.019 1 
0.364 -0.155 -0.018 1 
0.363 -0.145 -0.018 1 
0.364 -0.136 -0.018 1 
0.362 -0.125 -0.017 1 
0.354 -0.086 -0.013 1 
0.354 -0.055 -0.012 1 
0.353 -0.046 -0.012 1 
0.352 -0.036 -0.012 1 
0.333 0.004 -0.005 1 
0.334 0.01 -0.005 1 
0.35 0.043 -0.011 1 
0.353 0.064 -0.013 1 
0.353 0.073 -0.013 1 
0.354 0.084 -0.014 1 
0.354 0.085 -0.014 1 
0.354 0.143 -0.015 1 
0.352 0.153 -0.015 1 
0.352 0.155 -0.015 1 
0.377 -0.247 -0.025 1 
0.379 -0.229 -0.025 1 
0.372 -0.195 -0.021 1 
0.362 -0.095 -0.014 1 
0.362 -0.086 -0.014 1 
0.363 -0.066 -0.014 1 
0.342 0.016 -0.006 1 
0.354 0.034 -0.011 1 
0.354 0.108 -0.012 1 
0.354 0.123 -0.013 1 
0.354 0.134 -0.013 1 
0.352 0.173 -0.014 1 
0.351 0.214 -0.016 1 
0.383 -0.236 -0.024 1 
0.382 -0.225 -0.023 1 
0.371 -0.175 -0.018 1 
0.374 -0.15 -0.018 1 
0.373 -0.136 -0.017 1 
0.374 -0.126 -0.017 1 
0.371 -0.115 -0.016 1 
0.37 -0.076 -0.015 1 
0.363 -0.056 -0.012 1 
0.362 -0.036 -0.012 1 
0.352 -0.016 -0.008 1 
0.342 -0.004 -0.005 1 
0.342 0.014 -0.005 1 
0.364 0.073 -0.013 1 
0.363 0.084 -0.013 1 
0.364 0.086 -0.014 1 
0.361 0.114 -0.013 1 
0.364 0.153 -0.015 1 
0.358 0.174 -0.015 1 
0.356 0.179 -0.014 1 
0.353 0.216 -0.015 1 
0.392 -0.256 -0.026 1 
0.38 -0.155 -0.018 1 
0.374 -0.087 -0.015 1 
0.37 -0.065 -0.013 1 
0.364 -0.026 -0.011 1 
0.363 0.044 -0.011 1 
0.372 0.103 -0.015 1 
0.37 0.114 -0.014 1 
0.371 0.124 -0.015 1 
0.371 0.134 -0.015 1 
0.363 0.194 -0.015 1 
0.361 0.204 -0.015 1 
0.394 -0.245 -0.024 1 
0.386 -0.224 -0.02 1 
0.383 -0.21 -0.019 1 
0.393 -0.205 -0.022 1 
0.382 -0.125 -0.016 1 
0.383 -0.115 -0.016 1 
0.379 -0.097 -0.015 1 
0.379 -0.095 -0.014 1 
0.379 -0.093 -0.014 1 
0.381 -0.076 -0.015 1 
0.38 -0.074 -0.015 1 
0.373 -0.045 -0.012 1 
0.37 -0.036 -0.011 1 
0.359 -0.015 -0.007 1 
0.352 -0.006 -0.005 1 
0.346 0.015 -0.003 1 
0.353 0.017 -0.005 1 
0.364 0.025 -0.009 1 
0.373 0.084 -0.013 1 
0.377 0.114 -0.015 1 
0.374 0.14 -0.015 1 
0.373 0.143 -0.014 1 
0.374 0.164 -0.015 1 
0.369 0.174 -0.014 1 
0.371 0.184 -0.016 1 
0.373 0.194 -0.017 1 
0.361 0.22 -0.014 1 
0.362 0.223 -0.015 1 
0.362 0.226 -0.015 1 
0.394 -0.232 -0.021 1 
0.391 -0.156 -0.018 1 
0.374 -0.221 -0.025 1 
0.389 -0.106 -0.016 1 
0.386 -0.074 -0.015 1 
0.381 -0.065 -0.013 1 
0.38 -0.055 -0.012 1 
0.38 -0.045 -0.012 1 
0.379 -0.035 -0.012 1 
0.361 0.019 -0.006 1 
0.374 0.043 -0.011 1 
0.381 0.084 -0.014 1 
0.38 0.095 -0.014 1 
0.384 0.103 -0.015 1 
0.383 0.123 -0.015 1 
0.38 0.129 -0.014 1 
0.38 0.142 -0.015 1 
0.382 0.164 -0.016 1 
0.375 0.174 -0.014 1 
0.371 0.224 -0.015 1 
0.404 -0.278 -0.024 1 
0.403 -0.271 -0.023 1 
0.374 0.045 -0.011 1 
0.403 -0.257 -0.023 1 
0.403 -0.246 -0.022 1 
0.394 -0.187 -0.017 1 
0.394 -0.125 -0.016 1 
0.394 -0.115 -0.016 1 
0.392 -0.086 -0.015 1 
0.393 -0.079 -0.015 1 
0.389 -0.055 -0.013 1 
0.382 -0.026 -0.011 1 
0.369 -0.015 -0.007 1 
0.357 -0.004 -0.003 1 
0.346 0.014 0 1 
0.359 0.017 -0.004 1 
0.374 0.028 -0.009 1 
0.382 0.043 -0.011 1 
0.384 0.049 -0.012 1 
0.383 0.067 -0.012 1 
0.39 0.114 -0.015 1 
0.383 0.156 -0.014 1 
0.379 0.184 -0.014 1 
0.408 -0.268 -0.022 1 
0.382 -0.216 -0.019 1 
0.403 -0.226 -0.019 1 
0.402 -0.208 -0.018 1 
0.4 -0.105 -0.015 1 
0.398 -0.097 -0.015 1 
0.398 -0.095 -0.014 1 
0.398 -0.093 -0.014 1 
0.399 -0.081 -0.015 1 
0.394 -0.066 -0.013 1 
0.394 -0.046 -0.013 1 
0.394 -0.036 -0.013 1 
0.39 -0.025 -0.012 1 
0.384 -0.017 -0.01 1 
0.377 -0.012 -0.008 1 
0.373 -0.006 -0.006 1 
0.37 -0.004 -0.006 1 
0.374 0.021 -0.007 1 
0.352 0.138 -0.014 1 
0.38 0.023 -0.009 1 
0.384 0.029 -0.01 1 
0.39 0.054 -0.012 1 
0.388 0.064 -0.012 1 
0.393 0.074 -0.013 1 
0.394 0.082 -0.014 1 
0.394 0.089 -0.014 1 
0.394 0.103 -0.014 1 
0.394 0.114 -0.014 1 
0.394 0.118 -0.014 1 
0.395 0.123 -0.015 1 
0.394 0.127 -0.015 1 
0.39 0.144 -0.014 1 
0.387 0.153 -0.013 1 
0.39 0.161 -0.014 1 
0.391 0.164 -0.015 1 
0.389 0.184 -0.015 1 
0.374 0.154 -0.015 1 
0.381 0.232 -0.015 1 
0.382 0.238 -0.015 1 
0.385 0.244 -0.016 1 
0.383 0.249 -0.016 1 
0.419 -0.295 -0.024 1 
0.41 -0.235 -0.019 1 
0.408 -0.225 -0.018 1 
0.406 -0.199 -0.017 1 
0.404 -0.195 -0.016 1 
0.403 -0.185 -0.016 1 
0.404 -0.176 -0.016 1 
0.403 -0.15 -0.015 1 
0.403 -0.137 -0.015 1 
0.403 -0.135 -0.014 1 
0.406 -0.096 -0.015 1 
0.406 -0.087 -0.015 1 
0.4 -0.066 -0.013 1 
0.4 -0.045 -0.013 1 
0.398 -0.036 -0.012 1 
0.393 -0.015 -0.011 1 
0.341 0.003 0.004 1 
0.394 0.041 -0.011 1 
0.373 -0.106 -0.016 1 
0.401 0.124 -0.014 1 
0.401 0.129 -0.015 1 
0.398 0.134 -0.014 1 
0.395 0.154 -0.013 1 
0.395 0.188 -0.015 1 
0.393 0.194 -0.014 1 
0.39 0.203 -0.014 1 
0.393 0.222 -0.015 1 
0.423 -0.287 -0.022 1 
0.422 -0.266 -0.021 1 
0.42 -0.255 -0.02 1 
0.419 -0.238 -0.019 1 
0.414 -0.214 -0.017 1 
0.414 -0.167 -0.016 1 
0.409 -0.147 -0.014 1 
0.41 -0.145 -0.015 1 
0.353 0.194 -0.016 1 
0.414 -0.139 -0.016 1 
0.413 -0.11 -0.015 1 
0.412 -0.105 -0.014 1 
0.411 -0.085 -0.014 1 
0.41 -0.075 -0.014 1 
0.414 -0.072 -0.015 1 
0.411 -0.065 -0.014 1 
0.407 -0.046 -0.012 1 
0.403 -0.016 -0.011 1 
0.402 0.023 -0.011 1 
0.401 0.034 -0.011 1 
0.401 0.042 -0.011 1 
0.403 0.053 -0.012 1 
0.404 0.066 -0.012 1 
0.391 0.02 -0.01 1 
0.404 0.144 -0.014 1 
0.407 0.15 -0.015 1 
0.403 0.164 -0.014 1 
0.403 0.171 -0.014 1 
0.403 0.181 -0.015 1 
0.4 0.192 -0.014 1 
0.4 0.232 -0.016 1 
0.422 -0.225 -0.017 1 
0.42 -0.196 -0.016 1 
0.42 -0.166 -0.015 1 
0.418 -0.155 -0.015 1 
0.414 -0.026 -0.012 1 
0.41 -0.008 -0.011 1 
0.389 -0.005 -0.005 1 
0.41 0.053 -0.012 1 
0.41 0.064 -0.012 1 
0.412 0.073 -0.012 1 
0.412 0.082 -0.013 1 
0.414 0.085 -0.013 1 
0.41 0.133 -0.013 1 
0.412 0.153 -0.014 1 
0.411 0.164 -0.014 1 
0.396 -0.236 -0.022 1 
0.408 0.224 -0.015 1 
0.401 0.261 -0.015 1 
0.397 0.262 -0.014 1 
0.398 0.266 -0.014 1 
0.432 -0.306 -0.02 1 
0.427 -0.285 -0.018 1 
0.43 -0.277 -0.019 1 
0.424 -0.217 -0.015 1 
0.426 -0.185 -0.015 1 
0.425 -0.182 -0.015 1 
0.424 -0.176 -0.014 1 
0.424 -0.156 -0.014 1 
0.423 -0.146 -0.014 1 
0.424 -0.142 -0.014 1 
0.423 -0.117 -0.013 1 
0.372 0.213 -0.015 1 
0.423 -0.105 -0.013 1 
0.424 -0.096 -0.013 1 
0.424 -0.084 -0.013 1 
0.424 -0.066 -0.013 1 
0.422 -0.056 -0.012 1 
0.424 -0.045 -0.013 1 
0.382 -0.186 -0.018 1 
0.39 -0.147 -0.017 1 
0.401 0.104 -0.014 1 
0.423 -0.036 -0.012 1 
0.421 -0.026 -0.012 1 
0.419 0.064 -0.012 1 
0.421 0.094 -0.013 1 
0.414 0.143 -0.012 1 
0.413 0.193 -0.013 1 
0.41 0.213 -0.013 1 
0.414 0.229 -0.015 1 
0.415 0.235 -0.015 1 
0.413 0.244 -0.015 1 
0.412 0.254 -0.015 1 
0.409 0.262 -0.015 1 
0.408 0.274 -0.015 1 
0.405 0.274 -0.014 1 
0.433 -0.245 -0.016 1 
0.432 -0.225 -0.015 1 
0.434 -0.217 -0.015 1 
0.433 -0.206 -0.015 1 
0.433 -0.198 -0.015 1 
0.43 -0.185 -0.014 1 
0.371 0.097 -0.014 1 
0.43 -0.175 -0.014 1 
0.43 -0.125 -0.013 1 
0.431 -0.116 -0.013 1 
0.43 -0.106 -0.012 1 
0.429 -0.096 -0.012 1 
0.432 -0.075 -0.013 1 
0.429 -0.036 -0.012 1 
0.382 0.214 -0.016 1 
0.422 0.032 -0.01 1 
0.424 0.074 -0.011 1 
0.424 0.103 -0.012 1 
0.424 0.124 -0.012 1 
0.422 0.152 -0.012 1 
0.42 0.164 -0.012 1 
0.381 0.124 -0.014 1 
0.414 0.284 -0.014 1 
0.441 -0.276 -0.016 1 
0.434 -0.257 -0.014 1 
0.442 -0.237 -0.015 1 
0.434 -0.165 -0.012 1 
0.434 -0.155 -0.012 1 
0.434 -0.15 -0.012 1 
0.434 -0.144 -0.012 1 
0.433 -0.09 -0.011 1 
0.434 -0.066 -0.011 1 
0.352 0.175 -0.014 1 
0.401 0.203 -0.015 1 
0.434 -0.049 -0.011 1 
0.434 -0.013 -0.011 1 
0.472 -0.01 -0.021 1 
0.413 0.022 -0.006 1 
0.43 0.043 -0.01 1 
0.433 0.053 -0.011 1 
0.433 0.062 -0.011 1 
0.43 0.074 -0.01 1 
0.431 0.084 -0.011 1 
0.432 0.094 -0.011 1 
0.428 0.143 -0.011 1 
0.422 0.192 -0.011 1 
0.421 0.204 -0.011 1 
0.423 0.214 -0.012 1 
0.423 0.224 -0.012 1 
0.424 0.233 -0.012 1 
0.423 0.243 -0.012 1 
0.422 0.253 -0.013 1 
0.42 0.273 -0.013 1 
0.415 0.279 -0.012 1 
0.444 -0.32 -0.016 1 
0.446 -0.303 -0.016 1 
0.444 -0.297 -0.015 1 
0.446 -0.287 -0.015 1 
0.443 -0.246 -0.013 1 
0.413 0.103 -0.013 1 
0.444 -0.244 -0.013 1 
0.444 -0.233 -0.013 1 
0.443 -0.216 -0.013 1 
0.443 -0.197 -0.012 1 
0.443 -0.186 -0.012 1 
0.444 -0.176 -0.012 1 
0.442 -0.167 -0.011 1 
0.439 -0.157 -0.011 1 
0.439 -0.145 -0.01 1 
0.44 -0.135 -0.01 1 
0.44 -0.115 -0.01 1 
0.441 -0.105 -0.01 1 
0.412 -0.096 -0.014 1 
0.441 -0.095 -0.01 1 
0.418 0.084 -0.012 1 
0.443 -0.086 -0.011 1 
0.442 -0.075 -0.01 1 
0.374 0.176 -0.014 1 
0.441 -0.065 -0.01 1 
0.443 -0.056 -0.011 1 
0.403 0.062 -0.012 1 
0.443 -0.036 -0.01 1 
0.419 0.052 -0.012 1 
0.439 -0.026 -0.01 1 
0.442 -0.016 -0.01 1 
0.34 -0.005 -0.006 1 
0.437 0.044 -0.009 1 
0.433 0.153 -0.01 1 
0.432 0.164 -0.01 1 
0.431 0.173 -0.01 1 
0.43 0.183 -0.01 1 
0.431 0.223 -0.011 1 
0.425 0.284 -0.012 1 
0.424 0.292 -0.012 1 
0.424 0.295 -0.012 1 
0.45 -0.326 -0.015 1 
0.453 -0.317 -0.015 1 
0.423 -0.213 -0.015 1 
0.453 -0.307 -0.015 1 
0.447 -0.285 -0.013 1 
0.443 -0.269 -0.011 1 
0.451 -0.205 -0.012 1 
0.45 -0.145 -0.01 1 
0.449 -0.137 -0.01 1 
0.443 -0.205 -0.012 1 
0.449 -0.085 -0.01 1 
0.411 0.022 -0.001 1 
0.444 0.033 -0.009 1 
0.444 0.053 -0.009 1 
0.444 0.063 -0.009 1 
0.443 0.072 -0.009 1 
0.443 0.082 -0.009 1 
0.442 0.133 -0.009 1 
0.438 0.162 -0.009 1 
0.434 0.188 -0.009 1 
0.433 0.203 -0.009 1 
0.434 0.214 -0.009 1 
0.434 0.233 -0.01 1 
0.434 0.253 -0.01 1 
0.434 0.264 -0.011 1 
0.434 0.273 -0.011 1 
0.429 0.301 -0.011 1 
0.424 0.131 -0.012 1 
0.453 -0.266 -0.011 1 
0.45 -0.255 -0.01 1 
0.45 -0.246 -0.009 1 
0.453 -0.237 -0.01 1 
0.454 -0.232 -0.01 1 
0.454 -0.224 -0.01 1 
0.454 -0.185 -0.009 1 
0.454 -0.158 -0.009 1 
0.454 -0.126 -0.009 1 
0.454 -0.115 -0.008 1 
0.454 -0.105 -0.008 1 
0.454 -0.099 -0.008 1 
0.454 -0.079 -0.008 1 
0.454 -0.066 -0.008 1 
0.454 -0.058 -0.008 1 
0.449 0.033 -0.007 1 
0.44 0.144 -0.009 1 
0.451 0.044 -0.008 1 
0.45 0.054 -0.008 1 
0.443 0.173 -0.008 1 
0.411 0.189 -0.015 1 
0.439 0.183 -0.007 1 
0.438 0.193 -0.007 1 
0.438 0.204 -0.007 1 
0.439 0.243 -0.009 1 
0.441 0.283 -0.01 1 
0.434 0.306 -0.01 1 
0.381 0.181 -0.015 1 
0.462 -0.316 -0.011 1 
0.402 -0.075 -0.013 1 
0.462 -0.297 -0.011 1 
0.46 -0.237 -0.009 1 
0.455 0.057 -0.006 1 
0.454 0.062 -0.006 1 
0.454 0.073 -0.006 1 
0.454 0.093 -0.006 1 
0.453 0.104 -0.006 1 
0.454 0.133 -0.007 1 
0.452 0.153 -0.007 1 
0.45 0.164 -0.007 1 
0.444 0.292 -0.009 1 
0.44 0.313 -0.009 1 
0.464 -0.339 -0.01 1 
0.462 -0.256 -0.007 1 
0.463 -0.217 -0.006 1 
0.463 -0.197 -0.006 1 
0.461 -0.176 -0.005 1 
0.464 -0.155 -0.006 1 
0.464 -0.136 -0.006 1 
0.463 -0.116 -0.005 1 
0.462 -0.075 -0.005 1 
0.384 -0.242 -0.025 1 
0.462 -0.057 -0.005 1 
0.461 -0.036 -0.005 1 
0.41 -0.186 -0.015 1 
0.475 -0.012 -0.008 1 
0.423 0.023 0.002 1 
0.46 0.042 -0.005 1 
0.459 0.124 -0.005 1 
0.458 0.143 -0.005 1 
0.457 0.153 -0.005 1 
0.455 0.169 -0.005 1 
0.454 0.174 -0.005 1 
0.393 0.227 -0.016 1 
0.452 0.184 -0.005 1 
0.452 0.192 -0.005 1 
0.454 0.202 -0.006 1 
0.453 0.212 -0.006 1 
0.454 0.224 -0.006 1 
0.451 0.234 -0.006 1 
0.451 0.242 -0.006 1 
0.45 0.253 -0.006 1 
0.451 0.263 -0.006 1 
0.457 0.332 -0.01 1 
0.459 0.133 -0.005 1 
0.47 -0.285 -0.006 1 
0.467 -0.276 -0.005 1 
0.467 -0.255 -0.005 1 
0.47 -0.245 -0.005 1 
0.471 -0.24 -0.005 1 
0.466 -0.231 -0.005 1 
0.464 -0.177 -0.003 1 
0.464 -0.076 -0.002 1 
0.452 -0.296 -0.011 1 
0.464 -0.065 -0.002 1 
0.464 -0.046 -0.002 1 
0.463 -0.036 -0.002 1 
0.464 -0.025 -0.003 1 
0.454 0.251 -0.004 1 
0.454 0.268 -0.004 1 
0.455 0.272 -0.005 1 
0.455 0.278 -0.005 1 
0.454 0.284 -0.005 1 
0.453 0.292 -0.005 1 
0.453 0.301 -0.005 1 
0.452 0.313 -0.005 1 
0.45 0.324 -0.005 1 
0.473 -0.345 -0.006 1 
0.476 -0.345 -0.006 1 
0.473 -0.335 -0.005 1 
0.485 -0.344 -0.008 1 
0.429 0.134 -0.011 1 
0.442 0.263 -0.01 1 
0.472 -0.327 -0.005 1 
0.364 -0.076 -0.015 1 
0.472 -0.316 -0.005 1 
0.473 -0.307 -0.004 1 
0.454 -0.045 -0.008 1 
0.474 -0.305 -0.005 1 
0.473 -0.298 -0.004 1 
0.418 -0.148 -0.015 1 
0.458 0.113 -0.005 1 
0.375 0.004 0.016 1 
0.375 0.006 0.016 1 
0.373 0.013 0.017 1 
0.464 0.113 -0.001 1 
0.453 0.324 -0.003 1 
0.474 -0.325 -0.002 1 
0.382 0.153 -0.014 1 
0.474 -0.318 -0.002 1 
0.402 0.004 0.013 1 
0.395 -0.007 -0.009 1 
0.396 0.012 0.014 1 
0.395 0.014 0.015 1 
0.465 0.094 0.001 1 
0.465 0.146 0.001 1 
0.476 -0.281 0 1 
0.475 -0.24 0.001 1 
0.472 -0.217 0.002 1 
0.47 -0.207 0.002 1 
0.47 -0.195 0.003 1 
0.47 -0.186 0.003 1 
0.469 -0.166 0.003 1 
0.47 -0.155 0.003 1 
0.469 -0.146 0.003 1 
0.374 -0.206 -0.022 1 
0.424 0.112 -0.012 1 
0.469 -0.135 0.003 1 
0.468 -0.107 0.004 1 
0.467 -0.077 0.004 1 
0.406 -0.125 -0.015 1 
0.465 -0.007 0.004 1 
0.453 0.003 0.006 1 
0.453 0.016 0.006 1 
0.465 0.121 0.004 1 
0.464 0.124 0.004 1 
0.465 0.132 0.003 1 
0.466 0.144 0.003 1 
0.464 0.152 0.003 1 
0.463 0.174 0.003 1 
0.464 0.183 0.003 1 
0.463 0.194 0.003 1 
0.465 0.221 0.002 1 
0.464 0.223 0.002 1 
0.464 0.244 0.002 1 
0.474 -0.349 0.002 1 
0.477 -0.346 0.002 1 
0.363 0.104 -0.014 1 
0.477 -0.335 0.002 1 
0.424 -0.087 -0.013 1 
0.476 -0.297 0.003 1 
0.475 -0.293 0.003 1 
0.474 -0.285 0.004 1 
0.473 -0.275 0.004 1 
0.472 -0.265 0.004 1 
0.473 -0.233 0.004 1 
0.404 -0.156 -0.015 1 
0.465 -0.007 0.007 1 
0.384 -0.184 -0.018 1 
0.462 0.263 0.004 1 
0.458 -0.009 -0.02 1 
0.464 0.274 0.004 1 
0.465 0.281 0.003 1 
0.465 0.285 0.003 1 
0.464 0.293 0.003 1 
0.464 0.303 0.003 1 
0.463 0.311 0.003 1 
0.463 0.321 0.003 1 
0.464 0.333 0.002 1 
0.372 0.147 -0.014 1 
0.466 0.342 0.002 1 
0.475 -0.296 0.006 1 
0.46 0.045 -0.005 1 
0.455 0.034 -0.006 1 
0.464 -0.007 0.012 1 
0.463 0.003 0.013 1 
0.464 -0.012 -0.008 1 
0.462 0.014 0.013 1 
0.462 0.024 0.013 1 
0.462 -0.046 -0.005 1 
0.462 -0.065 -0.005 1 
0.409 0.202 -0.012 1 
0.384 -0.145 -0.017 1 
0.463 -0.086 -0.005 1 
0.454 -0.169 -0.009 1 
0.463 -0.105 -0.005 1 
0.464 -0.127 -0.005 1 
0.379 0.193 -0.014 1 
0.464 -0.147 -0.006 1 
0.465 0.102 0.004 1 
0.462 -0.165 -0.005 1 
0.463 -0.185 -0.006 1 
0.464 -0.226 -0.007 1 
0.464 -0.246 -0.007 1 
0.462 -0.265 -0.007 1 
0.462 -0.287 -0.01 1 
0.444 0.251 -0.007 1 
0.442 0.102 -0.009 1 
0.462 -0.326 -0.012 1 
0.441 -0.276 -0.011 1 
0.414 0.112 -0.014 1 
0.371 0.112 -0.015 1 
0.413 0.123 -0.013 1 
0.373 0.238 -0.017 1 
0.389 0.172 -0.015 1 
0.436 -0.265 -0.015 1 
0.399 -0.085 -0.015 1 
0.453 0.143 -0.007 1 
0.392 0.259 -0.015 1 
0.364 -0.175 -0.019 1 
0.439 -0.245 -0.015 1 
0.469 -0.127 0.003 1 
0.406 -0.001 0.013 1 
0.342 -0.015 -0.008 1 
0.454 -0.196 -0.01 1 
0.474 -0.245 0.004 1 
0.451 -0.011 -0.01 1 
0.45 0.013 0.007 1 
0.392 -0.076 -0.014 1 
0.444 -0.264 -0.011 1 
0.453 -0.022 -0.008 1 
0.42 -0.015 -0.012 1 
0.454 0.122 -0.007 1 
0.471 -0.296 -0.007 1 
0.467 -0.085 0.004 1 
0.454 0.328 -0.003 1 
0.443 0.123 -0.009 1 
0.464 0.143 -0.001 1 
0.44 -0.013 -0.01 1 
0.364 -0.07 -0.015 1 
0.439 0.154 -0.009 1 
0.441 -0.233 -0.015 1 
0.354 0.164 -0.014 1 
0.372 -0.027 -0.012 1 
0.424 0.184 -0.011 1 
0.392 0.134 -0.014 1 
0.393 -0.196 -0.017 1 
0.406 -0.035 -0.012 1 
0.357 0.144 -0.015 1 
0.464 -0.169 -0.003 1 
0.463 0.338 0 1 
0.368 -0.098 -0.015 1 
0.411 -0.257 -0.023 1 
0.393 0.033 -0.011 1 
0.352 0.054 -0.012 1 
0.444 0.208 -0.006 1 
0.36 0.134 -0.013 1 
0.418 -0.177 -0.015 1 
0.424 0.037 -0.011 1 
0.463 0.234 0.002 1 
0.374 -0.217 -0.022 1 
0.353 -0.026 -0.01 1 
0.443 -0.046 -0.011 1 
0.372 -0.186 -0.019 1 
0.441 0.274 -0.01 1 
0.398 0.222 -0.015 1 
0.434 0.294 -0.012 1 
0.373 -0.089 -0.014 1 
0.346 -0.004 -0.005 1 
0.464 0.094 0.004 1 
0.37 -0.073 -0.015 1 
0.423 -0.278 -0.022 1 
0.431 0.113 -0.011 1 
0.362 -0.006 -0.005 1 
0.414 -0.216 -0.017 1 
0.429 0.124 -0.011 1 
0.354 0.204 -0.017 1 
0.387 0.202 -0.015 1 
0.4 0.212 -0.015 1 
0.4 0.113 -0.014 1 
0.478 -0.007 0 1 
0.401 0.243 -0.016 1 
0.383 -0.105 -0.016 1 
0.351 0.103 -0.013 1 
0.371 0.063 -0.012 1 
0.426 -0.162 -0.015 1 
0.411 -0.249 -0.022 1 
0.396 -0.255 -0.025 1 
0.388 0.124 -0.015 1 
0.474 -0.236 0.004 1 
0.414 0.224 -0.014 1 
0.426 -0.165 -0.015 1 
0.394 -0.102 -0.015 1 
0.433 -0.237 -0.016 1 
0.474 -0.01 -0.005 1 
0.433 -0.265 -0.016 1 
0.395 -0.265 -0.025 1 
0.41 -0.056 -0.013 1 
0.381 0.064 -0.011 1 
0.42 0.173 -0.012 1 
0.404 -0.165 -0.015 1 
0.418 -0.245 -0.019 1 
0.464 0.127 0.004 1 
0.381 0.202 -0.015 1 
0.38 0.192 -0.015 1 
0.388 0.176 -0.014 1 
0.477 -0.272 0 1 
0.362 0.163 -0.015 1 
0.414 0.172 -0.013 1 
0.396 0.173 -0.015 1 
0.39 -0.241 -0.025 1 
0.389 0.253 -0.016 1 
0.463 -0.023 -0.005 1 
0.401 0.181 -0.014 1 
0.394 -0.24 -0.024 1 
0.402 -0.145 -0.014 1 
0.384 0.144 -0.014 1 
0.465 0.113 0.004 1 
0.364 -0.107 -0.015 1 
0.464 0.102 0 1 
0.42 -0.135 -0.015 1 
0.468 -0.096 0.004 1 
0.443 0.092 -0.009 1 
0.454 0.114 -0.007 1 
0.41 0.183 -0.014 1 
0.452 -0.027 -0.008 1 
0.373 -0.23 -0.025 1 
0.411 0.044 -0.012 1 
0.423 0.262 -0.013 1 
0.424 0.143 -0.012 1 
0.431 -0.302 -0.02 1 
0.461 -0.025 -0.005 1 
0.401 -0.215 -0.018 1 
0.383 -0.085 -0.016 1 
0.444 -0.291 -0.015 1 
0.453 -0.035 -0.008 1 
0.463 0.252 0.002 1 
0.45 0.274 -0.006 1 
0.394 -0.176 -0.017 1 
0.412 -0.177 -0.016 1 
0.404 -0.056 -0.014 1 
0.414 -0.157 -0.016 1 
0.363 -0.097 -0.015 1 
0.4 -0.126 -0.016 1 
0.442 0.302 -0.009 1 
0.381 0.134 -0.015 1 
0.391 -0.249 -0.025 1 
0.414 -0.115 -0.015 1 
0.374 -0.057 -0.012 1 
0.463 0.162 0.003 1 
0.454 -0.177 -0.009 1 
0.353 0.182 -0.015 1 
0.362 -0.045 -0.012 1 
0.442 -0.126 -0.011 1 
0.43 0.103 -0.011 1 
0.372 0.232 -0.016 1 
0.434 -0.025 -0.011 1 
0.421 -0.186 -0.016 1 
0.442 0.112 -0.009 1 
0.433 0.034 -0.011 1 
0.363 -0.077 -0.014 1 
0.358 0.183 -0.015 1 
0.443 -0.306 -0.018 1 
0.433 -0.056 -0.01 1 
0.453 0.083 -0.006 1 
0.432 -0.256 -0.016 1 
0.373 -0.095 -0.014 1 
0.382 -0.195 -0.02 1 
0.378 0.224 -0.015 1 
0.393 0.213 -0.015 1 
0.42 -0.125 -0.015 1 
0.374 -0.155 -0.018 1 
0.37 0.172 -0.015 1 
0.363 0.046 -0.011 1 
0.374 0.091 -0.013 1 
0.419 -0.008 -0.012 1 
0.362 0.064 -0.013 1 
0.399 0.084 -0.013 1 
0.465 -0.265 -0.005 1 
0.404 0.254 -0.015 1 
0.464 0.277 0.004 1 
0.384 -0.166 -0.018 1 
0.464 0.083 0.004 1 
0.362 0.143 -0.014 1 
0.463 0.202 0.003 1 
0.397 -0.026 -0.012 1 
0.472 -0.259 0.004 1 
0.414 0.025 -0.01 1 
0.362 -0.115 -0.015 1 
0.404 0.2 -0.013 1 
0.42 -0.123 -0.015 1 
0.389 -0.005 -0.003 1 
0.463 -0.097 -0.005 1 
0.39 -0.096 -0.014 1 
0.442 0.224 -0.009 1 
0.39 -0.166 -0.018 1 
0.413 0.231 -0.014 1 
0.412 -0.278 -0.021 1 
0.464 -0.057 -0.002 1 
0.463 -0.205 -0.006 1 
0.362 0.124 -0.014 1 
0.383 0.174 -0.015 1 
0.38 0.093 -0.013 1 
0.455 0.164 -0.005 1 
0.424 -0.125 -0.013 1 
0.464 -0.277 -0.008 1 
0.411 0.182 -0.015 1 
0.44 0.233 -0.009 1 
0.464 0.214 0.002 1 
0.433 0.244 -0.01 1 
0.432 -0.015 -0.01 1 
0.412 -0.017 -0.012 1 
0.401 -0.116 -0.016 1 
0.391 -0.09 -0.014 1 
0.383 -0.136 -0.017 1 
0.469 -0.015 -0.006 1 
0.387 0.193 -0.015 1 
0.372 0.204 -0.017 1 
0.346 -0.002 0 1 
0.372 0.015 0.017 1 
0.458 0.103 -0.005 1 
0.464 -0.305 -0.008 1 
0.393 -0.135 -0.016 1 
0.359 0.213 -0.015 1 
0.371 -0.165 -0.017 1 
0.374 0.07 -0.013 1 
0.401 0.094 -0.014 1 
0.47 -0.178 0.003 1 
0.378 -0.006 0.058 2 
0.363 -0.004 0.061 2 
0.507 -0.096 0.047 2 
0.411 0.059 0.063 2 
0.434 0.092 0.061 2 
0.44 0.091 0.061 2 
0.424 0.079 0.066 2 
0.407 -0.042 0.064 2 
0.516 -0.092 0.044 2 
0.517 -0.095 0.044 2 
0.495 0.08 0.058 2 
0.386 -0.007 0.062 2 
0.395 -0.009 0.061 2 
0.436 -0.052 0.061 2 
0.425 -0.052 0.061 2 
0.356 0.005 0.051 2 
0.378 -0.003 0.056 2 
0.512 -0.023 0.049 2 
0.493 -0.025 0.05 2 
0.525 -0.021 0.042 2 
0.521 -0.024 0.042 2 
0.419 -0.037 0.064 2 
0.499 -0.085 0.057 2 
0.511 -0.097 0.038 2 
0.379 0.034 0.065 2 
0.404 -0.033 0.068 2 
0.527 -0.066 0.057 2 
0.414 0.074 0.066 2 
0.418 0.072 0.066 2 
0.394 0.055 0.066 2 
0.373 0.048 0.066 2 
0.388 -0.027 0.07 2 
0.516 -0.058 0.061 2 
0.389 0.058 0.068 2 
0.402 0.079 0.065 2 
0.357 -0.006 0.064 2 
0.421 -0.033 0.064 2 
0.352 -0.006 0.066 2 
0.35 -0.019 0.067 2 
0.359 -0.021 0.066 2 
0.377 -0.025 0.066 2 
0.373 -0.028 0.067 2 
0.507 -0.09 0.047 2 
0.429 0.035 0.05 2 
0.382 0.025 0.054 2 
0.379 0.021 0.054 2 
0.36 0.002 0.039 2 
0.528 -0.018 0.032 2 
0.42 0.014 0.028 2 
0.442 0.097 0.061 2 
0.518 -0.014 0.064 2 
0.529 -0.021 0.065 2 
0.524 -0.027 0.064 2 
0.507 -0.029 0.077 2 
0.518 -0.027 0.042 2 
0.353 -0.012 0.072 2 
0.529 -0.053 0.064 2 
0.527 -0.056 0.064 2 
0.423 0.065 0.07 2 
0.413 0.08 0.064 2 
0.501 -0.085 0.066 2 
0.514 -0.091 0.038 2 
0.413 -0.052 0.062 2 
0.352 -0.021 0.07 2 
0.394 -0.037 0.067 2 
0.468 -0.096 0.134 3 
0.467 0.104 0.133 3 
0.466 0.092 0.133 3 
0.465 0.084 0.133 3 
0.465 0.073 0.133 3 
0.464 0.065 0.132 3 
0.465 0.062 0.133 3 
0.321 0.035 0.057 3 
0.463 0.059 0.132 3 
0.468 -0.047 0.133 3 
0.467 -0.055 0.133 3 
0.468 -0.066 0.133 3 
0.468 -0.077 0.134 3 
0.468 -0.085 0.134 3 
0.466 0.114 0.133 3 
0.474 -0.249 0.138 3 
0.474 -0.255 0.138 3 
0.577 -0.035 0.094 3 
0.482 -0.328 0.142 3 
0.482 -0.335 0.142 3 
0.483 -0.347 0.143 3 
0.462 0.339 0.134 3 
0.465 0.322 0.134 3 
0.467 0.344 0.124 3 
0.464 0.308 0.134 3 
0.464 0.304 0.133 3 
0.465 0.296 0.133 3 
0.464 0.219 0.134 3 
0.475 -0.247 0.144 3 
0.475 -0.256 0.144 3 
0.464 0.261 0.138 3 
0.475 -0.213 0.14 3 
0.475 -0.219 0.14 3 
0.475 -0.228 0.14 3 
0.476 -0.276 0.142 3 
0.477 -0.286 0.142 3 
0.47 -0.207 0.014 3 
0.478 -0.297 0.143 3 
0.464 0.197 0.093 3 
0.479 -0.305 0.143 3 
0.481 -0.317 0.144 3 
0.465 0.293 0.133 3 
0.464 0.213 0.134 3 
0.473 -0.266 0.124 3 
0.465 0.208 0.134 3 
0.464 0.204 0.134 3 
0.465 0.202 0.134 3 
0.466 0.193 0.134 3 
0.466 0.184 0.134 3 
0.466 0.173 0.134 3 
0.466 0.162 0.134 3 
0.465 0.153 0.133 3 
0.466 0.134 0.133 3 
0.466 0.123 0.133 3 
0.475 -0.237 0.132 3 
0.465 0.2 0.082 3 
0.474 -0.227 0.134 3 
0.474 -0.237 0.135 3 
0.493 -0.048 0.058 3 
0.474 -0.267 0.135 3 
0.462 0.332 0.131 3 
0.465 0.329 0.132 3 
0.464 0.292 0.13 3 
0.464 0.257 0.13 3 
0.465 0.094 0.033 3 
0.281 0.017 0.084 3 
0.281 0.004 0.084 3 
0.475 -0.234 0.132 3 
0.474 -0.215 0.134 3 
0.474 -0.24 0.132 3 
0.475 -0.246 0.132 3 
0.465 0.253 0.082 3 
0.474 -0.249 0.132 3 
0.474 -0.255 0.132 3 
0.474 -0.267 0.132 3 
0.475 -0.271 0.133 3 
0.48 -0.348 0.064 3 
0.47 -0.166 0.044 3 
0.475 -0.275 0.133 3 
0.477 -0.286 0.134 3 
0.478 -0.297 0.134 3 
0.465 0.243 0.127 3 
0.465 0.222 0.132 3 
0.281 0.014 0.084 3 
0.465 0.307 0.065 3 
0.465 0.283 0.133 3 
0.466 0.271 0.133 3 
0.465 0.264 0.133 3 
0.464 0.132 0.022 3 
0.465 0.252 0.132 3 
0.464 0.248 0.132 3 
0.476 -0.307 0.084 3 
0.464 0.242 0.132 3 
0.464 0.248 0.121 3 
0.464 0.233 0.132 3 
0.465 0.225 0.132 3 
0.475 -0.237 0.143 3 
0.461 0.054 0.129 3 
0.468 -0.044 0.131 3 
0.47 -0.116 0.132 3 
0.47 -0.127 0.132 3 
0.477 -0.317 0.032 3 
0.47 -0.136 0.132 3 
0.471 -0.145 0.132 3 
0.47 -0.155 0.132 3 
0.47 -0.167 0.132 3 
0.472 -0.185 0.133 3 
0.474 -0.198 0.134 3 
0.473 -0.206 0.134 3 
0.466 0.134 0.144 3 
0.295 0.024 0.096 3 
0.285 -0.005 0.093 3 
0.475 -0.051 0.149 3 
0.475 -0.226 0.152 3 
0.475 -0.235 0.152 3 
0.472 -0.265 0.013 3 
0.476 -0.257 0.153 3 
0.477 -0.267 0.153 3 
0.477 -0.277 0.154 3 
0.321 -0.013 0.058 3 
0.478 -0.288 0.154 3 
0.466 0.142 0.144 3 
0.474 -0.255 0.123 3 
0.459 0.059 0.144 3 
0.466 0.123 0.144 3 
0.466 0.112 0.144 3 
0.475 -0.246 0.112 3 
0.466 0.104 0.144 3 
0.467 0.093 0.144 3 
0.466 0.084 0.144 3 
0.464 0.163 0.063 3 
0.466 0.074 0.144 3 
0.464 0.068 0.143 3 
0.305 0.026 0.097 3 
0.287 0.022 0.092 3 
0.468 -0.058 0.144 3 
0.468 -0.066 0.144 3 
0.472 -0.186 0.153 3 
0.466 0.282 0.153 3 
0.465 0.262 0.152 3 
0.465 0.253 0.152 3 
0.464 0.249 0.152 3 
0.464 0.243 0.152 3 
0.465 0.178 0.084 3 
0.465 0.241 0.152 3 
0.468 -0.137 0.014 3 
0.471 -0.145 0.152 3 
0.471 -0.156 0.152 3 
0.465 0.297 0.043 3 
0.472 -0.165 0.153 3 
0.472 -0.177 0.153 3 
0.475 -0.213 0.149 3 
0.472 -0.197 0.153 3 
0.474 -0.216 0.154 3 
0.474 -0.225 0.154 3 
0.462 0.242 0.013 3 
0.466 0.345 0.153 3 
0.466 0.341 0.153 3 
0.467 0.332 0.153 3 
0.466 0.321 0.152 3 
0.464 0.225 0.148 3 
0.464 0.222 0.148 3 
0.464 0.213 0.148 3 
0.464 0.274 0.063 3 
0.467 0.331 0.144 3 
0.469 -0.085 0.142 3 
0.47 -0.105 0.143 3 
0.47 -0.116 0.143 3 
0.47 -0.125 0.143 3 
0.471 -0.145 0.143 3 
0.471 -0.156 0.144 3 
0.471 -0.165 0.144 3 
0.472 -0.177 0.144 3 
0.471 -0.185 0.144 3 
0.482 -0.346 0.152 3 
0.479 -0.357 0.152 3 
0.479 -0.338 0.112 3 
0.466 0.341 0.144 3 
0.468 -0.077 0.142 3 
0.466 0.32 0.143 3 
0.465 0.312 0.143 3 
0.465 0.303 0.142 3 
0.454 -0.047 0.047 3 
0.466 0.284 0.142 3 
0.464 0.21 0.14 3 
0.285 -0.002 0.09 3 
0.473 -0.197 0.142 3 
0.474 -0.207 0.142 3 
0.474 -0.216 0.143 3 
0.474 -0.225 0.143 3 
0.466 0.142 0.114 3 
0.464 0.222 0.143 3 
0.478 -0.297 0.152 3 
0.479 -0.305 0.152 3 
0.481 -0.317 0.153 3 
0.481 -0.327 0.154 3 
0.481 -0.338 0.154 3 
0.466 0.272 0.144 3 
0.465 0.152 0.063 3 
0.465 0.262 0.144 3 
0.465 0.249 0.144 3 
0.464 0.243 0.143 3 
0.465 0.24 0.143 3 
0.464 0.234 0.143 3 
0.465 0.231 0.143 3 
0.463 0.054 0.124 3 
0.465 0.217 0.143 3 
0.34 -0.016 0.059 3 
0.464 0.183 0.033 3 
0.465 0.214 0.143 3 
0.466 0.203 0.143 3 
0.466 0.194 0.143 3 
0.467 0.182 0.143 3 
0.467 0.174 0.142 3 
0.47 -0.155 0.124 3 
0.467 0.162 0.142 3 
0.467 0.154 0.142 3 
0.468 -0.05 0.142 3 
0.597 -0.033 0.131 3 
0.47 -0.136 0.113 3 
0.473 -0.185 0.114 3 
0.469 -0.146 0.113 3 
0.47 -0.155 0.113 3 
0.472 -0.167 0.113 3 
0.472 -0.176 0.113 3 
0.472 -0.196 0.114 3 
0.473 -0.206 0.114 3 
0.473 -0.217 0.114 3 
0.473 -0.226 0.114 3 
0.465 0.243 0.11 3 
0.462 0.072 0.063 3 
0.465 0.227 0.11 3 
0.469 -0.127 0.112 3 
0.475 -0.237 0.112 3 
0.474 -0.248 0.112 3 
0.458 -0.045 0.047 3 
0.474 -0.255 0.112 3 
0.474 -0.267 0.112 3 
0.475 -0.274 0.113 3 
0.464 0.067 0.092 3 
0.475 -0.277 0.113 3 
0.476 -0.285 0.113 3 
0.477 -0.295 0.113 3 
0.478 -0.306 0.114 3 
0.479 -0.317 0.114 3 
0.478 -0.326 0.114 3 
0.465 0.311 0.114 3 
0.465 0.302 0.114 3 
0.553 -0.036 0.072 3 
0.465 0.292 0.113 3 
0.462 0.032 0.013 3 
0.466 0.283 0.113 3 
0.466 0.274 0.113 3 
0.464 0.263 0.113 3 
0.464 0.254 0.113 3 
0.465 0.246 0.113 3 
0.465 0.294 0.043 3 
0.464 0.242 0.112 3 
0.464 0.233 0.112 3 
0.473 -0.247 0.083 3 
0.464 0.223 0.112 3 
0.465 0.218 0.112 3 
0.463 0.322 0.043 3 
0.465 0.192 0.112 3 
0.464 0.089 0.111 3 
0.465 0.073 0.111 3 
0.468 -0.077 0.112 3 
0.469 -0.085 0.112 3 
0.465 -0.065 0.034 3 
0.469 -0.096 0.112 3 
0.469 -0.105 0.112 3 
0.469 -0.116 0.112 3 
0.464 0.34 0.022 3 
0.465 0.152 0.103 3 
0.465 0.144 0.103 3 
0.465 0.133 0.103 3 
0.465 0.122 0.103 3 
0.464 0.116 0.103 3 
0.464 0.113 0.103 3 
0.464 0.102 0.103 3 
0.465 0.097 0.103 3 
0.465 0.092 0.103 3 
0.465 0.084 0.103 3 
0.464 0.073 0.103 3 
0.465 0.07 0.103 3 
0.464 0.062 0.103 3 
0.465 0.164 0.103 3 
0.311 0.022 0.079 3 
0.472 -0.176 0.102 3 
0.594 -0.021 0.123 3 
0.596 -0.025 0.123 3 
0.594 -0.032 0.123 3 
0.467 -0.047 0.103 3 
0.468 -0.055 0.104 3 
0.468 -0.066 0.104 3 
0.468 -0.077 0.104 3 
0.469 -0.085 0.104 3 
0.464 0.229 0.043 3 
0.469 -0.096 0.104 3 
0.464 0.323 0.082 3 
0.464 0.341 0.109 3 
0.464 0.334 0.108 3 
0.456 0.047 0.104 3 
0.596 -0.021 0.127 3 
0.596 -0.036 0.127 3 
0.475 -0.234 0.109 3 
0.475 -0.255 0.109 3 
0.48 -0.346 0.112 3 
0.472 -0.247 0.024 3 
0.479 -0.356 0.112 3 
0.464 0.266 0.104 3 
0.464 0.263 0.104 3 
0.464 0.254 0.104 3 
0.466 0.322 0.114 3 
0.465 0.233 0.104 3 
0.465 0.224 0.104 3 
0.465 0.212 0.104 3 
0.465 0.203 0.104 3 
0.464 0.197 0.104 3 
0.464 0.191 0.104 3 
0.478 -0.325 0.073 3 
0.465 0.189 0.104 3 
0.477 0 0.03 3 
0.465 0.183 0.104 3 
0.465 0.172 0.104 3 
0.477 -0.345 0.023 3 
0.469 -0.085 0.123 3 
0.466 0.114 0.122 3 
0.465 0.103 0.122 3 
0.465 0.092 0.122 3 
0.464 0.078 0.122 3 
0.465 0.07 0.122 3 
0.304 -0.005 0.087 3 
0.49 0.093 0.043 3 
0.467 -0.041 0.122 3 
0.467 -0.047 0.122 3 
0.467 -0.055 0.122 3 
0.468 -0.066 0.123 3 
0.31 -0.007 0.057 3 
0.469 -0.077 0.123 3 
0.466 0.134 0.122 3 
0.468 -0.096 0.123 3 
0.476 -0.288 0.093 3 
0.469 -0.105 0.123 3 
0.47 -0.127 0.124 3 
0.47 -0.136 0.124 3 
0.47 -0.147 0.124 3 
0.47 -0.167 0.124 3 
0.471 -0.176 0.124 3 
0.463 0.336 0.123 3 
0.465 0.332 0.123 3 
0.465 0.322 0.123 3 
0.465 0.312 0.122 3 
0.465 0.243 0.124 3 
0.466 0.294 0.154 3 
0.286 0.018 0.084 3 
0.285 0 0.084 3 
0.474 -0.277 0.13 3 
0.479 -0.308 0.132 3 
0.48 -0.315 0.132 3 
0.481 -0.327 0.133 3 
0.473 -0.275 0.044 3 
0.481 -0.337 0.133 3 
0.482 -0.345 0.133 3 
0.467 0.345 0.127 3 
0.465 0.27 0.124 3 
0.465 0.264 0.124 3 
0.464 0.307 0.122 3 
0.464 0.239 0.124 3 
0.464 0.233 0.123 3 
0.463 0.223 0.123 3 
0.465 0.212 0.123 3 
0.465 0.204 0.123 3 
0.464 0.152 0.092 3 
0.466 0.193 0.123 3 
0.465 0.184 0.123 3 
0.466 0.173 0.123 3 
0.466 0.164 0.123 3 
0.577 -0.027 0.094 3 
0.466 0.153 0.123 3 
0.465 0.084 0.114 3 
0.465 0.178 0.114 3 
0.465 0.172 0.114 3 
0.478 -0.328 0.064 3 
0.465 0.164 0.114 3 
0.466 0.153 0.114 3 
0.465 0.204 0.112 3 
0.466 0.134 0.114 3 
0.465 0.122 0.114 3 
0.464 0.287 0.082 3 
0.465 0.114 0.114 3 
0.465 0.103 0.114 3 
0.464 0.1 0.114 3 
0.465 0.092 0.114 3 
0.481 -0.355 0.124 3 
0.477 -0.317 0.043 3 
0.464 0.075 0.114 3 
0.464 0.073 0.114 3 
0.463 0.054 0.113 3 
0.295 0.02 0.082 3 
0.599 -0.021 0.139 3 
0.467 -0.039 0.114 3 
0.467 -0.047 0.114 3 
0.467 -0.055 0.114 3 
0.468 -0.066 0.114 3 
0.465 0.335 0.114 3 
0.466 0.333 0.114 3 
0.475 -0.246 0.124 3 
0.35 0.033 0.054 3 
0.464 0.301 0.122 3 
0.465 0.295 0.122 3 
0.465 0.292 0.122 3 
0.466 0.284 0.122 3 
0.29 -0.005 0.083 3 
0.471 -0.155 0.044 3 
0.473 -0.185 0.122 3 
0.473 -0.197 0.122 3 
0.473 -0.206 0.122 3 
0.473 -0.215 0.123 3 
0.474 -0.227 0.123 3 
0.475 -0.237 0.123 3 
0.464 0.062 0.124 3 
0.474 -0.249 0.123 3 
0.474 -0.277 0.124 3 
0.464 0.263 0.118 3 
0.465 0.057 0.117 3 
0.475 -0.234 0.12 3 
0.476 -0.285 0.122 3 
0.478 -0.296 0.122 3 
0.479 -0.307 0.123 3 
0.479 -0.317 0.123 3 
0.479 -0.328 0.123 3 
0.48 -0.336 0.124 3 
0.48 -0.346 0.124 3 
0.474 -0.096 0.183 3 
0.47 0.114 0.182 3 
0.471 0.103 0.182 3 
0.472 0.092 0.182 3 
0.466 -0.036 0.004 3 
0.472 0.084 0.182 3 
0.465 0.063 0.179 3 
0.275 -0.006 0.102 3 
0.474 -0.056 0.182 3 
0.306 0.02 0.072 3 
0.473 -0.065 0.182 3 
0.472 -0.076 0.182 3 
0.464 0.3 0.105 3 
0.473 -0.087 0.182 3 
0.469 -0.105 0.134 3 
0.473 -0.107 0.183 3 
0.474 -0.115 0.183 3 
0.475 -0.127 0.184 3 
0.475 -0.139 0.184 3 
0.475 -0.15 0.184 3 
0.474 -0.155 0.184 3 
0.474 -0.167 0.184 3 
0.482 -0.296 0.192 3 
0.465 0.144 0.133 3 
0.481 -0.305 0.192 3 
0.312 0.012 0.054 3 
0.483 -0.318 0.194 3 
0.484 -0.326 0.194 3 
0.469 0.212 0.184 3 
0.464 0.258 0.063 3 
0.479 -0.255 0.192 3 
0.467 -0.077 0.074 3 
0.479 -0.267 0.193 3 
0.482 -0.276 0.194 3 
0.481 -0.285 0.194 3 
0.473 0.357 0.192 3 
0.468 0.152 0.173 3 
0.467 0.249 0.184 3 
0.468 0.244 0.184 3 
0.469 0.233 0.184 3 
0.47 0.218 0.184 3 
0.464 0.081 0.074 3 
0.484 -0.329 0.195 3 
0.468 0.202 0.183 3 
0.469 0.194 0.183 3 
0.469 0.182 0.183 3 
0.469 0.174 0.183 3 
0.473 -0.166 0.173 3 
0.471 -0.136 0.143 3 
0.468 0.164 0.182 3 
0.468 0.153 0.182 3 
0.47 0.142 0.182 3 
0.47 0.134 0.182 3 
0.475 -0.281 0.124 3 
0.471 0.123 0.182 3 
0.485 -0.344 0.19 3 
0.485 -0.352 0.193 3 
0.469 0.348 0.184 3 
0.471 0.331 0.184 3 
0.47 0.323 0.183 3 
0.467 0.063 0.174 3 
0.473 -0.126 0.177 3 
0.473 -0.135 0.178 3 
0.477 -0.237 0.182 3 
0.479 -0.248 0.183 3 
0.479 -0.257 0.183 3 
0.479 -0.267 0.184 3 
0.479 -0.277 0.184 3 
0.285 0.014 0.083 3 
0.464 0.105 0.111 3 
0.467 0.201 0.174 3 
0.464 0.252 0.143 3 
0.467 0.192 0.174 3 
0.464 0.274 0.032 3 
0.467 0.184 0.174 3 
0.467 0.172 0.173 3 
0.467 0.164 0.173 3 
0.468 0.144 0.173 3 
0.468 0.133 0.173 3 
0.475 -0.247 0.152 3 
0.468 0.124 0.173 3 
0.469 -0.096 0.142 3 
0.464 0.203 0.033 3 
0.474 -0.208 0.171 3 
0.484 -0.336 0.195 3 
0.469 0.305 0.184 3 
0.464 0.294 0.094 3 
0.47 0.296 0.184 3 
0.47 0.293 0.184 3 
0.468 0.282 0.183 3 
0.468 0.272 0.183 3 
0.472 -0.225 0.052 3 
0.468 0.263 0.182 3 
0.475 -0.121 0.181 3 
0.474 -0.152 0.181 3 
0.478 -0.245 0.192 3 
0.475 -0.176 0.182 3 
0.476 -0.186 0.183 3 
0.466 0.054 0.074 3 
0.476 -0.195 0.183 3 
0.476 -0.207 0.184 3 
0.464 0.07 0.124 3 
0.476 -0.216 0.184 3 
0.471 -0.178 0.074 3 
0.465 0.046 0.001 3 
0.476 -0.225 0.184 3 
0.484 -0.336 0.192 3 
0.484 -0.347 0.193 3 
0.27 -0.005 0.102 3 
0.471 0.143 0.188 3 
0.471 0.134 0.188 3 
0.464 0.062 0.114 3 
0.472 0.123 0.188 3 
0.473 0.073 0.188 3 
0.472 0.112 0.188 3 
0.468 0.281 0.174 3 
0.472 0.103 0.188 3 
0.473 0.093 0.188 3 
0.473 0.084 0.188 3 
0.274 0.021 0.103 3 
0.266 0.014 0.1 3 
0.267 0.004 0.1 3 
0.463 0.283 0.093 3 
0.465 0.212 0.112 3 
0.474 -0.059 0.188 3 
0.474 -0.065 0.188 3 
0.467 0.207 0.174 3 
0.475 -0.074 0.189 3 
0.468 -0.126 0.014 3 
0.475 -0.076 0.189 3 
0.469 -0.053 0.153 3 
0.465 0.312 0.134 3 
0.474 -0.079 0.188 3 
0.467 0.132 0.164 3 
0.475 -0.085 0.189 3 
0.475 -0.096 0.189 3 
0.47 0.252 0.191 3 
0.474 0.358 0.199 3 
0.473 0.353 0.198 3 
0.464 0.143 0.084 3 
0.473 0.342 0.198 3 
0.474 0.333 0.197 3 
0.474 0.321 0.196 3 
0.471 -0.155 0.102 3 
0.472 0.312 0.195 3 
0.472 0.302 0.194 3 
0.472 0.292 0.194 3 
0.471 0.282 0.193 3 
0.469 0.273 0.192 3 
0.471 0.262 0.192 3 
0.475 -0.107 0.189 3 
0.47 0.243 0.191 3 
0.47 0.234 0.191 3 
0.471 0.222 0.191 3 
0.47 0.213 0.19 3 
0.476 -0.297 0.023 3 
0.47 0.204 0.19 3 
0.472 0.193 0.19 3 
0.471 0.184 0.189 3 
0.47 0.174 0.189 3 
0.47 0.163 0.189 3 
0.469 0.154 0.188 3 
0.465 0.084 0.122 3 
0.472 0.312 0.192 3 
0.483 -0.308 0.199 3 
0.462 0.313 0.014 3 
0.484 -0.315 0.2 3 
0.472 -0.216 0.044 3 
0.486 -0.321 0.201 3 
0.487 -0.329 0.202 3 
0.486 -0.335 0.202 3 
0.485 -0.345 0.202 3 
0.471 0.351 0.194 3 
0.471 0.344 0.194 3 
0.472 0.334 0.194 3 
0.47 -0.146 0.093 3 
0.473 0.323 0.193 3 
0.484 -0.298 0.199 3 
0.471 0.067 0.184 3 
0.46 0.062 0.18 3 
0.471 -0.176 0.133 3 
0.275 0.022 0.103 3 
0.472 -0.265 0.052 3 
0.494 -0.06 0.194 3 
0.475 -0.059 0.186 3 
0.473 -0.207 0.154 3 
0.474 -0.087 0.186 3 
0.474 -0.098 0.186 3 
0.473 -0.107 0.186 3 
0.473 -0.115 0.186 3 
0.477 -0.196 0.192 3 
0.476 -0.116 0.19 3 
0.475 -0.357 0.046 3 
0.477 -0.125 0.19 3 
0.477 -0.137 0.191 3 
0.464 0.092 0.1 3 
0.479 -0.317 0.102 3 
0.477 -0.145 0.191 3 
0.476 -0.157 0.191 3 
0.468 0.343 0.184 3 
0.476 -0.165 0.191 3 
0.467 -0.066 0.074 3 
0.477 -0.178 0.192 3 
0.478 -0.187 0.192 3 
0.468 0.113 0.172 3 
0.477 -0.205 0.193 3 
0.473 -0.126 0.172 3 
0.478 -0.217 0.193 3 
0.478 -0.227 0.194 3 
0.478 -0.236 0.194 3 
0.465 0.252 0.124 3 
0.478 -0.245 0.195 3 
0.48 -0.255 0.195 3 
0.48 -0.265 0.196 3 
0.482 -0.277 0.197 3 
0.463 0.322 0.054 3 
0.482 -0.286 0.198 3 
0.473 -0.195 0.162 3 
0.308 -0.004 0.073 3 
0.464 0.068 0.157 3 
0.472 -0.226 0.033 3 
0.456 0.058 0.154 3 
0.465 -0.047 0.034 3 
0.277 0.02 0.094 3 
0.275 0.012 0.094 3 
0.275 0.001 0.094 3 
0.472 -0.186 0.161 3 
0.469 -0.105 0.104 3 
0.472 -0.256 0.052 3 
0.467 -0.036 0.044 3 
0.467 0.273 0.162 3 
0.473 -0.207 0.162 3 
0.471 -0.167 0.033 3 
0.473 -0.216 0.163 3 
0.475 -0.22 0.163 3 
0.431 0.074 0.055 3 
0.473 -0.257 0.044 3 
0.473 -0.287 0.012 3 
0.475 -0.226 0.163 3 
0.475 -0.235 0.163 3 
0.476 -0.245 0.164 3 
0.593 -0.021 0.134 3 
0.468 0.348 0.162 3 
0.468 0.333 0.162 3 
0.482 -0.315 0.172 3 
0.47 -0.097 0.162 3 
0.47 -0.105 0.162 3 
0.464 0.283 0.023 3 
0.472 -0.117 0.163 3 
0.472 -0.126 0.163 3 
0.473 -0.135 0.163 3 
0.481 -0.356 0.155 3 
0.472 -0.145 0.163 3 
0.48 -0.358 0.134 3 
0.471 -0.156 0.163 3 
0.474 -0.276 0.084 3 
0.473 -0.175 0.164 3 
0.466 0.123 0.122 3 
0.463 0.333 0.123 3 
0.481 -0.325 0.172 3 
0.47 -0.166 0.022 3 
0.482 -0.336 0.173 3 
0.483 -0.345 0.173 3 
0.466 0.338 0.164 3 
0.469 0.321 0.164 3 
0.468 0.313 0.164 3 
0.466 0.301 0.163 3 
0.467 0.292 0.163 3 
0.465 0.262 0.063 3 
0.467 0.283 0.162 3 
0.469 -0.105 0.153 3 
0.467 0.123 0.153 3 
0.466 0.112 0.152 3 
0.466 0.104 0.152 3 
0.466 0.093 0.152 3 
0.476 -0.266 0.144 3 
0.466 0.084 0.152 3 
0.469 -0.055 0.153 3 
0.462 0.331 0.062 3 
0.468 -0.066 0.153 3 
0.469 -0.075 0.153 3 
0.469 -0.086 0.153 3 
0.469 -0.097 0.153 3 
0.473 -0.247 0.092 3 
0.467 0.134 0.153 3 
0.471 -0.117 0.154 3 
0.471 -0.125 0.154 3 
0.471 -0.136 0.154 3 
0.463 0.339 0.062 3 
0.475 -0.214 0.157 3 
0.48 -0.306 0.162 3 
0.481 -0.317 0.162 3 
0.481 -0.328 0.163 3 
0.481 -0.335 0.163 3 
0.482 -0.347 0.164 3 
0.466 0.311 0.154 3 
0.466 0.304 0.154 3 
0.465 0.232 0.154 3 
0.464 0.255 0.158 3 
0.465 0.073 0.154 3 
0.464 0.068 0.154 3 
0.463 0.335 0.054 3 
0.28 -0.005 0.094 3 
0.586 -0.024 0.103 3 
0.476 -0.257 0.162 3 
0.477 -0.268 0.162 3 
0.476 -0.276 0.162 3 
0.464 0.298 0.136 3 
0.478 -0.285 0.163 3 
0.479 -0.299 0.164 3 
0.464 0.252 0.155 3 
0.47 -0.086 0.162 3 
0.465 0.223 0.154 3 
0.47 -0.135 0.082 3 
0.466 0.212 0.154 3 
0.466 0.203 0.154 3 
0.466 0.194 0.154 3 
0.466 0.183 0.154 3 
0.466 0.173 0.153 3 
0.466 0.162 0.153 3 
0.466 0.154 0.153 3 
0.466 0.142 0.153 3 
0.465 0.122 0.063 3 
0.473 -0.146 0.172 3 
0.482 -0.326 0.184 3 
0.468 0.272 0.174 3 
0.48 -0.307 0.174 3 
0.464 0.342 0.141 3 
0.475 -0.243 0.103 3 
0.467 0.264 0.173 3 
0.463 0.072 0.004 3 
0.467 0.252 0.173 3 
0.467 0.243 0.172 3 
0.473 -0.256 0.072 3 
0.467 0.234 0.172 3 
0.466 0.224 0.172 3 
0.473 -0.135 0.172 3 
0.472 -0.187 0.094 3 
0.473 -0.155 0.172 3 
0.473 -0.175 0.173 3 
0.474 -0.187 0.174 3 
0.475 -0.191 0.174 3 
0.465 -0.087 0.012 3 
0.475 -0.197 0.174 3 
0.475 -0.206 0.174 3 
0.465 0.114 0.063 3 
0.483 -0.338 0.182 3 
0.484 -0.346 0.183 3 
0.467 0.347 0.174 3 
0.466 0.343 0.174 3 
0.468 0.334 0.174 3 
0.472 -0.095 0.174 3 
0.468 0.102 0.172 3 
0.466 0.142 0.123 3 
0.469 0.094 0.173 3 
0.47 0.083 0.173 3 
0.469 0.072 0.172 3 
0.288 0.024 0.104 3 
0.276 -0.004 0.099 3 
0.471 -0.056 0.173 3 
0.471 -0.067 0.173 3 
0.465 0.102 0.044 3 
0.462 0.213 0.014 3 
0.471 -0.075 0.173 3 
0.472 -0.087 0.174 3 
0.469 0.321 0.173 3 
0.472 -0.106 0.174 3 
0.464 0.242 0.104 3 
0.472 -0.115 0.174 3 
0.476 -0.317 0.003 3 
0.474 -0.176 0.176 3 
0.474 -0.187 0.176 3 
0.48 -0.287 0.182 3 
0.466 0.294 0.142 3 
0.481 -0.298 0.183 3 
0.481 -0.305 0.183 3 
0.463 0.053 0.004 3 
0.482 -0.316 0.184 3 
0.466 0.26 0.164 3 
0.271 0.014 0.094 3 
0.465 0.114 0.074 3 
0.271 0.004 0.094 3 
0.471 -0.053 0.164 3 
0.47 -0.056 0.164 3 
0.47 -0.067 0.164 3 
0.464 0.294 0.108 3 
0.47 -0.075 0.164 3 
0.474 -0.196 0.168 3 
0.479 -0.266 0.172 3 
0.48 -0.277 0.172 3 
0.479 -0.286 0.172 3 
0.479 -0.296 0.173 3 
0.271 0.018 0.094 3 
0.465 0.274 0.153 3 
0.465 0.253 0.164 3 
0.466 0.242 0.164 3 
0.466 0.233 0.163 3 
0.465 0.223 0.163 3 
0.466 0.212 0.163 3 
0.467 0.204 0.163 3 
0.467 0.192 0.163 3 
0.468 0.184 0.163 3 
0.47 -0.116 0.123 3 
0.467 0.171 0.162 3 
0.446 0.056 0.153 3 
0.467 0.163 0.164 3 
0.468 0.314 0.173 3 
0.468 0.304 0.172 3 
0.468 0.294 0.172 3 
0.474 -0.217 0.172 3 
0.475 -0.224 0.172 3 
0.473 -0.166 0.164 3 
0.475 -0.219 0.149 3 
0.475 -0.227 0.172 3 
0.464 0.062 0.092 3 
0.476 -0.236 0.172 3 
0.477 -0.246 0.173 3 
0.472 -0.205 0.083 3 
0.477 -0.255 0.174 3 
0.469 -0.116 0.104 3 
0.467 -0.039 0.103 3 
0.466 0.154 0.164 3 
0.467 0.143 0.164 3 
0.467 0.124 0.164 3 
0.467 0.112 0.164 3 
0.475 -0.316 0.014 3 
0.466 0.104 0.163 3 
0.467 0.093 0.164 3 
0.468 0.082 0.164 3 
0.468 0.074 0.164 3 
0.466 0.063 0.163 3 
0.465 0.215 0.12 3 
0.464 0.214 0.043 3 
0.463 0.302 0.043 3 
0.465 -0.068 0.039 3 
0.464 0.286 0.043 3 
0.465 0.284 0.043 3 
0.464 0.28 0.043 3 
0.464 0.274 0.043 3 
0.463 0.261 0.043 3 
0.465 -0.055 0.034 3 
0.464 0.223 0.024 3 
0.464 0.252 0.043 3 
0.463 0.243 0.043 3 
0.465 0.232 0.043 3 
0.464 0.223 0.043 3 
0.463 0.312 0.043 3 
0.464 0.202 0.043 3 
0.464 0.194 0.044 3 
0.464 0.182 0.044 3 
0.464 0.174 0.044 3 
0.464 0.163 0.044 3 
0.464 0.154 0.044 3 
0.465 0.149 0.044 3 
0.464 0.143 0.044 3 
0.465 0.141 0.044 3 
0.465 0.133 0.044 3 
0.474 -0.295 0.012 3 
0.464 0.127 0.044 3 
0.464 0.124 0.044 3 
0.463 0.301 0.023 3 
0.475 -0.292 0.049 3 
0.474 -0.355 0.049 3 
0.448 0.102 0.047 3 
0.457 0.084 0.047 3 
0.47 0.085 0.047 3 
0.479 0.082 0.046 3 
0.461 0.066 0.047 3 
0.454 0.057 0.047 3 
0.449 0.053 0.047 3 
0.463 0.113 0.044 3 
0.325 0.014 0.052 3 
0.465 0.043 0.004 3 
0.473 -0.031 0.047 3 
0.463 0.283 0.012 3 
0.465 -0.036 0.047 3 
0.463 -0.038 0.047 3 
0.463 0.339 0.042 3 
0.462 0.334 0.042 3 
0.464 0.083 0.041 3 
0.471 -0.195 0.044 3 
0.471 -0.207 0.044 3 
0.472 -0.225 0.044 3 
0.473 -0.238 0.044 3 
0.473 -0.247 0.044 3 
0.472 -0.265 0.044 3 
0.476 -0.296 0.044 3 
0.477 -0.307 0.043 3 
0.479 -0.336 0.043 3 
0.479 -0.347 0.043 3 
0.476 -0.358 0.043 3 
0.462 0.104 0.041 3 
0.463 0.093 0.041 3 
0.471 -0.187 0.044 3 
0.339 0.005 0.048 3 
0.366 -0.004 0.047 3 
0.463 -0.057 0.042 3 
0.464 -0.065 0.042 3 
0.465 -0.076 0.042 3 
0.345 0.018 0.046 3 
0.461 0.336 0.034 3 
0.461 0.333 0.034 3 
0.462 0.324 0.034 3 
0.463 -0.046 0.044 3 
0.475 0.094 0.044 3 
0.471 0.079 0.044 3 
0.464 0.072 0.044 3 
0.465 -0.055 0.036 3 
0.465 0.067 0.044 3 
0.463 0.064 0.044 3 
0.46 0.053 0.044 3 
0.457 0.047 0.045 3 
0.335 0.024 0.05 3 
0.473 -0.029 0.044 3 
0.464 -0.041 0.044 3 
0.461 -0.057 0.045 3 
0.46 -0.067 0.045 3 
0.47 -0.091 0.044 3 
0.47 -0.096 0.044 3 
0.469 -0.107 0.044 3 
0.469 -0.115 0.044 3 
0.469 -0.126 0.044 3 
0.469 -0.135 0.044 3 
0.47 -0.146 0.044 3 
0.47 -0.175 0.044 3 
0.465 0.133 0.052 3 
0.357 0.031 0.056 3 
0.315 0.013 0.056 3 
0.341 -0.004 0.056 3 
0.37 -0.024 0.056 3 
0.465 0.287 0.051 3 
0.464 0.174 0.052 3 
0.464 0.163 0.052 3 
0.465 0.161 0.052 3 
0.465 0.152 0.052 3 
0.465 0.144 0.052 3 
0.341 0.036 0.056 3 
0.466 0.114 0.052 3 
0.464 0.108 0.052 3 
0.464 0.102 0.052 3 
0.465 0.1 0.052 3 
0.446 0.088 0.052 3 
0.471 -0.155 0.033 3 
0.359 0.043 0.054 3 
0.354 0.04 0.054 3 
0.355 0.029 0.054 3 
0.464 0.252 0.054 3 
0.342 0.027 0.057 3 
0.332 0.024 0.057 3 
0.331 -0.015 0.058 3 
0.513 -0.054 0.058 3 
0.509 -0.06 0.058 3 
0.465 0.341 0.054 3 
0.463 0.302 0.054 3 
0.464 0.294 0.054 3 
0.465 0.284 0.054 3 
0.464 0.28 0.054 3 
0.463 0.261 0.054 3 
0.334 0.024 0.054 3 
0.464 0.232 0.054 3 
0.464 0.223 0.054 3 
0.465 0.218 0.054 3 
0.464 0.214 0.054 3 
0.465 0.212 0.054 3 
0.465 0.203 0.054 3 
0.464 0.2 0.054 3 
0.464 0.194 0.054 3 
0.464 0.182 0.054 3 
0.464 0.119 0.055 3 
0.446 0.081 0.055 3 
0.472 -0.205 0.052 3 
0.471 -0.216 0.052 3 
0.473 -0.235 0.052 3 
0.473 -0.247 0.052 3 
0.473 -0.275 0.052 3 
0.474 -0.286 0.052 3 
0.475 -0.295 0.052 3 
0.477 -0.307 0.052 3 
0.477 -0.317 0.052 3 
0.478 -0.325 0.052 3 
0.479 -0.336 0.052 3 
0.473 -0.354 0.052 3 
0.464 0.124 0.049 3 
0.472 -0.196 0.052 3 
0.339 0.036 0.053 3 
0.34 0.025 0.053 3 
0.322 0.015 0.053 3 
0.319 0.014 0.053 3 
0.324 0.004 0.053 3 
0.329 0.001 0.053 3 
0.347 -0.004 0.053 3 
0.325 -0.01 0.053 3 
0.443 0.045 0.048 3 
0.465 -0.033 0.023 3 
0.473 -0.075 0.052 3 
0.342 -0.004 0.054 3 
0.341 0.014 0.021 3 
0.344 -0.012 0.054 3 
0.343 -0.015 0.054 3 
0.474 -0.349 0.014 3 
0.462 0.204 0.014 3 
0.466 -0.066 0.052 3 
0.476 -0.071 0.052 3 
0.463 0.312 0.034 3 
0.47 -0.091 0.052 3 
0.469 -0.096 0.052 3 
0.469 -0.107 0.052 3 
0.469 -0.115 0.052 3 
0.47 -0.127 0.052 3 
0.47 -0.135 0.052 3 
0.471 -0.147 0.052 3 
0.47 -0.155 0.052 3 
0.47 -0.166 0.052 3 
0.47 -0.177 0.052 3 
0.471 -0.187 0.052 3 
0.465 0.086 0.02 3 
0.468 -0.096 0.023 3 
0.468 -0.107 0.023 3 
0.469 -0.115 0.023 3 
0.469 -0.126 0.023 3 
0.469 -0.135 0.022 3 
0.47 -0.146 0.022 3 
0.471 -0.155 0.022 3 
0.47 -0.175 0.022 3 
0.47 -0.186 0.022 3 
0.47 -0.195 0.022 3 
0.471 -0.207 0.022 3 
0.474 -0.285 0.021 3 
0.474 -0.352 0.02 3 
0.467 -0.085 0.023 3 
0.461 0.333 0.014 3 
0.462 0.323 0.014 3 
0.464 -0.047 0.018 3 
0.474 -0.295 0.015 3 
0.474 -0.305 0.015 3 
0.475 -0.312 0.014 3 
0.477 -0.328 0.014 3 
0.477 -0.335 0.014 3 
0.475 -0.347 0.014 3 
0.462 0.304 0.012 3 
0.463 0.292 0.012 3 
0.462 0.272 0.013 3 
0.461 0.262 0.013 3 
0.462 0.032 0.023 3 
0.463 0.014 0.023 3 
0.463 0.154 0.022 3 
0.463 0.143 0.022 3 
0.464 0.124 0.023 3 
0.464 0.113 0.023 3 
0.464 0.102 0.023 3 
0.465 0.1 0.023 3 
0.464 0.094 0.023 3 
0.464 0.083 0.023 3 
0.464 0.072 0.023 3 
0.464 0.064 0.023 3 
0.464 0.054 0.023 3 
0.463 0.043 0.023 3 
0.461 0.253 0.013 3 
0.462 0.024 0.023 3 
0.464 0.003 0.023 3 
0.465 -0.001 0.023 3 
0.465 -0.007 0.023 3 
0.464 -0.012 0.023 3 
0.464 -0.025 0.023 3 
0.464 -0.036 0.023 3 
0.465 -0.041 0.023 3 
0.465 -0.047 0.023 3 
0.466 -0.055 0.023 3 
0.466 -0.066 0.023 3 
0.467 -0.076 0.023 3 
0.465 -0.028 0.007 3 
0.462 0.053 0.013 3 
0.462 0.043 0.013 3 
0.463 -0.025 0.013 3 
0.464 -0.047 0.012 3 
0.464 -0.055 0.012 3 
0.465 -0.057 0.012 3 
0.465 -0.065 0.012 3 
0.465 -0.076 0.012 3 
0.466 -0.095 0.012 3 
0.467 -0.106 0.012 3 
0.466 -0.117 0.012 3 
0.465 -0.052 0.01 3 
0.466 -0.015 0.007 3 
0.463 0.072 0.012 3 
0.476 -0.307 0.003 3 
0.477 -0.325 0.002 3 
0.463 0.059 0.004 3 
0.464 0.04 0.004 3 
0.466 -0.015 0.004 3 
0.465 -0.025 0.004 3 
0.465 -0.047 0.004 3 
0.466 -0.055 0.004 3 
0.466 -0.066 0.004 3 
0.468 -0.115 0.004 3 
0.463 0.032 0.002 3 
0.342 0.014 0.013 3 
0.469 -0.197 0.014 3 
0.462 0.233 0.013 3 
0.462 0.224 0.013 3 
0.462 0.193 0.014 3 
0.462 0.184 0.014 3 
0.463 0.174 0.014 3 
0.462 0.162 0.014 3 
0.462 0.154 0.014 3 
0.464 -0.055 0.015 3 
0.468 -0.145 0.014 3 
0.469 -0.157 0.014 3 
0.469 -0.166 0.014 3 
0.469 -0.177 0.014 3 
0.469 -0.186 0.014 3 
0.463 0.162 0.022 3 
0.47 -0.215 0.014 3 
0.471 -0.228 0.013 3 
0.472 -0.235 0.013 3 
0.472 -0.247 0.013 3 
0.473 -0.256 0.013 3 
0.472 -0.277 0.013 3 
0.474 -0.305 0.012 3 
0.463 0.134 0.012 3 
0.463 0.112 0.012 3 
0.463 0.104 0.012 3 
0.463 0.094 0.012 3 
0.463 0.083 0.012 3 
0.464 0.054 0.034 3 
0.464 0.223 0.032 3 
0.464 0.214 0.032 3 
0.464 0.194 0.033 3 
0.464 0.174 0.033 3 
0.464 0.154 0.033 3 
0.464 0.143 0.033 3 
0.464 0.132 0.033 3 
0.464 0.124 0.033 3 
0.464 0.102 0.033 3 
0.464 0.091 0.033 3 
0.463 0.083 0.034 3 
0.464 0.072 0.034 3 
0.465 0.064 0.033 3 
0.464 0.232 0.032 3 
0.462 0.043 0.034 3 
0.452 0.033 0.035 3 
0.439 0.027 0.036 3 
0.539 -0.012 0.028 3 
0.556 -0.016 0.027 3 
0.466 -0.02 0.034 3 
0.466 -0.025 0.034 3 
0.465 -0.036 0.034 3 
0.466 -0.076 0.034 3 
0.467 -0.085 0.034 3 
0.468 -0.096 0.034 3 
0.469 -0.107 0.033 3 
0.469 -0.115 0.033 3 
0.369 0.006 0.043 3 
0.464 0.302 0.034 3 
0.464 0.293 0.034 3 
0.465 0.29 0.034 3 
0.464 0.283 0.034 3 
0.465 0.281 0.034 3 
0.465 0.124 0.036 3 
0.465 0.091 0.036 3 
0.461 0.042 0.037 3 
0.359 0.017 0.044 3 
0.347 0.008 0.045 3 
0.463 0.123 0.012 3 
0.373 0.004 0.043 3 
0.537 -0.015 0.031 3 
0.465 -0.047 0.036 3 
0.478 -0.332 0.034 3 
0.478 -0.335 0.034 3 
0.479 -0.347 0.034 3 
0.477 -0.355 0.034 3 
0.464 0.262 0.032 3 
0.463 0.252 0.032 3 
0.463 0.243 0.032 3 
0.472 -0.217 0.024 3 
0.465 -0.009 0.031 3 
0.465 0.051 0.028 3 
0.459 0.024 0.029 3 
0.462 0.334 0.022 3 
0.462 0.324 0.023 3 
0.463 0.314 0.023 3 
0.463 0.264 0.024 3 
0.463 0.252 0.024 3 
0.463 0.243 0.024 3 
0.463 0.234 0.024 3 
0.464 0.203 0.024 3 
0.464 0.003 0.026 3 
0.464 -0.031 0.026 3 
0.47 0.003 0.031 3 
0.472 -0.226 0.024 3 
0.472 -0.256 0.024 3 
0.473 -0.265 0.024 3 
0.473 -0.275 0.024 3 
0.475 -0.286 0.024 3 
0.476 -0.306 0.023 3 
0.476 -0.316 0.023 3 
0.476 -0.327 0.023 3 
0.478 -0.336 0.023 3 
0.474 -0.356 0.023 3 
0.463 0.182 0.022 3 
0.464 0.174 0.022 3 
0.475 -0.283 0.032 3 
0.469 -0.126 0.033 3 
0.469 -0.135 0.033 3 
0.47 -0.146 0.033 3 
0.47 -0.175 0.033 3 
0.47 -0.186 0.033 3 
0.471 -0.195 0.033 3 
0.471 -0.207 0.033 3 
0.472 -0.217 0.033 3 
0.472 -0.235 0.033 3 
0.473 -0.247 0.033 3 
0.473 -0.257 0.032 3 
0.473 -0.266 0.032 3 
0.474 -0.275 0.032 3 
0.351 0.03 0.057 3 
0.475 -0.286 0.032 3 
0.476 -0.296 0.032 3 
0.478 -0.308 0.032 3 
0.465 0.206 0.03 3 
0.465 0.133 0.03 3 
0.465 0.116 0.031 3 
0.465 0.113 0.031 3 
0.465 0.102 0.031 3 
0.457 0.034 0.032 3 
0.461 0.008 0.031 3 
0.467 0.006 0.031 3 
0.476 -0.297 0.093 3 
0.584 -0.02 0.102 3 
0.462 0.064 0.013 3 
0.581 -0.028 0.102 3 
0.583 -0.035 0.102 3 
0.471 -0.155 0.063 3 
0.472 -0.225 0.092 3 
0.472 -0.237 0.092 3 
0.473 -0.257 0.092 3 
0.462 0.314 0.054 3 
0.473 -0.266 0.092 3 
0.474 -0.276 0.092 3 
0.475 -0.28 0.093 3 
0.463 0.292 0.023 3 
0.559 -0.016 0.1 3 
0.477 -0.305 0.093 3 
0.478 -0.316 0.093 3 
0.479 -0.327 0.094 3 
0.479 -0.337 0.094 3 
0.48 -0.348 0.094 3 
0.479 -0.358 0.094 3 
0.464 0.323 0.085 3 
0.464 -0.015 0.012 3 
0.464 0.313 0.085 3 
0.464 0.211 0.084 3 
0.464 0.2 0.084 3 
0.465 0.189 0.084 3 
0.464 0.174 0.084 3 
0.473 -0.197 0.094 3 
0.468 -0.066 0.093 3 
0.468 -0.077 0.093 3 
0.468 -0.085 0.093 3 
0.469 -0.096 0.093 3 
0.469 -0.107 0.093 3 
0.36 0.01 0.042 3 
0.469 -0.116 0.093 3 
0.468 -0.126 0.093 3 
0.463 0.193 0.022 3 
0.469 -0.135 0.093 3 
0.471 -0.155 0.094 3 
0.471 -0.167 0.094 3 
0.471 -0.175 0.094 3 
0.464 0.333 0.054 3 
0.472 -0.205 0.094 3 
0.472 -0.216 0.094 3 
0.465 0.304 0.091 3 
0.465 0.254 0.09 3 
0.464 0.223 0.09 3 
0.464 0.194 0.09 3 
0.464 0.143 0.09 3 
0.464 0.13 0.09 3 
0.347 -0.005 0.072 3 
0.465 0.092 0.09 3 
0.464 0.113 0.033 3 
0.465 0.054 0.09 3 
0.467 -0.055 0.082 3 
0.465 0.266 0.082 3 
0.464 0.263 0.082 3 
0.465 0.26 0.082 3 
0.465 0.244 0.082 3 
0.465 0.232 0.082 3 
0.465 0.224 0.082 3 
0.464 0.274 0.023 3 
0.464 0.22 0.082 3 
0.573 -0.016 0.09 3 
0.574 -0.027 0.091 3 
0.573 -0.038 0.09 3 
0.467 -0.033 0.082 3 
0.467 -0.047 0.082 3 
0.464 0.272 0.082 3 
0.467 -0.066 0.082 3 
0.467 -0.077 0.082 3 
0.468 -0.085 0.082 3 
0.469 -0.096 0.082 3 
0.469 -0.107 0.082 3 
0.464 -0.015 0.023 3 
0.468 -0.115 0.082 3 
0.468 -0.126 0.082 3 
0.464 0.154 0.063 3 
0.47 -0.146 0.083 3 
0.47 -0.155 0.083 3 
0.471 -0.166 0.083 3 
0.471 -0.175 0.083 3 
0.464 0.062 0.084 3 
0.464 0.163 0.084 3 
0.464 0.152 0.084 3 
0.465 0.136 0.084 3 
0.465 0.133 0.084 3 
0.465 0.122 0.084 3 
0.465 0.114 0.084 3 
0.465 0.103 0.084 3 
0.465 0.092 0.084 3 
0.464 0.083 0.084 3 
0.465 0.081 0.084 3 
0.461 0.337 0.014 3 
0.465 0.073 0.084 3 
0.466 -0.047 0.074 3 
0.468 -0.055 0.093 3 
0.341 0.014 0.004 3 
0.465 0.059 0.084 3 
0.465 0.054 0.084 3 
0.464 0.051 0.084 3 
0.576 -0.016 0.094 3 
0.466 -0.036 0.084 3 
0.462 0.338 0.082 3 
0.465 0.317 0.082 3 
0.465 0.314 0.082 3 
0.465 0.304 0.082 3 
0.465 0.291 0.082 3 
0.464 0.284 0.082 3 
0.464 0.152 0.098 3 
0.473 -0.188 0.103 3 
0.473 -0.197 0.103 3 
0.472 -0.205 0.103 3 
0.472 -0.217 0.103 3 
0.473 -0.226 0.103 3 
0.474 -0.236 0.103 3 
0.475 -0.246 0.104 3 
0.474 -0.251 0.103 3 
0.474 -0.257 0.104 3 
0.474 -0.267 0.104 3 
0.475 -0.277 0.104 3 
0.476 -0.288 0.104 3 
0.464 0.166 0.098 3 
0.472 -0.167 0.102 3 
0.293 0.009 0.074 3 
0.586 -0.028 0.114 3 
0.59 -0.036 0.114 3 
0.591 -0.04 0.115 3 
0.465 0.192 0.074 3 
0.585 -0.047 0.114 3 
0.474 -0.276 0.101 3 
0.477 -0.298 0.102 3 
0.478 -0.306 0.102 3 
0.479 -0.327 0.102 3 
0.479 -0.338 0.103 3 
0.48 -0.346 0.103 3 
0.48 -0.355 0.103 3 
0.464 0.284 0.102 3 
0.465 0.269 0.063 3 
0.469 -0.127 0.104 3 
0.47 -0.135 0.104 3 
0.472 -0.235 0.024 3 
0.474 -0.236 0.106 3 
0.462 0.338 0.102 3 
0.464 0.333 0.103 3 
0.465 0.331 0.103 3 
0.466 0.322 0.103 3 
0.465 0.314 0.102 3 
0.465 0.301 0.102 3 
0.464 0.297 0.102 3 
0.464 0.294 0.102 3 
0.465 0.064 0.039 3 
0.462 0.334 0.082 3 
0.465 0.279 0.102 3 
0.465 0.273 0.102 3 
0.465 0.251 0.102 3 
0.465 0.242 0.102 3 
0.465 0.114 0.101 3 
0.464 0.078 0.1 3 
0.295 0.014 0.076 3 
0.478 -0.328 0.043 3 
0.295 -0.004 0.076 3 
0.464 0.232 0.063 3 
0.47 -0.147 0.102 3 
0.464 0.124 0.092 3 
0.465 0.224 0.093 3 
0.465 0.209 0.093 3 
0.465 0.203 0.093 3 
0.465 0.192 0.093 3 
0.465 0.183 0.093 3 
0.464 0.174 0.093 3 
0.459 0.063 0.047 3 
0.464 0.163 0.092 3 
0.465 0.155 0.093 3 
0.465 0.147 0.093 3 
0.465 0.144 0.092 3 
0.464 0.064 0.031 3 
0.465 0.133 0.092 3 
0.465 0.233 0.093 3 
0.473 -0.256 0.084 3 
0.465 0.122 0.092 3 
0.465 0.114 0.092 3 
0.465 0.103 0.092 3 
0.464 0.092 0.092 3 
0.464 0.083 0.092 3 
0.465 0.076 0.092 3 
0.465 0.073 0.092 3 
0.568 -0.016 0.104 3 
0.582 -0.035 0.106 3 
0.467 -0.036 0.093 3 
0.467 -0.047 0.093 3 
0.462 0.334 0.094 3 
0.464 0.177 0.095 3 
0.464 0.163 0.095 3 
0.461 0.048 0.094 3 
0.472 0.082 0.047 3 
0.301 0.019 0.074 3 
0.297 0.014 0.074 3 
0.295 0.003 0.074 3 
0.554 -0.015 0.106 3 
0.59 -0.021 0.111 3 
0.464 0.183 0.084 3 
0.582 -0.028 0.11 3 
0.462 0.338 0.094 3 
0.471 -0.187 0.083 3 
0.465 0.331 0.094 3 
0.465 0.324 0.094 3 
0.465 0.314 0.094 3 
0.464 0.303 0.094 3 
0.464 0.211 0.093 3 
0.464 0.272 0.093 3 
0.464 0.263 0.093 3 
0.465 0.26 0.093 3 
0.465 0.103 0.074 3 
0.464 0.254 0.093 3 
0.465 0.244 0.093 3 
0.46 -0.009 0.066 3 
0.464 0.274 0.054 3 
0.464 0.194 0.063 3 
0.32 -0.011 0.053 3 
0.464 0.182 0.063 3 
0.464 0.174 0.063 3 
0.464 -0.036 0.012 3 
0.465 0.144 0.063 3 
0.466 0.133 0.063 3 
0.465 0.103 0.063 3 
0.464 0.1 0.063 3 
0.464 0.094 0.063 3 
0.463 0.083 0.063 3 
0.463 0.064 0.063 3 
0.462 0.053 0.063 3 
0.464 0.2 0.063 3 
0.315 0.02 0.06 3 
0.535 -0.018 0.064 3 
0.467 -0.031 0.063 3 
0.469 -0.036 0.063 3 
0.468 -0.047 0.063 3 
0.468 -0.055 0.063 3 
0.468 -0.066 0.063 3 
0.464 0.163 0.033 3 
0.467 -0.077 0.063 3 
0.464 -0.041 0.066 3 
0.477 -0.317 0.073 3 
0.48 -0.337 0.073 3 
0.48 -0.348 0.073 3 
0.48 -0.359 0.073 3 
0.56 -0.019 0.072 3 
0.548 -0.025 0.071 3 
0.555 -0.033 0.072 3 
0.464 0.255 0.065 3 
0.464 0.246 0.065 3 
0.316 -0.003 0.062 3 
0.55 -0.022 0.068 3 
0.541 -0.028 0.068 3 
0.464 -0.033 0.066 3 
0.467 -0.085 0.063 3 
0.463 0.322 0.062 3 
0.463 0.312 0.062 3 
0.464 0.303 0.062 3 
0.464 0.294 0.062 3 
0.463 0.283 0.062 3 
0.464 0.252 0.063 3 
0.464 0.243 0.063 3 
0.464 0.223 0.063 3 
0.465 0.221 0.063 3 
0.464 0.214 0.063 3 
0.465 0.209 0.063 3 
0.465 0.203 0.063 3 
0.464 -0.036 0.06 3 
0.479 -0.336 0.064 3 
0.475 -0.357 0.064 3 
0.464 0.154 0.052 3 
0.466 0.342 0.06 3 
0.465 0.158 0.06 3 
0.464 0.105 0.06 3 
0.325 0.033 0.059 3 
0.349 0.036 0.059 3 
0.441 0.047 0.06 3 
0.325 -0.002 0.059 3 
0.336 -0.013 0.059 3 
0.477 -0.317 0.064 3 
0.504 -0.044 0.061 3 
0.474 -0.355 0.061 3 
0.465 -0.036 0.007 3 
0.465 0.281 0.057 3 
0.465 0.177 0.057 3 
0.439 0.071 0.057 3 
0.33 0.038 0.057 3 
0.32 0.033 0.057 3 
0.313 0.03 0.057 3 
0.349 0.007 0.044 3 
0.468 -0.096 0.063 3 
0.468 -0.107 0.063 3 
0.469 -0.115 0.063 3 
0.479 -0.347 0.052 3 
0.469 -0.126 0.063 3 
0.47 -0.135 0.063 3 
0.471 -0.147 0.063 3 
0.471 -0.166 0.063 3 
0.471 -0.175 0.063 3 
0.464 0.214 0.024 3 
0.471 -0.187 0.063 3 
0.472 -0.196 0.064 3 
0.475 -0.286 0.044 3 
0.476 -0.307 0.073 3 
0.472 -0.205 0.064 3 
0.472 -0.216 0.064 3 
0.472 -0.225 0.064 3 
0.473 -0.235 0.064 3 
0.473 -0.247 0.064 3 
0.473 -0.256 0.064 3 
0.473 -0.266 0.064 3 
0.473 -0.275 0.064 3 
0.474 -0.286 0.064 3 
0.475 -0.296 0.064 3 
0.464 0.243 0.054 3 
0.476 -0.306 0.064 3 
0.464 0.229 0.074 3 
0.461 0.333 0.074 3 
0.463 0.322 0.074 3 
0.464 0.313 0.074 3 
0.465 0.304 0.074 3 
0.464 0.297 0.074 3 
0.464 0.294 0.074 3 
0.463 0.283 0.074 3 
0.463 0.271 0.074 3 
0.465 0.262 0.074 3 
0.465 0.253 0.074 3 
0.455 0.044 0.045 3 
0.465 0.244 0.074 3 
0.465 0.232 0.074 3 
0.461 0.336 0.074 3 
0.464 0.223 0.074 3 
0.465 0.218 0.074 3 
0.465 0.212 0.074 3 
0.464 0.205 0.074 3 
0.464 0.203 0.074 3 
0.465 0.2 0.074 3 
0.464 0.194 0.074 3 
0.465 0.183 0.074 3 
0.464 0.177 0.074 3 
0.464 0.174 0.074 3 
0.464 0.163 0.073 3 
0.464 0.154 0.073 3 
0.464 0.303 0.079 3 
0.472 -0.196 0.083 3 
0.472 -0.216 0.083 3 
0.473 -0.226 0.083 3 
0.473 -0.235 0.083 3 
0.473 -0.266 0.084 3 
0.462 0.142 0.014 3 
0.475 -0.283 0.084 3 
0.476 -0.287 0.084 3 
0.476 -0.297 0.084 3 
0.476 -0.317 0.084 3 
0.464 0.313 0.08 3 
0.54 -0.018 0.068 3 
0.465 0.152 0.074 3 
0.465 0.212 0.079 3 
0.479 -0.326 0.082 3 
0.48 -0.337 0.082 3 
0.48 -0.348 0.082 3 
0.479 -0.358 0.082 3 
0.464 0.235 0.076 3 
0.464 0.232 0.076 3 
0.445 0.043 0.075 3 
0.571 -0.02 0.083 3 
0.568 -0.027 0.083 3 
0.568 -0.038 0.083 3 
0.472 -0.196 0.072 3 
0.464 0.238 0.071 3 
0.465 0.158 0.071 3 
0.464 0.097 0.071 3 
0.465 0.089 0.071 3 
0.464 0.056 0.071 3 
0.31 0.021 0.064 3 
0.306 0.014 0.064 3 
0.304 0.012 0.064 3 
0.301 0.004 0.063 3 
0.306 0 0.064 3 
0.561 -0.019 0.075 3 
0.483 -0.032 0.072 3 
0.471 -0.187 0.072 3 
0.465 0.265 0.071 3 
0.472 -0.205 0.072 3 
0.472 -0.216 0.072 3 
0.465 0.124 0.052 3 
0.472 -0.225 0.072 3 
0.473 -0.235 0.072 3 
0.473 -0.247 0.072 3 
0.473 -0.266 0.072 3 
0.473 -0.275 0.072 3 
0.474 -0.286 0.072 3 
0.475 -0.293 0.072 3 
0.475 -0.296 0.072 3 
0.466 -0.033 0.074 3 
0.465 0.144 0.074 3 
0.465 0.133 0.074 3 
0.466 0.122 0.074 3 
0.464 0.094 0.073 3 
0.465 0.084 0.074 3 
0.464 0.073 0.074 3 
0.466 0.07 0.074 3 
0.466 0.062 0.074 3 
0.464 0.051 0.073 3 
0.562 -0.026 0.079 3 
0.563 -0.037 0.079 3 
0.342 0.003 0.013 3 
0.466 -0.036 0.074 3 
0.467 -0.055 0.074 3 
0.468 -0.085 0.074 3 
0.469 -0.096 0.074 3 
0.342 0.003 0.021 3 
0.469 -0.107 0.074 3 
0.468 -0.115 0.074 3 
0.469 -0.126 0.074 3 
0.47 -0.135 0.074 3 
0.47 -0.146 0.074 3 
0.47 -0.155 0.074 3 
0.47 -0.166 0.074 3 
