# .PCD v0.7 - Point Cloud Data file
FIELDS x y z intensity
SIZE 4 4 4 4
TYPE F F F F
COUNT 1 1 1 1
WIDTH 2437
HEIGHT 1
VIEWPOINT 0 0 0 1 0 0 0
POINTS 2437
DATA ascii
0.335 -0.016 0.017 0 
0.3 -0.015 0.021 0 
0.3 0.001 0.021 0 
0.3 -0.005 0.021 0 
0.331 -0.015 0.016 0 
0.334 -0.014 0.017 0 
0.371 -0.237 -0.025 1 
0.371 -0.235 -0.024 1 
0.373 -0.232 -0.025 1 
0.364 -0.136 -0.018 1 
0.364 -0.126 -0.017 1 
0.36 -0.057 -0.015 1 
0.36 -0.025 -0.015 1 
0.361 -0.024 -0.015 1 
0.36 0.01 -0.015 1 
0.359 0.021 -0.015 1 
0.358 0.024 -0.014 1 
0.358 0.033 -0.014 1 
0.356 0.074 -0.014 1 
0.352 0.114 -0.014 1 
0.35 0.124 -0.013 1 
0.352 0.138 -0.014 1 
0.354 0.143 -0.015 1 
0.353 0.154 -0.015 1 
0.351 0.156 -0.015 1 
0.344 0.206 -0.015 1 
0.376 -0.235 -0.024 1 
0.372 -0.145 -0.019 1 
0.369 -0.125 -0.017 1 
0.363 -0.056 -0.014 1 
0.368 -0.028 -0.016 1 
0.364 0.032 -0.015 1 
0.363 0.041 -0.014 1 
0.364 0.043 -0.015 1 
0.364 0.046 -0.015 1 
0.362 0.076 -0.015 1 
0.361 0.083 -0.014 1 
0.361 0.085 -0.014 1 
0.362 0.093 -0.015 1 
0.362 0.104 -0.015 1 
0.36 0.108 -0.015 1 
0.354 0.13 -0.013 1 
0.358 0.152 -0.015 1 
0.352 0.165 -0.014 1 
0.354 0.169 -0.015 1 
0.354 0.183 -0.016 1 
0.35 0.213 -0.016 1 
0.381 -0.251 -0.025 1 
0.38 -0.245 -0.024 1 
0.386 -0.231 -0.025 1 
0.384 -0.227 -0.024 1 
0.374 -0.201 -0.02 1 
0.374 -0.186 -0.019 1 
0.373 -0.175 -0.018 1 
0.374 -0.138 -0.018 1 
0.373 -0.116 -0.017 1 
0.373 -0.096 -0.016 1 
0.373 -0.085 -0.016 1 
0.373 -0.075 -0.016 1 
0.369 -0.065 -0.014 1 
0.373 -0.045 -0.016 1 
0.374 -0.044 -0.016 1 
0.317 0.003 0.003 1 
0.373 0.013 -0.016 1 
0.372 0.024 -0.016 1 
0.372 0.054 -0.016 1 
0.366 0.083 -0.014 1 
0.364 0.118 -0.014 1 
0.364 0.124 -0.015 1 
0.364 0.127 -0.015 1 
0.359 0.194 -0.016 1 
0.354 0.215 -0.016 1 
0.392 -0.256 -0.026 1 
0.377 -0.165 -0.017 1 
0.381 -0.155 -0.018 1 
0.381 -0.106 -0.017 1 
0.384 -0.032 -0.018 1 
0.374 0.096 -0.015 1 
0.371 0.122 -0.015 1 
0.373 0.131 -0.016 1 
0.37 0.143 -0.015 1 
0.37 0.163 -0.016 1 
0.363 0.204 -0.016 1 
0.359 0.22 -0.016 1 
0.363 0.227 -0.017 1 
0.394 -0.247 -0.024 1 
0.391 -0.226 -0.022 1 
0.388 -0.221 -0.021 1 
0.384 -0.128 -0.017 1 
0.384 -0.124 -0.017 1 
0.383 -0.095 -0.016 1 
0.383 -0.075 -0.016 1 
0.384 -0.06 -0.016 1 
0.383 -0.046 -0.015 1 
0.384 -0.042 -0.016 1 
0.384 0.01 -0.016 1 
0.381 0.023 -0.015 1 
0.382 0.043 -0.015 1 
0.382 0.053 -0.016 1 
0.38 0.074 -0.015 1 
0.38 0.083 -0.015 1 
0.382 0.104 -0.016 1 
0.381 0.114 -0.016 1 
0.372 0.183 -0.016 1 
0.372 0.193 -0.016 1 
0.367 0.224 -0.016 1 
0.393 -0.205 -0.02 1 
0.39 -0.155 -0.017 1 
0.393 -0.116 -0.017 1 
0.391 -0.105 -0.017 1 
0.393 -0.085 -0.017 1 
0.389 -0.075 -0.016 1 
0.392 -0.056 -0.016 1 
0.388 -0.045 -0.015 1 
0.393 -0.035 -0.017 1 
0.394 -0.034 -0.017 1 
0.389 0.024 -0.016 1 
0.39 0.034 -0.016 1 
0.382 0.124 -0.015 1 
0.38 0.144 -0.015 1 
0.38 0.154 -0.015 1 
0.382 0.164 -0.016 1 
0.407 -0.278 -0.025 1 
0.403 -0.26 -0.023 1 
0.384 -0.216 -0.02 1 
0.403 -0.226 -0.021 1 
0.399 -0.206 -0.02 1 
0.394 -0.134 -0.016 1 
0.397 -0.108 -0.016 1 
0.394 -0.066 -0.015 1 
0.463 -0.039 -0.037 1 
0.3 -0.015 0.014 1 
0.3 -0.005 0.014 1 
0.394 0.053 -0.015 1 
0.393 0.063 -0.015 1 
0.393 0.074 -0.015 1 
0.394 0.082 -0.016 1 
0.392 0.094 -0.015 1 
0.392 0.103 -0.016 1 
0.385 0.151 -0.014 1 
0.412 -0.287 -0.024 1 
0.409 -0.266 -0.022 1 
0.41 -0.256 -0.022 1 
0.41 -0.245 -0.022 1 
0.403 -0.197 -0.018 1 
0.401 -0.186 -0.017 1 
0.404 -0.135 -0.017 1 
0.4 -0.077 -0.015 1 
0.399 -0.07 -0.015 1 
0.399 -0.066 -0.014 1 
0.402 -0.056 -0.015 1 
0.403 -0.046 -0.016 1 
0.403 -0.037 -0.016 1 
0.303 0 0.014 1 
0.363 0.073 -0.015 1 
0.402 0.023 -0.016 1 
0.394 0.123 -0.014 1 
0.394 0.133 -0.015 1 
0.394 0.144 -0.015 1 
0.394 0.153 -0.015 1 
0.392 0.163 -0.015 1 
0.388 0.183 -0.015 1 
0.383 0.244 -0.016 1 
0.382 0.248 -0.016 1 
0.414 -0.236 -0.02 1 
0.41 -0.227 -0.019 1 
0.411 -0.216 -0.019 1 
0.404 -0.146 -0.015 1 
0.394 -0.247 -0.026 1 
0.411 -0.116 -0.017 1 
0.41 -0.107 -0.016 1 
0.407 -0.072 -0.015 1 
0.406 -0.066 -0.014 1 
0.361 -0.036 -0.015 1 
0.403 0.011 -0.014 1 
0.406 0.043 -0.015 1 
0.404 0.073 -0.014 1 
0.403 0.094 -0.015 1 
0.403 0.097 -0.015 1 
0.384 -0.188 -0.018 1 
0.391 -0.145 -0.017 1 
0.401 0.104 -0.014 1 
0.402 0.114 -0.015 1 
0.402 0.122 -0.015 1 
0.374 -0.105 -0.017 1 
0.401 0.124 -0.014 1 
0.401 0.133 -0.015 1 
0.4 0.137 -0.014 1 
0.35 0.202 -0.015 1 
0.4 0.144 -0.015 1 
0.399 0.15 -0.014 1 
0.399 0.154 -0.015 1 
0.395 0.186 -0.015 1 
0.391 0.192 -0.014 1 
0.392 0.2 -0.014 1 
0.394 0.223 -0.016 1 
0.392 0.244 -0.016 1 
0.424 -0.265 -0.022 1 
0.424 -0.259 -0.021 1 
0.414 -0.196 -0.017 1 
0.412 -0.185 -0.016 1 
0.414 -0.167 -0.016 1 
0.41 -0.155 -0.015 1 
0.409 -0.15 -0.014 1 
0.353 0.194 -0.016 1 
0.414 -0.143 -0.016 1 
0.414 -0.095 -0.015 1 
0.414 -0.093 -0.015 1 
0.413 -0.081 -0.014 1 
0.414 -0.079 -0.015 1 
0.414 -0.048 -0.015 1 
0.412 0.024 -0.014 1 
0.413 0.031 -0.015 1 
0.411 0.053 -0.014 1 
0.411 0.064 -0.014 1 
0.412 0.071 -0.015 1 
0.411 0.073 -0.014 1 
0.41 0.093 -0.014 1 
0.409 0.117 -0.014 1 
0.407 0.152 -0.015 1 
0.403 0.164 -0.014 1 
0.404 0.17 -0.015 1 
0.403 0.174 -0.014 1 
0.403 0.183 -0.015 1 
0.401 0.217 -0.015 1 
0.402 0.233 -0.016 1 
0.398 0.242 -0.015 1 
0.395 0.263 -0.016 1 
0.423 -0.239 -0.018 1 
0.42 -0.226 -0.017 1 
0.419 -0.165 -0.015 1 
0.421 -0.135 -0.015 1 
0.42 -0.111 -0.015 1 
0.421 -0.095 -0.015 1 
0.422 -0.086 -0.015 1 
0.421 -0.081 -0.014 1 
0.423 -0.075 -0.015 1 
0.422 -0.065 -0.015 1 
0.419 -0.055 -0.014 1 
0.421 -0.049 -0.014 1 
0.418 0.023 -0.014 1 
0.413 0.133 -0.014 1 
0.41 0.143 -0.013 1 
0.413 0.154 -0.014 1 
0.41 0.164 -0.014 1 
0.399 0.192 -0.012 1 
0.359 0.014 -0.014 1 
0.402 -0.238 -0.024 1 
0.407 0.218 -0.015 1 
0.411 0.234 -0.016 1 
0.401 0.253 -0.014 1 
0.399 0.256 -0.014 1 
0.403 0.269 -0.016 1 
0.424 -0.294 -0.018 1 
0.432 -0.276 -0.019 1 
0.43 -0.245 -0.018 1 
0.388 0.174 -0.014 1 
0.418 -0.226 -0.014 1 
0.424 -0.224 -0.015 1 
0.426 -0.203 -0.016 1 
0.423 -0.195 -0.015 1 
0.426 -0.185 -0.015 1 
0.425 -0.177 -0.015 1 
0.423 -0.156 -0.014 1 
0.424 -0.146 -0.014 1 
0.424 -0.144 -0.014 1 
0.424 -0.115 -0.013 1 
0.369 0.213 -0.016 1 
0.424 -0.108 -0.013 1 
0.43 -0.077 -0.015 1 
0.43 -0.07 -0.015 1 
0.431 -0.044 -0.015 1 
0.322 0.003 0.014 1 
0.382 0.214 -0.016 1 
0.424 0.033 -0.013 1 
0.42 -0.176 -0.016 1 
0.423 0.044 -0.013 1 
0.424 0.053 -0.013 1 
0.424 0.063 -0.013 1 
0.423 0.074 -0.013 1 
0.423 0.093 -0.013 1 
0.421 0.104 -0.013 1 
0.422 0.123 -0.014 1 
0.411 0.194 -0.013 1 
0.399 0.063 -0.015 1 
0.414 0.214 -0.014 1 
0.415 0.233 -0.015 1 
0.414 0.235 -0.015 1 
0.415 0.243 -0.015 1 
0.411 0.253 -0.015 1 
0.414 0.264 -0.016 1 
0.411 0.272 -0.016 1 
0.421 -0.296 -0.015 1 
0.434 -0.287 -0.017 1 
0.433 -0.226 -0.015 1 
0.432 -0.207 -0.015 1 
0.382 -0.065 -0.015 1 
0.43 -0.195 -0.014 1 
0.431 -0.186 -0.014 1 
0.431 -0.176 -0.014 1 
0.429 -0.157 -0.013 1 
0.431 -0.145 -0.013 1 
0.433 -0.137 -0.014 1 
0.432 -0.126 -0.013 1 
0.431 -0.116 -0.013 1 
0.431 -0.106 -0.013 1 
0.431 -0.096 -0.013 1 
0.432 -0.085 -0.013 1 
0.434 -0.078 -0.013 1 
0.434 -0.066 -0.013 1 
0.433 -0.049 -0.013 1 
0.435 -0.044 -0.013 1 
0.482 -0.047 -0.026 1 
0.48 -0.041 -0.025 1 
0.431 0.012 -0.013 1 
0.43 0.043 -0.012 1 
0.43 0.052 -0.013 1 
0.431 0.064 -0.013 1 
0.43 0.074 -0.013 1 
0.429 0.083 -0.013 1 
0.414 -0.057 -0.015 1 
0.427 0.094 -0.012 1 
0.422 0.152 -0.012 1 
0.423 0.162 -0.012 1 
0.421 0.184 -0.013 1 
0.42 0.193 -0.013 1 
0.416 0.278 -0.015 1 
0.414 0.284 -0.014 1 
0.438 -0.276 -0.015 1 
0.434 -0.257 -0.014 1 
0.439 -0.24 -0.015 1 
0.437 -0.185 -0.013 1 
0.439 -0.075 -0.012 1 
0.479 -0.046 -0.022 1 
0.333 -0.005 0.014 1 
0.333 -0.001 0.014 1 
0.432 0.123 -0.012 1 
0.428 0.143 -0.011 1 
0.424 0.204 -0.011 1 
0.424 0.214 -0.012 1 
0.422 0.223 -0.012 1 
0.421 0.233 -0.012 1 
0.423 0.243 -0.012 1 
0.423 0.254 -0.013 1 
0.422 0.272 -0.013 1 
0.423 0.282 -0.014 1 
0.423 0.288 -0.014 1 
0.425 0.293 -0.015 1 
0.424 0.295 -0.015 1 
0.444 -0.297 -0.015 1 
0.442 -0.286 -0.014 1 
0.44 -0.246 -0.012 1 
0.409 0.103 -0.014 1 
0.443 -0.235 -0.013 1 
0.442 -0.225 -0.012 1 
0.443 -0.216 -0.013 1 
0.444 -0.203 -0.013 1 
0.443 -0.175 -0.012 1 
0.443 -0.165 -0.012 1 
0.44 -0.155 -0.011 1 
0.443 -0.149 -0.011 1 
0.443 -0.126 -0.011 1 
0.443 -0.116 -0.011 1 
0.444 -0.106 -0.011 1 
0.443 -0.096 -0.011 1 
0.423 0.083 -0.013 1 
0.444 -0.088 -0.011 1 
0.443 -0.066 -0.011 1 
0.443 -0.056 -0.011 1 
0.407 0.024 -0.015 1 
0.342 0.002 0.013 1 
0.414 0.005 -0.004 1 
0.443 0.032 -0.011 1 
0.442 0.042 -0.011 1 
0.442 0.052 -0.011 1 
0.442 0.062 -0.011 1 
0.443 0.072 -0.011 1 
0.443 0.082 -0.011 1 
0.439 0.104 -0.011 1 
0.437 0.113 -0.01 1 
0.434 0.149 -0.01 1 
0.433 0.162 -0.01 1 
0.431 0.173 -0.01 1 
0.431 0.183 -0.01 1 
0.43 0.193 -0.01 1 
0.43 0.203 -0.01 1 
0.429 0.224 -0.011 1 
0.451 -0.328 -0.015 1 
0.454 -0.321 -0.015 1 
0.456 -0.317 -0.016 1 
0.442 -0.265 -0.011 1 
0.444 -0.261 -0.011 1 
0.452 -0.228 -0.012 1 
0.452 -0.217 -0.012 1 
0.451 -0.205 -0.012 1 
0.45 -0.196 -0.011 1 
0.45 -0.185 -0.011 1 
0.451 -0.156 -0.011 1 
0.453 -0.147 -0.011 1 
0.452 -0.135 -0.011 1 
0.45 -0.127 -0.01 1 
0.45 -0.116 -0.01 1 
0.451 -0.106 -0.01 1 
0.452 -0.096 -0.01 1 
0.443 -0.205 -0.012 1 
0.454 -0.086 -0.011 1 
0.452 -0.075 -0.01 1 
0.45 -0.065 -0.01 1 
0.451 -0.055 -0.01 1 
0.476 -0.04 -0.016 1 
0.351 -0.006 0.013 1 
0.444 0.121 -0.009 1 
0.444 0.134 -0.01 1 
0.44 0.163 -0.009 1 
0.432 0.234 -0.009 1 
0.434 0.25 -0.01 1 
0.434 0.261 -0.011 1 
0.432 0.274 -0.011 1 
0.433 0.284 -0.011 1 
0.431 0.303 -0.012 1 
0.384 -0.213 -0.02 1 
0.453 -0.333 -0.013 1 
0.454 -0.295 -0.012 1 
0.45 -0.285 -0.011 1 
0.454 -0.276 -0.011 1 
0.424 0.134 -0.012 1 
0.453 -0.266 -0.011 1 
0.454 -0.255 -0.011 1 
0.453 -0.246 -0.01 1 
0.454 -0.238 -0.01 1 
0.453 0.034 -0.008 1 
0.443 0.143 -0.01 1 
0.453 0.044 -0.008 1 
0.453 0.054 -0.008 1 
0.452 0.064 -0.008 1 
0.453 0.072 -0.008 1 
0.452 0.093 -0.008 1 
0.451 0.103 -0.008 1 
0.451 0.134 -0.009 1 
0.444 0.171 -0.008 1 
0.442 0.204 -0.008 1 
0.437 0.242 -0.008 1 
0.441 0.274 -0.01 1 
0.44 0.282 -0.01 1 
0.44 0.294 -0.01 1 
0.434 0.306 -0.01 1 
0.383 0.183 -0.015 1 
0.463 -0.317 -0.011 1 
0.463 -0.295 -0.011 1 
0.461 -0.156 -0.008 1 
0.461 -0.115 -0.007 1 
0.462 -0.075 -0.007 1 
0.382 -0.235 -0.026 1 
0.462 -0.057 -0.007 1 
0.454 0.154 -0.007 1 
0.452 0.162 -0.007 1 
0.388 0.232 -0.017 1 
0.45 0.183 -0.007 1 
0.45 0.194 -0.007 1 
0.443 0.304 -0.009 1 
0.408 -0.038 -0.015 1 
0.444 0.311 -0.009 1 
0.464 -0.261 -0.007 1 
0.464 -0.217 -0.007 1 
0.463 -0.197 -0.006 1 
0.463 -0.177 -0.006 1 
0.465 -0.167 -0.006 1 
0.465 -0.147 -0.006 1 
0.465 -0.139 -0.006 1 
0.464 -0.136 -0.006 1 
0.404 -0.266 -0.023 1 
0.465 -0.117 -0.006 1 
0.465 -0.106 -0.006 1 
0.465 -0.087 -0.005 1 
0.465 -0.065 -0.005 1 
0.467 -0.055 -0.006 1 
0.467 -0.047 -0.006 1 
0.463 0.003 -0.005 1 
0.463 0.024 -0.005 1 
0.461 0.042 -0.005 1 
0.462 0.064 -0.005 1 
0.461 0.074 -0.005 1 
0.46 0.093 -0.005 1 
0.419 -0.146 -0.015 1 
0.459 0.114 -0.005 1 
0.459 0.124 -0.005 1 
0.473 -0.045 -0.018 1 
0.455 0.172 -0.005 1 
0.455 0.183 -0.005 1 
0.455 0.202 -0.006 1 
0.453 0.204 -0.005 1 
0.452 0.212 -0.005 1 
0.453 0.224 -0.006 1 
0.452 0.234 -0.006 1 
0.45 0.244 -0.006 1 
0.449 0.252 -0.006 1 
0.449 0.264 -0.006 1 
0.464 -0.342 -0.007 1 
0.454 -0.05 -0.011 1 
0.468 -0.306 -0.006 1 
0.459 0.133 -0.005 1 
0.469 -0.287 -0.006 1 
0.469 -0.275 -0.006 1 
0.469 -0.256 -0.005 1 
0.47 -0.245 -0.005 1 
0.47 -0.236 -0.005 1 
0.468 -0.226 -0.005 1 
0.468 -0.217 -0.005 1 
0.468 -0.211 -0.005 1 
0.464 -0.028 -0.003 1 
0.464 0.014 -0.003 1 
0.464 0.024 -0.003 1 
0.463 0.032 -0.002 1 
0.454 0.256 -0.004 1 
0.456 0.261 -0.005 1 
0.455 0.272 -0.005 1 
0.454 0.284 -0.005 1 
0.453 0.292 -0.005 1 
0.453 0.301 -0.005 1 
0.453 0.314 -0.006 1 
0.452 0.323 -0.006 1 
0.455 0.33 -0.007 1 
0.473 -0.335 -0.005 1 
0.43 0.134 -0.011 1 
0.439 0.263 -0.009 1 
0.474 -0.329 -0.005 1 
0.475 -0.326 -0.005 1 
0.364 -0.083 -0.015 1 
0.473 -0.317 -0.005 1 
0.464 0.064 0 1 
0.474 -0.325 -0.002 1 
0.474 -0.315 -0.002 1 
0.465 0.144 0.001 1 
0.465 0.146 0.001 1 
0.463 0.182 0 1 
0.464 0.194 0 1 
0.462 0.204 0 1 
0.351 0 0.013 1 
0.475 -0.293 0 1 
0.473 -0.215 0.002 1 
0.471 -0.205 0.002 1 
0.469 -0.197 0.003 1 
0.47 -0.186 0.003 1 
0.47 -0.155 0.003 1 
0.47 -0.147 0.003 1 
0.374 -0.206 -0.02 1 
0.423 0.114 -0.014 1 
0.47 -0.135 0.003 1 
0.467 -0.096 0.004 1 
0.467 -0.085 0.004 1 
0.467 -0.077 0.004 1 
0.408 -0.126 -0.016 1 
0.409 0.131 -0.015 1 
0.465 0.083 0.004 1 
0.465 0.091 0.004 1 
0.464 0.094 0.004 1 
0.464 0.113 0.004 1 
0.464 0.124 0.004 1 
0.463 0.151 0.003 1 
0.464 0.169 0.003 1 
0.465 0.183 0.003 1 
0.465 0.192 0.002 1 
0.465 0.203 0.002 1 
0.465 0.209 0.002 1 
0.463 0.222 0.002 1 
0.463 0.234 0.002 1 
0.463 0.252 0.002 1 
0.474 -0.349 0.002 1 
0.355 0.104 -0.014 1 
0.477 -0.335 0.002 1 
0.477 -0.325 0.002 1 
0.475 -0.309 0.003 1 
0.474 -0.302 0.003 1 
0.475 -0.296 0.003 1 
0.473 -0.275 0.004 1 
0.473 -0.266 0.004 1 
0.475 -0.243 0.004 1 
0.473 -0.23 0.004 1 
0.403 -0.155 -0.017 1 
0.463 0.273 0.004 1 
0.463 0.292 0.004 1 
0.463 0.302 0.003 1 
0.463 0.311 0.003 1 
0.463 0.321 0.003 1 
0.394 0.01 -0.015 1 
0.464 0.333 0.002 1 
0.466 0.342 0.002 1 
0.461 0.053 -0.005 1 
0.434 0.288 -0.012 1 
0.461 0.032 -0.005 1 
0.463 0.014 -0.005 1 
0.464 -0.007 -0.005 1 
0.464 -0.028 -0.005 1 
0.464 -0.052 -0.008 1 
0.462 -0.065 -0.007 1 
0.411 0.201 -0.013 1 
0.381 -0.145 -0.018 1 
0.462 -0.086 -0.007 1 
0.464 -0.108 -0.005 1 
0.478 -0.347 0.002 1 
0.394 0.043 -0.015 1 
0.464 -0.127 -0.005 1 
0.464 -0.149 -0.006 1 
0.465 0.102 0.001 1 
0.464 -0.169 -0.006 1 
0.464 -0.186 -0.006 1 
0.463 -0.225 -0.009 1 
0.463 -0.245 -0.007 1 
0.439 0.252 -0.009 1 
0.464 -0.289 -0.011 1 
0.314 0.003 0.006 1 
0.462 -0.326 -0.012 1 
0.442 -0.277 -0.011 1 
0.408 0.114 -0.014 1 
0.373 0.113 -0.015 1 
0.374 0.239 -0.017 1 
0.433 -0.216 -0.015 1 
0.39 0.166 -0.015 1 
0.431 0.103 -0.011 1 
0.437 -0.266 -0.015 1 
0.466 -0.036 -0.006 1 
0.444 -0.323 -0.019 1 
0.402 -0.086 -0.016 1 
0.45 0.144 -0.009 1 
0.417 -0.162 -0.015 1 
0.44 -0.246 -0.015 1 
0.471 -0.127 0.003 1 
0.459 0.143 -0.005 1 
0.393 0.258 -0.015 1 
0.364 0.064 -0.015 1 
0.474 -0.248 0.004 1 
0.363 0.114 -0.014 1 
0.452 0.124 -0.009 1 
0.438 0.012 -0.012 1 
0.47 -0.295 -0.006 1 
0.464 0.244 0.002 1 
0.374 0.066 -0.015 1 
0.362 -0.066 -0.016 1 
0.443 0.154 -0.01 1 
0.435 -0.233 -0.016 1 
0.353 0.163 -0.014 1 
0.389 -0.195 -0.018 1 
0.405 0.062 -0.015 1 
0.364 0.143 -0.015 1 
0.463 0.338 0 1 
0.455 0.282 -0.005 1 
0.421 -0.207 -0.017 1 
0.454 -0.308 -0.015 1 
0.443 0.213 -0.009 1 
0.361 0.133 -0.014 1 
0.406 0.054 -0.015 1 
0.369 -0.223 -0.023 1 
0.444 -0.053 -0.011 1 
0.464 0.08 0.004 1 
0.371 -0.067 -0.015 1 
0.422 -0.277 -0.022 1 
0.4 0.013 -0.015 1 
0.43 0.112 -0.011 1 
0.475 -0.255 0.001 1 
0.418 -0.039 -0.016 1 
0.378 0.092 -0.015 1 
0.408 0.277 -0.015 1 
0.457 0.153 -0.005 1 
0.395 -0.267 -0.025 1 
0.393 0.203 -0.015 1 
0.4 0.214 -0.015 1 
0.475 -0.246 0.004 1 
0.389 0.124 -0.015 1 
0.465 -0.025 -0.005 1 
0.454 0.013 -0.008 1 
0.399 0.163 -0.015 1 
0.464 0.043 -0.003 1 
0.374 0.148 -0.015 1 
0.38 0.234 -0.017 1 
0.396 -0.252 -0.025 1 
0.395 -0.259 -0.025 1 
0.464 0.003 -0.003 1 
0.393 -0.239 -0.023 1 
0.474 -0.236 0.004 1 
0.402 0.109 -0.014 1 
0.372 0.084 -0.015 1 
0.414 0.224 -0.014 1 
0.426 -0.17 -0.015 1 
0.389 -0.096 -0.016 1 
0.428 -0.238 -0.017 1 
0.373 0.094 -0.015 1 
0.432 -0.267 -0.019 1 
0.421 0.174 -0.012 1 
0.413 -0.145 -0.015 1 
0.404 -0.165 -0.018 1 
0.424 -0.251 -0.019 1 
0.41 0.124 -0.015 1 
0.402 0.18 -0.014 1 
0.382 0.203 -0.016 1 
0.382 0.193 -0.015 1 
0.424 -0.045 -0.015 1 
0.369 -0.05 -0.014 1 
0.37 0.063 -0.015 1 
0.363 0.164 -0.016 1 
0.414 0.174 -0.013 1 
0.394 0.254 -0.015 1 
0.464 -0.015 -0.005 1 
0.42 -0.099 -0.014 1 
0.441 0.094 -0.011 1 
0.364 -0.085 -0.015 1 
0.465 0.111 0.001 1 
0.424 0.009 -0.013 1 
0.391 0.113 -0.015 1 
0.464 0.143 0.003 1 
0.364 -0.107 -0.017 1 
0.463 0.104 0.004 1 
0.466 -0.039 -0.035 1 
0.387 -0.235 -0.025 1 
0.451 0.113 -0.008 1 
0.36 0.174 -0.015 1 
0.336 -0.013 0.016 1 
0.458 -0.265 -0.009 1 
0.401 0.053 -0.015 1 
0.46 0.082 -0.005 1 
0.384 0.033 -0.016 1 
0.414 0.179 -0.013 1 
0.384 -0.093 -0.016 1 
0.4 0.044 -0.015 1 
0.412 0.044 -0.014 1 
0.398 0.073 -0.015 1 
0.421 0.263 -0.013 1 
0.421 0.144 -0.011 1 
0.428 -0.295 -0.016 1 
0.404 -0.215 -0.019 1 
0.439 -0.286 -0.016 1 
0.403 -0.176 -0.018 1 
0.412 0.075 -0.015 1 
0.444 0.023 -0.011 1 
0.451 0.272 -0.007 1 
0.393 -0.175 -0.019 1 
0.414 -0.177 -0.016 1 
0.399 -0.064 -0.014 1 
0.371 0.033 -0.015 1 
0.411 0.013 -0.014 1 
0.404 0.075 -0.015 1 
0.434 0.024 -0.013 1 
0.464 -0.007 -0.003 1 
0.361 -0.095 -0.016 1 
0.384 -0.181 -0.018 1 
0.462 0.263 0.004 1 
0.465 -0.155 -0.006 1 
0.381 -0.226 -0.025 1 
0.402 -0.095 -0.016 1 
0.438 -0.136 -0.012 1 
0.403 -0.126 -0.016 1 
0.374 0.234 -0.017 1 
0.474 -0.285 0.004 1 
0.383 0.133 -0.015 1 
0.367 -0.055 -0.014 1 
0.463 0.162 0.003 1 
0.364 -0.051 -0.014 1 
0.474 -0.336 -0.002 1 
0.45 -0.177 -0.011 1 
0.424 -0.189 -0.015 1 
0.414 -0.209 -0.017 1 
0.394 0.125 -0.014 1 
0.431 0.033 -0.013 1 
0.359 0.184 -0.015 1 
0.375 -0.218 -0.025 1 
0.442 -0.305 -0.017 1 
0.433 -0.056 -0.013 1 
0.382 0.224 -0.017 1 
0.453 0.083 -0.009 1 
0.434 -0.255 -0.016 1 
0.374 -0.157 -0.018 1 
0.381 -0.195 -0.02 1 
0.393 0.213 -0.015 1 
0.421 -0.126 -0.015 1 
0.374 0.043 -0.015 1 
0.372 0.174 -0.015 1 
0.357 0.053 -0.014 1 
0.394 -0.255 -0.024 1 
0.371 0.089 -0.014 1 
0.358 0.055 -0.014 1 
0.465 0.172 0.003 1 
0.403 0.083 -0.014 1 
0.441 0.193 -0.008 1 
0.41 0.084 -0.014 1 
0.468 -0.265 -0.005 1 
0.402 0.252 -0.015 1 
0.463 0.283 0.004 1 
0.362 -0.045 -0.015 1 
0.362 0.138 -0.014 1 
0.474 -0.257 0.004 1 
0.393 -0.191 -0.017 1 
0.412 0.033 -0.014 1 
0.362 -0.115 -0.016 1 
0.4 0.204 -0.014 1 
0.38 0.064 -0.015 1 
0.464 -0.345 -0.004 1 
0.42 -0.116 -0.015 1 
0.464 -0.103 -0.005 1 
0.431 0.209 -0.011 1 
0.444 0.222 -0.009 1 
0.419 0.287 -0.016 1 
0.464 -0.023 -0.003 1 
0.391 -0.165 -0.018 1 
0.413 -0.276 -0.022 1 
0.476 -0.317 0.003 1 
0.464 0.072 0.004 1 
0.414 0.227 -0.014 1 
0.431 -0.168 -0.014 1 
0.454 0.023 -0.008 1 
0.463 0.053 -0.003 1 
0.463 -0.208 -0.006 1 
0.4 0.034 -0.015 1 
0.45 -0.166 -0.011 1 
0.454 0.174 -0.005 1 
0.399 -0.034 -0.016 1 
0.384 0.171 -0.015 1 
0.455 0.164 -0.005 1 
0.464 -0.277 -0.008 1 
0.465 -0.125 -0.006 1 
0.404 -0.115 -0.017 1 
0.441 0.234 -0.009 1 
0.465 -0.095 -0.005 1 
0.415 -0.061 -0.015 1 
0.456 0.192 -0.006 1 
0.464 0.214 0.002 1 
0.432 0.237 -0.009 1 
0.411 0.182 -0.015 1 
0.465 -0.017 -0.005 1 
0.388 0.194 -0.015 1 
0.442 0.183 -0.008 1 
0.465 -0.076 -0.005 1 
0.464 -0.243 -0.007 1 
0.404 -0.247 -0.022 1 
0.381 -0.135 -0.018 1 
0.472 -0.04 -0.029 1 
0.462 -0.306 -0.011 1 
0.371 0.203 -0.016 1 
0.459 0.103 -0.005 1 
0.394 -0.136 -0.016 1 
0.361 0.213 -0.016 1 
0.372 -0.165 -0.018 1 
0.473 -0.037 -0.015 1 
0.403 0.092 -0.014 1 
0.465 0.234 0.143 3 
0.467 0.063 0.144 3 
0.464 0.222 0.143 3 
0.465 0.219 0.143 3 
0.464 0.183 0.033 3 
0.465 0.214 0.143 3 
0.466 0.203 0.143 3 
0.465 0.193 0.142 3 
0.466 0.182 0.142 3 
0.466 0.173 0.142 3 
0.471 -0.156 0.124 3 
0.471 -0.125 0.143 3 
0.466 0.162 0.142 3 
0.466 0.153 0.142 3 
0.466 0.142 0.142 3 
0.474 -0.255 0.115 3 
0.469 -0.047 0.142 3 
0.469 -0.055 0.142 3 
0.469 -0.066 0.142 3 
0.466 0.022 0.103 3 
0.47 -0.077 0.142 3 
0.47 -0.086 0.142 3 
0.47 -0.105 0.143 3 
0.47 -0.116 0.143 3 
0.474 -0.225 0.149 3 
0.466 0.123 0.133 3 
0.467 0.052 0.144 3 
0.466 0.044 0.144 3 
0.466 0.033 0.144 3 
0.472 -0.147 0.074 3 
0.466 0.022 0.144 3 
0.467 0.003 0.144 3 
0.468 -0.006 0.144 3 
0.468 -0.015 0.144 3 
0.469 -0.025 0.144 3 
0.474 -0.216 0.148 3 
0.465 0.243 0.144 3 
0.461 0.241 0.013 3 
0.479 -0.285 0.152 3 
0.479 -0.295 0.152 3 
0.48 -0.306 0.153 3 
0.481 -0.317 0.153 3 
0.482 -0.325 0.154 3 
0.481 -0.338 0.154 3 
0.466 0.266 0.144 3 
0.465 0.152 0.063 3 
0.466 0.262 0.144 3 
0.466 0.253 0.144 3 
0.464 0.224 0.134 3 
0.477 -0.255 0.144 3 
0.464 0.236 0.137 3 
0.476 -0.276 0.142 3 
0.478 -0.287 0.143 3 
0.471 -0.207 0.013 3 
0.479 -0.295 0.143 3 
0.464 0.197 0.093 3 
0.48 -0.306 0.144 3 
0.481 -0.317 0.144 3 
0.463 0.334 0.137 3 
0.464 0.292 0.136 3 
0.464 0.264 0.135 3 
0.476 -0.247 0.144 3 
0.464 0.21 0.134 3 
0.465 0.208 0.134 3 
0.464 0.204 0.134 3 
0.465 0.202 0.134 3 
0.465 0.192 0.134 3 
0.465 0.184 0.134 3 
0.465 0.172 0.134 3 
0.465 0.164 0.134 3 
0.465 0.153 0.133 3 
0.466 0.134 0.133 3 
0.476 -0.217 0.163 3 
0.465 0.303 0.142 3 
0.472 -0.157 0.144 3 
0.472 -0.165 0.144 3 
0.472 -0.177 0.144 3 
0.472 -0.185 0.144 3 
0.475 -0.204 0.145 3 
0.483 -0.347 0.152 3 
0.48 -0.358 0.152 3 
0.479 -0.338 0.112 3 
0.466 0.344 0.144 3 
0.466 0.334 0.144 3 
0.466 0.324 0.143 3 
0.465 0.312 0.143 3 
0.472 -0.145 0.144 3 
0.465 0.283 0.142 3 
0.467 -0.015 0.084 3 
0.464 0.233 0.14 3 
0.474 -0.198 0.142 3 
0.474 -0.207 0.142 3 
0.474 -0.216 0.143 3 
0.475 -0.219 0.143 3 
0.474 -0.225 0.143 3 
0.465 0.141 0.114 3 
0.475 -0.228 0.143 3 
0.476 -0.238 0.144 3 
0.468 0.082 0.153 3 
0.467 0.174 0.154 3 
0.467 0.163 0.153 3 
0.467 0.154 0.153 3 
0.467 0.143 0.153 3 
0.465 0.124 0.063 3 
0.467 0.134 0.153 3 
0.466 0.123 0.152 3 
0.466 0.033 0.063 3 
0.467 0.112 0.153 3 
0.467 0.104 0.153 3 
0.468 0.093 0.153 3 
0.477 -0.267 0.142 3 
0.466 0.183 0.154 3 
0.468 0.074 0.153 3 
0.467 0.063 0.152 3 
0.467 0.052 0.152 3 
0.467 0.044 0.152 3 
0.467 0.033 0.152 3 
0.467 0.022 0.152 3 
0.468 0.014 0.153 3 
0.467 -0.006 0.152 3 
0.468 -0.015 0.152 3 
0.468 -0.025 0.152 3 
0.47 -0.056 0.153 3 
0.479 -0.276 0.163 3 
0.465 0.246 0.113 3 
0.474 -0.257 0.044 3 
0.474 -0.285 0.012 3 
0.476 -0.227 0.164 3 
0.477 -0.236 0.164 3 
0.477 -0.246 0.164 3 
0.484 -0.346 0.171 3 
0.464 0.228 0.157 3 
0.464 0.219 0.157 3 
0.474 -0.196 0.159 3 
0.477 -0.258 0.162 3 
0.479 -0.266 0.163 3 
0.46 0.332 0.062 3 
0.464 0.298 0.136 3 
0.479 -0.286 0.164 3 
0.479 -0.295 0.164 3 
0.465 0.232 0.154 3 
0.464 0.225 0.154 3 
0.464 0.222 0.154 3 
0.465 0.22 0.154 3 
0.471 -0.135 0.083 3 
0.465 0.214 0.154 3 
0.466 0.203 0.154 3 
0.466 0.194 0.154 3 
0.477 -0.236 0.153 3 
0.464 0.279 0.127 3 
0.473 -0.166 0.153 3 
0.475 -0.271 0.104 3 
0.473 -0.175 0.153 3 
0.473 -0.186 0.153 3 
0.474 -0.196 0.154 3 
0.475 -0.211 0.154 3 
0.467 0.346 0.153 3 
0.467 0.342 0.153 3 
0.466 0.334 0.152 3 
0.467 0.322 0.152 3 
0.475 -0.226 0.152 3 
0.473 -0.157 0.153 3 
0.473 -0.265 0.013 3 
0.476 -0.257 0.153 3 
0.477 -0.267 0.153 3 
0.477 -0.277 0.154 3 
0.466 0.134 0.144 3 
0.466 0.123 0.144 3 
0.466 0.112 0.144 3 
0.475 -0.246 0.112 3 
0.467 0.104 0.144 3 
0.466 0.093 0.144 3 
0.466 0.084 0.144 3 
0.483 -0.348 0.164 3 
0.47 -0.067 0.153 3 
0.47 -0.075 0.153 3 
0.47 -0.086 0.153 3 
0.471 -0.097 0.154 3 
0.473 -0.247 0.092 3 
0.471 -0.106 0.154 3 
0.471 -0.117 0.154 3 
0.471 -0.125 0.154 3 
0.48 -0.306 0.162 3 
0.481 -0.317 0.162 3 
0.482 -0.325 0.163 3 
0.482 -0.336 0.164 3 
0.467 0.074 0.144 3 
0.466 0.311 0.154 3 
0.466 0.304 0.154 3 
0.466 0.294 0.154 3 
0.466 0.282 0.153 3 
0.466 0.263 0.153 3 
0.466 0.254 0.153 3 
0.466 0.244 0.152 3 
0.468 -0.137 0.014 3 
0.472 -0.137 0.152 3 
0.46 0.335 0.062 3 
0.472 -0.145 0.152 3 
0.465 0.299 0.122 3 
0.47 -0.105 0.123 3 
0.47 -0.127 0.124 3 
0.47 -0.136 0.124 3 
0.47 -0.147 0.124 3 
0.471 -0.167 0.124 3 
0.471 -0.176 0.124 3 
0.464 0.341 0.123 3 
0.466 0.333 0.123 3 
0.466 0.323 0.123 3 
0.466 0.313 0.123 3 
0.464 0.301 0.122 3 
0.466 0.153 0.084 3 
0.475 -0.287 0.093 3 
0.465 0.292 0.122 3 
0.464 0.288 0.122 3 
0.464 0.269 0.121 3 
0.465 0.264 0.121 3 
0.473 -0.185 0.122 3 
0.474 -0.195 0.122 3 
0.473 -0.206 0.122 3 
0.474 -0.215 0.123 3 
0.474 -0.227 0.123 3 
0.475 -0.231 0.123 3 
0.475 -0.237 0.123 3 
0.467 0.003 0.122 3 
0.465 0.133 0.122 3 
0.465 0.114 0.122 3 
0.465 0.103 0.122 3 
0.465 0.092 0.122 3 
0.465 0.073 0.122 3 
0.465 0.062 0.122 3 
0.465 0.054 0.122 3 
0.466 0.044 0.122 3 
0.466 0.033 0.122 3 
0.466 0.022 0.122 3 
0.469 -0.157 0.014 3 
0.466 0.014 0.122 3 
0.476 -0.247 0.124 3 
0.466 -0.076 0.012 3 
0.467 -0.006 0.122 3 
0.467 -0.015 0.122 3 
0.467 -0.025 0.122 3 
0.468 -0.036 0.122 3 
0.468 -0.047 0.123 3 
0.468 -0.055 0.123 3 
0.468 -0.066 0.123 3 
0.47 -0.077 0.123 3 
0.47 -0.086 0.123 3 
0.47 -0.097 0.123 3 
0.467 -0.036 0.114 3 
0.465 0.062 0.114 3 
0.464 0.244 0.082 3 
0.465 0.054 0.114 3 
0.465 0.043 0.114 3 
0.465 0.033 0.114 3 
0.466 0.022 0.114 3 
0.466 0.014 0.114 3 
0.467 0.003 0.114 3 
0.463 0.273 0.054 3 
0.466 -0.006 0.114 3 
0.467 -0.015 0.114 3 
0.467 -0.025 0.114 3 
0.465 0.07 0.114 3 
0.468 -0.047 0.114 3 
0.468 -0.055 0.114 3 
0.464 0.341 0.114 3 
0.463 0.333 0.114 3 
0.465 0.331 0.114 3 
0.465 0.321 0.114 3 
0.466 0.312 0.114 3 
0.464 0.282 0.113 3 
0.465 0.273 0.113 3 
0.464 0.251 0.113 3 
0.475 0.359 0.199 3 
0.465 0.164 0.114 3 
0.476 -0.256 0.124 3 
0.476 -0.266 0.124 3 
0.464 0.075 0.116 3 
0.477 -0.286 0.122 3 
0.479 -0.307 0.123 3 
0.48 -0.325 0.123 3 
0.481 -0.337 0.124 3 
0.481 -0.347 0.124 3 
0.481 -0.355 0.124 3 
0.465 0.178 0.114 3 
0.465 0.172 0.114 3 
0.48 -0.327 0.064 3 
0.466 0.153 0.123 3 
0.466 0.153 0.114 3 
0.466 0.204 0.112 3 
0.466 0.134 0.114 3 
0.465 0.122 0.114 3 
0.464 0.294 0.082 3 
0.465 0.114 0.114 3 
0.466 0.103 0.114 3 
0.465 0.092 0.114 3 
0.465 0.084 0.114 3 
0.477 -0.317 0.043 3 
0.464 0.073 0.114 3 
0.465 0.094 0.033 3 
0.483 -0.336 0.142 3 
0.483 -0.347 0.143 3 
0.462 0.339 0.134 3 
0.465 0.322 0.134 3 
0.465 0.342 0.117 3 
0.464 0.308 0.134 3 
0.464 0.304 0.133 3 
0.464 0.292 0.133 3 
0.465 0.289 0.133 3 
0.465 0.283 0.133 3 
0.465 0.274 0.133 3 
0.464 0.263 0.132 3 
0.484 -0.327 0.142 3 
0.464 0.254 0.132 3 
0.477 -0.305 0.084 3 
0.465 0.285 0.071 3 
0.465 0.246 0.132 3 
0.465 0.243 0.132 3 
0.465 0.234 0.132 3 
0.464 0.23 0.132 3 
0.465 0.222 0.132 3 
0.47 -0.116 0.132 3 
0.471 -0.128 0.132 3 
0.477 -0.317 0.032 3 
0.467 -0.006 0.133 3 
0.466 0.103 0.133 3 
0.466 0.092 0.133 3 
0.466 0.084 0.133 3 
0.467 -0.007 0.084 3 
0.466 0.073 0.133 3 
0.466 0.063 0.133 3 
0.466 0.054 0.133 3 
0.466 0.044 0.133 3 
0.466 0.033 0.133 3 
0.465 0.022 0.133 3 
0.465 0.014 0.133 3 
0.467 0.003 0.133 3 
0.471 -0.136 0.132 3 
0.472 -0.216 0.064 3 
0.468 -0.015 0.133 3 
0.469 -0.025 0.133 3 
0.465 0.264 0.113 3 
0.468 -0.036 0.133 3 
0.469 -0.047 0.134 3 
0.469 -0.055 0.134 3 
0.469 -0.066 0.134 3 
0.47 -0.077 0.134 3 
0.47 -0.086 0.134 3 
0.47 -0.097 0.134 3 
0.465 0.277 0.124 3 
0.478 -0.287 0.134 3 
0.478 -0.297 0.134 3 
0.481 -0.355 0.137 3 
0.474 -0.358 0.135 3 
0.465 0.299 0.128 3 
0.479 -0.308 0.132 3 
0.48 -0.315 0.132 3 
0.482 -0.328 0.133 3 
0.474 -0.276 0.044 3 
0.482 -0.335 0.133 3 
0.482 -0.345 0.133 3 
0.464 0.279 0.124 3 
0.477 -0.276 0.133 3 
0.465 0.273 0.124 3 
0.464 0.263 0.124 3 
0.464 0.242 0.124 3 
0.464 0.233 0.123 3 
0.464 0.224 0.123 3 
0.465 0.212 0.123 3 
0.465 0.204 0.123 3 
0.466 0.193 0.123 3 
0.466 0.184 0.123 3 
0.466 0.173 0.123 3 
0.466 0.164 0.123 3 
0.465 0.332 0.132 3 
0.471 -0.145 0.132 3 
0.471 -0.156 0.133 3 
0.471 -0.165 0.133 3 
0.471 -0.176 0.133 3 
0.472 -0.185 0.133 3 
0.474 -0.198 0.134 3 
0.474 -0.206 0.134 3 
0.474 -0.215 0.134 3 
0.465 0.203 0.082 3 
0.475 -0.219 0.134 3 
0.465 0.084 0.063 3 
0.463 0.333 0.131 3 
0.465 0.114 0.133 3 
0.464 0.242 0.129 3 
0.464 0.254 0.124 3 
0.466 0.014 0.063 3 
0.474 -0.227 0.131 3 
0.475 -0.231 0.132 3 
0.475 -0.237 0.132 3 
0.476 -0.247 0.132 3 
0.477 -0.257 0.133 3 
0.476 -0.266 0.133 3 
0.48 -0.348 0.064 3 
0.471 -0.167 0.044 3 
0.471 0.092 0.182 3 
0.47 0.174 0.183 3 
0.473 -0.166 0.173 3 
0.472 -0.137 0.144 3 
0.469 0.162 0.182 3 
0.469 0.153 0.182 3 
0.471 0.143 0.182 3 
0.471 0.134 0.182 3 
0.476 -0.275 0.124 3 
0.471 0.123 0.182 3 
0.47 -0.105 0.134 3 
0.471 0.114 0.182 3 
0.471 0.103 0.182 3 
0.47 0.183 0.183 3 
0.466 -0.036 0.004 3 
0.471 0.083 0.182 3 
0.466 0.043 0.074 3 
0.471 0.053 0.181 3 
0.472 0.023 0.182 3 
0.472 0.003 0.182 3 
0.473 -0.007 0.182 3 
0.479 -0.317 0.123 3 
0.473 -0.015 0.182 3 
0.473 -0.026 0.182 3 
0.472 -0.037 0.173 3 
0.481 -0.276 0.194 3 
0.469 0.113 0.164 3 
0.476 -0.317 0.014 3 
0.472 0.034 0.184 3 
0.472 0.009 0.184 3 
0.464 0.3 0.082 3 
0.475 -0.059 0.186 3 
0.474 -0.205 0.154 3 
0.478 -0.245 0.192 3 
0.464 0.255 0.063 3 
0.48 -0.255 0.192 3 
0.468 -0.077 0.074 3 
0.48 -0.265 0.193 3 
0.473 -0.037 0.182 3 
0.484 -0.308 0.197 3 
0.462 0.313 0.014 3 
0.476 0.36 0.194 3 
0.469 0.236 0.184 3 
0.469 0.233 0.184 3 
0.465 0.161 0.084 3 
0.468 0.223 0.184 3 
0.468 0.214 0.183 3 
0.469 0.203 0.183 3 
0.465 0.043 0.103 3 
0.47 0.192 0.184 3 
0.475 -0.176 0.182 3 
0.468 0.152 0.173 3 
0.47 0.293 0.184 3 
0.469 0.282 0.183 3 
0.47 0.274 0.183 3 
0.472 -0.225 0.052 3 
0.47 0.264 0.183 3 
0.469 0.254 0.182 3 
0.474 -0.076 0.18 3 
0.464 0.301 0.113 3 
0.474 -0.101 0.18 3 
0.474 -0.13 0.181 3 
0.473 -0.166 0.181 3 
0.472 0.355 0.189 3 
0.476 -0.186 0.183 3 
0.467 0.054 0.074 3 
0.476 -0.195 0.183 3 
0.467 0.014 0.144 3 
0.476 -0.207 0.184 3 
0.464 0.073 0.119 3 
0.476 -0.216 0.184 3 
0.471 -0.175 0.074 3 
0.465 0.054 0.004 3 
0.484 -0.315 0.191 3 
0.484 -0.325 0.191 3 
0.473 -0.168 0.102 3 
0.474 -0.045 0.182 3 
0.468 -0.055 0.063 3 
0.474 -0.056 0.182 3 
0.474 -0.065 0.183 3 
0.475 -0.068 0.183 3 
0.475 -0.076 0.183 3 
0.466 0.003 0.092 3 
0.476 -0.085 0.184 3 
0.465 0.232 0.163 3 
0.476 -0.096 0.184 3 
0.464 0.203 0.095 3 
0.476 -0.105 0.184 3 
0.472 0.037 0.184 3 
0.476 -0.119 0.184 3 
0.476 -0.125 0.184 3 
0.475 -0.139 0.184 3 
0.475 -0.153 0.184 3 
0.474 -0.161 0.184 3 
0.474 -0.188 0.185 3 
0.482 -0.286 0.192 3 
0.484 -0.298 0.193 3 
0.465 0.144 0.133 3 
0.484 -0.305 0.193 3 
0.485 -0.316 0.194 3 
0.472 0.053 0.187 3 
0.465 0.084 0.122 3 
0.464 0.284 0.093 3 
0.471 0.143 0.188 3 
0.473 0.132 0.189 3 
0.473 0.124 0.189 3 
0.472 0.073 0.188 3 
0.472 0.112 0.188 3 
0.467 0.283 0.174 3 
0.472 0.103 0.188 3 
0.472 0.092 0.188 3 
0.473 0.084 0.188 3 
0.472 0.064 0.187 3 
0.47 0.154 0.188 3 
0.473 0.042 0.188 3 
0.473 0.034 0.188 3 
0.474 0.023 0.188 3 
0.473 0.012 0.188 3 
0.474 0.003 0.188 3 
0.474 -0.007 0.188 3 
0.475 -0.009 0.189 3 
0.474 -0.015 0.188 3 
0.474 -0.026 0.188 3 
0.474 -0.037 0.188 3 
0.473 -0.045 0.188 3 
0.47 0.252 0.191 3 
0.477 -0.295 0.122 3 
0.473 0.353 0.198 3 
0.472 0.341 0.197 3 
0.472 0.331 0.196 3 
0.472 0.323 0.196 3 
0.473 -0.156 0.102 3 
0.471 0.311 0.194 3 
0.471 0.301 0.194 3 
0.471 0.291 0.193 3 
0.472 0.282 0.193 3 
0.472 0.273 0.193 3 
0.472 0.263 0.193 3 
0.474 -0.057 0.188 3 
0.47 0.243 0.191 3 
0.471 0.234 0.191 3 
0.471 0.222 0.191 3 
0.468 -0.036 0.144 3 
0.468 0.214 0.189 3 
0.476 -0.297 0.023 3 
0.469 0.203 0.189 3 
0.47 0.192 0.189 3 
0.47 0.183 0.189 3 
0.47 0.174 0.189 3 
0.47 0.163 0.189 3 
0.485 -0.306 0.2 3 
0.478 -0.227 0.194 3 
0.479 -0.237 0.195 3 
0.478 -0.239 0.194 3 
0.478 -0.245 0.195 3 
0.481 -0.256 0.196 3 
0.481 -0.266 0.196 3 
0.483 -0.277 0.198 3 
0.462 0.324 0.054 3 
0.484 -0.285 0.198 3 
0.484 -0.295 0.199 3 
0.485 -0.303 0.2 3 
0.47 -0.177 0.052 3 
0.479 -0.215 0.194 3 
0.486 -0.317 0.201 3 
0.488 -0.33 0.202 3 
0.489 -0.335 0.203 3 
0.488 -0.345 0.203 3 
0.472 0.348 0.194 3 
0.472 0.341 0.194 3 
0.472 0.334 0.194 3 
0.472 -0.147 0.094 3 
0.471 0.321 0.192 3 
0.471 0.067 0.184 3 
0.471 0.059 0.184 3 
0.478 -0.137 0.191 3 
0.475 -0.065 0.189 3 
0.468 -0.132 0.014 3 
0.476 -0.077 0.189 3 
0.47 -0.045 0.153 3 
0.465 0.312 0.134 3 
0.476 -0.085 0.189 3 
0.477 -0.097 0.19 3 
0.478 -0.106 0.19 3 
0.478 -0.117 0.191 3 
0.478 -0.356 0.052 3 
0.478 -0.126 0.191 3 
0.469 -0.036 0.153 3 
0.485 -0.33 0.192 3 
0.479 -0.317 0.102 3 
0.478 -0.146 0.191 3 
0.478 -0.158 0.192 3 
0.468 0.342 0.183 3 
0.477 -0.166 0.191 3 
0.469 -0.066 0.074 3 
0.478 -0.175 0.192 3 
0.477 -0.187 0.192 3 
0.477 -0.196 0.192 3 
0.478 -0.205 0.193 3 
0.474 -0.127 0.172 3 
0.468 -0.006 0.164 3 
0.469 0.102 0.164 3 
0.469 0.094 0.164 3 
0.469 0.083 0.164 3 
0.469 0.074 0.164 3 
0.468 0.063 0.164 3 
0.465 0.216 0.123 3 
0.469 0.044 0.164 3 
0.468 0.033 0.164 3 
0.479 -0.326 0.082 3 
0.469 0.022 0.164 3 
0.469 0.014 0.164 3 
0.469 0.003 0.164 3 
0.468 0.124 0.164 3 
0.468 -0.015 0.164 3 
0.47 -0.026 0.164 3 
0.47 -0.037 0.164 3 
0.471 -0.045 0.164 3 
0.48 -0.277 0.172 3 
0.479 -0.286 0.172 3 
0.48 -0.297 0.173 3 
0.465 0.272 0.164 3 
0.466 0.263 0.164 3 
0.466 0.272 0.153 3 
0.466 0.251 0.164 3 
0.475 -0.227 0.172 3 
0.487 -0.346 0.184 3 
0.465 0.345 0.173 3 
0.466 0.343 0.174 3 
0.468 0.334 0.174 3 
0.467 0.319 0.173 3 
0.468 0.31 0.173 3 
0.469 0.301 0.172 3 
0.476 -0.206 0.172 3 
0.466 0.114 0.063 3 
0.475 -0.215 0.172 3 
0.473 -0.166 0.164 3 
0.475 -0.217 0.154 3 
0.465 0.241 0.163 3 
0.477 -0.237 0.173 3 
0.478 -0.247 0.174 3 
0.473 -0.205 0.083 3 
0.477 -0.255 0.174 3 
0.478 -0.266 0.174 3 
0.463 0.342 0.17 3 
0.467 0.16 0.164 3 
0.467 -0.036 0.103 3 
0.467 0.154 0.164 3 
0.467 0.143 0.164 3 
0.468 0.13 0.164 3 
0.467 0.302 0.163 3 
0.482 -0.315 0.172 3 
0.482 -0.326 0.172 3 
0.469 -0.166 0.022 3 
0.484 -0.338 0.173 3 
0.486 -0.344 0.174 3 
0.485 -0.347 0.174 3 
0.464 0.343 0.164 3 
0.466 0.335 0.164 3 
0.467 0.333 0.164 3 
0.463 0.333 0.123 3 
0.466 0.321 0.164 3 
0.467 0.312 0.163 3 
0.465 0.122 0.122 3 
0.467 0.292 0.163 3 
0.465 0.262 0.063 3 
0.467 0.283 0.162 3 
0.473 -0.186 0.162 3 
0.47 -0.105 0.104 3 
0.474 -0.257 0.052 3 
0.467 -0.036 0.044 3 
0.475 -0.196 0.163 3 
0.465 0.113 0.052 3 
0.475 -0.205 0.163 3 
0.474 -0.214 0.163 3 
0.472 -0.095 0.163 3 
0.465 0.223 0.163 3 
0.465 0.214 0.162 3 
0.466 0.203 0.163 3 
0.466 0.191 0.162 3 
0.466 0.183 0.162 3 
0.47 -0.116 0.123 3 
0.466 0.174 0.162 3 
0.471 -0.056 0.162 3 
0.471 -0.067 0.162 3 
0.464 0.294 0.113 3 
0.472 -0.075 0.162 3 
0.472 -0.086 0.162 3 
0.487 -0.342 0.184 3 
0.465 0.113 0.041 3 
0.472 -0.106 0.163 3 
0.464 0.283 0.023 3 
0.472 -0.117 0.163 3 
0.473 -0.126 0.163 3 
0.473 -0.135 0.163 3 
0.472 -0.145 0.163 3 
0.48 -0.358 0.134 3 
0.473 -0.155 0.164 3 
0.474 -0.276 0.084 3 
0.473 -0.175 0.164 3 
0.47 0.094 0.173 3 
0.464 0.274 0.032 3 
0.469 0.182 0.174 3 
0.469 0.173 0.174 3 
0.468 0.164 0.174 3 
0.468 0.144 0.173 3 
0.47 0.133 0.173 3 
0.477 -0.245 0.153 3 
0.47 0.122 0.173 3 
0.47 -0.097 0.143 3 
0.469 0.113 0.173 3 
0.469 0.102 0.173 3 
0.465 0.144 0.122 3 
0.469 0.185 0.174 3 
0.47 0.083 0.173 3 
0.471 0.072 0.173 3 
0.47 0.064 0.173 3 
0.47 0.053 0.173 3 
0.469 0.044 0.172 3 
0.464 0.307 0.091 3 
0.47 0.034 0.173 3 
0.469 0.052 0.164 3 
0.47 0.023 0.173 3 
0.47 0.014 0.172 3 
0.47 0.003 0.173 3 
0.474 -0.135 0.178 3 
0.472 -0.196 0.052 3 
0.486 -0.335 0.193 3 
0.487 -0.347 0.194 3 
0.467 -0.007 0.044 3 
0.468 0.347 0.184 3 
0.467 -0.007 0.063 3 
0.469 0.332 0.183 3 
0.469 0.322 0.182 3 
0.468 0.314 0.182 3 
0.464 0.294 0.088 3 
0.469 0.302 0.181 3 
0.474 -0.107 0.177 3 
0.471 -0.007 0.173 3 
0.474 -0.147 0.178 3 
0.464 0.203 0.033 3 
0.474 -0.176 0.179 3 
0.464 0.241 0.093 3 
0.476 -0.225 0.181 3 
0.477 -0.235 0.182 3 
0.479 -0.248 0.183 3 
0.479 -0.257 0.183 3 
0.479 -0.267 0.184 3 
0.479 -0.277 0.184 3 
0.468 0.199 0.174 3 
0.468 0.214 0.172 3 
0.467 0.003 0.152 3 
0.467 0.287 0.174 3 
0.468 0.272 0.174 3 
0.481 -0.308 0.174 3 
0.464 0.335 0.143 3 
0.467 0.264 0.173 3 
0.467 0.252 0.173 3 
0.464 0.214 0.109 3 
0.467 0.243 0.172 3 
0.473 -0.256 0.072 3 
0.467 0.234 0.172 3 
0.467 0.222 0.172 3 
0.464 0.344 0.176 3 
0.473 -0.115 0.172 3 
0.473 -0.135 0.172 3 
0.473 -0.146 0.172 3 
0.473 -0.155 0.172 3 
0.473 -0.175 0.173 3 
0.474 -0.187 0.174 3 
0.475 -0.191 0.174 3 
0.466 -0.087 0.012 3 
0.475 -0.197 0.174 3 
0.482 -0.326 0.181 3 
0.484 -0.335 0.183 3 
0.473 -0.095 0.174 3 
0.471 -0.015 0.173 3 
0.471 -0.026 0.173 3 
0.463 0.104 0.012 3 
0.472 -0.045 0.173 3 
0.472 -0.056 0.173 3 
0.466 0.003 0.103 3 
0.473 -0.065 0.174 3 
0.465 0.102 0.044 3 
0.462 0.213 0.014 3 
0.473 -0.076 0.174 3 
0.474 -0.087 0.174 3 
0.47 -0.166 0.033 3 
0.473 -0.106 0.174 3 
0.464 0.242 0.104 3 
0.474 -0.115 0.175 3 
0.474 -0.187 0.176 3 
0.481 -0.285 0.182 3 
0.465 0.293 0.142 3 
0.482 -0.296 0.183 3 
0.466 0.003 0.004 3 
0.483 -0.307 0.184 3 
0.483 -0.317 0.184 3 
0.473 -0.188 0.094 3 
0.466 0.022 0.044 3 
0.464 0.163 0.044 3 
0.464 0.154 0.044 3 
0.465 0.149 0.044 3 
0.464 0.143 0.044 3 
0.464 0.132 0.044 3 
0.464 0.124 0.044 3 
0.464 0.113 0.044 3 
0.466 0.094 0.044 3 
0.466 0.084 0.044 3 
0.466 0.073 0.044 3 
0.466 0.054 0.044 3 
0.466 0.032 0.044 3 
0.464 0.174 0.044 3 
0.466 0.014 0.044 3 
0.468 0.003 0.044 3 
0.468 -0.015 0.044 3 
0.467 -0.025 0.044 3 
0.468 -0.047 0.044 3 
0.468 -0.055 0.044 3 
0.468 -0.077 0.044 3 
0.468 -0.085 0.044 3 
0.47 -0.096 0.044 3 
0.47 -0.105 0.044 3 
0.47 -0.116 0.044 3 
0.464 0.28 0.043 3 
0.479 -0.336 0.052 3 
0.464 0.121 0.049 3 
0.474 -0.286 0.049 3 
0.464 0.138 0.047 3 
0.464 0.132 0.047 3 
0.461 0.336 0.042 3 
0.461 0.333 0.042 3 
0.463 0.312 0.043 3 
0.462 0.304 0.043 3 
0.468 -0.066 0.044 3 
0.464 0.293 0.043 3 
0.465 0.284 0.043 3 
0.47 -0.127 0.044 3 
0.464 0.274 0.043 3 
0.463 0.261 0.043 3 
0.468 -0.055 0.033 3 
0.463 0.222 0.024 3 
0.464 0.252 0.043 3 
0.464 0.243 0.043 3 
0.463 0.222 0.043 3 
0.464 0.214 0.043 3 
0.464 0.202 0.043 3 
0.464 0.194 0.044 3 
0.464 0.182 0.044 3 
0.463 0.234 0.032 3 
0.463 0.304 0.034 3 
0.464 0.293 0.034 3 
0.464 0.283 0.034 3 
0.465 0.281 0.034 3 
0.478 -0.332 0.034 3 
0.479 -0.336 0.034 3 
0.48 -0.345 0.034 3 
0.478 -0.357 0.034 3 
0.465 0.29 0.032 3 
0.463 0.261 0.032 3 
0.463 0.252 0.032 3 
0.463 0.243 0.032 3 
0.463 0.312 0.034 3 
0.465 0.062 0.004 3 
0.463 0.222 0.032 3 
0.464 0.214 0.032 3 
0.464 0.194 0.033 3 
0.464 0.174 0.033 3 
0.464 0.154 0.033 3 
0.464 0.143 0.033 3 
0.465 0.141 0.033 3 
0.464 0.132 0.033 3 
0.465 0.127 0.033 3 
0.464 0.124 0.033 3 
0.476 -0.296 0.044 3 
0.471 -0.135 0.044 3 
0.471 -0.147 0.044 3 
0.471 -0.155 0.044 3 
0.471 -0.175 0.044 3 
0.471 -0.187 0.044 3 
0.472 -0.196 0.044 3 
0.472 -0.205 0.044 3 
0.472 -0.216 0.044 3 
0.473 -0.226 0.044 3 
0.473 -0.235 0.044 3 
0.473 -0.247 0.044 3 
0.473 -0.266 0.044 3 
0.478 -0.325 0.052 3 
0.477 -0.307 0.043 3 
0.478 -0.325 0.043 3 
0.48 -0.337 0.043 3 
0.48 -0.348 0.043 3 
0.48 -0.355 0.043 3 
0.465 0.141 0.041 3 
0.465 0.116 0.041 3 
0.475 -0.282 0.041 3 
0.46 0.335 0.034 3 
0.46 0.332 0.034 3 
0.462 0.324 0.034 3 
0.464 0.168 0.06 3 
0.473 -0.256 0.064 3 
0.473 -0.266 0.064 3 
0.473 -0.275 0.064 3 
0.474 -0.286 0.064 3 
0.475 -0.29 0.064 3 
0.477 -0.298 0.064 3 
0.464 0.243 0.054 3 
0.477 -0.305 0.064 3 
0.478 -0.315 0.064 3 
0.48 -0.337 0.064 3 
0.478 -0.356 0.064 3 
0.464 0.146 0.052 3 
0.474 -0.245 0.064 3 
0.464 -0.036 0.012 3 
0.464 0.34 0.054 3 
0.462 0.304 0.054 3 
0.462 0.292 0.054 3 
0.464 0.283 0.054 3 
0.464 0.262 0.054 3 
0.465 0.253 0.054 3 
0.464 0.249 0.054 3 
0.463 0.234 0.054 3 
0.464 0.223 0.054 3 
0.464 0.214 0.054 3 
0.47 -0.135 0.063 3 
0.468 -0.025 0.063 3 
0.468 -0.036 0.063 3 
0.468 -0.047 0.063 3 
0.469 -0.066 0.063 3 
0.463 0.162 0.033 3 
0.468 -0.077 0.063 3 
0.468 -0.085 0.063 3 
0.469 -0.096 0.063 3 
0.469 -0.107 0.063 3 
0.469 -0.115 0.063 3 
0.48 -0.348 0.052 3 
0.47 -0.127 0.063 3 
0.465 0.209 0.054 3 
0.471 -0.147 0.063 3 
0.471 -0.155 0.063 3 
0.47 -0.166 0.063 3 
0.471 -0.175 0.063 3 
0.464 0.214 0.024 3 
0.472 -0.187 0.063 3 
0.473 -0.196 0.064 3 
0.475 -0.286 0.044 3 
0.473 -0.205 0.064 3 
0.473 -0.226 0.064 3 
0.474 -0.236 0.064 3 
0.471 -0.166 0.052 3 
0.468 -0.047 0.052 3 
0.468 -0.055 0.052 3 
0.468 -0.066 0.052 3 
0.467 -0.077 0.052 3 
0.467 -0.085 0.052 3 
0.469 -0.096 0.052 3 
0.47 -0.105 0.052 3 
0.469 -0.115 0.052 3 
0.47 -0.127 0.052 3 
0.47 -0.135 0.052 3 
0.471 -0.147 0.052 3 
0.471 -0.155 0.052 3 
0.467 -0.036 0.052 3 
0.471 -0.187 0.052 3 
0.473 -0.205 0.052 3 
0.472 -0.216 0.052 3 
0.474 -0.236 0.052 3 
0.474 -0.245 0.052 3 
0.473 -0.266 0.052 3 
0.473 -0.275 0.052 3 
0.475 -0.287 0.052 3 
0.477 -0.297 0.052 3 
0.478 -0.305 0.052 3 
0.477 -0.317 0.052 3 
0.467 0.084 0.052 3 
0.465 0.203 0.054 3 
0.464 0.2 0.054 3 
0.464 0.194 0.054 3 
0.464 0.182 0.054 3 
0.464 0.174 0.052 3 
0.464 0.163 0.052 3 
0.465 0.161 0.052 3 
0.465 0.152 0.052 3 
0.465 0.144 0.052 3 
0.465 0.133 0.052 3 
0.465 0.103 0.052 3 
0.465 0.094 0.052 3 
0.465 0.119 0.033 3 
0.467 0.073 0.052 3 
0.466 0.062 0.052 3 
0.467 0.054 0.052 3 
0.467 0.043 0.052 3 
0.466 0.032 0.052 3 
0.466 0.024 0.052 3 
0.467 0.014 0.052 3 
0.467 -0.007 0.052 3 
0.467 -0.015 0.052 3 
0.467 -0.025 0.052 3 
0.462 0.282 0.012 3 
0.462 0.184 0.014 3 
0.478 -0.329 0.014 3 
0.479 -0.337 0.014 3 
0.478 -0.346 0.013 3 
0.474 -0.353 0.014 3 
0.462 0.304 0.012 3 
0.462 0.294 0.012 3 
0.462 0.263 0.013 3 
0.462 0.254 0.013 3 
0.461 0.232 0.013 3 
0.462 0.224 0.013 3 
0.462 0.204 0.014 3 
0.463 0.193 0.014 3 
0.476 -0.307 0.014 3 
0.462 0.173 0.014 3 
0.463 0.162 0.014 3 
0.462 0.154 0.014 3 
0.464 0.129 0.014 3 
0.469 -0.146 0.014 3 
0.468 -0.165 0.014 3 
0.468 -0.176 0.014 3 
0.468 -0.185 0.014 3 
0.47 -0.198 0.014 3 
0.471 -0.216 0.013 3 
0.471 -0.225 0.013 3 
0.464 0.097 0.02 3 
0.469 -0.107 0.023 3 
0.469 -0.115 0.023 3 
0.469 -0.126 0.023 3 
0.469 -0.135 0.022 3 
0.47 -0.146 0.022 3 
0.47 -0.155 0.022 3 
0.47 -0.175 0.022 3 
0.47 -0.186 0.022 3 
0.47 -0.195 0.022 3 
0.471 -0.207 0.022 3 
0.475 -0.357 0.02 3 
0.465 0.127 0.02 3 
0.472 -0.235 0.013 3 
0.464 0.091 0.02 3 
0.464 0.054 0.02 3 
0.464 0.043 0.02 3 
0.465 0.016 0.02 3 
0.464 0.003 0.02 3 
0.474 -0.285 0.018 3 
0.474 -0.352 0.017 3 
0.461 0.33 0.014 3 
0.463 0.324 0.014 3 
0.464 0.113 0.017 3 
0.464 -0.007 0.018 3 
0.465 0.014 0.004 3 
0.467 -0.115 0.012 3 
0.465 -0.017 0.01 3 
0.465 -0.028 0.01 3 
0.465 0.038 0.007 3 
0.465 0.024 0.007 3 
0.465 0.003 0.007 3 
0.465 -0.007 0.007 3 
0.474 -0.305 0.003 3 
0.465 0.065 0.004 3 
0.465 0.043 0.004 3 
0.467 0.033 0.004 3 
0.466 0.024 0.004 3 
0.467 -0.106 0.012 3 
0.466 -0.007 0.004 3 
0.466 -0.015 0.004 3 
0.466 -0.025 0.004 3 
0.467 -0.047 0.004 3 
0.468 -0.055 0.004 3 
0.467 -0.066 0.004 3 
0.468 -0.107 0.004 3 
0.469 -0.115 0.004 3 
0.471 -0.167 0.003 3 
0.47 -0.175 0.003 3 
0.465 0.132 0.001 3 
0.464 0.032 0.012 3 
0.472 -0.247 0.013 3 
0.473 -0.256 0.013 3 
0.473 -0.275 0.012 3 
0.475 -0.289 0.012 3 
0.475 -0.296 0.012 3 
0.463 0.112 0.012 3 
0.463 0.094 0.012 3 
0.463 0.083 0.012 3 
0.462 0.072 0.012 3 
0.463 0.064 0.012 3 
0.464 0.054 0.012 3 
0.464 0.043 0.012 3 
0.468 -0.096 0.023 3 
0.463 0.024 0.013 3 
0.463 0.014 0.013 3 
0.463 0.003 0.013 3 
0.463 -0.007 0.013 3 
0.464 -0.025 0.012 3 
0.465 -0.041 0.012 3 
0.464 -0.047 0.012 3 
0.465 -0.052 0.012 3 
0.465 -0.055 0.012 3 
0.466 -0.065 0.012 3 
0.466 -0.095 0.012 3 
0.474 -0.275 0.032 3 
0.471 -0.147 0.033 3 
0.471 -0.155 0.033 3 
0.47 -0.175 0.033 3 
0.471 -0.187 0.033 3 
0.472 -0.196 0.033 3 
0.471 -0.207 0.033 3 
0.471 -0.216 0.033 3 
0.472 -0.226 0.033 3 
0.472 -0.235 0.033 3 
0.473 -0.247 0.033 3 
0.473 -0.257 0.032 3 
0.473 -0.266 0.032 3 
0.47 -0.135 0.033 3 
0.475 -0.279 0.032 3 
0.476 -0.287 0.032 3 
0.476 -0.296 0.032 3 
0.476 -0.306 0.032 3 
0.464 0.083 0.028 3 
0.465 0.341 0.022 3 
0.463 0.336 0.022 3 
0.461 0.33 0.023 3 
0.463 0.322 0.023 3 
0.473 -0.355 0.011 3 
0.463 0.314 0.023 3 
0.467 -0.007 0.034 3 
0.466 0.114 0.033 3 
0.465 0.102 0.033 3 
0.465 0.073 0.033 3 
0.464 0.07 0.034 3 
0.465 0.064 0.033 3 
0.465 0.054 0.034 3 
0.466 0.043 0.033 3 
0.466 0.032 0.034 3 
0.468 -0.085 0.023 3 
0.465 0.024 0.034 3 
0.466 0.014 0.034 3 
0.466 0.003 0.034 3 
0.463 0.301 0.023 3 
0.467 -0.015 0.034 3 
0.467 -0.025 0.034 3 
0.467 -0.036 0.034 3 
0.467 -0.047 0.034 3 
0.468 -0.077 0.033 3 
0.469 -0.085 0.033 3 
0.469 -0.096 0.033 3 
0.469 -0.107 0.033 3 
0.469 -0.115 0.033 3 
0.464 0.124 0.014 3 
0.469 -0.126 0.033 3 
0.464 0.03 0.023 3 
0.464 0.132 0.022 3 
0.465 0.124 0.022 3 
0.466 0.114 0.022 3 
0.465 0.102 0.023 3 
0.465 0.094 0.023 3 
0.464 0.083 0.023 3 
0.464 0.072 0.023 3 
0.464 0.064 0.023 3 
0.465 0.059 0.023 3 
0.465 0.054 0.023 3 
0.465 0.043 0.023 3 
0.465 0.032 0.023 3 
0.463 0.143 0.022 3 
0.464 0.024 0.023 3 
0.465 0.014 0.023 3 
0.465 0.003 0.023 3 
0.466 -0.007 0.023 3 
0.466 -0.015 0.023 3 
0.466 -0.025 0.023 3 
0.467 -0.036 0.023 3 
0.466 -0.047 0.023 3 
0.467 -0.055 0.023 3 
0.466 -0.066 0.023 3 
0.469 -0.077 0.023 3 
0.475 -0.283 0.024 3 
0.465 0.281 0.023 3 
0.463 0.264 0.024 3 
0.463 0.252 0.024 3 
0.463 0.243 0.024 3 
0.463 0.234 0.024 3 
0.464 0.203 0.024 3 
0.472 -0.22 0.024 3 
0.473 -0.226 0.024 3 
0.472 -0.256 0.024 3 
0.473 -0.265 0.024 3 
0.474 -0.275 0.024 3 
0.467 -0.015 0.063 3 
0.475 -0.286 0.024 3 
0.476 -0.306 0.023 3 
0.477 -0.317 0.023 3 
0.478 -0.325 0.023 3 
0.479 -0.337 0.022 3 
0.474 -0.356 0.023 3 
0.463 0.182 0.022 3 
0.464 0.174 0.022 3 
0.464 0.163 0.022 3 
0.464 0.011 0.02 3 
0.463 0.154 0.022 3 
0.464 0.32 0.094 3 
0.479 -0.327 0.102 3 
0.48 -0.339 0.103 3 
0.48 -0.346 0.103 3 
0.48 -0.355 0.103 3 
0.466 0.062 0.044 3 
0.464 0.3 0.096 3 
0.464 0.194 0.095 3 
0.479 -0.326 0.073 3 
0.463 0.339 0.094 3 
0.463 0.332 0.094 3 
0.465 0.328 0.094 3 
0.465 0.324 0.094 3 
0.478 -0.306 0.102 3 
0.464 -0.015 0.012 3 
0.465 0.314 0.094 3 
0.464 0.303 0.094 3 
0.465 0.295 0.094 3 
0.465 0.292 0.094 3 
0.464 0.272 0.093 3 
0.464 0.263 0.093 3 
0.464 0.254 0.093 3 
0.465 0.244 0.093 3 
0.464 0.232 0.093 3 
0.464 0.223 0.093 3 
0.473 -0.197 0.103 3 
0.465 0.324 0.103 3 
0.464 0.32 0.102 3 
0.465 0.314 0.102 3 
0.465 0.301 0.102 3 
0.464 0.294 0.102 3 
0.465 0.251 0.102 3 
0.465 0.236 0.101 3 
0.465 0.172 0.101 3 
0.479 -0.347 0.022 3 
0.471 -0.147 0.102 3 
0.472 -0.176 0.102 3 
0.473 -0.188 0.103 3 
0.465 0.218 0.093 3 
0.473 -0.205 0.103 3 
0.473 -0.217 0.103 3 
0.474 -0.227 0.103 3 
0.474 -0.236 0.103 3 
0.474 -0.245 0.103 3 
0.474 -0.257 0.104 3 
0.474 -0.267 0.104 3 
0.475 -0.277 0.104 3 
0.477 -0.289 0.104 3 
0.465 0.292 0.099 3 
0.477 -0.295 0.102 3 
0.469 -0.127 0.093 3 
0.467 -0.007 0.093 3 
0.467 -0.015 0.093 3 
0.467 -0.025 0.093 3 
0.467 -0.036 0.093 3 
0.468 -0.047 0.093 3 
0.468 -0.055 0.093 3 
0.469 -0.066 0.093 3 
0.468 -0.077 0.093 3 
0.469 -0.085 0.093 3 
0.47 -0.097 0.093 3 
0.47 -0.105 0.093 3 
0.469 -0.116 0.093 3 
0.466 0.014 0.092 3 
0.464 0.191 0.024 3 
0.469 -0.135 0.093 3 
0.472 -0.156 0.094 3 
0.472 -0.167 0.094 3 
0.464 0.132 0.004 3 
0.472 -0.176 0.094 3 
0.473 -0.197 0.094 3 
0.473 -0.205 0.094 3 
0.473 -0.217 0.094 3 
0.474 -0.276 0.095 3 
0.465 0.247 0.09 3 
0.465 0.122 0.092 3 
0.465 0.212 0.093 3 
0.465 0.203 0.093 3 
0.464 0.194 0.093 3 
0.465 0.192 0.093 3 
0.465 0.183 0.093 3 
0.464 0.174 0.093 3 
0.465 0.172 0.093 3 
0.465 0.163 0.093 3 
0.465 0.152 0.093 3 
0.466 0.144 0.093 3 
0.464 0.062 0.034 3 
0.465 0.133 0.092 3 
0.465 0.331 0.103 3 
0.466 0.114 0.093 3 
0.465 0.103 0.092 3 
0.465 0.092 0.092 3 
0.465 0.084 0.092 3 
0.465 0.073 0.092 3 
0.465 0.062 0.092 3 
0.464 0.121 0.017 3 
0.465 0.054 0.092 3 
0.466 0.043 0.092 3 
0.466 0.033 0.092 3 
0.466 0.022 0.092 3 
0.477 -0.295 0.113 3 
0.464 0.272 0.11 3 
0.464 0.26 0.11 3 
0.464 0.16 0.109 3 
0.474 -0.227 0.112 3 
0.475 -0.231 0.112 3 
0.475 -0.237 0.112 3 
0.474 -0.248 0.112 3 
0.474 -0.255 0.112 3 
0.475 -0.265 0.112 3 
0.464 0.067 0.09 3 
0.476 -0.275 0.113 3 
0.476 -0.285 0.113 3 
0.474 -0.248 0.115 3 
0.478 -0.306 0.114 3 
0.479 -0.317 0.114 3 
0.479 -0.327 0.114 3 
0.474 -0.245 0.084 3 
0.466 0.343 0.109 3 
0.475 -0.262 0.109 3 
0.465 0.287 0.02 3 
0.481 -0.347 0.112 3 
0.473 -0.248 0.024 3 
0.482 -0.355 0.113 3 
0.463 0.28 0.104 3 
0.47 -0.105 0.112 3 
0.464 0.242 0.112 3 
0.463 0.232 0.112 3 
0.464 0.223 0.112 3 
0.465 0.215 0.112 3 
0.462 0.324 0.043 3 
0.465 0.212 0.112 3 
0.466 0.193 0.112 3 
0.469 -0.066 0.112 3 
0.47 -0.075 0.112 3 
0.469 -0.085 0.112 3 
0.468 -0.066 0.033 3 
0.469 -0.096 0.112 3 
0.462 0.334 0.082 3 
0.47 -0.116 0.113 3 
0.47 -0.127 0.113 3 
0.47 -0.136 0.113 3 
0.472 -0.187 0.114 3 
0.471 -0.147 0.113 3 
0.472 -0.156 0.113 3 
0.473 -0.165 0.113 3 
0.472 -0.176 0.113 3 
0.473 -0.197 0.114 3 
0.473 -0.206 0.114 3 
0.473 -0.217 0.114 3 
0.469 -0.077 0.104 3 
0.466 0.062 0.103 3 
0.469 -0.096 0.082 3 
0.465 0.054 0.103 3 
0.467 0.033 0.103 3 
0.466 0.014 0.103 3 
0.466 -0.006 0.103 3 
0.464 0.191 0.084 3 
0.466 -0.015 0.103 3 
0.467 -0.025 0.103 3 
0.468 -0.047 0.104 3 
0.468 -0.055 0.104 3 
0.469 -0.066 0.104 3 
0.465 0.073 0.103 3 
0.469 -0.085 0.104 3 
0.463 0.234 0.043 3 
0.47 -0.097 0.104 3 
0.47 -0.116 0.104 3 
0.465 0.269 0.063 3 
0.47 -0.127 0.104 3 
0.47 -0.135 0.104 3 
0.473 -0.235 0.024 3 
0.474 -0.239 0.106 3 
0.464 0.34 0.103 3 
0.462 0.331 0.102 3 
0.464 0.177 0.103 3 
0.463 0.274 0.104 3 
0.464 0.263 0.104 3 
0.464 0.254 0.104 3 
0.464 0.323 0.082 3 
0.464 0.232 0.104 3 
0.462 0.272 0.013 3 
0.464 0.223 0.104 3 
0.464 0.214 0.104 3 
0.465 0.212 0.104 3 
0.465 0.203 0.104 3 
0.465 0.192 0.104 3 
0.465 0.183 0.104 3 
0.466 0.043 0.063 3 
0.464 0.171 0.103 3 
0.465 0.164 0.103 3 
0.465 0.152 0.103 3 
0.465 0.144 0.103 3 
0.465 0.133 0.103 3 
0.466 0.122 0.103 3 
0.466 0.114 0.103 3 
0.466 0.043 0.044 3 
0.466 0.103 0.103 3 
0.465 0.092 0.103 3 
0.465 0.084 0.103 3 
0.471 -0.135 0.074 3 
0.466 0.014 0.074 3 
0.467 0.003 0.074 3 
0.466 -0.007 0.074 3 
0.467 -0.015 0.074 3 
0.467 -0.025 0.074 3 
0.467 -0.036 0.074 3 
0.468 -0.055 0.074 3 
0.469 -0.085 0.074 3 
0.469 -0.096 0.074 3 
0.469 -0.107 0.074 3 
0.469 -0.116 0.074 3 
0.47 -0.127 0.074 3 
0.466 0.022 0.074 3 
0.471 -0.155 0.074 3 
0.471 -0.166 0.074 3 
0.465 0.265 0.071 3 
0.465 0.224 0.071 3 
0.465 0.212 0.071 3 
0.465 0.032 0.007 3 
0.472 -0.187 0.072 3 
0.473 -0.196 0.072 3 
0.472 -0.205 0.072 3 
0.465 0.083 0.033 3 
0.472 -0.216 0.072 3 
0.465 0.158 0.074 3 
0.464 0.243 0.074 3 
0.464 0.232 0.074 3 
0.465 0.226 0.074 3 
0.464 0.223 0.074 3 
0.464 0.214 0.074 3 
0.464 0.203 0.074 3 
0.465 0.2 0.074 3 
0.464 0.194 0.074 3 
0.465 0.192 0.074 3 
0.464 0.183 0.074 3 
0.464 0.174 0.074 3 
0.464 0.163 0.073 3 
0.465 0.124 0.052 3 
0.465 0.152 0.074 3 
0.465 0.144 0.074 3 
0.466 0.133 0.074 3 
0.466 0.122 0.074 3 
0.466 0.114 0.074 3 
0.465 0.103 0.074 3 
0.465 0.094 0.074 3 
0.465 0.084 0.074 3 
0.465 0.073 0.074 3 
0.466 0.062 0.074 3 
0.466 0.033 0.074 3 
0.465 0.18 0.063 3 
0.467 0.003 0.052 3 
0.464 0.249 0.063 3 
0.464 0.243 0.063 3 
0.463 0.234 0.063 3 
0.464 0.223 0.063 3 
0.465 0.218 0.063 3 
0.464 0.214 0.063 3 
0.465 0.209 0.063 3 
0.465 0.203 0.063 3 
0.464 0.2 0.063 3 
0.464 0.194 0.063 3 
0.464 0.182 0.063 3 
0.465 0.253 0.063 3 
0.465 0.172 0.063 3 
0.465 0.163 0.063 3 
0.466 0.144 0.063 3 
0.465 0.133 0.063 3 
0.466 0.103 0.063 3 
0.465 0.094 0.063 3 
0.466 0.073 0.063 3 
0.466 0.062 0.063 3 
0.466 0.054 0.063 3 
0.466 0.024 0.063 3 
0.466 0.003 0.063 3 
0.477 -0.355 0.073 3 
0.473 -0.226 0.072 3 
0.474 -0.236 0.072 3 
0.474 -0.245 0.072 3 
0.474 -0.267 0.072 3 
0.474 -0.276 0.072 3 
0.475 -0.283 0.072 3 
0.475 -0.286 0.072 3 
0.477 -0.295 0.073 3 
0.477 -0.305 0.073 3 
0.477 -0.315 0.073 3 
0.48 -0.337 0.073 3 
0.48 -0.348 0.073 3 
0.464 0.252 0.074 3 
0.474 -0.355 0.073 3 
0.465 0.262 0.068 3 
0.465 0.177 0.065 3 
0.465 0.172 0.065 3 
0.464 0.154 0.065 3 
0.463 0.322 0.062 3 
0.463 0.312 0.062 3 
0.463 0.302 0.062 3 
0.463 0.293 0.062 3 
0.464 0.284 0.063 3 
0.464 0.274 0.063 3 
0.467 0.014 0.084 3 
0.466 0.114 0.084 3 
0.466 0.103 0.084 3 
0.465 0.092 0.084 3 
0.465 0.084 0.084 3 
0.463 0.339 0.014 3 
0.465 0.073 0.084 3 
0.467 -0.047 0.074 3 
0.465 0.062 0.084 3 
0.466 0.054 0.084 3 
0.466 0.043 0.084 3 
0.466 0.033 0.084 3 
0.466 0.022 0.084 3 
0.466 0.122 0.084 3 
0.467 0.003 0.084 3 
0.462 0.338 0.082 3 
0.464 0.313 0.082 3 
0.465 0.311 0.082 3 
0.465 0.304 0.082 3 
0.465 0.288 0.082 3 
0.464 0.284 0.082 3 
0.463 0.274 0.082 3 
0.463 0.262 0.082 3 
0.464 0.253 0.082 3 
0.464 0.232 0.082 3 
0.479 -0.327 0.094 3 
0.464 0.18 0.09 3 
0.473 -0.226 0.092 3 
0.473 -0.235 0.092 3 
0.474 -0.257 0.092 3 
0.462 0.314 0.054 3 
0.474 -0.267 0.092 3 
0.474 -0.276 0.092 3 
0.475 -0.28 0.093 3 
0.464 0.293 0.023 3 
0.476 -0.297 0.093 3 
0.477 -0.305 0.093 3 
0.478 -0.316 0.093 3 
0.465 0.23 0.082 3 
0.479 -0.337 0.094 3 
0.481 -0.349 0.094 3 
0.479 -0.358 0.094 3 
0.465 0.227 0.087 3 
0.465 0.186 0.084 3 
0.464 0.183 0.084 3 
0.464 0.174 0.084 3 
0.462 0.334 0.054 3 
0.464 0.163 0.084 3 
0.466 0.144 0.084 3 
0.466 0.133 0.084 3 
0.479 -0.358 0.082 3 
0.473 -0.226 0.083 3 
0.473 -0.235 0.083 3 
0.474 -0.257 0.084 3 
0.474 -0.267 0.084 3 
0.462 0.142 0.014 3 
0.475 -0.287 0.084 3 
0.476 -0.297 0.084 3 
0.477 -0.315 0.084 3 
0.464 0.214 0.079 3 
0.475 -0.283 0.081 3 
0.48 -0.337 0.082 3 
0.48 -0.348 0.082 3 
0.472 -0.216 0.083 3 
0.464 0.154 0.076 3 
0.463 0.339 0.074 3 
0.462 0.334 0.074 3 
0.464 0.323 0.074 3 
0.464 0.313 0.074 3 
0.464 0.303 0.074 3 
0.465 0.298 0.074 3 
0.464 0.29 0.074 3 
0.464 0.284 0.074 3 
0.464 0.272 0.074 3 
0.464 0.262 0.074 3 
0.468 -0.077 0.082 3 
0.464 0.223 0.082 3 
0.465 0.221 0.082 3 
0.464 0.274 0.023 3 
0.465 0.212 0.082 3 
0.464 0.197 0.082 3 
0.464 0.073 0.082 3 
0.467 -0.025 0.082 3 
0.467 -0.036 0.082 3 
0.467 -0.047 0.082 3 
0.468 -0.055 0.082 3 
0.469 -0.066 0.082 3 
0.465 0.29 0.037 3 
0.469 -0.085 0.082 3 
0.469 -0.107 0.082 3 
0.469 -0.116 0.082 3 
0.469 -0.127 0.082 3 
0.472 -0.147 0.083 3 
0.472 -0.156 0.083 3 
0.471 -0.166 0.083 3 
0.465 0.014 0.007 3 
0.471 -0.175 0.083 3 
0.472 -0.187 0.083 3 
0.473 -0.197 0.083 3 
