# .PCD v0.7 - Point Cloud Data file
FIELDS x y z intensity
SIZE 4 4 4 4
TYPE F F F F
COUNT 1 1 1 1
WIDTH 2398
HEIGHT 1
VIEWPOINT 0 0 0 1 0 0 0
POINTS 2398
DATA ascii
0.339 -0.015 0.016 0 
0.328 -0.015 0.017 0 
0.301 -0.015 0.021 0 
0.302 -0.005 0.021 0 
0.301 0.001 0.021 0 
0.371 -0.237 -0.025 1 
0.373 -0.225 -0.024 1 
0.373 -0.216 -0.024 1 
0.364 -0.155 -0.018 1 
0.363 -0.135 -0.017 1 
0.362 -0.125 -0.017 1 
0.363 -0.066 -0.016 1 
0.36 -0.06 -0.015 1 
0.362 -0.026 -0.016 1 
0.362 -0.024 -0.016 1 
0.358 0.024 -0.014 1 
0.358 0.033 -0.014 1 
0.356 0.074 -0.014 1 
0.355 0.082 -0.014 1 
0.356 0.086 -0.014 1 
0.352 0.113 -0.014 1 
0.352 0.123 -0.014 1 
0.352 0.136 -0.014 1 
0.353 0.154 -0.015 1 
0.351 0.16 -0.015 1 
0.344 0.206 -0.015 1 
0.381 -0.224 -0.025 1 
0.374 -0.195 -0.022 1 
0.373 -0.146 -0.019 1 
0.363 -0.085 -0.014 1 
0.364 -0.056 -0.014 1 
0.341 0.003 -0.006 1 
0.364 0.034 -0.015 1 
0.363 0.044 -0.014 1 
0.362 0.084 -0.015 1 
0.362 0.093 -0.015 1 
0.362 0.102 -0.015 1 
0.359 0.122 -0.015 1 
0.354 0.132 -0.013 1 
0.353 0.168 -0.014 1 
0.353 0.174 -0.015 1 
0.353 0.182 -0.015 1 
0.35 0.213 -0.016 1 
0.384 -0.252 -0.026 1 
0.387 -0.228 -0.025 1 
0.374 -0.175 -0.019 1 
0.374 -0.136 -0.018 1 
0.374 -0.128 -0.017 1 
0.374 -0.116 -0.017 1 
0.374 -0.114 -0.017 1 
0.372 -0.096 -0.016 1 
0.371 -0.086 -0.015 1 
0.372 -0.075 -0.016 1 
0.37 -0.056 -0.015 1 
0.372 -0.045 -0.015 1 
0.374 -0.038 -0.016 1 
0.374 -0.031 -0.016 1 
0.372 0.013 -0.016 1 
0.372 0.024 -0.016 1 
0.37 0.053 -0.015 1 
0.363 0.117 -0.014 1 
0.364 0.129 -0.015 1 
0.364 0.153 -0.015 1 
0.359 0.194 -0.016 1 
0.358 0.204 -0.016 1 
0.392 -0.256 -0.026 1 
0.393 -0.239 -0.025 1 
0.382 -0.205 -0.021 1 
0.383 -0.155 -0.019 1 
0.382 -0.117 -0.018 1 
0.38 -0.106 -0.017 1 
0.374 -0.066 -0.014 1 
0.384 -0.03 -0.017 1 
0.374 0.071 -0.015 1 
0.374 0.102 -0.016 1 
0.372 0.123 -0.015 1 
0.372 0.133 -0.016 1 
0.364 0.224 -0.017 1 
0.361 0.225 -0.016 1 
0.398 -0.244 -0.025 1 
0.39 -0.218 -0.021 1 
0.384 -0.168 -0.018 1 
0.384 -0.095 -0.016 1 
0.384 -0.075 -0.016 1 
0.38 -0.068 -0.014 1 
0.381 -0.067 -0.015 1 
0.38 -0.064 -0.014 1 
0.384 -0.058 -0.016 1 
0.381 -0.045 -0.015 1 
0.384 -0.036 -0.016 1 
0.384 0.014 -0.016 1 
0.384 0.024 -0.016 1 
0.381 0.043 -0.015 1 
0.379 0.048 -0.014 1 
0.381 0.054 -0.015 1 
0.381 0.074 -0.015 1 
0.378 0.083 -0.015 1 
0.377 0.084 -0.014 1 
0.381 0.114 -0.016 1 
0.374 0.144 -0.015 1 
0.374 0.162 -0.015 1 
0.372 0.183 -0.016 1 
0.373 0.186 -0.016 1 
0.369 0.213 -0.016 1 
0.393 -0.208 -0.02 1 
0.391 -0.156 -0.018 1 
0.384 -0.188 -0.018 1 
0.389 -0.146 -0.017 1 
0.391 -0.126 -0.017 1 
0.39 -0.115 -0.016 1 
0.389 -0.106 -0.016 1 
0.393 -0.087 -0.017 1 
0.388 -0.075 -0.015 1 
0.389 -0.065 -0.015 1 
0.393 -0.056 -0.017 1 
0.388 -0.045 -0.015 1 
0.392 -0.035 -0.016 1 
0.394 -0.034 -0.017 1 
0.388 0.024 -0.015 1 
0.384 0.097 -0.015 1 
0.382 0.124 -0.015 1 
0.38 0.142 -0.015 1 
0.383 0.163 -0.016 1 
0.372 0.223 -0.016 1 
0.403 -0.265 -0.023 1 
0.404 -0.263 -0.023 1 
0.3 -0.015 0.014 1 
0.301 -0.005 0.014 1 
0.301 0.001 0.014 1 
0.364 -0.145 -0.018 1 
0.394 0.033 -0.015 1 
0.393 0.053 -0.015 1 
0.392 0.063 -0.015 1 
0.392 0.073 -0.015 1 
0.393 0.084 -0.015 1 
0.391 0.09 -0.015 1 
0.389 0.093 -0.014 1 
0.388 0.097 -0.014 1 
0.388 0.124 -0.015 1 
0.388 0.134 -0.015 1 
0.384 0.157 -0.014 1 
0.38 0.224 -0.016 1 
0.378 0.244 -0.017 1 
0.411 -0.265 -0.023 1 
0.41 -0.256 -0.022 1 
0.411 -0.249 -0.022 1 
0.382 -0.215 -0.021 1 
0.404 -0.227 -0.019 1 
0.402 -0.206 -0.018 1 
0.402 -0.196 -0.018 1 
0.401 -0.145 -0.016 1 
0.402 -0.136 -0.016 1 
0.402 -0.116 -0.016 1 
0.4 -0.105 -0.015 1 
0.402 -0.075 -0.015 1 
0.401 -0.066 -0.015 1 
0.402 -0.056 -0.015 1 
0.402 -0.045 -0.015 1 
0.403 -0.037 -0.016 1 
0.335 0.003 0.004 1 
0.364 0.074 -0.015 1 
0.401 0.023 -0.015 1 
0.401 0.044 -0.015 1 
0.4 0.053 -0.015 1 
0.396 0.104 -0.015 1 
0.394 0.14 -0.015 1 
0.394 0.153 -0.015 1 
0.393 0.163 -0.015 1 
0.39 0.184 -0.015 1 
0.391 0.223 -0.017 1 
0.41 -0.237 -0.019 1 
0.41 -0.227 -0.019 1 
0.414 -0.22 -0.02 1 
0.404 -0.193 -0.016 1 
0.392 -0.245 -0.025 1 
0.409 -0.115 -0.016 1 
0.41 -0.087 -0.016 1 
0.406 -0.066 -0.014 1 
0.363 -0.036 -0.016 1 
0.404 0.011 -0.014 1 
0.407 0.043 -0.015 1 
0.394 -0.197 -0.018 1 
0.405 0.062 -0.015 1 
0.404 0.071 -0.014 1 
0.405 0.073 -0.015 1 
0.404 0.09 -0.015 1 
0.404 0.112 -0.015 1 
0.403 0.123 -0.015 1 
0.401 0.133 -0.015 1 
0.399 0.139 -0.014 1 
0.352 0.204 -0.016 1 
0.401 0.144 -0.015 1 
0.399 0.152 -0.015 1 
0.398 0.153 -0.014 1 
0.398 0.184 -0.015 1 
0.393 0.198 -0.014 1 
0.391 0.243 -0.016 1 
0.423 -0.299 -0.023 1 
0.423 -0.267 -0.021 1 
0.421 -0.256 -0.02 1 
0.419 -0.235 -0.019 1 
0.42 -0.226 -0.019 1 
0.414 -0.196 -0.017 1 
0.414 -0.189 -0.017 1 
0.413 -0.166 -0.016 1 
0.412 -0.156 -0.015 1 
0.353 0.192 -0.018 1 
0.414 -0.136 -0.015 1 
0.414 -0.106 -0.015 1 
0.414 -0.099 -0.015 1 
0.414 -0.079 -0.015 1 
0.415 -0.077 -0.015 1 
0.414 -0.072 -0.015 1 
0.414 -0.048 -0.015 1 
0.414 -0.045 -0.014 1 
0.483 -0.047 -0.035 1 
0.413 0.027 -0.015 1 
0.411 0.053 -0.014 1 
0.411 0.073 -0.014 1 
0.413 0.094 -0.015 1 
0.411 0.104 -0.015 1 
0.41 0.113 -0.015 1 
0.409 0.144 -0.015 1 
0.407 0.15 -0.015 1 
0.402 0.163 -0.013 1 
0.404 0.172 -0.015 1 
0.404 0.193 -0.015 1 
0.402 0.213 -0.015 1 
0.401 0.222 -0.015 1 
0.401 0.233 -0.016 1 
0.396 0.243 -0.015 1 
0.424 -0.294 -0.02 1 
0.421 -0.217 -0.017 1 
0.422 -0.195 -0.017 1 
0.417 -0.166 -0.015 1 
0.422 -0.105 -0.015 1 
0.423 -0.096 -0.015 1 
0.421 -0.088 -0.015 1 
0.42 -0.076 -0.014 1 
0.421 -0.07 -0.014 1 
0.422 -0.065 -0.015 1 
0.421 -0.047 -0.014 1 
0.421 0.025 -0.015 1 
0.384 0.214 -0.017 1 
0.418 0.034 -0.014 1 
0.419 0.096 -0.015 1 
0.412 0.132 -0.013 1 
0.411 0.143 -0.013 1 
0.409 0.163 -0.013 1 
0.363 0.009 -0.014 1 
0.399 -0.237 -0.023 1 
0.408 0.224 -0.015 1 
0.404 0.262 -0.016 1 
0.4 0.268 -0.015 1 
0.431 -0.308 -0.02 1 
0.434 -0.302 -0.021 1 
0.427 -0.285 -0.018 1 
0.43 -0.277 -0.019 1 
0.427 -0.176 -0.015 1 
0.423 -0.156 -0.014 1 
0.423 -0.146 -0.014 1 
0.424 -0.142 -0.014 1 
0.431 -0.044 -0.015 1 
0.447 -0.044 -0.019 1 
0.419 -0.175 -0.015 1 
0.424 0.044 -0.013 1 
0.424 0.053 -0.013 1 
0.424 0.063 -0.013 1 
0.422 0.074 -0.013 1 
0.424 0.093 -0.014 1 
0.422 0.104 -0.013 1 
0.421 0.123 -0.013 1 
0.414 0.194 -0.013 1 
0.398 0.063 -0.015 1 
0.412 0.212 -0.013 1 
0.414 0.222 -0.014 1 
0.415 0.23 -0.015 1 
0.414 0.232 -0.015 1 
0.414 0.242 -0.015 1 
0.412 0.254 -0.015 1 
0.411 0.264 -0.015 1 
0.408 0.272 -0.015 1 
0.434 -0.246 -0.016 1 
0.433 -0.226 -0.015 1 
0.434 -0.206 -0.015 1 
0.434 -0.196 -0.015 1 
0.434 -0.193 -0.015 1 
0.431 -0.186 -0.014 1 
0.432 -0.176 -0.014 1 
0.431 -0.135 -0.013 1 
0.432 -0.126 -0.013 1 
0.432 -0.106 -0.013 1 
0.432 -0.097 -0.013 1 
0.432 -0.085 -0.013 1 
0.434 -0.078 -0.013 1 
0.434 -0.066 -0.013 1 
0.478 -0.049 -0.025 1 
0.478 -0.04 -0.025 1 
0.431 0.012 -0.013 1 
0.432 0.043 -0.013 1 
0.429 0.054 -0.012 1 
0.431 0.064 -0.013 1 
0.429 0.073 -0.012 1 
0.428 0.083 -0.012 1 
0.414 -0.057 -0.015 1 
0.429 0.093 -0.013 1 
0.422 0.154 -0.012 1 
0.421 0.164 -0.012 1 
0.421 0.184 -0.013 1 
0.418 0.254 -0.014 1 
0.421 0.274 -0.016 1 
0.421 0.283 -0.016 1 
0.441 -0.297 -0.017 1 
0.442 -0.277 -0.016 1 
0.438 -0.256 -0.015 1 
0.439 -0.24 -0.015 1 
0.439 -0.226 -0.014 1 
0.434 -0.157 -0.012 1 
0.434 -0.152 -0.012 1 
0.434 -0.115 -0.011 1 
0.44 -0.075 -0.012 1 
0.439 -0.065 -0.012 1 
0.439 -0.055 -0.012 1 
0.319 -0.016 0.018 1 
0.319 -0.005 0.018 1 
0.324 0 0.016 1 
0.434 0.124 -0.012 1 
0.431 0.142 -0.012 1 
0.43 0.154 -0.012 1 
0.428 0.164 -0.012 1 
0.424 0.194 -0.011 1 
0.424 0.204 -0.011 1 
0.423 0.214 -0.012 1 
0.424 0.222 -0.012 1 
0.424 0.233 -0.012 1 
0.424 0.244 -0.013 1 
0.423 0.268 -0.013 1 
0.424 0.283 -0.014 1 
0.425 0.29 -0.015 1 
0.423 0.291 -0.014 1 
0.446 -0.287 -0.015 1 
0.445 -0.283 -0.015 1 
0.444 -0.235 -0.013 1 
0.443 -0.216 -0.013 1 
0.443 -0.197 -0.012 1 
0.441 -0.185 -0.011 1 
0.444 -0.176 -0.012 1 
0.442 -0.167 -0.011 1 
0.442 -0.157 -0.011 1 
0.444 -0.145 -0.012 1 
0.444 -0.127 -0.011 1 
0.443 -0.116 -0.011 1 
0.442 -0.105 -0.011 1 
0.443 -0.096 -0.011 1 
0.423 0.083 -0.013 1 
0.444 -0.086 -0.011 1 
0.449 -0.044 -0.012 1 
0.334 -0.005 0.015 1 
0.414 0.022 -0.015 1 
0.339 0.002 0.014 1 
0.444 0.023 -0.011 1 
0.444 0.033 -0.011 1 
0.443 0.042 -0.011 1 
0.442 0.062 -0.011 1 
0.441 0.074 -0.011 1 
0.441 0.084 -0.011 1 
0.441 0.104 -0.011 1 
0.439 0.114 -0.011 1 
0.431 0.173 -0.01 1 
0.431 0.183 -0.01 1 
0.432 0.194 -0.011 1 
0.431 0.204 -0.011 1 
0.431 0.223 -0.011 1 
0.43 0.233 -0.011 1 
0.432 0.254 -0.012 1 
0.43 0.263 -0.012 1 
0.428 0.273 -0.012 1 
0.43 0.284 -0.013 1 
0.434 -0.311 -0.011 1 
0.45 -0.32 -0.014 1 
0.452 -0.315 -0.015 1 
0.455 -0.312 -0.015 1 
0.454 -0.301 -0.015 1 
0.453 -0.297 -0.014 1 
0.449 -0.29 -0.013 1 
0.443 -0.266 -0.011 1 
0.444 -0.258 -0.011 1 
0.45 -0.226 -0.012 1 
0.451 -0.216 -0.012 1 
0.449 -0.207 -0.011 1 
0.449 -0.196 -0.011 1 
0.451 -0.156 -0.011 1 
0.451 -0.146 -0.011 1 
0.451 -0.135 -0.011 1 
0.452 -0.107 -0.011 1 
0.452 -0.096 -0.01 1 
0.444 -0.206 -0.013 1 
0.452 -0.086 -0.01 1 
0.451 -0.075 -0.01 1 
0.451 -0.065 -0.01 1 
0.451 -0.055 -0.01 1 
0.476 -0.046 -0.016 1 
0.477 -0.037 -0.016 1 
0.358 0.174 -0.015 1 
0.342 -0.012 0.015 1 
0.354 0.005 -0.013 1 
0.354 -0.006 0.012 1 
0.402 -0.275 -0.023 1 
0.356 0 0.012 1 
0.45 0.033 -0.01 1 
0.444 0.121 -0.009 1 
0.444 0.134 -0.01 1 
0.442 0.153 -0.01 1 
0.44 0.163 -0.009 1 
0.436 0.174 -0.009 1 
0.431 0.303 -0.012 1 
0.448 -0.277 -0.01 1 
0.419 0.134 -0.013 1 
0.451 -0.265 -0.01 1 
0.451 -0.256 -0.01 1 
0.451 -0.247 -0.01 1 
0.453 -0.237 -0.01 1 
0.454 -0.185 -0.009 1 
0.454 -0.131 -0.009 1 
0.454 -0.123 -0.009 1 
0.376 -0.016 0.009 1 
0.382 -0.012 0.007 1 
0.421 -0.135 -0.015 1 
0.389 -0.005 0.006 1 
0.393 -0.229 -0.023 1 
0.391 0 0.005 1 
0.443 0.143 -0.01 1 
0.454 0.044 -0.008 1 
0.454 0.054 -0.009 1 
0.453 0.062 -0.008 1 
0.453 0.072 -0.008 1 
0.451 0.092 -0.008 1 
0.451 0.103 -0.008 1 
0.45 0.134 -0.008 1 
0.41 0.191 -0.015 1 
0.444 0.184 -0.008 1 
0.441 0.204 -0.008 1 
0.441 0.242 -0.009 1 
0.441 0.274 -0.01 1 
0.441 0.28 -0.01 1 
0.441 0.292 -0.011 1 
0.437 0.303 -0.01 1 
0.464 -0.346 -0.013 1 
0.464 -0.339 -0.012 1 
0.384 0.182 -0.015 1 
0.464 -0.318 -0.012 1 
0.461 -0.156 -0.008 1 
0.461 -0.075 -0.007 1 
0.383 -0.236 -0.026 1 
0.461 -0.057 -0.007 1 
0.462 -0.007 -0.007 1 
0.453 0.154 -0.007 1 
0.45 0.164 -0.007 1 
0.389 0.231 -0.017 1 
0.45 0.183 -0.007 1 
0.45 0.194 -0.007 1 
0.45 0.202 -0.007 1 
0.408 -0.038 -0.015 1 
0.444 0.311 -0.009 1 
0.464 -0.258 -0.007 1 
0.463 -0.217 -0.006 1 
0.464 -0.203 -0.006 1 
0.465 -0.198 -0.007 1 
0.464 -0.183 -0.006 1 
0.466 -0.176 -0.006 1 
0.465 -0.147 -0.006 1 
0.465 -0.144 -0.006 1 
0.464 -0.136 -0.006 1 
0.464 -0.116 -0.005 1 
0.466 -0.055 -0.005 1 
0.469 -0.036 -0.006 1 
0.465 -0.004 -0.005 1 
0.464 0.003 -0.005 1 
0.464 0.014 -0.005 1 
0.465 0.022 -0.006 1 
0.464 0.024 -0.005 1 
0.464 0.032 -0.005 1 
0.463 0.043 -0.005 1 
0.462 0.053 -0.005 1 
0.461 0.064 -0.005 1 
0.461 0.072 -0.005 1 
0.46 0.093 -0.005 1 
0.419 -0.146 -0.015 1 
0.46 0.114 -0.005 1 
0.46 0.122 -0.005 1 
0.455 0.172 -0.005 1 
0.455 0.183 -0.005 1 
0.455 0.202 -0.006 1 
0.455 0.205 -0.006 1 
0.454 0.213 -0.006 1 
0.453 0.224 -0.006 1 
0.452 0.234 -0.006 1 
0.452 0.243 -0.006 1 
0.45 0.253 -0.006 1 
0.449 0.264 -0.006 1 
0.451 0.284 -0.007 1 
0.454 -0.048 -0.011 1 
0.47 -0.305 -0.007 1 
0.459 0.133 -0.005 1 
0.47 -0.285 -0.006 1 
0.469 -0.275 -0.006 1 
0.47 -0.257 -0.006 1 
0.47 -0.245 -0.005 1 
0.47 -0.236 -0.005 1 
0.467 -0.225 -0.005 1 
0.467 -0.222 -0.005 1 
0.463 0.064 -0.003 1 
0.463 0.113 -0.003 1 
0.454 0.262 -0.004 1 
0.456 0.273 -0.005 1 
0.442 -0.245 -0.013 1 
0.455 0.288 -0.005 1 
0.453 0.292 -0.005 1 
0.453 0.301 -0.005 1 
0.453 0.314 -0.006 1 
0.451 0.322 -0.006 1 
0.451 0.325 -0.006 1 
0.473 -0.345 -0.006 1 
0.475 -0.344 -0.006 1 
0.473 -0.335 -0.005 1 
0.434 0.134 -0.012 1 
0.44 0.264 -0.009 1 
0.473 -0.328 -0.005 1 
0.364 -0.079 -0.015 1 
0.472 -0.316 -0.005 1 
0.472 -0.306 -0.004 1 
0.464 0.124 -0.001 1 
0.382 0.153 -0.014 1 
0.474 -0.315 -0.002 1 
0.474 -0.295 -0.001 1 
0.474 -0.286 -0.001 1 
0.474 -0.276 -0.001 1 
0.473 -0.266 -0.001 1 
0.465 0.146 0.001 1 
0.463 0.174 0 1 
0.463 0.182 0 1 
0.464 0.194 0 1 
0.463 0.202 0 1 
0.461 0.224 0 1 
0.473 -0.218 0.002 1 
0.472 -0.205 0.002 1 
0.472 -0.196 0.002 1 
0.472 -0.185 0.002 1 
0.472 -0.156 0.003 1 
0.471 -0.147 0.003 1 
0.374 -0.206 -0.022 1 
0.421 0.113 -0.013 1 
0.47 -0.135 0.003 1 
0.47 -0.105 0.003 1 
0.47 -0.097 0.003 1 
0.469 -0.085 0.004 1 
0.469 -0.077 0.004 1 
0.469 -0.066 0.004 1 
0.408 -0.126 -0.016 1 
0.409 0.128 -0.015 1 
0.465 0.073 0.004 1 
0.466 0.084 0.004 1 
0.466 0.144 0.003 1 
0.464 0.152 0.003 1 
0.465 0.164 0.003 1 
0.465 0.183 0.003 1 
0.465 0.192 0.002 1 
0.465 0.203 0.002 1 
0.466 0.213 0.002 1 
0.465 0.224 0.002 1 
0.465 0.227 0.002 1 
0.463 0.234 0.002 1 
0.465 0.269 0.001 1 
0.42 -0.085 -0.014 1 
0.479 -0.327 0.002 1 
0.476 -0.307 0.003 1 
0.476 -0.297 0.003 1 
0.354 0.002 0.012 1 
0.475 -0.286 0.003 1 
0.475 -0.277 0.004 1 
0.475 -0.267 0.004 1 
0.475 -0.24 0.004 1 
0.474 -0.236 0.004 1 
0.473 -0.227 0.004 1 
0.465 0.083 0.007 1 
0.465 -0.087 -0.005 1 
0.465 0.091 0.007 1 
0.465 0.102 0.006 1 
0.466 -0.167 -0.006 1 
0.465 0.169 0.005 1 
0.463 0.252 0.004 1 
0.464 0.274 0.004 1 
0.465 0.285 0.003 1 
0.464 0.293 0.003 1 
0.464 0.303 0.003 1 
0.465 0.307 0.003 1 
0.464 0.313 0.003 1 
0.463 0.321 0.003 1 
0.394 0.01 -0.015 1 
0.464 0.329 0.002 1 
0.465 0.334 0.002 1 
0.466 0.338 0.002 1 
0.469 0.346 0.001 1 
0.36 0.103 -0.014 1 
0.465 0.175 0.005 1 
0.479 -0.344 0.004 1 
0.469 -0.045 -0.006 1 
0.465 -0.065 -0.005 1 
0.465 0.073 0.009 1 
0.432 0.292 -0.011 1 
0.397 -0.156 -0.017 1 
0.462 -0.054 -0.007 1 
0.464 -0.068 -0.005 1 
0.412 0.202 -0.013 1 
0.384 -0.147 -0.017 1 
0.461 -0.086 -0.007 1 
0.464 -0.125 -0.005 1 
0.479 -0.348 0.004 1 
0.394 0.035 -0.015 1 
0.371 0.236 -0.016 1 
0.465 -0.106 -0.006 1 
0.464 -0.149 -0.006 1 
0.466 0.103 0.004 1 
0.409 0.259 -0.014 1 
0.462 -0.168 -0.008 1 
0.464 -0.186 -0.006 1 
0.464 -0.226 -0.007 1 
0.464 -0.246 -0.007 1 
0.461 -0.265 -0.01 1 
0.44 0.253 -0.009 1 
0.459 -0.287 -0.01 1 
0.393 0.173 -0.016 1 
0.464 -0.325 -0.012 1 
0.443 -0.275 -0.011 1 
0.409 0.11 -0.014 1 
0.373 0.113 -0.015 1 
0.373 -0.019 0.009 1 
0.411 0.153 -0.014 1 
0.465 0.094 0.004 1 
0.438 -0.267 -0.015 1 
0.444 -0.32 -0.016 1 
0.403 -0.086 -0.016 1 
0.401 0.203 -0.015 1 
0.434 -0.049 -0.013 1 
0.45 0.144 -0.009 1 
0.417 -0.162 -0.015 1 
0.439 -0.245 -0.015 1 
0.469 -0.127 0.003 1 
0.459 0.143 -0.005 1 
0.454 -0.18 -0.009 1 
0.394 0.262 -0.015 1 
0.364 0.064 -0.015 1 
0.472 -0.167 0.003 1 
0.435 -0.233 -0.016 1 
0.39 0.102 -0.015 1 
0.474 -0.248 0.004 1 
0.361 0.112 -0.013 1 
0.45 0.123 -0.008 1 
0.462 0.242 0.002 1 
0.42 0.018 -0.014 1 
0.349 0.164 -0.014 1 
0.384 -0.13 -0.017 1 
0.413 -0.043 -0.014 1 
0.363 0.144 -0.015 1 
0.464 0.34 -0.003 1 
0.455 0.282 -0.005 1 
0.441 0.214 -0.008 1 
0.362 0.134 -0.014 1 
0.41 0.064 -0.014 1 
0.413 0.018 -0.014 1 
0.402 0.166 -0.014 1 
0.441 -0.045 -0.012 1 
0.464 0.083 -0.003 1 
0.374 -0.186 -0.021 1 
0.464 0.094 0 1 
0.37 -0.067 -0.015 1 
0.443 0.052 -0.011 1 
0.42 -0.275 -0.021 1 
0.432 0.113 -0.011 1 
0.476 -0.256 0.001 1 
0.424 -0.043 -0.015 1 
0.384 0.089 -0.015 1 
0.408 0.277 -0.015 1 
0.457 0.153 -0.005 1 
0.393 0.203 -0.015 1 
0.475 -0.246 0.004 1 
0.364 0.054 -0.015 1 
0.388 -0.095 -0.015 1 
0.475 -0.231 0.004 1 
0.337 -0.002 0.015 1 
0.464 0.043 -0.003 1 
0.374 0.154 -0.015 1 
0.378 0.234 -0.016 1 
0.398 -0.246 -0.025 1 
0.397 -0.256 -0.025 1 
0.465 -0.025 -0.005 1 
0.451 0.013 -0.01 1 
0.373 0.084 -0.015 1 
0.427 -0.171 -0.015 1 
0.434 -0.235 -0.016 1 
0.372 0.094 -0.015 1 
0.465 -0.007 -0.005 1 
0.432 -0.267 -0.016 1 
0.396 -0.266 -0.026 1 
0.406 -0.061 -0.014 1 
0.42 0.173 -0.012 1 
0.459 -0.297 -0.01 1 
0.413 -0.145 -0.015 1 
0.404 -0.165 -0.018 1 
0.465 0.342 0.005 1 
0.419 -0.246 -0.02 1 
0.353 0.144 -0.015 1 
0.409 0.124 -0.015 1 
0.444 0.013 -0.011 1 
0.471 -0.296 -0.007 1 
0.401 0.013 -0.015 1 
0.383 0.203 -0.016 1 
0.383 0.194 -0.016 1 
0.465 0.263 0.001 1 
0.424 -0.045 -0.015 1 
0.37 0.063 -0.015 1 
0.433 -0.216 -0.015 1 
0.325 0.001 0.016 1 
0.361 0.164 -0.015 1 
0.414 0.174 -0.013 1 
0.393 0.253 -0.017 1 
0.461 -0.015 -0.007 1 
0.466 0.114 0.003 1 
0.461 0.082 -0.005 1 
0.379 0.143 -0.014 1 
0.364 -0.087 -0.015 1 
0.418 0.005 -0.005 1 
0.392 0.113 -0.016 1 
0.464 0.143 -0.001 1 
0.364 -0.105 -0.017 1 
0.464 0.102 0 1 
0.473 -0.043 -0.035 1 
0.44 0.094 -0.011 1 
0.45 0.113 -0.008 1 
0.383 0.033 -0.016 1 
0.421 0.023 -0.015 1 
0.414 0.177 -0.013 1 
0.412 0.044 -0.014 1 
0.398 0.073 -0.015 1 
0.422 0.264 -0.013 1 
0.423 0.143 -0.012 1 
0.441 -0.285 -0.016 1 
0.45 0.274 -0.006 1 
0.372 -0.231 -0.025 1 
0.428 0.3 -0.016 1 
0.461 -0.025 -0.007 1 
0.401 -0.215 -0.018 1 
0.384 -0.091 -0.016 1 
0.389 -0.177 -0.018 1 
0.401 -0.177 -0.017 1 
0.411 0.084 -0.015 1 
0.412 -0.177 -0.016 1 
0.464 -0.108 -0.005 1 
0.404 0.079 -0.015 1 
0.434 0.024 -0.013 1 
0.372 0.033 -0.016 1 
0.413 0.013 -0.014 1 
0.362 -0.097 -0.016 1 
0.383 -0.176 -0.018 1 
0.464 0.262 0.004 1 
0.465 -0.155 -0.006 1 
0.383 -0.228 -0.026 1 
0.402 -0.095 -0.016 1 
0.444 -0.139 -0.012 1 
0.403 -0.126 -0.016 1 
0.42 0.259 -0.015 1 
0.381 0.134 -0.015 1 
0.374 -0.061 -0.014 1 
0.464 0.157 0.003 1 
0.364 -0.045 -0.014 1 
0.433 0.104 -0.011 1 
0.369 0.007 -0.014 1 
0.371 0.234 -0.016 1 
0.421 -0.186 -0.016 1 
0.465 0.281 0.003 1 
0.411 -0.206 -0.019 1 
0.392 0.134 -0.014 1 
0.434 0.034 -0.013 1 
0.358 0.183 -0.015 1 
0.405 0.17 -0.015 1 
0.443 -0.306 -0.018 1 
0.433 -0.056 -0.013 1 
0.464 0.132 -0.001 1 
0.453 0.083 -0.009 1 
0.434 -0.255 -0.016 1 
0.374 -0.161 -0.018 1 
0.381 -0.195 -0.02 1 
0.394 0.206 -0.015 1 
0.422 -0.126 -0.015 1 
0.371 0.044 -0.015 1 
0.371 0.173 -0.015 1 
0.363 0.048 -0.014 1 
0.358 0.055 -0.014 1 
0.419 0.094 -0.015 1 
0.465 0.172 0.003 1 
0.443 0.194 -0.008 1 
0.431 -0.168 -0.014 1 
0.451 0.023 -0.01 1 
0.411 0.082 -0.014 1 
0.469 -0.265 -0.006 1 
0.402 0.254 -0.015 1 
0.464 0.277 0.004 1 
0.362 0.14 -0.014 1 
0.412 0.033 -0.014 1 
0.474 -0.257 0.004 1 
0.394 -0.194 -0.018 1 
0.362 -0.115 -0.016 1 
0.38 0.064 -0.015 1 
0.392 -0.165 -0.018 1 
0.421 -0.116 -0.015 1 
0.462 -0.097 -0.007 1 
0.429 0.213 -0.01 1 
0.442 0.221 -0.009 1 
0.416 0.286 -0.015 1 
0.41 -0.276 -0.023 1 
0.479 -0.317 0.002 1 
0.463 0.072 -0.003 1 
0.464 0.054 -0.003 1 
0.412 0.183 -0.015 1 
0.464 -0.206 -0.006 1 
0.401 0.034 -0.015 1 
0.448 -0.165 -0.01 1 
0.45 0.174 -0.007 1 
0.399 -0.034 -0.016 1 
0.384 0.173 -0.015 1 
0.383 0.094 -0.014 1 
0.455 0.164 -0.005 1 
0.46 -0.276 -0.01 1 
0.422 -0.056 -0.015 1 
0.443 0.233 -0.009 1 
0.465 -0.095 -0.005 1 
0.455 0.194 -0.006 1 
0.462 0.213 0 1 
0.43 0.244 -0.012 1 
0.471 -0.04 -0.026 1 
0.465 -0.015 -0.005 1 
0.465 -0.076 -0.005 1 
0.459 -0.236 -0.008 1 
0.404 -0.247 -0.022 1 
0.384 -0.136 -0.017 1 
0.464 -0.308 -0.011 1 
0.394 0.192 -0.015 1 
0.365 0.204 -0.016 1 
0.363 0.213 -0.016 1 
0.366 -0.024 -0.015 1 
0.46 0.103 -0.005 1 
0.49 -0.051 -0.025 1 
0.39 -0.136 -0.017 1 
0.373 -0.166 -0.018 1 
0.467 0.122 0.003 1 
0.418 -0.207 -0.016 1 
0.454 -0.305 -0.015 1 
0.406 0.054 -0.015 1 
0.472 -0.176 0.002 1 
0.467 0.118 0.144 3 
0.482 -0.335 0.154 3 
0.467 0.112 0.144 3 
0.476 -0.247 0.112 3 
0.468 0.079 0.144 3 
0.468 0.074 0.144 3 
0.467 0.063 0.144 3 
0.467 0.052 0.144 3 
0.467 0.044 0.144 3 
0.468 0.345 0.1 3 
0.467 0.033 0.144 3 
0.472 -0.147 0.074 3 
0.467 0.022 0.144 3 
0.468 0.003 0.144 3 
0.469 -0.007 0.144 3 
0.469 -0.015 0.144 3 
0.469 -0.028 0.144 3 
0.479 -0.285 0.152 3 
0.481 -0.297 0.153 3 
0.482 -0.308 0.153 3 
0.483 -0.316 0.154 3 
0.482 -0.325 0.154 3 
0.464 0.34 0.062 3 
0.466 0.345 0.153 3 
0.475 -0.216 0.143 3 
0.472 -0.145 0.152 3 
0.473 -0.157 0.153 3 
0.465 0.301 0.043 3 
0.473 -0.166 0.153 3 
0.475 -0.265 0.104 3 
0.473 -0.175 0.153 3 
0.474 -0.187 0.154 3 
0.475 -0.196 0.154 3 
0.475 -0.205 0.154 3 
0.465 0.313 0.023 3 
0.465 0.183 0.044 3 
0.465 0.34 0.152 3 
0.467 0.332 0.153 3 
0.468 0.323 0.152 3 
0.474 -0.196 0.151 3 
0.466 0.233 0.063 3 
0.476 -0.226 0.152 3 
0.476 -0.235 0.152 3 
0.474 -0.266 0.012 3 
0.477 -0.258 0.153 3 
0.478 -0.265 0.154 3 
0.479 -0.275 0.154 3 
0.467 0.301 0.143 3 
0.47 -0.105 0.143 3 
0.471 -0.117 0.143 3 
0.471 -0.125 0.143 3 
0.472 -0.145 0.144 3 
0.473 -0.157 0.144 3 
0.473 -0.166 0.144 3 
0.482 -0.346 0.152 3 
0.467 0.342 0.144 3 
0.468 0.333 0.144 3 
0.468 0.322 0.144 3 
0.468 0.312 0.143 3 
0.471 -0.086 0.143 3 
0.466 0.284 0.142 3 
0.468 -0.015 0.082 3 
0.467 0.273 0.142 3 
0.466 0.153 0.063 3 
0.473 -0.177 0.142 3 
0.473 -0.186 0.142 3 
0.475 -0.195 0.142 3 
0.472 -0.167 0.094 3 
0.474 -0.207 0.142 3 
0.475 -0.21 0.143 3 
0.473 -0.126 0.163 3 
0.472 -0.156 0.124 3 
0.475 -0.237 0.092 3 
0.467 0.254 0.144 3 
0.466 0.244 0.144 3 
0.465 0.231 0.143 3 
0.467 0.224 0.144 3 
0.464 0.18 0.025 3 
0.467 0.212 0.143 3 
0.467 0.203 0.143 3 
0.467 0.191 0.143 3 
0.467 0.182 0.143 3 
0.466 0.173 0.142 3 
0.467 0.26 0.144 3 
0.467 0.162 0.142 3 
0.468 0.154 0.142 3 
0.468 0.143 0.142 3 
0.467 0.132 0.142 3 
0.468 0.104 0.142 3 
0.468 0.093 0.142 3 
0.47 -0.056 0.142 3 
0.47 -0.067 0.142 3 
0.468 0.022 0.103 3 
0.465 0.172 0.052 3 
0.471 -0.075 0.143 3 
0.478 -0.246 0.162 3 
0.474 -0.257 0.052 3 
0.468 -0.036 0.044 3 
0.475 -0.191 0.163 3 
0.476 -0.197 0.163 3 
0.466 0.114 0.052 3 
0.476 -0.206 0.163 3 
0.476 -0.215 0.164 3 
0.474 -0.257 0.044 3 
0.478 -0.228 0.164 3 
0.478 -0.237 0.164 3 
0.466 0.345 0.162 3 
0.471 -0.105 0.104 3 
0.477 -0.255 0.162 3 
0.478 -0.265 0.162 3 
0.479 -0.276 0.163 3 
0.479 -0.286 0.164 3 
0.48 -0.296 0.164 3 
0.467 0.204 0.154 3 
0.467 0.192 0.154 3 
0.466 0.183 0.154 3 
0.467 0.174 0.154 3 
0.467 0.163 0.153 3 
0.468 0.152 0.153 3 
0.468 0.327 0.164 3 
0.467 0.313 0.114 3 
0.473 -0.135 0.163 3 
0.472 -0.145 0.163 3 
0.474 -0.155 0.164 3 
0.483 -0.316 0.172 3 
0.483 -0.327 0.173 3 
0.471 -0.167 0.022 3 
0.484 -0.335 0.173 3 
0.484 -0.346 0.174 3 
0.485 -0.35 0.174 3 
0.465 0.341 0.164 3 
0.468 0.143 0.153 3 
0.464 0.334 0.117 3 
0.468 0.323 0.164 3 
0.469 0.314 0.164 3 
0.467 0.302 0.163 3 
0.467 0.292 0.163 3 
0.466 0.263 0.063 3 
0.467 0.283 0.162 3 
0.468 0.274 0.162 3 
0.474 -0.175 0.162 3 
0.467 0.123 0.123 3 
0.474 -0.187 0.162 3 
0.467 0.302 0.154 3 
0.472 -0.086 0.154 3 
0.472 -0.095 0.154 3 
0.472 -0.106 0.154 3 
0.472 -0.117 0.154 3 
0.481 -0.307 0.162 3 
0.483 -0.316 0.163 3 
0.482 -0.325 0.163 3 
0.465 0.258 0.104 3 
0.482 -0.336 0.164 3 
0.482 -0.347 0.164 3 
0.467 0.305 0.154 3 
0.471 -0.075 0.154 3 
0.466 0.294 0.154 3 
0.466 0.282 0.153 3 
0.467 0.261 0.153 3 
0.467 0.254 0.153 3 
0.466 0.244 0.152 3 
0.468 -0.137 0.014 3 
0.465 0.232 0.152 3 
0.466 0.223 0.152 3 
0.471 -0.135 0.083 3 
0.467 0.212 0.152 3 
0.472 -0.125 0.152 3 
0.467 0.052 0.152 3 
0.467 0.123 0.063 3 
0.468 0.132 0.153 3 
0.468 0.124 0.153 3 
0.468 0.033 0.063 3 
0.468 0.113 0.153 3 
0.468 0.104 0.153 3 
0.469 0.094 0.153 3 
0.476 -0.266 0.144 3 
0.469 0.083 0.153 3 
0.468 0.074 0.153 3 
0.468 0.063 0.153 3 
0.472 -0.137 0.152 3 
0.467 0.044 0.152 3 
0.467 0.033 0.152 3 
0.468 0.022 0.153 3 
0.468 0.014 0.153 3 
0.468 0.003 0.153 3 
0.468 -0.007 0.153 3 
0.47 -0.015 0.153 3 
0.469 -0.025 0.153 3 
0.47 -0.056 0.153 3 
0.464 0.333 0.062 3 
0.471 -0.067 0.154 3 
0.471 -0.097 0.124 3 
0.468 0.014 0.122 3 
0.469 0.003 0.123 3 
0.466 -0.076 0.012 3 
0.468 -0.007 0.122 3 
0.468 -0.015 0.122 3 
0.469 -0.025 0.123 3 
0.469 -0.036 0.123 3 
0.469 -0.047 0.123 3 
0.469 -0.055 0.123 3 
0.47 -0.066 0.123 3 
0.47 -0.075 0.123 3 
0.471 -0.086 0.123 3 
0.47 -0.155 0.014 3 
0.476 -0.288 0.093 3 
0.471 -0.105 0.124 3 
0.471 -0.125 0.124 3 
0.471 -0.136 0.124 3 
0.471 -0.145 0.124 3 
0.467 0.344 0.094 3 
0.474 -0.215 0.126 3 
0.465 0.203 0.082 3 
0.467 0.334 0.123 3 
0.466 0.323 0.123 3 
0.466 0.313 0.123 3 
0.467 0.154 0.123 3 
0.483 -0.346 0.134 3 
0.466 0.265 0.124 3 
0.466 0.262 0.124 3 
0.466 0.244 0.124 3 
0.465 0.234 0.124 3 
0.466 0.214 0.124 3 
0.467 0.202 0.123 3 
0.467 0.194 0.123 3 
0.466 0.184 0.123 3 
0.467 0.173 0.123 3 
0.466 0.164 0.123 3 
0.467 0.304 0.123 3 
0.467 0.134 0.123 3 
0.467 0.112 0.123 3 
0.467 0.104 0.123 3 
0.466 0.092 0.122 3 
0.467 0.074 0.122 3 
0.467 0.063 0.122 3 
0.466 0.054 0.122 3 
0.465 0.124 0.014 3 
0.466 0.044 0.122 3 
0.466 0.033 0.122 3 
0.466 0.022 0.122 3 
0.468 0.003 0.114 3 
0.466 0.103 0.114 3 
0.467 0.093 0.114 3 
0.467 0.084 0.114 3 
0.478 -0.315 0.043 3 
0.466 0.073 0.114 3 
0.466 0.062 0.114 3 
0.466 0.054 0.114 3 
0.466 0.044 0.114 3 
0.466 0.033 0.114 3 
0.468 0.022 0.114 3 
0.468 0.014 0.114 3 
0.466 0.114 0.114 3 
0.468 -0.007 0.114 3 
0.469 -0.015 0.114 3 
0.469 -0.025 0.114 3 
0.468 -0.036 0.114 3 
0.474 -0.227 0.117 3 
0.48 -0.357 0.121 3 
0.464 0.337 0.114 3 
0.465 0.335 0.114 3 
0.466 0.333 0.114 3 
0.466 0.322 0.114 3 
0.475 0.359 0.199 3 
0.476 -0.247 0.124 3 
0.467 0.294 0.122 3 
0.466 0.281 0.122 3 
0.472 -0.165 0.122 3 
0.473 -0.176 0.122 3 
0.474 -0.195 0.122 3 
0.474 -0.206 0.123 3 
0.474 -0.215 0.123 3 
0.475 -0.222 0.123 3 
0.464 0.11 0.012 3 
0.475 -0.225 0.123 3 
0.475 -0.237 0.123 3 
0.482 -0.335 0.133 3 
0.475 -0.256 0.124 3 
0.475 -0.265 0.124 3 
0.477 -0.286 0.122 3 
0.48 -0.308 0.123 3 
0.481 -0.326 0.124 3 
0.481 -0.337 0.124 3 
0.482 -0.349 0.124 3 
0.466 0.153 0.114 3 
0.467 0.202 0.112 3 
0.467 0.131 0.114 3 
0.466 0.122 0.114 3 
0.469 -0.025 0.133 3 
0.467 0.074 0.133 3 
0.467 0.063 0.133 3 
0.467 0.052 0.133 3 
0.467 0.044 0.133 3 
0.467 0.033 0.133 3 
0.467 0.022 0.133 3 
0.467 0.014 0.133 3 
0.468 0.003 0.133 3 
0.468 -0.007 0.133 3 
0.473 -0.217 0.064 3 
0.469 -0.015 0.133 3 
0.468 -0.007 0.082 3 
0.466 0.262 0.113 3 
0.469 -0.036 0.134 3 
0.47 -0.045 0.134 3 
0.47 -0.056 0.134 3 
0.47 -0.066 0.134 3 
0.47 -0.075 0.134 3 
0.471 -0.086 0.134 3 
0.482 -0.318 0.142 3 
0.483 -0.325 0.142 3 
0.484 -0.337 0.143 3 
0.483 -0.347 0.143 3 
0.467 0.197 0.134 3 
0.477 -0.236 0.144 3 
0.476 -0.247 0.144 3 
0.476 -0.257 0.144 3 
0.467 0.345 0.141 3 
0.474 -0.186 0.122 3 
0.475 -0.192 0.14 3 
0.478 -0.277 0.142 3 
0.479 -0.285 0.143 3 
0.472 -0.208 0.013 3 
0.48 -0.296 0.143 3 
0.481 -0.307 0.144 3 
0.466 0.32 0.134 3 
0.467 0.191 0.134 3 
0.467 0.182 0.134 3 
0.466 0.173 0.134 3 
0.466 0.162 0.134 3 
0.467 0.154 0.134 3 
0.467 0.134 0.134 3 
0.468 0.123 0.134 3 
0.467 0.112 0.133 3 
0.467 0.104 0.133 3 
0.467 0.093 0.133 3 
0.467 0.082 0.133 3 
0.476 -0.247 0.132 3 
0.475 -0.207 0.134 3 
0.467 0.014 0.092 3 
0.474 -0.209 0.134 3 
0.475 -0.216 0.134 3 
0.467 0.084 0.063 3 
0.467 0.345 0.133 3 
0.467 0.341 0.132 3 
0.467 0.334 0.132 3 
0.474 -0.198 0.131 3 
0.476 -0.226 0.132 3 
0.476 -0.235 0.132 3 
0.475 -0.195 0.134 3 
0.465 0.253 0.082 3 
0.476 -0.266 0.133 3 
0.481 -0.345 0.064 3 
0.472 -0.167 0.044 3 
0.477 -0.276 0.133 3 
0.478 -0.287 0.134 3 
0.479 -0.298 0.134 3 
0.48 -0.305 0.132 3 
0.481 -0.316 0.132 3 
0.482 -0.328 0.133 3 
0.474 -0.276 0.044 3 
0.466 0.223 0.132 3 
0.465 0.342 0.123 3 
0.467 0.304 0.134 3 
0.467 0.291 0.134 3 
0.465 0.314 0.074 3 
0.467 0.282 0.134 3 
0.466 0.271 0.133 3 
0.466 0.262 0.133 3 
0.464 0.13 0.02 3 
0.466 0.253 0.133 3 
0.467 0.242 0.133 3 
0.466 0.232 0.132 3 
0.476 -0.226 0.143 3 
0.466 0.214 0.132 3 
0.471 -0.097 0.132 3 
0.47 -0.116 0.132 3 
0.471 -0.125 0.132 3 
0.478 -0.315 0.032 3 
0.472 -0.137 0.132 3 
0.473 -0.146 0.133 3 
0.473 -0.157 0.133 3 
0.472 -0.165 0.133 3 
0.471 -0.176 0.133 3 
0.472 -0.185 0.133 3 
0.474 -0.167 0.167 3 
0.475 -0.249 0.084 3 
0.481 -0.285 0.194 3 
0.465 0.273 0.093 3 
0.484 -0.305 0.196 3 
0.464 0.312 0.014 3 
0.475 0.359 0.193 3 
0.471 0.21 0.184 3 
0.47 0.203 0.184 3 
0.466 0.043 0.103 3 
0.469 0.191 0.183 3 
0.469 0.182 0.183 3 
0.47 0.174 0.183 3 
0.481 -0.276 0.194 3 
0.472 -0.137 0.144 3 
0.469 0.162 0.182 3 
0.47 0.154 0.183 3 
0.471 0.143 0.182 3 
0.471 0.134 0.182 3 
0.476 -0.275 0.124 3 
0.472 0.123 0.182 3 
0.47 -0.105 0.134 3 
0.473 0.112 0.183 3 
0.473 0.104 0.183 3 
0.472 0.092 0.182 3 
0.471 0.311 0.191 3 
0.485 -0.306 0.2 3 
0.465 0.172 0.033 3 
0.486 -0.317 0.201 3 
0.487 -0.325 0.202 3 
0.487 -0.336 0.202 3 
0.488 -0.345 0.203 3 
0.471 0.347 0.194 3 
0.471 0.344 0.194 3 
0.472 0.334 0.194 3 
0.472 -0.147 0.094 3 
0.473 0.323 0.193 3 
0.467 -0.036 0.004 3 
0.474 0.034 0.185 3 
0.474 0.023 0.185 3 
0.474 -0.007 0.185 3 
0.473 -0.026 0.185 3 
0.478 -0.236 0.191 3 
0.465 0.252 0.124 3 
0.466 0.192 0.063 3 
0.479 -0.246 0.192 3 
0.481 -0.256 0.193 3 
0.47 -0.075 0.074 3 
0.482 -0.267 0.194 3 
0.484 -0.305 0.193 3 
0.467 0.003 0.092 3 
0.477 -0.085 0.184 3 
0.468 0.234 0.164 3 
0.477 -0.097 0.184 3 
0.477 -0.111 0.184 3 
0.473 -0.165 0.102 3 
0.476 -0.119 0.184 3 
0.476 -0.125 0.184 3 
0.475 -0.144 0.184 3 
0.484 -0.298 0.193 3 
0.467 0.143 0.134 3 
0.477 -0.077 0.184 3 
0.485 -0.313 0.194 3 
0.485 -0.316 0.194 3 
0.471 0.291 0.184 3 
0.465 0.183 0.033 3 
0.47 0.283 0.184 3 
0.47 0.271 0.183 3 
0.473 -0.226 0.052 3 
0.47 0.264 0.183 3 
0.469 0.254 0.182 3 
0.47 0.243 0.182 3 
0.47 0.233 0.182 3 
0.473 0.003 0.182 3 
0.472 0.084 0.182 3 
0.467 0.043 0.074 3 
0.471 0.072 0.181 3 
0.472 0.064 0.182 3 
0.472 0.053 0.182 3 
0.472 0.042 0.182 3 
0.469 0.113 0.162 3 
0.478 -0.315 0.014 3 
0.472 0.034 0.182 3 
0.473 0.023 0.182 3 
0.473 0.012 0.182 3 
0.472 -0.176 0.052 3 
0.466 0.254 0.074 3 
0.474 -0.007 0.182 3 
0.48 -0.315 0.123 3 
0.474 -0.015 0.183 3 
0.474 -0.026 0.183 3 
0.473 -0.037 0.173 3 
0.474 -0.037 0.183 3 
0.476 -0.046 0.183 3 
0.475 -0.057 0.183 3 
0.474 -0.059 0.182 3 
0.475 -0.065 0.183 3 
0.473 0.084 0.188 3 
0.471 0.163 0.189 3 
0.472 0.152 0.189 3 
0.467 0.084 0.122 3 
0.471 0.143 0.189 3 
0.472 0.132 0.188 3 
0.473 0.124 0.189 3 
0.473 0.073 0.188 3 
0.474 0.113 0.189 3 
0.469 0.279 0.174 3 
0.474 0.104 0.189 3 
0.473 0.093 0.188 3 
0.471 0.172 0.189 3 
0.474 0.062 0.188 3 
0.474 0.054 0.188 3 
0.475 0.045 0.189 3 
0.47 -0.045 0.142 3 
0.475 0.043 0.189 3 
0.474 0.037 0.188 3 
0.475 0.034 0.189 3 
0.475 0.023 0.189 3 
0.475 0.012 0.189 3 
0.467 0.043 0.052 3 
0.474 0.009 0.188 3 
0.472 0.273 0.193 3 
0.479 -0.297 0.123 3 
0.472 0.352 0.198 3 
0.473 0.342 0.198 3 
0.473 0.332 0.197 3 
0.473 0.32 0.196 3 
0.473 -0.156 0.102 3 
0.472 0.312 0.195 3 
0.473 0.303 0.195 3 
0.472 0.296 0.194 3 
0.471 0.291 0.193 3 
0.473 0.283 0.194 3 
0.474 0.003 0.188 3 
0.472 0.263 0.193 3 
0.471 0.253 0.192 3 
0.472 0.241 0.192 3 
0.472 0.232 0.191 3 
0.472 0.223 0.191 3 
0.47 -0.036 0.142 3 
0.47 0.213 0.19 3 
0.477 -0.298 0.023 3 
0.471 0.204 0.19 3 
0.471 0.192 0.19 3 
0.471 0.184 0.189 3 
0.479 -0.237 0.195 3 
0.478 -0.155 0.192 3 
0.468 0.343 0.184 3 
0.479 -0.167 0.192 3 
0.47 -0.066 0.074 3 
0.479 -0.176 0.193 3 
0.479 -0.185 0.193 3 
0.479 -0.197 0.193 3 
0.479 -0.206 0.193 3 
0.474 -0.129 0.172 3 
0.479 -0.215 0.194 3 
0.478 -0.227 0.194 3 
0.478 -0.146 0.191 3 
0.479 -0.246 0.195 3 
0.481 -0.256 0.196 3 
0.466 0.084 0.023 3 
0.482 -0.267 0.197 3 
0.483 -0.277 0.198 3 
0.464 0.319 0.054 3 
0.485 -0.282 0.199 3 
0.474 -0.198 0.139 3 
0.483 -0.287 0.198 3 
0.484 -0.295 0.199 3 
0.485 -0.299 0.199 3 
0.478 -0.077 0.19 3 
0.475 0.001 0.189 3 
0.475 -0.007 0.189 3 
0.475 -0.015 0.189 3 
0.474 -0.018 0.188 3 
0.475 -0.026 0.189 3 
0.475 -0.256 0.132 3 
0.476 -0.035 0.189 3 
0.475 -0.046 0.189 3 
0.476 -0.057 0.189 3 
0.476 -0.065 0.189 3 
0.468 -0.126 0.014 3 
0.466 0.158 0.084 3 
0.471 -0.045 0.153 3 
0.466 0.313 0.134 3 
0.478 -0.086 0.19 3 
0.478 -0.097 0.19 3 
0.479 -0.106 0.191 3 
0.478 -0.117 0.191 3 
0.478 -0.356 0.052 3 
0.478 -0.126 0.191 3 
0.471 -0.037 0.153 3 
0.478 -0.137 0.191 3 
0.479 -0.317 0.102 3 
0.474 -0.167 0.164 3 
0.469 0.321 0.173 3 
0.468 0.314 0.173 3 
0.467 0.303 0.172 3 
0.468 0.294 0.172 3 
0.474 -0.095 0.169 3 
0.474 -0.107 0.169 3 
0.474 -0.178 0.17 3 
0.477 -0.198 0.172 3 
0.477 -0.207 0.172 3 
0.467 0.114 0.063 3 
0.478 -0.217 0.173 3 
0.468 0.331 0.174 3 
0.475 -0.216 0.151 3 
0.478 -0.226 0.173 3 
0.475 -0.24 0.007 3 
0.479 -0.235 0.174 3 
0.479 -0.248 0.174 3 
0.474 -0.206 0.083 3 
0.477 -0.255 0.174 3 
0.465 0.294 0.063 3 
0.478 -0.266 0.174 3 
0.484 -0.346 0.18 3 
0.467 0.347 0.171 3 
0.475 -0.176 0.174 3 
0.475 -0.096 0.172 3 
0.475 -0.107 0.172 3 
0.475 -0.116 0.172 3 
0.474 -0.124 0.172 3 
0.475 -0.127 0.173 3 
0.475 -0.136 0.173 3 
0.474 -0.144 0.173 3 
0.474 -0.147 0.173 3 
0.474 -0.155 0.173 3 
0.475 -0.167 0.173 3 
0.47 -0.097 0.052 3 
0.469 0.099 0.164 3 
0.476 -0.186 0.174 3 
0.467 -0.085 0.012 3 
0.483 -0.317 0.181 3 
0.473 -0.185 0.094 3 
0.484 -0.325 0.182 3 
0.485 -0.333 0.183 3 
0.476 -0.297 0.064 3 
0.464 0.237 0.052 3 
0.485 -0.337 0.183 3 
0.486 -0.348 0.184 3 
0.467 0.344 0.174 3 
0.468 0.152 0.162 3 
0.467 0.243 0.164 3 
0.468 0.222 0.164 3 
0.468 0.213 0.163 3 
0.468 0.204 0.163 3 
0.467 0.192 0.163 3 
0.467 0.183 0.162 3 
0.471 -0.116 0.124 3 
0.467 0.172 0.162 3 
0.469 0.164 0.162 3 
0.469 -0.036 0.104 3 
0.465 0.282 0.082 3 
0.467 0.252 0.164 3 
0.468 0.144 0.162 3 
0.469 0.133 0.162 3 
0.47 0.122 0.162 3 
0.471 -0.056 0.162 3 
0.472 -0.067 0.162 3 
0.472 -0.075 0.162 3 
0.472 -0.086 0.162 3 
0.472 -0.095 0.163 3 
0.466 0.114 0.044 3 
0.473 -0.106 0.163 3 
0.464 0.277 0.023 3 
0.47 -0.007 0.164 3 
0.469 0.094 0.164 3 
0.469 0.083 0.164 3 
0.469 0.074 0.164 3 
0.468 0.063 0.164 3 
0.465 0.222 0.124 3 
0.469 0.044 0.164 3 
0.469 0.033 0.164 3 
0.48 -0.327 0.082 3 
0.47 0.023 0.164 3 
0.47 0.014 0.164 3 
0.47 0.003 0.164 3 
0.469 0.214 0.172 3 
0.47 -0.017 0.164 3 
0.471 -0.026 0.164 3 
0.471 -0.039 0.164 3 
0.471 -0.045 0.164 3 
0.479 -0.276 0.172 3 
0.479 -0.286 0.172 3 
0.481 -0.298 0.174 3 
0.484 -0.335 0.176 3 
0.474 0.356 0.171 3 
0.467 0.258 0.164 3 
0.467 0.273 0.153 3 
0.479 -0.257 0.183 3 
0.47 0.323 0.183 3 
0.471 0.314 0.183 3 
0.464 0.294 0.085 3 
0.471 0.304 0.182 3 
0.474 -0.079 0.177 3 
0.478 -0.217 0.182 3 
0.472 -0.176 0.072 3 
0.466 0.054 0.004 3 
0.478 -0.226 0.182 3 
0.479 -0.236 0.183 3 
0.479 -0.245 0.183 3 
0.47 0.334 0.183 3 
0.479 -0.267 0.184 3 
0.48 -0.277 0.184 3 
0.468 0.202 0.174 3 
0.468 0.19 0.174 3 
0.464 0.274 0.032 3 
0.469 0.182 0.174 3 
0.469 0.17 0.174 3 
0.469 0.162 0.174 3 
0.47 0.153 0.174 3 
0.47 0.142 0.174 3 
0.47 0.133 0.173 3 
0.478 -0.196 0.184 3 
0.471 0.222 0.182 3 
0.474 -0.048 0.18 3 
0.47 -0.055 0.063 3 
0.473 -0.065 0.179 3 
0.476 -0.148 0.182 3 
0.475 -0.156 0.182 3 
0.476 -0.355 0.014 3 
0.476 -0.165 0.182 3 
0.477 -0.177 0.183 3 
0.477 -0.186 0.183 3 
0.467 0.054 0.074 3 
0.477 -0.245 0.153 3 
0.467 0.014 0.144 3 
0.478 -0.205 0.184 3 
0.484 -0.318 0.191 3 
0.485 -0.326 0.192 3 
0.473 -0.197 0.052 3 
0.486 -0.335 0.193 3 
0.487 -0.347 0.194 3 
0.468 -0.007 0.044 3 
0.472 -0.359 0.189 3 
0.468 0.35 0.184 3 
0.468 -0.007 0.063 3 
0.482 -0.299 0.183 3 
0.473 -0.065 0.174 3 
0.466 0.103 0.044 3 
0.464 0.214 0.013 3 
0.474 -0.076 0.174 3 
0.474 -0.09 0.174 3 
0.474 -0.124 0.175 3 
0.474 -0.127 0.175 3 
0.474 -0.135 0.175 3 
0.474 -0.155 0.176 3 
0.479 -0.286 0.181 3 
0.466 0.294 0.142 3 
0.468 0.003 0.103 3 
0.468 0.003 0.004 3 
0.482 -0.306 0.183 3 
0.469 0.272 0.174 3 
0.482 -0.309 0.174 3 
0.475 -0.237 0.103 3 
0.468 0.262 0.173 3 
0.468 0.253 0.173 3 
0.469 0.244 0.173 3 
0.474 -0.257 0.072 3 
0.469 0.232 0.173 3 
0.469 0.223 0.173 3 
0.47 0.042 0.173 3 
0.471 0.123 0.174 3 
0.471 -0.097 0.143 3 
0.472 0.114 0.174 3 
0.471 0.103 0.173 3 
0.467 0.142 0.123 3 
0.471 0.094 0.173 3 
0.47 0.083 0.173 3 
0.47 0.072 0.173 3 
0.469 0.064 0.172 3 
0.47 0.053 0.173 3 
0.465 0.224 0.054 3 
0.473 -0.115 0.163 3 
0.47 0.034 0.173 3 
0.469 0.052 0.164 3 
0.471 0.023 0.173 3 
0.471 0.014 0.173 3 
0.471 0.003 0.173 3 
0.472 -0.007 0.173 3 
0.472 -0.015 0.173 3 
0.472 -0.026 0.173 3 
0.464 0.102 0.012 3 
0.473 -0.045 0.174 3 
0.472 -0.056 0.173 3 
0.47 -0.105 0.044 3 
0.467 0.054 0.044 3 
0.467 0.033 0.044 3 
0.468 0.022 0.044 3 
0.467 0.014 0.044 3 
0.468 0.003 0.044 3 
0.469 -0.015 0.044 3 
0.469 -0.026 0.044 3 
0.469 -0.045 0.044 3 
0.47 -0.056 0.044 3 
0.47 -0.075 0.044 3 
0.469 -0.085 0.044 3 
0.471 -0.097 0.044 3 
0.466 0.073 0.044 3 
0.471 -0.116 0.044 3 
0.471 -0.135 0.044 3 
0.472 -0.147 0.044 3 
0.472 -0.156 0.044 3 
0.472 -0.176 0.044 3 
0.472 -0.187 0.044 3 
0.473 -0.197 0.044 3 
0.473 -0.205 0.044 3 
0.473 -0.217 0.044 3 
0.473 -0.226 0.044 3 
0.473 -0.235 0.044 3 
0.466 0.213 0.043 3 
0.465 0.284 0.043 3 
0.465 0.262 0.043 3 
0.464 0.255 0.043 3 
0.468 -0.055 0.033 3 
0.464 0.223 0.019 3 
0.465 0.253 0.043 3 
0.464 0.249 0.043 3 
0.475 -0.246 0.007 3 
0.465 0.244 0.043 3 
0.465 0.232 0.043 3 
0.465 0.224 0.043 3 
0.474 -0.245 0.044 3 
0.465 0.203 0.043 3 
0.465 0.192 0.044 3 
0.464 0.185 0.044 3 
0.465 0.172 0.044 3 
0.466 0.164 0.044 3 
0.466 0.153 0.044 3 
0.466 0.144 0.044 3 
0.466 0.133 0.044 3 
0.466 0.122 0.044 3 
0.467 0.092 0.044 3 
0.466 0.084 0.044 3 
0.466 0.133 0.033 3 
0.465 0.253 0.032 3 
0.465 0.244 0.032 3 
0.464 0.235 0.032 3 
0.465 0.232 0.032 3 
0.465 0.224 0.032 3 
0.466 0.213 0.032 3 
0.465 0.203 0.032 3 
0.465 0.192 0.033 3 
0.465 0.163 0.033 3 
0.465 0.152 0.033 3 
0.465 0.144 0.033 3 
0.465 0.262 0.032 3 
0.466 0.122 0.033 3 
0.467 0.114 0.033 3 
0.467 0.103 0.033 3 
0.467 0.092 0.033 3 
0.467 0.073 0.033 3 
0.467 0.062 0.033 3 
0.467 0.054 0.033 3 
0.467 0.043 0.033 3 
0.467 0.033 0.033 3 
0.468 -0.085 0.023 3 
0.467 0.022 0.033 3 
0.465 0.331 0.034 3 
0.474 -0.267 0.044 3 
0.475 -0.283 0.044 3 
0.478 -0.295 0.044 3 
0.478 -0.305 0.043 3 
0.478 -0.325 0.043 3 
0.479 -0.347 0.043 3 
0.478 -0.356 0.043 3 
0.464 0.243 0.04 3 
0.464 0.274 0.037 3 
0.464 0.34 0.034 3 
0.463 0.332 0.034 3 
0.47 -0.066 0.044 3 
0.464 0.323 0.034 3 
0.464 0.313 0.034 3 
0.465 0.306 0.034 3 
0.465 0.303 0.034 3 
0.466 0.291 0.034 3 
0.465 0.281 0.034 3 
0.464 0.277 0.035 3 
0.479 -0.329 0.034 3 
0.48 -0.338 0.034 3 
0.48 -0.345 0.034 3 
0.478 -0.357 0.034 3 
0.466 0.282 0.054 3 
0.474 -0.251 0.061 3 
0.466 0.342 0.054 3 
0.464 0.336 0.054 3 
0.464 0.333 0.054 3 
0.465 0.331 0.054 3 
0.465 0.324 0.054 3 
0.464 0.313 0.054 3 
0.464 0.303 0.054 3 
0.465 0.301 0.054 3 
0.464 0.294 0.054 3 
0.465 0.291 0.054 3 
0.474 -0.236 0.061 3 
0.466 0.272 0.054 3 
0.465 0.262 0.054 3 
0.465 0.253 0.054 3 
0.465 0.244 0.054 3 
0.465 0.232 0.054 3 
0.466 0.213 0.054 3 
0.467 0.204 0.054 3 
0.466 0.192 0.054 3 
0.466 0.184 0.054 3 
0.466 0.164 0.052 3 
0.466 0.153 0.052 3 
0.475 -0.255 0.064 3 
0.472 -0.147 0.063 3 
0.471 -0.155 0.063 3 
0.472 -0.167 0.063 3 
0.472 -0.176 0.063 3 
0.464 0.211 0.016 3 
0.473 -0.188 0.064 3 
0.474 -0.206 0.064 3 
0.474 -0.227 0.064 3 
0.475 -0.237 0.064 3 
0.475 -0.246 0.064 3 
0.465 0.272 0.043 3 
0.466 0.144 0.052 3 
0.474 -0.257 0.064 3 
0.474 -0.267 0.064 3 
0.474 -0.276 0.064 3 
0.475 -0.28 0.064 3 
0.475 -0.286 0.064 3 
0.478 -0.308 0.064 3 
0.479 -0.316 0.064 3 
0.481 -0.338 0.064 3 
0.479 -0.357 0.064 3 
0.465 0.341 0.06 3 
0.464 0.313 0.06 3 
0.475 -0.287 0.052 3 
0.471 -0.147 0.052 3 
0.472 -0.156 0.052 3 
0.471 -0.166 0.052 3 
0.472 -0.187 0.052 3 
0.473 -0.205 0.052 3 
0.473 -0.217 0.052 3 
0.474 -0.236 0.052 3 
0.474 -0.245 0.052 3 
0.473 -0.266 0.052 3 
0.474 -0.276 0.052 3 
0.475 -0.28 0.052 3 
0.471 -0.135 0.052 3 
0.477 -0.297 0.052 3 
0.477 -0.307 0.052 3 
0.478 -0.315 0.052 3 
0.479 -0.326 0.052 3 
0.48 -0.337 0.052 3 
0.465 0.341 0.042 3 
0.464 0.336 0.042 3 
0.463 0.332 0.042 3 
0.465 0.331 0.042 3 
0.464 0.313 0.043 3 
0.464 0.303 0.043 3 
0.468 -0.015 0.052 3 
0.466 0.133 0.052 3 
0.466 0.103 0.052 3 
0.467 0.092 0.052 3 
0.467 0.084 0.052 3 
0.467 0.073 0.052 3 
0.468 0.062 0.052 3 
0.467 0.054 0.052 3 
0.468 0.033 0.052 3 
0.468 0.022 0.052 3 
0.468 0.014 0.052 3 
0.468 -0.007 0.052 3 
0.467 0.014 0.033 3 
0.469 -0.026 0.052 3 
0.463 0.283 0.012 3 
0.469 -0.036 0.052 3 
0.469 -0.047 0.052 3 
0.469 -0.055 0.052 3 
0.469 -0.066 0.052 3 
0.469 -0.077 0.052 3 
0.469 -0.085 0.052 3 
0.471 -0.105 0.052 3 
0.471 -0.116 0.052 3 
0.471 -0.127 0.052 3 
0.463 0.174 0.014 3 
0.48 -0.349 0.013 3 
0.464 0.293 0.012 3 
0.463 0.273 0.012 3 
0.463 0.264 0.013 3 
0.463 0.252 0.013 3 
0.463 0.243 0.013 3 
0.462 0.233 0.013 3 
0.462 0.224 0.013 3 
0.464 0.203 0.013 3 
0.463 0.193 0.014 3 
0.463 0.182 0.014 3 
0.479 -0.337 0.014 3 
0.463 0.162 0.014 3 
0.463 0.154 0.014 3 
0.465 0.132 0.014 3 
0.465 0.113 0.014 3 
0.464 0.107 0.015 3 
0.464 0.094 0.015 3 
0.464 0.07 0.015 3 
0.464 0.054 0.015 3 
0.464 0.043 0.015 3 
0.464 0.032 0.015 3 
0.464 0.022 0.015 3 
0.471 -0.195 0.022 3 
0.467 -0.066 0.023 3 
0.468 -0.077 0.023 3 
0.469 -0.096 0.023 3 
0.47 -0.107 0.022 3 
0.47 -0.116 0.022 3 
0.47 -0.127 0.022 3 
0.47 -0.135 0.022 3 
0.471 -0.147 0.022 3 
0.472 -0.156 0.022 3 
0.47 -0.175 0.022 3 
0.471 -0.187 0.022 3 
0.469 -0.115 0.014 3 
0.464 0.152 0.019 3 
0.461 0.333 0.014 3 
0.464 0.322 0.014 3 
0.464 0.303 0.014 3 
0.464 0.299 0.015 3 
0.464 0.203 0.016 3 
0.464 0.102 0.017 3 
0.464 0.078 0.017 3 
0.464 0.062 0.018 3 
0.477 -0.308 0.014 3 
0.478 -0.325 0.014 3 
0.472 -0.354 0.002 3 
0.466 -0.015 0.012 3 
0.466 -0.025 0.012 3 
0.466 -0.036 0.012 3 
0.465 -0.047 0.012 3 
0.465 -0.055 0.012 3 
0.466 -0.065 0.012 3 
0.467 -0.096 0.012 3 
0.468 -0.107 0.012 3 
0.475 -0.273 0.009 3 
0.465 0.209 0.008 3 
0.465 0.048 0.009 3 
0.465 -0.007 0.012 3 
0.466 0.133 0.003 3 
0.466 0.043 0.004 3 
0.466 0.032 0.004 3 
0.466 0.022 0.004 3 
0.467 0.014 0.004 3 
0.467 -0.007 0.004 3 
0.467 -0.015 0.004 3 
0.468 -0.026 0.004 3 
0.467 -0.047 0.004 3 
0.469 -0.055 0.004 3 
0.469 -0.115 0.004 3 
0.475 -0.286 0.012 3 
0.469 -0.146 0.014 3 
0.47 -0.166 0.014 3 
0.469 -0.177 0.014 3 
0.47 -0.186 0.014 3 
0.47 -0.195 0.014 3 
0.471 -0.216 0.013 3 
0.471 -0.225 0.013 3 
0.472 -0.235 0.013 3 
0.473 -0.245 0.013 3 
0.474 -0.257 0.013 3 
0.475 -0.277 0.012 3 
0.468 -0.055 0.023 3 
0.475 -0.296 0.012 3 
0.464 0.132 0.012 3 
0.464 0.094 0.012 3 
0.464 0.083 0.012 3 
0.464 0.072 0.012 3 
0.464 0.054 0.012 3 
0.465 0.043 0.012 3 
0.464 0.04 0.012 3 
0.464 0.024 0.012 3 
0.465 0.019 0.012 3 
0.465 0.003 0.012 3 
0.465 0.062 0.004 3 
0.474 -0.267 0.032 3 
0.475 -0.273 0.032 3 
0.475 -0.276 0.032 3 
0.476 -0.287 0.032 3 
0.477 -0.297 0.032 3 
0.478 -0.305 0.032 3 
0.464 0.262 0.029 3 
0.464 0.185 0.03 3 
0.465 0.316 0.025 3 
0.464 0.277 0.026 3 
0.464 0.232 0.027 3 
0.474 -0.257 0.032 3 
0.461 0.337 0.022 3 
0.462 0.334 0.022 3 
0.464 0.323 0.022 3 
0.474 -0.356 0.008 3 
0.465 0.316 0.023 3 
0.465 0.303 0.023 3 
0.465 0.284 0.023 3 
0.464 0.262 0.024 3 
0.465 0.256 0.024 3 
0.464 0.244 0.024 3 
0.465 0.241 0.024 3 
0.471 -0.136 0.033 3 
0.467 0.003 0.034 3 
0.468 -0.007 0.033 3 
0.468 -0.015 0.033 3 
0.468 -0.026 0.033 3 
0.469 -0.036 0.033 3 
0.469 -0.045 0.033 3 
0.469 -0.077 0.033 3 
0.471 -0.097 0.033 3 
0.47 -0.105 0.033 3 
0.471 -0.116 0.033 3 
0.471 -0.127 0.033 3 
0.464 0.232 0.024 3 
0.472 -0.147 0.033 3 
0.472 -0.156 0.033 3 
0.472 -0.167 0.033 3 
0.472 -0.176 0.033 3 
0.472 -0.187 0.033 3 
0.472 -0.196 0.033 3 
0.472 -0.205 0.033 3 
0.473 -0.217 0.033 3 
0.473 -0.226 0.033 3 
0.474 -0.236 0.033 3 
0.474 -0.245 0.032 3 
0.466 0.073 0.023 3 
0.465 0.172 0.022 3 
0.464 0.163 0.022 3 
0.465 0.158 0.022 3 
0.465 0.152 0.022 3 
0.465 0.144 0.022 3 
0.464 0.135 0.022 3 
0.465 0.133 0.022 3 
0.466 0.122 0.022 3 
0.466 0.114 0.022 3 
0.466 0.103 0.022 3 
0.465 0.094 0.023 3 
0.464 0.174 0.022 3 
0.465 0.064 0.023 3 
0.466 0.054 0.023 3 
0.465 0.032 0.023 3 
0.466 0.024 0.023 3 
0.466 0.014 0.023 3 
0.467 0.003 0.023 3 
0.467 -0.007 0.023 3 
0.468 -0.015 0.023 3 
0.467 -0.025 0.023 3 
0.467 -0.036 0.023 3 
0.468 -0.047 0.023 3 
0.474 -0.266 0.024 3 
0.465 0.224 0.024 3 
0.466 0.213 0.024 3 
0.465 0.203 0.024 3 
0.465 0.192 0.024 3 
0.465 0.183 0.024 3 
0.464 0.168 0.025 3 
0.472 -0.208 0.024 3 
0.473 -0.217 0.024 3 
0.473 -0.226 0.024 3 
0.474 -0.255 0.024 3 
0.475 -0.264 0.024 3 
0.472 -0.136 0.063 3 
0.475 -0.27 0.024 3 
0.475 -0.276 0.024 3 
0.476 -0.287 0.023 3 
0.478 -0.305 0.023 3 
0.478 -0.315 0.023 3 
0.478 -0.325 0.023 3 
0.48 -0.338 0.022 3 
0.478 -0.357 0.022 3 
0.464 0.309 0.02 3 
0.464 0.253 0.021 3 
0.464 0.183 0.022 3 
0.465 0.282 0.094 3 
0.477 -0.295 0.102 3 
0.479 -0.307 0.102 3 
0.48 -0.328 0.103 3 
0.48 -0.335 0.103 3 
0.481 -0.347 0.103 3 
0.479 -0.358 0.103 3 
0.467 0.062 0.044 3 
0.465 0.334 0.094 3 
0.466 0.322 0.094 3 
0.465 0.314 0.094 3 
0.465 0.304 0.094 3 
0.465 0.292 0.094 3 
0.474 -0.257 0.101 3 
0.466 0.043 0.023 3 
0.465 0.264 0.093 3 
0.466 0.103 0.074 3 
0.464 0.254 0.093 3 
0.465 0.248 0.093 3 
0.468 0.044 0.063 3 
0.466 0.242 0.093 3 
0.466 0.233 0.093 3 
0.466 0.224 0.093 3 
0.466 0.213 0.093 3 
0.466 0.204 0.093 3 
0.473 -0.185 0.102 3 
0.466 0.322 0.103 3 
0.466 0.312 0.103 3 
0.466 0.302 0.102 3 
0.466 0.293 0.102 3 
0.465 0.282 0.102 3 
0.465 0.273 0.102 3 
0.464 0.269 0.102 3 
0.471 -0.136 0.102 3 
0.473 -0.235 0.024 3 
0.471 -0.147 0.102 3 
0.473 -0.176 0.102 3 
0.466 0.192 0.093 3 
0.474 -0.197 0.103 3 
0.474 -0.206 0.103 3 
0.474 -0.215 0.103 3 
0.474 -0.227 0.103 3 
0.475 -0.234 0.103 3 
0.479 -0.336 0.043 3 
0.475 -0.246 0.104 3 
0.475 -0.255 0.104 3 
0.476 -0.275 0.104 3 
0.477 -0.289 0.104 3 
0.464 0.26 0.099 3 
0.474 -0.206 0.094 3 
0.47 -0.077 0.093 3 
0.471 -0.086 0.093 3 
0.472 -0.097 0.093 3 
0.472 -0.106 0.094 3 
0.471 -0.116 0.093 3 
0.47 -0.127 0.093 3 
0.464 0.191 0.022 3 
0.469 -0.135 0.093 3 
0.472 -0.156 0.094 3 
0.472 -0.176 0.094 3 
0.473 -0.197 0.094 3 
0.469 -0.066 0.093 3 
0.475 -0.204 0.092 3 
0.474 -0.215 0.092 3 
0.474 -0.227 0.092 3 
0.475 -0.234 0.092 3 
0.474 -0.239 0.092 3 
0.475 -0.246 0.092 3 
0.473 -0.196 0.064 3 
0.477 -0.288 0.044 3 
0.475 -0.255 0.092 3 
0.475 -0.268 0.092 3 
0.471 -0.127 0.044 3 
0.466 0.073 0.092 3 
0.467 0.182 0.093 3 
0.466 0.173 0.093 3 
0.466 0.164 0.093 3 
0.466 0.153 0.093 3 
0.466 0.142 0.093 3 
0.467 0.134 0.093 3 
0.466 0.122 0.093 3 
0.467 0.114 0.093 3 
0.467 0.103 0.093 3 
0.467 0.092 0.093 3 
0.466 0.084 0.092 3 
0.466 0.332 0.103 3 
0.466 0.062 0.092 3 
0.466 0.054 0.092 3 
0.467 0.043 0.092 3 
0.467 0.033 0.092 3 
0.467 0.022 0.092 3 
0.468 -0.007 0.093 3 
0.468 -0.015 0.093 3 
0.468 -0.025 0.093 3 
0.469 -0.036 0.093 3 
0.469 -0.047 0.093 3 
0.469 -0.055 0.093 3 
0.474 -0.215 0.114 3 
0.471 -0.105 0.113 3 
0.471 -0.116 0.113 3 
0.471 -0.128 0.113 3 
0.471 -0.136 0.113 3 
0.474 -0.186 0.114 3 
0.472 -0.148 0.113 3 
0.472 -0.156 0.113 3 
0.473 -0.165 0.113 3 
0.474 -0.177 0.114 3 
0.474 -0.197 0.114 3 
0.474 -0.206 0.114 3 
0.471 -0.097 0.113 3 
0.474 -0.227 0.114 3 
0.463 0.333 0.111 3 
0.475 -0.234 0.112 3 
0.475 -0.237 0.112 3 
0.475 -0.255 0.112 3 
0.465 0.291 0.023 3 
0.476 -0.266 0.113 3 
0.476 -0.275 0.113 3 
0.476 -0.285 0.113 3 
0.478 -0.296 0.114 3 
0.479 -0.307 0.114 3 
0.466 0.193 0.112 3 
0.466 0.293 0.114 3 
0.464 0.032 0.012 3 
0.465 0.283 0.113 3 
0.466 0.274 0.113 3 
0.466 0.252 0.113 3 
0.466 0.291 0.043 3 
0.466 0.243 0.113 3 
0.466 0.234 0.113 3 
0.466 0.222 0.112 3 
0.464 0.323 0.042 3 
0.466 0.213 0.112 3 
0.48 -0.315 0.114 3 
0.466 0.184 0.112 3 
0.466 0.173 0.112 3 
0.48 -0.327 0.064 3 
0.466 0.164 0.112 3 
0.467 0.142 0.112 3 
0.469 -0.047 0.112 3 
0.47 -0.055 0.112 3 
0.47 -0.066 0.112 3 
0.47 -0.075 0.112 3 
0.47 -0.086 0.112 3 
0.468 -0.066 0.033 3 
0.469 -0.047 0.104 3 
0.466 0.092 0.103 3 
0.466 0.084 0.103 3 
0.466 0.073 0.103 3 
0.466 0.062 0.103 3 
0.471 -0.097 0.082 3 
0.466 0.054 0.103 3 
0.468 0.033 0.103 3 
0.468 0.014 0.103 3 
0.468 -0.007 0.103 3 
0.468 -0.015 0.103 3 
0.469 -0.025 0.104 3 
0.467 0.103 0.103 3 
0.47 -0.055 0.104 3 
0.47 -0.066 0.104 3 
0.47 -0.075 0.104 3 
0.47 -0.086 0.104 3 
0.464 0.232 0.041 3 
0.471 -0.097 0.104 3 
0.47 -0.116 0.104 3 
0.466 0.272 0.063 3 
0.47 -0.127 0.104 3 
0.466 0.343 0.103 3 
0.464 0.333 0.103 3 
0.466 0.204 0.104 3 
0.48 -0.325 0.114 3 
0.474 -0.245 0.084 3 
0.48 -0.335 0.112 3 
0.48 -0.346 0.112 3 
0.474 -0.245 0.024 3 
0.479 -0.356 0.112 3 
0.466 0.246 0.104 3 
0.466 0.243 0.104 3 
0.466 0.234 0.104 3 
0.466 0.222 0.104 3 
0.466 0.213 0.104 3 
0.475 -0.277 0.092 3 
0.466 0.193 0.104 3 
0.467 0.182 0.104 3 
0.466 0.173 0.104 3 
0.48 -0.345 0.022 3 
0.466 0.164 0.104 3 
0.466 0.153 0.104 3 
0.467 0.142 0.104 3 
0.467 0.134 0.104 3 
0.467 0.123 0.104 3 
0.467 0.114 0.104 3 
0.467 0.043 0.044 3 
0.473 -0.217 0.072 3 
0.47 -0.116 0.074 3 
0.472 -0.127 0.074 3 
0.472 -0.136 0.074 3 
0.472 -0.156 0.074 3 
0.472 -0.167 0.074 3 
0.474 -0.267 0.075 3 
0.463 0.143 0.014 3 
0.473 -0.188 0.072 3 
0.474 -0.197 0.072 3 
0.474 -0.206 0.072 3 
0.467 0.084 0.033 3 
0.47 -0.105 0.074 3 
0.466 0.122 0.052 3 
0.473 -0.226 0.072 3 
0.474 -0.236 0.072 3 
0.475 -0.24 0.072 3 
0.47 -0.085 0.033 3 
0.474 -0.245 0.072 3 
0.475 -0.249 0.072 3 
0.474 -0.267 0.072 3 
0.475 -0.274 0.072 3 
0.475 -0.277 0.072 3 
0.476 -0.287 0.072 3 
0.467 0.062 0.074 3 
0.466 0.184 0.074 3 
0.466 0.172 0.074 3 
0.466 0.164 0.074 3 
0.466 0.153 0.074 3 
0.466 0.144 0.074 3 
0.467 0.134 0.074 3 
0.467 0.123 0.074 3 
0.466 0.114 0.074 3 
0.466 0.092 0.074 3 
0.466 0.084 0.074 3 
0.466 0.073 0.074 3 
0.476 -0.297 0.073 3 
0.468 0.033 0.074 3 
0.468 0.022 0.074 3 
0.468 0.014 0.074 3 
0.468 0.003 0.074 3 
0.468 -0.007 0.074 3 
0.468 -0.015 0.074 3 
0.469 -0.026 0.074 3 
0.468 -0.036 0.074 3 
0.47 -0.055 0.074 3 
0.47 -0.086 0.074 3 
0.47 -0.097 0.074 3 
0.468 -0.025 0.063 3 
0.465 0.163 0.063 3 
0.466 0.144 0.063 3 
0.467 0.134 0.063 3 
0.467 0.103 0.063 3 
0.467 0.092 0.063 3 
0.468 0.073 0.063 3 
0.468 0.054 0.063 3 
0.468 0.022 0.063 3 
0.468 0.014 0.063 3 
0.468 0.003 0.063 3 
0.468 -0.015 0.063 3 
0.466 0.172 0.063 3 
0.469 -0.036 0.063 3 
0.469 -0.047 0.063 3 
0.469 -0.066 0.063 3 
0.464 0.163 0.025 3 
0.47 -0.077 0.063 3 
0.47 -0.086 0.063 3 
0.471 -0.097 0.063 3 
0.471 -0.105 0.063 3 
0.471 -0.116 0.063 3 
0.48 -0.348 0.052 3 
0.471 -0.127 0.063 3 
0.465 0.304 0.062 3 
0.477 -0.305 0.073 3 
0.479 -0.316 0.073 3 
0.479 -0.326 0.073 3 
0.481 -0.338 0.073 3 
0.481 -0.345 0.073 3 
0.48 -0.355 0.073 3 
0.475 -0.255 0.069 3 
0.474 -0.276 0.069 3 
0.465 0.331 0.062 3 
0.465 0.324 0.062 3 
0.465 0.314 0.062 3 
0.466 0.192 0.074 3 
0.464 0.064 0.012 3 
0.465 0.282 0.063 3 
0.466 0.254 0.063 3 
0.468 0.003 0.052 3 
0.465 0.244 0.063 3 
0.465 0.253 0.024 3 
0.465 0.062 0.007 3 
0.466 0.224 0.063 3 
0.466 0.213 0.063 3 
0.466 0.204 0.063 3 
0.466 0.184 0.063 3 
0.465 0.304 0.082 3 
0.468 0.054 0.084 3 
0.467 0.043 0.084 3 
0.467 0.033 0.084 3 
0.467 0.022 0.084 3 
0.467 0.014 0.084 3 
0.465 0.341 0.083 3 
0.464 0.336 0.083 3 
0.463 0.332 0.082 3 
0.466 0.332 0.083 3 
0.465 0.324 0.083 3 
0.465 0.314 0.082 3 
0.466 0.062 0.084 3 
0.465 0.291 0.082 3 
0.465 0.273 0.082 3 
0.464 0.263 0.082 3 
0.465 0.26 0.082 3 
0.466 0.242 0.082 3 
0.468 0.062 0.063 3 
0.466 0.233 0.082 3 
0.466 0.224 0.082 3 
0.464 0.274 0.023 3 
0.466 0.213 0.082 3 
0.465 0.192 0.082 3 
0.466 0.153 0.084 3 
0.464 0.293 0.017 3 
0.477 -0.298 0.093 3 
0.478 -0.306 0.093 3 
0.478 -0.316 0.093 3 
0.479 -0.327 0.094 3 
0.48 -0.335 0.094 3 
0.482 -0.347 0.094 3 
0.48 -0.355 0.094 3 
0.464 0.256 0.088 3 
0.475 -0.207 0.089 3 
0.464 0.333 0.085 3 
0.466 0.184 0.082 3 
0.466 0.144 0.084 3 
0.466 0.133 0.084 3 
0.466 0.119 0.084 3 
0.466 0.114 0.084 3 
0.466 0.103 0.084 3 
0.465 0.135 0.011 3 
0.467 0.092 0.084 3 
0.467 0.084 0.084 3 
0.46 0.336 0.014 3 
0.466 0.073 0.084 3 
0.469 -0.047 0.074 3 
0.465 0.331 0.074 3 
0.475 -0.277 0.084 3 
0.476 -0.287 0.084 3 
0.477 -0.295 0.084 3 
0.478 -0.306 0.084 3 
0.465 0.291 0.074 3 
0.478 -0.316 0.084 3 
0.48 -0.337 0.082 3 
0.481 -0.345 0.082 3 
0.48 -0.355 0.082 3 
0.464 0.34 0.074 3 
0.464 0.333 0.074 3 
0.475 -0.268 0.084 3 
0.465 0.324 0.074 3 
0.465 0.304 0.074 3 
0.465 0.282 0.074 3 
0.465 0.273 0.074 3 
0.465 0.262 0.074 3 
0.466 0.242 0.074 3 
0.466 0.233 0.074 3 
0.466 0.224 0.074 3 
0.466 0.213 0.074 3 
0.465 0.03 0.012 3 
0.466 0.204 0.074 3 
0.47 -0.116 0.082 3 
0.466 0.172 0.082 3 
0.473 -0.185 0.083 3 
0.468 0.003 0.082 3 
0.469 -0.026 0.082 3 
0.468 -0.036 0.082 3 
0.469 -0.047 0.082 3 
0.469 -0.055 0.082 3 
0.47 -0.066 0.082 3 
0.47 -0.077 0.082 3 
0.47 -0.086 0.082 3 
0.471 -0.105 0.082 3 
0.467 0.304 0.114 3 
0.47 -0.127 0.082 3 
0.472 -0.147 0.083 3 
0.472 -0.156 0.083 3 
0.472 -0.167 0.083 3 
0.465 0.014 0.012 3 
0.472 -0.176 0.083 3 
0.473 -0.197 0.083 3 
0.474 -0.215 0.083 3 
0.474 -0.227 0.083 3 
0.474 -0.236 0.083 3 
0.475 -0.255 0.084 3 
