# .PCD v0.7 - Point Cloud Data file
FIELDS x y z intensity
SIZE 4 4 4 4
TYPE F F F F
COUNT 1 1 1 1
WIDTH 2430
HEIGHT 1
VIEWPOINT 0 0 0 1 0 0 0
POINTS 2430
DATA ascii
0.292 0.001 0.021 0 
0.295 0.002 0.019 0 
0.294 -0.015 0.021 0 
0.292 -0.005 0.021 0 
0.371 -0.237 -0.025 1 
0.373 -0.199 -0.023 1 
0.364 -0.167 -0.019 1 
0.364 -0.155 -0.018 1 
0.363 -0.135 -0.017 1 
0.361 -0.126 -0.016 1 
0.363 -0.105 -0.017 1 
0.362 -0.095 -0.016 1 
0.363 -0.066 -0.016 1 
0.36 -0.055 -0.015 1 
0.363 -0.045 -0.016 1 
0.363 0.023 -0.016 1 
0.36 0.044 -0.015 1 
0.36 0.063 -0.015 1 
0.356 0.094 -0.014 1 
0.354 0.11 -0.014 1 
0.355 0.113 -0.015 1 
0.353 0.124 -0.014 1 
0.35 0.163 -0.015 1 
0.376 -0.243 -0.025 1 
0.373 -0.237 -0.023 1 
0.374 -0.231 -0.023 1 
0.364 -0.089 -0.015 1 
0.363 -0.085 -0.014 1 
0.364 -0.079 -0.015 1 
0.365 -0.062 -0.015 1 
0.364 -0.056 -0.014 1 
0.364 -0.054 -0.014 1 
0.364 0.074 -0.015 1 
0.363 0.093 -0.015 1 
0.361 0.101 -0.015 1 
0.36 0.103 -0.014 1 
0.363 0.123 -0.016 1 
0.359 0.143 -0.015 1 
0.354 0.171 -0.015 1 
0.351 0.214 -0.016 1 
0.382 -0.252 -0.025 1 
0.379 -0.226 -0.022 1 
0.374 -0.215 -0.021 1 
0.374 -0.186 -0.019 1 
0.374 -0.175 -0.019 1 
0.371 -0.165 -0.017 1 
0.374 -0.159 -0.018 1 
0.374 -0.138 -0.018 1 
0.374 -0.126 -0.017 1 
0.374 -0.116 -0.017 1 
0.371 -0.096 -0.016 1 
0.368 -0.089 -0.014 1 
0.372 -0.075 -0.016 1 
0.368 -0.053 -0.014 1 
0.372 -0.045 -0.015 1 
0.374 -0.036 -0.016 1 
0.373 0.013 -0.016 1 
0.372 0.024 -0.016 1 
0.371 0.063 -0.016 1 
0.368 0.084 -0.015 1 
0.365 0.107 -0.014 1 
0.364 0.114 -0.014 1 
0.364 0.116 -0.014 1 
0.363 0.133 -0.014 1 
0.363 0.134 -0.015 1 
0.362 0.143 -0.014 1 
0.386 -0.252 -0.024 1 
0.382 -0.156 -0.019 1 
0.381 -0.145 -0.018 1 
0.38 -0.116 -0.017 1 
0.374 -0.085 -0.015 1 
0.374 -0.066 -0.014 1 
0.374 -0.055 -0.014 1 
0.291 -0.005 0.014 1 
0.373 0.043 -0.014 1 
0.374 0.054 -0.015 1 
0.373 0.094 -0.015 1 
0.374 0.102 -0.016 1 
0.373 0.123 -0.016 1 
0.369 0.133 -0.015 1 
0.364 0.184 -0.015 1 
0.364 0.199 -0.016 1 
0.361 0.213 -0.016 1 
0.361 0.225 -0.016 1 
0.396 -0.247 -0.025 1 
0.384 -0.175 -0.018 1 
0.384 -0.128 -0.017 1 
0.382 -0.105 -0.016 1 
0.382 -0.095 -0.015 1 
0.384 -0.089 -0.016 1 
0.384 -0.075 -0.016 1 
0.377 -0.065 -0.013 1 
0.378 -0.06 -0.014 1 
0.383 -0.057 -0.015 1 
0.441 -0.038 -0.035 1 
0.293 0 0.014 1 
0.382 0.014 -0.015 1 
0.381 0.023 -0.015 1 
0.38 0.039 -0.015 1 
0.378 0.044 -0.014 1 
0.379 0.054 -0.015 1 
0.381 0.064 -0.015 1 
0.38 0.074 -0.015 1 
0.378 0.088 -0.015 1 
0.373 0.155 -0.015 1 
0.372 0.183 -0.016 1 
0.393 -0.259 -0.022 1 
0.394 -0.237 -0.021 1 
0.393 -0.219 -0.02 1 
0.393 -0.106 -0.017 1 
0.39 -0.075 -0.016 1 
0.386 -0.068 -0.014 1 
0.389 -0.065 -0.015 1 
0.386 -0.062 -0.014 1 
0.391 -0.055 -0.016 1 
0.387 -0.044 -0.015 1 
0.467 -0.047 -0.041 1 
0.296 0.002 0.014 1 
0.384 0.083 -0.015 1 
0.383 0.084 -0.014 1 
0.38 0.093 -0.013 1 
0.382 0.098 -0.014 1 
0.383 0.103 -0.015 1 
0.382 0.114 -0.015 1 
0.383 0.133 -0.015 1 
0.377 0.144 -0.014 1 
0.382 0.164 -0.016 1 
0.374 0.2 -0.015 1 
0.37 0.223 -0.015 1 
0.399 -0.247 -0.021 1 
0.392 -0.207 -0.017 1 
0.391 -0.185 -0.016 1 
0.393 -0.125 -0.015 1 
0.394 -0.115 -0.016 1 
0.394 -0.096 -0.015 1 
0.393 -0.048 -0.015 1 
0.392 -0.039 -0.014 1 
0.392 0.03 -0.015 1 
0.392 0.043 -0.015 1 
0.392 0.053 -0.015 1 
0.392 0.063 -0.015 1 
0.392 0.073 -0.015 1 
0.39 0.083 -0.015 1 
0.389 0.114 -0.015 1 
0.387 0.121 -0.014 1 
0.388 0.124 -0.015 1 
0.387 0.127 -0.014 1 
0.385 0.147 -0.014 1 
0.384 0.161 -0.014 1 
0.383 0.174 -0.015 1 
0.38 0.187 -0.014 1 
0.374 0.234 -0.015 1 
0.398 -0.265 -0.019 1 
0.383 -0.219 -0.021 1 
0.402 -0.225 -0.019 1 
0.401 -0.215 -0.018 1 
0.401 -0.167 -0.017 1 
0.401 -0.156 -0.016 1 
0.399 -0.126 -0.015 1 
0.4 -0.096 -0.015 1 
0.402 -0.086 -0.016 1 
0.4 -0.075 -0.015 1 
0.402 -0.056 -0.015 1 
0.4 -0.051 -0.015 1 
0.397 -0.046 -0.014 1 
0.396 -0.04 -0.013 1 
0.398 0.048 -0.015 1 
0.394 0.093 -0.014 1 
0.392 0.1 -0.013 1 
0.395 0.132 -0.015 1 
0.394 0.133 -0.015 1 
0.394 0.144 -0.015 1 
0.394 0.153 -0.015 1 
0.393 0.163 -0.015 1 
0.39 0.173 -0.015 1 
0.387 0.224 -0.016 1 
0.38 0.243 -0.015 1 
0.404 -0.277 -0.019 1 
0.414 -0.26 -0.021 1 
0.407 -0.237 -0.018 1 
0.403 -0.185 -0.016 1 
0.404 -0.176 -0.016 1 
0.403 -0.146 -0.015 1 
0.404 -0.142 -0.015 1 
0.403 -0.123 -0.014 1 
0.406 -0.096 -0.015 1 
0.407 -0.086 -0.015 1 
0.364 -0.04 -0.016 1 
0.401 0.013 -0.013 1 
0.402 0.023 -0.013 1 
0.401 0.042 -0.013 1 
0.401 0.053 -0.013 1 
0.401 0.064 -0.013 1 
0.401 0.074 -0.014 1 
0.402 0.083 -0.014 1 
0.382 -0.186 -0.018 1 
0.393 -0.146 -0.016 1 
0.401 0.104 -0.014 1 
0.403 0.114 -0.015 1 
0.374 -0.107 -0.017 1 
0.401 0.124 -0.014 1 
0.399 0.152 -0.015 1 
0.396 0.18 -0.015 1 
0.395 0.186 -0.015 1 
0.391 0.194 -0.014 1 
0.392 0.234 -0.016 1 
0.388 0.237 -0.015 1 
0.382 0.243 -0.013 1 
0.386 0.25 -0.015 1 
0.393 0.261 -0.017 1 
0.421 -0.279 -0.021 1 
0.412 -0.266 -0.019 1 
0.413 -0.215 -0.017 1 
0.413 -0.205 -0.017 1 
0.411 -0.196 -0.016 1 
0.377 -0.033 -0.017 1 
0.406 -0.178 -0.014 1 
0.29 -0.015 0.014 1 
0.408 -0.175 -0.015 1 
0.411 -0.165 -0.015 1 
0.41 -0.152 -0.015 1 
0.351 0.19 -0.015 1 
0.411 -0.135 -0.015 1 
0.413 -0.126 -0.015 1 
0.413 -0.11 -0.015 1 
0.412 -0.105 -0.014 1 
0.411 -0.085 -0.014 1 
0.414 -0.068 -0.015 1 
0.412 -0.045 -0.014 1 
0.412 -0.043 -0.014 1 
0.451 -0.04 -0.025 1 
0.393 -0.175 -0.017 1 
0.318 -0.02 0.012 1 
0.372 0.033 -0.016 1 
0.411 0.013 -0.014 1 
0.408 0.033 -0.013 1 
0.402 0.142 -0.013 1 
0.402 0.154 -0.013 1 
0.402 0.163 -0.013 1 
0.393 0.203 -0.012 1 
0.4 0.222 -0.015 1 
0.4 0.234 -0.016 1 
0.389 0.253 -0.014 1 
0.424 -0.27 -0.019 1 
0.423 -0.258 -0.019 1 
0.424 -0.245 -0.018 1 
0.424 -0.237 -0.018 1 
0.418 -0.187 -0.015 1 
0.417 -0.162 -0.015 1 
0.413 -0.145 -0.013 1 
0.414 -0.141 -0.013 1 
0.428 -0.046 -0.016 1 
0.414 0.049 -0.013 1 
0.412 0.073 -0.012 1 
0.412 0.114 -0.013 1 
0.4 0.212 -0.013 1 
0.403 0.222 -0.014 1 
0.405 0.234 -0.015 1 
0.402 0.244 -0.014 1 
0.404 0.254 -0.015 1 
0.401 0.256 -0.015 1 
0.397 0.257 -0.014 1 
0.403 0.269 -0.016 1 
0.398 0.266 -0.014 1 
0.423 -0.299 -0.018 1 
0.423 -0.293 -0.018 1 
0.424 -0.226 -0.015 1 
0.421 -0.217 -0.015 1 
0.422 -0.207 -0.015 1 
0.423 -0.195 -0.015 1 
0.423 -0.185 -0.014 1 
0.419 -0.175 -0.013 1 
0.418 -0.155 -0.012 1 
0.42 -0.125 -0.012 1 
0.419 -0.115 -0.012 1 
0.366 0.214 -0.015 1 
0.419 -0.106 -0.012 1 
0.421 -0.086 -0.012 1 
0.422 -0.075 -0.012 1 
0.424 -0.066 -0.013 1 
0.424 -0.057 -0.013 1 
0.424 -0.05 -0.013 1 
0.467 -0.047 -0.025 1 
0.312 -0.015 0.017 1 
0.354 0.138 -0.015 1 
0.313 -0.01 0.017 1 
0.319 0 0.015 1 
0.323 0.001 0.014 1 
0.422 0.023 -0.013 1 
0.416 -0.175 -0.015 1 
0.422 0.044 -0.013 1 
0.421 0.053 -0.012 1 
0.419 0.064 -0.012 1 
0.41 0.133 -0.011 1 
0.41 0.143 -0.011 1 
0.414 0.154 -0.012 1 
0.409 0.192 -0.012 1 
0.404 0.203 -0.011 1 
0.413 0.236 -0.015 1 
0.404 0.248 -0.013 1 
0.411 0.269 -0.015 1 
0.428 -0.277 -0.016 1 
0.433 -0.245 -0.016 1 
0.431 -0.235 -0.015 1 
0.43 -0.229 -0.015 1 
0.423 -0.208 -0.012 1 
0.426 -0.205 -0.013 1 
0.381 -0.071 -0.015 1 
0.429 -0.195 -0.014 1 
0.424 -0.146 -0.011 1 
0.424 -0.144 -0.011 1 
0.477 -0.046 -0.025 1 
0.423 0.074 -0.011 1 
0.424 0.091 -0.011 1 
0.374 -0.206 -0.022 1 
0.424 0.112 -0.012 1 
0.422 0.123 -0.011 1 
0.36 0.163 -0.016 1 
0.414 0.174 -0.011 1 
0.381 0.033 -0.015 1 
0.414 0.179 -0.011 1 
0.414 0.224 -0.012 1 
0.413 0.244 -0.012 1 
0.417 0.282 -0.015 1 
0.381 0.118 -0.014 1 
0.411 0.281 -0.014 1 
0.434 -0.305 -0.016 1 
0.433 -0.292 -0.015 1 
0.434 -0.269 -0.014 1 
0.434 -0.246 -0.014 1 
0.434 -0.241 -0.013 1 
0.434 -0.227 -0.013 1 
0.434 -0.22 -0.013 1 
0.434 -0.185 -0.012 1 
0.433 -0.177 -0.012 1 
0.432 -0.116 -0.011 1 
0.432 -0.106 -0.011 1 
0.434 -0.095 -0.011 1 
0.433 -0.085 -0.011 1 
0.434 -0.076 -0.011 1 
0.434 -0.066 -0.011 1 
0.433 -0.054 -0.01 1 
0.456 -0.045 -0.016 1 
0.476 -0.046 -0.021 1 
0.481 -0.041 -0.023 1 
0.321 -0.016 0.017 1 
0.324 -0.012 0.016 1 
0.329 -0.009 0.015 1 
0.334 -0.002 0.014 1 
0.335 0.001 0.014 1 
0.433 0.024 -0.011 1 
0.433 0.034 -0.011 1 
0.433 0.043 -0.011 1 
0.43 0.052 -0.01 1 
0.431 0.074 -0.011 1 
0.414 -0.057 -0.015 1 
0.43 0.093 -0.011 1 
0.431 0.113 -0.011 1 
0.42 0.173 -0.01 1 
0.419 0.183 -0.01 1 
0.421 0.194 -0.01 1 
0.419 0.264 -0.012 1 
0.421 0.274 -0.013 1 
0.441 -0.316 -0.015 1 
0.443 -0.302 -0.015 1 
0.434 -0.278 -0.012 1 
0.392 0.244 -0.014 1 
0.434 -0.263 -0.012 1 
0.434 -0.155 -0.009 1 
0.433 -0.146 -0.009 1 
0.438 -0.136 -0.01 1 
0.424 0.079 -0.011 1 
0.438 -0.087 -0.009 1 
0.44 -0.075 -0.01 1 
0.441 -0.065 -0.01 1 
0.439 -0.055 -0.01 1 
0.442 -0.048 -0.01 1 
0.467 -0.042 -0.016 1 
0.46 -0.035 -0.015 1 
0.424 0.151 -0.01 1 
0.349 -0.015 0.012 1 
0.402 -0.235 -0.019 1 
0.363 -0.01 0.008 1 
0.368 -0.006 0.007 1 
0.375 -0.001 0.005 1 
0.434 0.116 -0.009 1 
0.432 0.153 -0.01 1 
0.429 0.164 -0.009 1 
0.42 0.203 -0.008 1 
0.424 0.217 -0.009 1 
0.422 0.234 -0.009 1 
0.424 0.238 -0.01 1 
0.424 0.252 -0.011 1 
0.443 -0.305 -0.012 1 
0.443 -0.29 -0.012 1 
0.442 -0.265 -0.011 1 
0.413 0.103 -0.013 1 
0.444 -0.238 -0.011 1 
0.442 -0.226 -0.01 1 
0.443 -0.216 -0.01 1 
0.443 -0.186 -0.009 1 
0.444 -0.176 -0.01 1 
0.443 -0.165 -0.009 1 
0.443 -0.116 -0.008 1 
0.444 -0.106 -0.009 1 
0.411 -0.096 -0.014 1 
0.444 -0.104 -0.009 1 
0.444 0.013 -0.009 1 
0.443 0.032 -0.008 1 
0.443 0.042 -0.008 1 
0.441 0.054 -0.008 1 
0.441 0.062 -0.008 1 
0.444 0.073 -0.009 1 
0.443 0.082 -0.009 1 
0.441 0.092 -0.008 1 
0.433 0.182 -0.008 1 
0.429 0.192 -0.008 1 
0.429 0.213 -0.008 1 
0.433 0.224 -0.009 1 
0.431 0.234 -0.009 1 
0.431 0.261 -0.01 1 
0.432 0.274 -0.011 1 
0.422 0.293 -0.009 1 
0.45 -0.316 -0.012 1 
0.449 -0.275 -0.01 1 
0.443 -0.199 -0.007 1 
0.444 0.123 -0.007 1 
0.443 0.133 -0.007 1 
0.44 0.163 -0.007 1 
0.434 0.244 -0.008 1 
0.434 0.247 -0.008 1 
0.433 0.284 -0.009 1 
0.433 0.293 -0.009 1 
0.454 -0.261 -0.008 1 
0.454 -0.238 -0.007 1 
0.453 -0.215 -0.007 1 
0.453 -0.198 -0.007 1 
0.454 -0.155 -0.006 1 
0.455 -0.145 -0.006 1 
0.453 -0.136 -0.006 1 
0.453 -0.115 -0.006 1 
0.454 -0.097 -0.006 1 
0.453 -0.055 -0.005 1 
0.455 -0.037 -0.006 1 
0.452 0.003 -0.005 1 
0.449 0.064 -0.005 1 
0.451 0.074 -0.005 1 
0.449 0.084 -0.005 1 
0.449 0.092 -0.005 1 
0.449 0.112 -0.005 1 
0.448 0.122 -0.005 1 
0.448 0.133 -0.005 1 
0.448 0.143 -0.006 1 
0.447 0.153 -0.006 1 
0.445 0.163 -0.005 1 
0.445 0.169 -0.006 1 
0.442 0.172 -0.005 1 
0.443 0.194 -0.006 1 
0.441 0.212 -0.006 1 
0.443 0.224 -0.006 1 
0.44 0.233 -0.006 1 
0.44 0.244 -0.006 1 
0.429 0.134 -0.011 1 
0.44 0.261 -0.007 1 
0.459 -0.257 -0.006 1 
0.455 -0.225 -0.005 1 
0.455 -0.205 -0.005 1 
0.456 -0.192 -0.005 1 
0.454 -0.058 -0.003 1 
0.454 -0.035 -0.003 1 
0.454 -0.027 -0.003 1 
0.344 0.204 -0.015 1 
0.454 0.003 -0.003 1 
0.441 0.203 -0.003 1 
0.448 0.214 -0.005 1 
0.447 0.222 -0.005 1 
0.447 0.225 -0.005 1 
0.444 0.245 -0.004 1 
0.445 0.263 -0.005 1 
0.445 0.272 -0.005 1 
0.443 0.273 -0.005 1 
0.444 0.283 -0.006 1 
0.442 0.293 -0.006 1 
0.441 0.301 -0.006 1 
0.441 0.311 -0.006 1 
0.442 0.315 -0.006 1 
0.464 -0.325 -0.006 1 
0.381 0.184 -0.015 1 
0.462 -0.319 -0.006 1 
0.461 -0.295 -0.005 1 
0.442 0.252 -0.007 1 
0.464 -0.286 -0.005 1 
0.454 0.023 -0.001 1 
0.454 0.044 -0.001 1 
0.454 0.104 -0.001 1 
0.453 0.114 -0.001 1 
0.461 -0.308 -0.002 1 
0.464 -0.286 -0.002 1 
0.464 -0.267 0 1 
0.465 -0.247 0 1 
0.459 -0.185 0.002 1 
0.458 -0.176 0.002 1 
0.458 -0.165 0.002 1 
0.402 -0.199 -0.016 1 
0.462 -0.145 0.002 1 
0.458 -0.117 0.003 1 
0.458 -0.106 0.003 1 
0.453 -0.297 -0.009 1 
0.455 -0.006 0.003 1 
0.456 0.003 0.003 1 
0.457 0.013 0.003 1 
0.455 0.024 0.003 1 
0.454 0.026 0.004 1 
0.455 0.044 0.003 1 
0.454 0.054 0.003 1 
0.442 0.315 -0.004 1 
0.455 0.112 0.003 1 
0.455 0.131 0.003 1 
0.454 0.133 0.003 1 
0.454 0.144 0.003 1 
0.455 0.147 0.002 1 
0.454 0.171 0.002 1 
0.454 0.179 0.002 1 
0.455 0.183 0.002 1 
0.455 0.194 0.001 1 
0.455 0.202 0.001 1 
0.455 0.231 0.001 1 
0.455 0.24 0.001 1 
0.45 0.304 0 1 
0.411 -0.076 -0.014 1 
0.464 -0.282 0.002 1 
0.465 -0.277 0.002 1 
0.465 -0.265 0.003 1 
0.464 -0.255 0.003 1 
0.463 -0.237 0.003 1 
0.462 -0.227 0.004 1 
0.459 -0.216 0.004 1 
0.459 -0.205 0.004 1 
0.455 0.039 0.006 1 
0.453 0.204 0.004 1 
0.452 0.214 0.004 1 
0.453 0.232 0.004 1 
0.453 0.244 0.004 1 
0.452 0.254 0.003 1 
0.454 0.262 0.003 1 
0.455 0.269 0.003 1 
0.455 0.281 0.002 1 
0.456 0.314 0.001 1 
0.393 0.014 -0.015 1 
0.457 0.332 0.001 1 
0.461 -0.341 0.004 1 
0.471 -0.35 0.002 1 
0.466 -0.337 0.004 1 
0.467 -0.328 0.004 1 
0.383 0.152 -0.014 1 
0.466 -0.316 0.004 1 
0.468 -0.305 0.004 1 
0.465 -0.28 0.005 1 
0.465 -0.268 0.005 1 
0.453 0.314 0.004 1 
0.452 0.323 0.004 1 
0.455 0.205 0.001 1 
0.471 -0.042 -0.026 1 
0.456 -0.195 -0.005 1 
0.449 0.053 -0.005 1 
0.452 0.033 -0.005 1 
0.453 -0.027 -0.005 1 
0.454 -0.045 -0.005 1 
0.453 -0.065 -0.005 1 
0.444 -0.206 -0.01 1 
0.453 -0.086 -0.005 1 
0.453 -0.107 -0.006 1 
0.454 -0.147 -0.006 1 
0.452 -0.165 -0.006 1 
0.392 -0.225 -0.02 1 
0.453 -0.187 -0.007 1 
0.456 -0.017 0.003 1 
0.454 -0.213 -0.005 1 
0.451 -0.225 -0.007 1 
0.372 -0.032 -0.017 1 
0.442 -0.245 -0.01 1 
0.382 0.124 -0.015 1 
0.39 0.081 -0.014 1 
0.452 -0.309 -0.012 1 
0.459 -0.245 -0.006 1 
0.382 -0.207 -0.021 1 
0.454 -0.331 -0.007 1 
0.44 -0.275 -0.011 1 
0.431 0.103 -0.011 1 
0.445 0.254 -0.005 1 
0.372 0.174 -0.015 1 
0.411 0.122 -0.013 1 
0.427 -0.265 -0.015 1 
0.375 -0.05 -0.014 1 
0.424 0.014 -0.013 1 
0.402 0.134 -0.013 1 
0.454 -0.207 -0.004 1 
0.381 -0.249 -0.024 1 
0.403 -0.106 -0.016 1 
0.441 0.102 -0.008 1 
0.411 0.281 -0.016 1 
0.445 -0.046 -0.029 1 
0.368 -0.083 -0.014 1 
0.473 0.319 -0.001 1 
0.415 0.143 -0.01 1 
0.462 -0.049 -0.026 1 
0.465 -0.259 0 1 
0.364 0.19 -0.015 1 
0.393 0.255 -0.013 1 
0.363 -0.081 -0.014 1 
0.451 0.222 0.004 1 
0.39 0.085 -0.015 1 
0.444 0.314 -0.004 1 
0.441 -0.258 -0.01 1 
0.453 0.327 0.004 1 
0.453 0.193 0.004 1 
0.442 0.153 -0.007 1 
0.461 -0.137 0.002 1 
0.406 -0.076 -0.015 1 
0.454 0.122 0 1 
0.48 -0.041 -0.025 1 
0.402 0.122 -0.015 1 
0.38 0.14 -0.015 1 
0.373 0.052 -0.014 1 
0.404 -0.258 -0.021 1 
0.456 -0.217 -0.005 1 
0.381 -0.043 -0.015 1 
0.455 0.139 0.002 1 
0.392 -0.195 -0.017 1 
0.374 0 0.005 1 
0.404 0.241 -0.015 1 
0.434 0.012 -0.011 1 
0.412 0.093 -0.013 1 
0.434 0.204 -0.006 1 
0.351 -0.014 0.011 1 
0.452 -0.017 -0.005 1 
0.352 0.204 -0.016 1 
0.443 0.143 -0.007 1 
0.451 0.044 -0.005 1 
0.434 0.144 -0.01 1 
0.413 -0.065 -0.014 1 
0.402 0.194 -0.012 1 
0.449 0.204 -0.005 1 
0.412 -0.245 -0.02 1 
0.368 0.144 -0.015 1 
0.465 -0.241 0 1 
0.412 0.212 -0.011 1 
0.413 -0.227 -0.017 1 
0.42 -0.166 -0.013 1 
0.43 0.302 -0.009 1 
0.437 -0.29 -0.016 1 
0.391 -0.156 -0.018 1 
0.462 -0.296 -0.002 1 
0.388 0.203 -0.015 1 
0.455 0.034 0.003 1 
0.456 -0.025 0.003 1 
0.392 0.024 -0.015 1 
0.374 0.134 -0.014 1 
0.452 -0.125 -0.006 1 
0.361 0.033 -0.015 1 
0.374 0.237 -0.015 1 
0.412 0.082 -0.013 1 
0.439 0.202 -0.005 1 
0.455 0.123 0.003 1 
0.434 -0.127 -0.011 1 
0.431 0.084 -0.011 1 
0.397 0.174 -0.015 1 
0.418 0.133 -0.01 1 
0.453 -0.266 -0.008 1 
0.391 0.034 -0.014 1 
0.417 -0.166 -0.015 1 
0.463 -0.245 0.003 1 
0.394 0.183 -0.014 1 
0.408 0.024 -0.013 1 
0.38 -0.035 -0.014 1 
0.364 0.151 -0.015 1 
0.4 0.181 -0.014 1 
0.407 0.203 -0.012 1 
0.372 0.149 -0.014 1 
0.441 -0.307 -0.015 1 
0.394 -0.242 -0.026 1 
0.463 -0.272 -0.005 1 
0.38 -0.198 -0.02 1 
0.334 -0.005 0.014 1 
0.411 0.253 -0.012 1 
0.394 0.008 -0.013 1 
0.403 0.234 -0.014 1 
0.469 -0.303 0.004 1 
0.371 0.114 -0.015 1 
0.396 -0.255 -0.025 1 
0.428 -0.295 -0.016 1 
0.395 0.214 -0.016 1 
0.444 -0.297 -0.012 1 
0.452 -0.006 -0.005 1 
0.413 0.26 -0.013 1 
0.402 0.109 -0.014 1 
0.443 0.023 -0.008 1 
0.454 -0.286 -0.009 1 
0.412 -0.19 -0.016 1 
0.364 0.084 -0.015 1 
0.453 -0.035 -0.005 1 
0.374 0.073 -0.015 1 
0.364 0.223 -0.015 1 
0.422 -0.202 -0.014 1 
0.454 0.283 0.002 1 
0.444 0.242 -0.004 1 
0.41 -0.155 -0.015 1 
0.362 -0.115 -0.016 1 
0.361 0.173 -0.016 1 
0.454 -0.017 -0.003 1 
0.4 -0.066 -0.015 1 
0.458 -0.125 0.003 1 
0.454 -0.076 -0.006 1 
0.39 0.175 -0.015 1 
0.423 -0.096 -0.013 1 
0.38 0.203 -0.015 1 
0.434 -0.056 -0.011 1 
0.419 0.103 -0.013 1 
0.407 0.063 -0.013 1 
0.394 -0.25 -0.026 1 
0.413 -0.115 -0.015 1 
0.384 -0.168 -0.018 1 
0.389 0.103 -0.015 1 
0.394 -0.258 -0.025 1 
0.452 -0.176 -0.006 1 
0.466 -0.287 0.002 1 
0.414 0.042 -0.013 1 
0.416 0.283 -0.012 1 
0.444 -0.127 -0.009 1 
0.444 0.113 -0.007 1 
0.385 0.049 -0.014 1 
0.404 0.172 -0.012 1 
0.461 -0.339 -0.006 1 
0.413 0.231 -0.012 1 
0.394 0.211 -0.015 1 
0.403 0.094 -0.015 1 
0.354 0.181 -0.015 1 
0.454 -0.048 -0.018 1 
0.378 0.224 -0.015 1 
0.363 0.014 -0.016 1 
0.392 -0.045 -0.014 1 
0.455 -0.012 0.006 1 
0.417 0.273 -0.015 1 
0.454 0.062 0.003 1 
0.38 -0.136 -0.018 1 
0.463 -0.275 -0.005 1 
0.379 0.052 -0.014 1 
0.454 0.271 0.003 1 
0.452 0.294 0.002 1 
0.352 0.133 -0.014 1 
0.434 -0.142 -0.009 1 
0.407 -0.053 -0.015 1 
0.38 0.194 -0.015 1 
0.394 -0.094 -0.015 1 
0.409 0.164 -0.011 1 
0.382 0.212 -0.016 1 
0.421 0.034 -0.012 1 
0.444 -0.016 -0.008 1 
0.441 -0.038 -0.032 1 
0.371 0.144 -0.014 1 
0.361 0.053 -0.016 1 
0.408 -0.282 -0.016 1 
0.374 0.039 -0.015 1 
0.354 0.121 -0.015 1 
0.448 -0.042 -0.035 1 
0.373 0.194 -0.015 1 
0.455 0.049 0.003 1 
0.403 0.034 -0.014 1 
0.374 0.154 -0.015 1 
0.383 0.234 -0.015 1 
0.459 -0.199 0.004 1 
0.462 -0.041 -0.026 1 
0.431 -0.165 -0.011 1 
0.451 0.023 -0.005 1 
0.432 0.174 -0.008 1 
0.37 -0.065 -0.015 1 
0.394 -0.165 -0.017 1 
0.404 -0.205 -0.017 1 
0.372 -0.147 -0.019 1 
0.45 0.102 -0.005 1 
0.409 0.264 -0.015 1 
0.454 -0.247 -0.008 1 
0.387 0.189 -0.015 1 
0.404 -0.122 -0.015 1 
0.459 -0.236 -0.006 1 
0.452 0.013 -0.005 1 
0.444 -0.158 -0.009 1 
0.459 -0.306 -0.005 1 
0.393 -0.135 -0.016 1 
0.441 0.182 -0.005 1 
0.382 -0.045 -0.015 1 
0.476 -0.049 -0.041 1 
0.431 0.064 -0.011 1 
0.431 -0.255 -0.016 1 
0.378 -0.238 -0.023 1 
0.424 0.164 -0.01 1 
0.423 0.211 -0.009 1 
0.403 0.092 -0.014 1 
0.453 -0.006 -0.003 1 
0.461 -0.196 0.144 3 
0.458 -0.096 0.142 3 
0.453 0.173 0.023 3 
0.459 -0.107 0.142 3 
0.46 -0.115 0.143 3 
0.454 0.266 0.084 3 
0.46 -0.126 0.143 3 
0.46 -0.137 0.143 3 
0.459 -0.145 0.143 3 
0.46 -0.167 0.144 3 
0.464 -0.25 0.133 3 
0.46 -0.175 0.144 3 
0.461 -0.187 0.144 3 
0.465 -0.251 0.147 3 
0.456 0.294 0.143 3 
0.474 -0.327 0.152 3 
0.475 -0.335 0.153 3 
0.474 -0.337 0.152 3 
0.46 0.338 0.145 3 
0.456 0.33 0.144 3 
0.46 -0.147 0.063 3 
0.457 0.324 0.144 3 
0.457 0.314 0.144 3 
0.457 0.304 0.143 3 
0.454 0.174 0.073 3 
0.456 0.263 0.144 3 
0.455 0.042 0.133 3 
0.456 0.113 0.073 3 
0.458 -0.056 0.144 3 
0.459 -0.067 0.144 3 
0.458 -0.093 0.144 3 
0.471 -0.297 0.153 3 
0.472 -0.305 0.153 3 
0.475 -0.314 0.155 3 
0.473 -0.316 0.154 3 
0.457 -0.066 0.094 3 
0.476 -0.333 0.156 3 
0.456 0.266 0.144 3 
0.459 -0.075 0.142 3 
0.456 0.254 0.144 3 
0.455 0.241 0.144 3 
0.454 0.235 0.143 3 
0.454 0.232 0.143 3 
0.454 0.223 0.143 3 
0.454 0.214 0.143 3 
0.455 0.212 0.143 3 
0.455 0.204 0.143 3 
0.455 0.193 0.142 3 
0.459 -0.155 0.034 3 
0.456 0.184 0.142 3 
0.456 0.173 0.142 3 
0.455 0.113 0.133 3 
0.456 0.003 0.024 3 
0.454 0.211 0.134 3 
0.454 0.203 0.134 3 
0.458 -0.085 0.063 3 
0.455 0.2 0.134 3 
0.455 0.194 0.134 3 
0.455 0.183 0.134 3 
0.454 0.193 0.099 3 
0.455 0.172 0.134 3 
0.455 0.164 0.134 3 
0.455 0.142 0.133 3 
0.456 0.132 0.134 3 
0.454 0.291 0.136 3 
0.456 0.103 0.133 3 
0.456 -0.035 0.094 3 
0.455 0.094 0.133 3 
0.461 -0.137 0.133 3 
0.456 0.084 0.133 3 
0.454 0.037 0.109 3 
0.462 -0.247 0.063 3 
0.456 0.074 0.133 3 
0.455 0.063 0.133 3 
0.455 0.052 0.133 3 
0.461 -0.176 0.133 3 
0.455 0.213 0.154 3 
0.464 -0.217 0.14 3 
0.462 -0.207 0.142 3 
0.465 -0.218 0.143 3 
0.465 -0.227 0.143 3 
0.464 -0.244 0.143 3 
0.464 -0.247 0.144 3 
0.465 -0.257 0.144 3 
0.463 -0.346 0.147 3 
0.454 0.298 0.139 3 
0.454 0.249 0.138 3 
0.455 0.232 0.138 3 
0.455 0.218 0.138 3 
0.454 0.203 0.137 3 
0.456 0.284 0.142 3 
0.464 -0.226 0.14 3 
0.465 -0.245 0.141 3 
0.464 -0.256 0.141 3 
0.465 -0.266 0.142 3 
0.467 -0.277 0.142 3 
0.469 -0.285 0.143 3 
0.455 0.06 0.024 3 
0.469 -0.295 0.144 3 
0.475 -0.324 0.146 3 
0.475 -0.331 0.146 3 
0.458 0.335 0.139 3 
0.454 0.292 0.043 3 
0.457 -0.056 0.123 3 
0.461 -0.116 0.154 3 
0.462 -0.127 0.154 3 
0.461 -0.135 0.154 3 
0.461 -0.146 0.154 3 
0.472 -0.305 0.162 3 
0.456 0.143 0.123 3 
0.47 -0.316 0.162 3 
0.472 -0.325 0.163 3 
0.472 -0.336 0.164 3 
0.471 -0.345 0.164 3 
0.454 -0.336 0.159 3 
0.46 -0.107 0.153 3 
0.456 0.304 0.154 3 
0.456 0.154 0.134 3 
0.464 -0.267 0.113 3 
0.457 0.292 0.154 3 
0.454 0.224 0.033 3 
0.457 0.283 0.154 3 
0.456 0.074 0.144 3 
0.455 -0.006 0.094 3 
0.456 0.272 0.153 3 
0.46 -0.166 0.034 3 
0.456 0.263 0.153 3 
0.456 0.254 0.152 3 
0.458 0.074 0.152 3 
0.454 0.147 0.112 3 
0.455 0.204 0.153 3 
0.454 0.294 0.134 3 
0.455 0.193 0.153 3 
0.456 0.182 0.153 3 
0.456 0.173 0.153 3 
0.456 0.162 0.153 3 
0.456 0.154 0.152 3 
0.456 0.143 0.152 3 
0.456 0.132 0.152 3 
0.456 0.124 0.152 3 
0.458 0.082 0.152 3 
0.455 0.244 0.152 3 
0.455 0.083 0.003 3 
0.457 0.003 0.152 3 
0.457 -0.035 0.152 3 
0.46 -0.046 0.153 3 
0.455 0.083 0.052 3 
0.46 -0.056 0.153 3 
0.459 -0.067 0.152 3 
0.46 -0.075 0.153 3 
0.455 0.304 0.104 3 
0.46 -0.086 0.153 3 
0.459 -0.096 0.153 3 
0.458 -0.085 0.003 3 
0.454 0.324 0.149 3 
0.454 0.305 0.148 3 
0.454 0.229 0.146 3 
0.454 0.282 0.12 3 
0.454 0.214 0.145 3 
0.455 0.159 0.144 3 
0.456 0.154 0.144 3 
0.456 0.135 0.144 3 
0.456 0.132 0.144 3 
0.453 0.326 0.135 3 
0.456 0.124 0.144 3 
0.456 0.113 0.144 3 
0.455 0.194 0.113 3 
0.456 0.103 0.144 3 
0.456 0.092 0.144 3 
0.456 0.084 0.144 3 
0.457 0.063 0.144 3 
0.456 0.053 0.144 3 
0.456 0.034 0.144 3 
0.456 0.024 0.143 3 
0.455 0.014 0.143 3 
0.456 0.003 0.144 3 
0.458 -0.006 0.144 3 
0.457 -0.017 0.144 3 
0.457 -0.035 0.144 3 
0.458 0.312 0.152 3 
0.463 -0.155 0.152 3 
0.455 0.142 0.112 3 
0.461 -0.165 0.152 3 
0.461 -0.176 0.152 3 
0.462 -0.185 0.153 3 
0.454 0.325 0.062 3 
0.462 -0.197 0.153 3 
0.466 -0.316 0.033 3 
0.465 -0.215 0.154 3 
0.473 -0.355 0.162 3 
0.455 0.332 0.152 3 
0.457 0.324 0.152 3 
0.457 -0.045 0.144 3 
0.464 -0.215 0.151 3 
0.466 -0.225 0.152 3 
0.465 -0.236 0.152 3 
0.464 -0.244 0.152 3 
0.464 -0.247 0.152 3 
0.467 -0.259 0.153 3 
0.468 -0.266 0.154 3 
0.468 -0.275 0.154 3 
0.468 -0.285 0.154 3 
0.475 -0.315 0.158 3 
0.454 0.331 0.149 3 
0.454 0.285 0.122 3 
0.459 -0.107 0.124 3 
0.459 -0.115 0.124 3 
0.459 -0.125 0.124 3 
0.455 0.328 0.124 3 
0.454 0.323 0.123 3 
0.456 0.322 0.124 3 
0.459 -0.125 0.063 3 
0.455 0.314 0.123 3 
0.454 0.221 0.102 3 
0.455 0.301 0.123 3 
0.454 0.297 0.123 3 
0.455 0.292 0.123 3 
0.459 -0.096 0.124 3 
0.455 0.283 0.123 3 
0.455 0.273 0.122 3 
0.455 0.261 0.122 3 
0.455 0.244 0.122 3 
0.454 0.174 0.12 3 
0.462 -0.207 0.123 3 
0.454 0.155 0.12 3 
0.46 -0.205 0.034 3 
0.454 0.034 0.12 3 
0.455 0.225 0.108 3 
0.46 -0.137 0.122 3 
0.461 -0.156 0.122 3 
0.455 0.024 0.122 3 
0.458 -0.066 0.113 3 
0.455 0.094 0.123 3 
0.454 0.091 0.122 3 
0.454 0.293 0.09 3 
0.454 0.083 0.122 3 
0.455 0.081 0.122 3 
0.455 0.073 0.122 3 
0.455 0.063 0.122 3 
0.455 0.052 0.122 3 
0.458 -0.116 0.042 3 
0.455 0.042 0.122 3 
0.455 0.034 0.122 3 
0.461 -0.165 0.122 3 
0.457 0.014 0.123 3 
0.457 0.003 0.123 3 
0.456 -0.017 0.122 3 
0.456 -0.027 0.122 3 
0.457 -0.035 0.123 3 
0.462 -0.227 0.112 3 
0.457 -0.045 0.123 3 
0.457 -0.066 0.123 3 
0.46 -0.078 0.124 3 
0.455 0.205 0.097 3 
0.459 -0.085 0.123 3 
0.454 0.234 0.113 3 
0.454 0.068 0.114 3 
0.455 0.05 0.112 3 
0.455 -0.006 0.114 3 
0.462 -0.256 0.074 3 
0.464 -0.265 0.119 3 
0.468 -0.337 0.122 3 
0.455 0.285 0.114 3 
0.455 0.282 0.114 3 
0.455 0.264 0.114 3 
0.454 0.257 0.114 3 
0.454 0.254 0.114 3 
0.454 0.243 0.113 3 
0.455 0.136 0.036 3 
0.454 0.222 0.113 3 
0.454 0.213 0.113 3 
0.455 0.213 0.094 3 
0.454 0.202 0.113 3 
0.454 0.18 0.112 3 
0.454 0.174 0.112 3 
0.455 0.166 0.113 3 
0.454 0.163 0.112 3 
0.453 0.324 0.095 3 
0.455 0.161 0.112 3 
0.455 0.153 0.112 3 
0.471 0.355 0.198 3 
0.466 -0.285 0.123 3 
0.462 -0.187 0.123 3 
0.462 -0.195 0.123 3 
0.463 -0.216 0.123 3 
0.463 -0.225 0.123 3 
0.463 -0.237 0.124 3 
0.463 -0.246 0.124 3 
0.464 -0.255 0.124 3 
0.465 -0.259 0.125 3 
0.458 -0.127 0.024 3 
0.452 0.308 0.12 3 
0.465 -0.262 0.122 3 
0.466 -0.276 0.122 3 
0.454 0.099 0.122 3 
0.458 -0.125 0.092 3 
0.469 -0.298 0.124 3 
0.469 -0.307 0.124 3 
0.469 -0.317 0.124 3 
0.461 -0.256 0.104 3 
0.468 -0.326 0.124 3 
0.466 -0.345 0.124 3 
0.463 0.34 0.12 3 
0.454 0.152 0.115 3 
0.454 0.099 0.114 3 
0.454 0.094 0.114 3 
0.454 0.223 0.132 3 
0.454 0.324 0.135 3 
0.455 0.312 0.134 3 
0.455 0.302 0.134 3 
0.453 0.297 0.134 3 
0.455 0.286 0.134 3 
0.455 0.283 0.134 3 
0.453 0.313 0.024 3 
0.456 0.272 0.134 3 
0.456 0.263 0.133 3 
0.454 0.252 0.133 3 
0.454 0.243 0.132 3 
0.454 0.234 0.132 3 
0.471 -0.355 0.144 3 
0.459 -0.125 0.132 3 
0.461 -0.145 0.133 3 
0.455 0.273 0.114 3 
0.46 -0.167 0.133 3 
0.462 -0.187 0.133 3 
0.461 -0.195 0.133 3 
0.463 -0.208 0.134 3 
0.463 -0.216 0.134 3 
0.464 -0.265 0.136 3 
0.455 0.331 0.132 3 
0.465 -0.293 0.094 3 
0.455 0.321 0.132 3 
0.46 -0.075 0.134 3 
0.456 0.024 0.133 3 
0.456 0.014 0.133 3 
0.457 0.003 0.133 3 
0.457 -0.006 0.133 3 
0.47 -0.304 0.007 3 
0.457 -0.017 0.133 3 
0.457 -0.027 0.133 3 
0.457 -0.035 0.133 3 
0.453 0.252 0.073 3 
0.457 -0.045 0.133 3 
0.457 -0.056 0.133 3 
0.458 -0.066 0.134 3 
0.454 0.307 0.131 3 
0.46 -0.086 0.134 3 
0.459 -0.096 0.134 3 
0.455 0.217 0.116 3 
0.459 -0.107 0.134 3 
0.459 -0.115 0.134 3 
0.456 -0.017 0.034 3 
0.471 -0.307 0.142 3 
0.473 -0.319 0.142 3 
0.473 -0.329 0.143 3 
0.474 -0.337 0.143 3 
0.474 -0.348 0.144 3 
0.454 0.196 0.123 3 
0.47 -0.315 0.133 3 
0.47 -0.325 0.133 3 
0.469 -0.335 0.133 3 
0.471 -0.347 0.134 3 
0.454 0.252 0.124 3 
0.454 0.243 0.124 3 
0.456 0.073 0.063 3 
0.454 0.234 0.124 3 
0.454 0.223 0.124 3 
0.454 0.214 0.124 3 
0.455 0.211 0.124 3 
0.455 0.203 0.124 3 
0.47 -0.309 0.133 3 
0.455 0.194 0.123 3 
0.454 0.204 0.094 3 
0.454 0.18 0.123 3 
0.455 0.172 0.123 3 
0.455 0.164 0.123 3 
0.455 0.153 0.123 3 
0.455 0.18 0.052 3 
0.455 0.134 0.123 3 
0.466 -0.346 0.044 3 
0.455 0.123 0.123 3 
0.455 0.113 0.123 3 
0.455 0.102 0.123 3 
0.455 0.044 0.042 3 
0.455 0.212 0.129 3 
0.465 -0.265 0.122 3 
0.454 0.194 0.129 3 
0.454 0.15 0.128 3 
0.454 0.144 0.128 3 
0.454 0.086 0.127 3 
0.465 -0.227 0.132 3 
0.464 -0.229 0.132 3 
0.465 -0.236 0.132 3 
0.457 -0.006 0.052 3 
0.465 -0.247 0.133 3 
0.464 -0.256 0.133 3 
0.456 0.034 0.133 3 
0.464 -0.265 0.133 3 
0.465 -0.269 0.133 3 
0.467 -0.277 0.134 3 
0.467 -0.286 0.134 3 
0.465 -0.309 0.072 3 
0.475 -0.345 0.138 3 
0.454 0.323 0.129 3 
0.454 0.258 0.127 3 
0.465 -0.224 0.129 3 
0.464 -0.235 0.129 3 
0.469 -0.298 0.132 3 
0.454 0.06 0.114 3 
0.465 -0.115 0.182 3 
0.465 -0.126 0.183 3 
0.466 -0.137 0.183 3 
0.466 -0.146 0.184 3 
0.455 0.202 0.033 3 
0.464 -0.153 0.183 3 
0.46 0.284 0.183 3 
0.453 0.241 0.103 3 
0.463 -0.156 0.183 3 
0.465 -0.165 0.184 3 
0.464 -0.231 0.185 3 
0.473 -0.275 0.191 3 
0.465 -0.107 0.182 3 
0.476 -0.287 0.192 3 
0.46 0.102 0.172 3 
0.475 -0.296 0.192 3 
0.461 -0.206 0.063 3 
0.474 -0.299 0.192 3 
0.471 -0.306 0.191 3 
0.463 0.345 0.188 3 
0.461 0.301 0.184 3 
0.452 0.254 0.014 3 
0.462 0.292 0.184 3 
0.461 0.272 0.183 3 
0.46 0.262 0.182 3 
0.459 0.214 0.183 3 
0.48 -0.325 0.199 3 
0.466 -0.206 0.174 3 
0.481 -0.337 0.2 3 
0.479 -0.346 0.2 3 
0.477 -0.355 0.2 3 
0.473 -0.358 0.199 3 
0.465 0.344 0.192 3 
0.46 0.241 0.184 3 
0.454 -0.006 0.014 3 
0.459 0.234 0.183 3 
0.459 0.222 0.183 3 
0.456 0.103 0.154 3 
0.461 0.254 0.182 3 
0.456 0.194 0.181 3 
0.458 0.184 0.181 3 
0.465 -0.044 0.181 3 
0.465 -0.066 0.182 3 
0.466 -0.077 0.182 3 
0.455 0.301 0.112 3 
0.468 -0.347 0.104 3 
0.466 -0.085 0.182 3 
0.465 -0.096 0.182 3 
0.456 0.042 0.144 3 
0.464 -0.101 0.182 3 
0.46 -0.025 0.174 3 
0.474 -0.354 0.193 3 
0.474 -0.358 0.193 3 
0.461 0.324 0.183 3 
0.461 0.31 0.182 3 
0.46 0.078 0.174 3 
0.455 0.213 0.084 3 
0.46 0.07 0.174 3 
0.46 0.062 0.174 3 
0.459 0.054 0.174 3 
0.46 0.043 0.174 3 
0.46 0.006 0.174 3 
0.46 0.001 0.174 3 
0.455 0.094 0.052 3 
0.477 -0.335 0.183 3 
0.472 -0.346 0.152 3 
0.461 -0.035 0.174 3 
0.461 -0.046 0.174 3 
0.454 0.144 0.052 3 
0.464 -0.117 0.177 3 
0.465 -0.27 0.025 3 
0.464 -0.142 0.177 3 
0.47 -0.247 0.182 3 
0.454 0.262 0.043 3 
0.47 -0.256 0.183 3 
0.471 -0.266 0.184 3 
0.467 -0.195 0.182 3 
0.461 -0.057 0.172 3 
0.454 0.238 0.084 3 
0.464 -0.065 0.178 3 
0.464 -0.076 0.179 3 
0.464 -0.087 0.179 3 
0.454 0.144 0.034 3 
0.464 -0.106 0.179 3 
0.465 -0.157 0.181 3 
0.467 -0.175 0.182 3 
0.467 -0.256 0.173 3 
0.455 0.242 0.092 3 
0.467 -0.186 0.182 3 
0.478 -0.32 0.198 3 
0.469 -0.205 0.184 3 
0.468 -0.216 0.184 3 
0.467 -0.227 0.184 3 
0.468 -0.237 0.184 3 
0.464 -0.237 0.183 3 
0.478 -0.319 0.192 3 
0.459 -0.155 0.132 3 
0.48 -0.325 0.193 3 
0.479 -0.335 0.193 3 
0.478 -0.348 0.194 3 
0.455 0.113 0.112 3 
0.463 0.133 0.185 3 
0.461 0.224 0.187 3 
0.46 0.214 0.186 3 
0.46 0.203 0.185 3 
0.458 0.334 0.182 3 
0.458 0.196 0.184 3 
0.46 0.194 0.185 3 
0.461 0.183 0.185 3 
0.459 0.174 0.184 3 
0.461 0.172 0.185 3 
0.46 0.163 0.184 3 
0.46 0.152 0.184 3 
0.461 0.144 0.184 3 
0.462 -0.205 0.153 3 
0.462 0.13 0.184 3 
0.462 0.122 0.184 3 
0.461 0.113 0.183 3 
0.461 0.102 0.183 3 
0.463 0.092 0.184 3 
0.463 0.084 0.184 3 
0.462 0.073 0.183 3 
0.461 0.062 0.183 3 
0.461 0.054 0.183 3 
0.462 0.043 0.183 3 
0.463 0.033 0.183 3 
0.465 0.025 0.184 3 
0.455 0.183 0.113 3 
0.464 -0.305 0.072 3 
0.463 0.342 0.194 3 
0.462 0.334 0.193 3 
0.456 -0.006 0.122 3 
0.465 0.329 0.193 3 
0.464 0.324 0.193 3 
0.459 -0.136 0.103 3 
0.466 0.323 0.193 3 
0.464 0.314 0.192 3 
0.465 0.312 0.192 3 
0.464 0.304 0.191 3 
0.465 0.302 0.192 3 
0.466 0.022 0.185 3 
0.464 0.294 0.191 3 
0.465 0.286 0.191 3 
0.465 0.282 0.191 3 
0.463 0.277 0.19 3 
0.462 0.273 0.189 3 
0.462 0.264 0.189 3 
0.47 -0.328 0.104 3 
0.461 0.254 0.188 3 
0.465 -0.236 0.144 3 
0.459 0.24 0.186 3 
0.461 0.233 0.187 3 
0.454 0.257 0.122 3 
0.464 -0.156 0.186 3 
0.465 -0.162 0.186 3 
0.465 -0.165 0.186 3 
0.467 -0.175 0.188 3 
0.468 -0.187 0.188 3 
0.468 -0.196 0.189 3 
0.454 0.193 0.02 3 
0.471 -0.207 0.19 3 
0.47 -0.215 0.19 3 
0.454 0.083 0.091 3 
0.468 -0.225 0.19 3 
0.469 -0.238 0.191 3 
0.464 -0.151 0.186 3 
0.469 -0.247 0.191 3 
0.472 -0.255 0.192 3 
0.473 -0.265 0.193 3 
0.475 -0.274 0.194 3 
0.464 0.022 0.181 3 
0.475 -0.277 0.194 3 
0.475 -0.28 0.195 3 
0.474 -0.286 0.194 3 
0.474 -0.289 0.195 3 
0.475 -0.296 0.195 3 
0.474 -0.299 0.195 3 
0.475 -0.307 0.196 3 
0.454 0.075 0.003 3 
0.466 0.014 0.185 3 
0.464 0.011 0.184 3 
0.463 0.003 0.183 3 
0.465 -0.006 0.184 3 
0.464 -0.009 0.184 3 
0.464 -0.017 0.184 3 
0.463 -0.025 0.184 3 
0.461 -0.197 0.063 3 
0.464 -0.036 0.184 3 
0.463 -0.175 0.164 3 
0.465 -0.047 0.184 3 
0.464 -0.052 0.184 3 
0.457 -0.035 0.034 3 
0.464 -0.055 0.184 3 
0.465 -0.058 0.184 3 
0.466 -0.066 0.185 3 
0.467 -0.077 0.185 3 
0.467 -0.085 0.186 3 
0.466 -0.096 0.185 3 
0.465 -0.107 0.185 3 
0.465 -0.115 0.185 3 
0.465 -0.126 0.185 3 
0.468 -0.136 0.187 3 
0.467 -0.146 0.187 3 
0.458 0.253 0.164 3 
0.468 -0.266 0.171 3 
0.47 -0.278 0.172 3 
0.471 -0.285 0.173 3 
0.472 -0.296 0.174 3 
0.472 -0.306 0.174 3 
0.473 -0.317 0.175 3 
0.474 -0.325 0.176 3 
0.456 0.124 0.133 3 
0.472 -0.337 0.176 3 
0.457 0.274 0.164 3 
0.458 0.262 0.164 3 
0.454 0.212 0.054 3 
0.464 -0.187 0.167 3 
0.458 0.244 0.164 3 
0.458 0.233 0.163 3 
0.455 0.224 0.162 3 
0.454 0.221 0.162 3 
0.455 0.213 0.162 3 
0.461 -0.116 0.162 3 
0.463 -0.125 0.163 3 
0.463 -0.136 0.163 3 
0.463 -0.147 0.163 3 
0.462 -0.155 0.163 3 
0.463 -0.166 0.164 3 
0.455 0.183 0.123 3 
0.46 -0.035 0.163 3 
0.459 0.064 0.163 3 
0.458 0.053 0.163 3 
0.458 0.043 0.163 3 
0.46 0.032 0.163 3 
0.46 0.024 0.163 3 
0.453 0.103 0.014 3 
0.459 0.014 0.163 3 
0.455 0.202 0.084 3 
0.459 0.003 0.163 3 
0.459 -0.006 0.163 3 
0.459 -0.017 0.163 3 
0.46 -0.025 0.163 3 
0.463 -0.186 0.164 3 
0.46 -0.145 0.122 3 
0.461 -0.046 0.164 3 
0.462 -0.057 0.164 3 
0.461 -0.065 0.164 3 
0.454 -0.037 0.017 3 
0.461 -0.075 0.164 3 
0.462 -0.086 0.164 3 
0.461 -0.097 0.164 3 
0.455 0.083 0.063 3 
0.461 -0.105 0.164 3 
0.463 -0.175 0.167 3 
0.458 -0.025 0.154 3 
0.457 0.056 0.154 3 
0.457 0.053 0.154 3 
0.454 0.188 0.123 3 
0.457 0.042 0.154 3 
0.457 0.029 0.154 3 
0.455 0.094 0.104 3 
0.458 -0.106 0.084 3 
0.457 0.024 0.154 3 
0.457 0.014 0.154 3 
0.458 -0.014 0.154 3 
0.458 -0.017 0.154 3 
0.453 0.162 0.023 3 
0.456 0.092 0.154 3 
0.467 -0.265 0.162 3 
0.466 -0.277 0.162 3 
0.455 0.2 0.113 3 
0.454 0.16 0.094 3 
0.471 -0.288 0.164 3 
0.459 -0.117 0.024 3 
0.471 -0.298 0.164 3 
0.458 -0.135 0.024 3 
0.453 0.33 0.157 3 
0.453 0.324 0.157 3 
0.455 0.233 0.154 3 
0.455 0.224 0.154 3 
0.459 0.301 0.163 3 
0.464 -0.195 0.165 3 
0.464 -0.207 0.165 3 
0.471 -0.315 0.171 3 
0.455 0.073 0.083 3 
0.473 -0.327 0.172 3 
0.473 -0.337 0.173 3 
0.473 -0.348 0.174 3 
0.472 -0.358 0.174 3 
0.455 0.33 0.164 3 
0.457 0.322 0.164 3 
0.46 0.312 0.164 3 
0.455 0.134 0.073 3 
0.458 0.072 0.163 3 
0.457 0.292 0.162 3 
0.457 0.283 0.162 3 
0.457 -0.027 0.144 3 
0.463 -0.195 0.162 3 
0.463 -0.206 0.162 3 
0.465 -0.216 0.163 3 
0.467 -0.226 0.163 3 
0.467 -0.235 0.164 3 
0.466 -0.246 0.164 3 
0.466 -0.255 0.164 3 
0.456 0.106 0.154 3 
0.464 -0.125 0.174 3 
0.46 -0.156 0.143 3 
0.458 -0.095 0.113 3 
0.454 0.21 0.094 3 
0.461 -0.006 0.172 3 
0.461 -0.017 0.172 3 
0.461 -0.065 0.172 3 
0.462 -0.076 0.172 3 
0.463 -0.087 0.173 3 
0.457 -0.066 0.084 3 
0.462 -0.095 0.173 3 
0.461 -0.105 0.172 3 
0.463 -0.117 0.173 3 
0.462 0.022 0.172 3 
0.465 -0.131 0.174 3 
0.463 -0.136 0.174 3 
0.463 -0.147 0.174 3 
0.463 -0.155 0.174 3 
0.464 -0.167 0.175 3 
0.474 -0.285 0.183 3 
0.475 -0.299 0.184 3 
0.475 -0.309 0.184 3 
0.475 -0.316 0.184 3 
0.475 -0.363 0.187 3 
0.465 0.345 0.179 3 
0.459 0.292 0.174 3 
0.458 0.173 0.173 3 
0.472 -0.277 0.184 3 
0.476 -0.314 0.188 3 
0.456 -0.306 0.18 3 
0.463 0.345 0.182 3 
0.463 -0.166 0.169 3 
0.464 0.341 0.182 3 
0.458 0.218 0.174 3 
0.459 0.213 0.174 3 
0.457 0.2 0.173 3 
0.456 0.191 0.173 3 
0.457 0.183 0.173 3 
0.454 0.322 0.093 3 
0.459 0.279 0.174 3 
0.465 -0.289 0.047 3 
0.458 0.164 0.173 3 
0.46 0.154 0.173 3 
0.455 0.136 0.081 3 
0.46 0.143 0.173 3 
0.459 0.131 0.172 3 
0.46 0.124 0.172 3 
0.461 0.113 0.172 3 
0.459 0.093 0.171 3 
0.454 0.133 0.034 3 
0.46 0.032 0.171 3 
0.457 0.152 0.164 3 
0.461 0.313 0.173 3 
0.458 0.304 0.172 3 
0.467 -0.247 0.173 3 
0.474 -0.346 0.18 3 
0.455 0.252 0.122 3 
0.472 -0.355 0.18 3 
0.455 0.199 0.164 3 
0.456 0.194 0.164 3 
0.456 0.183 0.164 3 
0.457 0.172 0.164 3 
0.457 0.163 0.164 3 
0.454 0.163 0.052 3 
0.46 0.322 0.173 3 
0.458 0.144 0.164 3 
0.457 0.133 0.163 3 
0.457 0.122 0.163 3 
0.461 -0.175 0.122 3 
0.464 -0.298 0.013 3 
0.457 0.114 0.163 3 
0.455 0.32 0.112 3 
0.458 0.104 0.163 3 
0.458 0.093 0.163 3 
0.455 0.238 0.114 3 
0.458 0.082 0.163 3 
0.468 -0.316 0.112 3 
0.455 -0.027 0.009 3 
0.46 0.271 0.174 3 
0.457 0.259 0.172 3 
0.458 0.254 0.172 3 
0.459 0.243 0.172 3 
0.459 0.234 0.172 3 
0.468 -0.318 0.052 3 
0.465 -0.168 0.173 3 
0.465 -0.176 0.173 3 
0.466 -0.185 0.173 3 
0.467 -0.195 0.174 3 
0.466 -0.217 0.174 3 
0.462 -0.265 0.044 3 
0.465 -0.229 0.174 3 
0.465 -0.237 0.174 3 
0.455 0.044 0.034 3 
0.474 -0.298 0.18 3 
0.458 -0.289 0.174 3 
0.474 -0.308 0.181 3 
0.477 -0.325 0.183 3 
0.476 -0.345 0.184 3 
0.475 -0.355 0.184 3 
0.456 0.335 0.173 3 
0.456 0.331 0.173 3 
0.454 0.224 0.044 3 
0.455 0.208 0.049 3 
0.454 0.07 0.05 3 
0.454 0.08 0.047 3 
0.452 0.326 0.043 3 
0.452 0.323 0.043 3 
0.452 0.313 0.043 3 
0.451 0.303 0.043 3 
0.453 0.282 0.043 3 
0.454 0.274 0.043 3 
0.454 0.253 0.044 3 
0.454 0.244 0.044 3 
0.454 0.232 0.044 3 
0.466 -0.346 0.052 3 
0.454 0.204 0.044 3 
0.454 0.193 0.044 3 
0.454 0.182 0.044 3 
0.455 0.174 0.044 3 
0.454 0.171 0.044 3 
0.454 0.163 0.044 3 
0.454 0.152 0.044 3 
0.454 0.144 0.044 3 
0.454 0.133 0.044 3 
0.455 0.128 0.044 3 
0.455 0.123 0.044 3 
0.454 0.115 0.044 3 
0.461 -0.217 0.053 3 
0.458 -0.095 0.053 3 
0.459 -0.106 0.053 3 
0.459 -0.117 0.053 3 
0.454 0.204 0.033 3 
0.459 -0.125 0.053 3 
0.459 -0.135 0.053 3 
0.459 -0.146 0.053 3 
0.459 -0.157 0.053 3 
0.459 -0.176 0.053 3 
0.46 -0.185 0.053 3 
0.461 -0.197 0.053 3 
0.461 -0.206 0.053 3 
0.454 0.112 0.044 3 
0.462 -0.227 0.053 3 
0.462 -0.235 0.053 3 
0.461 -0.246 0.053 3 
0.452 0.32 0.024 3 
0.46 -0.257 0.053 3 
0.461 -0.267 0.053 3 
0.463 -0.275 0.052 3 
0.464 -0.286 0.052 3 
0.467 -0.307 0.052 3 
0.469 -0.329 0.052 3 
0.47 -0.337 0.052 3 
0.458 -0.127 0.042 3 
0.456 0.003 0.042 3 
0.457 -0.006 0.042 3 
0.457 -0.017 0.042 3 
0.457 -0.027 0.042 3 
0.457 -0.035 0.042 3 
0.457 -0.045 0.042 3 
0.457 -0.056 0.042 3 
0.457 -0.066 0.042 3 
0.458 -0.077 0.042 3 
0.458 -0.085 0.042 3 
0.459 -0.095 0.042 3 
0.459 -0.106 0.042 3 
0.456 0.013 0.042 3 
0.454 0.144 0.023 3 
0.459 -0.136 0.042 3 
0.453 0.252 0.033 3 
0.459 -0.146 0.042 3 
0.459 -0.155 0.042 3 
0.459 -0.165 0.042 3 
0.459 -0.176 0.042 3 
0.46 -0.185 0.042 3 
0.454 0.075 0.039 3 
0.465 -0.283 0.039 3 
0.464 -0.344 0.038 3 
0.454 0.329 0.034 3 
0.467 -0.327 0.044 3 
0.454 0.104 0.044 3 
0.455 0.101 0.044 3 
0.456 0.094 0.044 3 
0.461 -0.217 0.044 3 
0.462 -0.227 0.044 3 
0.462 -0.235 0.044 3 
0.461 -0.255 0.044 3 
0.463 -0.275 0.044 3 
0.465 -0.286 0.044 3 
0.465 -0.295 0.044 3 
0.466 -0.306 0.044 3 
0.468 -0.318 0.044 3 
0.456 -0.076 0.053 3 
0.468 -0.335 0.044 3 
0.455 0.222 0.041 3 
0.455 0.208 0.041 3 
0.455 0.11 0.042 3 
0.455 0.083 0.042 3 
0.454 0.072 0.042 3 
0.455 0.07 0.042 3 
0.455 0.062 0.042 3 
0.455 0.052 0.042 3 
0.456 0.034 0.042 3 
0.456 0.024 0.042 3 
0.457 -0.035 0.063 3 
0.456 0.102 0.063 3 
0.455 0.094 0.063 3 
0.456 0.063 0.063 3 
0.455 0.052 0.063 3 
0.455 0.044 0.063 3 
0.455 0.034 0.063 3 
0.453 0.223 0.023 3 
0.455 0.024 0.063 3 
0.456 0.013 0.063 3 
0.456 0.003 0.063 3 
0.456 -0.006 0.063 3 
0.456 -0.017 0.063 3 
0.456 0.113 0.063 3 
0.457 -0.045 0.063 3 
0.457 -0.056 0.063 3 
0.457 -0.077 0.063 3 
0.458 -0.095 0.063 3 
0.459 -0.205 0.012 3 
0.458 -0.106 0.063 3 
0.459 -0.117 0.063 3 
0.459 -0.135 0.063 3 
0.46 -0.155 0.063 3 
0.46 -0.166 0.063 3 
0.459 -0.176 0.063 3 
0.46 -0.185 0.063 3 
0.454 0.182 0.062 3 
0.454 0.312 0.062 3 
0.452 0.3 0.062 3 
0.452 0.291 0.062 3 
0.453 0.283 0.062 3 
0.454 0.274 0.062 3 
0.454 0.262 0.062 3 
0.453 0.252 0.062 3 
0.454 0.224 0.062 3 
0.454 0.213 0.062 3 
0.457 -0.066 0.063 3 
0.454 0.204 0.062 3 
0.454 0.193 0.062 3 
0.462 -0.218 0.063 3 
0.455 0.18 0.062 3 
0.457 -0.056 0.034 3 
0.454 0.174 0.062 3 
0.455 0.172 0.062 3 
0.455 -0.035 0.006 3 
0.454 0.163 0.062 3 
0.455 0.161 0.063 3 
0.454 0.152 0.063 3 
0.455 0.144 0.063 3 
0.455 0.134 0.063 3 
0.456 0.123 0.063 3 
0.455 0.112 0.052 3 
0.454 0.244 0.054 3 
0.454 0.232 0.054 3 
0.454 0.224 0.054 3 
0.454 0.204 0.054 3 
0.454 0.193 0.052 3 
0.454 0.182 0.052 3 
0.455 0.174 0.052 3 
0.454 0.168 0.052 3 
0.454 0.133 0.052 3 
0.455 0.128 0.052 3 
0.454 0.123 0.052 3 
0.455 0.12 0.052 3 
0.453 0.252 0.054 3 
0.455 0.073 0.052 3 
0.456 0.052 0.052 3 
0.457 0.042 0.052 3 
0.457 0.034 0.052 3 
0.455 0.024 0.052 3 
0.455 0.013 0.052 3 
0.457 0.003 0.052 3 
0.457 -0.017 0.052 3 
0.457 -0.025 0.053 3 
0.457 -0.035 0.053 3 
0.457 -0.056 0.053 3 
0.457 -0.066 0.053 3 
0.47 -0.337 0.064 3 
0.461 -0.226 0.063 3 
0.461 -0.235 0.063 3 
0.455 0.185 0.052 3 
0.462 -0.256 0.063 3 
0.462 -0.265 0.063 3 
0.463 -0.278 0.064 3 
0.463 -0.285 0.064 3 
0.464 -0.305 0.064 3 
0.454 0.213 0.033 3 
0.466 -0.309 0.064 3 
0.467 -0.32 0.064 3 
0.469 -0.325 0.064 3 
0.455 0.191 0.036 3 
0.464 -0.344 0.064 3 
0.454 0.144 0.057 3 
0.454 0.091 0.057 3 
0.465 -0.345 0.058 3 
0.453 0.327 0.054 3 
0.453 0.324 0.054 3 
0.453 0.314 0.054 3 
0.452 0.3 0.054 3 
0.453 0.282 0.054 3 
0.453 0.273 0.054 3 
0.453 0.261 0.054 3 
0.463 -0.266 0.014 3 
0.454 0.12 0.018 3 
0.451 0.325 0.013 3 
0.45 0.32 0.013 3 
0.452 0.313 0.013 3 
0.452 0.303 0.013 3 
0.453 0.282 0.014 3 
0.452 0.263 0.014 3 
0.452 0.243 0.014 3 
0.454 -0.027 0.017 3 
0.461 -0.235 0.014 3 
0.461 -0.247 0.014 3 
0.462 -0.256 0.014 3 
0.464 -0.285 0.019 3 
0.464 -0.276 0.014 3 
0.464 -0.285 0.013 3 
0.465 -0.309 0.013 3 
0.465 -0.315 0.013 3 
0.467 -0.327 0.012 3 
0.464 -0.345 0.012 3 
0.451 0.233 0.012 3 
0.451 0.222 0.012 3 
0.452 0.214 0.012 3 
0.453 0.204 0.012 3 
0.453 0.192 0.012 3 
0.453 0.184 0.013 3 
0.458 -0.146 0.013 3 
0.456 -0.035 0.024 3 
0.457 -0.045 0.024 3 
0.457 -0.056 0.024 3 
0.456 -0.066 0.024 3 
0.457 -0.087 0.024 3 
0.461 -0.186 0.023 3 
0.458 -0.095 0.024 3 
0.458 -0.106 0.024 3 
0.459 -0.146 0.024 3 
0.459 -0.155 0.024 3 
0.46 -0.166 0.023 3 
0.46 -0.177 0.023 3 
0.451 0.172 0.013 3 
0.454 0.086 0.001 3 
0.46 -0.197 0.023 3 
0.46 -0.205 0.023 3 
0.461 -0.226 0.023 3 
0.461 -0.235 0.023 3 
0.462 -0.245 0.022 3 
0.462 -0.257 0.022 3 
0.463 -0.266 0.022 3 
0.455 0.125 0.021 3 
0.454 0.054 0.022 3 
0.464 -0.279 0.019 3 
0.463 -0.344 0.007 3 
0.456 -0.116 0.014 3 
0.456 -0.126 0.014 3 
0.457 -0.135 0.013 3 
0.458 -0.157 0.013 3 
0.458 -0.165 0.013 3 
0.458 -0.176 0.013 3 
0.459 -0.188 0.013 3 
0.459 -0.196 0.013 3 
0.46 -0.217 0.012 3 
0.461 -0.226 0.012 3 
0.468 -0.346 0.009 3 
0.455 0.284 0.008 3 
0.456 -0.105 0.014 3 
0.453 0.162 0.002 3 
0.453 0.154 0.002 3 
0.456 0.102 0.003 3 
0.455 0.094 0.003 3 
0.455 0.073 0.003 3 
0.454 0.07 0.003 3 
0.456 -0.035 0.003 3 
0.457 -0.056 0.003 3 
0.457 -0.066 0.003 3 
0.458 -0.077 0.003 3 
0.459 -0.096 0.003 3 
0.46 -0.155 0.002 3 
0.455 0.016 0.014 3 
0.452 0.162 0.013 3 
0.452 0.154 0.013 3 
0.452 0.143 0.013 3 
0.454 0.122 0.013 3 
0.453 0.114 0.013 3 
0.452 0.093 0.014 3 
0.452 0.082 0.014 3 
0.452 0.072 0.014 3 
0.452 0.054 0.014 3 
0.453 0.044 0.014 3 
0.453 0.034 0.014 3 
0.454 0.023 0.014 3 
0.455 -0.027 0.024 3 
0.455 0.013 0.014 3 
0.455 0.003 0.014 3 
0.454 0 0.014 3 
0.454 -0.017 0.014 3 
0.454 -0.027 0.014 3 
0.454 -0.045 0.014 3 
0.455 -0.05 0.014 3 
0.456 -0.066 0.014 3 
0.456 -0.076 0.014 3 
0.456 -0.087 0.014 3 
0.456 -0.095 0.014 3 
0.456 -0.045 0.003 3 
0.456 0.013 0.034 3 
0.456 0.003 0.034 3 
0.456 -0.006 0.034 3 
0.456 -0.027 0.034 3 
0.457 -0.066 0.034 3 
0.457 -0.077 0.034 3 
0.458 -0.085 0.034 3 
0.458 -0.095 0.034 3 
0.459 -0.117 0.034 3 
0.459 -0.125 0.034 3 
0.459 -0.136 0.034 3 
0.459 -0.146 0.034 3 
0.455 0.024 0.034 3 
0.46 -0.177 0.034 3 
0.46 -0.186 0.034 3 
0.461 -0.197 0.034 3 
0.461 -0.215 0.034 3 
0.462 -0.227 0.034 3 
0.463 -0.236 0.033 3 
0.462 -0.247 0.033 3 
0.462 -0.256 0.033 3 
0.462 -0.265 0.033 3 
0.465 -0.276 0.033 3 
0.466 -0.287 0.033 3 
0.466 -0.296 0.033 3 
0.454 0.174 0.034 3 
0.455 0.183 0.036 3 
0.454 0.322 0.032 3 
0.452 0.313 0.032 3 
0.453 0.304 0.032 3 
0.453 0.291 0.032 3 
0.454 0.283 0.032 3 
0.454 0.274 0.033 3 
0.453 0.261 0.033 3 
0.453 0.243 0.033 3 
0.453 0.232 0.033 3 
0.455 0.194 0.033 3 
0.454 0.185 0.033 3 
0.468 -0.328 0.032 3 
0.453 0.162 0.034 3 
0.453 0.154 0.034 3 
0.455 0.128 0.034 3 
0.455 0.123 0.034 3 
0.455 0.104 0.034 3 
0.455 0.094 0.034 3 
0.455 0.083 0.034 3 
0.455 0.073 0.034 3 
0.455 0.062 0.034 3 
0.455 0.052 0.034 3 
0.455 0.034 0.034 3 
0.455 0.123 0.024 3 
0.464 -0.341 0.024 3 
0.465 -0.345 0.024 3 
0.453 0.328 0.021 3 
0.453 0.264 0.022 3 
0.454 0.253 0.022 3 
0.454 0.244 0.022 3 
0.452 0.231 0.023 3 
0.454 0.204 0.023 3 
0.455 0.197 0.023 3 
0.455 0.194 0.023 3 
0.454 0.182 0.023 3 
0.453 0.154 0.023 3 
0.467 -0.337 0.024 3 
0.454 0.112 0.024 3 
0.453 0.103 0.024 3 
0.454 0.072 0.024 3 
0.455 0.065 0.024 3 
0.454 0.062 0.024 3 
0.455 0.052 0.024 3 
0.455 0.044 0.024 3 
0.454 0.039 0.024 3 
0.454 0.034 0.024 3 
0.454 0.023 0.024 3 
0.455 0.013 0.024 3 
0.455 -0.017 0.024 3 
0.453 0.282 0.024 3 
0.468 -0.335 0.032 3 
0.464 -0.341 0.032 3 
0.455 0.272 0.03 3 
0.455 0.205 0.031 3 
0.454 0.12 0.031 3 
0.454 0.08 0.032 3 
0.454 0.039 0.032 3 
0.454 0.112 0.029 3 
0.454 0.054 0.029 3 
0.455 0.33 0.023 3 
0.453 0.304 0.024 3 
0.453 0.291 0.024 3 
0.454 0.315 0.062 3 
0.454 0.271 0.024 3 
0.454 0.093 0.026 3 
0.454 0.072 0.027 3 
0.454 0.093 0.024 3 
0.454 0.034 0.027 3 
0.466 -0.284 0.024 3 
0.466 -0.287 0.024 3 
0.465 -0.295 0.024 3 
0.464 -0.301 0.024 3 
0.465 -0.312 0.024 3 
0.467 -0.317 0.024 3 
0.465 -0.277 0.103 3 
0.462 -0.187 0.104 3 
0.461 -0.195 0.104 3 
0.461 -0.206 0.104 3 
0.462 -0.215 0.104 3 
0.462 -0.227 0.104 3 
0.454 0.213 0.044 3 
0.462 -0.236 0.104 3 
0.462 -0.247 0.104 3 
0.464 -0.277 0.105 3 
0.455 0.236 0.1 3 
0.454 0.144 0.099 3 
0.464 -0.267 0.102 3 
0.462 -0.176 0.104 3 
0.466 -0.285 0.103 3 
0.466 -0.297 0.103 3 
0.467 -0.305 0.103 3 
0.466 -0.317 0.104 3 
0.458 -0.066 0.073 3 
0.468 -0.343 0.104 3 
0.454 0.306 0.098 3 
0.454 0.303 0.098 3 
0.454 0.293 0.098 3 
0.454 0.182 0.097 3 
0.454 0.174 0.097 3 
0.464 -0.276 0.1 3 
0.464 -0.307 0.024 3 
0.454 0.254 0.103 3 
0.455 0.234 0.103 3 
0.455 0.219 0.102 3 
0.454 0.213 0.102 3 
0.454 0.204 0.102 3 
0.455 0.202 0.102 3 
0.455 0.194 0.102 3 
0.455 0.183 0.102 3 
0.455 0.172 0.102 3 
0.455 0.164 0.102 3 
0.454 0.102 0.101 3 
0.455 0.06 0.102 3 
0.455 0.255 0.095 3 
0.457 -0.056 0.102 3 
0.457 -0.066 0.102 3 
0.458 -0.077 0.102 3 
0.458 -0.085 0.102 3 
0.458 -0.095 0.102 3 
0.457 -0.106 0.102 3 
0.458 -0.117 0.102 3 
0.458 -0.125 0.103 3 
0.46 -0.145 0.103 3 
0.461 -0.156 0.103 3 
0.461 -0.167 0.103 3 
0.468 -0.335 0.012 3 
0.455 0.024 0.094 3 
0.455 0.013 0.094 3 
0.452 0.272 0.014 3 
0.455 0.003 0.094 3 
0.456 -0.017 0.094 3 
0.456 -0.027 0.094 3 
0.456 -0.045 0.094 3 
0.457 -0.056 0.094 3 
0.457 -0.077 0.094 3 
0.457 -0.045 0.034 3 
0.458 -0.085 0.094 3 
0.457 -0.095 0.094 3 
0.455 0.104 0.052 3 
0.457 -0.106 0.094 3 
0.465 -0.268 0.097 3 
0.452 0.327 0.093 3 
0.455 0.32 0.093 3 
0.455 -0.017 0.011 3 
0.454 0.312 0.093 3 
0.454 0.303 0.093 3 
0.455 0.294 0.093 3 
0.454 0.244 0.062 3 
0.454 0.281 0.092 3 
0.458 -0.095 0.074 3 
0.465 -0.295 0.052 3 
0.455 0.134 0.094 3 
0.454 0.241 0.094 3 
0.454 0.233 0.094 3 
0.454 0.224 0.094 3 
0.455 0.219 0.094 3 
0.455 0.202 0.094 3 
0.454 0.193 0.094 3 
0.454 0.182 0.094 3 
0.455 0.174 0.094 3 
0.455 0.062 0.052 3 
0.455 0.164 0.094 3 
0.455 0.153 0.094 3 
0.455 0.142 0.094 3 
0.454 0.263 0.103 3 
0.456 0.124 0.094 3 
0.454 0.062 0.027 3 
0.455 0.113 0.094 3 
0.455 0.102 0.094 3 
0.455 0.094 0.094 3 
0.455 0.084 0.094 3 
0.455 0.073 0.094 3 
0.455 0.063 0.094 3 
0.455 0.052 0.094 3 
0.456 0.044 0.094 3 
0.456 0.034 0.094 3 
0.461 -0.175 0.114 3 
0.458 -0.077 0.113 3 
0.459 -0.136 0.092 3 
0.458 -0.085 0.113 3 
0.459 -0.106 0.113 3 
0.457 -0.085 0.053 3 
0.458 -0.117 0.113 3 
0.459 -0.125 0.113 3 
0.459 -0.136 0.113 3 
0.459 -0.147 0.114 3 
0.454 0.011 0.014 3 
0.459 -0.155 0.114 3 
0.461 -0.167 0.114 3 
0.458 -0.056 0.113 3 
0.461 -0.186 0.114 3 
0.461 -0.195 0.114 3 
0.456 0.332 0.113 3 
0.454 0.323 0.112 3 
0.455 0.314 0.112 3 
0.454 0.31 0.112 3 
0.454 0.303 0.112 3 
0.455 0.249 0.111 3 
0.455 0.222 0.11 3 
0.455 0.205 0.11 3 
0.453 0.324 0.084 3 
0.454 0.107 0.109 3 
0.456 0.024 0.112 3 
0.454 0.152 0.052 3 
0.455 0.123 0.112 3 
0.462 -0.207 0.044 3 
0.453 0.291 0.013 3 
0.455 0.089 0.112 3 
0.459 -0.106 0.034 3 
0.455 0.084 0.112 3 
0.455 0.073 0.112 3 
0.454 0.052 0.112 3 
0.455 0.042 0.112 3 
0.455 0.034 0.112 3 
0.454 0.031 0.112 3 
0.454 0.076 0.109 3 
0.465 -0.299 0.058 3 
0.455 -0.056 0.014 3 
0.456 0.013 0.112 3 
0.455 0.263 0.068 3 
0.456 0.003 0.112 3 
0.456 -0.017 0.112 3 
0.453 0.302 0.084 3 
0.456 -0.027 0.112 3 
0.457 -0.035 0.112 3 
0.457 -0.045 0.112 3 
0.454 -0.035 0.014 3 
0.456 0.003 0.104 3 
0.455 0.102 0.104 3 
0.455 0.084 0.104 3 
0.455 0.073 0.104 3 
0.454 0.068 0.104 3 
0.454 0.062 0.104 3 
0.454 0.052 0.104 3 
0.455 0.047 0.104 3 
0.455 0.042 0.104 3 
0.456 0.034 0.104 3 
0.456 0.024 0.104 3 
0.457 -0.027 0.063 3 
0.455 0.013 0.104 3 
0.454 0.182 0.034 3 
0.456 -0.006 0.104 3 
0.456 -0.017 0.104 3 
0.456 -0.027 0.104 3 
0.456 -0.035 0.104 3 
0.457 -0.045 0.104 3 
0.455 0.33 0.104 3 
0.455 0.324 0.104 3 
0.454 0.083 0.024 3 
0.455 0.314 0.104 3 
0.455 0.291 0.104 3 
0.454 0.281 0.103 3 
0.454 0.272 0.103 3 
0.467 -0.295 0.112 3 
0.461 -0.206 0.112 3 
0.461 -0.215 0.112 3 
0.463 -0.237 0.113 3 
0.462 -0.245 0.113 3 
0.463 -0.257 0.113 3 
0.464 -0.295 0.064 3 
0.465 -0.271 0.114 3 
0.465 -0.275 0.114 3 
0.466 -0.285 0.114 3 
0.454 0.284 0.109 3 
0.454 0.266 0.108 3 
0.454 0.144 0.107 3 
0.454 0.272 0.092 3 
0.468 -0.306 0.112 3 
0.47 -0.328 0.113 3 
0.469 -0.337 0.113 3 
0.469 -0.348 0.113 3 
0.454 0.158 0.104 3 
0.454 0.152 0.104 3 
0.455 0.145 0.104 3 
0.455 0.142 0.104 3 
0.455 0.134 0.104 3 
0.456 0.118 0.104 3 
0.455 0.113 0.104 3 
0.454 0.213 0.073 3 
0.452 0.291 0.073 3 
0.453 0.283 0.073 3 
0.454 0.272 0.073 3 
0.455 0.266 0.073 3 
0.454 0.262 0.073 3 
0.461 -0.246 0.044 3 
0.454 0.244 0.073 3 
0.461 -0.197 0.074 3 
0.461 -0.215 0.023 3 
0.455 0.239 0.073 3 
0.454 0.232 0.073 3 
0.454 0.224 0.073 3 
0.453 0.301 0.073 3 
0.455 0.205 0.073 3 
0.455 0.202 0.073 3 
0.455 0.194 0.073 3 
0.454 0.185 0.073 3 
0.454 0.182 0.073 3 
0.454 0.163 0.073 3 
0.454 0.152 0.073 3 
0.454 0.144 0.073 3 
0.455 0.142 0.073 3 
0.455 0.123 0.073 3 
0.455 0.104 0.073 3 
0.455 0.094 0.073 3 
0.464 -0.286 0.083 3 
0.46 -0.177 0.082 3 
0.46 -0.185 0.082 3 
0.461 -0.197 0.082 3 
0.461 -0.206 0.082 3 
0.461 -0.195 0.042 3 
0.461 -0.226 0.082 3 
0.462 -0.235 0.082 3 
0.462 -0.247 0.083 3 
0.462 -0.256 0.083 3 
0.452 0.064 0.014 3 
0.461 -0.267 0.083 3 
0.463 -0.275 0.083 3 
0.454 0.083 0.073 3 
0.465 -0.29 0.083 3 
0.466 -0.297 0.083 3 
0.467 -0.308 0.084 3 
0.467 -0.318 0.084 3 
0.453 0.212 0.023 3 
0.47 -0.337 0.084 3 
0.468 -0.345 0.084 3 
0.454 0.133 0.078 3 
0.453 0.327 0.073 3 
0.453 0.324 0.073 3 
0.453 0.311 0.073 3 
0.464 -0.286 0.072 3 
0.459 -0.165 0.074 3 
0.459 -0.176 0.074 3 
0.46 -0.185 0.074 3 
0.46 -0.205 0.074 3 
0.461 -0.217 0.074 3 
0.462 -0.227 0.074 3 
0.462 -0.235 0.074 3 
0.463 -0.245 0.074 3 
0.462 -0.265 0.074 3 
0.464 -0.344 0.075 3 
0.454 0.096 0.07 3 
0.462 -0.277 0.072 3 
0.46 -0.155 0.074 3 
0.465 -0.29 0.072 3 
0.465 -0.296 0.072 3 
0.464 -0.298 0.072 3 
0.466 -0.316 0.072 3 
0.454 0.133 0.023 3 
0.469 -0.325 0.072 3 
0.469 -0.336 0.072 3 
0.466 -0.346 0.072 3 
0.464 -0.344 0.069 3 
0.455 0.32 0.065 3 
0.455 0.33 0.062 3 
0.455 0.323 0.062 3 
0.457 -0.006 0.073 3 
0.455 0.081 0.073 3 
0.455 0.073 0.073 3 
0.457 0.063 0.073 3 
0.456 -0.017 0.073 3 
0.456 0.052 0.073 3 
0.455 0.044 0.073 3 
0.455 0.034 0.073 3 
0.456 0.024 0.073 3 
0.458 -0.056 0.073 3 
0.456 0.013 0.073 3 
0.456 0.003 0.073 3 
0.466 -0.306 0.033 3 
0.454 0.174 0.081 3 
0.456 -0.027 0.073 3 
0.457 -0.035 0.073 3 
0.457 -0.045 0.073 3 
0.458 -0.077 0.073 3 
0.458 -0.085 0.073 3 
0.455 0.112 0.034 3 
0.458 -0.106 0.074 3 
0.458 -0.117 0.074 3 
0.459 -0.125 0.074 3 
0.46 -0.136 0.074 3 
0.461 -0.147 0.074 3 
0.468 -0.345 0.093 3 
0.465 -0.268 0.094 3 
0.465 -0.277 0.094 3 
0.464 -0.28 0.094 3 
0.464 -0.286 0.094 3 
0.455 0.273 0.09 3 
0.454 0.152 0.089 3 
0.464 -0.267 0.091 3 
0.466 -0.297 0.092 3 
0.467 -0.308 0.092 3 
0.466 -0.317 0.092 3 
0.468 -0.326 0.092 3 
0.47 -0.335 0.093 3 
0.462 -0.256 0.094 3 
0.455 0.313 0.087 3 
0.455 0.279 0.087 3 
0.454 0.133 0.086 3 
0.456 0.331 0.085 3 
0.454 0.312 0.084 3 
0.454 0.293 0.084 3 
0.454 0.284 0.084 3 
0.455 0.276 0.084 3 
0.468 -0.328 0.084 3 
0.455 0.273 0.084 3 
0.454 0.263 0.084 3 
0.452 0.291 0.054 3 
0.461 -0.175 0.093 3 
0.454 0.263 0.092 3 
0.455 0.261 0.092 3 
0.454 0.254 0.092 3 
0.455 0.245 0.092 3 
0.455 0.194 0.092 3 
0.455 0.177 0.091 3 
0.454 0.144 0.091 3 
0.457 -0.045 0.053 3 
0.457 -0.116 0.092 3 
0.46 -0.147 0.092 3 
0.46 -0.155 0.092 3 
0.461 -0.167 0.093 3 
0.455 0.254 0.084 3 
0.461 -0.186 0.093 3 
0.454 0.104 0.029 3 
0.461 -0.197 0.093 3 
0.468 -0.325 0.024 3 
0.461 -0.206 0.093 3 
0.461 -0.217 0.082 3 
0.462 -0.215 0.093 3 
0.463 -0.225 0.093 3 
0.462 -0.236 0.093 3 
0.456 -0.006 0.024 3 
0.461 -0.247 0.093 3 
0.459 -0.085 0.084 3 
0.455 0.024 0.083 3 
0.454 0.232 0.062 3 
0.456 0.013 0.083 3 
0.456 0.003 0.083 3 
0.456 -0.006 0.083 3 
0.456 -0.017 0.084 3 
0.457 -0.027 0.084 3 
0.457 -0.035 0.084 3 
0.459 -0.165 0.053 3 
0.457 -0.045 0.084 3 
0.457 -0.056 0.084 3 
0.458 -0.077 0.084 3 
0.455 0.034 0.083 3 
0.457 -0.077 0.024 3 
0.459 -0.096 0.084 3 
0.457 -0.116 0.084 3 
0.458 -0.125 0.084 3 
0.459 -0.135 0.084 3 
0.46 -0.147 0.084 3 
0.46 -0.155 0.084 3 
0.46 -0.166 0.084 3 
0.462 -0.342 0.086 3 
0.453 0.327 0.082 3 
0.454 0.253 0.081 3 
0.457 0.332 0.031 3 
0.454 0.144 0.083 3 
0.455 0.242 0.084 3 
0.454 0.233 0.084 3 
0.453 0.223 0.084 3 
0.454 0.21 0.084 3 
0.455 0.194 0.084 3 
0.454 0.188 0.084 3 
0.454 0.182 0.084 3 
0.455 0.018 0.024 3 
0.455 0.177 0.084 3 
0.455 0.174 0.084 3 
0.454 0.163 0.083 3 
0.454 0.152 0.083 3 
0.456 0.134 0.112 3 
0.455 0.134 0.083 3 
0.454 0.133 0.013 3 
0.455 0.123 0.083 3 
0.456 0.113 0.084 3 
0.455 0.102 0.083 3 
0.455 0.094 0.083 3 
0.455 0.083 0.083 3 
0.454 0.081 0.083 3 
0.455 0.063 0.083 3 
0.456 0.052 0.083 3 
0.456 0.044 0.083 3 
