# .PCD v0.7 - Point Cloud Data file
FIELDS x y z intensity
SIZE 4 4 4 4
TYPE F F F F
COUNT 1 1 1 1
WIDTH 2360
HEIGHT 1
VIEWPOINT 0 0 0 1 0 0 0
POINTS 2360
DATA ascii
0.373 -0.225 -0.024 1 
0.364 -0.155 -0.018 1 
0.361 -0.135 -0.017 1 
0.361 -0.126 -0.016 1 
0.363 -0.105 -0.017 1 
0.361 -0.095 -0.016 1 
0.36 -0.085 -0.015 1 
0.36 -0.06 -0.015 1 
0.361 -0.045 -0.015 1 
0.364 -0.027 -0.016 1 
0.359 0.019 -0.014 1 
0.359 0.024 -0.015 1 
0.359 0.033 -0.015 1 
0.353 0.083 -0.013 1 
0.354 0.085 -0.014 1 
0.355 0.102 -0.014 1 
0.353 0.104 -0.014 1 
0.352 0.114 -0.014 1 
0.35 0.124 -0.013 1 
0.351 0.134 -0.014 1 
0.352 0.136 -0.014 1 
0.354 0.151 -0.016 1 
0.35 0.161 -0.015 1 
0.342 0.203 -0.015 1 
0.38 -0.228 -0.025 1 
0.363 -0.056 -0.014 1 
0.294 -0.014 0.01 1 
0.364 0.009 -0.015 1 
0.363 0.043 -0.014 1 
0.364 0.064 -0.015 1 
0.361 0.074 -0.014 1 
0.361 0.083 -0.014 1 
0.361 0.085 -0.014 1 
0.362 0.093 -0.015 1 
0.361 0.103 -0.015 1 
0.356 0.124 -0.014 1 
0.353 0.172 -0.015 1 
0.352 0.173 -0.014 1 
0.348 0.21 -0.015 1 
0.384 -0.255 -0.026 1 
0.384 -0.247 -0.025 1 
0.386 -0.234 -0.025 1 
0.381 -0.226 -0.023 1 
0.374 -0.197 -0.02 1 
0.373 -0.187 -0.019 1 
0.371 -0.177 -0.018 1 
0.371 -0.165 -0.017 1 
0.373 -0.136 -0.017 1 
0.374 -0.134 -0.017 1 
0.371 -0.115 -0.016 1 
0.372 -0.096 -0.016 1 
0.373 -0.075 -0.016 1 
0.37 -0.063 -0.015 1 
0.369 -0.05 -0.014 1 
0.371 -0.045 -0.015 1 
0.373 -0.036 -0.016 1 
0.372 0.013 -0.016 1 
0.372 0.024 -0.016 1 
0.364 0.114 -0.014 1 
0.364 0.129 -0.015 1 
0.362 0.134 -0.014 1 
0.363 0.136 -0.015 1 
0.362 0.143 -0.014 1 
0.363 0.154 -0.015 1 
0.358 0.17 -0.014 1 
0.357 0.178 -0.014 1 
0.358 0.204 -0.016 1 
0.388 -0.257 -0.025 1 
0.374 -0.089 -0.015 1 
0.374 -0.066 -0.014 1 
0.374 -0.055 -0.014 1 
0.374 0.006 -0.014 1 
0.373 0.043 -0.014 1 
0.374 0.047 -0.015 1 
0.373 0.064 -0.015 1 
0.372 0.082 -0.014 1 
0.372 0.084 -0.015 1 
0.373 0.104 -0.015 1 
0.37 0.114 -0.014 1 
0.372 0.123 -0.015 1 
0.369 0.133 -0.015 1 
0.364 0.184 -0.015 1 
0.364 0.19 -0.015 1 
0.363 0.213 -0.016 1 
0.363 0.05 -0.014 1 
0.391 -0.255 -0.023 1 
0.393 -0.246 -0.024 1 
0.393 -0.239 -0.023 1 
0.382 -0.195 -0.018 1 
0.382 -0.167 -0.017 1 
0.384 -0.155 -0.017 1 
0.384 -0.126 -0.017 1 
0.383 -0.115 -0.016 1 
0.382 -0.107 -0.016 1 
0.38 -0.1 -0.015 1 
0.379 -0.095 -0.014 1 
0.379 -0.089 -0.014 1 
0.384 -0.085 -0.016 1 
0.383 -0.075 -0.016 1 
0.377 -0.065 -0.013 1 
0.38 -0.057 -0.014 1 
0.381 -0.055 -0.015 1 
0.383 -0.032 -0.015 1 
0.383 0.014 -0.016 1 
0.382 0.023 -0.015 1 
0.38 0.044 -0.015 1 
0.383 0.053 -0.016 1 
0.379 0.063 -0.015 1 
0.378 0.083 -0.015 1 
0.372 0.155 -0.014 1 
0.374 0.164 -0.015 1 
0.37 0.181 -0.015 1 
0.39 -0.225 -0.019 1 
0.394 -0.217 -0.02 1 
0.389 -0.155 -0.017 1 
0.388 -0.075 -0.015 1 
0.388 -0.073 -0.015 1 
0.386 -0.058 -0.014 1 
0.389 -0.033 -0.015 1 
0.297 -0.005 0.014 1 
0.298 0.002 0.013 1 
0.383 0.006 -0.014 1 
0.384 0.073 -0.014 1 
0.383 0.077 -0.014 1 
0.384 0.099 -0.015 1 
0.382 0.114 -0.015 1 
0.382 0.124 -0.015 1 
0.381 0.13 -0.015 1 
0.379 0.133 -0.014 1 
0.374 0.144 -0.013 1 
0.374 0.148 -0.013 1 
0.379 0.164 -0.015 1 
0.371 0.224 -0.015 1 
0.371 0.234 -0.016 1 
0.403 -0.265 -0.023 1 
0.373 0.048 -0.014 1 
0.404 -0.255 -0.023 1 
0.383 -0.215 -0.019 1 
0.4 -0.225 -0.02 1 
0.394 -0.208 -0.018 1 
0.394 -0.187 -0.017 1 
0.394 -0.125 -0.016 1 
0.394 -0.121 -0.016 1 
0.393 -0.106 -0.015 1 
0.391 -0.066 -0.014 1 
0.394 -0.06 -0.015 1 
0.393 -0.046 -0.015 1 
0.364 -0.149 -0.018 1 
0.392 0.033 -0.015 1 
0.391 0.04 -0.014 1 
0.392 0.043 -0.015 1 
0.393 0.053 -0.015 1 
0.391 0.061 -0.015 1 
0.389 0.064 -0.014 1 
0.39 0.069 -0.014 1 
0.392 0.073 -0.015 1 
0.393 0.084 -0.015 1 
0.39 0.091 -0.015 1 
0.389 0.093 -0.014 1 
0.39 0.104 -0.015 1 
0.389 0.11 -0.015 1 
0.381 0.144 -0.013 1 
0.384 0.161 -0.014 1 
0.379 0.182 -0.014 1 
0.402 -0.166 -0.017 1 
0.401 -0.156 -0.016 1 
0.402 -0.145 -0.017 1 
0.399 -0.137 -0.015 1 
0.4 -0.105 -0.015 1 
0.399 -0.102 -0.015 1 
0.398 -0.095 -0.014 1 
0.398 -0.093 -0.014 1 
0.401 -0.075 -0.015 1 
0.401 -0.066 -0.015 1 
0.401 -0.056 -0.015 1 
0.4 -0.047 -0.015 1 
0.401 -0.037 -0.015 1 
0.363 0.07 -0.015 1 
0.399 0.023 -0.015 1 
0.394 0.097 -0.014 1 
0.392 0.124 -0.014 1 
0.39 0.133 -0.013 1 
0.391 0.138 -0.014 1 
0.394 0.144 -0.015 1 
0.393 0.148 -0.015 1 
0.389 0.154 -0.014 1 
0.389 0.161 -0.014 1 
0.391 0.164 -0.015 1 
0.39 0.184 -0.015 1 
0.386 0.192 -0.014 1 
0.368 0.154 -0.015 1 
0.383 0.232 -0.015 1 
0.383 0.244 -0.016 1 
0.383 0.249 -0.016 1 
0.413 -0.285 -0.022 1 
0.413 -0.265 -0.021 1 
0.414 -0.257 -0.021 1 
0.41 -0.235 -0.019 1 
0.404 -0.217 -0.017 1 
0.403 -0.185 -0.016 1 
0.404 -0.176 -0.016 1 
0.353 0.194 -0.016 1 
0.406 -0.136 -0.015 1 
0.408 -0.097 -0.015 1 
0.408 -0.086 -0.015 1 
0.407 -0.075 -0.015 1 
0.407 -0.07 -0.015 1 
0.404 -0.046 -0.014 1 
0.404 -0.041 -0.014 1 
0.475 -0.046 -0.035 1 
0.474 -0.043 -0.035 1 
0.404 0.021 -0.014 1 
0.403 0.034 -0.014 1 
0.404 0.047 -0.014 1 
0.404 0.064 -0.014 1 
0.403 0.073 -0.014 1 
0.404 0.104 -0.015 1 
0.403 0.114 -0.015 1 
0.402 0.118 -0.015 1 
0.374 -0.105 -0.017 1 
0.401 0.124 -0.014 1 
0.399 0.152 -0.015 1 
0.394 0.165 -0.014 1 
0.392 0.202 -0.014 1 
0.392 0.205 -0.014 1 
0.393 0.222 -0.015 1 
0.388 0.242 -0.015 1 
0.42 -0.296 -0.022 1 
0.414 -0.22 -0.017 1 
0.41 -0.205 -0.016 1 
0.41 -0.195 -0.016 1 
0.409 -0.185 -0.015 1 
0.412 -0.166 -0.015 1 
0.41 -0.145 -0.015 1 
0.409 -0.136 -0.014 1 
0.412 -0.13 -0.015 1 
0.411 -0.125 -0.014 1 
0.413 -0.108 -0.015 1 
0.412 -0.105 -0.014 1 
0.412 -0.085 -0.014 1 
0.413 -0.076 -0.014 1 
0.412 -0.065 -0.014 1 
0.41 -0.045 -0.013 1 
0.471 -0.045 -0.031 1 
0.41 0.024 -0.014 1 
0.411 0.053 -0.014 1 
0.411 0.064 -0.014 1 
0.412 0.071 -0.015 1 
0.411 0.073 -0.014 1 
0.402 0.134 -0.013 1 
0.403 0.143 -0.013 1 
0.403 0.154 -0.014 1 
0.401 0.162 -0.013 1 
0.403 0.183 -0.015 1 
0.402 0.192 -0.015 1 
0.401 0.193 -0.014 1 
0.397 0.234 -0.015 1 
0.392 0.254 -0.014 1 
0.392 0.259 -0.015 1 
0.422 -0.286 -0.02 1 
0.422 -0.266 -0.019 1 
0.422 -0.257 -0.018 1 
0.421 -0.245 -0.018 1 
0.424 -0.24 -0.018 1 
0.423 -0.226 -0.018 1 
0.419 -0.197 -0.016 1 
0.417 -0.162 -0.015 1 
0.384 -0.188 -0.018 1 
0.393 -0.146 -0.016 1 
0.395 0.104 -0.014 1 
0.419 -0.042 -0.014 1 
0.363 -0.036 -0.016 1 
0.396 0.006 -0.007 1 
0.414 0.083 -0.013 1 
0.414 0.112 -0.014 1 
0.41 0.133 -0.013 1 
0.408 0.141 -0.012 1 
0.411 0.153 -0.014 1 
0.402 0.211 -0.013 1 
0.407 0.233 -0.015 1 
0.404 0.241 -0.015 1 
0.405 0.244 -0.015 1 
0.402 0.254 -0.015 1 
0.4 0.26 -0.015 1 
0.398 0.263 -0.014 1 
0.399 0.267 -0.015 1 
0.431 -0.305 -0.02 1 
0.426 -0.223 -0.016 1 
0.423 -0.216 -0.015 1 
0.426 -0.205 -0.016 1 
0.425 -0.187 -0.015 1 
0.422 -0.177 -0.014 1 
0.422 -0.157 -0.013 1 
0.421 -0.145 -0.013 1 
0.421 -0.135 -0.013 1 
0.422 -0.126 -0.013 1 
0.422 -0.117 -0.013 1 
0.37 0.214 -0.017 1 
0.421 -0.107 -0.012 1 
0.422 -0.095 -0.013 1 
0.423 -0.086 -0.013 1 
0.424 -0.082 -0.013 1 
0.424 -0.066 -0.013 1 
0.423 -0.056 -0.013 1 
0.423 -0.047 -0.012 1 
0.431 -0.044 -0.015 1 
0.477 -0.046 -0.027 1 
0.372 0.033 -0.016 1 
0.413 0.007 -0.01 1 
0.424 0.023 -0.013 1 
0.416 -0.175 -0.015 1 
0.422 0.044 -0.013 1 
0.421 0.053 -0.012 1 
0.42 0.064 -0.012 1 
0.42 0.073 -0.012 1 
0.42 0.094 -0.013 1 
0.412 0.163 -0.012 1 
0.364 0.163 -0.016 1 
0.41 0.171 -0.012 1 
0.382 0.033 -0.015 1 
0.412 0.182 -0.013 1 
0.413 0.193 -0.013 1 
0.398 0.061 -0.015 1 
0.409 0.212 -0.013 1 
0.404 0.273 -0.014 1 
0.433 -0.286 -0.017 1 
0.431 -0.275 -0.016 1 
0.428 -0.255 -0.015 1 
0.432 -0.247 -0.016 1 
0.431 -0.227 -0.015 1 
0.43 -0.185 -0.014 1 
0.431 -0.176 -0.014 1 
0.432 -0.065 -0.013 1 
0.428 -0.055 -0.012 1 
0.352 0.175 -0.014 1 
0.395 0.195 -0.015 1 
0.432 -0.046 -0.013 1 
0.459 -0.046 -0.02 1 
0.478 -0.043 -0.025 1 
0.354 0.143 -0.015 1 
0.43 0.033 -0.012 1 
0.429 0.043 -0.012 1 
0.422 0.123 -0.011 1 
0.421 0.154 -0.012 1 
0.414 0.242 -0.013 1 
0.412 0.282 -0.014 1 
0.436 -0.286 -0.015 1 
0.435 -0.279 -0.015 1 
0.434 -0.275 -0.014 1 
0.434 -0.269 -0.014 1 
0.393 0.242 -0.014 1 
0.429 -0.255 -0.013 1 
0.434 -0.249 -0.014 1 
0.432 -0.215 -0.012 1 
0.432 -0.207 -0.012 1 
0.381 -0.072 -0.015 1 
0.434 -0.198 -0.013 1 
0.433 -0.157 -0.012 1 
0.433 -0.146 -0.011 1 
0.434 -0.125 -0.011 1 
0.433 -0.117 -0.011 1 
0.433 -0.107 -0.011 1 
0.434 -0.095 -0.011 1 
0.434 -0.085 -0.011 1 
0.434 -0.083 -0.011 1 
0.324 -0.008 0.016 1 
0.332 -0.001 0.014 1 
0.331 0.001 0.015 1 
0.434 0.053 -0.011 1 
0.432 0.062 -0.011 1 
0.432 0.074 -0.011 1 
0.407 -0.064 -0.015 1 
0.431 0.093 -0.011 1 
0.429 0.124 -0.011 1 
0.424 0.164 -0.01 1 
0.422 0.172 -0.01 1 
0.422 0.182 -0.01 1 
0.422 0.192 -0.011 1 
0.421 0.204 -0.011 1 
0.42 0.224 -0.011 1 
0.419 0.234 -0.011 1 
0.421 0.244 -0.012 1 
0.42 0.254 -0.012 1 
0.421 0.271 -0.013 1 
0.431 0.303 -0.017 1 
0.443 -0.315 -0.015 1 
0.423 -0.213 -0.015 1 
0.445 -0.314 -0.016 1 
0.442 -0.301 -0.015 1 
0.441 -0.297 -0.014 1 
0.441 -0.227 -0.012 1 
0.435 -0.215 -0.011 1 
0.443 -0.197 -0.012 1 
0.443 -0.186 -0.012 1 
0.442 -0.178 -0.012 1 
0.439 -0.165 -0.011 1 
0.439 -0.145 -0.01 1 
0.44 -0.137 -0.011 1 
0.439 -0.117 -0.01 1 
0.439 -0.107 -0.01 1 
0.412 -0.096 -0.014 1 
0.439 -0.097 -0.01 1 
0.418 0.084 -0.012 1 
0.441 -0.085 -0.01 1 
0.442 -0.075 -0.01 1 
0.374 0.178 -0.014 1 
0.439 -0.065 -0.01 1 
0.442 -0.055 -0.01 1 
0.471 -0.037 -0.017 1 
0.334 -0.01 0.015 1 
0.342 -0.005 0.013 1 
0.344 0.003 0.013 1 
0.442 0.032 -0.011 1 
0.441 0.042 -0.01 1 
0.439 0.054 -0.01 1 
0.434 0.141 -0.01 1 
0.432 0.153 -0.01 1 
0.431 0.163 -0.01 1 
0.423 0.291 -0.012 1 
0.424 0.295 -0.012 1 
0.442 -0.286 -0.011 1 
0.444 -0.267 -0.011 1 
0.442 -0.245 -0.01 1 
0.414 0.103 -0.013 1 
0.444 -0.238 -0.011 1 
0.476 -0.04 -0.016 1 
0.466 -0.036 -0.013 1 
0.465 -0.033 -0.013 1 
0.339 -0.015 0.016 1 
0.363 0.007 -0.014 1 
0.402 -0.235 -0.021 1 
0.407 0.223 -0.015 1 
0.361 -0.006 0.01 1 
0.402 -0.275 -0.023 1 
0.361 0.002 0.01 1 
0.444 0.063 -0.009 1 
0.444 0.073 -0.009 1 
0.444 0.083 -0.009 1 
0.443 0.092 -0.009 1 
0.442 0.122 -0.009 1 
0.441 0.132 -0.009 1 
0.433 0.182 -0.008 1 
0.431 0.194 -0.008 1 
0.431 0.212 -0.008 1 
0.433 0.222 -0.009 1 
0.434 0.233 -0.01 1 
0.433 0.244 -0.01 1 
0.433 0.252 -0.01 1 
0.431 0.261 -0.01 1 
0.432 0.271 -0.01 1 
0.432 0.283 -0.011 1 
0.414 0.272 -0.014 1 
0.451 -0.317 -0.012 1 
0.45 -0.258 -0.01 1 
0.448 -0.247 -0.009 1 
0.448 -0.236 -0.009 1 
0.451 -0.225 -0.009 1 
0.451 -0.216 -0.009 1 
0.449 -0.207 -0.009 1 
0.451 -0.197 -0.009 1 
0.453 -0.187 -0.009 1 
0.451 -0.156 -0.008 1 
0.453 -0.147 -0.009 1 
0.452 -0.135 -0.008 1 
0.453 -0.115 -0.008 1 
0.453 -0.107 -0.008 1 
0.452 -0.096 -0.008 1 
0.444 -0.206 -0.01 1 
0.452 -0.086 -0.008 1 
0.452 -0.065 -0.008 1 
0.454 -0.055 -0.008 1 
0.447 -0.026 -0.007 1 
0.443 -0.016 -0.006 1 
0.448 -0.006 -0.007 1 
0.45 0.003 -0.007 1 
0.44 0.144 -0.009 1 
0.451 0.044 -0.008 1 
0.45 0.054 -0.008 1 
0.443 0.162 -0.008 1 
0.443 0.173 -0.008 1 
0.442 0.204 -0.008 1 
0.441 0.212 -0.008 1 
0.439 0.224 -0.008 1 
0.433 0.302 -0.009 1 
0.383 -0.208 -0.019 1 
0.454 -0.331 -0.01 1 
0.454 -0.279 -0.008 1 
0.456 -0.076 -0.006 1 
0.384 -0.237 -0.025 1 
0.458 -0.056 -0.006 1 
0.461 -0.036 -0.007 1 
0.457 0.003 -0.006 1 
0.455 0.021 -0.006 1 
0.454 0.026 -0.006 1 
0.456 0.044 -0.006 1 
0.455 0.057 -0.006 1 
0.454 0.062 -0.006 1 
0.452 0.072 -0.006 1 
0.451 0.082 -0.005 1 
0.452 0.093 -0.006 1 
0.452 0.114 -0.006 1 
0.451 0.132 -0.006 1 
0.45 0.152 -0.006 1 
0.447 0.162 -0.006 1 
0.443 0.244 -0.007 1 
0.441 0.274 -0.007 1 
0.44 0.282 -0.007 1 
0.383 0.183 -0.015 1 
0.461 -0.315 -0.008 1 
0.46 -0.175 -0.005 1 
0.46 -0.156 -0.005 1 
0.454 0.133 -0.004 1 
0.455 0.144 -0.005 1 
0.454 0.152 -0.004 1 
0.451 0.164 -0.004 1 
0.45 0.174 -0.004 1 
0.451 0.18 -0.004 1 
0.389 0.233 -0.015 1 
0.451 0.183 -0.005 1 
0.452 0.192 -0.005 1 
0.452 0.203 -0.005 1 
0.45 0.213 -0.005 1 
0.45 0.224 -0.005 1 
0.45 0.233 -0.005 1 
0.448 0.243 -0.005 1 
0.446 0.264 -0.005 1 
0.447 0.274 -0.006 1 
0.446 0.282 -0.006 1 
0.445 0.29 -0.006 1 
0.443 0.294 -0.006 1 
0.442 0.299 -0.006 1 
0.444 0.308 -0.006 1 
0.462 -0.336 -0.006 1 
0.466 -0.337 -0.007 1 
0.428 0.133 -0.011 1 
0.44 0.264 -0.007 1 
0.466 -0.327 -0.007 1 
0.364 -0.079 -0.015 1 
0.467 -0.315 -0.006 1 
0.454 -0.05 -0.011 1 
0.466 -0.307 -0.006 1 
0.464 -0.299 -0.005 1 
0.464 -0.261 -0.005 1 
0.464 -0.255 -0.004 1 
0.466 -0.245 -0.005 1 
0.466 -0.242 -0.005 1 
0.463 -0.225 -0.004 1 
0.463 -0.217 -0.004 1 
0.462 -0.207 -0.003 1 
0.462 -0.146 -0.003 1 
0.454 0.233 -0.004 1 
0.452 0.243 -0.003 1 
0.448 0.318 -0.005 1 
0.451 0.325 -0.006 1 
0.464 -0.345 -0.004 1 
0.464 -0.342 -0.004 1 
0.464 -0.27 -0.002 1 
0.464 -0.095 0 1 
0.454 0.253 -0.001 1 
0.454 0.262 -0.001 1 
0.454 0.284 -0.002 1 
0.452 0.303 -0.002 1 
0.452 0.31 -0.003 1 
0.465 -0.117 0.002 1 
0.465 -0.09 0.002 1 
0.449 -0.299 -0.013 1 
0.462 -0.015 0.002 1 
0.394 0.114 -0.014 1 
0.462 0.014 0.002 1 
0.462 0.024 0.002 1 
0.46 0.093 0.002 1 
0.459 0.103 0.002 1 
0.453 0.324 0 1 
0.469 -0.256 0.002 1 
0.468 -0.226 0.003 1 
0.467 -0.216 0.003 1 
0.466 -0.207 0.003 1 
0.465 -0.195 0.003 1 
0.465 -0.192 0.004 1 
0.404 -0.195 -0.016 1 
0.464 -0.163 0.004 1 
0.465 -0.155 0.004 1 
0.465 -0.147 0.004 1 
0.374 -0.206 -0.022 1 
0.424 0.112 -0.012 1 
0.465 -0.141 0.004 1 
0.464 -0.116 0.004 1 
0.464 -0.105 0.004 1 
0.46 0.114 0.004 1 
0.461 0.123 0.004 1 
0.459 0.152 0.004 1 
0.46 0.164 0.004 1 
0.459 0.183 0.004 1 
0.459 0.194 0.003 1 
0.459 0.202 0.003 1 
0.46 0.223 0.003 1 
0.459 0.231 0.003 1 
0.46 0.244 0.002 1 
0.384 -0.181 -0.018 1 
0.458 0.263 0.002 1 
0.458 0.272 0.002 1 
0.458 0.284 0.002 1 
0.472 -0.337 0.003 1 
0.471 -0.325 0.003 1 
0.38 0.152 -0.013 1 
0.471 -0.315 0.003 1 
0.471 -0.305 0.004 1 
0.469 -0.287 0.004 1 
0.469 -0.281 0.004 1 
0.465 -0.155 0.007 1 
0.465 -0.147 0.007 1 
0.465 -0.144 0.007 1 
0.459 0.291 0.004 1 
0.46 0.302 0.004 1 
0.459 0.314 0.004 1 
0.458 0.323 0.003 1 
0.394 0.014 -0.015 1 
0.459 0.334 0.003 1 
0.46 0.212 0.003 1 
0.472 -0.045 -0.023 1 
0.466 -0.294 -0.006 1 
0.46 -0.195 -0.005 1 
0.455 0.052 -0.006 1 
0.457 -0.007 -0.006 1 
0.458 -0.025 -0.007 1 
0.461 -0.046 -0.007 1 
0.457 -0.066 -0.006 1 
0.405 0.204 -0.011 1 
0.384 -0.145 -0.017 1 
0.461 -0.094 -0.005 1 
0.457 -0.106 -0.006 1 
0.456 -0.127 -0.006 1 
0.461 -0.145 -0.005 1 
0.458 -0.165 -0.005 1 
0.374 -0.033 -0.016 1 
0.448 0.254 -0.006 1 
0.46 -0.186 -0.005 1 
0.46 -0.226 -0.006 1 
0.454 -0.308 -0.012 1 
0.461 -0.247 -0.006 1 
0.441 0.254 -0.007 1 
0.463 -0.285 -0.005 1 
0.463 -0.327 -0.009 1 
0.403 -0.086 -0.016 1 
0.455 0.15 -0.005 1 
0.442 -0.277 -0.011 1 
0.433 -0.136 -0.011 1 
0.372 0.172 -0.015 1 
0.413 0.123 -0.013 1 
0.37 0.235 -0.016 1 
0.389 0.172 -0.015 1 
0.431 0.103 -0.011 1 
0.443 0.103 -0.009 1 
0.452 0.143 -0.006 1 
0.465 -0.125 0.001 1 
0.47 -0.245 0.002 1 
0.443 -0.257 -0.011 1 
0.464 -0.135 0.004 1 
0.451 0.124 -0.006 1 
0.441 0.013 -0.01 1 
0.465 -0.296 -0.006 1 
0.454 0.328 -0.001 1 
0.461 -0.038 -0.039 1 
0.373 0.073 -0.015 1 
0.362 -0.066 -0.016 1 
0.391 0.256 -0.014 1 
0.444 0.154 -0.007 1 
0.348 0.163 -0.014 1 
0.411 -0.04 -0.014 1 
0.464 -0.166 0.004 1 
0.459 -0.217 -0.006 1 
0.382 -0.036 -0.015 1 
0.45 0.314 -0.005 1 
0.459 0.143 0.004 1 
0.393 -0.196 -0.017 1 
0.405 0.062 -0.015 1 
0.428 0.293 -0.01 1 
0.373 -0.215 -0.022 1 
0.444 -0.053 -0.011 1 
0.434 0.012 -0.011 1 
0.422 -0.277 -0.019 1 
0.429 0.114 -0.011 1 
0.454 0.224 -0.003 1 
0.384 0.091 -0.015 1 
0.414 0.094 -0.013 1 
0.427 0.204 -0.007 1 
0.352 -0.011 0.013 1 
0.46 -0.115 -0.005 1 
0.352 0.204 -0.016 1 
0.454 0.138 -0.004 1 
0.46 -0.136 -0.005 1 
0.414 -0.247 -0.021 1 
0.462 0.003 0.002 1 
0.469 -0.236 0.002 1 
0.411 0.221 -0.013 1 
0.431 -0.266 -0.016 1 
0.409 -0.226 -0.018 1 
0.421 -0.167 -0.013 1 
0.392 -0.101 -0.015 1 
0.434 -0.235 -0.016 1 
0.372 0.094 -0.015 1 
0.393 0.201 -0.015 1 
0.463 0.032 0.002 1 
0.462 -0.025 0.002 1 
0.393 0.022 -0.015 1 
0.368 0.134 -0.014 1 
0.45 -0.127 -0.008 1 
0.41 -0.056 -0.013 1 
0.469 -0.265 0.002 1 
0.46 0.133 0.004 1 
0.383 0.203 -0.016 1 
0.431 0.084 -0.011 1 
0.396 0.173 -0.015 1 
0.417 -0.166 -0.015 1 
0.387 0.254 -0.015 1 
0.42 0.134 -0.011 1 
0.454 -0.273 -0.008 1 
0.458 -0.017 -0.007 1 
0.401 0.179 -0.014 1 
0.454 0.213 -0.003 1 
0.444 -0.31 -0.015 1 
0.423 0.014 -0.013 1 
0.46 0.172 0.004 1 
0.414 0.253 -0.013 1 
0.393 0.006 -0.011 1 
0.465 -0.095 0.002 1 
0.472 -0.3 0.004 1 
0.39 -0.241 -0.025 1 
0.464 -0.27 -0.005 1 
0.399 0.052 -0.015 1 
0.371 0.112 -0.015 1 
0.41 0.044 -0.014 1 
0.42 0.262 -0.012 1 
0.42 0.144 -0.011 1 
0.414 0.261 -0.013 1 
0.395 0.11 -0.014 1 
0.441 0.022 -0.01 1 
0.458 0.254 0.002 1 
0.394 -0.042 -0.015 1 
0.453 -0.285 -0.008 1 
0.431 -0.296 -0.017 1 
0.394 -0.18 -0.017 1 
0.41 -0.176 -0.015 1 
0.36 0.224 -0.016 1 
0.398 0.084 -0.015 1 
0.431 0.024 -0.013 1 
0.461 -0.007 0.002 1 
0.358 0.174 -0.015 1 
0.341 -0.012 0.015 1 
0.411 -0.155 -0.015 1 
0.399 -0.126 -0.015 1 
0.464 -0.127 0.004 1 
0.452 -0.075 -0.008 1 
0.405 0.054 -0.015 1 
0.419 0.103 -0.013 1 
0.39 -0.246 -0.025 1 
0.414 -0.115 -0.015 1 
0.416 -0.188 -0.015 1 
0.364 -0.051 -0.014 1 
0.454 -0.177 -0.009 1 
0.465 -0.106 0.002 1 
0.417 0.281 -0.013 1 
0.444 -0.014 -0.006 1 
0.391 0.045 -0.014 1 
0.401 0.172 -0.014 1 
0.403 0.094 -0.015 1 
0.374 -0.155 -0.018 1 
0.438 -0.126 -0.01 1 
0.442 0.112 -0.009 1 
0.352 0.183 -0.015 1 
0.451 -0.045 -0.015 1 
0.463 -0.275 -0.005 1 
0.456 0.013 -0.006 1 
0.394 0.214 -0.015 1 
0.464 -0.087 0.002 1 
0.453 0.273 -0.002 1 
0.452 0.294 -0.002 1 
0.384 0.223 -0.017 1 
0.371 0.087 -0.014 1 
0.403 0.083 -0.014 1 
0.439 0.191 -0.007 1 
0.382 0.193 -0.015 1 
0.403 0.043 -0.014 1 
0.41 0.033 -0.014 1 
0.359 -0.115 -0.015 1 
0.382 0.214 -0.016 1 
0.422 0.032 -0.013 1 
0.394 -0.089 -0.015 1 
0.414 0.234 -0.012 1 
0.4 0.204 -0.012 1 
0.461 -0.099 -0.005 1 
0.39 -0.096 -0.014 1 
0.426 -0.195 -0.015 1 
0.363 0.053 -0.015 1 
0.427 0.173 -0.009 1 
0.369 0.044 -0.015 1 
0.403 -0.207 -0.016 1 
0.455 0.034 -0.006 1 
0.393 -0.171 -0.017 1 
0.414 -0.277 -0.022 1 
0.459 -0.205 -0.005 1 
0.374 -0.152 -0.018 1 
0.464 -0.2 -0.001 1 
0.372 0.193 -0.016 1 
0.434 -0.167 -0.012 1 
0.454 0.023 -0.006 1 
0.399 0.025 -0.015 1 
0.452 -0.165 -0.009 1 
0.447 0.173 -0.006 1 
0.384 0.173 -0.015 1 
0.383 0.094 -0.014 1 
0.455 0.155 -0.005 1 
0.424 0.207 -0.009 1 
0.37 -0.065 -0.015 1 
0.452 0.103 -0.006 1 
0.44 0.233 -0.009 1 
0.439 -0.155 -0.011 1 
0.409 0.264 -0.015 1 
0.402 -0.116 -0.016 1 
0.474 -0.043 -0.032 1 
0.451 0.013 -0.008 1 
0.387 0.191 -0.015 1 
0.463 -0.236 -0.007 1 
0.404 -0.247 -0.022 1 
0.391 -0.094 -0.014 1 
0.384 -0.136 -0.017 1 
0.369 -0.024 -0.018 1 
0.464 -0.305 -0.008 1 
0.392 -0.135 -0.015 1 
0.372 0.204 -0.017 1 
0.439 0.183 -0.007 1 
0.381 -0.045 -0.015 1 
0.403 0.092 -0.014 1 
0.461 0.293 0.152 3 
0.467 -0.177 0.154 3 
0.478 -0.325 0.162 3 
0.478 -0.335 0.162 3 
0.478 -0.346 0.163 3 
0.467 0.346 0.156 3 
0.461 0.332 0.154 3 
0.46 0.234 0.062 3 
0.461 0.312 0.153 3 
0.461 0.302 0.153 3 
0.461 0.154 0.132 3 
0.464 -0.065 0.143 3 
0.467 -0.166 0.154 3 
0.461 0.283 0.152 3 
0.462 0.073 0.143 3 
0.462 -0.006 0.092 3 
0.461 0.274 0.152 3 
0.468 -0.186 0.152 3 
0.468 -0.195 0.152 3 
0.469 -0.206 0.152 3 
0.469 -0.215 0.152 3 
0.471 -0.226 0.153 3 
0.457 0.244 0.014 3 
0.471 -0.235 0.154 3 
0.465 -0.087 0.152 3 
0.462 0.253 0.154 3 
0.46 0.234 0.153 3 
0.461 0.223 0.153 3 
0.462 0.212 0.153 3 
0.461 0.274 0.062 3 
0.461 0.194 0.152 3 
0.461 0.182 0.152 3 
0.462 0.174 0.152 3 
0.464 -0.036 0.151 3 
0.464 -0.065 0.151 3 
0.465 -0.076 0.152 3 
0.471 -0.247 0.154 3 
0.465 -0.095 0.152 3 
0.468 -0.246 0.094 3 
0.466 -0.107 0.152 3 
0.466 -0.115 0.153 3 
0.468 -0.127 0.153 3 
0.468 -0.135 0.154 3 
0.462 0.337 0.062 3 
0.468 -0.146 0.154 3 
0.468 -0.155 0.154 3 
0.461 0.282 0.132 3 
0.462 0.064 0.143 3 
0.461 0.184 0.144 3 
0.461 0.173 0.144 3 
0.462 0.163 0.144 3 
0.462 0.154 0.144 3 
0.462 0.143 0.143 3 
0.462 0.132 0.143 3 
0.462 0.124 0.143 3 
0.462 0.113 0.143 3 
0.462 0.102 0.143 3 
0.462 0.094 0.143 3 
0.463 0.084 0.143 3 
0.461 0.194 0.144 3 
0.462 0.054 0.143 3 
0.461 0.032 0.142 3 
0.462 0.024 0.143 3 
0.462 0.014 0.143 3 
0.462 0.003 0.143 3 
0.475 -0.31 0.134 3 
0.463 -0.006 0.143 3 
0.463 -0.017 0.143 3 
0.464 -0.036 0.143 3 
0.465 -0.047 0.143 3 
0.472 -0.276 0.152 3 
0.471 -0.256 0.154 3 
0.475 -0.291 0.157 3 
0.474 -0.356 0.159 3 
0.465 0.344 0.153 3 
0.464 -0.057 0.143 3 
0.464 0.339 0.152 3 
0.464 -0.046 0.146 3 
0.461 0.082 0.052 3 
0.464 -0.076 0.146 3 
0.459 0.302 0.104 3 
0.472 -0.266 0.152 3 
0.465 -0.055 0.143 3 
0.46 0.203 0.063 3 
0.475 -0.288 0.154 3 
0.475 -0.295 0.154 3 
0.464 -0.127 0.028 3 
0.475 -0.308 0.154 3 
0.462 0.003 0.134 3 
0.459 0.236 0.144 3 
0.459 0.233 0.144 3 
0.46 0.222 0.144 3 
0.461 0.211 0.144 3 
0.46 0.332 0.162 3 
0.468 -0.255 0.052 3 
0.47 -0.196 0.164 3 
0.47 -0.205 0.164 3 
0.465 -0.166 0.034 3 
0.469 -0.216 0.164 3 
0.479 -0.337 0.172 3 
0.479 -0.347 0.172 3 
0.477 -0.356 0.172 3 
0.474 -0.36 0.172 3 
0.467 0.347 0.165 3 
0.462 0.337 0.163 3 
0.465 -0.106 0.103 3 
0.46 0.271 0.104 3 
0.463 0.321 0.163 3 
0.463 0.311 0.162 3 
0.461 0.134 0.073 3 
0.471 -0.226 0.162 3 
0.465 -0.141 0.093 3 
0.472 -0.236 0.163 3 
0.472 -0.248 0.163 3 
0.472 -0.257 0.163 3 
0.46 0.243 0.043 3 
0.471 -0.266 0.163 3 
0.461 0.232 0.162 3 
0.469 -0.177 0.124 3 
0.465 -0.166 0.023 3 
0.463 0.295 0.164 3 
0.463 0.292 0.164 3 
0.462 0.281 0.164 3 
0.463 -0.025 0.143 3 
0.469 -0.206 0.113 3 
0.463 0.273 0.164 3 
0.463 0.264 0.163 3 
0.463 0.254 0.163 3 
0.461 0.244 0.162 3 
0.471 -0.275 0.164 3 
0.464 -0.038 0.159 3 
0.469 -0.127 0.162 3 
0.469 -0.136 0.162 3 
0.476 -0.355 0.163 3 
0.468 -0.146 0.162 3 
0.476 -0.357 0.133 3 
0.468 -0.155 0.162 3 
0.469 -0.275 0.083 3 
0.468 -0.166 0.162 3 
0.469 -0.175 0.163 3 
0.47 -0.185 0.164 3 
0.46 0.332 0.062 3 
0.463 -0.006 0.154 3 
0.465 -0.014 0.154 3 
0.464 -0.017 0.154 3 
0.465 -0.02 0.154 3 
0.465 -0.025 0.154 3 
0.464 -0.028 0.154 3 
0.465 -0.203 0.014 3 
0.465 -0.036 0.154 3 
0.465 -0.047 0.154 3 
0.464 -0.055 0.154 3 
0.465 -0.057 0.154 3 
0.462 0.003 0.153 3 
0.465 -0.065 0.154 3 
0.474 -0.287 0.162 3 
0.459 0.224 0.133 3 
0.464 -0.116 0.023 3 
0.475 -0.295 0.163 3 
0.474 -0.348 0.064 3 
0.475 -0.305 0.163 3 
0.477 -0.317 0.164 3 
0.462 0.262 0.154 3 
0.478 -0.325 0.174 3 
0.459 0.152 0.033 3 
0.461 0.082 0.002 3 
0.461 0.204 0.114 3 
0.462 0.157 0.154 3 
0.462 0.154 0.154 3 
0.463 0.138 0.154 3 
0.463 0.127 0.154 3 
0.463 0.122 0.154 3 
0.463 0.114 0.154 3 
0.463 0.094 0.154 3 
0.463 0.084 0.154 3 
0.463 0.073 0.154 3 
0.46 0.335 0.054 3 
0.46 0.243 0.153 3 
0.463 0.062 0.154 3 
0.462 0.054 0.153 3 
0.462 0.043 0.153 3 
0.462 0.033 0.153 3 
0.461 0.093 0.103 3 
0.475 -0.316 0.102 3 
0.464 -0.105 0.082 3 
0.463 0.022 0.154 3 
0.468 -0.246 0.033 3 
0.463 0.014 0.154 3 
0.474 -0.306 0.133 3 
0.47 -0.246 0.134 3 
0.47 -0.255 0.134 3 
0.464 -0.127 0.023 3 
0.458 0.335 0.13 3 
0.473 -0.295 0.113 3 
0.465 -0.073 0.127 3 
0.471 -0.268 0.132 3 
0.471 -0.277 0.132 3 
0.472 -0.288 0.133 3 
0.472 -0.306 0.072 3 
0.473 -0.298 0.133 3 
0.462 -0.006 0.052 3 
0.477 -0.316 0.134 3 
0.46 0.186 0.124 3 
0.46 0.178 0.124 3 
0.461 0.17 0.124 3 
0.46 0.164 0.124 3 
0.461 0.153 0.124 3 
0.46 0.183 0.052 3 
0.461 0.142 0.124 3 
0.461 0.134 0.124 3 
0.473 -0.347 0.043 3 
0.461 0.123 0.124 3 
0.462 0.312 0.133 3 
0.462 -0.017 0.113 3 
0.466 -0.137 0.134 3 
0.466 -0.145 0.134 3 
0.466 -0.156 0.134 3 
0.466 -0.165 0.134 3 
0.475 -0.304 0.139 3 
0.46 0.203 0.092 3 
0.476 -0.357 0.142 3 
0.457 0.334 0.133 3 
0.47 -0.285 0.092 3 
0.461 0.324 0.133 3 
0.461 0.112 0.124 3 
0.46 0.3 0.132 3 
0.46 0.294 0.132 3 
0.461 0.273 0.132 3 
0.462 0.262 0.132 3 
0.467 -0.177 0.132 3 
0.469 -0.186 0.132 3 
0.468 -0.197 0.132 3 
0.469 -0.206 0.133 3 
0.469 -0.215 0.133 3 
0.47 -0.227 0.133 3 
0.47 -0.236 0.134 3 
0.465 -0.082 0.122 3 
0.461 0.304 0.124 3 
0.46 0.294 0.124 3 
0.46 0.284 0.124 3 
0.461 0.273 0.124 3 
0.461 0.264 0.123 3 
0.46 0.242 0.123 3 
0.46 0.233 0.123 3 
0.463 -0.046 0.113 3 
0.46 0.203 0.122 3 
0.464 -0.076 0.122 3 
0.46 0.214 0.103 3 
0.461 0.311 0.124 3 
0.465 -0.087 0.122 3 
0.464 -0.095 0.122 3 
0.465 -0.098 0.122 3 
0.465 -0.106 0.122 3 
0.465 -0.117 0.122 3 
0.465 -0.125 0.123 3 
0.466 -0.137 0.123 3 
0.466 -0.145 0.123 3 
0.466 -0.156 0.123 3 
0.466 -0.165 0.123 3 
0.47 0.354 0.197 3 
0.462 -0.006 0.124 3 
0.461 0.104 0.124 3 
0.462 0.094 0.124 3 
0.461 0.083 0.124 3 
0.461 0.072 0.124 3 
0.461 0.064 0.124 3 
0.461 0.053 0.124 3 
0.461 0.043 0.124 3 
0.462 0.032 0.124 3 
0.462 0.024 0.124 3 
0.462 0.014 0.124 3 
0.462 0.003 0.124 3 
0.465 -0.125 0.133 3 
0.462 -0.017 0.124 3 
0.463 -0.025 0.124 3 
0.463 -0.036 0.124 3 
0.462 -0.046 0.124 3 
0.463 -0.057 0.124 3 
0.463 -0.065 0.124 3 
0.477 -0.326 0.132 3 
0.469 -0.275 0.044 3 
0.477 -0.336 0.132 3 
0.478 -0.348 0.133 3 
0.458 0.331 0.124 3 
0.472 -0.279 0.144 3 
0.467 -0.177 0.143 3 
0.467 -0.185 0.143 3 
0.468 -0.195 0.144 3 
0.469 -0.206 0.144 3 
0.47 -0.216 0.144 3 
0.459 0.333 0.142 3 
0.462 0.323 0.142 3 
0.471 -0.225 0.142 3 
0.47 -0.246 0.142 3 
0.47 -0.255 0.143 3 
0.471 -0.265 0.143 3 
0.466 -0.165 0.142 3 
0.474 -0.287 0.145 3 
0.474 -0.297 0.145 3 
0.461 0.067 0.134 3 
0.461 0.064 0.134 3 
0.461 0.054 0.134 3 
0.465 -0.073 0.136 3 
0.465 -0.084 0.136 3 
0.464 -0.095 0.135 3 
0.473 -0.286 0.141 3 
0.459 0.063 0.023 3 
0.474 -0.296 0.142 3 
0.461 0.292 0.144 3 
0.465 -0.087 0.144 3 
0.466 -0.106 0.144 3 
0.465 -0.134 0.144 3 
0.476 -0.315 0.152 3 
0.477 -0.327 0.153 3 
0.477 -0.337 0.153 3 
0.478 -0.349 0.154 3 
0.476 -0.358 0.154 3 
0.476 -0.338 0.114 3 
0.461 0.308 0.144 3 
0.462 0.303 0.144 3 
0.476 -0.308 0.143 3 
0.461 0.283 0.143 3 
0.459 -0.007 0.013 3 
0.461 0.273 0.143 3 
0.461 0.264 0.143 3 
0.462 0.253 0.143 3 
0.464 -0.046 0.14 3 
0.461 0.112 0.073 3 
0.464 -0.087 0.141 3 
0.466 -0.115 0.142 3 
0.466 -0.145 0.142 3 
0.466 -0.156 0.142 3 
0.463 -0.046 0.132 3 
0.462 0.083 0.132 3 
0.462 0.043 0.132 3 
0.46 0.243 0.062 3 
0.462 0.032 0.132 3 
0.462 0.024 0.132 3 
0.462 0.014 0.132 3 
0.463 -0.006 0.132 3 
0.471 -0.295 0.012 3 
0.463 -0.017 0.132 3 
0.463 -0.025 0.132 3 
0.464 -0.036 0.132 3 
0.462 0.094 0.132 3 
0.467 -0.246 0.014 3 
0.463 -0.057 0.132 3 
0.464 -0.065 0.132 3 
0.464 -0.076 0.133 3 
0.465 -0.082 0.133 3 
0.465 -0.087 0.133 3 
0.464 -0.092 0.133 3 
0.464 -0.095 0.133 3 
0.46 0.224 0.123 3 
0.465 -0.101 0.133 3 
0.465 -0.117 0.133 3 
0.461 0.193 0.133 3 
0.478 -0.317 0.144 3 
0.477 -0.326 0.144 3 
0.475 -0.335 0.144 3 
0.475 -0.352 0.144 3 
0.461 0.252 0.134 3 
0.46 0.242 0.134 3 
0.46 0.254 0.123 3 
0.459 0.232 0.133 3 
0.46 0.213 0.133 3 
0.471 -0.265 0.123 3 
0.46 0.204 0.133 3 
0.464 -0.076 0.143 3 
0.466 -0.147 0.052 3 
0.461 0.184 0.133 3 
0.461 0.173 0.133 3 
0.461 0.162 0.133 3 
0.461 0.142 0.132 3 
0.462 0.132 0.132 3 
0.462 0.124 0.132 3 
0.461 0.112 0.132 3 
0.461 0.104 0.132 3 
0.463 -0.036 0.092 3 
0.47 -0.067 0.184 3 
0.459 0.301 0.082 3 
0.468 0.003 0.183 3 
0.462 0.043 0.052 3 
0.467 -0.006 0.182 3 
0.475 -0.317 0.122 3 
0.468 -0.015 0.183 3 
0.469 -0.026 0.183 3 
0.467 -0.036 0.174 3 
0.469 -0.037 0.183 3 
0.47 -0.045 0.183 3 
0.47 -0.056 0.184 3 
0.469 0.014 0.183 3 
0.469 -0.075 0.183 3 
0.46 0.303 0.113 3 
0.474 -0.346 0.102 3 
0.471 -0.086 0.184 3 
0.476 -0.265 0.191 3 
0.477 -0.278 0.192 3 
0.477 -0.285 0.193 3 
0.464 0.103 0.165 3 
0.477 -0.295 0.193 3 
0.473 -0.347 0.032 3 
0.464 0.275 0.184 3 
0.465 -0.106 0.133 3 
0.471 -0.237 0.142 3 
0.466 0.181 0.184 3 
0.466 0.169 0.184 3 
0.469 -0.167 0.174 3 
0.465 -0.136 0.144 3 
0.466 0.163 0.184 3 
0.465 0.152 0.183 3 
0.461 0.199 0.144 3 
0.466 0.143 0.183 3 
0.467 0.132 0.183 3 
0.467 0.124 0.183 3 
0.464 0.272 0.184 3 
0.468 0.113 0.184 3 
0.467 0.102 0.183 3 
0.467 0.093 0.183 3 
0.467 0.082 0.183 3 
0.467 0.074 0.183 3 
0.468 0.063 0.183 3 
0.468 0.052 0.183 3 
0.481 -0.355 0.192 3 
0.467 0.044 0.182 3 
0.468 0.033 0.183 3 
0.468 0.022 0.183 3 
0.482 -0.338 0.194 3 
0.472 -0.166 0.184 3 
0.471 -0.177 0.184 3 
0.473 -0.255 0.172 3 
0.459 0.243 0.092 3 
0.472 -0.186 0.184 3 
0.471 -0.195 0.184 3 
0.471 -0.206 0.184 3 
0.47 -0.218 0.184 3 
0.479 -0.307 0.191 3 
0.479 -0.317 0.192 3 
0.481 -0.326 0.193 3 
0.472 -0.157 0.183 3 
0.481 -0.355 0.195 3 
0.465 0.332 0.184 3 
0.465 0.321 0.184 3 
0.467 0.313 0.184 3 
0.46 0.293 0.093 3 
0.467 0.303 0.184 3 
0.466 0.293 0.183 3 
0.465 0.282 0.182 3 
0.465 0.251 0.181 3 
0.464 0.232 0.18 3 
0.463 0.222 0.179 3 
0.46 0.212 0.122 3 
0.464 0.262 0.184 3 
0.47 -0.285 0.064 3 
0.464 0.253 0.183 3 
0.464 0.244 0.183 3 
0.465 0.242 0.183 3 
0.467 0.234 0.184 3 
0.463 -0.135 0.012 3 
0.466 0.221 0.183 3 
0.461 0.083 0.073 3 
0.464 0.211 0.182 3 
0.465 0.209 0.182 3 
0.464 0.253 0.186 3 
0.465 0.203 0.182 3 
0.466 0.192 0.182 3 
0.47 -0.097 0.181 3 
0.462 0.043 0.143 3 
0.47 -0.106 0.182 3 
0.471 -0.117 0.182 3 
0.47 -0.125 0.182 3 
0.47 -0.136 0.182 3 
0.472 -0.146 0.183 3 
0.46 0.203 0.033 3 
0.468 0.113 0.186 3 
0.467 0.193 0.188 3 
0.467 0.184 0.188 3 
0.467 0.173 0.188 3 
0.467 0.164 0.187 3 
0.466 0.152 0.187 3 
0.46 0.284 0.093 3 
0.467 0.144 0.186 3 
0.467 0.132 0.186 3 
0.461 0.064 0.113 3 
0.468 0.124 0.187 3 
0.468 0.074 0.186 3 
0.466 0.204 0.188 3 
0.468 0.102 0.186 3 
0.464 0.084 0.162 3 
0.468 0.094 0.186 3 
0.468 0.083 0.186 3 
0.468 0.063 0.186 3 
0.464 0.244 0.186 3 
0.468 0.053 0.186 3 
0.468 0.044 0.186 3 
0.467 0.033 0.185 3 
0.469 0.023 0.186 3 
0.47 0.014 0.186 3 
0.461 0.184 0.114 3 
0.464 0.153 0.172 3 
0.461 0.142 0.084 3 
0.467 0.339 0.195 3 
0.467 0.332 0.195 3 
0.461 0.024 0.102 3 
0.462 -0.025 0.063 3 
0.468 0.329 0.194 3 
0.465 -0.147 0.093 3 
0.469 0.323 0.194 3 
0.468 0.312 0.193 3 
0.467 0.304 0.193 3 
0.469 0.003 0.186 3 
0.466 0.293 0.192 3 
0.466 0.283 0.191 3 
0.464 0.272 0.19 3 
0.464 0.263 0.189 3 
0.465 0.26 0.19 3 
0.465 0.254 0.189 3 
0.465 0.242 0.189 3 
0.467 0.234 0.189 3 
0.468 0.223 0.189 3 
0.465 -0.044 0.143 3 
0.467 0.213 0.189 3 
0.477 -0.295 0.196 3 
0.474 -0.236 0.193 3 
0.474 -0.245 0.193 3 
0.475 -0.249 0.193 3 
0.461 0.262 0.062 3 
0.476 -0.255 0.194 3 
0.477 -0.266 0.195 3 
0.478 -0.276 0.196 3 
0.46 0.322 0.054 3 
0.477 -0.285 0.196 3 
0.464 -0.087 0.084 3 
0.463 -0.075 0.023 3 
0.473 -0.226 0.192 3 
0.48 -0.305 0.198 3 
0.458 0.313 0.012 3 
0.481 -0.316 0.199 3 
0.468 -0.217 0.044 3 
0.482 -0.327 0.2 3 
0.471 -0.206 0.173 3 
0.482 -0.335 0.2 3 
0.481 -0.348 0.201 3 
0.469 0.352 0.194 3 
0.468 0.344 0.193 3 
0.464 0.275 0.187 3 
0.471 -0.117 0.188 3 
0.468 -0.006 0.186 3 
0.469 -0.015 0.186 3 
0.468 -0.026 0.186 3 
0.469 -0.037 0.186 3 
0.469 -0.045 0.186 3 
0.47 -0.056 0.186 3 
0.47 -0.067 0.187 3 
0.47 -0.075 0.187 3 
0.472 -0.087 0.188 3 
0.472 -0.095 0.188 3 
0.471 -0.106 0.188 3 
0.462 0.102 0.154 3 
0.472 -0.126 0.188 3 
0.473 -0.135 0.189 3 
0.474 -0.147 0.19 3 
0.474 -0.156 0.19 3 
0.473 -0.167 0.19 3 
0.472 -0.175 0.19 3 
0.472 -0.186 0.19 3 
0.472 -0.195 0.19 3 
0.473 -0.208 0.191 3 
0.472 -0.216 0.191 3 
0.46 0.214 0.084 3 
0.474 -0.269 0.176 3 
0.463 -0.036 0.034 3 
0.482 -0.348 0.183 3 
0.48 -0.357 0.183 3 
0.464 0.344 0.173 3 
0.465 0.317 0.172 3 
0.464 0.303 0.171 3 
0.464 0.29 0.17 3 
0.464 0.109 0.165 3 
0.464 0.092 0.165 3 
0.464 0.076 0.165 3 
0.461 0.042 0.034 3 
0.472 -0.245 0.171 3 
0.473 -0.265 0.173 3 
0.474 -0.275 0.173 3 
0.46 0.183 0.033 3 
0.476 -0.283 0.174 3 
0.462 0.215 0.164 3 
0.462 0.212 0.164 3 
0.462 0.203 0.164 3 
0.462 0.192 0.164 3 
0.463 0.184 0.164 3 
0.462 0.172 0.163 3 
0.463 0.283 0.173 3 
0.478 -0.315 0.183 3 
0.467 -0.187 0.093 3 
0.479 -0.327 0.183 3 
0.48 -0.339 0.184 3 
0.461 0.334 0.174 3 
0.461 0.323 0.174 3 
0.464 0.313 0.174 3 
0.466 -0.175 0.033 3 
0.465 0.311 0.174 3 
0.465 0.301 0.174 3 
0.465 0.294 0.174 3 
0.462 0.163 0.163 3 
0.46 -0.025 0.013 3 
0.463 0.273 0.172 3 
0.464 0.12 0.168 3 
0.464 0.006 0.168 3 
0.464 -0.017 0.168 3 
0.47 -0.176 0.172 3 
0.471 -0.185 0.172 3 
0.471 -0.197 0.173 3 
0.47 -0.217 0.173 3 
0.472 -0.228 0.174 3 
0.473 -0.237 0.174 3 
0.466 -0.066 0.163 3 
0.46 0.203 0.084 3 
0.464 0.003 0.162 3 
0.465 -0.006 0.162 3 
0.464 -0.009 0.162 3 
0.464 -0.017 0.162 3 
0.466 -0.023 0.163 3 
0.465 -0.025 0.162 3 
0.465 -0.036 0.162 3 
0.465 -0.047 0.162 3 
0.464 -0.2 0.014 3 
0.465 -0.055 0.162 3 
0.464 0.014 0.162 3 
0.46 0.293 0.113 3 
0.467 -0.077 0.163 3 
0.466 -0.085 0.163 3 
0.466 -0.096 0.163 3 
0.466 -0.107 0.163 3 
0.459 0.282 0.024 3 
0.467 -0.115 0.164 3 
0.475 -0.285 0.171 3 
0.477 -0.297 0.172 3 
0.477 -0.307 0.173 3 
0.459 0.336 0.142 3 
0.468 -0.226 0.033 3 
0.463 0.152 0.163 3 
0.463 0.144 0.163 3 
0.464 0.133 0.163 3 
0.464 0.122 0.163 3 
0.464 0.114 0.163 3 
0.46 0.323 0.113 3 
0.464 0.103 0.163 3 
0.464 0.092 0.162 3 
0.46 0.239 0.114 3 
0.465 0.082 0.163 3 
0.464 0.073 0.162 3 
0.462 0.053 0.002 3 
0.464 0.062 0.162 3 
0.463 0.054 0.162 3 
0.464 0.044 0.162 3 
0.464 0.033 0.162 3 
0.465 -0.136 0.104 3 
0.468 -0.235 0.022 3 
0.465 0.03 0.162 3 
0.475 -0.329 0.084 3 
0.464 0.022 0.162 3 
0.465 0.019 0.162 3 
0.466 0.033 0.174 3 
0.466 0.104 0.174 3 
0.466 0.093 0.174 3 
0.466 0.082 0.174 3 
0.465 0.074 0.174 3 
0.465 0.063 0.174 3 
0.461 0.202 0.153 3 
0.464 0.06 0.173 3 
0.464 0.054 0.173 3 
0.465 0.052 0.173 3 
0.465 0.044 0.173 3 
0.46 0.312 0.093 3 
0.466 0.112 0.174 3 
0.467 0.022 0.174 3 
0.466 0.014 0.174 3 
0.465 0.003 0.173 3 
0.464 -0.001 0.173 3 
0.464 -0.006 0.173 3 
0.465 -0.009 0.173 3 
0.466 -0.017 0.174 3 
0.466 -0.025 0.174 3 
0.458 0.103 0.013 3 
0.468 -0.047 0.174 3 
0.468 -0.055 0.174 3 
0.46 0.112 0.113 3 
0.464 0.202 0.179 3 
0.463 0.193 0.178 3 
0.46 0.312 0.062 3 
0.464 0.159 0.178 3 
0.464 -0.001 0.176 3 
0.472 -0.228 0.183 3 
0.473 -0.235 0.183 3 
0.474 -0.247 0.184 3 
0.475 -0.335 0.064 3 
0.475 -0.251 0.184 3 
0.481 -0.347 0.192 3 
0.475 -0.257 0.182 3 
0.461 0.093 0.052 3 
0.468 0.35 0.184 3 
0.466 0.343 0.183 3 
0.463 0.181 0.175 3 
0.459 0.234 0.033 3 
0.464 0.173 0.175 3 
0.465 0.142 0.174 3 
0.465 0.134 0.174 3 
0.466 0.118 0.174 3 
0.465 -0.095 0.144 3 
0.468 -0.096 0.172 3 
0.463 0.164 0.172 3 
0.465 0.159 0.172 3 
0.464 0.142 0.171 3 
0.456 0.324 0.023 3 
0.464 0.134 0.171 3 
0.464 0.068 0.17 3 
0.464 0.044 0.17 3 
0.467 -0.066 0.171 3 
0.458 0.213 0.014 3 
0.467 -0.077 0.172 3 
0.467 -0.085 0.172 3 
0.47 -0.285 0.052 3 
0.464 -0.057 0.002 3 
0.468 -0.105 0.172 3 
0.46 0.244 0.104 3 
0.469 -0.116 0.173 3 
0.469 -0.125 0.173 3 
0.468 -0.135 0.173 3 
0.463 0.324 0.154 3 
0.47 -0.148 0.174 3 
0.469 -0.156 0.174 3 
0.474 -0.256 0.178 3 
0.478 -0.305 0.182 3 
0.463 0.243 0.174 3 
0.476 -0.268 0.182 3 
0.476 -0.277 0.183 3 
0.474 -0.327 0.052 3 
0.477 -0.285 0.184 3 
0.477 -0.298 0.184 3 
0.462 0.342 0.178 3 
0.464 0.334 0.178 3 
0.464 0.323 0.178 3 
0.463 0.258 0.174 3 
0.459 0.3 0.032 3 
0.463 0.252 0.174 3 
0.477 -0.317 0.173 3 
0.463 0.234 0.174 3 
0.473 -0.316 0.052 3 
0.462 0.224 0.173 3 
0.463 0.213 0.173 3 
0.469 -0.235 0.122 3 
0.464 0.202 0.173 3 
0.461 0.283 0.043 3 
0.464 0.193 0.173 3 
0.464 0.182 0.173 3 
0.463 0.173 0.172 3 
0.474 -0.338 0.052 3 
0.466 -0.175 0.052 3 
0.467 -0.187 0.052 3 
0.467 -0.196 0.052 3 
0.466 -0.215 0.052 3 
0.467 -0.225 0.052 3 
0.468 -0.237 0.052 3 
0.468 -0.246 0.052 3 
0.468 -0.268 0.052 3 
0.469 -0.275 0.052 3 
0.471 -0.295 0.052 3 
0.472 -0.309 0.052 3 
0.466 -0.167 0.052 3 
0.474 -0.348 0.052 3 
0.475 -0.332 0.049 3 
0.475 -0.339 0.049 3 
0.456 0.331 0.043 3 
0.456 0.324 0.043 3 
0.459 0.314 0.043 3 
0.459 0.304 0.043 3 
0.46 0.292 0.043 3 
0.46 0.273 0.043 3 
0.46 0.264 0.043 3 
0.459 0.222 0.022 3 
0.463 -0.065 0.052 3 
0.461 0.112 0.052 3 
0.461 0.074 0.052 3 
0.461 0.053 0.052 3 
0.462 0.032 0.052 3 
0.461 0.024 0.052 3 
0.462 0.014 0.052 3 
0.462 0.003 0.052 3 
0.462 -0.017 0.052 3 
0.461 -0.025 0.052 3 
0.462 -0.036 0.052 3 
0.463 -0.057 0.052 3 
0.459 0.254 0.043 3 
0.463 -0.076 0.052 3 
0.464 -0.087 0.052 3 
0.464 -0.095 0.052 3 
0.465 -0.1 0.052 3 
0.465 -0.105 0.052 3 
0.464 -0.116 0.053 3 
0.465 -0.119 0.052 3 
0.465 -0.125 0.052 3 
0.464 -0.132 0.053 3 
0.465 -0.136 0.053 3 
0.466 -0.155 0.052 3 
0.466 -0.136 0.044 3 
0.463 -0.03 0.044 3 
0.463 -0.036 0.044 3 
0.463 -0.046 0.044 3 
0.463 -0.057 0.044 3 
0.464 -0.084 0.044 3 
0.464 -0.087 0.044 3 
0.465 -0.092 0.044 3 
0.465 -0.095 0.044 3 
0.465 -0.106 0.044 3 
0.465 -0.116 0.044 3 
0.465 -0.125 0.044 3 
0.462 -0.007 0.044 3 
0.466 -0.147 0.044 3 
0.466 -0.155 0.044 3 
0.466 -0.175 0.044 3 
0.467 -0.187 0.044 3 
0.467 -0.196 0.044 3 
0.468 -0.208 0.044 3 
0.468 -0.225 0.044 3 
0.468 -0.237 0.044 3 
0.468 -0.246 0.044 3 
0.468 -0.255 0.044 3 
0.47 -0.288 0.013 3 
0.461 0.112 0.044 3 
0.46 0.223 0.044 3 
0.459 0.213 0.044 3 
0.46 0.203 0.044 3 
0.46 0.194 0.044 3 
0.459 0.182 0.044 3 
0.459 0.174 0.044 3 
0.459 0.163 0.044 3 
0.46 0.152 0.044 3 
0.461 0.142 0.044 3 
0.46 0.133 0.044 3 
0.461 0.123 0.044 3 
0.46 0.122 0.052 3 
0.461 0.104 0.044 3 
0.462 0.093 0.044 3 
0.461 0.082 0.044 3 
0.461 0.074 0.044 3 
0.461 0.064 0.044 3 
0.462 0.053 0.044 3 
0.462 0.043 0.044 3 
0.462 0.032 0.044 3 
0.462 0.024 0.044 3 
0.462 0.014 0.044 3 
0.462 0.003 0.044 3 
0.461 0.043 0.063 3 
0.461 0.142 0.063 3 
0.461 0.134 0.063 3 
0.461 0.123 0.063 3 
0.461 0.112 0.063 3 
0.46 0.104 0.063 3 
0.461 0.093 0.063 3 
0.461 0.082 0.063 3 
0.462 0.074 0.063 3 
0.462 0.064 0.063 3 
0.461 0.053 0.063 3 
0.46 0.273 0.054 3 
0.46 0.163 0.063 3 
0.461 0.032 0.063 3 
0.475 -0.346 0.043 3 
0.461 0.024 0.063 3 
0.462 0.014 0.063 3 
0.462 0.003 0.063 3 
0.462 -0.006 0.063 3 
0.462 -0.017 0.063 3 
0.462 -0.035 0.063 3 
0.462 -0.046 0.063 3 
0.463 -0.057 0.063 3 
0.464 -0.065 0.063 3 
0.465 -0.119 0.069 3 
0.469 -0.256 0.072 3 
0.468 -0.268 0.072 3 
0.469 -0.275 0.072 3 
0.47 -0.285 0.072 3 
0.471 -0.296 0.072 3 
0.473 -0.316 0.072 3 
0.474 -0.327 0.073 3 
0.475 -0.335 0.073 3 
0.474 -0.338 0.073 3 
0.475 -0.346 0.073 3 
0.474 -0.348 0.073 3 
0.464 -0.076 0.063 3 
0.46 0.322 0.062 3 
0.459 0.304 0.062 3 
0.46 0.293 0.062 3 
0.46 0.283 0.062 3 
0.46 0.252 0.062 3 
0.46 0.223 0.063 3 
0.46 0.194 0.063 3 
0.46 0.183 0.063 3 
0.463 -0.057 0.034 3 
0.46 0.174 0.063 3 
0.46 -0.035 0.013 3 
0.46 0.243 0.054 3 
0.473 -0.306 0.064 3 
0.474 -0.317 0.064 3 
0.474 -0.327 0.064 3 
0.476 -0.347 0.064 3 
0.465 -0.166 0.044 3 
0.465 -0.09 0.058 3 
0.458 0.303 0.054 3 
0.459 0.292 0.054 3 
0.46 0.282 0.054 3 
0.46 0.264 0.054 3 
0.46 0.252 0.054 3 
0.469 -0.275 0.064 3 
0.46 0.234 0.054 3 
0.46 0.223 0.054 3 
0.46 0.214 0.054 3 
0.46 0.203 0.054 3 
0.46 0.194 0.054 3 
0.474 -0.355 0.055 3 
0.459 0.174 0.052 3 
0.46 0.163 0.052 3 
0.461 0.153 0.052 3 
0.46 0.144 0.052 3 
0.46 0.133 0.052 3 
0.466 -0.155 0.063 3 
0.464 -0.087 0.063 3 
0.464 -0.095 0.063 3 
0.465 -0.098 0.063 3 
0.465 -0.106 0.063 3 
0.464 -0.111 0.063 3 
0.465 -0.116 0.063 3 
0.476 -0.347 0.052 3 
0.464 -0.121 0.063 3 
0.465 -0.13 0.063 3 
0.465 -0.135 0.063 3 
0.467 -0.147 0.063 3 
0.468 -0.265 0.044 3 
0.466 -0.167 0.063 3 
0.467 -0.187 0.063 3 
0.468 -0.196 0.063 3 
0.468 -0.205 0.063 3 
0.467 -0.216 0.063 3 
0.468 -0.225 0.064 3 
0.469 -0.238 0.064 3 
0.469 -0.247 0.064 3 
0.469 -0.256 0.064 3 
0.469 -0.265 0.064 3 
0.457 0.332 0.012 3 
0.463 -0.146 0.012 3 
0.465 -0.186 0.023 3 
0.465 -0.197 0.023 3 
0.466 -0.207 0.022 3 
0.466 -0.215 0.022 3 
0.467 -0.225 0.022 3 
0.475 -0.357 0.02 3 
0.464 -0.146 0.018 3 
0.464 -0.197 0.017 3 
0.472 -0.333 0.014 3 
0.471 -0.346 0.014 3 
0.464 -0.182 0.023 3 
0.458 0.322 0.012 3 
0.458 0.303 0.012 3 
0.458 0.293 0.013 3 
0.459 0.282 0.013 3 
0.458 0.263 0.013 3 
0.458 0.254 0.013 3 
0.457 0.232 0.014 3 
0.458 0.224 0.014 3 
0.457 0.204 0.014 3 
0.457 0.192 0.014 3 
0.464 -0.155 0.015 3 
0.462 -0.036 0.023 3 
0.461 0.104 0.023 3 
0.46 0.093 0.023 3 
0.46 0.082 0.023 3 
0.46 0.074 0.023 3 
0.46 0.053 0.023 3 
0.46 0.042 0.023 3 
0.46 0.034 0.023 3 
0.459 0.024 0.024 3 
0.46 0.003 0.024 3 
0.461 -0.007 0.023 3 
0.462 -0.025 0.023 3 
0.465 -0.215 0.014 3 
0.462 -0.046 0.023 3 
0.461 -0.057 0.023 3 
0.462 -0.065 0.023 3 
0.463 -0.086 0.023 3 
0.464 -0.188 0.023 3 
0.463 -0.097 0.023 3 
0.464 -0.135 0.023 3 
0.465 -0.138 0.023 3 
0.465 -0.147 0.023 3 
0.465 -0.155 0.023 3 
0.465 -0.175 0.023 3 
0.471 -0.346 0.003 3 
0.462 -0.065 0.013 3 
0.461 -0.075 0.013 3 
0.461 -0.086 0.013 3 
0.461 -0.096 0.013 3 
0.462 -0.105 0.013 3 
0.463 -0.116 0.013 3 
0.462 -0.126 0.013 3 
0.464 -0.155 0.012 3 
0.464 -0.166 0.012 3 
0.463 -0.176 0.012 3 
0.463 -0.185 0.012 3 
0.459 -0.046 0.013 3 
0.464 -0.177 0.004 3 
0.465 -0.183 0.004 3 
0.464 -0.186 0.004 3 
0.461 0.072 0.002 3 
0.461 0.064 0.002 3 
0.461 0.042 0.002 3 
0.461 -0.036 0.002 3 
0.461 -0.046 0.002 3 
0.464 -0.065 0.002 3 
0.465 -0.068 0.002 3 
0.464 -0.076 0.002 3 
0.459 0.114 0.013 3 
0.467 -0.225 0.014 3 
0.467 -0.237 0.014 3 
0.468 -0.255 0.013 3 
0.468 -0.267 0.013 3 
0.47 -0.275 0.013 3 
0.471 -0.305 0.012 3 
0.471 -0.315 0.012 3 
0.457 0.184 0.012 3 
0.458 0.173 0.012 3 
0.458 0.154 0.012 3 
0.459 0.132 0.012 3 
0.461 0.114 0.023 3 
0.459 0.092 0.013 3 
0.459 0.084 0.013 3 
0.458 0.073 0.013 3 
0.458 0.063 0.013 3 
0.458 0.052 0.013 3 
0.459 0.042 0.013 3 
0.459 0.034 0.013 3 
0.459 0.024 0.013 3 
0.458 0.013 0.013 3 
0.459 0.003 0.013 3 
0.462 -0.007 0.034 3 
0.461 0.123 0.033 3 
0.461 0.104 0.034 3 
0.461 0.093 0.034 3 
0.46 0.082 0.034 3 
0.461 0.074 0.034 3 
0.461 0.064 0.034 3 
0.462 0.053 0.034 3 
0.461 0.032 0.034 3 
0.461 0.024 0.034 3 
0.461 0.014 0.034 3 
0.462 0.003 0.034 3 
0.46 0.133 0.033 3 
0.462 -0.017 0.034 3 
0.463 -0.025 0.034 3 
0.463 -0.065 0.034 3 
0.463 -0.076 0.034 3 
0.464 -0.086 0.034 3 
0.464 -0.097 0.034 3 
0.465 -0.1 0.034 3 
0.465 -0.106 0.034 3 
0.465 -0.116 0.034 3 
0.46 0.122 0.012 3 
0.465 -0.125 0.034 3 
0.459 0.314 0.034 3 
0.47 -0.287 0.044 3 
0.47 -0.297 0.044 3 
0.47 -0.307 0.044 3 
0.459 0.222 0.033 3 
0.472 -0.315 0.044 3 
0.473 -0.326 0.044 3 
0.474 -0.338 0.043 3 
0.464 -0.065 0.042 3 
0.475 -0.342 0.04 3 
0.456 0.331 0.034 3 
0.458 0.323 0.034 3 
0.465 -0.136 0.034 3 
0.459 0.294 0.032 3 
0.459 0.282 0.032 3 
0.46 0.273 0.032 3 
0.46 0.264 0.032 3 
0.459 0.254 0.032 3 
0.459 0.242 0.033 3 
0.459 0.213 0.033 3 
0.46 0.194 0.033 3 
0.459 0.174 0.033 3 
0.459 0.163 0.033 3 
0.46 0.144 0.033 3 
0.472 -0.306 0.024 3 
0.459 0.272 0.024 3 
0.458 0.262 0.024 3 
0.459 0.254 0.024 3 
0.459 0.242 0.024 3 
0.459 0.234 0.024 3 
0.464 -0.116 0.026 3 
0.468 -0.256 0.024 3 
0.469 -0.265 0.024 3 
0.47 -0.275 0.024 3 
0.471 -0.289 0.024 3 
0.471 -0.295 0.024 3 
0.458 0.293 0.024 3 
0.472 -0.326 0.023 3 
0.473 -0.337 0.023 3 
0.474 -0.345 0.023 3 
0.459 0.202 0.022 3 
0.459 0.174 0.022 3 
0.459 0.163 0.023 3 
0.46 0.013 0.024 3 
0.459 0.152 0.023 3 
0.459 0.144 0.023 3 
0.459 0.133 0.023 3 
0.461 0.122 0.023 3 
0.471 -0.295 0.032 3 
0.467 -0.148 0.034 3 
0.466 -0.155 0.034 3 
0.466 -0.186 0.033 3 
0.466 -0.195 0.033 3 
0.467 -0.207 0.033 3 
0.467 -0.216 0.033 3 
0.468 -0.237 0.033 3 
0.468 -0.255 0.033 3 
0.468 -0.265 0.033 3 
0.47 -0.278 0.033 3 
0.47 -0.287 0.033 3 
0.464 -0.105 0.023 3 
0.472 -0.315 0.032 3 
0.473 -0.327 0.032 3 
0.474 -0.335 0.032 3 
0.475 -0.339 0.032 3 
0.475 -0.346 0.032 3 
0.473 -0.317 0.023 3 
0.464 0.34 0.025 3 
0.457 0.332 0.023 3 
0.459 0.313 0.023 3 
0.459 0.304 0.023 3 
0.463 -0.036 0.103 3 
0.461 0.072 0.102 3 
0.461 0.064 0.102 3 
0.46 0.053 0.102 3 
0.46 0.043 0.102 3 
0.467 -0.207 0.052 3 
0.461 0.032 0.102 3 
0.461 0.014 0.102 3 
0.461 0.003 0.102 3 
0.462 -0.006 0.103 3 
0.463 -0.017 0.103 3 
0.463 -0.025 0.103 3 
0.461 0.083 0.103 3 
0.463 -0.046 0.103 3 
0.464 -0.057 0.103 3 
0.464 -0.065 0.103 3 
0.464 -0.076 0.103 3 
0.465 -0.079 0.103 3 
0.465 -0.087 0.103 3 
0.46 0.234 0.043 3 
0.464 -0.092 0.103 3 
0.464 -0.095 0.103 3 
0.465 -0.098 0.103 3 
0.465 -0.117 0.104 3 
0.461 0.204 0.103 3 
0.475 -0.31 0.11 3 
0.459 0.311 0.104 3 
0.46 0.293 0.104 3 
0.46 0.284 0.104 3 
0.459 0.334 0.082 3 
0.459 0.264 0.104 3 
0.46 0.253 0.104 3 
0.46 0.322 0.082 3 
0.46 0.232 0.103 3 
0.457 0.271 0.013 3 
0.46 0.223 0.103 3 
0.465 -0.125 0.104 3 
0.461 0.192 0.103 3 
0.475 -0.332 0.073 3 
0.461 0.184 0.103 3 
0.461 0.173 0.103 3 
0.46 0.164 0.103 3 
0.461 0.153 0.103 3 
0.461 0.142 0.103 3 
0.461 0.134 0.103 3 
0.462 0.123 0.103 3 
0.461 0.112 0.103 3 
0.461 0.104 0.103 3 
0.461 0.022 0.094 3 
0.473 -0.295 0.104 3 
0.474 -0.305 0.104 3 
0.464 -0.136 0.098 3 
0.475 -0.326 0.102 3 
0.475 -0.337 0.102 3 
0.473 -0.355 0.102 3 
0.46 0.088 0.094 3 
0.46 0.074 0.094 3 
0.46 0.064 0.094 3 
0.46 0.053 0.094 3 
0.461 0.043 0.094 3 
0.471 -0.286 0.104 3 
0.461 0.011 0.094 3 
0.461 -0.004 0.094 3 
0.476 -0.347 0.099 3 
0.46 0.336 0.094 3 
0.459 0.331 0.093 3 
0.46 0.322 0.093 3 
0.46 -0.017 0.013 3 
0.459 0.302 0.093 3 
0.46 0.214 0.092 3 
0.46 0.274 0.093 3 
0.459 0.264 0.093 3 
0.459 0.182 0.022 3 
0.464 -0.127 0.103 3 
0.465 -0.206 0.014 3 
0.465 -0.147 0.104 3 
0.467 -0.156 0.104 3 
0.467 -0.167 0.104 3 
0.467 -0.176 0.104 3 
0.46 0.336 0.102 3 
0.46 0.332 0.102 3 
0.46 0.322 0.102 3 
0.464 -0.111 0.101 3 
0.464 -0.122 0.101 3 
0.464 -0.092 0.106 3 
0.467 -0.187 0.102 3 
0.468 -0.196 0.102 3 
0.469 -0.206 0.102 3 
0.469 -0.217 0.102 3 
0.469 -0.226 0.102 3 
0.469 -0.235 0.103 3 
0.469 -0.247 0.103 3 
0.469 -0.256 0.103 3 
0.469 -0.266 0.103 3 
0.47 -0.276 0.103 3 
0.461 0.053 0.113 3 
0.461 0.173 0.114 3 
0.46 0.164 0.113 3 
0.46 0.153 0.113 3 
0.461 0.142 0.113 3 
0.461 0.134 0.113 3 
0.461 0.123 0.113 3 
0.46 0.104 0.113 3 
0.461 0.093 0.113 3 
0.464 -0.113 0.028 3 
0.461 0.083 0.113 3 
0.461 0.072 0.113 3 
0.461 0.192 0.114 3 
0.46 0.043 0.113 3 
0.466 -0.175 0.063 3 
0.459 0.213 0.022 3 
0.46 0.032 0.113 3 
0.462 0.024 0.113 3 
0.471 -0.296 0.064 3 
0.46 -0.056 0.013 3 
0.462 0.014 0.113 3 
0.46 0.264 0.073 3 
0.462 0.003 0.113 3 
0.458 0.162 0.012 3 
0.473 -0.295 0.124 3 
0.469 -0.197 0.124 3 
0.469 -0.206 0.124 3 
0.468 -0.217 0.124 3 
0.46 0.323 0.122 3 
0.464 -0.127 0.063 3 
0.468 -0.226 0.122 3 
0.47 -0.248 0.123 3 
0.47 -0.258 0.123 3 
0.471 -0.277 0.123 3 
0.472 -0.288 0.124 3 
0.464 -0.125 0.093 3 
0.462 -0.006 0.113 3 
0.459 0.335 0.119 3 
0.474 -0.306 0.122 3 
0.475 -0.31 0.122 3 
0.475 -0.327 0.123 3 
0.476 -0.335 0.123 3 
0.478 -0.348 0.124 3 
0.477 -0.357 0.124 3 
0.459 0.25 0.114 3 
0.46 0.233 0.114 3 
0.459 0.223 0.114 3 
0.46 0.212 0.114 3 
0.474 -0.322 0.116 3 
0.467 -0.157 0.112 3 
0.468 -0.168 0.113 3 
0.468 -0.176 0.113 3 
0.469 -0.197 0.113 3 
0.469 -0.215 0.113 3 
0.469 -0.226 0.114 3 
0.47 -0.236 0.114 3 
0.469 -0.247 0.114 3 
0.462 -0.046 0.052 3 
0.47 -0.257 0.114 3 
0.47 -0.267 0.114 3 
0.466 -0.145 0.112 3 
0.474 -0.326 0.116 3 
0.47 -0.276 0.112 3 
0.472 -0.287 0.112 3 
0.474 -0.305 0.113 3 
0.475 -0.316 0.113 3 
0.475 -0.327 0.114 3 
0.468 -0.246 0.083 3 
0.476 -0.345 0.114 3 
0.467 -0.246 0.022 3 
0.474 -0.35 0.114 3 
0.473 -0.356 0.114 3 
0.465 -0.117 0.114 3 
0.463 -0.025 0.113 3 
0.462 -0.035 0.113 3 
0.464 -0.057 0.114 3 
0.464 -0.065 0.114 3 
0.464 -0.076 0.114 3 
0.464 -0.136 0.093 3 
0.465 -0.084 0.114 3 
0.465 -0.087 0.114 3 
0.465 -0.095 0.114 3 
0.464 -0.1 0.114 3 
0.465 -0.106 0.114 3 
0.459 0.252 0.093 3 
0.465 -0.128 0.114 3 
0.474 -0.357 0.12 3 
0.459 0.335 0.113 3 
0.459 0.332 0.113 3 
0.461 0.314 0.113 3 
0.46 0.284 0.112 3 
0.46 0.272 0.112 3 
0.46 0.263 0.112 3 
0.466 -0.137 0.112 3 
0.468 -0.185 0.113 3 
0.46 0.322 0.074 3 
0.472 -0.297 0.084 3 
0.473 -0.307 0.084 3 
0.473 -0.317 0.084 3 
0.475 -0.335 0.084 3 
0.473 -0.347 0.084 3 
0.465 -0.092 0.079 3 
0.465 -0.106 0.077 3 
0.461 -0.017 0.023 3 
0.474 -0.338 0.079 3 
0.46 0.335 0.074 3 
0.46 0.332 0.074 3 
0.47 -0.285 0.084 3 
0.46 0.312 0.074 3 
0.459 0.301 0.074 3 
0.46 0.293 0.074 3 
0.46 0.283 0.074 3 
0.46 0.274 0.074 3 
0.46 0.252 0.073 3 
0.46 0.243 0.073 3 
0.461 0.232 0.073 3 
0.46 0.223 0.073 3 
0.46 0.214 0.073 3 
0.46 0.203 0.073 3 
0.466 -0.155 0.082 3 
0.459 0.292 0.082 3 
0.46 0.283 0.082 3 
0.474 -0.325 0.084 3 
0.464 -0.095 0.082 3 
0.465 -0.098 0.082 3 
0.464 -0.116 0.082 3 
0.464 -0.125 0.082 3 
0.465 -0.133 0.082 3 
0.46 0.152 0.063 3 
0.466 -0.136 0.082 3 
0.466 -0.147 0.082 3 
0.461 0.192 0.073 3 
0.462 -0.017 0.044 3 
0.466 -0.167 0.082 3 
0.466 -0.175 0.082 3 
0.467 -0.187 0.083 3 
0.467 -0.196 0.083 3 
0.468 -0.208 0.083 3 
0.468 -0.217 0.083 3 
0.469 -0.226 0.083 3 
0.468 -0.237 0.083 3 
0.468 -0.265 0.083 3 
0.457 0.143 0.012 3 
0.466 -0.167 0.074 3 
0.463 -0.076 0.074 3 
0.464 -0.087 0.074 3 
0.46 0.114 0.034 3 
0.465 -0.095 0.074 3 
0.465 -0.106 0.074 3 
0.464 -0.114 0.074 3 
0.464 -0.116 0.074 3 
0.465 -0.125 0.074 3 
0.465 -0.135 0.074 3 
0.466 -0.147 0.074 3 
0.467 -0.156 0.074 3 
0.463 -0.046 0.074 3 
0.467 -0.176 0.074 3 
0.467 -0.187 0.074 3 
0.464 -0.168 0.02 3 
0.468 -0.196 0.074 3 
0.468 -0.205 0.074 3 
0.475 -0.346 0.076 3 
0.465 -0.092 0.071 3 
0.467 -0.216 0.072 3 
0.468 -0.225 0.072 3 
0.468 -0.237 0.072 3 
0.468 -0.246 0.072 3 
0.462 0.053 0.073 3 
0.461 0.184 0.073 3 
0.46 0.172 0.073 3 
0.459 0.163 0.073 3 
0.46 0.152 0.073 3 
0.461 0.142 0.073 3 
0.462 0.123 0.073 3 
0.461 0.104 0.073 3 
0.461 0.093 0.073 3 
0.461 0.072 0.073 3 
0.461 0.064 0.073 3 
0.462 -0.017 0.073 3 
0.46 0.312 0.082 3 
0.461 0.043 0.073 3 
0.461 0.032 0.073 3 
0.462 0.024 0.073 3 
0.464 -0.057 0.074 3 
0.462 0.014 0.073 3 
0.462 0.003 0.073 3 
0.471 -0.308 0.032 3 
0.462 -0.006 0.073 3 
0.463 -0.025 0.074 3 
0.463 -0.036 0.074 3 
0.466 -0.167 0.093 3 
0.465 -0.087 0.093 3 
0.464 -0.089 0.092 3 
0.464 -0.095 0.093 3 
0.472 -0.336 0.014 3 
0.465 -0.098 0.093 3 
0.464 -0.105 0.093 3 
0.465 -0.109 0.093 3 
0.464 -0.116 0.093 3 
0.465 -0.13 0.093 3 
0.459 0.194 0.022 3 
0.466 -0.155 0.093 3 
0.462 -0.046 0.034 3 
0.466 -0.175 0.093 3 
0.467 -0.196 0.094 3 
0.468 -0.205 0.094 3 
0.469 -0.217 0.094 3 
0.469 -0.226 0.094 3 
0.469 -0.238 0.094 3 
0.468 -0.255 0.094 3 
0.459 0.311 0.054 3 
0.474 -0.315 0.096 3 
0.463 -0.065 0.074 3 
0.469 -0.265 0.092 3 
0.468 -0.255 0.083 3 
0.46 0.232 0.092 3 
0.46 0.223 0.092 3 
0.461 0.192 0.092 3 
0.461 0.184 0.092 3 
0.46 0.172 0.092 3 
0.461 0.064 0.052 3 
0.46 0.164 0.092 3 
0.461 0.153 0.092 3 
0.461 0.142 0.092 3 
0.461 0.134 0.092 3 
0.461 0.123 0.092 3 
0.47 -0.276 0.092 3 
0.461 0.112 0.092 3 
0.461 0.104 0.092 3 
0.461 0.083 0.092 3 
0.462 0.032 0.092 3 
0.461 0.104 0.052 3 
0.463 -0.017 0.092 3 
0.463 -0.025 0.092 3 
0.463 -0.046 0.092 3 
0.463 -0.057 0.092 3 
0.464 -0.065 0.092 3 
0.463 -0.076 0.092 3 
0.462 0.024 0.084 3 
0.462 0.134 0.084 3 
0.461 0.123 0.084 3 
0.461 0.112 0.084 3 
0.461 0.104 0.084 3 
0.461 0.093 0.084 3 
0.461 0.083 0.084 3 
0.46 0.074 0.084 3 
0.46 0.064 0.084 3 
0.461 0.053 0.084 3 
0.462 0.043 0.084 3 
0.461 0.032 0.084 3 
0.46 0.152 0.084 3 
0.462 0.014 0.084 3 
0.461 0.003 0.084 3 
0.462 -0.006 0.084 3 
0.462 -0.017 0.084 3 
0.463 -0.025 0.084 3 
0.463 -0.036 0.084 3 
0.462 -0.046 0.084 3 
0.46 0.214 0.063 3 
0.463 -0.057 0.084 3 
0.463 -0.065 0.084 3 
0.463 -0.076 0.084 3 
0.459 0.27 0.084 3 
0.472 -0.297 0.092 3 
0.472 -0.306 0.093 3 
0.474 -0.318 0.093 3 
0.475 -0.323 0.093 3 
0.475 -0.326 0.093 3 
0.474 -0.336 0.093 3 
0.476 -0.34 0.093 3 
0.476 -0.347 0.094 3 
0.474 -0.348 0.093 3 
0.474 -0.356 0.093 3 
0.474 -0.332 0.09 3 
0.469 -0.186 0.124 3 
0.459 0.264 0.084 3 
0.458 0.254 0.084 3 
0.46 0.243 0.084 3 
0.46 0.234 0.084 3 
0.46 0.223 0.084 3 
0.46 0.194 0.084 3 
0.46 0.183 0.084 3 
0.46 0.172 0.084 3 
0.459 0.331 0.054 3 
0.46 0.163 0.084 3 
0.304 -0.007 0.02 7 
0.298 -0.015 0.018 7 
0.297 0.002 0.021 7 
0.309 0.002 0.019 7 
0.305 -0.005 0.02 7 
0.309 -0.015 0.019 7 
0.327 -0.015 0.017 7 
0.323 -0.015 0.017 7 
