# .PCD v0.7 - Point Cloud Data file
FIELDS x y z intensity
SIZE 4 4 4 4
TYPE F F F F
COUNT 1 1 1 1
WIDTH 2424
HEIGHT 1
VIEWPOINT 0 0 0 1 0 0 0
POINTS 2424
DATA ascii
0.375 -0.23 -0.025 1 
0.364 -0.155 -0.018 1 
0.364 -0.145 -0.018 1 
0.363 -0.137 -0.017 1 
0.363 -0.125 -0.017 1 
0.359 -0.106 -0.015 1 
0.353 -0.046 -0.012 1 
0.354 -0.036 -0.012 1 
0.351 -0.026 -0.011 1 
0.341 -0.015 -0.008 1 
0.333 0.003 -0.005 1 
0.332 0.004 -0.004 1 
0.332 0.009 -0.004 1 
0.334 0.014 -0.005 1 
0.353 0.064 -0.013 1 
0.353 0.083 -0.013 1 
0.354 0.087 -0.014 1 
0.351 0.103 -0.013 1 
0.348 0.124 -0.012 1 
0.35 0.133 -0.013 1 
0.354 0.143 -0.015 1 
0.353 0.154 -0.015 1 
0.351 0.156 -0.015 1 
0.384 -0.255 -0.028 1 
0.371 -0.146 -0.019 1 
0.363 -0.092 -0.015 1 
0.361 -0.085 -0.014 1 
0.363 -0.077 -0.014 1 
0.362 -0.066 -0.014 1 
0.337 0.014 -0.005 1 
0.354 0.034 -0.011 1 
0.354 0.037 -0.011 1 
0.359 0.084 -0.014 1 
0.361 0.09 -0.014 1 
0.361 0.094 -0.015 1 
0.361 0.096 -0.015 1 
0.353 0.111 -0.012 1 
0.352 0.181 -0.015 1 
0.383 -0.246 -0.025 1 
0.382 -0.237 -0.024 1 
0.384 -0.232 -0.024 1 
0.386 -0.231 -0.025 1 
0.374 -0.195 -0.02 1 
0.374 -0.186 -0.019 1 
0.373 -0.175 -0.018 1 
0.374 -0.136 -0.018 1 
0.373 -0.126 -0.017 1 
0.371 -0.115 -0.016 1 
0.371 -0.075 -0.015 1 
0.362 -0.055 -0.012 1 
0.364 -0.035 -0.012 1 
0.353 -0.016 -0.009 1 
0.343 0.017 -0.005 1 
0.362 0.064 -0.013 1 
0.364 0.068 -0.013 1 
0.365 0.107 -0.014 1 
0.363 0.121 -0.014 1 
0.364 0.124 -0.015 1 
0.363 0.133 -0.014 1 
0.363 0.134 -0.015 1 
0.364 0.153 -0.015 1 
0.357 0.176 -0.014 1 
0.357 0.182 -0.015 1 
0.362 0.193 -0.017 1 
0.353 0.214 -0.015 1 
0.352 0.215 -0.015 1 
0.394 -0.255 -0.027 1 
0.38 -0.196 -0.02 1 
0.369 -0.065 -0.013 1 
0.363 -0.026 -0.011 1 
0.364 0.043 -0.011 1 
0.364 0.045 -0.011 1 
0.372 0.082 -0.014 1 
0.372 0.084 -0.015 1 
0.373 0.104 -0.015 1 
0.37 0.123 -0.015 1 
0.37 0.133 -0.015 1 
0.37 0.163 -0.016 1 
0.356 0.217 -0.014 1 
0.394 -0.25 -0.024 1 
0.399 -0.245 -0.025 1 
0.384 -0.16 -0.018 1 
0.384 -0.128 -0.017 1 
0.384 -0.118 -0.017 1 
0.38 -0.1 -0.015 1 
0.382 -0.085 -0.015 1 
0.382 -0.077 -0.015 1 
0.374 -0.046 -0.012 1 
0.372 -0.036 -0.011 1 
0.359 -0.015 -0.007 1 
0.353 -0.006 -0.005 1 
0.353 0.02 -0.005 1 
0.364 0.027 -0.009 1 
0.374 0.138 -0.015 1 
0.371 0.144 -0.014 1 
0.371 0.148 -0.014 1 
0.371 0.184 -0.016 1 
0.364 0.219 -0.015 1 
0.402 -0.275 -0.026 1 
0.401 -0.263 -0.025 1 
0.394 -0.22 -0.02 1 
0.392 -0.207 -0.02 1 
0.39 -0.155 -0.017 1 
0.391 -0.107 -0.017 1 
0.384 -0.095 -0.014 1 
0.387 -0.072 -0.015 1 
0.384 -0.066 -0.014 1 
0.382 -0.055 -0.013 1 
0.379 -0.045 -0.012 1 
0.378 -0.035 -0.012 1 
0.38 -0.026 -0.013 1 
0.367 -0.015 -0.008 1 
0.355 -0.004 -0.004 1 
0.374 0.043 -0.011 1 
0.382 0.084 -0.014 1 
0.383 0.101 -0.015 1 
0.384 0.113 -0.015 1 
0.382 0.12 -0.015 1 
0.38 0.133 -0.014 1 
0.38 0.138 -0.015 1 
0.381 0.163 -0.016 1 
0.375 0.174 -0.014 1 
0.374 0.222 -0.016 1 
0.374 0.232 -0.017 1 
0.406 -0.28 -0.025 1 
0.404 -0.275 -0.024 1 
0.407 -0.272 -0.025 1 
0.404 -0.266 -0.023 1 
0.374 0.054 -0.011 1 
0.404 -0.263 -0.023 1 
0.408 -0.257 -0.024 1 
0.402 -0.245 -0.022 1 
0.404 -0.237 -0.022 1 
0.383 -0.216 -0.021 1 
0.402 -0.227 -0.021 1 
0.394 -0.125 -0.016 1 
0.394 -0.115 -0.016 1 
0.393 -0.079 -0.015 1 
0.389 -0.065 -0.013 1 
0.391 -0.055 -0.014 1 
0.377 -0.016 -0.01 1 
0.367 -0.006 -0.006 1 
0.367 -0.003 -0.006 1 
0.361 0.021 -0.005 1 
0.373 0.033 -0.009 1 
0.381 0.044 -0.011 1 
0.384 0.067 -0.012 1 
0.389 0.103 -0.015 1 
0.389 0.114 -0.015 1 
0.384 0.144 -0.014 1 
0.383 0.154 -0.014 1 
0.383 0.156 -0.014 1 
0.385 0.162 -0.015 1 
0.38 0.181 -0.014 1 
0.414 -0.266 -0.024 1 
0.414 -0.241 -0.023 1 
0.401 -0.217 -0.018 1 
0.401 -0.205 -0.018 1 
0.401 -0.195 -0.018 1 
0.403 -0.166 -0.017 1 
0.399 -0.146 -0.016 1 
0.399 -0.135 -0.015 1 
0.398 -0.102 -0.015 1 
0.392 -0.045 -0.012 1 
0.394 -0.036 -0.013 1 
0.392 -0.025 -0.012 1 
0.341 0.017 0.002 1 
0.352 0.138 -0.014 1 
0.375 0.024 -0.007 1 
0.391 0.063 -0.013 1 
0.4 -0.243 -0.026 1 
0.391 0.073 -0.013 1 
0.393 0.084 -0.013 1 
0.393 0.092 -0.014 1 
0.394 0.103 -0.014 1 
0.394 0.114 -0.014 1 
0.392 0.124 -0.014 1 
0.388 0.153 -0.013 1 
0.39 0.164 -0.014 1 
0.389 0.168 -0.014 1 
0.389 0.175 -0.015 1 
0.386 0.202 -0.015 1 
0.373 0.151 -0.015 1 
0.383 0.234 -0.015 1 
0.381 0.242 -0.015 1 
0.38 0.246 -0.015 1 
0.408 -0.228 -0.018 1 
0.404 -0.186 -0.016 1 
0.404 -0.183 -0.016 1 
0.404 -0.098 -0.014 1 
0.402 -0.086 -0.013 1 
0.402 -0.067 -0.013 1 
0.398 -0.047 -0.012 1 
0.399 -0.036 -0.012 1 
0.394 -0.015 -0.011 1 
0.384 0.025 -0.008 1 
0.394 0.041 -0.011 1 
0.399 0.074 -0.013 1 
0.372 -0.106 -0.016 1 
0.398 0.123 -0.014 1 
0.395 0.184 -0.015 1 
0.395 0.186 -0.015 1 
0.391 0.194 -0.014 1 
0.393 0.222 -0.015 1 
0.387 0.243 -0.015 1 
0.422 -0.295 -0.023 1 
0.421 -0.285 -0.022 1 
0.424 -0.268 -0.022 1 
0.423 -0.258 -0.021 1 
0.424 -0.248 -0.021 1 
0.421 -0.237 -0.02 1 
0.414 -0.206 -0.017 1 
0.414 -0.196 -0.017 1 
0.411 -0.165 -0.015 1 
0.412 -0.147 -0.015 1 
0.353 0.194 -0.016 1 
0.413 -0.136 -0.015 1 
0.413 -0.126 -0.015 1 
0.393 -0.246 -0.026 1 
0.414 -0.115 -0.015 1 
0.413 -0.106 -0.015 1 
0.413 -0.097 -0.015 1 
0.413 -0.092 -0.015 1 
0.412 -0.085 -0.014 1 
0.41 -0.075 -0.014 1 
0.408 -0.066 -0.013 1 
0.4 -0.016 -0.011 1 
0.401 0.053 -0.011 1 
0.391 0.024 -0.008 1 
0.401 0.144 -0.013 1 
0.403 0.152 -0.014 1 
0.401 0.162 -0.013 1 
0.401 0.181 -0.014 1 
0.396 0.194 -0.013 1 
0.394 0.202 -0.013 1 
0.401 0.222 -0.015 1 
0.403 0.234 -0.016 1 
0.394 0.243 -0.014 1 
0.391 0.253 -0.014 1 
0.392 0.257 -0.015 1 
0.424 -0.227 -0.018 1 
0.421 -0.217 -0.017 1 
0.42 -0.196 -0.016 1 
0.416 -0.173 -0.014 1 
0.418 -0.155 -0.015 1 
0.419 -0.125 -0.014 1 
0.419 -0.115 -0.014 1 
0.42 -0.113 -0.015 1 
0.421 -0.095 -0.015 1 
0.421 -0.09 -0.015 1 
0.414 -0.048 -0.012 1 
0.414 -0.026 -0.012 1 
0.407 -0.005 -0.01 1 
0.404 -0.003 -0.01 1 
0.411 0.053 -0.012 1 
0.412 0.062 -0.012 1 
0.414 0.074 -0.013 1 
0.413 0.082 -0.013 1 
0.412 0.093 -0.013 1 
0.41 0.133 -0.013 1 
0.409 0.163 -0.013 1 
0.404 0.213 -0.014 1 
0.404 0.215 -0.014 1 
0.406 0.232 -0.015 1 
0.4 0.244 -0.014 1 
0.402 0.262 -0.015 1 
0.4 0.266 -0.015 1 
0.398 0.266 -0.014 1 
0.43 -0.286 -0.019 1 
0.431 -0.278 -0.019 1 
0.431 -0.255 -0.018 1 
0.43 -0.245 -0.018 1 
0.425 -0.205 -0.015 1 
0.426 -0.185 -0.015 1 
0.424 -0.178 -0.014 1 
0.425 -0.177 -0.015 1 
0.423 -0.156 -0.014 1 
0.423 -0.146 -0.014 1 
0.424 -0.139 -0.014 1 
0.374 0.211 -0.016 1 
0.424 -0.106 -0.013 1 
0.424 -0.103 -0.013 1 
0.423 -0.075 -0.013 1 
0.422 -0.065 -0.012 1 
0.42 -0.056 -0.012 1 
0.424 -0.045 -0.013 1 
0.383 -0.185 -0.018 1 
0.394 -0.147 -0.016 1 
0.404 0.104 -0.013 1 
0.424 -0.036 -0.013 1 
0.421 -0.026 -0.012 1 
0.397 0.025 -0.006 1 
0.417 0.063 -0.011 1 
0.413 0.144 -0.012 1 
0.414 0.152 -0.012 1 
0.361 0.164 -0.015 1 
0.414 0.174 -0.013 1 
0.414 0.194 -0.013 1 
0.41 0.239 -0.014 1 
0.412 0.243 -0.015 1 
0.407 0.254 -0.014 1 
0.412 0.273 -0.016 1 
0.41 0.28 -0.016 1 
0.433 -0.229 -0.015 1 
0.43 -0.219 -0.015 1 
0.43 -0.216 -0.014 1 
0.43 -0.206 -0.014 1 
0.381 -0.074 -0.015 1 
0.432 -0.197 -0.014 1 
0.43 -0.185 -0.014 1 
0.371 0.099 -0.014 1 
0.431 -0.176 -0.014 1 
0.428 -0.146 -0.012 1 
0.43 -0.135 -0.013 1 
0.429 -0.125 -0.012 1 
0.429 -0.115 -0.012 1 
0.429 -0.105 -0.012 1 
0.428 -0.076 -0.012 1 
0.351 0.178 -0.014 1 
0.43 -0.046 -0.012 1 
0.467 -0.004 -0.022 1 
0.423 0.074 -0.011 1 
0.421 0.092 -0.011 1 
0.422 0.123 -0.011 1 
0.421 0.154 -0.012 1 
0.421 0.164 -0.012 1 
0.418 0.174 -0.012 1 
0.414 0.206 -0.011 1 
0.381 0.124 -0.014 1 
0.412 0.282 -0.014 1 
0.444 -0.297 -0.018 1 
0.44 -0.275 -0.016 1 
0.437 -0.255 -0.015 1 
0.439 -0.24 -0.015 1 
0.44 -0.219 -0.015 1 
0.434 -0.157 -0.012 1 
0.438 -0.136 -0.012 1 
0.434 -0.095 -0.011 1 
0.434 -0.088 -0.011 1 
0.434 -0.016 -0.011 1 
0.434 -0.013 -0.011 1 
0.396 0.025 -0.001 1 
0.432 0.034 -0.011 1 
0.433 0.043 -0.011 1 
0.433 0.053 -0.011 1 
0.432 0.062 -0.011 1 
0.43 0.074 -0.01 1 
0.431 0.084 -0.011 1 
0.43 0.093 -0.011 1 
0.427 0.143 -0.011 1 
0.424 0.194 -0.011 1 
0.42 0.224 -0.011 1 
0.419 0.234 -0.011 1 
0.424 0.252 -0.013 1 
0.423 0.273 -0.014 1 
0.419 0.284 -0.013 1 
0.445 -0.292 -0.015 1 
0.441 -0.285 -0.014 1 
0.443 -0.229 -0.013 1 
0.443 -0.216 -0.013 1 
0.443 -0.197 -0.012 1 
0.442 -0.185 -0.012 1 
0.443 -0.175 -0.012 1 
0.443 -0.168 -0.012 1 
0.442 -0.157 -0.011 1 
0.444 -0.147 -0.012 1 
0.44 -0.115 -0.01 1 
0.44 -0.105 -0.01 1 
0.405 -0.096 -0.014 1 
0.441 -0.095 -0.01 1 
0.422 0.083 -0.011 1 
0.442 -0.085 -0.01 1 
0.443 -0.076 -0.011 1 
0.442 -0.065 -0.01 1 
0.442 -0.055 -0.01 1 
0.404 0.062 -0.012 1 
0.442 -0.036 -0.01 1 
0.418 0.054 -0.012 1 
0.439 -0.026 -0.01 1 
0.444 -0.006 -0.011 1 
0.342 -0.005 -0.006 1 
0.434 0.154 -0.01 1 
0.433 0.162 -0.01 1 
0.429 0.182 -0.01 1 
0.424 0.204 -0.009 1 
0.423 0.208 -0.009 1 
0.424 0.238 -0.01 1 
0.422 0.293 -0.012 1 
0.451 -0.331 -0.015 1 
0.449 -0.322 -0.014 1 
0.453 -0.317 -0.015 1 
0.42 -0.206 -0.016 1 
0.453 -0.307 -0.015 1 
0.454 -0.298 -0.015 1 
0.444 -0.267 -0.011 1 
0.444 -0.247 -0.011 1 
0.41 0.104 -0.012 1 
0.444 -0.244 -0.011 1 
0.453 -0.226 -0.012 1 
0.452 -0.217 -0.012 1 
0.45 -0.205 -0.011 1 
0.449 -0.185 -0.011 1 
0.452 -0.146 -0.011 1 
0.448 -0.105 -0.01 1 
0.475 -0.004 -0.016 1 
0.443 0.032 -0.008 1 
0.444 0.04 -0.009 1 
0.444 0.063 -0.009 1 
0.443 0.072 -0.009 1 
0.444 0.083 -0.009 1 
0.444 0.103 -0.009 1 
0.442 0.133 -0.009 1 
0.434 0.193 -0.009 1 
0.429 0.203 -0.008 1 
0.428 0.212 -0.008 1 
0.432 0.224 -0.009 1 
0.432 0.234 -0.009 1 
0.432 0.254 -0.01 1 
0.431 0.261 -0.01 1 
0.432 0.274 -0.011 1 
0.432 0.283 -0.011 1 
0.422 0.133 -0.011 1 
0.452 -0.265 -0.01 1 
0.454 -0.255 -0.011 1 
0.454 -0.235 -0.01 1 
0.454 -0.161 -0.009 1 
0.454 -0.136 -0.009 1 
0.454 -0.12 -0.009 1 
0.454 -0.097 -0.008 1 
0.444 -0.206 -0.013 1 
0.454 -0.089 -0.008 1 
0.454 -0.066 -0.008 1 
0.454 -0.058 -0.008 1 
0.454 -0.009 -0.008 1 
0.442 0.164 -0.007 1 
0.442 0.172 -0.008 1 
0.41 0.193 -0.015 1 
0.439 0.183 -0.007 1 
0.44 0.203 -0.008 1 
0.438 0.212 -0.008 1 
0.434 0.294 -0.009 1 
0.43 0.302 -0.009 1 
0.462 -0.336 -0.012 1 
0.381 0.184 -0.015 1 
0.464 -0.315 -0.012 1 
0.402 -0.075 -0.013 1 
0.461 -0.296 -0.01 1 
0.462 -0.236 -0.009 1 
0.453 0.034 -0.006 1 
0.44 0.144 -0.009 1 
0.454 0.044 -0.006 1 
0.454 0.047 -0.006 1 
0.455 0.057 -0.006 1 
0.454 0.062 -0.006 1 
0.454 0.073 -0.006 1 
0.454 0.083 -0.006 1 
0.454 0.093 -0.006 1 
0.453 0.104 -0.006 1 
0.452 0.114 -0.006 1 
0.451 0.134 -0.006 1 
0.449 0.154 -0.006 1 
0.447 0.162 -0.006 1 
0.447 0.173 -0.006 1 
0.444 0.189 -0.006 1 
0.444 0.239 -0.007 1 
0.44 0.282 -0.007 1 
0.444 0.314 -0.009 1 
0.444 0.317 -0.009 1 
0.392 0.205 -0.014 1 
0.464 -0.346 -0.01 1 
0.464 -0.264 -0.007 1 
0.463 -0.217 -0.006 1 
0.463 -0.197 -0.006 1 
0.462 -0.176 -0.006 1 
0.463 -0.157 -0.006 1 
0.463 -0.116 -0.005 1 
0.463 -0.076 -0.005 1 
0.384 -0.237 -0.025 1 
0.463 -0.057 -0.005 1 
0.462 -0.038 -0.005 1 
0.467 -0.015 -0.006 1 
0.418 -0.148 -0.015 1 
0.457 0.113 -0.005 1 
0.457 0.121 -0.005 1 
0.456 0.142 -0.005 1 
0.455 0.147 -0.005 1 
0.453 0.154 -0.004 1 
0.451 0.164 -0.004 1 
0.451 0.172 -0.004 1 
0.451 0.18 -0.004 1 
0.391 0.233 -0.015 1 
0.394 -0.001 -0.007 1 
0.451 0.183 -0.005 1 
0.45 0.193 -0.005 1 
0.45 0.202 -0.005 1 
0.45 0.213 -0.005 1 
0.451 0.222 -0.005 1 
0.45 0.233 -0.005 1 
0.448 0.243 -0.005 1 
0.447 0.253 -0.005 1 
0.446 0.264 -0.005 1 
0.446 0.273 -0.006 1 
0.446 0.282 -0.006 1 
0.445 0.293 -0.006 1 
0.443 0.294 -0.006 1 
0.446 0.304 -0.007 1 
0.456 0.134 -0.005 1 
0.47 -0.285 -0.006 1 
0.469 -0.275 -0.006 1 
0.47 -0.266 -0.006 1 
0.47 -0.257 -0.006 1 
0.47 -0.245 -0.005 1 
0.47 -0.236 -0.005 1 
0.468 -0.226 -0.005 1 
0.467 -0.22 -0.005 1 
0.464 -0.076 -0.002 1 
0.452 -0.302 -0.014 1 
0.464 -0.065 -0.002 1 
0.464 -0.046 -0.002 1 
0.411 -0.186 -0.016 1 
0.475 -0.007 -0.005 1 
0.478 -0.004 -0.005 1 
0.454 0.233 -0.004 1 
0.453 0.244 -0.004 1 
0.451 0.254 -0.003 1 
0.449 0.313 -0.005 1 
0.446 0.319 -0.005 1 
0.472 -0.355 -0.006 1 
0.473 -0.349 -0.006 1 
0.476 -0.348 -0.006 1 
0.475 -0.344 -0.006 1 
0.474 -0.336 -0.005 1 
0.43 0.134 -0.011 1 
0.441 0.262 -0.007 1 
0.473 -0.328 -0.005 1 
0.364 -0.076 -0.015 1 
0.473 -0.317 -0.005 1 
0.448 -0.047 -0.009 1 
0.473 -0.311 -0.005 1 
0.473 -0.307 -0.004 1 
0.39 -0.225 -0.022 1 
0.388 0.004 0.014 1 
0.389 -0.005 -0.009 1 
0.385 0.012 0.014 1 
0.383 0.014 0.015 1 
0.454 0.262 -0.001 1 
0.454 0.277 -0.002 1 
0.453 0.304 -0.003 1 
0.474 -0.357 -0.003 1 
0.473 -0.285 -0.001 1 
0.38 -0.005 -0.009 1 
0.478 -0.001 0 1 
0.404 0.004 0.013 1 
0.403 -0.007 -0.009 1 
0.4 0.013 0.014 1 
0.464 0.032 0.002 1 
0.465 0.035 0.001 1 
0.461 0.114 0.002 1 
0.473 -0.215 0.002 1 
0.472 -0.205 0.002 1 
0.471 -0.196 0.002 1 
0.47 -0.186 0.003 1 
0.47 -0.175 0.003 1 
0.47 -0.166 0.003 1 
0.47 -0.155 0.003 1 
0.469 -0.146 0.003 1 
0.374 -0.206 -0.022 1 
0.423 0.114 -0.011 1 
0.469 -0.135 0.003 1 
0.468 -0.085 0.004 1 
0.467 -0.077 0.004 1 
0.464 0.043 0.004 1 
0.461 0.098 0.004 1 
0.461 0.123 0.004 1 
0.46 0.172 0.004 1 
0.46 0.183 0.003 1 
0.46 0.194 0.003 1 
0.46 0.223 0.003 1 
0.46 0.244 0.002 1 
0.384 -0.175 -0.018 1 
0.458 0.263 0.002 1 
0.459 0.273 0.002 1 
0.458 0.284 0.002 1 
0.454 0.322 0.001 1 
0.423 -0.086 -0.013 1 
0.477 -0.305 0.003 1 
0.482 -0.007 -0.015 1 
0.476 -0.297 0.003 1 
0.475 -0.286 0.003 1 
0.475 -0.283 0.003 1 
0.473 -0.275 0.004 1 
0.474 -0.266 0.004 1 
0.474 -0.257 0.004 1 
0.475 -0.246 0.004 1 
0.475 -0.243 0.004 1 
0.473 -0.227 0.004 1 
0.402 -0.157 -0.017 1 
0.458 0.294 0.004 1 
0.458 0.303 0.004 1 
0.458 0.313 0.004 1 
0.456 0.324 0.004 1 
0.356 0.104 -0.013 1 
0.366 0.023 -0.006 1 
0.455 0.052 -0.006 1 
0.462 0.003 0.013 1 
0.464 -0.012 -0.008 1 
0.462 0.014 0.013 1 
0.462 0.024 0.013 1 
0.461 -0.025 -0.005 1 
0.461 0.032 0.013 1 
0.463 -0.046 -0.005 1 
0.462 -0.065 -0.005 1 
0.409 0.202 -0.012 1 
0.383 -0.146 -0.017 1 
0.463 -0.086 -0.005 1 
0.454 -0.166 -0.009 1 
0.463 -0.105 -0.005 1 
0.464 -0.125 -0.005 1 
0.463 -0.146 -0.005 1 
0.408 0.263 -0.014 1 
0.384 -0.206 -0.019 1 
0.453 -0.333 -0.013 1 
0.454 0.328 0.009 1 
0.384 0.193 -0.014 1 
0.462 -0.165 -0.005 1 
0.462 -0.185 -0.006 1 
0.461 -0.227 -0.009 1 
0.461 -0.247 -0.009 1 
0.443 0.253 -0.007 1 
0.464 -0.292 -0.008 1 
0.457 0.302 0.013 1 
0.462 -0.306 -0.011 1 
0.457 0.311 0.012 1 
0.456 0.323 0.012 1 
0.461 -0.325 -0.014 1 
0.455 0.329 0.012 1 
0.441 -0.276 -0.014 1 
0.41 0.113 -0.012 1 
0.372 0.113 -0.015 1 
0.412 0.123 -0.013 1 
0.372 0.237 -0.016 1 
0.39 0.173 -0.015 1 
0.428 0.104 -0.01 1 
0.438 -0.267 -0.015 1 
0.444 0.093 -0.009 1 
0.443 -0.315 -0.018 1 
0.403 0.134 -0.013 1 
0.451 0.142 -0.006 1 
0.4 -0.105 -0.015 1 
0.438 -0.247 -0.015 1 
0.468 -0.126 0.004 1 
0.431 0.173 -0.01 1 
0.449 -0.196 -0.011 1 
0.474 -0.251 0.004 1 
0.386 0.016 0.014 1 
0.392 -0.076 -0.014 1 
0.444 -0.255 -0.011 1 
0.453 -0.017 -0.008 1 
0.36 0.114 -0.013 1 
0.422 -0.015 -0.012 1 
0.452 0.124 -0.006 1 
0.354 -0.055 -0.012 1 
0.454 0.328 0.001 1 
0.442 0.122 -0.009 1 
0.367 -0.026 -0.01 1 
0.45 0.191 -0.004 1 
0.422 0.104 -0.011 1 
0.364 -0.07 -0.015 1 
0.391 0.258 -0.014 1 
0.444 0.154 -0.007 1 
0.402 0.019 0.013 1 
0.354 0.164 -0.014 1 
0.351 0.174 -0.014 1 
0.424 0.184 -0.011 1 
0.464 -0.136 -0.006 1 
0.39 0.133 -0.013 1 
0.407 -0.035 -0.012 1 
0.344 0.164 -0.013 1 
0.381 0.098 -0.014 1 
0.374 -0.097 -0.015 1 
0.394 0.033 -0.011 1 
0.351 0.053 -0.012 1 
0.389 -0.195 -0.018 1 
0.417 -0.176 -0.015 1 
0.419 0.043 -0.012 1 
0.37 -0.215 -0.023 1 
0.444 -0.046 -0.011 1 
0.363 0.204 -0.016 1 
0.441 0.274 -0.007 1 
0.46 0.232 0.003 1 
0.373 -0.089 -0.014 1 
0.37 -0.073 -0.015 1 
0.401 0.251 -0.014 1 
0.444 0.053 -0.009 1 
0.422 -0.277 -0.022 1 
0.43 0.112 -0.011 1 
0.454 0.216 -0.003 1 
0.357 -0.006 -0.005 1 
0.413 -0.215 -0.017 1 
0.384 -0.093 -0.014 1 
0.352 0.204 -0.016 1 
0.352 -0.004 -0.005 1 
0.4 0.214 -0.015 1 
0.453 0.314 -0.003 1 
0.431 0.123 -0.011 1 
0.476 -0.007 -0.002 1 
0.39 0.142 -0.014 1 
0.455 0.329 0.004 1 
0.404 0.243 -0.015 1 
0.383 -0.105 -0.016 1 
0.392 -0.101 -0.015 1 
0.475 -0.231 0.001 1 
0.414 -0.247 -0.023 1 
0.381 0.019 0.015 1 
0.388 0.117 -0.015 1 
0.474 -0.236 0.004 1 
0.374 0.062 -0.011 1 
0.404 0.108 -0.013 1 
0.411 0.224 -0.014 1 
0.426 -0.167 -0.015 1 
0.431 -0.235 -0.017 1 
0.372 0.086 -0.015 1 
0.471 -0.01 -0.007 1 
0.429 -0.267 -0.018 1 
0.429 -0.065 -0.012 1 
0.34 0.014 0.003 1 
0.406 -0.055 -0.012 1 
0.382 0.062 -0.012 1 
0.47 -0.295 -0.006 1 
0.454 -0.128 -0.009 1 
0.475 -0.258 0.001 1 
0.461 0.133 0.004 1 
0.38 0.203 -0.015 1 
0.382 0.193 -0.015 1 
0.417 -0.166 -0.015 1 
0.385 0.183 -0.014 1 
0.475 -0.267 0.001 1 
0.393 0.253 -0.015 1 
0.463 -0.017 -0.005 1 
0.453 -0.275 -0.011 1 
0.468 -0.096 0.004 1 
0.474 -0.295 -0.001 1 
0.392 -0.238 -0.025 1 
0.358 0.174 -0.015 1 
0.464 -0.267 -0.007 1 
0.361 0.147 -0.014 1 
0.343 -0.002 -0.005 1 
0.414 0.184 -0.013 1 
0.378 -0.001 -0.008 1 
0.394 -0.183 -0.017 1 
0.453 -0.027 -0.008 1 
0.411 0.044 -0.012 1 
0.423 0.262 -0.013 1 
0.42 0.144 -0.011 1 
0.426 -0.296 -0.021 1 
0.441 -0.288 -0.017 1 
0.453 -0.035 -0.008 1 
0.459 0.252 0.002 1 
0.453 -0.285 -0.011 1 
0.412 -0.175 -0.016 1 
0.439 -0.016 -0.01 1 
0.4 -0.055 -0.013 1 
0.367 -0.096 -0.014 1 
0.364 -0.096 -0.015 1 
0.444 0.298 -0.006 1 
0.412 -0.156 -0.015 1 
0.399 -0.126 -0.015 1 
0.453 -0.076 -0.008 1 
0.375 0.13 -0.015 1 
0.374 -0.061 -0.012 1 
0.459 0.163 0.004 1 
0.363 -0.045 -0.012 1 
0.443 -0.126 -0.011 1 
0.454 -0.177 -0.009 1 
0.467 -0.107 0.004 1 
0.426 -0.027 -0.011 1 
0.419 -0.185 -0.016 1 
0.402 -0.267 -0.025 1 
0.389 0.052 -0.012 1 
0.4 0.174 -0.014 1 
0.441 -0.307 -0.02 1 
0.441 0.114 -0.009 1 
0.428 -0.055 -0.012 1 
0.462 -0.275 -0.01 1 
0.418 0.274 -0.015 1 
0.394 0.214 -0.015 1 
0.374 -0.157 -0.018 1 
0.384 0.051 -0.012 1 
0.454 0.274 -0.002 1 
0.453 0.292 -0.002 1 
0.381 0.223 -0.016 1 
0.371 0.173 -0.015 1 
0.371 0.093 -0.014 1 
0.421 -0.006 -0.012 1 
0.399 0.082 -0.013 1 
0.384 -0.166 -0.018 1 
0.36 0.142 -0.014 1 
0.46 0.203 0.003 1 
0.401 0.044 -0.011 1 
0.393 -0.187 -0.019 1 
0.41 0.033 -0.011 1 
0.36 -0.116 -0.016 1 
0.4 0.204 -0.012 1 
0.38 0.214 -0.016 1 
0.418 0.034 -0.011 1 
0.393 -0.085 -0.015 1 
0.411 0.234 -0.014 1 
0.374 0.134 -0.014 1 
0.463 -0.097 -0.005 1 
0.39 -0.096 -0.014 1 
0.439 0.224 -0.008 1 
0.426 -0.195 -0.015 1 
0.39 -0.166 -0.018 1 
0.407 -0.275 -0.022 1 
0.353 0.073 -0.013 1 
0.463 0.053 0.004 1 
0.468 -0.001 -0.001 1 
0.464 -0.057 -0.002 1 
0.464 -0.206 -0.006 1 
0.398 -0.026 -0.012 1 
0.381 0.094 -0.014 1 
0.374 0.193 -0.017 1 
0.43 -0.037 -0.012 1 
0.465 0.046 0.001 1 
0.383 0.174 -0.015 1 
0.451 -0.247 -0.01 1 
0.46 0.214 0.003 1 
0.431 0.242 -0.009 1 
0.444 0.233 -0.007 1 
0.434 -0.165 -0.012 1 
0.4 -0.115 -0.015 1 
0.408 -0.016 -0.011 1 
0.373 0.203 -0.017 1 
0.359 0.213 -0.015 1 
0.391 -0.09 -0.014 1 
0.384 -0.136 -0.017 1 
0.394 -0.136 -0.016 1 
0.369 -0.165 -0.017 1 
0.374 0.073 -0.013 1 
0.353 -0.001 -0.002 1 
0.399 0.093 -0.013 1 
0.428 -0.029 0.064 2 
0.406 0.004 0.047 2 
0.491 -0.004 0.051 2 
0.312 -0.008 0.057 2 
0.381 0.056 0.068 2 
0.503 -0.028 0.077 2 
0.426 0.094 0.061 2 
0.54 -0.025 0.077 2 
0.518 -0.02 0.048 2 
0.496 0.092 0.056 2 
0.514 -0.029 0.047 2 
0.523 -0.094 0.038 2 
0.52 -0.096 0.038 2 
0.444 -0.048 0.061 2 
0.419 -0.048 0.061 2 
0.402 -0.052 0.062 2 
0.397 0.025 0.05 2 
0.518 -0.014 0.036 2 
0.415 0.031 0.051 2 
0.38 0.021 0.051 2 
0.382 -0.001 0.051 2 
0.517 -0.014 0.033 2 
0.517 -0.02 0.039 2 
0.372 -0.025 0.067 2 
0.497 -0.096 0.065 2 
0.375 0.034 0.064 2 
0.52 -0.065 0.058 2 
0.512 -0.066 0.058 2 
0.406 0.071 0.067 2 
0.397 0.066 0.066 2 
0.39 0.062 0.066 2 
0.423 -0.033 0.064 2 
0.408 -0.033 0.064 2 
0.404 -0.035 0.064 2 
0.383 -0.045 0.065 2 
0.393 -0.05 0.064 2 
0.51 -0.088 0.044 2 
0.523 -0.094 0.044 2 
0.521 -0.097 0.044 2 
0.513 -0.097 0.044 2 
0.39 -0.007 0.061 2 
0.398 0.077 0.065 2 
0.399 0.061 0.064 2 
0.386 0.053 0.064 2 
0.375 0.036 0.064 2 
0.512 -0.008 0.053 2 
0.498 -0.001 0.029 2 
0.372 0.05 0.068 2 
0.307 -0.004 0.073 2 
0.535 -0.018 0.074 2 
0.498 0.084 0.058 2 
0.517 -0.027 0.048 2 
0.514 -0.014 0.087 2 
0.519 -0.017 0.07 2 
0.509 -0.023 0.077 2 
0.511 -0.026 0.077 2 
0.382 -0.028 0.071 2 
0.532 -0.06 0.061 2 
0.527 -0.066 0.061 2 
0.398 0.062 0.068 2 
0.512 -0.017 0.046 2 
0.512 -0.051 0.064 2 
0.516 -0.055 0.064 2 
0.393 -0.037 0.065 2 
0.411 0.075 0.067 2 
0.306 0.001 0.064 2 
0.406 -0.05 0.062 2 
0.472 -0.185 0.144 3 
0.461 0.252 0.143 3 
0.46 0.242 0.142 3 
0.285 -0.004 0.091 3 
0.468 -0.077 0.142 3 
0.469 -0.085 0.142 3 
0.469 -0.105 0.142 3 
0.47 -0.116 0.143 3 
0.471 -0.125 0.143 3 
0.471 -0.145 0.143 3 
0.471 -0.156 0.144 3 
0.472 -0.165 0.144 3 
0.472 -0.177 0.144 3 
0.462 0.262 0.143 3 
0.474 -0.216 0.145 3 
0.483 -0.336 0.152 3 
0.482 -0.346 0.152 3 
0.459 0.333 0.142 3 
0.462 0.323 0.142 3 
0.473 -0.197 0.142 3 
0.474 -0.207 0.142 3 
0.474 -0.216 0.143 3 
0.475 -0.219 0.143 3 
0.476 -0.226 0.143 3 
0.477 -0.236 0.144 3 
0.467 -0.066 0.144 3 
0.462 0.163 0.144 3 
0.462 0.154 0.144 3 
0.462 0.143 0.143 3 
0.462 0.132 0.143 3 
0.462 0.124 0.143 3 
0.462 0.113 0.143 3 
0.463 0.103 0.143 3 
0.464 0.092 0.143 3 
0.464 0.084 0.143 3 
0.307 0.027 0.098 3 
0.467 -0.05 0.144 3 
0.468 -0.055 0.144 3 
0.476 -0.247 0.144 3 
0.48 -0.286 0.152 3 
0.48 -0.296 0.152 3 
0.48 -0.306 0.153 3 
0.482 -0.318 0.154 3 
0.483 -0.326 0.154 3 
0.461 0.312 0.144 3 
0.477 -0.298 0.014 3 
0.46 0.294 0.144 3 
0.461 0.283 0.143 3 
0.463 -0.007 0.013 3 
0.462 0.274 0.144 3 
0.468 -0.096 0.134 3 
0.462 0.124 0.132 3 
0.466 -0.095 0.012 3 
0.462 0.113 0.132 3 
0.463 0.102 0.132 3 
0.463 0.094 0.132 3 
0.463 0.083 0.132 3 
0.463 0.073 0.132 3 
0.468 -0.047 0.133 3 
0.467 -0.055 0.133 3 
0.467 -0.066 0.133 3 
0.468 -0.077 0.134 3 
0.468 -0.085 0.134 3 
0.462 0.132 0.132 3 
0.469 -0.116 0.134 3 
0.484 -0.316 0.142 3 
0.485 -0.324 0.142 3 
0.484 -0.327 0.142 3 
0.483 -0.336 0.142 3 
0.483 -0.347 0.143 3 
0.457 0.334 0.133 3 
0.461 0.324 0.133 3 
0.46 0.313 0.133 3 
0.46 0.304 0.133 3 
0.46 0.294 0.132 3 
0.46 0.242 0.134 3 
0.477 -0.258 0.144 3 
0.461 0.059 0.134 3 
0.477 -0.267 0.142 3 
0.478 -0.277 0.142 3 
0.479 -0.285 0.143 3 
0.471 -0.207 0.013 3 
0.48 -0.296 0.143 3 
0.461 0.203 0.092 3 
0.481 -0.307 0.144 3 
0.461 0.252 0.134 3 
0.478 -0.306 0.084 3 
0.462 0.174 0.144 3 
0.46 0.251 0.123 3 
0.46 0.233 0.134 3 
0.459 0.224 0.133 3 
0.46 0.213 0.133 3 
0.46 0.204 0.133 3 
0.462 0.193 0.133 3 
0.471 -0.147 0.052 3 
0.461 0.181 0.133 3 
0.461 0.173 0.133 3 
0.462 0.162 0.133 3 
0.462 0.143 0.133 3 
0.462 0.174 0.152 3 
0.461 0.274 0.154 3 
0.462 0.262 0.154 3 
0.461 0.153 0.033 3 
0.462 0.253 0.154 3 
0.461 0.243 0.154 3 
0.46 0.234 0.153 3 
0.46 0.222 0.153 3 
0.461 0.214 0.153 3 
0.46 0.273 0.062 3 
0.462 0.203 0.153 3 
0.462 0.194 0.153 3 
0.462 0.183 0.152 3 
0.479 -0.295 0.164 3 
0.468 -0.053 0.152 3 
0.469 -0.055 0.153 3 
0.455 0.33 0.062 3 
0.468 -0.066 0.153 3 
0.469 -0.077 0.153 3 
0.476 -0.029 0.047 3 
0.469 -0.086 0.153 3 
0.47 -0.097 0.154 3 
0.474 -0.245 0.092 3 
0.47 -0.105 0.154 3 
0.471 -0.117 0.154 3 
0.464 0.076 0.154 3 
0.477 -0.227 0.164 3 
0.477 -0.236 0.164 3 
0.477 -0.246 0.164 3 
0.462 0.157 0.154 3 
0.462 0.154 0.154 3 
0.463 0.138 0.154 3 
0.463 0.127 0.154 3 
0.463 0.122 0.154 3 
0.476 -0.226 0.152 3 
0.463 0.114 0.154 3 
0.463 0.094 0.154 3 
0.465 0.079 0.154 3 
0.471 -0.125 0.154 3 
0.463 0.073 0.154 3 
0.462 0.083 0.002 3 
0.46 0.061 0.153 3 
0.465 -0.047 0.028 3 
0.28 -0.005 0.094 3 
0.474 -0.196 0.159 3 
0.477 -0.255 0.162 3 
0.478 -0.265 0.162 3 
0.479 -0.276 0.163 3 
0.46 0.304 0.144 3 
0.479 -0.286 0.164 3 
0.461 0.204 0.103 3 
0.475 -0.265 0.104 3 
0.473 -0.177 0.153 3 
0.472 -0.186 0.153 3 
0.473 -0.195 0.153 3 
0.474 -0.205 0.154 3 
0.475 -0.211 0.154 3 
0.482 -0.325 0.16 3 
0.484 -0.349 0.162 3 
0.465 0.326 0.152 3 
0.465 0.323 0.152 3 
0.458 0.058 0.144 3 
0.298 0.025 0.097 3 
0.472 -0.165 0.153 3 
0.477 -0.236 0.153 3 
0.474 -0.266 0.012 3 
0.477 -0.258 0.153 3 
0.478 -0.268 0.154 3 
0.478 -0.275 0.154 3 
0.316 -0.007 0.057 3 
0.459 0.233 0.144 3 
0.46 0.222 0.144 3 
0.461 0.211 0.144 3 
0.462 0.194 0.144 3 
0.463 0.183 0.144 3 
0.462 0.313 0.153 3 
0.481 -0.307 0.162 3 
0.483 -0.316 0.163 3 
0.485 -0.328 0.164 3 
0.485 -0.335 0.164 3 
0.457 0.052 0.045 3 
0.46 0.144 0.004 3 
0.484 -0.338 0.164 3 
0.461 0.336 0.154 3 
0.461 0.332 0.154 3 
0.295 -0.004 0.076 3 
0.46 0.234 0.062 3 
0.462 0.262 0.132 3 
0.461 0.302 0.153 3 
0.462 0.154 0.133 3 
0.461 0.293 0.152 3 
0.461 0.283 0.152 3 
0.463 0.073 0.143 3 
0.286 0.023 0.094 3 
0.285 -0.007 0.094 3 
0.471 -0.136 0.152 3 
0.472 -0.145 0.152 3 
0.472 -0.157 0.152 3 
0.461 0.282 0.132 3 
0.469 -0.127 0.112 3 
0.46 0.284 0.112 3 
0.337 0.024 0.053 3 
0.46 0.272 0.112 3 
0.46 0.263 0.112 3 
0.46 0.253 0.112 3 
0.436 0.044 0.106 3 
0.468 -0.077 0.112 3 
0.468 -0.085 0.112 3 
0.465 -0.065 0.034 3 
0.468 -0.096 0.112 3 
0.469 -0.105 0.112 3 
0.469 -0.116 0.112 3 
0.46 0.313 0.113 3 
0.47 -0.136 0.113 3 
0.473 -0.185 0.114 3 
0.469 -0.146 0.113 3 
0.47 -0.155 0.113 3 
0.471 -0.167 0.113 3 
0.472 -0.176 0.113 3 
0.474 -0.197 0.114 3 
0.473 -0.217 0.114 3 
0.474 -0.227 0.114 3 
0.441 0.045 0.104 3 
0.306 0.021 0.081 3 
0.462 0.113 0.113 3 
0.482 -0.345 0.124 3 
0.459 0.232 0.114 3 
0.459 0.223 0.114 3 
0.461 0.212 0.114 3 
0.462 0.204 0.114 3 
0.462 0.193 0.114 3 
0.461 0.173 0.114 3 
0.461 0.164 0.114 3 
0.462 0.154 0.114 3 
0.463 0.143 0.114 3 
0.463 0.132 0.114 3 
0.463 0.124 0.114 3 
0.471 -0.175 0.102 3 
0.455 0.086 0.047 3 
0.462 0.102 0.113 3 
0.462 0.094 0.113 3 
0.462 0.083 0.113 3 
0.462 0.072 0.113 3 
0.461 0.053 0.113 3 
0.467 -0.039 0.114 3 
0.466 -0.047 0.114 3 
0.468 -0.055 0.114 3 
0.468 -0.066 0.114 3 
0.458 0.334 0.113 3 
0.461 0.184 0.103 3 
0.46 0.293 0.104 3 
0.461 0.282 0.104 3 
0.455 0.33 0.082 3 
0.459 0.264 0.104 3 
0.46 0.253 0.104 3 
0.456 0.324 0.082 3 
0.46 0.232 0.103 3 
0.458 0.272 0.013 3 
0.46 0.223 0.103 3 
0.461 0.212 0.103 3 
0.461 0.192 0.103 3 
0.48 -0.327 0.073 3 
0.46 0.303 0.104 3 
0.461 0.173 0.103 3 
0.461 0.164 0.103 3 
0.461 0.153 0.103 3 
0.461 0.142 0.103 3 
0.462 0.134 0.103 3 
0.462 0.123 0.103 3 
0.462 0.113 0.103 3 
0.461 0.104 0.103 3 
0.462 0.083 0.103 3 
0.462 0.072 0.103 3 
0.462 0.064 0.103 3 
0.446 0.046 0.103 3 
0.475 -0.237 0.112 3 
0.475 -0.246 0.112 3 
0.475 -0.255 0.112 3 
0.476 -0.266 0.113 3 
0.462 0.072 0.092 3 
0.476 -0.275 0.113 3 
0.477 -0.286 0.113 3 
0.479 -0.297 0.114 3 
0.48 -0.305 0.114 3 
0.48 -0.315 0.114 3 
0.482 -0.355 0.116 3 
0.482 -0.338 0.124 3 
0.598 -0.033 0.127 3 
0.597 -0.036 0.127 3 
0.481 -0.326 0.112 3 
0.474 -0.245 0.084 3 
0.481 -0.336 0.112 3 
0.481 -0.347 0.112 3 
0.474 -0.245 0.024 3 
0.482 -0.355 0.113 3 
0.457 0.329 0.104 3 
0.459 0.315 0.104 3 
0.459 0.311 0.104 3 
0.479 -0.298 0.134 3 
0.461 0.17 0.124 3 
0.461 0.164 0.124 3 
0.461 0.153 0.124 3 
0.46 0.183 0.052 3 
0.462 0.143 0.124 3 
0.465 -0.065 0.023 3 
0.462 0.132 0.124 3 
0.462 0.124 0.124 3 
0.462 0.113 0.124 3 
0.462 0.102 0.124 3 
0.462 0.094 0.124 3 
0.478 -0.287 0.134 3 
0.462 0.083 0.124 3 
0.462 0.064 0.124 3 
0.461 0.053 0.124 3 
0.286 0 0.084 3 
0.474 -0.227 0.129 3 
0.48 -0.305 0.132 3 
0.482 -0.317 0.133 3 
0.482 -0.328 0.133 3 
0.474 -0.276 0.041 3 
0.483 -0.336 0.133 3 
0.483 -0.346 0.134 3 
0.474 -0.215 0.134 3 
0.461 0.054 0.129 3 
0.468 -0.044 0.131 3 
0.47 -0.127 0.132 3 
0.48 -0.324 0.034 3 
0.47 -0.136 0.132 3 
0.47 -0.147 0.132 3 
0.471 -0.156 0.133 3 
0.471 -0.165 0.133 3 
0.472 -0.185 0.133 3 
0.474 -0.198 0.134 3 
0.474 -0.206 0.134 3 
0.457 0.333 0.124 3 
0.475 -0.219 0.134 3 
0.281 0.014 0.084 3 
0.28 0.004 0.084 3 
0.475 -0.228 0.132 3 
0.476 -0.235 0.132 3 
0.476 -0.247 0.132 3 
0.476 -0.257 0.133 3 
0.477 -0.267 0.133 3 
0.482 -0.346 0.064 3 
0.471 -0.167 0.044 3 
0.477 -0.276 0.133 3 
0.473 -0.215 0.123 3 
0.469 -0.127 0.123 3 
0.469 -0.135 0.124 3 
0.469 -0.146 0.124 3 
0.471 -0.156 0.124 3 
0.471 -0.167 0.124 3 
0.471 -0.176 0.124 3 
0.355 -0.001 0.047 3 
0.29 -0.005 0.083 3 
0.471 -0.155 0.044 3 
0.474 -0.186 0.122 3 
0.474 -0.195 0.122 3 
0.474 -0.206 0.123 3 
0.469 -0.116 0.123 3 
0.474 -0.227 0.123 3 
0.475 -0.237 0.123 3 
0.476 -0.247 0.124 3 
0.476 -0.256 0.124 3 
0.477 -0.267 0.124 3 
0.296 0.02 0.083 3 
0.477 -0.286 0.122 3 
0.479 -0.297 0.123 3 
0.48 -0.305 0.123 3 
0.48 -0.315 0.123 3 
0.481 -0.326 0.124 3 
0.459 0.223 0.122 3 
0.46 0.316 0.124 3 
0.459 0.312 0.124 3 
0.347 0.034 0.054 3 
0.459 0.302 0.124 3 
0.46 0.294 0.124 3 
0.461 0.282 0.124 3 
0.461 0.273 0.124 3 
0.461 0.264 0.123 3 
0.46 0.242 0.123 3 
0.459 0.232 0.122 3 
0.474 -0.285 0.009 3 
0.462 0.202 0.122 3 
0.462 0.193 0.122 3 
0.462 0.182 0.122 3 
0.287 0.017 0.083 3 
0.589 -0.021 0.148 3 
0.467 -0.041 0.122 3 
0.468 -0.047 0.123 3 
0.467 -0.055 0.122 3 
0.468 -0.077 0.123 3 
0.468 -0.085 0.123 3 
0.469 -0.105 0.123 3 
0.465 0.263 0.184 3 
0.479 -0.246 0.192 3 
0.46 0.264 0.062 3 
0.479 -0.255 0.192 3 
0.467 -0.077 0.074 3 
0.48 -0.265 0.193 3 
0.481 -0.276 0.194 3 
0.475 -0.252 0.081 3 
0.464 0.281 0.184 3 
0.465 0.273 0.184 3 
0.473 -0.226 0.052 3 
0.464 0.269 0.184 3 
0.419 0.045 0.06 3 
0.479 -0.237 0.192 3 
0.464 0.256 0.183 3 
0.463 0.252 0.183 3 
0.468 -0.066 0.123 3 
0.463 0.243 0.182 3 
0.462 0.233 0.182 3 
0.464 0.223 0.182 3 
0.463 0.103 0.154 3 
0.465 0.218 0.182 3 
0.462 0.083 0.073 3 
0.465 0.212 0.182 3 
0.468 -0.107 0.134 3 
0.465 0.189 0.184 3 
0.466 0.181 0.184 3 
0.466 0.169 0.184 3 
0.473 -0.166 0.173 3 
0.471 -0.136 0.143 3 
0.466 0.163 0.184 3 
0.466 0.152 0.184 3 
0.461 0.199 0.144 3 
0.466 0.143 0.183 3 
0.467 0.132 0.183 3 
0.477 -0.276 0.122 3 
0.468 0.124 0.184 3 
0.461 0.213 0.122 3 
0.467 0.113 0.183 3 
0.467 0.104 0.183 3 
0.467 0.093 0.183 3 
0.465 -0.041 0.002 3 
0.467 0.082 0.183 3 
0.467 0.074 0.183 3 
0.276 -0.006 0.103 3 
0.472 -0.059 0.184 3 
0.306 0.02 0.074 3 
0.474 -0.096 0.186 3 
0.474 -0.135 0.187 3 
0.477 -0.186 0.183 3 
0.46 0.293 0.093 3 
0.465 0.301 0.183 3 
0.466 0.293 0.183 3 
0.465 0.279 0.182 3 
0.464 0.162 0.178 3 
0.275 0.022 0.101 3 
0.474 -0.267 0.052 3 
0.474 -0.147 0.181 3 
0.46 0.203 0.033 3 
0.474 -0.155 0.181 3 
0.474 -0.167 0.182 3 
0.475 -0.176 0.182 3 
0.465 0.308 0.183 3 
0.477 -0.195 0.184 3 
0.478 -0.208 0.184 3 
0.462 0.072 0.124 3 
0.485 -0.316 0.191 3 
0.487 -0.328 0.193 3 
0.472 -0.196 0.052 3 
0.487 -0.336 0.193 3 
0.464 0.334 0.181 3 
0.464 0.324 0.181 3 
0.464 0.303 0.18 3 
0.464 0.182 0.175 3 
0.475 -0.153 0.184 3 
0.471 -0.067 0.181 3 
0.472 -0.076 0.182 3 
0.46 0.303 0.113 3 
0.473 -0.087 0.182 3 
0.473 -0.095 0.183 3 
0.474 -0.107 0.183 3 
0.474 -0.115 0.183 3 
0.474 -0.127 0.184 3 
0.474 -0.135 0.184 3 
0.475 -0.139 0.184 3 
0.462 0.274 0.132 3 
0.459 0.314 0.062 3 
0.474 -0.17 0.185 3 
0.483 -0.287 0.192 3 
0.464 0.103 0.165 3 
0.483 -0.297 0.192 3 
0.484 -0.308 0.193 3 
0.311 0.012 0.054 3 
0.485 -0.313 0.194 3 
0.463 0.34 0.184 3 
0.465 0.332 0.184 3 
0.465 0.321 0.184 3 
0.464 0.31 0.183 3 
0.467 0.102 0.186 3 
0.466 0.184 0.187 3 
0.467 0.173 0.188 3 
0.467 0.164 0.187 3 
0.466 0.152 0.187 3 
0.46 0.284 0.093 3 
0.467 0.144 0.186 3 
0.467 0.132 0.186 3 
0.462 0.064 0.113 3 
0.467 0.124 0.186 3 
0.468 0.074 0.186 3 
0.467 0.113 0.186 3 
0.466 0.192 0.188 3 
0.464 0.076 0.162 3 
0.596 -0.021 0.123 3 
0.467 0.093 0.186 3 
0.468 0.083 0.186 3 
0.459 0.062 0.182 3 
0.471 -0.176 0.133 3 
0.27 0.021 0.102 3 
0.266 0.014 0.1 3 
0.264 0.01 0.099 3 
0.264 0.004 0.099 3 
0.265 0.002 0.099 3 
0.467 0.294 0.192 3 
0.464 0.347 0.194 3 
0.464 0.343 0.194 3 
0.469 -0.096 0.123 3 
0.477 -0.285 0.093 3 
0.465 0.341 0.194 3 
0.466 0.338 0.195 3 
0.467 0.331 0.194 3 
0.471 -0.147 0.094 3 
0.467 0.321 0.193 3 
0.466 0.313 0.193 3 
0.466 0.303 0.192 3 
0.462 0.182 0.114 3 
0.273 -0.005 0.103 3 
0.466 0.283 0.191 3 
0.466 0.274 0.191 3 
0.466 0.261 0.19 3 
0.465 0.251 0.189 3 
0.464 0.244 0.189 3 
0.465 0.236 0.189 3 
0.465 0.233 0.189 3 
0.465 0.221 0.188 3 
0.466 0.213 0.188 3 
0.477 -0.298 0.023 3 
0.466 0.204 0.188 3 
0.482 -0.296 0.198 3 
0.479 -0.206 0.193 3 
0.472 -0.126 0.174 3 
0.479 -0.215 0.194 3 
0.479 -0.227 0.194 3 
0.48 -0.231 0.195 3 
0.481 -0.238 0.195 3 
0.48 -0.247 0.195 3 
0.48 -0.255 0.195 3 
0.48 -0.265 0.196 3 
0.482 -0.277 0.197 3 
0.456 0.324 0.054 3 
0.483 -0.287 0.198 3 
0.479 -0.197 0.193 3 
0.487 -0.311 0.201 3 
0.486 -0.317 0.201 3 
0.487 -0.325 0.202 3 
0.487 -0.336 0.202 3 
0.489 -0.346 0.204 3 
0.464 0.311 0.189 3 
0.463 0.252 0.186 3 
0.463 0.234 0.185 3 
0.464 0.205 0.184 3 
0.464 0.202 0.184 3 
0.464 0.194 0.184 3 
0.474 -0.124 0.189 3 
0.279 -0.006 0.105 3 
0.472 -0.059 0.187 3 
0.472 -0.067 0.187 3 
0.473 -0.076 0.188 3 
0.465 0.134 0.163 3 
0.474 -0.087 0.188 3 
0.475 -0.09 0.189 3 
0.475 -0.096 0.189 3 
0.476 -0.105 0.19 3 
0.475 -0.116 0.189 3 
0.48 -0.355 0.052 3 
0.459 0.234 0.033 3 
0.474 -0.127 0.189 3 
0.475 -0.13 0.19 3 
0.475 -0.136 0.19 3 
0.462 0.094 0.103 3 
0.48 -0.315 0.102 3 
0.478 -0.146 0.191 3 
0.478 -0.155 0.192 3 
0.477 -0.166 0.191 3 
0.466 -0.066 0.074 3 
0.477 -0.178 0.192 3 
0.478 -0.187 0.192 3 
0.462 0.104 0.084 3 
0.271 0.014 0.094 3 
0.271 0.003 0.094 3 
0.292 0.004 0.074 3 
0.275 -0.003 0.096 3 
0.467 -0.052 0.163 3 
0.468 -0.055 0.163 3 
0.469 -0.066 0.164 3 
0.46 0.293 0.113 3 
0.47 -0.075 0.164 3 
0.474 -0.175 0.168 3 
0.453 0.044 0.042 3 
0.479 -0.266 0.172 3 
0.27 0.018 0.094 3 
0.48 -0.277 0.172 3 
0.48 -0.287 0.173 3 
0.48 -0.297 0.173 3 
0.482 -0.309 0.174 3 
0.458 0.335 0.142 3 
0.475 -0.24 0.103 3 
0.461 0.309 0.164 3 
0.462 0.134 0.073 3 
0.461 0.303 0.164 3 
0.461 0.293 0.164 3 
0.464 0.122 0.163 3 
0.462 0.212 0.164 3 
0.479 -0.316 0.043 3 
0.462 0.203 0.164 3 
0.465 -0.049 0.004 3 
0.463 0.193 0.164 3 
0.462 0.183 0.164 3 
0.462 0.172 0.163 3 
0.462 0.163 0.163 3 
0.462 0.152 0.163 3 
0.463 0.144 0.163 3 
0.465 0.137 0.163 3 
0.464 0.131 0.163 3 
0.462 0.281 0.164 3 
0.464 0.114 0.163 3 
0.46 0.323 0.113 3 
0.327 0.014 0.05 3 
0.464 0.103 0.163 3 
0.465 0.095 0.163 3 
0.465 0.093 0.163 3 
0.465 0.084 0.163 3 
0.464 0.073 0.162 3 
0.473 -0.226 0.033 3 
0.462 0.062 0.162 3 
0.444 0.056 0.155 3 
0.275 0.005 0.094 3 
0.47 -0.166 0.022 3 
0.484 -0.335 0.173 3 
0.485 -0.347 0.174 3 
0.484 -0.353 0.174 3 
0.46 0.339 0.163 3 
0.461 0.333 0.163 3 
0.46 0.271 0.104 3 
0.463 0.321 0.163 3 
0.443 0.055 0.15 3 
0.471 -0.166 0.074 3 
0.276 0.021 0.094 3 
0.484 -0.328 0.173 3 
0.275 0.002 0.094 3 
0.473 -0.186 0.162 3 
0.469 -0.105 0.104 3 
0.474 -0.257 0.052 3 
0.465 -0.036 0.036 3 
0.475 -0.196 0.163 3 
0.468 0.109 0.052 3 
0.475 -0.205 0.163 3 
0.476 -0.217 0.163 3 
0.426 0.072 0.055 3 
0.474 -0.257 0.044 3 
0.47 -0.097 0.162 3 
0.473 -0.206 0.114 3 
0.463 0.273 0.164 3 
0.462 0.263 0.163 3 
0.462 0.254 0.163 3 
0.462 0.242 0.162 3 
0.462 0.233 0.162 3 
0.462 0.224 0.162 3 
0.464 0.092 0.16 3 
0.459 0.238 0.114 3 
0.448 0.056 0.154 3 
0.47 -0.086 0.162 3 
0.484 -0.339 0.18 3 
0.47 -0.105 0.162 3 
0.459 0.282 0.024 3 
0.471 -0.117 0.163 3 
0.472 -0.126 0.163 3 
0.473 -0.135 0.163 3 
0.472 -0.145 0.163 3 
0.472 -0.157 0.164 3 
0.473 -0.175 0.164 3 
0.474 -0.187 0.165 3 
0.483 -0.316 0.172 3 
0.486 -0.326 0.173 3 
0.464 0.071 0.17 3 
0.462 0.224 0.173 3 
0.463 0.213 0.173 3 
0.597 -0.048 0.127 3 
0.463 0.204 0.173 3 
0.459 0.281 0.043 3 
0.463 0.193 0.172 3 
0.463 0.181 0.172 3 
0.464 0.173 0.172 3 
0.463 0.164 0.172 3 
0.466 0.134 0.172 3 
0.477 -0.245 0.153 3 
0.462 0.233 0.173 3 
0.469 -0.056 0.172 3 
0.47 -0.067 0.173 3 
0.465 0.1 0.044 3 
0.458 0.213 0.014 3 
0.47 -0.075 0.173 3 
0.471 -0.086 0.173 3 
0.472 -0.095 0.174 3 
0.471 -0.106 0.174 3 
0.46 0.244 0.104 3 
0.472 -0.115 0.174 3 
0.479 -0.317 0.002 3 
0.478 -0.217 0.182 3 
0.464 0.15 0.174 3 
0.462 0.142 0.084 3 
0.465 0.142 0.174 3 
0.465 0.12 0.174 3 
0.469 -0.096 0.142 3 
0.465 0.112 0.174 3 
0.466 0.104 0.174 3 
0.467 0.088 0.174 3 
0.466 0.082 0.174 3 
0.465 0.074 0.174 3 
0.464 0.063 0.173 3 
0.478 -0.306 0.064 3 
0.481 -0.275 0.182 3 
0.471 -0.175 0.074 3 
0.477 -0.225 0.182 3 
0.478 -0.235 0.182 3 
0.479 -0.245 0.183 3 
0.479 -0.257 0.183 3 
0.48 -0.268 0.184 3 
0.464 0.294 0.176 3 
0.463 0.258 0.174 3 
0.459 0.304 0.032 3 
0.463 0.252 0.174 3 
0.462 0.242 0.173 3 
0.476 -0.215 0.172 3 
0.476 -0.186 0.174 3 
0.465 -0.087 0.012 3 
0.485 -0.319 0.182 3 
0.485 -0.326 0.182 3 
0.477 -0.295 0.064 3 
0.46 0.243 0.054 3 
0.485 -0.337 0.183 3 
0.486 -0.345 0.184 3 
0.464 0.125 0.166 3 
0.476 -0.197 0.172 3 
0.476 -0.206 0.172 3 
0.464 -0.015 0.004 3 
0.475 -0.176 0.174 3 
0.473 -0.166 0.164 3 
0.475 -0.217 0.154 3 
0.477 -0.225 0.173 3 
0.462 0.064 0.092 3 
0.478 -0.237 0.173 3 
0.478 -0.247 0.174 3 
0.473 -0.205 0.083 3 
0.478 -0.256 0.174 3 
0.484 -0.318 0.179 3 
0.472 -0.187 0.094 3 
0.484 -0.332 0.179 3 
0.463 0.292 0.173 3 
0.286 0.014 0.084 3 
0.481 -0.285 0.182 3 
0.481 -0.295 0.183 3 
0.483 -0.307 0.184 3 
0.488 -0.347 0.188 3 
0.459 0.338 0.174 3 
0.461 0.334 0.174 3 
0.463 0.322 0.174 3 
0.462 0.314 0.174 3 
0.471 -0.175 0.033 3 
0.462 0.304 0.173 3 
0.461 0.053 0.102 3 
0.464 0.284 0.173 3 
0.462 -0.025 0.013 3 
0.464 0.274 0.173 3 
0.464 0.142 0.169 3 
0.455 0.323 0.023 3 
0.464 0.122 0.168 3 
0.464 0.106 0.168 3 
0.473 -0.135 0.172 3 
0.463 0.324 0.154 3 
0.472 -0.146 0.172 3 
0.473 -0.158 0.172 3 
0.461 0.134 0.044 3 
0.461 0.123 0.044 3 
0.46 0.114 0.044 3 
0.461 0.104 0.044 3 
0.475 0.094 0.044 3 
0.488 0.093 0.043 3 
0.465 0.081 0.044 3 
0.462 0.077 0.044 3 
0.46 0.074 0.044 3 
0.46 0.063 0.044 3 
0.348 -0.002 0.049 3 
0.461 0.142 0.044 3 
0.472 -0.029 0.044 3 
0.464 -0.03 0.044 3 
0.464 -0.036 0.044 3 
0.459 -0.056 0.045 3 
0.46 -0.067 0.045 3 
0.471 -0.091 0.044 3 
0.47 -0.096 0.044 3 
0.469 -0.107 0.044 3 
0.465 -0.057 0.034 3 
0.451 -0.047 0.048 3 
0.455 0.33 0.043 3 
0.456 0.324 0.043 3 
0.459 0.314 0.043 3 
0.459 0.304 0.043 3 
0.465 -0.068 0.039 3 
0.459 0.294 0.043 3 
0.459 0.272 0.043 3 
0.459 0.263 0.043 3 
0.469 -0.115 0.044 3 
0.459 0.222 0.022 3 
0.459 0.254 0.043 3 
0.46 0.243 0.043 3 
0.459 0.222 0.044 3 
0.46 0.214 0.044 3 
0.46 0.203 0.044 3 
0.46 0.194 0.044 3 
0.461 0.183 0.044 3 
0.461 0.172 0.044 3 
0.461 0.164 0.044 3 
0.461 0.153 0.044 3 
0.462 -0.065 0.042 3 
0.465 -0.076 0.042 3 
0.348 0.023 0.046 3 
0.356 0.005 0.046 3 
0.365 -0.001 0.045 3 
0.475 -0.252 0.038 3 
0.456 0.331 0.034 3 
0.456 0.324 0.034 3 
0.458 0.313 0.034 3 
0.458 0.042 0.037 3 
0.462 -0.057 0.042 3 
0.363 0.018 0.043 3 
0.345 0.01 0.045 3 
0.367 0.005 0.043 3 
0.364 0.004 0.043 3 
0.368 0.002 0.043 3 
0.48 -0.327 0.034 3 
0.48 -0.338 0.034 3 
0.475 -0.274 0.044 3 
0.47 -0.135 0.044 3 
0.47 -0.146 0.044 3 
0.471 -0.175 0.044 3 
0.471 -0.187 0.044 3 
0.473 -0.197 0.044 3 
0.473 -0.205 0.044 3 
0.473 -0.217 0.044 3 
0.473 -0.226 0.044 3 
0.473 -0.235 0.044 3 
0.474 -0.245 0.044 3 
0.474 -0.267 0.044 3 
0.456 -0.045 0.047 3 
0.475 -0.277 0.044 3 
0.477 -0.297 0.044 3 
0.479 -0.306 0.043 3 
0.48 -0.327 0.043 3 
0.48 -0.337 0.043 3 
0.481 -0.346 0.043 3 
0.48 -0.355 0.043 3 
0.461 0.093 0.042 3 
0.46 0.053 0.042 3 
0.342 0.005 0.048 3 
0.463 -0.046 0.042 3 
0.478 -0.068 0.052 3 
0.362 0.032 0.054 3 
0.332 0.024 0.054 3 
0.336 -0.004 0.054 3 
0.34 0.014 0.022 3 
0.352 -0.006 0.054 3 
0.358 -0.007 0.054 3 
0.344 -0.015 0.054 3 
0.351 -0.019 0.054 3 
0.367 -0.022 0.054 3 
0.458 0.201 0.014 3 
0.471 -0.064 0.052 3 
0.454 0.031 0.032 3 
0.485 -0.073 0.052 3 
0.486 -0.076 0.052 3 
0.462 0.082 0.034 3 
0.483 -0.078 0.052 3 
0.471 -0.091 0.052 3 
0.47 -0.097 0.052 3 
0.469 -0.107 0.052 3 
0.469 -0.115 0.052 3 
0.47 -0.127 0.052 3 
0.47 -0.135 0.052 3 
0.461 0.134 0.052 3 
0.353 0.044 0.056 3 
0.356 0.029 0.056 3 
0.316 0.013 0.056 3 
0.327 0 0.056 3 
0.341 -0.008 0.056 3 
0.368 -0.024 0.056 3 
0.461 0.172 0.052 3 
0.461 0.164 0.052 3 
0.461 0.142 0.052 3 
0.471 -0.155 0.052 3 
0.461 0.123 0.052 3 
0.461 0.112 0.052 3 
0.477 0.115 0.052 3 
0.462 0.104 0.052 3 
0.467 0.101 0.052 3 
0.442 0.087 0.052 3 
0.35 0.043 0.054 3 
0.344 0.04 0.054 3 
0.48 -0.091 0.049 3 
0.327 0.001 0.053 3 
0.329 -0.014 0.053 3 
0.465 -0.007 0.023 3 
0.323 0.004 0.053 3 
0.445 0.085 0.047 3 
0.488 0.084 0.046 3 
0.461 0.066 0.047 3 
0.452 0.054 0.047 3 
0.457 0.302 0.024 3 
0.47 -0.031 0.047 3 
0.458 0.284 0.013 3 
0.463 -0.033 0.047 3 
0.465 -0.076 0.012 3 
0.462 -0.036 0.047 3 
0.479 -0.306 0.052 3 
0.471 -0.166 0.052 3 
0.471 -0.178 0.052 3 
0.471 -0.187 0.052 3 
0.473 -0.205 0.052 3 
0.472 -0.216 0.052 3 
0.474 -0.236 0.052 3 
0.474 -0.245 0.052 3 
0.475 -0.271 0.052 3 
0.475 -0.277 0.052 3 
0.476 -0.287 0.052 3 
0.477 -0.297 0.052 3 
0.48 -0.345 0.034 3 
0.48 -0.317 0.052 3 
0.48 -0.327 0.052 3 
0.481 -0.335 0.052 3 
0.335 0.033 0.053 3 
0.367 0.038 0.052 3 
0.322 0.017 0.053 3 
0.317 0.013 0.053 3 
0.458 0.263 0.013 3 
0.47 -0.175 0.022 3 
0.471 -0.187 0.022 3 
0.471 -0.195 0.022 3 
0.474 -0.272 0.021 3 
0.474 -0.276 0.015 3 
0.477 -0.308 0.014 3 
0.478 -0.319 0.014 3 
0.479 -0.326 0.014 3 
0.479 -0.337 0.014 3 
0.48 -0.345 0.013 3 
0.479 -0.355 0.013 3 
0.458 0.293 0.013 3 
0.47 -0.155 0.022 3 
0.458 0.254 0.013 3 
0.457 0.244 0.014 3 
0.458 0.233 0.014 3 
0.458 0.224 0.014 3 
0.459 0.194 0.014 3 
0.458 0.182 0.014 3 
0.459 0.174 0.014 3 
0.468 -0.134 0.014 3 
0.468 -0.14 0.014 3 
0.468 -0.145 0.014 3 
0.469 -0.157 0.014 3 
0.465 -0.047 0.023 3 
0.462 0.082 0.023 3 
0.462 0.074 0.023 3 
0.461 0.064 0.023 3 
0.461 0.053 0.023 3 
0.461 0.042 0.023 3 
0.46 0.032 0.023 3 
0.461 0.024 0.023 3 
0.464 0.003 0.023 3 
0.465 -0.001 0.023 3 
0.464 -0.012 0.023 3 
0.464 -0.025 0.023 3 
0.464 -0.036 0.023 3 
0.469 -0.166 0.014 3 
0.464 -0.049 0.023 3 
0.465 -0.055 0.023 3 
0.464 -0.057 0.023 3 
0.466 -0.076 0.023 3 
0.466 -0.087 0.023 3 
0.466 -0.095 0.023 3 
0.468 -0.107 0.023 3 
0.468 -0.115 0.023 3 
0.468 -0.126 0.023 3 
0.469 -0.135 0.022 3 
0.47 -0.146 0.022 3 
0.465 -0.055 0.004 3 
0.464 -0.065 0.013 3 
0.465 -0.068 0.012 3 
0.467 -0.106 0.012 3 
0.467 -0.115 0.012 3 
0.479 -0.344 0.004 3 
0.477 -0.356 0.004 3 
0.465 -0.009 0.007 3 
0.465 -0.055 0.007 3 
0.478 -0.326 0.002 3 
0.459 0.152 0.004 3 
0.462 0.091 0.004 3 
0.465 -0.007 0.004 3 
0.463 -0.057 0.013 3 
0.466 -0.066 0.004 3 
0.468 -0.115 0.004 3 
0.462 0.072 0.002 3 
0.463 0.064 0.002 3 
0.468 -0.015 0.001 3 
0.464 -0.025 0.002 3 
0.464 -0.036 0.002 3 
0.339 0.015 0.022 3 
0.339 0.017 0.014 3 
0.34 0.014 0.014 3 
0.34 0.003 0.014 3 
0.479 -0.348 0.004 3 
0.469 -0.177 0.014 3 
0.469 -0.186 0.014 3 
0.47 -0.195 0.014 3 
0.471 -0.216 0.013 3 
0.471 -0.225 0.013 3 
0.473 -0.236 0.013 3 
0.473 -0.245 0.013 3 
0.474 -0.257 0.013 3 
0.474 -0.276 0.012 3 
0.475 -0.283 0.012 3 
0.475 -0.286 0.012 3 
0.461 0.093 0.023 3 
0.459 0.163 0.012 3 
0.459 0.152 0.012 3 
0.46 0.133 0.012 3 
0.459 0.114 0.013 3 
0.459 0.103 0.013 3 
0.46 0.093 0.013 3 
0.46 0.082 0.013 3 
0.46 0.074 0.013 3 
0.461 0.053 0.013 3 
0.461 0.042 0.013 3 
0.462 -0.046 0.013 3 
0.47 -0.155 0.033 3 
0.465 -0.025 0.034 3 
0.465 -0.036 0.034 3 
0.464 -0.044 0.034 3 
0.464 -0.046 0.034 3 
0.466 -0.076 0.034 3 
0.468 -0.096 0.034 3 
0.469 -0.107 0.033 3 
0.469 -0.115 0.033 3 
0.46 0.122 0.012 3 
0.469 -0.126 0.033 3 
0.469 -0.135 0.033 3 
0.47 -0.146 0.033 3 
0.465 -0.023 0.034 3 
0.471 -0.167 0.033 3 
0.471 -0.187 0.033 3 
0.471 -0.195 0.033 3 
0.472 -0.205 0.033 3 
0.473 -0.217 0.033 3 
0.473 -0.235 0.033 3 
0.474 -0.245 0.032 3 
0.474 -0.257 0.032 3 
0.474 -0.267 0.032 3 
0.475 -0.273 0.032 3 
0.475 -0.276 0.032 3 
0.46 0.122 0.033 3 
0.48 -0.355 0.034 3 
0.459 0.294 0.032 3 
0.459 0.282 0.032 3 
0.46 0.273 0.032 3 
0.459 0.263 0.032 3 
0.459 0.254 0.032 3 
0.459 0.222 0.033 3 
0.46 0.214 0.033 3 
0.46 0.194 0.033 3 
0.461 0.172 0.033 3 
0.461 0.142 0.033 3 
0.461 0.134 0.033 3 
0.476 -0.287 0.032 3 
0.46 0.114 0.034 3 
0.461 0.104 0.034 3 
0.461 0.093 0.034 3 
0.462 0.074 0.034 3 
0.462 0.064 0.034 3 
0.461 0.053 0.034 3 
0.457 0.042 0.034 3 
0.446 0.033 0.035 3 
0.44 0.03 0.036 3 
0.428 0.026 0.037 3 
0.48 -0.356 0.022 3 
0.472 -0.217 0.024 3 
0.473 -0.226 0.024 3 
0.474 -0.255 0.024 3 
0.475 -0.264 0.024 3 
0.475 -0.267 0.024 3 
0.475 -0.276 0.024 3 
0.476 -0.287 0.023 3 
0.478 -0.305 0.023 3 
0.479 -0.316 0.023 3 
0.48 -0.327 0.023 3 
0.48 -0.338 0.022 3 
0.48 -0.345 0.022 3 
0.472 -0.208 0.024 3 
0.46 0.203 0.022 3 
0.459 0.182 0.022 3 
0.46 0.172 0.022 3 
0.46 0.163 0.022 3 
0.463 0.014 0.023 3 
0.46 0.152 0.023 3 
0.46 0.144 0.023 3 
0.46 0.133 0.023 3 
0.461 0.122 0.023 3 
0.461 0.114 0.023 3 
0.46 0.103 0.023 3 
0.464 -0.025 0.031 3 
0.477 -0.297 0.032 3 
0.479 -0.306 0.032 3 
0.456 0.034 0.032 3 
0.463 0.008 0.031 3 
0.469 0.006 0.031 3 
0.472 0.003 0.03 3 
0.481 0 0.03 3 
0.485 -0.007 0.029 3 
0.468 -0.009 0.031 3 
0.464 -0.012 0.031 3 
0.457 0.024 0.029 3 
0.464 -0.015 0.028 3 
0.454 0.329 0.023 3 
0.455 0.327 0.023 3 
0.458 0.312 0.023 3 
0.459 0.272 0.024 3 
0.458 0.262 0.024 3 
0.458 0.253 0.024 3 
0.459 0.242 0.024 3 
0.459 0.234 0.024 3 
0.464 0.003 0.026 3 
0.461 0.192 0.084 3 
0.483 -0.355 0.094 3 
0.564 -0.016 0.097 3 
0.576 -0.031 0.098 3 
0.459 0.276 0.084 3 
0.459 0.273 0.084 3 
0.459 0.264 0.084 3 
0.458 0.254 0.084 3 
0.46 0.243 0.084 3 
0.46 0.234 0.084 3 
0.46 0.223 0.084 3 
0.461 0.212 0.084 3 
0.461 0.203 0.084 3 
0.483 -0.348 0.094 3 
0.461 0.172 0.084 3 
0.455 0.33 0.054 3 
0.461 0.164 0.084 3 
0.462 0.153 0.084 3 
0.462 0.123 0.084 3 
0.462 0.112 0.084 3 
0.34 -0.011 0.054 3 
0.462 0.094 0.084 3 
0.462 0.083 0.084 3 
0.463 0.072 0.084 3 
0.462 0.064 0.084 3 
0.474 -0.257 0.092 3 
0.568 -0.016 0.101 3 
0.576 -0.02 0.102 3 
0.46 0.063 0.013 3 
0.572 -0.027 0.101 3 
0.576 -0.038 0.102 3 
0.471 -0.155 0.063 3 
0.573 -0.042 0.101 3 
0.462 0.134 0.084 3 
0.473 -0.217 0.092 3 
0.474 -0.227 0.092 3 
0.474 -0.236 0.092 3 
0.463 0.053 0.084 3 
0.459 0.314 0.054 3 
0.475 -0.261 0.092 3 
0.475 -0.268 0.092 3 
0.469 -0.126 0.044 3 
0.476 -0.275 0.093 3 
0.458 0.293 0.024 3 
0.477 -0.295 0.093 3 
0.479 -0.307 0.093 3 
0.48 -0.318 0.094 3 
0.481 -0.326 0.094 3 
0.481 -0.336 0.094 3 
0.475 -0.258 0.084 3 
0.461 0.153 0.063 3 
0.47 -0.135 0.082 3 
0.471 -0.147 0.083 3 
0.471 -0.155 0.083 3 
0.47 -0.166 0.083 3 
0.471 -0.175 0.083 3 
0.472 -0.187 0.083 3 
0.495 -0.087 0.052 3 
0.473 -0.197 0.083 3 
0.474 -0.218 0.083 3 
0.474 -0.227 0.083 3 
0.474 -0.236 0.083 3 
0.468 -0.126 0.082 3 
0.475 -0.268 0.084 3 
0.476 -0.278 0.084 3 
0.476 -0.287 0.084 3 
0.477 -0.295 0.084 3 
0.433 0.041 0.077 3 
0.564 -0.023 0.086 3 
0.479 -0.317 0.082 3 
0.48 -0.327 0.082 3 
0.48 -0.337 0.082 3 
0.481 -0.345 0.082 3 
0.483 -0.355 0.082 3 
0.421 0.039 0.078 3 
0.315 -0.004 0.071 3 
0.568 -0.016 0.094 3 
0.576 -0.024 0.094 3 
0.571 -0.027 0.094 3 
0.571 -0.038 0.094 3 
0.465 -0.036 0.084 3 
0.466 -0.047 0.084 3 
0.459 0.314 0.082 3 
0.459 0.301 0.082 3 
0.459 0.292 0.082 3 
0.473 -0.205 0.094 3 
0.33 -0.005 0.071 3 
0.562 -0.041 0.09 3 
0.466 -0.033 0.082 3 
0.466 -0.055 0.082 3 
0.466 -0.065 0.082 3 
0.467 -0.077 0.082 3 
0.468 -0.085 0.082 3 
0.468 -0.096 0.082 3 
0.468 -0.107 0.082 3 
0.464 -0.015 0.023 3 
0.468 -0.115 0.082 3 
0.461 0.184 0.084 3 
0.473 -0.197 0.103 3 
0.473 -0.205 0.103 3 
0.473 -0.217 0.103 3 
0.474 -0.227 0.103 3 
0.474 -0.236 0.103 3 
0.475 -0.246 0.104 3 
0.475 -0.255 0.104 3 
0.476 -0.278 0.104 3 
0.477 -0.289 0.104 3 
0.292 0.012 0.074 3 
0.584 -0.02 0.114 3 
0.59 -0.024 0.114 3 
0.473 -0.188 0.103 3 
0.588 -0.028 0.114 3 
0.588 -0.036 0.114 3 
0.584 -0.047 0.114 3 
0.474 -0.248 0.101 3 
0.478 -0.296 0.102 3 
0.479 -0.307 0.102 3 
0.482 -0.327 0.103 3 
0.482 -0.337 0.103 3 
0.483 -0.345 0.103 3 
0.483 -0.355 0.103 3 
0.46 0.051 0.094 3 
0.468 -0.085 0.104 3 
0.318 0.023 0.081 3 
0.597 -0.025 0.123 3 
0.594 -0.032 0.123 3 
0.595 -0.036 0.123 3 
0.461 0.164 0.073 3 
0.593 -0.04 0.123 3 
0.592 -0.047 0.122 3 
0.466 -0.039 0.103 3 
0.466 -0.047 0.103 3 
0.467 -0.055 0.103 3 
0.467 -0.066 0.104 3 
0.467 -0.077 0.104 3 
0.465 0.083 0.047 3 
0.459 0.234 0.043 3 
0.468 -0.096 0.104 3 
0.469 -0.116 0.104 3 
0.469 -0.127 0.104 3 
0.47 -0.135 0.104 3 
0.474 -0.236 0.024 3 
0.59 -0.021 0.118 3 
0.595 -0.048 0.119 3 
0.47 -0.147 0.102 3 
0.471 -0.155 0.102 3 
0.471 -0.167 0.102 3 
0.467 -0.085 0.093 3 
0.462 0.134 0.092 3 
0.462 0.123 0.092 3 
0.474 -0.26 0.084 3 
0.462 0.113 0.092 3 
0.461 0.104 0.092 3 
0.462 0.094 0.092 3 
0.462 0.083 0.092 3 
0.467 -0.036 0.093 3 
0.466 -0.047 0.093 3 
0.466 -0.055 0.093 3 
0.466 -0.066 0.093 3 
0.466 -0.076 0.093 3 
0.462 0.143 0.092 3 
0.468 -0.096 0.093 3 
0.468 -0.107 0.093 3 
0.355 0.007 0.044 3 
0.468 -0.115 0.093 3 
0.468 -0.126 0.093 3 
0.459 0.194 0.022 3 
0.469 -0.135 0.093 3 
0.471 -0.155 0.094 3 
0.471 -0.167 0.094 3 
0.471 -0.175 0.094 3 
0.473 -0.197 0.094 3 
0.46 0.274 0.093 3 
0.299 0.018 0.074 3 
0.296 0.014 0.074 3 
0.295 0.002 0.074 3 
0.579 -0.028 0.109 3 
0.582 -0.039 0.11 3 
0.456 0.331 0.093 3 
0.456 0.324 0.093 3 
0.463 -0.015 0.013 3 
0.459 0.314 0.093 3 
0.46 0.303 0.093 3 
0.461 0.212 0.092 3 
0.434 0.041 0.074 3 
0.459 0.264 0.093 3 
0.459 0.252 0.093 3 
0.461 0.244 0.093 3 
0.461 0.232 0.093 3 
0.461 0.224 0.092 3 
0.461 0.192 0.092 3 
0.461 0.184 0.092 3 
0.461 0.172 0.092 3 
0.459 0.063 0.047 3 
0.461 0.161 0.092 3 
0.462 0.154 0.092 3 
0.47 -0.135 0.063 3 
0.464 -0.049 0.063 3 
0.466 -0.055 0.063 3 
0.467 -0.066 0.063 3 
0.461 0.164 0.033 3 
0.467 -0.077 0.063 3 
0.467 -0.085 0.063 3 
0.467 -0.096 0.063 3 
0.468 -0.107 0.063 3 
0.469 -0.115 0.063 3 
0.481 -0.345 0.052 3 
0.469 -0.126 0.063 3 
0.466 -0.047 0.063 3 
0.471 -0.147 0.063 3 
0.471 -0.166 0.063 3 
0.471 -0.175 0.063 3 
0.46 0.214 0.022 3 
0.472 -0.187 0.063 3 
0.472 -0.196 0.064 3 
0.477 -0.288 0.044 3 
0.348 0.013 0.044 3 
0.472 -0.205 0.064 3 
0.472 -0.216 0.064 3 
0.474 -0.227 0.064 3 
0.46 0.074 0.063 3 
0.464 -0.057 0.031 3 
0.46 0.172 0.063 3 
0.462 -0.036 0.013 3 
0.461 0.164 0.063 3 
0.461 0.142 0.063 3 
0.462 0.134 0.063 3 
0.462 0.123 0.063 3 
0.462 0.112 0.063 3 
0.461 0.104 0.063 3 
0.461 0.093 0.063 3 
0.461 0.082 0.063 3 
0.475 -0.237 0.064 3 
0.458 0.063 0.063 3 
0.458 0.053 0.063 3 
0.459 0.272 0.054 3 
0.316 -0.003 0.06 3 
0.466 -0.031 0.063 3 
0.467 -0.036 0.063 3 
0.464 -0.041 0.063 3 
0.458 0.294 0.054 3 
0.346 0.029 0.057 3 
0.358 -0.007 0.058 3 
0.339 -0.018 0.058 3 
0.46 0.183 0.033 3 
0.348 -0.02 0.058 3 
0.364 -0.024 0.058 3 
0.474 -0.236 0.058 3 
0.475 -0.267 0.058 3 
0.459 0.304 0.054 3 
0.313 0.029 0.057 3 
0.459 0.281 0.054 3 
0.46 0.264 0.054 3 
0.459 0.254 0.054 3 
0.46 0.234 0.054 3 
0.46 0.223 0.054 3 
0.46 0.214 0.054 3 
0.461 0.203 0.054 3 
0.46 0.191 0.054 3 
0.45 0.082 0.055 3 
0.459 0.242 0.033 3 
0.481 -0.335 0.064 3 
0.475 -0.246 0.064 3 
0.474 -0.248 0.064 3 
0.475 -0.255 0.064 3 
0.474 -0.257 0.064 3 
0.474 -0.267 0.064 3 
0.474 -0.276 0.064 3 
0.475 -0.28 0.064 3 
0.476 -0.287 0.064 3 
0.478 -0.315 0.064 3 
0.48 -0.327 0.064 3 
0.46 0.183 0.063 3 
0.48 -0.355 0.064 3 
0.461 0.153 0.052 3 
0.331 0.034 0.059 3 
0.338 0.026 0.059 3 
0.326 0.021 0.059 3 
0.354 0.046 0.057 3 
0.338 0.04 0.057 3 
0.329 0.036 0.057 3 
0.32 0.033 0.057 3 
0.466 -0.055 0.074 3 
0.462 0.123 0.073 3 
0.462 0.112 0.073 3 
0.462 0.104 0.073 3 
0.462 0.094 0.073 3 
0.462 0.072 0.073 3 
0.463 0.064 0.073 3 
0.462 0.053 0.073 3 
0.554 -0.029 0.079 3 
0.466 -0.033 0.074 3 
0.466 -0.036 0.074 3 
0.465 -0.047 0.074 3 
0.462 0.142 0.073 3 
0.467 -0.085 0.074 3 
0.468 -0.096 0.074 3 
0.34 0.003 0.022 3 
0.468 -0.107 0.074 3 
0.468 -0.115 0.074 3 
0.469 -0.126 0.074 3 
0.47 -0.135 0.074 3 
0.471 -0.147 0.074 3 
0.471 -0.155 0.074 3 
0.474 -0.267 0.075 3 
0.458 0.143 0.012 3 
0.46 0.261 0.073 3 
0.305 0.014 0.066 3 
0.561 -0.016 0.082 3 
0.565 -0.023 0.083 3 
0.559 -0.026 0.082 3 
0.455 0.33 0.073 3 
0.456 0.324 0.073 3 
0.458 0.313 0.074 3 
0.458 0.3 0.073 3 
0.459 0.292 0.074 3 
0.459 0.282 0.073 3 
0.459 0.273 0.073 3 
0.439 0.042 0.07 3 
0.46 0.252 0.073 3 
0.461 0.244 0.073 3 
0.461 0.232 0.073 3 
0.461 0.223 0.073 3 
0.46 0.214 0.073 3 
0.461 0.203 0.073 3 
0.461 0.192 0.073 3 
0.461 0.184 0.073 3 
0.461 0.172 0.073 3 
0.462 0.153 0.073 3 
0.464 -0.03 0.066 3 
0.478 -0.306 0.073 3 
0.479 -0.316 0.073 3 
0.481 -0.338 0.073 3 
0.481 -0.345 0.073 3 
0.48 -0.355 0.073 3 
0.315 0.021 0.063 3 
0.549 -0.019 0.071 3 
0.546 -0.032 0.071 3 
0.474 -0.236 0.069 3 
0.474 -0.245 0.069 3 
0.474 -0.276 0.069 3 
0.476 -0.01 0.066 3 
0.477 -0.295 0.073 3 
0.458 0.323 0.062 3 
0.459 0.304 0.062 3 
0.458 0.291 0.062 3 
0.459 0.282 0.062 3 
0.459 0.251 0.062 3 
0.46 0.243 0.062 3 
0.46 0.223 0.063 3 
0.46 0.214 0.063 3 
0.461 0.203 0.063 3 
0.46 0.194 0.063 3 
0.324 -0.01 0.053 3 
0.473 -0.217 0.072 3 
0.313 0.021 0.064 3 
0.475 -0.234 0.064 3 
0.306 0.014 0.064 3 
0.304 0.012 0.064 3 
0.303 0.004 0.064 3 
0.55 -0.036 0.075 3 
0.472 -0.187 0.072 3 
0.473 -0.196 0.072 3 
0.473 -0.205 0.072 3 
0.34 0.001 0.004 3 
0.473 -0.226 0.072 3 
0.475 -0.234 0.072 3 
0.475 -0.237 0.072 3 
0.467 -0.085 0.034 3 
0.475 -0.246 0.072 3 
0.475 -0.255 0.072 3 
0.474 -0.263 0.072 3 
0.475 -0.267 0.072 3 
0.474 -0.27 0.072 3 
0.475 -0.277 0.072 3 
0.476 -0.287 0.072 3 
