# .PCD v0.7 - Point Cloud Data file
FIELDS x y z intensity
SIZE 4 4 4 4
TYPE F F F F
COUNT 1 1 1 1
WIDTH 2064
HEIGHT 1
VIEWPOINT 0 0 0 1 0 0 0
POINTS 2064
DATA ascii
0.51 0.137 0.076 0 
0.384 0.095 0.008 0 
0.374 -0.238 -0.026 1 
0.374 -0.217 -0.024 1 
0.364 -0.165 -0.019 1 
0.364 -0.157 -0.018 1 
0.364 -0.136 -0.018 1 
0.362 -0.127 -0.017 1 
0.354 -0.086 -0.013 1 
0.354 -0.055 -0.012 1 
0.354 -0.036 -0.012 1 
0.351 -0.016 -0.011 1 
0.323 0.037 -0.001 1 
0.323 0.064 -0.002 1 
0.324 0.073 -0.002 1 
0.321 0.094 -0.002 1 
0.314 0.113 0 1 
0.379 -0.227 -0.025 1 
0.374 -0.197 -0.022 1 
0.372 -0.187 -0.02 1 
0.369 -0.175 -0.019 1 
0.361 -0.095 -0.014 1 
0.358 -0.086 -0.013 1 
0.363 -0.075 -0.014 1 
0.364 -0.065 -0.014 1 
0.365 -0.063 -0.015 1 
0.356 -0.035 -0.011 1 
0.337 -0.001 -0.005 1 
0.334 0.004 -0.004 1 
0.324 0.024 0 1 
0.313 0.124 0.001 1 
0.384 -0.249 -0.025 1 
0.373 -0.146 -0.017 1 
0.372 -0.137 -0.017 1 
0.373 -0.126 -0.017 1 
0.364 -0.056 -0.013 1 
0.313 0.144 0.001 1 
0.314 0.154 0 1 
0.392 -0.256 -0.026 1 
0.39 -0.241 -0.025 1 
0.381 -0.206 -0.02 1 
0.382 -0.195 -0.02 1 
0.38 -0.155 -0.018 1 
0.374 -0.116 -0.015 1 
0.374 -0.097 -0.015 1 
0.372 -0.088 -0.014 1 
0.374 -0.087 -0.015 1 
0.371 -0.045 -0.013 1 
0.362 -0.015 -0.01 1 
0.334 0.036 -0.001 1 
0.342 0.054 -0.004 1 
0.34 0.063 -0.003 1 
0.311 0.134 0.004 1 
0.306 0.131 0.005 1 
0.302 0.129 0.007 1 
0.306 0.135 0.005 1 
0.315 0.152 0.001 1 
0.319 0.164 0 1 
0.394 -0.235 -0.023 1 
0.393 -0.229 -0.023 1 
0.384 -0.173 -0.018 1 
0.38 -0.126 -0.015 1 
0.384 -0.116 -0.017 1 
0.384 -0.114 -0.016 1 
0.379 -0.093 -0.014 1 
0.383 -0.085 -0.016 1 
0.383 -0.077 -0.016 1 
0.373 -0.036 -0.012 1 
0.354 -0.004 -0.006 1 
0.343 0.074 -0.003 1 
0.332 0.104 0 1 
0.296 0.115 0.011 1 
0.291 0.129 0.012 1 
0.301 0.142 0.007 1 
0.314 0.157 0.003 1 
0.402 -0.275 -0.026 1 
0.404 -0.255 -0.025 1 
0.405 -0.246 -0.025 1 
0.404 -0.24 -0.024 1 
0.393 -0.215 -0.02 1 
0.391 -0.165 -0.018 1 
0.391 -0.156 -0.018 1 
0.39 -0.117 -0.016 1 
0.374 -0.221 -0.025 1 
0.392 -0.107 -0.017 1 
0.384 -0.095 -0.014 1 
0.374 -0.068 -0.011 1 
0.382 -0.067 -0.013 1 
0.384 -0.06 -0.014 1 
0.382 -0.045 -0.013 1 
0.381 -0.036 -0.013 1 
0.371 -0.016 -0.01 1 
0.358 -0.004 -0.005 1 
0.339 0.034 0 1 
0.356 0.053 -0.005 1 
0.351 0.064 -0.004 1 
0.344 0.077 -0.001 1 
0.344 0.094 -0.002 1 
0.323 0.123 0.003 1 
0.288 0.115 0.014 1 
0.324 0.182 0 1 
0.409 -0.266 -0.025 1 
0.409 -0.258 -0.024 1 
0.41 -0.256 -0.025 1 
0.383 -0.216 -0.021 1 
0.402 -0.227 -0.021 1 
0.394 -0.199 -0.018 1 
0.394 -0.176 -0.017 1 
0.394 -0.089 -0.015 1 
0.393 -0.072 -0.015 1 
0.39 -0.065 -0.014 1 
0.393 -0.058 -0.015 1 
0.392 -0.056 -0.014 1 
0.393 -0.052 -0.015 1 
0.391 -0.045 -0.014 1 
0.39 -0.035 -0.014 1 
0.375 -0.016 -0.009 1 
0.373 -0.005 -0.008 1 
0.33 0.021 0.004 1 
0.33 0.032 0.004 1 
0.36 0.058 -0.005 1 
0.357 0.064 -0.004 1 
0.353 0.074 -0.003 1 
0.351 0.084 -0.002 1 
0.292 0.111 0.014 1 
0.285 0.116 0.016 1 
0.325 0.181 0.001 1 
0.414 -0.286 -0.025 1 
0.412 -0.281 -0.024 1 
0.414 -0.28 -0.025 1 
0.414 -0.274 -0.024 1 
0.401 -0.205 -0.018 1 
0.403 -0.197 -0.018 1 
0.391 -0.183 -0.014 1 
0.402 -0.175 -0.017 1 
0.402 -0.166 -0.017 1 
0.403 -0.155 -0.017 1 
0.401 -0.145 -0.016 1 
0.402 -0.136 -0.016 1 
0.403 -0.115 -0.016 1 
0.4 -0.105 -0.015 1 
0.398 -0.095 -0.014 1 
0.398 -0.093 -0.014 1 
0.401 -0.077 -0.015 1 
0.399 -0.074 -0.015 1 
0.4 -0.047 -0.015 1 
0.399 -0.039 -0.014 1 
0.402 -0.037 -0.015 1 
0.396 -0.028 -0.014 1 
0.384 -0.005 -0.01 1 
0.347 0.041 0 1 
0.366 0.061 -0.005 1 
0.353 0.094 -0.001 1 
0.347 0.104 0 1 
0.33 0.113 0.004 1 
0.326 0.115 0.005 1 
0.422 -0.266 -0.024 1 
0.42 -0.255 -0.023 1 
0.414 -0.236 -0.02 1 
0.411 -0.225 -0.019 1 
0.364 -0.006 -0.009 1 
0.409 -0.217 -0.018 1 
0.404 -0.188 -0.016 1 
0.406 -0.105 -0.015 1 
0.405 -0.1 -0.015 1 
0.407 -0.086 -0.015 1 
0.406 -0.079 -0.015 1 
0.404 -0.052 -0.014 1 
0.41 -0.036 -0.015 1 
0.403 -0.016 -0.014 1 
0.343 0.003 0.003 1 
0.341 0.039 0.004 1 
0.355 0.044 0 1 
0.365 0.052 -0.003 1 
0.363 0.082 -0.002 1 
0.362 0.094 -0.002 1 
0.301 0.111 0.014 1 
0.424 -0.297 -0.023 1 
0.421 -0.245 -0.02 1 
0.419 -0.238 -0.019 1 
0.414 -0.206 -0.017 1 
0.414 -0.196 -0.017 1 
0.414 -0.189 -0.017 1 
0.413 -0.166 -0.016 1 
0.414 -0.16 -0.016 1 
0.41 -0.145 -0.015 1 
0.41 -0.136 -0.014 1 
0.411 -0.135 -0.015 1 
0.392 -0.248 -0.026 1 
0.413 -0.115 -0.015 1 
0.41 -0.107 -0.014 1 
0.411 -0.085 -0.014 1 
0.41 -0.075 -0.014 1 
0.404 -0.069 -0.012 1 
0.408 -0.066 -0.013 1 
0.41 -0.056 -0.013 1 
0.414 -0.048 -0.015 1 
0.413 -0.045 -0.014 1 
0.413 -0.025 -0.014 1 
0.414 -0.019 -0.015 1 
0.391 -0.005 -0.008 1 
0.354 0.049 0.002 1 
0.372 0.074 -0.003 1 
0.371 0.083 -0.003 1 
0.368 0.093 -0.002 1 
0.388 0.107 -0.008 1 
0.363 0.104 -0.001 1 
0.344 0.114 0.003 1 
0.342 0.115 0.004 1 
0.431 -0.296 -0.022 1 
0.431 -0.287 -0.022 1 
0.431 -0.275 -0.021 1 
0.423 -0.228 -0.018 1 
0.42 -0.216 -0.017 1 
0.421 -0.196 -0.016 1 
0.419 -0.178 -0.015 1 
0.419 -0.163 -0.015 1 
0.417 -0.157 -0.014 1 
0.414 -0.145 -0.013 1 
0.416 -0.096 -0.013 1 
0.378 0.082 -0.003 1 
0.373 0.103 -0.002 1 
0.349 0.114 0.004 1 
0.31 0.109 0.014 1 
0.434 -0.305 -0.021 1 
0.431 -0.255 -0.018 1 
0.43 -0.245 -0.018 1 
0.429 -0.205 -0.016 1 
0.425 -0.187 -0.015 1 
0.423 -0.175 -0.014 1 
0.424 -0.169 -0.014 1 
0.404 -0.253 -0.025 1 
0.426 -0.157 -0.015 1 
0.423 -0.146 -0.014 1 
0.423 -0.136 -0.013 1 
0.423 -0.115 -0.013 1 
0.423 -0.105 -0.013 1 
0.424 -0.066 -0.013 1 
0.423 -0.056 -0.013 1 
0.423 -0.045 -0.012 1 
0.381 -0.186 -0.019 1 
0.393 -0.151 -0.016 1 
0.424 -0.036 -0.013 1 
0.423 -0.026 -0.013 1 
0.43 -0.008 -0.015 1 
0.41 -0.005 -0.009 1 
0.332 0.024 0.011 1 
0.384 0.067 -0.002 1 
0.381 0.093 -0.002 1 
0.378 0.104 -0.001 1 
0.441 -0.297 -0.02 1 
0.434 -0.227 -0.016 1 
0.434 -0.217 -0.015 1 
0.432 -0.126 -0.013 1 
0.431 -0.116 -0.013 1 
0.431 -0.096 -0.013 1 
0.429 -0.086 -0.012 1 
0.43 -0.065 -0.012 1 
0.431 -0.046 -0.012 1 
0.431 -0.037 -0.012 1 
0.43 -0.011 -0.012 1 
0.321 0.104 0 1 
0.354 -0.05 -0.012 1 
0.348 0.054 0.008 1 
0.392 0.073 -0.003 1 
0.403 -0.217 -0.019 1 
0.39 0.083 -0.002 1 
0.364 0.112 0.003 1 
0.349 0.107 0.007 1 
0.443 -0.275 -0.017 1 
0.442 -0.256 -0.016 1 
0.44 -0.235 -0.015 1 
0.44 -0.229 -0.015 1 
0.44 -0.227 -0.014 1 
0.44 -0.219 -0.015 1 
0.441 -0.212 -0.015 1 
0.434 -0.188 -0.012 1 
0.434 -0.183 -0.012 1 
0.434 -0.155 -0.012 1 
0.434 -0.147 -0.012 1 
0.434 -0.144 -0.012 1 
0.434 -0.083 -0.011 1 
0.404 -0.005 -0.003 1 
0.337 0.024 0.013 1 
0.39 0.104 -0.001 1 
0.367 0.114 0.004 1 
0.452 -0.316 -0.017 1 
0.446 -0.287 -0.015 1 
0.444 -0.267 -0.014 1 
0.444 -0.255 -0.014 1 
0.443 -0.252 -0.013 1 
0.444 -0.244 -0.013 1 
0.444 -0.217 -0.013 1 
0.442 -0.196 -0.012 1 
0.444 -0.187 -0.012 1 
0.444 -0.176 -0.012 1 
0.443 -0.165 -0.012 1 
0.44 -0.155 -0.011 1 
0.439 -0.145 -0.01 1 
0.443 -0.136 -0.011 1 
0.441 -0.115 -0.01 1 
0.441 -0.105 -0.01 1 
0.411 -0.096 -0.014 1 
0.441 -0.095 -0.01 1 
0.44 -0.087 -0.01 1 
0.44 -0.075 -0.01 1 
0.44 -0.065 -0.01 1 
0.442 -0.055 -0.01 1 
0.443 -0.046 -0.011 1 
0.442 -0.036 -0.01 1 
0.441 -0.026 -0.01 1 
0.444 -0.011 -0.011 1 
0.407 -0.005 -0.002 1 
0.339 0.026 0.014 1 
0.432 -0.106 -0.013 1 
0.457 -0.318 -0.016 1 
0.455 -0.309 -0.015 1 
0.454 -0.301 -0.015 1 
0.45 -0.246 -0.012 1 
0.449 -0.207 -0.011 1 
0.451 -0.146 -0.011 1 
0.448 -0.095 -0.009 1 
0.343 -0.005 -0.008 1 
0.344 0.013 0.014 1 
0.347 0.015 0.014 1 
0.352 -0.026 -0.012 1 
0.352 0.027 0.012 1 
0.403 0.083 0 1 
0.401 0.093 0 1 
0.388 -0.126 -0.016 1 
0.37 0.111 0.007 1 
0.461 -0.335 -0.015 1 
0.462 -0.326 -0.014 1 
0.453 -0.275 -0.011 1 
0.453 -0.266 -0.011 1 
0.454 -0.258 -0.011 1 
0.454 -0.235 -0.01 1 
0.454 -0.232 -0.01 1 
0.454 -0.224 -0.01 1 
0.454 -0.202 -0.01 1 
0.454 -0.188 -0.009 1 
0.454 -0.18 -0.009 1 
0.454 -0.166 -0.009 1 
0.454 -0.155 -0.009 1 
0.454 -0.126 -0.009 1 
0.454 -0.118 -0.008 1 
0.443 -0.205 -0.012 1 
0.454 -0.089 -0.008 1 
0.453 -0.065 -0.008 1 
0.453 -0.055 -0.008 1 
0.404 0.103 0.001 1 
0.396 0.113 0.003 1 
0.306 0.115 0.01 1 
0.392 0.113 0.004 1 
0.464 -0.339 -0.012 1 
0.462 -0.306 -0.011 1 
0.462 -0.297 -0.011 1 
0.462 -0.287 -0.01 1 
0.46 -0.255 -0.009 1 
0.461 -0.247 -0.009 1 
0.459 -0.225 -0.008 1 
0.461 -0.215 -0.009 1 
0.361 0.017 0.014 1 
0.363 -0.026 -0.012 1 
0.36 0.03 0.014 1 
0.464 -0.315 -0.012 1 
0.41 0.104 0.002 1 
0.399 -0.098 -0.015 1 
0.464 -0.267 -0.007 1 
0.464 -0.2 -0.006 1 
0.465 -0.198 -0.007 1 
0.463 -0.177 -0.006 1 
0.464 -0.166 -0.006 1 
0.464 -0.155 -0.006 1 
0.464 -0.147 -0.006 1 
0.462 -0.126 -0.005 1 
0.378 -0.145 -0.017 1 
0.464 -0.092 -0.005 1 
0.465 -0.087 -0.005 1 
0.463 -0.076 -0.005 1 
0.38 -0.235 -0.025 1 
0.463 -0.057 -0.005 1 
0.463 -0.046 -0.005 1 
0.462 -0.041 -0.005 1 
0.461 -0.025 -0.005 1 
0.462 -0.067 -0.005 1 
0.369 0.024 0.014 1 
0.374 -0.025 -0.011 1 
0.366 0.029 0.014 1 
0.397 0.035 0.008 1 
0.393 -0.208 -0.02 1 
0.474 -0.357 -0.009 1 
0.474 -0.346 -0.009 1 
0.473 -0.335 -0.008 1 
0.472 -0.327 -0.008 1 
0.472 -0.317 -0.007 1 
0.454 -0.053 -0.008 1 
0.472 -0.307 -0.007 1 
0.47 -0.292 -0.006 1 
0.466 -0.275 -0.005 1 
0.469 -0.247 -0.005 1 
0.469 -0.235 -0.005 1 
0.469 -0.227 -0.005 1 
0.468 -0.217 -0.005 1 
0.464 -0.076 -0.002 1 
0.364 0.018 0.017 1 
0.379 -0.028 -0.012 1 
0.377 0.03 0.014 1 
0.389 0.036 0.012 1 
0.475 -0.355 -0.006 1 
0.476 -0.345 -0.006 1 
0.476 -0.338 -0.006 1 
0.476 -0.327 -0.006 1 
0.476 -0.317 -0.005 1 
0.475 -0.306 -0.005 1 
0.472 -0.287 -0.004 1 
0.468 -0.009 -0.001 1 
0.416 -0.151 -0.016 1 
0.377 0.004 0.016 1 
0.373 0.013 0.017 1 
0.404 -0.005 -0.005 1 
0.402 0.006 0.013 1 
0.395 0.008 0.015 1 
0.391 0.012 0.015 1 
0.38 0.013 0.017 1 
0.476 -0.24 0.001 1 
0.473 -0.218 0.002 1 
0.47 -0.207 0.002 1 
0.47 -0.195 0.003 1 
0.47 -0.186 0.003 1 
0.47 -0.175 0.003 1 
0.469 -0.166 0.003 1 
0.47 -0.155 0.003 1 
0.47 -0.147 0.003 1 
0.372 -0.206 -0.023 1 
0.469 -0.138 0.003 1 
0.467 -0.085 0.004 1 
0.468 -0.077 0.004 1 
0.414 -0.129 -0.015 1 
0.453 0.003 0.006 1 
0.449 -0.014 -0.01 1 
0.453 0.013 0.006 1 
0.451 0.016 0.007 1 
0.438 0.017 0.009 1 
0.424 -0.087 -0.013 1 
0.48 -0.328 0.002 1 
0.48 -0.308 0.002 1 
0.477 -0.295 0.003 1 
0.476 -0.287 0.003 1 
0.475 -0.283 0.003 1 
0.474 -0.276 0.004 1 
0.474 -0.266 0.004 1 
0.474 -0.257 0.004 1 
0.474 -0.245 0.004 1 
0.474 -0.236 0.004 1 
0.433 0.017 0.012 1 
0.371 -0.075 -0.015 1 
0.464 -0.007 0.012 1 
0.463 0.003 0.013 1 
0.457 0.024 0.013 1 
0.364 -0.145 -0.018 1 
0.473 -0.227 0.004 1 
0.469 0.027 0.014 1 
0.484 0.032 0.012 1 
0.354 -0.074 -0.013 1 
0.465 0.024 0.018 1 
0.477 0.034 0.016 1 
0.481 0.037 0.018 1 
0.44 -0.315 -0.02 1 
0.4 -0.085 -0.015 1 
0.393 -0.025 -0.013 1 
0.367 -0.083 -0.014 1 
0.376 0.113 0.008 1 
0.45 -0.135 -0.01 1 
0.382 0.064 -0.002 1 
0.442 -0.245 -0.015 1 
0.321 0.115 0.007 1 
0.468 -0.126 0.004 1 
0.388 0.094 -0.002 1 
0.395 0.072 -0.003 1 
0.437 -0.001 0.007 1 
0.424 -0.017 -0.013 1 
0.329 0.064 -0.002 1 
0.333 0.001 -0.005 1 
0.391 -0.015 -0.012 1 
0.421 -0.207 -0.017 1 
0.454 -0.305 -0.015 1 
0.445 -0.28 -0.015 1 
0.413 -0.036 -0.014 1 
0.413 -0.017 -0.014 1 
0.332 0.027 0.014 1 
0.476 -0.246 0.001 1 
0.465 -0.084 -0.005 1 
0.475 -0.267 0.001 1 
0.353 -0.006 -0.009 1 
0.345 0.011 0.014 1 
0.37 -0.071 -0.015 1 
0.323 0.172 0.001 1 
0.332 0.072 -0.002 1 
0.421 -0.276 -0.024 1 
0.462 -0.33 -0.015 1 
0.475 -0.255 0.001 1 
0.435 -0.204 -0.015 1 
0.453 -0.019 -0.008 1 
0.463 -0.116 -0.005 1 
0.459 -0.009 -0.009 1 
0.462 0.014 0.013 1 
0.363 0.05 -0.002 1 
0.462 -0.135 -0.005 1 
0.412 -0.245 -0.022 1 
0.426 -0.165 -0.015 1 
0.393 -0.095 -0.015 1 
0.33 0.115 0.004 1 
0.43 -0.237 -0.017 1 
0.469 -0.01 -0.006 1 
0.433 -0.268 -0.019 1 
0.462 -0.185 -0.006 1 
0.341 0.011 0.004 1 
0.464 -0.068 -0.002 1 
0.392 0.041 0.015 1 
0.471 -0.296 -0.007 1 
0.354 -0.075 -0.013 1 
0.419 -0.165 -0.015 1 
0.386 0.116 0.001 1 
0.364 -0.109 -0.015 1 
0.449 -0.105 -0.01 1 
0.463 -0.023 -0.005 1 
0.394 -0.077 -0.015 1 
0.34 0.044 0.006 1 
0.468 -0.096 0.004 1 
0.468 -0.211 -0.005 1 
0.474 -0.295 -0.004 1 
0.475 -0.231 0.001 1 
0.396 0 0.014 1 
0.452 -0.027 -0.008 1 
0.431 -0.165 -0.014 1 
0.323 0.083 -0.002 1 
0.374 -0.107 -0.017 1 
0.441 -0.288 -0.019 1 
0.449 -0.037 -0.009 1 
0.449 -0.287 -0.013 1 
0.413 -0.176 -0.016 1 
0.444 -0.016 -0.011 1 
0.463 -0.105 -0.005 1 
0.404 -0.056 -0.014 1 
0.441 -0.267 -0.016 1 
0.388 0.113 0.005 1 
0.463 -0.007 0.002 1 
0.364 -0.103 -0.015 1 
0.384 -0.175 -0.018 1 
0.464 -0.125 -0.003 1 
0.449 -0.075 -0.01 1 
0.402 -0.125 -0.016 1 
0.423 -0.293 -0.023 1 
0.414 -0.01 -0.015 1 
0.374 -0.063 -0.012 1 
0.381 -0.096 -0.015 1 
0.383 0.114 0.004 1 
0.364 -0.052 -0.013 1 
0.345 -0.002 -0.004 1 
0.419 -0.185 -0.016 1 
0.404 -0.266 -0.026 1 
0.443 -0.126 -0.011 1 
0.429 -0.055 -0.012 1 
0.428 -0.025 -0.012 1 
0.333 0.093 -0.001 1 
0.373 -0.156 -0.018 1 
0.442 -0.308 -0.02 1 
0.373 -0.095 -0.014 1 
0.42 -0.132 -0.015 1 
0.333 0.084 -0.003 1 
0.413 0.094 0.002 1 
0.381 0.115 0.004 1 
0.424 -0.013 -0.013 1 
0.312 0.169 -0.001 1 
0.333 0.013 0 1 
0.469 -0.265 -0.006 1 
0.348 0.115 0.004 1 
0.389 -0.186 -0.018 1 
0.36 0.074 -0.003 1 
0.469 -0.256 -0.005 1 
0.383 -0.226 -0.024 1 
0.364 -0.116 -0.015 1 
0.464 -0.095 -0.005 1 
0.424 -0.075 -0.013 1 
0.334 0.047 -0.002 1 
0.415 -0.278 -0.025 1 
0.391 -0.098 -0.014 1 
0.434 -0.198 -0.015 1 
0.324 0.03 0 1 
0.335 0.015 0.004 1 
0.48 -0.318 0.002 1 
0.345 0.115 0.005 1 
0.46 -0.206 -0.008 1 
0.423 -0.127 -0.013 1 
0.463 -0.279 -0.005 1 
0.407 -0.025 -0.015 1 
0.373 0.063 -0.003 1 
0.4 -0.03 -0.015 1 
0.431 -0.015 -0.013 1 
0.466 -0.015 -0.006 1 
0.45 -0.327 -0.018 1 
0.459 -0.236 -0.008 1 
0.385 -0.094 -0.014 1 
0.383 -0.136 -0.017 1 
0.324 0.114 0 1 
0.394 -0.14 -0.016 1 
0.373 -0.166 -0.018 1 
0.344 0.104 0 1 
0.372 0.039 0.023 2 
0.356 0.09 0.077 2 
0.493 -0.004 0.096 2 
0.38 0.093 0.077 2 
0.381 0.04 0.035 2 
0.393 0.059 0.046 2 
0.335 0.099 0.021 2 
0.374 0.062 0.055 2 
0.377 0.061 0.055 2 
0.398 0.056 0.052 2 
0.389 0.054 0.05 2 
0.384 0.043 0.04 2 
0.382 0.048 0.038 2 
0.384 0.055 0.047 2 
0.355 0.053 0.051 2 
0.395 0.068 0.057 2 
0.39 0.054 0.046 2 
0.396 0.06 0.044 2 
0.389 0.044 0.042 2 
0.4 0.08 0.062 2 
0.402 0.074 0.062 2 
0.392 0.071 0.058 2 
0.393 0.063 0.059 2 
0.391 0.036 0.034 2 
0.371 0.033 0.025 2 
0.383 0.023 0.018 2 
0.373 0.024 0.017 2 
0.385 0.026 0.019 2 
0.334 0.103 0.014 2 
0.337 0.077 0.021 2 
0.348 0.101 0.017 2 
0.358 0.105 0.014 2 
0.334 0.105 0.014 2 
0.335 0.105 0.013 2 
0.322 0.108 0.015 2 
0.345 0.071 0.022 2 
0.336 0.066 0.024 2 
0.325 0.105 0.021 2 
0.33 0.09 0.022 2 
0.387 0.052 0.035 2 
0.382 0.046 0.036 2 
0.396 0.054 0.032 2 
0.373 0.041 0.034 2 
0.397 0.054 0.036 2 
0.374 0.034 0.03 2 
0.378 0.034 0.033 2 
0.329 0.082 0.084 2 
0.337 0.083 0.085 2 
0.339 0.087 0.086 2 
0.343 0.08 0.076 2 
0.346 0.087 0.084 2 
0.39 0.068 0.061 2 
0.377 0.025 0.019 2 
0.375 0.041 0.024 2 
0.428 0.109 0.073 2 
0.326 0.104 0.021 2 
0.384 0.097 0.078 2 
0.34 0.102 0.016 2 
0.481 -0.001 0.073 2 
0.493 -0.007 0.096 2 
0.402 0.101 0.074 2 
0.354 0.084 0.074 2 
0.432 0.053 0.091 3 
0.469 -0.055 0.142 3 
0.469 -0.066 0.142 3 
0.47 -0.077 0.142 3 
0.47 -0.086 0.142 3 
0.47 -0.105 0.143 3 
0.473 -0.126 0.144 3 
0.472 -0.145 0.144 3 
0.472 -0.157 0.144 3 
0.471 -0.165 0.144 3 
0.469 -0.047 0.142 3 
0.472 -0.177 0.144 3 
0.485 -0.314 0.151 3 
0.485 -0.317 0.151 3 
0.486 -0.329 0.152 3 
0.318 0.04 0.034 3 
0.487 -0.337 0.153 3 
0.488 -0.345 0.153 3 
0.47 -0.086 0.134 3 
0.464 0.178 0.139 3 
0.43 0.041 0.129 3 
0.484 -0.317 0.154 3 
0.464 0.092 0.143 3 
0.465 0.09 0.144 3 
0.465 0.084 0.144 3 
0.464 0.078 0.143 3 
0.464 0.073 0.143 3 
0.464 0.062 0.143 3 
0.464 0.054 0.143 3 
0.474 -0.196 0.148 3 
0.482 -0.298 0.153 3 
0.483 -0.305 0.153 3 
0.266 0.074 0.054 3 
0.255 0.089 0.084 3 
0.461 0.208 0.142 3 
0.465 0.199 0.143 3 
0.465 0.193 0.142 3 
0.466 0.182 0.142 3 
0.465 0.173 0.142 3 
0.471 -0.156 0.124 3 
0.479 -0.285 0.143 3 
0.47 -0.207 0.014 3 
0.471 -0.185 0.141 3 
0.466 -0.095 0.012 3 
0.465 0.184 0.134 3 
0.464 0.18 0.133 3 
0.464 0.172 0.133 3 
0.48 -0.06 0.105 3 
0.464 0.163 0.133 3 
0.464 0.152 0.133 3 
0.464 0.144 0.133 3 
0.463 0.132 0.133 3 
0.465 0.064 0.055 3 
0.464 0.122 0.133 3 
0.467 0.191 0.134 3 
0.464 0.114 0.133 3 
0.463 0.102 0.132 3 
0.463 -0.036 0.092 3 
0.464 0.092 0.133 3 
0.465 0.087 0.133 3 
0.464 0.084 0.133 3 
0.465 0.081 0.133 3 
0.465 -0.009 0.076 3 
0.464 0.073 0.132 3 
0.463 0.062 0.132 3 
0.466 0.205 0.137 3 
0.474 -0.207 0.142 3 
0.454 0.044 0.122 3 
0.474 -0.216 0.143 3 
0.475 -0.219 0.143 3 
0.476 -0.226 0.143 3 
0.477 -0.236 0.144 3 
0.477 -0.245 0.144 3 
0.477 -0.255 0.144 3 
0.265 0.087 0.084 3 
0.288 0.098 0.09 3 
0.465 0.095 0.144 3 
0.465 0.073 0.135 3 
0.46 0.048 0.134 3 
0.474 -0.225 0.14 3 
0.478 -0.277 0.142 3 
0.482 -0.297 0.144 3 
0.462 0.199 0.133 3 
0.465 0.195 0.134 3 
0.464 0.192 0.134 3 
0.471 -0.147 0.052 3 
0.474 -0.248 0.092 3 
0.466 0.074 0.152 3 
0.464 0.057 0.151 3 
0.466 -0.047 0.034 3 
0.465 0.052 0.152 3 
0.47 -0.056 0.153 3 
0.47 -0.067 0.153 3 
0.47 -0.075 0.153 3 
0.309 0.104 0.024 3 
0.47 -0.086 0.153 3 
0.47 -0.097 0.154 3 
0.465 0.084 0.152 3 
0.47 -0.105 0.154 3 
0.471 -0.117 0.154 3 
0.471 -0.128 0.154 3 
0.48 -0.296 0.161 3 
0.482 -0.305 0.162 3 
0.484 -0.317 0.163 3 
0.485 -0.325 0.164 3 
0.247 0.094 0.084 3 
0.275 0.095 0.092 3 
0.466 0.032 0.034 3 
0.465 0.159 0.153 3 
0.488 -0.346 0.169 3 
0.461 0.223 0.153 3 
0.464 0.213 0.154 3 
0.465 0.211 0.154 3 
0.463 0.192 0.153 3 
0.463 0.184 0.153 3 
0.465 0.176 0.153 3 
0.465 0.173 0.153 3 
0.464 0.164 0.152 3 
0.466 -0.087 0.023 3 
0.464 0.153 0.152 3 
0.465 0.15 0.153 3 
0.465 0.142 0.152 3 
0.466 0.134 0.153 3 
0.465 0.123 0.152 3 
0.465 0.03 0.06 3 
0.465 0.114 0.152 3 
0.465 0.095 0.152 3 
0.465 0.092 0.152 3 
0.478 -0.265 0.142 3 
0.466 0.194 0.146 3 
0.477 -0.227 0.152 3 
0.464 0.073 0.146 3 
0.477 -0.236 0.153 3 
0.473 -0.265 0.013 3 
0.477 -0.258 0.153 3 
0.478 -0.268 0.154 3 
0.478 -0.275 0.154 3 
0.316 0.05 0.024 3 
0.478 -0.288 0.154 3 
0.465 0.202 0.145 3 
0.464 0.122 0.146 3 
0.464 0.169 0.144 3 
0.465 0.161 0.144 3 
0.464 0.158 0.144 3 
0.464 0.152 0.144 3 
0.465 0.145 0.144 3 
0.464 0.141 0.144 3 
0.464 0.133 0.144 3 
0.463 0.124 0.143 3 
0.463 0.113 0.143 3 
0.464 0.103 0.144 3 
0.474 -0.19 0.154 3 
0.473 0.229 0.154 3 
0.471 -0.136 0.152 3 
0.288 0.088 0.083 3 
0.472 -0.145 0.152 3 
0.473 -0.157 0.153 3 
0.473 -0.166 0.153 3 
0.498 -0.046 0.114 3 
0.475 -0.265 0.104 3 
0.473 -0.175 0.153 3 
0.475 -0.187 0.154 3 
0.468 -0.034 0.133 3 
0.475 -0.196 0.154 3 
0.458 0.165 0.113 3 
0.475 -0.205 0.154 3 
0.485 -0.321 0.161 3 
0.488 -0.339 0.162 3 
0.462 0.053 0.052 3 
0.488 -0.346 0.163 3 
0.275 0.094 0.091 3 
0.464 0.144 0.147 3 
0.464 0.133 0.147 3 
0.463 0.094 0.114 3 
0.482 -0.327 0.124 3 
0.482 -0.338 0.124 3 
0.482 -0.345 0.124 3 
0.459 0.163 0.113 3 
0.461 0.153 0.114 3 
0.463 0.143 0.114 3 
0.463 0.132 0.114 3 
0.463 0.124 0.114 3 
0.462 0.113 0.113 3 
0.462 0.102 0.113 3 
0.481 -0.316 0.123 3 
0.461 0.083 0.113 3 
0.459 0.074 0.113 3 
0.458 0.053 0.112 3 
0.466 -0.033 0.114 3 
0.467 -0.036 0.114 3 
0.476 0.061 0.041 3 
0.468 -0.047 0.114 3 
0.468 -0.055 0.114 3 
0.468 -0.066 0.114 3 
0.255 0.085 0.074 3 
0.476 -0.235 0.123 3 
0.484 -0.337 0.131 3 
0.476 -0.032 0.121 3 
0.464 0.014 0.023 3 
0.472 -0.176 0.122 3 
0.473 -0.185 0.122 3 
0.474 -0.195 0.122 3 
0.473 -0.206 0.122 3 
0.475 -0.213 0.123 3 
0.476 -0.217 0.123 3 
0.477 -0.226 0.124 3 
0.468 -0.077 0.112 3 
0.476 -0.247 0.124 3 
0.476 -0.256 0.124 3 
0.246 0.093 0.074 3 
0.285 0.082 0.082 3 
0.474 -0.215 0.12 3 
0.305 0.046 0.044 3 
0.477 -0.267 0.121 3 
0.479 -0.288 0.122 3 
0.48 -0.295 0.123 3 
0.481 -0.306 0.123 3 
0.275 0.086 0.039 3 
0.49 -0.05 0.113 3 
0.507 -0.059 0.116 3 
0.474 -0.215 0.111 3 
0.275 0.116 0.021 3 
0.476 -0.235 0.112 3 
0.478 -0.245 0.113 3 
0.477 -0.257 0.113 3 
0.476 -0.266 0.113 3 
0.46 0.069 0.092 3 
0.477 -0.276 0.113 3 
0.488 -0.041 0.112 3 
0.478 -0.286 0.113 3 
0.479 -0.297 0.114 3 
0.48 -0.308 0.114 3 
0.48 -0.315 0.114 3 
0.265 0.081 0.074 3 
0.47 -0.155 0.052 3 
0.295 0.069 0.031 3 
0.468 -0.096 0.034 3 
0.48 -0.345 0.034 3 
0.429 0.033 0.079 3 
0.469 -0.155 0.113 3 
0.469 -0.085 0.112 3 
0.467 -0.066 0.034 3 
0.471 -0.097 0.113 3 
0.471 -0.105 0.113 3 
0.47 -0.116 0.113 3 
0.308 0.105 0.023 3 
0.47 -0.127 0.113 3 
0.47 -0.136 0.113 3 
0.473 -0.185 0.114 3 
0.47 -0.147 0.113 3 
0.471 -0.167 0.124 3 
0.47 -0.166 0.113 3 
0.472 -0.176 0.113 3 
0.473 -0.197 0.114 3 
0.473 -0.206 0.114 3 
0.475 -0.216 0.114 3 
0.256 0.084 0.073 3 
0.295 0.082 0.08 3 
0.297 0.081 0.028 3 
0.482 -0.038 0.111 3 
0.474 -0.215 0.131 3 
0.471 -0.176 0.133 3 
0.471 -0.185 0.133 3 
0.473 -0.197 0.133 3 
0.473 -0.206 0.134 3 
0.475 -0.213 0.134 3 
0.475 -0.216 0.134 3 
0.471 0.082 0.057 3 
0.277 0.089 0.084 3 
0.465 0.119 0.128 3 
0.454 0.044 0.125 3 
0.471 -0.165 0.133 3 
0.475 -0.228 0.132 3 
0.475 -0.237 0.132 3 
0.477 -0.245 0.133 3 
0.477 -0.257 0.133 3 
0.479 -0.265 0.133 3 
0.483 -0.348 0.064 3 
0.47 -0.166 0.044 3 
0.479 -0.275 0.134 3 
0.274 0.111 0.024 3 
0.479 -0.285 0.134 3 
0.483 -0.315 0.142 3 
0.468 -0.036 0.133 3 
0.468 -0.047 0.133 3 
0.468 -0.055 0.133 3 
0.468 -0.066 0.133 3 
0.469 -0.077 0.134 3 
0.469 -0.096 0.134 3 
0.475 -0.204 0.137 3 
0.47 -0.166 0.094 3 
0.476 -0.211 0.137 3 
0.482 -0.307 0.141 3 
0.48 -0.295 0.134 3 
0.487 -0.347 0.144 3 
0.465 0.164 0.131 3 
0.478 -0.295 0.044 3 
0.469 -0.116 0.132 3 
0.471 -0.125 0.132 3 
0.479 -0.323 0.034 3 
0.473 -0.137 0.133 3 
0.471 -0.145 0.132 3 
0.471 -0.156 0.133 3 
0.467 -0.047 0.122 3 
0.459 0.183 0.122 3 
0.462 0.173 0.122 3 
0.463 0.163 0.122 3 
0.463 0.154 0.122 3 
0.463 0.132 0.122 3 
0.464 0.124 0.122 3 
0.427 0.04 0.114 3 
0.467 -0.033 0.122 3 
0.467 -0.036 0.122 3 
0.411 0.059 0.031 3 
0.468 -0.055 0.123 3 
0.468 -0.066 0.123 3 
0.469 -0.077 0.123 3 
0.47 -0.086 0.123 3 
0.47 -0.097 0.123 3 
0.475 -0.287 0.093 3 
0.469 -0.105 0.123 3 
0.471 -0.125 0.124 3 
0.471 -0.136 0.124 3 
0.471 -0.145 0.124 3 
0.462 0.062 0.124 3 
0.265 0.095 0.038 3 
0.484 -0.326 0.136 3 
0.273 0.083 0.082 3 
0.275 0.082 0.083 3 
0.462 0.137 0.124 3 
0.466 -0.066 0.023 3 
0.463 0.11 0.124 3 
0.463 0.102 0.124 3 
0.464 0.092 0.124 3 
0.464 0.084 0.124 3 
0.478 -0.275 0.163 3 
0.462 0.054 0.124 3 
0.481 -0.306 0.132 3 
0.482 -0.317 0.133 3 
0.484 -0.326 0.133 3 
0.474 -0.279 0.044 3 
0.485 -0.334 0.134 3 
0.485 -0.338 0.134 3 
0.485 -0.345 0.134 3 
0.484 -0.347 0.134 3 
0.463 0.203 0.142 3 
0.471 0.21 0.184 3 
0.324 0.034 0.022 3 
0.47 0.201 0.184 3 
0.469 0.191 0.183 3 
0.47 0.183 0.183 3 
0.469 0.174 0.183 3 
0.474 -0.17 0.17 3 
0.472 -0.137 0.144 3 
0.468 0.164 0.182 3 
0.468 0.153 0.182 3 
0.462 0.083 0.073 3 
0.469 0.133 0.181 3 
0.478 -0.277 0.122 3 
0.469 0.113 0.181 3 
0.471 0.103 0.182 3 
0.325 0.04 0.013 3 
0.47 0.092 0.181 3 
0.465 -0.039 0.004 3 
0.467 -0.077 0.034 3 
0.472 -0.042 0.182 3 
0.473 -0.045 0.182 3 
0.474 -0.09 0.186 3 
0.469 0.144 0.184 3 
0.47 0.117 0.184 3 
0.468 -0.107 0.134 3 
0.471 0.081 0.184 3 
0.471 0.072 0.184 3 
0.469 0.064 0.183 3 
0.468 0.052 0.183 3 
0.474 -0.043 0.186 3 
0.474 -0.084 0.186 3 
0.466 0.134 0.164 3 
0.468 -0.055 0.063 3 
0.474 -0.101 0.186 3 
0.479 -0.227 0.191 3 
0.48 -0.237 0.192 3 
0.479 -0.246 0.192 3 
0.479 -0.255 0.192 3 
0.467 -0.077 0.074 3 
0.481 -0.266 0.193 3 
0.286 0.114 0.109 3 
0.468 0.244 0.184 3 
0.469 0.224 0.184 3 
0.49 -0.317 0.193 3 
0.477 -0.145 0.182 3 
0.477 -0.157 0.183 3 
0.479 -0.355 0.013 3 
0.477 -0.166 0.183 3 
0.477 -0.177 0.183 3 
0.478 -0.187 0.184 3 
0.485 -0.289 0.19 3 
0.451 0.013 0.078 3 
0.474 -0.236 0.013 3 
0.488 -0.305 0.192 3 
0.477 -0.137 0.182 3 
0.489 -0.327 0.193 3 
0.472 -0.196 0.052 3 
0.49 -0.335 0.194 3 
0.255 0.092 0.094 3 
0.459 -0.056 0.089 3 
0.466 0.112 0.174 3 
0.466 0.104 0.174 3 
0.467 0.08 0.174 3 
0.467 0.071 0.174 3 
0.465 0.052 0.173 3 
0.475 -0.252 0.081 3 
0.475 -0.048 0.183 3 
0.473 -0.056 0.182 3 
0.473 -0.065 0.182 3 
0.475 -0.076 0.183 3 
0.476 -0.085 0.184 3 
0.465 0.232 0.163 3 
0.477 -0.097 0.184 3 
0.477 -0.105 0.184 3 
0.471 -0.167 0.102 3 
0.482 -0.276 0.191 3 
0.289 0.117 0.111 3 
0.483 -0.287 0.192 3 
0.464 0.103 0.168 3 
0.485 -0.296 0.193 3 
0.473 -0.205 0.044 3 
0.469 0.245 0.182 3 
0.468 0.232 0.181 3 
0.474 -0.076 0.18 3 
0.474 -0.087 0.18 3 
0.477 -0.116 0.182 3 
0.477 -0.125 0.182 3 
0.464 0.084 0.157 3 
0.47 0.163 0.189 3 
0.469 0.154 0.188 3 
0.47 0.142 0.188 3 
0.47 0.134 0.188 3 
0.456 0.063 0.112 3 
0.471 0.123 0.188 3 
0.473 0.073 0.188 3 
0.473 0.112 0.188 3 
0.472 0.103 0.188 3 
0.285 0.074 0.034 3 
0.473 0.093 0.188 3 
0.473 0.084 0.188 3 
0.471 0.064 0.187 3 
0.468 0.053 0.186 3 
0.486 -0.325 0.143 3 
0.468 0.173 0.174 3 
0.471 -0.045 0.187 3 
0.475 -0.048 0.189 3 
0.477 -0.057 0.189 3 
0.474 -0.207 0.148 3 
0.469 0.245 0.191 3 
0.244 0.091 0.094 3 
0.472 -0.117 0.143 3 
0.245 0.091 0.094 3 
0.247 0.091 0.095 3 
0.475 -0.28 0.012 3 
0.256 0.093 0.098 3 
0.261 0.095 0.1 3 
0.475 -0.255 0.052 3 
0.27 0.101 0.104 3 
0.276 0.106 0.107 3 
0.477 -0.066 0.189 3 
0.468 0.241 0.19 3 
0.47 0.234 0.191 3 
0.472 0.223 0.191 3 
0.469 -0.036 0.142 3 
0.472 0.214 0.191 3 
0.477 -0.298 0.023 3 
0.471 0.204 0.19 3 
0.471 0.192 0.19 3 
0.47 0.183 0.189 3 
0.469 0.174 0.188 3 
0.484 -0.275 0.198 3 
0.479 -0.206 0.193 3 
0.474 -0.127 0.172 3 
0.48 -0.216 0.194 3 
0.48 -0.225 0.195 3 
0.261 0.084 0.078 3 
0.44 -0.038 0.092 3 
0.479 -0.237 0.195 3 
0.479 -0.246 0.195 3 
0.481 -0.256 0.196 3 
0.482 -0.267 0.197 3 
0.252 0.099 0.054 3 
0.485 -0.279 0.198 3 
0.474 -0.198 0.142 3 
0.486 -0.287 0.199 3 
0.487 -0.298 0.2 3 
0.471 -0.178 0.052 3 
0.489 -0.306 0.201 3 
0.491 -0.315 0.203 3 
0.491 -0.326 0.203 3 
0.491 -0.337 0.204 3 
0.492 -0.341 0.205 3 
0.474 -0.037 0.154 3 
0.467 -0.126 0.012 3 
0.477 -0.077 0.19 3 
0.471 -0.045 0.153 3 
0.476 -0.085 0.189 3 
0.478 -0.097 0.19 3 
0.479 -0.106 0.191 3 
0.48 -0.115 0.191 3 
0.481 -0.356 0.052 3 
0.322 0.042 0.014 3 
0.481 -0.127 0.192 3 
0.456 0.048 0.17 3 
0.479 -0.135 0.191 3 
0.456 0.094 0.102 3 
0.481 -0.316 0.103 3 
0.479 -0.146 0.192 3 
0.48 -0.156 0.192 3 
0.48 -0.165 0.193 3 
0.466 -0.066 0.074 3 
0.479 -0.176 0.193 3 
0.48 -0.185 0.193 3 
0.481 -0.195 0.194 3 
0.472 -0.056 0.162 3 
0.265 0.094 0.093 3 
0.464 0.225 0.162 3 
0.466 0.224 0.163 3 
0.466 0.212 0.163 3 
0.466 0.203 0.163 3 
0.464 0.193 0.162 3 
0.464 0.184 0.161 3 
0.464 0.087 0.16 3 
0.471 -0.039 0.162 3 
0.471 -0.045 0.162 3 
0.484 -0.307 0.175 3 
0.473 -0.065 0.163 3 
0.472 -0.075 0.162 3 
0.462 -0.084 0.159 3 
0.471 -0.089 0.162 3 
0.471 -0.097 0.162 3 
0.471 -0.106 0.162 3 
0.472 -0.117 0.163 3 
0.473 -0.126 0.163 3 
0.473 -0.135 0.163 3 
0.474 -0.146 0.164 3 
0.465 0.095 0.163 3 
0.465 0.174 0.164 3 
0.465 0.162 0.164 3 
0.466 0.154 0.164 3 
0.309 0.09 0.026 3 
0.467 0.143 0.164 3 
0.466 0.123 0.163 3 
0.465 0.114 0.163 3 
0.477 -0.318 0.014 3 
0.464 0.111 0.163 3 
0.464 0.103 0.163 3 
0.483 -0.306 0.172 3 
0.465 0.093 0.163 3 
0.466 0.082 0.163 3 
0.466 0.074 0.163 3 
0.467 0.063 0.163 3 
0.466 0.052 0.163 3 
0.48 -0.267 0.172 3 
0.459 0.103 0.084 3 
0.481 -0.275 0.173 3 
0.482 -0.285 0.173 3 
0.483 -0.296 0.174 3 
0.464 0.052 0.154 3 
0.474 -0.257 0.044 3 
0.477 -0.227 0.164 3 
0.478 -0.237 0.164 3 
0.484 -0.317 0.169 3 
0.463 0.21 0.156 3 
0.478 -0.315 0.043 3 
0.464 0.111 0.154 3 
0.463 0.103 0.154 3 
0.465 0.057 0.154 3 
0.464 0.064 0.073 3 
0.476 -0.217 0.163 3 
0.479 -0.286 0.164 3 
0.474 -0.155 0.159 3 
0.474 -0.276 0.078 3 
0.475 -0.179 0.159 3 
0.474 -0.214 0.16 3 
0.47 -0.166 0.033 3 
0.477 -0.246 0.162 3 
0.477 -0.255 0.162 3 
0.299 0.054 0.059 3 
0.478 -0.265 0.162 3 
0.475 -0.167 0.162 3 
0.475 -0.237 0.103 3 
0.485 -0.318 0.173 3 
0.265 0.077 0.064 3 
0.486 -0.326 0.173 3 
0.487 -0.335 0.174 3 
0.27 0.095 0.094 3 
0.463 0.224 0.159 3 
0.464 0.202 0.159 3 
0.465 -0.047 0.004 3 
0.475 -0.156 0.162 3 
0.47 -0.116 0.123 3 
0.474 -0.175 0.162 3 
0.475 -0.185 0.162 3 
0.474 -0.19 0.162 3 
0.47 -0.105 0.104 3 
0.474 -0.257 0.052 3 
0.467 -0.036 0.044 3 
0.476 -0.197 0.163 3 
0.476 -0.206 0.163 3 
0.475 0.078 0.094 3 
0.336 0.033 0.025 3 
0.507 -0.071 0.11 3 
0.466 0.134 0.172 3 
0.476 -0.245 0.152 3 
0.466 0.123 0.172 3 
0.47 -0.097 0.143 3 
0.467 0.093 0.172 3 
0.467 0.063 0.172 3 
0.464 0.204 0.154 3 
0.473 -0.042 0.173 3 
0.473 -0.045 0.174 3 
0.467 0.143 0.172 3 
0.472 -0.056 0.173 3 
0.472 -0.067 0.173 3 
0.472 -0.075 0.173 3 
0.473 -0.087 0.174 3 
0.474 -0.096 0.174 3 
0.474 -0.121 0.175 3 
0.481 -0.275 0.182 3 
0.482 -0.286 0.182 3 
0.484 -0.298 0.184 3 
0.467 0.231 0.172 3 
0.48 -0.258 0.184 3 
0.473 -0.095 0.177 3 
0.479 -0.196 0.181 3 
0.319 0.037 0.024 3 
0.479 -0.206 0.182 3 
0.463 0.073 0.124 3 
0.476 -0.216 0.181 3 
0.47 -0.177 0.074 3 
0.477 -0.225 0.182 3 
0.478 -0.235 0.182 3 
0.479 -0.245 0.183 3 
0.46 -0.046 0.092 3 
0.48 -0.265 0.184 3 
0.476 0.25 0.179 3 
0.465 0.238 0.174 3 
0.474 -0.257 0.072 3 
0.468 0.199 0.174 3 
0.468 0.193 0.174 3 
0.468 0.181 0.174 3 
0.467 0.164 0.173 3 
0.336 0.046 0.042 3 
0.468 0.152 0.173 3 
0.475 -0.216 0.151 3 
0.464 0.109 0.165 3 
0.458 0.048 0.163 3 
0.474 -0.147 0.17 3 
0.476 -0.185 0.171 3 
0.466 -0.087 0.012 3 
0.477 -0.198 0.172 3 
0.476 -0.206 0.172 3 
0.464 -0.015 0.004 3 
0.475 -0.215 0.172 3 
0.474 -0.167 0.159 3 
0.275 0.102 0.099 3 
0.474 -0.217 0.172 3 
0.477 -0.228 0.173 3 
0.461 0.064 0.092 3 
0.478 -0.237 0.173 3 
0.478 -0.247 0.174 3 
0.472 -0.205 0.083 3 
0.478 -0.256 0.174 3 
0.488 -0.336 0.181 3 
0.464 0.234 0.165 3 
0.465 0.179 0.164 3 
0.475 -0.147 0.173 3 
0.468 0.223 0.172 3 
0.467 0.213 0.172 3 
0.306 0.063 0.065 3 
0.474 -0.107 0.172 3 
0.475 -0.11 0.172 3 
0.475 -0.116 0.172 3 
0.487 -0.337 0.143 3 
0.474 -0.121 0.172 3 
0.475 -0.13 0.173 3 
0.474 -0.135 0.172 3 
0.475 -0.228 0.112 3 
0.475 -0.156 0.173 3 
0.475 -0.167 0.173 3 
0.469 -0.096 0.052 3 
0.476 -0.177 0.174 3 
0.485 -0.302 0.181 3 
0.487 -0.307 0.182 3 
0.488 -0.318 0.183 3 
0.488 -0.325 0.183 3 
0.477 -0.295 0.064 3 
0.469 -0.115 0.044 3 
0.466 0.014 0.044 3 
0.466 0.003 0.044 3 
0.466 -0.007 0.044 3 
0.465 -0.015 0.044 3 
0.466 -0.025 0.044 3 
0.467 -0.047 0.044 3 
0.467 -0.066 0.044 3 
0.467 -0.077 0.044 3 
0.468 -0.085 0.044 3 
0.47 -0.096 0.044 3 
0.47 -0.105 0.044 3 
0.466 0.024 0.044 3 
0.469 -0.135 0.044 3 
0.471 -0.147 0.044 3 
0.299 0.09 0.029 3 
0.471 -0.155 0.044 3 
0.471 -0.175 0.044 3 
0.471 -0.187 0.044 3 
0.472 -0.196 0.044 3 
0.472 -0.216 0.044 3 
0.473 -0.226 0.044 3 
0.473 -0.235 0.044 3 
0.432 0.062 0.048 3 
0.449 0.066 0.05 3 
0.466 0.067 0.049 3 
0.465 0.059 0.05 3 
0.465 0.038 0.05 3 
0.475 -0.249 0.049 3 
0.255 0.095 0.054 3 
0.255 0.094 0.054 3 
0.333 0.034 0.024 3 
0.475 -0.246 0.044 3 
0.475 -0.277 0.047 3 
0.324 0.048 0.05 3 
0.468 0.06 0.044 3 
0.464 0.056 0.044 3 
0.466 0.054 0.044 3 
0.464 0.051 0.044 3 
0.464 0.043 0.044 3 
0.464 0.032 0.044 3 
0.465 0.03 0.044 3 
0.469 -0.107 0.033 3 
0.459 0.047 0.034 3 
0.467 0.043 0.033 3 
0.465 0.024 0.034 3 
0.465 0.014 0.034 3 
0.465 0.003 0.034 3 
0.465 -0.007 0.034 3 
0.465 -0.015 0.034 3 
0.466 -0.025 0.034 3 
0.466 -0.036 0.034 3 
0.466 -0.055 0.034 3 
0.468 -0.085 0.034 3 
0.469 -0.115 0.033 3 
0.469 -0.126 0.033 3 
0.469 -0.135 0.033 3 
0.47 -0.146 0.033 3 
0.471 -0.155 0.033 3 
0.47 -0.175 0.033 3 
0.47 -0.186 0.033 3 
0.471 -0.195 0.033 3 
0.471 -0.207 0.033 3 
0.474 -0.254 0.044 3 
0.474 -0.267 0.044 3 
0.475 -0.277 0.044 3 
0.478 -0.305 0.043 3 
0.479 -0.326 0.043 3 
0.48 -0.337 0.043 3 
0.48 -0.355 0.043 3 
0.465 0.035 0.042 3 
0.475 -0.243 0.041 3 
0.327 0.046 0.047 3 
0.475 -0.276 0.032 3 
0.45 0.051 0.04 3 
0.337 0.048 0.045 3 
0.479 -0.326 0.034 3 
0.479 -0.336 0.034 3 
0.479 -0.358 0.034 3 
0.327 0.045 0.044 3 
0.473 -0.266 0.064 3 
0.474 -0.276 0.064 3 
0.475 -0.28 0.064 3 
0.476 -0.287 0.064 3 
0.48 -0.307 0.064 3 
0.48 -0.317 0.064 3 
0.482 -0.329 0.064 3 
0.482 -0.336 0.064 3 
0.48 -0.355 0.064 3 
0.306 0.053 0.059 3 
0.429 0.093 0.06 3 
0.474 -0.257 0.064 3 
0.405 0.077 0.057 3 
0.464 0.024 0.058 3 
0.305 0.046 0.054 3 
0.465 0.073 0.055 3 
0.465 0.038 0.055 3 
0.475 -0.252 0.055 3 
0.475 -0.255 0.055 3 
0.471 -0.155 0.063 3 
0.468 -0.077 0.063 3 
0.271 0.094 0.034 3 
0.468 -0.085 0.063 3 
0.468 -0.096 0.063 3 
0.335 0.033 0.024 3 
0.468 -0.107 0.063 3 
0.469 -0.115 0.063 3 
0.481 -0.345 0.052 3 
0.469 -0.126 0.063 3 
0.47 -0.135 0.063 3 
0.471 -0.147 0.063 3 
0.257 0.105 0.046 3 
0.471 -0.166 0.063 3 
0.471 -0.175 0.063 3 
0.471 -0.187 0.063 3 
0.474 -0.206 0.064 3 
0.474 -0.215 0.064 3 
0.473 -0.226 0.064 3 
0.474 -0.236 0.064 3 
0.269 0.084 0.044 3 
0.474 -0.248 0.064 3 
0.481 -0.328 0.052 3 
0.472 -0.216 0.052 3 
0.472 -0.225 0.052 3 
0.473 -0.235 0.052 3 
0.474 -0.248 0.052 3 
0.473 -0.266 0.052 3 
0.473 -0.275 0.052 3 
0.475 -0.287 0.052 3 
0.477 -0.297 0.052 3 
0.478 -0.305 0.052 3 
0.478 -0.315 0.052 3 
0.472 -0.205 0.052 3 
0.481 -0.335 0.052 3 
0.255 0.095 0.055 3 
0.264 0.078 0.054 3 
0.265 0.077 0.054 3 
0.467 -0.036 0.052 3 
0.458 0.071 0.052 3 
0.462 0.064 0.052 3 
0.463 0.043 0.052 3 
0.464 0.032 0.052 3 
0.465 0.03 0.052 3 
0.465 0.024 0.052 3 
0.465 0.014 0.052 3 
0.466 0.003 0.052 3 
0.466 -0.007 0.052 3 
0.466 -0.015 0.052 3 
0.467 -0.025 0.052 3 
0.472 -0.217 0.033 3 
0.467 -0.047 0.052 3 
0.467 -0.055 0.052 3 
0.467 -0.066 0.052 3 
0.467 -0.085 0.052 3 
0.47 -0.105 0.052 3 
0.469 -0.115 0.052 3 
0.469 -0.126 0.052 3 
0.47 -0.135 0.052 3 
0.47 -0.166 0.052 3 
0.472 -0.187 0.052 3 
0.48 -0.356 0.004 3 
0.465 -0.076 0.012 3 
0.315 0.066 0.025 3 
0.467 -0.106 0.012 3 
0.466 -0.117 0.012 3 
0.467 -0.137 0.012 3 
0.307 0.049 0.034 3 
0.309 0.044 0.034 3 
0.465 -0.052 0.01 3 
0.48 -0.338 0.004 3 
0.465 -0.065 0.012 3 
0.299 0.058 0.034 3 
0.465 -0.015 0.007 3 
0.305 0.056 0.032 3 
0.364 0.037 0.022 3 
0.307 0.065 0.027 3 
0.465 -0.023 0.004 3 
0.465 -0.031 0.004 3 
0.464 -0.036 0.004 3 
0.467 -0.055 0.004 3 
0.275 0.076 0.04 3 
0.468 -0.165 0.014 3 
0.345 0.014 0.021 3 
0.469 -0.177 0.014 3 
0.469 -0.186 0.014 3 
0.469 -0.197 0.014 3 
0.471 -0.216 0.013 3 
0.474 -0.245 0.013 3 
0.473 -0.256 0.013 3 
0.474 -0.276 0.012 3 
0.475 -0.286 0.012 3 
0.481 -0.346 0.004 3 
0.468 -0.066 0.004 3 
0.338 0.039 0.031 3 
0.364 0.043 0.027 3 
0.464 -0.015 0.012 3 
0.464 -0.025 0.012 3 
0.463 -0.036 0.013 3 
0.464 -0.047 0.012 3 
0.464 -0.055 0.012 3 
0.465 -0.057 0.012 3 
0.324 0.08 0.021 3 
0.32 0.074 0.022 3 
0.314 0.052 0.024 3 
0.265 0.11 0.031 3 
0.292 0.103 0.024 3 
0.301 0.105 0.022 3 
0.325 0.082 0.021 3 
0.342 0.003 0.013 3 
0.294 0.105 0.023 3 
0.275 0.106 0.026 3 
0.282 0.103 0.024 3 
0.327 0.046 0.014 3 
0.278 0.105 0.024 3 
0.323 0.034 0.014 3 
0.271 0.115 0.023 3 
0.305 0.097 0.028 3 
0.468 -0.107 0.004 3 
0.468 -0.115 0.004 3 
0.283 0.092 0.034 3 
0.285 0.088 0.034 3 
0.284 0.078 0.034 3 
0.285 0.075 0.034 3 
0.332 0.034 0.026 3 
0.282 0.095 0.033 3 
0.286 0.096 0.033 3 
0.271 0.096 0.034 3 
0.295 0.099 0.03 3 
0.469 -0.157 0.014 3 
0.343 0.013 0.021 3 
0.264 0.108 0.034 3 
0.315 0.104 0.024 3 
0.315 0.063 0.025 3 
0.321 0.064 0.024 3 
0.264 0.104 0.034 3 
0.475 -0.27 0.024 3 
0.415 0.036 0.031 3 
0.44 0.037 0.028 3 
0.464 0.014 0.026 3 
0.472 -0.217 0.024 3 
0.472 -0.226 0.024 3 
0.473 -0.257 0.024 3 
0.475 -0.264 0.024 3 
0.474 -0.266 0.024 3 
0.464 0.024 0.028 3 
0.475 -0.276 0.024 3 
0.476 -0.287 0.023 3 
0.477 -0.307 0.023 3 
0.477 -0.317 0.023 3 
0.478 -0.325 0.023 3 
0.479 -0.337 0.022 3 
0.48 -0.345 0.022 3 
0.315 0.043 0.044 3 
0.472 -0.226 0.033 3 
0.473 -0.235 0.033 3 
0.474 -0.245 0.032 3 
0.475 -0.252 0.032 3 
0.474 -0.257 0.032 3 
0.474 -0.267 0.032 3 
0.475 -0.273 0.032 3 
0.476 -0.287 0.032 3 
0.477 -0.297 0.032 3 
0.477 -0.307 0.032 3 
0.31 0.043 0.044 3 
0.421 0.041 0.035 3 
0.448 0.041 0.032 3 
0.464 0.038 0.031 3 
0.265 0.085 0.047 3 
0.329 0.044 0.041 3 
0.416 0.063 0.033 3 
0.464 0.032 0.028 3 
0.464 -0.036 0.018 3 
0.47 -0.186 0.022 3 
0.47 -0.195 0.022 3 
0.471 -0.207 0.022 3 
0.474 -0.276 0.021 3 
0.259 0.104 0.044 3 
0.262 0.094 0.044 3 
0.265 0.089 0.044 3 
0.366 0.048 0.032 3 
0.258 0.106 0.044 3 
0.464 -0.028 0.018 3 
0.47 -0.175 0.022 3 
0.464 -0.047 0.018 3 
0.464 -0.055 0.018 3 
0.477 -0.298 0.014 3 
0.477 -0.308 0.014 3 
0.478 -0.325 0.014 3 
0.478 -0.336 0.014 3 
0.48 -0.345 0.013 3 
0.327 0.039 0.034 3 
0.472 -0.226 0.013 3 
0.468 -0.151 0.014 3 
0.465 -0.047 0.023 3 
0.456 0.034 0.024 3 
0.466 0.027 0.023 3 
0.463 0.024 0.023 3 
0.465 0.011 0.023 3 
0.303 0.104 0.024 3 
0.465 0.003 0.023 3 
0.466 -0.007 0.023 3 
0.466 -0.015 0.023 3 
0.465 -0.025 0.023 3 
0.466 -0.036 0.023 3 
0.316 0.043 0.045 3 
0.466 -0.055 0.023 3 
0.467 -0.076 0.023 3 
0.467 -0.095 0.023 3 
0.467 -0.106 0.023 3 
0.468 -0.115 0.023 3 
0.467 -0.126 0.023 3 
0.469 -0.138 0.022 3 
0.469 -0.146 0.022 3 
0.47 -0.155 0.022 3 
0.47 -0.166 0.022 3 
0.473 -0.22 0.094 3 
0.468 -0.115 0.093 3 
0.469 -0.127 0.093 3 
0.469 -0.135 0.093 3 
0.471 -0.147 0.094 3 
0.471 -0.155 0.094 3 
0.471 -0.175 0.094 3 
0.473 -0.188 0.094 3 
0.472 -0.196 0.094 3 
0.474 -0.206 0.094 3 
0.468 -0.107 0.093 3 
0.474 -0.245 0.095 3 
0.313 0.075 0.073 3 
0.459 0.103 0.089 3 
0.46 0.093 0.089 3 
0.461 0.083 0.089 3 
0.465 -0.03 0.09 3 
0.458 -0.066 0.089 3 
0.457 0.053 0.091 3 
0.454 -0.034 0.094 3 
0.453 -0.037 0.094 3 
0.428 -0.038 0.09 3 
0.306 0.074 0.074 3 
0.315 0.076 0.075 3 
0.467 -0.055 0.044 3 
0.471 0.08 0.093 3 
0.468 0.074 0.093 3 
0.482 -0.08 0.092 3 
0.469 0.076 0.052 3 
0.454 -0.05 0.091 3 
0.448 -0.069 0.091 3 
0.499 -0.088 0.097 3 
0.487 -0.09 0.095 3 
0.492 -0.095 0.096 3 
0.479 -0.358 0.022 3 
0.469 -0.093 0.093 3 
0.468 -0.096 0.093 3 
0.463 0.064 0.084 3 
0.466 -0.076 0.087 3 
0.475 -0.249 0.089 3 
0.472 -0.196 0.064 3 
0.477 -0.288 0.044 3 
0.459 0.109 0.084 3 
0.46 0.093 0.084 3 
0.461 0.083 0.084 3 
0.463 0.072 0.084 3 
0.465 -0.052 0.087 3 
0.463 0.053 0.084 3 
0.456 0.042 0.083 3 
0.464 -0.028 0.084 3 
0.465 -0.03 0.084 3 
0.464 -0.036 0.084 3 
0.465 -0.039 0.084 3 
0.465 -0.047 0.084 3 
0.465 -0.055 0.084 3 
0.466 -0.057 0.085 3 
0.317 0.106 0.022 3 
0.505 -0.092 0.094 3 
0.504 -0.095 0.094 3 
0.473 -0.226 0.092 3 
0.473 -0.235 0.092 3 
0.475 -0.255 0.092 3 
0.476 -0.265 0.092 3 
0.469 -0.126 0.044 3 
0.476 -0.275 0.093 3 
0.478 -0.299 0.093 3 
0.469 -0.034 0.096 3 
0.48 -0.308 0.093 3 
0.481 -0.315 0.094 3 
0.482 -0.327 0.094 3 
0.482 -0.337 0.094 3 
0.483 -0.348 0.094 3 
0.248 0.095 0.066 3 
0.467 -0.077 0.052 3 
0.465 -0.036 0.087 3 
0.469 -0.116 0.104 3 
0.453 0.086 0.101 3 
0.424 0.075 0.097 3 
0.472 -0.176 0.102 3 
0.499 -0.061 0.108 3 
0.497 -0.066 0.108 3 
0.469 -0.066 0.104 3 
0.471 -0.075 0.104 3 
0.471 -0.086 0.104 3 
0.471 -0.097 0.104 3 
0.47 -0.127 0.104 3 
0.47 -0.135 0.104 3 
0.472 -0.235 0.024 3 
0.474 -0.236 0.106 3 
0.29 0.074 0.076 3 
0.313 0.084 0.079 3 
0.453 0.099 0.099 3 
0.437 0.086 0.096 3 
0.347 0.037 0.028 3 
0.474 -0.245 0.024 3 
0.364 0.086 0.072 3 
0.471 -0.155 0.074 3 
0.306 0.044 0.047 3 
0.512 -0.06 0.113 3 
0.474 -0.227 0.109 3 
0.482 -0.327 0.112 3 
0.473 -0.247 0.083 3 
0.483 -0.335 0.112 3 
0.484 -0.347 0.113 3 
0.463 -0.03 0.092 3 
0.275 0.076 0.074 3 
0.478 0.159 0.105 3 
0.459 0.147 0.102 3 
0.46 0.144 0.103 3 
0.461 0.134 0.103 3 
0.462 0.123 0.103 3 
0.461 0.112 0.103 3 
0.459 0.103 0.102 3 
0.484 -0.347 0.103 3 
0.507 -0.09 0.104 3 
0.513 -0.095 0.104 3 
0.503 -0.095 0.103 3 
0.479 -0.094 0.1 3 
0.474 -0.236 0.1 3 
0.478 -0.296 0.102 3 
0.481 -0.306 0.102 3 
0.482 -0.327 0.103 3 
0.484 -0.339 0.103 3 
0.492 -0.083 0.102 3 
0.486 -0.351 0.104 3 
0.295 0.071 0.074 3 
0.456 0.126 0.094 3 
0.458 0.124 0.094 3 
0.474 -0.257 0.084 3 
0.46 0.114 0.094 3 
0.47 0.069 0.096 3 
0.454 0.062 0.094 3 
0.442 0.057 0.092 3 
0.474 -0.227 0.103 3 
0.472 -0.064 0.102 3 
0.478 -0.068 0.102 3 
0.471 -0.147 0.102 3 
0.472 -0.156 0.102 3 
0.474 -0.186 0.103 3 
0.473 -0.197 0.103 3 
0.473 -0.205 0.103 3 
0.473 -0.217 0.103 3 
0.467 -0.047 0.063 3 
0.476 -0.247 0.104 3 
0.476 -0.256 0.104 3 
0.476 -0.275 0.104 3 
0.477 -0.285 0.104 3 
0.485 -0.348 0.107 3 
0.273 0.074 0.072 3 
0.275 0.074 0.072 3 
0.286 0.074 0.074 3 
0.295 0.073 0.075 3 
0.468 -0.107 0.074 3 
0.464 -0.012 0.074 3 
0.465 -0.015 0.074 3 
0.465 -0.025 0.074 3 
0.466 -0.036 0.074 3 
0.467 -0.047 0.074 3 
0.467 -0.055 0.074 3 
0.468 -0.085 0.074 3 
0.468 -0.096 0.074 3 
0.342 0.003 0.021 3 
0.465 -0.007 0.074 3 
0.468 -0.115 0.074 3 
0.47 -0.127 0.074 3 
0.471 -0.135 0.074 3 
0.471 -0.147 0.074 3 
0.47 -0.166 0.074 3 
0.464 0.032 0.063 3 
0.464 0.043 0.063 3 
0.464 0.054 0.063 3 
0.463 0.064 0.063 3 
0.463 0.072 0.073 3 
0.459 0.024 0.076 3 
0.464 -0.006 0.076 3 
0.481 -0.318 0.073 3 
0.465 0.014 0.063 3 
0.462 0.099 0.073 3 
0.462 0.094 0.073 3 
0.463 0.072 0.063 3 
0.464 0.054 0.073 3 
0.464 0.043 0.073 3 
0.462 0.032 0.073 3 
0.481 -0.349 0.043 3 
0.462 0.024 0.073 3 
0.463 0.014 0.073 3 
0.463 0.003 0.074 3 
0.465 0 0.074 3 
0.305 0.055 0.061 3 
0.478 -0.299 0.073 3 
0.48 -0.308 0.073 3 
0.456 0.086 0.063 3 
0.448 0.094 0.062 3 
0.481 -0.328 0.073 3 
0.481 -0.335 0.073 3 
0.482 -0.346 0.073 3 
0.481 -0.356 0.073 3 
0.451 0.106 0.068 3 
0.476 -0.287 0.072 3 
0.43 0.098 0.065 3 
0.436 0.093 0.062 3 
0.428 0.095 0.064 3 
0.432 0.094 0.065 3 
0.44 0.094 0.065 3 
0.473 0.094 0.066 3 
0.437 0.095 0.062 3 
0.451 0.103 0.063 3 
0.473 -0.217 0.072 3 
0.461 0.082 0.063 3 
0.473 0.119 0.071 3 
0.459 0.111 0.071 3 
0.465 0.067 0.071 3 
0.465 0.006 0.071 3 
0.471 -0.187 0.072 3 
0.473 -0.196 0.072 3 
0.474 -0.206 0.072 3 
0.465 0.024 0.063 3 
0.473 -0.226 0.072 3 
0.474 -0.236 0.072 3 
0.474 -0.245 0.072 3 
0.475 -0.252 0.072 3 
0.474 -0.267 0.072 3 
0.475 -0.274 0.072 3 
0.474 -0.276 0.072 3 
0.476 -0.284 0.072 3 
0.47 -0.146 0.083 3 
0.47 -0.155 0.083 3 
0.464 -0.02 0.036 3 
0.47 -0.166 0.083 3 
0.471 -0.175 0.083 3 
0.471 -0.187 0.083 3 
0.472 -0.196 0.083 3 
0.47 -0.135 0.082 3 
0.472 -0.225 0.083 3 
0.466 -0.036 0.063 3 
0.473 -0.238 0.083 3 
0.475 -0.264 0.084 3 
0.475 -0.268 0.084 3 
0.475 -0.277 0.084 3 
0.475 -0.287 0.084 3 
0.475 -0.296 0.084 3 
0.466 -0.074 0.085 3 
0.474 -0.257 0.086 3 
0.249 0.096 0.064 3 
0.249 0.094 0.064 3 
0.32 0.074 0.07 3 
0.465 -0.065 0.084 3 
0.324 0.075 0.07 3 
0.472 -0.216 0.083 3 
0.467 -0.077 0.082 3 
0.468 -0.085 0.082 3 
0.469 -0.096 0.082 3 
0.469 -0.107 0.082 3 
0.469 -0.116 0.082 3 
0.469 -0.127 0.082 3 
0.468 -0.066 0.063 3 
0.474 -0.267 0.081 3 
0.456 0.008 0.078 3 
0.467 -0.025 0.063 3 
0.464 0.003 0.079 3 
0.474 0.001 0.08 3 
0.466 -0.015 0.063 3 
0.474 -0.015 0.08 3 
0.479 -0.307 0.084 3 
0.48 -0.318 0.082 3 
0.482 -0.326 0.082 3 
0.483 -0.337 0.082 3 
0.465 -0.007 0.063 3 
0.465 0.003 0.063 3 
0.482 -0.347 0.082 3 
0.483 -0.355 0.082 3 
0.267 0.074 0.064 3 
0.454 0.026 0.078 3 
0.453 0.023 0.078 3 
0.464 -0.025 0.004 3 
0.459 0.034 0.078 3 
0.255 0.086 0.064 3 
0.256 0.084 0.064 3 
0.535 -0.031 0.101 3 
0.54 -0.022 0.088 3 
0.523 -0.024 0.09 3 
0.532 -0.028 0.1 3 
0.547 -0.029 0.095 3 
0.375 -0.023 0.091 3 
0.328 0.025 0.105 3 
0.343 0.04 0.084 3 
0.338 0.034 0.084 3 
0.329 0.035 0.085 3 
0.291 -0.001 0.11 3 
0.279 0.004 0.105 3 
0.314 0.015 0.08 3 
0.333 0.034 0.086 3 
0.335 0 0.085 3 
0.284 0.014 0.108 3 
0.349 -0.012 0.089 3 
0.333 -0.012 0.086 3 
0.314 -0.008 0.081 3 
0.329 0.037 0.084 3 
0.323 0.034 0.083 3 
0.308 0.022 0.102 3 
0.354 0.044 0.088 3 
0.314 0.031 0.081 3 
0.316 -0.012 0.082 3 
0.375 0.051 0.091 3 
0.329 0.023 0.084 3 
0.32 0.004 0.084 3 
0.356 0.036 0.09 3 
0.338 0.034 0.087 3 
0.332 -0.008 0.084 3 
0.307 0.023 0.117 3 
0.335 -0.017 0.085 3 
0.294 0.02 0.112 3 
0.325 0.026 0.083 3 
0.296 0.02 0.104 3 
0.327 0.02 0.091 3 
0.338 0.023 0.079 3 
0.346 0 0.08 3 
0.286 0.014 0.106 3 
0.281 0.008 0.104 3 
0.345 0.034 0.083 3 
0.299 0.013 0.094 3 
0.298 0.004 0.094 3 
0.282 0.004 0.103 3 
0.318 0.022 0.09 3 
0.316 -0.003 0.098 3 
0.296 -0.004 0.104 3 
0.338 0.011 0.074 3 
0.287 0.017 0.104 3 
0.287 0.014 0.104 3 
0.285 0.003 0.104 3 
0.315 -0.003 0.094 3 
0.307 0.014 0.092 3 
0.341 0.009 0.075 3 
0.307 0.019 0.094 3 
0.305 0.001 0.094 3 
0.365 0.014 0.073 3 
0.295 -0.001 0.105 3 
0.346 0.013 0.074 3 
0.348 0.041 0.084 3 
0.341 -0.008 0.084 3 
0.336 -0.016 0.083 3 
0.348 -0.018 0.085 3 
0.295 0.008 0.099 3 
0.319 0.023 0.104 3 
0.314 0.011 0.084 3 
0.316 0.013 0.084 3 
0.315 0.015 0.084 3 
0.305 -0.001 0.1 3 
0.302 0.017 0.094 3 
0.331 -0.003 0.088 3 
0.332 0.002 0.083 3 
0.356 0.032 0.085 3 
0.338 0 0.082 3 
0.354 -0.011 0.084 3 
0.349 -0.015 0.084 3 
0.355 -0.019 0.085 3 
0.315 0.013 0.087 3 
0.295 0.021 0.111 3 
0.358 0.043 0.083 3 
0.328 0.006 0.079 3 
0.356 -0.009 0.083 3 
0.358 -0.019 0.083 3 
0.295 0.055 0.047 7 
0.294 0.054 0.056 7 
0.292 0.064 0.034 7 
0.275 0.065 0.054 7 
0.276 0.064 0.054 7 
0.285 0.06 0.054 7 
0.294 0.054 0.054 7 
0.295 0.053 0.054 7 
0.285 0.065 0.039 7 
0.285 0.06 0.044 7 
0.273 0.072 0.044 7 
0.279 0.064 0.044 7 
0.295 0.055 0.044 7 
0.296 0.054 0.044 7 
0.28 0.064 0.064 7 
0.285 0.063 0.064 7 
0.296 0.06 0.063 7 
0.275 0.068 0.064 7 
0.275 0.069 0.044 7 
0.295 0.062 0.067 7 
0.286 0.064 0.066 7 
0.284 0.064 0.066 7 
