# .PCD v0.7 - Point Cloud Data file
FIELDS x y z intensity
SIZE 4 4 4 4
TYPE F F F F
COUNT 1 1 1 1
WIDTH 1979
HEIGHT 1
VIEWPOINT 0 0 0 1 0 0 0
POINTS 1979
DATA ascii
0.351 -0.002 0.004 0 
0.384 -0.255 -0.03 1 
0.384 -0.247 -0.03 1 
0.376 -0.214 -0.025 1 
0.372 -0.195 -0.023 1 
0.37 -0.185 -0.022 1 
0.364 -0.157 -0.018 1 
0.364 -0.136 -0.018 1 
0.364 -0.13 -0.018 1 
0.363 -0.065 -0.016 1 
0.36 -0.057 -0.015 1 
0.363 -0.045 -0.016 1 
0.362 -0.036 -0.015 1 
0.358 -0.025 -0.014 1 
0.323 0.014 -0.001 1 
0.324 0.023 -0.001 1 
0.331 0.064 -0.005 1 
0.322 0.084 -0.002 1 
0.304 0.098 0.003 1 
0.274 0.094 0.014 1 
0.271 0.114 0.014 1 
0.299 0.154 0.002 1 
0.381 -0.217 -0.025 1 
0.374 -0.178 -0.021 1 
0.371 -0.146 -0.019 1 
0.371 -0.136 -0.018 1 
0.374 -0.128 -0.019 1 
0.371 -0.115 -0.018 1 
0.37 -0.107 -0.017 1 
0.364 -0.085 -0.015 1 
0.364 -0.056 -0.014 1 
0.362 -0.052 -0.014 1 
0.364 -0.028 -0.015 1 
0.354 -0.002 -0.011 1 
0.334 0.033 -0.004 1 
0.288 0.133 0.009 1 
0.392 -0.256 -0.028 1 
0.387 -0.223 -0.025 1 
0.382 -0.205 -0.023 1 
0.373 -0.095 -0.016 1 
0.369 -0.085 -0.015 1 
0.373 -0.055 -0.016 1 
0.374 -0.046 -0.016 1 
0.373 -0.029 -0.016 1 
0.341 0.063 -0.005 1 
0.332 0.072 -0.002 1 
0.309 0.098 0.004 1 
0.287 0.14 0.009 1 
0.402 -0.276 -0.03 1 
0.392 -0.23 -0.025 1 
0.384 -0.195 -0.021 1 
0.382 -0.165 -0.019 1 
0.383 -0.155 -0.019 1 
0.38 -0.116 -0.017 1 
0.38 -0.076 -0.016 1 
0.375 -0.035 -0.014 1 
0.373 -0.025 -0.014 1 
0.37 -0.016 -0.013 1 
0.342 0.041 -0.003 1 
0.341 0.046 -0.003 1 
0.344 0.063 -0.004 1 
0.299 0.095 0.009 1 
0.271 0.121 0.017 1 
0.403 -0.257 -0.027 1 
0.394 -0.225 -0.023 1 
0.394 -0.217 -0.023 1 
0.39 -0.205 -0.021 1 
0.384 -0.106 -0.016 1 
0.382 -0.097 -0.015 1 
0.384 -0.093 -0.016 1 
0.383 -0.073 -0.016 1 
0.383 -0.055 -0.015 1 
0.382 -0.045 -0.015 1 
0.384 -0.028 -0.016 1 
0.363 -0.001 -0.009 1 
0.352 0.044 -0.005 1 
0.352 0.054 -0.005 1 
0.35 0.063 -0.005 1 
0.343 0.074 -0.003 1 
0.344 0.084 -0.003 1 
0.412 -0.287 -0.029 1 
0.41 -0.276 -0.028 1 
0.405 -0.246 -0.025 1 
0.405 -0.243 -0.025 1 
0.404 -0.237 -0.024 1 
0.402 -0.227 -0.023 1 
0.394 -0.197 -0.02 1 
0.394 -0.178 -0.019 1 
0.394 -0.167 -0.019 1 
0.381 -0.188 -0.02 1 
0.391 -0.147 -0.017 1 
0.393 -0.138 -0.018 1 
0.393 -0.125 -0.018 1 
0.393 -0.116 -0.017 1 
0.39 -0.106 -0.016 1 
0.394 -0.085 -0.017 1 
0.387 -0.066 -0.015 1 
0.388 -0.045 -0.015 1 
0.388 -0.029 -0.015 1 
0.382 -0.026 -0.013 1 
0.378 -0.016 -0.012 1 
0.376 -0.007 -0.011 1 
0.373 -0.001 -0.01 1 
0.355 0 -0.004 1 
0.337 0.023 0.001 1 
0.353 0.035 -0.004 1 
0.355 0.065 -0.005 1 
0.323 0.096 0.004 1 
0.294 0.092 0.013 1 
0.413 -0.265 -0.026 1 
0.411 -0.255 -0.025 1 
0.401 -0.205 -0.02 1 
0.4 -0.195 -0.019 1 
0.397 -0.185 -0.018 1 
0.398 -0.147 -0.018 1 
0.394 -0.102 -0.015 1 
0.394 -0.075 -0.015 1 
0.392 -0.066 -0.014 1 
0.394 -0.062 -0.015 1 
0.389 -0.015 -0.013 1 
0.379 -0.001 -0.01 1 
0.334 0.004 0.003 1 
0.331 0.009 0.004 1 
0.331 0.024 0.004 1 
0.363 0.044 -0.005 1 
0.364 0.046 -0.006 1 
0.362 0.064 -0.005 1 
0.359 0.064 -0.004 1 
0.353 0.074 -0.003 1 
0.326 0.097 0.004 1 
0.333 0.044 -0.003 1 
0.313 0.095 0.009 1 
0.423 -0.3 -0.028 1 
0.344 -0.001 -0.006 1 
0.419 -0.266 -0.025 1 
0.418 -0.259 -0.025 1 
0.414 -0.239 -0.023 1 
0.413 -0.227 -0.022 1 
0.404 -0.165 -0.018 1 
0.404 -0.163 -0.018 1 
0.404 -0.135 -0.017 1 
0.403 -0.126 -0.016 1 
0.404 -0.12 -0.017 1 
0.401 -0.105 -0.016 1 
0.4 -0.077 -0.015 1 
0.399 -0.072 -0.015 1 
0.398 -0.066 -0.014 1 
0.404 -0.059 -0.016 1 
0.403 -0.046 -0.016 1 
0.404 -0.041 -0.016 1 
0.399 -0.022 -0.015 1 
0.388 -0.003 -0.011 1 
0.34 0.03 0.003 1 
0.348 0.033 0 1 
0.364 0.041 -0.004 1 
0.369 0.044 -0.005 1 
0.361 0.074 -0.003 1 
0.424 -0.294 -0.026 1 
0.425 -0.275 -0.025 1 
0.425 -0.272 -0.025 1 
0.424 -0.268 -0.024 1 
0.421 -0.256 -0.023 1 
0.412 -0.135 -0.017 1 
0.392 -0.245 -0.028 1 
0.412 -0.117 -0.017 1 
0.41 -0.105 -0.016 1 
0.41 -0.087 -0.016 1 
0.409 -0.075 -0.015 1 
0.41 -0.045 -0.016 1 
0.412 -0.036 -0.016 1 
0.409 -0.025 -0.015 1 
0.403 -0.016 -0.014 1 
0.371 -0.003 -0.004 1 
0.337 0.032 0.005 1 
0.374 0.045 -0.005 1 
0.373 0.063 -0.005 1 
0.364 0.082 -0.003 1 
0.359 0.093 -0.001 1 
0.338 0.092 0.004 1 
0.304 0.093 0.014 1 
0.431 -0.305 -0.025 1 
0.431 -0.296 -0.025 1 
0.431 -0.293 -0.025 1 
0.43 -0.286 -0.024 1 
0.424 -0.248 -0.021 1 
0.421 -0.235 -0.02 1 
0.419 -0.225 -0.019 1 
0.412 -0.185 -0.016 1 
0.414 -0.169 -0.016 1 
0.414 -0.155 -0.016 1 
0.414 -0.148 -0.016 1 
0.414 -0.097 -0.015 1 
0.415 -0.095 -0.015 1 
0.415 -0.086 -0.015 1 
0.413 -0.067 -0.014 1 
0.414 -0.066 -0.015 1 
0.414 -0.061 -0.015 1 
0.413 -0.025 -0.014 1 
0.379 0.065 -0.005 1 
0.374 0.073 -0.004 1 
0.372 0.084 -0.003 1 
0.318 0.095 0.011 1 
0.434 -0.306 -0.024 1 
0.434 -0.278 -0.022 1 
0.423 -0.216 -0.017 1 
0.421 -0.196 -0.016 1 
0.42 -0.156 -0.015 1 
0.421 -0.145 -0.015 1 
0.423 -0.127 -0.016 1 
0.42 -0.111 -0.015 1 
0.419 -0.106 -0.014 1 
0.42 -0.095 -0.014 1 
0.421 -0.081 -0.014 1 
0.423 -0.077 -0.015 1 
0.422 -0.072 -0.015 1 
0.419 -0.055 -0.014 1 
0.42 -0.049 -0.014 1 
0.423 -0.033 -0.015 1 
0.333 0.004 0.01 1 
0.39 0.054 -0.006 1 
0.383 0.074 -0.004 1 
0.379 0.083 -0.003 1 
0.372 0.093 -0.001 1 
0.351 0.096 0.003 1 
0.433 -0.257 -0.019 1 
0.432 -0.247 -0.018 1 
0.431 -0.225 -0.017 1 
0.429 -0.216 -0.017 1 
0.429 -0.208 -0.016 1 
0.425 -0.189 -0.015 1 
0.424 -0.184 -0.015 1 
0.424 -0.178 -0.014 1 
0.404 -0.247 -0.025 1 
0.427 -0.163 -0.015 1 
0.428 -0.146 -0.015 1 
0.428 -0.132 -0.015 1 
0.431 -0.111 -0.015 1 
0.431 -0.104 -0.015 1 
0.428 -0.076 -0.014 1 
0.43 -0.07 -0.015 1 
0.43 -0.046 -0.014 1 
0.424 -0.027 -0.013 1 
0.442 -0.009 -0.018 1 
0.339 0.003 0.009 1 
0.394 0.062 -0.005 1 
0.398 -0.241 -0.025 1 
0.394 0.07 -0.005 1 
0.39 0.073 -0.004 1 
0.361 0.099 0.002 1 
0.444 -0.301 -0.02 1 
0.429 -0.187 -0.014 1 
0.431 -0.176 -0.014 1 
0.431 -0.155 -0.013 1 
0.431 -0.145 -0.013 1 
0.433 -0.137 -0.014 1 
0.434 -0.127 -0.014 1 
0.432 -0.116 -0.013 1 
0.431 -0.106 -0.013 1 
0.431 -0.096 -0.013 1 
0.434 -0.085 -0.013 1 
0.434 -0.066 -0.013 1 
0.437 -0.045 -0.014 1 
0.4 0.072 -0.005 1 
0.401 -0.215 -0.02 1 
0.394 0.084 -0.003 1 
0.367 0.1 0.003 1 
0.322 0.094 0 1 
0.444 -0.276 -0.017 1 
0.442 -0.256 -0.016 1 
0.443 -0.237 -0.015 1 
0.441 -0.225 -0.015 1 
0.441 -0.217 -0.015 1 
0.442 -0.21 -0.015 1 
0.443 -0.189 -0.015 1 
0.442 -0.186 -0.014 1 
0.443 -0.181 -0.014 1 
0.444 -0.176 -0.015 1 
0.444 -0.171 -0.015 1 
0.444 -0.166 -0.014 1 
0.441 -0.156 -0.014 1 
0.44 -0.115 -0.013 1 
0.443 -0.086 -0.013 1 
0.443 -0.056 -0.013 1 
0.4 0.063 -0.005 1 
0.439 -0.035 -0.012 1 
0.453 -0.009 -0.016 1 
0.455 -0.007 -0.016 1 
0.332 0.015 0.014 1 
0.403 0.064 -0.003 1 
0.408 0.068 -0.005 1 
0.399 0.084 -0.003 1 
0.454 -0.321 -0.018 1 
0.452 -0.296 -0.017 1 
0.45 -0.288 -0.016 1 
0.444 -0.255 -0.014 1 
0.444 -0.145 -0.012 1 
0.444 -0.137 -0.011 1 
0.443 -0.106 -0.011 1 
0.444 -0.096 -0.011 1 
0.444 -0.076 -0.011 1 
0.444 -0.068 -0.011 1 
0.443 -0.031 -0.011 1 
0.454 -0.009 -0.013 1 
0.452 -0.004 -0.013 1 
0.34 0.012 0.014 1 
0.386 0.102 0.002 1 
0.376 0.099 0.004 1 
0.458 -0.306 -0.016 1 
0.455 -0.296 -0.015 1 
0.452 -0.275 -0.013 1 
0.454 -0.258 -0.013 1 
0.454 -0.25 -0.013 1 
0.452 -0.239 -0.012 1 
0.449 -0.228 -0.011 1 
0.451 -0.216 -0.012 1 
0.453 -0.207 -0.012 1 
0.451 -0.197 -0.012 1 
0.453 -0.185 -0.012 1 
0.453 -0.176 -0.012 1 
0.451 -0.156 -0.011 1 
0.449 -0.145 -0.01 1 
0.452 -0.125 -0.011 1 
0.452 -0.096 -0.01 1 
0.441 -0.206 -0.014 1 
0.454 -0.086 -0.011 1 
0.473 -0.004 -0.015 1 
0.373 -0.005 -0.01 1 
0.372 0.011 0.008 1 
0.412 0.073 -0.001 1 
0.381 0.097 0.005 1 
0.368 0.093 0.008 1 
0.464 -0.346 -0.016 1 
0.466 -0.338 -0.016 1 
0.464 -0.315 -0.014 1 
0.463 -0.308 -0.014 1 
0.462 -0.297 -0.013 1 
0.46 -0.285 -0.013 1 
0.46 -0.267 -0.012 1 
0.454 -0.118 -0.008 1 
0.454 -0.107 -0.008 1 
0.454 -0.06 -0.008 1 
0.357 -0.001 0.013 1 
0.363 -0.006 -0.011 1 
0.414 -0.218 -0.02 1 
0.358 0.012 0.013 1 
0.359 0.017 0.013 1 
0.406 0.084 0.001 1 
0.398 0.088 0.003 1 
0.378 0.094 0.007 1 
0.464 -0.264 -0.01 1 
0.463 -0.251 -0.01 1 
0.464 -0.226 -0.01 1 
0.462 -0.216 -0.009 1 
0.461 -0.198 -0.008 1 
0.382 -0.146 -0.019 1 
0.461 -0.086 -0.007 1 
0.403 -0.095 -0.016 1 
0.472 -0.355 -0.012 1 
0.474 -0.346 -0.012 1 
0.474 -0.343 -0.012 1 
0.474 -0.326 -0.011 1 
0.364 -0.081 -0.015 1 
0.474 -0.315 -0.011 1 
0.454 -0.048 -0.011 1 
0.473 -0.308 -0.01 1 
0.473 -0.285 -0.01 1 
0.473 -0.279 -0.01 1 
0.47 -0.245 -0.008 1 
0.465 -0.192 -0.006 1 
0.464 -0.186 -0.006 1 
0.464 -0.166 -0.006 1 
0.464 -0.158 -0.006 1 
0.464 -0.147 -0.006 1 
0.464 -0.136 -0.006 1 
0.464 -0.127 -0.005 1 
0.465 -0.125 -0.006 1 
0.466 -0.117 -0.006 1 
0.466 -0.106 -0.006 1 
0.468 -0.096 -0.006 1 
0.466 -0.085 -0.006 1 
0.464 -0.076 -0.005 1 
0.381 -0.236 -0.028 1 
0.463 -0.057 -0.005 1 
0.464 -0.047 -0.005 1 
0.461 -0.036 -0.005 1 
0.462 -0.025 -0.005 1 
0.428 -0.122 -0.015 1 
0.468 -0.015 -0.006 1 
0.473 -0.004 -0.007 1 
0.474 -0.267 -0.007 1 
0.412 -0.177 -0.016 1 
0.477 -0.257 -0.007 1 
0.475 -0.246 -0.006 1 
0.473 -0.235 -0.006 1 
0.471 -0.228 -0.005 1 
0.469 -0.218 -0.005 1 
0.47 -0.207 -0.005 1 
0.469 -0.198 -0.005 1 
0.463 -0.076 -0.002 1 
0.463 -0.065 -0.002 1 
0.464 -0.057 -0.002 1 
0.463 -0.046 -0.002 1 
0.479 -0.355 -0.007 1 
0.482 -0.337 -0.007 1 
0.48 -0.325 -0.006 1 
0.481 -0.316 -0.006 1 
0.478 -0.296 -0.005 1 
0.478 -0.286 -0.005 1 
0.438 -0.001 0.004 1 
0.397 0.004 0.012 1 
0.391 -0.005 -0.012 1 
0.388 0.014 0.014 1 
0.464 -0.177 -0.006 1 
0.374 -0.078 -0.016 1 
0.484 -0.35 -0.005 1 
0.485 -0.344 -0.005 1 
0.474 -0.207 0 1 
0.412 -0.126 -0.017 1 
0.466 -0.009 0.001 1 
0.461 -0.001 0.002 1 
0.408 0.004 0.012 1 
0.405 -0.007 -0.012 1 
0.406 0.011 0.013 1 
0.401 -0.005 -0.013 1 
0.399 0.013 0.014 1 
0.371 -0.036 -0.015 1 
0.476 -0.24 0.001 1 
0.472 -0.196 0.002 1 
0.471 -0.187 0.003 1 
0.47 -0.175 0.003 1 
0.472 -0.165 0.003 1 
0.472 -0.156 0.003 1 
0.472 -0.148 0.003 1 
0.374 -0.208 -0.024 1 
0.469 -0.135 0.003 1 
0.465 0.003 0.004 1 
0.482 -0.316 0.002 1 
0.479 -0.307 0.002 1 
0.351 0.003 0.009 1 
0.474 -0.236 0.004 1 
0.473 -0.227 0.004 1 
0.474 -0.221 0.004 1 
0.475 -0.216 0.004 1 
0.441 -0.014 -0.013 1 
0.443 0.01 0.011 1 
0.487 -0.339 0.003 1 
0.485 -0.33 0.004 1 
0.42 -0.085 -0.014 1 
0.484 -0.325 0.004 1 
0.451 0.016 0.012 1 
0.486 -0.327 0.007 1 
0.486 -0.324 0.007 1 
0.463 -0.007 0.013 1 
0.463 0 0.013 1 
0.466 0.003 0.012 1 
0.459 -0.009 -0.009 1 
0.461 0.008 0.013 1 
0.454 -0.068 -0.008 1 
0.349 0.013 0.015 1 
0.406 -0.018 -0.015 1 
0.428 -0.136 -0.015 1 
0.443 -0.266 -0.016 1 
0.443 -0.319 -0.021 1 
0.404 -0.085 -0.016 1 
0.488 -0.347 0.003 1 
0.448 -0.136 -0.01 1 
0.443 -0.246 -0.016 1 
0.469 -0.127 0.003 1 
0.388 0.094 0.003 1 
0.404 0.071 -0.004 1 
0.334 0 -0.005 1 
0.288 0.095 0.01 1 
0.344 0.066 -0.005 1 
0.354 0.084 -0.003 1 
0.379 -0.066 -0.014 1 
0.39 0.024 0.013 1 
0.424 -0.024 -0.013 1 
0.393 -0.236 -0.025 1 
0.333 0.064 -0.004 1 
0.412 -0.017 -0.014 1 
0.33 0.026 0.006 1 
0.424 -0.207 -0.018 1 
0.451 -0.305 -0.02 1 
0.431 0.014 0.013 1 
0.413 -0.195 -0.019 1 
0.475 -0.277 -0.007 1 
0.384 -0.038 -0.016 1 
0.447 -0.276 -0.015 1 
0.37 -0.065 -0.015 1 
0.461 -0.325 -0.017 1 
0.479 -0.255 0.003 1 
0.424 -0.036 -0.015 1 
0.444 -0.195 -0.015 1 
0.348 -0.006 -0.01 1 
0.346 0.011 0.012 1 
0.454 -0.019 -0.011 1 
0.464 -0.122 -0.005 1 
0.382 -0.127 -0.018 1 
0.475 -0.225 0.001 1 
0.41 -0.245 -0.024 1 
0.429 -0.167 -0.016 1 
0.431 -0.235 -0.017 1 
0.472 -0.007 -0.007 1 
0.468 0.014 0.012 1 
0.431 -0.266 -0.021 1 
0.335 0.009 0.001 1 
0.462 -0.065 -0.005 1 
0.368 0.02 0.014 1 
0.3 0.155 0.003 1 
0.473 -0.298 -0.01 1 
0.433 -0.035 -0.013 1 
0.423 -0.045 -0.015 1 
0.452 -0.266 -0.013 1 
0.347 0.094 0.003 1 
0.424 -0.166 -0.017 1 
0.464 -0.02 -0.005 1 
0.485 -0.348 -0.005 1 
0.335 0.041 0.013 1 
0.479 -0.307 -0.006 1 
0.328 0.014 0.014 1 
0.462 -0.337 -0.015 1 
0.422 -0.136 -0.015 1 
0.453 -0.027 -0.011 1 
0.442 -0.286 -0.019 1 
0.404 -0.179 -0.018 1 
0.452 -0.037 -0.01 1 
0.394 -0.042 -0.015 1 
0.454 -0.286 -0.014 1 
0.425 -0.177 -0.015 1 
0.444 -0.021 -0.011 1 
0.463 -0.105 -0.008 1 
0.393 -0.157 -0.018 1 
0.464 -0.007 0.004 1 
0.363 -0.096 -0.016 1 
0.38 -0.176 -0.019 1 
0.465 -0.155 -0.006 1 
0.433 -0.016 -0.023 1 
0.383 -0.228 -0.026 1 
0.461 -0.319 -0.017 1 
0.451 -0.075 -0.01 1 
0.374 -0.064 -0.014 1 
0.414 -0.206 -0.019 1 
0.317 0.031 0.014 1 
0.432 -0.025 -0.013 1 
0.424 -0.186 -0.015 1 
0.363 -0.015 -0.012 1 
0.444 -0.127 -0.011 1 
0.402 -0.27 -0.028 1 
0.442 -0.314 -0.021 1 
0.368 0.042 -0.003 1 
0.428 -0.055 -0.014 1 
0.331 0.094 0 1 
0.374 -0.157 -0.02 1 
0.447 -0.273 -0.015 1 
0.282 0.093 0.014 1 
0.384 0.053 -0.006 1 
0.331 0.084 -0.002 1 
0.405 0.088 -0.002 1 
0.422 -0.013 -0.012 1 
0.394 -0.023 -0.015 1 
0.284 0.134 0.011 1 
0.434 -0.167 -0.014 1 
0.34 0.053 -0.005 1 
0.394 -0.192 -0.02 1 
0.421 -0.116 -0.015 1 
0.334 0.045 -0.004 1 
0.296 0.149 0.005 1 
0.472 -0.256 -0.009 1 
0.364 -0.117 -0.017 1 
0.38 0.064 -0.005 1 
0.379 -0.062 -0.014 1 
0.424 -0.277 -0.025 1 
0.383 0.094 -0.001 1 
0.284 0.095 0.012 1 
0.433 -0.198 -0.015 1 
0.464 -0.097 -0.008 1 
0.465 -0.32 -0.015 1 
0.349 0.065 -0.005 1 
0.46 -0.206 -0.008 1 
0.453 -0.165 -0.011 1 
0.459 -0.275 -0.012 1 
0.37 0.064 -0.004 1 
0.416 -0.055 -0.015 1 
0.403 -0.026 -0.015 1 
0.455 -0.293 -0.015 1 
0.432 -0.02 -0.013 1 
0.371 -0.165 -0.019 1 
0.42 -0.065 -0.014 1 
0.465 -0.082 -0.005 1 
0.451 -0.328 -0.018 1 
0.464 -0.243 -0.01 1 
0.466 -0.327 -0.015 1 
0.365 0.066 -0.005 1 
0.386 0.089 0.006 1 
0.383 -0.136 -0.019 1 
0.478 -0.245 0.004 1 
0.337 0.097 0.001 1 
0.335 0.004 0.004 1 
0.337 0.029 0.037 2 
0.387 0.024 0.01 2 
0.305 0.071 0.084 2 
0.308 0.088 0.022 2 
0.353 0.025 0.028 2 
0.315 0.033 0.026 2 
0.521 0.07 0.047 2 
0.316 0.038 0.028 2 
0.319 0.023 0.033 2 
0.513 0.053 0.019 2 
0.502 0.048 0.02 2 
0.524 0.064 0.041 2 
0.334 0.035 0.05 2 
0.508 0.055 0.016 2 
0.526 0.062 0.044 2 
0.318 0.033 0.054 2 
0.511 0.065 0.057 2 
0.342 0.086 0.017 2 
0.516 0.063 0.054 2 
0.508 0.058 0.051 2 
0.511 0.056 0.028 2 
0.356 0.026 0.025 2 
0.359 0.024 0.009 2 
0.368 0.024 0.007 2 
0.383 0.021 0.009 2 
0.355 0.027 0.029 2 
0.345 0.022 0.008 2 
0.332 0.024 0.031 2 
0.39 0.014 0.021 2 
0.336 0.082 0.02 2 
0.352 0.084 0.017 2 
0.337 0.087 0.018 2 
0.348 0.086 0.017 2 
0.33 0.088 0.016 2 
0.323 0.087 0.017 2 
0.313 0.093 0.01 2 
0.33 0.022 0.026 2 
0.339 0.022 0.008 2 
0.344 0.014 0.022 2 
0.317 0.09 0.024 2 
0.321 0.083 0.026 2 
0.32 0.023 0.026 2 
0.347 -0.001 0.029 2 
0.312 0.089 0.023 2 
0.325 0.088 0.023 2 
0.328 0.084 0.023 2 
0.32 0.073 0.026 2 
0.33 0.056 0.026 2 
0.335 0.056 0.025 2 
0.339 0.033 0.043 2 
0.433 0.038 0.015 2 
0.32 0.028 0.038 2 
0.334 0.027 0.034 2 
0.384 0.031 0.026 2 
0.379 0.029 0.027 2 
0.386 0.028 0.01 2 
0.4 0.027 0.012 2 
0.325 0.028 0.042 2 
0.41 0.033 0.029 2 
0.414 0.033 0.01 2 
0.397 0.031 0.026 2 
0.407 0.024 0.009 2 
0.27 0.049 0.054 2 
0.316 0.031 0.05 2 
0.518 0.083 0.071 2 
0.316 0.058 0.075 2 
0.425 0.033 0.013 2 
0.342 0.003 0.032 2 
0.459 0.104 0.142 3 
0.255 0.068 0.084 3 
0.255 0.066 0.054 3 
0.463 0.169 0.144 3 
0.463 0.163 0.144 3 
0.465 0.156 0.144 3 
0.464 0.152 0.144 3 
0.463 0.144 0.144 3 
0.461 0.132 0.143 3 
0.461 0.124 0.143 3 
0.46 0.112 0.142 3 
0.485 -0.281 0.156 3 
0.462 0.094 0.143 3 
0.463 0.084 0.143 3 
0.463 0.073 0.143 3 
0.464 -0.006 0.092 3 
0.465 0.062 0.144 3 
0.465 0.054 0.144 3 
0.464 0.051 0.143 3 
0.463 0.043 0.143 3 
0.462 0.032 0.143 3 
0.462 0.022 0.143 3 
0.465 -0.02 0.103 3 
0.472 -0.125 0.152 3 
0.472 -0.137 0.152 3 
0.473 -0.146 0.152 3 
0.474 -0.155 0.153 3 
0.476 -0.168 0.154 3 
0.477 -0.177 0.154 3 
0.476 -0.2 0.154 3 
0.476 -0.208 0.154 3 
0.489 -0.325 0.162 3 
0.49 -0.337 0.163 3 
0.463 0.014 0.143 3 
0.461 0.05 0.052 3 
0.463 0.062 0.146 3 
0.467 -0.047 0.034 3 
0.462 0.014 0.145 3 
0.474 -0.166 0.15 3 
0.479 -0.268 0.104 3 
0.477 -0.186 0.152 3 
0.474 -0.216 0.151 3 
0.48 -0.235 0.153 3 
0.481 -0.258 0.154 3 
0.475 -0.19 0.143 3 
0.473 -0.126 0.144 3 
0.472 -0.145 0.144 3 
0.473 -0.16 0.144 3 
0.486 -0.305 0.151 3 
0.487 -0.316 0.152 3 
0.488 -0.327 0.153 3 
0.488 -0.335 0.153 3 
0.472 -0.165 0.141 3 
0.474 -0.178 0.142 3 
0.474 -0.187 0.142 3 
0.472 -0.117 0.143 3 
0.476 -0.196 0.143 3 
0.474 -0.168 0.094 3 
0.476 -0.205 0.143 3 
0.474 -0.213 0.143 3 
0.474 -0.216 0.143 3 
0.475 -0.222 0.143 3 
0.479 -0.228 0.144 3 
0.46 0.118 0.134 3 
0.466 -0.095 0.012 3 
0.46 0.112 0.134 3 
0.487 -0.296 0.154 3 
0.471 -0.187 0.014 3 
0.466 0.003 0.144 3 
0.467 -0.006 0.144 3 
0.467 -0.015 0.144 3 
0.468 -0.036 0.144 3 
0.482 -0.268 0.152 3 
0.484 -0.277 0.153 3 
0.485 -0.281 0.153 3 
0.474 -0.16 0.044 3 
0.486 -0.285 0.154 3 
0.473 -0.115 0.152 3 
0.265 0.066 0.044 3 
0.269 0.074 0.087 3 
0.464 0.062 0.141 3 
0.464 0.003 0.14 3 
0.47 -0.056 0.142 3 
0.47 -0.067 0.142 3 
0.469 -0.077 0.142 3 
0.469 -0.085 0.142 3 
0.47 -0.105 0.143 3 
0.48 -0.245 0.162 3 
0.479 -0.196 0.164 3 
0.479 -0.205 0.164 3 
0.478 -0.217 0.164 3 
0.479 -0.226 0.164 3 
0.484 -0.28 0.168 3 
0.491 -0.328 0.172 3 
0.485 -0.32 0.103 3 
0.491 -0.335 0.172 3 
0.245 0.074 0.084 3 
0.479 -0.187 0.164 3 
0.461 0.173 0.154 3 
0.461 0.162 0.154 3 
0.461 0.154 0.154 3 
0.46 0.142 0.154 3 
0.462 0.132 0.154 3 
0.463 0.114 0.154 3 
0.462 0.102 0.154 3 
0.462 0.083 0.154 3 
0.465 0.079 0.154 3 
0.465 0.073 0.154 3 
0.483 -0.267 0.17 3 
0.476 -0.105 0.164 3 
0.479 -0.246 0.113 3 
0.474 -0.115 0.164 3 
0.475 -0.118 0.164 3 
0.474 -0.129 0.164 3 
0.475 -0.135 0.164 3 
0.472 -0.147 0.083 3 
0.275 0.071 0.037 3 
0.474 -0.146 0.164 3 
0.475 -0.15 0.164 3 
0.465 0.057 0.154 3 
0.487 -0.286 0.172 3 
0.487 -0.296 0.172 3 
0.486 -0.306 0.173 3 
0.488 -0.318 0.174 3 
0.239 0.074 0.083 3 
0.473 -0.135 0.161 3 
0.476 -0.156 0.162 3 
0.476 -0.165 0.162 3 
0.478 -0.178 0.163 3 
0.467 -0.006 0.152 3 
0.469 -0.015 0.153 3 
0.469 -0.025 0.153 3 
0.471 -0.056 0.153 3 
0.471 -0.067 0.154 3 
0.471 -0.075 0.154 3 
0.473 -0.087 0.154 3 
0.283 0.083 0.092 3 
0.474 -0.095 0.155 3 
0.466 0.003 0.152 3 
0.474 -0.161 0.156 3 
0.484 -0.287 0.162 3 
0.485 -0.298 0.163 3 
0.48 -0.307 0.014 3 
0.486 -0.309 0.164 3 
0.487 -0.316 0.164 3 
0.463 0.073 0.148 3 
0.473 -0.095 0.152 3 
0.474 -0.245 0.092 3 
0.473 -0.106 0.152 3 
0.48 -0.257 0.163 3 
0.461 0.064 0.073 3 
0.464 0.049 0.154 3 
0.463 0.043 0.154 3 
0.465 0.027 0.154 3 
0.464 0.022 0.154 3 
0.465 0.019 0.154 3 
0.465 0.014 0.154 3 
0.474 -0.087 0.157 3 
0.474 -0.107 0.158 3 
0.479 -0.235 0.162 3 
0.46 0.104 0.134 3 
0.295 0.049 0.064 3 
0.481 -0.265 0.163 3 
0.482 -0.275 0.164 3 
0.484 -0.287 0.165 3 
0.484 -0.3 0.166 3 
0.49 -0.345 0.169 3 
0.462 0.124 0.151 3 
0.478 -0.228 0.153 3 
0.466 0.052 0.152 3 
0.489 -0.335 0.131 3 
0.471 -0.097 0.124 3 
0.479 -0.287 0.093 3 
0.471 -0.105 0.124 3 
0.471 -0.116 0.124 3 
0.471 -0.125 0.124 3 
0.471 -0.136 0.124 3 
0.472 -0.145 0.124 3 
0.472 -0.159 0.124 3 
0.471 -0.17 0.124 3 
0.474 -0.195 0.125 3 
0.472 -0.086 0.124 3 
0.245 0.07 0.074 3 
0.291 0.072 0.084 3 
0.474 -0.177 0.122 3 
0.475 -0.181 0.122 3 
0.477 -0.208 0.103 3 
0.474 -0.186 0.122 3 
0.475 -0.189 0.123 3 
0.474 -0.195 0.122 3 
0.301 0.042 0.034 3 
0.475 -0.207 0.123 3 
0.485 -0.307 0.133 3 
0.462 0.024 0.124 3 
0.465 0.011 0.124 3 
0.464 0.003 0.124 3 
0.465 -0.001 0.124 3 
0.49 -0.339 0.123 3 
0.465 -0.079 0.012 3 
0.465 -0.006 0.124 3 
0.475 -0.181 0.128 3 
0.484 -0.299 0.132 3 
0.485 -0.303 0.133 3 
0.476 -0.217 0.123 3 
0.487 -0.315 0.134 3 
0.488 -0.327 0.134 3 
0.466 -0.015 0.122 3 
0.466 -0.025 0.122 3 
0.466 -0.036 0.122 3 
0.467 -0.047 0.122 3 
0.468 -0.055 0.123 3 
0.469 -0.066 0.123 3 
0.471 -0.075 0.123 3 
0.463 -0.057 0.013 3 
0.46 0.112 0.113 3 
0.459 0.103 0.113 3 
0.46 0.093 0.113 3 
0.461 0.083 0.113 3 
0.461 0.072 0.113 3 
0.46 0.053 0.113 3 
0.461 0.043 0.113 3 
0.472 -0.176 0.063 3 
0.463 0.032 0.113 3 
0.464 0.024 0.113 3 
0.463 0.124 0.114 3 
0.464 0.014 0.113 3 
0.465 0.011 0.114 3 
0.465 0.003 0.114 3 
0.461 0.053 0.063 3 
0.466 -0.006 0.114 3 
0.465 -0.017 0.114 3 
0.465 -0.025 0.114 3 
0.466 -0.036 0.114 3 
0.467 -0.047 0.114 3 
0.487 -0.329 0.122 3 
0.479 -0.265 0.122 3 
0.477 -0.226 0.124 3 
0.478 -0.236 0.124 3 
0.479 -0.246 0.124 3 
0.478 -0.264 0.124 3 
0.25 0.064 0.074 3 
0.275 0.064 0.079 3 
0.297 0.073 0.084 3 
0.475 -0.195 0.12 3 
0.474 -0.206 0.12 3 
0.474 -0.215 0.12 3 
0.462 0.032 0.124 3 
0.477 -0.257 0.044 3 
0.48 -0.285 0.122 3 
0.483 -0.298 0.123 3 
0.485 -0.303 0.124 3 
0.486 -0.307 0.124 3 
0.489 -0.345 0.126 3 
0.492 0.044 0.034 3 
0.265 0.064 0.076 3 
0.46 0.125 0.113 3 
0.47 -0.066 0.134 3 
0.461 0.024 0.132 3 
0.462 0.014 0.132 3 
0.464 0.003 0.132 3 
0.465 0.001 0.132 3 
0.466 -0.006 0.133 3 
0.467 -0.017 0.133 3 
0.467 -0.025 0.133 3 
0.468 -0.036 0.133 3 
0.469 -0.047 0.134 3 
0.47 -0.056 0.134 3 
0.463 0.043 0.132 3 
0.471 -0.075 0.134 3 
0.469 -0.085 0.134 3 
0.47 -0.097 0.134 3 
0.483 -0.298 0.141 3 
0.486 -0.304 0.142 3 
0.487 -0.309 0.142 3 
0.488 -0.317 0.143 3 
0.488 -0.327 0.143 3 
0.252 0.064 0.079 3 
0.472 -0.205 0.013 3 
0.461 0.086 0.134 3 
0.461 0.078 0.134 3 
0.461 0.03 0.134 3 
0.48 -0.238 0.142 3 
0.48 -0.247 0.142 3 
0.479 -0.256 0.142 3 
0.48 -0.266 0.143 3 
0.483 -0.275 0.144 3 
0.485 -0.284 0.144 3 
0.484 -0.286 0.144 3 
0.485 0.163 0.136 3 
0.266 0.071 0.083 3 
0.28 0.074 0.087 3 
0.458 0.149 0.132 3 
0.461 0.142 0.132 3 
0.461 0.132 0.132 3 
0.47 0.057 0.055 3 
0.461 0.072 0.132 3 
0.462 0.064 0.132 3 
0.462 0.054 0.132 3 
0.459 0.141 0.124 3 
0.478 -0.246 0.133 3 
0.477 -0.267 0.133 3 
0.484 -0.345 0.061 3 
0.474 -0.165 0.044 3 
0.479 -0.275 0.134 3 
0.265 0.11 0.019 3 
0.48 -0.285 0.134 3 
0.234 0.079 0.074 3 
0.235 0.078 0.074 3 
0.237 0.074 0.074 3 
0.479 -0.237 0.133 3 
0.466 -0.066 0.023 3 
0.461 0.134 0.124 3 
0.461 0.123 0.124 3 
0.462 0.113 0.124 3 
0.461 0.104 0.124 3 
0.461 0.094 0.124 3 
0.461 0.083 0.124 3 
0.459 0.064 0.123 3 
0.461 0.053 0.124 3 
0.462 0.043 0.124 3 
0.475 -0.187 0.134 3 
0.473 -0.117 0.132 3 
0.473 -0.126 0.133 3 
0.464 -0.017 0.106 3 
0.482 -0.316 0.034 3 
0.473 -0.137 0.133 3 
0.474 -0.146 0.133 3 
0.474 -0.155 0.133 3 
0.474 -0.166 0.133 3 
0.473 -0.177 0.133 3 
0.476 -0.096 0.164 3 
0.476 -0.196 0.134 3 
0.278 0.07 0.084 3 
0.285 0.074 0.086 3 
0.465 0.014 0.127 3 
0.474 -0.192 0.131 3 
0.477 -0.205 0.132 3 
0.476 -0.207 0.052 3 
0.477 -0.217 0.132 3 
0.479 -0.228 0.133 3 
0.482 -0.165 0.191 3 
0.472 0.039 0.185 3 
0.471 0.034 0.184 3 
0.473 0.031 0.185 3 
0.474 0.02 0.185 3 
0.472 0.012 0.184 3 
0.472 0.001 0.184 3 
0.463 0.043 0.052 3 
0.475 -0.004 0.186 3 
0.475 -0.029 0.186 3 
0.476 -0.257 0.133 3 
0.481 -0.315 0.014 3 
0.468 -0.066 0.074 3 
0.484 -0.176 0.192 3 
0.484 -0.185 0.192 3 
0.484 -0.197 0.192 3 
0.484 -0.206 0.193 3 
0.485 -0.213 0.193 3 
0.485 -0.216 0.193 3 
0.485 -0.225 0.194 3 
0.474 -0.18 0.103 3 
0.484 -0.228 0.193 3 
0.467 0.124 0.183 3 
0.465 0.18 0.184 3 
0.465 0.174 0.184 3 
0.472 -0.137 0.144 3 
0.464 0.162 0.183 3 
0.465 0.16 0.184 3 
0.466 0.152 0.184 3 
0.468 0.144 0.184 3 
0.266 0.084 0.098 3 
0.466 0.132 0.183 3 
0.479 -0.275 0.122 3 
0.485 -0.235 0.194 3 
0.47 -0.105 0.134 3 
0.47 0.114 0.184 3 
0.47 0.103 0.184 3 
0.468 0.094 0.183 3 
0.468 0.083 0.183 3 
0.466 0.074 0.182 3 
0.468 0.063 0.183 3 
0.311 0.04 0.023 3 
0.469 0.044 0.183 3 
0.465 0.114 0.163 3 
0.477 -0.099 0.184 3 
0.472 -0.037 0.182 3 
0.473 -0.045 0.182 3 
0.469 -0.055 0.063 3 
0.475 -0.051 0.183 3 
0.476 -0.057 0.183 3 
0.478 -0.066 0.184 3 
0.464 0.032 0.052 3 
0.478 -0.08 0.184 3 
0.475 -0.207 0.072 3 
0.478 -0.086 0.184 3 
0.473 -0.037 0.173 3 
0.485 -0.2 0.19 3 
0.484 -0.215 0.19 3 
0.484 -0.255 0.191 3 
0.468 -0.077 0.074 3 
0.484 -0.265 0.191 3 
0.485 -0.272 0.192 3 
0.485 -0.336 0.067 3 
0.486 -0.276 0.193 3 
0.488 -0.285 0.194 3 
0.473 -0.236 0.013 3 
0.465 0.038 0.1 3 
0.484 -0.237 0.194 3 
0.484 -0.247 0.194 3 
0.485 -0.253 0.194 3 
0.485 -0.256 0.194 3 
0.495 -0.33 0.202 3 
0.266 0.086 0.1 3 
0.473 -0.185 0.044 3 
0.47 0.206 0.184 3 
0.47 0.203 0.184 3 
0.264 0.085 0.1 3 
0.469 0.194 0.183 3 
0.472 0.053 0.182 3 
0.476 0.051 0.183 3 
0.466 -0.025 0.144 3 
0.472 0.023 0.182 3 
0.476 -0.007 0.183 3 
0.477 -0.015 0.184 3 
0.474 -0.026 0.183 3 
0.478 0.023 0.19 3 
0.471 0.114 0.188 3 
0.47 0.103 0.187 3 
0.47 0.094 0.187 3 
0.47 0.083 0.187 3 
0.47 0.064 0.187 3 
0.474 0.054 0.188 3 
0.477 0.051 0.189 3 
0.471 -0.045 0.142 3 
0.477 0.043 0.189 3 
0.477 0.034 0.189 3 
0.469 0.072 0.186 3 
0.474 0.012 0.188 3 
0.471 0.003 0.187 3 
0.475 -0.007 0.189 3 
0.485 -0.346 0.052 3 
0.476 -0.015 0.189 3 
0.476 -0.213 0.064 3 
0.474 -0.021 0.188 3 
0.474 -0.026 0.188 3 
0.472 -0.037 0.187 3 
0.475 -0.04 0.189 3 
0.466 0.184 0.187 3 
0.233 0.079 0.089 3 
0.235 0.079 0.089 3 
0.245 0.078 0.093 3 
0.249 0.079 0.095 3 
0.256 0.082 0.098 3 
0.469 -0.085 0.074 3 
0.471 0.213 0.19 3 
0.48 -0.297 0.023 3 
0.469 0.203 0.189 3 
0.466 0.192 0.188 3 
0.486 -0.257 0.198 3 
0.466 0.172 0.187 3 
0.287 0.073 0.033 3 
0.466 0.163 0.187 3 
0.475 -0.207 0.004 3 
0.467 0.153 0.187 3 
0.467 0.144 0.186 3 
0.468 0.133 0.187 3 
0.46 0.064 0.113 3 
0.469 0.122 0.187 3 
0.465 0.003 0.052 3 
0.485 -0.161 0.195 3 
0.486 -0.165 0.195 3 
0.488 -0.175 0.196 3 
0.487 -0.186 0.196 3 
0.487 -0.196 0.196 3 
0.467 -0.077 0.052 3 
0.484 -0.206 0.196 3 
0.485 -0.21 0.196 3 
0.486 -0.217 0.197 3 
0.486 -0.226 0.197 3 
0.484 -0.155 0.194 3 
0.486 -0.236 0.197 3 
0.485 -0.248 0.197 3 
0.487 -0.268 0.199 3 
0.489 -0.276 0.2 3 
0.49 -0.287 0.201 3 
0.491 -0.295 0.202 3 
0.472 -0.176 0.052 3 
0.491 -0.305 0.202 3 
0.492 -0.316 0.203 3 
0.496 -0.327 0.205 3 
0.478 -0.097 0.19 3 
0.474 -0.046 0.188 3 
0.476 -0.049 0.189 3 
0.478 -0.057 0.19 3 
0.474 -0.213 0.151 3 
0.479 -0.066 0.19 3 
0.262 0.064 0.075 3 
0.469 -0.126 0.014 3 
0.482 -0.075 0.192 3 
0.47 -0.045 0.153 3 
0.479 -0.086 0.191 3 
0.494 -0.329 0.198 3 
0.479 -0.106 0.191 3 
0.481 -0.115 0.192 3 
0.48 -0.126 0.192 3 
0.47 -0.036 0.153 3 
0.481 -0.136 0.192 3 
0.464 0.033 0.154 3 
0.458 0.092 0.102 3 
0.484 -0.322 0.103 3 
0.482 -0.145 0.193 3 
0.475 -0.217 0.154 3 
0.464 0.111 0.165 3 
0.289 0.044 0.044 3 
0.475 -0.076 0.169 3 
0.478 -0.178 0.172 3 
0.479 -0.187 0.172 3 
0.465 -0.089 0.012 3 
0.478 -0.196 0.172 3 
0.478 -0.205 0.173 3 
0.464 -0.017 0.004 3 
0.479 -0.217 0.173 3 
0.462 0.119 0.165 3 
0.491 -0.328 0.181 3 
0.479 -0.297 0.064 3 
0.493 -0.337 0.183 3 
0.46 0.182 0.163 3 
0.461 0.174 0.163 3 
0.462 0.163 0.163 3 
0.464 0.153 0.163 3 
0.464 0.144 0.163 3 
0.465 0.134 0.163 3 
0.464 0.131 0.163 3 
0.467 -0.096 0.052 3 
0.475 -0.09 0.172 3 
0.477 -0.096 0.173 3 
0.478 -0.105 0.173 3 
0.478 -0.117 0.173 3 
0.489 -0.335 0.144 3 
0.477 -0.125 0.173 3 
0.476 -0.136 0.173 3 
0.477 -0.145 0.174 3 
0.477 -0.157 0.174 3 
0.477 -0.165 0.174 3 
0.465 0.123 0.163 3 
0.489 -0.285 0.182 3 
0.472 0.05 0.047 3 
0.492 -0.298 0.183 3 
0.49 -0.306 0.183 3 
0.488 -0.315 0.183 3 
0.233 0.078 0.084 3 
0.235 0.079 0.084 3 
0.244 0.074 0.087 3 
0.258 0.073 0.092 3 
0.471 -0.037 0.162 3 
0.475 -0.243 0.013 3 
0.48 -0.236 0.171 3 
0.464 0.014 0.124 3 
0.481 -0.246 0.172 3 
0.474 -0.209 0.08 3 
0.483 -0.257 0.173 3 
0.485 -0.268 0.174 3 
0.486 -0.276 0.174 3 
0.269 0.078 0.094 3 
0.464 0.1 0.16 3 
0.46 0.064 0.094 3 
0.487 -0.315 0.124 3 
0.472 -0.056 0.162 3 
0.475 -0.065 0.163 3 
0.465 0.038 0.092 3 
0.474 -0.073 0.163 3 
0.475 -0.076 0.163 3 
0.47 -0.086 0.104 3 
0.476 -0.232 0.024 3 
0.474 -0.079 0.163 3 
0.475 -0.087 0.163 3 
0.483 -0.327 0.082 3 
0.464 0.12 0.163 3 
0.464 0.111 0.163 3 
0.467 0.104 0.164 3 
0.465 0.093 0.163 3 
0.464 0.087 0.162 3 
0.466 0.082 0.163 3 
0.467 0.074 0.163 3 
0.466 0.063 0.163 3 
0.468 0.044 0.164 3 
0.466 0.033 0.163 3 
0.474 -0.087 0.172 3 
0.467 0.022 0.163 3 
0.475 -0.127 0.164 3 
0.465 0.014 0.162 3 
0.466 0.003 0.163 3 
0.47 -0.007 0.164 3 
0.47 -0.015 0.164 3 
0.471 -0.026 0.164 3 
0.471 -0.048 0.164 3 
0.479 -0.226 0.17 3 
0.466 0.052 0.174 3 
0.255 0.079 0.094 3 
0.466 0.118 0.174 3 
0.47 -0.097 0.143 3 
0.466 0.112 0.174 3 
0.466 0.104 0.174 3 
0.47 0.144 0.123 3 
0.466 0.093 0.174 3 
0.465 0.082 0.174 3 
0.466 0.074 0.174 3 
0.466 0.063 0.174 3 
0.492 -0.316 0.194 3 
0.467 0.044 0.174 3 
0.467 0.033 0.174 3 
0.466 0.052 0.163 3 
0.473 -0.007 0.176 3 
0.474 -0.056 0.177 3 
0.481 -0.195 0.182 3 
0.465 0.011 0.143 3 
0.48 -0.206 0.182 3 
0.459 0.074 0.123 3 
0.481 -0.135 0.184 3 
0.276 0.093 0.103 3 
0.464 0.179 0.178 3 
0.464 0.174 0.178 3 
0.474 -0.023 0.18 3 
0.474 -0.084 0.18 3 
0.478 -0.105 0.182 3 
0.473 -0.168 0.102 3 
0.479 -0.117 0.182 3 
0.257 0.074 0.044 3 
0.48 -0.126 0.183 3 
0.481 -0.216 0.183 3 
0.48 -0.147 0.183 3 
0.479 -0.155 0.183 3 
0.479 -0.167 0.184 3 
0.48 -0.176 0.184 3 
0.48 -0.185 0.184 3 
0.49 -0.297 0.192 3 
0.474 -0.209 0.044 3 
0.491 -0.308 0.193 3 
0.472 -0.075 0.173 3 
0.467 0.022 0.171 3 
0.467 0.014 0.171 3 
0.469 0.003 0.172 3 
0.471 -0.007 0.173 3 
0.473 -0.015 0.174 3 
0.472 -0.026 0.173 3 
0.471 -0.045 0.173 3 
0.472 -0.056 0.173 3 
0.465 0.003 0.103 3 
0.472 -0.067 0.173 3 
0.482 -0.309 0.064 3 
0.485 -0.253 0.182 3 
0.484 -0.255 0.182 3 
0.485 -0.259 0.182 3 
0.464 0.092 0.154 3 
0.485 -0.265 0.183 3 
0.486 -0.276 0.183 3 
0.494 -0.335 0.189 3 
0.246 0.074 0.089 3 
0.462 0.192 0.169 3 
0.464 0.153 0.169 3 
0.464 0.173 0.172 3 
0.472 -0.176 0.072 3 
0.483 -0.227 0.184 3 
0.482 -0.235 0.184 3 
0.483 -0.245 0.184 3 
0.492 -0.326 0.191 3 
0.474 -0.197 0.052 3 
0.466 0.198 0.174 3 
0.466 0.189 0.173 3 
0.467 0.184 0.174 3 
0.464 0.176 0.172 3 
0.255 0.065 0.074 3 
0.486 -0.337 0.043 3 
0.463 0.164 0.172 3 
0.465 0.156 0.172 3 
0.465 0.154 0.172 3 
0.466 0.143 0.172 3 
0.467 0.132 0.172 3 
0.48 -0.245 0.154 3 
0.464 0.068 0.17 3 
0.464 0.062 0.17 3 
0.484 -0.328 0.034 3 
0.465 0.032 0.039 3 
0.464 -0.007 0.039 3 
0.475 -0.183 0.038 3 
0.475 -0.186 0.038 3 
0.475 -0.234 0.038 3 
0.265 0.055 0.05 3 
0.443 0.02 0.018 3 
0.465 0.016 0.036 3 
0.484 -0.335 0.034 3 
0.484 -0.345 0.034 3 
0.494 0.047 0.031 3 
0.484 0.043 0.032 3 
0.469 0.038 0.033 3 
0.465 0.032 0.034 3 
0.466 -0.087 0.023 3 
0.464 0.024 0.034 3 
0.476 -0.265 0.044 3 
0.475 -0.157 0.044 3 
0.472 -0.176 0.044 3 
0.475 -0.195 0.044 3 
0.474 -0.203 0.044 3 
0.475 -0.207 0.044 3 
0.474 -0.215 0.044 3 
0.473 -0.226 0.044 3 
0.474 -0.236 0.044 3 
0.475 -0.243 0.044 3 
0.476 -0.247 0.044 3 
0.465 0.022 0.034 3 
0.478 -0.277 0.044 3 
0.48 -0.297 0.043 3 
0.48 -0.307 0.043 3 
0.481 -0.318 0.043 3 
0.482 -0.326 0.043 3 
0.487 -0.349 0.043 3 
0.491 0.05 0.04 3 
0.281 0.044 0.05 3 
0.313 0.032 0.044 3 
0.474 -0.227 0.033 3 
0.475 -0.234 0.032 3 
0.476 -0.238 0.032 3 
0.478 -0.245 0.032 3 
0.478 -0.255 0.032 3 
0.476 -0.265 0.032 3 
0.481 -0.275 0.032 3 
0.481 -0.285 0.032 3 
0.48 -0.297 0.032 3 
0.48 -0.307 0.032 3 
0.473 -0.217 0.033 3 
0.478 0.048 0.03 3 
0.464 0.014 0.031 3 
0.464 -0.012 0.031 3 
0.255 0.075 0.048 3 
0.285 0.059 0.033 3 
0.297 0.041 0.044 3 
0.303 0.034 0.044 3 
0.445 0.04 0.03 3 
0.464 0.04 0.028 3 
0.464 0.027 0.028 3 
0.469 -0.115 0.033 3 
0.465 0.014 0.034 3 
0.465 0.003 0.034 3 
0.465 -0.007 0.034 3 
0.465 -0.015 0.034 3 
0.466 -0.025 0.034 3 
0.466 -0.036 0.034 3 
0.466 -0.055 0.034 3 
0.469 -0.077 0.033 3 
0.468 -0.096 0.034 3 
0.468 -0.107 0.034 3 
0.475 -0.151 0.044 3 
0.47 -0.127 0.033 3 
0.47 -0.135 0.033 3 
0.472 -0.147 0.033 3 
0.47 -0.155 0.033 3 
0.469 -0.166 0.033 3 
0.47 -0.175 0.033 3 
0.473 -0.185 0.033 3 
0.472 -0.196 0.033 3 
0.471 -0.207 0.033 3 
0.477 -0.257 0.052 3 
0.471 -0.135 0.052 3 
0.473 -0.145 0.052 3 
0.473 -0.156 0.052 3 
0.251 0.096 0.03 3 
0.472 -0.167 0.052 3 
0.473 -0.185 0.052 3 
0.476 -0.216 0.052 3 
0.475 -0.225 0.052 3 
0.476 -0.237 0.052 3 
0.478 -0.248 0.052 3 
0.47 -0.127 0.052 3 
0.478 -0.267 0.052 3 
0.478 -0.276 0.052 3 
0.48 -0.285 0.052 3 
0.48 -0.297 0.052 3 
0.48 -0.307 0.052 3 
0.48 -0.317 0.052 3 
0.484 -0.328 0.052 3 
0.485 -0.332 0.052 3 
0.485 -0.336 0.052 3 
0.286 0.045 0.054 3 
0.467 -0.007 0.052 3 
0.485 -0.336 0.058 3 
0.241 0.085 0.056 3 
0.464 0.014 0.055 3 
0.478 0.056 0.052 3 
0.465 0.03 0.052 3 
0.465 0.024 0.052 3 
0.464 0.016 0.052 3 
0.464 0.014 0.052 3 
0.465 0.008 0.052 3 
0.291 0.044 0.054 3 
0.467 -0.015 0.052 3 
0.467 -0.025 0.052 3 
0.466 -0.036 0.052 3 
0.467 -0.047 0.052 3 
0.467 -0.055 0.052 3 
0.468 -0.066 0.052 3 
0.467 -0.085 0.052 3 
0.469 -0.107 0.052 3 
0.47 -0.116 0.052 3 
0.467 -0.047 0.044 3 
0.463 0.043 0.044 3 
0.465 0.035 0.044 3 
0.464 0.032 0.044 3 
0.463 0.024 0.044 3 
0.463 0.014 0.044 3 
0.465 0.006 0.044 3 
0.465 0.003 0.044 3 
0.465 -0.007 0.044 3 
0.466 -0.015 0.044 3 
0.466 -0.025 0.044 3 
0.466 0.046 0.044 3 
0.468 -0.055 0.044 3 
0.468 -0.066 0.044 3 
0.468 -0.077 0.044 3 
0.469 -0.085 0.044 3 
0.47 -0.096 0.044 3 
0.47 -0.105 0.044 3 
0.47 -0.116 0.044 3 
0.471 -0.135 0.044 3 
0.474 -0.145 0.044 3 
0.302 0.085 0.029 3 
0.295 0.042 0.054 3 
0.475 -0.157 0.05 3 
0.243 0.088 0.054 3 
0.244 0.084 0.054 3 
0.245 0.074 0.054 3 
0.255 0.064 0.054 3 
0.264 0.054 0.054 3 
0.302 0.034 0.053 3 
0.485 -0.35 0.025 3 
0.465 0.04 0.047 3 
0.475 -0.189 0.047 3 
0.475 -0.195 0.047 3 
0.474 -0.221 0.047 3 
0.474 -0.227 0.047 3 
0.245 0.085 0.053 3 
0.306 0.034 0.051 3 
0.483 -0.327 0.013 3 
0.47 -0.105 0.003 3 
0.296 0.046 0.034 3 
0.465 -0.015 0.004 3 
0.465 -0.06 0.004 3 
0.466 -0.066 0.004 3 
0.466 -0.076 0.004 3 
0.467 -0.085 0.004 3 
0.469 -0.096 0.004 3 
0.294 0.047 0.034 3 
0.471 -0.116 0.003 3 
0.244 0.083 0.041 3 
0.285 0.055 0.035 3 
0.465 -0.025 0.002 3 
0.464 -0.036 0.002 3 
0.465 -0.047 0.002 3 
0.28 0.076 0.034 3 
0.285 0.077 0.033 3 
0.282 0.064 0.034 3 
0.305 0.045 0.03 3 
0.462 -0.036 0.013 3 
0.462 -0.046 0.013 3 
0.465 -0.063 0.012 3 
0.465 -0.065 0.012 3 
0.464 -0.076 0.013 3 
0.464 -0.086 0.013 3 
0.474 -0.246 0.01 3 
0.275 0.055 0.039 3 
0.308 0.03 0.034 3 
0.464 -0.065 0.01 3 
0.475 -0.21 0.007 3 
0.295 0.045 0.035 3 
0.305 0.039 0.034 3 
0.275 0.075 0.035 3 
0.477 -0.266 0.003 3 
0.476 -0.275 0.003 3 
0.48 -0.288 0.003 3 
0.285 0.084 0.024 3 
0.255 0.086 0.034 3 
0.299 0.088 0.024 3 
0.251 0.089 0.034 3 
0.294 0.087 0.024 3 
0.244 0.088 0.034 3 
0.258 0.095 0.024 3 
0.281 0.084 0.024 3 
0.321 0.018 0.014 3 
0.283 0.085 0.023 3 
0.273 0.085 0.024 3 
0.274 0.084 0.024 3 
0.255 0.097 0.027 3 
0.262 0.088 0.024 3 
0.259 0.106 0.022 3 
0.264 0.078 0.034 3 
0.297 0.084 0.03 3 
0.295 0.055 0.03 3 
0.27 0.077 0.034 3 
0.463 -0.025 0.013 3 
0.294 0.085 0.028 3 
0.323 0.014 0.012 3 
0.314 0.025 0.024 3 
0.468 -0.077 0.023 3 
0.464 0.03 0.023 3 
0.457 0.024 0.024 3 
0.464 0.008 0.023 3 
0.465 -0.007 0.023 3 
0.465 -0.017 0.023 3 
0.465 -0.025 0.023 3 
0.464 -0.031 0.023 3 
0.464 -0.036 0.023 3 
0.465 -0.047 0.023 3 
0.465 -0.055 0.023 3 
0.452 0.031 0.024 3 
0.467 -0.095 0.023 3 
0.469 -0.107 0.023 3 
0.47 -0.116 0.022 3 
0.47 -0.127 0.022 3 
0.47 -0.135 0.022 3 
0.47 -0.146 0.022 3 
0.47 -0.155 0.022 3 
0.469 -0.166 0.022 3 
0.47 -0.175 0.022 3 
0.472 -0.185 0.022 3 
0.477 -0.266 0.024 3 
0.287 0.045 0.044 3 
0.464 -0.039 0.026 3 
0.474 -0.218 0.024 3 
0.476 -0.223 0.024 3 
0.474 -0.227 0.024 3 
0.476 -0.235 0.024 3 
0.477 -0.245 0.024 3 
0.476 -0.256 0.024 3 
0.471 -0.195 0.022 3 
0.479 -0.277 0.023 3 
0.481 -0.305 0.023 3 
0.481 -0.315 0.023 3 
0.481 -0.325 0.022 3 
0.483 -0.337 0.022 3 
0.485 -0.347 0.022 3 
0.275 0.048 0.044 3 
0.443 0.04 0.025 3 
0.444 0.033 0.025 3 
0.477 -0.248 0.012 3 
0.469 -0.11 0.014 3 
0.469 -0.115 0.014 3 
0.468 -0.137 0.014 3 
0.469 -0.146 0.014 3 
0.47 -0.155 0.014 3 
0.468 -0.165 0.014 3 
0.467 -0.176 0.014 3 
0.471 -0.196 0.014 3 
0.472 -0.217 0.013 3 
0.472 -0.226 0.013 3 
0.463 -0.057 0.015 3 
0.477 -0.256 0.012 3 
0.476 -0.268 0.012 3 
0.477 -0.275 0.012 3 
0.245 0.088 0.044 3 
0.464 -0.015 0.012 3 
0.469 -0.206 0.022 3 
0.266 0.061 0.044 3 
0.27 0.054 0.044 3 
0.305 0.036 0.04 3 
0.464 0.003 0.02 3 
0.464 -0.007 0.02 3 
0.257 0.075 0.044 3 
0.475 -0.204 0.058 3 
0.452 0.023 0.019 3 
0.464 -0.047 0.018 3 
0.479 -0.29 0.014 3 
0.479 -0.296 0.014 3 
0.485 -0.336 0.013 3 
0.487 -0.349 0.012 3 
0.251 0.08 0.044 3 
0.465 0.03 0.092 3 
0.487 -0.349 0.104 3 
0.457 0.097 0.094 3 
0.459 0.093 0.094 3 
0.46 0.08 0.094 3 
0.279 0.054 0.071 3 
0.299 0.06 0.073 3 
0.462 0.054 0.092 3 
0.464 0.043 0.092 3 
0.466 0.014 0.023 3 
0.464 0.032 0.092 3 
0.485 -0.344 0.104 3 
0.464 0.024 0.092 3 
0.464 0.014 0.092 3 
0.463 0.003 0.092 3 
0.465 -0.012 0.092 3 
0.466 -0.015 0.092 3 
0.466 -0.025 0.092 3 
0.466 -0.036 0.092 3 
0.468 -0.047 0.093 3 
0.468 -0.055 0.093 3 
0.468 -0.066 0.093 3 
0.479 -0.246 0.104 3 
0.475 -0.177 0.103 3 
0.475 -0.186 0.103 3 
0.474 -0.188 0.103 3 
0.475 -0.195 0.103 3 
0.475 -0.216 0.103 3 
0.474 -0.224 0.103 3 
0.474 -0.227 0.103 3 
0.475 -0.231 0.103 3 
0.483 -0.337 0.037 3 
0.476 -0.235 0.104 3 
0.469 -0.077 0.093 3 
0.478 -0.255 0.104 3 
0.484 -0.326 0.106 3 
0.474 -0.245 0.084 3 
0.285 0.058 0.073 3 
0.479 -0.278 0.102 3 
0.48 -0.285 0.102 3 
0.481 -0.299 0.102 3 
0.483 -0.311 0.103 3 
0.484 -0.325 0.103 3 
0.484 -0.336 0.103 3 
0.475 -0.18 0.089 3 
0.477 -0.257 0.092 3 
0.478 -0.267 0.093 3 
0.469 -0.126 0.044 3 
0.479 -0.277 0.093 3 
0.48 -0.295 0.093 3 
0.482 -0.306 0.094 3 
0.484 -0.318 0.094 3 
0.484 -0.325 0.094 3 
0.485 -0.33 0.094 3 
0.485 -0.337 0.094 3 
0.48 -0.287 0.043 3 
0.474 -0.227 0.089 3 
0.474 -0.236 0.089 3 
0.484 -0.335 0.091 3 
0.486 -0.347 0.091 3 
0.238 0.083 0.064 3 
0.299 0.054 0.069 3 
0.459 0.087 0.084 3 
0.458 0.084 0.084 3 
0.46 0.074 0.084 3 
0.46 0.064 0.084 3 
0.475 -0.189 0.094 3 
0.469 -0.085 0.093 3 
0.469 -0.096 0.093 3 
0.469 -0.107 0.093 3 
0.469 -0.116 0.093 3 
0.469 -0.127 0.093 3 
0.472 -0.136 0.094 3 
0.472 -0.147 0.094 3 
0.472 -0.156 0.094 3 
0.474 -0.177 0.094 3 
0.474 -0.186 0.094 3 
0.471 -0.155 0.102 3 
0.273 0.054 0.069 3 
0.285 0.053 0.07 3 
0.476 -0.196 0.092 3 
0.476 -0.207 0.092 3 
0.476 -0.216 0.092 3 
0.476 -0.225 0.092 3 
0.475 -0.237 0.092 3 
0.476 -0.253 0.092 3 
0.473 -0.196 0.064 3 
0.474 -0.206 0.114 3 
0.474 -0.215 0.114 3 
0.475 -0.219 0.114 3 
0.255 0.064 0.073 3 
0.288 0.063 0.078 3 
0.464 -0.012 0.108 3 
0.475 -0.175 0.111 3 
0.476 -0.196 0.111 3 
0.475 -0.207 0.111 3 
0.475 -0.228 0.112 3 
0.474 -0.197 0.114 3 
0.477 -0.235 0.112 3 
0.479 -0.256 0.113 3 
0.479 -0.265 0.113 3 
0.459 0.074 0.094 3 
0.479 -0.278 0.113 3 
0.48 -0.285 0.114 3 
0.481 -0.296 0.114 3 
0.487 -0.347 0.116 3 
0.265 0.063 0.074 3 
0.295 0.064 0.078 3 
0.472 -0.117 0.113 3 
0.483 -0.335 0.106 3 
0.465 0.027 0.111 3 
0.464 -0.025 0.111 3 
0.467 -0.055 0.112 3 
0.469 -0.066 0.112 3 
0.47 -0.075 0.112 3 
0.47 -0.086 0.112 3 
0.466 -0.066 0.034 3 
0.472 -0.097 0.113 3 
0.473 -0.106 0.113 3 
0.48 -0.287 0.023 3 
0.47 -0.127 0.113 3 
0.47 -0.136 0.113 3 
0.474 -0.186 0.114 3 
0.471 -0.147 0.113 3 
0.472 -0.156 0.113 3 
0.474 -0.165 0.114 3 
0.474 -0.177 0.114 3 
0.475 -0.192 0.114 3 
0.469 -0.077 0.104 3 
0.464 0.014 0.103 3 
0.465 -0.006 0.103 3 
0.464 -0.009 0.103 3 
0.464 -0.017 0.103 3 
0.465 -0.025 0.103 3 
0.464 -0.028 0.103 3 
0.466 -0.036 0.103 3 
0.466 -0.047 0.103 3 
0.467 -0.055 0.103 3 
0.469 -0.066 0.104 3 
0.464 0.024 0.103 3 
0.472 -0.097 0.104 3 
0.484 -0.315 0.109 3 
0.463 0.003 0.1 3 
0.472 -0.106 0.102 3 
0.466 -0.036 0.044 3 
0.47 -0.116 0.102 3 
0.47 -0.127 0.102 3 
0.471 -0.136 0.102 3 
0.474 -0.236 0.016 3 
0.471 -0.147 0.102 3 
0.486 -0.345 0.113 3 
0.456 0.11 0.104 3 
0.456 0.102 0.104 3 
0.474 -0.227 0.109 3 
0.484 -0.305 0.112 3 
0.485 -0.31 0.112 3 
0.485 -0.316 0.112 3 
0.48 -0.298 0.002 3 
0.486 -0.328 0.112 3 
0.486 -0.338 0.113 3 
0.451 0.031 0.027 3 
0.461 0.053 0.084 3 
0.276 0.061 0.074 3 
0.458 0.084 0.102 3 
0.459 0.074 0.102 3 
0.46 0.064 0.102 3 
0.46 0.053 0.102 3 
0.462 0.043 0.103 3 
0.474 -0.209 0.047 3 
0.465 0.033 0.103 3 
0.464 0.03 0.103 3 
0.475 -0.225 0.069 3 
0.478 -0.276 0.073 3 
0.478 -0.286 0.073 3 
0.479 -0.297 0.073 3 
0.48 -0.308 0.073 3 
0.482 -0.319 0.073 3 
0.253 0.098 0.024 3 
0.482 -0.326 0.073 3 
0.484 -0.338 0.073 3 
0.485 -0.346 0.073 3 
0.474 -0.206 0.069 3 
0.479 -0.265 0.072 3 
0.303 0.044 0.061 3 
0.305 0.044 0.061 3 
0.492 0.073 0.066 3 
0.485 -0.329 0.067 3 
0.464 0.059 0.063 3 
0.46 0.042 0.063 3 
0.463 0.032 0.063 3 
0.484 -0.345 0.037 3 
0.465 0.024 0.063 3 
0.473 -0.196 0.072 3 
0.469 -0.126 0.074 3 
0.284 0.069 0.034 3 
0.469 -0.135 0.074 3 
0.472 -0.147 0.074 3 
0.472 -0.161 0.074 3 
0.472 -0.167 0.074 3 
0.305 0.047 0.064 3 
0.477 0.079 0.071 3 
0.465 0.073 0.071 3 
0.473 -0.188 0.072 3 
0.464 0.022 0.063 3 
0.475 -0.204 0.072 3 
0.475 -0.216 0.072 3 
0.474 -0.218 0.072 3 
0.473 -0.226 0.072 3 
0.474 -0.236 0.072 3 
0.476 -0.24 0.072 3 
0.469 -0.085 0.033 3 
0.476 -0.247 0.072 3 
0.478 -0.257 0.072 3 
0.477 -0.276 0.064 3 
0.474 -0.206 0.064 3 
0.275 0.046 0.054 3 
0.476 -0.216 0.064 3 
0.476 -0.225 0.064 3 
0.474 -0.236 0.064 3 
0.265 0.075 0.037 3 
0.476 -0.24 0.064 3 
0.477 -0.247 0.064 3 
0.478 -0.257 0.064 3 
0.477 -0.266 0.064 3 
0.473 -0.185 0.064 3 
0.478 -0.286 0.064 3 
0.483 -0.316 0.064 3 
0.484 -0.328 0.064 3 
0.245 0.084 0.054 3 
0.484 -0.335 0.064 3 
0.485 -0.35 0.064 3 
0.465 0.003 0.023 3 
0.293 0.044 0.058 3 
0.465 0.03 0.06 3 
0.476 0.061 0.058 3 
0.268 0.085 0.027 3 
0.465 0.014 0.063 3 
0.465 0.003 0.063 3 
0.464 0 0.063 3 
0.466 -0.007 0.063 3 
0.467 -0.015 0.063 3 
0.469 -0.026 0.063 3 
0.468 -0.036 0.063 3 
0.468 -0.047 0.063 3 
0.469 -0.066 0.063 3 
0.468 -0.077 0.063 3 
0.469 -0.116 0.074 3 
0.469 -0.085 0.063 3 
0.469 -0.096 0.063 3 
0.469 -0.107 0.063 3 
0.47 -0.116 0.063 3 
0.471 -0.127 0.063 3 
0.471 -0.135 0.063 3 
0.472 -0.147 0.063 3 
0.473 -0.156 0.063 3 
0.472 -0.167 0.063 3 
0.475 -0.192 0.083 3 
0.468 -0.085 0.082 3 
0.469 -0.096 0.082 3 
0.47 -0.105 0.082 3 
0.464 -0.015 0.023 3 
0.468 -0.126 0.082 3 
0.47 -0.135 0.082 3 
0.472 -0.156 0.083 3 
0.473 -0.168 0.083 3 
0.473 -0.176 0.083 3 
0.474 -0.185 0.083 3 
0.467 -0.077 0.082 3 
0.475 -0.195 0.083 3 
0.476 -0.207 0.083 3 
0.475 -0.216 0.083 3 
0.474 -0.218 0.083 3 
0.472 -0.225 0.083 3 
0.474 -0.236 0.083 3 
0.475 -0.252 0.084 3 
0.477 -0.257 0.084 3 
0.477 -0.266 0.084 3 
0.476 -0.275 0.084 3 
0.245 0.078 0.064 3 
0.462 0.043 0.084 3 
0.463 0.032 0.084 3 
0.464 -0.031 0.002 3 
0.464 0.024 0.084 3 
0.463 0.014 0.084 3 
0.464 0.003 0.084 3 
0.465 -0.001 0.084 3 
0.465 -0.007 0.084 3 
0.466 -0.015 0.084 3 
0.466 -0.025 0.084 3 
0.477 -0.285 0.084 3 
0.469 -0.116 0.082 3 
0.245 0.074 0.064 3 
0.249 0.064 0.064 3 
0.306 0.056 0.069 3 
0.466 -0.036 0.082 3 
0.468 -0.047 0.082 3 
0.468 -0.055 0.082 3 
0.467 -0.066 0.082 3 
0.467 -0.025 0.074 3 
0.458 0.074 0.073 3 
0.462 0.053 0.073 3 
0.462 0.043 0.073 3 
0.463 0.032 0.073 3 
0.464 0.024 0.074 3 
0.465 0.019 0.074 3 
0.465 0.014 0.074 3 
0.466 0.003 0.074 3 
0.465 -0.007 0.074 3 
0.466 -0.015 0.074 3 
0.474 0.081 0.074 3 
0.468 -0.036 0.074 3 
0.485 -0.325 0.064 3 
0.469 -0.047 0.074 3 
0.469 -0.055 0.074 3 
0.244 0.089 0.044 3 
0.469 -0.096 0.074 3 
0.475 -0.24 0.075 3 
0.469 -0.107 0.074 3 
0.265 0.055 0.064 3 
0.479 -0.297 0.084 3 
0.255 0.061 0.064 3 
0.475 0.086 0.08 3 
0.465 0.011 0.079 3 
0.474 -0.2 0.08 3 
0.48 -0.308 0.082 3 
0.482 -0.316 0.082 3 
0.484 -0.335 0.082 3 
0.485 -0.339 0.082 3 
0.486 -0.347 0.082 3 
0.265 0.095 0.018 3 
0.265 0.054 0.064 3 
0.275 0.05 0.064 3 
0.307 0.052 0.066 3 
0.472 0.083 0.077 3 
0.475 -0.225 0.078 3 
0.485 -0.325 0.079 3 
0.264 0.054 0.063 3 
0.305 0.056 0.026 3 
0.287 0.049 0.064 3 
