# .PCD v0.7 - Point Cloud Data file
FIELDS x y z intensity
SIZE 4 4 4 4
TYPE F F F F
COUNT 1 1 1 1
WIDTH 2464
HEIGHT 1
VIEWPOINT 0 0 0 1 0 0 0
POINTS 2464
DATA ascii
0.504 -0.044 0.073 0 
0.377 -0.205 -0.025 1 
0.364 -0.109 -0.017 1 
0.361 -0.062 -0.015 1 
0.352 -0.026 -0.012 1 
0.354 0.058 -0.013 1 
0.353 0.104 -0.014 1 
0.35 0.124 -0.013 1 
0.35 0.163 -0.015 1 
0.342 0.203 -0.015 1 
0.383 -0.249 -0.027 1 
0.382 -0.225 -0.025 1 
0.373 -0.187 -0.021 1 
0.371 -0.175 -0.02 1 
0.374 -0.146 -0.02 1 
0.373 -0.136 -0.019 1 
0.372 -0.125 -0.018 1 
0.368 -0.115 -0.017 1 
0.364 -0.087 -0.015 1 
0.365 -0.063 -0.015 1 
0.362 -0.055 -0.014 1 
0.363 -0.045 -0.014 1 
0.333 -0.005 -0.003 1 
0.353 0.034 -0.011 1 
0.353 0.037 -0.011 1 
0.361 0.072 -0.014 1 
0.362 0.075 -0.015 1 
0.359 0.084 -0.014 1 
0.361 0.094 -0.015 1 
0.354 0.128 -0.013 1 
0.353 0.172 -0.015 1 
0.352 0.173 -0.014 1 
0.352 0.179 -0.015 1 
0.347 0.205 -0.014 1 
0.383 -0.206 -0.023 1 
0.383 -0.196 -0.023 1 
0.373 -0.085 -0.016 1 
0.369 -0.045 -0.014 1 
0.37 -0.043 -0.015 1 
0.36 -0.025 -0.011 1 
0.342 -0.01 -0.005 1 
0.338 0.018 -0.005 1 
0.336 -0.005 -0.003 1 
0.353 0.024 -0.009 1 
0.363 0.044 -0.013 1 
0.363 0.053 -0.013 1 
0.367 0.078 -0.015 1 
0.365 0.107 -0.014 1 
0.364 0.118 -0.014 1 
0.364 0.126 -0.015 1 
0.361 0.133 -0.014 1 
0.364 0.151 -0.015 1 
0.359 0.184 -0.015 1 
0.363 0.194 -0.017 1 
0.354 0.212 -0.015 1 
0.353 0.216 -0.015 1 
0.393 -0.26 -0.027 1 
0.394 -0.232 -0.025 1 
0.384 -0.164 -0.02 1 
0.383 -0.126 -0.018 1 
0.384 -0.116 -0.019 1 
0.383 -0.105 -0.018 1 
0.379 -0.095 -0.016 1 
0.382 -0.085 -0.017 1 
0.382 -0.077 -0.017 1 
0.373 -0.036 -0.014 1 
0.353 -0.016 -0.007 1 
0.346 -0.006 -0.005 1 
0.341 -0.004 -0.003 1 
0.345 0.019 -0.004 1 
0.357 0.022 -0.009 1 
0.364 0.03 -0.011 1 
0.37 0.053 -0.013 1 
0.374 0.096 -0.015 1 
0.371 0.124 -0.015 1 
0.361 0.222 -0.016 1 
0.362 0.226 -0.017 1 
0.404 -0.256 -0.027 1 
0.397 -0.235 -0.024 1 
0.394 -0.217 -0.023 1 
0.392 -0.207 -0.022 1 
0.391 -0.165 -0.02 1 
0.39 -0.115 -0.018 1 
0.381 -0.069 -0.015 1 
0.38 -0.066 -0.014 1 
0.382 -0.055 -0.015 1 
0.381 -0.047 -0.015 1 
0.371 -0.025 -0.011 1 
0.362 -0.015 -0.008 1 
0.361 -0.004 -0.008 1 
0.325 -0.001 0.003 1 
0.324 0.004 0.003 1 
0.324 0.01 0.003 1 
0.325 0.014 0.003 1 
0.373 0.034 -0.012 1 
0.374 0.043 -0.013 1 
0.38 0.113 -0.016 1 
0.374 0.138 -0.015 1 
0.372 0.144 -0.014 1 
0.372 0.151 -0.014 1 
0.374 0.156 -0.015 1 
0.371 0.184 -0.016 1 
0.368 0.214 -0.016 1 
0.406 -0.255 -0.026 1 
0.406 -0.234 -0.025 1 
0.384 -0.215 -0.023 1 
0.403 -0.228 -0.024 1 
0.399 -0.215 -0.022 1 
0.394 -0.176 -0.019 1 
0.394 -0.125 -0.018 1 
0.394 -0.106 -0.018 1 
0.39 -0.075 -0.016 1 
0.388 -0.065 -0.015 1 
0.389 -0.055 -0.015 1 
0.384 -0.038 -0.014 1 
0.383 -0.026 -0.014 1 
0.371 -0.016 -0.01 1 
0.374 -0.005 -0.011 1 
0.38 0.044 -0.013 1 
0.383 0.053 -0.014 1 
0.383 0.073 -0.014 1 
0.384 0.083 -0.015 1 
0.383 0.084 -0.014 1 
0.384 0.099 -0.015 1 
0.382 0.122 -0.015 1 
0.38 0.138 -0.015 1 
0.377 0.144 -0.014 1 
0.381 0.163 -0.016 1 
0.375 0.174 -0.014 1 
0.372 0.223 -0.016 1 
0.372 0.232 -0.016 1 
0.372 0.237 -0.016 1 
0.414 -0.269 -0.026 1 
0.412 -0.248 -0.025 1 
0.402 -0.206 -0.02 1 
0.403 -0.197 -0.02 1 
0.401 -0.165 -0.019 1 
0.402 -0.157 -0.019 1 
0.4 -0.146 -0.018 1 
0.399 -0.137 -0.018 1 
0.403 -0.115 -0.018 1 
0.399 -0.085 -0.017 1 
0.393 -0.05 -0.015 1 
0.392 -0.045 -0.014 1 
0.393 -0.04 -0.014 1 
0.395 -0.032 -0.015 1 
0.394 -0.03 -0.015 1 
0.381 -0.016 -0.011 1 
0.38 -0.007 -0.011 1 
0.352 0.136 -0.014 1 
0.384 0.024 -0.012 1 
0.383 0.033 -0.012 1 
0.392 0.103 -0.016 1 
0.391 0.113 -0.015 1 
0.381 0.179 -0.014 1 
0.373 0.153 -0.015 1 
0.377 0.233 -0.016 1 
0.379 0.242 -0.017 1 
0.414 -0.286 -0.025 1 
0.414 -0.283 -0.025 1 
0.414 -0.274 -0.024 1 
0.421 -0.256 -0.025 1 
0.413 -0.238 -0.022 1 
0.403 -0.185 -0.018 1 
0.404 -0.181 -0.018 1 
0.404 -0.095 -0.016 1 
0.403 -0.076 -0.016 1 
0.401 -0.066 -0.015 1 
0.4 -0.051 -0.015 1 
0.399 -0.045 -0.014 1 
0.4 -0.037 -0.015 1 
0.394 -0.026 -0.013 1 
0.391 -0.015 -0.012 1 
0.393 -0.007 -0.013 1 
0.394 0.062 -0.013 1 
0.394 0.08 -0.014 1 
0.394 0.093 -0.014 1 
0.396 0.104 -0.015 1 
0.395 0.119 -0.015 1 
0.394 0.123 -0.014 1 
0.394 0.127 -0.015 1 
0.393 0.133 -0.014 1 
0.393 0.144 -0.015 1 
0.392 0.15 -0.014 1 
0.392 0.154 -0.015 1 
0.391 0.155 -0.014 1 
0.392 0.163 -0.015 1 
0.388 0.174 -0.014 1 
0.388 0.183 -0.015 1 
0.387 0.202 -0.015 1 
0.384 0.25 -0.016 1 
0.422 -0.298 -0.025 1 
0.421 -0.294 -0.025 1 
0.421 -0.285 -0.024 1 
0.424 -0.268 -0.024 1 
0.42 -0.247 -0.022 1 
0.419 -0.241 -0.022 1 
0.411 -0.225 -0.019 1 
0.361 -0.006 -0.008 1 
0.41 -0.215 -0.019 1 
0.41 -0.205 -0.018 1 
0.41 -0.195 -0.018 1 
0.412 -0.187 -0.018 1 
0.411 -0.165 -0.017 1 
0.411 -0.146 -0.017 1 
0.39 -0.246 -0.027 1 
0.413 -0.115 -0.017 1 
0.41 -0.096 -0.016 1 
0.411 -0.085 -0.016 1 
0.408 -0.071 -0.015 1 
0.406 -0.066 -0.014 1 
0.407 -0.053 -0.015 1 
0.404 -0.039 -0.014 1 
0.402 -0.026 -0.013 1 
0.401 0.053 -0.013 1 
0.4 0.074 -0.013 1 
0.402 0.111 -0.015 1 
0.373 -0.106 -0.018 1 
0.399 0.123 -0.014 1 
0.398 0.162 -0.015 1 
0.394 0.192 -0.015 1 
0.393 0.194 -0.014 1 
0.391 0.201 -0.014 1 
0.392 0.205 -0.014 1 
0.393 0.222 -0.015 1 
0.391 0.243 -0.016 1 
0.389 0.253 -0.016 1 
0.429 -0.306 -0.025 1 
0.424 -0.282 -0.022 1 
0.419 -0.225 -0.019 1 
0.418 -0.217 -0.019 1 
0.414 -0.077 -0.015 1 
0.411 -0.045 -0.014 1 
0.399 -0.009 -0.01 1 
0.43 -0.008 -0.019 1 
0.404 0.028 -0.012 1 
0.41 0.104 -0.015 1 
0.39 0.024 -0.012 1 
0.404 0.144 -0.014 1 
0.404 0.153 -0.014 1 
0.403 0.164 -0.014 1 
0.404 0.174 -0.015 1 
0.403 0.178 -0.014 1 
0.404 0.184 -0.015 1 
0.402 0.192 -0.015 1 
0.401 0.193 -0.014 1 
0.404 0.223 -0.016 1 
0.404 0.23 -0.017 1 
0.393 0.258 -0.015 1 
0.432 -0.306 -0.023 1 
0.433 -0.286 -0.022 1 
0.434 -0.278 -0.022 1 
0.43 -0.257 -0.02 1 
0.433 -0.237 -0.021 1 
0.424 -0.196 -0.017 1 
0.422 -0.155 -0.016 1 
0.394 0.214 -0.015 1 
0.424 -0.125 -0.016 1 
0.422 -0.105 -0.015 1 
0.424 -0.085 -0.015 1 
0.422 -0.075 -0.015 1 
0.423 -0.066 -0.015 1 
0.411 -0.025 -0.012 1 
0.409 -0.012 -0.011 1 
0.414 0.033 -0.013 1 
0.414 0.042 -0.013 1 
0.413 0.053 -0.012 1 
0.412 0.064 -0.012 1 
0.412 0.073 -0.012 1 
0.412 0.082 -0.013 1 
0.414 0.101 -0.013 1 
0.412 0.132 -0.013 1 
0.411 0.143 -0.013 1 
0.415 0.153 -0.015 1 
0.414 0.154 -0.014 1 
0.41 0.164 -0.014 1 
0.411 0.179 -0.014 1 
0.411 0.182 -0.015 1 
0.402 0.213 -0.013 1 
0.411 0.234 -0.016 1 
0.405 0.247 -0.015 1 
0.401 0.264 -0.015 1 
0.401 0.269 -0.015 1 
0.433 -0.226 -0.018 1 
0.433 -0.224 -0.018 1 
0.433 -0.206 -0.017 1 
0.432 -0.197 -0.017 1 
0.431 -0.186 -0.016 1 
0.404 -0.25 -0.025 1 
0.428 -0.156 -0.015 1 
0.429 -0.147 -0.015 1 
0.43 -0.086 -0.015 1 
0.429 -0.077 -0.014 1 
0.424 -0.057 -0.013 1 
0.384 -0.186 -0.02 1 
0.393 -0.146 -0.018 1 
0.402 0.103 -0.014 1 
0.423 -0.036 -0.012 1 
0.419 -0.026 -0.012 1 
0.415 -0.021 -0.011 1 
0.416 -0.012 -0.011 1 
0.324 0.013 0.013 1 
0.334 -0.01 -0.005 1 
0.325 0.014 0.013 1 
0.419 0.094 -0.012 1 
0.419 0.103 -0.013 1 
0.418 0.124 -0.013 1 
0.415 0.233 -0.015 1 
0.412 0.243 -0.015 1 
0.409 0.262 -0.015 1 
0.411 0.272 -0.016 1 
0.409 0.278 -0.015 1 
0.443 -0.3 -0.02 1 
0.434 -0.175 -0.015 1 
0.435 -0.165 -0.015 1 
0.435 -0.158 -0.015 1 
0.434 -0.155 -0.014 1 
0.436 -0.146 -0.015 1 
0.437 -0.136 -0.015 1 
0.437 -0.128 -0.015 1 
0.434 -0.105 -0.014 1 
0.434 -0.1 -0.013 1 
0.434 -0.085 -0.013 1 
0.432 -0.065 -0.013 1 
0.352 0.175 -0.014 1 
0.431 -0.046 -0.012 1 
0.445 -0.014 -0.016 1 
0.326 0.016 0.014 1 
0.423 -0.175 -0.016 1 
0.424 0.042 -0.011 1 
0.424 0.063 -0.011 1 
0.423 0.074 -0.011 1 
0.423 0.153 -0.012 1 
0.42 0.164 -0.012 1 
0.421 0.182 -0.013 1 
0.414 0.209 -0.011 1 
0.419 0.234 -0.014 1 
0.416 0.28 -0.015 1 
0.381 0.124 -0.014 1 
0.412 0.282 -0.014 1 
0.416 -0.208 -0.018 1 
0.449 -0.306 -0.019 1 
0.443 -0.275 -0.017 1 
0.44 -0.255 -0.015 1 
0.443 -0.237 -0.015 1 
0.444 -0.217 -0.015 1 
0.443 -0.211 -0.015 1 
0.442 -0.194 -0.014 1 
0.444 -0.187 -0.015 1 
0.4 -0.016 -0.011 1 
0.445 -0.185 -0.015 1 
0.445 -0.177 -0.015 1 
0.44 -0.166 -0.013 1 
0.442 -0.157 -0.014 1 
0.442 -0.146 -0.014 1 
0.444 -0.137 -0.014 1 
0.442 -0.126 -0.013 1 
0.44 -0.117 -0.013 1 
0.439 -0.097 -0.012 1 
0.424 0.079 -0.011 1 
0.438 -0.087 -0.012 1 
0.441 -0.075 -0.013 1 
0.374 0.18 -0.014 1 
0.438 -0.067 -0.012 1 
0.437 -0.057 -0.012 1 
0.399 0.063 -0.013 1 
0.44 -0.035 -0.012 1 
0.429 -0.013 -0.01 1 
0.499 -0.011 -0.028 1 
0.433 0.043 -0.011 1 
0.432 0.053 -0.011 1 
0.43 0.064 -0.01 1 
0.429 0.073 -0.01 1 
0.432 0.084 -0.011 1 
0.409 -0.055 -0.015 1 
0.432 0.094 -0.011 1 
0.43 0.144 -0.011 1 
0.429 0.154 -0.011 1 
0.424 0.194 -0.011 1 
0.42 0.203 -0.01 1 
0.42 0.211 -0.011 1 
0.424 0.217 -0.012 1 
0.421 0.244 -0.012 1 
0.419 0.253 -0.012 1 
0.422 0.272 -0.013 1 
0.421 0.283 -0.014 1 
0.454 -0.335 -0.019 1 
0.452 -0.329 -0.018 1 
0.453 -0.32 -0.018 1 
0.449 -0.287 -0.016 1 
0.443 -0.266 -0.014 1 
0.444 -0.255 -0.014 1 
0.45 -0.238 -0.015 1 
0.45 -0.226 -0.014 1 
0.45 -0.196 -0.014 1 
0.451 -0.186 -0.014 1 
0.451 -0.156 -0.013 1 
0.451 -0.146 -0.013 1 
0.424 0.053 -0.011 1 
0.441 -0.026 -0.01 1 
0.495 -0.01 -0.024 1 
0.438 0.064 -0.01 1 
0.437 0.073 -0.01 1 
0.438 0.083 -0.01 1 
0.438 0.103 -0.01 1 
0.431 0.173 -0.01 1 
0.431 0.223 -0.011 1 
0.431 0.234 -0.012 1 
0.429 0.274 -0.012 1 
0.423 0.294 -0.012 1 
0.458 -0.309 -0.016 1 
0.454 -0.298 -0.015 1 
0.454 -0.295 -0.014 1 
0.422 0.133 -0.011 1 
0.452 -0.266 -0.013 1 
0.447 -0.255 -0.012 1 
0.454 -0.238 -0.013 1 
0.454 -0.216 -0.013 1 
0.454 -0.205 -0.012 1 
0.453 -0.115 -0.011 1 
0.454 -0.107 -0.011 1 
0.454 -0.097 -0.011 1 
0.441 -0.206 -0.014 1 
0.454 -0.086 -0.011 1 
0.454 -0.066 -0.011 1 
0.453 -0.035 -0.01 1 
0.439 0.03 -0.007 1 
0.441 0.035 -0.008 1 
0.444 0.123 -0.009 1 
0.442 0.133 -0.009 1 
0.446 0.043 -0.009 1 
0.442 0.143 -0.009 1 
0.437 0.164 -0.009 1 
0.433 0.192 -0.008 1 
0.433 0.203 -0.009 1 
0.431 0.212 -0.008 1 
0.434 0.245 -0.01 1 
0.465 -0.337 -0.015 1 
0.377 -0.2 -0.025 1 
0.463 -0.324 -0.015 1 
0.381 0.184 -0.015 1 
0.464 -0.315 -0.014 1 
0.459 -0.297 -0.013 1 
0.453 -0.282 -0.011 1 
0.459 -0.236 -0.011 1 
0.461 -0.156 -0.011 1 
0.459 -0.136 -0.01 1 
0.46 -0.115 -0.01 1 
0.461 -0.097 -0.01 1 
0.46 -0.075 -0.01 1 
0.541 -0.019 -0.028 1 
0.453 0.034 -0.008 1 
0.453 0.054 -0.008 1 
0.452 0.062 -0.008 1 
0.453 0.072 -0.008 1 
0.454 0.083 -0.009 1 
0.452 0.093 -0.008 1 
0.452 0.103 -0.009 1 
0.452 0.114 -0.009 1 
0.444 0.173 -0.008 1 
0.411 0.194 -0.015 1 
0.441 0.182 -0.008 1 
0.438 0.191 -0.007 1 
0.442 0.213 -0.008 1 
0.434 0.303 -0.01 1 
0.363 -0.075 -0.016 1 
0.472 -0.317 -0.013 1 
0.464 -0.217 -0.009 1 
0.379 -0.237 -0.027 1 
0.464 -0.055 -0.008 1 
0.461 -0.036 -0.007 1 
0.462 -0.025 -0.007 1 
0.453 0.133 -0.007 1 
0.452 0.153 -0.007 1 
0.444 0.242 -0.007 1 
0.444 0.274 -0.008 1 
0.444 0.283 -0.008 1 
0.442 0.293 -0.008 1 
0.473 -0.335 -0.011 1 
0.432 0.133 -0.012 1 
0.443 0.261 -0.007 1 
0.474 -0.326 -0.011 1 
0.472 -0.247 -0.009 1 
0.471 -0.237 -0.008 1 
0.469 -0.116 -0.006 1 
0.47 -0.105 -0.007 1 
0.468 -0.066 -0.006 1 
0.467 -0.055 -0.006 1 
0.467 -0.047 -0.006 1 
0.466 -0.036 -0.006 1 
0.469 -0.026 -0.006 1 
0.56 -0.016 -0.025 1 
0.556 -0.012 -0.025 1 
0.36 0.003 0.016 1 
0.461 0.042 -0.005 1 
0.461 0.064 -0.005 1 
0.421 -0.145 -0.015 1 
0.46 0.114 -0.005 1 
0.46 0.122 -0.005 1 
0.457 0.142 -0.005 1 
0.457 0.153 -0.005 1 
0.455 0.166 -0.005 1 
0.453 0.173 -0.005 1 
0.394 0.233 -0.016 1 
0.452 0.184 -0.005 1 
0.454 0.193 -0.005 1 
0.454 0.196 -0.005 1 
0.455 0.202 -0.006 1 
0.414 0.094 -0.013 1 
0.455 0.205 -0.006 1 
0.453 0.212 -0.006 1 
0.453 0.224 -0.006 1 
0.451 0.234 -0.006 1 
0.449 0.243 -0.005 1 
0.449 0.252 -0.006 1 
0.448 0.263 -0.006 1 
0.448 0.272 -0.006 1 
0.445 0.296 -0.006 1 
0.444 0.314 -0.007 1 
0.444 0.317 -0.007 1 
0.473 -0.356 -0.009 1 
0.474 -0.35 -0.009 1 
0.458 0.132 -0.005 1 
0.474 -0.289 -0.007 1 
0.473 -0.275 -0.007 1 
0.413 -0.176 -0.018 1 
0.475 -0.255 -0.007 1 
0.476 -0.247 -0.007 1 
0.476 -0.237 -0.006 1 
0.475 -0.234 -0.006 1 
0.472 -0.226 -0.006 1 
0.471 -0.216 -0.005 1 
0.471 -0.196 -0.005 1 
0.471 -0.176 -0.005 1 
0.472 -0.15 -0.005 1 
0.543 -0.015 -0.019 1 
0.39 -0.226 -0.024 1 
0.387 -0.001 0.012 1 
0.453 0.244 -0.004 1 
0.453 0.253 -0.004 1 
0.454 0.262 -0.004 1 
0.453 0.28 -0.005 1 
0.492 -0.01 -0.031 1 
0.452 0.282 -0.004 1 
0.452 0.288 -0.005 1 
0.447 0.314 -0.005 1 
0.446 0.319 -0.005 1 
0.476 -0.356 -0.006 1 
0.479 -0.345 -0.007 1 
0.478 -0.336 -0.006 1 
0.479 -0.327 -0.006 1 
0.394 0.043 -0.013 1 
0.48 -0.318 -0.006 1 
0.409 0.253 -0.014 1 
0.476 -0.307 -0.005 1 
0.476 -0.297 -0.005 1 
0.476 -0.291 -0.005 1 
0.474 -0.207 -0.003 1 
0.512 -0.008 -0.009 1 
0.462 0.032 0 1 
0.466 0.043 0 1 
0.452 0.313 -0.003 1 
0.45 0.324 -0.003 1 
0.486 -0.293 -0.003 1 
0.475 -0.195 0 1 
0.475 -0.184 0 1 
0.461 0.093 -0.005 1 
0.475 -0.093 0 1 
0.478 -0.026 0 1 
0.485 -0.024 -0.001 1 
0.483 -0.021 -0.001 1 
0.526 -0.018 -0.009 1 
0.389 -0.155 -0.019 1 
0.463 0.043 0.002 1 
0.466 0.073 0.001 1 
0.465 0.083 0.001 1 
0.465 0.089 0.001 1 
0.465 0.124 0.001 1 
0.465 0.13 0.001 1 
0.454 0.302 0 1 
0.453 0.327 0 1 
0.474 -0.198 0.002 1 
0.473 -0.185 0.002 1 
0.474 -0.177 0.002 1 
0.474 -0.157 0.002 1 
0.472 -0.145 0.003 1 
0.374 -0.211 -0.024 1 
0.42 0.113 -0.013 1 
0.47 -0.086 0.003 1 
0.413 -0.126 -0.017 1 
0.472 -0.026 0.003 1 
0.495 -0.022 0 1 
0.464 -0.175 -0.009 1 
0.463 0.072 0.004 1 
0.462 0.093 0.004 1 
0.461 0.104 0.004 1 
0.461 0.114 0.004 1 
0.464 0.124 0.004 1 
0.462 0.154 0.003 1 
0.461 0.173 0.003 1 
0.461 0.184 0.003 1 
0.461 0.192 0.003 1 
0.461 0.204 0.003 1 
0.46 0.223 0.003 1 
0.46 0.232 0.003 1 
0.46 0.244 0.002 1 
0.38 -0.176 -0.019 1 
0.461 0.262 0.002 1 
0.481 -0.319 0.002 1 
0.479 -0.307 0.002 1 
0.478 -0.286 0.003 1 
0.477 -0.275 0.003 1 
0.493 -0.025 0.002 1 
0.522 -0.024 -0.002 1 
0.391 0.083 -0.015 1 
0.499 -0.01 -0.007 1 
0.46 0.274 0.004 1 
0.46 0.283 0.004 1 
0.459 0.291 0.004 1 
0.458 0.303 0.004 1 
0.459 0.314 0.004 1 
0.456 0.324 0.004 1 
0.359 0.104 -0.014 1 
0.481 -0.332 0.004 1 
0.499 -0.028 0.004 1 
0.508 -0.023 0.003 1 
0.45 -0.047 -0.012 1 
0.471 -0.306 -0.01 1 
0.371 0.024 -0.012 1 
0.462 0.072 -0.005 1 
0.462 0.053 -0.005 1 
0.431 0.294 -0.011 1 
0.398 -0.239 -0.025 1 
0.394 0.074 -0.014 1 
0.517 -0.024 0.005 1 
0.525 -0.021 0.003 1 
0.36 -0.116 -0.016 1 
0.487 -0.298 -0.001 1 
0.464 -0.047 -0.008 1 
0.459 -0.067 -0.009 1 
0.408 0.204 -0.012 1 
0.382 -0.146 -0.019 1 
0.461 -0.086 -0.01 1 
0.45 -0.166 -0.013 1 
0.459 -0.125 -0.01 1 
0.39 -0.096 -0.016 1 
0.46 -0.145 -0.01 1 
0.38 0.187 -0.014 1 
0.469 -0.107 0.014 1 
0.477 -0.093 0.013 1 
0.502 -0.029 0.01 1 
0.364 0.124 -0.015 1 
0.506 -0.026 0.009 1 
0.51 -0.023 0.009 1 
0.531 -0.021 0.006 1 
0.389 0.172 -0.015 1 
0.469 -0.085 -0.006 1 
0.409 0.259 -0.014 1 
0.46 -0.167 -0.01 1 
0.461 -0.187 -0.011 1 
0.463 -0.205 -0.009 1 
0.46 -0.225 -0.011 1 
0.464 -0.246 -0.01 1 
0.464 -0.286 -0.011 1 
0.443 0.253 -0.007 1 
0.493 -0.104 0.014 1 
0.504 -0.098 0.013 1 
0.503 -0.092 0.013 1 
0.363 -0.125 -0.017 1 
0.414 0.124 -0.014 1 
0.432 0.184 -0.01 1 
0.384 -0.046 -0.014 1 
0.424 -0.099 -0.015 1 
0.398 -0.106 -0.017 1 
0.374 -0.082 -0.016 1 
0.472 -0.159 -0.005 1 
0.407 0.114 -0.014 1 
0.43 -0.135 -0.015 1 
0.371 0.114 -0.015 1 
0.442 0.204 -0.008 1 
0.51 -0.106 0.018 1 
0.515 -0.101 0.017 1 
0.37 0.133 -0.015 1 
0.464 -0.255 -0.01 1 
0.464 -0.2 -0.009 1 
0.432 0.103 -0.011 1 
0.439 -0.268 -0.018 1 
0.444 0.088 -0.009 1 
0.443 -0.319 -0.021 1 
0.402 0.134 -0.013 1 
0.51 -0.094 0.018 1 
0.433 -0.246 -0.021 1 
0.453 0.143 -0.007 1 
0.397 0.204 -0.011 1 
0.456 -0.304 -0.015 1 
0.475 -0.193 0 1 
0.373 -0.096 -0.016 1 
0.354 0.094 -0.014 1 
0.398 -0.125 -0.017 1 
0.364 0.086 -0.014 1 
0.384 0.153 -0.014 1 
0.45 -0.135 -0.013 1 
0.442 -0.245 -0.015 1 
0.327 0.016 0.004 1 
0.411 -0.105 -0.016 1 
0.342 -0.015 -0.006 1 
0.352 0.114 -0.014 1 
0.453 -0.017 -0.011 1 
0.361 0.112 -0.013 1 
0.424 -0.257 -0.024 1 
0.433 0.284 -0.011 1 
0.429 -0.127 -0.015 1 
0.363 -0.066 -0.016 1 
0.441 0.153 -0.009 1 
0.437 -0.18 -0.015 1 
0.349 0.164 -0.014 1 
0.423 -0.045 -0.012 1 
0.34 0.019 -0.004 1 
0.412 -0.036 -0.014 1 
0.358 0.144 -0.015 1 
0.391 0.034 -0.012 1 
0.353 0.054 -0.013 1 
0.391 -0.196 -0.021 1 
0.439 -0.045 -0.012 1 
0.392 -0.135 -0.017 1 
0.451 -0.23 -0.015 1 
0.399 0.243 -0.016 1 
0.37 -0.065 -0.015 1 
0.359 0.203 -0.016 1 
0.49 -0.094 0.012 1 
0.439 0.054 -0.01 1 
0.379 0.133 -0.014 1 
0.449 -0.278 -0.015 1 
0.431 0.113 -0.011 1 
0.463 -0.327 -0.015 1 
0.444 -0.198 -0.015 1 
0.431 0.123 -0.011 1 
0.348 0.204 -0.015 1 
0.4 0.214 -0.015 1 
0.401 -0.056 -0.015 1 
0.403 -0.246 -0.024 1 
0.393 0.137 -0.014 1 
0.459 0.334 0.003 1 
0.372 0.204 -0.017 1 
0.474 -0.166 0.002 1 
0.388 0.124 -0.015 1 
0.37 0.064 -0.013 1 
0.401 0.113 -0.014 1 
0.413 0.221 -0.014 1 
0.434 -0.172 -0.015 1 
0.347 0.194 -0.016 1 
0.413 -0.136 -0.017 1 
0.434 -0.266 -0.022 1 
0.453 -0.125 -0.011 1 
0.381 0.202 -0.015 1 
0.474 -0.295 -0.007 1 
0.353 0.139 -0.015 1 
0.464 -0.02 -0.008 1 
0.432 -0.037 -0.013 1 
0.382 0.193 -0.015 1 
0.552 -0.012 -0.02 1 
0.418 -0.165 -0.017 1 
0.475 -0.095 0 1 
0.469 -0.127 -0.007 1 
0.475 -0.161 0 1 
0.371 0.093 -0.014 1 
0.433 0.162 -0.01 1 
0.42 0.173 -0.012 1 
0.364 0.163 -0.016 1 
0.414 0.172 -0.013 1 
0.422 -0.266 -0.026 1 
0.433 0.305 -0.009 1 
0.423 -0.136 -0.016 1 
0.471 -0.097 0.003 1 
0.472 -0.205 -0.005 1 
0.394 -0.237 -0.026 1 
0.358 0.174 -0.015 1 
0.461 -0.265 -0.012 1 
0.48 -0.298 0.002 1 
0.443 0.3 -0.006 1 
0.461 -0.335 -0.015 1 
0.45 -0.027 -0.01 1 
0.389 0.099 -0.014 1 
0.506 -0.096 0.012 1 
0.422 0.264 -0.013 1 
0.422 0.142 -0.012 1 
0.438 -0.285 -0.018 1 
0.434 -0.296 -0.023 1 
0.504 -0.107 0.016 1 
0.361 -0.095 -0.016 1 
0.46 0.253 0.002 1 
0.394 -0.038 -0.015 1 
0.454 -0.289 -0.011 1 
0.444 -0.019 -0.011 1 
0.461 -0.105 -0.01 1 
0.454 -0.076 -0.011 1 
0.41 -0.24 -0.026 1 
0.411 -0.155 -0.017 1 
0.375 0.134 -0.015 1 
0.411 -0.005 -0.016 1 
0.374 -0.055 -0.014 1 
0.462 0.162 0.003 1 
0.443 0.11 -0.009 1 
0.429 0.262 -0.012 1 
0.454 -0.06 -0.011 1 
0.471 -0.105 0.003 1 
0.424 -0.191 -0.017 1 
0.433 0.034 -0.008 1 
0.471 -0.097 0.014 1 
0.404 -0.272 -0.026 1 
0.394 0.045 -0.013 1 
0.403 0.171 -0.014 1 
0.45 -0.177 -0.014 1 
0.443 -0.306 -0.02 1 
0.43 -0.055 -0.012 1 
0.464 0.132 0.004 1 
0.377 -0.217 -0.025 1 
0.428 -0.025 -0.012 1 
0.374 -0.155 -0.02 1 
0.452 0.273 -0.004 1 
0.454 0.293 -0.002 1 
0.513 -0.098 0.018 1 
0.382 0.224 -0.017 1 
0.417 0.273 -0.015 1 
0.47 -0.187 -0.005 1 
0.446 -0.272 -0.015 1 
0.371 0.173 -0.015 1 
0.383 -0.165 -0.019 1 
0.463 0.143 0.004 1 
0.39 0.087 -0.015 1 
0.354 0.084 -0.014 1 
0.401 0.083 -0.014 1 
0.462 0.083 0.004 1 
0.473 -0.266 -0.006 1 
0.403 0.253 -0.015 1 
0.469 -0.135 -0.007 1 
0.389 -0.186 -0.02 1 
0.362 0.143 -0.014 1 
0.474 -0.264 -0.007 1 
0.393 -0.085 -0.017 1 
0.461 0.082 -0.005 1 
0.401 0.044 -0.013 1 
0.384 0.063 -0.014 1 
0.422 -0.117 -0.015 1 
0.387 0.184 -0.014 1 
0.384 0.214 -0.017 1 
0.421 0.032 -0.01 1 
0.494 -0.016 -0.006 1 
0.38 -0.062 -0.014 1 
0.374 0.132 -0.014 1 
0.424 -0.277 -0.025 1 
0.443 0.224 -0.009 1 
0.472 -0.094 0.014 1 
0.443 -0.226 -0.015 1 
0.477 -0.018 -0.005 1 
0.372 0.191 -0.016 1 
0.457 0.034 -0.006 1 
0.471 -0.167 -0.005 1 
0.363 -0.036 -0.014 1 
0.383 0.094 -0.014 1 
0.455 0.164 -0.005 1 
0.456 -0.284 -0.009 1 
0.449 -0.245 -0.012 1 
0.422 -0.061 -0.015 1 
0.465 0.054 0.001 1 
0.44 -0.105 -0.013 1 
0.461 0.212 0.003 1 
0.434 0.239 -0.01 1 
0.382 0.174 -0.015 1 
0.469 -0.096 -0.006 1 
0.434 -0.167 -0.014 1 
0.451 0.124 -0.009 1 
0.362 0.214 -0.016 1 
0.434 -0.016 -0.011 1 
0.468 -0.077 -0.006 1 
0.411 -0.016 -0.009 1 
0.443 0.233 -0.009 1 
0.374 -0.171 -0.019 1 
0.434 -0.117 -0.014 1 
0.467 -0.036 0.004 1 
0.428 -0.122 -0.015 1 
0.473 -0.018 -0.007 1 
0.431 -0.096 -0.015 1 
0.46 0.103 -0.005 1 
0.37 0.083 -0.014 1 
0.371 0.072 -0.014 1 
0.383 -0.136 -0.019 1 
0.451 0.164 -0.007 1 
0.364 0.055 -0.013 1 
0.402 0.094 -0.014 1 
0.342 -0.005 0.066 2 
0.353 0.03 0.047 2 
0.355 0.007 0.018 2 
0.599 -0.021 0.098 2 
0.544 -0.029 0.063 2 
0.357 0.034 0.051 2 
0.359 -0.042 0.049 2 
0.406 -0.035 0.05 2 
0.35 -0.004 0.046 2 
0.369 0.053 0.05 2 
0.379 0.063 0.047 2 
0.561 -0.044 0.079 2 
0.564 -0.016 0.077 2 
0.378 -0.01 0.042 2 
0.553 -0.026 0.066 2 
0.355 0.036 0.051 2 
0.358 0.074 0.049 2 
0.358 0.041 0.047 2 
0.563 -0.037 0.072 2 
0.566 -0.027 0.072 2 
0.553 -0.016 0.07 2 
0.356 0.032 0.047 2 
0.409 -0.031 0.043 2 
0.399 -0.036 0.044 2 
0.35 -0.045 0.05 2 
0.37 0.053 0.048 2 
0.541 -0.042 0.031 2 
0.552 -0.04 0.069 2 
0.556 -0.026 0.069 2 
0.563 -0.019 0.069 2 
0.544 -0.015 0.067 2 
0.386 0.069 0.046 2 
0.381 0.066 0.047 2 
0.373 0.058 0.048 2 
0.386 -0.04 0.047 2 
0.582 -0.02 0.086 2 
0.393 -0.05 0.042 2 
0.382 -0.053 0.044 2 
0.566 -0.045 0.083 2 
0.57 -0.041 0.083 2 
0.577 -0.031 0.083 2 
0.582 -0.02 0.083 2 
0.585 -0.024 0.086 2 
0.401 -0.049 0.041 2 
0.559 -0.047 0.051 2 
0.566 -0.045 0.09 2 
0.579 -0.028 0.09 2 
0.591 -0.025 0.09 2 
0.595 -0.021 0.09 2 
0.571 -0.027 0.079 2 
0.343 -0.005 0.058 2 
0.36 -0.006 0.048 2 
0.373 -0.008 0.046 2 
0.448 -0.049 0.033 2 
0.427 -0.048 0.036 2 
0.416 -0.048 0.037 2 
0.413 -0.05 0.038 2 
0.345 -0.02 0.054 2 
0.368 -0.026 0.053 2 
0.383 -0.03 0.052 2 
0.402 -0.033 0.044 2 
0.447 -0.031 0.047 2 
0.348 -0.005 0.059 2 
0.37 0.055 0.052 2 
0.364 0.052 0.052 2 
0.4 0.072 0.047 2 
0.354 0.047 0.053 2 
0.35 0.031 0.053 2 
0.524 -0.04 0.028 2 
0.543 -0.015 0.06 2 
0.346 0.037 0.052 2 
0.337 -0.016 0.053 2 
0.386 -0.03 0.05 2 
0.383 -0.032 0.05 2 
0.531 -0.031 0.021 2 
0.535 -0.031 0.024 2 
0.545 -0.025 0.063 2 
0.547 -0.019 0.063 2 
0.343 0.014 0.021 2 
0.369 0.02 0.032 2 
0.365 0.004 0.017 2 
0.347 0.005 0.021 2 
0.346 0.018 0.038 2 
0.355 0.02 0.036 2 
0.351 0.022 0.037 2 
0.367 0.025 0.034 2 
0.366 0.009 0.012 2 
0.345 0.013 0.02 2 
0.591 -0.028 0.098 2 
0.598 -0.025 0.098 2 
0.392 0.034 0.034 2 
0.339 -0.004 0.049 2 
0.576 -0.035 0.083 2 
0.358 -0.023 0.053 2 
0.436 0.085 0.043 2 
0.432 0.096 0.035 2 
0.419 0.098 0.037 2 
0.43 0.093 0.036 2 
0.437 0.093 0.035 2 
0.438 0.081 0.034 2 
0.436 0.097 0.04 2 
0.43 0.088 0.041 2 
0.439 0.103 0.034 2 
0.479 -0.225 0.124 3 
0.475 -0.138 0.122 3 
0.476 -0.156 0.122 3 
0.475 -0.167 0.122 3 
0.476 -0.175 0.122 3 
0.477 -0.205 0.103 3 
0.478 -0.197 0.123 3 
0.478 -0.206 0.123 3 
0.478 -0.215 0.124 3 
0.474 -0.135 0.122 3 
0.479 -0.237 0.124 3 
0.479 -0.246 0.124 3 
0.479 -0.256 0.122 3 
0.479 -0.265 0.122 3 
0.477 -0.257 0.044 3 
0.48 -0.285 0.122 3 
0.483 -0.298 0.123 3 
0.484 -0.305 0.124 3 
0.487 -0.336 0.134 3 
0.48 -0.276 0.134 3 
0.309 -0.009 0.09 3 
0.474 -0.135 0.127 3 
0.481 -0.286 0.131 3 
0.483 -0.295 0.132 3 
0.484 -0.306 0.133 3 
0.487 -0.319 0.134 3 
0.486 -0.325 0.134 3 
0.485 -0.313 0.124 3 
0.486 -0.346 0.134 3 
0.472 -0.056 0.123 3 
0.472 -0.075 0.124 3 
0.473 -0.086 0.124 3 
0.473 -0.106 0.124 3 
0.474 -0.115 0.124 3 
0.474 -0.126 0.124 3 
0.276 0.022 0.08 3 
0.474 -0.146 0.111 3 
0.473 -0.126 0.113 3 
0.474 -0.137 0.113 3 
0.475 -0.146 0.114 3 
0.475 -0.155 0.114 3 
0.476 -0.166 0.114 3 
0.476 -0.175 0.114 3 
0.477 -0.185 0.114 3 
0.275 0.005 0.076 3 
0.473 -0.117 0.113 3 
0.322 0.034 0.042 3 
0.477 -0.196 0.112 3 
0.477 -0.205 0.112 3 
0.478 -0.215 0.112 3 
0.478 -0.227 0.112 3 
0.479 -0.237 0.113 3 
0.479 -0.256 0.113 3 
0.479 -0.265 0.113 3 
0.518 -0.064 0.026 3 
0.486 -0.318 0.124 3 
0.303 0.004 0.044 3 
0.469 -0.053 0.115 3 
0.487 -0.325 0.122 3 
0.486 -0.335 0.122 3 
0.466 -0.079 0.012 3 
0.486 -0.346 0.122 3 
0.477 -0.257 0.052 3 
0.474 -0.165 0.044 3 
0.47 -0.053 0.112 3 
0.47 -0.055 0.112 3 
0.47 -0.066 0.112 3 
0.471 -0.075 0.112 3 
0.472 -0.086 0.113 3 
0.469 -0.066 0.033 3 
0.473 -0.095 0.113 3 
0.473 -0.106 0.113 3 
0.481 -0.236 0.142 3 
0.479 -0.207 0.144 3 
0.511 -0.063 0.144 3 
0.478 -0.215 0.144 3 
0.479 -0.225 0.144 3 
0.268 0.004 0.084 3 
0.474 -0.121 0.138 3 
0.474 -0.129 0.138 3 
0.301 0.013 0.044 3 
0.474 -0.168 0.094 3 
0.48 -0.247 0.142 3 
0.48 -0.257 0.142 3 
0.48 -0.276 0.143 3 
0.482 -0.288 0.144 3 
0.472 -0.205 0.013 3 
0.483 -0.295 0.144 3 
0.481 -0.305 0.082 3 
0.473 -0.145 0.052 3 
0.479 -0.296 0.014 3 
0.475 -0.135 0.144 3 
0.484 -0.296 0.15 3 
0.486 -0.315 0.152 3 
0.487 -0.326 0.152 3 
0.487 -0.337 0.153 3 
0.488 -0.345 0.153 3 
0.472 -0.086 0.132 3 
0.478 -0.236 0.104 3 
0.271 -0.005 0.084 3 
0.29 0.004 0.054 3 
0.266 0.014 0.084 3 
0.476 -0.147 0.142 3 
0.477 -0.156 0.142 3 
0.476 -0.167 0.142 3 
0.476 -0.176 0.143 3 
0.476 -0.185 0.143 3 
0.479 -0.198 0.144 3 
0.478 -0.206 0.132 3 
0.476 -0.156 0.134 3 
0.476 -0.176 0.134 3 
0.476 -0.185 0.134 3 
0.597 -0.052 0.089 3 
0.484 -0.306 0.139 3 
0.474 -0.126 0.13 3 
0.481 -0.318 0.034 3 
0.478 -0.197 0.132 3 
0.476 -0.147 0.134 3 
0.475 -0.207 0.052 3 
0.478 -0.215 0.132 3 
0.479 -0.225 0.133 3 
0.48 -0.238 0.133 3 
0.479 -0.247 0.133 3 
0.479 -0.256 0.133 3 
0.48 -0.266 0.134 3 
0.484 -0.345 0.064 3 
0.275 -0.006 0.084 3 
0.474 -0.157 0.044 3 
0.472 -0.059 0.134 3 
0.471 -0.067 0.134 3 
0.471 -0.075 0.134 3 
0.485 -0.307 0.142 3 
0.486 -0.315 0.142 3 
0.486 -0.325 0.143 3 
0.487 -0.347 0.144 3 
0.479 -0.278 0.113 3 
0.287 -0.008 0.087 3 
0.473 -0.095 0.132 3 
0.474 -0.115 0.133 3 
0.475 -0.121 0.133 3 
0.471 -0.086 0.044 3 
0.475 -0.127 0.133 3 
0.475 -0.135 0.133 3 
0.474 -0.185 0.089 3 
0.482 -0.31 0.094 3 
0.483 -0.317 0.094 3 
0.483 -0.328 0.094 3 
0.483 -0.335 0.094 3 
0.485 -0.339 0.094 3 
0.485 -0.346 0.094 3 
0.285 0.019 0.069 3 
0.474 -0.16 0.088 3 
0.479 -0.297 0.093 3 
0.477 -0.266 0.012 3 
0.296 -0.005 0.069 3 
0.323 -0.006 0.07 3 
0.47 -0.047 0.082 3 
0.469 -0.055 0.082 3 
0.47 -0.066 0.082 3 
0.477 -0.217 0.092 3 
0.475 -0.166 0.094 3 
0.474 -0.177 0.094 3 
0.475 -0.186 0.094 3 
0.484 -0.336 0.097 3 
0.288 -0.005 0.071 3 
0.476 -0.196 0.092 3 
0.477 -0.208 0.092 3 
0.47 -0.075 0.082 3 
0.477 -0.226 0.092 3 
0.477 -0.235 0.092 3 
0.477 -0.247 0.092 3 
0.479 -0.286 0.044 3 
0.477 -0.257 0.092 3 
0.478 -0.267 0.093 3 
0.473 -0.125 0.044 3 
0.478 -0.277 0.093 3 
0.47 -0.047 0.074 3 
0.471 -0.097 0.074 3 
0.477 -0.247 0.084 3 
0.477 -0.257 0.084 3 
0.477 -0.266 0.084 3 
0.478 -0.276 0.084 3 
0.479 -0.287 0.084 3 
0.479 -0.297 0.084 3 
0.484 -0.345 0.085 3 
0.477 -0.235 0.084 3 
0.592 -0.055 0.088 3 
0.474 -0.185 0.08 3 
0.481 -0.315 0.082 3 
0.483 -0.327 0.082 3 
0.483 -0.337 0.082 3 
0.484 -0.345 0.082 3 
0.474 -0.165 0.083 3 
0.471 -0.086 0.082 3 
0.472 -0.097 0.082 3 
0.472 -0.105 0.083 3 
0.471 -0.116 0.083 3 
0.471 -0.125 0.083 3 
0.473 -0.136 0.083 3 
0.475 -0.149 0.083 3 
0.475 -0.157 0.083 3 
0.475 -0.157 0.094 3 
0.473 -0.176 0.083 3 
0.475 -0.186 0.083 3 
0.475 -0.195 0.083 3 
0.476 -0.207 0.083 3 
0.476 -0.216 0.083 3 
0.477 -0.226 0.084 3 
0.484 -0.35 0.11 3 
0.275 0.005 0.074 3 
0.275 0.004 0.074 3 
0.47 -0.047 0.104 3 
0.47 -0.055 0.104 3 
0.47 -0.066 0.104 3 
0.472 -0.075 0.104 3 
0.472 -0.103 0.104 3 
0.484 -0.336 0.109 3 
0.274 0.014 0.074 3 
0.472 -0.106 0.102 3 
0.467 -0.036 0.044 3 
0.472 -0.117 0.102 3 
0.473 -0.126 0.102 3 
0.473 -0.137 0.102 3 
0.473 -0.145 0.102 3 
0.475 -0.154 0.102 3 
0.484 -0.315 0.112 3 
0.322 -0.003 0.042 3 
0.48 -0.288 0.114 3 
0.482 -0.297 0.114 3 
0.484 -0.315 0.115 3 
0.372 -0.032 0.034 3 
0.289 0.021 0.077 3 
0.474 -0.157 0.108 3 
0.483 -0.308 0.112 3 
0.337 -0.004 0.035 3 
0.485 -0.32 0.112 3 
0.485 -0.327 0.112 3 
0.485 -0.337 0.113 3 
0.486 -0.349 0.113 3 
0.482 -0.329 0.073 3 
0.476 -0.207 0.044 3 
0.275 0.017 0.074 3 
0.273 0.016 0.074 3 
0.47 -0.066 0.093 3 
0.485 -0.333 0.103 3 
0.485 -0.337 0.103 3 
0.487 -0.349 0.104 3 
0.324 0.013 0.019 3 
0.477 -0.266 0.003 3 
0.469 -0.044 0.093 3 
0.47 -0.047 0.093 3 
0.47 -0.055 0.093 3 
0.484 -0.325 0.103 3 
0.47 -0.075 0.093 3 
0.471 -0.086 0.093 3 
0.472 -0.097 0.093 3 
0.472 -0.106 0.094 3 
0.472 -0.117 0.094 3 
0.472 -0.125 0.094 3 
0.473 -0.137 0.094 3 
0.475 -0.151 0.094 3 
0.478 -0.245 0.104 3 
0.475 -0.157 0.102 3 
0.476 -0.166 0.103 3 
0.476 -0.175 0.103 3 
0.476 -0.187 0.103 3 
0.477 -0.196 0.103 3 
0.476 -0.216 0.103 3 
0.477 -0.226 0.104 3 
0.481 -0.335 0.043 3 
0.475 -0.127 0.144 3 
0.478 -0.255 0.104 3 
0.479 -0.268 0.104 3 
0.484 -0.326 0.106 3 
0.479 -0.278 0.102 3 
0.479 -0.287 0.102 3 
0.48 -0.298 0.102 3 
0.482 -0.306 0.102 3 
0.481 -0.115 0.183 3 
0.48 -0.066 0.182 3 
0.479 -0.077 0.182 3 
0.476 -0.207 0.072 3 
0.48 -0.086 0.182 3 
0.48 -0.095 0.182 3 
0.298 0.027 0.097 3 
0.48 -0.106 0.183 3 
0.474 -0.171 0.097 3 
0.267 0.022 0.098 3 
0.481 -0.127 0.183 3 
0.482 -0.136 0.184 3 
0.482 -0.156 0.184 3 
0.48 -0.356 0.013 3 
0.481 -0.165 0.184 3 
0.484 -0.237 0.188 3 
0.489 -0.296 0.192 3 
0.324 0.021 0.033 3 
0.257 0.004 0.094 3 
0.473 -0.095 0.124 3 
0.479 -0.287 0.093 3 
0.485 -0.308 0.163 3 
0.479 -0.275 0.122 3 
0.473 -0.106 0.132 3 
0.257 0.015 0.094 3 
0.257 0.014 0.094 3 
0.49 -0.307 0.193 3 
0.484 -0.209 0.19 3 
0.484 -0.215 0.19 3 
0.484 -0.228 0.19 3 
0.486 -0.245 0.192 3 
0.486 -0.257 0.192 3 
0.486 -0.267 0.192 3 
0.487 -0.277 0.193 3 
0.489 -0.289 0.194 3 
0.486 -0.286 0.184 3 
0.483 -0.236 0.181 3 
0.485 -0.24 0.182 3 
0.485 -0.246 0.182 3 
0.484 -0.252 0.182 3 
0.484 -0.255 0.182 3 
0.485 -0.259 0.182 3 
0.485 -0.265 0.183 3 
0.486 -0.276 0.183 3 
0.263 -0.005 0.094 3 
0.475 -0.216 0.033 3 
0.58 -0.05 0.073 3 
0.282 0.025 0.1 3 
0.266 -0.005 0.094 3 
0.477 -0.065 0.172 3 
0.477 -0.077 0.172 3 
0.484 -0.2 0.183 3 
0.475 -0.192 0.072 3 
0.491 -0.315 0.193 3 
0.491 -0.325 0.194 3 
0.471 -0.067 0.123 3 
0.482 -0.145 0.181 3 
0.481 -0.177 0.182 3 
0.483 -0.187 0.183 3 
0.485 -0.197 0.184 3 
0.493 -0.335 0.201 3 
0.485 -0.206 0.184 3 
0.484 -0.209 0.184 3 
0.484 -0.218 0.184 3 
0.473 -0.176 0.072 3 
0.483 -0.227 0.184 3 
0.493 -0.338 0.192 3 
0.481 -0.245 0.154 3 
0.473 -0.095 0.143 3 
0.475 -0.195 0.033 3 
0.484 -0.105 0.193 3 
0.485 -0.108 0.193 3 
0.484 -0.116 0.193 3 
0.485 -0.123 0.194 3 
0.484 -0.125 0.193 3 
0.485 -0.137 0.194 3 
0.486 -0.147 0.195 3 
0.486 -0.156 0.195 3 
0.485 -0.102 0.193 3 
0.485 -0.167 0.195 3 
0.484 -0.17 0.194 3 
0.47 -0.066 0.074 3 
0.484 -0.176 0.195 3 
0.485 -0.182 0.195 3 
0.513 -0.06 0.027 3 
0.485 -0.185 0.195 3 
0.486 -0.195 0.196 3 
0.257 0.004 0.096 3 
0.474 -0.16 0.097 3 
0.479 -0.296 0.023 3 
0.475 -0.21 0.004 3 
0.275 -0.003 0.081 3 
0.261 0.021 0.098 3 
0.256 0.014 0.096 3 
0.47 -0.075 0.052 3 
0.26 -0.005 0.097 3 
0.469 -0.042 0.082 3 
0.267 -0.007 0.1 3 
0.484 -0.067 0.192 3 
0.47 -0.127 0.014 3 
0.482 -0.075 0.192 3 
0.482 -0.087 0.192 3 
0.483 -0.096 0.192 3 
0.474 -0.145 0.094 3 
0.483 -0.136 0.19 3 
0.484 -0.319 0.103 3 
0.484 -0.146 0.191 3 
0.485 -0.149 0.191 3 
0.484 -0.155 0.191 3 
0.485 -0.158 0.192 3 
0.483 -0.175 0.191 3 
0.494 -0.336 0.205 3 
0.484 -0.185 0.192 3 
0.485 -0.188 0.192 3 
0.485 -0.197 0.193 3 
0.486 -0.207 0.193 3 
0.485 -0.216 0.193 3 
0.485 -0.225 0.194 3 
0.474 -0.177 0.097 3 
0.486 -0.235 0.194 3 
0.488 -0.275 0.199 3 
0.487 -0.205 0.197 3 
0.487 -0.217 0.197 3 
0.486 -0.226 0.197 3 
0.479 -0.246 0.003 3 
0.486 -0.236 0.197 3 
0.487 -0.246 0.198 3 
0.488 -0.256 0.199 3 
0.487 -0.268 0.199 3 
0.478 -0.085 0.173 3 
0.489 -0.286 0.2 3 
0.491 -0.295 0.202 3 
0.474 -0.177 0.052 3 
0.479 -0.082 0.019 3 
0.492 -0.306 0.203 3 
0.492 -0.316 0.203 3 
0.491 -0.326 0.203 3 
0.484 -0.287 0.162 3 
0.49 -0.345 0.169 3 
0.475 -0.146 0.122 3 
0.476 -0.167 0.134 3 
0.48 -0.266 0.143 3 
0.283 0.024 0.094 3 
0.474 -0.062 0.154 3 
0.472 -0.067 0.154 3 
0.474 -0.087 0.155 3 
0.483 -0.276 0.164 3 
0.484 -0.297 0.162 3 
0.485 -0.304 0.163 3 
0.48 -0.307 0.014 3 
0.487 -0.316 0.164 3 
0.477 -0.185 0.123 3 
0.472 -0.05 0.033 3 
0.265 0.013 0.088 3 
0.499 -0.064 0.159 3 
0.479 -0.208 0.164 3 
0.477 -0.136 0.162 3 
0.474 -0.145 0.083 3 
0.478 -0.145 0.163 3 
0.478 -0.157 0.163 3 
0.478 -0.166 0.163 3 
0.478 -0.175 0.163 3 
0.479 -0.187 0.164 3 
0.48 -0.197 0.164 3 
0.473 -0.076 0.151 3 
0.489 -0.336 0.172 3 
0.306 -0.004 0.054 3 
0.48 -0.217 0.162 3 
0.48 -0.226 0.162 3 
0.481 -0.236 0.162 3 
0.482 -0.246 0.163 3 
0.482 -0.256 0.163 3 
0.482 -0.265 0.164 3 
0.486 -0.305 0.154 3 
0.479 -0.225 0.153 3 
0.481 -0.236 0.154 3 
0.481 -0.255 0.154 3 
0.474 -0.106 0.147 3 
0.481 -0.267 0.152 3 
0.482 -0.275 0.152 3 
0.483 -0.285 0.153 3 
0.485 -0.297 0.154 3 
0.479 -0.207 0.152 3 
0.488 -0.345 0.156 3 
0.286 0.014 0.064 3 
0.472 -0.059 0.143 3 
0.471 -0.067 0.143 3 
0.471 -0.075 0.143 3 
0.472 -0.086 0.143 3 
0.474 -0.106 0.144 3 
0.475 -0.115 0.144 3 
0.477 -0.165 0.154 3 
0.474 -0.087 0.152 3 
0.475 -0.096 0.152 3 
0.475 -0.107 0.152 3 
0.476 -0.116 0.153 3 
0.476 -0.127 0.153 3 
0.476 -0.136 0.153 3 
0.477 -0.145 0.154 3 
0.478 -0.157 0.154 3 
0.477 -0.125 0.162 3 
0.477 -0.177 0.154 3 
0.477 -0.186 0.154 3 
0.487 -0.327 0.161 3 
0.49 -0.341 0.163 3 
0.275 -0.007 0.09 3 
0.474 -0.095 0.149 3 
0.478 -0.195 0.152 3 
0.479 -0.216 0.153 3 
0.479 -0.166 0.172 3 
0.471 -0.097 0.052 3 
0.48 -0.176 0.173 3 
0.481 -0.185 0.173 3 
0.482 -0.198 0.174 3 
0.482 -0.207 0.174 3 
0.481 -0.216 0.174 3 
0.479 -0.155 0.172 3 
0.481 -0.228 0.174 3 
0.476 -0.235 0.012 3 
0.49 -0.327 0.181 3 
0.479 -0.297 0.064 3 
0.491 -0.335 0.182 3 
0.466 -0.047 0.004 3 
0.469 -0.044 0.098 3 
0.486 -0.314 0.133 3 
0.486 -0.296 0.181 3 
0.478 -0.097 0.173 3 
0.478 -0.105 0.173 3 
0.478 -0.117 0.173 3 
0.486 -0.336 0.143 3 
0.478 -0.125 0.174 3 
0.479 -0.137 0.174 3 
0.479 -0.146 0.174 3 
0.266 0.018 0.084 3 
0.48 -0.317 0.014 3 
0.488 -0.305 0.182 3 
0.491 -0.318 0.184 3 
0.473 -0.176 0.033 3 
0.303 0.03 0.107 3 
0.265 0.02 0.093 3 
0.265 -0.004 0.093 3 
0.285 -0.003 0.066 3 
0.474 -0.062 0.168 3 
0.486 -0.306 0.173 3 
0.477 -0.096 0.164 3 
0.477 -0.105 0.164 3 
0.479 -0.246 0.113 3 
0.484 -0.277 0.171 3 
0.484 -0.287 0.171 3 
0.485 -0.295 0.172 3 
0.484 -0.297 0.172 3 
0.476 -0.085 0.164 3 
0.489 -0.315 0.174 3 
0.489 -0.326 0.174 3 
0.475 -0.195 0.052 3 
0.474 -0.062 0.16 3 
0.474 -0.065 0.16 3 
0.474 -0.076 0.16 3 
0.476 -0.116 0.161 3 
0.485 -0.285 0.174 3 
0.291 0.027 0.101 3 
0.289 -0.009 0.101 3 
0.475 -0.062 0.166 3 
0.483 -0.235 0.172 3 
0.484 -0.248 0.173 3 
0.483 -0.257 0.173 3 
0.484 -0.267 0.173 3 
0.485 -0.275 0.174 3 
0.325 0.004 0.013 3 
0.327 0.014 0.032 3 
0.48 -0.317 0.043 3 
0.476 -0.062 0.164 3 
0.476 -0.065 0.164 3 
0.475 -0.076 0.163 3 
0.472 -0.086 0.104 3 
0.475 -0.225 0.024 3 
0.482 -0.336 0.052 3 
0.473 -0.176 0.022 3 
0.468 -0.055 0.033 3 
0.469 -0.066 0.044 3 
0.295 0 0.054 3 
0.293 0.012 0.054 3 
0.295 0.014 0.054 3 
0.3 0.02 0.054 3 
0.473 -0.165 0.022 3 
0.481 -0.325 0.052 3 
0.48 -0.317 0.052 3 
0.48 -0.307 0.052 3 
0.479 -0.296 0.052 3 
0.477 -0.285 0.052 3 
0.477 -0.276 0.052 3 
0.477 -0.266 0.052 3 
0.477 -0.247 0.052 3 
0.476 -0.237 0.052 3 
0.37 -0.043 0.032 3 
0.475 -0.225 0.052 3 
0.467 -0.047 0.044 3 
0.482 -0.336 0.022 3 
0.483 -0.345 0.022 3 
0.468 -0.055 0.044 3 
0.481 -0.357 0.022 3 
0.475 -0.216 0.052 3 
0.373 -0.023 0.034 3 
0.378 -0.035 0.033 3 
0.458 -0.072 0.024 3 
0.487 -0.084 0.021 3 
0.472 -0.1 0.022 3 
0.474 -0.106 0.022 3 
0.47 -0.116 0.022 3 
0.471 -0.127 0.022 3 
0.471 -0.136 0.022 3 
0.472 -0.145 0.022 3 
0.473 -0.156 0.022 3 
0.476 -0.247 0.012 3 
0.478 -0.289 0.014 3 
0.482 -0.348 0.004 3 
0.481 -0.336 0.013 3 
0.469 -0.077 0.023 3 
0.482 -0.347 0.013 3 
0.566 -0.016 0.054 3 
0.574 -0.038 0.058 3 
0.57 -0.016 0.058 3 
0.583 -0.035 0.062 3 
0.295 -0.003 0.059 3 
0.336 0.027 0.059 3 
0.485 -0.35 0.064 3 
0.483 -0.337 0.064 3 
0.482 -0.326 0.064 3 
0.481 -0.318 0.064 3 
0.475 -0.192 0.052 3 
0.474 -0.185 0.052 3 
0.473 -0.165 0.052 3 
0.474 -0.157 0.052 3 
0.473 -0.136 0.052 3 
0.472 -0.125 0.052 3 
0.471 -0.116 0.052 3 
0.472 -0.105 0.052 3 
0.471 -0.086 0.052 3 
0.469 -0.066 0.052 3 
0.468 -0.055 0.052 3 
0.468 -0.047 0.052 3 
0.468 -0.036 0.052 3 
0.47 -0.075 0.044 3 
0.335 0.021 0.03 3 
0.476 -0.029 0.016 3 
0.466 -0.031 0.018 3 
0.464 -0.033 0.018 3 
0.464 -0.036 0.018 3 
0.461 -0.046 0.018 3 
0.472 -0.116 0.033 3 
0.326 -0.013 0.042 3 
0.324 -0.015 0.042 3 
0.331 -0.017 0.041 3 
0.474 -0.186 0.033 3 
0.473 -0.165 0.033 3 
0.474 -0.157 0.033 3 
0.474 -0.197 0.027 3 
0.473 -0.145 0.033 3 
0.472 -0.136 0.033 3 
0.472 -0.125 0.033 3 
0.474 -0.218 0.027 3 
0.317 -0.011 0.043 3 
0.472 -0.125 0.003 3 
0.472 -0.105 0.033 3 
0.471 -0.097 0.033 3 
0.47 -0.077 0.033 3 
0.478 -0.054 0.033 3 
0.499 -0.049 0.031 3 
0.486 -0.044 0.032 3 
0.476 -0.04 0.033 3 
0.467 -0.036 0.034 3 
0.335 0.027 0.044 3 
0.479 -0.296 0.032 3 
0.517 -0.067 0.027 3 
0.505 -0.053 0.028 3 
0.31 -0.012 0.045 3 
0.312 -0.01 0.044 3 
0.314 -0.003 0.044 3 
0.305 0.021 0.045 3 
0.48 -0.328 0.014 3 
0.306 0.03 0.045 3 
0.304 0.031 0.045 3 
0.328 0.039 0.043 3 
0.48 -0.307 0.032 3 
0.479 -0.286 0.032 3 
0.478 -0.276 0.032 3 
0.477 -0.266 0.032 3 
0.477 -0.257 0.032 3 
0.477 -0.248 0.032 3 
0.476 -0.235 0.032 3 
0.31 0.03 0.043 3 
0.476 -0.225 0.032 3 
0.31 0.022 0.043 3 
0.304 0.018 0.044 3 
0.475 -0.207 0.033 3 
0.477 -0.238 0.044 3 
0.484 -0.349 0.043 3 
0.481 -0.325 0.043 3 
0.48 -0.307 0.043 3 
0.479 -0.296 0.043 3 
0.477 -0.257 0.024 3 
0.477 -0.276 0.044 3 
0.478 -0.266 0.023 3 
0.478 -0.276 0.023 3 
0.478 -0.285 0.023 3 
0.477 -0.266 0.044 3 
0.48 -0.307 0.023 3 
0.477 -0.247 0.044 3 
0.476 -0.225 0.044 3 
0.48 -0.317 0.023 3 
0.475 -0.216 0.044 3 
0.475 -0.195 0.044 3 
0.475 -0.189 0.044 3 
0.474 -0.186 0.044 3 
0.473 -0.176 0.044 3 
0.473 -0.145 0.044 3 
0.473 -0.136 0.044 3 
0.472 -0.116 0.044 3 
0.471 -0.105 0.044 3 
0.472 -0.097 0.044 3 
0.481 -0.325 0.022 3 
0.483 -0.348 0.034 3 
0.336 0.041 0.039 3 
0.317 0.023 0.041 3 
0.306 0.005 0.042 3 
0.327 -0.003 0.04 3 
0.296 0.021 0.066 3 
0.478 -0.06 0.024 3 
0.486 -0.064 0.023 3 
0.493 -0.068 0.023 3 
0.481 -0.074 0.024 3 
0.472 -0.196 0.013 3 
0.475 -0.078 0.025 3 
0.327 0.001 0.034 3 
0.474 -0.186 0.024 3 
0.474 -0.197 0.024 3 
0.474 -0.206 0.024 3 
0.481 -0.335 0.034 3 
0.474 -0.215 0.024 3 
0.476 -0.235 0.024 3 
0.476 -0.247 0.024 3 
0.467 -0.055 0.004 3 
0.471 -0.136 0.003 3 
0.473 -0.215 0.013 3 
0.472 -0.117 0.003 3 
0.474 -0.227 0.013 3 
0.475 -0.231 0.013 3 
0.477 -0.256 0.012 3 
0.477 -0.275 0.012 3 
0.468 -0.077 0.004 3 
0.468 -0.066 0.004 3 
0.471 -0.116 0.074 3 
0.326 0.023 0.033 3 
0.319 0.014 0.034 3 
0.324 0.004 0.033 3 
0.465 -0.039 0.012 3 
0.472 -0.125 0.074 3 
0.583 -0.039 0.065 3 
0.461 -0.075 0.016 3 
0.471 -0.097 0.063 3 
0.47 -0.086 0.063 3 
0.47 -0.077 0.063 3 
0.469 -0.115 0.014 3 
0.469 -0.066 0.063 3 
0.468 -0.055 0.063 3 
0.468 -0.047 0.063 3 
0.47 -0.075 0.074 3 
0.468 -0.039 0.063 3 
0.473 -0.136 0.074 3 
0.316 0.024 0.06 3 
0.47 -0.135 0.014 3 
0.471 -0.147 0.014 3 
0.472 -0.156 0.014 3 
0.472 -0.167 0.014 3 
0.472 -0.176 0.014 3 
0.472 -0.185 0.014 3 
0.464 -0.036 0.012 3 
0.471 -0.105 0.074 3 
0.568 -0.02 0.043 3 
0.465 -0.055 0.01 3 
0.466 -0.066 0.01 3 
0.482 -0.337 0.004 3 
0.479 -0.355 0.004 3 
0.478 -0.276 0.073 3 
0.337 0.005 0.028 3 
0.465 -0.047 0.007 3 
0.587 -0.047 0.073 3 
0.594 -0.04 0.073 3 
0.598 -0.037 0.073 3 
0.479 -0.287 0.073 3 
0.476 -0.225 0.064 3 
0.308 0.023 0.062 3 
0.475 -0.216 0.004 3 
0.484 -0.345 0.073 3 
0.482 -0.336 0.073 3 
0.481 -0.318 0.073 3 
0.481 -0.309 0.073 3 
0.479 -0.297 0.073 3 
0.476 -0.216 0.072 3 
0.298 0.021 0.063 3 
0.597 -0.04 0.077 3 
0.594 -0.044 0.077 3 
0.482 -0.326 0.034 3 
0.474 -0.145 0.072 3 
0.474 -0.157 0.072 3 
0.476 -0.226 0.004 3 
0.477 -0.236 0.004 3 
0.474 -0.165 0.072 3 
0.474 -0.185 0.072 3 
0.475 -0.195 0.072 3 
0.47 -0.086 0.074 3 
0.477 -0.226 0.072 3 
0.477 -0.235 0.072 3 
0.47 -0.085 0.033 3 
0.478 -0.245 0.072 3 
0.477 -0.257 0.072 3 
0.463 -0.046 0.013 3 
0.462 -0.057 0.013 3 
0.463 -0.065 0.013 3 
0.464 -0.076 0.013 3 
0.477 -0.266 0.072 3 
0.473 -0.145 0.063 3 
0.474 -0.157 0.063 3 
0.478 -0.257 0.003 3 
0.324 0.001 0.014 3 
0.474 -0.165 0.063 3 
0.324 0.001 0.019 3 
0.572 -0.045 0.065 3 
0.469 -0.055 0.074 3 
0.468 -0.042 0.074 3 
0.595 -0.048 0.081 3 
0.474 -0.177 0.064 3 
0.469 -0.031 0.014 3 
0.478 -0.286 0.064 3 
0.319 0.005 0.036 3 
0.285 0 0.064 3 
0.283 0.004 0.064 3 
0.284 0.013 0.064 3 
0.289 0.019 0.064 3 
0.46 -0.056 0.016 3 
0.328 0.014 0.021 3 
0.325 0.016 0.02 3 
0.475 -0.192 0.064 3 
0.474 -0.185 0.064 3 
0.327 0.004 0.021 3 
0.475 -0.195 0.064 3 
0.477 -0.266 0.064 3 
0.477 -0.257 0.064 3 
0.484 -0.349 0.052 3 
0.477 -0.247 0.064 3 
0.471 -0.116 0.063 3 
0.472 -0.125 0.063 3 
0.477 -0.235 0.064 3 
0.474 -0.159 0.077 3 
0.475 -0.216 0.064 3 
0.477 -0.276 0.064 3 
0.471 -0.105 0.063 3 
0.465 -0.036 0.015 3 
0.519 -0.065 0.023 3 
0.473 -0.136 0.063 3 
0.589 -0.051 0.084 3 
0.481 -0.308 0.064 3 
0.475 -0.207 0.064 3 
0.467 0.164 0.187 3 
0.463 0.311 0.162 3 
0.467 0.132 0.164 3 
0.469 0.334 0.195 3 
0.459 0.27 0.084 3 
0.463 0.064 0.004 3 
0.462 0.334 0.163 3 
0.464 0.322 0.163 3 
0.463 0.064 0.092 3 
0.458 0.331 0.124 3 
0.465 0.327 0.164 3 
0.468 0.173 0.188 3 
0.461 0.272 0.104 3 
0.46 0.339 0.163 3 
0.466 0.243 0.189 3 
0.47 0.324 0.195 3 
0.467 0.343 0.195 3 
0.469 0.319 0.194 3 
0.469 0.313 0.194 3 
0.467 0.304 0.193 3 
0.464 0.183 0.114 3 
0.467 0.294 0.192 3 
0.468 0.282 0.192 3 
0.468 0.272 0.191 3 
0.467 0.262 0.19 3 
0.467 0.253 0.19 3 
0.463 0.132 0.073 3 
0.466 0.234 0.189 3 
0.468 0.223 0.189 3 
0.461 0.294 0.113 3 
0.468 0.214 0.189 3 
0.469 0.203 0.189 3 
0.464 0.153 0.158 3 
0.469 0.194 0.189 3 
0.462 0.142 0.084 3 
0.462 0.304 0.162 3 
0.466 0.345 0.195 3 
0.469 0.182 0.189 3 
0.474 0.093 0.189 3 
0.465 0.114 0.144 3 
0.463 0.273 0.164 3 
0.463 0.264 0.163 3 
0.463 0.254 0.163 3 
0.473 0.124 0.189 3 
0.463 0.242 0.163 3 
0.455 0.33 0.023 3 
0.464 0.234 0.163 3 
0.462 0.162 0.092 3 
0.455 0.323 0.023 3 
0.463 0.224 0.162 3 
0.475 0.082 0.189 3 
0.463 0.346 0.194 3 
0.475 0.087 0.189 3 
0.463 0.282 0.164 3 
0.471 0.103 0.187 3 
0.471 0.112 0.188 3 
0.44 0.049 0.021 3 
0.464 0.213 0.162 3 
0.46 0.243 0.024 3 
0.46 0.252 0.024 3 
0.46 0.264 0.024 3 
0.46 0.273 0.024 3 
0.473 0.073 0.185 3 
0.461 0.232 0.043 3 
0.459 0.313 0.023 3 
0.459 0.304 0.023 3 
0.46 0.283 0.024 3 
0.468 0.104 0.164 3 
0.464 0.196 0.164 3 
0.468 0.153 0.187 3 
0.464 0.193 0.164 3 
0.463 0.184 0.164 3 
0.463 0.173 0.164 3 
0.464 0.164 0.163 3 
0.465 0.162 0.164 3 
0.461 0.281 0.093 3 
0.466 0.154 0.164 3 
0.467 0.143 0.164 3 
0.467 0.124 0.164 3 
0.47 0.142 0.188 3 
0.468 0.113 0.164 3 
0.46 0.243 0.054 3 
0.468 0.093 0.164 3 
0.468 0.082 0.164 3 
0.468 0.074 0.164 3 
0.461 0.172 0.033 3 
0.475 0.073 0.189 3 
0.464 0.102 0.084 3 
0.463 0.045 0.004 3 
0.465 0.327 0.166 3 
0.471 0.134 0.188 3 
0.46 0.234 0.024 3 
0.462 0.064 0.113 3 
0.462 0.294 0.164 3 
0.464 0.343 0.188 3 
0.475 0.083 0.016 3 
0.464 0.25 0.177 3 
0.466 0.333 0.182 3 
0.462 0.342 0.181 3 
0.451 0.061 0.019 3 
0.456 0.052 0.016 3 
0.459 0.063 0.016 3 
0.464 0.083 0.015 3 
0.464 0.241 0.177 3 
0.461 0.273 0.132 3 
0.468 0.092 0.014 3 
0.47 0.096 0.014 3 
0.466 0.255 0.184 3 
0.466 0.252 0.184 3 
0.462 0.204 0.103 3 
0.465 0.242 0.183 3 
0.459 0.103 0.015 3 
0.463 0.073 0.124 3 
0.466 0.212 0.174 3 
0.466 0.224 0.174 3 
0.465 0.232 0.174 3 
0.464 0.244 0.174 3 
0.464 0.25 0.174 3 
0.464 0.268 0.175 3 
0.464 0.297 0.176 3 
0.464 0.334 0.178 3 
0.454 0.329 0.015 3 
0.466 0.233 0.183 3 
0.445 0.103 0.02 3 
0.466 0.104 0.144 3 
0.47 0.087 0.017 3 
0.467 0.069 0.174 3 
0.47 0.134 0.182 3 
0.458 0.263 0.013 3 
0.459 0.254 0.013 3 
0.458 0.242 0.014 3 
0.458 0.233 0.014 3 
0.459 0.222 0.014 3 
0.459 0.214 0.014 3 
0.459 0.202 0.014 3 
0.459 0.194 0.014 3 
0.467 0.172 0.182 3 
0.459 0.282 0.013 3 
0.46 0.164 0.014 3 
0.459 0.182 0.014 3 
0.471 0.072 0.181 3 
0.472 0.084 0.182 3 
0.472 0.092 0.182 3 
0.471 0.123 0.182 3 
0.47 0.103 0.181 3 
0.46 0.172 0.014 3 
0.466 0.293 0.183 3 
0.468 0.223 0.184 3 
0.463 0.083 0.073 3 
0.468 0.214 0.183 3 
0.462 0.214 0.123 3 
0.468 0.202 0.183 3 
0.456 0.323 0.012 3 
0.458 0.313 0.012 3 
0.466 0.273 0.182 3 
0.467 0.284 0.183 3 
0.466 0.203 0.174 3 
0.467 0.193 0.182 3 
0.465 0.301 0.183 3 
0.46 0.293 0.093 3 
0.467 0.313 0.184 3 
0.467 0.184 0.182 3 
0.467 0.317 0.184 3 
0.458 0.303 0.012 3 
0.459 0.294 0.012 3 
0.455 0.329 0.012 3 
0.441 0.044 0.016 3 
0.458 0.052 0.013 3 
0.464 0.114 0.122 3 
0.46 0.063 0.013 3 
0.464 0.188 0.17 3 
0.464 0.234 0.171 3 
0.46 0.301 0.032 3 
0.456 0.107 0.024 3 
0.464 0.262 0.172 3 
0.464 0.274 0.173 3 
0.461 0.074 0.013 3 
0.464 0.284 0.173 3 
0.463 0.292 0.173 3 
0.464 0.3 0.174 3 
0.462 0.083 0.012 3 
0.465 0.304 0.174 3 
0.465 0.317 0.172 3 
0.429 0.04 0.013 3 
0.454 0.047 0.011 3 
0.464 0.164 0.166 3 
0.46 0.282 0.043 3 
0.464 0.202 0.167 3 
0.464 0.211 0.168 3 
0.465 0.235 0.169 3 
0.461 0.203 0.022 3 
0.464 0.31 0.171 3 
0.465 0.311 0.174 3 
0.464 0.333 0.172 3 
0.46 0.183 0.022 3 
0.461 0.172 0.022 3 
0.461 0.164 0.022 3 
0.461 0.153 0.022 3 
0.462 0.142 0.022 3 
0.461 0.273 0.112 3 
0.461 0.134 0.023 3 
0.465 0.163 0.172 3 
0.468 0.144 0.184 3 
0.481 0.121 0.189 3 
0.469 0.122 0.173 3 
0.47 0.114 0.184 3 
0.474 0.084 0.186 3 
0.464 0.094 0.103 3 
0.468 0.133 0.173 3 
0.467 0.143 0.172 3 
0.466 0.154 0.172 3 
0.462 0.203 0.142 3 
0.465 0.168 0.173 3 
0.465 0.335 0.182 3 
0.464 0.173 0.172 3 
0.464 0.176 0.172 3 
0.465 0.183 0.173 3 
0.46 0.273 0.032 3 
0.466 0.192 0.173 3 
0.462 0.253 0.143 3 
0.464 0.089 0.13 3 
0.463 0.322 0.174 3 
0.46 0.339 0.174 3 
0.46 0.093 0.013 3 
0.457 0.102 0.013 3 
0.461 0.133 0.012 3 
0.46 0.144 0.012 3 
0.46 0.152 0.012 3 
0.465 0.344 0.192 3 
0.469 0.333 0.192 3 
0.462 0.074 0.02 3 
0.467 0.164 0.184 3 
0.469 0.083 0.172 3 
0.469 0.094 0.173 3 
0.469 0.102 0.173 3 
0.469 0.113 0.173 3 
0.467 0.153 0.184 3 
0.461 0.263 0.104 3 
0.462 0.143 0.103 3 
0.462 0.154 0.103 3 
0.462 0.162 0.103 3 
0.462 0.173 0.103 3 
0.463 0.182 0.103 3 
0.463 0.194 0.103 3 
0.462 0.213 0.103 3 
0.459 0.273 0.013 3 
0.462 0.233 0.104 3 
0.46 0.241 0.104 3 
0.459 0.324 0.082 3 
0.461 0.254 0.104 3 
0.463 0.132 0.103 3 
0.457 0.332 0.082 3 
0.461 0.282 0.104 3 
0.46 0.293 0.104 3 
0.46 0.303 0.104 3 
0.46 0.306 0.104 3 
0.451 0.054 0.103 3 
0.457 0.058 0.104 3 
0.463 0.072 0.092 3 
0.449 0.053 0.02 3 
0.461 0.224 0.103 3 
0.465 0.086 0.057 3 
0.463 0.053 0.063 3 
0.461 0.192 0.063 3 
0.462 0.184 0.063 3 
0.462 0.173 0.063 3 
0.465 0.089 0.098 3 
0.464 0.132 0.063 3 
0.464 0.124 0.063 3 
0.463 0.113 0.063 3 
0.463 0.102 0.063 3 
0.464 0.094 0.063 3 
0.464 0.083 0.063 3 
0.465 0.073 0.063 3 
0.464 0.062 0.063 3 
0.461 0.337 0.111 3 
0.46 0.273 0.054 3 
0.461 0.164 0.033 3 
0.456 0.052 0.099 3 
0.46 0.322 0.102 3 
0.457 0.332 0.102 3 
0.46 0.214 0.022 3 
0.464 0.073 0.103 3 
0.464 0.083 0.103 3 
0.464 0.102 0.103 3 
0.464 0.113 0.103 3 
0.463 0.124 0.103 3 
0.463 0.202 0.114 3 
0.464 0.094 0.114 3 
0.464 0.1 0.114 3 
0.465 0.103 0.114 3 
0.465 0.111 0.114 3 
0.464 0.094 0.052 3 
0.464 0.113 0.114 3 
0.463 0.124 0.114 3 
0.463 0.132 0.114 3 
0.462 0.143 0.114 3 
0.463 0.154 0.114 3 
0.463 0.163 0.114 3 
0.464 0.194 0.114 3 
0.463 0.083 0.114 3 
0.462 0.213 0.114 3 
0.461 0.172 0.052 3 
0.46 0.224 0.114 3 
0.46 0.227 0.114 3 
0.462 0.164 0.052 3 
0.462 0.153 0.052 3 
0.463 0.143 0.052 3 
0.464 0.132 0.052 3 
0.464 0.124 0.052 3 
0.463 0.113 0.052 3 
0.463 0.102 0.052 3 
0.462 0.193 0.054 3 
0.459 0.324 0.054 3 
0.459 0.314 0.054 3 
0.46 0.302 0.054 3 
0.46 0.293 0.054 3 
0.46 0.282 0.054 3 
0.46 0.264 0.054 3 
0.46 0.252 0.054 3 
0.46 0.234 0.054 3 
0.461 0.223 0.054 3 
0.461 0.212 0.054 3 
0.462 0.204 0.054 3 
0.461 0.203 0.063 3 
0.461 0.242 0.112 3 
0.461 0.254 0.112 3 
0.461 0.263 0.112 3 
0.461 0.282 0.113 3 
0.461 0.304 0.113 3 
0.461 0.314 0.113 3 
0.46 0.323 0.113 3 
0.457 0.333 0.113 3 
0.463 0.143 0.063 3 
0.462 0.123 0.023 3 
0.463 0.073 0.113 3 
0.46 0.312 0.082 3 
0.464 0.102 0.073 3 
0.463 0.094 0.073 3 
0.464 0.073 0.074 3 
0.465 0.065 0.074 3 
0.463 0.154 0.063 3 
0.464 0.062 0.073 3 
0.462 0.053 0.073 3 
0.448 0.048 0.073 3 
0.44 0.047 0.08 3 
0.46 0.283 0.082 3 
0.46 0.293 0.082 3 
0.46 0.302 0.082 3 
0.464 0.113 0.073 3 
0.463 0.053 0.084 3 
0.463 0.062 0.084 3 
0.464 0.073 0.084 3 
0.464 0.083 0.084 3 
0.464 0.094 0.084 3 
0.464 0.113 0.084 3 
0.463 0.124 0.084 3 
0.463 0.132 0.084 3 
0.462 0.153 0.084 3 
0.462 0.162 0.084 3 
0.457 0.332 0.054 3 
0.461 0.244 0.073 3 
0.449 0.048 0.075 3 
0.456 0.331 0.074 3 
0.459 0.324 0.074 3 
0.459 0.314 0.074 3 
0.46 0.302 0.074 3 
0.46 0.293 0.074 3 
0.46 0.283 0.074 3 
0.465 0.065 0.079 3 
0.46 0.274 0.074 3 
0.462 0.263 0.074 3 
0.461 0.253 0.073 3 
0.462 0.173 0.084 3 
0.461 0.232 0.073 3 
0.461 0.223 0.073 3 
0.461 0.212 0.073 3 
0.461 0.203 0.073 3 
0.462 0.193 0.073 3 
0.462 0.184 0.073 3 
0.462 0.173 0.073 3 
0.462 0.162 0.073 3 
0.463 0.154 0.073 3 
0.463 0.143 0.073 3 
0.463 0.124 0.073 3 
0.462 0.213 0.092 3 
0.462 0.154 0.092 3 
0.46 0.283 0.062 3 
0.464 0.062 0.052 3 
0.462 0.173 0.092 3 
0.462 0.184 0.092 3 
0.462 0.193 0.092 3 
0.461 0.224 0.092 3 
0.461 0.232 0.093 3 
0.461 0.244 0.093 3 
0.46 0.253 0.093 3 
0.46 0.262 0.093 3 
0.46 0.274 0.093 3 
0.463 0.143 0.092 3 
0.46 0.303 0.093 3 
0.461 0.262 0.062 3 
0.46 0.312 0.093 3 
0.459 0.324 0.093 3 
0.458 0.333 0.093 3 
0.465 0.083 0.052 3 
0.459 0.053 0.094 3 
0.461 0.253 0.062 3 
0.461 0.244 0.062 3 
0.461 0.223 0.063 3 
0.461 0.212 0.063 3 
0.46 0.194 0.022 3 
0.462 0.184 0.084 3 
0.462 0.193 0.084 3 
0.463 0.202 0.084 3 
0.462 0.213 0.084 3 
0.461 0.224 0.084 3 
0.46 0.234 0.084 3 
0.46 0.243 0.084 3 
0.461 0.253 0.084 3 
0.46 0.262 0.084 3 
0.46 0.292 0.024 3 
0.465 0.075 0.068 3 
0.465 0.089 0.052 3 
0.459 0.324 0.062 3 
0.459 0.314 0.062 3 
0.46 0.302 0.062 3 
0.46 0.293 0.062 3 
0.464 0.083 0.092 3 
0.464 0.094 0.092 3 
0.464 0.102 0.092 3 
0.464 0.113 0.092 3 
0.452 0.064 0.034 3 
0.464 0.124 0.092 3 
0.463 0.132 0.092 3 
0.464 0.172 0.144 3 
0.461 0.064 0.142 3 
0.464 0.078 0.143 3 
0.462 0.164 0.063 3 
0.465 0.084 0.144 3 
0.466 0.093 0.144 3 
0.465 0.117 0.144 3 
0.464 0.122 0.144 3 
0.464 0.133 0.144 3 
0.464 0.141 0.144 3 
0.465 0.153 0.144 3 
0.465 0.161 0.144 3 
0.464 0.164 0.144 3 
0.465 0.062 0.001 3 
0.463 0.183 0.144 3 
0.46 0.223 0.033 3 
0.461 0.212 0.033 3 
0.461 0.203 0.033 3 
0.461 0.192 0.033 3 
0.463 0.174 0.114 3 
0.46 0.183 0.033 3 
0.463 0.143 0.033 3 
0.463 0.132 0.033 3 
0.464 0.139 0.147 3 
0.463 0.053 0.052 3 
0.46 0.233 0.142 3 
0.462 0.313 0.142 3 
0.463 0.324 0.143 3 
0.46 0.334 0.142 3 
0.46 0.337 0.142 3 
0.456 0.331 0.034 3 
0.456 0.324 0.034 3 
0.459 0.314 0.034 3 
0.464 0.147 0.141 3 
0.464 0.192 0.142 3 
0.461 0.214 0.142 3 
0.461 0.222 0.142 3 
0.463 0.124 0.033 3 
0.461 0.243 0.142 3 
0.463 0.263 0.143 3 
0.463 0.272 0.144 3 
0.463 0.282 0.144 3 
0.463 0.294 0.144 3 
0.46 0.292 0.032 3 
0.46 0.283 0.032 3 
0.46 0.264 0.032 3 
0.46 0.252 0.032 3 
0.46 0.243 0.032 3 
0.46 0.234 0.033 3 
0.463 0.192 0.153 3 
0.466 0.082 0.152 3 
0.467 0.093 0.153 3 
0.467 0.104 0.153 3 
0.466 0.112 0.152 3 
0.465 0.123 0.152 3 
0.466 0.134 0.153 3 
0.466 0.142 0.153 3 
0.465 0.153 0.153 3 
0.465 0.156 0.153 3 
0.464 0.164 0.152 3 
0.464 0.172 0.153 3 
0.463 0.184 0.153 3 
0.464 0.073 0.151 3 
0.464 0.204 0.154 3 
0.461 0.274 0.062 3 
0.463 0.212 0.153 3 
0.462 0.223 0.153 3 
0.46 0.234 0.153 3 
0.462 0.244 0.154 3 
0.462 0.253 0.154 3 
0.462 0.153 0.033 3 
0.462 0.256 0.154 3 
0.462 0.303 0.144 3 
0.465 0.071 0.154 3 
0.463 0.073 0.143 3 
0.463 0.112 0.033 3 
0.462 0.104 0.034 3 
0.462 0.093 0.034 3 
0.461 0.082 0.034 3 
0.458 0.073 0.034 3 
0.436 0.063 0.036 3 
0.458 0.063 0.034 3 
0.458 0.064 0.147 3 
0.464 0.076 0.149 3 
0.464 0.128 0.149 3 
0.463 0.273 0.152 3 
0.464 0.114 0.138 3 
0.462 0.281 0.152 3 
0.462 0.29 0.153 3 
0.464 0.152 0.133 3 
0.463 0.304 0.153 3 
0.463 0.314 0.154 3 
0.464 0.322 0.154 3 
0.461 0.232 0.063 3 
0.461 0.332 0.154 3 
0.461 0.339 0.154 3 
0.46 0.122 0.012 3 
0.457 0.332 0.062 3 
0.459 0.311 0.043 3 
0.462 0.302 0.124 3 
0.461 0.311 0.124 3 
0.451 0.074 0.022 3 
0.462 0.064 0.124 3 
0.464 0.084 0.124 3 
0.464 0.092 0.124 3 
0.464 0.07 0.05 3 
0.465 0.097 0.047 3 
0.464 0.078 0.047 3 
0.465 0.081 0.063 3 
0.456 0.331 0.043 3 
0.46 0.322 0.043 3 
0.462 0.293 0.124 3 
0.462 0.064 0.127 3 
0.459 0.304 0.043 3 
0.46 0.292 0.043 3 
0.46 0.273 0.043 3 
0.46 0.264 0.043 3 
0.46 0.223 0.022 3 
0.46 0.252 0.043 3 
0.46 0.243 0.043 3 
0.461 0.223 0.043 3 
0.461 0.212 0.044 3 
0.461 0.203 0.044 3 
0.463 0.154 0.122 3 
0.465 0.073 0.052 3 
0.465 0.064 0.052 3 
0.458 0.113 0.013 3 
0.446 0.058 0.115 3 
0.465 0.114 0.119 3 
0.461 0.324 0.122 3 
0.464 0.103 0.122 3 
0.464 0.124 0.122 3 
0.464 0.133 0.122 3 
0.463 0.143 0.122 3 
0.462 0.184 0.054 3 
0.461 0.192 0.044 3 
0.463 0.163 0.122 3 
0.463 0.174 0.122 3 
0.463 0.182 0.122 3 
0.463 0.194 0.122 3 
0.463 0.202 0.123 3 
0.46 0.224 0.123 3 
0.461 0.234 0.123 3 
0.461 0.243 0.123 3 
0.461 0.264 0.123 3 
0.462 0.274 0.124 3 
0.462 0.283 0.124 3 
0.461 0.234 0.134 3 
0.464 0.114 0.133 3 
0.464 0.122 0.133 3 
0.465 0.064 0.063 3 
0.464 0.133 0.133 3 
0.464 0.144 0.133 3 
0.464 0.163 0.133 3 
0.463 0.174 0.133 3 
0.464 0.183 0.134 3 
0.464 0.094 0.044 3 
0.463 0.194 0.133 3 
0.461 0.202 0.133 3 
0.461 0.213 0.134 3 
0.464 0.103 0.133 3 
0.462 0.252 0.123 3 
0.461 0.243 0.134 3 
0.464 0.083 0.044 3 
0.461 0.252 0.134 3 
0.461 0.261 0.134 3 
0.462 0.201 0.092 3 
0.463 0.072 0.044 3 
0.463 0.064 0.044 3 
0.462 0.053 0.044 3 
0.464 0.097 0.135 3 
0.461 0.222 0.134 3 
0.462 0.173 0.044 3 
0.464 0.081 0.13 3 
0.465 0.117 0.13 3 
0.465 0.128 0.13 3 
0.462 0.283 0.132 3 
0.461 0.292 0.132 3 
0.462 0.302 0.133 3 
0.461 0.314 0.133 3 
0.462 0.322 0.134 3 
0.459 0.332 0.133 3 
0.458 0.335 0.133 3 
0.461 0.183 0.044 3 
0.465 0.323 0.16 3 
0.462 0.164 0.044 3 
0.462 0.153 0.044 3 
0.462 0.142 0.044 3 
0.463 0.132 0.044 3 
0.463 0.124 0.044 3 
0.462 0.112 0.044 3 
0.464 0.102 0.044 3 
0.464 0.073 0.132 3 
0.465 0.084 0.133 3 
0.465 0.092 0.133 3 
0.465 0.095 0.133 3 
