# .PCD v0.7 - Point Cloud Data file
FIELDS x y z intensity
SIZE 4 4 4 4
TYPE F F F F
COUNT 1 1 1 1
WIDTH 2364
HEIGHT 1
VIEWPOINT 0 0 0 1 0 0 0
POINTS 2364
DATA ascii
0.363 -0.135 -0.017 1 
0.363 -0.125 -0.017 1 
0.362 -0.106 -0.016 1 
0.358 -0.09 -0.014 1 
0.36 -0.06 -0.015 1 
0.362 -0.045 -0.015 1 
0.359 0.017 -0.014 1 
0.36 0.024 -0.015 1 
0.36 0.033 -0.015 1 
0.359 0.04 -0.015 1 
0.358 0.043 -0.014 1 
0.357 0.059 -0.014 1 
0.357 0.074 -0.014 1 
0.354 0.103 -0.014 1 
0.352 0.114 -0.014 1 
0.353 0.124 -0.014 1 
0.351 0.132 -0.014 1 
0.35 0.161 -0.015 1 
0.344 0.206 -0.015 1 
0.374 -0.241 -0.024 1 
0.379 -0.227 -0.025 1 
0.372 -0.145 -0.019 1 
0.364 -0.087 -0.015 1 
0.364 -0.056 -0.014 1 
0.364 0.063 -0.015 1 
0.36 0.083 -0.014 1 
0.361 0.089 -0.014 1 
0.362 0.093 -0.015 1 
0.362 0.102 -0.015 1 
0.359 0.124 -0.015 1 
0.353 0.166 -0.014 1 
0.353 0.174 -0.015 1 
0.35 0.21 -0.016 1 
0.381 -0.246 -0.024 1 
0.383 -0.246 -0.025 1 
0.383 -0.236 -0.024 1 
0.382 -0.225 -0.023 1 
0.374 -0.195 -0.02 1 
0.373 -0.185 -0.019 1 
0.374 -0.175 -0.019 1 
0.374 -0.136 -0.018 1 
0.374 -0.134 -0.017 1 
0.374 -0.116 -0.017 1 
0.371 -0.096 -0.016 1 
0.372 -0.085 -0.016 1 
0.374 -0.08 -0.016 1 
0.37 -0.056 -0.015 1 
0.369 -0.054 -0.014 1 
0.373 -0.045 -0.016 1 
0.374 -0.038 -0.016 1 
0.434 -0.035 -0.037 1 
0.419 -0.031 -0.032 1 
0.374 0.013 -0.016 1 
0.374 0.024 -0.016 1 
0.371 0.054 -0.016 1 
0.366 0.083 -0.014 1 
0.362 0.113 -0.014 1 
0.362 0.115 -0.014 1 
0.362 0.134 -0.014 1 
0.364 0.143 -0.015 1 
0.364 0.145 -0.015 1 
0.357 0.182 -0.015 1 
0.36 0.193 -0.016 1 
0.358 0.204 -0.016 1 
0.384 -0.209 -0.021 1 
0.38 -0.198 -0.02 1 
0.38 -0.165 -0.018 1 
0.382 -0.156 -0.019 1 
0.38 -0.106 -0.017 1 
0.381 -0.076 -0.017 1 
0.374 -0.063 -0.014 1 
0.381 -0.03 -0.016 1 
0.374 0.007 -0.014 1 
0.374 0.064 -0.015 1 
0.373 0.084 -0.015 1 
0.373 0.104 -0.015 1 
0.37 0.114 -0.014 1 
0.374 0.124 -0.016 1 
0.371 0.134 -0.015 1 
0.37 0.163 -0.016 1 
0.36 0.224 -0.016 1 
0.394 -0.263 -0.025 1 
0.394 -0.247 -0.024 1 
0.397 -0.245 -0.025 1 
0.399 -0.24 -0.025 1 
0.394 -0.225 -0.023 1 
0.384 -0.128 -0.017 1 
0.384 -0.12 -0.017 1 
0.381 -0.096 -0.015 1 
0.384 -0.089 -0.016 1 
0.384 -0.056 -0.016 1 
0.385 -0.032 -0.016 1 
0.384 0.012 -0.016 1 
0.384 0.024 -0.016 1 
0.382 0.043 -0.015 1 
0.382 0.053 -0.016 1 
0.381 0.064 -0.015 1 
0.381 0.074 -0.015 1 
0.38 0.083 -0.015 1 
0.373 0.141 -0.014 1 
0.374 0.144 -0.015 1 
0.371 0.184 -0.016 1 
0.369 0.222 -0.017 1 
0.357 0.053 -0.014 1 
0.394 -0.26 -0.022 1 
0.392 -0.218 -0.02 1 
0.393 -0.205 -0.02 1 
0.389 -0.186 -0.018 1 
0.389 -0.157 -0.017 1 
0.392 -0.126 -0.017 1 
0.392 -0.116 -0.017 1 
0.391 -0.107 -0.017 1 
0.39 -0.075 -0.016 1 
0.298 -0.015 0.013 1 
0.298 0.002 0.013 1 
0.384 0.099 -0.015 1 
0.384 0.113 -0.015 1 
0.384 0.124 -0.015 1 
0.38 0.138 -0.015 1 
0.378 0.142 -0.014 1 
0.379 0.154 -0.015 1 
0.381 0.163 -0.016 1 
0.374 0.225 -0.016 1 
0.407 -0.275 -0.025 1 
0.404 -0.266 -0.023 1 
0.403 -0.257 -0.023 1 
0.384 -0.217 -0.021 1 
0.399 -0.227 -0.02 1 
0.399 -0.206 -0.02 1 
0.392 -0.068 -0.014 1 
0.394 -0.066 -0.015 1 
0.394 -0.064 -0.015 1 
0.394 -0.046 -0.015 1 
0.393 -0.042 -0.014 1 
0.299 -0.006 0.014 1 
0.357 0.005 -0.003 1 
0.364 -0.147 -0.018 1 
0.394 0.033 -0.015 1 
0.394 0.053 -0.015 1 
0.392 0.063 -0.015 1 
0.393 0.074 -0.015 1 
0.394 0.082 -0.016 1 
0.391 0.092 -0.015 1 
0.389 0.093 -0.014 1 
0.391 0.104 -0.015 1 
0.391 0.113 -0.015 1 
0.386 0.146 -0.015 1 
0.384 0.155 -0.014 1 
0.388 0.164 -0.016 1 
0.374 0.154 -0.015 1 
0.38 0.234 -0.017 1 
0.416 -0.288 -0.026 1 
0.413 -0.268 -0.024 1 
0.412 -0.258 -0.023 1 
0.408 -0.236 -0.021 1 
0.404 -0.215 -0.019 1 
0.404 -0.165 -0.018 1 
0.403 -0.155 -0.017 1 
0.403 -0.106 -0.016 1 
0.403 -0.095 -0.016 1 
0.402 -0.075 -0.015 1 
0.4 -0.07 -0.015 1 
0.399 -0.066 -0.014 1 
0.403 -0.056 -0.016 1 
0.4 -0.045 -0.015 1 
0.4 -0.037 -0.015 1 
0.364 0.072 -0.015 1 
0.401 0.023 -0.015 1 
0.397 0.046 -0.014 1 
0.394 0.123 -0.014 1 
0.394 0.125 -0.014 1 
0.394 0.133 -0.015 1 
0.393 0.141 -0.015 1 
0.392 0.143 -0.014 1 
0.388 0.153 -0.013 1 
0.389 0.184 -0.015 1 
0.383 0.244 -0.016 1 
0.384 0.25 -0.016 1 
0.404 -0.186 -0.016 1 
0.404 -0.179 -0.016 1 
0.404 -0.146 -0.015 1 
0.404 -0.142 -0.015 1 
0.408 -0.066 -0.015 1 
0.402 -0.041 -0.013 1 
0.474 -0.046 -0.035 1 
0.475 -0.043 -0.035 1 
0.473 -0.04 -0.035 1 
0.364 -0.036 -0.016 1 
0.404 0.013 -0.014 1 
0.404 0.015 -0.014 1 
0.404 0.073 -0.014 1 
0.404 0.088 -0.015 1 
0.404 0.099 -0.015 1 
0.403 0.114 -0.015 1 
0.402 0.122 -0.015 1 
0.374 -0.105 -0.017 1 
0.401 0.124 -0.014 1 
0.401 0.129 -0.015 1 
0.394 0.157 -0.013 1 
0.398 0.184 -0.015 1 
0.391 0.194 -0.014 1 
0.392 0.202 -0.014 1 
0.392 0.205 -0.014 1 
0.395 0.222 -0.016 1 
0.394 0.223 -0.016 1 
0.391 0.243 -0.016 1 
0.422 -0.298 -0.023 1 
0.414 -0.216 -0.017 1 
0.414 -0.214 -0.017 1 
0.414 -0.196 -0.017 1 
0.409 -0.185 -0.015 1 
0.414 -0.167 -0.016 1 
0.409 -0.156 -0.014 1 
0.409 -0.147 -0.014 1 
0.41 -0.145 -0.015 1 
0.41 -0.143 -0.014 1 
0.348 0.193 -0.016 1 
0.414 -0.136 -0.015 1 
0.414 -0.129 -0.015 1 
0.415 -0.109 -0.015 1 
0.414 -0.106 -0.015 1 
0.414 -0.095 -0.015 1 
0.415 -0.093 -0.015 1 
0.414 -0.086 -0.015 1 
0.414 -0.081 -0.015 1 
0.416 -0.075 -0.015 1 
0.414 -0.045 -0.014 1 
0.412 0.024 -0.014 1 
0.411 0.053 -0.014 1 
0.41 0.064 -0.014 1 
0.41 0.073 -0.014 1 
0.411 0.082 -0.014 1 
0.411 0.084 -0.015 1 
0.41 0.104 -0.015 1 
0.41 0.113 -0.015 1 
0.404 0.132 -0.013 1 
0.404 0.144 -0.014 1 
0.404 0.153 -0.014 1 
0.404 0.164 -0.014 1 
0.402 0.189 -0.015 1 
0.399 0.233 -0.015 1 
0.393 0.258 -0.015 1 
0.424 -0.285 -0.02 1 
0.424 -0.268 -0.019 1 
0.423 -0.255 -0.019 1 
0.424 -0.245 -0.018 1 
0.422 -0.235 -0.018 1 
0.422 -0.225 -0.017 1 
0.42 -0.196 -0.016 1 
0.417 -0.164 -0.015 1 
0.42 -0.076 -0.014 1 
0.422 -0.068 -0.015 1 
0.421 -0.065 -0.014 1 
0.42 -0.056 -0.014 1 
0.356 0.135 -0.014 1 
0.441 -0.043 -0.02 1 
0.373 0.034 -0.016 1 
0.414 0.011 -0.013 1 
0.419 0.023 -0.014 1 
0.411 0.134 -0.013 1 
0.409 0.144 -0.013 1 
0.412 0.153 -0.014 1 
0.404 0.193 -0.013 1 
0.401 0.208 -0.013 1 
0.405 0.234 -0.015 1 
0.405 0.236 -0.015 1 
0.404 0.241 -0.015 1 
0.401 0.243 -0.014 1 
0.402 0.246 -0.014 1 
0.403 0.25 -0.015 1 
0.401 0.261 -0.015 1 
0.399 0.264 -0.014 1 
0.4 0.268 -0.015 1 
0.432 -0.276 -0.019 1 
0.428 -0.225 -0.016 1 
0.423 -0.216 -0.015 1 
0.426 -0.185 -0.015 1 
0.427 -0.176 -0.015 1 
0.424 -0.156 -0.014 1 
0.422 -0.145 -0.013 1 
0.424 -0.142 -0.014 1 
0.424 -0.125 -0.013 1 
0.424 -0.115 -0.013 1 
0.372 0.214 -0.017 1 
0.424 -0.106 -0.013 1 
0.424 -0.096 -0.013 1 
0.423 -0.045 -0.012 1 
0.384 -0.186 -0.018 1 
0.391 -0.145 -0.017 1 
0.423 -0.042 -0.012 1 
0.418 -0.177 -0.015 1 
0.424 0.044 -0.013 1 
0.424 0.053 -0.013 1 
0.423 0.062 -0.013 1 
0.422 0.074 -0.013 1 
0.421 0.094 -0.013 1 
0.42 0.103 -0.013 1 
0.419 0.122 -0.013 1 
0.413 0.164 -0.012 1 
0.364 0.163 -0.016 1 
0.412 0.173 -0.012 1 
0.411 0.194 -0.013 1 
0.408 0.244 -0.014 1 
0.414 0.273 -0.016 1 
0.431 -0.305 -0.018 1 
0.433 -0.289 -0.017 1 
0.434 -0.255 -0.016 1 
0.434 -0.252 -0.016 1 
0.429 -0.225 -0.014 1 
0.428 -0.215 -0.014 1 
0.431 -0.215 -0.015 1 
0.432 -0.21 -0.015 1 
0.431 -0.207 -0.014 1 
0.431 -0.186 -0.014 1 
0.432 -0.176 -0.014 1 
0.428 -0.156 -0.013 1 
0.43 -0.145 -0.013 1 
0.43 -0.137 -0.013 1 
0.429 -0.127 -0.012 1 
0.429 -0.115 -0.012 1 
0.433 -0.066 -0.013 1 
0.433 -0.056 -0.013 1 
0.433 -0.046 -0.013 1 
0.479 -0.046 -0.025 1 
0.48 -0.041 -0.025 1 
0.353 0.135 -0.015 1 
0.43 0.033 -0.012 1 
0.43 0.043 -0.012 1 
0.43 0.064 -0.013 1 
0.429 0.073 -0.012 1 
0.428 0.083 -0.012 1 
0.423 0.153 -0.012 1 
0.42 0.164 -0.012 1 
0.418 0.174 -0.012 1 
0.398 0.061 -0.015 1 
0.414 0.209 -0.011 1 
0.419 0.284 -0.016 1 
0.44 -0.278 -0.016 1 
0.432 -0.267 -0.014 1 
0.434 -0.255 -0.014 1 
0.439 -0.24 -0.015 1 
0.381 -0.065 -0.015 1 
0.434 -0.204 -0.013 1 
0.438 -0.136 -0.012 1 
0.434 -0.105 -0.011 1 
0.434 -0.1 -0.011 1 
0.434 -0.085 -0.011 1 
0.434 -0.083 -0.011 1 
0.403 0.064 -0.014 1 
0.444 -0.043 -0.013 1 
0.479 -0.046 -0.022 1 
0.324 -0.013 0.016 1 
0.331 -0.004 0.015 1 
0.334 0.003 0.014 1 
0.434 0.007 -0.011 1 
0.434 0.053 -0.011 1 
0.414 -0.057 -0.015 1 
0.434 0.094 -0.012 1 
0.432 0.123 -0.012 1 
0.426 0.144 -0.01 1 
0.423 0.183 -0.011 1 
0.423 0.193 -0.011 1 
0.42 0.203 -0.01 1 
0.421 0.222 -0.011 1 
0.421 0.233 -0.012 1 
0.424 0.252 -0.013 1 
0.421 0.283 -0.014 1 
0.444 -0.316 -0.016 1 
0.423 -0.206 -0.017 1 
0.446 -0.306 -0.016 1 
0.445 -0.301 -0.015 1 
0.444 -0.297 -0.015 1 
0.443 -0.226 -0.013 1 
0.443 -0.216 -0.013 1 
0.444 -0.195 -0.012 1 
0.444 -0.187 -0.012 1 
0.444 -0.176 -0.012 1 
0.442 -0.167 -0.011 1 
0.442 -0.157 -0.011 1 
0.444 -0.147 -0.012 1 
0.44 -0.115 -0.01 1 
0.442 -0.105 -0.011 1 
0.442 -0.095 -0.011 1 
0.421 0.083 -0.013 1 
0.441 -0.085 -0.01 1 
0.444 -0.076 -0.011 1 
0.444 -0.066 -0.011 1 
0.444 -0.061 -0.011 1 
0.46 -0.043 -0.015 1 
0.476 -0.037 -0.019 1 
0.33 -0.015 0.016 1 
0.334 -0.01 0.015 1 
0.406 0.024 -0.015 1 
0.344 0 0.013 1 
0.346 0.003 0.012 1 
0.441 0.032 -0.01 1 
0.44 0.044 -0.01 1 
0.441 0.054 -0.01 1 
0.441 0.064 -0.011 1 
0.441 0.074 -0.011 1 
0.441 0.084 -0.011 1 
0.434 0.154 -0.01 1 
0.432 0.164 -0.01 1 
0.429 0.182 -0.01 1 
0.424 0.241 -0.01 1 
0.422 0.293 -0.012 1 
0.452 -0.325 -0.015 1 
0.452 -0.315 -0.015 1 
0.444 -0.288 -0.012 1 
0.444 -0.27 -0.011 1 
0.444 -0.247 -0.011 1 
0.41 0.102 -0.014 1 
0.444 -0.244 -0.011 1 
0.45 -0.135 -0.01 1 
0.452 -0.096 -0.01 1 
0.442 -0.207 -0.012 1 
0.451 -0.085 -0.01 1 
0.451 -0.055 -0.01 1 
0.469 -0.045 -0.014 1 
0.344 -0.015 0.014 1 
0.344 -0.013 0.014 1 
0.36 0.005 -0.006 1 
0.404 -0.237 -0.022 1 
0.409 0.222 -0.015 1 
0.356 -0.006 0.012 1 
0.357 0.002 0.011 1 
0.441 0.122 -0.009 1 
0.44 0.134 -0.009 1 
0.432 0.194 -0.008 1 
0.43 0.203 -0.008 1 
0.433 0.222 -0.009 1 
0.434 0.233 -0.01 1 
0.434 0.253 -0.01 1 
0.433 0.261 -0.01 1 
0.434 0.27 -0.011 1 
0.433 0.284 -0.011 1 
0.431 0.294 -0.011 1 
0.45 -0.276 -0.01 1 
0.451 -0.259 -0.01 1 
0.449 -0.245 -0.009 1 
0.452 -0.236 -0.01 1 
0.452 -0.226 -0.01 1 
0.453 -0.215 -0.01 1 
0.453 -0.207 -0.009 1 
0.454 -0.196 -0.01 1 
0.454 -0.185 -0.009 1 
0.453 -0.155 -0.009 1 
0.454 -0.15 -0.009 1 
0.454 -0.115 -0.008 1 
0.454 -0.113 -0.008 1 
0.454 -0.066 -0.008 1 
0.446 -0.006 -0.006 1 
0.449 0.003 -0.007 1 
0.452 0.034 -0.008 1 
0.441 0.142 -0.009 1 
0.452 0.044 -0.008 1 
0.451 0.054 -0.008 1 
0.45 0.102 -0.008 1 
0.444 0.163 -0.008 1 
0.443 0.173 -0.008 1 
0.405 0.185 -0.015 1 
0.44 0.184 -0.007 1 
0.441 0.204 -0.008 1 
0.44 0.214 -0.008 1 
0.437 0.242 -0.008 1 
0.432 0.304 -0.009 1 
0.462 -0.297 -0.011 1 
0.455 0.06 -0.006 1 
0.454 0.062 -0.006 1 
0.454 0.08 -0.006 1 
0.454 0.088 -0.006 1 
0.453 0.114 -0.006 1 
0.452 0.132 -0.006 1 
0.451 0.153 -0.006 1 
0.441 0.274 -0.007 1 
0.441 0.283 -0.008 1 
0.441 0.292 -0.008 1 
0.44 0.303 -0.008 1 
0.462 -0.336 -0.009 1 
0.381 0.184 -0.015 1 
0.464 -0.315 -0.009 1 
0.462 -0.256 -0.007 1 
0.461 -0.215 -0.006 1 
0.461 -0.176 -0.005 1 
0.461 -0.156 -0.005 1 
0.462 -0.075 -0.005 1 
0.38 -0.235 -0.025 1 
0.463 -0.057 -0.005 1 
0.462 -0.036 -0.005 1 
0.462 0.003 -0.005 1 
0.461 0.024 -0.005 1 
0.46 0.042 -0.005 1 
0.457 0.121 -0.005 1 
0.456 0.142 -0.005 1 
0.454 0.163 -0.005 1 
0.451 0.178 -0.004 1 
0.391 0.233 -0.015 1 
0.452 0.184 -0.005 1 
0.453 0.193 -0.005 1 
0.452 0.203 -0.005 1 
0.452 0.214 -0.005 1 
0.45 0.224 -0.005 1 
0.45 0.233 -0.005 1 
0.451 0.242 -0.006 1 
0.449 0.252 -0.006 1 
0.446 0.261 -0.005 1 
0.447 0.271 -0.006 1 
0.447 0.283 -0.006 1 
0.445 0.293 -0.006 1 
0.409 -0.038 -0.015 1 
0.444 0.311 -0.007 1 
0.364 -0.083 -0.015 1 
0.467 -0.315 -0.006 1 
0.452 -0.052 -0.01 1 
0.469 -0.307 -0.007 1 
0.456 0.134 -0.005 1 
0.468 -0.286 -0.006 1 
0.466 -0.278 -0.005 1 
0.465 -0.265 -0.005 1 
0.466 -0.257 -0.005 1 
0.467 -0.245 -0.005 1 
0.467 -0.236 -0.005 1 
0.466 -0.231 -0.005 1 
0.463 -0.217 -0.004 1 
0.403 -0.195 -0.018 1 
0.464 -0.16 -0.003 1 
0.464 -0.116 -0.003 1 
0.463 -0.105 -0.002 1 
0.464 -0.095 -0.003 1 
0.463 -0.076 -0.002 1 
0.463 -0.046 -0.002 1 
0.454 0.227 -0.003 1 
0.454 0.253 -0.004 1 
0.452 0.264 -0.004 1 
0.452 0.282 -0.004 1 
0.45 0.301 -0.005 1 
0.447 0.321 -0.005 1 
0.47 -0.345 -0.005 1 
0.471 -0.336 -0.005 1 
0.429 0.134 -0.011 1 
0.441 0.262 -0.007 1 
0.471 -0.332 -0.005 1 
0.464 -0.186 -0.001 1 
0.464 -0.177 -0.001 1 
0.45 -0.297 -0.014 1 
0.464 -0.065 0 1 
0.463 0.043 0 1 
0.454 0.302 -0.003 1 
0.453 0.311 -0.003 1 
0.465 -0.007 0.002 1 
0.465 0.011 0.002 1 
0.464 0.014 0.002 1 
0.409 0.126 -0.015 1 
0.465 0.032 0.002 1 
0.465 0.043 0.001 1 
0.454 0.322 0 1 
0.472 -0.256 0.002 1 
0.471 -0.228 0.002 1 
0.468 -0.217 0.003 1 
0.468 -0.205 0.003 1 
0.467 -0.196 0.003 1 
0.467 -0.185 0.003 1 
0.468 -0.177 0.003 1 
0.467 -0.165 0.003 1 
0.468 -0.157 0.003 1 
0.468 -0.146 0.003 1 
0.374 -0.206 -0.022 1 
0.424 0.107 -0.012 1 
0.462 0.093 0.004 1 
0.461 0.104 0.004 1 
0.461 0.114 0.004 1 
0.462 0.123 0.004 1 
0.46 0.153 0.004 1 
0.461 0.164 0.004 1 
0.46 0.183 0.003 1 
0.46 0.194 0.003 1 
0.46 0.203 0.003 1 
0.46 0.223 0.003 1 
0.46 0.232 0.003 1 
0.461 0.244 0.002 1 
0.46 0.274 0.002 1 
0.474 -0.349 0.002 1 
0.476 -0.348 0.002 1 
0.36 0.103 -0.014 1 
0.475 -0.34 0.002 1 
0.474 -0.335 0.002 1 
0.474 -0.328 0.003 1 
0.424 -0.094 -0.013 1 
0.475 -0.326 0.003 1 
0.383 0.152 -0.014 1 
0.474 -0.315 0.003 1 
0.473 -0.307 0.003 1 
0.471 -0.286 0.004 1 
0.471 -0.276 0.004 1 
0.47 -0.272 0.004 1 
0.46 0.283 0.004 1 
0.46 0.292 0.004 1 
0.459 0.304 0.004 1 
0.459 0.314 0.004 1 
0.46 0.321 0.003 1 
0.39 0.014 -0.016 1 
0.461 0.333 0.003 1 
0.46 0.335 0.006 1 
0.457 0.113 -0.005 1 
0.461 -0.195 -0.006 1 
0.455 0.094 -0.006 1 
0.455 0.07 -0.006 1 
0.455 0.052 -0.006 1 
0.461 -0.007 -0.005 1 
0.461 -0.03 -0.005 1 
0.463 -0.046 -0.005 1 
0.462 -0.073 -0.005 1 
0.411 0.201 -0.011 1 
0.384 -0.147 -0.017 1 
0.463 -0.086 -0.005 1 
0.462 -0.105 -0.005 1 
0.462 -0.126 -0.005 1 
0.463 -0.146 -0.005 1 
0.404 0.174 -0.015 1 
0.374 -0.033 -0.016 1 
0.38 0.187 -0.014 1 
0.393 0.043 -0.015 1 
0.459 -0.166 -0.005 1 
0.461 -0.187 -0.006 1 
0.462 -0.225 -0.006 1 
0.451 -0.308 -0.014 1 
0.463 -0.248 -0.007 1 
0.462 -0.287 -0.01 1 
0.443 0.253 -0.007 1 
0.463 -0.327 -0.012 1 
0.47 -0.042 -0.014 1 
0.443 -0.275 -0.011 1 
0.371 0.112 -0.015 1 
0.414 0.117 -0.014 1 
0.372 0.237 -0.016 1 
0.391 0.174 -0.015 1 
0.432 0.103 -0.011 1 
0.436 -0.271 -0.017 1 
0.439 0.094 -0.01 1 
0.438 0.103 -0.01 1 
0.404 -0.089 -0.016 1 
0.452 0.143 -0.006 1 
0.438 -0.247 -0.015 1 
0.431 0.173 -0.01 1 
0.444 -0.255 -0.011 1 
0.451 0.325 -0.003 1 
0.474 -0.245 0.001 1 
0.454 0.073 -0.006 1 
0.464 -0.136 -0.003 1 
0.452 0.124 -0.006 1 
0.441 0.013 -0.01 1 
0.469 -0.297 -0.006 1 
0.374 0.071 -0.015 1 
0.364 -0.067 -0.016 1 
0.442 0.153 -0.01 1 
0.348 0.163 -0.014 1 
0.414 -0.041 -0.014 1 
0.464 -0.169 0 1 
0.463 0.338 0.002 1 
0.384 -0.036 -0.016 1 
0.449 0.313 -0.005 1 
0.39 -0.198 -0.019 1 
0.373 -0.215 -0.022 1 
0.441 -0.045 -0.012 1 
0.456 0.153 -0.005 1 
0.413 0.283 -0.017 1 
0.37 -0.065 -0.015 1 
0.421 -0.276 -0.021 1 
0.399 0.013 -0.015 1 
0.431 0.113 -0.011 1 
0.415 -0.039 -0.015 1 
0.454 0.222 -0.003 1 
0.384 0.091 -0.015 1 
0.353 -0.011 0.012 1 
0.446 -0.016 -0.006 1 
0.462 -0.116 -0.005 1 
0.351 0.203 -0.016 1 
0.395 0.214 -0.016 1 
0.463 -0.205 -0.004 1 
0.462 -0.135 -0.005 1 
0.411 -0.246 -0.022 1 
0.389 0.124 -0.015 1 
0.463 0.003 -0.002 1 
0.473 -0.236 0.002 1 
0.414 0.224 -0.014 1 
0.427 -0.165 -0.015 1 
0.411 -0.225 -0.019 1 
0.416 -0.173 -0.014 1 
0.388 -0.095 -0.015 1 
0.432 -0.239 -0.018 1 
0.374 0.094 -0.015 1 
0.431 -0.269 -0.019 1 
0.387 0.2 -0.015 1 
0.464 -0.025 0.002 1 
0.39 0.024 -0.016 1 
0.453 -0.125 -0.008 1 
0.409 0.124 -0.015 1 
0.461 0.133 0.004 1 
0.382 0.203 -0.016 1 
0.394 -0.266 -0.023 1 
0.422 0.133 -0.011 1 
0.452 -0.265 -0.01 1 
0.417 -0.166 -0.015 1 
0.389 0.253 -0.016 1 
0.458 -0.017 -0.007 1 
0.454 0.213 -0.003 1 
0.416 0.014 -0.013 1 
0.427 0.275 -0.015 1 
0.461 0.144 0.004 1 
0.461 0.173 0.003 1 
0.414 0.25 -0.013 1 
0.42 -0.135 -0.015 1 
0.406 0.03 -0.015 1 
0.472 -0.296 0.004 1 
0.391 -0.237 -0.025 1 
0.36 0.174 -0.015 1 
0.461 -0.265 -0.007 1 
0.398 0.054 -0.015 1 
0.384 0.033 -0.016 1 
0.414 0.184 -0.013 1 
0.411 0.044 -0.014 1 
0.398 0.071 -0.015 1 
0.423 0.259 -0.013 1 
0.434 -0.296 -0.018 1 
0.42 0.144 -0.011 1 
0.444 -0.291 -0.015 1 
0.362 0.078 -0.015 1 
0.414 0.264 -0.013 1 
0.442 0.022 -0.011 1 
0.46 0.253 0.002 1 
0.394 -0.044 -0.015 1 
0.454 -0.292 -0.012 1 
0.399 0.04 -0.015 1 
0.394 -0.18 -0.017 1 
0.41 -0.176 -0.015 1 
0.412 -0.161 -0.015 1 
0.404 0.084 -0.015 1 
0.43 0.024 -0.012 1 
0.464 -0.009 0.002 1 
0.36 -0.096 -0.015 1 
0.401 -0.125 -0.016 1 
0.384 -0.184 -0.018 1 
0.46 0.262 0.002 1 
0.464 -0.125 -0.003 1 
0.451 -0.075 -0.01 1 
0.405 0.054 -0.015 1 
0.381 0.134 -0.015 1 
0.39 -0.246 -0.025 1 
0.411 -0.116 -0.017 1 
0.364 -0.051 -0.014 1 
0.454 -0.177 -0.009 1 
0.42 -0.186 -0.016 1 
0.443 -0.126 -0.011 1 
0.442 0.112 -0.009 1 
0.397 -0.27 -0.026 1 
0.403 0.167 -0.014 1 
0.443 -0.309 -0.018 1 
0.353 0.182 -0.015 1 
0.375 -0.222 -0.025 1 
0.384 0.223 -0.017 1 
0.462 0.014 -0.005 1 
0.419 0.272 -0.015 1 
0.394 0.211 -0.015 1 
0.42 -0.128 -0.015 1 
0.374 -0.159 -0.018 1 
0.464 -0.087 -0.002 1 
0.454 0.265 -0.002 1 
0.452 0.294 -0.002 1 
0.374 0.169 -0.016 1 
0.365 0.085 -0.014 1 
0.403 0.075 -0.014 1 
0.411 0.093 -0.015 1 
0.44 0.192 -0.008 1 
0.463 0.083 0.002 1 
0.414 -0.052 -0.015 1 
0.381 0.193 -0.015 1 
0.455 0.083 -0.006 1 
0.398 0.044 -0.014 1 
0.41 0.033 -0.014 1 
0.362 -0.115 -0.016 1 
0.383 0.213 -0.016 1 
0.423 0.032 -0.013 1 
0.393 -0.085 -0.017 1 
0.42 -0.116 -0.015 1 
0.464 -0.015 0.002 1 
0.399 0.201 -0.012 1 
0.462 -0.097 -0.005 1 
0.43 0.211 -0.008 1 
0.443 0.224 -0.006 1 
0.429 -0.195 -0.016 1 
0.471 -0.034 -0.015 1 
0.461 0.032 -0.005 1 
0.415 -0.278 -0.025 1 
0.416 0.286 -0.015 1 
0.39 -0.166 -0.018 1 
0.372 0.043 -0.016 1 
0.411 0.234 -0.014 1 
0.432 -0.166 -0.014 1 
0.452 0.023 -0.008 1 
0.463 0.053 0.002 1 
0.465 0.003 0.002 1 
0.478 -0.319 -0.003 1 
0.464 -0.062 0 1 
0.459 -0.205 -0.005 1 
0.399 0.034 -0.015 1 
0.452 -0.165 -0.009 1 
0.453 0.173 -0.005 1 
0.395 -0.034 -0.017 1 
0.38 0.174 -0.016 1 
0.383 0.092 -0.014 1 
0.455 0.161 -0.005 1 
0.463 -0.196 -0.003 1 
0.464 -0.28 -0.008 1 
0.372 0.193 -0.016 1 
0.405 0.255 -0.016 1 
0.431 0.239 -0.009 1 
0.415 -0.059 -0.015 1 
0.461 0.212 0.003 1 
0.453 0.013 -0.008 1 
0.444 0.233 -0.007 1 
0.405 0.182 -0.015 1 
0.404 -0.117 -0.017 1 
0.388 0.185 -0.015 1 
0.384 -0.046 -0.016 1 
0.462 -0.236 -0.006 1 
0.404 -0.245 -0.022 1 
0.384 -0.136 -0.017 1 
0.421 0.212 -0.011 1 
0.458 0.103 -0.005 1 
0.464 -0.305 -0.008 1 
0.393 -0.136 -0.018 1 
0.372 0.204 -0.017 1 
0.362 0.214 -0.016 1 
0.373 -0.166 -0.018 1 
0.473 -0.037 -0.015 1 
0.47 -0.251 0.094 3 
0.462 0.272 0.152 3 
0.469 -0.105 0.153 3 
0.469 -0.116 0.154 3 
0.468 -0.127 0.153 3 
0.469 -0.135 0.154 3 
0.46 0.335 0.062 3 
0.47 -0.147 0.154 3 
0.479 -0.326 0.162 3 
0.479 -0.336 0.163 3 
0.48 -0.348 0.164 3 
0.461 0.339 0.154 3 
0.461 0.332 0.154 3 
0.46 0.231 0.062 3 
0.462 0.313 0.153 3 
0.462 0.303 0.153 3 
0.462 0.154 0.133 3 
0.462 0.294 0.153 3 
0.462 0.284 0.152 3 
0.463 0.073 0.143 3 
0.464 -0.006 0.092 3 
0.461 0.153 0.033 3 
0.463 0.152 0.152 3 
0.467 -0.085 0.144 3 
0.462 0.253 0.154 3 
0.462 0.244 0.154 3 
0.461 0.232 0.153 3 
0.462 0.223 0.153 3 
0.463 0.212 0.153 3 
0.461 0.274 0.062 3 
0.463 0.192 0.153 3 
0.463 0.184 0.153 3 
0.464 0.172 0.153 3 
0.464 0.164 0.152 3 
0.468 -0.096 0.153 3 
0.463 0.144 0.152 3 
0.464 0.133 0.152 3 
0.464 0.122 0.152 3 
0.465 0.117 0.152 3 
0.464 0.022 0.151 3 
0.472 -0.247 0.033 3 
0.467 -0.055 0.152 3 
0.459 0.331 0.062 3 
0.468 -0.066 0.153 3 
0.469 -0.077 0.153 3 
0.469 -0.086 0.153 3 
0.463 0.014 0.143 3 
0.463 0.144 0.144 3 
0.463 0.133 0.144 3 
0.463 0.122 0.143 3 
0.463 0.113 0.143 3 
0.463 0.103 0.143 3 
0.463 0.094 0.143 3 
0.464 0.084 0.143 3 
0.464 0.062 0.143 3 
0.464 0.054 0.143 3 
0.463 0.033 0.143 3 
0.463 0.022 0.143 3 
0.463 0.152 0.144 3 
0.467 -0.187 0.014 3 
0.463 0.003 0.143 3 
0.477 -0.306 0.134 3 
0.465 -0.006 0.143 3 
0.465 -0.017 0.143 3 
0.466 -0.025 0.144 3 
0.466 -0.047 0.144 3 
0.467 -0.055 0.144 3 
0.467 -0.066 0.144 3 
0.467 -0.077 0.144 3 
0.461 0.284 0.024 3 
0.464 0.003 0.146 3 
0.47 -0.156 0.152 3 
0.461 0.282 0.132 3 
0.47 -0.167 0.152 3 
0.47 -0.176 0.152 3 
0.47 -0.187 0.152 3 
0.471 -0.197 0.153 3 
0.471 -0.206 0.153 3 
0.472 -0.217 0.153 3 
0.473 -0.227 0.154 3 
0.458 0.242 0.014 3 
0.473 -0.236 0.154 3 
0.464 0.014 0.149 3 
0.473 -0.245 0.152 3 
0.475 -0.256 0.153 3 
0.464 -0.086 0.018 3 
0.475 -0.266 0.153 3 
0.476 -0.276 0.153 3 
0.477 -0.287 0.154 3 
0.477 -0.296 0.154 3 
0.462 0.194 0.144 3 
0.463 0.183 0.144 3 
0.463 0.174 0.144 3 
0.463 0.163 0.144 3 
0.471 -0.277 0.084 3 
0.461 0.242 0.112 3 
0.464 0.033 0.159 3 
0.468 -0.137 0.104 3 
0.471 -0.237 0.024 3 
0.469 -0.116 0.162 3 
0.471 -0.125 0.163 3 
0.471 -0.137 0.163 3 
0.481 -0.356 0.161 3 
0.47 -0.145 0.163 3 
0.479 -0.356 0.133 3 
0.471 -0.156 0.163 3 
0.464 0.092 0.16 3 
0.47 -0.176 0.163 3 
0.47 -0.185 0.164 3 
0.467 -0.107 0.104 3 
0.471 -0.255 0.052 3 
0.465 -0.036 0.044 3 
0.471 -0.197 0.164 3 
0.48 -0.327 0.172 3 
0.468 -0.165 0.022 3 
0.48 -0.338 0.172 3 
0.481 -0.346 0.173 3 
0.461 0.34 0.163 3 
0.462 0.301 0.164 3 
0.471 -0.225 0.122 3 
0.475 -0.209 0.169 3 
0.475 -0.215 0.169 3 
0.471 -0.165 0.163 3 
0.474 -0.237 0.169 3 
0.462 0.043 0.034 3 
0.474 -0.247 0.169 3 
0.477 -0.287 0.172 3 
0.479 -0.296 0.173 3 
0.48 -0.317 0.174 3 
0.462 0.334 0.166 3 
0.462 0.334 0.163 3 
0.463 0.292 0.164 3 
0.463 0.282 0.164 3 
0.47 -0.206 0.113 3 
0.464 0.274 0.164 3 
0.463 0.261 0.163 3 
0.463 0.251 0.163 3 
0.463 0.242 0.163 3 
0.463 0.233 0.162 3 
0.463 0.222 0.162 3 
0.464 0.153 0.161 3 
0.464 0.144 0.16 3 
0.465 -0.006 0.154 3 
0.464 0.073 0.154 3 
0.46 0.335 0.054 3 
0.464 0.062 0.154 3 
0.465 -0.047 0.028 3 
0.465 0.057 0.154 3 
0.464 0.064 0.073 3 
0.464 -0.017 0.074 3 
0.464 0.054 0.154 3 
0.464 0.043 0.154 3 
0.465 0.022 0.154 3 
0.465 0.014 0.154 3 
0.463 0.084 0.154 3 
0.466 -0.017 0.154 3 
0.466 -0.025 0.154 3 
0.474 -0.256 0.161 3 
0.461 0.244 0.043 3 
0.476 -0.276 0.162 3 
0.461 0.302 0.144 3 
0.477 -0.287 0.163 3 
0.477 -0.297 0.163 3 
0.472 -0.353 0.064 3 
0.476 -0.306 0.163 3 
0.478 -0.315 0.164 3 
0.468 -0.137 0.093 3 
0.46 0.271 0.104 3 
0.464 0.322 0.163 3 
0.463 0.311 0.162 3 
0.461 0.134 0.073 3 
0.464 0.06 0.157 3 
0.464 0.052 0.157 3 
0.464 0.041 0.157 3 
0.472 -0.206 0.162 3 
0.468 -0.165 0.033 3 
0.472 -0.215 0.162 3 
0.474 -0.225 0.163 3 
0.462 0.259 0.154 3 
0.474 -0.237 0.163 3 
0.474 -0.246 0.163 3 
0.475 -0.257 0.164 3 
0.475 -0.266 0.164 3 
0.465 0.32 0.16 3 
0.464 0.133 0.155 3 
0.464 0.117 0.155 3 
0.464 0.114 0.154 3 
0.463 0.103 0.154 3 
0.463 0.094 0.154 3 
0.462 0.132 0.124 3 
0.472 -0.256 0.132 3 
0.473 -0.266 0.132 3 
0.474 -0.277 0.133 3 
0.475 -0.281 0.133 3 
0.476 -0.288 0.133 3 
0.476 -0.295 0.134 3 
0.461 0.164 0.124 3 
0.462 0.148 0.124 3 
0.461 0.183 0.052 3 
0.462 0.143 0.124 3 
0.465 -0.073 0.023 3 
0.48 -0.358 0.14 3 
0.473 -0.354 0.035 3 
0.462 0.124 0.124 3 
0.463 0.113 0.124 3 
0.463 0.102 0.124 3 
0.463 0.094 0.124 3 
0.463 0.083 0.124 3 
0.462 0.064 0.124 3 
0.462 0.054 0.124 3 
0.463 0.043 0.124 3 
0.463 0.032 0.124 3 
0.462 0.022 0.124 3 
0.469 -0.146 0.132 3 
0.48 -0.336 0.142 3 
0.48 -0.347 0.142 3 
0.458 0.335 0.133 3 
0.459 0.332 0.133 3 
0.473 -0.288 0.092 3 
0.462 0.322 0.134 3 
0.465 -0.106 0.004 3 
0.461 0.314 0.133 3 
0.46 0.304 0.133 3 
0.461 0.292 0.132 3 
0.463 0.263 0.132 3 
0.464 0.003 0.124 3 
0.469 -0.155 0.132 3 
0.469 -0.166 0.132 3 
0.469 -0.175 0.132 3 
0.471 -0.187 0.133 3 
0.471 -0.196 0.133 3 
0.47 -0.207 0.133 3 
0.472 -0.217 0.134 3 
0.472 -0.226 0.134 3 
0.473 -0.236 0.134 3 
0.464 -0.009 0.052 3 
0.472 -0.247 0.134 3 
0.469 -0.166 0.124 3 
0.466 -0.055 0.122 3 
0.464 -0.017 0.052 3 
0.467 -0.077 0.122 3 
0.467 -0.085 0.123 3 
0.468 -0.096 0.123 3 
0.467 -0.107 0.123 3 
0.467 -0.115 0.123 3 
0.468 -0.126 0.123 3 
0.468 -0.135 0.123 3 
0.469 -0.146 0.124 3 
0.469 -0.158 0.124 3 
0.465 -0.047 0.122 3 
0.47 -0.175 0.124 3 
0.471 -0.187 0.124 3 
0.47 -0.201 0.124 3 
0.46 0.336 0.122 3 
0.46 0.333 0.122 3 
0.463 0.323 0.122 3 
0.462 0.312 0.122 3 
0.465 -0.022 0.119 3 
0.47 -0.207 0.122 3 
0.47 -0.215 0.122 3 
0.473 0.357 0.199 3 
0.461 0.282 0.124 3 
0.463 -0.006 0.124 3 
0.464 -0.017 0.124 3 
0.465 -0.025 0.124 3 
0.465 -0.036 0.124 3 
0.479 -0.318 0.132 3 
0.48 -0.329 0.133 3 
0.471 -0.277 0.044 3 
0.48 -0.336 0.133 3 
0.48 -0.347 0.133 3 
0.461 0.304 0.124 3 
0.462 0.293 0.124 3 
0.468 -0.135 0.134 3 
0.462 0.274 0.124 3 
0.462 0.261 0.124 3 
0.461 0.243 0.123 3 
0.461 0.234 0.123 3 
0.46 0.221 0.122 3 
0.461 0.204 0.122 3 
0.462 0.193 0.122 3 
0.463 0.182 0.122 3 
0.462 0.173 0.122 3 
0.464 -0.025 0.122 3 
0.464 -0.036 0.122 3 
0.473 -0.245 0.143 3 
0.471 -0.197 0.144 3 
0.481 -0.356 0.152 3 
0.478 -0.337 0.114 3 
0.459 0.333 0.142 3 
0.463 0.324 0.143 3 
0.464 -0.006 0.138 3 
0.464 -0.017 0.138 3 
0.471 -0.205 0.142 3 
0.472 -0.217 0.142 3 
0.473 -0.227 0.143 3 
0.473 -0.236 0.143 3 
0.471 -0.188 0.144 3 
0.474 -0.258 0.144 3 
0.474 -0.265 0.144 3 
0.475 -0.269 0.144 3 
0.475 -0.275 0.144 3 
0.477 -0.286 0.142 3 
0.468 -0.205 0.014 3 
0.478 -0.297 0.143 3 
0.462 0.204 0.092 3 
0.477 -0.306 0.143 3 
0.479 -0.318 0.144 3 
0.48 -0.326 0.144 3 
0.463 0.263 0.143 3 
0.478 -0.307 0.152 3 
0.464 0.003 0.132 3 
0.48 -0.316 0.153 3 
0.479 -0.325 0.153 3 
0.479 -0.336 0.154 3 
0.48 -0.348 0.154 3 
0.461 0.312 0.144 3 
0.462 0.293 0.144 3 
0.462 0.281 0.144 3 
0.461 -0.007 0.013 3 
0.463 0.272 0.144 3 
0.462 0.25 0.134 3 
0.462 0.244 0.143 3 
0.461 0.234 0.142 3 
0.461 0.222 0.142 3 
0.462 0.214 0.142 3 
0.467 -0.107 0.142 3 
0.467 -0.115 0.142 3 
0.468 -0.127 0.142 3 
0.47 -0.147 0.143 3 
0.47 -0.156 0.143 3 
0.469 -0.166 0.143 3 
0.469 -0.175 0.143 3 
0.465 -0.022 0.132 3 
0.463 0.073 0.132 3 
0.463 0.062 0.132 3 
0.463 0.054 0.132 3 
0.463 0.043 0.132 3 
0.461 0.244 0.062 3 
0.463 0.033 0.132 3 
0.463 0.022 0.132 3 
0.462 0.014 0.132 3 
0.464 -0.006 0.132 3 
0.471 -0.295 0.012 3 
0.464 -0.017 0.132 3 
0.463 0.083 0.132 3 
0.465 -0.025 0.132 3 
0.465 -0.036 0.133 3 
0.465 -0.047 0.133 3 
0.466 -0.055 0.133 3 
0.466 -0.066 0.133 3 
0.467 -0.077 0.133 3 
0.467 -0.085 0.133 3 
0.467 -0.096 0.134 3 
0.467 -0.115 0.134 3 
0.467 -0.126 0.134 3 
0.464 -0.017 0.113 3 
0.462 0.182 0.133 3 
0.475 -0.309 0.084 3 
0.461 0.243 0.134 3 
0.461 0.252 0.123 3 
0.465 0.006 0.06 3 
0.461 0.234 0.134 3 
0.46 0.224 0.133 3 
0.461 0.213 0.134 3 
0.473 -0.266 0.124 3 
0.461 0.202 0.133 3 
0.462 0.193 0.133 3 
0.468 -0.145 0.052 3 
0.474 -0.258 0.149 3 
0.463 0.174 0.133 3 
0.462 0.162 0.133 3 
0.462 0.143 0.133 3 
0.463 0.132 0.133 3 
0.463 0.124 0.133 3 
0.465 -0.095 0.007 3 
0.462 0.113 0.132 3 
0.463 0.102 0.132 3 
0.464 -0.036 0.092 3 
0.463 0.094 0.132 3 
0.465 -0.036 0.002 3 
0.465 0.16 0.184 3 
0.466 0.152 0.184 3 
0.462 0.203 0.142 3 
0.468 0.144 0.184 3 
0.469 0.133 0.184 3 
0.475 -0.284 0.116 3 
0.469 0.122 0.184 3 
0.467 -0.107 0.134 3 
0.469 0.114 0.184 3 
0.468 0.102 0.183 3 
0.468 0.094 0.183 3 
0.464 0.162 0.183 3 
0.469 0.083 0.184 3 
0.469 0.072 0.183 3 
0.469 0.064 0.183 3 
0.471 0.053 0.184 3 
0.47 0.042 0.184 3 
0.465 0.114 0.163 3 
0.47 0.034 0.184 3 
0.47 0.023 0.184 3 
0.469 0.014 0.183 3 
0.46 0.302 0.082 3 
0.469 0.003 0.183 3 
0.469 0.334 0.192 3 
0.464 -0.076 0.018 3 
0.483 -0.297 0.199 3 
0.483 -0.308 0.199 3 
0.458 0.313 0.012 3 
0.485 -0.313 0.2 3 
0.485 -0.316 0.2 3 
0.485 -0.327 0.201 3 
0.486 -0.335 0.202 3 
0.486 -0.346 0.203 3 
0.47 0.35 0.194 3 
0.47 0.342 0.193 3 
0.463 0.043 0.052 3 
0.469 -0.146 0.093 3 
0.464 0.2 0.184 3 
0.463 0.193 0.184 3 
0.46 0.312 0.062 3 
0.464 0.182 0.184 3 
0.46 0.234 0.033 3 
0.465 0.18 0.184 3 
0.464 0.174 0.183 3 
0.465 0.169 0.184 3 
0.472 -0.166 0.172 3 
0.469 -0.135 0.143 3 
0.463 0.043 0.143 3 
0.465 0.233 0.183 3 
0.466 0.224 0.183 3 
0.462 0.083 0.073 3 
0.467 0.213 0.183 3 
0.461 0.213 0.122 3 
0.465 0.203 0.182 3 
0.472 -0.067 0.182 3 
0.473 -0.076 0.182 3 
0.461 0.304 0.113 3 
0.472 -0.087 0.182 3 
0.473 -0.095 0.183 3 
0.465 0.242 0.183 3 
0.472 -0.106 0.182 3 
0.472 -0.115 0.182 3 
0.474 -0.127 0.184 3 
0.474 -0.135 0.184 3 
0.475 -0.144 0.184 3 
0.463 0.272 0.132 3 
0.475 -0.147 0.184 3 
0.474 -0.153 0.184 3 
0.461 0.203 0.033 3 
0.474 -0.155 0.184 3 
0.473 -0.167 0.184 3 
0.474 -0.127 0.186 3 
0.47 -0.007 0.184 3 
0.479 -0.317 0.123 3 
0.47 -0.015 0.184 3 
0.47 -0.026 0.184 3 
0.47 -0.037 0.172 3 
0.471 -0.037 0.184 3 
0.471 -0.045 0.184 3 
0.465 -0.055 0.063 3 
0.472 -0.056 0.184 3 
0.473 -0.107 0.186 3 
0.473 -0.115 0.186 3 
0.481 -0.289 0.197 3 
0.474 -0.135 0.187 3 
0.474 -0.158 0.187 3 
0.474 -0.176 0.188 3 
0.478 -0.266 0.192 3 
0.48 -0.278 0.193 3 
0.48 -0.288 0.194 3 
0.484 -0.315 0.197 3 
0.47 -0.215 0.044 3 
0.466 0.264 0.184 3 
0.477 0.267 0.189 3 
0.465 0.251 0.183 3 
0.464 0.084 0.157 3 
0.466 0.163 0.187 3 
0.467 0.153 0.187 3 
0.461 0.281 0.093 3 
0.469 0.142 0.187 3 
0.469 0.133 0.187 3 
0.463 0.064 0.113 3 
0.469 0.122 0.187 3 
0.469 0.072 0.186 3 
0.47 0.114 0.187 3 
0.466 0.282 0.174 3 
0.469 0.102 0.187 3 
0.467 0.173 0.188 3 
0.469 0.094 0.186 3 
0.47 0.083 0.187 3 
0.47 0.064 0.187 3 
0.472 0.053 0.187 3 
0.472 0.042 0.187 3 
0.471 0.034 0.187 3 
0.472 0.023 0.187 3 
0.47 0.014 0.186 3 
0.47 0.003 0.186 3 
0.471 -0.007 0.187 3 
0.471 -0.015 0.187 3 
0.469 0.283 0.192 3 
0.47 0.35 0.197 3 
0.464 0.153 0.166 3 
0.461 0.142 0.084 3 
0.47 0.343 0.196 3 
0.469 0.334 0.195 3 
0.463 0.024 0.103 3 
0.469 0.323 0.194 3 
0.468 0.312 0.193 3 
0.468 0.302 0.193 3 
0.462 0.182 0.114 3 
0.469 0.293 0.193 3 
0.471 -0.026 0.187 3 
0.469 0.273 0.192 3 
0.468 0.263 0.191 3 
0.465 0.251 0.189 3 
0.466 0.243 0.189 3 
0.466 0.234 0.189 3 
0.468 0.223 0.189 3 
0.466 -0.036 0.144 3 
0.468 0.214 0.189 3 
0.466 0.201 0.188 3 
0.466 0.192 0.188 3 
0.467 0.184 0.188 3 
0.477 -0.217 0.193 3 
0.476 -0.145 0.19 3 
0.477 -0.157 0.191 3 
0.466 0.344 0.183 3 
0.475 -0.165 0.191 3 
0.465 -0.065 0.074 3 
0.474 -0.167 0.19 3 
0.475 -0.177 0.191 3 
0.476 -0.186 0.192 3 
0.476 -0.195 0.192 3 
0.477 -0.205 0.193 3 
0.472 -0.126 0.174 3 
0.477 -0.318 0.102 3 
0.478 -0.227 0.194 3 
0.478 -0.236 0.194 3 
0.478 -0.245 0.195 3 
0.478 -0.254 0.194 3 
0.462 0.263 0.062 3 
0.478 -0.257 0.195 3 
0.477 -0.263 0.194 3 
0.466 -0.076 0.074 3 
0.478 -0.267 0.195 3 
0.481 -0.279 0.197 3 
0.46 0.322 0.054 3 
0.474 -0.087 0.188 3 
0.472 -0.037 0.187 3 
0.472 -0.045 0.188 3 
0.473 -0.056 0.188 3 
0.474 -0.065 0.188 3 
0.465 0.212 0.174 3 
0.475 -0.074 0.189 3 
0.465 -0.125 0.012 3 
0.475 -0.076 0.189 3 
0.467 -0.047 0.152 3 
0.474 -0.079 0.188 3 
0.465 0.134 0.163 3 
0.48 -0.298 0.191 3 
0.474 -0.096 0.189 3 
0.475 -0.104 0.189 3 
0.475 -0.107 0.189 3 
0.475 -0.116 0.189 3 
0.475 -0.357 0.052 3 
0.475 -0.127 0.19 3 
0.467 -0.036 0.152 3 
0.476 -0.136 0.19 3 
0.464 0.033 0.154 3 
0.462 0.094 0.103 3 
0.464 0.32 0.172 3 
0.473 -0.187 0.173 3 
0.474 -0.196 0.174 3 
0.474 -0.205 0.174 3 
0.474 -0.226 0.175 3 
0.483 -0.327 0.182 3 
0.483 -0.338 0.182 3 
0.483 -0.345 0.183 3 
0.485 -0.351 0.184 3 
0.462 0.342 0.172 3 
0.465 0.334 0.173 3 
0.465 0.324 0.172 3 
0.472 -0.177 0.173 3 
0.465 0.314 0.172 3 
0.464 0.293 0.17 3 
0.464 0.259 0.169 3 
0.461 0.299 0.034 3 
0.465 0.244 0.169 3 
0.471 -0.258 0.072 3 
0.474 -0.217 0.172 3 
0.473 -0.225 0.171 3 
0.475 -0.229 0.172 3 
0.462 0.064 0.092 3 
0.475 -0.235 0.172 3 
0.465 0.294 0.174 3 
0.474 -0.187 0.176 3 
0.479 -0.296 0.182 3 
0.48 -0.307 0.183 3 
0.482 -0.316 0.184 3 
0.469 -0.185 0.094 3 
0.462 0.342 0.175 3 
0.465 0.003 0.154 3 
0.464 0.306 0.174 3 
0.468 -0.176 0.033 3 
0.465 0.304 0.174 3 
0.464 0.297 0.173 3 
0.463 0.014 0.124 3 
0.466 0.273 0.173 3 
0.478 -0.305 0.173 3 
0.459 0.336 0.142 3 
0.465 0.263 0.172 3 
0.462 0.072 0.002 3 
0.465 0.253 0.172 3 
0.462 0.213 0.114 3 
0.465 0.232 0.171 3 
0.464 0.223 0.171 3 
0.472 -0.146 0.172 3 
0.473 -0.155 0.172 3 
0.466 0.003 0.163 3 
0.464 0.103 0.163 3 
0.465 0.095 0.163 3 
0.465 0.093 0.163 3 
0.466 0.082 0.163 3 
0.466 0.074 0.163 3 
0.465 0.063 0.163 3 
0.466 0.044 0.163 3 
0.466 0.033 0.163 3 
0.476 -0.327 0.084 3 
0.467 0.022 0.163 3 
0.467 0.014 0.163 3 
0.461 0.32 0.113 3 
0.466 -0.006 0.163 3 
0.467 -0.015 0.163 3 
0.468 -0.025 0.163 3 
0.469 -0.036 0.164 3 
0.469 -0.045 0.164 3 
0.469 -0.055 0.164 3 
0.469 -0.066 0.164 3 
0.461 0.294 0.113 3 
0.47 -0.075 0.164 3 
0.469 -0.086 0.164 3 
0.469 -0.097 0.164 3 
0.466 -0.047 0.002 3 
0.475 -0.248 0.173 3 
0.47 -0.206 0.083 3 
0.476 -0.255 0.173 3 
0.476 -0.267 0.174 3 
0.462 0.104 0.084 3 
0.477 -0.278 0.174 3 
0.464 0.283 0.167 3 
0.462 -0.025 0.013 3 
0.463 0.207 0.164 3 
0.476 -0.323 0.043 3 
0.463 0.204 0.164 3 
0.463 0.324 0.154 3 
0.463 0.193 0.164 3 
0.463 0.184 0.164 3 
0.463 0.173 0.164 3 
0.464 0.164 0.163 3 
0.465 0.162 0.164 3 
0.465 -0.044 0.103 3 
0.465 0.153 0.164 3 
0.465 0.142 0.163 3 
0.466 0.123 0.163 3 
0.464 0.111 0.163 3 
0.474 -0.202 0.18 3 
0.469 -0.197 0.052 3 
0.485 -0.337 0.192 3 
0.486 -0.349 0.193 3 
0.465 -0.007 0.044 3 
0.467 0.349 0.184 3 
0.465 -0.007 0.06 3 
0.467 0.334 0.182 3 
0.466 0.109 0.174 3 
0.466 0.104 0.174 3 
0.467 0.001 0.174 3 
0.475 -0.182 0.18 3 
0.485 -0.326 0.192 3 
0.474 -0.205 0.18 3 
0.474 -0.217 0.18 3 
0.477 -0.237 0.182 3 
0.477 -0.246 0.182 3 
0.477 -0.256 0.182 3 
0.477 -0.265 0.183 3 
0.478 -0.276 0.184 3 
0.479 -0.286 0.184 3 
0.484 -0.325 0.188 3 
0.464 0.25 0.174 3 
0.464 0.244 0.174 3 
0.464 0.25 0.18 3 
0.483 -0.307 0.193 3 
0.485 -0.316 0.194 3 
0.484 -0.319 0.194 3 
0.467 0.317 0.184 3 
0.467 0.313 0.184 3 
0.46 0.293 0.093 3 
0.467 0.303 0.184 3 
0.468 0.294 0.184 3 
0.467 0.281 0.183 3 
0.466 0.273 0.182 3 
0.471 -0.225 0.052 3 
0.464 0.232 0.174 3 
0.466 -0.066 0.122 3 
0.464 0.244 0.18 3 
0.473 -0.175 0.181 3 
0.462 0.242 0.093 3 
0.475 -0.185 0.182 3 
0.475 -0.197 0.183 3 
0.476 -0.207 0.184 3 
0.462 0.072 0.124 3 
0.476 -0.216 0.184 3 
0.469 -0.177 0.074 3 
0.476 -0.225 0.184 3 
0.46 0.103 0.013 3 
0.463 0.204 0.153 3 
0.467 0.052 0.171 3 
0.467 0.044 0.171 3 
0.46 0.312 0.093 3 
0.468 0.033 0.172 3 
0.465 0.054 0.163 3 
0.469 0.022 0.172 3 
0.467 0.014 0.171 3 
0.468 -0.006 0.172 3 
0.468 -0.015 0.172 3 
0.469 -0.026 0.172 3 
0.467 0.063 0.172 3 
0.471 -0.045 0.173 3 
0.469 -0.056 0.172 3 
0.47 -0.067 0.173 3 
0.458 0.213 0.014 3 
0.469 -0.075 0.172 3 
0.47 -0.086 0.173 3 
0.471 -0.095 0.173 3 
0.471 -0.106 0.174 3 
0.46 0.241 0.104 3 
0.471 -0.117 0.174 3 
0.472 -0.137 0.174 3 
0.472 -0.287 0.052 3 
0.465 0.223 0.174 3 
0.464 -0.025 0.127 3 
0.464 0.205 0.173 3 
0.471 -0.237 0.123 3 
0.465 0.203 0.173 3 
0.463 0.254 0.143 3 
0.463 0.199 0.173 3 
0.462 0.284 0.043 3 
0.464 0.193 0.173 3 
0.464 0.182 0.173 3 
0.464 0.173 0.172 3 
0.469 -0.105 0.164 3 
0.463 0.164 0.172 3 
0.465 0.159 0.172 3 
0.465 0.154 0.172 3 
0.465 0.142 0.172 3 
0.466 0.134 0.172 3 
0.467 0.124 0.172 3 
0.467 -0.096 0.142 3 
0.467 0.093 0.172 3 
0.468 0.083 0.172 3 
0.468 0.074 0.172 3 
0.461 0.142 0.044 3 
0.465 -0.055 0.028 3 
0.459 0.222 0.022 3 
0.461 0.253 0.043 3 
0.46 0.223 0.044 3 
0.461 0.212 0.044 3 
0.461 0.203 0.044 3 
0.461 0.192 0.044 3 
0.461 0.183 0.044 3 
0.461 0.172 0.044 3 
0.461 0.164 0.044 3 
0.461 0.153 0.044 3 
0.46 0.264 0.043 3 
0.461 0.134 0.044 3 
0.462 0.123 0.044 3 
0.462 0.112 0.044 3 
0.462 0.104 0.044 3 
0.463 0.093 0.044 3 
0.463 0.083 0.044 3 
0.463 0.072 0.044 3 
0.465 -0.055 0.044 3 
0.463 0.064 0.044 3 
0.463 0.053 0.044 3 
0.463 0.043 0.044 3 
0.473 -0.297 0.052 3 
0.468 -0.126 0.052 3 
0.468 -0.137 0.052 3 
0.468 -0.156 0.052 3 
0.468 -0.165 0.052 3 
0.468 -0.176 0.052 3 
0.468 -0.185 0.052 3 
0.47 -0.215 0.052 3 
0.471 -0.237 0.052 3 
0.471 -0.246 0.052 3 
0.47 -0.266 0.052 3 
0.47 -0.276 0.052 3 
0.463 0.032 0.044 3 
0.474 -0.307 0.052 3 
0.475 -0.315 0.052 3 
0.477 -0.327 0.052 3 
0.477 -0.338 0.052 3 
0.458 0.333 0.043 3 
0.459 0.321 0.043 3 
0.459 0.314 0.043 3 
0.459 0.304 0.043 3 
0.465 -0.065 0.044 3 
0.461 0.293 0.043 3 
0.46 0.273 0.043 3 
0.464 -0.007 0.042 3 
0.471 -0.255 0.044 3 
0.471 -0.286 0.013 3 
0.47 -0.266 0.044 3 
0.472 -0.286 0.044 3 
0.473 -0.297 0.044 3 
0.474 -0.307 0.044 3 
0.46 0.223 0.033 3 
0.474 -0.317 0.044 3 
0.476 -0.326 0.043 3 
0.477 -0.338 0.043 3 
0.475 -0.357 0.043 3 
0.471 -0.246 0.044 3 
0.464 -0.046 0.042 3 
0.474 -0.356 0.04 3 
0.458 0.333 0.034 3 
0.46 0.322 0.034 3 
0.459 0.314 0.034 3 
0.464 -0.041 0.036 3 
0.464 -0.068 0.036 3 
0.475 -0.312 0.035 3 
0.477 -0.341 0.034 3 
0.477 -0.345 0.034 3 
0.474 -0.318 0.023 3 
0.468 -0.107 0.044 3 
0.463 0.024 0.044 3 
0.463 0.014 0.044 3 
0.464 0.003 0.044 3 
0.465 -0.004 0.044 3 
0.465 -0.015 0.044 3 
0.465 -0.025 0.044 3 
0.465 -0.047 0.044 3 
0.464 -0.057 0.044 3 
0.465 -0.076 0.044 3 
0.466 -0.087 0.044 3 
0.467 -0.095 0.044 3 
0.467 -0.117 0.052 3 
0.467 -0.117 0.044 3 
0.467 -0.125 0.044 3 
0.468 -0.137 0.044 3 
0.468 -0.145 0.044 3 
0.468 -0.156 0.044 3 
0.468 -0.176 0.044 3 
0.468 -0.185 0.044 3 
0.469 -0.197 0.044 3 
0.47 -0.206 0.044 3 
0.47 -0.227 0.044 3 
0.47 -0.236 0.044 3 
0.469 -0.197 0.063 3 
0.466 -0.087 0.063 3 
0.466 -0.095 0.063 3 
0.466 -0.106 0.063 3 
0.467 -0.117 0.063 3 
0.478 -0.346 0.052 3 
0.467 -0.125 0.063 3 
0.468 -0.137 0.063 3 
0.469 -0.146 0.063 3 
0.469 -0.157 0.063 3 
0.469 -0.165 0.063 3 
0.469 -0.185 0.063 3 
0.466 -0.076 0.063 3 
0.47 -0.206 0.064 3 
0.47 -0.215 0.064 3 
0.47 -0.227 0.064 3 
0.471 -0.237 0.064 3 
0.471 -0.246 0.064 3 
0.471 -0.255 0.064 3 
0.471 -0.267 0.064 3 
0.471 -0.276 0.064 3 
0.472 -0.287 0.064 3 
0.474 -0.305 0.064 3 
0.475 -0.308 0.064 3 
0.477 -0.345 0.043 3 
0.463 0.124 0.063 3 
0.462 0.112 0.063 3 
0.462 0.104 0.063 3 
0.462 0.093 0.063 3 
0.463 0.083 0.063 3 
0.463 0.072 0.063 3 
0.463 0.064 0.063 3 
0.464 0.054 0.063 3 
0.461 0.274 0.054 3 
0.464 0.043 0.063 3 
0.463 0.032 0.063 3 
0.475 -0.315 0.064 3 
0.464 0.024 0.063 3 
0.464 0.014 0.063 3 
0.464 0.003 0.063 3 
0.464 -0.007 0.063 3 
0.464 -0.017 0.063 3 
0.465 -0.025 0.063 3 
0.465 -0.036 0.063 3 
0.464 -0.044 0.063 3 
0.465 -0.047 0.063 3 
0.465 -0.065 0.063 3 
0.461 0.164 0.033 3 
0.465 -0.015 0.052 3 
0.462 0.134 0.052 3 
0.462 0.123 0.052 3 
0.462 0.112 0.052 3 
0.464 0.083 0.052 3 
0.463 0.072 0.052 3 
0.463 0.032 0.052 3 
0.464 0.024 0.052 3 
0.464 0.014 0.052 3 
0.464 0.003 0.052 3 
0.465 0 0.052 3 
0.465 -0.007 0.052 3 
0.461 0.142 0.052 3 
0.465 -0.025 0.052 3 
0.46 0.283 0.013 3 
0.464 -0.028 0.052 3 
0.465 -0.036 0.052 3 
0.465 -0.047 0.052 3 
0.465 -0.055 0.052 3 
0.465 -0.065 0.052 3 
0.465 -0.076 0.052 3 
0.465 -0.087 0.052 3 
0.465 -0.095 0.052 3 
0.467 -0.106 0.052 3 
0.461 0.283 0.054 3 
0.477 -0.327 0.064 3 
0.477 -0.337 0.064 3 
0.478 -0.346 0.064 3 
0.468 -0.165 0.044 3 
0.465 0.003 0.06 3 
0.465 -0.015 0.06 3 
0.475 -0.357 0.061 3 
0.462 0.153 0.052 3 
0.465 0.019 0.058 3 
0.459 0.304 0.054 3 
0.46 0.293 0.054 3 
0.461 0.293 0.032 3 
0.461 0.262 0.054 3 
0.461 0.253 0.054 3 
0.46 0.243 0.054 3 
0.461 0.232 0.054 3 
0.461 0.223 0.054 3 
0.461 0.212 0.054 3 
0.462 0.204 0.054 3 
0.462 0.193 0.054 3 
0.461 0.172 0.052 3 
0.461 0.164 0.052 3 
0.458 0.303 0.012 3 
0.467 -0.187 0.022 3 
0.468 -0.196 0.022 3 
0.469 -0.206 0.022 3 
0.469 -0.215 0.022 3 
0.474 -0.325 0.017 3 
0.474 -0.356 0.017 3 
0.475 -0.336 0.014 3 
0.477 -0.345 0.014 3 
0.474 -0.349 0.014 3 
0.458 0.334 0.012 3 
0.459 0.323 0.012 3 
0.467 -0.176 0.022 3 
0.459 0.294 0.012 3 
0.459 0.263 0.013 3 
0.459 0.254 0.013 3 
0.458 0.233 0.014 3 
0.458 0.224 0.014 3 
0.459 0.202 0.014 3 
0.459 0.194 0.014 3 
0.459 0.182 0.014 3 
0.46 0.172 0.014 3 
0.464 -0.095 0.015 3 
0.467 -0.151 0.014 3 
0.464 -0.047 0.023 3 
0.461 0.074 0.023 3 
0.462 0.064 0.023 3 
0.462 0.053 0.023 3 
0.462 0.043 0.023 3 
0.461 0.032 0.023 3 
0.462 0.024 0.023 3 
0.462 0.003 0.023 3 
0.463 -0.007 0.023 3 
0.464 -0.025 0.023 3 
0.465 -0.033 0.023 3 
0.464 -0.036 0.023 3 
0.467 -0.156 0.014 3 
0.464 -0.055 0.023 3 
0.464 -0.065 0.023 3 
0.465 -0.076 0.023 3 
0.465 -0.087 0.023 3 
0.466 -0.095 0.023 3 
0.466 -0.106 0.023 3 
0.466 -0.117 0.023 3 
0.466 -0.125 0.023 3 
0.467 -0.137 0.023 3 
0.468 -0.145 0.023 3 
0.468 -0.157 0.022 3 
0.464 -0.122 0.012 3 
0.461 0.024 0.013 3 
0.461 0.013 0.013 3 
0.461 0.003 0.013 3 
0.461 -0.046 0.013 3 
0.463 -0.065 0.013 3 
0.463 -0.076 0.013 3 
0.463 -0.086 0.013 3 
0.464 -0.095 0.013 3 
0.464 -0.105 0.012 3 
0.465 -0.114 0.012 3 
0.465 -0.117 0.012 3 
0.46 0.034 0.013 3 
0.465 -0.136 0.012 3 
0.465 -0.09 0.007 3 
0.465 -0.057 0.004 3 
0.465 -0.084 0.004 3 
0.465 -0.09 0.004 3 
0.466 -0.117 0.004 3 
0.467 -0.137 0.004 3 
0.462 0.064 0.002 3 
0.464 0.024 0.002 3 
0.464 -0.044 0.002 3 
0.465 -0.065 0.002 3 
0.473 -0.317 0.012 3 
0.467 -0.165 0.014 3 
0.466 -0.175 0.014 3 
0.467 -0.196 0.014 3 
0.468 -0.217 0.014 3 
0.468 -0.226 0.014 3 
0.47 -0.236 0.013 3 
0.469 -0.248 0.013 3 
0.469 -0.256 0.013 3 
0.47 -0.266 0.013 3 
0.471 -0.276 0.013 3 
0.473 -0.307 0.012 3 
0.462 0.082 0.023 3 
0.474 -0.335 0.011 3 
0.459 0.152 0.012 3 
0.46 0.133 0.012 3 
0.46 0.114 0.012 3 
0.46 0.093 0.013 3 
0.461 0.082 0.013 3 
0.46 0.074 0.013 3 
0.46 0.063 0.013 3 
0.46 0.053 0.013 3 
0.46 0.042 0.013 3 
0.467 -0.106 0.034 3 
0.465 -0.015 0.034 3 
0.464 -0.017 0.034 3 
0.465 -0.025 0.034 3 
0.464 -0.028 0.034 3 
0.465 -0.036 0.034 3 
0.464 -0.044 0.034 3 
0.464 -0.046 0.034 3 
0.464 -0.065 0.034 3 
0.465 -0.076 0.034 3 
0.467 -0.087 0.034 3 
0.467 -0.095 0.034 3 
0.464 -0.007 0.034 3 
0.467 -0.126 0.004 3 
0.467 -0.117 0.034 3 
0.46 0.122 0.012 3 
0.467 -0.125 0.034 3 
0.468 -0.137 0.033 3 
0.469 -0.146 0.033 3 
0.468 -0.157 0.033 3 
0.468 -0.185 0.033 3 
0.469 -0.197 0.033 3 
0.469 -0.206 0.033 3 
0.47 -0.215 0.033 3 
0.462 0.123 0.033 3 
0.462 0.284 0.032 3 
0.461 0.274 0.032 3 
0.46 0.264 0.032 3 
0.46 0.252 0.032 3 
0.46 0.243 0.032 3 
0.46 0.214 0.033 3 
0.461 0.192 0.033 3 
0.461 0.184 0.033 3 
0.461 0.172 0.033 3 
0.461 0.142 0.033 3 
0.462 0.134 0.033 3 
0.47 -0.227 0.033 3 
0.462 0.112 0.033 3 
0.462 0.104 0.034 3 
0.463 0.093 0.033 3 
0.463 0.083 0.034 3 
0.463 0.072 0.034 3 
0.463 0.064 0.034 3 
0.463 0.053 0.034 3 
0.462 0.032 0.034 3 
0.463 0.024 0.034 3 
0.463 0.014 0.034 3 
0.464 0.003 0.034 3 
0.461 0.203 0.022 3 
0.471 -0.231 0.024 3 
0.47 -0.257 0.024 3 
0.471 -0.267 0.024 3 
0.472 -0.277 0.024 3 
0.473 -0.287 0.024 3 
0.474 -0.298 0.024 3 
0.474 -0.308 0.023 3 
0.475 -0.329 0.023 3 
0.475 -0.336 0.023 3 
0.477 -0.345 0.023 3 
0.475 -0.357 0.023 3 
0.459 0.234 0.024 3 
0.46 0.183 0.022 3 
0.46 0.172 0.022 3 
0.46 0.163 0.022 3 
0.462 0.014 0.023 3 
0.46 0.152 0.023 3 
0.46 0.141 0.023 3 
0.461 0.134 0.023 3 
0.462 0.123 0.023 3 
0.462 0.112 0.023 3 
0.461 0.104 0.023 3 
0.461 0.093 0.023 3 
0.475 -0.357 0.028 3 
0.471 -0.237 0.033 3 
0.471 -0.255 0.033 3 
0.47 -0.266 0.033 3 
0.472 -0.277 0.032 3 
0.473 -0.287 0.032 3 
0.473 -0.297 0.032 3 
0.474 -0.318 0.032 3 
0.475 -0.325 0.032 3 
0.474 -0.356 0.031 3 
0.464 -0.076 0.031 3 
0.474 -0.328 0.029 3 
0.463 0.132 0.063 3 
0.456 0.331 0.023 3 
0.456 0.324 0.023 3 
0.473 -0.355 0.014 3 
0.46 0.314 0.023 3 
0.459 0.304 0.023 3 
0.461 0.293 0.023 3 
0.46 0.273 0.024 3 
0.46 0.264 0.024 3 
0.459 0.251 0.024 3 
0.459 0.242 0.024 3 
0.467 -0.115 0.104 3 
0.465 -0.022 0.103 3 
0.463 0.053 0.052 3 
0.464 -0.025 0.103 3 
0.464 -0.036 0.103 3 
0.465 -0.047 0.103 3 
0.466 -0.055 0.103 3 
0.466 -0.066 0.103 3 
0.466 -0.076 0.103 3 
0.467 -0.085 0.104 3 
0.461 0.232 0.043 3 
0.467 -0.096 0.104 3 
0.464 -0.017 0.103 3 
0.467 -0.126 0.104 3 
0.467 -0.145 0.104 3 
0.469 -0.157 0.104 3 
0.469 -0.165 0.104 3 
0.46 0.336 0.102 3 
0.459 0.331 0.102 3 
0.46 0.322 0.102 3 
0.461 0.314 0.102 3 
0.47 -0.175 0.102 3 
0.47 -0.186 0.102 3 
0.47 -0.195 0.102 3 
0.463 0.113 0.103 3 
0.463 0.202 0.103 3 
0.461 0.192 0.103 3 
0.476 -0.326 0.073 3 
0.461 0.184 0.103 3 
0.462 0.173 0.103 3 
0.462 0.162 0.103 3 
0.462 0.154 0.103 3 
0.462 0.143 0.103 3 
0.461 0.134 0.103 3 
0.462 0.123 0.103 3 
0.465 -0.098 0.004 3 
0.471 -0.207 0.102 3 
0.463 0.102 0.103 3 
0.462 0.083 0.103 3 
0.463 0.072 0.103 3 
0.463 0.064 0.103 3 
0.462 0.054 0.103 3 
0.462 0.043 0.103 3 
0.47 -0.206 0.052 3 
0.463 0.032 0.103 3 
0.463 0.014 0.103 3 
0.463 0.003 0.103 3 
0.464 -0.006 0.103 3 
0.461 0.123 0.092 3 
0.461 0.254 0.093 3 
0.461 0.232 0.093 3 
0.461 0.224 0.092 3 
0.462 0.193 0.092 3 
0.461 0.184 0.092 3 
0.461 0.172 0.092 3 
0.463 0.064 0.052 3 
0.461 0.164 0.092 3 
0.462 0.154 0.092 3 
0.462 0.143 0.092 3 
0.461 0.134 0.092 3 
0.461 0.263 0.093 3 
0.471 -0.255 0.083 3 
0.462 0.113 0.092 3 
0.462 0.104 0.092 3 
0.462 0.094 0.092 3 
0.461 0.083 0.092 3 
0.462 0.072 0.092 3 
0.463 0.054 0.092 3 
0.463 0.043 0.092 3 
0.463 0.032 0.092 3 
0.462 0.104 0.052 3 
0.463 0.024 0.092 3 
0.477 -0.329 0.102 3 
0.471 -0.216 0.103 3 
0.471 -0.225 0.103 3 
0.472 -0.238 0.103 3 
0.472 -0.247 0.103 3 
0.472 -0.256 0.103 3 
0.472 -0.265 0.103 3 
0.473 -0.279 0.104 3 
0.474 -0.286 0.104 3 
0.475 -0.29 0.104 3 
0.476 -0.297 0.104 3 
0.476 -0.307 0.102 3 
0.463 0.214 0.104 3 
0.478 -0.337 0.103 3 
0.479 -0.347 0.103 3 
0.477 -0.356 0.103 3 
0.474 -0.325 0.014 3 
0.461 0.337 0.094 3 
0.459 0.331 0.093 3 
0.461 0.323 0.094 3 
0.462 -0.017 0.013 3 
0.461 0.304 0.093 3 
0.462 0.213 0.092 3 
0.461 0.272 0.093 3 
0.461 0.262 0.073 3 
0.463 0.083 0.114 3 
0.463 0.073 0.113 3 
0.462 0.054 0.113 3 
0.462 0.043 0.113 3 
0.468 -0.176 0.063 3 
0.46 0.214 0.022 3 
0.462 0.032 0.113 3 
0.463 0.024 0.113 3 
0.473 -0.297 0.064 3 
0.462 -0.057 0.013 3 
0.463 0.014 0.113 3 
0.463 0.094 0.114 3 
0.464 0.003 0.113 3 
0.46 0.164 0.014 3 
0.464 -0.006 0.113 3 
0.465 -0.022 0.114 3 
0.464 -0.025 0.114 3 
0.465 -0.028 0.114 3 
0.464 -0.036 0.114 3 
0.465 -0.039 0.114 3 
0.465 -0.047 0.114 3 
0.466 -0.055 0.114 3 
0.466 -0.066 0.114 3 
0.462 0.222 0.114 3 
0.471 -0.255 0.123 3 
0.473 -0.276 0.124 3 
0.474 -0.286 0.124 3 
0.475 -0.29 0.122 3 
0.476 -0.298 0.122 3 
0.477 -0.309 0.122 3 
0.479 -0.328 0.123 3 
0.478 -0.337 0.123 3 
0.479 -0.349 0.124 3 
0.479 -0.356 0.124 3 
0.461 0.225 0.114 3 
0.467 -0.077 0.114 3 
0.463 0.202 0.114 3 
0.462 0.193 0.114 3 
0.463 0.174 0.114 3 
0.461 0.164 0.114 3 
0.462 0.154 0.114 3 
0.462 0.143 0.114 3 
0.462 0.134 0.114 3 
0.463 0.124 0.114 3 
0.463 0.113 0.114 3 
0.464 0.094 0.052 3 
0.463 0.102 0.114 3 
0.471 -0.246 0.024 3 
0.472 -0.247 0.114 3 
0.472 -0.256 0.112 3 
0.473 -0.266 0.112 3 
0.473 -0.276 0.112 3 
0.476 -0.288 0.113 3 
0.476 -0.298 0.113 3 
0.477 -0.308 0.114 3 
0.477 -0.315 0.114 3 
0.478 -0.326 0.114 3 
0.471 -0.246 0.083 3 
0.478 -0.347 0.112 3 
0.472 -0.235 0.114 3 
0.476 -0.356 0.112 3 
0.461 0.297 0.104 3 
0.461 0.294 0.104 3 
0.46 0.284 0.104 3 
0.46 0.332 0.082 3 
0.461 0.263 0.104 3 
0.461 0.254 0.104 3 
0.46 0.322 0.082 3 
0.461 0.233 0.103 3 
0.459 0.273 0.013 3 
0.462 0.222 0.103 3 
0.467 -0.115 0.112 3 
0.467 -0.085 0.114 3 
0.465 -0.073 0.034 3 
0.459 0.335 0.113 3 
0.46 0.333 0.113 3 
0.461 0.314 0.113 3 
0.461 0.282 0.113 3 
0.461 0.273 0.112 3 
0.461 0.263 0.112 3 
0.461 0.254 0.112 3 
0.467 -0.096 0.112 3 
0.467 -0.107 0.112 3 
0.464 0.014 0.092 3 
0.468 -0.126 0.112 3 
0.468 -0.135 0.112 3 
0.47 -0.186 0.113 3 
0.468 -0.146 0.112 3 
0.468 -0.157 0.113 3 
0.47 -0.166 0.113 3 
0.47 -0.175 0.113 3 
0.47 -0.195 0.113 3 
0.47 -0.215 0.114 3 
0.471 -0.225 0.114 3 
0.462 0.094 0.073 3 
0.461 0.212 0.073 3 
0.461 0.203 0.073 3 
0.461 0.192 0.073 3 
0.461 0.184 0.073 3 
0.461 0.172 0.073 3 
0.461 0.164 0.073 3 
0.461 0.153 0.073 3 
0.462 0.142 0.073 3 
0.462 0.123 0.073 3 
0.463 0.113 0.073 3 
0.462 0.102 0.073 3 
0.461 0.223 0.073 3 
0.463 0.072 0.073 3 
0.464 0.054 0.073 3 
0.464 0.043 0.073 3 
0.463 0.032 0.073 3 
0.463 0.024 0.073 3 
0.464 0.014 0.074 3 
0.464 0.003 0.074 3 
0.474 -0.308 0.032 3 
0.464 -0.007 0.074 3 
0.463 -0.025 0.074 3 
0.464 -0.036 0.074 3 
0.474 -0.315 0.078 3 
0.47 -0.266 0.083 3 
0.459 0.144 0.012 3 
0.472 -0.287 0.084 3 
0.473 -0.298 0.084 3 
0.474 -0.305 0.084 3 
0.475 -0.316 0.084 3 
0.464 -0.046 0.079 3 
0.461 0.212 0.063 3 
0.479 -0.34 0.082 3 
0.478 -0.346 0.082 3 
0.477 -0.355 0.082 3 
0.464 -0.046 0.074 3 
0.46 0.335 0.074 3 
0.46 0.332 0.074 3 
0.461 0.323 0.074 3 
0.46 0.312 0.074 3 
0.461 0.303 0.074 3 
0.461 0.294 0.074 3 
0.46 0.283 0.074 3 
0.46 0.274 0.074 3 
0.461 0.253 0.073 3 
0.461 0.244 0.073 3 
0.461 0.232 0.073 3 
0.461 0.294 0.062 3 
0.473 -0.307 0.072 3 
0.474 -0.315 0.073 3 
0.478 -0.339 0.073 3 
0.478 -0.346 0.073 3 
0.477 -0.355 0.073 3 
0.474 -0.355 0.07 3 
0.465 -0.025 0.066 3 
0.465 -0.041 0.066 3 
0.475 -0.312 0.067 3 
0.461 0.323 0.062 3 
0.461 0.303 0.062 3 
0.473 -0.297 0.072 3 
0.46 0.283 0.062 3 
0.461 0.253 0.062 3 
0.461 0.223 0.063 3 
0.461 0.203 0.063 3 
0.461 0.192 0.063 3 
0.461 0.183 0.063 3 
0.464 -0.057 0.034 3 
0.461 0.172 0.063 3 
0.462 -0.036 0.013 3 
0.461 0.164 0.063 3 
0.462 0.142 0.063 3 
0.469 -0.185 0.074 3 
0.465 -0.049 0.074 3 
0.465 -0.055 0.074 3 
0.466 -0.087 0.074 3 
0.466 -0.095 0.074 3 
0.466 -0.106 0.074 3 
0.467 -0.115 0.074 3 
0.468 -0.126 0.074 3 
0.468 -0.137 0.074 3 
0.468 -0.145 0.074 3 
0.469 -0.157 0.074 3 
0.468 -0.165 0.074 3 
0.471 -0.237 0.083 3 
0.47 -0.195 0.072 3 
0.47 -0.206 0.072 3 
0.47 -0.218 0.072 3 
0.47 -0.227 0.072 3 
0.47 -0.236 0.072 3 
0.471 -0.246 0.072 3 
0.464 -0.105 0.015 3 
0.47 -0.266 0.072 3 
0.471 -0.276 0.072 3 
0.471 -0.286 0.072 3 
0.462 0.248 0.084 3 
0.471 -0.267 0.092 3 
0.472 -0.277 0.092 3 
0.474 -0.295 0.093 3 
0.475 -0.3 0.093 3 
0.476 -0.307 0.093 3 
0.476 -0.317 0.093 3 
0.477 -0.328 0.093 3 
0.477 -0.335 0.094 3 
0.479 -0.347 0.094 3 
0.477 -0.355 0.094 3 
0.46 0.259 0.084 3 
0.459 0.314 0.054 3 
0.461 0.241 0.084 3 
0.461 0.232 0.084 3 
0.461 0.224 0.084 3 
0.461 0.212 0.084 3 
0.462 0.204 0.084 3 
0.461 0.192 0.084 3 
0.462 0.184 0.084 3 
0.461 0.172 0.084 3 
0.459 0.331 0.054 3 
0.461 0.164 0.084 3 
0.461 0.153 0.084 3 
0.467 -0.115 0.093 3 
0.464 0.003 0.092 3 
0.464 -0.017 0.092 3 
0.464 -0.025 0.092 3 
0.465 -0.044 0.092 3 
0.465 -0.047 0.092 3 
0.466 -0.055 0.093 3 
0.466 -0.066 0.093 3 
0.466 -0.076 0.093 3 
0.467 -0.085 0.093 3 
0.467 -0.096 0.093 3 
0.467 -0.107 0.093 3 
0.461 0.134 0.084 3 
0.467 -0.126 0.093 3 
0.46 0.191 0.022 3 
0.468 -0.156 0.093 3 
0.469 -0.165 0.093 3 
0.469 -0.177 0.094 3 
0.47 -0.195 0.094 3 
0.471 -0.207 0.094 3 
0.471 -0.216 0.094 3 
0.471 -0.225 0.094 3 
0.471 -0.237 0.094 3 
0.471 -0.255 0.092 3 
0.467 -0.126 0.082 3 
0.46 0.335 0.082 3 
0.46 0.312 0.082 3 
0.46 0.293 0.082 3 
0.461 0.284 0.082 3 
0.46 0.274 0.082 3 
0.465 -0.076 0.082 3 
0.466 -0.087 0.082 3 
0.466 -0.095 0.082 3 
0.467 -0.107 0.082 3 
0.464 -0.015 0.023 3 
0.467 -0.115 0.082 3 
0.474 -0.305 0.087 3 
0.462 0.153 0.063 3 
0.468 -0.137 0.082 3 
0.469 -0.146 0.082 3 
0.469 -0.157 0.082 3 
0.464 -0.017 0.042 3 
0.469 -0.165 0.083 3 
0.469 -0.177 0.083 3 
0.469 -0.185 0.083 3 
0.47 -0.195 0.083 3 
0.47 -0.215 0.083 3 
0.471 -0.225 0.083 3 
0.464 0.003 0.084 3 
0.462 0.123 0.084 3 
0.462 0.112 0.084 3 
0.462 0.094 0.084 3 
0.462 0.083 0.084 3 
0.463 0.072 0.084 3 
0.462 0.064 0.084 3 
0.464 0.054 0.084 3 
0.463 0.043 0.084 3 
0.463 0.032 0.084 3 
0.463 0.024 0.084 3 
0.464 0.014 0.084 3 
0.471 -0.246 0.123 3 
0.463 -0.006 0.084 3 
0.475 -0.318 0.073 3 
0.463 -0.017 0.084 3 
0.464 -0.025 0.084 3 
0.464 0.027 0.002 3 
0.464 -0.036 0.084 3 
0.465 -0.044 0.084 3 
0.465 -0.047 0.084 3 
0.465 -0.055 0.084 3 
0.465 -0.065 0.084 3 
0.305 -0.005 0.02 7 
0.307 0.002 0.019 7 
0.31 -0.015 0.019 7 
0.298 -0.015 0.021 7 
0.298 0.002 0.021 7 
0.299 -0.005 0.02 7 
