# .PCD v0.7 - Point Cloud Data file
FIELDS x y z intensity
SIZE 4 4 4 4
TYPE F F F F
COUNT 1 1 1 1
WIDTH 1962
HEIGHT 1
VIEWPOINT 0 0 0 1 0 0 0
POINTS 1962
DATA ascii
0.342 0.011 0.004 0 
0.265 -0.051 0.094 0 
0.27 -0.044 0.088 0 
0.275 -0.043 0.087 0 
0.285 -0.044 0.089 0 
0.243 -0.055 0.091 0 
0.321 -0.042 0.087 0 
0.257 -0.054 0.097 0 
0.253 -0.054 0.095 0 
0.25 -0.055 0.094 0 
0.248 -0.054 0.093 0 
0.244 -0.054 0.092 0 
0.234 -0.058 0.088 0 
0.228 -0.065 0.086 0 
0.255 -0.053 0.094 0 
0.31 -0.044 0.089 0 
0.303 -0.043 0.088 0 
0.329 -0.046 0.09 0 
0.345 -0.101 0.009 0 
0.349 -0.105 0.008 0 
0.324 -0.145 -0.004 1 
0.324 -0.026 -0.001 1 
0.324 -0.015 -0.001 1 
0.354 0.082 -0.013 1 
0.352 0.123 -0.014 1 
0.351 0.13 -0.014 1 
0.353 0.133 -0.015 1 
0.354 0.138 -0.015 1 
0.35 0.163 -0.015 1 
0.349 0.184 -0.016 1 
0.343 0.202 -0.015 1 
0.339 0.2 -0.013 1 
0.332 -0.138 -0.005 1 
0.332 -0.128 -0.004 1 
0.333 -0.126 -0.005 1 
0.323 -0.085 0 1 
0.334 0.006 -0.004 1 
0.362 0.071 -0.014 1 
0.364 0.074 -0.015 1 
0.359 0.122 -0.015 1 
0.361 0.154 -0.016 1 
0.354 0.169 -0.015 1 
0.352 0.193 -0.015 1 
0.334 -0.118 -0.003 1 
0.334 -0.105 -0.003 1 
0.324 -0.062 0.001 1 
0.334 0.003 -0.002 1 
0.354 0.019 -0.009 1 
0.364 0.034 -0.013 1 
0.364 0.041 -0.013 1 
0.364 0.083 -0.014 1 
0.364 0.086 -0.014 1 
0.365 0.102 -0.014 1 
0.365 0.105 -0.014 1 
0.364 0.116 -0.014 1 
0.364 0.126 -0.015 1 
0.362 0.134 -0.014 1 
0.362 0.136 -0.014 1 
0.364 0.143 -0.015 1 
0.361 0.183 -0.016 1 
0.361 0.194 -0.017 1 
0.352 0.21 -0.015 1 
0.348 0.21 -0.013 1 
0.342 -0.138 -0.005 1 
0.341 -0.135 -0.004 1 
0.342 -0.127 -0.005 1 
0.341 -0.125 -0.004 1 
0.339 -0.115 -0.003 1 
0.324 -0.066 0.002 1 
0.334 -0.025 0 1 
0.332 -0.016 0 1 
0.334 -0.007 0 1 
0.37 0.044 -0.013 1 
0.371 0.054 -0.014 1 
0.371 0.074 -0.014 1 
0.371 0.084 -0.014 1 
0.371 0.089 -0.014 1 
0.372 0.094 -0.015 1 
0.372 0.103 -0.015 1 
0.371 0.114 -0.015 1 
0.372 0.123 -0.015 1 
0.368 0.144 -0.015 1 
0.37 0.163 -0.016 1 
0.362 0.203 -0.015 1 
0.358 0.221 -0.015 1 
0.343 -0.149 -0.004 1 
0.347 -0.117 -0.004 1 
0.361 0.016 -0.008 1 
0.373 0.143 -0.014 1 
0.373 0.173 -0.016 1 
0.374 0.184 -0.016 1 
0.372 0.204 -0.017 1 
0.367 0.213 -0.016 1 
0.364 0.228 -0.016 1 
0.352 -0.176 -0.006 1 
0.351 -0.173 -0.006 1 
0.348 -0.166 -0.004 1 
0.35 -0.157 -0.005 1 
0.352 -0.145 -0.005 1 
0.35 -0.14 -0.004 1 
0.353 -0.135 -0.005 1 
0.354 -0.132 -0.005 1 
0.354 -0.118 -0.005 1 
0.328 -0.065 0.004 1 
0.334 -0.043 0.001 1 
0.383 0.043 -0.014 1 
0.385 0.071 -0.015 1 
0.382 0.074 -0.014 1 
0.383 0.08 -0.014 1 
0.386 0.084 -0.015 1 
0.384 0.093 -0.015 1 
0.384 0.101 -0.015 1 
0.382 0.104 -0.014 1 
0.382 0.11 -0.014 1 
0.383 0.123 -0.015 1 
0.382 0.133 -0.015 1 
0.38 0.138 -0.015 1 
0.38 0.154 -0.015 1 
0.381 0.163 -0.016 1 
0.379 0.193 -0.016 1 
0.372 0.223 -0.016 1 
0.358 -0.175 -0.006 1 
0.354 -0.16 -0.004 1 
0.361 -0.126 -0.005 1 
0.353 -0.106 -0.003 1 
0.345 0.011 0 1 
0.383 0.023 -0.012 1 
0.382 0.025 -0.011 1 
0.389 0.044 -0.014 1 
0.39 0.063 -0.014 1 
0.39 0.093 -0.015 1 
0.385 0.143 -0.014 1 
0.384 0.151 -0.014 1 
0.384 0.184 -0.016 1 
0.384 0.204 -0.016 1 
0.38 0.244 -0.017 1 
0.379 0.245 -0.017 1 
0.367 -0.186 -0.007 1 
0.361 -0.166 -0.005 1 
0.363 -0.146 -0.005 1 
0.363 -0.144 -0.005 1 
0.364 -0.122 -0.005 1 
0.334 -0.076 0.004 1 
0.345 -0.012 0.001 1 
0.34 0.003 0.003 1 
0.394 0.072 -0.014 1 
0.394 0.078 -0.014 1 
0.399 0.097 -0.015 1 
0.394 0.103 -0.014 1 
0.392 0.109 -0.014 1 
0.395 0.112 -0.015 1 
0.393 0.122 -0.014 1 
0.394 0.127 -0.015 1 
0.395 0.134 -0.015 1 
0.394 0.144 -0.015 1 
0.393 0.146 -0.015 1 
0.39 0.153 -0.014 1 
0.391 0.16 -0.014 1 
0.392 0.163 -0.015 1 
0.389 0.184 -0.015 1 
0.393 0.222 -0.018 1 
0.388 0.242 -0.017 1 
0.389 0.254 -0.018 1 
0.371 -0.177 -0.006 1 
0.363 -0.156 -0.003 1 
0.364 -0.145 -0.003 1 
0.371 -0.126 -0.005 1 
0.371 -0.122 -0.005 1 
0.344 -0.057 0.003 1 
0.343 -0.053 0.004 1 
0.344 -0.037 0.003 1 
0.344 -0.025 0.003 1 
0.343 -0.015 0.003 1 
0.344 0.016 -0.009 1 
0.341 -0.012 0.004 1 
0.401 0.023 -0.013 1 
0.401 0.034 -0.013 1 
0.402 0.042 -0.014 1 
0.402 0.053 -0.014 1 
0.402 0.064 -0.014 1 
0.4 0.074 -0.013 1 
0.403 0.121 -0.015 1 
0.401 0.124 -0.014 1 
0.399 0.134 -0.014 1 
0.392 0.024 -0.012 1 
0.4 0.139 -0.014 1 
0.4 0.148 -0.015 1 
0.396 0.173 -0.015 1 
0.396 0.182 -0.015 1 
0.394 0.183 -0.014 1 
0.394 0.19 -0.014 1 
0.394 0.206 -0.015 1 
0.4 0.234 -0.018 1 
0.378 -0.187 -0.006 1 
0.375 -0.161 -0.005 1 
0.353 -0.097 0.002 1 
0.347 -0.092 0.004 1 
0.346 -0.056 0.004 1 
0.334 -0.045 0.003 1 
0.349 -0.035 0.003 1 
0.41 0.124 -0.015 1 
0.409 0.131 -0.015 1 
0.405 0.133 -0.014 1 
0.401 0.153 -0.013 1 
0.402 0.182 -0.014 1 
0.4 0.192 -0.014 1 
0.401 0.203 -0.015 1 
0.403 0.224 -0.016 1 
0.402 0.244 -0.017 1 
0.401 0.261 -0.017 1 
0.401 0.267 -0.017 1 
0.39 -0.202 -0.008 1 
0.371 -0.156 -0.002 1 
0.371 -0.146 -0.001 1 
0.356 -0.101 0.003 1 
0.414 0.042 -0.013 1 
0.414 0.047 -0.013 1 
0.324 -0.107 -0.002 1 
0.414 0.063 -0.013 1 
0.412 0.073 -0.012 1 
0.412 0.093 -0.013 1 
0.412 0.102 -0.013 1 
0.412 0.114 -0.013 1 
0.414 0.122 -0.014 1 
0.412 0.144 -0.014 1 
0.412 0.153 -0.014 1 
0.402 0.164 -0.012 1 
0.358 0.014 -0.007 1 
0.408 0.224 -0.015 1 
0.411 0.242 -0.017 1 
0.371 -0.136 0 1 
0.376 -0.137 -0.001 1 
0.373 -0.127 0 1 
0.368 -0.116 0.001 1 
0.366 -0.113 0.001 1 
0.363 -0.11 0.002 1 
0.414 0.018 -0.01 1 
0.379 0.214 -0.017 1 
0.42 0.034 -0.012 1 
0.42 0.053 -0.012 1 
0.42 0.064 -0.012 1 
0.42 0.073 -0.012 1 
0.42 0.113 -0.013 1 
0.421 0.123 -0.013 1 
0.412 0.163 -0.012 1 
0.414 0.184 -0.013 1 
0.412 0.192 -0.013 1 
0.413 0.223 -0.014 1 
0.414 0.229 -0.015 1 
0.415 0.233 -0.015 1 
0.416 0.244 -0.016 1 
0.414 0.253 -0.015 1 
0.414 0.264 -0.016 1 
0.412 0.273 -0.016 1 
0.363 0.114 -0.014 1 
0.355 -0.114 0.006 1 
0.351 0.114 -0.013 1 
0.341 -0.094 0.008 1 
0.334 0.009 -0.005 1 
0.419 0.018 -0.009 1 
0.424 0.079 -0.011 1 
0.424 0.091 -0.011 1 
0.424 0.096 -0.011 1 
0.424 0.143 -0.012 1 
0.423 0.153 -0.012 1 
0.42 0.164 -0.012 1 
0.419 0.223 -0.013 1 
0.418 0.233 -0.013 1 
0.42 0.243 -0.014 1 
0.42 0.251 -0.014 1 
0.42 0.254 -0.015 1 
0.418 0.263 -0.014 1 
0.418 0.28 -0.015 1 
0.322 -0.095 -0.001 1 
0.334 -0.046 0.014 1 
0.431 0.043 -0.01 1 
0.434 0.053 -0.011 1 
0.434 0.06 -0.011 1 
0.434 0.072 -0.011 1 
0.433 0.084 -0.011 1 
0.431 0.093 -0.011 1 
0.432 0.113 -0.011 1 
0.432 0.123 -0.012 1 
0.431 0.142 -0.012 1 
0.43 0.154 -0.012 1 
0.424 0.184 -0.011 1 
0.424 0.194 -0.011 1 
0.422 0.202 -0.011 1 
0.361 -0.162 -0.005 1 
0.422 0.21 -0.011 1 
0.424 0.283 -0.014 1 
0.426 0.294 -0.015 1 
0.424 0.035 -0.011 1 
0.412 0.212 -0.013 1 
0.34 -0.049 0.014 1 
0.341 0.011 -0.005 1 
0.372 -0.135 -0.005 1 
0.347 0.013 -0.005 1 
0.433 0.019 -0.008 1 
0.44 0.044 -0.01 1 
0.441 0.054 -0.01 1 
0.44 0.064 -0.01 1 
0.439 0.074 -0.01 1 
0.433 0.164 -0.01 1 
0.431 0.173 -0.01 1 
0.431 0.183 -0.01 1 
0.431 0.194 -0.01 1 
0.431 0.204 -0.011 1 
0.432 0.224 -0.012 1 
0.432 0.254 -0.012 1 
0.431 0.264 -0.013 1 
0.431 0.273 -0.013 1 
0.383 -0.207 -0.009 1 
0.432 0.283 -0.013 1 
0.432 0.292 -0.014 1 
0.433 0.296 -0.014 1 
0.435 0.304 -0.015 1 
0.347 -0.056 0.014 1 
0.33 -0.045 0.018 1 
0.333 -0.038 0.017 1 
0.444 0.03 -0.009 1 
0.444 0.083 -0.009 1 
0.44 0.104 -0.008 1 
0.441 0.122 -0.009 1 
0.444 0.134 -0.01 1 
0.437 0.161 -0.009 1 
0.434 0.233 -0.01 1 
0.434 0.242 -0.01 1 
0.441 0.311 -0.014 1 
0.344 -0.047 0.016 1 
0.454 0.054 -0.009 1 
0.451 0.074 -0.008 1 
0.442 0.172 -0.008 1 
0.443 0.183 -0.008 1 
0.442 0.204 -0.008 1 
0.441 0.242 -0.009 1 
0.433 0.133 -0.012 1 
0.44 0.264 -0.009 1 
0.439 0.272 -0.009 1 
0.442 0.284 -0.011 1 
0.444 0.292 -0.011 1 
0.444 0.295 -0.011 1 
0.454 0.029 -0.006 1 
0.455 0.034 -0.006 1 
0.454 0.088 -0.006 1 
0.454 0.104 -0.006 1 
0.452 0.114 -0.006 1 
0.451 0.121 -0.006 1 
0.453 0.133 -0.007 1 
0.452 0.153 -0.007 1 
0.449 0.163 -0.006 1 
0.448 0.234 -0.008 1 
0.446 0.244 -0.007 1 
0.46 0.042 -0.005 1 
0.46 0.05 -0.005 1 
0.461 0.064 -0.005 1 
0.373 0.02 -0.01 1 
0.46 0.074 -0.005 1 
0.459 0.092 -0.005 1 
0.458 0.103 -0.005 1 
0.457 0.118 -0.005 1 
0.455 0.18 -0.005 1 
0.39 0.234 -0.017 1 
0.454 0.182 -0.005 1 
0.453 0.193 -0.005 1 
0.453 0.204 -0.005 1 
0.453 0.212 -0.006 1 
0.454 0.216 -0.006 1 
0.455 0.222 -0.006 1 
0.454 0.254 -0.007 1 
0.448 0.263 -0.006 1 
0.452 0.304 -0.008 1 
0.454 0.322 -0.009 1 
0.454 0.325 -0.009 1 
0.444 0.144 -0.01 1 
0.452 0.044 -0.008 1 
0.459 0.234 -0.005 1 
0.458 0.254 -0.005 1 
0.457 0.256 -0.005 1 
0.454 0.284 -0.005 1 
0.454 0.287 -0.005 1 
0.455 0.294 -0.005 1 
0.456 0.301 -0.006 1 
0.456 0.311 -0.006 1 
0.457 0.322 -0.007 1 
0.38 0.01 0.015 1 
0.387 0.012 0.014 1 
0.462 0.331 -0.005 1 
0.463 0.335 -0.005 1 
0.466 0.342 -0.006 1 
0.456 0.173 -0.005 1 
0.394 0.002 0.015 1 
0.403 0.004 0.013 1 
0.394 0.008 0.015 1 
0.414 0.013 0.011 1 
0.458 0.024 0.003 1 
0.465 0.038 0.001 1 
0.466 0.073 0.001 1 
0.465 0.089 0.001 1 
0.464 0.183 0 1 
0.462 0.204 0 1 
0.464 0.34 -0.003 1 
0.399 0.091 -0.015 1 
0.458 0.113 -0.005 1 
0.415 -0.001 0.013 1 
0.449 0.01 0.007 1 
0.454 0.018 0.006 1 
0.465 0.083 0.004 1 
0.464 0.094 0.004 1 
0.463 0.104 0.004 1 
0.462 0.112 0.004 1 
0.462 0.123 0.004 1 
0.463 0.134 0.004 1 
0.462 0.154 0.003 1 
0.463 0.162 0.003 1 
0.464 0.171 0.003 1 
0.465 0.183 0.003 1 
0.465 0.189 0.002 1 
0.464 0.191 0.003 1 
0.465 0.203 0.002 1 
0.465 0.206 0.002 1 
0.462 0.222 0.002 1 
0.463 0.234 0.002 1 
0.465 0.254 0.001 1 
0.373 0.145 -0.014 1 
0.467 0.343 0 1 
0.373 0.032 -0.012 1 
0.465 0.089 0.007 1 
0.364 0.103 -0.014 1 
0.465 0.183 0.005 1 
0.461 0.272 0.004 1 
0.464 0.333 0.002 1 
0.454 -0.001 0.014 1 
0.458 0.003 0.013 1 
0.462 0.014 0.013 1 
0.464 0.024 0.012 1 
0.411 0.204 -0.013 1 
0.441 0.254 -0.009 1 
0.354 0.044 -0.013 1 
0.37 0.131 -0.015 1 
0.372 0.235 -0.016 1 
0.392 0.172 -0.015 1 
0.382 0.114 -0.015 1 
0.453 0.143 -0.007 1 
0.473 -0.355 0.005 1 
0.457 0.142 -0.005 1 
0.333 -0.061 0.003 1 
0.39 0.257 -0.019 1 
0.358 0.064 -0.015 1 
0.389 0.101 -0.015 1 
0.452 0.064 -0.008 1 
0.464 0.244 0.002 1 
0.439 0.154 -0.009 1 
0.427 0.278 -0.015 1 
0.472 0.35 0 1 
0.452 0.021 -0.003 1 
0.354 0.034 -0.013 1 
0.453 0.314 -0.008 1 
0.354 0.049 -0.013 1 
0.345 -0.051 0.014 1 
0.441 0.212 -0.008 1 
0.464 0.08 0.004 1 
0.414 0.284 -0.017 1 
0.456 0.153 -0.005 1 
0.351 0.203 -0.016 1 
0.401 0.142 -0.015 1 
0.401 0.213 -0.015 1 
0.374 0.15 -0.015 1 
0.382 0.233 -0.017 1 
0.35 0.104 -0.013 1 
0.376 -0.181 -0.006 1 
0.464 0.214 0.002 1 
0.374 -0.171 -0.005 1 
0.388 0.124 -0.015 1 
0.371 0.063 -0.014 1 
0.404 0.106 -0.013 1 
0.365 0.079 -0.016 1 
0.463 0.032 0.002 1 
0.383 0.063 -0.014 1 
0.424 0.174 -0.011 1 
0.4 0.104 -0.014 1 
0.394 0.204 -0.015 1 
0.373 0.133 -0.014 1 
0.394 0.031 -0.013 1 
0.42 0.134 -0.013 1 
0.421 0.292 -0.016 1 
0.364 0.163 -0.016 1 
0.411 0.172 -0.012 1 
0.398 0.052 -0.015 1 
0.444 0.088 -0.009 1 
0.46 0.079 -0.005 1 
0.377 0.142 -0.014 1 
0.333 -0.096 -0.001 1 
0.389 0.11 -0.015 1 
0.463 0.143 0.004 1 
0.339 -0.084 0.004 1 
0.436 0.309 -0.015 1 
0.362 0.076 -0.015 1 
0.434 0.3 -0.015 1 
0.442 0.022 -0.008 1 
0.464 0.253 0.004 1 
0.448 0.272 -0.006 1 
0.324 -0.036 -0.001 1 
0.412 0.033 -0.012 1 
0.36 0.174 -0.015 1 
0.361 0.213 -0.016 1 
0.375 -0.13 0 1 
0.413 0.049 -0.015 1 
0.462 0.263 0.004 1 
0.324 -0.136 -0.003 1 
0.431 0.103 -0.011 1 
0.368 0.233 -0.015 1 
0.322 -0.076 0 1 
0.44 0.114 -0.008 1 
0.433 0.034 -0.011 1 
0.388 0.054 -0.013 1 
0.404 0.172 -0.012 1 
0.362 -0.117 -0.004 1 
0.418 0.274 -0.015 1 
0.465 0.186 0.005 1 
0.334 -0.147 -0.004 1 
0.343 -0.096 -0.001 1 
0.375 0.219 -0.016 1 
0.332 -0.087 0 1 
0.449 0.084 -0.008 1 
0.381 0.054 -0.013 1 
0.453 0.274 -0.004 1 
0.324 -0.046 0 1 
0.345 -0.017 0.001 1 
0.364 0.046 -0.013 1 
0.45 0.023 -0.005 1 
0.336 -0.082 0.007 1 
0.361 0.063 -0.014 1 
0.404 0.084 -0.012 1 
0.4 0.252 -0.016 1 
0.343 -0.107 -0.003 1 
0.458 0.242 -0.007 1 
0.442 0.194 -0.008 1 
0.345 -0.026 0.004 1 
0.412 0.084 -0.013 1 
0.404 0.2 -0.013 1 
0.324 -0.008 -0.001 1 
0.43 0.211 -0.011 1 
0.443 0.222 -0.009 1 
0.464 0.072 0.004 1 
0.413 0.226 -0.014 1 
0.334 -0.138 -0.004 1 
0.35 -0.149 -0.004 1 
0.449 0.174 -0.007 1 
0.384 0.173 -0.015 1 
0.394 0.192 -0.015 1 
0.377 0.09 -0.014 1 
0.371 0.192 -0.016 1 
0.456 0.164 -0.005 1 
0.444 0.234 -0.009 1 
0.343 -0.087 0.003 1 
0.456 0.134 -0.005 1 
0.4 0.093 -0.014 1 
0.417 0.128 -0.015 1 
0.292 -0.025 0.064 2 
0.341 -0.033 0.066 2 
0.262 -0.039 0.064 2 
0.257 -0.045 0.064 2 
0.275 -0.031 0.064 2 
0.274 -0.031 0.064 2 
0.268 -0.035 0.064 2 
0.296 -0.024 0.063 2 
0.395 -0.038 0.072 2 
0.377 -0.037 0.071 2 
0.37 -0.037 0.074 2 
0.293 -0.024 0.063 2 
0.382 -0.034 0.067 2 
0.395 -0.034 0.065 2 
0.267 -0.104 0.043 2 
0.345 0.011 0.025 2 
0.381 -0.031 0.062 2 
0.255 -0.055 0.058 2 
0.24 -0.085 0.057 2 
0.245 -0.075 0.057 2 
0.239 -0.073 0.064 2 
0.349 -0.043 0.086 2 
0.284 -0.033 0.074 2 
0.332 -0.039 0.082 2 
0.274 -0.034 0.072 2 
0.312 -0.032 0.068 2 
0.277 -0.045 0.044 2 
0.369 -0.041 0.072 2 
0.245 -0.065 0.065 2 
0.345 -0.031 0.016 2 
0.239 -0.075 0.064 2 
0.234 -0.078 0.064 2 
0.286 -0.099 0.032 2 
0.342 -0.027 0.015 2 
0.352 -0.035 0.069 2 
0.296 -0.027 0.068 2 
0.251 -0.051 0.064 2 
0.249 -0.055 0.064 2 
0.304 -0.02 0.039 2 
0.391 -0.017 0.045 2 
0.38 -0.018 0.046 2 
0.265 -0.055 0.051 2 
0.373 -0.019 0.045 2 
0.295 -0.025 0.048 2 
0.251 -0.095 0.051 2 
0.363 -0.018 0.044 2 
0.276 -0.035 0.049 2 
0.316 -0.015 0.045 2 
0.374 -0.019 0.048 2 
0.298 -0.025 0.044 2 
0.275 -0.06 0.047 2 
0.369 -0.013 0.038 2 
0.294 -0.028 0.044 2 
0.275 -0.045 0.046 2 
0.255 -0.075 0.048 2 
0.257 -0.099 0.047 2 
0.333 -0.07 0.022 2 
0.263 -0.045 0.054 2 
0.385 -0.024 0.055 2 
0.391 -0.025 0.053 2 
0.304 -0.018 0.049 2 
0.293 -0.023 0.054 2 
0.29 -0.025 0.054 2 
0.284 -0.028 0.054 2 
0.274 -0.032 0.054 2 
0.27 -0.035 0.054 2 
0.264 -0.042 0.054 2 
0.276 -0.035 0.074 2 
0.261 -0.055 0.054 2 
0.255 -0.065 0.054 2 
0.254 -0.065 0.054 2 
0.249 -0.075 0.054 2 
0.245 -0.085 0.054 2 
0.244 -0.09 0.054 2 
0.326 -0.076 0.019 2 
0.376 -0.019 0.05 2 
0.296 -0.066 0.036 2 
0.235 -0.059 0.084 2 
0.259 -0.097 0.044 2 
0.242 -0.054 0.084 2 
0.294 -0.074 0.035 2 
0.264 -0.068 0.044 2 
0.247 -0.052 0.084 2 
0.305 -0.016 0.048 2 
0.255 -0.049 0.084 2 
0.33 -0.034 0.01 2 
0.265 -0.045 0.052 2 
0.235 -0.065 0.078 2 
0.325 -0.013 0.039 2 
0.342 -0.016 0.04 2 
0.268 -0.044 0.084 2 
0.264 -0.044 0.083 2 
0.327 -0.015 0.016 2 
0.321 -0.013 0.036 2 
0.311 -0.016 0.038 2 
0.246 -0.055 0.079 2 
0.345 -0.034 0.012 2 
0.288 -0.031 0.074 2 
0.225 -0.069 0.084 2 
0.323 -0.073 0.033 2 
0.23 -0.063 0.084 2 
0.235 -0.075 0.07 2 
0.298 -0.037 0.077 2 
0.259 -0.043 0.074 2 
0.257 -0.045 0.074 2 
0.318 -0.039 0.085 2 
0.307 -0.037 0.077 2 
0.331 -0.012 0.034 2 
0.335 -0.105 0.017 2 
0.245 -0.055 0.071 2 
0.265 -0.065 0.048 2 
0.324 -0.1 0.02 2 
0.292 -0.034 0.078 2 
0.27 -0.038 0.074 2 
0.258 -0.094 0.044 2 
0.3 -0.074 0.037 2 
0.329 -0.061 0.026 2 
0.349 -0.042 0.025 2 
0.302 -0.034 0.075 2 
0.281 -0.034 0.075 2 
0.245 -0.065 0.064 2 
0.346 -0.043 0.027 2 
0.275 -0.042 0.084 2 
0.231 -0.072 0.074 2 
0.231 -0.075 0.074 2 
0.238 -0.063 0.074 2 
0.237 -0.065 0.074 2 
0.352 -0.046 0.026 2 
0.294 -0.086 0.028 2 
0.338 -0.041 0.081 2 
0.341 -0.005 0.022 2 
0.287 -0.037 0.083 2 
0.246 -0.054 0.074 2 
0.244 -0.054 0.074 2 
0.343 -0.036 0.016 2 
0.315 -0.035 0.034 2 
0.374 -0.012 0.035 2 
0.357 -0.042 0.015 2 
0.321 -0.016 0.026 2 
0.359 -0.008 0.026 2 
0.338 -0.035 0.009 2 
0.364 -0.006 0.025 2 
0.323 -0.026 0.026 2 
0.332 -0.035 0.011 2 
0.276 -0.085 0.029 2 
0.336 -0.033 0.017 2 
0.277 -0.055 0.044 2 
0.34 -0.007 0.015 2 
0.301 -0.085 0.028 2 
0.283 -0.035 0.044 2 
0.321 -0.014 0.041 2 
0.371 -0.015 0.036 2 
0.324 -0.013 0.025 2 
0.334 -0.062 0.01 2 
0.291 -0.084 0.03 2 
0.289 -0.085 0.031 2 
0.332 -0.008 0.015 2 
0.336 -0.022 0.013 2 
0.328 -0.074 0.011 2 
0.328 -0.075 0.014 2 
0.388 -0.005 0.021 2 
0.327 -0.085 0.015 2 
0.323 -0.074 0.024 2 
0.321 -0.075 0.024 2 
0.328 -0.032 0.02 2 
0.274 -0.077 0.034 2 
0.313 -0.079 0.026 2 
0.344 -0.055 0.022 2 
0.342 -0.061 0.009 2 
0.275 -0.065 0.045 2 
0.283 -0.065 0.044 2 
0.285 -0.065 0.043 2 
0.304 -0.046 0.03 2 
0.336 -0.065 0.027 2 
0.315 -0.033 0.027 2 
0.376 -0.003 0.021 2 
0.308 -0.046 0.029 2 
0.38 -0.01 0.033 2 
0.289 -0.035 0.042 2 
0.273 -0.066 0.044 2 
0.324 -0.062 0.017 2 
0.366 -0.004 0.023 2 
0.349 -0.047 0.027 2 
0.303 -0.075 0.036 2 
0.285 -0.064 0.043 2 
0.256 -0.094 0.046 2 
0.267 -0.106 0.044 2 
0.344 0.01 0.02 2 
0.343 0.003 0.014 2 
0.266 -0.075 0.039 2 
0.304 -0.043 0.03 2 
0.312 -0.036 0.035 2 
0.403 -0.009 0.027 2 
0.342 -0.013 0.036 2 
0.346 -0.035 0.009 2 
0.309 -0.072 0.039 2 
0.325 -0.023 0.021 2 
0.284 -0.075 0.034 2 
0.357 -0.049 0.024 2 
0.307 -0.075 0.036 2 
0.324 -0.062 0.012 2 
0.333 -0.064 0.016 2 
0.303 -0.083 0.029 2 
0.341 0.003 0.024 2 
0.343 0.011 0.032 2 
0.315 -0.075 0.036 2 
0.36 -0.004 0.022 2 
0.345 0 0.02 2 
0.345 -0.005 0.014 2 
0.353 -0.007 0.023 2 
0.312 -0.085 0.024 2 
0.348 -0.055 0.019 2 
0.315 -0.096 0.023 2 
0.315 -0.015 0.035 2 
0.265 -0.085 0.037 2 
0.295 -0.048 0.032 2 
0.344 -0.06 0.02 2 
0.342 -0.066 0.02 2 
0.311 -0.074 0.035 2 
0.315 -0.086 0.023 2 
0.269 -0.085 0.034 2 
0.353 -0.014 0.033 2 
0.306 -0.025 0.031 2 
0.328 -0.071 0.03 2 
0.334 -0.01 0.026 2 
0.287 -0.045 0.04 2 
0.295 -0.035 0.039 2 
0.292 -0.075 0.034 2 
0.309 -0.027 0.031 2 
0.308 -0.035 0.031 2 
0.284 -0.074 0.036 2 
0.31 -0.075 0.035 2 
0.3 -0.06 0.033 2 
0.324 -0.075 0.033 2 
0.322 -0.065 0.012 2 
0.319 -0.073 0.035 2 
0.314 -0.016 0.035 2 
0.259 -0.075 0.044 2 
0.275 -0.075 0.035 2 
0.352 -0.002 0.015 2 
0.433 -0.018 0.032 2 
0.464 -0.025 0.146 3 
0.465 -0.033 0.143 3 
0.464 -0.025 0.143 3 
0.464 0.092 0.146 3 
0.463 0.014 0.143 3 
0.465 0.011 0.143 3 
0.463 0.003 0.143 3 
0.465 -0.004 0.143 3 
0.465 -0.006 0.143 3 
0.465 -0.017 0.143 3 
0.464 -0.022 0.143 3 
0.463 0.073 0.143 3 
0.465 0.095 0.144 3 
0.464 0.103 0.144 3 
0.464 0.106 0.144 3 
0.465 0.114 0.144 3 
0.466 0.263 0.153 3 
0.466 0.12 0.144 3 
0.464 0.011 0.103 3 
0.465 0.133 0.144 3 
0.464 0.092 0.143 3 
0.465 0.139 0.144 3 
0.464 0.141 0.144 3 
0.464 0.084 0.143 3 
0.465 0.145 0.144 3 
0.463 0.022 0.143 3 
0.464 -0.006 0.092 3 
0.463 0.152 0.144 3 
0.464 0.054 0.143 3 
0.463 0.163 0.144 3 
0.463 0.172 0.144 3 
0.463 0.183 0.144 3 
0.465 0.041 0.143 3 
0.462 0.191 0.144 3 
0.464 0.234 0.146 3 
0.465 0.183 0.082 3 
0.464 0.237 0.146 3 
0.464 0.033 0.143 3 
0.465 0.206 0.109 3 
0.464 0.19 0.153 3 
0.465 -0.065 0.154 3 
0.462 -0.124 0.154 3 
0.461 -0.126 0.154 3 
0.465 0.232 0.154 3 
0.465 0.22 0.154 3 
0.465 0.211 0.154 3 
0.465 0.202 0.154 3 
0.465 0.194 0.154 3 
0.461 0.284 0.004 3 
0.466 -0.025 0.154 3 
0.464 0.184 0.153 3 
0.465 0.182 0.153 3 
0.466 0.173 0.153 3 
0.465 0.164 0.153 3 
0.464 0.161 0.152 3 
0.464 0.153 0.152 3 
0.465 0.15 0.153 3 
0.465 0.142 0.152 3 
0.464 0.019 0.154 3 
0.465 -0.006 0.16 3 
0.464 0.062 0.068 3 
0.465 0.054 0.154 3 
0.464 0.052 0.154 3 
0.464 0.043 0.154 3 
0.465 0.041 0.154 3 
0.465 0.033 0.154 3 
0.465 0.022 0.154 3 
0.465 0.122 0.063 3 
0.465 0.014 0.154 3 
0.464 0.011 0.154 3 
0.463 0.003 0.154 3 
0.464 -0.006 0.154 3 
0.465 0.032 0.092 3 
0.465 -0.009 0.154 3 
0.465 -0.017 0.154 3 
0.464 -0.122 0.155 3 
0.465 -0.004 0.149 3 
0.467 0.282 0.154 3 
0.464 -0.017 0.074 3 
0.466 0.254 0.153 3 
0.462 -0.089 0.132 3 
0.466 0.244 0.152 3 
0.464 0.207 0.151 3 
0.464 0.268 0.063 3 
0.464 0.167 0.15 3 
0.464 0.144 0.149 3 
0.466 0.294 0.154 3 
0.462 -0.113 0.149 3 
0.464 -0.057 0.124 3 
0.452 -0.117 0.146 3 
0.469 0.348 0.154 3 
0.467 0.339 0.153 3 
0.469 0.331 0.153 3 
0.468 0.323 0.152 3 
0.467 0.312 0.152 3 
0.464 0.057 0.151 3 
0.468 0.132 0.153 3 
0.467 0.123 0.153 3 
0.465 0.027 0.063 3 
0.465 0.112 0.152 3 
0.466 0.104 0.152 3 
0.465 0.092 0.152 3 
0.466 0.084 0.152 3 
0.467 0.074 0.152 3 
0.464 0.097 0.146 3 
0.464 -0.017 0.151 3 
0.467 -0.055 0.152 3 
0.462 0.334 0.062 3 
0.466 -0.077 0.152 3 
0.469 -0.086 0.153 3 
0.471 -0.097 0.154 3 
0.471 -0.106 0.154 3 
0.466 0.304 0.154 3 
0.466 0.343 0.123 3 
0.465 -0.065 0.133 3 
0.469 -0.077 0.134 3 
0.468 -0.085 0.134 3 
0.457 -0.095 0.131 3 
0.462 0.223 0.123 3 
0.463 0.34 0.134 3 
0.462 0.332 0.134 3 
0.466 0.323 0.134 3 
0.467 -0.055 0.133 3 
0.466 0.303 0.134 3 
0.466 0.294 0.134 3 
0.465 0.314 0.071 3 
0.467 0.282 0.134 3 
0.466 0.271 0.133 3 
0.465 0.261 0.133 3 
0.463 0.132 0.022 3 
0.465 0.252 0.132 3 
0.465 0.011 0.133 3 
0.463 0.062 0.132 3 
0.463 0.054 0.132 3 
0.464 0.043 0.132 3 
0.463 0.243 0.063 3 
0.464 0.033 0.132 3 
0.465 0.022 0.133 3 
0.464 0.019 0.132 3 
0.464 0.014 0.132 3 
0.464 0.245 0.132 3 
0.465 0.003 0.132 3 
0.466 -0.006 0.133 3 
0.466 -0.017 0.133 3 
0.466 -0.025 0.133 3 
0.465 0.261 0.11 3 
0.466 -0.036 0.133 3 
0.467 -0.047 0.133 3 
0.464 -0.038 0.124 3 
0.464 0.043 0.124 3 
0.463 0.032 0.124 3 
0.464 0.022 0.124 3 
0.465 0.017 0.124 3 
0.465 0.014 0.124 3 
0.465 0.003 0.124 3 
0.465 -0.03 0.124 3 
0.465 -0.036 0.124 3 
0.464 0.054 0.124 3 
0.464 -0.049 0.124 3 
0.462 0.19 0.014 3 
0.465 0.277 0.124 3 
0.465 0.273 0.124 3 
0.464 0.263 0.124 3 
0.465 0.243 0.124 3 
0.464 0.239 0.124 3 
0.463 0.232 0.123 3 
0.466 0.34 0.129 3 
0.467 0.293 0.074 3 
0.465 0.205 0.132 3 
0.465 0.184 0.131 3 
0.465 0.114 0.13 3 
0.464 -0.062 0.13 3 
0.465 -0.095 0.13 3 
0.466 0.333 0.132 3 
0.464 -0.054 0.127 3 
0.463 0.073 0.132 3 
0.463 0.121 0.124 3 
0.463 0.105 0.124 3 
0.463 0.102 0.124 3 
0.462 0.094 0.124 3 
0.463 0.083 0.124 3 
0.463 0.073 0.124 3 
0.463 0.062 0.124 3 
0.467 0.033 0.141 3 
0.465 0.252 0.144 3 
0.465 0.243 0.144 3 
0.465 0.234 0.143 3 
0.467 0.224 0.144 3 
0.463 0.182 0.033 3 
0.466 0.214 0.143 3 
0.465 0.09 0.141 3 
0.465 0.046 0.141 3 
0.464 0.255 0.144 3 
0.465 -0.106 0.141 3 
0.466 0.341 0.144 3 
0.468 0.333 0.144 3 
0.467 0.321 0.143 3 
0.467 0.314 0.143 3 
0.466 0.304 0.143 3 
0.465 0.293 0.142 3 
0.464 0.242 0.14 3 
0.464 0.342 0.146 3 
0.467 -0.055 0.144 3 
0.468 -0.066 0.144 3 
0.465 0.022 0.103 3 
0.466 -0.076 0.144 3 
0.467 -0.085 0.144 3 
0.463 -0.108 0.143 3 
0.435 -0.105 0.135 3 
0.463 0.222 0.063 3 
0.464 0.233 0.14 3 
0.464 0.283 0.144 3 
0.465 0.28 0.144 3 
0.465 -0.017 0.084 3 
0.464 0.273 0.144 3 
0.465 0.268 0.144 3 
0.465 0.152 0.063 3 
0.465 0.262 0.144 3 
0.465 0.059 0.063 3 
0.464 0.183 0.134 3 
0.463 0.174 0.133 3 
0.463 0.163 0.133 3 
0.463 0.152 0.133 3 
0.463 0.143 0.133 3 
0.465 0.136 0.133 3 
0.465 0.133 0.133 3 
0.464 0.127 0.133 3 
0.464 0.186 0.134 3 
0.464 0.122 0.133 3 
0.464 0.114 0.133 3 
0.464 0.103 0.133 3 
0.465 0.098 0.133 3 
0.465 0.092 0.133 3 
0.464 0.089 0.133 3 
0.464 0.084 0.133 3 
0.464 0.254 0.124 3 
0.464 0.207 0.14 3 
0.464 -0.098 0.138 3 
0.464 0.292 0.139 3 
0.464 0.222 0.137 3 
0.464 0.133 0.136 3 
0.464 0.122 0.136 3 
0.463 0.334 0.137 3 
0.462 0.238 0.134 3 
0.466 -0.047 0.144 3 
0.465 0.008 0.063 3 
0.462 0.232 0.134 3 
0.463 0.224 0.134 3 
0.464 0.213 0.134 3 
0.464 0.204 0.134 3 
0.465 0.198 0.134 3 
0.465 0.192 0.134 3 
0.474 0.297 0.189 3 
0.465 0.114 0.16 3 
0.47 0.034 0.184 3 
0.471 0.023 0.184 3 
0.47 0.014 0.184 3 
0.471 0.003 0.184 3 
0.469 -0.007 0.183 3 
0.469 -0.015 0.183 3 
0.488 -0.169 0.193 3 
0.474 0.321 0.19 3 
0.469 0.044 0.183 3 
0.464 0.183 0.114 3 
0.475 0.291 0.189 3 
0.468 0.235 0.184 3 
0.469 0.233 0.184 3 
0.465 0.163 0.084 3 
0.468 0.223 0.184 3 
0.464 0.078 0.074 3 
0.468 0.214 0.183 3 
0.464 0.212 0.12 3 
0.464 0.204 0.142 3 
0.474 0.314 0.193 3 
0.476 0.306 0.193 3 
0.476 0.303 0.193 3 
0.465 0.234 0.115 3 
0.474 0.291 0.192 3 
0.473 0.274 0.19 3 
0.473 0.261 0.19 3 
0.467 0.158 0.184 3 
0.467 0.153 0.184 3 
0.467 0.204 0.183 3 
0.465 0.143 0.183 3 
0.468 0.133 0.184 3 
0.469 0.122 0.184 3 
0.469 0.114 0.184 3 
0.47 0.103 0.184 3 
0.471 0.059 0.184 3 
0.469 0.053 0.183 3 
0.477 -0.116 0.182 3 
0.466 0.233 0.163 3 
0.477 -0.097 0.184 3 
0.464 0.203 0.104 3 
0.477 -0.105 0.184 3 
0.471 0.281 0.184 3 
0.47 0.274 0.183 3 
0.469 0.263 0.183 3 
0.468 0.253 0.182 3 
0.474 -0.065 0.18 3 
0.477 -0.085 0.184 3 
0.477 -0.125 0.182 3 
0.475 -0.136 0.181 3 
0.474 -0.138 0.181 3 
0.476 -0.148 0.182 3 
0.471 -0.151 0.18 3 
0.462 0.204 0.033 3 
0.474 -0.155 0.181 3 
0.47 0.345 0.184 3 
0.473 -0.037 0.173 3 
0.465 0.043 0.095 3 
0.47 0.192 0.184 3 
0.469 0.182 0.183 3 
0.467 0.172 0.182 3 
0.47 0.094 0.181 3 
0.471 0.083 0.182 3 
0.465 0.043 0.074 3 
0.471 0.072 0.181 3 
0.471 -0.026 0.181 3 
0.472 0.329 0.193 3 
0.473 -0.037 0.182 3 
0.474 -0.045 0.182 3 
0.475 -0.048 0.183 3 
0.473 -0.056 0.182 3 
0.475 -0.062 0.183 3 
0.475 -0.065 0.183 3 
0.464 0.027 0.052 3 
0.477 -0.077 0.184 3 
0.47 0.122 0.187 3 
0.471 0.192 0.19 3 
0.469 0.182 0.189 3 
0.469 0.174 0.188 3 
0.468 0.162 0.188 3 
0.466 0.152 0.187 3 
0.464 0.284 0.093 3 
0.466 0.143 0.186 3 
0.468 0.133 0.187 3 
0.464 0.062 0.114 3 
0.47 0.204 0.19 3 
0.474 0.065 0.188 3 
0.471 0.114 0.188 3 
0.468 0.281 0.174 3 
0.471 0.103 0.187 3 
0.473 0.093 0.188 3 
0.474 0.084 0.188 3 
0.475 0.082 0.189 3 
0.476 0.074 0.189 3 
0.474 0.281 0.194 3 
0.475 0.337 0.198 3 
0.474 0.333 0.197 3 
0.464 0.019 0.1 3 
0.464 -0.025 0.063 3 
0.476 0.323 0.197 3 
0.476 0.31 0.196 3 
0.476 0.299 0.196 3 
0.475 0.292 0.195 3 
0.464 0.091 0.084 3 
0.474 0.062 0.188 3 
0.475 0.272 0.194 3 
0.476 0.263 0.194 3 
0.474 0.252 0.193 3 
0.471 0.241 0.191 3 
0.471 0.234 0.191 3 
0.471 0.222 0.191 3 
0.465 -0.036 0.143 3 
0.471 0.213 0.19 3 
0.478 -0.146 0.191 3 
0.478 -0.086 0.19 3 
0.477 -0.097 0.19 3 
0.476 -0.108 0.19 3 
0.477 -0.117 0.19 3 
0.478 -0.126 0.191 3 
0.466 -0.036 0.152 3 
0.477 -0.137 0.191 3 
0.464 0.03 0.149 3 
0.464 0.094 0.103 3 
0.466 0.313 0.134 3 
0.481 -0.156 0.193 3 
0.473 0.344 0.182 3 
0.483 -0.166 0.194 3 
0.464 0.062 0.143 3 
0.466 -0.006 0.114 3 
0.464 0.157 0.084 3 
0.467 0.346 0.192 3 
0.47 0.339 0.193 3 
0.473 -0.037 0.188 3 
0.471 0.053 0.187 3 
0.471 0.042 0.187 3 
0.469 0.034 0.186 3 
0.472 0.023 0.187 3 
0.471 0.012 0.187 3 
0.47 0.003 0.186 3 
0.471 -0.007 0.187 3 
0.472 -0.015 0.187 3 
0.472 -0.026 0.187 3 
0.465 -0.007 0.063 3 
0.475 -0.043 0.189 3 
0.475 -0.046 0.189 3 
0.474 -0.048 0.188 3 
0.474 -0.057 0.188 3 
0.475 -0.06 0.189 3 
0.476 -0.065 0.189 3 
0.477 -0.077 0.19 3 
0.467 -0.047 0.152 3 
0.467 0.033 0.163 3 
0.464 0.111 0.163 3 
0.464 0.32 0.114 3 
0.464 0.103 0.163 3 
0.465 0.095 0.163 3 
0.466 0.093 0.163 3 
0.468 0.082 0.164 3 
0.467 0.074 0.163 3 
0.468 0.063 0.164 3 
0.466 0.044 0.163 3 
0.467 0.124 0.164 3 
0.467 0.022 0.163 3 
0.465 0.014 0.162 3 
0.465 0.003 0.162 3 
0.464 0.001 0.162 3 
0.464 -0.017 0.162 3 
0.466 -0.023 0.163 3 
0.466 -0.025 0.163 3 
0.468 -0.036 0.163 3 
0.469 -0.047 0.164 3 
0.464 0.222 0.165 3 
0.466 0.346 0.174 3 
0.469 0.342 0.174 3 
0.471 0.327 0.174 3 
0.471 0.324 0.174 3 
0.47 0.312 0.173 3 
0.47 0.302 0.173 3 
0.47 0.293 0.172 3 
0.464 0.003 0.165 3 
0.463 -0.006 0.164 3 
0.468 -0.055 0.163 3 
0.463 0.213 0.165 3 
0.466 0.165 0.164 3 
0.465 0.162 0.164 3 
0.466 -0.036 0.103 3 
0.467 0.284 0.082 3 
0.465 0.153 0.164 3 
0.466 0.143 0.164 3 
0.467 0.132 0.164 3 
0.468 0.293 0.163 3 
0.465 0.113 0.044 3 
0.473 -0.106 0.163 3 
0.464 0.283 0.023 3 
0.472 -0.117 0.163 3 
0.471 -0.125 0.163 3 
0.466 0.338 0.164 3 
0.469 0.321 0.164 3 
0.469 0.314 0.164 3 
0.468 0.303 0.163 3 
0.472 -0.095 0.163 3 
0.468 0.281 0.163 3 
0.465 0.22 0.16 3 
0.464 0.006 0.157 3 
0.462 0.201 0.084 3 
0.469 0.349 0.163 3 
0.469 0.331 0.162 3 
0.464 0.334 0.123 3 
0.464 0.231 0.157 3 
0.463 0.213 0.162 3 
0.466 -0.066 0.163 3 
0.468 -0.077 0.164 3 
0.466 -0.143 0.164 3 
0.466 0.269 0.164 3 
0.466 0.263 0.164 3 
0.466 0.272 0.153 3 
0.466 0.254 0.164 3 
0.466 0.242 0.164 3 
0.464 0.222 0.162 3 
0.474 -0.135 0.172 3 
0.465 0.208 0.162 3 
0.467 0.204 0.163 3 
0.467 0.192 0.163 3 
0.467 0.183 0.162 3 
0.464 0.161 0.161 3 
0.464 0.153 0.161 3 
0.465 0.264 0.121 3 
0.471 -0.086 0.162 3 
0.467 0.172 0.173 3 
0.474 -0.096 0.177 3 
0.464 0.043 0.143 3 
0.427 -0.137 0.16 3 
0.459 0.231 0.172 3 
0.466 0.221 0.174 3 
0.466 0.212 0.174 3 
0.469 0.185 0.174 3 
0.462 0.272 0.032 3 
0.468 0.181 0.174 3 
0.474 -0.087 0.177 3 
0.467 0.164 0.173 3 
0.467 0.152 0.173 3 
0.466 0.134 0.172 3 
0.467 0.124 0.172 3 
0.468 -0.096 0.142 3 
0.464 0.106 0.171 3 
0.464 0.103 0.171 3 
0.468 0.083 0.172 3 
0.465 0.136 0.122 3 
0.473 0.333 0.184 3 
0.471 0.321 0.183 3 
0.471 0.311 0.182 3 
0.464 0.294 0.094 3 
0.471 0.304 0.182 3 
0.473 0.293 0.182 3 
0.465 0.142 0.174 3 
0.466 0.112 0.174 3 
0.465 0.104 0.174 3 
0.468 0.074 0.172 3 
0.466 0.093 0.174 3 
0.467 0.052 0.174 3 
0.467 0.044 0.174 3 
0.464 0.313 0.091 3 
0.467 0.003 0.174 3 
0.466 -0.006 0.174 3 
0.467 -0.015 0.174 3 
0.474 -0.076 0.177 3 
0.467 0.243 0.172 3 
0.474 -0.112 0.175 3 
0.474 -0.132 0.175 3 
0.47 -0.148 0.174 3 
0.449 -0.145 0.166 3 
0.467 0.274 0.174 3 
0.464 0.342 0.143 3 
0.466 0.26 0.173 3 
0.466 0.251 0.172 3 
0.462 0.21 0.114 3 
0.473 -0.109 0.174 3 
0.467 0.231 0.172 3 
0.464 -0.052 0.092 3 
0.467 0.204 0.171 3 
0.464 0.249 0.143 3 
0.474 -0.115 0.172 3 
0.475 -0.118 0.172 3 
0.475 -0.127 0.173 3 
0.474 -0.132 0.172 3 
0.462 0.104 0.012 3 
0.468 0.063 0.172 3 
0.464 0.196 0.153 3 
0.468 0.033 0.172 3 
0.466 0.052 0.163 3 
0.469 0.022 0.172 3 
0.468 0.014 0.172 3 
0.464 -0.006 0.17 3 
0.464 -0.017 0.17 3 
0.468 -0.026 0.172 3 
0.465 0.057 0.154 3 
0.471 -0.045 0.173 3 
0.47 -0.056 0.172 3 
0.47 -0.067 0.173 3 
0.465 0.102 0.044 3 
0.46 0.214 0.014 3 
0.471 -0.075 0.173 3 
0.473 -0.087 0.174 3 
0.474 -0.096 0.174 3 
0.465 0.024 0.063 3 
0.464 0.102 0.063 3 
0.464 0.094 0.063 3 
0.464 0.083 0.063 3 
0.465 0.078 0.063 3 
0.465 0.07 0.063 3 
0.464 0.064 0.063 3 
0.465 0.054 0.063 3 
0.464 0.043 0.063 3 
0.464 0.032 0.063 3 
0.464 0.113 0.063 3 
0.464 0.022 0.063 3 
0.462 0.254 0.013 3 
0.464 0.014 0.063 3 
0.464 0.003 0.063 3 
0.465 -0.004 0.063 3 
0.466 -0.015 0.063 3 
0.463 -0.036 0.063 3 
0.463 0.264 0.013 3 
0.463 0.234 0.063 3 
0.462 0.242 0.013 3 
0.464 0.313 0.062 3 
0.464 0.303 0.062 3 
0.465 0.294 0.063 3 
0.464 0.29 0.062 3 
0.465 0.282 0.063 3 
0.465 0.272 0.063 3 
0.463 0.264 0.062 3 
0.462 0.254 0.062 3 
0.465 0.298 0.06 3 
0.462 0.201 0.063 3 
0.464 0.194 0.063 3 
0.464 0.182 0.063 3 
0.464 0.174 0.063 3 
0.463 0.162 0.063 3 
0.464 0.154 0.063 3 
0.465 0.133 0.063 3 
0.464 0.124 0.063 3 
0.463 0.162 0.052 3 
0.463 0.222 0.054 3 
0.464 0.214 0.054 3 
0.462 0.201 0.054 3 
0.462 0.193 0.054 3 
0.461 0.303 0.012 3 
0.463 0.339 0.051 3 
0.465 0.287 0.051 3 
0.465 0.284 0.051 3 
0.463 0.173 0.052 3 
0.463 0.234 0.054 3 
0.464 0.154 0.052 3 
0.464 0.143 0.052 3 
0.465 0.135 0.052 3 
0.465 0.133 0.052 3 
0.466 0.122 0.052 3 
0.466 0.114 0.052 3 
0.464 0.105 0.052 3 
0.464 0.083 0.052 3 
0.465 0.331 0.054 3 
0.46 0.063 0.013 3 
0.465 0.158 0.06 3 
0.465 0.114 0.06 3 
0.465 0.043 0.06 3 
0.464 -0.007 0.06 3 
0.462 0.272 0.013 3 
0.465 -0.025 0.058 3 
0.463 0.292 0.012 3 
0.477 0.354 0.054 3 
0.464 0.323 0.062 3 
0.464 0.323 0.054 3 
0.462 0.311 0.054 3 
0.463 0.302 0.054 3 
0.463 0.293 0.054 3 
0.464 0.283 0.054 3 
0.463 0.261 0.054 3 
0.462 0.254 0.054 3 
0.463 0.243 0.054 3 
0.465 0.147 0.033 3 
0.464 0.243 0.074 3 
0.463 0.234 0.074 3 
0.463 0.222 0.074 3 
0.463 0.213 0.073 3 
0.464 0.203 0.074 3 
0.462 0.14 0.014 3 
0.464 0.194 0.074 3 
0.465 0.183 0.074 3 
0.464 0.18 0.074 3 
0.464 0.252 0.074 3 
0.464 0.174 0.074 3 
0.464 0.163 0.073 3 
0.464 0.154 0.073 3 
0.465 0.152 0.074 3 
0.464 0.143 0.073 3 
0.465 0.138 0.074 3 
0.465 0.133 0.074 3 
0.464 0.13 0.073 3 
0.464 0.333 0.074 3 
0.465 0.256 0.079 3 
0.464 0.124 0.079 3 
0.465 0.054 0.079 3 
0.462 0.134 0.012 3 
0.465 0.273 0.077 3 
0.465 0.212 0.076 3 
0.464 -0.033 0.076 3 
0.434 -0.044 0.074 3 
0.462 0.338 0.074 3 
0.464 0.124 0.073 3 
0.465 0.331 0.074 3 
0.465 0.321 0.074 3 
0.464 0.313 0.074 3 
0.465 0.304 0.074 3 
0.468 0.282 0.074 3 
0.463 0.271 0.074 3 
0.465 0.269 0.074 3 
0.464 0.262 0.074 3 
0.465 -0.001 0.071 3 
0.464 -0.025 0.074 3 
0.463 -0.036 0.074 3 
0.461 0.153 0.014 3 
0.461 0.172 0.014 3 
0.462 0.184 0.014 3 
0.465 0.186 0.071 3 
0.465 0.158 0.071 3 
0.464 0.094 0.071 3 
0.465 0.032 0.071 3 
0.465 -0.015 0.074 3 
0.465 -0.025 0.071 3 
0.461 0.203 0.014 3 
0.465 0.124 0.068 3 
0.464 0.046 0.068 3 
0.465 0.024 0.068 3 
0.461 0.224 0.013 3 
0.462 0.233 0.013 3 
0.461 0.336 0.062 3 
0.464 0.038 0.074 3 
0.464 0.113 0.073 3 
0.464 0.102 0.073 3 
0.465 0.1 0.074 3 
0.465 0.094 0.074 3 
0.465 0.084 0.074 3 
0.464 0.073 0.074 3 
0.465 0.07 0.074 3 
0.465 0.062 0.074 3 
0.465 0.054 0.074 3 
0.463 0.072 0.052 3 
0.464 0.032 0.074 3 
0.464 0.024 0.074 3 
0.464 0.014 0.074 3 
0.465 0.011 0.074 3 
0.464 0.04 0.004 3 
0.464 0.003 0.074 3 
0.464 -0.007 0.074 3 
0.465 -0.009 0.074 3 
0.465 0.051 0.034 3 
0.464 0.124 0.033 3 
0.464 0.102 0.033 3 
0.465 0.094 0.033 3 
0.464 0.088 0.033 3 
0.464 0.083 0.033 3 
0.465 0.078 0.033 3 
0.466 0.073 0.033 3 
0.465 0.064 0.033 3 
0.464 0.054 0.034 3 
0.465 0.133 0.033 3 
0.465 0.043 0.034 3 
0.464 0.032 0.034 3 
0.465 0.03 0.034 3 
0.465 0.024 0.034 3 
0.466 0.014 0.034 3 
0.464 0.003 0.034 3 
0.463 -0.007 0.034 3 
0.461 -0.017 0.034 3 
0.463 0.234 0.032 3 
0.465 0.147 0.036 3 
0.464 0.132 0.036 3 
0.464 0.032 0.036 3 
0.464 -0.007 0.023 3 
0.466 0 0.023 3 
0.465 0.334 0.031 3 
0.462 0.263 0.032 3 
0.463 0.252 0.032 3 
0.463 0.243 0.032 3 
0.464 0.003 0.023 3 
0.462 0.221 0.033 3 
0.462 0.213 0.033 3 
0.462 0.193 0.033 3 
0.463 0.173 0.033 3 
0.463 0.162 0.033 3 
0.464 0.154 0.033 3 
0.465 0.144 0.033 3 
0.464 0.141 0.033 3 
0.463 0.104 0.023 3 
0.463 0.243 0.024 3 
0.462 0.233 0.024 3 
0.463 0.199 0.024 3 
0.465 0.121 0.025 3 
0.465 -0.009 0.026 3 
0.462 0.064 0.023 3 
0.462 0.074 0.023 3 
0.462 0.082 0.023 3 
0.464 0.094 0.023 3 
0.464 0.253 0.024 3 
0.463 0.193 0.022 3 
0.462 0.181 0.022 3 
0.461 0.172 0.022 3 
0.461 0.164 0.022 3 
0.463 0.014 0.023 3 
0.462 0.153 0.022 3 
0.462 0.142 0.022 3 
0.464 0.124 0.023 3 
0.464 0.038 0.023 3 
0.465 0.008 0.023 3 
0.464 0.13 0.03 3 
0.464 0.024 0.031 3 
0.465 0.003 0.031 3 
0.465 0.102 0.028 3 
0.463 0.072 0.028 3 
0.464 0.014 0.028 3 
0.462 0.024 0.023 3 
0.464 0.032 0.023 3 
0.465 0.155 0.036 3 
0.463 0.053 0.023 3 
0.461 0.333 0.023 3 
0.462 0.324 0.023 3 
0.462 0.313 0.023 3 
0.463 0.301 0.023 3 
0.464 0.293 0.023 3 
0.464 0.274 0.023 3 
0.463 0.264 0.024 3 
0.463 0.243 0.043 3 
0.465 0.331 0.042 3 
0.463 0.312 0.043 3 
0.462 0.304 0.043 3 
0.462 0.294 0.043 3 
0.463 0.282 0.043 3 
0.463 0.273 0.043 3 
0.463 0.264 0.043 3 
0.461 0.224 0.024 3 
0.463 0.252 0.043 3 
0.462 0.334 0.042 3 
0.463 0.234 0.043 3 
0.464 0.223 0.043 3 
0.463 0.213 0.043 3 
0.462 0.204 0.044 3 
0.463 0.193 0.044 3 
0.463 0.182 0.044 3 
0.462 0.173 0.044 3 
0.463 0.162 0.044 3 
0.466 -0.015 0.052 3 
0.465 0.054 0.052 3 
0.466 0.043 0.052 3 
0.465 0.032 0.052 3 
0.464 0.024 0.052 3 
0.464 0.014 0.052 3 
0.464 0.003 0.052 3 
0.46 0.311 0.012 3 
0.464 -0.007 0.052 3 
0.465 -0.009 0.052 3 
0.464 0.154 0.044 3 
0.465 -0.025 0.052 3 
0.461 0.281 0.012 3 
0.465 0.097 0.049 3 
0.465 0.097 0.017 3 
0.461 0.322 0.014 3 
0.462 0.331 0.014 3 
0.465 0.032 0.02 3 
0.461 0.336 0.042 3 
0.461 0.333 0.034 3 
0.465 -0.009 0.044 3 
0.465 -0.015 0.044 3 
0.465 0.138 0.041 3 
0.464 0.124 0.041 3 
0.465 0.094 0.041 3 
0.465 0.024 0.042 3 
0.464 -0.015 0.042 3 
0.465 0.014 0.039 3 
0.46 0.335 0.034 3 
0.464 -0.007 0.044 3 
0.463 0.322 0.034 3 
0.463 0.312 0.034 3 
0.465 0.306 0.034 3 
0.464 0.302 0.034 3 
0.465 0.297 0.034 3 
0.464 0.293 0.034 3 
0.464 0.283 0.034 3 
0.465 0.241 0.035 3 
0.465 0.073 0.044 3 
0.463 0.14 0.044 3 
0.465 0.133 0.044 3 
0.465 0.124 0.044 3 
0.464 0.11 0.044 3 
0.464 0.099 0.044 3 
0.464 0.094 0.044 3 
0.464 0.083 0.044 3 
0.465 0.078 0.044 3 
0.464 0.313 0.08 3 
0.465 0.064 0.044 3 
0.464 0.056 0.044 3 
0.465 0.054 0.044 3 
0.464 0.048 0.044 3 
0.465 0.032 0.044 3 
0.464 0.024 0.044 3 
0.464 0.014 0.044 3 
0.463 0.003 0.044 3 
0.465 0.224 0.107 3 
0.465 0.192 0.112 3 
0.465 0.141 0.111 3 
0.464 -0.041 0.111 3 
0.465 0.249 0.11 3 
0.465 0.114 0.109 3 
0.464 -0.004 0.108 3 
0.462 0.162 0.014 3 
0.464 -0.012 0.108 3 
0.464 0.183 0.084 3 
0.465 0.152 0.112 3 
0.464 0.323 0.042 3 
0.465 0.062 0.106 3 
0.462 0.239 0.084 3 
0.464 -0.062 0.106 3 
0.466 0.243 0.104 3 
0.466 0.234 0.104 3 
0.465 0.224 0.104 3 
0.464 0.22 0.104 3 
0.465 0.273 0.113 3 
0.463 0.34 0.114 3 
0.464 0.334 0.114 3 
0.466 0.333 0.114 3 
0.465 0.318 0.114 3 
0.465 0.311 0.114 3 
0.467 0.3 0.114 3 
0.467 0.294 0.114 3 
0.464 0.032 0.012 3 
0.466 0.283 0.113 3 
0.465 0.195 0.104 3 
0.464 0.263 0.113 3 
0.464 0.254 0.113 3 
0.465 0.243 0.113 3 
0.464 0.072 0.063 3 
0.465 0.234 0.113 3 
0.464 0.23 0.112 3 
0.464 0.203 0.112 3 
0.465 0.198 0.112 3 
0.462 0.304 0.003 3 
0.464 0.062 0.103 3 
0.464 0.34 0.022 3 
0.463 0.054 0.103 3 
0.462 0.043 0.103 3 
0.464 0.032 0.103 3 
0.466 0.025 0.103 3 
0.465 0.014 0.103 3 
0.464 0.003 0.103 3 
0.464 -0.006 0.103 3 
0.463 0.072 0.103 3 
0.465 -0.012 0.103 3 
0.462 0.193 0.084 3 
0.462 0.314 0.003 3 
0.465 -0.017 0.103 3 
0.464 0.051 0.05 3 
0.466 -0.025 0.103 3 
0.467 -0.047 0.103 3 
0.466 -0.055 0.103 3 
0.462 0.291 0.004 3 
0.464 0.191 0.104 3 
0.465 0.189 0.104 3 
0.464 0.183 0.103 3 
0.463 0.174 0.103 3 
0.463 0.163 0.103 3 
0.465 0.155 0.103 3 
0.465 0.152 0.103 3 
0.465 0.144 0.103 3 
0.464 0.138 0.103 3 
0.464 -0.068 0.114 3 
0.464 0.133 0.103 3 
0.465 0.127 0.103 3 
0.465 0.122 0.103 3 
0.465 0.114 0.103 3 
0.465 0.043 0.044 3 
0.464 0.111 0.103 3 
0.464 0.102 0.103 3 
0.463 0.083 0.103 3 
0.465 0.246 0.121 3 
0.464 -0.065 0.122 3 
0.467 -0.068 0.122 3 
0.47 -0.077 0.123 3 
0.466 0.333 0.123 3 
0.466 0.323 0.123 3 
0.467 0.314 0.123 3 
0.467 0.304 0.123 3 
0.467 0.294 0.122 3 
0.463 0.112 0.023 3 
0.466 -0.057 0.122 3 
0.461 -0.075 0.119 3 
0.464 0.214 0.104 3 
0.465 0.122 0.117 3 
0.465 0.025 0.116 3 
0.464 -0.004 0.116 3 
0.462 0.053 0.002 3 
0.464 0.341 0.117 3 
0.464 0.269 0.116 3 
0.463 0.154 0.122 3 
0.465 0.212 0.123 3 
0.466 0.204 0.123 3 
0.456 0.15 0.086 3 
0.466 0.193 0.123 3 
0.434 -0.075 0.115 3 
0.465 0.184 0.123 3 
0.464 0.18 0.123 3 
0.463 0.171 0.122 3 
0.463 0.163 0.122 3 
0.462 0.219 0.114 3 
0.463 0.182 0.054 3 
0.464 0.144 0.122 3 
0.466 0.134 0.122 3 
0.464 0.127 0.122 3 
0.465 0.054 0.122 3 
0.466 -0.006 0.122 3 
0.466 -0.015 0.122 3 
0.465 -0.052 0.122 3 
0.464 0.062 0.002 3 
0.463 0.073 0.113 3 
0.463 0.054 0.113 3 
0.462 0.043 0.113 3 
0.462 0.21 0.024 3 
0.463 0.032 0.113 3 
0.466 0.246 0.104 3 
0.465 0.027 0.114 3 
0.466 0.022 0.114 3 
0.466 0.014 0.114 3 
0.463 0.083 0.114 3 
0.465 0.003 0.114 3 
0.464 0.274 0.054 3 
0.465 -0.017 0.114 3 
0.465 -0.025 0.114 3 
0.465 -0.036 0.114 3 
0.465 -0.047 0.114 3 
0.465 -0.055 0.114 3 
0.466 -0.066 0.114 3 
0.464 0.144 0.114 3 
0.464 0.203 0.115 3 
0.464 0.189 0.114 3 
0.465 0.178 0.114 3 
0.464 0.174 0.114 3 
0.465 0.172 0.114 3 
0.465 0.164 0.114 3 
0.464 0.158 0.114 3 
0.464 0.152 0.114 3 
0.464 -0.057 0.103 3 
0.464 0.133 0.114 3 
0.465 0.13 0.114 3 
0.465 0.122 0.114 3 
0.464 0.119 0.114 3 
0.464 0.113 0.114 3 
0.464 0.094 0.052 3 
0.463 0.102 0.114 3 
0.463 0.094 0.114 3 
0.465 0.114 0.084 3 
0.464 0.168 0.084 3 
0.462 0.334 0.054 3 
0.465 0.152 0.084 3 
0.464 0.146 0.084 3 
0.464 0.143 0.084 3 
0.465 0.141 0.084 3 
0.464 0.132 0.084 3 
0.465 0.13 0.084 3 
0.465 0.122 0.084 3 
0.465 0.172 0.084 3 
0.464 0.105 0.084 3 
0.464 0.1 0.084 3 
0.465 0.089 0.084 3 
0.465 0.084 0.084 3 
0.462 0.338 0.014 3 
0.465 0.073 0.084 3 
0.464 0.065 0.084 3 
0.464 0.062 0.084 3 
0.465 -0.057 0.09 3 
0.465 -0.036 0.092 3 
0.465 -0.047 0.092 3 
0.463 -0.057 0.092 3 
0.464 0.316 0.091 3 
0.464 0.13 0.09 3 
0.465 0.073 0.09 3 
0.464 0.03 0.089 3 
0.464 0.102 0.052 3 
0.464 0.024 0.089 3 
0.464 0.054 0.084 3 
0.465 0.331 0.088 3 
0.464 0.183 0.087 3 
0.464 0.171 0.087 3 
0.464 0.064 0.052 3 
0.464 0.138 0.087 3 
0.462 0.233 0.084 3 
0.462 0.224 0.084 3 
0.464 0.211 0.084 3 
0.465 0.062 0.082 3 
0.465 0.314 0.082 3 
0.465 0.304 0.082 3 
0.467 0.293 0.082 3 
0.464 0.272 0.082 3 
0.463 0.262 0.082 3 
0.465 0.253 0.082 3 
0.464 0.25 0.082 3 
0.459 0.074 0.013 3 
0.464 0.083 0.082 3 
0.465 0.317 0.082 3 
0.464 0.038 0.081 3 
0.464 0.024 0.081 3 
0.465 0.011 0.082 3 
0.462 0.083 0.012 3 
0.464 0.13 0.049 3 
0.463 0.091 0.012 3 
0.461 0.112 0.012 3 
0.463 0.123 0.012 3 
0.464 -0.044 0.084 3 
0.465 0.043 0.084 3 
0.465 0.032 0.084 3 
0.465 0.024 0.084 3 
0.464 0.014 0.084 3 
0.464 0.003 0.084 3 
0.464 -0.006 0.084 3 
0.465 -0.012 0.084 3 
0.466 -0.025 0.084 3 
0.465 -0.036 0.084 3 
0.466 -0.025 0.092 3 
0.466 0.144 0.063 3 
0.461 -0.046 0.084 3 
0.463 0.213 0.063 3 
0.465 0.03 0.012 3 
0.463 0.043 0.012 3 
0.462 0.053 0.013 3 
0.462 0.338 0.082 3 
0.465 0.327 0.083 3 
0.465 0.103 0.095 3 
0.464 0.297 0.099 3 
0.463 0.271 0.099 3 
0.465 0.178 0.098 3 
0.465 0.166 0.098 3 
0.464 0.116 0.098 3 
0.463 -0.052 0.098 3 
0.465 0.103 0.084 3 
0.464 0.251 0.096 3 
0.464 0.323 0.082 3 
0.464 0.323 0.1 3 
0.441 -0.058 0.092 3 
0.46 0.336 0.094 3 
0.462 0.334 0.094 3 
0.465 0.324 0.094 3 
0.465 0.314 0.094 3 
0.465 0.304 0.094 3 
0.464 0.297 0.094 3 
0.464 0.214 0.093 3 
0.466 0.293 0.102 3 
0.454 -0.063 0.102 3 
0.457 -0.066 0.102 3 
0.46 0.321 0.003 3 
0.46 0.336 0.102 3 
0.462 0.331 0.102 3 
0.465 0.328 0.103 3 
0.465 0.324 0.103 3 
0.465 0.314 0.102 3 
0.466 0.302 0.102 3 
0.465 0.292 0.094 3 
0.464 0.288 0.102 3 
0.464 0.281 0.102 3 
0.462 0.334 0.082 3 
0.465 0.279 0.102 3 
0.465 0.273 0.102 3 
0.467 0.262 0.102 3 
0.465 0.092 0.1 3 
0.465 0.114 0.092 3 
0.462 0.054 0.092 3 
0.465 0.122 0.092 3 
0.464 0.116 0.092 3 
0.464 0.111 0.092 3 
0.465 0.103 0.092 3 
0.465 0.092 0.092 3 
0.463 0.112 0.033 3 
0.465 0.084 0.092 3 
0.464 0.073 0.092 3 
0.463 0.064 0.092 3 
0.466 0.133 0.093 3 
0.465 0.046 0.092 3 
0.466 0.043 0.092 3 
0.465 0.024 0.092 3 
0.465 0.014 0.092 3 
0.464 0.011 0.092 3 
0.463 0.003 0.092 3 
0.465 -0.014 0.092 3 
0.465 -0.017 0.092 3 
0.464 0.223 0.093 3 
0.465 0.279 0.093 3 
0.465 0.043 0.023 3 
0.464 0.272 0.093 3 
0.463 0.262 0.093 3 
0.463 0.253 0.093 3 
0.464 0.244 0.093 3 
0.465 0.233 0.093 3 
0.464 0.229 0.093 3 
0.464 -0.049 0.111 3 
0.462 0.204 0.092 3 
0.463 0.193 0.092 3 
0.465 0.183 0.093 3 
0.465 0.172 0.093 3 
0.465 0.163 0.093 3 
0.466 0.153 0.093 3 
0.466 0.144 0.093 3 
0.464 0.062 0.034 3 
